<svg id="f4d48df3-8363-4130-9409-16205d51e63e" data-name="Layer 1" xmlns="http://www.w3.org/2000/svg" viewBox="0 0 360 244.02"><defs><style>.b6d80130-3c41-4f97-90bc-b7e7e60e83ef,.b6d82acf-9789-4695-82a9-498e353162b0,.e9fc5209-c98a-4d12-bcef-ce7cc6e5422c{fill:none;}.b6d80130-3c41-4f97-90bc-b7e7e60e83ef,.b6d82acf-9789-4695-82a9-498e353162b0{stroke:red;stroke-linecap:round;stroke-linejoin:round;}.b6d82acf-9789-4695-82a9-498e353162b0{stroke-width:3.01px;}.b6d80130-3c41-4f97-90bc-b7e7e60e83ef{stroke-width:3.76px;}</style></defs><rect class="e9fc5209-c98a-4d12-bcef-ce7cc6e5422c" width="360" height="244.02"/><path class="b6d82acf-9789-4695-82a9-498e353162b0" d="M97.82,127.92a8.7,8.7,0,0,1,0-12.29l10.72-10.72a8.69,8.69,0,0,1,12.29,12.29l-2.34,2.35"/><path class="b6d82acf-9789-4695-82a9-498e353162b0" d="M107.29,120.46a8.68,8.68,0,0,1,0,12.29l-9.18,9.19a8.69,8.69,0,0,1-12.29-12.3l.55-.54"/><path class="b6d80130-3c41-4f97-90bc-b7e7e60e83ef" d="M195.9,155.1a18.05,18.05,0,0,1,36.1,0Z"/><path class="b6d80130-3c41-4f97-90bc-b7e7e60e83ef" d="M238,155.1a18.05,18.05,0,0,1,36.1,0Z"/><circle class="b6d80130-3c41-4f97-90bc-b7e7e60e83ef" cx="213.95" cy="128.03" r="9.03"/><circle class="b6d80130-3c41-4f97-90bc-b7e7e60e83ef" cx="256.07" cy="128.03" r="9.03"/><polygon class="b6d80130-3c41-4f97-90bc-b7e7e60e83ef" points="250.06 106.97 219.97 106.97 213.95 112.98 207.94 106.97 195.9 106.97 195.9 88.92 274.12 88.92 274.12 106.97 262.09 106.97 256.07 112.98 250.06 106.97"/></svg>