<svg id="bb15e804-6288-475b-b545-40a3972ca837" data-name="Layer 1" xmlns="http://www.w3.org/2000/svg" width="360" height="180" viewBox="0 0 360 180"><defs><style>.a28a1c1b-7c94-4e13-8f5f-1eb86d02a36d{fill:#e00;}</style></defs><path d="M287.54,108.6c.17,0,.27-.08.27-.25v-.16c0-.17-.1-.25-.27-.25h-.43v.66Zm-.43,1.21h-.56V107.5h1.05a.71.71,0,0,1,.79.73.69.69,0,0,1-.42.7l.52.88h-.62l-.43-.79h-.33v.79Zm2-1v-.28a1.69,1.69,0,0,0-3.38,0v.28a1.69,1.69,0,0,0,3.38,0Zm-3.91-.14a2.22,2.22,0,1,1,2.22,2.28,2.23,2.23,0,0,1-2.22-2.28ZM253.37,72.1l-1-2.9H235.78v2.9Zm1.92,5.53-1-2.9h-18.5v2.9Zm12.34,33.17h14.48v-2.9H267.63v2.9Zm0-5.53h14.48v-2.9H267.63v2.9Zm0-5.53h8.69V96.85h-8.69v2.89Zm8.69-8.42h-8.69v2.89h8.69V91.32Zm-8.69-2.64h8.69V85.79H259.76l-.82,2.34-.81-2.34H241.57v2.89h8.69V86l.93,2.66H266.7l.93-2.66v2.66Zm8.69-8.42H261.68l-1,2.89h15.65V80.26ZM241.57,94.21h8.69V91.32h-8.69v2.89Zm0,5.53h8.69V96.85h-8.69v2.89Zm-5.79,5.53h14.48v-2.9H235.78v2.9Zm0,5.53h14.48v-2.9H235.78v2.9Zm29.75-41.6-1,2.9h17.59V69.2Zm-2.93,8.43h19.51v-2.9h-18.5l-1,2.9Zm-21,5.52h15.64l-1-2.89H241.57v2.89Zm11.56,11.06h11.63l1-2.89H252.12l1,2.89Zm1.94,5.53h7.75l1-2.89h-9.77l1,2.89Zm1.94,5.53h3.86l1-2.9H256l1,2.9Zm1.93,5.53,1-2.9h-2l1,2.9Zm-57.92,0h21.33a11,11,0,0,0,7.46-2.9H201v2.9Zm22.64-14v2.89h9.75a11,11,0,0,0-.39-2.89Zm-16.85,2.89h8.69V96.85h-8.69v2.89Zm16.85-16.59H233a11,11,0,0,0,.39-2.89h-9.75v2.89Zm-16.85,0h8.69V80.26h-8.69v2.89Zm15.54-14H201v2.9h28.79a11,11,0,0,0-7.46-2.9Zm9.57,5.53H201v2.9h32.07a10.82,10.82,0,0,0-1.17-2.9ZM206.81,85.79v2.89H229.5a11.06,11.06,0,0,0,2.42-2.89Zm22.69,5.53H206.81v2.89h25.11a11.06,11.06,0,0,0-2.42-2.89Zm-28.48,14h30.9a10.82,10.82,0,0,0,1.17-2.9H201v2.9ZM177.85,72.1h20.27V69.2H177.85v2.9Zm0,5.53h20.27v-2.9H177.85v2.9Zm14.48,2.63h-8.69v2.89h8.69V80.26Zm-8.69,8.42h8.69V85.79h-8.69v2.89Zm0,5.53h8.69V91.32h-8.69v2.89Zm0,5.53h8.69V96.85h-8.69v2.89Zm-5.79,5.53h20.27v-2.9H177.85v2.9Zm0,2.63h20.27v2.9H177.85v-2.9Z"/><polygon points="150.89 116 151.85 116 151.85 64 150.89 64 150.89 116 150.89 116"/><path class="a28a1c1b-7c94-4e13-8f5f-1eb86d02a36d" d="M116.42,89.87a14.44,14.44,0,0,1,.5,2.93c0,4-4.55,6.29-10.52,6.29-13.52,0-25.35-7.91-25.35-13.14a5.32,5.32,0,0,1,.44-2.12c-4.86.25-11.15,1.13-11.15,6.67,0,9.09,21.55,20.3,38.61,20.3,13.08,0,16.38-5.92,16.38-10.59,0-3.67-3.18-7.84-8.91-10.34M107,93.18c3.61,0,8.84-.75,8.84-5.05a4.15,4.15,0,0,0-.09-1l-2.15-9.35c-.5-2.05-.93-3-4.55-4.79-2.8-1.43-8.9-3.8-10.71-3.8s-2.18,2.18-4.17,2.18S90.83,69.76,89,69.76s-2.86,1.18-3.73,3.61c0,0-2.43,6.85-2.74,7.85a1.62,1.62,0,0,0-.07.56c0,2.66,10.49,11.4,24.54,11.4"/><path d="M116.42,89.87a14.44,14.44,0,0,1,.5,2.93c0,4-4.55,6.29-10.52,6.29-13.52,0-25.35-7.91-25.35-13.14a5.32,5.32,0,0,1,.44-2.12l1.06-2.61a1.62,1.62,0,0,0-.07.56c0,2.66,10.49,11.4,24.54,11.4,3.61,0,8.84-.75,8.84-5.05a4.15,4.15,0,0,0-.09-1l.65,2.73Z"/></svg>