<svg id="b1f65c4d-8a58-448c-92a7-f01e39b6ff71" data-name="Layer 1" xmlns="http://www.w3.org/2000/svg" width="360" height="175" viewBox="0 0 360 175"><defs><style>.f403052a-9476-4487-8ce0-b32924aa59a1{fill:#e00;}</style></defs><path class="f403052a-9476-4487-8ce0-b32924aa59a1" d="M110.91542,78.37925a14.97766,14.97766,0,0,1,.51676,3.03686c0,4.20029-4.71685,6.52633-10.92015,6.52633-14.02182,0-26.29892-8.20627-26.29892-13.6341a5.53132,5.53132,0,0,1,.45225-2.19689c-5.03982.25835-11.56609,1.163-11.56609,6.91385,0,9.43391,22.35705,21.06506,40.06224,21.06506,13.56933,0,16.99395-6.13856,16.99395-10.98489,0-3.81251-3.29543-8.1416-9.24-10.72622Zm-9.75713,3.42458c3.74776,0,9.17531-.77542,9.17531-5.23389a4.23244,4.23244,0,0,0-.09293-1.02556l-2.23282-9.70086c-.51706-2.13235-.96968-3.10155-4.71745-4.9754-2.90756-1.48616-9.24005-3.94154-11.11375-3.94154-1.74462,0-2.26158,2.26159-4.3294,2.26159-2.00309,0-3.48925-1.68009-5.36325-1.68009-1.809,0-2.97234,1.22769-3.87682,3.74773,0,0-2.52008,7.10776-2.84323,8.14165a1.86352,1.86352,0,0,0-.06616.58167c0,2.762,10.87847,11.8247,25.4605,11.8247Z"/><path d="M110.91542,78.37925a14.97766,14.97766,0,0,1,.51676,3.03686c0,4.20029-4.71685,6.52633-10.92015,6.52633-14.02182,0-26.29892-8.20627-26.29892-13.6341a5.53132,5.53132,0,0,1,.45225-2.19689l1.09859-2.714a1.86352,1.86352,0,0,0-.06616.58167c0,2.762,10.87847,11.8247,25.4605,11.8247,3.74776,0,9.17531-.77542,9.17531-5.23389a4.23244,4.23244,0,0,0-.09293-1.02556l.67475,2.83487Z"/><path d="M160.525,59.13239v5.61136h4.89221c1.96635,0,3.261-1.127,3.261-2.80559,0-1.70263-1.2946-2.80577-3.261-2.80577Zm-2.51788-2.20625h7.6256c3.3335,0,5.58732,2.01438,5.58732,4.964a4.74123,4.74123,0,0,1-3.4528,4.60426l3.74085,7.2181h-2.782l-3.47708-6.88235h-4.724V73.7125h-2.51788V56.92614Z"/><path d="M174.64919,66.59026h7.24192a3.64076,3.64076,0,0,0-7.24192,0Zm4.00464,7.33814a6.28079,6.28079,0,0,1-6.40263-6.33087,6.13322,6.13322,0,0,1,6.11487-6.28288c3.35718,0,5.89906,2.78176,5.89906,6.37874v.69551h-9.63992A4.11707,4.11707,0,0,0,178.74945,71.89a4.748,4.748,0,0,0,3.09371-1.07913l1.535,1.51073a7.28106,7.28106,0,0,1-4.72434,1.60677Z"/><path d="M192.53788,71.818a4.39846,4.39846,0,0,0,3.38148-1.4627V64.81578a4.46266,4.46266,0,0,0-3.38148-1.43889,4.22118,4.22118,0,0,0,0,8.4411Zm3.40545.74353a5.76642,5.76642,0,0,1-3.74116,1.34288,6.29492,6.29492,0,1,1,3.71719-11.39075V56.92614l2.398-.52748V73.7125h-2.374v-1.151Z"/><polygon points="206.446 56.926 208.964 56.926 208.964 64.12 217.885 64.12 217.885 56.926 220.403 56.926 220.403 73.712 217.885 73.712 217.885 66.399 208.964 66.399 208.964 73.712 206.446 73.712 206.446 56.926 206.446 56.926"/><path d="M227.7164,72.15378a4.69467,4.69467,0,0,0,3.23759-1.151V68.89239a6.34327,6.34327,0,0,0-3.14169-.74338c-1.7505,0-2.82961.79137-2.82961,2.01437,0,1.175,1.10307,1.9904,2.73371,1.9904Zm-5.03609-1.94238c0-2.30213,1.87045-3.717,4.93987-3.717a8.61977,8.61977,0,0,1,3.33381.6715v-1.295c0-1.72664-1.03145-2.58986-2.97381-2.58986a8.67541,8.67541,0,0,0-3.78883,1.03111l-.88758-1.79849a11.42569,11.42569,0,0,1,5.01212-1.247c3.16535,0,4.98783,1.55875,4.98783,4.36453V73.7125H230.954V72.65739a5.792,5.792,0,0,1-3.78912,1.271c-2.66208,0-4.48456-1.51091-4.48456-3.717Z"/><path d="M237.16448,63.52077H234.575V61.50652h2.58952V58.389l2.37432-.57551v3.693h3.597v2.01425h-3.597v6.6186c0,1.247.50357,1.70264,1.79849,1.70264a4.70989,4.70989,0,0,0,1.75052-.28773v2.01437a7.94,7.94,0,0,1-2.27808.35975c-2.374,0-3.64525-1.12714-3.64525-3.23737V63.52077Z"/><polygon points="161.029 86.541 161.029 98.891 157.815 98.891 157.815 82.105 162.276 82.105 166.88 91.122 171.484 82.105 175.944 82.105 175.944 98.891 172.659 98.891 172.659 86.565 166.832 97.692 161.029 86.541 161.029 86.541"/><path d="M183.32991,96.75715a4.73086,4.73086,0,0,0,2.75768-.79133V94.09538a7.2592,7.2592,0,0,0-2.63808-.45562c-1.51044,0-2.398.5995-2.398,1.5587s.88755,1.55869,2.27839,1.55869Zm-5.41975-1.48676c0-2.374,1.91838-3.78912,5.132-3.78912a10.1044,10.1044,0,0,1,3.04543.4799v-.88726c0-1.43909-.88726-2.18247-2.63808-2.18247a9.68455,9.68455,0,0,0-3.81281,1.03114l-1.199-2.422a13.02837,13.02837,0,0,1,5.56364-1.34288c3.38116,0,5.32384,1.6786,5.32384,4.62843v8.10519h-3.2376v-.86327a5.93791,5.93791,0,0,1-3.621,1.07909c-2.686,0-4.55647-1.55867-4.55647-3.83678Z"/><path d="M191.8185,86.39754h3.28524v1.36685a3.97413,3.97413,0,0,1,3.3332-1.65462,2.83243,2.83243,0,0,1,1.36715.28777v2.87788a4.189,4.189,0,0,0-1.67888-.336,3.30723,3.30723,0,0,0-3.02147,1.87073v8.08121H191.8185V86.39754Z"/><polygon points="201.578 82.105 204.864 81.386 204.864 91.673 210.259 86.398 213.976 86.398 208.125 92.129 214.336 98.891 210.139 98.891 204.864 93.184 204.864 98.891 201.578 98.891 201.578 82.105 201.578 82.105"/><path d="M216.97341,91.40963h6.11487a3.22253,3.22253,0,0,0-3.04544-2.51819,3.138,3.138,0,0,0-3.06943,2.51819Zm3.42913,7.72154a6.50443,6.50443,0,0,1-6.71468-6.47458,6.37768,6.37768,0,0,1,6.42691-6.47487c3.549,0,6.18711,2.87758,6.18711,6.71467v.86328h-9.3045a3.59977,3.59977,0,0,0,3.549,2.61381,3.934,3.934,0,0,0,2.758-1.00716l2.1579,1.96636a7.48889,7.48889,0,0,1-5.05976,1.79849Z"/><path d="M229.53917,89.15522h-2.56585V86.39754h2.56585V83.20818l3.28525-.74338v3.93274h3.54932v2.75768h-3.54932v5.53966c0,1.175.45562,1.60665,1.72685,1.60665a5.0513,5.0513,0,0,0,1.75023-.28776v2.68576a10.19,10.19,0,0,1-2.54157.38367c-2.78195,0-4.22076-1.27064-4.22076-3.71688v-6.2111Z"/><path d="M241.28932,90.21063v4.91589a4.20716,4.20716,0,0,0,2.9735,1.151,3.62119,3.62119,0,1,0,0-7.24223,4.02879,4.02879,0,0,0-2.9735,1.17531Zm-3.28555-3.81309h3.23758v1.03113a5.66428,5.66428,0,0,1,3.549-1.199,6.415,6.415,0,0,1-.09621,12.82955,6.20532,6.20532,0,0,1-3.40485-.98317v5.82741h-3.28555V86.39754Z"/><polygon points="256.444 98.891 253.159 98.891 253.159 82.105 256.444 81.386 256.444 98.891 256.444 98.891"/><path d="M263.82953,96.75715a4.73052,4.73052,0,0,0,2.758-.79133V94.09538a7.25861,7.25861,0,0,0-2.63777-.45562c-1.51074,0-2.398.5995-2.398,1.5587s.88725,1.55869,2.27779,1.55869Zm-5.41944-1.48676c0-2.374,1.91865-3.78912,5.132-3.78912a10.10438,10.10438,0,0,1,3.04542.4799v-.88726c0-1.43909-.88725-2.18247-2.63777-2.18247a9.68436,9.68436,0,0,0-3.8131,1.03114l-1.199-2.422a13.02934,13.02934,0,0,1,5.56363-1.34288c3.38147,0,5.32354,1.6786,5.32354,4.62843v8.10519h-3.2373v-.86327a5.9385,5.9385,0,0,1-3.62095,1.07909c-2.68607,0-4.55646-1.55867-4.55646-3.83678Z"/><path d="M281.40709,94.86273l1.96635,2.03831a6.93416,6.93416,0,0,1-5.08374,2.23013,6.487,6.487,0,1,1,0-12.97344,7.02739,7.02739,0,0,1,5.17967,2.23013l-2.01431,2.13452a4.05441,4.05441,0,0,0-3.09342-1.511,3.62893,3.62893,0,0,0,.07193,7.24222,3.87755,3.87755,0,0,0,2.97352-1.39084Z"/><path d="M287.30613,91.40963h6.11492a3.22259,3.22259,0,0,0-3.04548-2.51819,3.138,3.138,0,0,0-3.06944,2.51819Zm3.42914,7.72154a6.50425,6.50425,0,0,1-6.71467-6.47458,6.3777,6.3777,0,0,1,6.42693-6.47487c3.549,0,6.18711,2.87758,6.18711,6.71467v.86328h-9.30451a3.5995,3.5995,0,0,0,3.549,2.61381,3.93508,3.93508,0,0,0,2.758-1.00716l2.15788,1.96636a7.48886,7.48886,0,0,1-5.05976,1.79849Z"/><path d="M139.0762,117.14427a.67431.67431,0,0,1-.67443-.67444v-61.042a.67444.67444,0,0,1,1.34887,0v61.042a.67451.67451,0,0,1-.67444.67444Z"/><path d="M162.97367,107.9261a3.95819,3.95819,0,1,0,3.86676,3.957,3.83808,3.83808,0,0,0-3.86676-3.957Zm0,9.36773a5.41095,5.41095,0,1,1,5.47071-5.41075,5.38051,5.38051,0,0,1-5.47071,5.41075Z"/><path d="M171.441,111.5983v3.44741a2.82842,2.82842,0,0,0,2.1282.89925,2.631,2.631,0,0,0,0-5.26089,2.73621,2.73621,0,0,0-2.1282.91423Zm-1.49874-2.09823H171.426v.73438a3.48056,3.48056,0,0,1,2.33834-.85429,3.93453,3.93453,0,1,1-2.32334,7.11934v3.73217h-1.49874v-10.7316Z"/><path d="M180.19363,112.6777h4.52621a2.27545,2.27545,0,0,0-4.52621,0Zm2.50291,4.58646a3.92569,3.92569,0,0,1-4.00165-3.95729,3.833,3.833,0,0,1,3.8218-3.92671,3.77808,3.77808,0,0,1,3.68721,3.987v.43463h-6.02525a2.57347,2.57347,0,0,0,2.57814,2.18846,2.96805,2.96805,0,0,0,1.93338-.67472l.9592.9442a4.54943,4.54943,0,0,1-2.95283,1.00446Z"/><path d="M187.62741,109.50007h1.49874v.97417a2.38767,2.38767,0,0,1,2.09825-1.13933,1.904,1.904,0,0,1,.76435.1202V110.804a2.56681,2.56681,0,0,0-.88427-.16487,2.08272,2.08272,0,0,0-1.97833,1.39383v5.096h-1.49874v-7.6289Z"/><path d="M195.94544,116.1548a2.932,2.932,0,0,0,2.0233-.71941V114.1165a3.96332,3.96332,0,0,0-1.96365-.46462c-1.09409,0-1.76883.49459-1.76883,1.25895,0,.73439.68973,1.244,1.70918,1.244Zm-3.14767-1.214c0-1.43879,1.169-2.323,3.08741-2.323a5.38785,5.38785,0,0,1,2.08356.41963v-.80931c0-1.0794-.64476-1.61894-1.85875-1.61894a5.42265,5.42265,0,0,0-2.368.64446l-.55483-1.12406a7.14232,7.14232,0,0,1,3.133-.77935c1.97833,0,3.11739.97419,3.11739,2.728V117.129h-1.46877v-.65944a3.61947,3.61947,0,0,1-2.36831.79463c-1.66391,0-2.80266-.9445-2.80266-2.32335Z"/><path d="M202.14994,110.759H200.531v-1.259h1.61895V107.5514l1.48375-.3597v2.30837h2.24811v1.259h-2.24811v4.13683c0,.77934.31474,1.06409,1.12406,1.06409a2.93818,2.93818,0,0,0,1.09408-.17984v1.25924a4.96379,4.96379,0,0,1-1.42381.22482c-1.484,0-2.27808-.70471-2.27808-2.0236V110.759Z"/><path d="M208.14461,112.6777h4.5265a2.27561,2.27561,0,0,0-4.5265,0Zm2.5029,4.58646a3.92588,3.92588,0,0,1-4.00164-3.95729,3.83328,3.83328,0,0,1,3.82209-3.92671,3.77824,3.77824,0,0,1,3.6872,3.987v.43463h-6.02554a2.57349,2.57349,0,0,0,2.57813,2.18846,2.96747,2.96747,0,0,0,1.93339-.67472l.9592.9442a4.54889,4.54889,0,0,1-2.95283,1.00446Z"/><path d="M219.29557,115.945a2.749,2.749,0,0,0,2.11322-.91422v-3.4621a2.7882,2.7882,0,0,0-2.11322-.89955,2.63832,2.63832,0,0,0,0,5.27587Zm2.12821.46461a3.60172,3.60172,0,0,1-2.338.8396,3.93453,3.93453,0,1,1,2.32305-7.11963v-3.49237l1.499-.32972V117.129h-1.484v-.7194Z"/><path d="M229.30687,111.5983v3.44741a2.82845,2.82845,0,0,0,2.12821.89925,2.631,2.631,0,0,0,0-5.26089,2.73667,2.73667,0,0,0-2.12821.91423Zm2.29338,5.65087a3.81216,3.81216,0,0,1-2.30836-.76466v.64446h-1.48407v-10.4918l1.49905-.32972v3.912a3.534,3.534,0,0,1,2.323-.83931,3.93512,3.93512,0,0,1-.02967,7.869Z"/><path d="M239.10864,117.159l-3.04273-7.65888h1.64862l2.23311,5.83041,2.45853-5.83041h1.61867l-3.68722,8.54314c-.7044,1.63393-1.514,2.27839-2.92284,2.27839a2.8972,2.8972,0,0,1-.79436-.08993v-1.3189a2.96666,2.96666,0,0,0,.67474.06,1.58115,1.58115,0,0,0,1.51375-1.12406l.29973-.68972Z"/><polygon points="248.265 106.637 249.839 106.637 249.839 117.129 248.265 117.129 248.265 106.637 248.265 106.637"/><path d="M258.7422,114.07154c0-1.03415-.8396-1.72386-2.1435-1.72386h-3.04246v3.44742h3.04246c1.3039,0,2.1435-.67444,2.1435-1.72356Zm-5.186-6.10019v3.11738h2.87758c1.18432,0,1.93371-.59948,1.93371-1.55868s-.74939-1.5587-1.93371-1.5587Zm2.96752-1.33418c2.05355,0,3.40242,1.09438,3.40242,2.77268a2.48153,2.48153,0,0,1-1.454,2.2634,2.63422,2.63422,0,0,1,1.85841,2.47322c0,1.79849-1.42379,2.9825-3.61195,2.9825h-4.73634v-10.4918Z"/><polygon points="263.508 108.586 263.508 117.129 262.039 117.129 262.039 106.637 264.137 106.637 267.435 113.337 270.717 106.637 272.815 106.637 272.815 117.129 271.332 117.129 271.332 108.571 267.42 116.38 263.508 108.586 263.508 108.586"/></svg>