<svg id="b9f5bcb8-3ee0-42e1-9092-1777c4d9b6aa" data-name="Layer 1" xmlns="http://www.w3.org/2000/svg" width="360" height="175" viewBox="0 0 360 175"><defs><style>.b18791e8-fea3-4e6e-87a9-fc8f1c27e20a{fill:#e00;}</style></defs><path d="M305.91,101.38c.14,0,.21,0,.21-.18v-.12q0-.18-.21-.18h-.31v.48Zm-.31.91h-.42v-1.72H306a.56.56,0,0,1,.28,1.06l.38.66h-.46l-.32-.59h-.24v.59Zm1.51-.77v-.21a1.27,1.27,0,0,0-2.53,0v.21a1.27,1.27,0,0,0,2.53,0Zm-2.91-.1a1.65,1.65,0,1,1,1.65,1.7,1.65,1.65,0,0,1-1.65-1.7ZM280.4,74.13,279.65,72H267.27v2.16Zm1.44,4.13-.75-2.16H267.27v2.16ZM291.05,103h10.82v-2.16H291.05V103Zm0-4.13h10.82V96.74H291.05V98.9Zm0-4.13h6.49V92.61h-6.49v2.16Zm6.49-6.29h-6.49v2.17h6.49V88.48Zm-6.49-2h6.49V84.35H285.17l-.6,1.75L284,84.35H271.59v2.17h6.49v-2l.7,2h11.58l.69-2v2Zm6.49-6.29H286.61l-.75,2.16h11.68V80.23Zm-26,10.42h6.49V88.48h-6.49v2.17Zm0,4.12h6.49V92.61h-6.49v2.16Zm-4.32,4.13h10.81V96.74H267.27V98.9Zm0,4.13h10.81v-2.16H267.27V103ZM289.48,72l-.75,2.16h13.14V72Zm-2.19,6.29h14.58V76.1H288.05l-.76,2.16Zm-15.7,4.13h11.68l-.75-2.16H271.59v2.16Zm8.64,8.26h8.68l.76-2.17h-10.2l.76,2.17Zm1.44,4.12h5.79l.76-2.16h-7.3l.75,2.16Zm1.46,4.13H286l.76-2.16h-4.41l.77,2.16Zm1.43,4.13.76-2.16h-1.5l.74,2.16Zm-43.24,0h15.92a8.22,8.22,0,0,0,5.57-2.16H241.32V103Zm16.9-10.42v2.16h7.28a8.53,8.53,0,0,0-.29-2.16Zm-12.58,2.16h6.49V92.61h-6.49v2.16Zm12.58-12.38h7a8.53,8.53,0,0,0,.29-2.16h-7.28v2.16Zm-12.58,0h6.49V80.23h-6.49v2.16ZM257.24,72H241.32v2.16h21.49A8.23,8.23,0,0,0,257.24,72Zm7.15,4.13H241.32v2.16h23.94a8.15,8.15,0,0,0-.87-2.16Zm-18.75,8.25v2.17h16.94a8.25,8.25,0,0,0,1.81-2.17Zm16.94,4.13H245.64v2.17h18.75a8.25,8.25,0,0,0-1.81-2.17ZM241.32,98.9h23.07a8.15,8.15,0,0,0,.87-2.16H241.32V98.9ZM224,74.13h15.13V72H224v2.16Zm0,4.13h15.13V76.1H224v2.16Zm10.81,2h-6.49v2.16h6.49V80.23Zm-6.49,6.29h6.49V84.35h-6.49v2.17Zm0,4.13h6.49V88.48h-6.49v2.17Zm0,4.12h6.49V92.61h-6.49v2.16ZM224,98.9h15.13V96.74H224V98.9Zm0,2h15.13V103H224v-2.16Z"/><polygon points="203.88 106.91 204.6 106.91 204.6 68.09 203.88 68.09 203.88 106.91 203.88 106.91"/><path class="b18791e8-fea3-4e6e-87a9-fc8f1c27e20a" d="M86.91,87.41a10.77,10.77,0,0,1,.37,2.18c0,3-3.39,4.7-7.86,4.7-10.09,0-18.92-5.91-18.92-9.81a4,4,0,0,1,.32-1.58c-3.62.18-8.32.83-8.32,5C52.5,94.66,68.59,103,81.33,103c9.76,0,12.23-4.42,12.23-7.9,0-2.75-2.37-5.86-6.65-7.72m-7,2.46c2.69,0,6.6-.56,6.6-3.77a3,3,0,0,0-.07-.73l-1.6-7c-.38-1.54-.7-2.24-3.4-3.58-2.09-1.07-6.65-2.84-8-2.84S71.8,73.6,70.31,73.6s-2.51-1.21-3.86-1.21-2.14.88-2.79,2.69c0,0-1.81,5.12-2,5.86a1.57,1.57,0,0,0,0,.42c0,2,7.82,8.51,18.32,8.51"/><path d="M86.91,87.41a10.77,10.77,0,0,1,.37,2.18c0,3-3.39,4.7-7.86,4.7-10.09,0-18.92-5.91-18.92-9.81a4,4,0,0,1,.32-1.58l.79-2a1.57,1.57,0,0,0,0,.42c0,2,7.82,8.51,18.32,8.51,2.69,0,6.6-.56,6.6-3.77a3,3,0,0,0-.07-.73l.49,2Z"/><path d="M101.14,95.53H105V89.75h3l3,5.78h4.36l-3.5-6.35a4.8,4.8,0,0,0,3-4.47c0-2.86-2.25-5.06-5.61-5.06h-8.12V95.53ZM108.9,83a1.8,1.8,0,1,1,0,3.58H105V83Zm6.33,6.55a6.3,6.3,0,0,0,6.53,6.22,7.22,7.22,0,0,0,5-1.82l-2.43-2.15a3.27,3.27,0,0,1-2.41.91A3.08,3.08,0,0,1,119,90.79h8.55v-.91c0-3.81-2.57-6.55-6.06-6.55a6.16,6.16,0,0,0-6.26,6.21m6.19-3.22a2.66,2.66,0,0,1,2.52,1.91h-5a2.49,2.49,0,0,1,2.49-1.91m16.65,9.21h3.63V78.86l-3.67.79v4.52a6,6,0,0,0-3.07-.8,6.16,6.16,0,1,0-.11,12.32,5.41,5.41,0,0,0,3.22-1v.88Zm-5.74-6a3,3,0,0,1,3.16-3,3.74,3.74,0,0,1,2.54.93v4.2a3.55,3.55,0,0,1-2.54,1,3.06,3.06,0,0,1-3.16-3m14.87,6h3.9V89.32h6.54v6.21h3.9V79.65h-3.9v6.1H151.1v-6.1h-3.9V95.53Zm19.94.21a5.66,5.66,0,0,0,3.31-.93v.72h3.63V87.84c0-2.92-2-4.54-5.26-4.54a13.41,13.41,0,0,0-5.6,1.32l1.31,2.7a9.83,9.83,0,0,1,3.63-.95c1.52,0,2.29.59,2.29,1.79v.59a10.5,10.5,0,0,0-2.72-.34c-3.09,0-4.95,1.29-4.95,3.61,0,2.1,1.68,3.72,4.36,3.72M166,92c0-.8.79-1.18,2-1.18a9.14,9.14,0,0,1,2.17.27v1.54a4.58,4.58,0,0,1-2.29.57c-1.18,0-1.88-.45-1.88-1.2m11.42-.07c0,2.56,1.54,3.81,4.35,3.81a11.61,11.61,0,0,0,2.57-.36v-3a5.42,5.42,0,0,1-1.66.24c-1.16,0-1.59-.36-1.59-1.45V86.59h3.36V83.53h-3.36V79.65l-3.67.8v3.08H175v3.06h2.43v5.29Z"/></svg>