<svg id="ad8cb555-2799-4b3a-89ac-a16effc680eb" data-name="Layer 1" xmlns="http://www.w3.org/2000/svg" xmlns:xlink="http://www.w3.org/1999/xlink" width="555" height="193" viewBox="0 0 555 193"><defs><style>.ab8e33b1-bf1f-4ddc-9179-4879cfc1cdee,.ad0120d8-9e95-4982-840b-a5d0719078c2,.b099a1cb-94c0-40c6-a5e0-a2233c82eb26,.b7e1a13c-99cd-4c0d-8ab8-420643561967,.e4fc8627-3f2c-47bc-b447-7457ed4c8ed1{fill:none;}.adc4a679-bebd-4941-9d96-34aa729344f2{fill:#f9f9f9;}.b139937e-ab89-4d64-bf8e-060ac73fffce{clip-path:url(#e3aa8ab0-d116-450a-b19a-cc98f824bbf6);}.b09f5051-19f0-4297-995b-ca7032e00bd5{fill:#fff;}.a7c8910d-7e1b-4f1a-be0d-77aa92a4546c{fill:#e00;}.e8dd127e-9ca4-4819-adb4-ce02f3e768fb{fill:#a8a8a8;}.ab8e33b1-bf1f-4ddc-9179-4879cfc1cdee,.e4fc8627-3f2c-47bc-b447-7457ed4c8ed1{stroke:#a8a8a8;}.ab8e33b1-bf1f-4ddc-9179-4879cfc1cdee,.b099a1cb-94c0-40c6-a5e0-a2233c82eb26,.b7e1a13c-99cd-4c0d-8ab8-420643561967,.e4fc8627-3f2c-47bc-b447-7457ed4c8ed1{stroke-miterlimit:10;}.ab8e33b1-bf1f-4ddc-9179-4879cfc1cdee{stroke-width:0.75px;}.b7e1a13c-99cd-4c0d-8ab8-420643561967{stroke:#b40000;}.bae61959-0104-4123-a09e-5a882748f6b7{clip-path:url(#b559de70-91de-413f-b306-ca4e3b51cef1);}.b099a1cb-94c0-40c6-a5e0-a2233c82eb26{stroke:#e00;}</style><clipPath id="e3aa8ab0-d116-450a-b19a-cc98f824bbf6"><rect class="ad0120d8-9e95-4982-840b-a5d0719078c2" x="-234.61" y="19.19" width="78.46" height="52.76"/></clipPath><clipPath id="b559de70-91de-413f-b306-ca4e3b51cef1"><rect class="ad0120d8-9e95-4982-840b-a5d0719078c2" width="267.5" height="193"/></clipPath></defs><rect class="adc4a679-bebd-4941-9d96-34aa729344f2" width="267.5" height="193"/><rect x="277.65" width="277.35" height="193"/><rect x="416.32" y="7.89" width="128.37" height="22.39"/><path class="b09f5051-19f0-4297-995b-ca7032e00bd5" d="M428.39,18.78h2.23v.39h-1.78v.91H430v.39h-1.17v.93h1.79v.4h-2.24Z"/><path class="b09f5051-19f0-4297-995b-ca7032e00bd5" d="M431.05,19.6h.43v.22a.91.91,0,0,1,.66-.26.82.82,0,0,1,.86.86V21.8h-.43V20.49a.51.51,0,0,0-.55-.56.61.61,0,0,0-.54.29V21.8h-.43Z"/><path class="b09f5051-19f0-4297-995b-ca7032e00bd5" d="M433.69,20h-.46V19.6h.46V19l.43-.1v.66h.65V20h-.65v1.2c0,.22.09.3.32.3a.86.86,0,0,0,.32-.05v.36a1.41,1.41,0,0,1-.41.07c-.43,0-.66-.21-.66-.59Z"/><path class="b09f5051-19f0-4297-995b-ca7032e00bd5" d="M436.09,21.84a1.14,1.14,0,0,1-1.15-1.14,1.1,1.1,0,0,1,1.1-1.13,1.08,1.08,0,0,1,1.06,1.14v.13h-1.73a.74.74,0,0,0,.74.63.86.86,0,0,0,.56-.19l.27.27A1.29,1.29,0,0,1,436.09,21.84Zm-.72-1.32h1.31a.69.69,0,0,0-.65-.59A.68.68,0,0,0,435.37,20.52Z"/><path class="b09f5051-19f0-4297-995b-ca7032e00bd5" d="M437.51,19.6h.43v.28a.71.71,0,0,1,.61-.33.51.51,0,0,1,.22,0V20a.75.75,0,0,0-.26-.05.61.61,0,0,0-.57.4V21.8h-.43Z"/><path class="b09f5051-19f0-4297-995b-ca7032e00bd5" d="M439.11,19.6h.43v.21a1,1,0,0,1,.67-.24,1.13,1.13,0,1,1-.67,2.05v1.07h-.43Zm.43.6v1a.83.83,0,0,0,.62.26.76.76,0,0,0,0-1.52A.84.84,0,0,0,439.54,20.2Z"/><path class="b09f5051-19f0-4297-995b-ca7032e00bd5" d="M441.73,19.6h.43v.28a.71.71,0,0,1,.61-.33.51.51,0,0,1,.22,0V20a.75.75,0,0,0-.26-.05.61.61,0,0,0-.57.4V21.8h-.43Z"/><path class="b09f5051-19f0-4297-995b-ca7032e00bd5" d="M443.28,19a.27.27,0,1,1,.27.27A.27.27,0,0,1,443.28,19Zm.48,2.82h-.43V19.6h.43Z"/><path class="b09f5051-19f0-4297-995b-ca7032e00bd5" d="M444.3,21.23a1.15,1.15,0,0,0,.71.27c.32,0,.53-.13.53-.32s-.11-.25-.35-.28l-.4-.06c-.44-.06-.66-.27-.66-.61s.35-.66.86-.66a1.52,1.52,0,0,1,.89.28l-.22.28a1.22,1.22,0,0,0-.7-.23c-.26,0-.44.12-.44.3s.1.24.36.28l.4.05c.44.07.67.28.67.62s-.4.69-.92.69a1.44,1.44,0,0,1-1-.33Z"/><path class="b09f5051-19f0-4297-995b-ca7032e00bd5" d="M447.35,21.84a1.14,1.14,0,0,1-1.15-1.14,1.1,1.1,0,0,1,1.1-1.13,1.08,1.08,0,0,1,1.06,1.14v.13h-1.73a.74.74,0,0,0,.74.63.86.86,0,0,0,.56-.19l.27.27A1.29,1.29,0,0,1,447.35,21.84Zm-.72-1.32h1.31a.69.69,0,0,0-.65-.59A.68.68,0,0,0,446.63,20.52Z"/><path class="b09f5051-19f0-4297-995b-ca7032e00bd5" d="M449.73,18.78h.45V21.4h1.74v.4h-2.19Z"/><path class="b09f5051-19f0-4297-995b-ca7032e00bd5" d="M452.28,19a.26.26,0,0,1,.26-.27.27.27,0,0,1,0,.54A.26.26,0,0,1,452.28,19Zm.47,2.82h-.43V19.6h.43Z"/><path class="b09f5051-19f0-4297-995b-ca7032e00bd5" d="M453.26,19.6h.44v.22a.9.9,0,0,1,.66-.26.82.82,0,0,1,.86.86V21.8h-.44V20.49a.51.51,0,0,0-.54-.56.61.61,0,0,0-.54.29V21.8h-.44Z"/><path class="b09f5051-19f0-4297-995b-ca7032e00bd5" d="M456.11,20.91a.52.52,0,0,0,.55.56.65.65,0,0,0,.54-.29V19.6h.43v2.2h-.43v-.22a.93.93,0,0,1-.66.26.82.82,0,0,1-.86-.86V19.6h.43Z"/><path class="b09f5051-19f0-4297-995b-ca7032e00bd5" d="M458.74,20.67l-.82-1.07h.51l.56.76.57-.76h.49l-.81,1.07.86,1.13h-.51L459,21l-.61.81h-.49Z"/><path class="a7c8910d-7e1b-4f1a-be0d-77aa92a4546c" d="M424.25,16.22c.52,0,1.27-.11,1.27-.73a.66.66,0,0,0,0-.14L425.2,14c-.07-.3-.13-.43-.65-.69a5.89,5.89,0,0,0-1.54-.55c-.24,0-.31.32-.6.32s-.48-.24-.74-.24-.41.17-.54.52c0,0-.35,1-.39,1.13a.25.25,0,0,0,0,.08c0,.38,1.51,1.64,3.52,1.64m1.35-.48a1.92,1.92,0,0,1,.08.42c0,.58-.66.91-1.52.91-1.94,0-3.64-1.14-3.64-1.89a.66.66,0,0,1,.07-.3c-.7,0-1.6.16-1.6.95,0,1.31,3.09,2.92,5.54,2.92,1.88,0,2.35-.85,2.35-1.52a1.84,1.84,0,0,0-1.28-1.49"/><path d="M425.6,15.74a1.92,1.92,0,0,1,.08.42c0,.58-.66.91-1.52.91-1.94,0-3.64-1.14-3.64-1.89a.66.66,0,0,1,.07-.3l.15-.38a.25.25,0,0,0,0,.08c0,.38,1.51,1.64,3.52,1.64.52,0,1.27-.11,1.27-.73a.66.66,0,0,0,0-.14Z"/><path class="b09f5051-19f0-4297-995b-ca7032e00bd5" d="M443,16.6c0,.5.29.74.84.74a2.14,2.14,0,0,0,.49-.07v-.58a.93.93,0,0,1-.32,0c-.22,0-.31-.07-.31-.28v-.87h.65V15h-.65v-.75l-.7.15V15h-.47v.59H443Zm-2.2,0c0-.16.15-.23.38-.23a1.73,1.73,0,0,1,.42.05v.3a.93.93,0,0,1-.44.11c-.22,0-.36-.09-.36-.23m.22.72a1.08,1.08,0,0,0,.63-.17v.14h.7V15.83c0-.57-.38-.88-1-.88a2.62,2.62,0,0,0-1.08.26l.25.52a1.84,1.84,0,0,1,.7-.19c.3,0,.44.12.44.35V16a2.18,2.18,0,0,0-.52-.06c-.59,0-.95.24-.95.69s.32.71.84.71m-3.84,0H438v-1.2h1.26v1.2H440V14.25h-.75v1.18H438V14.25h-.75Zm-2.86-1.16a.59.59,0,0,1,.61-.59.76.76,0,0,1,.49.18v.81a.71.71,0,0,1-.49.18.59.59,0,0,1-.61-.58m1.11,1.16h.69V14.1l-.7.15v.87a1.2,1.2,0,0,0-.59-.15,1.19,1.19,0,1,0,0,2.37,1.07,1.07,0,0,0,.62-.2Zm-3.21-1.78a.52.52,0,0,1,.49.37h-1a.49.49,0,0,1,.48-.37m-1.19.62a1.21,1.21,0,0,0,1.26,1.2,1.39,1.39,0,0,0,1-.35l-.46-.41a.64.64,0,0,1-.47.17.58.58,0,0,1-.56-.37h1.64v-.17a1.19,1.19,0,1,0-2.37-.07m-1.22-1.26a.35.35,0,0,1,.39.35.35.35,0,0,1-.39.34h-.74v-.69Zm-1.49,2.42h.75V16.19h.57l.58,1.12h.84l-.67-1.23a.91.91,0,0,0,.57-.86,1,1,0,0,0-1.08-1h-1.56Z"/><path class="b09f5051-19f0-4297-995b-ca7032e00bd5" d="M479.76,21.85a1.56,1.56,0,1,1,1.58-1.56A1.55,1.55,0,0,1,479.76,21.85Zm0-2.7a1.14,1.14,0,1,0,1.12,1.14A1.11,1.11,0,0,0,479.76,19.15Z"/><path class="b09f5051-19f0-4297-995b-ca7032e00bd5" d="M481.77,19.6h.42v.21a1,1,0,0,1,.68-.24,1.13,1.13,0,0,1,0,2.26,1.08,1.08,0,0,1-.66-.21v1.07h-.43Zm.43.6v1a.82.82,0,0,0,.61.26.76.76,0,0,0,0-1.52A.8.8,0,0,0,482.2,20.2Z"/><path class="b09f5051-19f0-4297-995b-ca7032e00bd5" d="M485.45,21.84a1.14,1.14,0,0,1-1.16-1.14,1.11,1.11,0,0,1,1.11-1.13,1.09,1.09,0,0,1,1.06,1.14v.13h-1.74a.74.74,0,0,0,.75.63.85.85,0,0,0,.55-.19l.28.27A1.31,1.31,0,0,1,485.45,21.84Zm-.72-1.32H486a.65.65,0,0,0-1.3,0Z"/><path class="b09f5051-19f0-4297-995b-ca7032e00bd5" d="M486.87,19.6h.43v.22a.91.91,0,0,1,.66-.26.82.82,0,0,1,.86.86V21.8h-.43V20.49a.52.52,0,0,0-.55-.56.61.61,0,0,0-.54.29V21.8h-.43Z"/><path class="b09f5051-19f0-4297-995b-ca7032e00bd5" d="M489.37,21a1.45,1.45,0,0,0,1,.47c.44,0,.73-.2.73-.5s-.17-.4-.61-.48l-.5-.08c-.56-.09-.83-.35-.83-.78s.44-.87,1.12-.87a2,2,0,0,1,1.21.41l-.25.34a1.61,1.61,0,0,0-1-.37c-.39,0-.65.18-.65.45s.15.36.54.43l.49.08c.63.1.92.36.92.83s-.48.93-1.2.93a1.84,1.84,0,0,1-1.3-.54Z"/><path class="b09f5051-19f0-4297-995b-ca7032e00bd5" d="M492,18.78l.43-.1v1.14a.91.91,0,0,1,.66-.26.82.82,0,0,1,.86.86V21.8h-.43V20.49a.51.51,0,0,0-.55-.56.61.61,0,0,0-.54.29V21.8H492Z"/><path class="b09f5051-19f0-4297-995b-ca7032e00bd5" d="M494.36,19a.26.26,0,0,1,.26-.27.27.27,0,1,1,0,.54A.26.26,0,0,1,494.36,19Zm.48,2.82h-.44V19.6h.44Z"/><path class="b09f5051-19f0-4297-995b-ca7032e00bd5" d="M495.67,19.6v-.33a.66.66,0,0,1,.75-.71,1,1,0,0,1,.31,0V19a.83.83,0,0,0-.27,0c-.24,0-.36.1-.36.34v.32h.63V20h-.63V21.8h-.43V20h-.51V19.6Z"/><path class="b09f5051-19f0-4297-995b-ca7032e00bd5" d="M497.39,20h-.47V19.6h.47V19l.42-.1v.66h.65V20h-.65v1.2c0,.22.09.3.33.3a.81.81,0,0,0,.31-.05v.36a1.35,1.35,0,0,1-.41.07c-.43,0-.65-.21-.65-.59Z"/><path class="a7c8910d-7e1b-4f1a-be0d-77aa92a4546c" d="M474.18,16.22c.52,0,1.27-.11,1.27-.73a.66.66,0,0,0,0-.14L475.13,14c-.07-.3-.13-.43-.65-.69a5.89,5.89,0,0,0-1.54-.55c-.24,0-.31.32-.6.32s-.48-.24-.74-.24-.41.17-.54.52c0,0-.35,1-.39,1.13a.25.25,0,0,0,0,.08c0,.38,1.5,1.64,3.52,1.64m1.35-.48a1.92,1.92,0,0,1,.08.42c0,.58-.66.91-1.52.91-1.94,0-3.64-1.14-3.64-1.89a.66.66,0,0,1,.07-.3c-.7,0-1.6.16-1.6.95,0,1.31,3.09,2.92,5.54,2.92,1.88,0,2.35-.85,2.35-1.52a1.84,1.84,0,0,0-1.28-1.49"/><path d="M475.53,15.74a1.92,1.92,0,0,1,.08.42c0,.58-.66.91-1.52.91-1.94,0-3.64-1.14-3.64-1.89a.66.66,0,0,1,.07-.3l.15-.38a.25.25,0,0,0,0,.08c0,.38,1.5,1.64,3.52,1.64.52,0,1.27-.11,1.27-.73a.66.66,0,0,0,0-.14Z"/><path class="b09f5051-19f0-4297-995b-ca7032e00bd5" d="M493,16.6c0,.5.29.74.83.74a2.15,2.15,0,0,0,.5-.07v-.58a.93.93,0,0,1-.32,0c-.22,0-.31-.07-.31-.28v-.87h.65V15h-.65v-.75l-.7.15V15h-.47v.59H493Zm-2.2,0c0-.16.15-.23.38-.23a1.73,1.73,0,0,1,.42.05v.3a.93.93,0,0,1-.44.11c-.22,0-.36-.09-.36-.23m.22.72a1.1,1.1,0,0,0,.63-.17v.14h.7V15.83c0-.57-.38-.88-1-.88a2.62,2.62,0,0,0-1.08.26l.25.52a1.8,1.8,0,0,1,.7-.19c.29,0,.44.12.44.35V16a2.18,2.18,0,0,0-.52-.06c-.59,0-.95.24-.95.69s.32.71.84.71m-3.84,0h.75v-1.2h1.26v1.2h.75V14.25h-.75v1.18h-1.26V14.25h-.75Zm-2.86-1.16a.59.59,0,0,1,.61-.59.76.76,0,0,1,.49.18v.81a.71.71,0,0,1-.49.18.59.59,0,0,1-.61-.58m1.1,1.16h.7V14.1l-.7.15v.87a1.2,1.2,0,0,0-.59-.15,1.19,1.19,0,1,0,0,2.37,1,1,0,0,0,.61-.2Zm-3.2-1.78a.53.53,0,0,1,.49.37h-1a.49.49,0,0,1,.48-.37m-1.19.62a1.21,1.21,0,0,0,1.26,1.2,1.39,1.39,0,0,0,1-.35l-.46-.41a.66.66,0,0,1-.47.17.58.58,0,0,1-.56-.37h1.64v-.17a1.19,1.19,0,1,0-2.37-.07m-1.22-1.26a.35.35,0,0,1,.39.35.35.35,0,0,1-.39.34H479v-.69Zm-1.49,2.42H479V16.19h.57l.58,1.12H481l-.67-1.23a.91.91,0,0,0,.57-.86,1,1,0,0,0-1.08-1h-1.56Z"/><path class="b09f5051-19f0-4297-995b-ca7032e00bd5" d="M518.6,18.78h.53l1.24,3h-.49l-.35-.89h-1.36l-.35.89h-.47Zm.78,1.76-.53-1.33-.52,1.33Z"/><path class="b09f5051-19f0-4297-995b-ca7032e00bd5" d="M520.62,19.6h.44v.22a.9.9,0,0,1,.66-.26.82.82,0,0,1,.86.86V21.8h-.44V20.49a.51.51,0,0,0-.54-.56.61.61,0,0,0-.54.29V21.8h-.44Z"/><path class="b09f5051-19f0-4297-995b-ca7032e00bd5" d="M523.1,21.23a1.15,1.15,0,0,0,.71.27c.31,0,.53-.13.53-.32s-.11-.25-.35-.28l-.4-.06c-.44-.06-.66-.27-.66-.61s.35-.66.86-.66a1.52,1.52,0,0,1,.89.28l-.22.28a1.22,1.22,0,0,0-.7-.23c-.26,0-.44.12-.44.3s.1.24.36.28l.4.05c.44.07.67.28.67.62s-.4.69-.92.69a1.44,1.44,0,0,1-1-.33Z"/><path class="b09f5051-19f0-4297-995b-ca7032e00bd5" d="M525,19a.27.27,0,1,1,.26.27A.27.27,0,0,1,525,19Zm.48,2.82h-.43V19.6h.43Z"/><path class="b09f5051-19f0-4297-995b-ca7032e00bd5" d="M527.11,21.83a1.05,1.05,0,0,1-.66-.22v.19H526v-3l.43-.1v1.13a1,1,0,0,1,.67-.24,1.13,1.13,0,0,1,0,2.26Zm-.66-1.63v1a.82.82,0,0,0,.61.26.76.76,0,0,0,0-1.52A.8.8,0,0,0,526.45,20.2Z"/><path class="b09f5051-19f0-4297-995b-ca7032e00bd5" d="M529.07,21.8h-.43v-3l.43-.1Z"/><path class="b09f5051-19f0-4297-995b-ca7032e00bd5" d="M530.63,21.84a1.13,1.13,0,0,1-1.15-1.14,1.1,1.1,0,0,1,1.1-1.13,1.09,1.09,0,0,1,1.06,1.14v.13h-1.73a.74.74,0,0,0,.74.63.86.86,0,0,0,.56-.19l.27.27A1.29,1.29,0,0,1,530.63,21.84Zm-.72-1.32h1.3a.67.67,0,0,0-.64-.59A.68.68,0,0,0,529.91,20.52Z"/><path class="b09f5051-19f0-4297-995b-ca7032e00bd5" d="M518.6,23.26h.53l1.24,3h-.49l-.35-.89h-1.36l-.35.89h-.47Zm.78,1.76-.53-1.33L518.33,25Z"/><path class="b09f5051-19f0-4297-995b-ca7032e00bd5" d="M521,25.39a.52.52,0,0,0,.55.56.65.65,0,0,0,.54-.29V24.08h.43v2.2h-.43v-.22a.93.93,0,0,1-.66.26.82.82,0,0,1-.86-.86V24.08H521Z"/><path class="b09f5051-19f0-4297-995b-ca7032e00bd5" d="M523.27,24.44h-.47v-.36h.47v-.56l.43-.1v.66h.65v.36h-.65v1.2c0,.22.09.3.32.3a.86.86,0,0,0,.32-.05v.36a1.41,1.41,0,0,1-.41.07c-.43,0-.66-.2-.66-.58Z"/><path class="b09f5051-19f0-4297-995b-ca7032e00bd5" d="M525.66,24a1.14,1.14,0,1,1-1.14,1.14A1.13,1.13,0,0,1,525.66,24Zm.72,1.14a.72.72,0,1,0-.72.76A.73.73,0,0,0,526.38,25.18Z"/><path class="b09f5051-19f0-4297-995b-ca7032e00bd5" d="M527.21,24.08h.43v.21a.81.81,0,0,1,.62-.25.77.77,0,0,1,.68.37.85.85,0,0,1,.74-.37.8.8,0,0,1,.82.86v1.38h-.43V25a.49.49,0,0,0-.5-.56.59.59,0,0,0-.52.3.58.58,0,0,1,0,.19v1.38h-.43V25a.49.49,0,0,0-.5-.56.57.57,0,0,0-.5.27v1.6h-.43Z"/><path class="b09f5051-19f0-4297-995b-ca7032e00bd5" d="M530.89,25.65c0-.42.33-.67.89-.67a1.53,1.53,0,0,1,.6.12v-.23c0-.31-.19-.47-.54-.47a1.56,1.56,0,0,0-.68.19l-.16-.33a2.12,2.12,0,0,1,.9-.22c.57,0,.9.28.9.78v1.46h-.42v-.19a1.1,1.1,0,0,1-.69.23C531.21,26.32,530.89,26.05,530.89,25.65Zm.9.35a.85.85,0,0,0,.59-.21v-.38a1.17,1.17,0,0,0-.57-.13c-.32,0-.51.14-.51.36S531.5,26,531.79,26Z"/><path class="b09f5051-19f0-4297-995b-ca7032e00bd5" d="M533.49,24.44H533v-.36h.46v-.56l.43-.1v.66h.65v.36h-.65v1.2c0,.22.09.3.32.3a.86.86,0,0,0,.32-.05v.36a1.41,1.41,0,0,1-.41.07c-.43,0-.66-.2-.66-.58Z"/><path class="b09f5051-19f0-4297-995b-ca7032e00bd5" d="M534.84,23.46a.26.26,0,0,1,.26-.27.27.27,0,1,1,0,.54A.26.26,0,0,1,534.84,23.46Zm.48,2.82h-.44v-2.2h.44Z"/><path class="b09f5051-19f0-4297-995b-ca7032e00bd5" d="M536.87,24a1.14,1.14,0,1,1-1.14,1.14A1.13,1.13,0,0,1,536.87,24Zm.72,1.14a.72.72,0,1,0-.72.76A.73.73,0,0,0,537.59,25.18Z"/><path class="b09f5051-19f0-4297-995b-ca7032e00bd5" d="M538.42,24.08h.43v.22a.91.91,0,0,1,.66-.26.82.82,0,0,1,.86.86v1.38h-.43V25a.51.51,0,0,0-.55-.56.61.61,0,0,0-.54.29v1.58h-.43Z"/><path class="a7c8910d-7e1b-4f1a-be0d-77aa92a4546c" d="M513.52,16.22c.52,0,1.27-.11,1.27-.73a.68.68,0,0,0,0-.14L514.46,14c-.07-.3-.13-.43-.65-.69a5.89,5.89,0,0,0-1.54-.55c-.24,0-.31.32-.6.32s-.48-.24-.74-.24-.41.17-.53.52L510,14.5a.25.25,0,0,0,0,.08c0,.38,1.51,1.64,3.53,1.64m1.35-.48a2.17,2.17,0,0,1,.07.42c0,.58-.65.91-1.51.91-1.94,0-3.64-1.14-3.64-1.89a.67.67,0,0,1,.06-.3c-.7,0-1.6.16-1.6.95,0,1.31,3.09,2.92,5.54,2.92,1.88,0,2.36-.85,2.36-1.52a1.86,1.86,0,0,0-1.28-1.49"/><path d="M514.87,15.74a2.17,2.17,0,0,1,.07.42c0,.58-.65.91-1.51.91-1.94,0-3.64-1.14-3.64-1.89a.67.67,0,0,1,.06-.3l.15-.38a.25.25,0,0,0,0,.08c0,.38,1.51,1.64,3.53,1.64.52,0,1.27-.11,1.27-.73a.68.68,0,0,0,0-.14Z"/><path class="b09f5051-19f0-4297-995b-ca7032e00bd5" d="M532.28,16.6c0,.5.3.74.84.74a2.07,2.07,0,0,0,.49-.07v-.58a.89.89,0,0,1-.32,0c-.22,0-.3-.07-.3-.28v-.87h.64V15H533v-.75l-.71.15V15h-.47v.59h.47Zm-2.2,0c0-.16.16-.23.39-.23a1.86,1.86,0,0,1,.42.05v.3a1,1,0,0,1-.44.11c-.23,0-.37-.09-.37-.23m.22.72a1.14,1.14,0,0,0,.64-.17v.14h.69V15.83c0-.57-.38-.88-1-.88a2.62,2.62,0,0,0-1.08.26l.26.52a1.76,1.76,0,0,1,.7-.19c.29,0,.44.12.44.35V16a2.26,2.26,0,0,0-.53-.06c-.59,0-.95.24-.95.69s.32.71.84.71m-3.84,0h.75v-1.2h1.26v1.2h.75V14.25h-.75v1.18h-1.26V14.25h-.75Zm-2.86-1.16a.6.6,0,0,1,.61-.59.74.74,0,0,1,.49.18v.81a.69.69,0,0,1-.49.18.59.59,0,0,1-.61-.58m1.11,1.16h.7V14.1l-.71.15v.87a1.2,1.2,0,0,0-.59-.15,1.19,1.19,0,1,0,0,2.37,1,1,0,0,0,.62-.2Zm-3.2-1.78a.51.51,0,0,1,.48.37h-1a.48.48,0,0,1,.48-.37m-1.2.62a1.21,1.21,0,0,0,1.26,1.2,1.43,1.43,0,0,0,1-.35l-.47-.41a.64.64,0,0,1-.46.17.58.58,0,0,1-.57-.37h1.64v-.17a1.19,1.19,0,1,0-2.37-.07m-1.21-1.26a.35.35,0,0,1,.39.35.35.35,0,0,1-.39.34h-.74v-.69Zm-1.5,2.42h.76V16.19h.57l.57,1.12h.84l-.67-1.23a.91.91,0,0,0,.57-.86,1,1,0,0,0-1.07-1H517.6Z"/><path class="b09f5051-19f0-4297-995b-ca7032e00bd5" d="M294.15,15.63,292,12.44h1.23l1.45,2.25,1.45-2.25h1.17l-2.12,3.2v2h-1.07Z"/><path class="b09f5051-19f0-4297-995b-ca7032e00bd5" d="M298.53,13.69a2,2,0,1,1-2.06,2A2,2,0,0,1,298.53,13.69Zm1.06,2a1.07,1.07,0,1,0-1.06,1.12A1.08,1.08,0,0,0,299.59,15.69Z"/><path class="b09f5051-19f0-4297-995b-ca7032e00bd5" d="M302.19,16a.75.75,0,0,0,.79.82.94.94,0,0,0,.8-.39V13.77h1v3.84h-1V17.3a1.63,1.63,0,0,1-1.08.39,1.47,1.47,0,0,1-1.53-1.54V13.77h1Z"/><path class="b09f5051-19f0-4297-995b-ca7032e00bd5" d="M305.59,13.77h1v.42a1.23,1.23,0,0,1,1-.51.9.9,0,0,1,.42.09v.88a1.46,1.46,0,0,0-.52-.1,1,1,0,0,0-.93.57v2.49h-1Z"/><path class="b09f5051-19f0-4297-995b-ca7032e00bd5" d="M309.31,19.14v-.78a1.72,1.72,0,0,0,.34,0c.3,0,.43-.12.43-.39V13.77h1v4.29c0,.73-.45,1.14-1.25,1.14A2,2,0,0,1,309.31,19.14Zm.7-6.41a.58.58,0,0,1,1.15,0,.58.58,0,1,1-1.15,0Z"/><path class="b09f5051-19f0-4297-995b-ca7032e00bd5" d="M313.76,13.69a2,2,0,1,1-2.05,2A2,2,0,0,1,313.76,13.69Zm1.06,2a1.06,1.06,0,1,0-1.06,1.12A1.07,1.07,0,0,0,314.82,15.69Z"/><path class="b09f5051-19f0-4297-995b-ca7032e00bd5" d="M317.42,16a.76.76,0,0,0,.8.82,1,1,0,0,0,.8-.39V13.77h1v3.84h-1V17.3a1.67,1.67,0,0,1-1.09.39,1.47,1.47,0,0,1-1.52-1.54V13.77h1Z"/><path class="b09f5051-19f0-4297-995b-ca7032e00bd5" d="M320.82,13.77h1v.42a1.24,1.24,0,0,1,1-.51.87.87,0,0,1,.42.09v.88a1.42,1.42,0,0,0-.52-.1,1,1,0,0,0-.93.57v2.49h-1Z"/><path class="b09f5051-19f0-4297-995b-ca7032e00bd5" d="M323.83,13.77h1v.3a1.64,1.64,0,0,1,1.08-.38,1.46,1.46,0,0,1,1.52,1.53v2.39h-1V15.37a.75.75,0,0,0-.8-.81.93.93,0,0,0-.79.39v2.66h-1Z"/><path class="b09f5051-19f0-4297-995b-ca7032e00bd5" d="M330.1,17.69a2,2,0,0,1-2.06-2,1.94,1.94,0,1,1,3.88.08V16h-2.87a1.12,1.12,0,0,0,1.1.81,1.22,1.22,0,0,0,.85-.31l.66.6A2.27,2.27,0,0,1,330.1,17.69Zm-1.05-2.38h1.88a1,1,0,0,0-.94-.78A1,1,0,0,0,329.05,15.31Z"/><path class="b09f5051-19f0-4297-995b-ca7032e00bd5" d="M333.5,17.65,332,13.77h1.11l1,2.62,1.09-2.62h1.09l-1.77,4.15c-.4.93-.86,1.28-1.71,1.28a1.92,1.92,0,0,1-.45,0v-.87a1.79,1.79,0,0,0,.36,0,.78.78,0,0,0,.76-.53Z"/><path class="b09f5051-19f0-4297-995b-ca7032e00bd5" d="M338.66,14.62h-.79v-.85h.79v-1l1-.22v1.21h1.09v.85h-1.09v1.7c0,.36.14.5.53.5a1.75,1.75,0,0,0,.54-.09v.82a3,3,0,0,1-.79.12c-.85,0-1.3-.39-1.3-1.14Z"/><path class="b09f5051-19f0-4297-995b-ca7032e00bd5" d="M343.11,13.69a2,2,0,1,1-2.05,2A2,2,0,0,1,343.11,13.69Zm1.07,2a1.07,1.07,0,1,0-1.07,1.12A1.08,1.08,0,0,0,344.18,15.69Z"/><path class="b09f5051-19f0-4297-995b-ca7032e00bd5" d="M347.8,14.62H347v-.85h.79v-1l1-.22v1.21h1.1v.85h-1.1v1.7c0,.36.14.5.53.5a1.7,1.7,0,0,0,.54-.09v.82a3,3,0,0,1-.78.12c-.86,0-1.3-.39-1.3-1.14Z"/><path class="b09f5051-19f0-4297-995b-ca7032e00bd5" d="M350.41,12.44l1-.22v1.85a1.64,1.64,0,0,1,1.08-.38A1.46,1.46,0,0,1,354,15.22v2.39h-1V15.37a.75.75,0,0,0-.8-.81.93.93,0,0,0-.79.39v2.66h-1Z"/><path class="b09f5051-19f0-4297-995b-ca7032e00bd5" d="M356.68,17.69a2,2,0,0,1-2.06-2,1.94,1.94,0,1,1,3.88.08V16h-2.87a1.13,1.13,0,0,0,1.1.81,1.22,1.22,0,0,0,.85-.31l.66.6A2.27,2.27,0,0,1,356.68,17.69Zm-1.05-2.38h1.88a1,1,0,0,0-.94-.78A1,1,0,0,0,355.63,15.31Z"/><path class="b09f5051-19f0-4297-995b-ca7032e00bd5" d="M360.61,12.44l1-.22v1.85a1.64,1.64,0,0,1,1.08-.38,1.46,1.46,0,0,1,1.52,1.53v2.39h-1V15.37a.75.75,0,0,0-.8-.81.93.93,0,0,0-.79.39v2.66h-1Z"/><path class="b09f5051-19f0-4297-995b-ca7032e00bd5" d="M366,17.65l-1.5-3.88h1.12l.95,2.62,1.09-2.62h1.09L367,17.92c-.4.93-.86,1.28-1.7,1.28a1.82,1.82,0,0,1-.45,0v-.87a1.62,1.62,0,0,0,.35,0,.78.78,0,0,0,.76-.53Z"/><path class="b09f5051-19f0-4297-995b-ca7032e00bd5" d="M371.24,17.67a2.06,2.06,0,0,1-1.07-.31v.25h-1V12.44l1-.22v1.85a1.78,1.78,0,0,1,1.08-.36,2,2,0,0,1,0,4Zm-1.05-2.73v1.51a1.25,1.25,0,0,0,.91.36,1.12,1.12,0,1,0,0-2.23A1.23,1.23,0,0,0,370.19,14.94Z"/><path class="b09f5051-19f0-4297-995b-ca7032e00bd5" d="M373.85,13.77h1v.42a1.23,1.23,0,0,1,1-.51.9.9,0,0,1,.42.09v.88a1.46,1.46,0,0,0-.52-.1,1,1,0,0,0-.93.57v2.49h-1Z"/><path class="b09f5051-19f0-4297-995b-ca7032e00bd5" d="M376.78,12.73a.58.58,0,0,1,1.16,0,.58.58,0,1,1-1.16,0Zm1.09,4.88h-1V13.77h1Z"/><path class="b09f5051-19f0-4297-995b-ca7032e00bd5" d="M381.53,17.3a1.75,1.75,0,0,1-1.09.37,2,2,0,0,1,0-4,1.9,1.9,0,0,1,1,.31V12.44l1-.22v5.39h-1Zm-.93-.5a1.23,1.23,0,0,0,.92-.37v-1.5a1.28,1.28,0,0,0-.92-.36,1.12,1.12,0,1,0,0,2.23Z"/><path class="b09f5051-19f0-4297-995b-ca7032e00bd5" d="M387.62,16.37l.6.63a2.11,2.11,0,0,1-1.56.69,2,2,0,1,1,0-4,2.15,2.15,0,0,1,1.59.69l-.62.66a1.25,1.25,0,0,0-.95-.47,1.07,1.07,0,0,0-1,1.12,1.06,1.06,0,0,0,1.06,1.11A1.19,1.19,0,0,0,387.62,16.37Z"/><path class="b09f5051-19f0-4297-995b-ca7032e00bd5" d="M389.76,17.61h-1V12.44l1-.22Z"/><path class="b09f5051-19f0-4297-995b-ca7032e00bd5" d="M392.43,13.69a2,2,0,1,1-2.05,2A2,2,0,0,1,392.43,13.69Zm1.06,2a1.06,1.06,0,1,0-1.06,1.12A1.07,1.07,0,0,0,393.49,15.69Z"/><path class="b09f5051-19f0-4297-995b-ca7032e00bd5" d="M396.09,16a.76.76,0,0,0,.8.82.92.92,0,0,0,.79-.39V13.77h1v3.84h-1V17.3a1.63,1.63,0,0,1-1.08.39,1.47,1.47,0,0,1-1.52-1.54V13.77h1Z"/><path class="b09f5051-19f0-4297-995b-ca7032e00bd5" d="M402.36,17.3a1.75,1.75,0,0,1-1.09.37,2,2,0,0,1,0-4,1.93,1.93,0,0,1,1.05.31V12.44l1-.22v5.39h-1Zm-.93-.5a1.23,1.23,0,0,0,.92-.37v-1.5a1.28,1.28,0,0,0-.92-.36,1.12,1.12,0,1,0,0,2.23Z"/><path class="a7c8910d-7e1b-4f1a-be0d-77aa92a4546c" d="M292.66,25.35a2.21,2.21,0,0,0,1.25.44c.45,0,.74-.16.74-.41s-.14-.31-.48-.36l-.74-.11c-.76-.12-1.16-.49-1.16-1.11s.62-1.22,1.6-1.22a2.82,2.82,0,0,1,1.58.48l-.49.65a2.26,2.26,0,0,0-1.19-.37c-.36,0-.6.15-.6.37s.15.32.52.37l.74.11c.75.11,1.18.5,1.18,1.1s-.72,1.27-1.69,1.27a2.86,2.86,0,0,1-1.76-.53Z"/><path class="a7c8910d-7e1b-4f1a-be0d-77aa92a4546c" d="M296.56,23.49h-.79v-.85h.79v-1l1-.22v1.21h1.1v.85h-1.1v1.7c0,.36.14.5.54.5a1.64,1.64,0,0,0,.53-.09v.83a3.41,3.41,0,0,1-.78.11c-.86,0-1.3-.39-1.3-1.14Z"/><path class="a7c8910d-7e1b-4f1a-be0d-77aa92a4546c" d="M299,25.37c0-.73.59-1.17,1.58-1.17a3,3,0,0,1,.93.15v-.27c0-.45-.27-.68-.81-.68a3.08,3.08,0,0,0-1.17.32l-.37-.74a4,4,0,0,1,1.71-.42c1,0,1.64.52,1.64,1.43v2.49h-1v-.26a1.8,1.8,0,0,1-1.11.33A1.24,1.24,0,0,1,299,25.37Zm1.67.46a1.37,1.37,0,0,0,.84-.25V25a2.12,2.12,0,0,0-.81-.14c-.46,0-.74.18-.74.48S300.23,25.83,300.66,25.83Z"/><path class="a7c8910d-7e1b-4f1a-be0d-77aa92a4546c" d="M303.27,22.64h1v.42a1.21,1.21,0,0,1,1-.51.87.87,0,0,1,.42.09v.88a1.4,1.4,0,0,0-.51-.1,1,1,0,0,0-.93.57v2.49h-1Z"/><path class="a7c8910d-7e1b-4f1a-be0d-77aa92a4546c" d="M306.87,23.49h-.79v-.85h.79v-1l1-.22v1.21H309v.85h-1.09v1.7c0,.36.14.5.53.5a1.75,1.75,0,0,0,.54-.09v.83a3.49,3.49,0,0,1-.78.11c-.86,0-1.3-.39-1.3-1.14Z"/><path class="a7c8910d-7e1b-4f1a-be0d-77aa92a4546c" d="M309.73,25.35a2.2,2.2,0,0,0,1.24.44c.45,0,.75-.16.75-.41s-.15-.31-.48-.36l-.74-.11c-.76-.12-1.17-.49-1.17-1.11s.63-1.22,1.61-1.22a2.82,2.82,0,0,1,1.58.48l-.49.65a2.29,2.29,0,0,0-1.19-.37c-.37,0-.6.15-.6.37s.14.32.52.37l.74.11c.75.11,1.17.5,1.17,1.1S312,26.56,311,26.56a2.91,2.91,0,0,1-1.77-.53Z"/><path class="a7c8910d-7e1b-4f1a-be0d-77aa92a4546c" d="M314.59,21.6a.58.58,0,0,1,1.15,0,.58.58,0,1,1-1.15,0Zm1.09,4.88h-1V22.64h1Z"/><path class="a7c8910d-7e1b-4f1a-be0d-77aa92a4546c" d="M316.47,22.64h1v.3a1.67,1.67,0,0,1,1.08-.38,1.46,1.46,0,0,1,1.52,1.53v2.39h-1V24.24a.75.75,0,0,0-.8-.81.93.93,0,0,0-.79.39v2.66h-1Z"/><path class="a7c8910d-7e1b-4f1a-be0d-77aa92a4546c" d="M322.86,23.49h-.79v-.85h.79v-1l1-.22v1.21H325v.85h-1.1v1.7c0,.36.14.5.53.5a1.7,1.7,0,0,0,.54-.09v.83a3.41,3.41,0,0,1-.78.11c-.86,0-1.3-.39-1.3-1.14Z"/><path class="a7c8910d-7e1b-4f1a-be0d-77aa92a4546c" d="M325.47,21.31l1-.22v1.85a1.69,1.69,0,0,1,1.08-.38,1.46,1.46,0,0,1,1.52,1.53v2.39h-1V24.24a.75.75,0,0,0-.8-.81.93.93,0,0,0-.79.39v2.66h-1Z"/><path class="a7c8910d-7e1b-4f1a-be0d-77aa92a4546c" d="M331.74,26.56a2,2,0,0,1-2.06-2,1.94,1.94,0,1,1,3.88.08v.26H330.7a1.11,1.11,0,0,0,1.09.81,1.22,1.22,0,0,0,.85-.31l.66.6A2.27,2.27,0,0,1,331.74,26.56Zm-1.05-2.38h1.88a1,1,0,0,0-.94-.78A1,1,0,0,0,330.69,24.18Z"/><path class="a7c8910d-7e1b-4f1a-be0d-77aa92a4546c" d="M337.55,22.56a2,2,0,1,1-2.06,2A2,2,0,0,1,337.55,22.56Zm1.06,2a1.07,1.07,0,1,0-1.06,1.12A1.08,1.08,0,0,0,338.61,24.56Z"/><path class="a7c8910d-7e1b-4f1a-be0d-77aa92a4546c" d="M340.22,22.64h1V23a1.77,1.77,0,0,1,1.09-.37,2,2,0,0,1,0,4,1.89,1.89,0,0,1-1-.31V28h-1Zm1,1.17v1.51a1.25,1.25,0,0,0,.91.36,1.12,1.12,0,1,0,0-2.23A1.2,1.2,0,0,0,341.24,23.81Z"/><path class="a7c8910d-7e1b-4f1a-be0d-77aa92a4546c" d="M346.82,26.56a2,2,0,0,1-2.07-2,1.94,1.94,0,1,1,3.88.08v.26h-2.86a1.11,1.11,0,0,0,1.09.81,1.22,1.22,0,0,0,.85-.31l.66.6A2.26,2.26,0,0,1,346.82,26.56Zm-1.06-2.38h1.88a1,1,0,0,0-.93-.78A1,1,0,0,0,345.76,24.18Z"/><path class="a7c8910d-7e1b-4f1a-be0d-77aa92a4546c" d="M349.26,22.64h1v.3a1.67,1.67,0,0,1,1.08-.38,1.46,1.46,0,0,1,1.52,1.53v2.39h-1V24.24a.75.75,0,0,0-.8-.81.93.93,0,0,0-.79.39v2.66h-1Z"/><path class="a7c8910d-7e1b-4f1a-be0d-77aa92a4546c" d="M354.73,26a.6.6,0,1,1-.6-.61A.61.61,0,0,1,354.73,26Z"/><rect class="e8dd127e-9ca4-4819-adb4-ce02f3e768fb" x="292.04" y="38.53" width="73.04" height="42.8"/><rect class="e8dd127e-9ca4-4819-adb4-ce02f3e768fb" x="379.81" y="38.53" width="73.04" height="42.8"/><rect class="e8dd127e-9ca4-4819-adb4-ce02f3e768fb" x="467.57" y="38.53" width="73.04" height="42.8"/><line class="ab8e33b1-bf1f-4ddc-9179-4879cfc1cdee" x1="312.68" y1="193.26" x2="312.68" y2="113.46"/><line class="ab8e33b1-bf1f-4ddc-9179-4879cfc1cdee" x1="344.43" y1="113.46" x2="344.43" y2="193.26"/><line class="e4fc8627-3f2c-47bc-b447-7457ed4c8ed1" x1="311.03" y1="113.46" x2="346.08" y2="113.46"/><line class="ab8e33b1-bf1f-4ddc-9179-4879cfc1cdee" x1="400.44" y1="193.26" x2="400.44" y2="113.46"/><line class="ab8e33b1-bf1f-4ddc-9179-4879cfc1cdee" x1="432.2" y1="113.46" x2="432.2" y2="193.26"/><line class="e4fc8627-3f2c-47bc-b447-7457ed4c8ed1" x1="398.8" y1="113.46" x2="433.85" y2="113.46"/><line class="ab8e33b1-bf1f-4ddc-9179-4879cfc1cdee" x1="488.21" y1="193.26" x2="488.21" y2="113.46"/><line class="ab8e33b1-bf1f-4ddc-9179-4879cfc1cdee" x1="519.97" y1="113.46" x2="519.97" y2="193.26"/><line class="e4fc8627-3f2c-47bc-b447-7457ed4c8ed1" x1="486.56" y1="113.46" x2="521.62" y2="113.46"/><path class="a7c8910d-7e1b-4f1a-be0d-77aa92a4546c" d="M26.9,18.78c3,0,5.15,1.72,5.15,4.17A3.76,3.76,0,0,1,30.35,26a3.75,3.75,0,0,1,2.16,3.24c0,2.61-2.12,4.37-5.25,4.37H19.55V18.78Zm-3.71,3v2.92h3.48c1,0,1.73-.57,1.73-1.46s-.68-1.46-1.73-1.46Zm5.64,7.28c0-.95-.72-1.56-1.85-1.56H23.19v3.13H27C28.11,30.62,28.83,30,28.83,29.05Z"/><path class="a7c8910d-7e1b-4f1a-be0d-77aa92a4546c" d="M34.31,22.4h3.43v1.13a3.71,3.71,0,0,1,2.95-1.38,2.39,2.39,0,0,1,1.29.28v3a4,4,0,0,0-1.63-.34,3.06,3.06,0,0,0-2.61,1.42v7.12H34.31Z"/><path class="a7c8910d-7e1b-4f1a-be0d-77aa92a4546c" d="M43.29,19.48a1.89,1.89,0,1,1,1.88,1.89A1.88,1.88,0,0,1,43.29,19.48Zm3.6,14.13H43.46V22.4h3.43Z"/><path class="a7c8910d-7e1b-4f1a-be0d-77aa92a4546c" d="M57.22,32.78a5,5,0,0,1-3,1,5.75,5.75,0,1,1,3-10.76V18.78L60.61,18V33.61H57.22Zm-2.41-2a3.26,3.26,0,0,0,2.37-.89V26a3.47,3.47,0,0,0-2.37-.87,2.84,2.84,0,1,0,0,5.67Z"/><path class="a7c8910d-7e1b-4f1a-be0d-77aa92a4546c" d="M62.22,27.93a5.7,5.7,0,0,1,5.83-5.67,5.49,5.49,0,0,1,2.81.74v-.6h3.39V33.5c0,3-2,4.7-5.8,4.7a11.19,11.19,0,0,1-4.79-1l1.15-2.67a8.26,8.26,0,0,0,3.57.85c1.61,0,2.44-.66,2.44-1.95v-.7a5.17,5.17,0,0,1-2.9.89A5.66,5.66,0,0,1,62.22,27.93Zm6.29,2.84a3.29,3.29,0,0,0,2.31-.83V26a3.55,3.55,0,0,0-2.29-.82,2.81,2.81,0,1,0,0,5.61Z"/><path class="a7c8910d-7e1b-4f1a-be0d-77aa92a4546c" d="M82,33.82a5.88,5.88,0,0,1-6.1-5.8,5.76,5.76,0,0,1,5.85-5.81c3.28,0,5.65,2.59,5.65,6.12v.85h-8A2.9,2.9,0,0,0,82.13,31a3,3,0,0,0,2.24-.85l2.27,2A6.79,6.79,0,0,1,82,33.82Zm-2.65-7H84A2.46,2.46,0,0,0,81.64,25,2.34,2.34,0,0,0,79.31,26.79Z"/><path class="a7c8910d-7e1b-4f1a-be0d-77aa92a4546c" d="M96.3,33.76,92,22.4h3.79l2.48,7.06,2.88-7.06h3.7l-5,11.78c-1.25,2.92-2.71,4-5.4,4A6.89,6.89,0,0,1,93,38.06V35.13a4.71,4.71,0,0,0,1.06.09,2.21,2.21,0,0,0,2.23-1.44Z"/><path class="a7c8910d-7e1b-4f1a-be0d-77aa92a4546c" d="M111,22.19A5.82,5.82,0,1,1,104.94,28,5.9,5.9,0,0,1,111,22.19ZM113.75,28A2.74,2.74,0,1,0,111,30.86,2.77,2.77,0,0,0,113.75,28Z"/><path class="a7c8910d-7e1b-4f1a-be0d-77aa92a4546c" d="M122.05,28.84a1.91,1.91,0,0,0,2,2,2.47,2.47,0,0,0,2-.89V22.4h3.43V33.61h-3.43v-.76a4.88,4.88,0,0,1-3,1,4.3,4.3,0,0,1-4.47-4.51V22.4h3.43Z"/><path class="a7c8910d-7e1b-4f1a-be0d-77aa92a4546c" d="M131.64,22.4h3.43v1.13A3.7,3.7,0,0,1,138,22.15a2.41,2.41,0,0,1,1.3.28v3a4,4,0,0,0-1.63-.34,3.06,3.06,0,0,0-2.61,1.42v7.12h-3.43Z"/><path class="a7c8910d-7e1b-4f1a-be0d-77aa92a4546c" d="M27.41,51.65l2,2.12a6.23,6.23,0,0,1-4.64,2,5.82,5.82,0,1,1,0-11.63,6.34,6.34,0,0,1,4.75,2.08l-2.1,2.18a3.24,3.24,0,0,0-2.56-1.29,2.86,2.86,0,0,0,.08,5.7A3.16,3.16,0,0,0,27.41,51.65Z"/><path class="a7c8910d-7e1b-4f1a-be0d-77aa92a4546c" d="M34.23,55.61H30.79V40.78L34.23,40Z"/><path class="a7c8910d-7e1b-4f1a-be0d-77aa92a4546c" d="M41.91,44.19A5.82,5.82,0,1,1,35.83,50,5.9,5.9,0,0,1,41.91,44.19ZM44.65,50a2.74,2.74,0,1,0-2.74,2.84A2.77,2.77,0,0,0,44.65,50Z"/><path class="a7c8910d-7e1b-4f1a-be0d-77aa92a4546c" d="M53,50.84a1.91,1.91,0,0,0,2,2A2.47,2.47,0,0,0,57,52V44.4h3.43V55.61H57v-.76a4.88,4.88,0,0,1-3,1,4.3,4.3,0,0,1-4.46-4.51V44.4H53Z"/><path class="a7c8910d-7e1b-4f1a-be0d-77aa92a4546c" d="M70.76,54.78a5,5,0,0,1-3,1,5.75,5.75,0,1,1,3-10.76V40.78L74.15,40V55.61H70.76Zm-2.42-2a3.26,3.26,0,0,0,2.37-.89V48a3.47,3.47,0,0,0-2.37-.87,2.84,2.84,0,1,0,0,5.67Z"/><path class="a7c8910d-7e1b-4f1a-be0d-77aa92a4546c" d="M77,52.05a6.89,6.89,0,0,0,3.65,1.21c1.12,0,1.84-.34,1.84-.89s-.36-.68-1.14-.81l-2.23-.34c-2.22-.33-3.43-1.5-3.43-3.34,0-2.27,1.82-3.64,4.83-3.64a8.78,8.78,0,0,1,4.68,1.35l-1.63,2.2a6.62,6.62,0,0,0-3.39-1c-.89,0-1.46.31-1.46.8s.36.7,1.31.85l2.23.34c2.2.31,3.45,1.5,3.45,3.26,0,2.18-2.14,3.79-5,3.79a9.1,9.1,0,0,1-5.3-1.46Z"/><path d="M26.9,62.78c3,0,5.15,1.72,5.15,4.17a3.76,3.76,0,0,1-1.7,3,3.75,3.75,0,0,1,2.16,3.24c0,2.61-2.12,4.37-5.25,4.37H19.55V62.78Zm-3.71,3v2.92h3.48c1,0,1.73-.57,1.73-1.46s-.68-1.46-1.73-1.46Zm5.64,7.28c0-1-.72-1.56-1.85-1.56H23.19v3.13H27C28.11,74.62,28.83,74,28.83,73.05Z"/><path d="M37.44,72.84a1.92,1.92,0,0,0,2,2,2.48,2.48,0,0,0,2-.89V66.4h3.43V77.61H41.49v-.76a4.91,4.91,0,0,1-3,1A4.31,4.31,0,0,1,34,73.31V66.4h3.43Z"/><path d="M46.87,63.48a1.89,1.89,0,1,1,1.88,1.89A1.88,1.88,0,0,1,46.87,63.48Zm3.6,14.13H47V66.4h3.43Z"/><path d="M56,77.61H52.59V62.78L56,62Z"/><path d="M66.35,76.78a5,5,0,0,1-3,1,5.75,5.75,0,1,1,3-10.76V62.78L69.74,62V77.61H66.35Zm-2.41-2a3.26,3.26,0,0,0,2.37-.89V70a3.47,3.47,0,0,0-2.37-.87,2.84,2.84,0,1,0,0,5.67Z"/><path d="M79.18,77.76,74.89,66.4h3.79l2.47,7.06L84,66.4h3.7l-5,11.78c-1.25,2.92-2.71,4-5.4,4a6.89,6.89,0,0,1-1.42-.12V79.13a4.71,4.71,0,0,0,1.06.09,2.2,2.2,0,0,0,2.22-1.44Z"/><path d="M93.9,66.19A5.82,5.82,0,1,1,87.83,72,5.9,5.9,0,0,1,93.9,66.19ZM96.64,72a2.74,2.74,0,1,0-2.74,2.84A2.77,2.77,0,0,0,96.64,72Z"/><path d="M104.94,72.84a1.91,1.91,0,0,0,2,2,2.47,2.47,0,0,0,2-.89V66.4h3.43V77.61H109v-.76a4.88,4.88,0,0,1-3,1,4.3,4.3,0,0,1-4.46-4.51V66.4h3.43Z"/><path d="M114.53,66.4H118v1.13a3.7,3.7,0,0,1,2.94-1.38,2.41,2.41,0,0,1,1.3.28v3a4,4,0,0,0-1.63-.34A3.06,3.06,0,0,0,118,70.49v7.12h-3.43Z"/><path d="M21.16,88.4v-.67c0-2.65,1.61-4.09,4.55-4.09a7.71,7.71,0,0,1,1.82.21v2.84a6.19,6.19,0,0,0-1.35-.15c-1.06,0-1.59.4-1.59,1.25v.61h2.94v2.86H24.59v8.35H21.16V91.26H18.7V88.4Z"/><path d="M32.32,94.84a1.91,1.91,0,0,0,2,2,2.5,2.5,0,0,0,2-.89V88.4H39.8V99.61H36.37v-.76a4.93,4.93,0,0,1-3,1,4.3,4.3,0,0,1-4.47-4.51V88.4h3.43Z"/><path d="M43.5,91.26H41.23V88.4H43.5V85.52l3.43-.74V88.4h3.14v2.86H46.93v4.26c0,1,.38,1.36,1.48,1.36A5,5,0,0,0,50,96.64v2.78a10.21,10.21,0,0,1-2.39.34c-2.69,0-4.07-1.21-4.07-3.56Z"/><path d="M54.75,94.84a1.91,1.91,0,0,0,2,2,2.47,2.47,0,0,0,2-.89V88.4h3.43V99.61H58.79v-.76a4.88,4.88,0,0,1-3,1,4.3,4.3,0,0,1-4.46-4.51V88.4h3.43Z"/><path d="M64.34,88.4h3.43v1.13a3.7,3.7,0,0,1,2.94-1.38,2.41,2.41,0,0,1,1.3.28v3a4,4,0,0,0-1.63-.34,3,3,0,0,0-2.61,1.42v7.12H64.34Z"/><path d="M78.66,99.82a5.88,5.88,0,0,1-6.1-5.8,5.76,5.76,0,0,1,5.84-5.81c3.28,0,5.66,2.59,5.66,6.12v.85h-8A2.91,2.91,0,0,0,78.83,97a3,3,0,0,0,2.24-.85l2.27,2A6.79,6.79,0,0,1,78.66,99.82Zm-2.65-7h4.68A2.46,2.46,0,0,0,78.34,91,2.33,2.33,0,0,0,76,92.79Z"/><polyline class="b7e1a13c-99cd-4c0d-8ab8-420643561967" points="159.4 195.66 231.33 25.76 267.5 25.76"/><g class="bae61959-0104-4123-a09e-5a882748f6b7"><polyline class="b7e1a13c-99cd-4c0d-8ab8-420643561967" points="209.1 195.66 281.03 25.76 317.2 25.76"/><line class="b099a1cb-94c0-40c6-a5e0-a2233c82eb26" x1="173.68" y1="-5.03" x2="212.66" y2="206.86"/><line class="b099a1cb-94c0-40c6-a5e0-a2233c82eb26" x1="225.67" y1="-5.03" x2="264.65" y2="206.86"/></g></svg>