<svg id="bd5ab554-29d2-4963-abd1-77a59b01ad23" data-name="Layer 1" xmlns="http://www.w3.org/2000/svg" width="555" height="155" viewBox="0 0 555 155"><defs><style>.bbed36ca-f2e1-4a5d-890f-685b0a01c728{fill:#202020;}.b80865ed-0f25-4864-afb0-20e4f5de3aae{fill:#fff;}.a4c5f7b2-6034-4a8d-b3f5-64fd976bb5e5{fill:#d92e20;}</style></defs><rect class="bbed36ca-f2e1-4a5d-890f-685b0a01c728" width="272.1" height="155.49"/><path class="b80865ed-0f25-4864-afb0-20e4f5de3aae" d="M100.49,82.89h2.69V79.16h2l2.06,3.73h3l-2.41-4.1A3.1,3.1,0,0,0,110,75.91c0-1.85-1.55-3.27-3.86-3.27h-5.6Zm5.35-8.1c.89,0,1.39.53,1.39,1.16s-.5,1.16-1.39,1.16h-2.66V74.79ZM110.2,79a4.22,4.22,0,0,0,4.5,4,5.16,5.16,0,0,0,3.45-1.17l-1.67-1.39a2.33,2.33,0,0,1-1.66.58,2.14,2.14,0,0,1-2-1.23h5.89v-.58A4.06,4.06,0,0,0,114.51,75a4.12,4.12,0,0,0-4.31,4M114.46,77a1.82,1.82,0,0,1,1.74,1.23h-3.46A1.71,1.71,0,0,1,114.46,77m11.47,5.94h2.5V72.13l-2.53.51v2.91a4.48,4.48,0,0,0-2.11-.51,4,4,0,1,0-.08,8,3.88,3.88,0,0,0,2.22-.68ZM122,79a2,2,0,0,1,2.17-2,2.67,2.67,0,0,1,1.75.6v2.71a2.52,2.52,0,0,1-1.75.61A2,2,0,0,1,122,79m10.24,3.88h2.69v-4h4.5v4h2.69V72.64h-2.69v3.94h-4.5V72.64h-2.69ZM146,83a4,4,0,0,0,2.28-.6v.47h2.5v-5c0-1.89-1.36-2.93-3.62-2.93a9.7,9.7,0,0,0-3.86.85l.9,1.74a7.16,7.16,0,0,1,2.5-.62c1.05,0,1.58.39,1.58,1.16v.38a8.12,8.12,0,0,0-1.87-.22c-2.13,0-3.41.84-3.41,2.33s1.16,2.4,3,2.4m-.77-2.44c0-.51.54-.76,1.37-.76a6.87,6.87,0,0,1,1.5.17v1a3.35,3.35,0,0,1-1.58.37c-.81,0-1.29-.3-1.29-.78m7.86,0c0,1.66,1.07,2.47,3,2.47a8.36,8.36,0,0,0,1.76-.24V80.84a3.78,3.78,0,0,1-1.14.16c-.8,0-1.09-.23-1.09-.93V77.12h2.31v-2h-2.31v-2.5l-2.54.51v2h-1.67v2h1.67Z"/><path d="M90.68,77.65a6.46,6.46,0,0,1,.26,1.41c0,2-2.34,3-5.41,3-7,0-13-3.81-13-6.34a2.4,2.4,0,0,1,.22-1l.55-1.26a.66.66,0,0,0,0,.27c0,1.29,5.4,5.5,12.63,5.5,1.85,0,4.55-.36,4.55-2.43a1.91,1.91,0,0,0-.05-.48Z"/><rect class="bbed36ca-f2e1-4a5d-890f-685b0a01c728" x="147.05" y="67.16" width="12.32" height="25.06"/><path class="a4c5f7b2-6034-4a8d-b3f5-64fd976bb5e5" d="M90.68,77.65a6.46,6.46,0,0,1,.26,1.41c0,2-2.34,3-5.41,3-7,0-13-3.81-13-6.34a2.4,2.4,0,0,1,.22-1c-2.5.12-5.73.54-5.73,3.22,0,4.38,11.08,9.79,19.86,9.79,6.73,0,8.42-2.86,8.42-5.11,0-1.77-1.63-3.78-4.58-5m-4.83,1.59c1.85,0,4.55-.36,4.55-2.43a1.91,1.91,0,0,0-.05-.48l-1.11-4.51c-.25-1-.48-1.44-2.34-2.31a22.65,22.65,0,0,0-5.51-1.83c-.86,0-1.12,1-2.14,1S77.52,68,76.59,68s-1.48.57-1.92,1.74c0,0-1.25,3.3-1.41,3.78a.66.66,0,0,0,0,.27c0,1.29,5.4,5.5,12.63,5.5"/><path class="b80865ed-0f25-4864-afb0-20e4f5de3aae" d="M183.19,77l-.47-1.27h-8.43V77h4.5V75.79l.46,1.21Zm-3.45-9.32h-8.45V69h8.92Zm1,2.68h-9.44v1.28h9.92Zm4.63,1.28h9.92V70.36h-9.44Zm-11.07,2.68h7.91L181.73,73h-7.44Zm6,5.37h6.05l.49-1.28h-7Zm1,2.68h4l.49-1.28h-5Zm1,2.68h2l.48-1.27h-3Zm1,2.68.47-1.27h-.95Zm3.54-20L186.36,69h8.92V67.68ZM192.28,73h-7.44l-.47,1.28h7.91Zm-4.5,4h4.5V75.73h-8.43L183.38,77h3.94l.46-1.21Zm4.5,1.41h-4.5v1.28h4.5Zm-4.5,4h4.5V81.09h-4.5Zm0,2.68h7.5V83.78h-7.5Zm0,2.69h7.5V86.46h-7.5Zm-13.49-8h4.5V78.41h-4.5Zm0,2.68h4.5V81.09h-4.5Zm-3,2.68h7.5V83.78h-7.5Zm0,2.69h7.5V86.46h-7.5ZM168.05,69a5.93,5.93,0,0,0-3.71-1.28h-11V69Zm.15,9.45H156.3v1.28h13a5.61,5.61,0,0,0-1.1-1.28M165,81.09v1.28h5a5.41,5.41,0,0,0-.16-1.28Zm0-6.77h4.88a5.41,5.41,0,0,0,.16-1.28h-5Zm-8.72,0h4.5V73h-4.5Zm13.56-2.68a5.41,5.41,0,0,0-.56-1.28h-16v1.28ZM156.3,75.73h0V77h11.9a5.78,5.78,0,0,0,1.1-1.27Zm0,6.64h4.5V81.09h-4.5Zm-3,1.41v1.27h16a5.17,5.17,0,0,0,.56-1.27Zm0,2.68v1.28h11a6,6,0,0,0,3.71-1.28ZM147.46,69h4.34V67.68h-4.34Zm0,2.68h4.34V70.36h-4.34ZM148.8,73h-1.42v1.28h1.42Zm-1.42,4h1.42V75.73h-1.42Zm0,2.69h1.42V78.41h-1.42Zm0,2.68h1.42V81.09h-1.42Zm.08,2.68h4.34V83.78h-4.34Zm0,1.41h4.34v1.28h-4.34Zm50.63.21c.09,0,.14,0,.14-.12v-.08c0-.08,0-.12-.14-.12h-.22v.32Zm-.22.59h-.29V86.13h.54c.27,0,.41.15.41.36a.34.34,0,0,1-.22.34l.27.43h-.32l-.23-.39h-.16Zm1-.5v-.14a.88.88,0,0,0-1.76,0v.14a.88.88,0,0,0,1.76,0m-2-.07a1.15,1.15,0,0,1,2.29,0,1.15,1.15,0,0,1-2.29,0"/><rect class="b80865ed-0f25-4864-afb0-20e4f5de3aae" x="147.05" y="65.23" width="0.45" height="25.07"/><rect class="bbed36ca-f2e1-4a5d-890f-685b0a01c728" x="282.9" width="272.1" height="155.49"/><path class="b80865ed-0f25-4864-afb0-20e4f5de3aae" d="M487.08,77l-.47-1.27h-8.43V77h4.5V75.79l.46,1.21Zm-3.45-9.32h-8.45V69h8.93Zm1,2.68h-9.45v1.28h9.92Zm4.62,1.28h9.92V70.36h-9.44Zm-11.07,2.68h7.91L485.62,73h-7.44Zm6,5.37h6.06l.48-1.28h-7Zm1,2.68h4l.49-1.28h-5Zm1,2.68h2l.49-1.27h-3Zm1,2.68.48-1.27h-1Zm3.54-20L490.25,69h8.92V67.68ZM496.17,73h-7.44l-.47,1.28h7.91Zm-4.5,4h4.5V75.73h-8.43L487.27,77h4l.45-1.21Zm4.5,1.41h-4.5v1.28h4.5Zm-4.5,4h4.5V81.09h-4.5Zm0,2.68h7.5V83.78h-7.5Zm0,2.69h7.5V86.46h-7.5Zm-13.49-8h4.5V78.41h-4.5Zm0,2.68h4.5V81.09h-4.5Zm-3,2.68h7.5V83.78h-7.5Zm0,2.69h7.5V86.46h-7.5ZM471.94,69a5.93,5.93,0,0,0-3.71-1.28h-11V69Zm.15,9.45h-11.9v1.28h13a5.61,5.61,0,0,0-1.1-1.28m-3.18,2.68v1.28h5a4.93,4.93,0,0,0-.16-1.28Zm0-6.77h4.88A4.93,4.93,0,0,0,474,73h-5Zm-8.72,0h4.5V73h-4.5Zm13.57-2.68a5.88,5.88,0,0,0-.57-1.28h-16v1.28Zm-13.57,4.09h0V77h11.9a5.78,5.78,0,0,0,1.1-1.27Zm0,6.64h4.5V81.09h-4.5Zm-3,1.41v1.27h16a5.6,5.6,0,0,0,.57-1.27Zm0,2.68v1.28h11a6,6,0,0,0,3.71-1.28ZM445.2,69h10.49V67.68H445.2Zm0,2.68h10.49V70.36H445.2Zm7.49,1.4h-4.5v1.28h4.5Zm-4.5,4h4.5V75.73h-4.5Zm0,2.69h4.5V78.41h-4.5Zm0,2.68h4.5V81.09h-4.5Zm-3,2.68h10.49V83.78H445.2Zm0,1.41h10.49v1.28H445.2Zm56.78.21c.09,0,.14,0,.14-.12v-.08c0-.08-.05-.12-.14-.12h-.22v.32Zm-.22.59h-.29V86.13H502c.27,0,.41.15.41.36a.34.34,0,0,1-.22.34l.27.43h-.32l-.22-.39h-.17Zm1.05-.5v-.14a.88.88,0,0,0-1.76,0v.14a.88.88,0,0,0,1.76,0m-2-.07a1.15,1.15,0,1,1,1.14,1.1,1.11,1.11,0,0,1-1.14-1.1"/><rect class="b80865ed-0f25-4864-afb0-20e4f5de3aae" x="431.37" y="65.23" width="0.45" height="25.07"/><path class="a4c5f7b2-6034-4a8d-b3f5-64fd976bb5e5" d="M350.78,77.65a6.69,6.69,0,0,1,.25,1.41c0,2-2.34,3-5.41,3-6.95,0-13-3.81-13-6.34a2.4,2.4,0,0,1,.23-1c-2.5.12-5.74.54-5.74,3.22,0,4.38,11.09,9.79,19.86,9.79,6.73,0,8.43-2.86,8.43-5.11,0-1.77-1.64-3.78-4.58-5m-4.84,1.59c1.86,0,4.55-.36,4.55-2.43a1.91,1.91,0,0,0-.05-.48l-1.1-4.51c-.26-1-.49-1.44-2.34-2.31a22.79,22.79,0,0,0-5.51-1.83c-.87,0-1.12,1-2.15,1s-1.73-.78-2.66-.78-1.47.57-1.92,1.74c0,0-1.25,3.3-1.41,3.78a.86.86,0,0,0,0,.27c0,1.29,5.39,5.5,12.62,5.5"/><path d="M350.78,77.65a6.69,6.69,0,0,1,.25,1.41c0,2-2.34,3-5.41,3-6.95,0-13-3.81-13-6.34a2.4,2.4,0,0,1,.23-1l.54-1.26a.86.86,0,0,0,0,.27c0,1.29,5.39,5.5,12.62,5.5,1.86,0,4.55-.36,4.55-2.43a1.91,1.91,0,0,0-.05-.48Z"/><path class="b80865ed-0f25-4864-afb0-20e4f5de3aae" d="M360.58,82.89h2.69V79.16h2.05l2.06,3.73h3l-2.4-4.1A3.11,3.11,0,0,0,370,75.91c0-1.85-1.55-3.27-3.86-3.27h-5.6Zm5.35-8.1c.89,0,1.39.53,1.39,1.16s-.5,1.16-1.39,1.16h-2.66V74.79ZM370.29,79a4.23,4.23,0,0,0,4.5,4,5.14,5.14,0,0,0,3.45-1.17l-1.67-1.39a2.33,2.33,0,0,1-1.66.58,2.15,2.15,0,0,1-2-1.23h5.89v-.58A4.06,4.06,0,0,0,374.6,75a4.12,4.12,0,0,0-4.31,4M374.55,77a1.82,1.82,0,0,1,1.74,1.23h-3.45A1.7,1.7,0,0,1,374.55,77M386,82.89h2.5V72.13l-2.54.51v2.91a4.47,4.47,0,0,0-2.1-.51,4,4,0,1,0-.08,8,3.91,3.91,0,0,0,2.22-.68Zm-4-3.88a2,2,0,0,1,2.17-2,2.65,2.65,0,0,1,1.75.6v2.71a2.51,2.51,0,0,1-1.75.61,2,2,0,0,1-2.17-2m10.25,3.88H395v-4h4.5v4h2.69V72.64H399.5v3.94H395V72.64h-2.68Zm13.73.13a4,4,0,0,0,2.28-.6v.47h2.5v-5c0-1.89-1.35-2.93-3.62-2.93a9.7,9.7,0,0,0-3.86.85l.91,1.74a7.11,7.11,0,0,1,2.5-.62c1,0,1.57.39,1.57,1.16v.38a8.05,8.05,0,0,0-1.87-.22c-2.13,0-3.41.84-3.41,2.33s1.16,2.4,3,2.4m-.77-2.44c0-.51.55-.76,1.38-.76a7,7,0,0,1,1.5.17v1a3.37,3.37,0,0,1-1.58.37c-.82,0-1.3-.3-1.3-.78m7.87,0c0,1.66,1.06,2.47,3,2.47a8.27,8.27,0,0,0,1.76-.24V80.84a3.78,3.78,0,0,1-1.14.16c-.79,0-1.09-.23-1.09-.93V77.12H418v-2h-2.31v-2.5l-2.53.51v2h-1.67v2h1.67Z"/></svg>