<svg id="b19b0b0d-d0d7-4bf5-a3bb-276b8908a43b" data-name="Layer 1" xmlns="http://www.w3.org/2000/svg" viewBox="0 0 262 180"><path d="M70,102h5.71V93.57H80.1L84.48,102h6.37l-5.11-9.29a7,7,0,0,0,4.38-6.54c0-4.18-3.28-7.4-8.2-7.4H70V102ZM81.39,83.68a2.64,2.64,0,1,1,0,5.24H75.75V83.68Zm9.26,9.59c0,5.11,4.18,9.09,9.56,9.09a10.55,10.55,0,0,0,7.34-2.65L104,96.55a4.71,4.71,0,0,1-3.51,1.33,4.54,4.54,0,0,1-4.32-2.79h12.51V93.77c0-5.58-3.75-9.59-8.86-9.59a9,9,0,0,0-9.16,9.09m9.06-4.71a3.88,3.88,0,0,1,3.69,2.78H96.06a3.66,3.66,0,0,1,3.65-2.78M124.07,102h5.31V77.64L124,78.8v6.6a9,9,0,1,0-4.65,16.86,7.93,7.93,0,0,0,4.71-1.52V102Zm-8.39-8.79a4.44,4.44,0,0,1,4.61-4.45A5.46,5.46,0,0,1,124,90.15v6.14a5.18,5.18,0,0,1-3.72,1.39,4.46,4.46,0,0,1-4.61-4.44M137.43,102h5.71V92.94h9.56V102h5.7V78.8h-5.7v8.93h-9.56V78.8h-5.71V102Zm29.17.3a8.26,8.26,0,0,0,4.85-1.36V102h5.31V90.78c0-4.28-2.89-6.64-7.7-6.64a19.45,19.45,0,0,0-8.2,1.93l1.92,4a14.27,14.27,0,0,1,5.31-1.4c2.23,0,3.36.87,3.36,2.62v.87a15.69,15.69,0,0,0-4-.5c-4.51,0-7.23,1.89-7.23,5.28,0,3.08,2.45,5.44,6.37,5.44M165,96.79c0-1.16,1.16-1.73,2.92-1.73a13.71,13.71,0,0,1,3.19.4v2.26a6.85,6.85,0,0,1-3.35.83c-1.73,0-2.76-.67-2.76-1.76m16.71-.1c0,3.75,2.26,5.57,6.37,5.57a16.38,16.38,0,0,0,3.75-.53V97.38a7.66,7.66,0,0,1-2.42.37c-1.69,0-2.32-.53-2.32-2.12V89H192V84.47h-4.91V78.8L181.67,80v4.51h-3.55V89h3.55v7.74Z"/></svg>