<svg id="b8d6faac-7e40-4beb-801d-b979197c6c0b" data-name="Layer 1" xmlns="http://www.w3.org/2000/svg" viewBox="0 0 262 180"><defs><style>.f9a8eb14-e000-475a-a267-8fd01e651abc{fill:#e00;}</style></defs><path class="f9a8eb14-e000-475a-a267-8fd01e651abc" d="M103.59,89.86a26.27,26.27,0,0,1,.32,3.2c0,4.42-2.94,6.87-6.82,6.87-8.76,0-16.43-8.64-16.43-14.35A8.85,8.85,0,0,1,81,83.27c-3.15.27-7.23,1.22-7.23,7.27,0,9.94,14,22.18,25,22.18,8.47,0,10.61-6.46,10.61-11.56a14.51,14.51,0,0,0-5.77-11.3m-6.1,3.61c2.35,0,5.74-.82,5.74-5.51a7.74,7.74,0,0,0-.06-1.08l-1.4-10.21c-.32-2.25-.6-3.27-2.94-5.24-1.82-1.57-5.78-4.15-7-4.15s-1.41,2.38-2.7,2.38S87,67.89,85.83,67.89s-1.86,1.29-2.42,4c0,0-1.58,7.48-1.78,8.57a3.23,3.23,0,0,0,0,.61c0,2.91,6.8,12.45,15.9,12.45"/><path d="M103.59,89.86a26.27,26.27,0,0,1,.32,3.2c0,4.42-2.94,6.87-6.82,6.87-8.76,0-16.43-8.64-16.43-14.35A8.85,8.85,0,0,1,81,83.27l.68-2.86a3.23,3.23,0,0,0,0,.61c0,2.91,6.8,12.45,15.9,12.45,2.35,0,5.74-.82,5.74-5.51a7.74,7.74,0,0,0-.06-1.08l.42,3Z"/><path d="M116,101.75h3.38V93.29h2.58l2.6,8.46h3.78l-3-9.29c1.63-1.2,2.6-3.69,2.6-6.54,0-4.18-2-7.4-4.86-7.4h-7v23.23Zm6.73-18.35c1.12,0,1.75,1.19,1.75,2.62s-.63,2.62-1.75,2.62h-3.35V83.4ZM128.17,93c0,5.11,2.48,9.09,5.67,9.09,1.76,0,3-.79,4.36-2.65l-2.11-3.16A2.35,2.35,0,0,1,134,97.6c-1.18,0-2.14-1.09-2.56-2.79h7.43V93.49c0-5.58-2.23-9.59-5.26-9.59s-5.44,4-5.44,9.09m5.38-4.71c1,0,1.85,1.09,2.19,2.78h-4.36c.32-1.75,1.11-2.78,2.17-2.78M148,101.75h3.15V77.36L148,78.52v6.6A3.77,3.77,0,0,0,145.3,84c-3,0-5.41,4-5.41,9s2.34,9,5.32,9a3.62,3.62,0,0,0,2.79-1.52v1.29ZM143,93c0-2.53,1.18-4.45,2.74-4.45a2.65,2.65,0,0,1,2.2,1.36V96a2.54,2.54,0,0,1-2.2,1.39c-1.54,0-2.74-1.92-2.74-4.44m12.91,8.79h3.38V92.66H165v9.09h3.39V78.52H165v8.93h-5.67V78.52h-3.38v23.23Zm17.31.3a3.6,3.6,0,0,0,2.87-1.36v1.06h3.15V90.5c0-4.28-1.71-6.64-4.57-6.64a8,8,0,0,0-4.86,1.93L171,89.74a6,6,0,0,1,3.15-1.4c1.32,0,2,.87,2,2.62v.87a5.81,5.81,0,0,0-2.36-.5c-2.68,0-4.3,1.89-4.3,5.28,0,3.08,1.46,5.44,3.79,5.44m-1-5.54A1.57,1.57,0,0,1,174,94.78a5,5,0,0,1,1.89.4v2.26a2.83,2.83,0,0,1-2,.83,1.57,1.57,0,0,1-1.64-1.76m9.91-.1c0,3.75,1.34,5.57,3.79,5.57a6.1,6.1,0,0,0,2.22-.53V97.1a2.89,2.89,0,0,1-1.44.37c-1,0-1.38-.53-1.38-2.12V88.67h2.92V84.19h-2.92V78.52l-3.19,1.16v4.51h-2.1v4.48h2.1v7.74Z"/></svg>