<svg id="bdbcf485-4024-4cad-a2f6-e10df36e7503" data-name="Layer 1" xmlns="http://www.w3.org/2000/svg" width="360" height="150" viewBox="0 0 360 150">
  <defs>
    <style>
      .a20772e0-ea9d-4f40-9fdd-ac021b2578ee {
        fill: #e00;
      }

      .b7a9d47f-7114-4f9f-b5be-fc2e90040260 {
        fill: #fff;
      }
    </style>
  </defs>
  <rect id="a8b71a5d-e34e-42d0-8dbc-bc65a47c1395" data-name="Rectangle 22-3" width="360" height="150"/>
  <g id="e7bfcc0e-2f2a-4258-ac08-790c6a7ea849" data-name="Group 93">
    <path id="a6f0a5ef-1147-454d-8f4b-e0c20e549aa0" data-name="Path-19" class="a20772e0-ea9d-4f40-9fdd-ac021b2578ee" d="M247.22,47.72505c0,2.928,1.756,4.351,4.957,4.351a12.76117,12.76117,0,0,0,2.919-.414v-3.4a6.08319,6.08319,0,0,1-1.886.286c-1.318,0-1.807-.414-1.807-1.657v-5.2h3.82v-3.5h-3.82v-4.425l-4.174.906v3.526h-2.772v3.5h2.762Zm-13.013.079c0-.906.906-1.347,2.274-1.347a10.55811,10.55811,0,0,1,2.48.31v1.761a5.26894,5.26894,0,0,1-2.61.648c-1.341,0-2.143-.517-2.143-1.372m1.277,4.324a6.378,6.378,0,0,0,3.771-1.061v.83h4.13V43.118c0-3.339-2.244-5.171-5.988-5.171a15.207,15.207,0,0,0-6.384,1.5l1.5,3.083a11.124,11.124,0,0,1,4.132-1.088c1.719,0,2.608.672,2.608,2.046v.672a12.12818,12.12818,0,0,0-3.1-.389c-3.514,0-5.63,1.477-5.63,4.12,0,2.408,1.91,4.245,4.957,4.245m-22.7-.231h4.442v-7.1h7.437v7.1h4.454v-18.134h-4.437v6.966H217.24v-6.966h-4.442Zm-16.907-6.87a3.464,3.464,0,0,1,3.45371-3.47428q.06816-.00019.13629.00228a4.22094,4.22094,0,0,1,2.887,1.064v4.789a4.01,4.01,0,0,1-2.887,1.1,3.48,3.48,0,0,1-3.58826-3.36825q-.0016-.05037-.00174-.10075m6.533,6.863h4.132V32.865l-4.17194.906v5.154a7.067,7.067,0,1,0-3.614,13.154,6.155,6.155,0,0,0,3.666-1.189ZM183.447,41.37505a3.023,3.023,0,0,1,2.865,2.174h-5.7a2.853,2.853,0,0,1,2.831-2.174m-7.039,3.694a7.18,7.18,0,0,0,7.25506,7.10414q.09-.00093.17993-.00414a8.189,8.189,0,0,0,5.708-2.073l-2.761-2.471a3.688,3.688,0,0,1-2.735,1.037,3.533,3.533,0,0,1-3.359-2.174h9.735v-1.038c0-4.351-2.917-7.483-6.894-7.483a7.025,7.025,0,0,0-7.11969,6.929q-.00111.08249-.0003.165m-7.206-7.483a2.06,2.06,0,1,1,0,4.092h-4.393v-4.092Zm-8.84,14.321h4.442v-6.6h3.381l3.41,6.6h4.967l-3.978-7.252a5.484,5.484,0,0,0,3.408-5.1c0-3.263-2.556-5.774-6.384-5.774h-9.246Z"/>
    <path id="b0fbd846-7ca3-403f-9954-53f87c2411fd" data-name="Path-20" class="a20772e0-ea9d-4f40-9fdd-ac021b2578ee" d="M136.176,45.435c3.072,0,7.516-.635,7.516-4.3a3.45683,3.45683,0,0,0-.076-.842l-1.83-7.967c-.422-1.753-.793-2.549-3.862-4.088C135.542,27.017,130.354,25,128.82,25c-1.429,0-1.844,1.847-3.548,1.847-1.64,0-2.858-1.379-4.392-1.379-1.473,0-2.433,1.007-3.175,3.078,0,0-2.065,5.841-2.33,6.688a1.58788,1.58788,0,0,0-.054.478c0,2.27,8.913,9.714,20.855,9.714m7.987-2.8a12.28568,12.28568,0,0,1,.425,2.494c0,3.447-3.865,5.361-8.945,5.361-11.481.005-21.542-6.742-21.542-11.202a4.55391,4.55391,0,0,1,.371-1.8c-4.126.202-9.471.941-9.471,5.674,0,7.747,18.314,17.305,32.815,17.305,11.118,0,13.921-5.043,13.921-9.025,0-3.132-2.7-6.688-7.57-8.81"/>
  </g>
  <g id="be1c281f-9eeb-4d9f-b653-6f08708589a5" data-name="Group 92">
    <path id="b0c0150a-50f4-409a-9168-6831a3a484ce" data-name="Path-21" class="b7a9d47f-7114-4f9f-b5be-fc2e90040260" d="M247.22,112.72505c0,2.928,1.756,4.351,4.957,4.351a12.76117,12.76117,0,0,0,2.919-.414v-3.4a6.08319,6.08319,0,0,1-1.886.286c-1.318,0-1.807-.414-1.807-1.657v-5.2h3.82v-3.5h-3.82v-4.425l-4.174.906v3.526h-2.772v3.5h2.762Zm-13.013.079c0-.906.906-1.347,2.274-1.347a10.55811,10.55811,0,0,1,2.48.31v1.761a5.26894,5.26894,0,0,1-2.61.648c-1.341,0-2.143-.517-2.143-1.372m1.277,4.324a6.378,6.378,0,0,0,3.771-1.061v.83h4.13v-8.779c0-3.339-2.244-5.171-5.988-5.171a15.207,15.207,0,0,0-6.384,1.5l1.5,3.083a11.124,11.124,0,0,1,4.132-1.088c1.719,0,2.608.672,2.608,2.046v.672a12.12818,12.12818,0,0,0-3.1-.389c-3.514,0-5.63,1.477-5.63,4.12,0,2.408,1.91,4.245,4.957,4.245m-22.7-.231h4.442v-7.1h7.437v7.1h4.454v-18.134h-4.437v6.966H217.24v-6.966h-4.442Zm-16.907-6.87a3.464,3.464,0,0,1,3.45371-3.47428q.06816-.0002.13629.00228a4.22094,4.22094,0,0,1,2.887,1.064v4.789a4.01,4.01,0,0,1-2.887,1.1,3.48,3.48,0,0,1-3.58826-3.36825q-.0016-.05037-.00174-.10075m6.533,6.863h4.132v-19.045l-4.17194.906v5.154a7.067,7.067,0,1,0-3.614,13.154,6.155,6.155,0,0,0,3.666-1.189Zm-18.95994-10.535a3.023,3.023,0,0,1,2.865,2.174h-5.7a2.853,2.853,0,0,1,2.831-2.174m-7.039,3.694a7.18,7.18,0,0,0,7.25506,7.10414q.09-.00093.17993-.00414a8.189,8.189,0,0,0,5.708-2.073l-2.761-2.471a3.688,3.688,0,0,1-2.735,1.037,3.533,3.533,0,0,1-3.359-2.174h9.735v-1.038c0-4.351-2.917-7.483-6.894-7.483a7.025,7.025,0,0,0-7.11969,6.929q-.00111.08248-.0003.165m-7.206-7.483a2.06,2.06,0,1,1,0,4.092h-4.393v-4.092Zm-8.84,14.321h4.442v-6.6h3.381l3.41,6.6h4.967l-3.978-7.252a5.484,5.484,0,0,0,3.408-5.1c0-3.263-2.556-5.774-6.384-5.774h-9.246Z"/>
    <path id="e8922032-9926-430a-847a-0c53d6e77dce" data-name="Path-22" class="b7a9d47f-7114-4f9f-b5be-fc2e90040260" d="M136.176,110.435c3.072,0,7.516-.635,7.516-4.3a3.45683,3.45683,0,0,0-.076-.842l-1.83-7.967c-.422-1.753-.793-2.549-3.862-4.088C135.542,92.017,130.354,90,128.82,90c-1.429,0-1.844,1.847-3.548,1.847-1.64,0-2.858-1.379-4.392-1.379-1.473,0-2.433,1.007-3.175,3.078,0,0-2.065,5.841-2.33,6.688a1.58788,1.58788,0,0,0-.054.478c0,2.27,8.913,9.714,20.855,9.714m7.987-2.8a12.28568,12.28568,0,0,1,.425,2.494c0,3.447-3.865,5.361-8.945,5.361-11.481.005-21.542-6.742-21.542-11.202a4.55391,4.55391,0,0,1,.371-1.8c-4.126.202-9.471.941-9.471,5.674,0,7.747,18.314,17.305,32.815,17.305,11.118,0,13.921-5.043,13.921-9.025,0-3.132-2.7-6.688-7.57-8.81"/>
  </g>
</svg>
