<?xml version="1.0" encoding="utf-8"?>
<!-- Generator: Adobe Illustrator 27.6.1, SVG Export Plug-In . SVG Version: 6.00 Build 0)  -->
<svg version="1.1" id="Layer_1" xmlns="http://www.w3.org/2000/svg" xmlns:xlink="http://www.w3.org/1999/xlink" x="0px" y="0px"
	 viewBox="0 0 555 196" style="enable-background:new 0 0 555 196;" xml:space="preserve">
<style type="text/css">
	.st0{fill:#F3F3F3;}
	.st1{fill:#EE0000;}
	.st2{fill:#E0E0E0;}
	.st3{fill:#FFFFFF;}
	.st4{fill:#79C4C6;}
	.st5{fill:#316DC1;}
	.st6{fill:#4D4D4D;}
	.st7{fill:#ED0000;}
	.st8{fill:#DFDFDF;}
	.st9{fill:none;stroke:#FF0000;stroke-width:1.25;stroke-linecap:round;stroke-linejoin:round;stroke-miterlimit:10;}
	.st10{fill:none;}
	.st11{fill:#689B7A;}
	.st12{fill:#ED1C24;}
	.st13{fill:#383838;}
	.st14{clip-path:url(#SVGID_00000040537449202364941490000007448219563285740219_);}
	.st15{clip-path:url(#SVGID_00000021812761788983229310000009143737742620873096_);}
	.st16{fill:#151515;}
	.st17{fill:#F2F2F2;}
	.st18{fill:none;stroke:#1E67CD;stroke-width:0.75;stroke-miterlimit:10;}
	.st19{fill:#1E67CD;}
	.st20{fill:#707070;}
	.st21{fill:none;stroke:#FFFFFF;stroke-width:1.25;stroke-linecap:round;stroke-linejoin:round;stroke-miterlimit:10;}
	.st22{fill:none;stroke:#FFFFFF;stroke-width:2;stroke-linecap:round;stroke-linejoin:round;stroke-miterlimit:10;}
	.st23{fill:none;stroke:#FFFFFF;stroke-width:3;stroke-linecap:round;stroke-linejoin:round;stroke-miterlimit:10;}
	.st24{fill:#151515;stroke:#FFFFFF;stroke-width:2;stroke-linecap:round;stroke-linejoin:round;stroke-miterlimit:10;}
	.st25{fill:none;stroke:#000000;stroke-width:2;stroke-linecap:round;stroke-linejoin:round;stroke-miterlimit:10;}
	.st26{stroke:#000000;stroke-width:2;stroke-linecap:round;stroke-linejoin:round;stroke-miterlimit:10;}
	.st27{fill:none;stroke:#000000;stroke-width:3;stroke-linecap:round;stroke-linejoin:round;stroke-miterlimit:10;}
	.st28{fill:none;stroke:#000000;stroke-width:2;stroke-miterlimit:10;}
	.st29{fill:none;stroke:#000000;stroke-width:2;stroke-linecap:round;stroke-miterlimit:10;}
	.st30{fill:#FFFFFF;stroke:#000000;stroke-width:2;stroke-linecap:round;stroke-linejoin:round;stroke-miterlimit:10;}
	.st31{stroke:#000000;stroke-width:3;stroke-linecap:round;stroke-linejoin:round;stroke-miterlimit:10;}
	.st32{fill:none;stroke:#FFFFFF;stroke-width:4;stroke-linecap:round;stroke-linejoin:round;stroke-miterlimit:10;}
	.st33{fill:none;stroke:#000000;stroke-width:3;stroke-linecap:round;stroke-linejoin:round;}
	.st34{fill:none;stroke:#000000;stroke-width:3;stroke-linecap:round;stroke-linejoin:round;stroke-dasharray:0,5.25;}
	.st35{fill:#F2F2F2;stroke:#000000;stroke-width:2;stroke-linecap:round;stroke-linejoin:round;stroke-miterlimit:10;}
	.st36{fill:#1F63B5;}
	.st37{fill:none;stroke:#A7C0E4;stroke-width:5.000000e-02;stroke-miterlimit:10;}
	.st38{opacity:0.25;}
	.st39{fill:#0066CC;}
	.st40{fill:none;stroke:#000000;stroke-width:0.5;stroke-miterlimit:10;}
	.st41{clip-path:url(#SVGID_00000146489990283916517290000011440700005654725030_);}
	.st42{fill:none;stroke:#1E67CD;stroke-width:0.5;stroke-linecap:round;stroke-linejoin:round;}
	.st43{fill:none;stroke:#1E67CD;stroke-width:0.5;stroke-linecap:round;stroke-linejoin:round;stroke-dasharray:0,1.002;}
	.st44{fill:none;stroke:#1E67CD;stroke-width:0.5;stroke-linecap:round;stroke-miterlimit:10;}
	.st45{fill:none;stroke:#1E67CD;stroke-width:0.5;stroke-linecap:round;stroke-miterlimit:10;stroke-dasharray:0,1.002;}
	.st46{fill:none;stroke:#1E67CD;stroke-miterlimit:10;}
	.st47{fill:#FFFFFF;stroke:#FFFFFF;stroke-linecap:round;stroke-linejoin:round;stroke-miterlimit:10;}
	.st48{fill:#8F0000;}
	.st49{clip-path:url(#SVGID_00000174573340875219942140000016177967894736822963_);}
	.st50{clip-path:url(#SVGID_00000085950348629290347090000007207939822507390347_);}
	.st51{fill:#FFFFFF;stroke:#FFFFFF;stroke-width:5.000000e-02;stroke-miterlimit:10;}
	.st52{fill:none;stroke:#FFFFFF;stroke-width:0.2;stroke-linecap:round;stroke-linejoin:round;stroke-miterlimit:10;}
	.st53{opacity:0.5;fill:#1E67CD;}
	.st54{fill:#151515;stroke:#1E67CD;stroke-miterlimit:10;}
	.st55{fill:#151515;stroke:#316DC1;stroke-width:0.25;stroke-miterlimit:10;}
	.st56{fill:none;stroke:#FFFFFF;stroke-width:0.45;stroke-linecap:round;stroke-linejoin:round;stroke-miterlimit:10;}
	.st57{fill:#F7823C;}
	.st58{fill:#27579A;}
	.st59{fill:#C65E2B;}
	.st60{fill:#4E745C;}
	.st61{fill:#F2F2F2;stroke:#D2D2D2;stroke-miterlimit:10;}
	.st62{fill:#241A49;}
	.st63{fill:#E3EAF5;}
</style>
<g>
	<rect class="st17" width="555" height="196"/>
</g>
<g>
	<path d="M316,91.9c0.2,0.7,0.2,1.4,0.2,2.1c0,9.2-11.2,10.8-19,10.8c-30.2,0-52.7-18.8-52.7-24.5c0-0.4,0-0.8,0.1-1.2l-2.3,5.6
		c-0.6,1.4-0.9,3-0.9,4.5c0,11.2,25.4,28.2,54.4,28.2c12.8,0,22.6-4.8,22.6-13.5c0-0.7,0-1.2-1.1-6.3L316,91.9z"/>
	<path class="st1" d="M297.2,104.8c7.8,0,19-1.6,19-10.8c0-0.7,0-1.4-0.2-2.1l-4.6-20.1c-1.1-4.4-2-6.4-9.8-10.3
		c-6-3.1-19.1-8.2-23-8.2c-3.6,0-4.7,4.7-9,4.7c-4.1,0-7.2-3.5-11.1-3.5c-3.7,0-6.1,2.5-8,7.8c0,0-5.2,14.7-5.9,16.9
		c-0.1,0.4-0.2,0.8-0.1,1.2C244.5,86,267,104.8,297.2,104.8 M317.4,97.7c1.1,5.1,1.1,5.6,1.1,6.3c0,8.7-9.8,13.5-22.6,13.5
		c-29,0-54.4-17-54.4-28.2c0-1.6,0.3-3.1,0.9-4.5c-10.4,0.5-23.9,2.4-23.9,14.3c0,19.5,46.3,43.6,82.9,43.6
		c28.1,0,35.2-12.7,35.2-22.7C336.6,112,329.7,103.1,317.4,97.7"/>
</g>
</svg>
