<svg id="eedc0d41-b7ff-4e3a-8168-a358a9d8c9ba" data-name="Layer 1" xmlns="http://www.w3.org/2000/svg" width="555" height="201.11389" viewBox="0 0 555 201.11389">
  <defs>
    <style>
      .ba3895c9-e0e1-4901-ab8d-f55d7fd3c116 {
        fill: #a7c0e4;
      }

      .af48336d-3368-4651-8efe-32eb86e5a593, .ba3895c9-e0e1-4901-ab8d-f55d7fd3c116 {
        opacity: 0.5;
      }

      .af48336d-3368-4651-8efe-32eb86e5a593, .e7d56ced-3236-45f5-b8bb-3b99fd7281a4 {
        fill: #6c97d3;
      }

      .bdc40a0a-6cfd-4305-bf6d-05bb4374f7fa {
        fill: #fff;
      }

      .b6ae7e99-34bc-4cbc-8a16-092229ce7435 {
        fill: #e00;
      }
    </style>
  </defs>
  <g>
    <rect class="ba3895c9-e0e1-4901-ab8d-f55d7fd3c116" x="0.43433" y="0.44713" width="554.13095" height="200.27999"/>
    <path class="af48336d-3368-4651-8efe-32eb86e5a593" d="M23.75182,130.12463c-13.14365,0-23.3656-9.735-23.3656-22.22972a22.04471,22.04471,0,0,1,22.3917-22.2307c12.49471,0,21.66227,9.81748,21.66227,23.12311V112.357H13.85383a11.09054,11.09054,0,0,0,10.54692,6.8153,11.624,11.624,0,0,0,8.60011-3.24566l8.6816,7.7077A25.75394,25.75394,0,0,1,23.75182,130.12463Zm-9.97947-26.93524H31.62151a9.593,9.593,0,0,0-9.00558-6.73381A8.92668,8.92668,0,0,0,13.77235,103.18939Z"/>
    <polyline class="bdc40a0a-6cfd-4305-bf6d-05bb4374f7fa" points="44.585 130.125 44.585 44.908 510.511 44.908 510.511 156.267 44.585 156.267 44.585 130.125"/>
    <path class="af48336d-3368-4651-8efe-32eb86e5a593" d="M291.26736,200.7271c-13.14365,0-23.36561-9.735-23.36561-22.22972a22.04473,22.04473,0,0,1,22.39171-22.2307c12.49471,0,21.66227,9.81748,21.66227,23.12311v3.56964H281.36937a11.09054,11.09054,0,0,0,10.54692,6.81529,11.624,11.624,0,0,0,8.60011-3.24566l8.6816,7.70771A25.754,25.754,0,0,1,291.26736,200.7271Zm-9.97947-26.93523h17.84916a9.593,9.593,0,0,0-9.00558-6.73381A8.92667,8.92667,0,0,0,281.28789,173.79187Z"/>
    <path class="af48336d-3368-4651-8efe-32eb86e5a593" d="M291.26736,44.90755c-13.14365,0-23.36561-9.735-23.36561-22.22971A22.04472,22.04472,0,0,1,290.29346.44714c12.49471,0,21.66227,9.81748,21.66227,23.12311v3.56963H281.36937a11.09052,11.09052,0,0,0,10.54692,6.81529,11.624,11.624,0,0,0,8.60011-3.24565l8.6816,7.7077A25.75394,25.75394,0,0,1,291.26736,44.90755Zm-9.97947-26.93523h17.84916a9.593,9.593,0,0,0-9.00558-6.73381A8.92668,8.92668,0,0,0,281.28789,17.97232Z"/>
    <g>
      <path d="M219.46231,72.60205h28.31558c10.7089,0,19.55249,8.11317,19.55249,18.82207A17.86179,17.86179,0,0,1,256.78346,107.57L269.1152,129.3942H253.5378l-10.6284-19.87744h-9.49252V129.3942H219.46231Zm13.95457,11.92628V97.99594h12.73818a6.81474,6.81474,0,0,0,7.05876-6.57182,6.97729,6.97729,0,0,0-7.05876-6.89579Z"/>
      <path d="M291.26736,130.20513c-13.14365,0-23.36561-9.735-23.36561-22.22972a22.04473,22.04473,0,0,1,22.39171-22.2307c12.49471,0,21.66227,9.81748,21.66227,23.12311v3.56964H281.36937a11.09054,11.09054,0,0,0,10.54692,6.81529,11.624,11.624,0,0,0,8.60011-3.24566l8.6816,7.7077A25.75394,25.75394,0,0,1,291.26736,130.20513Zm-9.97947-26.93524h17.84916a9.593,9.593,0,0,0-9.00558-6.73381A8.92668,8.92668,0,0,0,281.28789,103.26989Z"/>
      <path d="M349.11587,126.23a19.42939,19.42939,0,0,1-11.51983,3.81311A22.11007,22.11007,0,1,1,348.95388,88.7469V72.60205l13.14364-4.05658V129.3942H349.11587Zm-9.411-7.38274a13.02035,13.02035,0,0,0,9.24905-3.40765V100.4297a13.874,13.874,0,0,0-9.24905-3.32617,10.87917,10.87917,0,1,0,0,21.74376Z"/>
      <path d="M416.05242,107.16351H394.30867V129.3942H380.3541V72.60205h13.95457V94.42631h21.74375V72.60205H430.007V129.3942H416.05242Z"/>
      <path d="M460.59727,126.79846a19.08314,19.08314,0,0,1-11.52081,3.32617c-9.574,0-15.98286-6.00437-15.98286-13.7111,0-7.54571,6.08488-13.22512,16.7123-13.22512a22.99746,22.99746,0,0,1,10.79137,2.43375v-2.59574c0-4.13807-2.75871-6.24784-8.11317-6.24784a33.18692,33.18692,0,0,0-12.90016,3.08367l-3.8946-9.81748c6.49034-2.83922,12.41322-4.38056,17.68717-4.38056,13.14266,0,20.36342,5.75991,20.36342,16.22633V129.3942H460.59727Zm-8.03266-5.84238a15.114,15.114,0,0,0,8.03266-2.19028v-4.462a17.07444,17.07444,0,0,0-8.43812-2.27177c-4.05659,0-6.57182,1.70334-6.57182,4.38154C445.58733,119.25275,448.26455,120.95608,452.56461,120.95608Z"/>
      <path d="M499.29973,130.04314c-9.00557,0-14.036-4.30006-14.036-13.22414V97.42849h-9.08706V86.47513h9.08706v-9.8165l13.14364-4.05658V86.47513h12.00775V97.42849H498.40733v16.38832c0,3.65112,1.9468,5.03048,5.92288,5.03048a14.19623,14.19623,0,0,0,5.75992-1.29886l-1.78482,10.62841A22.87463,22.87463,0,0,1,499.29973,130.04314Z"/>
      <path class="b6ae7e99-34bc-4cbc-8a16-092229ce7435" d="M142.68883,109.08911c9.66891,0,23.67216-2.00046,23.67216-13.50313a10.93561,10.93561,0,0,0-.24011-2.64576L160.3596,67.91289C159.026,62.41162,157.859,59.911,148.19011,55.07658c-7.50174-3.83422-23.83886-10.169-28.67332-10.169-4.501,0-5.83469,5.83469-11.16926,5.83469-5.16786,0-9.00209-4.33434-13.83654-4.33434-4.66775,0-7.66845,3.1674-10.00232,9.66891,0,0-6.50151,18.33759-7.335,21.00488A4.8121,4.8121,0,0,0,77.003,78.582C77.003,85.708,105.06831,109.08911,142.68883,109.08911Zm25.17251-8.83538c1.33365,6.3348,1.33365,7.00163,1.33365,7.83515,0,10.83585-12.1695,16.83724-28.17321,16.83724-36.17506,0-67.84908-21.17158-67.84908-35.17483a14.25808,14.25808,0,0,1,1.16694-5.668c-13.003.66682-29.84026,3.0007-29.84026,17.83747,0,24.339,57.68005,54.346,103.35732,54.346,35.00812,0,43.84351-15.837,43.84351-28.33991C191.70021,118.0912,183.19823,106.92194,167.86134,100.25373Z"/>
      <path d="M167.86134,100.25373c1.33365,6.3348,1.33365,7.00163,1.33365,7.83515,0,10.83585-12.1695,16.83724-28.17321,16.83724-36.17506,0-67.84908-21.17158-67.84908-35.17483a14.25808,14.25808,0,0,1,1.16694-5.668l2.834-7.00162A4.8121,4.8121,0,0,0,77.003,78.582c0,7.12592,28.06527,30.50707,65.68579,30.50707,9.66891,0,23.67216-2.00046,23.67216-13.50313a10.93561,10.93561,0,0,0-.24011-2.64576Z"/>
    </g>
    <g>
      <path class="e7d56ced-3236-45f5-b8bb-3b99fd7281a4" d="M267.90213,131.75191a.38657.38657,0,0,1-.38667-.38666v-1.16a.38667.38667,0,1,1,.77333,0v1.16A.38656.38656,0,0,1,267.90213,131.75191Z"/>
      <path class="e7d56ced-3236-45f5-b8bb-3b99fd7281a4" d="M267.90213,195.94169a.38657.38657,0,0,1-.38667-.38666v-2.407a.38667.38667,0,1,1,.77333,0v2.407A.38656.38656,0,0,1,267.90213,195.94169Zm0-6.41884a.38657.38657,0,0,1-.38667-.38667V186.729a.38667.38667,0,0,1,.77333,0v2.40721A.38656.38656,0,0,1,267.90213,189.52285Zm0-6.419a.38657.38657,0,0,1-.38667-.38666v-2.40721a.38667.38667,0,0,1,.77333,0v2.40721A.38656.38656,0,0,1,267.90213,183.10381Zm0-6.419a.38657.38657,0,0,1-.38667-.38667V173.8909a.38667.38667,0,0,1,.77333,0v2.40721A.38656.38656,0,0,1,267.90213,176.68478Zm0-6.419a.38657.38657,0,0,1-.38667-.38666v-2.40721a.38667.38667,0,0,1,.77333,0v2.40721A.38656.38656,0,0,1,267.90213,170.26574Zm0-6.419a.38657.38657,0,0,1-.38667-.38667v-2.407a.38667.38667,0,0,1,.77333,0v2.407A.38656.38656,0,0,1,267.90213,163.84671Zm0-6.419a.38657.38657,0,0,1-.38667-.38666v-2.407a.38667.38667,0,0,1,.77333,0v2.407A.38656.38656,0,0,1,267.90213,157.42767Zm0-6.419a.38657.38657,0,0,1-.38667-.38666v-2.407a.38667.38667,0,1,1,.77333,0v2.407A.38656.38656,0,0,1,267.90213,151.00864Zm0-6.419a.38658.38658,0,0,1-.38667-.38667v-2.407a.38667.38667,0,0,1,.77333,0v2.407A.38657.38657,0,0,1,267.90213,144.58961Zm0-6.41885a.38657.38657,0,0,1-.38667-.38666v-2.40721a.38667.38667,0,1,1,.77333,0v2.40721A.38656.38656,0,0,1,267.90213,138.17076Z"/>
      <path class="e7d56ced-3236-45f5-b8bb-3b99fd7281a4" d="M267.90213,201.11389a.38657.38657,0,0,1-.38667-.38667v-1.16a.38667.38667,0,0,1,.77333,0v1.16A.38656.38656,0,0,1,267.90213,201.11389Z"/>
    </g>
    <g>
      <path class="e7d56ced-3236-45f5-b8bb-3b99fd7281a4" d="M267.90213,87.29124a.38657.38657,0,0,1-.38667-.38666v-1.16a.38667.38667,0,1,1,.77333,0v1.16A.38656.38656,0,0,1,267.90213,87.29124Z"/>
      <path class="e7d56ced-3236-45f5-b8bb-3b99fd7281a4" d="M267.90213,125.45636a.38658.38658,0,0,1-.38667-.38667v-2.38531a.38667.38667,0,0,1,.77333,0v2.38531A.38657.38657,0,0,1,267.90213,125.45636Zm0-6.3607a.38657.38657,0,0,1-.38667-.38666v-2.38531a.38667.38667,0,1,1,.77333,0V118.709A.38656.38656,0,0,1,267.90213,119.09566Zm0-6.36088a.38657.38657,0,0,1-.38667-.38667V109.9628a.38667.38667,0,0,1,.77333,0v2.38531A.38656.38656,0,0,1,267.90213,112.73478Zm0-6.36089a.38657.38657,0,0,1-.38667-.38666v-2.38531a.38667.38667,0,0,1,.77333,0v2.38531A.38656.38656,0,0,1,267.90213,106.37389Zm0-6.36069a.38657.38657,0,0,1-.38667-.38667v-2.3853a.38667.38667,0,1,1,.77333,0v2.3853A.38656.38656,0,0,1,267.90213,100.0132Zm0-6.36089a.38657.38657,0,0,1-.38667-.38666V90.88034a.38667.38667,0,0,1,.77333,0v2.38531A.38656.38656,0,0,1,267.90213,93.65231Z"/>
      <path class="e7d56ced-3236-45f5-b8bb-3b99fd7281a4" d="M267.90213,130.59192a.38657.38657,0,0,1-.38667-.38666v-1.16a.38667.38667,0,1,1,.77333,0v1.16A.38656.38656,0,0,1,267.90213,130.59192Z"/>
    </g>
    <g>
      <path class="e7d56ced-3236-45f5-b8bb-3b99fd7281a4" d="M267.90213,1.93332a.38657.38657,0,0,1-.38667-.38666v-1.16a.38667.38667,0,0,1,.77333,0v1.16A.38656.38656,0,0,1,267.90213,1.93332Z"/>
      <path class="e7d56ced-3236-45f5-b8bb-3b99fd7281a4" d="M267.90213,81.1622a.38657.38657,0,0,1-.38667-.38666V78.49011a.38667.38667,0,1,1,.77333,0v2.28543A.38656.38656,0,0,1,267.90213,81.1622Zm0-6.09467a.38657.38657,0,0,1-.38667-.38666V72.39543a.38667.38667,0,0,1,.77333,0v2.28544A.38656.38656,0,0,1,267.90213,75.06753Zm0-6.09449a.38657.38657,0,0,1-.38667-.38666V66.301a.38667.38667,0,1,1,.77333,0v2.28543A.38656.38656,0,0,1,267.90213,68.973Zm0-6.09448a.38657.38657,0,0,1-.38667-.38667V60.20646a.38667.38667,0,0,1,.77333,0v2.28543A.38656.38656,0,0,1,267.90213,62.87856Zm0-6.09449a.38657.38657,0,0,1-.38667-.38666V54.11179a.38667.38667,0,1,1,.77333,0v2.28562A.38656.38656,0,0,1,267.90213,56.78407Zm0-6.09467a.38657.38657,0,0,1-.38667-.38667V48.0173a.38667.38667,0,0,1,.77333,0v2.28543A.38656.38656,0,0,1,267.90213,50.6894Zm0-6.09449a.38657.38657,0,0,1-.38667-.38666V41.92281a.38667.38667,0,0,1,.77333,0v2.28544A.38656.38656,0,0,1,267.90213,44.59491Zm0-6.09449a.38657.38657,0,0,1-.38667-.38666V35.82833a.38667.38667,0,1,1,.77333,0v2.28543A.38656.38656,0,0,1,267.90213,38.50042Zm0-6.09467a.38657.38657,0,0,1-.38667-.38666V29.73365a.38667.38667,0,0,1,.77333,0v2.28544A.38656.38656,0,0,1,267.90213,32.40575Zm0-6.09449a.38657.38657,0,0,1-.38667-.38666V23.63917a.38667.38667,0,1,1,.77333,0V25.9246A.38656.38656,0,0,1,267.90213,26.31126Zm0-6.09448a.38657.38657,0,0,1-.38667-.38667V17.54468a.38667.38667,0,0,1,.77333,0v2.28543A.38656.38656,0,0,1,267.90213,20.21678Zm0-6.09468a.38657.38657,0,0,1-.38667-.38666V11.45a.38667.38667,0,1,1,.77333,0v2.28543A.38656.38656,0,0,1,267.90213,14.1221Zm0-6.09448a.38657.38657,0,0,1-.38667-.38667V5.35552a.38667.38667,0,0,1,.77333,0V7.641A.38656.38656,0,0,1,267.90213,8.02762Z"/>
      <path class="e7d56ced-3236-45f5-b8bb-3b99fd7281a4" d="M267.90213,86.13125a.38657.38657,0,0,1-.38667-.38666v-1.16a.38667.38667,0,0,1,.77333,0v1.16A.38656.38656,0,0,1,267.90213,86.13125Z"/>
    </g>
    <g>
      <path class="e7d56ced-3236-45f5-b8bb-3b99fd7281a4" d="M311.95612,131.75191a.38656.38656,0,0,1-.38666-.38666v-1.16a.38667.38667,0,1,1,.77333,0v1.16A.38656.38656,0,0,1,311.95612,131.75191Z"/>
      <path class="e7d56ced-3236-45f5-b8bb-3b99fd7281a4" d="M311.95612,195.94169a.38656.38656,0,0,1-.38666-.38666v-2.407a.38667.38667,0,1,1,.77333,0v2.407A.38656.38656,0,0,1,311.95612,195.94169Zm0-6.41884a.38656.38656,0,0,1-.38666-.38667V186.729a.38667.38667,0,0,1,.77333,0v2.40721A.38656.38656,0,0,1,311.95612,189.52285Zm0-6.419a.38656.38656,0,0,1-.38666-.38666v-2.40721a.38667.38667,0,0,1,.77333,0v2.40721A.38656.38656,0,0,1,311.95612,183.10381Zm0-6.419a.38656.38656,0,0,1-.38666-.38667V173.8909a.38667.38667,0,0,1,.77333,0v2.40721A.38656.38656,0,0,1,311.95612,176.68478Zm0-6.419a.38656.38656,0,0,1-.38666-.38666v-2.40721a.38667.38667,0,0,1,.77333,0v2.40721A.38656.38656,0,0,1,311.95612,170.26574Zm0-6.419a.38656.38656,0,0,1-.38666-.38667v-2.407a.38667.38667,0,0,1,.77333,0v2.407A.38656.38656,0,0,1,311.95612,163.84671Zm0-6.419a.38656.38656,0,0,1-.38666-.38666v-2.407a.38667.38667,0,0,1,.77333,0v2.407A.38656.38656,0,0,1,311.95612,157.42767Zm0-6.419a.38656.38656,0,0,1-.38666-.38666v-2.407a.38667.38667,0,1,1,.77333,0v2.407A.38656.38656,0,0,1,311.95612,151.00864Zm0-6.419a.38657.38657,0,0,1-.38666-.38667v-2.407a.38667.38667,0,0,1,.77333,0v2.407A.38657.38657,0,0,1,311.95612,144.58961Zm0-6.41885a.38656.38656,0,0,1-.38666-.38666v-2.40721a.38667.38667,0,1,1,.77333,0v2.40721A.38656.38656,0,0,1,311.95612,138.17076Z"/>
      <path class="e7d56ced-3236-45f5-b8bb-3b99fd7281a4" d="M311.95612,201.11389a.38656.38656,0,0,1-.38666-.38667v-1.16a.38667.38667,0,0,1,.77333,0v1.16A.38656.38656,0,0,1,311.95612,201.11389Z"/>
    </g>
    <g>
      <path class="e7d56ced-3236-45f5-b8bb-3b99fd7281a4" d="M311.95612,87.29124a.38656.38656,0,0,1-.38666-.38666v-1.16a.38667.38667,0,1,1,.77333,0v1.16A.38656.38656,0,0,1,311.95612,87.29124Z"/>
      <path class="e7d56ced-3236-45f5-b8bb-3b99fd7281a4" d="M311.95612,125.45636a.38657.38657,0,0,1-.38666-.38667v-2.38531a.38667.38667,0,0,1,.77333,0v2.38531A.38657.38657,0,0,1,311.95612,125.45636Zm0-6.3607a.38656.38656,0,0,1-.38666-.38666v-2.38531a.38667.38667,0,1,1,.77333,0V118.709A.38656.38656,0,0,1,311.95612,119.09566Zm0-6.36088a.38656.38656,0,0,1-.38666-.38667V109.9628a.38667.38667,0,0,1,.77333,0v2.38531A.38656.38656,0,0,1,311.95612,112.73478Zm0-6.36089a.38656.38656,0,0,1-.38666-.38666v-2.38531a.38667.38667,0,0,1,.77333,0v2.38531A.38656.38656,0,0,1,311.95612,106.37389Zm0-6.36069a.38656.38656,0,0,1-.38666-.38667v-2.3853a.38667.38667,0,1,1,.77333,0v2.3853A.38656.38656,0,0,1,311.95612,100.0132Zm0-6.36089a.38656.38656,0,0,1-.38666-.38666V90.88034a.38667.38667,0,0,1,.77333,0v2.38531A.38656.38656,0,0,1,311.95612,93.65231Z"/>
      <path class="e7d56ced-3236-45f5-b8bb-3b99fd7281a4" d="M311.95612,130.59192a.38656.38656,0,0,1-.38666-.38666v-1.16a.38667.38667,0,1,1,.77333,0v1.16A.38656.38656,0,0,1,311.95612,130.59192Z"/>
    </g>
    <g>
      <path class="e7d56ced-3236-45f5-b8bb-3b99fd7281a4" d="M311.95612,1.93332a.38656.38656,0,0,1-.38666-.38666v-1.16a.38667.38667,0,0,1,.77333,0v1.16A.38656.38656,0,0,1,311.95612,1.93332Z"/>
      <path class="e7d56ced-3236-45f5-b8bb-3b99fd7281a4" d="M311.95612,81.1622a.38656.38656,0,0,1-.38666-.38666V78.49011a.38667.38667,0,1,1,.77333,0v2.28543A.38656.38656,0,0,1,311.95612,81.1622Zm0-6.09467a.38656.38656,0,0,1-.38666-.38666V72.39543a.38667.38667,0,0,1,.77333,0v2.28544A.38656.38656,0,0,1,311.95612,75.06753Zm0-6.09449a.38656.38656,0,0,1-.38666-.38666V66.301a.38667.38667,0,1,1,.77333,0v2.28543A.38656.38656,0,0,1,311.95612,68.973Zm0-6.09448a.38656.38656,0,0,1-.38666-.38667V60.20646a.38667.38667,0,0,1,.77333,0v2.28543A.38656.38656,0,0,1,311.95612,62.87856Zm0-6.09449a.38656.38656,0,0,1-.38666-.38666V54.11179a.38667.38667,0,1,1,.77333,0v2.28562A.38656.38656,0,0,1,311.95612,56.78407Zm0-6.09467a.38656.38656,0,0,1-.38666-.38667V48.0173a.38667.38667,0,0,1,.77333,0v2.28543A.38656.38656,0,0,1,311.95612,50.6894Zm0-6.09449a.38656.38656,0,0,1-.38666-.38666V41.92281a.38667.38667,0,0,1,.77333,0v2.28544A.38656.38656,0,0,1,311.95612,44.59491Zm0-6.09449a.38656.38656,0,0,1-.38666-.38666V35.82833a.38667.38667,0,1,1,.77333,0v2.28543A.38656.38656,0,0,1,311.95612,38.50042Zm0-6.09467a.38656.38656,0,0,1-.38666-.38666V29.73365a.38667.38667,0,0,1,.77333,0v2.28544A.38656.38656,0,0,1,311.95612,32.40575Zm0-6.09449a.38656.38656,0,0,1-.38666-.38666V23.63917a.38667.38667,0,1,1,.77333,0V25.9246A.38656.38656,0,0,1,311.95612,26.31126Zm0-6.09448a.38656.38656,0,0,1-.38666-.38667V17.54468a.38667.38667,0,0,1,.77333,0v2.28543A.38656.38656,0,0,1,311.95612,20.21678Zm0-6.09468a.38656.38656,0,0,1-.38666-.38666V11.45a.38667.38667,0,1,1,.77333,0v2.28543A.38656.38656,0,0,1,311.95612,14.1221Zm0-6.09448a.38656.38656,0,0,1-.38666-.38667V5.35552a.38667.38667,0,0,1,.77333,0V7.641A.38656.38656,0,0,1,311.95612,8.02762Z"/>
      <path class="e7d56ced-3236-45f5-b8bb-3b99fd7281a4" d="M311.95612,86.13125a.38656.38656,0,0,1-.38666-.38666v-1.16a.38667.38667,0,0,1,.77333,0v1.16A.38656.38656,0,0,1,311.95612,86.13125Z"/>
    </g>
    <g>
      <path class="e7d56ced-3236-45f5-b8bb-3b99fd7281a4" d="M267.90213,86.13125h-1.16a.38667.38667,0,1,1,0-.77333h1.16a.38667.38667,0,0,1,0,.77333Z"/>
      <path class="e7d56ced-3236-45f5-b8bb-3b99fd7281a4" d="M262.85284,86.13125H260.52a.38667.38667,0,0,1,0-.77333h2.33282a.38667.38667,0,1,1,0,.77333Zm-6.22136,0h-2.33357a.38667.38667,0,1,1,0-.77333h2.33357a.38667.38667,0,1,1,0,.77333Zm-6.22211,0h-2.33282a.38667.38667,0,1,1,0-.77333h2.33282a.38667.38667,0,0,1,0,.77333Zm-6.22136,0h-2.33282a.38667.38667,0,1,1,0-.77333H244.188a.38667.38667,0,0,1,0,.77333Zm-6.22136,0h-2.33358a.38667.38667,0,0,1,0-.77333h2.33358a.38667.38667,0,0,1,0,.77333Zm-6.22212,0h-2.33282a.38667.38667,0,0,1,0-.77333h2.33282a.38667.38667,0,1,1,0,.77333Zm-6.22136,0h-2.33282a.38667.38667,0,0,1,0-.77333h2.33282a.38667.38667,0,1,1,0,.77333Zm-6.22136,0h-2.33357a.38667.38667,0,1,1,0-.77333h2.33357a.38667.38667,0,1,1,0,.77333Zm-6.22211,0h-2.33282a.38667.38667,0,1,1,0-.77333h2.33282a.38667.38667,0,0,1,0,.77333Zm-6.22136,0h-2.33283a.38667.38667,0,0,1,0-.77333h2.33283a.38667.38667,0,0,1,0,.77333Zm-6.22136,0h-2.33283a.38667.38667,0,0,1,0-.77333H200.637a.38667.38667,0,0,1,0,.77333Zm-6.22136,0H192.082a.38667.38667,0,0,1,0-.77333h2.33358a.38667.38667,0,0,1,0,.77333Zm-6.22212,0h-2.33282a.38667.38667,0,0,1,0-.77333h2.33282a.38667.38667,0,0,1,0,.77333Zm-6.22136,0h-2.33282a.38667.38667,0,0,1,0-.77333h2.33282a.38667.38667,0,0,1,0,.77333Zm-6.22136,0H173.4172a.38667.38667,0,0,1,0-.77333h2.33358a.38667.38667,0,0,1,0,.77333Zm-6.22211,0h-2.33283a.38667.38667,0,0,1,0-.77333h2.33283a.38667.38667,0,0,1,0,.77333Zm-6.22137,0h-2.33282a.38667.38667,0,0,1,0-.77333h2.33282a.38667.38667,0,1,1,0,.77333Zm-6.22136,0h-2.33357a.38667.38667,0,1,1,0-.77333h2.33357a.38667.38667,0,1,1,0,.77333Zm-6.22211,0H148.531a.38667.38667,0,1,1,0-.77333h2.33282a.38667.38667,0,0,1,0,.77333Zm-6.22136,0h-2.33282a.38667.38667,0,1,1,0-.77333h2.33282a.38667.38667,0,0,1,0,.77333Zm-6.22136,0h-2.33358a.38667.38667,0,0,1,0-.77333h2.33358a.38667.38667,0,0,1,0,.77333Zm-6.22212,0h-2.33282a.38667.38667,0,0,1,0-.77333H132.199a.38667.38667,0,1,1,0,.77333Zm-6.22136,0h-2.33282a.38667.38667,0,0,1,0-.77333h2.33282a.38667.38667,0,1,1,0,.77333Zm-6.22136,0H117.4227a.38667.38667,0,1,1,0-.77333h2.33357a.38667.38667,0,1,1,0,.77333Zm-6.22211,0h-2.33282a.38667.38667,0,1,1,0-.77333h2.33282a.38667.38667,0,0,1,0,.77333Zm-6.22136,0H104.98a.38667.38667,0,1,1,0-.77333h2.33282a.38667.38667,0,0,1,0,.77333Zm-6.22136,0H98.75786a.38667.38667,0,0,1,0-.77333h2.33358a.38667.38667,0,0,1,0,.77333Zm-6.22212,0H92.5365a.38667.38667,0,0,1,0-.77333h2.33282a.38667.38667,0,1,1,0,.77333Zm-6.22136,0H86.31514a.38667.38667,0,0,1,0-.77333H88.648a.38667.38667,0,1,1,0,.77333Zm-6.22136,0H80.093a.38667.38667,0,1,1,0-.77333H82.4266a.38667.38667,0,1,1,0,.77333Zm-6.22136,0H73.87167a.38667.38667,0,1,1,0-.77333h2.33357a.38667.38667,0,1,1,0,.77333Zm-6.22211,0H67.65031a.38667.38667,0,1,1,0-.77333h2.33282a.38667.38667,0,0,1,0,.77333Zm-6.22136,0H61.42819a.38667.38667,0,0,1,0-.77333h2.33358a.38667.38667,0,0,1,0,.77333Zm-6.22136,0H55.20683a.38667.38667,0,0,1,0-.77333h2.33358a.38667.38667,0,0,1,0,.77333Zm-6.22212,0H48.98547a.38667.38667,0,0,1,0-.77333h2.33282a.38667.38667,0,1,1,0,.77333Zm-6.22136,0H42.76411a.38667.38667,0,0,1,0-.77333h2.33282a.38667.38667,0,1,1,0,.77333Zm-6.22136,0H36.542a.38667.38667,0,0,1,0-.77333h2.33358a.38667.38667,0,0,1,0,.77333Zm-6.22211,0H30.32063a.38667.38667,0,0,1,0-.77333h2.33283a.38667.38667,0,0,1,0,.77333Zm-6.22136,0H24.09927a.38667.38667,0,0,1,0-.77333H26.4321a.38667.38667,0,0,1,0,.77333Zm-6.22136,0H17.87716a.38667.38667,0,0,1,0-.77333h2.33358a.38667.38667,0,0,1,0,.77333Zm-6.22212,0H11.6558a.38667.38667,0,0,1,0-.77333h2.33282a.38667.38667,0,0,1,0,.77333Zm-6.22136,0H5.43444a.38667.38667,0,0,1,0-.77333H7.76726a.38667.38667,0,0,1,0,.77333Z"/>
      <path class="e7d56ced-3236-45f5-b8bb-3b99fd7281a4" d="M1.54666,86.13125h-1.16a.38667.38667,0,0,1,0-.77333h1.16a.38667.38667,0,0,1,0,.77333Z"/>
    </g>
    <g>
      <path class="e7d56ced-3236-45f5-b8bb-3b99fd7281a4" d="M311.95612,86.13125h-1.16a.38667.38667,0,0,1,0-.77333h1.16a.38667.38667,0,1,1,0,.77333Z"/>
      <path class="e7d56ced-3236-45f5-b8bb-3b99fd7281a4" d="M306.85851,86.13125h-2.36228a.38667.38667,0,0,1,0-.77333h2.36228a.38667.38667,0,0,1,0,.77333Zm-6.29915,0h-2.36227a.38667.38667,0,1,1,0-.77333h2.36227a.38667.38667,0,0,1,0,.77333Zm-6.2999,0h-2.36228a.38667.38667,0,0,1,0-.77333h2.36228a.38667.38667,0,0,1,0,.77333Zm-6.29915,0H285.598a.38667.38667,0,0,1,0-.77333h2.36227a.38667.38667,0,1,1,0,.77333Zm-6.2999,0h-2.36227a.38667.38667,0,1,1,0-.77333h2.36227a.38667.38667,0,1,1,0,.77333Zm-6.29914,0H272.999a.38667.38667,0,0,1,0-.77333h2.36228a.38667.38667,0,0,1,0,.77333Z"/>
      <path class="e7d56ced-3236-45f5-b8bb-3b99fd7281a4" d="M269.06212,86.13125h-1.16a.38667.38667,0,1,1,0-.77333h1.16a.38667.38667,0,0,1,0,.77333Z"/>
    </g>
    <g>
      <path class="e7d56ced-3236-45f5-b8bb-3b99fd7281a4" d="M554.61334,86.13125h-1.16a.38667.38667,0,0,1,0-.77333h1.16a.38667.38667,0,0,1,0,.77333Z"/>
      <path class="e7d56ced-3236-45f5-b8bb-3b99fd7281a4" d="M549.564,86.13125h-2.33358a.38667.38667,0,0,1,0-.77333H549.564a.38667.38667,0,0,1,0,.77333Zm-6.22211,0h-2.33358a.38667.38667,0,0,1,0-.77333h2.33358a.38667.38667,0,0,1,0,.77333Zm-6.22288,0h-2.33282a.38667.38667,0,0,1,0-.77333h2.33282a.38667.38667,0,1,1,0,.77333Zm-6.22211,0h-2.33358a.38667.38667,0,0,1,0-.77333h2.33358a.38667.38667,0,0,1,0,.77333Zm-6.22212,0h-2.33357a.38667.38667,0,1,1,0-.77333h2.33357a.38667.38667,0,1,1,0,.77333Zm-6.22211,0h-2.33358a.38667.38667,0,0,1,0-.77333h2.33358a.38667.38667,0,0,1,0,.77333Zm-6.22287,0H509.897a.38667.38667,0,1,1,0-.77333h2.33282a.38667.38667,0,0,1,0,.77333Zm-6.22212,0h-2.33357a.38667.38667,0,1,1,0-.77333h2.33357a.38667.38667,0,1,1,0,.77333Zm-6.22211,0H497.452a.38667.38667,0,0,1,0-.77333h2.33358a.38667.38667,0,0,1,0,.77333Zm-6.22287,0h-2.33282a.38667.38667,0,1,1,0-.77333h2.33282a.38667.38667,0,0,1,0,.77333Zm-6.22212,0h-2.33357a.38667.38667,0,1,1,0-.77333h2.33357a.38667.38667,0,1,1,0,.77333Zm-6.22211,0h-2.33358a.38667.38667,0,0,1,0-.77333h2.33358a.38667.38667,0,0,1,0,.77333Zm-6.22212,0h-2.33358a.38667.38667,0,0,1,0-.77333h2.33358a.38667.38667,0,0,1,0,.77333Zm-6.22287,0h-2.33282a.38667.38667,0,0,1,0-.77333h2.33282a.38667.38667,0,0,1,0,.77333Zm-6.22211,0h-2.33358a.38667.38667,0,0,1,0-.77333h2.33358a.38667.38667,0,0,1,0,.77333Zm-6.22212,0h-2.33358a.38667.38667,0,0,1,0-.77333h2.33358a.38667.38667,0,0,1,0,.77333Zm-6.22287,0h-2.33282a.38667.38667,0,1,1,0-.77333h2.33282a.38667.38667,0,0,1,0,.77333Zm-6.22212,0h-2.33357a.38667.38667,0,1,1,0-.77333h2.33357a.38667.38667,0,1,1,0,.77333Zm-6.22211,0h-2.33358a.38667.38667,0,0,1,0-.77333h2.33358a.38667.38667,0,0,1,0,.77333Zm-6.22212,0h-2.33357a.38667.38667,0,1,1,0-.77333h2.33357a.38667.38667,0,1,1,0,.77333Zm-6.22287,0h-2.33357a.38667.38667,0,1,1,0-.77333h2.33357a.38667.38667,0,1,1,0,.77333Zm-6.22211,0h-2.33358a.38667.38667,0,0,1,0-.77333h2.33358a.38667.38667,0,0,1,0,.77333Zm-6.22212,0h-2.33357a.38667.38667,0,1,1,0-.77333H412.673a.38667.38667,0,1,1,0,.77333Zm-6.22287,0h-2.33282a.38667.38667,0,0,1,0-.77333h2.33282a.38667.38667,0,1,1,0,.77333Zm-6.22211,0h-2.33358a.38667.38667,0,0,1,0-.77333H400.228a.38667.38667,0,0,1,0,.77333Zm-6.22212,0H391.6723a.38667.38667,0,0,1,0-.77333h2.33358a.38667.38667,0,0,1,0,.77333Zm-6.22287,0h-2.33282a.38667.38667,0,0,1,0-.77333H387.783a.38667.38667,0,0,1,0,.77333Zm-6.22211,0h-2.33358a.38667.38667,0,1,1,0-.77333h2.33358a.38667.38667,0,0,1,0,.77333Zm-6.22212,0H373.0052a.38667.38667,0,0,1,0-.77333h2.33358a.38667.38667,0,0,1,0,.77333Zm-6.22212,0h-2.33357a.38667.38667,0,1,1,0-.77333h2.33357a.38667.38667,0,1,1,0,.77333Zm-6.22287,0H360.561a.38667.38667,0,0,1,0-.77333h2.33282a.38667.38667,0,1,1,0,.77333Zm-6.22211,0H354.3381a.38667.38667,0,0,1,0-.77333h2.33358a.38667.38667,0,0,1,0,.77333Zm-6.22212,0H348.116a.38667.38667,0,1,1,0-.77333h2.33357a.38667.38667,0,1,1,0,.77333Zm-6.22287,0h-2.33282a.38667.38667,0,0,1,0-.77333h2.33282a.38667.38667,0,1,1,0,.77333Zm-6.22211,0H335.671a.38667.38667,0,0,1,0-.77333h2.33358a.38667.38667,0,0,1,0,.77333Zm-6.22212,0h-2.33357a.38667.38667,0,1,1,0-.77333h2.33357a.38667.38667,0,1,1,0,.77333Zm-6.22211,0h-2.33358a.38667.38667,0,0,1,0-.77333h2.33358a.38667.38667,0,0,1,0,.77333Zm-6.22287,0h-2.33282a.38667.38667,0,1,1,0-.77333h2.33282a.38667.38667,0,0,1,0,.77333Z"/>
      <path class="e7d56ced-3236-45f5-b8bb-3b99fd7281a4" d="M313.11612,86.13125h-1.16a.38667.38667,0,0,1,0-.77333h1.16a.38667.38667,0,0,1,0,.77333Z"/>
    </g>
    <g>
      <path class="e7d56ced-3236-45f5-b8bb-3b99fd7281a4" d="M267.90213,130.59192h-1.16a.38667.38667,0,1,1,0-.77333h1.16a.38667.38667,0,0,1,0,.77333Z"/>
      <path class="e7d56ced-3236-45f5-b8bb-3b99fd7281a4" d="M262.85284,130.59192H260.52a.38667.38667,0,0,1,0-.77333h2.33282a.38667.38667,0,1,1,0,.77333Zm-6.22136,0h-2.33357a.38667.38667,0,1,1,0-.77333h2.33357a.38667.38667,0,1,1,0,.77333Zm-6.22211,0h-2.33282a.38667.38667,0,1,1,0-.77333h2.33282a.38667.38667,0,0,1,0,.77333Zm-6.22136,0h-2.33282a.38667.38667,0,1,1,0-.77333H244.188a.38667.38667,0,0,1,0,.77333Zm-6.22136,0h-2.33358a.38667.38667,0,0,1,0-.77333h2.33358a.38667.38667,0,0,1,0,.77333Zm-6.22212,0h-2.33282a.38667.38667,0,0,1,0-.77333h2.33282a.38667.38667,0,1,1,0,.77333Zm-6.22136,0h-2.33282a.38667.38667,0,0,1,0-.77333h2.33282a.38667.38667,0,1,1,0,.77333Zm-6.22136,0h-2.33357a.38667.38667,0,1,1,0-.77333h2.33357a.38667.38667,0,1,1,0,.77333Zm-6.22211,0h-2.33282a.38667.38667,0,1,1,0-.77333h2.33282a.38667.38667,0,0,1,0,.77333Zm-6.22136,0h-2.33283a.38667.38667,0,0,1,0-.77333h2.33283a.38667.38667,0,0,1,0,.77333Zm-6.22136,0h-2.33283a.38667.38667,0,0,1,0-.77333H200.637a.38667.38667,0,0,1,0,.77333Zm-6.22136,0H192.082a.38667.38667,0,0,1,0-.77333h2.33358a.38667.38667,0,0,1,0,.77333Zm-6.22212,0h-2.33282a.38667.38667,0,0,1,0-.77333h2.33282a.38667.38667,0,0,1,0,.77333Zm-6.22136,0h-2.33282a.38667.38667,0,0,1,0-.77333h2.33282a.38667.38667,0,0,1,0,.77333Zm-6.22136,0H173.4172a.38667.38667,0,0,1,0-.77333h2.33358a.38667.38667,0,0,1,0,.77333Zm-6.22211,0h-2.33283a.38667.38667,0,0,1,0-.77333h2.33283a.38667.38667,0,0,1,0,.77333Zm-6.22137,0h-2.33282a.38667.38667,0,0,1,0-.77333h2.33282a.38667.38667,0,1,1,0,.77333Zm-6.22136,0h-2.33357a.38667.38667,0,1,1,0-.77333h2.33357a.38667.38667,0,1,1,0,.77333Zm-6.22211,0H148.531a.38667.38667,0,1,1,0-.77333h2.33282a.38667.38667,0,0,1,0,.77333Zm-6.22136,0h-2.33282a.38667.38667,0,1,1,0-.77333h2.33282a.38667.38667,0,0,1,0,.77333Zm-6.22136,0h-2.33358a.38667.38667,0,0,1,0-.77333h2.33358a.38667.38667,0,0,1,0,.77333Zm-6.22212,0h-2.33282a.38667.38667,0,0,1,0-.77333H132.199a.38667.38667,0,1,1,0,.77333Zm-6.22136,0h-2.33282a.38667.38667,0,0,1,0-.77333h2.33282a.38667.38667,0,1,1,0,.77333Zm-6.22136,0H117.4227a.38667.38667,0,1,1,0-.77333h2.33357a.38667.38667,0,1,1,0,.77333Zm-6.22211,0h-2.33282a.38667.38667,0,1,1,0-.77333h2.33282a.38667.38667,0,0,1,0,.77333Zm-6.22136,0H104.98a.38667.38667,0,1,1,0-.77333h2.33282a.38667.38667,0,0,1,0,.77333Zm-6.22136,0H98.75786a.38667.38667,0,0,1,0-.77333h2.33358a.38667.38667,0,0,1,0,.77333Zm-6.22212,0H92.5365a.38667.38667,0,0,1,0-.77333h2.33282a.38667.38667,0,1,1,0,.77333Zm-6.22136,0H86.31514a.38667.38667,0,0,1,0-.77333H88.648a.38667.38667,0,1,1,0,.77333Zm-6.22136,0H80.093a.38667.38667,0,1,1,0-.77333H82.4266a.38667.38667,0,1,1,0,.77333Zm-6.22136,0H73.87167a.38667.38667,0,1,1,0-.77333h2.33357a.38667.38667,0,1,1,0,.77333Zm-6.22211,0H67.65031a.38667.38667,0,1,1,0-.77333h2.33282a.38667.38667,0,0,1,0,.77333Zm-6.22136,0H61.42819a.38667.38667,0,0,1,0-.77333h2.33358a.38667.38667,0,0,1,0,.77333Zm-6.22136,0H55.20683a.38667.38667,0,0,1,0-.77333h2.33358a.38667.38667,0,0,1,0,.77333Zm-6.22212,0H48.98547a.38667.38667,0,0,1,0-.77333h2.33282a.38667.38667,0,1,1,0,.77333Zm-6.22136,0H42.76411a.38667.38667,0,0,1,0-.77333h2.33282a.38667.38667,0,1,1,0,.77333Zm-6.22136,0H36.542a.38667.38667,0,0,1,0-.77333h2.33358a.38667.38667,0,0,1,0,.77333Zm-6.22211,0H30.32063a.38667.38667,0,0,1,0-.77333h2.33283a.38667.38667,0,0,1,0,.77333Zm-6.22136,0H24.09927a.38667.38667,0,0,1,0-.77333H26.4321a.38667.38667,0,0,1,0,.77333Zm-6.22136,0H17.87716a.38667.38667,0,0,1,0-.77333h2.33358a.38667.38667,0,0,1,0,.77333Zm-6.22212,0H11.6558a.38667.38667,0,0,1,0-.77333h2.33282a.38667.38667,0,0,1,0,.77333Zm-6.22136,0H5.43444a.38667.38667,0,0,1,0-.77333H7.76726a.38667.38667,0,0,1,0,.77333Z"/>
      <path class="e7d56ced-3236-45f5-b8bb-3b99fd7281a4" d="M1.54666,130.59192h-1.16a.38667.38667,0,0,1,0-.77333h1.16a.38667.38667,0,0,1,0,.77333Z"/>
    </g>
    <g>
      <path class="e7d56ced-3236-45f5-b8bb-3b99fd7281a4" d="M311.95612,130.59192h-1.16a.38667.38667,0,0,1,0-.77333h1.16a.38667.38667,0,1,1,0,.77333Z"/>
      <path class="e7d56ced-3236-45f5-b8bb-3b99fd7281a4" d="M306.85851,130.59192h-2.36228a.38667.38667,0,0,1,0-.77333h2.36228a.38667.38667,0,0,1,0,.77333Zm-6.29915,0h-2.36227a.38667.38667,0,1,1,0-.77333h2.36227a.38667.38667,0,0,1,0,.77333Zm-6.2999,0h-2.36228a.38667.38667,0,0,1,0-.77333h2.36228a.38667.38667,0,0,1,0,.77333Zm-6.29915,0H285.598a.38667.38667,0,0,1,0-.77333h2.36227a.38667.38667,0,1,1,0,.77333Zm-6.2999,0h-2.36227a.38667.38667,0,1,1,0-.77333h2.36227a.38667.38667,0,1,1,0,.77333Zm-6.29914,0H272.999a.38667.38667,0,0,1,0-.77333h2.36228a.38667.38667,0,0,1,0,.77333Z"/>
      <path class="e7d56ced-3236-45f5-b8bb-3b99fd7281a4" d="M269.06212,130.59192h-1.16a.38667.38667,0,1,1,0-.77333h1.16a.38667.38667,0,0,1,0,.77333Z"/>
    </g>
    <g>
      <path class="e7d56ced-3236-45f5-b8bb-3b99fd7281a4" d="M554.61334,130.59192h-1.16a.38667.38667,0,0,1,0-.77333h1.16a.38667.38667,0,0,1,0,.77333Z"/>
      <path class="e7d56ced-3236-45f5-b8bb-3b99fd7281a4" d="M549.564,130.59192h-2.33358a.38667.38667,0,0,1,0-.77333H549.564a.38667.38667,0,0,1,0,.77333Zm-6.22211,0h-2.33358a.38667.38667,0,0,1,0-.77333h2.33358a.38667.38667,0,0,1,0,.77333Zm-6.22288,0h-2.33282a.38667.38667,0,0,1,0-.77333h2.33282a.38667.38667,0,1,1,0,.77333Zm-6.22211,0h-2.33358a.38667.38667,0,0,1,0-.77333h2.33358a.38667.38667,0,0,1,0,.77333Zm-6.22212,0h-2.33357a.38667.38667,0,1,1,0-.77333h2.33357a.38667.38667,0,1,1,0,.77333Zm-6.22211,0h-2.33358a.38667.38667,0,0,1,0-.77333h2.33358a.38667.38667,0,0,1,0,.77333Zm-6.22287,0H509.897a.38667.38667,0,1,1,0-.77333h2.33282a.38667.38667,0,0,1,0,.77333Zm-6.22212,0h-2.33357a.38667.38667,0,1,1,0-.77333h2.33357a.38667.38667,0,1,1,0,.77333Zm-6.22211,0H497.452a.38667.38667,0,0,1,0-.77333h2.33358a.38667.38667,0,0,1,0,.77333Zm-6.22287,0h-2.33282a.38667.38667,0,1,1,0-.77333h2.33282a.38667.38667,0,0,1,0,.77333Zm-6.22212,0h-2.33357a.38667.38667,0,1,1,0-.77333h2.33357a.38667.38667,0,1,1,0,.77333Zm-6.22211,0h-2.33358a.38667.38667,0,0,1,0-.77333h2.33358a.38667.38667,0,0,1,0,.77333Zm-6.22212,0h-2.33358a.38667.38667,0,0,1,0-.77333h2.33358a.38667.38667,0,0,1,0,.77333Zm-6.22287,0h-2.33282a.38667.38667,0,0,1,0-.77333h2.33282a.38667.38667,0,0,1,0,.77333Zm-6.22211,0h-2.33358a.38667.38667,0,0,1,0-.77333h2.33358a.38667.38667,0,0,1,0,.77333Zm-6.22212,0h-2.33358a.38667.38667,0,0,1,0-.77333h2.33358a.38667.38667,0,0,1,0,.77333Zm-6.22287,0h-2.33282a.38667.38667,0,1,1,0-.77333h2.33282a.38667.38667,0,0,1,0,.77333Zm-6.22212,0h-2.33357a.38667.38667,0,1,1,0-.77333h2.33357a.38667.38667,0,1,1,0,.77333Zm-6.22211,0h-2.33358a.38667.38667,0,0,1,0-.77333h2.33358a.38667.38667,0,0,1,0,.77333Zm-6.22212,0h-2.33357a.38667.38667,0,1,1,0-.77333h2.33357a.38667.38667,0,1,1,0,.77333Zm-6.22287,0h-2.33357a.38667.38667,0,1,1,0-.77333h2.33357a.38667.38667,0,1,1,0,.77333Zm-6.22211,0h-2.33358a.38667.38667,0,0,1,0-.77333h2.33358a.38667.38667,0,0,1,0,.77333Zm-6.22212,0h-2.33357a.38667.38667,0,1,1,0-.77333H412.673a.38667.38667,0,1,1,0,.77333Zm-6.22287,0h-2.33282a.38667.38667,0,0,1,0-.77333h2.33282a.38667.38667,0,1,1,0,.77333Zm-6.22211,0h-2.33358a.38667.38667,0,0,1,0-.77333H400.228a.38667.38667,0,0,1,0,.77333Zm-6.22212,0H391.6723a.38667.38667,0,0,1,0-.77333h2.33358a.38667.38667,0,0,1,0,.77333Zm-6.22287,0h-2.33282a.38667.38667,0,0,1,0-.77333H387.783a.38667.38667,0,0,1,0,.77333Zm-6.22211,0h-2.33358a.38667.38667,0,1,1,0-.77333h2.33358a.38667.38667,0,0,1,0,.77333Zm-6.22212,0H373.0052a.38667.38667,0,0,1,0-.77333h2.33358a.38667.38667,0,0,1,0,.77333Zm-6.22212,0h-2.33357a.38667.38667,0,1,1,0-.77333h2.33357a.38667.38667,0,1,1,0,.77333Zm-6.22287,0H360.561a.38667.38667,0,0,1,0-.77333h2.33282a.38667.38667,0,1,1,0,.77333Zm-6.22211,0H354.3381a.38667.38667,0,0,1,0-.77333h2.33358a.38667.38667,0,0,1,0,.77333Zm-6.22212,0H348.116a.38667.38667,0,1,1,0-.77333h2.33357a.38667.38667,0,1,1,0,.77333Zm-6.22287,0h-2.33282a.38667.38667,0,0,1,0-.77333h2.33282a.38667.38667,0,1,1,0,.77333Zm-6.22211,0H335.671a.38667.38667,0,0,1,0-.77333h2.33358a.38667.38667,0,0,1,0,.77333Zm-6.22212,0h-2.33357a.38667.38667,0,1,1,0-.77333h2.33357a.38667.38667,0,1,1,0,.77333Zm-6.22211,0h-2.33358a.38667.38667,0,0,1,0-.77333h2.33358a.38667.38667,0,0,1,0,.77333Zm-6.22287,0h-2.33282a.38667.38667,0,1,1,0-.77333h2.33282a.38667.38667,0,0,1,0,.77333Z"/>
      <path class="e7d56ced-3236-45f5-b8bb-3b99fd7281a4" d="M313.11612,130.59192h-1.16a.38667.38667,0,0,1,0-.77333h1.16a.38667.38667,0,0,1,0,.77333Z"/>
    </g>
  </g>
</svg>
