<?xml version="1.0" encoding="utf-8"?>
<!-- Generator: Adobe Illustrator 24.3.0, SVG Export Plug-In . SVG Version: 6.00 Build 0)  -->
<svg version="1.1" id="afc4816d-ae92-4eba-a7a7-4488406298d4"
	 xmlns="http://www.w3.org/2000/svg" xmlns:xlink="http://www.w3.org/1999/xlink" x="0px" y="0px" viewBox="0 0 555 280"
	 style="enable-background:new 0 0 555 280;" xml:space="preserve">
<style type="text/css">
	.st0{opacity:0.5;fill:#A7C0E4;enable-background:new    ;}
	.st1{fill:#FFFFFF;}
	.st2{opacity:0.5;fill:#6C97D3;enable-background:new    ;}
	.st3{fill:#EE0000;}
	.st4{fill:none;stroke:#6C97D3;stroke-linecap:round;stroke-linejoin:round;}
	.st5{fill:none;stroke:#6C97D3;stroke-linecap:round;stroke-linejoin:round;stroke-dasharray:3.0002,5.0004;}
	.st6{fill:none;stroke:#6C97D3;stroke-linecap:round;stroke-linejoin:round;stroke-dasharray:2.9734,4.9557;}
	.st7{fill:none;stroke:#6C97D3;stroke-linecap:round;stroke-linejoin:round;stroke-dasharray:3.0027,5.0045;}
	.st8{fill:none;stroke:#6C97D3;stroke-linecap:round;stroke-linejoin:round;stroke-dasharray:2.9174,4.8624;}
	.st9{fill:none;stroke:#6C97D3;stroke-linecap:round;stroke-linejoin:round;stroke-dasharray:2.9427,4.9044;}
	.st10{fill:none;stroke:#6C97D3;stroke-linecap:round;stroke-linejoin:round;stroke-dasharray:2.9815,4.9692;}
	.st11{fill:none;stroke:#6C97D3;stroke-linecap:round;stroke-linejoin:round;stroke-dasharray:2.9426,4.9044;}
</style>
<g>
	<rect y="0.1" class="st0" width="276.2" height="279.6"/>
	<polyline class="st1" points="47.2,188.7 47.2,47.6 229.1,47.6 229.1,232 47.2,232 47.2,188.7 	"/>
	<path class="st2" d="M98.2,47.6c-7,0-12.5-5.2-12.5-11.9c-0.1-6.5,5.2-11.9,11.7-11.9c0.1,0,0.2,0,0.3,0c6.7,0,11.6,5.3,11.6,12.4
		v1.9H92.9c0.9,2.3,3.2,3.7,5.6,3.7c1.7,0.1,3.4-0.6,4.6-1.7l4.7,4.1C105.2,46.5,101.7,47.7,98.2,47.6z M92.9,33.2h9.6
		c-0.7-2.1-2.6-3.6-4.8-3.6C95.4,29.5,93.4,31,92.9,33.2L92.9,33.2z"/>
	<path class="st2" d="M98.2,23.8c-7,0-12.5-5.2-12.5-11.9C85.6,5.4,90.9,0.1,97.4,0c0.1,0,0.2,0,0.3,0c6.7,0,11.6,5.3,11.6,12.4v1.9
		H92.9c0.9,2.3,3.2,3.7,5.6,3.7c1.7,0.1,3.4-0.6,4.6-1.7l4.7,4.1C105.2,22.7,101.7,23.9,98.2,23.8z M92.9,9.4h9.6
		c-0.7-2.1-2.6-3.6-4.8-3.6C95.4,5.7,93.4,7.2,92.9,9.4z"/>
	<path class="st2" d="M98.2,279.6c-7,0-12.5-5.2-12.5-11.9c-0.1-6.5,5.2-11.9,11.7-11.9c0.1,0,0.2,0,0.3,0c6.7,0,11.6,5.3,11.6,12.4
		v1.9H92.9c0.9,2.3,3.2,3.7,5.6,3.7c1.7,0.1,3.4-0.6,4.6-1.7l4.7,4.1C105.2,278.5,101.7,279.7,98.2,279.6z M92.9,265.2h9.6
		c-0.7-2.1-2.6-3.6-4.8-3.6C95.4,261.5,93.4,263,92.9,265.2L92.9,265.2z"/>
	<path class="st2" d="M98.2,255.8c-7,0-12.5-5.2-12.5-11.9c-0.1-6.5,5.2-11.9,11.7-11.9c0.1,0,0.2,0,0.3,0c6.7,0,11.6,5.3,11.6,12.4
		v1.9H92.9c0.9,2.3,3.2,3.7,5.6,3.7c1.7,0.1,3.4-0.6,4.6-1.7l4.7,4.1C105.2,254.7,101.7,255.9,98.2,255.8z M92.9,241.4h9.6
		c-0.7-2.1-2.6-3.6-4.8-3.6C95.4,237.7,93.4,239.2,92.9,241.4L92.9,241.4z"/>
	<g>
		<g>
			<path d="M197.5,107c0.2,1.1,0.3,2.2,0.3,3.3c0,14.2-17.3,16.7-29.2,16.7c-46.5,0-81.1-28.9-81.1-37.7c0-0.6,0-1.3,0.2-1.9
				L84.1,96c-1,2.2-1.4,4.6-1.4,7c0,17.3,39.1,43.5,83.8,43.5c19.8,0,34.8-7.4,34.8-20.8c0-1,0-1.9-1.6-9.7L197.5,107z"/>
			<path class="st3" d="M168.5,126.9c11.9,0,29.2-2.5,29.2-16.7c0-1.1-0.1-2.2-0.3-3.3l-7.1-30.9c-1.6-6.8-3.1-9.9-15-15.9
				c-9.3-4.7-29.5-12.6-35.4-12.6c-5.6,0-7.2,7.2-13.8,7.2c-6.4,0-11.1-5.4-17.1-5.4c-5.8,0-9.5,3.9-12.4,11.9c0,0-8,22.7-9.1,25.9
				c-0.2,0.6-0.2,1.2-0.2,1.9C87.4,98,122,126.9,168.5,126.9 M199.6,116c1.6,7.8,1.6,8.6,1.6,9.7c0,13.4-15,20.8-34.8,20.8
				c-44.7,0-83.8-26.2-83.8-43.5c0-2.4,0.5-4.8,1.4-7c-16.1,0.8-36.9,3.7-36.9,22c0,30.1,71.3,67.1,127.7,67.1
				c43.2,0,54.2-19.6,54.2-35C229.1,138,218.6,124.2,199.6,116"/>
		</g>
		<path d="M59.3,201.1h15.2c5.6-0.1,10.3,4.3,10.5,9.9c0,0,0,0.1,0,0.1c0,3.7-2.2,7.1-5.6,8.6l6.6,11.7h-8.3l-5.7-10.6h-5.1v10.6
			h-7.5V201.1z M66.8,207.5v7.2h6.8c2,0.1,3.7-1.5,3.8-3.5c0,0,0,0,0,0c0-2.1-1.7-3.7-3.8-3.7H66.8z"/>
		<path d="M98.2,232c-7,0-12.5-5.2-12.5-11.9c-0.1-6.5,5.2-11.9,11.7-11.9c0.1,0,0.2,0,0.3,0c6.7,0,11.6,5.3,11.6,12.4v1.9H92.9
			c0.9,2.3,3.2,3.7,5.6,3.7c1.7,0.1,3.4-0.6,4.6-1.7l4.6,4.1C105.2,230.9,101.7,232.1,98.2,232z M92.9,217.6h9.6
			c-0.7-2.1-2.6-3.6-4.8-3.6C95.4,213.9,93.4,215.4,92.9,217.6z"/>
		<path d="M128.6,229.9c-1.8,1.3-3.9,2-6.2,2c-6.5-0.1-11.8-5.5-11.6-12c0.1-6.5,5.5-11.8,12-11.6c2,0,3.9,0.6,5.7,1.6v-8.6l7-2.2
			v32.6h-7L128.6,229.9z M123.6,225.9c1.8,0.1,3.6-0.6,5-1.8v-8c-1.4-1.2-3.1-1.8-5-1.8c-3.2-0.1-5.9,2.4-6,5.6
			c-0.1,3.2,2.4,5.9,5.6,6C123.3,225.9,123.4,225.9,123.6,225.9z"/>
		<path d="M165.5,219.7h-11.6v11.9h-7.5v-30.4h7.5v11.7h11.6v-11.7h7.5v30.4h-7.5V219.7z"/>
		<path d="M190.2,230.2c-1.8,1.2-4,1.9-6.2,1.8c-5.1,0-8.6-3.2-8.6-7.3c0-4,3.3-7.1,9-7.1c2,0,4,0.4,5.8,1.3v-1.4
			c0-2.2-1.5-3.3-4.3-3.3c-2.4,0.1-4.7,0.6-6.9,1.7l-2.1-5.3c3-1.4,6.2-2.2,9.5-2.3c7,0,10.9,3.1,10.9,8.7v14.7h-7V230.2z
			 M185.9,227c1.5,0,3-0.4,4.3-1.2v-2.4c-1.4-0.8-2.9-1.2-4.5-1.2c-2.2,0-3.5,0.9-3.5,2.3C182.2,226.1,183.6,227,185.9,227z"/>
		<path d="M211,231.9c-4.8,0-7.5-2.3-7.5-7.1v-10.4h-4.9v-5.9h4.9v-5.3l7-2.2v7.4h6.4v5.9h-6.4v8.8c0,2,1,2.7,3.2,2.7
			c1.1,0,2.1-0.2,3.1-0.7l-1,5.7C214.3,231.6,212.7,231.9,211,231.9z"/>
	</g>
	<path d="M98.2,232c-7,0-12.5-5.2-12.5-11.9c-0.1-6.5,5.2-11.9,11.7-11.9c0.1,0,0.2,0,0.3,0c6.7,0,11.6,5.3,11.6,12.4v1.9H92.9
		c0.9,2.3,3.2,3.7,5.6,3.7c1.7,0.1,3.4-0.6,4.6-1.7l4.6,4.1C105.2,230.9,101.7,232.1,98.2,232z M92.9,217.6h9.6
		c-0.7-2.1-2.6-3.6-4.8-3.6C95.4,213.9,93.4,215.4,92.9,217.6z"/>
	<path class="st2" d="M36.1,232c-7,0-12.5-5.2-12.5-11.9c-0.1-6.5,5.2-11.9,11.7-11.9c0.1,0,0.2,0,0.3,0c6.7,0,11.6,5.3,11.6,12.4
		v1.9H30.8c0.9,2.3,3.2,3.7,5.6,3.7c1.7,0.1,3.4-0.6,4.6-1.7l4.7,4.1C43.1,230.9,39.7,232.1,36.1,232z M30.8,217.6h9.6
		c-0.7-2.1-2.6-3.6-4.8-3.6C33.3,213.9,31.3,215.4,30.8,217.6L30.8,217.6z"/>
	<path class="st2" d="M12.5,232c-7,0-12.5-5.2-12.5-11.9c-0.1-6.5,5.2-11.9,11.7-11.9c0.1,0,0.2,0,0.3,0c6.7,0,11.6,5.3,11.6,12.4
		v1.9H7.2c0.9,2.3,3.2,3.7,5.6,3.7c1.7,0.1,3.4-0.6,4.6-1.7l4.7,4.1C19.5,230.9,16.1,232.1,12.5,232z M7.2,217.6h9.6
		c-0.7-2.1-2.6-3.6-4.8-3.6C9.7,213.9,7.7,215.4,7.2,217.6L7.2,217.6z"/>
	<g>
		<line class="st4" x1="85.7" y1="232" x2="85.7" y2="233.5"/>
		<line class="st5" x1="85.7" y1="238.5" x2="85.7" y2="276"/>
		<line class="st4" x1="85.7" y1="278.5" x2="85.7" y2="280"/>
	</g>
	<g>
		<line class="st4" x1="85.7" y1="208.2" x2="85.7" y2="209.7"/>
		<line class="st6" x1="85.7" y1="214.6" x2="85.7" y2="228"/>
		<line class="st4" x1="85.7" y1="230.5" x2="85.7" y2="232"/>
	</g>
	<g>
		<line class="st4" x1="85.7" y1="0" x2="85.7" y2="1.5"/>
		<line class="st7" x1="85.7" y1="6.5" x2="85.7" y2="204.2"/>
		<line class="st4" x1="85.7" y1="206.7" x2="85.7" y2="208.2"/>
	</g>
	<g>
		<line class="st4" x1="109.3" y1="232" x2="109.3" y2="233.5"/>
		<line class="st5" x1="109.3" y1="238.5" x2="109.3" y2="276"/>
		<line class="st4" x1="109.3" y1="278.5" x2="109.3" y2="280"/>
	</g>
	<g>
		<line class="st4" x1="109.3" y1="208.2" x2="109.3" y2="209.7"/>
		<line class="st6" x1="109.3" y1="214.6" x2="109.3" y2="228"/>
		<line class="st4" x1="109.3" y1="230.5" x2="109.3" y2="232"/>
	</g>
	<g>
		<line class="st4" x1="109.3" y1="0" x2="109.3" y2="1.5"/>
		<line class="st7" x1="109.3" y1="6.5" x2="109.3" y2="204.2"/>
		<line class="st4" x1="109.3" y1="206.7" x2="109.3" y2="208.2"/>
	</g>
	<g>
		<line class="st4" x1="85.7" y1="208.2" x2="84.2" y2="208.2"/>
		<line class="st8" x1="79.3" y1="208.2" x2="4" y2="208.2"/>
		<line class="st4" x1="1.5" y1="208.2" x2="0" y2="208.2"/>
	</g>
	<g>
		<line class="st4" x1="109.3" y1="208.2" x2="107.8" y2="208.2"/>
		<line class="st9" x1="102.9" y1="208.2" x2="89.6" y2="208.2"/>
		<line class="st4" x1="87.2" y1="208.2" x2="85.7" y2="208.2"/>
	</g>
	<g>
		<line class="st4" x1="276.3" y1="208.2" x2="274.8" y2="208.2"/>
		<line class="st10" x1="269.8" y1="208.2" x2="113.3" y2="208.2"/>
		<line class="st4" x1="110.8" y1="208.2" x2="109.3" y2="208.2"/>
	</g>
	<g>
		<line class="st4" x1="85.7" y1="232" x2="84.2" y2="232"/>
		<line class="st8" x1="79.3" y1="232" x2="4" y2="232"/>
		<line class="st4" x1="1.5" y1="232" x2="0" y2="232"/>
	</g>
	<g>
		<line class="st4" x1="109.3" y1="232" x2="107.8" y2="232"/>
		<line class="st11" x1="102.9" y1="232" x2="89.6" y2="232"/>
		<line class="st4" x1="87.2" y1="232" x2="85.7" y2="232"/>
	</g>
	<g>
		<line class="st4" x1="276.3" y1="232" x2="274.8" y2="232"/>
		<line class="st10" x1="269.8" y1="232" x2="113.3" y2="232"/>
		<line class="st4" x1="110.8" y1="232" x2="109.3" y2="232"/>
	</g>
</g>
</svg>
