<?xml version="1.0" encoding="utf-8"?>
<!-- Generator: Adobe Illustrator 24.3.0, SVG Export Plug-In . SVG Version: 6.00 Build 0)  -->
<svg version="1.1" id="e9b4019f-e51a-44de-a164-8d62cdd60ce9"
	 xmlns="http://www.w3.org/2000/svg" xmlns:xlink="http://www.w3.org/1999/xlink" x="0px" y="0px" viewBox="0 0 555 278"
	 style="enable-background:new 0 0 555 278;" xml:space="preserve">
<style type="text/css">
	.st0{opacity:0.5;fill:#A7C0E4;enable-background:new    ;}
	.st1{fill:#FFFFFF;}
	.st2{fill:#EE0000;}
	.st3{fill:#6C97D3;}
	.st4{opacity:0.5;fill:#6C97D3;enable-background:new    ;}
</style>
<g>
	<rect x="0.4" y="0.4" class="st0" width="378.5" height="277.2"/>
	<polyline class="st1" points="44,189.2 44,44.4 335.3,44.4 335.3,233.6 44,233.6 44,189.2 	"/>
	<g>
		<g>
			<path d="M237.9,92.7c0.2,0.9,0.3,1.8,0.2,2.7c0,11.6-14.1,13.6-23.8,13.6c-37.8,0-66.1-23.5-66.1-30.6c0-0.5,0-1,0.2-1.5l-2.8,7
				c-0.8,1.8-1.2,3.7-1.2,5.7c0,14.1,31.9,35.3,68.3,35.3c16.1,0,28.3-6.1,28.3-17c0-0.8,0-1.5-1.3-7.9L237.9,92.7z"/>
			<path class="st2" d="M214.3,108.9c9.7,0,23.8-2,23.8-13.6c0-0.9-0.1-1.8-0.2-2.7L232,67.5c-1.3-5.5-2.5-8-12.3-12.9
				c-7.5-3.8-24-10.2-28.8-10.2c-4.5,0-5.9,5.9-11.2,5.9c-5.2,0-9.1-4.3-13.9-4.3c-4.7,0-7.7,3.2-10.1,9.7c0,0-6.5,18.4-7.4,21.1
				c-0.1,0.5-0.2,1-0.2,1.5C148.2,85.5,176.5,109,214.3,108.9 M239.6,100c1.3,6.4,1.3,7,1.3,7.9c0,10.9-12.2,16.9-28.3,17
				c-36.4,0-68.3-21.2-68.3-35.3c0-2,0.4-3.9,1.2-5.7c-13.1,0.7-30,3-30,18c0,24.5,58.1,54.6,104,54.6c35.2,0,44.1-16,44.1-28.5
				C263.6,117.9,255.1,106.7,239.6,100"/>
		</g>
		<g>
			<path d="M44,176.7l28,0c10.6,0,19.4,8,19.4,18.6c-0.1,6.9-4.1,13.2-10.4,16l12.2,21.6l-15.4,0l-10.5-19.7l-9.4,0l0,19.7l-13.8,0
				L44,176.7z M57.8,188.4l0,13.3l12.6,0c3.7,0.1,6.8-2.8,7-6.5c0,0,0,0,0,0c0-3.8-3.2-6.9-7-6.8l0,0L57.8,188.4z"/>
			<path d="M115.9,233.6c-13,0-23.1-9.6-23.1-22c-0.1-12.1,9.6-21.9,21.6-22c0.2,0,0.4,0,0.5,0c12.4,0,21.5,9.7,21.5,22.9l0,3.5
				l-30.3,0c1.8,4.2,5.9,6.9,10.4,6.7c3.2,0.1,6.2-1,8.5-3.2l8.6,7.6C128.8,231.5,122.4,233.8,115.9,233.6z M106,207l17.7,0
				c-1.2-3.9-4.8-6.6-8.9-6.7C110.6,200.2,107,203,106,207z"/>
			<path d="M172.1,229.6c-3.3,2.4-7.3,3.8-11.4,3.8c-12.1-0.2-21.7-10.1-21.5-22.2s10.1-21.7,22.2-21.5c3.7,0.1,7.3,1,10.5,2.9l0-16
				l13-4l0.1,60.2l-12.8,0L172.1,229.6z M162.8,222.3c3.4,0.1,6.7-1.1,9.2-3.4l0-14.9c-2.5-2.2-5.8-3.3-9.2-3.3
				c-5.9-0.2-10.9,4.4-11.1,10.4c-0.2,5.9,4.4,10.9,10.4,11.1C162.3,222.3,162.5,222.3,162.8,222.3z"/>
			<path d="M240.2,210.7l-21.5,0l0,22l-13.8,0l-0.1-56.2l13.8,0l0,21.6l21.5,0l0-21.6l13.8,0l0.1,56.2l-13.8,0L240.2,210.7z"/>
			<path d="M286,230.1c-3.3,2.3-7.3,3.5-11.4,3.3c-9.5,0-15.8-5.9-15.8-13.6c0-7.5,6-13.1,16.5-13.1c3.7-0.1,7.4,0.7,10.7,2.4l0-2.6
				c0-4.1-2.7-6.2-8-6.2c-4.4,0.2-8.8,1.2-12.8,3.1l-3.9-9.7c6.4-2.8,12.3-4.3,17.5-4.4c13,0,20.2,5.7,20.2,16l0,27.2l-13,0
				L286,230.1z M278,224.3c2.8,0,5.6-0.7,7.9-2.2l0-4.4c-2.5-1.5-5.4-2.2-8.4-2.2c-4,0-6.5,1.7-6.5,4.3
				C271.1,222.6,273.7,224.3,278,224.3L278,224.3z"/>
			<path d="M324.3,233.3c-8.9,0-13.9-4.2-13.9-13.1l0-19.2l-9,0l0-10.8l9,0l0-9.7l13-4l0,13.7l11.9,0l0,10.8l-11.9,0l0,16.2
				c0,3.6,1.9,5,5.9,5c2,0,3.9-0.5,5.7-1.3l-1.8,10.5C330.4,232.6,327.4,233.2,324.3,233.3z"/>
		</g>
	</g>
	<g>
		<path class="st3" d="M92.7,235.2c-0.2,0-0.4-0.2-0.4-0.4c0,0,0,0,0,0v-1.2c0-0.2,0.2-0.4,0.4-0.4c0.2,0,0.4,0.2,0.4,0.4v1.2
			C93.1,235,92.9,235.2,92.7,235.2C92.7,235.2,92.7,235.2,92.7,235.2z"/>
		<path class="st3" d="M92.7,272.9c-0.2,0-0.4-0.2-0.4-0.4c0,0,0,0,0,0v-2.4c0-0.2,0.2-0.4,0.4-0.4c0.2,0,0.4,0.2,0.4,0.4v2.4
			C93.1,272.7,92.9,272.9,92.7,272.9C92.7,272.9,92.7,272.9,92.7,272.9z M92.7,266.6c-0.2,0-0.4-0.2-0.4-0.4c0,0,0,0,0,0v-2.4
			c0-0.2,0.2-0.4,0.4-0.4c0.2,0,0.4,0.2,0.4,0.4v2.4C93.1,266.4,92.9,266.6,92.7,266.6C92.7,266.6,92.7,266.6,92.7,266.6z
			 M92.7,260.3c-0.2,0-0.4-0.2-0.4-0.4c0,0,0,0,0,0v-2.4c0-0.2,0.2-0.4,0.4-0.4c0.2,0,0.4,0.2,0.4,0.4v2.4
			C93.1,260.1,92.9,260.3,92.7,260.3C92.7,260.3,92.7,260.3,92.7,260.3z M92.7,254c-0.2,0-0.4-0.2-0.4-0.4c0,0,0,0,0,0v-2.4
			c0-0.2,0.2-0.4,0.4-0.4s0.4,0.2,0.4,0.4c0,0,0,0,0,0v2.4C93.1,253.9,92.9,254,92.7,254C92.7,254,92.7,254,92.7,254z M92.7,247.7
			c-0.2,0-0.4-0.2-0.4-0.4c0,0,0,0,0,0V245c0-0.2,0.2-0.4,0.4-0.4s0.4,0.2,0.4,0.4c0,0,0,0,0,0v2.4
			C93.1,247.6,92.9,247.7,92.7,247.7C92.7,247.7,92.7,247.7,92.7,247.7z M92.7,241.5c-0.2,0-0.4-0.2-0.4-0.4c0,0,0,0,0,0v-2.4
			c0-0.2,0.2-0.4,0.4-0.4c0.2,0,0.4,0.2,0.4,0.4v2.4C93.1,241.3,92.9,241.5,92.7,241.5C92.7,241.5,92.7,241.5,92.7,241.5z"/>
		<path class="st3" d="M92.7,278c-0.2,0-0.4-0.2-0.4-0.4c0,0,0,0,0,0v-1.2c0-0.2,0.2-0.4,0.4-0.4c0.2,0,0.4,0.2,0.4,0.4v1.2
			C93.1,277.8,92.9,278,92.7,278C92.7,278,92.7,278,92.7,278z"/>
	</g>
	<g>
		<path class="st3" d="M92.7,191.2c-0.2,0-0.4-0.2-0.4-0.4c0,0,0,0,0,0v-1.2c0-0.2,0.2-0.4,0.4-0.4c0.2,0,0.4,0.2,0.4,0.4v1.2
			C93.1,191,92.9,191.2,92.7,191.2C92.7,191.2,92.7,191.2,92.7,191.2z"/>
		<path class="st3" d="M92.7,228.9c-0.2,0-0.4-0.2-0.4-0.4c0,0,0,0,0,0v-2.4c0-0.2,0.2-0.4,0.4-0.4s0.4,0.2,0.4,0.4c0,0,0,0,0,0v2.4
			C93.1,228.7,92.9,228.9,92.7,228.9C92.7,228.9,92.7,228.9,92.7,228.9z M92.7,222.6c-0.2,0-0.4-0.2-0.4-0.4c0,0,0,0,0,0v-2.4
			c0-0.2,0.2-0.4,0.4-0.4c0.2,0,0.4,0.2,0.4,0.4v2.4C93.1,222.4,92.9,222.6,92.7,222.6C92.7,222.6,92.7,222.6,92.7,222.6z
			 M92.7,216.3c-0.2,0-0.4-0.2-0.4-0.4c0,0,0,0,0,0v-2.4c0-0.2,0.2-0.4,0.4-0.4c0.2,0,0.4,0.2,0.4,0.4v2.4
			C93.1,216.1,92.9,216.3,92.7,216.3C92.7,216.3,92.7,216.3,92.7,216.3L92.7,216.3z M92.7,210c-0.2,0-0.4-0.2-0.4-0.4c0,0,0,0,0,0
			v-2.4c0-0.2,0.2-0.4,0.4-0.4c0.2,0,0.4,0.2,0.4,0.4v2.4C93.1,209.9,92.9,210,92.7,210C92.7,210,92.7,210,92.7,210L92.7,210z
			 M92.7,203.7c-0.2,0-0.4-0.2-0.4-0.4c0,0,0,0,0,0V201c0-0.2,0.2-0.4,0.4-0.4c0.2,0,0.4,0.2,0.4,0.4v2.4
			C93.1,203.6,92.9,203.7,92.7,203.7C92.7,203.7,92.7,203.7,92.7,203.7L92.7,203.7z M92.7,197.4c-0.2,0-0.4-0.2-0.4-0.4c0,0,0,0,0,0
			v-2.4c0-0.2,0.2-0.4,0.4-0.4s0.4,0.2,0.4,0.4c0,0,0,0,0,0v2.4C93.1,197.3,92.9,197.4,92.7,197.4C92.7,197.4,92.7,197.4,92.7,197.4
			L92.7,197.4z"/>
		<path class="st3" d="M92.7,234c-0.2,0-0.4-0.2-0.4-0.4c0,0,0,0,0,0v-1.2c0-0.2,0.2-0.4,0.4-0.4s0.4,0.2,0.4,0.4c0,0,0,0,0,0v1.2
			C93.1,233.8,92.9,234,92.7,234C92.7,234,92.7,234,92.7,234z"/>
	</g>
	<g>
		<path class="st3" d="M92.7,1.9c-0.2,0-0.4-0.2-0.4-0.4c0,0,0,0,0,0V0.4c0-0.2,0.2-0.4,0.4-0.4c0.2,0,0.4,0.2,0.4,0.4v1.2
			C93.1,1.8,92.9,1.9,92.7,1.9C92.7,1.9,92.7,1.9,92.7,1.9z"/>
		<path class="st3" d="M92.7,184.9c-0.2,0-0.4-0.2-0.4-0.4c0,0,0,0,0,0v-2.4c0-0.2,0.2-0.4,0.4-0.4c0.2,0,0.4,0.2,0.4,0.4v2.4
			C93.1,184.7,92.9,184.9,92.7,184.9C92.7,184.9,92.7,184.9,92.7,184.9z M92.7,178.6c-0.2,0-0.4-0.2-0.4-0.4c0,0,0,0,0,0v-2.4
			c0-0.2,0.2-0.4,0.4-0.4c0.2,0,0.4,0.2,0.4,0.4v2.4C93.1,178.4,92.9,178.6,92.7,178.6C92.7,178.6,92.7,178.6,92.7,178.6z
			 M92.7,172.3c-0.2,0-0.4-0.2-0.4-0.4c0,0,0,0,0,0v-2.4c0-0.2,0.2-0.4,0.4-0.4c0.2,0,0.4,0.2,0.4,0.4v2.4
			C93.1,172.1,92.9,172.3,92.7,172.3C92.7,172.3,92.7,172.3,92.7,172.3z M92.7,166c-0.2,0-0.4-0.2-0.4-0.4c0,0,0,0,0,0v-2.4
			c0-0.2,0.2-0.4,0.4-0.4c0.2,0,0.4,0.2,0.4,0.4v2.4C93.1,165.8,92.9,166,92.7,166C92.7,166,92.7,166,92.7,166z M92.7,159.6
			c-0.2,0-0.4-0.2-0.4-0.4c0,0,0,0,0,0v-2.4c0-0.2,0.2-0.4,0.4-0.4s0.4,0.2,0.4,0.4c0,0,0,0,0,0v2.4
			C93.1,159.5,92.9,159.6,92.7,159.6C92.7,159.6,92.7,159.6,92.7,159.6z M92.7,153.3c-0.2,0-0.4-0.2-0.4-0.4c0,0,0,0,0,0v-2.4
			c0-0.2,0.2-0.4,0.4-0.4s0.4,0.2,0.4,0.4c0,0,0,0,0,0v2.4C93.1,153.2,92.9,153.3,92.7,153.3C92.7,153.3,92.7,153.3,92.7,153.3z
			 M92.7,147c-0.2,0-0.4-0.2-0.4-0.4c0,0,0,0,0,0v-2.4c0-0.2,0.2-0.4,0.4-0.4c0.2,0,0.4,0.2,0.4,0.4v2.4
			C93.1,146.9,92.9,147,92.7,147C92.7,147,92.7,147,92.7,147z M92.7,140.7c-0.2,0-0.4-0.2-0.4-0.4c0,0,0,0,0,0V138
			c0-0.2,0.2-0.4,0.4-0.4c0.2,0,0.4,0.2,0.4,0.4v2.4C93.1,140.6,92.9,140.7,92.7,140.7C92.7,140.7,92.7,140.7,92.7,140.7z
			 M92.7,134.4c-0.2,0-0.4-0.2-0.4-0.4c0,0,0,0,0,0v-2.4c0-0.2,0.2-0.4,0.4-0.4c0.2,0,0.4,0.2,0.4,0.4v2.4
			C93.1,134.2,92.9,134.4,92.7,134.4C92.7,134.4,92.7,134.4,92.7,134.4L92.7,134.4z M92.7,128.1c-0.2,0-0.4-0.2-0.4-0.4c0,0,0,0,0,0
			v-2.4c0-0.2,0.2-0.4,0.4-0.4c0.2,0,0.4,0.2,0.4,0.4v2.4C93.1,127.9,92.9,128.1,92.7,128.1C92.7,128.1,92.7,128.1,92.7,128.1
			L92.7,128.1z M92.7,121.8c-0.2,0-0.4-0.2-0.4-0.4c0,0,0,0,0,0V119c0-0.2,0.2-0.4,0.4-0.4c0.2,0,0.4,0.2,0.4,0.4v2.4
			C93.1,121.6,92.9,121.8,92.7,121.8C92.7,121.8,92.7,121.8,92.7,121.8z M92.7,115.5c-0.2,0-0.4-0.2-0.4-0.4c0,0,0,0,0,0v-2.4
			c0-0.2,0.2-0.4,0.4-0.4c0.2,0,0.4,0.2,0.4,0.4v2.4C93.1,115.3,92.9,115.5,92.7,115.5C92.7,115.5,92.7,115.5,92.7,115.5z
			 M92.7,109.2c-0.2,0-0.4-0.2-0.4-0.4c0,0,0,0,0,0v-2.4c0-0.2,0.2-0.4,0.4-0.4c0.2,0,0.4,0.2,0.4,0.4c0,0,0,0,0,0v2.4
			C93.1,109,92.9,109.2,92.7,109.2C92.7,109.2,92.7,109.2,92.7,109.2z M92.7,102.9c-0.2,0-0.4-0.2-0.4-0.4c0,0,0,0,0,0v-2.4
			c0-0.2,0.2-0.4,0.4-0.4c0.2,0,0.4,0.2,0.4,0.4c0,0,0,0,0,0v2.4C93.1,102.7,92.9,102.9,92.7,102.9
			C92.7,102.9,92.7,102.9,92.7,102.9L92.7,102.9z M92.7,96.6c-0.2,0-0.4-0.2-0.4-0.4c0,0,0,0,0,0v-2.4c0-0.2,0.2-0.4,0.4-0.4
			c0.2,0,0.4,0.2,0.4,0.4v2.4C93.1,96.4,92.9,96.6,92.7,96.6C92.7,96.6,92.7,96.6,92.7,96.6z M92.7,90.3c-0.2,0-0.4-0.2-0.4-0.4
			c0,0,0,0,0,0v-2.4c0-0.2,0.2-0.4,0.4-0.4c0.2,0,0.4,0.2,0.4,0.4v2.4C93.1,90.1,92.9,90.3,92.7,90.3C92.7,90.3,92.7,90.3,92.7,90.3
			z M92.7,84c-0.2,0-0.4-0.2-0.4-0.4c0,0,0,0,0,0v-2.4c0-0.2,0.2-0.4,0.4-0.4c0.2,0,0.4,0.2,0.4,0.4v2.4C93.1,83.8,92.9,84,92.7,84
			C92.7,84,92.7,84,92.7,84z M92.7,77.6c-0.2,0-0.4-0.2-0.4-0.4c0,0,0,0,0,0v-2.4c0-0.2,0.2-0.4,0.4-0.4c0.2,0,0.4,0.2,0.4,0.4v2.4
			C93.1,77.5,92.9,77.6,92.7,77.6C92.7,77.6,92.7,77.6,92.7,77.6z M92.7,71.3c-0.2,0-0.4-0.2-0.4-0.4c0,0,0,0,0,0v-2.4
			c0-0.2,0.2-0.4,0.4-0.4c0.2,0,0.4,0.2,0.4,0.4v2.4C93.1,71.2,92.9,71.3,92.7,71.3C92.7,71.3,92.7,71.3,92.7,71.3z M92.7,65
			c-0.2,0-0.4-0.2-0.4-0.4c0,0,0,0,0,0v-2.4c0-0.2,0.2-0.4,0.4-0.4c0.2,0,0.4,0.2,0.4,0.4v2.4C93.1,64.9,92.9,65,92.7,65
			C92.7,65,92.7,65,92.7,65z M92.7,58.7c-0.2,0-0.4-0.2-0.4-0.4c0,0,0,0,0,0V56c0-0.2,0.2-0.4,0.4-0.4s0.4,0.2,0.4,0.4c0,0,0,0,0,0
			v2.4C93.1,58.5,92.9,58.7,92.7,58.7C92.7,58.7,92.7,58.7,92.7,58.7z M92.7,52.4c-0.2,0-0.4-0.2-0.4-0.4c0,0,0,0,0,0v-2.4
			c0-0.2,0.2-0.4,0.4-0.4s0.4,0.2,0.4,0.4c0,0,0,0,0,0V52C93.1,52.2,92.9,52.4,92.7,52.4C92.7,52.4,92.7,52.4,92.7,52.4z M92.7,46.1
			c-0.2,0-0.4-0.2-0.4-0.4c0,0,0,0,0,0v-2.4c0-0.2,0.2-0.4,0.4-0.4c0.2,0,0.4,0.2,0.4,0.4v2.4C93.1,45.9,92.9,46.1,92.7,46.1
			C92.7,46.1,92.7,46.1,92.7,46.1z M92.7,39.8c-0.2,0-0.4-0.2-0.4-0.4c0,0,0,0,0,0V37c0-0.2,0.2-0.4,0.4-0.4c0.2,0,0.4,0.2,0.4,0.4
			v2.4C93.1,39.6,92.9,39.8,92.7,39.8C92.7,39.8,92.7,39.8,92.7,39.8z M92.7,33.5c-0.2,0-0.4-0.2-0.4-0.4c0,0,0,0,0,0v-2.4
			c0-0.2,0.2-0.4,0.4-0.4c0.2,0,0.4,0.2,0.4,0.4v2.4C93.1,33.3,92.9,33.5,92.7,33.5C92.7,33.5,92.7,33.5,92.7,33.5z M92.7,27.2
			c-0.2,0-0.4-0.2-0.4-0.4c0,0,0,0,0,0v-2.4c0-0.2,0.2-0.4,0.4-0.4c0.2,0,0.4,0.2,0.4,0.4v2.4C93.1,27,92.9,27.2,92.7,27.2
			C92.7,27.2,92.7,27.2,92.7,27.2z M92.7,20.9c-0.2,0-0.4-0.2-0.4-0.4c0,0,0,0,0,0v-2.4c0-0.2,0.2-0.4,0.4-0.4
			c0.2,0,0.4,0.2,0.4,0.4v2.4C93.1,20.7,92.9,20.9,92.7,20.9C92.7,20.9,92.7,20.9,92.7,20.9z M92.7,14.6c-0.2,0-0.4-0.2-0.4-0.4
			c0,0,0,0,0,0v-2.4c0-0.2,0.2-0.4,0.4-0.4c0.2,0,0.4,0.2,0.4,0.4v2.4C93.1,14.4,92.9,14.6,92.7,14.6C92.7,14.6,92.7,14.6,92.7,14.6
			z M92.7,8.3c-0.2,0-0.4-0.2-0.4-0.4c0,0,0,0,0,0V5.5c0-0.2,0.2-0.4,0.4-0.4s0.4,0.2,0.4,0.4c0,0,0,0,0,0v2.4
			C93.1,8.1,92.9,8.3,92.7,8.3C92.7,8.3,92.7,8.3,92.7,8.3z"/>
		<path class="st3" d="M92.7,190c-0.2,0-0.4-0.2-0.4-0.4c0,0,0,0,0,0v-1.2c0-0.2,0.2-0.4,0.4-0.4c0.2,0,0.4,0.2,0.4,0.4v1.2
			C93.1,189.8,92.9,190,92.7,190C92.7,190,92.7,190,92.7,190z"/>
	</g>
	<g>
		<path class="st3" d="M137,235.2c-0.2,0-0.4-0.2-0.4-0.4c0,0,0,0,0,0v-1.2c0-0.2,0.2-0.4,0.4-0.4c0.2,0,0.4,0.2,0.4,0.4v1.2
			C137.4,235,137.2,235.2,137,235.2C137,235.2,137,235.2,137,235.2z"/>
		<path class="st3" d="M137,272.9c-0.2,0-0.4-0.2-0.4-0.4c0,0,0,0,0,0v-2.4c0-0.2,0.2-0.4,0.4-0.4c0.2,0,0.4,0.2,0.4,0.4v2.4
			C137.4,272.7,137.2,272.9,137,272.9C137,272.9,137,272.9,137,272.9z M137,266.6c-0.2,0-0.4-0.2-0.4-0.4c0,0,0,0,0,0v-2.4
			c0-0.2,0.2-0.4,0.4-0.4c0.2,0,0.4,0.2,0.4,0.4v2.4C137.4,266.4,137.2,266.6,137,266.6C137,266.6,137,266.6,137,266.6z M137,260.3
			c-0.2,0-0.4-0.2-0.4-0.4c0,0,0,0,0,0v-2.4c0-0.2,0.2-0.4,0.4-0.4c0.2,0,0.4,0.2,0.4,0.4v2.4C137.4,260.1,137.2,260.3,137,260.3
			C137,260.3,137,260.3,137,260.3z M137,254c-0.2,0-0.4-0.2-0.4-0.4c0,0,0,0,0,0v-2.4c0-0.2,0.2-0.4,0.4-0.4s0.4,0.2,0.4,0.4
			c0,0,0,0,0,0v2.4C137.4,253.9,137.2,254,137,254C137,254,137,254,137,254z M137,247.7c-0.2,0-0.4-0.2-0.4-0.4c0,0,0,0,0,0V245
			c0-0.2,0.2-0.4,0.4-0.4s0.4,0.2,0.4,0.4c0,0,0,0,0,0v2.4C137.4,247.6,137.2,247.7,137,247.7C137,247.7,137,247.7,137,247.7z
			 M137,241.5c-0.2,0-0.4-0.2-0.4-0.4c0,0,0,0,0,0v-2.4c0-0.2,0.2-0.4,0.4-0.4c0.2,0,0.4,0.2,0.4,0.4v2.4
			C137.4,241.3,137.2,241.5,137,241.5C137,241.5,137,241.5,137,241.5z"/>
		<path class="st3" d="M137,278c-0.2,0-0.4-0.2-0.4-0.4c0,0,0,0,0,0v-1.2c0-0.2,0.2-0.4,0.4-0.4c0.2,0,0.4,0.2,0.4,0.4v1.2
			C137.4,277.8,137.2,278,137,278C137,278,137,278,137,278z"/>
	</g>
	<g>
		<path class="st3" d="M137,191.2c-0.2,0-0.4-0.2-0.4-0.4c0,0,0,0,0,0v-1.2c0-0.2,0.2-0.4,0.4-0.4c0.2,0,0.4,0.2,0.4,0.4v1.2
			C137.4,191,137.2,191.2,137,191.2C137,191.2,137,191.2,137,191.2z"/>
		<path class="st3" d="M137,228.9c-0.2,0-0.4-0.2-0.4-0.4c0,0,0,0,0,0v-2.4c0-0.2,0.2-0.4,0.4-0.4s0.4,0.2,0.4,0.4c0,0,0,0,0,0v2.4
			C137.4,228.7,137.2,228.9,137,228.9C137,228.9,137,228.9,137,228.9z M137,222.6c-0.2,0-0.4-0.2-0.4-0.4c0,0,0,0,0,0v-2.4
			c0-0.2,0.2-0.4,0.4-0.4c0.2,0,0.4,0.2,0.4,0.4v2.4C137.4,222.4,137.2,222.6,137,222.6C137,222.6,137,222.6,137,222.6z M137,216.3
			c-0.2,0-0.4-0.2-0.4-0.4c0,0,0,0,0,0v-2.4c0-0.2,0.2-0.4,0.4-0.4c0.2,0,0.4,0.2,0.4,0.4v2.4C137.4,216.1,137.2,216.3,137,216.3
			C137,216.3,137,216.3,137,216.3L137,216.3z M137,210c-0.2,0-0.4-0.2-0.4-0.4c0,0,0,0,0,0v-2.4c0-0.2,0.2-0.4,0.4-0.4
			c0.2,0,0.4,0.2,0.4,0.4v2.4C137.4,209.9,137.2,210,137,210C137,210,137,210,137,210L137,210z M137,203.7c-0.2,0-0.4-0.2-0.4-0.4
			c0,0,0,0,0,0V201c0-0.2,0.2-0.4,0.4-0.4c0.2,0,0.4,0.2,0.4,0.4v2.4C137.4,203.6,137.2,203.7,137,203.7
			C137,203.7,137,203.7,137,203.7L137,203.7z M137,197.4c-0.2,0-0.4-0.2-0.4-0.4c0,0,0,0,0,0v-2.4c0-0.2,0.2-0.4,0.4-0.4
			s0.4,0.2,0.4,0.4c0,0,0,0,0,0v2.4C137.4,197.3,137.2,197.4,137,197.4C137,197.4,137,197.4,137,197.4L137,197.4z"/>
		<path class="st3" d="M137,234c-0.2,0-0.4-0.2-0.4-0.4c0,0,0,0,0,0v-1.2c0-0.2,0.2-0.4,0.4-0.4s0.4,0.2,0.4,0.4c0,0,0,0,0,0v1.2
			C137.4,233.8,137.2,234,137,234C137,234,137,234,137,234z"/>
	</g>
	<g>
		<path class="st3" d="M137,1.9c-0.2,0-0.4-0.2-0.4-0.4c0,0,0,0,0,0V0.4c0-0.2,0.2-0.4,0.4-0.4c0.2,0,0.4,0.2,0.4,0.4v1.2
			C137.4,1.8,137.2,1.9,137,1.9C137,1.9,137,1.9,137,1.9z"/>
		<path class="st3" d="M137,184.9c-0.2,0-0.4-0.2-0.4-0.4c0,0,0,0,0,0v-2.4c0-0.2,0.2-0.4,0.4-0.4c0.2,0,0.4,0.2,0.4,0.4v2.4
			C137.4,184.7,137.2,184.9,137,184.9C137,184.9,137,184.9,137,184.9z M137,178.6c-0.2,0-0.4-0.2-0.4-0.4c0,0,0,0,0,0v-2.4
			c0-0.2,0.2-0.4,0.4-0.4c0.2,0,0.4,0.2,0.4,0.4v2.4C137.4,178.4,137.2,178.6,137,178.6C137,178.6,137,178.6,137,178.6z M137,172.3
			c-0.2,0-0.4-0.2-0.4-0.4c0,0,0,0,0,0v-2.4c0-0.2,0.2-0.4,0.4-0.4c0.2,0,0.4,0.2,0.4,0.4v2.4C137.4,172.1,137.2,172.3,137,172.3
			C137,172.3,137,172.3,137,172.3z M137,166c-0.2,0-0.4-0.2-0.4-0.4c0,0,0,0,0,0v-2.4c0-0.2,0.2-0.4,0.4-0.4c0.2,0,0.4,0.2,0.4,0.4
			v2.4C137.4,165.8,137.2,166,137,166C137,166,137,166,137,166z M137,159.6c-0.2,0-0.4-0.2-0.4-0.4c0,0,0,0,0,0v-2.4
			c0-0.2,0.2-0.4,0.4-0.4s0.4,0.2,0.4,0.4c0,0,0,0,0,0v2.4C137.4,159.5,137.2,159.6,137,159.6C137,159.6,137,159.6,137,159.6z
			 M137,153.3c-0.2,0-0.4-0.2-0.4-0.4c0,0,0,0,0,0v-2.4c0-0.2,0.2-0.4,0.4-0.4s0.4,0.2,0.4,0.4c0,0,0,0,0,0v2.4
			C137.4,153.2,137.2,153.3,137,153.3C137,153.3,137,153.3,137,153.3z M137,147c-0.2,0-0.4-0.2-0.4-0.4c0,0,0,0,0,0v-2.4
			c0-0.2,0.2-0.4,0.4-0.4c0.2,0,0.4,0.2,0.4,0.4v2.4C137.4,146.9,137.2,147,137,147C137,147,137,147,137,147z M137,140.7
			c-0.2,0-0.4-0.2-0.4-0.4c0,0,0,0,0,0V138c0-0.2,0.2-0.4,0.4-0.4c0.2,0,0.4,0.2,0.4,0.4v2.4C137.4,140.6,137.2,140.7,137,140.7
			C137,140.7,137,140.7,137,140.7z M137,134.4c-0.2,0-0.4-0.2-0.4-0.4c0,0,0,0,0,0v-2.4c0-0.2,0.2-0.4,0.4-0.4
			c0.2,0,0.4,0.2,0.4,0.4v2.4C137.4,134.2,137.2,134.4,137,134.4C137,134.4,137,134.4,137,134.4L137,134.4z M137,128.1
			c-0.2,0-0.4-0.2-0.4-0.4c0,0,0,0,0,0v-2.4c0-0.2,0.2-0.4,0.4-0.4c0.2,0,0.4,0.2,0.4,0.4v2.4C137.4,127.9,137.2,128.1,137,128.1
			C137,128.1,137,128.1,137,128.1L137,128.1z M137,121.8c-0.2,0-0.4-0.2-0.4-0.4c0,0,0,0,0,0V119c0-0.2,0.2-0.4,0.4-0.4
			c0.2,0,0.4,0.2,0.4,0.4v2.4C137.4,121.6,137.2,121.8,137,121.8C137,121.8,137,121.8,137,121.8z M137,115.5c-0.2,0-0.4-0.2-0.4-0.4
			c0,0,0,0,0,0v-2.4c0-0.2,0.2-0.4,0.4-0.4c0.2,0,0.4,0.2,0.4,0.4v2.4C137.4,115.3,137.2,115.5,137,115.5
			C137,115.5,137,115.5,137,115.5z M137,109.2c-0.2,0-0.4-0.2-0.4-0.4c0,0,0,0,0,0v-2.4c0-0.2,0.2-0.4,0.4-0.4
			c0.2,0,0.4,0.2,0.4,0.4c0,0,0,0,0,0v2.4C137.4,109,137.2,109.2,137,109.2C137,109.2,137,109.2,137,109.2z M137,102.9
			c-0.2,0-0.4-0.2-0.4-0.4c0,0,0,0,0,0v-2.4c0-0.2,0.2-0.4,0.4-0.4c0.2,0,0.4,0.2,0.4,0.4c0,0,0,0,0,0v2.4
			C137.4,102.7,137.2,102.9,137,102.9C137,102.9,137,102.9,137,102.9L137,102.9z M137,96.6c-0.2,0-0.4-0.2-0.4-0.4c0,0,0,0,0,0v-2.4
			c0-0.2,0.2-0.4,0.4-0.4c0.2,0,0.4,0.2,0.4,0.4v2.4C137.4,96.4,137.2,96.6,137,96.6C137,96.6,137,96.6,137,96.6z M137,90.3
			c-0.2,0-0.4-0.2-0.4-0.4c0,0,0,0,0,0v-2.4c0-0.2,0.2-0.4,0.4-0.4c0.2,0,0.4,0.2,0.4,0.4v2.4C137.4,90.1,137.2,90.3,137,90.3
			C137,90.3,137,90.3,137,90.3z M137,84c-0.2,0-0.4-0.2-0.4-0.4c0,0,0,0,0,0v-2.4c0-0.2,0.2-0.4,0.4-0.4c0.2,0,0.4,0.2,0.4,0.4v2.4
			C137.4,83.8,137.2,84,137,84C137,84,137,84,137,84z M137,77.6c-0.2,0-0.4-0.2-0.4-0.4c0,0,0,0,0,0v-2.4c0-0.2,0.2-0.4,0.4-0.4
			c0.2,0,0.4,0.2,0.4,0.4v2.4C137.4,77.5,137.2,77.6,137,77.6C137,77.6,137,77.6,137,77.6z M137,71.3c-0.2,0-0.4-0.2-0.4-0.4
			c0,0,0,0,0,0v-2.4c0-0.2,0.2-0.4,0.4-0.4c0.2,0,0.4,0.2,0.4,0.4v2.4C137.4,71.2,137.2,71.3,137,71.3C137,71.3,137,71.3,137,71.3z
			 M137,65c-0.2,0-0.4-0.2-0.4-0.4c0,0,0,0,0,0v-2.4c0-0.2,0.2-0.4,0.4-0.4c0.2,0,0.4,0.2,0.4,0.4v2.4C137.4,64.9,137.2,65,137,65
			C137,65,137,65,137,65z M137,58.7c-0.2,0-0.4-0.2-0.4-0.4c0,0,0,0,0,0V56c0-0.2,0.2-0.4,0.4-0.4s0.4,0.2,0.4,0.4c0,0,0,0,0,0v2.4
			C137.4,58.5,137.2,58.7,137,58.7C137,58.7,137,58.7,137,58.7z M137,52.4c-0.2,0-0.4-0.2-0.4-0.4c0,0,0,0,0,0v-2.4
			c0-0.2,0.2-0.4,0.4-0.4s0.4,0.2,0.4,0.4c0,0,0,0,0,0V52C137.4,52.2,137.2,52.4,137,52.4C137,52.4,137,52.4,137,52.4z M137,46.1
			c-0.2,0-0.4-0.2-0.4-0.4c0,0,0,0,0,0v-2.4c0-0.2,0.2-0.4,0.4-0.4c0.2,0,0.4,0.2,0.4,0.4v2.4C137.4,45.9,137.2,46.1,137,46.1
			C137,46.1,137,46.1,137,46.1z M137,39.8c-0.2,0-0.4-0.2-0.4-0.4c0,0,0,0,0,0V37c0-0.2,0.2-0.4,0.4-0.4c0.2,0,0.4,0.2,0.4,0.4v2.4
			C137.4,39.6,137.2,39.8,137,39.8C137,39.8,137,39.8,137,39.8z M137,33.5c-0.2,0-0.4-0.2-0.4-0.4c0,0,0,0,0,0v-2.4
			c0-0.2,0.2-0.4,0.4-0.4c0.2,0,0.4,0.2,0.4,0.4v2.4C137.4,33.3,137.2,33.5,137,33.5C137,33.5,137,33.5,137,33.5z M137,27.2
			c-0.2,0-0.4-0.2-0.4-0.4c0,0,0,0,0,0v-2.4c0-0.2,0.2-0.4,0.4-0.4c0.2,0,0.4,0.2,0.4,0.4v2.4C137.4,27,137.2,27.2,137,27.2
			C137,27.2,137,27.2,137,27.2z M137,20.9c-0.2,0-0.4-0.2-0.4-0.4c0,0,0,0,0,0v-2.4c0-0.2,0.2-0.4,0.4-0.4c0.2,0,0.4,0.2,0.4,0.4
			v2.4C137.4,20.7,137.2,20.9,137,20.9C137,20.9,137,20.9,137,20.9z M137,14.6c-0.2,0-0.4-0.2-0.4-0.4c0,0,0,0,0,0v-2.4
			c0-0.2,0.2-0.4,0.4-0.4c0.2,0,0.4,0.2,0.4,0.4v2.4C137.4,14.4,137.2,14.6,137,14.6C137,14.6,137,14.6,137,14.6z M137,8.3
			c-0.2,0-0.4-0.2-0.4-0.4c0,0,0,0,0,0V5.5c0-0.2,0.2-0.4,0.4-0.4s0.4,0.2,0.4,0.4c0,0,0,0,0,0v2.4C137.4,8.1,137.2,8.3,137,8.3
			C137,8.3,137,8.3,137,8.3z"/>
		<path class="st3" d="M137,190c-0.2,0-0.4-0.2-0.4-0.4c0,0,0,0,0,0v-1.2c0-0.2,0.2-0.4,0.4-0.4c0.2,0,0.4,0.2,0.4,0.4v1.2
			C137.4,189.8,137.2,190,137,190C137,190,137,190,137,190z"/>
	</g>
	<g>
		<path class="st3" d="M92.7,190h-1.2c-0.2,0-0.4-0.2-0.4-0.4c0-0.2,0.2-0.4,0.4-0.4h1.2c0.2,0,0.4,0.2,0.4,0.4
			C93.1,189.8,93,190,92.7,190C92.7,190,92.7,190,92.7,190z"/>
		<path class="st3" d="M87.7,190h-2.3c-0.2,0-0.4-0.2-0.4-0.4c0-0.2,0.2-0.4,0.4-0.4c0,0,0,0,0,0h2.3c0.2,0,0.4,0.2,0.4,0.4
			C88.1,189.8,87.9,190,87.7,190C87.7,190,87.7,190,87.7,190z M81.6,190h-2.3c-0.2,0-0.4-0.2-0.4-0.4c0-0.2,0.2-0.4,0.4-0.4h2.3
			c0.2,0,0.4,0.2,0.4,0.4C82,189.8,81.8,190,81.6,190C81.6,190,81.6,190,81.6,190z M75.4,190h-2.3c-0.2,0-0.4-0.2-0.4-0.4
			c0-0.2,0.2-0.4,0.4-0.4c0,0,0,0,0,0h2.3c0.2,0,0.4,0.2,0.4,0.4C75.8,189.8,75.6,190,75.4,190C75.4,190,75.4,190,75.4,190L75.4,190
			z M69.3,190H67c-0.2,0-0.4-0.2-0.4-0.4c0-0.2,0.2-0.4,0.4-0.4c0,0,0,0,0,0h2.3c0.2,0,0.4,0.2,0.4,0.4
			C69.7,189.8,69.5,190,69.3,190C69.3,190,69.3,190,69.3,190L69.3,190z M63.1,190h-2.3c-0.2,0-0.4-0.2-0.4-0.4
			c0-0.2,0.2-0.4,0.4-0.4h2.3c0.2,0,0.4,0.2,0.4,0.4C63.5,189.8,63.3,190,63.1,190z M56.9,190h-2.3c-0.2,0-0.4-0.2-0.4-0.4
			c0-0.2,0.2-0.4,0.4-0.4c0,0,0,0,0,0h2.3c0.2,0,0.4,0.2,0.4,0.4C57.3,189.8,57.2,190,56.9,190C57,190,57,190,56.9,190L56.9,190z
			 M50.8,190h-2.3c-0.2,0-0.4-0.2-0.4-0.4c0-0.2,0.2-0.4,0.4-0.4h2.3c0.2,0,0.4,0.2,0.4,0.4C51.2,189.8,51,190,50.8,190
			C50.8,190,50.8,190,50.8,190L50.8,190z M44.6,190h-2.3c-0.2,0-0.4-0.2-0.4-0.4c0-0.2,0.2-0.4,0.4-0.4h2.3c0.2,0,0.4,0.2,0.4,0.4
			C45,189.8,44.9,190,44.6,190C44.6,190,44.6,190,44.6,190z M38.5,190h-2.3c-0.2,0-0.4-0.2-0.4-0.4c0-0.2,0.2-0.4,0.4-0.4h2.3
			c0.2,0,0.4,0.2,0.4,0.4C38.9,189.8,38.7,190,38.5,190L38.5,190z M32.3,190H30c-0.2,0-0.4-0.2-0.4-0.4c0-0.2,0.2-0.4,0.4-0.4h2.3
			c0.2,0,0.4,0.2,0.4,0.4C32.7,189.8,32.5,190,32.3,190L32.3,190z M26.2,190h-2.3c-0.2,0-0.4-0.2-0.4-0.4c0-0.2,0.2-0.4,0.4-0.4
			c0,0,0,0,0,0h2.3c0.2,0,0.4,0.2,0.4,0.4C26.6,189.8,26.4,190,26.2,190z M20,190h-2.3c-0.2,0-0.4-0.2-0.4-0.4
			c0-0.2,0.2-0.4,0.4-0.4H20c0.2,0,0.4,0.2,0.4,0.4C20.4,189.8,20.2,190,20,190C20,190,20,190,20,190z M13.9,190h-2.3
			c-0.2,0-0.4-0.2-0.4-0.4c0-0.2,0.2-0.4,0.4-0.4h2.3c0.2,0,0.4,0.2,0.4,0.4C14.3,189.8,14.1,190,13.9,190
			C13.9,190,13.9,190,13.9,190z M7.7,190H5.4c-0.2,0-0.4-0.2-0.4-0.4c0-0.2,0.2-0.4,0.4-0.4c0,0,0,0,0,0h2.3c0.2,0,0.4,0.2,0.4,0.4
			C8.1,189.8,7.9,190,7.7,190C7.7,190,7.7,190,7.7,190L7.7,190z"/>
		<path class="st3" d="M1.6,190H0.4c-0.2,0-0.4-0.2-0.4-0.4c0-0.2,0.2-0.4,0.4-0.4h1.2c0.2,0,0.4,0.2,0.4,0.4
			C1.9,189.8,1.8,190,1.6,190C1.6,190,1.6,190,1.6,190z"/>
	</g>
	<g>
		<path class="st3" d="M137,190h-1.2c-0.2,0-0.4-0.2-0.4-0.4c0-0.2,0.2-0.4,0.4-0.4c0,0,0,0,0,0h1.2c0.2,0,0.4,0.2,0.4,0.4
			C137.4,189.8,137.2,190,137,190C137,190,137,190,137,190z"/>
		<path class="st3" d="M131.9,190h-2.4c-0.2,0-0.4-0.2-0.4-0.4c0-0.2,0.2-0.4,0.4-0.4h2.4c0.2,0,0.4,0.2,0.4,0.4
			C132.2,189.8,132.1,190,131.9,190C131.9,190,131.9,190,131.9,190z M125.5,190h-2.4c-0.2,0-0.4-0.2-0.4-0.4c0-0.2,0.2-0.4,0.4-0.4
			c0,0,0,0,0,0h2.4c0.2,0,0.4,0.2,0.4,0.4C125.9,189.8,125.7,190,125.5,190C125.5,190,125.5,190,125.5,190z M119.2,190h-2.4
			c-0.2,0-0.4-0.2-0.4-0.4c0-0.2,0.2-0.4,0.4-0.4h2.4c0.2,0,0.4,0.2,0.4,0.4C119.6,189.8,119.4,190,119.2,190
			C119.2,190,119.2,190,119.2,190z M112.9,190h-2.4c-0.2,0-0.4-0.2-0.4-0.4c0-0.2,0.2-0.4,0.4-0.4c0,0,0,0,0,0h2.4
			c0.2,0,0.4,0.2,0.4,0.4C113.3,189.8,113.1,190,112.9,190C112.9,190,112.9,190,112.9,190z M106.6,190h-2.4c-0.2,0-0.4-0.2-0.4-0.4
			c0-0.2,0.2-0.4,0.4-0.4h2.4c0.2,0,0.4,0.2,0.4,0.4C106.9,189.8,106.8,190,106.6,190C106.6,190,106.6,190,106.6,190z M100.2,190
			h-2.4c-0.2,0-0.4-0.2-0.4-0.4c0-0.2,0.2-0.4,0.4-0.4h2.4c0.2,0,0.4,0.2,0.4,0.4C100.6,189.8,100.4,190,100.2,190
			C100.2,190,100.2,190,100.2,190z"/>
		<path class="st3" d="M93.9,190h-1.2c-0.2,0-0.4-0.2-0.4-0.4c0-0.2,0.2-0.4,0.4-0.4h1.2c0.2,0,0.4,0.2,0.4,0.4
			C94.3,189.8,94.1,190,93.9,190C93.9,190,93.9,190,93.9,190z"/>
	</g>
	<g>
		<path class="st3" d="M378.9,190h-1.2c-0.2,0-0.4-0.2-0.4-0.4c0-0.2,0.2-0.4,0.4-0.4h1.2c0.2,0,0.4,0.2,0.4,0.4
			C379.3,189.8,379.1,190,378.9,190z"/>
		<path class="st3" d="M373.9,190h-2.3c-0.2,0-0.4-0.2-0.4-0.4c0-0.2,0.2-0.4,0.4-0.4c0,0,0,0,0,0h2.3c0.2,0,0.4,0.2,0.4,0.4
			C374.3,189.8,374.1,190,373.9,190C373.9,190,373.9,190,373.9,190z M367.7,190h-2.3c-0.2,0-0.4-0.2-0.4-0.4c0-0.2,0.2-0.4,0.4-0.4
			h2.3c0.2,0,0.4,0.2,0.4,0.4C368.1,189.8,367.9,190,367.7,190C367.7,190,367.7,190,367.7,190L367.7,190z M361.5,190h-2.3
			c-0.2,0-0.4-0.2-0.4-0.4c0-0.2,0.2-0.4,0.4-0.4h2.3c0.2,0,0.4,0.2,0.4,0.4C361.9,189.8,361.7,190,361.5,190z M355.3,190h-2.3
			c-0.2,0-0.4-0.2-0.4-0.4c0-0.2,0.2-0.4,0.4-0.4h2.3c0.2,0,0.4,0.2,0.4,0.4C355.7,189.8,355.5,190,355.3,190z M349.1,190h-2.3
			c-0.2,0-0.4-0.2-0.4-0.4c0-0.2,0.2-0.4,0.4-0.4c0,0,0,0,0,0h2.3c0.2,0,0.4,0.2,0.4,0.4C349.5,189.8,349.3,190,349.1,190
			C349.1,190,349.1,190,349.1,190L349.1,190z M342.9,190h-2.3c-0.2,0-0.4-0.2-0.4-0.4c0-0.2,0.2-0.4,0.4-0.4h2.3
			c0.2,0,0.4,0.2,0.4,0.4C343.2,189.8,343.1,190,342.9,190z M336.7,190h-2.3c-0.2,0-0.4-0.2-0.4-0.4c0-0.2,0.2-0.4,0.4-0.4
			c0,0,0,0,0,0h2.3c0.2,0,0.4,0.2,0.4,0.4C337,189.8,336.9,190,336.7,190L336.7,190z M330.5,190h-2.3c-0.2,0-0.4-0.2-0.4-0.4
			c0-0.2,0.2-0.4,0.4-0.4h2.3c0.2,0,0.4,0.2,0.4,0.4C330.8,189.8,330.7,190,330.5,190C330.5,190,330.5,190,330.5,190z M324.3,190
			h-2.3c-0.2,0-0.4-0.2-0.4-0.4c0-0.2,0.2-0.4,0.4-0.4c0,0,0,0,0,0h2.3c0.2,0,0.4,0.2,0.4,0.4C324.6,189.8,324.5,190,324.3,190
			C324.3,190,324.3,190,324.3,190z M318,190h-2.3c-0.2,0-0.4-0.2-0.4-0.4c0-0.2,0.2-0.4,0.4-0.4h2.3c0.2,0,0.4,0.2,0.4,0.4
			C318.4,189.8,318.3,190,318,190z M311.8,190h-2.3c-0.2,0-0.4-0.2-0.4-0.4c0-0.2,0.2-0.4,0.4-0.4c0,0,0,0,0,0h2.3
			c0.2,0,0.4,0.2,0.4,0.4C312.2,189.8,312.1,190,311.8,190C311.8,190,311.8,190,311.8,190z M305.6,190h-2.3c-0.2,0-0.4-0.2-0.4-0.4
			c0-0.2,0.2-0.4,0.4-0.4c0,0,0,0,0,0h2.3c0.2,0,0.4,0.2,0.4,0.4C306,189.8,305.9,190,305.6,190z M299.4,190h-2.3
			c-0.2,0-0.4-0.2-0.4-0.4c0-0.2,0.2-0.4,0.4-0.4h2.3c0.2,0,0.4,0.2,0.4,0.4C299.8,189.8,299.7,190,299.4,190
			C299.4,190,299.4,190,299.4,190z M293.2,190h-2.3c-0.2,0-0.4-0.2-0.4-0.4c0-0.2,0.2-0.4,0.4-0.4c0,0,0,0,0,0h2.3
			c0.2,0,0.4,0.2,0.4,0.4C293.6,189.8,293.4,190,293.2,190C293.2,190,293.2,190,293.2,190z M287,190h-2.3c-0.2,0-0.4-0.2-0.4-0.4
			c0-0.2,0.2-0.4,0.4-0.4h2.3c0.2,0,0.4,0.2,0.4,0.4C287.4,189.8,287.2,190,287,190C287,190,287,190,287,190z M280.8,190h-2.3
			c-0.2,0-0.4-0.2-0.4-0.4c0-0.2,0.2-0.4,0.4-0.4c0,0,0,0,0,0h2.3c0.2,0,0.4,0.2,0.4,0.4C281.2,189.8,281,190,280.8,190
			C280.8,190,280.8,190,280.8,190z M274.6,190h-2.3c-0.2,0-0.4-0.2-0.4-0.4c0-0.2,0.2-0.4,0.4-0.4c0,0,0,0,0,0h2.3
			c0.2,0,0.4,0.2,0.4,0.4C275,189.8,274.8,190,274.6,190C274.6,190,274.6,190,274.6,190z M268.4,190h-2.3c-0.2,0-0.4-0.2-0.4-0.4
			c0-0.2,0.2-0.4,0.4-0.4c0,0,0,0,0,0h2.3c0.2,0,0.4,0.2,0.4,0.4C268.8,189.8,268.6,190,268.4,190C268.4,190,268.4,190,268.4,190
			L268.4,190z M262.2,190h-2.3c-0.2,0-0.4-0.2-0.4-0.4c0-0.2,0.2-0.4,0.4-0.4c0,0,0,0,0,0h2.3c0.2,0,0.4,0.2,0.4,0.4
			C262.6,189.8,262.4,190,262.2,190C262.2,190,262.2,190,262.2,190z M256,190h-2.3c-0.2,0-0.4-0.2-0.4-0.4c0-0.2,0.2-0.4,0.4-0.4
			c0,0,0,0,0,0h2.3c0.2,0,0.4,0.2,0.4,0.4C256.4,189.8,256.2,190,256,190C256,190,256,190,256,190L256,190z M249.8,190h-2.3
			c-0.2,0-0.4-0.2-0.4-0.4c0-0.2,0.2-0.4,0.4-0.4c0,0,0,0,0,0h2.3c0.2,0,0.4,0.2,0.4,0.4C250.2,189.8,250,190,249.8,190
			C249.8,190,249.8,190,249.8,190z M243.6,190h-2.3c-0.2,0-0.4-0.2-0.4-0.4c0-0.2,0.2-0.4,0.4-0.4h2.3c0.2,0,0.4,0.2,0.4,0.4
			C244,189.8,243.8,190,243.6,190C243.6,190,243.6,190,243.6,190z M237.4,190h-2.3c-0.2,0-0.4-0.2-0.4-0.4c0-0.2,0.2-0.4,0.4-0.4
			c0,0,0,0,0,0h2.3c0.2,0,0.4,0.2,0.4,0.4C237.8,189.8,237.6,190,237.4,190C237.4,190,237.4,190,237.4,190z M231.2,190h-2.3
			c-0.2,0-0.4-0.2-0.4-0.4c0-0.2,0.2-0.4,0.4-0.4h2.3c0.2,0,0.4,0.2,0.4,0.4C231.6,189.8,231.4,190,231.2,190
			C231.2,190,231.2,190,231.2,190z M225,190h-2.3c-0.2,0-0.4-0.2-0.4-0.4c0-0.2,0.2-0.4,0.4-0.4c0,0,0,0,0,0h2.3
			c0.2,0,0.4,0.2,0.4,0.4C225.4,189.8,225.2,190,225,190C225,190,225,190,225,190z M218.8,190h-2.3c-0.2,0-0.4-0.2-0.4-0.4
			c0-0.2,0.2-0.4,0.4-0.4c0,0,0,0,0,0h2.3c0.2,0,0.4,0.2,0.4,0.4C219.2,189.8,219,190,218.8,190C218.8,190,218.8,190,218.8,190z
			 M212.6,190h-2.3c-0.2,0-0.4-0.2-0.4-0.4c0-0.2,0.2-0.4,0.4-0.4h2.3c0.2,0,0.4,0.2,0.4,0.4C213,189.8,212.8,190,212.6,190
			C212.6,190,212.6,190,212.6,190z M206.4,190h-2.3c-0.2,0-0.4-0.2-0.4-0.4c0-0.2,0.2-0.4,0.4-0.4c0,0,0,0,0,0h2.3
			c0.2,0,0.4,0.2,0.4,0.4C206.8,189.8,206.6,190,206.4,190C206.4,190,206.4,190,206.4,190z M200.2,190h-2.3c-0.2,0-0.4-0.2-0.4-0.4
			c0-0.2,0.2-0.4,0.4-0.4h2.3c0.2,0,0.4,0.2,0.4,0.4C200.6,189.8,200.4,190,200.2,190C200.2,190,200.2,190,200.2,190z M194,190h-2.3
			c-0.2,0-0.4-0.2-0.4-0.4c0-0.2,0.2-0.4,0.4-0.4c0,0,0,0,0,0h2.3c0.2,0,0.4,0.2,0.4,0.4C194.4,189.8,194.2,190,194,190
			C194,190,194,190,194,190z M187.8,190h-2.3c-0.2,0-0.4-0.2-0.4-0.4c0-0.2,0.2-0.4,0.4-0.4c0,0,0,0,0,0h2.3c0.2,0,0.4,0.2,0.4,0.4
			C188.2,189.8,188,190,187.8,190C187.8,190,187.8,190,187.8,190z M181.6,190h-2.3c-0.2,0-0.4-0.2-0.4-0.4c0-0.2,0.2-0.4,0.4-0.4
			c0,0,0,0,0,0h2.3c0.2,0,0.4,0.2,0.4,0.4C182,189.8,181.8,190,181.6,190C181.6,190,181.6,190,181.6,190L181.6,190z M175.4,190H173
			c-0.2,0-0.4-0.2-0.4-0.4c0-0.2,0.2-0.4,0.4-0.4c0,0,0,0,0,0h2.3c0.2,0,0.4,0.2,0.4,0.4C175.8,189.8,175.6,190,175.4,190
			C175.4,190,175.4,190,175.4,190z M169.2,190h-2.3c-0.2,0-0.4-0.2-0.4-0.4c0-0.2,0.2-0.4,0.4-0.4c0,0,0,0,0,0h2.3
			c0.2,0,0.4,0.2,0.4,0.4C169.5,189.8,169.4,190,169.2,190C169.2,190,169.2,190,169.2,190L169.2,190z M163,190h-2.3
			c-0.2,0-0.4-0.2-0.4-0.4c0-0.2,0.2-0.4,0.4-0.4c0,0,0,0,0,0h2.3c0.2,0,0.4,0.2,0.4,0.4C163.3,189.8,163.2,190,163,190
			C163,190,163,190,163,190z M156.8,190h-2.3c-0.2,0-0.4-0.2-0.4-0.4c0-0.2,0.2-0.4,0.4-0.4h2.3c0.2,0,0.4,0.2,0.4,0.4
			C157.1,189.8,157,190,156.8,190C156.8,190,156.8,190,156.8,190z M150.5,190h-2.3c-0.2,0-0.4-0.2-0.4-0.4c0-0.2,0.2-0.4,0.4-0.4
			c0,0,0,0,0,0h2.3c0.2,0,0.4,0.2,0.4,0.4C150.9,189.8,150.8,190,150.5,190C150.5,190,150.5,190,150.5,190L150.5,190z M144.3,190
			H142c-0.2,0-0.4-0.2-0.4-0.4c0-0.2,0.2-0.4,0.4-0.4c0,0,0,0,0,0h2.3c0.2,0,0.4,0.2,0.4,0.4C144.7,189.8,144.6,190,144.3,190
			C144.3,190,144.3,190,144.3,190z"/>
		<path class="st3" d="M138.1,190H137c-0.2,0-0.4-0.2-0.4-0.4c0-0.2,0.2-0.4,0.4-0.4c0,0,0,0,0,0h1.2c0.2,0,0.4,0.2,0.4,0.4
			C138.5,189.8,138.4,190,138.1,190C138.1,190,138.1,190,138.1,190z"/>
	</g>
	<g>
		<path class="st3" d="M92.7,234h-1.2c-0.2,0-0.4-0.2-0.4-0.4c0-0.2,0.2-0.4,0.4-0.4h1.2c0.2,0,0.4,0.2,0.4,0.4
			C93.1,233.8,92.9,234,92.7,234z"/>
		<path class="st3" d="M87.7,234h-2.3c-0.2,0-0.4-0.2-0.4-0.4c0-0.2,0.2-0.4,0.4-0.4h2.3c0.2,0,0.4,0.2,0.4,0.4S87.9,234,87.7,234
			C87.7,234,87.7,234,87.7,234L87.7,234z M81.5,234h-2.3c-0.2,0-0.4-0.2-0.4-0.4s0.2-0.4,0.4-0.4c0,0,0,0,0,0h2.3
			c0.2,0,0.4,0.2,0.4,0.4C81.9,233.8,81.8,234,81.5,234z M75.4,234h-2.3c-0.2,0-0.4-0.2-0.4-0.4s0.2-0.4,0.4-0.4c0,0,0,0,0,0h2.3
			c0.2,0,0.4,0.2,0.4,0.4C75.8,233.8,75.6,234,75.4,234z M69.2,234h-2.3c-0.2,0-0.4-0.2-0.4-0.4c0-0.2,0.2-0.4,0.4-0.4h2.3
			c0.2,0,0.4,0.2,0.4,0.4C69.6,233.8,69.4,234,69.2,234z M63.1,234h-2.3c-0.2,0-0.4-0.2-0.4-0.4c0-0.2,0.2-0.4,0.4-0.4h2.3
			c0.2,0,0.4,0.2,0.4,0.4C63.5,233.8,63.3,234,63.1,234z M56.9,234h-2.3c-0.2,0-0.4-0.2-0.4-0.4c0-0.2,0.2-0.4,0.4-0.4h2.3
			c0.2,0,0.4,0.2,0.4,0.4S57.1,234,56.9,234C56.9,234,56.9,234,56.9,234z M50.8,234h-2.3c-0.2,0-0.4-0.2-0.4-0.4s0.2-0.4,0.4-0.4
			c0,0,0,0,0,0h2.3c0.2,0,0.4,0.2,0.4,0.4C51.2,233.8,51,234,50.8,234L50.8,234z M44.6,234h-2.3c-0.2,0-0.4-0.2-0.4-0.4
			c0-0.2,0.2-0.4,0.4-0.4h2.3c0.2,0,0.4,0.2,0.4,0.4C45,233.8,44.8,234,44.6,234z M38.5,234h-2.3c-0.2,0-0.4-0.2-0.4-0.4
			c0-0.2,0.2-0.4,0.4-0.4h2.3c0.2,0,0.4,0.2,0.4,0.4C38.9,233.8,38.7,234,38.5,234z M32.3,234H30c-0.2,0-0.4-0.2-0.4-0.4
			c0-0.2,0.2-0.4,0.4-0.4h2.3c0.2,0,0.4,0.2,0.4,0.4S32.5,234,32.3,234C32.3,234,32.3,234,32.3,234L32.3,234z M26.2,234h-2.3
			c-0.2,0-0.4-0.2-0.4-0.4c0-0.2,0.2-0.4,0.4-0.4h2.3c0.2,0,0.4,0.2,0.4,0.4S26.4,234,26.2,234C26.2,234,26.2,234,26.2,234z M20,234
			h-2.3c-0.2,0-0.4-0.2-0.4-0.4s0.2-0.4,0.4-0.4c0,0,0,0,0,0H20c0.2,0,0.4,0.2,0.4,0.4C20.4,233.8,20.2,234,20,234z M13.9,234h-2.3
			c-0.2,0-0.4-0.2-0.4-0.4c0-0.2,0.2-0.4,0.4-0.4h2.3c0.2,0,0.4,0.2,0.4,0.4C14.2,233.8,14.1,234,13.9,234z M7.7,234H5.4
			c-0.2,0-0.4-0.2-0.4-0.4c0-0.2,0.2-0.4,0.4-0.4h2.3c0.2,0,0.4,0.2,0.4,0.4C8.1,233.8,7.9,234,7.7,234z"/>
		<path class="st3" d="M1.6,234H0.4c-0.2,0-0.4-0.2-0.4-0.4c0-0.2,0.2-0.4,0.4-0.4h1.2c0.2,0,0.4,0.2,0.4,0.4S1.8,234,1.6,234
			C1.6,234,1.6,234,1.6,234z"/>
	</g>
	<g>
		<path class="st3" d="M137,234h-1.2c-0.2,0-0.4-0.2-0.4-0.4s0.2-0.4,0.4-0.4c0,0,0,0,0,0h1.2c0.2,0,0.4,0.2,0.4,0.4
			S137.2,234,137,234C137,234,137,234,137,234z"/>
		<path class="st3" d="M131.9,234h-2.4c-0.2,0-0.4-0.2-0.4-0.4s0.2-0.4,0.4-0.4c0,0,0,0,0,0h2.4c0.2,0,0.4,0.2,0.4,0.4
			S132.1,234,131.9,234C131.9,234,131.9,234,131.9,234z M125.5,234h-2.4c-0.2,0-0.4-0.2-0.4-0.4c0-0.2,0.2-0.4,0.4-0.4h2.4
			c0.2,0,0.4,0.2,0.4,0.4C125.9,233.8,125.7,234,125.5,234L125.5,234z M119.2,234h-2.4c-0.2,0-0.4-0.2-0.4-0.4
			c0-0.2,0.2-0.4,0.4-0.4h2.4c0.2,0,0.4,0.2,0.4,0.4C119.6,233.8,119.4,234,119.2,234z M112.9,234h-2.4c-0.2,0-0.4-0.2-0.4-0.4
			c0-0.2,0.2-0.4,0.4-0.4h2.4c0.2,0,0.4,0.2,0.4,0.4C113.2,233.8,113.1,234,112.9,234L112.9,234z M106.5,234h-2.4
			c-0.2,0-0.4-0.2-0.4-0.4c0-0.2,0.2-0.4,0.4-0.4h2.4c0.2,0,0.4,0.2,0.4,0.4C106.9,233.8,106.7,234,106.5,234L106.5,234z M100.2,234
			h-2.4c-0.2,0-0.4-0.2-0.4-0.4c0-0.2,0.2-0.4,0.4-0.4h2.4c0.2,0,0.4,0.2,0.4,0.4C100.6,233.8,100.4,234,100.2,234z"/>
		<path class="st3" d="M93.9,234h-1.2c-0.2,0-0.4-0.2-0.4-0.4c0-0.2,0.2-0.4,0.4-0.4h1.2c0.2,0,0.4,0.2,0.4,0.4
			C94.3,233.8,94.1,234,93.9,234z"/>
	</g>
	<g>
		<path class="st3" d="M378.9,234h-1.2c-0.2,0-0.4-0.2-0.4-0.4c0-0.2,0.2-0.4,0.4-0.4h1.2c0.2,0,0.4,0.2,0.4,0.4
			C379.3,233.8,379.1,234,378.9,234z"/>
		<path class="st3" d="M373.9,234h-2.3c-0.2,0-0.4-0.2-0.4-0.4c0-0.2,0.2-0.4,0.4-0.4h2.3c0.2,0,0.4,0.2,0.4,0.4
			C374.3,233.8,374.1,234,373.9,234z M367.7,234h-2.3c-0.2,0-0.4-0.2-0.4-0.4c0-0.2,0.2-0.4,0.4-0.4h2.3c0.2,0,0.4,0.2,0.4,0.4
			C368.1,233.8,367.9,234,367.7,234L367.7,234z M361.5,234h-2.3c-0.2,0-0.4-0.2-0.4-0.4c0-0.2,0.2-0.4,0.4-0.4h2.3
			c0.2,0,0.4,0.2,0.4,0.4C361.9,233.8,361.7,234,361.5,234z M355.3,234h-2.3c-0.2,0-0.4-0.2-0.4-0.4c0-0.2,0.2-0.4,0.4-0.4h2.3
			c0.2,0,0.4,0.2,0.4,0.4C355.7,233.8,355.5,234,355.3,234z M349.1,234h-2.3c-0.2,0-0.4-0.2-0.4-0.4c0-0.2,0.2-0.4,0.4-0.4h2.3
			c0.2,0,0.4,0.2,0.4,0.4C349.5,233.8,349.3,234,349.1,234L349.1,234z M342.9,234h-2.3c-0.2,0-0.4-0.2-0.4-0.4
			c0-0.2,0.2-0.4,0.4-0.4h2.3c0.2,0,0.4,0.2,0.4,0.4C343.2,233.8,343.1,234,342.9,234z M336.7,234h-2.3c-0.2,0-0.4-0.2-0.4-0.4
			c0-0.2,0.2-0.4,0.4-0.4h2.3c0.2,0,0.4,0.2,0.4,0.4C337,233.8,336.9,234,336.7,234L336.7,234z M330.5,234h-2.3
			c-0.2,0-0.4-0.2-0.4-0.4c0-0.2,0.2-0.4,0.4-0.4h2.3c0.2,0,0.4,0.2,0.4,0.4C330.8,233.8,330.7,234,330.5,234z M324.3,234h-2.3
			c-0.2,0-0.4-0.2-0.4-0.4c0-0.2,0.2-0.4,0.4-0.4h2.3c0.2,0,0.4,0.2,0.4,0.4C324.6,233.8,324.5,234,324.3,234z M318,234h-2.3
			c-0.2,0-0.4-0.2-0.4-0.4c0-0.2,0.2-0.4,0.4-0.4h2.3c0.2,0,0.4,0.2,0.4,0.4C318.4,233.8,318.3,234,318,234z M311.8,234h-2.3
			c-0.2,0-0.4-0.2-0.4-0.4c0-0.2,0.2-0.4,0.4-0.4h2.3c0.2,0,0.4,0.2,0.4,0.4S312.1,234,311.8,234C311.8,234,311.8,234,311.8,234z
			 M305.6,234h-2.3c-0.2,0-0.4-0.2-0.4-0.4c0-0.2,0.2-0.4,0.4-0.4h2.3c0.2,0,0.4,0.2,0.4,0.4C306,233.8,305.9,234,305.6,234z
			 M299.4,234h-2.3c-0.2,0-0.4-0.2-0.4-0.4c0-0.2,0.2-0.4,0.4-0.4h2.3c0.2,0,0.4,0.2,0.4,0.4S299.7,234,299.4,234
			C299.4,234,299.4,234,299.4,234z M293.2,234h-2.3c-0.2,0-0.4-0.2-0.4-0.4c0-0.2,0.2-0.4,0.4-0.4h2.3c0.2,0,0.4,0.2,0.4,0.4
			C293.6,233.8,293.4,234,293.2,234z M287,234h-2.3c-0.2,0-0.4-0.2-0.4-0.4c0-0.2,0.2-0.4,0.4-0.4h2.3c0.2,0,0.4,0.2,0.4,0.4
			S287.2,234,287,234C287,234,287,234,287,234z M280.8,234h-2.3c-0.2,0-0.4-0.2-0.4-0.4c0-0.2,0.2-0.4,0.4-0.4h2.3
			c0.2,0,0.4,0.2,0.4,0.4S281,234,280.8,234C280.8,234,280.8,234,280.8,234z M274.6,234h-2.3c-0.2,0-0.4-0.2-0.4-0.4
			c0-0.2,0.2-0.4,0.4-0.4h2.3c0.2,0,0.4,0.2,0.4,0.4S274.8,234,274.6,234C274.6,234,274.6,234,274.6,234z M268.4,234h-2.3
			c-0.2,0-0.4-0.2-0.4-0.4c0-0.2,0.2-0.4,0.4-0.4h2.3c0.2,0,0.4,0.2,0.4,0.4S268.6,234,268.4,234C268.4,234,268.4,234,268.4,234
			L268.4,234z M262.2,234h-2.3c-0.2,0-0.4-0.2-0.4-0.4c0-0.2,0.2-0.4,0.4-0.4h2.3c0.2,0,0.4,0.2,0.4,0.4S262.4,234,262.2,234
			C262.2,234,262.2,234,262.2,234z M256,234h-2.3c-0.2,0-0.4-0.2-0.4-0.4c0-0.2,0.2-0.4,0.4-0.4h2.3c0.2,0,0.4,0.2,0.4,0.4
			S256.2,234,256,234C256,234,256,234,256,234L256,234z M249.8,234h-2.3c-0.2,0-0.4-0.2-0.4-0.4c0-0.2,0.2-0.4,0.4-0.4h2.3
			c0.2,0,0.4,0.2,0.4,0.4S250,234,249.8,234C249.8,234,249.8,234,249.8,234z M243.6,234h-2.3c-0.2,0-0.4-0.2-0.4-0.4
			c0-0.2,0.2-0.4,0.4-0.4h2.3c0.2,0,0.4,0.2,0.4,0.4S243.8,234,243.6,234C243.6,234,243.6,234,243.6,234z M237.4,234h-2.3
			c-0.2,0-0.4-0.2-0.4-0.4c0-0.2,0.2-0.4,0.4-0.4h2.3c0.2,0,0.4,0.2,0.4,0.4S237.6,234,237.4,234C237.4,234,237.4,234,237.4,234z
			 M231.2,234h-2.3c-0.2,0-0.4-0.2-0.4-0.4c0-0.2,0.2-0.4,0.4-0.4h2.3c0.2,0,0.4,0.2,0.4,0.4S231.4,234,231.2,234
			C231.2,234,231.2,234,231.2,234z M225,234h-2.3c-0.2,0-0.4-0.2-0.4-0.4c0-0.2,0.2-0.4,0.4-0.4h2.3c0.2,0,0.4,0.2,0.4,0.4
			S225.2,234,225,234C225,234,225,234,225,234z M218.8,234h-2.3c-0.2,0-0.4-0.2-0.4-0.4c0-0.2,0.2-0.4,0.4-0.4h2.3
			c0.2,0,0.4,0.2,0.4,0.4S219,234,218.8,234C218.8,234,218.8,234,218.8,234z M212.6,234h-2.3c-0.2,0-0.4-0.2-0.4-0.4
			c0-0.2,0.2-0.4,0.4-0.4h2.3c0.2,0,0.4,0.2,0.4,0.4S212.8,234,212.6,234C212.6,234,212.6,234,212.6,234z M206.4,234h-2.3
			c-0.2,0-0.4-0.2-0.4-0.4c0-0.2,0.2-0.4,0.4-0.4h2.3c0.2,0,0.4,0.2,0.4,0.4S206.6,234,206.4,234C206.4,234,206.4,234,206.4,234z
			 M200.2,234h-2.3c-0.2,0-0.4-0.2-0.4-0.4c0-0.2,0.2-0.4,0.4-0.4h2.3c0.2,0,0.4,0.2,0.4,0.4S200.4,234,200.2,234
			C200.2,234,200.2,234,200.2,234z M194,234h-2.3c-0.2,0-0.4-0.2-0.4-0.4c0-0.2,0.2-0.4,0.4-0.4h2.3c0.2,0,0.4,0.2,0.4,0.4
			S194.2,234,194,234C194,234,194,234,194,234z M187.8,234h-2.3c-0.2,0-0.4-0.2-0.4-0.4c0-0.2,0.2-0.4,0.4-0.4h2.3
			c0.2,0,0.4,0.2,0.4,0.4S188,234,187.8,234C187.8,234,187.8,234,187.8,234z M181.6,234h-2.3c-0.2,0-0.4-0.2-0.4-0.4
			c0-0.2,0.2-0.4,0.4-0.4h2.3c0.2,0,0.4,0.2,0.4,0.4S181.8,234,181.6,234C181.6,234,181.6,234,181.6,234L181.6,234z M175.4,234H173
			c-0.2,0-0.4-0.2-0.4-0.4c0-0.2,0.2-0.4,0.4-0.4h2.3c0.2,0,0.4,0.2,0.4,0.4S175.6,234,175.4,234C175.4,234,175.4,234,175.4,234z
			 M169.2,234h-2.3c-0.2,0-0.4-0.2-0.4-0.4c0-0.2,0.2-0.4,0.4-0.4h2.3c0.2,0,0.4,0.2,0.4,0.4S169.4,234,169.2,234
			C169.2,234,169.2,234,169.2,234L169.2,234z M163,234h-2.3c-0.2,0-0.4-0.2-0.4-0.4c0-0.2,0.2-0.4,0.4-0.4h2.3
			c0.2,0,0.4,0.2,0.4,0.4S163.2,234,163,234C163,234,163,234,163,234z M156.8,234h-2.3c-0.2,0-0.4-0.2-0.4-0.4
			c0-0.2,0.2-0.4,0.4-0.4h2.3c0.2,0,0.4,0.2,0.4,0.4S157,234,156.8,234C156.8,234,156.8,234,156.8,234z M150.5,234h-2.3
			c-0.2,0-0.4-0.2-0.4-0.4c0-0.2,0.2-0.4,0.4-0.4h2.3c0.2,0,0.4,0.2,0.4,0.4S150.8,234,150.5,234C150.5,234,150.5,234,150.5,234z
			 M144.3,234H142c-0.2,0-0.4-0.2-0.4-0.4c0-0.2,0.2-0.4,0.4-0.4h2.3c0.2,0,0.4,0.2,0.4,0.4S144.6,234,144.3,234
			C144.3,234,144.3,234,144.3,234z"/>
		<path class="st3" d="M138.1,234H137c-0.2,0-0.4-0.2-0.4-0.4c0-0.2,0.2-0.4,0.4-0.4h1.2c0.2,0,0.4,0.2,0.4,0.4S138.4,234,138.1,234
			C138.1,234,138.1,234,138.1,234z"/>
	</g>
	<path class="st4" d="M23.5,233.6c-13,0-23.1-9.6-23.1-22c-0.1-12.1,9.6-21.9,21.6-22c0.2,0,0.4,0,0.5,0c12.4,0,21.5,9.7,21.5,22.9
		l0,3.5l-30.3,0c1.8,4.2,5.9,6.9,10.4,6.7c3.2,0.1,6.2-1,8.5-3.2l8.6,7.6C36.4,231.5,30.1,233.8,23.5,233.6z M13.6,207l17.7,0
		c-1.2-3.9-4.8-6.6-8.9-6.7C18.3,200.2,14.6,203,13.6,207z"/>
	<path class="st4" d="M115.9,44.4c-13,0-23.1-9.6-23.1-22c-0.1-12.1,9.6-21.9,21.6-22c0.2,0,0.4,0,0.5,0c12.4,0,21.5,9.7,21.5,22.9
		l0,3.5l-30.3,0c1.8,4.2,5.9,6.9,10.4,6.7c3.2,0.1,6.2-1,8.5-3.2l8.6,7.6C128.8,42.3,122.4,44.6,115.9,44.4z M106,17.7l17.7,0
		c-1.2-3.9-4.8-6.6-8.9-6.7C110.6,11,107,13.8,106,17.7z"/>
	<path class="st4" d="M115.9,277.6c-13,0-23.1-9.6-23.1-22c-0.1-12.1,9.6-21.9,21.6-22c0.2,0,0.4,0,0.5,0c12.4,0,21.5,9.7,21.5,22.9
		l0,3.5l-30.3,0c1.8,4.2,5.9,6.9,10.4,6.7c3.2,0.1,6.2-1,8.5-3.2l8.6,7.6C128.8,275.5,122.4,277.8,115.9,277.6z M106,251l17.7,0
		c-1.2-3.9-4.8-6.6-8.9-6.7C110.6,244.2,107,247,106,251z"/>
</g>
</svg>
