<svg id="e70d5ae2-4f0c-4d1e-ad88-365ca16aeafb" data-name="Layer 1" xmlns="http://www.w3.org/2000/svg" width="555" height="200" viewBox="0 0 555 200"><defs><style>.a89f8811-8797-4a99-ad87-46fbe2516895{isolation:isolate;}.a889c953-039e-4abc-894d-a1b9784f5b2e{fill:#e00;}</style></defs><title>BrandStandards-Logo-Product_Logos-ASSETS</title><g id="b3e4f58a-ab83-4213-9de5-5c0822b82a77" data-name="Group 95"><g id="ffb822b1-5f74-48e1-8f1f-0826f0089936" data-name="Enterprise Linux 8" class="a89f8811-8797-4a99-ad87-46fbe2516895"><g class="a89f8811-8797-4a99-ad87-46fbe2516895"><path d="M177,108.83h17.54V112h-14v7.14h9.18v3.06h-9.18v7.34h14.11v3.13H177Z"/><path d="M197.92,115.33h3.4v1.73a7.13,7.13,0,0,1,5.2-2.07,6.46,6.46,0,0,1,6.77,6.76v10.88h-3.4v-10.3A4,4,0,0,0,205.6,118a4.89,4.89,0,0,0-4.28,2.24v12.44h-3.4Z"/><path d="M218.76,118.18h-3.67v-2.85h3.67v-4.42l3.37-.82v5.24h5.1v2.85h-5.1v9.39c0,1.76.71,2.41,2.55,2.41a6.6,6.6,0,0,0,2.48-.41v2.86a11.48,11.48,0,0,1-3.23.51c-3.37,0-5.17-1.6-5.17-4.59Z"/><path d="M237.67,132.94a8.91,8.91,0,0,1-9.08-9,8.7,8.7,0,0,1,8.67-8.9c4.76,0,8.36,3.94,8.36,9v1H232a5.84,5.84,0,0,0,5.85,5,6.76,6.76,0,0,0,4.39-1.53l2.17,2.14A10.32,10.32,0,0,1,237.67,132.94ZM232,122.54h10.27a5.16,5.16,0,0,0-10.27,0Z"/><path d="M248.85,115.33h3.4v2.21A5.42,5.42,0,0,1,257,115a4.23,4.23,0,0,1,1.74.28v3.06a5.82,5.82,0,0,0-2-.38,4.73,4.73,0,0,0-4.49,3.16v11.56h-3.4Z"/><path d="M261.47,115.33h3.36V117a8,8,0,0,1,5.31-1.93,8.92,8.92,0,1,1-5.27,16.14v8.47h-3.4Zm3.4,4.76v7.82a6.43,6.43,0,0,0,4.82,2,6,6,0,0,0,0-11.94A6.18,6.18,0,0,0,264.87,120.09Z"/><path d="M282.1,115.33h3.4v2.21a5.42,5.42,0,0,1,4.76-2.59,4.23,4.23,0,0,1,1.74.28v3.06a5.82,5.82,0,0,0-2-.38,4.74,4.74,0,0,0-4.49,3.16v11.56h-3.4Z"/><path d="M294.34,110.43a2.1,2.1,0,0,1,2.08-2.11,2.11,2.11,0,0,1,0,4.22A2.09,2.09,0,0,1,294.34,110.43Zm3.78,22.2h-3.4v-17.3h3.4Z"/><path d="M302.33,128.15a9.14,9.14,0,0,0,5.65,2.17c2.44,0,4.14-1,4.14-2.58,0-1.23-.88-1.94-2.78-2.21l-3.13-.44c-3.43-.52-5.17-2.11-5.17-4.8,0-3.13,2.72-5.23,6.77-5.23a11.85,11.85,0,0,1,7,2.21L313,119.51a9.6,9.6,0,0,0-5.47-1.8c-2.07,0-3.47,1-3.47,2.34s.82,1.87,2.86,2.18l3.12.44c3.44.51,5.24,2.14,5.24,4.83,0,3.09-3.13,5.44-7.24,5.44a11.44,11.44,0,0,1-7.58-2.55Z"/><path d="M326.4,132.94a8.9,8.9,0,0,1-9.07-9,8.69,8.69,0,0,1,8.67-8.9c4.76,0,8.36,3.94,8.36,9v1H320.69a5.84,5.84,0,0,0,5.85,5,6.76,6.76,0,0,0,4.39-1.53l2.17,2.14A10.33,10.33,0,0,1,326.4,132.94Zm-5.67-10.4H331a5.16,5.16,0,0,0-10.26,0Z"/><path d="M345.1,108.83h3.57v20.64h13.7v3.16H345.1Z"/><path d="M365.2,110.43a2.1,2.1,0,0,1,2.07-2.11,2.11,2.11,0,1,1,0,4.22A2.09,2.09,0,0,1,365.2,110.43Zm3.77,22.2h-3.4v-17.3H369Z"/><path d="M373,115.33h3.4v1.73a7.13,7.13,0,0,1,5.21-2.07,6.46,6.46,0,0,1,6.76,6.76v10.88H385v-10.3a4,4,0,0,0-4.28-4.38,4.91,4.91,0,0,0-4.29,2.24v12.44H373Z"/><path d="M395.42,125.6a4.05,4.05,0,0,0,4.29,4.41,4.88,4.88,0,0,0,4.25-2.27V115.33h3.4v17.3H404V130.9a7.08,7.08,0,0,1-5.2,2.07,6.46,6.46,0,0,1-6.74-6.8V115.33h3.4Z"/><path d="M416.16,123.76l-6.46-8.43h4l4.46,6,4.45-6h3.84l-6.39,8.4,6.83,8.9h-4l-4.76-6.39-4.83,6.39h-3.84Z"/><path d="M435.48,126.11c0-2.66,1.87-4.9,4.65-5.89a6,6,0,0,1-3.77-5.37c0-3.64,3.54-6.39,8.26-6.39s8.26,2.75,8.26,6.39a6,6,0,0,1-3.77,5.37c2.79,1,4.66,3.23,4.66,5.89,0,4-3.81,6.86-9.15,6.86S435.48,130.12,435.48,126.11Zm14.92-.21c0-2.45-2.48-4.28-5.78-4.28s-5.78,1.83-5.78,4.28,2.48,4.32,5.78,4.32S450.4,128.38,450.4,125.9Zm-.82-10.84c0-2.18-2.14-3.88-5-3.88s-4.93,1.7-4.93,3.88,2.14,3.84,4.93,3.84S449.58,117.2,449.58,115.06Z"/></g></g><g id="b785e815-d1d0-49ee-a154-88387d4b1793" data-name="Group 96"><g id="b8d838a7-8920-4642-8a9f-2246954c5da7" data-name="Group 95-2"><g id="e4711a40-cfde-49aa-b0b2-305ea7c732eb" data-name="Path 447"><path class="a889c953-039e-4abc-894d-a1b9784f5b2e" d="M143.7,88.09c4.18,0,10.23-.87,10.23-5.84a4.44,4.44,0,0,0-.1-1.15l-2.49-10.82c-.58-2.38-1.08-3.46-5.26-5.55-3.25-1.66-10.31-4.4-12.4-4.4s-2.53,2.52-4.83,2.52S125,61,122.86,61s-3.31,1.37-4.32,4.18c0,0-2.81,7.93-3.17,9.08a2,2,0,0,0-.08.65c0,3.09,12.14,13.2,28.41,13.2m10.88-3.82a16.16,16.16,0,0,1,.58,3.38c0,4.69-5.26,7.28-12.18,7.28-15.65,0-29.35-9.15-29.35-15.21a6.28,6.28,0,0,1,.5-2.45c-5.61.29-12.9,1.3-12.9,7.72,0,10.52,25,23.5,44.7,23.5,15.14,0,19-6.85,19-12.26,0-4.25-3.67-9.08-10.3-12"/></g><g id="a92a7c23-af87-4aa3-a484-ce1c0dbe305d" data-name="Path 448"><path d="M154.58,84.27a16.16,16.16,0,0,1,.58,3.38c0,4.69-5.26,7.28-12.18,7.28-15.65,0-29.35-9.15-29.35-15.21a6.28,6.28,0,0,1,.5-2.45l1.23-3a2.36,2.36,0,0,0-.07.65c0,3.08,12.14,13.19,28.41,13.19,4.18,0,10.23-.86,10.23-5.84a4.4,4.4,0,0,0-.1-1.14Z"/></g></g><g id="e69e867e-1852-4ade-86c1-471958f3b486" data-name="Path 449"><path d="M295,91.2c0,4,2.39,5.91,6.75,5.91a17.85,17.85,0,0,0,4-.56V91.94a8.61,8.61,0,0,1-2.57.39c-1.8,0-2.46-.57-2.46-2.26V83h5.2V78.26h-5.2v-6L295,73.47v4.79h-3.77V83H295Zm-17.71.1c0-1.23,1.23-1.82,3.1-1.82a13.79,13.79,0,0,1,3.38.42v2.39a7.22,7.22,0,0,1-3.55.88c-1.83,0-2.92-.7-2.92-1.87M279,97.18a8.76,8.76,0,0,0,5.14-1.44v1.12h5.63V84.94c0-4.54-3.06-7-8.16-7a20.6,20.6,0,0,0-8.69,2l2,4.18a15.26,15.26,0,0,1,5.63-1.48c2.35,0,3.55.92,3.55,2.78v.92a16.27,16.27,0,0,0-4.22-.53c-4.78,0-7.67,2-7.67,5.59,0,3.27,2.6,5.77,6.75,5.77m-30.91-.32h6.05V87.23h10.13v9.63h6.05V72.24h-6.05V81.7H254.11V72.24h-6.05Zm-23-9.32a4.7,4.7,0,0,1,4.7-4.71h.19a5.78,5.78,0,0,1,3.94,1.44v6.5a5.5,5.5,0,0,1-3.94,1.48A4.73,4.73,0,0,1,225,87.68v-.14m8.9,9.32h5.62V71l-5.7,1.23v7a9.59,9.59,0,1,0-4.93,17.87,8.39,8.39,0,0,0,5-1.62ZM208.1,82.58a4.11,4.11,0,0,1,3.9,3h-7.77a3.87,3.87,0,0,1,3.87-3m-9.6,5c0,5.42,4.43,9.64,10.13,9.64a11.18,11.18,0,0,0,7.77-2.82l-3.76-3.33a5.07,5.07,0,0,1-3.73,1.41,4.81,4.81,0,0,1-4.57-3h13.25V88.1c0-5.9-4-10.16-9.39-10.16a9.56,9.56,0,0,0-9.7,9.4v.24m-9.82-10.17a2.8,2.8,0,1,1,.7,5.56,2.73,2.73,0,0,1-.7,0h-6V77.41Zm-12,19.45h6.05v-9h4.6l4.65,9h6.75L193.29,87a7.44,7.44,0,0,0,4.65-6.92c0-4.44-3.49-7.85-8.69-7.85h-12.6Z"/></g></g></g></svg>