<svg id="Layer_1" data-name="Layer 1" xmlns="http://www.w3.org/2000/svg" viewBox="0 0 555 180"><defs><style>.cls-1{fill:#a7c0e4;}.cls-1,.cls-4{opacity:0.5;isolation:isolate;}.cls-2{fill:#fff;}.cls-3{fill:#e00;}.cls-4{fill:#6c97d3;}.cls-10,.cls-11,.cls-5,.cls-6,.cls-7,.cls-8,.cls-9{fill:none;stroke:#6c97d3;stroke-linecap:round;stroke-linejoin:round;stroke-width:0.5px;}.cls-6{stroke-dasharray:1.97 1.97;}.cls-7{stroke-dasharray:1.93 1.93;}.cls-8{stroke-dasharray:2.02 2.02;}.cls-9{stroke-dasharray:2 2;}.cls-10{stroke-dasharray:1.9 1.9;}.cls-11{stroke-dasharray:2.01 2.01;}</style></defs><title>Brand_Standards-Red_Hat-Clearspace_variant-RGB</title><rect id="Rectangle_57" data-name="Rectangle 57" class="cls-1" x="0.01" width="444.99" height="177.83"/><rect id="Rectangle_58" data-name="Rectangle 58" class="cls-2" x="22.94" y="23.15" width="399.12" height="131.52"/><g id="Group_74" data-name="Group 74"><path id="Path_345" data-name="Path 345" d="M114.22,81.44h21.61v3.85H118.61v8.8h11.32v3.77H118.61v9H136v3.85H114.22Z"/><path id="Path_346" data-name="Path 346" d="M140,89.44h4.19v2.14A8.82,8.82,0,0,1,150.62,89,8,8,0,0,1,159,96.59c0,.26,0,.51,0,.77v13.4h-4.19V98.07c0-3.35-2-5.41-5.27-5.41a6,6,0,0,0-5.28,2.77v15.33H140Z"/><path id="Path_347" data-name="Path 347" d="M165.69,93h-4.52V89.44h4.52V84l4.15-1v6.45h6.28V93h-6.28v11.56c0,2.17.88,3,3.14,3A8.2,8.2,0,0,0,176,107v3.52a14.14,14.14,0,0,1-4,.63c-4.15,0-6.37-2-6.37-5.66Z"/><path id="Path_348" data-name="Path 348" d="M189,111.14a11,11,0,0,1-11.18-10.76v-.3a10.7,10.7,0,0,1,10.44-11h.24c5.86,0,10.3,4.86,10.3,11.14v1.21H181.94a7.19,7.19,0,0,0,7.21,6.12,8.32,8.32,0,0,0,5.41-1.89l2.68,2.64A12.71,12.71,0,0,1,189,111.14Zm-7-12.82h12.64c-.62-3.26-3.14-5.69-6.24-5.69a6.54,6.54,0,0,0-6.4,5.69Z"/><path id="Path_349" data-name="Path 349" d="M202.76,89.44H207v2.72A6.67,6.67,0,0,1,212.81,89a5.2,5.2,0,0,1,2.14.34v3.77a7,7,0,0,0-2.47-.46A5.81,5.81,0,0,0,207,96.52v14.24h-4.19Z"/><path id="Path_350" data-name="Path 350" d="M218.3,89.44h4.15v2A9.69,9.69,0,0,1,229,89.11a10.75,10.75,0,0,1,10.77,10.74c0,.08,0,.15,0,.23a10.79,10.79,0,0,1-10.55,11h-.3a10.75,10.75,0,0,1-6.4-2.09v10.43H218.3Zm4.19,5.87v9.63a7.89,7.89,0,0,0,5.94,2.51,7.1,7.1,0,0,0,7.21-7,1.82,1.82,0,0,0,0-.33,7.17,7.17,0,0,0-6.95-7.37h-.26A7.63,7.63,0,0,0,222.49,95.31Z"/><path id="Path_351" data-name="Path 351" d="M243.72,89.44h4.19v2.72A6.68,6.68,0,0,1,253.77,89a5.37,5.37,0,0,1,2.14.34v3.77a7,7,0,0,0-2.47-.46,5.8,5.8,0,0,0-5.53,3.89v14.24h-4.19Z"/><path id="Path_352" data-name="Path 352" d="M258.8,83.41a2.58,2.58,0,0,1,2.55-2.6h0a2.6,2.6,0,1,1,0,5.2,2.58,2.58,0,0,1-2.55-2.6Zm4.65,27.35h-4.19V89.44h4.19Z"/><path id="Path_353" data-name="Path 353" d="M268.64,105.23a11.18,11.18,0,0,0,6.95,2.68c3,0,5.11-1.3,5.11-3.18,0-1.51-1.09-2.39-3.44-2.72l-3.85-.55c-4.23-.63-6.37-2.59-6.37-5.9,0-3.86,3.35-6.45,8.34-6.45A14.62,14.62,0,0,1,284,91.83l-2.14,2.76a11.91,11.91,0,0,0-6.74-2.22c-2.56,0-4.28,1.18-4.28,2.89,0,1.55,1,2.31,3.52,2.68l3.86.55c4.23.63,6.45,2.64,6.45,6,0,3.81-3.86,6.7-8.93,6.7a14.09,14.09,0,0,1-9.34-3.14Z"/><path id="Path_354" data-name="Path 354" d="M298.3,111.14a11,11,0,0,1-11.19-10.76v-.3a10.71,10.71,0,0,1,10.45-11h.23c5.87,0,10.31,4.86,10.31,11.14v1.21H291.26a7.19,7.19,0,0,0,7.21,6.12,8.3,8.3,0,0,0,5.4-1.89l2.68,2.64A12.69,12.69,0,0,1,298.3,111.14Zm-7-12.82H304c-.63-3.26-3.14-5.69-6.24-5.69a6.53,6.53,0,0,0-6.41,5.69Z"/><path id="Path_355" data-name="Path 355" d="M321.33,81.44h4.4v25.43h16.88v3.89H321.33Z"/><path id="Path_356" data-name="Path 356" d="M346.08,83.41a2.58,2.58,0,0,1,2.55-2.6h0a2.6,2.6,0,1,1,0,5.2,2.58,2.58,0,0,1-2.56-2.6Zm4.65,27.35h-4.19V89.44h4.19Z"/><path id="Path_357" data-name="Path 357" d="M355.67,89.44h4.19v2.14A8.82,8.82,0,0,1,366.27,89a8,8,0,0,1,8.33,7.57c0,.26,0,.51,0,.77v13.4h-4.19V98.07c0-3.35-2.05-5.41-5.28-5.41a6,6,0,0,0-5.27,2.77v15.33h-4.19Z"/><path id="Path_358" data-name="Path 358" d="M383.32,102.09c0,3.35,2.05,5.45,5.27,5.45a6,6,0,0,0,5.24-2.81V89.45H398v21.32h-4.19v-2.14a8.72,8.72,0,0,1-6.41,2.56,8,8,0,0,1-8.29-7.61,6.59,6.59,0,0,1,0-.77V89.45h4.19Z"/><path id="Path_359" data-name="Path 359" d="M408.86,99.83l-7.95-10.39h4.9l5.49,7.33,5.48-7.33h4.74l-7.88,10.35,8.42,11h-4.94l-5.86-7.87-5.95,7.87h-4.73Z"/><path id="Path_360" data-name="Path 360" d="M123.6,124.94h3.9l12,29.32H136l-3.69-9.21H118.49l-3.73,9.21h-3.35Zm7.58,17.34L125.45,128l-5.83,14.32Z"/><path id="Path_361" data-name="Path 361" d="M141.9,135.91h-4.52v-2.64h4.52V128l3.06-.79v6.11h6.33v2.64H145v12.86c0,2.26.92,3.14,3.23,3.14a7.64,7.64,0,0,0,3.06-.54v2.72a11.87,11.87,0,0,1-3.69.54c-3.64,0-5.65-1.76-5.65-5.06Z"/><path id="Path_362" data-name="Path 362" d="M163.68,132.85a10.71,10.71,0,0,1,10.69,10.71,1.09,1.09,0,0,1,0,.18,10.7,10.7,0,0,1-10.47,10.93h-.21A10.72,10.72,0,0,1,153,144v-.24a10.69,10.69,0,0,1,10.51-10.88Zm7.63,10.89a7.81,7.81,0,0,0-7.46-8.12h-.17a7.83,7.83,0,0,0-7.66,8v.13a7.85,7.85,0,0,0,7.51,8.17h.15c4.28,0,7.63-3.6,7.63-8.17Z"/><path id="Path_363" data-name="Path 363" d="M178.68,133.27h3.1v2.3a7.88,7.88,0,0,1,6.16-2.72,7.39,7.39,0,0,1,6.62,3.81,8.23,8.23,0,0,1,7.2-3.81c4.57,0,7.71,3.31,7.71,8.13v13.28H206.4V141.61c0-3.73-2.09-6-5.44-6a6.33,6.33,0,0,0-5.57,3.44,10.89,10.89,0,0,1,.21,2v13.28h-3.06V141.61c0-3.73-2.1-6-5.41-6a6.13,6.13,0,0,0-5.36,3.06v15.63h-3.1Z"/><path id="Path_364" data-name="Path 364" d="M214.11,127.16a2.1,2.1,0,0,1,2.09-2.1,2.08,2.08,0,0,1,2.1,2.06v0a2.1,2.1,0,0,1-2.1,2.09A2.13,2.13,0,0,1,214.11,127.16Zm3.64,27.1h-3.1v-21h3.1Z"/><path id="Path_365" data-name="Path 365" d="M239,149.19l1.92,2.09a11.7,11.7,0,0,1-8.12,3.35A10.65,10.65,0,0,1,222.07,144v-.24a10.68,10.68,0,0,1,10.49-10.88h.19a12,12,0,0,1,8.21,3.31l-2,2.26a8.67,8.67,0,0,0-6.2-2.72,7.79,7.79,0,0,0-7.67,7.9v.14a7.8,7.8,0,0,0,7.52,8.08h.19A8.58,8.58,0,0,0,239,149.19Z"/><path id="Path_366" data-name="Path 366" d="M254.11,124.94h3.22v13.11h17.05V124.94h3.23v29.32h-3.23V140.94H257.33v13.32h-3.22Z"/><path id="Path_367" data-name="Path 367" d="M293.23,132.85a10.7,10.7,0,0,1,10.68,10.7v.19a10.7,10.7,0,0,1-10.47,10.93h-.21A10.72,10.72,0,0,1,282.5,144c0-.08,0-.16,0-.24A10.69,10.69,0,0,1,293,132.86Zm7.62,10.89a7.81,7.81,0,0,0-7.46-8.12h-.16a7.83,7.83,0,0,0-7.67,8v.13a7.85,7.85,0,0,0,7.51,8.17h.16c4.27,0,7.62-3.6,7.62-8.17Z"/><path id="Path_368" data-name="Path 368" d="M308,149.35a10.07,10.07,0,0,0,6.83,2.81c3.35,0,5.69-1.55,5.69-3.77,0-1.8-1.21-2.81-3.89-3.19l-3.65-.5c-4.19-.62-6.2-2.47-6.2-5.65,0-3.52,3.27-6.12,7.88-6.12a13.45,13.45,0,0,1,8.25,2.77l-1.63,2.09a11.75,11.75,0,0,0-6.79-2.34c-2.89,0-4.86,1.42-4.86,3.47,0,1.8,1.13,2.68,3.9,3.11l3.64.5c4.19.58,6.28,2.47,6.28,5.69,0,3.65-3.68,6.41-8.5,6.41a12.75,12.75,0,0,1-8.84-3.27Z"/><path id="Path_369" data-name="Path 369" d="M329.08,135.91h-4.53v-2.64h4.53V128l3.06-.79v6.11h6.32v2.64h-6.32v12.86c0,2.26.92,3.14,3.22,3.14a7.61,7.61,0,0,0,3.06-.54v2.72a11.82,11.82,0,0,1-3.69.54c-3.64,0-5.65-1.76-5.65-5.06Z"/></g><g id="Group_76" data-name="Group 76"><g id="Group_75" data-name="Group 75"><path id="Path_370" data-name="Path 370" class="cls-3" d="M74.08,56.58c5,0,12.33-1,12.33-7a5.77,5.77,0,0,0-.13-1.38l-3-13c-.7-2.86-1.3-4.16-6.34-6.68-3.91-2-12.41-5.3-14.93-5.3-2.35,0-3,3-5.82,3S51.5,23.93,49,23.93s-4,1.65-5.2,5c0,0-3.39,9.55-3.82,10.94a2.29,2.29,0,0,0-.09.78c0,3.71,14.61,15.89,34.2,15.89M87.19,52a20.24,20.24,0,0,1,.69,4.08c0,5.65-6.34,8.77-14.67,8.77-18.84,0-35.34-11-35.34-18.32a7.49,7.49,0,0,1,.61-3c-6.77.35-15.54,1.56-15.54,9.29,0,12.67,30,28.3,53.83,28.3C95,81.14,99.6,72.89,99.6,66.38c0-5.12-4.43-10.93-12.41-14.41"/><path id="Path_371" data-name="Path 371" d="M87.19,52a20.12,20.12,0,0,1,.69,4.08c0,5.64-6.34,8.77-14.67,8.77-18.84,0-35.34-11-35.34-18.32a7.54,7.54,0,0,1,.61-3L40,39.91a2.56,2.56,0,0,0-.09.78c0,3.71,14.61,15.89,34.2,15.89,5,0,12.33-1,12.33-7a5.73,5.73,0,0,0-.12-1.37Z"/></g><path id="Path_372" data-name="Path 372" d="M256.22,60.33c0,4.78,2.88,7.11,8.13,7.11a21.43,21.43,0,0,0,4.78-.67V61.22a10.11,10.11,0,0,1-3.09.46c-2.16,0-3-.67-3-2.71V50.46h6.27V44.75h-6.27V37.5L256.22,39v5.76h-4.54v5.71h4.54Zm-21.33.12c0-1.48,1.49-2.2,3.73-2.2a17.45,17.45,0,0,1,4.07.51v2.88a8.65,8.65,0,0,1-4.28,1.06c-2.2,0-3.52-.85-3.52-2.24m2.1,7.07a10.51,10.51,0,0,0,6.18-1.74v1.36H250V52.79c0-5.46-3.69-8.47-9.83-8.47a25,25,0,0,0-10.46,2.46l2.46,5A18.13,18.13,0,0,1,238.89,50c2.84,0,4.28,1.1,4.28,3.34v1.1a19.81,19.81,0,0,0-5.08-.63c-5.76,0-9.24,2.41-9.24,6.73,0,3.94,3.14,7,8.14,7m-37.23-.38H207V55.54h12.2V67.15h7.28V37.5h-7.28V48.89H207V37.5h-7.28ZM172,55.92a5.68,5.68,0,0,1,5.67-5.68h.22A6.94,6.94,0,0,1,182.63,52v7.84a6.61,6.61,0,0,1-4.74,1.78A5.71,5.71,0,0,1,172,56.09v-.17m10.71,11.23h6.78V36l-6.86,1.49v8.42a11.69,11.69,0,0,0-17.37,9.76v.24A11.39,11.39,0,0,0,176.5,67.44h.2a10.06,10.06,0,0,0,6-2ZM151.62,50a5,5,0,0,1,4.71,3.56H147A4.66,4.66,0,0,1,151.63,50m-11.57,6c0,6.53,5.34,11.61,12.2,11.61a13.42,13.42,0,0,0,9.36-3.39l-4.53-4a6.07,6.07,0,0,1-4.49,1.69,5.77,5.77,0,0,1-5.5-3.56h16V56.6c0-7.12-4.78-12.24-11.31-12.24a11.51,11.51,0,0,0-11.69,11.33V56M128.25,43.72c2.41,0,3.77,1.53,3.77,3.35s-1.36,3.35-3.77,3.35h-7.2v-6.7ZM113.76,67.15h7.29V56.35h5.55l5.59,10.8h8.13L133.8,55.29A9,9,0,0,0,139.39,47c0-5.34-4.19-9.45-10.46-9.45H113.76Z"/></g><path id="Path_373" data-name="Path 373" class="cls-4" d="M152.26,23.15c-6.84,0-12.17-5.07-12.17-11.57A11.49,11.49,0,0,1,151.48,0h.27C158.26,0,163,5.11,163,12V13.9H147.1a5.77,5.77,0,0,0,5.49,3.55,6,6,0,0,0,4.48-1.69l4.52,4A13.42,13.42,0,0,1,152.26,23.15Zm-5.2-14h9.3a5,5,0,0,0-4.69-3.51,4.67,4.67,0,0,0-4.61,3.51Z"/><path id="Path_374" data-name="Path 374" class="cls-4" d="M152.26,177.83c-6.84,0-12.17-5.07-12.17-11.58a11.48,11.48,0,0,1,11.39-11.57,2.43,2.43,0,0,1,.27,0c6.51,0,11.28,5.11,11.28,12v1.86H147.1a5.8,5.8,0,0,0,5.49,3.55,6.08,6.08,0,0,0,4.48-1.69l4.52,4A13.38,13.38,0,0,1,152.26,177.83Zm-5.2-14h9.3a5,5,0,0,0-4.69-3.5A4.65,4.65,0,0,0,147.06,163.8Z"/><path id="Path_375" data-name="Path 375" class="cls-4" d="M12.17,67.5C5.32,67.5,0,62.43,0,55.92A11.47,11.47,0,0,1,11.38,44.35h.28c6.51,0,11.28,5.11,11.28,12v1.86H7a5.8,5.8,0,0,0,5.5,3.55A6.11,6.11,0,0,0,17,60.11l4.52,4A13.42,13.42,0,0,1,12.17,67.5ZM7,53.47h9.3A5,5,0,0,0,11.58,50,4.66,4.66,0,0,0,7,53.47Z"/><path id="Path_376" data-name="Path 376" class="cls-4" d="M434.23,67.5c-6.85,0-12.17-5.07-12.17-11.58a11.47,11.47,0,0,1,11.38-11.57h.28c6.51,0,11.28,5.11,11.28,12v1.86H429.07a5.8,5.8,0,0,0,5.5,3.55A6.07,6.07,0,0,0,439,60.11l4.53,4A13.42,13.42,0,0,1,434.23,67.5Zm-5.2-14h9.3a5,5,0,0,0-4.69-3.5,4.64,4.64,0,0,0-4.61,3.5Z"/><g id="Line_65" data-name="Line 65"><line class="cls-5" x1="163.04" y1="67.57" x2="163.04" y2="68.57"/><line class="cls-6" x1="163.04" y1="70.54" x2="163.04" y2="175.84"/><line class="cls-5" x1="163.04" y1="176.83" x2="163.04" y2="177.83"/></g><g id="Line_66" data-name="Line 66"><line class="cls-5" x1="163.04" y1="44.35" x2="163.04" y2="45.35"/><line class="cls-7" x1="163.04" y1="47.27" x2="163.04" y2="65.6"/><line class="cls-5" x1="163.04" y1="66.57" x2="163.04" y2="67.57"/></g><g id="Line_67" data-name="Line 67"><line class="cls-5" x1="163.04" x2="163.04" y2="1"/><line class="cls-8" x1="163.04" y1="3.02" x2="163.04" y2="42.34"/><line class="cls-5" x1="163.04" y1="43.35" x2="163.04" y2="44.35"/></g><g id="Line_68" data-name="Line 68"><line class="cls-5" x1="140.09" y1="67.57" x2="140.09" y2="68.57"/><line class="cls-6" x1="140.09" y1="70.54" x2="140.09" y2="175.84"/><line class="cls-5" x1="140.09" y1="176.83" x2="140.09" y2="177.83"/></g><g id="Line_69" data-name="Line 69"><line class="cls-5" x1="140.09" y1="44.35" x2="140.09" y2="45.35"/><line class="cls-7" x1="140.09" y1="47.27" x2="140.09" y2="65.6"/><line class="cls-5" x1="140.09" y1="66.57" x2="140.09" y2="67.57"/></g><g id="Line_70" data-name="Line 70"><line class="cls-5" x1="140.09" x2="140.09" y2="1"/><line class="cls-8" x1="140.09" y1="3.02" x2="140.09" y2="42.34"/><line class="cls-5" x1="140.09" y1="43.35" x2="140.09" y2="44.35"/></g><g id="Line_71" data-name="Line 71"><line class="cls-5" x1="140.09" y1="44.35" x2="139.09" y2="44.35"/><line class="cls-9" x1="137.09" y1="44.35" x2="2" y2="44.35"/><line class="cls-5" x1="1" y1="44.35" y2="44.35"/></g><g id="Line_72" data-name="Line 72"><line class="cls-5" x1="163.04" y1="44.35" x2="162.04" y2="44.35"/><line class="cls-10" x1="160.13" y1="44.35" x2="142.04" y2="44.35"/><line class="cls-5" x1="141.09" y1="44.35" x2="140.09" y2="44.35"/></g><g id="Line_73" data-name="Line 73"><line class="cls-5" x1="445.02" y1="44.35" x2="444.02" y2="44.35"/><line class="cls-11" x1="442" y1="44.35" x2="165.04" y2="44.35"/><line class="cls-5" x1="164.04" y1="44.35" x2="163.04" y2="44.35"/></g><g id="Line_75" data-name="Line 75"><line class="cls-5" x1="140.09" y1="67.57" x2="139.09" y2="67.57"/><line class="cls-9" x1="137.09" y1="67.57" x2="2" y2="67.57"/><line class="cls-5" x1="1" y1="67.57" y2="67.57"/></g><g id="Line_76" data-name="Line 76"><line class="cls-5" x1="163.04" y1="67.57" x2="162.04" y2="67.57"/><line class="cls-10" x1="160.13" y1="67.57" x2="142.05" y2="67.57"/><line class="cls-5" x1="141.09" y1="67.57" x2="140.09" y2="67.57"/></g><g id="Line_77" data-name="Line 77"><line class="cls-5" x1="445.02" y1="67.57" x2="444.02" y2="67.57"/><line class="cls-11" x1="442" y1="67.57" x2="165.04" y2="67.57"/><line class="cls-5" x1="164.04" y1="67.57" x2="163.04" y2="67.57"/></g></svg>