<svg id="Layer_1" data-name="Layer 1" xmlns="http://www.w3.org/2000/svg" viewBox="0 0 262 180"><defs><style>.cls-1{isolation:isolate;}.cls-2{fill:#e00;}</style></defs><title>Brand_Standards-Red_Hat-This2-RGB</title><g class="cls-1"><path d="M125.74,107.28l1.34,1.36a7.51,7.51,0,0,1-5.46,2.36,7,7,0,1,1,0-14.07,7.41,7.41,0,0,1,5.5,2.36l-1.37,1.4a5.4,5.4,0,0,0-4.13-1.87,5.15,5.15,0,0,0,.06,10.29A5.31,5.31,0,0,0,125.74,107.28Z"/><path d="M133.18,100.67a5.16,5.16,0,1,1-5.17,5.15A5.09,5.09,0,0,1,133.18,100.67Zm3.23,5.15a3.25,3.25,0,1,0-3.23,3.45A3.31,3.31,0,0,0,136.41,105.82Z"/><path d="M140.17,100.87h2v1.26a3.11,3.11,0,0,1,2.73-1.48,2.42,2.42,0,0,1,1,.16v1.75a3.25,3.25,0,0,0-1.15-.21,2.69,2.69,0,0,0-2.57,1.81v6.63h-2Z"/><path d="M151.55,111a5.1,5.1,0,0,1-5.2-5.14,5,5,0,0,1,5-5.11,4.91,4.91,0,0,1,4.8,5.18v.57h-7.84a3.35,3.35,0,0,0,3.36,2.84,3.88,3.88,0,0,0,2.51-.87l1.25,1.23A6,6,0,0,1,151.55,111Zm-3.26-6h5.89a3,3,0,0,0-5.89,0Z"/><path d="M164.7,111a7,7,0,1,1,7.11-7A7,7,0,0,1,164.7,111Zm0-12.18a5.15,5.15,0,1,0,5,5.14A5,5,0,0,0,164.7,98.82Z"/><path d="M174,107.08a6.6,6.6,0,0,0,4.7,2.15c2,0,3.31-.94,3.31-2.28s-.78-1.82-2.77-2.15l-2.28-.37c-2.49-.41-3.72-1.58-3.72-3.54,0-2.38,2-3.92,5-3.92a9.15,9.15,0,0,1,5.5,1.85l-1.13,1.56a7.29,7.29,0,0,0-4.47-1.68c-1.77,0-3,.82-3,2s.68,1.64,2.44,1.93l2.2.35c2.88.47,4.19,1.66,4.19,3.78,0,2.51-2.18,4.19-5.44,4.19a8.23,8.23,0,0,1-5.85-2.46Z"/></g><g id="Group_95-6" data-name="Group 95-6"><path id="Path_447-6" data-name="Path 447-6" class="cls-2" d="M95.22,85.59c2.5,0,6.12-.51,6.12-3.49a3.07,3.07,0,0,0-.06-.68L99.79,75c-.35-1.42-.65-2.07-3.15-3.32-1.94-1-6.16-2.63-7.41-2.63s-1.51,1.51-2.89,1.51S84,69.39,82.76,69.39s-2,.82-2.58,2.5c0,0-1.69,4.74-1.9,5.43a1.31,1.31,0,0,0,0,.39c0,1.84,7.26,7.89,17,7.89m6.51-2.29a9.9,9.9,0,0,1,.34,2c0,2.8-3.15,4.35-7.28,4.35-9.36,0-17.55-5.47-17.55-9.09a3.69,3.69,0,0,1,.31-1.47c-3.37.17-7.72.77-7.72,4.61,0,6.29,14.91,14.05,26.72,14.05,9.06,0,11.34-4.09,11.34-7.32,0-2.55-2.2-5.44-6.16-7.16"/><path id="Path_448-6" data-name="Path 448-6" d="M101.73,83.31a9.9,9.9,0,0,1,.34,2c0,2.8-3.14,4.35-7.28,4.35-9.35,0-17.54-5.47-17.54-9.09a3.68,3.68,0,0,1,.3-1.47l.73-1.81a1.29,1.29,0,0,0,0,.39c0,1.84,7.25,7.89,17,7.89,2.5,0,6.12-.52,6.12-3.5a2.61,2.61,0,0,0-.06-.68Z"/></g><path id="Path_449-7" data-name="Path 449-7" d="M185.65,87.46c0,2.38,1.43,3.53,4,3.53a10,10,0,0,0,2.38-.34V87.9a4.66,4.66,0,0,1-1.53.23c-1.07,0-1.47-.33-1.47-1.34V82.57h3.11V79.72h-3.11v-3.6l-3.41.74v2.86H183.4v2.84h2.25Zm-10.59.06c0-.74.74-1.09,1.85-1.09a8.1,8.1,0,0,1,2,.25v1.43a4.35,4.35,0,0,1-2.12.52c-1.1,0-1.75-.42-1.75-1.11m1,3.51a5.16,5.16,0,0,0,3.07-.87v.68h3.36V83.71c0-2.71-1.83-4.2-4.87-4.2a12.32,12.32,0,0,0-5.2,1.22l1.22,2.5a9,9,0,0,1,3.36-.88c1.41,0,2.13.54,2.13,1.66v.55a9.81,9.81,0,0,0-2.53-.32c-2.86,0-4.58,1.2-4.58,3.34,0,2,1.56,3.45,4,3.45m-18.49-.19h3.62V85.08h6.06v5.76h3.62V76.12h-3.62v5.66h-6.06V76.12h-3.62Zm-13.78-5.57a2.83,2.83,0,0,1,2.81-2.82h.11a3.46,3.46,0,0,1,2.36.86v3.89a3.27,3.27,0,0,1-2.36.89,2.84,2.84,0,0,1-2.92-2.74v-.08m5.32,5.57h3.37V75.39l-3.41.73v4.19a5.74,5.74,0,1,0-5.81,9.89,5.79,5.79,0,0,0,2.87.79,5,5,0,0,0,3-1Zm-15.43-8.53a2.45,2.45,0,0,1,2.33,1.76h-4.64a2.3,2.3,0,0,1,2.31-1.76m-5.74,3a5.86,5.86,0,0,0,5.93,5.77H134a6.61,6.61,0,0,0,4.64-1.68l-2.25-2a3,3,0,0,1-2.22.85,2.89,2.89,0,0,1-2.74-1.77h7.93v-.85c0-3.54-2.38-6.08-5.62-6.08a5.72,5.72,0,0,0-5.8,5.62v.14m-5.87-6.08a1.68,1.68,0,0,1,.41,3.33h-4V79.21Zm-7.19,11.63h3.62V85.48h2.75l2.77,5.36h4L124.86,85a4.45,4.45,0,0,0,2.78-4.14c0-2.65-2.08-4.69-5.2-4.69h-7.53Z"/></svg>