<?xml version="1.0" encoding="utf-8"?>
<!-- Generator: Adobe Illustrator 25.2.0, SVG Export Plug-In . SVG Version: 6.00 Build 0)  -->
<svg version="1.1" id="Layer_1" xmlns="http://www.w3.org/2000/svg" xmlns:xlink="http://www.w3.org/1999/xlink" x="0px" y="0px"
	 viewBox="0 0 555 200" style="enable-background:new 0 0 555 200;" xml:space="preserve">
<style type="text/css">
	.st0{fill:#F3F3F3;}
	.st1{fill:#FFFFFF;stroke:#D9D9D9;}
	.st2{enable-background:new    ;}
	.st3{fill:#EE0000;}
	.st4{opacity:0.5;fill:#A7C0E4;enable-background:new    ;}
	.st5{fill:#FFFFFF;}
	.st6{opacity:0.5;fill:#6C97D3;enable-background:new    ;}
	.st7{fill:none;stroke:#6C97D3;stroke-width:0.5;stroke-linecap:round;stroke-linejoin:round;stroke-dasharray:2;}
	.st8{fill:none;stroke:#6C97D3;stroke-width:0.5;stroke-linecap:round;stroke-linejoin:round;}
	.st9{fill:none;stroke:#6C97D3;stroke-width:0.5;stroke-linecap:round;stroke-linejoin:round;stroke-dasharray:1.9853,1.9853;}
	.st10{fill:none;stroke:#6C97D3;stroke-width:0.5;stroke-linecap:round;stroke-linejoin:round;stroke-dasharray:2.0346,2.0346;}
	.st11{fill:none;stroke:#6C97D3;stroke-width:0.5;stroke-linecap:round;stroke-linejoin:round;stroke-dasharray:2.0742,2.0742;}
	.st12{fill:none;stroke:#6C97D3;stroke-width:0.5;stroke-linecap:round;stroke-linejoin:round;stroke-dasharray:1.9743,1.9743;}
	.st13{fill:none;stroke:#6C97D3;stroke-width:0.5;stroke-linecap:round;stroke-linejoin:round;stroke-dasharray:2.0471,2.0471;}
	.st14{fill:none;stroke:#6C97D3;stroke-width:0.5;stroke-linecap:round;stroke-linejoin:round;stroke-dasharray:1.9981,1.9981;}
	.st15{fill:none;stroke:#6C97D3;stroke-width:0.5;stroke-linecap:round;stroke-linejoin:round;stroke-dasharray:1.9683,1.9683;}
	.st16{fill:none;stroke:#6C97D3;stroke-width:0.5;stroke-linecap:round;stroke-linejoin:round;stroke-dasharray:1.9294,1.9294;}
	.st17{fill:none;stroke:#6C97D3;stroke-width:0.5;stroke-linecap:round;stroke-linejoin:round;stroke-dasharray:2.0164,2.0164;}
	.st18{fill:none;stroke:#6C97D3;stroke-width:0.5;stroke-linecap:round;stroke-linejoin:round;stroke-dasharray:2.0013,2.0013;}
	.st19{fill:none;stroke:#6C97D3;stroke-width:0.5;stroke-linecap:round;stroke-linejoin:round;stroke-dasharray:1.9039,1.9039;}
	.st20{fill:none;stroke:#6C97D3;stroke-width:0.5;stroke-linecap:round;stroke-linejoin:round;stroke-dasharray:2.0142,2.0142;}
	.st21{fill:#EE0100;}
	.st22{fill:#53A3DA;}
	.st23{fill:#F1606D;}
	.st24{fill:#231F20;}
	.st25{fill:#53A4D9;}
	.st26{clip-path:url(#SVGID_4_);}
	.st27{fill:url(#);}
</style>
<g id="Logo-Red_Hat-Ansible_Automation_Platform-A-Standard-RGB" transform="translate(115.567 54)">
	<path id="Path_514" d="M71.47,40.8h3.59l8.34,20.41h-3.33l-2.36-5.98h-9.13l-2.39,5.98h-3.18L71.47,40.8z M76.72,52.7l-3.56-8.95
		L69.6,52.7H76.72z"/>
	<path id="Path_515" d="M85.15,46.37h2.92v1.49c1.18-1.18,2.8-1.82,4.46-1.78c3.06-0.15,5.65,2.21,5.8,5.27
		c0.01,0.18,0.01,0.36,0,0.53v9.33h-2.92v-8.84c0.17-1.9-1.22-3.58-3.12-3.76c-0.18-0.02-0.37-0.02-0.55-0.01
		c-1.48-0.05-2.87,0.68-3.68,1.92V61.2h-2.91V46.37z"/>
	<path id="Path_516" d="M101.86,57.36c1.35,1.16,3.06,1.82,4.84,1.87c2.1,0,3.56-0.91,3.56-2.22c0-1.05-0.76-1.66-2.39-1.9
		l-2.68-0.38c-2.94-0.44-4.43-1.81-4.43-4.11c0-2.68,2.33-4.49,5.8-4.49c2.15-0.02,4.24,0.64,5.99,1.89l-1.49,1.92
		c-1.37-0.98-3.01-1.52-4.7-1.54c-1.78,0-2.98,0.82-2.98,2.01c0,1.08,0.7,1.6,2.45,1.87l2.68,0.38c2.94,0.44,4.49,1.84,4.49,4.14
		c0,2.66-2.68,4.67-6.21,4.67c-2.36,0.08-4.67-0.7-6.5-2.19L101.86,57.36z"/>
	<path id="Path_517" d="M114.93,42.17c-0.01-0.99,0.78-1.8,1.77-1.81c0,0,0,0,0.01,0c1-0.02,1.83,0.78,1.85,1.78
		s-0.78,1.83-1.78,1.85s-1.83-0.78-1.85-1.78C114.93,42.2,114.93,42.18,114.93,42.17z M118.15,61.21h-2.92V46.37h2.92L118.15,61.21z
		"/>
	<path id="Path_518" d="M128.98,61.45c-1.62,0.01-3.19-0.51-4.49-1.49v1.25h-2.89V40.8l2.92-0.64v7.61
		c1.26-1.07,2.87-1.65,4.52-1.63c4.23,0.1,7.58,3.61,7.48,7.83C136.42,58.08,133.09,61.38,128.98,61.45L128.98,61.45z M124.52,50.45
		v6.71c1.07,1.15,2.58,1.78,4.14,1.75c2.83-0.07,5.06-2.42,4.99-5.24c-0.07-2.73-2.26-4.93-4.99-4.99
		C127.08,48.62,125.57,49.27,124.52,50.45L124.52,50.45z"/>
	<path id="Path_519" d="M142.22,61.21h-2.92V40.8l2.92-0.64L142.22,61.21z"/>
	<path id="Path_520" d="M152.78,61.47c-4.22,0.08-7.71-3.28-7.79-7.5c0-0.07,0-0.13,0-0.2c-0.1-4.12,3.16-7.54,7.27-7.64
		c0.05,0,0.11,0,0.16,0c4.08,0,7.17,3.38,7.17,7.76v0.84h-11.72c0.37,2.47,2.52,4.29,5.02,4.26c1.37,0.03,2.7-0.43,3.76-1.29
		l1.86,1.84C156.9,60.84,154.87,61.52,152.78,61.47L152.78,61.47z M147.91,52.55h8.81c-0.25-2.43-2.43-4.2-4.86-3.94
		C149.77,48.83,148.13,50.47,147.91,52.55z"/>
	<path id="Path_521" d="M175.23,40.8h3.59l8.34,20.41h-3.32l-2.36-5.98h-9.13l-2.39,5.98h-3.18L175.23,40.8z M180.48,52.7
		l-3.56-8.95l-3.56,8.95H180.48z"/>
	<path id="Path_522" d="M191.19,55.17c-0.18,1.91,1.23,3.61,3.15,3.78c0.18,0.02,0.35,0.02,0.53,0.01c1.48,0.04,2.86-0.71,3.65-1.96
		V46.35h2.93v14.85h-2.92V59.7c-1.18,1.18-2.79,1.83-4.46,1.78c-3.06,0.13-5.64-2.24-5.78-5.3c-0.01-0.18-0.01-0.36,0-0.53v-9.28
		h2.92L191.19,55.17z"/>
	<path id="Path_523" d="M206.79,48.82h-3.15v-2.45h3.15v-3.79l2.89-0.7v4.49h4.38v2.45h-4.38v8.04c0,1.52,0.61,2.07,2.19,2.07
		c0.73,0.02,1.45-0.1,2.13-0.35v2.45c-0.9,0.28-1.83,0.43-2.77,0.44c-2.89,0-4.43-1.37-4.43-3.93L206.79,48.82z"/>
	<path id="Path_524" d="M222.95,46.08c4.26,0.01,7.71,3.47,7.7,7.73s-3.47,7.71-7.73,7.7c-4.26-0.01-7.71-3.47-7.7-7.73c0,0,0,0,0,0
		c-0.04-4.21,3.33-7.65,7.54-7.7C222.82,46.08,222.88,46.08,222.95,46.08z M227.8,53.77c-0.16-2.68-2.47-4.72-5.15-4.56
		c-2.68,0.16-4.72,2.47-4.56,5.15c0.16,2.57,2.29,4.58,4.87,4.57c2.74-0.06,4.9-2.33,4.84-5.06C227.8,53.84,227.8,53.81,227.8,53.77
		L227.8,53.77z"/>
	<path id="Path_525" d="M233.41,46.37h2.92v1.4c1.1-1.11,2.61-1.72,4.17-1.68c1.86-0.06,3.61,0.89,4.58,2.48
		c1.16-1.61,3.04-2.54,5.02-2.48c3-0.08,5.5,2.29,5.58,5.29c0,0.17,0,0.34-0.01,0.51v9.33h-2.91v-8.86c0-2.33-1.31-3.76-3.41-3.76
		c-1.43-0.01-2.76,0.74-3.47,1.98c0.08,0.42,0.12,0.85,0.12,1.28v9.33h-2.89v-8.84c0-2.33-1.31-3.76-3.41-3.76
		c-1.36-0.03-2.64,0.66-3.36,1.81v10.8h-2.92V46.37z"/>
	<path id="Path_526" d="M258.26,56.95c0-2.8,2.27-4.52,6.01-4.52c1.39,0,2.77,0.28,4.06,0.82v-1.58c0-2.1-1.25-3.15-3.62-3.15
		c-1.61,0.06-3.19,0.49-4.61,1.25l-1.08-2.19c1.89-0.97,3.98-1.48,6.1-1.52c3.85,0,6.07,1.9,6.07,5.31v9.82h-2.86v-1.26
		c-1.3,1.05-2.94,1.59-4.61,1.54C260.48,61.47,258.26,59.64,258.26,56.95z M264.39,59.32c1.44,0.04,2.84-0.46,3.93-1.4v-2.57
		c-1.17-0.62-2.49-0.93-3.82-0.9c-2.13,0-3.44,0.96-3.44,2.45C261.06,58.33,262.4,59.32,264.39,59.32L264.39,59.32z"/>
	<path id="Path_527" d="M275.88,48.82h-3.15v-2.45h3.15v-3.79l2.89-0.7v4.49h4.38v2.45h-4.38v8.04c0,1.52,0.61,2.07,2.19,2.07
		c0.73,0.02,1.45-0.1,2.13-0.35v2.45c-0.9,0.28-1.83,0.43-2.77,0.44c-2.89,0-4.43-1.37-4.43-3.93L275.88,48.82z"/>
	<path id="Path_528" d="M284.98,42.17c0.01-0.99,0.82-1.78,1.81-1.78c0.99,0.01,1.78,0.82,1.78,1.81c-0.01,0.99-0.82,1.78-1.81,1.78
		c-0.47,0-0.93-0.2-1.26-0.53C285.16,43.1,284.97,42.64,284.98,42.17z M288.21,61.21h-2.92V46.37h2.92V61.21z"/>
	<path id="Path_529" d="M298.71,46.08c4.26,0.01,7.71,3.47,7.7,7.73c-0.01,4.26-3.47,7.71-7.73,7.7c-4.26-0.01-7.71-3.47-7.7-7.73
		c0,0,0,0,0,0c-0.04-4.21,3.33-7.65,7.54-7.7C298.59,46.08,298.65,46.08,298.71,46.08z M303.55,53.77
		c-0.16-2.68-2.47-4.72-5.15-4.56c-2.68,0.16-4.72,2.47-4.56,5.15c0.16,2.57,2.29,4.58,4.87,4.57c2.74-0.06,4.91-2.32,4.85-5.06
		C303.56,53.84,303.56,53.81,303.55,53.77L303.55,53.77z"/>
	<path id="Path_530" d="M309.18,46.37h2.92v1.49c1.18-1.18,2.8-1.82,4.46-1.78c3.06-0.15,5.65,2.21,5.8,5.27
		c0.01,0.18,0.01,0.35,0,0.53v9.33h-2.92v-8.84c0.17-1.9-1.22-3.58-3.12-3.76c-0.18-0.02-0.37-0.02-0.55-0.01
		c-1.48-0.05-2.87,0.68-3.68,1.92V61.2h-2.92L309.18,46.37z"/>
	<path id="Path_531" d="M65.05,71.08h9.45c3.99,0,6.68,2.48,6.68,6.12c0,3.59-2.71,6.07-6.68,6.07h-6.39v8.23h-3.06V71.08z
		 M68.12,73.77v6.93h6.07c2.39,0,3.91-1.34,3.91-3.47s-1.52-3.44-3.91-3.44L68.12,73.77z"/>
	<path id="Path_532" d="M86.9,91.5h-2.92V71.08l2.92-0.64V91.5z"/>
	<path id="Path_533" d="M89.58,87.24c0-2.8,2.27-4.52,6.01-4.52c1.39,0,2.77,0.28,4.06,0.82v-1.58c0-2.1-1.25-3.15-3.61-3.15
		c-1.61,0.06-3.19,0.49-4.61,1.25l-1.08-2.19c1.89-0.97,3.98-1.48,6.1-1.52c3.85,0,6.07,1.9,6.07,5.31v9.83h-2.86v-1.27
		c-1.3,1.05-2.94,1.59-4.61,1.55C91.79,91.76,89.58,89.92,89.58,87.24z M95.72,89.6c1.44,0.04,2.84-0.46,3.93-1.4v-2.57
		c-1.17-0.62-2.49-0.93-3.82-0.9c-2.13,0-3.44,0.96-3.44,2.45C92.38,88.61,93.72,89.6,95.72,89.6L95.72,89.6z"/>
	<path id="Path_534" d="M107.2,79.1h-3.15v-2.45h3.15v-3.79l2.89-0.7v4.49h4.38v2.45h-4.38v8.04c0,1.52,0.61,2.07,2.19,2.07
		c0.73,0.02,1.45-0.1,2.13-0.35v2.45c-0.9,0.28-1.83,0.43-2.77,0.44c-2.89,0-4.43-1.37-4.43-3.93L107.2,79.1z"/>
	<path id="Path_535" d="M119.12,76.65v-2.24c0-3.09,1.78-4.77,5.05-4.77c0.71-0.01,1.42,0.08,2.1,0.26v2.52
		c-0.59-0.19-1.21-0.27-1.84-0.26c-1.6,0-2.39,0.73-2.39,2.3v2.19h4.23v2.45h-4.23V91.5h-2.92V79.11h-3.44v-2.45H119.12z"/>
	<path id="Path_536" d="M134.93,76.36c4.26,0.01,7.71,3.47,7.7,7.73c-0.01,4.26-3.47,7.71-7.73,7.7s-7.71-3.47-7.7-7.73c0,0,0,0,0,0
		c-0.04-4.21,3.33-7.65,7.54-7.7C134.81,76.36,134.87,76.36,134.93,76.36z M139.78,84.06c-0.16-2.68-2.47-4.72-5.15-4.56
		c-2.68,0.16-4.72,2.47-4.56,5.15c0.16,2.57,2.29,4.58,4.87,4.57c2.74-0.06,4.9-2.33,4.84-5.07
		C139.78,84.12,139.77,84.09,139.78,84.06L139.78,84.06z"/>
	<path id="Path_537" d="M145.4,76.65h2.92v1.9c0.87-1.42,2.42-2.26,4.08-2.21c0.51-0.03,1.01,0.05,1.49,0.23v2.62
		c-0.55-0.21-1.13-0.32-1.72-0.32c-1.73-0.01-3.27,1.08-3.85,2.71v9.92h-2.92V76.65z"/>
	<path id="Path_538" d="M156.22,76.65h2.92v1.4c1.1-1.11,2.61-1.72,4.17-1.68c1.86-0.06,3.61,0.89,4.58,2.48
		c1.15-1.61,3.04-2.54,5.02-2.48c3-0.08,5.5,2.29,5.58,5.29c0,0.17,0,0.34-0.01,0.51v9.33h-2.92v-8.86c0-2.33-1.31-3.76-3.41-3.76
		c-1.43-0.02-2.76,0.74-3.47,1.98c0.08,0.42,0.12,0.85,0.11,1.28v9.33h-2.89v-8.84c0-2.33-1.31-3.76-3.41-3.76
		c-1.36-0.03-2.64,0.66-3.36,1.81v10.8h-2.91L156.22,76.65z"/>
	<path id="Path_539" class="st3" d="M37.11,23.49c3.51,0,8.58-0.72,8.58-4.9c0.01-0.32-0.02-0.64-0.09-0.96l-2.09-9.07
		c-0.48-2-0.91-2.9-4.41-4.65c-2.73-1.39-8.65-3.69-10.41-3.69c-1.63,0-2.12,2.11-4.05,2.11c-1.87,0-3.26-1.57-5.02-1.57
		c-1.68,0-2.78,1.15-3.63,3.5c0,0-2.36,6.65-2.66,7.62c-0.05,0.18-0.07,0.36-0.07,0.54C13.27,15,23.46,23.48,37.11,23.49
		 M46.24,20.28c0.26,0.93,0.42,1.88,0.49,2.84c0,3.93-4.41,6.1-10.22,6.1c-13.14,0-24.61-7.67-24.61-12.75
		c0-0.71,0.14-1.41,0.42-2.06C7.6,14.66,1.5,15.5,1.5,20.88c0,8.83,20.92,19.71,37.48,19.71c12.7,0,15.9-5.74,15.9-10.28
		C54.88,26.75,51.79,22.7,46.24,20.28"/>
	<path id="Path_540" d="M46.23,20.28c0.26,0.93,0.42,1.88,0.49,2.84c0,3.93-4.41,6.1-10.22,6.1c-13.13,0-24.6-7.67-24.6-12.75
		c0-0.71,0.14-1.41,0.42-2.06l1.02-2.54c-0.05,0.18-0.07,0.36-0.07,0.54c0,2.58,10.19,11.06,23.84,11.06c3.51,0,8.58-0.72,8.58-4.9
		c0.01-0.32-0.02-0.64-0.09-0.96L46.23,20.28z"/>
	<path id="Path_541" d="M163.93,26.09c0,3.33,2.01,4.95,5.66,4.95c1.13-0.03,2.24-0.19,3.33-0.47v-3.86
		c-0.7,0.22-1.42,0.33-2.15,0.33c-1.51,0-2.06-0.47-2.06-1.89v-5.92h4.36v-3.99h-4.36v-5.05l-4.77,1.03v4.02h-3.16v3.98h3.15
		L163.93,26.09z M149.07,26.18c0-1.03,1.04-1.53,2.6-1.53c0.95,0.01,1.91,0.12,2.83,0.35v2c-0.91,0.5-1.93,0.75-2.97,0.74
		c-1.53,0-2.45-0.59-2.45-1.56 M150.54,31.11c1.53,0.06,3.03-0.37,4.31-1.21v0.94h4.72v-10c0-3.8-2.56-5.89-6.84-5.89
		c-2.53,0.03-5.01,0.62-7.29,1.71l1.71,3.51c1.48-0.71,3.08-1.13,4.72-1.24c1.96,0,2.98,0.77,2.98,2.33v0.77
		c-1.16-0.3-2.35-0.45-3.54-0.44c-4.01,0-6.43,1.68-6.43,4.69C144.87,29.02,147.05,31.12,150.54,31.11 M124.61,30.85h5.07v-8.09
		h8.49v8.08h5.07V10.2h-5.06v7.93h-8.5V10.2h-5.07L124.61,30.85z M105.29,23.03c0-2.18,1.76-3.95,3.95-3.96c0.05,0,0.1,0,0.15,0
		c1.21-0.03,2.39,0.41,3.3,1.21v5.44c-0.89,0.84-2.08,1.28-3.3,1.24c-2.19,0.07-4.03-1.64-4.1-3.84c0-0.04,0-0.08,0-0.12
		 M112.75,30.83h4.72V9.17l-4.77,1.03v5.87c-3.83-2.27-8.77-1.01-11.04,2.82c-2.27,3.83-1.01,8.77,2.82,11.04
		c1.24,0.73,2.65,1.12,4.09,1.13c1.5,0.01,2.97-0.47,4.19-1.35V30.83z M91.1,18.86c1.52,0.02,2.84,1.02,3.27,2.48h-6.51
		C88.23,19.85,89.58,18.82,91.1,18.86 M83.05,23.06c0.06,4.52,3.77,8.14,8.29,8.09c0.07,0,0.13,0,0.2,0
		c2.4,0.08,4.73-0.77,6.52-2.36l-3.16-2.8c-0.83,0.81-1.96,1.23-3.12,1.18c-1.67,0.05-3.19-0.94-3.84-2.48h11.12V23.5
		c0-4.95-3.33-8.52-7.87-8.52c-4.42-0.07-8.06,3.47-8.13,7.89C83.06,22.93,83.06,22.99,83.05,23.06 M74.83,14.53
		c1.29-0.15,2.45,0.77,2.61,2.05c0.15,1.29-0.77,2.45-2.05,2.61c-0.18,0.02-0.37,0.02-0.56,0h-5.01v-4.66L74.83,14.53z M64.73,30.84
		h5.07v-7.52h3.86l3.9,7.52h5.66l-4.54-8.26c2.36-0.96,3.9-3.26,3.89-5.81c0-3.72-2.92-6.58-7.29-6.58H64.74L64.73,30.84z"/>
</g>
</svg>
