<?xml version="1.0" encoding="utf-8"?>
<!-- Generator: Adobe Illustrator 25.2.0, SVG Export Plug-In . SVG Version: 6.00 Build 0)  -->
<svg version="1.1" id="Layer_1" xmlns="http://www.w3.org/2000/svg" xmlns:xlink="http://www.w3.org/1999/xlink" x="0px" y="0px"
	 viewBox="0 0 555 200" style="enable-background:new 0 0 555 200;" xml:space="preserve">
<style type="text/css">
	.st0{fill:#F3F3F3;}
	.st1{fill:#FFFFFF;stroke:#D9D9D9;}
	.st2{enable-background:new    ;}
	.st3{fill:#EE0000;}
	.st4{opacity:0.5;fill:#A7C0E4;enable-background:new    ;}
	.st5{fill:#FFFFFF;}
	.st6{opacity:0.5;fill:#6C97D3;enable-background:new    ;}
	.st7{fill:none;stroke:#6C97D3;stroke-width:0.5;stroke-linecap:round;stroke-linejoin:round;stroke-dasharray:2;}
	.st8{fill:none;stroke:#6C97D3;stroke-width:0.5;stroke-linecap:round;stroke-linejoin:round;}
	.st9{fill:none;stroke:#6C97D3;stroke-width:0.5;stroke-linecap:round;stroke-linejoin:round;stroke-dasharray:1.9853,1.9853;}
	.st10{fill:none;stroke:#6C97D3;stroke-width:0.5;stroke-linecap:round;stroke-linejoin:round;stroke-dasharray:2.0346,2.0346;}
	.st11{fill:none;stroke:#6C97D3;stroke-width:0.5;stroke-linecap:round;stroke-linejoin:round;stroke-dasharray:2.0742,2.0742;}
	.st12{fill:none;stroke:#6C97D3;stroke-width:0.5;stroke-linecap:round;stroke-linejoin:round;stroke-dasharray:1.9743,1.9743;}
	.st13{fill:none;stroke:#6C97D3;stroke-width:0.5;stroke-linecap:round;stroke-linejoin:round;stroke-dasharray:2.0471,2.0471;}
	.st14{fill:none;stroke:#6C97D3;stroke-width:0.5;stroke-linecap:round;stroke-linejoin:round;stroke-dasharray:1.9981,1.9981;}
	.st15{fill:none;stroke:#6C97D3;stroke-width:0.5;stroke-linecap:round;stroke-linejoin:round;stroke-dasharray:1.9683,1.9683;}
	.st16{fill:none;stroke:#6C97D3;stroke-width:0.5;stroke-linecap:round;stroke-linejoin:round;stroke-dasharray:1.9294,1.9294;}
	.st17{fill:none;stroke:#6C97D3;stroke-width:0.5;stroke-linecap:round;stroke-linejoin:round;stroke-dasharray:2.0164,2.0164;}
	.st18{fill:none;stroke:#6C97D3;stroke-width:0.5;stroke-linecap:round;stroke-linejoin:round;stroke-dasharray:2.0013,2.0013;}
	.st19{fill:none;stroke:#6C97D3;stroke-width:0.5;stroke-linecap:round;stroke-linejoin:round;stroke-dasharray:1.9039,1.9039;}
	.st20{fill:none;stroke:#6C97D3;stroke-width:0.5;stroke-linecap:round;stroke-linejoin:round;stroke-dasharray:2.0142,2.0142;}
	.st21{fill:#EE0100;}
	.st22{fill:#53A3DA;}
	.st23{fill:#F1606D;}
	.st24{fill:#231F20;}
	.st25{fill:#53A4D9;}
	.st26{clip-path:url(#SVGID_4_);}
	.st27{fill:url(#);}
</style>
<g class="st2">
	<path d="M115.67,87.7h9.22c4.03,0,6.76,2.44,6.76,6c0,2.67-1.62,4.73-4.18,5.57L132,108h-3.37l-4.21-8.33h-5.71V108h-3.05V87.7z
		 M118.72,90.36v6.79h5.92c2.38,0,3.95-1.36,3.95-3.39c0-2.06-1.57-3.39-3.95-3.39H118.72z"/>
	<path d="M140.64,108.26c-4.35,0-7.74-3.34-7.74-7.66c0-4.26,3.25-7.6,7.4-7.6c4.06,0,7.14,3.37,7.14,7.72v0.84h-11.66
		c0.41,2.47,2.44,4.24,4.99,4.24c1.45,0,2.81-0.49,3.74-1.31l1.86,1.83C144.65,107.65,142.85,108.26,140.64,108.26z M135.8,99.38
		h8.76c-0.43-2.26-2.18-3.94-4.32-3.94C138,95.44,136.23,97.04,135.8,99.38z"/>
	<path d="M161.55,106.61c-1.25,1.04-2.81,1.62-4.52,1.62c-4.18,0-7.46-3.34-7.46-7.63c0-4.26,3.28-7.6,7.51-7.6
		c1.62,0,3.16,0.52,4.44,1.45V87.7l2.9-0.64V108h-2.87V106.61z M157.44,105.71c1.65,0,3.1-0.64,4.09-1.77v-6.7
		c-0.96-1.1-2.47-1.74-4.09-1.74c-2.84,0-5.02,2.18-5.02,5.08S154.59,105.71,157.44,105.71z"/>
	<path d="M174.25,87.7h3.05v8.7h10.79v-8.7h3.04V108h-3.04v-8.85H177.3V108h-3.05V87.7z"/>
	<path d="M193.89,103.76c0-2.78,2.26-4.5,5.98-4.5c1.42,0,2.78,0.29,4.03,0.81v-1.57c0-2.09-1.25-3.13-3.6-3.13
		c-1.36,0-2.75,0.38-4.58,1.25l-1.07-2.17c2.21-1.04,4.12-1.51,6.06-1.51c3.83,0,6.03,1.89,6.03,5.28V108h-2.84v-1.28
		c-1.31,1.04-2.79,1.54-4.58,1.54C196.09,108.26,193.89,106.43,193.89,103.76z M199.98,106.11c1.57,0,2.87-0.46,3.92-1.39v-2.55
		c-1.13-0.61-2.32-0.9-3.8-0.9c-2.12,0-3.42,0.96-3.42,2.44C196.67,105.13,198,106.11,199.98,106.11z"/>
	<path d="M211.4,95.67h-3.13v-2.44h3.13v-3.77l2.87-0.7v4.47h4.35v2.44h-4.35v8.01c0,1.51,0.61,2.06,2.17,2.06
		c0.81,0,1.39-0.09,2.12-0.35v2.44c-0.78,0.26-1.89,0.43-2.76,0.43c-2.87,0-4.41-1.36-4.41-3.92V95.67z"/>
	<path d="M227.18,87.7h14.97v2.67h-11.92v6.09h7.83v2.61h-7.83v6.27h12.04V108h-15.08V87.7z"/>
	<path d="M245.04,93.24h2.9v1.48c1.16-1.16,2.67-1.77,4.44-1.77c3.39,0,5.77,2.35,5.77,5.77V108h-2.9v-8.79
		c0-2.32-1.42-3.74-3.65-3.74c-1.57,0-2.84,0.67-3.66,1.92V108h-2.9V93.24z"/>
	<path d="M262.82,95.67h-3.13v-2.44h3.13v-3.77l2.87-0.7v4.47h4.35v2.44h-4.35v8.01c0,1.51,0.61,2.06,2.18,2.06
		c0.81,0,1.39-0.09,2.12-0.35v2.44c-0.78,0.26-1.88,0.43-2.75,0.43c-2.87,0-4.41-1.36-4.41-3.92V95.67z"/>
	<path d="M278.94,108.26c-4.35,0-7.74-3.34-7.74-7.66c0-4.26,3.25-7.6,7.4-7.6c4.06,0,7.14,3.37,7.14,7.72v0.84h-11.66
		c0.41,2.47,2.44,4.24,4.99,4.24c1.45,0,2.81-0.49,3.74-1.31l1.86,1.83C282.95,107.65,281.15,108.26,278.94,108.26z M274.1,99.38
		h8.76c-0.43-2.26-2.18-3.94-4.32-3.94C276.3,95.44,274.54,97.04,274.1,99.38z"/>
	<path d="M288.48,93.24h2.9v1.89c0.9-1.42,2.32-2.21,4.06-2.21c0.64,0,1.04,0.06,1.48,0.23v2.61c-0.55-0.2-1.13-0.32-1.71-0.32
		c-1.71,0-3.07,0.93-3.83,2.7V108h-2.9V93.24z"/>
	<path d="M299.24,93.24h2.87v1.42c1.22-1.07,2.78-1.65,4.53-1.65c4.18,0,7.45,3.34,7.45,7.6c0,4.29-3.28,7.63-7.51,7.63
		c-1.62,0-3.19-0.52-4.44-1.45V114h-2.9V93.24z M302.14,97.3v6.67c0.93,1.07,2.46,1.74,4.12,1.74c2.84,0,4.99-2.17,4.99-5.08
		c0-2.9-2.17-5.1-4.99-5.1C304.58,95.53,303.1,96.16,302.14,97.3z"/>
	<path d="M316.85,93.24h2.9v1.89c0.9-1.42,2.32-2.21,4.06-2.21c0.64,0,1.04,0.06,1.48,0.23v2.61c-0.55-0.2-1.13-0.32-1.71-0.32
		c-1.71,0-3.08,0.93-3.83,2.7V108h-2.9V93.24z"/>
	<path d="M327.29,89.06c0-0.99,0.78-1.8,1.77-1.8s1.8,0.81,1.8,1.8s-0.81,1.8-1.8,1.8S327.29,90.04,327.29,89.06z M330.5,108h-2.9
		V93.24h2.9V108z"/>
	<path d="M334.1,104.17c1.54,1.22,3.16,1.86,4.82,1.86c2.09,0,3.54-0.9,3.54-2.2c0-1.04-0.75-1.65-2.38-1.89l-2.67-0.38
		c-2.93-0.44-4.41-1.8-4.41-4.09c0-2.67,2.32-4.47,5.77-4.47c2.18,0,4.09,0.61,5.95,1.89l-1.48,1.92c-1.62-1.07-3.1-1.54-4.67-1.54
		c-1.77,0-2.96,0.81-2.96,2c0,1.07,0.7,1.6,2.44,1.86l2.67,0.38c2.93,0.44,4.47,1.83,4.47,4.12c0,2.64-2.67,4.64-6.18,4.64
		c-2.55,0-4.84-0.75-6.47-2.17L334.1,104.17z"/>
	<path d="M354.63,108.26c-4.35,0-7.75-3.34-7.75-7.66c0-4.26,3.25-7.6,7.4-7.6c4.06,0,7.14,3.37,7.14,7.72v0.84h-11.66
		c0.41,2.47,2.44,4.24,4.99,4.24c1.45,0,2.81-0.49,3.74-1.31l1.86,1.83C358.64,107.65,356.84,108.26,354.63,108.26z M349.79,99.38
		h8.76c-0.44-2.26-2.18-3.94-4.32-3.94C351.99,95.44,350.22,97.04,349.79,99.38z"/>
	<path d="M370.58,87.7h3.05v17.61h11.69v2.7h-14.74V87.7z"/>
	<path d="M387.72,89.06c0-0.99,0.78-1.8,1.77-1.8s1.8,0.81,1.8,1.8s-0.81,1.8-1.8,1.8S387.72,90.04,387.72,89.06z M390.94,108h-2.9
		V93.24h2.9V108z"/>
	<path d="M394.36,93.24h2.9v1.48c1.16-1.16,2.67-1.77,4.44-1.77c3.39,0,5.77,2.35,5.77,5.77V108h-2.9v-8.79
		c0-2.32-1.42-3.74-3.66-3.74c-1.57,0-2.84,0.67-3.65,1.92V108h-2.9V93.24z"/>
	<path d="M413.5,102c0,2.32,1.42,3.77,3.66,3.77c1.57,0,2.81-0.7,3.63-1.94V93.24h2.9V108h-2.9v-1.48
		c-1.16,1.16-2.64,1.77-4.44,1.77c-3.39,0-5.74-2.38-5.74-5.8v-9.25h2.9V102z"/>
	<path d="M431.19,100.43l-5.51-7.19h3.39l3.8,5.08l3.8-5.08h3.28l-5.45,7.17l5.83,7.6h-3.42l-4.06-5.45l-4.12,5.45h-3.28
		L431.19,100.43z"/>
</g>
</svg>
