<?xml version="1.0" encoding="utf-8"?>
<!-- Generator: Adobe Illustrator 25.2.0, SVG Export Plug-In . SVG Version: 6.00 Build 0)  -->
<svg version="1.1" id="Layer_1" xmlns="http://www.w3.org/2000/svg" xmlns:xlink="http://www.w3.org/1999/xlink" x="0px" y="0px"
	 viewBox="0 0 555 200" style="enable-background:new 0 0 555 200;" xml:space="preserve">
<style type="text/css">
	.st0{fill:#F3F3F3;}
	.st1{fill:#FFFFFF;stroke:#D9D9D9;}
	.st2{enable-background:new    ;}
	.st3{fill:#EE0000;}
	.st4{opacity:0.5;fill:#A7C0E4;enable-background:new    ;}
	.st5{fill:#FFFFFF;}
	.st6{opacity:0.5;fill:#6C97D3;enable-background:new    ;}
	.st7{fill:none;stroke:#6C97D3;stroke-width:0.5;stroke-linecap:round;stroke-linejoin:round;stroke-dasharray:2;}
	.st8{fill:none;stroke:#6C97D3;stroke-width:0.5;stroke-linecap:round;stroke-linejoin:round;}
	.st9{fill:none;stroke:#6C97D3;stroke-width:0.5;stroke-linecap:round;stroke-linejoin:round;stroke-dasharray:1.9853,1.9853;}
	.st10{fill:none;stroke:#6C97D3;stroke-width:0.5;stroke-linecap:round;stroke-linejoin:round;stroke-dasharray:2.0346,2.0346;}
	.st11{fill:none;stroke:#6C97D3;stroke-width:0.5;stroke-linecap:round;stroke-linejoin:round;stroke-dasharray:2.0742,2.0742;}
	.st12{fill:none;stroke:#6C97D3;stroke-width:0.5;stroke-linecap:round;stroke-linejoin:round;stroke-dasharray:1.9743,1.9743;}
	.st13{fill:none;stroke:#6C97D3;stroke-width:0.5;stroke-linecap:round;stroke-linejoin:round;stroke-dasharray:2.0471,2.0471;}
	.st14{fill:none;stroke:#6C97D3;stroke-width:0.5;stroke-linecap:round;stroke-linejoin:round;stroke-dasharray:1.9981,1.9981;}
	.st15{fill:none;stroke:#6C97D3;stroke-width:0.5;stroke-linecap:round;stroke-linejoin:round;stroke-dasharray:1.9683,1.9683;}
	.st16{fill:none;stroke:#6C97D3;stroke-width:0.5;stroke-linecap:round;stroke-linejoin:round;stroke-dasharray:1.9294,1.9294;}
	.st17{fill:none;stroke:#6C97D3;stroke-width:0.5;stroke-linecap:round;stroke-linejoin:round;stroke-dasharray:2.0164,2.0164;}
	.st18{fill:none;stroke:#6C97D3;stroke-width:0.5;stroke-linecap:round;stroke-linejoin:round;stroke-dasharray:2.0013,2.0013;}
	.st19{fill:none;stroke:#6C97D3;stroke-width:0.5;stroke-linecap:round;stroke-linejoin:round;stroke-dasharray:1.9039,1.9039;}
	.st20{fill:none;stroke:#6C97D3;stroke-width:0.5;stroke-linecap:round;stroke-linejoin:round;stroke-dasharray:2.0142,2.0142;}
	.st21{fill:#EE0100;}
	.st22{fill:#53A3DA;}
	.st23{fill:#F1606D;}
	.st24{fill:#231F20;}
	.st25{fill:#53A4D9;}
	.st26{clip-path:url(#SVGID_4_);}
	.st27{fill:url(#);}
</style>
<g id="Product_Icon-Red_Hat-Ansible-RGB" transform="translate(818.035 56)">
	<path id="Path_542" d="M-518.05-0.97h-44.96c-12.42,0-22.48,10.07-22.48,22.48v44.97c0,12.42,10.07,22.48,22.48,22.48h44.96
		c12.42,0,22.48-10.07,22.48-22.48V21.52C-495.57,9.1-505.64-0.96-518.05-0.97z"/>
	<path id="Path_543" class="st5" d="M-550.53,55.55c-0.22,0-0.44-0.05-0.64-0.14c-0.79-0.35-1.14-1.28-0.78-2.06c0,0,0,0,0,0
		l5.05-11.19l0.02-0.04l4.92-10.91c0.43-0.79,1.42-1.07,2.2-0.64c0.27,0.15,0.49,0.37,0.64,0.64l9.99,22.15
		c0.35,0.79,0,1.71-0.78,2.07c-0.52,0.23-1.12,0.17-1.58-0.17l-13.36-10.05l-4.26,9.44C-549.36,55.19-549.91,55.55-550.53,55.55z
		 M-543.53,42.28l9.06,6.81l-6.07-13.45L-543.53,42.28z"/>
	<path id="Path_544" class="st3" d="M-540.53,71.79c-15.35,0-27.79-12.44-27.79-27.79s12.44-27.79,27.79-27.79
		s27.79,12.44,27.79,27.79l0,0C-512.74,59.35-525.19,71.79-540.53,71.79z M-540.53,19.33c-13.62,0-24.67,11.04-24.67,24.67
		s11.04,24.67,24.67,24.67s24.67-11.04,24.67-24.67l0,0C-515.87,30.38-526.91,19.33-540.53,19.33L-540.53,19.33z"/>
</g>
</svg>
