<svg xmlns="http://www.w3.org/2000/svg" width="555" height="175" viewBox="0 0 555 175"><defs><style>.a{fill:#e00;}</style></defs><path d="M353.267,77.4478h10.1709a6.8439,6.8439,0,0,1,7.0232,6.7609,6.416,6.416,0,0,1-3.7884,5.8l4.4295,7.8392h-5.5954l-3.8177-7.14h-3.41v7.14H353.267Zm5.0124,4.2839v4.8375h4.5756a2.4478,2.4478,0,0,0,2.5355-2.3605,2.5063,2.5063,0,0,0-2.5355-2.477Z"/><path d="M379.0592,98.1387a8.0935,8.0935,0,0,1-8.3929-7.9848,7.9185,7.9185,0,0,1,8.0431-7.9853c4.4881,0,7.781,3.5264,7.781,8.3058v1.2822H375.5039a3.9836,3.9836,0,0,0,3.7884,2.4481,4.1757,4.1757,0,0,0,3.0892-1.1659L385.5,95.8074A9.251,9.251,0,0,1,379.0592,98.1387Zm-3.5846-9.6751h6.4114a3.4458,3.4458,0,0,0-3.2348-2.4187A3.2064,3.2064,0,0,0,375.4746,88.4636Z"/><path d="M399.8383,96.7109a6.979,6.979,0,0,1-4.1379,1.37,7.9419,7.9419,0,1,1,4.08-14.8335V77.4478l4.7212-1.4571V97.8474h-4.663Zm-3.38-2.6519a4.6769,4.6769,0,0,0,3.3222-1.224V87.4434a4.9837,4.9837,0,0,0-3.3222-1.1947,3.9078,3.9078,0,1,0,0,7.81Z"/><path d="M423.8818,89.8622h-7.81v7.9852H411.059v-20.4h5.0125V85.287h7.81V77.4478h5.0124v20.4h-5.0124Z"/><path d="M439.8822,96.9151a6.8548,6.8548,0,0,1-4.1383,1.1947c-3.4389,0-5.741-2.1568-5.741-4.925,0-2.71,2.1857-4.75,6.0031-4.75a8.261,8.261,0,0,1,3.8762.8742v-.9324c0-1.4864-.9909-2.2442-2.9142-2.2442a11.9213,11.9213,0,0,0-4.6338,1.1076l-1.3989-3.5264a16.2108,16.2108,0,0,1,6.3532-1.5735c4.7208,0,7.3145,2.069,7.3145,5.8285v9.8792h-4.7208Zm-2.8853-2.0986a5.4284,5.4284,0,0,0,2.8853-.7868V92.427a6.1337,6.1337,0,0,0-3.031-.816c-1.4571,0-2.3605.6118-2.3605,1.5738C434.4907,94.2047,435.4523,94.8165,436.9969,94.8165Z"/><path d="M453.784,98.0805c-3.2347,0-5.0417-1.5445-5.0417-4.75V86.3654h-3.264V82.431h3.264V78.9049l4.7212-1.4571V82.431h4.3132v3.9344h-4.3132v5.8867c0,1.3114.6993,1.8069,2.1275,1.8069a5.1,5.1,0,0,0,2.0689-.4665l-.6411,3.8177A8.2167,8.2167,0,0,1,453.784,98.0805Z"/><path class="a" d="M325.69,90.5539c3.4731,0,8.503-.7186,8.503-4.85a3.9239,3.9239,0,0,0-.0863-.95l-2.0694-8.99c-.479-1.9761-.8982-2.8743-4.3713-4.6108-2.6946-1.3773-8.5628-3.6527-10.2994-3.6527-1.6167,0-2.0958,2.0958-4.0119,2.0958-1.8563,0-3.2336-1.5569-4.97-1.5569-1.6766,0-2.7545,1.1377-3.5928,3.4731,0,0-2.3353,6.5868-2.6347,7.5449a1.7278,1.7278,0,0,0-.0613.5389C302.0959,82.1554,312.1769,90.5539,325.69,90.5539ZM334.732,87.38a13.8748,13.8748,0,0,1,.4791,2.8144c0,3.8922-4.3713,6.0479-10.12,6.0479-12.994,0-24.3713-7.6048-24.3713-12.6347a5.1214,5.1214,0,0,1,.4192-2.0359c-4.6707.24-10.7186,1.0778-10.7186,6.4071,0,8.7426,20.7186,19.521,37.1258,19.521,12.5748,0,15.7485-5.6886,15.7485-10.18C343.2949,93.7874,340.241,89.7754,334.732,87.38Z"/><path d="M334.732,87.38a13.8748,13.8748,0,0,1,.4791,2.8144c0,3.8922-4.3713,6.0479-10.12,6.0479-12.994,0-24.3713-7.6048-24.3713-12.6347a5.1214,5.1214,0,0,1,.4192-2.0359l1.018-2.515a1.7278,1.7278,0,0,0-.0613.5389c0,2.56,10.081,10.9581,23.5942,10.9581,3.4731,0,8.503-.7186,8.503-4.85a3.9239,3.9239,0,0,0-.0863-.95Z"/><path d="M97.2233,77.1766h9.5691c4.0463,0,6.7634,2.5106,6.7634,6.2023,0,3.6328-2.7467,6.1431-6.7634,6.1431h-6.4679v8.3287H97.2233Zm3.1012,2.7173v6.9995h6.1431c2.4219,0,3.9575-1.3585,3.9575-3.5145,0-2.1265-1.5356-3.485-3.9575-3.485Z"/><path d="M116.39,82.8179h2.9534v1.9195a4.7058,4.7058,0,0,1,4.1348-2.2445,3.7536,3.7536,0,0,1,1.5064.2363v2.6581a5.061,5.061,0,0,0-1.7427-.3249,4.1041,4.1041,0,0,0-3.8985,2.7468V97.8507H116.39Z"/><path d="M133.6375,98.1166a7.7358,7.7358,0,0,1-7.8856-7.7971,7.5538,7.5538,0,0,1,7.5311-7.7382c4.1348,0,7.2655,3.4262,7.2655,7.8565v.8564H128.6757a5.0707,5.0707,0,0,0,5.08,4.3118,5.8461,5.8461,0,0,0,3.81-1.329l1.89,1.8607A8.9665,8.9665,0,0,1,133.6375,98.1166Zm-4.9322-9.0376h8.9192a4.484,4.484,0,0,0-8.9192,0Z"/><path d="M143.678,93.9523a7.8793,7.8793,0,0,0,4.9026,1.89c2.1265,0,3.6033-.9158,3.6033-2.2447,0-1.0631-.768-1.6835-2.4219-1.92l-2.7172-.3838c-2.9828-.443-4.4892-1.8313-4.4892-4.1642,0-2.7173,2.3628-4.5487,5.8773-4.5487a10.3073,10.3073,0,0,1,6.0546,1.92l-1.5062,1.949a8.3584,8.3584,0,0,0-4.7551-1.5652c-1.8015,0-3.0124.8271-3.0124,2.0378,0,1.0929.7088,1.6246,2.4809,1.89l2.7171.3838c2.9829.4433,4.5482,1.8609,4.5482,4.1941,0,2.6874-2.7171,4.7255-6.2908,4.7255a9.9142,9.9142,0,0,1-6.5861-2.2152Z"/><path d="M164.5872,98.1166a7.7358,7.7358,0,0,1-7.8856-7.7971,7.5539,7.5539,0,0,1,7.5312-7.7382c4.1347,0,7.2654,3.4262,7.2654,7.8565v.8564H159.6254a5.0707,5.0707,0,0,0,5.08,4.3118,5.8464,5.8464,0,0,0,3.81-1.329l1.89,1.8607A8.9663,8.9663,0,0,1,164.5872,98.1166ZM159.655,89.079h8.9193a4.484,4.484,0,0,0-8.9193,0Z"/><path d="M174.3031,82.8179h2.9535V84.324a6.19,6.19,0,0,1,4.5187-1.8015A5.6125,5.6125,0,0,1,187.6526,88.4v9.4509h-2.9534V88.9019a3.4986,3.4986,0,0,0-3.7212-3.81,4.2478,4.2478,0,0,0-3.7214,1.9494V97.8507h-2.9535Z"/><path d="M192.4069,85.2986h-3.19V82.8179h3.19v-3.84l2.9238-.7088v4.5483h4.43v2.4807h-4.43V93.45c0,1.536.62,2.0972,2.215,2.0972a5.8032,5.8032,0,0,0,2.1561-.3545v2.481a9.7823,9.7823,0,0,1-2.8057.443c-2.9239,0-4.4892-1.3881-4.4892-3.9871Z"/><path d="M208.8276,98.1166A7.7358,7.7358,0,0,1,200.942,90.32a7.5539,7.5539,0,0,1,7.5312-7.7382c4.1348,0,7.2655,3.4262,7.2655,7.8565v.8564H203.8659a5.0705,5.0705,0,0,0,5.08,4.3118,5.8463,5.8463,0,0,0,3.81-1.329l1.89,1.8607A8.9668,8.9668,0,0,1,208.8276,98.1166Zm-4.9322-9.0376h8.9193a4.484,4.484,0,0,0-8.9193,0Z"/><path d="M230.121,96.4331a7.1011,7.1011,0,0,1-4.6073,1.6539,7.7529,7.7529,0,1,1,4.5778-14.0289V77.1766l2.9534-.65V97.8507H230.121Zm-4.1939-.9156a5.4177,5.4177,0,0,0,4.1644-1.8017V86.8934a5.4966,5.4966,0,0,0-4.1644-1.7719,5.1988,5.1988,0,0,0,0,10.396Z"/><path d="M250.1734,98.087a7.5135,7.5135,0,0,1-4.5484-1.5061v1.27h-2.9238V77.1766l2.9534-.65v7.7086a6.9642,6.9642,0,0,1,4.5779-1.6542,7.7541,7.7541,0,0,1-.0591,15.5057Zm-4.5188-11.1345v6.7931a5.5739,5.5739,0,0,0,4.1939,1.7719,5.1842,5.1842,0,0,0,0-10.3664A5.3921,5.3921,0,0,0,245.6546,86.9525Z"/><path d="M264.3788,97.91l-5.9955-15.0919h3.2488l4.4006,11.4887,4.8435-11.4887h3.19l-7.2655,16.8343c-1.3881,3.2194-2.983,4.49-5.7592,4.49a5.7065,5.7065,0,0,1-1.5653-.1774v-2.599a5.8348,5.8348,0,0,0,1.3291.118,3.1154,3.1154,0,0,0,2.9828-2.2149Z"/></svg>