<svg xmlns="http://www.w3.org/2000/svg" width="555" height="175" viewBox="0 0 555 175"><defs><style>.a{fill:#e00;}</style></defs><path d="M314.40136,77.44781h10.1709a6.84387,6.84387,0,0,1,7.02322,6.76085,6.41593,6.41593,0,0,1-3.78844,5.79955l4.42954,7.83923h-5.59537l-3.8177-7.13994h-3.4097v7.13994h-5.01245Zm5.01245,4.28389v4.83755h4.57553a2.44785,2.44785,0,0,0,2.5355-2.36059,2.50624,2.50624,0,0,0-2.5355-2.477Z"/><path d="M340.19359,98.13872a8.09353,8.09353,0,0,1-8.39288-7.98487,7.91842,7.91842,0,0,1,8.04306-7.98522c4.48807,0,7.781,3.52642,7.781,8.30577v1.28221H336.63826a3.98368,3.98368,0,0,0,3.78843,2.448,4.17535,4.17535,0,0,0,3.08914-1.16583l3.11841,2.76859A9.25077,9.25077,0,0,1,340.19359,98.13872Zm-3.5846-9.67508h6.41138a3.44579,3.44579,0,0,0-3.23479-2.41877A3.20643,3.20643,0,0,0,336.609,88.46364Z"/><path d="M360.97267,96.71088a6.979,6.979,0,0,1-4.13791,1.36966A7.94189,7.94189,0,1,1,360.91448,83.247v-5.7992l4.72117-1.45712V97.84744h-4.663ZM357.59224,94.059a4.6769,4.6769,0,0,0,3.32224-1.224V87.44345a4.98347,4.98347,0,0,0-3.32224-1.19475,3.90777,3.90777,0,1,0,0,7.81031Z"/><path d="M385.01615,89.86222h-7.81032v7.98522h-5.01245V77.44781h5.01245V85.287h7.81032V77.44781h5.01245V97.84744h-5.01245Z"/><path d="M401.01657,96.91506a6.85463,6.85463,0,0,1-4.13825,1.19475c-3.439,0-5.741-2.15676-5.741-4.925,0-2.71041,2.18568-4.75044,6.003-4.75044a8.26061,8.26061,0,0,1,3.87624.8742v-.93239c0-1.48638-.99093-2.24421-2.91423-2.24421a11.92067,11.92067,0,0,0-4.63372,1.10765l-1.39893-3.52642a16.21013,16.21013,0,0,1,6.3532-1.57349c4.72081,0,7.3145,2.069,7.3145,5.82847v9.87926h-4.72082Zm-2.88532-2.09858a5.429,5.429,0,0,0,2.88532-.78674V92.427a6.13313,6.13313,0,0,0-3.031-.816c-1.45712,0-2.36058.61183-2.36058,1.57384C395.625,94.20465,396.58668,94.81648,398.13125,94.81648Z"/><path d="M414.91842,98.08054c-3.23479,0-5.04172-1.54457-5.04172-4.75009v-6.965h-3.26406V82.431h3.26406V78.90493l4.72117-1.45712V82.431H418.911v3.93443h-4.31316v5.88665c0,1.31148.69929,1.80694,2.12749,1.80694a5.09922,5.09922,0,0,0,2.06895-.46655l-.64111,3.81771A8.21658,8.21658,0,0,1,414.91842,98.08054Z"/><path class="a" d="M286.82447,90.55389c3.47306,0,8.503-.71856,8.503-4.8503a3.92781,3.92781,0,0,0-.08625-.95035l-2.06944-8.98977c-.479-1.976-.8982-2.87425-4.37126-4.61078C286.10591,69.77545,280.23765,67.5,278.50112,67.5c-1.61677,0-2.09581,2.09581-4.012,2.09581-1.85628,0-3.23353-1.55689-4.97006-1.55689-1.67664,0-2.75449,1.13773-3.59281,3.47306,0,0-2.33533,6.58682-2.63473,7.54491a1.72843,1.72843,0,0,0-.06127.53892C263.23027,82.15543,273.31126,90.55389,286.82447,90.55389Zm9.04192-3.17365a13.87585,13.87585,0,0,1,.479,2.81437c0,3.89222-4.37126,6.0479-10.11976,6.0479-12.994,0-24.37126-7.60479-24.37126-12.63473a5.12127,5.12127,0,0,1,.41917-2.03592c-4.67066.23952-10.71857,1.07784-10.71857,6.40718,0,8.74252,20.71857,19.521,37.12575,19.521,12.57485,0,15.7485-5.68862,15.7485-10.17964C304.42926,93.78743,301.37537,89.77545,295.86639,87.38024Z"/><path d="M295.86639,87.38024a13.87585,13.87585,0,0,1,.479,2.81437c0,3.89222-4.37126,6.0479-10.11976,6.0479-12.994,0-24.37126-7.60479-24.37126-12.63473a5.12127,5.12127,0,0,1,.41917-2.03592l1.018-2.515a1.72843,1.72843,0,0,0-.06127.53892c0,2.55962,10.081,10.95808,23.5942,10.95808,3.47306,0,8.503-.71856,8.503-4.8503a3.92781,3.92781,0,0,0-.08625-.95035Z"/><path d="M145.03794,77.17662c4.04609,0,6.70424,2.156,6.70424,5.46387a4.88917,4.88917,0,0,1-2.86485,4.45963,5.19183,5.19183,0,0,1,3.66224,4.87332c0,3.54411-2.80572,5.87728-7.11778,5.87728H136.089V77.17662ZM139.1901,79.8052v6.14312h5.67057c2.33317,0,3.81-1.1811,3.81-3.07129s-1.47678-3.07183-3.81-3.07183Zm10.21877,12.0204c0-2.03776-1.65391-3.39627-4.22336-3.39627H139.1901v6.79281h5.99541C147.755,95.22214,149.40887,93.8932,149.40887,91.8256Z"/><path d="M158.15006,91.73717a3.52177,3.52177,0,0,0,3.72124,3.83951,4.22367,4.22367,0,0,0,3.69182-1.97889V82.81789h2.95342V97.85072h-2.95342V96.34437a6.14192,6.14192,0,0,1-4.51878,1.80176,5.61275,5.61275,0,0,1-5.84771-5.90685V82.81789h2.95343Z"/><path d="M171.67558,78.565a1.81507,1.81507,0,0,1,1.80163-1.83105,1.83106,1.83106,0,0,1,0,3.66211A1.81507,1.81507,0,0,1,171.67558,78.565Zm3.27827,19.28576h-2.95342V82.81789h2.95342Z"/><path d="M181.3917,97.85072h-2.95342V77.17662l2.95342-.64969Z"/><path d="M186.82532,85.29863h-3.18969V82.81789h3.18969V78.97838l2.92386-.70883v4.54834h4.4302v2.48074h-4.4302V93.45c0,1.53591.62025,2.09717,2.215,2.09717a5.80218,5.80218,0,0,0,2.156-.35455v2.481a9.78062,9.78062,0,0,1-2.80572.443c-2.924,0-4.48921-1.38808-4.48921-3.98709Z"/><path d="M209.6838,82.52248a7.81184,7.81184,0,1,1-7.8266,7.797A7.71538,7.71538,0,0,1,209.6838,82.52248Zm4.90262,7.797a4.92667,4.92667,0,1,0-4.90262,5.2276A5.01736,5.01736,0,0,0,214.58642,90.31952Z"/><path d="M220.28575,82.81789h2.95342V84.324a6.19041,6.19041,0,0,1,4.51877-1.80149,5.61247,5.61247,0,0,1,5.87728,5.87728v9.451H230.6818V88.90188a3.49859,3.49859,0,0,0-3.72125-3.81,4.248,4.248,0,0,0-3.72138,1.94933V97.85072h-2.95342Z"/></svg>