<svg xmlns="http://www.w3.org/2000/svg" width="262" height="180" viewBox="0 0 262 180"><defs><style>.a{fill:#e00;}</style></defs><path d="M76.0255,83.4713h5.594a3.76412,3.76412,0,0,1,3.86277,3.71846,3.52875,3.52875,0,0,1-2.08364,3.18976l2.43625,4.31157H82.75741l-2.09973-3.927H78.78235v3.927H76.0255Zm2.75685,2.35614v2.66065h2.51654a1.34632,1.34632,0,0,0,1.39452-1.29833,1.37842,1.37842,0,0,0-1.39452-1.36232Z"/><path d="M90.21122,94.8513a4.45144,4.45144,0,0,1-4.61608-4.39168,4.35513,4.35513,0,0,1,4.42368-4.39187,4.30232,4.30232,0,0,1,4.27958,4.56817v.70522H88.25579a2.191,2.191,0,0,0,2.08364,1.34642,2.29646,2.29646,0,0,0,1.699-.64121l1.71512,1.52272A5.0879,5.0879,0,0,1,90.21122,94.8513ZM88.23969,89.53H91.766a1.89519,1.89519,0,0,0-1.77913-1.33032A1.76355,1.76355,0,0,0,88.23969,89.53Z"/><path d="M101.63971,94.066a3.83842,3.83842,0,0,1-2.27584.75332,4.368,4.368,0,1,1,2.24384-8.15845V83.4713l2.59665-.80142V94.69109h-2.56465Zm-1.85923-1.45853a2.57227,2.57227,0,0,0,1.82723-.67321V88.9689a2.74088,2.74088,0,0,0-1.82723-.65712,2.14928,2.14928,0,1,0,0,4.29567Z"/><path d="M114.86363,90.29922H110.568v4.39187h-2.75685V83.4713H110.568v4.31157h4.29567V83.4713h2.75685V94.69109h-2.75685Z"/><path d="M123.66386,94.17828a3.77,3.77,0,0,1-2.276.65711c-1.89143,0-3.15755-1.18621-3.15755-2.70874,0-1.49073,1.20212-2.61275,3.30166-2.61275a4.54338,4.54338,0,0,1,2.13193.48081V89.4819c0-.81751-.545-1.23432-1.60283-1.23432a6.55649,6.55649,0,0,0-2.54854.60921l-.76941-1.93953a8.91558,8.91558,0,0,1,3.49426-.86542c2.59645,0,4.023,1.13792,4.023,3.20566v5.43359h-2.59645Zm-1.58692-1.15421a2.98591,2.98591,0,0,0,1.58692-.43271v-.88152a3.37322,3.37322,0,0,0-1.667-.44881c-.80141,0-1.29832.33651-1.29832.86562C120.69851,92.68756,121.22742,93.02407,122.07694,93.02407Z"/><path d="M131.30988,94.8193c-1.77913,0-2.77295-.84952-2.77295-2.61255V88.376H126.7417V86.21205h1.79523V84.27271l2.59665-.80141v2.74075h2.37224V88.376h-2.37224v3.23766c0,.72131.38461.99381,1.17012.99381a2.80477,2.80477,0,0,0,1.13792-.25659l-.35261,2.09973A4.51915,4.51915,0,0,1,131.30988,94.8193Z"/><path class="a" d="M60.85821,90.67964c1.91018,0,4.67665-.39521,4.67665-2.66766a2.16039,2.16039,0,0,0-.04744-.5227l-1.13819-4.94437c-.26348-1.08683-.494-1.58084-2.40419-2.53593A22.29778,22.29778,0,0,0,56.28037,78c-.88923,0-1.1527,1.15269-2.20659,1.15269-1.021,0-1.77844-.85628-2.73353-.85628-.92216,0-1.515.62575-1.97605,1.91018,0,0-1.28443,3.62275-1.4491,4.1497a.95045.95045,0,0,0-.03371.2964C47.88139,86.06048,53.42594,90.67964,60.85821,90.67964Zm4.97305-1.74551a7.63154,7.63154,0,0,1,.26348,1.54791c0,2.14071-2.4042,3.32634-5.56587,3.32634-7.14671,0-13.40419-4.18263-13.40419-6.9491a2.81677,2.81677,0,0,1,.23054-1.11976c-2.56887.13174-5.89521.59282-5.89521,3.52395C41.46,94.07186,52.85522,100,61.87917,100c6.91617,0,8.66167-3.12874,8.66167-5.5988C70.54084,92.45808,68.8612,90.2515,65.83126,88.93413Z"/><path d="M65.83126,88.93413a7.63154,7.63154,0,0,1,.26348,1.54791c0,2.14071-2.4042,3.32634-5.56587,3.32634-7.14671,0-13.40419-4.18263-13.40419-6.9491a2.81677,2.81677,0,0,1,.23054-1.11976l.55988-1.38323a.95045.95045,0,0,0-.03371.2964c0,1.40779,5.54455,6.02695,12.97682,6.02695,1.91018,0,4.67665-.39521,4.67665-2.66766a2.16039,2.16039,0,0,0-.04744-.5227Z"/><path d="M142.55731,91.60661a5.4882,5.4882,0,0,0,3.91478,1.78678c1.64057,0,2.76141-.7797,2.76141-1.90062,0-1.00708-.64975-1.51062-2.30658-1.78678l-1.90055-.30854c-2.07921-.34107-3.10255-1.31577-3.10255-2.95649,0-1.98164,1.65683-3.265,4.19087-3.265a7.6283,7.6283,0,0,1,4.58079,1.54329l-.94217,1.29951a6.04025,6.04025,0,0,0-3.71986-1.39708c-1.47817,0-2.46906.68228-2.46906,1.68951,0,.92591.56859,1.3644,2.03049,1.608l1.83558.29243c2.40408.38985,3.4924,1.38067,3.4924,3.15134,0,2.09532-1.81931,3.4924-4.532,3.4924a6.84953,6.84953,0,0,1-4.87315-2.04668Z"/><path d="M153.89494,91.33044a1.937,1.937,0,0,0,2.04669,2.11174,2.323,2.323,0,0,0,2.03049-1.08839v-5.929h1.62439V94.6929h-1.62439v-.82849a3.378,3.378,0,0,1-2.48532.991,3.087,3.087,0,0,1-3.21624-3.24876V86.42484h1.62438Z"/><path d="M161.51264,86.42484h1.6082v.79582a3.77281,3.77281,0,0,1,2.534-.92592,4.26409,4.26409,0,1,1-2.51777,7.71588v4.04473h-1.62439Zm1.62439,2.27407V92.4351a3.0658,3.0658,0,0,0,2.30666.97455,2.85136,2.85136,0,0,0,0-5.70156A2.96562,2.96562,0,0,0,163.137,88.69891Z"/><path d="M171.37211,86.42484h1.60812v.79582a3.773,3.773,0,0,1,2.53411-.92592,4.26409,4.26409,0,1,1-2.51785,7.71588v4.04473h-1.62438Zm1.62438,2.27407V92.4351a3.0658,3.0658,0,0,0,2.30666.97455,2.85136,2.85136,0,0,0,0-5.70156A2.96562,2.96562,0,0,0,172.99649,88.69891Z"/><path d="M185.19506,86.26237a4.29651,4.29651,0,1,1-4.30463,4.28837A4.24345,4.24345,0,0,1,185.19506,86.26237Zm2.69644,4.28837a2.70967,2.70967,0,1,0-2.69644,2.87518A2.75954,2.75954,0,0,0,187.8915,90.55074Z"/><path d="M191.02613,86.42484h1.62439v1.05572a2.58809,2.58809,0,0,1,2.27413-1.23445,2.06426,2.06426,0,0,1,.82842.12995v1.462a2.78247,2.78247,0,0,0-.95837-.17874,2.25716,2.25716,0,0,0-2.14418,1.51077V94.6929h-1.62439Z"/><path d="M198.18916,87.78925h-1.75434V86.42484h1.75434V84.31311l1.60812-.38985v2.50158h2.43661v1.36441h-2.43661v4.48322c0,.84476.34114,1.15345,1.21827,1.15345a3.191,3.191,0,0,0,1.18581-.195v1.36456a5.37933,5.37933,0,0,1-1.54314.24364c-1.6082,0-2.46906-.76344-2.46906-2.1929Z"/><path d="M207.2205,94.83911a4.25469,4.25469,0,0,1-4.33708-4.28837,4.15462,4.15462,0,0,1,4.14216-4.256,4.09457,4.09457,0,0,1,3.996,4.321v.471h-6.53006a2.78884,2.78884,0,0,0,2.79394,2.37149,3.21539,3.21539,0,0,0,2.09547-.73092l1.03961,1.02335A4.93169,4.93169,0,0,1,207.2205,94.83911Zm-2.7127-4.97065h4.9056a2.46621,2.46621,0,0,0-4.9056,0Z"/><path d="M218.93187,93.91319a3.90563,3.90563,0,0,1-2.534.90966,4.26409,4.26409,0,1,1,2.51777-7.71588V83.32214l1.62438-.35732V94.6929h-1.60812Zm-2.30666-.50354a2.97965,2.97965,0,0,0,2.2904-.991V88.66638a3.023,3.023,0,0,0-2.2904-.97455,2.85933,2.85933,0,0,0,0,5.71782Z"/></svg>