<svg xmlns="http://www.w3.org/2000/svg" width="750" height="136" viewBox="0 0 750 136"><defs><style>.a{fill:#a7c0e4;}.a,.d{opacity:0.5;}.b{fill:#fff;}.c{fill:#e00;}.d,.e{fill:#6c97d3;}</style></defs><rect class="a" x="0.1301" y="1.09" width="749.7399" height="134.7798"/><rect class="b" x="29.7851" y="31.0172" width="690.4299" height="74.9254"/><path d="M533.7625,57.6866v9.0652h8.5743a4.5871,4.5871,0,0,0,4.7515-4.4235,4.6965,4.6965,0,0,0-4.7515-4.6417Zm-9.3931-8.0279h19.06c7.21,0,13.16,5.4611,13.16,12.67a12.0215,12.0215,0,0,1-7.1,10.8677l8.3026,14.6905H547.3064l-7.1543-13.38h-6.39v13.38h-9.3931V49.6587Z"/><path d="M565.9848,70.3016h12.0141a6.4555,6.4555,0,0,0-6.0591-4.5324,6.0122,6.0122,0,0,0-5.955,4.5324ZM572.7,88.4325c-8.844,0-15.7254-6.5531-15.7254-14.9635a14.8379,14.8379,0,0,1,15.0747-14.9637c8.4067,0,14.58,6.6082,14.58,15.5645v2.403H566.0421A7.46,7.46,0,0,0,573.137,81.06a7.8167,7.8167,0,0,0,5.7884-2.1848l5.8457,5.1879A17.3368,17.3368,0,0,1,572.7,88.4325Z"/><path d="M605.3063,80.787a8.7638,8.7638,0,0,0,6.2256-2.2936V68.39a9.3326,9.3326,0,0,0-6.2256-2.2389,7.3229,7.3229,0,1,0,0,14.636Zm6.335,4.9694a13.0737,13.0737,0,0,1-7.7561,2.5668,14.8826,14.8826,0,1,1,7.6467-27.797V49.6587l8.8492-2.7305V87.8865h-8.74v-2.13Z"/><polygon points="656.699 72.923 642.061 72.923 642.061 87.886 632.666 87.886 632.666 49.659 642.061 49.659 642.061 64.349 656.699 64.349 656.699 49.659 666.089 49.659 666.089 87.886 656.699 87.886 656.699 72.923 656.699 72.923"/><path d="M681.2736,82.2064a10.18,10.18,0,0,0,5.4083-1.4743V77.7289a11.508,11.508,0,0,0-5.679-1.5291c-2.7328,0-4.4246,1.1463-4.4246,2.9488,0,1.9114,1.8011,3.0578,4.6953,3.0578Zm5.4083,3.9332a12.85,12.85,0,0,1-7.7559,2.2383c-6.4442,0-10.76-4.0415-10.76-9.2293,0-5.0788,4.0967-8.902,11.2489-8.902a15.49,15.49,0,0,1,7.2666,1.6384V70.1378c0-2.7854-1.8582-4.2054-5.46-4.2054a22.3532,22.3532,0,0,0-8.6877,2.0755L669.9154,61.4A30.368,30.368,0,0,1,681.82,58.4512c8.8439,0,13.7058,3.8771,13.7058,10.9221V87.8865h-8.844V86.14Z"/><path d="M712.73,88.3232c-6.0592,0-9.4479-2.8947-9.4479-8.9015V66.37h-6.1162V58.9969h6.1162V52.3892l8.8492-2.73v9.3382h8.084V66.37h-8.084V77.401c0,2.4578,1.3118,3.386,3.9874,3.386a9.5607,9.5607,0,0,0,3.878-.8743l-1.2024,7.1544a15.4065,15.4065,0,0,1-6.0643,1.2561Z"/><path class="c" d="M489.636,68.2715c.8974,4.2642.8974,4.713.8974,5.2738,0,7.2941-8.1912,11.3335-18.9632,11.3335-24.35,0-45.67-14.2509-45.67-23.6768a9.5986,9.5986,0,0,1,.7855-3.815c-8.7523.4488-20.086,2.02-20.086,12.0066,0,16.3826,38.8254,36.5811,69.5714,36.5811,23.5643,0,29.5114-10.66,29.5114-19.0757,0-6.6208-5.7223-14.1391-16.0461-18.6275Zm-16.944,5.9473c6.5083,0,15.9342-1.3466,15.9342-9.0893a7.3745,7.3745,0,0,0-.1614-1.7808l-3.878-16.8463c-.8979-3.7029-1.6835-5.386-8.1917-8.64-5.05-2.5811-16.0466-6.845-19.3-6.845-3.03,0-3.9275,3.9274-7.5182,3.9274-3.4787,0-6.0595-2.9176-9.3134-2.9176-3.142,0-5.1622,2.1322-6.7326,6.5083,0,0-4.3767,12.3434-4.9379,14.1389a3.2468,3.2468,0,0,0-.1145,1.01c0,4.7967,18.8914,20.5348,44.214,20.5348Z"/><path d="M489.636,68.2715c.8974,4.2642.8974,4.713.8974,5.2738,0,7.2941-8.1912,11.3335-18.9632,11.3335-24.35,0-45.67-14.2509-45.67-23.6768a9.5986,9.5986,0,0,1,.7855-3.815l1.9072-4.7128a3.2468,3.2468,0,0,0-.1145,1.01c0,4.7967,18.8914,20.5348,44.214,20.5348,6.5083,0,15.9342-1.3466,15.9342-9.0893a7.3745,7.3745,0,0,0-.1614-1.7808l1.1712,4.9228Z"/><path d="M34.2894,77.3771c4.1508,4.0952,8.4124,6.0879,13.3382,6.0879,5.6452,0,9.4086-2.6566,9.4086-6.4758,0-3.3758-2.103-5.1469-7.8589-6.0878L42.7018,69.85c-7.1947-1.2178-10.5708-4.5939-10.5708-10.073,0-6.6968,5.59-11.1245,14.2789-11.1245a26.2376,26.2376,0,0,1,15.6075,5.258l-3.21,4.4276c-4.2063-3.21-8.4125-4.76-12.6739-4.76-5.0366,0-8.4125,2.3244-8.4125,5.7559,0,3.0994,1.937,4.649,6.918,5.4792l6.2541.9962c8.2465,1.3283,11.8992,4.76,11.8992,10.7367,0,7.0841-6.1987,11.9-15.4414,11.9a23.3358,23.3358,0,0,1-16.6035-6.9738l3.5421-4.0952Z"/><path d="M72.9185,76.4916c0,4.3722,2.6565,7.139,7.0287,7.139a7.9322,7.9322,0,0,0,6.9181-3.6523V59.7217H92.4v28.171H86.8653V85.07a11.511,11.511,0,0,1-8.4677,3.3762c-6.4755,0-10.9582-4.5386-10.9582-11.0141v-17.71h5.4791v16.77Z"/><path d="M104.3522,67.4147v12.84a10.4817,10.4817,0,0,0,7.804,3.2654,9.714,9.714,0,0,0,0-19.426,10.0478,10.0478,0,0,0-7.804,3.32Zm-5.5343-7.693h5.4792v2.6567a13.3049,13.3049,0,0,1,8.6341-3.0994,14.53,14.53,0,0,1-.1666,29.0562,13.9436,13.9436,0,0,1-8.4124-2.7672V99.3487H98.8179V59.7217Z"/><path d="M137.89,67.4147v12.84a10.4805,10.4805,0,0,0,7.8039,3.2654,9.714,9.714,0,0,0,0-19.426,10.0475,10.0475,0,0,0-7.8039,3.32Zm-5.5344-7.693h5.4792v2.6567a13.3046,13.3046,0,0,1,8.6336-3.0994,14.53,14.53,0,0,1-.166,29.0562A13.9431,13.9431,0,0,1,137.89,85.568V99.3487h-5.5344V59.7217Z"/><path d="M179.3409,64.0388a9.4117,9.4117,0,0,0-9.2426,9.7408c0,5.4789,4.04,9.7963,9.2426,9.7963,5.1466,0,9.2427-4.3174,9.2427-9.7963a9.4124,9.4124,0,0,0-9.2427-9.7408Zm0-4.87A14.6388,14.6388,0,1,1,164.6743,73.78a14.4583,14.4583,0,0,1,14.6666-14.6111Z"/><path d="M199.1526,59.7217h5.5349v3.487a9.0309,9.0309,0,0,1,7.693-4.0957,8.05,8.05,0,0,1,2.8781.4428V64.537a9.8662,9.8662,0,0,0-3.3205-.609c-2.9338,0-5.701,1.4391-7.2506,5.0915V87.8927h-5.5349V59.7217Z"/><path d="M224.0015,64.3708h-5.9773V59.7217h5.9773V52.527l5.4792-1.3283v8.523h8.3015v4.6491h-8.3015v15.275c0,2.8781,1.1619,3.93,4.1508,3.93a10.6851,10.6851,0,0,0,4.04-.6647v4.6494a18.97,18.97,0,0,1-5.2575.83c-5.48,0-8.4124-2.6011-8.4124-7.4717V64.3708Z"/><path d="M245.53,71.455h16.714c-.7746-4.3169-4.15-7.527-8.2458-7.527-4.3169,0-7.6379,3.0993-8.4682,7.527Zm8.5785-12.176c7.7482,0,13.6152,6.42,13.6152,14.7217v1.6054H245.4742a9.5033,9.5033,0,0,0,9.52,8.08,10.9578,10.9578,0,0,0,7.1392-2.49l3.5423,3.4868a16.6052,16.6052,0,0,1-10.9032,3.7083A14.4965,14.4965,0,0,1,239.9956,73.78,14.1548,14.1548,0,0,1,254.1084,59.279Z"/><path d="M286.8159,83.52A10.086,10.086,0,0,0,294.62,80.144V67.36a10.5228,10.5228,0,0,0-7.8039-3.3207,9.7421,9.7421,0,0,0,0,19.4814Zm7.8591,1.7157a13.3069,13.3069,0,0,1-8.6337,3.0993,14.53,14.53,0,0,1,.11-29.0562,14.1064,14.1064,0,0,1,8.4681,2.7674V49.1509l5.5343-1.2177v39.96H294.675V85.2359Z"/><path d="M323.6731,67.4147v12.84A10.4815,10.4815,0,0,0,331.477,83.52a9.714,9.714,0,0,0,0-19.426,10.0476,10.0476,0,0,0-7.8039,3.32Zm8.4124,20.9205a13.7942,13.7942,0,0,1-8.4671-2.8229v2.38h-5.48V49.1509l5.5344-1.2177v14.39a13.1091,13.1091,0,0,1,8.5784-3.0442,14.53,14.53,0,0,1-.166,29.0562Z"/><path d="M358.7605,87.9479,347.5251,59.7217h6.0888L361.86,81.2511l9.0766-21.5294h5.9773L363.4646,90.9363c-2.5455,5.8113-5.4235,8.4124-10.7918,8.4124a12.025,12.025,0,0,1-2.9337-.2764v-4.87a9.2941,9.2941,0,0,0,2.4355.2212c2.3794,0,4.2611-1.1067,5.5895-4.1513l.9964-2.3242Z"/><path class="d" d="M9.1406,70.3016H21.1547a6.4556,6.4556,0,0,0-6.0591-4.5324,6.0121,6.0121,0,0,0-5.955,4.5324Zm6.7149,18.1309C7.0116,88.4325.13,81.8794.13,73.469A14.838,14.838,0,0,1,15.2049,58.5053c8.4067,0,14.58,6.6082,14.58,15.5645v2.403H9.1978a7.46,7.46,0,0,0,7.095,4.5872,7.8168,7.8168,0,0,0,5.7884-2.1848l5.8457,5.1879a17.3373,17.3373,0,0,1-12.0714,4.3694Z"/><path class="d" d="M565.9848,12.8863h12.0141A6.4555,6.4555,0,0,0,571.94,8.3539a6.0121,6.0121,0,0,0-5.955,4.5324ZM572.7,31.0172c-8.844,0-15.7254-6.5531-15.7254-14.9635A14.8379,14.8379,0,0,1,572.0491,1.09c8.4067,0,14.58,6.6082,14.58,15.5645v2.4029H566.0421a7.46,7.46,0,0,0,7.0949,4.5873,7.8167,7.8167,0,0,0,5.7884-2.1848l5.8457,5.1879A17.3368,17.3368,0,0,1,572.7,31.0172Z"/><path class="d" d="M565.9848,117.7389h12.0141a6.4555,6.4555,0,0,0-6.0591-4.5324,6.0121,6.0121,0,0,0-5.955,4.5324ZM572.7,135.87c-8.844,0-15.7254-6.5531-15.7254-14.9635a14.8379,14.8379,0,0,1,15.0747-14.9637c8.4067,0,14.58,6.6082,14.58,15.5645V123.91H566.0421a7.46,7.46,0,0,0,7.0949,4.5873,7.8167,7.8167,0,0,0,5.7884-2.1848l5.8457,5.1879A17.3368,17.3368,0,0,1,572.7,135.87Z"/><path class="e" d="M556.9745,89.0858a.13.13,0,0,1-.13-.13v-.52a.13.13,0,0,1,.26,0v.52A.13.13,0,0,1,556.9745,89.0858Z"/><path class="e" d="M556.9745,134.4483a.13.13,0,0,1-.13-.13v-1.0309a.13.13,0,1,1,.26,0v1.0309A.13.13,0,0,1,556.9745,134.4483Zm0-2.0621a.13.13,0,0,1-.13-.13v-1.0309a.13.13,0,1,1,.26,0v1.0309A.13.13,0,0,1,556.9745,132.3862Zm0-2.0618a.13.13,0,0,1-.13-.13v-1.0309a.13.13,0,1,1,.26,0v1.0309A.13.13,0,0,1,556.9745,130.3244Zm0-2.0621a.13.13,0,0,1-.13-.13v-1.0309a.13.13,0,0,1,.26,0v1.0309A.13.13,0,0,1,556.9745,128.2623Zm0-2.0618a.13.13,0,0,1-.13-.13V125.04a.13.13,0,1,1,.26,0V126.07A.13.13,0,0,1,556.9745,126.2005Zm0-2.0618a.13.13,0,0,1-.13-.13v-1.0312a.13.13,0,0,1,.26,0v1.0312A.13.13,0,0,1,556.9745,124.1387Zm0-2.0621a.13.13,0,0,1-.13-.13v-1.0309a.13.13,0,0,1,.26,0v1.0309A.13.13,0,0,1,556.9745,122.0766Zm0-2.0618a.13.13,0,0,1-.13-.13v-1.0312a.13.13,0,0,1,.26,0v1.0312A.13.13,0,0,1,556.9745,120.0148Zm0-2.0621a.13.13,0,0,1-.13-.13v-1.0309a.13.13,0,0,1,.26,0v1.0309A.13.13,0,0,1,556.9745,117.9527Zm0-2.0618a.13.13,0,0,1-.13-.13V114.73a.13.13,0,0,1,.26,0v1.0312A.13.13,0,0,1,556.9745,115.8909Zm0-2.0621a.13.13,0,0,1-.13-.13v-1.0309a.13.13,0,0,1,.26,0v1.0309A.13.13,0,0,1,556.9745,113.8288Zm0-2.0618a.13.13,0,0,1-.13-.13V110.606a.13.13,0,0,1,.26,0v1.0309A.13.13,0,0,1,556.9745,111.767Zm0-2.062a.13.13,0,0,1-.13-.13v-1.0309a.13.13,0,0,1,.26,0v1.0309A.13.13,0,0,1,556.9745,109.705Zm0-2.0619a.13.13,0,0,1-.13-.13v-1.0309a.13.13,0,0,1,.26,0v1.0309A.13.13,0,0,1,556.9745,107.6431Zm0-2.062a.13.13,0,0,1-.13-.13V104.42a.13.13,0,0,1,.26,0v1.0309A.13.13,0,0,1,556.9745,105.5811Zm0-2.0618a.13.13,0,0,1-.13-.13v-1.0309a.13.13,0,0,1,.26,0v1.0309A.13.13,0,0,1,556.9745,103.5193Zm0-2.0619a.13.13,0,0,1-.13-.13v-1.0312a.13.13,0,0,1,.26,0v1.0312A.13.13,0,0,1,556.9745,101.4574Zm0-2.062a.13.13,0,0,1-.13-.13V98.2343a.13.13,0,0,1,.26,0v1.0309A.13.13,0,0,1,556.9745,99.3954Zm0-2.0619a.13.13,0,0,1-.13-.13V96.1722a.13.13,0,0,1,.26,0v1.0312A.13.13,0,0,1,556.9745,97.3335Zm0-2.062a.13.13,0,0,1-.13-.13V94.11a.13.13,0,0,1,.26,0v1.0309A.13.13,0,0,1,556.9745,95.2715Zm0-2.0618a.13.13,0,0,1-.13-.13V92.0484a.13.13,0,1,1,.26,0V93.08A.13.13,0,0,1,556.9745,93.21Zm0-2.0621a.13.13,0,0,1-.13-.13V89.9865a.13.13,0,0,1,.26,0v1.0309A.13.13,0,0,1,556.9745,91.1476Z"/><path class="e" d="M556.9745,136a.13.13,0,0,1-.13-.13v-.52a.13.13,0,1,1,.26,0v.52A.13.13,0,0,1,556.9745,136Z"/><path class="e" d="M556.9745,59.1559a.13.13,0,0,1-.13-.13v-.52a.13.13,0,1,1,.26,0v.52A.13.13,0,0,1,556.9745,59.1559Z"/><path class="e" d="M556.9745,86.9749a.13.13,0,0,1-.13-.13v-1.07a.13.13,0,0,1,.26,0v1.07A.13.13,0,0,1,556.9745,86.9749Zm0-2.14a.13.13,0,0,1-.13-.13v-1.07a.13.13,0,1,1,.26,0v1.07A.13.13,0,0,1,556.9745,84.8348Zm0-2.14a.13.13,0,0,1-.13-.13v-1.07a.13.13,0,1,1,.26,0v1.07A.13.13,0,0,1,556.9745,82.6949Zm0-2.14a.13.13,0,0,1-.13-.13v-1.07a.13.13,0,0,1,.26,0v1.07A.13.13,0,0,1,556.9745,80.5551Zm0-2.14a.13.13,0,0,1-.13-.13v-1.07a.13.13,0,1,1,.26,0v1.07A.13.13,0,0,1,556.9745,78.4152Zm0-2.14a.13.13,0,0,1-.13-.13v-1.07a.13.13,0,0,1,.26,0v1.07A.13.13,0,0,1,556.9745,76.2751Zm0-2.14a.13.13,0,0,1-.13-.13v-1.07a.13.13,0,0,1,.26,0v1.07A.13.13,0,0,1,556.9745,74.1353Zm0-2.14a.13.13,0,0,1-.13-.13v-1.07a.13.13,0,1,1,.26,0v1.07A.13.13,0,0,1,556.9745,71.9954Zm0-2.14a.13.13,0,0,1-.13-.13v-1.07a.13.13,0,0,1,.26,0v1.07A.13.13,0,0,1,556.9745,69.8556Zm0-2.14a.13.13,0,0,1-.13-.13v-1.07a.13.13,0,1,1,.26,0v1.07A.13.13,0,0,1,556.9745,67.7155Zm0-2.14a.13.13,0,0,1-.13-.13v-1.07a.13.13,0,1,1,.26,0v1.07A.13.13,0,0,1,556.9745,65.5756Zm0-2.14a.13.13,0,0,1-.13-.13v-1.07a.13.13,0,0,1,.26,0v1.07A.13.13,0,0,1,556.9745,63.4358Zm0-2.14a.13.13,0,0,1-.13-.13v-1.07a.13.13,0,1,1,.26,0v1.07A.13.13,0,0,1,556.9745,61.296Z"/><path class="e" d="M556.9745,88.5652a.13.13,0,0,1-.13-.13v-.5205a.13.13,0,1,1,.26,0v.5205A.13.13,0,0,1,556.9745,88.5652Z"/><path class="e" d="M556.9745,1.7406a.13.13,0,0,1-.13-.13V1.09a.13.13,0,1,1,.26,0v.5205A.13.13,0,0,1,556.9745,1.7406Z"/><path class="e" d="M556.9745,57.09a.13.13,0,0,1-.13-.13v-1.025a.13.13,0,1,1,.26,0V56.96A.13.13,0,0,1,556.9745,57.09Zm0-2.05a.13.13,0,0,1-.13-.13V53.8849a.13.13,0,0,1,.26,0V54.91A.13.13,0,0,1,556.9745,55.04Zm0-2.05a.13.13,0,0,1-.13-.13v-1.025a.13.13,0,1,1,.26,0V52.86A.13.13,0,0,1,556.9745,52.99Zm0-2.05a.13.13,0,0,1-.13-.13V49.7849a.13.13,0,0,1,.26,0V50.81A.13.13,0,0,1,556.9745,50.94Zm0-2.05a.13.13,0,0,1-.13-.13V47.735a.13.13,0,0,1,.26,0V48.76A.13.13,0,0,1,556.9745,48.89Zm0-2.05a.13.13,0,0,1-.13-.13V45.6849a.13.13,0,0,1,.26,0V46.71A.13.13,0,0,1,556.9745,46.84Zm0-2.05a.13.13,0,0,1-.13-.13V43.635a.13.13,0,0,1,.26,0V44.66A.13.13,0,0,1,556.9745,44.79Zm0-2.05a.13.13,0,0,1-.13-.13V41.5852a.13.13,0,1,1,.26,0V42.61A.13.13,0,0,1,556.9745,42.74Zm0-2.05a.13.13,0,0,1-.13-.13V39.535a.13.13,0,0,1,.26,0V40.56A.13.13,0,0,1,556.9745,40.69Zm0-2.05a.13.13,0,0,1-.13-.13V37.4852a.13.13,0,1,1,.26,0V38.51A.13.13,0,0,1,556.9745,38.64Zm0-2.05a.13.13,0,0,1-.13-.13V35.435a.13.13,0,0,1,.26,0V36.46A.13.13,0,0,1,556.9745,36.59Zm0-2.05a.13.13,0,0,1-.13-.13v-1.025a.13.13,0,1,1,.26,0V34.41A.13.13,0,0,1,556.9745,34.54Zm0-2.05a.13.13,0,0,1-.13-.13V31.3353a.13.13,0,0,1,.26,0V32.36A.13.13,0,0,1,556.9745,32.49Zm0-2.05a.13.13,0,0,1-.13-.13v-1.025a.13.13,0,1,1,.26,0V30.31A.13.13,0,0,1,556.9745,30.44Zm0-2.05a.13.13,0,0,1-.13-.13V27.2353a.13.13,0,0,1,.26,0V28.26A.13.13,0,0,1,556.9745,28.39Zm0-2.05a.13.13,0,0,1-.13-.13v-1.025a.13.13,0,1,1,.26,0V26.21A.13.13,0,0,1,556.9745,26.34Zm0-2.05a.13.13,0,0,1-.13-.13V23.1353a.13.13,0,0,1,.26,0V24.16A.13.13,0,0,1,556.9745,24.2905Zm0-2.05a.13.13,0,0,1-.13-.13V21.0854a.13.13,0,0,1,.26,0V22.11A.13.13,0,0,1,556.9745,22.24Zm0-2.05a.13.13,0,0,1-.13-.13V19.0353a.13.13,0,0,1,.26,0V20.06A.13.13,0,0,1,556.9745,20.1905Zm0-2.05a.13.13,0,0,1-.13-.13V16.9854a.13.13,0,0,1,.26,0V18.01A.13.13,0,0,1,556.9745,18.14Zm0-2.05a.13.13,0,0,1-.13-.13V14.9353a.13.13,0,0,1,.26,0V15.96A.13.13,0,0,1,556.9745,16.09Zm0-2.05a.13.13,0,0,1-.13-.13V12.8854a.13.13,0,0,1,.26,0v1.0251A.13.13,0,0,1,556.9745,14.0406Zm0-2.05a.13.13,0,0,1-.13-.13V10.8356a.13.13,0,1,1,.26,0V11.86A.13.13,0,0,1,556.9745,11.9905Zm0-2.05a.13.13,0,0,1-.13-.13V8.7854a.13.13,0,0,1,.26,0V9.8105A.13.13,0,0,1,556.9745,9.9406Zm0-2.05a.13.13,0,0,1-.13-.13V6.7356a.13.13,0,1,1,.26,0V7.76A.13.13,0,0,1,556.9745,7.8905Zm0-2.05a.13.13,0,0,1-.13-.13V4.6856a.13.13,0,1,1,.26,0V5.7105A.13.13,0,0,1,556.9745,5.8406Zm0-2.05a.13.13,0,0,1-.13-.13V2.6356a.13.13,0,1,1,.26,0V3.6605A.13.13,0,0,1,556.9745,3.7906Z"/><path class="e" d="M556.9745,58.6353a.13.13,0,0,1-.13-.13v-.5206a.13.13,0,0,1,.26,0v.5206A.13.13,0,0,1,556.9745,58.6353Z"/><path class="e" d="M586.6294,89.0858a.13.13,0,0,1-.13-.13v-.52a.13.13,0,0,1,.26,0v.52A.13.13,0,0,1,586.6294,89.0858Z"/><path class="e" d="M586.6294,134.4483a.13.13,0,0,1-.13-.13v-1.0309a.13.13,0,1,1,.26,0v1.0309A.13.13,0,0,1,586.6294,134.4483Zm0-2.0618a.13.13,0,0,1-.13-.13v-1.0311a.13.13,0,1,1,.26,0v1.0311A.13.13,0,0,1,586.6294,132.3865Zm0-2.0621a.13.13,0,0,1-.13-.13v-1.0309a.13.13,0,1,1,.26,0v1.0309A.13.13,0,0,1,586.6294,130.3244Zm0-2.0618a.13.13,0,0,1-.13-.13v-1.0312a.13.13,0,0,1,.26,0v1.0312A.13.13,0,0,1,586.6294,128.2626Zm0-2.0621a.13.13,0,0,1-.13-.13V125.04a.13.13,0,1,1,.26,0V126.07A.13.13,0,0,1,586.6294,126.2005Zm0-2.0618a.13.13,0,0,1-.13-.13v-1.0309a.13.13,0,1,1,.26,0v1.0309A.13.13,0,0,1,586.6294,124.1387Zm0-2.0621a.13.13,0,0,1-.13-.13v-1.0309a.13.13,0,0,1,.26,0v1.0309A.13.13,0,0,1,586.6294,122.0766Zm0-2.0618a.13.13,0,0,1-.13-.13v-1.0309a.13.13,0,1,1,.26,0v1.0309A.13.13,0,0,1,586.6294,120.0148Zm0-2.0621a.13.13,0,0,1-.13-.13v-1.0309a.13.13,0,0,1,.26,0v1.0309A.13.13,0,0,1,586.6294,117.9527Zm0-2.0618a.13.13,0,0,1-.13-.13V114.73a.13.13,0,1,1,.26,0v1.0309A.13.13,0,0,1,586.6294,115.8909Zm0-2.0621a.13.13,0,0,1-.13-.13v-1.0309a.13.13,0,0,1,.26,0v1.0309A.13.13,0,0,1,586.6294,113.8288Zm0-2.0618a.13.13,0,0,1-.13-.13V110.606a.13.13,0,0,1,.26,0v1.0309A.13.13,0,0,1,586.6294,111.767Zm0-2.062a.13.13,0,0,1-.13-.13v-1.0309a.13.13,0,0,1,.26,0v1.0309A.13.13,0,0,1,586.6294,109.705Zm0-2.0619a.13.13,0,0,1-.13-.13v-1.0309a.13.13,0,0,1,.26,0v1.0309A.13.13,0,0,1,586.6294,107.6431Zm0-2.0618a.13.13,0,0,1-.13-.13V104.42a.13.13,0,0,1,.26,0v1.0312A.13.13,0,0,1,586.6294,105.5813Zm0-2.062a.13.13,0,0,1-.13-.13v-1.0309a.13.13,0,0,1,.26,0v1.0309A.13.13,0,0,1,586.6294,103.5193Zm0-2.0619a.13.13,0,0,1-.13-.13v-1.0312a.13.13,0,0,1,.26,0v1.0312A.13.13,0,0,1,586.6294,101.4574Zm0-2.062a.13.13,0,0,1-.13-.13V98.2343a.13.13,0,0,1,.26,0v1.0309A.13.13,0,0,1,586.6294,99.3954Zm0-2.0619a.13.13,0,0,1-.13-.13V96.1722a.13.13,0,0,1,.26,0v1.0312A.13.13,0,0,1,586.6294,97.3335Zm0-2.062a.13.13,0,0,1-.13-.13V94.11a.13.13,0,0,1,.26,0v1.0309A.13.13,0,0,1,586.6294,95.2715Zm0-2.0618a.13.13,0,0,1-.13-.13V92.0484a.13.13,0,1,1,.26,0V93.08A.13.13,0,0,1,586.6294,93.21Zm0-2.0621a.13.13,0,0,1-.13-.13V89.9865a.13.13,0,0,1,.26,0v1.0309A.13.13,0,0,1,586.6294,91.1476Z"/><path class="e" d="M586.6294,136a.13.13,0,0,1-.13-.13v-.5206a.13.13,0,0,1,.26,0v.5206A.13.13,0,0,1,586.6294,136Z"/><path class="e" d="M586.6294,59.1559a.13.13,0,0,1-.13-.13v-.52a.13.13,0,1,1,.26,0v.52A.13.13,0,0,1,586.6294,59.1559Z"/><path class="e" d="M586.6294,86.9749a.13.13,0,0,1-.13-.13v-1.07a.13.13,0,0,1,.26,0v1.07A.13.13,0,0,1,586.6294,86.9749Zm0-2.14a.13.13,0,0,1-.13-.13v-1.07a.13.13,0,1,1,.26,0v1.07A.13.13,0,0,1,586.6294,84.8348Zm0-2.14a.13.13,0,0,1-.13-.13v-1.07a.13.13,0,1,1,.26,0v1.07A.13.13,0,0,1,586.6294,82.6949Zm0-2.14a.13.13,0,0,1-.13-.13v-1.07a.13.13,0,0,1,.26,0v1.07A.13.13,0,0,1,586.6294,80.5551Zm0-2.14a.13.13,0,0,1-.13-.13v-1.07a.13.13,0,1,1,.26,0v1.07A.13.13,0,0,1,586.6294,78.4152Zm0-2.14a.13.13,0,0,1-.13-.13v-1.07a.13.13,0,0,1,.26,0v1.07A.13.13,0,0,1,586.6294,76.2751Zm0-2.14a.13.13,0,0,1-.13-.13v-1.07a.13.13,0,0,1,.26,0v1.07A.13.13,0,0,1,586.6294,74.1353Zm0-2.14a.13.13,0,0,1-.13-.13v-1.07a.13.13,0,1,1,.26,0v1.07A.13.13,0,0,1,586.6294,71.9954Zm0-2.14a.13.13,0,0,1-.13-.13v-1.07a.13.13,0,0,1,.26,0v1.07A.13.13,0,0,1,586.6294,69.8556Zm0-2.14a.13.13,0,0,1-.13-.13v-1.07a.13.13,0,1,1,.26,0v1.07A.13.13,0,0,1,586.6294,67.7155Zm0-2.14a.13.13,0,0,1-.13-.13v-1.07a.13.13,0,1,1,.26,0v1.07A.13.13,0,0,1,586.6294,65.5756Zm0-2.14a.13.13,0,0,1-.13-.13v-1.07a.13.13,0,0,1,.26,0v1.07A.13.13,0,0,1,586.6294,63.4358Zm0-2.14a.13.13,0,0,1-.13-.13v-1.07a.13.13,0,1,1,.26,0v1.07A.13.13,0,0,1,586.6294,61.296Z"/><path class="e" d="M586.6294,88.5652a.13.13,0,0,1-.13-.13v-.5205a.13.13,0,1,1,.26,0v.5205A.13.13,0,0,1,586.6294,88.5652Z"/><path class="e" d="M586.6294,1.7406a.13.13,0,0,1-.13-.13V1.09a.13.13,0,1,1,.26,0v.5205A.13.13,0,0,1,586.6294,1.7406Z"/><path class="e" d="M586.6294,57.09a.13.13,0,0,1-.13-.13v-1.025a.13.13,0,1,1,.26,0V56.96A.13.13,0,0,1,586.6294,57.09Zm0-2.05a.13.13,0,0,1-.13-.13V53.8849a.13.13,0,0,1,.26,0V54.91A.13.13,0,0,1,586.6294,55.04Zm0-2.05a.13.13,0,0,1-.13-.13v-1.025a.13.13,0,1,1,.26,0V52.86A.13.13,0,0,1,586.6294,52.99Zm0-2.05a.13.13,0,0,1-.13-.13V49.7849a.13.13,0,0,1,.26,0V50.81A.13.13,0,0,1,586.6294,50.94Zm0-2.05a.13.13,0,0,1-.13-.13V47.735a.13.13,0,0,1,.26,0V48.76A.13.13,0,0,1,586.6294,48.89Zm0-2.05a.13.13,0,0,1-.13-.13V45.6849a.13.13,0,0,1,.26,0V46.71A.13.13,0,0,1,586.6294,46.84Zm0-2.05a.13.13,0,0,1-.13-.13V43.635a.13.13,0,0,1,.26,0V44.66A.13.13,0,0,1,586.6294,44.79Zm0-2.05a.13.13,0,0,1-.13-.13V41.5852a.13.13,0,1,1,.26,0V42.61A.13.13,0,0,1,586.6294,42.74Zm0-2.05a.13.13,0,0,1-.13-.13V39.535a.13.13,0,0,1,.26,0V40.56A.13.13,0,0,1,586.6294,40.69Zm0-2.05a.13.13,0,0,1-.13-.13V37.4852a.13.13,0,1,1,.26,0V38.51A.13.13,0,0,1,586.6294,38.64Zm0-2.05a.13.13,0,0,1-.13-.13V35.435a.13.13,0,0,1,.26,0V36.46A.13.13,0,0,1,586.6294,36.59Zm0-2.05a.13.13,0,0,1-.13-.13v-1.025a.13.13,0,1,1,.26,0V34.41A.13.13,0,0,1,586.6294,34.54Zm0-2.05a.13.13,0,0,1-.13-.13V31.3353a.13.13,0,0,1,.26,0V32.36A.13.13,0,0,1,586.6294,32.49Zm0-2.05a.13.13,0,0,1-.13-.13v-1.025a.13.13,0,1,1,.26,0V30.31A.13.13,0,0,1,586.6294,30.44Zm0-2.05a.13.13,0,0,1-.13-.13V27.2353a.13.13,0,0,1,.26,0V28.26A.13.13,0,0,1,586.6294,28.39Zm0-2.05a.13.13,0,0,1-.13-.13v-1.025a.13.13,0,1,1,.26,0V26.21A.13.13,0,0,1,586.6294,26.34Zm0-2.05a.13.13,0,0,1-.13-.13V23.1353a.13.13,0,0,1,.26,0V24.16A.13.13,0,0,1,586.6294,24.2905Zm0-2.05a.13.13,0,0,1-.13-.13V21.0854a.13.13,0,0,1,.26,0V22.11A.13.13,0,0,1,586.6294,22.24Zm0-2.05a.13.13,0,0,1-.13-.13V19.0353a.13.13,0,0,1,.26,0V20.06A.13.13,0,0,1,586.6294,20.1905Zm0-2.05a.13.13,0,0,1-.13-.13V16.9854a.13.13,0,0,1,.26,0V18.01A.13.13,0,0,1,586.6294,18.14Zm0-2.05a.13.13,0,0,1-.13-.13V14.9353a.13.13,0,0,1,.26,0V15.96A.13.13,0,0,1,586.6294,16.09Zm0-2.05a.13.13,0,0,1-.13-.13V12.8854a.13.13,0,0,1,.26,0v1.0251A.13.13,0,0,1,586.6294,14.0406Zm0-2.05a.13.13,0,0,1-.13-.13V10.8356a.13.13,0,1,1,.26,0V11.86A.13.13,0,0,1,586.6294,11.9905Zm0-2.05a.13.13,0,0,1-.13-.13V8.7854a.13.13,0,0,1,.26,0V9.8105A.13.13,0,0,1,586.6294,9.9406Zm0-2.05a.13.13,0,0,1-.13-.13V6.7356a.13.13,0,1,1,.26,0V7.76A.13.13,0,0,1,586.6294,7.8905Zm0-2.05a.13.13,0,0,1-.13-.13V4.6856a.13.13,0,1,1,.26,0V5.7105A.13.13,0,0,1,586.6294,5.8406Zm0-2.05a.13.13,0,0,1-.13-.13V2.6356a.13.13,0,1,1,.26,0V3.6605A.13.13,0,0,1,586.6294,3.7906Z"/><path class="e" d="M586.6294,58.6353a.13.13,0,0,1-.13-.13v-.5206a.13.13,0,0,1,.26,0v.5206A.13.13,0,0,1,586.6294,58.6353Z"/><path class="e" d="M556.9745,88.5652h-.5205a.13.13,0,1,1,0-.26h.5205a.13.13,0,1,1,0,.26Z"/><path class="e" d="M555.4108,88.5652h-1.0426a.13.13,0,0,1,0-.26h1.0426a.13.13,0,1,1,0,.26Zm-2.0857,0h-1.0426a.13.13,0,1,1,0-.26h1.0426a.13.13,0,1,1,0,.26Zm-2.0852,0h-1.0431a.13.13,0,1,1,0-.26H551.24a.13.13,0,1,1,0,.26Zm-2.0857,0h-1.0431a.13.13,0,0,1,0-.26h1.0431a.13.13,0,1,1,0,.26Zm-2.0857,0h-1.0426a.13.13,0,0,1,0-.26h1.0426a.13.13,0,1,1,0,.26Zm-2.0857,0H543.94a.13.13,0,0,1,0-.26h1.0426a.13.13,0,1,1,0,.26Zm-2.0852,0h-1.0431a.13.13,0,1,1,0-.26h1.0431a.13.13,0,1,1,0,.26Zm-2.0857,0h-1.0426a.13.13,0,1,1,0-.26h1.0426a.13.13,0,1,1,0,.26Zm-2.0857,0h-1.0426a.13.13,0,0,1,0-.26h1.0426a.13.13,0,0,1,0,.26Zm-2.0852,0h-1.0431a.13.13,0,1,1,0-.26h1.0431a.13.13,0,0,1,0,.26Zm-2.0857,0h-1.0431a.13.13,0,1,1,0-.26h1.0431a.13.13,0,1,1,0,.26Zm-2.0857,0H531.427a.13.13,0,1,1,0-.26H532.47a.13.13,0,1,1,0,.26Zm-2.0857,0h-1.0426a.13.13,0,1,1,0-.26h1.0426a.13.13,0,1,1,0,.26Zm-2.0852,0h-1.0432a.13.13,0,0,1,0-.26h1.0432a.13.13,0,1,1,0,.26Zm-2.0858,0H525.17a.13.13,0,0,1,0-.26h1.0426a.13.13,0,1,1,0,.26Zm-2.0857,0h-1.0426a.13.13,0,0,1,0-.26h1.0426a.13.13,0,1,1,0,.26Zm-2.0852,0h-1.0431a.13.13,0,1,1,0-.26h1.0431a.13.13,0,1,1,0,.26Zm-2.0857,0h-1.0431a.13.13,0,0,1,0-.26h1.0431a.13.13,0,1,1,0,.26Zm-2.0857,0H516.828a.13.13,0,0,1,0-.26h1.0426a.13.13,0,0,1,0,.26Zm-2.0857,0h-1.0426a.13.13,0,0,1,0-.26h1.0426a.13.13,0,1,1,0,.26Zm-2.0852,0h-1.0431a.13.13,0,0,1,0-.26H513.7a.13.13,0,1,1,0,.26Zm-2.0857,0h-1.0426a.13.13,0,0,1,0-.26h1.0426a.13.13,0,0,1,0,.26Zm-2.0857,0h-1.0426a.13.13,0,1,1,0-.26h1.0426a.13.13,0,1,1,0,.26Zm-2.0852,0H506.4a.13.13,0,1,1,0-.26h1.0431a.13.13,0,1,1,0,.26Zm-2.0857,0h-1.0431a.13.13,0,1,1,0-.26h1.0431a.13.13,0,0,1,0,.26Zm-2.0857,0h-1.0426a.13.13,0,1,1,0-.26h1.0426a.13.13,0,1,1,0,.26Zm-2.0857,0h-1.0426a.13.13,0,1,1,0-.26h1.0426a.13.13,0,0,1,0,.26Zm-2.0852,0h-1.0432a.13.13,0,0,1,0-.26h1.0432a.13.13,0,0,1,0,.26Zm-2.0858,0h-1.0426a.13.13,0,0,1,0-.26h1.0426a.13.13,0,1,1,0,.26Zm-2.0857,0h-1.0426a.13.13,0,1,1,0-.26h1.0426a.13.13,0,1,1,0,.26Zm-2.0852,0H491.801a.13.13,0,0,1,0-.26h1.0431a.13.13,0,1,1,0,.26Zm-2.0857,0h-1.0426a.13.13,0,1,1,0-.26h1.0426a.13.13,0,1,1,0,.26Zm-2.0857,0H487.63a.13.13,0,1,1,0-.26h1.0426a.13.13,0,1,1,0,.26Zm-2.0857,0h-1.0426a.13.13,0,0,1,0-.26h1.0426a.13.13,0,0,1,0,.26Zm-2.0852,0h-1.0431a.13.13,0,1,1,0-.26h1.0431a.13.13,0,1,1,0,.26Zm-2.0857,0h-1.0426a.13.13,0,0,1,0-.26h1.0426a.13.13,0,0,1,0,.26Zm-2.0857,0h-1.0426a.13.13,0,1,1,0-.26H480.33a.13.13,0,0,1,0,.26Zm-2.0852,0h-1.0431a.13.13,0,1,1,0-.26h1.0431a.13.13,0,1,1,0,.26Zm-2.0857,0h-1.0426a.13.13,0,1,1,0-.26H476.16a.13.13,0,0,1,0,.26Zm-2.0857,0h-1.0426a.13.13,0,1,1,0-.26h1.0426a.13.13,0,1,1,0,.26Zm-2.0858,0h-1.0426a.13.13,0,1,1,0-.26h1.0426a.13.13,0,1,1,0,.26Zm-2.0852,0H468.86a.13.13,0,0,1,0-.26h1.0431a.13.13,0,1,1,0,.26Zm-2.0857,0h-1.0426a.13.13,0,0,1,0-.26h1.0426a.13.13,0,1,1,0,.26Zm-2.0857,0h-1.0426a.13.13,0,1,1,0-.26h1.0426a.13.13,0,1,1,0,.26Zm-2.0852,0h-1.0431a.13.13,0,0,1,0-.26h1.0431a.13.13,0,1,1,0,.26Zm-2.0857,0h-1.0426a.13.13,0,0,1,0-.26h1.0426a.13.13,0,1,1,0,.26Zm-2.0857,0h-1.0426a.13.13,0,1,1,0-.26h1.0426a.13.13,0,1,1,0,.26Zm-2.0852,0h-1.0431a.13.13,0,0,1,0-.26H457.39a.13.13,0,0,1,0,.26Zm-2.0857,0h-1.0431a.13.13,0,1,1,0-.26h1.0431a.13.13,0,0,1,0,.26Zm-2.0857,0h-1.0426a.13.13,0,1,1,0-.26h1.0426a.13.13,0,1,1,0,.26Zm-2.0857,0H450.09a.13.13,0,1,1,0-.26h1.0426a.13.13,0,0,1,0,.26Zm-2.0852,0h-1.0431a.13.13,0,1,1,0-.26h1.0431a.13.13,0,1,1,0,.26Zm-2.0857,0H445.919a.13.13,0,1,1,0-.26h1.0426a.13.13,0,0,1,0,.26Zm-2.0857,0h-1.0426a.13.13,0,1,1,0-.26h1.0426a.13.13,0,1,1,0,.26Zm-2.0852,0h-1.0432a.13.13,0,1,1,0-.26h1.0432a.13.13,0,1,1,0,.26Zm-2.0858,0h-1.0431a.13.13,0,1,1,0-.26h1.0431a.13.13,0,1,1,0,.26Zm-2.0857,0h-1.0426a.13.13,0,0,1,0-.26h1.0426a.13.13,0,1,1,0,.26Zm-2.0857,0h-1.0426a.13.13,0,1,1,0-.26h1.0426a.13.13,0,1,1,0,.26Zm-2.0852,0h-1.0431a.13.13,0,0,1,0-.26h1.0431a.13.13,0,1,1,0,.26Zm-2.0857,0H431.32a.13.13,0,0,1,0-.26h1.0426a.13.13,0,0,1,0,.26Zm-2.0857,0h-1.0426a.13.13,0,1,1,0-.26h1.0426a.13.13,0,1,1,0,.26Zm-2.0852,0h-1.0431a.13.13,0,0,1,0-.26h1.0431a.13.13,0,1,1,0,.26Zm-2.0857,0h-1.0426a.13.13,0,1,1,0-.26h1.0426a.13.13,0,0,1,0,.26Zm-2.0857,0h-1.0426a.13.13,0,1,1,0-.26H424.02a.13.13,0,1,1,0,.26Zm-2.0857,0H420.892a.13.13,0,1,1,0-.26h1.0426a.13.13,0,0,1,0,.26Zm-2.0852,0h-1.0431a.13.13,0,1,1,0-.26h1.0431a.13.13,0,1,1,0,.26Zm-2.0857,0h-1.0426a.13.13,0,1,1,0-.26h1.0426a.13.13,0,0,1,0,.26Zm-2.0858,0h-1.0426a.13.13,0,0,1,0-.26h1.0426a.13.13,0,1,1,0,.26Zm-2.0852,0H412.55a.13.13,0,0,1,0-.26h1.0431a.13.13,0,1,1,0,.26Zm-2.0857,0h-1.0431a.13.13,0,1,1,0-.26h1.0431a.13.13,0,1,1,0,.26Zm-2.0857,0h-1.0426a.13.13,0,0,1,0-.26h1.0426a.13.13,0,1,1,0,.26Zm-2.0857,0H406.293a.13.13,0,1,1,0-.26h1.0426a.13.13,0,1,1,0,.26Zm-2.0852,0h-1.0431a.13.13,0,0,1,0-.26H405.25a.13.13,0,1,1,0,.26Zm-2.0857,0h-1.0431a.13.13,0,1,1,0-.26h1.0431a.13.13,0,0,1,0,.26Zm-2.0857,0h-1.0426a.13.13,0,1,1,0-.26h1.0426a.13.13,0,1,1,0,.26Zm-2.0857,0h-1.0426a.13.13,0,0,1,0-.26h1.0426a.13.13,0,0,1,0,.26Zm-2.0852,0H395.865a.13.13,0,1,1,0-.26h1.0431a.13.13,0,0,1,0,.26Zm-2.0857,0h-1.0431a.13.13,0,1,1,0-.26h1.0431a.13.13,0,1,1,0,.26Zm-2.0857,0h-1.0426a.13.13,0,1,1,0-.26h1.0426a.13.13,0,0,1,0,.26Zm-2.0857,0h-1.0426a.13.13,0,1,1,0-.26h1.0426a.13.13,0,1,1,0,.26Zm-2.0852,0h-1.0432a.13.13,0,1,1,0-.26h1.0432a.13.13,0,1,1,0,.26Zm-2.0858,0h-1.0426a.13.13,0,1,1,0-.26H386.48a.13.13,0,1,1,0,.26Zm-2.0857,0h-1.0426a.13.13,0,0,1,0-.26h1.0426a.13.13,0,1,1,0,.26Zm-2.0857,0H381.266a.13.13,0,1,1,0-.26h1.0426a.13.13,0,1,1,0,.26Zm-2.0852,0H379.18a.13.13,0,0,1,0-.26h1.0431a.13.13,0,1,1,0,.26Zm-2.0857,0h-1.0426a.13.13,0,1,1,0-.26h1.0426a.13.13,0,0,1,0,.26Zm-2.0857,0h-1.0426a.13.13,0,1,1,0-.26h1.0426a.13.13,0,1,1,0,.26Zm-2.0857,0h-1.0426a.13.13,0,0,1,0-.26h1.0426a.13.13,0,0,1,0,.26Zm-2.0852,0H370.838a.13.13,0,1,1,0-.26h1.0431a.13.13,0,1,1,0,.26Zm-2.0857,0h-1.0426a.13.13,0,1,1,0-.26h1.0426a.13.13,0,0,1,0,.26Zm-2.0857,0h-1.0426a.13.13,0,1,1,0-.26H367.71a.13.13,0,0,1,0,.26Zm-2.0857,0h-1.0426a.13.13,0,1,1,0-.26h1.0426a.13.13,0,1,1,0,.26Zm-2.0852,0h-1.0431a.13.13,0,1,1,0-.26h1.0431a.13.13,0,0,1,0,.26Zm-2.0857,0h-1.0426a.13.13,0,1,1,0-.26h1.0426a.13.13,0,1,1,0,.26Zm-2.0858,0h-1.0426a.13.13,0,1,1,0-.26h1.0426a.13.13,0,1,1,0,.26Zm-2.0857,0H356.239a.13.13,0,0,1,0-.26h1.0426a.13.13,0,1,1,0,.26Zm-2.0852,0h-1.0431a.13.13,0,1,1,0-.26h1.0431a.13.13,0,1,1,0,.26Zm-2.0857,0h-1.0426a.13.13,0,1,1,0-.26h1.0426a.13.13,0,1,1,0,.26Zm-2.0857,0h-1.0426a.13.13,0,0,1,0-.26h1.0426a.13.13,0,0,1,0,.26Zm-2.0852,0h-1.0431a.13.13,0,1,1,0-.26H348.94a.13.13,0,0,1,0,.26Zm-2.0857,0H345.811a.13.13,0,0,1,0-.26h1.0431a.13.13,0,1,1,0,.26Zm-2.0857,0h-1.0426a.13.13,0,0,1,0-.26h1.0426a.13.13,0,0,1,0,.26Zm-2.0857,0H341.64a.13.13,0,1,1,0-.26h1.0426a.13.13,0,1,1,0,.26Zm-2.0852,0h-1.0431a.13.13,0,1,1,0-.26h1.0431a.13.13,0,1,1,0,.26Zm-2.0857,0h-1.0431a.13.13,0,1,1,0-.26h1.0431a.13.13,0,0,1,0,.26Zm-2.0857,0h-1.0426a.13.13,0,1,1,0-.26h1.0426a.13.13,0,1,1,0,.26Zm-2.0857,0h-1.0427a.13.13,0,1,1,0-.26H334.34a.13.13,0,0,1,0,.26Zm-2.0853,0H331.212a.13.13,0,0,1,0-.26h1.0431a.13.13,0,1,1,0,.26Zm-2.0857,0h-1.0431a.13.13,0,1,1,0-.26h1.0431a.13.13,0,1,1,0,.26Zm-2.0857,0h-1.0426a.13.13,0,0,1,0-.26h1.0426a.13.13,0,1,1,0,.26Zm-2.0857,0h-1.0426a.13.13,0,0,1,0-.26h1.0426a.13.13,0,1,1,0,.26Zm-2.0852,0H322.87a.13.13,0,1,1,0-.26h1.0431a.13.13,0,1,1,0,.26Zm-2.0857,0H320.784a.13.13,0,0,1,0-.26h1.0431a.13.13,0,0,1,0,.26Zm-2.0857,0h-1.0426a.13.13,0,1,1,0-.26h1.0426a.13.13,0,0,1,0,.26Zm-2.0857,0h-1.0426a.13.13,0,0,1,0-.26h1.0426a.13.13,0,1,1,0,.26Zm-2.0852,0h-1.0431a.13.13,0,1,1,0-.26h1.0431a.13.13,0,0,1,0,.26Zm-2.0857,0h-1.0426a.13.13,0,1,1,0-.26h1.0426a.13.13,0,1,1,0,.26Zm-2.0857,0h-1.0426a.13.13,0,1,1,0-.26h1.0426a.13.13,0,0,1,0,.26Zm-2.0857,0h-1.0426a.13.13,0,1,1,0-.26h1.0426a.13.13,0,1,1,0,.26Zm-2.0852,0H306.185a.13.13,0,1,1,0-.26h1.0432a.13.13,0,1,1,0,.26Zm-2.0858,0H304.1a.13.13,0,1,1,0-.26h1.0426a.13.13,0,1,1,0,.26Zm-2.0857,0h-1.0426a.13.13,0,0,1,0-.26h1.0426a.13.13,0,1,1,0,.26Zm-2.0857,0h-1.0426a.13.13,0,1,1,0-.26h1.0426a.13.13,0,1,1,0,.26Zm-2.0852,0h-1.0431a.13.13,0,0,1,0-.26h1.0431a.13.13,0,1,1,0,.26Zm-2.0857,0h-1.0426a.13.13,0,0,1,0-.26H296.8a.13.13,0,0,1,0,.26Zm-2.0857,0h-1.0426a.13.13,0,1,1,0-.26h1.0426a.13.13,0,1,1,0,.26Zm-2.0857,0h-1.0426a.13.13,0,0,1,0-.26h1.0426a.13.13,0,0,1,0,.26Zm-2.0852,0H289.5a.13.13,0,1,1,0-.26h1.0431a.13.13,0,0,1,0,.26Zm-2.0857,0h-1.0426a.13.13,0,1,1,0-.26h1.0426a.13.13,0,1,1,0,.26Zm-2.0857,0H285.33a.13.13,0,1,1,0-.26h1.0426a.13.13,0,0,1,0,.26Zm-2.0857,0h-1.0426a.13.13,0,1,1,0-.26h1.0426a.13.13,0,1,1,0,.26Zm-2.0852,0h-1.0431a.13.13,0,1,1,0-.26h1.0431a.13.13,0,0,1,0,.26Zm-2.0857,0h-1.0426a.13.13,0,1,1,0-.26h1.0426a.13.13,0,0,1,0,.26Zm-2.0858,0h-1.0426a.13.13,0,0,1,0-.26H278.03a.13.13,0,1,1,0,.26Zm-2.0852,0h-1.0431a.13.13,0,1,1,0-.26h1.0431a.13.13,0,1,1,0,.26Zm-2.0857,0h-1.0431a.13.13,0,0,1,0-.26h1.0431a.13.13,0,1,1,0,.26Zm-2.0857,0h-1.0426a.13.13,0,1,1,0-.26h1.0426a.13.13,0,1,1,0,.26Zm-2.0857,0h-1.0426a.13.13,0,0,1,0-.26h1.0426a.13.13,0,1,1,0,.26Zm-2.0852,0h-1.0431a.13.13,0,1,1,0-.26h1.0431a.13.13,0,0,1,0,.26Zm-2.0857,0h-1.0431a.13.13,0,1,1,0-.26h1.0431a.13.13,0,1,1,0,.26Zm-2.0857,0h-1.0426a.13.13,0,0,1,0-.26h1.0426a.13.13,0,0,1,0,.26Zm-2.0857,0h-1.0426a.13.13,0,1,1,0-.26h1.0426a.13.13,0,1,1,0,.26Zm-2.0852,0h-1.0431a.13.13,0,1,1,0-.26H259.26a.13.13,0,1,1,0,.26Zm-2.0857,0h-1.0426a.13.13,0,1,1,0-.26h1.0426a.13.13,0,0,1,0,.26Zm-2.0857,0h-1.0426a.13.13,0,1,1,0-.26h1.0426a.13.13,0,0,1,0,.26Zm-2.0857,0H251.96a.13.13,0,1,1,0-.26h1.0426a.13.13,0,0,1,0,.26Zm-2.0853,0h-1.0431a.13.13,0,0,1,0-.26h1.0431a.13.13,0,1,1,0,.26Zm-2.0857,0h-1.0426a.13.13,0,0,1,0-.26h1.0426a.13.13,0,1,1,0,.26Zm-2.0857,0h-1.0426a.13.13,0,0,1,0-.26h1.0426a.13.13,0,1,1,0,.26Zm-2.0857,0h-1.0426a.13.13,0,0,1,0-.26H244.66a.13.13,0,1,1,0,.26Zm-2.0852,0h-1.0431a.13.13,0,1,1,0-.26h1.0431a.13.13,0,1,1,0,.26Zm-2.0857,0h-1.0426a.13.13,0,0,1,0-.26H240.49a.13.13,0,0,1,0,.26Zm-2.0857,0h-1.0426a.13.13,0,0,1,0-.26h1.0426a.13.13,0,0,1,0,.26Zm-2.0857,0h-1.0426a.13.13,0,0,1,0-.26h1.0426a.13.13,0,0,1,0,.26Zm-2.0852,0H233.19a.13.13,0,1,1,0-.26h1.0431a.13.13,0,0,1,0,.26Zm-2.0857,0h-1.0426a.13.13,0,1,1,0-.26h1.0426a.13.13,0,0,1,0,.26Zm-2.0857,0h-1.0426a.13.13,0,1,1,0-.26h1.0426a.13.13,0,0,1,0,.26Zm-2.0857,0h-1.0426a.13.13,0,1,1,0-.26h1.0426a.13.13,0,0,1,0,.26Zm-2.0852,0h-1.0432a.13.13,0,0,1,0-.26h1.0432a.13.13,0,0,1,0,.26Zm-2.0858,0h-1.0426a.13.13,0,0,1,0-.26h1.0426a.13.13,0,1,1,0,.26Zm-2.0857,0h-1.0426a.13.13,0,0,1,0-.26h1.0426a.13.13,0,1,1,0,.26Zm-2.0852,0h-1.0431a.13.13,0,0,1,0-.26h1.0431a.13.13,0,1,1,0,.26Zm-2.0857,0h-1.0431a.13.13,0,0,1,0-.26h1.0431a.13.13,0,1,1,0,.26Zm-2.0857,0H214.42a.13.13,0,0,1,0-.26h1.0426a.13.13,0,1,1,0,.26Zm-2.0857,0h-1.0426a.13.13,0,0,1,0-.26h1.0426a.13.13,0,0,1,0,.26Zm-2.0852,0h-1.0431a.13.13,0,0,1,0-.26h1.0431a.13.13,0,0,1,0,.26Zm-2.0857,0h-1.0431a.13.13,0,0,1,0-.26h1.0431a.13.13,0,0,1,0,.26Zm-2.0857,0h-1.0426a.13.13,0,0,1,0-.26H207.12a.13.13,0,0,1,0,.26Zm-2.0857,0h-1.0426a.13.13,0,1,1,0-.26h1.0426a.13.13,0,0,1,0,.26Zm-2.0852,0h-1.0431a.13.13,0,1,1,0-.26h1.0431a.13.13,0,0,1,0,.26Zm-2.0857,0h-1.0431a.13.13,0,1,1,0-.26h1.0431a.13.13,0,0,1,0,.26Zm-2.0857,0h-1.0426a.13.13,0,1,1,0-.26h1.0426a.13.13,0,0,1,0,.26Zm-2.0858,0H195.65a.13.13,0,0,1,0-.26h1.0426a.13.13,0,1,1,0,.26Zm-2.0852,0h-1.0431a.13.13,0,0,1,0-.26h1.0431a.13.13,0,1,1,0,.26Zm-2.0857,0h-1.0431a.13.13,0,0,1,0-.26h1.0431a.13.13,0,1,1,0,.26Zm-2.0857,0h-1.0426a.13.13,0,0,1,0-.26h1.0426a.13.13,0,1,1,0,.26Zm-2.0857,0h-1.0426a.13.13,0,0,1,0-.26H188.35a.13.13,0,0,1,0,.26Zm-2.0852,0h-1.0431a.13.13,0,0,1,0-.26h1.0431a.13.13,0,0,1,0,.26Zm-2.0857,0h-1.0426a.13.13,0,0,1,0-.26h1.0426a.13.13,0,0,1,0,.26Zm-2.0857,0h-1.0426a.13.13,0,0,1,0-.26h1.0426a.13.13,0,0,1,0,.26Zm-2.0857,0h-1.0426a.13.13,0,1,1,0-.26h1.0426a.13.13,0,0,1,0,.26Zm-2.0852,0h-1.0431a.13.13,0,1,1,0-.26h1.0431a.13.13,0,0,1,0,.26Zm-2.0857,0H174.794a.13.13,0,1,1,0-.26h1.0426a.13.13,0,0,1,0,.26Zm-2.0857,0h-1.0426a.13.13,0,1,1,0-.26h1.0426a.13.13,0,0,1,0,.26Zm-2.0857,0h-1.0426a.13.13,0,1,1,0-.26h1.0426a.13.13,0,0,1,0,.26Zm-2.0852,0h-1.0432a.13.13,0,0,1,0-.26H169.58a.13.13,0,0,1,0,.26Zm-2.0858,0h-1.0426a.13.13,0,1,1,0-.26h1.0426a.13.13,0,1,1,0,.26Zm-2.0857,0h-1.0426a.13.13,0,0,1,0-.26h1.0426a.13.13,0,1,1,0,.26Zm-2.0852,0H162.28a.13.13,0,0,1,0-.26h1.0431a.13.13,0,1,1,0,.26Zm-2.0857,0h-1.0431a.13.13,0,0,1,0-.26h1.0431a.13.13,0,1,1,0,.26Zm-2.0857,0h-1.0426a.13.13,0,0,1,0-.26h1.0426a.13.13,0,0,1,0,.26Zm-2.0857,0h-1.0426a.13.13,0,0,1,0-.26h1.0426a.13.13,0,0,1,0,.26Zm-2.0857,0h-1.0426a.13.13,0,1,1,0-.26h1.0426a.13.13,0,0,1,0,.26Zm-2.0852,0h-1.0431a.13.13,0,1,1,0-.26h1.0431a.13.13,0,0,1,0,.26Zm-2.0857,0h-1.0429a.13.13,0,0,1,0-.26H150.81a.13.13,0,0,1,0,.26Zm-2.0857,0h-1.0426a.13.13,0,1,1,0-.26h1.0426a.13.13,0,0,1,0,.26Zm-2.0855,0h-1.0428a.13.13,0,1,1,0-.26h1.0428a.13.13,0,0,1,0,.26Zm-2.0854,0H143.51a.13.13,0,0,1,0-.26h1.0429a.13.13,0,0,1,0,.26Zm-2.0858,0h-1.0428a.13.13,0,0,1,0-.26h1.0428a.13.13,0,1,1,0,.26Zm-2.0854,0h-1.0429a.13.13,0,0,1,0-.26h1.0429a.13.13,0,0,1,0,.26Zm-2.0857,0h-1.0429a.13.13,0,0,1,0-.26h1.0429a.13.13,0,0,1,0,.26Zm-2.0855,0h-1.0428a.13.13,0,1,1,0-.26h1.0428a.13.13,0,1,1,0,.26Zm-2.0857,0h-1.0428a.13.13,0,1,1,0-.26h1.0428a.13.13,0,1,1,0,.26Zm-2.0854,0h-1.0429a.13.13,0,0,1,0-.26H132.04a.13.13,0,0,1,0,.26Zm-2.0857,0h-1.0429a.13.13,0,0,1,0-.26h1.0429a.13.13,0,0,1,0,.26Zm-2.0855,0h-1.0429a.13.13,0,0,1,0-.26h1.0429a.13.13,0,0,1,0,.26Zm-2.0857,0H124.74a.13.13,0,1,1,0-.26h1.0426a.13.13,0,0,1,0,.26Zm-2.0855,0h-1.0428a.13.13,0,1,1,0-.26h1.0428a.13.13,0,1,1,0,.26Zm-2.0857,0h-1.0428a.13.13,0,1,1,0-.26h1.0428a.13.13,0,1,1,0,.26Zm-2.0854,0h-1.0429a.13.13,0,0,1,0-.26h1.0429a.13.13,0,0,1,0,.26Zm-2.0857,0h-1.0426a.13.13,0,1,1,0-.26H117.44a.13.13,0,0,1,0,.26Zm-2.0855,0h-1.0429a.13.13,0,0,1,0-.26h1.0429a.13.13,0,0,1,0,.26Zm-2.0857,0h-1.0429a.13.13,0,0,1,0-.26h1.0429a.13.13,0,1,1,0,.26Zm-2.0855,0h-1.0428a.13.13,0,1,1,0-.26h1.0428a.13.13,0,1,1,0,.26Zm-2.0857,0h-1.0426a.13.13,0,0,1,0-.26h1.0426a.13.13,0,1,1,0,.26Zm-2.0854,0H105.97a.13.13,0,1,1,0-.26h1.0429a.13.13,0,1,1,0,.26Zm-2.0857,0h-1.0426a.13.13,0,1,1,0-.26h1.0426a.13.13,0,0,1,0,.26Zm-2.0855,0h-1.0429a.13.13,0,1,1,0-.26h1.0429a.13.13,0,1,1,0,.26Zm-2.0857,0H99.713a.13.13,0,0,1,0-.26h1.0426a.13.13,0,0,1,0,.26Zm-2.0855,0H97.6273a.13.13,0,1,1,0-.26H98.67a.13.13,0,1,1,0,.26Zm-2.0857,0H95.5418a.13.13,0,0,1,0-.26h1.0426a.13.13,0,1,1,0,.26Zm-2.0854,0H93.4561a.13.13,0,1,1,0-.26H94.499a.13.13,0,0,1,0,.26Zm-2.0857,0H91.3707a.13.13,0,1,1,0-.26h1.0426a.13.13,0,1,1,0,.26Zm-2.0855,0H89.285a.13.13,0,1,1,0-.26h1.0428a.13.13,0,0,1,0,.26Zm-2.0854,0H87.2a.13.13,0,0,1,0-.26h1.0429a.13.13,0,0,1,0,.26Zm-2.0858,0H85.1138a.13.13,0,0,1,0-.26h1.0428a.13.13,0,1,1,0,.26Zm-2.0857,0H83.0283a.13.13,0,0,1,0-.26h1.0426a.13.13,0,1,1,0,.26Zm-2.0854,0H80.9426a.13.13,0,0,1,0-.26h1.0429a.13.13,0,0,1,0,.26Zm-2.0855,0H78.8572a.13.13,0,1,1,0-.26H79.9a.13.13,0,1,1,0,.26Zm-2.0857,0H76.7715a.13.13,0,1,1,0-.26h1.0428a.13.13,0,0,1,0,.26Zm-2.0854,0H74.686a.13.13,0,1,1,0-.26h1.0429a.13.13,0,0,1,0,.26Zm-2.0858,0H72.6a.13.13,0,0,1,0-.26h1.0428a.13.13,0,1,1,0,.26Zm-2.0854,0H70.5148a.13.13,0,0,1,0-.26h1.0429a.13.13,0,0,1,0,.26Zm-2.0857,0H68.4291a.13.13,0,0,1,0-.26H69.472a.13.13,0,1,1,0,.26Zm-2.0855,0H66.3437a.13.13,0,1,1,0-.26h1.0428a.13.13,0,1,1,0,.26Zm-2.0857,0H64.258a.13.13,0,1,1,0-.26h1.0428a.13.13,0,1,1,0,.26Zm-2.0854,0H62.1725a.13.13,0,1,1,0-.26h1.0429a.13.13,0,1,1,0,.26Zm-2.0858,0H60.0868a.13.13,0,0,1,0-.26H61.13a.13.13,0,1,1,0,.26Zm-2.0854,0H58.0013a.13.13,0,1,1,0-.26h1.0429a.13.13,0,0,1,0,.26Zm-2.0857,0H55.9156a.13.13,0,0,1,0-.26h1.0429a.13.13,0,0,1,0,.26Zm-2.0855,0H53.83a.13.13,0,1,1,0-.26H54.873a.13.13,0,1,1,0,.26Zm-2.0857,0H51.7447a.13.13,0,1,1,0-.26h1.0426a.13.13,0,1,1,0,.26Zm-2.0854,0H49.659a.13.13,0,1,1,0-.26h1.0429a.13.13,0,0,1,0,.26Zm-2.0857,0H47.5733a.13.13,0,1,1,0-.26h1.0429a.13.13,0,0,1,0,.26Zm-2.0855,0H45.4878a.13.13,0,1,1,0-.26h1.0429a.13.13,0,0,1,0,.26Zm-2.0857,0H43.4024a.13.13,0,0,1,0-.26H44.445a.13.13,0,0,1,0,.26Zm-2.0855,0H41.3167a.13.13,0,1,1,0-.26H42.36a.13.13,0,1,1,0,.26Zm-2.0857,0H39.2312a.13.13,0,0,1,0-.26h1.0426a.13.13,0,1,1,0,.26Zm-2.0854,0H37.1455a.13.13,0,0,1,0-.26h1.0429a.13.13,0,0,1,0,.26Zm-2.0857,0H35.06a.13.13,0,1,1,0-.26h1.0426a.13.13,0,0,1,0,.26Zm-2.0855,0H32.9743a.13.13,0,0,1,0-.26h1.0429a.13.13,0,0,1,0,.26Zm-2.0857,0H30.8889a.13.13,0,0,1,0-.26h1.0426a.13.13,0,0,1,0,.26Zm-2.0855,0H28.8032a.13.13,0,1,1,0-.26H29.846a.13.13,0,1,1,0,.26Zm-2.0857,0H26.7177a.13.13,0,1,1,0-.26H27.76a.13.13,0,1,1,0,.26Zm-2.0854,0H24.632a.13.13,0,1,1,0-.26h1.0429a.13.13,0,1,1,0,.26Zm-2.0855,0H22.5466a.13.13,0,1,1,0-.26h1.0428a.13.13,0,0,1,0,.26Zm-2.0857,0H20.4608a.13.13,0,0,1,0-.26h1.0429a.13.13,0,0,1,0,.26Zm-2.0857,0H18.3754a.13.13,0,0,1,0-.26H19.418a.13.13,0,0,1,0,.26Zm-2.0855,0H16.29a.13.13,0,1,1,0-.26h1.0428a.13.13,0,1,1,0,.26Zm-2.0854,0H14.2042a.13.13,0,1,1,0-.26h1.0429a.13.13,0,0,1,0,.26Zm-2.0857,0H12.1185a.13.13,0,1,1,0-.26h1.0429a.13.13,0,0,1,0,.26Zm-2.0857,0H10.0331a.13.13,0,1,1,0-.26h1.0426a.13.13,0,0,1,0,.26Zm-2.0855,0H7.9474a.13.13,0,1,1,0-.26H8.99a.13.13,0,1,1,0,.26Zm-2.0854,0H5.8619a.13.13,0,1,1,0-.26H6.9048a.13.13,0,0,1,0,.26Zm-2.0858,0H3.7762a.13.13,0,0,1,0-.26H4.819a.13.13,0,1,1,0,.26Zm-2.0857,0H1.6907a.13.13,0,1,1,0-.26H2.7333a.13.13,0,1,1,0,.26Z"/><path class="e" d="M.6507,88.5652H.13a.13.13,0,1,1,0-.26H.6507a.13.13,0,1,1,0,.26Z"/><path class="e" d="M586.6294,88.5652h-.5205a.13.13,0,1,1,0-.26h.5205a.13.13,0,1,1,0,.26Z"/><path class="e" d="M585.049,88.5652h-1.06a.13.13,0,0,1,0-.26h1.06a.13.13,0,1,1,0,.26Zm-2.12,0H581.87a.13.13,0,1,1,0-.26h1.0594a.13.13,0,1,1,0,.26Zm-2.1193,0h-1.06a.13.13,0,1,1,0-.26h1.06a.13.13,0,1,1,0,.26Zm-2.12,0h-1.06a.13.13,0,1,1,0-.26h1.06a.13.13,0,1,1,0,.26Zm-2.1193,0h-1.06a.13.13,0,0,1,0-.26h1.06a.13.13,0,1,1,0,.26Zm-2.12,0h-1.06a.13.13,0,1,1,0-.26h1.06a.13.13,0,1,1,0,.26Zm-2.1192,0h-1.06a.13.13,0,1,1,0-.26h1.06a.13.13,0,1,1,0,.26Zm-2.12,0h-1.06a.13.13,0,0,1,0-.26h1.06a.13.13,0,1,1,0,.26Zm-2.12,0H567.033a.13.13,0,1,1,0-.26h1.0594a.13.13,0,1,1,0,.26Zm-2.1193,0h-1.06a.13.13,0,0,1,0-.26h1.06a.13.13,0,1,1,0,.26Zm-2.12,0h-1.06a.13.13,0,0,1,0-.26h1.06a.13.13,0,1,1,0,.26Zm-2.1192,0h-1.06a.13.13,0,1,1,0-.26h1.06a.13.13,0,1,1,0,.26Zm-2.12,0h-1.06a.13.13,0,0,1,0-.26h1.06a.13.13,0,0,1,0,.26Z"/><path class="e" d="M557.495,88.5652h-.52a.13.13,0,1,1,0-.26h.52a.13.13,0,1,1,0,.26Z"/><path class="e" d="M749.87,88.5652h-.5206a.13.13,0,0,1,0-.26h.5206a.13.13,0,1,1,0,.26Z"/><path class="e" d="M748.3032,88.5652h-1.0467a.13.13,0,0,1,0-.26h1.0467a.13.13,0,0,1,0,.26Zm-2.0929,0h-1.0466a.13.13,0,1,1,0-.26H746.21a.13.13,0,1,1,0,.26Zm-2.0928,0h-1.0467a.13.13,0,0,1,0-.26h1.0467a.13.13,0,0,1,0,.26Zm-2.0928,0H740.978a.13.13,0,0,1,0-.26h1.0467a.13.13,0,1,1,0,.26Zm-2.0933,0h-1.0462a.13.13,0,1,1,0-.26h1.0462a.13.13,0,1,1,0,.26Zm-2.0929,0h-1.0461a.13.13,0,1,1,0-.26h1.0461a.13.13,0,1,1,0,.26Zm-2.0928,0H734.7a.13.13,0,0,1,0-.26h1.0462a.13.13,0,1,1,0,.26Zm-2.0928,0h-1.0467a.13.13,0,0,1,0-.26h1.0467a.13.13,0,1,1,0,.26Zm-2.0929,0h-1.0466a.13.13,0,1,1,0-.26H731.56a.13.13,0,1,1,0,.26Zm-2.0928,0h-1.0466a.13.13,0,1,1,0-.26h1.0466a.13.13,0,1,1,0,.26Zm-2.0928,0h-1.0467a.13.13,0,1,1,0-.26h1.0467a.13.13,0,1,1,0,.26Zm-2.0933,0h-1.0462a.13.13,0,1,1,0-.26h1.0462a.13.13,0,1,1,0,.26Zm-2.0929,0h-1.0461a.13.13,0,1,1,0-.26h1.0461a.13.13,0,1,1,0,.26Zm-2.0928,0h-1.0462a.13.13,0,1,1,0-.26h1.0462a.13.13,0,1,1,0,.26Zm-2.0928,0h-1.0467a.13.13,0,1,1,0-.26h1.0467a.13.13,0,1,1,0,.26Zm-2.0928,0h-1.0467a.13.13,0,1,1,0-.26H716.91a.13.13,0,1,1,0,.26Zm-2.0929,0H713.77a.13.13,0,1,1,0-.26h1.0466a.13.13,0,1,1,0,.26Zm-2.0928,0h-1.0467a.13.13,0,1,1,0-.26h1.0467a.13.13,0,1,1,0,.26Zm-2.0933,0h-1.0462a.13.13,0,0,1,0-.26h1.0462a.13.13,0,1,1,0,.26Zm-2.0929,0h-1.0461a.13.13,0,1,1,0-.26h1.0461a.13.13,0,1,1,0,.26Zm-2.0928,0H705.399a.13.13,0,1,1,0-.26h1.0461a.13.13,0,1,1,0,.26Zm-2.0928,0h-1.0467a.13.13,0,0,1,0-.26h1.0467a.13.13,0,1,1,0,.26Zm-2.0928,0h-1.0467a.13.13,0,0,1,0-.26H702.26a.13.13,0,1,1,0,.26Zm-2.0929,0H699.12a.13.13,0,1,1,0-.26h1.0466a.13.13,0,1,1,0,.26Zm-2.0928,0h-1.0467a.13.13,0,0,1,0-.26h1.0467a.13.13,0,1,1,0,.26Zm-2.0928,0h-1.0467a.13.13,0,0,1,0-.26h1.0467a.13.13,0,1,1,0,.26Zm-2.0934,0h-1.0461a.13.13,0,0,1,0-.26h1.0461a.13.13,0,1,1,0,.26Zm-2.0928,0h-1.0461a.13.13,0,1,1,0-.26h1.0461a.13.13,0,1,1,0,.26Zm-2.0928,0h-1.0462a.13.13,0,0,1,0-.26h1.0462a.13.13,0,1,1,0,.26Zm-2.0928,0h-1.0467a.13.13,0,0,1,0-.26h1.0467a.13.13,0,1,1,0,.26Zm-2.0929,0H684.47a.13.13,0,1,1,0-.26h1.0466a.13.13,0,1,1,0,.26Zm-2.0928,0h-1.0467a.13.13,0,0,1,0-.26h1.0467a.13.13,0,1,1,0,.26Zm-2.0928,0H680.284a.13.13,0,0,1,0-.26h1.0467a.13.13,0,1,1,0,.26Zm-2.0933,0h-1.0462a.13.13,0,0,1,0-.26h1.0462a.13.13,0,1,1,0,.26Zm-2.0929,0h-1.0461a.13.13,0,1,1,0-.26h1.0461a.13.13,0,1,1,0,.26Zm-2.0928,0h-1.0462a.13.13,0,0,1,0-.26h1.0462a.13.13,0,1,1,0,.26Zm-2.0928,0h-1.0467a.13.13,0,0,1,0-.26h1.0467a.13.13,0,0,1,0,.26Zm-2.0929,0h-1.0466a.13.13,0,1,1,0-.26h1.0466a.13.13,0,1,1,0,.26Zm-2.0928,0h-1.0466a.13.13,0,1,1,0-.26h1.0466a.13.13,0,1,1,0,.26Zm-2.0928,0h-1.0467a.13.13,0,0,1,0-.26H666.68a.13.13,0,0,1,0,.26Zm-2.0933,0h-1.0462a.13.13,0,0,1,0-.26h1.0462a.13.13,0,0,1,0,.26Zm-2.0929,0h-1.0461a.13.13,0,1,1,0-.26h1.0461a.13.13,0,1,1,0,.26Zm-2.0928,0h-1.0462a.13.13,0,0,1,0-.26h1.0462a.13.13,0,0,1,0,.26Zm-2.0928,0h-1.0467a.13.13,0,0,1,0-.26h1.0467a.13.13,0,0,1,0,.26Zm-2.0928,0h-1.0467a.13.13,0,1,1,0-.26h1.0467a.13.13,0,0,1,0,.26Zm-2.0929,0h-1.0466a.13.13,0,1,1,0-.26h1.0466a.13.13,0,1,1,0,.26Zm-2.0928,0h-1.0467a.13.13,0,0,1,0-.26H652.03a.13.13,0,0,1,0,.26Zm-2.0933,0h-1.0462a.13.13,0,0,1,0-.26h1.0462a.13.13,0,0,1,0,.26Zm-2.0929,0h-1.0461a.13.13,0,1,1,0-.26h1.0461a.13.13,0,1,1,0,.26Zm-2.0928,0H644.705a.13.13,0,1,1,0-.26h1.0461a.13.13,0,0,1,0,.26Zm-2.0928,0h-1.0467a.13.13,0,0,1,0-.26h1.0467a.13.13,0,1,1,0,.26Zm-2.0928,0h-1.0467a.13.13,0,1,1,0-.26h1.0467a.13.13,0,1,1,0,.26Zm-2.0929,0H638.426a.13.13,0,1,1,0-.26h1.0466a.13.13,0,1,1,0,.26Zm-2.0933,0h-1.0462a.13.13,0,0,1,0-.26h1.0462a.13.13,0,0,1,0,.26Zm-2.0928,0H634.24a.13.13,0,1,1,0-.26h1.0462a.13.13,0,1,1,0,.26Zm-2.0929,0h-1.0461a.13.13,0,1,1,0-.26h1.0461a.13.13,0,1,1,0,.26Zm-2.0928,0h-1.0467a.13.13,0,0,1,0-.26h1.0467a.13.13,0,1,1,0,.26Zm-2.0928,0h-1.0467a.13.13,0,1,1,0-.26h1.0467a.13.13,0,1,1,0,.26Zm-2.0928,0h-1.0467a.13.13,0,1,1,0-.26h1.0467a.13.13,0,1,1,0,.26Zm-2.0929,0h-1.0466a.13.13,0,1,1,0-.26h1.0466a.13.13,0,1,1,0,.26Zm-2.0933,0h-1.0462a.13.13,0,1,1,0-.26h1.0462a.13.13,0,1,1,0,.26Zm-2.0928,0H619.59a.13.13,0,1,1,0-.26h1.0462a.13.13,0,1,1,0,.26Zm-2.0929,0h-1.0461a.13.13,0,0,1,0-.26h1.0461a.13.13,0,1,1,0,.26Zm-2.0928,0h-1.0466a.13.13,0,1,1,0-.26h1.0466a.13.13,0,1,1,0,.26Zm-2.0928,0H613.311a.13.13,0,1,1,0-.26h1.0467a.13.13,0,1,1,0,.26Zm-2.0928,0h-1.0467a.13.13,0,0,1,0-.26h1.0467a.13.13,0,1,1,0,.26Zm-2.0934,0h-1.0461a.13.13,0,1,1,0-.26h1.0461a.13.13,0,1,1,0,.26Zm-2.0928,0h-1.0462a.13.13,0,1,1,0-.26h1.0462a.13.13,0,1,1,0,.26Zm-2.0928,0H604.94a.13.13,0,0,1,0-.26h1.0462a.13.13,0,1,1,0,.26Zm-2.0928,0h-1.0467a.13.13,0,0,1,0-.26h1.0467a.13.13,0,1,1,0,.26Zm-2.0929,0h-1.0466a.13.13,0,1,1,0-.26H601.8a.13.13,0,1,1,0,.26Zm-2.0928,0h-1.0467a.13.13,0,0,1,0-.26h1.0467a.13.13,0,1,1,0,.26Zm-2.0928,0h-1.0467a.13.13,0,0,1,0-.26h1.0467a.13.13,0,1,1,0,.26Zm-2.0934,0h-1.0461a.13.13,0,1,1,0-.26h1.0461a.13.13,0,1,1,0,.26Zm-2.0928,0h-1.0461a.13.13,0,1,1,0-.26h1.0461a.13.13,0,1,1,0,.26Zm-2.0928,0h-1.0462a.13.13,0,0,1,0-.26h1.0462a.13.13,0,1,1,0,.26Zm-2.0928,0h-1.0467a.13.13,0,0,1,0-.26h1.0467a.13.13,0,1,1,0,.26Z"/><path class="e" d="M587.15,88.5652h-.52a.13.13,0,1,1,0-.26h.52a.13.13,0,1,1,0,.26Z"/><path class="e" d="M556.9745,58.6381h-.5205a.13.13,0,1,1,0-.26h.5205a.13.13,0,0,1,0,.26Z"/><path class="e" d="M555.4108,58.6381h-1.0426a.13.13,0,0,1,0-.26h1.0426a.13.13,0,1,1,0,.26Zm-2.0857,0h-1.0426a.13.13,0,0,1,0-.26h1.0426a.13.13,0,1,1,0,.26Zm-2.0852,0h-1.0431a.13.13,0,0,1,0-.26H551.24a.13.13,0,1,1,0,.26Zm-2.0857,0h-1.0431a.13.13,0,0,1,0-.26h1.0431a.13.13,0,1,1,0,.26Zm-2.0857,0h-1.0426a.13.13,0,0,1,0-.26h1.0426a.13.13,0,1,1,0,.26Zm-2.0857,0H543.94a.13.13,0,0,1,0-.26h1.0426a.13.13,0,0,1,0,.26Zm-2.0852,0h-1.0431a.13.13,0,0,1,0-.26h1.0431a.13.13,0,0,1,0,.26Zm-2.0857,0h-1.0426a.13.13,0,0,1,0-.26h1.0426a.13.13,0,0,1,0,.26Zm-2.0857,0h-1.0426a.13.13,0,0,1,0-.26h1.0426a.13.13,0,0,1,0,.26Zm-2.0852,0h-1.0431a.13.13,0,1,1,0-.26h1.0431a.13.13,0,0,1,0,.26Zm-2.0857,0h-1.0431a.13.13,0,1,1,0-.26h1.0431a.13.13,0,0,1,0,.26Zm-2.0857,0H531.427a.13.13,0,1,1,0-.26H532.47a.13.13,0,0,1,0,.26Zm-2.0857,0h-1.0426a.13.13,0,1,1,0-.26h1.0426a.13.13,0,0,1,0,.26Zm-2.0852,0h-1.0432a.13.13,0,0,1,0-.26h1.0432a.13.13,0,0,1,0,.26Zm-2.0858,0H525.17a.13.13,0,0,1,0-.26h1.0426a.13.13,0,1,1,0,.26Zm-2.0857,0h-1.0426a.13.13,0,0,1,0-.26h1.0426a.13.13,0,1,1,0,.26Zm-2.0852,0h-1.0431a.13.13,0,0,1,0-.26h1.0431a.13.13,0,1,1,0,.26Zm-2.0857,0h-1.0431a.13.13,0,0,1,0-.26h1.0431a.13.13,0,1,1,0,.26Zm-2.0857,0H516.828a.13.13,0,0,1,0-.26h1.0426a.13.13,0,0,1,0,.26Zm-2.0857,0h-1.0426a.13.13,0,0,1,0-.26h1.0426a.13.13,0,0,1,0,.26Zm-2.0852,0h-1.0431a.13.13,0,0,1,0-.26H513.7a.13.13,0,0,1,0,.26Zm-2.0857,0h-1.0426a.13.13,0,0,1,0-.26h1.0426a.13.13,0,0,1,0,.26Zm-2.0857,0h-1.0426a.13.13,0,1,1,0-.26h1.0426a.13.13,0,0,1,0,.26Zm-2.0852,0H506.4a.13.13,0,1,1,0-.26h1.0431a.13.13,0,0,1,0,.26Zm-2.0857,0h-1.0431a.13.13,0,1,1,0-.26h1.0431a.13.13,0,0,1,0,.26Zm-2.0857,0h-1.0426a.13.13,0,1,1,0-.26h1.0426a.13.13,0,0,1,0,.26Zm-2.0857,0h-1.0426a.13.13,0,1,1,0-.26h1.0426a.13.13,0,0,1,0,.26Zm-2.0852,0h-1.0432a.13.13,0,0,1,0-.26h1.0432a.13.13,0,0,1,0,.26Zm-2.0858,0h-1.0426a.13.13,0,0,1,0-.26h1.0426a.13.13,0,1,1,0,.26Zm-2.0857,0h-1.0426a.13.13,0,0,1,0-.26h1.0426a.13.13,0,1,1,0,.26Zm-2.0852,0H491.801a.13.13,0,0,1,0-.26h1.0431a.13.13,0,1,1,0,.26Zm-2.0857,0h-1.0426a.13.13,0,0,1,0-.26h1.0426a.13.13,0,1,1,0,.26Zm-2.0857,0H487.63a.13.13,0,0,1,0-.26h1.0426a.13.13,0,0,1,0,.26Zm-2.0857,0h-1.0426a.13.13,0,0,1,0-.26h1.0426a.13.13,0,0,1,0,.26Zm-2.0852,0h-1.0431a.13.13,0,0,1,0-.26h1.0431a.13.13,0,0,1,0,.26Zm-2.0857,0h-1.0426a.13.13,0,0,1,0-.26h1.0426a.13.13,0,0,1,0,.26Zm-2.0857,0h-1.0426a.13.13,0,1,1,0-.26H480.33a.13.13,0,0,1,0,.26Zm-2.0852,0h-1.0431a.13.13,0,1,1,0-.26h1.0431a.13.13,0,0,1,0,.26Zm-2.0857,0h-1.0426a.13.13,0,1,1,0-.26H476.16a.13.13,0,0,1,0,.26Zm-2.0857,0h-1.0426a.13.13,0,1,1,0-.26h1.0426a.13.13,0,0,1,0,.26Zm-2.0858,0h-1.0426a.13.13,0,0,1,0-.26h1.0426a.13.13,0,1,1,0,.26Zm-2.0852,0H468.86a.13.13,0,0,1,0-.26h1.0431a.13.13,0,1,1,0,.26Zm-2.0857,0h-1.0426a.13.13,0,0,1,0-.26h1.0426a.13.13,0,1,1,0,.26Zm-2.0857,0h-1.0426a.13.13,0,0,1,0-.26h1.0426a.13.13,0,1,1,0,.26Zm-2.0852,0h-1.0431a.13.13,0,0,1,0-.26h1.0431a.13.13,0,1,1,0,.26Zm-2.0857,0h-1.0426a.13.13,0,0,1,0-.26h1.0426a.13.13,0,1,1,0,.26Zm-2.0857,0h-1.0426a.13.13,0,0,1,0-.26h1.0426a.13.13,0,0,1,0,.26Zm-2.0852,0h-1.0431a.13.13,0,0,1,0-.26H457.39a.13.13,0,0,1,0,.26Zm-2.0857,0h-1.0431a.13.13,0,0,1,0-.26h1.0431a.13.13,0,0,1,0,.26Zm-2.0857,0h-1.0426a.13.13,0,1,1,0-.26h1.0426a.13.13,0,0,1,0,.26Zm-2.0857,0H450.09a.13.13,0,1,1,0-.26h1.0426a.13.13,0,0,1,0,.26Zm-2.0852,0h-1.0431a.13.13,0,1,1,0-.26h1.0431a.13.13,0,0,1,0,.26Zm-2.0857,0H445.919a.13.13,0,1,1,0-.26h1.0426a.13.13,0,0,1,0,.26Zm-2.0857,0h-1.0426a.13.13,0,1,1,0-.26h1.0426a.13.13,0,0,1,0,.26Zm-2.0852,0h-1.0432a.13.13,0,0,1,0-.26h1.0432a.13.13,0,0,1,0,.26Zm-2.0858,0h-1.0431a.13.13,0,0,1,0-.26h1.0431a.13.13,0,1,1,0,.26Zm-2.0857,0h-1.0426a.13.13,0,0,1,0-.26h1.0426a.13.13,0,1,1,0,.26Zm-2.0857,0h-1.0426a.13.13,0,0,1,0-.26h1.0426a.13.13,0,1,1,0,.26Zm-2.0852,0h-1.0431a.13.13,0,0,1,0-.26h1.0431a.13.13,0,1,1,0,.26Zm-2.0857,0H431.32a.13.13,0,0,1,0-.26h1.0426a.13.13,0,0,1,0,.26Zm-2.0857,0h-1.0426a.13.13,0,0,1,0-.26h1.0426a.13.13,0,0,1,0,.26Zm-2.0852,0h-1.0431a.13.13,0,0,1,0-.26h1.0431a.13.13,0,0,1,0,.26Zm-2.0857,0h-1.0426a.13.13,0,0,1,0-.26h1.0426a.13.13,0,0,1,0,.26Zm-2.0857,0h-1.0426a.13.13,0,1,1,0-.26H424.02a.13.13,0,0,1,0,.26Zm-2.0857,0H420.892a.13.13,0,1,1,0-.26h1.0426a.13.13,0,0,1,0,.26Zm-2.0852,0h-1.0431a.13.13,0,1,1,0-.26h1.0431a.13.13,0,0,1,0,.26Zm-2.0857,0h-1.0426a.13.13,0,1,1,0-.26h1.0426a.13.13,0,0,1,0,.26Zm-2.0858,0h-1.0426a.13.13,0,0,1,0-.26h1.0426a.13.13,0,1,1,0,.26Zm-2.0852,0H412.55a.13.13,0,0,1,0-.26h1.0431a.13.13,0,1,1,0,.26Zm-2.0857,0h-1.0431a.13.13,0,0,1,0-.26h1.0431a.13.13,0,1,1,0,.26Zm-2.0857,0h-1.0426a.13.13,0,0,1,0-.26h1.0426a.13.13,0,1,1,0,.26Zm-2.0857,0H406.293a.13.13,0,0,1,0-.26h1.0426a.13.13,0,1,1,0,.26Zm-2.0852,0h-1.0431a.13.13,0,0,1,0-.26H405.25a.13.13,0,1,1,0,.26Zm-2.0857,0h-1.0431a.13.13,0,0,1,0-.26h1.0431a.13.13,0,0,1,0,.26Zm-2.0857,0h-1.0426a.13.13,0,0,1,0-.26h1.0426a.13.13,0,0,1,0,.26Zm-2.0857,0h-1.0426a.13.13,0,0,1,0-.26h1.0426a.13.13,0,0,1,0,.26Zm-2.0852,0H395.865a.13.13,0,1,1,0-.26h1.0431a.13.13,0,0,1,0,.26Zm-2.0857,0h-1.0431a.13.13,0,1,1,0-.26h1.0431a.13.13,0,0,1,0,.26Zm-2.0857,0h-1.0426a.13.13,0,1,1,0-.26h1.0426a.13.13,0,0,1,0,.26Zm-2.0857,0h-1.0426a.13.13,0,1,1,0-.26h1.0426a.13.13,0,0,1,0,.26Zm-2.0852,0h-1.0432a.13.13,0,0,1,0-.26h1.0432a.13.13,0,0,1,0,.26Zm-2.0858,0h-1.0426a.13.13,0,0,1,0-.26H386.48a.13.13,0,1,1,0,.26Zm-2.0857,0h-1.0426a.13.13,0,0,1,0-.26h1.0426a.13.13,0,1,1,0,.26Zm-2.0857,0H381.266a.13.13,0,0,1,0-.26h1.0426a.13.13,0,1,1,0,.26Zm-2.0852,0H379.18a.13.13,0,0,1,0-.26h1.0431a.13.13,0,1,1,0,.26Zm-2.0857,0h-1.0426a.13.13,0,0,1,0-.26h1.0426a.13.13,0,0,1,0,.26Zm-2.0857,0h-1.0426a.13.13,0,0,1,0-.26h1.0426a.13.13,0,0,1,0,.26Zm-2.0857,0h-1.0426a.13.13,0,0,1,0-.26h1.0426a.13.13,0,0,1,0,.26Zm-2.0852,0H370.838a.13.13,0,0,1,0-.26h1.0431a.13.13,0,0,1,0,.26Zm-2.0857,0h-1.0426a.13.13,0,1,1,0-.26h1.0426a.13.13,0,0,1,0,.26Zm-2.0857,0h-1.0426a.13.13,0,1,1,0-.26H367.71a.13.13,0,0,1,0,.26Zm-2.0857,0h-1.0426a.13.13,0,1,1,0-.26h1.0426a.13.13,0,0,1,0,.26Zm-2.0852,0h-1.0431a.13.13,0,1,1,0-.26h1.0431a.13.13,0,0,1,0,.26Zm-2.0857,0h-1.0426a.13.13,0,1,1,0-.26h1.0426a.13.13,0,0,1,0,.26Zm-2.0858,0h-1.0426a.13.13,0,0,1,0-.26h1.0426a.13.13,0,1,1,0,.26Zm-2.0857,0H356.239a.13.13,0,0,1,0-.26h1.0426a.13.13,0,1,1,0,.26Zm-2.0852,0h-1.0431a.13.13,0,0,1,0-.26h1.0431a.13.13,0,1,1,0,.26Zm-2.0857,0h-1.0426a.13.13,0,0,1,0-.26h1.0426a.13.13,0,1,1,0,.26Zm-2.0857,0h-1.0426a.13.13,0,0,1,0-.26h1.0426a.13.13,0,0,1,0,.26Zm-2.0852,0h-1.0431a.13.13,0,0,1,0-.26H348.94a.13.13,0,0,1,0,.26Zm-2.0857,0H345.811a.13.13,0,0,1,0-.26h1.0431a.13.13,0,0,1,0,.26Zm-2.0857,0h-1.0426a.13.13,0,0,1,0-.26h1.0426a.13.13,0,0,1,0,.26Zm-2.0857,0H341.64a.13.13,0,1,1,0-.26h1.0426a.13.13,0,0,1,0,.26Zm-2.0852,0h-1.0431a.13.13,0,1,1,0-.26h1.0431a.13.13,0,0,1,0,.26Zm-2.0857,0h-1.0431a.13.13,0,1,1,0-.26h1.0431a.13.13,0,0,1,0,.26Zm-2.0857,0h-1.0426a.13.13,0,1,1,0-.26h1.0426a.13.13,0,0,1,0,.26Zm-2.0857,0h-1.0427a.13.13,0,0,1,0-.26H334.34a.13.13,0,0,1,0,.26Zm-2.0853,0H331.212a.13.13,0,0,1,0-.26h1.0431a.13.13,0,1,1,0,.26Zm-2.0857,0h-1.0431a.13.13,0,0,1,0-.26h1.0431a.13.13,0,1,1,0,.26Zm-2.0857,0h-1.0426a.13.13,0,0,1,0-.26h1.0426a.13.13,0,1,1,0,.26Zm-2.0857,0h-1.0426a.13.13,0,0,1,0-.26h1.0426a.13.13,0,1,1,0,.26Zm-2.0852,0H322.87a.13.13,0,0,1,0-.26h1.0431a.13.13,0,1,1,0,.26Zm-2.0857,0H320.784a.13.13,0,0,1,0-.26h1.0431a.13.13,0,0,1,0,.26Zm-2.0857,0h-1.0426a.13.13,0,0,1,0-.26h1.0426a.13.13,0,0,1,0,.26Zm-2.0857,0h-1.0426a.13.13,0,0,1,0-.26h1.0426a.13.13,0,0,1,0,.26Zm-2.0852,0h-1.0431a.13.13,0,1,1,0-.26h1.0431a.13.13,0,0,1,0,.26Zm-2.0857,0h-1.0426a.13.13,0,1,1,0-.26h1.0426a.13.13,0,0,1,0,.26Zm-2.0857,0h-1.0426a.13.13,0,1,1,0-.26h1.0426a.13.13,0,0,1,0,.26Zm-2.0857,0h-1.0426a.13.13,0,1,1,0-.26h1.0426a.13.13,0,0,1,0,.26Zm-2.0852,0H306.185a.13.13,0,0,1,0-.26h1.0432a.13.13,0,0,1,0,.26Zm-2.0858,0H304.1a.13.13,0,0,1,0-.26h1.0426a.13.13,0,1,1,0,.26Zm-2.0857,0h-1.0426a.13.13,0,0,1,0-.26h1.0426a.13.13,0,1,1,0,.26Zm-2.0857,0h-1.0426a.13.13,0,0,1,0-.26h1.0426a.13.13,0,1,1,0,.26Zm-2.0852,0h-1.0431a.13.13,0,0,1,0-.26h1.0431a.13.13,0,1,1,0,.26Zm-2.0857,0h-1.0426a.13.13,0,0,1,0-.26H296.8a.13.13,0,0,1,0,.26Zm-2.0857,0h-1.0426a.13.13,0,0,1,0-.26h1.0426a.13.13,0,0,1,0,.26Zm-2.0857,0h-1.0426a.13.13,0,0,1,0-.26h1.0426a.13.13,0,0,1,0,.26Zm-2.0852,0H289.5a.13.13,0,0,1,0-.26h1.0431a.13.13,0,0,1,0,.26Zm-2.0857,0h-1.0426a.13.13,0,1,1,0-.26h1.0426a.13.13,0,0,1,0,.26Zm-2.0857,0H285.33a.13.13,0,1,1,0-.26h1.0426a.13.13,0,0,1,0,.26Zm-2.0857,0h-1.0426a.13.13,0,1,1,0-.26h1.0426a.13.13,0,0,1,0,.26Zm-2.0852,0h-1.0431a.13.13,0,1,1,0-.26h1.0431a.13.13,0,0,1,0,.26Zm-2.0857,0h-1.0426a.13.13,0,1,1,0-.26h1.0426a.13.13,0,0,1,0,.26Zm-2.0858,0h-1.0426a.13.13,0,0,1,0-.26H278.03a.13.13,0,1,1,0,.26Zm-2.0852,0h-1.0431a.13.13,0,0,1,0-.26h1.0431a.13.13,0,1,1,0,.26Zm-2.0857,0h-1.0431a.13.13,0,0,1,0-.26h1.0431a.13.13,0,1,1,0,.26Zm-2.0857,0h-1.0426a.13.13,0,0,1,0-.26h1.0426a.13.13,0,1,1,0,.26Zm-2.0857,0h-1.0426a.13.13,0,0,1,0-.26h1.0426a.13.13,0,0,1,0,.26Zm-2.0852,0h-1.0431a.13.13,0,0,1,0-.26h1.0431a.13.13,0,0,1,0,.26Zm-2.0857,0h-1.0431a.13.13,0,0,1,0-.26h1.0431a.13.13,0,0,1,0,.26Zm-2.0857,0h-1.0426a.13.13,0,0,1,0-.26h1.0426a.13.13,0,0,1,0,.26Zm-2.0857,0h-1.0426a.13.13,0,1,1,0-.26h1.0426a.13.13,0,0,1,0,.26Zm-2.0852,0h-1.0431a.13.13,0,1,1,0-.26H259.26a.13.13,0,0,1,0,.26Zm-2.0857,0h-1.0426a.13.13,0,1,1,0-.26h1.0426a.13.13,0,0,1,0,.26Zm-2.0857,0h-1.0426a.13.13,0,1,1,0-.26h1.0426a.13.13,0,0,1,0,.26Zm-2.0857,0H251.96a.13.13,0,1,1,0-.26h1.0426a.13.13,0,0,1,0,.26Zm-2.0853,0h-1.0431a.13.13,0,0,1,0-.26h1.0431a.13.13,0,1,1,0,.26Zm-2.0857,0h-1.0426a.13.13,0,0,1,0-.26h1.0426a.13.13,0,1,1,0,.26Zm-2.0857,0h-1.0426a.13.13,0,0,1,0-.26h1.0426a.13.13,0,1,1,0,.26Zm-2.0857,0h-1.0426a.13.13,0,0,1,0-.26H244.66a.13.13,0,1,1,0,.26Zm-2.0852,0h-1.0431a.13.13,0,0,1,0-.26h1.0431a.13.13,0,1,1,0,.26Zm-2.0857,0h-1.0426a.13.13,0,0,1,0-.26H240.49a.13.13,0,0,1,0,.26Zm-2.0857,0h-1.0426a.13.13,0,0,1,0-.26h1.0426a.13.13,0,0,1,0,.26Zm-2.0857,0h-1.0426a.13.13,0,0,1,0-.26h1.0426a.13.13,0,0,1,0,.26Zm-2.0852,0H233.19a.13.13,0,1,1,0-.26h1.0431a.13.13,0,0,1,0,.26Zm-2.0857,0h-1.0426a.13.13,0,1,1,0-.26h1.0426a.13.13,0,0,1,0,.26Zm-2.0857,0h-1.0426a.13.13,0,1,1,0-.26h1.0426a.13.13,0,0,1,0,.26Zm-2.0857,0h-1.0426a.13.13,0,1,1,0-.26h1.0426a.13.13,0,0,1,0,.26Zm-2.0852,0h-1.0432a.13.13,0,0,1,0-.26h1.0432a.13.13,0,0,1,0,.26Zm-2.0858,0h-1.0426a.13.13,0,0,1,0-.26h1.0426a.13.13,0,1,1,0,.26Zm-2.0857,0h-1.0426a.13.13,0,0,1,0-.26h1.0426a.13.13,0,1,1,0,.26Zm-2.0852,0h-1.0431a.13.13,0,0,1,0-.26h1.0431a.13.13,0,1,1,0,.26Zm-2.0857,0h-1.0431a.13.13,0,0,1,0-.26h1.0431a.13.13,0,1,1,0,.26Zm-2.0857,0H214.42a.13.13,0,0,1,0-.26h1.0426a.13.13,0,1,1,0,.26Zm-2.0857,0h-1.0426a.13.13,0,0,1,0-.26h1.0426a.13.13,0,0,1,0,.26Zm-2.0852,0h-1.0431a.13.13,0,0,1,0-.26h1.0431a.13.13,0,0,1,0,.26Zm-2.0857,0h-1.0431a.13.13,0,0,1,0-.26h1.0431a.13.13,0,0,1,0,.26Zm-2.0857,0h-1.0426a.13.13,0,0,1,0-.26H207.12a.13.13,0,0,1,0,.26Zm-2.0857,0h-1.0426a.13.13,0,1,1,0-.26h1.0426a.13.13,0,0,1,0,.26Zm-2.0852,0h-1.0431a.13.13,0,1,1,0-.26h1.0431a.13.13,0,0,1,0,.26Zm-2.0857,0h-1.0431a.13.13,0,1,1,0-.26h1.0431a.13.13,0,0,1,0,.26Zm-2.0857,0h-1.0426a.13.13,0,1,1,0-.26h1.0426a.13.13,0,0,1,0,.26Zm-2.0858,0H195.65a.13.13,0,0,1,0-.26h1.0426a.13.13,0,1,1,0,.26Zm-2.0852,0h-1.0431a.13.13,0,0,1,0-.26h1.0431a.13.13,0,1,1,0,.26Zm-2.0857,0h-1.0431a.13.13,0,0,1,0-.26h1.0431a.13.13,0,1,1,0,.26Zm-2.0857,0h-1.0426a.13.13,0,0,1,0-.26h1.0426a.13.13,0,1,1,0,.26Zm-2.0857,0h-1.0426a.13.13,0,0,1,0-.26H188.35a.13.13,0,0,1,0,.26Zm-2.0852,0h-1.0431a.13.13,0,0,1,0-.26h1.0431a.13.13,0,0,1,0,.26Zm-2.0857,0h-1.0426a.13.13,0,0,1,0-.26h1.0426a.13.13,0,0,1,0,.26Zm-2.0857,0h-1.0426a.13.13,0,0,1,0-.26h1.0426a.13.13,0,0,1,0,.26Zm-2.0857,0h-1.0426a.13.13,0,1,1,0-.26h1.0426a.13.13,0,0,1,0,.26Zm-2.0852,0h-1.0431a.13.13,0,1,1,0-.26h1.0431a.13.13,0,0,1,0,.26Zm-2.0857,0H174.794a.13.13,0,1,1,0-.26h1.0426a.13.13,0,0,1,0,.26Zm-2.0857,0h-1.0426a.13.13,0,1,1,0-.26h1.0426a.13.13,0,0,1,0,.26Zm-2.0857,0h-1.0426a.13.13,0,1,1,0-.26h1.0426a.13.13,0,0,1,0,.26Zm-2.0852,0h-1.0432a.13.13,0,0,1,0-.26H169.58a.13.13,0,0,1,0,.26Zm-2.0858,0h-1.0426a.13.13,0,0,1,0-.26h1.0426a.13.13,0,1,1,0,.26Zm-2.0857,0h-1.0426a.13.13,0,0,1,0-.26h1.0426a.13.13,0,1,1,0,.26Zm-2.0852,0H162.28a.13.13,0,0,1,0-.26h1.0431a.13.13,0,1,1,0,.26Zm-2.0857,0h-1.0431a.13.13,0,0,1,0-.26h1.0431a.13.13,0,1,1,0,.26Zm-2.0857,0h-1.0426a.13.13,0,0,1,0-.26h1.0426a.13.13,0,0,1,0,.26Zm-2.0857,0h-1.0426a.13.13,0,0,1,0-.26h1.0426a.13.13,0,0,1,0,.26Zm-2.0857,0h-1.0426a.13.13,0,0,1,0-.26h1.0426a.13.13,0,0,1,0,.26Zm-2.0852,0h-1.0431a.13.13,0,1,1,0-.26h1.0431a.13.13,0,0,1,0,.26Zm-2.0857,0h-1.0429a.13.13,0,0,1,0-.26H150.81a.13.13,0,0,1,0,.26Zm-2.0857,0h-1.0426a.13.13,0,1,1,0-.26h1.0426a.13.13,0,0,1,0,.26Zm-2.0855,0h-1.0428a.13.13,0,1,1,0-.26h1.0428a.13.13,0,0,1,0,.26Zm-2.0854,0H143.51a.13.13,0,0,1,0-.26h1.0429a.13.13,0,0,1,0,.26Zm-2.0858,0h-1.0428a.13.13,0,0,1,0-.26h1.0428a.13.13,0,1,1,0,.26Zm-2.0854,0h-1.0429a.13.13,0,0,1,0-.26h1.0429a.13.13,0,0,1,0,.26Zm-2.0857,0h-1.0429a.13.13,0,0,1,0-.26h1.0429a.13.13,0,0,1,0,.26Zm-2.0855,0h-1.0428a.13.13,0,1,1,0-.26h1.0428a.13.13,0,1,1,0,.26Zm-2.0857,0h-1.0428a.13.13,0,1,1,0-.26h1.0428a.13.13,0,1,1,0,.26Zm-2.0854,0h-1.0429a.13.13,0,0,1,0-.26H132.04a.13.13,0,0,1,0,.26Zm-2.0857,0h-1.0429a.13.13,0,0,1,0-.26h1.0429a.13.13,0,0,1,0,.26Zm-2.0855,0h-1.0429a.13.13,0,0,1,0-.26h1.0429a.13.13,0,0,1,0,.26Zm-2.0857,0H124.74a.13.13,0,0,1,0-.26h1.0426a.13.13,0,0,1,0,.26Zm-2.0855,0h-1.0428a.13.13,0,1,1,0-.26h1.0428a.13.13,0,1,1,0,.26Zm-2.0857,0h-1.0428a.13.13,0,1,1,0-.26h1.0428a.13.13,0,1,1,0,.26Zm-2.0854,0h-1.0429a.13.13,0,0,1,0-.26h1.0429a.13.13,0,0,1,0,.26Zm-2.0857,0h-1.0426a.13.13,0,1,1,0-.26H117.44a.13.13,0,0,1,0,.26Zm-2.0855,0h-1.0429a.13.13,0,0,1,0-.26h1.0429a.13.13,0,0,1,0,.26Zm-2.0857,0h-1.0429a.13.13,0,0,1,0-.26h1.0429a.13.13,0,0,1,0,.26Zm-2.0855,0h-1.0428a.13.13,0,1,1,0-.26h1.0428a.13.13,0,1,1,0,.26Zm-2.0857,0h-1.0426a.13.13,0,0,1,0-.26h1.0426a.13.13,0,1,1,0,.26Zm-2.0854,0H105.97a.13.13,0,0,1,0-.26h1.0429a.13.13,0,0,1,0,.26Zm-2.0857,0h-1.0426a.13.13,0,1,1,0-.26h1.0426a.13.13,0,0,1,0,.26Zm-2.0855,0h-1.0429a.13.13,0,0,1,0-.26h1.0429a.13.13,0,0,1,0,.26Zm-2.0857,0H99.713a.13.13,0,0,1,0-.26h1.0426a.13.13,0,0,1,0,.26Zm-2.0855,0H97.6273a.13.13,0,1,1,0-.26H98.67a.13.13,0,1,1,0,.26Zm-2.0857,0H95.5418a.13.13,0,0,1,0-.26h1.0426a.13.13,0,1,1,0,.26Zm-2.0854,0H93.4561a.13.13,0,0,1,0-.26H94.499a.13.13,0,0,1,0,.26Zm-2.0857,0H91.3707a.13.13,0,1,1,0-.26h1.0426a.13.13,0,0,1,0,.26Zm-2.0855,0H89.285a.13.13,0,1,1,0-.26h1.0428a.13.13,0,0,1,0,.26Zm-2.0854,0H87.2a.13.13,0,0,1,0-.26h1.0429a.13.13,0,0,1,0,.26Zm-2.0858,0H85.1138a.13.13,0,0,1,0-.26h1.0428a.13.13,0,1,1,0,.26Zm-2.0857,0H83.0283a.13.13,0,0,1,0-.26h1.0426a.13.13,0,1,1,0,.26Zm-2.0854,0H80.9426a.13.13,0,0,1,0-.26h1.0429a.13.13,0,0,1,0,.26Zm-2.0855,0H78.8572a.13.13,0,1,1,0-.26H79.9a.13.13,0,1,1,0,.26Zm-2.0857,0H76.7715a.13.13,0,1,1,0-.26h1.0428a.13.13,0,0,1,0,.26Zm-2.0854,0H74.686a.13.13,0,0,1,0-.26h1.0429a.13.13,0,0,1,0,.26Zm-2.0858,0H72.6a.13.13,0,0,1,0-.26h1.0428a.13.13,0,1,1,0,.26Zm-2.0854,0H70.5148a.13.13,0,0,1,0-.26h1.0429a.13.13,0,0,1,0,.26Zm-2.0857,0H68.4291a.13.13,0,0,1,0-.26H69.472a.13.13,0,0,1,0,.26Zm-2.0855,0H66.3437a.13.13,0,1,1,0-.26h1.0428a.13.13,0,1,1,0,.26Zm-2.0857,0H64.258a.13.13,0,1,1,0-.26h1.0428a.13.13,0,0,1,0,.26Zm-2.0854,0H62.1725a.13.13,0,0,1,0-.26h1.0429a.13.13,0,0,1,0,.26Zm-2.0858,0H60.0868a.13.13,0,0,1,0-.26H61.13a.13.13,0,1,1,0,.26Zm-2.0854,0H58.0013a.13.13,0,0,1,0-.26h1.0429a.13.13,0,0,1,0,.26Zm-2.0857,0H55.9156a.13.13,0,0,1,0-.26h1.0429a.13.13,0,0,1,0,.26Zm-2.0855,0H53.83a.13.13,0,1,1,0-.26H54.873a.13.13,0,1,1,0,.26Zm-2.0857,0H51.7447a.13.13,0,0,1,0-.26h1.0426a.13.13,0,1,1,0,.26Zm-2.0854,0H49.659a.13.13,0,0,1,0-.26h1.0429a.13.13,0,0,1,0,.26Zm-2.0857,0H47.5733a.13.13,0,0,1,0-.26h1.0429a.13.13,0,0,1,0,.26Zm-2.0855,0H45.4878a.13.13,0,0,1,0-.26h1.0429a.13.13,0,0,1,0,.26Zm-2.0857,0H43.4024a.13.13,0,0,1,0-.26H44.445a.13.13,0,0,1,0,.26Zm-2.0855,0H41.3167a.13.13,0,1,1,0-.26H42.36a.13.13,0,1,1,0,.26Zm-2.0857,0H39.2312a.13.13,0,0,1,0-.26h1.0426a.13.13,0,1,1,0,.26Zm-2.0854,0H37.1455a.13.13,0,0,1,0-.26h1.0429a.13.13,0,0,1,0,.26Zm-2.0857,0H35.06a.13.13,0,1,1,0-.26h1.0426a.13.13,0,0,1,0,.26Zm-2.0855,0H32.9743a.13.13,0,0,1,0-.26h1.0429a.13.13,0,0,1,0,.26Zm-2.0857,0H30.8889a.13.13,0,0,1,0-.26h1.0426a.13.13,0,0,1,0,.26Zm-2.0855,0H28.8032a.13.13,0,1,1,0-.26H29.846a.13.13,0,1,1,0,.26Zm-2.0857,0H26.7177a.13.13,0,0,1,0-.26H27.76a.13.13,0,1,1,0,.26Zm-2.0854,0H24.632a.13.13,0,0,1,0-.26h1.0429a.13.13,0,0,1,0,.26Zm-2.0855,0H22.5466a.13.13,0,1,1,0-.26h1.0428a.13.13,0,0,1,0,.26Zm-2.0857,0H20.4608a.13.13,0,0,1,0-.26h1.0429a.13.13,0,0,1,0,.26Zm-2.0857,0H18.3754a.13.13,0,0,1,0-.26H19.418a.13.13,0,0,1,0,.26Zm-2.0855,0H16.29a.13.13,0,1,1,0-.26h1.0428a.13.13,0,1,1,0,.26Zm-2.0854,0H14.2042a.13.13,0,0,1,0-.26h1.0429a.13.13,0,0,1,0,.26Zm-2.0857,0H12.1185a.13.13,0,0,1,0-.26h1.0429a.13.13,0,0,1,0,.26Zm-2.0857,0H10.0331a.13.13,0,1,1,0-.26h1.0426a.13.13,0,0,1,0,.26Zm-2.0855,0H7.9474a.13.13,0,1,1,0-.26H8.99a.13.13,0,0,1,0,.26Zm-2.0854,0H5.8619a.13.13,0,0,1,0-.26H6.9048a.13.13,0,0,1,0,.26Zm-2.0858,0H3.7762a.13.13,0,0,1,0-.26H4.819a.13.13,0,1,1,0,.26Zm-2.0857,0H1.6907a.13.13,0,0,1,0-.26H2.7333a.13.13,0,1,1,0,.26Z"/><path class="e" d="M.6507,58.6381H.13a.13.13,0,0,1,0-.26H.6507a.13.13,0,0,1,0,.26Z"/><path class="e" d="M586.6294,58.6381h-.5205a.13.13,0,1,1,0-.26h.5205a.13.13,0,0,1,0,.26Z"/><path class="e" d="M585.049,58.6381h-1.06a.13.13,0,0,1,0-.26h1.06a.13.13,0,0,1,0,.26Zm-2.12,0H581.87a.13.13,0,0,1,0-.26h1.0594a.13.13,0,0,1,0,.26Zm-2.1193,0h-1.06a.13.13,0,1,1,0-.26h1.06a.13.13,0,1,1,0,.26Zm-2.12,0h-1.06a.13.13,0,0,1,0-.26h1.06a.13.13,0,0,1,0,.26Zm-2.1193,0h-1.06a.13.13,0,0,1,0-.26h1.06a.13.13,0,1,1,0,.26Zm-2.12,0h-1.06a.13.13,0,1,1,0-.26h1.06a.13.13,0,1,1,0,.26Zm-2.1192,0h-1.06a.13.13,0,0,1,0-.26h1.06a.13.13,0,0,1,0,.26Zm-2.12,0h-1.06a.13.13,0,0,1,0-.26h1.06a.13.13,0,1,1,0,.26Zm-2.12,0H567.033a.13.13,0,1,1,0-.26h1.0594a.13.13,0,0,1,0,.26Zm-2.1193,0h-1.06a.13.13,0,0,1,0-.26h1.06a.13.13,0,0,1,0,.26Zm-2.12,0h-1.06a.13.13,0,0,1,0-.26h1.06a.13.13,0,1,1,0,.26Zm-2.1192,0h-1.06a.13.13,0,1,1,0-.26h1.06a.13.13,0,0,1,0,.26Zm-2.12,0h-1.06a.13.13,0,0,1,0-.26h1.06a.13.13,0,0,1,0,.26Z"/><path class="e" d="M557.495,58.6381h-.52a.13.13,0,0,1,0-.26h.52a.13.13,0,1,1,0,.26Z"/><path class="e" d="M749.87,58.6381h-.5206a.13.13,0,0,1,0-.26h.5206a.13.13,0,0,1,0,.26Z"/><path class="e" d="M748.3032,58.6381h-1.0467a.13.13,0,0,1,0-.26h1.0467a.13.13,0,0,1,0,.26Zm-2.0929,0h-1.0466a.13.13,0,1,1,0-.26H746.21a.13.13,0,1,1,0,.26Zm-2.0928,0h-1.0467a.13.13,0,0,1,0-.26h1.0467a.13.13,0,0,1,0,.26Zm-2.0928,0H740.978a.13.13,0,0,1,0-.26h1.0467a.13.13,0,0,1,0,.26Zm-2.0933,0h-1.0462a.13.13,0,0,1,0-.26h1.0462a.13.13,0,0,1,0,.26Zm-2.0929,0h-1.0461a.13.13,0,1,1,0-.26h1.0461a.13.13,0,1,1,0,.26Zm-2.0928,0H734.7a.13.13,0,0,1,0-.26h1.0462a.13.13,0,0,1,0,.26Zm-2.0928,0h-1.0467a.13.13,0,0,1,0-.26h1.0467a.13.13,0,0,1,0,.26Zm-2.0929,0h-1.0466a.13.13,0,1,1,0-.26H731.56a.13.13,0,1,1,0,.26Zm-2.0928,0h-1.0466a.13.13,0,1,1,0-.26h1.0466a.13.13,0,1,1,0,.26Zm-2.0928,0h-1.0467a.13.13,0,0,1,0-.26h1.0467a.13.13,0,0,1,0,.26Zm-2.0933,0h-1.0462a.13.13,0,0,1,0-.26h1.0462a.13.13,0,0,1,0,.26Zm-2.0929,0h-1.0461a.13.13,0,1,1,0-.26h1.0461a.13.13,0,1,1,0,.26Zm-2.0928,0h-1.0462a.13.13,0,0,1,0-.26h1.0462a.13.13,0,0,1,0,.26Zm-2.0928,0h-1.0467a.13.13,0,0,1,0-.26h1.0467a.13.13,0,0,1,0,.26Zm-2.0928,0h-1.0467a.13.13,0,0,1,0-.26H716.91a.13.13,0,0,1,0,.26Zm-2.0929,0H713.77a.13.13,0,1,1,0-.26h1.0466a.13.13,0,1,1,0,.26Zm-2.0928,0h-1.0467a.13.13,0,0,1,0-.26h1.0467a.13.13,0,0,1,0,.26Zm-2.0933,0h-1.0462a.13.13,0,0,1,0-.26h1.0462a.13.13,0,0,1,0,.26Zm-2.0929,0h-1.0461a.13.13,0,1,1,0-.26h1.0461a.13.13,0,1,1,0,.26Zm-2.0928,0H705.399a.13.13,0,1,1,0-.26h1.0461a.13.13,0,0,1,0,.26Zm-2.0928,0h-1.0467a.13.13,0,0,1,0-.26h1.0467a.13.13,0,0,1,0,.26Zm-2.0928,0h-1.0467a.13.13,0,0,1,0-.26H702.26a.13.13,0,0,1,0,.26Zm-2.0929,0H699.12a.13.13,0,1,1,0-.26h1.0466a.13.13,0,1,1,0,.26Zm-2.0928,0h-1.0467a.13.13,0,0,1,0-.26h1.0467a.13.13,0,0,1,0,.26Zm-2.0928,0h-1.0467a.13.13,0,0,1,0-.26h1.0467a.13.13,0,0,1,0,.26Zm-2.0934,0h-1.0461a.13.13,0,0,1,0-.26h1.0461a.13.13,0,1,1,0,.26Zm-2.0928,0h-1.0461a.13.13,0,1,1,0-.26h1.0461a.13.13,0,1,1,0,.26Zm-2.0928,0h-1.0462a.13.13,0,0,1,0-.26h1.0462a.13.13,0,0,1,0,.26Zm-2.0928,0h-1.0467a.13.13,0,0,1,0-.26h1.0467a.13.13,0,0,1,0,.26Zm-2.0929,0H684.47a.13.13,0,1,1,0-.26h1.0466a.13.13,0,1,1,0,.26Zm-2.0928,0h-1.0467a.13.13,0,0,1,0-.26h1.0467a.13.13,0,0,1,0,.26Zm-2.0928,0H680.284a.13.13,0,0,1,0-.26h1.0467a.13.13,0,0,1,0,.26Zm-2.0933,0h-1.0462a.13.13,0,0,1,0-.26h1.0462a.13.13,0,0,1,0,.26Zm-2.0929,0h-1.0461a.13.13,0,1,1,0-.26h1.0461a.13.13,0,1,1,0,.26Zm-2.0928,0h-1.0462a.13.13,0,0,1,0-.26h1.0462a.13.13,0,0,1,0,.26Zm-2.0928,0h-1.0467a.13.13,0,0,1,0-.26h1.0467a.13.13,0,0,1,0,.26Zm-2.0929,0h-1.0466a.13.13,0,1,1,0-.26h1.0466a.13.13,0,1,1,0,.26Zm-2.0928,0h-1.0466a.13.13,0,1,1,0-.26h1.0466a.13.13,0,1,1,0,.26Zm-2.0928,0h-1.0467a.13.13,0,0,1,0-.26H666.68a.13.13,0,0,1,0,.26Zm-2.0933,0h-1.0462a.13.13,0,0,1,0-.26h1.0462a.13.13,0,0,1,0,.26Zm-2.0929,0h-1.0461a.13.13,0,1,1,0-.26h1.0461a.13.13,0,1,1,0,.26Zm-2.0928,0h-1.0462a.13.13,0,0,1,0-.26h1.0462a.13.13,0,0,1,0,.26Zm-2.0928,0h-1.0467a.13.13,0,0,1,0-.26h1.0467a.13.13,0,0,1,0,.26Zm-2.0928,0h-1.0467a.13.13,0,1,1,0-.26h1.0467a.13.13,0,0,1,0,.26Zm-2.0929,0h-1.0466a.13.13,0,1,1,0-.26h1.0466a.13.13,0,1,1,0,.26Zm-2.0928,0h-1.0467a.13.13,0,0,1,0-.26H652.03a.13.13,0,0,1,0,.26Zm-2.0933,0h-1.0462a.13.13,0,0,1,0-.26h1.0462a.13.13,0,0,1,0,.26Zm-2.0929,0h-1.0461a.13.13,0,1,1,0-.26h1.0461a.13.13,0,1,1,0,.26Zm-2.0928,0H644.705a.13.13,0,1,1,0-.26h1.0461a.13.13,0,0,1,0,.26Zm-2.0928,0h-1.0467a.13.13,0,0,1,0-.26h1.0467a.13.13,0,0,1,0,.26Zm-2.0928,0h-1.0467a.13.13,0,0,1,0-.26h1.0467a.13.13,0,0,1,0,.26Zm-2.0929,0H638.426a.13.13,0,1,1,0-.26h1.0466a.13.13,0,1,1,0,.26Zm-2.0933,0h-1.0462a.13.13,0,0,1,0-.26h1.0462a.13.13,0,0,1,0,.26Zm-2.0928,0H634.24a.13.13,0,0,1,0-.26h1.0462a.13.13,0,0,1,0,.26Zm-2.0929,0h-1.0461a.13.13,0,1,1,0-.26h1.0461a.13.13,0,1,1,0,.26Zm-2.0928,0h-1.0467a.13.13,0,0,1,0-.26h1.0467a.13.13,0,1,1,0,.26Zm-2.0928,0h-1.0467a.13.13,0,0,1,0-.26h1.0467a.13.13,0,0,1,0,.26Zm-2.0928,0h-1.0467a.13.13,0,0,1,0-.26h1.0467a.13.13,0,0,1,0,.26Zm-2.0929,0h-1.0466a.13.13,0,1,1,0-.26h1.0466a.13.13,0,1,1,0,.26Zm-2.0933,0h-1.0462a.13.13,0,0,1,0-.26h1.0462a.13.13,0,0,1,0,.26Zm-2.0928,0H619.59a.13.13,0,0,1,0-.26h1.0462a.13.13,0,0,1,0,.26Zm-2.0929,0h-1.0461a.13.13,0,0,1,0-.26h1.0461a.13.13,0,1,1,0,.26Zm-2.0928,0h-1.0466a.13.13,0,1,1,0-.26h1.0466a.13.13,0,1,1,0,.26Zm-2.0928,0H613.311a.13.13,0,0,1,0-.26h1.0467a.13.13,0,0,1,0,.26Zm-2.0928,0h-1.0467a.13.13,0,0,1,0-.26h1.0467a.13.13,0,0,1,0,.26Zm-2.0934,0h-1.0461a.13.13,0,1,1,0-.26h1.0461a.13.13,0,1,1,0,.26Zm-2.0928,0h-1.0462a.13.13,0,0,1,0-.26h1.0462a.13.13,0,0,1,0,.26Zm-2.0928,0H604.94a.13.13,0,0,1,0-.26h1.0462a.13.13,0,0,1,0,.26Zm-2.0928,0h-1.0467a.13.13,0,0,1,0-.26h1.0467a.13.13,0,0,1,0,.26Zm-2.0929,0h-1.0466a.13.13,0,1,1,0-.26H601.8a.13.13,0,1,1,0,.26Zm-2.0928,0h-1.0467a.13.13,0,0,1,0-.26h1.0467a.13.13,0,0,1,0,.26Zm-2.0928,0h-1.0467a.13.13,0,0,1,0-.26h1.0467a.13.13,0,0,1,0,.26Zm-2.0934,0h-1.0461a.13.13,0,1,1,0-.26h1.0461a.13.13,0,1,1,0,.26Zm-2.0928,0h-1.0461a.13.13,0,1,1,0-.26h1.0461a.13.13,0,0,1,0,.26Zm-2.0928,0h-1.0462a.13.13,0,0,1,0-.26h1.0462a.13.13,0,0,1,0,.26Zm-2.0928,0h-1.0467a.13.13,0,0,1,0-.26h1.0467a.13.13,0,0,1,0,.26Z"/><path class="e" d="M587.15,58.6381h-.52a.13.13,0,0,1,0-.26h.52a.13.13,0,1,1,0,.26Z"/><rect class="a" x="376.9443" y="31.0172" width="29.655" height="74.9254"/><path class="d" d="M385.9548,70.1741h12.014a6.4556,6.4556,0,0,0-6.0591-4.5324,6.012,6.012,0,0,0-5.9549,4.5324Zm6.7149,18.131c-8.8439,0-15.7254-6.5531-15.7254-14.9636A14.838,14.838,0,0,1,392.019,58.3778c8.4067,0,14.58,6.6082,14.58,15.5646v2.4029H386.012a7.46,7.46,0,0,0,7.0949,4.5872,7.8167,7.8167,0,0,0,5.7884-2.1848l5.8457,5.188A17.3373,17.3373,0,0,1,392.67,88.3051Z"/></svg>