<svg xmlns="http://www.w3.org/2000/svg" width="262" height="180" viewBox="0 0 262 180"><defs><style>.a{fill:#e00;}</style></defs><path d="M174.83207,83.4713h5.594a3.76412,3.76412,0,0,1,3.86277,3.71846,3.52875,3.52875,0,0,1-2.08364,3.18976l2.43625,4.31157H181.564l-2.09973-3.927h-1.87533v3.927h-2.75685Zm2.75685,2.35614v2.66065h2.51654A1.34632,1.34632,0,0,0,181.5,87.18976a1.37842,1.37842,0,0,0-1.39452-1.36232Z"/><path d="M189.01779,94.8513a4.45144,4.45144,0,0,1-4.61608-4.39168,4.35513,4.35513,0,0,1,4.42368-4.39187,4.30232,4.30232,0,0,1,4.27958,4.56817v.70522h-6.04261a2.191,2.191,0,0,0,2.08364,1.34642,2.29646,2.29646,0,0,0,1.699-.64121l1.71512,1.52272A5.08788,5.08788,0,0,1,189.01779,94.8513ZM187.04626,89.53h3.52626a1.89519,1.89519,0,0,0-1.77913-1.33032A1.76355,1.76355,0,0,0,187.04626,89.53Z"/><path d="M200.44629,94.066a3.83847,3.83847,0,0,1-2.27585.75332,4.368,4.368,0,1,1,2.24384-8.15845V83.4713l2.59665-.80142V94.69109h-2.56464Zm-1.85924-1.45853a2.57227,2.57227,0,0,0,1.82723-.67321V88.9689a2.74088,2.74088,0,0,0-1.82723-.65712,2.14928,2.14928,0,1,0,0,4.29567Z"/><path d="M213.6702,90.29922h-4.29567v4.39187h-2.75685V83.4713h2.75685v4.31157h4.29567V83.4713h2.75685V94.69109H213.6702Z"/><path d="M222.47043,94.17828a3.77,3.77,0,0,1-2.276.65711c-1.89143,0-3.15755-1.18621-3.15755-2.70874,0-1.49073,1.20212-2.61275,3.30166-2.61275a4.54338,4.54338,0,0,1,2.13193.48081V89.4819c0-.81751-.545-1.23432-1.60283-1.23432a6.55649,6.55649,0,0,0-2.54854.60921l-.76941-1.93953a8.91558,8.91558,0,0,1,3.49426-.86542c2.59645,0,4.023,1.13792,4.023,3.20566v5.43359h-2.59645Zm-1.58692-1.15421a2.98591,2.98591,0,0,0,1.58692-.43271v-.88152a3.37322,3.37322,0,0,0-1.667-.44881c-.80142,0-1.29833.33651-1.29833.86562C219.50508,92.68756,220.034,93.02407,220.88351,93.02407Z"/><path d="M230.11645,94.8193c-1.77913,0-2.77295-.84952-2.77295-2.61255V88.376h-1.79523V86.21205h1.79523V84.27271l2.59665-.80141v2.74075h2.37224V88.376h-2.37224v3.23766c0,.72131.38461.99381,1.17012.99381a2.80477,2.80477,0,0,0,1.13792-.25659l-.35261,2.09973A4.51915,4.51915,0,0,1,230.11645,94.8193Z"/><path class="a" d="M159.66478,90.67964c1.91018,0,4.67665-.39521,4.67665-2.66766a2.16039,2.16039,0,0,0-.04744-.5227l-1.13819-4.94437c-.26348-1.08683-.494-1.58084-2.40419-2.53593A22.29778,22.29778,0,0,0,155.08694,78c-.88923,0-1.1527,1.15269-2.20659,1.15269-1.021,0-1.77844-.85628-2.73353-.85628-.92216,0-1.515.62575-1.976,1.91018,0,0-1.28443,3.62275-1.4491,4.1497a.95043.95043,0,0,0-.0337.2964C146.688,86.06048,152.23251,90.67964,159.66478,90.67964Zm4.97305-1.74551a7.63154,7.63154,0,0,1,.26348,1.54791c0,2.14071-2.40419,3.32634-5.56587,3.32634-7.14671,0-13.40419-4.18263-13.40419-6.9491a2.81677,2.81677,0,0,1,.23054-1.11976c-2.56887.13174-5.89521.59282-5.89521,3.52395,0,4.80839,11.39521,10.73653,20.41916,10.73653,6.91617,0,8.66167-3.12874,8.66167-5.5988C169.34741,92.45808,167.66777,90.2515,164.63783,88.93413Z"/><path d="M164.63783,88.93413a7.63154,7.63154,0,0,1,.26348,1.54791c0,2.14071-2.40419,3.32634-5.56587,3.32634-7.14671,0-13.40419-4.18263-13.40419-6.9491a2.81677,2.81677,0,0,1,.23054-1.11976l.55988-1.38323a.95043.95043,0,0,0-.0337.2964c0,1.40779,5.54454,6.02695,12.97681,6.02695,1.91018,0,4.67665-.39521,4.67665-2.66766a2.16039,2.16039,0,0,0-.04744-.5227Z"/><path d="M30.72722,91.60661A5.48822,5.48822,0,0,0,34.642,93.39339c1.64057,0,2.76141-.7797,2.76141-1.90062,0-1.00708-.64975-1.51062-2.30658-1.78678l-1.90055-.30854c-2.07921-.34107-3.10255-1.31577-3.10255-2.95649,0-1.98164,1.65683-3.265,4.19087-3.265a7.62835,7.62835,0,0,1,4.5808,1.54329l-.94218,1.29951a6.04025,6.04025,0,0,0-3.71986-1.39708c-1.47817,0-2.46906.68228-2.46906,1.68951,0,.92591.56859,1.3644,2.0305,1.608l1.83557.29243c2.40408.38985,3.4924,1.38067,3.4924,3.15134,0,2.09532-1.81931,3.4924-4.532,3.4924a6.84953,6.84953,0,0,1-4.87315-2.04668Z"/><path d="M42.06485,91.33044a1.937,1.937,0,0,0,2.04669,2.11174A2.323,2.323,0,0,0,46.142,92.35379v-5.929h1.62439V94.6929H46.142v-.82849a3.378,3.378,0,0,1-2.48532.991,3.087,3.087,0,0,1-3.21624-3.24876V86.42484h1.62438Z"/><path d="M49.68255,86.42484h1.6082v.79582a3.77281,3.77281,0,0,1,2.534-.92592,4.26409,4.26409,0,1,1-2.51777,7.71588v4.04473H49.68255Zm1.62439,2.27407V92.4351a3.0658,3.0658,0,0,0,2.30666.97455,2.85136,2.85136,0,0,0,0-5.70156A2.96562,2.96562,0,0,0,51.30694,88.69891Z"/><path d="M59.542,86.42484h1.60812v.79582a3.77307,3.77307,0,0,1,2.53411-.92592,4.26409,4.26409,0,1,1-2.51785,7.71588v4.04473H59.542Zm1.62438,2.27407V92.4351a3.0658,3.0658,0,0,0,2.30666.97455,2.85136,2.85136,0,0,0,0-5.70156A2.96564,2.96564,0,0,0,61.1664,88.69891Z"/><path d="M73.365,86.26237a4.29651,4.29651,0,1,1-4.30463,4.28837A4.24346,4.24346,0,0,1,73.365,86.26237Zm2.69644,4.28837A2.70967,2.70967,0,1,0,73.365,93.42592,2.75954,2.75954,0,0,0,76.06141,90.55074Z"/><path d="M79.196,86.42484h1.62439v1.05572a2.58809,2.58809,0,0,1,2.27413-1.23445,2.06426,2.06426,0,0,1,.82842.12995v1.462a2.78247,2.78247,0,0,0-.95837-.17874,2.25716,2.25716,0,0,0-2.14418,1.51077V94.6929H79.196Z"/><path d="M86.35907,87.78925H84.60473V86.42484h1.75434V84.31311l1.60812-.38985v2.50158H90.4038v1.36441H87.96719v4.48322c0,.84476.34114,1.15345,1.21827,1.15345a3.191,3.191,0,0,0,1.18581-.195v1.36456a5.37933,5.37933,0,0,1-1.54314.24364c-1.6082,0-2.46906-.76344-2.46906-2.1929Z"/><path d="M95.39041,94.83911a4.25469,4.25469,0,0,1-4.33708-4.28837,4.15462,4.15462,0,0,1,4.14216-4.256,4.09457,4.09457,0,0,1,3.996,4.321v.471H92.66145a2.78884,2.78884,0,0,0,2.79394,2.37149,3.21539,3.21539,0,0,0,2.09547-.73092l1.03961,1.02335A4.93169,4.93169,0,0,1,95.39041,94.83911Zm-2.7127-4.97065h4.9056a2.46621,2.46621,0,0,0-4.9056,0Z"/><path d="M107.10178,93.91319a3.90563,3.90563,0,0,1-2.534.90966,4.26409,4.26409,0,1,1,2.51777-7.71588V83.32214l1.62438-.35732V94.6929h-1.60812Zm-2.30666-.50354a2.97965,2.97965,0,0,0,2.2904-.991V88.66638a3.023,3.023,0,0,0-2.2904-.97455,2.85933,2.85933,0,0,0,0,5.71782Z"/><path d="M118.13065,94.82285a4.13181,4.13181,0,0,1-2.50151-.82834v.69839H114.021V83.32214l1.62438-.35732v4.23973a3.83008,3.83008,0,0,1,2.51777-.90981,4.26472,4.26472,0,0,1-.03245,8.52811Zm-2.48532-6.12394V92.4351a3.0658,3.0658,0,0,0,2.30666.97455,2.85136,2.85136,0,0,0,0-5.70156A2.96562,2.96562,0,0,0,115.64533,88.69891Z"/><path d="M125.94358,94.72542l-3.29748-8.30058H124.433l2.42028,6.3188,2.66406-6.3188h1.75426l-3.99595,9.25887c-.76344,1.77067-1.64064,2.46922-3.16753,2.46922a3.137,3.137,0,0,1-.86094-.09758V96.62589a3.20907,3.20907,0,0,0,.731.0649,1.71359,1.71359,0,0,0,1.64065-1.21819Z"/></svg>