<svg xmlns="http://www.w3.org/2000/svg" width="555" height="175" viewBox="0 0 555 175"><defs><style>.a{fill:#e00;}</style></defs><path d="M357.19467,77.44781h10.1709a6.84386,6.84386,0,0,1,7.02321,6.76085,6.41592,6.41592,0,0,1-3.78843,5.79955l4.42954,7.83923h-5.59537l-3.81771-7.13994h-3.40969v7.13994h-5.01245Zm5.01245,4.28389v4.83755h4.57553a2.44784,2.44784,0,0,0,2.53549-2.36059,2.50623,2.50623,0,0,0-2.53549-2.477Z"/><path d="M382.9869,98.13872a8.09353,8.09353,0,0,1-8.39288-7.98487,7.91842,7.91842,0,0,1,8.04306-7.98522c4.48807,0,7.781,3.52642,7.781,8.30577v1.28221H379.43156a3.9837,3.9837,0,0,0,3.78844,2.448,4.17535,4.17535,0,0,0,3.08914-1.16583l3.11841,2.76859A9.25079,9.25079,0,0,1,382.9869,98.13872Zm-3.58461-9.67508h6.41139a3.44579,3.44579,0,0,0-3.23479-2.41877A3.20645,3.20645,0,0,0,379.40229,88.46364Z"/><path d="M403.766,96.71088a6.979,6.979,0,0,1-4.1379,1.36966A7.94189,7.94189,0,1,1,403.70779,83.247v-5.7992l4.72117-1.45712V97.84744h-4.663ZM400.38555,94.059a4.6769,4.6769,0,0,0,3.32224-1.224V87.44345a4.98349,4.98349,0,0,0-3.32224-1.19475,3.90777,3.90777,0,1,0,0,7.81031Z"/><path d="M427.80945,89.86222h-7.81031v7.98522h-5.01245V77.44781h5.01245V85.287h7.81031V77.44781h5.01246V97.84744h-5.01246Z"/><path d="M443.80988,96.91506a6.85464,6.85464,0,0,1-4.13826,1.19475c-3.439,0-5.741-2.15676-5.741-4.925,0-2.71041,2.18568-4.75044,6.003-4.75044a8.26061,8.26061,0,0,1,3.87624.8742v-.93239c0-1.48638-.99093-2.24421-2.91424-2.24421a11.92067,11.92067,0,0,0-4.63371,1.10765L434.863,83.7132a16.21009,16.21009,0,0,1,6.3532-1.57349c4.72081,0,7.31449,2.069,7.31449,5.82847v9.87926h-4.72081Zm-2.88532-2.09858a5.429,5.429,0,0,0,2.88532-.78674V92.427a6.13313,6.13313,0,0,0-3.031-.816c-1.45712,0-2.36059.61183-2.36059,1.57384C438.41833,94.20465,439.38,94.81648,440.92456,94.81648Z"/><path d="M457.71173,98.08054c-3.23479,0-5.04172-1.54457-5.04172-4.75009v-6.965H449.406V82.431H452.67V78.90493l4.72117-1.45712V82.431h4.31316v3.93443h-4.31316v5.88665c0,1.31148.69928,1.80694,2.12748,1.80694a5.09926,5.09926,0,0,0,2.069-.46655l-.64111,3.81771A8.21662,8.21662,0,0,1,457.71173,98.08054Z"/><path class="a" d="M329.61778,90.55389c3.47306,0,8.503-.71856,8.503-4.8503a3.92832,3.92832,0,0,0-.08625-.95035l-2.06944-8.98977c-.479-1.976-.89821-2.87425-4.37126-4.61078C328.89922,69.77545,323.031,67.5,321.29443,67.5c-1.61677,0-2.09581,2.09581-4.012,2.09581-1.85628,0-3.23353-1.55689-4.97006-1.55689-1.67664,0-2.75449,1.13773-3.59281,3.47306,0,0-2.33533,6.58682-2.63473,7.54491a1.72846,1.72846,0,0,0-.06128.53892C306.02357,82.15543,316.10456,90.55389,329.61778,90.55389Zm9.04192-3.17365a13.87585,13.87585,0,0,1,.479,2.81437c0,3.89222-4.37126,6.0479-10.11976,6.0479-12.994,0-24.37126-7.60479-24.37126-12.63473a5.12145,5.12145,0,0,1,.41916-2.03592c-4.67065.23952-10.71856,1.07784-10.71856,6.40718,0,8.74252,20.71856,19.521,37.12575,19.521,12.57485,0,15.7485-5.68862,15.7485-10.17964C347.22257,93.78743,344.16868,89.77545,338.6597,87.38024Z"/><path d="M338.6597,87.38024a13.87585,13.87585,0,0,1,.479,2.81437c0,3.89222-4.37126,6.0479-10.11976,6.0479-12.994,0-24.37126-7.60479-24.37126-12.63473a5.12145,5.12145,0,0,1,.41916-2.03592l1.018-2.515a1.72846,1.72846,0,0,0-.06128.53892c0,2.55962,10.081,10.95808,23.59421,10.95808,3.47306,0,8.503-.71856,8.503-4.8503a3.92832,3.92832,0,0,0-.08625-.95035Z"/><path d="M155.10773,82.58143a6.86066,6.86066,0,0,0-4.60749,1.68335v-1.447h-2.92382v21.14648h2.95343v-7.354a7.72006,7.72006,0,1,0,4.57788-14.02881Zm-.384,12.936a5.5737,5.5737,0,0,1-4.1939-1.772v-6.793a5.39181,5.39181,0,0,1,4.1939-1.80151,5.18428,5.18428,0,0,1,0,10.36646Z"/><path d="M137.18127,82.58143a6.86005,6.86005,0,0,0-4.60717,1.68335v-1.447h-2.924v21.14648h2.95343v-7.354a7.72006,7.72006,0,1,0,4.57775-14.02881Zm-.38385,12.936a5.57381,5.57381,0,0,1-4.1939-1.772v-6.793a5.392,5.392,0,0,1,4.1939-1.80151,5.18428,5.18428,0,0,1,0,10.36646Z"/><path d="M123.21277,93.59779a4.22356,4.22356,0,0,1-3.69177,1.97876,3.52169,3.52169,0,0,1-3.72126-3.83936V82.81776h-2.95343v9.42139a5.6127,5.6127,0,0,0,5.84772,5.907,6.14182,6.14182,0,0,0,4.51874-1.80176v1.50635h2.95343v-15.033h-2.95343Z"/><path d="M104.04614,86.06654l-3.3374-.5315c-2.658-.44311-3.69183-1.24023-3.69183-2.92382,0-1.8313,1.80163-3.07178,4.48919-3.07178a10.98291,10.98291,0,0,1,6.76337,2.54l1.71307-2.36279a13.86954,13.86954,0,0,0-8.32873-2.80591c-4.60736,0-7.61975,2.33349-7.61975,5.93628,0,2.98339,1.86059,4.75537,5.641,5.37548l3.45557.561c3.01239.5022,4.19378,1.41772,4.19378,3.24878,0,2.03784-2.0379,3.45557-5.02075,3.45557a9.978,9.978,0,0,1-7.1178-3.24878l-1.8902,2.18579a12.45445,12.45445,0,0,0,8.86029,3.72119c4.93219,0,8.24-2.54028,8.24-6.34986C110.39594,88.577,108.41718,86.77528,104.04614,86.06654Z"/><path d="M254.16022,82.58143a6.96451,6.96451,0,0,0-4.57782,1.654V76.527l-2.95343.64966V97.85072h2.924V96.58094a7.51253,7.51253,0,0,0,4.54822,1.50611,7.754,7.754,0,0,0,.059-15.50562Zm-.38385,12.936a5.57386,5.57386,0,0,1-4.194-1.772v-6.793a5.392,5.392,0,0,1,4.194-1.80151,5.18428,5.18428,0,0,1,0,10.36646Z"/><path d="M234.0191,77.17665V84.058a7.72017,7.72017,0,1,0-4.57775,14.02906,7.10062,7.10062,0,0,0,4.60736-1.65406v1.41773h2.92382V76.527Zm0,16.53906a5.41725,5.41725,0,0,1-4.1643,1.80176,5.19876,5.19876,0,0,1,0-10.396,5.496,5.496,0,0,1,4.1643,1.772Z"/><path d="M172.70905,82.52235a7.8119,7.8119,0,1,0,7.79705,7.79712A7.7404,7.7404,0,0,0,172.70905,82.52235Zm0,13.0249a5.22271,5.22271,0,1,1,4.90258-5.22778A5.03038,5.03038,0,0,1,172.70905,95.54725Z"/><path d="M274.8042,82.81776l-4.84375,11.48877-4.40051-11.48877H262.3111l5.99542,15.092-.59058,1.35864a3.1155,3.1155,0,0,1-2.983,2.21485,5.82521,5.82521,0,0,1-1.3291-.11817v2.59912a5.70772,5.70772,0,0,0,1.56537.17749c2.77618,0,4.37109-1.27026,5.75915-4.4895l7.26532-16.83447Z"/><path d="M186.2644,84.73744V82.81776H183.311v15.033h2.95343V87.80921a4.104,4.104,0,0,1,3.8985-2.74682,5.057,5.057,0,0,1,1.7425.325v-2.6582a3.75553,3.75553,0,0,0-1.50617-.23609A4.7054,4.7054,0,0,0,186.2644,84.73744Z"/><path d="M219.66638,90.43788c0-4.43042-3.13067-7.85645-7.2655-7.85645a7.55379,7.55379,0,0,0-7.53119,7.738,7.7358,7.7358,0,0,0,7.88562,7.79712,8.96584,8.96584,0,0,0,5.81824-1.979L216.68341,94.277a5.84606,5.84606,0,0,1-3.81,1.32886,5.07047,5.07047,0,0,1-5.07989-4.31153h11.87286ZM207.82312,89.079a4.484,4.484,0,0,1,8.91925,0Z"/><path d="M199.25854,78.26942l-2.92388.709v3.83936H193.145v2.481h3.1897v8.83081c0,2.59887,1.56524,3.98706,4.48919,3.98706a9.788,9.788,0,0,0,2.80573-.44287v-2.4812a5.80173,5.80173,0,0,1-2.156.35473c-1.59479,0-2.215-.56152-2.215-2.09717V85.29872h4.43018v-2.481h-4.43018Z"/></svg>