<svg xmlns="http://www.w3.org/2000/svg" viewBox="0 0 360 217">
  <defs>
    <style>
      .a48f2aa4-ea40-4f19-8be5-dc46f427f931 {
        fill: #231f20;
      }

      .b3ad769e-aebd-4842-8f7c-050960809abc {
        fill: #fff;
      }
    </style>
  </defs>
  <g id="ac615763-d827-45aa-93b9-902ecbdd740d" data-name="Layer 1">
    <g id="bf21ebd0-41ff-4376-a0cf-30a9cac9bcf8" data-name="Rectangle 26">
      <rect class="a48f2aa4-ea40-4f19-8be5-dc46f427f931" width="360" height="217"/>
      <rect class="a48f2aa4-ea40-4f19-8be5-dc46f427f931" x="0.5" y="0.5" width="359" height="216"/>
    </g>
    <g id="fe61d6bf-1344-42cd-81d9-0f7d75a1dbf8" data-name="Group 80">
      <g id="bcecccbc-337c-462b-9d77-f590d6a40141" data-name="Group 74-2">
        <path id="b0cca09f-699d-45d4-82d6-ebb9923ee888" data-name="Path 352-2" class="b3ad769e-aebd-4842-8f7c-050960809abc" d="M176.682,154.765a.911.911,0,0,1-.643-.265,6.156,6.156,0,0,1,0-8.7l6.469-6.469a6.3,6.3,0,0,1,8.7,0,6.16,6.16,0,0,1,0,8.7l-1.416,1.416a.907.907,0,0,1-1.293-1.273l.01-.01,1.416-1.416a4.343,4.343,0,0,0,0-6.133,4.439,4.439,0,0,0-6.133,0l-6.469,6.469a4.334,4.334,0,0,0,0,6.132.907.907,0,0,1,0,1.283l0,0A.9.9,0,0,1,176.682,154.765Z"/>
        <path id="a10401f7-876f-4fc9-ae85-f0930ced4310" data-name="Path 353-2" class="b3ad769e-aebd-4842-8f7c-050960809abc" d="M173.148,164.752a6.15,6.15,0,0,1-4.351-10.5l.332-.33a.907.907,0,0,1,1.283,1.283l-.332.33a4.337,4.337,0,0,0,6.133,6.133l5.542-5.542a4.334,4.334,0,0,0,0-6.132.907.907,0,0,1,1.273-1.293l.01.01a6.154,6.154,0,0,1,0,8.7l-5.542,5.542A6.126,6.126,0,0,1,173.148,164.752Z"/>
      </g>
      <path id="be686247-ff25-4ada-be98-39fe550a810e" data-name="Path 354-2" class="b3ad769e-aebd-4842-8f7c-050960809abc" d="M278.02,155.68h-1.815a.907.907,0,0,1-.908-.906v0a.907.907,0,0,1,.906-.908h1.817a.908.908,0,0,1,0,1.816Z"/>
      <path id="ac9860a1-598d-4d43-a8ff-a8dfe289b277" data-name="Path 355-2" class="b3ad769e-aebd-4842-8f7c-050960809abc" d="M268.945,164.755a.907.907,0,0,1-.908-.906v-1.816a.907.907,0,0,1,.906-.908h0a.909.909,0,0,1,.908.908v1.815A.908.908,0,0,1,268.945,164.755Z"/>
      <path id="b96c6f35-4ae3-43c1-8874-baa21fe31dc1" data-name="Path 356-2" class="b3ad769e-aebd-4842-8f7c-050960809abc" d="M275.141,161.877a.907.907,0,0,1-.643-.267l-2.566-2.565a.907.907,0,1,1,1.283-1.283l2.567,2.567a.9.9,0,0,1,.01,1.273l-.01.01A.9.9,0,0,1,275.141,161.877Z"/>
      <path id="ac61d3bd-dc54-48d0-8bf7-e24f9a3952d6" data-name="Path 357-2" class="b3ad769e-aebd-4842-8f7c-050960809abc" d="M254.424,148.419h-1.815a.907.907,0,0,1-.908-.906v0a.907.907,0,0,1,.906-.908h1.817a.908.908,0,0,1,0,1.816Z"/>
      <path id="b099e9da-4c71-463b-a34b-655d46381c72" data-name="Path 358-2" class="b3ad769e-aebd-4842-8f7c-050960809abc" d="M261.684,141.159a.907.907,0,0,1-.908-.906v-1.816a.907.907,0,0,1,.906-.908h0a.909.909,0,0,1,.908.908v1.815A.908.908,0,0,1,261.684,141.159Z"/>
      <path id="fbd94b46-f9f7-44b3-b269-0efe6a946804" data-name="Path 359-2" class="b3ad769e-aebd-4842-8f7c-050960809abc" d="M258.053,144.789a.907.907,0,0,1-.643-.267l-2.565-2.567a.907.907,0,1,1,1.283-1.283l2.567,2.567a.9.9,0,0,1,.01,1.273l-.01.01A.9.9,0,0,1,258.053,144.789Z"/>
      <g id="e8b4e791-f662-4884-aaf5-1b005f40847a" data-name="Group 75-2">
        <path id="b8abcbf1-1e2b-4a12-ba42-1ae7811d21d0" data-name="Path 360-2" class="b3ad769e-aebd-4842-8f7c-050960809abc" d="M94.693,66.752a7.26,7.26,0,1,1,7.26-7.26A7.268,7.268,0,0,1,94.693,66.752Zm0-12.706a5.445,5.445,0,1,0,5.445,5.445A5.45,5.45,0,0,0,94.693,54.046Z"/>
        <path id="f5802b72-69cc-4f18-a441-988043152c5e" data-name="Path 361-2" class="b3ad769e-aebd-4842-8f7c-050960809abc" d="M107.39,79.458a.909.909,0,0,1-.908-.908,11.8,11.8,0,0,0-23.6,0,.908.908,0,0,1-1.816,0,13.616,13.616,0,0,1,27.232,0A.909.909,0,0,1,107.39,79.458Z"/>
      </g>
      <g id="abfbe980-136e-45b3-8646-1df2a55bfb71" data-name="Group 76-2">
        <path id="e2aa2965-5b19-45b0-be48-d2ee0b805533" data-name="Path 362-2" class="b3ad769e-aebd-4842-8f7c-050960809abc" d="M169.1,56.453a1.47,1.47,0,0,1-.563-.109,1.8,1.8,0,0,1-.49-.327,1.448,1.448,0,0,1-.327-.49,1.5,1.5,0,0,1,2.451-1.634,1.574,1.574,0,0,1,.436,1.071,1.549,1.549,0,0,1-.109.563,2.339,2.339,0,0,1-.327.49,1.8,1.8,0,0,1-.49.327A1.561,1.561,0,0,1,169.1,56.453Z"/>
        <path id="a20c711a-1f48-45a7-8ec8-0bb8dd9300c0" data-name="Path 363-2" class="b3ad769e-aebd-4842-8f7c-050960809abc" d="M179.989,56.453a1.47,1.47,0,0,1-.563-.109,1.8,1.8,0,0,1-.49-.327,1.448,1.448,0,0,1-.327-.49,1.555,1.555,0,0,1,0-1.144,1.448,1.448,0,0,1,.327-.49,1.549,1.549,0,0,1,1.634-.327,1.448,1.448,0,0,1,.49.327,1.574,1.574,0,0,1,.436,1.071,1.549,1.549,0,0,1-.109.563,2.339,2.339,0,0,1-.327.49,1.8,1.8,0,0,1-.49.327A1.561,1.561,0,0,1,179.989,56.453Z"/>
        <path id="a5027a62-d345-42bc-b368-d21178c378b9" data-name="Path 364-2" class="b3ad769e-aebd-4842-8f7c-050960809abc" d="M190.879,56.453a1.47,1.47,0,0,1-.563-.109,1.8,1.8,0,0,1-.49-.327,1.448,1.448,0,0,1-.327-.49,1.555,1.555,0,0,1,0-1.144,1.448,1.448,0,0,1,.327-.49,1.549,1.549,0,0,1,1.634-.327,1.448,1.448,0,0,1,.49.327,2.339,2.339,0,0,1,.327.49,1.561,1.561,0,0,1,.109.581,1.532,1.532,0,0,1-.436,1.053,1.8,1.8,0,0,1-.49.327A1.561,1.561,0,0,1,190.879,56.453Z"/>
        <path id="bfee69b1-200d-4bc6-b049-90251da79f78" data-name="Path 365-2" class="b3ad769e-aebd-4842-8f7c-050960809abc" d="M179.989,67.344a1.5,1.5,0,0,1-1.053-.436,1.448,1.448,0,0,1-.327-.49,1.561,1.561,0,0,1-.109-.581,1.5,1.5,0,0,1,.436-1.053,1.5,1.5,0,0,1,2.56,1.053,1.574,1.574,0,0,1-.436,1.071,2.339,2.339,0,0,1-.49.327A1.561,1.561,0,0,1,179.989,67.344Z"/>
        <path id="fd6b3162-133a-4b23-854e-569ff86de71b" data-name="Path 366-2" class="b3ad769e-aebd-4842-8f7c-050960809abc" d="M169.1,67.344a1.47,1.47,0,0,1-.563-.109,2.339,2.339,0,0,1-.49-.327,1.448,1.448,0,0,1-.327-.49,1.561,1.561,0,0,1-.109-.581,1.5,1.5,0,0,1,.436-1.053,1.5,1.5,0,0,1,2.56,1.053,1.489,1.489,0,0,1-1.507,1.507Z"/>
        <path id="a83bf29b-b2bd-434c-8253-4f9addc8a6ca" data-name="Path 367-2" class="b3ad769e-aebd-4842-8f7c-050960809abc" d="M169.1,78.235a1.47,1.47,0,0,1-.563-.109,2.339,2.339,0,0,1-.49-.327,1.5,1.5,0,0,1-.436-1.071,1.5,1.5,0,0,1,3,0,1.489,1.489,0,0,1-1.507,1.507Z"/>
        <path id="a941e5cf-5c74-476a-b5a9-0405e7733dea" data-name="Path 368-2" class="b3ad769e-aebd-4842-8f7c-050960809abc" d="M179.989,78.235a1.532,1.532,0,0,1-1.053-.436,1.5,1.5,0,0,1-.436-1.071,1.5,1.5,0,0,1,3,0,1.489,1.489,0,0,1-1.507,1.507Z"/>
        <path id="fd887f49-3eab-4f94-9ca1-ae04fa7b7654" data-name="Path 369-2" class="b3ad769e-aebd-4842-8f7c-050960809abc" d="M190.879,78.235a1.532,1.532,0,0,1-1.053-.436,1.5,1.5,0,0,1-.436-1.071,1.532,1.532,0,0,1,.436-1.053,1.448,1.448,0,0,1,.49-.327,1.515,1.515,0,0,1,1.634.327,1.532,1.532,0,0,1,.436,1.053,1.489,1.489,0,0,1-1.507,1.507Z"/>
        <path id="abf3302e-3f0f-467b-bbba-98ef80b63b54" data-name="Path 370-2" class="b3ad769e-aebd-4842-8f7c-050960809abc" d="M190.879,67.344a1.47,1.47,0,0,1-.563-.109,2.339,2.339,0,0,1-.49-.327,1.5,1.5,0,0,1-.436-1.071,1.5,1.5,0,0,1,3,0,1.574,1.574,0,0,1-.436,1.071,2.339,2.339,0,0,1-.49.327A1.561,1.561,0,0,1,190.879,67.344Z"/>
      </g>
      <path id="b43d7ba7-33b7-4f0e-933c-54b618e2e80a" data-name="Path 371-2" class="b3ad769e-aebd-4842-8f7c-050960809abc" d="M252.6,57.716a.907.907,0,0,1-.908-.906v0a.908.908,0,0,1,.906-.908l25.422-.013h0a.909.909,0,0,1,.908.908h0a.909.909,0,0,1-.908.908h0l-25.421.013Z"/>
      <path id="e3b16a71-6032-4f58-b864-f55a6b2ad83c" data-name="Path 372-2" class="b3ad769e-aebd-4842-8f7c-050960809abc" d="M278.009,66.752H252.6a.909.909,0,0,1-.908-.908h0a.907.907,0,0,1,.906-.908h25.412a.907.907,0,0,1,.908.906v0a.909.909,0,0,1-.908.908Z"/>
      <path id="fac72775-96e4-43db-a752-a311385d3c76" data-name="Path 373-2" class="b3ad769e-aebd-4842-8f7c-050960809abc" d="M278.009,75.827H252.6a.909.909,0,0,1-.908-.908h0a.907.907,0,0,1,.906-.908h25.412a.907.907,0,0,1,.908.906v0a.909.909,0,0,1-.908.908Z"/>
      <g id="ffb02b0b-ad90-4e85-a1b7-594bd4b436cd" data-name="Group 77-2">
        <path id="f4568246-a984-45de-9d46-2c64520122b3" data-name="Path 374-2" class="b3ad769e-aebd-4842-8f7c-050960809abc" d="M91.054,157.507a9.983,9.983,0,1,1,9.983-9.983A10,10,0,0,1,91.054,157.507Zm0-18.151a8.168,8.168,0,1,0,8.168,8.168A8.176,8.176,0,0,0,91.054,139.356Z"/>
        <path id="a955d960-12cd-426e-b617-914dbb7edca1" data-name="Path 375-2" class="b3ad769e-aebd-4842-8f7c-050960809abc" d="M107.391,164.768a.907.907,0,0,1-.643-.267L97.1,154.848a.907.907,0,0,1,1.283-1.283l9.653,9.653a.9.9,0,0,1,.01,1.273l-.01.01A.9.9,0,0,1,107.391,164.768Z"/>
      </g>
      <g id="bc68a9f5-5ac7-4882-9c71-9cbfefc37967" data-name="Group 78-2">
        <path id="e2ec7bd4-f441-46e5-95cb-d9496616bdfe" data-name="Path 376-2" class="b3ad769e-aebd-4842-8f7c-050960809abc" d="M261.992,154.765a.911.911,0,0,1-.643-.265,6.156,6.156,0,0,1,0-8.7l6.469-6.469a6.3,6.3,0,0,1,8.7,0,6.16,6.16,0,0,1,0,8.7l-1.416,1.416a.907.907,0,0,1-1.293-1.273l.01-.01,1.416-1.416a4.343,4.343,0,0,0,0-6.133,4.439,4.439,0,0,0-6.133,0l-6.469,6.469a4.334,4.334,0,0,0,0,6.132.907.907,0,0,1,0,1.283l0,0A.9.9,0,0,1,261.992,154.765Z"/>
        <path id="fb275b93-fa53-4fa8-a19f-c8d9429cafbc" data-name="Path 377-2" class="b3ad769e-aebd-4842-8f7c-050960809abc" d="M258.458,164.752a6.15,6.15,0,0,1-4.351-10.5l.332-.33a.907.907,0,0,1,1.283,1.283l-.332.33a4.337,4.337,0,0,0,6.133,6.133l5.542-5.542a4.334,4.334,0,0,0,0-6.132.907.907,0,0,1,1.273-1.293l.01.01a6.154,6.154,0,0,1,0,8.7l-5.542,5.542A6.126,6.126,0,0,1,258.458,164.752Z"/>
      </g>
    </g>
  </g>
</svg>
