<svg xmlns="http://www.w3.org/2000/svg" viewBox="0 0 265 210">
  <defs>
    <style>
      .a5dc11d5-18f2-40aa-a20c-dd40abdc774d, .ee297336-0d80-4af8-994b-8d7de0d51de6 {
        fill: none;
      }

      .a5dc11d5-18f2-40aa-a20c-dd40abdc774d {
        stroke: #707171;
      }

      .bc09b727-d91e-41de-83f4-b525d05ee807 {
        fill: #2e2e2e;
      }

      .ee46e947-1530-4d69-84d8-903dcc9e9262 {
        fill: #fff;
      }
    </style>
  </defs>
  <g id="b5e864c1-b840-4212-b036-e83fca22644f" data-name="Layer 1">
    <g>
      <g id="eae82003-5492-4ade-85b1-0046a56cc0c6" data-name="Rectangle 12">
        <rect class="ee297336-0d80-4af8-994b-8d7de0d51de6" width="265" height="210"/>
        <rect class="a5dc11d5-18f2-40aa-a20c-dd40abdc774d" x="0.5" y="0.5" width="264" height="209"/>
      </g>
      <rect class="bc09b727-d91e-41de-83f4-b525d05ee807" x="0.5" y="0.5" width="264" height="209"/>
      <g>
        <path class="ee46e947-1530-4d69-84d8-903dcc9e9262" d="M153.5,112.5h-3a1.5,1.5,0,0,1,0-3h3a1.5,1.5,0,0,1,0,3Z"/>
        <path class="ee46e947-1530-4d69-84d8-903dcc9e9262" d="M138.5,127.5A1.5,1.5,0,0,1,137,126v-3a1.5,1.5,0,0,1,3,0v3A1.5,1.5,0,0,1,138.5,127.5Z"/>
        <path class="ee46e947-1530-4d69-84d8-903dcc9e9262" d="M148.742,122.742a1.493,1.493,0,0,1-1.06-.439l-4.243-4.242a1.5,1.5,0,0,1,2.122-2.122l4.242,4.243a1.5,1.5,0,0,1-1.061,2.56Z"/>
        <path class="ee46e947-1530-4d69-84d8-903dcc9e9262" d="M114.5,100.5h-3a1.5,1.5,0,0,1,0-3h3a1.5,1.5,0,0,1,0,3Z"/>
        <path class="ee46e947-1530-4d69-84d8-903dcc9e9262" d="M126.5,88.5A1.5,1.5,0,0,1,125,87V84a1.5,1.5,0,0,1,3,0v3A1.5,1.5,0,0,1,126.5,88.5Z"/>
        <path class="ee46e947-1530-4d69-84d8-903dcc9e9262" d="M120.5,94.5a1.5,1.5,0,0,1-1.061-.439L115.2,89.818a1.5,1.5,0,1,1,2.121-2.121l4.243,4.242A1.5,1.5,0,0,1,120.5,94.5Z"/>
        <g>
          <path class="ee46e947-1530-4d69-84d8-903dcc9e9262" d="M127.01,110.988a1.5,1.5,0,0,1-1.061-.439,10.18,10.18,0,0,1,0-14.379l10.694-10.691a10.407,10.407,0,0,1,14.378,0,10.18,10.18,0,0,1,0,14.379l-2.34,2.341a1.5,1.5,0,1,1-2.121-2.121l2.34-2.341a7.18,7.18,0,0,0,0-10.136,7.34,7.34,0,0,0-10.136,0L128.07,98.291a7.176,7.176,0,0,0,0,10.137,1.5,1.5,0,0,1-1.06,2.56Z"/>
          <path class="ee46e947-1530-4d69-84d8-903dcc9e9262" d="M121.171,127.5a10.163,10.163,0,0,1-7.19-17.352l.542-.545a1.5,1.5,0,1,1,2.127,2.115l-.545.548A7.168,7.168,0,1,0,126.239,122.4l9.158-9.158a7.181,7.181,0,0,0,0-10.137,1.5,1.5,0,0,1,2.122-2.121,10.181,10.181,0,0,1,0,14.379l-9.159,9.158A10.129,10.129,0,0,1,121.171,127.5Z"/>
        </g>
      </g>
    </g>
  </g>
</svg>
