<?xml version="1.0" encoding="utf-8"?>
<!-- Generator: Adobe Illustrator 27.6.1, SVG Export Plug-In . SVG Version: 6.00 Build 0)  -->
<svg version="1.1" id="Layer_1" xmlns="http://www.w3.org/2000/svg" xmlns:xlink="http://www.w3.org/1999/xlink" x="0px" y="0px"
	 viewBox="0 0 555 288" style="enable-background:new 0 0 555 288;" xml:space="preserve">
<style type="text/css">
	.st0{fill:#F3F3F3;}
	.st1{fill:#EE0000;}
	.st2{fill:#E0E0E0;}
	.st3{fill:#FFFFFF;}
	.st4{fill:#79C4C6;}
	.st5{fill:#316DC1;}
	.st6{fill:#4D4D4D;}
	.st7{fill:#ED0000;}
	.st8{fill:#DFDFDF;}
	.st9{fill:none;stroke:#FF0000;stroke-width:1.25;stroke-linecap:round;stroke-linejoin:round;stroke-miterlimit:10;}
	.st10{fill:none;}
	.st11{fill:#689B7A;}
	.st12{fill:#ED1C24;}
	.st13{fill:#383838;}
	.st14{clip-path:url(#SVGID_00000012466084964481759480000015696055899630864781_);}
	.st15{clip-path:url(#SVGID_00000032615483798959862670000000495090031731961504_);}
	.st16{fill:#151515;}
	.st17{fill:#F2F2F2;}
	.st18{fill:none;stroke:#1E67CD;stroke-width:0.75;stroke-miterlimit:10;}
	.st19{fill:#1E67CD;}
	.st20{fill:#707070;}
	.st21{fill:none;stroke:#FFFFFF;stroke-width:1.25;stroke-linecap:round;stroke-linejoin:round;stroke-miterlimit:10;}
	.st22{fill:none;stroke:#FFFFFF;stroke-width:2;stroke-linecap:round;stroke-linejoin:round;stroke-miterlimit:10;}
	.st23{fill:none;stroke:#FFFFFF;stroke-width:3;stroke-linecap:round;stroke-linejoin:round;stroke-miterlimit:10;}
	.st24{fill:#151515;stroke:#FFFFFF;stroke-width:2;stroke-linecap:round;stroke-linejoin:round;stroke-miterlimit:10;}
	.st25{fill:none;stroke:#000000;stroke-width:2;stroke-linecap:round;stroke-linejoin:round;stroke-miterlimit:10;}
	.st26{stroke:#000000;stroke-width:2;stroke-linecap:round;stroke-linejoin:round;stroke-miterlimit:10;}
	.st27{fill:none;stroke:#000000;stroke-width:3;stroke-linecap:round;stroke-linejoin:round;stroke-miterlimit:10;}
	.st28{fill:none;stroke:#000000;stroke-width:2;stroke-miterlimit:10;}
	.st29{fill:none;stroke:#000000;stroke-width:2;stroke-linecap:round;stroke-miterlimit:10;}
	.st30{fill:#FFFFFF;stroke:#000000;stroke-width:2;stroke-linecap:round;stroke-linejoin:round;stroke-miterlimit:10;}
	.st31{stroke:#000000;stroke-width:3;stroke-linecap:round;stroke-linejoin:round;stroke-miterlimit:10;}
	.st32{fill:none;stroke:#FFFFFF;stroke-width:4;stroke-linecap:round;stroke-linejoin:round;stroke-miterlimit:10;}
	.st33{fill:none;stroke:#000000;stroke-width:3;stroke-linecap:round;stroke-linejoin:round;}
	.st34{fill:none;stroke:#000000;stroke-width:3;stroke-linecap:round;stroke-linejoin:round;stroke-dasharray:0,5.25;}
	.st35{fill:#F2F2F2;stroke:#000000;stroke-width:2;stroke-linecap:round;stroke-linejoin:round;stroke-miterlimit:10;}
	.st36{fill:#1F63B5;}
	.st37{fill:none;stroke:#A7C0E4;stroke-width:5.000000e-02;stroke-miterlimit:10;}
	.st38{opacity:0.25;}
	.st39{fill:#0066CC;}
	.st40{fill:none;stroke:#000000;stroke-width:0.5;stroke-miterlimit:10;}
	.st41{clip-path:url(#SVGID_00000060713470381316804000000015420782776874522279_);}
	.st42{fill:none;stroke:#1E67CD;stroke-width:0.5;stroke-linecap:round;stroke-linejoin:round;}
	.st43{fill:none;stroke:#1E67CD;stroke-width:0.5;stroke-linecap:round;stroke-linejoin:round;stroke-dasharray:0,1.002;}
	.st44{fill:none;stroke:#1E67CD;stroke-width:0.5;stroke-linecap:round;stroke-miterlimit:10;}
	.st45{fill:none;stroke:#1E67CD;stroke-width:0.5;stroke-linecap:round;stroke-miterlimit:10;stroke-dasharray:0,1.002;}
	.st46{fill:none;stroke:#1E67CD;stroke-miterlimit:10;}
	.st47{fill:#8F0000;}
	.st48{clip-path:url(#SVGID_00000067194169517629455720000000080759081577692806_);}
	.st49{clip-path:url(#SVGID_00000166659674213299692690000014984366869162670240_);}
	.st50{fill:#FFFFFF;stroke:#FFFFFF;stroke-width:5.000000e-02;stroke-miterlimit:10;}
	.st51{fill:none;stroke:#FFFFFF;stroke-width:0.2;stroke-linecap:round;stroke-linejoin:round;stroke-miterlimit:10;}
	.st52{opacity:0.5;fill:#1E67CD;}
	.st53{fill:#151515;stroke:#1E67CD;stroke-miterlimit:10;}
	.st54{fill:#151515;stroke:#316DC1;stroke-width:0.25;stroke-miterlimit:10;}
	.st55{fill:none;stroke:#FFFFFF;stroke-width:0.45;stroke-linecap:round;stroke-linejoin:round;stroke-miterlimit:10;}
	.st56{fill:#27579A;}
	.st57{fill:#C65E2B;}
	.st58{fill:#4E745C;}
	.st59{fill:#F7823C;}
</style>
<g>
	<rect y="0" class="st17" width="555" height="288"/>
	<rect x="100.1" y="58.9" class="st3" width="170.3" height="170.3"/>
	<rect x="284.4" y="58.9" class="st3" width="170.3" height="170.3"/>
	<g>
		<line class="st37" x1="132.1" y1="0" x2="132.1" y2="288"/>
		<line class="st37" x1="128.5" y1="0" x2="128.5" y2="288"/>
		<line class="st37" x1="125" y1="0" x2="125" y2="288"/>
		<line class="st37" x1="121.5" y1="0" x2="121.5" y2="288"/>
		<line class="st37" x1="117.9" y1="0" x2="117.9" y2="288"/>
		<line class="st37" x1="114.4" y1="0" x2="114.4" y2="288"/>
		<line class="st37" x1="110.8" y1="0" x2="110.8" y2="288"/>
		<line class="st37" x1="107.3" y1="0" x2="107.3" y2="288"/>
		<line class="st37" x1="103.7" y1="0" x2="103.7" y2="288"/>
		<line class="st37" x1="100.2" y1="0" x2="100.2" y2="288"/>
		<line class="st37" x1="96.6" y1="0" x2="96.6" y2="288"/>
		<line class="st37" x1="93.1" y1="0" x2="93.1" y2="288"/>
		<line class="st37" x1="89.6" y1="0" x2="89.6" y2="288"/>
		<line class="st37" x1="86" y1="0" x2="86" y2="288"/>
		<line class="st37" x1="82.5" y1="0" x2="82.5" y2="288"/>
		<line class="st37" x1="78.9" y1="0" x2="78.9" y2="288"/>
		<line class="st37" x1="75.4" y1="0" x2="75.4" y2="288"/>
		<line class="st37" x1="71.8" y1="0" x2="71.8" y2="288"/>
		<line class="st37" x1="68.3" y1="0" x2="68.3" y2="288"/>
		<line class="st37" x1="64.8" y1="0" x2="64.8" y2="288"/>
		<line class="st37" x1="61.2" y1="0" x2="61.2" y2="288"/>
		<line class="st37" x1="57.7" y1="0" x2="57.7" y2="288"/>
		<line class="st37" x1="54.1" y1="0" x2="54.1" y2="288"/>
		<line class="st37" x1="50.6" y1="0" x2="50.6" y2="288"/>
		<line class="st37" x1="47" y1="0" x2="47" y2="288"/>
		<line class="st37" x1="43.5" y1="0" x2="43.5" y2="288"/>
		<line class="st37" x1="39.9" y1="0" x2="39.9" y2="288"/>
		<line class="st37" x1="36.4" y1="0" x2="36.4" y2="288"/>
		<line class="st37" x1="32.9" y1="0" x2="32.9" y2="288"/>
		<line class="st37" x1="29.3" y1="0" x2="29.3" y2="288"/>
		<line class="st37" x1="25.8" y1="0" x2="25.8" y2="288"/>
		<line class="st37" x1="22.2" y1="0" x2="22.2" y2="288"/>
		<line class="st37" x1="18.7" y1="0" x2="18.7" y2="288"/>
		<line class="st37" x1="15.1" y1="0" x2="15.1" y2="288"/>
		<line class="st37" x1="11.6" y1="0" x2="11.6" y2="288"/>
		<line class="st37" x1="8.1" y1="0" x2="8.1" y2="288"/>
		<line class="st37" x1="4.5" y1="0" x2="4.5" y2="288"/>
		<line class="st37" x1="1" y1="0" x2="1" y2="288"/>
		<line class="st37" x1="135.6" y1="0" x2="135.6" y2="288"/>
		<line class="st37" x1="139.2" y1="0" x2="139.2" y2="288"/>
		<line class="st37" x1="142.7" y1="0" x2="142.7" y2="288"/>
		<line class="st37" x1="146.3" y1="0" x2="146.3" y2="288"/>
		<line class="st37" x1="149.8" y1="0" x2="149.8" y2="288"/>
		<line class="st37" x1="153.3" y1="0" x2="153.3" y2="288"/>
		<line class="st37" x1="156.9" y1="0" x2="156.9" y2="288"/>
		<line class="st37" x1="160.4" y1="0" x2="160.4" y2="288"/>
		<line class="st37" x1="164" y1="0" x2="164" y2="288"/>
		<line class="st37" x1="167.5" y1="0" x2="167.5" y2="288"/>
		<line class="st37" x1="171.1" y1="0" x2="171.1" y2="288"/>
		<line class="st37" x1="174.6" y1="0" x2="174.6" y2="288"/>
		<line class="st37" x1="178.2" y1="0" x2="178.2" y2="288"/>
		<line class="st37" x1="181.7" y1="0" x2="181.7" y2="288"/>
		<line class="st37" x1="185.2" y1="0" x2="185.2" y2="288"/>
		<line class="st37" x1="188.8" y1="0" x2="188.8" y2="288"/>
		<line class="st37" x1="192.3" y1="0" x2="192.3" y2="288"/>
		<line class="st37" x1="195.9" y1="0" x2="195.9" y2="288"/>
		<line class="st37" x1="199.4" y1="0" x2="199.4" y2="288"/>
		<line class="st37" x1="203" y1="0" x2="203" y2="288"/>
		<line class="st37" x1="206.5" y1="0" x2="206.5" y2="288"/>
		<line class="st37" x1="210" y1="0" x2="210" y2="288"/>
		<line class="st37" x1="213.6" y1="0" x2="213.6" y2="288"/>
		<line class="st37" x1="217.1" y1="0" x2="217.1" y2="288"/>
		<line class="st37" x1="220.7" y1="0" x2="220.7" y2="288"/>
		<line class="st37" x1="224.2" y1="0" x2="224.2" y2="288"/>
		<line class="st37" x1="227.8" y1="0" x2="227.8" y2="288"/>
		<line class="st37" x1="231.3" y1="0" x2="231.3" y2="288"/>
		<line class="st37" x1="234.9" y1="0" x2="234.9" y2="288"/>
		<line class="st37" x1="238.4" y1="0" x2="238.4" y2="288"/>
		<line class="st37" x1="241.9" y1="0" x2="241.9" y2="288"/>
		<line class="st37" x1="245.5" y1="0" x2="245.5" y2="288"/>
		<line class="st37" x1="249" y1="0" x2="249" y2="288"/>
		<line class="st37" x1="252.6" y1="0" x2="252.6" y2="288"/>
		<line class="st37" x1="256.1" y1="0" x2="256.1" y2="288"/>
		<line class="st37" x1="259.7" y1="0" x2="259.7" y2="288"/>
		<line class="st37" x1="263.2" y1="0" x2="263.2" y2="288"/>
		<line class="st37" x1="266.7" y1="0" x2="266.7" y2="288"/>
		<line class="st37" x1="270.3" y1="0" x2="270.3" y2="288"/>
		<line class="st37" x1="273.8" y1="0" x2="273.8" y2="288"/>
		<line class="st37" x1="277.4" y1="0" x2="277.4" y2="288"/>
		<line class="st37" x1="280.9" y1="0" x2="280.9" y2="288"/>
		<line class="st37" x1="284.5" y1="0" x2="284.5" y2="288"/>
		<line class="st37" x1="288" y1="0" x2="288" y2="288"/>
		<line class="st37" x1="291.6" y1="0" x2="291.6" y2="288"/>
		<line class="st37" x1="295.1" y1="0" x2="295.1" y2="288"/>
		<line class="st37" x1="298.6" y1="0" x2="298.6" y2="288"/>
		<line class="st37" x1="302.2" y1="0" x2="302.2" y2="288"/>
		<line class="st37" x1="305.7" y1="0" x2="305.7" y2="288"/>
		<line class="st37" x1="309.3" y1="0" x2="309.3" y2="288"/>
		<line class="st37" x1="312.8" y1="0" x2="312.8" y2="288"/>
		<line class="st37" x1="316.4" y1="0" x2="316.4" y2="288"/>
		<line class="st37" x1="319.9" y1="0" x2="319.9" y2="288"/>
		<line class="st37" x1="323.5" y1="0" x2="323.5" y2="288"/>
		<line class="st37" x1="327" y1="0" x2="327" y2="288"/>
		<line class="st37" x1="330.5" y1="0" x2="330.5" y2="288"/>
		<line class="st37" x1="334.1" y1="0" x2="334.1" y2="288"/>
		<line class="st37" x1="337.6" y1="0" x2="337.6" y2="288"/>
		<line class="st37" x1="341.2" y1="0" x2="341.2" y2="288"/>
		<line class="st37" x1="344.7" y1="0" x2="344.7" y2="288"/>
		<line class="st37" x1="348.3" y1="0" x2="348.3" y2="288"/>
		<line class="st37" x1="351.8" y1="0" x2="351.8" y2="288"/>
		<line class="st37" x1="355.3" y1="0" x2="355.3" y2="288"/>
		<line class="st37" x1="358.9" y1="0" x2="358.9" y2="288"/>
		<line class="st37" x1="362.4" y1="0" x2="362.4" y2="288"/>
		<line class="st37" x1="366" y1="0" x2="366" y2="288"/>
		<line class="st37" x1="369.5" y1="0" x2="369.5" y2="288"/>
		<line class="st37" x1="373.1" y1="0" x2="373.1" y2="288"/>
		<line class="st37" x1="376.6" y1="0" x2="376.6" y2="288"/>
		<line class="st37" x1="380.2" y1="0" x2="380.2" y2="288"/>
		<line class="st37" x1="383.7" y1="0" x2="383.7" y2="288"/>
		<line class="st37" x1="387.2" y1="0" x2="387.2" y2="288"/>
		<line class="st37" x1="390.8" y1="0" x2="390.8" y2="288"/>
		<line class="st37" x1="394.3" y1="0" x2="394.3" y2="288"/>
		<line class="st37" x1="397.9" y1="0" x2="397.9" y2="288"/>
		<line class="st37" x1="401.4" y1="0" x2="401.4" y2="288"/>
		<line class="st37" x1="405" y1="0" x2="405" y2="288"/>
		<line class="st37" x1="408.5" y1="0" x2="408.5" y2="288"/>
		<line class="st37" x1="412" y1="0" x2="412" y2="288"/>
		<line class="st37" x1="415.6" y1="0" x2="415.6" y2="288"/>
		<line class="st37" x1="419.1" y1="0" x2="419.1" y2="288"/>
		<line class="st37" x1="422.7" y1="0" x2="422.7" y2="288"/>
		<line class="st37" x1="426.2" y1="0" x2="426.2" y2="288"/>
		<line class="st37" x1="429.8" y1="0" x2="429.8" y2="288"/>
		<line class="st37" x1="433.3" y1="0" x2="433.3" y2="288"/>
		<line class="st37" x1="436.9" y1="0" x2="436.9" y2="288"/>
		<line class="st37" x1="440.4" y1="0" x2="440.4" y2="288"/>
		<line class="st37" x1="443.9" y1="0" x2="443.9" y2="288"/>
		<line class="st37" x1="447.5" y1="0" x2="447.5" y2="288"/>
		<line class="st37" x1="451" y1="0" x2="451" y2="288"/>
		<line class="st37" x1="454.6" y1="0" x2="454.6" y2="288"/>
		<line class="st37" x1="458.1" y1="0" x2="458.1" y2="288"/>
		<line class="st37" x1="461.7" y1="0" x2="461.7" y2="288"/>
		<line class="st37" x1="465.2" y1="0" x2="465.2" y2="288"/>
		<line class="st37" x1="468.7" y1="0" x2="468.7" y2="288"/>
		<line class="st37" x1="472.3" y1="0" x2="472.3" y2="288"/>
		<line class="st37" x1="475.8" y1="0" x2="475.8" y2="288"/>
		<line class="st37" x1="479.4" y1="0" x2="479.4" y2="288"/>
		<line class="st37" x1="482.9" y1="0" x2="482.9" y2="288"/>
		<line class="st37" x1="486.5" y1="0" x2="486.5" y2="288"/>
		<line class="st37" x1="490" y1="0" x2="490" y2="288"/>
		<line class="st37" x1="493.6" y1="0" x2="493.6" y2="288"/>
		<line class="st37" x1="497.1" y1="0" x2="497.1" y2="288"/>
		<line class="st37" x1="500.6" y1="0" x2="500.6" y2="288"/>
		<line class="st37" x1="504.2" y1="0" x2="504.2" y2="288"/>
		<line class="st37" x1="507.7" y1="0" x2="507.7" y2="288"/>
		<line class="st37" x1="511.3" y1="0" x2="511.3" y2="288"/>
		<line class="st37" x1="514.8" y1="0" x2="514.8" y2="288"/>
		<line class="st37" x1="518.4" y1="0" x2="518.4" y2="288"/>
		<line class="st37" x1="521.9" y1="0" x2="521.9" y2="288"/>
		<line class="st37" x1="525.4" y1="0" x2="525.4" y2="288"/>
		<line class="st37" x1="529" y1="0" x2="529" y2="288"/>
		<line class="st37" x1="532.5" y1="0" x2="532.5" y2="288"/>
		<line class="st37" x1="536.1" y1="0" x2="536.1" y2="288"/>
		<line class="st37" x1="539.6" y1="0" x2="539.6" y2="288"/>
		<line class="st37" x1="543.2" y1="0" x2="543.2" y2="288"/>
		<line class="st37" x1="546.7" y1="0" x2="546.7" y2="288"/>
		<line class="st37" x1="550.3" y1="0" x2="550.3" y2="288"/>
		<line class="st37" x1="553.8" y1="0" x2="553.8" y2="288"/>
	</g>
	<g>
		<line class="st37" x1="0.1" y1="285.8" x2="555" y2="285.8"/>
		<line class="st37" x1="0.1" y1="282.2" x2="555" y2="282.2"/>
		<line class="st37" x1="0.1" y1="278.7" x2="555" y2="278.7"/>
		<line class="st37" x1="0.1" y1="275.1" x2="555" y2="275.1"/>
		<line class="st37" x1="0.1" y1="271.6" x2="555" y2="271.6"/>
		<line class="st37" x1="0.1" y1="268" x2="555" y2="268"/>
		<line class="st37" x1="0.1" y1="264.5" x2="555" y2="264.5"/>
		<line class="st37" x1="0.1" y1="260.9" x2="555" y2="260.9"/>
		<line class="st37" x1="0.1" y1="257.4" x2="555" y2="257.4"/>
		<line class="st37" x1="0.1" y1="253.9" x2="555" y2="253.9"/>
		<line class="st37" x1="0.1" y1="250.3" x2="555" y2="250.3"/>
		<line class="st37" x1="0.1" y1="246.8" x2="555" y2="246.8"/>
		<line class="st37" x1="0.1" y1="243.2" x2="555" y2="243.2"/>
		<line class="st37" x1="0.1" y1="239.7" x2="555" y2="239.7"/>
		<line class="st37" x1="0.1" y1="236.1" x2="555" y2="236.1"/>
		<line class="st37" x1="0.1" y1="232.6" x2="555" y2="232.6"/>
		<line class="st37" x1="0.1" y1="229.1" x2="555" y2="229.1"/>
		<line class="st37" x1="0.1" y1="225.5" x2="555" y2="225.5"/>
		<line class="st37" x1="0.1" y1="222" x2="555" y2="222"/>
		<line class="st37" x1="0.1" y1="218.4" x2="555" y2="218.4"/>
		<line class="st37" x1="0.1" y1="214.9" x2="555" y2="214.9"/>
		<line class="st37" x1="0.1" y1="211.3" x2="555" y2="211.3"/>
		<line class="st37" x1="0.1" y1="207.8" x2="555" y2="207.8"/>
		<line class="st37" x1="0.1" y1="204.2" x2="555" y2="204.2"/>
		<line class="st37" x1="0.1" y1="200.7" x2="555" y2="200.7"/>
		<line class="st37" x1="0.1" y1="197.2" x2="555" y2="197.2"/>
		<line class="st37" x1="0.1" y1="193.6" x2="555" y2="193.6"/>
		<line class="st37" x1="0.1" y1="190.1" x2="555" y2="190.1"/>
		<line class="st37" x1="0.1" y1="186.5" x2="555" y2="186.5"/>
		<line class="st37" x1="0.1" y1="183" x2="555" y2="183"/>
		<line class="st37" x1="0.1" y1="179.4" x2="555" y2="179.4"/>
		<line class="st37" x1="0.1" y1="175.9" x2="555" y2="175.9"/>
		<line class="st37" x1="0.1" y1="172.4" x2="555" y2="172.4"/>
		<line class="st37" x1="0.1" y1="168.8" x2="555" y2="168.8"/>
		<line class="st37" x1="0.1" y1="165.3" x2="555" y2="165.3"/>
		<line class="st37" x1="0.1" y1="161.7" x2="555" y2="161.7"/>
		<line class="st37" x1="0.1" y1="158.2" x2="555" y2="158.2"/>
		<line class="st37" x1="0.1" y1="154.6" x2="555" y2="154.6"/>
		<line class="st37" x1="0.1" y1="151.1" x2="555" y2="151.1"/>
		<line class="st37" x1="0.1" y1="147.5" x2="555" y2="147.5"/>
		<line class="st37" x1="0.1" y1="144" x2="555" y2="144"/>
		<line class="st37" x1="0.1" y1="140.5" x2="555" y2="140.5"/>
		<line class="st37" x1="0.1" y1="136.9" x2="555" y2="136.9"/>
		<line class="st37" x1="0.1" y1="133.4" x2="555" y2="133.4"/>
		<line class="st37" x1="0.1" y1="129.8" x2="555" y2="129.8"/>
		<line class="st37" x1="0.1" y1="126.3" x2="555" y2="126.3"/>
		<line class="st37" x1="0.1" y1="122.7" x2="555" y2="122.7"/>
		<line class="st37" x1="0.1" y1="119.2" x2="555" y2="119.2"/>
		<line class="st37" x1="0.1" y1="115.6" x2="555" y2="115.6"/>
		<line class="st37" x1="0.1" y1="112.1" x2="555" y2="112.1"/>
		<line class="st37" x1="0.1" y1="108.6" x2="555" y2="108.6"/>
		<line class="st37" x1="0.1" y1="105" x2="555" y2="105"/>
		<line class="st37" x1="0.1" y1="101.5" x2="555" y2="101.5"/>
		<line class="st37" x1="0.1" y1="97.9" x2="555" y2="97.9"/>
		<line class="st37" x1="0.1" y1="94.4" x2="555" y2="94.4"/>
		<line class="st37" x1="0.1" y1="90.8" x2="555" y2="90.8"/>
		<line class="st37" x1="0.1" y1="87.3" x2="555" y2="87.3"/>
		<line class="st37" x1="0.1" y1="83.8" x2="555" y2="83.8"/>
		<line class="st37" x1="0.1" y1="80.2" x2="555" y2="80.2"/>
		<line class="st37" x1="0.1" y1="76.7" x2="555" y2="76.7"/>
		<line class="st37" x1="0.1" y1="73.1" x2="555" y2="73.1"/>
		<line class="st37" x1="0.1" y1="69.6" x2="555" y2="69.6"/>
		<line class="st37" x1="0.1" y1="66" x2="555" y2="66"/>
		<line class="st37" x1="0.1" y1="62.5" x2="555" y2="62.5"/>
		<line class="st37" x1="0.1" y1="58.9" x2="555" y2="58.9"/>
		<line class="st37" x1="0.1" y1="55.4" x2="555" y2="55.4"/>
		<line class="st37" x1="0.1" y1="51.9" x2="555" y2="51.9"/>
		<line class="st37" x1="0.1" y1="48.3" x2="555" y2="48.3"/>
		<line class="st37" x1="0.1" y1="44.8" x2="555" y2="44.8"/>
		<line class="st37" x1="0.1" y1="41.2" x2="555" y2="41.2"/>
		<line class="st37" x1="0.1" y1="37.7" x2="555" y2="37.7"/>
		<line class="st37" x1="0.1" y1="34.1" x2="555" y2="34.1"/>
		<line class="st37" x1="0.1" y1="30.6" x2="555" y2="30.6"/>
		<line class="st37" x1="0.1" y1="27.1" x2="555" y2="27.1"/>
		<line class="st37" x1="0.1" y1="23.5" x2="555" y2="23.5"/>
		<line class="st37" x1="0.1" y1="20" x2="555" y2="20"/>
		<line class="st37" x1="0.1" y1="16.4" x2="555" y2="16.4"/>
		<line class="st37" x1="0.1" y1="12.9" x2="555" y2="12.9"/>
		<line class="st37" x1="0.1" y1="9.3" x2="555" y2="9.3"/>
		<line class="st37" x1="0.1" y1="5.8" x2="555" y2="5.8"/>
		<line class="st37" x1="0.1" y1="2.2" x2="555" y2="2.2"/>
	</g>
	<g>
		<g class="st38">
			<path class="st19" d="M284.4,58.9v170.3h170.3V58.9H284.4z M429.8,204.3H309.2V83.7h120.6V204.3z"/>
		</g>
		<g>
			<path class="st39" d="M422.9,179.6H316.1v-71.3h106.8V179.6z M316.5,179.3h106.1v-70.6H316.5V179.3z"/>
		</g>
		<g>
			<path class="st39" d="M405.2,197.4h-71.3V90.6h71.3V197.4z M334.2,197h70.6V91h-70.6V197z"/>
		</g>
		<g>
			<path class="st39" d="M422.9,197.4H316.1V90.6h106.8V197.4z M316.5,197h106.1V91H316.5V197z"/>
		</g>
		<g>
			<path class="st19" d="M369.5,200.9c-31.4,0-56.9-25.5-56.9-56.9s25.5-56.9,56.9-56.9s56.9,25.5,56.9,56.9
				S400.9,200.9,369.5,200.9z M369.5,87.4c-31.2,0-56.6,25.4-56.6,56.6s25.4,56.6,56.6,56.6s56.6-25.4,56.6-56.6
				S400.7,87.4,369.5,87.4z"/>
		</g>
		<g>
			<rect x="316.3" y="143.8" class="st39" width="106.4" height="0.4"/>
		</g>
		<g>
			<rect x="369.4" y="90.8" class="st39" width="0.4" height="106.4"/>
		</g>
		<g>
			<path d="M412.1,193.7c-1,0-1.9-0.4-2.6-1.1l-85.1-92.2c-1.3-1.4-1.2-3.7,0.2-5c1.4-1.3,3.7-1.2,5,0.2l85.1,92.2
				c1.3,1.4,1.2,3.7-0.2,5C413.8,193.4,413,193.7,412.1,193.7z"/>
		</g>
		<g>
			<path d="M381,159.9c-1,0-1.9-0.4-2.6-1.1c-1.3-1.4-1.2-3.7,0.2-5c2.8-2.6,4.3-6,4.3-9.8c0-7.3-6-13.3-13.3-13.3
				c-3.4,0-6.6,1.3-9,3.5c-1.4,1.3-3.7,1.2-5-0.2c-1.3-1.4-1.2-3.7,0.2-5c3.8-3.5,8.7-5.4,13.8-5.4c11.2,0,20.4,9.1,20.4,20.4
				c0,5.7-2.4,11.1-6.6,15C382.7,159.6,381.8,159.9,381,159.9z"/>
		</g>
		<g>
			<path d="M369.5,164.4c-11.2,0-20.4-9.1-20.4-20.4c0-2,1.6-3.5,3.5-3.5s3.5,1.6,3.5,3.5c0,7.3,6,13.3,13.3,13.3
				c2,0,3.5,1.6,3.5,3.5S371.5,164.4,369.5,164.4z"/>
		</g>
		<g>
			<path d="M394.5,174.6c-1.4,0-2.7-0.8-3.3-2.2c-0.7-1.8,0.1-3.9,1.9-4.6c16.4-6.7,25.9-19.3,29-23.8c-4.2-6.5-20.9-28.4-52.6-28.4
				c-8.4,0-16.3,1.5-23.6,4.6c-1.8,0.8-3.9-0.1-4.6-1.9c-0.8-1.8,0.1-3.9,1.9-4.6c8.2-3.4,17-5.1,26.3-5.1
				c40.6,0,59.1,32.4,59.9,33.8c0.6,1.1,0.6,2.4,0,3.4c-0.4,0.8-10.9,19.4-33.5,28.6C395.4,174.5,395,174.6,394.5,174.6z"/>
		</g>
		<g>
			<path d="M369.5,179.5c-40.6,0-59.1-32.4-59.9-33.8c-0.6-1.1-0.6-2.4,0-3.4c0.3-0.5,7.3-13.1,22.3-22.7c1.6-1.1,3.8-0.6,4.9,1.1
				c1.1,1.6,0.6,3.8-1.1,4.9c-10.3,6.7-16.5,15-18.9,18.5c4.2,6.5,20.9,28.4,52.6,28.4c4.3,0,8.6-0.4,12.8-1.3
				c1.9-0.4,3.8,0.8,4.2,2.8c0.4,1.9-0.8,3.8-2.8,4.2C379.1,179,374.3,179.5,369.5,179.5z"/>
		</g>
	</g>
	<g>
		<g class="st38">
			<path class="st19" d="M100.1,58.9v170.3h170.3V58.9H100.1z M245.6,204.3H125V83.7h120.6V204.3z"/>
		</g>
		<g>
			<path class="st39" d="M238.7,179.6H131.9v-71.3h106.8V179.6z M132.2,179.3h106.1v-70.6H132.2V179.3z"/>
		</g>
		<g>
			<path class="st39" d="M220.9,197.4h-71.3V90.6h71.3V197.4z M150,197h70.6V91H150V197z"/>
		</g>
		<g>
			<path class="st19" d="M238.7,197.4H131.9V90.6h106.8V197.4z M132.2,197h106.1V91H132.2V197z"/>
		</g>
		<g>
			<path class="st39" d="M185.3,200.9c-31.4,0-56.9-25.5-56.9-56.9s25.5-56.9,56.9-56.9s56.9,25.5,56.9,56.9
				S216.7,200.9,185.3,200.9z M185.3,87.4c-31.2,0-56.6,25.4-56.6,56.6s25.4,56.6,56.6,56.6s56.6-25.4,56.6-56.6
				S216.5,87.4,185.3,87.4z"/>
		</g>
		<g>
			<rect x="132.1" y="143.8" class="st39" width="106.4" height="0.4"/>
		</g>
		<g>
			<rect x="185.1" y="90.8" class="st39" width="0.4" height="106.4"/>
		</g>
		<g>
			<path d="M185.3,164.4c-11.2,0-20.4-9.1-20.4-20.4c0-11.2,9.1-20.4,20.4-20.4s20.4,9.1,20.4,20.4
				C205.7,155.2,196.5,164.4,185.3,164.4z M185.3,130.7c-7.3,0-13.3,6-13.3,13.3c0,7.3,6,13.3,13.3,13.3c7.3,0,13.3-6,13.3-13.3
				C198.6,136.7,192.6,130.7,185.3,130.7z"/>
		</g>
		<g>
			<path d="M185.3,179.5c-40.6,0-59.1-32.4-59.9-33.8c-0.6-1.1-0.6-2.4,0-3.4c0.8-1.4,19.2-33.8,59.9-33.8s59.1,32.4,59.9,33.8
				c0.6,1.1,0.6,2.4,0,3.4C244.4,147.1,225.9,179.5,185.3,179.5z M132.7,144c4.2,6.5,20.9,28.4,52.6,28.4c31.4,0,48.3-22,52.6-28.4
				c-4.2-6.5-20.9-28.4-52.6-28.4C153.9,115.6,136.9,137.6,132.7,144z"/>
		</g>
	</g>
</g>
</svg>
