<?xml version="1.0" encoding="utf-8"?>
<!-- Generator: Adobe Illustrator 27.6.1, SVG Export Plug-In . SVG Version: 6.00 Build 0)  -->
<svg version="1.1" id="Layer_1" xmlns="http://www.w3.org/2000/svg" xmlns:xlink="http://www.w3.org/1999/xlink" x="0px" y="0px"
	 viewBox="0 0 262 180" style="enable-background:new 0 0 262 180;" xml:space="preserve">
<style type="text/css">
	.st0{fill:#F3F3F3;}
	.st1{fill:#EE0000;}
	.st2{fill:#E0E0E0;}
	.st3{fill:#FFFFFF;}
	.st4{fill:#79C4C6;}
	.st5{fill:#316DC1;}
	.st6{fill:#4D4D4D;}
	.st7{fill:#ED0000;}
	.st8{fill:#DFDFDF;}
	.st9{fill:none;stroke:#FF0000;stroke-width:1.25;stroke-linecap:round;stroke-linejoin:round;stroke-miterlimit:10;}
	.st10{fill:none;}
	.st11{fill:#689B7A;}
	.st12{fill:#ED1C24;}
	.st13{fill:#383838;}
	.st14{clip-path:url(#SVGID_00000053514367428231992350000016304455758462172819_);}
	.st15{clip-path:url(#SVGID_00000183941901037228741090000016048793002594556303_);}
	.st16{fill:#151515;}
	.st17{fill:#F2F2F2;}
	.st18{fill:none;stroke:#1E67CD;stroke-width:0.75;stroke-miterlimit:10;}
	.st19{fill:#1E67CD;}
	.st20{fill:#707070;}
	.st21{fill:none;stroke:#FFFFFF;stroke-width:1.25;stroke-linecap:round;stroke-linejoin:round;stroke-miterlimit:10;}
	.st22{fill:none;stroke:#FFFFFF;stroke-width:2;stroke-linecap:round;stroke-linejoin:round;stroke-miterlimit:10;}
	.st23{fill:none;stroke:#FFFFFF;stroke-width:3;stroke-linecap:round;stroke-linejoin:round;stroke-miterlimit:10;}
	.st24{fill:#151515;stroke:#FFFFFF;stroke-width:2;stroke-linecap:round;stroke-linejoin:round;stroke-miterlimit:10;}
	.st25{fill:none;stroke:#000000;stroke-width:2;stroke-linecap:round;stroke-linejoin:round;stroke-miterlimit:10;}
	.st26{stroke:#000000;stroke-width:2;stroke-linecap:round;stroke-linejoin:round;stroke-miterlimit:10;}
	.st27{fill:none;stroke:#000000;stroke-width:3;stroke-linecap:round;stroke-linejoin:round;stroke-miterlimit:10;}
	.st28{fill:none;stroke:#000000;stroke-width:2;stroke-miterlimit:10;}
	.st29{fill:none;stroke:#000000;stroke-width:2;stroke-linecap:round;stroke-miterlimit:10;}
	.st30{fill:#FFFFFF;stroke:#000000;stroke-width:2;stroke-linecap:round;stroke-linejoin:round;stroke-miterlimit:10;}
	.st31{stroke:#000000;stroke-width:3;stroke-linecap:round;stroke-linejoin:round;stroke-miterlimit:10;}
	.st32{fill:none;stroke:#FFFFFF;stroke-width:4;stroke-linecap:round;stroke-linejoin:round;stroke-miterlimit:10;}
	.st33{fill:none;stroke:#000000;stroke-width:3;stroke-linecap:round;stroke-linejoin:round;}
	.st34{fill:none;stroke:#000000;stroke-width:3;stroke-linecap:round;stroke-linejoin:round;stroke-dasharray:0,5.25;}
	.st35{fill:#F2F2F2;stroke:#000000;stroke-width:2;stroke-linecap:round;stroke-linejoin:round;stroke-miterlimit:10;}
	.st36{fill:#1F63B5;}
	.st37{fill:none;stroke:#A7C0E4;stroke-width:5.000000e-02;stroke-miterlimit:10;}
	.st38{opacity:0.25;}
	.st39{fill:#0066CC;}
	.st40{fill:none;stroke:#000000;stroke-width:0.5;stroke-miterlimit:10;}
	.st41{clip-path:url(#SVGID_00000070831725550810737850000010767381574208359836_);}
	.st42{fill:none;stroke:#1E67CD;stroke-width:0.5;stroke-linecap:round;stroke-linejoin:round;}
	.st43{fill:none;stroke:#1E67CD;stroke-width:0.5;stroke-linecap:round;stroke-linejoin:round;stroke-dasharray:0,1.002;}
	.st44{fill:none;stroke:#1E67CD;stroke-width:0.5;stroke-linecap:round;stroke-miterlimit:10;}
	.st45{fill:none;stroke:#1E67CD;stroke-width:0.5;stroke-linecap:round;stroke-miterlimit:10;stroke-dasharray:0,1.002;}
	.st46{fill:none;stroke:#1E67CD;stroke-miterlimit:10;}
	.st47{fill:#8F0000;}
	.st48{clip-path:url(#SVGID_00000090280301211475740910000016224618199809588622_);}
	.st49{clip-path:url(#SVGID_00000154426286881897986500000006602569966066875800_);}
	.st50{fill:#FFFFFF;stroke:#FFFFFF;stroke-width:5.000000e-02;stroke-miterlimit:10;}
	.st51{fill:none;stroke:#FFFFFF;stroke-width:0.2;stroke-linecap:round;stroke-linejoin:round;stroke-miterlimit:10;}
	.st52{opacity:0.5;fill:#1E67CD;}
	.st53{fill:#151515;stroke:#1E67CD;stroke-miterlimit:10;}
	.st54{fill:#151515;stroke:#316DC1;stroke-width:0.25;stroke-miterlimit:10;}
	.st55{fill:none;stroke:#FFFFFF;stroke-width:0.45;stroke-linecap:round;stroke-linejoin:round;stroke-miterlimit:10;}
	.st56{fill:#27579A;}
	.st57{fill:#C65E2B;}
	.st58{fill:#4E745C;}
	.st59{fill:#F7823C;}
</style>
<g>
	<rect class="st16" width="262" height="180"/>
	<g>
		<g>
			<g>
				<path class="st3" d="M141.2,134H89.4c-0.9,0-1.6-0.7-1.6-1.6c0-15.2,12.3-27.5,27.5-27.5c15.2,0,27.5,12.3,27.5,27.5
					C142.8,133.2,142,134,141.2,134z M91.1,130.7h48.4c-0.8-12.6-11.4-22.6-24.2-22.6S91.9,118.1,91.1,130.7z"/>
			</g>
			<g>
				<path class="st3" d="M126.2,96.6c-0.4,1.4-1,2.6-1.9,3.8c-2.1,2.7-5.3,4.5-9,4.5c-6.2,0-11.3-5.1-11.3-11.3c0-3.5,1.6-6.6,4-8.6
					c1.1-0.9,2.3-1.6,3.6-2.1c-0.4-1-0.7-2-1-3.1c-1.4,0.5-2.6,1.1-3.8,1.9c-3.7,2.6-6.1,7-6.1,11.9c0,5.2,2.8,9.8,7,12.4
					c2.2,1.4,4.8,2.2,7.6,2.2c2.8,0,5.4-0.8,7.6-2.2c1.9-1.1,3.5-2.7,4.7-4.6c0.8-1.2,1.4-2.5,1.7-3.9
					C128.2,97.3,127.2,97,126.2,96.6z"/>
			</g>
		</g>
		<g>
			<path class="st3" d="M133.8,46c-12.8,0-23.6,8.6-26.9,20.3c-0.4,1.5-0.8,3.1-0.9,4.7c-0.1,1-0.2,2-0.2,3c0,2.6,0.4,5.2,1.1,7.6
				c0.3,1.1,0.7,2.2,1.1,3.2c3,7.2,9,12.8,16.3,15.5c1.1,0.4,2.2,0.7,3.3,0.9c2,0.5,4.1,0.7,6.2,0.7c1.6,0,3.2-0.1,4.7-0.4
				c1.6-0.3,3.1-0.7,4.6-1.2c3.3-1.2,6.3-2.9,8.9-5.2c1.1-0.9,2-1.9,2.9-2.9c4.2-4.9,6.8-11.3,6.8-18.3
				C161.8,58.6,149.2,46,133.8,46z M144,95.6c-2.6,1.2-5.5,2-8.5,2.2c-0.6,0-1.1,0.1-1.7,0.1c-1.5,0-3.1-0.1-4.5-0.4
				c-1.1-0.2-2.1-0.5-3.1-0.8c-6.6-2.2-12-7.3-14.6-13.8c-0.4-1-0.7-2-1-3.1c-0.4-1.8-0.7-3.7-0.7-5.7c0-0.1,0-0.2,0-0.3
				c0-3,0.6-5.9,1.7-8.6c3.5-8.8,12.1-15,22.1-15c13.2,0,23.9,10.7,23.9,23.8C157.6,83.5,152.1,91.7,144,95.6z"/>
			<path class="st3" d="M172.2,114.5c-0.5,0-1.1-0.2-1.5-0.6L152,95.2c-0.8-0.8-0.8-2.1,0-2.9s2.1-0.8,2.9,0l18.7,18.7
				c0.8,0.8,0.8,2.1,0,2.9C173.2,114.3,172.7,114.5,172.2,114.5z"/>
			<g>
				<path class="st3" d="M144.2,92.9c0,0.9,0,1.8-0.1,2.7c-0.1,0.8-0.2,1.5-0.3,2.3c-0.2,0.8-0.3,1.7-0.6,2.6
					c-1.5,0.5-3,0.9-4.6,1.2l-3.7-1.4c0.3-0.8,0.6-1.6,0.8-2.4c0.1-0.5,0.2-0.9,0.3-1.4c0.2-1.2,0.3-2.4,0.3-3.6
					c0-11.1-9-20.1-20.1-20.1c-1.6,0-3.2,0.2-4.7,0.6c-0.5,0.1-0.9,0.2-1.4,0.4c-0.8,0.2-1.5,0.5-2.3,0.9l-1.7-3.6
					c0.2-1.6,0.5-3.2,0.9-4.7c0.8-0.3,1.7-0.5,2.6-0.8c0.7-0.2,1.5-0.3,2.2-0.4c1.4-0.2,2.9-0.4,4.4-0.4
					C131.6,64.8,144.2,77.4,144.2,92.9z"/>
			</g>
		</g>
	</g>
</g>
</svg>
