<?xml version="1.0" encoding="utf-8"?>
<!-- Generator: Adobe Illustrator 27.6.1, SVG Export Plug-In . SVG Version: 6.00 Build 0)  -->
<svg version="1.1" id="Layer_1" xmlns="http://www.w3.org/2000/svg" xmlns:xlink="http://www.w3.org/1999/xlink" x="0px" y="0px"
	 viewBox="0 0 555 288" style="enable-background:new 0 0 555 288;" xml:space="preserve">
<style type="text/css">
	.st0{fill:#F3F3F3;}
	.st1{fill:#EE0000;}
	.st2{fill:#E0E0E0;}
	.st3{fill:#FFFFFF;}
	.st4{fill:#79C4C6;}
	.st5{fill:#316DC1;}
	.st6{fill:#4D4D4D;}
	.st7{fill:#ED0000;}
	.st8{fill:#DFDFDF;}
	.st9{fill:none;stroke:#FF0000;stroke-width:1.25;stroke-linecap:round;stroke-linejoin:round;stroke-miterlimit:10;}
	.st10{fill:none;}
	.st11{fill:#689B7A;}
	.st12{fill:#ED1C24;}
	.st13{fill:#383838;}
	.st14{clip-path:url(#SVGID_00000111904298864123844350000016910689965213364875_);}
	.st15{clip-path:url(#SVGID_00000096753539673071179200000007817881120006421939_);}
	.st16{fill:#151515;}
	.st17{fill:#F2F2F2;}
	.st18{fill:none;stroke:#1E67CD;stroke-width:0.75;stroke-miterlimit:10;}
	.st19{fill:#1E67CD;}
	.st20{fill:#707070;}
	.st21{fill:none;stroke:#FFFFFF;stroke-width:1.25;stroke-linecap:round;stroke-linejoin:round;stroke-miterlimit:10;}
	.st22{fill:none;stroke:#FFFFFF;stroke-width:2;stroke-linecap:round;stroke-linejoin:round;stroke-miterlimit:10;}
	.st23{fill:none;stroke:#FFFFFF;stroke-width:3;stroke-linecap:round;stroke-linejoin:round;stroke-miterlimit:10;}
	.st24{fill:#151515;stroke:#FFFFFF;stroke-width:2;stroke-linecap:round;stroke-linejoin:round;stroke-miterlimit:10;}
	.st25{fill:none;stroke:#000000;stroke-width:2;stroke-linecap:round;stroke-linejoin:round;stroke-miterlimit:10;}
	.st26{stroke:#000000;stroke-width:2;stroke-linecap:round;stroke-linejoin:round;stroke-miterlimit:10;}
	.st27{fill:none;stroke:#000000;stroke-width:3;stroke-linecap:round;stroke-linejoin:round;stroke-miterlimit:10;}
	.st28{fill:none;stroke:#000000;stroke-width:2;stroke-miterlimit:10;}
	.st29{fill:none;stroke:#000000;stroke-width:2;stroke-linecap:round;stroke-miterlimit:10;}
	.st30{fill:#FFFFFF;stroke:#000000;stroke-width:2;stroke-linecap:round;stroke-linejoin:round;stroke-miterlimit:10;}
	.st31{stroke:#000000;stroke-width:3;stroke-linecap:round;stroke-linejoin:round;stroke-miterlimit:10;}
	.st32{fill:none;stroke:#FFFFFF;stroke-width:4;stroke-linecap:round;stroke-linejoin:round;stroke-miterlimit:10;}
	.st33{fill:none;stroke:#000000;stroke-width:3;stroke-linecap:round;stroke-linejoin:round;}
	.st34{fill:none;stroke:#000000;stroke-width:3;stroke-linecap:round;stroke-linejoin:round;stroke-dasharray:0,5.25;}
	.st35{fill:#F2F2F2;stroke:#000000;stroke-width:2;stroke-linecap:round;stroke-linejoin:round;stroke-miterlimit:10;}
	.st36{fill:#1F63B5;}
	.st37{fill:none;stroke:#A7C0E4;stroke-width:5.000000e-02;stroke-miterlimit:10;}
	.st38{opacity:0.25;}
	.st39{fill:#0066CC;}
	.st40{fill:none;stroke:#000000;stroke-width:0.5;stroke-miterlimit:10;}
	.st41{clip-path:url(#SVGID_00000065051689390131745540000011858978483924988834_);}
	.st42{fill:none;stroke:#1E67CD;stroke-width:0.5;stroke-linecap:round;stroke-linejoin:round;}
	.st43{fill:none;stroke:#1E67CD;stroke-width:0.5;stroke-linecap:round;stroke-linejoin:round;stroke-dasharray:0,1.002;}
	.st44{fill:none;stroke:#1E67CD;stroke-width:0.5;stroke-linecap:round;stroke-miterlimit:10;}
	.st45{fill:none;stroke:#1E67CD;stroke-width:0.5;stroke-linecap:round;stroke-miterlimit:10;stroke-dasharray:0,1.002;}
	.st46{fill:none;stroke:#1E67CD;stroke-miterlimit:10;}
	.st47{fill:#FFFFFF;stroke:#FFFFFF;stroke-linecap:round;stroke-linejoin:round;stroke-miterlimit:10;}
	.st48{fill:#8F0000;}
	.st49{clip-path:url(#SVGID_00000142862966473127513070000003666889757915681156_);}
	.st50{clip-path:url(#SVGID_00000036250584175005328280000015353637890444861576_);}
	.st51{fill:#FFFFFF;stroke:#FFFFFF;stroke-width:5.000000e-02;stroke-miterlimit:10;}
	.st52{fill:none;stroke:#FFFFFF;stroke-width:0.2;stroke-linecap:round;stroke-linejoin:round;stroke-miterlimit:10;}
	.st53{opacity:0.5;fill:#1E67CD;}
	.st54{fill:#151515;stroke:#1E67CD;stroke-miterlimit:10;}
	.st55{fill:#151515;stroke:#316DC1;stroke-width:0.25;stroke-miterlimit:10;}
	.st56{fill:none;stroke:#FFFFFF;stroke-width:0.45;stroke-linecap:round;stroke-linejoin:round;stroke-miterlimit:10;}
	.st57{fill:#27579A;}
	.st58{fill:#C65E2B;}
	.st59{fill:#4E745C;}
	.st60{fill:#F7823C;}
</style>
<rect y="0" class="st16" width="555" height="288"/>
<rect x="51" y="41" class="st17" width="452.9" height="206"/>
<g>
	<g>
		<g>
			<path d="M113.1,87L113.1,87c-0.6,0-1-0.4-1-1v-9c0-0.6,0.4-1,1-1h0c0.6,0,1,0.4,1,1v9C114.1,86.6,113.6,87,113.1,87z"/>
			<circle cx="113.1" cy="92" r="1.5"/>
			<path d="M113.1,102c-9.4,0-17-7.6-17-17s7.6-17,17-17s17,7.6,17,17S122.5,102,113.1,102z M113.1,70c-8.3,0-15,6.7-15,15
				c0,8.3,6.7,15,15,15s15-6.7,15-15C128.1,76.7,121.4,70,113.1,70z"/>
		</g>
		<g>
			<path d="M240.1,86h-14c-0.6,0-1-0.4-1-1l0,0c0-0.6,0.4-1,1-1h14c0.6,0,1,0.4,1,1l0,0C241.1,85.6,240.6,86,240.1,86z"/>
			<path d="M232.1,92V78c0-0.6,0.4-1,1-1l0,0c0.6,0,1,0.4,1,1v14c0,0.6-0.4,1-1,1l0,0C232.5,93,232.1,92.6,232.1,92z"/>
			<path d="M233.1,102c-9.4,0-17-7.6-17-17s7.6-17,17-17s17,7.6,17,17S242.5,102,233.1,102z M233.1,70c-8.3,0-15,6.7-15,15
				c0,8.3,6.7,15,15,15s15-6.7,15-15C248.1,76.7,241.4,70,233.1,70z"/>
		</g>
		<g>
			
				<rect x="160.2" y="79.5" transform="matrix(0.7071 -0.7071 0.7071 0.7071 -7.41 148.1106)" class="st25" width="29.7" height="7.1"/>
			<line class="st25" x1="179.1" y1="74" x2="184.1" y2="79"/>
			<polyline class="st25" points="167.1,96 158.1,100 162.1,91 			"/>
			<line class="st26" x1="178.1" y1="80" x2="180.6" y2="82.5"/>
		</g>
		<g>
			<polyline class="st25" points="164.6,160 185.1,160 185.1,133.8 			"/>
			<polyline class="st25" points="161.1,135 161.1,156.2 181.1,156.2 181.1,130 166.1,130 161.1,135 			"/>
			<polyline class="st25" points="167.1,131 167.1,136 162.1,136 			"/>
		</g>
		<g>
			<polygon class="st25" points="113.1,214.9 103.1,220 105.2,209.1 97.1,201 108.2,199.9 113.1,190 118,199.9 129.1,201 121,209.1 
				123.1,220 			"/>
		</g>
		<g>
			<circle class="st25" cx="233.1" cy="196" r="4"/>
			<circle class="st25" cx="233.1" cy="209" r="9"/>
			<polyline class="st25" points="226.1,203 222.1,203 220.1,201 			"/>
			<polyline class="st25" points="226.1,215 222.1,215 220.1,217 			"/>
			<line class="st25" x1="224.1" y1="209" x2="218.1" y2="209"/>
			<polyline class="st25" points="240.1,203 244.1,203 246.1,201 			"/>
			<polyline class="st25" points="240.1,215 244.1,215 246.1,217 			"/>
			<line class="st25" x1="242.1" y1="209" x2="248.1" y2="209"/>
		</g>
		<g>
			<rect x="98.1" y="148.5" class="st25" width="30" height="12"/>
			<line class="st25" x1="113.1" y1="129.5" x2="113.1" y2="144.5"/>
			<polyline class="st25" points="119.1,138.5 113.1,144.5 107.1,138.5 			"/>
			<line class="st27" x1="121.1" y1="154.5" x2="121.1" y2="154.5"/>
			<line class="st25" x1="104.1" y1="154.5" x2="111.1" y2="154.5"/>
		</g>
		<g>
			<rect x="223.1" y="139.5" class="st25" width="20" height="21"/>
			<path class="st25" d="M229.1,133.5c0-2.2,1.8-4,4-4s4,1.8,4,4"/>
			<line class="st25" x1="221.1" y1="134.5" x2="245.1" y2="134.5"/>
			<line class="st25" x1="243.1" y1="139.5" x2="245.1" y2="139.5"/>
			<line class="st25" x1="221.1" y1="139.5" x2="223.1" y2="139.5"/>
			<line class="st25" x1="236.1" y1="144.5" x2="236.1" y2="155.5"/>
			<line class="st25" x1="230.1" y1="144.5" x2="230.1" y2="155.5"/>
		</g>
		<g>
			<ellipse class="st25" cx="173.1" cy="217.9" rx="3.2" ry="3.2"/>
			<path class="st30" d="M185.9,216.8h-25.7v-3.8l0,0c1.3,0,2.3-1.1,2.3-2.5v-5c0-6.2,4.7-11.3,10.5-11.3h0c5.8,0,10.5,5,10.5,11.3
				v5c0,1.4,1,2.5,2.3,2.5l0,0V216.8z"/>
			<circle class="st25" cx="173.1" cy="191.6" r="2.7"/>
		</g>
	</g>
	<g>
		<g>
			<polygon class="st26" points="322.9,214.9 312.9,220 315,209.1 306.9,201 318,199.9 322.9,190 327.8,199.9 338.9,201 
				330.8,209.1 332.9,220 			"/>
		</g>
		<g>
			<circle class="st26" cx="442.9" cy="196" r="4"/>
			<circle class="st26" cx="442.9" cy="209" r="9"/>
			<polyline class="st25" points="435.9,203 431.9,203 429.9,201 			"/>
			<polyline class="st25" points="435.9,215 431.9,215 429.9,217 			"/>
			<line class="st25" x1="433.9" y1="209" x2="427.9" y2="209"/>
			<polyline class="st25" points="449.9,203 453.9,203 455.9,201 			"/>
			<polyline class="st25" points="449.9,215 453.9,215 455.9,217 			"/>
			<line class="st25" x1="451.9" y1="209" x2="457.9" y2="209"/>
		</g>
		<g>
			<circle class="st26" cx="322.9" cy="85" r="16"/>
			<path class="st3" d="M322.9,87L322.9,87c-0.6,0-1-0.4-1-1v-9c0-0.6,0.4-1,1-1l0,0c0.6,0,1,0.4,1,1v9
				C323.9,86.6,323.5,87,322.9,87z"/>
			<circle class="st3" cx="322.9" cy="92" r="1.5"/>
		</g>
		<g>
			
				<rect x="371.3" y="82.5" transform="matrix(0.7071 -0.7071 0.7071 0.7071 51.0505 295.2468)" class="st26" width="21.2" height="7.1"/>
			<polyline class="st25" points="376.9,96 367.9,100 371.9,91 			"/>
			
				<rect x="391.8" y="70.5" transform="matrix(0.7071 -0.7071 0.7071 0.7071 63.0505 300.2174)" class="st26" width="4.2" height="7.1"/>
			<line class="st22" x1="386.4" y1="81.5" x2="389.9" y2="85"/>
		</g>
		<g>
			<circle class="st26" cx="442.9" cy="85" r="16"/>
			<path class="st3" d="M450.9,86h-16c-0.6,0-1-0.4-1-1l0,0c0-0.6,0.4-1,1-1h16c0.6,0,1,0.4,1,1l0,0C451.9,85.6,451.5,86,450.9,86z"
				/>
			<path class="st3" d="M441.9,93V77c0-0.6,0.4-1,1-1l0,0c0.6,0,1,0.4,1,1v16c0,0.6-0.4,1-1,1l0,0C442.4,94,441.9,93.6,441.9,93z"/>
		</g>
		<g>
			<rect x="432.9" y="139.5" class="st26" width="20" height="21"/>
			<path class="st25" d="M438.9,133.5c0-2.2,1.8-4,4-4s4,1.8,4,4"/>
			<line class="st25" x1="430.9" y1="134.5" x2="454.9" y2="134.5"/>
			<line class="st25" x1="452.9" y1="139.5" x2="454.9" y2="139.5"/>
			<line class="st25" x1="430.9" y1="139.5" x2="432.9" y2="139.5"/>
			<path class="st3" d="M446.9,156.5c-0.6,0-1-0.4-1-1v-11c0-0.6,0.4-1,1-1s1,0.4,1,1v11C447.9,156.1,447.5,156.5,446.9,156.5z"/>
			<path class="st3" d="M438.9,156.5c-0.6,0-1-0.4-1-1v-11c0-0.6,0.4-1,1-1s1,0.4,1,1v11C439.9,156.1,439.5,156.5,438.9,156.5z"/>
		</g>
		<g>
			<rect x="307.9" y="148.5" class="st26" width="30" height="12"/>
			<line class="st25" x1="322.9" y1="129.5" x2="322.9" y2="144.5"/>
			<polyline class="st25" points="328.9,138.5 322.9,144.5 316.9,138.5 			"/>
			<line class="st23" x1="330.9" y1="154.5" x2="330.9" y2="154.5"/>
			<line class="st22" x1="313.9" y1="154.5" x2="320.9" y2="154.5"/>
		</g>
		<g>
			<polyline class="st25" points="374.5,160 394.9,160 394.9,133.8 			"/>
			<polyline class="st26" points="370.9,135 370.9,156.2 390.9,156.2 390.9,130 375.9,130 370.9,135 			"/>
			<polyline class="st47" points="375.9,130 375.9,135 370.9,135 			"/>
			<polyline class="st25" points="370.9,135 370.9,156.2 390.9,156.2 390.9,130 375.9,130 370.9,135 			"/>
		</g>
		<g>
			<ellipse class="st25" cx="382.9" cy="217" rx="3" ry="3"/>
			<path class="st26" d="M394.9,216h-24v-3.5l0,0c1.2,0,2.2-1,2.2-2.3v-4.7c0-5.8,4.4-10.5,9.8-10.5h0c5.4,0,9.8,4.7,9.8,10.5v4.7
				c0,1.3,1,2.3,2.2,2.3l0,0V216z"/>
			<circle class="st26" cx="382.9" cy="192.5" r="2.5"/>
		</g>
	</g>
</g>
</svg>
