<?xml version="1.0" encoding="utf-8"?>
<!-- Generator: Adobe Illustrator 27.6.1, SVG Export Plug-In . SVG Version: 6.00 Build 0)  -->
<svg version="1.1" id="Layer_1" xmlns="http://www.w3.org/2000/svg" xmlns:xlink="http://www.w3.org/1999/xlink" x="0px" y="0px"
	 viewBox="0 0 518 196" style="enable-background:new 0 0 518 196;" xml:space="preserve">
<style type="text/css">
	.st0{fill:#F3F3F3;}
	.st1{fill:#EE0000;}
	.st2{fill:#E0E0E0;}
	.st3{fill:#FFFFFF;}
	.st4{fill:#79C4C6;}
	.st5{fill:#316DC1;}
	.st6{fill:#4D4D4D;}
	.st7{fill:#ED0000;}
	.st8{fill:#DFDFDF;}
	.st9{fill:none;stroke:#FF0000;stroke-width:1.25;stroke-linecap:round;stroke-linejoin:round;stroke-miterlimit:10;}
	.st10{fill:none;}
	.st11{fill:#689B7A;}
	.st12{fill:#ED1C24;}
	.st13{fill:#383838;}
	.st14{clip-path:url(#SVGID_00000019643702371516638900000011507553261567295896_);}
	.st15{clip-path:url(#SVGID_00000069363514291803133960000007355198436663183504_);}
	.st16{fill:#151515;}
	.st17{fill:#F2F2F2;}
	.st18{fill:none;stroke:#1E67CD;stroke-width:0.75;stroke-miterlimit:10;}
	.st19{fill:#1E67CD;}
	.st20{fill:#707070;}
	.st21{fill:none;stroke:#FFFFFF;stroke-width:1.25;stroke-linecap:round;stroke-linejoin:round;stroke-miterlimit:10;}
	.st22{fill:none;stroke:#FFFFFF;stroke-width:2;stroke-linecap:round;stroke-linejoin:round;stroke-miterlimit:10;}
	.st23{fill:none;stroke:#FFFFFF;stroke-width:3;stroke-linecap:round;stroke-linejoin:round;stroke-miterlimit:10;}
	.st24{fill:#151515;stroke:#FFFFFF;stroke-width:2;stroke-linecap:round;stroke-linejoin:round;stroke-miterlimit:10;}
	.st25{fill:none;stroke:#000000;stroke-width:2;stroke-linecap:round;stroke-linejoin:round;stroke-miterlimit:10;}
	.st26{stroke:#000000;stroke-width:2;stroke-linecap:round;stroke-linejoin:round;stroke-miterlimit:10;}
	.st27{fill:none;stroke:#000000;stroke-width:3;stroke-linecap:round;stroke-linejoin:round;stroke-miterlimit:10;}
	.st28{fill:none;stroke:#000000;stroke-width:2;stroke-miterlimit:10;}
	.st29{fill:none;stroke:#000000;stroke-width:2;stroke-linecap:round;stroke-miterlimit:10;}
	.st30{fill:#FFFFFF;stroke:#000000;stroke-width:2;stroke-linecap:round;stroke-linejoin:round;stroke-miterlimit:10;}
	.st31{stroke:#000000;stroke-width:3;stroke-linecap:round;stroke-linejoin:round;stroke-miterlimit:10;}
	.st32{fill:none;stroke:#FFFFFF;stroke-width:4;stroke-linecap:round;stroke-linejoin:round;stroke-miterlimit:10;}
	.st33{fill:none;stroke:#000000;stroke-width:3;stroke-linecap:round;stroke-linejoin:round;}
	.st34{fill:none;stroke:#000000;stroke-width:3;stroke-linecap:round;stroke-linejoin:round;stroke-dasharray:0,5.25;}
	.st35{fill:#F2F2F2;stroke:#000000;stroke-width:2;stroke-linecap:round;stroke-linejoin:round;stroke-miterlimit:10;}
	.st36{fill:#1F63B5;}
	.st37{fill:none;stroke:#A7C0E4;stroke-width:5.000000e-02;stroke-miterlimit:10;}
	.st38{opacity:0.25;}
	.st39{fill:#0066CC;}
	.st40{fill:none;stroke:#000000;stroke-width:0.5;stroke-miterlimit:10;}
	.st41{clip-path:url(#SVGID_00000087383648910169074220000015561119473837862811_);}
	.st42{fill:none;stroke:#1E67CD;stroke-width:0.5;stroke-linecap:round;stroke-linejoin:round;}
	.st43{fill:none;stroke:#1E67CD;stroke-width:0.5;stroke-linecap:round;stroke-linejoin:round;stroke-dasharray:0,1.002;}
	.st44{fill:none;stroke:#1E67CD;stroke-width:0.5;stroke-linecap:round;stroke-miterlimit:10;}
	.st45{fill:none;stroke:#1E67CD;stroke-width:0.5;stroke-linecap:round;stroke-miterlimit:10;stroke-dasharray:0,1.002;}
	.st46{fill:none;stroke:#1E67CD;stroke-miterlimit:10;}
	.st47{fill:#8F0000;}
	.st48{clip-path:url(#SVGID_00000052821633050539121250000010516518106342019756_);}
	.st49{clip-path:url(#SVGID_00000183928768254844305620000016586965510577168310_);}
	.st50{fill:#FFFFFF;stroke:#FFFFFF;stroke-width:5.000000e-02;stroke-miterlimit:10;}
	.st51{fill:none;stroke:#FFFFFF;stroke-width:0.2;stroke-linecap:round;stroke-linejoin:round;stroke-miterlimit:10;}
	.st52{opacity:0.5;fill:#1E67CD;}
	.st53{fill:#151515;stroke:#1E67CD;stroke-miterlimit:10;}
	.st54{fill:#151515;stroke:#316DC1;stroke-width:0.25;stroke-miterlimit:10;}
	.st55{fill:none;stroke:#FFFFFF;stroke-width:0.45;stroke-linecap:round;stroke-linejoin:round;stroke-miterlimit:10;}
	.st56{fill:#27579A;}
	.st57{fill:#C65E2B;}
	.st58{fill:#4E745C;}
	.st59{fill:#F7823C;}
</style>
<g>
	<rect class="st16" width="518" height="196"/>
	<g>
		<path class="st3" d="M88.8,74.1c-7.4,0-13.5-6.1-13.5-13.5s6.1-13.5,13.5-13.5s13.5,6.1,13.5,13.5S96.2,74.1,88.8,74.1z
			 M88.8,49.1c-6.3,0-11.5,5.2-11.5,11.5s5.2,11.5,11.5,11.5s11.5-5.2,11.5-11.5S95.1,49.1,88.8,49.1z"/>
		<path class="st3" d="M107.3,80.1c-0.3,0-0.5-0.1-0.7-0.3l-9-9c-0.4-0.4-0.4-1,0-1.4s1-0.4,1.4,0l9,9c0.4,0.4,0.4,1,0,1.4
			C107.8,80,107.5,80.1,107.3,80.1z"/>
	</g>
	<g>
		<g>
			<line class="st22" x1="175.5" y1="55.6" x2="175.5" y2="65.6"/>
			<line class="st23" x1="175.5" y1="70.6" x2="175.5" y2="70.6"/>
		</g>
		<path class="st22" d="M162,50.5l13.5-2.9c0,0,8.6,1.8,13.5,2.9V66c0,7.5-6.1,13.5-13.5,13.5C168,79.6,162,73.5,162,66V50.5z"/>
	</g>
	<g>
		<path class="st22" d="M243.2,79.6c0-8.8,7.2-16,16-16c8.8,0,16,7.2,16,16H243.2z"/>
		<circle class="st22" cx="259.2" cy="55.6" r="8"/>
	</g>
	<g>
		<rect x="333" y="58.1" class="st22" width="20" height="21"/>
		<path class="st22" d="M339,52.1c0-2.2,1.8-4,4-4s4,1.8,4,4"/>
		<line class="st22" x1="331" y1="53.1" x2="355" y2="53.1"/>
		<line class="st22" x1="353" y1="58.1" x2="355" y2="58.1"/>
		<line class="st22" x1="331" y1="58.1" x2="333" y2="58.1"/>
		<line class="st22" x1="346" y1="63.1" x2="346" y2="74.1"/>
		<line class="st22" x1="340" y1="63.1" x2="340" y2="74.1"/>
	</g>
	<g>
		<path class="st22" d="M414.7,74.2c2.9,3.3,7.2,5.4,12,5.4c8.8,0,16-7.2,16-16"/>
		<path class="st22" d="M438.7,53c-2.9-3.3-7.2-5.4-12-5.4c-8.8,0-16,7.2-16,16"/>
		<line class="st22" x1="413.7" y1="72.6" x2="420.7" y2="72.6"/>
		<line class="st22" x1="413.7" y1="79.6" x2="413.7" y2="72.6"/>
		<line class="st22" x1="439.7" y1="54.6" x2="432.7" y2="54.6"/>
		<line class="st22" x1="439.7" y1="47.6" x2="439.7" y2="54.6"/>
	</g>
	<g>
		<path class="st22" d="M174.3,137.6c-0.7-0.4-1.4-0.8-2.1-1.5c-2.9-2.9-2.9-7.6,0-10.5l6.6-6.6c2.9-2.9,7.6-2.9,10.5,0
			s2.9,7.6,0,10.5l-3.9,3.9"/>
		<path class="st22" d="M176.8,128.1c0.7,0.4,1.4,0.8,2.1,1.5c2.9,2.9,2.9,7.6,0,10.5l-6.6,6.6c-2.9,2.9-7.6,2.9-10.5,0
			c-2.9-2.9-2.9-7.6,0-10.5l3.9-3.9"/>
	</g>
	<g>
		<g>
			<path class="st22" d="M107.5,135.8c0.2-1,0.3-2,0.3-3s-0.1-2-0.3-3h-4.4c-0.3-1-0.7-2-1.2-2.9l3.1-3.1c-1.1-1.6-2.5-3.1-4.2-4.2
				l-3.1,3.1c-0.9-0.5-1.9-1-2.9-1.2v-4.4c-1-0.2-2-0.3-3.1-0.3c-1,0-1.9,0.1-2.9,0.3v4.3c-1.1,0.3-2.1,0.7-3,1.2l-3.1-3.1
				c-1.6,1.1-3.1,2.5-4.2,4.2l3.1,3.1c-0.6,0.9-1,2-1.3,3h-4.4c-0.2,1-0.3,2-0.3,3s0.1,2,0.3,3h4.4c0.3,1.1,0.7,2.1,1.3,3l-3.1,3.1
				c1.1,1.6,2.6,3.1,4.2,4.2l3.1-3.1c0.9,0.5,1.9,0.9,3,1.2v4.3c0.9,0.2,1.9,0.3,2.9,0.3c1.1,0,2.1-0.1,3.1-0.3v-4.4
				c1-0.3,2-0.7,2.9-1.2l3.1,3.1c1.6-1.1,3.1-2.6,4.2-4.2l-3.1-3.1c0.5-0.9,0.9-1.9,1.2-2.9H107.5z"/>
		</g>
		<circle class="st22" cx="91.8" cy="132.9" r="4.6"/>
	</g>
	<g>
		<line class="st22" x1="250.2" y1="122.9" x2="250.2" y2="141.9"/>
		<path class="st22" d="M254.2,135.9h10c2.2,0,4-1.8,4-4v-1"/>
		<path class="st22" d="M264.2,135.9h-10c-2.2,0-4,1.8-4,4v1"/>
		<circle class="st22" cx="250.2" cy="119.9" r="3"/>
		<circle class="st22" cx="250.2" cy="145.9" r="3"/>
		<circle class="st22" cx="268.2" cy="126.9" r="3"/>
	</g>
	<g>
		<ellipse class="st22" cx="343" cy="145.7" rx="3.2" ry="3.2"/>
		<path class="st24" d="M355.8,144.7h-25.7V141l0,0c1.3,0,2.3-1.1,2.3-2.5v-5c0-6.2,4.7-11.3,10.5-11.3h0c5.8,0,10.5,5,10.5,11.3v5
			c0,1.4,1,2.5,2.3,2.5l0,0V144.7z"/>
		<circle class="st22" cx="343" cy="119.5" r="2.7"/>
	</g>
	<g>
		<path class="st22" d="M442.7,126.9c0,5.5-4.5,10-10,10c-1.2,0-2.3-0.2-3.3-0.6l-11.3,11.3c-1.7,1.7-4.4,1.7-6.1,0s-1.7-4.4,0-6.1
			l11.3-11.3c-0.4-1-0.6-2.2-0.6-3.3c0-5.5,4.5-10,10-10c1.7,0,3.2,0.4,4.6,1.1l-6.1,6.1c-1.2,1.2-1.2,3.1,0,4.2
			c1.2,1.2,3.1,1.2,4.2,0l6.1-6.1C442.3,123.6,442.7,125.2,442.7,126.9z"/>
		<line class="st23" x1="415.7" y1="143.9" x2="415.7" y2="143.9"/>
	</g>
</g>
</svg>
