<?xml version="1.0" encoding="utf-8"?>
<!-- Generator: Adobe Illustrator 27.6.1, SVG Export Plug-In . SVG Version: 6.00 Build 0)  -->
<svg version="1.1" id="Layer_1" xmlns="http://www.w3.org/2000/svg" xmlns:xlink="http://www.w3.org/1999/xlink" x="0px" y="0px"
	 viewBox="0 0 360 208" style="enable-background:new 0 0 360 208;" xml:space="preserve">
<style type="text/css">
	.st0{fill:#F3F3F3;}
	.st1{fill:#EE0000;}
	.st2{fill:#E0E0E0;}
	.st3{fill:#FFFFFF;}
	.st4{fill:#79C4C6;}
	.st5{fill:#316DC1;}
	.st6{fill:#4D4D4D;}
	.st7{fill:#ED0000;}
	.st8{fill:#DFDFDF;}
	.st9{fill:none;stroke:#FF0000;stroke-width:1.25;stroke-linecap:round;stroke-linejoin:round;stroke-miterlimit:10;}
	.st10{fill:none;}
	.st11{fill:#689B7A;}
	.st12{fill:#ED1C24;}
	.st13{fill:#383838;}
	.st14{clip-path:url(#SVGID_00000142157202510521966230000010303257464155664303_);}
	.st15{clip-path:url(#SVGID_00000103261028151478020930000001215334041561712284_);}
	.st16{fill:#151515;}
	.st17{fill:#F2F2F2;}
	.st18{fill:none;stroke:#1E67CD;stroke-width:0.75;stroke-miterlimit:10;}
	.st19{fill:#1E67CD;}
	.st20{fill:#707070;}
	.st21{fill:none;stroke:#FFFFFF;stroke-width:1.25;stroke-linecap:round;stroke-linejoin:round;stroke-miterlimit:10;}
	.st22{fill:none;stroke:#FFFFFF;stroke-width:2;stroke-linecap:round;stroke-linejoin:round;stroke-miterlimit:10;}
	.st23{fill:none;stroke:#FFFFFF;stroke-width:3;stroke-linecap:round;stroke-linejoin:round;stroke-miterlimit:10;}
	.st24{fill:#151515;stroke:#FFFFFF;stroke-width:2;stroke-linecap:round;stroke-linejoin:round;stroke-miterlimit:10;}
	.st25{fill:none;stroke:#000000;stroke-width:2;stroke-linecap:round;stroke-linejoin:round;stroke-miterlimit:10;}
	.st26{stroke:#000000;stroke-width:2;stroke-linecap:round;stroke-linejoin:round;stroke-miterlimit:10;}
	.st27{fill:none;stroke:#000000;stroke-width:3;stroke-linecap:round;stroke-linejoin:round;stroke-miterlimit:10;}
	.st28{fill:none;stroke:#000000;stroke-width:2;stroke-miterlimit:10;}
	.st29{fill:none;stroke:#000000;stroke-width:2;stroke-linecap:round;stroke-miterlimit:10;}
	.st30{fill:#FFFFFF;stroke:#000000;stroke-width:2;stroke-linecap:round;stroke-linejoin:round;stroke-miterlimit:10;}
	.st31{stroke:#000000;stroke-width:3;stroke-linecap:round;stroke-linejoin:round;stroke-miterlimit:10;}
	.st32{fill:none;stroke:#FFFFFF;stroke-width:4;stroke-linecap:round;stroke-linejoin:round;stroke-miterlimit:10;}
	.st33{fill:none;stroke:#000000;stroke-width:3;stroke-linecap:round;stroke-linejoin:round;}
	.st34{fill:none;stroke:#000000;stroke-width:3;stroke-linecap:round;stroke-linejoin:round;stroke-dasharray:0,5.25;}
	.st35{fill:#F2F2F2;stroke:#000000;stroke-width:2;stroke-linecap:round;stroke-linejoin:round;stroke-miterlimit:10;}
	.st36{fill:#1F63B5;}
	.st37{fill:none;stroke:#A7C0E4;stroke-width:5.000000e-02;stroke-miterlimit:10;}
	.st38{opacity:0.25;}
	.st39{fill:#0066CC;}
	.st40{fill:none;stroke:#000000;stroke-width:0.5;stroke-miterlimit:10;}
	.st41{font-family:'RedHatText-Medium';}
	.st42{font-size:10px;}
	.st43{clip-path:url(#SVGID_00000132771404766870905180000018049674835748216221_);}
	.st44{fill:none;stroke:#1E67CD;stroke-width:0.5;stroke-linecap:round;stroke-linejoin:round;}
	.st45{fill:none;stroke:#1E67CD;stroke-width:0.5;stroke-linecap:round;stroke-linejoin:round;stroke-dasharray:0,1.002;}
	.st46{fill:none;stroke:#1E67CD;stroke-width:0.5;stroke-linecap:round;stroke-miterlimit:10;}
	.st47{fill:none;stroke:#1E67CD;stroke-width:0.5;stroke-linecap:round;stroke-miterlimit:10;stroke-dasharray:0,1.002;}
	.st48{fill:none;stroke:#1E67CD;stroke-miterlimit:10;}
	.st49{fill:#8F0000;}
	.st50{clip-path:url(#SVGID_00000090996177756560329330000006988441587839209624_);}
	.st51{clip-path:url(#SVGID_00000086675004789232496200000001668090042768669082_);}
	.st52{fill:#FFFFFF;stroke:#FFFFFF;stroke-width:5.000000e-02;stroke-miterlimit:10;}
	.st53{fill:none;stroke:#FFFFFF;stroke-width:0.2;stroke-linecap:round;stroke-linejoin:round;stroke-miterlimit:10;}
	.st54{opacity:0.5;fill:#1E67CD;}
	.st55{fill:#151515;stroke:#1E67CD;stroke-miterlimit:10;}
	.st56{fill:#151515;stroke:#316DC1;stroke-width:0.25;stroke-miterlimit:10;}
	.st57{fill:none;stroke:#FFFFFF;stroke-width:0.45;stroke-linecap:round;stroke-linejoin:round;stroke-miterlimit:10;}
	.st58{fill:#27579A;}
	.st59{fill:#C65E2B;}
	.st60{fill:#4E745C;}
	.st61{fill:#F7823C;}
</style>
<g>
	<rect class="st17" width="360" height="208"/>
	<rect x="110.5" y="34.5" class="st3" width="138.9" height="138.9"/>
	<g>
		<line class="st37" x1="139.5" y1="0" x2="139.5" y2="208"/>
		<line class="st37" x1="136.6" y1="0" x2="136.6" y2="208"/>
		<line class="st37" x1="133.7" y1="0" x2="133.7" y2="208"/>
		<line class="st37" x1="130.8" y1="0" x2="130.8" y2="208"/>
		<line class="st37" x1="127.9" y1="0" x2="127.9" y2="208"/>
		<line class="st37" x1="125" y1="0" x2="125" y2="208"/>
		<line class="st37" x1="122.1" y1="0" x2="122.1" y2="208"/>
		<line class="st37" x1="119.2" y1="0" x2="119.2" y2="208"/>
		<line class="st37" x1="116.3" y1="0" x2="116.3" y2="208"/>
		<line class="st37" x1="113.4" y1="0" x2="113.4" y2="208"/>
		<line class="st37" x1="110.5" y1="0" x2="110.5" y2="208"/>
		<line class="st37" x1="107.6" y1="0" x2="107.6" y2="208"/>
		<line class="st37" x1="104.7" y1="0" x2="104.7" y2="208"/>
		<line class="st37" x1="101.8" y1="0" x2="101.8" y2="208"/>
		<line class="st37" x1="98.9" y1="0" x2="98.9" y2="208"/>
		<line class="st37" x1="96" y1="0" x2="96" y2="208"/>
		<line class="st37" x1="93.1" y1="0" x2="93.1" y2="208"/>
		<line class="st37" x1="90.2" y1="0" x2="90.2" y2="208"/>
		<line class="st37" x1="87.3" y1="0" x2="87.3" y2="208"/>
		<line class="st37" x1="84.4" y1="0" x2="84.4" y2="208"/>
		<line class="st37" x1="81.5" y1="0" x2="81.5" y2="208"/>
		<line class="st37" x1="78.6" y1="0" x2="78.6" y2="208"/>
		<line class="st37" x1="75.7" y1="0" x2="75.7" y2="208"/>
		<line class="st37" x1="72.8" y1="0" x2="72.8" y2="208"/>
		<line class="st37" x1="69.9" y1="0" x2="69.9" y2="208"/>
		<line class="st37" x1="67.1" y1="0" x2="67.1" y2="208"/>
		<line class="st37" x1="64.2" y1="0" x2="64.2" y2="208"/>
		<line class="st37" x1="61.3" y1="0" x2="61.3" y2="208"/>
		<line class="st37" x1="58.4" y1="0" x2="58.4" y2="208"/>
		<line class="st37" x1="55.5" y1="0" x2="55.5" y2="208"/>
		<line class="st37" x1="52.6" y1="0" x2="52.6" y2="208"/>
		<line class="st37" x1="49.7" y1="0" x2="49.7" y2="208"/>
		<line class="st37" x1="46.8" y1="0" x2="46.8" y2="208"/>
		<line class="st37" x1="43.9" y1="0" x2="43.9" y2="208"/>
		<line class="st37" x1="41" y1="0" x2="41" y2="208"/>
		<line class="st37" x1="38.1" y1="0" x2="38.1" y2="208"/>
		<line class="st37" x1="35.2" y1="0" x2="35.2" y2="208"/>
		<line class="st37" x1="32.3" y1="0" x2="32.3" y2="208"/>
		<line class="st37" x1="29.4" y1="0" x2="29.4" y2="208"/>
		<line class="st37" x1="26.5" y1="0" x2="26.5" y2="208"/>
		<line class="st37" x1="23.6" y1="0" x2="23.6" y2="208"/>
		<line class="st37" x1="20.7" y1="0" x2="20.7" y2="208"/>
		<line class="st37" x1="17.8" y1="0" x2="17.8" y2="208"/>
		<line class="st37" x1="14.9" y1="0" x2="14.9" y2="208"/>
		<line class="st37" x1="12" y1="0" x2="12" y2="208"/>
		<line class="st37" x1="9.1" y1="0" x2="9.1" y2="208"/>
		<line class="st37" x1="6.2" y1="0" x2="6.2" y2="208"/>
		<line class="st37" x1="3.3" y1="0" x2="3.3" y2="208"/>
		<line class="st37" x1="0.4" y1="0" x2="0.4" y2="208"/>
		<line class="st37" x1="142.4" y1="0" x2="142.4" y2="208"/>
		<line class="st37" x1="145.3" y1="0" x2="145.3" y2="208"/>
		<line class="st37" x1="148.1" y1="0" x2="148.1" y2="208"/>
		<line class="st37" x1="151" y1="0" x2="151" y2="208"/>
		<line class="st37" x1="153.9" y1="0" x2="153.9" y2="208"/>
		<line class="st37" x1="156.8" y1="0" x2="156.8" y2="208"/>
		<line class="st37" x1="159.7" y1="0" x2="159.7" y2="208"/>
		<line class="st37" x1="162.6" y1="0" x2="162.6" y2="208"/>
		<line class="st37" x1="165.5" y1="0" x2="165.5" y2="208"/>
		<line class="st37" x1="168.4" y1="0" x2="168.4" y2="208"/>
		<line class="st37" x1="171.3" y1="0" x2="171.3" y2="208"/>
		<line class="st37" x1="174.2" y1="0" x2="174.2" y2="208"/>
		<line class="st37" x1="177.1" y1="0" x2="177.1" y2="208"/>
		<line class="st37" x1="180" y1="0" x2="180" y2="208"/>
		<line class="st37" x1="182.9" y1="0" x2="182.9" y2="208"/>
		<line class="st37" x1="185.8" y1="0" x2="185.8" y2="208"/>
		<line class="st37" x1="188.7" y1="0" x2="188.7" y2="208"/>
		<line class="st37" x1="191.6" y1="0" x2="191.6" y2="208"/>
		<line class="st37" x1="194.5" y1="0" x2="194.5" y2="208"/>
		<line class="st37" x1="197.4" y1="0" x2="197.4" y2="208"/>
		<line class="st37" x1="200.3" y1="0" x2="200.3" y2="208"/>
		<line class="st37" x1="203.2" y1="0" x2="203.2" y2="208"/>
		<line class="st37" x1="206.1" y1="0" x2="206.1" y2="208"/>
		<line class="st37" x1="209" y1="0" x2="209" y2="208"/>
		<line class="st37" x1="211.9" y1="0" x2="211.9" y2="208"/>
		<line class="st37" x1="214.8" y1="0" x2="214.8" y2="208"/>
		<line class="st37" x1="217.7" y1="0" x2="217.7" y2="208"/>
		<line class="st37" x1="220.6" y1="0" x2="220.6" y2="208"/>
		<line class="st37" x1="223.5" y1="0" x2="223.5" y2="208"/>
		<line class="st37" x1="226.4" y1="0" x2="226.4" y2="208"/>
		<line class="st37" x1="229.2" y1="0" x2="229.2" y2="208"/>
		<line class="st37" x1="232.1" y1="0" x2="232.1" y2="208"/>
		<line class="st37" x1="235" y1="0" x2="235" y2="208"/>
		<line class="st37" x1="237.9" y1="0" x2="237.9" y2="208"/>
		<line class="st37" x1="240.8" y1="0" x2="240.8" y2="208"/>
		<line class="st37" x1="243.7" y1="0" x2="243.7" y2="208"/>
		<line class="st37" x1="246.6" y1="0" x2="246.6" y2="208"/>
		<line class="st37" x1="249.5" y1="0" x2="249.5" y2="208"/>
		<line class="st37" x1="252.4" y1="0" x2="252.4" y2="208"/>
		<line class="st37" x1="255.3" y1="0" x2="255.3" y2="208"/>
		<line class="st37" x1="258.2" y1="0" x2="258.2" y2="208"/>
		<line class="st37" x1="261.1" y1="0" x2="261.1" y2="208"/>
		<line class="st37" x1="264" y1="0" x2="264" y2="208"/>
		<line class="st37" x1="266.9" y1="0" x2="266.9" y2="208"/>
		<line class="st37" x1="269.8" y1="0" x2="269.8" y2="208"/>
		<line class="st37" x1="272.7" y1="0" x2="272.7" y2="208"/>
		<line class="st37" x1="275.6" y1="0" x2="275.6" y2="208"/>
		<line class="st37" x1="278.5" y1="0" x2="278.5" y2="208"/>
		<line class="st37" x1="281.4" y1="0" x2="281.4" y2="208"/>
		<line class="st37" x1="284.3" y1="0" x2="284.3" y2="208"/>
		<line class="st37" x1="287.2" y1="0" x2="287.2" y2="208"/>
		<line class="st37" x1="290.1" y1="0" x2="290.1" y2="208"/>
		<line class="st37" x1="293" y1="0" x2="293" y2="208"/>
		<line class="st37" x1="295.9" y1="0" x2="295.9" y2="208"/>
		<line class="st37" x1="298.8" y1="0" x2="298.8" y2="208"/>
		<line class="st37" x1="301.7" y1="0" x2="301.7" y2="208"/>
		<line class="st37" x1="304.6" y1="0" x2="304.6" y2="208"/>
		<line class="st37" x1="307.5" y1="0" x2="307.5" y2="208"/>
		<line class="st37" x1="310.3" y1="0" x2="310.3" y2="208"/>
		<line class="st37" x1="313.2" y1="0" x2="313.2" y2="208"/>
		<line class="st37" x1="316.1" y1="0" x2="316.1" y2="208"/>
		<line class="st37" x1="319" y1="0" x2="319" y2="208"/>
		<line class="st37" x1="321.9" y1="0" x2="321.9" y2="208"/>
		<line class="st37" x1="324.8" y1="0" x2="324.8" y2="208"/>
		<line class="st37" x1="327.7" y1="0" x2="327.7" y2="208"/>
		<line class="st37" x1="330.6" y1="0" x2="330.6" y2="208"/>
		<line class="st37" x1="333.5" y1="0" x2="333.5" y2="208"/>
		<line class="st37" x1="336.4" y1="0" x2="336.4" y2="208"/>
		<line class="st37" x1="339.3" y1="0" x2="339.3" y2="208"/>
		<line class="st37" x1="342.2" y1="0" x2="342.2" y2="208"/>
		<line class="st37" x1="345.1" y1="0" x2="345.1" y2="208"/>
		<line class="st37" x1="348" y1="0" x2="348" y2="208"/>
		<line class="st37" x1="350.9" y1="0" x2="350.9" y2="208"/>
		<line class="st37" x1="353.8" y1="0" x2="353.8" y2="208"/>
		<line class="st37" x1="356.7" y1="0" x2="356.7" y2="208"/>
		<line class="st37" x1="359.6" y1="0" x2="359.6" y2="208"/>
	</g>
	<g>
		<line class="st37" x1="0" y1="188" x2="360" y2="188"/>
		<line class="st37" x1="0" y1="190.9" x2="360" y2="190.9"/>
		<line class="st37" x1="0" y1="193.8" x2="360" y2="193.8"/>
		<line class="st37" x1="0" y1="196.7" x2="360" y2="196.7"/>
		<line class="st37" x1="0" y1="199.6" x2="360" y2="199.6"/>
		<line class="st37" x1="0" y1="202.5" x2="360" y2="202.5"/>
		<line class="st37" x1="0" y1="205.4" x2="360" y2="205.4"/>
		<line class="st37" x1="0" y1="185.1" x2="360" y2="185.1"/>
		<line class="st37" x1="0" y1="182.2" x2="360" y2="182.2"/>
		<line class="st37" x1="0" y1="179.4" x2="360" y2="179.4"/>
		<line class="st37" x1="0" y1="176.5" x2="360" y2="176.5"/>
		<line class="st37" x1="0" y1="173.6" x2="360" y2="173.6"/>
		<line class="st37" x1="0" y1="170.7" x2="360" y2="170.7"/>
		<line class="st37" x1="0" y1="167.8" x2="360" y2="167.8"/>
		<line class="st37" x1="0" y1="164.9" x2="360" y2="164.9"/>
		<line class="st37" x1="0" y1="162" x2="360" y2="162"/>
		<line class="st37" x1="0" y1="159.1" x2="360" y2="159.1"/>
		<line class="st37" x1="0" y1="156.2" x2="360" y2="156.2"/>
		<line class="st37" x1="0" y1="153.3" x2="360" y2="153.3"/>
		<line class="st37" x1="0" y1="150.4" x2="360" y2="150.4"/>
		<line class="st37" x1="0" y1="147.5" x2="360" y2="147.5"/>
		<line class="st37" x1="0" y1="144.6" x2="360" y2="144.6"/>
		<line class="st37" x1="0" y1="141.7" x2="360" y2="141.7"/>
		<line class="st37" x1="0" y1="138.8" x2="360" y2="138.8"/>
		<line class="st37" x1="0" y1="135.9" x2="360" y2="135.9"/>
		<line class="st37" x1="0" y1="133" x2="360" y2="133"/>
		<line class="st37" x1="0" y1="130.1" x2="360" y2="130.1"/>
		<line class="st37" x1="0" y1="127.2" x2="360" y2="127.2"/>
		<line class="st37" x1="0" y1="124.3" x2="360" y2="124.3"/>
		<line class="st37" x1="0" y1="121.4" x2="360" y2="121.4"/>
		<line class="st37" x1="0" y1="118.5" x2="360" y2="118.5"/>
		<line class="st37" x1="0" y1="115.6" x2="360" y2="115.6"/>
		<line class="st37" x1="0" y1="112.7" x2="360" y2="112.7"/>
		<line class="st37" x1="0" y1="109.8" x2="360" y2="109.8"/>
		<line class="st37" x1="0" y1="106.9" x2="360" y2="106.9"/>
		<line class="st37" x1="0" y1="104" x2="360" y2="104"/>
		<line class="st37" x1="0" y1="101.2" x2="360" y2="101.2"/>
		<line class="st37" x1="0" y1="98.3" x2="360" y2="98.3"/>
		<line class="st37" x1="0" y1="95.4" x2="360" y2="95.4"/>
		<line class="st37" x1="0" y1="92.5" x2="360" y2="92.5"/>
		<line class="st37" x1="0" y1="89.6" x2="360" y2="89.6"/>
		<line class="st37" x1="0" y1="86.7" x2="360" y2="86.7"/>
		<line class="st37" x1="0" y1="83.8" x2="360" y2="83.8"/>
		<line class="st37" x1="0" y1="80.9" x2="360" y2="80.9"/>
		<line class="st37" x1="0" y1="78" x2="360" y2="78"/>
		<line class="st37" x1="0" y1="75.1" x2="360" y2="75.1"/>
		<line class="st37" x1="0" y1="72.2" x2="360" y2="72.2"/>
		<line class="st37" x1="0" y1="69.3" x2="360" y2="69.3"/>
		<line class="st37" x1="0" y1="66.4" x2="360" y2="66.4"/>
		<line class="st37" x1="0" y1="63.5" x2="360" y2="63.5"/>
		<line class="st37" x1="0" y1="60.6" x2="360" y2="60.6"/>
		<line class="st37" x1="0" y1="57.7" x2="360" y2="57.7"/>
		<line class="st37" x1="0" y1="54.8" x2="360" y2="54.8"/>
		<line class="st37" x1="0" y1="51.9" x2="360" y2="51.9"/>
		<line class="st37" x1="0" y1="49" x2="360" y2="49"/>
		<line class="st37" x1="0" y1="46.1" x2="360" y2="46.1"/>
		<line class="st37" x1="0" y1="43.2" x2="360" y2="43.2"/>
		<line class="st37" x1="0" y1="40.3" x2="360" y2="40.3"/>
		<line class="st37" x1="0" y1="37.4" x2="360" y2="37.4"/>
		<line class="st37" x1="0" y1="34.5" x2="360" y2="34.5"/>
		<line class="st37" x1="0" y1="31.6" x2="360" y2="31.6"/>
		<line class="st37" x1="0" y1="28.7" x2="360" y2="28.7"/>
		<line class="st37" x1="0" y1="25.8" x2="360" y2="25.8"/>
		<line class="st37" x1="0" y1="22.9" x2="360" y2="22.9"/>
		<line class="st37" x1="0" y1="20.1" x2="360" y2="20.1"/>
		<line class="st37" x1="0" y1="17.2" x2="360" y2="17.2"/>
		<line class="st37" x1="0" y1="14.3" x2="360" y2="14.3"/>
		<line class="st37" x1="0" y1="11.4" x2="360" y2="11.4"/>
		<line class="st37" x1="0" y1="8.5" x2="360" y2="8.5"/>
		<line class="st37" x1="0" y1="5.6" x2="360" y2="5.6"/>
		<line class="st37" x1="0" y1="2.7" x2="360" y2="2.7"/>
	</g>
	<g>
		<g class="st38">
			<path class="st19" d="M110.5,34.5v139h139v-139L110.5,34.5z M229.2,153.2h-98.4V54.8h98.4V153.2z"/>
		</g>
		<g>
			<path class="st39" d="M223.6,133.1h-87.1V74.9h87.1V133.1z M136.7,132.8h86.6V75.2h-86.6V132.8z"/>
		</g>
		<g>
			<path class="st39" d="M209.1,147.6h-58.2V60.4h58.2V147.6z M151.2,147.3h57.6V60.7h-57.6V147.3z"/>
		</g>
		<g>
			<path class="st39" d="M223.6,147.6h-87.1V60.4h87.1V147.6z M136.7,147.3h86.6V60.7h-86.6V147.3z"/>
		</g>
		<g>
			<path class="st19" d="M180,150.5c-25.6,0-46.5-20.8-46.5-46.5s20.8-46.5,46.5-46.5s46.5,20.8,46.5,46.5S205.6,150.5,180,150.5z
				 M180,57.8c-25.5,0-46.2,20.7-46.2,46.2s20.7,46.2,46.2,46.2s46.2-20.7,46.2-46.2S205.5,57.8,180,57.8z"/>
		</g>
		<g>
			<rect x="136.6" y="103.9" class="st39" width="86.8" height="0.3"/>
		</g>
		<g>
			<rect x="179.9" y="60.6" class="st39" width="0.3" height="86.8"/>
		</g>
		<g>
			<g>
				<path d="M180,153.2c-2.8,0-5.7-0.3-8.8-0.8c-1.4-0.2-2.4-1.5-2.4-2.8v-10.4c-1.8-0.6-3.6-1.3-5.3-2.1l-7.4,7.4
					c-1,1-2.5,1.1-3.7,0.4c-5.1-3.4-9.4-7.8-12.9-12.8c-0.8-1.2-0.7-2.7,0.3-3.7l7.4-7.4c-0.9-1.7-1.6-3.5-2.3-5.4h-10.4
					c-1.4,0-2.6-1-2.8-2.4c-0.6-3.1-0.9-6.2-0.9-9.1s0.3-6,0.9-9.1c0.3-1.4,1.5-2.4,2.8-2.4h10.4c0.6-1.9,1.4-3.7,2.3-5.4l-7.4-7.4
					c-1-1-1.1-2.5-0.3-3.7c3.5-5.1,7.9-9.4,12.9-12.8c1.1-0.8,2.7-0.6,3.7,0.4l7.4,7.4c1.7-0.8,3.5-1.6,5.3-2.1V58.5
					c0-1.4,1-2.6,2.4-2.8c6.5-1.2,12.2-1.1,18.2,0.1c1.4,0.3,2.3,1.5,2.3,2.8V69c1.8,0.6,3.5,1.3,5.1,2.2l7.4-7.4
					c1-1,2.5-1.1,3.7-0.3c5.1,3.5,9.4,7.9,12.8,12.9c0.8,1.1,0.6,2.7-0.4,3.7l-7.4,7.4c0.8,1.6,1.5,3.3,2,5h10.4
					c1.4,0,2.6,1,2.8,2.4c0.6,3.1,0.9,6.2,0.9,9.1c0,2.9-0.3,6-0.9,9.1c-0.3,1.4-1.5,2.4-2.8,2.4h-10.4c-0.6,1.7-1.2,3.4-2,5
					l7.4,7.4c1,1,1.1,2.5,0.4,3.7c-3.4,5.1-7.8,9.4-12.8,12.9c-1.1,0.8-2.7,0.7-3.7-0.3l-7.4-7.4c-1.6,0.8-3.3,1.6-5.1,2.2v10.5
					c0,1.4-1,2.6-2.3,2.8C186.3,152.9,183.1,153.2,180,153.2z M174.6,147.1c3.9,0.5,7.6,0.5,11.4-0.1v-10.2c0-1.3,0.9-2.5,2.1-2.8
					c2.7-0.7,5.3-1.8,7.8-3.3c1.1-0.7,2.6-0.5,3.5,0.4l7.2,7.2c3-2.3,5.7-5,8-8.1l-7.2-7.2c-0.9-0.9-1.1-2.4-0.5-3.5
					c1.4-2.4,2.4-5,3.2-7.7c0.3-1.3,1.5-2.2,2.8-2.2H223c0.3-1.9,0.4-3.8,0.4-5.7c0-1.9-0.1-3.8-0.4-5.7h-10.1
					c-1.3,0-2.5-0.9-2.8-2.2c-0.7-2.7-1.8-5.3-3.2-7.7c-0.7-1.1-0.5-2.6,0.5-3.5l7.2-7.2c-2.3-3-5-5.7-8-8.1l-7.2,7.2
					c-0.9,0.9-2.4,1.1-3.5,0.4c-2.4-1.4-5-2.5-7.8-3.3c-1.3-0.3-2.1-1.5-2.1-2.8V61c-3.8-0.5-7.4-0.6-11.4-0.1V71
					c0,1.3-0.9,2.5-2.2,2.8c-2.8,0.7-5.5,1.8-8,3.2c-1.1,0.7-2.6,0.5-3.5-0.5l-7.2-7.2c-3,2.3-5.7,5-8.1,8l7.2,7.2
					c0.9,0.9,1.1,2.4,0.4,3.5c-1.5,2.5-2.6,5.2-3.4,8c-0.3,1.3-1.5,2.2-2.8,2.2H137c-0.3,1.9-0.4,3.8-0.4,5.7s0.1,3.8,0.4,5.7h10.1
					c1.3,0,2.5,0.9,2.8,2.2c0.7,2.8,1.9,5.5,3.4,8c0.7,1.1,0.5,2.6-0.4,3.5l-7.2,7.2c2.3,3,5,5.7,8.1,8l7.2-7.2
					c0.9-0.9,2.4-1.1,3.5-0.5c2.5,1.4,5.2,2.5,8,3.2c1.3,0.3,2.2,1.5,2.2,2.8V147.1z"/>
			</g>
		</g>
		<g>
			<g>
				<path class="st19" d="M180,150.4c-2.7,0-5.4-0.3-8.3-0.8l-0.1,0V137c-3-0.8-5.9-1.9-8.6-3.5l-8.9,8.9l0,0
					c-4.8-3.2-8.9-7.3-12.2-12.1l0-0.1l8.9-8.9c-1.6-2.7-2.8-5.6-3.6-8.7h-12.6l0-0.1c-0.5-2.9-0.8-5.8-0.8-8.6s0.3-5.7,0.8-8.6
					l0-0.1h12.6c0.8-3.1,2-6,3.6-8.7l-8.9-8.9l0-0.1c3.3-4.8,7.4-8.9,12.2-12.1l0,0l8.9,8.9c2.7-1.5,5.6-2.7,8.6-3.5V58.4l0.1,0
					c2.9-0.5,5.6-0.8,8.3-0.8c2.9,0,5.9,0.3,8.9,0.9l0.1,0v12.6c3,0.8,5.8,2,8.4,3.6l8.9-8.9l0.1,0c4.8,3.3,8.9,7.4,12.1,12.2l0,0
					l-8.9,8.9c1.5,2.6,2.6,5.4,3.4,8.3h12.6l0,0.1c0.6,2.9,0.8,5.8,0.8,8.6c0,2.8-0.3,5.7-0.8,8.6l0,0.1h-12.6
					c-0.8,2.9-1.9,5.7-3.4,8.3l8.9,8.9l0,0c-3.2,4.8-7.3,8.9-12.1,12.2l-0.1,0l-8.9-8.9c-2.6,1.6-5.5,2.8-8.4,3.6v12.6l-0.1,0
					C185.9,150.1,182.9,150.4,180,150.4z M171.8,149.5c2.9,0.5,5.6,0.8,8.2,0.8c2.9,0,5.9-0.3,8.8-0.9v-12.6l0.1,0
					c3-0.8,5.8-2,8.5-3.6l0,0l8.9,8.9c4.7-3.3,8.8-7.3,12-12.1l-8.9-8.9l0,0c1.5-2.6,2.7-5.4,3.4-8.4l0-0.1h12.6
					c0.5-2.9,0.8-5.8,0.8-8.5s-0.3-5.6-0.8-8.5h-12.6l0-0.1c-0.8-3-1.9-5.8-3.4-8.4l0,0l8.9-8.9c-3.2-4.7-7.2-8.8-12-12.1l-8.9,8.9
					l0,0c-2.6-1.6-5.5-2.8-8.5-3.6l-0.1,0V58.6c-2.9-0.6-5.9-0.9-8.8-0.9c-2.6,0-5.3,0.3-8.2,0.8v12.6l-0.1,0c-3.1,0.8-6,2-8.7,3.5
					l0,0l-8.9-8.9c-4.7,3.2-8.8,7.2-12.1,12l8.9,8.9l0,0c-1.6,2.7-2.9,5.7-3.7,8.8l0,0.1h-12.6c-0.5,2.9-0.8,5.8-0.8,8.5
					c0,2.8,0.3,5.6,0.8,8.5h12.6l0,0.1c0.8,3.1,2,6,3.7,8.8l0,0l-8.9,8.9c3.3,4.7,7.3,8.8,12.1,12l8.9-8.9l0,0
					c2.7,1.6,5.6,2.8,8.7,3.5l0.1,0V149.5z"/>
			</g>
		</g>
		<g>
			<path d="M180,120.1c-8.9,0-16.1-7.2-16.1-16.1s7.2-16.1,16.1-16.1c8.9,0,16.1,7.2,16.1,16.1S188.9,120.1,180,120.1z M180,93.7
				c-5.7,0-10.3,4.6-10.3,10.3s4.6,10.3,10.3,10.3c5.7,0,10.3-4.6,10.3-10.3S185.7,93.7,180,93.7z"/>
		</g>
		<g>
			<path class="st19" d="M180,117.3c-7.3,0-13.3-6-13.3-13.3s6-13.3,13.3-13.3c7.3,0,13.3,6,13.3,13.3S187.3,117.3,180,117.3z
				 M180,90.8c-7.3,0-13.2,5.9-13.2,13.2s5.9,13.2,13.2,13.2c7.3,0,13.2-5.9,13.2-13.2S187.3,90.8,180,90.8z"/>
		</g>
	</g>
	<g>
		<g>
			<line class="st40" x1="110.7" y1="179.4" x2="249.2" y2="179.4"/>
			<g>
				<rect x="110.5" y="177.7" width="0.5" height="3.2"/>
			</g>
			<g>
				<rect x="249" y="177.7" width="0.5" height="3.2"/>
			</g>
		</g>
	</g>
	<rect x="154.7" y="186.1" class="st10" width="50.6" height="11.3"/>
	<text transform="matrix(1 0 0 1 166.7493 193.4859)" class="st41 st42">48 px</text>
</g>
</svg>
