<?xml version="1.0" encoding="utf-8"?>
<!-- Generator: Adobe Illustrator 27.6.1, SVG Export Plug-In . SVG Version: 6.00 Build 0)  -->
<svg version="1.1" id="Layer_1" xmlns="http://www.w3.org/2000/svg" xmlns:xlink="http://www.w3.org/1999/xlink" x="0px" y="0px"
	 viewBox="0 0 555 288" style="enable-background:new 0 0 555 288;" xml:space="preserve">
<style type="text/css">
	.st0{fill:#F3F3F3;}
	.st1{fill:#EE0000;}
	.st2{fill:#E0E0E0;}
	.st3{fill:#FFFFFF;}
	.st4{fill:#79C4C6;}
	.st5{fill:#316DC1;}
	.st6{fill:#4D4D4D;}
	.st7{fill:#ED0000;}
	.st8{fill:#DFDFDF;}
	.st9{fill:none;stroke:#FF0000;stroke-width:1.25;stroke-linecap:round;stroke-linejoin:round;stroke-miterlimit:10;}
	.st10{fill:none;}
	.st11{fill:#689B7A;}
	.st12{fill:#ED1C24;}
	.st13{fill:#383838;}
	.st14{clip-path:url(#SVGID_00000152984214049795343510000002680346357445749149_);}
	.st15{clip-path:url(#SVGID_00000039841338133810045490000011209676653503163786_);}
	.st16{fill:#151515;}
	.st17{fill:#F2F2F2;}
	.st18{fill:none;stroke:#1E67CD;stroke-width:0.75;stroke-miterlimit:10;}
	.st19{fill:#1E67CD;}
	.st20{fill:#707070;}
	.st21{fill:none;stroke:#FFFFFF;stroke-width:1.25;stroke-linecap:round;stroke-linejoin:round;stroke-miterlimit:10;}
	.st22{fill:none;stroke:#FFFFFF;stroke-width:2;stroke-linecap:round;stroke-linejoin:round;stroke-miterlimit:10;}
	.st23{fill:none;stroke:#FFFFFF;stroke-width:3;stroke-linecap:round;stroke-linejoin:round;stroke-miterlimit:10;}
	.st24{fill:#151515;stroke:#FFFFFF;stroke-width:2;stroke-linecap:round;stroke-linejoin:round;stroke-miterlimit:10;}
	.st25{fill:none;stroke:#000000;stroke-width:2;stroke-linecap:round;stroke-linejoin:round;stroke-miterlimit:10;}
	.st26{stroke:#000000;stroke-width:2;stroke-linecap:round;stroke-linejoin:round;stroke-miterlimit:10;}
	.st27{fill:none;stroke:#000000;stroke-width:3;stroke-linecap:round;stroke-linejoin:round;stroke-miterlimit:10;}
	.st28{fill:none;stroke:#000000;stroke-width:2;stroke-miterlimit:10;}
	.st29{fill:none;stroke:#000000;stroke-width:2;stroke-linecap:round;stroke-miterlimit:10;}
	.st30{fill:#FFFFFF;stroke:#000000;stroke-width:2;stroke-linecap:round;stroke-linejoin:round;stroke-miterlimit:10;}
	.st31{stroke:#000000;stroke-width:3;stroke-linecap:round;stroke-linejoin:round;stroke-miterlimit:10;}
	.st32{fill:none;stroke:#FFFFFF;stroke-width:4;stroke-linecap:round;stroke-linejoin:round;stroke-miterlimit:10;}
	.st33{fill:none;stroke:#000000;stroke-width:3;stroke-linecap:round;stroke-linejoin:round;}
	.st34{fill:none;stroke:#000000;stroke-width:3;stroke-linecap:round;stroke-linejoin:round;stroke-dasharray:0,5.25;}
	.st35{fill:#F2F2F2;stroke:#000000;stroke-width:2;stroke-linecap:round;stroke-linejoin:round;stroke-miterlimit:10;}
	.st36{fill:#1F63B5;}
	.st37{fill:none;stroke:#A7C0E4;stroke-width:5.000000e-02;stroke-miterlimit:10;}
	.st38{opacity:0.25;}
	.st39{fill:#0066CC;}
	.st40{fill:none;stroke:#000000;stroke-width:0.5;stroke-miterlimit:10;}
	.st41{clip-path:url(#SVGID_00000024686001679965806250000017753064313187106215_);}
	.st42{fill:none;stroke:#1E67CD;stroke-width:0.5;stroke-linecap:round;stroke-linejoin:round;}
	.st43{fill:none;stroke:#1E67CD;stroke-width:0.5;stroke-linecap:round;stroke-linejoin:round;stroke-dasharray:0,1.002;}
	.st44{fill:none;stroke:#1E67CD;stroke-width:0.5;stroke-linecap:round;stroke-miterlimit:10;}
	.st45{fill:none;stroke:#1E67CD;stroke-width:0.5;stroke-linecap:round;stroke-miterlimit:10;stroke-dasharray:0,1.002;}
	.st46{fill:none;stroke:#1E67CD;stroke-miterlimit:10;}
	.st47{fill:#8F0000;}
	.st48{clip-path:url(#SVGID_00000142859596160788434230000018172844492569337773_);}
	.st49{clip-path:url(#SVGID_00000036959737764546814370000012624210106960533936_);}
	.st50{fill:#FFFFFF;stroke:#FFFFFF;stroke-width:5.000000e-02;stroke-miterlimit:10;}
	.st51{fill:none;stroke:#FFFFFF;stroke-width:0.2;stroke-linecap:round;stroke-linejoin:round;stroke-miterlimit:10;}
	.st52{opacity:0.5;fill:#1E67CD;}
	.st53{fill:#151515;stroke:#1E67CD;stroke-miterlimit:10;}
	.st54{fill:#151515;stroke:#316DC1;stroke-width:0.25;stroke-miterlimit:10;}
	.st55{fill:none;stroke:#FFFFFF;stroke-width:0.45;stroke-linecap:round;stroke-linejoin:round;stroke-miterlimit:10;}
	.st56{fill:#27579A;}
	.st57{fill:#C65E2B;}
	.st58{fill:#4E745C;}
	.st59{fill:#F7823C;}
</style>
<g>
	<rect class="st16" width="555" height="288"/>
	<rect x="43.9" y="36.6" class="st17" width="467.3" height="214.7"/>
	<g>
		<path d="M97.5,86L97.5,86c-0.6,0-1-0.4-1-1v-9c0-0.6,0.4-1,1-1l0,0c0.6,0,1,0.4,1,1v9C98.5,85.6,98.1,86,97.5,86z"/>
		<circle cx="97.5" cy="91" r="1.5"/>
		<path d="M97.5,101c-9.4,0-17-7.6-17-17s7.6-17,17-17s17,7.6,17,17S106.9,101,97.5,101z M97.5,69c-8.3,0-15,6.7-15,15
			c0,8.3,6.7,15,15,15s15-6.7,15-15C112.5,75.7,105.8,69,97.5,69z"/>
	</g>
	<g>
		<path d="M157.5,89L157.5,89c-0.6,0-1-0.4-1-1v-8c0-0.6,0.4-1,1-1l0,0c0.6,0,1,0.4,1,1v8C158.5,88.5,158.1,89,157.5,89z"/>
		<circle cx="157.5" cy="93" r="1.5"/>
		<path d="M174.2,100h-33.3c-0.4,0-0.7-0.2-0.9-0.5c-0.2-0.3-0.2-0.7,0-1l16.7-30c0.4-0.6,1.4-0.6,1.7,0l16.7,30
			c0.2,0.3,0.2,0.7,0,1C174.8,99.8,174.5,100,174.2,100z M142.5,98h29.9l-15-26.9L142.5,98z"/>
	</g>
	<g>
		<path d="M224.5,85h-14c-0.6,0-1-0.4-1-1l0,0c0-0.6,0.4-1,1-1h14c0.6,0,1,0.4,1,1l0,0C225.5,84.6,225.1,85,224.5,85z"/>
		<path d="M216.5,91V77c0-0.6,0.4-1,1-1l0,0c0.6,0,1,0.4,1,1v14c0,0.6-0.4,1-1,1l0,0C216.9,92,216.5,91.6,216.5,91z"/>
		<path d="M217.5,101c-9.4,0-17-7.6-17-17s7.6-17,17-17s17,7.6,17,17S226.9,101,217.5,101z M217.5,69c-8.3,0-15,6.7-15,15
			c0,8.3,6.7,15,15,15s15-6.7,15-15C232.5,75.7,225.8,69,217.5,69z"/>
	</g>
	<g>
		<path d="M292.5,100h-30c-0.6,0-1-0.4-1-1V69c0-0.6,0.4-1,1-1h11c0.6,0,1,0.4,1,1s-0.4,1-1,1h-10v28h28V88c0-0.6,0.4-1,1-1
			s1,0.4,1,1v11C293.5,99.6,293.1,100,292.5,100z"/>
		<path d="M292.5,82c-0.6,0-1-0.4-1-1V70h-11c-0.6,0-1-0.4-1-1s0.4-1,1-1h12c0.6,0,1,0.4,1,1v12C293.5,81.6,293.1,82,292.5,82z"/>
		<path d="M275.5,87c-0.3,0-0.5-0.1-0.7-0.3c-0.4-0.4-0.4-1,0-1.4l17-17c0.4-0.4,1-0.4,1.4,0s0.4,1,0,1.4l-17,17
			C276,86.9,275.8,87,275.5,87z"/>
	</g>
	<g>
		<rect x="322.5" y="87.5" class="st25" width="30" height="12"/>
		<line class="st25" x1="337.5" y1="68.5" x2="337.5" y2="83.5"/>
		<polyline class="st25" points="343.5,77.5 337.5,83.5 331.5,77.5 		"/>
		<line class="st27" x1="345.5" y1="93.5" x2="345.5" y2="93.5"/>
		<line class="st25" x1="328.5" y1="93.5" x2="335.5" y2="93.5"/>
	</g>
	<g>
		<polyline class="st25" points="382.5,78 391.5,78 391.5,69 		"/>
		<polyline class="st25" points="403.5,69 403.5,78 412.5,78 		"/>
		<polyline class="st25" points="412.5,90 404.5,90 404.5,99 		"/>
		<polyline class="st25" points="391.5,99 391.5,90 382.5,90 		"/>
	</g>
	<g>
		<line class="st25" x1="472.5" y1="74" x2="448.5" y2="74"/>
		<line class="st27" x1="442.5" y1="74" x2="442.5" y2="74"/>
		<line class="st25" x1="472.5" y1="84" x2="448.5" y2="84"/>
		<line class="st27" x1="442.5" y1="84" x2="442.5" y2="84"/>
		<line class="st25" x1="472.5" y1="94" x2="448.5" y2="94"/>
		<line class="st27" x1="442.5" y1="94" x2="442.5" y2="94"/>
	</g>
	<g>
		<line class="st25" x1="99.4" y1="135" x2="95.6" y2="153"/>
		<polyline class="st25" points="105.6,137.1 112.5,144 105.6,151.1 		"/>
		<polyline class="st25" points="89.4,137.1 82.5,144 89.4,151.1 		"/>
	</g>
	<g>
		<path d="M153,152.8c0-0.1-0.1-0.2-0.1-0.3c-0.1-0.1-0.1-0.2-0.2-0.2c-0.1-0.1-0.1-0.1-0.2-0.2c-0.1-0.1-0.2-0.1-0.3-0.1
			c-0.1,0-0.2-0.1-0.3-0.1c-0.2,0-0.4,0-0.6,0c-0.1,0-0.2,0.1-0.3,0.1s-0.2,0.1-0.3,0.1c-0.1,0-0.2,0.1-0.2,0.2
			c-0.1,0.1-0.1,0.2-0.2,0.2c0,0.1-0.1,0.2-0.1,0.3c0,0.1-0.1,0.2-0.1,0.3c0,0.1,0,0.2,0,0.3c0,0.4,0.2,0.8,0.4,1.1
			c0.1,0.1,0.1,0.1,0.2,0.2c0.1,0.1,0.2,0.1,0.3,0.1s0.2,0.1,0.3,0.1c0.1,0,0.2,0,0.3,0c0.1,0,0.2,0,0.3,0c0.1,0,0.2,0,0.3-0.1
			c0.1,0,0.2-0.1,0.3-0.1c0.1,0,0.2-0.1,0.2-0.2c0.3-0.3,0.4-0.7,0.4-1.1c0-0.1,0-0.2,0-0.3C153.1,153,153.1,152.8,153,152.8z"/>
		<path d="M143.3,143.3c-0.1-0.8-0.9-1.3-1.7-1.2c-0.8,0.2-1.4,0.9-1.2,1.7c0.1,0.7,0.8,1.2,1.5,1.2c0.1,0,0.2,0,0.3,0
			C142.9,145,143.5,144.2,143.3,143.3L143.3,143.3z"/>
		<path d="M142.1,137.8c0.2,0.1,0.4,0.1,0.6,0.1c0.6,0,1.1-0.3,1.4-0.9c0.4-0.8,0-1.6-0.7-2c-0.8-0.4-1.6,0-2,0.7
			C141.1,136.6,141.4,137.5,142.1,137.8z"/>
		<path d="M161.4,133.8c0.4,0,0.8-0.2,1.1-0.5c0.5-0.6,0.5-1.6-0.2-2.1c-0.6-0.5-1.6-0.5-2.1,0.2c-0.5,0.6-0.5,1.6,0.2,2.1
			C160.7,133.7,161.1,133.8,161.4,133.8z"/>
		<path d="M156.2,129.7c0.1-0.8-0.5-1.5-1.4-1.6c-0.8-0.1-1.5,0.5-1.6,1.4c-0.1,0.8,0.5,1.5,1.4,1.6c0,0,0.1,0,0.1,0
			C155.5,131,156.2,130.5,156.2,129.7z"/>
		<path d="M144.1,149c-0.6,0.6-0.6,1.5,0,2.1c0.3,0.3,0.7,0.4,1.1,0.4c0.4,0,0.8-0.1,1.1-0.4c0.6-0.6,0.6-1.5,0-2.1
			C145.7,148.4,144.7,148.4,144.1,149z"/>
		<path d="M146.9,129.8c-0.7,0.4-1,1.3-0.5,2c0.3,0.5,0.8,0.8,1.3,0.8c0.3,0,0.5-0.1,0.8-0.2c0.7-0.4,1-1.3,0.5-2
			S147.6,129.4,146.9,129.8z"/>
		<path d="M165.3,140c0.4,0,0.8-0.2,1.1-0.4c0.3-0.3,0.4-0.7,0.4-1.1c0-0.4-0.2-0.8-0.4-1.1c-0.6-0.6-1.6-0.6-2.1,0
			c-0.3,0.3-0.4,0.7-0.4,1.1c0,0.4,0.2,0.8,0.4,1.1C164.5,139.8,164.9,140,165.3,140z"/>
		<path d="M164.7,142.5c-5,0-9,4-9,9s4,9,9,9s9-4,9-9S169.6,142.5,164.7,142.5z M164.7,158.5c-3.9,0-7-3.1-7-7s3.1-7,7-7s7,3.1,7,7
			S168.5,158.5,164.7,158.5z"/>
		<path d="M170.7,135.5c2.2,0,4-1.8,4-4s-1.8-4-4-4s-4,1.8-4,4S168.5,135.5,170.7,135.5z M170.7,129.5c1.1,0,2,0.9,2,2s-0.9,2-2,2
			s-2-0.9-2-2S169.6,129.5,170.7,129.5z"/>
	</g>
	<g>
		<polyline class="st25" points="221.5,136 207.5,136 207.5,151 		"/>
		<polyline class="st25" points="202.5,136 202.5,156 232.5,156 232.5,132 		"/>
		<line class="st25" x1="232.5" y1="132" x2="222.5" y2="132"/>
		<line class="st25" x1="222.5" y1="132" x2="221.6" y2="136"/>
	</g>
	<g>
		
			<rect x="264.7" y="138.5" transform="matrix(0.7071 -0.7071 0.7071 0.7071 -18.5455 239.2272)" class="st25" width="29.7" height="7.1"/>
		<line class="st25" x1="283.5" y1="133" x2="288.5" y2="138"/>
		<polyline class="st25" points="271.5,155 262.5,159 266.5,150 		"/>
		<line class="st26" x1="282.5" y1="139" x2="285" y2="141.5"/>
	</g>
	<g>
		<path d="M337.5,161c-9.4,0-17-7.6-17-17s7.6-17,17-17s17,7.6,17,17S346.9,161,337.5,161z M337.5,129c-8.3,0-15,6.7-15,15
			c0,8.3,6.7,15,15,15s15-6.7,15-15C352.5,135.7,345.8,129,337.5,129z"/>
		<circle cx="337.5" cy="151" r="1.5"/>
		<path class="st25" d="M333.5,140c0-2.5,2.3-4.5,4.9-3.9c1.4,0.3,2.6,1.5,2.9,2.9c0.4,1.8-0.4,3.5-1.8,4.3
			c-1.3,0.8-2.1,2.1-2.1,3.6l0,0"/>
	</g>
	<g>
		<path d="M412.5,145h-30c-0.6,0-1-0.4-1-1l0,0c0-0.6,0.4-1,1-1h30c0.6,0,1,0.4,1,1l0,0C413.5,144.6,413.1,145,412.5,145z"/>
		<path d="M412.5,145h-30c-0.6,0-1-0.4-1-1l0,0c0-0.6,0.4-1,1-1h30c0.6,0,1,0.4,1,1l0,0C413.5,144.6,413.1,145,412.5,145z"/>
		<path d="M396.5,159v-30c0-0.6,0.4-1,1-1l0,0c0.6,0,1,0.4,1,1v30c0,0.6-0.4,1-1,1l0,0C396.9,160,396.5,159.6,396.5,159z"/>
	</g>
	<g>
		<polyline class="st25" points="449.1,159 469.5,159 469.5,132.8 		"/>
		<polyline class="st25" points="445.5,134 445.5,155.2 465.5,155.2 465.5,129 450.5,129 445.5,134 		"/>
		<polyline class="st25" points="451.5,130 451.5,135 446.5,135 		"/>
	</g>
	<g>
		<polygon class="st25" points="97.5,213.9 87.5,219 89.6,208.1 81.5,200 92.6,198.9 97.5,189 102.4,198.9 113.5,200 105.4,208.1 
			107.5,219 		"/>
	</g>
	<g>
		<path class="st25" d="M145.3,213.2c-5.1-5.1-5.1-13.3,0-18.3"/>
		<path class="st25" d="M151.8,209.7c-3.1-3.1-3.1-8.2,0-11.3"/>
		<path class="st25" d="M163.5,209.7c3.1-3.1,3.1-8.2,0-11.3"/>
		<path class="st25" d="M169.7,213.2c5.1-5.1,5.1-13.3,0-18.3"/>
		<circle class="st31" cx="157.4" cy="203.5" r="0.9"/>
	</g>
	<g>
		<circle class="st25" cx="217.5" cy="195" r="4"/>
		<circle class="st25" cx="217.5" cy="208" r="9"/>
		<polyline class="st25" points="210.5,202 206.5,202 204.5,200 		"/>
		<polyline class="st25" points="210.5,214 206.5,214 204.5,216 		"/>
		<line class="st25" x1="208.5" y1="208" x2="202.5" y2="208"/>
		<polyline class="st25" points="224.5,202 228.5,202 230.5,200 		"/>
		<polyline class="st25" points="224.5,214 228.5,214 230.5,216 		"/>
		<line class="st25" x1="226.5" y1="208" x2="232.5" y2="208"/>
	</g>
	<g>
		<path class="st28" d="M267,216.5c2.7,2.2,6.2,3.5,10,3.5c8.8,0,16-7.2,16-16s-7.2-16-16-16c-6.7,0-12.5,4.1-14.8,10"/>
		<path class="st29" d="M264,194.7c0.3-0.4,0.6-0.8,1-1.2c0.2-0.2,0.4-0.4,0.6-0.6c0.2-0.2,0.4-0.4,0.6-0.6c0.2-0.2,0.4-0.4,0.6-0.5
			c0,0,0,0,0,0c0.4-0.3,0.9-0.7,1.3-1c0.6-0.4,1.3-0.8,2-1.2c0.2-0.1,0.3-0.2,0.5-0.2c0.2-0.1,0.4-0.2,0.6-0.3
			c0.2-0.1,0.4-0.1,0.5-0.2s0.4-0.1,0.6-0.2c0.2,0,0.3-0.1,0.5-0.1c0.2-0.1,0.4-0.1,0.6-0.1c0.2-0.1,0.5-0.1,0.7-0.1
			c0.1,0,0.1,0,0.2,0c0.3,0,0.5-0.1,0.8-0.1c0.2,0,0.4,0,0.6-0.1c0.4,0,0.8-0.1,1.2-0.1c8.8,0,16,7.2,16,16c0,4.1-1.5,7.8-4,10.6
			c-0.2,0.2-0.4,0.4-0.6,0.6c-0.2,0.2-0.4,0.4-0.6,0.6c-0.2,0.2-0.4,0.4-0.6,0.5c0,0,0,0,0,0c-0.4,0.3-0.9,0.7-1.3,1
			c-0.6,0.4-1.3,0.8-2,1.2c-0.2,0.1-0.3,0.2-0.5,0.2c-0.2,0.1-0.4,0.2-0.6,0.3c-0.2,0.1-0.4,0.1-0.5,0.2s-0.4,0.1-0.6,0.2
			c-0.2,0-0.3,0.1-0.5,0.1c-0.2,0.1-0.4,0.1-0.6,0.1c-0.2,0.1-0.5,0.1-0.7,0.1c-0.1,0-0.1,0-0.2,0c-0.3,0-0.5,0.1-0.8,0.1
			c-0.2,0-0.4,0-0.6,0.1c-0.4,0-0.8,0.1-1.2,0.1c-3.8,0-7.3-1.3-10-3.5"/>
		<line class="st25" x1="262" y1="198" x2="272" y2="198"/>
		<line class="st25" x1="262" y1="188" x2="262" y2="198"/>
	</g>
	<g>
		<rect x="328.5" y="189" class="st25" width="6" height="6"/>
		<rect x="328.5" y="201" class="st25" width="6" height="6"/>
		<rect x="328.5" y="213" class="st25" width="6" height="6"/>
		<rect x="340.5" y="189" class="st25" width="6" height="6"/>
		<rect x="340.5" y="201" class="st25" width="6" height="6"/>
		<rect x="340.5" y="213" class="st25" width="6" height="6"/>
	</g>
	<g>
		<path class="st25" d="M395.5,219h4c1.1,0,2-0.9,2-2v-12l11-11v-5h-30v5l11,11v12C393.5,218.1,394.4,219,395.5,219z"/>
	</g>
	<g>
		<circle class="st28" cx="457.5" cy="204" r="16"/>
		<polyline class="st29" points="457.5,194 457.5,204 464.5,211 		"/>
	</g>
</g>
</svg>
