<?xml version="1.0" encoding="utf-8"?>
<!-- Generator: Adobe Illustrator 27.6.1, SVG Export Plug-In . SVG Version: 6.00 Build 0)  -->
<svg version="1.1" id="Layer_1" xmlns="http://www.w3.org/2000/svg" xmlns:xlink="http://www.w3.org/1999/xlink" x="0px" y="0px"
	 viewBox="0 0 262 180" style="enable-background:new 0 0 262 180;" xml:space="preserve">
<style type="text/css">
	.st0{fill:#F3F3F3;}
	.st1{fill:#EE0000;}
	.st2{fill:#E0E0E0;}
	.st3{fill:#FFFFFF;}
	.st4{fill:#79C4C6;}
	.st5{fill:#316DC1;}
	.st6{fill:#4D4D4D;}
	.st7{fill:#ED0000;}
	.st8{fill:#DFDFDF;}
	.st9{fill:none;stroke:#FF0000;stroke-width:1.25;stroke-linecap:round;stroke-linejoin:round;stroke-miterlimit:10;}
	.st10{fill:none;}
	.st11{fill:#689B7A;}
	.st12{fill:#ED1C24;}
	.st13{fill:#383838;}
	.st14{clip-path:url(#SVGID_00000145773147036812176480000001781521782305626557_);}
	.st15{clip-path:url(#SVGID_00000090252530941100072130000018320962817125080751_);}
	.st16{fill:#151515;}
	.st17{fill:#F2F2F2;}
	.st18{fill:none;stroke:#1E67CD;stroke-width:0.75;stroke-miterlimit:10;}
	.st19{fill:#1E67CD;}
	.st20{fill:#707070;}
	.st21{fill:none;stroke:#FFFFFF;stroke-width:1.25;stroke-linecap:round;stroke-linejoin:round;stroke-miterlimit:10;}
	.st22{fill:none;stroke:#FFFFFF;stroke-width:2;stroke-linecap:round;stroke-linejoin:round;stroke-miterlimit:10;}
	.st23{fill:none;stroke:#FFFFFF;stroke-width:3;stroke-linecap:round;stroke-linejoin:round;stroke-miterlimit:10;}
	.st24{fill:#151515;stroke:#FFFFFF;stroke-width:2;stroke-linecap:round;stroke-linejoin:round;stroke-miterlimit:10;}
	.st25{fill:none;stroke:#000000;stroke-width:2;stroke-linecap:round;stroke-linejoin:round;stroke-miterlimit:10;}
	.st26{stroke:#000000;stroke-width:2;stroke-linecap:round;stroke-linejoin:round;stroke-miterlimit:10;}
	.st27{fill:none;stroke:#000000;stroke-width:3;stroke-linecap:round;stroke-linejoin:round;stroke-miterlimit:10;}
	.st28{fill:none;stroke:#000000;stroke-width:2;stroke-miterlimit:10;}
	.st29{fill:none;stroke:#000000;stroke-width:2;stroke-linecap:round;stroke-miterlimit:10;}
	.st30{fill:#FFFFFF;stroke:#000000;stroke-width:2;stroke-linecap:round;stroke-linejoin:round;stroke-miterlimit:10;}
	.st31{stroke:#000000;stroke-width:3;stroke-linecap:round;stroke-linejoin:round;stroke-miterlimit:10;}
	.st32{fill:none;stroke:#FFFFFF;stroke-width:4;stroke-linecap:round;stroke-linejoin:round;stroke-miterlimit:10;}
	.st33{fill:none;stroke:#000000;stroke-width:3;stroke-linecap:round;stroke-linejoin:round;}
	.st34{fill:none;stroke:#000000;stroke-width:3;stroke-linecap:round;stroke-linejoin:round;stroke-dasharray:0,5.25;}
	.st35{fill:#F2F2F2;stroke:#000000;stroke-width:2;stroke-linecap:round;stroke-linejoin:round;stroke-miterlimit:10;}
	.st36{fill:#1F63B5;}
	.st37{fill:none;stroke:#A7C0E4;stroke-width:5.000000e-02;stroke-miterlimit:10;}
	.st38{opacity:0.25;}
	.st39{fill:#0066CC;}
	.st40{fill:none;stroke:#000000;stroke-width:0.5;stroke-miterlimit:10;}
	.st41{clip-path:url(#SVGID_00000109752048254993757010000006543693366831163812_);}
	.st42{fill:none;stroke:#1E67CD;stroke-width:0.5;stroke-linecap:round;stroke-linejoin:round;}
	.st43{fill:none;stroke:#1E67CD;stroke-width:0.5;stroke-linecap:round;stroke-linejoin:round;stroke-dasharray:0,1.002;}
	.st44{fill:none;stroke:#1E67CD;stroke-width:0.5;stroke-linecap:round;stroke-miterlimit:10;}
	.st45{fill:none;stroke:#1E67CD;stroke-width:0.5;stroke-linecap:round;stroke-miterlimit:10;stroke-dasharray:0,1.002;}
	.st46{fill:none;stroke:#1E67CD;stroke-miterlimit:10;}
	.st47{fill:#8F0000;}
	.st48{clip-path:url(#SVGID_00000083786938390109110440000001232015817610501767_);}
	.st49{clip-path:url(#SVGID_00000031925345571573955960000008370942746191747261_);}
	.st50{fill:#FFFFFF;stroke:#FFFFFF;stroke-width:5.000000e-02;stroke-miterlimit:10;}
	.st51{fill:none;stroke:#FFFFFF;stroke-width:0.2;stroke-linecap:round;stroke-linejoin:round;stroke-miterlimit:10;}
	.st52{opacity:0.5;fill:#1E67CD;}
	.st53{fill:#151515;stroke:#1E67CD;stroke-miterlimit:10;}
	.st54{fill:#151515;stroke:#316DC1;stroke-width:0.25;stroke-miterlimit:10;}
	.st55{fill:none;stroke:#FFFFFF;stroke-width:0.45;stroke-linecap:round;stroke-linejoin:round;stroke-miterlimit:10;}
	.st56{fill:#27579A;}
	.st57{fill:#C65E2B;}
	.st58{fill:#4E745C;}
	.st59{fill:#F7823C;}
</style>
<g>
	<rect class="st16" width="262" height="180"/>
	<g>
		<g>
			<path class="st13" d="M128.5,101.6c-0.3,0-0.6-0.1-0.9-0.2c-1.7-0.8-3.3-1.9-4.7-3.3c-6.6-6.6-6.6-17.4,0-24l13.3-13.3
				c6.6-6.6,17.4-6.6,24,0c3.2,3.2,5,7.5,5,12c0,4.5-1.8,8.8-5,12l-7.9,7.9c-0.8,0.8-2.1,0.8-2.8,0c-0.8-0.8-0.8-2.1,0-2.8l7.9-7.9
				c2.5-2.5,3.8-5.7,3.8-9.2c0-3.5-1.3-6.7-3.8-9.2c-5.1-5.1-13.3-5.1-18.4,0l-13.3,13.3c-5.1,5.1-5.1,13.3,0,18.4
				c1.1,1,2.3,1.9,3.6,2.5c1,0.5,1.4,1.7,0.9,2.7C130,101.1,129.3,101.6,128.5,101.6z"/>
		</g>
		<g>
			<path class="st13" d="M113.8,124.2c-4.5,0-8.8-1.8-12-5c-6.6-6.6-6.6-17.4,0-24l7.9-8c0.8-0.8,2.1-0.8,2.8,0
				c0.8,0.8,0.8,2.1,0,2.8l-7.9,8c-5.1,5.1-5.1,13.3,0,18.4c2.5,2.5,5.7,3.8,9.2,3.8c3.5,0,6.7-1.4,9.2-3.8l13.3-13.2
				c5.1-5.1,5.1-13.3,0-18.4c-1.1-1.1-2.3-1.9-3.6-2.5c-1-0.5-1.4-1.7-0.9-2.7c0.5-1,1.7-1.4,2.7-0.9c1.7,0.8,3.3,1.9,4.7,3.3
				c6.6,6.6,6.6,17.4,0,24l-13.3,13.2C122.6,122.5,118.3,124.2,113.8,124.2z"/>
		</g>
	</g>
</g>
</svg>
