<?xml version="1.0" encoding="utf-8"?>
<!-- Generator: Adobe Illustrator 27.6.1, SVG Export Plug-In . SVG Version: 6.00 Build 0)  -->
<svg version="1.1" id="Layer_1" xmlns="http://www.w3.org/2000/svg" xmlns:xlink="http://www.w3.org/1999/xlink" x="0px" y="0px"
	 viewBox="0 0 360 208" style="enable-background:new 0 0 360 208;" xml:space="preserve">
<style type="text/css">
	.st0{fill:#F3F3F3;}
	.st1{fill:#EE0000;}
	.st2{fill:#E0E0E0;}
	.st3{fill:#FFFFFF;}
	.st4{fill:#79C4C6;}
	.st5{fill:#316DC1;}
	.st6{fill:#4D4D4D;}
	.st7{fill:#ED0000;}
	.st8{fill:#DFDFDF;}
	.st9{fill:none;stroke:#FF0000;stroke-width:1.25;stroke-linecap:round;stroke-linejoin:round;stroke-miterlimit:10;}
	.st10{fill:none;}
	.st11{fill:#689B7A;}
	.st12{fill:#ED1C24;}
	.st13{fill:#383838;}
	.st14{clip-path:url(#SVGID_00000039856577932229380780000011794221571577041567_);}
	.st15{clip-path:url(#SVGID_00000080896226033746966860000015575876905248090517_);}
	.st16{fill:#151515;}
	.st17{fill:#F2F2F2;}
	.st18{fill:none;stroke:#1E67CD;stroke-width:0.75;stroke-miterlimit:10;}
	.st19{fill:#1E67CD;}
	.st20{fill:#707070;}
	.st21{fill:none;stroke:#FFFFFF;stroke-width:1.25;stroke-linecap:round;stroke-linejoin:round;stroke-miterlimit:10;}
	.st22{fill:none;stroke:#FFFFFF;stroke-width:2;stroke-linecap:round;stroke-linejoin:round;stroke-miterlimit:10;}
	.st23{fill:none;stroke:#FFFFFF;stroke-width:3;stroke-linecap:round;stroke-linejoin:round;stroke-miterlimit:10;}
	.st24{fill:#151515;stroke:#FFFFFF;stroke-width:2;stroke-linecap:round;stroke-linejoin:round;stroke-miterlimit:10;}
	.st25{fill:none;stroke:#000000;stroke-width:2;stroke-linecap:round;stroke-linejoin:round;stroke-miterlimit:10;}
	.st26{stroke:#000000;stroke-width:2;stroke-linecap:round;stroke-linejoin:round;stroke-miterlimit:10;}
	.st27{fill:none;stroke:#000000;stroke-width:3;stroke-linecap:round;stroke-linejoin:round;stroke-miterlimit:10;}
	.st28{fill:none;stroke:#000000;stroke-width:2;stroke-miterlimit:10;}
	.st29{fill:none;stroke:#000000;stroke-width:2;stroke-linecap:round;stroke-miterlimit:10;}
	.st30{fill:#FFFFFF;stroke:#000000;stroke-width:2;stroke-linecap:round;stroke-linejoin:round;stroke-miterlimit:10;}
	.st31{stroke:#000000;stroke-width:3;stroke-linecap:round;stroke-linejoin:round;stroke-miterlimit:10;}
	.st32{fill:none;stroke:#FFFFFF;stroke-width:4;stroke-linecap:round;stroke-linejoin:round;stroke-miterlimit:10;}
	.st33{fill:none;stroke:#000000;stroke-width:3;stroke-linecap:round;stroke-linejoin:round;}
	.st34{fill:none;stroke:#000000;stroke-width:3;stroke-linecap:round;stroke-linejoin:round;stroke-dasharray:0,5.25;}
	.st35{fill:#F2F2F2;stroke:#000000;stroke-width:2;stroke-linecap:round;stroke-linejoin:round;stroke-miterlimit:10;}
	.st36{fill:#1F63B5;}
	.st37{fill:none;stroke:#A7C0E4;stroke-width:5.000000e-02;stroke-miterlimit:10;}
	.st38{opacity:0.25;}
	.st39{fill:#0066CC;}
	.st40{fill:none;stroke:#000000;stroke-width:0.5;stroke-miterlimit:10;}
	.st41{clip-path:url(#SVGID_00000057113131516162578210000002226577445060268732_);}
	.st42{fill:none;stroke:#1E67CD;stroke-width:0.5;stroke-linecap:round;stroke-linejoin:round;}
	.st43{fill:none;stroke:#1E67CD;stroke-width:0.5;stroke-linecap:round;stroke-linejoin:round;stroke-dasharray:0,1.002;}
	.st44{fill:none;stroke:#1E67CD;stroke-width:0.5;stroke-linecap:round;stroke-miterlimit:10;}
	.st45{fill:none;stroke:#1E67CD;stroke-width:0.5;stroke-linecap:round;stroke-miterlimit:10;stroke-dasharray:0,1.002;}
	.st46{fill:none;stroke:#1E67CD;stroke-miterlimit:10;}
	.st47{fill:#8F0000;}
	.st48{clip-path:url(#SVGID_00000176025865200063222090000004997710315964125072_);}
	.st49{clip-path:url(#SVGID_00000164507042601392062630000004399047079920905885_);}
	.st50{fill:#FFFFFF;stroke:#FFFFFF;stroke-width:5.000000e-02;stroke-miterlimit:10;}
	.st51{fill:none;stroke:#FFFFFF;stroke-width:0.2;stroke-linecap:round;stroke-linejoin:round;stroke-miterlimit:10;}
	.st52{opacity:0.5;fill:#1E67CD;}
	.st53{fill:#151515;stroke:#1E67CD;stroke-miterlimit:10;}
	.st54{fill:#151515;stroke:#316DC1;stroke-width:0.25;stroke-miterlimit:10;}
	.st55{fill:none;stroke:#FFFFFF;stroke-width:0.45;stroke-linecap:round;stroke-linejoin:round;stroke-miterlimit:10;}
	.st56{fill:#27579A;}
	.st57{fill:#C65E2B;}
	.st58{fill:#4E745C;}
	.st59{fill:#F7823C;}
</style>
<rect y="0" class="st16" width="180" height="208"/>
<rect x="180" class="st17" width="180" height="208"/>
<g>
	<path class="st5" d="M98.3,105.2H81.7c-0.7,0-1.2-0.5-1.2-1.2l0,0c0-0.7,0.5-1.2,1.2-1.2h16.7c0.7,0,1.2,0.5,1.2,1.2l0,0
		C99.5,104.7,99,105.2,98.3,105.2z"/>
	<path class="st5" d="M88.8,112.3V95.7c0-0.7,0.5-1.2,1.2-1.2l0,0c0.7,0,1.2,0.5,1.2,1.2v16.7c0,0.7-0.5,1.2-1.2,1.2l0,0
		C89.3,113.5,88.8,113,88.8,112.3z"/>
	<path class="st5" d="M90,124.3c-11.2,0-20.3-9.1-20.3-20.3S78.8,83.7,90,83.7s20.3,9.1,20.3,20.3S101.2,124.3,90,124.3z M90,86.1
		c-9.9,0-17.9,8-17.9,17.9c0,9.9,8,17.9,17.9,17.9s17.9-8,17.9-17.9C107.9,94.1,99.9,86.1,90,86.1z"/>
</g>
<g>
	<path class="st59" d="M90,49.9L90,49.9c-0.7,0-1.2-0.5-1.2-1.2V37.9c0-0.7,0.5-1.2,1.2-1.2l0,0c0.7,0,1.2,0.5,1.2,1.2v10.7
		C91.2,49.3,90.7,49.9,90,49.9z"/>
	<circle class="st59" cx="90" cy="55.8" r="1.8"/>
	<path class="st59" d="M90,67.7c-11.2,0-20.3-9.1-20.3-20.3S78.8,27.2,90,27.2s20.3,9.1,20.3,20.3S101.2,67.7,90,67.7z M90,29.6
		c-9.9,0-17.9,8-17.9,17.9c0,9.9,8,17.9,17.9,17.9s17.9-8,17.9-17.9C107.9,37.6,99.9,29.6,90,29.6z"/>
</g>
<g>
	<path class="st11" d="M90,180.8c-11.2,0-20.3-9.1-20.3-20.3c0-11.2,9.1-20.3,20.3-20.3s20.3,9.1,20.3,20.3
		C110.3,171.7,101.2,180.8,90,180.8z M90,142.6c-9.9,0-17.9,8-17.9,17.9c0,9.9,8,17.9,17.9,17.9s17.9-8,17.9-17.9
		C107.9,150.7,99.9,142.6,90,142.6z"/>
	<path class="st11" d="M87.6,167.7c-0.3,0-0.6-0.1-0.8-0.3l-7.2-7.2c-0.5-0.5-0.5-1.2,0-1.7c0.5-0.5,1.2-0.5,1.7,0l6.3,6.3
		l11.1-11.1c0.5-0.5,1.2-0.5,1.7,0c0.5,0.5,0.5,1.2,0,1.7l-11.9,11.9C88.2,167.6,87.9,167.7,87.6,167.7z"/>
</g>
<g>
	<g>
		<path class="st56" d="M278.3,105.2h-16.7c-0.7,0-1.2-0.5-1.2-1.2l0,0c0-0.7,0.5-1.2,1.2-1.2h16.7c0.7,0,1.2,0.5,1.2,1.2l0,0
			C279.5,104.7,279,105.2,278.3,105.2z"/>
		<path class="st56" d="M268.8,112.3V95.7c0-0.7,0.5-1.2,1.2-1.2l0,0c0.7,0,1.2,0.5,1.2,1.2v16.7c0,0.7-0.5,1.2-1.2,1.2l0,0
			C269.3,113.5,268.8,113,268.8,112.3z"/>
		<path class="st56" d="M270,124.3c-11.2,0-20.3-9.1-20.3-20.3s9.1-20.3,20.3-20.3s20.3,9.1,20.3,20.3S281.2,124.3,270,124.3z
			 M270,86.1c-9.9,0-17.9,8-17.9,17.9c0,9.9,8,17.9,17.9,17.9s17.9-8,17.9-17.9C287.9,94.1,279.9,86.1,270,86.1z"/>
	</g>
	<g>
		<path class="st57" d="M270,49.9L270,49.9c-0.7,0-1.2-0.5-1.2-1.2V37.9c0-0.7,0.5-1.2,1.2-1.2l0,0c0.7,0,1.2,0.5,1.2,1.2v10.7
			C271.2,49.3,270.7,49.9,270,49.9z"/>
		<circle class="st57" cx="270" cy="55.8" r="1.8"/>
		<path class="st57" d="M270,67.7c-11.2,0-20.3-9.1-20.3-20.3s9.1-20.3,20.3-20.3s20.3,9.1,20.3,20.3S281.2,67.7,270,67.7z
			 M270,29.6c-9.9,0-17.9,8-17.9,17.9c0,9.9,8,17.9,17.9,17.9s17.9-8,17.9-17.9C287.9,37.6,279.9,29.6,270,29.6z"/>
	</g>
	<g>
		<path class="st58" d="M270,180.8c-11.2,0-20.3-9.1-20.3-20.3c0-11.2,9.1-20.3,20.3-20.3s20.3,9.1,20.3,20.3
			C290.3,171.7,281.2,180.8,270,180.8z M270,142.6c-9.9,0-17.9,8-17.9,17.9c0,9.9,8,17.9,17.9,17.9s17.9-8,17.9-17.9
			C287.9,150.7,279.9,142.6,270,142.6z"/>
		<path class="st58" d="M267.6,167.7c-0.3,0-0.6-0.1-0.8-0.3l-7.2-7.2c-0.5-0.5-0.5-1.2,0-1.7c0.5-0.5,1.2-0.5,1.7,0l6.3,6.3
			l11.1-11.1c0.5-0.5,1.2-0.5,1.7,0c0.5,0.5,0.5,1.2,0,1.7l-11.9,11.9C268.2,167.6,267.9,167.7,267.6,167.7z"/>
	</g>
</g>
</svg>
