<svg id="a6e3e78c-a8bd-4166-97b7-10edd85023be" data-name="Layer 1" xmlns="http://www.w3.org/2000/svg" xmlns:xlink="http://www.w3.org/1999/xlink" viewBox="0 0 555 288"><defs><style>.bb34c523-d542-4495-a7c1-b13e1b8017cc{fill:#fff;}.a91072f7-e493-4714-bbf0-063ed8091400{fill:none;}.b5c94072-1041-4de8-9469-280dc3158a40{fill:#261a4c;}.e064ca17-fcb9-4667-b271-ea06a31126df{fill:#1d4174;}.b830877a-ad8b-4f1a-bab0-c3b500eb0c1a{mask:url(#f0d73fcb-f6d0-4ec7-b5fb-444d438a0092);}.f2af9471-eff7-412c-a0af-bcb6fe1deb1e{fill:#e8e4f6;}.a1eff47e-8429-4ad2-9917-a48e671cb02f{clip-path:url(#e724b80e-a618-4673-ad8a-8ee1774372cf);}.e2b1c1fe-a893-44e1-91fb-075abd5c394e{mask:url(#a5c1aab2-cfb6-4d1f-bbc6-5bf8d5bef79d);}.fc566caa-9969-4eab-8713-e9bc4ae1e1b1{fill:#8c77d1;}.b16e7a39-f3b3-4c7f-a647-964c30251209{fill:#dbf0f7;}.bc952360-bbcf-4ace-b291-8fd804957429{clip-path:url(#be0d35b9-4ce2-4c46-93af-f5eba8d9d98e);}.acd89d2c-c7b4-4163-9889-0c4c658532f5{fill:#93d3e6;}.ae42d9f3-5d03-435c-9fa0-be0b8048c4ec{fill:#4cb6d6;}.ec175874-ccdf-434d-8d61-0fae49a57d22{fill:#a7c0e4;}.b7b02292-aa5c-4356-ac86-124b95217498{fill:#6c97d3;}.ffa3e256-6587-4a26-88ff-9b91384043b4{fill:#e00;}.faa24c48-ddf7-4735-a81a-7aa33091a3cb{fill:#f56d6d;}.aa7c2fb4-e03e-4bc1-a3f9-e35d5a512f90{clip-path:url(#ac234a6f-c216-49cb-abfa-e09cefea4444);}.ad9ccdf6-f48e-4a1b-9443-666f72989f60{fill:#be0000;}.a0da2a72-0293-4e2b-83e9-343bad001b82{fill:#142c4d;}.e08f80e4-86bb-42dc-8cea-7eeb42f0b4e8{fill:#baade3;}.e4e701dd-528a-45a3-9216-8682bf6e54a2{clip-path:url(#a764b43d-fbd2-4f39-ae85-098a3cdf1b50);}.b84da302-91f1-40e0-8de0-f84e407403fa{fill:#2e2e2e;}.b9bed744-5186-4485-a9fa-163f1f9aeaa8{fill:#316dc1;}.b279daab-e093-4543-bc71-d7a4e0972864{clip-path:url(#a4f59ab1-a734-4e43-97b6-be4a596a27f8);}.b33cfbf7-9916-480c-a7c0-aadd1c9ffc71{clip-path:url(#e6aaf6d3-875a-404f-84f0-4ac9af043ab4);}.aa9a01d0-a8ec-4014-aa70-278ae8946515{clip-path:url(#a2b32e23-2c9e-4061-b0a8-36062960384f);}.f64762b6-021b-4116-bc99-7749b46d58e3{clip-path:url(#be976bed-63de-48a2-89bf-2e941124e4f5);}</style><mask id="f0d73fcb-f6d0-4ec7-b5fb-444d438a0092" x="148.93" y="33.09" width="126.87" height="96.7" maskUnits="userSpaceOnUse"><rect class="bb34c523-d542-4495-a7c1-b13e1b8017cc" x="149.51" y="33.67" width="125.71" height="95.54"/><path d="M274.64,34.25v94.39H150.09V34.25H274.64m1.16-1.16H148.93v96.7H275.8V33.09Z"/><rect x="160.74" y="35.63" width="114.39" height="81.89"/></mask><clipPath id="e724b80e-a618-4673-ad8a-8ee1774372cf"><path id="f7cd382c-fa2a-434c-bc86-80468a896012" data-name="SVGID" class="a91072f7-e493-4714-bbf0-063ed8091400" d="M292.46,217.5s-9.34,7.89-24.14,3S253.4,202,253.4,202s-15.13-.56-22.06-13.1c-6.07-11-.08-24.18-.08-24.18a20.45,20.45,0,0,1-12.58-10.91,21.45,21.45,0,0,1-.33-17.36s-9.62-8.94-5.81-20.37,13-13.46,13-13.46a35.42,35.42,0,0,1,10.57-22c9.24-8.84,24.26-6.84,24.26-6.84s1.79-12.91,14-14.94,18,6.48,18,6.48Z"/></clipPath><mask id="a5c1aab2-cfb6-4d1f-bbc6-5bf8d5bef79d" x="148.93" y="33.09" width="126.87" height="96.7" maskUnits="userSpaceOnUse"><rect class="bb34c523-d542-4495-a7c1-b13e1b8017cc" x="149.51" y="33.67" width="125.71" height="95.54"/><path d="M274.64,34.25v94.39H150.09V34.25H274.64m1.16-1.16H148.93v96.7H275.8V33.09Z"/><rect x="151.94" y="35.63" width="114.39" height="81.89"/></mask><clipPath id="be0d35b9-4ce2-4c46-93af-f5eba8d9d98e"><rect id="b1fab795-749a-4181-900a-7c0baa7130d5" data-name="SVGID" class="a91072f7-e493-4714-bbf0-063ed8091400" x="159.19" y="37.66" width="114.39" height="81.36"/></clipPath><clipPath id="ac234a6f-c216-49cb-abfa-e09cefea4444"><path id="ba812344-846b-4c91-a47b-e2f824612aea" data-name="SVGID" class="a91072f7-e493-4714-bbf0-063ed8091400" d="M165.3,234.82s-3.78,3.82-6,2.89a7.28,7.28,0,0,0,1.41,6c2.27,3,4.23,2.87,4.23,2.87a4.72,4.72,0,0,1,.74-4.06,15.58,15.58,0,0,1,3.24-3.36Z"/></clipPath><clipPath id="a764b43d-fbd2-4f39-ae85-098a3cdf1b50"><path id="aaab56db-614d-4292-9167-d33bf49af5ce" data-name="SVGID" class="a91072f7-e493-4714-bbf0-063ed8091400" d="M186.93,243.15s-.51,5.47-3.14,6.2a8.17,8.17,0,0,0,5.59,3.83c4.17.9,5.76-.49,5.76-.49a4.85,4.85,0,0,1-2.3-3.68,14.34,14.34,0,0,1,.36-4.75Z"/></clipPath><clipPath id="a4f59ab1-a734-4e43-97b6-be4a596a27f8"><path id="e17ec00b-e8bb-472c-a750-8d72affb8469" data-name="SVGID" class="a91072f7-e493-4714-bbf0-063ed8091400" d="M210.54,83.19s-.46-4.7-1.83-6.52a12,12,0,0,0-12.51-4.12c-6.86,1.62-7.18,8.46-6.7,11.8a19,19,0,0,1-.79,8c-.43,1.27-1.6,12-1.6,12l4.55,1.8v0s4.25,11.55,5,4.23c.73-6.8,4.72-13.12,6.91-13.4,1,.45,2,.84,2.83.34,1.23-.73,1.15-1.9,2.56-4.23a7.9,7.9,0,0,0,1.36-3.31,6.44,6.44,0,0,0-.47-3.72C209.58,85.29,210.67,84.25,210.54,83.19Z"/></clipPath><clipPath id="e6aaf6d3-875a-404f-84f0-4ac9af043ab4"><path id="a938a90d-6d14-4451-b016-2476530bf42f" data-name="SVGID" class="a91072f7-e493-4714-bbf0-063ed8091400" d="M184.68,128.88c.71,2.66,1.68,5.94,2.11,8.68a24.32,24.32,0,0,1-.48,8.07s2,.59,9.72.59,10.12-.64,10.12-.64.1-5.23-.2-8.64-.84-7.69-.59-9.42,2-4.1,1.48-7.26-3.46-5-4.35-7-3.85-8.44-7.79-8.53-9.24.43-12.11,7c-2,4.58-.67,7.1.73,12.33.35,1.33.76,2.65,1.13,4C184.53,128.33,184.6,128.61,184.68,128.88Z"/></clipPath><clipPath id="a2b32e23-2c9e-4061-b0a8-36062960384f"><path id="ba495882-e07e-43d0-b846-05e43500bd0d" data-name="SVGID" class="a91072f7-e493-4714-bbf0-063ed8091400" d="M186.66,143.24c-.14,2.3-3.91,8.69-5.32,14.47-1.28,5.24.39,12.25,2.5,18.68,1,2.92,4.11,11.93,4.44,18.06.26,4.79-.94,11.84,4.65,12.37s13.67-4.13,14.19-12.57a178.31,178.31,0,0,0-.2-24.71c-.62-7.07-2.19-16.63-2.06-18.81s-.06-7.33-.06-7.33S189.77,141.44,186.66,143.24Z"/></clipPath><clipPath id="be976bed-63de-48a2-89bf-2e941124e4f5"><path id="a11df2f0-dc9d-4d91-b38a-4dd680adc072" data-name="SVGID" class="a91072f7-e493-4714-bbf0-063ed8091400" d="M201.09,97.09a12,12,0,0,0,.55-2.88,58.09,58.09,0,0,0,1.45-7.48c.12-1,2-1.21,2.27-.34s1.06,1.21,1.26.43a5,5,0,0,1,1.37-2.6,7.57,7.57,0,0,0,1.51-2.32,5.86,5.86,0,0,0,.58-2.54c-.12-2.45-5.84-8-12.32-7.8a9.87,9.87,0,0,0-6,2c-3,2.5-3.57,6.88-3.52,10.56,0,2.17-.26,8.91-.52,11.08-.91,7.74-3,8.6-6.83,13.72s-6.93,12.34-6.28,18.47,5.2,8.65,7.27,8.78a3.55,3.55,0,0,0,3.82-3.51c.23-2.22-2.91-8.1-2.07-12.71s4.42-9.52,9.87-13.71S200.09,100.73,201.09,97.09Z"/></clipPath></defs><ellipse cx="172.82" cy="286.79" rx="33.13" ry="1.18"/><rect class="b5c94072-1041-4de8-9469-280dc3158a40" width="555" height="288"/><path class="e064ca17-fcb9-4667-b271-ea06a31126df" d="M219.25,78.91c-15.92,10.26-32.13,16.44-49.49,22.37-15.29,5.23-34.66,16.82-39.36,33.19s6.1,48.08,50.13,48.66c50,.67,75.5,17.76,102.32,26.23s51.15,11.8,74.34,1.28c31.37-14.23,50.28-50.17,49.66-83C406.31,98.83,386,73.93,361.49,60a110.69,110.69,0,0,0-68.74-13.11C251.7,52.36,230.82,71.46,219.25,78.91Z"/><g class="b830877a-ad8b-4f1a-bab0-c3b500eb0c1a"><rect class="b5c94072-1041-4de8-9469-280dc3158a40" x="156.38" y="40.61" width="114.39" height="81.36"/></g><path class="f2af9471-eff7-412c-a0af-bcb6fe1deb1e" d="M292.46,217.5s-9.34,7.89-24.14,3S253.4,202,253.4,202s-15.13-.56-22.06-13.1c-6.07-11-.08-24.18-.08-24.18a20.45,20.45,0,0,1-12.58-10.91,21.45,21.45,0,0,1-.33-17.36s-9.62-8.94-5.81-20.37,13-13.46,13-13.46a35.42,35.42,0,0,1,10.57-22c9.24-8.84,24.26-6.84,24.26-6.84s1.79-12.91,14-14.94,18,6.48,18,6.48Z"/><g class="a1eff47e-8429-4ad2-9917-a48e671cb02f"><g class="e2b1c1fe-a893-44e1-91fb-075abd5c394e"><rect class="fc566caa-9969-4eab-8713-e9bc4ae1e1b1" x="156.38" y="42.65" width="114.39" height="79.32"/></g></g><rect class="b16e7a39-f3b3-4c7f-a647-964c30251209" x="159.26" y="37.68" width="114.39" height="81.36"/><g class="bc952360-bbcf-4ace-b291-8fd804957429"><path class="acd89d2c-c7b4-4163-9889-0c4c658532f5" d="M219.25,78.91c-15.92,10.26-32.13,16.44-49.49,22.37-15.29,5.23-34.66,16.82-39.36,33.19s6.1,48.08,50.13,48.66c50,.67,75.5,17.76,102.32,26.23s51.15,11.8,74.34,1.28c31.37-14.23,50.28-50.17,49.66-83C406.31,98.83,386,73.93,361.49,60a110.69,110.69,0,0,0-68.74-13.11C251.7,52.36,230.82,71.46,219.25,78.91Z"/><path class="ae42d9f3-5d03-435c-9fa0-be0b8048c4ec" d="M292.46,217.5s-9.34,7.89-24.14,3S253.4,202,253.4,202s-15.13-.56-22.06-13.1c-6.07-11-.08-24.18-.08-24.18a20.45,20.45,0,0,1-12.58-10.91,21.45,21.45,0,0,1-.33-17.36s-9.62-8.94-5.81-20.37,13-13.46,13-13.46a35.42,35.42,0,0,1,10.57-22c9.24-8.84,24.26-6.84,24.26-6.84s1.79-12.91,14-14.94,18,6.48,18,6.48Z"/></g><path class="ec175874-ccdf-434d-8d61-0fae49a57d22" d="M292.46,217.5s9.35,7.89,24.15,3S331.53,202,331.53,202s15.13-.56,22.06-13.1c6.07-11,.08-24.18.08-24.18a20.45,20.45,0,0,0,12.58-10.91,21.45,21.45,0,0,0,.33-17.36s9.62-8.94,5.81-20.37-13-13.46-13-13.46a35.4,35.4,0,0,0-10.58-22c-9.23-8.84-24.26-6.84-24.26-6.84s-1.78-12.91-14-14.94-18,6.48-18,6.48Z"/><path class="fc566caa-9969-4eab-8713-e9bc4ae1e1b1" d="M277.8,222.42a30.44,30.44,0,0,1-9.59-1.61c-7.76-2.56-11.47-7.53-13.21-11.25a20.65,20.65,0,0,1-1.93-7.22c-2.23-.18-15.64-1.7-22-13.25-5.52-10-1.15-21.91-.25-24.13a21.12,21.12,0,0,1-12.41-11,22,22,0,0,1-.44-17.42c-1.3-1.31-9.27-9.92-5.72-20.56a21.65,21.65,0,0,1,8.08-11.19,17.16,17.16,0,0,1,5-2.43,36.16,36.16,0,0,1,10.66-22c8.49-8.12,22-7.19,24.21-7,.39-2,3-13,14.25-14.89,12.32-2,18.31,6.53,18.37,6.62l.06.08v152.4l-.13.11A24.67,24.67,0,0,1,277.8,222.42ZM256.77,74c-5,0-14.1.93-20.38,6.94a35.4,35.4,0,0,0-10.47,21.74v.27l-.25,0a16,16,0,0,0-5,2.41,21,21,0,0,0-7.79,10.83c-3.7,11.08,5.62,19.92,5.71,20l.19.17-.11.23a21.29,21.29,0,0,0,.33,17.06,20.23,20.23,0,0,0,12.35,10.72l.4.1-.17.38c-.06.13-5.84,13.18.07,23.88,6.75,12.21,21.63,12.91,21.78,12.91l.32,0V202c0,.14.29,13.4,14.67,18.16,13.55,4.48,22.56-2,23.7-2.84V65.47c-.64-.86-6.4-8.1-17.63-6.25-11.84,2-13.72,14.52-13.74,14.64l0,.34-.34,0A33.23,33.23,0,0,0,256.77,74Z"/><path class="b7b02292-aa5c-4356-ac86-124b95217498" d="M307.13,222.42a24.75,24.75,0,0,1-14.89-4.66l-.12-.11V65.25l.06-.08c.06-.09,6.05-8.66,18.37-6.62,11.24,1.86,13.85,12.84,14.25,14.89,2.26-.22,15.72-1.16,24.21,7a36.22,36.22,0,0,1,10.66,22,17.16,17.16,0,0,1,5,2.43A21.7,21.7,0,0,1,372.71,116c3.55,10.64-4.42,19.25-5.72,20.56a22,22,0,0,1-.44,17.42,21.12,21.12,0,0,1-12.41,11c.9,2.22,5.26,14.14-.25,24.13-6.39,11.55-19.8,13.07-22,13.25a20.32,20.32,0,0,1-1.92,7.22c-1.74,3.72-5.45,8.69-13.21,11.25A30.44,30.44,0,0,1,307.13,222.42Zm-14.32-5.09c1.13.88,10.15,7.32,23.7,2.84,7.51-2.49,11.1-7.29,12.79-10.87a19.51,19.51,0,0,0,1.88-7.29v-.32l.32,0c.15,0,15-.7,21.78-12.91,5.91-10.7.13-23.75.07-23.88l-.17-.38.4-.1a20.28,20.28,0,0,0,12.35-10.72,21.23,21.23,0,0,0,.33-17.06l-.11-.23.19-.17c.09-.09,9.41-8.93,5.71-20a21,21,0,0,0-7.79-10.83,16,16,0,0,0-5-2.41l-.25,0v-.27a35.4,35.4,0,0,0-10.47-21.74c-9-8.63-23.83-6.77-24-6.76l-.34,0,0-.34c0-.12-1.9-12.68-13.74-14.64-11.25-1.86-17,5.39-17.63,6.25Z"/><path class="fc566caa-9969-4eab-8713-e9bc4ae1e1b1" d="M253.75,198.34h-.69V186a4.4,4.4,0,0,0-1.31-3.16l-5.82-5.83.48-.48,5.83,5.83a5.11,5.11,0,0,1,1.51,3.64Z"/><path class="fc566caa-9969-4eab-8713-e9bc4ae1e1b1" d="M253.75,188.07h-.69V177.35a5.13,5.13,0,0,1,1.51-3.64l11.82-11.82.48.49-11.82,11.81a4.46,4.46,0,0,0-1.3,3.16Z"/><path class="fc566caa-9969-4eab-8713-e9bc4ae1e1b1" d="M253.75,202h-.69v-4.36a3,3,0,0,1,3-3h4.07v.69H256a2.28,2.28,0,0,0-2.28,2.28Z"/><circle class="fc566caa-9969-4eab-8713-e9bc4ae1e1b1" cx="246.17" cy="176.81" r="1.74"/><circle class="fc566caa-9969-4eab-8713-e9bc4ae1e1b1" cx="265.8" cy="162.97" r="1.74"/><circle class="fc566caa-9969-4eab-8713-e9bc4ae1e1b1" cx="242.83" cy="155.63" r="1.74"/><circle class="fc566caa-9969-4eab-8713-e9bc4ae1e1b1" cx="282.34" cy="189.52" r="1.74"/><circle class="b7b02292-aa5c-4356-ac86-124b95217498" cx="307.72" cy="198.34" r="1.74"/><circle class="b7b02292-aa5c-4356-ac86-124b95217498" cx="323.35" cy="175.58" r="1.74"/><circle class="b7b02292-aa5c-4356-ac86-124b95217498" cx="339.48" cy="168.11" r="1.74"/><circle class="b7b02292-aa5c-4356-ac86-124b95217498" cx="340.58" cy="114.61" r="1.74"/><circle class="b7b02292-aa5c-4356-ac86-124b95217498" cx="343.14" cy="92.54" r="1.74"/><circle class="b7b02292-aa5c-4356-ac86-124b95217498" cx="311.12" cy="161.32" r="1.74"/><circle class="b7b02292-aa5c-4356-ac86-124b95217498" cx="314.61" cy="184.41" r="1.74"/><circle class="b7b02292-aa5c-4356-ac86-124b95217498" cx="338.81" cy="183.69" r="1.74"/><circle class="fc566caa-9969-4eab-8713-e9bc4ae1e1b1" cx="253.82" cy="88.2" r="1.74"/><circle class="fc566caa-9969-4eab-8713-e9bc4ae1e1b1" cx="260.1" cy="195.03" r="1.74"/><path class="fc566caa-9969-4eab-8713-e9bc4ae1e1b1" d="M292.81,217.5h-.69v-2.73a4.4,4.4,0,0,0-1.31-3.16l-7-7a6.29,6.29,0,0,1-1.84-4.46v-9.55h.68v9.55a5.54,5.54,0,0,0,1.65,4l7,7a5.15,5.15,0,0,1,1.51,3.65Z"/><path class="fc566caa-9969-4eab-8713-e9bc4ae1e1b1" d="M236.34,103H225.58v-.68h10.76a7,7,0,0,0,4.95-2L253.58,88l.49.49-12.3,12.29A7.63,7.63,0,0,1,236.34,103Z"/><path class="b7b02292-aa5c-4356-ac86-124b95217498" d="M292.81,212h-.69v-2.59a5.11,5.11,0,0,1,1.51-3.64l5.89-5.89A6.26,6.26,0,0,1,304,198h3.74v.69H304a5.6,5.6,0,0,0-4,1.64l-5.88,5.89a4.42,4.42,0,0,0-1.31,3.16Z"/><path class="b7b02292-aa5c-4356-ac86-124b95217498" d="M331.87,202h-.69V185.71a4.35,4.35,0,0,0-1.28-3.1l-6.8-6.79.49-.49,6.79,6.8a5,5,0,0,1,1.49,3.58Z"/><path class="b7b02292-aa5c-4356-ac86-124b95217498" d="M331.87,191.38h-.69V178.84a7,7,0,0,1,2.07-5l6-6,.48.49-6,6a6.32,6.32,0,0,0-1.86,4.5Z"/><path class="b7b02292-aa5c-4356-ac86-124b95217498" d="M331.87,196.1h-.69v-3.16a5,5,0,0,1,1.49-3.58l5.9-5.91.49.49-5.91,5.9a4.35,4.35,0,0,0-1.28,3.1Z"/><path class="b7b02292-aa5c-4356-ac86-124b95217498" d="M292.81,201.73h-.68v-4a5.14,5.14,0,0,1,1.51-3.65l15.86-15.86a4.33,4.33,0,0,0,1.28-3.09V161.32h.68v13.85a5,5,0,0,1-1.47,3.57L294.12,194.6a4.48,4.48,0,0,0-1.31,3.17Z"/><path class="b7b02292-aa5c-4356-ac86-124b95217498" d="M301.07,187.66l-.48-.49,1.4-1.4a5.77,5.77,0,0,1,4.11-1.7h8.51v.68H306.1a5.11,5.11,0,0,0-3.63,1.51Z"/><path class="b7b02292-aa5c-4356-ac86-124b95217498" d="M340.82,114.85l-.48-.48L351,103.74a6.53,6.53,0,0,1,5.07-1.91,24.34,24.34,0,0,1,3.39.47l-.14.67a23.08,23.08,0,0,0-3.3-.46,5.86,5.86,0,0,0-4.53,1.71Z"/><path class="b7b02292-aa5c-4356-ac86-124b95217498" d="M292.81,117h-.69v-5.34a5.15,5.15,0,0,1,1.51-3.65l8.41-8.4a5,5,0,0,1,3.56-1.48h4.52v.68H305.6a4.34,4.34,0,0,0-3.08,1.28l-8.4,8.4a4.44,4.44,0,0,0-1.31,3.17Z"/><path class="b7b02292-aa5c-4356-ac86-124b95217498" d="M301.11,101.46l-.49-.48,1-1a5.82,5.82,0,0,0,1.72-4.15V89.14H304v6.72a6.53,6.53,0,0,1-1.93,4.64Z"/><circle class="b7b02292-aa5c-4356-ac86-124b95217498" cx="303.74" cy="89.52" r="1.74"/><circle class="fc566caa-9969-4eab-8713-e9bc4ae1e1b1" cx="285.86" cy="82.81" r="1.74"/><circle class="b7b02292-aa5c-4356-ac86-124b95217498" cx="310.6" cy="79.71" r="1.74"/><circle class="b7b02292-aa5c-4356-ac86-124b95217498" cx="331.13" cy="97.45" r="1.74"/><circle class="b7b02292-aa5c-4356-ac86-124b95217498" cx="310.12" cy="98.71" r="1.74"/><path class="b7b02292-aa5c-4356-ac86-124b95217498" d="M330.89,97.7l-9.46-9.47A5,5,0,0,1,320,84.67V78.45a5,5,0,0,1,4.49-5l.1.68h0a4.29,4.29,0,0,0-3.89,4.29v6.22a4.34,4.34,0,0,0,1.28,3.08l9.46,9.46Z"/><rect class="b7b02292-aa5c-4356-ac86-124b95217498" x="309.49" y="79.37" width="10.8" height="0.68"/><path class="b7b02292-aa5c-4356-ac86-124b95217498" d="M355.64,102.49h-1.06a5.29,5.29,0,0,1-3.73-1.56l-8-8.15.49-.48,7.95,8.15a4.55,4.55,0,0,0,3.24,1.36h1.06Z"/><rect class="fc566caa-9969-4eab-8713-e9bc4ae1e1b1" x="166.93" y="70.54" width="6.62" height="16.4"/><rect class="ec175874-ccdf-434d-8d61-0fae49a57d22" x="178.65" y="57.39" width="6.62" height="29.55"/><rect class="bb34c523-d542-4495-a7c1-b13e1b8017cc" x="190.37" y="61.57" width="6.62" height="25.37"/><path class="fc566caa-9969-4eab-8713-e9bc4ae1e1b1" d="M292.81,96.23h-.69V91.85a5.5,5.5,0,0,0-1.62-3.92l-4.88-4.88.48-.48L291,87.45a6.16,6.16,0,0,1,1.83,4.4Z"/><polygon class="b7b02292-aa5c-4356-ac86-124b95217498" points="314.05 133.85 307.4 132.4 307.55 131.73 313.52 133.04 315.07 125.99 315.73 126.14 314.05 133.85"/><polygon class="b7b02292-aa5c-4356-ac86-124b95217498" points="269.86 153 269.2 152.86 270.88 145.14 277.53 146.6 277.38 147.26 271.4 145.96 269.86 153"/><path class="b7b02292-aa5c-4356-ac86-124b95217498" d="M292.46,161.94a22.52,22.52,0,0,1-21.59-16.31l.65-.19a21.77,21.77,0,0,0,42.71-5.94v-.34h.34l74.38,0v.68l-74,0A22.47,22.47,0,0,1,292.46,161.94Z"/><path class="b7b02292-aa5c-4356-ac86-124b95217498" d="M270.7,139.84h-.34l-99.86,0v-.68l99.52,0a22.45,22.45,0,0,1,44-5.79l-.66.18a21.77,21.77,0,0,0-42.7,5.95Z"/><path class="fc566caa-9969-4eab-8713-e9bc4ae1e1b1" d="M253.75,192.13h-.69V168.68a5.58,5.58,0,0,0-1.64-4l-8.83-8.83.48-.48,8.83,8.83a6.26,6.26,0,0,1,1.85,4.46Z"/><rect class="f2af9471-eff7-412c-a0af-bcb6fe1deb1e" x="386.73" y="135.42" width="38.56" height="8.11" rx="4.06"/><path class="ffa3e256-6587-4a26-88ff-9b91384043b4" d="M421.23,143.87H390.79a4.4,4.4,0,1,1,0-8.79h30.44a4.4,4.4,0,1,1,0,8.79Zm-30.44-8.11a3.72,3.72,0,1,0,0,7.43h30.44a3.72,3.72,0,1,0,0-7.43Z"/><rect class="ffa3e256-6587-4a26-88ff-9b91384043b4" x="386.73" y="121.96" width="32.19" height="8.11" rx="4.06"/><rect class="ffa3e256-6587-4a26-88ff-9b91384043b4" x="386.73" y="148.88" width="32.19" height="8.11" rx="4.06"/><rect class="ffa3e256-6587-4a26-88ff-9b91384043b4" x="386.73" y="162.33" width="32.19" height="8.11" rx="4.06"/><path class="ffa3e256-6587-4a26-88ff-9b91384043b4" d="M274,119.38H158.91v-82H274ZM159.6,118.7H273.3V38H159.6Z"/><rect class="ffa3e256-6587-4a26-88ff-9b91384043b4" x="159.26" y="37.68" width="114.39" height="9"/><circle class="bb34c523-d542-4495-a7c1-b13e1b8017cc" cx="267.86" cy="42.18" r="1.76"/><circle class="bb34c523-d542-4495-a7c1-b13e1b8017cc" cx="260.79" cy="42.18" r="1.76"/><rect class="ffa3e256-6587-4a26-88ff-9b91384043b4" x="135.4" y="135.42" width="38.56" height="8.11" rx="4.06"/><path class="fc566caa-9969-4eab-8713-e9bc4ae1e1b1" d="M267.09,177.73v-.86h1.61v-3.69a1,1,0,0,1-.25.31,1.56,1.56,0,0,1-.39.26,2.3,2.3,0,0,1-1,.23v-.88a2.12,2.12,0,0,0,.57-.07,1.94,1.94,0,0,0,.49-.2,1.57,1.57,0,0,0,.38-.3,1.49,1.49,0,0,0,.28-.38h1.1v4.72h1.33v.86Z"/><path class="b7b02292-aa5c-4356-ac86-124b95217498" d="M329.9,113.31v-.87h1.61v-3.68a1,1,0,0,1-.24.31,2.65,2.65,0,0,1-.39.26,3.12,3.12,0,0,1-.49.17,2.33,2.33,0,0,1-.53.06v-.88a2.62,2.62,0,0,0,.57-.07,2.3,2.3,0,0,0,.48-.2,1.45,1.45,0,0,0,.39-.3,1.65,1.65,0,0,0,.27-.38h1.1v4.71H334v.87Z"/><path class="b7b02292-aa5c-4356-ac86-124b95217498" d="M339.19,133.3v-.86h1.61v-3.69a.87.87,0,0,1-.24.31,1.56,1.56,0,0,1-.39.26,2.35,2.35,0,0,1-.49.17,2.33,2.33,0,0,1-.53.06v-.88a2.62,2.62,0,0,0,.57-.07,1.73,1.73,0,0,0,.48-.2,1.45,1.45,0,0,0,.39-.3,1.78,1.78,0,0,0,.28-.38H342v4.72h1.33v.86Z"/><path class="fc566caa-9969-4eab-8713-e9bc4ae1e1b1" d="M265.25,183.45a5.16,5.16,0,0,1-.15,1.34,2.55,2.55,0,0,1-.43.89,1.51,1.51,0,0,1-.64.49,1.92,1.92,0,0,1-.81.16,2.07,2.07,0,0,1-.8-.15,1.62,1.62,0,0,1-.64-.5,2.54,2.54,0,0,1-.41-.89,5.11,5.11,0,0,1-.15-1.34,5.33,5.33,0,0,1,.15-1.38,2.37,2.37,0,0,1,.41-.89,1.49,1.49,0,0,1,.65-.47,2.41,2.41,0,0,1,.83-.13,2.3,2.3,0,0,1,.79.13,1.5,1.5,0,0,1,.63.47,2.38,2.38,0,0,1,.42.89A5.33,5.33,0,0,1,265.25,183.45Zm-1.17,0a8.42,8.42,0,0,0,0-.95,2,2,0,0,0-.15-.6.64.64,0,0,0-.25-.32.8.8,0,0,0-.39-.09.86.86,0,0,0-.41.09.67.67,0,0,0-.27.32,2.2,2.2,0,0,0-.14.61,8.06,8.06,0,0,0-.05.94,7.88,7.88,0,0,0,.05.93,2.51,2.51,0,0,0,.14.61.65.65,0,0,0,.66.42.71.71,0,0,0,.39-.1.67.67,0,0,0,.27-.32,3,3,0,0,0,.15-.61A8.15,8.15,0,0,0,264.08,183.45Z"/><path class="fc566caa-9969-4eab-8713-e9bc4ae1e1b1" d="M281.44,170.16a5.21,5.21,0,0,1-.15,1.34,2.41,2.41,0,0,1-.43.88,1.54,1.54,0,0,1-.64.5,2.24,2.24,0,0,1-1.61,0,1.51,1.51,0,0,1-.64-.49,2.63,2.63,0,0,1-.41-.89,5.16,5.16,0,0,1-.15-1.34,5.41,5.41,0,0,1,.15-1.39,2.49,2.49,0,0,1,.41-.88,1.49,1.49,0,0,1,.65-.47,2.41,2.41,0,0,1,.83-.14,2.26,2.26,0,0,1,.79.14,1.5,1.5,0,0,1,.63.47,2.33,2.33,0,0,1,.42.88A5.41,5.41,0,0,1,281.44,170.16Zm-1.17,0a8.42,8.42,0,0,0,0-.95,2,2,0,0,0-.15-.6.6.6,0,0,0-.25-.32.71.71,0,0,0-.39-.1.76.76,0,0,0-.41.1.67.67,0,0,0-.27.32,2,2,0,0,0-.14.61,8.77,8.77,0,0,0,0,1.87,2.42,2.42,0,0,0,.14.6.66.66,0,0,0,.27.33.69.69,0,0,0,.39.1.71.71,0,0,0,.39-.1.66.66,0,0,0,.27-.33,2.37,2.37,0,0,0,.15-.6A8.15,8.15,0,0,0,280.27,170.16Z"/><path class="b7b02292-aa5c-4356-ac86-124b95217498" d="M324.88,119.8a5,5,0,0,1-.16,1.33,2.38,2.38,0,0,1-.42.89,1.6,1.6,0,0,1-.64.5,2.26,2.26,0,0,1-1.62,0,1.55,1.55,0,0,1-.63-.49,2.37,2.37,0,0,1-.41-.89,5.16,5.16,0,0,1-.15-1.34,6,6,0,0,1,.14-1.39,2.33,2.33,0,0,1,.42-.88,1.39,1.39,0,0,1,.64-.47,2.45,2.45,0,0,1,.83-.14,2.22,2.22,0,0,1,.79.14,1.39,1.39,0,0,1,.64.47,2.49,2.49,0,0,1,.41.88A5,5,0,0,1,324.88,119.8Zm-1.17,0a8.12,8.12,0,0,0,0-1,2.42,2.42,0,0,0-.14-.6.69.69,0,0,0-.26-.33.78.78,0,0,0-.39-.09.76.76,0,0,0-.41.1.61.61,0,0,0-.26.32,2,2,0,0,0-.15.61,10.95,10.95,0,0,0,0,1.87,2,2,0,0,0,.15.6.64.64,0,0,0,.26.33.72.72,0,0,0,.4.1.71.71,0,0,0,.39-.1.7.7,0,0,0,.26-.33,2,2,0,0,0,.15-.6A7.88,7.88,0,0,0,323.71,119.8Z"/><path class="b7b02292-aa5c-4356-ac86-124b95217498" d="M360,148a6.1,6.1,0,0,1-.17,1.53,2.85,2.85,0,0,1-.49,1,1.71,1.71,0,0,1-.73.56,2.47,2.47,0,0,1-1.85,0,1.69,1.69,0,0,1-.72-.56,2.85,2.85,0,0,1-.48-1,6,6,0,0,1-.17-1.53,6.38,6.38,0,0,1,.17-1.59,2.57,2.57,0,0,1,.48-1,1.75,1.75,0,0,1,.73-.54,2.87,2.87,0,0,1,.95-.15,2.67,2.67,0,0,1,.91.15,1.72,1.72,0,0,1,.72.54,2.72,2.72,0,0,1,.48,1A6.38,6.38,0,0,1,360,148Zm-1.33,0a10.67,10.67,0,0,0-.05-1.09,2.67,2.67,0,0,0-.17-.69.73.73,0,0,0-.3-.36.78.78,0,0,0-.44-.11,1,1,0,0,0-.47.11.72.72,0,0,0-.3.37,2.17,2.17,0,0,0-.17.69,10.6,10.6,0,0,0-.05,1.08,10.17,10.17,0,0,0,.05,1.06,2.65,2.65,0,0,0,.17.7.76.76,0,0,0,.3.37.88.88,0,0,0,.45.11.91.91,0,0,0,.45-.11.82.82,0,0,0,.3-.37,2.31,2.31,0,0,0,.17-.7A7.79,7.79,0,0,0,358.69,148Z"/><path class="bb34c523-d542-4495-a7c1-b13e1b8017cc" d="M164.49,139.47a3.78,3.78,0,0,1-.12,1,2,2,0,0,1-.33.69,1.16,1.16,0,0,1-.49.37,1.59,1.59,0,0,1-.62.12,1.75,1.75,0,0,1-.62-.11,1.28,1.28,0,0,1-.49-.38,2.11,2.11,0,0,1-.32-.69,4.27,4.27,0,0,1-.11-1,4.48,4.48,0,0,1,.11-1.06,1.79,1.79,0,0,1,.32-.68,1.11,1.11,0,0,1,.5-.36,1.81,1.81,0,0,1,.63-.11,1.7,1.7,0,0,1,.61.11,1.14,1.14,0,0,1,.49.36,1.79,1.79,0,0,1,.32.68A4,4,0,0,1,164.49,139.47Zm-.9,0c0-.29,0-.53,0-.73a2,2,0,0,0-.12-.46.5.5,0,0,0-.19-.25.73.73,0,0,0-.3-.07.63.63,0,0,0-.32.08.49.49,0,0,0-.2.24,1.71,1.71,0,0,0-.11.47,6.5,6.5,0,0,0,0,1.44,1.55,1.55,0,0,0,.11.46.55.55,0,0,0,.2.26.57.57,0,0,0,.31.07.54.54,0,0,0,.29-.07.56.56,0,0,0,.21-.26,1.55,1.55,0,0,0,.11-.46A4.84,4.84,0,0,0,163.59,139.47Z"/><path class="bb34c523-d542-4495-a7c1-b13e1b8017cc" d="M156.26,141.62V141h1.24v-2.83a1,1,0,0,1-.19.24,1.57,1.57,0,0,1-.3.2l-.37.13a2,2,0,0,1-.42.05v-.68a1.51,1.51,0,0,0,.44-.06,1.11,1.11,0,0,0,.37-.15,1,1,0,0,0,.3-.23,1.12,1.12,0,0,0,.21-.29h.85V141h1v.67Z"/><path class="bb34c523-d542-4495-a7c1-b13e1b8017cc" d="M166.86,141.62V141h1.24v-2.83a.8.8,0,0,1-.19.24,1.12,1.12,0,0,1-.3.2,2.64,2.64,0,0,1-.37.13,1.84,1.84,0,0,1-.41.05v-.68a1.56,1.56,0,0,0,.44-.06,1.2,1.2,0,0,0,.37-.15,1.33,1.33,0,0,0,.3-.23,1.94,1.94,0,0,0,.21-.29H169V141h1v.67Z"/><path class="bb34c523-d542-4495-a7c1-b13e1b8017cc" d="M153.88,139.47a3.78,3.78,0,0,1-.12,1,2,2,0,0,1-.32.69,1.19,1.19,0,0,1-.5.37,1.56,1.56,0,0,1-.62.12,1.8,1.8,0,0,1-.62-.11,1.18,1.18,0,0,1-.48-.38,1.77,1.77,0,0,1-.32-.69,3.78,3.78,0,0,1-.12-1,4,4,0,0,1,.12-1.06,1.66,1.66,0,0,1,.32-.68,1.08,1.08,0,0,1,.49-.36,1.83,1.83,0,0,1,.64-.11,1.74,1.74,0,0,1,.61.11,1.11,1.11,0,0,1,.48.36,1.66,1.66,0,0,1,.32.68A4,4,0,0,1,153.88,139.47Zm-.9,0c0-.29,0-.53,0-.73a1.63,1.63,0,0,0-.11-.46.52.52,0,0,0-.2-.25.66.66,0,0,0-.3-.07.59.59,0,0,0-.31.08.46.46,0,0,0-.21.24,1.71,1.71,0,0,0-.11.47,8.66,8.66,0,0,0,0,1.44,1.94,1.94,0,0,0,.11.46.55.55,0,0,0,.2.26.62.62,0,0,0,.31.07.58.58,0,0,0,.3-.07.55.55,0,0,0,.2-.26,1.89,1.89,0,0,0,.12-.46A7.1,7.1,0,0,0,153,139.47Z"/><path class="bb34c523-d542-4495-a7c1-b13e1b8017cc" d="M145.65,141.62V141h1.24v-2.83a.8.8,0,0,1-.19.24,1.31,1.31,0,0,1-.3.2,3.19,3.19,0,0,1-.37.13,1.84,1.84,0,0,1-.41.05v-.68a1.61,1.61,0,0,0,.44-.06,1.2,1.2,0,0,0,.37-.15,1.33,1.33,0,0,0,.3-.23,1.94,1.94,0,0,0,.21-.29h.84V141h1v.67Z"/><path class="bb34c523-d542-4495-a7c1-b13e1b8017cc" d="M143.27,139.47a4.27,4.27,0,0,1-.11,1,2,2,0,0,1-.33.69,1.16,1.16,0,0,1-.49.37,1.59,1.59,0,0,1-.62.12,1.71,1.71,0,0,1-.62-.11,1.28,1.28,0,0,1-.49-.38,1.92,1.92,0,0,1-.32-.69,4.27,4.27,0,0,1-.11-1,4,4,0,0,1,.11-1.06,1.79,1.79,0,0,1,.32-.68,1.14,1.14,0,0,1,.49-.36,1.91,1.91,0,0,1,.64-.11,1.74,1.74,0,0,1,.61.11,1.14,1.14,0,0,1,.49.36,2,2,0,0,1,.32.68A4,4,0,0,1,143.27,139.47Zm-.89,0a5.07,5.07,0,0,0,0-.73,1.63,1.63,0,0,0-.11-.46.52.52,0,0,0-.2-.25.65.65,0,0,0-.29-.07.63.63,0,0,0-.32.08.49.49,0,0,0-.2.24,1.69,1.69,0,0,0-.12.47,7.1,7.1,0,0,0,0,.72,4.84,4.84,0,0,0,0,.72,1.55,1.55,0,0,0,.11.46.49.49,0,0,0,.2.26.68.68,0,0,0,.6,0,.55.55,0,0,0,.2-.26,1.28,1.28,0,0,0,.12-.46A4.84,4.84,0,0,0,142.38,139.47Z"/><path class="faa24c48-ddf7-4735-a81a-7aa33091a3cb" d="M165.3,234.82s-3.78,3.82-6,2.89a7.28,7.28,0,0,0,1.41,6c2.27,3,4.23,2.87,4.23,2.87a4.72,4.72,0,0,1,.74-4.06,15.58,15.58,0,0,1,3.24-3.36Z"/><g class="aa7c2fb4-e03e-4bc1-a3f9-e35d5a512f90"><path class="ad9ccdf6-f48e-4a1b-9443-666f72989f60" d="M159.85,239.86c1.81-1,4.15-2.2,4.15-2.2a23.09,23.09,0,0,0,4.89,1.88c1.9.34.24.05.24.05l-4.59-5.29-5.15,2.48-1.59,2.81"/></g><path class="a0da2a72-0293-4e2b-83e9-343bad001b82" d="M153.56,241.93c-.47,2.06-3.8,5.27-3.8,5.27s-.42.77.74,1.76c1,.85,1.41.79,1.88.59,0,0,2.4-2.54,3-3.2.73-.81,1.4.16,1.4.16a3.86,3.86,0,0,0-1-2.93C154.43,241.89,153.56,241.93,153.56,241.93Z"/><path class="ffa3e256-6587-4a26-88ff-9b91384043b4" d="M160,237.1s.68-.25.86.18c.5,1.2-.7,3.23.43,5.33s3.52,2,4.37,1.9c0,0-.42,3.73-.74,6.14s-.86,2.93.85,4,2.17,1.81,1.79,3.3a6.56,6.56,0,0,1-.91,1.78,9.73,9.73,0,0,1-4.26-1.16c-1.45-.78-3.26-1.79-3.85-3.34a7.49,7.49,0,0,1-.19-3.62,5.86,5.86,0,0,0-1.16-4.57c-2.27-2.69-3.58-3.49-3.67-5.09,0,0-.39-1.13,1.64-2.46C156.74,238.46,157.12,239,160,237.1Z"/><path class="e08f80e4-86bb-42dc-8cea-7eeb42f0b4e8" d="M166.6,258.38l-.06,0a.16.16,0,0,1-.09-.22,1.72,1.72,0,0,0,0-1.62,8,8,0,0,0-2-1.46.18.18,0,0,1-.06-.24.16.16,0,0,1,.23-.06,8.5,8.5,0,0,1,2.08,1.56,2,2,0,0,1,0,1.95A.16.16,0,0,1,166.6,258.38Z"/><path class="faa24c48-ddf7-4735-a81a-7aa33091a3cb" d="M186.93,243.15s-.51,5.47-3.14,6.2a8.17,8.17,0,0,0,5.59,3.83c4.17.9,5.76-.49,5.76-.49a4.85,4.85,0,0,1-2.3-3.68,14.34,14.34,0,0,1,.36-4.75Z"/><g class="e4e701dd-528a-45a3-9216-8682bf6e54a2"><path class="ad9ccdf6-f48e-4a1b-9443-666f72989f60" d="M186.39,250.8a16.63,16.63,0,0,0,2.12-4.29,18.83,18.83,0,0,0,4.36-.43l-6.48-1.83L184,250.42"/></g><path class="a0da2a72-0293-4e2b-83e9-343bad001b82" d="M181.77,256.34c1.06,2,.41,6.63.41,6.63s.17.89,1.9.94c1.48,0,1.79-.27,2.07-.72,0,0,.3-3.57.36-4.47.07-1.11,1.34-.77,1.34-.77s-.65-1.16-3-1.68S181.77,256.34,181.77,256.34Z"/><path class="ffa3e256-6587-4a26-88ff-9b91384043b4" d="M184,248.35s.41-.63.88-.4c1.29.64,1.68,3,4.16,4s4.49-.68,5.18-1.26c0,0,2.29,3.25,3.73,5.38s2,3.25,4.19,3.38,3.1.58,3.55,2.13a6.72,6.72,0,0,1,.09,2.06,13.93,13.93,0,0,1-10.2.14,8.25,8.25,0,0,1-2.74-2.77,6.58,6.58,0,0,0-4.26-2.92c-3.91-.71-5.62-.52-6.84-1.74,0,0-1.15-.66-.31-3C182.1,251.55,182.78,251.7,184,248.35Z"/><path class="e08f80e4-86bb-42dc-8cea-7eeb42f0b4e8" d="M204.9,262.47a.16.16,0,0,1-.17-.15,1.8,1.8,0,0,0-.92-1.47,10.15,10.15,0,0,0-2.72-.38.17.17,0,0,1-.17-.17.18.18,0,0,1,.17-.17,10.19,10.19,0,0,1,2.87.41,2.17,2.17,0,0,1,1.11,1.74.18.18,0,0,1-.15.19Z"/><path class="a0da2a72-0293-4e2b-83e9-343bad001b82" d="M188.27,196.62a21.2,21.2,0,0,1-2.5,10.31c-1.62,2.67-7.24,9.42-10.73,13.86s-6.9,8.36-7.65,11.87a7,7,0,0,1-1.24,1.37,25.93,25.93,0,0,1-2.19,1.6s-.36.49,2.26,2.32,2.91,1.64,2.91,1.64,2.38-2.18,4.08-2.63a74,74,0,0,0,10-5.55c4.05-2.86,9.43-8.78,14.93-15.15s4.29-6.46,6.24-10.92-1.6-9.11-5.64-10.42-10.23-.59-10.23-.59S188.25,194.42,188.27,196.62Z"/><path class="b84da302-91f1-40e0-8de0-f84e407403fa" d="M172.36,237h0a8.27,8.27,0,0,1-4.62-3.12.17.17,0,0,1,.05-.23.18.18,0,0,1,.24,0,8.12,8.12,0,0,0,4.42,3,.18.18,0,0,1,.12.21A.17.17,0,0,1,172.36,237Z"/><path class="ad9ccdf6-f48e-4a1b-9443-666f72989f60" d="M222.52,123.69a38,38,0,0,0,4.49-3.75c.81-.73,2.86-4.91,3.68-5.57s1.07,6.46.68,7.79-2.42,1.91-2.42,1.91a35.53,35.53,0,0,0-3.78,3.52C223.56,129.39,222.52,123.69,222.52,123.69Z"/><path class="ad9ccdf6-f48e-4a1b-9443-666f72989f60" d="M242.54,117.66c.64.06,1,.25,1,.71s-.71.77-1.36.7a7.13,7.13,0,0,1-1.93-.83"/><path class="faa24c48-ddf7-4735-a81a-7aa33091a3cb" d="M204.06,97c-2-.71-6.6,6.06-7.38,13.37s-5-4.23-5-4.23l3.76-9.38L201.1,92"/><ellipse class="bb34c523-d542-4495-a7c1-b13e1b8017cc" cx="209.76" cy="86.09" rx="1.77" ry="3.24"/><path class="faa24c48-ddf7-4735-a81a-7aa33091a3cb" d="M209.65,85.47a6.75,6.75,0,0,0,1.08,2c.33.41.63.65.62,1.19,0,.32-.35.7-.87,1.11a4.42,4.42,0,0,1-1.71.56"/><path class="b5c94072-1041-4de8-9469-280dc3158a40" d="M237.87,125.41l-14.42-4.66a1.9,1.9,0,0,1-.8-2.18l14.43-20.42a1.69,1.69,0,0,1,1.78-.74l14.81,4.17a2,2,0,0,1,.08,1.94l-14.11,21.14A1.71,1.71,0,0,1,237.87,125.41Z"/><path class="bb34c523-d542-4495-a7c1-b13e1b8017cc" d="M237.63,124.48l-14.56-4.7c-.58-.19-.72-.83-.33-1.42l14.11-21.14a1.68,1.68,0,0,1,1.77-.74l14.56,4.69c.58.19.73.83.33,1.42l-14.1,21.14A1.72,1.72,0,0,1,237.63,124.48Z"/><path class="b9bed744-5186-4485-a9fa-163f1f9aeaa8" d="M238.27,96.77h0a1,1,0,0,1,.25,0l14.56,4.7a.45.45,0,0,1,.29.26.76.76,0,0,1-.14.64l-14.11,21.15a1.48,1.48,0,0,1-1.14.64.86.86,0,0,1-.24,0l-14.56-4.7a.42.42,0,0,1-.29-.26.73.73,0,0,1,.14-.64l14.1-21.14a1.47,1.47,0,0,1,1.14-.64m0-.35a1.8,1.8,0,0,0-1.42.8l-14.11,21.14c-.39.59-.25,1.23.33,1.42l14.56,4.7a1.34,1.34,0,0,0,.35,0,1.82,1.82,0,0,0,1.43-.8l14.1-21.14c.4-.59.25-1.23-.33-1.42l-14.56-4.69a1,1,0,0,0-.35-.06Z"/><path class="b9bed744-5186-4485-a9fa-163f1f9aeaa8" d="M252.63,103.92,236,98.54l.91-1.35a1.63,1.63,0,0,1,1.69-.71l14.66,4.73c.55.18.69.79.31,1.36Z"/><ellipse class="ffa3e256-6587-4a26-88ff-9b91384043b4" cx="242.12" cy="111.76" rx="2.17" ry="1.57" transform="matrix(0.83, -0.56, 0.56, 0.83, -21.2, 153.91)"/><ellipse class="ffa3e256-6587-4a26-88ff-9b91384043b4" cx="237.45" cy="110.26" rx="1.56" ry="1.13" transform="translate(-21.15 151.06) rotate(-33.87)"/><ellipse class="ffa3e256-6587-4a26-88ff-9b91384043b4" cx="233.47" cy="108.97" rx="0.95" ry="0.69" transform="translate(-21.11 148.62) rotate(-33.87)"/><path class="b5c94072-1041-4de8-9469-280dc3158a40" d="M207.66,130.6c1.42-.08,11.93-5,16.16-8.23a2.72,2.72,0,0,1,1.84.8,5,5,0,0,1,1.21,3.45c0,1.67-4.66,7.09-4.66,7.09s-7.5,5.2-10.41,5.76S207.66,130.6,207.66,130.6Z"/><path class="ae42d9f3-5d03-435c-9fa0-be0b8048c4ec" d="M209.76,89.5c-1.09,0-1.94-1.5-1.94-3.41s.85-3.41,1.94-3.41,1.94,1.5,1.94,3.41S210.85,89.5,209.76,89.5Zm0-6.48c-.87,0-1.6,1.41-1.6,3.07s.73,3.07,1.6,3.07,1.6-1.41,1.6-3.07S210.63,83,209.76,83Z"/><path class="faa24c48-ddf7-4735-a81a-7aa33091a3cb" d="M210.54,83.19c.13,1.06-1,2.1-.67,2.9a6.44,6.44,0,0,1,.47,3.72A7.9,7.9,0,0,1,209,93.12c-1.41,2.33-1.33,3.5-2.56,4.23-1.74,1.05-4.33-1.81-5.43-.93a69.5,69.5,0,0,0-5.58,4.39,11.76,11.76,0,0,0-3.43,5.47l-4.87-1.93s1.17-10.78,1.6-12a19,19,0,0,0,.79-8c-.48-3.34-.16-10.18,6.7-11.8a12,12,0,0,1,12.51,4.12C210.08,78.49,210.54,83.19,210.54,83.19Z"/><g class="b279daab-e093-4543-bc71-d7a4e0972864"><path class="b5c94072-1041-4de8-9469-280dc3158a40" d="M204.06,90.68c.4.33.27,2.74.27,3.85s.57,2.66,1.14,2.82a1.38,1.38,0,0,0,.82.07s-.11.69-1.61.82a5.41,5.41,0,0,0-3.69,2.38c-.55,1-2.16,3.27-2.16,3.27l-1.18,2-2.18-3.42-.43-3,1.67-3.23,2.12-3.07,2.71-4.49,2.08-.35.63.63.43.61"/></g><path class="ffa3e256-6587-4a26-88ff-9b91384043b4" d="M184.68,128.88c.71,2.66,1.68,5.94,2.11,8.68a24.32,24.32,0,0,1-.48,8.07s2,.59,9.72.59,10.12-.64,10.12-.64.1-5.23-.2-8.64-.84-7.69-.59-9.42,2-4.1,1.48-7.26-3.46-5-4.35-7-3.85-8.44-7.79-8.53-9.24.43-12.11,7c-2,4.58-.67,7.1.73,12.33.35,1.33.76,2.65,1.13,4C184.53,128.33,184.6,128.61,184.68,128.88Z"/><g class="b33cfbf7-9916-480c-a7c0-aadd1c9ffc71"><path class="b5c94072-1041-4de8-9469-280dc3158a40" d="M191.05,114.33s3,4.41,3.19,14.78.49,16.16,5.28,20.95,3.68-9,3.68-9L199,118.38l-2.9-5.11"/><path class="b5c94072-1041-4de8-9469-280dc3158a40" d="M198.81,102.3s-.25,2-6.64,6.64-8.21,13.15-5.06,22,3.09,10.41,2.94,18.51-7.7-1.29-7.7-1.29l-3.54-14.36-1.15-12.15,1.44-5.16,4.18-5.89,3.47-3.68,3.64-3.68,2.19-3.14,1.82-1.65"/></g><path class="faa24c48-ddf7-4735-a81a-7aa33091a3cb" d="M221.91,127.66a26.69,26.69,0,0,0,5-5.18,7.83,7.83,0,0,0,1.39-2.71c.3-1,2.83-.33,3.77.45s.1,3.4.1,3.4a8.66,8.66,0,0,0-2.54,2.21c-3.47,4.94-5.38,9.26-6.76,10"/><path class="faa24c48-ddf7-4735-a81a-7aa33091a3cb" d="M226.33,123.2a42.08,42.08,0,0,0,2.51-6.46c.19-1,0-1.36.82-2a23.14,23.14,0,0,1,2.67-2c.63-.34,1.33-.7,2.34-1.25s1.76-1.1,2-1.19.4-.14.58,0,.32.39-.32,1.15-2.47,1.74-3.37,2.65a1.21,1.21,0,0,1,.75-.06,1,1,0,0,1,.82.56,1,1,0,0,1-.06.47,2.1,2.1,0,0,1,.79,0,1,1,0,0,1,.68.72,2.87,2.87,0,0,1-.05.79.74.74,0,0,1,.55.13,1.49,1.49,0,0,1,.38,1.21,5.33,5.33,0,0,1-.45,1.71,6.61,6.61,0,0,1-1.35,1.06.57.57,0,0,1-.84-.21c0-.13,0-.65,0-.65a7.39,7.39,0,0,0-1.25,2,7.75,7.75,0,0,1-1.89,2.48c-.51.49-2.18,1.42-2.64,2.18"/><path class="b9bed744-5186-4485-a9fa-163f1f9aeaa8" d="M186.66,143.24c-.14,2.3-3.91,8.69-5.32,14.47-1.28,5.24.39,12.25,2.5,18.68,1,2.92,4.11,11.93,4.44,18.06.26,4.79-.94,11.84,4.65,12.37s13.67-4.13,14.19-12.57a178.31,178.31,0,0,0-.2-24.71c-.62-7.07-2.19-16.63-2.06-18.81s-.06-7.33-.06-7.33S189.77,141.44,186.66,143.24Z"/><path class="b9bed744-5186-4485-a9fa-163f1f9aeaa8" d="M188.38,202.44c0,3.14-3.08,14.11-4,19.62s0,15.83,2.26,18.52l-.51,4.3s-.38.61,3.21,1,4.29.08,4.29.08a15.06,15.06,0,0,1,1.32-5.46,68.67,68.67,0,0,0,5.88-12.14c4.3-12.08,5.77-27.37,6.17-32.76.38-5.1-6.61-5.36-11.21-5.36a24,24,0,0,1-8.2-1.47A82.25,82.25,0,0,1,188.38,202.44Z"/><path d="M191.48,241.91a13.05,13.05,0,0,1-4.35-.76.18.18,0,0,1-.1-.23.17.17,0,0,1,.22-.09,12.3,12.3,0,0,0,6.58.47.17.17,0,0,1,.08.33A9.92,9.92,0,0,1,191.48,241.91Z"/><g class="aa9a01d0-a8ec-4014-aa70-278ae8946515"><path class="a0da2a72-0293-4e2b-83e9-343bad001b82" d="M189.94,142.7c0,2.1-2.69,8.61-3.91,11.32s-3.69,6.23-1.92,15.24c1.33,6.77,4.18,21.34,2.88,34.15-.88,8.7-14.36-32.07-14.36-32.07l-.23-10.08,3.8-8.64s-.32.39,4.33-7.85l4.66-8.24"/><path class="a0da2a72-0293-4e2b-83e9-343bad001b82" d="M185.33,146.41a52,52,0,0,1,18.77.75c10.19,2.32,1.37-7,1-7.21s-20.14-1.15-20.14-1.15l-5.64,1.25"/><path class="a0da2a72-0293-4e2b-83e9-343bad001b82" d="M195.94,142.71c2.08,4.43,7.76,10.87,12,11.65s-3.8-13.93-3.8-13.93"/></g><rect class="ae42d9f3-5d03-435c-9fa0-be0b8048c4ec" x="204.68" y="84.39" width="7.64" height="0.34"/><path class="a0da2a72-0293-4e2b-83e9-343bad001b82" d="M202.62,89.81s-.59,3.39-1,8.14c-.44,5.31,4.29,13.81,0,20.54l-4.91-2a10.2,10.2,0,0,0-.39-5c-.88-3-1.44-5.74-1.27-7.13,0,0,.28-5.63-1.66-9-.43-.73-.95-1.6-1.51-2.51"/><path class="ffa3e256-6587-4a26-88ff-9b91384043b4" d="M196.06,100.59c.09-2.29,1.23,2.29,1.75,3.33.85,1.72,4.39,3.1,5.9,4.27,1.77,1.38,2.68,3.69,2.91,8.57s2.33,16.53,3.66,19.49,5.38,9.29,2.56,11.47a6.84,6.84,0,0,1-8.64.14c-2.09-1.64-4.49-6.31-6.39-12.79-1.3-4.47-2.2-10-3.57-14.38a8.52,8.52,0,0,0-1.93-3.37c-.9-1-4.51-1-4.12-2.66a2.48,2.48,0,0,1,.78-1.12c2.32-2.26,2.3-4.12,4.42-6.42,2.29-2.49,3.13-2.71,2.72-5.76A4.53,4.53,0,0,1,196.06,100.59Z"/><path class="ffa3e256-6587-4a26-88ff-9b91384043b4" d="M209.3,136.54c7.17-3.39,12.71-9.62,14.85-11.48a5.68,5.68,0,0,1,3.78.55c2.07,1,1.63,5,1.63,5a7.56,7.56,0,0,0-3.45,2.64c-1,1.31-6.36,8.06-9.52,11.36a19.92,19.92,0,0,1-4,3.36,7.82,7.82,0,0,1-6,.7,6,6,0,0,1-3.66-2.5C201,143,209.3,136.54,209.3,136.54Z"/><path class="b5c94072-1041-4de8-9469-280dc3158a40" d="M211.17,140a.27.27,0,0,1-.27-.23,25.17,25.17,0,0,0-.6-2.72.26.26,0,0,1,.18-.34.27.27,0,0,1,.34.18,25.3,25.3,0,0,1,.62,2.79.29.29,0,0,1-.22.32Z"/><path class="b5c94072-1041-4de8-9469-280dc3158a40" d="M196.9,101.37V101c-2.19.56-6.42,3.73-6.42,3.73l-3,3.43,3.67,1.43c2.18-1.43,5.23-3.62,6.48-6.08C197.43,103,197.16,102.11,196.9,101.37Z"/><path class="a0da2a72-0293-4e2b-83e9-343bad001b82" d="M201.09,97.09a12,12,0,0,0,.55-2.88,58.09,58.09,0,0,0,1.45-7.48c.12-1,2-1.21,2.27-.34s1.06,1.21,1.26.43a5,5,0,0,1,1.37-2.6,7.57,7.57,0,0,0,1.51-2.32,5.86,5.86,0,0,0,.58-2.54c-.12-2.45-5.84-8-12.32-7.8a9.87,9.87,0,0,0-6,2c-3,2.5-3.57,6.88-3.52,10.56,0,2.17-.26,8.91-.52,11.08-.91,7.74-3,8.6-6.83,13.72s-6.93,12.34-6.28,18.47,5.2,8.65,7.27,8.78a3.55,3.55,0,0,0,3.82-3.51c.23-2.22-2.91-8.1-2.07-12.71s4.42-9.52,9.87-13.71S200.09,100.73,201.09,97.09Z"/><path class="faa24c48-ddf7-4735-a81a-7aa33091a3cb" d="M205.47,86.71s-.1-1.34-1.09-1.64-1.91,1.24-1.71,3.27a3.41,3.41,0,0,0,2,2.74"/><g class="f64762b6-021b-4116-bc99-7749b46d58e3"><path class="b84da302-91f1-40e0-8de0-f84e407403fa" d="M197.06,71.6c1.83,0,10.58,2.19,11.71,12.42s4.45-8,4.45-8L208,72.52l-5-2h-4.16"/></g><path d="M209.67,86h-.06a.26.26,0,0,1-.26-.28.28.28,0,0,1,.28-.27,1.22,1.22,0,0,0,.59-.09.28.28,0,0,1,.37.12.29.29,0,0,1-.12.37A1.92,1.92,0,0,1,209.67,86Z"/><path d="M210.55,83.46a.6.6,0,0,0-.93.09,1.13,1.13,0,0,1,.55-.7C210.58,82.7,210.68,83.12,210.55,83.46Z"/></svg>