<svg id="a0bd01a2-82b9-4c25-83eb-c50bd9e49696" data-name="Layer 1" xmlns="http://www.w3.org/2000/svg" xmlns:xlink="http://www.w3.org/1999/xlink" viewBox="0 0 847 380"><defs><style>.b1c5d9cb-7ea9-467a-b326-cb84e4b49aee{fill:none;}.ab8d0fd4-97a2-4efe-bea2-e08fd3089613{fill:#261a4c;}.f820ca9d-7cfe-455b-8546-e3bcb5ef4ef0{fill:#e00;}.b5c15634-6dc9-49f6-a74d-e8ff0bcc00d9{fill:#fff;}.b04d7ba3-929f-47b5-ac5b-ed6bf9249184,.e33c5eb3-0b64-4b69-8453-220a464b50bf{fill:#a7c0e4;}.fe6dc00c-4827-4057-9a9d-01dd580b96b3{clip-path:url(#e6e24496-3e2d-4fa0-8730-3bbafe203dd2);}.a0aff286-d8fa-4bf3-b2f8-9075a733f05f{fill:#e2eaf6;}.fbca8172-5793-4213-9652-071e4b29371d{clip-path:url(#a8c129ea-7173-4b1b-977d-55fb6b45652f);}.b04d7ba3-929f-47b5-ac5b-ed6bf9249184{opacity:0.35;}.e968ade5-8768-429f-b0ea-2d8f20146c24{isolation:isolate;}.f08e6a32-e990-4632-935e-6b675f14f5cf{fill:#8f0000;}.b2b76ff0-c0cb-4ec9-8294-1477b3c9f009{fill:#f56d6d;}.ac0a8426-ca78-4eb1-b786-5839f8505b12{fill:#6c97d3;}.a2692811-8dc9-469d-9d49-4c254d60c14e{fill:#fddbdb;}.aa9ef8db-7fed-466c-8e72-9524a89de641{fill:#382672;}.e53ac4f0-24e4-4fa4-a57d-216febddc09d{fill:#f3f3f3;}.bdcc6a92-9b69-4c36-9b1e-913365ee6aac{fill:#dedede;}</style><clipPath id="e6e24496-3e2d-4fa0-8730-3bbafe203dd2"><circle class="b1c5d9cb-7ea9-467a-b326-cb84e4b49aee" cx="130.36" cy="278.77" r="51.37"/></clipPath><clipPath id="a8c129ea-7173-4b1b-977d-55fb6b45652f"><path id="e2856e4c-6f4d-4e6c-9751-205beb476214" data-name="Rectangle 4740-3" class="b1c5d9cb-7ea9-467a-b326-cb84e4b49aee" d="M507,200H847V380H507V200Z"/></clipPath></defs><path id="b9f88a79-7af2-4cc7-990d-a4e046e4b4f3" data-name="Rectangle 4740" class="ab8d0fd4-97a2-4efe-bea2-e08fd3089613" d="M53,200H393V380H53V200Z"/><path d="M318.62,348.11a2,2,0,0,1,0,.42c0,1.8-2.2,2.12-3.72,2.12-5.91,0-10.32-3.67-10.32-4.79a1,1,0,0,1,0-.24l-.44,1.1a2.17,2.17,0,0,0-.18.89c0,2.2,5,5.53,10.65,5.53,2.52,0,4.43-.95,4.43-2.65a6.12,6.12,0,0,0-.21-1.23Z"/><path class="f820ca9d-7cfe-455b-8546-e3bcb5ef4ef0" d="M314.94,350.65c1.52,0,3.72-.32,3.72-2.12a2,2,0,0,0,0-.42l-.91-3.93c-.21-.86-.39-1.26-1.91-2a17.76,17.76,0,0,0-4.5-1.59c-.71,0-.92.91-1.76.91s-1.41-.68-2.17-.68-1.21.5-1.57,1.52c0,0-1,2.88-1.16,3.3a1,1,0,0,0,0,.24c0,1.12,4.41,4.79,10.32,4.79m3.95-1.39a6.12,6.12,0,0,1,.21,1.23c0,1.7-1.91,2.65-4.43,2.65-5.68,0-10.65-3.33-10.65-5.53a2.17,2.17,0,0,1,.18-.89c-2,.11-4.69.47-4.69,2.8,0,3.83,9.06,8.54,16.24,8.54,5.5,0,6.89-2.49,6.89-4.45,0-1.55-1.34-3.3-3.75-4.35"/><path class="b5c15634-6dc9-49f6-a74d-e8ff0bcc00d9" d="M325.11,344.89h4.38a2.94,2.94,0,0,1,3,2.91,2.75,2.75,0,0,1-1.63,2.49l1.91,3.38h-2.41l-1.64-3.08h-1.47v3.08h-2.16Zm2.16,1.84v2.08h2a1.05,1.05,0,0,0,1.09-1,1.08,1.08,0,0,0-1.09-1.07Z"/><path class="b5c15634-6dc9-49f6-a74d-e8ff0bcc00d9" d="M336.33,353.79a3.48,3.48,0,0,1-3.61-3.43,3.41,3.41,0,0,1,3.46-3.44,3.37,3.37,0,0,1,3.35,3.57v.56H334.8a1.71,1.71,0,0,0,1.63,1.05,1.82,1.82,0,0,0,1.33-.5l1.34,1.19A4,4,0,0,1,336.33,353.79Zm-1.54-4.16h2.76a1.48,1.48,0,0,0-1.39-1A1.38,1.38,0,0,0,334.79,349.63Z"/><path class="b5c15634-6dc9-49f6-a74d-e8ff0bcc00d9" d="M345.12,353.18a3.07,3.07,0,0,1-1.79.59,3.42,3.42,0,1,1,1.76-6.39v-2.49l2-.63v9.41h-2ZM343.66,352a2,2,0,0,0,1.43-.53v-2.32a2.13,2.13,0,0,0-1.43-.52,1.69,1.69,0,1,0,0,3.37Z"/><path class="b5c15634-6dc9-49f6-a74d-e8ff0bcc00d9" d="M355.75,350.23h-3.36v3.44h-2.16v-8.78h2.16v3.37h3.36v-3.37h2.16v8.78h-2.16Z"/><path class="b5c15634-6dc9-49f6-a74d-e8ff0bcc00d9" d="M362.9,353.27a3,3,0,0,1-1.78.51,2.23,2.23,0,0,1-2.47-2.12c0-1.17.94-2,2.58-2a3.57,3.57,0,0,1,1.67.37v-.4c0-.64-.43-1-1.26-1a5.06,5.06,0,0,0-2,.48l-.6-1.52a6.93,6.93,0,0,1,2.73-.67c2,0,3.15.89,3.15,2.5v4.26h-2Zm-1.24-.91a2.31,2.31,0,0,0,1.24-.34v-.69a2.7,2.7,0,0,0-1.31-.35c-.62,0-1,.27-1,.68S361,352.36,361.66,352.36Z"/><path class="b5c15634-6dc9-49f6-a74d-e8ff0bcc00d9" d="M368.89,353.77c-1.39,0-2.17-.67-2.17-2v-3h-1.4V347h1.4v-1.52l2-.62V347h1.85v1.69h-1.85v2.54c0,.56.3.78.91.78a2.27,2.27,0,0,0,.89-.2l-.27,1.64A3.68,3.68,0,0,1,368.89,353.77Z"/><path class="e33c5eb3-0b64-4b69-8453-220a464b50bf" d="M198.46,220.6A70.77,70.77,0,0,0,173,225.18a62.37,62.37,0,0,1-33.28,3.19A51.24,51.24,0,1,0,130.5,330h.1a15.64,15.64,0,0,1,12.23,5.86A70.91,70.91,0,1,0,198.46,220.6Z"/><circle class="e33c5eb3-0b64-4b69-8453-220a464b50bf" cx="130.5" cy="278.77" r="51.24"/><polygon class="ab8d0fd4-97a2-4efe-bea2-e08fd3089613" points="253.13 336.59 253.11 340.2 142.68 339.73 142.47 265.18 146.14 265.19 253.13 336.59"/><g class="fe6dc00c-4827-4057-9a9d-01dd580b96b3"><rect class="b5c15634-6dc9-49f6-a74d-e8ff0bcc00d9" x="78.12" y="213.34" width="64.32" height="131.42"/><path class="ab8d0fd4-97a2-4efe-bea2-e08fd3089613" d="M142.86,345.17H77.71V212.92h65.15Zm-64.32-.83H142V213.75H78.54Z"/><rect class="ab8d0fd4-97a2-4efe-bea2-e08fd3089613" x="78.1" y="303.83" width="63.8" height="0.83"/><rect class="ab8d0fd4-97a2-4efe-bea2-e08fd3089613" x="78.1" y="278.44" width="63.8" height="0.83"/><rect class="f820ca9d-7cfe-455b-8546-e3bcb5ef4ef0" x="112.67" y="334.57" width="24.78" height="2.18"/><rect class="f820ca9d-7cfe-455b-8546-e3bcb5ef4ef0" x="82.85" y="263.33" width="20.63" height="2.18"/><rect class="f820ca9d-7cfe-455b-8546-e3bcb5ef4ef0" x="82.85" y="270.47" width="20.63" height="2.18"/><circle class="f820ca9d-7cfe-455b-8546-e3bcb5ef4ef0" cx="84.75" cy="335.73" r="1.65"/><circle class="f820ca9d-7cfe-455b-8546-e3bcb5ef4ef0" cx="94.67" cy="335.73" r="1.65"/><circle class="f820ca9d-7cfe-455b-8546-e3bcb5ef4ef0" cx="104.47" cy="335.73" r="1.65"/><circle class="f820ca9d-7cfe-455b-8546-e3bcb5ef4ef0" cx="113.13" cy="268.03" r="1.65"/><circle class="f820ca9d-7cfe-455b-8546-e3bcb5ef4ef0" cx="123.04" cy="268.03" r="1.65"/><circle class="f820ca9d-7cfe-455b-8546-e3bcb5ef4ef0" cx="88.76" cy="291.18" r="1.65"/><circle class="f820ca9d-7cfe-455b-8546-e3bcb5ef4ef0" cx="98.67" cy="291.18" r="1.65"/><circle class="f820ca9d-7cfe-455b-8546-e3bcb5ef4ef0" cx="85.67" cy="244.19" r="1.65"/><circle class="b5c15634-6dc9-49f6-a74d-e8ff0bcc00d9" cx="130.59" cy="224.16" r="1.12"/><circle class="b5c15634-6dc9-49f6-a74d-e8ff0bcc00d9" cx="127.05" cy="224.16" r="1.12"/><circle class="b5c15634-6dc9-49f6-a74d-e8ff0bcc00d9" cx="134.36" cy="224.16" r="1.12"/><rect class="b5c15634-6dc9-49f6-a74d-e8ff0bcc00d9" x="86.28" y="223.74" width="35.79" height="0.83"/><rect class="e33c5eb3-0b64-4b69-8453-220a464b50bf" x="81.9" y="309.24" width="56.49" height="11.7"/><rect class="b5c15634-6dc9-49f6-a74d-e8ff0bcc00d9" x="86.28" y="314.67" width="35.79" height="0.83"/><rect class="e33c5eb3-0b64-4b69-8453-220a464b50bf" x="107.64" y="284.06" width="30.74" height="14.02"/><rect class="b5c15634-6dc9-49f6-a74d-e8ff0bcc00d9" x="113.88" y="290.66" width="18.41" height="0.83"/><circle class="b5c15634-6dc9-49f6-a74d-e8ff0bcc00d9" cx="130.59" cy="315.09" r="1.12"/><circle class="b5c15634-6dc9-49f6-a74d-e8ff0bcc00d9" cx="134.19" cy="315.09" r="1.12"/><circle class="b5c15634-6dc9-49f6-a74d-e8ff0bcc00d9" cx="127.05" cy="315.09" r="1.12"/><circle class="f820ca9d-7cfe-455b-8546-e3bcb5ef4ef0" cx="136.6" cy="244.19" r="1.65"/><circle class="f820ca9d-7cfe-455b-8546-e3bcb5ef4ef0" cx="132.84" cy="268.03" r="1.65"/><rect class="ab8d0fd4-97a2-4efe-bea2-e08fd3089613" x="78.1" y="254.05" width="64.42" height="0.83"/><rect class="ab8d0fd4-97a2-4efe-bea2-e08fd3089613" x="78.1" y="233.49" width="64.42" height="0.83"/><rect class="f820ca9d-7cfe-455b-8546-e3bcb5ef4ef0" x="94.85" y="243.1" width="33.15" height="2.18"/><polygon class="ab8d0fd4-97a2-4efe-bea2-e08fd3089613" points="126.88 228.52 126.88 246.02 142.03 254.77 157.18 246.02 157.18 228.52 142.03 219.78 126.88 228.52"/></g><polygon class="ab8d0fd4-97a2-4efe-bea2-e08fd3089613" points="164.87 242.83 164.87 254.62 175.08 260.51 185.29 254.62 185.29 242.83 175.08 236.94 164.87 242.83"/><polygon class="b5c15634-6dc9-49f6-a74d-e8ff0bcc00d9" points="167.23 241.5 167.23 253.17 177.33 259 187.44 253.17 187.44 241.5 177.33 235.67 167.23 241.5"/><path class="f820ca9d-7cfe-455b-8546-e3bcb5ef4ef0" d="M177.33,259.48l-10.52-6.07V241.26l10.52-6.07,10.53,6.07v12.15Zm-9.69-6.55,9.69,5.6,9.7-5.6V241.74l-9.7-5.59-9.69,5.59Z"/><polygon class="ab8d0fd4-97a2-4efe-bea2-e08fd3089613" points="219.52 347.57 219.52 356.67 227.41 361.22 235.29 356.67 235.29 347.57 227.41 343.01 219.52 347.57"/><polygon class="b5c15634-6dc9-49f6-a74d-e8ff0bcc00d9" points="221.34 346.54 221.34 355.55 229.15 360.06 236.95 355.55 236.95 346.54 229.15 342.03 221.34 346.54"/><path class="f820ca9d-7cfe-455b-8546-e3bcb5ef4ef0" d="M229.15,360.54l-8.22-4.75V346.3l8.22-4.75,8.22,4.75v9.49Zm-7.39-5.23,7.39,4.27,7.39-4.27v-8.53l-7.39-4.27-7.39,4.27Z"/><path class="b5c15634-6dc9-49f6-a74d-e8ff0bcc00d9" d="M279.51,260.9a9.53,9.53,0,0,0-3.35.61,13.62,13.62,0,0,0-11.32-7.15,20.53,20.53,0,0,0-37.66-2.71A15.53,15.53,0,1,0,222.69,282h56c7.24,0,10.35-6.36,10.35-11.62A9.52,9.52,0,0,0,279.51,260.9Z"/><path class="e33c5eb3-0b64-4b69-8453-220a464b50bf" d="M278.68,282.46h-56a15.95,15.95,0,1,1,4.28-31.3,20.94,20.94,0,0,1,38.17,2.8,14.11,14.11,0,0,1,11.21,7,9.95,9.95,0,0,1,13.09,9.42C289.44,276.4,285.74,282.46,278.68,282.46Zm-56-31.06a15.12,15.12,0,1,0,0,30.23h56c7.29,0,9.93-6.7,9.93-11.21a9.11,9.11,0,0,0-9.1-9.1,8.93,8.93,0,0,0-3.2.58L276,262l-.18-.31a13.27,13.27,0,0,0-11-6.94h-.28l-.1-.27a20.11,20.11,0,0,0-36.89-2.65l-.16.31-.33-.1A15,15,0,0,0,222.69,251.4Z"/><polygon class="b5c15634-6dc9-49f6-a74d-e8ff0bcc00d9" points="129.48 227.24 129.48 244.53 144.45 253.18 159.43 244.53 159.43 227.24 144.45 218.59 129.48 227.24"/><path class="f820ca9d-7cfe-455b-8546-e3bcb5ef4ef0" d="M144.45,253.65l-15.39-8.88V227l15.39-8.89L159.84,227v17.77Zm-14.56-9.36,14.56,8.41L159,244.29V227.48l-14.56-8.41-14.56,8.41Z"/><rect class="b5c15634-6dc9-49f6-a74d-e8ff0bcc00d9" x="145.99" y="263.42" width="109.48" height="72.95" transform="translate(1.28 -0.85) rotate(0.24)"/><path class="f820ca9d-7cfe-455b-8546-e3bcb5ef4ef0" d="M255.73,337l-110.31-.47.32-73.78,110.3.47Zm-109.47-1.29,108.64.46.31-72.13-108.65-.46Z"/><rect class="f820ca9d-7cfe-455b-8546-e3bcb5ef4ef0" x="146.12" y="263.42" width="109.48" height="12.72" transform="translate(1.15 -0.85) rotate(0.24)"/><line class="f820ca9d-7cfe-455b-8546-e3bcb5ef4ef0" x1="151.31" y1="269.06" x2="196.45" y2="269.26"/><path class="b5c15634-6dc9-49f6-a74d-e8ff0bcc00d9" d="M196.45,269.67h0l-45.14-.19a.41.41,0,0,1-.41-.42.42.42,0,0,1,.42-.41l45.13.19a.41.41,0,0,1,.41.42A.41.41,0,0,1,196.45,269.67Z"/><circle class="b5c15634-6dc9-49f6-a74d-e8ff0bcc00d9" cx="250.72" cy="269.49" r="1.37"/><circle class="b5c15634-6dc9-49f6-a74d-e8ff0bcc00d9" cx="246.26" cy="269.47" r="1.37"/><rect class="e33c5eb3-0b64-4b69-8453-220a464b50bf" x="153.93" y="283.34" width="43.14" height="45.85"/><rect class="e33c5eb3-0b64-4b69-8453-220a464b50bf" x="204.22" y="283.32" width="43.14" height="17.7"/><rect class="e33c5eb3-0b64-4b69-8453-220a464b50bf" x="204.22" y="305.98" width="43.14" height="23.14"/><path class="b5c15634-6dc9-49f6-a74d-e8ff0bcc00d9" d="M107.4,324.25a10.72,10.72,0,0,1,3.8.69A15.42,15.42,0,0,1,124,316.82a23.29,23.29,0,0,1,42.72-3.07,17.62,17.62,0,1,1,5.1,34.48H108.34c-8.21,0-11.74-7.22-11.74-13.18A10.79,10.79,0,0,1,107.4,324.25Z"/><path class="e33c5eb3-0b64-4b69-8453-220a464b50bf" d="M171.86,348.65H108.34c-8,0-12.16-6.85-12.16-13.6a11.23,11.23,0,0,1,11.22-11.22,11,11,0,0,1,3.6.6,16,16,0,0,1,12.74-8A23.7,23.7,0,0,1,167,313.26a18,18,0,1,1,4.89,35.39Zm-64.46-24A10.4,10.4,0,0,0,97,335.05c0,9.37,6.78,12.77,11.33,12.77h63.52a17.21,17.21,0,1,0-5-33.67l-.33.1-.16-.31a22.87,22.87,0,0,0-42,3l-.09.26-.28,0a15.12,15.12,0,0,0-12.5,7.89l-.17.32-.34-.13A10.34,10.34,0,0,0,107.4,324.66Z"/><polygon class="ab8d0fd4-97a2-4efe-bea2-e08fd3089613" points="190.16 218.29 190.16 234.15 203.89 242.07 217.62 234.15 217.62 218.29 203.89 210.37 190.16 218.29"/><polygon class="b5c15634-6dc9-49f6-a74d-e8ff0bcc00d9" points="193.27 216.51 193.27 232.36 207 240.29 220.73 232.36 220.73 216.51 207 208.58 193.27 216.51"/><path class="f820ca9d-7cfe-455b-8546-e3bcb5ef4ef0" d="M207,240.77l-14.14-8.17V216.27L207,208.1l14.15,8.17V232.6Zm-13.31-8.65L207,239.81l13.32-7.69V216.75L207,209.06l-13.31,7.69Z"/><polygon class="ab8d0fd4-97a2-4efe-bea2-e08fd3089613" points="191.94 355.47 191.94 367.4 202.27 373.37 212.6 367.4 212.6 355.47 202.27 349.5 191.94 355.47"/><polygon class="b5c15634-6dc9-49f6-a74d-e8ff0bcc00d9" points="194.32 354.13 194.32 365.94 204.55 371.85 214.78 365.94 214.78 354.13 204.55 348.22 194.32 354.13"/><path class="f820ca9d-7cfe-455b-8546-e3bcb5ef4ef0" d="M204.55,372.32l-10.64-6.14V353.89l10.64-6.15,10.65,6.15v12.29Zm-9.81-6.62,9.81,5.67,9.82-5.67V354.36l-9.82-5.66-9.81,5.66Z"/><path id="a0dc76c2-0575-4989-a707-4f0cbef2db90" data-name="Rectangle 4740-3" class="a0aff286-d8fa-4bf3-b2f8-9075a733f05f" d="M507,200H847V380H507V200Z"/><path class="a0aff286-d8fa-4bf3-b2f8-9075a733f05f" d="M772.62,316.65a1.9,1.9,0,0,1,0,.41c0,1.81-2.2,2.12-3.72,2.12-5.91,0-10.32-3.67-10.32-4.79a.93.93,0,0,1,0-.23l-.44,1.1a2.13,2.13,0,0,0-.18.89c0,2.2,5,5.52,10.65,5.52,2.52,0,4.43-.94,4.43-2.64a6,6,0,0,0-.21-1.23Z"/><path class="a0aff286-d8fa-4bf3-b2f8-9075a733f05f" d="M768.94,319.18c1.52,0,3.72-.31,3.72-2.12a1.9,1.9,0,0,0,0-.41l-.91-3.93c-.21-.87-.39-1.26-1.91-2a17.83,17.83,0,0,0-4.5-1.6c-.71,0-.92.92-1.76.92s-1.41-.68-2.17-.68-1.21.5-1.57,1.52c0,0-1,2.88-1.16,3.3a.93.93,0,0,0,0,.23c0,1.12,4.41,4.79,10.32,4.79m3.95-1.38a6,6,0,0,1,.21,1.23c0,1.7-1.91,2.64-4.43,2.64-5.68,0-10.65-3.32-10.65-5.52a2.13,2.13,0,0,1,.18-.89c-2,.1-4.69.47-4.69,2.8,0,3.82,9.06,8.54,16.24,8.54,5.5,0,6.89-2.49,6.89-4.46,0-1.54-1.34-3.3-3.75-4.34"/><path class="a0aff286-d8fa-4bf3-b2f8-9075a733f05f" d="M779.11,313.42h4.38a3,3,0,0,1,3,2.91,2.76,2.76,0,0,1-1.63,2.5l1.91,3.37h-2.41l-1.64-3.07h-1.47v3.07h-2.16Zm2.16,1.85v2.08h2a1.05,1.05,0,0,0,1.09-1,1.07,1.07,0,0,0-1.09-1.06Z"/><path class="a0aff286-d8fa-4bf3-b2f8-9075a733f05f" d="M790.33,322.33a3.49,3.49,0,0,1-3.61-3.44,3.41,3.41,0,0,1,3.46-3.44,3.37,3.37,0,0,1,3.35,3.58v.55H788.8a1.72,1.72,0,0,0,1.63,1.06,1.79,1.79,0,0,0,1.33-.51l1.34,1.19A3.94,3.94,0,0,1,790.33,322.33Zm-1.54-4.17h2.76a1.49,1.49,0,0,0-1.39-1A1.38,1.38,0,0,0,788.79,318.16Z"/><path class="a0aff286-d8fa-4bf3-b2f8-9075a733f05f" d="M799.12,321.71a3,3,0,0,1-1.79.59,3.42,3.42,0,1,1,1.76-6.38v-2.5l2-.62v9.4h-2Zm-1.46-1.14a2,2,0,0,0,1.43-.52v-2.32a2.13,2.13,0,0,0-1.43-.52,1.68,1.68,0,1,0,0,3.36Z"/><path class="a0aff286-d8fa-4bf3-b2f8-9075a733f05f" d="M809.75,318.77h-3.36v3.43h-2.16v-8.78h2.16v3.38h3.36v-3.38h2.16v8.78h-2.16Z"/><path class="a0aff286-d8fa-4bf3-b2f8-9075a733f05f" d="M816.9,321.8a2.92,2.92,0,0,1-1.78.52,2.23,2.23,0,0,1-2.47-2.12c0-1.17.94-2.05,2.58-2.05a3.58,3.58,0,0,1,1.67.38v-.4c0-.64-.43-1-1.26-1a5.06,5.06,0,0,0-2,.48l-.6-1.52a7,7,0,0,1,2.73-.68c2,0,3.15.89,3.15,2.51v4.25h-2Zm-1.24-.9a2.31,2.31,0,0,0,1.24-.34v-.69a2.6,2.6,0,0,0-1.31-.35c-.62,0-1,.26-1,.68S815,320.9,815.66,320.9Z"/><path class="a0aff286-d8fa-4bf3-b2f8-9075a733f05f" d="M822.89,322.3c-1.39,0-2.17-.66-2.17-2v-3h-1.4v-1.69h1.4v-1.52l2-.63v2.15h1.85v1.69h-1.85v2.53c0,.57.3.78.91.78a2.1,2.1,0,0,0,.89-.2l-.27,1.65A3.68,3.68,0,0,1,822.89,322.3Z"/><g class="fbca8172-5793-4213-9652-071e4b29371d"><path class="b04d7ba3-929f-47b5-ac5b-ed6bf9249184" d="M521.9,274.33c.41,12,3.75,23.8,9.78,33.36,13,20.57,35.66,32.82,53.55,48.49,15.85,13.9,32.23,26,53.85,30.11,18.87,3.59,52.24.37,67.41-16.69,14.51-16.31,13.59-37.25,11.72-57.44-1.93-20.83,10.88-41,14.68-60.56,3.63-18.76.93-44.31-22-54.4-20.82-9.18-47-7.19-67.58,4.88-17.71,10.38-25.29,16.27-54.12,17.2-19.05.61-41.92,2.6-54.45,19C526.43,249.23,521.41,260,521.9,274.33Z"/><path class="e33c5eb3-0b64-4b69-8453-220a464b50bf" d="M623,272.07a14.29,14.29,0,0,0-14.08-14.29,25.61,25.61,0,0,0-24.35-24.64,37.5,37.5,0,0,0-69.95,5c-.52,0-1.05-.06-1.58-.06a24.15,24.15,0,0,0-.11,48.29h96A14.28,14.28,0,0,0,623,272.07Z"/><path class="b5c15634-6dc9-49f6-a74d-e8ff0bcc00d9" d="M523.46,234.91a.22.22,0,0,1-.11,0,.28.28,0,0,1-.16-.37,31.66,31.66,0,0,1,6.63-9.72,26.52,26.52,0,0,1,9.16-6,27.43,27.43,0,0,1,13.8-1.4.29.29,0,0,1,.25.33.29.29,0,0,1-.33.24,27,27,0,0,0-13.5,1.37,25.78,25.78,0,0,0-9,5.9,31.1,31.1,0,0,0-6.52,9.53A.3.3,0,0,1,523.46,234.91Z"/><path class="b5c15634-6dc9-49f6-a74d-e8ff0bcc00d9" d="M495.51,257.43h-.06a.28.28,0,0,1-.22-.35,17,17,0,0,1,9.64-12.15,21.42,21.42,0,0,1,7.43-2,.29.29,0,0,1,0,.58,20.8,20.8,0,0,0-7.23,1.94,16.21,16.21,0,0,0-9.31,11.74A.3.3,0,0,1,495.51,257.43Z"/><path class="ab8d0fd4-97a2-4efe-bea2-e08fd3089613" d="M514.59,269.61s-10.85,2.42-16.13,11.84a22.58,22.58,0,0,0,3.19,2.07S500.93,273.69,514.59,269.61Z"/><path class="ab8d0fd4-97a2-4efe-bea2-e08fd3089613" d="M611.9,257.72l-4.66,41.14h39.42C642.06,280.16,630.88,262.08,611.9,257.72Z"/><path class="e33c5eb3-0b64-4b69-8453-220a464b50bf" d="M710.93,229.78H615.07l-3.17,27.94c19,4.36,30.16,22.44,34.76,41.14H703.1Z"/><polygon class="b5c15634-6dc9-49f6-a74d-e8ff0bcc00d9" points="618.48 226.71 714.34 226.71 706.52 295.79 610.66 295.79 618.48 226.71"/><path class="f820ca9d-7cfe-455b-8546-e3bcb5ef4ef0" d="M706.78,296.08H610.33l7.89-69.66h96.45ZM611,295.5h95.28L714,227H618.74Z"/><polygon class="ab8d0fd4-97a2-4efe-bea2-e08fd3089613" points="618.48 226.71 714.34 226.71 712.84 239.99 616.98 239.99 618.48 226.71"/><path class="b5c15634-6dc9-49f6-a74d-e8ff0bcc00d9" d="M658.91,233.7H624.39a.38.38,0,0,1,0-.76h34.52a.38.38,0,1,1,0,.76Z"/><ellipse class="b5c15634-6dc9-49f6-a74d-e8ff0bcc00d9" cx="697.44" cy="233.32" rx="2.05" ry="1.83" transform="translate(30.28 542.77) rotate(-43.38)"/><ellipse class="b5c15634-6dc9-49f6-a74d-e8ff0bcc00d9" cx="705.12" cy="233.32" rx="2.05" ry="1.83" transform="translate(32.38 548.04) rotate(-43.38)"/><polygon class="a0aff286-d8fa-4bf3-b2f8-9075a733f05f" points="622.72 248.06 667.33 248.06 662.67 289.2 618.06 289.2 622.72 248.06"/><polygon class="a0aff286-d8fa-4bf3-b2f8-9075a733f05f" points="675.3 248.06 703.4 248.06 701.51 264.67 673.42 264.67 675.3 248.06"/><polygon class="a0aff286-d8fa-4bf3-b2f8-9075a733f05f" points="672.51 272.64 700.61 272.64 698.74 289.2 670.64 289.2 672.51 272.64"/><polygon class="a0aff286-d8fa-4bf3-b2f8-9075a733f05f" points="622.72 248.06 667.33 248.06 662.67 289.2 618.06 289.2 622.72 248.06"/><polygon class="a0aff286-d8fa-4bf3-b2f8-9075a733f05f" points="675.3 248.06 703.4 248.06 701.51 264.67 673.42 264.67 675.3 248.06"/><polygon class="a0aff286-d8fa-4bf3-b2f8-9075a733f05f" points="672.51 272.64 700.61 272.64 698.74 289.2 670.64 289.2 672.51 272.64"/><polygon class="b5c15634-6dc9-49f6-a74d-e8ff0bcc00d9" points="624.42 246.53 669.03 246.53 664.37 287.67 619.76 287.67 624.42 246.53"/><path class="f820ca9d-7cfe-455b-8546-e3bcb5ef4ef0" d="M664.63,288H619.44l4.73-41.72h45.19Zm-44.54-.58h44l4.6-40.56h-44Z"/><polygon class="b5c15634-6dc9-49f6-a74d-e8ff0bcc00d9" points="677.01 246.53 705.1 246.53 702.7 267.1 674.6 267.1 677.01 246.53"/><path class="f820ca9d-7cfe-455b-8546-e3bcb5ef4ef0" d="M703,267.39H674.27l2.48-21.15h28.68Zm-28-.58h27.52l2.34-20H677.26Z"/><polygon class="b5c15634-6dc9-49f6-a74d-e8ff0bcc00d9" points="674.22 271.11 702.32 271.11 700.44 287.67 672.35 287.67 674.22 271.11"/><path class="f820ca9d-7cfe-455b-8546-e3bcb5ef4ef0" d="M700.7,288H672L674,270.82h28.68Zm-28-.58h27.51l1.81-16H674.48Z"/><path class="b5c15634-6dc9-49f6-a74d-e8ff0bcc00d9" d="M618.54,295.57s17.23-1.7,32.27-17.71,29.84-6.37,40-7.07,17.46-20.24,42.93-22c17.51-1.2,34.56,9.32,34.84,27.28A28.5,28.5,0,0,1,740,304.79H667.31l-52.14.15Z"/><path class="e33c5eb3-0b64-4b69-8453-220a464b50bf" d="M614.34,305.52,618.12,295l.37,0a43.92,43.92,0,0,0,10.38-2.83,59.7,59.7,0,0,0,21.52-14.69c11.2-11.93,22.4-9.88,31.39-8.23a39.06,39.06,0,0,0,9,1c3.75-.26,7.13-3.25,11.41-7a71.56,71.56,0,0,1,12.39-9.33,44.28,44.28,0,0,1,19.13-5.64A39.53,39.53,0,0,1,748.41,250a32.9,32.9,0,0,1,12.2,7,26,26,0,0,1,8.58,19.14,28.43,28.43,0,0,1-8.28,20.54A29.13,29.13,0,0,1,740,305.37H667.31ZM619,296.1l-3,8.26,51.32-.15H740a28,28,0,0,0,20.1-8.41A27.36,27.36,0,0,0,768,276.09a24.84,24.84,0,0,0-8.2-18.3,31.92,31.92,0,0,0-11.77-6.71,38.5,38.5,0,0,0-14.25-1.7c-15.4,1.06-24,8.61-30.83,14.68-4.45,3.93-8,7-12.11,7.31a39.48,39.48,0,0,1-9.3-1c-4.4-.81-9.39-1.72-14.51-1-5.85.86-11,3.75-15.83,8.86a60.89,60.89,0,0,1-22,15A46.57,46.57,0,0,1,619,296.1Z"/><path class="b5c15634-6dc9-49f6-a74d-e8ff0bcc00d9" d="M655.66,279.8s6.47-8.41,19.57-6.06,13.25,2.83,18.35,2.18"/><path class="f820ca9d-7cfe-455b-8546-e3bcb5ef4ef0" d="M655.66,280.09a.27.27,0,0,1-.17-.06.29.29,0,0,1-.06-.4,17.05,17.05,0,0,1,5-4,22,22,0,0,1,14.89-2.19c2.9.52,5.16.95,7,1.29,6.37,1.21,7.35,1.39,11.28.9a.29.29,0,1,1,.07.57c-4,.51-5,.32-11.45-.9-1.82-.34-4.09-.77-7-1.29a21.48,21.48,0,0,0-14.48,2.11,17,17,0,0,0-4.81,3.85A.28.28,0,0,1,655.66,280.09Z"/><path class="b5c15634-6dc9-49f6-a74d-e8ff0bcc00d9" d="M732.12,254.82s16.82-3,27.33,10.33"/><path class="f820ca9d-7cfe-455b-8546-e3bcb5ef4ef0" d="M759.45,265.44a.3.3,0,0,1-.23-.11,27.54,27.54,0,0,0-17.43-10.07,31.38,31.38,0,0,0-9.62-.15.3.3,0,0,1-.34-.24.29.29,0,0,1,.24-.33,31.93,31.93,0,0,1,9.82.15A28.13,28.13,0,0,1,759.68,265a.31.31,0,0,1,0,.41A.32.32,0,0,1,759.45,265.44Z"/><polygon class="ab8d0fd4-97a2-4efe-bea2-e08fd3089613" points="693.73 268.67 568.61 268.67 566.46 286.11 691.53 286.11 693.73 268.67"/><polygon class="e33c5eb3-0b64-4b69-8453-220a464b50bf" points="566.46 286.11 557.99 354.77 682.86 354.77 691.53 286.11 566.46 286.11"/><polygon class="b5c15634-6dc9-49f6-a74d-e8ff0bcc00d9" points="573.11 264.67 698.23 264.67 687 354.83 561.88 354.83 573.11 264.67"/><path class="f820ca9d-7cfe-455b-8546-e3bcb5ef4ef0" d="M687.25,355.12H561.55l0-.33,11.27-90.41h125.7l0,.32Zm-125-.58H686.74L697.9,265H573.37Z"/><polygon class="f820ca9d-7cfe-455b-8546-e3bcb5ef4ef0" points="573.11 264.67 698.23 264.67 696.07 282 570.95 282 573.11 264.67"/><path class="b5c15634-6dc9-49f6-a74d-e8ff0bcc00d9" d="M625.79,273.79H580.72a.5.5,0,0,1,0-1h45.07a.5.5,0,0,1,0,1Z"/><ellipse class="b5c15634-6dc9-49f6-a74d-e8ff0bcc00d9" cx="676.07" cy="273.29" rx="2.7" ry="2.38" transform="translate(-3.75 537.1) rotate(-43.22)"/><ellipse class="b5c15634-6dc9-49f6-a74d-e8ff0bcc00d9" cx="686.09" cy="273.29" rx="2.7" ry="2.38" transform="translate(-1.04 543.96) rotate(-43.22)"/><polygon class="a0aff286-d8fa-4bf3-b2f8-9075a733f05f" points="578.33 292.53 636.55 292.53 629.86 346.23 571.64 346.23 578.33 292.53"/><polygon class="a0aff286-d8fa-4bf3-b2f8-9075a733f05f" points="646.96 292.53 683.63 292.53 680.93 314.21 644.25 314.21 646.96 292.53"/><polygon class="a0aff286-d8fa-4bf3-b2f8-9075a733f05f" points="642.96 324.62 679.63 324.62 676.94 346.23 640.27 346.23 642.96 324.62"/><polygon class="ab8d0fd4-97a2-4efe-bea2-e08fd3089613" points="578.33 292.53 636.55 292.53 629.86 346.23 571.64 346.23 578.33 292.53"/><polygon class="ab8d0fd4-97a2-4efe-bea2-e08fd3089613" points="646.96 292.53 683.63 292.53 680.93 314.21 644.25 314.21 646.96 292.53"/><polygon class="ab8d0fd4-97a2-4efe-bea2-e08fd3089613" points="642.96 324.62 679.63 324.62 676.94 346.23 640.27 346.23 642.96 324.62"/><polygon class="b5c15634-6dc9-49f6-a74d-e8ff0bcc00d9" points="580.58 290.53 638.8 290.53 632.11 344.23 573.89 344.23 580.58 290.53"/><path class="f820ca9d-7cfe-455b-8546-e3bcb5ef4ef0" d="M632.37,344.51H573.56l0-.32,6.72-53.95h58.81l0,.33Zm-58.16-.57h57.65l6.61-53.12H580.83Z"/><polygon class="b5c15634-6dc9-49f6-a74d-e8ff0bcc00d9" points="649.21 290.53 685.88 290.53 683.18 312.21 646.5 312.21 649.21 290.53"/><path class="f820ca9d-7cfe-455b-8546-e3bcb5ef4ef0" d="M683.43,312.5H646.18L649,290.24h37.26Zm-36.6-.58h36.09l2.63-21.1H649.46Z"/><polygon class="b5c15634-6dc9-49f6-a74d-e8ff0bcc00d9" points="645.21 322.62 681.88 322.62 679.19 344.23 642.52 344.23 645.21 322.62"/><path class="f820ca9d-7cfe-455b-8546-e3bcb5ef4ef0" d="M679.44,344.51H642.19L645,322.33h37.26Zm-36.6-.57h36.09l2.62-21H645.46Z"/><path class="b5c15634-6dc9-49f6-a74d-e8ff0bcc00d9" d="M535.25,274.52c-6.44-5.61-13.94-8-23.33-3.89-22.16,9.77-.53,41.88-16.69,35.86-14.69-5.47-32.46,8.09-32.46,27.71,0,.24,0,.48,0,.72a20.83,20.83,0,0,0,20.9,20.15l193.49.07s-24,3.36-46.25-19.67-40.76-8.25-55.47-11.71c-15.2-3.57-24.65-35.71-40.2-49.24"/><path class="e33c5eb3-0b64-4b69-8453-220a464b50bf" d="M673.77,355.89c-1.1,0-2.44,0-4-.18l-186.11-.06a21.54,21.54,0,0,1-15-6,21,21,0,0,1-6.51-14.7c0-.24,0-.48,0-.73a30.33,30.33,0,0,1,12.72-25.06c6.45-4.49,13.93-5.65,20.52-3.19,2.26.84,3.78.93,4.64.28,1.54-1.16,1.23-5,.87-9.33s-.81-9.72.39-14.6a17.11,17.11,0,0,1,10.36-12.2c8.65-3.81,16.48-2.51,23.94,4,6.76,5.88,12.34,15.17,17.73,24.16,7.1,11.82,13.79,23,22.22,25,4.54,1.06,9.54.34,14.84-.43,5.74-.83,12.24-1.77,19.07-.48,7.82,1.48,15,5.66,21.84,12.78a68.46,68.46,0,0,0,16.45,12.66,58.52,58.52,0,0,0,14.69,5.63,51.42,51.42,0,0,0,7.46,1.19h7.24l.08,1.15A29,29,0,0,1,673.77,355.89ZM488.39,305.84a22.56,22.56,0,0,0-12.82,4.25,29.2,29.2,0,0,0-12.22,24.11c0,.24,0,.47,0,.7a19.82,19.82,0,0,0,6.16,13.89,20.37,20.37,0,0,0,14.16,5.7l178.79.06-.21-.05a59.48,59.48,0,0,1-15-5.73,69.62,69.62,0,0,1-16.76-12.9c-15-15.55-28.25-13.64-39.91-11.95-5.41.78-10.52,1.52-15.27.41-8.91-2.1-15.73-13.46-23-25.49-5.35-8.91-10.88-18.13-17.5-23.89a22.58,22.58,0,0,0-10.29-5.46,20.07,20.07,0,0,0-12.42,1.67,16,16,0,0,0-9.71,11.42c-1.15,4.69-.73,9.76-.36,14.23.41,4.91.73,8.79-1.32,10.35-1.21.92-3,.88-5.75-.13A19,19,0,0,0,488.39,305.84Z"/><path class="b5c15634-6dc9-49f6-a74d-e8ff0bcc00d9" d="M568.35,325.73s10.12,5.32,21,2.83,12.85-2.93,19.83-1.08"/><path class="f820ca9d-7cfe-455b-8546-e3bcb5ef4ef0" d="M583.34,329.56A36.45,36.45,0,0,1,568.19,326a.34.34,0,1,1,.32-.61c.1.05,10.14,5.23,20.75,2.79s12.89-3,20-1.07a.34.34,0,0,1,.25.42.34.34,0,0,1-.42.24c-6.94-1.84-8.88-1.39-19.66,1.09A27.45,27.45,0,0,1,583.34,329.56Z"/><path class="b5c15634-6dc9-49f6-a74d-e8ff0bcc00d9" d="M538.84,285.9s-9.79-14-19.58-12.38-11.51,11.32-11.51,11.32"/><path class="f820ca9d-7cfe-455b-8546-e3bcb5ef4ef0" d="M538.84,286.25a.35.35,0,0,1-.28-.15c-.1-.14-9.78-13.78-19.24-12.25a12.88,12.88,0,0,0-9.18,6.09,15.32,15.32,0,0,0-2.05,5,.35.35,0,1,1-.68-.12,16,16,0,0,1,2.13-5.19,13.75,13.75,0,0,1,9.67-6.41c4.11-.67,8.86,1.3,13.74,5.68a45.52,45.52,0,0,1,6.17,6.84.35.35,0,0,1-.08.48A.31.31,0,0,1,538.84,286.25Z"/><path class="b5c15634-6dc9-49f6-a74d-e8ff0bcc00d9" d="M489,310.6s-13.85,0-17.88,13.43"/><path class="f820ca9d-7cfe-455b-8546-e3bcb5ef4ef0" d="M471.07,324.37H471a.35.35,0,0,1-.23-.43,18.22,18.22,0,0,1,10.65-12,21.07,21.07,0,0,1,7.56-1.7h0a.34.34,0,0,1,.34.34.35.35,0,0,1-.34.35h0a20.78,20.78,0,0,0-7.32,1.65,17.37,17.37,0,0,0-10.23,11.53A.35.35,0,0,1,471.07,324.37Z"/><path class="ab8d0fd4-97a2-4efe-bea2-e08fd3089613" d="M610.53,241.06h-31a.44.44,0,0,1-.43-.44.43.43,0,0,1,.43-.43h31a.44.44,0,0,1,.44.43A.44.44,0,0,1,610.53,241.06Z"/><path class="ab8d0fd4-97a2-4efe-bea2-e08fd3089613" d="M593,247H562a.44.44,0,0,1-.43-.44.43.43,0,0,1,.43-.43h31a.44.44,0,0,1,.44.43A.44.44,0,0,1,593,247Z"/><path class="ab8d0fd4-97a2-4efe-bea2-e08fd3089613" d="M608.65,253.08h-31a.44.44,0,0,1-.44-.43.44.44,0,0,1,.44-.44h31a.44.44,0,0,1,.43.44A.43.43,0,0,1,608.65,253.08Z"/><path class="ab8d0fd4-97a2-4efe-bea2-e08fd3089613" d="M551.57,290.17h-31a.44.44,0,0,1-.43-.44.43.43,0,0,1,.43-.43h31a.44.44,0,0,1,.44.43A.44.44,0,0,1,551.57,290.17Z"/><path class="ab8d0fd4-97a2-4efe-bea2-e08fd3089613" d="M560.84,296H529.26a.43.43,0,0,1-.43-.43.44.44,0,0,1,.43-.44h31.58a.44.44,0,0,1,.44.44A.44.44,0,0,1,560.84,296Z"/><path class="ab8d0fd4-97a2-4efe-bea2-e08fd3089613" d="M524.34,296h-8.69a.44.44,0,0,1-.44-.43.44.44,0,0,1,.44-.44h8.69a.44.44,0,0,1,.43.44A.43.43,0,0,1,524.34,296Z"/><path class="ab8d0fd4-97a2-4efe-bea2-e08fd3089613" d="M551.28,302.62H525.21a.44.44,0,0,1-.44-.43.44.44,0,0,1,.44-.44h26.07a.44.44,0,0,1,.44.44A.44.44,0,0,1,551.28,302.62Z"/><path class="e33c5eb3-0b64-4b69-8453-220a464b50bf" d="M647.33,355.17a18.21,18.21,0,0,0,17.74,14.13c.4,0,.79,0,1.18,0h37.64c2.82-4.66,5.5-9.32,8-14.09Z"/><path class="e33c5eb3-0b64-4b69-8453-220a464b50bf" d="M711.93,355.17c-2.54,4.77-5.22,9.43-8,14.09h15.87v0a17.17,17.17,0,0,0,15.73-14.05Z"/><path class="f820ca9d-7cfe-455b-8546-e3bcb5ef4ef0" d="M735.77,352.1A17.15,17.15,0,0,0,718.61,335a17.47,17.47,0,0,0-4.55.61A26.65,26.65,0,0,0,663.54,333a18.2,18.2,0,0,0-16.21,22.2h88.16A17.18,17.18,0,0,0,735.77,352.1Z"/><path class="b5c15634-6dc9-49f6-a74d-e8ff0bcc00d9" d="M739.13,350.9a17.17,17.17,0,0,0-21.71-16.54,26.64,26.64,0,0,0-50.52-2.6,18.2,18.2,0,0,0,1.53,36.34c.4,0,.79,0,1.18,0h53.51v0A17.16,17.16,0,0,0,739.13,350.9Z"/><path class="f820ca9d-7cfe-455b-8546-e3bcb5ef4ef0" d="M668.43,368.39a18.49,18.49,0,0,1-1.74-36.9A26.93,26.93,0,0,1,717.62,334a17.45,17.45,0,0,1,21.8,16.89,17.49,17.49,0,0,1-16,17.39v.06H669.62C669.17,368.38,668.79,368.39,668.43,368.39Zm23.3-53.32a26.38,26.38,0,0,0-24.56,16.8l-.07.17h-.18a17.91,17.91,0,0,0,1.51,35.76c.35,0,.72,0,1.16,0h53.25v0l.26,0a16.86,16.86,0,1,0-5.6-33.09l-.28.08-.08-.28A26.42,26.42,0,0,0,691.73,315.07Z"/><path class="a0aff286-d8fa-4bf3-b2f8-9075a733f05f" d="M691.66,314.79s-21.73,2-14.2,22a12.33,12.33,0,0,0-10.14-4.92S670.8,316.53,691.66,314.79Z"/><path class="a0aff286-d8fa-4bf3-b2f8-9075a733f05f" d="M655.15,337.39c-4.92,4.64-4.06,25.79,13,25.79h58.22A13.51,13.51,0,0,0,738,356.79c.09-.15.18-.29.26-.44s-3.7,11.75-16.16,11.75-55.35-.08-55.35-.08-5.65.79-12.67-6.95S651.09,340.29,655.15,337.39Z"/><path class="a0aff286-d8fa-4bf3-b2f8-9075a733f05f" d="M717.44,334.49s-7,2.32-9.56,11.3c0,0,7.53-14.19,22.89-9.56C730.77,336.23,723.24,332.47,717.44,334.49Z"/><path class="f820ca9d-7cfe-455b-8546-e3bcb5ef4ef0" d="M668.43,368.39a18.49,18.49,0,0,1-1.74-36.9A26.93,26.93,0,0,1,717.62,334a17.45,17.45,0,0,1,21.8,16.89,17.49,17.49,0,0,1-16,17.39v.06H669.62C669.17,368.38,668.79,368.39,668.43,368.39Zm23.3-53.32a26.38,26.38,0,0,0-24.56,16.8l-.07.17h-.18a17.91,17.91,0,0,0,1.51,35.76c.35,0,.72,0,1.16,0h53.25v0l.26,0a16.86,16.86,0,1,0-5.6-33.09l-.28.08-.08-.28A26.42,26.42,0,0,0,691.73,315.07Z"/></g><g id="a2c8b037-1a54-4af8-8ab9-d180d7c6d40e" data-name="A -"><g class="e968ade5-8768-429f-b0ea-2d8f20146c24"><path d="M721.8,42.45l2.62-6.35h1.12l2.6,6.35h-1l-.73-1.86h-2.85l-.73,1.86Zm2-2.65h2.22L725,37Z"/><path d="M730.46,40.27V39.5h3.27v.77Z"/><path d="M737.41,42.45V37l-1.14.49v-.8l1.48-.61h.57v6.35Z"/><path d="M741.93,42.54a2.34,2.34,0,0,1-1.34-.39,2.52,2.52,0,0,1-.9-1.08,3.73,3.73,0,0,1-.33-1.61,4.25,4.25,0,0,1,.36-1.82,2.89,2.89,0,0,1,1-1.21,2.72,2.72,0,0,1,1.54-.43,2.8,2.8,0,0,1,.86.13,2.21,2.21,0,0,1,.75.38l-.46.65a2.38,2.38,0,0,0-.58-.28,2,2,0,0,0-.65-.1,1.68,1.68,0,0,0-1.05.32,2,2,0,0,0-.67.9,3.79,3.79,0,0,0-.25,1.42,2.23,2.23,0,0,1,.81-.69,2.19,2.19,0,0,1,1-.25,2.41,2.41,0,0,1,1.1.25,1.88,1.88,0,0,1,.75.7,1.85,1.85,0,0,1,.28,1,2.08,2.08,0,0,1-.29,1.08,2.11,2.11,0,0,1-.79.75A2.34,2.34,0,0,1,741.93,42.54Zm0-3.36a2,2,0,0,0-.9.22,2.36,2.36,0,0,0-.73.61,2.75,2.75,0,0,0,.31.93,1.61,1.61,0,0,0,.56.62,1.39,1.39,0,0,0,.78.22,1.48,1.48,0,0,0,.7-.17,1.14,1.14,0,0,0,.49-.46,1.34,1.34,0,0,0,.18-.69,1.21,1.21,0,0,0-.18-.66,1.18,1.18,0,0,0-.49-.45A1.53,1.53,0,0,0,741.89,39.18Z"/><path d="M746.15,39.32a1.24,1.24,0,0,1-1-.46,1.78,1.78,0,0,1-.38-1.18,1.72,1.72,0,0,1,.39-1.17,1.24,1.24,0,0,1,1-.46,1.22,1.22,0,0,1,1,.46,2,2,0,0,1,0,2.35A1.22,1.22,0,0,1,746.15,39.32Zm0-.52a.71.71,0,0,0,.6-.3,1.4,1.4,0,0,0,.22-.82,1.45,1.45,0,0,0-.22-.82.71.71,0,0,0-.6-.3.69.69,0,0,0-.58.3,1.37,1.37,0,0,0-.22.82,1.4,1.4,0,0,0,.21.82A.7.7,0,0,0,746.15,38.8Zm-.32,3.65,3.57-6.35h.72l-3.59,6.35Zm4,0a1.25,1.25,0,0,1-1-.45,1.78,1.78,0,0,1-.38-1.18,1.8,1.8,0,0,1,.38-1.18,1.28,1.28,0,0,1,1-.45,1.26,1.26,0,0,1,1,.45,1.86,1.86,0,0,1,.39,1.18,1.84,1.84,0,0,1-.39,1.18A1.26,1.26,0,0,1,749.84,42.49Zm0-.51a.71.71,0,0,0,.59-.3,1.33,1.33,0,0,0,.22-.82,1.35,1.35,0,0,0-.22-.82.73.73,0,0,0-1.18,0,1.35,1.35,0,0,0-.22.82,1.33,1.33,0,0,0,.22.82A.68.68,0,0,0,749.84,42Z"/></g></g><g id="a2b04349-da87-4d7c-9370-a8b876a3a160" data-name="B -"><g class="e968ade5-8768-429f-b0ea-2d8f20146c24"><path d="M722.44,62.29V55.93h2.74a2.75,2.75,0,0,1,1.09.21,1.69,1.69,0,0,1,.72.59,1.55,1.55,0,0,1,.26.88,1.44,1.44,0,0,1-.24.82,1.6,1.6,0,0,1-.66.55,1.9,1.9,0,0,1,.83.59,1.39,1.39,0,0,1,.31.9,1.71,1.71,0,0,1-.27,1,1.63,1.63,0,0,1-.76.63,2.79,2.79,0,0,1-1.16.23Zm.95-3.66h1.73a1.33,1.33,0,0,0,.86-.25A.89.89,0,0,0,726,57a1.34,1.34,0,0,0-.86-.26h-1.73Zm0,2.85h1.84a1.46,1.46,0,0,0,.94-.28,1,1,0,0,0,0-1.52,1.47,1.47,0,0,0-.94-.29h-1.84Z"/><path d="M730.19,60.11v-.77h3.27v.77Z"/><path d="M736.72,62.29l3-5.58H736v-.78h4.65v.68l-3,5.68Z"/><path d="M742.6,59.16a1.23,1.23,0,0,1-1-.46,1.73,1.73,0,0,1-.38-1.18,1.82,1.82,0,0,1,.38-1.18,1.26,1.26,0,0,1,1-.45,1.23,1.23,0,0,1,1,.45,1.77,1.77,0,0,1,.39,1.18,1.73,1.73,0,0,1-.39,1.18A1.2,1.2,0,0,1,742.6,59.16Zm0-.52a.71.71,0,0,0,.59-.3,1.33,1.33,0,0,0,.22-.82,1.35,1.35,0,0,0-.22-.82.71.71,0,0,0-.59-.3.7.7,0,0,0-.59.3,1.35,1.35,0,0,0-.22.82,1.33,1.33,0,0,0,.22.82A.68.68,0,0,0,742.6,58.64Zm-.33,3.65,3.57-6.36h.72L743,62.29Zm4,0a1.26,1.26,0,0,1-1-.45,1.8,1.8,0,0,1-.38-1.18,1.75,1.75,0,0,1,.39-1.18,1.24,1.24,0,0,1,1-.45,1.26,1.26,0,0,1,1,.45,2,2,0,0,1,0,2.36A1.26,1.26,0,0,1,746.28,62.33Zm0-.51a.68.68,0,0,0,.59-.3,1.35,1.35,0,0,0,.23-.82,1.33,1.33,0,0,0-.23-.82.69.69,0,0,0-.59-.31.72.72,0,0,0-.59.31,1.4,1.4,0,0,0-.22.82,1.35,1.35,0,0,0,.22.82A.68.68,0,0,0,746.28,61.82Z"/></g></g><g id="f3fd8e9d-665a-4887-bbb4-94b0106cf36a" data-name="C -"><g class="e968ade5-8768-429f-b0ea-2d8f20146c24"><path d="M725.49,81.51a3.51,3.51,0,0,1-1.31-.25,3.32,3.32,0,0,1-1.06-.7,3.15,3.15,0,0,1-.71-1,3.43,3.43,0,0,1,0-2.57,3,3,0,0,1,.71-1,3.32,3.32,0,0,1,1.06-.7,3.55,3.55,0,0,1,1.31-.25,3.63,3.63,0,0,1,1,.14,3.42,3.42,0,0,1,.88.37,3.7,3.7,0,0,1,.71.6l-.65.65a2.21,2.21,0,0,0-.86-.65,2.59,2.59,0,0,0-1.06-.23,2.18,2.18,0,0,0-.93.19,2.29,2.29,0,0,0-.75.5,2.33,2.33,0,0,0-.5.77,2.54,2.54,0,0,0,0,1.88,2.33,2.33,0,0,0,.5.77,2.24,2.24,0,0,0,.76.5,2.29,2.29,0,0,0,.94.19,2.51,2.51,0,0,0,1-.23,2.38,2.38,0,0,0,.84-.63l.63.64a3.33,3.33,0,0,1-.71.58,3.07,3.07,0,0,1-.87.38A3.43,3.43,0,0,1,725.49,81.51Z"/><path d="M730.64,79.23v-.77h3.26v.77Z"/><path d="M736.67,81.41v-.64L739.25,78a5.85,5.85,0,0,0,.4-.49,1.5,1.5,0,0,0,.21-.42,1.39,1.39,0,0,0,.06-.4.89.89,0,0,0-.35-.72,1.37,1.37,0,0,0-.87-.27,1.84,1.84,0,0,0-.81.17,3.36,3.36,0,0,0-.85.6l-.49-.6a3.75,3.75,0,0,1,1.05-.71,2.72,2.72,0,0,1,1.12-.24,2.55,2.55,0,0,1,1.07.22,1.73,1.73,0,0,1,.72.61,1.48,1.48,0,0,1,.26.89,2.14,2.14,0,0,1-.08.58,1.84,1.84,0,0,1-.29.55,6.32,6.32,0,0,1-.55.68l-2.07,2.18h3.12v.76Z"/><path d="M743.8,81.51a3.1,3.1,0,0,1-2.21-.87l.53-.59a3.4,3.4,0,0,0,.82.54,2.26,2.26,0,0,0,.88.16,1.6,1.6,0,0,0,.75-.16,1.22,1.22,0,0,0,.5-.48,1.31,1.31,0,0,0,.17-.69,1.21,1.21,0,0,0-.39-.93,1.57,1.57,0,0,0-1.05-.35,2.89,2.89,0,0,0-.65.08,3.46,3.46,0,0,0-.66.26l-.61-.19.15-3.24h3.77v.76h-3l-.09,2a2.75,2.75,0,0,1,.67-.25,3.1,3.1,0,0,1,.69-.08,2.41,2.41,0,0,1,1.1.24,1.78,1.78,0,0,1,.74.67,2,2,0,0,1,.25,1,2.06,2.06,0,0,1-.29,1.12,2.1,2.1,0,0,1-.82.74A2.53,2.53,0,0,1,743.8,81.51Z"/><path d="M748.15,78.28a1.27,1.27,0,0,1-1-.46,1.78,1.78,0,0,1-.38-1.18,1.75,1.75,0,0,1,.39-1.18,1.24,1.24,0,0,1,1-.45,1.26,1.26,0,0,1,1,.45,1.86,1.86,0,0,1,.39,1.18,1.84,1.84,0,0,1-.39,1.18A1.27,1.27,0,0,1,748.15,78.28Zm0-.52a.68.68,0,0,0,.59-.3,1.33,1.33,0,0,0,.23-.82,1.35,1.35,0,0,0-.23-.82.68.68,0,0,0-.59-.3.71.71,0,0,0-.59.3,1.42,1.42,0,0,0-.22.82,1.33,1.33,0,0,0,.22.82A.68.68,0,0,0,748.15,77.76Zm-.33,3.65,3.58-6.36h.71l-3.58,6.36Zm4,0a1.24,1.24,0,0,1-1-.45,1.75,1.75,0,0,1-.39-1.18,1.73,1.73,0,0,1,.39-1.18,1.27,1.27,0,0,1,1-.46,1.25,1.25,0,0,1,1,.46,1.73,1.73,0,0,1,.39,1.18,1.75,1.75,0,0,1-.39,1.18A1.24,1.24,0,0,1,751.83,81.45Zm0-.52a.7.7,0,0,0,.6-.29,1.35,1.35,0,0,0,.22-.82,1.33,1.33,0,0,0-.22-.82.7.7,0,0,0-.6-.31.68.68,0,0,0-.58.31,1.33,1.33,0,0,0-.23.82,1.42,1.42,0,0,0,.22.82A.69.69,0,0,0,751.83,80.93Z"/></g></g><rect id="eb5510b3-a213-4a25-8d71-1565613d6343" data-name="Rectangle 377-2" class="f820ca9d-7cfe-455b-8546-e3bcb5ef4ef0" x="702.39" y="54.26" width="10.18" height="10.18"/><rect id="b6444e67-57a2-4474-af80-d5715ad59604" data-name="Rectangle 380-2" class="f08e6a32-e990-4632-935e-6b675f14f5cf" x="702.39" y="73.2" width="10.18" height="10.18"/><rect id="bb0b6ad0-f7b5-4826-9b92-a6ea4ef10bbf" data-name="Rectangle 382-2" class="b2b76ff0-c0cb-4ec9-8294-1477b3c9f009" x="702.2" y="35.12" width="10" height="10"/><g id="f6877df3-3ea2-45fc-96df-dd71c1a5766b" data-name="D -"><g class="e968ade5-8768-429f-b0ea-2d8f20146c24"><path d="M783.55,42.45V36.1h2.23a3.75,3.75,0,0,1,1.33.23A3.18,3.18,0,0,1,788.88,38a3.33,3.33,0,0,1,0,2.53,3.24,3.24,0,0,1-.71,1,3.17,3.17,0,0,1-1,.66,3.63,3.63,0,0,1-1.34.24Zm1-.85h1.3a2.41,2.41,0,0,0,.93-.18,2.17,2.17,0,0,0,.75-.49,2.08,2.08,0,0,0,.49-.74,2.27,2.27,0,0,0,.18-.91,2.32,2.32,0,0,0-.18-.92,2.25,2.25,0,0,0-.5-.74,2.33,2.33,0,0,0-.74-.49,2.42,2.42,0,0,0-.94-.18H784.5Z"/><path d="M791.81,40.27V39.5h3.26v.77Z"/><path d="M798.33,42.45l3-5.58h-3.7V36.1h4.65v.67l-2.95,5.68Z"/><path d="M804.21,39.32a1.22,1.22,0,0,1-1-.46,2,2,0,0,1,0-2.35,1.24,1.24,0,0,1,1-.46,1.22,1.22,0,0,1,1,.46,2,2,0,0,1,0,2.35A1.22,1.22,0,0,1,804.21,39.32Zm0-.52a.71.71,0,0,0,.6-.3,1.33,1.33,0,0,0,.22-.82,1.37,1.37,0,0,0-.22-.82.71.71,0,0,0-.6-.3.69.69,0,0,0-.58.3,1.37,1.37,0,0,0-.23.82,1.4,1.4,0,0,0,.22.82A.7.7,0,0,0,804.21,38.8Zm-.32,3.65,3.57-6.35h.72l-3.59,6.35Zm4,0a1.25,1.25,0,0,1-1-.45,1.78,1.78,0,0,1-.38-1.18,1.8,1.8,0,0,1,.38-1.18,1.26,1.26,0,0,1,1-.45,1.23,1.23,0,0,1,1,.45,1.81,1.81,0,0,1,.4,1.18,1.79,1.79,0,0,1-.4,1.18A1.23,1.23,0,0,1,807.9,42.49Zm0-.51a.71.71,0,0,0,.59-.3,1.33,1.33,0,0,0,.22-.82,1.35,1.35,0,0,0-.22-.82.71.71,0,0,0-.59-.3.7.7,0,0,0-.59.3,1.35,1.35,0,0,0-.22.82,1.33,1.33,0,0,0,.22.82A.68.68,0,0,0,807.9,42Z"/></g></g><g id="af08ee3f-281f-4e5a-948c-b7211520073d" data-name="E -"><g class="e968ade5-8768-429f-b0ea-2d8f20146c24"><path d="M783.55,62.29V55.93h4.68v.84H784.5v1.91h2.43v.8H784.5v2h3.77v.84Z"/><path d="M790.91,60.11v-.77h3.27v.77Z"/><path d="M799.27,62.39a2.87,2.87,0,0,1-1.21-.24,2,2,0,0,1-.82-.65,1.58,1.58,0,0,1-.3-1,1.39,1.39,0,0,1,.18-.69,1.57,1.57,0,0,1,.5-.56,2.21,2.21,0,0,1,.73-.33,1.85,1.85,0,0,1-.85-.55,1.32,1.32,0,0,1-.33-.88,1.47,1.47,0,0,1,.27-.87,1.82,1.82,0,0,1,.75-.61,2.51,2.51,0,0,1,1.08-.22,2.47,2.47,0,0,1,1.07.22,1.82,1.82,0,0,1,.75.61,1.49,1.49,0,0,1,.27.87,1.36,1.36,0,0,1-.32.88,1.88,1.88,0,0,1-.86.55,2,2,0,0,1,1,.59,1.41,1.41,0,0,1,.39,1,1.53,1.53,0,0,1-.3.94,2,2,0,0,1-.82.66A2.86,2.86,0,0,1,799.27,62.39Zm0-.72a1.75,1.75,0,0,0,.74-.15,1.28,1.28,0,0,0,.52-.42,1.1,1.1,0,0,0,.19-.61,1,1,0,0,0-.19-.59,1.28,1.28,0,0,0-.52-.42,1.75,1.75,0,0,0-.74-.15,1.79,1.79,0,0,0-.75.15,1.24,1.24,0,0,0-.51.42,1,1,0,0,0,0,1.2,1.24,1.24,0,0,0,.51.42A1.79,1.79,0,0,0,799.27,61.67Zm0-3a1.37,1.37,0,0,0,.64-.14,1,1,0,0,0,.44-.37.87.87,0,0,0,.16-.52.93.93,0,0,0-.16-.54,1,1,0,0,0-.44-.38,1.5,1.5,0,0,0-.64-.14,1.47,1.47,0,0,0-.64.14,1.07,1.07,0,0,0-.44.37.94.94,0,0,0-.17.54.88.88,0,0,0,.17.53,1.07,1.07,0,0,0,.44.37A1.34,1.34,0,0,0,799.27,58.63Z"/><path d="M803.75,59.16a1.24,1.24,0,0,1-1-.46,2,2,0,0,1,0-2.36,1.24,1.24,0,0,1,1-.45,1.26,1.26,0,0,1,1,.45,1.88,1.88,0,0,1,.39,1.18,1.84,1.84,0,0,1-.39,1.18A1.24,1.24,0,0,1,803.75,59.16Zm0-.52a.68.68,0,0,0,.59-.3,1.33,1.33,0,0,0,.23-.82,1.35,1.35,0,0,0-.23-.82.68.68,0,0,0-.59-.3.71.71,0,0,0-.59.3,1.42,1.42,0,0,0-.22.82,1.33,1.33,0,0,0,.22.82A.7.7,0,0,0,803.75,58.64Zm-.33,3.65L807,55.93h.72l-3.59,6.36Zm4,0a1.24,1.24,0,0,1-1-.45,2,2,0,0,1,0-2.36,1.26,1.26,0,0,1,1-.45,1.23,1.23,0,0,1,1,.45,2,2,0,0,1,0,2.36A1.23,1.23,0,0,1,807.43,62.33Zm0-.51a.71.71,0,0,0,.6-.3,1.35,1.35,0,0,0,.22-.82,1.33,1.33,0,0,0-.22-.82.72.72,0,0,0-.6-.31.7.7,0,0,0-.58.31,1.33,1.33,0,0,0-.22.82,1.42,1.42,0,0,0,.21.82A.71.71,0,0,0,807.43,61.82Z"/></g></g><g id="fe43c928-c8fc-4f8f-bd96-351bf3285f2f" data-name="F -"><g class="e968ade5-8768-429f-b0ea-2d8f20146c24"><path d="M783.55,81.41V75.05h4.68v.84H784.5v2H787v.81H784.5v2.76Z"/><path d="M790.84,79.23v-.77h3.26v.77Z"/><path d="M799.05,81.51a3.43,3.43,0,0,1-1.28-.24,3,3,0,0,1-1-.7l.58-.55a2.75,2.75,0,0,0,.79.56,2.38,2.38,0,0,0,.93.16,1.84,1.84,0,0,0,.76-.14,1.22,1.22,0,0,0,.51-.4,1,1,0,0,0,.18-.59,1,1,0,0,0-.15-.54,1.13,1.13,0,0,0-.43-.38,1.38,1.38,0,0,0-.62-.13h-.79v-.74h.71a1,1,0,0,0,.77-.28,1,1,0,0,0,.29-.73.94.94,0,0,0-.16-.55,1.22,1.22,0,0,0-.46-.38,1.36,1.36,0,0,0-.65-.15,1.92,1.92,0,0,0-.84.18,2.28,2.28,0,0,0-.75.59l-.59-.57a3,3,0,0,1,1-.73A3.16,3.16,0,0,1,799,75a2.5,2.5,0,0,1,1.09.23,1.88,1.88,0,0,1,.76.63,1.62,1.62,0,0,1,.27.91,1.35,1.35,0,0,1-.33.9,1.67,1.67,0,0,1-.86.55,1.87,1.87,0,0,1,1,.54,1.32,1.32,0,0,1,.38,1,1.62,1.62,0,0,1-.29,1,2,2,0,0,1-.82.66A2.86,2.86,0,0,1,799.05,81.51Z"/><path d="M802.53,81.41l3-5.58h-3.7v-.78h4.65v.68l-3,5.68Z"/><path d="M808.41,78.28a1.25,1.25,0,0,1-1-.46,1.73,1.73,0,0,1-.38-1.18,1.74,1.74,0,0,1,.38-1.18,1.26,1.26,0,0,1,1-.45,1.23,1.23,0,0,1,1,.45,1.75,1.75,0,0,1,.39,1.18,1.73,1.73,0,0,1-.39,1.18A1.24,1.24,0,0,1,808.41,78.28Zm0-.52a.71.71,0,0,0,.6-.3,1.33,1.33,0,0,0,.22-.82,1.35,1.35,0,0,0-.22-.82.71.71,0,0,0-.6-.3.69.69,0,0,0-.58.3,1.35,1.35,0,0,0-.22.82,1.4,1.4,0,0,0,.21.82A.71.71,0,0,0,808.41,77.76Zm-.32,3.65,3.57-6.36h.72l-3.58,6.36Zm4,0a1.26,1.26,0,0,1-1-.45,1.8,1.8,0,0,1-.38-1.18,1.73,1.73,0,0,1,.39-1.18,1.25,1.25,0,0,1,1-.46,1.27,1.27,0,0,1,1,.46,1.84,1.84,0,0,1,.39,1.18A1.86,1.86,0,0,1,813.1,81,1.26,1.26,0,0,1,812.1,81.45Zm0-.52a.69.69,0,0,0,.59-.29,1.35,1.35,0,0,0,.22-.82,1.33,1.33,0,0,0-.22-.82.68.68,0,0,0-.59-.31.69.69,0,0,0-.59.31,1.33,1.33,0,0,0-.22.82,1.35,1.35,0,0,0,.22.82A.67.67,0,0,0,812.1,80.93Z"/></g></g><rect id="bf59ef59-4760-4e33-aba8-5a9c9d34be9b" data-name="Rectangle 377-2-2" class="ac0a8426-ca78-4eb1-b786-5839f8505b12" x="763.5" y="54.26" width="10.18" height="10.18"/><rect id="a71d26ce-1264-4ae9-b880-b590956e0a22" data-name="Rectangle 380-2-2" class="e33c5eb3-0b64-4b69-8453-220a464b50bf" x="763.5" y="73.2" width="10.18" height="10.18"/><rect id="ae2f1cee-285a-474e-941d-71c17b125bb2" data-name="Rectangle 382-2-2" class="ab8d0fd4-97a2-4efe-bea2-e08fd3089613" x="763.5" y="35.32" width="10.18" height="10.18"/><rect id="adec4126-04b8-44f0-a2bf-424c4f92efcf" data-name="Rectangle 377-2-3" class="e33c5eb3-0b64-4b69-8453-220a464b50bf" y="66" width="33" height="33"/><rect id="b37183db-ebee-4e4b-84fc-a88734d5b6c1" data-name="Rectangle 380-2-3" class="ab8d0fd4-97a2-4efe-bea2-e08fd3089613" y="33" width="33" height="33"/><rect id="f037bd4a-3be9-405f-be2b-8ede1d27563e" data-name="Rectangle 382-2-3" class="f820ca9d-7cfe-455b-8546-e3bcb5ef4ef0" width="33" height="33"/><rect id="ea08d5c1-173c-4979-92df-63a583b024dd" data-name="Rectangle 377-2-4" class="b2b76ff0-c0cb-4ec9-8294-1477b3c9f009" x="454" y="33" width="33" height="33"/><rect id="a6e6cacf-96ca-4b17-9fc3-613821659cb6" data-name="Rectangle 380-2-4" class="a2692811-8dc9-469d-9d49-4c254d60c14e" x="454" width="33" height="33"/><rect id="b78f64c9-ff6e-4681-90d1-d5b6dff3ad62" data-name="Rectangle 377-2-5" class="ab8d0fd4-97a2-4efe-bea2-e08fd3089613" x="454" y="132" width="33" height="33"/><rect id="a9a7d8ec-9a84-468b-b0fb-f8491db452fd" data-name="Rectangle 380-2-5" x="454" y="99" width="33" height="33"/><rect id="bffb51b3-f474-4a82-88de-dfefe64ca07a" data-name="Rectangle 382-2-4" class="f820ca9d-7cfe-455b-8546-e3bcb5ef4ef0" x="454" y="66" width="33" height="33"/><rect id="fd4892ed-8b89-409d-9be9-3ba9dee151c7" data-name="Rectangle 377-2-6" class="e33c5eb3-0b64-4b69-8453-220a464b50bf" x="454" y="231" width="33" height="33"/><rect id="b698e84f-80b1-43d3-a0d5-cd8136581b8a" data-name="Rectangle 380-2-6" class="ac0a8426-ca78-4eb1-b786-5839f8505b12" x="454" y="198" width="33" height="33"/><rect id="ee1f1c90-6186-4c47-83c9-f564df08fc9c" data-name="Rectangle 382-2-5" class="aa9ef8db-7fed-466c-8e72-9524a89de641" x="454" y="165" width="33" height="33"/><path class="e33c5eb3-0b64-4b69-8453-220a464b50bf" d="M149.43,90,97.82,120.6A60,60,0,0,0,150.13,150a60,60,0,0,0,51.6-30.61Z"/><path class="e33c5eb3-0b64-4b69-8453-220a464b50bf" d="M149.43,90l52.3,29.39a57.31,57.31,0,0,0,7.69-30.09Z"/><path class="ab8d0fd4-97a2-4efe-bea2-e08fd3089613" d="M201,59.39A60,60,0,0,0,148.73,30l.7,60,60-.7A57.39,57.39,0,0,0,201,59.39Z"/><path class="f820ca9d-7cfe-455b-8546-e3bcb5ef4ef0" d="M149.43,90,118.82,38.39A57.36,57.36,0,0,1,148.73,30Z"/><path class="f820ca9d-7cfe-455b-8546-e3bcb5ef4ef0" d="M97.12,60.61A57.31,57.31,0,0,0,89.43,90.7a57.33,57.33,0,0,0,8.39,29.9L149.43,90,118.82,38.39A57.41,57.41,0,0,0,97.12,60.61Z"/><circle class="e53ac4f0-24e4-4fa4-a57d-216febddc09d" cx="149.43" cy="90" r="30.05"/><path d="M270.35,43.52a3.72,3.72,0,0,1-1.47-.3,3.77,3.77,0,0,1-1.25-.84l.58-.68a3.67,3.67,0,0,0,1.06.76,2.7,2.7,0,0,0,1.13.24,2.17,2.17,0,0,0,.8-.13,1.28,1.28,0,0,0,.54-.38.85.85,0,0,0,.2-.55.8.8,0,0,0-.3-.66,2.39,2.39,0,0,0-1-.34l-1-.18a2.52,2.52,0,0,1-1.32-.55,1.46,1.46,0,0,1-.43-1.09,1.67,1.67,0,0,1,.29-1,1.88,1.88,0,0,1,.83-.65,3.09,3.09,0,0,1,1.22-.22,4.21,4.21,0,0,1,1.36.22,4.06,4.06,0,0,1,1.2.64l-.52.73a3.44,3.44,0,0,0-2.08-.78,2,2,0,0,0-.73.12,1.08,1.08,0,0,0-.48.33.8.8,0,0,0-.17.51.72.72,0,0,0,.26.58,2,2,0,0,0,.86.3l1,.17a2.87,2.87,0,0,1,1.48.59,1.5,1.5,0,0,1,.47,1.17,1.69,1.69,0,0,1-.31,1,2,2,0,0,1-.89.69A3.47,3.47,0,0,1,270.35,43.52Z"/><path d="M273.65,45.28V38.81h.9v.44a2.1,2.1,0,0,1,1.42-.51,2.26,2.26,0,0,1,1.18.31,2.47,2.47,0,0,1,.84.86,2.33,2.33,0,0,1,.31,1.2,2.34,2.34,0,0,1-1.15,2.07,2.26,2.26,0,0,1-1.21.32,2.24,2.24,0,0,1-.73-.12,2.38,2.38,0,0,1-.65-.34v2.24Zm2.2-2.57a1.6,1.6,0,0,0,.79-.2,1.53,1.53,0,0,0,.56-.57,1.69,1.69,0,0,0,0-1.63,1.49,1.49,0,0,0-.56-.58,1.51,1.51,0,0,0-.79-.21,1.8,1.8,0,0,0-.73.15,1.54,1.54,0,0,0-.56.41v2.09a1.69,1.69,0,0,0,.57.39A1.72,1.72,0,0,0,275.85,42.71Z"/><path d="M281.38,43.51a2.37,2.37,0,0,1-2.11-1.17,2.36,2.36,0,0,1-.33-1.23,2.41,2.41,0,0,1,1.16-2.06,2.23,2.23,0,0,1,1.17-.32,2.08,2.08,0,0,1,1.14.32,2.24,2.24,0,0,1,.8.87,2.56,2.56,0,0,1,.3,1.24v.25h-3.65a1.52,1.52,0,0,0,.28.68,1.53,1.53,0,0,0,.54.47,1.49,1.49,0,0,0,.73.18,2,2,0,0,0,.65-.11,1.53,1.53,0,0,0,.52-.29l.57.56a2.73,2.73,0,0,1-.83.46A2.81,2.81,0,0,1,281.38,43.51Zm-1.51-2.79h2.74a1.59,1.59,0,0,0-.26-.63,1.41,1.41,0,0,0-.48-.43,1.17,1.17,0,0,0-.62-.16,1.29,1.29,0,0,0-.64.16,1.41,1.41,0,0,0-.48.43A1.48,1.48,0,0,0,279.87,40.72Z"/><path d="M284.36,43.43V38.81h.91v.47A2,2,0,0,1,287.6,39a1.66,1.66,0,0,1,.63.63,1.92,1.92,0,0,1,.23.94v2.91h-.91V40.68a1.2,1.2,0,0,0-.3-.86,1.14,1.14,0,0,0-.85-.31,1.31,1.31,0,0,0-1.13.61v3.31Z"/><path d="M291.63,43.5a2.26,2.26,0,0,1-1.19-.32,2.21,2.21,0,0,1-.84-.85,2.38,2.38,0,0,1-.31-1.22,2.34,2.34,0,0,1,.31-1.21,2.31,2.31,0,0,1,.85-.85,2.33,2.33,0,0,1,1.2-.31,2.23,2.23,0,0,1,.73.11,2.3,2.3,0,0,1,.66.34V37.08l.9-.18v6.53H293V43A2,2,0,0,1,291.63,43.5Zm.12-.79a1.94,1.94,0,0,0,.73-.14,1.76,1.76,0,0,0,.56-.41V40.07a1.66,1.66,0,0,0-.56-.41,2,2,0,0,0-.73-.14,1.67,1.67,0,0,0-.8.2,1.53,1.53,0,0,0-.56.57,1.76,1.76,0,0,0,0,1.63,1.51,1.51,0,0,0,1.36.79Z"/><path d="M295.47,38.06a.54.54,0,0,1-.39-.17.54.54,0,0,1-.17-.4.54.54,0,0,1,.17-.39.53.53,0,0,1,.39-.16.55.55,0,0,1,.56.56.53.53,0,0,1-.16.39A.56.56,0,0,1,295.47,38.06ZM295,43.43V38.81h.91v4.62Z"/><path d="M297,43.43V38.81h.91v.47a1.85,1.85,0,0,1,1.39-.56,1.82,1.82,0,0,1,.94.23,1.59,1.59,0,0,1,.63.63,1.82,1.82,0,0,1,.23.94v2.91h-.9V40.68a1.21,1.21,0,0,0-.31-.86,1.14,1.14,0,0,0-.85-.31,1.34,1.34,0,0,0-1.13.61v3.31Z"/><path d="M304.42,45.37a4,4,0,0,1-1-.12,3.66,3.66,0,0,1-.88-.33l.36-.71a3.79,3.79,0,0,0,.76.29,2.44,2.44,0,0,0,.71.1,1.39,1.39,0,0,0,.93-.27,1,1,0,0,0,.31-.82V43a2.15,2.15,0,0,1-1.39.48,2.23,2.23,0,0,1-1.17-.31,2.39,2.39,0,0,1-.84-.86,2.32,2.32,0,0,1-.31-1.19,2.35,2.35,0,0,1,.32-1.21,2.31,2.31,0,0,1,.85-.85,2.35,2.35,0,0,1,1.91-.19,2,2,0,0,1,.65.35v-.39h.89V43.5a1.73,1.73,0,0,1-.55,1.39A2.3,2.3,0,0,1,304.42,45.37Zm-.06-2.69a1.71,1.71,0,0,0,.72-.14,1.51,1.51,0,0,0,.55-.4V40.05a1.57,1.57,0,0,0-.54-.39,2,2,0,0,0-.73-.14,1.56,1.56,0,0,0-.78.2,1.58,1.58,0,0,0-.56.56,1.69,1.69,0,0,0-.2.82,1.67,1.67,0,0,0,.2.8,1.53,1.53,0,0,0,1.34.78Z"/><path d="M309.39,41.25v-.77h3.26v.77Z"/><path d="M317.6,43.53a3.43,3.43,0,0,1-1.28-.24,2.86,2.86,0,0,1-1-.7l.58-.55a2.53,2.53,0,0,0,.78.56,2.38,2.38,0,0,0,.93.17,1.81,1.81,0,0,0,.76-.15,1.22,1.22,0,0,0,.51-.4,1.05,1.05,0,0,0,0-1.13,1,1,0,0,0-.43-.37,1.26,1.26,0,0,0-.62-.14h-.78v-.74h.7a1,1,0,0,0,.77-.28,1,1,0,0,0,.13-1.28,1.15,1.15,0,0,0-.46-.38,1.35,1.35,0,0,0-.65-.14,1.91,1.91,0,0,0-.84.17,2.28,2.28,0,0,0-.75.59l-.59-.57a2.81,2.81,0,0,1,1-.72,3,3,0,0,1,1.21-.25,2.57,2.57,0,0,1,1.1.22,1.92,1.92,0,0,1,.75.63,1.64,1.64,0,0,1,.28.92,1.31,1.31,0,0,1-.34.89,1.67,1.67,0,0,1-.86.55,1.87,1.87,0,0,1,1,.54,1.34,1.34,0,0,1,.38,1,1.55,1.55,0,0,1-.29,1,2,2,0,0,1-.82.66A2.86,2.86,0,0,1,317.6,43.53Z"/><path d="M323.35,43.52a2.37,2.37,0,0,1-1.34-.39,2.49,2.49,0,0,1-.9-1.09,3.67,3.67,0,0,1-.33-1.61,4.24,4.24,0,0,1,.36-1.81,2.83,2.83,0,0,1,1-1.21A2.72,2.72,0,0,1,323.7,37a2.8,2.8,0,0,1,.86.13,2.39,2.39,0,0,1,.75.37l-.46.66a2.38,2.38,0,0,0-.58-.28,2,2,0,0,0-.64-.1,1.75,1.75,0,0,0-1.06.31,2.11,2.11,0,0,0-.67.91,3.79,3.79,0,0,0-.25,1.42,2.23,2.23,0,0,1,.81-.69,2,2,0,0,1,1-.25,2.44,2.44,0,0,1,1.1.25,2,2,0,0,1,.76.7,1.93,1.93,0,0,1,.27,1,2.08,2.08,0,0,1-.29,1.08,2.11,2.11,0,0,1-.79.75A2.34,2.34,0,0,1,323.35,43.52Zm0-3.36a1.87,1.87,0,0,0-.9.22,2.23,2.23,0,0,0-.73.61,2.83,2.83,0,0,0,.31.93,1.69,1.69,0,0,0,.56.62,1.51,1.51,0,0,0,1.48.05,1.21,1.21,0,0,0,.49-.46,1.34,1.34,0,0,0,.18-.69,1.24,1.24,0,0,0-.18-.67,1.16,1.16,0,0,0-.49-.44A1.53,1.53,0,0,0,323.31,40.16Z"/><path d="M327.57,40.3a1.22,1.22,0,0,1-1-.46,1.73,1.73,0,0,1-.39-1.18,1.77,1.77,0,0,1,.39-1.18,1.26,1.26,0,0,1,1-.45,1.24,1.24,0,0,1,1,.45,1.82,1.82,0,0,1,.39,1.18,1.78,1.78,0,0,1-.39,1.18A1.22,1.22,0,0,1,327.57,40.3Zm0-.52a.71.71,0,0,0,.6-.3,1.4,1.4,0,0,0,.22-.82,1.45,1.45,0,0,0-.22-.82.71.71,0,0,0-.6-.3.69.69,0,0,0-.58.3,1.37,1.37,0,0,0-.22.82,1.4,1.4,0,0,0,.21.82A.7.7,0,0,0,327.57,39.78Zm-.32,3.65,3.57-6.35h.72L328,43.43Zm4,0a1.25,1.25,0,0,1-1-.45,2,2,0,0,1,0-2.36,1.28,1.28,0,0,1,1-.45,1.26,1.26,0,0,1,1,.45,2,2,0,0,1,0,2.36A1.26,1.26,0,0,1,331.26,43.47Zm0-.51a.7.7,0,0,0,.59-.3,1.33,1.33,0,0,0,.22-.82,1.35,1.35,0,0,0-.22-.82.7.7,0,0,0-.59-.3.71.71,0,0,0-.59.3,1.35,1.35,0,0,0-.22.82,1.33,1.33,0,0,0,.22.82A.68.68,0,0,0,331.26,43Z"/><path d="M268.21,62.32V56h2.86a2.46,2.46,0,0,1,1.12.24,1.89,1.89,0,0,1,.74.66,1.79,1.79,0,0,1,.27,1,1.71,1.71,0,0,1-.36,1.08,2,2,0,0,1-.94.65l1.41,2.74h-1.06l-1.31-2.61h-1.78v2.61Zm1-3.41H271a1.33,1.33,0,0,0,.9-.28,1,1,0,0,0,.34-.78,1,1,0,0,0-.34-.76,1.28,1.28,0,0,0-.9-.29h-1.84Z"/><path d="M276,62.4a2.55,2.55,0,0,1-1.23-.31,2.34,2.34,0,0,1-.87-.87,2.45,2.45,0,0,1,0-2.42,2.39,2.39,0,0,1,.84-.86,2.18,2.18,0,0,1,1.18-.32,2,2,0,0,1,1.14.32,2.24,2.24,0,0,1,.8.87,2.55,2.55,0,0,1,.29,1.24v.24H274.5a1.61,1.61,0,0,0,.27.69,1.66,1.66,0,0,0,.55.47,1.49,1.49,0,0,0,.73.18,2,2,0,0,0,.65-.11,1.53,1.53,0,0,0,.52-.29l.57.56a2.75,2.75,0,0,1-1.78.61Zm-1.5-2.79h2.74A1.75,1.75,0,0,0,277,59a1.41,1.41,0,0,0-.48-.43,1.22,1.22,0,0,0-.62-.16,1.24,1.24,0,0,0-.64.16,1.44,1.44,0,0,0-.49.43A1.47,1.47,0,0,0,274.51,59.61Z"/><path d="M280.35,62.32l-2-4.62h1l1.44,3.46,1.45-3.46h1l-2,4.62Z"/><path d="M285.84,62.4a2.55,2.55,0,0,1-1.23-.31,2.37,2.37,0,0,1-1.2-2.09,2.31,2.31,0,0,1,.31-1.2,2.39,2.39,0,0,1,.84-.86,2.16,2.16,0,0,1,1.18-.32,2,2,0,0,1,1.14.32,2.32,2.32,0,0,1,.8.87,2.67,2.67,0,0,1,.29,1.24v.24h-3.65a1.76,1.76,0,0,0,.28.69,1.57,1.57,0,0,0,.55.47,1.49,1.49,0,0,0,.73.18,2,2,0,0,0,.65-.11,1.63,1.63,0,0,0,.52-.29l.57.56a2.75,2.75,0,0,1-1.78.61Zm-1.51-2.79h2.74a1.57,1.57,0,0,0-.25-.63,1.41,1.41,0,0,0-.48-.43,1.32,1.32,0,0,0-1.26,0,1.35,1.35,0,0,0-.49.43A1.62,1.62,0,0,0,284.33,59.61Z"/><path d="M288.82,62.32V57.7h.91v.47a1.82,1.82,0,0,1,1.39-.56,1.89,1.89,0,0,1,.94.22,1.68,1.68,0,0,1,.63.64,1.83,1.83,0,0,1,.24.94v2.91H292V59.57a1.15,1.15,0,0,0-.31-.86,1.12,1.12,0,0,0-.84-.31,1.25,1.25,0,0,0-.65.16,1.46,1.46,0,0,0-.49.44v3.32Z"/><path d="M295.71,62.41a1.9,1.9,0,0,1-.94-.23,1.58,1.58,0,0,1-.64-.64,1.82,1.82,0,0,1-.23-.94V57.7h.91v2.75a1.16,1.16,0,0,0,.31.85,1.14,1.14,0,0,0,.84.32,1.28,1.28,0,0,0,.65-.16,1.3,1.3,0,0,0,.48-.45V57.7H298v4.62h-.91v-.47A1.85,1.85,0,0,1,295.71,62.41Z"/><path d="M301.28,62.4a2.55,2.55,0,0,1-1.23-.31,2.42,2.42,0,0,1-.87-.87,2.42,2.42,0,0,1,.82-3.28,2.2,2.2,0,0,1,1.18-.32,2,2,0,0,1,1.14.32,2.17,2.17,0,0,1,.8.87,2.56,2.56,0,0,1,.3,1.24v.24h-3.65a1.51,1.51,0,0,0,.28.69,1.53,1.53,0,0,0,.54.47,1.49,1.49,0,0,0,.73.18,2,2,0,0,0,.65-.11,1.53,1.53,0,0,0,.52-.29l.57.56a2.73,2.73,0,0,1-.83.46A2.87,2.87,0,0,1,301.28,62.4Zm-1.5-2.79h2.74a1.59,1.59,0,0,0-.26-.63,1.41,1.41,0,0,0-.48-.43,1.17,1.17,0,0,0-.62-.16,1.29,1.29,0,0,0-.64.16A1.41,1.41,0,0,0,300,59,1.48,1.48,0,0,0,299.78,59.61Z"/><path d="M306.05,60.14v-.77h3.27v.77Z"/><path d="M314.26,62.42a3.34,3.34,0,0,1-1.27-.24,2.94,2.94,0,0,1-1-.7l.58-.55a2.71,2.71,0,0,0,.78.56,2.42,2.42,0,0,0,.93.16,1.81,1.81,0,0,0,.76-.14,1.22,1.22,0,0,0,.51-.4,1,1,0,0,0,.18-.59,1,1,0,0,0-.15-.54,1.06,1.06,0,0,0-.43-.38,1.38,1.38,0,0,0-.62-.13h-.78v-.74h.7a1.08,1.08,0,0,0,.78-.28,1,1,0,0,0,.29-.73.94.94,0,0,0-.17-.55,1.09,1.09,0,0,0-.46-.38,1.34,1.34,0,0,0-.64-.15,1.93,1.93,0,0,0-.85.18,2.28,2.28,0,0,0-.75.59l-.59-.57a2.91,2.91,0,0,1,1-.73,3.07,3.07,0,0,1,1.2-.25,2.57,2.57,0,0,1,1.1.23,1.92,1.92,0,0,1,.75.63,1.63,1.63,0,0,1,.28.91,1.31,1.31,0,0,1-.34.9,1.67,1.67,0,0,1-.86.55,1.87,1.87,0,0,1,1,.54,1.32,1.32,0,0,1,.38,1,1.55,1.55,0,0,1-.29,1,2,2,0,0,1-.82.66A2.82,2.82,0,0,1,314.26,62.42Z"/><path d="M319.75,62.42a2.86,2.86,0,0,1-1.2-.24,2,2,0,0,1-.82-.65,1.6,1.6,0,0,1-.3-1,1.57,1.57,0,0,1,.17-.7,1.74,1.74,0,0,1,.5-.55,2.31,2.31,0,0,1,.73-.33,1.85,1.85,0,0,1-.85-.55,1.32,1.32,0,0,1-.33-.88,1.46,1.46,0,0,1,.28-.87,1.82,1.82,0,0,1,.75-.61,2.44,2.44,0,0,1,1.07-.23,2.52,2.52,0,0,1,1.08.23,1.86,1.86,0,0,1,.74.61,1.43,1.43,0,0,1,.28.87,1.32,1.32,0,0,1-.33.88,1.85,1.85,0,0,1-.85.55,2,2,0,0,1,1,.59,1.41,1.41,0,0,1,.39,1,1.55,1.55,0,0,1-.3.94,2,2,0,0,1-.82.66A2.86,2.86,0,0,1,319.75,62.42Zm0-.72a1.72,1.72,0,0,0,.74-.15,1.21,1.21,0,0,0,.52-.42,1,1,0,0,0,.19-.61,1,1,0,0,0-.19-.59,1.21,1.21,0,0,0-.52-.42,1.72,1.72,0,0,0-.74-.15,1.75,1.75,0,0,0-.74.15,1.28,1.28,0,0,0-.52.42,1,1,0,0,0,0,1.2,1.28,1.28,0,0,0,.52.42A1.75,1.75,0,0,0,319.75,61.7Zm0-3a1.47,1.47,0,0,0,.64-.14,1.1,1.1,0,0,0,.45-.37,1,1,0,0,0,.15-.52,1,1,0,0,0-.15-.54,1.12,1.12,0,0,0-.45-.38,1.47,1.47,0,0,0-.64-.14,1.42,1.42,0,0,0-.63.14,1.1,1.1,0,0,0-.45.37.93.93,0,0,0-.16.54.9.9,0,0,0,.16.53,1.1,1.1,0,0,0,.45.37A1.42,1.42,0,0,0,319.75,58.66Z"/><path d="M324.23,59.19a1.22,1.22,0,0,1-1-.46,1.73,1.73,0,0,1-.38-1.18,1.76,1.76,0,0,1,.38-1.18,1.26,1.26,0,0,1,1-.45,1.24,1.24,0,0,1,1,.45,1.77,1.77,0,0,1,.39,1.18,1.73,1.73,0,0,1-.39,1.18A1.22,1.22,0,0,1,324.23,59.19Zm0-.52a.71.71,0,0,0,.6-.3,1.33,1.33,0,0,0,.22-.82,1.35,1.35,0,0,0-.22-.82.71.71,0,0,0-.6-.3.69.69,0,0,0-.58.3,1.35,1.35,0,0,0-.22.82,1.4,1.4,0,0,0,.21.82A.71.71,0,0,0,324.23,58.67Zm-.32,3.65L327.48,56h.72l-3.59,6.36Zm4,0a1.26,1.26,0,0,1-1-.45,1.8,1.8,0,0,1-.38-1.18,1.73,1.73,0,0,1,.39-1.18,1.24,1.24,0,0,1,1-.45,1.26,1.26,0,0,1,1,.45,1.84,1.84,0,0,1,.39,1.18,1.86,1.86,0,0,1-.39,1.18A1.26,1.26,0,0,1,327.92,62.36Zm0-.51a.72.72,0,0,0,.59-.3,1.35,1.35,0,0,0,.22-.82,1.33,1.33,0,0,0-.22-.82.68.68,0,0,0-.59-.31.69.69,0,0,0-.59.31,1.4,1.4,0,0,0-.22.82,1.35,1.35,0,0,0,.22.82A.71.71,0,0,0,327.92,61.85Z"/><path d="M270.79,81.51a2.91,2.91,0,0,1-1.45-.35,2.35,2.35,0,0,1-.93-1,3.19,3.19,0,0,1-.33-1.5V75.05H269v3.64a2.26,2.26,0,0,0,.22,1,1.68,1.68,0,0,0,.61.68,1.79,1.79,0,0,0,.93.24,1.73,1.73,0,0,0,.92-.24,1.68,1.68,0,0,0,.61-.68,2.26,2.26,0,0,0,.22-1V75.05h.95v3.64a3.19,3.19,0,0,1-.33,1.5,2.31,2.31,0,0,1-.94,1A2.83,2.83,0,0,1,270.79,81.51Z"/><path d="M274.56,81.41V76.79h.91v.47a1.79,1.79,0,0,1,1.38-.56,1.89,1.89,0,0,1,.94.22,1.78,1.78,0,0,1,.64.64,1.92,1.92,0,0,1,.23.94v2.91h-.91V78.66a1.15,1.15,0,0,0-.31-.86,1.1,1.1,0,0,0-.84-.31,1.28,1.28,0,0,0-.65.16,1.34,1.34,0,0,0-.48.44v3.32Z"/><path d="M281.29,81.5a3.42,3.42,0,0,1-1.12-.18,2.64,2.64,0,0,1-.9-.51l.49-.6a2.68,2.68,0,0,0,.74.43,2.07,2.07,0,0,0,.77.15,1.45,1.45,0,0,0,.79-.19.55.55,0,0,0,.31-.49.49.49,0,0,0-.18-.4,1.18,1.18,0,0,0-.56-.2l-.84-.12a1.88,1.88,0,0,1-1-.42,1.19,1.19,0,0,1-.34-.88,1.21,1.21,0,0,1,.23-.72,1.39,1.39,0,0,1,.64-.49,2.29,2.29,0,0,1,.94-.17,3.12,3.12,0,0,1,1,.14,2.77,2.77,0,0,1,.89.45l-.45.59a3.71,3.71,0,0,0-.75-.37,2.22,2.22,0,0,0-.72-.12,1.16,1.16,0,0,0-.68.18.56.56,0,0,0-.25.46.43.43,0,0,0,.18.39,1.29,1.29,0,0,0,.57.2l.85.13a1.88,1.88,0,0,1,1,.41,1.13,1.13,0,0,1,.36.88,1.21,1.21,0,0,1-.26.74,1.91,1.91,0,0,1-.69.52A2.57,2.57,0,0,1,281.29,81.5Z"/><path d="M283.92,83.26V76.79h.9v.44a2.12,2.12,0,0,1,1.42-.51,2.26,2.26,0,0,1,1.18.31,2.24,2.24,0,0,1,.84.86,2.37,2.37,0,0,1-2.05,3.59,2.24,2.24,0,0,1-.73-.12,2.38,2.38,0,0,1-.65-.34v2.24Zm2.2-2.57a1.57,1.57,0,0,0,.79-.2,1.53,1.53,0,0,0,.56-.57,1.61,1.61,0,0,0,.21-.82,1.58,1.58,0,0,0-.21-.81,1.51,1.51,0,0,0-1.35-.79,1.8,1.8,0,0,0-.73.15,1.43,1.43,0,0,0-.56.41v2.09a1.69,1.69,0,0,0,.57.39A1.79,1.79,0,0,0,286.12,80.69Z"/><path d="M291.65,81.49a2.5,2.5,0,0,1-1.23-.31,2.37,2.37,0,0,1-.88-.87,2.48,2.48,0,0,1,0-2.42,2.39,2.39,0,0,1,.84-.86,2.16,2.16,0,0,1,1.18-.32,2,2,0,0,1,1.14.32,2.22,2.22,0,0,1,.79.87,2.56,2.56,0,0,1,.3,1.24v.24h-3.65a1.57,1.57,0,0,0,.82,1.16,1.52,1.52,0,0,0,.73.18,2.08,2.08,0,0,0,.66-.11,1.48,1.48,0,0,0,.51-.29l.58.56a3,3,0,0,1-.83.46A2.91,2.91,0,0,1,291.65,81.49Zm-1.51-2.79h2.74a1.59,1.59,0,0,0-.26-.63,1.47,1.47,0,0,0-.47-.43,1.32,1.32,0,0,0-1.26,0,1.35,1.35,0,0,0-.49.43A1.48,1.48,0,0,0,290.14,78.7Z"/><path d="M294.63,81.41V76.79h.91v.47a1.82,1.82,0,0,1,1.39-.56,1.89,1.89,0,0,1,.94.22,1.68,1.68,0,0,1,.63.64,1.82,1.82,0,0,1,.23.94v2.91h-.9V78.66a1.19,1.19,0,0,0-.31-.86,1.14,1.14,0,0,0-.85-.31,1.24,1.24,0,0,0-.64.16,1.29,1.29,0,0,0-.49.44v3.32Z"/><path d="M301.61,81.49a1.5,1.5,0,0,1-1-.31,1.18,1.18,0,0,1-.35-.92V77.55h-1v-.76h1V75.62l.9-.23v1.4h1.37v.76h-1.37v2.51a.65.65,0,0,0,.16.5.73.73,0,0,0,.52.15,1.72,1.72,0,0,0,.34,0l.32-.09v.77a2.16,2.16,0,0,1-.42.1Z"/><path d="M305,79.23v-.77h3.27v.77Z"/><path d="M311,81.41v-.64L313.56,78a6.24,6.24,0,0,0,.41-.49,1.45,1.45,0,0,0,.2-.42,1.39,1.39,0,0,0,.06-.4.88.88,0,0,0-.34-.72,1.37,1.37,0,0,0-.87-.27,1.91,1.91,0,0,0-.82.17,3.16,3.16,0,0,0-.84.6l-.49-.6a3.71,3.71,0,0,1,1-.71A2.76,2.76,0,0,1,313,75a2.59,2.59,0,0,1,1.07.22,1.87,1.87,0,0,1,.72.61,1.55,1.55,0,0,1,.26.89,1.81,1.81,0,0,1-.09.58,2,2,0,0,1-.28.55,6.57,6.57,0,0,1-.56.68l-2.07,2.18h3.12v.76Z"/><path d="M319.25,81.41V79.79h-3.6v-.72l3.49-4h1v4h.77v.76h-.77v1.62ZM316.72,79h2.53V76.12Z"/><path d="M322.84,78.28a1.26,1.26,0,0,1-1-.46,1.73,1.73,0,0,1-.38-1.18,1.82,1.82,0,0,1,.38-1.18,1.28,1.28,0,0,1,1-.45,1.23,1.23,0,0,1,1,.45,1.83,1.83,0,0,1,.4,1.18,1.79,1.79,0,0,1-.4,1.18A1.23,1.23,0,0,1,322.84,78.28Zm0-.52a.71.71,0,0,0,.59-.3,1.33,1.33,0,0,0,.22-.82,1.35,1.35,0,0,0-.22-.82.71.71,0,0,0-.59-.3.7.7,0,0,0-.59.3,1.35,1.35,0,0,0-.22.82,1.33,1.33,0,0,0,.22.82A.68.68,0,0,0,322.84,77.76Zm-.33,3.65,3.58-6.36h.71l-3.58,6.36Zm4,0a1.26,1.26,0,0,1-1-.45,1.8,1.8,0,0,1-.38-1.18,1.73,1.73,0,0,1,.39-1.18,1.32,1.32,0,0,1,2,0,1.84,1.84,0,0,1,.39,1.18,1.86,1.86,0,0,1-.39,1.18A1.24,1.24,0,0,1,326.52,81.45Zm0-.52a.7.7,0,0,0,.59-.29,1.35,1.35,0,0,0,.23-.82,1.33,1.33,0,0,0-.23-.82.71.71,0,0,0-1.17,0,1.33,1.33,0,0,0-.23.82,1.42,1.42,0,0,0,.22.82A.71.71,0,0,0,326.52,80.93Z"/><rect id="bced4e35-80ed-4cbf-ba37-5906f2e01af5" data-name="Rectangle 377-2" class="e33c5eb3-0b64-4b69-8453-220a464b50bf" x="248.1" y="54.48" width="10.21" height="10.21"/><rect id="eef99a2d-b053-424e-bc98-6573f40e89f4" data-name="Rectangle 380-2" class="ab8d0fd4-97a2-4efe-bea2-e08fd3089613" x="248.1" y="73.47" width="10.21" height="10.21"/><rect id="feaf4987-b63f-4d15-b4a3-8fe9f05997d7" data-name="Rectangle 382-2" class="f820ca9d-7cfe-455b-8546-e3bcb5ef4ef0" x="248.1" y="35.49" width="10.21" height="10.21"/><g id="edc53c52-d421-42f9-a876-045d99cca719" data-name="Rectangle 4740"><path class="bdcc6a92-9b69-4c36-9b1e-913365ee6aac" d="M392,1V179H54V1H392m1-1H53V180H393V0Z"/></g><path d="M318.62,148.11a2,2,0,0,1,0,.42c0,1.8-2.2,2.12-3.72,2.12-5.91,0-10.32-3.67-10.32-4.79a1,1,0,0,1,0-.24l-.44,1.1a2.17,2.17,0,0,0-.18.89c0,2.2,5,5.53,10.65,5.53,2.52,0,4.43-.95,4.43-2.65a6.12,6.12,0,0,0-.21-1.23Z"/><path class="f820ca9d-7cfe-455b-8546-e3bcb5ef4ef0" d="M314.94,150.65c1.52,0,3.72-.32,3.72-2.12a2,2,0,0,0,0-.42l-.91-3.93c-.21-.86-.39-1.26-1.91-2a17.76,17.76,0,0,0-4.5-1.59c-.71,0-.92.91-1.76.91s-1.41-.68-2.17-.68-1.21.5-1.57,1.52c0,0-1,2.88-1.16,3.3a1,1,0,0,0,0,.24c0,1.12,4.41,4.79,10.32,4.79m3.95-1.39a6.12,6.12,0,0,1,.21,1.23c0,1.7-1.91,2.65-4.43,2.65-5.68,0-10.65-3.33-10.65-5.53a2.17,2.17,0,0,1,.18-.89c-2,.11-4.69.47-4.69,2.8,0,3.83,9.06,8.54,16.24,8.54,5.5,0,6.89-2.49,6.89-4.45,0-1.55-1.34-3.3-3.75-4.35"/><path d="M325.11,144.89h4.38a2.94,2.94,0,0,1,3,2.91,2.75,2.75,0,0,1-1.63,2.49l1.91,3.38h-2.41l-1.64-3.08h-1.47v3.08h-2.16Zm2.16,1.84v2.08h2a1.05,1.05,0,0,0,1.09-1,1.08,1.08,0,0,0-1.09-1.07Z"/><path d="M336.33,153.79a3.48,3.48,0,0,1-3.61-3.43,3.41,3.41,0,0,1,3.46-3.44,3.37,3.37,0,0,1,3.35,3.57v.56H334.8a1.71,1.71,0,0,0,1.63,1,1.82,1.82,0,0,0,1.33-.5l1.34,1.19A4,4,0,0,1,336.33,153.79Zm-1.54-4.16h2.76a1.48,1.48,0,0,0-1.39-1A1.38,1.38,0,0,0,334.79,149.63Z"/><path d="M345.12,153.18a3.07,3.07,0,0,1-1.79.59,3.42,3.42,0,1,1,1.76-6.39v-2.49l2-.63v9.41h-2ZM343.66,152a2,2,0,0,0,1.43-.53v-2.32a2.13,2.13,0,0,0-1.43-.52,1.69,1.69,0,1,0,0,3.37Z"/><path d="M355.75,150.23h-3.36v3.44h-2.16v-8.78h2.16v3.37h3.36v-3.37h2.16v8.78h-2.16Z"/><path d="M362.9,153.27a3,3,0,0,1-1.78.51,2.23,2.23,0,0,1-2.47-2.12c0-1.17.94-2,2.58-2a3.57,3.57,0,0,1,1.67.37v-.4c0-.64-.43-1-1.26-1a5.06,5.06,0,0,0-2,.48l-.6-1.52a6.93,6.93,0,0,1,2.73-.67c2,0,3.15.89,3.15,2.5v4.26h-2Zm-1.24-.91a2.31,2.31,0,0,0,1.24-.34v-.69a2.7,2.7,0,0,0-1.31-.35c-.62,0-1,.27-1,.68S361,152.36,361.66,152.36Z"/><path d="M368.89,153.77c-1.39,0-2.17-.67-2.17-2.05v-3h-1.4V147h1.4v-1.52l2-.62V147h1.85v1.69h-1.85v2.54c0,.56.3.78.91.78a2.27,2.27,0,0,0,.89-.2l-.27,1.64A3.68,3.68,0,0,1,368.89,153.77Z"/><g id="b680f0f8-a2c6-44a4-9dfa-06ab6b0ac833" data-name="Rectangle 4740"><path class="bdcc6a92-9b69-4c36-9b1e-913365ee6aac" d="M846,1V179H508V1H846m1-1H507V180H847V0Z"/></g><path d="M772.62,148.11a2,2,0,0,1,0,.42c0,1.8-2.2,2.12-3.72,2.12-5.91,0-10.32-3.67-10.32-4.79a1,1,0,0,1,0-.24l-.44,1.1a2.17,2.17,0,0,0-.18.89c0,2.2,5,5.53,10.65,5.53,2.52,0,4.43-.95,4.43-2.65a6.12,6.12,0,0,0-.21-1.23Z"/><path class="f820ca9d-7cfe-455b-8546-e3bcb5ef4ef0" d="M768.94,150.65c1.52,0,3.72-.32,3.72-2.12a2,2,0,0,0,0-.42l-.91-3.93c-.21-.86-.39-1.26-1.91-2a17.76,17.76,0,0,0-4.5-1.59c-.71,0-.92.91-1.76.91s-1.41-.68-2.17-.68-1.21.5-1.57,1.52c0,0-1,2.88-1.16,3.3a1,1,0,0,0,0,.24c0,1.12,4.41,4.79,10.32,4.79m3.95-1.39a6.12,6.12,0,0,1,.21,1.23c0,1.7-1.91,2.65-4.43,2.65-5.68,0-10.65-3.33-10.65-5.53a2.17,2.17,0,0,1,.18-.89c-2,.11-4.69.47-4.69,2.8,0,3.83,9.06,8.54,16.24,8.54,5.5,0,6.89-2.49,6.89-4.45,0-1.55-1.34-3.3-3.75-4.35"/><path d="M779.11,144.89h4.38a2.94,2.94,0,0,1,3,2.91,2.75,2.75,0,0,1-1.63,2.49l1.91,3.38h-2.41l-1.64-3.08h-1.47v3.08h-2.16Zm2.16,1.84v2.08h2a1.05,1.05,0,0,0,1.09-1,1.08,1.08,0,0,0-1.09-1.07Z"/><path d="M790.33,153.79a3.48,3.48,0,0,1-3.61-3.43,3.41,3.41,0,0,1,3.46-3.44,3.37,3.37,0,0,1,3.35,3.57v.56H788.8a1.71,1.71,0,0,0,1.63,1,1.82,1.82,0,0,0,1.33-.5l1.34,1.19A4,4,0,0,1,790.33,153.79Zm-1.54-4.16h2.76a1.48,1.48,0,0,0-1.39-1A1.38,1.38,0,0,0,788.79,149.63Z"/><path d="M799.12,153.18a3.07,3.07,0,0,1-1.79.59,3.42,3.42,0,1,1,1.76-6.39v-2.49l2-.63v9.41h-2ZM797.66,152a2,2,0,0,0,1.43-.53v-2.32a2.13,2.13,0,0,0-1.43-.52,1.69,1.69,0,1,0,0,3.37Z"/><path d="M809.75,150.23h-3.36v3.44h-2.16v-8.78h2.16v3.37h3.36v-3.37h2.16v8.78h-2.16Z"/><path d="M816.9,153.27a3,3,0,0,1-1.78.51,2.23,2.23,0,0,1-2.47-2.12c0-1.17.94-2,2.58-2a3.57,3.57,0,0,1,1.67.37v-.4c0-.64-.43-1-1.26-1a5.06,5.06,0,0,0-2,.48l-.6-1.52a6.93,6.93,0,0,1,2.73-.67c2,0,3.15.89,3.15,2.5v4.26h-2Zm-1.24-.91a2.31,2.31,0,0,0,1.24-.34v-.69a2.7,2.7,0,0,0-1.31-.35c-.62,0-1,.27-1,.68S815,152.36,815.66,152.36Z"/><path d="M822.89,153.77c-1.39,0-2.17-.67-2.17-2.05v-3h-1.4V147h1.4v-1.52l2-.62V147h1.85v1.69h-1.85v2.54c0,.56.3.78.91.78a2.27,2.27,0,0,0,.89-.2l-.27,1.64A3.68,3.68,0,0,1,822.89,153.77Z"/><g id="b22ec878-6f36-42bb-8f4b-ba93192c56a7" data-name="Group 36006"><g id="b1e8188a-d694-4f0e-842d-cbdff5429a21" data-name="Group 36005"><path id="b84100d1-9b3b-4d98-8bfc-e2e085979926" data-name="Path 7034" class="ac0a8426-ca78-4eb1-b786-5839f8505b12" d="M603.43,90l-.17,60a60,60,0,0,0,52-29.86,57.35,57.35,0,0,0,8.12-30,57.26,57.26,0,0,0-8-30Z"/><path id="b612b8b9-8038-4892-8211-fa7c9c1941e3" data-name="Path 7035" class="e33c5eb3-0b64-4b69-8453-220a464b50bf" d="M603.42,90l52-29.85a57.21,57.21,0,0,0-21.9-22Z"/><path id="b5a4e532-ce53-4430-b4ed-05d19e791b09" data-name="Path 7036" class="b2b76ff0-c0cb-4ec9-8294-1477b3c9f009" d="M603.42,90l30.14-51.87a57.16,57.16,0,0,0-30-8.12Z"/><path id="f069b497-f5ad-493f-adc2-0f1d9fe07193" data-name="Path 7037" class="f820ca9d-7cfe-455b-8546-e3bcb5ef4ef0" d="M573.57,38a57.41,57.41,0,0,0-22,21.9L603.42,90l.17-60A57.36,57.36,0,0,0,573.57,38Z"/><g id="a1bcc775-eda4-49eb-882a-f6dddb15a103" data-name="Group 36004"><g id="e48e8b38-0c5f-46af-a207-c1ca84748a4c" data-name="Group 36003"><path id="a0c7ebab-50ac-40ef-9397-20a6121f84b4" data-name="Path 7038" class="f08e6a32-e990-4632-935e-6b675f14f5cf" d="M603.42,90l-60-.16a57.41,57.41,0,0,1,8.12-30Z"/></g></g><path id="fecfa008-9f41-4761-9ca3-fbdfb83731fc" data-name="Path 7039" class="ab8d0fd4-97a2-4efe-bea2-e08fd3089613" d="M551.39,119.86A60,60,0,0,0,603.26,150l.16-60-60-.16A57.4,57.4,0,0,0,551.39,119.86Z"/></g><circle id="b3db06ae-ad1a-4c56-91d7-aa684e4105e6" data-name="Ellipse 224" class="e53ac4f0-24e4-4fa4-a57d-216febddc09d" cx="603.43" cy="90" r="30.05"/></g><path d="M772.62,324.15a2,2,0,0,1,0,.42c0,1.81-2.2,2.12-3.72,2.12-5.91,0-10.32-3.67-10.32-4.79a1,1,0,0,1,0-.24l-.44,1.1a2.17,2.17,0,0,0-.18.89c0,2.2,5,5.53,10.65,5.53,2.52,0,4.43-.94,4.43-2.65a6.12,6.12,0,0,0-.21-1.23Z"/><path class="f820ca9d-7cfe-455b-8546-e3bcb5ef4ef0" d="M768.94,326.69c1.52,0,3.72-.31,3.72-2.12a2,2,0,0,0,0-.42l-.91-3.93c-.21-.86-.39-1.25-1.91-2a17.44,17.44,0,0,0-4.5-1.6c-.71,0-.92.92-1.76.92s-1.41-.69-2.17-.69-1.21.5-1.57,1.52c0,0-1,2.88-1.16,3.3a1,1,0,0,0,0,.24c0,1.12,4.41,4.79,10.32,4.79m3.95-1.39a6.12,6.12,0,0,1,.21,1.23c0,1.71-1.91,2.65-4.43,2.65-5.68,0-10.65-3.33-10.65-5.53a2.17,2.17,0,0,1,.18-.89c-2,.11-4.69.47-4.69,2.81,0,3.82,9.06,8.53,16.24,8.53,5.5,0,6.89-2.49,6.89-4.45,0-1.54-1.34-3.3-3.75-4.35"/><path d="M779.11,320.93h4.38a2.94,2.94,0,0,1,3,2.91,2.76,2.76,0,0,1-1.63,2.5l1.91,3.37h-2.41l-1.64-3.07h-1.47v3.07h-2.16Zm2.16,1.84v2.09h2a1.05,1.05,0,0,0,1.09-1,1.08,1.08,0,0,0-1.09-1.07Z"/><path d="M790.33,329.83a3.48,3.48,0,0,1-3.61-3.43,3.41,3.41,0,0,1,3.46-3.44,3.37,3.37,0,0,1,3.35,3.58v.55H788.8a1.71,1.71,0,0,0,1.63,1.05,1.78,1.78,0,0,0,1.33-.5l1.34,1.19A4,4,0,0,1,790.33,329.83Zm-1.54-4.16h2.76a1.48,1.48,0,0,0-1.39-1A1.38,1.38,0,0,0,788.79,325.67Z"/><path d="M799.12,329.22a3,3,0,0,1-1.79.59,3.42,3.42,0,1,1,1.76-6.38v-2.5l2-.63v9.41h-2Zm-1.46-1.14a2,2,0,0,0,1.43-.53v-2.32a2.17,2.17,0,0,0-1.43-.51,1.68,1.68,0,1,0,0,3.36Z"/><path d="M809.75,326.27h-3.36v3.44h-2.16v-8.78h2.16v3.37h3.36v-3.37h2.16v8.78h-2.16Z"/><path d="M816.9,329.31a3,3,0,0,1-1.78.51,2.23,2.23,0,0,1-2.47-2.12c0-1.16.94-2,2.58-2a3.57,3.57,0,0,1,1.67.37v-.4c0-.64-.43-1-1.26-1a5.21,5.21,0,0,0-2,.47l-.6-1.51a7,7,0,0,1,2.73-.68c2,0,3.15.89,3.15,2.51v4.25h-2Zm-1.24-.9a2.41,2.41,0,0,0,1.24-.34v-.69a2.6,2.6,0,0,0-1.31-.35c-.62,0-1,.26-1,.67S815,328.41,815.66,328.41Z"/><path d="M822.89,329.81c-1.39,0-2.17-.66-2.17-2v-3h-1.4v-1.7h1.4v-1.51l2-.63v2.14h1.85v1.7h-1.85v2.53c0,.57.3.78.91.78a2.27,2.27,0,0,0,.89-.2l-.27,1.64A3.5,3.5,0,0,1,822.89,329.81Z"/></svg>