<svg id="baba4e18-65cd-418c-8c47-c8ffc6fa15d9" data-name="Layer 1" xmlns="http://www.w3.org/2000/svg" xmlns:xlink="http://www.w3.org/1999/xlink" viewBox="0 0 262 180"><defs><style>.b4ab2d22-0f4c-4246-b295-d88c71d28906{fill:none;}.e5d03d61-5187-47ff-aab9-71d254b983a3{fill:#e00;}.afb07a1c-e219-44a9-be21-409fc4120be8{fill:#fff;}.a34120a7-4467-4cef-8827-d45c9549c019{fill:url(#fe577c61-d16a-4656-9877-fb350b1be1cb);}</style><pattern id="fe577c61-d16a-4656-9877-fb350b1be1cb" data-name="New Pattern" width="10" height="10" patternTransform="translate(0.06 -37.58) scale(0.25)" patternUnits="userSpaceOnUse" viewBox="0 0 10 10"><rect class="b4ab2d22-0f4c-4246-b295-d88c71d28906" width="10" height="10"/><circle cx="10" cy="10" r="0.75"/><circle cy="10" r="0.75"/><circle cx="10" cy="10" r="0.75"/><circle cy="10" r="0.75"/><circle cx="10" r="0.75"/><circle cx="10" cy="10" r="0.75"/><circle r="0.75"/><circle cx="10" r="0.75"/><circle cy="10" r="0.75"/><circle cx="10" cy="10" r="0.75"/><circle cx="5" cy="5" r="0.75"/><circle r="0.75"/><circle cy="10" r="0.75"/><circle cx="10" r="0.75"/><circle r="0.75"/><circle cx="10" r="0.75"/><circle r="0.75"/></pattern></defs><rect class="e5d03d61-5187-47ff-aab9-71d254b983a3" x="42.24" y="40" width="177.51" height="100"/><path class="afb07a1c-e219-44a9-be21-409fc4120be8" d="M66,122.8c.87,0,2.14-.19,2.14-1.23a1,1,0,0,0,0-.24l-.52-2.27c-.12-.5-.23-.73-1.11-1.17a10.11,10.11,0,0,0-2.6-.92c-.41,0-.53.53-1,.53s-.82-.39-1.26-.39-.69.28-.91.87c0,0-.59,1.67-.66,1.91a.36.36,0,0,0,0,.14c0,.64,2.55,2.77,6,2.77m2.28-.81a3.56,3.56,0,0,1,.12.72c0,1-1.1,1.52-2.56,1.52-3.28,0-6.16-1.92-6.16-3.19a1.24,1.24,0,0,1,.11-.51c-1.18.06-2.71.27-2.71,1.62,0,2.21,5.24,4.93,9.38,4.93,3.18,0,4-1.44,4-2.57A3.12,3.12,0,0,0,68.32,122"/><path class="afb07a1c-e219-44a9-be21-409fc4120be8" d="M71.91,119.47h2.53a1.7,1.7,0,0,1,1.75,1.68,1.59,1.59,0,0,1-.94,1.44l1.1,2H75L74,122.76h-.85v1.78H71.91Zm1.25,1.06v1.21H74.3a.61.61,0,0,0,.63-.59.63.63,0,0,0-.63-.62Z"/><path class="afb07a1c-e219-44a9-be21-409fc4120be8" d="M78.4,124.61a2,2,0,0,1-2.09-2,2,2,0,0,1,2-2,2,2,0,0,1,1.94,2.07V123H77.52a1,1,0,0,0,.94.6,1,1,0,0,0,.77-.29L80,124A2.28,2.28,0,0,1,78.4,124.61Zm-.89-2.4H79.1a.85.85,0,0,0-.8-.61A.79.79,0,0,0,77.51,122.21Z"/><path class="afb07a1c-e219-44a9-be21-409fc4120be8" d="M83.48,124.26a1.74,1.74,0,0,1-1,.34,2,2,0,0,1,0-3.95,1.94,1.94,0,0,1,1,.26v-1.44l1.18-.37v5.44H83.48Zm-.84-.66a1.13,1.13,0,0,0,.82-.31V122a1.23,1.23,0,0,0-.82-.29,1,1,0,0,0-1,1A1,1,0,0,0,82.64,123.6Z"/><path class="afb07a1c-e219-44a9-be21-409fc4120be8" d="M89.62,122.55H87.68v2H86.43v-5.07h1.25v2h1.94v-2h1.25v5.07H89.62Z"/><path class="afb07a1c-e219-44a9-be21-409fc4120be8" d="M93.75,124.31a1.69,1.69,0,0,1-1,.3,1.29,1.29,0,0,1-1.42-1.23c0-.67.54-1.18,1.49-1.18a2,2,0,0,1,1,.22v-.24c0-.36-.24-.55-.72-.55a2.88,2.88,0,0,0-1.15.27l-.35-.87a4,4,0,0,1,1.58-.4c1.17,0,1.82.52,1.82,1.45v2.46H93.75Zm-.71-.52a1.33,1.33,0,0,0,.71-.2v-.4A1.5,1.5,0,0,0,93,123c-.36,0-.59.15-.59.39S92.65,123.79,93,123.79Z"/><path class="afb07a1c-e219-44a9-be21-409fc4120be8" d="M97.22,124.6c-.81,0-1.26-.39-1.26-1.18v-1.74h-.81v-1H96v-.88l1.18-.36v1.24h1.07v1H97.14v1.47c0,.33.17.45.53.45a1.31,1.31,0,0,0,.51-.12l-.16,1A2.08,2.08,0,0,1,97.22,124.6Z"/><rect x="110.44" y="98.67" width="109.32" height="26.11"/><rect class="a34120a7-4467-4cef-8827-d45c9549c019" x="42.02" y="76.95" width="109.32" height="26.11"/><path class="afb07a1c-e219-44a9-be21-409fc4120be8" d="M127.9,107.2a1.16,1.16,0,0,1-.85-.36,1.19,1.19,0,0,1-.36-.87,1.22,1.22,0,0,1,2.08-.85,1.17,1.17,0,0,1,.35.85,1.22,1.22,0,0,1-.35.87A1.15,1.15,0,0,1,127.9,107.2Zm-1.06,9.09v-8.12H129v8.12Z"/><path class="afb07a1c-e219-44a9-be21-409fc4120be8" d="M130.65,116.29v-8.12h2.14v.67a3.32,3.32,0,0,1,2.29-.83,3.25,3.25,0,0,1,1.66.42,2.92,2.92,0,0,1,1.13,1.13,3.42,3.42,0,0,1,.4,1.68v5.05h-2.12v-4.72a1.59,1.59,0,0,0-1.7-1.72,2.12,2.12,0,0,0-1,.21,1.84,1.84,0,0,0-.7.6v5.63Z"/><path class="afb07a1c-e219-44a9-be21-409fc4120be8" d="M139.9,116.29v-8.12H142v.67a3.37,3.37,0,0,1,2.3-.83,3.28,3.28,0,0,1,1.66.42,2.92,2.92,0,0,1,1.13,1.13,3.42,3.42,0,0,1,.4,1.68v5.05H145.4v-4.72a1.59,1.59,0,0,0-1.7-1.72,2.12,2.12,0,0,0-1,.21,1.87,1.87,0,0,0-.71.6v5.63Z"/><path class="afb07a1c-e219-44a9-be21-409fc4120be8" d="M153.11,116.45a4.39,4.39,0,0,1-2.2-.56,4.22,4.22,0,0,1-1.56-1.52,4,4,0,0,1-.58-2.13,4.05,4.05,0,0,1,.58-2.15,4.11,4.11,0,0,1,1.56-1.51,4.68,4.68,0,0,1,4.4,0,4.26,4.26,0,0,1,1.56,1.51,4.14,4.14,0,0,1,.57,2.15,4.09,4.09,0,0,1-.57,2.13,4.19,4.19,0,0,1-1.55,1.52A4.4,4.4,0,0,1,153.11,116.45Zm0-1.86a2.08,2.08,0,0,0,1.15-.32,2.28,2.28,0,0,0,.81-.85,2.38,2.38,0,0,0,.3-1.2,2.26,2.26,0,0,0-.31-1.18,2.18,2.18,0,0,0-.81-.84,2.07,2.07,0,0,0-1.13-.32,2.16,2.16,0,0,0-1.15.32,2.11,2.11,0,0,0-.81.84,2.51,2.51,0,0,0,0,2.38,2.18,2.18,0,0,0,.8.85A2.06,2.06,0,0,0,153.11,114.59Z"/><path class="afb07a1c-e219-44a9-be21-409fc4120be8" d="M161.15,116.29l-3.47-8.12H160l2.21,5.41,2.23-5.41h2.27l-3.47,8.12Z"/><path class="afb07a1c-e219-44a9-be21-409fc4120be8" d="M169.92,116.43a3.44,3.44,0,0,1-1.53-.32,2.44,2.44,0,0,1-1-.88,2.25,2.25,0,0,1-.38-1.29,2.12,2.12,0,0,1,.88-1.82,4,4,0,0,1,2.43-.65,5.89,5.89,0,0,1,2,.33v-.59a1.29,1.29,0,0,0-.43-1.06,2,2,0,0,0-1.28-.36,4.3,4.3,0,0,0-1.11.16,9.58,9.58,0,0,0-1.37.51l-.76-1.59a11.9,11.9,0,0,1,1.84-.64,6.92,6.92,0,0,1,1.74-.22,3.81,3.81,0,0,1,2.58.79,2.79,2.79,0,0,1,.9,2.22v5.27h-2.11v-.57a3.27,3.27,0,0,1-1.07.54A4.31,4.31,0,0,1,169.92,116.43Zm-.92-2.54a.84.84,0,0,0,.4.74,1.94,1.94,0,0,0,1.08.28,3.81,3.81,0,0,0,1-.13,2.39,2.39,0,0,0,.81-.41v-1.18a3.28,3.28,0,0,0-.81-.24,5.14,5.14,0,0,0-.9-.07,2.2,2.2,0,0,0-1.15.26A.86.86,0,0,0,169,113.89Z"/><path class="afb07a1c-e219-44a9-be21-409fc4120be8" d="M179.6,116.42a3,3,0,0,1-2-.62,2.26,2.26,0,0,1-.69-1.78V110h-1.67v-1.78h1.67v-2.08l2.12-.48v2.56h2.34V110H179v3.61a1.08,1.08,0,0,0,.25.81,1.27,1.27,0,0,0,.87.24,3.37,3.37,0,0,0,.58,0,4.59,4.59,0,0,0,.57-.13v1.74a4.29,4.29,0,0,1-.81.18A7.05,7.05,0,0,1,179.6,116.42Z"/><path class="afb07a1c-e219-44a9-be21-409fc4120be8" d="M183.44,107.2a1.23,1.23,0,0,1-1.22-1.23,1.14,1.14,0,0,1,.36-.85,1.22,1.22,0,0,1,2.08.85,1.22,1.22,0,0,1-.35.87A1.19,1.19,0,0,1,183.44,107.2Zm-1.06,9.09v-8.12h2.14v8.12Z"/><path class="afb07a1c-e219-44a9-be21-409fc4120be8" d="M190.15,116.45a4.39,4.39,0,0,1-2.2-.56,4.22,4.22,0,0,1-1.56-1.52,4,4,0,0,1-.58-2.13,4.05,4.05,0,0,1,.58-2.15,4.11,4.11,0,0,1,1.56-1.51,4.67,4.67,0,0,1,4.4,0,4.26,4.26,0,0,1,1.56,1.51,4.14,4.14,0,0,1,.57,2.15,4.09,4.09,0,0,1-.57,2.13,4.19,4.19,0,0,1-1.55,1.52A4.4,4.4,0,0,1,190.15,116.45Zm0-1.86a2.08,2.08,0,0,0,1.15-.32,2.21,2.21,0,0,0,.81-.85,2.38,2.38,0,0,0,.3-1.2,2.26,2.26,0,0,0-.31-1.18,2.18,2.18,0,0,0-.81-.84,2.07,2.07,0,0,0-1.13-.32,2.24,2.24,0,0,0-2,1.16,2.51,2.51,0,0,0,0,2.38,2.26,2.26,0,0,0,.8.85A2.06,2.06,0,0,0,190.15,114.59Z"/><path class="afb07a1c-e219-44a9-be21-409fc4120be8" d="M195.79,116.29v-8.12h2.14v.67a3.34,3.34,0,0,1,2.29-.83,3.23,3.23,0,0,1,1.66.42,2.86,2.86,0,0,1,1.13,1.13,3.43,3.43,0,0,1,.41,1.68v5.05H201.3v-4.72a1.59,1.59,0,0,0-1.7-1.72,2.13,2.13,0,0,0-1,.21,1.92,1.92,0,0,0-.7.6v5.63Z"/><rect class="afb07a1c-e219-44a9-be21-409fc4120be8" x="57.24" y="55" width="109.32" height="26.11"/><path class="e5d03d61-5187-47ff-aab9-71d254b983a3" d="M78.11,72.62V61.71h5.48a3.92,3.92,0,0,1,1.9.44,3.3,3.3,0,0,1,1.29,1.22,3.43,3.43,0,0,1,.46,1.77,3.36,3.36,0,0,1-.46,1.73,3.21,3.21,0,0,1-1.3,1.2,4.05,4.05,0,0,1-1.89.44H80.37v4.11Zm2.26-6h3a1.62,1.62,0,0,0,1.17-.41A1.37,1.37,0,0,0,85,65.15a1.44,1.44,0,0,0-.45-1.1,1.67,1.67,0,0,0-1.17-.41h-3Z"/><path class="e5d03d61-5187-47ff-aab9-71d254b983a3" d="M91.79,72.78a4.42,4.42,0,0,1-2.2-.56A4.37,4.37,0,0,1,88,70.7a4.1,4.1,0,0,1-.58-2.13A4.15,4.15,0,0,1,88,66.42a4.26,4.26,0,0,1,1.56-1.51,4.67,4.67,0,0,1,4.4,0,4.26,4.26,0,0,1,1.56,1.51,4.15,4.15,0,0,1,.58,2.15,4.09,4.09,0,0,1-.57,2.13A4.22,4.22,0,0,1,94,72.22,4.4,4.4,0,0,1,91.79,72.78Zm0-1.86a2.06,2.06,0,0,0,1.15-.32,2.14,2.14,0,0,0,.81-.85,2.51,2.51,0,0,0,0-2.38,2.33,2.33,0,0,0-.81-.84,2.12,2.12,0,0,0-1.13-.32,2.24,2.24,0,0,0-2,1.16,2.43,2.43,0,0,0,.8,3.23A2.06,2.06,0,0,0,91.79,70.92Z"/><path class="e5d03d61-5187-47ff-aab9-71d254b983a3" d="M98.82,72.62,96.58,64.5h2L100,69.74l1.62-5.24h1.8l1.6,5.25,1.35-5.25h2l-2.24,8.12H104l-1.56-5.19-1.58,5.19Z"/><path class="e5d03d61-5187-47ff-aab9-71d254b983a3" d="M113.14,72.78a4.36,4.36,0,0,1-2.21-.57,4.27,4.27,0,0,1-1.56-1.51,4,4,0,0,1-.58-2.13,4.17,4.17,0,0,1,.55-2.13,4.08,4.08,0,0,1,1.51-1.52,4,4,0,0,1,2.1-.56,3.88,3.88,0,0,1,2.09.57,4,4,0,0,1,1.43,1.55,4.66,4.66,0,0,1,.52,2.24v.57h-6a2.46,2.46,0,0,0,.47.87,2.17,2.17,0,0,0,.8.6,2.44,2.44,0,0,0,1,.21,3,3,0,0,0,1-.16,2.18,2.18,0,0,0,.79-.48l1.41,1.28a5.39,5.39,0,0,1-1.54.89A5.14,5.14,0,0,1,113.14,72.78Zm-2.2-5h4a2.24,2.24,0,0,0-.41-.85,1.89,1.89,0,0,0-.69-.57,1.92,1.92,0,0,0-.88-.2,2,2,0,0,0-.9.19,1.85,1.85,0,0,0-.68.56A2.4,2.4,0,0,0,110.94,67.76Z"/><path class="e5d03d61-5187-47ff-aab9-71d254b983a3" d="M118.29,72.62V64.5h2.15v.9a2.58,2.58,0,0,1,.93-.81,2.66,2.66,0,0,1,1.24-.28,2.11,2.11,0,0,1,.89.17v1.89a3,3,0,0,0-.53-.17,2.62,2.62,0,0,0-.57-.06,2.11,2.11,0,0,0-1.13.31,2.4,2.4,0,0,0-.83.9v5.27Z"/><path class="e5d03d61-5187-47ff-aab9-71d254b983a3" d="M125.73,63.53a1.16,1.16,0,0,1-.86-.36,1.19,1.19,0,0,1-.36-.87,1.14,1.14,0,0,1,.36-.85,1.15,1.15,0,0,1,.86-.35,1.2,1.2,0,0,1,1.21,1.2,1.18,1.18,0,0,1-.35.87A1.15,1.15,0,0,1,125.73,63.53Zm-1.06,9.09V64.5h2.13v8.12Z"/><path class="e5d03d61-5187-47ff-aab9-71d254b983a3" d="M128.47,72.62V64.5h2.14v.67a3.34,3.34,0,0,1,2.29-.83,3.25,3.25,0,0,1,1.66.42,2.86,2.86,0,0,1,1.13,1.13,3.43,3.43,0,0,1,.41,1.68v5.05H134V67.9a1.74,1.74,0,0,0-.46-1.26,1.71,1.71,0,0,0-1.24-.46,2.13,2.13,0,0,0-1,.21,1.92,1.92,0,0,0-.7.6v5.63Z"/><path class="e5d03d61-5187-47ff-aab9-71d254b983a3" d="M141.82,76a8.32,8.32,0,0,1-1.82-.19,6.61,6.61,0,0,1-1.59-.56l.74-1.65a7.22,7.22,0,0,0,1.33.49,5.18,5.18,0,0,0,1.29.16,2.14,2.14,0,0,0,1.43-.41,1.49,1.49,0,0,0,.49-1.22v-.64a3.7,3.7,0,0,1-2.23.71,4.07,4.07,0,0,1-3.57-2.05,4.12,4.12,0,0,1-.54-2.09,4,4,0,0,1,.55-2.09,4.12,4.12,0,0,1,1.5-1.49,4.28,4.28,0,0,1,2.14-.54,4,4,0,0,1,1.14.16,3.73,3.73,0,0,1,1,.48V64.5h2.12v8.11a3.07,3.07,0,0,1-1,2.48A4.5,4.5,0,0,1,141.82,76Zm0-5.1a2.85,2.85,0,0,0,1.06-.19,2.35,2.35,0,0,0,.82-.56V67a2.5,2.5,0,0,0-.84-.55,3,3,0,0,0-1-.19,2.28,2.28,0,0,0-1.2.31,2.31,2.31,0,0,0-.85.82,2.23,2.23,0,0,0-.31,1.17,2.43,2.43,0,0,0,.3,1.2,2.34,2.34,0,0,0,2.06,1.15Z"/></svg>