<svg id="bcd8e076-de92-4bfa-91c4-ad258a06ce0e" data-name="Layer 1" xmlns="http://www.w3.org/2000/svg" xmlns:xlink="http://www.w3.org/1999/xlink" viewBox="0 0 555 288"><defs><style>.a33b8d28-f16b-4b36-b57c-7194c7bef903{fill:none;}.b8a7dfc7-ecc9-43de-8234-444d14af965a{clip-path:url(#bcc98ec8-ec92-4f4c-be9c-c72e5b40965e);}.b76ae091-ab40-48ba-94b6-e3a77e723005{fill:#fddbc7;}.bdac7e8b-42e6-4065-8414-cf7048310795{fill:#e00;}.a46a2b1b-9113-4ac1-bc01-1b6c4791d445{fill:#f7823c;}.eb3463e0-e58d-4ceb-b72e-b879c03c2283{fill:#fab890;}.a32c65e5-b1ef-474b-ab93-da5882a26fd6{fill:#261a4c;}.e8ce3682-b7ac-4343-aa42-f0b76db541da{clip-path:url(#fa90a3ae-efb8-4e22-beb4-09fdf6d35888);}.ef93c6fd-57f5-4b53-bca3-0b67c677e088{clip-path:url(#a7d1d5ba-2dc3-42cd-8bf8-aa09a4d79b84);}.ee8f938b-69f2-4e8f-8f55-c8833bf38cdf{clip-path:url(#b308d660-4426-48b6-a6ab-ca9914ebd0f8);}.a01f8f7a-ed83-4af0-8b67-d220ad11ec3e{fill:#fff;}.f4dd8f07-0d37-4f96-966e-411a60e6eda8{fill:#be0000;}.fe648c06-3284-49a7-97c0-a3105931451c{fill:#8f0000;}.e9ffaf94-bc87-4b43-b9b8-6334cd5909c6{clip-path:url(#bd010fe2-f9fe-447a-88c4-33c5fe18d24b);}.a0a2bdf1-cf78-4006-a264-7cf6efc44463{clip-path:url(#bf186fd4-bd23-4eaa-8ef9-9ec8d85cb136);}.b702bde4-6dc6-4ffc-8306-044fa922777a{clip-path:url(#af43e54f-a95c-4ee4-bad7-e478c3a56d29);}.bbd83bff-d9dd-41ba-9592-554422813d85{clip-path:url(#a8eef3eb-62a5-4b6b-a33e-8e2138dd344d);}.a82d0ffb-e632-4afb-b859-398a21c94273{clip-path:url(#e2f10f8f-ced9-46b5-97b6-ec4e73cd2f33);}.a4cdedad-9361-4554-9dc9-1beb05e839df{clip-path:url(#b69a997b-bbc4-4aca-91e0-00363d5fcda8);}</style><clipPath id="bcc98ec8-ec92-4f4c-be9c-c72e5b40965e"><rect class="a33b8d28-f16b-4b36-b57c-7194c7bef903" width="555" height="288"/></clipPath><clipPath id="fa90a3ae-efb8-4e22-beb4-09fdf6d35888"><path class="a33b8d28-f16b-4b36-b57c-7194c7bef903" d="M199.79-13.65c78.14,0,73,69.65,107.57,99.4s54.28,91.88,37.93,147.13c-14.44,48.81-74.69,83.05-141.9,83.05-82.4,0-150.86-36.16-155.31-86-6.54-73.24,66.7-82.72,54.28-130.13S112.82-13.65,199.79-13.65Z"/></clipPath><clipPath id="a7d1d5ba-2dc3-42cd-8bf8-aa09a4d79b84"><path class="a33b8d28-f16b-4b36-b57c-7194c7bef903" d="M136,226.67c-4.58,14.39-8.83,48.39,4.91,50.68s30.73-28.77,30.73-28.77Z"/></clipPath><clipPath id="b308d660-4426-48b6-a6ab-ca9914ebd0f8"><path class="a33b8d28-f16b-4b36-b57c-7194c7bef903" d="M285.13,250.21a38.74,38.74,0,0,0,12.09-2.94c5.89-2.62,10.14,2.61,10.14,2.61-2.29,1-8.17,28.12-22.23,29.76-10.2,1.18-27.14-19.95-36.62-36.3L273,232.88s9.81,12.1,15.69,23.22"/></clipPath><clipPath id="bd010fe2-f9fe-447a-88c4-33c5fe18d24b"><path class="a33b8d28-f16b-4b36-b57c-7194c7bef903" d="M243.6,187c-.86-5.87,3-9.94,3-13,0-3.92-3.27-3.6-4.26-7.19s1.31-4.58,1-9.49-7.11-.82-11.45-22.23c-2.45-12.07-16.35-24.19-24.19-24.19a14.88,14.88,0,0,0-5.61.9s-1.59-1.56-6.82-1.56c-5.56,0-15,4.85-22.86,16s-13.1,14.74-13.1,19.64a19.44,19.44,0,0,0,2,8c-2.18,4-5,8.21-5,10.6,0,3.92,2.95,5.23,2.95,7.84,0,4.58-10.79,10.14-7.2,22.56,0,0,1.64,6.54,11.77,6.54s66.7,5.89,74.88,4.25,8,4.5,9.48-2.61C249.41,197.1,247.18,191.87,243.6,187Z"/></clipPath><clipPath id="bf186fd4-bd23-4eaa-8ef9-9ec8d85cb136"><path class="a33b8d28-f16b-4b36-b57c-7194c7bef903" d="M283.82,243.34c-7.52-7.84-22.89-30.4-28.89-34.65s-75.09-22.24-88.49-21.58-19,10.46-19,10.46c-6.54,16.35-21.58,42.18-21.58,42.18s4.9,19.62,32.37,15.37l.28,0c-3,29.37-14.75,64.08-13,70.93,1,3.92,29.47,9.11,57.37,9.09s55.19-5.25,59-9.09c.54-12.15-8.72-35.42-12-63.95l2.49.19C279.9,262,283.82,243.34,283.82,243.34Z"/></clipPath><clipPath id="af43e54f-a95c-4ee4-bad7-e478c3a56d29"><path class="a33b8d28-f16b-4b36-b57c-7194c7bef903" d="M171.71,163.07c0,8.51-6.41,11.45-6.41,28.12s19.61,17.66,24.19,32.05c0,0,12.1-2.62,7.19-23.87Z"/></clipPath><clipPath id="a8eef3eb-62a5-4b6b-a33e-8e2138dd344d"><path class="a33b8d28-f16b-4b36-b57c-7194c7bef903" d="M178.21,139.7c-5.23,9.81,5.23,14.06,3.27,21.58-1.2,4.6-6.15,14.21-4.9,20.92,1.63,8.83,8.5,25.83,36.29,28.78,0,0-5.23-10.79-1-18,0,0,7.84-15.69-5.23-31.71s-22.24-24.2-22.24-24.2Z"/></clipPath><clipPath id="e2f10f8f-ced9-46b5-97b6-ec4e73cd2f33"><path class="a33b8d28-f16b-4b36-b57c-7194c7bef903" d="M294.86,249.62c-.36-1.46-5.48-2.19-5.48-5.12s4.75-2.92,4.75-2.92,5.12-8,7.31-8a7.94,7.94,0,0,1,5.12,1.82,10.11,10.11,0,0,1,5.85,4A4,4,0,0,1,315.7,243s1.1,0,1.47.73-2.56,5.85-4.39,6.59c-3.67,1.46-5.12.36-6.58,1.46S294.86,249.62,294.86,249.62Z"/></clipPath><clipPath id="b69a997b-bbc4-4aca-91e0-00363d5fcda8"><circle class="a33b8d28-f16b-4b36-b57c-7194c7bef903" cx="93.9" cy="230.62" r="7.23"/></clipPath></defs><g class="b8a7dfc7-ecc9-43de-8234-444d14af965a"><rect class="b76ae091-ab40-48ba-94b6-e3a77e723005" x="-3.36" y="0.99" width="564.08" height="296.14"/><path d="M436.58,251.77a3,3,0,0,1,.07.73c0,3.15-3.84,3.7-6.49,3.7-10.32,0-18-6.41-18-8.36a1.46,1.46,0,0,1,0-.41l-.77,1.92a3.78,3.78,0,0,0-.32,1.55c0,3.84,8.68,9.65,18.6,9.65,4.39,0,7.73-1.65,7.73-4.62a10.5,10.5,0,0,0-.37-2.15Z"/><path class="bdac7e8b-42e6-4065-8414-cf7048310795" d="M430.16,256.2c2.65,0,6.49-.55,6.49-3.7a3,3,0,0,0-.07-.73L435,244.91c-.36-1.51-.68-2.19-3.33-3.52-2.06-1-6.54-2.79-7.87-2.79s-1.6,1.6-3.06,1.6S418.27,239,417,239s-2.1.86-2.74,2.65c0,0-1.79,5-2,5.76a1.46,1.46,0,0,0,0,.41c0,1.95,7.69,8.36,18,8.36m6.9-2.42a10.5,10.5,0,0,1,.37,2.15c0,3-3.34,4.62-7.73,4.62-9.92,0-18.6-5.81-18.6-9.65a3.78,3.78,0,0,1,.32-1.55c-3.57.18-8.19.82-8.19,4.89,0,6.67,15.82,14.9,28.34,14.9,9.6,0,12-4.34,12-7.77,0-2.7-2.33-5.76-6.54-7.59"/><path d="M447.92,246.15h7.64a5.13,5.13,0,0,1,5.27,5.07,4.83,4.83,0,0,1-2.84,4.36l3.33,5.89h-4.21l-2.87-5.36h-2.56v5.36h-3.76Zm3.76,3.21V253h3.44a1.84,1.84,0,0,0,1.9-1.78,1.88,1.88,0,0,0-1.9-1.86Z"/><path d="M467.5,261.69a6.08,6.08,0,0,1-6.3-6,6,6,0,0,1,6-6c3.37,0,5.85,2.65,5.85,6.24v1h-8.26a3,3,0,0,0,2.85,1.83,3.14,3.14,0,0,0,2.32-.87l2.34,2.08A7,7,0,0,1,467.5,261.69Zm-2.69-7.27h4.82a2.61,2.61,0,0,0-2.43-1.82A2.41,2.41,0,0,0,464.81,254.42Z"/><path d="M482.83,260.62a5.27,5.27,0,0,1-3.1,1,6,6,0,0,1,.1-11.94,6,6,0,0,1,3,.79v-4.35l3.55-1.1v16.42h-3.51Zm-2.54-2a3.54,3.54,0,0,0,2.5-.92v-4a3.73,3.73,0,0,0-2.5-.9,2.94,2.94,0,1,0,0,5.87Z"/><path d="M501.39,255.47h-5.86v6h-3.77V246.15h3.77V252h5.86v-5.88h3.77v15.32h-3.77Z"/><path d="M513.87,260.77a5.11,5.11,0,0,1-3.11.9c-2.58,0-4.31-1.62-4.31-3.7s1.64-3.57,4.51-3.57a6.15,6.15,0,0,1,2.91.66v-.7c0-1.12-.74-1.69-2.19-1.69a9,9,0,0,0-3.48.83l-1.05-2.65a12.28,12.28,0,0,1,4.77-1.18c3.55,0,5.5,1.55,5.5,4.38v7.42h-3.55Zm-2.16-1.58a4,4,0,0,0,2.16-.59v-1.2a4.65,4.65,0,0,0-2.27-.61c-1.1,0-1.78.46-1.78,1.18S510.54,259.19,511.71,259.19Z"/><path d="M524.34,261.65c-2.43,0-3.79-1.16-3.79-3.57v-5.23H518.1v-3h2.45v-2.65l3.55-1.09v3.74h3.24v3H524.1v4.42c0,1,.52,1.36,1.6,1.36a3.82,3.82,0,0,0,1.55-.36l-.48,2.87A6.13,6.13,0,0,1,524.34,261.65Z"/><path class="b76ae091-ab40-48ba-94b6-e3a77e723005" d="M199.79-13.65c78.14,0,73,69.65,107.57,99.4s54.28,91.88,37.93,147.13c-14.44,48.81-74.69,83.05-141.9,83.05-82.4,0-150.86-36.16-155.31-86-6.54-73.24,74.22-73.57,61.8-121S112.82-13.65,199.79-13.65Z"/><path class="a46a2b1b-9113-4ac1-bc01-1b6c4791d445" d="M60.34,165.36H59V126A3.93,3.93,0,0,1,63,122H92.38A2.62,2.62,0,0,0,95,119.43V27.71a3.93,3.93,0,0,1,3.92-3.92H172V25.1H98.92a2.61,2.61,0,0,0-2.61,2.61v91.72a3.93,3.93,0,0,1-3.93,3.92H63A2.62,2.62,0,0,0,60.34,126Z"/><path class="a46a2b1b-9113-4ac1-bc01-1b6c4791d445" d="M323.87,181.39H300.82v-1.31h23.05a2.63,2.63,0,0,0,2.62-2.62V76.76a2.63,2.63,0,0,0-2.62-2.62h-59V72.83h59a3.93,3.93,0,0,1,3.92,3.93v100.7A3.93,3.93,0,0,1,323.87,181.39Z"/><rect class="bdac7e8b-42e6-4065-8414-cf7048310795" x="45.61" y="149.39" width="68.33" height="38.44"/><path class="eb3463e0-e58d-4ceb-b72e-b879c03c2283" d="M103.9,166.23H94.74a.65.65,0,0,1-.65-.65v-9.16a.65.65,0,0,1,.65-.65h9.16a.65.65,0,0,1,.65.65v9.16A.65.65,0,0,1,103.9,166.23Zm-8.51-1.31h7.85v-7.84H95.39Z"/><path class="eb3463e0-e58d-4ceb-b72e-b879c03c2283" d="M84.52,166.23H75.37a.66.66,0,0,1-.66-.65v-9.16a.66.66,0,0,1,.66-.65h9.15a.66.66,0,0,1,.66.65v9.16A.66.66,0,0,1,84.52,166.23ZM76,164.92h7.85v-7.84H76Z"/><path class="eb3463e0-e58d-4ceb-b72e-b879c03c2283" d="M65.4,182.25H56.24a.65.65,0,0,1-.65-.65v-9.16a.65.65,0,0,1,.65-.65H65.4a.65.65,0,0,1,.65.65v9.16A.65.65,0,0,1,65.4,182.25Zm-8.51-1.31h7.85V173.1H56.89Z"/><path class="eb3463e0-e58d-4ceb-b72e-b879c03c2283" d="M82.4,182.25a.62.62,0,0,1-.46-.19l-4.58-4.58a.64.64,0,0,1,0-.92L81.94,172a.65.65,0,1,1,.92.93L78.75,177l4.11,4.12a.65.65,0,0,1-.46,1.11Z"/><path class="eb3463e0-e58d-4ceb-b72e-b879c03c2283" d="M96.05,177.67H78.15a.65.65,0,1,1,0-1.3h17.9a2.62,2.62,0,0,0,2.61-2.62v-8.17a.67.67,0,0,1,.66-.66.66.66,0,0,1,.65.66v8.17A3.93,3.93,0,0,1,96.05,177.67Z"/><rect class="a32c65e5-b1ef-474b-ab93-da5882a26fd6" x="101.05" y="149.51" width="22.89" height="38.44"/><rect class="bdac7e8b-42e6-4065-8414-cf7048310795" x="284.62" y="116.7" width="68.33" height="38.44"/><path class="eb3463e0-e58d-4ceb-b72e-b879c03c2283" d="M342.9,133.53h-9.15a.65.65,0,0,1-.65-.65v-9.15a.65.65,0,0,1,.65-.66h9.15a.65.65,0,0,1,.66.66v9.15A.65.65,0,0,1,342.9,133.53Zm-8.5-1.3h7.85v-7.85H334.4Z"/><path class="eb3463e0-e58d-4ceb-b72e-b879c03c2283" d="M323.53,133.53h-9.15a.66.66,0,0,1-.66-.65v-9.15a.66.66,0,0,1,.66-.66h9.15a.66.66,0,0,1,.66.66v9.15A.66.66,0,0,1,323.53,133.53Zm-8.5-1.3h7.85v-7.85H315Z"/><path class="eb3463e0-e58d-4ceb-b72e-b879c03c2283" d="M304.25,133.65H295.1a.66.66,0,0,1-.66-.65v-9.16a.66.66,0,0,1,.66-.65h9.15a.66.66,0,0,1,.66.65V133A.66.66,0,0,1,304.25,133.65Zm-8.5-1.31h7.85v-7.85h-7.85Z"/><path class="eb3463e0-e58d-4ceb-b72e-b879c03c2283" d="M335.71,149.56a.66.66,0,0,1-.46-1.12l4.11-4.12-4.11-4.11a.65.65,0,0,1,.92-.93l4.58,4.58a.65.65,0,0,1,0,.93l-4.58,4.57A.63.63,0,0,1,335.71,149.56Z"/><path class="eb3463e0-e58d-4ceb-b72e-b879c03c2283" d="M340,145h-17.9a3.93,3.93,0,0,1-3.92-3.93v-8.17a.65.65,0,0,1,1.3,0v8.17a2.62,2.62,0,0,0,2.62,2.62H340a.66.66,0,1,1,0,1.31Z"/><rect class="a32c65e5-b1ef-474b-ab93-da5882a26fd6" x="288.58" y="116.73" width="19.62" height="38.44"/><g class="e8ce3682-b7ac-4343-aa42-f0b76db541da"><path class="eb3463e0-e58d-4ceb-b72e-b879c03c2283" d="M288.72,231.57H120a.65.65,0,0,1,0-1.3H288.72a.65.65,0,1,1,0,1.3Z"/><rect class="a33b8d28-f16b-4b36-b57c-7194c7bef903" x="50.13" y="131.04" width="112.62" height="60.49" transform="translate(267.72 54.84) rotate(90)"/><path class="a46a2b1b-9113-4ac1-bc01-1b6c4791d445" d="M259.46,74H191.62a3.93,3.93,0,0,1-3.93-3.92V26.9H189V70.06a2.61,2.61,0,0,0,2.62,2.61h67.84Z"/><path class="eb3463e0-e58d-4ceb-b72e-b879c03c2283" d="M352.15,277.68H64.1a.66.66,0,0,1-.65-.66.65.65,0,0,1,.65-.65h288a.66.66,0,0,1,.66.65A.67.67,0,0,1,352.15,277.68Z"/><path class="eb3463e0-e58d-4ceb-b72e-b879c03c2283" d="M136,226.67c-4.58,14.39-8.83,48.39,4.91,50.68s30.73-28.77,30.73-28.77Z"/><g class="ef93c6fd-57f5-4b53-bca3-0b67c677e088"><path class="a46a2b1b-9113-4ac1-bc01-1b6c4791d445" d="M145.19,226c-4.58,14.38-16,49.69-2.29,52s28.77-29.42,28.77-29.42Z"/></g><path class="a46a2b1b-9113-4ac1-bc01-1b6c4791d445" d="M316.61,246a2,2,0,0,0-1.54-.69,4.49,4.49,0,0,0-3.68-3.43,11.79,11.79,0,0,0-6.28-3.77,9.1,9.1,0,0,0-5.32-1.71c-2.19,0-6.45,7.54-6.45,7.54s-1.48-1-1.17,1.76c.23,2,3.1,2.92,4.81,3.81A103.08,103.08,0,0,1,285.45,252c-6.74-8.33-14.14-16.23-14.14-16.23l-23.41,9.81c11.23,15.32,29.16,35.54,39.18,34,17-2.57,18.65-24.8,20.07-26.08,1.35-1,2.26,0,5.77-1.37C314.67,251.45,317.05,246.65,316.61,246Z"/><path class="eb3463e0-e58d-4ceb-b72e-b879c03c2283" d="M285.13,250.21a38.74,38.74,0,0,0,12.09-2.94c5.89-2.62,10.14,2.61,10.14,2.61-2.29,1-8.17,28.12-22.23,29.76-10.2,1.18-27.14-19.95-36.62-36.3L273,232.88s12.1,15.7,18,26.81"/><path class="b76ae091-ab40-48ba-94b6-e3a77e723005" d="M291,260.35a.67.67,0,0,1-.58-.35c-5.79-10.94-17.8-26.56-17.92-26.72a.66.66,0,0,1,.12-.92.66.66,0,0,1,.92.12c.12.16,12.2,15.87,18,26.91a.65.65,0,0,1-.27.88A.68.68,0,0,1,291,260.35Z"/><g class="ee8f938b-69f2-4e8f-8f55-c8833bf38cdf"><path class="a46a2b1b-9113-4ac1-bc01-1b6c4791d445" d="M256.68,231.9C269.43,263.62,292,274.41,287.09,280s-36.29-10.46-41.85-19.61S256.68,231.9,256.68,231.9Z"/></g><rect class="a32c65e5-b1ef-474b-ab93-da5882a26fd6" x="108.02" y="96.54" width="193.56" height="108.88"/><rect class="b76ae091-ab40-48ba-94b6-e3a77e723005" x="154.49" y="58.32" width="100.63" height="185.31" transform="translate(355.78 -53.82) rotate(90)"/><polygon class="a01f8f7a-ed83-4af0-8b67-d220ad11ec3e" points="272.16 101.08 111.89 101.08 111.24 201.59 173.83 201.59 272.16 101.08"/><circle class="bdac7e8b-42e6-4065-8414-cf7048310795" cx="199.79" cy="144.93" r="33.19"/><path class="f4dd8f07-0d37-4f96-966e-411a60e6eda8" d="M163.17,171.09c5.23-10.47-3.92-15.7-3.92-25.18,0-4.9,5.23-8.5,13.1-19.64s17.3-16,22.86-16c5.23,0,6.82,1.56,6.82,1.56a14.88,14.88,0,0,1,5.61-.9c7.84,0,21.74,12.12,24.19,24.19,4.34,21.41,11.12,17.33,11.45,22.23s-2,5.89-1,9.49,4.26,3.27,4.26,7.19-6.22,9.48-1,18.31"/><path class="f4dd8f07-0d37-4f96-966e-411a60e6eda8" d="M163.82,146.89c0,4.91-7.52,13.73-7.52,17.66s2.95,5.23,2.95,7.84c0,4.58-10.79,10.14-7.2,22.56,0,0,1.64,6.54,11.77,6.54s66.7,5.89,74.88,4.25,8,4.5,9.48-2.61c3.92-19.29-27.46-30.41-25.83-46.43"/><path class="fe648c06-3284-49a7-97c0-a3105931451c" d="M215.26,181.84s33.35,10.14,32.47,26.62c-.86,15.92-14.59,10.69-14.59,10.69S208.17,207,215.26,181.84Z"/><g class="e9ffaf94-bc87-4b43-b9b8-6334cd5909c6"><path class="fe648c06-3284-49a7-97c0-a3105931451c" d="M191,224.71c2.62-5.56-2.29-16-6.86-20.6s-16-12.1-15.37-20.6,6.86-17.33,2-27.14-5.56-17,1-25.17,16.68-22.89,30.41-19.29c0,0-.33-6.54-10.14-5.89s-36.29,26.81-35,38.91-4.58,19-4.91,24.52-5.88,17.66-2.94,22.89,5.89,15.69,17,21.58,21.58,16,23.22,13.4Z"/><path class="fe648c06-3284-49a7-97c0-a3105931451c" d="M249.16,178.28c-20.6-2.94-26.81-21.58-26.81-21.58-1.29,12.61,17.89,22.18,24.2,35.1C251.12,188.09,249.16,178.28,249.16,178.28Z"/></g><path class="a01f8f7a-ed83-4af0-8b67-d220ad11ec3e" d="M252.43,262.31c27.47-.33,31.39-19,31.39-19-7.52-7.84-22.89-30.4-28.89-34.65s-75.09-22.24-88.49-21.58-19,10.46-19,10.46c-6.54,16.35-21.58,42.18-21.58,42.18s4.9,19.62,32.37,15.37"/><path class="a01f8f7a-ed83-4af0-8b67-d220ad11ec3e" d="M159.25,242.69c0,31.06-15.7,75.53-13.74,83.38,1,3.92,29.47,9.11,57.37,9.09s55.19-5.25,59-9.09c.66-14.72-13.08-45.78-13.08-82.73,0,0-21.25-13.41-45.94-13.41S159.25,242.69,159.25,242.69Z"/><path class="eb3463e0-e58d-4ceb-b72e-b879c03c2283" d="M294.86,249.62c-.36-1.46-5.48-2.19-5.48-5.12s4.75-2.92,4.75-2.92,5.12-8,7.31-8a7.94,7.94,0,0,1,5.12,1.82,10.11,10.11,0,0,1,5.85,4A4,4,0,0,1,315.7,243s1.1,0,1.47.73-2.56,5.85-4.39,6.59c-3.67,1.46-5.12.36-6.58,1.46S294.86,249.62,294.86,249.62Z"/><path class="f4dd8f07-0d37-4f96-966e-411a60e6eda8" d="M178.21,139.7c-5.23,9.81,5.23,14.06,3.27,21.58-1.2,4.6-6.15,14.21-4.9,20.92,1.63,8.83,8.5,25.83,36.29,28.78,0,0-5.23-10.79-1-18,0,0,7.84-15.69-5.23-31.71s-22.24-24.2-22.24-24.2Z"/><path class="f4dd8f07-0d37-4f96-966e-411a60e6eda8" d="M227.58,194.3c-11.12,6.87-23.87,2-27.79-2,0,0-7.14-6.61-7.82-15.57-.38-5,17.87-16.87,19.92-5C214.83,188.74,227.58,194.3,227.58,194.3Z"/><g class="a0a2bdf1-cf78-4006-a264-7cf6efc44463"><path class="b76ae091-ab40-48ba-94b6-e3a77e723005" d="M185.4,191c-13.08,2-21.58-1-29.42,4.25s-16.86,28.47-17.33,32.37c-1.11,9.23,6.37,27.26,23.54,26.16,0,0,5.56,1.31,4.9,4.9s-39.89,8.18-44.46-18.63,20.1-49.76,29-53.17,30.82-1.76,30.82-1.76Z"/><path class="b76ae091-ab40-48ba-94b6-e3a77e723005" d="M250.8,227c1-4,9.48,24.52,17,25.83s14.06-3.93,16-6.87c0,0-8.18,22.56-32,18C251.78,263.94,247.53,239.42,250.8,227Z"/><path class="b76ae091-ab40-48ba-94b6-e3a77e723005" d="M256,331.3c4.31-11.6,16.87-73.92-3.23-87.25s-57.46-12.46-57.46-12.46-36.6-.87-56.69,12.46-7.54,75.65-3.23,87.25"/></g><path class="f4dd8f07-0d37-4f96-966e-411a60e6eda8" d="M171.71,163.07c0,8.51-6.41,11.45-6.41,28.12s19.61,17.66,24.19,32.05c0,0,12.1-2.62,7.19-23.87Z"/><path class="a46a2b1b-9113-4ac1-bc01-1b6c4791d445" d="M150.94,256.36c-6.63,0-13.95-1.55-19.61-6.86a21.72,21.72,0,0,1-6.07-9.59l-.06-.26.13-.23c.15-.26,15.09-26,21.54-42.09l0-.08c.23-.42,5.89-10.13,19.5-10.8l.06,1.31a23,23,0,0,0-18.41,10.1c-6.15,15.36-19.91,39.3-21.46,42a21.22,21.22,0,0,0,5.68,8.77c5.94,5.54,14.89,7.57,25.89,5.87l.2,1.29A48.93,48.93,0,0,1,150.94,256.36Z"/><g class="b702bde4-6dc6-4ffc-8306-044fa922777a"><path class="fe648c06-3284-49a7-97c0-a3105931451c" d="M191,224.71c2.62-5.56-2.29-16-6.86-20.6s-16-12.1-15.37-20.6,6.86-17.33,2-27.14-5.56-17,1-25.17,16.68-22.89,30.41-19.29c0,0-.33-6.54-10.14-5.89s-36.29,26.81-35,38.91-4.58,19-4.91,24.52-5.88,17.66-2.94,22.89,5.89,15.69,17,21.58,21.58,16,23.22,13.4Z"/></g><g class="bbd83bff-d9dd-41ba-9592-554422813d85"><path class="fe648c06-3284-49a7-97c0-a3105931451c" d="M212.21,206.73c-18.63-4.91-24.52-17.33-26.69-24.07s.78-11,2.5-18.11c2.29-9.48-12.75-13.08-9.81-24.85-6.21,10.46,5.23,14.06,3.27,21.58-1.2,4.6-6.15,14.21-4.9,20.92,1.63,8.83,8.5,25.83,36.29,28.78Z"/></g><path class="a46a2b1b-9113-4ac1-bc01-1b6c4791d445" d="M252.44,263l0-1.31c7.71-.09,18.39-1.79,25.53-9.39a21.27,21.27,0,0,0,5.23-9l1.28.27a22.19,22.19,0,0,1-5.56,9.67C271.45,261.09,260.4,262.87,252.44,263Z"/><path class="a32c65e5-b1ef-474b-ab93-da5882a26fd6" d="M258.2,327.05c3.92-11.6,15.37-73.92-2.94-87.25s-52.36-12.46-52.36-12.46-33.35-.87-51.66,12.46-6.87,75.65-3,87.25"/><path class="bdac7e8b-42e6-4065-8414-cf7048310795" d="M258.2,327.7l-.21,0a.66.66,0,0,1-.41-.83c1.85-5.45,5.74-23.6,6.83-42.8,1.66-29.18-4.27-39.88-9.54-43.71-9.34-6.81-23-9.8-32.73-11.11A136.3,136.3,0,0,0,202.91,228a.66.66,0,0,1,0-1.31,138.22,138.22,0,0,1,19.42,1.24c9.93,1.33,23.77,4.38,33.34,11.35,10,7.3,11,28.41,10.08,44.84-1.1,19.33-5,37.64-6.9,43.15A.65.65,0,0,1,258.2,327.7Z"/><g class="a82d0ffb-e632-4afb-b859-398a21c94273"><path class="a46a2b1b-9113-4ac1-bc01-1b6c4791d445" d="M303.44,233.21s-.33-.33-2,.33-3.27,4.57-4.25,7.52.77,6.92-4.52,7.87-8.88-5.59-6.59-7.87,13.4-11.77,16-10.14S303.44,233.21,303.44,233.21Z"/></g><path class="a46a2b1b-9113-4ac1-bc01-1b6c4791d445" d="M195.05,70.55A3.93,3.93,0,1,1,199,66.62,3.93,3.93,0,0,1,195.05,70.55Zm0-6.54a2.62,2.62,0,1,0,2.61,2.61A2.62,2.62,0,0,0,195.05,64Z"/></g><rect class="a32c65e5-b1ef-474b-ab93-da5882a26fd6" x="77.64" y="59.02" width="35.88" height="29.51"/><path class="bdac7e8b-42e6-4065-8414-cf7048310795" d="M113.52,59V88.53H77.64V59h35.88m1.31-1.31H76.34V89.84h38.49V57.71Z"/><path class="a01f8f7a-ed83-4af0-8b67-d220ad11ec3e" d="M98.77,77.17H94a.65.65,0,0,1-.65-.65.66.66,0,0,1,.65-.66h4.81a.66.66,0,0,1,.66.66A.65.65,0,0,1,98.77,77.17Z"/><path class="a01f8f7a-ed83-4af0-8b67-d220ad11ec3e" d="M89.63,77.17H86a.66.66,0,0,1-.66-.65.67.67,0,0,1,.66-.66h3.65a.66.66,0,0,1,.65.66A.65.65,0,0,1,89.63,77.17Z"/><path class="a01f8f7a-ed83-4af0-8b67-d220ad11ec3e" d="M102.35,71.73H96.69a.66.66,0,0,1-.65-.66.65.65,0,0,1,.65-.65h5.66a.66.66,0,0,1,.66.65A.67.67,0,0,1,102.35,71.73Z"/><path class="a01f8f7a-ed83-4af0-8b67-d220ad11ec3e" d="M93.34,71.73H86a.67.67,0,0,1-.66-.66.66.66,0,0,1,.66-.65h7.36a.65.65,0,0,1,.65.65A.66.66,0,0,1,93.34,71.73Z"/><path class="a01f8f7a-ed83-4af0-8b67-d220ad11ec3e" d="M108.06,82.57h-4.18a.66.66,0,0,1-.66-.65.67.67,0,0,1,.66-.66h4.18a.66.66,0,0,1,.66.66A.65.65,0,0,1,108.06,82.57Z"/><path class="a01f8f7a-ed83-4af0-8b67-d220ad11ec3e" d="M99.55,82.57H86a.66.66,0,0,1-.66-.65.67.67,0,0,1,.66-.66H99.55a.66.66,0,0,1,.65.66A.65.65,0,0,1,99.55,82.57Z"/><path class="a01f8f7a-ed83-4af0-8b67-d220ad11ec3e" d="M108.24,66.28h-7a.66.66,0,0,1,0-1.31h7a.66.66,0,0,1,0,1.31Z"/><path class="a01f8f7a-ed83-4af0-8b67-d220ad11ec3e" d="M97.9,66.28H86A.66.66,0,1,1,86,65H97.9a.66.66,0,1,1,0,1.31Z"/><path class="a01f8f7a-ed83-4af0-8b67-d220ad11ec3e" d="M82.71,82.56a.67.67,0,0,1-.66-.66V65.74a.66.66,0,0,1,.66-.65.65.65,0,0,1,.65.65V81.9A.66.66,0,0,1,82.71,82.56Z"/><rect class="a32c65e5-b1ef-474b-ab93-da5882a26fd6" x="244.07" y="59.02" width="35.88" height="29.51"/><path class="bdac7e8b-42e6-4065-8414-cf7048310795" d="M280,59V88.53H244.07V59H280m1.31-1.31h-38.5V89.84h38.5V57.71Z"/><path class="a01f8f7a-ed83-4af0-8b67-d220ad11ec3e" d="M265.2,77.17h-4.82a.65.65,0,0,1-.65-.65.66.66,0,0,1,.65-.66h4.82a.66.66,0,0,1,.65.66A.65.65,0,0,1,265.2,77.17Z"/><path class="a01f8f7a-ed83-4af0-8b67-d220ad11ec3e" d="M256.05,77.17H252.4a.65.65,0,0,1-.65-.65.66.66,0,0,1,.65-.66h3.65a.67.67,0,0,1,.66.66A.66.66,0,0,1,256.05,77.17Z"/><path class="a01f8f7a-ed83-4af0-8b67-d220ad11ec3e" d="M268.78,71.73h-5.66a.66.66,0,0,1-.66-.66.65.65,0,0,1,.66-.65h5.66a.65.65,0,0,1,.65.65A.66.66,0,0,1,268.78,71.73Z"/><path class="a01f8f7a-ed83-4af0-8b67-d220ad11ec3e" d="M259.76,71.73H252.4a.66.66,0,0,1-.65-.66.65.65,0,0,1,.65-.65h7.36a.65.65,0,0,1,.65.65A.66.66,0,0,1,259.76,71.73Z"/><path class="a01f8f7a-ed83-4af0-8b67-d220ad11ec3e" d="M274.49,82.57H270.3a.65.65,0,0,1-.65-.65.66.66,0,0,1,.65-.66h4.19a.66.66,0,0,1,.65.66A.65.65,0,0,1,274.49,82.57Z"/><path class="a01f8f7a-ed83-4af0-8b67-d220ad11ec3e" d="M266,82.57H252.4a.65.65,0,0,1-.65-.65.66.66,0,0,1,.65-.66H266a.66.66,0,0,1,.65.66A.65.65,0,0,1,266,82.57Z"/><path class="a01f8f7a-ed83-4af0-8b67-d220ad11ec3e" d="M274.66,66.28h-7.05a.66.66,0,0,1,0-1.31h7.05a.66.66,0,0,1,0,1.31Z"/><path class="a01f8f7a-ed83-4af0-8b67-d220ad11ec3e" d="M264.33,66.28H252.4a.66.66,0,0,1,0-1.31h11.93a.66.66,0,0,1,0,1.31Z"/><path class="a01f8f7a-ed83-4af0-8b67-d220ad11ec3e" d="M249.13,82.56a.66.66,0,0,1-.65-.66V65.74a.65.65,0,0,1,1.3,0V81.9A.66.66,0,0,1,249.13,82.56Z"/><path class="a32c65e5-b1ef-474b-ab93-da5882a26fd6" d="M114.08,233.51c0-.8-7.36-1.45-16.43-1.45s-16.44.65-16.44,1.45c0,.07.06.14.16.21l6.1,22.92c0,.5,4.62.91,10.32.91s10.33-.41,10.33-.91l5.8-22.92C114,233.65,114.08,233.58,114.08,233.51Z"/><path class="bdac7e8b-42e6-4065-8414-cf7048310795" d="M103.46,220a.25.25,0,0,1-.12,0,.33.33,0,0,1-.18-.43l1.46-3.49a.33.33,0,0,1,.6.25l-1.45,3.49A.34.34,0,0,1,103.46,220Z"/><path class="bdac7e8b-42e6-4065-8414-cf7048310795" d="M87.47,231.37l-.12,0L85,230.48a.33.33,0,0,1,.23-.62l2.33.88a.32.32,0,0,1,.19.42A.32.32,0,0,1,87.47,231.37Z"/><circle class="a46a2b1b-9113-4ac1-bc01-1b6c4791d445" cx="101.57" cy="227.11" r="9.74"/><path class="bdac7e8b-42e6-4065-8414-cf7048310795" d="M104.34,234.82a11.72,11.72,0,0,1-1.8-.14,2.65,2.65,0,0,1-2.21-2.42,6.73,6.73,0,0,0-1.77-4,6,6,0,0,0-3.43-2,2.29,2.29,0,0,1-1.84-2.2,2.62,2.62,0,0,1,0-.28,11.13,11.13,0,0,1,.2-2.09,9.75,9.75,0,0,0,15,12.36A11.15,11.15,0,0,1,104.34,234.82Z"/><ellipse class="a32c65e5-b1ef-474b-ab93-da5882a26fd6" cx="88.34" cy="256.79" rx="19.78" ry="1.6"/><circle class="bdac7e8b-42e6-4065-8414-cf7048310795" cx="92.1" cy="232.81" r="6.38"/><g class="a4cdedad-9361-4554-9dc9-1beb05e839df"><circle class="a46a2b1b-9113-4ac1-bc01-1b6c4791d445" cx="92.1" cy="232.81" r="6.38"/></g><path class="bdac7e8b-42e6-4065-8414-cf7048310795" d="M81.37,233.71h0l6.1,22.92c0,.5,4.62.91,10.32.91s10.33-.41,10.33-.91l5.8-22.92c-1.1.7-8,1.25-16.27,1.25S82.48,234.42,81.37,233.71Z"/><path class="bdac7e8b-42e6-4065-8414-cf7048310795" d="M108.41,222.93a.32.32,0,0,1-.28-.15.33.33,0,0,1,.11-.45l2.2-1.39a.33.33,0,1,1,.34.56l-2.2,1.38A.26.26,0,0,1,108.41,222.93Z"/><path class="bdac7e8b-42e6-4065-8414-cf7048310795" d="M96.19,222.35a.32.32,0,0,1-.25-.12l-2.33-2.91a.33.33,0,0,1,.51-.41l2.33,2.91a.32.32,0,0,1-.26.53Z"/><path class="bdac7e8b-42e6-4065-8414-cf7048310795" d="M106.66,229.62a.32.32,0,0,1-.14,0l-1.75-.87a.33.33,0,0,1,.3-.59l1.74.87a.33.33,0,0,1-.15.62Z"/><path class="bdac7e8b-42e6-4065-8414-cf7048310795" d="M112.48,226.71h-4.07a.32.32,0,0,1-.33-.32.33.33,0,0,1,.33-.33h4.07a.33.33,0,0,1,.33.33A.32.32,0,0,1,112.48,226.71Z"/><path class="bdac7e8b-42e6-4065-8414-cf7048310795" d="M105.79,234a.34.34,0,0,1-.23-.1l-1.6-1.6a.33.33,0,0,1,.46-.46l1.6,1.6a.32.32,0,0,1,0,.46A.33.33,0,0,1,105.79,234Z"/><path class="bdac7e8b-42e6-4065-8414-cf7048310795" d="M101.14,224.39a.34.34,0,0,1-.31-.21l-.87-2.33a.33.33,0,0,1,.19-.42.32.32,0,0,1,.42.19l.87,2.33a.32.32,0,0,1-.19.42Z"/><path class="bdac7e8b-42e6-4065-8414-cf7048310795" d="M89.5,229.62a.31.31,0,0,1-.28-.16l-1.63-2.76a.33.33,0,0,1,.11-.45.33.33,0,0,1,.45.12l1.63,2.76a.32.32,0,0,1-.11.45A.33.33,0,0,1,89.5,229.62Z"/><path class="bdac7e8b-42e6-4065-8414-cf7048310795" d="M99.1,233.41h0L95,233.11a.33.33,0,1,1,0-.65l4.07.29a.33.33,0,0,1,0,.66Z"/><path class="bdac7e8b-42e6-4065-8414-cf7048310795" d="M87.47,236a.31.31,0,0,1-.25-.11.32.32,0,0,1,0-.46l2.33-2a.33.33,0,0,1,.43.5l-2.33,2A.29.29,0,0,1,87.47,236Z"/><path class="bdac7e8b-42e6-4065-8414-cf7048310795" d="M95,228.75a.31.31,0,0,1-.2-.07.33.33,0,0,1-.06-.46l2-2.61a.32.32,0,0,1,.46-.06.33.33,0,0,1,0,.46l-2,2.61A.32.32,0,0,1,95,228.75Z"/><path class="bdac7e8b-42e6-4065-8414-cf7048310795" d="M92.12,231.37H92a.33.33,0,0,1-.22-.41l.58-2a.32.32,0,0,1,.4-.23.33.33,0,0,1,.23.41l-.59,2A.32.32,0,0,1,92.12,231.37Z"/><path class="a46a2b1b-9113-4ac1-bc01-1b6c4791d445" d="M102.19,34.91A3.93,3.93,0,1,1,106.12,31,3.93,3.93,0,0,1,102.19,34.91Zm0-6.54A2.62,2.62,0,1,0,104.81,31,2.61,2.61,0,0,0,102.19,28.37Z"/><path class="a46a2b1b-9113-4ac1-bc01-1b6c4791d445" d="M66.23,133.32a3.92,3.92,0,1,1,3.92-3.92A3.93,3.93,0,0,1,66.23,133.32Zm0-6.54a2.62,2.62,0,1,0,2.61,2.62A2.62,2.62,0,0,0,66.23,126.78Z"/><path class="a46a2b1b-9113-4ac1-bc01-1b6c4791d445" d="M320.6,84A3.93,3.93,0,1,1,324.53,80,3.93,3.93,0,0,1,320.6,84Zm0-6.54A2.62,2.62,0,1,0,323.22,80,2.62,2.62,0,0,0,320.6,77.41Z"/><rect class="bdac7e8b-42e6-4065-8414-cf7048310795" x="154.01" y="11.86" width="68.33" height="38.44"/><path class="eb3463e0-e58d-4ceb-b72e-b879c03c2283" d="M173.55,44.39H164.4a.65.65,0,0,1-.66-.66V34.58a.65.65,0,0,1,.66-.65h9.15a.65.65,0,0,1,.65.65v9.15A.65.65,0,0,1,173.55,44.39Zm-8.5-1.31h7.85V35.23h-7.85Z"/><path class="eb3463e0-e58d-4ceb-b72e-b879c03c2283" d="M192.92,44.39h-9.15a.66.66,0,0,1-.66-.66V34.58a.66.66,0,0,1,.66-.65h9.15a.66.66,0,0,1,.66.65v9.15A.66.66,0,0,1,192.92,44.39Zm-8.5-1.31h7.85V35.23h-7.85Z"/><path class="eb3463e0-e58d-4ceb-b72e-b879c03c2283" d="M212.3,44.39h-9.16a.65.65,0,0,1-.65-.66V34.58a.65.65,0,0,1,.65-.65h9.16a.65.65,0,0,1,.65.65v9.15A.65.65,0,0,1,212.3,44.39Zm-8.51-1.31h7.85V35.23h-7.85Z"/><path class="eb3463e0-e58d-4ceb-b72e-b879c03c2283" d="M212.05,28.37H202.9a.66.66,0,0,1-.66-.66V18.56a.66.66,0,0,1,.66-.66h9.15a.66.66,0,0,1,.65.66v9.15A.66.66,0,0,1,212.05,28.37Zm-8.5-1.31h7.85V19.21h-7.85Z"/><path class="eb3463e0-e58d-4ceb-b72e-b879c03c2283" d="M185.89,28.37a.7.7,0,0,1-.46-.19.67.67,0,0,1,0-.93l4.12-4.11L185.43,19a.65.65,0,0,1,.93-.92l4.57,4.57a.65.65,0,0,1,.2.47.63.63,0,0,1-.2.46l-4.57,4.58A.7.7,0,0,1,185.89,28.37Z"/><path class="eb3463e0-e58d-4ceb-b72e-b879c03c2283" d="M169,35.23a.65.65,0,0,1-.65-.65V26.41a3.93,3.93,0,0,1,3.92-3.93h17.9a.66.66,0,1,1,0,1.31h-17.9a2.61,2.61,0,0,0-2.61,2.62v8.17A.66.66,0,0,1,169,35.23Z"/><path class="bdac7e8b-42e6-4065-8414-cf7048310795" d="M227.58,195a.6.6,0,0,1-.26,0,25.54,25.54,0,0,1-6.94-5,32.83,32.83,0,0,1-9.14-18,.65.65,0,0,1,.54-.75.64.64,0,0,1,.75.53,31.65,31.65,0,0,0,8.72,17.26,24.58,24.58,0,0,0,6.59,4.81.66.66,0,0,1,.34.86A.65.65,0,0,1,227.58,195Z"/><path class="bdac7e8b-42e6-4065-8414-cf7048310795" d="M248.18,203.78h-.13a.66.66,0,0,1-.51-.77c2-10-5.79-17.77-13.35-25.32-6.83-6.83-13.28-13.27-12.49-21.05a.65.65,0,1,1,1.3.14c-.73,7.15,5.51,13.39,12.12,20,7.8,7.79,15.87,15.85,13.7,26.5A.65.65,0,0,1,248.18,203.78Z"/><path class="bdac7e8b-42e6-4065-8414-cf7048310795" d="M243.59,187.69a.65.65,0,0,1-.64-.56c-.56-3.79.74-6.86,1.79-9.33a10.9,10.9,0,0,0,1.15-3.77,4.05,4.05,0,0,0-1.8-3.47,6.89,6.89,0,0,1-2.43-3.55,7.52,7.52,0,0,1,.29-4.74,11.84,11.84,0,0,0,.67-4.87c-.09-1.35-.74-1.84-1.92-2.74-2.46-1.85-6.58-5-9.51-19.41-1.09-5.4-4.7-11.34-9.88-16.28-4.78-4.56-10-7.39-13.67-7.39a14.31,14.31,0,0,0-5.34.85.66.66,0,0,1-.87-.33.65.65,0,0,1,.33-.86,15.28,15.28,0,0,1,5.88-1c8.29,0,22.35,12.46,24.83,24.72,2.83,14,6.71,16.89,9,18.63,1.29,1,2.31,1.74,2.44,3.69a13.28,13.28,0,0,1-.73,5.35,6.15,6.15,0,0,0-.27,4,5.67,5.67,0,0,0,2,2.93A5.28,5.28,0,0,1,247.2,174a11.61,11.61,0,0,1-1.26,4.28c-1,2.44-2.2,5.2-1.7,8.63a.65.65,0,0,1-.55.74Z"/></g></svg>