<svg xmlns="http://www.w3.org/2000/svg" xmlns:xlink="http://www.w3.org/1999/xlink" viewBox="0 0 847 380"><defs><style>.ef3d00d5-bde3-4428-9207-b0d56d0243bd{fill:none;}.e8eac9a2-c961-447a-b702-59367a86680b{isolation:isolate;}.f1a2a97a-78cc-4a9a-9bd1-a40e1837de1b{fill:#261a4c;}.a225a9a6-1db3-46b0-a7d1-29a5823248bc{fill:#e00;}.acd09019-091f-43ee-8357-4ab8b698a024{fill:#8f0000;}.fe15caeb-16e6-4edb-945f-47d24189322b{fill:#f56d6d;}.aa4ac61a-99e3-43ce-9c47-9ed16b83424d{fill:#43adaf;}.e098bd88-e174-4ba7-96c1-ad1fa4dac22f{fill:#aedcdd;}.f25bffec-54ab-4c9f-beb0-eeb821d41733{fill:#e4f3f4;}.b985c53d-c6eb-4941-a68a-764c7576bb23{fill:#f3f3f3;}.b7d8a584-90d6-4cac-863a-ebef369ab9e1{fill:#dedede;}.bb54c8db-09a1-4150-ba8d-9fcd935de136{clip-path:url(#a35ad637-dde2-47d2-9ce8-1a860877aa54);}.e4b2a25e-0614-4bd7-98fb-139c17843513{fill:#79c4c6;}.b4c6e4bf-04bb-4536-bedd-10330ca88cd1{fill:#fff;}.bafd8602-35b9-4aeb-9617-9f076a9aa97d{clip-path:url(#a15fa377-7af9-4614-9be2-b18b314992e7);}.a57f8a37-6d84-4213-a542-af41c3a7ca69{clip-path:url(#bcc6fc7b-5ea4-4b71-a254-3c7a192160d7);}.a1abc077-62a6-4d27-ad92-ec6e7fa3de88{clip-path:url(#a20ee385-41da-469c-9d13-c87c9c4f15c6);}.a7483914-7186-49bc-a529-97c8de585e03{clip-path:url(#e46d2aea-867c-4079-b390-cff660ddf28a);}.ec7c6697-879c-4404-88a0-7ce12bce5547{clip-path:url(#fd58752d-4112-4c98-84ed-76e8b1a39e69);}.b0a84a72-c83d-4a31-a606-1cf5f07c4151{mix-blend-mode:multiply;}.bd7e2d53-60db-41bb-ab38-02b2c130294f{fill:red;}.ac4067d2-8837-482f-8190-0a2882f8986a{clip-path:url(#a3e1779a-2ad4-4639-8a20-b973532b5c01);}.a22a485a-adf5-4340-a8b4-d8ff90d8da0e{clip-path:url(#fa29568c-4f88-4ece-b27e-750825d588c8);}</style><clipPath id="a35ad637-dde2-47d2-9ce8-1a860877aa54"><path class="ef3d00d5-bde3-4428-9207-b0d56d0243bd" d="M507,200H847V380H507V200Z"/></clipPath><clipPath id="a15fa377-7af9-4614-9be2-b18b314992e7"><polygon class="ef3d00d5-bde3-4428-9207-b0d56d0243bd" points="563.39 252.91 537.06 270.4 537.06 308.75 563.39 308.75 563.39 252.91"/></clipPath><clipPath id="bcc6fc7b-5ea4-4b71-a254-3c7a192160d7"><circle class="ef3d00d5-bde3-4428-9207-b0d56d0243bd" cx="646.82" cy="339.95" r="25.98"/></clipPath><clipPath id="a20ee385-41da-469c-9d13-c87c9c4f15c6"><rect class="ef3d00d5-bde3-4428-9207-b0d56d0243bd" x="676.16" y="252.59" width="80.95" height="19.05"/></clipPath><clipPath id="e46d2aea-867c-4079-b390-cff660ddf28a"><path class="ef3d00d5-bde3-4428-9207-b0d56d0243bd" d="M767.78,294.27a10,10,0,0,0-12.59-9.59,15.44,15.44,0,0,0-29.28-1.5,10.55,10.55,0,0,0,.88,21.07l.69,0h31v0A10,10,0,0,0,767.78,294.27Z"/></clipPath><clipPath id="fd58752d-4112-4c98-84ed-76e8b1a39e69"><path class="ef3d00d5-bde3-4428-9207-b0d56d0243bd" d="M94.17,266.31c-2-7.16-.57-14.7,2.31-21.25,9.76-22.21,33.83-32.06,55.77-25.8,19.63,5.61,34.47,20.6,54.86,22.82,14.29,1.55,30.64-4.37,43.76,3.83a37.9,37.9,0,0,1,18,34.63c-.73,11-6.44,21-14.76,28.13s-18.47,12-26.82,19.4c-5.83,5.15-8.53,12.51-13.45,18.4a38.42,38.42,0,0,1-23.18,12.9,39,39,0,0,1-26.78-5.83c-7-4.49-12.73-11.47-21.06-13.53-6-1.49-12,.11-17.87,1.51a23.09,23.09,0,0,1-12.69-.95A29.48,29.48,0,0,1,94.46,323.3a21.63,21.63,0,0,1,.48-16.37c1.74-3.84,4-7.49,4.94-11.66,1.71-7.68-.21-15.51-3.26-22.6A49.74,49.74,0,0,1,94.17,266.31Z"/></clipPath><clipPath id="a3e1779a-2ad4-4639-8a20-b973532b5c01"><polygon class="ef3d00d5-bde3-4428-9207-b0d56d0243bd" points="139.29 263 139.29 286.76 118.72 298.63 98.15 286.76 98.15 263 118.72 251.13 139.29 263"/></clipPath><clipPath id="fa29568c-4f88-4ece-b27e-750825d588c8"><polygon class="ef3d00d5-bde3-4428-9207-b0d56d0243bd" points="250.89 234.49 250.89 258.25 230.32 270.13 209.75 258.25 209.75 234.49 230.32 222.62 250.89 234.49"/></clipPath></defs><g class="e8eac9a2-c961-447a-b702-59367a86680b"><g id="a829c42e-4f12-4bba-951b-b322963ce49e" data-name="Layer 1"><path id="a5efd578-0f23-4d4d-b66f-0c9e80849f24" data-name="Rectangle 4740" class="f1a2a97a-78cc-4a9a-9bd1-a40e1837de1b" d="M53,200H393V380H53V200Z"/><g id="aa976a3e-c398-42a5-9238-e2aaac670d65" data-name="A -"><g class="e8eac9a2-c961-447a-b702-59367a86680b"><path d="M721.8,42.45l2.62-6.35h1.12l2.6,6.35h-1l-.74-1.86h-2.85l-.73,1.86Zm2-2.65h2.22L725,37Z"/><path d="M730.46,40.27V39.5h3.27v.77Z"/><path d="M737.41,42.45V37l-1.14.49v-.8l1.48-.61h.57v6.35Z"/><path d="M741.93,42.54a2.34,2.34,0,0,1-1.34-.39,2.52,2.52,0,0,1-.9-1.08,3.73,3.73,0,0,1-.33-1.61,4.25,4.25,0,0,1,.36-1.82,2.89,2.89,0,0,1,1-1.21,2.72,2.72,0,0,1,1.54-.43,2.8,2.8,0,0,1,.86.13,2.21,2.21,0,0,1,.75.38l-.46.65a2.28,2.28,0,0,0-.59-.28,1.89,1.89,0,0,0-.63-.1,1.69,1.69,0,0,0-1.06.32,2,2,0,0,0-.67.9,3.79,3.79,0,0,0-.25,1.42,2.23,2.23,0,0,1,.81-.69,2.16,2.16,0,0,1,1-.25,2.44,2.44,0,0,1,1.1.25,2,2,0,0,1,.76.7,1.93,1.93,0,0,1,.27,1,2.08,2.08,0,0,1-.29,1.08,2.11,2.11,0,0,1-.79.75A2.34,2.34,0,0,1,741.93,42.54Zm0-3.36a2,2,0,0,0-.9.22,2.36,2.36,0,0,0-.73.61,2.75,2.75,0,0,0,.31.93,1.54,1.54,0,0,0,.56.62,1.39,1.39,0,0,0,.78.22,1.48,1.48,0,0,0,.7-.17,1.14,1.14,0,0,0,.49-.46,1.34,1.34,0,0,0,.18-.69,1.21,1.21,0,0,0-.18-.66,1.18,1.18,0,0,0-.49-.45A1.53,1.53,0,0,0,741.89,39.18Z"/><path d="M746.15,39.32a1.22,1.22,0,0,1-1-.46,2,2,0,0,1,0-2.35,1.24,1.24,0,0,1,1-.46,1.22,1.22,0,0,1,1,.46,2,2,0,0,1,0,2.35A1.22,1.22,0,0,1,746.15,39.32Zm0-.52a.71.71,0,0,0,.6-.3,1.33,1.33,0,0,0,.22-.82,1.37,1.37,0,0,0-.22-.82.71.71,0,0,0-.6-.3.69.69,0,0,0-.58.3,1.37,1.37,0,0,0-.23.82,1.4,1.4,0,0,0,.22.82A.7.7,0,0,0,746.15,38.8Zm-.32,3.65,3.57-6.35h.72l-3.59,6.35Zm4,0a1.25,1.25,0,0,1-1-.45,1.78,1.78,0,0,1-.38-1.18,1.8,1.8,0,0,1,.38-1.18,1.28,1.28,0,0,1,1-.45,1.26,1.26,0,0,1,1,.45,1.86,1.86,0,0,1,.39,1.18,1.84,1.84,0,0,1-.39,1.18A1.26,1.26,0,0,1,749.84,42.49Zm0-.51a.7.7,0,0,0,.59-.3,1.33,1.33,0,0,0,.22-.82,1.35,1.35,0,0,0-.22-.82.73.73,0,0,0-1.18,0,1.35,1.35,0,0,0-.22.82,1.33,1.33,0,0,0,.22.82A.68.68,0,0,0,749.84,42Z"/></g></g><g id="b2f37246-7f9a-46d3-b02e-518cb1050e88" data-name="B -"><g class="e8eac9a2-c961-447a-b702-59367a86680b"><path d="M722.44,62.29V55.93h2.74a2.75,2.75,0,0,1,1.09.21,1.69,1.69,0,0,1,.72.59,1.55,1.55,0,0,1,.26.88,1.37,1.37,0,0,1-.25.82,1.52,1.52,0,0,1-.65.55,1.9,1.9,0,0,1,.83.59,1.44,1.44,0,0,1,.31.9,1.71,1.71,0,0,1-.27,1,1.63,1.63,0,0,1-.76.63,2.79,2.79,0,0,1-1.16.23Zm.95-3.66h1.73a1.33,1.33,0,0,0,.86-.25A.89.89,0,0,0,726,57a1.34,1.34,0,0,0-.86-.26h-1.73Zm0,2.85h1.84a1.46,1.46,0,0,0,.94-.28,1,1,0,0,0,0-1.52,1.47,1.47,0,0,0-.94-.29h-1.84Z"/><path d="M730.19,60.11v-.77h3.27v.77Z"/><path d="M736.71,62.29l3-5.58H736v-.78h4.65v.68l-3,5.68Z"/><path d="M742.59,59.16a1.22,1.22,0,0,1-1-.46,1.73,1.73,0,0,1-.38-1.18,1.82,1.82,0,0,1,.38-1.18,1.26,1.26,0,0,1,1-.45,1.23,1.23,0,0,1,1,.45,1.77,1.77,0,0,1,.39,1.18,1.73,1.73,0,0,1-.39,1.18A1.21,1.21,0,0,1,742.59,59.16Zm0-.52a.71.71,0,0,0,.6-.3,1.33,1.33,0,0,0,.22-.82,1.35,1.35,0,0,0-.22-.82.71.71,0,0,0-.6-.3.69.69,0,0,0-.58.3,1.35,1.35,0,0,0-.22.82,1.4,1.4,0,0,0,.21.82A.71.71,0,0,0,742.59,58.64Zm-.32,3.65,3.57-6.36h.72L743,62.29Zm4,0a1.26,1.26,0,0,1-1-.45,1.8,1.8,0,0,1-.38-1.18,1.75,1.75,0,0,1,.39-1.18,1.24,1.24,0,0,1,1-.45,1.26,1.26,0,0,1,1,.45,2,2,0,0,1,0,2.36A1.26,1.26,0,0,1,746.28,62.33Zm0-.51a.68.68,0,0,0,.59-.3,1.35,1.35,0,0,0,.23-.82,1.33,1.33,0,0,0-.23-.82.69.69,0,0,0-.59-.31.72.72,0,0,0-.59.31,1.4,1.4,0,0,0-.22.82,1.35,1.35,0,0,0,.22.82A.7.7,0,0,0,746.28,61.82Z"/></g></g><g id="f4573b50-f2aa-4724-80f8-9852178e3a4c" data-name="C -"><g class="e8eac9a2-c961-447a-b702-59367a86680b"><path d="M725.49,81.51a3.51,3.51,0,0,1-1.31-.25,3.32,3.32,0,0,1-1.06-.7,3.15,3.15,0,0,1-.71-1,3.43,3.43,0,0,1,0-2.57,3,3,0,0,1,.71-1,3.32,3.32,0,0,1,1.06-.7,3.55,3.55,0,0,1,1.31-.25,3.5,3.5,0,0,1,1,.14,3.34,3.34,0,0,1,.89.37,3.7,3.7,0,0,1,.71.6l-.65.65a2.21,2.21,0,0,0-.86-.65,2.59,2.59,0,0,0-1.06-.23,2.26,2.26,0,0,0-.94.19,2.36,2.36,0,0,0-.74.5,2.33,2.33,0,0,0-.5.77,2.54,2.54,0,0,0,0,1.88,2.23,2.23,0,0,0,1.26,1.27,2.26,2.26,0,0,0,.94.19,2.51,2.51,0,0,0,1-.23,2.38,2.38,0,0,0,.84-.63l.63.64a3.1,3.1,0,0,1-.71.58,3.07,3.07,0,0,1-.87.38A3.43,3.43,0,0,1,725.49,81.51Z"/><path d="M730.63,79.23v-.77h3.27v.77Z"/><path d="M736.67,81.41v-.64L739.25,78a5.85,5.85,0,0,0,.4-.49,1.5,1.5,0,0,0,.21-.42,1.39,1.39,0,0,0,.06-.4.89.89,0,0,0-.35-.72,1.37,1.37,0,0,0-.87-.27,1.84,1.84,0,0,0-.81.17,3.36,3.36,0,0,0-.85.6l-.49-.6a3.75,3.75,0,0,1,1.05-.71,2.72,2.72,0,0,1,1.12-.24,2.55,2.55,0,0,1,1.07.22,1.73,1.73,0,0,1,.72.61,1.48,1.48,0,0,1,.26.89,2.14,2.14,0,0,1-.08.58,1.84,1.84,0,0,1-.29.55,6.32,6.32,0,0,1-.55.68l-2.07,2.18h3.12v.76Z"/><path d="M743.8,81.51a3.11,3.11,0,0,1-2.21-.87l.53-.59a3.4,3.4,0,0,0,.82.54,2.3,2.3,0,0,0,.88.16,1.6,1.6,0,0,0,.75-.16,1.22,1.22,0,0,0,.5-.48,1.31,1.31,0,0,0,.18-.69,1.22,1.22,0,0,0-.4-.93,1.57,1.57,0,0,0-1.05-.35,2.89,2.89,0,0,0-.65.08,3.46,3.46,0,0,0-.66.26l-.61-.19.15-3.24h3.77v.76h-3l-.09,2a2.75,2.75,0,0,1,.67-.25,3.1,3.1,0,0,1,.69-.08,2.41,2.41,0,0,1,1.1.24,1.78,1.78,0,0,1,.74.67,2,2,0,0,1,.25,1,2.06,2.06,0,0,1-.29,1.12,2.1,2.1,0,0,1-.82.74A2.53,2.53,0,0,1,743.8,81.51Z"/><path d="M748.15,78.28a1.27,1.27,0,0,1-1-.46,1.78,1.78,0,0,1-.38-1.18,1.75,1.75,0,0,1,.39-1.18,1.24,1.24,0,0,1,1-.45,1.26,1.26,0,0,1,1,.45,1.86,1.86,0,0,1,.39,1.18,1.84,1.84,0,0,1-.39,1.18A1.27,1.27,0,0,1,748.15,78.28Zm0-.52a.7.7,0,0,0,.59-.3,1.33,1.33,0,0,0,.23-.82,1.35,1.35,0,0,0-.23-.82.7.7,0,0,0-.59-.3.71.71,0,0,0-.59.3,1.42,1.42,0,0,0-.22.82,1.33,1.33,0,0,0,.22.82A.68.68,0,0,0,748.15,77.76Zm-.33,3.65,3.58-6.36h.71l-3.58,6.36Zm4,0a1.24,1.24,0,0,1-1-.45,1.75,1.75,0,0,1-.39-1.18,1.73,1.73,0,0,1,.39-1.18,1.27,1.27,0,0,1,1-.46,1.25,1.25,0,0,1,1,.46,1.73,1.73,0,0,1,.39,1.18,1.75,1.75,0,0,1-.39,1.18A1.24,1.24,0,0,1,751.83,81.45Zm0-.52a.7.7,0,0,0,.6-.29,1.35,1.35,0,0,0,.22-.82,1.33,1.33,0,0,0-.22-.82.7.7,0,0,0-.6-.31.68.68,0,0,0-.58.31,1.33,1.33,0,0,0-.22.82,1.42,1.42,0,0,0,.21.82A.7.7,0,0,0,751.83,80.93Z"/></g></g><rect id="ed1776dc-a76c-4fde-bae6-4b27a9c84893" data-name="Rectangle 377-2" class="a225a9a6-1db3-46b0-a7d1-29a5823248bc" x="702.39" y="54.26" width="10.18" height="10.18"/><rect id="a50949ff-0c26-45b6-9789-5bf0022a4063" data-name="Rectangle 380-2" class="acd09019-091f-43ee-8357-4ab8b698a024" x="702.39" y="73.2" width="10.18" height="10.18"/><rect id="b85d21ea-190f-4240-8be9-4e3fb60046d4" data-name="Rectangle 382-2" class="fe15caeb-16e6-4edb-945f-47d24189322b" x="702.2" y="35.12" width="10" height="10"/><g id="b9127916-0160-4064-b827-261b3c4ab236" data-name="D -"><g class="e8eac9a2-c961-447a-b702-59367a86680b"><path d="M783.55,42.45V36.1h2.23a3.75,3.75,0,0,1,1.33.23A3.18,3.18,0,0,1,788.88,38a3.33,3.33,0,0,1,0,2.53,3.24,3.24,0,0,1-.71,1,3.17,3.17,0,0,1-1,.66,3.63,3.63,0,0,1-1.34.24Zm1-.85h1.3a2.41,2.41,0,0,0,.93-.18,2,2,0,0,0,.74-.49,2,2,0,0,0,.5-.74,2.27,2.27,0,0,0,.18-.91,2.32,2.32,0,0,0-.18-.92,2.25,2.25,0,0,0-.5-.74,2.33,2.33,0,0,0-.74-.49,2.42,2.42,0,0,0-.94-.18H784.5Z"/><path d="M791.81,40.27V39.5h3.26v.77Z"/><path d="M798.33,42.45l3-5.58h-3.7V36.1h4.65v.67l-2.95,5.68Z"/><path d="M804.21,39.32a1.21,1.21,0,0,1-1-.46,2,2,0,0,1,0-2.35,1.24,1.24,0,0,1,1-.46,1.22,1.22,0,0,1,1,.46,2,2,0,0,1,0,2.35A1.22,1.22,0,0,1,804.21,39.32Zm0-.52a.71.71,0,0,0,.6-.3,1.33,1.33,0,0,0,.22-.82,1.37,1.37,0,0,0-.22-.82.71.71,0,0,0-.6-.3.69.69,0,0,0-.58.3,1.37,1.37,0,0,0-.23.82,1.4,1.4,0,0,0,.22.82A.7.7,0,0,0,804.21,38.8Zm-.32,3.65,3.57-6.35h.72l-3.59,6.35Zm4,0a1.25,1.25,0,0,1-1-.45,1.73,1.73,0,0,1-.38-1.18,1.8,1.8,0,0,1,.38-1.18,1.28,1.28,0,0,1,1-.45,1.23,1.23,0,0,1,1,.45,1.81,1.81,0,0,1,.4,1.18,1.79,1.79,0,0,1-.4,1.18A1.23,1.23,0,0,1,807.9,42.49Zm0-.51a.71.71,0,0,0,.59-.3,1.33,1.33,0,0,0,.22-.82,1.35,1.35,0,0,0-.22-.82.71.71,0,0,0-.59-.3.7.7,0,0,0-.59.3,1.35,1.35,0,0,0-.22.82,1.33,1.33,0,0,0,.22.82A.68.68,0,0,0,807.9,42Z"/></g></g><g id="b6087690-f127-4d37-bffe-cce21ae6d2fd" data-name="E -"><g class="e8eac9a2-c961-447a-b702-59367a86680b"><path d="M783.55,62.29V55.93h4.68v.84H784.5v1.91h2.43v.8H784.5v2h3.77v.84Z"/><path d="M790.91,60.11v-.77h3.27v.77Z"/><path d="M799.27,62.39a2.87,2.87,0,0,1-1.21-.24,2,2,0,0,1-.82-.65,1.58,1.58,0,0,1-.3-1,1.39,1.39,0,0,1,.18-.69,1.67,1.67,0,0,1,.5-.56,2.21,2.21,0,0,1,.73-.33,1.8,1.8,0,0,1-.85-.55,1.32,1.32,0,0,1-.33-.88,1.47,1.47,0,0,1,.27-.87,1.89,1.89,0,0,1,.75-.61,2.51,2.51,0,0,1,1.08-.22,2.44,2.44,0,0,1,1.07.22,1.82,1.82,0,0,1,.75.61,1.49,1.49,0,0,1,.27.87,1.36,1.36,0,0,1-.32.88,1.88,1.88,0,0,1-.86.55,2,2,0,0,1,1,.59,1.41,1.41,0,0,1,.39,1,1.53,1.53,0,0,1-.3.94,2,2,0,0,1-.82.66A2.86,2.86,0,0,1,799.27,62.39Zm0-.72a1.78,1.78,0,0,0,.74-.15,1.28,1.28,0,0,0,.52-.42,1,1,0,0,0,.19-.61,1,1,0,0,0-.19-.59,1.28,1.28,0,0,0-.52-.42,1.93,1.93,0,0,0-1.49,0,1.18,1.18,0,0,0-.51.42,1,1,0,0,0,0,1.2,1.18,1.18,0,0,0,.51.42A1.79,1.79,0,0,0,799.27,61.67Zm0-3a1.37,1.37,0,0,0,.64-.14,1,1,0,0,0,.44-.37.87.87,0,0,0,.16-.52.93.93,0,0,0-.16-.54,1,1,0,0,0-.44-.38,1.5,1.5,0,0,0-.64-.14,1.47,1.47,0,0,0-.64.14,1.07,1.07,0,0,0-.44.37.94.94,0,0,0-.17.54.88.88,0,0,0,.17.53,1.07,1.07,0,0,0,.44.37A1.34,1.34,0,0,0,799.27,58.63Z"/><path d="M803.75,59.16a1.24,1.24,0,0,1-1-.46,2,2,0,0,1,0-2.36,1.24,1.24,0,0,1,1-.45,1.26,1.26,0,0,1,1,.45,1.88,1.88,0,0,1,.39,1.18,1.84,1.84,0,0,1-.39,1.18A1.24,1.24,0,0,1,803.75,59.16Zm0-.52a.68.68,0,0,0,.59-.3,1.33,1.33,0,0,0,.23-.82,1.35,1.35,0,0,0-.23-.82.68.68,0,0,0-.59-.3.71.71,0,0,0-.59.3,1.42,1.42,0,0,0-.22.82,1.33,1.33,0,0,0,.22.82A.68.68,0,0,0,803.75,58.64Zm-.33,3.65L807,55.93h.71l-3.58,6.36Zm4,0a1.24,1.24,0,0,1-1-.45,2,2,0,0,1,0-2.36,1.26,1.26,0,0,1,1-.45,1.23,1.23,0,0,1,1,.45,2,2,0,0,1,0,2.36A1.23,1.23,0,0,1,807.43,62.33Zm0-.51a.71.71,0,0,0,.6-.3,1.35,1.35,0,0,0,.22-.82,1.33,1.33,0,0,0-.22-.82.72.72,0,0,0-.6-.31.7.7,0,0,0-.58.31,1.33,1.33,0,0,0-.22.82,1.42,1.42,0,0,0,.21.82A.71.71,0,0,0,807.43,61.82Z"/></g></g><g id="a8204509-db4e-4241-85ec-b2f7a56b7a09" data-name="F -"><g class="e8eac9a2-c961-447a-b702-59367a86680b"><path d="M783.55,81.41V75.05h4.68v.84H784.5v2H787v.81H784.5v2.76Z"/><path d="M790.84,79.23v-.77h3.26v.77Z"/><path d="M799.05,81.51a3.43,3.43,0,0,1-1.28-.24,3.14,3.14,0,0,1-1-.7l.58-.55a2.89,2.89,0,0,0,.79.56,2.38,2.38,0,0,0,.93.16,1.84,1.84,0,0,0,.76-.14,1.22,1.22,0,0,0,.51-.4,1,1,0,0,0,.18-.59,1,1,0,0,0-.15-.54,1.13,1.13,0,0,0-.43-.38,1.38,1.38,0,0,0-.62-.13h-.79v-.74h.71a1,1,0,0,0,.77-.28,1,1,0,0,0,.29-.73.94.94,0,0,0-.16-.55,1.22,1.22,0,0,0-.46-.38,1.36,1.36,0,0,0-.65-.15,1.92,1.92,0,0,0-.84.18,2.28,2.28,0,0,0-.75.59l-.59-.57a3,3,0,0,1,1-.73A3.16,3.16,0,0,1,799,75a2.57,2.57,0,0,1,1.1.23,1.92,1.92,0,0,1,.75.63,1.62,1.62,0,0,1,.27.91,1.35,1.35,0,0,1-.33.9,1.67,1.67,0,0,1-.86.55,1.87,1.87,0,0,1,1,.54,1.32,1.32,0,0,1,.38,1,1.62,1.62,0,0,1-.29,1,2,2,0,0,1-.82.66A2.86,2.86,0,0,1,799.05,81.51Z"/><path d="M802.53,81.41l3-5.58h-3.7v-.78h4.65v.68l-3,5.68Z"/><path d="M808.41,78.28a1.25,1.25,0,0,1-1-.46,1.73,1.73,0,0,1-.38-1.18,1.74,1.74,0,0,1,.38-1.18,1.26,1.26,0,0,1,1-.45,1.23,1.23,0,0,1,1,.45,1.75,1.75,0,0,1,.39,1.18,1.73,1.73,0,0,1-.39,1.18A1.24,1.24,0,0,1,808.41,78.28Zm0-.52a.71.71,0,0,0,.6-.3,1.33,1.33,0,0,0,.22-.82,1.35,1.35,0,0,0-.22-.82.71.71,0,0,0-.6-.3.69.69,0,0,0-.58.3,1.35,1.35,0,0,0-.22.82,1.4,1.4,0,0,0,.21.82A.71.71,0,0,0,808.41,77.76Zm-.32,3.65,3.57-6.36h.72l-3.59,6.36Zm4,0a1.26,1.26,0,0,1-1-.45,1.8,1.8,0,0,1-.38-1.18,1.73,1.73,0,0,1,.39-1.18,1.25,1.25,0,0,1,1-.46,1.27,1.27,0,0,1,1,.46,1.84,1.84,0,0,1,.39,1.18A1.86,1.86,0,0,1,813.1,81,1.26,1.26,0,0,1,812.1,81.45Zm0-.52a.69.69,0,0,0,.59-.29,1.35,1.35,0,0,0,.23-.82,1.33,1.33,0,0,0-.23-.82.68.68,0,0,0-.59-.31.69.69,0,0,0-.59.31,1.4,1.4,0,0,0-.22.82,1.35,1.35,0,0,0,.22.82A.67.67,0,0,0,812.1,80.93Z"/></g></g><rect id="b833ddd5-bd25-47a4-88e8-362bc0eb468e" data-name="Rectangle 377-2-2" class="aa4ac61a-99e3-43ce-9c47-9ed16b83424d" x="763.5" y="54.26" width="10.18" height="10.18"/><rect id="f8e1e9df-f7f1-4713-9796-a39bea0fbb3c" data-name="Rectangle 380-2-2" class="e098bd88-e174-4ba7-96c1-ad1fa4dac22f" x="763.5" y="73.2" width="10.18" height="10.18"/><rect id="bd71b7bd-495e-400d-8634-edf4a1f10c82" data-name="Rectangle 382-2-2" class="f1a2a97a-78cc-4a9a-9bd1-a40e1837de1b" x="763.5" y="35.32" width="10.18" height="10.18"/><rect id="b72c48dd-051e-4e68-a7b9-e75bff302b9e" data-name="Rectangle 377-2-3" class="e098bd88-e174-4ba7-96c1-ad1fa4dac22f" y="66" width="33" height="33"/><rect id="bdc65216-e346-4b82-a5dc-ec601c888dbd" data-name="Rectangle 380-2-3" class="f1a2a97a-78cc-4a9a-9bd1-a40e1837de1b" y="33" width="33" height="33"/><rect id="e21787ca-0e59-41e6-809a-cce8fde91233" data-name="Rectangle 382-2-3" class="a225a9a6-1db3-46b0-a7d1-29a5823248bc" width="33" height="33"/><rect id="e1d35d38-50fd-4d45-a57f-6ee6f56a89ca" data-name="Rectangle 377-2-4" class="a225a9a6-1db3-46b0-a7d1-29a5823248bc" x="454" y="33" width="33" height="33"/><rect id="afcfa467-6d9d-4fff-8bfe-48a00e4eb778" data-name="Rectangle 380-2-4" class="fe15caeb-16e6-4edb-945f-47d24189322b" x="454" width="33" height="33"/><rect id="b6cd8f56-d402-4aef-99ab-e4a4ee29bf00" data-name="Rectangle 377-2-5" class="f1a2a97a-78cc-4a9a-9bd1-a40e1837de1b" x="454" y="132" width="33" height="33"/><rect id="e1592364-4061-4755-810e-13c18b035ed1" data-name="Rectangle 380-2-5" x="454" y="99" width="33" height="33"/><rect id="b086ad25-e42c-40d8-a1c2-8a236c92885a" data-name="Rectangle 382-2-4" class="acd09019-091f-43ee-8357-4ab8b698a024" x="454" y="66" width="33" height="33"/><rect id="ae3b979b-a7ae-49c9-a24f-93f115e77c87" data-name="Rectangle 377-2-6" class="f25bffec-54ab-4c9f-beb0-eeb821d41733" x="454" y="231" width="33" height="33"/><rect id="b6cdbb65-a53d-458a-805e-66367ff32f5e" data-name="Rectangle 380-2-6" class="e098bd88-e174-4ba7-96c1-ad1fa4dac22f" x="454" y="198" width="33" height="33"/><rect id="e677dd39-4053-4db3-ad64-dc9546da33d7" data-name="Rectangle 382-2-5" class="aa4ac61a-99e3-43ce-9c47-9ed16b83424d" x="454" y="165" width="33" height="33"/><path class="e098bd88-e174-4ba7-96c1-ad1fa4dac22f" d="M149.43,90,97.82,120.6A60,60,0,0,0,150.13,150a60,60,0,0,0,51.6-30.61Z"/><path class="e098bd88-e174-4ba7-96c1-ad1fa4dac22f" d="M149.43,90l52.3,29.39a57.31,57.31,0,0,0,7.69-30.09Z"/><path class="f1a2a97a-78cc-4a9a-9bd1-a40e1837de1b" d="M201,59.39A60,60,0,0,0,148.73,30l.7,60,60-.7A57.39,57.39,0,0,0,201,59.39Z"/><path class="a225a9a6-1db3-46b0-a7d1-29a5823248bc" d="M149.43,90,118.82,38.39A57.36,57.36,0,0,1,148.73,30Z"/><path class="a225a9a6-1db3-46b0-a7d1-29a5823248bc" d="M97.12,60.61A57.31,57.31,0,0,0,89.43,90.7a57.33,57.33,0,0,0,8.39,29.9L149.43,90,118.82,38.39A57.41,57.41,0,0,0,97.12,60.61Z"/><circle class="b985c53d-c6eb-4941-a68a-764c7576bb23" cx="149.43" cy="90" r="30.05"/><path d="M270.35,43.52a3.72,3.72,0,0,1-1.47-.3,3.77,3.77,0,0,1-1.25-.84l.58-.68a3.8,3.8,0,0,0,1.06.76,2.73,2.73,0,0,0,1.13.24,2.17,2.17,0,0,0,.8-.13,1.28,1.28,0,0,0,.54-.38.85.85,0,0,0,.2-.55.8.8,0,0,0-.3-.66,2.39,2.39,0,0,0-1-.34l-1-.18a2.45,2.45,0,0,1-1.31-.55,1.43,1.43,0,0,1-.44-1.09,1.67,1.67,0,0,1,.29-1,1.88,1.88,0,0,1,.83-.65A3.11,3.11,0,0,1,270.2,37a4.15,4.15,0,0,1,1.35.22,4.06,4.06,0,0,1,1.2.64l-.52.73a3.44,3.44,0,0,0-2.08-.78,2,2,0,0,0-.73.12,1.08,1.08,0,0,0-.48.33.8.8,0,0,0-.17.51.72.72,0,0,0,.26.58,2,2,0,0,0,.87.3l1,.17a2.87,2.87,0,0,1,1.48.59,1.5,1.5,0,0,1,.47,1.17,1.69,1.69,0,0,1-.31,1,2,2,0,0,1-.89.69A3.47,3.47,0,0,1,270.35,43.52Z"/><path d="M273.65,45.28V38.81h.9v.44a2.1,2.1,0,0,1,1.42-.51,2.26,2.26,0,0,1,1.18.31,2.47,2.47,0,0,1,.84.86,2.33,2.33,0,0,1,.31,1.2,2.34,2.34,0,0,1-1.15,2.07,2.26,2.26,0,0,1-1.21.32,2.24,2.24,0,0,1-.73-.12,2.38,2.38,0,0,1-.65-.34v2.24Zm2.2-2.57a1.6,1.6,0,0,0,.79-.2,1.53,1.53,0,0,0,.56-.57,1.69,1.69,0,0,0,0-1.63,1.49,1.49,0,0,0-.56-.58,1.51,1.51,0,0,0-.79-.21,1.8,1.8,0,0,0-.73.15,1.54,1.54,0,0,0-.56.41v2.09a1.69,1.69,0,0,0,.57.39A1.72,1.72,0,0,0,275.85,42.71Z"/><path d="M281.38,43.51a2.39,2.39,0,0,1-1.23-.31,2.42,2.42,0,0,1-.88-.86,2.36,2.36,0,0,1-.33-1.23,2.32,2.32,0,0,1,.32-1.2,2.39,2.39,0,0,1,.84-.86,2.24,2.24,0,0,1,1.18-.32,2.13,2.13,0,0,1,1.14.32,2.29,2.29,0,0,1,.79.87,2.56,2.56,0,0,1,.3,1.24v.25h-3.65a1.64,1.64,0,0,0,.28.68,1.53,1.53,0,0,0,.54.47,1.52,1.52,0,0,0,.73.18,2.08,2.08,0,0,0,.66-.11,1.58,1.58,0,0,0,.51-.29l.57.56a2.73,2.73,0,0,1-.83.46A2.81,2.81,0,0,1,281.38,43.51Zm-1.51-2.79h2.74a1.59,1.59,0,0,0-.26-.63,1.47,1.47,0,0,0-.47-.43,1.23,1.23,0,0,0-.63-.16,1.29,1.29,0,0,0-.64.16,1.41,1.41,0,0,0-.48.43A1.48,1.48,0,0,0,279.87,40.72Z"/><path d="M284.36,43.43V38.81h.91v.47a1.85,1.85,0,0,1,1.39-.56,1.82,1.82,0,0,1,.94.23,1.59,1.59,0,0,1,.63.63,1.92,1.92,0,0,1,.23.94v2.91h-.91V40.68a1.2,1.2,0,0,0-.3-.86,1.14,1.14,0,0,0-.85-.31,1.31,1.31,0,0,0-1.13.61v3.31Z"/><path d="M291.63,43.5a2.2,2.2,0,0,1-1.18-.32,2.24,2.24,0,0,1-.85-.85,2.38,2.38,0,0,1-.31-1.22,2.34,2.34,0,0,1,.31-1.21,2.31,2.31,0,0,1,.85-.85,2.33,2.33,0,0,1,1.2-.31,2.23,2.23,0,0,1,.73.11,2.3,2.3,0,0,1,.66.34V37.08l.9-.18v6.53H293V43A2,2,0,0,1,291.63,43.5Zm.12-.79a1.94,1.94,0,0,0,.73-.14,1.76,1.76,0,0,0,.56-.41V40.07a1.57,1.57,0,0,0-.56-.41,2,2,0,0,0-.73-.14,1.67,1.67,0,0,0-.8.2,1.53,1.53,0,0,0-.56.57,1.76,1.76,0,0,0,0,1.63,1.51,1.51,0,0,0,1.36.79Z"/><path d="M295.47,38.06a.54.54,0,0,1-.39-.17.54.54,0,0,1-.17-.4.54.54,0,0,1,.17-.39.53.53,0,0,1,.39-.16.54.54,0,0,1,.4.16.55.55,0,0,1,.16.4.53.53,0,0,1-.16.39A.54.54,0,0,1,295.47,38.06ZM295,43.43V38.81h.91v4.62Z"/><path d="M297,43.43V38.81h.91v.47a1.85,1.85,0,0,1,1.39-.56,1.8,1.8,0,0,1,.94.23,1.59,1.59,0,0,1,.63.63,1.82,1.82,0,0,1,.23.94v2.91h-.9V40.68a1.21,1.21,0,0,0-.31-.86,1.14,1.14,0,0,0-.85-.31,1.34,1.34,0,0,0-1.13.61v3.31Z"/><path d="M304.42,45.37a4,4,0,0,1-1-.12,3.82,3.82,0,0,1-.88-.33l.36-.71a3.79,3.79,0,0,0,.76.29,2.48,2.48,0,0,0,.71.1,1.39,1.39,0,0,0,.93-.27,1,1,0,0,0,.31-.82V43a2.15,2.15,0,0,1-1.39.48,2.23,2.23,0,0,1-1.17-.31,2.39,2.39,0,0,1-.84-.86,2.32,2.32,0,0,1-.31-1.19,2.35,2.35,0,0,1,.32-1.21,2.31,2.31,0,0,1,.85-.85,2.26,2.26,0,0,1,1.18-.31,2.24,2.24,0,0,1,.73.12,2,2,0,0,1,.65.35v-.39h.89V43.5a1.76,1.76,0,0,1-.54,1.39A2.33,2.33,0,0,1,304.42,45.37Zm-.06-2.69a1.71,1.71,0,0,0,.72-.14,1.51,1.51,0,0,0,.55-.4V40.05a1.57,1.57,0,0,0-.54-.39,2,2,0,0,0-.73-.14,1.56,1.56,0,0,0-.78.2,1.58,1.58,0,0,0-.56.56,1.69,1.69,0,0,0-.2.82,1.67,1.67,0,0,0,.2.8,1.53,1.53,0,0,0,1.34.78Z"/><path d="M309.39,41.25v-.77h3.27v.77Z"/><path d="M317.6,43.53a3.34,3.34,0,0,1-1.27-.24,2.82,2.82,0,0,1-1-.7l.58-.55a2.53,2.53,0,0,0,.78.56,2.38,2.38,0,0,0,.93.17,1.81,1.81,0,0,0,.76-.15,1.22,1.22,0,0,0,.51-.4,1.05,1.05,0,0,0,0-1.13,1,1,0,0,0-.43-.37,1.26,1.26,0,0,0-.62-.14h-.78v-.74h.7a1.08,1.08,0,0,0,.78-.28,1,1,0,0,0,.29-.73.94.94,0,0,0-.17-.55,1.15,1.15,0,0,0-.46-.38,1.35,1.35,0,0,0-.65-.14,1.91,1.91,0,0,0-.84.17,2.28,2.28,0,0,0-.75.59l-.59-.57a2.76,2.76,0,0,1,1-.72,2.9,2.9,0,0,1,1.2-.25,2.57,2.57,0,0,1,1.1.22,1.92,1.92,0,0,1,.75.63,1.64,1.64,0,0,1,.28.92,1.31,1.31,0,0,1-.34.89,1.67,1.67,0,0,1-.86.55,1.87,1.87,0,0,1,1,.54,1.34,1.34,0,0,1,.38,1,1.55,1.55,0,0,1-.29,1,2,2,0,0,1-.82.66A2.82,2.82,0,0,1,317.6,43.53Z"/><path d="M323.35,43.52a2.37,2.37,0,0,1-1.34-.39,2.49,2.49,0,0,1-.9-1.09,3.67,3.67,0,0,1-.32-1.61,4.24,4.24,0,0,1,.35-1.81,2.83,2.83,0,0,1,1-1.21A2.72,2.72,0,0,1,323.7,37a2.8,2.8,0,0,1,.86.13,2.39,2.39,0,0,1,.75.37l-.46.66a2.38,2.38,0,0,0-.58-.28,2,2,0,0,0-.64-.1,1.75,1.75,0,0,0-1.06.31,2.11,2.11,0,0,0-.67.91,3.79,3.79,0,0,0-.25,1.42,2.23,2.23,0,0,1,.81-.69,2.07,2.07,0,0,1,1-.25,2.41,2.41,0,0,1,1.1.25,2,2,0,0,1,.76.7,1.93,1.93,0,0,1,.27,1,2.08,2.08,0,0,1-.29,1.08,2.11,2.11,0,0,1-.79.75A2.34,2.34,0,0,1,323.35,43.52Zm0-3.36a1.9,1.9,0,0,0-.9.22,2.23,2.23,0,0,0-.73.61,2.83,2.83,0,0,0,.31.93,1.78,1.78,0,0,0,.56.62,1.5,1.5,0,0,0,.78.22,1.48,1.48,0,0,0,.7-.17,1.21,1.21,0,0,0,.49-.46,1.34,1.34,0,0,0,.18-.69,1.24,1.24,0,0,0-.18-.67,1.16,1.16,0,0,0-.49-.44A1.53,1.53,0,0,0,323.31,40.16Z"/><path d="M327.57,40.3a1.22,1.22,0,0,1-1-.46,1.73,1.73,0,0,1-.39-1.18,1.77,1.77,0,0,1,.39-1.18,1.26,1.26,0,0,1,1-.45,1.24,1.24,0,0,1,1,.45,1.77,1.77,0,0,1,.39,1.18,1.73,1.73,0,0,1-.39,1.18A1.22,1.22,0,0,1,327.57,40.3Zm0-.52a.71.71,0,0,0,.6-.3,1.33,1.33,0,0,0,.22-.82,1.37,1.37,0,0,0-.22-.82.71.71,0,0,0-.6-.3.69.69,0,0,0-.58.3,1.37,1.37,0,0,0-.22.82,1.4,1.4,0,0,0,.21.82A.71.71,0,0,0,327.57,39.78Zm-.32,3.65,3.57-6.35h.72L328,43.43Zm4,0a1.25,1.25,0,0,1-1-.45,2,2,0,0,1,0-2.36,1.28,1.28,0,0,1,1-.45,1.26,1.26,0,0,1,1,.45,2,2,0,0,1,0,2.36A1.26,1.26,0,0,1,331.26,43.47Zm0-.51a.7.7,0,0,0,.59-.3,1.33,1.33,0,0,0,.22-.82,1.35,1.35,0,0,0-.22-.82.7.7,0,0,0-.59-.3.71.71,0,0,0-.59.3,1.35,1.35,0,0,0-.22.82,1.33,1.33,0,0,0,.22.82A.68.68,0,0,0,331.26,43Z"/><path d="M268.21,62.32V56h2.87a2.45,2.45,0,0,1,1.11.24,1.89,1.89,0,0,1,.74.66,1.79,1.79,0,0,1,.27,1,1.71,1.71,0,0,1-.36,1.08,2,2,0,0,1-.94.65l1.41,2.74h-1.06l-1.31-2.61h-1.78v2.61Zm1-3.41H271a1.33,1.33,0,0,0,.9-.28,1,1,0,0,0,.34-.78.93.93,0,0,0-.34-.76,1.28,1.28,0,0,0-.9-.29h-1.84Z"/><path d="M276,62.4a2.55,2.55,0,0,1-1.23-.31,2.42,2.42,0,0,1-.87-.87,2.45,2.45,0,0,1,0-2.42,2.39,2.39,0,0,1,.84-.86,2.18,2.18,0,0,1,1.18-.32,2,2,0,0,1,1.14.32,2.24,2.24,0,0,1,.8.87,2.55,2.55,0,0,1,.29,1.24v.24H274.5a1.61,1.61,0,0,0,.27.69,1.66,1.66,0,0,0,.55.47,1.49,1.49,0,0,0,.73.18,2,2,0,0,0,.65-.11,1.53,1.53,0,0,0,.52-.29l.57.56a2.75,2.75,0,0,1-1.78.61Zm-1.5-2.79h2.74A1.75,1.75,0,0,0,277,59a1.41,1.41,0,0,0-.48-.43,1.19,1.19,0,0,0-.62-.16,1.27,1.27,0,0,0-.64.16,1.44,1.44,0,0,0-.49.43A1.47,1.47,0,0,0,274.51,59.61Z"/><path d="M280.35,62.32l-2-4.62h1l1.44,3.46,1.45-3.46h1l-2,4.62Z"/><path d="M285.84,62.4a2.55,2.55,0,0,1-1.23-.31,2.34,2.34,0,0,1-.87-.87,2.45,2.45,0,0,1,0-2.42,2.39,2.39,0,0,1,.84-.86,2.16,2.16,0,0,1,1.18-.32,2,2,0,0,1,1.14.32,2.32,2.32,0,0,1,.8.87,2.55,2.55,0,0,1,.29,1.24v.24h-3.64a1.61,1.61,0,0,0,.27.69,1.57,1.57,0,0,0,.55.47,1.49,1.49,0,0,0,.73.18,2,2,0,0,0,.65-.11,1.53,1.53,0,0,0,.52-.29l.57.56a2.75,2.75,0,0,1-1.78.61Zm-1.51-2.79h2.74a1.57,1.57,0,0,0-.25-.63,1.41,1.41,0,0,0-.48-.43,1.32,1.32,0,0,0-1.26,0,1.35,1.35,0,0,0-.49.43A1.62,1.62,0,0,0,284.33,59.61Z"/><path d="M288.83,62.32V57.7h.9v.47a1.82,1.82,0,0,1,1.39-.56,1.89,1.89,0,0,1,.94.22,1.78,1.78,0,0,1,.64.64,1.92,1.92,0,0,1,.23.94v2.91H292V59.57a1.15,1.15,0,0,0-.31-.86,1.12,1.12,0,0,0-.84-.31,1.28,1.28,0,0,0-.65.16,1.46,1.46,0,0,0-.49.44v3.32Z"/><path d="M295.71,62.41a1.92,1.92,0,0,1-.94-.23,1.58,1.58,0,0,1-.64-.64,1.82,1.82,0,0,1-.23-.94V57.7h.91v2.75a1.16,1.16,0,0,0,.31.85,1.14,1.14,0,0,0,.84.32,1.28,1.28,0,0,0,1.13-.61V57.7H298v4.62h-.91v-.47A1.82,1.82,0,0,1,295.71,62.41Z"/><path d="M301.29,62.4a2.56,2.56,0,0,1-1.24-.31,2.42,2.42,0,0,1-.87-.87,2.42,2.42,0,0,1,0-2.42,2.36,2.36,0,0,1,.83-.86,2.2,2.2,0,0,1,1.18-.32,2,2,0,0,1,1.14.32,2.17,2.17,0,0,1,.8.87,2.56,2.56,0,0,1,.3,1.24v.24h-3.65a1.51,1.51,0,0,0,.28.69,1.53,1.53,0,0,0,.54.47,1.49,1.49,0,0,0,.73.18,2,2,0,0,0,.65-.11,1.53,1.53,0,0,0,.52-.29l.57.56a2.73,2.73,0,0,1-.83.46A2.81,2.81,0,0,1,301.29,62.4Zm-1.51-2.79h2.74a1.59,1.59,0,0,0-.26-.63,1.41,1.41,0,0,0-.48-.43,1.17,1.17,0,0,0-.62-.16,1.29,1.29,0,0,0-.64.16A1.41,1.41,0,0,0,300,59,1.48,1.48,0,0,0,299.78,59.61Z"/><path d="M306.05,60.14v-.77h3.27v.77Z"/><path d="M314.26,62.42a3.34,3.34,0,0,1-1.27-.24,2.94,2.94,0,0,1-1-.7l.58-.55a2.71,2.71,0,0,0,.78.56,2.45,2.45,0,0,0,.93.16,1.81,1.81,0,0,0,.76-.14,1.22,1.22,0,0,0,.51-.4,1,1,0,0,0,.18-.59,1,1,0,0,0-.15-.54,1.06,1.06,0,0,0-.43-.38,1.38,1.38,0,0,0-.62-.13h-.78v-.74h.7a1.07,1.07,0,0,0,.78-.28,1,1,0,0,0,.29-.73.94.94,0,0,0-.17-.55,1.12,1.12,0,0,0-.45-.38,1.41,1.41,0,0,0-.65-.15,1.93,1.93,0,0,0-.85.18,2.28,2.28,0,0,0-.75.59l-.59-.57a3,3,0,0,1,1-.73,3.07,3.07,0,0,1,1.2-.25,2.57,2.57,0,0,1,1.1.23,1.85,1.85,0,0,1,.75.63,1.63,1.63,0,0,1,.28.91,1.35,1.35,0,0,1-.33.9,1.7,1.7,0,0,1-.87.55,1.87,1.87,0,0,1,1,.54,1.33,1.33,0,0,1,.39,1,1.56,1.56,0,0,1-.3,1,2,2,0,0,1-.82.66A2.82,2.82,0,0,1,314.26,62.42Z"/><path d="M319.75,62.42a2.86,2.86,0,0,1-1.2-.24,2,2,0,0,1-.82-.65,1.6,1.6,0,0,1-.3-1,1.46,1.46,0,0,1,.18-.7,1.6,1.6,0,0,1,.49-.55,2.26,2.26,0,0,1,.74-.33,1.83,1.83,0,0,1-.86-.55,1.31,1.31,0,0,1-.32-.88,1.45,1.45,0,0,1,.27-.87,1.82,1.82,0,0,1,.75-.61,2.44,2.44,0,0,1,1.07-.23,2.52,2.52,0,0,1,1.08.23,2,2,0,0,1,.75.61,1.49,1.49,0,0,1,.27.87,1.32,1.32,0,0,1-.33.88,1.85,1.85,0,0,1-.85.55,2,2,0,0,1,1,.59,1.41,1.41,0,0,1,.39,1,1.61,1.61,0,0,1-.29.94,2,2,0,0,1-.83.66A2.79,2.79,0,0,1,319.75,62.42Zm0-.72a1.79,1.79,0,0,0,.75-.15,1.24,1.24,0,0,0,.51-.42,1,1,0,0,0,.19-.61,1,1,0,0,0-.19-.59,1.24,1.24,0,0,0-.51-.42,1.79,1.79,0,0,0-.75-.15,1.75,1.75,0,0,0-.74.15,1.28,1.28,0,0,0-.52.42,1,1,0,0,0,0,1.2,1.28,1.28,0,0,0,.52.42A1.75,1.75,0,0,0,319.75,61.7Zm0-3a1.47,1.47,0,0,0,.64-.14,1.1,1.1,0,0,0,.45-.37,1,1,0,0,0,.16-.52,1,1,0,0,0-.16-.54,1.12,1.12,0,0,0-.45-.38,1.47,1.47,0,0,0-.64-.14,1.42,1.42,0,0,0-.63.14,1.1,1.1,0,0,0-.45.37.93.93,0,0,0-.16.54.9.9,0,0,0,.16.53,1.1,1.1,0,0,0,.45.37A1.42,1.42,0,0,0,319.75,58.66Z"/><path d="M324.23,59.19a1.22,1.22,0,0,1-1-.46,1.73,1.73,0,0,1-.38-1.18,1.76,1.76,0,0,1,.38-1.18,1.26,1.26,0,0,1,1-.45,1.23,1.23,0,0,1,1,.45,1.77,1.77,0,0,1,.39,1.18,1.73,1.73,0,0,1-.39,1.18A1.21,1.21,0,0,1,324.23,59.19Zm0-.52a.71.71,0,0,0,.6-.3,1.33,1.33,0,0,0,.22-.82,1.35,1.35,0,0,0-.22-.82.71.71,0,0,0-.6-.3.69.69,0,0,0-.58.3,1.35,1.35,0,0,0-.22.82,1.4,1.4,0,0,0,.21.82A.71.71,0,0,0,324.23,58.67Zm-.32,3.65L327.48,56h.72l-3.58,6.36Zm4,0a1.26,1.26,0,0,1-1-.45,1.8,1.8,0,0,1-.38-1.18,1.73,1.73,0,0,1,.39-1.18,1.24,1.24,0,0,1,1-.45,1.26,1.26,0,0,1,1,.45,1.84,1.84,0,0,1,.39,1.18,1.86,1.86,0,0,1-.39,1.18A1.26,1.26,0,0,1,327.92,62.36Zm0-.51a.71.71,0,0,0,.59-.3,1.35,1.35,0,0,0,.23-.82,1.33,1.33,0,0,0-.23-.82.67.67,0,0,0-.59-.31.69.69,0,0,0-.59.31,1.4,1.4,0,0,0-.22.82,1.35,1.35,0,0,0,.22.82A.71.71,0,0,0,327.92,61.85Z"/><path d="M270.79,81.51a2.91,2.91,0,0,1-1.45-.35,2.35,2.35,0,0,1-.93-1,3.19,3.19,0,0,1-.33-1.5V75.05H269v3.64a2.26,2.26,0,0,0,.22,1,1.68,1.68,0,0,0,.61.68,1.79,1.79,0,0,0,.93.24,1.7,1.7,0,0,0,.92-.24,1.68,1.68,0,0,0,.61-.68,2.26,2.26,0,0,0,.22-1V75.05h.95v3.64a3.19,3.19,0,0,1-.33,1.5,2.31,2.31,0,0,1-.94,1A2.83,2.83,0,0,1,270.79,81.51Z"/><path d="M274.56,81.41V76.79h.91v.47a1.8,1.8,0,0,1,1.39-.56,1.85,1.85,0,0,1,.93.22,1.71,1.71,0,0,1,.64.64,1.92,1.92,0,0,1,.23.94v2.91h-.91V78.66a1.18,1.18,0,0,0-.3-.86,1.14,1.14,0,0,0-.85-.31,1.28,1.28,0,0,0-.65.16,1.34,1.34,0,0,0-.48.44v3.32Z"/><path d="M281.29,81.5a3.42,3.42,0,0,1-1.12-.18,2.74,2.74,0,0,1-.9-.51l.49-.6a2.68,2.68,0,0,0,.74.43,2.07,2.07,0,0,0,.77.15,1.45,1.45,0,0,0,.79-.19.55.55,0,0,0,.31-.49.49.49,0,0,0-.18-.4,1.18,1.18,0,0,0-.56-.2l-.84-.12a1.88,1.88,0,0,1-1-.42,1.18,1.18,0,0,1-.33-.88,1.2,1.2,0,0,1,.22-.72,1.39,1.39,0,0,1,.64-.49,2.29,2.29,0,0,1,.94-.17,3.12,3.12,0,0,1,1,.14,2.77,2.77,0,0,1,.89.45l-.45.59a3.71,3.71,0,0,0-.75-.37,2.18,2.18,0,0,0-.72-.12,1.13,1.13,0,0,0-.67.18.54.54,0,0,0-.26.46.43.43,0,0,0,.18.39,1.29,1.29,0,0,0,.57.2l.85.13a1.88,1.88,0,0,1,1,.41,1.13,1.13,0,0,1,.36.88,1.21,1.21,0,0,1-.26.74,1.83,1.83,0,0,1-.69.52A2.57,2.57,0,0,1,281.29,81.5Z"/><path d="M283.92,83.26V76.79h.9v.44a2.12,2.12,0,0,1,1.42-.51,2.26,2.26,0,0,1,1.18.31,2.24,2.24,0,0,1,.84.86,2.5,2.5,0,0,1,0,2.41,2.24,2.24,0,0,1-.84.86,2.35,2.35,0,0,1-1.21.32,2.24,2.24,0,0,1-.73-.12,2.38,2.38,0,0,1-.65-.34v2.24Zm2.2-2.57a1.64,1.64,0,0,0,.8-.2,1.58,1.58,0,0,0,.55-.57,1.61,1.61,0,0,0,.21-.82,1.58,1.58,0,0,0-.21-.81,1.48,1.48,0,0,0-1.35-.79,1.72,1.72,0,0,0-.72.15,1.39,1.39,0,0,0-.57.41v2.09a1.69,1.69,0,0,0,.57.39A1.79,1.79,0,0,0,286.12,80.69Z"/><path d="M291.65,81.49a2.5,2.5,0,0,1-1.23-.31,2.37,2.37,0,0,1-1.2-2.09,2.28,2.28,0,0,1,.31-1.2,2.39,2.39,0,0,1,.84-.86,2.16,2.16,0,0,1,1.18-.32,2,2,0,0,1,1.14.32,2.32,2.32,0,0,1,.8.87,2.67,2.67,0,0,1,.29,1.24v.24h-3.65a1.57,1.57,0,0,0,.82,1.16,1.52,1.52,0,0,0,.73.18,2.08,2.08,0,0,0,.66-.11,1.48,1.48,0,0,0,.51-.29l.58.56a3,3,0,0,1-.83.46A2.91,2.91,0,0,1,291.65,81.49Zm-1.51-2.79h2.74a1.59,1.59,0,0,0-.26-.63,1.38,1.38,0,0,0-.47-.43,1.32,1.32,0,0,0-1.26,0,1.35,1.35,0,0,0-.49.43A1.48,1.48,0,0,0,290.14,78.7Z"/><path d="M294.63,81.41V76.79h.91v.47a1.82,1.82,0,0,1,1.39-.56,1.89,1.89,0,0,1,.94.22,1.68,1.68,0,0,1,.63.64,1.82,1.82,0,0,1,.23.94v2.91h-.9V78.66a1.19,1.19,0,0,0-.31-.86,1.14,1.14,0,0,0-.85-.31,1.24,1.24,0,0,0-.64.16,1.37,1.37,0,0,0-.49.44v3.32Z"/><path d="M301.61,81.49a1.5,1.5,0,0,1-1-.31,1.18,1.18,0,0,1-.35-.92V77.55h-1v-.76h1V75.62l.9-.23v1.4h1.37v.76h-1.37v2.51a.65.65,0,0,0,.16.5.73.73,0,0,0,.52.15,1.72,1.72,0,0,0,.34,0l.32-.09v.77a2.16,2.16,0,0,1-.42.1Z"/><path d="M305,79.23v-.77h3.27v.77Z"/><path d="M311,81.41v-.64L313.56,78a6.24,6.24,0,0,0,.41-.49,1.23,1.23,0,0,0,.2-.42,1.39,1.39,0,0,0,.06-.4.88.88,0,0,0-.34-.72,1.37,1.37,0,0,0-.87-.27,1.84,1.84,0,0,0-.81.17,3,3,0,0,0-.85.6l-.49-.6a3.61,3.61,0,0,1,1.05-.71A2.72,2.72,0,0,1,313,75a2.59,2.59,0,0,1,1.07.22,1.73,1.73,0,0,1,.72.61,1.55,1.55,0,0,1,.26.89,1.81,1.81,0,0,1-.09.58,1.79,1.79,0,0,1-.28.55,6.57,6.57,0,0,1-.56.68l-2.07,2.18h3.12v.76Z"/><path d="M319.25,81.41V79.79h-3.6v-.72l3.49-4h1v4h.77v.76h-.77v1.62ZM316.72,79h2.53V76.12Z"/><path d="M322.84,78.28a1.26,1.26,0,0,1-1-.46,1.78,1.78,0,0,1-.38-1.18,1.82,1.82,0,0,1,.38-1.18,1.28,1.28,0,0,1,1-.45,1.26,1.26,0,0,1,1,.45,1.88,1.88,0,0,1,.39,1.18,1.84,1.84,0,0,1-.39,1.18A1.27,1.27,0,0,1,322.84,78.28Zm0-.52a.7.7,0,0,0,.59-.3,1.33,1.33,0,0,0,.22-.82,1.35,1.35,0,0,0-.22-.82.73.73,0,0,0-1.18,0,1.35,1.35,0,0,0-.22.82,1.33,1.33,0,0,0,.22.82A.68.68,0,0,0,322.84,77.76Zm-.33,3.65,3.58-6.36h.71l-3.58,6.36Zm4,0a1.26,1.26,0,0,1-1-.45,1.8,1.8,0,0,1-.38-1.18,1.73,1.73,0,0,1,.39-1.18,1.27,1.27,0,0,1,1-.46,1.25,1.25,0,0,1,1,.46,1.84,1.84,0,0,1,.39,1.18,1.86,1.86,0,0,1-.39,1.18A1.24,1.24,0,0,1,326.52,81.45Zm0-.52a.73.73,0,0,0,.6-.29,1.42,1.42,0,0,0,.22-.82,1.4,1.4,0,0,0-.22-.82.7.7,0,0,0-.6-.31.66.66,0,0,0-.58.31,1.33,1.33,0,0,0-.23.82,1.42,1.42,0,0,0,.22.82A.71.71,0,0,0,326.52,80.93Z"/><rect id="ea1fa916-16f2-4da4-8789-9818869416e7" data-name="Rectangle 377-2" class="e098bd88-e174-4ba7-96c1-ad1fa4dac22f" x="248.1" y="54.48" width="10.21" height="10.21"/><rect id="a0d416a2-e827-4e42-b766-1ec7a2c54ae9" data-name="Rectangle 380-2" class="f1a2a97a-78cc-4a9a-9bd1-a40e1837de1b" x="248.1" y="73.47" width="10.21" height="10.21"/><rect id="a4f3e4d5-6cd2-416e-b3dc-21dd2ce19dda" data-name="Rectangle 382-2" class="a225a9a6-1db3-46b0-a7d1-29a5823248bc" x="248.1" y="35.49" width="10.21" height="10.21"/><g id="e8f351a2-ed72-48eb-a0ad-ebfa8a29c6f8" data-name="Rectangle 4740"><path class="b7d8a584-90d6-4cac-863a-ebef369ab9e1" d="M392,1V179H54V1H392m1-1H53V180H393V0Z"/></g><path d="M318.62,148.11a2,2,0,0,1,0,.42c0,1.8-2.2,2.12-3.72,2.12-5.91,0-10.32-3.67-10.32-4.79a1,1,0,0,1,0-.24l-.44,1.1a2.17,2.17,0,0,0-.18.89c0,2.2,5,5.53,10.65,5.53,2.52,0,4.43-.95,4.43-2.65a6.12,6.12,0,0,0-.21-1.23Z"/><path class="a225a9a6-1db3-46b0-a7d1-29a5823248bc" d="M314.94,150.65c1.52,0,3.72-.32,3.72-2.12a2,2,0,0,0,0-.42l-.91-3.93c-.21-.86-.39-1.26-1.91-2a17.76,17.76,0,0,0-4.5-1.59c-.71,0-.92.91-1.76.91s-1.41-.68-2.17-.68-1.21.5-1.57,1.52c0,0-1,2.88-1.16,3.3a1,1,0,0,0,0,.24c0,1.12,4.41,4.79,10.32,4.79m3.95-1.39a6.12,6.12,0,0,1,.21,1.23c0,1.7-1.91,2.65-4.43,2.65-5.68,0-10.65-3.33-10.65-5.53a2.17,2.17,0,0,1,.18-.89c-2,.11-4.69.47-4.69,2.8,0,3.83,9.06,8.54,16.24,8.54,5.5,0,6.89-2.49,6.89-4.45,0-1.55-1.34-3.3-3.75-4.35"/><path d="M325.11,144.89h4.38a2.94,2.94,0,0,1,3,2.91,2.75,2.75,0,0,1-1.63,2.49l1.91,3.38h-2.41l-1.64-3.08h-1.47v3.08h-2.16Zm2.16,1.84v2.08h2a1.05,1.05,0,0,0,1.09-1,1.08,1.08,0,0,0-1.09-1.07Z"/><path d="M336.33,153.79a3.48,3.48,0,0,1-3.61-3.43,3.41,3.41,0,0,1,3.46-3.44,3.37,3.37,0,0,1,3.35,3.57v.56H334.8a1.71,1.71,0,0,0,1.63,1,1.82,1.82,0,0,0,1.33-.5l1.34,1.19A4,4,0,0,1,336.33,153.79Zm-1.54-4.16h2.76a1.48,1.48,0,0,0-1.39-1A1.38,1.38,0,0,0,334.79,149.63Z"/><path d="M345.12,153.18a3.07,3.07,0,0,1-1.79.59,3.42,3.42,0,1,1,1.76-6.39v-2.49l2-.63v9.41h-2ZM343.66,152a2,2,0,0,0,1.43-.53v-2.32a2.13,2.13,0,0,0-1.43-.52,1.69,1.69,0,1,0,0,3.37Z"/><path d="M355.75,150.23h-3.36v3.44h-2.16v-8.78h2.16v3.37h3.36v-3.37h2.16v8.78h-2.16Z"/><path d="M362.9,153.27a3,3,0,0,1-1.78.51,2.23,2.23,0,0,1-2.47-2.12c0-1.17.94-2,2.58-2a3.57,3.57,0,0,1,1.67.37v-.4c0-.64-.43-1-1.26-1a5.06,5.06,0,0,0-2,.48l-.6-1.52a6.93,6.93,0,0,1,2.73-.67c2,0,3.15.89,3.15,2.5v4.26h-2Zm-1.24-.91a2.31,2.31,0,0,0,1.24-.34v-.69a2.7,2.7,0,0,0-1.31-.35c-.62,0-1,.27-1,.68S361,152.36,361.66,152.36Z"/><path d="M368.89,153.77c-1.39,0-2.17-.67-2.17-2.05v-3h-1.4V147h1.4v-1.52l2-.62V147h1.85v1.69h-1.85v2.54c0,.56.3.78.91.78a2.27,2.27,0,0,0,.89-.2l-.27,1.64A3.68,3.68,0,0,1,368.89,153.77Z"/><g id="f14b8f3b-feeb-4f2b-9211-c259a016a342" data-name="Rectangle 4740"><path class="b7d8a584-90d6-4cac-863a-ebef369ab9e1" d="M846,1V179H508V1H846m1-1H507V180H847V0Z"/></g><path d="M772.62,148.11a2,2,0,0,1,0,.42c0,1.8-2.2,2.12-3.72,2.12-5.91,0-10.32-3.67-10.32-4.79a1,1,0,0,1,0-.24l-.44,1.1a2.17,2.17,0,0,0-.18.89c0,2.2,5,5.53,10.65,5.53,2.52,0,4.43-.95,4.43-2.65a6.12,6.12,0,0,0-.21-1.23Z"/><path class="a225a9a6-1db3-46b0-a7d1-29a5823248bc" d="M768.94,150.65c1.52,0,3.72-.32,3.72-2.12a2,2,0,0,0,0-.42l-.91-3.93c-.21-.86-.39-1.26-1.91-2a17.76,17.76,0,0,0-4.5-1.59c-.71,0-.92.91-1.76.91s-1.41-.68-2.17-.68-1.21.5-1.57,1.52c0,0-1,2.88-1.16,3.3a1,1,0,0,0,0,.24c0,1.12,4.41,4.79,10.32,4.79m3.95-1.39a6.12,6.12,0,0,1,.21,1.23c0,1.7-1.91,2.65-4.43,2.65-5.68,0-10.65-3.33-10.65-5.53a2.17,2.17,0,0,1,.18-.89c-2,.11-4.69.47-4.69,2.8,0,3.83,9.06,8.54,16.24,8.54,5.5,0,6.89-2.49,6.89-4.45,0-1.55-1.34-3.3-3.75-4.35"/><path d="M779.11,144.89h4.38a2.94,2.94,0,0,1,3,2.91,2.75,2.75,0,0,1-1.63,2.49l1.91,3.38h-2.41l-1.64-3.08h-1.47v3.08h-2.16Zm2.16,1.84v2.08h2a1.05,1.05,0,0,0,1.09-1,1.08,1.08,0,0,0-1.09-1.07Z"/><path d="M790.33,153.79a3.48,3.48,0,0,1-3.61-3.43,3.41,3.41,0,0,1,3.46-3.44,3.37,3.37,0,0,1,3.35,3.57v.56H788.8a1.71,1.71,0,0,0,1.63,1,1.82,1.82,0,0,0,1.33-.5l1.34,1.19A4,4,0,0,1,790.33,153.79Zm-1.54-4.16h2.76a1.48,1.48,0,0,0-1.39-1A1.38,1.38,0,0,0,788.79,149.63Z"/><path d="M799.12,153.18a3.07,3.07,0,0,1-1.79.59,3.42,3.42,0,1,1,1.76-6.39v-2.49l2-.63v9.41h-2ZM797.66,152a2,2,0,0,0,1.43-.53v-2.32a2.13,2.13,0,0,0-1.43-.52,1.69,1.69,0,1,0,0,3.37Z"/><path d="M809.75,150.23h-3.36v3.44h-2.16v-8.78h2.16v3.37h3.36v-3.37h2.16v8.78h-2.16Z"/><path d="M816.9,153.27a3,3,0,0,1-1.78.51,2.23,2.23,0,0,1-2.47-2.12c0-1.17.94-2,2.58-2a3.57,3.57,0,0,1,1.67.37v-.4c0-.64-.43-1-1.26-1a5.06,5.06,0,0,0-2,.48l-.6-1.52a6.93,6.93,0,0,1,2.73-.67c2,0,3.15.89,3.15,2.5v4.26h-2Zm-1.24-.91a2.31,2.31,0,0,0,1.24-.34v-.69a2.7,2.7,0,0,0-1.31-.35c-.62,0-1,.27-1,.68S815,152.36,815.66,152.36Z"/><path d="M822.89,153.77c-1.39,0-2.17-.67-2.17-2.05v-3h-1.4V147h1.4v-1.52l2-.62V147h1.85v1.69h-1.85v2.54c0,.56.3.78.91.78a2.27,2.27,0,0,0,.89-.2l-.27,1.64A3.68,3.68,0,0,1,822.89,153.77Z"/><path id="baef9303-ebaf-4000-8f39-002f9d80a137" data-name="Rectangle 4740-3" class="f25bffec-54ab-4c9f-beb0-eeb821d41733" d="M507,200H847V380H507V200Z"/><g id="b1fd8b1a-77ea-4258-a79e-219436c63bf3" data-name="Group 36332"><g class="bb54c8db-09a1-4150-ba8d-9fcd935de136"><path class="f25bffec-54ab-4c9f-beb0-eeb821d41733" d="M621.07,192.43c38.93,1.42,45,29.77,75.54,32.24s63.77,21.38,63.17,61-51.35,60.25-102,65.09c-60.09,5.76-113-4.71-118.52-58.75S576.14,190.78,621.07,192.43Z"/><ellipse class="f1a2a97a-78cc-4a9a-9bd1-a40e1837de1b" cx="646.82" cy="365.75" rx="68.39" ry="3.36"/><rect class="f1a2a97a-78cc-4a9a-9bd1-a40e1837de1b" x="529.22" y="219.68" width="41.09" height="88.01"/><rect class="e4b2a25e-0614-4bd7-98fb-139c17843513" x="537.15" y="219.68" width="41.09" height="88.01"/><rect class="b4c6e4bf-04bb-4536-bedd-10330ca88cd1" x="542.77" y="225.14" width="3.88" height="7.37"/><rect class="b4c6e4bf-04bb-4536-bedd-10330ca88cd1" x="554.69" y="225.14" width="3.88" height="7.37"/><rect class="b4c6e4bf-04bb-4536-bedd-10330ca88cd1" x="566.61" y="225.14" width="3.88" height="7.37"/><rect class="e4b2a25e-0614-4bd7-98fb-139c17843513" x="537.15" y="236.75" width="62.8" height="70.94"/><rect class="b4c6e4bf-04bb-4536-bedd-10330ca88cd1" x="542.77" y="295.67" width="3.88" height="7.37"/><rect class="b4c6e4bf-04bb-4536-bedd-10330ca88cd1" x="554.69" y="295.67" width="3.88" height="7.37"/><rect class="b4c6e4bf-04bb-4536-bedd-10330ca88cd1" x="566.61" y="295.67" width="3.88" height="7.37"/><rect class="b4c6e4bf-04bb-4536-bedd-10330ca88cd1" x="578.53" y="295.67" width="3.88" height="7.37"/><rect class="b4c6e4bf-04bb-4536-bedd-10330ca88cd1" x="590.45" y="295.67" width="3.88" height="7.37"/><rect class="b4c6e4bf-04bb-4536-bedd-10330ca88cd1" x="542.77" y="278" width="3.88" height="7.37"/><rect class="b4c6e4bf-04bb-4536-bedd-10330ca88cd1" x="554.69" y="278" width="3.88" height="7.37"/><rect class="b4c6e4bf-04bb-4536-bedd-10330ca88cd1" x="566.61" y="278" width="3.88" height="7.37"/><rect class="b4c6e4bf-04bb-4536-bedd-10330ca88cd1" x="578.53" y="278" width="3.88" height="7.37"/><rect class="b4c6e4bf-04bb-4536-bedd-10330ca88cd1" x="590.45" y="278" width="3.88" height="7.37"/><rect class="b4c6e4bf-04bb-4536-bedd-10330ca88cd1" x="542.77" y="260.32" width="3.88" height="7.37"/><rect class="b4c6e4bf-04bb-4536-bedd-10330ca88cd1" x="554.69" y="260.32" width="3.88" height="7.37"/><rect class="b4c6e4bf-04bb-4536-bedd-10330ca88cd1" x="566.61" y="260.32" width="3.88" height="7.37"/><rect class="b4c6e4bf-04bb-4536-bedd-10330ca88cd1" x="578.53" y="260.32" width="3.88" height="7.37"/><rect class="b4c6e4bf-04bb-4536-bedd-10330ca88cd1" x="590.45" y="260.32" width="3.88" height="7.37"/><rect class="b4c6e4bf-04bb-4536-bedd-10330ca88cd1" x="542.77" y="242.64" width="3.88" height="7.37"/><rect class="b4c6e4bf-04bb-4536-bedd-10330ca88cd1" x="554.69" y="242.64" width="3.88" height="7.37"/><rect class="b4c6e4bf-04bb-4536-bedd-10330ca88cd1" x="566.61" y="242.64" width="3.88" height="7.37"/><rect class="b4c6e4bf-04bb-4536-bedd-10330ca88cd1" x="578.53" y="242.64" width="3.88" height="7.37"/><rect class="b4c6e4bf-04bb-4536-bedd-10330ca88cd1" x="590.45" y="242.64" width="3.88" height="7.37"/><g class="bafd8602-35b9-4aeb-9617-9f076a9aa97d"><rect class="f1a2a97a-78cc-4a9a-9bd1-a40e1837de1b" x="537.15" y="236.75" width="62.8" height="70.94"/><rect class="a225a9a6-1db3-46b0-a7d1-29a5823248bc" x="542.77" y="295.67" width="3.88" height="7.37"/><rect class="a225a9a6-1db3-46b0-a7d1-29a5823248bc" x="554.69" y="295.67" width="3.88" height="7.37"/><rect class="a225a9a6-1db3-46b0-a7d1-29a5823248bc" x="566.61" y="295.67" width="3.88" height="7.37"/><rect class="a225a9a6-1db3-46b0-a7d1-29a5823248bc" x="578.53" y="295.67" width="3.88" height="7.37"/><rect class="a225a9a6-1db3-46b0-a7d1-29a5823248bc" x="590.45" y="295.67" width="3.88" height="7.37"/><rect class="a225a9a6-1db3-46b0-a7d1-29a5823248bc" x="542.77" y="278" width="3.88" height="7.37"/><rect class="a225a9a6-1db3-46b0-a7d1-29a5823248bc" x="554.69" y="278" width="3.88" height="7.37"/><rect class="a225a9a6-1db3-46b0-a7d1-29a5823248bc" x="566.61" y="278" width="3.88" height="7.37"/><rect class="a225a9a6-1db3-46b0-a7d1-29a5823248bc" x="578.53" y="278" width="3.88" height="7.37"/><rect class="a225a9a6-1db3-46b0-a7d1-29a5823248bc" x="590.45" y="278" width="3.88" height="7.37"/><rect class="a225a9a6-1db3-46b0-a7d1-29a5823248bc" x="542.77" y="260.32" width="3.88" height="7.37"/><rect class="a225a9a6-1db3-46b0-a7d1-29a5823248bc" x="554.69" y="260.32" width="3.88" height="7.37"/><rect class="a225a9a6-1db3-46b0-a7d1-29a5823248bc" x="566.61" y="260.32" width="3.88" height="7.37"/><rect class="a225a9a6-1db3-46b0-a7d1-29a5823248bc" x="578.53" y="260.32" width="3.88" height="7.37"/><rect class="a225a9a6-1db3-46b0-a7d1-29a5823248bc" x="590.45" y="260.32" width="3.88" height="7.37"/><rect class="a225a9a6-1db3-46b0-a7d1-29a5823248bc" x="542.77" y="242.64" width="3.88" height="7.37"/><rect class="a225a9a6-1db3-46b0-a7d1-29a5823248bc" x="554.69" y="242.64" width="3.88" height="7.37"/><rect class="a225a9a6-1db3-46b0-a7d1-29a5823248bc" x="566.61" y="242.64" width="3.88" height="7.37"/><rect class="a225a9a6-1db3-46b0-a7d1-29a5823248bc" x="578.53" y="242.64" width="3.88" height="7.37"/><rect class="a225a9a6-1db3-46b0-a7d1-29a5823248bc" x="590.45" y="242.64" width="3.88" height="7.37"/></g><rect class="e4b2a25e-0614-4bd7-98fb-139c17843513" x="563.46" y="252.92" width="50.35" height="13.69" transform="translate(1177.27 519.53) rotate(-180)"/><path class="f25bffec-54ab-4c9f-beb0-eeb821d41733" d="M613.81,267.14H563.46a.53.53,0,0,1-.53-.53V252.92a.53.53,0,0,1,.53-.53h50.35a.53.53,0,0,1,.53.53v13.69A.53.53,0,0,1,613.81,267.14ZM564,266.08h49.29V253.45H564Z"/><rect class="e4b2a25e-0614-4bd7-98fb-139c17843513" x="563.46" y="266.61" width="50.35" height="13.69" transform="translate(1177.27 546.92) rotate(-180)"/><path class="f25bffec-54ab-4c9f-beb0-eeb821d41733" d="M613.81,280.83H563.46a.53.53,0,0,1-.53-.53V266.61a.53.53,0,0,1,.53-.53h50.35a.53.53,0,0,1,.53.53V280.3A.53.53,0,0,1,613.81,280.83ZM564,279.78h49.29V267.14H564Z"/><rect class="e4b2a25e-0614-4bd7-98fb-139c17843513" x="563.46" y="280.3" width="50.35" height="13.69" transform="translate(1177.27 574.3) rotate(-180)"/><path class="f25bffec-54ab-4c9f-beb0-eeb821d41733" d="M613.81,294.53H563.46a.53.53,0,0,1-.53-.53V280.3a.52.52,0,0,1,.53-.52h50.35a.52.52,0,0,1,.53.52V294A.53.53,0,0,1,613.81,294.53ZM564,293.47h49.29V280.83H564Z"/><rect class="e4b2a25e-0614-4bd7-98fb-139c17843513" x="563.46" y="294" width="50.35" height="13.69" transform="translate(1177.27 601.69) rotate(-180)"/><path class="f25bffec-54ab-4c9f-beb0-eeb821d41733" d="M613.81,308.22H563.46a.53.53,0,0,1-.53-.53V294a.53.53,0,0,1,.53-.53h50.35a.53.53,0,0,1,.53.53v13.69A.53.53,0,0,1,613.81,308.22ZM564,307.16h49.29V294.53H564Z"/><rect class="b4c6e4bf-04bb-4536-bedd-10330ca88cd1" x="578.3" y="252.92" width="50.35" height="13.69" transform="translate(1206.96 519.53) rotate(-180)"/><path class="f25bffec-54ab-4c9f-beb0-eeb821d41733" d="M628.66,267.14H578.3a.53.53,0,0,1-.53-.53V252.92a.53.53,0,0,1,.53-.53h50.36a.53.53,0,0,1,.53.53v13.69A.53.53,0,0,1,628.66,267.14Zm-49.83-1.06h49.3V253.45h-49.3Z"/><circle class="a225a9a6-1db3-46b0-a7d1-29a5823248bc" cx="586.47" cy="259.77" r="1.61"/><rect class="b4c6e4bf-04bb-4536-bedd-10330ca88cd1" x="578.3" y="266.61" width="50.35" height="13.69" transform="translate(1206.96 546.92) rotate(-180)"/><path class="f25bffec-54ab-4c9f-beb0-eeb821d41733" d="M628.66,280.83H578.3a.53.53,0,0,1-.53-.53V266.61a.53.53,0,0,1,.53-.53h50.36a.53.53,0,0,1,.53.53V280.3A.53.53,0,0,1,628.66,280.83Zm-49.83-1.05h49.3V267.14h-49.3Z"/><circle class="a225a9a6-1db3-46b0-a7d1-29a5823248bc" cx="586.47" cy="273.46" r="1.79"/><rect class="b4c6e4bf-04bb-4536-bedd-10330ca88cd1" x="578.3" y="280.3" width="50.35" height="13.69" transform="translate(1206.96 574.3) rotate(-180)"/><path class="f25bffec-54ab-4c9f-beb0-eeb821d41733" d="M628.66,294.53H578.3a.53.53,0,0,1-.53-.53V280.3a.52.52,0,0,1,.53-.52h50.36a.52.52,0,0,1,.53.52V294A.53.53,0,0,1,628.66,294.53Zm-49.83-1.06h49.3V280.83h-49.3Z"/><circle class="a225a9a6-1db3-46b0-a7d1-29a5823248bc" cx="586.47" cy="287.15" r="1.79"/><rect class="b4c6e4bf-04bb-4536-bedd-10330ca88cd1" x="578.3" y="294" width="50.35" height="13.69" transform="translate(1206.96 601.69) rotate(-180)"/><path class="f25bffec-54ab-4c9f-beb0-eeb821d41733" d="M628.66,308.22H578.3a.53.53,0,0,1-.53-.53V294a.53.53,0,0,1,.53-.53h50.36a.53.53,0,0,1,.53.53v13.69A.53.53,0,0,1,628.66,308.22Zm-49.83-1.06h49.3V294.53h-49.3Z"/><circle class="a225a9a6-1db3-46b0-a7d1-29a5823248bc" cx="586.47" cy="300.84" r="1.79"/><rect class="a225a9a6-1db3-46b0-a7d1-29a5823248bc" x="593.29" y="258.46" width="27.42" height="2.61" transform="translate(1214 519.53) rotate(-180)"/><rect class="a225a9a6-1db3-46b0-a7d1-29a5823248bc" x="593.46" y="272.17" width="27.08" height="2.58" transform="translate(1214 546.92) rotate(-180)"/><rect class="a225a9a6-1db3-46b0-a7d1-29a5823248bc" x="593.46" y="285.86" width="27.08" height="2.58" transform="translate(1214 574.3) rotate(-180)"/><rect class="a225a9a6-1db3-46b0-a7d1-29a5823248bc" x="593.46" y="299.56" width="27.08" height="2.58" transform="translate(1214 601.69) rotate(-180)"/><g class="a57f8a37-6d84-4213-a542-af41c3a7ca69"><circle class="f1a2a97a-78cc-4a9a-9bd1-a40e1837de1b" cx="646.82" cy="339.95" r="25.98"/><circle class="e4b2a25e-0614-4bd7-98fb-139c17843513" cx="646.82" cy="367.33" r="45.77"/></g><circle class="e4b2a25e-0614-4bd7-98fb-139c17843513" cx="678.76" cy="251.13" r="12.35"/><circle class="e4b2a25e-0614-4bd7-98fb-139c17843513" cx="727.67" cy="256.16" r="7.31"/><circle class="e4b2a25e-0614-4bd7-98fb-139c17843513" cx="718.13" cy="249.34" r="13.1"/><circle class="e4b2a25e-0614-4bd7-98fb-139c17843513" cx="697.93" cy="242.8" r="20.67"/><polygon class="e4b2a25e-0614-4bd7-98fb-139c17843513" points="678.7 263.47 727.79 263.47 727.79 252.41 678.49 252.41 678.7 263.47"/><g class="a1abc077-62a6-4d27-ad92-ec6e7fa3de88"><circle class="f1a2a97a-78cc-4a9a-9bd1-a40e1837de1b" cx="678.76" cy="251.13" r="12.35"/><circle class="f1a2a97a-78cc-4a9a-9bd1-a40e1837de1b" cx="727.67" cy="256.16" r="7.31"/><circle class="f1a2a97a-78cc-4a9a-9bd1-a40e1837de1b" cx="714.7" cy="249.34" r="13.1"/><circle class="f1a2a97a-78cc-4a9a-9bd1-a40e1837de1b" cx="697.93" cy="244.3" r="19.17"/><polygon class="f1a2a97a-78cc-4a9a-9bd1-a40e1837de1b" points="678.7 263.47 727.79 263.47 727.79 252.41 678.49 252.41 678.7 263.47"/></g><rect class="b4c6e4bf-04bb-4536-bedd-10330ca88cd1" x="683.23" y="249.05" width="80.95" height="58.33"/><path class="f1a2a97a-78cc-4a9a-9bd1-a40e1837de1b" d="M764.71,307.92h-82V248.53h82Zm-81-1.06h79.9V249.58h-79.9Z"/><rect class="a225a9a6-1db3-46b0-a7d1-29a5823248bc" x="683.75" y="249.58" width="79.89" height="10.68"/><circle class="b4c6e4bf-04bb-4536-bedd-10330ca88cd1" cx="750.54" cy="254.63" r="1.64"/><circle class="b4c6e4bf-04bb-4536-bedd-10330ca88cd1" cx="757.02" cy="254.63" r="1.64"/><rect class="ef3d00d5-bde3-4428-9207-b0d56d0243bd" x="688.85" y="267.08" width="37.67" height="34.74"/><rect class="ef3d00d5-bde3-4428-9207-b0d56d0243bd" x="733.25" y="287.84" width="23.73" height="13.98"/><rect class="b4c6e4bf-04bb-4536-bedd-10330ca88cd1" x="689.79" y="266.14" width="37.67" height="34.74"/><path class="f25bffec-54ab-4c9f-beb0-eeb821d41733" d="M728,301.41H689.26v-35.8H728Zm-37.67-1.06h36.61V266.67H690.32Z"/><rect class="b4c6e4bf-04bb-4536-bedd-10330ca88cd1" x="734.19" y="266.14" width="23.73" height="14.03"/><path class="f25bffec-54ab-4c9f-beb0-eeb821d41733" d="M758.45,280.69H733.66V265.61h24.79Zm-23.73-1.05h22.67v-13H734.72Z"/><rect class="b4c6e4bf-04bb-4536-bedd-10330ca88cd1" x="734.19" y="286.9" width="23.73" height="13.98"/><path class="f25bffec-54ab-4c9f-beb0-eeb821d41733" d="M758.45,301.41H733.66v-15h24.79Zm-23.73-1.06h22.67V287.42H734.72Z"/><g class="a7483914-7186-49bc-a529-97c8de585e03"><rect class="f25bffec-54ab-4c9f-beb0-eeb821d41733" x="683.23" y="249.05" width="80.95" height="58.33"/><path d="M764.71,307.92h-82v-59.4h82Zm-81-1.06h79.89V249.58H683.76Z"/><rect class="a225a9a6-1db3-46b0-a7d1-29a5823248bc" x="683.23" y="249.05" width="80.95" height="11.21"/><path class="b4c6e4bf-04bb-4536-bedd-10330ca88cd1" d="M718,255.16H688.84a.53.53,0,0,1,0-1.06H718a.53.53,0,0,1,0,1.06Z"/><circle class="b4c6e4bf-04bb-4536-bedd-10330ca88cd1" cx="750.54" cy="254.63" r="1.64"/><circle class="b4c6e4bf-04bb-4536-bedd-10330ca88cd1" cx="757.02" cy="254.63" r="1.64"/><path class="b4c6e4bf-04bb-4536-bedd-10330ca88cd1" d="M764.18,248.88H704.43a.53.53,0,1,1,0-1.06h59.75a.53.53,0,1,1,0,1.06Z"/><rect class="f25bffec-54ab-4c9f-beb0-eeb821d41733" x="689.79" y="266.14" width="37.67" height="34.74"/><path class="e4b2a25e-0614-4bd7-98fb-139c17843513" d="M728,301.41H689.26v-35.8H728Zm-37.67-1.06h36.61V266.67H690.32Z"/><rect class="f25bffec-54ab-4c9f-beb0-eeb821d41733" x="734.19" y="266.14" width="23.73" height="14.03"/><path class="e4b2a25e-0614-4bd7-98fb-139c17843513" d="M758.45,280.69H733.66V265.61h24.79Zm-23.73-1.05h22.67v-13H734.72Z"/><rect class="f25bffec-54ab-4c9f-beb0-eeb821d41733" x="734.19" y="286.9" width="23.73" height="13.98"/><path class="e4b2a25e-0614-4bd7-98fb-139c17843513" d="M758.45,301.41H733.66v-15h24.79Zm-23.73-1.06h22.67V287.42H734.72Z"/></g><circle class="a225a9a6-1db3-46b0-a7d1-29a5823248bc" cx="771.05" cy="287.67" r="9.95"/><circle class="a225a9a6-1db3-46b0-a7d1-29a5823248bc" cx="740.01" cy="287.08" r="10.55"/><circle class="a225a9a6-1db3-46b0-a7d1-29a5823248bc" cx="753.52" cy="282.17" r="15.45"/><polygon class="a225a9a6-1db3-46b0-a7d1-29a5823248bc" points="771.72 297.61 739.98 297.61 739.98 288.7 771.85 288.7 771.72 297.61"/><rect class="f1a2a97a-78cc-4a9a-9bd1-a40e1837de1b" x="668.34" y="270.32" width="29.01" height="23.86"/><path class="e4b2a25e-0614-4bd7-98fb-139c17843513" d="M697.35,270.32v23.86h-29V270.32h29m1.06-1.06H667.29v26h31.12v-26Z"/><path class="b4c6e4bf-04bb-4536-bedd-10330ca88cd1" d="M685.43,285h-3.9a.53.53,0,0,1,0-1.06h3.9a.53.53,0,0,1,0,1.06Z"/><path class="b4c6e4bf-04bb-4536-bedd-10330ca88cd1" d="M678,285h-2.95a.53.53,0,1,1,0-1.06H678a.53.53,0,1,1,0,1.06Z"/><path class="b4c6e4bf-04bb-4536-bedd-10330ca88cd1" d="M688.32,280.59h-4.58a.53.53,0,0,1,0-1h4.58a.53.53,0,1,1,0,1Z"/><path class="b4c6e4bf-04bb-4536-bedd-10330ca88cd1" d="M681,280.59h-5.95a.53.53,0,1,1,0-1H681a.53.53,0,1,1,0,1Z"/><path class="b4c6e4bf-04bb-4536-bedd-10330ca88cd1" d="M692.94,289.36h-3.39a.53.53,0,1,1,0-1.05h3.39a.53.53,0,1,1,0,1.05Z"/><path class="b4c6e4bf-04bb-4536-bedd-10330ca88cd1" d="M686.05,289.36h-11a.53.53,0,1,1,0-1.05h11a.53.53,0,1,1,0,1.05Z"/><path class="b4c6e4bf-04bb-4536-bedd-10330ca88cd1" d="M693.08,276.19h-5.7a.53.53,0,0,1,0-1.06h5.7a.53.53,0,1,1,0,1.06Z"/><path class="b4c6e4bf-04bb-4536-bedd-10330ca88cd1" d="M684.72,276.19h-9.64a.53.53,0,1,1,0-1.06h9.64a.53.53,0,1,1,0,1.06Z"/><path class="b4c6e4bf-04bb-4536-bedd-10330ca88cd1" d="M672.44,289.35a.53.53,0,0,1-.53-.53V275.76a.53.53,0,0,1,1.06,0v13.06A.53.53,0,0,1,672.44,289.35Z"/><rect class="a225a9a6-1db3-46b0-a7d1-29a5823248bc" x="522.76" y="306.98" width="248.12" height="8.84"/><path class="b4c6e4bf-04bb-4536-bedd-10330ca88cd1" d="M665.79,358.92a.54.54,0,0,1-.37-.91,25.57,25.57,0,0,0,5.22-28.59.52.52,0,0,1,.26-.7.53.53,0,0,1,.7.26,26.62,26.62,0,0,1-5.44,29.78A.54.54,0,0,1,665.79,358.92Z"/></g></g><path d="M772.62,348.11a2,2,0,0,1,0,.42c0,1.8-2.2,2.12-3.72,2.12-5.91,0-10.32-3.67-10.32-4.79a1,1,0,0,1,0-.24l-.44,1.1a2.17,2.17,0,0,0-.18.89c0,2.2,5,5.53,10.65,5.53,2.52,0,4.43-.95,4.43-2.65a6.12,6.12,0,0,0-.21-1.23Z"/><path class="a225a9a6-1db3-46b0-a7d1-29a5823248bc" d="M768.94,350.65c1.52,0,3.72-.32,3.72-2.12a2,2,0,0,0,0-.42l-.91-3.93c-.21-.86-.39-1.26-1.91-2a17.76,17.76,0,0,0-4.5-1.59c-.71,0-.92.91-1.76.91s-1.41-.68-2.17-.68-1.21.5-1.57,1.52c0,0-1,2.88-1.16,3.3a1,1,0,0,0,0,.24c0,1.12,4.41,4.79,10.32,4.79m3.95-1.39a6.12,6.12,0,0,1,.21,1.23c0,1.7-1.91,2.65-4.43,2.65-5.68,0-10.65-3.33-10.65-5.53a2.17,2.17,0,0,1,.18-.89c-2,.11-4.69.47-4.69,2.8,0,3.83,9.06,8.54,16.24,8.54,5.5,0,6.89-2.49,6.89-4.45,0-1.55-1.34-3.3-3.75-4.35"/><path d="M779.11,344.89h4.38a2.94,2.94,0,0,1,3,2.91,2.75,2.75,0,0,1-1.63,2.49l1.91,3.38h-2.41l-1.64-3.08h-1.47v3.08h-2.16Zm2.16,1.84v2.08h2a1.05,1.05,0,0,0,1.09-1,1.08,1.08,0,0,0-1.09-1.07Z"/><path d="M790.33,353.79a3.48,3.48,0,0,1-3.61-3.43,3.41,3.41,0,0,1,3.46-3.44,3.37,3.37,0,0,1,3.35,3.57v.56H788.8a1.71,1.71,0,0,0,1.63,1.05,1.82,1.82,0,0,0,1.33-.5l1.34,1.19A4,4,0,0,1,790.33,353.79Zm-1.54-4.16h2.76a1.48,1.48,0,0,0-1.39-1A1.38,1.38,0,0,0,788.79,349.63Z"/><path d="M799.12,353.18a3.07,3.07,0,0,1-1.79.59,3.42,3.42,0,1,1,1.76-6.39v-2.49l2-.63v9.41h-2ZM797.66,352a2,2,0,0,0,1.43-.53v-2.32a2.13,2.13,0,0,0-1.43-.52,1.69,1.69,0,1,0,0,3.37Z"/><path d="M809.75,350.23h-3.36v3.44h-2.16v-8.78h2.16v3.37h3.36v-3.37h2.16v8.78h-2.16Z"/><path d="M816.9,353.27a3,3,0,0,1-1.78.51,2.23,2.23,0,0,1-2.47-2.12c0-1.17.94-2,2.58-2a3.57,3.57,0,0,1,1.67.37v-.4c0-.64-.43-1-1.26-1a5.06,5.06,0,0,0-2,.48l-.6-1.52a6.93,6.93,0,0,1,2.73-.67c2,0,3.15.89,3.15,2.5v4.26h-2Zm-1.24-.91a2.31,2.31,0,0,0,1.24-.34v-.69a2.7,2.7,0,0,0-1.31-.35c-.62,0-1,.27-1,.68S815,352.36,815.66,352.36Z"/><path d="M822.89,353.77c-1.39,0-2.17-.67-2.17-2v-3h-1.4V347h1.4v-1.52l2-.62V347h1.85v1.69h-1.85v2.54c0,.56.3.78.91.78a2.27,2.27,0,0,0,.89-.2l-.27,1.64A3.68,3.68,0,0,1,822.89,353.77Z"/><path d="M318.62,348.11a2,2,0,0,1,0,.42c0,1.8-2.2,2.12-3.72,2.12-5.91,0-10.32-3.67-10.32-4.79a1,1,0,0,1,0-.24l-.44,1.1a2.17,2.17,0,0,0-.18.89c0,2.2,5,5.53,10.65,5.53,2.52,0,4.43-.95,4.43-2.65a6.12,6.12,0,0,0-.21-1.23Z"/><path class="a225a9a6-1db3-46b0-a7d1-29a5823248bc" d="M314.94,350.65c1.52,0,3.72-.32,3.72-2.12a2,2,0,0,0,0-.42l-.91-3.93c-.21-.86-.39-1.26-1.91-2a17.76,17.76,0,0,0-4.5-1.59c-.71,0-.92.91-1.76.91s-1.41-.68-2.17-.68-1.21.5-1.57,1.52c0,0-1,2.88-1.16,3.3a1,1,0,0,0,0,.24c0,1.12,4.41,4.79,10.32,4.79m3.95-1.39a6.12,6.12,0,0,1,.21,1.23c0,1.7-1.91,2.65-4.43,2.65-5.68,0-10.65-3.33-10.65-5.53a2.17,2.17,0,0,1,.18-.89c-2,.11-4.69.47-4.69,2.8,0,3.83,9.06,8.54,16.24,8.54,5.5,0,6.89-2.49,6.89-4.45,0-1.55-1.34-3.3-3.75-4.35"/><path class="b4c6e4bf-04bb-4536-bedd-10330ca88cd1" d="M325.11,344.89h4.38a2.94,2.94,0,0,1,3,2.91,2.75,2.75,0,0,1-1.63,2.49l1.91,3.38h-2.41l-1.64-3.08h-1.47v3.08h-2.16Zm2.16,1.84v2.08h2a1.05,1.05,0,0,0,1.09-1,1.08,1.08,0,0,0-1.09-1.07Z"/><path class="b4c6e4bf-04bb-4536-bedd-10330ca88cd1" d="M336.33,353.79a3.48,3.48,0,0,1-3.61-3.43,3.41,3.41,0,0,1,3.46-3.44,3.37,3.37,0,0,1,3.35,3.57v.56H334.8a1.71,1.71,0,0,0,1.63,1.05,1.82,1.82,0,0,0,1.33-.5l1.34,1.19A4,4,0,0,1,336.33,353.79Zm-1.54-4.16h2.76a1.48,1.48,0,0,0-1.39-1A1.38,1.38,0,0,0,334.79,349.63Z"/><path class="b4c6e4bf-04bb-4536-bedd-10330ca88cd1" d="M345.12,353.18a3.07,3.07,0,0,1-1.79.59,3.42,3.42,0,1,1,1.76-6.39v-2.49l2-.63v9.41h-2ZM343.66,352a2,2,0,0,0,1.43-.53v-2.32a2.13,2.13,0,0,0-1.43-.52,1.69,1.69,0,1,0,0,3.37Z"/><path class="b4c6e4bf-04bb-4536-bedd-10330ca88cd1" d="M355.75,350.23h-3.36v3.44h-2.16v-8.78h2.16v3.37h3.36v-3.37h2.16v8.78h-2.16Z"/><path class="b4c6e4bf-04bb-4536-bedd-10330ca88cd1" d="M362.9,353.27a3,3,0,0,1-1.78.51,2.23,2.23,0,0,1-2.47-2.12c0-1.17.94-2,2.58-2a3.57,3.57,0,0,1,1.67.37v-.4c0-.64-.43-1-1.26-1a5.06,5.06,0,0,0-2,.48l-.6-1.52a6.93,6.93,0,0,1,2.73-.67c2,0,3.15.89,3.15,2.5v4.26h-2Zm-1.24-.91a2.31,2.31,0,0,0,1.24-.34v-.69a2.7,2.7,0,0,0-1.31-.35c-.62,0-1,.27-1,.68S361,352.36,361.66,352.36Z"/><path class="b4c6e4bf-04bb-4536-bedd-10330ca88cd1" d="M368.89,353.77c-1.39,0-2.17-.67-2.17-2v-3h-1.4V347h1.4v-1.52l2-.62V347h1.85v1.69h-1.85v2.54c0,.56.3.78.91.78a2.27,2.27,0,0,0,.89-.2l-.27,1.64A3.68,3.68,0,0,1,368.89,353.77Z"/><g id="e8adee92-fb76-4d2b-8a11-c1bca1b9b93f" data-name="Group 36006"><g id="f2b71337-68b3-4b50-8e72-19f5af104312" data-name="Group 36005"><path id="fcc61239-cc48-4d21-976b-3b2487e9464d" data-name="Path 7034" class="aa4ac61a-99e3-43ce-9c47-9ed16b83424d" d="M603.43,90l-.17,60a60,60,0,0,0,52-29.86,57.35,57.35,0,0,0,8.12-30,57.26,57.26,0,0,0-8-30Z"/><path id="a924e674-5a2c-445a-a7a7-637af9edab01" data-name="Path 7035" class="e098bd88-e174-4ba7-96c1-ad1fa4dac22f" d="M603.42,90l52-29.85a57.21,57.21,0,0,0-21.9-22Z"/><path id="f3748597-0627-4cc3-90e1-953229402b89" data-name="Path 7036" class="fe15caeb-16e6-4edb-945f-47d24189322b" d="M603.42,90l30.14-51.87a57.16,57.16,0,0,0-30-8.12Z"/><path id="b74106e5-6931-4cdf-a414-e63ffffaaac5" data-name="Path 7037" class="a225a9a6-1db3-46b0-a7d1-29a5823248bc" d="M573.57,38a57.41,57.41,0,0,0-22,21.9L603.42,90l.17-60A57.36,57.36,0,0,0,573.57,38Z"/><g id="b2a7d4f2-3a8f-485d-89d1-2e1a6b12757c" data-name="Group 36004"><g id="ae404e38-5cc7-49ab-a04f-e44ba2b6a153" data-name="Group 36003"><path id="e95b401a-dbc1-42ae-b463-035d5b1199f8" data-name="Path 7038" class="acd09019-091f-43ee-8357-4ab8b698a024" d="M603.42,90l-60-.16a57.41,57.41,0,0,1,8.12-30Z"/></g></g><path id="bd65fbe2-739a-4b57-9b69-e9eb323e67cc" data-name="Path 7039" class="f1a2a97a-78cc-4a9a-9bd1-a40e1837de1b" d="M551.39,119.86A60,60,0,0,0,603.26,150l.16-60-60-.16A57.4,57.4,0,0,0,551.39,119.86Z"/></g><circle id="fd14a53d-1791-409e-96a7-8dfee338ddd8" data-name="Ellipse 224" class="b985c53d-c6eb-4941-a68a-764c7576bb23" cx="603.43" cy="90" r="30.05"/></g><g class="ec7c6697-879c-4404-88a0-7ce12bce5547"><path class="e098bd88-e174-4ba7-96c1-ad1fa4dac22f" d="M94.17,266.31c-2-7.16-.57-14.7,2.31-21.25,9.76-22.21,34-30.36,55.92-24.1,19.63,5.6,34.32,18.9,54.71,21.12,14.29,1.55,30.64-4.37,43.76,3.83a37.9,37.9,0,0,1,18,34.63c-.73,11-6.44,21-14.76,28.13s-18.47,12-26.82,19.4c-5.83,5.15-8.53,12.51-13.45,18.4a38.42,38.42,0,0,1-23.18,12.9,39,39,0,0,1-26.78-5.83c-7-4.49-12.73-11.47-21.06-13.53-6-1.49-12,.11-17.87,1.51a23.09,23.09,0,0,1-12.69-.95A29.48,29.48,0,0,1,94.46,323.3a21.63,21.63,0,0,1,.48-16.37c1.74-3.84,4-7.49,4.94-11.66,1.71-7.68-.21-15.51-3.26-22.6A49.74,49.74,0,0,1,94.17,266.31Z"/><circle class="b4c6e4bf-04bb-4536-bedd-10330ca88cd1" cx="196.42" cy="297.33" r="1.89"/><circle class="b4c6e4bf-04bb-4536-bedd-10330ca88cd1" cx="202.09" cy="297.33" r="1.89"/><rect class="f1a2a97a-78cc-4a9a-9bd1-a40e1837de1b" x="142.38" y="269.05" width="68.63" height="97.81"/><rect class="b4c6e4bf-04bb-4536-bedd-10330ca88cd1" x="149.46" y="269.05" width="68.63" height="97.81"/><path class="b4c6e4bf-04bb-4536-bedd-10330ca88cd1" d="M218.2,367H149.36V269H218.2Zm-68.63-.21H218v-97.6H149.57Z"/><rect class="b4c6e4bf-04bb-4536-bedd-10330ca88cd1" x="149.43" y="337.83" width="68.79" height="0.62"/><circle class="bd7e2d53-60db-41bb-ab38-02b2c130294f" cx="205.45" cy="327.29" r="1.19"/><path class="b4c6e4bf-04bb-4536-bedd-10330ca88cd1" d="M205.45,328.71a1.43,1.43,0,1,1,1.42-1.42A1.43,1.43,0,0,1,205.45,328.71Zm0-2.38a1,1,0,1,0,1,1A1,1,0,0,0,205.45,326.33Z"/><circle class="bd7e2d53-60db-41bb-ab38-02b2c130294f" cx="209.29" cy="327.29" r="1.19"/><path class="b4c6e4bf-04bb-4536-bedd-10330ca88cd1" d="M209.29,328.71a1.43,1.43,0,1,1,1.43-1.42A1.43,1.43,0,0,1,209.29,328.71Zm0-2.38a1,1,0,1,0,1,1A1,1,0,0,0,209.29,326.33Z"/><circle class="bd7e2d53-60db-41bb-ab38-02b2c130294f" cx="201.67" cy="327.29" r="1.19"/><path class="b4c6e4bf-04bb-4536-bedd-10330ca88cd1" d="M201.67,328.71a1.43,1.43,0,1,1,1.42-1.42A1.42,1.42,0,0,1,201.67,328.71Zm0-2.38a1,1,0,1,0,1,1A1,1,0,0,0,201.67,326.33Z"/><rect class="b4c6e4bf-04bb-4536-bedd-10330ca88cd1" x="149.51" y="315.04" width="66.41" height="0.62"/><rect class="b4c6e4bf-04bb-4536-bedd-10330ca88cd1" x="149.51" y="289.16" width="68.34" height="0.62"/></g><path class="f1a2a97a-78cc-4a9a-9bd1-a40e1837de1b" d="M180.43,272.05a26.73,26.73,0,0,0-7.94,1.19,36,36,0,0,0-29.51-19c-.74,0-1.49-.07-2.24-.07a36,36,0,0,0-33.56,23.06,24.42,24.42,0,0,0-21.7,14.95A17.21,17.21,0,1,0,81.2,326h99.23a27,27,0,1,0,0-54Z"/><path class="b4c6e4bf-04bb-4536-bedd-10330ca88cd1" d="M183.56,266.51a27,27,0,0,0-7.94,1.19,36,36,0,0,0-29.52-19c-.74,0-1.48-.07-2.24-.07a36,36,0,0,0-33.55,23.06,24.42,24.42,0,0,0-21.71,15,17.21,17.21,0,1,0-4.28,33.87h99.24a27,27,0,0,0,0-54Z"/><path class="e098bd88-e174-4ba7-96c1-ad1fa4dac22f" d="M183.56,320.81H84.32a17.52,17.52,0,1,1,4.1-34.56,24.83,24.83,0,0,1,21.67-14.9,36.28,36.28,0,0,1,33.77-23.06c.72,0,1.46,0,2.26.07a36.24,36.24,0,0,1,29.65,19,27.31,27.31,0,1,1,7.79,53.48ZM84.32,286.39a16.9,16.9,0,0,0,0,33.79h99.24A26.68,26.68,0,1,0,175.71,268a.32.32,0,0,1-.37-.15A35.63,35.63,0,0,0,146.09,249c-.79-.05-1.52-.08-2.23-.08a35.66,35.66,0,0,0-33.26,22.86.31.31,0,0,1-.28.2,24.17,24.17,0,0,0-21.43,14.77.32.32,0,0,1-.37.18A16.91,16.91,0,0,0,84.32,286.39Z"/><path class="f1a2a97a-78cc-4a9a-9bd1-a40e1837de1b" d="M183.56,320.49a27,27,0,1,0-7.94-52.79,36,36,0,0,0-29.52-19c-.74,0-1.48-.07-2.24-.07-.49,0-1,0-1.48,0v71.86h41.18Z"/><path class="f1a2a97a-78cc-4a9a-9bd1-a40e1837de1b" d="M183.56,320.81H84.32a17.52,17.52,0,1,1,4.1-34.56,24.83,24.83,0,0,1,21.67-14.9,36.28,36.28,0,0,1,33.77-23.06c.72,0,1.46,0,2.26.07a36.24,36.24,0,0,1,29.65,19,27.31,27.31,0,1,1,7.79,53.48ZM84.32,286.39a16.9,16.9,0,0,0,0,33.79h99.24A26.68,26.68,0,1,0,175.71,268a.32.32,0,0,1-.37-.15A35.63,35.63,0,0,0,146.09,249c-.79-.05-1.52-.08-2.23-.08a35.66,35.66,0,0,0-33.26,22.86.31.31,0,0,1-.28.2,24.17,24.17,0,0,0-21.43,14.77.32.32,0,0,1-.37.18A16.91,16.91,0,0,0,84.32,286.39Z"/><circle class="bd7e2d53-60db-41bb-ab38-02b2c130294f" cx="156.54" cy="345.15" r="1.76"/><path class="b4c6e4bf-04bb-4536-bedd-10330ca88cd1" d="M156.54,347.14a2,2,0,1,1,2-2A2,2,0,0,1,156.54,347.14Zm0-3.52a1.53,1.53,0,1,0,1.53,1.53A1.53,1.53,0,0,0,156.54,343.62Z"/><circle class="bd7e2d53-60db-41bb-ab38-02b2c130294f" cx="167.12" cy="345.15" r="1.76"/><path class="b4c6e4bf-04bb-4536-bedd-10330ca88cd1" d="M167.12,347.14a2,2,0,1,1,2-2A2,2,0,0,1,167.12,347.14Zm0-3.52a1.53,1.53,0,1,0,1.53,1.53A1.53,1.53,0,0,0,167.12,343.62Z"/><path class="bd7e2d53-60db-41bb-ab38-02b2c130294f" d="M253.11,312.48a.31.31,0,0,1-.31-.31V283.7a.32.32,0,0,1,.63,0v28.47A.31.31,0,0,1,253.11,312.48Z"/><path class="bd7e2d53-60db-41bb-ab38-02b2c130294f" d="M231.63,301.53a.31.31,0,0,1-.31-.31v-17.1a.31.31,0,0,1,.62,0v17.1A.31.31,0,0,1,231.63,301.53Z"/><path class="bd7e2d53-60db-41bb-ab38-02b2c130294f" d="M242.37,295.51a.31.31,0,0,1-.31-.32V275.28a.31.31,0,1,1,.62,0v19.91A.31.31,0,0,1,242.37,295.51Z"/><path class="bd7e2d53-60db-41bb-ab38-02b2c130294f" d="M242.37,314.83a.31.31,0,0,1-.31-.31V301.15a.31.31,0,0,1,.62,0v13.37A.31.31,0,0,1,242.37,314.83Z"/><polygon class="bd7e2d53-60db-41bb-ab38-02b2c130294f" points="139.29 263 139.29 286.76 118.72 298.63 98.15 286.76 98.15 263 118.72 251.13 139.29 263"/><g class="ac4067d2-8837-482f-8190-0a2882f8986a"><line class="bd7e2d53-60db-41bb-ab38-02b2c130294f" x1="98.15" y1="263" x2="118.74" y2="274.89"/><path class="b4c6e4bf-04bb-4536-bedd-10330ca88cd1" d="M118.74,275.3a.42.42,0,0,1-.21-.06L97.94,263.36a.42.42,0,0,1-.15-.56.41.41,0,0,1,.56-.15l20.59,11.89a.41.41,0,0,1-.2.76Z"/><path class="b4c6e4bf-04bb-4536-bedd-10330ca88cd1" d="M118.74,302.86a.41.41,0,0,1-.41-.41V274.89a.41.41,0,1,1,.81,0v27.56A.4.4,0,0,1,118.74,302.86Z"/><line class="bd7e2d53-60db-41bb-ab38-02b2c130294f" x1="139.29" y1="263" x2="118.74" y2="274.89"/><path class="b4c6e4bf-04bb-4536-bedd-10330ca88cd1" d="M118.74,275.3a.41.41,0,0,1-.21-.76l20.56-11.89a.4.4,0,0,1,.55.15.41.41,0,0,1-.14.56l-20.56,11.88A.36.36,0,0,1,118.74,275.3Z"/></g><g class="ac4067d2-8837-482f-8190-0a2882f8986a"><path class="f1a2a97a-78cc-4a9a-9bd1-a40e1837de1b" d="M102.06,244.39c-1.23,1.32-1.79,4-2.33,5.64a37.53,37.53,0,0,0-2.09,10.84c-.06,5.07,3.24,9.85,6.46,13.56s7.15,6.21,10,10a18.17,18.17,0,0,1,1.39,2.17,26.59,26.59,0,0,1,2.73,15.07c0,.25-.06,1.78-.47,1.8l-27.9,1L87.71,245S102.56,243.85,102.06,244.39Z"/></g><path class="bd7e2d53-60db-41bb-ab38-02b2c130294f" d="M118.08,320.17a.31.31,0,0,1-.31-.31v-14a.31.31,0,1,1,.62,0v14A.31.31,0,0,1,118.08,320.17Z"/><path class="bd7e2d53-60db-41bb-ab38-02b2c130294f" d="M109,336.35a.31.31,0,0,1-.32-.31V312.23a.32.32,0,0,1,.63,0V336A.31.31,0,0,1,109,336.35Z"/><path class="bd7e2d53-60db-41bb-ab38-02b2c130294f" d="M127.21,336a.31.31,0,0,1-.31-.31V315.33a.31.31,0,1,1,.62,0v20.36A.31.31,0,0,1,127.21,336Z"/><path class="bd7e2d53-60db-41bb-ab38-02b2c130294f" d="M118.08,349.57a.31.31,0,0,1-.31-.31V327.49a.31.31,0,0,1,.62,0v21.77A.31.31,0,0,1,118.08,349.57Z"/><polygon class="bd7e2d53-60db-41bb-ab38-02b2c130294f" points="250.89 234.49 250.89 258.25 230.32 270.13 209.75 258.25 209.75 234.49 230.32 222.62 250.89 234.49"/><g class="a22a485a-adf5-4340-a8b4-d8ff90d8da0e"><line class="bd7e2d53-60db-41bb-ab38-02b2c130294f" x1="209.75" y1="234.49" x2="230.34" y2="246.38"/><path class="b4c6e4bf-04bb-4536-bedd-10330ca88cd1" d="M230.34,246.79a.42.42,0,0,1-.21-.06l-20.59-11.88a.42.42,0,0,1-.15-.56.41.41,0,0,1,.56-.15L230.54,246a.42.42,0,0,1,.15.56A.41.41,0,0,1,230.34,246.79Z"/><path class="b4c6e4bf-04bb-4536-bedd-10330ca88cd1" d="M230.34,274.35a.41.41,0,0,1-.41-.41V246.38a.41.41,0,1,1,.81,0v27.56A.4.4,0,0,1,230.34,274.35Z"/><line class="bd7e2d53-60db-41bb-ab38-02b2c130294f" x1="250.89" y1="234.49" x2="230.34" y2="246.38"/><path class="b4c6e4bf-04bb-4536-bedd-10330ca88cd1" d="M230.34,246.79a.41.41,0,0,1-.36-.2.42.42,0,0,1,.15-.56l20.56-11.89a.4.4,0,0,1,.55.15.4.4,0,0,1-.15.56l-20.55,11.88A.36.36,0,0,1,230.34,246.79Z"/></g><g class="a22a485a-adf5-4340-a8b4-d8ff90d8da0e"><path class="f1a2a97a-78cc-4a9a-9bd1-a40e1837de1b" d="M213.66,215.88c-1.23,1.33-1.79,4-2.33,5.64a37.53,37.53,0,0,0-2.09,10.84c-.06,5.07,3.24,9.85,6.46,13.57,3.1,3.56,7.15,6.2,10,10a18.17,18.17,0,0,1,1.39,2.17,26.59,26.59,0,0,1,2.73,15.07c0,.25-.06,1.78-.47,1.8l-27.9,1-2.13-59.49S214.16,215.34,213.66,215.88Z"/></g><rect class="f1a2a97a-78cc-4a9a-9bd1-a40e1837de1b" x="142.38" y="218.71" width="68.63" height="103.67"/><polygon class="b4c6e4bf-04bb-4536-bedd-10330ca88cd1" points="149.34 328.41 149.46 218.5 218.09 218.5 218.09 328.53 149.34 328.41"/><rect class="b4c6e4bf-04bb-4536-bedd-10330ca88cd1" x="149.43" y="262.28" width="68.74" height="0.62"/><rect class="bd7e2d53-60db-41bb-ab38-02b2c130294f" x="167.31" y="250.47" width="35.37" height="2.33"/><path class="b4c6e4bf-04bb-4536-bedd-10330ca88cd1" d="M202.92,253H167.08v-2.79h35.84Zm-35.37-.46h34.9V250.7h-34.9Z"/><rect class="bd7e2d53-60db-41bb-ab38-02b2c130294f" x="154.51" y="272.06" width="22.01" height="2.33"/><path class="b4c6e4bf-04bb-4536-bedd-10330ca88cd1" d="M176.75,274.62H154.28v-2.79h22.47Zm-22-.46h21.55v-1.87H154.74Z"/><rect class="bd7e2d53-60db-41bb-ab38-02b2c130294f" x="154.51" y="279.67" width="22.01" height="2.33"/><path class="b4c6e4bf-04bb-4536-bedd-10330ca88cd1" d="M176.75,282.23H154.28v-2.79h22.47Zm-22-.46h21.55v-1.86H154.74Z"/><circle class="bd7e2d53-60db-41bb-ab38-02b2c130294f" cx="211.86" cy="251.64" r="1.76"/><path class="b4c6e4bf-04bb-4536-bedd-10330ca88cd1" d="M211.86,253.63a2,2,0,1,1,2-2A2,2,0,0,1,211.86,253.63Zm0-3.52a1.53,1.53,0,1,0,1.53,1.53A1.53,1.53,0,0,0,211.86,250.11Z"/><circle class="bd7e2d53-60db-41bb-ab38-02b2c130294f" cx="186.81" cy="277.07" r="1.76"/><path class="b4c6e4bf-04bb-4536-bedd-10330ca88cd1" d="M186.81,279.07a2,2,0,1,1,2-2A2,2,0,0,1,186.81,279.07Zm0-3.53a1.53,1.53,0,1,0,1.53,1.53A1.54,1.54,0,0,0,186.81,275.54Z"/><circle class="bd7e2d53-60db-41bb-ab38-02b2c130294f" cx="197.39" cy="277.07" r="1.76"/><path class="b4c6e4bf-04bb-4536-bedd-10330ca88cd1" d="M197.39,279.07a2,2,0,1,1,2-2A2,2,0,0,1,197.39,279.07Zm0-3.53a1.53,1.53,0,1,0,1.53,1.53A1.54,1.54,0,0,0,197.39,275.54Z"/><circle class="bd7e2d53-60db-41bb-ab38-02b2c130294f" cx="207.85" cy="277.07" r="1.76"/><path class="b4c6e4bf-04bb-4536-bedd-10330ca88cd1" d="M207.85,279.07a2,2,0,1,1,2-2A2,2,0,0,1,207.85,279.07Zm0-3.53a1.53,1.53,0,1,0,1.53,1.53A1.54,1.54,0,0,0,207.85,275.54Z"/><circle class="bd7e2d53-60db-41bb-ab38-02b2c130294f" cx="157.51" cy="251.64" r="1.76"/><path class="b4c6e4bf-04bb-4536-bedd-10330ca88cd1" d="M157.51,253.63a2,2,0,1,1,2-2A2,2,0,0,1,157.51,253.63Zm0-3.52a1.53,1.53,0,1,0,1.53,1.53A1.53,1.53,0,0,0,157.51,250.11Z"/><rect class="b4c6e4bf-04bb-4536-bedd-10330ca88cd1" x="153.49" y="224.01" width="60.27" height="12.49"/><path class="a225a9a6-1db3-46b0-a7d1-29a5823248bc" d="M213.3,224.48V236H154V224.48H213.3m.47-.47H153.49V236.5h60.28V224Z"/><circle class="bd7e2d53-60db-41bb-ab38-02b2c130294f" cx="205.45" cy="230.25" r="1.19"/><path class="b4c6e4bf-04bb-4536-bedd-10330ca88cd1" d="M205.45,231.68a1.43,1.43,0,1,1,1.42-1.43A1.43,1.43,0,0,1,205.45,231.68Zm0-2.38a1,1,0,1,0,1,.95A1,1,0,0,0,205.45,229.3Z"/><circle class="bd7e2d53-60db-41bb-ab38-02b2c130294f" cx="201.67" cy="230.25" r="1.19"/><path class="b4c6e4bf-04bb-4536-bedd-10330ca88cd1" d="M201.67,231.68a1.43,1.43,0,1,1,1.42-1.43A1.42,1.42,0,0,1,201.67,231.68Zm0-2.38a1,1,0,1,0,1,.95A1,1,0,0,0,201.67,229.3Z"/><circle class="bd7e2d53-60db-41bb-ab38-02b2c130294f" cx="209.47" cy="230.25" r="1.19"/><path class="b4c6e4bf-04bb-4536-bedd-10330ca88cd1" d="M209.47,231.68a1.43,1.43,0,1,1,1.42-1.43A1.43,1.43,0,0,1,209.47,231.68Zm0-2.38a1,1,0,1,0,.95.95A1,1,0,0,0,209.47,229.3Z"/><rect class="a225a9a6-1db3-46b0-a7d1-29a5823248bc" x="158.17" y="230.02" width="38.19" height="0.47"/><circle class="bd7e2d53-60db-41bb-ab38-02b2c130294f" cx="160.81" cy="301.77" r="1.76"/><path class="b4c6e4bf-04bb-4536-bedd-10330ca88cd1" d="M160.81,303.77a2,2,0,1,1,2-2A2,2,0,0,1,160.81,303.77Zm0-3.53a1.53,1.53,0,1,0,1.53,1.53A1.54,1.54,0,0,0,160.81,300.24Z"/><circle class="bd7e2d53-60db-41bb-ab38-02b2c130294f" cx="171.39" cy="301.77" r="1.76"/><path class="b4c6e4bf-04bb-4536-bedd-10330ca88cd1" d="M171.39,303.77a2,2,0,1,1,2-2A2,2,0,0,1,171.39,303.77Zm0-3.53a1.53,1.53,0,1,0,1.53,1.53A1.54,1.54,0,0,0,171.39,300.24Z"/><rect class="b4c6e4bf-04bb-4536-bedd-10330ca88cd1" x="179.34" y="294.18" width="32.81" height="14.96"/><path class="a225a9a6-1db3-46b0-a7d1-29a5823248bc" d="M211.52,294.8v13.71H180V294.8h31.56m.62-.62h-32.8v14.95h32.8V294.18Z"/><rect class="a225a9a6-1db3-46b0-a7d1-29a5823248bc" x="186" y="301.34" width="19.65" height="0.62"/><rect class="b4c6e4bf-04bb-4536-bedd-10330ca88cd1" x="153.49" y="321.04" width="60.27" height="12.49"/><path class="a225a9a6-1db3-46b0-a7d1-29a5823248bc" d="M213.14,321.67v11.24h-59V321.67h59m.63-.63H153.49v12.49h60.28V321Z"/><rect class="a225a9a6-1db3-46b0-a7d1-29a5823248bc" x="158.17" y="326.97" width="38.19" height="0.62"/><path class="f1a2a97a-78cc-4a9a-9bd1-a40e1837de1b" d="M271.38,335a13.44,13.44,0,0,0-3.43.44,19.61,19.61,0,0,0-17.43-12,28.83,28.83,0,0,0-46.29-11.05l-.49.45a29,29,0,0,0-2.28,2.43l-.52.63-.72.95c-.26.36-.51.73-.76,1.1-.49.75-1,1.52-1.37,2.31A21.67,21.67,0,0,0,179.6,323l-.43.3a22,22,0,0,0-5.71,6,21.57,21.57,0,0,0-3.41,11.68c0,.27,0,.54,0,.8,0,.09,0,.18,0,.26s0,.36,0,.53,0,.21,0,.32,0,.31.05.47,0,.22,0,.33l.06.45c0,.11,0,.22.05.33s0,.29.07.43,0,.23.07.34.05.28.09.42a3.38,3.38,0,0,0,.08.34l.09.41c0,.11.07.22.1.33s.07.28.11.41.07.22.1.33l.13.4c0,.11.08.21.11.32s.1.26.14.39.09.22.13.32l.15.39c.05.1.09.21.14.31s.11.26.17.38.09.2.14.31l.18.37c0,.1.1.2.16.3s.12.25.19.37l.16.29.21.36.17.28c.08.12.15.24.22.36l.18.27.24.35.18.27c.09.11.17.23.25.34s.13.17.2.26l.25.33.21.25.27.33.21.24.28.32.22.23.29.31.23.22.3.3.24.22.31.29.24.21.33.27.24.21.34.26.25.19.34.26.26.18.36.25.26.17c.12.08.24.16.37.23l.27.17.37.22.28.15.38.21.28.15.26.13.15.07.07,0h0a21.61,21.61,0,0,0,9.37,2.12h79.66a13.82,13.82,0,1,0,0-27.63Z"/><path class="b4c6e4bf-04bb-4536-bedd-10330ca88cd1" d="M194,315.73a21.7,21.7,0,0,1,6.38,1,28.86,28.86,0,0,1,52.43,3.18,19.61,19.61,0,0,1,17.42,12,13.81,13.81,0,1,1,3.44,27.19H194a21.67,21.67,0,0,1,0-43.34Z"/><path class="f1a2a97a-78cc-4a9a-9bd1-a40e1837de1b" d="M273.64,359.39H194a22,22,0,0,1,0-44,21.71,21.71,0,0,1,6.22.9,29.17,29.17,0,0,1,52.8,3.24,20,20,0,0,1,17.39,11.95,14.31,14.31,0,0,1,3.26-.38,14.13,14.13,0,0,1,0,28.26ZM194,316.05a21.36,21.36,0,1,0,0,42.71h79.67a13.5,13.5,0,1,0-3.36-26.58.32.32,0,0,1-.37-.18,19.35,19.35,0,0,0-17.14-11.82.31.31,0,0,1-.29-.2,28.54,28.54,0,0,0-51.86-3.14.32.32,0,0,1-.37.15A21.14,21.14,0,0,0,194,316.05Z"/><path class="f1a2a97a-78cc-4a9a-9bd1-a40e1837de1b" d="M230.15,332.45a4.75,4.75,0,1,0-6.89,4.23v4.7a2.15,2.15,0,1,0,4.29,0v-4.7A4.74,4.74,0,0,0,230.15,332.45Z"/></g></g></svg>