<svg xmlns="http://www.w3.org/2000/svg" width="652" height="395" viewBox="0 0 652 395"><defs><style>.a{fill:#e00;}</style></defs><path d="M51.3672,266.7651h2.4463a2.3468,2.3468,0,0,1,2.6025,2.35,2.2449,2.2449,0,0,1-1.81,2.2671l1.9072,3.7779h-.6963l-1.8584-3.6939H51.9912v3.6939h-.624Zm.624.5634v3.5742h1.7871a1.8,1.8,0,1,0,0-3.5742Z"/><path d="M58.0635,272.2821a2.8306,2.8306,0,0,1,2.7588-2.9863,2.7844,2.7844,0,0,1,2.7588,2.8662v.2281h-4.918a2.3644,2.3644,0,0,0,2.291,2.3388,2.4154,2.4154,0,0,0,1.835-.792l.42.3838a3.0843,3.0843,0,0,1-2.2793.9595A2.92,2.92,0,0,1,58.0635,272.2821Zm.624-.3837h4.2812a2.1426,2.1426,0,0,0-4.2812,0Z"/><path d="M69.8086,274.393a2.4386,2.4386,0,0,1-1.9307.8633,2.9773,2.9773,0,0,1-.0244-5.9366,2.4306,2.4306,0,0,1,1.9551.8995v-3.754l.6-.144v8.8394h-.6Zm-1.835.3115a2.2248,2.2248,0,0,0,1.835-.8872v-3.01a2.1409,2.1409,0,0,0-1.835-.9355,2.4223,2.4223,0,0,0,0,4.833Z"/><path d="M79.7471,266.7651h.624v3.8857h4.0537v-3.8857h.624v8.3955h-.624v-3.9458H80.3711v3.9458h-.624Z"/><path d="M86.9707,273.5053c0-1.0195.9111-1.7271,2.2188-1.7271a3.3481,3.3481,0,0,1,1.955.5157V271.55a1.5266,1.5266,0,0,0-1.667-1.751,3.4613,3.4613,0,0,0-1.9189.6l-.2647-.4795a4.3768,4.3768,0,0,1,2.2071-.6235,1.9819,1.9819,0,0,1,2.23,2.1465v3.7183h-.5869v-.72a2.675,2.675,0,0,1-1.9795.8394C87.87,275.28,86.9707,274.5487,86.9707,273.5053Zm2.2666,1.2715a2.5106,2.5106,0,0,0,1.9072-.7915v-1.2a3.2286,3.2286,0,0,0-1.8955-.5035c-1.0068,0-1.69.4917-1.69,1.1993C87.5586,274.2611,88.2422,274.7768,89.2373,274.7768Z"/><path d="M95.8262,269.9071H93.7744v-.5156h2.0518v-1.5708l.6-.1562v1.727H99.22v.5156H96.4258v3.79c0,.72.4433,1.0317,1.1865,1.0317a4.2809,4.2809,0,0,0,1.6074-.3481v.5757a4,4,0,0,1-1.5234.3237c-1.2109,0-1.87-.5274-1.87-1.5108Z"/><path d="M108.9541,267.4369v7.7237h-.5879v-8.3955h.8633l1.9668,4.3535,1.9668-4.3535h.8642v8.3955H113.44v-7.7359l-2.2549,5.085Z"/><path d="M118.3965,269.2958a3.0022,3.0022,0,1,1-2.7578,2.9863A2.8306,2.8306,0,0,1,118.3965,269.2958Zm0,.5518a2.459,2.459,0,1,0,2.1592,2.4345A2.2529,2.2529,0,0,0,118.3965,269.8476Z"/><path d="M123.3066,269.3915h.6v.9356a2.1276,2.1276,0,0,1,1.8711-1.0313,2.0458,2.0458,0,0,1,2.1465,2.1709v3.6939h-.6v-3.5142a1.6493,1.6493,0,0,0-1.7148-1.8232,1.8807,1.8807,0,0,0-1.7032,1.0195v4.3179h-.6Z"/><path d="M132.7969,269.2958a3.0022,3.0022,0,1,1-2.7578,2.9863A2.8306,2.8306,0,0,1,132.7969,269.2958Zm0,.5518a2.459,2.459,0,1,0,2.1592,2.4345A2.2529,2.2529,0,0,0,132.7969,269.8476Z"/><path d="M144.9424,266.7651h.623v7.8315h4.4492v.564h-5.0722Z"/><path d="M153.9893,269.9071h-2.1709v-.5156h2.77v4.3179c0,.6836.4072,1.0312,1.14,1.0312a3.7846,3.7846,0,0,0,1.127-.18v.54a3.7725,3.7725,0,0,1-1.127.18c-1.0918,0-1.7392-.5635-1.7392-1.5469Zm-.336-2.6264a.6418.6418,0,1,1,1.2832,0,.6416.6416,0,0,1-1.2832,0Z"/><path d="M158.7178,272.2821a2.8127,2.8127,0,0,1,2.7343-2.9624,2.43,2.43,0,0,1,1.9551.8995v-.8277h.6v6.2368a2.0236,2.0236,0,0,1-2.3144,2.1587,4.3847,4.3847,0,0,1-2.207-.6235l.3115-.48a3.8659,3.8659,0,0,0,1.8711.5518c1.14,0,1.7392-.54,1.7392-1.583V274.393a2.4385,2.4385,0,0,1-1.9306.8633A2.8271,2.8271,0,0,1,158.7178,272.2821Zm2.8545,2.4224a2.2247,2.2247,0,0,0,1.8349-.8872v-3.01a2.1407,2.1407,0,0,0-1.8349-.9355,2.4223,2.4223,0,0,0,0,4.833Z"/><path d="M166.5059,266.5854l.6-.1441v3.8858a2.1274,2.1274,0,0,1,1.8711-1.0313,2.0457,2.0457,0,0,1,2.1464,2.1709v3.6939h-.6v-3.5142a1.6493,1.6493,0,0,0-1.7148-1.8232,1.8805,1.8805,0,0,0-1.7031,1.0195v4.3179h-.6Z"/><path d="M175.0254,269.9071h-2.0518v-.5156h2.0518v-1.5708l.6-.1562v1.727h2.7939v.5156H175.625v3.79c0,.72.4434,1.0317,1.1865,1.0317a4.28,4.28,0,0,0,1.6074-.3481v.5757a4,4,0,0,1-1.5234.3237c-1.2109,0-1.87-.5274-1.87-1.5108Z"/><path d="M52.543,290.0126h2.1709a2.0164,2.0164,0,0,1,2.2666,2.0513,2.5855,2.5855,0,0,1-2.2793,2.6025L55.9,298.4081h-.6231L54.09,294.7143H52.1592l-.792,3.6938h-.6113Zm.4912.564-.7559,3.5742H54.126a2.0738,2.0738,0,0,0,2.2422-2.063c0-.9355-.6592-1.5112-1.7266-1.5112Z"/><path d="M58.1,295.83a3.16,3.16,0,0,1,2.9746-3.2861,2.3993,2.3993,0,0,1,2.4229,2.5307,4.6408,4.6408,0,0,1-.0244.5635H58.6992a1.1948,1.1948,0,0,0-.0117.2041,2.0729,2.0729,0,0,0,2.0264,2.1348,2.9132,2.9132,0,0,0,1.8349-.6958l.3242.4677a3.3867,3.3867,0,0,1-2.1347.78A2.5741,2.5741,0,0,1,58.1,295.83Zm.66-.6836H62.873a1.8369,1.8369,0,0,0-1.8349-2.0508A2.4485,2.4485,0,0,0,58.76,295.1459Z"/><path d="M69.3047,297.7968a2.3357,2.3357,0,0,1-1.7149.7075,2.4474,2.4474,0,0,1-2.4228-2.6509,3.1759,3.1759,0,0,1,3.0342-3.2861,2.4274,2.4274,0,0,1,1.9912,1.0078l.8037-3.8623.6113-.1435-1.8467,8.8388h-.5878Zm-1.5235.1558a2.1961,2.1961,0,0,0,1.6436-.6958l.6357-3.0821a2.108,2.108,0,0,0-1.8232-1.0556,2.5644,2.5644,0,0,0-2.4824,2.6748A1.9824,1.9824,0,0,0,67.7812,297.9526Z"/><path d="M80.9229,290.0126h.6113l-.8272,3.8862h4.0772l.8281-3.8862h.6113l-1.7871,8.3955h-.6113l.84-3.9458H80.5869l-.84,3.9458h-.6114Z"/><path d="M86.7666,296.8852c0-1.0913.9473-1.8711,2.3145-1.8589a3.0645,3.0645,0,0,1,2.0507.6352l.1807-.8271c.2637-1.1758-.2158-1.7871-1.3555-1.7871a4.1879,4.1879,0,0,0-1.8466.5395l-.2042-.5039a4.629,4.629,0,0,1,2.0987-.5395c1.4629,0,2.207.84,1.9072,2.1948l-.8281,3.67h-.5752l.1318-.6a2.8062,2.8062,0,0,1-1.8467.72C87.6064,298.5282,86.7666,297.8686,86.7666,296.8852Zm2.1113,1.1391a2.7241,2.7241,0,0,0,1.8828-.7436l.2637-1.1392a2.8275,2.8275,0,0,0-1.9072-.6118c-1.043,0-1.7744.5518-1.7744,1.3193C87.3428,297.5688,87.918,298.0243,88.8779,298.0243Z"/><path d="M96.3652,293.1552H94.3027l.1075-.5156h2.0634l.336-1.5713.623-.1558-.3711,1.7271h2.7822l-.1083.5156H96.9531l-.792,3.6938c-.167.8037.2041,1.1275,1.0918,1.1275a4.0456,4.0456,0,0,0,1.5235-.336l-.1319.5879a3.8341,3.8341,0,0,1-1.4511.3c-1.2715,0-1.8594-.5639-1.6436-1.583Z"/><path d="M109.9971,290.6127l-1.6553,7.7954h-.5869l1.7871-8.3955h.8389l1.0556,4.3418,2.8789-4.3418h.8867l-1.7871,8.3955h-.5869l1.6426-7.7114-3.2978,5.061Z"/><path d="M118.8047,292.5434a2.3283,2.3283,0,0,1,2.3027,2.5307,3.3277,3.3277,0,0,1-3.1181,3.4541,2.3278,2.3278,0,0,1-2.3028-2.5307A3.3278,3.3278,0,0,1,118.8047,292.5434Zm-.0244.5517a2.7311,2.7311,0,0,0-2.5059,2.8907,1.7828,1.7828,0,0,0,1.7383,1.9907,2.7318,2.7318,0,0,0,2.5068-2.8906A1.783,1.783,0,0,0,118.78,293.0951Z"/><path d="M123.9424,292.64h.5869l-.168.7915a2.3472,2.3472,0,0,1,1.8955-.8877,1.8024,1.8024,0,0,1,1.7627,2.4345l-.7314,3.43H126.7l.7314-3.394c.252-1.1753-.3-1.9429-1.3066-1.9429a2.2428,2.2428,0,0,0-1.8828.9356l-.9483,4.4013h-.5869Z"/><path d="M133.2051,292.5434a2.3283,2.3283,0,0,1,2.3027,2.5307,3.3277,3.3277,0,0,1-3.1182,3.4541,2.3278,2.3278,0,0,1-2.3027-2.5307A3.3278,3.3278,0,0,1,133.2051,292.5434Zm-.0244.5517a2.7311,2.7311,0,0,0-2.5059,2.8907,1.7828,1.7828,0,0,0,1.7383,1.9907,2.7318,2.7318,0,0,0,2.5068-2.8906A1.783,1.783,0,0,0,133.1807,293.0951Z"/><path d="M146.1172,290.0126h.6113l-1.667,7.832h4.4737l-.12.5635H144.33Z"/><path d="M154.5166,293.1552h-2.1943l.1074-.5156h2.7822l-.9111,4.2094c-.1914.8755.2275,1.1636,1.0439,1.1636a2.86,2.86,0,0,0,1.0313-.2041l-.12.54a2.7821,2.7821,0,0,1-1.0079.18c-1.163,0-1.7744-.5639-1.5351-1.7031Zm.1445-2.6026a.695.695,0,0,1,.6836-.66.61.61,0,0,1,.6.6.69.69,0,0,1-.6963.66A.5762.5762,0,0,1,154.6611,290.5526Z"/><path d="M158.7656,295.8534a3.1759,3.1759,0,0,1,3.0342-3.2861,2.3923,2.3923,0,0,1,1.9912,1.0195l.2041-.9472h.5869l-1.3545,6.476a2.18,2.18,0,0,1-2.2314,1.919,4.0954,4.0954,0,0,1-2.4707-.8394l.3721-.4795a3.3,3.3,0,0,0,2.0625.7554,1.7289,1.7289,0,0,0,1.7031-1.499l.2519-1.1875a2.319,2.319,0,0,1-1.7148.72A2.45,2.45,0,0,1,158.7656,295.8534Zm2.627,2.0992a2.1985,2.1985,0,0,0,1.6426-.7076l.6357-3.0586a2.1134,2.1134,0,0,0-1.835-1.0673,2.5644,2.5644,0,0,0-2.4824,2.6748A1.9852,1.9852,0,0,0,161.3926,297.9526Z"/><path d="M167.7646,289.7128l.6124-.1435-.8038,3.85a2.3615,2.3615,0,0,1,1.8829-.8755,1.8023,1.8023,0,0,1,1.7626,2.4345l-.7314,3.43h-.5879l.7315-3.394c.2519-1.1753-.3-1.9551-1.3067-1.9551a2.2582,2.2582,0,0,0-1.8711.9238l-.9238,4.4253h-.5879Z"/><path d="M175.5645,293.1552H173.502l.1074-.5156h2.0635l.3359-1.5713.623-.1558-.3711,1.7271h2.7823l-.1084.5156h-2.7823l-.7919,3.6938c-.167.8037.2041,1.1275,1.0917,1.1275a4.0452,4.0452,0,0,0,1.5235-.336l-.1319.5879a3.8341,3.8341,0,0,1-1.4511.3c-1.2715,0-1.8594-.5639-1.6436-1.583Z"/><path d="M189.041,290.0126h5.0606l-.12.564h-2.23l-1.5469,7.268h2.23l-.12.5635h-5.0606l.12-.5635h2.2188l1.5468-7.268h-2.2187Z"/><path d="M197.1641,293.1552h-2.0625l.1074-.5156h2.0635l.3359-1.5713.623-.1558-.371,1.7271h2.7822l-.1084.5156H197.752l-.792,3.6938c-.167.8037.2041,1.1275,1.0918,1.1275a4.0451,4.0451,0,0,0,1.5234-.336l-.1318.5879a3.835,3.835,0,0,1-1.4512.3c-1.2715,0-1.8594-.5639-1.6436-1.583Z"/><path d="M201.9648,296.8852c0-1.0913.9473-1.8711,2.3145-1.8589a3.065,3.065,0,0,1,2.0508.6352l.1806-.8271c.2637-1.1758-.2158-1.7871-1.3554-1.7871a4.1951,4.1951,0,0,0-1.8477.5395l-.2031-.5039a4.6286,4.6286,0,0,1,2.0986-.5395c1.4629,0,2.2071.84,1.9073,2.1948l-.8282,3.67h-.5752l.1319-.6a2.8064,2.8064,0,0,1-1.8467.72C202.8047,298.5282,201.9648,297.8686,201.9648,296.8852Zm2.11,1.1391a2.7248,2.7248,0,0,0,1.8838-.7436l.2637-1.1392a2.8278,2.8278,0,0,0-1.9073-.6118c-1.0429,0-1.7754.5518-1.7754,1.3193C202.54,297.5688,203.1162,298.0243,204.0752,298.0243Z"/><path d="M211.0957,296.8251l1.3916-6.6206H210.292l.1084-.5156h2.7822l-1.499,7.16c-.18.8755.2275,1.1636,1.0439,1.1636a2.86,2.86,0,0,0,1.0313-.2041l-.12.54a2.7816,2.7816,0,0,1-1.0078.18C211.4678,298.5282,210.8564,297.9643,211.0957,296.8251Z"/><path d="M219.3154,293.1552h-2.1943l.1074-.5156h2.7822L219.1,296.849c-.1914.8755.2275,1.1636,1.044,1.1636a2.86,2.86,0,0,0,1.0312-.2041l-.12.54a2.7816,2.7816,0,0,1-1.0078.18c-1.1631,0-1.7744-.5639-1.5352-1.7031Zm.1446-2.6026a.6949.6949,0,0,1,.6836-.66.61.61,0,0,1,.6.6.69.69,0,0,1-.6963.66A.5762.5762,0,0,1,219.46,290.5526Z"/><path d="M223.6611,295.9374a3.2679,3.2679,0,0,1,3.1426-3.394,2.3062,2.3062,0,0,1,2.2305,1.5351l-.5274.1919a1.74,1.74,0,0,0-1.7392-1.1753,2.7142,2.7142,0,0,0-2.5186,2.8545,1.903,1.903,0,0,0,1.8946,2.0269,2.5794,2.5794,0,0,0,1.9433-.8877l.4082.36a3.1179,3.1179,0,0,1-2.3633,1.08A2.4328,2.4328,0,0,1,223.6611,295.9374Z"/><path d="M51.2236,313.1645h2.6026A2.4159,2.4159,0,0,1,56.5,315.5873a2.286,2.286,0,0,1-1.7383,2.2666l1.8828,3.7061h-1.02l-1.7988-3.586h-1.68v3.586h-.9229Zm.9229.8159v3.2261h1.6074a1.6252,1.6252,0,1,0,0-3.2261Z"/><path d="M57.98,318.6337a2.8736,2.8736,0,0,1,2.8184-3.0225,2.8423,2.8423,0,0,1,2.8671,2.9507v.2637H58.8311A2.1613,2.1613,0,0,0,60.9785,320.9a2.242,2.242,0,0,0,1.7149-.7436l.6113.54a3.1841,3.1841,0,0,1-2.3623.9712A2.9479,2.9479,0,0,1,57.98,318.6337Zm.876-.4316h3.9453a2.0363,2.0363,0,0,0-2.0147-1.835A1.9907,1.9907,0,0,0,58.8555,318.2021Z"/><path d="M69.6289,320.7807a2.3078,2.3078,0,0,1-1.8711.8633,3.019,3.019,0,0,1,.0479-6.0088,2.3843,2.3843,0,0,1,1.8232.8159v-3.4663l.875-.18V321.56h-.875Zm-1.6553.0957a2.0061,2.0061,0,0,0,1.6553-.7793v-2.9028a2.1653,2.1653,0,1,0-1.6553,3.6821Z"/><path d="M79.6631,313.1645h.9238v3.7544H84.209v-3.7544h.9228V321.56H84.209v-3.814H80.5869v3.814h-.9238Z"/><path d="M86.8867,319.8808c0-1.043.8994-1.7388,2.2549-1.7388a3.6,3.6,0,0,1,1.8467.4439v-.6719a1.3967,1.3967,0,0,0-1.5713-1.5708,3.5988,3.5988,0,0,0-1.8828.5635l-.3594-.66a4.7883,4.7883,0,0,1,2.3506-.6358,2.0439,2.0439,0,0,1,2.3262,2.1831V321.56h-.8633v-.6836a2.6008,2.6008,0,0,1-1.919.7915C87.7861,321.6679,86.8867,320.9364,86.8867,319.8808Zm2.3623,1.1157a2.3517,2.3517,0,0,0,1.7393-.6836v-1.1157a3.1951,3.1951,0,0,0-1.7149-.42c-.9355,0-1.5478.4317-1.5478,1.0791C87.7256,320.54,88.3379,320.9965,89.249,320.9965Z"/><path d="M95.73,316.4267H93.7266v-.7193H95.73V314.1l.876-.2036v1.811h2.6982v.7193H96.6055v3.43c0,.732.4072,1.0318,1.1631,1.0318a4.1572,4.1572,0,0,0,1.5351-.312v.7915a4.53,4.53,0,0,1-1.5469.3c-1.3193,0-2.0273-.5757-2.0273-1.667Z"/><path d="M109.1338,314.3041V321.56h-.8272v-8.3955h1.1387l1.751,4.0058,1.751-4.0058h1.14V321.56h-.8515v-7.2559l-2.0508,4.7373Z"/><path d="M118.3965,315.6112a3.041,3.041,0,1,1-2.8418,3.0225A2.8725,2.8725,0,0,1,118.3965,315.6112Zm1.9912,3.0347a2.0024,2.0024,0,1,0-3.97,0,2.001,2.001,0,1,0,3.97,0Z"/><path d="M123.1865,315.7074h.875v.9473a2.1114,2.1114,0,0,1,1.8594-1.0435,2.0366,2.0366,0,0,1,2.123,2.1587v3.79h-.8759v-3.5381a1.5166,1.5166,0,0,0-1.5713-1.6787,1.7261,1.7261,0,0,0-1.5352.8994V321.56h-.875Z"/><path d="M132.7969,315.6112a3.041,3.041,0,1,1-2.8418,3.0225A2.8725,2.8725,0,0,1,132.7969,315.6112Zm1.9912,3.0347a2.0024,2.0024,0,1,0-3.97,0,2.001,2.001,0,1,0,3.97,0Z"/><path d="M144.8223,313.1645h2.6025a2.4159,2.4159,0,0,1,2.6738,2.4228,2.286,2.286,0,0,1-1.7382,2.2666l1.8828,3.7061h-1.02l-1.7988-3.586h-1.68v3.586h-.9228Zm.9228.8159v3.2261h1.6074a1.6252,1.6252,0,1,0,0-3.2261Z"/><path d="M151.5781,318.6337a2.8737,2.8737,0,0,1,2.8184-3.0225,2.8424,2.8424,0,0,1,2.8672,2.9507v.2637H152.43a2.1614,2.1614,0,0,0,2.1474,2.0747,2.242,2.242,0,0,0,1.7149-.7436l.6113.54a3.1837,3.1837,0,0,1-2.3623.9712A2.9479,2.9479,0,0,1,151.5781,318.6337Zm.876-.4316h3.9453a2.0362,2.0362,0,0,0-2.0146-1.835A1.9908,1.9908,0,0,0,152.4541,318.2021Z"/><path d="M158.6572,318.6337a2.8476,2.8476,0,0,1,2.7471-2.9985,2.363,2.363,0,0,1,1.835.8276v-.7554h.8632V321.86c0,1.4511-.875,2.2549-2.4707,2.2549a4.6948,4.6948,0,0,1-2.2783-.6119l.3721-.6713a3.9325,3.9325,0,0,0,1.87.5395c1.0674,0,1.6318-.5156,1.6318-1.499v-1.1035a2.307,2.307,0,0,1-1.8711.8637A2.8252,2.8252,0,0,1,158.6572,318.6337Zm2.9151,2.2427a2.0142,2.0142,0,0,0,1.6552-.7915v-2.8906a2.1652,2.1652,0,1,0-1.6552,3.6821Z"/><path d="M167.2373,319.2333a1.5117,1.5117,0,0,0,1.5586,1.6909,1.7365,1.7365,0,0,0,1.5352-.8872v-4.33h.8759V321.56h-.8759v-.9473a2.0954,2.0954,0,0,1-1.8584,1.0435,2.0465,2.0465,0,0,1-2.1231-2.1709v-3.7779h.8877Z"/><path d="M173.418,320.84h2.1709v-7.3159H173.418v-.7192h3.0459V320.84h2.2675v.72H173.418Z"/><path d="M180.4854,319.8808c0-1.043.8994-1.7388,2.2548-1.7388a3.6,3.6,0,0,1,1.8467.4439v-.6719a1.3966,1.3966,0,0,0-1.5713-1.5708,3.599,3.599,0,0,0-1.8828.5635l-.3594-.66a4.7886,4.7886,0,0,1,2.3506-.6358,2.0439,2.0439,0,0,1,2.3262,2.1831V321.56h-.8633v-.6836a2.6006,2.6006,0,0,1-1.9189.7915C181.3848,321.6679,180.4854,320.9364,180.4854,319.8808Zm2.3623,1.1157a2.3516,2.3516,0,0,0,1.7392-.6836v-1.1157a3.1949,3.1949,0,0,0-1.7148-.42c-.9356,0-1.5469.4317-1.5469,1.0791C181.3252,320.54,181.9365,320.9965,182.8477,320.9965Z"/><path d="M187.9131,320.84h1.6074v-4.4135h-1.6074v-.7193h2.4824v1.295a2.095,2.095,0,0,1,2.0156-1.4268,2.7975,2.7975,0,0,1,1.0069.18v.8037a3.5023,3.5023,0,0,0-1.1035-.2158,2.0164,2.0164,0,0,0-1.919,1.331v3.166h1.7031v.72h-4.1855Z"/><path d="M52.3867,336.4364h2.2549a2.0809,2.0809,0,0,1,2.3262,2.1231,2.6357,2.6357,0,0,1-2.1944,2.6147l1.211,3.6577h-.959l-1.1631-3.5859H52.291l-.7676,3.5859H50.6Zm.7559.816-.6963,3.226h1.6074a1.8647,1.8647,0,0,0,2.0147-1.8589,1.368,1.368,0,0,0-1.5586-1.3671Z"/><path d="M57.9922,342.2055a3.2311,3.2311,0,0,1,3.13-3.3223,2.4363,2.4363,0,0,1,2.4707,2.5786,5.6923,5.6923,0,0,1-.0362.6358H58.8311v.084a1.9391,1.9391,0,0,0,1.9316,2.0029,2.7423,2.7423,0,0,0,1.751-.6836l.4433.6a3.3488,3.3488,0,0,1-2.23.8394A2.6325,2.6325,0,0,1,57.9922,342.2055Zm.9228-.7315h3.8379a1.6738,1.6738,0,0,0-1.69-1.8232A2.2524,2.2524,0,0,0,58.915,341.474Z"/><path d="M69.1611,344.2206a2.3484,2.3484,0,0,1-1.6914.6953,2.44,2.44,0,0,1-2.3388-2.65,3.2158,3.2158,0,0,1,3.0341-3.3462,2.1217,2.1217,0,0,1,1.8955,1.0313l.7911-3.6938.8877-.18-1.8584,8.7548h-.8516Zm-1.38-.0483a2.1651,2.1651,0,0,0,1.5235-.6475l.6113-2.8667a1.8346,1.8346,0,0,0-1.6426-.9712,2.3828,2.3828,0,0,0-2.291,2.5064A1.8028,1.8028,0,0,0,67.7812,344.1723Z"/><path d="M80.8271,336.4364H81.75l-.8037,3.7544h3.6221l.8037-3.7544h.9238l-1.7871,8.3955H83.585L84.4,341.018H80.7783l-.8154,3.8139H79.04Z"/><path d="M86.6826,343.2851c0-1.1275.9473-1.895,2.3623-1.895A3.3819,3.3819,0,0,1,91,341.9535l.1562-.7075c.24-1.08-.2158-1.6309-1.331-1.6309a4.3719,4.3719,0,0,0-1.7871.4917l-.252-.6718a4.9632,4.9632,0,0,1,2.1826-.54c1.5713,0,2.3624.8633,2.0508,2.2788l-.8154,3.6577h-.8516l.12-.5517a2.8086,2.8086,0,0,1-1.7754.6357C87.498,344.9159,86.6826,344.2685,86.6826,343.2851Zm2.2305.9712a2.6172,2.6172,0,0,0,1.7031-.6l.252-1.1153a2.7769,2.7769,0,0,0-1.7393-.5039c-.959,0-1.6191.48-1.6191,1.1875C87.51,343.8608,88.0381,344.2563,88.9131,344.2563Z"/><path d="M96.1973,339.6986h-2.003l.1563-.7192h2.0029l.336-1.6074.9228-.2036-.3828,1.811h2.6982l-.1562.7192H97.0732l-.72,3.3824c-.168.78.1914,1.0913,1.0674,1.0913a4.1148,4.1148,0,0,0,1.4629-.3115l-.168.7915a3.7876,3.7876,0,0,1-1.4267.2876c-1.3672,0-2.0625-.6358-1.8233-1.7749Z"/><path d="M110.0693,337.5282l-1.5468,7.3037h-.8282l1.7754-8.3955h1.1153l.9111,4.0059,2.5908-4.0059H115.25l-1.7744,8.3955h-.8516l1.5235-7.208-3.0225,4.69Z"/><path d="M118.6611,338.8715a2.52,2.52,0,0,1,2.53,2.7344,3.2384,3.2384,0,0,1-3.082,3.3462,2.5381,2.5381,0,0,1-2.5186-2.7344A3.2205,3.2205,0,0,1,118.6611,338.8715Zm1.667,2.7344a1.756,1.756,0,0,0-1.7031-1.9668,2.395,2.395,0,0,0-2.1826,2.5664,1.7643,1.7643,0,0,0,1.7148,1.9668A2.3793,2.3793,0,0,0,120.3281,341.6059Z"/><path d="M123.81,338.9794h.8759l-.1923.9111a2.48,2.48,0,0,1,1.9433-.9951c1.3076,0,2.0274.9712,1.7276,2.3745l-.7559,3.562h-.8633l.7315-3.43c.2275-1.0791-.252-1.7867-1.1993-1.7867a2.1792,2.1792,0,0,0-1.7158.8995l-.9228,4.3173h-.876Z"/><path d="M133.0615,338.8715a2.52,2.52,0,0,1,2.53,2.7344,3.2384,3.2384,0,0,1-3.082,3.3462,2.5381,2.5381,0,0,1-2.5186-2.7344A3.2205,3.2205,0,0,1,133.0615,338.8715Zm1.667,2.7344a1.756,1.756,0,0,0-1.7031-1.9668,2.395,2.395,0,0,0-2.1826,2.5664,1.7643,1.7643,0,0,0,1.7148,1.9668A2.3793,2.3793,0,0,0,134.7285,341.6059Z"/><path d="M145.9854,336.4364H148.24a2.0809,2.0809,0,0,1,2.3262,2.1231,2.6357,2.6357,0,0,1-2.1943,2.6147l1.2109,3.6577h-.959l-1.1631-3.5859H145.89l-.7675,3.5859h-.9239Zm.7558.816-.6963,3.226h1.6074a1.8647,1.8647,0,0,0,2.0147-1.8589,1.368,1.368,0,0,0-1.5586-1.3671Z"/><path d="M151.5908,342.2055a3.2311,3.2311,0,0,1,3.13-3.3223,2.4362,2.4362,0,0,1,2.4707,2.5786,5.7156,5.7156,0,0,1-.0361.6358H152.43v.084a1.94,1.94,0,0,0,1.9316,2.0029,2.7421,2.7421,0,0,0,1.751-.6836l.4434.6a3.3508,3.3508,0,0,1-2.2305.8394A2.6325,2.6325,0,0,1,151.5908,342.2055Zm.9229-.7315h3.8379a1.674,1.674,0,0,0-1.69-1.8232A2.2522,2.2522,0,0,0,152.5137,341.474Z"/><path d="M158.73,342.2655a3.2159,3.2159,0,0,1,3.0342-3.3462,2.1333,2.1333,0,0,1,1.8828,1.0074l.1924-.9473h.8515l-1.3437,6.44a2.2993,2.2993,0,0,1-2.3985,2.003,4.2678,4.2678,0,0,1-2.5068-.8516l.4561-.66a3.3545,3.3545,0,0,0,2.0029.7437,1.5363,1.5363,0,0,0,1.6191-1.3076l.2276-1.127a2.3181,2.3181,0,0,1-1.6787.6953A2.4411,2.4411,0,0,1,158.73,342.2655Zm2.65,1.9068a2.1546,2.1546,0,0,0,1.5117-.6358l.6-2.914a1.84,1.84,0,0,0-1.6191-.9356,2.3828,2.3828,0,0,0-2.291,2.5064A1.8027,1.8027,0,0,0,161.38,344.1723Z"/><path d="M167.1172,342.41c-.2276,1.0791.2519,1.7866,1.1992,1.7866a2.1784,2.1784,0,0,0,1.7148-.8994l.9239-4.3174h.876l-1.2481,5.8525h-.875l.1914-.9116a2.4769,2.4769,0,0,1-1.9424.9956c-1.3076,0-2.0273-.9712-1.7275-2.3745l.7559-3.562h.8632Z"/><path d="M172.95,344.1122h2.1709l1.5469-7.3159h-2.1709l.1562-.7192h3.0459l-1.7031,8.0351h2.2676l-.1563.72h-5.3135Z"/><path d="M180.2812,343.2851c0-1.1275.9473-1.895,2.3624-1.895a3.3815,3.3815,0,0,1,1.955.5634l.1563-.7075c.24-1.08-.2158-1.6309-1.3311-1.6309a4.3719,4.3719,0,0,0-1.7871.4917l-.2519-.6718a4.9626,4.9626,0,0,1,2.1826-.54c1.5713,0,2.3633.8633,2.0508,2.2788l-.8155,3.6577h-.8515l.12-.5517a2.8086,2.8086,0,0,1-1.7754.6357C181.0967,344.9159,180.2812,344.2685,180.2812,343.2851Zm2.23.9712a2.6172,2.6172,0,0,0,1.7031-.6l.252-1.1153a2.7769,2.7769,0,0,0-1.7393-.5039c-.9589,0-1.6191.48-1.6191,1.1875C181.1084,343.8608,181.6367,344.2563,182.5117,344.2563Z"/><path d="M187.4453,344.1122h1.6074l.9356-4.4136h-1.6074l.1562-.7192H191.02l-.2636,1.2593a2.3689,2.3689,0,0,1,2.123-1.3911,2.4308,2.4308,0,0,1,1.1152.2754l-.1679.8037a2.2314,2.2314,0,0,0-1.128-.3116,2.3862,2.3862,0,0,0-2.0986,1.3072l-.6719,3.19h1.7032l-.1553.72H187.29Z"/><path d="M203.32,336.4364h5.2774l-.1807.816h-2.1582l-1.4512,6.7641h2.1709l-.168.8154h-5.2773l.168-.8154h2.1826l1.4512-6.7641h-2.1944Z"/><path d="M211.3955,339.6986h-2.0029l.1562-.7192h2.003l.3359-1.6074.9238-.2036-.3847,1.811h2.6992l-.1563.7192h-2.6982l-.72,3.3824c-.168.78.1914,1.0913,1.0673,1.0913a4.1148,4.1148,0,0,0,1.4629-.3115l-.1679.7915a3.7877,3.7877,0,0,1-1.4268.2876c-1.3672,0-2.0625-.6358-1.8232-1.7749Z"/><path d="M216.2812,343.2851c0-1.1275.9473-1.895,2.3624-1.895a3.3815,3.3815,0,0,1,1.955.5634l.1563-.7075c.24-1.08-.2158-1.6309-1.3311-1.6309a4.3719,4.3719,0,0,0-1.7871.4917l-.2519-.6718a4.9626,4.9626,0,0,1,2.1826-.54c1.5713,0,2.3633.8633,2.0508,2.2788l-.8155,3.6577h-.8515l.12-.5517a2.8086,2.8086,0,0,1-1.7754.6357C217.0967,344.9159,216.2812,344.2685,216.2812,343.2851Zm2.23.9712a2.6172,2.6172,0,0,0,1.7031-.6l.252-1.1153a2.7769,2.7769,0,0,0-1.7393-.5039c-.9589,0-1.6191.48-1.6191,1.1875C217.1084,343.8608,217.6367,344.2563,218.5117,344.2563Z"/><path d="M223.35,344.1122h2.1709l1.5469-7.3159h-2.1709l.1562-.7192h3.0459l-1.7031,8.0351h2.2676l-.1563.72h-5.3134Z"/><path d="M230.6211,344.1122h2.1709l.9346-4.4136h-2.17l.1553-.7192h3.0469l-1.0918,5.1328h2.1592l-.1563.72h-5.2051Zm3.334-7.208a.8409.8409,0,0,1,.8271-.8032.6964.6964,0,0,1,.6963.6953.8248.8248,0,0,1-.8281.8037A.6812.6812,0,0,1,233.9551,336.9042Z"/><path d="M242.4619,343.3207l.5879.4678a3.1762,3.1762,0,0,1-2.4941,1.1636,2.5008,2.5008,0,0,1-2.5664-2.6387,3.3154,3.3154,0,0,1,3.2255-3.4063,2.4794,2.4794,0,0,1,2.375,1.5352l-.7558.3721a1.706,1.706,0,0,0-1.6787-1.14,2.4843,2.4843,0,0,0-2.3272,2.6026,1.8073,1.8073,0,0,0,1.8115,1.9189A2.4184,2.4184,0,0,0,242.4619,343.3207Z"/><path d="M271.8579,265.8769h2.8545a2.5523,2.5523,0,0,1,2.8066,2.5429A2.377,2.377,0,0,1,275.9,270.71l1.8467,3.562H276.2l-1.68-3.3579h-1.2226v3.3579h-1.44Zm1.44,1.2114v2.6748h1.2949a1.3439,1.3439,0,1,0,0-2.6748Z"/><path d="M278.71,271.2743a2.9943,2.9943,0,1,1,5.9844,0v.3238H280.03a1.88,1.88,0,0,0,1.8711,1.667,1.96,1.96,0,0,0,1.5351-.6719l.8994.792a3.3469,3.3469,0,0,1-2.5068.9951A3.0718,3.0718,0,0,1,278.71,271.2743Zm1.3428-.5161h3.3584a1.7379,1.7379,0,0,0-1.7148-1.499A1.6843,1.6843,0,0,0,280.0532,270.7582Z"/><path d="M290.2036,273.5409a2.2538,2.2538,0,0,1-1.7392.7915,3.0818,3.0818,0,0,1,.0839-6.1167,2.241,2.241,0,0,1,1.6426.72v-3.2383l1.3555-.24v8.815h-1.3428Zm-1.3555-.3237a1.7053,1.7053,0,0,0,1.3428-.6v-2.6865a1.781,1.781,0,0,0-1.3428-.6,1.96,1.96,0,0,0,0,3.8862Z"/><path d="M300.4058,265.8769h1.4394v3.5263h2.8662v-3.5263h1.4395v8.3955h-1.4395v-3.586h-2.8662v3.586h-1.4394Z"/><path d="M307.6167,272.5453c0-1.0791.8877-1.7627,2.3271-1.7627a3.8663,3.8663,0,0,1,1.6553.3716v-.5879c0-.8515-.4678-1.271-1.415-1.271a3.8865,3.8865,0,0,0-1.8115.5156l-.5157-.9833a5.755,5.755,0,0,1,2.5909-.66c1.583,0,2.4941.8154,2.4941,2.2549v3.85h-1.3428v-.6358a2.4884,2.4884,0,0,1-1.8232.7437A1.929,1.929,0,0,1,307.6167,272.5453Zm2.5312.8755a2.1345,2.1345,0,0,0,1.4512-.5156v-.9595a3.2181,3.2181,0,0,0-1.415-.2876c-.8037,0-1.2959.3237-1.2959.8633C308.8882,273.0732,309.38,273.4208,310.1479,273.4208Z"/><path d="M316.436,269.3432h-1.9189v-1.08h1.9189v-1.6548l1.3555-.2881v1.9429h2.543v1.08h-2.543v2.8183c0,.7559.3477,1.0435,1.1152,1.0435a4.281,4.281,0,0,0,1.44-.2637v1.1514a5.397,5.397,0,0,1-1.6191.2759c-1.4991,0-2.2911-.6719-2.2911-1.9551Z"/><path d="M330.3081,267.7958v6.4766h-1.2236v-8.3955h1.6074l1.3789,3.3945,1.3916-3.3945H335.07v8.3955h-1.26V267.82l-1.751,4.1616Z"/><path d="M339.271,268.1679a3.114,3.114,0,1,1-3.01,3.1064A2.9928,2.9928,0,0,1,339.271,268.1679Zm1.7031,3.1181a1.7153,1.7153,0,1,0-3.3935,0,1.711,1.711,0,1,0,3.3935,0Z"/><path d="M343.8452,268.2636h1.3555v.9116a2.16,2.16,0,0,1,1.8467-1.0073,2.0276,2.0276,0,0,1,2.0986,2.147v3.9575h-1.3672v-3.5738a1.2942,1.2942,0,0,0-1.3193-1.4394,1.4888,1.4888,0,0,0-1.2588.6475v4.3657h-1.3555Z"/><path d="M353.6714,268.1679a3.114,3.114,0,1,1-3.01,3.1064A2.9927,2.9927,0,0,1,353.6714,268.1679Zm1.7031,3.1181a1.7153,1.7153,0,1,0-3.3935,0,1.711,1.711,0,1,0,3.3935,0Z"/><path d="M366.3081,267.7958v6.4766h-1.2236v-8.3955h1.6074l1.3789,3.3945,1.3916-3.3945H371.07v8.3955h-1.26V267.82l-1.751,4.1616Z"/><path d="M372.3091,271.2743a2.9943,2.9943,0,1,1,5.9844,0v.3238h-4.6651a1.88,1.88,0,0,0,1.8711,1.667,1.96,1.96,0,0,0,1.5352-.6719l.8994.792a3.3456,3.3456,0,0,1-2.5069.9951A3.0717,3.0717,0,0,1,372.3091,271.2743Zm1.3428-.5161H377.01a1.7381,1.7381,0,0,0-1.7149-1.499A1.6842,1.6842,0,0,0,373.6519,270.7582Z"/><path d="M383.8022,273.5409a2.2538,2.2538,0,0,1-1.7392.7915,3.0817,3.0817,0,0,1,.084-6.1167,2.2413,2.2413,0,0,1,1.6426.72v-3.2383l1.3554-.24v8.815h-1.3428Zm-1.3554-.3237a1.7055,1.7055,0,0,0,1.3428-.6v-2.6865a1.7814,1.7814,0,0,0-1.3428-.6,1.96,1.96,0,0,0,0,3.8862Z"/><path d="M386.9243,273.205h2.1592v-3.8618h-2.1592v-1.08h3.5137v4.9414h2.1348v1.0674h-5.6485Zm1.8711-7.0879a.9654.9654,0,1,1,.9717.9712A.9649.9649,0,0,1,388.7954,266.1171Z"/><path d="M395.564,271.8256a1.2983,1.2983,0,0,0,1.3193,1.4517,1.5089,1.5089,0,0,0,1.2588-.6358v-4.3779h1.3555v6.0088h-1.3555v-.9116a2.1621,2.1621,0,0,1-1.8467,1.0078,2.0342,2.0342,0,0,1-2.0986-2.147v-3.958h1.3672Z"/><path d="M401.0962,268.2636h1.1631v.5039a1.2591,1.2591,0,0,1,1.0556-.6,1.3028,1.3028,0,0,1,1.1631.7075,1.3977,1.3977,0,0,1,2.6026.8638v4.5332h-1.1631v-4.1856c0-.5639-.24-.9116-.6836-.9116a.6836.6836,0,0,0-.5762.2759,3.0123,3.0123,0,0,1,.0244.3359v4.4854h-1.164v-4.1856c0-.5639-.2637-.9116-.6953-.9116a.68.68,0,0,0-.5635.2642v4.833h-1.1631Z"/><path d="M273.021,289.2568h2.5547a2.2376,2.2376,0,0,1,2.4707,2.267,2.7346,2.7346,0,0,1-2.1231,2.6387l1.2237,3.49h-1.4991l-1.1035-3.37H273.37l-.72,3.37h-1.416Zm1.1641,1.2114-.5762,2.6626h1.3789a1.5125,1.5125,0,0,0,1.6318-1.499,1.15,1.15,0,0,0-1.2832-1.1636Z"/><path d="M278.71,294.954a3.3646,3.3646,0,0,1,3.2862-3.4062,2.5435,2.5435,0,0,1,2.65,2.6743,7.1727,7.1727,0,0,1-.0479.7558h-4.6054a1.7076,1.7076,0,0,0,1.7509,1.6792,2.3909,2.3909,0,0,0,1.5948-.6479l.66.8276a3.4215,3.4215,0,0,1-2.3984.9356A2.7537,2.7537,0,0,1,278.71,294.954Zm1.3917-.8159h3.3339a1.4568,1.4568,0,0,0-1.499-1.4751A1.9428,1.9428,0,0,0,280.1021,294.1381Z"/><path d="M289.7476,297.0048a2.1744,2.1744,0,0,1-1.6436.7075,2.4336,2.4336,0,0,1-2.2422-2.6865,3.291,3.291,0,0,1,3.07-3.43,1.9909,1.9909,0,0,1,1.7627.9234l.7315-3.4419,1.3672-.24-1.8711,8.815h-1.3067Zm-1.0918-.3838a1.8631,1.8631,0,0,0,1.2832-.5517l.5644-2.6265a1.6782,1.6782,0,0,0-1.38-.72,2.0668,2.0668,0,0,0-1.955,2.207A1.5158,1.5158,0,0,0,288.6558,296.621Z"/><path d="M301.5688,289.2568h1.44l-.7559,3.5263h2.8545l.7559-3.5263h1.4394l-1.7871,8.3955h-1.4394l.7676-3.586h-2.8545l-.7676,3.586h-1.4385Z"/><path d="M307.45,296.0693c0-1.1753.9473-1.9312,2.4219-1.9312a3.6461,3.6461,0,0,1,1.7754.4438l.12-.5278c.2041-.9233-.2285-1.3911-1.2715-1.3911a4.6719,4.6719,0,0,0-1.6914.42l-.3359-.9956a6.2173,6.2173,0,0,1,2.3388-.5278c1.751,0,2.627.9238,2.291,2.4468l-.8037,3.646h-1.3193l.12-.54a2.6927,2.6927,0,0,1-1.6787.6118C308.229,297.7245,307.45,297.0766,307.45,296.0693Zm2.4346.72a2.3434,2.3434,0,0,0,1.3789-.4322l.2158-1.019a2.933,2.933,0,0,0-1.4394-.3359c-.8272,0-1.3555.3715-1.3555.9594C308.6841,296.4652,309.1284,296.789,309.8843,296.789Z"/><path d="M316.82,292.7231h-1.9062l.2275-1.08h1.919l.3476-1.6548,1.4277-.2881-.42,1.9429h2.542l-.2392,1.08H318.187l-.6,2.7944c-.168.78.1807,1.08,1.0195,1.08a4.19,4.19,0,0,0,1.3672-.2642l-.2519,1.14a4.2759,4.2759,0,0,1-1.5108.2758c-1.5351,0-2.291-.7675-2.0029-2.123Z"/><path d="M331.0757,291.1518l-1.3789,6.5005h-1.2354l1.7871-8.3955h1.583l.6709,3.3945,2.1-3.3945h1.6308l-1.7871,8.3955h-1.2471l1.3672-6.4283-2.6269,4.1377Z"/><path d="M339.5591,291.5478a2.64,2.64,0,0,1,2.6982,2.7944,3.3563,3.3563,0,0,1-3.25,3.43,2.6635,2.6635,0,0,1-2.6982-2.8067A3.33,3.33,0,0,1,339.5591,291.5478Zm1.3789,2.8183a1.4823,1.4823,0,0,0-1.4512-1.667,2.0531,2.0531,0,0,0-1.8584,2.2188,1.4869,1.4869,0,0,0,1.4512,1.6792A2.0424,2.0424,0,0,0,340.938,294.3661Z"/><path d="M344.5171,291.6435h1.331l-.2041.9477a2.5741,2.5741,0,0,1,1.9913-1.0195c1.2832,0,1.9785.9355,1.6787,2.3027l-.8037,3.7779h-1.3311l.7432-3.49c.1923-.9116-.2159-1.5234-1.0313-1.5234a1.8252,1.8252,0,0,0-1.4033.72l-.9229,4.2935h-1.3437Z"/><path d="M353.96,291.5478a2.64,2.64,0,0,1,2.6982,2.7944,3.3563,3.3563,0,0,1-3.25,3.43,2.6635,2.6635,0,0,1-2.6982-2.8067A3.33,3.33,0,0,1,353.96,291.5478Zm1.3789,2.8183a1.4823,1.4823,0,0,0-1.4512-1.667,2.0531,2.0531,0,0,0-1.8584,2.2188,1.4869,1.4869,0,0,0,1.4512,1.6792A2.0424,2.0424,0,0,0,355.3384,294.3661Z"/><path d="M367.0757,291.1518l-1.3789,6.5005h-1.2354l1.7871-8.3955h1.583l.6709,3.3945,2.1-3.3945h1.6308l-1.7871,8.3955h-1.2471l1.3672-6.4283-2.6269,4.1377Z"/><path d="M372.3091,294.954a3.3639,3.3639,0,0,1,3.2861-3.4062,2.5435,2.5435,0,0,1,2.65,2.6743,7.1738,7.1738,0,0,1-.0478.7558h-4.6055a1.7077,1.7077,0,0,0,1.751,1.6792,2.3909,2.3909,0,0,0,1.5947-.6479l.66.8276a3.4213,3.4213,0,0,1-2.3984.9356A2.7536,2.7536,0,0,1,372.3091,294.954Zm1.3916-.8159h3.334a1.457,1.457,0,0,0-1.4991-1.4751A1.9429,1.9429,0,0,0,373.7007,294.1381Z"/><path d="M383.3462,297.0048a2.1742,2.1742,0,0,1-1.6436.7075,2.4336,2.4336,0,0,1-2.2422-2.6865,3.291,3.291,0,0,1,3.07-3.43,1.9923,1.9923,0,0,1,1.7627.9234l.7314-3.4419,1.3672-.24-1.8711,8.815h-1.3066Zm-1.0918-.3838a1.8629,1.8629,0,0,0,1.2832-.5517l.5645-2.6265a1.68,1.68,0,0,0-1.38-.72,2.0668,2.0668,0,0,0-1.9551,2.207A1.5158,1.5158,0,0,0,382.2544,296.621Z"/><path d="M386.5767,296.5849h2.1464l.8282-3.8618h-2.1592l.2275-1.08h3.5147l-1.044,4.9414h2.1348l-.2393,1.0674h-5.6377Zm3.3339-6.98a1.1023,1.1023,0,0,1,1.0674-1.0674.86.86,0,0,1,.8633.8633,1.0647,1.0647,0,0,1-1.0547,1.0557A.846.846,0,0,1,389.9106,289.6049Z"/><path d="M395.4556,295.1337c-.2041.9116.2158,1.5234,1.0312,1.5234a1.8368,1.8368,0,0,0,1.3916-.684l.9356-4.33h1.3427l-1.2949,6.0088H397.519l.2032-.9473a2.5307,2.5307,0,0,1-1.9785,1.0312c-1.2833,0-1.9786-.9472-1.6788-2.3144l.8028-3.7783H396.2Z"/><path d="M401.7437,291.6435h1.163l-.1074.5161a1.3808,1.3808,0,0,1,1.0908-.6118,1.0826,1.0826,0,0,1,1.0918.7675,1.59,1.59,0,0,1,1.3194-.7675c.8154,0,1.3193.66,1.1152,1.6191l-.96,4.4854h-1.1513l.8877-4.21c.12-.5278-.0957-.8994-.5157-.8994a.7951.7951,0,0,0-.6357.3237,3.2871,3.2871,0,0,1-.0478.3477l-.9356,4.4375H402.895l.8994-4.21c.1075-.5278-.1084-.8994-.5273-.8994a.8065.8065,0,0,0-.6123.2759l-1.02,4.833h-1.1631Z"/><path d="M416.8032,289.2568h5.6612l-.252,1.2114h-2.11l-1.2833,5.9726h2.1221l-.2637,1.2115h-5.6611l.252-1.2115h2.1113l1.2832-5.9726H416.54Z"/><path d="M424.8179,292.7231h-1.9063l.2276-1.08h1.9189l.3477-1.6548,1.4277-.2881-.42,1.9429h2.542l-.2393,1.08h-2.5312l-.6,2.7944c-.1679.78.1807,1.08,1.02,1.08a4.19,4.19,0,0,0,1.3672-.2642l-.252,1.14a4.275,4.275,0,0,1-1.5107.2758c-1.5352,0-2.291-.7675-2.003-2.123Z"/><path d="M429.8481,296.0693c0-1.1753.9473-1.9312,2.4219-1.9312a3.6458,3.6458,0,0,1,1.7754.4438l.12-.5278c.2041-.9233-.2285-1.3911-1.2715-1.3911a4.6724,4.6724,0,0,0-1.6914.42l-.3359-.9956a6.2178,6.2178,0,0,1,2.3389-.5278c1.7509,0,2.6269.9238,2.291,2.4468l-.8037,3.646h-1.3194l.12-.54a2.6927,2.6927,0,0,1-1.6788.6118C430.6274,297.7245,429.8481,297.0766,429.8481,296.0693Zm2.4346.72a2.3432,2.3432,0,0,0,1.3789-.4322l.2158-1.019a2.933,2.933,0,0,0-1.4394-.3359c-.8272,0-1.3555.3715-1.3555.9594C431.0825,296.4652,431.5269,296.789,432.2827,296.789Z"/><path d="M436.8677,296.5849h2.1474l1.4151-6.6685h-2.1475l.2285-1.0791h3.0938l-.0117.0357.42-.0357-1.6436,7.7476h2.2071l-.2276,1.0674H436.64Z"/><path d="M444.1763,296.5849h2.1465l.8281-3.8618h-2.1592l.2275-1.08h3.5147l-1.044,4.9414h2.1348l-.2393,1.0674h-5.6376Zm3.334-6.98a1.1022,1.1022,0,0,1,1.0673-1.0674.86.86,0,0,1,.8633.8633,1.0647,1.0647,0,0,1-1.0547,1.0557A.8459.8459,0,0,1,447.51,289.6049Z"/><path d="M456.1362,295.7812l.8516.72a3.2971,3.2971,0,0,1-2.6865,1.2715,2.6531,2.6531,0,0,1-2.7705-2.7227,3.4238,3.4238,0,0,1,3.37-3.49,2.7818,2.7818,0,0,1,2.6152,1.5713l-1.0918.66a1.6838,1.6838,0,0,0-1.583-1.0551A2.09,2.09,0,0,0,452.85,294.93a1.5947,1.5947,0,0,0,1.6191,1.6909A2.1854,2.1854,0,0,0,456.1362,295.7812Z"/><path d="M271.5586,312.6366h3.1787a2.7246,2.7246,0,0,1,2.9619,2.6743,2.5379,2.5379,0,0,1-1.4756,2.315l1.7871,3.4062H275.84l-1.5224-3.0825h-.6963v3.0825h-2.0625Zm2.0625,1.7032v1.9907h.9238a.9978.9978,0,1,0,0-1.9907Z"/><path d="M278.5312,317.95a3.1325,3.1325,0,0,1,3.1778-3.2143,3.0931,3.0931,0,0,1,3.166,3.2866v.4194h-4.4375a1.5433,1.5433,0,0,0,1.5117,1.1636,1.65,1.65,0,0,0,1.3311-.6l1.247,1.1152a3.5377,3.5377,0,0,1-2.6738,1.0313A3.2291,3.2291,0,0,1,278.5312,317.95Zm1.919-.6113h2.626a1.3345,1.3345,0,0,0-1.3311-1.0918A1.2956,1.2956,0,0,0,280.45,317.3383Z"/><path d="M289.8437,320.3725a2.1835,2.1835,0,0,1-1.5947.6953,3.17,3.17,0,0,1,.1436-6.26,1.9987,1.9987,0,0,1,1.4277.6118v-2.9624l1.9424-.3v8.875h-1.919Zm-.9951-.8516a1.3029,1.3029,0,0,0,.9717-.396v-2.3984a1.435,1.435,0,0,0-.9717-.3838c-.8037,0-1.2959.6714-1.2959,1.5952C287.5527,318.849,288.0566,319.5209,288.8486,319.5209Z"/><path d="M300.2383,312.6366h2.0635v3.2622h1.9541v-3.2622h2.0634v8.3955h-2.0634V317.71h-1.9541v3.3222h-2.0635Z"/><path d="M307.4375,319.2572c0-1.14.8877-1.7993,2.4111-1.7993a3.8606,3.8606,0,0,1,1.44.312v-.5278c0-.6-.3965-.8994-1.2236-.8994a4.7214,4.7214,0,0,0-1.7393.4556l-.6953-1.379a6.9915,6.9915,0,0,1,2.8662-.6718c1.7148,0,2.71.8515,2.71,2.3266v3.958h-1.918v-.5878a2.429,2.429,0,0,1-1.7158.6835A1.9259,1.9259,0,0,1,307.4375,319.2572Zm2.7344.5874a1.9264,1.9264,0,0,0,1.1162-.3476v-.7319a4.19,4.19,0,0,0-1.0684-.1558c-.623,0-.9951.2158-.9951.6118S309.585,319.8446,310.1719,319.8446Z"/><path d="M316.2334,316.3427h-1.8115v-1.499h1.8115v-1.7154l1.9424-.3955v2.1109h2.3388v1.499h-2.3388V318.43c0,.7793.2763,1.0552,1.0556,1.0552a4.5247,4.5247,0,0,0,1.3194-.1919v1.5713a7.2167,7.2167,0,0,1-1.7031.2519c-1.7276,0-2.6143-.78-2.6143-2.3027Z"/><path d="M330.6807,315.5751v5.457h-1.7149v-8.3955h2.17l.9483,2.5909.9355-2.5909H335.19v8.3955h-1.7392v-5.4692l-1.3916,3.4424Z"/><path d="M339.2715,314.7475a3.2022,3.2022,0,1,1-3.2256,3.2021A3.15,3.15,0,0,1,339.2715,314.7475Zm1.3437,3.2021a1.3565,1.3565,0,1,0-2.6748,0,1.3532,1.3532,0,1,0,2.6748,0Z"/><path d="M343.582,314.8437h1.9424v.8393a2.2356,2.2356,0,0,1,1.835-.9355,2,2,0,0,1,2.0508,2.1108v4.1738h-1.9424v-3.61a1.0308,1.0308,0,0,0-1.0313-1.1514,1.2309,1.2309,0,0,0-.9121.3721v4.39H343.582Z"/><path d="M353.6719,314.7475a3.2022,3.2022,0,1,1-3.2256,3.2021A3.15,3.15,0,0,1,353.6719,314.7475Zm1.3437,3.2021a1.3565,1.3565,0,1,0-2.6748,0,1.3532,1.3532,0,1,0,2.6748,0Z"/><path d="M368.3232,312.6366c1.6319,0,2.795.9595,2.795,2.2906a2.0863,2.0863,0,0,1-1.2354,1.8232,2.12,2.12,0,0,1,1.4746,1.9312c0,1.3789-1.1748,2.3505-2.8418,2.3505h-3.1787v-8.3955Zm-.9707,1.607v1.7754h.7432a.8908.8908,0,0,0,.9834-.8877.8785.8785,0,0,0-.9834-.8877Zm1.9541,4.2339a.928.928,0,0,0-1.0429-.9473h-.9112v1.8945h.9112A.9342.9342,0,0,0,369.3066,318.4775Z"/><path d="M375.2715,314.7475a3.2022,3.2022,0,1,1-3.2256,3.2021A3.15,3.15,0,0,1,375.2715,314.7475Zm1.3437,3.2021a1.3565,1.3565,0,1,0-2.6748,0,1.3532,1.3532,0,1,0,2.6748,0Z"/><path d="M379.4,319.5326h2.123v-5.8764H379.4v-1.4991h4.0664v7.3755h2.11v1.5H379.4Z"/><path d="M390.6426,320.3725a2.1837,2.1837,0,0,1-1.5947.6953,3.17,3.17,0,0,1,.1435-6.26,1.9984,1.9984,0,0,1,1.4277.6118v-2.9624l1.9424-.3v8.875h-1.9189Zm-.9951-.8516a1.3027,1.3027,0,0,0,.9716-.396v-2.3984a1.435,1.435,0,0,0-.9716-.3838c-.8038,0-1.2959.6714-1.2959,1.5952C388.3516,318.849,388.8555,319.5209,389.6475,319.5209Z"/><path d="M272.7217,336.1728h2.915a2.43,2.43,0,0,1,2.65,2.4345A2.8521,2.8521,0,0,1,276.26,341.27l1.2236,3.2984h-2.1348l-1.0195-3.1065h-.72l-.6592,3.1065h-2.0156Zm1.6553,1.7031-.42,1.9668h1.1153a1.074,1.074,0,0,0,1.1513-1.0552.8659.8659,0,0,0-.9472-.9116Z"/><path d="M278.5312,341.7738a3.512,3.512,0,0,1,3.4659-3.49,2.6765,2.6765,0,0,1,2.8662,2.7705,4.8574,4.8574,0,0,1-.0713.9116h-4.4141a1.4235,1.4235,0,0,0,1.4873,1.1993,2.0336,2.0336,0,0,0,1.4151-.6119l.9355,1.0913a3.5166,3.5166,0,0,1-2.6025,1.0557A2.89,2.89,0,0,1,278.5312,341.7738Zm1.9786-.8994h2.6748a1.1908,1.1908,0,0,0-1.2471-1.0678A1.53,1.53,0,0,0,280.51,340.8744Z"/><path d="M289.4121,343.8608a1.9835,1.9835,0,0,1-1.5947.7431c-1.2354,0-2.1348-1.2231-2.1348-2.7461a3.3846,3.3846,0,0,1,3.1182-3.5141,2.0431,2.0431,0,0,1,1.6064.7314l.6485-3.082,1.9541-.3-1.87,8.875h-1.8837Zm-.7559-.78a1.5094,1.5094,0,0,0,.9961-.42l.4795-2.2905a1.3749,1.3749,0,0,0-1.0439-.4678,1.6772,1.6772,0,0,0-1.5469,1.835C287.541,342.4931,287.9365,343.081,288.6562,343.081Z"/><path d="M301.4014,336.1728h2.0634l-.6953,3.2622h1.9424l.6953-3.2622h2.0635l-1.7871,8.3955h-2.0625l.707-3.3223h-1.9424l-.708,3.3223h-2.0625Z"/><path d="M307.3174,342.9491c0-1.2353.9482-1.979,2.5068-1.9912a4.0948,4.0948,0,0,1,1.56.336l.0713-.3477c.1562-.7314-.2393-1.08-1.211-1.08a5.1955,5.1955,0,0,0-1.5712.312l-.4317-1.3672a7.5189,7.5189,0,0,1,2.5186-.5156c1.9668,0,2.95.9951,2.5908,2.6382l-.792,3.6343h-1.8828l.12-.5279a2.5479,2.5479,0,0,1-1.5713.5757C308.05,344.6161,307.3174,343.98,307.3174,342.9491Zm2.6748.42a1.9277,1.9277,0,0,0,.9951-.2642l.1807-.8394a3.6527,3.6527,0,0,0-1.0918-.1679c-.6592,0-1.02.228-1.02.6714C309.0566,343.1288,309.3926,343.3691,309.9922,343.3691Z"/><path d="M316.5332,339.8788h-1.8115l.3242-1.499h1.7988l.3721-1.7153,2.0264-.3955L318.8,338.38h2.3389l-.3242,1.499h-2.3389l-.4434,2.0869c-.1679.7793.168,1.0552.9473,1.0552a4.5184,4.5184,0,0,0,1.2471-.1919l-.336,1.5713a5.6049,5.6049,0,0,1-1.6308.252c-1.7393,0-2.5547-.9356-2.2071-2.543Z"/><path d="M331.22,339.0751l-1.1631,5.4932h-1.7148l1.7871-8.3955h2.1465l.3955,2.5908,1.4873-2.5908h2.1953l-1.7871,8.3955h-1.7393l1.1514-5.4331-2.0986,3.4062Z"/><path d="M339.584,338.2836a2.7978,2.7978,0,0,1,2.9023,2.8784,3.5094,3.5094,0,0,1-3.4541,3.5259,2.814,2.814,0,0,1-2.9023-2.89A3.476,3.476,0,0,1,339.584,338.2836Zm1.0312,2.9263a1.15,1.15,0,0,0-1.1513-1.3072,1.6433,1.6433,0,0,0-1.4629,1.7989c0,.8276.4433,1.3432,1.1386,1.3432A1.6349,1.6349,0,0,0,340.6152,341.21Z"/><path d="M344.3008,338.38h1.9072l-.2041.9595a2.6579,2.6579,0,0,1,2.0273-1.0318c1.2471,0,1.9073.8994,1.6192,2.2188l-.8633,4.042H346.88l.7676-3.562c.1562-.7076-.18-1.2-.8272-1.2a1.3875,1.3875,0,0,0-1.0195.4677l-.9356,4.294H342.958Z"/><path d="M353.9844,338.2836a2.7978,2.7978,0,0,1,2.9023,2.8784,3.5094,3.5094,0,0,1-3.4541,3.5259,2.814,2.814,0,0,1-2.9023-2.89A3.476,3.476,0,0,1,353.9844,338.2836Zm1.0312,2.9263a1.15,1.15,0,0,0-1.1513-1.3072,1.6433,1.6433,0,0,0-1.4629,1.7989c0,.8276.4433,1.3432,1.1386,1.3432A1.6349,1.6349,0,0,0,355.0156,341.21Z"/><path d="M369.1748,336.1728c1.4639,0,2.4473.8037,2.4473,1.9907a2.44,2.44,0,0,1-1.5352,2.1592,1.84,1.84,0,0,1,1.127,1.667,2.87,2.87,0,0,1-3.1065,2.5786h-3.3935l1.7871-8.3955Zm.0127,5.6967c0-.4917-.3359-.7915-.9-.7915h-.8154l-.3955,1.8472h.9717A1.0645,1.0645,0,0,0,369.1875,341.87Zm-1.0195-4.0537-.3721,1.7271h.6836a1.002,1.002,0,0,0,1.0674-.9834.7245.7245,0,0,0-.8272-.7437Z"/><path d="M375.584,338.2836a2.7978,2.7978,0,0,1,2.9023,2.8784,3.5094,3.5094,0,0,1-3.4541,3.5259,2.814,2.814,0,0,1-2.9023-2.89A3.476,3.476,0,0,1,375.584,338.2836Zm1.0312,2.9263a1.15,1.15,0,0,0-1.1513-1.3072,1.6433,1.6433,0,0,0-1.4629,1.7989c0,.8276.4433,1.3432,1.1386,1.3432A1.6349,1.6349,0,0,0,376.6152,341.21Z"/><path d="M379.0889,343.0688h2.123l1.2354-5.8765h-2.1114l.3125-1.499h4.0655l-1.56,7.3755h2.1113l-.3242,1.5h-6.1768Z"/><path d="M390.2109,343.8608a1.9835,1.9835,0,0,1-1.5947.7431c-1.2353,0-2.1348-1.2231-2.1348-2.7461a3.3846,3.3846,0,0,1,3.1182-3.5141,2.0433,2.0433,0,0,1,1.6065.7314l.6484-3.082,1.9541-.3-1.87,8.875h-1.8838Zm-.7558-.78a1.51,1.51,0,0,0,.9961-.42l.48-2.2905a1.3752,1.3752,0,0,0-1.044-.4678,1.6772,1.6772,0,0,0-1.5469,1.835C388.34,342.4931,388.7354,343.081,389.4551,343.081Z"/><path d="M402.1641,336.1728h6.1406l-.36,1.7031h-2.039l-1.0674,4.9892h2.0391l-.3594,1.7032H400.377l.3593-1.7032h2.0391l1.0674-4.9892h-2.0391Z"/><path d="M410.1318,339.8788H408.32l.3242-1.499h1.7989l.372-1.7153,2.0264-.3955-.4434,2.1108h2.3389l-.3242,1.499h-2.3389l-.4433,2.0869c-.168.7793.1679,1.0552.9472,1.0552a4.5184,4.5184,0,0,0,1.2471-.1919l-.3359,1.5713a5.6056,5.6056,0,0,1-1.6309.252c-1.7393,0-2.5547-.9356-2.207-2.543Z"/><path d="M415.3164,342.9491c0-1.2353.9482-1.979,2.5068-1.9912a4.09,4.09,0,0,1,1.56.336l.0713-.3477c.1563-.7314-.2393-1.08-1.2109-1.08a5.1955,5.1955,0,0,0-1.5713.312l-.4317-1.3672a7.5189,7.5189,0,0,1,2.5186-.5156c1.9668,0,2.95.9951,2.5908,2.6382l-.792,3.6343h-1.8828l.12-.5279a2.5477,2.5477,0,0,1-1.5713.5757C416.0488,344.6161,415.3164,343.98,415.3164,342.9491Zm2.6748.42a1.9274,1.9274,0,0,0,.9951-.2642l.1807-.8394a3.6527,3.6527,0,0,0-1.0918-.1679c-.6592,0-1.0195.228-1.0195.6714C417.0557,343.1288,417.3916,343.3691,417.9912,343.3691Z"/><path d="M422.2881,343.0688h2.123l1.2354-5.8765h-2.1113l.3125-1.499h4.0654l-1.56,7.3755h2.1113l-.3242,1.5h-6.1767Z"/><path d="M429.6318,343.0688h2.1348l.6719-3.19h-2.1348l.3242-1.499h4.0772l-.9951,4.689h2.0986l-.3232,1.5h-6.1768Zm3.3467-6.7041a1.3943,1.3943,0,0,1,1.3428-1.3672,1.0654,1.0654,0,0,1,1.08,1.0674,1.3622,1.3622,0,0,1-1.3555,1.3554A1.0379,1.0379,0,0,1,432.9785,336.3647Z"/><path d="M441.75,342.2655l1.1631,1.0313A3.5319,3.5319,0,0,1,439.999,344.7a2.84,2.84,0,0,1-3.0224-2.8306,3.5424,3.5424,0,0,1,3.55-3.5859,3.1606,3.1606,0,0,1,2.9023,1.5952l-1.5107,1.0073a1.6481,1.6481,0,0,0-1.4512-.9355,1.5994,1.5994,0,0,0-1.5957,1.7031,1.3219,1.3219,0,0,0,1.3916,1.3911A1.9253,1.9253,0,0,0,441.75,342.2655Z"/><path class="a" d="M54.1045,76.4279h19.081c10.3692,0,17.7862,6.6965,17.7862,16.0574a15.2434,15.2434,0,0,1-8.8565,13.8972l10.7285,20.45H79.8105L70.666,108.3266H66.4893v18.5058H54.1045ZM66.4893,86.6527V98.6056h5.5449c3.8164,0,6.4082-2.3759,6.4082-5.9763s-2.5918-5.9766-6.4082-5.9766Z"/><path class="a" d="M95.9355,108.3266c0-10.9448,8.209-19.2976,19.0821-19.2976,11.16,0,19.0088,8.1367,19.0088,19.73v2.52H107.3848a9.2568,9.2568,0,0,0,9.0722,6.9844,9.91,9.91,0,0,0,7.9932-3.6l7.4883,6.6963c-4.6807,4.5366-9.6485,6.1924-16.0576,6.1924C104.7207,127.5522,95.9355,119.1278,95.9355,108.3266Zm11.5206-3.6724h15.7695c-1.0078-4.0322-3.96-6.5525-7.9922-6.5525C111.2725,98.1017,108.4648,100.55,107.4561,104.6542Z"/><path class="a" d="M163.833,122.872a13.1123,13.1123,0,0,1-9.5771,4.1763c-8.6407,0-15.625-8.4249-15.625-18.8658s7.3447-18.7216,16.4892-18.7216a11.9883,11.9883,0,0,1,8.5684,3.6723V75.3478l11.665-1.8v53.2849h-11.52Zm-5.9766-5.1123a7.8145,7.8145,0,0,0,5.8321-2.3765V100.9818a8.6045,8.6045,0,0,0-5.8321-2.3042c-4.8242,0-7.7763,4.0325-7.7763,9.5772C150.08,113.727,153.1035,117.76,157.8564,117.76Z"/><path class="a" d="M226.1816,76.4279h12.3848V96.0136h11.7373V76.4279h12.3848v50.4045H250.3037v-19.946H238.5664v19.946H226.1816Z"/><path class="a" d="M269.3818,116.1752c0-6.84,5.3282-10.8008,14.4727-10.8008a23.1468,23.1468,0,0,1,8.6406,1.8721v-3.1682c0-3.6-2.376-5.4007-7.3447-5.4007-2.8076,0-6.12.9363-10.44,2.7364l-4.1768-8.2808a42.0026,42.0026,0,0,1,17.21-4.0322c10.2968,0,16.2734,5.1123,16.2734,13.9692v23.7622H292.4951v-3.5283c-3.3125,2.88-6.3359,4.1045-10.2969,4.1045C274.6377,127.4086,269.3818,122.8,269.3818,116.1752Zm16.417,3.5283a11.5345,11.5345,0,0,0,6.6963-2.0879v-4.3925a25.0749,25.0749,0,0,0-6.4082-.9361c-3.7441,0-5.9765,1.2964-5.9765,3.6724S282.2705,119.7035,285.7988,119.7035Z"/><path class="a" d="M322.1572,98.6776h-10.873V89.6769h10.873V79.38l11.6651-2.3762V89.6769h14.041v9.0007h-14.041v12.5293c0,4.6807,1.6562,6.3365,6.3369,6.3365a27.2,27.2,0,0,0,7.9209-1.1519v9.4326a43.288,43.288,0,0,1-10.2256,1.5122c-10.3682,0-15.6973-4.68-15.6973-13.8252Z"/><path class="a" d="M408.8437,94.0693v32.7631H398.5469V76.4279H411.58l5.6885,15.5532,5.6162-15.5532H435.918v50.4045h-10.44V93.9972l-8.3525,20.6663Z"/><path class="a" d="M460.3955,89.101c11.0889,0,19.4424,8.2808,19.4424,19.2256s-8.4248,19.2256-19.4424,19.2256a19.2261,19.2261,0,1,1,0-38.4512Zm8.0654,19.2256c0-5.5445-3.3847-9.5049-8.0654-9.5049s-7.9922,3.96-7.9922,9.5049c0,5.4726,3.3125,9.3608,7.9922,9.3608C465.1484,117.6874,468.4609,113.7992,468.4609,108.3266Z"/><path class="a" d="M486.2412,89.6769h11.665v5.04a13.4215,13.4215,0,0,1,11.0176-5.6164c7.2,0,12.3125,5.2563,12.3125,12.6731v25.0583h-11.665v-21.674c0-4.1766-2.4483-6.9126-6.1924-6.9126a7.388,7.388,0,0,0-5.4727,2.2321v26.3545h-11.665Z"/><path class="a" d="M546.7939,89.101c11.0889,0,19.4424,8.2808,19.4424,19.2256s-8.4248,19.2256-19.4424,19.2256a19.2261,19.2261,0,1,1,0-38.4512Zm8.0655,19.2256c0-5.5445-3.3848-9.5049-8.0655-9.5049s-7.9921,3.96-7.9921,9.5049c0,5.4726,3.3125,9.3608,7.9921,9.3608C551.5469,117.6874,554.8594,113.7992,554.8594,108.3266Z"/></svg>