<svg xmlns="http://www.w3.org/2000/svg" width="652" height="395" viewBox="0 0 652 395"><defs><style>.a{fill:none;stroke:#d3d3d3;stroke-miterlimit:10;stroke-width:0.5px;}.b{fill:#989898;}</style></defs><line class="a" x1="50.0001" y1="113.4769" x2="571.7155" y2="113.4769"/><line class="a" x1="50.0001" y1="197.4019" x2="571.7155" y2="197.4019"/><line class="a" x1="50.0001" y1="281.327" x2="571.7155" y2="281.327"/><path class="b" d="M62.0356,44.9539l4.917,6.9565-.0244-6.9565h.876v8.3955h-.84l-5.0371-7.1123.0244,7.1123h-.876V44.9539Z"/><path class="b" d="M72.3549,47.4006a3.0409,3.0409,0,1,1-2.8427,3.0225A2.873,2.873,0,0,1,72.3549,47.4006Zm1.99,3.0342a2.0024,2.0024,0,1,0-3.97,0,2.0011,2.0011,0,1,0,3.97,0Z"/><path class="b" d="M77.0708,48.2161H75.86v-.72h1.211V45.8894l.8759-.2036v1.81h1.6787v.72H77.9467V51.802c0,.624.24.876.8516.876a2.0958,2.0958,0,0,0,.8271-.1563v.78a3.2852,3.2852,0,0,1-1.0195.1558c-1.0068,0-1.5351-.4917-1.5351-1.4273Z"/><path class="b" d="M83.3471,47.4006a3.0409,3.0409,0,1,1-2.8427,3.0225A2.873,2.873,0,0,1,83.3471,47.4006Zm1.99,3.0342a2.0024,2.0024,0,1,0-3.97,0,2.0011,2.0011,0,1,0,3.97,0Z"/><path class="b" d="M90.5356,51.37a3.91,3.91,0,0,0,2.9023,1.3076c1.2959,0,2.2432-.72,2.2432-1.6914,0-.8394-.5039-1.2354-1.8711-1.4751l-1.3555-.2281c-1.5351-.2758-2.2187-.9111-2.2187-2.0385,0-1.4156,1.1758-2.399,2.8789-2.399a5.4886,5.4886,0,0,1,3.3213,1.0674l-.48.72a4.7448,4.7448,0,0,0-2.83-1.0074c-1.1758,0-2.0029.6475-2.0029,1.523,0,.7436.456,1.1274,1.583,1.3076l1.3428.2275c1.7871.3238,2.5547.9956,2.5547,2.2549,0,1.4512-1.3428,2.5308-3.1895,2.5308a4.83,4.83,0,0,1-3.4424-1.4273Z"/><path class="b" d="M97.8794,51.67c0-1.0435.875-1.7388,2.1943-1.7388a3.3855,3.3855,0,0,1,1.7871.4556v-.8038a1.3177,1.3177,0,0,0-1.5107-1.4511,3.8664,3.8664,0,0,0-1.7754.5039l-.3243-.6719a5.0174,5.0174,0,0,1,2.2071-.5635c1.4511,0,2.2666.7315,2.2666,2.063v3.8858h-.8633v-.6836a2.5123,2.5123,0,0,1-1.8584.7915A1.8893,1.8893,0,0,1,97.8794,51.67Zm2.3027,1.1157a2.3171,2.3171,0,0,0,1.6787-.6719V50.9866a3.09,3.09,0,0,0-1.6553-.42c-.8994,0-1.4873.4322-1.4873,1.08C98.7182,52.33,99.3061,52.7859,100.1821,52.7859Z"/><path class="b" d="M104.5034,47.4963h.876v.9478a2.1075,2.1075,0,0,1,1.8583-1.0435,2.0367,2.0367,0,0,1,2.1231,2.1587v3.79h-.876V49.8113a1.5167,1.5167,0,0,0-1.57-1.6792,1.7246,1.7246,0,0,0-1.5351.8994v4.3179h-.876Z"/><path class="b" d="M111.0307,52.0183a3.0508,3.0508,0,0,0,1.8828.7315c.8516,0,1.4756-.4439,1.4756-1.0557,0-.48-.3125-.7315-1.0556-.8755l-.96-.168c-1.1387-.2036-1.6543-.6836-1.6543-1.5351,0-1.0073.875-1.7149,2.11-1.7149a3.7835,3.7835,0,0,1,2.2305.7315l-.4316.6118a3.104,3.104,0,0,0-1.835-.6235c-.7676,0-1.2715.36-1.2715.9355,0,.48.252.7075,1.0078.8394l.9834.18c1.1758.2164,1.7032.7081,1.7032,1.5713a2.0493,2.0493,0,0,1-2.2784,1.8111,3.3367,3.3367,0,0,1-2.375-.8633Z"/><path class="b" d="M121.65,53.4812a3.0272,3.0272,0,0,1-2.9864-2.147l.84-.3354a2.203,2.203,0,0,0,4.3174-.8277V44.9539h.9238v5.229A2.98,2.98,0,0,1,121.65,53.4812Z"/><path class="b" d="M126.7143,44.9539H130.18a2.49,2.49,0,1,1,0,4.9653h-2.542v3.43h-.9238Zm.9238.8159v3.3579h2.4346a1.6876,1.6876,0,1,0,0-3.3579Z"/><path class="b" d="M137.3579,44.9539h.9238v7.58h4.7373v.8155h-5.6611Z"/><path class="b" d="M144.2827,45.4216a.6294.6294,0,0,1,1.2588,0,.6294.6294,0,1,1-1.2588,0Zm1.0674,7.9278h-.876V47.4963h.876Z"/><path class="b" d="M146.8862,50.4231a2.8468,2.8468,0,0,1,2.7461-2.9985,2.3623,2.3623,0,0,1,1.8349.8276v-.7559h.8643v6.1529c0,1.4511-.876,2.2548-2.4707,2.2548a4.6955,4.6955,0,0,1-2.2793-.6118l.3721-.6714a3.9381,3.9381,0,0,0,1.8711.54c1.0673,0,1.6308-.5156,1.6308-1.499V52.5579a2.3066,2.3066,0,0,1-1.8711.8632A2.8243,2.8243,0,0,1,146.8862,50.4231Zm2.914,2.2427a2.0158,2.0158,0,0,0,1.6553-.7915V48.9836A2.1653,2.1653,0,1,0,149.8,52.6658Z"/><path class="b" d="M154.1342,44.7742l.876-.18v3.85a2.1076,2.1076,0,0,1,1.8584-1.0435,2.0367,2.0367,0,0,1,2.1231,2.1587v3.79h-.876V49.8113a1.5167,1.5167,0,0,0-1.57-1.6792,1.7248,1.7248,0,0,0-1.5352.8994v4.3179h-.876Z"/><path class="b" d="M161.2729,48.2161H160.062v-.72h1.2109V45.8894l.876-.2036v1.81h1.6787v.72h-1.6787V51.802c0,.624.24.876.8515.876a2.0963,2.0963,0,0,0,.8272-.1563v.78a3.2857,3.2857,0,0,1-1.0195.1558c-1.0069,0-1.5352-.4917-1.5352-1.4273Z"/><path class="b" d="M62.0356,128.8791l4.917,6.9566-.0244-6.9566h.876v8.3956h-.84l-5.0371-7.1123.0244,7.1123h-.876v-8.3956Z"/><path class="b" d="M72.3549,131.3259a3.0409,3.0409,0,1,1-2.8427,3.0225A2.873,2.873,0,0,1,72.3549,131.3259Zm1.99,3.0342a2.0024,2.0024,0,1,0-3.97,0,2.0011,2.0011,0,1,0,3.97,0Z"/><path class="b" d="M77.0708,132.1414H75.86v-.72h1.211v-1.6069l.8759-.2036v1.8105h1.6787v.72H77.9467v3.5859c0,.624.24.876.8516.876a2.0958,2.0958,0,0,0,.8271-.1563v.78a3.2852,3.2852,0,0,1-1.0195.1558c-1.0068,0-1.5351-.4917-1.5351-1.4273Z"/><path class="b" d="M83.3471,131.3259a3.0409,3.0409,0,1,1-2.8427,3.0225A2.873,2.873,0,0,1,83.3471,131.3259Zm1.99,3.0342a2.0024,2.0024,0,1,0-3.97,0,2.0011,2.0011,0,1,0,3.97,0Z"/><path class="b" d="M90.5356,135.2957a3.91,3.91,0,0,0,2.9023,1.3076c1.2959,0,2.2432-.72,2.2432-1.6914,0-.8394-.5039-1.2354-1.8711-1.4751l-1.3555-.2281c-1.5351-.2758-2.2187-.9111-2.2187-2.0385,0-1.4156,1.1758-2.399,2.8789-2.399a5.4886,5.4886,0,0,1,3.3213,1.0674l-.48.72a4.7454,4.7454,0,0,0-2.83-1.0073c-1.1758,0-2.0029.6475-2.0029,1.523,0,.7436.456,1.1274,1.583,1.3076l1.3428.2275c1.7871.3238,2.5547.9956,2.5547,2.2549,0,1.4512-1.3428,2.5308-3.1895,2.5308a4.83,4.83,0,0,1-3.4424-1.4273Z"/><path class="b" d="M97.8794,135.5955c0-1.0435.875-1.7388,2.1943-1.7388a3.3855,3.3855,0,0,1,1.7871.4556v-.8038a1.3177,1.3177,0,0,0-1.5107-1.4511,3.8664,3.8664,0,0,0-1.7754.5039l-.3243-.6719a5.0174,5.0174,0,0,1,2.2071-.5635c1.4511,0,2.2666.7315,2.2666,2.063v3.8858h-.8633v-.6836a2.5123,2.5123,0,0,1-1.8584.7915A1.8893,1.8893,0,0,1,97.8794,135.5955Zm2.3027,1.1157a2.3171,2.3171,0,0,0,1.6787-.6719v-1.1274a3.09,3.09,0,0,0-1.6553-.42c-.8994,0-1.4873.4322-1.4873,1.08C98.7182,136.2551,99.3061,136.7112,100.1821,136.7112Z"/><path class="b" d="M104.5034,131.4216h.876v.9478a2.1075,2.1075,0,0,1,1.8583-1.0435,2.0367,2.0367,0,0,1,2.1231,2.1587v3.79h-.876v-3.5381a1.5167,1.5167,0,0,0-1.57-1.6792,1.7246,1.7246,0,0,0-1.5351.8994v4.3179h-.876Z"/><path class="b" d="M111.0307,135.9436a3.0506,3.0506,0,0,0,1.8828.7314c.8516,0,1.4756-.4438,1.4756-1.0556,0-.48-.3125-.7315-1.0556-.8755l-.96-.168c-1.1387-.2036-1.6543-.6836-1.6543-1.5351,0-1.0074.875-1.7149,2.11-1.7149a3.7835,3.7835,0,0,1,2.2305.7315l-.4316.6118a3.1034,3.1034,0,0,0-1.835-.6235c-.7676,0-1.2715.36-1.2715.9355,0,.48.252.7075,1.0078.8394l.9834.18c1.1758.2163,1.7032.708,1.7032,1.5713a2.0493,2.0493,0,0,1-2.2784,1.8111,3.3367,3.3367,0,0,1-2.375-.8633Z"/><path class="b" d="M121.65,137.4065a3.0272,3.0272,0,0,1-2.9864-2.147l.84-.3354a2.203,2.203,0,0,0,4.3174-.8277v-5.2173h.9238v5.2291A2.98,2.98,0,0,1,121.65,137.4065Z"/><path class="b" d="M126.7143,128.8791H130.18a2.49,2.49,0,1,1,0,4.9654h-2.542v3.43h-.9238Zm.9238.816v3.3579h2.4346a1.6876,1.6876,0,1,0,0-3.3579Z"/><path class="b" d="M137.3579,128.8791H140.8a2.416,2.416,0,0,1,2.6739,2.4229,2.2838,2.2838,0,0,1-1.751,2.2666l1.7871,3.7061h-1.0195l-1.7031-3.586h-2.5059v3.586h-.9238Zm.9238.816v3.226h2.4463a1.6251,1.6251,0,1,0,0-3.226Z"/><path class="b" d="M147.2924,137.3826a2.9208,2.9208,0,0,1-2.9023-3.0342,2.8485,2.8485,0,0,1,2.7588-3.0225,2.765,2.765,0,0,1,2.6865,2.95v.2642h-4.5937a2.133,2.133,0,0,0,2.0869,2.0747,2.3953,2.3953,0,0,0,1.6074-.6l.5508.5879A3.4166,3.4166,0,0,1,147.2924,137.3826Zm-2.0273-3.4659h3.706a1.9327,1.9327,0,0,0-1.8349-1.8354A1.9559,1.9559,0,0,0,145.2651,133.9167Z"/><path class="b" d="M151.0864,134.3484a2.8468,2.8468,0,0,1,2.7461-2.9985,2.3623,2.3623,0,0,1,1.8349.8276v-.7559h.8643v6.1529c0,1.4511-.876,2.2548-2.4707,2.2548a4.6955,4.6955,0,0,1-2.2793-.6118l.3721-.6714a3.9378,3.9378,0,0,0,1.8711.54c1.0673,0,1.6308-.5156,1.6308-1.499v-1.1035a2.3066,2.3066,0,0,1-1.8711.8632A2.8243,2.8243,0,0,1,151.0864,134.3484ZM154,136.5911a2.0159,2.0159,0,0,0,1.6553-.7915v-2.8907A2.1653,2.1653,0,1,0,154,136.5911Z"/><path class="b" d="M159.185,134.948a1.512,1.512,0,0,0,1.56,1.6909,1.7385,1.7385,0,0,0,1.5351-.8872v-4.33h.875v5.8531h-.875v-.9473a2.0966,2.0966,0,0,1-1.8593,1.0434,2.0464,2.0464,0,0,1-2.1231-2.1709v-3.7783h.8877Z"/><path class="b" d="M165.8335,137.2747h-.876V128.7l.876-.18Z"/><path class="b" d="M167.3217,135.5955c0-1.0435.875-1.7388,2.1944-1.7388a3.3857,3.3857,0,0,1,1.7871.4556v-.8038a1.3177,1.3177,0,0,0-1.5108-1.4511,3.8667,3.8667,0,0,0-1.7754.5039l-.3232-.6719a5.01,5.01,0,0,1,2.2061-.5635c1.4511,0,2.2666.7315,2.2666,2.063v3.8858h-.8633v-.6836a2.5123,2.5123,0,0,1-1.8584.7915A1.8893,1.8893,0,0,1,167.3217,135.5955Zm2.3028,1.1157a2.3173,2.3173,0,0,0,1.6787-.6719v-1.1274a3.09,3.09,0,0,0-1.6553-.42c-.8994,0-1.4873.4322-1.4873,1.08C168.1606,136.2551,168.7485,136.7112,169.6245,136.7112Z"/><path class="b" d="M173.9458,131.4216h.8759v1.1875a1.7479,1.7479,0,0,1,1.6309-1.2954,1.67,1.67,0,0,1,.5518.084v.7915a2.2066,2.2066,0,0,0-.6124-.1079,1.6685,1.6685,0,0,0-1.57,1.1875v4.0059h-.8759Z"/><path class="b" d="M62.0356,212.804l4.917,6.9565-.0244-6.9565h.876V221.2h-.84l-5.0371-7.1123.0244,7.1123h-.876V212.804Z"/><path class="b" d="M72.3549,215.2507a3.0409,3.0409,0,1,1-2.8427,3.0225A2.873,2.873,0,0,1,72.3549,215.2507Zm1.99,3.0342a2.0024,2.0024,0,1,0-3.97,0,2.0011,2.0011,0,1,0,3.97,0Z"/><path class="b" d="M77.0708,216.0662H75.86v-.72h1.211V213.74l.8759-.2036v1.81h1.6787v.72H77.9467v3.5859c0,.624.24.876.8516.876a2.0958,2.0958,0,0,0,.8271-.1563v.78a3.2852,3.2852,0,0,1-1.0195.1558c-1.0068,0-1.5351-.4917-1.5351-1.4273Z"/><path class="b" d="M83.3471,215.2507a3.0409,3.0409,0,1,1-2.8427,3.0225A2.873,2.873,0,0,1,83.3471,215.2507Zm1.99,3.0342a2.0024,2.0024,0,1,0-3.97,0,2.0011,2.0011,0,1,0,3.97,0Z"/><path class="b" d="M90.5356,219.2205a3.91,3.91,0,0,0,2.9023,1.3076c1.2959,0,2.2432-.72,2.2432-1.6914,0-.8394-.5039-1.2354-1.8711-1.4751l-1.3555-.2281c-1.5351-.2758-2.2187-.9111-2.2187-2.0385,0-1.4156,1.1758-2.399,2.8789-2.399a5.4886,5.4886,0,0,1,3.3213,1.0674l-.48.72a4.7448,4.7448,0,0,0-2.83-1.0074c-1.1758,0-2.0029.6475-2.0029,1.523,0,.7436.456,1.1274,1.583,1.3076l1.3428.2275c1.7871.3238,2.5547.9956,2.5547,2.2549,0,1.4512-1.3428,2.5308-3.1895,2.5308a4.83,4.83,0,0,1-3.4424-1.4273Z"/><path class="b" d="M97.8794,219.52c0-1.0435.875-1.7388,2.1943-1.7388a3.3855,3.3855,0,0,1,1.7871.4556v-.8038a1.3177,1.3177,0,0,0-1.5107-1.4511,3.8664,3.8664,0,0,0-1.7754.5039l-.3243-.6719a5.0174,5.0174,0,0,1,2.2071-.5635c1.4511,0,2.2666.7315,2.2666,2.063V221.2h-.8633v-.6836a2.5123,2.5123,0,0,1-1.8584.7915A1.8893,1.8893,0,0,1,97.8794,219.52Zm2.3027,1.1157a2.3171,2.3171,0,0,0,1.6787-.6719v-1.1274a3.09,3.09,0,0,0-1.6553-.42c-.8994,0-1.4873.4322-1.4873,1.08C98.7182,220.18,99.3061,220.636,100.1821,220.636Z"/><path class="b" d="M104.5034,215.3464h.876v.9478a2.1075,2.1075,0,0,1,1.8583-1.0435,2.0367,2.0367,0,0,1,2.1231,2.1587v3.79h-.876v-3.5381a1.5167,1.5167,0,0,0-1.57-1.6792,1.7246,1.7246,0,0,0-1.5351.8994V221.2h-.876Z"/><path class="b" d="M111.0307,219.8684a3.0508,3.0508,0,0,0,1.8828.7315c.8516,0,1.4756-.4439,1.4756-1.0557,0-.48-.3125-.7315-1.0556-.8755l-.96-.168c-1.1387-.2036-1.6543-.6836-1.6543-1.5351,0-1.0074.875-1.7149,2.11-1.7149a3.7835,3.7835,0,0,1,2.2305.7315l-.4316.6118a3.104,3.104,0,0,0-1.835-.6235c-.7676,0-1.2715.36-1.2715.9355,0,.48.252.7075,1.0078.8394l.9834.18c1.1758.2164,1.7032.7081,1.7032,1.5713a2.0493,2.0493,0,0,1-2.2784,1.8111,3.3367,3.3367,0,0,1-2.375-.8633Z"/><path class="b" d="M121.65,221.3313a3.0272,3.0272,0,0,1-2.9864-2.147l.84-.3354a2.203,2.203,0,0,0,4.3174-.8277V212.804h.9238v5.229A2.98,2.98,0,0,1,121.65,221.3313Z"/><path class="b" d="M126.7143,212.804H130.18a2.49,2.49,0,1,1,0,4.9653h-2.542v3.43h-.9238Zm.9238.8159v3.3579h2.4346a1.6876,1.6876,0,1,0,0-3.3579Z"/><path class="b" d="M140.7524,212.804c1.5352,0,2.53.84,2.53,2.1347a1.9411,1.9411,0,0,1-1.4873,1.895,2.0859,2.0859,0,0,1,1.8115,2.0391c0,1.4033-1.08,2.3267-2.7227,2.3267h-3.5263V212.804Zm-2.4707.7915v2.8784H140.68c1.02,0,1.6787-.5635,1.6787-1.439s-.6591-1.4394-1.6787-1.4394Zm4.39,5.2172c0-.9594-.7324-1.583-1.8837-1.583h-2.5059v3.1783h2.5059C141.9272,220.408,142.6713,219.7722,142.6713,218.8127Z"/><path class="b" d="M147.7973,215.2507a3.0409,3.0409,0,1,1-2.8428,3.0225A2.8722,2.8722,0,0,1,147.7973,215.2507Zm1.99,3.0342a2.0024,2.0024,0,1,0-3.97,0,2.0011,2.0011,0,1,0,3.97,0Z"/><path class="b" d="M153.0659,221.2h-.876v-8.5752l.876-.18Z"/><path class="b" d="M159.1713,220.42a2.3056,2.3056,0,0,1-1.8711.8637,3.0191,3.0191,0,0,1,.0479-6.0087,2.385,2.385,0,0,1,1.8232.8154v-3.4658l.876-.18V221.2h-.876Zm-1.6552.0962a2.0048,2.0048,0,0,0,1.6552-.78v-2.9024a2.1653,2.1653,0,1,0-1.6552,3.6822Z"/><path class="b" d="M62.0356,296.7292l4.917,6.9566-.0244-6.9566h.876v8.3956h-.84l-5.0371-7.1124.0244,7.1124h-.876v-8.3956Z"/><path class="b" d="M72.3549,299.176a3.0409,3.0409,0,1,1-2.8427,3.0225A2.873,2.873,0,0,1,72.3549,299.176Zm1.99,3.0342a2.0024,2.0024,0,1,0-3.97,0,2.0011,2.0011,0,1,0,3.97,0Z"/><path class="b" d="M77.0708,299.9915H75.86v-.72h1.211v-1.6069l.8759-.2036v1.81h1.6787v.72H77.9467v3.5859c0,.624.24.876.8516.876a2.0958,2.0958,0,0,0,.8271-.1563v.78a3.2852,3.2852,0,0,1-1.0195.1558c-1.0068,0-1.5351-.4917-1.5351-1.4273Z"/><path class="b" d="M83.3471,299.176a3.0409,3.0409,0,1,1-2.8427,3.0225A2.873,2.873,0,0,1,83.3471,299.176Zm1.99,3.0342a2.0024,2.0024,0,1,0-3.97,0,2.0011,2.0011,0,1,0,3.97,0Z"/><path class="b" d="M90.5356,303.1457a3.91,3.91,0,0,0,2.9023,1.3077c1.2959,0,2.2432-.72,2.2432-1.6914,0-.8394-.5039-1.2354-1.8711-1.4751l-1.3555-.2281c-1.5351-.2758-2.2187-.9111-2.2187-2.0385,0-1.4156,1.1758-2.399,2.8789-2.399a5.4886,5.4886,0,0,1,3.3213,1.0674l-.48.72a4.7454,4.7454,0,0,0-2.83-1.0073c-1.1758,0-2.0029.6475-2.0029,1.523,0,.7436.456,1.1274,1.583,1.3076l1.3428.2275c1.7871.3238,2.5547.9956,2.5547,2.2549,0,1.4512-1.3428,2.5308-3.1895,2.5308a4.83,4.83,0,0,1-3.4424-1.4273Z"/><path class="b" d="M97.8794,303.4456c0-1.0435.875-1.7388,2.1943-1.7388a3.3855,3.3855,0,0,1,1.7871.4556v-.8038a1.3177,1.3177,0,0,0-1.5107-1.4511,3.8664,3.8664,0,0,0-1.7754.5039L98.25,299.74a5.0174,5.0174,0,0,1,2.2071-.5635c1.4511,0,2.2666.7315,2.2666,2.063v3.8858h-.8633v-.6836a2.5123,2.5123,0,0,1-1.8584.7915A1.8893,1.8893,0,0,1,97.8794,303.4456Zm2.3027,1.1157a2.3171,2.3171,0,0,0,1.6787-.6719V302.762a3.09,3.09,0,0,0-1.6553-.42c-.8994,0-1.4873.4322-1.4873,1.08C98.7182,304.1052,99.3061,304.5613,100.1821,304.5613Z"/><path class="b" d="M104.5034,299.2717h.876v.9478a2.1075,2.1075,0,0,1,1.8583-1.0435,2.0367,2.0367,0,0,1,2.1231,2.1587v3.79h-.876v-3.5381a1.5167,1.5167,0,0,0-1.57-1.6792,1.7246,1.7246,0,0,0-1.5351.8994v4.3179h-.876Z"/><path class="b" d="M111.0307,303.7937a3.0506,3.0506,0,0,0,1.8828.7314c.8516,0,1.4756-.4438,1.4756-1.0556,0-.4795-.3125-.7315-1.0556-.8755l-.96-.168c-1.1387-.2036-1.6543-.6836-1.6543-1.5351,0-1.0074.875-1.7149,2.11-1.7149a3.7828,3.7828,0,0,1,2.2305.7315l-.4316.6118a3.1035,3.1035,0,0,0-1.835-.6236c-.7676,0-1.2715.36-1.2715.9356,0,.4795.252.7075,1.0078.8394l.9834.18c1.1758.2163,1.7032.708,1.7032,1.5713a2.0493,2.0493,0,0,1-2.2784,1.8111,3.3367,3.3367,0,0,1-2.375-.8633Z"/><path class="b" d="M122.91,296.7292c1.5352,0,2.53.84,2.53,2.1348a1.9411,1.9411,0,0,1-1.4873,1.895,2.0859,2.0859,0,0,1,1.8115,2.0391c0,1.4033-1.08,2.3267-2.7226,2.3267h-3.5264v-8.3956Zm-2.4707.7915v2.8785h2.3985c1.0195,0,1.6787-.5635,1.6787-1.439s-.6592-1.44-1.6787-1.44Zm4.39,5.2173c0-.9594-.7325-1.583-1.8838-1.583h-2.5059v3.1782h2.5059C124.0844,304.3332,124.8286,303.6975,124.8286,302.738Z"/><path class="b" d="M128.25,305.1248h-.8759V296.55l.8759-.18Z"/><path class="b" d="M129.7387,303.4456c0-1.0435.875-1.7388,2.1944-1.7388a3.386,3.386,0,0,1,1.7871.4556v-.8038a1.3177,1.3177,0,0,0-1.5108-1.4511,3.8667,3.8667,0,0,0-1.7754.5039l-.3242-.6719a5.0171,5.0171,0,0,1,2.2071-.5635c1.4511,0,2.2666.7315,2.2666,2.063v3.8858H133.72v-.6836a2.5124,2.5124,0,0,1-1.8584.7915A1.8893,1.8893,0,0,1,129.7387,303.4456Zm2.3028,1.1157a2.3173,2.3173,0,0,0,1.6787-.6719V302.762a3.09,3.09,0,0,0-1.6553-.42c-.8994,0-1.4873.4322-1.4873,1.08C130.5776,304.1052,131.1655,304.5613,132.0415,304.5613Z"/><path class="b" d="M140.6684,303.7454l.54.54a3.0438,3.0438,0,0,1-2.2188.9473,3.0316,3.0316,0,0,1,0-6.0567,3.1946,3.1946,0,0,1,2.2549.9116l-.5645.6114a2.3,2.3,0,0,0-1.6543-.7315,2.2447,2.2447,0,0,0,.0118,4.4737A2.155,2.155,0,0,0,140.6684,303.7454Z"/><path class="b" d="M142.47,296.55l.8759-.18v5.5293l2.7823-2.627h1.0556l-2.9746,2.7827,3.1065,3.07h-1.1514l-2.8184-2.7945v2.7945H142.47Z"/><path d="M79.1577,72.1843c.5517,0,1.3681-.0718,1.8-.12v1.3437c-.4561-.0239-1.2237-.0717-1.7764-.0717h-4.248c.0478,3.6723.1445,8.8808.1445,11.7607,0,1.1045-.6729,1.6323-1.8965,1.6323-1.08,0-2.5684-.0722-3.6484-.144L69.437,85.29a23.7064,23.7064,0,0,0,3.5039.2876c.7207,0,.9365-.312.9365-.936,0-2.0879-.0479-6.4322-.0967-9.9849A34.3632,34.3632,0,0,1,62.86,84.1614l-.8877-1.0078a31.047,31.047,0,0,0,11.3291-9.8169H64.5639c-.7676,0-1.248.0478-1.9678.0957V72.0647a18.47,18.47,0,0,0,1.9678.12h9.1934c-.0244-1.248-.0479-2.208-.0723-2.688a9.42,9.42,0,0,0-.1924-1.7524h1.5127a14.2912,14.2912,0,0,0-.12,1.7524c0,.48.0244,1.44.0244,2.688Z"/><path d="M84.436,76.3127c.624.0479,1.6328.0962,3.0488.0962h13.2969a24.2477,24.2477,0,0,0,2.4482-.0962V77.801c-.4316-.0239-1.32-.0722-2.4238-.0722H87.4848c-1.32,0-2.4.0244-3.0488.0722Z"/><path d="M120.9653,70.1921h.456a2.4027,2.4027,0,0,1-.1679-.936,2.5613,2.5613,0,0,1,2.5683-2.5923,2.58,2.58,0,1,1,0,5.1607,2.5708,2.5708,0,0,1-1.2236-.3121l-.0244.0962c-.5039,2.64-1.7285,6.5762-3.5527,8.9288a17.8541,17.8541,0,0,1-9.337,6.2885l-1.0556-1.1523a16.0817,16.0817,0,0,0,9.3369-5.88,20.0966,20.0966,0,0,0,3.3359-8.4248H108.3647c-.8643,0-1.4883.0239-2.1123.0718V70.0481a18.261,18.261,0,0,0,2.1357.144Zm4.5605-.936a1.7043,1.7043,0,1,0-3.4082,0,1.7043,1.7043,0,0,0,3.4082,0Z"/><path d="M138.5336,81.4734a22.1549,22.1549,0,0,0,7.5606-8.5449l.7441,1.2719a23.2155,23.2155,0,0,1-7.5839,8.3291,26.3928,26.3928,0,0,1-9.7452,3.9361l-.792-1.2481A24.2846,24.2846,0,0,0,138.5336,81.4734Zm-2.28-7.5127-.9356.936a51.9418,51.9418,0,0,0-5.9531-4.92l.8408-.8882A55.13,55.13,0,0,1,136.2534,73.9607Z"/><path d="M150.604,69.448c.9843,1.4644,3.1445,5.1846,3.9609,6.6728l-1.1768.6719a66.9294,66.9294,0,0,0-3.96-6.7446Zm10.6816,9.1689a20.6807,20.6807,0,0,0,3.0723-8.1606,9.5331,9.5331,0,0,0,.1435-1.416l1.5127.2158a9.1717,9.1717,0,0,0-.3369,1.3442,24.375,24.375,0,0,1-3.2637,8.6646,19.9626,19.9626,0,0,1-8.6172,7.417l-1.1279-.96A18.6232,18.6232,0,0,0,161.2856,78.6169Z"/><path d="M169.853,76.3127c.624.0479,1.6328.0962,3.0488.0962h13.2969a24.2477,24.2477,0,0,0,2.4482-.0962V77.801c-.4316-.0239-1.32-.0722-2.4238-.0722H172.9018c-1.32,0-2.4.0244-3.0488.0722Z"/><path d="M207.39,70.3362a4.129,4.129,0,0,0-.4316.792,29.9082,29.9082,0,0,1-4.2012,7.2968A72.2265,72.2265,0,0,1,209.934,85.77l-1.0322.9121a62.0568,62.0568,0,0,0-6.9365-7.3447,30.435,30.435,0,0,1-9.6006,7.1767l-.96-1.0322a27.5065,27.5065,0,0,0,9.9131-7.2725,22.8407,22.8407,0,0,0,4.2237-7.1528H195.4848c-.7676,0-2.0644.0962-2.1836.0962V69.7361c.1436.0239,1.44.12,2.1836.12h9.7207a5.0122,5.0122,0,0,0,1.3926-.144Z"/><path d="M214.7319,70.7444c1.2725-.12,6.0967-.648,10.4892-1.0083,2.6885-.2158,4.6807-.36,6.2168-.4077V70.6a17.2773,17.2773,0,0,0-4.6806.4082,8.92,8.92,0,0,0-5.6885,7.9927c0,5.0884,4.7285,6.5762,8.4727,6.6963l-.4317,1.2241c-4.0566-.0717-9.2412-2.2319-9.2412-7.6323a9.7381,9.7381,0,0,1,4.9209-8.4009c-2.0889.2158-9.4336.9121-11.9053,1.416l-.1679-1.44C213.6284,70.8406,214.2524,70.7922,214.7319,70.7444ZM230.07,77.2009l-.9121.4322A25.9735,25.9735,0,0,0,227.1655,74.2l.8642-.3838A27.9613,27.9613,0,0,1,230.07,77.2009Zm2.664-.96-.8877.456a23.7152,23.7152,0,0,0-2.0644-3.4326l.84-.4077A27.7329,27.7329,0,0,1,232.7338,76.241Z"/><path d="M244.71,74.4885c0,1.5845.12,3.96.2158,6.0244a18.0069,18.0069,0,0,1,7.4649,4.0328l-.72,1.1757a16.1525,16.1525,0,0,0-6.6972-3.9843c.0244.768.0488,1.4643.0488,1.9921,0,1.8243-1.2725,3.3365-3.9609,3.3365-3.1924,0-5.4-1.0078-5.4-3.4322,0-1.9443,1.7041-3.6,5.665-3.6a12.8682,12.8682,0,0,1,2.376.2163c-.0967-1.9683-.1924-4.2246-.1924-5.7608,0-1.3681-.0234-3.624-.0234-4.6323a12.6511,12.6511,0,0,0-.168-2.1362h1.5361a17.92,17.92,0,0,0-.1445,2.1362c-.0244.6724,0,1.68,0,2.7842a72.0177,72.0177,0,0,0,7.249-.4561l.0479,1.2c-2.1846.2163-5.3291.3843-7.2969.4321Zm-.96,6.9365a12.6668,12.6668,0,0,0-2.5205-.2636c-2.8076,0-4.3681.96-4.3681,2.4482,0,1.3921,1.416,2.28,4.0566,2.28,1.8721,0,2.88-.8882,2.88-2.5684C243.7983,82.8415,243.7739,82.1931,243.75,81.425Z"/><path d="M260.5024,67.6a47.39,47.39,0,0,0-1.2,7.6088c.84-2.832,3.5762-6.3364,6.792-6.3364,3.0488,0,5.1611,3.12,5.1611,7.9927,0,6.5044-4.1767,9.2646-9.8174,10.2729l-.7441-1.1284c5.0889-.7441,9.3135-3.0239,9.3135-9.1206,0-3.8164-1.2725-6.8887-4.0811-6.8887-3.0722,0-5.9765,4.3682-6.3847,7.4888a10.6626,10.6626,0,0,0,.0244,3.1441l-1.2237.0961a31.9422,31.9422,0,0,1-.24-3.6484,65.8133,65.8133,0,0,1,.7676-7.7285c.0967-.6724.168-1.2481.1924-1.8Z"/><path d="M295.5669,79.4573a42.6253,42.6253,0,0,1-6.4571,4.104,16.0682,16.0682,0,0,0,7.8731,3.4565,4.6088,4.6088,0,0,0-.72,1.0078c-6.0244-1.2-9.913-4.32-11.7851-9.5044h-4.6563V86.13c2.2559-.36,4.8487-.8159,7.3926-1.248l.0723,1.0561c-3.961.72-8.1367,1.44-10.97,1.92l-.2881-1.104c.7685-.12,1.6562-.2642,2.6406-.4322V68.6082h6.7685V66.2561h1.1758v2.3521h7.2969v9.913h-8.28a12.4305,12.4305,0,0,0,2.76,4.3682,46.0145,46.0145,0,0,0,6.2891-4.1523Zm-15.7452-9.793v3.36h12.9366v-3.36Zm0,7.8008h12.9366V74.0325H279.8217Z"/><path d="M302.4292,71.7522a53.6218,53.6218,0,0,0,.1923,5.9526c.4317,4.32,1.8,7.0806,3.6241,7.0806,1.2724,0,2.4726-2.2319,3.1923-4.92l1.0079,1.0322c-1.3682,3.96-2.7842,5.3047-4.2247,5.3047-2.04,0-4.1279-2.2085-4.8-8.2329-.2158-1.9683-.24-4.92-.24-6.2647a12.8614,12.8614,0,0,0-.12-1.9443l1.5127.0483C302.5249,70.2161,302.4536,71.1765,302.4292,71.7522ZM319.351,81.8811l-1.248.5044A23.0086,23.0086,0,0,0,314.0463,70.96l1.2-.4316A24.5874,24.5874,0,0,1,319.351,81.8811Z"/><path d="M329.55,78.0652c-1.0322.312-2.0644.6479-3.0722.9839v7.3925c0,.84-.24,1.1524-.7442,1.3682a10.3947,10.3947,0,0,1-3.0722.1919,5.1607,5.1607,0,0,0-.3838-1.0561c1.248.0244,2.3037.0244,2.5918,0,.3359,0,.4805-.12.4805-.48V79.4089c-1.1524.3365-2.2325.6963-3.1924.9844l-.3848-1.1284c.9844-.2637,2.2324-.624,3.5772-1.0317V72.4006H322.061V71.2961H325.35V66.28h1.1279v5.0161h2.832v1.1045h-2.832v5.4961c.96-.2876,1.9678-.6,2.9277-.8877ZM342.08,75.7126a17.8115,17.8115,0,0,1-5.0888,7.8726,16.5815,16.5815,0,0,0,6.6006,3.4805,4.3685,4.3685,0,0,0-.7686.9843,16.7443,16.7443,0,0,1-6.6719-3.7446A22.0016,22.0016,0,0,1,328.95,88.05a5.0768,5.0768,0,0,0-.6241-1.0561,19.2958,19.2958,0,0,0,6.9854-3.48,19.27,19.27,0,0,1-4.249-7.0088h-.8643v-1.104h5.4248V71.3684h-5.9287v-1.104h5.9287V66.28h1.1524v3.9844h5.9765v1.104h-5.9765v4.0322h4.3437l.24-.0478Zm-9.8652.792a17.2518,17.2518,0,0,0,3.9844,6.313,16.3242,16.3242,0,0,0,4.416-6.313Z"/><path d="M351.87,71.3206a24.9509,24.9509,0,0,1-2.28,3.72V88.05h-1.08V76.4089a22.9329,22.9329,0,0,1-2.5195,2.544,6.6431,6.6431,0,0,0-.7686-.9361,21.4456,21.4456,0,0,0,5.5928-7.0566Zm-.7442-4.6329a22.296,22.296,0,0,1-4.8,5.4009,5.9709,5.9709,0,0,0-.7207-.84,17.2533,17.2533,0,0,0,4.417-4.9683Zm2.7364,9.4571a25.4528,25.4528,0,0,1-1.8721,8.833,5.6444,5.6444,0,0,0-.9355-.5523c1.1035-2.0639,1.5361-5.1606,1.7519-8.4008Zm3.0722-3.4082V87.6658h-1.1035V72.7366h-3.8642v-1.08h3.8642v-5.04h1.1035v5.04h3.9844v1.08Zm3.2647-2.1123a15.3388,15.3388,0,0,0-2.28-3.3365l.792-.456a13.9047,13.9047,0,0,1,2.3281,3.2886Zm-.6963,5.4487a39.0053,39.0053,0,0,1,1.4639,7.1045l-1.0078.1919a41.156,41.156,0,0,0-1.4405-7.1284Zm8.0889-.7441h-2.3282V86.49c0,.7681-.1923,1.1284-.7685,1.3442a13.7864,13.7864,0,0,1-3.36.1919,6.293,6.293,0,0,0-.3593-1.1518c1.3916.0478,2.5683.0478,2.9043.0478.3837-.0239.4794-.12.4794-.4321V75.3289h-3.1679v-1.08h6.6006Zm-.336-6.4805h-5.7129v-1.08h5.7129Z"/><path d="M380.9585,83.1536c.0478-1.0083.0957-2.8565.0957-4.1768-2.4483,1.2964-4.3682,2.6885-4.3682,4.5127,0,2.16,2.2559,2.4,4.8008,2.4a43.5988,43.5988,0,0,0,6.3125-.5283l-.0244,1.2719a56.4707,56.4707,0,0,1-6.36.3843c-3.2168,0-5.9287-.624-5.9287-3.4082,0-2.6406,2.7119-4.3447,5.5205-5.8086h.0244a2.0868,2.0868,0,0,0-2.3525-1.872,6.4682,6.4682,0,0,0-4.32,1.8,29.66,29.66,0,0,0-2.16,2.4243l-1.08-.8159a24.706,24.706,0,0,0,5.5918-7.7046c-.48.0239-.96.0239-1.3916.0239-1.0566,0-2.52-.0479-3.8408-.12V70.2883a34.0674,34.0674,0,0,0,3.9131.24c.5762,0,1.1514,0,1.7519-.0245a13.41,13.41,0,0,0,.72-3.0722l1.2724.0962c-.1679.7441-.4082,1.8-.7685,2.9521a58.7844,58.7844,0,0,0,7.56-.7441v1.2a66.022,66.022,0,0,1-7.9677.6723,17.4321,17.4321,0,0,1-2.5928,4.3921,6.9228,6.9228,0,0,1,3.624-1.1279,2.9276,2.9276,0,0,1,3.1445,2.376c1.8487-.8882,3.6006-1.584,5.0166-2.232.5762-.2641,1.0078-.48,1.5362-.768l.5283,1.2241c-.5039.144-1.1045.3838-1.6563.6-1.5127.6-3.4326,1.3677-5.4,2.3281,0,1.3682.0235,3.5762.0479,4.7525Z"/><path d="M413.5034,86.0818V87.21H392.31V86.0818h10.0088V79.241h-7.5127V78.113h7.5127v-5.88h-6.0723a18.9116,18.9116,0,0,1-2.6884,4.2c-.2159-.168-.7442-.5039-1.0323-.6719a22.4079,22.4079,0,0,0,4.5127-9.001l1.1758.24a38.2064,38.2064,0,0,1-1.4639,4.128h5.5684V66.28h1.1758v4.8482h8.9287v1.1045h-8.9287v5.88h8.0889v1.128h-8.0889v6.8408Z"/><path d="M436.7114,82.0012a22.5558,22.5558,0,0,0-2.7842-2.0161,11.0033,11.0033,0,0,1-6.36,7.4409l-1.0323-.8642a10.1994,10.1994,0,0,0,6.3369-7.1768,17.7462,17.7462,0,0,0-7.4648-2.2319,46.3823,46.3823,0,0,1-3.1445,6.4565,2.946,2.946,0,0,1-2.5918,1.416,2.7641,2.7641,0,0,1-2.7842-2.9282c0-3.4326,3.2158-6.0488,7.8008-6.0967.96-2.0879,1.9443-4.3442,2.7841-6.0244-.96.0479-4.2968.2158-5.4.2642-.5528.0478-1.128.0957-1.6563.1679l-.0723-1.3681c.5762.0478,1.1758.0478,1.6563.0478,1.2,0,4.6562-.1919,5.6162-.2641a3.0407,3.0407,0,0,0,.8887-.1919l.8154.6723a4.3632,4.3632,0,0,0-.5273.6958c-.6963,1.0562-1.8243,3.7442-2.8809,6.0484a19.3714,19.3714,0,0,1,7.249,2.1362,20.3208,20.3208,0,0,0,.2881-2.352c.0234-.48.0479-1.2.0234-1.9444l1.2725.1441a32.2363,32.2363,0,0,1-.5283,4.7046,29.5381,29.5381,0,0,1,3.0488,1.9682Zm-12.5772-4.8725c-3.8877.1923-6.0957,2.4965-6.0957,4.8486a1.6713,1.6713,0,0,0,1.6319,1.8242,1.8,1.8,0,0,0,1.5605-.84A37.5492,37.5492,0,0,0,424.1342,77.1287Z"/><path d="M459.5835,78.2332v9.7207h-1.1768V86.4416H442.3979v1.584h-1.1523V78.2332h1.1523v7.1044H449.67V76.553h-7.5127V68.5842h1.1279v6.84H449.67V66.3518h1.1523v9.0728h6.624v-6.84h1.1768V76.553h-7.8008v8.7846h7.584V78.2332Z"/><path d="M476.4311,70.7205c3.168,0,5.6885.0239,6.72.0239l-.0234,1.2c-1.248-.0723-3.24-.0962-6.6963-.0962H475.59c.0244,1.416.0244,2.9761.0488,4.0806a5.52,5.52,0,0,1,.72,2.9282c0,3.2641-1.3925,6.6484-6.7685,8.3047l-1.1045-1.0562c3.6484-.8642,5.7363-2.5923,6.4092-5.2085a3.0367,3.0367,0,0,1-2.4483,1.1519,3.6141,3.6141,0,0,1-3.7929-3.792,3.9777,3.9777,0,0,1,3.8642-3.96,3.7641,3.7641,0,0,1,1.9444.48c0-.7681-.0235-1.8481-.0235-2.9282-3.625.0478-7.8486.1919-10.85.456l-.0234-1.2719c2.5439-.0723,7.0566-.24,10.8486-.2881,0-.8643-.0244-1.6084-.0478-2.04a7.4282,7.4282,0,0,0-.12-1.1762H475.71c-.0234.1919-.0713.9121-.0713,1.1762-.0244.4561-.0244,1.1758-.0488,2.0162Zm-1.3926,6.9365a2.4133,2.4133,0,0,0-2.4961-2.2564,2.7376,2.7376,0,0,0-2.7119,2.8326,2.5741,2.5741,0,0,0,2.7364,2.7119C474.1264,80.9451,475.0385,79.7209,475.0385,77.657Z"/><path d="M490.1108,83.9934a3.5161,3.5161,0,1,1-3.5039-3.5283A3.5131,3.5131,0,0,1,490.1108,83.9934Zm-.9121,0a2.5923,2.5923,0,1,0-2.5918,2.5923A2.597,2.597,0,0,0,489.1987,83.9934Z"/><path d="M79.0376,155.7727a17.0355,17.0355,0,0,0,2.04-.144v2.0161c-.5518-.024-1.3916-.0479-1.9678-.0479H75.2934c.0723,3.6.1436,8.3765.168,11.377,0,1.248-.7442,1.92-2.1846,1.92-1.2236,0-2.6641-.0479-3.84-.144l-.168-1.9678a22.709,22.709,0,0,0,3.3838.2876c.6963,0,.8887-.312.8887-.96,0-1.92-.0245-5.4966-.0723-8.7124a33.35,33.35,0,0,1-10.4893,9l-1.3681-1.56a30.3163,30.3163,0,0,0,11.0176-9.2407H64.7085c-.792,0-1.4883.0239-2.2325.0718v-2.04a16.4824,16.4824,0,0,0,2.208.144h8.7373c-.0244-.96-.0478-1.7764-.0722-2.3281a16.6233,16.6233,0,0,0-.2158-2.0161h2.2324a14.1312,14.1312,0,0,0-.1446,2.0161l.0479,2.3281Z"/><path d="M84.2924,159.8289c.72.0483,1.9922.12,3.336.12h13.1533c1.2,0,2.0644-.0718,2.5928-.12v2.3525c-.48-.0239-1.4883-.12-2.5684-.12H87.6284c-1.3194,0-2.5918.0478-3.336.12Z"/><path d="M120.3178,153.7805c.2393,0,.5039,0,.792-.0239a2.6834,2.6834,0,1,1,2.5684,1.92,2.8943,2.8943,0,0,1-.9121-.144l-.0489.2641c-.5273,2.52-1.68,6.3848-3.5761,8.857a18.3707,18.3707,0,0,1-9.4571,6.4082l-1.6318-1.8a15.8845,15.8845,0,0,0,9.3613-5.7608,18.26,18.26,0,0,0,3.1436-7.8247H108.268c-.9355,0-1.7754.0484-2.376.0723v-2.1123a24.0149,24.0149,0,0,0,2.4.144Zm4.9444-.792a1.5847,1.5847,0,1,0-3.169,0,1.5845,1.5845,0,0,0,3.169,0Z"/><path d="M137.934,165.2053a22.6132,22.6132,0,0,0,8.0166-8.8325l1.1524,2.04a23.9381,23.9381,0,0,1-8.0654,8.521,25.8651,25.8651,0,0,1-9.4327,3.7442l-1.2714-1.9683A24.776,24.776,0,0,0,137.934,165.2053Zm-1.416-7.6084-1.5127,1.5122a49.8641,49.8641,0,0,0-5.9765-5.0166l1.3681-1.4643A52.6422,52.6422,0,0,1,136.518,157.5969Z"/><path d="M150.892,152.9646c1.0567,1.56,3.169,5.2563,4.0323,6.8164l-1.92,1.08a63.285,63.285,0,0,0-4.0079-6.9126ZM160.83,162.47a19.8,19.8,0,0,0,3-7.8247,10.4455,10.4455,0,0,0,.1924-1.9683l2.3994.3359c-.1914.6241-.3837,1.4644-.4794,1.896a24.6342,24.6342,0,0,1-3.2881,8.5689,19.9778,19.9778,0,0,1-8.4971,7.3926l-1.8-1.5122A18.4361,18.4361,0,0,0,160.83,162.47Z"/><path d="M169.7094,159.8289c.72.0483,1.9922.12,3.336.12h13.1533c1.2,0,2.0644-.0718,2.5928-.12v2.3525c-.4805-.0239-1.4883-.12-2.5684-.12H173.0454c-1.3194,0-2.5918.0478-3.336.12Z"/><path d="M207.87,154.1643a6.9843,6.9843,0,0,0-.6,1.0562,30.3832,30.3832,0,0,1-4.0323,7.0327,68.7834,68.7834,0,0,1,7.0088,7.1528l-1.6806,1.4639a55.3455,55.3455,0,0,0-6.6006-7.1284,30.4319,30.4319,0,0,1-9.36,7.0083l-1.5361-1.608a27.45,27.45,0,0,0,9.8887-7.1284,21.387,21.387,0,0,0,3.9844-6.6728h-9.3614c-.84,0-2.16.0962-2.4238.12v-2.1841c.3359.0479,1.7041.168,2.4238.168h9.2656a6.3853,6.3853,0,0,0,1.8-.2163Z"/><path d="M214.7085,154.3083c1.56-.144,6.0488-.5756,10.4169-.96,2.5918-.2158,4.8243-.336,6.4082-.4077v1.92a19.6979,19.6979,0,0,0-4.6562.3838,8.3117,8.3117,0,0,0-5.4248,7.5127c0,4.6328,4.32,6.0967,8.1846,6.2407l-.6953,2.0161c-4.3926-.1919-9.4092-2.5439-9.4092-7.8486a9.61,9.61,0,0,1,4.416-8.0166c-2.0879.24-8.5684.8642-11.1367,1.3921l-.2159-2.1123C213.5083,154.4045,214.2524,154.3567,214.7085,154.3083Zm15.4335,6.793-1.2246.5757a22.3061,22.3061,0,0,0-1.9677-3.3843l1.2236-.5278A28.6242,28.6242,0,0,1,230.142,161.1013Zm2.7354-1.0322-1.248.5762a21.2485,21.2485,0,0,0-2.04-3.3365l1.2-.5522A36.09,36.09,0,0,1,232.8774,160.0691Z"/><path d="M245.0708,158.1487c0,1.5605.12,3.8647.24,5.9287a18.8634,18.8634,0,0,1,7.3926,4.0561l-1.1524,1.7764a16.6168,16.6168,0,0,0-6.1689-3.9126c.0244.6245.0478,1.1524.0478,1.5845,0,1.9438-1.2,3.624-4.3681,3.624-3.2637,0-5.6885-1.0557-5.6885-3.7681,0-2.1362,1.8721-3.9126,5.9766-3.9126a14.3028,14.3028,0,0,1,2.0166.1441c-.0967-1.92-.1924-4.104-.1924-5.52,0-1.3682,0-3.336-.0244-4.3443a17.4068,17.4068,0,0,0-.1914-2.352h2.3037a20.64,20.64,0,0,0-.1914,2.352c-.0245.648,0,1.4883,0,2.4244,1.8955-.0479,4.8964-.168,7.0322-.4561l.0722,1.8242c-2.1123.1919-5.16.336-7.1044.3838Zm-1.6329,7.3208a10.7957,10.7957,0,0,0-2.3281-.24c-2.4482,0-3.84.84-3.84,2.1358,0,1.32,1.32,2.0405,3.6006,2.0405,1.7519,0,2.5918-.8164,2.5918-2.4482C243.4624,166.5735,243.4379,166.07,243.4379,165.47Z"/><path d="M260.8139,151.3562a44.02,44.02,0,0,0-1.1035,6.6006c.9356-2.4483,3.4316-5.4,6.4316-5.4,3.169,0,5.4493,3.1685,5.4493,8.1606,0,6.6006-4.1524,9.5049-10.0577,10.585l-1.1279-1.728c5.1612-.792,9.1934-2.8565,9.1934-8.833,0-3.7442-1.2481-6.4327-3.7686-6.4327-2.9521,0-5.6885,4.2964-5.9765,7.417a9.9153,9.9153,0,0,0,.0478,2.9043l-1.8721.1441a29.066,29.066,0,0,1-.24-3.7686,62.332,62.332,0,0,1,.7207-7.6806c.0957-.7442.168-1.4644.1914-2.04Z"/><path d="M295.7827,163.5735a48.1284,48.1284,0,0,1-6.0479,3.8882,16.0518,16.0518,0,0,0,7.32,3.0244,6.9733,6.9733,0,0,0-1.1045,1.584c-6-1.2242-9.6484-4.2725-11.5683-9.4087h-4.0332v6.8164c2.0644-.336,4.3926-.72,6.625-1.104l.12,1.6562c-3.8408.6719-7.8965,1.3682-10.7285,1.8482l-.4326-1.7281c.7441-.0961,1.6318-.24,2.5927-.3842V152.4124h6.5284v-2.3042h1.8242v2.3042h7.1767v10.249h-7.8974a11.7816,11.7816,0,0,0,2.4482,3.7441,37.746,37.746,0,0,0,5.7608-3.9121Zm-15.4336-9.5528v2.7359h11.9053v-2.7359Zm0,7.0806h11.9053v-2.8564H280.3491Z"/><path d="M302.8852,155.8206c-.0244,1.4882,0,3.6723.168,5.6167.3838,3.9843,1.5361,6.6005,3.2168,6.6005,1.2236,0,2.3281-2.4482,2.9521-4.8486l1.5117,1.728c-1.416,4.0327-2.88,5.4009-4.5127,5.4009-2.2314,0-4.3916-2.2324-5.04-8.4009a62.8563,62.8563,0,0,1-.2637-6.3364,12.664,12.664,0,0,0-.1445-2.1123l2.3047.0479C302.9809,154.0925,302.91,155.1965,302.8852,155.8206Zm16.7539,9.9848-1.9443.7681c-.4082-4.2725-1.8487-8.9766-4.1045-11.7608l1.8721-.6484A24.4808,24.4808,0,0,1,319.6391,165.8054Z"/><path d="M329.6938,162.2532c-.96.2881-1.9443.5761-2.88.8642V169.91c0,1.0083-.2646,1.4883-.8887,1.7764a8.262,8.262,0,0,1-3.24.312,6.6529,6.6529,0,0,0-.5752-1.6323c1.1514.0239,2.1836.0239,2.4717,0,.36,0,.4805-.12.4805-.4561v-6.2646l-2.8809.84-.5039-1.7524c.96-.2159,2.1123-.504,3.3848-.8638V156.637H321.99v-1.68h3.0723V150.156h1.7519v4.8008h2.6641v1.68h-2.6641v4.7519c.8643-.24,1.7764-.5039,2.6641-.7676Zm12.7695-2.688a17.5617,17.5617,0,0,1-4.873,7.8965,16.3588,16.3588,0,0,0,6.1933,3.0962,7.32,7.32,0,0,0-1.1523,1.5361,17.24,17.24,0,0,1-6.4092-3.48,21.9538,21.9538,0,0,1-6.8164,3.4321,6.7893,6.7893,0,0,0-.96-1.6084,19.7106,19.7106,0,0,0,6.5048-3.0478,19.1431,19.1431,0,0,1-3.9365-6.5767l.0723-.0239h-.792v-1.6562H335.43v-3.5762h-5.6162v-1.6563H335.43v-3.7685h1.753v3.7685h5.7363v1.6563h-5.7363v3.5762H341l.2871-.0723Zm-9.6972,1.2241a16.3676,16.3676,0,0,0,3.5283,5.52,14.639,14.639,0,0,0,3.8642-5.52Z"/><path d="M357.2944,157.0447v14.6416h-1.6563V157.0447h-3.6005v-1.44a26.2578,26.2578,0,0,1-2.0157,3.4322V172.07h-1.6562v-10.897a20.4944,20.4944,0,0,1-2.1123,2.1841,10.1511,10.1511,0,0,0-1.0557-1.584,20.1707,20.1707,0,0,0,5.3037-6.8408l1.5362.5044v-.0484h3.6005v-4.896h1.6563v4.896h3.6484v1.6563Zm-5.8809-6.3125a21.097,21.097,0,0,1-4.872,5.5444,10.7376,10.7376,0,0,0-1.0079-1.32,16.4447,16.4447,0,0,0,4.2725-4.8008Zm2.7364,9.4331c-.2881,3.4082-.7676,6.6245-1.8,8.8086a7.1365,7.1365,0,0,0-1.2959-.84c1.0078-2.0161,1.3916-5.0644,1.5839-8.1845Zm5.833-5.5449a15.5422,15.5422,0,0,0-1.9922-3.3121l1.1758-.5761a14.0585,14.0585,0,0,1,2.0644,3.2641Zm-.1446,5.3764a44.4636,44.4636,0,0,1,1.32,7.105l-1.4638.2637a41.3239,41.3239,0,0,0-1.2246-7.1045Zm7.8252-.2636h-2.1367v10.2246c0,.96-.1914,1.4882-.8642,1.8a10.9282,10.9282,0,0,1-3.4317.288,7.1106,7.1106,0,0,0-.5283-1.728c1.248.0479,2.3525.0479,2.6885.0479.3359-.024.4316-.12.4316-.4322V159.7332h-2.76v-1.6324h6.6006Zm-.3359-6.6006h-5.6885v-1.5845h5.6885Z"/><path d="M380.7905,166.9817c.0713-.9121.0957-2.4483.0957-3.6963-2.208,1.2-3.7442,2.4243-3.7442,3.9844,0,1.872,1.8477,2.1362,4.2959,2.1362a41.8537,41.8537,0,0,0,6.4805-.5762l-.0478,1.9444a61.2574,61.2574,0,0,1-6.5039.3838c-3.4082,0-6.1446-.72-6.1446-3.6246,0-2.8081,2.8321-4.5839,5.5918-6.0244a2.0088,2.0088,0,0,0-2.1357-1.4638,6.3275,6.3275,0,0,0-4.1045,1.7519c-.6719.648-1.3438,1.5361-2.16,2.4961l-1.6318-1.2241a25.1545,25.1545,0,0,0,5.4717-7.2485H375.27c-1.0088,0-2.6162-.0479-3.9121-.1441v-1.8c1.2715.144,2.9277.24,4.0078.24.5039,0,1.0078,0,1.56-.024a12.8682,12.8682,0,0,0,.6-2.9521l1.9688.1679c-.169.6719-.3848,1.6563-.7207,2.7364a63.8522,63.8522,0,0,0,7.2724-.72l-.0234,1.7763a73.518,73.518,0,0,1-7.873.6719,17.1118,17.1118,0,0,1-2.1358,3.6484,6.7357,6.7357,0,0,1,3.2881-.8881,2.9882,2.9882,0,0,1,3.1445,2.16c1.6319-.7681,3.0723-1.3442,4.32-1.92.72-.312,1.2959-.6,1.9678-.936l.7686,1.8c-.6006.1679-1.4649.5039-2.0889.7441-1.3437.5278-3.0478,1.2241-4.8476,2.064.0234,1.3681.0478,3.3842.0712,4.5366Z"/><path d="M413.5512,169.574v1.728H392.2856v-1.728h9.7207v-6.0967h-7.1279v-1.728h7.1279v-5.2325h-5.6406a20.3257,20.3257,0,0,1-2.52,3.9122,10.3439,10.3439,0,0,0-1.6084-1.0562,21.8876,21.8876,0,0,0,4.44-8.8325l1.8.3838a32.8237,32.8237,0,0,1-1.3438,3.84h4.8721V150.156h1.8242v4.6084h8.5928v1.7524h-8.5928v5.2325h7.7051v1.728h-7.7051v6.0967Z"/><path d="M436.5678,166.3337a23.7151,23.7151,0,0,0-2.4726-1.8725,11.2924,11.2924,0,0,1-6.2647,7.081l-1.584-1.32a10.1187,10.1187,0,0,0,6.2168-6.7207,17.5152,17.5152,0,0,0-6.7685-2.1362,46.9375,46.9375,0,0,1-3,6.1929,3.391,3.391,0,0,1-3,1.6557,3.0462,3.0462,0,0,1-3.0967-3.2641c0-3.5044,3.24-6.1924,7.8965-6.3125.8642-1.8721,1.7285-3.9121,2.4726-5.4-.9365.0717-3.8164.1919-4.9209.2641a14.837,14.837,0,0,0-1.7519.168l-.0957-2.0161a16.239,16.239,0,0,0,1.8.0957c1.248,0,4.3682-.168,5.3769-.24a4.8011,4.8011,0,0,0,1.1514-.2641l1.2246.9839a3.9287,3.9287,0,0,0-.624.7924c-.6719,1.0557-1.6807,3.48-2.6885,5.7125a19.464,19.464,0,0,1,6.4561,1.8959c.0967-.6.1445-1.2.1924-1.7763a16.3965,16.3965,0,0,0,.0244-2.1841l1.9677.2163a35.6135,35.6135,0,0,1-.5039,4.6084,28.6672,28.6672,0,0,1,2.8565,1.8242Zm-12.8652-4.9926c-3.4082.288-5.3525,2.3281-5.3525,4.3442a1.4437,1.4437,0,0,0,1.3681,1.5845,1.6734,1.6734,0,0,0,1.44-.84A29.4289,29.4289,0,0,0,423.7026,161.3411Z"/><path d="M459.7036,162.1575v9.8408h-1.8242v-1.44H442.9018v1.4882h-1.7764v-9.8886h1.7764v6.6484H449.31v-8.1846h-7.2724v-8.2089h1.7763v6.48H449.31v-8.6167h1.8242v8.6167h5.7608v-6.48h1.8476v8.2089h-7.6084v8.1846h6.7452v-6.6484Z"/><path d="M475.9262,156.0129c0,1.3438.0244,2.8081.0489,3.8882a5.8043,5.8043,0,0,1,.7675,3.0484c0,3.2163-1.5595,6.7924-7.08,8.4487l-1.6563-1.6084c3.12-.72,5.3281-2.0161,6.3125-4.1284a3.4124,3.4124,0,0,1-2.04.6,3.8287,3.8287,0,0,1-3.9366-3.9844,4.1792,4.1792,0,0,1,4.2-4.1523,4.7625,4.7625,0,0,1,1.584.2641c0-.6963,0-1.5361-.0244-2.352-3.6.0239-7.6318.1919-10.6084.4077l-.0478-1.8721c2.64-.0478,7.1044-.1919,10.6328-.24,0-.6724-.0244-1.2242-.0479-1.5606-.0244-.5039-.0967-1.2-.1445-1.4878h2.1846l-.12,1.4878c0,.36-.0244.9121-.0244,1.5361h.36c2.88,0,5.8086.0245,6.9609.0245l-.0244,1.8c-1.3437-.0718-3.5039-.12-6.9844-.12Zm-1.2715,5.208a2.11,2.11,0,0,0-2.1123-1.4638,2.4133,2.4133,0,0,0-2.4,2.4961,2.286,2.286,0,0,0,2.4249,2.352C473.9585,164.6052,474.8706,163.4773,474.6547,161.2209Z"/><path d="M490.2553,168.0139a3.6607,3.6607,0,1,1-3.6728-3.6484A3.6729,3.6729,0,0,1,490.2553,168.0139Zm-1.248,0a2.4179,2.4179,0,0,0-2.4248-2.4243,2.4363,2.4363,0,0,0,0,4.8726A2.4084,2.4084,0,0,0,489.0073,168.0139Z"/><path d="M78.894,239.1218A18.6082,18.6082,0,0,0,81.39,238.93v3.1919c-.7686-.0239-1.6807-.0718-2.3281-.0718H75.9653c.0723,3.5044.168,7.5127.2158,10.753.0244,1.5361-.8633,2.4243-2.6875,2.4243-1.4648,0-2.8086-.0483-4.1767-.1441l-.2637-3.1206a20.34,20.34,0,0,0,3.1924.2881c.6,0,.84-.312.84-1.0078,0-1.6084,0-4.0083-.0478-6.48a33.0121,33.0121,0,0,1-9.793,8.1124l-2.208-2.4961a28.9016,28.9016,0,0,0,10.56-8.3287H65.0444c-.8643,0-1.8955.0479-2.7363.0962v-3.1923a23.0576,23.0576,0,0,0,2.665.1679h7.9443q-.0366-.936-.0722-1.728c-.0479-.6963-.12-1.5845-.24-2.4243h3.4082a20.5966,20.5966,0,0,0-.1435,2.4243l.0244,1.728Z"/><path d="M84.5083,243.0823c.8642.0717,2.6162.144,3.8642.144h12.89c1.1035,0,2.1836-.0962,2.8076-.144v3.768c-.5762-.0239-1.8-.12-2.8076-.12h-12.89c-1.3681,0-2.9756.0484-3.8642.12Z"/><path d="M120.2221,237.1536a10.6,10.6,0,0,0,1.3682-.0962,2.6132,2.6132,0,0,1-.0488-.4561,2.8687,2.8687,0,1,1,2.8808,2.8565,1.3728,1.3728,0,0,1-.3125-.024l-.1914.72c-.5527,2.3521-1.5849,6.0723-3.6006,8.7364a18.9949,18.9949,0,0,1-9.6494,6.625l-2.6162-2.8565c4.7773-1.1279,7.4648-3.1924,9.4092-5.6406a15.4112,15.4112,0,0,0,2.832-6.7685H109.1088c-1.1044,0-2.2324.0483-2.8564.0961v-3.3842a26.8165,26.8165,0,0,0,2.8564.1919Zm5.5684-.5523a1.38,1.38,0,1,0-1.3682,1.3682A1.3882,1.3882,0,0,0,125.7905,236.6013Z"/><path d="M137.5249,248.7947a22.7558,22.7558,0,0,0,8.7373-9.3369l1.872,3.3842a25.5236,25.5236,0,0,1-8.8808,8.8809,26,26,0,0,1-8.9043,3.3843l-2.0166-3.1685A24.7338,24.7338,0,0,0,137.5249,248.7947Zm0-7.7769-2.4473,2.52a49.9852,49.9852,0,0,0-6.001-5.1845l2.2559-2.4A50.3785,50.3785,0,0,1,137.5249,241.0178Z"/><path d="M153.2446,236.2415c1.2,1.68,3.2646,5.3525,4.1523,7.0327l-3.1679,1.8a54.2985,54.2985,0,0,0-4.0567-7.2491Zm8.7129,10.0327a18.7218,18.7218,0,0,0,2.832-7.2486,13.4505,13.4505,0,0,0,.3125-2.9043l3.8877.5523c-.2881.9121-.5518,2.0884-.72,2.7842a25.2172,25.2172,0,0,1-3.3369,8.4248,20.3168,20.3168,0,0,1-8.3282,7.3686l-2.8564-2.4722A18.1825,18.1825,0,0,0,161.9575,246.2742Z"/><path d="M172.1811,243.0823c.8643.0717,2.6162.144,3.8643.144h12.89c1.1035,0,2.1836-.0962,2.8076-.144v3.768c-.5761-.0239-1.8-.12-2.8076-.12h-12.89c-1.3682,0-2.9756.0484-3.8643.12Z"/><path d="M211.35,237.9216a11.3946,11.3946,0,0,0-.84,1.4883,35.297,35.297,0,0,1-3.7685,6.6006,67.4739,67.4739,0,0,1,6.6962,6.8643l-2.7353,2.3764a54.8066,54.8066,0,0,0-6.0488-6.7925,31.6194,31.6194,0,0,1-9.0254,6.7447l-2.4717-2.5923a27.1959,27.1959,0,0,0,9.8408-6.8887,18.6058,18.6058,0,0,0,3.5762-5.88H198.437c-1.0078,0-2.3282.1436-2.8321.168v-3.4087a26.7705,26.7705,0,0,0,2.8321.1685h8.4492a8.6733,8.6733,0,0,0,2.4961-.312Z"/><path d="M217.9487,237.6575c1.9922-.168,5.9287-.5279,10.2734-.9121,2.4483-.1919,5.04-.336,6.7207-.4078l.0235,3.0723a24.535,24.535,0,0,0-4.584.312,7.2144,7.2144,0,0,0-5.0166,6.6485c0,3.9126,3.6484,5.3286,7.6806,5.52l-1.1044,3.2881c-4.9922-.3121-9.6963-3-9.6963-8.1607a9.4231,9.4231,0,0,1,3.5039-7.32c-2.0645.2158-7.0567.7436-9.8164,1.3437l-.3125-3.2641C216.5805,237.7537,217.4926,237.7058,217.9487,237.6575Zm15.6015,7.3208-1.8242.8159a18.4731,18.4731,0,0,0-1.872-3.336l1.7763-.7441A31.3994,31.3994,0,0,1,233.55,244.9783Zm2.7842-1.1763-1.8.8643a21.1254,21.1254,0,0,0-1.9687-3.24l1.7529-.8159A35.9341,35.9341,0,0,1,236.3344,243.802Z"/><path d="M255.1987,254.3152a18.3549,18.3549,0,0,0-5.2559-3.72c.0235.312.0235.5757.0235.8159,0,2.0879-1.08,4.1045-5.0645,4.1045-3.3838,0-6.168-1.1045-6.168-4.3447,0-2.4722,2.1114-4.4405,6.4805-4.4405a13.6729,13.6729,0,0,1,1.416.0723c-.0722-1.8482-.1679-3.8882-.1679-5.1367,0-1.44-.0245-2.856-.0479-3.8643a15.161,15.161,0,0,0-.24-2.7842H249.75c-.0957.6963-.1679,1.8482-.2158,2.7842V239.53c1.8721-.0483,4.6563-.144,6.624-.36l.12,2.8325c-1.9922.1919-4.8243.2881-6.7442.3359.0479,1.44.1436,3.312.2637,5.0645a18.7913,18.7913,0,0,1,7.2246,4.08Zm-8.4727-4.7525a13.0269,13.0269,0,0,0-1.9677-.1679c-1.8487,0-2.9522.624-2.9522,1.6318,0,1.1763,1.2,1.6084,2.8555,1.6084,1.5361,0,2.0888-.6963,2.0888-2.2563C246.75,250.1628,246.75,249.8748,246.726,249.5627Z"/><path d="M264.1518,234.9934a38.7407,38.7407,0,0,0-.96,4.92c1.1279-1.8242,3.1923-3.84,5.88-3.84,3.3125,0,5.8809,3.24,5.8809,8.4726,0,6.7207-4.1279,9.9371-10.417,11.0889l-1.8-2.76c5.28-.816,8.9766-2.544,8.9766-8.3047,0-3.6724-1.2247-5.7124-3.1924-5.7124-2.8086,0-5.2569,4.2246-5.376,7.3447a14.2659,14.2659,0,0,0,.1191,2.52l-2.9521.1924a30.7342,30.7342,0,0,1-.2881-3.9605,57.5838,57.5838,0,0,1,.6729-7.6088c.1191-.8638.1679-1.8243.1914-2.4961Z"/><path d="M298.8071,247.8826a44.633,44.633,0,0,1-5.376,3.48,15.7943,15.7943,0,0,0,6.4326,2.376,10.9123,10.9123,0,0,0-1.8008,2.5923c-5.9765-1.2481-9.288-4.2485-11.3046-9.313H283.71v5.4966c1.7754-.24,3.6719-.5278,5.4961-.84l.168,2.6641c-3.6485.648-7.5606,1.2241-10.44,1.7041l-.6963-2.7842c.7676-.0962,1.6075-.1919,2.544-.3359V236.0974h6.2168v-2.3042h2.9521v2.3042h7.0088v10.3452ZM283.71,238.57v1.7763h10.2969V238.57Zm0,5.9526h10.2969v-1.896H283.71Zm6,2.4961a10.5555,10.5555,0,0,0,1.8242,2.7124,36.03,36.03,0,0,0,3.96-2.7124Z"/><path d="M306.51,239.9856c-.0244,1.5361,0,3.3364.1436,5.0405.3359,3.4326,1.0556,5.7608,2.5439,5.7608,1.1279,0,2.0645-2.7842,2.5205-4.6568l2.4,2.88c-1.584,4.1284-3.0723,5.5928-4.9922,5.5928-2.5928,0-4.873-2.3526-5.5449-8.7368-.2158-2.1841-.2637-4.9444-.2637-6.4087a13.8294,13.8294,0,0,0-.1679-2.4l3.6474.0483A18.8342,18.8342,0,0,0,306.51,239.9856Zm16.5127,9.769-3.1435,1.2c-.36-3.8164-1.6329-9.4087-4.2247-12.3369l3.0245-1.0083C320.935,240.37,322.7592,246.1062,323.0229,249.7546Z"/><path d="M333.4877,246.6824c-.84.24-1.7041.48-2.5683.6963v5.7363c0,1.3921-.2637,2.064-1.08,2.52a7.9889,7.9889,0,0,1-3.624.5044,12.4262,12.4262,0,0,0-.8164-2.5923c.9365.0239,1.92.0239,2.2324.0239.3594,0,.4561-.12.4561-.48v-4.9444l-2.3282.5757-.7441-2.7119c.8877-.168,1.92-.4082,3.0723-.6963v-4.248h-2.7608v-2.6407h2.7608v-4.56h2.832v4.56h2.3525v2.6407h-2.3525v3.5522l2.208-.5522Zm13.2969-3.24a17.5531,17.5531,0,0,1-4.4638,7.9688,16.214,16.214,0,0,0,5.5439,2.4243,12.4323,12.4323,0,0,0-1.8242,2.4722,17.1131,17.1131,0,0,1-5.9766-3.0244,22.0909,22.0909,0,0,1-6.3125,2.9521,11.69,11.69,0,0,0-1.5361-2.5923,18.5,18.5,0,0,0,5.7363-2.352,19.0125,19.0125,0,0,1-3.4082-5.7124l.7207-.2159h-1.248v-2.5683h4.7275v-2.88h-5.16v-2.64h5.16v-3.4326h2.833v3.4326h5.376v2.64h-5.376v2.88h2.88l.5039-.12Zm-9.457,1.92a13.7317,13.7317,0,0,0,2.833,4.2481,13.39,13.39,0,0,0,3-4.2481Z"/><path d="M361.52,241.57v14.3291h-2.6406V241.57H355.687v-.9844a27.5411,27.5411,0,0,1-1.3916,2.4482v13.2495h-2.6162v-9.7211c-.504.5522-.9844,1.08-1.4883,1.5361a15.0065,15.0065,0,0,0-1.5362-2.64,19.58,19.58,0,0,0,4.8721-6.5527l2.16.7442v-.6958h3.1924v-4.7286H361.52v4.7286h3.0967V241.57Zm-5.9766-6.7686a23.8841,23.8841,0,0,1-5.1367,5.8086,15.2408,15.2408,0,0,0-1.4639-2.1362,16.8149,16.8149,0,0,0,4.0323-4.5845Zm2.6641,9.4087a30.138,30.138,0,0,1-1.68,8.8569,20.5488,20.5488,0,0,0-1.9209-1.32c.8642-1.92,1.1767-4.92,1.32-7.8725Zm5.0644-5.5684a19.7771,19.7771,0,0,0-1.584-3.36l1.8965-.792a18.7648,18.7648,0,0,1,1.6319,3.2642Zm.792,5.28a57.2735,57.2735,0,0,1,1.08,7.1289l-2.208.4317a52.184,52.184,0,0,0-.96-7.1524Zm7.44.5283h-1.8477v8.7364c0,1.3442-.1924,2.1123-1.0322,2.5683a7.8939,7.8939,0,0,1-3.6006.5039,10.4962,10.4962,0,0,0-.7676-2.7841c.9844.0483,1.9922.0483,2.28.0483.3115,0,.4082-.0723.4082-.3843V244.45h-2.0889V241.906h6.6485Zm-.3594-6.7929h-5.6885v-2.4961h5.6885Z"/><path d="M384.1752,250.7385c.0489-.6958.0723-1.8.0967-2.832-1.7529.96-2.7129,1.896-2.7129,3.0723,0,1.32,1.1289,1.68,3.4571,1.68a36.3406,36.3406,0,0,0,6.7441-.6963l-.0957,3.0967a65.8,65.8,0,0,1-6.7207.3838c-3.7207,0-6.5283-.8882-6.5283-3.96,0-3.024,2.88-4.9444,5.5918-6.3365a1.8568,1.8568,0,0,0-1.6563-.8159,5.8831,5.8831,0,0,0-3.72,1.6319,30.2711,30.2711,0,0,0-2.208,2.6162l-2.5449-1.896a23.2322,23.2322,0,0,0,5.2324-6.5284h-.2881c-.96,0-2.7119-.0483-4.0078-.1684v-2.7842a30.4376,30.4376,0,0,0,4.1758.2642h1.1523a13.2538,13.2538,0,0,0,.4805-2.7124l3.12.2641c-.12.5762-.2881,1.3921-.5762,2.3521a54.8433,54.8433,0,0,0,6.7207-.6958l-.0244,2.7842a77.5207,77.5207,0,0,1-7.7519.624,14.5871,14.5871,0,0,1-1.3682,2.4,7.4355,7.4355,0,0,1,2.6875-.48A3.2389,3.2389,0,0,1,386.6,243.85c1.2236-.5761,2.2324-.9843,3.2158-1.4165.9121-.4077,1.7519-.8159,2.6162-1.2241l1.2,2.76a25.3487,25.3487,0,0,0-2.8321,1.0083c-1.0556.4082-2.4.936-3.8642,1.6079.0234,1.32.0723,3.0722.0957,4.1523Z"/><path d="M418.184,252.803v2.8081H396.6069V252.803h9.2646v-4.8242h-6.5048v-2.76h6.5048v-4.2246h-4.9687a19.7963,19.7963,0,0,1-2.2324,3.4805,22.6031,22.6031,0,0,0-2.5684-1.7041,20.6451,20.6451,0,0,0,4.249-8.5928l2.9522.6479c-.336,1.1519-.72,2.28-1.128,3.3843h3.6963v-4.32h3v4.32H416.96v2.7842h-8.0889v4.2246h7.1768v2.76h-7.1768v4.8242Z"/><path d="M440.8881,251.0027c-.624-.5518-1.32-1.1279-2.04-1.6563a11.9031,11.9031,0,0,1-6.0244,6.4326l-2.544-2.0639a10.25,10.25,0,0,0,6.0479-5.9766,16.6552,16.6552,0,0,0-5.5684-1.92A49.4106,49.4106,0,0,1,428,251.531a4.063,4.063,0,0,1-3.6963,2.0879,3.543,3.543,0,0,1-3.6485-3.84c0-3.6724,3.336-6.5044,8.1123-6.7207.6719-1.5362,1.3448-3.1441,1.8965-4.272-.9365.0239-2.9765.0957-4.0566.168-.5039.0239-1.3438.12-1.9443.2158l-.12-3.0723a19.1618,19.1618,0,0,0,1.9688.0962c1.3437,0,3.8887-.0962,4.9922-.1919a5.9089,5.9089,0,0,0,1.6084-.36l1.8965,1.4882a5.5449,5.5449,0,0,0-.793,1.0078,46.1421,46.1421,0,0,0-2.3281,5.0889A20.8146,20.8146,0,0,1,437,244.7624c.0235-.288.0479-.5522.0713-.8164a15.46,15.46,0,0,0-.0234-2.5922l3.12.36a38.9838,38.9838,0,0,1-.456,4.416c.9843.5523,1.8476,1.1284,2.5439,1.5845Zm-13.3447-5.2085c-2.6406.4082-4.081,2.0161-4.081,3.5044,0,.6723.4082,1.1279.8886,1.1279s.8155-.2158,1.2481-.8159A30.78,30.78,0,0,0,427.5434,245.7942Z"/><path d="M464.5288,246.1062V256.259h-2.9756v-1.3676H448.2563v1.392H445.352V246.1062h2.9043v5.9766h5.0156v-7.2486h-6.96v-8.7129h2.832V242.05h4.1279v-7.9448h2.9287V242.05h4.3682v-5.9287h3v8.7129h-7.3682v7.2486h5.3526v-5.9766Z"/><path d="M487.978,240.49c-1.44-.0723-3.6729-.12-6.8887-.12.0234,1.2.0234,2.4961.0234,3.5283a5.8568,5.8568,0,0,1,.8887,3.2881c0,3.0967-1.8242,7.0327-7.6328,8.665l-2.5205-2.5444a10.8649,10.8649,0,0,0,5.8086-2.7119,5.1537,5.1537,0,0,1-1.08.12,4.1876,4.1876,0,0,1-4.1045-4.3682,4.4764,4.4764,0,0,1,4.753-4.44,5.71,5.71,0,0,1,.9355.0718l-.0234-1.584c-3.6006.0478-7.2735.1919-10.2012.36l-.0723-2.88c2.7129,0,7.0332-.12,10.2246-.168a6.25,6.25,0,0,0-.0234-.72,16.1178,16.1178,0,0,0-.2158-2.064h3.456c-.0722.3838-.1445,1.6558-.1679,2.04,0,.1919-.0245.4321-.0245.72,2.4,0,5.6407-.0244,6.8887,0Zm-10.8252,7.5845c.9844,0,1.8721-.7442,1.56-2.8081a1.6967,1.6967,0,0,0-1.56-.84,1.8243,1.8243,0,1,0,0,3.6485Z"/><path d="M494.7924,252.1311a3.8765,3.8765,0,1,1-3.8877-3.8887A3.887,3.887,0,0,1,494.7924,252.1311Zm-1.7275,0a2.1485,2.1485,0,1,0-2.16,2.1357A2.1517,2.1517,0,0,0,493.0649,252.1311Z"/><path d="M78.7739,322.7351a21.8044,21.8044,0,0,0,2.7363-.2163v3.8164c-.8642-.0239-1.8486-.0478-2.52-.0478H76.3256c.0723,3.4321.168,7.0327.2159,10.3925.0244,1.7046-.9356,2.7124-2.9766,2.7124-1.584,0-2.88-.0478-4.3438-.144l-.3359-3.7681a22.4182,22.4182,0,0,0,3.0957.2637c.5527,0,.792-.312.792-1.0078,0-1.416,0-3.24-.0234-5.2564a32.1038,32.1038,0,0,1-9.4092,7.6324l-2.6641-3.024c4.5362-2.1362,8.3291-5.1606,10.249-7.8007H65.1889c-.9121,0-2.1123.0478-3.001.0957v-3.84a25.9734,25.9734,0,0,0,2.9043.1924h7.4893l-.0723-1.3921c-.0478-.7681-.12-1.7524-.2636-2.6885H76.35a16.759,16.759,0,0,0-.1446,2.6885l.0244,1.3921Z"/><path d="M84.3647,326.6233c.96.0718,2.9756.168,4.1523.168h12.7452c1.08,0,2.2558-.12,2.9521-.168v4.5845c-.624-.024-1.9687-.1441-2.9521-.1441H88.517c-1.3681,0-3.1689.0718-4.1523.1441Z"/><path d="M119.5981,320.7668a12.4751,12.4751,0,0,0,1.7275-.12,1.4027,1.4027,0,0,1-.0234-.312,2.9761,2.9761,0,1,1,3.0479,2.9761c-.12.36-.2159.72-.2881,1.0083-.5762,2.2563-1.56,5.9043-3.6241,8.689a19.6828,19.6828,0,0,1-9.7695,6.7441l-3.168-3.48a15.7063,15.7063,0,0,0,9.4327-5.5444,13.4913,13.4913,0,0,0,2.6406-6.1929H109.0131c-1.1767,0-2.497.0723-3.1211.12v-4.1045c.7442.0962,2.3291.2163,3.1211.2163Zm5.9521-.4321a1.272,1.272,0,1,0-1.2724,1.272A1.2807,1.2807,0,0,0,125.55,320.3347Z"/><path d="M136.95,332.5276a23.1853,23.1853,0,0,0,9.1679-9.6006l2.2569,4.1045a25.9588,25.9588,0,0,1-9.3369,9.0967,25.6258,25.6258,0,0,1-8.5928,3.1684l-2.4727-3.8408A24.7063,24.7063,0,0,0,136.95,332.5276Zm.8154-7.8486-2.9756,3.0483a50.05,50.05,0,0,0-6.0254-5.2564l2.7608-2.9521A48.3551,48.3551,0,0,1,137.7651,324.679Z"/><path d="M153.5327,319.7825a83.0639,83.0639,0,0,1,4.2,7.1767l-3.8643,2.1841a51.1415,51.1415,0,0,0-4.1045-7.4165Zm7.9922,10.3452a17.83,17.83,0,0,0,2.7607-6.9365,16.04,16.04,0,0,0,.36-3.4087l4.7275.6484c-.3115,1.08-.6475,2.4722-.84,3.312a25.6618,25.6618,0,0,1-3.36,8.353,20.7885,20.7885,0,0,1-8.2324,7.3443l-3.4805-3A18.0816,18.0816,0,0,0,161.5249,330.1277Z"/><path d="M172.0376,326.6233c.96.0718,2.9755.168,4.1523.168H188.935c1.08,0,2.2559-.12,2.9522-.168v4.5845c-.6241-.024-1.9688-.1441-2.9522-.1441H176.19c-1.3682,0-3.1689.0718-4.1523.1441Z"/><path d="M211.8061,321.7507a13.5531,13.5531,0,0,0-.9844,1.7525,37.1752,37.1752,0,0,1-3.624,6.3364,63.836,63.836,0,0,1,6.5283,6.6968L210.39,339.44a47.642,47.642,0,0,0-5.7363-6.5762,32.1787,32.1787,0,0,1-8.8086,6.5523l-3.0244-3.1441a26.7581,26.7581,0,0,0,9.8164-6.7446,17.5938,17.5938,0,0,0,3.36-5.4243h-7.4648c-1.08,0-2.3994.144-3.0723.1919v-4.1285a28.4642,28.4642,0,0,0,3.0723.1919H206.55a10.16,10.16,0,0,0,2.88-.36Z"/><path d="M217.9487,321.2468c2.2324-.1919,5.833-.48,10.1767-.8642,2.377-.1919,5.1846-.336,6.9131-.4077l.0235,3.6962a29.8193,29.8193,0,0,0-4.56.2881,6.6068,6.6068,0,0,0-4.7764,6.1685c0,3.5044,3.2881,4.8725,7.3926,5.1123l-1.3447,4.0083c-5.3037-.4077-9.8408-3.2881-9.8408-8.3526a9.6885,9.6885,0,0,1,3.0009-6.9365c-2.041.2158-6.2168.6958-9.0732,1.32l-.36-3.9121C216.46,321.343,217.4926,321.2947,217.9487,321.2468Zm15.6738,7.6328-2.1367.9361a19.2344,19.2344,0,0,0-1.8242-3.2886l2.0888-.8638A31.9951,31.9951,0,0,1,233.6225,328.88Zm2.832-1.248-2.1123,1.0078a20.1146,20.1146,0,0,0-1.9443-3.1924l2.0645-.936C235.0864,325.3752,235.9741,326.7673,236.4545,327.6316Z"/><path d="M255.103,338.5041a20.7094,20.7094,0,0,0-4.7285-3.5761v.3359c0,2.2085-1.0323,4.3926-5.4727,4.3926-3.456,0-6.456-1.1524-6.456-4.6563,0-2.6884,2.28-4.7524,6.7685-4.7524.3594,0,.7442.0239,1.1035.0479-.0957-1.8243-.1679-3.7686-.1679-4.9444,0-1.4643-.0235-2.5683-.0479-3.5766a16.1362,16.1362,0,0,0-.2881-3.024h4.32c-.12.792-.1914,1.9683-.24,3.024-.0234.4321-.0234.8881-.0234,1.3442,1.8964-.0479,4.5361-.144,6.4326-.3359l.1435,3.4321c-1.92.168-4.6318.2641-6.5283.312.0479,1.32.1436,2.9526.24,4.4888a18.3789,18.3789,0,0,1,7.1524,4.0561Zm-8.6651-4.92a10.8906,10.8906,0,0,0-1.7763-.144c-1.5117,0-2.4717.5044-2.4717,1.3682,0,1.08,1.1279,1.3442,2.4238,1.3442,1.416,0,1.8242-.6,1.8242-2.1362Z"/><path d="M264.44,318.7507a35.5646,35.5646,0,0,0-.8643,3.9844,7.263,7.263,0,0,1,5.545-2.9526c3.4082,0,6.1445,3.2646,6.1445,8.6411,0,6.7925-4.1045,10.1528-10.6338,11.353l-2.1836-3.3364c5.3525-.84,8.8809-2.3765,8.8809-8.0166,0-3.6006-1.2-5.2808-2.8809-5.2808-2.7119,0-5.0156,4.1768-5.0156,7.2969a19.4745,19.4745,0,0,0,.1435,2.28l-3.5527.24a27.6861,27.6861,0,0,1-.3115-4.0561,57.122,57.122,0,0,1,.624-7.585,23.8923,23.8923,0,0,0,.1924-2.7358Z"/><path d="M299.0952,332.0237a45.2906,45.2906,0,0,1-4.9688,3.2641,16.2479,16.2479,0,0,0,5.9287,2.0166,14.0527,14.0527,0,0,0-2.208,3.1919c-4.1045-.8637-6.8642-2.52-8.8564-5.0883l.2158,3.12c-3.5527.6-7.417,1.1762-10.3213,1.6323l-.8154-3.3843c.7441-.0718,1.584-.1919,2.4961-.2881V319.8069h6.0478v-2.28h3.6485v2.28h6.8886v10.7285Zm-14.9287-9.1929v1.2241h9.3847v-1.2241Zm0,5.3286h9.3847v-1.3681h-9.3847Zm0,7.8247c1.56-.2158,3.1679-.456,4.7275-.6963a17.6249,17.6249,0,0,1-2.2559-4.104h-2.4716Zm6.12-4.8a10.044,10.044,0,0,0,1.4638,2.1119,31.712,31.712,0,0,0,3.0723-2.1119Z"/><path d="M306.9419,324.0549c0,1.56,0,3.1206.1435,4.7046.2881,3.12.7686,5.3042,2.1367,5.3042,1.1035,0,1.9444-2.9761,2.28-4.584l2.9043,3.5523c-1.6563,4.2-3.169,5.6885-5.2568,5.6885-2.8086,0-5.1368-2.4-5.8086-8.9048-.24-2.2564-.2637-4.9688-.2637-6.4805a14.0871,14.0871,0,0,0-.2158-2.5684l4.416.0479A22.127,22.127,0,0,0,306.9419,324.0549Zm16.3691,9.625-3.8164,1.4639c-.336-3.5762-1.4883-9.6484-4.2725-12.6729l3.6729-1.2C321.2231,324.0071,323.12,330.2478,323.311,333.68Z"/><path d="M333.5835,330.92c-.792.2158-1.584.4082-2.4.624V336.68c0,1.5845-.2637,2.4243-1.1758,2.9527a7.9248,7.9248,0,0,1-3.8887.624,13.2936,13.2936,0,0,0-.96-3.1685c.84.024,1.8243.024,2.1368.024.3593,0,.456-.12.456-.4561v-4.2725l-2.04.48-.8643-3.3364c.84-.1441,1.8242-.336,2.9043-.5762v-3.6963h-2.5928v-3.2163h2.5928v-4.4165h3.4317v4.4165h2.2089v3.2163h-2.2089v2.9282l1.9921-.456Zm13.6572-3.6245a17.6715,17.6715,0,0,1-4.2725,8.0649,17.276,17.276,0,0,0,5.209,2.0879,14.254,14.254,0,0,0-2.209,3.0005,18.0011,18.0011,0,0,1-5.7842-2.7842,21.9031,21.9031,0,0,1-6.0244,2.688,12.69,12.69,0,0,0-1.872-3.1441,17.6723,17.6723,0,0,0,5.3046-2.0161,19.8184,19.8184,0,0,1-3.0966-5.2085l1.1045-.312h-1.5362v-3.1445h4.5117v-2.4722h-4.8964V320.863h4.8964v-3.2407h3.4571v3.2407h5.1845v3.1919h-5.1845v2.4722h2.3759l.5762-.12Zm-9.36,2.3764A14.13,14.13,0,0,0,340.28,333.2a12.3784,12.3784,0,0,0,2.545-3.5283Z"/><path d="M361.9038,325.8313V340.04h-3.24v-14.209h-2.9521v-.8159c-.336.6719-.6963,1.3437-1.08,1.9922v8.3286a26.8265,26.8265,0,0,0,1.08-7.5366l2.7363.4077a30.4539,30.4539,0,0,1-1.6318,8.9531,16.0224,16.0224,0,0,0-2.1846-1.5845v4.8487h-3.1924V331.4c-.36.4082-.72.768-1.08,1.104a21.2653,21.2653,0,0,0-1.8242-3.2642,18.38,18.38,0,0,0,4.6084-6.4087l2.5684.8643v-1.0562h2.9521v-4.6323h3.24v1.1518l2.1367-.8637a19.2516,19.2516,0,0,1,1.416,3.2641l-2.376,1.0323a19.1239,19.1239,0,0,0-1.1767-3.1206v3.1684h2.7841v3.1924Zm-6.0967-7.0566a24.2754,24.2754,0,0,1-5.28,5.9526,21.7468,21.7468,0,0,0-1.7764-2.6162,15.3862,15.3862,0,0,0,3.9366-4.4888Zm8.6406,9.0966a64.506,64.506,0,0,1,.9121,7.1529l-2.64.5278a63.5076,63.5076,0,0,0-.7686-7.2007Zm7.2734.96H370.017v7.9448c0,1.5362-.1923,2.4722-1.1523,3.0244a7.5619,7.5619,0,0,1-3.6963.6,12.0711,12.0711,0,0,0-.9121-3.3842c.8164.0478,1.752.0478,2.0645.0478.288,0,.3837-.0723.3837-.36v-7.873H365v-3.0962h6.7207Zm-.3847-6.9365H365.6v-3.0484h5.7363Z"/><path d="M384.0073,334.5681c.0478-.6.0967-1.4883.12-2.3765-1.4883.8643-2.1357,1.6324-2.1357,2.5923,0,1.0083.7441,1.416,2.9755,1.416a35.4178,35.4178,0,0,0,6.9131-.7441l-.12,3.7207a64.0042,64.0042,0,0,1-6.8642.4077c-3.9131,0-6.7208-1.0078-6.7208-4.1762,0-3.0962,2.8321-5.0884,5.4727-6.4805a1.7882,1.7882,0,0,0-1.2969-.48,5.7079,5.7079,0,0,0-3.5039,1.584,29.0119,29.0119,0,0,0-2.208,2.6885l-3.0722-2.3042a21.8478,21.8478,0,0,0,5.0878-6.1206c-.9834,0-2.7119-.0479-3.96-.168v-3.3364a30.9054,30.9054,0,0,0,4.2724.2881h.9356a13.7634,13.7634,0,0,0,.4082-2.5923l3.793.312a21.13,21.13,0,0,1-.5284,2.16,54.6548,54.6548,0,0,0,6.4082-.6718l-.0234,3.3359c-2.2324.2881-5.1367.5044-7.6807.6a13.6105,13.6105,0,0,1-.9121,1.68,11.43,11.43,0,0,1,2.3516-.24,3.4575,3.4575,0,0,1,3.1689,1.68c.96-.4561,1.7276-.7681,2.5684-1.1523,1.0312-.4561,2.0156-.9122,3.0234-1.3921l1.417,3.3125c-.8408.24-2.3291.792-3.2412,1.1518-.9111.336-2.0635.792-3.3115,1.3443.0234,1.2959.0713,2.9043.0957,3.96Z"/><path d="M418.3286,336.3679v3.4087H396.4868v-3.4087h9.0722V332.24h-6.2158v-3.36h6.2158v-3.6723h-4.6084a21.3411,21.3411,0,0,1-2.0879,3.2641,23.1344,23.1344,0,0,0-3.1445-2.1123,20.3191,20.3191,0,0,0,4.2-8.4966l3.625.816a29.8289,29.8289,0,0,1-1.0566,3.1206h3.0722v-4.1768h3.6485v4.1768h7.8486v3.4082h-7.8486V328.88h6.8886v3.36h-6.8886v4.1279Z"/><path d="M440.7446,335.3362c-.5762-.5044-1.1768-1.0322-1.8242-1.5122a12.0652,12.0652,0,0,1-5.8565,6.0483l-3.0722-2.4961a10.3916,10.3916,0,0,0,5.9277-5.5444,16.33,16.33,0,0,0-4.8955-1.752,48.1,48.1,0,0,1-2.5928,5.4,4.5212,4.5212,0,0,1-4.1045,2.3281,3.8272,3.8272,0,0,1-3.96-4.1762c0-3.7447,3.4082-6.6489,8.2324-6.937.5761-1.3438,1.1279-2.7119,1.584-3.648-.9356.0239-2.52.0718-3.6.1441-.4805.0239-1.3926.12-2.0411.2158l-.1435-3.6724c.6719.0723,1.56.12,2.0879.12,1.416,0,3.625-.0722,4.7763-.1679a6.7365,6.7365,0,0,0,1.8721-.4082l2.28,1.7763a6.3859,6.3859,0,0,0-.8877,1.104,42.38,42.38,0,0,0-2.16,4.7764,22.341,22.341,0,0,1,4.3448,1.2959l.0234-.2637a15.6725,15.6725,0,0,0-.0234-2.8325l3.7675.4321a37.56,37.56,0,0,1-.4316,4.2964c.9121.5283,1.7285,1.0562,2.3525,1.4644Zm-15.2178-2.2324a26.5478,26.5478,0,0,0,1.584-3.0484c-2.16.4561-3.36,1.7764-3.36,2.9766,0,.5039.2881.8877.6485.8877C424.8305,333.92,425.143,333.68,425.5268,333.1038Z"/><path d="M464.7456,330.0554v10.3692h-3.6485V339.08H448.6879v1.3443h-3.5527V330.0554h3.5527v5.6167h4.2247v-6.7685h-6.8174v-9.0249H449.6v5.6406h3.3125v-7.585h3.624v7.585h3.5527v-5.6646h3.6963v9.0489h-7.249v6.7685h4.56v-5.6167Z"/><path d="M488.0493,324.679c-1.416-.0718-3.6475-.12-6.6485-.1441.0244,1.1284.0244,2.3286.0244,3.3125a6.232,6.232,0,0,1,.9356,3.4321c0,3.0484-1.9678,7.1768-7.92,8.7847l-3.0489-3.0723a12.8725,12.8725,0,0,0,5.4483-2.0879,2.6049,2.6049,0,0,1-.4317.024,4.4068,4.4068,0,0,1-4.2246-4.5606c0-2.88,2.3047-4.6323,5.0645-4.6323a4.8547,4.8547,0,0,1,.6006.0239l-.0244-1.2c-3.5762.0479-7.08.1919-9.9844.336l-.0967-3.4566c2.7608.0239,6.9609-.0718,10.0332-.12l-.0244-.2637c-.0713-.9121-.168-1.92-.2637-2.3764h4.1524c-.0723.456-.168,1.92-.1924,2.3525v.2637c2.209,0,5.4-.0479,6.6494-.024ZM477.1528,331.76c.7676,0,1.56-.5517,1.2959-2.376a1.5489,1.5489,0,0,0-1.2959-.624,1.45,1.45,0,0,0-1.5117,1.5362A1.5093,1.5093,0,0,0,477.1528,331.76Z"/><path d="M494.9126,336.1521a4.0083,4.0083,0,1,1-4.0079-4.0083A4,4,0,0,1,494.9126,336.1521Zm-2.0157,0a1.9922,1.9922,0,1,0-1.9922,1.9922A1.9877,1.9877,0,0,0,492.8969,336.1521Z"/></svg>