<svg id="e8622488-bffb-40ce-9893-b5fb16ea8385" data-name="Layer 1" xmlns="http://www.w3.org/2000/svg" viewBox="0 0 555 180">
  <g>
    <path d="M142.27,65.63H156.6v2.23h-5.9V82.43h-2.52V67.86h-5.91Z"/>
    <path d="M158.43,65.63l2.4-.53v6.34A5,5,0,0,1,164.5,70a4.57,4.57,0,0,1,4.78,4.78v7.68h-2.41V75.16a2.84,2.84,0,0,0-3-3.1,3.44,3.44,0,0,0-3,1.58v8.79h-2.4Z"/>
    <path d="M171.77,66.76a1.47,1.47,0,0,1,1.46-1.49,1.49,1.49,0,1,1,0,3A1.47,1.47,0,0,1,171.77,66.76Zm2.66,15.67H172V70.21h2.4Z"/>
    <path d="M177.41,79.26a6.4,6.4,0,0,0,4,1.54c1.73,0,2.93-.75,2.93-1.83,0-.86-.62-1.37-2-1.56l-2.2-.31q-3.65-.54-3.65-3.38c0-2.21,1.92-3.7,4.77-3.7a8.34,8.34,0,0,1,4.92,1.56L185,73.16a6.84,6.84,0,0,0-3.86-1.27c-1.47,0-2.45.67-2.45,1.66s.57,1.32,2,1.53l2.21.32c2.43.36,3.7,1.51,3.7,3.4,0,2.19-2.21,3.84-5.11,3.84a8.05,8.05,0,0,1-5.36-1.8Z"/>
    <path d="M193.08,66.56A1.88,1.88,0,1,1,195,68.44,1.87,1.87,0,0,1,193.08,66.56Zm3.53,15.87h-3.29V69.92h3.29Z"/>
    <path d="M199.75,78.76a7.3,7.3,0,0,0,4.06,1.41c1.46,0,2.42-.53,2.42-1.32s-.48-1-1.56-1.17l-2.4-.36c-2.47-.39-3.79-1.61-3.79-3.63,0-2.42,2-4,5.21-4a9.26,9.26,0,0,1,5.14,1.56l-1.59,2.11a7.43,7.43,0,0,0-3.86-1.2c-1.2,0-2,.48-2,1.23s.48,1,1.7,1.17l2.4.36c2.45.36,3.82,1.64,3.82,3.58,0,2.35-2.33,4.13-5.47,4.13a9.22,9.22,0,0,1-5.74-1.73Z"/>
    <path d="M215.47,78.92c0-2.3,1.87-3.72,4.95-3.72a8.47,8.47,0,0,1,3.33.68v-1.3c0-1.73-1-2.59-3-2.59A8.66,8.66,0,0,0,217,73l-.89-1.8a11.45,11.45,0,0,1,5-1.25c3.17,0,5,1.56,5,4.37v8.09h-2.36V81.37A5.75,5.75,0,0,1,220,82.64C217.3,82.64,215.47,81.13,215.47,78.92Zm5,2a4.72,4.72,0,0,0,3.24-1.15V77.6a6.37,6.37,0,0,0-3.14-.74c-1.75,0-2.83.79-2.83,2S218.88,80.87,220.51,80.87Z"/>
    <path d="M228.86,70.21h2.4v1.23A5,5,0,0,1,234.94,70a4.56,4.56,0,0,1,4.77,4.78v7.68h-2.4V75.16a2.84,2.84,0,0,0-3-3.1,3.47,3.47,0,0,0-3,1.58v8.79h-2.4Z"/>
    <path d="M253.34,82.64a6.28,6.28,0,0,1-6.4-6.33A6.13,6.13,0,0,1,253.06,70c3.36,0,5.9,2.78,5.9,6.38v.7h-9.65a4.12,4.12,0,0,0,4.13,3.5,4.72,4.72,0,0,0,3.1-1.08L258.07,81A7.28,7.28,0,0,1,253.34,82.64Zm-4-7.34h7.24a3.64,3.64,0,0,0-7.24,0Z"/>
    <path d="M263.74,76.16l-4.56-6H262l3.14,4.2,3.14-4.2H271l-4.52,5.93,4.83,6.29h-2.83l-3.36-4.51-3.41,4.51H259Z"/>
    <path d="M271.66,78.92c0-2.3,1.87-3.72,4.94-3.72a8.48,8.48,0,0,1,3.34.68v-1.3c0-1.73-1-2.59-3-2.59a8.66,8.66,0,0,0-3.79,1l-.89-1.8a11.52,11.52,0,0,1,5-1.25c3.17,0,5,1.56,5,4.37v8.09h-2.35V81.37a5.77,5.77,0,0,1-3.79,1.27C273.48,82.64,271.66,81.13,271.66,78.92Zm5,2a4.76,4.76,0,0,0,3.24-1.15V77.6a6.4,6.4,0,0,0-3.15-.74c-1.75,0-2.83.79-2.83,2S275.07,80.87,276.7,80.87Z"/>
    <path d="M285.05,70.21h2.4v1.15A4.68,4.68,0,0,1,290.88,70a4.26,4.26,0,0,1,3.77,2,4.9,4.9,0,0,1,4.13-2,4.48,4.48,0,0,1,4.58,4.78v7.68H301V75.16c0-1.92-1.08-3.1-2.81-3.1a3.24,3.24,0,0,0-2.85,1.63,5.29,5.29,0,0,1,.09,1.06v7.68H293V75.16c0-1.92-1.08-3.1-2.81-3.1a3.19,3.19,0,0,0-2.76,1.49v8.88h-2.4Z"/>
    <path d="M306.12,70.21h2.38v1.18A5.54,5.54,0,0,1,312.24,70a6.3,6.3,0,1,1-3.72,11.4v6h-2.4Zm2.4,3.36v5.52a4.53,4.53,0,0,0,3.41,1.44,4.21,4.21,0,0,0,0-8.42A4.4,4.4,0,0,0,308.52,73.57Z"/>
    <path d="M323.09,82.43h-2.4V65.63l2.4-.53Z"/>
    <path d="M331.78,82.64a6.29,6.29,0,0,1-6.41-6.33A6.14,6.14,0,0,1,331.49,70c3.36,0,5.9,2.78,5.9,6.38v.7h-9.65a4.12,4.12,0,0,0,4.13,3.5,4.72,4.72,0,0,0,3.1-1.08L336.5,81A7.28,7.28,0,0,1,331.78,82.64Zm-4-7.34H335a3.65,3.65,0,0,0-7.25,0Z"/>
    <path d="M345.67,82.43l-.79-12h1.66L347,80l5-9.6h1.56l.89,9.6L359,70.4h1.71l-5.86,12h-1.7l-.87-9.63-5,9.63Z"/>
    <path d="M361.78,82.43h-1.73l2.54-12h1.73ZM363,67a1.36,1.36,0,0,1,1.32-1.32,1,1,0,0,1,1.06,1.06,1.37,1.37,0,0,1-1.32,1.34A1.06,1.06,0,0,1,363,67Z"/>
    <path d="M368.45,71.92H365.9l.34-1.52h2.52l.65-3,1.85-.46-.75,3.5H374l-.34,1.52h-3.5l-1.56,7.27c-.29,1.39.19,1.92,1.77,1.92a4.61,4.61,0,0,0,1.39-.24l-.31,1.56a7.17,7.17,0,0,1-1.75.21c-2.26,0-3.31-1.1-2.88-3.07Z"/>
    <path d="M376.94,65.63l1.8-.41L377.4,71.6A5.29,5.29,0,0,1,381,70.19c2.84,0,4.47,2.11,3.87,5l-1.54,7.25h-1.73l1.49-7c.48-2.21-.57-3.68-2.66-3.68A4.44,4.44,0,0,0,377,73.4l-1.92,9h-1.73Z"/>
    <path d="M246.07,85.43v-1.2h92.19v1.2Z"/>
    <path d="M144.87,101h-2.6V99h2.6V95.89l2.37-.58V99h3.6v2h-3.6v6.62c0,1.25.51,1.71,1.8,1.71a4.84,4.84,0,0,0,1.75-.29v2a7.77,7.77,0,0,1-2.28.36c-2.37,0-3.64-1.12-3.64-3.24Z"/>
    <path d="M158.16,98.77a6.35,6.35,0,1,1-6.36,6.34A6.28,6.28,0,0,1,158.16,98.77Zm4,6.34a4,4,0,1,0-4,4.25A4.08,4.08,0,0,0,162.15,105.11Z"/>
    <path d="M172.63,98.77a6.35,6.35,0,1,1-6.36,6.34A6.27,6.27,0,0,1,172.63,98.77Zm4,6.34a4,4,0,1,0-4,4.25A4.08,4.08,0,0,0,176.62,105.11Z"/>
    <path d="M186.27,99h2.4v1.15a4.68,4.68,0,0,1,3.43-1.39,4.27,4.27,0,0,1,3.77,2,4.89,4.89,0,0,1,4.12-2,4.48,4.48,0,0,1,4.59,4.78v7.68h-2.4V104c0-1.92-1.08-3.1-2.81-3.1a3.27,3.27,0,0,0-2.86,1.63,4.65,4.65,0,0,1,.1,1.06v7.68h-2.38V104c0-1.92-1.08-3.1-2.8-3.1a3.18,3.18,0,0,0-2.76,1.49v8.88h-2.4Z"/>
    <path d="M209.57,106.26a2.86,2.86,0,0,0,3,3.12,3.43,3.43,0,0,0,3-1.61V99H218v12.22h-2.4V110a5,5,0,0,1-3.67,1.47,4.56,4.56,0,0,1-4.75-4.8V99h2.4Z"/>
    <path d="M230,107.84l1.44,1.56a6.76,6.76,0,0,1-4.83,2,6.34,6.34,0,0,1,0-12.67,7,7,0,0,1,4.92,2L230,102.44a4.57,4.57,0,0,0-3.36-1.53,4.22,4.22,0,0,0,0,8.42A4.47,4.47,0,0,0,230,107.84Z"/>
    <path d="M233.33,94.43l2.4-.53v6.34a5,5,0,0,1,3.67-1.47,4.57,4.57,0,0,1,4.78,4.78v7.68h-2.4V104a2.85,2.85,0,0,0-3-3.1,3.45,3.45,0,0,0-3,1.58v8.79h-2.4Z"/>
    <path d="M252.24,94.43h12.39v2.2h-9.87v5.05h6.48v2.16h-6.48V109h10v2.21H252.24Z"/>
    <path d="M269.66,97.55v13.68h-2.35V94.43h3.36L276,105.16l5.26-10.73h3.36v16.8h-2.38V97.52L275.93,110Z"/>
    <path d="M288,94.43h7.77c3.29,0,5.5,2,5.5,5s-2.23,5-5.5,5H290.5v6.77H288Zm2.52,2.2v5.69h5c2,0,3.22-1.1,3.22-2.85s-1.25-2.84-3.22-2.84Z"/>
    <path d="M303.84,94.43h2.52v7.2h8.93v-7.2h2.52v16.8h-2.52v-7.32h-8.93v7.32h-2.52Z"/>
    <path d="M326.52,94.43h3l6.87,16.8H333.6l-1.94-4.92h-7.52l-2,4.92h-2.62Zm4.32,9.79-2.93-7.37L325,104.22Z"/>
    <path d="M338.57,106.67a8.11,8.11,0,0,0,5.78,2.64c2.43,0,4.08-1.15,4.08-2.81,0-1.49-1-2.23-3.41-2.64l-2.8-.46c-3.08-.5-4.59-1.94-4.59-4.36,0-2.93,2.45-4.83,6.19-4.83a11.29,11.29,0,0,1,6.77,2.28l-1.39,1.92a8.92,8.92,0,0,0-5.5-2.06c-2.18,0-3.64,1-3.64,2.49s.84,2,3,2.38l2.71.43c3.55.58,5.16,2,5.16,4.66,0,3.09-2.69,5.16-6.7,5.16a10.1,10.1,0,0,1-7.2-3Z"/>
    <path d="M353.26,94.43h2.52v16.8h-2.52Z"/>
    <path d="M359.23,106.67a8.15,8.15,0,0,0,5.79,2.64c2.42,0,4.08-1.15,4.08-2.81,0-1.49-1-2.23-3.41-2.64l-2.81-.46c-3.07-.5-4.59-1.94-4.59-4.36,0-2.93,2.45-4.83,6.2-4.83a11.31,11.31,0,0,1,6.77,2.28l-1.4,1.92a8.91,8.91,0,0,0-5.49-2.06c-2.19,0-3.65,1-3.65,2.49s.84,2,3,2.38l2.71.43c3.55.58,5.16,2,5.16,4.66,0,3.09-2.69,5.16-6.69,5.16a10.1,10.1,0,0,1-7.2-3Z"/>
    <path d="M376.18,109.88a1.53,1.53,0,1,1-3.05,0,1.53,1.53,0,0,1,3.05,0Z"/>
  </g>
</svg>
