<svg xmlns="http://www.w3.org/2000/svg" width="652" height="395" viewBox="0 0 652 395"><defs><style>.a{fill:#989898;}.b{fill:#e00;}</style></defs><path class="a" d="M51.1035,266.7648h3.2744a2.3375,2.3375,0,0,1,2.6026,2.3628,2.2216,2.2216,0,0,1-1.7754,2.2427l1.7627,3.79h-.6836l-1.7266-3.6938h-2.83V275.16h-.624Zm.624.5637v3.5742h2.6143a1.8,1.8,0,1,0,0-3.5742Z"/><path class="a" d="M62.4893,274.0929l.3593.4439a3.29,3.29,0,0,1-2.0859.7434,2.8567,2.8567,0,0,1-2.8066-2.9983,2.8167,2.8167,0,0,1,2.6621-2.9863,2.7053,2.7053,0,0,1,2.6025,2.8664v.2278h-4.665a2.2746,2.2746,0,0,0,2.23,2.3389A2.6122,2.6122,0,0,0,62.4893,274.0929Zm-3.91-2.1948h4.03a2.0956,2.0956,0,0,0-1.9912-2.0508A2.1714,2.1714,0,0,0,58.5791,271.8981Z"/><path class="a" d="M69.124,274.3808a2.3228,2.3228,0,0,1-1.8945.8755,2.9807,2.9807,0,0,1,.0244-5.9368,2.437,2.437,0,0,1,1.87.84V266.465l.6006-.1438V275.16H69.124Zm-1.7988.3237a2.1614,2.1614,0,0,0,1.7988-.8755v-3.07a2.1865,2.1865,0,0,0-1.7988-.8874,2.4279,2.4279,0,0,0,0,4.8332Z"/><path class="a" d="M74.623,266.7648h.6241v3.886H80.44v-3.886h.624V275.16H80.44v-3.9458H75.2471V275.16H74.623Z"/><path class="a" d="M82.6758,273.5053c0-1.0674.9228-1.7271,2.1347-1.7271a3.2388,3.2388,0,0,1,1.8711.5157v-.8995a1.4182,1.4182,0,0,0-1.5839-1.5952,3.6722,3.6722,0,0,0-1.7745.5279l-.24-.492a4.44,4.44,0,0,1,2.0391-.54c1.3554,0,2.1465.6836,2.1465,1.9909V275.16h-.587v-.7075a2.55,2.55,0,0,1-1.8955.8274A1.8755,1.8755,0,0,1,82.6758,273.5053Zm2.1826,1.2712a2.3862,2.3862,0,0,0,1.8232-.7915v-1.1994a3.0431,3.0431,0,0,0-1.8115-.5037c-.9238,0-1.6074.4558-1.6074,1.2114C83.2627,274.2729,83.9346,274.7765,84.8584,274.7765Z"/><path class="a" d="M89.61,269.9071h-1.211v-.5156H89.61v-1.571l.6-.156v1.727h1.6914v.5156H90.21v3.898c0,.66.24.9236.8642.9236a2.0394,2.0394,0,0,0,.8272-.168v.5637a2.833,2.833,0,0,1-.9356.1558A1.1906,1.1906,0,0,1,89.61,273.997Z"/><path class="a" d="M95.5146,266.7648h6.5245v.5637h-2.95V275.16h-.6231v-7.8318H95.5146Z"/><path class="a" d="M106.4082,274.0929l.36.4439a3.2951,3.2951,0,0,1-2.087.7434,2.8568,2.8568,0,0,1-2.8066-2.9983,2.8167,2.8167,0,0,1,2.6621-2.9863,2.7047,2.7047,0,0,1,2.6025,2.8664v.2278h-4.665a2.2747,2.2747,0,0,0,2.2305,2.3389A2.6119,2.6119,0,0,0,106.4082,274.0929Zm-3.91-2.1948h4.03a2.0955,2.0955,0,0,0-1.9912-2.0508A2.1714,2.1714,0,0,0,102.498,271.8981Z"/><path class="a" d="M109.8057,272.174l-2.087-2.7825h.7081l1.7509,2.3506,1.7383-2.3506h.6719l-2.0625,2.77,2.2422,2.9983h-.7071l-1.9072-2.5786-1.8945,2.5786h-.6719Z"/><path class="a" d="M114.4141,269.9071h-1.211v-.5156h1.211v-1.571l.6-.156v1.727h1.6914v.5156h-1.6914v3.898c0,.66.24.9236.8642.9236a2.0394,2.0394,0,0,0,.8272-.168v.5637a2.833,2.833,0,0,1-.9356.1558,1.1906,1.1906,0,0,1-1.3554-1.2832Z"/><path class="a" d="M121.0625,266.7648h.624v7.8318h4.8809v.5637h-5.5049Z"/><path class="a" d="M127.7939,267.3166a.5519.5519,0,1,1,.5518.5637A.5583.5583,0,0,1,127.7939,267.3166Zm.8516,7.8437h-.6v-5.7688h.6Z"/><path class="a" d="M130.9746,277.1632l.3115-.48a3.7432,3.7432,0,0,0,1.8594.5518c1.0908,0,1.69-.54,1.69-1.5833v-1.2473a2.3666,2.3666,0,0,1-1.8828.8516,2.9807,2.9807,0,0,1,.0244-5.9368,2.4372,2.4372,0,0,1,1.87.84v-.7676h.5878v6.2366a1.9931,1.9931,0,0,1-2.2548,2.1587A4.33,4.33,0,0,1,130.9746,277.1632Zm2.0742-2.4587a2.1524,2.1524,0,0,0,1.7871-.8516v-3.1181a2.21,2.21,0,0,0-1.7871-.8635,2.4279,2.4279,0,0,0,0,4.8332Z"/><path class="a" d="M137.3105,266.465l.6-.1438v3.9939a2.0812,2.0812,0,0,1,1.8349-1.0195,2.0524,2.0524,0,0,1,2.1348,2.1828V275.16h-.6v-3.5141a1.64,1.64,0,0,0-1.7032-1.823,1.8423,1.8423,0,0,0-1.6669,1.0075v4.33h-.6Z"/><path class="a" d="M144.209,269.9071h-1.211v-.5156h1.211v-1.571l.6-.156v1.727H146.5v.5156h-1.6914v3.898c0,.66.24.9236.8643.9236a2.0392,2.0392,0,0,0,.8271-.168v.5637a2.832,2.832,0,0,1-.9355.1558,1.1906,1.1906,0,0,1-1.3555-1.2832Z"/><path class="a" d="M52.8662,290.0129h3.0225a2,2,0,0,1,2.2549,2.051,2.5908,2.5908,0,0,1-2.3028,2.6145l1.043,3.73h-.6113l-1.0313-3.6939H52.4824l-.791,3.6939h-.6123Zm.4922.5637-.7559,3.5742h2.6866a2.0741,2.0741,0,0,0,2.2431-2.063c0-.9355-.66-1.5112-1.7275-1.5112Z"/><path class="a" d="M58.52,295.9977a3.3157,3.3157,0,0,1,3.0821-3.4541A2.1551,2.1551,0,0,1,63.748,294.87a5.5944,5.5944,0,0,1-.0478.7676H59.1309a3.69,3.69,0,0,0-.0235.3718,1.8561,1.8561,0,0,0,1.8828,1.967,3.0639,3.0639,0,0,0,1.6426-.54l.3125.4558a3.5742,3.5742,0,0,1-1.9678.6355A2.4272,2.4272,0,0,1,58.52,295.9977Zm.7071-.8515h3.9345a1.681,1.681,0,0,0-1.5957-2.0508A2.5985,2.5985,0,0,0,59.2266,295.1462Z"/><path class="a" d="M68.9326,297.8686a2.38,2.38,0,0,1-1.6426.6357,2.4043,2.4043,0,0,1-2.3388-2.6025,3.1917,3.1917,0,0,1,2.998-3.3343,2.2,2.2,0,0,1,1.8955.9595l.791-3.814.6114-.1437L69.4,298.4084h-.5879Zm-1.4746.1081a2.3494,2.3494,0,0,0,1.583-.6238l.6836-3.25a1.9473,1.9473,0,0,0-1.7148-.9834,2.5945,2.5945,0,0,0-2.4707,2.7344A1.93,1.93,0,0,0,67.458,297.9767Z"/><path class="a" d="M76.0732,290.0129h.6123l-.8281,3.8859h5.0977l.8271-3.8859h.6123l-1.7871,8.3955h-.6123l.84-3.9458H75.7383l-.84,3.9458h-.6113Z"/><path class="a" d="M82.6152,296.8493a1.9355,1.9355,0,0,1,2.1592-1.823,2.9681,2.9681,0,0,1,2.0147.6477l.18-.8157c.252-1.1514-.12-1.811-1.3671-1.811a4.251,4.251,0,0,0-1.7149.4678l-.2158-.48a4.5949,4.5949,0,0,1,1.9668-.4917c1.3789,0,2.2666.7195,1.9307,2.2068l-.8155,3.658h-.5752l.12-.5518a2.7058,2.7058,0,0,1-1.7393.6716A1.7382,1.7382,0,0,1,82.6152,296.8493Zm2.0508,1.1753a2.584,2.584,0,0,0,1.751-.7075l.2646-1.1756a2.58,2.58,0,0,0-1.8593-.6116c-.8516,0-1.6436.48-1.6436,1.2593C83.1787,297.5209,83.6709,298.0246,84.666,298.0246Z"/><path class="a" d="M90.126,293.1552H88.9512l.1074-.5156h1.1758l.3359-1.5711.6231-.156-.3711,1.7271h1.667l-.1084.5156h-1.667l-.8155,3.85c-.1435.6958.06.9717.8155.9717a2.206,2.206,0,0,0,.66-.12l-.12.5518a2.4232,2.4232,0,0,1-.7559.12,1.1116,1.1116,0,0,1-1.1992-1.487Z"/><path class="a" d="M96.63,290.0129h6.3691l-.12.5637H100l-1.667,7.8318h-.6113l1.667-7.8318h-2.878Z"/><path class="a" d="M101.8994,295.9977a3.3157,3.3157,0,0,1,3.082-3.4541,2.1551,2.1551,0,0,1,2.1465,2.3267,5.5944,5.5944,0,0,1-.0478.7676h-4.5694a3.72,3.72,0,0,0-.0234.3718,1.8561,1.8561,0,0,0,1.8828,1.967,3.0644,3.0644,0,0,0,1.6426-.54l.3125.4558a3.5742,3.5742,0,0,1-1.9678.6355A2.4272,2.4272,0,0,1,101.8994,295.9977Zm.707-.8515h3.9346a1.6811,1.6811,0,0,0-1.5957-2.0508A2.5978,2.5978,0,0,0,102.6064,295.1462Z"/><path class="a" d="M109.7578,295.362,108.33,292.64h.66l1.1748,2.3266L112.36,292.64h.7314l-2.6748,2.8183,1.5234,2.95h-.66l-1.2832-2.5547-2.3985,2.5547h-.7314Z"/><path class="a" d="M114.81,293.1552h-1.1748l.1074-.5156h1.1758l.3359-1.5711.6231-.156-.3711,1.7271h1.667l-.1084.5156h-1.667l-.8155,3.85c-.1435.6958.06.9717.8155.9717a2.206,2.206,0,0,0,.66-.12l-.12.5518a2.4232,2.4232,0,0,1-.7559.12,1.1116,1.1116,0,0,1-1.1992-1.487Z"/><path class="a" d="M122.0459,290.0129h.6113l-1.667,7.8317h4.7852l-.12.5638h-5.3965Z"/><path class="a" d="M127.6738,298.4084h-.5869l1.2354-5.7688h.5869Zm1.9073-7.88a.6265.6265,0,0,1-.6.6.4921.4921,0,0,1-.4912-.5156.6259.6259,0,0,1,.6-.6A.4923.4923,0,0,1,129.5811,290.5287Z"/><path class="a" d="M129.5947,300.1955l.3721-.48a3.3,3.3,0,0,0,2.0625.7556,1.7061,1.7061,0,0,0,1.7148-1.4992l.2286-1.2a2.3822,2.3822,0,0,1-4.09-1.8708,3.1917,3.1917,0,0,1,2.9981-3.3343,2.1807,2.1807,0,0,1,1.98,1.0913l.2158-1.0192h.5752l-1.3555,6.4763a2.179,2.179,0,0,1-2.23,1.9189A4.0952,4.0952,0,0,1,129.5947,300.1955Zm2.7949-2.2188a2.3955,2.3955,0,0,0,1.7032-.7436l.6347-2.9624a1.9163,1.9163,0,0,0-1.7861-1.1514,2.5945,2.5945,0,0,0-2.4707,2.7344A1.93,1.93,0,0,0,132.39,297.9767Z"/><path class="a" d="M138.1016,289.713l.6113-.1437-.8272,3.9458a2.3435,2.3435,0,0,1,1.8467-.9715,1.7817,1.7817,0,0,1,1.7754,2.3867l-.7558,3.4781h-.5879l.7431-3.3821c.2647-1.1875-.2871-1.9551-1.331-1.9551a2.2394,2.2394,0,0,0-1.7989.9836l-.9111,4.3536h-.5879Z"/><path class="a" d="M144.1611,293.1552h-1.1748l.1074-.5156H144.27l.336-1.5711.623-.156-.3711,1.7271h1.667l-.1084.5156h-1.667l-.8154,3.85c-.1436.6958.06.9717.8154.9717a2.2066,2.2066,0,0,0,.66-.12l-.12.5518a2.4232,2.4232,0,0,1-.7559.12,1.1116,1.1116,0,0,1-1.1992-1.487Z"/><path class="a" d="M151.3975,290.0129h.6113l-1.7871,8.3955H149.61Z"/><path class="a" d="M154.0127,293.1552h-1.1748l.1074-.5156h1.1758l.3359-1.5711.6231-.156-.3711,1.7271h1.667l-.1084.5156h-1.667l-.8154,3.85c-.1436.6958.0595.9717.8154.9717a2.2055,2.2055,0,0,0,.66-.12l-.12.5518a2.4226,2.4226,0,0,1-.7558.12,1.1117,1.1117,0,0,1-1.1993-1.487Z"/><path class="a" d="M156.5459,296.8493a1.9355,1.9355,0,0,1,2.1592-1.823,2.9676,2.9676,0,0,1,2.0146.6477l.18-.8157c.252-1.1514-.12-1.811-1.3672-1.811a4.2506,4.2506,0,0,0-1.7148.4678l-.2158-.48a4.5943,4.5943,0,0,1,1.9668-.4917c1.3789,0,2.2666.7195,1.9306,2.2068l-.8154,3.658h-.5752l.12-.5518a2.7053,2.7053,0,0,1-1.7392.6716A1.7382,1.7382,0,0,1,156.5459,296.8493Zm2.0508,1.1753a2.584,2.584,0,0,0,1.751-.7075l.2646-1.1756a2.58,2.58,0,0,0-1.8594-.6116c-.8515,0-1.6435.48-1.6435,1.2593C157.1094,297.5209,157.6016,298.0246,158.5967,298.0246Z"/><path class="a" d="M164.2969,289.713l.6113-.1437-1.8467,8.8391h-.5879Z"/><path class="a" d="M165.4971,298.4084H164.91l1.2353-5.7688h.5869Zm1.9072-7.88a.6265.6265,0,0,1-.6.6.4921.4921,0,0,1-.4912-.5156.6259.6259,0,0,1,.6-.6A.4923.4923,0,0,1,167.4043,290.5287Z"/><path class="a" d="M167.6943,296.01a3.3144,3.3144,0,0,1,3.0577-3.4661,2.5731,2.5731,0,0,1,2.1113,1.1152l-.42.3719a2.0454,2.0454,0,0,0-1.7032-.9353,2.7407,2.7407,0,0,0-2.459,2.9262,1.9059,1.9059,0,0,0,1.919,1.9671,2.8087,2.8087,0,0,0,1.667-.6358l.3242.4559a3.3755,3.3755,0,0,1-2.0508.7314A2.4247,2.4247,0,0,1,167.6943,296.01Z"/><path class="a" d="M51.0674,313.1645H54.51a2.4159,2.4159,0,0,1,2.6738,2.4228,2.2838,2.2838,0,0,1-1.751,2.2666L57.22,321.56H56.2l-1.7031-3.586H51.9912v3.586h-.9238Zm.9238.8156v3.2264h2.4463a1.6253,1.6253,0,1,0,0-3.2264Z"/><path class="a" d="M61.002,321.6679A2.9208,2.9208,0,0,1,58.1,318.6337a2.8486,2.8486,0,0,1,2.7588-3.0225,2.7649,2.7649,0,0,1,2.6865,2.95v.2639H58.9512A2.1329,2.1329,0,0,0,61.0381,320.9a2.3943,2.3943,0,0,0,1.6074-.6l.5508.5876A3.4152,3.4152,0,0,1,61.002,321.6679Zm-2.0274-3.4661h3.7061a1.9324,1.9324,0,0,0-1.835-1.8349A1.9556,1.9556,0,0,0,58.9746,318.2018Z"/><path class="a" d="M69.3652,320.78a2.3058,2.3058,0,0,1-1.8711.8636,3.0191,3.0191,0,0,1,.0479-6.0088,2.3838,2.3838,0,0,1,1.8232.8156v-3.466l.876-.18V321.56h-.876Zm-1.6552.096a2.0052,2.0052,0,0,0,1.6552-.78v-2.9025a2.1652,2.1652,0,1,0-1.6552,3.6821Z"/><path class="a" d="M74.9951,313.1645h.9229v3.7541h4.8213v-3.7541h.9238V321.56h-.9238v-3.814H75.918v3.814h-.9229Z"/><path class="a" d="M83.1787,319.8808c0-1.0432.875-1.739,2.1943-1.739a3.389,3.389,0,0,1,1.7872.4558v-.8035a1.3178,1.3178,0,0,0-1.5108-1.4512,3.8638,3.8638,0,0,0-1.7754.5037l-.3242-.6716a5.0177,5.0177,0,0,1,2.207-.5638c1.4512,0,2.2666.7317,2.2666,2.063V321.56H87.16v-.6836a2.5132,2.5132,0,0,1-1.8584.7915A1.8893,1.8893,0,0,1,83.1787,319.8808Zm2.3027,1.1155a2.3163,2.3163,0,0,0,1.6788-.6717v-1.1274a3.0877,3.0877,0,0,0-1.6553-.42c-.8994,0-1.4873.4319-1.4873,1.0793C84.0176,320.54,84.6055,320.9963,85.4814,320.9963Z"/><path class="a" d="M90.3184,316.4267h-1.211v-.7195h1.211V314.1l.8759-.2038v1.811H92.873v.7195H91.1943v3.5862c0,.6235.24.8754.8516.8754a2.0935,2.0935,0,0,0,.8271-.156v.78a3.2852,3.2852,0,0,1-1.02.1558c-1.0068,0-1.5351-.4917-1.5351-1.4273Z"/><path class="a" d="M96.3906,313.1645h6.7158v.8156h-2.89v7.58H99.293v-7.58H96.3906Z"/><path class="a" d="M105.7734,321.6679a2.9208,2.9208,0,0,1-2.9023-3.0342,2.8486,2.8486,0,0,1,2.7588-3.0225,2.765,2.765,0,0,1,2.6865,2.95v.2639h-4.5937A2.1328,2.1328,0,0,0,105.81,320.9a2.3943,2.3943,0,0,0,1.6074-.6l.5508.5876A3.4153,3.4153,0,0,1,105.7734,321.6679Zm-2.0273-3.4661h3.706a1.9323,1.9323,0,0,0-1.8349-1.8349A1.9556,1.9556,0,0,0,103.7461,318.2018Z"/><path class="a" d="M110.9336,318.55l-2.1231-2.8425h1.044l1.6191,2.2187,1.5948-2.2187h.9951l-2.0987,2.8183,2.2666,3.0345h-1.0429l-1.751-2.3867-1.7393,2.3867h-.9951Z"/><path class="a" d="M115.8652,316.4267h-1.2109v-.7195h1.2109V314.1l.876-.2038v1.811H118.42v.7195h-1.6787v3.5862c0,.6235.24.8754.8516.8754a2.0935,2.0935,0,0,0,.8271-.156v.78a3.2857,3.2857,0,0,1-1.0195.1558c-1.0068,0-1.5352-.4917-1.5352-1.4273Z"/><path class="a" d="M122.67,313.1645h3.4424a2.4159,2.4159,0,0,1,2.6738,2.4228,2.2839,2.2839,0,0,1-1.7509,2.2666l1.7871,3.7061h-1.02L126.1,317.974h-2.5059v3.586H122.67Zm.9238.8156v3.2264H126.04a1.6253,1.6253,0,1,0,0-3.2264Z"/><path class="a" d="M132.6045,321.6679a2.9208,2.9208,0,0,1-2.9024-3.0342,2.8487,2.8487,0,0,1,2.7588-3.0225,2.765,2.765,0,0,1,2.6866,2.95v.2639h-4.5938a2.1329,2.1329,0,0,0,2.0869,2.0747,2.39,2.39,0,0,0,1.6065-.6l.5517.5876A3.4152,3.4152,0,0,1,132.6045,321.6679Zm-2.0274-3.4661h3.7061a1.9324,1.9324,0,0,0-1.835-1.8349A1.9556,1.9556,0,0,0,130.5771,318.2018Z"/><path class="a" d="M136.3984,318.6337a2.8468,2.8468,0,0,1,2.7461-2.9985,2.3619,2.3619,0,0,1,1.835.8276v-.7556h.8642V321.86c0,1.4511-.8759,2.2549-2.4707,2.2549a4.6959,4.6959,0,0,1-2.2793-.6119l.3721-.6716a3.9363,3.9363,0,0,0,1.8711.54c1.0674,0,1.6309-.5156,1.6309-1.4993v-1.1032a2.3062,2.3062,0,0,1-1.8711.8635A2.8244,2.8244,0,0,1,136.3984,318.6337Zm2.9141,2.2427a2.0154,2.0154,0,0,0,1.6553-.7915v-2.8906a2.1653,2.1653,0,1,0-1.6553,3.6821Z"/><path class="a" d="M144.4971,319.2333a1.5119,1.5119,0,0,0,1.56,1.6909,1.7387,1.7387,0,0,0,1.5352-.8874v-4.33h.875V321.56h-.875v-.9475a2.0964,2.0964,0,0,1-1.8594,1.0434,2.0468,2.0468,0,0,1-2.123-2.1709v-3.7778h.8877Z"/><path class="a" d="M151.1455,321.56h-.876v-8.5752l.876-.18Z"/><path class="a" d="M152.6338,319.8808c0-1.0432.875-1.739,2.1943-1.739a3.3883,3.3883,0,0,1,1.7871.4558v-.8035a1.3177,1.3177,0,0,0-1.5107-1.4512,3.8638,3.8638,0,0,0-1.7754.5037l-.3242-.6716a5.0177,5.0177,0,0,1,2.207-.5638c1.4512,0,2.2666.7317,2.2666,2.063V321.56h-.8633v-.6836a2.5128,2.5128,0,0,1-1.8584.7915A1.8893,1.8893,0,0,1,152.6338,319.8808Zm2.3027,1.1155a2.3161,2.3161,0,0,0,1.6787-.6717v-1.1274a3.0871,3.0871,0,0,0-1.6552-.42c-.9,0-1.4873.4319-1.4873,1.0793C153.4727,320.54,154.0605,320.9963,154.9365,320.9963Z"/><path class="a" d="M159.2568,315.7072h.876v1.1872a1.7475,1.7475,0,0,1,1.6309-1.2951,1.6566,1.6566,0,0,1,.5517.084v.7915a2.1877,2.1877,0,0,0-.6123-.1079,1.668,1.668,0,0,0-1.57,1.1872V321.56h-.876Z"/><path class="a" d="M52.1943,336.4364h3.1543a2.0812,2.0812,0,0,1,2.3272,2.1231,2.6345,2.6345,0,0,1-2.2666,2.6264l1.0908,3.646h-.9473l-1.0556-3.5859H52.0752l-.7676,3.5859h-.8994Zm.7325.8157-.6963,3.2263h2.5312a1.8653,1.8653,0,0,0,2.0147-1.8591,1.3685,1.3685,0,0,0-1.56-1.3672Z"/><path class="a" d="M60.7383,344.94a2.56,2.56,0,0,1-2.6631-2.6985,3.2008,3.2008,0,0,1,3.0107-3.3582,2.3852,2.3852,0,0,1,2.3506,2.5786,5.7156,5.7156,0,0,1-.0361.6358H58.915v.12a1.8724,1.8724,0,0,0,1.8594,1.9668,2.5539,2.5539,0,0,0,1.5469-.5156l.456.6236A3.5051,3.5051,0,0,1,60.7383,344.94Zm-1.7393-3.4661h3.6221a1.67,1.67,0,0,0-1.5947-1.823A2.1891,2.1891,0,0,0,58.999,341.4738Z"/><path class="a" d="M68.5732,344.28a2.399,2.399,0,0,1-1.6308.6357,2.4388,2.4388,0,0,1-2.3272-2.6506,3.2065,3.2065,0,0,1,3.0225-3.3462,2.1855,2.1855,0,0,1,1.8594.9356l.7431-3.5979.8877-.18-1.8232,8.7551h-.8516Zm-1.3193-.12a2.1875,2.1875,0,0,0,1.4639-.5757l.623-3.0222a1.854,1.854,0,0,0-1.5947-.8757,2.3811,2.3811,0,0,0-2.2793,2.5066A1.7969,1.7969,0,0,0,67.2539,344.16Z"/><path class="a" d="M75.8223,336.4364h.9111l-.8037,3.7542h4.7256l.8037-3.7542H82.37l-1.7861,8.3955h-.9121l.8154-3.8139H75.7627l-.8164,3.8139h-.9111Z"/><path class="a" d="M82.4834,343.2729a1.9858,1.9858,0,0,1,2.2432-1.8831,3.313,3.313,0,0,1,1.9306.5637l.1563-.7075c.2392-1.08-.2158-1.6311-1.3321-1.6311a4.0217,4.0217,0,0,0-1.6787.4436l-.24-.6836a5.3208,5.3208,0,0,1,2.0752-.48c1.5713,0,2.3506.8635,2.0391,2.2788l-.8155,3.6579H86.01l.12-.5517a2.6886,2.6886,0,0,1-1.7031.6357C83.2627,344.9159,82.4834,344.2682,82.4834,343.2729Zm2.1953.9834a2.4754,2.4754,0,0,0,1.5947-.6l.252-1.1155a2.6754,2.6754,0,0,0-1.7149-.5037c-.8759,0-1.499.48-1.499,1.1394C83.3115,343.8605,83.8145,344.2563,84.6787,344.2563Z"/><path class="a" d="M90.1748,339.6986H88.999l.168-.7194H90.33l.3359-1.6072.9238-.2039-.3964,1.8111h1.6552l-.1679.7194H91.0381l-.7676,3.5381c-.1445.6717.0713.9356.8037.9356a2.1863,2.1863,0,0,0,.6709-.12l-.168.78a3.3714,3.3714,0,0,1-.8515.108c-1.0674,0-1.5586-.54-1.3428-1.5113Z"/><path class="a" d="M96.8711,336.4364h6.5723l-.1807.8157h-2.8184l-1.6191,7.58h-.8994l1.6191-7.58H96.69Z"/><path class="a" d="M104.9941,344.94a2.56,2.56,0,0,1-2.663-2.6985,3.2008,3.2008,0,0,1,3.0107-3.3582,2.3852,2.3852,0,0,1,2.3506,2.5786,5.6923,5.6923,0,0,1-.0362.6358h-4.4853v.12a1.8724,1.8724,0,0,0,1.8594,1.9668,2.5538,2.5538,0,0,0,1.5468-.5156l.4561.6236A3.5052,3.5052,0,0,1,104.9941,344.94Zm-1.7392-3.4661h3.6221a1.67,1.67,0,0,0-1.5948-1.823A2.189,2.189,0,0,0,103.2549,341.4738Z"/><path class="a" d="M110.2861,341.75l-1.4511-2.7705h.96l1.1035,2.2067,2.0381-2.2067h1.0322l-2.7353,2.8664,1.56,2.9863h-.9473l-1.2119-2.3867-2.2061,2.3867h-1.0556Z"/><path class="a" d="M115.6143,339.6986h-1.1758l.1679-.7194H115.77l.336-1.6072.9238-.2039-.3965,1.8111h1.6553l-.168.7194h-1.6426l-.7675,3.5381c-.1446.6717.0712.9356.8037.9356a2.1867,2.1867,0,0,0,.6709-.12l-.168.78a3.3727,3.3727,0,0,1-.8516.108c-1.0673,0-1.5586-.54-1.3427-1.5113Z"/><path class="a" d="M123.0293,336.4364h3.1543a2.0812,2.0812,0,0,1,2.3271,2.1231,2.6345,2.6345,0,0,1-2.2666,2.6264l1.0909,3.646h-.9473l-1.0557-3.5859H122.91l-.7676,3.5859h-.8994Zm.7324.8157-.6963,3.2263h2.5313a1.8652,1.8652,0,0,0,2.0146-1.8591,1.3685,1.3685,0,0,0-1.5595-1.3672Z"/><path class="a" d="M131.5732,344.94a2.56,2.56,0,0,1-2.663-2.6985,3.2008,3.2008,0,0,1,3.0107-3.3582,2.3852,2.3852,0,0,1,2.3506,2.5786,5.7156,5.7156,0,0,1-.0361.6358H129.75v.12a1.8724,1.8724,0,0,0,1.8594,1.9668,2.5536,2.5536,0,0,0,1.5468-.5156l.4561.6236A3.5052,3.5052,0,0,1,131.5732,344.94Zm-1.7392-3.4661h3.6221a1.671,1.671,0,0,0-1.5948-1.823A2.189,2.189,0,0,0,129.834,341.4738Z"/><path class="a" d="M135.45,342.2653a3.2144,3.2144,0,0,1,3.0225-3.3462,2.1707,2.1707,0,0,1,1.8593.9356l.18-.8755h.8516l-1.3428,6.44a2.3007,2.3007,0,0,1-2.3994,2.0029,4.321,4.321,0,0,1-2.5068-.8755l.456-.6357a3.3533,3.3533,0,0,0,2.0029.7436,1.5364,1.5364,0,0,0,1.6192-1.3073l.2275-1.0913a2.3539,2.3539,0,0,1-1.6308.6477A2.43,2.43,0,0,1,135.45,342.2653Zm2.6387,1.895a2.1719,2.1719,0,0,0,1.4756-.5876l.623-3.0225a1.8939,1.8939,0,0,0-1.6064-.8635,2.3811,2.3811,0,0,0-2.2793,2.5066A1.7969,1.7969,0,0,0,138.0889,344.16Z"/><path class="a" d="M143.2021,342.3974c-.24,1.0793.2637,1.7988,1.2237,1.7988a2.039,2.039,0,0,0,1.5947-.8154l.96-4.4016h.8632l-1.2714,5.8527h-.8633l.18-.84a2.3738,2.3738,0,0,1-1.835.9236,1.7556,1.7556,0,0,1-1.7392-2.3508l.78-3.5859h.8633Z"/><path class="a" d="M149.2256,344.8319h-.8633l1.7988-8.5751.8877-.18Z"/><path class="a" d="M151.0986,343.2729a1.9858,1.9858,0,0,1,2.2432-1.8831,3.3131,3.3131,0,0,1,1.9307.5637l.1562-.7075c.2393-1.08-.2158-1.6311-1.332-1.6311a4.0213,4.0213,0,0,0-1.6787.4436l-.24-.6836a5.3208,5.3208,0,0,1,2.0752-.48c1.5713,0,2.3506.8635,2.0391,2.2788l-.8154,3.6579h-.8516l.12-.5517a2.6884,2.6884,0,0,1-1.7031.6357C151.8779,344.9159,151.0986,344.2682,151.0986,343.2729Zm2.1953.9834a2.4758,2.4758,0,0,0,1.5948-.6l.2519-1.1155a2.6751,2.6751,0,0,0-1.7148-.5037c-.876,0-1.499.48-1.499,1.1394C151.9268,343.8605,152.43,344.2563,153.2939,344.2563Z"/><path class="a" d="M158.4531,338.9792h.8643l-.24,1.0673a2.0818,2.0818,0,0,1,1.7627-1.1752,1.8043,1.8043,0,0,1,.6123.1079l-.18.7915a1.5026,1.5026,0,0,0-.66-.1319,2.0185,2.0185,0,0,0-1.6787,1.0913l-.8994,4.1018H157.17Z"/><path class="a" d="M166.0371,336.4364h.8994l-1.7871,8.3955H164.25Z"/><path class="a" d="M168.8574,339.6986h-1.1758l.168-.7194h1.1631l.3359-1.6072.9239-.2039-.3965,1.8111h1.6552l-.1679.7194h-1.6426l-.7676,3.5381c-.1445.6717.0713.9356.8037.9356a2.1816,2.1816,0,0,0,.6709-.12l-.1679.78a3.3727,3.3727,0,0,1-.8516.108c-1.0674,0-1.5586-.54-1.3428-1.5113Z"/><path class="a" d="M171.63,343.2729a1.9858,1.9858,0,0,1,2.2431-1.8831,3.3131,3.3131,0,0,1,1.9307.5637l.1563-.7075c.2392-1.08-.2159-1.6311-1.3321-1.6311a4.0213,4.0213,0,0,0-1.6787.4436l-.24-.6836a5.32,5.32,0,0,1,2.0752-.48c1.5713,0,2.3506.8635,2.039,2.2788l-.8154,3.6579h-.8516l.12-.5517a2.6887,2.6887,0,0,1-1.7032.6357C172.4092,344.9159,171.63,344.2682,171.63,343.2729Zm2.1953.9834a2.4754,2.4754,0,0,0,1.5947-.6l.252-1.1155a2.6754,2.6754,0,0,0-1.7149-.5037c-.8759,0-1.499.48-1.499,1.1394C172.458,343.8605,172.9609,344.2563,173.8252,344.2563Z"/><path class="a" d="M178.5889,344.8319h-.8633l1.7988-8.5751.8877-.18Z"/><path class="a" d="M181.2285,344.8319h-.8633l1.2832-5.8527H182.5Zm.6-7.8557a.7187.7187,0,0,1,.6836-.6955.5526.5526,0,0,1,.5518.5637.7014.7014,0,0,1-.6836.6956A.5391.5391,0,0,1,181.8281,336.9762Z"/><path class="a" d="M187.6,343.5966l.4072.5637a3.2935,3.2935,0,0,1-2.123.78,2.4937,2.4937,0,0,1-2.5186-2.6265,3.3313,3.3313,0,0,1,3.1787-3.4063,2.675,2.675,0,0,1,2.1944,1.1155l-.6475.54a1.8328,1.8328,0,0,0-1.583-.8638,2.4782,2.4782,0,0,0-2.291,2.5667,1.8308,1.8308,0,0,0,1.8,1.907A2.5667,2.5667,0,0,0,187.6,343.5966Z"/><path class="a" d="M221.8823,265.8769h3.73a2.5585,2.5585,0,0,1,2.8067,2.5427,2.3863,2.3863,0,0,1-1.6553,2.3027l1.7627,3.55h-1.5947l-1.6192-3.3582h-1.9912v3.3582h-1.4385Zm1.4385,1.2114v2.6746h2.1709a1.3438,1.3438,0,1,0,0-2.6746Z"/><path class="a" d="M232.26,274.3922a3.0545,3.0545,0,0,1-3.0586-3.1181,2.96,2.96,0,0,1,2.9267-3.1065,2.8848,2.8848,0,0,1,2.8428,3.0945v.3357h-4.4385a1.8364,1.8364,0,0,0,1.8,1.6431,1.9516,1.9516,0,0,0,1.4268-.5637l.8877.8276A3.4749,3.4749,0,0,1,232.26,274.3922Zm-1.7032-3.6218h3.13a1.6441,1.6441,0,0,0-1.57-1.4992A1.6146,1.6146,0,0,0,230.5571,270.77Z"/><path class="a" d="M240.6831,273.4689a2.31,2.31,0,0,1-1.8467.8635,3.0743,3.0743,0,0,1,.084-6.1167,2.2929,2.2929,0,0,1,1.751.7915v-3.31l1.3555-.228v8.8032h-1.3438Zm-1.4385-.2759a1.798,1.798,0,0,0,1.4268-.66v-2.5306a1.8629,1.8629,0,0,0-1.4268-.6477,1.9238,1.9238,0,0,0,0,3.8379Z"/><path class="a" d="M246.5171,265.8769h1.4394v3.5381H252.13v-3.5381H253.57v8.3955H252.13v-3.5982h-4.1739v3.5982h-1.4394Z"/><path class="a" d="M254.9419,272.5453c0-1.0793.875-1.7629,2.29-1.7629a3.7089,3.7089,0,0,1,1.6192.3718v-.66c0-.7917-.4551-1.1994-1.3789-1.1994a4.1559,4.1559,0,0,0-1.751.4678l-.48-.9834a5.7629,5.7629,0,0,1,2.4941-.6119c1.56,0,2.459.7918,2.459,2.1829v3.9219h-1.3437v-.6116a2.5078,2.5078,0,0,1-1.7871.7075A1.8941,1.8941,0,0,1,254.9419,272.5453Zm2.4941.8755a2.14,2.14,0,0,0,1.4151-.4917v-.9834a3.1091,3.1091,0,0,0-1.3907-.2878c-.7675,0-1.248.3357-1.248.8635C256.2124,273.0732,256.6929,273.4208,257.436,273.4208Z"/><path class="a" d="M262.4048,269.3432h-1.211v-1.08h1.211v-1.655l1.3555-.2879v1.9429h1.6787v1.08H263.76v3.0461c0,.5877.2275.8157.84.8157a2.4917,2.4917,0,0,0,.8154-.1441V274.2a4.2652,4.2652,0,0,1-1.164.1679c-1.211,0-1.8467-.5757-1.8467-1.6789Z"/><path class="a" d="M268.79,265.8769h7.0517v1.2475h-2.7939v7.148h-1.44v-7.148H268.79Z"/><path class="a" d="M278.5073,274.3922a3.0545,3.0545,0,0,1-3.0586-3.1181,2.96,2.96,0,0,1,2.9268-3.1065,2.884,2.884,0,0,1,2.8418,3.0945v.3357H276.78a1.8364,1.8364,0,0,0,1.8,1.6431,1.9512,1.9512,0,0,0,1.4267-.5637l.8877.8276A3.4745,3.4745,0,0,1,278.5073,274.3922Zm-1.7031-3.6218h3.13a1.6441,1.6441,0,0,0-1.57-1.4992A1.6145,1.6145,0,0,0,276.8042,270.77Z"/><path class="a" d="M283.7642,271.214l-2.1944-2.95h1.583l1.4034,1.979,1.4033-1.979H287.47l-2.1582,2.9145,2.3262,3.0943h-1.5947l-1.5118-2.1228-1.5107,2.1228h-1.5117Z"/><path class="a" d="M289.2368,269.3432h-1.2109v-1.08h1.2109v-1.655l1.3555-.2879v1.9429h1.6787v1.08h-1.6787v3.0461c0,.5877.2275.8157.84.8157a2.4926,2.4926,0,0,0,.8155-.1441V274.2a4.2665,4.2665,0,0,1-1.1641.1679c-1.2109,0-1.8467-.5757-1.8467-1.6789Z"/><path class="a" d="M297.6606,267.6879v6.5845H296.33v-8.3955h1.87l2.459,5.0854,2.4473-5.0854h1.87v8.3955h-1.3545V267.724l-2.9746,5.9488Z"/><path class="a" d="M309.6235,274.3922a3.0545,3.0545,0,0,1-3.0586-3.1181,2.96,2.96,0,0,1,2.9268-3.1065,2.8848,2.8848,0,0,1,2.8428,3.0945v.3357H307.896a1.8364,1.8364,0,0,0,1.8,1.6431,1.9516,1.9516,0,0,0,1.4268-.5637l.8877.8276A3.4749,3.4749,0,0,1,309.6235,274.3922ZM307.92,270.77h3.13a1.6441,1.6441,0,0,0-1.57-1.4992A1.6146,1.6146,0,0,0,307.92,270.77Z"/><path class="a" d="M318.0464,273.4689a2.3105,2.3105,0,0,1-1.8467.8635,3.0743,3.0743,0,0,1,.084-6.1167,2.2929,2.2929,0,0,1,1.751.7915v-3.31l1.3554-.228v8.8032h-1.3437Zm-1.4385-.2759a1.798,1.798,0,0,0,1.4268-.66v-2.5306a1.8629,1.8629,0,0,0-1.4268-.6477,1.9238,1.9238,0,0,0,0,3.8379Z"/><path class="a" d="M320.9048,266.2128a.8452.8452,0,0,1,1.69,0,.8454.8454,0,0,1-1.69,0Zm1.5224,8.06h-1.3544v-6.0088h1.3544Z"/><path class="a" d="M325.4165,271.8378a1.294,1.294,0,0,0,1.3193,1.4392,1.5163,1.5163,0,0,0,1.3194-.7436v-4.27H329.41v6.0088h-1.3545v-.9954a2.1981,2.1981,0,0,1-1.92,1.0913,2.0154,2.0154,0,0,1-2.0743-2.1467v-3.958h1.3555Z"/><path class="a" d="M331.0806,268.2636h1.3545v.9595a2.051,2.051,0,0,1,1.7871-1.0555,1.8892,1.8892,0,0,1,1.7636,1.1634,2.2148,2.2148,0,0,1,1.99-1.1634,1.9912,1.9912,0,0,1,1.9677,2.1829v3.9219h-1.3554v-3.6341a1.2159,1.2159,0,0,0-1.2119-1.3791,1.4319,1.4319,0,0,0-1.211.7075c.0117.1318.0244.252.0244.3838v3.9219h-1.3554v-3.6341a1.2159,1.2159,0,0,0-1.2119-1.3791,1.3957,1.3957,0,0,0-1.1875.6836v4.33h-1.3545Z"/><path class="a" d="M222.9976,289.257h3.4062a2.2374,2.2374,0,0,1,2.4707,2.2668,2.7618,2.7618,0,0,1-2.2187,2.6746l1.1513,3.4541H226.32l-1.0439-3.37h-1.9424l-.72,3.37H221.21Zm1.1513,1.2114-.5761,2.6626h2.2431a1.5124,1.5124,0,0,0,1.6309-1.4992,1.1436,1.1436,0,0,0-1.2832-1.1634Z"/><path class="a" d="M232.0688,297.7724a2.6981,2.6981,0,0,1-2.83-2.7945,3.3163,3.3163,0,0,1,3.166-3.4182,2.4646,2.4646,0,0,1,2.5068,2.6507,5.0756,5.0756,0,0,1-.0478.7675h-4.33a1.6221,1.6221,0,0,0,1.6435,1.6673,2.0138,2.0138,0,0,0,1.3672-.492l.7315.8877A3.611,3.611,0,0,1,232.0688,297.7724Zm-1.4267-3.6219h3.07a1.4264,1.4264,0,0,0-1.38-1.4753A1.8177,1.8177,0,0,0,230.6421,294.1505Z"/><path class="a" d="M239.9282,297.0768a2.2692,2.2692,0,0,1-1.5947.6358,2.5117,2.5117,0,0,1-2.3389-2.7347,3.246,3.246,0,0,1,3.07-3.382,2.0751,2.0751,0,0,1,1.8106.9233l.72-3.4419,1.38-.228-1.8477,8.8032h-1.3193Zm-1.0556-.4917a1.8312,1.8312,0,0,0,1.26-.5036l.5518-2.6387a1.7229,1.7229,0,0,0-1.4151-.6956,2.0123,2.0123,0,0,0-1.955,2.1228A1.576,1.576,0,0,0,238.8726,296.5851Z"/><path class="a" d="M247.3813,289.257h1.4034l-.7549,3.5381h4.1015l.7549-3.5381H254.29l-1.7872,8.3955H251.1l.7676-3.5981h-4.1026l-.7675,3.5981h-1.4034Z"/><path class="a" d="M254.2583,296.07c0-1.1755.9229-1.9312,2.3623-1.9312a3.8767,3.8767,0,0,1,1.7754.42l.1074-.5039c.2041-.9234-.2275-1.3792-1.2832-1.3792a4.5343,4.5343,0,0,0-1.6308.3718l-.3243-.9953a6.5184,6.5184,0,0,1,2.2793-.492c1.751,0,2.6143.9356,2.291,2.4468l-.8037,3.646h-1.3193l.12-.54a2.6243,2.6243,0,0,1-1.6435.6118C255.0132,297.7245,254.2583,297.0768,254.2583,296.07Zm2.41.7075a2.2054,2.2054,0,0,0,1.332-.4319l.2275-1.0193a2.9386,2.9386,0,0,0-1.4394-.312c-.7793,0-1.2832.3719-1.2832.9356C255.5054,296.4772,255.9253,296.777,256.6685,296.777Z"/><path class="a" d="M262.2485,292.7233h-1.1748l.2393-1.08h1.1631l.3486-1.655,1.4033-.2879-.42,1.9429h1.6426l-.2393,1.08H263.58l-.6475,3.01c-.1435.6235.0723.8635.7559.8635a2.5729,2.5729,0,0,0,.6836-.096l-.24,1.1275a4.4033,4.4033,0,0,1-1.0195.12c-1.2471,0-1.81-.6357-1.5586-1.7751Z"/><path class="a" d="M269.2808,289.257h6.9082l-.2754,1.2476h-2.7344l-1.5234,7.1479h-1.4151l1.5235-7.1479h-2.7588Z"/><path class="a" d="M277.8481,297.7724a2.6981,2.6981,0,0,1-2.83-2.7945,3.3163,3.3163,0,0,1,3.166-3.4182,2.4646,2.4646,0,0,1,2.5068,2.6507,5.0756,5.0756,0,0,1-.0478.7675h-4.33a1.6221,1.6221,0,0,0,1.6435,1.6673,2.0138,2.0138,0,0,0,1.3672-.492l.7315.8877A3.611,3.611,0,0,1,277.8481,297.7724Zm-1.4267-3.6219h3.07a1.4264,1.4264,0,0,0-1.38-1.4753A1.8177,1.8177,0,0,0,276.4214,294.1505Z"/><path class="a" d="M283.2485,294.5221l-1.499-2.8784h1.4873l.959,1.9551,1.7754-1.9551H287.53l-2.8184,2.9624,1.583,3.0464H284.82l-1.0439-2.0989-1.919,2.0989h-1.5586Z"/><path class="a" d="M288.9966,292.7233h-1.1748l.2392-1.08h1.1631l.3487-1.655,1.4033-.2879-.42,1.9429h1.6425l-.2392,1.08h-1.6319l-.6474,3.01c-.1436.6235.0722.8635.7558.8635a2.5724,2.5724,0,0,0,.6836-.096l-.24,1.1275a4.404,4.404,0,0,1-1.0195.12c-1.2471,0-1.8106-.6357-1.5586-1.7751Z"/><path class="a" d="M297.6724,291.0321l-1.4034,6.62h-1.331l1.7871-8.3955h1.7871l1.3428,5.0974,3.4541-5.0974h1.8955l-1.7871,8.3955H302.11l1.3789-6.5244-4.1494,5.9248Z"/><path class="a" d="M308.436,297.7724a2.6981,2.6981,0,0,1-2.83-2.7945,3.3163,3.3163,0,0,1,3.166-3.4182,2.4646,2.4646,0,0,1,2.5068,2.6507,5.0756,5.0756,0,0,1-.0478.7675h-4.33a1.6221,1.6221,0,0,0,1.6435,1.6673,2.0138,2.0138,0,0,0,1.3672-.492l.7315.8877A3.6112,3.6112,0,0,1,308.436,297.7724Zm-1.4267-3.6219h3.07a1.4265,1.4265,0,0,0-1.38-1.4753A1.8177,1.8177,0,0,0,307.0093,294.1505Z"/><path class="a" d="M316.2954,297.0768a2.2692,2.2692,0,0,1-1.5947.6358,2.5117,2.5117,0,0,1-2.3389-2.7347,3.246,3.246,0,0,1,3.07-3.382,2.0751,2.0751,0,0,1,1.8106.9233l.72-3.4419,1.38-.228-1.8477,8.8032h-1.3193Zm-1.0557-.4917a1.8315,1.8315,0,0,0,1.26-.5036l.5518-2.6387a1.7229,1.7229,0,0,0-1.4151-.6956,2.0123,2.0123,0,0,0-1.955,2.1228A1.576,1.576,0,0,0,315.24,296.5851Z"/><path class="a" d="M320.4966,297.6525h-1.3428l1.3076-6.0088h1.3428Zm.168-7.9636a.9587.9587,0,0,1,.9238-.9356.7391.7391,0,0,1,.7431.7437.942.942,0,0,1-.9345.9236A.7131.7131,0,0,1,320.6646,289.6889Z"/><path class="a" d="M323.9761,295.1339c-.2041.9114.2158,1.5232,1.0429,1.5232a1.7726,1.7726,0,0,0,1.3438-.66l.9355-4.3538h1.3428l-1.3066,6.0088h-1.3321l.1924-.9116a2.4947,2.4947,0,0,1-1.9306.9836,1.6965,1.6965,0,0,1-1.68-2.2788l.8154-3.802h1.332Z"/><path class="a" d="M330.2886,291.6437h1.3427l-.2158,1.0195a2.3691,2.3691,0,0,1,1.8594-1.0913,1.5013,1.5013,0,0,1,1.5469,1.2474,2.74,2.74,0,0,1,2.1592-1.2474c1.1513,0,1.7861.9595,1.499,2.2666l-.8037,3.814h-1.3438l.78-3.6221c.168-.8154-.2041-1.3911-.9238-1.3911a1.7421,1.7421,0,0,0-1.3194.7676,2.7338,2.7338,0,0,1-.06.4316l-.8155,3.814h-1.332l.7676-3.574c.18-.8635-.1914-1.4392-.9229-1.4392a1.64,1.64,0,0,0-1.2353.6716l-.9483,4.3416H328.981Z"/><path class="a" d="M343.86,289.257h1.415l-1.7871,8.3955h-1.415Z"/><path class="a" d="M347.04,292.7233h-1.1749l.2393-1.08h1.1631l.3486-1.655,1.4033-.2879-.42,1.9429h1.6426l-.2393,1.08h-1.6318l-.6475,3.01c-.1435.6235.0723.8635.7559.8635a2.5729,2.5729,0,0,0,.6836-.096l-.24,1.1275a4.4042,4.4042,0,0,1-1.02.12c-1.247,0-1.81-.6357-1.5586-1.7751Z"/><path class="a" d="M350.2329,296.07c0-1.1755.9229-1.9312,2.3623-1.9312a3.8767,3.8767,0,0,1,1.7754.42l.1074-.5039c.2041-.9234-.2275-1.3792-1.2832-1.3792a4.5347,4.5347,0,0,0-1.6308.3718l-.3243-.9953a6.5184,6.5184,0,0,1,2.2793-.492c1.751,0,2.6143.9356,2.2911,2.4468l-.8038,3.646H353.687l.12-.54a2.6239,2.6239,0,0,1-1.6435.6118C350.9878,297.7245,350.2329,297.0768,350.2329,296.07Zm2.41.7075a2.2054,2.2054,0,0,0,1.332-.4319l.2275-1.0193a2.9386,2.9386,0,0,0-1.4394-.312c-.7793,0-1.2832.3719-1.2832.9356C351.48,296.4772,351.9,296.777,352.6431,296.777Z"/><path class="a" d="M357.9478,297.6525H356.605l1.81-8.5752,1.3672-.228Z"/><path class="a" d="M360.9351,297.6525h-1.3428l1.3076-6.0088h1.3428Zm.1679-7.9636a.96.96,0,0,1,.9239-.9356.7391.7391,0,0,1,.7431.7437.942.942,0,0,1-.9346.9236A.7131.7131,0,0,1,361.103,289.6889Z"/><path class="a" d="M367.2222,296.0453l.6474.8516a3.31,3.31,0,0,1-2.2549.8755,2.6124,2.6124,0,0,1-2.6621-2.7224,3.3985,3.3985,0,0,1,3.2735-3.49,2.8085,2.8085,0,0,1,2.375,1.2115l-.959.7915a1.6153,1.6153,0,0,0-1.4512-.8035,2.0771,2.0771,0,0,0-1.9072,2.1829,1.5321,1.5321,0,0,0,1.5469,1.643A2.0305,2.0305,0,0,0,367.2222,296.0453Z"/><path class="a" d="M221.8105,312.6366h4.0782a2.7248,2.7248,0,0,1,2.9619,2.6746,2.5256,2.5256,0,0,1-1.56,2.3508l1.7637,3.37H226.752l-1.5235-3.0822H223.873v3.0822h-2.0625Zm2.0625,1.7032v1.9909h1.8233a.9979.9979,0,1,0,0-1.9909Z"/><path class="a" d="M232.7529,321.152A3.2,3.2,0,0,1,229.49,317.95a3.1055,3.1055,0,0,1,3.1182-3.2144,3.0418,3.0418,0,0,1,3.0469,3.2864v.42h-4.2578a1.4841,1.4841,0,0,0,1.4511,1.1633,1.5331,1.5331,0,0,0,1.2237-.5156l1.2832,1.0674A3.6076,3.6076,0,0,1,232.7529,321.152Zm-1.3554-3.8137h2.4589a1.2889,1.2889,0,0,0-1.26-1.0916A1.2291,1.2291,0,0,0,231.3975,317.3383Z"/><path class="a" d="M241.2119,320.2287a2.3335,2.3335,0,0,1-1.8232.8393,2.949,2.949,0,0,1-2.7344-3.1421,2.9841,2.9841,0,0,1,2.8789-3.1184,2.167,2.167,0,0,1,1.6553.7437v-3.0943l1.9424-.3v8.875h-1.919Zm-1.1748-.7676a1.504,1.504,0,0,0,1.1514-.4919v-2.0867a1.5761,1.5761,0,0,0-1.1514-.48,1.53,1.53,0,0,0,0,3.0584Z"/><path class="a" d="M247.2861,312.6366h2.0625v3.2622h3.3946v-3.2622h2.0625v8.3955h-2.0625V317.71h-3.3946v3.3222h-2.0625Z"/><path class="a" d="M255.9746,319.2572c0-1.1394.8877-1.799,2.4111-1.799a4.0282,4.0282,0,0,1,1.4385.2878v-.5039c0-.6-.3955-.8994-1.2226-.8994a4.6067,4.6067,0,0,0-1.7393.4319l-.6719-1.3553a6.85,6.85,0,0,1,2.8428-.6718c1.7148,0,2.71.8515,2.71,2.3269v3.9577h-1.919v-.54a2.4632,2.4632,0,0,1-1.7148.6358A1.926,1.926,0,0,1,255.9746,319.2572Zm2.7344.5877a2.1122,2.1122,0,0,0,1.1152-.312v-.7915a4.6338,4.6338,0,0,0-1.0674-.1319c-.6357,0-.9951.2159-.9951.6116S258.1094,319.8449,258.709,319.8449Z"/><path class="a" d="M263.8457,316.3427h-1.1992v-1.499h1.1992v-1.7151l1.9424-.3958v2.1109h1.6553v1.499h-1.6553v2.3987c0,.5517.2158.7436.8164.7436a2.5949,2.5949,0,0,0,.791-.1321v1.5713a5.4049,5.4049,0,0,1-1.331.1919c-1.4629,0-2.2188-.6716-2.2188-1.9909Z"/><path class="a" d="M270.6025,312.6366h7.4717V314.4H275.376v6.6323h-2.0635V314.4h-2.71Z"/><path class="a" d="M280.7529,321.152A3.2,3.2,0,0,1,277.49,317.95a3.1055,3.1055,0,0,1,3.1182-3.2144,3.0418,3.0418,0,0,1,3.0469,3.2864v.42h-4.2578a1.4841,1.4841,0,0,0,1.4511,1.1633,1.5331,1.5331,0,0,0,1.2237-.5156l1.2832,1.0674A3.6076,3.6076,0,0,1,280.7529,321.152Zm-1.3554-3.8137h2.4589a1.2889,1.2889,0,0,0-1.26-1.0916A1.2291,1.2291,0,0,0,279.3975,317.3383Z"/><path class="a" d="M286.1055,317.914l-2.2793-3.07h2.2431l1.1387,1.655,1.1514-1.655h2.1592l-2.2432,3.0222,2.3867,3.1662h-2.2539l-1.2236-1.7629-1.2237,1.7629h-2.1464Z"/><path class="a" d="M292.2256,316.3427h-1.1992v-1.499h1.1992v-1.7151l1.9424-.3958v2.1109h1.6552v1.499H294.168v2.3987c0,.5517.2158.7436.8164.7436a2.5949,2.5949,0,0,0,.791-.1321v1.5713a5.4057,5.4057,0,0,1-1.3311.1919c-1.4629,0-2.2187-.6716-2.2187-1.9909Z"/><path class="a" d="M303.8154,312.6366c1.6309,0,2.795.9595,2.795,2.2908a2.095,2.095,0,0,1-1.2237,1.823,2.1248,2.1248,0,0,1,1.4629,1.9312c0,1.3791-1.1748,2.3505-2.8418,2.3505H299.666v-8.3955Zm-2.0869,1.6433v1.7271h1.8477a.8656.8656,0,0,0,.959-.8635.8533.8533,0,0,0-.959-.8636Zm3.0342,4.1856a.9092.9092,0,0,0-1.0186-.9233h-2.0156v1.8469h2.0156A.91.91,0,0,0,304.7627,318.4655Z"/><path class="a" d="M311.1846,314.7475a3.2023,3.2023,0,1,1-3.2266,3.2024A3.1511,3.1511,0,0,1,311.1846,314.7475Zm1.3427,3.2024a1.3561,1.3561,0,1,0-2.6738,0,1.3527,1.3527,0,1,0,2.6738,0Z"/><path class="a" d="M317.6045,321.0321h-1.9424v-8.5752l1.9424-.3Z"/><path class="a" d="M323.3994,320.2287a2.3335,2.3335,0,0,1-1.8232.8393,2.949,2.949,0,0,1-2.7344-3.1421,2.9841,2.9841,0,0,1,2.8789-3.1184,2.167,2.167,0,0,1,1.6553.7437v-3.0943l1.9424-.3v8.875h-1.919Zm-1.1748-.7676a1.504,1.504,0,0,0,1.1514-.4919v-2.0867a1.5761,1.5761,0,0,0-1.1514-.48,1.53,1.53,0,0,0,0,3.0584Z"/><path class="a" d="M222.9141,336.1728h3.6933a2.4307,2.4307,0,0,1,2.6514,2.4348,2.8705,2.8705,0,0,1-2.1348,2.71l1.211,3.25H226.2l-1.0195-3.1062h-1.3789l-.66,3.1062H221.127Zm1.6552,1.7031-.42,1.967h1.8945a1.074,1.074,0,0,0,1.1514-1.0554.8665.8665,0,0,0-.9473-.9116Z"/><path class="a" d="M232.6211,344.7a2.86,2.86,0,0,1-3.0225-2.9263,3.46,3.46,0,0,1,3.3575-3.49,2.601,2.601,0,0,1,2.6992,2.7705,4.8377,4.8377,0,0,1-.0723.9116h-4.1494a1.3508,1.3508,0,0,0,1.3906,1.1993,1.5742,1.5742,0,0,0,1.1641-.4556l1.0429,1.1753A3.8266,3.8266,0,0,1,232.6211,344.7Zm-1.0674-3.8257h2.4219a1.119,1.119,0,0,0-1.127-1.0676A1.4208,1.4208,0,0,0,231.5537,340.8744Z"/><path class="a" d="M240.5166,343.9926a2.2694,2.2694,0,0,1-1.56.6116,2.5877,2.5877,0,0,1-2.3261-2.83,3.2906,3.2906,0,0,1,3.13-3.43,2.02,2.02,0,0,1,1.751.8994l.6836-3.25,1.9551-.3-1.8711,8.875h-1.8828Zm-.72-.9834a1.3845,1.3845,0,0,0,.9951-.3958l.456-2.1469a1.5476,1.5476,0,0,0-1.1875-.5157,1.583,1.583,0,0,0-1.5595,1.667A1.3,1.3,0,0,0,239.7969,343.0092Z"/><path class="a" d="M248.1973,336.1728h2.0146l-.6953,3.2622h3.334l.6953-3.2622h2.0156l-1.7871,8.3955H251.76l.707-3.3223h-3.334l-.708,3.3223H246.41Z"/><path class="a" d="M255.3506,342.9491c0-1.2353.9473-1.979,2.5068-1.9909a4.68,4.68,0,0,1,1.5713.2878l.06-.3c.1562-.7314-.24-1.0793-1.211-1.0793a5.1934,5.1934,0,0,0-1.5712.3117l-.4317-1.3672a7.5192,7.5192,0,0,1,2.5186-.5156c1.9668,0,2.95.9954,2.5908,2.6384l-.792,3.6341H258.709l.12-.5279a2.55,2.55,0,0,1-1.5713.5757C256.082,344.6161,255.3506,343.9806,255.3506,342.9491Zm2.6748.42a1.9317,1.9317,0,0,0,.9951-.264l.1924-.8754a4.4213,4.4213,0,0,0-1.1035-.1321c-.66,0-1.02.2519-1.02.6958C257.09,343.153,257.4258,343.3691,258.0254,343.3691Z"/><path class="a" d="M263.6777,339.8788h-1.1748l.335-1.499h1.1514l.372-1.7151,1.9912-.3957-.456,2.1108h1.6308l-.3349,1.499h-1.6192l-.5039,2.3748c-.1318.5637.084.7915.7071.7915a2.9738,2.9738,0,0,0,.708-.096l-.336,1.5591a5.0472,5.0472,0,0,1-1.2109.1321c-1.4756,0-2.123-.7317-1.835-2.0869Z"/><path class="a" d="M271.13,336.1728h7.3164l-.3965,1.7631h-2.6143l-1.415,6.6324h-2.0273l1.416-6.6324h-2.6748Z"/><path class="a" d="M280.2246,344.7a2.86,2.86,0,0,1-3.0225-2.9263,3.46,3.46,0,0,1,3.3575-3.49,2.601,2.601,0,0,1,2.6992,2.7705,4.8377,4.8377,0,0,1-.0723.9116h-4.1494a1.3508,1.3508,0,0,0,1.3906,1.1993,1.5742,1.5742,0,0,0,1.1641-.4556l1.043,1.1753A3.8271,3.8271,0,0,1,280.2246,344.7Zm-1.0674-3.8257h2.4219a1.119,1.119,0,0,0-1.127-1.0676A1.421,1.421,0,0,0,279.1572,340.8744Z"/><path class="a" d="M285.7812,341.3781,284.21,338.38h2.123l.791,1.6309,1.4512-1.6309h2.1953l-2.9268,3.0823,1.6309,3.1062h-2.1221l-.84-1.7271-1.56,1.7271h-2.1826Z"/><path class="a" d="M292.0215,339.8788h-1.1748l.3349-1.499h1.1514l.3721-1.7151,1.9912-.3957L294.24,338.38h1.6309l-.335,1.499H293.917l-.5039,2.3748c-.1319.5637.084.7915.707.7915a2.9732,2.9732,0,0,0,.708-.096l-.3359,1.5591a5.0474,5.0474,0,0,1-1.211.1321c-1.4755,0-2.123-.7317-1.8349-2.0869Z"/><path class="a" d="M303.9473,336.1728c1.4629,0,2.4463.8037,2.4463,1.9909a2.4384,2.4384,0,0,1-1.5352,2.159,1.84,1.84,0,0,1,1.1279,1.667,2.8707,2.8707,0,0,1-3.1064,2.5786h-4.5215l1.7871-8.3955Zm.0117,5.697c0-.4917-.336-.7915-.8994-.7915h-1.9424l-.3965,1.8469h2.1A1.0636,1.0636,0,0,0,303.959,341.87Zm-2.1465-4.0537-.3721,1.727h1.8116a1.0019,1.0019,0,0,0,1.0673-.9836.725.725,0,0,0-.8281-.7434Z"/><path class="a" d="M310.62,338.2836a2.7973,2.7973,0,0,1,2.9024,2.8784,3.509,3.509,0,0,1-3.4541,3.5261,2.8143,2.8143,0,0,1-2.9024-2.89A3.476,3.476,0,0,1,310.62,338.2836Zm1.0313,2.9265a1.1494,1.1494,0,0,0-1.1514-1.3074,1.6436,1.6436,0,0,0-1.4629,1.7991c0,.8277.4443,1.3433,1.14,1.3433C311.0283,343.0451,311.6514,342.2655,311.6514,341.21Z"/><path class="a" d="M315.9844,344.5683h-1.9063l1.8223-8.5752,1.9551-.3Z"/><path class="a" d="M321.7793,343.9926a2.2694,2.2694,0,0,1-1.56.6116,2.5877,2.5877,0,0,1-2.3261-2.83,3.2906,3.2906,0,0,1,3.13-3.43,2.02,2.02,0,0,1,1.751.8994l.6836-3.25,1.9551-.3-1.8711,8.875h-1.8828Zm-.72-.9834a1.3845,1.3845,0,0,0,.9951-.3958l.456-2.1469a1.5476,1.5476,0,0,0-1.1875-.5157,1.5829,1.5829,0,0,0-1.56,1.667A1.3,1.3,0,0,0,321.06,343.0092Z"/><path class="a" d="M329.4609,336.1728h2.0147l-1.7871,8.3955h-2.0147Z"/><path class="a" d="M333.0479,339.8788H331.873l.335-1.499h1.1514l.372-1.7151,1.9913-.3957-.4561,2.1108h1.6309l-.335,1.499h-1.6191l-.5039,2.3748c-.1319.5637.0839.7915.707.7915a2.9732,2.9732,0,0,0,.708-.096l-.3359,1.5591a5.048,5.048,0,0,1-1.211.1321c-1.4756,0-2.123-.7317-1.8349-2.0869Z"/><path class="a" d="M336.77,342.9491c0-1.2353.9473-1.979,2.5069-1.9909a4.68,4.68,0,0,1,1.5713.2878l.06-.3c.1563-.7314-.24-1.0793-1.2109-1.0793a5.1945,5.1945,0,0,0-1.5713.3117l-.4316-1.3672a7.5234,7.5234,0,0,1,2.5185-.5156c1.9668,0,2.95.9954,2.5908,2.6384l-.792,3.6341h-1.8828l.12-.5279a2.55,2.55,0,0,1-1.5712.5757C337.501,344.6161,336.77,343.9806,336.77,342.9491Zm2.6748.42a1.9323,1.9323,0,0,0,.9952-.264l.1923-.8754a4.4213,4.4213,0,0,0-1.1035-.1321c-.66,0-1.0195.2519-1.0195.6958C338.5088,343.153,338.8447,343.3691,339.4443,343.3691Z"/><path class="a" d="M345.3721,344.5683h-1.9063l1.8223-8.5752,1.9551-.3Z"/><path class="a" d="M348.7676,344.5683h-1.9063l1.3428-6.1885h1.9072Zm-.335-8.0955a1.2482,1.2482,0,0,1,1.1992-1.2234.957.957,0,0,1,.9707.96,1.2228,1.2228,0,0,1-1.2109,1.2114A.93.93,0,0,1,348.4326,336.4728Z"/><path class="a" d="M354.958,342.5053l.9356,1.2114a3.3912,3.3912,0,0,1-2.4112.9834,2.75,2.75,0,0,1-2.8418-2.83,3.4669,3.4669,0,0,1,3.3936-3.5862,2.9585,2.9585,0,0,1,2.5791,1.3193l-1.3438,1.1036a1.3453,1.3453,0,0,0-1.2715-.7557,1.6186,1.6186,0,0,0-1.4628,1.751,1.1917,1.1917,0,0,0,1.247,1.3194A1.5663,1.5663,0,0,0,354.958,342.5053Z"/><path class="b" d="M55.6162,76.4279H80.0986c10.3692,0,17.7852,6.6965,17.7852,16.0574a15.1674,15.1674,0,0,1-9.36,14.1132l10.585,20.2337H85.2832l-9.1445-18.5056H68.002v18.5056H55.6162ZM68.002,86.6527V98.6056H78.9463c3.8164,0,6.4092-2.3759,6.4092-5.9763s-2.5928-5.9766-6.4092-5.9766Z"/><path class="b" d="M121.2812,127.5522a19.2122,19.2122,0,0,1-19.5859-19.2256c0-10.9448,8.0654-19.2976,18.7217-19.2976,10.73,0,18.29,8.1367,18.29,19.73v2.52H113.1445a8.9143,8.9143,0,0,0,8.7129,6.9843,9.193,9.193,0,0,0,7.3447-3.0961l7.7041,6.4086A21.65,21.65,0,0,1,121.2812,127.5522Zm-8.1367-22.898h14.7617c-.9365-4.0322-3.8164-6.5525-7.5605-6.5525C116.6729,98.1017,114.0811,100.55,113.1445,104.6542Z"/><path class="b" d="M172.041,122.0077a14.0164,14.0164,0,0,1-10.9443,5.0406c-9.1446,0-16.418-8.4249-16.418-18.8658s7.6328-18.7216,17.2822-18.7216a13.0064,13.0064,0,0,1,9.9366,4.4646V75.3478l11.665-1.8v53.2847H172.041Zm-7.0566-4.6084a9.0313,9.0313,0,0,0,6.9131-2.9521V101.9181a9.4569,9.4569,0,0,0-6.9131-2.88c-5.1123,0-8.8565,3.8884-8.8565,9.2168A8.7863,8.7863,0,0,0,164.9844,117.3993Z"/><path class="b" d="M208.47,76.4279h12.3848V96.0136h20.3779V76.4279h12.3848v50.4043H241.2324V106.8864H220.8545v19.9458H208.47Z"/><path class="b" d="M260.5977,116.1752c0-6.8406,5.3281-10.8008,14.4726-10.8008a24.1806,24.1806,0,0,1,8.6406,1.7281v-3.0242c0-3.6-2.3759-5.4007-7.3447-5.4007-2.8076,0-6.12.7923-10.44,2.5923l-4.0322-8.1367A41.1271,41.1271,0,0,1,278.959,89.101c10.2969,0,16.2734,5.1123,16.2734,13.9692v23.762H283.7109v-3.24a14.798,14.798,0,0,1-10.2968,3.8164C265.8535,127.4084,260.5977,122.8,260.5977,116.1752Zm16.4169,3.5283a12.682,12.682,0,0,0,6.6963-1.872V113.079a27.87,27.87,0,0,0-6.4082-.792c-3.8164,0-5.9765,1.2962-5.9765,3.6721S273.4141,119.7035,277.0146,119.7035Z"/><path class="b" d="M307.8291,98.6776h-7.2V89.6769h7.2V79.38l11.665-2.3762V89.6769h9.9375v9.0007h-9.9375V113.079c0,3.3123,1.2959,4.4644,4.8965,4.4644a15.6378,15.6378,0,0,0,4.753-.792v9.4328a32.4648,32.4648,0,0,1-7.9932,1.1521c-8.7852,0-13.3213-4.0324-13.3213-11.9531Z"/><path class="b" d="M348.3633,76.4279h44.86v10.585H377.0225v39.8193H364.6367V87.0129H348.3633Z"/><path class="b" d="M409.2783,127.5522a19.2128,19.2128,0,0,1-19.5859-19.2256c0-10.9448,8.0654-19.2976,18.7217-19.2976,10.7295,0,18.29,8.1367,18.29,19.73v2.52H401.1416a8.9143,8.9143,0,0,0,8.7129,6.9843,9.193,9.193,0,0,0,7.3447-3.0961l7.7041,6.4086A21.65,21.65,0,0,1,409.2783,127.5522Zm-8.1367-22.898h14.7617c-.9365-4.0322-3.8164-6.5525-7.56-6.5525C404.67,98.1017,402.0781,100.55,401.1416,104.6542Z"/><path class="b" d="M441.3906,108.1105,427.709,89.6769h13.4648l6.8408,9.937,6.9131-9.937h12.961l-13.4649,18.1455,14.3291,19.01H455.2158l-7.3447-10.585-7.3447,10.585h-12.89Z"/><path class="b" d="M478.1094,98.6776h-7.2V89.6769h7.2V79.38l11.665-2.3762V89.6769h9.9375v9.0007h-9.9375V113.079c0,3.3123,1.2959,4.4644,4.8965,4.4644a15.6373,15.6373,0,0,0,4.7529-.792v9.4328a32.464,32.464,0,0,1-7.9931,1.1521c-8.7852,0-13.3213-4.0324-13.3213-11.9531Z"/></svg>