<svg xmlns="http://www.w3.org/2000/svg" width="555" height="180" viewBox="0 0 555 180"><defs><style>.a{fill:#e00;}</style></defs><path d="M90.7725,101.1618h1.0791v8.8525h5.5332v.9527H90.7725Z"/><path d="M101.7646,104.0192a3.5515,3.5515,0,1,1-3.32,3.53A3.355,3.355,0,0,1,101.7646,104.0192Zm2.3252,3.5439a2.3388,2.3388,0,1,0-4.6367,0,2.3372,2.3372,0,1,0,4.6367,0Z"/><path d="M106.8867,104.131h1.0225v1.3872a2.0432,2.0432,0,0,1,1.9053-1.5132,1.9471,1.9471,0,0,1,.6445.0982v.9243a2.5672,2.5672,0,0,0-.7149-.126,1.95,1.95,0,0,0-1.8349,1.3867v4.6788h-1.0225Z"/><path d="M114.4619,111.0929a3.4114,3.4114,0,0,1-3.39-3.5439,3.3267,3.3267,0,0,1,3.2216-3.53,3.2293,3.2293,0,0,1,3.1377,3.4458v.3081h-5.3652a2.4916,2.4916,0,0,0,2.4375,2.4233,2.7927,2.7927,0,0,0,1.877-.7l.6445.6865A3.99,3.99,0,0,1,114.4619,111.0929Zm-2.3672-4.0478h4.3282a2.2571,2.2571,0,0,0-2.1426-2.1436A2.2839,2.2839,0,0,0,112.0947,107.0451Z"/><path d="M119.1787,104.131h1.0225v1.065a2.339,2.339,0,0,1,2.03-1.1768,2.2465,2.2465,0,0,1,2.1016,1.3306,2.5259,2.5259,0,0,1,2.2832-1.3306,2.3258,2.3258,0,0,1,2.3252,2.5352v4.4126h-1.0225v-4.16c0-1.1909-.6445-1.9331-1.6806-1.9331a1.901,1.901,0,0,0-1.709,1.0786,2.8365,2.8365,0,0,1,.0557.6021v4.4126h-1.0225v-4.16a1.6979,1.6979,0,0,0-1.6943-1.9331,1.8723,1.8723,0,0,0-1.667,1.0083v5.085h-1.0225Z"/><path d="M134.0459,101.7082a.7354.7354,0,0,1,1.4707,0,.7354.7354,0,1,1-1.4707,0Zm1.2461,9.2588H134.27v-6.836h1.0225Z"/><path d="M137.3916,104.131H138.4v.981a2.697,2.697,0,0,1,2.2129-1.065,3.5263,3.5263,0,0,1-.0557,7.0181,2.7724,2.7724,0,0,1-2.1435-.9526v3.7822h-1.0225Zm1.0225,1.751V109.23a2.4039,2.4039,0,0,0,1.9472.9527,2.63,2.63,0,0,0,0-5.2393A2.3354,2.3354,0,0,0,138.4141,105.882Z"/><path d="M145.4414,109.4123a3.5666,3.5666,0,0,0,2.1992.8545c.9951,0,1.7237-.5186,1.7237-1.2329,0-.56-.3643-.8545-1.2334-1.0225l-1.12-.1963c-1.331-.2378-1.9336-.7983-1.9336-1.793,0-1.1762,1.0225-2.0029,2.4659-2.0029a4.42,4.42,0,0,1,2.6054.8545l-.5048.7144a3.6224,3.6224,0,0,0-2.1426-.7286c-.8965,0-1.4854.42-1.4854,1.0928,0,.56.2949.8262,1.1768.9805l1.1484.21c1.3731.2525,1.9893.8267,1.9893,1.835,0,1.1909-1.1485,2.1152-2.6612,2.1152a3.896,3.896,0,0,1-2.7734-1.0083Z"/><path d="M152.876,108.25a1.7667,1.7667,0,0,0,1.8213,1.9751,2.029,2.029,0,0,0,1.7929-1.0367V104.131h1.0225v6.836H156.49v-1.1065a2.4468,2.4468,0,0,1-2.1709,1.2188,2.39,2.39,0,0,1-2.48-2.5357V104.131h1.0362Z"/><path d="M159.61,104.131h1.0224v1.065a2.339,2.339,0,0,1,2.03-1.1768,2.2463,2.2463,0,0,1,2.1015,1.3306,2.526,2.526,0,0,1,2.2833-1.3306,2.3258,2.3258,0,0,1,2.3251,2.5352v4.4126h-1.0224v-4.16c0-1.1909-.6445-1.9331-1.6807-1.9331a1.9012,1.9012,0,0,0-1.709,1.0786,2.8365,2.8365,0,0,1,.0557.6021v4.4126h-1.0225v-4.16a1.6979,1.6979,0,0,0-1.6943-1.9331,1.8725,1.8725,0,0,0-1.667,1.0083v5.085H159.61Z"/><path d="M179.73,110.0563a2.6909,2.6909,0,0,1-2.1846,1.0088,3.5262,3.5262,0,0,1,.0557-7.0181A2.7832,2.7832,0,0,1,179.73,105v-4.0484l1.0234-.21V110.967H179.73Zm-1.9326.1123a2.339,2.339,0,0,0,1.9326-.9106v-3.39a2.5287,2.5287,0,1,0-1.9326,4.3Z"/><path d="M185.86,104.0192a3.5515,3.5515,0,1,1-3.3194,3.53A3.355,3.355,0,0,1,185.86,104.0192Zm2.3261,3.5439a2.3388,2.3388,0,1,0-4.6367,0,2.3372,2.3372,0,1,0,4.6367,0Z"/><path d="M192.0059,110.967h-1.0225V100.9513l1.0225-.21Z"/><path d="M197.1162,104.0192a3.5516,3.5516,0,1,1-3.3193,3.53A3.355,3.355,0,0,1,197.1162,104.0192Zm2.3262,3.5439a2.3388,2.3388,0,1,0-4.6367,0,2.3372,2.3372,0,1,0,4.6367,0Z"/><path d="M202.2393,104.131h1.0224v1.3872a2.0412,2.0412,0,0,1,1.9043-1.5132,1.9463,1.9463,0,0,1,.6445.0982v.9243a2.56,2.56,0,0,0-.7138-.126,1.9478,1.9478,0,0,0-1.835,1.3867v4.6788h-1.0224Z"/><path d="M210.3164,109.4123a3.5666,3.5666,0,0,0,2.1992.8545c.9942,0,1.7227-.5186,1.7227-1.2329,0-.56-.3643-.8545-1.2324-1.0225l-1.1211-.1963c-1.33-.2378-1.9327-.7983-1.9327-1.793,0-1.1762,1.0225-2.0029,2.4649-2.0029a4.4184,4.4184,0,0,1,2.6055.8545l-.5039.7144a3.6274,3.6274,0,0,0-2.1436-.7286c-.8965,0-1.4844.42-1.4844,1.0928,0,.56.294.8262,1.1768.9805l1.1484.21c1.3731.2525,1.9893.8267,1.9893,1.835,0,1.1909-1.1485,2.1152-2.6621,2.1152a3.8994,3.8994,0,0,1-2.7735-1.0083Z"/><path d="M216.5322,101.7082a.7354.7354,0,0,1,1.4707,0,.7354.7354,0,1,1-1.4707,0Zm1.2471,9.2588h-1.0225v-6.836h1.0225Z"/><path d="M220.69,104.9718h-1.414v-.8408h1.414v-1.8769l1.0235-.2378v2.1147h1.9609v.8408h-1.9609v4.188c0,.7285.2793,1.023.9941,1.023a2.4642,2.4642,0,0,0,.9668-.1822v.91a3.8476,3.8476,0,0,1-1.1914.1821c-1.1758,0-1.793-.5742-1.793-1.667Z"/><path d="M228.0684,109.006c0-1.2187,1.0224-2.0312,2.5634-2.0312a3.9576,3.9576,0,0,1,2.087.5322v-.9385a1.54,1.54,0,0,0-1.7657-1.6948,4.509,4.509,0,0,0-2.0722.5884l-.3789-.7847a5.8566,5.8566,0,0,1,2.5781-.6582c1.6943,0,2.6465.8545,2.6465,2.4092v4.5386h-1.0078v-.7984a2.9364,2.9364,0,0,1-2.1719.9243A2.2065,2.2065,0,0,1,228.0684,109.006Zm2.6894,1.3028a2.7067,2.7067,0,0,0,1.961-.7847v-1.3164a3.6084,3.6084,0,0,0-1.9336-.4907c-1.05,0-1.7364.5044-1.7364,1.2607C229.0488,109.7765,229.7354,110.3088,230.7578,110.3088Z"/><path d="M235.7959,104.131h1.0225v1.065a2.34,2.34,0,0,1,2.0312-1.1768,2.2475,2.2475,0,0,1,2.1016,1.3306,2.5248,2.5248,0,0,1,2.2832-1.3306,2.3264,2.3264,0,0,1,2.3252,2.5352v4.4126h-1.0225v-4.16c0-1.1909-.6445-1.9331-1.6816-1.9331a1.9031,1.9031,0,0,0-1.709,1.0786,2.8363,2.8363,0,0,1,.0566.6021v4.4126h-1.0224v-4.16a1.6986,1.6986,0,0,0-1.6953-1.9331,1.8734,1.8734,0,0,0-1.667,1.0083v5.085h-1.0225Z"/><path d="M250.707,111.0929a3.4114,3.4114,0,0,1-3.39-3.5439,3.3267,3.3267,0,0,1,3.2217-3.53,3.2294,3.2294,0,0,1,3.1377,3.4458v.3081h-5.3653a2.4916,2.4916,0,0,0,2.4375,2.4233,2.7925,2.7925,0,0,0,1.877-.7l.6445.6865A3.99,3.99,0,0,1,250.707,111.0929Zm-2.3672-4.0478h4.3282a2.2571,2.2571,0,0,0-2.1426-2.1436A2.284,2.284,0,0,0,248.34,107.0451Z"/><path d="M256.0254,104.9718h-1.4141v-.8408h1.4141v-1.8769l1.0234-.2378v2.1147h1.961v.8408h-1.961v4.188c0,.7285.2793,1.023.9942,1.023a2.4642,2.4642,0,0,0,.9668-.1822v.91a3.8481,3.8481,0,0,1-1.1914.1821c-1.1758,0-1.793-.5742-1.793-1.667Z"/><path d="M261.7656,109.93l-1.1338,3.2359h-.7988l.8408-3.2359Z"/><path d="M271.875,109.3561l.6309.63a3.5555,3.5555,0,0,1-2.5918,1.1064,3.5407,3.5407,0,0,1,0-7.0737,3.73,3.73,0,0,1,2.6338,1.0645l-.6583.7143a2.6872,2.6872,0,0,0-1.9335-.8545,2.6218,2.6218,0,0,0,.0146,5.2251A2.5159,2.5159,0,0,0,271.875,109.3561Z"/><path d="M276.7744,104.0192a3.5515,3.5515,0,1,1-3.32,3.53A3.355,3.355,0,0,1,276.7744,104.0192Zm2.3252,3.5439a2.3388,2.3388,0,1,0-4.6367,0,2.3372,2.3372,0,1,0,4.6367,0Z"/><path d="M281.8965,104.131h1.0224v1.107a2.4635,2.4635,0,0,1,2.1709-1.2188,2.3785,2.3785,0,0,1,2.4795,2.5215v4.4263h-1.0224v-4.1324a1.7713,1.7713,0,0,0-1.835-1.9609,2.0164,2.0164,0,0,0-1.793,1.05v5.043h-1.0224Z"/><path d="M289.5127,109.4123a3.5666,3.5666,0,0,0,2.1992.8545c.9942,0,1.7227-.5186,1.7227-1.2329,0-.56-.3643-.8545-1.2325-1.0225l-1.121-.1963c-1.33-.2378-1.9327-.7983-1.9327-1.793,0-1.1762,1.0225-2.0029,2.4649-2.0029a4.4184,4.4184,0,0,1,2.6055.8545l-.504.7144a3.6269,3.6269,0,0,0-2.1435-.7286c-.8965,0-1.4844.42-1.4844,1.0928,0,.56.294.8262,1.1768.9805l1.1484.21c1.3731.2525,1.9893.8267,1.9893,1.835,0,1.1909-1.1485,2.1152-2.6621,2.1152a3.8992,3.8992,0,0,1-2.7735-1.0083Z"/><path d="M299.1045,111.0929a3.4121,3.4121,0,0,1-3.3906-3.5439,3.3274,3.3274,0,0,1,3.2226-3.53,3.2293,3.2293,0,0,1,3.1377,3.4458v.3081H296.709a2.4909,2.4909,0,0,0,2.4375,2.4233,2.796,2.796,0,0,0,1.8769-.7l.6446.6865A3.9938,3.9938,0,0,1,299.1045,111.0929Zm-2.3672-4.0478h4.3281a2.2579,2.2579,0,0,0-2.1435-2.1436A2.2823,2.2823,0,0,0,296.7373,107.0451Z"/><path d="M308.8633,109.3561l.63.63a3.555,3.555,0,0,1-2.5909,1.1064,3.5407,3.5407,0,0,1,0-7.0737,3.7259,3.7259,0,0,1,2.6329,1.0645l-.6582.7143a2.6872,2.6872,0,0,0-1.9327-.8545,2.6218,2.6218,0,0,0,.0137,5.2251A2.52,2.52,0,0,0,308.8633,109.3561Z"/><path d="M311.9121,104.9718H310.498v-.8408h1.4141v-1.8769l1.0234-.2378v2.1147h1.961v.8408h-1.961v4.188c0,.7285.2793,1.023.9942,1.023a2.4642,2.4642,0,0,0,.9668-.1822v.91a3.8476,3.8476,0,0,1-1.1914.1821c-1.1758,0-1.793-.5742-1.793-1.667Z"/><path d="M319.3057,111.0929a3.4114,3.4114,0,0,1-3.39-3.5439,3.3267,3.3267,0,0,1,3.2217-3.53,3.2293,3.2293,0,0,1,3.1377,3.4458v.3081H316.91a2.4915,2.4915,0,0,0,2.4375,2.4233,2.7924,2.7924,0,0,0,1.8769-.7l.6445.6865A3.9894,3.9894,0,0,1,319.3057,111.0929Zm-2.3672-4.0478h4.3281a2.2571,2.2571,0,0,0-2.1426-2.1436A2.2839,2.2839,0,0,0,316.9385,107.0451Z"/><path d="M324.624,104.9718H323.21v-.8408h1.414v-1.8769l1.0235-.2378v2.1147h1.9609v.8408h-1.9609v4.188c0,.7285.2793,1.023.9941,1.023a2.4642,2.4642,0,0,0,.9668-.1822v.91a3.8476,3.8476,0,0,1-1.1914.1821c-1.1758,0-1.793-.5742-1.793-1.667Z"/><path d="M330.0986,108.25a1.7662,1.7662,0,0,0,1.8213,1.9751,2.03,2.03,0,0,0,1.793-1.0367V104.131h1.0225v6.836h-1.0225v-1.1065a2.4485,2.4485,0,0,1-2.1719,1.2188,2.39,2.39,0,0,1-2.4785-2.5357V104.131h1.0361Z"/><path d="M339.9141,111.0929a3.4122,3.4122,0,0,1-3.3907-3.5439,3.3275,3.3275,0,0,1,3.2227-3.53,3.2293,3.2293,0,0,1,3.1377,3.4458v.3081h-5.3652a2.4908,2.4908,0,0,0,2.4375,2.4233,2.7962,2.7962,0,0,0,1.8769-.7l.6445.6865A3.9933,3.9933,0,0,1,339.9141,111.0929Zm-2.3672-4.0478h4.3281a2.2579,2.2579,0,0,0-2.1436-2.1436A2.2822,2.2822,0,0,0,337.5469,107.0451Z"/><path d="M344.63,104.131h1.0224v1.3872a2.0433,2.0433,0,0,1,1.9053-1.5132,1.9463,1.9463,0,0,1,.6445.0982v.9243a2.5671,2.5671,0,0,0-.7148-.126,1.95,1.95,0,0,0-1.835,1.3867v4.6788H344.63Z"/><path d="M352.4551,109.006c0-1.2187,1.0224-2.0312,2.5635-2.0312a3.9574,3.9574,0,0,1,2.0869.5322v-.9385a1.5392,1.5392,0,0,0-1.7647-1.6948,4.5129,4.5129,0,0,0-2.0732.5884l-.378-.7847a5.8566,5.8566,0,0,1,2.5772-.6582c1.6953,0,2.6475.8545,2.6475,2.4092v4.5386h-1.0088v-.7984a2.9342,2.9342,0,0,1-2.1709.9243A2.2068,2.2068,0,0,1,352.4551,109.006Zm2.6894,1.3028a2.7067,2.7067,0,0,0,1.961-.7847v-1.3164a3.6049,3.6049,0,0,0-1.9326-.4907c-1.0508,0-1.7374.5044-1.7374,1.2607C353.4355,109.7765,354.1221,110.3088,355.1445,110.3088Z"/><path d="M365.2119,110.0563a2.6939,2.6939,0,0,1-2.1855,1.0088,3.5262,3.5262,0,0,1,.0566-7.0181,2.7846,2.7846,0,0,1,2.1289.9527v-4.0484l1.0225-.21V110.967h-1.0225Zm-1.9326.1123a2.3416,2.3416,0,0,0,1.9326-.9106v-3.39a2.5287,2.5287,0,1,0-1.9326,4.3Z"/><path d="M368.1074,101.7082a.7354.7354,0,0,1,1.4707,0,.7354.7354,0,1,1-1.4707,0Zm1.2461,9.2588h-1.0224v-6.836h1.0224Z"/><path d="M371.4531,104.131h1.0088v.981a2.6971,2.6971,0,0,1,2.2129-1.065,3.5263,3.5263,0,0,1-.0557,7.0181,2.7724,2.7724,0,0,1-2.1435-.9526v3.7822h-1.0225Zm1.0225,1.751V109.23a2.404,2.404,0,0,0,1.9473.9527,2.63,2.63,0,0,0,0-5.2393A2.3358,2.3358,0,0,0,372.4756,105.882Z"/><path d="M379.3916,101.7082a.7354.7354,0,0,1,1.4707,0,.7354.7354,0,1,1-1.4707,0Zm1.2461,9.2588h-1.0225v-6.836h1.0225Z"/><path d="M382.625,109.4123a3.5666,3.5666,0,0,0,2.1992.8545c.9951,0,1.7237-.5186,1.7237-1.2329,0-.56-.3643-.8545-1.2334-1.0225l-1.12-.1963c-1.331-.2378-1.9336-.7983-1.9336-1.793,0-1.1762,1.0225-2.0029,2.4659-2.0029a4.42,4.42,0,0,1,2.6054.8545l-.5049.7144a3.6219,3.6219,0,0,0-2.1425-.7286c-.8965,0-1.4854.42-1.4854,1.0928,0,.56.2949.8262,1.1768.9805l1.1484.21c1.3731.2525,1.9893.8267,1.9893,1.835,0,1.1909-1.1485,2.1152-2.6612,2.1152a3.8958,3.8958,0,0,1-2.7734-1.0083Z"/><path d="M394.1641,109.3561l.63.63a3.5548,3.5548,0,0,1-2.5908,1.1064,3.5407,3.5407,0,0,1,0-7.0737,3.7255,3.7255,0,0,1,2.6328,1.0645l-.6582.7143a2.6868,2.6868,0,0,0-1.9326-.8545,2.6218,2.6218,0,0,0,.0137,5.2251A2.52,2.52,0,0,0,394.1641,109.3561Z"/><path d="M396.0371,101.7082a.7354.7354,0,0,1,1.4707,0,.7354.7354,0,1,1-1.4707,0Zm1.2471,9.2588h-1.0225v-6.836h1.0225Z"/><path d="M399.3838,104.131h1.0224v1.107a2.4624,2.4624,0,0,1,2.1709-1.2188,2.3789,2.3789,0,0,1,2.48,2.5215v4.4263h-1.0224v-4.1324a1.7718,1.7718,0,0,0-1.835-1.9609,2.0153,2.0153,0,0,0-1.793,1.05v5.043h-1.0224Z"/><path d="M406.8027,107.549a3.3256,3.3256,0,0,1,3.208-3.502,2.7607,2.7607,0,0,1,2.1436.9668v-.8828h1.0088v7.1861c0,1.6948-1.0235,2.6333-2.8858,2.6333a5.4866,5.4866,0,0,1-2.6621-.7144l.4346-.7842a4.6008,4.6008,0,0,0,2.1856.63c1.246,0,1.9042-.6025,1.9042-1.751v-1.2886a2.6916,2.6916,0,0,1-2.1845,1.0083A3.3,3.3,0,0,1,406.8027,107.549Zm3.4043,2.62a2.35,2.35,0,0,0,1.9326-.9248v-3.3755a2.5287,2.5287,0,1,0-1.9326,4.3Z"/><path d="M421.6025,111.0929a3.4114,3.4114,0,0,1-3.39-3.5439,3.3267,3.3267,0,0,1,3.2217-3.53,3.2294,3.2294,0,0,1,3.1377,3.4458v.3081H419.207a2.4916,2.4916,0,0,0,2.4375,2.4233,2.7925,2.7925,0,0,0,1.877-.7l.6445.6865A3.99,3.99,0,0,1,421.6025,111.0929Zm-2.3671-4.0478h4.3281a2.2571,2.2571,0,0,0-2.1426-2.1436A2.2838,2.2838,0,0,0,419.2354,107.0451Z"/><path d="M427.3418,110.967h-1.0225V100.9513l1.0225-.21Z"/><path d="M429.2168,101.7082a.7354.7354,0,0,1,1.4707,0,.7354.7354,0,1,1-1.4707,0Zm1.2471,9.2588h-1.0225v-6.836h1.0225Z"/><path d="M433.376,104.9718h-1.4151v-.8408h1.4151v-1.8769l1.0224-.2378v2.1147h1.961v.8408h-1.961v4.188c0,.7285.28,1.023.9942,1.023a2.4612,2.4612,0,0,0,.9668-.1822v.91a3.8424,3.8424,0,0,1-1.19.1821c-1.1767,0-1.7929-.5742-1.7929-1.667Z"/><path d="M439.1162,109.93l-1.1348,3.2359h-.7988l.8408-3.2359Z"/><path d="M90.4648,127.8127a3.5666,3.5666,0,0,0,2.1993.8545c.9941,0,1.7226-.5186,1.7226-1.233,0-.56-.3642-.8544-1.2324-1.0224l-1.1211-.1963c-1.33-.2378-1.9326-.7983-1.9326-1.793,0-1.1762,1.0224-2.0029,2.4648-2.0029a4.4184,4.4184,0,0,1,2.6055.8545l-.5039.7143a3.627,3.627,0,0,0-2.1436-.7285c-.8964,0-1.4843.42-1.4843,1.0928,0,.56.2939.8262,1.1767.9805l1.1485.21c1.373.2525,1.9892.8267,1.9892,1.835,0,1.1909-1.1484,2.1152-2.6621,2.1152a3.899,3.899,0,0,1-2.7734-1.0083Z"/><path d="M100.0566,129.4933a3.4122,3.4122,0,0,1-3.3906-3.5439,3.3274,3.3274,0,0,1,3.2227-3.53,3.2294,3.2294,0,0,1,3.1377,3.4458v.3081H97.6611a2.4909,2.4909,0,0,0,2.4375,2.4233,2.7959,2.7959,0,0,0,1.877-.7l.6445.6866A3.9934,3.9934,0,0,1,100.0566,129.4933ZM97.69,125.4455h4.3281a2.2579,2.2579,0,0,0-2.1436-2.1436A2.2822,2.2822,0,0,0,97.69,125.4455Z"/><path d="M109.8154,128.4567a2.6939,2.6939,0,0,1-2.1855,1.0088,3.5262,3.5262,0,0,1,.0566-7.0181,2.7846,2.7846,0,0,1,2.1289.9527v-4.0484l1.0225-.21v10.2255h-1.0225Zm-1.9326.1123a2.3416,2.3416,0,0,0,1.9326-.9106v-3.39a2.5287,2.5287,0,1,0-1.9326,4.3Z"/><path d="M121.2246,128.4567a2.6941,2.6941,0,0,1-2.1855,1.0088,3.5262,3.5262,0,0,1,.0566-7.0181,2.7847,2.7847,0,0,1,2.1289.9527v-4.0484l1.0225-.21v10.2255h-1.0225Zm-1.9326.1123a2.3419,2.3419,0,0,0,1.9326-.9106v-3.39a2.5287,2.5287,0,1,0-1.9326,4.3Z"/><path d="M124.12,120.1086a.7354.7354,0,0,1,1.4707,0,.7354.7354,0,1,1-1.4707,0Zm1.2471,9.2587h-1.0225v-6.8359h1.0225Z"/><path d="M127.1025,127.4064c0-1.2187,1.0225-2.0312,2.5635-2.0312a3.957,3.957,0,0,1,2.0869.5322v-.9385a1.5394,1.5394,0,0,0-1.7656-1.6948,4.51,4.51,0,0,0-2.0723.5884l-.3789-.7847a5.8573,5.8573,0,0,1,2.5782-.6582c1.6943,0,2.6464.8545,2.6464,2.4092v4.5385h-1.0078v-.7983a2.936,2.936,0,0,1-2.1718.9243A2.2065,2.2065,0,0,1,127.1025,127.4064Zm2.6895,1.3027a2.7062,2.7062,0,0,0,1.9609-.7846v-1.3164a3.6073,3.6073,0,0,0-1.9336-.4908c-1.05,0-1.7363.5044-1.7363,1.2608C128.083,128.1769,128.77,128.7091,129.792,128.7091Z"/><path d="M134.83,122.5314h1.0224v1.065a2.3391,2.3391,0,0,1,2.03-1.1768,2.2466,2.2466,0,0,1,2.1016,1.3306,2.5258,2.5258,0,0,1,2.2832-1.3306,2.3259,2.3259,0,0,1,2.3252,2.5352v4.4125H143.57v-4.16c0-1.1909-.6445-1.9331-1.6807-1.9331a1.901,1.901,0,0,0-1.7089,1.0786,2.8365,2.8365,0,0,1,.0556.6021v4.4125h-1.0224v-4.16a1.6979,1.6979,0,0,0-1.6944-1.9331,1.8726,1.8726,0,0,0-1.667,1.0083v5.0849H134.83Z"/><path d="M149.9219,122.5314h1.0224v1.1069a2.4623,2.4623,0,0,1,2.1709-1.2187,2.379,2.379,0,0,1,2.48,2.5215v4.4262h-1.0224V125.235a1.7718,1.7718,0,0,0-1.835-1.9609,2.0151,2.0151,0,0,0-1.793,1.05v5.0429h-1.0224Z"/><path d="M160.66,122.42a3.5515,3.5515,0,1,1-3.3194,3.53A3.355,3.355,0,0,1,160.66,122.42Zm2.3261,3.5439a2.3388,2.3388,0,1,0-4.6367,0,2.3372,2.3372,0,1,0,4.6367,0Z"/><path d="M165.7832,122.5314h1.0225v1.1069a2.4621,2.4621,0,0,1,2.1709-1.2187,2.379,2.379,0,0,1,2.48,2.5215v4.4262h-1.0225V125.235a1.7717,1.7717,0,0,0-1.835-1.9609,2.0148,2.0148,0,0,0-1.7929,1.05v5.0429h-1.0225Z"/><path d="M174.4355,126.65a1.7662,1.7662,0,0,0,1.8213,1.9751,2.03,2.03,0,0,0,1.793-1.0367v-5.0571h1.0225v6.8359H178.05v-1.1064a2.4485,2.4485,0,0,1-2.1719,1.2188,2.39,2.39,0,0,1-2.4785-2.5357v-4.4126h1.0361Z"/><path d="M181.1689,122.5314h1.0225v1.065a2.3406,2.3406,0,0,1,2.0313-1.1768,2.2474,2.2474,0,0,1,2.1015,1.3306,2.5248,2.5248,0,0,1,2.2832-1.3306,2.3264,2.3264,0,0,1,2.3252,2.5352v4.4125H189.91v-4.16c0-1.1909-.6446-1.9331-1.6817-1.9331a1.9031,1.9031,0,0,0-1.709,1.0786,2.8363,2.8363,0,0,1,.0567.6021v4.4125h-1.0225v-4.16a1.6986,1.6986,0,0,0-1.6953-1.9331,1.8736,1.8736,0,0,0-1.667,1.0083v5.0849h-1.0225Z"/><path d="M192.999,122.5314h1.0225v1.065a2.339,2.339,0,0,1,2.03-1.1768,2.2463,2.2463,0,0,1,2.1015,1.3306,2.5259,2.5259,0,0,1,2.2832-1.3306,2.3258,2.3258,0,0,1,2.3252,2.5352v4.4125h-1.0224v-4.16c0-1.1909-.6446-1.9331-1.6807-1.9331a1.9011,1.9011,0,0,0-1.709,1.0786,2.8365,2.8365,0,0,1,.0557.6021v4.4125h-1.0225v-4.16a1.6979,1.6979,0,0,0-1.6943-1.9331,1.8723,1.8723,0,0,0-1.667,1.0083v5.0849H192.999Z"/><path d="M206.4814,129.3532l-2.6337-6.8218h1.1347l2.0733,5.6172,2.1992-5.6172H210.39L207,130.7682c-.4346,1.1065-.9531,1.5127-1.9609,1.5127a2.341,2.341,0,0,1-.6592-.0981v-.91a2.3951,2.3951,0,0,0,.5605.0557c.5186,0,.8408-.252,1.0928-.8682Z"/><path d="M214.9219,122.5314h1.0224v1.1069a2.4634,2.4634,0,0,1,2.1709-1.2187,2.3785,2.3785,0,0,1,2.48,2.5215v4.4262h-1.0224V125.235a1.7713,1.7713,0,0,0-1.835-1.9609,2.0161,2.0161,0,0,0-1.793,1.05v5.0429h-1.0224Z"/><path d="M222.4258,120.1086a.7354.7354,0,0,1,1.4707,0,.7354.7354,0,1,1-1.4707,0Zm1.2471,9.2587H222.65v-6.8359h1.0225Z"/><path d="M228.9375,129.4655a2.7678,2.7678,0,0,1-2.1572-.9946v.8964h-1.0078V119.3517l1.0224-.21V123.47a2.7523,2.7523,0,0,1,2.1992-1.023,3.5262,3.5262,0,0,1-.0566,7.0181Zm-2.1426-5.1831v3.3481a2.4023,2.4023,0,0,0,1.9463.9527,2.63,2.63,0,0,0,0-5.2393A2.3326,2.3326,0,0,0,226.7949,124.2824Z"/><path d="M233.9346,119.3517l1.0224-.21v4.4965a2.4623,2.4623,0,0,1,2.1709-1.2187,2.379,2.379,0,0,1,2.48,2.5215v4.4262H238.585V125.235a1.7718,1.7718,0,0,0-1.835-1.9609,2.0151,2.0151,0,0,0-1.793,1.05v5.0429h-1.0224Z"/><path d="M248.0059,129.4933a3.4122,3.4122,0,0,1-3.3907-3.5439,3.3274,3.3274,0,0,1,3.2227-3.53,3.2293,3.2293,0,0,1,3.1377,3.4458v.3081H245.61a2.4908,2.4908,0,0,0,2.4375,2.4233,2.7958,2.7958,0,0,0,1.8769-.7l.6445.6866A3.9933,3.9933,0,0,1,248.0059,129.4933Zm-2.3672-4.0478h4.3281a2.2579,2.2579,0,0,0-2.1436-2.1436A2.2822,2.2822,0,0,0,245.6387,125.4455Z"/><path d="M253.7158,126.65a1.7667,1.7667,0,0,0,1.8213,1.9751,2.0293,2.0293,0,0,0,1.793-1.0367v-5.0571h1.0224v6.8359H257.33v-1.1064a2.4469,2.4469,0,0,1-2.1709,1.2188,2.39,2.39,0,0,1-2.48-2.5357v-4.4126h1.0361Z"/><path d="M260.2256,120.1086a.7354.7354,0,0,1,1.4707,0,.7354.7354,0,1,1-1.4707,0Zm1.2471,9.2587H260.45v-6.8359h1.0225Z"/><path d="M263.46,127.8127a3.5666,3.5666,0,0,0,2.1992.8545c.9941,0,1.7226-.5186,1.7226-1.233,0-.56-.3642-.8544-1.2324-1.0224l-1.1211-.1963c-1.33-.2378-1.9326-.7983-1.9326-1.793,0-1.1762,1.0225-2.0029,2.4648-2.0029a4.4182,4.4182,0,0,1,2.6055.8545l-.5039.7143a3.6267,3.6267,0,0,0-2.1435-.7285c-.8965,0-1.4844.42-1.4844,1.0928,0,.56.2939.8262,1.1767.9805l1.1485.21c1.373.2525,1.9892.8267,1.9892,1.835,0,1.1909-1.1484,2.1152-2.6621,2.1152a3.899,3.899,0,0,1-2.7734-1.0083Z"/><path d="M269.9,122.5314h1.0225v1.065a2.3388,2.3388,0,0,1,2.03-1.1768,2.2465,2.2465,0,0,1,2.1016,1.3306,2.5259,2.5259,0,0,1,2.2832-1.3306,2.3259,2.3259,0,0,1,2.3252,2.5352v4.4125h-1.0225v-4.16c0-1.1909-.6445-1.9331-1.6806-1.9331a1.901,1.901,0,0,0-1.709,1.0786,2.8365,2.8365,0,0,1,.0556.6021v4.4125h-1.0224v-4.16a1.6979,1.6979,0,0,0-1.6944-1.9331,1.8723,1.8723,0,0,0-1.6669,1.0083v5.0849H269.9Z"/><path d="M284.7412,122.42a3.5515,3.5515,0,1,1-3.32,3.53A3.355,3.355,0,0,1,284.7412,122.42Zm2.3252,3.5439a2.3388,2.3388,0,1,0-4.6367,0,2.3372,2.3372,0,1,0,4.6367,0Z"/><path d="M294.9053,128.4567a2.6909,2.6909,0,0,1-2.1846,1.0088,3.5262,3.5262,0,0,1,.0557-7.0181,2.7832,2.7832,0,0,1,2.1289.9527v-4.0484l1.0234-.21v10.2255h-1.0234Zm-1.9326.1123a2.3392,2.3392,0,0,0,1.9326-.9106v-3.39a2.5288,2.5288,0,1,0-1.9326,4.3Z"/><path d="M302.0986,123.3722h-1.414v-.8408h1.414v-1.8769l1.0235-.2378v2.1147h1.9609v.8408h-1.9609v4.188c0,.7285.2793,1.023.9941,1.023a2.4642,2.4642,0,0,0,.9668-.1822v.91a3.8476,3.8476,0,0,1-1.1914.1821c-1.1758,0-1.793-.5742-1.793-1.667Z"/><path d="M306.3545,120.1086a.7354.7354,0,0,1,1.4707,0,.7354.7354,0,1,1-1.4707,0Zm1.2471,9.2587h-1.0225v-6.8359h1.0225Z"/><path d="M309.7012,122.5314h1.0224v1.1069a2.4623,2.4623,0,0,1,2.1709-1.2187,2.379,2.379,0,0,1,2.48,2.5215v4.4262h-1.0224V125.235a1.7718,1.7718,0,0,0-1.835-1.9609,2.0151,2.0151,0,0,0-1.793,1.05v5.0429h-1.0224Z"/><path d="M322.457,127.7565l.6309.63a3.5555,3.5555,0,0,1-2.5918,1.1064,3.5407,3.5407,0,0,1,0-7.0737,3.73,3.73,0,0,1,2.6338,1.0644l-.6582.7144a2.6876,2.6876,0,0,0-1.9336-.8545,2.6218,2.6218,0,0,0,.0146,5.2251A2.5159,2.5159,0,0,0,322.457,127.7565Z"/><path d="M324.3311,120.1086a.7354.7354,0,0,1,1.4707,0,.7354.7354,0,1,1-1.4707,0Zm1.246,9.2587h-1.0224v-6.8359h1.0224Z"/><path d="M332.7051,128.4567a2.6909,2.6909,0,0,1-2.1846,1.0088,3.5262,3.5262,0,0,1,.0557-7.0181,2.7832,2.7832,0,0,1,2.1289.9527v-4.0484l1.0234-.21v10.2255h-1.0234Zm-1.9326.1123a2.3392,2.3392,0,0,0,1.9326-.9106v-3.39a2.5287,2.5287,0,1,0-1.9326,4.3Z"/><path d="M336.8193,126.65a1.7662,1.7662,0,0,0,1.8213,1.9751,2.03,2.03,0,0,0,1.793-1.0367v-5.0571h1.0225v6.8359h-1.0225v-1.1064a2.4485,2.4485,0,0,1-2.1719,1.2188,2.39,2.39,0,0,1-2.4785-2.5357v-4.4126h1.0361Z"/><path d="M343.5527,122.5314h1.0225v1.1069a2.4633,2.4633,0,0,1,2.1709-1.2187,2.3785,2.3785,0,0,1,2.4795,2.5215v4.4262h-1.0225V125.235a1.7712,1.7712,0,0,0-1.8349-1.9609,2.016,2.016,0,0,0-1.793,1.05v5.0429h-1.0225Z"/><path d="M351.8828,123.3722h-1.414v-.8408h1.414v-1.8769l1.0234-.2378v2.1147h1.961v.8408h-1.961v4.188c0,.7285.2793,1.023.9942,1.023a2.4642,2.4642,0,0,0,.9668-.1822v.91a3.8476,3.8476,0,0,1-1.1914.1821c-1.1758,0-1.793-.5742-1.793-1.667Z"/><path d="M360.6191,126.65a1.7662,1.7662,0,0,0,1.8213,1.9751,2.03,2.03,0,0,0,1.793-1.0367v-5.0571h1.0225v6.8359h-1.0225v-1.1064a2.4485,2.4485,0,0,1-2.1719,1.2188,2.39,2.39,0,0,1-2.4785-2.5357v-4.4126h1.0361Z"/><path d="M368.165,123.3722H366.75v-.8408h1.415v-1.8769l1.0225-.2378v2.1147h1.9609v.8408h-1.9609v4.188c0,.7285.28,1.023.9941,1.023a2.4609,2.4609,0,0,0,.9668-.1822v.91a3.8369,3.8369,0,0,1-1.19.1821c-1.1768,0-1.793-.5742-1.793-1.667Z"/><path d="M376.9287,129.3673h-1.0225V119.3517l1.0225-.21Z"/><path d="M378.6641,127.4064c0-1.2187,1.0224-2.0312,2.5634-2.0312a3.9576,3.9576,0,0,1,2.087.5322v-.9385a1.5392,1.5392,0,0,0-1.7647-1.6948,4.5125,4.5125,0,0,0-2.0732.5884l-.378-.7847a5.8566,5.8566,0,0,1,2.5772-.6582c1.6953,0,2.6474.8545,2.6474,2.4092v4.5385h-1.0087v-.7983a2.9342,2.9342,0,0,1-2.1709.9243A2.2068,2.2068,0,0,1,378.6641,127.4064Zm2.6894,1.3027a2.7066,2.7066,0,0,0,1.961-.7846v-1.3164a3.6044,3.6044,0,0,0-1.9327-.4908c-1.0507,0-1.7373.5044-1.7373,1.2608C379.6445,128.1769,380.3311,128.7091,381.3535,128.7091Z"/><path d="M389.4033,122.42a3.5516,3.5516,0,1,1-3.3193,3.53A3.355,3.355,0,0,1,389.4033,122.42Zm2.3262,3.5439a2.3388,2.3388,0,1,0-4.6367,0,2.3372,2.3372,0,1,0,4.6367,0Z"/><path d="M394.5264,122.5314h1.0224v1.3872a2.0412,2.0412,0,0,1,1.9043-1.5132,1.9473,1.9473,0,0,1,.6446.0982v.9243a2.5616,2.5616,0,0,0-.7139-.126,1.9478,1.9478,0,0,0-1.835,1.3867v4.6787h-1.0224Z"/><path d="M402.1016,129.4933a3.4114,3.4114,0,0,1-3.39-3.5439,3.3266,3.3266,0,0,1,3.2217-3.53,3.2293,3.2293,0,0,1,3.1377,3.4458v.3081h-5.3652a2.4915,2.4915,0,0,0,2.4375,2.4233,2.792,2.792,0,0,0,1.8769-.7l.6445.6866A3.9894,3.9894,0,0,1,402.1016,129.4933Zm-2.3672-4.0478h4.3281a2.2571,2.2571,0,0,0-2.1426-2.1436A2.2839,2.2839,0,0,0,399.7344,125.4455Z"/><path d="M409.9131,129.4933a3.4114,3.4114,0,0,1-3.39-3.5439,3.3266,3.3266,0,0,1,3.2217-3.53,3.2293,3.2293,0,0,1,3.1377,3.4458v.3081h-5.3652a2.4915,2.4915,0,0,0,2.4375,2.4233,2.792,2.792,0,0,0,1.8769-.7l.6446.6866A3.99,3.99,0,0,1,409.9131,129.4933Zm-2.3672-4.0478h4.3281a2.257,2.257,0,0,0-2.1426-2.1436A2.2839,2.2839,0,0,0,407.5459,125.4455Z"/><path d="M415.2314,123.3722h-1.414v-.8408h1.414v-1.8769l1.0235-.2378v2.1147h1.9609v.8408h-1.9609v4.188c0,.7285.2793,1.023.9941,1.023a2.4642,2.4642,0,0,0,.9668-.1822v.91a3.8476,3.8476,0,0,1-1.1914.1821c-1.1758,0-1.793-.5742-1.793-1.667Z"/><path d="M428.002,128.4567a2.6943,2.6943,0,0,1-2.1856,1.0088,3.5262,3.5262,0,0,1,.0566-7.0181,2.7848,2.7848,0,0,1,2.129.9527v-4.0484l1.0224-.21v10.2255H428.002Zm-1.9327.1123a2.342,2.342,0,0,0,1.9327-.9106v-3.39a2.5288,2.5288,0,1,0-1.9327,4.3Z"/><path d="M434.1328,122.42a3.5515,3.5515,0,1,1-3.32,3.53A3.3548,3.3548,0,0,1,434.1328,122.42Zm2.3252,3.5439a2.3388,2.3388,0,1,0-4.6367,0,2.3372,2.3372,0,1,0,4.6367,0Z"/><path d="M440.2773,129.3673h-1.0224V119.3517l1.0224-.21Z"/><path d="M445.3887,122.42a3.5515,3.5515,0,1,1-3.32,3.53A3.3548,3.3548,0,0,1,445.3887,122.42Zm2.3252,3.5439a2.3388,2.3388,0,1,0-4.6368,0,2.3372,2.3372,0,1,0,4.6368,0Z"/><path d="M450.5107,122.5314h1.0225v1.3872a2.0414,2.0414,0,0,1,1.9053-1.5132,1.9443,1.9443,0,0,1,.6435.0982v.9243a2.56,2.56,0,0,0-.7138-.126,1.9477,1.9477,0,0,0-1.835,1.3867v4.6787h-1.0225Z"/><path d="M458.0859,129.4933a3.4114,3.4114,0,0,1-3.39-3.5439,3.3273,3.3273,0,0,1,3.2217-3.53,3.2294,3.2294,0,0,1,3.1377,3.4458v.3081h-5.3643a2.49,2.49,0,0,0,2.4365,2.4233,2.7921,2.7921,0,0,0,1.877-.7l.6445.6866A3.99,3.99,0,0,1,458.0859,129.4933Zm-2.3671-4.0478h4.3291a2.2587,2.2587,0,0,0-2.1436-2.1436A2.2838,2.2838,0,0,0,455.7188,125.4455Z"/><path d="M90.5771,140.9318H91.6v1.0645a2.339,2.339,0,0,1,2.03-1.1768,2.2463,2.2463,0,0,1,2.1015,1.3306,2.526,2.526,0,0,1,2.2832-1.3306,2.3258,2.3258,0,0,1,2.3252,2.5352v4.4126H99.3174v-4.16c0-1.1909-.6445-1.9331-1.6807-1.9331a1.9012,1.9012,0,0,0-1.709,1.0786,2.8334,2.8334,0,0,1,.0557.6021v4.4126H94.9609v-4.16a1.6979,1.6979,0,0,0-1.6943-1.9331,1.8725,1.8725,0,0,0-1.667,1.0083v5.085H90.5771Z"/><path d="M102.042,145.8063c0-1.2187,1.0225-2.0312,2.5635-2.0312a3.9574,3.9574,0,0,1,2.0869.5322v-.9385a1.5392,1.5392,0,0,0-1.7647-1.6948,4.5129,4.5129,0,0,0-2.0732.5884l-.3779-.7847a5.8559,5.8559,0,0,1,2.5771-.6582c1.6953,0,2.6475.8545,2.6475,2.4092v4.5386h-1.0088v-.7984a2.9342,2.9342,0,0,1-2.1709.9243A2.2069,2.2069,0,0,1,102.042,145.8063Zm2.6894,1.3027a2.7064,2.7064,0,0,0,1.961-.7846V145.008a3.6036,3.6036,0,0,0-1.9326-.49c-1.0508,0-1.7373.5039-1.7373,1.26C103.0225,146.5768,103.709,147.109,104.7314,147.109Z"/><path d="M109.4619,144.3493a3.3249,3.3249,0,0,1,3.208-3.502,2.7571,2.7571,0,0,1,2.1426.9668v-.8823h1.0088v7.1855c0,1.6949-1.0225,2.6333-2.8858,2.6333a5.4827,5.4827,0,0,1-2.6611-.7143l.4346-.7842a4.5943,4.5943,0,0,0,2.1846.63c1.247,0,1.9052-.6026,1.9052-1.751v-1.2886a2.695,2.695,0,0,1-2.1855,1.0083A3.2991,3.2991,0,0,1,109.4619,144.3493Zm3.4043,2.62a2.3528,2.3528,0,0,0,1.9326-.9248v-3.3755a2.5287,2.5287,0,1,0-1.9326,4.3Z"/><path d="M117.918,140.9318H118.94v1.1064a2.4634,2.4634,0,0,1,2.1709-1.2187,2.3785,2.3785,0,0,1,2.48,2.5215v4.4263h-1.0224v-4.1324a1.7713,1.7713,0,0,0-1.835-1.9609,2.0156,2.0156,0,0,0-1.793,1.0508v5.0425H117.918Z"/><path d="M125.2822,145.8063c0-1.2187,1.0225-2.0312,2.5635-2.0312a3.957,3.957,0,0,1,2.0869.5322v-.9385a1.5394,1.5394,0,0,0-1.7656-1.6948,4.51,4.51,0,0,0-2.0723.5884l-.3789-.7847a5.8572,5.8572,0,0,1,2.5781-.6582c1.6944,0,2.6465.8545,2.6465,2.4092v4.5386h-1.0078v-.7984a2.9361,2.9361,0,0,1-2.1719.9243A2.2065,2.2065,0,0,1,125.2822,145.8063Zm2.6895,1.3027a2.7062,2.7062,0,0,0,1.9609-.7846V145.008a3.6071,3.6071,0,0,0-1.9336-.49c-1.05,0-1.7363.5039-1.7363,1.26C126.2627,146.5768,126.9492,147.109,127.9717,147.109Z"/><path d="M135.9072,145.8063c0-1.2187,1.0225-2.0312,2.5635-2.0312a3.957,3.957,0,0,1,2.0869.5322v-.9385a1.5391,1.5391,0,0,0-1.7646-1.6948,4.5132,4.5132,0,0,0-2.0733.5884l-.3779-.7847a5.8566,5.8566,0,0,1,2.5771-.6582c1.6954,0,2.6475.8545,2.6475,2.4092v4.5386h-1.0088v-.7984a2.9341,2.9341,0,0,1-2.1709.9243A2.2069,2.2069,0,0,1,135.9072,145.8063Zm2.69,1.3027a2.7062,2.7062,0,0,0,1.9609-.7846V145.008a3.6036,3.6036,0,0,0-1.9326-.49c-1.0508,0-1.7373.5039-1.7373,1.26C136.8877,146.5768,137.5742,147.109,138.5967,147.109Z"/><path d="M144.6582,147.7673h-1.0225V137.7516l1.0225-.21Z"/><path d="M146.5332,138.5085a.7354.7354,0,0,1,1.4707,0,.7354.7354,0,1,1-1.4707,0Zm1.2471,9.2588h-1.0225v-6.8355H147.78Z"/><path d="M149.5713,144.3634a3.329,3.329,0,0,1,3.208-3.5161,2.7847,2.7847,0,0,1,2.1289.9527v-.8682h1.0225v9.7632h-1.0225v-3.8384a2.6942,2.6942,0,0,1-2.1855,1.0088A3.2994,3.2994,0,0,1,149.5713,144.3634Zm3.4043,2.6055a2.3419,2.3419,0,0,0,1.9326-.9106v-3.39a2.5287,2.5287,0,1,0-1.9326,4.3Z"/><path d="M159.0215,145.05a1.7667,1.7667,0,0,0,1.8213,1.9751,2.029,2.029,0,0,0,1.7929-1.0367v-5.0566h1.0225v6.8355h-1.0225v-1.1065a2.4463,2.4463,0,0,1-2.1709,1.2183,2.39,2.39,0,0,1-2.4794-2.5352v-4.4121h1.0361Z"/><path d="M165.3916,145.8063c0-1.2187,1.0225-2.0312,2.5635-2.0312a3.957,3.957,0,0,1,2.0869.5322v-.9385a1.5394,1.5394,0,0,0-1.7656-1.6948,4.51,4.51,0,0,0-2.0723.5884l-.3789-.7847a5.8572,5.8572,0,0,1,2.5781-.6582c1.6944,0,2.6465.8545,2.6465,2.4092v4.5386H170.042v-.7984a2.9363,2.9363,0,0,1-2.1719.9243A2.2065,2.2065,0,0,1,165.3916,145.8063Zm2.6895,1.3027a2.7063,2.7063,0,0,0,1.9609-.7846V145.008a3.6071,3.6071,0,0,0-1.9336-.49c-1.05,0-1.7363.5039-1.7363,1.26C166.3721,146.5768,167.0586,147.109,168.0811,147.109Z"/><path d="M173.1191,140.9318h1.0225v1.0645a2.3406,2.3406,0,0,1,2.0313-1.1768,2.2475,2.2475,0,0,1,2.1015,1.3306,2.5248,2.5248,0,0,1,2.2832-1.3306,2.3264,2.3264,0,0,1,2.3252,2.5352v4.4126H181.86v-4.16c0-1.1909-.6446-1.9331-1.6817-1.9331a1.9031,1.9031,0,0,0-1.709,1.0786,2.8332,2.8332,0,0,1,.0567.6021v4.4126h-1.0225v-4.16a1.6986,1.6986,0,0,0-1.6953-1.9331,1.8736,1.8736,0,0,0-1.667,1.0083v5.085h-1.0225Z"/><path d="M191.292,147.8932a3.4114,3.4114,0,0,1-3.39-3.5439,3.3267,3.3267,0,0,1,3.2217-3.53,3.2293,3.2293,0,0,1,3.1377,3.4458v.3081h-5.3652a2.4915,2.4915,0,0,0,2.4375,2.4233,2.792,2.792,0,0,0,1.8769-.7l.6446.6861A3.9876,3.9876,0,0,1,191.292,147.8932Zm-2.3672-4.0483h4.3281a2.2569,2.2569,0,0,0-2.1425-2.1431A2.2838,2.2838,0,0,0,188.9248,143.8449Z"/><path d="M196.0088,140.9318h1.0224v1.3867a2.0413,2.0413,0,0,1,1.9043-1.5132,1.9473,1.9473,0,0,1,.6446.0982v.9248a2.5445,2.5445,0,0,0-.7139-.1265,1.9479,1.9479,0,0,0-1.835,1.3867v4.6788h-1.0224Z"/><path d="M200.2646,145.8063c0-1.2187,1.0225-2.0312,2.5635-2.0312a3.957,3.957,0,0,1,2.0869.5322v-.9385a1.5394,1.5394,0,0,0-1.7656-1.6948,4.51,4.51,0,0,0-2.0723.5884l-.3789-.7847a5.8573,5.8573,0,0,1,2.5782-.6582c1.6943,0,2.6465.8545,2.6465,2.4092v4.5386H204.915v-.7984a2.936,2.936,0,0,1-2.1718.9243A2.2065,2.2065,0,0,1,200.2646,145.8063Zm2.69,1.3027a2.7062,2.7062,0,0,0,1.9609-.7846V145.008a3.6069,3.6069,0,0,0-1.9336-.49c-1.05,0-1.7363.5039-1.7363,1.26C201.2451,146.5768,201.9316,147.109,202.9541,147.109Z"/><path d="M208.5938,141.7721H207.18v-.84h1.4141v-1.8774l1.0234-.2378v2.1152h1.9609v.84h-1.9609v4.188c0,.7285.2793,1.0225.9941,1.0225a2.4632,2.4632,0,0,0,.9668-.1817v.91a3.8476,3.8476,0,0,1-1.1914.1821c-1.1758,0-1.7929-.5742-1.7929-1.667Z"/><path d="M215.4951,140.9318h1.1065l2.2129,5.56,2.1855-5.56h1.0928l-2.8155,6.8355h-.98Z"/><path d="M226.15,140.82a3.5516,3.5516,0,1,1-3.3193,3.53A3.355,3.355,0,0,1,226.15,140.82Zm2.3262,3.5439a2.3388,2.3388,0,1,0-4.6368,0,2.3372,2.3372,0,1,0,4.6368,0Z"/><path d="M232.2959,147.7673h-1.0225V137.7516l1.0225-.21Z"/><path d="M235.39,145.05a1.7662,1.7662,0,0,0,1.8213,1.9751,2.03,2.03,0,0,0,1.793-1.0367v-5.0566h1.0225v6.8355h-1.0225v-1.1065a2.4479,2.4479,0,0,1-2.1719,1.2183,2.3893,2.3893,0,0,1-2.4785-2.5352v-4.4121H235.39Z"/><path d="M242.9355,141.7721h-1.415v-.84h1.415v-1.8774l1.0225-.2378v2.1152h1.9609v.84H243.958v4.188c0,.7285.28,1.0225.9941,1.0225a2.46,2.46,0,0,0,.9668-.1817v.91a3.8369,3.8369,0,0,1-1.19.1821c-1.1767,0-1.793-.5742-1.793-1.667Z"/><path d="M247.415,140.9318h1.0088v.98a2.697,2.697,0,0,1,2.2129-1.065,3.5263,3.5263,0,0,1-.0556,7.0181,2.7726,2.7726,0,0,1-2.1436-.9526v3.7822H247.415Zm1.0225,1.75V146.03a2.4036,2.4036,0,0,0,1.9473.9522,2.63,2.63,0,0,0,0-5.2388A2.3358,2.3358,0,0,0,248.4375,142.6823Z"/><path d="M255.2832,145.8063c0-1.2187,1.0225-2.0312,2.5635-2.0312a3.957,3.957,0,0,1,2.0869.5322v-.9385a1.5394,1.5394,0,0,0-1.7656-1.6948,4.51,4.51,0,0,0-2.0723.5884l-.3789-.7847a5.8572,5.8572,0,0,1,2.5781-.6582c1.6944,0,2.6465.8545,2.6465,2.4092v4.5386h-1.0078v-.7984a2.9363,2.9363,0,0,1-2.1719.9243A2.2065,2.2065,0,0,1,255.2832,145.8063Zm2.6895,1.3027a2.7063,2.7063,0,0,0,1.9609-.7846V145.008a3.6071,3.6071,0,0,0-1.9336-.49c-1.05,0-1.7363.5039-1.7363,1.26C256.2637,146.5768,256.95,147.109,257.9727,147.109Z"/><path d="M263.6133,141.7721h-1.4151v-.84h1.4151v-1.8774l1.0224-.2378v2.1152h1.961v.84h-1.961v4.188c0,.7285.28,1.0225.9942,1.0225a2.46,2.46,0,0,0,.9668-.1817v.91a3.8375,3.8375,0,0,1-1.19.1821c-1.1767,0-1.7929-.5742-1.7929-1.667Z"/><path d="M269.3115,147.109a.7356.7356,0,1,1-.7285-.7563A.7509.7509,0,0,1,269.3115,147.109Z"/><path d="M278.37,147.9215c-2.4228,0-3.9355-1.6533-3.9355-4.3v-5.6592h1.0781v5.6592c0,2.0166,1.1211,3.3193,2.8574,3.3193s2.8574-1.3027,2.8574-3.3193v-5.6592h1.0791v5.6592C282.3066,146.2546,280.7793,147.9215,278.37,147.9215Z"/><path d="M285.2139,141.7721H283.8v-.84h1.4141v-1.8774l1.0234-.2378v2.1152h1.9609v.84h-1.9609v4.188c0,.7285.2793,1.0225.9941,1.0225a2.4632,2.4632,0,0,0,.9668-.1817v.91a3.8476,3.8476,0,0,1-1.1914.1821c-1.1757,0-1.7929-.5742-1.7929-1.667Z"/><path d="M294.1738,147.7673l-1.8769-6.8355h.9951l1.4287,5.4629,1.6387-5.4629h.91l1.64,5.4629,1.414-5.4629h.9668l-1.8632,6.8355h-.9942l-1.625-5.5191-1.625,5.5191Z"/><path d="M302.5039,138.5085a.7354.7354,0,0,1,1.4707,0,.7354.7354,0,1,1-1.4707,0Zm1.2461,9.2588h-1.0225v-6.8355H303.75Z"/><path d="M305.7373,146.2126a3.5666,3.5666,0,0,0,2.1992.8545c.9951,0,1.7237-.5186,1.7237-1.233,0-.56-.3643-.8544-1.2334-1.0224l-1.12-.1963c-1.331-.2378-1.9336-.7983-1.9336-1.793,0-1.1762,1.0225-2.0029,2.4659-2.0029a4.42,4.42,0,0,1,2.6054.8545l-.5048.7143a3.6222,3.6222,0,0,0-2.1426-.7285c-.8965,0-1.4854.42-1.4854,1.0928,0,.56.2949.8262,1.1768.9805l1.1484.21c1.3731.2525,1.9893.8267,1.9893,1.835,0,1.1909-1.1485,2.1152-2.6612,2.1152a3.896,3.896,0,0,1-2.7734-1.0083Z"/><path d="M311.9541,138.5085a.7354.7354,0,0,1,1.4707,0,.7354.7354,0,1,1-1.4707,0Zm1.2461,9.2588h-1.0225v-6.8355H313.2Z"/><path d="M321.6436,147.8932a3.4122,3.4122,0,0,1-3.3907-3.5439,3.3275,3.3275,0,0,1,3.2227-3.53,3.2293,3.2293,0,0,1,3.1377,3.4458v.3081H319.248a2.4909,2.4909,0,0,0,2.4375,2.4233,2.7959,2.7959,0,0,0,1.877-.7l.6445.6861A3.9911,3.9911,0,0,1,321.6436,147.8932Zm-2.3672-4.0483h4.3281a2.2579,2.2579,0,0,0-2.1436-2.1431A2.2822,2.2822,0,0,0,319.2764,143.8449Z"/><path d="M326.3594,140.9318h1.0224v1.1064a2.4634,2.4634,0,0,1,2.1709-1.2187,2.3785,2.3785,0,0,1,2.4795,2.5215v4.4263H331.01v-4.1324a1.7713,1.7713,0,0,0-1.835-1.9609,2.0156,2.0156,0,0,0-1.793,1.0508v5.0425h-1.0224Z"/><path d="M333.8633,138.5085a.7354.7354,0,0,1,1.4707,0,.7354.7354,0,1,1-1.4707,0Zm1.2471,9.2588h-1.0225v-6.8355H335.11Z"/><path d="M337.21,140.9318h1.0224v1.0645a2.3391,2.3391,0,0,1,2.03-1.1768,2.2466,2.2466,0,0,1,2.1016,1.3306,2.5258,2.5258,0,0,1,2.2832-1.3306,2.3259,2.3259,0,0,1,2.3252,2.5352v4.4126H345.95v-4.16c0-1.1909-.6445-1.9331-1.6807-1.9331a1.9012,1.9012,0,0,0-1.709,1.0786,2.8334,2.8334,0,0,1,.0557.6021v4.4126h-1.0224v-4.16a1.6979,1.6979,0,0,0-1.6944-1.9331,1.8725,1.8725,0,0,0-1.667,1.0083v5.085H337.21Z"/><path d="M351.9365,145.8063c0-1.2187,1.0225-2.0312,2.5635-2.0312a3.957,3.957,0,0,1,2.0869.5322v-.9385a1.5391,1.5391,0,0,0-1.7646-1.6948,4.5132,4.5132,0,0,0-2.0733.5884l-.3779-.7847a5.8566,5.8566,0,0,1,2.5771-.6582c1.6954,0,2.6475.8545,2.6475,2.4092v4.5386h-1.0088v-.7984a2.9341,2.9341,0,0,1-2.1709.9243A2.2069,2.2069,0,0,1,351.9365,145.8063Zm2.6895,1.3027a2.7062,2.7062,0,0,0,1.9609-.7846V145.008a3.6036,3.6036,0,0,0-1.9326-.49c-1.0508,0-1.7373.5039-1.7373,1.26C352.917,146.5768,353.6035,147.109,354.626,147.109Z"/><path d="M364.6934,146.8566a2.6943,2.6943,0,0,1-2.1856,1.0088,3.5262,3.5262,0,0,1,.0567-7.0181,2.7847,2.7847,0,0,1,2.1289.9527v-4.0484l1.0224-.21v10.2256h-1.0224Zm-1.9327.1123a2.342,2.342,0,0,0,1.9327-.9106v-3.39a2.5288,2.5288,0,1,0-1.9327,4.3Z"/><path d="M371.0742,140.9318h1.0225v1.0645a2.34,2.34,0,0,1,2.0312-1.1768A2.2475,2.2475,0,0,1,376.23,142.15a2.5248,2.5248,0,0,1,2.2832-1.3306,2.3264,2.3264,0,0,1,2.3252,2.5352v4.4126h-1.0225v-4.16c0-1.1909-.6445-1.9331-1.6816-1.9331a1.9031,1.9031,0,0,0-1.709,1.0786,2.8332,2.8332,0,0,1,.0566.6021v4.4126H375.459v-4.16a1.6986,1.6986,0,0,0-1.6953-1.9331,1.8734,1.8734,0,0,0-1.667,1.0083v5.085h-1.0225Z"/><path d="M382.68,138.5085a.7354.7354,0,0,1,1.4707,0,.7354.7354,0,1,1-1.4707,0Zm1.2471,9.2588h-1.0225v-6.8355h1.0225Z"/><path d="M386.0264,140.9318h1.0224v1.1064A2.4623,2.4623,0,0,1,389.22,140.82a2.379,2.379,0,0,1,2.48,2.5215v4.4263h-1.0224v-4.1324a1.7718,1.7718,0,0,0-1.835-1.9609,2.0146,2.0146,0,0,0-1.793,1.0508v5.0425h-1.0224Z"/><path d="M393.53,138.5085a.7354.7354,0,0,1,1.4707,0,.7354.7354,0,1,1-1.4707,0Zm1.2461,9.2588h-1.0225v-6.8355h1.0225Z"/><path d="M396.876,140.9318h1.0224v1.0645A2.3407,2.3407,0,0,1,399.93,140.82a2.2474,2.2474,0,0,1,2.1015,1.3306,2.5249,2.5249,0,0,1,2.2833-1.3306,2.3263,2.3263,0,0,1,2.3251,2.5352v4.4126h-1.0224v-4.16c0-1.1909-.6445-1.9331-1.6817-1.9331a1.9031,1.9031,0,0,0-1.7089,1.0786,2.8332,2.8332,0,0,1,.0566.6021v4.4126h-1.0225v-4.16a1.6985,1.6985,0,0,0-1.6953-1.9331,1.8736,1.8736,0,0,0-1.667,1.0083v5.085H396.876Z"/><path d="M411.127,140.9318h1.1064l2.2129,5.56,2.1855-5.56h1.0928l-2.8154,6.8355h-.9805Z"/><path d="M421.8525,147.8932a3.4114,3.4114,0,0,1-3.39-3.5439,3.3267,3.3267,0,0,1,3.2217-3.53,3.2294,3.2294,0,0,1,3.1377,3.4458v.3081H419.457a2.4916,2.4916,0,0,0,2.4375,2.4233,2.7921,2.7921,0,0,0,1.877-.7l.6445.6861A3.9874,3.9874,0,0,1,421.8525,147.8932Zm-2.3671-4.0483h4.3281a2.257,2.257,0,0,0-2.1426-2.1431A2.2837,2.2837,0,0,0,419.4854,143.8449Z"/><path d="M426.5693,140.9318h1.0225v1.1064a2.4622,2.4622,0,0,1,2.1709-1.2187,2.379,2.379,0,0,1,2.48,2.5215v4.4263H431.22v-4.1324a1.7717,1.7717,0,0,0-1.8349-1.9609,2.0144,2.0144,0,0,0-1.793,1.0508v5.0425h-1.0225Z"/><path d="M434.0723,138.5085a.7354.7354,0,0,1,1.4707,0,.7354.7354,0,1,1-1.4707,0Zm1.247,9.2588h-1.0224v-6.8355h1.0224Z"/><path d="M437.0547,145.8063c0-1.2187,1.0224-2.0312,2.5635-2.0312a3.9574,3.9574,0,0,1,2.0869.5322v-.9385a1.5392,1.5392,0,0,0-1.7647-1.6948,4.51,4.51,0,0,0-2.0732.5884l-.3779-.7847a5.853,5.853,0,0,1,2.5771-.6582c1.6943,0,2.6475.8545,2.6475,2.4092v4.5386h-1.0088v-.7984a2.9358,2.9358,0,0,1-2.1709.9243A2.2068,2.2068,0,0,1,437.0547,145.8063Zm2.6894,1.3027a2.7066,2.7066,0,0,0,1.961-.7846V145.008a3.6059,3.6059,0,0,0-1.9326-.49c-1.0508,0-1.7373.5039-1.7373,1.26C438.0352,146.5768,438.7217,147.109,439.7441,147.109Z"/><path d="M444.7832,140.9318h1.0225v1.0645a2.34,2.34,0,0,1,2.0312-1.1768,2.2461,2.2461,0,0,1,2.1006,1.3306,2.5259,2.5259,0,0,1,2.2832-1.3306,2.3258,2.3258,0,0,1,2.3252,2.5352v4.4126h-1.0225v-4.16c0-1.1909-.6445-1.9331-1.6806-1.9331a1.901,1.901,0,0,0-1.709,1.0786,2.8334,2.8334,0,0,1,.0557.6021v4.4126H449.167v-4.16a1.6979,1.6979,0,0,0-1.6943-1.9331,1.8734,1.8734,0,0,0-1.667,1.0083v5.085h-1.0225Z"/><path d="M457.832,147.109a.7356.7356,0,1,1-.7285-.7563A.7515.7515,0,0,1,457.832,147.109Z"/><path class="a" d="M89.9351,35.2629h14.3291v2.2319H98.3594V52.0641h-2.52V37.4948H89.9351Z"/><path class="a" d="M106.0869,35.2629l2.4-.5284V41.071a5.0307,5.0307,0,0,1,3.6724-1.4639,4.5613,4.5613,0,0,1,4.7763,4.7764v7.6806h-2.4V44.7917a2.8428,2.8428,0,0,0-3.0239-3.0962,3.4515,3.4515,0,0,0-3.0244,1.584v8.7846h-2.4Z"/><path class="a" d="M119.4307,36.3908a1.4753,1.4753,0,0,1,1.4638-1.4883,1.4883,1.4883,0,1,1,0,2.9766A1.4753,1.4753,0,0,1,119.4307,36.3908Zm2.664,15.6733h-2.4V39.8468h2.4Z"/><path class="a" d="M125.07,48.8957a6.401,6.401,0,0,0,3.9844,1.5361c1.728,0,2.9282-.7437,2.9282-1.8242,0-.8638-.624-1.3677-1.9683-1.56l-2.208-.312c-2.4243-.36-3.6484-1.4878-3.6484-3.3843,0-2.208,1.92-3.6963,4.7764-3.6963a8.38,8.38,0,0,1,4.92,1.56L132.6309,42.8a6.79,6.79,0,0,0-3.8643-1.2725c-1.4639,0-2.4482.6724-2.4482,1.6563,0,.8881.5761,1.32,2.0161,1.5361l2.2085.312c2.4243.36,3.6963,1.5122,3.6963,3.4082,0,2.1846-2.2085,3.84-5.1123,3.84a8.058,8.058,0,0,1-5.3526-1.8Z"/><path class="a" d="M140.8379,36.3908a1.4757,1.4757,0,0,1,1.4643-1.4883,1.4883,1.4883,0,1,1,0,2.9766A1.4757,1.4757,0,0,1,140.8379,36.3908Zm2.6645,15.6733h-2.4V39.8468h2.4Z"/><path class="a" d="M146.478,48.8957a6.401,6.401,0,0,0,3.9844,1.5361c1.728,0,2.9282-.7437,2.9282-1.8242,0-.8638-.624-1.3677-1.9682-1.56l-2.208-.312c-2.4244-.36-3.6485-1.4878-3.6485-3.3843,0-2.208,1.92-3.6963,4.7764-3.6963a8.38,8.38,0,0,1,4.92,1.56L154.0386,42.8a6.79,6.79,0,0,0-3.8643-1.2725c-1.4639,0-2.4482.6724-2.4482,1.6563,0,.8881.5761,1.32,2.0161,1.5361l2.2085.312c2.4243.36,3.6963,1.5122,3.6963,3.4082,0,2.1846-2.2085,3.84-5.1123,3.84a8.0582,8.0582,0,0,1-5.3526-1.8Z"/><path class="a" d="M161.8857,48.56c0-2.3042,1.8721-3.72,4.9444-3.72a8.6342,8.6342,0,0,1,3.3364.6719V44.2155c0-1.728-1.0322-2.5923-2.9761-2.5923a8.6828,8.6828,0,0,0-3.7925,1.0322l-.8881-1.8a11.4323,11.4323,0,0,1,5.0166-1.248c3.1679,0,4.9922,1.56,4.9922,4.3682v8.0888h-2.3521V51.008A5.795,5.795,0,0,1,166.374,52.28C163.71,52.28,161.8857,50.7682,161.8857,48.56Zm5.0406,1.9444a4.6985,4.6985,0,0,0,3.24-1.1524V47.24a6.34,6.34,0,0,0-3.144-.7441c-1.7525,0-2.8326.792-2.8326,2.0161C164.19,49.6881,165.2939,50.5041,166.9263,50.5041Z"/><path class="a" d="M180.2935,35.2629l2.4-.5284V41.071a5.0308,5.0308,0,0,1,3.6724-1.4639,4.5613,4.5613,0,0,1,4.7764,4.7764v7.6806h-2.4V44.7917a2.8429,2.8429,0,0,0-3.0239-3.0962,3.4517,3.4517,0,0,0-3.0245,1.584v8.7846h-2.4Z"/><path class="a" d="M199.7578,52.28a6.2865,6.2865,0,0,1-6.4082-6.3364,6.1386,6.1386,0,0,1,6.12-6.2886c3.36,0,5.9048,2.7842,5.9048,6.3848v.6958h-9.6489A4.1205,4.1205,0,0,0,199.854,50.24a4.7524,4.7524,0,0,0,3.0962-1.08l1.5361,1.5122A7.2869,7.2869,0,0,1,199.7578,52.28ZM195.75,44.9357h7.2485a3.644,3.644,0,0,0-7.2485,0Z"/><path class="a" d="M206.8853,48.56c0-2.3042,1.872-3.72,4.9443-3.72a8.6339,8.6339,0,0,1,3.3364.6719V44.2155c0-1.728-1.0322-2.5923-2.9761-2.5923a8.6821,8.6821,0,0,0-3.7924,1.0322l-.8882-1.8a11.4323,11.4323,0,0,1,5.0166-1.248c3.1684,0,4.9922,1.56,4.9922,4.3682v8.0888H215.166V51.008a5.795,5.795,0,0,1-3.7925,1.2719C208.71,52.28,206.8853,50.7682,206.8853,48.56Zm5.0405,1.9444a4.6983,4.6983,0,0,0,3.24-1.1524V47.24a6.34,6.34,0,0,0-3.144-.7441c-1.7525,0-2.8325.792-2.8325,2.0161C209.19,49.6881,210.2935,50.5041,211.9258,50.5041Z"/><path class="a" d="M229.6382,50.9123a5.7718,5.7718,0,0,1-3.7442,1.3437,6.3006,6.3006,0,1,1,3.72-11.4009V35.2629l2.4-.5284v17.33h-2.3764Zm-3.4082-.7442a4.4028,4.4028,0,0,0,3.3843-1.4643V43.1593a4.4661,4.4661,0,0,0-3.3843-1.44,4.225,4.225,0,0,0,0,8.4487Z"/><path class="a" d="M237.2456,52.0641h-2.4V35.2629l2.4-.5284Z"/><path class="a" d="M239.8125,36.3908a1.4757,1.4757,0,0,1,1.4644-1.4883,1.4883,1.4883,0,0,1,0,2.9766A1.4757,1.4757,0,0,1,239.8125,36.3908Zm2.6646,15.6733h-2.4V39.8468h2.4Z"/><path class="a" d="M245.3086,39.8468h2.4V41.071a5.03,5.03,0,0,1,3.6723-1.4639,4.5613,4.5613,0,0,1,4.7764,4.7764v7.6806h-2.4V44.7917a2.8429,2.8429,0,0,0-3.0239-3.0962,3.4515,3.4515,0,0,0-3.0244,1.584v8.7846h-2.4Z"/><path class="a" d="M264.7725,52.28a6.2865,6.2865,0,0,1-6.4082-6.3364,6.1386,6.1386,0,0,1,6.12-6.2886c3.36,0,5.9048,2.7842,5.9048,6.3848v.6958H260.74a4.1206,4.1206,0,0,0,4.1285,3.5044,4.7521,4.7521,0,0,0,3.0961-1.08l1.5362,1.5122A7.2869,7.2869,0,0,1,264.7725,52.28Zm-4.0083-7.3442h7.2485a3.644,3.644,0,0,0-7.2485,0Z"/><path d="M89.7988,63.0417H99.355V64.53H95.417v9.7159H93.7363V64.53H89.7988Z"/><path d="M100.5674,63.0417l1.6006-.3521v4.2256a3.3553,3.3553,0,0,1,2.4492-.9761,3.0416,3.0416,0,0,1,3.185,3.1851v5.1221h-1.6v-4.85a1.8959,1.8959,0,0,0-2.0166-2.0645,2.3016,2.3016,0,0,0-2.0171,1.0562v5.8584h-1.6006Z"/><path d="M109.4629,63.7941a.9838.9838,0,0,1,.9761-.9927.9925.9925,0,1,1,0,1.9849A.9836.9836,0,0,1,109.4629,63.7941Zm1.7764,10.4522h-1.6006V66.0988h1.6006Z"/><path d="M113.2231,72.1335a4.2691,4.2691,0,0,0,2.6568,1.0244c1.1528,0,1.9531-.4961,1.9531-1.2168,0-.5762-.4165-.9121-1.3125-1.04l-1.4726-.208c-1.6167-.24-2.4332-.9926-2.4332-2.2573,0-1.4722,1.2808-2.4648,3.1856-2.4648a5.5883,5.5883,0,0,1,3.2812,1.04l-.8164,1.0561a4.5327,4.5327,0,0,0-2.5771-.8481c-.9766,0-1.6328.4482-1.6328,1.1045,0,.5923.3843.88,1.3447,1.0244l1.4727.208c1.6167.24,2.4648,1.0083,2.4648,2.273,0,1.4565-1.4727,2.561-3.4092,2.561a5.37,5.37,0,0,1-3.5693-1.2007Z"/><path d="M123.7344,63.7941a.9842.9842,0,0,1,.9765-.9927.9925.9925,0,1,1,0,1.9849A.984.984,0,0,1,123.7344,63.7941Zm1.7768,10.4522h-1.6006V66.0988h1.6006Z"/><path d="M127.4946,72.1335a4.2691,4.2691,0,0,0,2.6568,1.0244c1.1528,0,1.9531-.4961,1.9531-1.2168,0-.5762-.4165-.9121-1.3125-1.04l-1.4727-.208c-1.6167-.24-2.4331-.9926-2.4331-2.2573,0-1.4722,1.2808-2.4648,3.1856-2.4648a5.5883,5.5883,0,0,1,3.2812,1.04l-.8164,1.0561a4.5329,4.5329,0,0,0-2.5771-.8481c-.9766,0-1.6328.4482-1.6328,1.1045,0,.5923.3842.88,1.3447,1.0244l1.4726.208c1.6167.24,2.4649,1.0083,2.4649,2.273,0,1.4565-1.4727,2.561-3.4092,2.561A5.37,5.37,0,0,1,126.63,73.19Z"/><path d="M137.7666,71.9093c0-1.5366,1.2485-2.4809,3.2974-2.4809a5.7509,5.7509,0,0,1,2.2246.4482v-.8642c0-1.1529-.688-1.729-1.9849-1.729a5.789,5.789,0,0,0-2.5288.6884l-.5923-1.2006a7.6248,7.6248,0,0,1,3.3452-.8321c2.1128,0,3.33,1.04,3.33,2.9131v5.3941h-1.5688v-.7041a3.8652,3.8652,0,0,1-2.5288.8481C138.9829,74.39,137.7666,73.382,137.7666,71.9093Zm3.3613,1.2964a3.1323,3.1323,0,0,0,2.1607-.768V71.029a4.2316,4.2316,0,0,0-2.0967-.4961c-1.1685,0-1.8887.5283-1.8887,1.3442C139.3032,72.6618,140.04,73.2057,141.1279,73.2057Z"/><path d="M150.1343,72.1335a4.2686,4.2686,0,0,0,2.6567,1.0244c1.1528,0,1.9531-.4961,1.9531-1.2168,0-.5762-.4165-.9121-1.3125-1.04l-1.4726-.208c-1.6167-.24-2.4331-.9926-2.4331-2.2573,0-1.4722,1.2807-2.4648,3.1855-2.4648a5.5886,5.5886,0,0,1,3.2813,1.04l-.8164,1.0561a4.533,4.533,0,0,0-2.5772-.8481c-.9765,0-1.6328.4482-1.6328,1.1045,0,.5923.3843.88,1.3447,1.0244l1.4727.208c1.6167.24,2.4648,1.0083,2.4648,2.273,0,1.4565-1.4726,2.561-3.4091,2.561A5.37,5.37,0,0,1,149.27,73.19Z"/><path d="M159.0791,74.2463h-1.6006V63.0417l1.6006-.3521Z"/><path d="M160.79,63.7941a.9839.9839,0,0,1,.9761-.9927.9925.9925,0,1,1,0,1.9849A.9837.9837,0,0,1,160.79,63.7941Zm1.7764,10.4522h-1.6006V66.0988h1.6006Z"/><path d="M164.0859,70.1325a4.11,4.11,0,0,1,4.13-4.1777,4,4,0,0,1,2.417.8164v-.6724h1.5845v8.2593c0,2.1133-1.3286,3.2973-3.73,3.2973a6.91,6.91,0,0,1-3.2813-.8l.6241-1.2485a5.5145,5.5145,0,0,0,2.6093.7046c1.4244,0,2.1768-.6724,2.1768-1.9531V73.446a3.8324,3.8324,0,0,1-2.4331.8642A4.1032,4.1032,0,0,1,164.0859,70.1325Zm4.29,2.7851a2.8828,2.8828,0,0,0,2.2407-.9443V68.2917a2.9378,2.9378,0,0,0-2.2407-.9444,2.7859,2.7859,0,0,0,0,5.57Z"/><path d="M174.1016,63.0417l1.6005-.3521v4.2256a3.3557,3.3557,0,0,1,2.4493-.9761,3.0416,3.0416,0,0,1,3.185,3.1851v5.1221h-1.6006v-4.85a1.8958,1.8958,0,0,0-2.0166-2.0645,2.3018,2.3018,0,0,0-2.0171,1.0562v5.8584h-1.6005Z"/><path d="M183.91,67.4435h-1.729V66.0988h1.729V64.0182l1.5844-.3843v2.4649h2.4009v1.3447h-2.4009v4.418c0,.832.336,1.1362,1.2007,1.1362a3.146,3.146,0,0,0,1.1685-.1919V74.15a5.3051,5.3051,0,0,1-1.521.24c-1.5845,0-2.4326-.7524-2.4326-2.1606Z"/><path d="M190.6782,74.2463h-1.6006V63.0417l1.6006-.3521Z"/><path d="M194.9185,74.2785l-3.25-8.18H193.43l2.3852,6.2266,2.625-6.2266h1.7286l-3.9375,9.124c-.7525,1.7446-1.6167,2.4326-3.1211,2.4326a3.0975,3.0975,0,0,1-.8487-.0957V76.151a3.1741,3.1741,0,0,0,.72.064,1.6886,1.6886,0,0,0,1.6167-1.2007Z"/><path d="M206.1016,74.2463H204.501V63.0417l1.6006-.3521Z"/><path d="M211.8628,65.9391a4.2337,4.2337,0,1,1-4.2417,4.2256A4.1811,4.1811,0,0,1,211.8628,65.9391Zm2.6572,4.2256a2.67,2.67,0,1,0-2.6572,2.833A2.7195,2.7195,0,0,0,214.52,70.1647Z"/><path d="M217.605,66.0988h1.6006v.8164a3.3553,3.3553,0,0,1,2.4492-.9761,3.0416,3.0416,0,0,1,3.185,3.1851v5.1221h-1.6005v-4.85a1.8959,1.8959,0,0,0-2.0166-2.0645,2.3016,2.3016,0,0,0-2.0171,1.0562v5.8584H217.605Z"/><path d="M226.3086,70.1325a4.11,4.11,0,0,1,4.13-4.1777,4,4,0,0,1,2.417.8164v-.6724H234.44v8.2593c0,2.1133-1.3286,3.2973-3.73,3.2973a6.9092,6.9092,0,0,1-3.2812-.8l.624-1.2485a5.5149,5.5149,0,0,0,2.6094.7046c1.4243,0,2.1768-.6724,2.1768-1.9531V73.446a3.8327,3.8327,0,0,1-2.4332.8642A4.1032,4.1032,0,0,1,226.3086,70.1325Zm4.29,2.7851a2.883,2.883,0,0,0,2.2408-.9443V68.2917a2.9382,2.9382,0,0,0-2.2408-.9444,2.7859,2.7859,0,0,0,0,5.57Z"/><path d="M240.2305,74.39a4.1928,4.1928,0,0,1-4.274-4.2256,4.0941,4.0941,0,0,1,4.0816-4.1938,4.0349,4.0349,0,0,1,3.938,4.2578v.4643H237.541a2.7484,2.7484,0,0,0,2.7534,2.3369,3.169,3.169,0,0,0,2.065-.7207l1.0244,1.0088A4.8589,4.8589,0,0,1,240.2305,74.39Zm-2.6734-4.898h4.834a2.43,2.43,0,0,0-4.834,0Z"/><path d="M245.4927,66.0988h1.6006v1.0405a2.55,2.55,0,0,1,2.2412-1.2163,2.03,2.03,0,0,1,.8159.1279v1.4405a2.7439,2.7439,0,0,0-.9443-.1758,2.2245,2.2245,0,0,0-2.1128,1.4883v5.4424h-1.6006Z"/><path d="M254.8687,72.1335a4.2686,4.2686,0,0,0,2.6567,1.0244c1.1528,0,1.9531-.4961,1.9531-1.2168,0-.5762-.4165-.9121-1.3125-1.04l-1.4726-.208c-1.6167-.24-2.4331-.9926-2.4331-2.2573,0-1.4722,1.2807-2.4648,3.1855-2.4648a5.5888,5.5888,0,0,1,3.2813,1.04l-.8165,1.0561a4.5325,4.5325,0,0,0-2.5771-.8481c-.9766,0-1.6328.4482-1.6328,1.1045,0,.5923.3843.88,1.3447,1.0244l1.4727.208c1.6167.24,2.4648,1.0083,2.4648,2.273,0,1.4565-1.4726,2.561-3.4092,2.561a5.37,5.37,0,0,1-3.5693-1.2007Z"/><path d="M263.7812,70.9328a1.9086,1.9086,0,0,0,2.0167,2.081,2.2889,2.2889,0,0,0,2.0009-1.0727V66.0988h1.6006v8.1475h-1.6006V73.43a3.33,3.33,0,0,1-2.4492.9766,3.0417,3.0417,0,0,1-3.1689-3.2012V66.0988h1.6005Z"/><path d="M275.334,74.3742a4.0713,4.0713,0,0,1-2.4653-.8164v.6885h-1.5845V63.0417l1.6006-.3521v4.1777a3.775,3.775,0,0,1,2.4809-.8964,4.2023,4.2023,0,0,1-.0317,8.4033ZM272.8848,68.34v3.6812a3.0213,3.0213,0,0,0,2.2729.96,2.81,2.81,0,0,0,0-5.6182A2.9219,2.9219,0,0,0,272.8848,68.34Z"/><path d="M280.9961,63.0417l1.6006-.3521v4.2256a3.3553,3.3553,0,0,1,2.4492-.9761,3.0416,3.0416,0,0,1,3.1851,3.1851v5.1221H286.63v-4.85a1.8959,1.8959,0,0,0-2.0166-2.0645,2.3016,2.3016,0,0,0-2.0171,1.0562v5.8584h-1.6006Z"/><path d="M293.9736,74.39A4.1927,4.1927,0,0,1,289.7,70.1647a4.094,4.094,0,0,1,4.0815-4.1938,4.0348,4.0348,0,0,1,3.938,4.2578v.4643h-6.435a2.7484,2.7484,0,0,0,2.7534,2.3369,3.1687,3.1687,0,0,0,2.0649-.7207l1.0245,1.0088A4.8594,4.8594,0,0,1,293.9736,74.39ZM291.3,69.4923h4.834a2.43,2.43,0,0,0-4.834,0Z"/><path d="M298.7236,71.9093c0-1.5366,1.2486-2.4809,3.2974-2.4809a5.7505,5.7505,0,0,1,2.2246.4482v-.8642c0-1.1529-.688-1.729-1.9849-1.729a5.789,5.789,0,0,0-2.5288.6884l-.5923-1.2006a7.6252,7.6252,0,0,1,3.3453-.8321c2.1128,0,3.33,1.04,3.33,2.9131v5.3941h-1.5689v-.7041a3.8652,3.8652,0,0,1-2.5288.8481C299.94,74.39,298.7236,73.382,298.7236,71.9093Zm3.3614,1.2964a3.1322,3.1322,0,0,0,2.1606-.768V71.029a4.2316,4.2316,0,0,0-2.0967-.4961c-1.1684,0-1.8886.5283-1.8886,1.3442C300.26,72.6618,300.9966,73.2057,302.085,73.2057Z"/><path d="M313.8945,73.4782a3.8483,3.8483,0,0,1-2.497.896,4.2017,4.2017,0,1,1,2.4809-7.603V63.0417l1.6006-.3521V74.2463h-1.5845Zm-2.2729-.4966a2.9366,2.9366,0,0,0,2.2568-.9761V68.3078a2.9779,2.9779,0,0,0-2.2568-.96,2.8176,2.8176,0,0,0,0,5.6343Z"/><path d="M318.9644,74.2463h-1.6006V63.0417l1.6006-.3521Z"/><path d="M320.6758,63.7941a.9838.9838,0,0,1,.9761-.9927.9925.9925,0,1,1,0,1.9849A.9836.9836,0,0,1,320.6758,63.7941Zm1.7763,10.4522h-1.6V66.0988h1.6Z"/><path d="M324.3394,66.0988H325.94v.8164a3.3557,3.3557,0,0,1,2.4493-.9761,3.0416,3.0416,0,0,1,3.185,3.1851v5.1221h-1.6006v-4.85a1.8958,1.8958,0,0,0-2.0166-2.0645,2.3018,2.3018,0,0,0-2.0171,1.0562v5.8584h-1.6005Z"/><path d="M337.3169,74.39a4.1927,4.1927,0,0,1-4.2739-4.2256,4.094,4.094,0,0,1,4.0815-4.1938,4.0349,4.0349,0,0,1,3.938,4.2578v.4643h-6.4351a2.7486,2.7486,0,0,0,2.7535,2.3369,3.1687,3.1687,0,0,0,2.0649-.7207L340.47,73.318A4.8589,4.8589,0,0,1,337.3169,74.39Zm-2.6733-4.898h4.8339a2.43,2.43,0,0,0-4.8339,0Z"/></svg>