<svg xmlns="http://www.w3.org/2000/svg" width="555" height="220" viewBox="0 0 555 220"><defs><style>.a{fill:#e2eaf6;}.b{fill:#fff;}.c{fill:#e00;}.d{fill:#a7c0e4;}.e{fill:none;stroke:#e00;stroke-miterlimit:10;stroke-width:0.5px;}</style></defs><rect class="a" width="555" height="220"/><rect class="b" x="254.4135" y="54.2084" width="211.2186" height="118.8104" rx="2"/><path class="c" d="M282.3485,99.7214l.2353.05-.8271,2.622h-7.4815V102.13h.3633a.9715.9715,0,0,0,.877-.399,2.3029,2.3029,0,0,0,.1494-1.0544V94.4416a1.9973,1.9973,0,0,0-.1992-1.1328,1.0482,1.0482,0,0,0-.8272-.3135h-.3633v-.2637h4.375v.2637a2.6663,2.6663,0,0,0-1.0791.1426.8657.8657,0,0,0-.4238.3774,3.1039,3.1039,0,0,0-.1142,1.09v6.0706a1.971,1.971,0,0,0,.1142.8123.5064.5064,0,0,0,.2637.2207,4.6156,4.6156,0,0,0,1.1113.0712h.7051a5.1045,5.1045,0,0,0,1.56-.1638,2.0316,2.0316,0,0,0,.8194-.5808A4.76,4.76,0,0,0,282.3485,99.7214Z"/><path class="c" d="M286.5448,95.6742a2.8924,2.8924,0,0,1,2.38,1.1258,3.4549,3.4549,0,0,1,.7626,2.2087,4.16,4.16,0,0,1-.4208,1.7742,2.9841,2.9841,0,0,1-2.8,1.81,2.7641,2.7641,0,0,1-2.3437-1.1755,3.6424,3.6424,0,0,1-.7344-2.2232,3.9444,3.9444,0,0,1,.4453-1.7846,3.0412,3.0412,0,0,1,1.1719-1.3111A3.0105,3.0105,0,0,1,286.5448,95.6742Zm-.2207.4632a1.484,1.484,0,0,0-.7588.2246,1.5765,1.5765,0,0,0-.6162.7871,3.7992,3.7992,0,0,0-.2354,1.4465,5.0459,5.0459,0,0,0,.5664,2.458,1.6861,1.6861,0,0,0,1.4932,1.0332,1.3892,1.3892,0,0,0,1.14-.57,3.235,3.235,0,0,0,.4493-1.9593,4.471,4.471,0,0,0-.7481-2.736A1.5431,1.5431,0,0,0,286.3241,96.1374Z"/><path class="c" d="M292.5584,95.6742V97.142q.8188-1.4677,1.6817-1.4678a.9151.9151,0,0,1,.6484.2388.7352.7352,0,0,1,.2569.5523.6541.6541,0,0,1-.1856.47.5932.5932,0,0,1-.4424.1924.9394.9394,0,0,1-.5586-.2459.9267.9267,0,0,0-.46-.2458.4245.4245,0,0,0-.2774.1425,3.4414,3.4414,0,0,0-.6631.962v3.1279a1.9271,1.9271,0,0,0,.1358.8193.738.738,0,0,0,.3271.3206,1.4436,1.4436,0,0,0,.6768.1282v.2565h-3.3408v-.2565a1.3825,1.3825,0,0,0,.74-.1568.6082.6082,0,0,0,.25-.3633,3.7141,3.7141,0,0,0,.0352-.6911V98.3962a10.6911,10.6911,0,0,0-.0459-1.3574.5355.5355,0,0,0-.1709-.3172.4816.4816,0,0,0-.3106-.1,1.4,1.4,0,0,0-.498.1069l-.0713-.2566,1.9736-.7981Z"/><path class="c" d="M296.6053,98.3249a3.3486,3.3486,0,0,0,.7061,2.28,2.15,2.15,0,0,0,1.6738.8264,1.8168,1.8168,0,0,0,1.1152-.3525,2.6088,2.6088,0,0,0,.795-1.2078l.2207.1424a3.3983,3.3983,0,0,1-.8692,1.7778,2.3226,2.3226,0,0,1-1.8027.8015,2.6309,2.6309,0,0,1-2.0127-.9155,3.5053,3.5053,0,0,1-.8379-2.4617,3.7222,3.7222,0,0,1,.8584-2.6113,2.8021,2.8021,0,0,1,2.1553-.937,2.41,2.41,0,0,1,1.8027.7231,2.65,2.65,0,0,1,.7061,1.9346Zm0-.4133h3.0215a2.8392,2.8392,0,0,0-.1494-.8836,1.4178,1.4178,0,0,0-.5313-.6269,1.3383,1.3383,0,0,0-.7373-.2281,1.4714,1.4714,0,0,0-1.0586.46A2,2,0,0,0,296.6053,97.9116Z"/><path class="c" d="M303.9227,97.0637q.7134-.7123.8408-.8194a2.5542,2.5542,0,0,1,.6914-.42,1.95,1.95,0,0,1,.7334-.15,1.6267,1.6267,0,0,1,1.0547.3562,1.7621,1.7621,0,0,1,.5918,1.0333,4.8424,4.8424,0,0,1,1.2393-1.1221,2.2044,2.2044,0,0,1,1.04-.2674,1.631,1.631,0,0,1,.9229.2674,1.7715,1.7715,0,0,1,.6377.8728,3.932,3.932,0,0,1,.1572,1.2966v2.8074a2.5341,2.5341,0,0,0,.0928.8408.5975.5975,0,0,0,.2636.2671,1.3216,1.3216,0,0,0,.627.11v.2565h-3.2207v-.2565h.1357a1.1346,1.1346,0,0,0,.6553-.1639.6351.6351,0,0,0,.2353-.3632,4.635,4.635,0,0,0,.0284-.6912V98.111a2.38,2.38,0,0,0-.1924-1.1257.9652.9652,0,0,0-.8906-.4561,1.6947,1.6947,0,0,0-.7588.189,4.0922,4.0922,0,0,0-.9229.7017l-.0146.0783.0146.3064v3.1138a2.6936,2.6936,0,0,0,.0742.8335.6119.6119,0,0,0,.2823.2744,1.6083,1.6083,0,0,0,.705.11v.2565h-3.2988v-.2565a1.5111,1.5111,0,0,0,.7442-.1282.6672.6672,0,0,0,.2822-.3848,3.8449,3.8449,0,0,0,.0351-.7053V98.111a2.1173,2.1173,0,0,0-.2353-1.147,1.0039,1.0039,0,0,0-.876-.456,1.575,1.575,0,0,0-.7627.2065,2.9409,2.9409,0,0,0-.9121.7054v3.4985a2.4444,2.4444,0,0,0,.0889.8335.6128.6128,0,0,0,.2636.2886,1.7029,1.7029,0,0,0,.709.0962v.2565h-3.2275v-.2565a1.4322,1.4322,0,0,0,.6269-.0962.6172.6172,0,0,0,.2715-.3064,2.3623,2.3623,0,0,0,.0918-.8157V98.4245a9.1781,9.1781,0,0,0-.0635-1.3894.5653.5653,0,0,0-.1572-.324.4434.4434,0,0,0-.292-.0891,1.3711,1.3711,0,0,0-.4775.1069l-.1065-.2566,1.9659-.7981h.3066Z"/><path class="c" d="M319.2342,95.6742v5.2442a2.4233,2.4233,0,0,0,.0889.8157.6266.6266,0,0,0,.2637.3029,1.4156,1.4156,0,0,0,.6377.1v.2565h-3.17v-.2565a1.4753,1.4753,0,0,0,.6407-.0926.6369.6369,0,0,0,.2607-.3064,2.3208,2.3208,0,0,0,.0957-.8193V98.4033a8.8656,8.8656,0,0,0-.0644-1.3753.558.558,0,0,0-.1563-.3169.4434.4434,0,0,0-.292-.0891,1.4235,1.4235,0,0,0-.4844.1069l-.1-.2566,1.9658-.7981Zm-.5908-3.4128a.7189.7189,0,0,1,.72.72.7046.7046,0,0,1-.2109.513.6859.6859,0,0,1-.5088.2136.73.73,0,0,1-.7275-.7266.6924.6924,0,0,1,.2109-.51A.7.7,0,0,1,318.6434,92.2614Z"/><path class="c" d="M320.5672,96.5151l2.0088-.8123h.27v1.5247a3.7064,3.7064,0,0,1,1.0157-1.2075,1.88,1.88,0,0,1,1.0722-.3458,2.0646,2.0646,0,0,1,1.6387.77,3.6358,3.6358,0,0,1,.8057,2.4512,4.0782,4.0782,0,0,1-.97,2.7929,2.5625,2.5625,0,0,1-2.0088.9048,2.5119,2.5119,0,0,1-.9121-.15,2.1394,2.1394,0,0,1-.6416-.4274v1.988a2.643,2.643,0,0,0,.0821.8513.6128.6128,0,0,0,.2851.2886,1.7515,1.7515,0,0,0,.7373.1069v.2637h-3.42V105.25h.1787a1.2909,1.2909,0,0,0,.669-.15.5117.5117,0,0,0,.2109-.253,3.0448,3.0448,0,0,0,.0742-.8869v-6.17a3.3616,3.3616,0,0,0-.0566-.8052.4846.4846,0,0,0-.1817-.2564.59.59,0,0,0-.3388-.0857,1.2957,1.2957,0,0,0-.4346.1Zm2.2793,1.1328v2.4367a5.1943,5.1943,0,0,0,.0645,1.04,1.3321,1.3321,0,0,0,.4883.7268,1.5082,1.5082,0,0,0,.98.3135,1.4064,1.4064,0,0,0,1.1543-.5556,3.2146,3.2146,0,0,0,.5771-2.045,3.5642,3.5642,0,0,0-.6553-2.3015,1.365,1.365,0,0,0-1.083-.5556,1.47,1.47,0,0,0-.6767.1708A3.988,3.988,0,0,0,322.8465,97.6479Z"/><path class="c" d="M332.5516,95.6742v2.2232h-.2353a2.8947,2.8947,0,0,0-.6944-1.4251,1.5643,1.5643,0,0,0-1.08-.3776,1.19,1.19,0,0,0-.8046.2636.7659.7659,0,0,0-.3067.5843,1.0592,1.0592,0,0,0,.2285.684,2.5252,2.5252,0,0,0,.8975.62l1.04.5059a2.1131,2.1131,0,0,1,1.4463,1.86,1.7559,1.7559,0,0,1-.6728,1.4358,2.3359,2.3359,0,0,1-1.5069.5449,5.187,5.187,0,0,1-1.3681-.2136,1.3916,1.3916,0,0,0-.3848-.0713.2835.2835,0,0,0-.2568.1853h-.2344v-2.33h.2344a2.651,2.651,0,0,0,.7627,1.5034,1.8389,1.8389,0,0,0,1.2607.5059,1.1284,1.1284,0,0,0,.8018-.2886.9145.9145,0,0,0,.31-.6946,1.1053,1.1053,0,0,0-.3457-.8266,6.0429,6.0429,0,0,0-1.3789-.8477,4.09,4.09,0,0,1-1.3535-.9262,1.6047,1.6047,0,0,1-.3213-1.0262,1.8106,1.8106,0,0,1,.5527-1.3466,1.9537,1.9537,0,0,1,1.4287-.5416,3.35,3.35,0,0,1,.9327.1641,2.2207,2.2207,0,0,0,.4853.1067.2845.2845,0,0,0,.1777-.05.6745.6745,0,0,0,.1495-.221Z"/><path class="c" d="M339.7332,95.8666V99.821a9.9772,9.9772,0,0,0,.0538,1.386.6237.6237,0,0,0,.1709.3525.4117.4117,0,0,0,.2744.1,1.2691,1.2691,0,0,0,.499-.1211l.1.2492-1.9521.8052h-.32V101.21a5.93,5.93,0,0,1-1.2832,1.1472,1.9561,1.9561,0,0,1-.9326.2351,1.4933,1.4933,0,0,1-.9521-.3171,1.6421,1.6421,0,0,1-.5586-.8157,4.929,4.929,0,0,1-.1572-1.4109V97.1349a1.4374,1.4374,0,0,0-.1-.6413.6627.6627,0,0,0-.2959-.2742,1.7359,1.7359,0,0,0-.7089-.0891v-.2637h2.2871v4.3677a1.6325,1.6325,0,0,0,.3174,1.197,1.1037,1.1037,0,0,0,.7656.2849,1.599,1.599,0,0,0,.6953-.1921,3.7708,3.7708,0,0,0,.9228-.7339v-3.698a1.05,1.05,0,0,0-.2031-.7517,1.3176,1.3176,0,0,0-.8447-.21v-.2637Z"/><path class="c" d="M343.2459,97.0637q.7134-.7123.8409-.8194a2.5512,2.5512,0,0,1,.6914-.42,1.95,1.95,0,0,1,.7334-.15,1.6271,1.6271,0,0,1,1.0547.3562,1.7626,1.7626,0,0,1,.5918,1.0333,4.8407,4.8407,0,0,1,1.2392-1.1221,2.2047,2.2047,0,0,1,1.04-.2674,1.631,1.631,0,0,1,.9229.2674,1.7709,1.7709,0,0,1,.6377.8728,3.9293,3.9293,0,0,1,.1572,1.2966v2.8074a2.5341,2.5341,0,0,0,.0928.8408.5982.5982,0,0,0,.2637.2671,1.3212,1.3212,0,0,0,.6269.11v.2565h-3.2207v-.2565h.1358a1.1343,1.1343,0,0,0,.6552-.1639.6357.6357,0,0,0,.2354-.3632,4.6564,4.6564,0,0,0,.0283-.6912V98.111a2.3792,2.3792,0,0,0-.1924-1.1257.9651.9651,0,0,0-.8906-.4561,1.6947,1.6947,0,0,0-.7588.189,4.09,4.09,0,0,0-.9228.7017l-.0147.0783.0147.3064v3.1138a2.6936,2.6936,0,0,0,.0742.8335.6116.6116,0,0,0,.2822.2744,1.6088,1.6088,0,0,0,.7051.11v.2565h-3.2988v-.2565a1.5109,1.5109,0,0,0,.7441-.1282.6668.6668,0,0,0,.2822-.3848,3.8309,3.8309,0,0,0,.0352-.7053V98.111a2.1162,2.1162,0,0,0-.2354-1.147,1.0039,1.0039,0,0,0-.876-.456,1.5743,1.5743,0,0,0-.7626.2065,2.94,2.94,0,0,0-.9122.7054v3.4985a2.4444,2.4444,0,0,0,.0889.8335.6135.6135,0,0,0,.2637.2886,1.7025,1.7025,0,0,0,.709.0962v.2565H341.08v-.2565a1.4331,1.4331,0,0,0,.627-.0962.6176.6176,0,0,0,.2715-.3064,2.3623,2.3623,0,0,0,.0918-.8157V98.4245a9.1781,9.1781,0,0,0-.0635-1.3894.5659.5659,0,0,0-.1572-.324.4436.4436,0,0,0-.292-.0891,1.3721,1.3721,0,0,0-.4776.1069l-.1064-.2566,1.9658-.7981h.3066Z"/><circle class="d" cx="376.105" cy="97.4222" r="2.2386"/><circle class="d" cx="376.105" cy="109.6311" r="2.2386"/><circle class="d" cx="376.105" cy="121.84" r="2.2386"/><circle class="d" cx="376.105" cy="134.0489" r="2.2386"/><rect class="a" x="384.6903" y="95.1836" width="50.6983" height="4.4773"/><rect class="a" x="275.8858" y="61.4689" width="31.3868" height="4.4773"/><rect class="a" x="384.6903" y="107.3925" width="50.6983" height="4.4773"/><rect class="a" x="384.6903" y="119.6014" width="50.6983" height="4.4773"/><rect class="a" x="384.6903" y="131.8103" width="50.6983" height="4.4773"/><line class="e" x1="267.1872" y1="54.2084" x2="267.1872" y2="73.2066"/><line class="e" x1="267.1872" y1="163.5197" x2="267.1872" y2="173.0188"/><path class="c" d="M438.21,163.5841a1.9953,1.9953,0,0,1,.069.4049c0,.56-.6291.87-1.4562.87-1.87,0-3.507-1.0942-3.507-1.8181a.7359.7359,0,0,1,.06-.2929c-.6722.0345-1.5424.1551-1.5424.9219,0,1.258,2.9813,2.809,5.3423,2.809,1.81,0,2.2661-.8185,2.2661-1.4648a1.777,1.777,0,0,0-1.2322-1.43m-1.3011.4567c.5,0,1.2236-.1035,1.2236-.698a.566.566,0,0,0-.0124-.1368l-.2977-1.2935c-.069-.2843-.1293-.4136-.6291-.6635a5.8375,5.8375,0,0,0-1.4821-.5256c-.2326,0-.3015.3016-.5773.3016-.267,0-.4652-.224-.7151-.224-.2412,0-.3964.1636-.517.5,0,0-.3361.9478-.3792,1.0856a.25.25,0,0,0-.0088.0777c0,.3683,1.4507,1.5768,3.3951,1.5768"/><path d="M438.21,163.5841a1.9953,1.9953,0,0,1,.069.4049c0,.56-.6291.87-1.4562.87-1.87,0-3.507-1.0942-3.507-1.8181a.7359.7359,0,0,1,.06-.2929l.1464-.362a.25.25,0,0,0-.0088.0777c0,.3683,1.4507,1.5768,3.3951,1.5768.5,0,1.2236-.1035,1.2236-.698a.566.566,0,0,0-.0124-.1368l.09.3781Z"/><path d="M440.8482,165.09h.723v-1.0719h.5507l.5549,1.0719h.8071l-.6474-1.177a.89.89,0,0,0,.5549-.8281.9554.9554,0,0,0-1.0383-.9375h-1.5049V165.09Zm1.4376-2.3246a.3345.3345,0,1,1,0,.6642h-.7146v-.6642Zm1.1728,1.2148a1.1674,1.1674,0,0,0,1.2106,1.1518,1.3347,1.3347,0,0,0,.929-.3362l-.45-.3994a.6026.6026,0,0,1-.4456.1681.5747.5747,0,0,1-.5465-.3531h1.5848v-.1681a1.1425,1.1425,0,1,0-2.2826-.0631m1.1476-.5969a.4918.4918,0,0,1,.4666.3531h-.929a.4631.4631,0,0,1,.4624-.3531m3.0854,1.7067h.6726V162l-.681.1471v.8366a1.1459,1.1459,0,1,0-.5885,2.1354,1.0027,1.0027,0,0,0,.5969-.1933v.1639Zm-1.0635-1.114a.5631.5631,0,0,1,.5843-.5633.689.689,0,0,1,.4708.1724v.7777a.6541.6541,0,0,1-.4708.1765.5656.5656,0,0,1-.5843-.5633m2.7551,1.114h.7231v-1.1518h1.2106V165.09h.723v-2.9426h-.723v1.1308h-1.2106v-1.1308h-.7231V165.09Zm3.695.0378a1.0409,1.0409,0,0,0,.6138-.1723v.1345h.6726v-1.425c0-.5423-.3658-.8408-.9753-.8408a2.4738,2.4738,0,0,0-1.0383.2439l.2438.5a1.817,1.817,0,0,1,.6726-.1766c.2816,0,.4246.1093.4246.3321v.1093a1.9767,1.9767,0,0,0-.5045-.063c-.5717,0-.9164.24-.9164.6683a.7193.7193,0,0,0,.8071.6894m-.2078-.702c0-.1471.1472-.2186.37-.2186a1.71,1.71,0,0,1,.4035.05v.2858a.8588.8588,0,0,1-.4245.1051c-.2186,0-.349-.0841-.349-.2228m2.1162-.0126c0,.475.2859.7062.8071.7062a2.0889,2.0889,0,0,0,.4751-.0672v-.5507a.9905.9905,0,0,1-.3069.0462c-.2144,0-.2942-.0672-.2942-.269v-.8449h.6221v-.5675h-.6221v-.7189l-.6811.1472v.5717h-.45v.5675h.45v.9794Z"/><rect class="b" x="100.3954" y="19.1651" width="142.1896" height="181.6698" rx="2"/><path class="c" d="M117.38,68.0534a1.6754,1.6754,0,0,0,.8174-.2246q.186-.1583.1865-.802V61.9433a1.1948,1.1948,0,0,0-.1836-.7952,1.3615,1.3615,0,0,0-.82-.2314v-.2122h3.2246v.2122a1.5718,1.5718,0,0,0-.8447.2063.9447.9447,0,0,0-.2148.7422v5.4907a.5863.5863,0,0,0,.0644.2986.3583.3583,0,0,0,.2813.1367c.0859.0112.1767.0188.2715.0225s.2724.0056.5332.0056a5.588,5.588,0,0,0,2.0615-.2513,2.619,2.619,0,0,0,1.039-1.2834h.2911l-.5586,1.981H117.38Z"/><path class="c" d="M125.2274,63.7988a2.3572,2.3572,0,0,1,1.8164-.7674,2.4816,2.4816,0,0,1,1.83.7254,2.6106,2.6106,0,0,1,.7256,1.9309,2.8722,2.8722,0,0,1-.7032,1.9306,2.2847,2.2847,0,0,1-1.8193.82,2.3993,2.3993,0,0,1-1.8135-.7869,2.7691,2.7691,0,0,1-.7422-1.9754A2.6709,2.6709,0,0,1,125.2274,63.7988Zm.8916-.1424a2.2861,2.2861,0,0,0-.56,1.7522,3.9367,3.9367,0,0,0,.45,1.8526,1.3775,1.3775,0,0,0,1.249.8593,1.0631,1.0631,0,0,0,.9649-.5747,2.9489,2.9489,0,0,0,.3379-1.5068,3.9971,3.9971,0,0,0-.43-1.8191,1.3509,1.3509,0,0,0-1.2471-.8538A1.11,1.11,0,0,0,126.119,63.6564Z"/><path class="c" d="M129.9959,68.0815a1.3493,1.3493,0,0,0,.6807-.1814.7454.7454,0,0,0,.168-.5833V64.8a2.1653,2.1653,0,0,0-.1035-.79.377.377,0,0,0-.377-.2371,1.05,1.05,0,0,0-.1475.0139c-.0615.0093-.1259.0215-.1923.0364V63.64q.3163-.1113.65-.2288t.4619-.1672c.1855-.0708.3759-.1509.5732-.24q.0381,0,.0469.0278a.4873.4873,0,0,1,.0088.1172v.9151a4.27,4.27,0,0,1,.69-.7757,1.0665,1.0665,0,0,1,.6914-.2788.6441.6441,0,0,1,.4639.17.6027.6027,0,0,1,.0429.8117.4384.4384,0,0,1-.3437.1563.6411.6411,0,0,1-.4268-.1953.6048.6048,0,0,0-.3379-.1953q-.1947,0-.4794.3154a.9675.9675,0,0,0-.2842.65v2.5166a.8354.8354,0,0,0,.2226.667,1.124,1.124,0,0,0,.7422.1758v.1841h-2.751Z"/><path class="c" d="M137.7469,63.5756a1.99,1.99,0,0,1,.5918,1.5427h-3.5439A2.9675,2.9675,0,0,0,135.3807,67a1.6363,1.6363,0,0,0,1.2559.59,1.5784,1.5784,0,0,0,.9873-.3062,3.06,3.06,0,0,0,.7422-.8684l.1953.0667a3.1709,3.1709,0,0,1-.8565,1.3134,2.1318,2.1318,0,0,1-1.5371.6038,1.8809,1.8809,0,0,1-1.6211-.7925,3.0338,3.0338,0,0,1-.5722-1.8247,2.9707,2.9707,0,0,1,.664-1.9363,2.1286,2.1286,0,0,1,1.7305-.8147A1.9716,1.9716,0,0,1,137.7469,63.5756Zm-2.6728.4268a2.2073,2.2073,0,0,0-.2569.7588h2.3545a2.3149,2.3149,0,0,0-.2119-.8313.9622.9622,0,0,0-.915-.491A1.0665,1.0665,0,0,0,135.0741,64.0024Z"/><path class="c" d="M139.0077,68.1205a1.2823,1.2823,0,0,0,.581-.1452.7612.7612,0,0,0,.2227-.6472V64.4433a.9111.9111,0,0,0-.1084-.5413.4492.4492,0,0,0-.36-.1284,1.0122,1.0122,0,0,0-.1758.0112.9374.9374,0,0,0-.1367.0391v-.1953l.4024-.134q.2167-.0726.7138-.2622t.5244-.19a.03.03,0,0,1,.0333.0278.62.62,0,0,1,.0058.1059V63.93a4.2678,4.2678,0,0,1,.9541-.6949,1.8933,1.8933,0,0,1,.8262-.1923,1.1518,1.1518,0,0,1,.915.3906,1.6926,1.6926,0,0,1,.2959.5747,4.6291,4.6291,0,0,1,.72-.6194,1.9584,1.9584,0,0,1,1.0821-.3459,1.1709,1.1709,0,0,1,1.2.7309,3.6244,3.6244,0,0,1,.1728,1.3057V67.395a.6665.6665,0,0,0,.1758.5385,1.2357,1.2357,0,0,0,.6338.187v.1451h-2.5166v-.1563a1.1027,1.1027,0,0,0,.6387-.1953.8807.8807,0,0,0,.1533-.6138v-2.405a2.0333,2.0333,0,0,0-.1172-.7979.8.8,0,0,0-.81-.4577,1.2831,1.2831,0,0,0-.72.24,3.5814,3.5814,0,0,0-.5078.4465V67.183a1.2276,1.2276,0,0,0,.1592.6863.8049.8049,0,0,0,.6728.2512v.1451H142.077v-.1451a1.0189,1.0189,0,0,0,.6748-.2568,1.8445,1.8445,0,0,0,.1455-.9373V65.3671a4.1778,4.1778,0,0,0-.1113-1.1806.75.75,0,0,0-.7813-.5469,1.3434,1.3434,0,0,0-.67.187,2.0933,2.0933,0,0,0-.58.4883v3.0522a.8793.8793,0,0,0,.1475.586.9139.9139,0,0,0,.6445.1674v.1451h-2.539Z"/><path class="c" d="M150.7538,68.0534a1.8984,1.8984,0,0,0,.9033-.208q.2065-.1582.207-.8186V61.9433a1.1116,1.1116,0,0,0-.207-.8118,1.6126,1.6126,0,0,0-.9033-.2148v-.2122h3.3808v.2122a1.6153,1.6153,0,0,0-.9033.2148,1.1116,1.1116,0,0,0-.207.8118v5.0835q0,.66.207.8186a1.902,1.902,0,0,0,.9033.208v.2122h-3.3808Z"/><path class="c" d="M154.4305,70.57a.8977.8977,0,0,0,.6621-.2233,1.0024,1.0024,0,0,0,.1416-.597V64.393a.9268.9268,0,0,0-.1035-.5442.4967.4967,0,0,0-.3877-.12,1.0916,1.0916,0,0,0-.1142.0057c-.0352.0036-.086.0112-.1534.0222v-.1841l.53-.1729q.0279-.0054,1.1211-.385a.0448.0448,0,0,1,.042.0249.1146.1146,0,0,1,.0146.0586v.7532a4.074,4.074,0,0,1,.6465-.5466,1.9338,1.9338,0,0,1,1.0332-.3125,1.6868,1.6868,0,0,1,1.3252.655,2.6835,2.6835,0,0,1,.5547,1.7922,3.3405,3.3405,0,0,1-.667,2.0235,2.0069,2.0069,0,0,1-1.6767.9084,1.6811,1.6811,0,0,1-.5411-.0781,1.6064,1.6064,0,0,1-.6582-.43v1.83q0,.5637.1836.6919a1.8524,1.8524,0,0,0,.8037.1731v.1953h-2.7568Zm2.2022-2.77a1.2142,1.2142,0,0,0,.6777.1865,1.2416,1.2416,0,0,0,1.0293-.5991,2.8394,2.8394,0,0,0,.4268-1.669,2.2732,2.2732,0,0,0-.4434-1.5324,1.3343,1.3343,0,0,0-1.0293-.5074,1.2356,1.2356,0,0,0-.7539.2537.6779.6779,0,0,0-.34.4988v2.8032A1.1253,1.1253,0,0,0,156.6327,67.8Z"/><path class="c" d="M160.6864,66.5077h.1845a2.9145,2.9145,0,0,0,.3448.9766,1.2629,1.2629,0,0,0,1.1416.625.9137.9137,0,0,0,.6592-.2314.7911.7911,0,0,0,.2421-.6.8206.8206,0,0,0-.14-.4519,1.4255,1.4255,0,0,0-.49-.4241l-.625-.3572a3.5507,3.5507,0,0,1-1.01-.7422,1.3033,1.3033,0,0,1-.3242-.8816,1.3185,1.3185,0,0,1,.4463-1.0266,1.6152,1.6152,0,0,1,1.122-.4018,2.18,2.18,0,0,1,.6494.1115,2.9729,2.9729,0,0,0,.4.1116.2836.2836,0,0,0,.1445-.0278.2228.2228,0,0,0,.0781-.0894h.1348l.039,1.5569H163.51a2.5886,2.5886,0,0,0-.3008-.8425,1.1069,1.1069,0,0,0-.999-.5581.7934.7934,0,0,0-.8369.8037q0,.5134.7705.915l.7363.3963q1.188.6474,1.1885,1.5066a1.3472,1.3472,0,0,1-.4932,1.0769,1.9258,1.9258,0,0,1-1.29.4184,2.9983,2.9983,0,0,1-.7568-.1116,3.4163,3.4163,0,0,0-.502-.1115.1642.1642,0,0,0-.1162.0473.321.321,0,0,0-.0781.1145h-.1455Z"/><path class="c" d="M166.3055,63.0983V66.67a1.451,1.451,0,0,0,.1065.6082.7666.7666,0,0,0,.7587.4243,1.2914,1.2914,0,0,0,.7422-.2512,2.178,2.178,0,0,0,.418-.3851V64.008a.7126.7126,0,0,0-.167-.5637,1.27,1.27,0,0,0-.67-.1617v-.1843h1.8027v3.9285a.7539.7539,0,0,0,.1367.5217.7824.7824,0,0,0,.5772.1255V67.83c-.2041.0559-.3555.0976-.4522.1254s-.2578.0791-.4853.1536q-.145.05-.6358.24a.03.03,0,0,1-.0332-.0251.2623.2623,0,0,1-.0058-.0586v-.8985a3.7507,3.7507,0,0,1-.6924.67,1.7119,1.7119,0,0,1-1.0039.3347,1.4321,1.4321,0,0,1-.915-.3464,1.37,1.37,0,0,1-.4356-1.1453v-2.9a.7313.7313,0,0,0-.1894-.5926,1.1494,1.1494,0,0,0-.5245-.133v-.1563Z"/><path class="c" d="M170.4344,68.1205a1.2828,1.2828,0,0,0,.5811-.1452.7615.7615,0,0,0,.2226-.6472V64.4433a.91.91,0,0,0-.1084-.5413.449.449,0,0,0-.36-.1284,1.0122,1.0122,0,0,0-.1758.0112.93.93,0,0,0-.1367.0391v-.1953l.4023-.134q.2169-.0726.7139-.2622t.5244-.19a.03.03,0,0,1,.0332.0278.6165.6165,0,0,1,.0059.1059V63.93a4.2656,4.2656,0,0,1,.9541-.6949,1.8926,1.8926,0,0,1,.8261-.1923,1.152,1.152,0,0,1,.9151.3906,1.6944,1.6944,0,0,1,.2959.5747,4.6245,4.6245,0,0,1,.72-.6194,1.9581,1.9581,0,0,1,1.082-.3459,1.1708,1.1708,0,0,1,1.2.7309,3.6217,3.6217,0,0,1,.1729,1.3057V67.395a.6665.6665,0,0,0,.1758.5385,1.2357,1.2357,0,0,0,.6338.187v.1451h-2.5166v-.1563a1.102,1.102,0,0,0,.6386-.1953.88.88,0,0,0,.1533-.6138v-2.405a2.0337,2.0337,0,0,0-.1171-.7979.8.8,0,0,0-.81-.4577,1.2829,1.2829,0,0,0-.72.24,3.5812,3.5812,0,0,0-.5079.4465V67.183a1.2285,1.2285,0,0,0,.1592.6863.8053.8053,0,0,0,.6729.2512v.1451h-2.5615v-.1451a1.0189,1.0189,0,0,0,.6748-.2568,1.8456,1.8456,0,0,0,.1455-.9373V65.3671a4.1729,4.1729,0,0,0-.1114-1.1806.75.75,0,0,0-.7812-.5469,1.3434,1.3434,0,0,0-.67.187,2.0919,2.0919,0,0,0-.58.4883v3.0522a.8787.8787,0,0,0,.1475.586.9137.9137,0,0,0,.6445.1674v.1451h-2.5391Z"/><path class="c" d="M120.7049,77.4557a1.7816,1.7816,0,0,1,.43.3238V76.0051a1.02,1.02,0,0,0-.0752-.4688c-.05-.0854-.17-.1284-.3594-.1284a1.0717,1.0717,0,0,0-.1171.0056c-.0342.0039-.1084.0112-.2237.0225v-.1844l.4571-.1171c.1679-.0445.3349-.0911.5029-.1395s.3144-.0949.44-.1394q.0894-.0277.2959-.1062l.0332.0113-.0107.5859q-.0059.3178-.0117.6555t-.0049.667L122.05,81.228a1.0333,1.0333,0,0,0,.09.5078q.0894.145.4736.145c.041,0,.0821-.0007.1231-.0027a.9528.9528,0,0,0,.123-.0139v.1841q-.0336.0113-.8095.279l-.876.3291-.0391-.05V81.92a2.9028,2.9028,0,0,1-.541.4855,1.7613,1.7613,0,0,1-.9434.251,1.8779,1.8779,0,0,1-1.5371-.7336,2.6373,2.6373,0,0,1-.5888-1.6992,3.19,3.19,0,0,1,.706-2.0786,2.15,2.15,0,0,1,1.7276-.8677A1.5827,1.5827,0,0,1,120.7049,77.4557Zm.1621,4.3414a.709.709,0,0,0,.2676-.4854V78.9179a1.2148,1.2148,0,0,0-.3877-1.0239,1.2491,1.2491,0,0,0-.7558-.2986,1.2246,1.2246,0,0,0-1.0938.6221,2.825,2.825,0,0,0-.3906,1.5317,3.0853,3.0853,0,0,0,.416,1.6016,1.3509,1.3509,0,0,0,1.2412.7031A.9743.9743,0,0,0,120.867,81.7971Z"/><path class="c" d="M123.9608,78.0837a2.3572,2.3572,0,0,1,1.8164-.7674,2.4816,2.4816,0,0,1,1.83.7254,2.6106,2.6106,0,0,1,.7256,1.9309,2.8727,2.8727,0,0,1-.7032,1.9307,2.2849,2.2849,0,0,1-1.8193.82,2.3993,2.3993,0,0,1-1.8135-.7869,2.7691,2.7691,0,0,1-.7422-1.9753A2.671,2.671,0,0,1,123.9608,78.0837Zm.8916-.1424a2.2862,2.2862,0,0,0-.56,1.7522,3.9367,3.9367,0,0,0,.45,1.8526,1.3775,1.3775,0,0,0,1.249.8593,1.0631,1.0631,0,0,0,.9649-.5747,2.9489,2.9489,0,0,0,.3379-1.5068,3.9974,3.9974,0,0,0-.43-1.8191,1.3508,1.3508,0,0,0-1.2471-.8537A1.1094,1.1094,0,0,0,124.8524,77.9413Z"/><path class="c" d="M128.9129,82.3942a1.3207,1.3207,0,0,0,.7032-.2092.8078.8078,0,0,0,.1845-.6223V76.111a1.422,1.422,0,0,0-.0615-.5078.45.45,0,0,0-.4521-.2344.9466.9466,0,0,0-.17.0169c-.0615.0112-.1386.0278-.2314.05v-.1844q.7528-.2005,1.8135-.5356a.0422.0422,0,0,1,.0468.0334.7287.7287,0,0,1,.0088.1453v6.69a.8373.8373,0,0,0,.167.6277,1.3047,1.3047,0,0,0,.6924.1814v.1563h-2.7012Z"/><path class="c" d="M132.85,78.0837a2.3572,2.3572,0,0,1,1.8164-.7674,2.4815,2.4815,0,0,1,1.83.7254,2.6106,2.6106,0,0,1,.7256,1.9309,2.8731,2.8731,0,0,1-.7031,1.9307,2.2851,2.2851,0,0,1-1.8194.82,2.3962,2.3962,0,0,1-1.8134-.7869,2.7648,2.7648,0,0,1-.7422-1.9753A2.6709,2.6709,0,0,1,132.85,78.0837Zm.8907-.1424a2.2862,2.2862,0,0,0-.5586,1.7522,3.9358,3.9358,0,0,0,.4492,1.8526,1.3788,1.3788,0,0,0,1.25.8593,1.0617,1.0617,0,0,0,.9639-.5747,2.95,2.95,0,0,0,.3388-1.5068,3.9855,3.9855,0,0,0-.4306-1.8191,1.35,1.35,0,0,0-1.2471-.8537A1.111,1.111,0,0,0,133.7411,77.9413Z"/><path class="c" d="M137.618,82.3664a1.3486,1.3486,0,0,0,.6807-.1814.7454.7454,0,0,0,.1679-.5833V79.0851a2.1631,2.1631,0,0,0-.1035-.79.3768.3768,0,0,0-.3769-.2371,1.049,1.049,0,0,0-.1475.0139c-.0615.0093-.126.0215-.1924.0364v-.1843q.3165-.1113.65-.2288t.4619-.1672c.1856-.0708.376-.1509.5733-.24q.0381,0,.0469.0278a.49.49,0,0,1,.0087.1172v.9151a4.27,4.27,0,0,1,.6905-.7757,1.0663,1.0663,0,0,1,.6914-.2788.6441.6441,0,0,1,.4638.17.603.603,0,0,1,.043.8118.4386.4386,0,0,1-.3437.1562.6411.6411,0,0,1-.4268-.1953.6051.6051,0,0,0-.3379-.1953q-.1948,0-.48.3154a.968.968,0,0,0-.2842.65v2.5166a.8354.8354,0,0,0,.2227.667,1.124,1.124,0,0,0,.7422.1758v.1841h-2.751Z"/><path class="c" d="M144.828,80.7927h.1836a2.9132,2.9132,0,0,0,.3457.9765,1.2613,1.2613,0,0,0,1.1406.625.9178.9178,0,0,0,.66-.2314.7947.7947,0,0,0,.2421-.6.828.828,0,0,0-.14-.4519,1.43,1.43,0,0,0-.4912-.4241l-.625-.3572a3.5634,3.5634,0,0,1-1.01-.7422,1.3024,1.3024,0,0,1-.3232-.8816,1.3186,1.3186,0,0,1,.4463-1.0266,1.6112,1.6112,0,0,1,1.1211-.4018,2.1864,2.1864,0,0,1,.65.1115,3.028,3.028,0,0,0,.3985.1116.2879.2879,0,0,0,.1455-.0278.238.238,0,0,0,.0781-.0894h.1338l.0391,1.5569h-.1729a2.5666,2.5666,0,0,0-.3017-.8425,1.1067,1.1067,0,0,0-.9981-.5581.7936.7936,0,0,0-.8379.8037q0,.5135.77.915l.7364.3963q1.1893.6474,1.1884,1.5066a1.3471,1.3471,0,0,1-.4931,1.0769,1.9217,1.9217,0,0,1-1.2891.4184,3.01,3.01,0,0,1-.7578-.1115,3.4353,3.4353,0,0,0-.501-.1116.1652.1652,0,0,0-.1172.0473.3358.3358,0,0,0-.0781.1145h-.1445Z"/><path class="c" d="M148.9012,82.3942a1.42,1.42,0,0,0,.7529-.2036q.1568-.1479.1563-.8008V78.7282a1.7059,1.7059,0,0,0-.05-.5022.3371.3371,0,0,0-.3516-.2288.6528.6528,0,0,0-.12.011c-.0391.0076-.1514.0374-.3379.0894v-.1731l.24-.0781q.9769-.3179,1.3613-.48a.7259.7259,0,0,1,.2012-.0669.3291.3291,0,0,1,.0107.0835V81.39a1.3151,1.3151,0,0,0,.1533.7979,1.1474,1.1474,0,0,0,.6953.2065v.1563h-2.7119Zm.8867-7.4614a.5816.5816,0,0,1,.8233-.0027.5614.5614,0,0,1,.17.4136.58.58,0,1,1-1.16,0A.57.57,0,0,1,149.7879,74.9328Z"/><path class="c" d="M154.7606,77.4057v.4016h-1.1387l-.0107,3.2141a2.1381,2.1381,0,0,0,.0722.6419.5151.5151,0,0,0,.5245.385.63.63,0,0,0,.3486-.095,1.8429,1.8429,0,0,0,.3379-.3013l.1445.1228-.1221.1675a1.7834,1.7834,0,0,1-.6142.5523,1.3942,1.3942,0,0,1-.625.1618.88.88,0,0,1-.8926-.5859,2.42,2.42,0,0,1-.1279-.8816V77.8073h-.6084a.1529.1529,0,0,1-.042-.0334.0644.0644,0,0,1-.0137-.0447.1339.1339,0,0,1,.0244-.0864,1.7558,1.7558,0,0,1,.1592-.1424,4.8644,4.8644,0,0,0,.5557-.5161q.17-.1982.8008-1.0461a.1845.1845,0,0,1,.0859.011c.01.0075.0146.0354.0146.0837v1.3728Z"/><path class="c" d="M159.1122,80.09a12.2362,12.2362,0,0,1,2.0478-.91v-.4744a1.9576,1.9576,0,0,0-.1113-.7922.7952.7952,0,0,0-.7871-.374,1.0842,1.0842,0,0,0-.541.1452.4614.4614,0,0,0-.2569.4129,1.5467,1.5467,0,0,0,.0283.2261,1.5627,1.5627,0,0,1,.0274.2036.4638.4638,0,0,1-.2061.4353.52.52,0,0,1-.2793.0725.4666.4666,0,0,1-.3847-.1648.5668.5668,0,0,1-.1338-.3655,1.1638,1.1638,0,0,1,.4824-.8174,2.0749,2.0749,0,0,1,1.415-.4267,1.518,1.518,0,0,1,1.4668.7029,2.427,2.427,0,0,1,.2071,1.1215v2.2378a1.4751,1.4751,0,0,0,.0449.4463.2907.2907,0,0,0,.3008.2178.5022.5022,0,0,0,.2119-.0391,2.1827,2.1827,0,0,0,.29-.19v.29a1.8193,1.8193,0,0,1-.3847.3571,1.12,1.12,0,0,1-.6358.212.6215.6215,0,0,1-.55-.2454,1.0989,1.0989,0,0,1-.1865-.5859,5.3481,5.3481,0,0,1-.7256.5468,1.9063,1.9063,0,0,1-.9658.3013,1.16,1.16,0,0,1-.8311-.3376,1.1363,1.1363,0,0,1-.3515-.8565A1.589,1.589,0,0,1,159.1122,80.09Zm2.0478-.6306a5.0888,5.0888,0,0,0-1.06.4687,1.3808,1.3808,0,0,0-.8037,1.1272.8564.8564,0,0,0,.335.7476.8106.8106,0,0,0,.4853.1562,1.3373,1.3373,0,0,0,.7061-.2063.6059.6059,0,0,0,.3369-.5246Z"/><path class="c" d="M163.1415,82.4054a1.2734,1.2734,0,0,0,.58-.1452.7613.7613,0,0,0,.2237-.6472V78.7282a.9087.9087,0,0,0-.1094-.5413.4473.4473,0,0,0-.3594-.1284,1,1,0,0,0-.1758.0113.9233.9233,0,0,0-.1367.039v-.1953l.4014-.134c.1455-.0484.3828-.1358.7138-.2622s.5059-.19.5254-.19a.0308.0308,0,0,1,.0332.0278.6188.6188,0,0,1,.0059.106v.7534a4.2444,4.2444,0,0,1,.9541-.6948,1.891,1.891,0,0,1,.8252-.1924,1.15,1.15,0,0,1,.915.3906,1.6936,1.6936,0,0,1,.2959.5747,4.671,4.671,0,0,1,.72-.6194,1.9609,1.9609,0,0,1,1.083-.3459,1.17,1.17,0,0,1,1.1992.7309,3.62,3.62,0,0,1,.1738,1.3057V81.68a.6665.6665,0,0,0,.1758.5385,1.2348,1.2348,0,0,0,.6328.187v.1451h-2.5166v-.1563a1.1,1.1,0,0,0,.6387-.1953.8807.8807,0,0,0,.1533-.6138V79.18a2.0324,2.0324,0,0,0-.1172-.7978.7994.7994,0,0,0-.8086-.4578,1.2807,1.2807,0,0,0-.72.24,3.5814,3.5814,0,0,0-.5078.4465v2.8569a1.2193,1.2193,0,0,0,.1592.6863.8026.8026,0,0,0,.6718.2512v.1451h-2.56v-.1451a1.0213,1.0213,0,0,0,.6748-.2568,1.8478,1.8478,0,0,0,.1445-.9372V79.652a4.1782,4.1782,0,0,0-.1113-1.1806.75.75,0,0,0-.7813-.5469,1.34,1.34,0,0,0-.6689.187,2.1153,2.1153,0,0,0-.5811.4883V81.652a.878.878,0,0,0,.1485.586.9139.9139,0,0,0,.6445.1674v.1451h-2.539Z"/><path class="c" d="M175.8416,77.8605a1.99,1.99,0,0,1,.5918,1.5428H172.89a2.9674,2.9674,0,0,0,.5859,1.8818,1.6364,1.6364,0,0,0,1.2559.59,1.5784,1.5784,0,0,0,.9873-.3062,3.0587,3.0587,0,0,0,.7422-.8684l.1953.0667a3.17,3.17,0,0,1-.8564,1.3134,2.1322,2.1322,0,0,1-1.5372.6038,1.8806,1.8806,0,0,1-1.621-.7925,3.0332,3.0332,0,0,1-.5723-1.8247,2.9713,2.9713,0,0,1,.664-1.9363,2.1286,2.1286,0,0,1,1.73-.8147A1.9716,1.9716,0,0,1,175.8416,77.8605Zm-2.6728.4268a2.2074,2.2074,0,0,0-.2568.7588h2.3545a2.3167,2.3167,0,0,0-.212-.8313.9622.9622,0,0,0-.915-.491A1.0668,1.0668,0,0,0,173.1688,78.2873Z"/><path class="c" d="M179.826,77.4057v.4016h-1.1387l-.0107,3.2141a2.1342,2.1342,0,0,0,.0723.6419.5149.5149,0,0,0,.5244.385.63.63,0,0,0,.3486-.095,1.8364,1.8364,0,0,0,.3379-.3013l.1445.1228-.122.1675a1.7845,1.7845,0,0,1-.6143.5523,1.3942,1.3942,0,0,1-.625.1618.88.88,0,0,1-.8926-.5859,2.42,2.42,0,0,1-.1279-.8816V77.8073h-.6084a.1545.1545,0,0,1-.042-.0334.0644.0644,0,0,1-.0137-.0447.1339.1339,0,0,1,.0245-.0864,1.7634,1.7634,0,0,1,.1591-.1424,4.8558,4.8558,0,0,0,.5557-.5161q.17-.1982.8008-1.0461a.1845.1845,0,0,1,.0859.011q.0147.0112.0147.0837v1.3728Z"/><rect class="a" x="117.2506" y="103.9105" width="40.3289" height="15.2453"/><rect class="a" x="117.2506" y="122.0128" width="40.3289" height="6.8461"/><rect class="a" x="163.6099" y="103.9105" width="62.1199" height="6.8461"/><rect class="d" x="163.6099" y="113.6136" width="62.1199" height="46.8435"/><rect class="a" x="163.6099" y="163.314" width="62.1199" height="21.8165"/><rect class="a" x="117.2506" y="163.314" width="19.3968" height="21.8165"/><path class="c" d="M127,37.0867a3.0494,3.0494,0,0,1,.1055.6192c0,.8564-.962,1.3307-2.2266,1.3307-2.8593,0-5.3625-1.6732-5.3625-2.78a1.1258,1.1258,0,0,1,.0922-.4479c-1.0277.0527-2.3584.2371-2.3584,1.41,0,1.9236,4.5588,4.2951,8.1688,4.2951,2.7668,0,3.465-1.2516,3.465-2.24A2.7172,2.7172,0,0,0,127,37.0867m-1.9895.6983c.7643,0,1.8709-.1582,1.8709-1.0672a.8637.8637,0,0,0-.019-.2092l-.4552-1.9779c-.1055-.4348-.1977-.6325-.9618-1.0146a8.9261,8.9261,0,0,0-2.2662-.8036c-.3558,0-.4611.4611-.8828.4611-.4083,0-.7114-.3425-1.0935-.3425-.3688,0-.6061.25-.79.7641,0,0-.5139,1.4493-.58,1.66a.3835.3835,0,0,0-.0135.1187c0,.5633,2.2182,2.4111,5.1914,2.4111"/><path d="M127,37.0867a3.0494,3.0494,0,0,1,.1055.6192c0,.8564-.962,1.3307-2.2266,1.3307-2.8593,0-5.3625-1.6732-5.3625-2.78a1.1258,1.1258,0,0,1,.0922-.4479l.224-.5535a.3835.3835,0,0,0-.0135.1187c0,.5633,2.2182,2.4111,5.1914,2.4111.7643,0,1.8709-.1582,1.8709-1.0672a.8637.8637,0,0,0-.019-.2092l.1376.5781Z"/><path d="M131.0339,39.3888h1.1055V37.75h.842l.8485,1.639h1.2341l-.99-1.8a1.3614,1.3614,0,0,0,.8485-1.2663,1.4607,1.4607,0,0,0-1.5877-1.4333h-2.301v4.4993Zm2.1982-3.5545a.5114.5114,0,1,1,0,1.0156h-1.0927V35.8343Zm1.7933,1.8576a1.7851,1.7851,0,0,0,1.8511,1.7612,2.04,2.04,0,0,0,1.4205-.5142l-.6877-.6106a.921.921,0,0,1-.6813.2571.8786.8786,0,0,1-.8356-.54h2.4232v-.2571a1.7469,1.7469,0,1,0-3.49-.0965m1.7547-.9127a.7519.7519,0,0,1,.7134.54H136.073a.7083.7083,0,0,1,.7071-.54m4.7178,2.61h1.0285V34.6645l-1.0413.225v1.2791a1.7521,1.7521,0,1,0-.9,3.2653,1.5334,1.5334,0,0,0,.9127-.2957v.2506Zm-1.6261-1.7033a.8609.8609,0,0,1,.8934-.8613,1.0536,1.0536,0,0,1,.72.2635v1.1892a1.0006,1.0006,0,0,1-.72.27.8648.8648,0,0,1-.8934-.8613m4.2127,1.7033H145.19V37.6277h1.8512v1.7611h1.1056V34.89h-1.1056v1.729H145.19V34.89h-1.1056v4.4993Zm5.65.0579a1.5908,1.5908,0,0,0,.9384-.2635v.2056h1.0285V37.21c0-.8292-.5593-1.2856-1.4913-1.2856a3.785,3.785,0,0,0-1.5876.3728l.3728.7649a2.7784,2.7784,0,0,1,1.0284-.27c.4307,0,.6492.1671.6492.5078v.1671a3.0175,3.0175,0,0,0-.7713-.0964c-.8742,0-1.4012.3663-1.4012,1.022a1.1,1.1,0,0,0,1.2341,1.0541m-.3177-1.0734c0-.225.2249-.3343.5656-.3343a2.6134,2.6134,0,0,1,.6171.0772v.4371a1.315,1.315,0,0,1-.6492.1606c-.3343,0-.5335-.1285-.5335-.3406m3.2357-.0193c0,.7263.4372,1.08,1.2342,1.08a3.1949,3.1949,0,0,0,.7264-.1029v-.842a1.5136,1.5136,0,0,1-.4693.0707c-.3278,0-.45-.1029-.45-.4114v-1.292h.9513v-.8677h-.9513V34.89l-1.0414.2249v.8742h-.6877v.8677h.6877V38.354Z"/></svg>