<svg xmlns="http://www.w3.org/2000/svg" xmlns:xlink="http://www.w3.org/1999/xlink" width="555" height="280" viewBox="0 0 555 280"><defs><style>.a{fill:none;}.b{isolation:isolate;}.c,.d{fill:#a7c0e4;}.d{mix-blend-mode:multiply;}.e{fill:#fff;}.f{fill:#0798f2;}.g{fill:#647786;}.h{fill:#647787;}.i{clip-path:url(#a);}.j{fill:#e00;}.k{clip-path:url(#b);}.l{fill:#be0000;}.m{fill:#ed1c24;}</style><clipPath id="a"><rect class="a" x="165.9044" y="92.6005" width="229.2526" height="113.9687" rx="6.0037"/></clipPath><clipPath id="b"><rect class="a" x="159.1742" y="91.5993" width="242.7129" height="116.0801"/></clipPath></defs><g class="b"><rect class="c" width="555" height="280"/><rect class="d" x="147.6273" y="23.487" width="252.569" height="239.9816"/><rect class="e" x="154.5829" y="16.5314" width="252.569" height="239.9816"/><circle class="e" cx="172.5915" cy="34.597" r="8.4894"/><path d="M166.7625,57.3092h2.8262a4.6826,4.6826,0,0,1,2.0615.2837,1.8365,1.8365,0,0,1,.917,1.6255,1.7848,1.7848,0,0,1-1.1562,1.7456v.022a1.7924,1.7924,0,0,1,1.4834,1.8764,2.2241,2.2241,0,0,1-2.3672,2.2364h-3.7647ZM167.8,60.6583h2.0722c1.1787,0,1.6592-.414,1.6592-1.2431,0-1.0913-.7529-1.2334-1.6592-1.2334H167.8Zm0,3.5679h2.5966a1.325,1.325,0,0,0,1.4619-1.3965c0-1.0146-.8183-1.2983-1.6914-1.2983H167.8Z"/><path d="M178.7528,65.0988H177.88v-.8946h-.0224a1.9518,1.9518,0,0,1-1.8321,1.0254c-1.4843,0-1.9423-.8506-1.9423-2.0615v-3.71h.9277V63.277a1.0571,1.0571,0,0,0,1.1455,1.1348,1.5855,1.5855,0,0,0,1.6689-1.7676V59.4586h.9278Z"/><path d="M181.1092,58.444h-.9267V57.3092h.9267Zm-.9267,1.0146h.9267v5.64h-.9267Z"/><path d="M182.5487,57.3092h.9267v7.79h-.9267Z"/><path d="M186.2127,59.4586h1.1241v.8179h-1.1241v3.5024c0,.4361.12.5015.6983.5015h.4258v.8184h-.709c-.96,0-1.3418-.1963-1.3418-1.2324v-3.59h-.96v-.8179h.96V57.7677h.9267Z"/><path d="M193.827,59.3273a2.9594,2.9594,0,1,1-2.7383,2.957A2.6764,2.6764,0,0,1,193.827,59.3273Zm0,5.0845c.9717,0,1.7568-.7637,1.7568-2.1275s-.7851-2.1387-1.7568-2.1387-1.7559.775-1.7559,2.1387S192.8563,64.4118,193.827,64.4118Z"/><path d="M197.6756,59.4586h.8731v.8946h.0215a1.9525,1.9525,0,0,1,1.833-1.0259c1.4834,0,1.9424.8516,1.9424,2.0625v3.709h-.9278V61.28a1.0576,1.0576,0,0,0-1.1455-1.1348,1.585,1.585,0,0,0-1.6689,1.7676v3.1856h-.9278Z"/><path d="M209.2069,59.3273a2.9594,2.9594,0,1,1-2.7383,2.957A2.6764,2.6764,0,0,1,209.2069,59.3273Zm0,5.0845c.9717,0,1.7568-.7637,1.7568-2.1275s-.7851-2.1387-1.7568-2.1387-1.7559.775-1.7559,2.1387S208.2362,64.4118,209.2069,64.4118Z"/><path d="M213.0692,59.4586h.9267v.7637h.0215a1.8892,1.8892,0,0,1,1.8008-.895c1.7344,0,2.5967,1.375,2.5967,2.9678,0,1.6035-.8516,2.9345-2.5752,2.9345a2.1606,2.1606,0,0,1-1.8223-.8833h-.0215v2.9126h-.9267Zm2.6181.687c-1.2548,0-1.7236,1.08-1.7236,2.128,0,1.1015.502,2.1382,1.7783,2.1382,1.2657,0,1.6905-1.08,1.6905-2.1822C217.4325,61.171,216.8875,60.1456,215.6873,60.1456Z"/><path d="M224.3641,63.31a2.258,2.258,0,0,1-2.4111,1.92c-1.8008,0-2.6514-1.2544-2.7061-2.9673a2.71,2.71,0,0,1,2.6514-2.935c1.9961,0,2.6074,1.8662,2.5527,3.23h-4.2217a1.661,1.661,0,0,0,1.7559,1.855,1.3423,1.3423,0,0,0,1.4619-1.1021Zm-.8945-1.5713a1.6234,1.6234,0,0,0-1.626-1.5928,1.6,1.6,0,0,0-1.6143,1.5928Z"/><path d="M225.4862,59.4586h.873v.8946h.0215a1.9527,1.9527,0,0,1,1.833-1.0259c1.4834,0,1.9424.8516,1.9424,2.0625v3.709h-.9277V61.28a1.0576,1.0576,0,0,0-1.1455-1.1348,1.585,1.585,0,0,0-1.669,1.7676v3.1856h-.9277Z"/><path d="M238.4129,61.27a1.3057,1.3057,0,0,0-1.3964-1.1241c-1.3418,0-1.7559,1.0694-1.7559,2.2041,0,1.0474.4687,2.0621,1.6475,2.0621a1.445,1.445,0,0,0,1.5488-1.3746h.9492a2.33,2.33,0,0,1-2.4873,2.1924,2.5609,2.5609,0,0,1-2.6406-2.88c0-1.6914.873-3.0224,2.6621-3.0224a2.1622,2.1622,0,0,1,2.4326,1.9424Z"/><path d="M242.9325,59.3273a2.9594,2.9594,0,1,1-2.7383,2.957A2.6763,2.6763,0,0,1,242.9325,59.3273Zm0,5.0845c.9716,0,1.7568-.7637,1.7568-2.1275s-.7852-2.1387-1.7568-2.1387-1.7559.775-1.7559,2.1387S241.9618,64.4118,242.9325,64.4118Z"/><path d="M246.7811,59.4586h.873v.8946h.0215a1.9527,1.9527,0,0,1,1.833-1.0259c1.4834,0,1.9424.8516,1.9424,2.0625v3.709h-.9277V61.28a1.0576,1.0576,0,0,0-1.1455-1.1348,1.5851,1.5851,0,0,0-1.669,1.7676v3.1856h-.9277Z"/><path d="M252.8465,59.4586h.8731v.8946h.0215a1.9525,1.9525,0,0,1,1.833-1.0259c1.4834,0,1.9424.8516,1.9424,2.0625v3.709h-.9278V61.28a1.0576,1.0576,0,0,0-1.1455-1.1348,1.585,1.585,0,0,0-1.6689,1.7676v3.1856h-.9278Z"/><path d="M263.7235,63.31a2.258,2.258,0,0,1-2.4112,1.92c-1.8007,0-2.6513-1.2544-2.706-2.9673a2.71,2.71,0,0,1,2.6514-2.935c1.9961,0,2.6074,1.8662,2.5527,3.23h-4.2217a1.661,1.661,0,0,0,1.7559,1.855,1.3423,1.3423,0,0,0,1.4619-1.1021Zm-.8945-1.5713a1.6234,1.6234,0,0,0-1.626-1.5928,1.6,1.6,0,0,0-1.6143,1.5928Z"/><path d="M268.71,61.27a1.3057,1.3057,0,0,0-1.3965-1.1241c-1.3418,0-1.7558,1.0694-1.7558,2.2041,0,1.0474.4687,2.0621,1.6474,2.0621a1.4451,1.4451,0,0,0,1.5489-1.3746h.9492a2.33,2.33,0,0,1-2.4873,2.1924,2.5609,2.5609,0,0,1-2.6407-2.88c0-1.6914.8731-3.0224,2.6622-3.0224A2.1622,2.1622,0,0,1,269.67,61.27Z"/><path d="M272.1112,59.4586h1.124v.8179h-1.124v3.5024c0,.4361.12.5015.6982.5015h.4258v.8184h-.709c-.96,0-1.3418-.1963-1.3418-1.2324v-3.59h-.96v-.8179h.96V57.7677h.9268Z"/><path d="M275.1786,58.444h-.9268V57.3092h.9268Zm-.9268,1.0146h.9268v5.64h-.9268Z"/><path d="M279.0506,59.3273a2.9594,2.9594,0,1,1-2.7383,2.957A2.6763,2.6763,0,0,1,279.0506,59.3273Zm0,5.0845c.9717,0,1.7569-.7637,1.7569-2.1275s-.7852-2.1387-1.7569-2.1387-1.7558.775-1.7558,2.1387S278.08,64.4118,279.0506,64.4118Z"/><path d="M282.8993,59.4586h.873v.8946h.0215a1.9526,1.9526,0,0,1,1.833-1.0259c1.4834,0,1.9424.8516,1.9424,2.0625v3.709h-.9277V61.28a1.0576,1.0576,0,0,0-1.1456-1.1348,1.585,1.585,0,0,0-1.6689,1.7676v3.1856h-.9277Z"/><path d="M289.5614,63.3205c.0322.8291.7636,1.0913,1.5166,1.0913.5781,0,1.3633-.1314,1.3633-.84,0-1.4511-3.6875-.4687-3.6875-2.64,0-1.1343,1.1132-1.604,2.1054-1.604,1.2656,0,2.2256.3931,2.3135,1.7676h-.9277c-.0547-.72-.709-.9493-1.3086-.9493-.5567,0-1.2.1534-1.2.72,0,.6547.9814.7856,1.8437.9819.9268.207,1.8438.5234,1.8438,1.6035,0,1.353-1.2549,1.7783-2.4,1.7783-1.2656,0-2.335-.5127-2.39-1.9091Z"/><path d="M295.6942,60.67h-1.211v-1.211h1.211Zm-1.211,3.2182h1.211v1.211h-1.211Z"/><path d="M300.494,57.3092h3.666c1.4727,0,2.3672.7857,2.3672,2.0405a1.8494,1.8494,0,0,1-1.3525,1.9747v.0214c.9052.1748,1.08.8511,1.1679,1.604a3.8827,3.8827,0,0,0,.458,2.149h-1.1562c-.2949-.3164-.1319-1.1563-.2842-1.92-.12-.753-.2949-1.4073-1.2979-1.4073h-2.5312v3.3272H300.494Zm3.1973,3.5894c.96,0,1.8-.251,1.8-1.3858a1.2276,1.2276,0,0,0-1.3858-1.331h-2.5742v2.7168Z"/><path d="M312.6122,63.31a2.258,2.258,0,0,1-2.4112,1.92c-1.8008,0-2.6513-1.2544-2.706-2.9673a2.71,2.71,0,0,1,2.6513-2.935c1.9961,0,2.6075,1.8662,2.5528,3.23h-4.2217a1.661,1.661,0,0,0,1.7558,1.855,1.3424,1.3424,0,0,0,1.462-1.1021Zm-.8946-1.5713a1.6234,1.6234,0,0,0-1.626-1.5928,1.6,1.6,0,0,0-1.6142,1.5928Z"/><path d="M318.8094,65.0988h-.9267v-.7637H317.86a1.8862,1.8862,0,0,1-1.8.8945c-1.7344,0-2.5967-1.374-2.5967-2.9673s.8516-2.935,2.5752-2.935a2.16,2.16,0,0,1,1.8213.8838h.0225V57.3092h.9267Zm-2.6181-.687c1.2548,0,1.7236-1.08,1.7236-2.1275,0-1.102-.502-2.1387-1.7783-2.1387-1.2657,0-1.69,1.08-1.69,2.1822C314.4461,63.3859,314.9911,64.4118,316.1913,64.4118Z"/><path d="M323.4237,57.3092h1.0371v3.3491h4.1015V57.3092H329.6v7.79h-1.0372V61.5314h-4.1015v3.5674h-1.0371Z"/><path d="M336.15,65.0773a1.3077,1.3077,0,0,1-.666.1523c-.4795,0-.7851-.2617-.7851-.8725a2.4694,2.4694,0,0,1-1.9854.8725c-1.0264,0-1.8662-.4472-1.8662-1.5815,0-1.2769.9492-1.56,1.9092-1.7349,1.0146-.207,1.8984-.12,1.8984-.8291,0-.8183-.6758-.9385-1.2549-.9385-.7851,0-1.3632.24-1.4072,1.0694h-.9267c.0537-1.3965,1.123-1.8877,2.3886-1.8877,1.0147,0,2.1172.23,2.1172,1.55v2.9018c0,.4361,0,.6329.294.6329a.9313.9313,0,0,0,.2841-.0547Zm-1.5058-2.8916c-.72.5351-2.8145.0112-2.8145,1.3965,0,.6113.5235.83,1.0908.83,1.2217,0,1.7237-.753,1.7237-1.2769Z"/><path d="M338.2918,59.4586h1.1241v.8179h-1.1241v3.5024c0,.4361.12.5015.6983.5015h.4258v.8184h-.709c-.96,0-1.3418-.1963-1.3418-1.2324v-3.59h-.96v-.8179h.96V57.7677h.9267Z"/><path d="M343.6258,57.3092H346.3c2.3994,0,3.7412,1.211,3.7412,3.71,0,2.6074-1.1455,4.08-3.7412,4.08h-2.6739Zm1.0371,6.917h1.7237c.709,0,2.6181-.1963,2.6181-3.0659,0-1.8545-.6875-2.9785-2.5966-2.9785h-1.7452Z"/><path d="M352.2069,58.444H351.28V57.3092h.9268Zm-.9268,1.0146h.9268v5.64H351.28Z"/><path d="M356.1727,65.0988H355.18l-2.0947-5.64h1.0371l1.5821,4.7022h.0214l1.5381-4.7022h.9717Z"/><path d="M363.7137,63.31a2.2579,2.2579,0,0,1-2.4111,1.92c-1.8008,0-2.6514-1.2544-2.7061-2.9673a2.71,2.71,0,0,1,2.6514-2.935c1.9961,0,2.6074,1.8662,2.5527,3.23H359.579a1.6609,1.6609,0,0,0,1.7558,1.855,1.3423,1.3423,0,0,0,1.4619-1.1021Zm-.8945-1.5713a1.6234,1.6234,0,0,0-1.626-1.5928,1.5993,1.5993,0,0,0-1.6142,1.5928Z"/><path d="M364.8172,59.4586h.8731v1.189h.0224a2.0374,2.0374,0,0,1,2.0723-1.32V60.31c-1.4941,0-2.04.84-2.04,2.28v2.5088h-.9278Z"/><path d="M369.2166,63.3205c.0323.8291.7637,1.0913,1.5166,1.0913.5782,0,1.3633-.1314,1.3633-.84,0-1.4511-3.6875-.4687-3.6875-2.64,0-1.1343,1.1133-1.604,2.1055-1.604,1.2656,0,2.2256.3931,2.3135,1.7676H371.9c-.0546-.72-.7089-.9493-1.3086-.9493-.5566,0-1.2.1534-1.2.72,0,.6547.9814.7856,1.8437.9819.9268.207,1.8438.5234,1.8438,1.6035,0,1.353-1.2549,1.7783-2.4,1.7783-1.2657,0-2.335-.5127-2.39-1.9091Z"/><path d="M375.1043,58.444h-.9267V57.3092h.9267Zm-.9267,1.0146h.9267v5.64h-.9267Z"/><path d="M377.8416,59.4586h1.1241v.8179h-1.1241v3.5024c0,.4361.12.5015.6983.5015h.4258v.8184h-.709c-.96,0-1.3418-.1963-1.3418-1.2324v-3.59h-.96v-.8179h.96V57.7677h.9267Z"/><path d="M382.4305,65.8517c-.4365,1.0908-.8076,1.5059-1.6367,1.5059a1.84,1.84,0,0,1-.6436-.0987v-.8506a1.8968,1.8968,0,0,0,.5459.1309.7864.7864,0,0,0,.7637-.5127l.3818-.96-2.2373-5.6079h1.0479L382.3,64.0734h.0214l1.5821-4.6148h.9824Z"/><path d="M385.1415,63.8878h1.2109V64.99a1.62,1.62,0,0,1-1.2,1.7129v-.5454a1.0432,1.0432,0,0,0,.6328-1.0586h-.6435Z"/><path d="M166.7625,69.7765h5.379V70.65H167.8v2.4765h4.0468v.8726H167.8v2.6948h4.375v.873h-5.4122Z"/><path d="M178.1864,79.7267H177.26V76.8029h-.0224a1.8873,1.8873,0,0,1-1.8.8945c-1.7343,0-2.5966-1.375-2.5966-2.9678s.8515-2.9345,2.5752-2.9345a2.1571,2.1571,0,0,1,1.8213.8838h.0224v-.753h.9268Zm-2.6182-2.8477c1.2549,0,1.7236-1.08,1.7236-2.1274,0-1.102-.5019-2.1382-1.7783-2.1382-1.2656,0-1.69,1.08-1.69,2.1817C173.8231,75.8537,174.368,76.879,175.5682,76.879Z"/><path d="M184.2684,77.5665h-.873V76.672h-.0225a1.9518,1.9518,0,0,1-1.832,1.0254c-1.4844,0-1.9424-.8511-1.9424-2.0625v-3.709h.9277v3.8184a1.057,1.057,0,0,0,1.1455,1.1347,1.5855,1.5855,0,0,0,1.669-1.7675V71.9259h.9277Z"/><path d="M186.6278,70.9113h-.9268V69.7765h.9268Zm-.9268,1.0146h.9268v5.6406h-.9268Z"/><path d="M189.3641,71.9259h1.124v.8184h-1.124v3.5019c0,.4366.12.502.6982.502h.4258v.8183h-.709c-.96,0-1.3418-.1962-1.3418-1.2334V72.7443h-.96v-.8184h.96V70.2345h.9268Z"/><path d="M193.953,78.319c-.4365,1.0913-.8076,1.5054-1.6367,1.5054a1.85,1.85,0,0,1-.6436-.0977v-.8516a1.8977,1.8977,0,0,0,.5459.1314.7856.7856,0,0,0,.7637-.5132l.3818-.96-2.2373-5.6074h1.0479l1.6474,4.6148h.0215l1.582-4.6148h.9825Z"/><path d="M196.6649,76.3556h1.2109v1.1016a1.62,1.62,0,0,1-1.2,1.7129v-.5454a1.0427,1.0427,0,0,0,.6328-1.0582h-.6435Z"/><path d="M207.52,77.5446a1.3082,1.3082,0,0,1-.6661.1528c-.48,0-.7851-.2617-.7851-.873a2.4683,2.4683,0,0,1-1.9854.873c-1.0263,0-1.8662-.4473-1.8662-1.582,0-1.2764.9492-1.5606,1.9092-1.7349,1.0147-.2075,1.8984-.12,1.8984-.8291,0-.8183-.6757-.938-1.2548-.938-.7852,0-1.3633.24-1.4073,1.0689h-.9267c.0537-1.3965,1.123-1.8872,2.3886-1.8872,1.0147,0,2.1172.229,2.1172,1.5488v2.9023c0,.4366,0,.6328.294.6328a.9321.9321,0,0,0,.2842-.0546Zm-1.5059-2.8911c-.72.5341-2.8145.0107-2.8145,1.3964,0,.6109.5235.8291,1.0909.8291,1.2216,0,1.7236-.7529,1.7236-1.2763Z"/><path d="M208.4354,71.9259h.873v.8946h.0215a1.9523,1.9523,0,0,1,1.833-1.0254c1.4834,0,1.9424.85,1.9424,2.0615v3.71h-.9277V73.7477a1.0572,1.0572,0,0,0-1.1455-1.1343,1.5847,1.5847,0,0,0-1.669,1.7671v3.186h-.9277Z"/><path d="M219.56,77.5665h-.9268v-.7636h-.0224a1.8872,1.8872,0,0,1-1.8.8945c-1.7344,0-2.5967-1.375-2.5967-2.9678s.8516-2.9345,2.5752-2.9345a2.1569,2.1569,0,0,1,1.8213.8838h.0224V69.7765h.9268Zm-2.6182-.6875c1.2549,0,1.7237-1.08,1.7237-2.1274,0-1.102-.502-2.1382-1.7784-2.1382-1.2656,0-1.69,1.08-1.69,2.1817C215.1971,75.8537,215.742,76.879,216.9422,76.879Z"/><path d="M224.2186,69.7765h1.0361v7.79h-1.0361Z"/><path d="M226.8036,71.9259h.873v.8946h.0215a1.9522,1.9522,0,0,1,1.833-1.0254c1.4834,0,1.9424.85,1.9424,2.0615v3.71h-.9278V73.7477A1.0572,1.0572,0,0,0,229.4,72.6134a1.5846,1.5846,0,0,0-1.6689,1.7671v3.186h-.9277Z"/><path d="M236.7176,73.737a1.3049,1.3049,0,0,0-1.3965-1.1236c-1.3418,0-1.7558,1.0689-1.7558,2.2036,0,1.0474.4687,2.062,1.6474,2.062a1.4447,1.4447,0,0,0,1.5489-1.375h.9492a2.3307,2.3307,0,0,1-2.4873,2.1934,2.5612,2.5612,0,0,1-2.6406-2.88c0-1.6909.873-3.0219,2.6621-3.0219a2.1616,2.1616,0,0,1,2.4326,1.9419Z"/><path d="M238.8153,69.7765h.9267v7.79h-.9267Z"/><path d="M245.82,77.5665h-.8731V76.672h-.0224a1.9518,1.9518,0,0,1-1.8321,1.0254c-1.4844,0-1.9424-.8511-1.9424-2.0625v-3.709h.9278v3.8184a1.057,1.057,0,0,0,1.1455,1.1347,1.5854,1.5854,0,0,0,1.6689-1.7675V71.9259h.9278Z"/><path d="M247.83,75.7882c.0323.8291.7637,1.0908,1.5166,1.0908.5782,0,1.3633-.1308,1.3633-.84,0-1.4512-3.6875-.47-3.6875-2.6406,0-1.1348,1.1133-1.6035,2.1055-1.6035,1.2656,0,2.2256.3925,2.3135,1.7675h-.9278c-.0547-.7207-.709-.9492-1.3086-.9492-.5566,0-1.2.1524-1.2.72,0,.6543.9815.7857,1.8438.982.9267.2075,1.8437.5239,1.8437,1.604,0,1.3525-1.2549,1.7783-2.4,1.7783-1.2656,0-2.3349-.5127-2.39-1.9092Z"/><path d="M253.7186,70.9113h-.9268V69.7765h.9268Zm-.9268,1.0146h.9268v5.6406h-.9268Z"/><path d="M257.5916,71.7951a2.9594,2.9594,0,1,1-2.7382,2.9565A2.6757,2.6757,0,0,1,257.5916,71.7951Zm0,5.0839c.9717,0,1.7569-.7636,1.7569-2.1274s-.7852-2.1382-1.7569-2.1382-1.7558.7744-1.7558,2.1382S256.6209,76.879,257.5916,76.879Z"/><path d="M261.44,71.9259h.873v.8946h.0215a1.9523,1.9523,0,0,1,1.833-1.0254c1.4834,0,1.9424.85,1.9424,2.0615v3.71h-.9277V73.7477a1.0572,1.0572,0,0,0-1.1455-1.1343,1.5847,1.5847,0,0,0-1.669,1.7671v3.186H261.44Z"/><path d="M267.617,76.3556h1.211v1.2109h-1.211Z"/><path class="f" d="M387.1468,40.4491a8.58,8.58,0,0,1-4.6458-1.3614,6.165,6.165,0,0,0,.723.042,6.0823,6.0823,0,0,0,3.7643-1.2974,3.0341,3.0341,0,0,1-2.8314-2.105,3.0275,3.0275,0,0,0,1.3687-.052,3.032,3.032,0,0,1-2.4316-2.9713l.0007-.0386a3.0091,3.0091,0,0,0,1.3727.3791,3.0331,3.0331,0,0,1-.9382-4.0461,8.6046,8.6046,0,0,0,6.2471,3.1666,3.0327,3.0327,0,0,1,5.165-2.7641,6.0747,6.0747,0,0,0,1.9244-.7357,3.0426,3.0426,0,0,1-1.3327,1.6767,6.0514,6.0514,0,0,0,1.74-.4773,6.1662,6.1662,0,0,1-1.512,1.5694c.0061.13.0087.2605.0087.3918a8.5647,8.5647,0,0,1-8.6234,8.6233"/><path class="g" d="M169.2547,220.2365a7.19,7.19,0,0,0-1.8632,4.2754H166.74a6.9386,6.9386,0,0,1,1.9189-4.2276H166.11v-.5478h3.1445Z"/><path class="g" d="M170.6248,221.73h-.7607v-.76h.7607Zm-.7607,2.021h.7607v.7608h-.7607Z"/><path class="g" d="M172.6834,221.737a.8967.8967,0,0,0,.1309.0068h.123a.8259.8259,0,0,0,.9249-.7944.768.768,0,0,0-.8633-.7813c-.63,0-.918.4863-.918,1.0547h-.582a1.4387,1.4387,0,0,1,1.5-1.5684c.8427,0,1.48.4038,1.48,1.3018a1.0932,1.0932,0,0,1-.6718.9658v.0137a1.1014,1.1014,0,0,1,.8769,1.1782,1.5006,1.5006,0,0,1-1.6719,1.48,1.4653,1.4653,0,0,1-1.6171-1.583h.583a.9875.9875,0,0,0,1.0341,1.0693.9705.9705,0,0,0,1.0557-.9385.9281.9281,0,0,0-1.0351-.9321,2.8375,2.8375,0,0,0-.35.02Z"/><path class="g" d="M178.3485,220.25H176.39l-.2607,1.3975.0136.0137a1.2325,1.2325,0,0,1,.9043-.3491,1.5087,1.5087,0,0,1,1.5694,1.6645,1.5858,1.5858,0,0,1-1.6993,1.6172,1.4261,1.4261,0,0,1-1.5478-1.3906h.582a.9562.9562,0,0,0,1.02.8769A1.0266,1.0266,0,0,0,178,222.9289a1.0519,1.0519,0,0,0-1.0966-1.1026,1.1545,1.1545,0,0,0-.9043.459l-.5-.0278.4521-2.521h2.3975Z"/><path class="g" d="M181.3827,219.62h2.1445a1.4466,1.4466,0,1,1,0,2.8911H182.034v2.001h-.6513Zm.6513,2.3432h1.2744c.7393.0069,1.0684-.3154,1.0684-.8974s-.3291-.8975-1.0684-.8975H182.034Z"/><path class="g" d="M185.8534,219.62h.8906l1.542,4.1108,1.5478-4.1108h.8907v4.8921h-.6163v-4.07h-.0136l-1.5283,4.07h-.5547l-1.5274-4.07h-.0136v4.07h-.6172Z"/><path class="g" d="M194.8993,220.8463a1.2229,1.2229,0,1,1-1.22,1.2193A1.22,1.22,0,0,1,194.8993,220.8463Z"/><path class="g" d="M201.1258,219.5031a2.5728,2.5728,0,1,1-2.3427,2.5625A2.3452,2.3452,0,0,1,201.1258,219.5031Zm0,4.5771c1.1924,0,1.6924-1.0278,1.6924-2.0146s-.5-2.0142-1.6924-2.0142-1.6924,1.0278-1.6924,2.0142S199.9334,224.08,201.1258,224.08Z"/><path class="g" d="M206.7293,222.1066a.8189.8189,0,0,0-.8769-.7051c-.8418,0-1.1026.6709-1.1026,1.3838,0,.6572.295,1.2949,1.0342,1.2949a.9083.9083,0,0,0,.9737-.8633h.5957a1.4636,1.4636,0,0,1-1.5625,1.377,1.6079,1.6079,0,0,1-1.6573-1.8086,1.6693,1.6693,0,0,1,1.6709-1.898,1.3579,1.3579,0,0,1,1.5284,1.2193Z"/><path class="g" d="M208.9852,220.97h.7051v.5136h-.7051v2.1993c0,.2739.0752.3149.4385.3149h.2666v.5142h-.4453c-.6026,0-.8418-.1236-.8418-.7745v-2.2539H207.8V220.97h.6035v-1.0625h.582Z"/><path class="g" d="M215.0243,220.25h-1.959l-.2608,1.3975.0137.0137a1.2325,1.2325,0,0,1,.9043-.3491,1.5086,1.5086,0,0,1,1.5693,1.6645,1.5857,1.5857,0,0,1-1.6992,1.6172,1.426,1.426,0,0,1-1.5478-1.3906h.582a.9562.9562,0,0,0,1.02.8769,1.0266,1.0266,0,0,0,1.0283-1.1513,1.0519,1.0519,0,0,0-1.0966-1.1026,1.1545,1.1545,0,0,0-.9043.459l-.5-.0278.4521-2.521h2.3975Z"/><path class="g" d="M216.2186,223.7511h.7607v.6919a1.0169,1.0169,0,0,1-.7539,1.0757v-.3428a.6549.6549,0,0,0,.3975-.664h-.4043Z"/><path class="g" d="M219.7655,221.3737a1.5024,1.5024,0,0,1,1.5615-1.7193,1.3827,1.3827,0,0,1,1.5215,1.3975,1.9569,1.9569,0,0,1-1.1787,1.665c-.6026.3628-1.2539.6846-1.3633,1.2808h2.4941v.5142h-3.1728a2.2953,2.2953,0,0,1,1.3633-1.9873c.8222-.5137,1.24-.8013,1.24-1.48a.8851.8851,0,0,0-.9385-.877c-.6777,0-.9658.6231-.9453,1.2056Z"/><path class="g" d="M225.2166,219.6544c1.5215,0,1.6172,1.4043,1.6172,2.4727s-.0957,2.4668-1.6172,2.4668-1.6162-1.3975-1.6162-2.4668S223.6961,219.6544,225.2166,219.6544Zm0,4.4258c.9942,0,1.001-1.2334,1.001-1.96,0-.7188-.0068-1.9522-1.001-1.9522s-1,1.2334-1,1.9522C224.2166,222.8468,224.2235,224.08,225.2166,224.08Z"/><path class="g" d="M227.5663,221.3737a1.5024,1.5024,0,0,1,1.5615-1.7193,1.3827,1.3827,0,0,1,1.5215,1.3975,1.9569,1.9569,0,0,1-1.1787,1.665c-.6026.3628-1.254.6846-1.3633,1.2808h2.4941v.5142h-3.1728a2.2954,2.2954,0,0,1,1.3632-1.9873c.8223-.5137,1.24-.8013,1.24-1.48a.8851.8851,0,0,0-.9385-.877c-.6777,0-.9658.6231-.9453,1.2056Z"/><path class="g" d="M233.0174,219.6544c1.5215,0,1.6172,1.4043,1.6172,2.4727s-.0957,2.4668-1.6172,2.4668-1.6162-1.3975-1.6162-2.4668S231.4969,219.6544,233.0174,219.6544Zm0,4.4258c.9942,0,1.001-1.2334,1.001-1.96,0-.7188-.0068-1.9522-1.001-1.9522s-1,1.2334-1,1.9522C232.0174,222.8468,232.0243,224.08,233.0174,224.08Z"/><path class="h" d="M170.0608,237.9787l0,0-1.44-.0033H168.62a2.68,2.68,0,0,0-2.7091,2.7093,2.5718,2.5718,0,0,0,2.5927,2.5594v1.3294a.2978.2978,0,0,0,.041.14.26.26,0,0,0,.3595.0794c.0915-.0584,2.2477-1.4373,2.8087-1.9121a2.9331,2.9331,0,0,0,1.0567-2.1918v-.0058A2.68,2.68,0,0,0,170.0608,237.9787Zm1.3153,4.5047c-.394.3334-1.6886,1.1826-2.3519,1.6124V242.989a.2605.2605,0,0,0-.2605-.26h-.138a2.0533,2.0533,0,0,1-2.1942-2.044,2.1649,2.1649,0,0,1,2.1881-2.1884l1.44.0034h.0007a2.1651,2.1651,0,0,1,2.1884,2.1864A2.408,2.408,0,0,1,171.3761,242.4834Z"/><path class="h" d="M233.4386,242.6853a.26.26,0,0,0-.3683,0l-.8838.8836v-3.7815a1.3038,1.3038,0,0,0-1.3023-1.3023H228.575a.26.26,0,0,0,0,.5209h2.3092a.7824.7824,0,0,1,.7814.7814v3.7814l-.8835-.8835a.26.26,0,0,0-.3683.3683l1.3281,1.3282a.26.26,0,0,0,.3683,0l1.3284-1.3282A.26.26,0,0,0,233.4386,242.6853Z"/><path class="h" d="M229.4324,244.0067h-2.31a.7824.7824,0,0,1-.7814-.7814v-3.7817l.8838.8838a.26.26,0,0,0,.3683-.3683l-1.3284-1.3284a.26.26,0,0,0-.3683,0l-1.3284,1.3284a.26.26,0,0,0,.3683.3683l.8838-.8838v3.7817a1.3038,1.3038,0,0,0,1.3023,1.3023h2.31a.26.26,0,0,0,0-.5209Z"/><path class="h" d="M355.1552,239.7387l-1.6675-1.6674a.25.25,0,0,0-.3537,0l-1.6675,1.6674a.25.25,0,0,0,.3537.3537l1.24-1.24V242.25a.25.25,0,0,0,.5,0v-3.3981l1.24,1.24a.25.25,0,0,0,.3537-.3537Z"/><path class="h" d="M355.8814,244.5659H350.74a.7652.7652,0,0,1-.7644-.7643v-1.8851a.25.25,0,1,1,.5,0v1.8851a.2646.2646,0,0,0,.2642.2641h5.1411a.2645.2645,0,0,0,.2641-.2641v-1.8851a.25.25,0,0,1,.5,0v1.8851A.7653.7653,0,0,1,355.8814,244.5659Z"/><path class="h" d="M291.0149,244.7143H291.01c-.897-.0166-3.4853-2.3549-3.4853-4.57a1.9914,1.9914,0,0,1,1.8765-1.9985,2.0331,2.0331,0,0,1,1.6136.9475,2.0321,2.0321,0,0,1,1.6132-.9475,1.9915,1.9915,0,0,1,1.8768,1.9985c0,2.2146-2.5883,4.5529-3.4853,4.57Zm-1.6136-6.0471a1.4579,1.4579,0,0,0-1.3556,1.4776c0,1.9938,2.4425,4.0269,2.9692,4.0486.5266-.0217,2.9691-2.0548,2.9691-4.0486a1.458,1.458,0,0,0-1.3559-1.4776c-.878,0-1.368,1.0194-1.3725,1.03a.271.271,0,0,1-.4815,0C290.77,239.6866,290.28,238.6672,289.4013,238.6672Z"/><g class="i"><rect class="j" x="159.1742" y="91.5993" width="242.7129" height="116.0801"/><path class="e" d="M226.6473,152.693c1.377,0,2.3145.7617,2.3145,1.875a1.6862,1.6862,0,0,1-.84,1.4356,1.7229,1.7229,0,0,1,1.0742,1.5429c0,1.1914-.957,1.9824-2.3925,1.9824h-3.3692V152.693Zm-1.7969,1.1719v1.6211h1.709c.6055,0,.9961-.3125.9961-.8106s-.3906-.81-.9961-.81Zm2.92,3.6035c0-.5273-.42-.8789-1.0743-.8789H224.85v1.7676h1.8457C227.35,158.3571,227.77,158.0153,227.77,157.4684Z"/><path class="e" d="M231.3006,157.4a1,1,0,0,0,1.0547,1.0743,1.2245,1.2245,0,0,0,1.0547-.5079v-3.5253h1.3379v5.0878H233.41v-.41a2.1662,2.1662,0,0,1-1.4355.5078,1.9382,1.9382,0,0,1-2.0118-2.0312v-3.1543h1.3379Z"/><path class="e" d="M235.6991,153.0739a.7617.7617,0,1,1,.7617.7617A.7626.7626,0,0,1,235.6991,153.0739Zm1.4355,6.455h-1.3379v-5.0878h1.3379Z"/><path class="e" d="M239.5184,159.5289h-1.3379V152.693l1.3379-.293Z"/><path class="e" d="M241.2586,155.5641h-1.0449v-1.123h1.0449v-1.2989l1.3379-.3027v1.6016h1.4453v1.123h-1.4453V157.82c0,.4785.1856.6543.7032.6543a2.0572,2.0572,0,0,0,.7128-.1172v1.0937a4.15,4.15,0,0,1-1.0351.1563c-1.1328,0-1.7188-.5176-1.7188-1.5137Z"/><path class="e" d="M249.1532,154.3434a2.6426,2.6426,0,1,1-2.7149,2.6465A2.6519,2.6519,0,0,1,249.1532,154.3434Zm1.4062,2.6465a1.4078,1.4078,0,1,0-1.4062,1.4746A1.4254,1.4254,0,0,0,250.5594,156.99Z"/><path class="e" d="M252.6932,154.4411h1.3379v.4a2.1842,2.1842,0,0,1,1.4258-.498,1.93,1.93,0,0,1,2.0117,2.0215v3.164h-1.3379V156.56a.9921.9921,0,0,0-1.0547-1.0645,1.2187,1.2187,0,0,0-1.0449.5079v3.5253h-1.3379Z"/><path class="e" d="M262.9325,154.3434a2.6426,2.6426,0,1,1-2.7149,2.6465A2.6519,2.6519,0,0,1,262.9325,154.3434Zm1.4062,2.6465a1.4078,1.4078,0,1,0-1.4062,1.4746A1.4254,1.4254,0,0,0,264.3387,156.99Z"/><path class="e" d="M266.4715,154.4411H267.79v.42a2.3069,2.3069,0,0,1,1.4453-.4883,2.6124,2.6124,0,0,1-.0391,5.2246,2.5286,2.5286,0,0,1-1.3867-.4V161.57h-1.3379Zm1.3379,1.5527v2.0019a1.7135,1.7135,0,0,0,1.211.4688,1.4746,1.4746,0,1,0,0-2.9492A1.6408,1.6408,0,0,0,267.8094,155.9938Z"/><path class="e" d="M275.1873,159.6266a2.6487,2.6487,0,0,1-2.7343-2.6367,2.5971,2.5971,0,0,1,2.6172-2.6367,2.568,2.568,0,0,1,2.5195,2.7343v.3516h-3.7891a1.466,1.466,0,0,0,1.4453,1.0645,1.6016,1.6016,0,0,0,1.1231-.41l.8789.8008A3.05,3.05,0,0,1,275.1873,159.6266Zm-1.3964-3.1445h2.49a1.3125,1.3125,0,0,0-1.24-1.0254A1.2778,1.2778,0,0,0,273.7909,156.4821Z"/><path class="e" d="M278.4139,154.4411h1.3379v.4a2.1842,2.1842,0,0,1,1.4258-.498,1.93,1.93,0,0,1,2.0117,2.0215v3.164h-1.3379V156.56a.9921.9921,0,0,0-1.0547-1.0645,1.2187,1.2187,0,0,0-1.0449.5079v3.5253h-1.3379Z"/><path class="e" d="M289.8739,157.8883l.8008.83a2.824,2.824,0,0,1-2.07.9082,2.6417,2.6417,0,1,1,0-5.2832,2.8616,2.8616,0,0,1,2.1094.9082l-.82.8691a1.6513,1.6513,0,0,0-1.26-.6152,1.4778,1.4778,0,0,0,.0293,2.9492A1.5792,1.5792,0,0,0,289.8739,157.8883Z"/><path class="e" d="M293.6571,154.3434a2.6426,2.6426,0,1,1-2.7149,2.6465A2.6519,2.6519,0,0,1,293.6571,154.3434Zm1.4062,2.6465a1.4078,1.4078,0,1,0-1.4062,1.4746A1.4254,1.4254,0,0,0,295.0633,156.99Z"/><path class="e" d="M297.1961,154.4411h1.3379v.4a2.1846,2.1846,0,0,1,1.4258-.498,1.93,1.93,0,0,1,2.0117,2.0215v3.164h-1.3379V156.56a.9921.9921,0,0,0-1.0546-1.0645,1.2188,1.2188,0,0,0-1.045.5079v3.5253h-1.3379Z"/><path class="e" d="M302.9911,154.4411h1.3379v.4a2.1841,2.1841,0,0,1,1.4257-.498,1.93,1.93,0,0,1,2.0118,2.0215v3.164h-1.3379V156.56a.9921.9921,0,0,0-1.0547-1.0645,1.2186,1.2186,0,0,0-1.0449.5079v3.5253h-1.3379Z"/><path class="e" d="M311.286,159.6266a2.6487,2.6487,0,0,1-2.7344-2.6367,2.5971,2.5971,0,0,1,2.6172-2.6367,2.568,2.568,0,0,1,2.52,2.7343v.3516h-3.789a1.4659,1.4659,0,0,0,1.4453,1.0645,1.6015,1.6015,0,0,0,1.123-.41l.8789.8008A3.05,3.05,0,0,1,311.286,159.6266Zm-1.3965-3.1445h2.49a1.3125,1.3125,0,0,0-1.24-1.0254A1.2779,1.2779,0,0,0,309.89,156.4821Z"/><path class="e" d="M318.2528,157.8883l.8008.83a2.824,2.824,0,0,1-2.07.9082,2.6417,2.6417,0,1,1,0-5.2832,2.8616,2.8616,0,0,1,2.1094.9082l-.82.8691a1.6513,1.6513,0,0,0-1.26-.6152,1.4778,1.4778,0,0,0,.0293,2.9492A1.5791,1.5791,0,0,0,318.2528,157.8883Z"/><path class="e" d="M320.5418,155.5641h-1.0449v-1.123h1.0449v-1.2989l1.3379-.3027v1.6016h1.4453v1.123H321.88V157.82c0,.4785.1856.6543.7032.6543a2.0572,2.0572,0,0,0,.7128-.1172v1.0937a4.15,4.15,0,0,1-1.0351.1563c-1.1328,0-1.7188-.5176-1.7188-1.5137Z"/><path class="e" d="M323.8944,153.0739a.7617.7617,0,1,1,.7617.7617A.7626.7626,0,0,1,323.8944,153.0739Zm1.4355,6.455H323.992v-5.0878H325.33Z"/><path class="e" d="M328.8573,154.3434a2.6426,2.6426,0,1,1-2.7149,2.6465A2.6519,2.6519,0,0,1,328.8573,154.3434Zm1.4062,2.6465a1.4078,1.4078,0,1,0-1.4062,1.4746A1.4254,1.4254,0,0,0,330.2635,156.99Z"/><path class="e" d="M332.3963,154.4411h1.3379v.4a2.1844,2.1844,0,0,1,1.4258-.498,1.93,1.93,0,0,1,2.0117,2.0215v3.164h-1.3379V156.56a.9921.9921,0,0,0-1.0547-1.0645,1.2187,1.2187,0,0,0-1.0449.5079v3.5253h-1.3379Z"/><path class="e" d="M338.4256,158.0348a2.963,2.963,0,0,0,1.65.5762c.5957,0,.9863-.2149.9863-.5371,0-.2637-.1953-.41-.6347-.4785l-.9766-.1465c-1.0058-.1563-1.5429-.6543-1.5429-1.4746,0-.9864.82-1.6114,2.1191-1.6114a3.7531,3.7531,0,0,1,2.09.6348l-.6445.8594a3.0031,3.0031,0,0,0-1.5723-.4883c-.4882,0-.8007.1953-.8007.498,0,.2735.1953.41.6933.4786l.9766.1464c.9961.1465,1.5527.6641,1.5527,1.4551,0,.957-.9473,1.68-2.2265,1.68a3.7492,3.7492,0,0,1-2.334-.7031Z"/><path class="e" d="M246.8207,133.7616h-1.1474v1.3163h1.1474a.7825.7825,0,0,0,.5681-.1913.6517.6517,0,0,0,0-.9337.7825.7825,0,0,0-.5681-.1913Zm-1.738,3.42v-3.9375h1.7887a1.5818,1.5818,0,0,1,.5484.09,1.2338,1.2338,0,0,1,.4134.2447,1.0439,1.0439,0,0,1,.2588.3684,1.1769,1.1769,0,0,1,.09.4613,1.0713,1.0713,0,0,1-.2193.6694,1.2,1.2,0,0,1-.5906.4106l.8774,1.6931h-.6524l-.8157-1.6144h-1.108v1.6144Z"/><path class="e" d="M249.8414,134.746a.81.81,0,0,0-.5625.2137.9515.9515,0,0,0-.2981.5513H250.68a.9422.9422,0,0,0-.2925-.5456.7779.7779,0,0,0-.5456-.2194Zm-1.4231,1.0012a1.508,1.508,0,0,1,.11-.5737,1.4294,1.4294,0,0,1,.7593-.7847,1.3869,1.3869,0,0,1,.5653-.1153,1.3339,1.3339,0,0,1,.9871.43,1.4988,1.4988,0,0,1,.29.4753,1.6225,1.6225,0,0,1,.1068.5906v.1632h-2.2612a.9679.9679,0,0,0,.9674.8212,1.1916,1.1916,0,0,0,.4-.0675.9879.9879,0,0,0,.3262-.1857l.36.3544a1.7666,1.7666,0,0,1-.52.2869,1.8344,1.8344,0,0,1-.5878.09,1.53,1.53,0,0,1-1.0687-.4275,1.4134,1.4134,0,0,1-.3178-.47,1.493,1.493,0,0,1-.1153-.5878Z"/><path class="e" d="M252.2038,135.7416a.9676.9676,0,0,0,.2841.7087.9332.9332,0,0,0,.689.2869,1.067,1.067,0,0,0,.45-.0928,1.0286,1.0286,0,0,0,.3432-.25v-1.2994a.994.994,0,0,0-.3432-.2447,1.0937,1.0937,0,0,0-.45-.0928.933.933,0,0,0-.6946.2841.9614.9614,0,0,0-.2785.7Zm1.7719,1.44v-.27a1.3224,1.3224,0,0,1-.405.2334,1.3783,1.3783,0,0,1-.4725.0816,1.406,1.406,0,0,1-.5681-.1153,1.4262,1.4262,0,0,1-.4585-.315,1.48,1.48,0,0,1-.3066-.4725,1.5,1.5,0,0,1-.1124-.5766,1.4975,1.4975,0,0,1,.419-1.0434,1.4211,1.4211,0,0,1,.4612-.315,1.4962,1.4962,0,0,1,1.0379-.0422,1.4,1.4,0,0,1,.3994.2081v-1.3106l.5624-.1237v4.0612Z"/><polygon class="e" points="256.434 137.182 256.434 133.244 257.024 133.244 257.024 134.932 259.117 134.932 259.117 133.244 259.707 133.244 259.707 137.182 259.117 137.182 259.117 135.466 257.024 135.466 257.024 137.182 256.434 137.182 256.434 137.182"/><path class="e" d="M260.7817,136.3491a.3977.3977,0,0,0,.18.3375.7708.7708,0,0,0,.4613.1293,1.2434,1.2434,0,0,0,.4162-.0675,1.0249,1.0249,0,0,0,.3431-.2024v-.5007a1.38,1.38,0,0,0-.3374-.1265,1.7549,1.7549,0,0,0-.3995-.0422.8459.8459,0,0,0-.4781.1238.3955.3955,0,0,0-.1856.3487Zm.5119.8831a1.1437,1.1437,0,0,1-.7594-.2447.7809.7809,0,0,1-.2925-.6272.7344.7344,0,0,1,.329-.65,1.4516,1.4516,0,0,1,.83-.2222,1.9625,1.9625,0,0,1,.4078.0422,2.075,2.075,0,0,1,.3741.1153v-.3038a.5631.5631,0,0,0-.18-.4556.7822.7822,0,0,0-.5176-.1518,1.5437,1.5437,0,0,0-.4247.0618,3.0092,3.0092,0,0,0-.464.18l-.2082-.4219a3.62,3.62,0,0,1,.5907-.2165,2.2722,2.2722,0,0,1,.585-.076,1.2843,1.2843,0,0,1,.8606.2644.9444.9444,0,0,1,.3093.7594v1.8956h-.5512v-.2475a1.2638,1.2638,0,0,1-.4078.225,1.5318,1.5318,0,0,1-.4809.0731Z"/><path class="e" d="M263.6448,136.4728V134.791h-.6075v-.4725h.6075v-.7313l.5568-.1349v.8662h.8438v.4725h-.8438v1.5525a.4051.4051,0,0,0,.0985.3093.4721.4721,0,0,0,.3234.09,1.4027,1.4027,0,0,0,.2137-.014,1.0316,1.0316,0,0,0,.1969-.0535v.4725a1.6052,1.6052,0,0,1-.2644.0619,1.7977,1.7977,0,0,1-.27.0225.93.93,0,0,1-.6356-.1941.7149.7149,0,0,1-.2193-.5653Z"/><path class="e" d="M245.8533,139.8759v2.4862h.6919a1.2431,1.2431,0,1,0,0-2.4862Zm-.8156-.7257h1.5131a1.9718,1.9718,0,1,1,0,3.9375h-1.5131V139.15Z"/><path class="e" d="M249.8975,143.0877h-.7706v-2.9306h.7706v2.9306Zm-.8268-3.7181a.4388.4388,0,1,1,.4387.4388.443.443,0,0,1-.4387-.4388Z"/><polygon class="e" points="250.19 140.157 251.028 140.157 251.833 142.109 252.631 140.157 253.452 140.157 252.193 143.088 251.45 143.088 250.19 140.157 250.19 140.157"/><path class="e" d="M254.2794,141.3327h1.4343a.7449.7449,0,0,0-.7144-.5906.7359.7359,0,0,0-.72.5906Zm.7369-1.2262a1.4792,1.4792,0,0,1,1.4512,1.5749v.2025H254.285a.8443.8443,0,0,0,.8325.6132.9222.9222,0,0,0,.6469-.2363l.5062.4613a1.7567,1.7567,0,0,1-1.1868.4219,1.5257,1.5257,0,0,1-1.5751-1.5188,1.496,1.496,0,0,1,1.5076-1.5187Z"/><path class="e" d="M256.9287,140.1571h.7706v.3206a.9541.9541,0,0,1,.7819-.3881.6641.6641,0,0,1,.3206.0675v.675a.9264.9264,0,0,0-.3937-.0788.7782.7782,0,0,0-.7088.4332v1.9012h-.7706v-2.9306Z"/><path class="e" d="M259.398,142.2271a1.6763,1.6763,0,0,0,.95.3319c.3994,0,.5682-.1519.5682-.3094,0-.1518-.1069-.2363-.3656-.2757l-.5625-.0843c-.5906-.0843-.8888-.3881-.8888-.8494,0-.585.495-.9281,1.2206-.9281a2.17,2.17,0,0,1,1.2038.3656l-.3712.495a1.7261,1.7261,0,0,0-.9057-.2812c-.2644,0-.4613.1012-.4613.2868,0,.1575.1069.2363.3994.2757l.5625.0843c.5963.09.8944.3938.8944.8381,0,.5738-.5681.9676-1.2825.9676a2.1778,2.1778,0,0,1-1.3444-.405l.3826-.5119Z"/><path class="e" d="M262.7841,143.0877h-.7706v-2.9306h.7706v2.9306Zm-.8268-3.7181a.4388.4388,0,1,1,.4387.4388.443.443,0,0,1-.4387-.4388Z"/><path class="e" d="M263.78,140.804h-.6018v-.6469h.6018v-.7482l.7706-.1743v.9225h.8326v.6469H264.55v1.2993c0,.2757.1069.377.4051.377a1.2827,1.2827,0,0,0,.4106-.0675v.63a2.4677,2.4677,0,0,1-.5963.09c-.6413,0-.99-.2925-.99-.8719V140.804Z"/><path class="e" d="M266.66,143.1159l-1.1418-2.9588h.8493l.7257,1.9968.8324-1.9968h.8326l-1.3443,3.1444c-.2869.6637-.6132.9787-1.3.9787a1.7586,1.7586,0,0,1-.3431-.0281v-.6637a1.192,1.192,0,0,0,.2644.0225.59.59,0,0,0,.585-.3994l.0393-.0956Z"/><path class="e" d="M271.3226,142.5871a1.121,1.121,0,0,0,.6469-.1857v-.4387a1.7371,1.7371,0,0,0-.6187-.1069c-.3376,0-.5625.13-.5625.3656,0,.2251.208.3657.5343.3657Zm-1.2713-.3487c0-.5738.4725-.8888,1.2038-.8888a2.2643,2.2643,0,0,1,.7144.1125v-.2081c0-.3432-.2081-.5119-.6187-.5119a2.2746,2.2746,0,0,0-.8945.2419l-.2812-.5682a3.082,3.082,0,0,1,1.305-.315c.7819,0,1.2487.3825,1.2487,1.0857v1.9012H271.97V142.88a1.3727,1.3727,0,0,1-.8494.2587.9491.9491,0,0,1-1.0688-.9Z"/><path class="e" d="M273.3137,140.1571h.7707v.2362a1.2224,1.2224,0,0,1,.8212-.2925,1.1119,1.1119,0,0,1,1.1588,1.1644v1.8225h-.765v-1.71a.5758.5758,0,0,0-.6131-.6131.6886.6886,0,0,0-.6019.2925v2.0306h-.7707v-2.9306Z"/><path class="e" d="M278.14,142.4689a.94.94,0,0,0,.6975-.2812v-1.1419a.9914.9914,0,0,0-.6975-.2756.8494.8494,0,1,0,0,1.6987Zm.7088.3769a1.3292,1.3292,0,0,1-.8326.2812,1.5047,1.5047,0,1,1,.8213-2.7787V139.15l.7706-.1688v4.1063h-.7593v-.2419Z"/><polygon class="e" points="281.385 139.15 282.201 139.15 282.201 143.088 281.385 143.088 281.385 139.15 281.385 139.15"/><path class="e" d="M282.8533,140.1571h.7707v.2362a1.2224,1.2224,0,0,1,.8212-.2925,1.1118,1.1118,0,0,1,1.1587,1.1644v1.8225h-.7649v-1.71a.5759.5759,0,0,0-.6132-.6131.6884.6884,0,0,0-.6018.2925v2.0306h-.7707v-2.9306Z"/><path class="e" d="M288.3319,142.1427l.4613.4782a1.6177,1.6177,0,0,1-1.1925.5231,1.5217,1.5217,0,1,1,0-3.0432,1.6484,1.6484,0,0,1,1.215.5232l-.4725.5006a.95.95,0,0,0-.7257-.3544.8512.8512,0,0,0,.0169,1.6987.9283.9283,0,0,0,.6975-.3262Z"/><polygon class="e" points="289.952 143.088 289.181 143.088 289.181 139.15 289.952 138.981 289.952 143.088 289.952 143.088"/><path class="e" d="M291.3018,141.8671a.5758.5758,0,0,0,.6132.6132.6886.6886,0,0,0,.6018-.2926v-2.0306h.771v2.9306h-.771v-.2363a1.2222,1.2222,0,0,1-.8212.2926,1.1119,1.1119,0,0,1-1.1588-1.1644v-1.8225h.765v1.71Z"/><path class="e" d="M294.0184,142.2271a1.6769,1.6769,0,0,0,.9506.3319c.3994,0,.5681-.1519.5681-.3094,0-.1518-.1069-.2363-.3656-.2757l-.5625-.0843c-.5906-.0843-.8888-.3881-.8888-.8494,0-.585.495-.9281,1.2207-.9281a2.17,2.17,0,0,1,1.2037.3656l-.3713.495a1.7254,1.7254,0,0,0-.9056-.2812c-.2643,0-.4612.1012-.4612.2868,0,.1575.1069.2363.3994.2757l.5625.0843c.5962.09.8943.3938.8943.8381,0,.5738-.5681.9676-1.2825.9676a2.1773,2.1773,0,0,1-1.3443-.405l.3825-.5119Z"/><path class="e" d="M297.4046,143.0877h-.7706v-2.9306h.7706v2.9306Zm-.8269-3.7181a.4388.4388,0,1,1,.4387.4388.443.443,0,0,1-.4387-.4388Z"/><path class="e" d="M299.43,140.77a.8533.8533,0,1,0,.81.855.8245.8245,0,0,0-.81-.855Zm0-.6694a1.5222,1.5222,0,1,1-1.5637,1.5244,1.5275,1.5275,0,0,1,1.5637-1.5244Z"/><path class="e" d="M301.4545,140.1571h.7706v.2362a1.2227,1.2227,0,0,1,.8213-.2925,1.1119,1.1119,0,0,1,1.1587,1.1644v1.8225h-.765v-1.71a.5757.5757,0,0,0-.6131-.6131.6886.6886,0,0,0-.6019.2925v2.0306h-.7706v-2.9306Z"/><path class="e" d="M234.0365,138.2762a3.514,3.514,0,0,1,.1212.7124c0,.9852-1.1064,1.5308-2.5615,1.5308-3.289,0-6.1689-1.9249-6.1689-3.1981a1.2968,1.2968,0,0,1,.1061-.5153c-1.1822.0606-2.7131.2728-2.7131,1.6218,0,2.2129,5.2443,4.9412,9.3974,4.9412,3.1829,0,3.9862-1.44,3.9862-2.5767a3.126,3.126,0,0,0-2.1674-2.5161Zm-2.2887.8033c.8791,0,2.1523-.1819,2.1523-1.2277a.99.99,0,0,0-.0219-.24l-.5238-2.2755c-.1213-.5-.2273-.7276-1.1064-1.1671a10.2628,10.2628,0,0,0-2.6071-.9246c-.4092,0-.53.53-1.0155.53-.47,0-.8184-.3941-1.258-.3941-.4244,0-.6972.288-.9094.8791,0,0-.5911,1.6673-.6669,1.91a.4391.4391,0,0,0-.0155.1364c0,.6479,2.5517,2.7737,5.9722,2.7737Z"/><path class="e" d="M240.6421,143.8963a.1582.1582,0,0,1-.1582-.1582V132.8926a.1582.1582,0,0,1,.3164,0v10.8455a.1582.1582,0,0,1-.1582.1582Z"/><g class="k"><path class="l" d="M356.1765,81.9662a13.8315,13.8315,0,0,0-13.9383,14.0423c0,7.9052,6.345,14.0422,14.5624,14.0422a16.243,16.243,0,0,0,10.9738-3.9007l-4.6808-4.2646a8.53,8.53,0,0,1-5.9809,2.1843,7.8073,7.8073,0,0,1-7.6973-5.6688h20.1793V96.5285C369.5947,88.2072,363.8737,81.9662,356.1765,81.9662Zm6.449,11.3378h-.14a1.8318,1.8318,0,0,1-2.6435,0H349.3634c.8841-3.3286,3.3806-5.4609,6.6571-5.4609a6.5191,6.5191,0,0,1,4.9934,2.3677,1.831,1.831,0,0,1,1.5773,2.9723C362.6028,93.2233,362.6144,93.2635,362.6255,93.304Z"/><path class="l" d="M337.9371,109.5306h.1415v-.1653A1.8273,1.8273,0,0,1,337.9371,109.5306Z"/><path class="l" d="M335.2963,109.5306a1.8312,1.8312,0,1,1,2.7823-2.3715V92.68c0-6.345-4.4207-10.7658-10.7137-10.7658a11.6313,11.6313,0,0,0-7.5933,2.6525V82.4342h-7.1251v27.0964h7.1251V90.7556a6.491,6.491,0,0,1,5.565-2.7044,5.2833,5.2833,0,0,1,5.6168,5.6689v15.8105Z"/><path class="l" d="M242.9565,91.38l4.3687-4.6287a14.5128,14.5128,0,0,0-3.1211-2.5674A1.8314,1.8314,0,0,1,241.02,82.707a15.696,15.696,0,0,0-4.9286-.7929,14.0689,14.0689,0,1,0,0,28.1366,15.0392,15.0392,0,0,0,11.0258-4.8368l-4.2647-4.4206a8.4092,8.4092,0,0,1-6.449,3.0164,7.61,7.61,0,0,1-1.908-.2393,1.8315,1.8315,0,0,1-3.1284-1.67l.0117-.0437a7.9124,7.9124,0,0,1-2.4126-5.8484c0-4.4728,3.1726-7.9054,7.2812-7.9054A8.7935,8.7935,0,0,1,242.9565,91.38Z"/><path class="l" d="M296.5249,81.9141c-.0476,0-.0948.001-.1421.0014a1.83,1.83,0,0,1-2.3605.2375,11.37,11.37,0,0,0-5.0907,2.4136V82.4342h-7.1252v27.0964h7.1252v-8.5471a1.8316,1.8316,0,1,1,0-2.207V90.7556a6.4908,6.4908,0,0,1,5.565-2.7044,5.2833,5.2833,0,0,1,5.6168,5.6689v15.8105h7.1251V92.68C307.2385,86.3349,302.8179,81.9141,296.5249,81.9141Z"/><path class="l" d="M387.277,88.1031a8.7938,8.7938,0,0,1,6.7091,3.2766l4.3687-4.6287a15.2408,15.2408,0,0,0-11.2339-4.8369,13.9656,13.9656,0,0,0-14.1982,14.0944,14.3715,14.3715,0,0,0,.819,4.82,1.8314,1.8314,0,0,1,1.5024,3.0069,14.0769,14.0769,0,0,0,11.8768,6.2153,15.0393,15.0393,0,0,0,11.0259-4.8368l-4.2647-4.4206a8.4093,8.4093,0,0,1-6.4491,3.0164,7.46,7.46,0,0,1-7.4372-7.8012c0-.0559.0009-.1114.0018-.1669a1.8313,1.8313,0,1,1,.2183-1.8274A7.2773,7.2773,0,0,1,387.277,88.1031Z"/><path class="l" d="M275.7047,91.3842a1.8315,1.8315,0,1,1-.858-3.5306A14.45,14.45,0,0,0,262.98,81.9141a14.123,14.123,0,0,0-14.4583,14.0944c0,7.9052,6.345,14.0422,14.4583,14.0422s14.4584-6.137,14.4584-14.0422a14.0963,14.0963,0,0,0-.9708-5.1765A1.8217,1.8217,0,0,1,275.7047,91.3842ZM262.98,103.8617c-.0467,0-.0931-.0009-.1395-.0018a1.831,1.831,0,0,1-3.0753-.7355,7.821,7.821,0,0,1-4.2744-7.1159,7.4976,7.4976,0,1,1,7.4892,7.8532Z"/><path class="l" d="M494.4267,109.5306h.1412v-.165A1.8527,1.8527,0,0,1,494.4267,109.5306Z"/><path class="l" d="M491.7859,109.5306a1.8311,1.8311,0,1,1,2.782-2.3718V92.68c0-6.345-4.4207-10.7658-10.7137-10.7658a11.6311,11.6311,0,0,0-7.5933,2.6525V82.4342h-7.1251v27.0964h7.1251V90.7556a6.151,6.151,0,0,1,3.2291-2.3628,1.8325,1.8325,0,1,1,2.1936-.34c.0474-.0007.0946-.0017.1423-.0017a5.2833,5.2833,0,0,1,5.6168,5.6689v15.8105Z"/><path class="l" d="M513.706,93.356l-5.2009-.78c-.0418-.0057-.0821-.0118-.1231-.0178a1.8312,1.8312,0,0,1-3.1694-1.2625,1.9572,1.9572,0,0,1-.4-1.2681c0-1.6123,1.6643-2.6525,4.2647-2.6525a15.997,15.997,0,0,1,8.3733,2.6l3.4326-4.5767a19.9887,19.9887,0,0,0-11.13-3.3805c-6.9171,0-11.2858,3.3285-11.2858,8.5813,0,4.3687,2.8605,7.0212,8.2173,7.8533l5.2008.78c2.34.3641,3.3806,1.1441,3.3806,2.5484,0,1.7163-2.08,2.86-5.2528,2.86-2.8605,0-5.617-.9881-8.7895-3.0685l-3.5365,4.7328a18.4633,18.4633,0,0,0,9.5126,3.5865,1.8316,1.8316,0,1,1,2.7777.157c.0466,0,.0929.0011.14.0011,6.8131,0,11.8579-3.8486,11.8579-8.9454C521.9753,96.8925,519.0108,94.1362,513.706,93.356Z"/><path class="l" d="M450.3092,81.9141a14.123,14.123,0,0,0-14.4583,14.0944c0,7.9052,6.345,14.0422,14.4583,14.0422s14.4584-6.137,14.4584-14.0422A14.1231,14.1231,0,0,0,450.3092,81.9141Zm7.1525,16.5712a1.8416,1.8416,0,0,1-.1021.2148,7.4372,7.4372,0,0,1-7.05,5.1616,7.8895,7.8895,0,1,1,7.4892-7.8532,8.4608,8.4608,0,0,1-.2094,1.8781A1.8261,1.8261,0,0,1,457.4617,98.4853Z"/><path class="l" d="M413.1765,82.27a1.8315,1.8315,0,1,1,0-2.2072V73.9049l-7.1252,1.6122v6.9171h-5.5649v5.981h5.5649v4.4011a1.83,1.83,0,0,1,0,2.2076v6.8615c0,5.3049,3.1206,8.0613,9.1535,8.0613a22.1042,22.1042,0,0,0,5.5129-.8321V103.29a10.96,10.96,0,0,1-3.7966.6241c-2.7564,0-3.7446-.9361-3.7446-3.4845V88.4152h7.6973v-5.981h-7.6973Z"/><path class="l" d="M424.41,109.5306h4.3434a1.8312,1.8312,0,1,1,2.7818-2.3722V82.4342H424.41Z"/><path class="l" d="M430.5417,75.7169a1.8315,1.8315,0,0,1,0-3.663l.0184,0a4.0542,4.0542,0,1,0,1.4429,3.0988c0-.0533-.002-.1061-.004-.1588A1.8285,1.8285,0,0,1,430.5417,75.7169Z"/><path class="l" d="M431.394,109.5306h.141v-.1646A1.8429,1.8429,0,0,1,431.394,109.5306Z"/><path class="e" d="M232.66,104.3478a2.0751,2.0751,0,1,0-1.53-2.5044,2.0776,2.0776,0,0,0,1.53,2.5044C233.7722,104.6164,231.548,104.0791,232.66,104.3478Zm.86-3.5606a1.588,1.588,0,1,1-1.9165,1.1706,1.5894,1.5894,0,0,1,1.9165-1.1706Z"/><path class="e" d="M241.7349,84.7311a2.0751,2.0751,0,1,0-.6633-2.8587,2.0775,2.0775,0,0,0,.6633,2.8587Zm1.9377-3.1086a1.588,1.588,0,1,1-2.1876.5076,1.59,1.59,0,0,1,2.1876-.5076Z"/><path class="e" d="M273.1113,90.4174a2.0751,2.0751,0,1,0,1.1943-2.6807,2.0775,2.0775,0,0,0-1.1943,2.6807C273.5211,91.4856,272.7016,89.3491,273.1113,90.4174Zm3.42-1.3119a1.588,1.588,0,1,1-2.0514-.9139,1.5895,1.5895,0,0,1,2.0514.9139C276.845,89.9232,276.2177,88.2878,276.5314,89.1055Z"/><path class="e" d="M261.5182,104.6685a2.0751,2.0751,0,1,0-2.0751-2.0751,2.0775,2.0775,0,0,0,2.0751,2.0751Zm0-3.663a1.588,1.588,0,1,1-1.588,1.5879,1.5895,1.5895,0,0,1,1.588-1.5879Z"/><path class="e" d="M285.395,99.88a2.0751,2.0751,0,1,0,2.0751-2.0751A2.0775,2.0775,0,0,0,285.395,99.88Zm3.663,0a1.588,1.588,0,1,1-1.5879-1.588,1.5895,1.5895,0,0,1,1.5879,1.588Z"/><path class="e" d="M295.0631,82.7214a2.0751,2.0751,0,1,0-2.0751-2.0751,2.0776,2.0776,0,0,0,2.0751,2.0751Zm0-3.663a1.588,1.588,0,1,1-1.588,1.5879,1.5894,1.5894,0,0,1,1.588-1.5879Z"/><path class="e" d="M336.6167,106.1871a2.0751,2.0751,0,1,0,2.0751,2.0751,2.0776,2.0776,0,0,0-2.0751-2.0751Zm0,3.6631a1.588,1.588,0,1,1,1.588-1.588,1.5895,1.5895,0,0,1-1.588,1.588Z"/><path class="e" d="M311.1851,83.2415a2.0751,2.0751,0,1,0-2.075-2.0751,2.0776,2.0776,0,0,0,2.075,2.0751Zm0-3.663a1.588,1.588,0,1,1-1.5879,1.5879,1.5895,1.5895,0,0,1,1.5879-1.5879Z"/><path class="e" d="M346.505,86.0091a2.0751,2.0751,0,1,0-2.9339-.0661,2.0777,2.0777,0,0,0,2.9339.0661Zm-2.5312-2.6478a1.5879,1.5879,0,1,1-.0506,2.2451,1.5895,1.5895,0,0,1,.0506-2.2451Z"/><path class="e" d="M363.1652,91.4872a2.0751,2.0751,0,1,0-1.4525,2.55,2.0776,2.0776,0,0,0,1.4525-2.55C362.8626,90.3839,363.4677,92.5906,363.1652,91.4872Zm-3.5327.9687a1.588,1.588,0,1,1,1.9513,1.1115,1.59,1.59,0,0,1-1.9513-1.1115C359.4009,91.6112,359.8641,93.3005,359.6325,92.4559Z"/><path class="e" d="M375.5617,101.496a2.0751,2.0751,0,1,0-.5586,2.881,2.0774,2.0774,0,0,0,.5586-2.881Zm-3.0358,2.05a1.588,1.588,0,1,1,2.2047.4275,1.5894,1.5894,0,0,1-2.2047-.4275Z"/><path class="e" d="M376.4593,94.74a2.0751,2.0751,0,1,0,2.0751-2.0751,2.0776,2.0776,0,0,0-2.0751,2.0751Zm3.663,0a1.588,1.588,0,1,1-1.5879-1.5879,1.5895,1.5895,0,0,1,1.5879,1.5879Z"/><path class="e" d="M406.6651,93.92a2.0751,2.0751,0,1,0-2.0751,2.0751,2.0776,2.0776,0,0,0,2.0751-2.0751Zm-3.663,0A1.588,1.588,0,1,1,404.59,95.508a1.5895,1.5895,0,0,1-1.5879-1.5879Z"/><path class="e" d="M411.715,83.2415a2.0751,2.0751,0,1,0-2.0751-2.0751,2.0776,2.0776,0,0,0,2.0751,2.0751Zm0-3.663a1.588,1.588,0,1,1-1.5879,1.5879,1.5895,1.5895,0,0,1,1.5879-1.5879Z"/><path class="e" d="M428.4666,73.8854a2.0751,2.0751,0,1,0,2.0751-2.0751,2.0776,2.0776,0,0,0-2.0751,2.0751Zm3.663,0a1.588,1.588,0,1,1-1.5879-1.588,1.5894,1.5894,0,0,1,1.5879,1.588Z"/><path class="e" d="M430.0736,106.1871a2.0751,2.0751,0,1,0,2.0751,2.0751,2.0775,2.0775,0,0,0-2.0751-2.0751Zm0,3.6631a1.588,1.588,0,1,1,1.588-1.588,1.5895,1.5895,0,0,1-1.588,1.588Z"/><path class="e" d="M439.8854,86.353a2.0751,2.0751,0,1,0-2.9346.0114,2.0776,2.0776,0,0,0,2.9346-.0114C440.6913,85.5409,439.08,87.1652,439.8854,86.353Zm-2.6-2.58a1.5879,1.5879,0,1,1,.0086,2.2457,1.5894,1.5894,0,0,1-.0086-2.2457C437.9021,83.1512,436.6684,84.3946,437.2853,83.7729Z"/><path class="e" d="M457.6882,98.575a2.0751,2.0751,0,1,0-2.6938,1.1645,2.0777,2.0777,0,0,0,2.6938-1.1645C458.11,97.5114,457.2666,99.6386,457.6882,98.575Zm-3.4053-1.35a1.5879,1.5879,0,1,1,.891,2.0614,1.5895,1.5895,0,0,1-.891-2.0614C454.6056,96.4111,453.96,98.0394,454.2829,97.2252Z"/><path class="e" d="M493.1062,106.1871a2.0751,2.0751,0,1,0,2.0751,2.0751,2.0776,2.0776,0,0,0-2.0751-2.0751Zm0,3.6631a1.588,1.588,0,1,1,1.588-1.588,1.59,1.59,0,0,1-1.588,1.588Z"/><path class="e" d="M480.3645,84.7081a2.0751,2.0751,0,1,0,2.0751,2.0751,2.0776,2.0776,0,0,0-2.0751-2.0751Zm0,3.6631a1.588,1.588,0,1,1,1.5879-1.588,1.59,1.59,0,0,1-1.5879,1.588Z"/><path class="e" d="M508.6562,106.7072a2.0751,2.0751,0,1,0,2.0751,2.0751,2.0776,2.0776,0,0,0-2.0751-2.0751Zm0,3.6631a1.588,1.588,0,1,1,1.588-1.588,1.5895,1.5895,0,0,1-1.588,1.588Z"/><path class="e" d="M334.7852,108.2622a1.8451,1.8451,0,0,1,.0166-.2435h-5.0665V92.452a5.5161,5.5161,0,0,0-5.86-5.9123,6.724,6.724,0,0,0-5.7637,2.8074.2438.2438,0,0,0-.0446.1405v18.5311h-6.6379V92.76a.2436.2436,0,1,0-.4871,0v15.5021a.2435.2435,0,0,0,.2435.2436H318.31a.2435.2435,0,0,0,.2435-.2436V89.5657a6.2629,6.2629,0,0,1,5.3212-2.5389,5.3539,5.3539,0,0,1,3.9223,1.4747,5.4737,5.4737,0,0,1,1.451,3.9505v15.81a.2435.2435,0,0,0,.2435.2436h5.31A1.8455,1.8455,0,0,1,334.7852,108.2622Z"/><path class="e" d="M302.9522,83.4778a10.108,10.108,0,0,0-3.4708-2.2681,11.4213,11.4213,0,0,0-2.5908-.679c.0024.0382.004.0768.004.1156a1.8389,1.8389,0,0,1-.0379.3721c5.19.7578,8.6764,4.8188,8.6764,10.3935v16.6068h-6.6379V92.452a5.5161,5.5161,0,0,0-5.86-5.9123,6.724,6.724,0,0,0-5.7637,2.8074.2436.2436,0,1,0,.3979.281,6.2559,6.2559,0,0,1,5.3658-2.6013,5.3535,5.3535,0,0,1,3.9222,1.4747,5.4734,5.4734,0,0,1,1.4511,3.9505v15.81a.2435.2435,0,0,0,.2435.2436h7.125a.2436.2436,0,0,0,.2436-.2436v-16.85a12.124,12.124,0,0,0-.8059-4.4479A10.1567,10.1567,0,0,0,302.9522,83.4778Z"/><path class="e" d="M287.47,101.7115a1.8455,1.8455,0,0,1-.2436-.0166v6.3238h-6.6379V81.41h6.6379v1.8887a.2436.2436,0,1,0,.4871,0V81.1664a.2435.2435,0,0,0-.2435-.2435h-7.125a.2435.2435,0,0,0-.2436.2435v27.0958a.2435.2435,0,0,0,.2436.2436h7.125a.2435.2435,0,0,0,.2435-.2436v-6.5673A1.8451,1.8451,0,0,1,287.47,101.7115Z"/><path class="e" d="M354.715,80.4547a14.1981,14.1981,0,0,0-8.4074,2.7039c.03.0273.0591.0553.0874.0849a1.8392,1.8392,0,0,1,.2261.29,13.715,13.715,0,0,1,8.0939-2.5911,12.6344,12.6344,0,0,1,9.4161,4.0819A14.998,14.998,0,0,1,367.8893,95.26v1.6287H347.9541a.2436.2436,0,0,0-.2338.3119,8.0538,8.0538,0,0,0,7.9309,5.844,8.8336,8.8336,0,0,0,5.9828-2.0966l4.3041,3.9216a15.9467,15.9467,0,0,1-10.599,3.6687,14.5525,14.5525,0,0,1-10.1933-3.9882,13.5024,13.5024,0,0,1-4.1252-9.81.2436.2436,0,1,0-.4871,0,13.985,13.985,0,0,0,4.274,10.1606,15.0369,15.0369,0,0,0,10.5316,4.125,16.4852,16.4852,0,0,0,11.1271-3.9551.2436.2436,0,0,0,.01-.3691l-4.6806-4.2646a.2439.2439,0,0,0-.3332.0047,8.271,8.271,0,0,1-5.8117,2.1161,7.5754,7.5754,0,0,1-7.3653-5.1816h19.847a.2436.2436,0,0,0,.2436-.2436V95.26A15.4827,15.4827,0,0,0,364.49,84.694,13.1166,13.1166,0,0,0,354.715,80.4547Z"/><path class="e" d="M358.8563,87.91a6.63,6.63,0,0,0-4.2973-1.5779,7.06,7.06,0,0,0-6.8923,5.6418.2436.2436,0,1,0,.4708.125,7.4,7.4,0,0,1,2.3514-3.8536,6.2852,6.2852,0,0,1,4.07-1.4261,6.1491,6.1491,0,0,1,3.9849,1.4645,7.1657,7.1657,0,0,1,1.7287,2.1528,1.8314,1.8314,0,0,1,.407-.1664c.0165-.0045.033-.0082.05-.0122A7.6582,7.6582,0,0,0,358.8563,87.91Z"/><path class="e" d="M241.566,99.3559a.25.25,0,0,0-.1779-.0745.2434.2434,0,0,0-.1762.0782,8.15,8.15,0,0,1-6.233,2.9378,1.8341,1.8341,0,0,1-.0512.4634l-.0065.0239.02,0a8.1993,8.1993,0,0,0,3.522-.7507,9.7288,9.7288,0,0,0,2.929-2.1564l3.9271,4.0708a14.8014,14.8014,0,0,1-10.69,4.59,13.9885,13.9885,0,0,1-9.9311-3.9861,14.0087,14.0087,0,0,1,0-19.651A13.9521,13.9521,0,0,1,234.63,80.89a15.5706,15.5706,0,0,1,2.3619.1806.2436.2436,0,0,0,.0741-.4815,16.0671,16.0671,0,0,0-2.436-.1862,14.4362,14.4362,0,0,0-10.2742,4.1535,14.4955,14.4955,0,0,0,0,20.3425,14.4726,14.4726,0,0,0,10.2738,4.1271,15.375,15.375,0,0,0,6.1175-1.2882,15.2164,15.2164,0,0,0,5.0877-3.6276.2435.2435,0,0,0-.0044-.3336Z"/><path class="e" d="M313.0167,81.1664A1.8454,1.8454,0,0,1,313,81.41h5.0666v1.8887a.2436.2436,0,0,0,.3986.1879,11.3738,11.3738,0,0,1,7.438-2.5967c6.1646,0,10.47,4.3268,10.47,10.522V95.6a.2436.2436,0,1,0,.4871,0V91.4119a12.124,12.124,0,0,0-.8059-4.4479,10.0412,10.0412,0,0,0-5.7329-5.7543,12.49,12.49,0,0,0-11.7678,1.5858V81.1664a.2435.2435,0,0,0-.2435-.2435H313A1.8451,1.8451,0,0,1,313.0167,81.1664Z"/><path class="e" d="M267.0191,100.4728a8.2668,8.2668,0,0,0,2.2317-5.7325,8.3518,8.3518,0,0,0-2.2317-5.7975,7.5113,7.5113,0,0,0-5.5009-2.3512,7.8641,7.8641,0,0,0-7.7326,8.1487.2436.2436,0,1,0,.4871,0,7.3827,7.3827,0,0,1,7.2455-7.6615,7.0287,7.0287,0,0,1,5.1476,2.1994,7.8671,7.8671,0,0,1,2.0979,5.4621,7.4531,7.4531,0,0,1-5.4736,7.3888,1.8322,1.8322,0,0,1,.06.4643l-.0006.0228A7.5238,7.5238,0,0,0,267.0191,100.4728Z"/><path class="e" d="M392.5956,99.3559a.2435.2435,0,0,0-.3541.0037,8.1472,8.1472,0,0,1-6.27,2.9383,7.0839,7.0839,0,0,1-7.0087-5.777,1.8327,1.8327,0,0,1-.4283.0509c-.02,0-.04-.0009-.06-.0015a7.5616,7.5616,0,0,0,7.4971,6.2147,8.1985,8.1985,0,0,0,3.5219-.7507,9.7279,9.7279,0,0,0,2.9291-2.1564l3.927,4.0708a14.8009,14.8009,0,0,1-10.69,4.59.2436.2436,0,0,0,0,.4872,15.375,15.375,0,0,0,6.1175-1.2882,15.2174,15.2174,0,0,0,5.0877-3.6276.2436.2436,0,0,0-.0044-.3336Z"/><path class="e" d="M275.7047,91.3842a1.8283,1.8283,0,0,1-.3521.0963,14.0254,14.0254,0,0,1,.38,3.26,13.5393,13.5393,0,0,1-4.1126,9.8106,14.7888,14.7888,0,0,1-20.2037,0,13.54,13.54,0,0,1-4.1126-9.8106,13.8867,13.8867,0,0,1,14.2145-13.85,14.87,14.87,0,0,1,5.19.9173.2436.2436,0,1,0,.1694-.4567,15.3551,15.3551,0,0,0-5.3592-.9477A14.3684,14.3684,0,0,0,246.8166,94.74a14.0229,14.0229,0,0,0,4.2605,10.16,15.2757,15.2757,0,0,0,20.8821,0A14.0226,14.0226,0,0,0,276.22,94.74a14.5076,14.5076,0,0,0-.4011-3.4048C275.7814,91.3528,275.7436,91.3693,275.7047,91.3842Z"/><path class="e" d="M244.4521,83.8243c-.02.0386-.0418.077-.0653.1146a1.837,1.837,0,0,1-.2174.2831,14.0991,14.0991,0,0,1,1.36,1.26l-4.0327,4.2727a8.9344,8.9344,0,0,0-6.7111-3.1629,7.2168,7.2168,0,0,0-5.36,2.3538,8.4875,8.4875,0,0,0-2.1643,5.7949,9.021,9.021,0,0,0,.2447,2.1047.2436.2436,0,0,0,.4737-.1138,8.5313,8.5313,0,0,1-.2312-1.9909,8.0021,8.0021,0,0,1,2.0353-5.4647,6.7342,6.7342,0,0,1,5.0021-2.1968,7.6761,7.6761,0,0,1,3.4616.7941,10.2332,10.2332,0,0,1,3.0668,2.4022.2436.2436,0,0,0,.178.08.2376.2376,0,0,0,.18-.0764L246.04,85.65a.2437.2437,0,0,0,.0026-.3317A14.5809,14.5809,0,0,0,244.4521,83.8243Z"/><path class="e" d="M419.4121,80.9229H413.53a1.7949,1.7949,0,0,1,0,.4871h5.6386v5.4937H411.715a.2435.2435,0,0,0-.2435.2436V99.161a3.72,3.72,0,0,0,.9159,2.8758,4.3507,4.3507,0,0,0,3.0722.8522,10.9879,10.9879,0,0,0,3.5529-.533v5.3091a22.2864,22.2864,0,0,1-5.2692.77c-2.94,0-5.1869-.6663-6.6779-1.98a7.4019,7.4019,0,0,1-2.2318-5.8372.2436.2436,0,0,0-.4871,0,7.8634,7.8634,0,0,0,2.3968,6.2026c1.5827,1.3949,3.9378,2.1022,7,2.1022a22.2347,22.2347,0,0,0,5.585-.8431.2436.2436,0,0,0,.1714-.2326v-5.8248a.2436.2436,0,0,0-.3206-.2311,10.7079,10.7079,0,0,1-3.7195.6115c-2.6176,0-3.501-.8178-3.501-3.2408v-11.77h7.4535a.2436.2436,0,0,0,.2436-.2435V81.1664A.2436.2436,0,0,0,419.4121,80.9229Z"/><path class="e" d="M385.6594,80.4028a14.4362,14.4362,0,0,0-10.2742,4.1535,14.237,14.237,0,0,0-4.1674,10.184,14.469,14.469,0,0,0,1.5,6.4717c.0323-.0251.0651-.05.0994-.0727a1.8327,1.8327,0,0,1,.3222-.1736A13.9856,13.9856,0,0,1,371.705,94.74a13.7534,13.7534,0,0,1,4.0238-9.8387,13.9521,13.9521,0,0,1,9.9306-4.0117,14.9891,14.9891,0,0,1,10.9,4.5919l-4.0327,4.2727a8.9344,8.9344,0,0,0-6.7111-3.1629,7.2076,7.2076,0,0,0-4.2026,1.3327.2436.2436,0,0,0,.2823.397,6.7235,6.7235,0,0,1,3.92-1.2425,8.5678,8.5678,0,0,1,6.5283,3.1963.2438.2438,0,0,0,.1781.08.2386.2386,0,0,0,.18-.0764L397.07,85.65a.2436.2436,0,0,0,.0025-.3317A15.458,15.458,0,0,0,385.6594,80.4028Z"/><path class="e" d="M448.8478,86.5916a7.8641,7.8641,0,0,0-7.7326,8.1487,8.2664,8.2664,0,0,0,2.2317,5.7325,7.5174,7.5174,0,0,0,5.5009,2.3642.2436.2436,0,1,0,0-.4871,7.646,7.646,0,0,1,0-15.2711,7.0287,7.0287,0,0,1,5.1476,2.1994,7.8671,7.8671,0,0,1,2.0979,5.4621,8.3038,8.3038,0,0,1-.0948,1.2541,1.8362,1.8362,0,0,1,.4355.1134l.0376.016A8.7806,8.7806,0,0,0,456.58,94.74a8.3518,8.3518,0,0,0-2.2317-5.7975A7.5113,7.5113,0,0,0,448.8478,86.5916Z"/><path class="e" d="M491.2747,108.2622a1.8451,1.8451,0,0,1,.0167-.2435h-5.0666V92.452a.2436.2436,0,1,0-.4871,0v15.81a.2435.2435,0,0,0,.2435.2436h5.31A1.8454,1.8454,0,0,1,491.2747,108.2622Z"/><path class="e" d="M513.1388,98.6543a6.011,6.011,0,0,0-2.6782-.93l-5.1995-.78a10.9956,10.9956,0,0,1-5.9871-2.5364,6.699,6.699,0,0,1-2.0239-5.076,7.3466,7.3466,0,0,1,2.9529-6.0666,13.2878,13.2878,0,0,1,8.0891-2.2711,19.6632,19.6632,0,0,1,5.7087.8411,20.178,20.178,0,0,1,5.07,2.3577l-3.1456,4.194a16.1024,16.1024,0,0,0-8.3093-2.5231,6.8127,6.8127,0,0,0-2.7975.5234.2436.2436,0,0,0,.2033.4427,6.3305,6.3305,0,0,1,2.5942-.479,15.7853,15.7853,0,0,1,8.2484,2.5659.2435.2435,0,0,0,.32-.063l3.4325-4.5766a.2437.2437,0,0,0-.06-.3493,20.7033,20.7033,0,0,0-5.414-2.5588,20.1463,20.1463,0,0,0-5.85-.8621,13.7617,13.7617,0,0,0-8.3841,2.3705,7.8176,7.8176,0,0,0-3.145,6.4543,7.1674,7.1674,0,0,0,2.1757,5.4294,11.4631,11.4631,0,0,0,6.2488,2.6645l5.2.78c2.225.3462,3.1743,1.0363,3.1743,2.3077,0,1.5653-2.013,2.6169-5.0091,2.6169-2.792,0-5.4615-.934-8.6557-3.0286a.2436.2436,0,0,0-.3287.0579l-3.5365,4.7327a.2437.2437,0,0,0,.0434.3363,19.3147,19.3147,0,0,0,10.7591,3.7371c-.0059-.06-.0091-.1213-.0091-.1831a1.8334,1.8334,0,0,1,.0256-.3038,18.987,18.987,0,0,1-10.2861-3.4858l3.2573-4.359a15.9207,15.9207,0,0,0,8.7307,2.9834,8.3472,8.3472,0,0,0,3.9327-.8164,2.6057,2.6057,0,0,0,1.5636-2.2876A2.1858,2.1858,0,0,0,513.1388,98.6543Z"/><path class="e" d="M518.5349,94.4974a11.39,11.39,0,0,0-6.254-2.65l-3.406-.5109a1.7916,1.7916,0,0,1-.0723.4817l3.4067.5111c5.1982.7644,8.061,3.4308,8.061,7.5081a7.6839,7.6839,0,0,1-3.0965,6.0494.2436.2436,0,0,0,.3029.3816,8.1614,8.1614,0,0,0,3.2807-6.431A7.0138,7.0138,0,0,0,518.5349,94.4974Z"/><path class="e" d="M492.8627,91.4119v5.5526a.2436.2436,0,0,0,.4871,0V91.4119a12.124,12.124,0,0,0-.8059-4.4479,10.0407,10.0407,0,0,0-5.7328-5.7543,12.49,12.49,0,0,0-11.7679,1.5858V81.1664a.2435.2435,0,0,0-.2435-.2435h-7.125a.2436.2436,0,0,0-.2436.2435v27.0958a.2436.2436,0,0,0,.2436.2436H474.8a.2435.2435,0,0,0,.2435-.2436V89.5657a5.95,5.95,0,0,1,3.5436-2.3412,1.834,1.834,0,0,1-.0538-.4413l.0012-.0474a6.4265,6.4265,0,0,0-3.9335,2.6113.2438.2438,0,0,0-.0446.1405v18.5311h-6.6379V81.41h6.6379v1.8887a.2436.2436,0,0,0,.3986.1879,11.3738,11.3738,0,0,1,7.438-2.5967C488.5573,80.89,492.8627,85.2167,492.8627,91.4119Z"/><path class="e" d="M426.4851,78.1855a4.3057,4.3057,0,0,0,3.8936-2.4762,1.8214,1.8214,0,0,1-.4881-.112,3.8124,3.8124,0,1,1-3.4055-5.5249.2436.2436,0,1,0,0-.4872,4.3,4.3,0,0,0,0,8.6Z"/><path class="e" d="M404.3465,92.1052a1.7949,1.7949,0,0,1,.4871,0V87.1473a.2435.2435,0,0,0-.2436-.2436h-5.3212V81.41H404.59a.2435.2435,0,0,0,.2436-.2436V74.4441l6.6379-1.502V74.765a.2436.2436,0,0,0,.4871,0V72.6372a.2436.2436,0,0,0-.2973-.2376l-7.125,1.6123a.2436.2436,0,0,0-.19.2376v6.6734h-5.3212a.2435.2435,0,0,0-.2436.2435v5.9809a.2435.2435,0,0,0,.2436.2435h5.3212Z"/><path class="e" d="M428.2421,108.2622a1.8451,1.8451,0,0,1,.0166-.2435h-5.0665V81.41H429.83V97.4936a.2436.2436,0,0,0,.4872,0V81.1664a.2436.2436,0,0,0-.2436-.2435h-7.125a.2436.2436,0,0,0-.2436.2435v27.0958a.2436.2436,0,0,0,.2436.2436h5.31A1.8455,1.8455,0,0,1,428.2421,108.2622Z"/><path class="e" d="M448.8478,80.4028a14.9272,14.9272,0,0,0-9.2391,3.1023c.0319.0276.0634.056.0938.0862a1.8345,1.8345,0,0,1,.2306.2791,14.447,14.447,0,0,1,8.9147-2.9805,13.8867,13.8867,0,0,1,14.2145,13.85,13.54,13.54,0,0,1-4.1126,9.8106,14.789,14.789,0,0,1-20.2038,0,13.54,13.54,0,0,1-4.1126-9.8106.2436.2436,0,1,0-.4871,0,14.0226,14.0226,0,0,0,4.2606,10.16,15.2756,15.2756,0,0,0,20.882,0,14.0226,14.0226,0,0,0,4.2606-10.16A14.3684,14.3684,0,0,0,448.8478,80.4028Z"/><path class="e" d="M506.7362,93.36A2.0751,2.0751,0,1,0,504.9918,91a2.0776,2.0776,0,0,0,1.7444,2.36Zm.5433-3.6225a1.5879,1.5879,0,1,1-1.8059,1.3348,1.5894,1.5894,0,0,1,1.8059-1.3348C508.1456,89.8674,506.4134,89.6075,507.28,89.7375Z"/><path class="l" d="M175.0745,191.3048a13.8314,13.8314,0,0,0-13.9382,14.0422c0,7.9053,6.3449,14.0423,14.5623,14.0423a16.243,16.243,0,0,0,10.9738-3.9007l-4.6808-4.2647a8.53,8.53,0,0,1-5.9809,2.1844,7.8072,7.8072,0,0,1-7.6972-5.6689h20.1792v-1.8723C188.4927,197.5457,182.7718,191.3048,175.0745,191.3048Zm6.449,11.3377h-.14a1.8315,1.8315,0,0,1-2.6435,0H168.2614c.8841-3.3285,3.3806-5.4608,6.6571-5.4608a6.5187,6.5187,0,0,1,4.9934,2.3677,1.831,1.831,0,0,1,1.5773,2.9723Q181.5068,202.582,181.5235,202.6425Z"/><path class="l" d="M156.8352,218.8692h.1414v-.1653A1.8424,1.8424,0,0,1,156.8352,218.8692Z"/><path class="l" d="M154.1943,218.8692a1.8312,1.8312,0,1,1,2.7823-2.3715V202.0185c0-6.3451-4.4207-10.7658-10.7137-10.7658a11.6313,11.6313,0,0,0-7.5933,2.6525v-2.1324h-7.1251v27.0964H138.67v-18.775a6.4911,6.4911,0,0,1,5.565-2.7045,5.2833,5.2833,0,0,1,5.6168,5.6689v15.8106Z"/><path class="l" d="M61.8545,200.7183l4.3687-4.6287a14.51,14.51,0,0,0-3.1211-2.5675,1.8313,1.8313,0,0,1-3.184-1.4766,15.7,15.7,0,0,0-4.9287-.7928,14.0689,14.0689,0,1,0,0,28.1366,15.039,15.039,0,0,0,11.0258-4.8368l-4.2646-4.4207a8.4092,8.4092,0,0,1-6.4491,3.0165,7.61,7.61,0,0,1-1.908-.2393,1.8315,1.8315,0,0,1-3.1284-1.67l.0117-.0437a7.9126,7.9126,0,0,1-2.4126-5.8485c0-4.4727,3.1726-7.9053,7.2812-7.9053A8.7935,8.7935,0,0,1,61.8545,200.7183Z"/><path class="l" d="M115.4229,191.2527c-.0476,0-.0948.0009-.1421.0014a1.83,1.83,0,0,1-2.3605.2375,11.37,11.37,0,0,0-5.0907,2.4136v-2.1324h-7.1251v27.0964H107.83v-8.5471a1.8316,1.8316,0,1,1,0-2.2071v-8.0208a6.491,6.491,0,0,1,5.565-2.7045,5.2833,5.2833,0,0,1,5.6168,5.6689v15.8106h7.1252V202.0185C126.1366,195.6734,121.7159,191.2527,115.4229,191.2527Z"/><path class="l" d="M206.175,197.4417a8.7935,8.7935,0,0,1,6.7091,3.2766l4.3687-4.6287a15.2408,15.2408,0,0,0-11.2338-4.8369,13.9656,13.9656,0,0,0-14.1983,14.0943,14.3681,14.3681,0,0,0,.8191,4.82,1.8315,1.8315,0,0,1,1.5023,3.007,14.077,14.077,0,0,0,11.8769,6.2153,15.0392,15.0392,0,0,0,11.0258-4.8368l-4.2647-4.4207a8.409,8.409,0,0,1-6.449,3.0165,7.46,7.46,0,0,1-7.4373-7.8013c0-.0558.0009-.1113.0019-.1668a1.8313,1.8313,0,1,1,.2183-1.8275A7.2772,7.2772,0,0,1,206.175,197.4417Z"/><path class="l" d="M94.6027,200.7228a1.8315,1.8315,0,1,1-.858-3.5307,14.45,14.45,0,0,0-11.8668-5.9394A14.123,14.123,0,0,0,67.42,205.347c0,7.9053,6.345,14.0423,14.4583,14.0423s14.4584-6.137,14.4584-14.0423a14.0962,14.0962,0,0,0-.9708-5.1764A1.8219,1.8219,0,0,1,94.6027,200.7228ZM81.8779,213.2c-.0467,0-.0931-.0009-.1395-.0018a1.831,1.831,0,0,1-3.0753-.7355,7.821,7.821,0,0,1-4.2744-7.116A7.4976,7.4976,0,1,1,81.8779,213.2Z"/><path class="l" d="M313.3247,218.8692h.1412v-.165A1.8527,1.8527,0,0,1,313.3247,218.8692Z"/><path class="l" d="M310.6839,218.8692a1.8311,1.8311,0,1,1,2.782-2.3718V202.0185c0-6.3451-4.4207-10.7658-10.7137-10.7658a11.6313,11.6313,0,0,0-7.5933,2.6525v-2.1324h-7.1251v27.0964h7.1251v-18.775a6.1507,6.1507,0,0,1,3.2292-2.3628,1.8324,1.8324,0,1,1,2.1935-.34c.0474-.0008.0946-.0018.1423-.0018a5.2833,5.2833,0,0,1,5.6168,5.6689v15.8106Z"/><path class="l" d="M332.604,202.6946l-5.2008-.78c-.0419-.0058-.0821-.0118-.1232-.0178a1.8311,1.8311,0,0,1-3.1693-1.2625,1.957,1.957,0,0,1-.4-1.2682c0-1.6122,1.6642-2.6524,4.2646-2.6524a15.9967,15.9967,0,0,1,8.3734,2.6l3.4325-4.5767a19.988,19.988,0,0,0-11.13-3.3806c-6.9171,0-11.2858,3.3286-11.2858,8.5814,0,4.3687,2.8605,7.0212,8.2173,7.8533l5.2009.78c2.34.364,3.38,1.1441,3.38,2.5483,0,1.7163-2.08,2.8605-5.2528,2.8605-2.8605,0-5.6169-.9882-8.7894-3.0685l-3.5366,4.7328a18.4641,18.4641,0,0,0,9.5126,3.5865,1.8316,1.8316,0,1,1,2.7777.157c.0466,0,.093.0011.14.0011,6.8131,0,11.8579-3.8486,11.8579-8.9455C340.8733,206.2311,337.9088,203.4748,332.604,202.6946Z"/><path class="l" d="M269.2072,191.2527a14.123,14.123,0,0,0-14.4583,14.0943c0,7.9053,6.345,14.0423,14.4583,14.0423s14.4584-6.137,14.4584-14.0423A14.123,14.123,0,0,0,269.2072,191.2527Zm7.1525,16.5711a1.8263,1.8263,0,0,1-.1021.2148,7.4372,7.4372,0,0,1-7.05,5.1617,7.8895,7.8895,0,1,1,7.4892-7.8533,8.46,8.46,0,0,1-.2094,1.8781A1.825,1.825,0,0,1,276.36,207.8238Z"/><path class="l" d="M232.0745,191.6086a1.8315,1.8315,0,1,1,0-2.2072v-6.1579l-7.1251,1.6122v6.9171h-5.5649v5.981h5.5649v4.4011a1.8307,1.8307,0,0,1,0,2.2076v6.8614c0,5.3049,3.12,8.0613,9.1534,8.0613a22.1055,22.1055,0,0,0,5.513-.832v-5.825a10.9612,10.9612,0,0,1-3.7967.6241c-2.7564,0-3.7446-.9362-3.7446-3.4845v-12.014h7.6973v-5.981h-7.6973Z"/><path class="l" d="M243.3078,218.8692h4.3434a1.8312,1.8312,0,1,1,2.7818-2.3722V191.7728h-7.1252Z"/><path class="l" d="M249.44,185.0555a1.8316,1.8316,0,0,1,0-3.6631l.0184,0a4.0542,4.0542,0,1,0,1.4429,3.0987c0-.0532-.0019-.106-.004-.1587A1.8285,1.8285,0,0,1,249.44,185.0555Z"/><path class="l" d="M250.2921,218.8692h.1409v-.1646A1.8584,1.8584,0,0,1,250.2921,218.8692Z"/><path class="e" d="M51.5581,213.6863a2.0751,2.0751,0,1,0-1.53-2.5043,2.0774,2.0774,0,0,0,1.53,2.5043C52.67,213.955,50.446,213.4177,51.5581,213.6863Zm.86-3.5606a1.588,1.588,0,1,1-1.9165,1.1707,1.59,1.59,0,0,1,1.9165-1.1707C53.27,210.3314,51.567,209.92,52.4183,210.1257Z"/><path class="e" d="M60.6329,194.07a2.0751,2.0751,0,1,0-.6633-2.8587,2.0775,2.0775,0,0,0,.6633,2.8587C61.6038,194.6748,59.6619,193.4644,60.6329,194.07Zm1.9377-3.1086a1.588,1.588,0,1,1-2.1876.5075,1.5895,1.5895,0,0,1,2.1876-.5075Z"/><path class="e" d="M92.0093,199.7559a2.0751,2.0751,0,1,0,1.1943-2.6806,2.0776,2.0776,0,0,0-1.1943,2.6806C92.4191,200.8241,91.6,198.6877,92.0093,199.7559Zm3.42-1.3118a1.5879,1.5879,0,1,1-2.0513-.9139,1.59,1.59,0,0,1,2.0513.9139C95.743,199.2618,95.1157,197.6263,95.4294,198.4441Z"/><path class="e" d="M80.4162,214.0071a2.0751,2.0751,0,1,0-2.0751-2.0751,2.0776,2.0776,0,0,0,2.0751,2.0751Zm0-3.6631a1.588,1.588,0,1,1-1.588,1.588,1.5895,1.5895,0,0,1,1.588-1.588Z"/><path class="e" d="M104.293,209.2186a2.0751,2.0751,0,1,0,2.0751-2.0751,2.0776,2.0776,0,0,0-2.0751,2.0751Zm3.663,0a1.588,1.588,0,1,1-1.5879-1.588,1.5895,1.5895,0,0,1,1.5879,1.588Z"/><path class="e" d="M113.9611,192.06a2.0751,2.0751,0,1,0-2.0751-2.0751,2.0776,2.0776,0,0,0,2.0751,2.0751Zm0-3.663a1.588,1.588,0,1,1-1.5879,1.5879,1.5895,1.5895,0,0,1,1.5879-1.5879Z"/><path class="e" d="M155.5147,215.5257a2.0751,2.0751,0,1,0,2.0751,2.0751,2.0775,2.0775,0,0,0-2.0751-2.0751Zm0,3.6631a1.588,1.588,0,1,1,1.588-1.588,1.59,1.59,0,0,1-1.588,1.588Z"/><path class="e" d="M130.0832,192.58a2.0751,2.0751,0,1,0-2.0751-2.0751,2.0775,2.0775,0,0,0,2.0751,2.0751Zm0-3.6631a1.588,1.588,0,1,1-1.588,1.588,1.5895,1.5895,0,0,1,1.588-1.588Z"/><path class="e" d="M165.403,195.3476a2.0751,2.0751,0,1,0-2.9339-.066,2.0775,2.0775,0,0,0,2.9339.066C166.23,194.5571,164.576,196.1383,165.403,195.3476ZM162.8718,192.7a1.588,1.588,0,1,1-.05,2.2452,1.59,1.59,0,0,1,.05-2.2452Z"/><path class="e" d="M182.0632,200.8258a2.0751,2.0751,0,1,0-1.4525,2.55,2.0777,2.0777,0,0,0,1.4525-2.55C181.7606,199.7224,182.3657,201.9292,182.0632,200.8258Zm-3.5327.9686a1.588,1.588,0,1,1,1.9514,1.1116,1.5895,1.5895,0,0,1-1.9514-1.1116Z"/><path class="e" d="M194.46,210.8346a2.0751,2.0751,0,1,0-.5585,2.881,2.0775,2.0775,0,0,0,.5585-2.881C193.82,209.8864,195.1,211.7828,194.46,210.8346Zm-3.0358,2.05a1.588,1.588,0,1,1,2.2047.4274,1.5894,1.5894,0,0,1-2.2047-.4274C190.9338,212.1586,191.914,213.61,191.4239,212.8844Z"/><path class="e" d="M195.3573,204.0789a2.0751,2.0751,0,1,0,2.0751-2.0751,2.0776,2.0776,0,0,0-2.0751,2.0751Zm3.663,0a1.588,1.588,0,1,1-1.5879-1.588,1.5894,1.5894,0,0,1,1.5879,1.588Z"/><path class="e" d="M225.5631,203.2586a2.0751,2.0751,0,1,0-2.075,2.0751,2.0775,2.0775,0,0,0,2.075-2.0751Zm-3.663,0a1.588,1.588,0,1,1,1.588,1.588,1.59,1.59,0,0,1-1.588-1.588Z"/><path class="e" d="M230.6131,192.58a2.0751,2.0751,0,1,0-2.0751-2.0751,2.0776,2.0776,0,0,0,2.0751,2.0751Zm0-3.6631a1.588,1.588,0,1,1-1.588,1.588,1.59,1.59,0,0,1,1.588-1.588Z"/><path class="e" d="M247.3646,183.224a2.0751,2.0751,0,1,0,2.0751-2.0751,2.0775,2.0775,0,0,0-2.0751,2.0751Zm3.6631,0a1.588,1.588,0,1,1-1.588-1.588,1.5895,1.5895,0,0,1,1.588,1.588Z"/><path class="e" d="M248.9716,215.5257a2.0751,2.0751,0,1,0,2.0751,2.0751,2.0776,2.0776,0,0,0-2.0751-2.0751Zm0,3.6631a1.588,1.588,0,1,1,1.588-1.588,1.59,1.59,0,0,1-1.588,1.588Z"/><path class="e" d="M258.7834,195.6916a2.0751,2.0751,0,1,0-2.9346.0113,2.0776,2.0776,0,0,0,2.9346-.0113Zm-2.6-2.58a1.5879,1.5879,0,1,1,.0087,2.2457,1.5895,1.5895,0,0,1-.0087-2.2457Z"/><path class="e" d="M276.5862,207.9136a2.0751,2.0751,0,1,0-2.6937,1.1644,2.0777,2.0777,0,0,0,2.6937-1.1644C277.0077,206.85,276.1646,208.9772,276.5862,207.9136Zm-3.4053-1.35a1.5879,1.5879,0,1,1,.8911,2.0614,1.59,1.59,0,0,1-.8911-2.0614C273.5036,205.75,272.8582,207.378,273.1809,206.5638Z"/><path class="e" d="M312.0043,215.5257a2.0751,2.0751,0,1,0,2.0751,2.0751,2.0776,2.0776,0,0,0-2.0751-2.0751Zm0,3.6631a1.588,1.588,0,1,1,1.5879-1.588,1.59,1.59,0,0,1-1.5879,1.588Z"/><path class="e" d="M299.2625,194.0467a2.0751,2.0751,0,1,0,2.0751,2.0751,2.0776,2.0776,0,0,0-2.0751-2.0751Zm0,3.663a1.588,1.588,0,1,1,1.5879-1.5879,1.5895,1.5895,0,0,1-1.5879,1.5879Z"/><path class="e" d="M327.5542,216.0458a2.0751,2.0751,0,1,0,2.0751,2.0751,2.0776,2.0776,0,0,0-2.0751-2.0751Zm0,3.663a1.588,1.588,0,1,1,1.588-1.5879,1.5894,1.5894,0,0,1-1.588,1.5879Z"/><path class="e" d="M153.6832,217.6008a1.8478,1.8478,0,0,1,.0166-.2436h-5.0665V201.7906a5.5162,5.5162,0,0,0-5.86-5.9124,6.724,6.724,0,0,0-5.7637,2.8075.2438.2438,0,0,0-.0446.1405v18.531h-6.6379V202.0986a.2436.2436,0,0,0-.4871,0v15.5022a.2436.2436,0,0,0,.2436.2436h7.125a.2436.2436,0,0,0,.2435-.2436V198.9043a6.2627,6.2627,0,0,1,5.3212-2.5389,5.3535,5.3535,0,0,1,3.9223,1.4747,5.4736,5.4736,0,0,1,1.451,3.9505v15.81a.2436.2436,0,0,0,.2436.2436h5.31A1.8478,1.8478,0,0,1,153.6832,217.6008Z"/><path class="e" d="M121.85,192.8164a10.11,10.11,0,0,0-3.4708-2.2681,11.4236,11.4236,0,0,0-2.5909-.6791c.0024.0383.004.0768.004.1157a1.84,1.84,0,0,1-.0379.3721c5.19.7578,8.6764,4.8188,8.6764,10.3935v16.6067h-6.6379V201.7906a5.5162,5.5162,0,0,0-5.86-5.9124,6.7239,6.7239,0,0,0-5.7638,2.8075.2436.2436,0,0,0,.398.281,6.2558,6.2558,0,0,1,5.3658-2.6013,5.3534,5.3534,0,0,1,3.9222,1.4747,5.4736,5.4736,0,0,1,1.451,3.9505v15.81a.2436.2436,0,0,0,.2435.2436h7.125a.2436.2436,0,0,0,.2436-.2436v-16.85a12.1236,12.1236,0,0,0-.8059-4.4479A10.1579,10.1579,0,0,0,121.85,192.8164Z"/><path class="e" d="M106.3681,211.05a1.8454,1.8454,0,0,1-.2436-.0167v6.3238H99.4866V190.7486h6.6379v1.8887a.2436.2436,0,0,0,.4871,0V190.505a.2436.2436,0,0,0-.2435-.2436h-7.125A.2436.2436,0,0,0,99,190.505v27.0958a.2436.2436,0,0,0,.2436.2436h7.125a.2436.2436,0,0,0,.2435-.2436v-6.5674A1.8451,1.8451,0,0,1,106.3681,211.05Z"/><path class="e" d="M173.613,189.7933a14.1981,14.1981,0,0,0-8.4074,2.7039c.03.0273.0591.0553.0874.0849a1.8347,1.8347,0,0,1,.2261.29,13.715,13.715,0,0,1,8.0939-2.5911,12.6344,12.6344,0,0,1,9.4161,4.0819,14.9976,14.9976,0,0,1,3.7583,10.2366v1.6287H166.8521a.2436.2436,0,0,0-.2338.3119,8.0539,8.0539,0,0,0,7.9309,5.844,8.8336,8.8336,0,0,0,5.9828-2.0966l4.3041,3.9216a15.9467,15.9467,0,0,1-10.599,3.6687,14.5527,14.5527,0,0,1-10.1933-3.9882,13.5025,13.5025,0,0,1-4.1251-9.81.2436.2436,0,0,0-.4872,0,13.985,13.985,0,0,0,4.274,10.1606,15.0368,15.0368,0,0,0,10.5316,4.1249,16.485,16.485,0,0,0,11.1272-3.955.2435.2435,0,0,0,.01-.3691l-4.6806-4.2646a.2438.2438,0,0,0-.3331.0047,8.2711,8.2711,0,0,1-5.8118,2.1161,7.5755,7.5755,0,0,1-7.3653-5.1817h19.847a.2436.2436,0,0,0,.2436-.2435V204.599a15.4825,15.4825,0,0,0-3.8869-10.5664A13.1164,13.1164,0,0,0,173.613,189.7933Z"/><path class="e" d="M177.7544,197.2481a6.63,6.63,0,0,0-4.2974-1.5779,7.0606,7.0606,0,0,0-6.8923,5.6418.2436.2436,0,1,0,.4708.125,7.4,7.4,0,0,1,2.3515-3.8536,6.2842,6.2842,0,0,1,4.07-1.4261,6.1489,6.1489,0,0,1,3.9849,1.4645,7.1653,7.1653,0,0,1,1.7287,2.1527,1.836,1.836,0,0,1,.407-.1663c.0165-.0045.0331-.0082.05-.0122A7.6611,7.6611,0,0,0,177.7544,197.2481Z"/><path class="e" d="M60.464,208.6944a.25.25,0,0,0-.1779-.0744.2434.2434,0,0,0-.1762.0782,8.15,8.15,0,0,1-6.233,2.9378,1.8341,1.8341,0,0,1-.0512.4634l-.0064.0239.02,0a8.1988,8.1988,0,0,0,3.5219-.7507,9.73,9.73,0,0,0,2.929-2.1564l3.9271,4.0708a14.8009,14.8009,0,0,1-10.69,4.59,13.9891,13.9891,0,0,1-9.9311-3.9861,14.0087,14.0087,0,0,1,0-19.651,13.9521,13.9521,0,0,1,9.9306-4.0117,15.5834,15.5834,0,0,1,2.3619.18.2435.2435,0,1,0,.0741-.4814,16.0542,16.0542,0,0,0-2.436-.1862,14.4364,14.4364,0,0,0-10.2742,4.1534,14.4958,14.4958,0,0,0,0,20.3426,14.4725,14.4725,0,0,0,10.2737,4.127,15.3754,15.3754,0,0,0,6.1176-1.2881,15.217,15.217,0,0,0,5.0876-3.6276.2436.2436,0,0,0-.0043-.3336Z"/><path class="e" d="M131.9147,190.505a1.8478,1.8478,0,0,1-.0166.2436h5.0665v1.8887a.2435.2435,0,0,0,.3986.1878,11.3742,11.3742,0,0,1,7.438-2.5966c6.1646,0,10.47,4.3268,10.47,10.522v4.1882a.2436.2436,0,1,0,.4871,0v-4.1882a12.1236,12.1236,0,0,0-.8059-4.4479,10.0414,10.0414,0,0,0-5.7328-5.7543,12.49,12.49,0,0,0-11.7679,1.5858V190.505a.2436.2436,0,0,0-.2435-.2436h-5.31A1.8478,1.8478,0,0,1,131.9147,190.505Z"/><path class="e" d="M85.9171,209.8114a8.267,8.267,0,0,0,2.2317-5.7325,8.3514,8.3514,0,0,0-2.2317-5.7975,7.5113,7.5113,0,0,0-5.5009-2.3512,7.8642,7.8642,0,0,0-7.7326,8.1487.2436.2436,0,0,0,.4871,0,7.3828,7.3828,0,0,1,7.2455-7.6616,7.0288,7.0288,0,0,1,5.1476,2.2,7.8663,7.8663,0,0,1,2.0979,5.4621,7.453,7.453,0,0,1-5.4736,7.3888,1.8322,1.8322,0,0,1,.06.4643l-.0006.0228A7.5238,7.5238,0,0,0,85.9171,209.8114Z"/><path class="e" d="M211.4936,208.6944a.2436.2436,0,0,0-.3541.0038,8.1469,8.1469,0,0,1-6.27,2.9382,7.0838,7.0838,0,0,1-7.0087-5.7769,1.8327,1.8327,0,0,1-.4283.0509c-.02,0-.04-.0009-.06-.0015a7.5616,7.5616,0,0,0,7.4971,6.2147,8.1985,8.1985,0,0,0,3.5219-.7507,9.73,9.73,0,0,0,2.9291-2.1564l3.927,4.0708a14.802,14.802,0,0,1-10.69,4.59.2436.2436,0,1,0,0,.4871,15.3758,15.3758,0,0,0,6.1176-1.2881,15.217,15.217,0,0,0,5.0876-3.6276.2435.2435,0,0,0-.0044-.3336Z"/><path class="e" d="M94.6027,200.7228a1.8439,1.8439,0,0,1-.352.0963,14.03,14.03,0,0,1,.38,3.26,13.5389,13.5389,0,0,1-4.1126,9.81,14.7886,14.7886,0,0,1-20.2037,0,13.5393,13.5393,0,0,1-4.1126-9.81,13.8866,13.8866,0,0,1,14.2145-13.85,14.872,14.872,0,0,1,5.19.9172.2435.2435,0,1,0,.1694-.4566,15.3551,15.3551,0,0,0-5.3592-.9477,14.3684,14.3684,0,0,0-14.7016,14.3375,14.0224,14.0224,0,0,0,4.2606,10.16,15.2756,15.2756,0,0,0,20.882,0,14.0224,14.0224,0,0,0,4.2606-10.16,14.507,14.507,0,0,0-.4011-3.4048C94.6794,200.6913,94.6416,200.7079,94.6027,200.7228Z"/><path class="e" d="M63.35,193.1629c-.02.0386-.0418.0769-.0653.1146a1.837,1.837,0,0,1-.2174.2831,14.0864,14.0864,0,0,1,1.36,1.26l-4.0326,4.2727a8.9347,8.9347,0,0,0-6.7112-3.1629,7.2166,7.2166,0,0,0-5.36,2.3538,8.4874,8.4874,0,0,0-2.1642,5.7949,9.0208,9.0208,0,0,0,.2446,2.1046.2436.2436,0,1,0,.4737-.1137,8.5326,8.5326,0,0,1-.2312-1.9909,8.0019,8.0019,0,0,1,2.0353-5.4647,6.7345,6.7345,0,0,1,5.0021-2.1969,7.6769,7.6769,0,0,1,3.4617.7942,10.2353,10.2353,0,0,1,3.0667,2.4021.2435.2435,0,0,0,.178.08.2376.2376,0,0,0,.18-.0764l4.3686-4.6287a.2436.2436,0,0,0,.0026-.3316A14.5615,14.5615,0,0,0,63.35,193.1629Z"/><path class="e" d="M238.31,190.2614h-5.8822a1.785,1.785,0,0,1,0,.4872h5.6387v5.4937H230.613a.2435.2435,0,0,0-.2435.2435V208.5a3.72,3.72,0,0,0,.9159,2.8759,4.351,4.351,0,0,0,3.0722.8522,10.9906,10.9906,0,0,0,3.5529-.533v5.309a22.2806,22.2806,0,0,1-5.2692.77c-2.94,0-5.1868-.6663-6.6779-1.9805a7.4017,7.4017,0,0,1-2.2318-5.8371.2436.2436,0,1,0-.4871,0,7.8634,7.8634,0,0,0,2.3968,6.2026c1.5827,1.3949,3.9378,2.1021,7,2.1021a22.2391,22.2391,0,0,0,5.585-.843.2438.2438,0,0,0,.1714-.2327V211.36a.2435.2435,0,0,0-.3206-.231,10.7079,10.7079,0,0,1-3.72.6115c-2.6176,0-3.501-.8178-3.501-3.2409v-11.77H238.31a.2436.2436,0,0,0,.2436-.2436V190.505A.2436.2436,0,0,0,238.31,190.2614Z"/><path class="e" d="M204.5574,189.7414a14.4361,14.4361,0,0,0-10.2742,4.1534,14.2374,14.2374,0,0,0-4.1674,10.1841,14.467,14.467,0,0,0,1.5,6.4716c.0322-.025.0651-.0494.0994-.0726a1.839,1.839,0,0,1,.3221-.1737,13.9849,13.9849,0,0,1-1.4342-6.2253,13.7534,13.7534,0,0,1,4.0238-9.8387,13.9521,13.9521,0,0,1,9.9306-4.0117,14.9887,14.9887,0,0,1,10.9,4.5919l-4.0327,4.2727a8.9344,8.9344,0,0,0-6.7111-3.1629,7.2076,7.2076,0,0,0-4.2026,1.3327.2436.2436,0,0,0,.2824.397,6.723,6.723,0,0,1,3.92-1.2426,8.5685,8.5685,0,0,1,6.5284,3.1963.2433.2433,0,0,0,.178.08.2386.2386,0,0,0,.18-.0764l4.3686-4.6287a.2436.2436,0,0,0,.0026-.3316A15.4582,15.4582,0,0,0,204.5574,189.7414Z"/><path class="e" d="M267.7458,195.93a7.8641,7.8641,0,0,0-7.7326,8.1487,8.267,8.267,0,0,0,2.2317,5.7325,7.5175,7.5175,0,0,0,5.5009,2.3642.2436.2436,0,1,0,0-.4872,7.646,7.646,0,0,1,0-15.2711,7.0286,7.0286,0,0,1,5.1476,2.2,7.8663,7.8663,0,0,1,2.0979,5.4621,8.3038,8.3038,0,0,1-.0948,1.2541,1.8407,1.8407,0,0,1,.4355.1133l.0376.0161a8.7816,8.7816,0,0,0,.1088-1.3835,8.351,8.351,0,0,0-2.2317-5.7975A7.5113,7.5113,0,0,0,267.7458,195.93Z"/><path class="e" d="M310.1728,217.6008a1.8478,1.8478,0,0,1,.0166-.2436h-5.0666V201.7906a.2436.2436,0,1,0-.4871,0v15.81a.2436.2436,0,0,0,.2436.2436h5.31A1.8478,1.8478,0,0,1,310.1728,217.6008Z"/><path class="e" d="M332.0368,207.9929a6.0093,6.0093,0,0,0-2.6782-.93l-5.1995-.78a10.9963,10.9963,0,0,1-5.9871-2.5363,6.699,6.699,0,0,1-2.0238-5.0761,7.3463,7.3463,0,0,1,2.9528-6.0665,13.2879,13.2879,0,0,1,8.0892-2.2711,19.6625,19.6625,0,0,1,5.7086.8411,20.1811,20.1811,0,0,1,5.07,2.3576l-3.1456,4.1941a16.1014,16.1014,0,0,0-8.3092-2.5231,6.8121,6.8121,0,0,0-2.7975.5234.2436.2436,0,1,0,.2032.4427,6.3291,6.3291,0,0,1,2.5943-.479,15.7856,15.7856,0,0,1,8.2484,2.5659.2435.2435,0,0,0,.32-.063l3.4325-4.5767a.2436.2436,0,0,0-.06-.3492,20.7033,20.7033,0,0,0-5.414-2.5588,20.1461,20.1461,0,0,0-5.85-.8621,13.7618,13.7618,0,0,0-8.3842,2.37,7.8177,7.8177,0,0,0-3.145,6.4542,7.1677,7.1677,0,0,0,2.1758,5.43,11.4624,11.4624,0,0,0,6.2488,2.6645l5.1994.78c2.225.3461,3.1744,1.0363,3.1744,2.3077,0,1.5652-2.0131,2.6169-5.0092,2.6169-2.792,0-5.4615-.9341-8.6557-3.0286a.2435.2435,0,0,0-.3286.0579l-3.5365,4.7327a.2435.2435,0,0,0,.0433.3363,19.3165,19.3165,0,0,0,10.7592,3.7371c-.006-.06-.0092-.1213-.0092-.1831a1.8424,1.8424,0,0,1,.0256-.3038,18.987,18.987,0,0,1-10.2861-3.4858l3.2573-4.359a15.9207,15.9207,0,0,0,8.7307,2.9834,8.3479,8.3479,0,0,0,3.9328-.8164,2.6059,2.6059,0,0,0,1.5635-2.2876A2.1858,2.1858,0,0,0,332.0368,207.9929Z"/><path class="e" d="M337.433,203.836a11.39,11.39,0,0,0-6.2541-2.65l-3.406-.5109a1.7967,1.7967,0,0,1-.0722.4817l3.4066.5111c5.1982.7643,8.061,3.4308,8.061,7.508a7.6836,7.6836,0,0,1-3.0965,6.0495.2436.2436,0,0,0,.3029.3815,8.1612,8.1612,0,0,0,3.2808-6.431A7.0141,7.0141,0,0,0,337.433,203.836Z"/><path class="e" d="M311.7607,200.7505v5.5525a.2436.2436,0,1,0,.4871,0v-5.5525a12.1236,12.1236,0,0,0-.8059-4.4479,10.0407,10.0407,0,0,0-5.7328-5.7543,12.49,12.49,0,0,0-11.7678,1.5857v-1.629a.2436.2436,0,0,0-.2436-.2436h-7.125a.2436.2436,0,0,0-.2436.2436v27.0958a.2436.2436,0,0,0,.2436.2436h7.125a.2436.2436,0,0,0,.2436-.2436V198.9042a5.95,5.95,0,0,1,3.5436-2.3411,1.834,1.834,0,0,1-.0539-.4413l.0012-.0474a6.4265,6.4265,0,0,0-3.9335,2.6113.2438.2438,0,0,0-.0446.1405v18.531h-6.6378V190.7486h6.6378v1.8887a.2435.2435,0,0,0,.3986.1878,11.3745,11.3745,0,0,1,7.4381-2.5966C307.4553,190.2285,311.7607,194.5553,311.7607,200.7505Z"/><path class="e" d="M245.3831,187.5241a4.3057,4.3057,0,0,0,3.8936-2.4762,1.8214,1.8214,0,0,1-.4881-.112,3.8124,3.8124,0,1,1-3.4055-5.525.2436.2436,0,1,0,0-.4871,4.3,4.3,0,0,0,0,8.6Z"/><path class="e" d="M223.2445,201.4438a1.7843,1.7843,0,0,1,.4871,0v-4.958a.2435.2435,0,0,0-.2435-.2435h-5.3213v-5.4937h5.3213a.2436.2436,0,0,0,.2435-.2436v-6.7223l6.6379-1.5021v1.8229a.2436.2436,0,1,0,.4871,0v-2.1277a.2436.2436,0,0,0-.2973-.2376l-7.125,1.6123a.2436.2436,0,0,0-.19.2375v6.6734h-5.3212a.2436.2436,0,0,0-.2436.2436v5.9808a.2436.2436,0,0,0,.2436.2436h5.3212Z"/><path class="e" d="M247.14,217.6008a1.8308,1.8308,0,0,1,.0167-.2436H242.09V190.7486h6.6379v16.0836a.2436.2436,0,1,0,.4871,0V190.505a.2436.2436,0,0,0-.2436-.2436h-7.125a.2436.2436,0,0,0-.2435.2436v27.0958a.2436.2436,0,0,0,.2435.2436h5.31A1.8308,1.8308,0,0,1,247.14,217.6008Z"/><path class="e" d="M267.7458,189.7414a14.9272,14.9272,0,0,0-9.2391,3.1023c.0319.0276.0634.056.0938.0862a1.8345,1.8345,0,0,1,.2306.2791,14.447,14.447,0,0,1,8.9147-2.9805,13.8866,13.8866,0,0,1,14.2145,13.85,13.54,13.54,0,0,1-4.1126,9.81,14.7886,14.7886,0,0,1-20.2037,0,13.5392,13.5392,0,0,1-4.1127-9.81.2436.2436,0,1,0-.4871,0,14.0224,14.0224,0,0,0,4.2606,10.16,15.2756,15.2756,0,0,0,20.882,0,14.0224,14.0224,0,0,0,4.2606-10.16A14.3684,14.3684,0,0,0,267.7458,189.7414Z"/><path class="e" d="M325.6342,202.6986a2.0751,2.0751,0,1,0-1.7444-2.36,2.0776,2.0776,0,0,0,1.7444,2.36Zm.5433-3.6226a1.588,1.588,0,1,1-1.8059,1.3348,1.59,1.59,0,0,1,1.8059-1.3348Z"/></g></g><path d="M184.48,28.5485h2.6377a1.3439,1.3439,0,0,1,1.4317,1.35,1.1948,1.1948,0,0,1-.7735,1.2261v.0136c.5274.1441.6778.6441.7119,1.1441a2.5534,2.5534,0,0,0,.2061,1.1582H187.618a5.89,5.89,0,0,1-.1709-1.1719c-.0752-.5137-.2744-.74-.8154-.74h-1.0752v1.9117H184.48Zm1.0762,2.2134h1.1777c.4864,0,.74-.2061.74-.6993,0-.4726-.2539-.6782-.74-.6782h-1.1777Z"/><path d="M190.2762,31.9054c.0274.624.3213.8975.87.8975a.7987.7987,0,0,0,.7666-.459h.8565a1.586,1.586,0,0,1-1.6572,1.1924,1.7305,1.7305,0,0,1-1.81-1.8633,1.78,1.78,0,1,1,3.5283.2324Zm1.582-.6162c-.0888-.4932-.3007-.7539-.7734-.7539a.7619.7619,0,0,0-.8086.7539Z"/><path d="M196.1327,32.9884h-.0137a1.1709,1.1709,0,0,1-1.0762.5479c-1.0683,0-1.5888-.9112-1.5888-1.8975a1.6427,1.6427,0,0,1,1.5683-1.8364,1.2171,1.2171,0,0,1,1.0479.5278h.0146V28.5485h.9727v4.8921h-.9248Zm-.85-2.4531c-.6377,0-.8565.5552-.8565,1.1309,0,.5546.2529,1.1367.8565,1.1367.6367,0,.8359-.5615.8359-1.1436C196.119,31.0831,195.9129,30.5353,195.2831,30.5353Z"/><path d="M199.8045,28.5485h1.0762v1.8774h1.98V28.5485h1.0762v4.8921H202.86V31.33h-1.98v2.11h-1.0762Z"/><path d="M204.93,30.9874c.0547-.9043.87-1.185,1.6651-1.185.7051,0,1.5547.1577,1.5547,1.0073v1.8428a1.8192,1.8192,0,0,0,.123.7881h-.9863a1.46,1.46,0,0,1-.0684-.3428,1.6141,1.6141,0,0,1-1.1924.4385c-.6777,0-1.206-.336-1.206-1.062.0146-1.61,2.3984-.7466,2.3574-1.5415,0-.4112-.2881-.48-.6309-.48-.3759,0-.6093.15-.6435.5341Zm2.2471.72a1.9362,1.9362,0,0,1-.8086.205c-.3017.0552-.5752.1651-.5752.521s.28.4522.5957.4522a.7205.7205,0,0,0,.7881-.8149Z"/><path d="M210.327,29.8986h.7119v.65h-.7119v1.7539c0,.3291.082.4111.4111.4111a1.3668,1.3668,0,0,0,.3008-.0273v.7607a3.741,3.741,0,0,1-.5683.0342c-.6026,0-1.1172-.13-1.1172-.8428v-2.09h-.5889v-.65h.5889V28.8361h.9736Z"/><path d="M211.8622,32.3849h1.0751v1.0557a1.17,1.17,0,0,1-1.0683,1.1367v-.4932a.6248.6248,0,0,0,.4863-.6435h-.4931Z"/><path d="M215.73,28.5485h1.0762v4.8921H215.73Z"/><path d="M217.8387,29.8986h.9248v.4931h.02a1.2488,1.2488,0,0,1,1.0821-.5893c1.0351,0,1.2949.5825,1.2949,1.46v2.1787h-.9727V31.44c0-.582-.164-.87-.623-.87-.5274,0-.7539.2949-.7539,1.0141v1.857h-.9727Z"/><path d="M224.4891,31.1452a.6506.6506,0,0,0-.7187-.61c-.6241,0-.8291.63-.8291,1.1514,0,.5136.1982,1.1162.8085,1.1162a.739.739,0,0,0,.7735-.7188h.9394a1.5834,1.5834,0,0,1-1.706,1.4522,1.7189,1.7189,0,0,1-1.7881-1.8155,1.7519,1.7519,0,0,1,1.8086-1.9184,1.5012,1.5012,0,0,1,1.665,1.3428Z"/><path d="M226.2069,32.3849h1.0752v1.0557h-1.0752Z"/><path class="g" d="M187.6659,39.1276a1.3993,1.3993,0,0,0-.0752.3491c0,.1309.0478.2129.165.2129.417,0,.9453-.8428.9453-1.5762a1.7868,1.7868,0,0,0-1.8574-1.7676,2.1874,2.1874,0,0,0,.0352,4.3711,2.2161,2.2161,0,0,0,1.6982-.8291h.4316a2.4757,2.4757,0,0,1-2.1435,1.2061,2.5625,2.5625,0,0,1-.0283-5.125,2.1963,2.1963,0,0,1,2.33,2.11,1.953,1.953,0,0,1-1.6035,1.9873.4224.4224,0,0,1-.4385-.4453h-.02a1.2038,1.2038,0,0,1-.85.459,1.0064,1.0064,0,0,1-.98-1.083,1.8246,1.8246,0,0,1,1.61-1.9453.7783.7783,0,0,1,.7666.5615l.1582-.4316h.4316Zm-1.877-.1782a.6061.6061,0,0,0,.5889.665c.5967,0,1.0625-.8911,1.0625-1.46a.63.63,0,0,0-.5547-.6367C186.2479,37.5177,185.7889,38.3537,185.7889,38.9494Z"/><path class="g" d="M190.1209,36.0856h2.3018c.9258,0,1.4873.4936,1.4873,1.2812a1.1614,1.1614,0,0,1-.85,1.24V38.62c.5684.11.6777.5346.7334,1.0078a2.4493,2.4493,0,0,0,.2871,1.35h-.7256c-.1855-.1992-.083-.7266-.1787-1.2061-.0752-.4726-.1846-.8838-.8154-.8838h-1.5889v2.09h-.6514Zm2.0079,2.2544c.6025,0,1.13-.1582,1.13-.87a.7708.7708,0,0,0-.87-.836h-1.6162V38.34Z"/><path class="g" d="M197.8563,39.8537a1.4184,1.4184,0,0,1-1.5147,1.206c-1.13,0-1.664-.7881-1.6982-1.8633a1.7008,1.7008,0,0,1,1.6641-1.8432c1.2539,0,1.6377,1.1714,1.6035,2.0278H195.26a1.0436,1.0436,0,0,0,1.1026,1.165.8446.8446,0,0,0,.9189-.6923Zm-.5615-.9864a1.0192,1.0192,0,0,0-1.0215-1,1.0043,1.0043,0,0,0-1.0137,1Z"/><path class="g" d="M201.867,40.9777h-.582v-.48h-.0137a1.1872,1.1872,0,0,1-1.1308.5615,1.6592,1.6592,0,0,1-1.63-1.8633,1.6359,1.6359,0,0,1,1.6162-1.8432,1.3576,1.3576,0,0,1,1.1445.5551h.0137V36.0856h.582Zm-1.6445-.4317c.7881,0,1.083-.6787,1.083-1.3359,0-.6924-.3154-1.3428-1.1172-1.3428-.7939,0-1.0615.6778-1.0615,1.37C199.1268,39.9015,199.47,40.546,200.2225,40.546Z"/><path class="g" d="M202.9676,36.0856h.6514v2.1035h2.5762V36.0856h.65v4.8921h-.65v-2.24H203.619v2.24h-.6514Z"/><path class="g" d="M211.0848,40.964a.82.82,0,0,1-.418.0957c-.3007,0-.4931-.1645-.4931-.5478a1.5523,1.5523,0,0,1-1.2471.5478c-.6435,0-1.1709-.2812-1.1709-.9932,0-.8017.5957-.98,1.1983-1.09.6376-.13,1.1923-.0752,1.1923-.52,0-.5137-.4248-.5889-.7881-.5889-.4931,0-.8564.15-.8837.6709h-.5821c.0342-.8769.7051-1.185,1.5-1.185.6377,0,1.3291.144,1.3291.9731v1.8223c0,.2739,0,.3974.1856.3974a.5814.5814,0,0,0,.1777-.0341Zm-.9453-1.8159c-.4522.3354-1.7676.0068-1.7676.8769,0,.3838.3291.521.6856.521.7666,0,1.082-.4726,1.082-.8017Z"/><path class="g" d="M212.5555,37.4357h.7051v.5137h-.7051v2.1992c0,.2739.0752.3149.4385.3149h.2666v.5142h-.4453c-.6026,0-.8418-.1236-.8418-.7744V37.9494H211.37v-.5137h.6035V36.3732h.582Z"/><path class="f" d="M237.428,31.0873a1.2221,1.2221,0,0,0-.6521-1.0935,1.2659,1.2659,0,0,0,.0724-.4248,1.1873,1.1873,0,0,0-1.1594-1.2142,1.096,1.096,0,0,0-.4057.0755,1.1385,1.1385,0,0,0-2.0871,0,1.0961,1.0961,0,0,0-.4055-.0755,1.1872,1.1872,0,0,0-1.1593,1.2142,1.2709,1.2709,0,0,0,.0722.4248,1.2437,1.2437,0,0,0-.0624,2.1516,1.3192,1.3192,0,0,0-.01.1562,1.1872,1.1872,0,0,0,1.1593,1.2142,1.1042,1.1042,0,0,0,.4055-.0753,1.1387,1.1387,0,0,0,2.0871,0,1.1041,1.1041,0,0,0,.4057.0753,1.1874,1.1874,0,0,0,1.1594-1.2142,1.298,1.298,0,0,0-.01-.1562A1.227,1.227,0,0,0,237.428,31.0873Zm-2.0089-1.0125-1.316,1.9736a.2278.2278,0,0,1-.3158.0632l-.0345-.0285L233.02,31.35a.2277.2277,0,0,1,.322-.322l.5368.5368,1.1618-1.7425a.2278.2278,0,0,1,.379.2527Z"/><path class="m" d="M177.3339,34.5652a3.6788,3.6788,0,0,1,.1272.7466c0,1.0328-1.16,1.6046-2.6849,1.6046-3.4478,0-6.4662-2.0175-6.4662-3.3521a1.3575,1.3575,0,0,1,.1112-.54c-1.2393.0636-2.8439.286-2.8439,1.7,0,2.32,5.4971,5.1793,9.85,5.1793,3.3365,0,4.1784-1.5092,4.1784-2.7007a3.2764,3.2764,0,0,0-2.2719-2.6374m-2.399.8421c.9216,0,2.2561-.1908,2.2561-1.287a1.0413,1.0413,0,0,0-.0229-.2522l-.549-2.385c-.1272-.5243-.2383-.7627-1.16-1.2234a10.7587,10.7587,0,0,0-2.7327-.969c-.4289,0-.5559.5559-1.0644.5559-.4924,0-.8579-.413-1.3186-.413-.4447,0-.7308.3018-.9532.9215,0,0-.62,1.7476-.6991,2.0016a.4593.4593,0,0,0-.0164.1431c0,.6792,2.6749,2.9075,6.26,2.9075"/><path d="M177.3339,34.5652a3.6788,3.6788,0,0,1,.1272.7466c0,1.0328-1.16,1.6046-2.6849,1.6046-3.4478,0-6.4662-2.0175-6.4662-3.3521a1.3575,1.3575,0,0,1,.1112-.54l.27-.6674a.4593.4593,0,0,0-.0164.1431c0,.6792,2.6749,2.9075,6.26,2.9075.9216,0,2.2561-.1908,2.2561-1.287a1.0413,1.0413,0,0,0-.0229-.2522l.1658.6971Z"/></g></svg>