<?xml version="1.0" encoding="utf-8"?>
<!-- Generator: Adobe Illustrator 24.3.0, SVG Export Plug-In . SVG Version: 6.00 Build 0)  -->
<svg version="1.1" id="a5995fff-262d-4ac9-999b-7c74e451ba4b"
	 xmlns="http://www.w3.org/2000/svg" xmlns:xlink="http://www.w3.org/1999/xlink" x="0px" y="0px" viewBox="0 0 360 180"
	 style="enable-background:new 0 0 360 180;" xml:space="preserve">
<style type="text/css">
	.st0{fill:#396EBD;}
	.st1{fill:#305DA2;}
	.st2{fill:#FFFFFF;}
</style>
<rect class="st0" width="360" height="180"/>
<g>
	<path class="st1" d="M40.9,14.8c0-4.9-0.4-9.9-1.1-14.8H9.9c1.1,4.8,1.6,9.9,1.6,14.8c0,11.4-3.3,25.1-11.5,33.2V80
		C29.5,71.9,40.9,42.2,40.9,14.8z"/>
	<path class="st1" d="M111.7,79.9L140.9,0H113L99.7,37.8c-1,2.9-1.9,5.9-2.6,8.9c-0.7-3-1.6-6-2.6-8.9L81.1,0H53.2l29.3,79.9H111.7z
		"/>
	<path class="st1" d="M200,82.2c16.3,0,28.3-6.7,37-17.3l-15.6-15.6c-6,7.1-11.9,10.1-21.4,10.1c-10.1,0-18.3-5-18.8-17.7H242
		c0.6-4.6,0.8-9.3,0.7-14c0-11.4-2.6-20.6-7.2-27.6h-71.9c-5.8,8.3-9,19.2-9,32.2C154.7,63.5,171.8,82.2,200,82.2z M198.8,5.4
		c11.2,0,16.8,5.8,18.1,15.8h-35.6C182.6,11.2,189.3,5.4,198.8,5.4z"/>
	<path class="st1" d="M289.3,79.9V28.3c0-15.3,7.8-19.7,16.4-19.7c7.8,0,12.7,3,17,6.5L324.8,0h-62.5l0,79.9H289.3z"/>
	<path class="st1" d="M66.6,112.5c-8.8,0-15.3,3.4-19.2,8.8v-6.5h-27V180h27v-35.6c3.2-3.3,7.1-5.8,14.5-5.8c11.5,0,17,9.1,17,23.8
		c0,7.5-1.6,13.5-4.5,17.6h29.5c1.3-5.3,2.1-11.1,2.1-17.6C105.9,129.7,89.7,112.5,66.6,112.5z"/>
	<path class="st1" d="M166.6,112.5c-16.8,0-30.9,5.2-40.8,11.9l8.4,20.7c10.1-6.7,19.9-10.1,30.5-10.1c9.3,0,15.5,4.5,15.5,13.4v5.2
		c-5.4-2.4-11.5-3.4-20.9-3.4c-18.5,0-38,9.4-38.5,29.7h26.5c0.7-6.1,7.9-8.1,16.7-8.1c5.5-0.1,10.9,0.7,16.2,2.2v5.8H207v-30.2
		C207,117,184.3,112.5,166.6,112.5z"/>
	<path class="st1" d="M269.8,151.3c-9.9-2.4-18.6-6.1-18.6-10.4c0-4.1,4.5-6.1,11.2-6.1c6.1,0,11.2,1.5,18.2,8l17.6-14.3
		c-7.5-8.4-19-15.8-35.8-15.8c-19.2,0-35.4,9.7-35.4,27s11.9,24.6,33.7,31.9c9.1,3.4,14,5.5,15.6,8.6H301
		C299.6,162.1,283.3,155.7,269.8,151.3z"/>
	<path class="st1" d="M241.1,179.4l-0.7,0.6h1.4C241.5,179.8,241.3,179.6,241.1,179.4z"/>
	<path class="st1" d="M332.4,179.4l-0.7,0.6h1.4C332.8,179.8,332.6,179.6,332.4,179.4z"/>
	<path class="st1" d="M318.2,139.5c0,17.3,11.9,24.6,33.7,31.9c3.2,1.2,5.9,2.2,8.1,3.2V151c-9.4-2.4-17.6-6-17.6-10.2
		c0-4.1,4.5-6.1,11.2-6.1c2.2,0,4.3,0.2,6.4,0.8v-22.6c-2-0.2-4.2-0.4-6.4-0.4C334.4,112.5,318.2,122.2,318.2,139.5z"/>
</g>
<path class="st2" d="M124,79c0-4.8,2.3-10.1,8.6-10.1s8.6,5.3,8.6,10.1s-2.2,10.1-8.6,10.1S124,83.8,124,79z M137.7,79
	c0-3.2-1.3-6.9-5.1-6.9s-5.1,3.9-5.1,6.9c0,3.2,1.3,6.9,5.1,6.9S137.8,82,137.7,79L137.7,79z"/>
<path class="st2" d="M142.4,74.4h3.3l3.2,8.9c0.1,0.4,0.3,0.8,0.4,1.3c0.1-0.4,0.2-0.9,0.4-1.3l3.1-8.9h3.3l-5.2,14.3h-3.2
	L142.4,74.4z"/>
<path class="st2" d="M156.6,81.6c0-4.7,2.6-7.5,6.6-7.5c3.4,0,6.2,2.1,6.2,6.7c0,0.7,0,1.3-0.1,2h-9.5c0,1.9,1.5,3.4,3.4,3.4l0,0
	c1.2,0,2.3-0.5,3-1.5l2.1,2.1c-1.3,1.5-3.1,2.3-5.1,2.2C159.1,89.1,156.6,86.3,156.6,81.6z M166.2,80.1c-0.2-2.1-1.5-3.1-3-3.1
	c-1.7-0.2-3.2,1.1-3.3,2.8c0,0.1,0,0.2,0,0.4H166.2z"/>
<path class="st2" d="M171.8,74.4h3.3v1.5c0.5-1.2,1.7-1.9,2.9-1.8c1,0,1.9,0.4,2.7,1l-0.5,3c-0.7-0.5-1.6-0.8-2.4-0.8
	c-1.3,0-2.7,0.7-2.7,3.4v8h-3.3L171.8,74.4z"/>
<path class="st2" d="M186.5,87.6v5.3l-3.3,1.5V74.4h3.3v1.1c0.8-1,2-1.5,3.3-1.4c3.6,0,5.9,2.7,5.9,7.5s-2.4,7.5-5.9,7.5
	C188.5,89.1,187.3,88.6,186.5,87.6z M192.4,81.6c0-2.6-1.1-4.4-3.1-4.4c-1.1-0.1-2.2,0.5-2.8,1.4v5.9c0.6,0.9,1.7,1.4,2.8,1.4
	C191.2,86,192.4,84.4,192.4,81.6L192.4,81.6z"/>
<path class="st2" d="M206.9,87.6c-1,1-2.4,1.5-3.8,1.5c-2.9,0-5.2-1.6-5.2-4.8c0-3.3,2.8-4.7,5.6-4.7c1.2,0,2.3,0.2,3.4,0.8v-0.8
	c0-1.9-0.9-2.6-2.8-2.6c-1.5,0-3,0.4-4.2,1.3l-1-2.7c1.7-1.1,3.6-1.6,5.6-1.6c2.5,0,5.7,0.6,5.7,5.4v9.2h-3.2L206.9,87.6z
	 M206.9,84.8V83c-0.9-0.4-1.9-0.6-2.9-0.6c-1.6,0-2.9,0.6-2.9,1.9c0,1.1,0.9,1.9,2.6,1.9C204.9,86.2,206,85.7,206.9,84.8z"/>
<path class="st2" d="M212.6,86.6l2.2-1.9c0.9,0.9,2.1,1.5,3.3,1.5c1.3,0,2.3-0.4,2.3-1.4s-1.1-1.5-2.8-2.1c-3.1-1-4.7-2.2-4.7-4.7
	c0-2.6,2.3-4,5.1-4c2-0.1,3.8,0.8,5.1,2.2l-2.3,1.8c-0.7-0.8-1.8-1.2-2.9-1.2c-1.2,0-1.9,0.4-1.9,1.2s1.3,1.4,2.8,1.9
	c2.8,0.9,4.7,2.1,4.7,4.8s-2.2,4.2-5.5,4.2C216,89.2,214,88.3,212.6,86.6z"/>
<path class="st2" d="M225.2,86.6l2.2-1.9c0.9,0.9,2.1,1.5,3.3,1.5c1.3,0,2.3-0.4,2.3-1.4s-1.1-1.5-2.8-2.1c-3.1-1-4.7-2.2-4.7-4.7
	c0-2.6,2.3-4,5.1-4c2-0.1,3.8,0.8,5.1,2.2l-2.3,1.8c-0.7-0.8-1.8-1.2-2.9-1.2c-1.2,0-1.9,0.4-1.9,1.2s1.3,1.4,2.8,1.9
	c2.8,0.9,4.7,2.1,4.7,4.8s-2.2,4.2-5.5,4.2C228.6,89.2,226.6,88.3,225.2,86.6z"/>
<path class="st2" d="M106.5,105.1h1v7.4h4.1v1h-5.2L106.5,105.1z"/>
<path class="st2" d="M112.6,110.4c0-2,1.1-3.2,2.7-3.2s2.7,1.2,2.7,3.2s-1.1,3.2-2.7,3.2S112.6,112.5,112.6,110.4z M117,110.4
	c0-1.4-0.6-2.2-1.7-2.2s-1.7,0.8-1.7,2.3s0.6,2.2,1.7,2.2S117,111.8,117,110.4L117,110.4z"/>
<path class="st2" d="M119.7,107.4h1v0.8c0.2-0.6,0.8-1,1.4-1c0.4,0,0.7,0.1,1,0.3l-0.2,1c-0.3-0.2-0.6-0.3-0.9-0.3
	c-0.6,0-1.4,0.4-1.4,1.8v3.5h-1L119.7,107.4z"/>
<path class="st2" d="M124,110.4c0-2,1.1-3.2,2.7-3.2c1.4,0,2.5,0.9,2.5,2.9c0,0.2,0,0.4,0,0.7h-4.2c-0.1,1,0.7,1.8,1.7,1.9
	c0,0,0,0,0,0c0.5,0,1-0.2,1.3-0.6l0.6,0.7c-0.5,0.5-1.3,0.8-2,0.8C125.1,113.7,124,112.3,124,110.4z M128.2,110
	c0-1.4-0.8-1.8-1.5-1.8c-0.9,0-1.6,0.5-1.7,1.8H128.2z"/>
<path class="st2" d="M138,109.8c0-0.8-0.3-1.6-1.2-1.6s-1.3,0.7-1.3,1.6v3.7h-1v-3.7c0-0.8-0.3-1.6-1.2-1.6s-1.3,0.6-1.3,1.6v3.7h-1
	v-6.1h1v0.6c0.4-0.5,1-0.7,1.6-0.7c0.7,0,1.3,0.3,1.6,0.9c0.7-1,2.1-1.2,3-0.5c0.6,0.4,0.9,1.1,0.9,1.8v4H138V109.8z"/>
<path class="st2" d="M143.7,105.6c0-0.4,0.2-0.7,0.6-0.7c0.4,0,0.7,0.2,0.7,0.6c0,0.1,0,0.1,0,0.2c0,0.4-0.4,0.6-0.7,0.6
	C143.9,106.2,143.7,105.9,143.7,105.6z M143.8,107.4h1v6.1h-1V107.4z"/>
<path class="st2" d="M147.9,112.9v2.5l-1,0.5v-8.6h1v0.5c0.4-0.4,1-0.7,1.6-0.7c1.6,0,2.5,1.2,2.5,3.2s-1,3.2-2.5,3.2
	C148.8,113.7,148.3,113.4,147.9,112.9z M150.9,110.4c0-1.3-0.6-2.2-1.6-2.2c-0.6,0-1.2,0.3-1.4,0.8v2.8c0.3,0.5,0.9,0.8,1.4,0.8
	C150.3,112.7,150.9,111.9,150.9,110.4L150.9,110.4z"/>
<path class="st2" d="M153.2,112.6l0.7-0.6c0.4,0.4,0.9,0.7,1.5,0.7c0.6,0,1.1-0.2,1.1-0.8s-0.7-0.9-1.4-1.2
	c-1.1-0.4-1.9-0.9-1.9-1.9s0.9-1.6,2.1-1.6c0.8,0,1.5,0.3,2.1,0.9l-0.7,0.6c-0.3-0.4-0.8-0.6-1.4-0.6c-0.6,0-1,0.2-1,0.7
	s0.6,0.8,1.3,1c1.1,0.4,2,0.9,2,2s-0.9,1.7-2.2,1.7C154.6,113.6,153.8,113.3,153.2,112.6z"/>
<path class="st2" d="M163,112.9c-0.4,0.5-0.9,0.8-1.6,0.7c-1.4,0-2.2-0.8-2.2-2.7v-3.5h1.1v3.7c0,1.2,0.6,1.6,1.3,1.6
	s1.4-0.4,1.4-1.6v-3.7h1v6.1h-1V112.9z"/>
<path class="st2" d="M173.2,109.8c0-0.8-0.3-1.6-1.2-1.6c-0.8,0-1.3,0.7-1.3,1.6v3.7h-1v-3.7c0-0.8-0.3-1.6-1.2-1.6
	s-1.3,0.6-1.3,1.6v3.7h-1v-6.1h1v0.6c0.4-0.5,1-0.7,1.6-0.7c0.7,0,1.3,0.3,1.6,0.9c0.7-1,2.1-1.2,3-0.5c0.6,0.4,0.9,1.1,0.9,1.8v4
	h-1.1L173.2,109.8z"/>
<path class="st2" d="M178.6,110.4c0-2,1-3.2,2.5-3.2c0.6,0,1.1,0.2,1.6,0.6v-2.5l1-0.5v8.7h-1V113c-0.4,0.4-1,0.6-1.6,0.6
	C179.6,113.7,178.6,112.4,178.6,110.4z M182.7,111.9V109c-0.3-0.5-0.8-0.8-1.4-0.8c-1,0-1.6,0.8-1.6,2.2c0,1.3,0.6,2.2,1.6,2.2
	C181.9,112.7,182.4,112.4,182.7,111.9L182.7,111.9z"/>
<path class="st2" d="M185.4,110.4c0-2,1.1-3.2,2.7-3.2s2.7,1.2,2.7,3.2s-1.1,3.2-2.7,3.2S185.4,112.5,185.4,110.4z M189.7,110.4
	c0-1.4-0.6-2.2-1.6-2.2s-1.7,0.8-1.7,2.3s0.6,2.2,1.7,2.2S189.7,111.8,189.7,110.4L189.7,110.4z"/>
<path class="st2" d="M192.5,105.3l1-0.5v8.7h-1V105.3z"/>
<path class="st2" d="M195.2,110.4c0-2,1.1-3.2,2.7-3.2s2.7,1.2,2.7,3.2s-1.1,3.2-2.7,3.2S195.2,112.5,195.2,110.4z M199.6,110.4
	c0-1.4-0.6-2.2-1.6-2.2s-1.7,0.8-1.7,2.3s0.6,2.2,1.7,2.2S199.6,111.8,199.6,110.4L199.6,110.4z"/>
<path class="st2" d="M202.2,107.4h1v0.8c0.2-0.6,0.8-1,1.4-1c0.3,0,0.7,0.1,0.9,0.3l-0.1,1c-0.3-0.2-0.6-0.3-0.9-0.3
	c-0.6,0-1.4,0.4-1.4,1.8v3.5h-1V107.4z"/>
<path class="st2" d="M209.3,112.6l0.7-0.6c0.4,0.4,0.9,0.7,1.5,0.7c0.6,0,1.1-0.2,1.1-0.8s-0.7-0.9-1.4-1.2
	c-1.1-0.4-1.9-0.9-1.9-1.9s0.9-1.6,2.1-1.6c0.8,0,1.6,0.3,2.1,0.9l-0.7,0.6c-0.3-0.4-0.8-0.6-1.4-0.6c-0.6,0-1,0.2-1,0.7
	s0.6,0.8,1.3,1c1.1,0.4,2,0.9,2,2s-0.9,1.7-2.2,1.7C210.7,113.6,209.9,113.3,209.3,112.6z"/>
<path class="st2" d="M215.2,105.6c0-0.4,0.3-0.7,0.7-0.7c0.4,0,0.6,0.3,0.6,0.7s-0.3,0.7-0.6,0.7C215.5,106.3,215.2,106,215.2,105.6
	z M215.4,107.4h1v6.1h-1V107.4z"/>
<path class="st2" d="M218.8,112.2v-3.9h-1v-0.9h1v-2l1-0.5v2.5h1.5v0.9h-1.5v3.6c0,0.5,0.1,0.8,0.6,0.8c0.3,0,0.6-0.1,0.9-0.3
	l-0.1,1c-0.4,0.2-0.8,0.3-1.2,0.3C219.1,113.7,218.8,113.1,218.8,112.2z"/>
<path class="st2" d="M229.2,112.9c-0.5,0.5-1.1,0.7-1.7,0.7c-1.1,0.1-2-0.6-2.1-1.7c0-0.1,0-0.2,0-0.4c0-1.1,0.9-2,2-2
	c0.1,0,0.2,0,0.3,0c0.6,0,1.1,0.1,1.6,0.4v-0.4c0-1.1-0.5-1.4-1.3-1.4c-0.6,0-1.3,0.2-1.8,0.6l-0.3-0.9c0.7-0.4,1.4-0.6,2.2-0.7
	c1.1-0.1,2.1,0.7,2.2,1.8c0,0.1,0,0.3,0,0.4v4.1h-1L229.2,112.9z M229.2,111.9v-1c-0.4-0.3-0.9-0.4-1.4-0.4c-0.8,0-1.4,0.3-1.4,1.1
	s0.5,1.1,1.3,1.1C228.3,112.8,228.9,112.4,229.2,111.9L229.2,111.9z"/>
<path class="st2" d="M239.2,109.8c0-0.8-0.3-1.6-1.2-1.6c-0.8,0-1.3,0.7-1.3,1.6v3.7h-1v-3.7c0-0.8-0.3-1.6-1.2-1.6
	s-1.3,0.6-1.3,1.6v3.7h-1v-6.1h1v0.6c0.4-0.5,1-0.7,1.6-0.7c0.7,0,1.3,0.3,1.6,0.9c0.7-1,2.1-1.2,3-0.5c0.6,0.4,0.9,1.1,0.9,1.9v4
	h-1L239.2,109.8z"/>
<path class="st2" d="M241.8,110.4c0-2,1.1-3.2,2.7-3.2c1.4,0,2.5,0.9,2.5,2.9c0,0.2,0,0.5,0,0.7h-4.1c0.1,1.1,0.8,1.9,1.7,1.9
	c0.5,0,1-0.2,1.3-0.6l0.6,0.7c-0.5,0.5-1.3,0.8-2,0.8C242.9,113.7,241.8,112.3,241.8,110.4z M246,110c0-1.4-0.8-1.8-1.5-1.8
	c-0.9,0-1.6,0.5-1.7,1.8H246z"/>
<path class="st2" d="M248.9,112.2v-3.9h-1v-0.9h1v-2l1-0.5v2.5h1.5v0.9h-1.5v3.6c0,0.5,0.1,0.8,0.6,0.8c0.3,0,0.6-0.1,0.9-0.3
	l-0.1,1c-0.4,0.2-0.8,0.3-1.2,0.3C249.2,113.7,248.9,113.1,248.9,112.2z"/>
<path class="st2" d="M252.5,112.8c0-0.5,0.4-0.8,0.8-0.8c0.5,0,0.8,0.4,0.8,0.8c0,0.5-0.4,0.8-0.8,0.8
	C252.9,113.7,252.5,113.3,252.5,112.8C252.5,112.9,252.5,112.9,252.5,112.8z"/>
</svg>
