<svg xmlns="http://www.w3.org/2000/svg" xmlns:xlink="http://www.w3.org/1999/xlink" width="750" height="240" viewBox="0 0 750 240"><defs><style>.a,.i,.k{fill:none;}.b{isolation:isolate;}.c{fill:#316dc1;}.d{fill:#261a4c;}.e{fill:#fff;}.f{clip-path:url(#a);}.g,.n{fill:#e00;}.g{mix-blend-mode:multiply;}.h{clip-path:url(#b);}.i,.k{stroke:#fff;stroke-width:0.75px;}.i{stroke-linecap:round;stroke-linejoin:round;}.j{clip-path:url(#c);}.k{stroke-miterlimit:10;}.l{clip-path:url(#d);}.m{clip-path:url(#e);}</style><clipPath id="a"><path class="a" d="M687.83,103.7834a20.905,20.905,0,0,0-8.2061-8.3379,24.2248,24.2248,0,0,0-12.08-2.9546q-13.1322,0-20.4843,11.4239V60.5832l-8.6661,1.8384v94.9351h8.6661v-47.27a20.52,20.52,0,0,1,7.3535-7.6158,19.316,19.316,0,0,1,9.98-2.6259q8.1385,0,12.9336,5.1206,4.7915,5.121,4.792,13.7876v38.604h8.6669v-41.23A25.24,25.24,0,0,0,687.83,103.7834ZM611.9349,107.46a24.6381,24.6381,0,0,0,5.1875-15.7569,26.0159,26.0159,0,0,0-3.6113-13.7216,24.2113,24.2113,0,0,0-10.2422-9.2574,33.7658,33.7658,0,0,0-15.166-3.2827h-28.1v91.9151h9.1914V117.8332h19.3027l19.8272,39.5235h10.2422L597.82,116.52A26.4754,26.4754,0,0,0,611.9349,107.46Zm-24.4882,2.4946h-18.252V73.5827h18.252q9.1889,0,14.8378,4.99,5.644,4.9914,5.6456,13.2622,0,8.2719-5.6456,13.1963T587.4467,109.9548Z"/></clipPath><clipPath id="b"><path class="a" d="M138.7884,65.4455l13.13-2.8887V97.2206a27.5211,27.5211,0,0,1,20.0889-8.01c15.3623,0,26.13,10.6355,26.13,26.1291v42.0166H185.0062V117.5724c0-10.5041-6.4336-16.938-16.5439-16.938-7.09,0-12.8672,3.02-16.544,8.666v48.0564h-13.13Z"/></clipPath><clipPath id="c"><circle class="a" cx="196.4094" cy="140.3319" r="37.5"/></clipPath><clipPath id="d"><path class="a" d="M390.1016,63.4763l14.8369-2.4946v41.36c4.9892-7.7465,12.08-11.8174,20.8769-11.8174,13.3926,0,22.7149,9.7168,22.7149,23.5035v43.33H433.6934v-39.128c0-9.5849-5.6455-15.7563-14.4434-15.7563-5.9082,0-10.7666,2.7573-14.3115,7.8779v47.0064H390.1016Z"/></clipPath><clipPath id="e"><path class="a" d="M303.7012,65.4455h40.8349c18.12,0,30.7246,11.292,30.7246,27.836,0,11.9487-7.09,21.271-18.12,25.21l19.3018,38.8658H358.98l-17.7256-36.7647H319.457v36.7647H303.7012ZM319.457,78.7073v29.28h23.7657c9.7168,0,16.15-5.7773,16.15-14.5747s-6.4335-14.7055-16.15-14.7055Z"/></clipPath></defs><g class="b"><rect class="c" width="750" height="240"/><circle class="d" cx="620.9994" cy="113.5412" r="37.5"/><path class="e" d="M560.0033,157.3568V65.4418h28.1a33.7661,33.7661,0,0,1,15.166,3.2827,24.2107,24.2107,0,0,1,10.2422,9.2571,26.0172,26.0172,0,0,1,3.6113,13.7217,24.6374,24.6374,0,0,1-5.1875,15.7568,26.4766,26.4766,0,0,1-14.1152,9.06l20.7471,40.8364H608.3246l-19.8272-39.5234H569.1947v39.5234Zm27.4433-47.4018q9.189,0,14.8379-4.9241,5.644-4.9241,5.6455-13.1963t-5.6455-13.2619q-5.6469-4.989-14.8379-4.99H569.1947V109.955Z"/><path class="e" d="M638.3929,157.3568V62.4218l8.666-1.8384v43.3315q7.3521-11.4239,20.4844-11.4238a24.2268,24.2268,0,0,1,12.08,2.9544,20.9048,20.9048,0,0,1,8.2061,8.3381,25.2393,25.2393,0,0,1,2.955,12.3428v41.23h-8.667V118.7526q0-8.6664-4.7919-13.7874-4.796-5.1207-12.9336-5.1208a19.3161,19.3161,0,0,0-9.98,2.626,20.5209,20.5209,0,0,0-7.3536,7.6159v47.2705Z"/><g class="f"><circle class="g" cx="620.9994" cy="113.5412" r="37.5"/></g><circle class="d" cx="397.9708" cy="89.1186" r="37.5"/><circle class="d" cx="196.4094" cy="140.3319" r="37.5"/><path class="e" d="M138.7884,65.4455l13.13-2.8887V97.2206a27.5211,27.5211,0,0,1,20.0889-8.01c15.3623,0,26.13,10.6355,26.13,26.1291v42.0166H185.0062V117.5724c0-10.5041-6.4336-16.938-16.5439-16.938-7.09,0-12.8672,3.02-16.544,8.666v48.0564h-13.13Z"/><g class="h"><circle class="g" cx="196.4094" cy="140.3319" r="37.5"/></g><path class="e" d="M53.8324,65.4455H95.5863c18.251,0,30.5937,11.0293,30.5937,27.1794,0,12.08-7.3535,21.4023-18.9072,25.21l20.4824,39.5219h-15.23L93.4857,119.6732H67.62v37.6836H53.8324ZM67.62,77.5253V108.25H94.4047c10.7666,0,17.8574-6.1711,17.8574-15.3623,0-9.3225-7.0908-15.3623-17.8574-15.3623Z"/><line class="i" x1="250" y1="24.5136" x2="250" y2="215.4864"/><line class="i" x1="500" y1="24.5136" x2="500" y2="215.4864"/><path class="e" d="M390.1016,63.4763l14.8369-2.4946v41.36c4.9892-7.7465,12.08-11.8174,20.8769-11.8174,13.3926,0,22.7149,9.7168,22.7149,23.5035v43.33H433.6934v-39.128c0-9.5849-5.6455-15.7563-14.4434-15.7563-5.9082,0-10.7666,2.7573-14.3115,7.8779v47.0064H390.1016Z"/><path class="e" d="M81.7236,205.803h3.73a2.5586,2.5586,0,0,1,2.8067,2.5429,2.3865,2.3865,0,0,1-1.6553,2.3028l1.7627,3.55H86.7725l-1.6192-3.3579H83.1621v3.3579H81.7236Zm1.4385,1.2114v2.6748H85.333a1.3439,1.3439,0,1,0,0-2.6748Z"/><path class="e" d="M92.1016,214.3186A3.0546,3.0546,0,0,1,89.043,211.2,2.96,2.96,0,0,1,91.97,208.094a2.8845,2.8845,0,0,1,2.8428,3.0942v.3359H90.374a1.8365,1.8365,0,0,0,1.8,1.6431,1.9518,1.9518,0,0,0,1.4268-.5639l.8877.8276A3.4742,3.4742,0,0,1,92.1016,214.3186Zm-1.7032-3.6221h3.13a1.6439,1.6439,0,0,0-1.57-1.499A1.6144,1.6144,0,0,0,90.3984,210.6965Z"/><path class="e" d="M100.5244,213.3952a2.31,2.31,0,0,1-1.8467.8633,3.0743,3.0743,0,0,1,.084-6.1167,2.2936,2.2936,0,0,1,1.751.7915v-3.31l1.3555-.2281v8.8033h-1.3438Zm-1.4385-.2758a1.7981,1.7981,0,0,0,1.4268-.66v-2.5308a1.8633,1.8633,0,0,0-1.4268-.6474,1.9238,1.9238,0,0,0,0,3.8379Z"/><path class="e" d="M106.3584,205.803h1.4395v3.538h4.1738v-3.538h1.4394v8.3955h-1.4394V210.6h-4.1738v3.5982h-1.4395Z"/><path class="e" d="M114.7832,212.4714c0-1.0791.875-1.7627,2.29-1.7627a3.7073,3.7073,0,0,1,1.6192.3716v-.66c0-.7915-.4551-1.1992-1.3789-1.1992a4.1574,4.1574,0,0,0-1.751.4678l-.48-.9834a5.7642,5.7642,0,0,1,2.4941-.6118c1.56,0,2.459.7915,2.459,2.1826v3.9219h-1.3437v-.6114a2.5079,2.5079,0,0,1-1.7871.7076A1.8942,1.8942,0,0,1,114.7832,212.4714Zm2.4941.8755a2.14,2.14,0,0,0,1.4151-.4917v-.9834a3.1116,3.1116,0,0,0-1.3906-.2876c-.7676,0-1.2481.3355-1.2481.8633C116.0537,212.9992,116.5342,213.3469,117.2773,213.3469Z"/><path class="e" d="M122.2461,209.2693h-1.2109v-1.08h1.2109v-1.6548l1.3555-.2881V208.19H125.28v1.08h-1.6787v3.0464c0,.5874.2275.8154.84.8154a2.4917,2.4917,0,0,0,.8154-.1441v1.14a4.2654,4.2654,0,0,1-1.164.168c-1.211,0-1.8467-.5757-1.8467-1.6792Z"/><path class="e" d="M129.3389,205.803h3.07a4.1978,4.1978,0,1,1,0,8.3955h-3.07Zm1.4384,1.2475v5.9009h1.667a2.9634,2.9634,0,0,0,0-5.9009Z"/><path class="e" d="M137.9062,206.1389a.8453.8453,0,0,1,1.69,0,.8454.8454,0,0,1-1.69,0Zm1.5225,8.06h-1.3545V208.19h1.3545Z"/><path class="e" d="M141.1943,212.5915a3.4626,3.4626,0,0,0,1.9307.6836c.72,0,1.2119-.3237,1.2119-.8037,0-.3716-.2519-.5757-.8281-.6836l-1.0674-.18c-1.1631-.2158-1.7393-.7558-1.7393-1.6552,0-1.1275.9239-1.8589,2.3272-1.8589a4.2269,4.2269,0,0,1,2.3623.72l-.6357.8872a3.2847,3.2847,0,0,0-1.8106-.5757c-.624,0-1.0312.2642-1.0312.7075,0,.3838.2158.5518.8515.66l1.0557.1919c1.1992.228,1.7744.78,1.7744,1.6792a2.2017,2.2017,0,0,1-2.4463,1.9551,4.0334,4.0334,0,0,1-2.5908-.8154Z"/><path class="e" d="M146.8467,208.19h1.331v.8637a2.2651,2.2651,0,0,1,1.8711-.9116,3.0737,3.0737,0,0,1-.0957,6.1167,2.2483,2.2483,0,0,1-1.7519-.78v3.2622h-1.3545Zm1.3545,1.7632V212.46a1.8457,1.8457,0,0,0,1.4394.66,1.9238,1.9238,0,0,0,0-3.8379A1.7644,1.7644,0,0,0,148.2012,209.9529Z"/><path class="e" d="M155.5332,214.1985h-1.3545v-8.5752l1.3545-.2281Z"/><path class="e" d="M156.9023,212.4714c0-1.0791.875-1.7627,2.29-1.7627a3.7068,3.7068,0,0,1,1.6191.3716v-.66c0-.7915-.4551-1.1992-1.3789-1.1992a4.1577,4.1577,0,0,0-1.751.4678l-.48-.9834a5.7649,5.7649,0,0,1,2.4942-.6118c1.56,0,2.459.7915,2.459,2.1826v3.9219h-1.3438v-.6114a2.5077,2.5077,0,0,1-1.7871.7076A1.8942,1.8942,0,0,1,156.9023,212.4714Zm2.4942.8755a2.14,2.14,0,0,0,1.415-.4917v-.9834a3.1113,3.1113,0,0,0-1.3906-.2876c-.7676,0-1.248.3355-1.248.8633C158.1729,212.9992,158.6533,213.3469,159.3965,213.3469Z"/><path class="e" d="M165.2178,214.2346l-2.2666-6.0449h1.5107l1.5235,4.4619,1.6787-4.4619H169.14l-2.8544,6.9922a2.032,2.032,0,0,1-2.1348,1.5835,2.8916,2.8916,0,0,1-.6836-.084v-1.1636a4.8694,4.8694,0,0,0,.5273.0479.9583.9583,0,0,0,.9717-.6954Z"/><path class="e" d="M340.1338,205.803h3.7295a2.5586,2.5586,0,0,1,2.8066,2.5429,2.3864,2.3864,0,0,1-1.6553,2.3028l1.7627,3.55h-1.5947l-1.6191-3.3579h-1.9912v3.3579h-1.4385Zm1.4385,1.2114v2.6748h2.1709a1.3439,1.3439,0,1,0,0-2.6748Z"/><path class="e" d="M350.5117,214.3186a3.0546,3.0546,0,0,1-3.0586-3.1182,2.96,2.96,0,0,1,2.9268-3.1064,2.8837,2.8837,0,0,1,2.8418,3.0942v.3359h-4.4375a1.8365,1.8365,0,0,0,1.8,1.6431,1.9514,1.9514,0,0,0,1.4267-.5639l.8877.8276A3.4739,3.4739,0,0,1,350.5117,214.3186Zm-1.7031-3.6221h3.13a1.6439,1.6439,0,0,0-1.57-1.499A1.6143,1.6143,0,0,0,348.8086,210.6965Z"/><path class="e" d="M358.9346,213.3952a2.31,2.31,0,0,1-1.8467.8633,3.0743,3.0743,0,0,1,.084-6.1167,2.2936,2.2936,0,0,1,1.751.7915v-3.31l1.3554-.2281v8.8033h-1.3437Zm-1.4385-.2758a1.7981,1.7981,0,0,0,1.4268-.66v-2.5308a1.8633,1.8633,0,0,0-1.4268-.6474,1.9238,1.9238,0,0,0,0,3.8379Z"/><path class="e" d="M364.7686,205.803h1.4394v3.538h4.1738v-3.538h1.44v8.3955h-1.44V210.6H366.208v3.5982h-1.4394Z"/><path class="e" d="M373.1934,212.4714c0-1.0791.875-1.7627,2.29-1.7627a3.7065,3.7065,0,0,1,1.6191.3716v-.66c0-.7915-.455-1.1992-1.3789-1.1992a4.157,4.157,0,0,0-1.7509.4678l-.4795-.9834a5.7642,5.7642,0,0,1,2.4941-.6118c1.56,0,2.459.7915,2.459,2.1826v3.9219h-1.3438v-.6114a2.5077,2.5077,0,0,1-1.7871.7076A1.8942,1.8942,0,0,1,373.1934,212.4714Zm2.4941.8755a2.14,2.14,0,0,0,1.415-.4917v-.9834a3.111,3.111,0,0,0-1.3906-.2876c-.7676,0-1.248.3355-1.248.8633C374.4639,212.9992,374.9443,213.3469,375.6875,213.3469Z"/><path class="e" d="M380.6562,209.2693h-1.2109v-1.08h1.2109v-1.6548l1.3555-.2881V208.19H383.69v1.08h-1.6787v3.0464c0,.5874.2276.8154.84.8154a2.4921,2.4921,0,0,0,.8154-.1441v1.14a4.2661,4.2661,0,0,1-1.1641.168c-1.2109,0-1.8467-.5757-1.8467-1.6792Z"/><path class="e" d="M387.041,205.803h7.0518v1.2475h-2.794v7.148h-1.4394v-7.148H387.041Z"/><path class="e" d="M396.7588,214.3186A3.0546,3.0546,0,0,1,393.7,211.2a2.96,2.96,0,0,1,2.9268-3.1064,2.8845,2.8845,0,0,1,2.8427,3.0942v.3359h-4.4385a1.8366,1.8366,0,0,0,1.8,1.6431,1.9515,1.9515,0,0,0,1.4267-.5639l.8877.8276A3.474,3.474,0,0,1,396.7588,214.3186Zm-1.7031-3.6221h3.13a1.6437,1.6437,0,0,0-1.57-1.499A1.6142,1.6142,0,0,0,395.0557,210.6965Z"/><path class="e" d="M402.0156,211.14l-2.1943-2.9507h1.583l1.4033,1.979,1.4033-1.979h1.5108l-2.1582,2.9145,2.3261,3.0943h-1.5947l-1.5117-2.1226-1.5107,2.1226h-1.5118Z"/><path class="e" d="M407.4883,209.2693h-1.211v-1.08h1.211v-1.6548l1.3554-.2881V208.19h1.6788v1.08h-1.6788v3.0464c0,.5874.2276.8154.84.8154a2.4917,2.4917,0,0,0,.8154-.1441v1.14a4.2654,4.2654,0,0,1-1.164.168c-1.211,0-1.8467-.5757-1.8467-1.6792Z"/><path class="e" d="M586.1919,205.803h3.7295a2.5586,2.5586,0,0,1,2.8066,2.5429,2.3864,2.3864,0,0,1-1.6552,2.3028l1.7626,3.55h-1.5947l-1.6191-3.3579H587.63v3.3579h-1.4385Zm1.4385,1.2114v2.6748h2.1709a1.3439,1.3439,0,1,0,0-2.6748Z"/><path class="e" d="M596.57,214.3186a3.0546,3.0546,0,0,1-3.0586-3.1182,2.96,2.96,0,0,1,2.9268-3.1064,2.8837,2.8837,0,0,1,2.8418,3.0942v.3359h-4.4375a1.8365,1.8365,0,0,0,1.8,1.6431,1.9514,1.9514,0,0,0,1.4267-.5639l.8877.8276A3.4739,3.4739,0,0,1,596.57,214.3186Zm-1.7031-3.6221h3.13a1.6439,1.6439,0,0,0-1.57-1.499A1.6143,1.6143,0,0,0,594.8667,210.6965Z"/><path class="e" d="M604.9932,213.3952a2.31,2.31,0,0,1-1.8467.8633,3.0742,3.0742,0,0,1,.084-6.1167,2.2932,2.2932,0,0,1,1.7509.7915v-3.31l1.3555-.2281v8.8033h-1.3437Zm-1.4385-.2758a1.7977,1.7977,0,0,0,1.4267-.66v-2.5308a1.8629,1.8629,0,0,0-1.4267-.6474,1.9238,1.9238,0,0,0,0,3.8379Z"/><path class="e" d="M610.8271,205.803h1.44v3.538H616.44v-3.538h1.44v8.3955h-1.44V210.6h-4.1738v3.5982h-1.44Z"/><path class="e" d="M619.252,212.4714c0-1.0791.875-1.7627,2.29-1.7627a3.7068,3.7068,0,0,1,1.6191.3716v-.66c0-.7915-.455-1.1992-1.3789-1.1992a4.1577,4.1577,0,0,0-1.751.4678l-.4794-.9834a5.7642,5.7642,0,0,1,2.4941-.6118c1.56,0,2.459.7915,2.459,2.1826v3.9219h-1.3438v-.6114a2.5077,2.5077,0,0,1-1.7871.7076A1.8942,1.8942,0,0,1,619.252,212.4714Zm2.4941.8755a2.14,2.14,0,0,0,1.415-.4917v-.9834a3.111,3.111,0,0,0-1.3906-.2876c-.7676,0-1.248.3355-1.248.8633C620.5225,212.9992,621.0029,213.3469,621.7461,213.3469Z"/><path class="e" d="M626.7148,209.2693h-1.2109v-1.08h1.2109v-1.6548l1.3555-.2881V208.19h1.6787v1.08H628.07v3.0464c0,.5874.2276.8154.84.8154a2.4925,2.4925,0,0,0,.8154-.1441v1.14a4.2661,4.2661,0,0,1-1.1641.168c-1.2109,0-1.8467-.5757-1.8467-1.6792Z"/><path class="e" d="M635.1387,207.614v6.5845h-1.3311V205.803h1.8711l2.458,5.0854,2.4473-5.0854h1.87v8.3955H641.1V207.65l-2.9746,5.9488Z"/><path class="e" d="M647.0654,208.094A3.1136,3.1136,0,1,1,644.043,211.2,3,3,0,0,1,647.0654,208.094Zm1.6787,3.1181a1.6982,1.6982,0,1,0-3.3574,0,1.6952,1.6952,0,1,0,3.3574,0Z"/><path class="e" d="M651.4951,208.19H652.85v.9839a2.1805,2.1805,0,0,1,1.9072-1.08,2.0222,2.0222,0,0,1,2.0752,2.1469v3.9576h-1.3554v-3.5738a1.2943,1.2943,0,0,0-1.3194-1.4394,1.541,1.541,0,0,0-1.3076.72v4.2935h-1.3545Z"/><path class="e" d="M661.2256,208.094a3.1136,3.1136,0,1,1-3.0225,3.1064A3,3,0,0,1,661.2256,208.094Zm1.6787,3.1181a1.6982,1.6982,0,1,0-3.3574,0,1.6952,1.6952,0,1,0,3.3574,0Z"/><g class="j"><rect class="k" x="195.6371" y="112.5468" width="5" height="5"/><circle class="k" cx="198.1371" cy="103.3578" r="1.5564"/><line class="k" x1="198.1371" y1="112.5468" x2="198.1371" y2="104.9143"/></g><g class="l"><circle class="g" cx="397.9708" cy="89.1186" r="37.5"/></g><path class="e" d="M303.7012,65.4455h40.8349c18.12,0,30.7246,11.292,30.7246,27.836,0,11.9487-7.09,21.271-18.12,25.21l19.3018,38.8658H358.98l-17.7256-36.7647H319.457v36.7647H303.7012ZM319.457,78.7073v29.28h23.7657c9.7168,0,16.15-5.7773,16.15-14.5747s-6.4335-14.7055-16.15-14.7055Z"/><g class="m"><circle class="n" cx="397.9708" cy="89.1186" r="37.5"/></g><rect class="k" x="387.6112" y="61.0119" width="5" height="5"/><rect class="k" x="402.4577" y="58.5119" width="5" height="5"/><circle class="k" cx="405.596" cy="104.6076" r="8.5546"/><line class="k" x1="184.9815" y1="133.3556" x2="184.9815" y2="138.0535"/><line class="k" x1="198.1371" y1="133.3556" x2="198.1371" y2="138.0535"/><line class="k" x1="185.0062" y1="135.7045" x2="198.1371" y2="135.7045"/><rect class="k" x="182.4536" y="154.8569" width="5" height="5"/><rect class="k" x="195.6636" y="154.8569" width="5" height="5"/><rect class="k" x="595.3032" y="114.0422" width="5" height="5"/><rect class="k" x="585.9769" y="115.3249" width="5" height="5"/><line class="k" x1="638.3929" y1="90.8153" x2="638.3929" y2="95.5131"/><line class="k" x1="617.1426" y1="93.1642" x2="638.3929" y2="93.1642"/><line class="k" x1="617.1179" y1="90.8153" x2="617.1179" y2="95.5131"/></g></svg>