<svg xmlns="http://www.w3.org/2000/svg" width="555" height="220" viewBox="0 0 555 220"><defs><style>.a{fill:#e2eaf6;}.b{fill:#fff;}.c{fill:#e00;}.d{fill:#a7c0e4;}.e{fill:none;stroke:#e00;stroke-miterlimit:10;stroke-width:0.5px;}</style></defs><rect class="a" width="555" height="220"/><rect class="b" x="254.4135" y="54.2084" width="211.2186" height="118.8104" rx="2"/><path class="c" d="M275.019,92.1821h1.5318v8.8545H282.43v1.3566H275.019Z"/><path class="c" d="M286.9546,94.8224a3.8584,3.8584,0,1,1-3.8657,3.8511A3.8107,3.8107,0,0,1,286.9546,94.8224Zm2.4219,3.8511a2.4335,2.4335,0,1,0-2.4219,2.582A2.4783,2.4783,0,0,0,289.3765,98.6735Z"/><path class="c" d="M292.1943,94.9682h1.4585v.9482a2.3241,2.3241,0,0,1,2.0425-1.1086,1.8546,1.8546,0,0,1,.7437.1167v1.313a2.4929,2.4929,0,0,0-.86-.1607,2.0273,2.0273,0,0,0-1.9258,1.3567v4.96h-1.4585Z"/><path class="c" d="M300.7148,102.5246a3.8207,3.8207,0,0,1-3.8945-3.8511,3.7309,3.7309,0,0,1,3.72-3.822,3.677,3.677,0,0,1,3.5884,3.88v.4231h-5.8642a2.5046,2.5046,0,0,0,2.5092,2.13,2.8888,2.8888,0,0,0,1.8819-.6565l.9336.919A4.4292,4.4292,0,0,1,300.7148,102.5246Zm-2.436-4.4639h4.4053a2.2147,2.2147,0,0,0-4.4053,0Z"/><path class="c" d="M305.5171,94.9682h1.4585v.7a2.849,2.849,0,0,1,2.0859-.846,2.5873,2.5873,0,0,1,2.2906,1.24,2.9731,2.9731,0,0,1,2.5087-1.24,2.72,2.72,0,0,1,2.7862,2.9029v4.6679h-1.4585v-4.42a1.6685,1.6685,0,0,0-1.7071-1.8818,1.9806,1.9806,0,0,0-1.7358.9919,3.0769,3.0769,0,0,1,.0586.6419v4.6679H310.36v-4.42a1.6681,1.6681,0,0,0-1.7066-1.8818,1.9462,1.9462,0,0,0-1.6777.9043v5.3974h-1.4585Z"/><path class="c" d="M321.2178,92.8676a.8966.8966,0,0,1,.89-.9043.9044.9044,0,1,1,0,1.8088A.8966.8966,0,0,1,321.2178,92.8676Zm1.6191,9.5256h-1.4585v-7.425h1.4585Z"/><path class="c" d="M324.5591,94.9682h1.4438v.7148a3.388,3.388,0,0,1,2.2759-.8315,3.8292,3.8292,0,1,1-2.2612,6.9289v3.6324h-1.4585Zm1.4585,2.0422v3.3553a2.7534,2.7534,0,0,0,2.0713.8752,2.5606,2.5606,0,0,0,0-5.12A2.6637,2.6637,0,0,0,326.0176,97.01Z"/><path class="c" d="M333.5039,100.4677a3.8908,3.8908,0,0,0,2.4214.9336c1.05,0,1.78-.4521,1.78-1.1086,0-.5252-.3794-.8316-1.1963-.9483l-1.3418-.1894c-1.4736-.219-2.2173-.9046-2.2173-2.0569,0-1.3421,1.167-2.2466,2.9028-2.2466a5.092,5.092,0,0,1,2.99.9482l-.7442.9627a4.1262,4.1262,0,0,0-2.3481-.773c-.89,0-1.4883.4085-1.4883,1.0064,0,.54.35.8025,1.2256.9336l1.3418.19c1.4736.219,2.2466.9192,2.2466,2.0715,0,1.3274-1.3418,2.334-3.107,2.334a4.8966,4.8966,0,0,1-3.2529-1.0942Z"/><path class="c" d="M341.6309,99.3737a1.74,1.74,0,0,0,1.8383,1.8963,2.0862,2.0862,0,0,0,1.8233-.9773V94.9682h1.4585v7.425h-1.4585v-.7439a3.0346,3.0346,0,0,1-2.232.89,2.7722,2.7722,0,0,1-2.8881-2.9174V94.9682h1.4585Z"/><path class="c" d="M348.4756,94.9682h1.4585v.7a2.849,2.849,0,0,1,2.0859-.846,2.5871,2.5871,0,0,1,2.2905,1.24,2.9728,2.9728,0,0,1,2.5088-1.24,2.72,2.72,0,0,1,2.7862,2.9029v4.6679H358.147v-4.42a1.6685,1.6685,0,0,0-1.7071-1.8818,1.9806,1.9806,0,0,0-1.7358.9919,3.0837,3.0837,0,0,1,.0586.6419v4.6679h-1.4443v-4.42a1.6681,1.6681,0,0,0-1.7066-1.8818,1.9462,1.9462,0,0,0-1.6777.9043v5.3974h-1.4585Z"/><circle class="d" cx="376.105" cy="97.4222" r="2.2386"/><circle class="d" cx="376.105" cy="109.6311" r="2.2386"/><circle class="d" cx="376.105" cy="121.84" r="2.2386"/><circle class="d" cx="376.105" cy="134.0489" r="2.2386"/><rect class="a" x="384.6903" y="95.1836" width="50.6983" height="4.4773"/><rect class="a" x="275.8858" y="61.4689" width="31.3868" height="4.4773"/><rect class="a" x="384.6903" y="107.3925" width="50.6983" height="4.4773"/><rect class="a" x="384.6903" y="119.6014" width="50.6983" height="4.4773"/><rect class="a" x="384.6903" y="131.8103" width="50.6983" height="4.4773"/><line class="e" x1="267.1872" y1="54.2084" x2="267.1872" y2="73.2066"/><line class="e" x1="267.1872" y1="163.5197" x2="267.1872" y2="173.0188"/><path class="c" d="M438.21,163.5841a1.9953,1.9953,0,0,1,.069.4049c0,.56-.6291.87-1.4562.87-1.87,0-3.507-1.0942-3.507-1.8181a.7359.7359,0,0,1,.06-.2929c-.6722.0345-1.5424.1551-1.5424.9219,0,1.258,2.9813,2.809,5.3423,2.809,1.81,0,2.2661-.8185,2.2661-1.4648a1.777,1.777,0,0,0-1.2322-1.43m-1.3011.4567c.5,0,1.2236-.1035,1.2236-.698a.566.566,0,0,0-.0124-.1368l-.2977-1.2935c-.069-.2843-.1293-.4136-.6291-.6635a5.8375,5.8375,0,0,0-1.4821-.5256c-.2326,0-.3015.3016-.5773.3016-.267,0-.4652-.224-.7151-.224-.2412,0-.3964.1636-.517.5,0,0-.3361.9478-.3792,1.0856a.25.25,0,0,0-.0088.0777c0,.3683,1.4507,1.5768,3.3951,1.5768"/><path d="M438.21,163.5841a1.9953,1.9953,0,0,1,.069.4049c0,.56-.6291.87-1.4562.87-1.87,0-3.507-1.0942-3.507-1.8181a.7359.7359,0,0,1,.06-.2929l.1464-.362a.25.25,0,0,0-.0088.0777c0,.3683,1.4507,1.5768,3.3951,1.5768.5,0,1.2236-.1035,1.2236-.698a.566.566,0,0,0-.0124-.1368l.09.3781Z"/><path d="M440.8482,165.09h.723v-1.0719h.5507l.5549,1.0719h.8071l-.6474-1.177a.89.89,0,0,0,.5549-.8281.9554.9554,0,0,0-1.0383-.9375h-1.5049V165.09Zm1.4376-2.3246a.3345.3345,0,1,1,0,.6642h-.7146v-.6642Zm1.1728,1.2148a1.1674,1.1674,0,0,0,1.2106,1.1518,1.3347,1.3347,0,0,0,.929-.3362l-.45-.3994a.6026.6026,0,0,1-.4456.1681.5747.5747,0,0,1-.5465-.3531h1.5848v-.1681a1.1425,1.1425,0,1,0-2.2826-.0631m1.1476-.5969a.4918.4918,0,0,1,.4666.3531h-.929a.4631.4631,0,0,1,.4624-.3531m3.0854,1.7067h.6726V162l-.681.1471v.8366a1.1459,1.1459,0,1,0-.5885,2.1354,1.0027,1.0027,0,0,0,.5969-.1933v.1639Zm-1.0635-1.114a.5631.5631,0,0,1,.5843-.5633.689.689,0,0,1,.4708.1724v.7777a.6541.6541,0,0,1-.4708.1765.5656.5656,0,0,1-.5843-.5633m2.7551,1.114h.7231v-1.1518h1.2106V165.09h.723v-2.9426h-.723v1.1308h-1.2106v-1.1308h-.7231V165.09Zm3.695.0378a1.0409,1.0409,0,0,0,.6138-.1723v.1345h.6726v-1.425c0-.5423-.3658-.8408-.9753-.8408a2.4738,2.4738,0,0,0-1.0383.2439l.2438.5a1.817,1.817,0,0,1,.6726-.1766c.2816,0,.4246.1093.4246.3321v.1093a1.9767,1.9767,0,0,0-.5045-.063c-.5717,0-.9164.24-.9164.6683a.7193.7193,0,0,0,.8071.6894m-.2078-.702c0-.1471.1472-.2186.37-.2186a1.71,1.71,0,0,1,.4035.05v.2858a.8588.8588,0,0,1-.4245.1051c-.2186,0-.349-.0841-.349-.2228m2.1162-.0126c0,.475.2859.7062.8071.7062a2.0889,2.0889,0,0,0,.4751-.0672v-.5507a.9905.9905,0,0,1-.3069.0462c-.2144,0-.2942-.0672-.2942-.269v-.8449h.6221v-.5675h-.6221v-.7189l-.6811.1472v.5717h-.45v.5675h.45v.9794Z"/><rect class="b" x="100.3954" y="19.1651" width="142.1896" height="181.6698" rx="2"/><path class="c" d="M118.0625,60.2653h1.2v6.9373h4.6055v1.063h-5.8057Z"/><path class="c" d="M127.4106,62.3339a3.023,3.023,0,1,1-3.0283,3.0174A2.9861,2.9861,0,0,1,127.4106,62.3339Zm1.8975,3.0174a1.9066,1.9066,0,1,0-1.8975,2.0229A1.9416,1.9416,0,0,0,129.3081,65.3513Z"/><path class="c" d="M131.5132,62.4482h1.143v.7429a1.82,1.82,0,0,1,1.6-.8684,1.4525,1.4525,0,0,1,.583.0913v1.0286a1.9563,1.9563,0,0,0-.6743-.1258,1.5874,1.5874,0,0,0-1.5084,1.063v3.8858h-1.143Z"/><path class="c" d="M138.1875,68.3683a2.9932,2.9932,0,0,1-3.0513-3.017,2.9228,2.9228,0,0,1,2.9141-2.9944,2.8806,2.8806,0,0,1,2.8115,3.04v.3315h-4.5942a1.962,1.962,0,0,0,1.9658,1.6685,2.2628,2.2628,0,0,0,1.4741-.5142l.7315.72A3.47,3.47,0,0,1,138.1875,68.3683Zm-1.9087-3.497h3.4517a1.7353,1.7353,0,0,0-3.4517,0Z"/><path class="c" d="M141.9468,62.4482h1.143v.5486a2.2328,2.2328,0,0,1,1.6343-.6629,2.0262,2.0262,0,0,1,1.794.9715,2.3306,2.3306,0,0,1,1.9658-.9715,2.1313,2.1313,0,0,1,2.1831,2.2744v3.6573h-1.1431V64.8027a1.3069,1.3069,0,0,0-1.3369-1.4744,1.5517,1.5517,0,0,0-1.36.7771,2.4025,2.4025,0,0,1,.0459.5029v3.6573h-1.1314V64.8027a1.307,1.307,0,0,0-1.3374-1.4744,1.524,1.524,0,0,0-1.314.7085v4.2288h-1.143Z"/><path class="c" d="M154.5063,60.2653h1.2v8h-1.2Z"/><path class="c" d="M157.2031,62.4482h1.1314v.56a2.6546,2.6546,0,0,1,1.7832-.6513,3,3,0,1,1-1.7715,5.4287v2.8457h-1.1431Zm1.1431,1.6v2.6286a2.1561,2.1561,0,0,0,1.6225.6858,2.0061,2.0061,0,0,0,0-4.0114A2.0855,2.0855,0,0,0,158.3462,64.0483Z"/><path class="c" d="M164.208,66.757a3.05,3.05,0,0,0,1.8975.7315c.8227,0,1.394-.3543,1.394-.8687,0-.4114-.2969-.6514-.937-.7429l-1.0513-.1485c-1.1543-.1716-1.7373-.7087-1.7373-1.6115,0-1.0515.9141-1.76,2.2744-1.76a3.9887,3.9887,0,0,1,2.3428.7429l-.583.7541a3.2328,3.2328,0,0,0-1.84-.6057c-.6973,0-1.1656.32-1.1656.7886,0,.4228.274.6287.96.7314l1.0513.1487c1.1543.1714,1.76.72,1.76,1.6228,0,1.04-1.0517,1.8286-2.4346,1.8286a3.8373,3.8373,0,0,1-2.5488-.8571Z"/><path class="c" d="M170.5737,65.9a1.3627,1.3627,0,0,0,1.44,1.4856,1.6345,1.6345,0,0,0,1.4287-.7656V62.4482h1.1426v5.8174h-1.1426v-.5828a2.3774,2.3774,0,0,1-1.7486.697,2.1718,2.1718,0,0,1-2.2631-2.2856v-3.646h1.143Z"/><path class="c" d="M175.9331,62.4482h1.1431v.5486a2.2325,2.2325,0,0,1,1.6342-.6629,2.0261,2.0261,0,0,1,1.794.9715,2.3307,2.3307,0,0,1,1.9658-.9715,2.1313,2.1313,0,0,1,2.1831,2.2744v3.6573H183.51V64.8027a1.307,1.307,0,0,0-1.337-1.4744,1.5518,1.5518,0,0,0-1.36.7771,2.3958,2.3958,0,0,1,.0459.5029v3.6573h-1.1314V64.8027a1.307,1.307,0,0,0-1.3374-1.4744,1.5237,1.5237,0,0,0-1.3139.7085v4.2288h-1.1431Z"/><path class="c" d="M122.3823,82.0019a2.7468,2.7468,0,0,1-1.7827.64,3,3,0,1,1,1.7715-5.4287V74.55l1.1431-.2514v8.2517h-1.1319Zm-1.6225-.3543a2.0961,2.0961,0,0,0,1.6113-.6972v-2.64a2.1269,2.1269,0,0,0-1.6113-.6858,2.0117,2.0117,0,0,0,0,4.0229Z"/><path class="c" d="M127.6274,76.6188a3.023,3.023,0,1,1-3.0283,3.0174A2.9862,2.9862,0,0,1,127.6274,76.6188Zm1.8975,3.0174a1.9066,1.9066,0,1,0-1.8975,2.0229A1.9416,1.9416,0,0,0,129.5249,79.6362Z"/><path class="c" d="M132.873,82.5505H131.73v-8l1.143-.2514Z"/><path class="c" d="M136.9868,76.6188a3.023,3.023,0,1,1-3.0283,3.0174A2.9862,2.9862,0,0,1,136.9868,76.6188Zm1.8975,3.0174a1.9066,1.9066,0,1,0-1.8975,2.0229A1.9416,1.9416,0,0,0,138.8843,79.6362Z"/><path class="c" d="M141.0894,76.7331h1.143v.7429a1.82,1.82,0,0,1,1.6-.8686,1.4516,1.4516,0,0,1,.583.0915v1.0286a1.9558,1.9558,0,0,0-.6743-.1258,1.5875,1.5875,0,0,0-1.5083,1.063v3.8858h-1.143Z"/><path class="c" d="M147.7861,81.0419a3.05,3.05,0,0,0,1.8975.7315c.8227,0,1.394-.3543,1.394-.8687,0-.4114-.2968-.6514-.937-.7429l-1.0512-.1484c-1.1543-.1717-1.7373-.7088-1.7373-1.6116,0-1.0515.914-1.76,2.2744-1.76a3.9887,3.9887,0,0,1,2.3427.7429l-.583.7541a3.2326,3.2326,0,0,0-1.84-.6057c-.6973,0-1.1655.32-1.1655.7886,0,.4229.2739.6287.96.7315l1.0513.1486c1.1543.1714,1.76.72,1.76,1.6228,0,1.04-1.0517,1.8287-2.4345,1.8287a3.8374,3.8374,0,0,1-2.5489-.8572Z"/><path class="c" d="M152.9062,75.0873a.7021.7021,0,0,1,.6968-.7085.7087.7087,0,0,1,0,1.4173A.7022.7022,0,0,1,152.9062,75.0873Zm1.2686,7.4632h-1.1431V76.7331h1.1431Z"/><path class="c" d="M156.2773,77.6933H155.043v-.96h1.2343V75.2475l1.1314-.2744v1.76h1.7143v.96h-1.7143v3.1543c0,.5942.24.8115.8569.8115a2.2462,2.2462,0,0,0,.8345-.1372v.96a3.79,3.79,0,0,1-1.0855.1714c-1.1318,0-1.7373-.5372-1.7373-1.5428Z"/><path class="c" d="M162.0591,80.8818c0-1.0972.8916-1.7715,2.3545-1.7715a4.1115,4.1115,0,0,1,1.5888.32v-.6172c0-.8228-.4917-1.2342-1.4174-1.2342a4.1372,4.1372,0,0,0-1.8057.4912l-.4229-.8569a5.4438,5.4438,0,0,1,2.3887-.5945c1.5088,0,2.377.7429,2.377,2.08v3.8516h-1.12v-.503a2.7607,2.7607,0,0,1-1.8061.6058C162.9277,82.6533,162.0591,81.9333,162.0591,80.8818Zm2.4.9257a2.2372,2.2372,0,0,0,1.5429-.5485V80.2533a3.0237,3.0237,0,0,0-1.4975-.3544c-.834,0-1.3487.3772-1.3487.96C163.1562,81.4191,163.6821,81.8075,164.46,81.8075Z"/><path class="c" d="M168.436,76.7331h1.1431v.5486a2.2326,2.2326,0,0,1,1.6343-.6629,2.0261,2.0261,0,0,1,1.7939.9715,2.3308,2.3308,0,0,1,1.9658-.9715,2.1313,2.1313,0,0,1,2.1831,2.2744v3.6573h-1.143V79.0876a1.307,1.307,0,0,0-1.3369-1.4744,1.5522,1.5522,0,0,0-1.36.7771,2.3965,2.3965,0,0,1,.0459.5029v3.6573h-1.1313V79.0876a1.3071,1.3071,0,0,0-1.3374-1.4744,1.5237,1.5237,0,0,0-1.314.7085v4.2288H168.436Z"/><path class="c" d="M181.2583,82.6533a2.9932,2.9932,0,0,1-3.0513-3.0171,2.9228,2.9228,0,0,1,2.9141-2.9944,2.8807,2.8807,0,0,1,2.8115,3.04v.3316h-4.5942a1.962,1.962,0,0,0,1.9658,1.6684,2.2633,2.2633,0,0,0,1.4741-.5141l.7315.72A3.47,3.47,0,0,1,181.2583,82.6533ZM179.35,79.1562h3.4517a1.7353,1.7353,0,0,0-3.4517,0Z"/><path class="c" d="M185.5439,77.6933H184.31v-.96h1.2343V75.2475l1.1314-.2744v1.76H188.39v.96h-1.7143v3.1543c0,.5942.24.8115.8569.8115a2.2462,2.2462,0,0,0,.8345-.1372v.96a3.79,3.79,0,0,1-1.0855.1714c-1.1318,0-1.7373-.5372-1.7373-1.5428Z"/><rect class="a" x="117.2506" y="103.9105" width="40.3289" height="15.2453"/><rect class="a" x="117.2506" y="122.0128" width="40.3289" height="6.8461"/><rect class="a" x="163.6099" y="103.9105" width="62.1199" height="6.8461"/><rect class="d" x="163.6099" y="113.6136" width="62.1199" height="46.8435"/><rect class="a" x="163.6099" y="163.314" width="62.1199" height="21.8165"/><rect class="a" x="117.2506" y="163.314" width="19.3968" height="21.8165"/><path class="c" d="M127,37.0867a3.0494,3.0494,0,0,1,.1055.6192c0,.8564-.962,1.3307-2.2266,1.3307-2.8593,0-5.3625-1.6732-5.3625-2.78a1.1258,1.1258,0,0,1,.0922-.4479c-1.0277.0527-2.3584.2371-2.3584,1.41,0,1.9236,4.5588,4.2951,8.1688,4.2951,2.7668,0,3.465-1.2516,3.465-2.24A2.7172,2.7172,0,0,0,127,37.0867m-1.9895.6983c.7643,0,1.8709-.1582,1.8709-1.0672a.8637.8637,0,0,0-.019-.2092l-.4552-1.9779c-.1055-.4348-.1977-.6325-.9618-1.0146a8.9261,8.9261,0,0,0-2.2662-.8036c-.3558,0-.4611.4611-.8828.4611-.4083,0-.7114-.3425-1.0935-.3425-.3688,0-.6061.25-.79.7641,0,0-.5139,1.4493-.58,1.66a.3835.3835,0,0,0-.0135.1187c0,.5633,2.2182,2.4111,5.1914,2.4111"/><path d="M127,37.0867a3.0494,3.0494,0,0,1,.1055.6192c0,.8564-.962,1.3307-2.2266,1.3307-2.8593,0-5.3625-1.6732-5.3625-2.78a1.1258,1.1258,0,0,1,.0922-.4479l.224-.5535a.3835.3835,0,0,0-.0135.1187c0,.5633,2.2182,2.4111,5.1914,2.4111.7643,0,1.8709-.1582,1.8709-1.0672a.8637.8637,0,0,0-.019-.2092l.1376.5781Z"/><path d="M131.0339,39.3888h1.1055V37.75h.842l.8485,1.639h1.2341l-.99-1.8a1.3614,1.3614,0,0,0,.8485-1.2663,1.4607,1.4607,0,0,0-1.5877-1.4333h-2.301v4.4993Zm2.1982-3.5545a.5114.5114,0,1,1,0,1.0156h-1.0927V35.8343Zm1.7933,1.8576a1.7851,1.7851,0,0,0,1.8511,1.7612,2.04,2.04,0,0,0,1.4205-.5142l-.6877-.6106a.921.921,0,0,1-.6813.2571.8786.8786,0,0,1-.8356-.54h2.4232v-.2571a1.7469,1.7469,0,1,0-3.49-.0965m1.7547-.9127a.7519.7519,0,0,1,.7134.54H136.073a.7083.7083,0,0,1,.7071-.54m4.7178,2.61h1.0285V34.6645l-1.0413.225v1.2791a1.7521,1.7521,0,1,0-.9,3.2653,1.5334,1.5334,0,0,0,.9127-.2957v.2506Zm-1.6261-1.7033a.8609.8609,0,0,1,.8934-.8613,1.0536,1.0536,0,0,1,.72.2635v1.1892a1.0006,1.0006,0,0,1-.72.27.8648.8648,0,0,1-.8934-.8613m4.2127,1.7033H145.19V37.6277h1.8512v1.7611h1.1056V34.89h-1.1056v1.729H145.19V34.89h-1.1056v4.4993Zm5.65.0579a1.5908,1.5908,0,0,0,.9384-.2635v.2056h1.0285V37.21c0-.8292-.5593-1.2856-1.4913-1.2856a3.785,3.785,0,0,0-1.5876.3728l.3728.7649a2.7784,2.7784,0,0,1,1.0284-.27c.4307,0,.6492.1671.6492.5078v.1671a3.0175,3.0175,0,0,0-.7713-.0964c-.8742,0-1.4012.3663-1.4012,1.022a1.1,1.1,0,0,0,1.2341,1.0541m-.3177-1.0734c0-.225.2249-.3343.5656-.3343a2.6134,2.6134,0,0,1,.6171.0772v.4371a1.315,1.315,0,0,1-.6492.1606c-.3343,0-.5335-.1285-.5335-.3406m3.2357-.0193c0,.7263.4372,1.08,1.2342,1.08a3.1949,3.1949,0,0,0,.7264-.1029v-.842a1.5136,1.5136,0,0,1-.4693.0707c-.3278,0-.45-.1029-.45-.4114v-1.292h.9513v-.8677h-.9513V34.89l-1.0414.2249v.8742h-.6877v.8677h.6877V38.354Z"/></svg>