<svg xmlns="http://www.w3.org/2000/svg" xmlns:xlink="http://www.w3.org/1999/xlink" viewBox="0 0 555 318">
  <defs>
    <style>
      .b9787b19-c40b-4d78-a8a4-4407a6e36489 {
        fill: none;
      }

      .f196a7bc-5409-486f-86e6-5723cf54bcc5 {
        isolation: isolate;
      }

      .bc96bf03-acd7-4c02-bc29-23f2efed4e33 {
        fill: #dedede;
      }

      .a83285f0-1524-4700-b8e3-cdcb3aa85d96 {
        fill: #aaa;
      }

      .aad068ce-9a72-41de-929a-c01202e3c049 {
        fill: #fff;
      }

      .a3c5afee-ca43-40eb-af86-9b9758ef5a55 {
        mix-blend-mode: multiply;
      }

      .b14feee0-727d-47b3-971a-008aa484cb7b {
        clip-path: url(#ade4ea82-b7a2-4d9f-aa3c-7b4c25c3708b);
      }

      .bf27e559-3c75-4087-ad63-ab891111fc34 {
        fill: #fddbdb;
      }

      .be3b8a71-8b9f-46fa-94ea-4c40653edfeb {
        clip-path: url(#ab06653c-8e9b-41e5-92d3-abdd27f3cd3b);
      }

      .e5b319cf-1189-41b1-a53d-1a208255255b {
        fill: #e00;
      }

      .af2b31c6-79bb-47eb-b9c7-ec2c62e6070d {
        clip-path: url(#b42f4cf8-8e0c-4790-a183-759c90a5f282);
      }

      .b52da57c-f915-40be-bab9-bb43e56db969 {
        clip-path: url(#ab4003c6-bb6c-4a33-9407-a5ac0543a70d);
      }

      .bdc0124c-69bd-4c8a-be69-45b5574bc946 {
        clip-path: url(#b3c87074-e83e-44e4-a352-fa09589dffcc);
      }

      .bb159413-508a-41d7-b9fe-149ec669e827 {
        clip-path: url(#b5ce2229-25c1-476e-9bc8-f5ff68ce5c95);
      }

      .a55a914e-918a-43a9-8e3f-2457880eade4 {
        clip-path: url(#b45854c4-44d8-4bf3-873b-3a7939a6f3f9);
      }

      .bb6d8b33-3ec5-487a-a1bc-4f1045c268a1 {
        clip-path: url(#ea6a869e-0ec8-47e6-aef7-ed748616d9e6);
      }
    </style>
    <clipPath id="ade4ea82-b7a2-4d9f-aa3c-7b4c25c3708b">
      <path class="b9787b19-c40b-4d78-a8a4-4407a6e36489" d="M294.2,196.863a21.461,21.461,0,0,1,6.341.954A28.648,28.648,0,0,1,352.694,201a19.514,19.514,0,0,1,17.333,12,13.8,13.8,0,1,1,3.418,27.186H294.2a21.661,21.661,0,0,1,0-43.321Z"/>
    </clipPath>
    <clipPath id="ab06653c-8e9b-41e5-92d3-abdd27f3cd3b">
      <path class="b9787b19-c40b-4d78-a8a4-4407a6e36489" d="M307.15,123.127h68.208a11.885,11.885,0,1,0-2.942-23.4A16.8,16.8,0,0,0,357.5,89.4a24.657,24.657,0,0,0-44.888-2.736,18.63,18.63,0,1,0-5.459,36.466ZM234.976,136.27a26.73,26.73,0,0,0-7.9,1.188,35.684,35.684,0,0,0-64.963,3.96,24.305,24.305,0,0,0-21.59,14.951,17.19,17.19,0,1,0-4.257,33.863h98.709a26.981,26.981,0,0,0,0-53.962Zm138.469,76.3a13.7,13.7,0,0,0-3.418.431,19.514,19.514,0,0,0-17.333-12,28.648,28.648,0,0,0-52.152-3.179,21.645,21.645,0,1,0-6.341,42.367h79.244a13.809,13.809,0,0,0,0-27.617Z"/>
    </clipPath>
    <clipPath id="b42f4cf8-8e0c-4790-a183-759c90a5f282">
      <polygon class="b9787b19-c40b-4d78-a8a4-4407a6e36489" points="381.794 145.658 381.794 154.707 389.592 159.231 397.39 154.707 397.39 145.658 389.592 141.134 381.794 145.658"/>
    </clipPath>
    <clipPath id="ab4003c6-bb6c-4a33-9407-a5ac0543a70d">
      <polygon class="b9787b19-c40b-4d78-a8a4-4407a6e36489" points="171.609 188.383 171.609 207.351 155.263 216.834 138.918 207.351 138.918 188.383 155.263 178.899 171.609 188.383"/>
    </clipPath>
    <clipPath id="b3c87074-e83e-44e4-a352-fa09589dffcc">
      <polygon class="b9787b19-c40b-4d78-a8a4-4407a6e36489" points="218.96 241.402 218.96 250.45 226.758 254.975 234.556 250.45 234.556 241.402 226.758 236.877 218.96 241.402"/>
    </clipPath>
    <clipPath id="b5ce2229-25c1-476e-9bc8-f5ff68ce5c95">
      <polygon class="b9787b19-c40b-4d78-a8a4-4407a6e36489" points="345.387 270.057 345.387 291.233 327.138 301.822 308.889 291.233 308.889 270.057 327.138 259.469 345.387 270.057"/>
    </clipPath>
    <clipPath id="b45854c4-44d8-4bf3-873b-3a7939a6f3f9">
      <polygon class="b9787b19-c40b-4d78-a8a4-4407a6e36489" points="189.654 57.643 189.654 65.966 196.827 70.128 203.999 65.966 203.999 57.643 196.827 53.481 189.654 57.643"/>
    </clipPath>
    <clipPath id="ea6a869e-0ec8-47e6-aef7-ed748616d9e6">
      <polygon class="b9787b19-c40b-4d78-a8a4-4407a6e36489" points="290.261 28.384 290.261 52.795 269.225 65 248.188 52.795 248.188 28.384 269.225 16.178 290.261 28.384"/>
    </clipPath>
  </defs>
  <g class="f196a7bc-5409-486f-86e6-5723cf54bcc5">
    <g id="ea67735d-cd3d-43c3-99a0-b1df3af8e248" data-name="Layer 1">
      <g>
        <path class="bc96bf03-acd7-4c02-bc29-23f2efed4e33" d="M165.748,137.818c-2.881-10.388-.823-21.336,3.331-30.839,14.1-32.247,49.077-44.075,80.758-34.989,28.353,8.133,49.578,27.442,79.03,30.657,20.638,2.252,44.252-6.338,63.191,5.561a55.094,55.094,0,0,1,25.973,50.257c-1.052,16.018-9.309,30.5-21.322,40.831-12.17,10.467-26.679,17.476-38.73,28.16-8.425,7.468-12.324,18.163-19.423,26.7a55.368,55.368,0,0,1-33.483,18.729,56.035,56.035,0,0,1-38.676-8.466c-10.071-6.514-18.386-16.65-30.416-19.631-8.732-2.163-17.316.158-25.807,2.2-5.969,1.433-12.57.633-18.339-1.386a42.7,42.7,0,0,1-25.675-25.06,31.6,31.6,0,0,1,.691-23.76c2.511-5.578,5.8-10.883,7.135-16.923,2.471-11.152-.306-22.518-4.7-32.8A71.187,71.187,0,0,1,165.748,137.818Z"/>
        <polygon class="a83285f0-1524-4700-b8e3-cdcb3aa85d96" points="310.651 163.31 310.651 102.009 220.748 102.009 220.748 163.31 189.435 163.31 189.435 229.618 257.031 229.618 257.031 193.588 289.815 193.588 289.815 229.618 362.096 229.618 362.096 163.31 310.651 163.31"/>
        <path class="aad068ce-9a72-41de-929a-c01202e3c049" d="M234.976,136.27a26.73,26.73,0,0,0-7.9,1.188,35.684,35.684,0,0,0-64.963,3.96,24.305,24.305,0,0,0-21.59,14.951,17.19,17.19,0,1,0-4.257,33.863h98.709a26.981,26.981,0,0,0,0-53.962Z"/>
        <g>
          <path class="aad068ce-9a72-41de-929a-c01202e3c049" d="M294.2,196.863a21.461,21.461,0,0,1,6.341.954A28.648,28.648,0,0,1,352.694,201a19.514,19.514,0,0,1,17.333,12,13.8,13.8,0,1,1,3.418,27.186H294.2a21.661,21.661,0,0,1,0-43.321Z"/>
          <g class="b14feee0-727d-47b3-971a-008aa484cb7b">
            <path class="bf27e559-3c75-4087-ad63-ab891111fc34" d="M354.241,208.443a19.043,19.043,0,0,1-.061,3.593S348.117,178.6,313.1,184.518c0,0,21.993-10.6,35.925,9.31A28.813,28.813,0,0,1,354.241,208.443Z"/>
          </g>
        </g>
        <g class="be3b8a71-8b9f-46fa-94ea-4c40653edfeb">
          <polygon points="310.656 163.305 310.656 102.004 220.754 102.004 220.754 163.305 189.44 163.305 189.44 229.612 257.036 229.612 257.036 193.583 289.821 193.583 289.821 229.612 361.428 229.612 361.428 163.305 310.656 163.305"/>
        </g>
        <path class="bc96bf03-acd7-4c02-bc29-23f2efed4e33" d="M373.444,240.519H294.2a22,22,0,1,1,6.176-43.1,28.981,28.981,0,0,1,52.55,3.253,19.894,19.894,0,0,1,17.295,11.935,14.136,14.136,0,1,1,3.222,27.914ZM294.2,197.2a21.326,21.326,0,0,0,0,42.651h79.243a13.474,13.474,0,1,0-3.335-26.526l-.28.072-.111-.268a19.226,19.226,0,0,0-17.035-11.8l-.222-.007-.079-.208a28.313,28.313,0,0,0-51.543-3.141l-.13.245-.265-.082A21.15,21.15,0,0,0,294.2,197.2Z"/>
        <path class="bc96bf03-acd7-4c02-bc29-23f2efed4e33" d="M234.975,190.651H136.266a17.619,17.619,0,1,1,4.013-34.774,24.789,24.789,0,0,1,21.544-14.867,36.1,36.1,0,0,1,65.461-4.051,27.381,27.381,0,1,1,7.691,53.692Zm-98.709-34.4a16.782,16.782,0,0,0,0,33.564h98.709a26.563,26.563,0,1,0-7.775-51.956l-.331.1-.162-.306a35.266,35.266,0,0,0-64.2,3.913l-.1.259-.278.009A23.947,23.947,0,0,0,140.91,156.53l-.139.334-.351-.09A16.671,16.671,0,0,0,136.266,156.25Z"/>
        <path class="aad068ce-9a72-41de-929a-c01202e3c049" d="M307.15,85.84a18.472,18.472,0,0,1,5.459.821A24.657,24.657,0,0,1,357.5,89.4a16.8,16.8,0,0,1,14.919,10.331,11.878,11.878,0,1,1,2.942,23.4H307.15a18.644,18.644,0,0,1,0-37.287Z"/>
        <path class="bc96bf03-acd7-4c02-bc29-23f2efed4e33" d="M375.357,123.546H307.15A19.063,19.063,0,1,1,312.4,86.163a25.074,25.074,0,0,1,45.387,2.827,17.257,17.257,0,0,1,14.873,10.248,12.3,12.3,0,1,1,2.7,24.308ZM307.15,86.258a18.226,18.226,0,0,0,0,36.451h68.207a11.467,11.467,0,1,0-2.837-22.576l-.35.09-.14-.334a16.42,16.42,0,0,0-14.547-10.074l-.278-.009-.1-.26a24.239,24.239,0,0,0-44.128-2.689l-.162.306-.331-.1A18.034,18.034,0,0,0,307.15,86.258Z"/>
        <g>
          <rect class="aad068ce-9a72-41de-929a-c01202e3c049" x="293.34" y="159.954" width="67.596" height="66.308"/>
          <path class="e5b319cf-1189-41b1-a53d-1a208255255b" d="M361.438,226.764h-68.6V159.452h68.6Zm-67.595-1h66.591v-65.3H293.843Z"/>
        </g>
        <polygon class="b9787b19-c40b-4d78-a8a4-4407a6e36489" points="310.61 190.225 310.61 209.405 327.138 218.995 343.667 209.405 343.667 190.225 327.138 180.635 310.61 190.225"/>
        <g>
          <path class="e5b319cf-1189-41b1-a53d-1a208255255b" d="M310.613,190.728a.443.443,0,0,1-.2-.04.411.411,0,0,1-.16-.11.466.466,0,0,1-.151-.35.555.555,0,0,1,.151-.36.526.526,0,0,1,.55-.11.945.945,0,0,1,.16.11.552.552,0,0,1,.149.36.472.472,0,0,1-.149.35A.487.487,0,0,1,310.613,190.728Z"/>
          <path class="e5b319cf-1189-41b1-a53d-1a208255255b" d="M310.1,206.668a.513.513,0,0,1,.51-.51h0a.51.51,0,0,1,.5.51h0a.507.507,0,0,1-.5.5h0A.511.511,0,0,1,310.1,206.668Zm0-2.74a.513.513,0,0,1,.51-.51h0a.51.51,0,0,1,.5.51h0a.507.507,0,0,1-.5.5h0A.511.511,0,0,1,310.1,203.928Zm0-2.74a.513.513,0,0,1,.51-.51h0a.51.51,0,0,1,.5.51h0a.507.507,0,0,1-.5.5h0A.511.511,0,0,1,310.1,201.188Zm0-2.74a.513.513,0,0,1,.51-.51h0a.51.51,0,0,1,.5.51h0a.5.5,0,0,1-.5.5h0A.5.5,0,0,1,310.1,198.448Zm0-2.74a.513.513,0,0,1,.51-.51h0a.51.51,0,0,1,.5.51h0a.507.507,0,0,1-.5.5h0A.511.511,0,0,1,310.1,195.708Zm0-2.74a.5.5,0,0,1,.51-.5h0a.5.5,0,0,1,.5.5h0a.507.507,0,0,1-.5.5h0A.511.511,0,0,1,310.1,192.968Z"/>
          <path class="e5b319cf-1189-41b1-a53d-1a208255255b" d="M310.613,209.908a.443.443,0,0,1-.2-.04.411.411,0,0,1-.16-.11.466.466,0,0,1-.151-.35.555.555,0,0,1,.151-.36.526.526,0,0,1,.55-.11.945.945,0,0,1,.16.11.552.552,0,0,1,.149.36.472.472,0,0,1-.149.35A.487.487,0,0,1,310.613,209.908Z"/>
          <path class="e5b319cf-1189-41b1-a53d-1a208255255b" d="M324.523,218.058a.493.493,0,0,1-.179-.68h0a.487.487,0,0,1,.679-.19h0a.509.509,0,0,1,.191.69h0a.527.527,0,0,1-.441.25h0A.475.475,0,0,1,324.523,218.058Zm-2.359-1.37a.506.506,0,0,1-.181-.69h0a.5.5,0,0,1,.681-.18h0a.507.507,0,0,1,.18.69h0a.5.5,0,0,1-.43.25h0A.449.449,0,0,1,322.164,216.688Zm-2.36-1.37a.517.517,0,0,1-.191-.69h0a.515.515,0,0,1,.691-.18h0a.5.5,0,0,1,.179.69h0a.5.5,0,0,1-.429.25h0A.451.451,0,0,1,319.8,215.318Zm-2.361-1.37a.5.5,0,0,1-.189-.68h0a.5.5,0,0,1,.689-.19h0a.505.505,0,0,1,.181.69h0a.5.5,0,0,1-.431.25h0A.451.451,0,0,1,317.443,213.948Zm-2.37-1.37a.516.516,0,0,1-.18-.69h0a.515.515,0,0,1,.691-.18h0a.507.507,0,0,1,.18.69h0a.5.5,0,0,1-.441.25h0A.477.477,0,0,1,315.073,212.578Zm-2.359-1.37a.513.513,0,0,1-.181-.69h0a.514.514,0,0,1,.69-.18h0a.5.5,0,0,1,.18.69h0a.5.5,0,0,1-.439.25h0A.475.475,0,0,1,312.714,211.208Z"/>
          <path class="e5b319cf-1189-41b1-a53d-1a208255255b" d="M327.143,219.5a.478.478,0,0,1-.36-.15.455.455,0,0,1-.109-.16.615.615,0,0,1-.04-.19.56.56,0,0,1,.04-.19.5.5,0,0,1,.109-.17.986.986,0,0,1,.16-.11.528.528,0,0,1,.551.11.514.514,0,0,1,.149.36.615.615,0,0,1-.04.19.455.455,0,0,1-.109.16A.489.489,0,0,1,327.143,219.5Z"/>
          <path class="e5b319cf-1189-41b1-a53d-1a208255255b" d="M329.063,217.878a.506.506,0,0,1,.181-.69h0a.5.5,0,0,1,.689.19h0a.5.5,0,0,1-.179.68h0a.475.475,0,0,1-.25.07h0A.5.5,0,0,1,329.063,217.878Zm2.361-1.37a.5.5,0,0,1,.179-.69h0a.509.509,0,0,1,.691.19h0a.5.5,0,0,1-.181.68h0a.475.475,0,0,1-.25.07h0A.508.508,0,0,1,331.424,216.508Zm2.359-1.37a.513.513,0,0,1,.181-.69h0a.5.5,0,0,1,.689.19h0a.494.494,0,0,1-.18.68h0a.473.473,0,0,1-.25.07h0A.514.514,0,0,1,333.783,215.138Zm2.37-1.37a.5.5,0,0,1,.181-.69h0a.488.488,0,0,1,.68.19h0a.5.5,0,0,1-.18.68h0a.475.475,0,0,1-.25.07h0A.5.5,0,0,1,336.153,213.768Zm2.361-1.37a.5.5,0,0,1,.179-.69h0a.5.5,0,0,1,.681.18h0a.505.505,0,0,1-.181.69h0a.451.451,0,0,1-.25.07h0A.493.493,0,0,1,338.514,212.4Zm2.36-1.37a.5.5,0,0,1,.18-.69h0a.514.514,0,0,1,.69.18h0a.508.508,0,0,1-.19.69h0a.456.456,0,0,1-.25.07h0A.5.5,0,0,1,340.874,211.028Z"/>
          <path class="e5b319cf-1189-41b1-a53d-1a208255255b" d="M343.664,209.908a.511.511,0,0,1-.5-.5.478.478,0,0,1,.149-.36.945.945,0,0,1,.16-.11.526.526,0,0,1,.55.11.746.746,0,0,1,.111.17.612.612,0,0,1,.04.19.51.51,0,0,1-.151.35A.487.487,0,0,1,343.664,209.908Z"/>
          <path class="e5b319cf-1189-41b1-a53d-1a208255255b" d="M343.164,206.668a.51.51,0,0,1,.5-.51h0a.513.513,0,0,1,.51.51h0a.511.511,0,0,1-.51.5h0A.507.507,0,0,1,343.164,206.668Zm0-2.74a.5.5,0,0,1,.5-.5h0a.5.5,0,0,1,.51.5h0a.511.511,0,0,1-.51.5h0A.507.507,0,0,1,343.164,203.928Zm0-2.74a.5.5,0,0,1,.5-.5h0a.5.5,0,0,1,.51.5h0a.511.511,0,0,1-.51.5h0A.507.507,0,0,1,343.164,201.188Zm0-2.74a.51.51,0,0,1,.5-.51h0a.513.513,0,0,1,.51.51h0a.511.511,0,0,1-.51.5h0A.507.507,0,0,1,343.164,198.448Zm0-2.74a.51.51,0,0,1,.5-.51h0a.513.513,0,0,1,.51.51h0a.511.511,0,0,1-.51.5h0A.507.507,0,0,1,343.164,195.708Zm0-2.74a.5.5,0,0,1,.5-.5h0a.5.5,0,0,1,.51.5h0a.5.5,0,0,1-.51.5h0A.5.5,0,0,1,343.164,192.968Z"/>
          <path class="e5b319cf-1189-41b1-a53d-1a208255255b" d="M343.664,190.728a.435.435,0,0,1-.191-.04.426.426,0,0,1-.16-.11.472.472,0,0,1-.149-.35.406.406,0,0,1,.04-.19.384.384,0,0,1,.109-.17.945.945,0,0,1,.16-.11.53.53,0,0,1,.55.11.555.555,0,0,1,.151.36.51.51,0,0,1-.151.35A.487.487,0,0,1,343.664,190.728Z"/>
          <path class="e5b319cf-1189-41b1-a53d-1a208255255b" d="M341.054,189.288a.5.5,0,0,1-.18-.69h0a.5.5,0,0,1,.68-.18h0a.508.508,0,0,1,.19.69h0a.514.514,0,0,1-.44.25h0A.473.473,0,0,1,341.054,189.288Zm-2.361-1.37a.494.494,0,0,1-.179-.69h0a.5.5,0,0,1,.679-.18h0a.505.505,0,0,1,.181.69h0a.5.5,0,0,1-.431.25h0A.451.451,0,0,1,338.693,187.918Zm-2.359-1.37a.5.5,0,0,1-.181-.69h0a.5.5,0,0,1,.681-.18h0a.507.507,0,0,1,.18.69h0a.5.5,0,0,1-.43.25h0A.451.451,0,0,1,336.334,186.548Zm-2.37-1.37a.511.511,0,0,1-.181-.69h0a.514.514,0,0,1,.69-.18h0a.5.5,0,0,1,.18.69h0a.5.5,0,0,1-.43.25h0A.483.483,0,0,1,333.964,185.178Zm-2.361-1.37a.5.5,0,0,1-.179-.69h0a.513.513,0,0,1,.689-.18h0a.506.506,0,0,1,.181.69h0a.5.5,0,0,1-.431.25h0A.484.484,0,0,1,331.6,183.808Zm-2.359-1.37a.5.5,0,0,1-.181-.69h0a.506.506,0,0,1,.691-.18h0a.5.5,0,0,1,.179.69h0a.5.5,0,0,1-.439.25h0A.473.473,0,0,1,329.244,182.438Z"/>
          <path class="e5b319cf-1189-41b1-a53d-1a208255255b" d="M327.143,181.138a.478.478,0,0,1-.36-.15.568.568,0,0,1-.109-.16.615.615,0,0,1-.04-.19.56.56,0,0,1,.04-.19.5.5,0,0,1,.109-.17.986.986,0,0,1,.16-.11.528.528,0,0,1,.551.11.514.514,0,0,1,.149.36.615.615,0,0,1-.04.19.568.568,0,0,1-.109.16A.489.489,0,0,1,327.143,181.138Z"/>
          <path class="e5b319cf-1189-41b1-a53d-1a208255255b" d="M312.533,189.108a.513.513,0,0,1,.181-.69h0a.5.5,0,0,1,.689.18h0a.5.5,0,0,1-.18.69h0a.473.473,0,0,1-.25.07h0A.5.5,0,0,1,312.533,189.108Zm2.36-1.37a.509.509,0,0,1,.191-.69h0a.5.5,0,0,1,.68.18h0a.507.507,0,0,1-.18.69h0a.475.475,0,0,1-.25.07h0A.513.513,0,0,1,314.893,187.738Zm2.361-1.37a.508.508,0,0,1,.189-.69h0a.5.5,0,0,1,.681.18h0a.505.505,0,0,1-.181.69h0a.451.451,0,0,1-.25.07h0A.521.521,0,0,1,317.254,186.368Zm2.37-1.37a.5.5,0,0,1,.18-.69h0a.485.485,0,0,1,.679.19h0a.492.492,0,0,1-.179.68h0a.456.456,0,0,1-.25.07h0A.5.5,0,0,1,319.624,185Zm2.359-1.37a.506.506,0,0,1,.181-.69h0a.507.507,0,0,1,.689.19h0a.509.509,0,0,1-.189.68h0a.43.43,0,0,1-.25.07h0A.5.5,0,0,1,321.983,183.628Zm2.361-1.37a.5.5,0,0,1,.179-.69h0a.515.515,0,0,1,.691.18h0a.5.5,0,0,1-.191.69h0a.427.427,0,0,1-.25.07h0A.493.493,0,0,1,324.344,182.258Z"/>
        </g>
        <g>
          <rect class="e5b319cf-1189-41b1-a53d-1a208255255b" x="293.34" y="159.954" width="67.596" height="14.248"/>
          <path class="e5b319cf-1189-41b1-a53d-1a208255255b" d="M360.936,174.7H293.341a.5.5,0,0,1-.5-.5V159.954a.5.5,0,0,1,.5-.5h67.595a.5.5,0,0,1,.5.5V174.2A.5.5,0,0,1,360.936,174.7Zm-67.093-1h66.591V160.456H293.843Z"/>
        </g>
        <path class="aad068ce-9a72-41de-929a-c01202e3c049" d="M336.626,167.413H296.819a.335.335,0,0,1,0-.67h39.807a.335.335,0,1,1,0,.67Z"/>
        <g>
          <rect class="aad068ce-9a72-41de-929a-c01202e3c049" x="224.273" y="98.654" width="89.903" height="91.579"/>
          <path class="e5b319cf-1189-41b1-a53d-1a208255255b" d="M314.678,190.734H223.771V98.152h90.907Zm-89.9-1h88.9V99.156h-88.9Z"/>
        </g>
        <polygon class="b9787b19-c40b-4d78-a8a4-4407a6e36489" points="245.898 136.695 245.898 163.764 269.225 177.298 292.552 163.764 292.552 136.695 269.225 123.16 245.898 136.695"/>
        <g>
          <path class="e5b319cf-1189-41b1-a53d-1a208255255b" d="M245.893,137.2a.515.515,0,0,1-.5-.5.406.406,0,0,1,.04-.19.4.4,0,0,1,.111-.17.506.506,0,0,1,.55-.11.586.586,0,0,1,.16.11.483.483,0,0,1,.109.17.56.56,0,0,1,.04.19.508.508,0,0,1-.149.35A.5.5,0,0,1,245.893,137.2Z"/>
          <path class="e5b319cf-1189-41b1-a53d-1a208255255b" d="M245.393,161.058a.5.5,0,0,1,.5-.5h0a.5.5,0,0,1,.51.5h0a.5.5,0,0,1-.51.5h0A.5.5,0,0,1,245.393,161.058Zm0-2.71a.5.5,0,0,1,.5-.5h0a.5.5,0,0,1,.51.5h0a.5.5,0,0,1-.51.5h0A.5.5,0,0,1,245.393,158.348Zm0-2.7a.511.511,0,0,1,.5-.51h0a.511.511,0,0,1,.51.51h0a.51.51,0,0,1-.51.5h0A.509.509,0,0,1,245.393,155.648Zm0-2.71a.5.5,0,0,1,.5-.5h0a.5.5,0,0,1,.51.5h0a.51.51,0,0,1-.51.5h0A.509.509,0,0,1,245.393,152.938Zm0-2.71a.5.5,0,0,1,.5-.5h0a.5.5,0,0,1,.51.5h0a.5.5,0,0,1-.51.5h0A.5.5,0,0,1,245.393,150.228Zm0-2.71a.509.509,0,0,1,.5-.5h0a.51.51,0,0,1,.51.5h0a.511.511,0,0,1-.51.51h0A.511.511,0,0,1,245.393,147.518Zm0-2.7a.511.511,0,0,1,.5-.51h0a.511.511,0,0,1,.51.51h0a.5.5,0,0,1-.51.5h0A.5.5,0,0,1,245.393,144.818Zm0-2.71a.5.5,0,0,1,.5-.5h0a.5.5,0,0,1,.51.5h0a.5.5,0,0,1-.51.5h0A.5.5,0,0,1,245.393,142.108Zm0-2.71a.509.509,0,0,1,.5-.5h0a.51.51,0,0,1,.51.5h0a.511.511,0,0,1-.51.51h0A.511.511,0,0,1,245.393,139.4Z"/>
          <path class="e5b319cf-1189-41b1-a53d-1a208255255b" d="M245.893,164.268a.515.515,0,0,1-.5-.5.477.477,0,0,1,.04-.2.433.433,0,0,1,.111-.16.513.513,0,0,1,.71,0,.548.548,0,0,1,.109.16.677.677,0,0,1,.04.2.508.508,0,0,1-.149.35A.5.5,0,0,1,245.893,164.268Z"/>
          <path class="e5b319cf-1189-41b1-a53d-1a208255255b" d="M266.643,176.378a.507.507,0,0,1-.189-.69h0a.5.5,0,0,1,.689-.18h0a.5.5,0,0,1,.18.69h0a.5.5,0,0,1-.43.25h0A.434.434,0,0,1,266.643,176.378Zm-2.339-1.35a.5.5,0,0,1-.18-.69h0a.5.5,0,0,1,.689-.18h0a.5.5,0,0,1,.181.69h0a.52.52,0,0,1-.431.25h0A.59.59,0,0,1,264.3,175.028Zm-2.331-1.36a.492.492,0,0,1-.179-.68h0a.513.513,0,0,1,.689-.19h0a.513.513,0,0,1,.181.69h0a.527.527,0,0,1-.441.25h0A.477.477,0,0,1,261.973,173.668Zm-2.33-1.35a.507.507,0,0,1-.189-.69h0a.5.5,0,0,1,.689-.18h0a.5.5,0,0,1,.18.69h0a.5.5,0,0,1-.43.25h0A.454.454,0,0,1,259.643,172.318Zm-2.339-1.35a.5.5,0,0,1-.18-.69h0a.5.5,0,0,1,.689-.18h0a.493.493,0,0,1,.181.68h0a.488.488,0,0,1-.431.26h0A.59.59,0,0,1,257.3,170.968Zm-2.331-1.36a.492.492,0,0,1-.179-.68h0a.507.507,0,0,1,.689-.19h0a.505.505,0,0,1,.181.69h0a.5.5,0,0,1-.441.25h0A.477.477,0,0,1,254.973,169.608Zm-2.33-1.35a.5.5,0,0,1-.179-.69h0a.492.492,0,0,1,.679-.18h0a.509.509,0,0,1,.191.69h0a.527.527,0,0,1-.441.25h0A.475.475,0,0,1,252.643,168.258Zm-2.33-1.35a.517.517,0,0,1-.189-.69h0a.5.5,0,0,1,.689-.18h0a.493.493,0,0,1,.181.68h0a.478.478,0,0,1-.431.25h0A.542.542,0,0,1,250.313,166.908Zm-2.34-1.36a.492.492,0,0,1-.179-.68h0a.516.516,0,0,1,.689-.19h0a.505.505,0,0,1,.181.69h0a.5.5,0,0,1-.431.25h0A.487.487,0,0,1,247.973,165.548Z"/>
          <path class="e5b319cf-1189-41b1-a53d-1a208255255b" d="M269.223,177.8a.509.509,0,0,1-.36-.86.6.6,0,0,1,.17-.1.461.461,0,0,1,.381,0,.44.44,0,0,1,.159.1.5.5,0,0,1-.35.86Z"/>
          <path class="e5b319cf-1189-41b1-a53d-1a208255255b" d="M271.124,176.2a.5.5,0,0,1,.18-.69h0a.505.505,0,0,1,.69.18h0a.5.5,0,0,1-.181.69h0a.483.483,0,0,1-.259.07h0A.5.5,0,0,1,271.124,176.2Zm2.33-1.36a.5.5,0,0,1,.18-.68h0a.5.5,0,0,1,.689.18h0a.5.5,0,0,1-.18.69h0a.59.59,0,0,1-.25.07h0A.489.489,0,0,1,273.454,174.838Zm2.329-1.35a.5.5,0,0,1,.19-.68h0a.493.493,0,0,1,.68.18h0a.492.492,0,0,1-.18.68h0a.451.451,0,0,1-.25.07h0A.526.526,0,0,1,275.783,173.488Zm2.341-1.35a.5.5,0,0,1,.18-.69h0a.49.49,0,0,1,.679.18h0a.5.5,0,0,1-.179.69h0a.456.456,0,0,1-.25.07h0A.5.5,0,0,1,278.124,172.138Zm2.33-1.36a.492.492,0,0,1,.18-.68h0a.5.5,0,0,1,.689.18h0a.512.512,0,0,1-.18.69h0a.573.573,0,0,1-.25.06h0A.5.5,0,0,1,280.454,170.778Zm2.329-1.35a.5.5,0,0,1,.181-.69h0a.516.516,0,0,1,.689.19h0a.492.492,0,0,1-.18.68h0a.473.473,0,0,1-.25.07h0A.514.514,0,0,1,282.783,169.428Zm2.341-1.35a.5.5,0,0,1,.18-.69h0a.492.492,0,0,1,.679.18h0a.5.5,0,0,1-.179.69h0a.456.456,0,0,1-.25.07h0A.5.5,0,0,1,285.124,168.078Zm2.33-1.36a.492.492,0,0,1,.18-.68h0a.5.5,0,0,1,.689.18h0a.507.507,0,0,1-.189.69h0a.545.545,0,0,1-.25.06h0A.5.5,0,0,1,287.454,166.718Zm2.329-1.35a.5.5,0,0,1,.181-.69h0a.507.507,0,0,1,.689.19h0a.492.492,0,0,1-.18.68h0a.481.481,0,0,1-.259.07h0A.5.5,0,0,1,289.783,165.368Z"/>
          <path class="e5b319cf-1189-41b1-a53d-1a208255255b" d="M292.554,164.268a.41.41,0,0,1-.191-.04.4.4,0,0,1-.17-.11.851.851,0,0,1-.109-.16.6.6,0,0,1-.03-.19.66.66,0,0,1,.03-.2.851.851,0,0,1,.109-.16.513.513,0,0,1,.71,0,.411.411,0,0,1,.111.16.477.477,0,0,1,.04.2.433.433,0,0,1-.04.19.411.411,0,0,1-.111.16A.468.468,0,0,1,292.554,164.268Z"/>
          <path class="e5b319cf-1189-41b1-a53d-1a208255255b" d="M292.044,161.058a.5.5,0,0,1,.51-.5h0a.5.5,0,0,1,.5.5h0a.5.5,0,0,1-.5.5h0A.5.5,0,0,1,292.044,161.058Zm0-2.71a.51.51,0,0,1,.51-.5h0a.509.509,0,0,1,.5.5h0a.5.5,0,0,1-.5.5h0A.5.5,0,0,1,292.044,158.348Zm0-2.71a.51.51,0,0,1,.51-.5h0a.509.509,0,0,1,.5.5h0a.511.511,0,0,1-.5.51h0A.511.511,0,0,1,292.044,155.638Zm0-2.7a.5.5,0,0,1,.51-.5h0a.5.5,0,0,1,.5.5h0a.509.509,0,0,1-.5.5h0A.51.51,0,0,1,292.044,152.938Zm0-2.71a.5.5,0,0,1,.51-.5h0a.5.5,0,0,1,.5.5h0a.5.5,0,0,1-.5.5h0A.5.5,0,0,1,292.044,150.228Zm0-2.71a.51.51,0,0,1,.51-.5h0a.509.509,0,0,1,.5.5h0a.511.511,0,0,1-.5.51h0A.511.511,0,0,1,292.044,147.518Zm0-2.7a.511.511,0,0,1,.51-.51h0a.511.511,0,0,1,.5.51h0a.509.509,0,0,1-.5.5h0A.51.51,0,0,1,292.044,144.818Zm0-2.71a.5.5,0,0,1,.51-.5h0a.5.5,0,0,1,.5.5h0a.5.5,0,0,1-.5.5h0A.5.5,0,0,1,292.044,142.108Zm0-2.71a.51.51,0,0,1,.51-.5h0a.509.509,0,0,1,.5.5h0a.511.511,0,0,1-.5.51h0A.511.511,0,0,1,292.044,139.4Z"/>
          <path class="e5b319cf-1189-41b1-a53d-1a208255255b" d="M292.554,137.2a.41.41,0,0,1-.191-.04.4.4,0,0,1-.17-.11.5.5,0,0,1-.139-.35.542.542,0,0,1,.139-.36.519.519,0,0,1,.17-.11.513.513,0,0,1,.54.11.473.473,0,0,1,.151.36.433.433,0,0,1-.04.19.411.411,0,0,1-.111.16.352.352,0,0,1-.159.11A.439.439,0,0,1,292.554,137.2Z"/>
          <path class="e5b319cf-1189-41b1-a53d-1a208255255b" d="M289.964,135.778a.5.5,0,0,1-.181-.69h0a.505.505,0,0,1,.69-.18h0a.5.5,0,0,1,.18.69h0a.5.5,0,0,1-.439.25h0A.59.59,0,0,1,289.964,135.778Zm-2.33-1.36a.492.492,0,0,1-.18-.68h0a.493.493,0,0,1,.68-.18h0a.493.493,0,0,1,.189.68h0a.511.511,0,0,1-.439.25h0A.475.475,0,0,1,287.634,134.418Zm-2.33-1.35a.508.508,0,0,1-.191-.69h0a.506.506,0,0,1,.691-.18h0a.5.5,0,0,1,.179.69h0a.5.5,0,0,1-.429.25h0A.451.451,0,0,1,285.3,133.068Zm-2.34-1.35a.5.5,0,0,1-.181-.69h0a.505.505,0,0,1,.69-.18h0a.492.492,0,0,1,.18.68h0a.489.489,0,0,1-.439.26h0A.59.59,0,0,1,282.964,131.718Zm-2.33-1.36a.492.492,0,0,1-.18-.68h0a.5.5,0,0,1,.689-.18h0a.5.5,0,0,1,.18.68h0a.5.5,0,0,1-.439.25h0A.475.475,0,0,1,280.634,130.358Zm-2.33-1.35a.5.5,0,0,1-.18-.69h0a.493.493,0,0,1,.68-.18h0a.5.5,0,0,1,.179.69h0a.5.5,0,0,1-.429.25h0A.451.451,0,0,1,278.3,129.008Zm-2.331-1.35a.508.508,0,0,1-.19-.69h0a.505.505,0,0,1,.69-.18h0a.492.492,0,0,1,.18.68h0a.5.5,0,0,1-.43.25h0A.519.519,0,0,1,275.973,127.658Zm-2.339-1.36a.5.5,0,0,1-.18-.68h0a.507.507,0,0,1,.689-.19h0a.5.5,0,0,1,.18.69h0a.5.5,0,0,1-.43.25h0A.483.483,0,0,1,273.634,126.3Zm-2.33-1.35a.5.5,0,0,1-.18-.69h0a.493.493,0,0,1,.68-.18h0a.508.508,0,0,1,.19.69h0a.526.526,0,0,1-.44.25h0A.473.473,0,0,1,271.3,124.948Z"/>
          <path class="e5b319cf-1189-41b1-a53d-1a208255255b" d="M269.223,123.658a.546.546,0,0,1-.36-.14.561.561,0,0,1-.1-.17.4.4,0,0,1-.041-.19.563.563,0,0,1,.14-.35.513.513,0,0,1,.551-.11.358.358,0,0,1,.159.11.34.34,0,0,1,.11.16.42.42,0,0,1,.04.19.557.557,0,0,1-.03.19.5.5,0,0,1-.12.17A.483.483,0,0,1,269.223,123.658Z"/>
          <path class="e5b319cf-1189-41b1-a53d-1a208255255b" d="M247.794,135.6a.5.5,0,0,1,.179-.69h0a.506.506,0,0,1,.691.18h0a.505.505,0,0,1-.181.69h0a.59.59,0,0,1-.25.07h0A.51.51,0,0,1,247.794,135.6Zm2.34-1.36a.482.482,0,0,1,.179-.68h0a.5.5,0,0,1,.681.18h0a.493.493,0,0,1-.181.68h0a.451.451,0,0,1-.25.07h0A.493.493,0,0,1,250.134,134.238Zm2.33-1.35a.5.5,0,0,1,.179-.69h0a.491.491,0,0,1,.68.18h0a.5.5,0,0,1-.18.69h0a.451.451,0,0,1-.25.07h0A.494.494,0,0,1,252.464,132.888Zm2.33-1.35a.5.5,0,0,1,.179-.69h0a.506.506,0,0,1,.691.18h0a.505.505,0,0,1-.181.69h0a.583.583,0,0,1-.26.06h0A.485.485,0,0,1,254.794,131.538Zm2.33-1.36a.5.5,0,0,1,.18-.68h0a.5.5,0,0,1,.69.18h0a.491.491,0,0,1-.181.68h0a.475.475,0,0,1-.25.07h0A.521.521,0,0,1,257.124,130.178Zm2.34-1.35a.5.5,0,0,1,.179-.69h0a.5.5,0,0,1,.68.18h0a.5.5,0,0,1-.18.69h0a.451.451,0,0,1-.25.07h0A.494.494,0,0,1,259.464,128.828Zm2.33-1.35a.5.5,0,0,1,.179-.69h0a.506.506,0,0,1,.691.18h0a.508.508,0,0,1-.191.69h0a.52.52,0,0,1-.25.07h0A.517.517,0,0,1,261.794,127.478Zm2.33-1.36a.5.5,0,0,1,.18-.69h0a.508.508,0,0,1,.69.19h0a.493.493,0,0,1-.181.68h0a.475.475,0,0,1-.25.07h0A.5.5,0,0,1,264.124,126.118Zm2.33-1.35a.507.507,0,0,1,.189-.69h0a.493.493,0,0,1,.68.18h0a.5.5,0,0,1-.18.69h0a.475.475,0,0,1-.25.07h0A.522.522,0,0,1,266.454,124.768Z"/>
        </g>
        <g>
          <rect class="e5b319cf-1189-41b1-a53d-1a208255255b" x="224.273" y="98.654" width="89.903" height="15.241"/>
          <path class="e5b319cf-1189-41b1-a53d-1a208255255b" d="M314.176,114.4h-89.9a.5.5,0,0,1-.5-.5V98.654a.5.5,0,0,1,.5-.5h89.9a.5.5,0,0,1,.5.5V113.9A.5.5,0,0,1,314.176,114.4Zm-89.4-1h88.9V99.156h-88.9Z"/>
        </g>
        <path class="aad068ce-9a72-41de-929a-c01202e3c049" d="M282.329,106.609H232.24a.335.335,0,1,1,0-.67h50.089a.335.335,0,0,1,0,.67Z"/>
        <g>
          <rect class="aad068ce-9a72-41de-929a-c01202e3c049" x="192.96" y="159.954" width="67.596" height="66.308"/>
          <path class="e5b319cf-1189-41b1-a53d-1a208255255b" d="M261.058,226.764h-68.6V159.452h68.6Zm-67.6-1h66.593v-65.3H193.462Z"/>
        </g>
        <g>
          <rect class="e5b319cf-1189-41b1-a53d-1a208255255b" x="192.96" y="159.954" width="67.596" height="14.248"/>
          <path class="e5b319cf-1189-41b1-a53d-1a208255255b" d="M260.556,174.7h-67.6a.5.5,0,0,1-.5-.5V159.954a.5.5,0,0,1,.5-.5h67.6a.5.5,0,0,1,.5.5V174.2A.5.5,0,0,1,260.556,174.7Zm-67.094-1h66.593V160.456H193.462Z"/>
        </g>
        <path class="aad068ce-9a72-41de-929a-c01202e3c049" d="M232.141,167.413H199.558a.335.335,0,1,1,0-.67h32.583a.335.335,0,0,1,0,.67Z"/>
        <g>
          <ellipse class="aad068ce-9a72-41de-929a-c01202e3c049" cx="247.767" cy="167.078" rx="1.882" ry="1.891"/>
          <ellipse class="aad068ce-9a72-41de-929a-c01202e3c049" cx="253.413" cy="167.078" rx="1.882" ry="1.891"/>
        </g>
        <g>
          <g>
            <path d="M407.287,155.451h-4.972a.335.335,0,0,1,0-.67h4.972a.335.335,0,0,1,0,.67Z"/>
            <path d="M411.28,145.584h-8.965a.335.335,0,0,1,0-.67h8.965a.335.335,0,0,1,0,.67Z"/>
          </g>
          <path d="M425.855,150.517h-23.54a.335.335,0,1,1,0-.669h23.54a.335.335,0,1,1,0,.669Z"/>
          <path d="M435.849,150.517H430.3a.335.335,0,1,1,0-.669h5.551a.335.335,0,1,1,0,.669Z"/>
        </g>
        <g>
          <g>
            <path d="M221.849,263.7a.336.336,0,0,1-.335-.335v-5a.335.335,0,1,1,.67,0v5A.335.335,0,0,1,221.849,263.7Z"/>
            <path d="M231.667,267.709a.335.335,0,0,1-.335-.335v-9.009a.335.335,0,1,1,.67,0v9.009A.336.336,0,0,1,231.667,267.709Z"/>
          </g>
          <path d="M226.758,279a.335.335,0,0,1-.335-.335v-20.3a.335.335,0,0,1,.67,0v20.3A.336.336,0,0,1,226.758,279Z"/>
          <path d="M226.758,292.4a.335.335,0,0,1-.335-.335V283.13a.335.335,0,0,1,.67,0v8.935A.336.336,0,0,1,226.758,292.4Z"/>
        </g>
        <g>
          <g>
            <path d="M181.883,57.415h-4.972a.335.335,0,1,1,0-.669h4.972a.335.335,0,1,1,0,.669Z"/>
            <path d="M181.883,67.282h-8.965a.335.335,0,0,1,0-.67h8.965a.335.335,0,1,1,0,.67Z"/>
          </g>
          <path d="M181.883,62.349H161.136a.335.335,0,0,1,0-.67h20.747a.335.335,0,0,1,0,.67Z"/>
          <path d="M155.678,62.349h-6.535a.335.335,0,0,1,0-.67h6.535a.335.335,0,0,1,0,.67Z"/>
        </g>
        <polygon class="b9787b19-c40b-4d78-a8a4-4407a6e36489" points="210.169 189.89 210.169 209.07 226.698 218.66 243.227 209.07 243.227 189.89 226.698 180.3 210.169 189.89"/>
        <g>
          <path class="e5b319cf-1189-41b1-a53d-1a208255255b" d="M269.224,95.654a.336.336,0,0,1-.335-.335v-5.6a.335.335,0,0,1,.67,0v5.6A.335.335,0,0,1,269.224,95.654Z"/>
          <path class="e5b319cf-1189-41b1-a53d-1a208255255b" d="M276.849,92.641a.336.336,0,0,1-.335-.335V73.336a.335.335,0,0,1,.67,0v18.97A.335.335,0,0,1,276.849,92.641Z"/>
          <path class="e5b319cf-1189-41b1-a53d-1a208255255b" d="M261.6,86.169a.336.336,0,0,1-.335-.335v-12.2a.335.335,0,0,1,.67,0v12.2A.335.335,0,0,1,261.6,86.169Z"/>
          <path class="e5b319cf-1189-41b1-a53d-1a208255255b" d="M269.224,83.561a.336.336,0,0,1-.335-.335V69.018a.335.335,0,0,1,.67,0V83.226A.335.335,0,0,1,269.224,83.561Z"/>
        </g>
        <g>
          <ellipse class="aad068ce-9a72-41de-929a-c01202e3c049" cx="299.651" cy="106.275" rx="1.882" ry="1.891"/>
          <ellipse class="aad068ce-9a72-41de-929a-c01202e3c049" cx="305.297" cy="106.275" rx="1.882" ry="1.891"/>
        </g>
        <g>
          <ellipse class="aad068ce-9a72-41de-929a-c01202e3c049" cx="348.147" cy="167.078" rx="1.882" ry="1.891"/>
          <ellipse class="aad068ce-9a72-41de-929a-c01202e3c049" cx="353.793" cy="167.078" rx="1.882" ry="1.891"/>
        </g>
        <g>
          <path class="e5b319cf-1189-41b1-a53d-1a208255255b" d="M210.174,190.388a.507.507,0,0,1-.361-.14.494.494,0,0,1-.149-.36.615.615,0,0,1,.04-.19.455.455,0,0,1,.109-.16.426.426,0,0,1,.16-.11.526.526,0,0,1,.39,0,.411.411,0,0,1,.16.11.473.473,0,0,1,.111.16.679.679,0,0,1,.04.19.534.534,0,0,1-.151.36A.514.514,0,0,1,210.174,190.388Z"/>
          <path class="e5b319cf-1189-41b1-a53d-1a208255255b" d="M209.664,206.328a.5.5,0,0,1,.5-.5h0a.5.5,0,0,1,.51.5h0a.5.5,0,0,1-.51.5h0A.5.5,0,0,1,209.664,206.328Zm0-2.74a.5.5,0,0,1,.5-.5h0a.5.5,0,0,1,.51.5h0a.5.5,0,0,1-.51.5h0A.5.5,0,0,1,209.664,203.588Zm0-2.74a.5.5,0,0,1,.5-.5h0a.5.5,0,0,1,.51.5h0a.5.5,0,0,1-.51.5h0A.5.5,0,0,1,209.664,200.848Zm0-2.74a.5.5,0,0,1,.5-.5h0a.5.5,0,0,1,.51.5h0a.5.5,0,0,1-.51.5h0A.5.5,0,0,1,209.664,198.108Zm0-2.74a.5.5,0,0,1,.5-.5h0a.5.5,0,0,1,.51.5h0a.5.5,0,0,1-.51.5h0A.5.5,0,0,1,209.664,195.368Zm0-2.74a.5.5,0,0,1,.5-.5h0a.5.5,0,0,1,.51.5h0a.5.5,0,0,1-.51.5h0A.5.5,0,0,1,209.664,192.628Z"/>
          <path class="e5b319cf-1189-41b1-a53d-1a208255255b" d="M210.174,209.568a.507.507,0,0,1-.361-.14.494.494,0,0,1-.149-.36.508.508,0,0,1,.149-.35.426.426,0,0,1,.16-.11.526.526,0,0,1,.39,0,.411.411,0,0,1,.16.11.51.51,0,0,1,.151.35.534.534,0,0,1-.151.36A.5.5,0,0,1,210.174,209.568Z"/>
          <path class="e5b319cf-1189-41b1-a53d-1a208255255b" d="M224.084,217.728a.506.506,0,0,1-.181-.69h0a.5.5,0,0,1,.681-.18h0a.5.5,0,0,1,.189.68h0a.508.508,0,0,1-.439.25h0A.573.573,0,0,1,224.084,217.728Zm-2.361-1.38a.49.49,0,0,1-.179-.68h0a.49.49,0,0,1,.679-.18h0a.492.492,0,0,1,.18.68h0a.5.5,0,0,1-.43.25h0A.456.456,0,0,1,221.723,216.348Zm-2.36-1.36a.5.5,0,0,1-.18-.69h0a.491.491,0,0,1,.68-.18h0a.5.5,0,0,1,.181.68h0a.5.5,0,0,1-.431.25h0A.542.542,0,0,1,219.363,214.988ZM217,213.618a.509.509,0,0,1-.191-.69h0a.506.506,0,0,1,.691-.18h0a.493.493,0,0,1,.179.68h0a.493.493,0,0,1-.429.25h0A.511.511,0,0,1,217,213.618Zm-2.37-1.37a.512.512,0,0,1-.18-.69h0a.5.5,0,0,1,.689-.18h0a.492.492,0,0,1,.18.68h0a.5.5,0,0,1-.439.25h0A.573.573,0,0,1,214.634,212.248Zm-2.361-1.37a.5.5,0,0,1-.179-.69h0a.5.5,0,0,1,.689-.18h0a.5.5,0,0,1,.181.68h0a.5.5,0,0,1-.431.25h0A.583.583,0,0,1,212.273,210.878Z"/>
          <path class="e5b319cf-1189-41b1-a53d-1a208255255b" d="M226.693,219.158a.5.5,0,0,1-.5-.5.47.47,0,0,1,.151-.35.35.35,0,0,1,.16-.11.523.523,0,0,1,.389,0,.415.415,0,0,1,.161.11.514.514,0,0,1,.15.35.538.538,0,0,1-.15.36A.507.507,0,0,1,226.693,219.158Z"/>
          <path class="e5b319cf-1189-41b1-a53d-1a208255255b" d="M228.624,217.538a.492.492,0,0,1,.18-.68h0a.505.505,0,0,1,.69.18h0a.5.5,0,0,1-.181.69h0a.573.573,0,0,1-.25.06h0A.5.5,0,0,1,228.624,217.538Zm2.359-1.37a.5.5,0,0,1,.181-.68h0a.5.5,0,0,1,.689.18h0a.5.5,0,0,1-.179.69h0a.573.573,0,0,1-.25.06h0A.5.5,0,0,1,230.983,216.168Zm2.361-1.37a.5.5,0,0,1,.179-.68h0a.5.5,0,0,1,.691.18h0a.506.506,0,0,1-.181.69h0a.57.57,0,0,1-.25.06h0A.508.508,0,0,1,233.344,214.8Zm2.36-1.37a.5.5,0,0,1,.189-.68h0a.493.493,0,0,1,.68.18h0a.5.5,0,0,1-.18.69h0a.573.573,0,0,1-.25.06h0A.522.522,0,0,1,235.7,213.428Zm2.369-1.37a.494.494,0,0,1,.181-.68h0a.492.492,0,0,1,.679.18h0a.5.5,0,0,1-.179.69h0a.573.573,0,0,1-.25.06h0A.5.5,0,0,1,238.073,212.058Zm2.36-1.37a.5.5,0,0,1,.18-.68h0a.492.492,0,0,1,.681.18h0a.5.5,0,0,1-.181.69h0a.539.539,0,0,1-.25.06h0A.5.5,0,0,1,240.433,210.688Z"/>
          <path class="e5b319cf-1189-41b1-a53d-1a208255255b" d="M243.223,209.568a.5.5,0,0,1-.349-.14.429.429,0,0,1-.11-.17.4.4,0,0,1-.041-.19.421.421,0,0,1,.041-.19.34.34,0,0,1,.11-.16.352.352,0,0,1,.159-.11.513.513,0,0,1,.551.11.617.617,0,0,1,.109.16.6.6,0,0,1,.03.19.557.557,0,0,1-.03.19.593.593,0,0,1-.109.17A.528.528,0,0,1,243.223,209.568Z"/>
          <path class="e5b319cf-1189-41b1-a53d-1a208255255b" d="M242.723,206.328a.5.5,0,0,1,.5-.5h0a.51.51,0,0,1,.51.5h0a.5.5,0,0,1-.51.5h0A.5.5,0,0,1,242.723,206.328Zm0-2.74a.5.5,0,0,1,.5-.5h0a.5.5,0,0,1,.51.5h0a.5.5,0,0,1-.51.5h0A.5.5,0,0,1,242.723,203.588Zm0-2.74a.5.5,0,0,1,.5-.5h0a.51.51,0,0,1,.51.5h0a.5.5,0,0,1-.51.5h0A.5.5,0,0,1,242.723,200.848Zm0-2.74a.5.5,0,0,1,.5-.5h0a.5.5,0,0,1,.51.5h0a.5.5,0,0,1-.51.5h0A.5.5,0,0,1,242.723,198.108Zm0-2.74a.5.5,0,0,1,.5-.5h0a.5.5,0,0,1,.51.5h0a.5.5,0,0,1-.51.5h0A.5.5,0,0,1,242.723,195.368Zm0-2.74a.5.5,0,0,1,.5-.5h0a.5.5,0,0,1,.51.5h0a.5.5,0,0,1-.51.5h0A.5.5,0,0,1,242.723,192.628Z"/>
          <path class="e5b319cf-1189-41b1-a53d-1a208255255b" d="M243.223,190.388a.5.5,0,0,1-.349-.14.488.488,0,0,1-.151-.36.466.466,0,0,1,.151-.35.352.352,0,0,1,.159-.11.513.513,0,0,1,.551.11.5.5,0,0,1,.139.35.478.478,0,0,1-.5.5Z"/>
          <path class="e5b319cf-1189-41b1-a53d-1a208255255b" d="M240.613,188.958a.507.507,0,0,1-.18-.69h0a.494.494,0,0,1,.68-.18h0a.486.486,0,0,1,.181.68h0a.5.5,0,0,1-.431.25h0A.542.542,0,0,1,240.613,188.958Zm-2.359-1.37a.505.505,0,0,1-.181-.69h0a.493.493,0,0,1,.681-.18h0a.493.493,0,0,1,.179.68h0a.493.493,0,0,1-.429.25h0A.542.542,0,0,1,238.254,187.588Zm-2.361-1.37a.507.507,0,0,1-.189-.69h0a.5.5,0,0,1,.689-.18h0a.492.492,0,0,1,.18.68h0a.5.5,0,0,1-.43.25h0A.519.519,0,0,1,235.893,186.218Zm-2.37-1.37a.515.515,0,0,1-.179-.69h0a.5.5,0,0,1,.689-.18h0a.5.5,0,0,1,.181.68h0a.5.5,0,0,1-.441.25h0A.573.573,0,0,1,233.523,184.848Zm-2.359-1.38a.492.492,0,0,1-.181-.68h0a.506.506,0,0,1,.691-.18h0a.492.492,0,0,1,.179.68h0a.493.493,0,0,1-.429.25h0A.484.484,0,0,1,231.164,183.468Zm-2.36-1.37a.489.489,0,0,1-.18-.68h0a.5.5,0,0,1,.689-.18h0a.493.493,0,0,1,.181.68h0a.5.5,0,0,1-.44.25h0A.473.473,0,0,1,228.8,182.1Z"/>
          <path class="e5b319cf-1189-41b1-a53d-1a208255255b" d="M226.693,180.8a.514.514,0,0,1-.349-.14.492.492,0,0,1-.151-.36.47.47,0,0,1,.151-.35.35.35,0,0,1,.16-.11.523.523,0,0,1,.389,0,.415.415,0,0,1,.161.11.514.514,0,0,1,.15.35.538.538,0,0,1-.15.36A.525.525,0,0,1,226.693,180.8Z"/>
          <path class="e5b319cf-1189-41b1-a53d-1a208255255b" d="M212.094,188.768a.493.493,0,0,1,.179-.68h0a.506.506,0,0,1,.691.18h0a.506.506,0,0,1-.181.69h0a.57.57,0,0,1-.25.06h0A.5.5,0,0,1,212.094,188.768Zm2.36-1.37a.492.492,0,0,1,.18-.68h0a.5.5,0,0,1,.689.18h0a.489.489,0,0,1-.18.68h0a.475.475,0,0,1-.25.07h0A.511.511,0,0,1,214.454,187.4Zm2.359-1.37a.5.5,0,0,1,.191-.68h0a.492.492,0,0,1,.679.18h0a.5.5,0,0,1-.179.69h0a.573.573,0,0,1-.25.06h0A.527.527,0,0,1,216.813,186.028Zm2.37-1.37a.5.5,0,0,1,.18-.68h0a.5.5,0,0,1,.681.18h0a.506.506,0,0,1-.181.69h0a.539.539,0,0,1-.25.06h0A.5.5,0,0,1,219.183,184.658Zm2.361-1.37a.492.492,0,0,1,.179-.68h0a.506.506,0,0,1,.691.18h0a.517.517,0,0,1-.191.69h0a.542.542,0,0,1-.25.06h0A.5.5,0,0,1,221.544,183.288Zm2.359-1.37a.5.5,0,0,1,.181-.68h0a.5.5,0,0,1,.689.18h0a.524.524,0,0,1-.179.69h0a.583.583,0,0,1-.26.06h0A.5.5,0,0,1,223.9,181.918Z"/>
        </g>
        <g>
          <path class="e5b319cf-1189-41b1-a53d-1a208255255b" d="M327.139,237.037a.335.335,0,0,1-.335-.335V229a.335.335,0,1,1,.669,0v7.7A.335.335,0,0,1,327.139,237.037Z"/>
          <path class="e5b319cf-1189-41b1-a53d-1a208255255b" d="M319.514,251.317a.335.335,0,0,1-.335-.335v-16.66a.335.335,0,1,1,.669,0v16.66A.335.335,0,0,1,319.514,251.317Z"/>
          <path class="e5b319cf-1189-41b1-a53d-1a208255255b" d="M334.764,251.02a.335.335,0,0,1-.335-.335v-13.76a.335.335,0,1,1,.669,0v13.76A.335.335,0,0,1,334.764,251.02Z"/>
          <path class="e5b319cf-1189-41b1-a53d-1a208255255b" d="M327.139,255.635a.335.335,0,0,1-.335-.335V243.106a.335.335,0,1,1,.669,0V255.3A.335.335,0,0,1,327.139,255.635Z"/>
        </g>
        <g>
          <path class="e5b319cf-1189-41b1-a53d-1a208255255b" d="M203.657,199.376H189.166a.335.335,0,0,1,0-.67h14.491a.335.335,0,0,1,0,.67Z"/>
          <path class="e5b319cf-1189-41b1-a53d-1a208255255b" d="M185.761,199.376h-8.275a.335.335,0,1,1,0-.67h8.275a.335.335,0,0,1,0,.67Z"/>
          <path class="e5b319cf-1189-41b1-a53d-1a208255255b" d="M182.282,194.689h-4.8a.335.335,0,0,1,0-.67h4.8a.335.335,0,0,1,0,.67Z"/>
          <path class="e5b319cf-1189-41b1-a53d-1a208255255b" d="M188.722,203.951H177.486a.335.335,0,0,1,0-.67h11.236a.335.335,0,0,1,0,.67Z"/>
        </g>
        <path class="aad068ce-9a72-41de-929a-c01202e3c049" d="M269.242,54.506a.419.419,0,0,1-.418-.419V40.6a.418.418,0,1,1,.836,0V54.087A.419.419,0,0,1,269.242,54.506Z"/>
        <polygon class="e5b319cf-1189-41b1-a53d-1a208255255b" points="381.794 145.658 381.794 154.707 389.592 159.231 397.39 154.707 397.39 145.658 389.592 141.134 381.794 145.658"/>
        <path class="aad068ce-9a72-41de-929a-c01202e3c049" d="M269.242,62.628a.418.418,0,0,1-.418-.418V40.6a.418.418,0,1,1,.836,0V62.21A.418.418,0,0,1,269.242,62.628Z"/>
        <g class="af2b31c6-79bb-47eb-b9c7-ec2c62e6070d">
          <g>
            <g>
              <line class="e5b319cf-1189-41b1-a53d-1a208255255b" x1="397.774" y1="145.46" x2="389.586" y2="150.186"/>
              <path class="aad068ce-9a72-41de-929a-c01202e3c049" d="M389.586,150.521a.335.335,0,0,1-.167-.625l8.188-4.726a.335.335,0,1,1,.334.58l-8.188,4.726A.33.33,0,0,1,389.586,150.521Z"/>
            </g>
            <path class="aad068ce-9a72-41de-929a-c01202e3c049" d="M389.594,160.822h0a.336.336,0,0,1-.335-.335l0-10.107-8.166-4.7a.335.335,0,0,1,.334-.58l8.333,4.8a.336.336,0,0,1,.168.29l0,10.3A.336.336,0,0,1,389.594,160.822Z"/>
          </g>
        </g>
        <polygon class="e5b319cf-1189-41b1-a53d-1a208255255b" points="218.96 241.402 218.96 250.45 226.758 254.975 234.556 250.45 234.556 241.402 226.758 236.877 218.96 241.402"/>
        <g>
          <polygon class="e5b319cf-1189-41b1-a53d-1a208255255b" points="171.609 188.383 171.609 207.351 155.263 216.834 138.918 207.351 138.918 188.383 155.263 178.899 171.609 188.383"/>
          <g class="b52da57c-f915-40be-bab9-bb43e56db969">
            <g>
              <line class="e5b319cf-1189-41b1-a53d-1a208255255b" x1="138.918" y1="188.383" x2="155.277" y2="197.875"/>
              <path class="aad068ce-9a72-41de-929a-c01202e3c049" d="M155.277,198.2a.322.322,0,0,1-.163-.044l-16.359-9.492a.325.325,0,1,1,.326-.562l16.359,9.492a.325.325,0,0,1-.163.606Z"/>
            </g>
            <path class="aad068ce-9a72-41de-929a-c01202e3c049" d="M155.277,220.207a.325.325,0,0,1-.325-.325V197.875a.325.325,0,1,1,.65,0v22.007A.325.325,0,0,1,155.277,220.207Z"/>
            <g>
              <line class="e5b319cf-1189-41b1-a53d-1a208255255b" x1="171.609" y1="188.383" x2="155.277" y2="197.875"/>
              <path class="aad068ce-9a72-41de-929a-c01202e3c049" d="M155.278,198.2a.325.325,0,0,1-.164-.606l16.332-9.492a.325.325,0,0,1,.327.562l-16.332,9.492A.325.325,0,0,1,155.278,198.2Z"/>
            </g>
          </g>
          <g class="b52da57c-f915-40be-bab9-bb43e56db969">
            <path d="M142.028,173.518c-.982,1.061-1.425,3.178-1.85,4.5a30.018,30.018,0,0,0-1.661,8.655c-.052,4.05,2.571,7.87,5.132,10.835,2.459,2.848,5.681,4.955,7.937,7.992a14.358,14.358,0,0,1,1.1,1.726,21.3,21.3,0,0,1,2.168,12.038c-.018.2-.047,1.423-.377,1.435l-22.162.776-1.693-47.5S142.428,173.087,142.028,173.518Z"/>
          </g>
        </g>
        <g class="bdc0124c-69bd-4c8a-be69-45b5574bc946">
          <g>
            <polygon class="aad068ce-9a72-41de-929a-c01202e3c049" points="226.919 246.22 226.585 245.64 234.772 240.913 235.106 241.493 226.919 246.22"/>
            <polygon class="aad068ce-9a72-41de-929a-c01202e3c049" points="227.095 256.23 226.425 256.23 226.43 246.123 218.264 241.419 218.598 240.839 227.099 245.736 227.095 256.23"/>
          </g>
        </g>
        <g>
          <polygon class="e5b319cf-1189-41b1-a53d-1a208255255b" points="345.387 270.057 345.387 291.233 327.138 301.822 308.889 291.233 308.889 270.057 327.138 259.469 345.387 270.057"/>
          <g class="bb159413-508a-41d7-b9fe-149ec669e827">
            <g>
              <line class="e5b319cf-1189-41b1-a53d-1a208255255b" x1="308.889" y1="270.057" x2="327.154" y2="280.654"/>
              <path class="aad068ce-9a72-41de-929a-c01202e3c049" d="M327.154,281.017a.363.363,0,0,1-.182-.049l-18.265-10.6a.363.363,0,0,1,.365-.628l18.265,10.6a.363.363,0,0,1-.183.677Z"/>
            </g>
            <path class="aad068ce-9a72-41de-929a-c01202e3c049" d="M327.154,305.586a.363.363,0,0,1-.363-.362v-24.57a.363.363,0,0,1,.726,0v24.57A.363.363,0,0,1,327.154,305.586Z"/>
            <g>
              <line class="e5b319cf-1189-41b1-a53d-1a208255255b" x1="345.387" y1="270.057" x2="327.154" y2="280.654"/>
              <path class="aad068ce-9a72-41de-929a-c01202e3c049" d="M327.154,281.017a.363.363,0,0,1-.182-.677l18.233-10.6a.363.363,0,0,1,.365.628l-18.233,10.6A.367.367,0,0,1,327.154,281.017Z"/>
            </g>
          </g>
          <g class="bb159413-508a-41d7-b9fe-149ec669e827">
            <path d="M312.362,253.462c-1.1,1.183-1.591,3.547-2.065,5.027a33.488,33.488,0,0,0-1.855,9.663c-.058,4.521,2.87,8.786,5.729,12.1,2.746,3.18,6.343,5.532,8.861,8.923a15.722,15.722,0,0,1,1.235,1.927,23.779,23.779,0,0,1,2.42,13.439c-.021.221-.053,1.59-.42,1.6l-24.744.866-1.89-53.033S312.808,252.98,312.362,253.462Z"/>
          </g>
        </g>
        <polygon class="e5b319cf-1189-41b1-a53d-1a208255255b" points="290.261 28.384 290.261 52.795 269.225 65 248.188 52.795 248.188 28.384 269.225 16.178 290.261 28.384"/>
        <polygon class="e5b319cf-1189-41b1-a53d-1a208255255b" points="189.654 57.643 189.654 65.966 196.827 70.128 203.999 65.966 203.999 57.643 196.827 53.481 189.654 57.643"/>
        <g class="a55a914e-918a-43a9-8e3f-2457880eade4">
          <g>
            <line class="e5b319cf-1189-41b1-a53d-1a208255255b" x1="204.675" y1="57.23" x2="196.821" y2="61.808"/>
            <path class="aad068ce-9a72-41de-929a-c01202e3c049" d="M196.82,62.142a.335.335,0,0,1-.169-.624l7.855-4.577a.335.335,0,0,1,.338.578L196.989,62.1A.335.335,0,0,1,196.82,62.142Z"/>
          </g>
          <path class="aad068ce-9a72-41de-929a-c01202e3c049" d="M196.828,70.881h0a.335.335,0,0,1-.335-.335l0-8.545-7.276-4.183a.334.334,0,1,1,.333-.58L197,61.517a.338.338,0,0,1,.168.291l0,8.738A.335.335,0,0,1,196.828,70.881Z"/>
        </g>
        <g class="bb6d8b33-3ec5-487a-a1bc-4f1045c268a1">
          <g>
            <g>
              <line class="e5b319cf-1189-41b1-a53d-1a208255255b" x1="248.188" y1="28.384" x2="269.242" y2="40.6"/>
              <path class="aad068ce-9a72-41de-929a-c01202e3c049" d="M269.242,41.018a.412.412,0,0,1-.21-.057L247.978,28.746a.419.419,0,1,1,.42-.724l21.054,12.216a.418.418,0,0,1-.21.78Z"/>
            </g>
            <path class="aad068ce-9a72-41de-929a-c01202e3c049" d="M269.242,69.341a.419.419,0,0,1-.418-.419V40.6a.418.418,0,1,1,.836,0V68.922A.419.419,0,0,1,269.242,69.341Z"/>
            <g>
              <line class="e5b319cf-1189-41b1-a53d-1a208255255b" x1="290.261" y1="28.384" x2="269.242" y2="40.6"/>
              <path class="aad068ce-9a72-41de-929a-c01202e3c049" d="M269.242,41.018a.418.418,0,0,1-.21-.78l21.02-12.216a.419.419,0,0,1,.42.724l-21.02,12.215A.41.41,0,0,1,269.242,41.018Z"/>
            </g>
          </g>
        </g>
        <g class="bb6d8b33-3ec5-487a-a1bc-4f1045c268a1">
          <path d="M252.191,9.253c-1.263,1.365-1.834,4.089-2.38,5.8a38.6,38.6,0,0,0-2.139,11.139c-.066,5.212,3.309,10.129,6.6,13.944,3.165,3.666,7.312,6.378,10.215,10.286a18.484,18.484,0,0,1,1.423,2.221A27.421,27.421,0,0,1,268.7,68.131c-.023.254-.06,1.832-.484,1.847l-28.523,1L237.518,9.843S252.705,8.7,252.191,9.253Z"/>
        </g>
      </g>
    </g>
  </g>
</svg>
