<svg id="b7b0d56c-ab98-4f4d-9245-1be3f4222c79" data-name="Layer 1" xmlns="http://www.w3.org/2000/svg" xmlns:xlink="http://www.w3.org/1999/xlink" viewBox="0 0 262 180">
  <defs>
    <style>
      .edefa905-d8af-4639-9b88-d54e768bbf0a {
        fill: none;
      }

      .a3a46463-bfda-40de-80d1-493088aafe11 {
        fill: #fc0000;
      }

      .b7d1f78a-e2f8-49cb-abbd-6499d3f1d630 {
        fill: #e00;
      }

      .f9009796-b256-4fe9-8013-d8b954cad4c3 {
        fill: red;
      }

      .e5488beb-e0e1-463c-8465-42e531cd4ab0 {
        fill: #fadfdf;
      }

      .b140ac0e-446d-48c3-82f0-167be84d6fe7 {
        fill: #fff;
      }

      .b96da101-b81d-4632-ae30-a682b79928eb {
        fill: #fddbdb;
      }

      .bbc8c0f0-d53b-4ad9-b8cc-befbf92483be {
        fill: #f56d6d;
      }

      .ab76057d-0207-4702-b9b1-37087906d6cc {
        fill: #fab6b6;
      }

      .bda71fc9-c33a-4599-afad-8b915837a5f8 {
        fill: url(#a8eb2715-c2a1-400a-b59a-2f2263c4fd28);
      }
    </style>
    <pattern id="a8eb2715-c2a1-400a-b59a-2f2263c4fd28" data-name="10 dpi 20%" width="28.8" height="28.801" patternTransform="translate(40.654 -11.124) scale(0.154)" patternUnits="userSpaceOnUse" viewBox="0 0 28.8 28.801">
      <rect class="edefa905-d8af-4639-9b88-d54e768bbf0a" width="28.8" height="28.801"/>
      <g>
        <path class="a3a46463-bfda-40de-80d1-493088aafe11" d="M28.8,30.24A1.44,1.44,0,1,0,27.359,28.8,1.439,1.439,0,0,0,28.8,30.24Z"/>
        <path class="a3a46463-bfda-40de-80d1-493088aafe11" d="M14.4,30.24A1.44,1.44,0,1,0,12.96,28.8,1.44,1.44,0,0,0,14.4,30.24Z"/>
        <path class="a3a46463-bfda-40de-80d1-493088aafe11" d="M28.8,15.842A1.441,1.441,0,1,0,27.359,14.4,1.441,1.441,0,0,0,28.8,15.842Z"/>
        <path class="a3a46463-bfda-40de-80d1-493088aafe11" d="M14.4,15.842A1.441,1.441,0,1,0,12.96,14.4,1.443,1.443,0,0,0,14.4,15.842Z"/>
        <path class="a3a46463-bfda-40de-80d1-493088aafe11" d="M7.2,23.041A1.441,1.441,0,1,0,5.76,21.6,1.44,1.44,0,0,0,7.2,23.041Z"/>
        <path class="a3a46463-bfda-40de-80d1-493088aafe11" d="M21.6,23.041a1.441,1.441,0,1,0-1.44-1.439A1.44,1.44,0,0,0,21.6,23.041Z"/>
        <path class="a3a46463-bfda-40de-80d1-493088aafe11" d="M7.2,8.641A1.441,1.441,0,1,0,5.76,7.2,1.44,1.44,0,0,0,7.2,8.641Z"/>
        <path class="a3a46463-bfda-40de-80d1-493088aafe11" d="M21.6,8.641a1.441,1.441,0,1,0-1.44-1.44A1.441,1.441,0,0,0,21.6,8.641Z"/>
      </g>
      <g>
        <path class="a3a46463-bfda-40de-80d1-493088aafe11" d="M0,30.24A1.439,1.439,0,0,0,1.439,28.8,1.44,1.44,0,0,0,0,27.361,1.441,1.441,0,0,0-1.441,28.8,1.44,1.44,0,0,0,0,30.24Z"/>
        <path class="a3a46463-bfda-40de-80d1-493088aafe11" d="M0,15.842A1.441,1.441,0,0,0,1.439,14.4,1.44,1.44,0,0,0,0,12.961,1.441,1.441,0,0,0-1.441,14.4,1.442,1.442,0,0,0,0,15.842Z"/>
      </g>
      <g>
        <path class="a3a46463-bfda-40de-80d1-493088aafe11" d="M28.8,1.44A1.44,1.44,0,0,0,30.239,0,1.439,1.439,0,0,0,28.8-1.439,1.44,1.44,0,0,0,27.359,0,1.441,1.441,0,0,0,28.8,1.44Z"/>
        <path class="a3a46463-bfda-40de-80d1-493088aafe11" d="M14.4,1.44A1.441,1.441,0,0,0,15.84,0,1.44,1.44,0,0,0,14.4-1.439,1.438,1.438,0,0,0,12.96,0,1.439,1.439,0,0,0,14.4,1.44Z"/>
      </g>
      <path class="a3a46463-bfda-40de-80d1-493088aafe11" d="M0,1.44A1.44,1.44,0,0,0,1.439,0,1.439,1.439,0,0,0,0-1.439,1.44,1.44,0,0,0-1.441,0,1.441,1.441,0,0,0,0,1.44Z"/>
    </pattern>
  </defs>
  <g>
    <g>
      <g>
        <path class="b7d1f78a-e2f8-49cb-abbd-6499d3f1d630" d="M194.3,110.386h.6v1.491h1.758v-1.491h.606v3.536h-.606v-1.515H194.9v1.515h-.6Z"/>
        <path class="b7d1f78a-e2f8-49cb-abbd-6499d3f1d630" d="M199.192,113.972a1.286,1.286,0,0,1-1.288-1.313,1.246,1.246,0,0,1,1.233-1.308,1.214,1.214,0,0,1,1.2,1.3v.142h-1.869a.773.773,0,0,0,.758.691.817.817,0,0,0,.6-.237l.374.349A1.458,1.458,0,0,1,199.192,113.972Zm-.718-1.525h1.319a.692.692,0,0,0-.661-.631A.682.682,0,0,0,198.474,112.447Z"/>
        <path class="b7d1f78a-e2f8-49cb-abbd-6499d3f1d630" d="M200.768,113.194c0-.454.369-.742.965-.742a1.566,1.566,0,0,1,.682.157v-.278c0-.333-.192-.505-.581-.505a1.741,1.741,0,0,0-.737.2l-.2-.414a2.428,2.428,0,0,1,1.051-.258c.656,0,1.035.334,1.035.92v1.651h-.565v-.258a1.056,1.056,0,0,1-.753.3A.8.8,0,0,1,200.768,113.194Zm1.05.37a.906.906,0,0,0,.6-.207v-.415a1.309,1.309,0,0,0-.586-.121c-.323,0-.525.142-.525.364S201.506,113.564,201.818,113.564Z"/>
        <path class="b7d1f78a-e2f8-49cb-abbd-6499d3f1d630" d="M205.481,113.584a.974.974,0,0,1-.778.363,1.213,1.213,0,0,1-1.146-1.288,1.226,1.226,0,0,1,1.181-1.288.964.964,0,0,1,.737.334v-1.394l.572-.1v3.707h-.566Zm-.606-.117a.754.754,0,0,0,.6-.277v-1.066a.782.782,0,0,0-.6-.273.81.81,0,0,0,0,1.616Z"/>
        <path class="b7d1f78a-e2f8-49cb-abbd-6499d3f1d630" d="M207.324,113.922h-.57v-3.611l.57-.1Z"/>
        <path class="b7d1f78a-e2f8-49cb-abbd-6499d3f1d630" d="M207.957,110.528a.356.356,0,0,1,.712,0,.356.356,0,0,1-.712,0Zm.641,3.394h-.571v-2.53h.571Z"/>
        <path class="b7d1f78a-e2f8-49cb-abbd-6499d3f1d630" d="M209.3,111.392h.57v.414a.92.92,0,0,1,.8-.455.852.852,0,0,1,.874.9v1.667h-.572v-1.5a.544.544,0,0,0-.555-.606.649.649,0,0,0-.551.3v1.808h-.57Z"/>
        <path class="b7d1f78a-e2f8-49cb-abbd-6499d3f1d630" d="M213.412,113.972a1.285,1.285,0,0,1-1.288-1.313,1.246,1.246,0,0,1,1.232-1.308,1.214,1.214,0,0,1,1.2,1.3v.142h-1.87a.774.774,0,0,0,.758.691.818.818,0,0,0,.6-.237l.374.349A1.46,1.46,0,0,1,213.412,113.972Zm-.717-1.525h1.318a.693.693,0,0,0-.662-.631A.68.68,0,0,0,212.7,112.447Z"/>
      </g>
      <g>
        <path d="M183.755,118.4h.389v3.192h2v.344h-2.384Z"/>
        <path d="M187.721,119.429a1.28,1.28,0,1,1-1.2,1.272A1.21,1.21,0,0,1,187.721,119.429Zm.837,1.277a.843.843,0,1,0-1.671,0,.842.842,0,1,0,1.671,0Z"/>
        <path d="M189.569,119.469h.368v.5a.738.738,0,0,1,.688-.546.7.7,0,0,1,.232.036v.333a.926.926,0,0,0-.258-.045.7.7,0,0,0-.662.5v1.687h-.368Z"/>
        <path d="M192.3,121.979a1.23,1.23,0,0,1-1.223-1.278,1.2,1.2,0,0,1,1.162-1.272,1.163,1.163,0,0,1,1.131,1.242v.111h-1.935a.9.9,0,0,0,.879.874,1,1,0,0,0,.677-.253l.232.248A1.438,1.438,0,0,1,192.3,121.979Zm-.854-1.459h1.561a.815.815,0,0,0-.774-.773A.823.823,0,0,0,191.449,120.52Z"/>
        <path d="M194.005,119.469h.368v.384a.844.844,0,0,1,.732-.424.81.81,0,0,1,.758.479.912.912,0,0,1,.823-.479.838.838,0,0,1,.839.914v1.591h-.369v-1.5c0-.429-.232-.7-.605-.7a.687.687,0,0,0-.617.39,1.025,1.025,0,0,1,.02.217v1.591h-.368v-1.5a.613.613,0,0,0-.612-.7.677.677,0,0,0-.6.364v1.834h-.368Z"/>
        <path d="M199.369,118.6a.265.265,0,0,1,.53,0,.265.265,0,1,1-.53,0Zm.449,3.339h-.368v-2.465h.368Z"/>
        <path d="M200.576,119.469h.363v.353a.975.975,0,0,1,.8-.383,1.271,1.271,0,0,1-.019,2.53,1,1,0,0,1-.774-.343v1.363h-.368Zm.368.631v1.207a.866.866,0,0,0,.7.344.948.948,0,0,0,0-1.889A.842.842,0,0,0,200.944,120.1Z"/>
        <path d="M203.481,121.373a1.285,1.285,0,0,0,.792.308c.36,0,.622-.187.622-.444,0-.2-.131-.308-.444-.369l-.4-.071c-.481-.085-.7-.288-.7-.646,0-.424.37-.722.889-.722a1.6,1.6,0,0,1,.94.307l-.182.258a1.312,1.312,0,0,0-.772-.262c-.324,0-.536.151-.536.394,0,.2.106.3.424.353l.414.076c.495.091.718.3.718.661a.864.864,0,0,1-.96.763,1.4,1.4,0,0,1-1-.364Z"/>
        <path d="M206.163,120.954a.637.637,0,0,0,.656.712.731.731,0,0,0,.647-.374v-1.823h.369v2.465h-.369v-.4a.883.883,0,0,1-.783.439.862.862,0,0,1-.894-.914v-1.591h.374Z"/>
        <path d="M208.593,119.469h.368v.384a.844.844,0,0,1,.732-.424.81.81,0,0,1,.758.479.911.911,0,0,1,.823-.479.839.839,0,0,1,.839.914v1.591h-.369v-1.5c0-.429-.232-.7-.6-.7a.687.687,0,0,0-.617.39,1.025,1.025,0,0,1,.02.217v1.591h-.368v-1.5a.614.614,0,0,0-.612-.7.676.676,0,0,0-.6.364v1.834h-.368Z"/>
        <path d="M215.851,121.606a.971.971,0,0,1-.788.363,1.271,1.271,0,0,1,.02-2.53,1,1,0,0,1,.768.343v-1.46l.369-.075v3.687h-.369Zm-.7.04a.847.847,0,0,0,.7-.328V120.1a.912.912,0,1,0-.7,1.551Z"/>
        <path d="M218.063,119.429a1.28,1.28,0,1,1-1.2,1.272A1.21,1.21,0,0,1,218.063,119.429Zm.838,1.277a.843.843,0,1,0-1.672,0,.843.843,0,1,0,1.672,0Z"/>
        <path d="M220.28,121.934h-.368v-3.612l.368-.075Z"/>
        <path d="M222.124,119.429a1.28,1.28,0,1,1-1.2,1.272A1.21,1.21,0,0,1,222.124,119.429Zm.838,1.277a.843.843,0,1,0-1.672,0,.843.843,0,1,0,1.672,0Z"/>
        <path d="M223.973,119.469h.368v.5a.738.738,0,0,1,.687-.546.715.715,0,0,1,.233.036v.333a.933.933,0,0,0-.258-.045.7.7,0,0,0-.662.5v1.687h-.368Z"/>
        <path d="M195.644,127.435a1.286,1.286,0,0,0,.793.308c.359,0,.621-.187.621-.444,0-.2-.131-.308-.444-.369l-.4-.07c-.481-.086-.7-.289-.7-.647,0-.424.369-.723.888-.723a1.6,1.6,0,0,1,.94.308l-.182.258a1.312,1.312,0,0,0-.772-.262c-.324,0-.536.151-.536.394,0,.2.106.3.424.353l.414.076c.5.091.717.3.717.661a.863.863,0,0,1-.959.763,1.4,1.4,0,0,1-1-.364Z"/>
        <path d="M197.887,124.657a.265.265,0,0,1,.53,0,.265.265,0,1,1-.53,0Zm.449,3.339h-.368v-2.465h.368Z"/>
        <path d="M199.387,125.834h-.51v-.3h.51v-.677l.368-.086v.763h.707v.3h-.707v1.51c0,.263.1.369.359.369a.874.874,0,0,0,.348-.066v.329a1.391,1.391,0,0,1-.429.065c-.425,0-.646-.207-.646-.6Z"/>
        <path d="M202.048,127.289c0-.44.369-.733.925-.733a1.421,1.421,0,0,1,.751.192v-.338a.555.555,0,0,0-.635-.612,1.623,1.623,0,0,0-.748.213l-.136-.283a2.119,2.119,0,0,1,.929-.238c.611,0,.955.308.955.87V128h-.365v-.288a1.055,1.055,0,0,1-.782.333A.8.8,0,0,1,202.048,127.289Zm.969.469a.971.971,0,0,0,.707-.282V127a1.3,1.3,0,0,0-.7-.177c-.379,0-.627.182-.627.454C202.4,127.567,202.649,127.758,203.017,127.758Z"/>
        <path d="M204.837,125.531h.368v.384a.845.845,0,0,1,.732-.425.811.811,0,0,1,.758.48.913.913,0,0,1,.823-.48.839.839,0,0,1,.839.915V128h-.369v-1.5c0-.429-.232-.7-.6-.7a.687.687,0,0,0-.617.39,1.025,1.025,0,0,1,.02.217V128h-.368v-1.5a.613.613,0,0,0-.611-.7.677.677,0,0,0-.6.364V128h-.368Z"/>
        <path d="M210.217,128.041a1.23,1.23,0,0,1-1.223-1.278,1.2,1.2,0,0,1,1.162-1.273,1.164,1.164,0,0,1,1.131,1.243v.111h-1.935a.9.9,0,0,0,.879.874,1,1,0,0,0,.677-.253l.233.248A1.442,1.442,0,0,1,210.217,128.041Zm-.854-1.459h1.561a.815.815,0,0,0-.774-.773A.823.823,0,0,0,209.363,126.582Z"/>
        <path d="M212.136,125.834h-.511v-.3h.511v-.677l.368-.086v.763h.707v.3H212.5v1.51c0,.263.1.369.359.369a.874.874,0,0,0,.348-.066v.329a1.391,1.391,0,0,1-.429.065c-.425,0-.646-.207-.646-.6Z"/>
      </g>
    </g>
    <g>
      <g>
        <path class="b7d1f78a-e2f8-49cb-abbd-6499d3f1d630" d="M120.959,110.386h.6v1.491h1.758v-1.491h.607v3.536h-.607v-1.515h-1.758v1.515h-.6Z"/>
        <path class="b7d1f78a-e2f8-49cb-abbd-6499d3f1d630" d="M125.853,113.972a1.286,1.286,0,0,1-1.288-1.313,1.247,1.247,0,0,1,1.233-1.308,1.214,1.214,0,0,1,1.2,1.3v.142h-1.869a.773.773,0,0,0,.758.691.816.816,0,0,0,.6-.237l.374.349A1.458,1.458,0,0,1,125.853,113.972Zm-.716-1.525h1.317a.691.691,0,0,0-.661-.631A.679.679,0,0,0,125.137,112.447Z"/>
        <path class="b7d1f78a-e2f8-49cb-abbd-6499d3f1d630" d="M127.43,113.194c0-.454.368-.742.964-.742a1.563,1.563,0,0,1,.682.157v-.278c0-.333-.192-.505-.581-.505a1.741,1.741,0,0,0-.737.2l-.2-.414a2.42,2.42,0,0,1,1.05-.258c.657,0,1.035.334,1.035.92v1.651h-.565v-.258a1.054,1.054,0,0,1-.753.3A.8.8,0,0,1,127.43,113.194Zm1.049.37a.906.906,0,0,0,.6-.207v-.415a1.309,1.309,0,0,0-.586-.121c-.323,0-.525.142-.525.364S128.167,113.564,128.479,113.564Z"/>
        <path class="b7d1f78a-e2f8-49cb-abbd-6499d3f1d630" d="M132.142,113.584a.974.974,0,0,1-.778.363,1.295,1.295,0,0,1,.035-2.576.968.968,0,0,1,.738.334v-1.394l.571-.1v3.707h-.566Zm-.606-.117a.757.757,0,0,0,.6-.277v-1.066a.786.786,0,0,0-.6-.273.81.81,0,0,0,0,1.616Z"/>
        <path class="b7d1f78a-e2f8-49cb-abbd-6499d3f1d630" d="M133.985,113.922h-.57v-3.611l.57-.1Z"/>
        <path class="b7d1f78a-e2f8-49cb-abbd-6499d3f1d630" d="M134.618,110.528a.356.356,0,0,1,.712,0,.356.356,0,0,1-.712,0Zm.641,3.394h-.571v-2.53h.571Z"/>
        <path class="b7d1f78a-e2f8-49cb-abbd-6499d3f1d630" d="M135.962,111.392h.57v.414a.92.92,0,0,1,.8-.455.852.852,0,0,1,.874.9v1.667h-.571v-1.5a.545.545,0,0,0-.556-.606.649.649,0,0,0-.551.3v1.808h-.57Z"/>
        <path class="b7d1f78a-e2f8-49cb-abbd-6499d3f1d630" d="M140.073,113.972a1.285,1.285,0,0,1-1.288-1.313,1.246,1.246,0,0,1,1.232-1.308,1.214,1.214,0,0,1,1.2,1.3v.142h-1.869a.773.773,0,0,0,.757.691.818.818,0,0,0,.6-.237l.374.349A1.46,1.46,0,0,1,140.073,113.972Zm-.718-1.525h1.319a.693.693,0,0,0-.661-.631A.682.682,0,0,0,139.355,112.447Z"/>
      </g>
      <g>
        <path d="M110.416,118.4h.39v3.192H112.8v.344h-2.384Z"/>
        <path d="M114.382,119.429a1.28,1.28,0,1,1-1.2,1.272A1.21,1.21,0,0,1,114.382,119.429Zm.838,1.277a.843.843,0,1,0-1.672,0,.843.843,0,1,0,1.672,0Z"/>
        <path d="M116.23,119.469h.369v.5a.737.737,0,0,1,.687-.546.7.7,0,0,1,.232.036v.333a.926.926,0,0,0-.257-.045.7.7,0,0,0-.662.5v1.687h-.369Z"/>
        <path d="M118.964,121.979a1.23,1.23,0,0,1-1.223-1.278,1.2,1.2,0,0,1,1.162-1.272,1.163,1.163,0,0,1,1.131,1.242v.111H118.1a.9.9,0,0,0,.879.874,1,1,0,0,0,.677-.253l.233.248A1.44,1.44,0,0,1,118.964,121.979Zm-.854-1.459h1.561a.815.815,0,0,0-.774-.773A.823.823,0,0,0,118.11,120.52Z"/>
        <path d="M120.666,119.469h.368v.384a.845.845,0,0,1,.732-.424.808.808,0,0,1,.758.479.912.912,0,0,1,.824-.479.838.838,0,0,1,.838.914v1.591h-.369v-1.5c0-.429-.232-.7-.6-.7a.685.685,0,0,0-.616.39,1.1,1.1,0,0,1,.019.217v1.591h-.368v-1.5a.613.613,0,0,0-.611-.7.678.678,0,0,0-.6.364v1.834h-.368Z"/>
        <path d="M126.03,118.6a.265.265,0,0,1,.53,0,.265.265,0,1,1-.53,0Zm.449,3.339h-.368v-2.465h.368Z"/>
        <path d="M127.237,119.469h.363v.353a.975.975,0,0,1,.8-.383,1.271,1.271,0,0,1-.019,2.53,1,1,0,0,1-.774-.343v1.363h-.368Zm.368.631v1.207a.866.866,0,0,0,.7.344.948.948,0,0,0,0-1.889A.845.845,0,0,0,127.605,120.1Z"/>
        <path d="M130.142,121.373a1.286,1.286,0,0,0,.793.308c.359,0,.622-.187.622-.444,0-.2-.132-.308-.445-.369l-.4-.071c-.481-.085-.7-.288-.7-.646,0-.424.369-.722.888-.722a1.6,1.6,0,0,1,.94.307l-.182.258a1.312,1.312,0,0,0-.772-.262c-.324,0-.536.151-.536.394,0,.2.106.3.424.353l.414.076c.495.091.717.3.717.661a.863.863,0,0,1-.959.763,1.4,1.4,0,0,1-1-.364Z"/>
        <path d="M132.824,120.954a.637.637,0,0,0,.656.712.731.731,0,0,0,.647-.374v-1.823h.369v2.465h-.369v-.4a.881.881,0,0,1-.782.439.862.862,0,0,1-.9-.914v-1.591h.374Z"/>
        <path d="M135.254,119.469h.368v.384a.844.844,0,0,1,.732-.424.809.809,0,0,1,.758.479.912.912,0,0,1,.823-.479.838.838,0,0,1,.839.914v1.591h-.369v-1.5c0-.429-.232-.7-.6-.7a.687.687,0,0,0-.617.39,1.025,1.025,0,0,1,.02.217v1.591h-.368v-1.5a.613.613,0,0,0-.611-.7.677.677,0,0,0-.6.364v1.834h-.368Z"/>
        <path d="M142.513,121.606a.975.975,0,0,1-.789.363,1.271,1.271,0,0,1,.02-2.53,1.007,1.007,0,0,1,.769.343v-1.46l.368-.075v3.687h-.368Zm-.7.04a.851.851,0,0,0,.7-.328V120.1a.912.912,0,1,0-.7,1.551Z"/>
        <path d="M144.724,119.429a1.28,1.28,0,1,1-1.2,1.272A1.21,1.21,0,0,1,144.724,119.429Zm.838,1.277a.843.843,0,1,0-1.671,0,.842.842,0,1,0,1.671,0Z"/>
        <path d="M146.941,121.934h-.368v-3.612l.368-.075Z"/>
        <path d="M148.785,119.429a1.28,1.28,0,1,1-1.2,1.272A1.209,1.209,0,0,1,148.785,119.429Zm.838,1.277a.843.843,0,1,0-1.672,0,.843.843,0,1,0,1.672,0Z"/>
        <path d="M150.634,119.469H151v.5a.738.738,0,0,1,.687-.546.711.711,0,0,1,.233.036v.333a.933.933,0,0,0-.258-.045.7.7,0,0,0-.662.5v1.687h-.368Z"/>
        <path d="M122.306,127.435a1.283,1.283,0,0,0,.792.308c.359,0,.622-.187.622-.444,0-.2-.132-.308-.445-.369l-.4-.07c-.48-.086-.7-.289-.7-.647,0-.424.369-.723.888-.723a1.6,1.6,0,0,1,.94.308l-.182.258a1.312,1.312,0,0,0-.772-.262c-.324,0-.535.151-.535.394,0,.2.1.3.423.353l.414.076c.5.091.718.3.718.661a.864.864,0,0,1-.96.763,1.4,1.4,0,0,1-1-.364Z"/>
        <path d="M124.548,124.657a.265.265,0,0,1,.53,0,.265.265,0,1,1-.53,0ZM125,128h-.368v-2.465H125Z"/>
        <path d="M126.048,125.834h-.511v-.3h.511v-.677l.368-.086v.763h.707v.3h-.707v1.51c0,.263.1.369.359.369a.874.874,0,0,0,.348-.066v.329a1.391,1.391,0,0,1-.429.065c-.425,0-.646-.207-.646-.6Z"/>
        <path d="M128.709,127.289c0-.44.369-.733.925-.733a1.43,1.43,0,0,1,.752.192v-.338a.555.555,0,0,0-.636-.612,1.623,1.623,0,0,0-.748.213l-.136-.283a2.119,2.119,0,0,1,.929-.238c.611,0,.955.308.955.87V128h-.364v-.288a1.059,1.059,0,0,1-.783.333A.8.8,0,0,1,128.709,127.289Zm.97.469a.974.974,0,0,0,.707-.282V127a1.3,1.3,0,0,0-.7-.177c-.379,0-.627.182-.627.454C129.062,127.567,129.31,127.758,129.679,127.758Z"/>
        <path d="M131.5,125.531h.368v.384a.847.847,0,0,1,.733-.425.808.808,0,0,1,.757.48.913.913,0,0,1,.824-.48.839.839,0,0,1,.838.915V128h-.369v-1.5c0-.429-.232-.7-.6-.7a.685.685,0,0,0-.616.39,1.1,1.1,0,0,1,.019.217V128h-.368v-1.5a.613.613,0,0,0-.611-.7.678.678,0,0,0-.6.364V128H131.5Z"/>
        <path d="M136.878,128.041a1.23,1.23,0,0,1-1.223-1.278,1.2,1.2,0,0,1,1.162-1.273,1.164,1.164,0,0,1,1.131,1.243v.111h-1.934a.9.9,0,0,0,.878.874,1,1,0,0,0,.677-.253l.233.248A1.44,1.44,0,0,1,136.878,128.041Zm-.854-1.459h1.561a.815.815,0,0,0-.774-.773A.823.823,0,0,0,136.024,126.582Z"/>
        <path d="M138.8,125.834h-.51v-.3h.51v-.677l.368-.086v.763h.707v.3h-.707v1.51c0,.263.1.369.359.369a.874.874,0,0,0,.348-.066v.329a1.391,1.391,0,0,1-.429.065c-.425,0-.646-.207-.646-.6Z"/>
      </g>
    </g>
    <g>
      <g>
        <path class="b7d1f78a-e2f8-49cb-abbd-6499d3f1d630" d="M47.619,110.386h.6v1.491h1.758v-1.491h.607v3.536h-.607v-1.515H48.224v1.515h-.6Z"/>
        <path class="b7d1f78a-e2f8-49cb-abbd-6499d3f1d630" d="M52.514,113.972a1.286,1.286,0,0,1-1.289-1.313,1.247,1.247,0,0,1,1.233-1.308,1.214,1.214,0,0,1,1.2,1.3v.142H51.786a.773.773,0,0,0,.758.691.816.816,0,0,0,.6-.237l.374.349A1.458,1.458,0,0,1,52.514,113.972Zm-.717-1.525h1.317a.691.691,0,0,0-.661-.631A.679.679,0,0,0,51.8,112.447Z"/>
        <path class="b7d1f78a-e2f8-49cb-abbd-6499d3f1d630" d="M54.09,113.194c0-.454.368-.742.965-.742a1.562,1.562,0,0,1,.681.157v-.278c0-.333-.192-.505-.581-.505a1.741,1.741,0,0,0-.737.2l-.2-.414a2.427,2.427,0,0,1,1.05-.258c.657,0,1.036.334,1.036.92v1.651h-.566v-.258a1.054,1.054,0,0,1-.753.3A.8.8,0,0,1,54.09,113.194Zm1.05.37a.906.906,0,0,0,.6-.207v-.415a1.306,1.306,0,0,0-.586-.121c-.323,0-.525.142-.525.364S54.827,113.564,55.14,113.564Z"/>
        <path class="b7d1f78a-e2f8-49cb-abbd-6499d3f1d630" d="M58.8,113.584a.976.976,0,0,1-.779.363,1.295,1.295,0,0,1,.035-2.576.968.968,0,0,1,.738.334v-1.394l.571-.1v3.707H58.8Zm-.607-.117a.757.757,0,0,0,.6-.277v-1.066a.786.786,0,0,0-.6-.273.81.81,0,0,0,0,1.616Z"/>
        <path class="b7d1f78a-e2f8-49cb-abbd-6499d3f1d630" d="M60.645,113.922h-.57v-3.611l.57-.1Z"/>
        <path class="b7d1f78a-e2f8-49cb-abbd-6499d3f1d630" d="M61.278,110.528a.356.356,0,0,1,.712,0,.356.356,0,0,1-.712,0Zm.641,3.394h-.57v-2.53h.57Z"/>
        <path class="b7d1f78a-e2f8-49cb-abbd-6499d3f1d630" d="M62.622,111.392h.57v.414a.921.921,0,0,1,.8-.455.852.852,0,0,1,.874.9v1.667H64.3v-1.5a.545.545,0,0,0-.556-.606.651.651,0,0,0-.551.3v1.808h-.57Z"/>
        <path class="b7d1f78a-e2f8-49cb-abbd-6499d3f1d630" d="M66.733,113.972a1.286,1.286,0,0,1-1.288-1.313,1.246,1.246,0,0,1,1.233-1.308,1.214,1.214,0,0,1,1.2,1.3v.142H66.006a.773.773,0,0,0,.758.691.816.816,0,0,0,.6-.237l.374.349A1.458,1.458,0,0,1,66.733,113.972Zm-.717-1.525h1.318a.692.692,0,0,0-.661-.631A.68.68,0,0,0,66.016,112.447Z"/>
      </g>
      <g>
        <path d="M37.076,118.4h.39v3.192H39.46v.344H37.076Z"/>
        <path d="M41.042,119.429a1.28,1.28,0,1,1-1.2,1.272A1.21,1.21,0,0,1,41.042,119.429Zm.838,1.277a.843.843,0,1,0-1.672,0,.843.843,0,1,0,1.672,0Z"/>
        <path d="M42.891,119.469h.368v.5a.738.738,0,0,1,.687-.546.715.715,0,0,1,.233.036v.333a.933.933,0,0,0-.258-.045.7.7,0,0,0-.662.5v1.687h-.368Z"/>
        <path d="M45.624,121.979A1.231,1.231,0,0,1,44.4,120.7a1.2,1.2,0,0,1,1.162-1.272,1.163,1.163,0,0,1,1.131,1.242v.111H44.76a.9.9,0,0,0,.879.874,1,1,0,0,0,.676-.253l.233.248A1.438,1.438,0,0,1,45.624,121.979Zm-.854-1.459h1.561a.815.815,0,0,0-.774-.773A.823.823,0,0,0,44.77,120.52Z"/>
        <path d="M47.326,119.469h.368v.384a.846.846,0,0,1,.733-.424.808.808,0,0,1,.757.479.912.912,0,0,1,.824-.479.839.839,0,0,1,.839.914v1.591h-.37v-1.5c0-.429-.232-.7-.6-.7a.685.685,0,0,0-.616.39,1.1,1.1,0,0,1,.019.217v1.591h-.368v-1.5a.613.613,0,0,0-.611-.7.678.678,0,0,0-.6.364v1.834h-.368Z"/>
        <path d="M52.69,118.6a.266.266,0,0,1,.531,0,.266.266,0,1,1-.531,0Zm.45,3.339h-.369v-2.465h.369Z"/>
        <path d="M53.9,119.469h.364v.353a.972.972,0,0,1,.8-.383,1.271,1.271,0,0,1-.019,2.53,1,1,0,0,1-.773-.343v1.363H53.9Zm.369.631v1.207a.865.865,0,0,0,.7.344.948.948,0,0,0,0-1.889A.842.842,0,0,0,54.266,120.1Z"/>
        <path d="M56.8,121.373a1.284,1.284,0,0,0,.793.308c.358,0,.621-.187.621-.444,0-.2-.132-.308-.445-.369l-.4-.071c-.48-.085-.7-.288-.7-.646,0-.424.369-.722.888-.722a1.6,1.6,0,0,1,.94.307l-.182.258a1.312,1.312,0,0,0-.772-.262c-.323,0-.535.151-.535.394,0,.2.105.3.423.353l.415.076c.5.091.716.3.716.661a.863.863,0,0,1-.959.763,1.4,1.4,0,0,1-1-.364Z"/>
        <path d="M59.484,120.954a.637.637,0,0,0,.657.712.729.729,0,0,0,.646-.374v-1.823h.369v2.465h-.369v-.4a.881.881,0,0,1-.782.439.862.862,0,0,1-.9-.914v-1.591h.374Z"/>
        <path d="M61.914,119.469h.368v.384a.846.846,0,0,1,.733-.424.808.808,0,0,1,.757.479.912.912,0,0,1,.824-.479.838.838,0,0,1,.838.914v1.591h-.369v-1.5c0-.429-.232-.7-.605-.7a.685.685,0,0,0-.616.39,1.1,1.1,0,0,1,.019.217v1.591H63.5v-1.5a.613.613,0,0,0-.611-.7.678.678,0,0,0-.6.364v1.834h-.368Z"/>
        <path d="M69.173,121.606a.974.974,0,0,1-.788.363,1.271,1.271,0,0,1,.019-2.53,1.007,1.007,0,0,1,.769.343v-1.46l.368-.075v3.687h-.368Zm-.7.04a.848.848,0,0,0,.7-.328V120.1a.912.912,0,1,0-.7,1.551Z"/>
        <path d="M71.385,119.429a1.28,1.28,0,1,1-1.2,1.272A1.21,1.21,0,0,1,71.385,119.429Zm.838,1.277a.843.843,0,1,0-1.672,0,.843.843,0,1,0,1.672,0Z"/>
        <path d="M73.6,121.934h-.368v-3.612l.368-.075Z"/>
        <path d="M75.445,119.429a1.28,1.28,0,1,1-1.2,1.272A1.209,1.209,0,0,1,75.445,119.429Zm.838,1.277a.843.843,0,1,0-1.672,0,.843.843,0,1,0,1.672,0Z"/>
        <path d="M77.294,119.469h.368v.5a.738.738,0,0,1,.687-.546.711.711,0,0,1,.233.036v.333a.933.933,0,0,0-.258-.045.7.7,0,0,0-.662.5v1.687h-.368Z"/>
        <path d="M48.966,127.435a1.283,1.283,0,0,0,.792.308c.359,0,.622-.187.622-.444,0-.2-.132-.308-.445-.369l-.4-.07c-.48-.086-.7-.289-.7-.647,0-.424.369-.723.889-.723a1.6,1.6,0,0,1,.939.308l-.182.258a1.308,1.308,0,0,0-.772-.262c-.323,0-.535.151-.535.394,0,.2.1.3.424.353l.414.076c.495.091.717.3.717.661a.864.864,0,0,1-.96.763,1.4,1.4,0,0,1-1-.364Z"/>
        <path d="M51.208,124.657a.265.265,0,0,1,.53,0,.265.265,0,1,1-.53,0ZM51.657,128h-.368v-2.465h.368Z"/>
        <path d="M52.708,125.834H52.2v-.3h.511v-.677l.368-.086v.763h.707v.3h-.707v1.51c0,.263.1.369.359.369a.874.874,0,0,0,.348-.066v.329a1.391,1.391,0,0,1-.429.065c-.424,0-.646-.207-.646-.6Z"/>
        <path d="M55.369,127.289c0-.44.369-.733.925-.733a1.43,1.43,0,0,1,.752.192v-.338a.555.555,0,0,0-.636-.612,1.623,1.623,0,0,0-.748.213l-.136-.283a2.119,2.119,0,0,1,.929-.238c.611,0,.955.308.955.87V128h-.364v-.288a1.058,1.058,0,0,1-.782.333A.8.8,0,0,1,55.369,127.289Zm.97.469a.972.972,0,0,0,.707-.282V127a1.3,1.3,0,0,0-.7-.177c-.378,0-.626.182-.626.454C55.723,127.567,55.971,127.758,56.339,127.758Z"/>
        <path d="M58.158,125.531h.368v.384a.847.847,0,0,1,.733-.425.808.808,0,0,1,.757.48.913.913,0,0,1,.824-.48.84.84,0,0,1,.839.915V128h-.37v-1.5c0-.429-.232-.7-.6-.7a.685.685,0,0,0-.616.39,1.1,1.1,0,0,1,.019.217V128h-.368v-1.5a.613.613,0,0,0-.611-.7.678.678,0,0,0-.6.364V128h-.368Z"/>
        <path d="M63.538,128.041a1.231,1.231,0,0,1-1.223-1.278,1.2,1.2,0,0,1,1.162-1.273,1.164,1.164,0,0,1,1.131,1.243v.111H62.674a.9.9,0,0,0,.879.874,1,1,0,0,0,.676-.253l.233.248A1.438,1.438,0,0,1,63.538,128.041Zm-.854-1.459h1.561a.814.814,0,0,0-.773-.773A.823.823,0,0,0,62.684,126.582Z"/>
        <path d="M65.457,125.834h-.51v-.3h.51v-.677l.368-.086v.763h.707v.3h-.707v1.51c0,.263.1.369.359.369a.874.874,0,0,0,.348-.066v.329a1.391,1.391,0,0,1-.429.065c-.424,0-.646-.207-.646-.6Z"/>
      </g>
    </g>
    <g>
      <g>
        <path class="f9009796-b256-4fe9-8013-d8b954cad4c3" d="M47.392,78.2a13.822,13.822,0,0,1-13.51-16.868.15.15,0,0,1,.173-.109.148.148,0,0,1,.11.174,13.537,13.537,0,0,0,20.266,14.53.145.145,0,1,1,.151.247A13.74,13.74,0,0,1,47.392,78.2Z"/>
        <path class="f9009796-b256-4fe9-8013-d8b954cad4c3" d="M35.578,57.575a.15.15,0,0,1-.073-.019.147.147,0,0,1-.052-.2,13.83,13.83,0,0,1,23.716-.192.145.145,0,0,1-.048.2.147.147,0,0,1-.2-.047A13.543,13.543,0,0,0,35.7,57.5.143.143,0,0,1,35.578,57.575Z"/>
        <circle class="f9009796-b256-4fe9-8013-d8b954cad4c3" cx="35.556" cy="57.483" r="0.415"/>
        <circle class="f9009796-b256-4fe9-8013-d8b954cad4c3" cx="34.077" cy="61.28" r="0.415"/>
        <path class="f9009796-b256-4fe9-8013-d8b954cad4c3" d="M65.766,96.545A13.781,13.781,0,0,1,55.989,92.5a.144.144,0,1,1,.2-.2,13.539,13.539,0,1,0,0-19.147.144.144,0,1,1-.2-.2,13.826,13.826,0,1,1,9.777,23.6Z"/>
        <path class="e5488beb-e0e1-463c-8465-42e531cd4ab0" d="M65.018,52.261c7.1,1.494,6.885,7.146,10.245,9.153,2.695,1.609,5.931,5.169,5.931,8.189,0,6.5-6.024,9.305-7.078,12.93-.881,3.032-1.1,5.881-3.469,8.338A9.422,9.422,0,0,1,62.8,93.76c-4.206-.575-6.564-3.551-10.949-3.925a41.053,41.053,0,0,1-6.223-.695,28.862,28.862,0,0,1-6.15-2.226c-3.961-2.145-7.143-6.948-6.382-11.855.746-4.814,4.717-8.379,8.69-10.227a27.078,27.078,0,0,0,4.475-2.26,34.462,34.462,0,0,0,3.976-3.956C54.512,54.35,59.489,51.1,65.018,52.261Z"/>
        <path class="b140ac0e-446d-48c3-82f0-167be84d6fe7" d="M47.392,78.208a13.84,13.84,0,0,1-11.825-6.616c-.236-.387-.453-.785-.647-1.186a.148.148,0,0,1,.069-.2.152.152,0,0,1,.2.069c.19.391.4.782.634,1.16a13.543,13.543,0,0,0,18.6,4.488.151.151,0,0,1,.157.257A13.755,13.755,0,0,1,47.392,78.208Z"/>
        <path class="b140ac0e-446d-48c3-82f0-167be84d6fe7" d="M78.09,76.92a.148.148,0,0,1-.135-.085A13.546,13.546,0,0,0,56.2,73.156a.15.15,0,0,1-.214,0,.152.152,0,0,1,0-.213A13.844,13.844,0,0,1,78.225,76.7a.151.151,0,0,1-.135.216Z"/>
        <g>
          <g>
            <rect class="b140ac0e-446d-48c3-82f0-167be84d6fe7" x="65.61" y="81.619" width="14.361" height="13.147"/>
            <circle cx="76.57" cy="82.997" r="0.457"/>
            <circle cx="78.343" cy="82.997" r="0.457"/>
          </g>
          <path d="M78.117,85.389H67.533a.111.111,0,0,1,0-.222H78.117a.111.111,0,0,1,0,.222Z"/>
        </g>
        <g>
          <path class="b140ac0e-446d-48c3-82f0-167be84d6fe7" d="M55.691,60.752a3.4,3.4,0,0,1,1.206.219,4.908,4.908,0,0,1,4.08-2.577,7.4,7.4,0,0,1,13.568-.976,5.6,5.6,0,1,1,1.62,10.951H55.99c-2.609,0-3.729-2.293-3.729-4.187A3.43,3.43,0,0,1,55.691,60.752Z"/>
          <path class="b96da101-b81d-4632-ae30-a682b79928eb" d="M76.165,68.462H55.989c-2.508,0-3.821-2.153-3.821-4.28a3.523,3.523,0,0,1,4.687-3.325A5.035,5.035,0,0,1,60.911,58.3a7.486,7.486,0,0,1,13.68-1,5.637,5.637,0,0,1,1.574-.223,5.688,5.688,0,0,1,0,11.376ZM55.691,60.845a3.341,3.341,0,0,0-3.338,3.337c0,1.647.969,4.094,3.636,4.094H76.165a5.5,5.5,0,1,0,0-11,5.453,5.453,0,0,0-1.593.236l-.074.022-.036-.068a7.3,7.3,0,0,0-13.4.962l-.021.059-.061,0a4.844,4.844,0,0,0-4,2.528l-.039.071-.075-.028A3.3,3.3,0,0,0,55.691,60.845Z"/>
        </g>
        <g>
          <rect class="bbc8c0f0-d53b-4ad9-b8cc-befbf92483be" x="42.977" y="60.129" width="25.397" height="24.215"/>
          <g>
            <g>
              <g>
                <rect class="b140ac0e-446d-48c3-82f0-167be84d6fe7" x="38.334" y="53.196" width="13.657" height="12.502"/>
                <circle cx="48.756" cy="54.506" r="0.435"/>
                <circle cx="50.442" cy="54.506" r="0.435"/>
              </g>
              <path d="M50.228,56.787H40.164a.111.111,0,0,1,0-.222H50.228a.111.111,0,1,1,0,.222Z"/>
              <g>
                <path d="M49.355,64.319a.11.11,0,0,1-.111-.111V61.789a.111.111,0,0,1,.222,0v2.419A.11.11,0,0,1,49.355,64.319Z"/>
                <path d="M44.515,64.319a.11.11,0,0,1-.111-.111V61.789a.111.111,0,0,1,.222,0v2.419A.11.11,0,0,1,44.515,64.319Z"/>
                <path d="M46.936,64.319A1.321,1.321,0,1,1,48.255,63,1.323,1.323,0,0,1,46.936,64.319Zm0-2.42a1.1,1.1,0,1,0,1.1,1.1A1.1,1.1,0,0,0,46.936,61.9Z"/>
                <path d="M42.1,64.319A1.321,1.321,0,1,1,43.416,63,1.322,1.322,0,0,1,42.1,64.319Zm0-2.42A1.1,1.1,0,1,0,43.2,63,1.1,1.1,0,0,0,42.1,61.9Z"/>
                <path d="M49.355,60.689a.11.11,0,0,1-.111-.111V58.159a.111.111,0,0,1,.222,0v2.419A.11.11,0,0,1,49.355,60.689Z"/>
                <path d="M47.742,60.689a.11.11,0,0,1-.111-.111V58.159a.111.111,0,0,1,.222,0v2.419A.11.11,0,0,1,47.742,60.689Z"/>
                <path d="M42.9,60.689a.11.11,0,0,1-.111-.111V58.159a.111.111,0,1,1,.222,0v2.419A.11.11,0,0,1,42.9,60.689Z"/>
                <path d="M41.289,60.689a.11.11,0,0,1-.111-.111V58.159a.111.111,0,0,1,.222,0v2.419A.11.11,0,0,1,41.289,60.689Z"/>
                <path d="M45.321,60.689a1.321,1.321,0,1,1,1.321-1.32A1.32,1.32,0,0,1,45.321,60.689Zm0-2.419a1.1,1.1,0,1,0,1.1,1.1A1.1,1.1,0,0,0,45.321,58.27Z"/>
              </g>
            </g>
            <polygon class="ab76057d-0207-4702-b9b1-37087906d6cc" points="42.979 65.804 38.228 65.804 38.228 53.195 38.441 53.195 38.441 65.591 42.979 65.591 42.979 65.804"/>
            <rect x="42.977" y="61.498" width="5.438" height="4.2"/>
            <rect class="b96da101-b81d-4632-ae30-a682b79928eb" x="42.978" y="65.593" width="2.418" height="0.193"/>
          </g>
          <rect x="65.598" y="80.73" width="3.991" height="3.615"/>
          <rect class="b96da101-b81d-4632-ae30-a682b79928eb" x="65.513" y="80.73" width="0.193" height="3.616"/>
          <rect class="b140ac0e-446d-48c3-82f0-167be84d6fe7" x="45.426" y="58.988" width="25.397" height="23.251"/>
          <rect class="f9009796-b256-4fe9-8013-d8b954cad4c3" x="45.426" y="58.988" width="25.397" height="4.934"/>
          <circle class="b140ac0e-446d-48c3-82f0-167be84d6fe7" cx="64.808" cy="61.424" r="0.809"/>
          <circle class="b140ac0e-446d-48c3-82f0-167be84d6fe7" cx="67.944" cy="61.424" r="0.809"/>
          <rect class="e5488beb-e0e1-463c-8465-42e531cd4ab0" x="59.311" y="71.359" width="10.302" height="9.303"/>
          <rect class="e5488beb-e0e1-463c-8465-42e531cd4ab0" x="47.13" y="65.489" width="10.994" height="15.072"/>
          <rect class="e5488beb-e0e1-463c-8465-42e531cd4ab0" x="59.311" y="65.489" width="10.302" height="4.579"/>
          <polygon class="f9009796-b256-4fe9-8013-d8b954cad4c3" points="70.824 82.335 45.329 82.335 45.329 58.891 70.824 58.891 70.824 59.084 45.522 59.084 45.522 82.142 70.824 82.142 70.824 82.335"/>
        </g>
        <g>
          <path class="b140ac0e-446d-48c3-82f0-167be84d6fe7" d="M59.494,82.034a3.5,3.5,0,0,0-1.238.224,5.032,5.032,0,0,0-4.185-2.643,7.585,7.585,0,0,0-13.917-1,5.74,5.74,0,1,0-1.662,11.234h20.7c2.676,0,3.825-2.353,3.825-4.3A3.518,3.518,0,0,0,59.494,82.034Z"/>
          <path class="b96da101-b81d-4632-ae30-a682b79928eb" d="M59.187,89.941H38.493a5.832,5.832,0,1,1,1.614-11.436,7.679,7.679,0,0,1,14.032,1.021A5.157,5.157,0,0,1,58.3,82.145a3.611,3.611,0,0,1,4.807,3.407C63.105,87.732,61.758,89.941,59.187,89.941ZM38.493,78.462a5.647,5.647,0,1,0,0,11.293H59.187c2.738,0,3.733-2.513,3.733-4.2a3.431,3.431,0,0,0-4.632-3.208l-.075.028-.038-.07a4.968,4.968,0,0,0-4.108-2.6l-.062,0-.021-.059a7.494,7.494,0,0,0-13.748-.988l-.036.069-.074-.022A5.6,5.6,0,0,0,38.493,78.462Z"/>
        </g>
        <circle class="b140ac0e-446d-48c3-82f0-167be84d6fe7" cx="59.077" cy="57.248" r="0.415"/>
        <circle class="f9009796-b256-4fe9-8013-d8b954cad4c3" cx="55.994" cy="92.345" r="0.415"/>
        <polygon class="ab76057d-0207-4702-b9b1-37087906d6cc" points="79.971 94.873 65.504 94.873 65.504 84.345 65.717 84.345 65.717 94.66 79.971 94.66 79.971 94.873"/>
      </g>
      <path class="b140ac0e-446d-48c3-82f0-167be84d6fe7" d="M59.046,57.392a.149.149,0,0,1-.129-.072,13.506,13.506,0,0,0-2.834-3.3.151.151,0,0,1,.193-.232,13.789,13.789,0,0,1,2.9,3.376.15.15,0,0,1-.05.207A.146.146,0,0,1,59.046,57.392Z"/>
      <g>
        <path d="M68.708,89.436a.11.11,0,0,1-.111-.11v-2.42a.111.111,0,0,1,.221,0v2.42A.109.109,0,0,1,68.708,89.436Z"/>
        <path d="M73.547,89.436a.11.11,0,0,1-.111-.11v-2.42a.111.111,0,0,1,.221,0v2.42A.11.11,0,0,1,73.547,89.436Z"/>
        <path d="M71.127,89.436a1.32,1.32,0,1,1,1.32-1.321A1.323,1.323,0,0,1,71.127,89.436Zm0-2.419a1.1,1.1,0,1,0,1.1,1.1A1.1,1.1,0,0,0,71.127,87.017Z"/>
        <path d="M75.966,89.436a1.32,1.32,0,1,1,1.321-1.321A1.323,1.323,0,0,1,75.966,89.436Zm0-2.419a1.1,1.1,0,1,0,1.1,1.1A1.1,1.1,0,0,0,75.966,87.017Z"/>
        <path d="M68.708,93.066a.11.11,0,0,1-.111-.11V90.535a.111.111,0,1,1,.221,0v2.421A.109.109,0,0,1,68.708,93.066Z"/>
        <path d="M70.321,93.066a.11.11,0,0,1-.111-.11V90.535a.111.111,0,1,1,.221,0v2.421A.11.11,0,0,1,70.321,93.066Z"/>
        <path d="M75.16,93.066a.11.11,0,0,1-.111-.11V90.535a.111.111,0,1,1,.221,0v2.421A.11.11,0,0,1,75.16,93.066Z"/>
        <path d="M76.772,93.066a.11.11,0,0,1-.11-.11V90.535a.111.111,0,1,1,.221,0v2.421A.11.11,0,0,1,76.772,93.066Z"/>
        <path d="M72.74,93.066a1.321,1.321,0,1,1,1.32-1.321A1.323,1.323,0,0,1,72.74,93.066Zm0-2.421a1.1,1.1,0,1,0,1.1,1.1A1.1,1.1,0,0,0,72.74,90.645Z"/>
      </g>
    </g>
    <g>
      <path class="e5488beb-e0e1-463c-8465-42e531cd4ab0" d="M111.439,70.213a14.815,14.815,0,0,0,2.144,7.314c2.841,4.507,7.819,7.195,11.739,10.63,3.477,3.047,7.067,5.7,11.806,6.6,4.138.785,11.453.079,14.779-3.66,3.182-3.576,2.98-8.166,2.57-12.593-.422-4.567,2.386-8.985,3.217-13.277.8-4.114.206-9.715-4.813-11.927a16.692,16.692,0,0,0-14.815,1.07c-3.885,2.276-5.546,3.567-11.867,3.77-4.177.135-9.19.571-11.937,4.169A11.7,11.7,0,0,0,111.439,70.213Z"/>
      <g>
        <path class="ab76057d-0207-4702-b9b1-37087906d6cc" d="M133.6,69.718a3.133,3.133,0,0,0-3.086-3.133,5.615,5.615,0,0,0-5.339-5.4,8.22,8.22,0,0,0-15.335,1.1c-.115-.008-.23-.013-.346-.013a5.293,5.293,0,0,0-.025,10.586h21.05v0A3.133,3.133,0,0,0,133.6,69.718Z"/>
        <path class="b140ac0e-446d-48c3-82f0-167be84d6fe7" d="M111.781,61.57a.048.048,0,0,1-.023-.005.06.06,0,0,1-.036-.081c.016-.045,1.775-4.418,6.487-3.761a.063.063,0,0,1-.009.126h-.009a6.032,6.032,0,0,0-6.352,3.681A.06.06,0,0,1,111.781,61.57Z"/>
        <path class="b140ac0e-446d-48c3-82f0-167be84d6fe7" d="M105.653,66.506h-.014a.064.064,0,0,1-.048-.076,4.1,4.1,0,0,1,3.743-3.1h0a.063.063,0,0,1,.063.062.064.064,0,0,1-.061.066,3.969,3.969,0,0,0-3.623,3A.065.065,0,0,1,105.653,66.506Z"/>
      </g>
      <path d="M109.836,69.178a5.882,5.882,0,0,0-3.535,2.595,4.776,4.776,0,0,0,.7.454S106.842,70.071,109.836,69.178Z"/>
      <g>
        <path d="M131.171,66.57l-1.022,9.019h8.641C137.782,71.49,135.332,67.526,131.171,66.57Z"/>
        <path class="ab76057d-0207-4702-b9b1-37087906d6cc" d="M152.881,60.445H131.865l-.694,6.125c4.161.956,6.611,4.92,7.619,9.019h12.375Z"/>
        <g>
          <g>
            <polygon class="b140ac0e-446d-48c3-82f0-167be84d6fe7" points="132.613 59.773 153.629 59.773 151.913 74.917 130.897 74.917 132.613 59.773"/>
            <path class="b7d1f78a-e2f8-49cb-abbd-6499d3f1d630" d="M151.97,74.98H130.827l.007-.071,1.723-15.2H153.7l-.008.071Zm-21-.127h20.888l1.7-15.017h-20.89Z"/>
          </g>
          <polygon points="132.613 59.773 153.629 59.773 153.3 62.684 132.283 62.684 132.613 59.773"/>
          <path class="b140ac0e-446d-48c3-82f0-167be84d6fe7" d="M141.477,61.305h-7.569a.084.084,0,0,1,0-.168h7.569a.084.084,0,0,1,0,.168Z"/>
          <g>
            <ellipse class="b140ac0e-446d-48c3-82f0-167be84d6fe7" cx="149.924" cy="61.221" rx="0.45" ry="0.402" transform="translate(-1.091 119.698) rotate(-43.38)"/>
            <ellipse class="b140ac0e-446d-48c3-82f0-167be84d6fe7" cx="151.607" cy="61.221" rx="0.45" ry="0.402" transform="translate(-0.632 120.854) rotate(-43.38)"/>
          </g>
          <g>
            <polygon class="b96da101-b81d-4632-ae30-a682b79928eb" points="133.542 64.453 143.322 64.453 142.3 73.472 132.52 73.472 133.542 64.453"/>
            <polygon class="b96da101-b81d-4632-ae30-a682b79928eb" points="145.069 64.453 151.229 64.453 150.817 68.095 144.657 68.095 145.069 64.453"/>
            <polygon class="b96da101-b81d-4632-ae30-a682b79928eb" points="144.459 69.842 150.619 69.842 150.207 73.472 144.047 73.472 144.459 69.842"/>
            <polygon class="b96da101-b81d-4632-ae30-a682b79928eb" points="133.542 64.453 143.322 64.453 142.3 73.472 132.52 73.472 133.542 64.453"/>
            <polygon class="b96da101-b81d-4632-ae30-a682b79928eb" points="145.069 64.453 151.229 64.453 150.817 68.095 144.657 68.095 145.069 64.453"/>
            <polygon class="b96da101-b81d-4632-ae30-a682b79928eb" points="144.459 69.842 150.619 69.842 150.207 73.472 144.047 73.472 144.459 69.842"/>
            <g>
              <polygon class="b140ac0e-446d-48c3-82f0-167be84d6fe7" points="133.916 64.117 143.696 64.117 142.674 73.136 132.894 73.136 133.916 64.117"/>
              <path class="b7d1f78a-e2f8-49cb-abbd-6499d3f1d630" d="M142.73,73.2h-9.907l.007-.071,1.03-9.075h9.908l-.008.071Zm-9.765-.127h9.652l1.008-8.892h-9.652Z"/>
            </g>
            <g>
              <polygon class="b140ac0e-446d-48c3-82f0-167be84d6fe7" points="145.444 64.117 151.603 64.117 151.075 68.849 144.916 68.849 145.444 64.117"/>
              <path class="b7d1f78a-e2f8-49cb-abbd-6499d3f1d630" d="M151.132,68.913h-6.288l.008-.071.535-4.789h6.288l-.007.071Zm-6.146-.128h6.032l.515-4.6H145.5Z"/>
            </g>
            <g>
              <polygon class="b140ac0e-446d-48c3-82f0-167be84d6fe7" points="144.833 69.506 150.993 69.506 150.581 73.136 144.422 73.136 144.833 69.506"/>
              <path class="b7d1f78a-e2f8-49cb-abbd-6499d3f1d630" d="M150.637,73.2H144.35l.008-.071.419-3.685h6.287l-.008.071Zm-6.145-.127h6.033l.4-3.5h-6.033Z"/>
            </g>
          </g>
        </g>
      </g>
      <g>
        <g>
          <path class="b140ac0e-446d-48c3-82f0-167be84d6fe7" d="M132.626,74.868a12.316,12.316,0,0,0,7.075-3.881c3.3-3.51,6.541-1.4,8.774-1.55S152.3,65,157.888,64.616c3.839-.263,7.577,2.042,7.638,5.98a6.248,6.248,0,0,1-6.273,6.294H143.317l-11.431.033Z"/>
          <path class="ab76057d-0207-4702-b9b1-37087906d6cc" d="M131.706,77.051l.828-2.3.08-.008a12.322,12.322,0,0,0,7-3.842c2.457-2.615,4.911-2.166,6.882-1.8a7.834,7.834,0,0,0,1.976.213,4.846,4.846,0,0,0,2.5-1.539,10.814,10.814,0,0,1,6.911-3.282c.2-.012.4-.02.594-.02a7.9,7.9,0,0,1,5.3,1.93,5.69,5.69,0,0,1,1.88,4.2,6.247,6.247,0,0,1-1.814,4.5,6.4,6.4,0,0,1-4.587,1.919H143.317Zm1.014-2.067-.652,1.813,11.249-.034h15.935a6.139,6.139,0,0,0,4.406-1.844A5.987,5.987,0,0,0,165.4,70.6a5.438,5.438,0,0,0-1.8-4.013,7.7,7.7,0,0,0-5.7-1.842,10.583,10.583,0,0,0-6.76,3.218,4.994,4.994,0,0,1-2.653,1.6,8.987,8.987,0,0,1-2.039-.218c-2.013-.37-4.29-.784-6.652,1.729A12.7,12.7,0,0,1,132.72,74.984Z"/>
        </g>
        <g>
          <path class="b140ac0e-446d-48c3-82f0-167be84d6fe7" d="M140.764,71.412a4.43,4.43,0,0,1,4.29-1.33c2.872.515,2.9.621,4.022.479"/>
          <path class="b7d1f78a-e2f8-49cb-abbd-6499d3f1d630" d="M140.765,71.476a.07.07,0,0,1-.039-.013.064.064,0,0,1-.011-.089,4.524,4.524,0,0,1,4.35-1.355c.634.114,1.13.207,1.529.283a6.01,6.01,0,0,0,2.475.2.071.071,0,0,1,.071.056.065.065,0,0,1-.056.071,6.214,6.214,0,0,1-2.513-.2c-.4-.076-.9-.17-1.529-.283a4.43,4.43,0,0,0-4.227,1.307A.064.064,0,0,1,140.765,71.476Z"/>
        </g>
        <g>
          <path class="b140ac0e-446d-48c3-82f0-167be84d6fe7" d="M157.526,65.935a6.585,6.585,0,0,1,5.992,2.264"/>
          <path class="b7d1f78a-e2f8-49cb-abbd-6499d3f1d630" d="M163.517,68.263a.064.064,0,0,1-.05-.025A6.573,6.573,0,0,0,157.537,66a.061.061,0,0,1-.074-.051.062.062,0,0,1,.051-.073,6.691,6.691,0,0,1,6.053,2.288.064.064,0,0,1-.05.1Z"/>
        </g>
      </g>
      <g>
        <polygon points="149.11 68.971 121.679 68.971 121.208 72.794 148.628 72.794 149.11 68.971"/>
        <polygon class="ab76057d-0207-4702-b9b1-37087906d6cc" points="121.208 72.794 119.35 87.849 146.727 87.849 148.628 72.794 121.208 72.794"/>
        <g>
          <g>
            <polygon class="b140ac0e-446d-48c3-82f0-167be84d6fe7" points="122.666 68.094 150.097 68.094 147.634 87.86 120.203 87.86 122.666 68.094"/>
            <path class="b7d1f78a-e2f8-49cb-abbd-6499d3f1d630" d="M147.691,87.924h-27.56l.009-.071,2.47-19.822h27.559l-.008.071ZM120.276,87.8h27.3l2.446-19.639h-27.3Z"/>
          </g>
          <polygon class="b7d1f78a-e2f8-49cb-abbd-6499d3f1d630" points="122.666 68.094 150.097 68.094 149.624 71.893 122.193 71.893 122.666 68.094"/>
          <path class="b140ac0e-446d-48c3-82f0-167be84d6fe7" d="M134.215,70.094h-9.88a.11.11,0,1,1,0-.219h9.88a.11.11,0,0,1,0,.219Z"/>
          <g>
            <ellipse class="b140ac0e-446d-48c3-82f0-167be84d6fe7" cx="145.239" cy="69.984" rx="0.591" ry="0.522" transform="translate(-8.527 118.442) rotate(-43.219)"/>
            <ellipse class="b140ac0e-446d-48c3-82f0-167be84d6fe7" cx="147.436" cy="69.984" rx="0.591" ry="0.522" transform="translate(-7.931 119.946) rotate(-43.219)"/>
          </g>
          <g>
            <polygon class="b96da101-b81d-4632-ae30-a682b79928eb" points="123.809 74.202 136.574 74.202 135.108 85.974 122.343 85.974 123.809 74.202"/>
            <polygon class="b96da101-b81d-4632-ae30-a682b79928eb" points="138.855 74.202 146.895 74.202 146.303 78.956 138.263 78.956 138.855 74.202"/>
            <polygon class="b96da101-b81d-4632-ae30-a682b79928eb" points="137.979 81.237 146.019 81.237 145.429 85.974 137.389 85.974 137.979 81.237"/>
            <polygon points="123.809 74.202 136.574 74.202 135.108 85.974 122.343 85.974 123.809 74.202"/>
            <polygon points="138.855 74.202 146.895 74.202 146.303 78.956 138.263 78.956 138.855 74.202"/>
            <polygon points="137.979 81.237 146.019 81.237 145.429 85.974 137.389 85.974 137.979 81.237"/>
            <g>
              <polygon class="b140ac0e-446d-48c3-82f0-167be84d6fe7" points="124.302 73.764 137.068 73.764 135.601 85.536 122.836 85.536 124.302 73.764"/>
              <path class="b7d1f78a-e2f8-49cb-abbd-6499d3f1d630" d="M135.657,85.6H122.763l.009-.072L124.246,73.7H137.14l-.009.072Zm-12.749-.128h12.636L137,73.828H124.359Z"/>
            </g>
            <g>
              <polygon class="b140ac0e-446d-48c3-82f0-167be84d6fe7" points="139.349 73.764 147.389 73.764 146.796 78.517 138.756 78.517 139.349 73.764"/>
              <path class="b7d1f78a-e2f8-49cb-abbd-6499d3f1d630" d="M146.853,78.58h-8.169l.009-.071.6-4.809h8.168l-.008.072Zm-8.024-.127h7.911l.577-4.625h-7.912Z"/>
            </g>
            <g>
              <polygon class="b140ac0e-446d-48c3-82f0-167be84d6fe7" points="138.472 80.798 146.512 80.798 145.922 85.536 137.882 85.536 138.472 80.798"/>
              <path class="b7d1f78a-e2f8-49cb-abbd-6499d3f1d630" d="M145.978,85.6H137.81l.009-.072.6-4.792h8.168l-.008.071Zm-8.024-.128h7.912l.574-4.609h-7.912Z"/>
            </g>
          </g>
        </g>
      </g>
      <g>
        <g>
          <path class="b140ac0e-446d-48c3-82f0-167be84d6fe7" d="M114.366,70.253a4.458,4.458,0,0,0-5.115-.852c-4.859,2.142-.115,9.182-3.66,7.861-3.219-1.2-7.116,1.774-7.116,6.077,0,.052,0,.1,0,.156a4.567,4.567,0,0,0,4.583,4.418l42.42.015s-5.26.737-10.141-4.312-8.936-1.809-12.16-2.567c-3.333-.783-5.4-7.828-8.813-10.8"/>
          <path class="ab76057d-0207-4702-b9b1-37087906d6cc" d="M144.734,88.093c-.24,0-.535-.01-.872-.039l-40.8-.014A4.716,4.716,0,0,1,98.349,83.5c0-.054,0-.107,0-.161a6.655,6.655,0,0,1,2.788-5.495,4.854,4.854,0,0,1,4.5-.7c.5.184.829.2,1.018.063.338-.256.269-1.086.189-2.046-.163-1.969-.388-4.666,2.357-5.876a4.584,4.584,0,0,1,5.25.872h0a22.437,22.437,0,0,1,3.886,5.3c1.556,2.591,3.024,5.038,4.871,5.472a9.072,9.072,0,0,0,3.254-.094c2.622-.375,5.586-.806,8.969,2.7a13.9,13.9,0,0,0,6.826,4.01,11.494,11.494,0,0,0,1.638.262h1.585l.018.254A6.191,6.191,0,0,1,144.734,88.093ZM104.093,77.121a4.941,4.941,0,0,0-2.812.931A6.394,6.394,0,0,0,98.6,83.338c0,.051,0,.1,0,.155a4.458,4.458,0,0,0,4.456,4.292l39.2.014-.045-.01a14.161,14.161,0,0,1-6.963-4.084c-3.295-3.408-6.193-2.993-8.75-2.621a9.167,9.167,0,0,1-3.348.089c-1.954-.458-3.448-2.951-5.031-5.588a22.272,22.272,0,0,0-3.836-5.236h0a4.355,4.355,0,0,0-4.981-.833c-2.579,1.138-2.363,3.73-2.206,5.623.089,1.078.16,1.93-.289,2.269-.266.2-.667.2-1.261-.028A4.172,4.172,0,0,0,104.093,77.121Z"/>
        </g>
        <g>
          <path class="b140ac0e-446d-48c3-82f0-167be84d6fe7" d="M121.622,81.482a7.428,7.428,0,0,0,4.6.619c2.383-.547,2.818-.641,4.346-.236"/>
          <path class="b7d1f78a-e2f8-49cb-abbd-6499d3f1d630" d="M124.907,82.32a7.955,7.955,0,0,1-3.32-.772.073.073,0,0,1-.031-.1.072.072,0,0,1,.1-.031,7.411,7.411,0,0,0,4.549.611c2.342-.538,2.828-.649,4.384-.234a.073.073,0,0,1,.053.091.068.068,0,0,1-.091.053c-1.525-.4-1.952-.3-4.311.237A5.916,5.916,0,0,1,124.907,82.32Z"/>
        </g>
        <g>
          <path class="b140ac0e-446d-48c3-82f0-167be84d6fe7" d="M115.152,72.749s-2.146-3.063-4.291-2.715a3.162,3.162,0,0,0-2.525,2.483"/>
          <path class="b7d1f78a-e2f8-49cb-abbd-6499d3f1d630" d="M115.152,72.823a.075.075,0,0,1-.061-.031c-.021-.028-1.924-2.71-3.888-2.71a1.936,1.936,0,0,0-.331.026,3.1,3.1,0,0,0-2.461,2.422.075.075,0,0,1-.075.061h-.013a.077.077,0,0,1-.061-.088,3.263,3.263,0,0,1,2.586-2.545,2.332,2.332,0,0,1,.361-.029c2.036,0,3.921,2.656,4,2.776a.074.074,0,0,1-.018.105A.073.073,0,0,1,115.152,72.823Z"/>
        </g>
        <g>
          <path class="b140ac0e-446d-48c3-82f0-167be84d6fe7" d="M104.215,78.164a4.2,4.2,0,0,0-3.92,2.943"/>
          <path class="b7d1f78a-e2f8-49cb-abbd-6499d3f1d630" d="M100.3,81.183a.049.049,0,0,1-.021,0,.076.076,0,0,1-.051-.093,4.3,4.3,0,0,1,3.992-3h0a.075.075,0,0,1,0,.15h0a4.151,4.151,0,0,0-3.847,2.89A.075.075,0,0,1,100.3,81.183Z"/>
        </g>
      </g>
      <path d="M130.87,62.916h-6.8a.095.095,0,1,1,0-.189h6.8a.095.095,0,1,1,0,.189Z"/>
      <path d="M127.027,64.219h-6.8a.095.095,0,0,1,0-.19h6.8a.095.095,0,1,1,0,.19Z"/>
      <path d="M130.457,65.553h-6.8a.095.095,0,1,1,0-.189h6.8a.095.095,0,1,1,0,.189Z"/>
      <path d="M117.944,73.683h-6.8a.1.1,0,1,1,0-.19h6.8a.1.1,0,0,1,0,.19Z"/>
      <path d="M119.976,74.954h-6.923a.1.1,0,0,1,0-.19h6.923a.095.095,0,0,1,0,.19Z"/>
      <path d="M111.973,74.954h-1.905a.095.095,0,0,1,0-.19h1.905a.095.095,0,0,1,0,.19Z"/>
      <path d="M117.881,76.415h-5.717a.1.1,0,1,1,0-.19h5.717a.1.1,0,0,1,0,.19Z"/>
      <path class="ab76057d-0207-4702-b9b1-37087906d6cc" d="M138.938,87.936a3.991,3.991,0,0,0,3.889,3.1c.087,0,.173,0,.259-.01h8.25c.619-1.021,1.208-2.043,1.765-3.088Z"/>
      <path class="ab76057d-0207-4702-b9b1-37087906d6cc" d="M153.1,87.936c-.557,1.045-1.146,2.067-1.765,3.088h3.481v-.009a3.762,3.762,0,0,0,3.448-3.079Z"/>
      <path class="b7d1f78a-e2f8-49cb-abbd-6499d3f1d630" d="M158.326,87.263a3.76,3.76,0,0,0-4.759-3.626,5.842,5.842,0,0,0-11.077-.57,3.987,3.987,0,0,0-3.552,4.869h19.327A3.735,3.735,0,0,0,158.326,87.263Z"/>
      <g>
        <path class="b140ac0e-446d-48c3-82f0-167be84d6fe7" d="M159.063,87a3.761,3.761,0,0,0-4.76-3.627,5.841,5.841,0,0,0-11.076-.569,3.99,3.99,0,0,0,.337,7.966q.131,0,.258-.009h11.732v-.009A3.762,3.762,0,0,0,159.063,87Z"/>
        <path class="b7d1f78a-e2f8-49cb-abbd-6499d3f1d630" d="M143.564,90.834a4.054,4.054,0,0,1-.381-8.09,5.9,5.9,0,0,1,11.164.552,3.824,3.824,0,1,1,1.27,7.514v0l-.064.01H143.822C143.739,90.83,143.653,90.834,143.564,90.834Zm5.107-11.69a5.745,5.745,0,0,0-5.385,3.683l-.014.037-.04,0a3.927,3.927,0,0,0,.332,7.839c.086,0,.17,0,.255-.009h11.688l.043-.01A3.7,3.7,0,0,0,155.3,83.3a3.747,3.747,0,0,0-.981.132l-.061.018-.017-.063A5.791,5.791,0,0,0,148.671,79.144Z"/>
      </g>
      <path class="b96da101-b81d-4632-ae30-a682b79928eb" d="M148.655,79.083s-4.763.444-3.112,4.827a2.7,2.7,0,0,0-2.223-1.08S144.082,79.464,148.655,79.083Z"/>
      <path class="b96da101-b81d-4632-ae30-a682b79928eb" d="M140.652,84.037c-1.08,1.017-.889,5.654,2.858,5.654h12.764a2.964,2.964,0,0,0,2.538-1.4c.02-.032.039-.064.057-.1a3.808,3.808,0,0,1-3.544,2.577c-2.731,0-12.134-.017-12.134-.017s-1.239.172-2.778-1.525A4.049,4.049,0,0,1,140.652,84.037Z"/>
      <path class="b96da101-b81d-4632-ae30-a682b79928eb" d="M154.309,83.4a3.637,3.637,0,0,0-2.1,2.477,4.332,4.332,0,0,1,5.018-2.1A4.476,4.476,0,0,0,154.309,83.4Z"/>
      <path class="b7d1f78a-e2f8-49cb-abbd-6499d3f1d630" d="M143.564,90.834a4.054,4.054,0,0,1-.381-8.09,5.9,5.9,0,0,1,11.164.552,3.824,3.824,0,1,1,1.27,7.514v0l-.064.01H143.822C143.739,90.83,143.653,90.834,143.564,90.834Zm5.107-11.69a5.745,5.745,0,0,0-5.385,3.683l-.014.037-.04,0a3.927,3.927,0,0,0,.332,7.839c.086,0,.17,0,.255-.009h11.688l.043-.01A3.7,3.7,0,0,0,155.3,83.3a3.747,3.747,0,0,0-.981.132l-.061.018-.017-.063A5.791,5.791,0,0,0,148.671,79.144Z"/>
    </g>
    <g>
      <g>
        <polyline class="b140ac0e-446d-48c3-82f0-167be84d6fe7" points="182.282 66.646 193.443 66.646 193.443 61.621 209.482 52.36 225.522 61.621 225.522 80.141 209.482 89.402 193.443 80.141 193.443 79.771"/>
        <path class="a3a46463-bfda-40de-80d1-493088aafe11" d="M209.483,89.586a.192.192,0,0,1-.093-.024L193.35,80.3a.185.185,0,0,1-.092-.16v-.369a.185.185,0,1,1,.369,0v.263l15.856,9.154,15.855-9.154V61.727l-15.855-9.154-15.856,9.154v4.919a.184.184,0,0,1-.184.184H182.281a.184.184,0,0,1,0-.368h10.977V61.62a.184.184,0,0,1,.092-.159l16.04-9.26a.182.182,0,0,1,.186,0l16.039,9.26a.186.186,0,0,1,.091.159V80.141a.186.186,0,0,1-.091.16l-16.039,9.261A.2.2,0,0,1,209.483,89.586Z"/>
      </g>
      <polygon class="a3a46463-bfda-40de-80d1-493088aafe11" points="196.156 80.32 196.173 81.718 207.665 88.353 207.665 82.266 200.353 78.044 196.156 80.32"/>
      <path class="a3a46463-bfda-40de-80d1-493088aafe11" d="M193.443,76.5a.184.184,0,0,1-.185-.184V73.448a.185.185,0,0,1,.369,0v2.865A.184.184,0,0,1,193.443,76.5Z"/>
      <path class="a3a46463-bfda-40de-80d1-493088aafe11" d="M193.443,71.663a.184.184,0,0,1-.185-.184V68.061a.185.185,0,0,1,.369,0v3.418A.184.184,0,0,1,193.443,71.663Z"/>
      <polygon class="a3a46463-bfda-40de-80d1-493088aafe11" points="209.48 71.047 225.52 61.787 225.522 80.141 209.482 89.402 209.482 85.415 209.48 71.047"/>
      <path class="a3a46463-bfda-40de-80d1-493088aafe11" d="M209.48,89.586a.184.184,0,0,1-.184-.184V71.047a.183.183,0,0,1,.091-.159l16.041-9.261a.184.184,0,1,1,.185.319l-15.949,9.208V89.4A.184.184,0,0,1,209.48,89.586Z"/>
      <path class="a3a46463-bfda-40de-80d1-493088aafe11" d="M209.483,71.232a.183.183,0,0,1-.093-.025l-16.04-9.261a.184.184,0,1,1,.185-.319l16.041,9.261a.185.185,0,0,1-.093.344Z"/>
      <path class="a3a46463-bfda-40de-80d1-493088aafe11" d="M193.481,84.971a.185.185,0,0,1-.1-.341l3.763-2.323a.184.184,0,0,1,.193.314l-3.762,2.323A.192.192,0,0,1,193.481,84.971Z"/>
      <path class="a3a46463-bfda-40de-80d1-493088aafe11" d="M200.636,71.663H179.158a.184.184,0,1,1,0-.368h21.478a.184.184,0,1,1,0,.368Z"/>
      <path class="a3a46463-bfda-40de-80d1-493088aafe11" d="M194.583,76.5h-9.824a.184.184,0,0,1,0-.368h9.824a.184.184,0,1,1,0,.368Z"/>
      <g>
        <polygon class="b140ac0e-446d-48c3-82f0-167be84d6fe7" points="189.375 81.668 189.375 90.377 196.917 94.731 204.458 90.377 204.458 81.668 196.917 77.314 189.375 81.668"/>
        <path class="a3a46463-bfda-40de-80d1-493088aafe11" d="M196.916,94.915a.2.2,0,0,1-.093-.024l-7.542-4.355a.184.184,0,0,1-.091-.16V81.668a.185.185,0,0,1,.091-.16l7.542-4.354a.187.187,0,0,1,.186,0l7.542,4.354a.185.185,0,0,1,.091.16v8.708a.184.184,0,0,1-.091.16l-7.542,4.355A.192.192,0,0,1,196.916,94.915Zm-7.358-4.645,7.358,4.248,7.358-4.248V81.775l-7.358-4.248-7.358,4.248Z"/>
      </g>
      <path class="a3a46463-bfda-40de-80d1-493088aafe11" d="M196.813,92.322a.184.184,0,0,1-.184-.184V86.2l-7.45-4.3a.185.185,0,1,1,.186-.319l7.54,4.353a.187.187,0,0,1,.092.16v6.05A.184.184,0,0,1,196.813,92.322Z"/>
      <path class="a3a46463-bfda-40de-80d1-493088aafe11" d="M196.813,86.272a.185.185,0,0,1-.161-.092.187.187,0,0,1,.068-.252l7.645-4.42a.185.185,0,0,1,.186.32l-7.646,4.42A.189.189,0,0,1,196.813,86.272Z"/>
      <polygon class="bda71fc9-c33a-4599-afad-8b915837a5f8" points="196.813 86.088 204.458 81.668 204.458 90.377 196.917 94.731 196.813 86.088"/>
    </g>
  </g>
</svg>
