<svg id="f61b24df-c63c-4379-81bc-937919dff9ef" data-name="Layer 1" xmlns="http://www.w3.org/2000/svg" xmlns:xlink="http://www.w3.org/1999/xlink" viewBox="0 0 262 180">
  <defs>
    <style>
      .f54d7e3e-9a2d-4c87-a071-c578cd3e10af {
        fill: none;
      }

      .a6dec14f-2e07-472e-a74e-6e2c3ad922c6 {
        fill: #fc0000;
      }

      .a7edc49e-fe26-473f-8fac-57c2accf7050 {
        fill: #fff;
      }

      .b0a03005-c53a-4e2c-bd6c-2fd7af5b9755 {
        fill: url(#ad6136e8-b60b-4387-87e6-6de5fa236068);
      }

      .f798ad22-d6be-409c-b938-070c66241b9d {
        fill: url(#b7206fd0-48f5-4327-a015-187e51acb3ad);
      }

      .ff903136-8ae6-4a53-a59b-5c07b2a0357c {
        fill: url(#aa11b9f4-ebc0-4360-8106-c9a15a30b64b);
      }

      .b4aac044-de28-4cd0-baec-5d3dc0f97924 {
        fill: url(#f803d4ba-2763-416d-99f7-5a4ea6980877);
      }

      .bb433ada-7b88-4a83-8316-90a2f18ca6ba {
        fill: url(#b0acdfde-f58a-40ef-97ea-571f98085c76);
      }

      .a691d921-68b8-4a11-8628-a2ffde54917b {
        fill: #231f20;
      }

      .e965cd9d-c6d4-4f3d-ae27-4074ecd0baa3 {
        fill: #e00;
      }
    </style>
    <pattern id="ad6136e8-b60b-4387-87e6-6de5fa236068" data-name="10 dpi 20%" width="28.8" height="28.801" patternTransform="translate(77.791 118.443) scale(0.349)" patternUnits="userSpaceOnUse" viewBox="0 0 28.8 28.801">
      <rect class="f54d7e3e-9a2d-4c87-a071-c578cd3e10af" width="28.8" height="28.801"/>
      <g>
        <path class="a6dec14f-2e07-472e-a74e-6e2c3ad922c6" d="M28.8,30.24A1.44,1.44,0,1,0,27.359,28.8,1.439,1.439,0,0,0,28.8,30.24Z"/>
        <path class="a6dec14f-2e07-472e-a74e-6e2c3ad922c6" d="M14.4,30.24A1.44,1.44,0,1,0,12.96,28.8,1.44,1.44,0,0,0,14.4,30.24Z"/>
        <path class="a6dec14f-2e07-472e-a74e-6e2c3ad922c6" d="M28.8,15.842A1.441,1.441,0,1,0,27.359,14.4,1.441,1.441,0,0,0,28.8,15.842Z"/>
        <path class="a6dec14f-2e07-472e-a74e-6e2c3ad922c6" d="M14.4,15.842A1.441,1.441,0,1,0,12.96,14.4,1.443,1.443,0,0,0,14.4,15.842Z"/>
        <path class="a6dec14f-2e07-472e-a74e-6e2c3ad922c6" d="M7.2,23.041A1.441,1.441,0,1,0,5.76,21.6,1.44,1.44,0,0,0,7.2,23.041Z"/>
        <path class="a6dec14f-2e07-472e-a74e-6e2c3ad922c6" d="M21.6,23.041a1.441,1.441,0,1,0-1.44-1.439A1.44,1.44,0,0,0,21.6,23.041Z"/>
        <path class="a6dec14f-2e07-472e-a74e-6e2c3ad922c6" d="M7.2,8.641A1.441,1.441,0,1,0,5.76,7.2,1.44,1.44,0,0,0,7.2,8.641Z"/>
        <path class="a6dec14f-2e07-472e-a74e-6e2c3ad922c6" d="M21.6,8.641a1.441,1.441,0,1,0-1.44-1.44A1.441,1.441,0,0,0,21.6,8.641Z"/>
      </g>
      <g>
        <path class="a6dec14f-2e07-472e-a74e-6e2c3ad922c6" d="M0,30.24A1.439,1.439,0,0,0,1.439,28.8,1.44,1.44,0,0,0,0,27.361,1.441,1.441,0,0,0-1.441,28.8,1.44,1.44,0,0,0,0,30.24Z"/>
        <path class="a6dec14f-2e07-472e-a74e-6e2c3ad922c6" d="M0,15.842A1.441,1.441,0,0,0,1.439,14.4,1.44,1.44,0,0,0,0,12.961,1.441,1.441,0,0,0-1.441,14.4,1.442,1.442,0,0,0,0,15.842Z"/>
      </g>
      <g>
        <path class="a6dec14f-2e07-472e-a74e-6e2c3ad922c6" d="M28.8,1.44A1.44,1.44,0,0,0,30.239,0,1.439,1.439,0,0,0,28.8-1.439,1.44,1.44,0,0,0,27.359,0,1.441,1.441,0,0,0,28.8,1.44Z"/>
        <path class="a6dec14f-2e07-472e-a74e-6e2c3ad922c6" d="M14.4,1.44A1.441,1.441,0,0,0,15.84,0,1.44,1.44,0,0,0,14.4-1.439,1.438,1.438,0,0,0,12.96,0,1.439,1.439,0,0,0,14.4,1.44Z"/>
      </g>
      <path class="a6dec14f-2e07-472e-a74e-6e2c3ad922c6" d="M0,1.44A1.44,1.44,0,0,0,1.439,0,1.439,1.439,0,0,0,0-1.439,1.44,1.44,0,0,0-1.441,0,1.441,1.441,0,0,0,0,1.44Z"/>
    </pattern>
    <pattern id="b7206fd0-48f5-4327-a015-187e51acb3ad" data-name="10 dpi 20%" width="28.8" height="28.801" patternTransform="translate(74.883 119.17) scale(0.349)" patternUnits="userSpaceOnUse" viewBox="0 0 28.8 28.801">
      <rect class="f54d7e3e-9a2d-4c87-a071-c578cd3e10af" width="28.8" height="28.801"/>
      <g>
        <path class="a6dec14f-2e07-472e-a74e-6e2c3ad922c6" d="M28.8,30.24A1.44,1.44,0,1,0,27.359,28.8,1.439,1.439,0,0,0,28.8,30.24Z"/>
        <path class="a6dec14f-2e07-472e-a74e-6e2c3ad922c6" d="M14.4,30.24A1.44,1.44,0,1,0,12.96,28.8,1.44,1.44,0,0,0,14.4,30.24Z"/>
        <path class="a6dec14f-2e07-472e-a74e-6e2c3ad922c6" d="M28.8,15.842A1.441,1.441,0,1,0,27.359,14.4,1.441,1.441,0,0,0,28.8,15.842Z"/>
        <path class="a6dec14f-2e07-472e-a74e-6e2c3ad922c6" d="M14.4,15.842A1.441,1.441,0,1,0,12.96,14.4,1.443,1.443,0,0,0,14.4,15.842Z"/>
        <path class="a6dec14f-2e07-472e-a74e-6e2c3ad922c6" d="M7.2,23.041A1.441,1.441,0,1,0,5.76,21.6,1.44,1.44,0,0,0,7.2,23.041Z"/>
        <path class="a6dec14f-2e07-472e-a74e-6e2c3ad922c6" d="M21.6,23.041a1.441,1.441,0,1,0-1.44-1.439A1.44,1.44,0,0,0,21.6,23.041Z"/>
        <path class="a6dec14f-2e07-472e-a74e-6e2c3ad922c6" d="M7.2,8.641A1.441,1.441,0,1,0,5.76,7.2,1.44,1.44,0,0,0,7.2,8.641Z"/>
        <path class="a6dec14f-2e07-472e-a74e-6e2c3ad922c6" d="M21.6,8.641a1.441,1.441,0,1,0-1.44-1.44A1.441,1.441,0,0,0,21.6,8.641Z"/>
      </g>
      <g>
        <path class="a6dec14f-2e07-472e-a74e-6e2c3ad922c6" d="M0,30.24A1.439,1.439,0,0,0,1.439,28.8,1.44,1.44,0,0,0,0,27.361,1.441,1.441,0,0,0-1.441,28.8,1.44,1.44,0,0,0,0,30.24Z"/>
        <path class="a6dec14f-2e07-472e-a74e-6e2c3ad922c6" d="M0,15.842A1.441,1.441,0,0,0,1.439,14.4,1.44,1.44,0,0,0,0,12.961,1.441,1.441,0,0,0-1.441,14.4,1.442,1.442,0,0,0,0,15.842Z"/>
      </g>
      <g>
        <path class="a6dec14f-2e07-472e-a74e-6e2c3ad922c6" d="M28.8,1.44A1.44,1.44,0,0,0,30.239,0,1.439,1.439,0,0,0,28.8-1.439,1.44,1.44,0,0,0,27.359,0,1.441,1.441,0,0,0,28.8,1.44Z"/>
        <path class="a6dec14f-2e07-472e-a74e-6e2c3ad922c6" d="M14.4,1.44A1.441,1.441,0,0,0,15.84,0,1.44,1.44,0,0,0,14.4-1.439,1.438,1.438,0,0,0,12.96,0,1.439,1.439,0,0,0,14.4,1.44Z"/>
      </g>
      <path class="a6dec14f-2e07-472e-a74e-6e2c3ad922c6" d="M0,1.44A1.44,1.44,0,0,0,1.439,0,1.439,1.439,0,0,0,0-1.439,1.44,1.44,0,0,0-1.441,0,1.441,1.441,0,0,0,0,1.44Z"/>
    </pattern>
    <pattern id="aa11b9f4-ebc0-4360-8106-c9a15a30b64b" data-name="10 dpi 20%" width="28.8" height="28.801" patternTransform="translate(71.99 123.496) scale(0.349)" patternUnits="userSpaceOnUse" viewBox="0 0 28.8 28.801">
      <rect class="f54d7e3e-9a2d-4c87-a071-c578cd3e10af" width="28.8" height="28.801"/>
      <g>
        <path class="a6dec14f-2e07-472e-a74e-6e2c3ad922c6" d="M28.8,30.24A1.44,1.44,0,1,0,27.359,28.8,1.439,1.439,0,0,0,28.8,30.24Z"/>
        <path class="a6dec14f-2e07-472e-a74e-6e2c3ad922c6" d="M14.4,30.24A1.44,1.44,0,1,0,12.96,28.8,1.44,1.44,0,0,0,14.4,30.24Z"/>
        <path class="a6dec14f-2e07-472e-a74e-6e2c3ad922c6" d="M28.8,15.842A1.441,1.441,0,1,0,27.359,14.4,1.441,1.441,0,0,0,28.8,15.842Z"/>
        <path class="a6dec14f-2e07-472e-a74e-6e2c3ad922c6" d="M14.4,15.842A1.441,1.441,0,1,0,12.96,14.4,1.443,1.443,0,0,0,14.4,15.842Z"/>
        <path class="a6dec14f-2e07-472e-a74e-6e2c3ad922c6" d="M7.2,23.041A1.441,1.441,0,1,0,5.76,21.6,1.44,1.44,0,0,0,7.2,23.041Z"/>
        <path class="a6dec14f-2e07-472e-a74e-6e2c3ad922c6" d="M21.6,23.041a1.441,1.441,0,1,0-1.44-1.439A1.44,1.44,0,0,0,21.6,23.041Z"/>
        <path class="a6dec14f-2e07-472e-a74e-6e2c3ad922c6" d="M7.2,8.641A1.441,1.441,0,1,0,5.76,7.2,1.44,1.44,0,0,0,7.2,8.641Z"/>
        <path class="a6dec14f-2e07-472e-a74e-6e2c3ad922c6" d="M21.6,8.641a1.441,1.441,0,1,0-1.44-1.44A1.441,1.441,0,0,0,21.6,8.641Z"/>
      </g>
      <g>
        <path class="a6dec14f-2e07-472e-a74e-6e2c3ad922c6" d="M0,30.24A1.439,1.439,0,0,0,1.439,28.8,1.44,1.44,0,0,0,0,27.361,1.441,1.441,0,0,0-1.441,28.8,1.44,1.44,0,0,0,0,30.24Z"/>
        <path class="a6dec14f-2e07-472e-a74e-6e2c3ad922c6" d="M0,15.842A1.441,1.441,0,0,0,1.439,14.4,1.44,1.44,0,0,0,0,12.961,1.441,1.441,0,0,0-1.441,14.4,1.442,1.442,0,0,0,0,15.842Z"/>
      </g>
      <g>
        <path class="a6dec14f-2e07-472e-a74e-6e2c3ad922c6" d="M28.8,1.44A1.44,1.44,0,0,0,30.239,0,1.439,1.439,0,0,0,28.8-1.439,1.44,1.44,0,0,0,27.359,0,1.441,1.441,0,0,0,28.8,1.44Z"/>
        <path class="a6dec14f-2e07-472e-a74e-6e2c3ad922c6" d="M14.4,1.44A1.441,1.441,0,0,0,15.84,0,1.44,1.44,0,0,0,14.4-1.439,1.438,1.438,0,0,0,12.96,0,1.439,1.439,0,0,0,14.4,1.44Z"/>
      </g>
      <path class="a6dec14f-2e07-472e-a74e-6e2c3ad922c6" d="M0,1.44A1.44,1.44,0,0,0,1.439,0,1.439,1.439,0,0,0,0-1.439,1.44,1.44,0,0,0-1.441,0,1.441,1.441,0,0,0,0,1.44Z"/>
    </pattern>
    <pattern id="f803d4ba-2763-416d-99f7-5a4ea6980877" data-name="10 dpi 20%" width="28.8" height="28.801" patternTransform="translate(72.805 123.496) scale(0.349)" patternUnits="userSpaceOnUse" viewBox="0 0 28.8 28.801">
      <rect class="f54d7e3e-9a2d-4c87-a071-c578cd3e10af" width="28.8" height="28.801"/>
      <g>
        <path class="a6dec14f-2e07-472e-a74e-6e2c3ad922c6" d="M28.8,30.24A1.44,1.44,0,1,0,27.359,28.8,1.439,1.439,0,0,0,28.8,30.24Z"/>
        <path class="a6dec14f-2e07-472e-a74e-6e2c3ad922c6" d="M14.4,30.24A1.44,1.44,0,1,0,12.96,28.8,1.44,1.44,0,0,0,14.4,30.24Z"/>
        <path class="a6dec14f-2e07-472e-a74e-6e2c3ad922c6" d="M28.8,15.842A1.441,1.441,0,1,0,27.359,14.4,1.441,1.441,0,0,0,28.8,15.842Z"/>
        <path class="a6dec14f-2e07-472e-a74e-6e2c3ad922c6" d="M14.4,15.842A1.441,1.441,0,1,0,12.96,14.4,1.443,1.443,0,0,0,14.4,15.842Z"/>
        <path class="a6dec14f-2e07-472e-a74e-6e2c3ad922c6" d="M7.2,23.041A1.441,1.441,0,1,0,5.76,21.6,1.44,1.44,0,0,0,7.2,23.041Z"/>
        <path class="a6dec14f-2e07-472e-a74e-6e2c3ad922c6" d="M21.6,23.041a1.441,1.441,0,1,0-1.44-1.439A1.44,1.44,0,0,0,21.6,23.041Z"/>
        <path class="a6dec14f-2e07-472e-a74e-6e2c3ad922c6" d="M7.2,8.641A1.441,1.441,0,1,0,5.76,7.2,1.44,1.44,0,0,0,7.2,8.641Z"/>
        <path class="a6dec14f-2e07-472e-a74e-6e2c3ad922c6" d="M21.6,8.641a1.441,1.441,0,1,0-1.44-1.44A1.441,1.441,0,0,0,21.6,8.641Z"/>
      </g>
      <g>
        <path class="a6dec14f-2e07-472e-a74e-6e2c3ad922c6" d="M0,30.24A1.439,1.439,0,0,0,1.439,28.8,1.44,1.44,0,0,0,0,27.361,1.441,1.441,0,0,0-1.441,28.8,1.44,1.44,0,0,0,0,30.24Z"/>
        <path class="a6dec14f-2e07-472e-a74e-6e2c3ad922c6" d="M0,15.842A1.441,1.441,0,0,0,1.439,14.4,1.44,1.44,0,0,0,0,12.961,1.441,1.441,0,0,0-1.441,14.4,1.442,1.442,0,0,0,0,15.842Z"/>
      </g>
      <g>
        <path class="a6dec14f-2e07-472e-a74e-6e2c3ad922c6" d="M28.8,1.44A1.44,1.44,0,0,0,30.239,0,1.439,1.439,0,0,0,28.8-1.439,1.44,1.44,0,0,0,27.359,0,1.441,1.441,0,0,0,28.8,1.44Z"/>
        <path class="a6dec14f-2e07-472e-a74e-6e2c3ad922c6" d="M14.4,1.44A1.441,1.441,0,0,0,15.84,0,1.44,1.44,0,0,0,14.4-1.439,1.438,1.438,0,0,0,12.96,0,1.439,1.439,0,0,0,14.4,1.44Z"/>
      </g>
      <path class="a6dec14f-2e07-472e-a74e-6e2c3ad922c6" d="M0,1.44A1.44,1.44,0,0,0,1.439,0,1.439,1.439,0,0,0,0-1.439,1.44,1.44,0,0,0-1.441,0,1.441,1.441,0,0,0,0,1.44Z"/>
    </pattern>
    <pattern id="b0acdfde-f58a-40ef-97ea-571f98085c76" data-name="10 dpi 20%" width="28.8" height="28.801" patternTransform="translate(79.406 119.17) scale(0.349)" patternUnits="userSpaceOnUse" viewBox="0 0 28.8 28.801">
      <rect class="f54d7e3e-9a2d-4c87-a071-c578cd3e10af" width="28.8" height="28.801"/>
      <g>
        <path class="a6dec14f-2e07-472e-a74e-6e2c3ad922c6" d="M28.8,30.24A1.44,1.44,0,1,0,27.359,28.8,1.439,1.439,0,0,0,28.8,30.24Z"/>
        <path class="a6dec14f-2e07-472e-a74e-6e2c3ad922c6" d="M14.4,30.24A1.44,1.44,0,1,0,12.96,28.8,1.44,1.44,0,0,0,14.4,30.24Z"/>
        <path class="a6dec14f-2e07-472e-a74e-6e2c3ad922c6" d="M28.8,15.842A1.441,1.441,0,1,0,27.359,14.4,1.441,1.441,0,0,0,28.8,15.842Z"/>
        <path class="a6dec14f-2e07-472e-a74e-6e2c3ad922c6" d="M14.4,15.842A1.441,1.441,0,1,0,12.96,14.4,1.443,1.443,0,0,0,14.4,15.842Z"/>
        <path class="a6dec14f-2e07-472e-a74e-6e2c3ad922c6" d="M7.2,23.041A1.441,1.441,0,1,0,5.76,21.6,1.44,1.44,0,0,0,7.2,23.041Z"/>
        <path class="a6dec14f-2e07-472e-a74e-6e2c3ad922c6" d="M21.6,23.041a1.441,1.441,0,1,0-1.44-1.439A1.44,1.44,0,0,0,21.6,23.041Z"/>
        <path class="a6dec14f-2e07-472e-a74e-6e2c3ad922c6" d="M7.2,8.641A1.441,1.441,0,1,0,5.76,7.2,1.44,1.44,0,0,0,7.2,8.641Z"/>
        <path class="a6dec14f-2e07-472e-a74e-6e2c3ad922c6" d="M21.6,8.641a1.441,1.441,0,1,0-1.44-1.44A1.441,1.441,0,0,0,21.6,8.641Z"/>
      </g>
      <g>
        <path class="a6dec14f-2e07-472e-a74e-6e2c3ad922c6" d="M0,30.24A1.439,1.439,0,0,0,1.439,28.8,1.44,1.44,0,0,0,0,27.361,1.441,1.441,0,0,0-1.441,28.8,1.44,1.44,0,0,0,0,30.24Z"/>
        <path class="a6dec14f-2e07-472e-a74e-6e2c3ad922c6" d="M0,15.842A1.441,1.441,0,0,0,1.439,14.4,1.44,1.44,0,0,0,0,12.961,1.441,1.441,0,0,0-1.441,14.4,1.442,1.442,0,0,0,0,15.842Z"/>
      </g>
      <g>
        <path class="a6dec14f-2e07-472e-a74e-6e2c3ad922c6" d="M28.8,1.44A1.44,1.44,0,0,0,30.239,0,1.439,1.439,0,0,0,28.8-1.439,1.44,1.44,0,0,0,27.359,0,1.441,1.441,0,0,0,28.8,1.44Z"/>
        <path class="a6dec14f-2e07-472e-a74e-6e2c3ad922c6" d="M14.4,1.44A1.441,1.441,0,0,0,15.84,0,1.44,1.44,0,0,0,14.4-1.439,1.438,1.438,0,0,0,12.96,0,1.439,1.439,0,0,0,14.4,1.44Z"/>
      </g>
      <path class="a6dec14f-2e07-472e-a74e-6e2c3ad922c6" d="M0,1.44A1.44,1.44,0,0,0,1.439,0,1.439,1.439,0,0,0,0-1.439,1.44,1.44,0,0,0-1.441,0,1.441,1.441,0,0,0,0,1.44Z"/>
    </pattern>
  </defs>
  <g>
    <path class="a6dec14f-2e07-472e-a74e-6e2c3ad922c6" d="M188.968,109.793a.417.417,0,0,1-.417-.417,55.3,55.3,0,0,0-110.606,0,.417.417,0,0,1-.834,0,56.137,56.137,0,0,1,112.274,0A.417.417,0,0,1,188.968,109.793Z"/>
    <g>
      <g>
        <circle class="a7edc49e-fe26-473f-8fac-57c2accf7050" cx="133.614" cy="53.656" r="9.676"/>
        <path class="a6dec14f-2e07-472e-a74e-6e2c3ad922c6" d="M133.614,63.75a10.094,10.094,0,1,1,10.093-10.094A10.105,10.105,0,0,1,133.614,63.75Zm0-19.353a9.259,9.259,0,1,0,9.259,9.259A9.271,9.271,0,0,0,133.614,44.4Z"/>
      </g>
      <path class="b0a03005-c53a-4e2c-bd6c-2fd7af5b9755" d="M140.456,46.814A9.677,9.677,0,0,1,126.771,60.5Z"/>
    </g>
    <g>
      <g>
        <circle class="a7edc49e-fe26-473f-8fac-57c2accf7050" cx="90.478" cy="74.498" r="9.676"/>
        <path class="a6dec14f-2e07-472e-a74e-6e2c3ad922c6" d="M90.477,84.592A10.094,10.094,0,1,1,100.571,74.5,10.1,10.1,0,0,1,90.477,84.592Zm0-19.353a9.259,9.259,0,1,0,9.26,9.259A9.269,9.269,0,0,0,90.477,65.239Z"/>
      </g>
      <path class="f798ad22-d6be-409c-b938-070c66241b9d" d="M97.32,67.656A9.676,9.676,0,1,1,83.636,81.341Z"/>
    </g>
    <g>
      <g>
        <circle class="a7edc49e-fe26-473f-8fac-57c2accf7050" cx="77.529" cy="119.052" r="9.676"/>
        <path class="a6dec14f-2e07-472e-a74e-6e2c3ad922c6" d="M77.528,129.146a10.094,10.094,0,1,1,10.094-10.094A10.105,10.105,0,0,1,77.528,129.146Zm0-19.353a9.259,9.259,0,1,0,9.26,9.259A9.27,9.27,0,0,0,77.528,109.793Z"/>
      </g>
      <path class="ff903136-8ae6-4a53-a59b-5c07b2a0357c" d="M84.371,112.21A9.677,9.677,0,1,1,70.686,125.9Z"/>
    </g>
    <g>
      <g>
        <circle class="a7edc49e-fe26-473f-8fac-57c2accf7050" cx="188.968" cy="119.052" r="9.676"/>
        <path class="a6dec14f-2e07-472e-a74e-6e2c3ad922c6" d="M188.968,129.146a10.094,10.094,0,1,1,10.093-10.094A10.1,10.1,0,0,1,188.968,129.146Zm0-19.353a9.259,9.259,0,1,0,9.259,9.259A9.269,9.269,0,0,0,188.968,109.793Z"/>
      </g>
      <path class="b4aac044-de28-4cd0-baec-5d3dc0f97924" d="M195.81,112.21A9.676,9.676,0,1,1,182.126,125.9Z"/>
    </g>
    <g>
      <g>
        <circle class="a7edc49e-fe26-473f-8fac-57c2accf7050" cx="175.456" cy="74.498" r="9.676"/>
        <path class="a6dec14f-2e07-472e-a74e-6e2c3ad922c6" d="M175.456,84.592A10.094,10.094,0,1,1,185.55,74.5,10.105,10.105,0,0,1,175.456,84.592Zm0-19.353a9.259,9.259,0,1,0,9.26,9.259A9.27,9.27,0,0,0,175.456,65.239Z"/>
      </g>
      <path class="bb433ada-7b88-4a83-8316-90a2f18ca6ba" d="M182.3,67.656a9.676,9.676,0,1,1-13.684,13.685Z"/>
    </g>
    <rect class="a6dec14f-2e07-472e-a74e-6e2c3ad922c6" x="108.965" y="85.906" width="56.584" height="57.145"/>
    <g>
      <rect class="a7edc49e-fe26-473f-8fac-57c2accf7050" x="105.335" y="81.369" width="54.747" height="56.265"/>
      <path class="a6dec14f-2e07-472e-a74e-6e2c3ad922c6" d="M160.082,138.052H105.335a.417.417,0,0,1-.417-.418V81.369a.417.417,0,0,1,.417-.417h54.747a.417.417,0,0,1,.417.417v56.265A.418.418,0,0,1,160.082,138.052Zm-54.33-.835h53.913V81.787H105.752Z"/>
    </g>
    <path class="a6dec14f-2e07-472e-a74e-6e2c3ad922c6" d="M160.082,123.745H105.335a.418.418,0,0,1,0-.835h54.747a.418.418,0,0,1,0,.835Z"/>
    <path class="a6dec14f-2e07-472e-a74e-6e2c3ad922c6" d="M160.082,109.759H105.335a.418.418,0,0,1,0-.835h54.747a.418.418,0,0,1,0,.835Z"/>
    <path class="a6dec14f-2e07-472e-a74e-6e2c3ad922c6" d="M160.082,95.772H105.335a.418.418,0,0,1,0-.835h54.747a.418.418,0,0,1,0,.835Z"/>
    <path class="a6dec14f-2e07-472e-a74e-6e2c3ad922c6" d="M121.626,116.717H111.4a.418.418,0,0,1,0-.835h10.226a.418.418,0,0,1,0,.835Z"/>
    <circle class="a6dec14f-2e07-472e-a74e-6e2c3ad922c6" cx="152.363" cy="116.334" r="1.132"/>
    <circle class="a6dec14f-2e07-472e-a74e-6e2c3ad922c6" cx="147.66" cy="116.334" r="1.132"/>
    <circle class="a6dec14f-2e07-472e-a74e-6e2c3ad922c6" cx="152.363" cy="88.675" r="1.132"/>
    <circle class="a6dec14f-2e07-472e-a74e-6e2c3ad922c6" cx="147.66" cy="88.675" r="1.132"/>
    <g>
      <line class="a7edc49e-fe26-473f-8fac-57c2accf7050" x1="153.481" y1="102.383" x2="143.255" y2="102.383"/>
      <path class="a6dec14f-2e07-472e-a74e-6e2c3ad922c6" d="M153.481,102.8H143.256a.418.418,0,0,1,0-.835h10.225a.418.418,0,0,1,0,.835Z"/>
    </g>
    <circle class="a6dec14f-2e07-472e-a74e-6e2c3ad922c6" cx="112.519" cy="102.348" r="1.132"/>
    <circle class="a6dec14f-2e07-472e-a74e-6e2c3ad922c6" cx="117.221" cy="102.348" r="1.132"/>
    <g>
      <rect class="a7edc49e-fe26-473f-8fac-57c2accf7050" x="109.728" y="127.301" width="45.709" height="6.336"/>
      <path class="a6dec14f-2e07-472e-a74e-6e2c3ad922c6" d="M155.437,134.055H109.728a.418.418,0,0,1-.417-.418V127.3a.418.418,0,0,1,.417-.418h45.709a.417.417,0,0,1,.417.418v6.336A.417.417,0,0,1,155.437,134.055Zm-45.292-.835H155.02v-5.5H110.145Z"/>
    </g>
    <g>
      <rect class="a7edc49e-fe26-473f-8fac-57c2accf7050" x="109.728" y="86.07" width="19.511" height="5.211"/>
      <path class="a6dec14f-2e07-472e-a74e-6e2c3ad922c6" d="M129.239,91.7H109.728a.418.418,0,0,1-.417-.418V86.07a.418.418,0,0,1,.417-.418h19.511a.417.417,0,0,1,.417.418v5.21A.417.417,0,0,1,129.239,91.7Zm-19.094-.835h18.677V86.487H110.145Z"/>
    </g>
    <path class="a6dec14f-2e07-472e-a74e-6e2c3ad922c6" d="M131.244,91.7a.418.418,0,0,1-.417-.418V86.07a.417.417,0,1,1,.834,0v5.21A.418.418,0,0,1,131.244,91.7Z"/>
  </g>
  <g>
    <circle class="a7edc49e-fe26-473f-8fac-57c2accf7050" cx="175.456" cy="74.498" r="15.666"/>
    <path class="a691d921-68b8-4a11-8628-a2ffde54917b" d="M175.456,90.564A16.066,16.066,0,1,1,191.522,74.5,16.085,16.085,0,0,1,175.456,90.564Zm0-31.332A15.266,15.266,0,1,0,190.722,74.5,15.284,15.284,0,0,0,175.456,59.232Z"/>
  </g>
  <g>
    <circle class="a7edc49e-fe26-473f-8fac-57c2accf7050" cx="77.529" cy="119.052" r="15.666"/>
    <path class="a691d921-68b8-4a11-8628-a2ffde54917b" d="M77.528,135.118A16.066,16.066,0,1,1,93.6,119.052,16.084,16.084,0,0,1,77.528,135.118Zm0-31.331a15.266,15.266,0,1,0,15.266,15.265A15.282,15.282,0,0,0,77.528,103.787Z"/>
  </g>
  <g>
    <circle class="a7edc49e-fe26-473f-8fac-57c2accf7050" cx="91.895" cy="74.498" r="15.666"/>
    <path class="a691d921-68b8-4a11-8628-a2ffde54917b" d="M91.9,90.564A16.066,16.066,0,1,1,107.961,74.5,16.085,16.085,0,0,1,91.9,90.564Zm0-31.332A15.266,15.266,0,1,0,107.16,74.5,15.283,15.283,0,0,0,91.9,59.232Z"/>
  </g>
  <g>
    <circle class="a7edc49e-fe26-473f-8fac-57c2accf7050" cx="133.675" cy="53.656" r="15.666"/>
    <path class="a691d921-68b8-4a11-8628-a2ffde54917b" d="M133.676,69.722a16.066,16.066,0,1,1,16.066-16.066A16.085,16.085,0,0,1,133.676,69.722Zm0-31.331a15.266,15.266,0,1,0,15.265,15.265A15.283,15.283,0,0,0,133.676,38.391Z"/>
  </g>
  <g>
    <circle class="a7edc49e-fe26-473f-8fac-57c2accf7050" cx="188.968" cy="119.052" r="15.666"/>
    <path class="a691d921-68b8-4a11-8628-a2ffde54917b" d="M188.968,135.118a16.066,16.066,0,1,1,16.066-16.066A16.085,16.085,0,0,1,188.968,135.118Zm0-31.331a15.266,15.266,0,1,0,15.265,15.265A15.283,15.283,0,0,0,188.968,103.787Z"/>
  </g>
  <g>
    <path class="e965cd9d-c6d4-4f3d-ae27-4074ecd0baa3" d="M95.979,81.881H87.811a.365.365,0,0,1-.364-.365V66.347a.365.365,0,0,1,.364-.365h8.168a.365.365,0,0,1,.365.365V81.516A.365.365,0,0,1,95.979,81.881Zm-7.8-.73h7.439V66.712H88.176Z"/>
    <path class="e965cd9d-c6d4-4f3d-ae27-4074ecd0baa3" d="M91.893,68.458a.676.676,0,0,1-.139-.02.834.834,0,0,1-.12-.08.7.7,0,0,1-.08-.12.677.677,0,0,1-.021-.14.588.588,0,0,1,.021-.14.449.449,0,0,1,.08-.12.834.834,0,0,1,.12-.08.444.444,0,0,1,.279,0,.483.483,0,0,1,.12.08.474.474,0,0,1,.08.12.306.306,0,0,1,.031.14.338.338,0,0,1-.031.14.758.758,0,0,1-.08.12.483.483,0,0,1-.12.08A.583.583,0,0,1,91.893,68.458Z"/>
    <path class="e965cd9d-c6d4-4f3d-ae27-4074ecd0baa3" d="M93.061,80.13H90.728a.365.365,0,0,1,0-.729h2.333a.365.365,0,1,1,0,.729Z"/>
  </g>
  <g>
    <path class="e965cd9d-c6d4-4f3d-ae27-4074ecd0baa3" d="M193.052,127h-8.168a.364.364,0,0,1-.365-.364V111.468a.365.365,0,0,1,.365-.365h8.168a.365.365,0,0,1,.364.365v15.169A.364.364,0,0,1,193.052,127Zm-7.8-.729h7.439v-14.44h-7.439Z"/>
    <path class="e965cd9d-c6d4-4f3d-ae27-4074ecd0baa3" d="M188.964,113.578a.347.347,0,0,1-.141-.02.438.438,0,0,1-.109-.08.4.4,0,0,1-.08-.12.306.306,0,0,1-.031-.14.36.36,0,0,1,.111-.26.382.382,0,0,1,.51,0,.362.362,0,0,1,0,.52A.357.357,0,0,1,188.964,113.578Z"/>
    <path class="e965cd9d-c6d4-4f3d-ae27-4074ecd0baa3" d="M190.135,125.251H187.8a.365.365,0,1,1,0-.729h2.334a.365.365,0,0,1,0,.729Z"/>
  </g>
  <path class="e965cd9d-c6d4-4f3d-ae27-4074ecd0baa3" d="M175.606,79.72h-7.739a.357.357,0,0,1-.357-.358V66.2a.357.357,0,0,1,.357-.357h10.027a.357.357,0,0,1,.358.357v3.433a.358.358,0,1,1-.715,0V66.559h-9.313V79.005h7.382a.358.358,0,1,1,0,.715Z"/>
  <path class="e965cd9d-c6d4-4f3d-ae27-4074ecd0baa3" d="M173.014,68.848a.358.358,0,0,1-.25-.11.447.447,0,0,1-.081-.11.649.649,0,0,1-.019-.14.877.877,0,0,1,.019-.14.447.447,0,0,1,.081-.11.36.36,0,0,1,.12-.08.376.376,0,0,1,.389.08.252.252,0,0,1,.071.11.371.371,0,0,1,.03.14.352.352,0,0,1-.1.25A.361.361,0,0,1,173.014,68.848Z"/>
  <path class="e965cd9d-c6d4-4f3d-ae27-4074ecd0baa3" d="M174.162,77.431h-2.289a.358.358,0,0,1,0-.715h2.289a.358.358,0,0,1,0,.715Z"/>
  <path class="e965cd9d-c6d4-4f3d-ae27-4074ecd0baa3" d="M183.045,81.436h-5.723a.357.357,0,0,1-.357-.357V71.351a.357.357,0,0,1,.357-.357h5.723a.357.357,0,0,1,.357.357v9.728A.357.357,0,0,1,183.045,81.436Zm-5.365-.714h5.007V71.708H177.68Z"/>
  <path class="e965cd9d-c6d4-4f3d-ae27-4074ecd0baa3" d="M180.183,73.428a.352.352,0,0,1-.139-.03.294.294,0,0,1-.111-.08.341.341,0,0,1-.11-.25.371.371,0,0,1,.03-.14.431.431,0,0,1,.191-.19.353.353,0,0,1,.389.08.276.276,0,0,1,.081.11.371.371,0,0,1,.03.14.338.338,0,0,1-.111.25A.358.358,0,0,1,180.183,73.428Z"/>
  <path class="e965cd9d-c6d4-4f3d-ae27-4074ecd0baa3" d="M180.756,79.72h-1.145a.358.358,0,0,1,0-.715h1.145a.358.358,0,0,1,0,.715Z"/>
  <path class="e965cd9d-c6d4-4f3d-ae27-4074ecd0baa3" d="M77.679,125.132h-7.74a.357.357,0,0,1-.357-.357V111.613a.357.357,0,0,1,.357-.357H79.968a.357.357,0,0,1,.357.357v3.434a.358.358,0,0,1-.715,0v-3.076H70.3v12.446h7.382a.358.358,0,0,1,0,.715Z"/>
  <path class="e965cd9d-c6d4-4f3d-ae27-4074ecd0baa3" d="M75.094,114.258a.353.353,0,0,1-.26-.1.39.39,0,0,1-.1-.25.4.4,0,0,1,.1-.26.382.382,0,0,1,.51,0,.4.4,0,0,1,.1.26.346.346,0,0,1-.1.25A.35.35,0,0,1,75.094,114.258Z"/>
  <path class="e965cd9d-c6d4-4f3d-ae27-4074ecd0baa3" d="M76.234,122.843H73.945a.358.358,0,0,1,0-.715h2.289a.358.358,0,1,1,0,.715Z"/>
  <path class="e965cd9d-c6d4-4f3d-ae27-4074ecd0baa3" d="M85.117,126.849H79.4a.357.357,0,0,1-.357-.357v-9.728a.357.357,0,0,1,.357-.358h5.722a.357.357,0,0,1,.357.358v9.728A.357.357,0,0,1,85.117,126.849Zm-5.364-.715H84.76v-9.013H79.753Z"/>
  <path class="e965cd9d-c6d4-4f3d-ae27-4074ecd0baa3" d="M82.254,118.838a.356.356,0,0,1-.25-.11.42.42,0,0,1-.08-.11.325.325,0,0,1-.021-.14.263.263,0,0,1,.021-.13.345.345,0,0,1,.08-.12.372.372,0,0,1,.389-.08.842.842,0,0,1,.121.08.362.362,0,0,1,.07.12.322.322,0,0,1,.029.13.334.334,0,0,1-.029.14.439.439,0,0,1-.07.11.422.422,0,0,1-.121.08A.315.315,0,0,1,82.254,118.838Z"/>
  <path class="e965cd9d-c6d4-4f3d-ae27-4074ecd0baa3" d="M82.829,125.132H81.684a.358.358,0,0,1,0-.715h1.145a.358.358,0,0,1,0,.715Z"/>
  <path class="e965cd9d-c6d4-4f3d-ae27-4074ecd0baa3" d="M136.252,58.2h-4.884a2.216,2.216,0,0,1-2.214-2.213v-6.1a2.216,2.216,0,0,1,2.214-2.213h4.884a2.216,2.216,0,0,1,2.213,2.213v6.1A2.216,2.216,0,0,1,136.252,58.2Zm-4.884-9.768a1.452,1.452,0,0,0-1.45,1.45v6.1a1.451,1.451,0,0,0,1.45,1.45h4.884a1.451,1.451,0,0,0,1.449-1.45v-6.1a1.451,1.451,0,0,0-1.449-1.45Z"/>
  <path class="e965cd9d-c6d4-4f3d-ae27-4074ecd0baa3" d="M139.305,53.314a.382.382,0,0,1-.382-.381V51.1a.382.382,0,0,1,.763,0v1.832A.381.381,0,0,1,139.305,53.314Z"/>
  <path class="e965cd9d-c6d4-4f3d-ae27-4074ecd0baa3" d="M135.641,45.378h-3.663a.382.382,0,0,1,0-.763h3.663a.382.382,0,1,1,0,.763Z"/>
  <path class="e965cd9d-c6d4-4f3d-ae27-4074ecd0baa3" d="M136.29,48.431a.381.381,0,0,1-.373-.3l-.649-3.052a.382.382,0,1,1,.747-.159l.648,3.053a.381.381,0,0,1-.294.452A.355.355,0,0,1,136.29,48.431Z"/>
  <path class="e965cd9d-c6d4-4f3d-ae27-4074ecd0baa3" d="M131.33,48.431a.355.355,0,0,1-.079-.009.381.381,0,0,1-.294-.452l.648-3.053a.381.381,0,1,1,.746.159l-.648,3.052A.381.381,0,0,1,131.33,48.431Z"/>
  <path class="e965cd9d-c6d4-4f3d-ae27-4074ecd0baa3" d="M135.641,61.25h-3.663a.381.381,0,0,1,0-.762h3.663a.381.381,0,1,1,0,.762Z"/>
  <path class="e965cd9d-c6d4-4f3d-ae27-4074ecd0baa3" d="M131.978,61.251a.382.382,0,0,1-.373-.3l-.648-3.053a.381.381,0,1,1,.746-.158l.648,3.053a.38.38,0,0,1-.294.452A.348.348,0,0,1,131.978,61.251Z"/>
  <path class="e965cd9d-c6d4-4f3d-ae27-4074ecd0baa3" d="M135.641,61.251a.361.361,0,0,1-.079-.009.381.381,0,0,1-.294-.452l.649-3.053a.381.381,0,0,1,.746.158l-.648,3.053A.383.383,0,0,1,135.641,61.251Z"/>
  <path class="e965cd9d-c6d4-4f3d-ae27-4074ecd0baa3" d="M133.433,54.768a.4.4,0,0,1,.38-.39h0a.382.382,0,0,1,.38.39h0a.386.386,0,0,1-.38.38h0A.38.38,0,0,1,133.433,54.768Zm-1.179-.26a.388.388,0,0,1-.01-.54h0a.388.388,0,0,1,.539-.01h0a.373.373,0,0,1,.011.54h0a.393.393,0,0,1-.271.12h0A.384.384,0,0,1,132.254,54.508Zm2.58-.01a.378.378,0,0,1,0-.54h0a.38.38,0,0,1,.54,0h0a.382.382,0,0,1,0,.54h0a.387.387,0,0,1-.271.11h0A.4.4,0,0,1,134.834,54.5Zm-3.24-1.55a.4.4,0,0,1,.38-.39h0a.4.4,0,0,1,.389.38h0a.388.388,0,0,1-.38.39h0A.388.388,0,0,1,131.594,52.948Zm3.67-.02v-.01h-.01a.388.388,0,0,1,.38-.39h0a.388.388,0,0,1,.389.38h0v.02h0a.382.382,0,0,1-.38.39h0A.381.381,0,0,1,135.264,52.928Zm-3.031-1.01a.382.382,0,0,1,0-.54h0a.38.38,0,0,1,.54,0h0a.378.378,0,0,1,0,.54h0a.384.384,0,0,1-.269.11h0A.405.405,0,0,1,132.233,51.918Zm2.59-.02h0a.392.392,0,0,1-.01-.54h0a.39.39,0,0,1,.54-.01h0a.379.379,0,0,1,.01.54h0a.355.355,0,0,1-.269.12h0A.407.407,0,0,1,134.823,51.9Zm-1.409-.79a.381.381,0,0,1,.38-.39h0a.38.38,0,0,1,.38.38h0a.38.38,0,0,1-.38.38h0A.371.371,0,0,1,133.414,51.108Z"/>
</svg>
