<svg id="a1db91ba-fa89-46fe-b723-d94a4427cf61" data-name="Layer 1" xmlns="http://www.w3.org/2000/svg" viewBox="0 0 262 180">
  <defs>
    <style>
      .fd8b1760-5571-4ebd-b09b-2986d023570a {
        fill: #fddbdb;
      }

      .f727e114-701b-430b-aff0-bf6be9638ce0 {
        fill: #fab6b6;
      }

      .af1eddd9-086b-4286-aac4-6fc52c716c42 {
        fill: #fff;
      }

      .b7e55b49-fcfe-44bf-8bdf-53506b998bff {
        fill: #e00;
      }
    </style>
  </defs>
  <g>
    <path class="fd8b1760-5571-4ebd-b09b-2986d023570a" d="M70.132,80.134a43.84,43.84,0,0,0,6.346,21.652c8.41,13.344,23.146,21.3,34.751,31.469,10.291,9.018,20.919,16.878,34.948,19.542,12.251,2.325,33.905.234,43.75-10.833,9.419-10.587,8.82-24.174,7.608-37.281-1.251-13.517,7.062-26.6,9.524-39.3,2.359-12.179.609-28.758-14.249-35.307-13.51-5.954-30.5-4.663-43.857,3.167C137.454,39.98,132.536,43.8,113.825,44.4c-12.364.4-27.2,1.689-35.336,12.34C73.069,63.842,69.814,70.834,70.132,80.134Z"/>
    <g>
      <path class="f727e114-701b-430b-aff0-bf6be9638ce0" d="M135.738,78.669A9.276,9.276,0,0,0,126.6,69.4,16.625,16.625,0,0,0,110.8,53.4a24.335,24.335,0,0,0-45.4,3.244c-.339-.021-.679-.036-1.023-.036A15.669,15.669,0,0,0,64.3,87.945v0h62.311v0A9.276,9.276,0,0,0,135.738,78.669Z"/>
      <path class="af1eddd9-086b-4286-aac4-6fc52c716c42" d="M71.142,54.551a.188.188,0,0,1-.175-.256c.051-.131,5.248-13.091,19.2-11.136a.187.187,0,0,1,.16.212.18.18,0,0,1-.212.16c-13.653-1.9-18.752,10.772-18.8,10.9A.188.188,0,0,1,71.142,54.551Z"/>
      <path class="af1eddd9-086b-4286-aac4-6fc52c716c42" d="M53,69.162a.186.186,0,0,1-.183-.228c1.889-8.691,10.99-9.17,11.082-9.174a.181.181,0,0,1,.195.18.187.187,0,0,1-.18.2c-.089,0-8.9.474-10.73,8.878A.188.188,0,0,1,53,69.162Z"/>
    </g>
    <path d="M65.388,77.071s-7.046,1.566-10.467,7.682A14.292,14.292,0,0,0,56.992,86.1S56.524,79.714,65.388,77.071Z"/>
    <g>
      <path d="M128.543,69.351l-3.026,26.7H151.1C148.114,83.915,140.861,72.18,128.543,69.351Z"/>
      <path class="f727e114-701b-430b-aff0-bf6be9638ce0" d="M192.81,51.22H130.6l-2.054,18.131c12.318,2.829,19.571,14.564,22.553,26.7H187.73Z"/>
      <g>
        <g>
          <polygon class="af1eddd9-086b-4286-aac4-6fc52c716c42" points="132.812 49.23 195.025 49.23 189.946 94.061 127.732 94.061 132.812 49.23"/>
          <path class="b7e55b49-fcfe-44bf-8bdf-53506b998bff" d="M190.113,94.248H127.522l.023-.209,5.1-45h62.592l-.024.209Zm-62.17-.376h61.834l5.037-44.454H132.98Z"/>
        </g>
        <polygon points="132.812 49.23 195.025 49.23 194.049 57.846 131.836 57.846 132.812 49.23"/>
        <path class="af1eddd9-086b-4286-aac4-6fc52c716c42" d="M159.052,53.765H136.645a.249.249,0,1,1,0-.5h22.407a.249.249,0,0,1,0,.5Z"/>
        <g>
          <ellipse class="af1eddd9-086b-4286-aac4-6fc52c716c42" cx="184.056" cy="53.517" rx="1.333" ry="1.19" transform="translate(13.525 141.037) rotate(-43.38)"/>
          <ellipse class="af1eddd9-086b-4286-aac4-6fc52c716c42" cx="189.038" cy="53.517" rx="1.333" ry="1.19" transform="translate(14.886 144.458) rotate(-43.38)"/>
        </g>
        <g>
          <polygon class="fd8b1760-5571-4ebd-b09b-2986d023570a" points="135.561 63.084 164.512 63.084 161.487 89.783 132.536 89.783 135.561 63.084"/>
          <polygon class="fd8b1760-5571-4ebd-b09b-2986d023570a" points="169.686 63.084 187.92 63.084 186.699 73.864 168.464 73.864 169.686 63.084"/>
          <polygon class="fd8b1760-5571-4ebd-b09b-2986d023570a" points="167.878 79.038 186.113 79.038 184.895 89.783 166.66 89.783 167.878 79.038"/>
          <polygon class="fd8b1760-5571-4ebd-b09b-2986d023570a" points="135.561 63.084 164.512 63.084 161.487 89.783 132.536 89.783 135.561 63.084"/>
          <polygon class="fd8b1760-5571-4ebd-b09b-2986d023570a" points="169.686 63.084 187.92 63.084 186.699 73.864 168.464 73.864 169.686 63.084"/>
          <polygon class="fd8b1760-5571-4ebd-b09b-2986d023570a" points="167.878 79.038 186.113 79.038 184.895 89.783 166.66 89.783 167.878 79.038"/>
          <g>
            <polygon class="af1eddd9-086b-4286-aac4-6fc52c716c42" points="136.669 62.089 165.62 62.089 162.595 88.788 133.643 88.788 136.669 62.089"/>
            <path class="b7e55b49-fcfe-44bf-8bdf-53506b998bff" d="M162.763,88.976h-29.33l.023-.209L136.5,61.9H165.83l-.023.209ZM133.854,88.6h28.573l2.983-26.323H136.837Z"/>
          </g>
          <g>
            <polygon class="af1eddd9-086b-4286-aac4-6fc52c716c42" points="170.793 62.089 189.028 62.089 187.465 76.098 169.23 76.098 170.793 62.089"/>
            <path class="b7e55b49-fcfe-44bf-8bdf-53506b998bff" d="M187.633,76.287H169.02l.023-.209L170.625,61.9h18.613Zm-18.193-.376H187.3l1.521-13.634H170.962Z"/>
          </g>
          <g>
            <polygon class="af1eddd9-086b-4286-aac4-6fc52c716c42" points="168.986 78.043 187.22 78.043 186.003 88.788 167.768 88.788 168.986 78.043"/>
            <path class="b7e55b49-fcfe-44bf-8bdf-53506b998bff" d="M186.171,88.976H167.557l1.261-11.121h18.613l-.024.209ZM167.978,88.6h17.857l1.175-10.369H169.154Z"/>
          </g>
        </g>
      </g>
    </g>
    <g>
      <g>
        <path class="af1eddd9-086b-4286-aac4-6fc52c716c42" d="M132.851,93.914s11.183-1.1,20.943-11.488,19.363-4.139,25.974-4.589S191.1,64.7,207.632,63.565c11.364-.778,22.43,6.047,22.61,17.7A18.492,18.492,0,0,1,211.672,99.9H164.5l-33.837.1Z"/>
        <path class="f727e114-701b-430b-aff0-bf6be9638ce0" d="M130.125,100.376l2.452-6.812.237-.024c.111-.011,11.164-1.214,20.706-11.372,7.269-7.737,14.535-6.408,20.372-5.341a24.974,24.974,0,0,0,5.851.635c2.435-.165,4.629-2.1,7.409-4.558,4.545-4.015,10.2-9.012,20.454-9.714,6.577-.455,13.108,1.661,17.448,5.652a16.853,16.853,0,0,1,5.564,12.422,18.465,18.465,0,0,1-5.369,13.328,18.917,18.917,0,0,1-13.577,5.684H164.5Zm3-6.118-1.93,5.364,33.3-.1h47.175a18.167,18.167,0,0,0,13.041-5.46,17.717,17.717,0,0,0,5.153-12.789A16.116,16.116,0,0,0,224.544,69.4c-4.19-3.853-10.5-5.893-16.887-5.456-10,.685-15.547,5.588-20.008,9.527-2.885,2.55-5.165,4.563-7.855,4.745a25.573,25.573,0,0,1-6.037-.645c-5.954-1.09-12.7-2.322-19.689,5.116A37.587,37.587,0,0,1,133.127,94.258Z"/>
      </g>
      <g>
        <path class="af1eddd9-086b-4286-aac4-6fc52c716c42" d="M156.942,83.685s4.2-5.464,12.7-3.939,8.6,1.84,11.906,1.42"/>
        <path class="b7e55b49-fcfe-44bf-8bdf-53506b998bff" d="M156.942,83.873a.192.192,0,0,1-.115-.039.189.189,0,0,1-.034-.264,11.079,11.079,0,0,1,3.22-2.591,14.318,14.318,0,0,1,9.661-1.418c1.88.338,3.349.616,4.532.84,4.134.783,4.77.9,7.318.579a.188.188,0,0,1,.047.373c-2.608.33-3.252.208-7.434-.583-1.183-.224-2.651-.5-4.529-.838a13.961,13.961,0,0,0-9.4,1.367,10.907,10.907,0,0,0-3.12,2.5A.188.188,0,0,1,156.942,83.873Z"/>
      </g>
      <g>
        <path class="af1eddd9-086b-4286-aac4-6fc52c716c42" d="M206.561,67.472s10.914-1.966,17.736,6.7"/>
        <path class="b7e55b49-fcfe-44bf-8bdf-53506b998bff" d="M224.3,74.362a.188.188,0,0,1-.148-.072c-6.672-8.476-17.447-6.653-17.555-6.633a.191.191,0,0,1-.218-.152.187.187,0,0,1,.151-.218c.11-.02,11.106-1.886,17.917,6.771a.187.187,0,0,1-.147.3Z"/>
      </g>
    </g>
    <g>
      <polygon points="181.648 76.46 100.445 76.46 99.049 87.777 180.219 87.777 181.648 76.46"/>
      <polygon class="f727e114-701b-430b-aff0-bf6be9638ce0" points="99.049 87.777 93.55 132.341 174.592 132.341 180.219 87.777 99.049 87.777"/>
      <g>
        <g>
          <polygon class="af1eddd9-086b-4286-aac4-6fc52c716c42" points="103.366 73.863 184.568 73.863 177.278 132.376 96.076 132.376 103.366 73.863"/>
          <path class="b7e55b49-fcfe-44bf-8bdf-53506b998bff" d="M177.444,132.564H95.863L103.2,73.675h81.581Zm-81.155-.376h80.823l7.243-58.137H103.532Z"/>
        </g>
        <polygon class="b7e55b49-fcfe-44bf-8bdf-53506b998bff" points="103.366 73.863 184.568 73.863 183.167 85.108 101.965 85.108 103.366 73.863"/>
        <path class="af1eddd9-086b-4286-aac4-6fc52c716c42" d="M137.551,79.782H108.305a.325.325,0,0,1,0-.65h29.246a.325.325,0,1,1,0,.65Z"/>
        <g>
          <ellipse class="af1eddd9-086b-4286-aac4-6fc52c716c42" cx="170.188" cy="79.457" rx="1.75" ry="1.545" transform="translate(-8.246 138.097) rotate(-43.219)"/>
          <ellipse class="af1eddd9-086b-4286-aac4-6fc52c716c42" cx="176.691" cy="79.457" rx="1.75" ry="1.545" transform="translate(-6.482 142.55) rotate(-43.219)"/>
        </g>
        <g>
          <polygon class="fd8b1760-5571-4ebd-b09b-2986d023570a" points="106.75 91.945 144.538 91.945 140.196 126.792 102.409 126.792 106.75 91.945"/>
          <polygon class="fd8b1760-5571-4ebd-b09b-2986d023570a" points="151.29 91.945 175.091 91.945 173.338 106.015 149.537 106.015 151.29 91.945"/>
          <polygon class="fd8b1760-5571-4ebd-b09b-2986d023570a" points="148.696 112.768 172.496 112.768 170.749 126.792 146.949 126.792 148.696 112.768"/>
          <polygon points="106.75 91.945 144.538 91.945 140.196 126.792 102.409 126.792 106.75 91.945"/>
          <polygon points="151.29 91.945 175.091 91.945 173.338 106.015 149.537 106.015 151.29 91.945"/>
          <polygon points="148.696 112.768 172.496 112.768 170.749 126.792 146.949 126.792 148.696 112.768"/>
          <g>
            <polygon class="af1eddd9-086b-4286-aac4-6fc52c716c42" points="108.211 90.646 145.998 90.646 141.657 125.494 103.869 125.494 108.211 90.646"/>
            <path class="b7e55b49-fcfe-44bf-8bdf-53506b998bff" d="M141.823,125.682H103.656l4.389-35.224h38.166Zm-37.741-.376h37.409l4.294-34.472H108.377Z"/>
          </g>
          <g>
            <polygon class="af1eddd9-086b-4286-aac4-6fc52c716c42" points="152.751 90.646 176.551 90.646 174.798 104.717 150.998 104.717 152.751 90.646"/>
            <path class="b7e55b49-fcfe-44bf-8bdf-53506b998bff" d="M174.964,104.905H150.785l1.8-14.447h24.179Zm-23.753-.376h23.421l1.706-13.695H152.917Z"/>
          </g>
          <g>
            <polygon class="af1eddd9-086b-4286-aac4-6fc52c716c42" points="150.156 111.469 173.957 111.469 172.21 125.494 148.409 125.494 150.156 111.469"/>
            <path class="b7e55b49-fcfe-44bf-8bdf-53506b998bff" d="M172.376,125.682H148.2l1.8-14.4H174.17Zm-23.754-.376h23.422l1.7-13.649H150.323Z"/>
          </g>
        </g>
      </g>
    </g>
    <g>
      <g>
        <path class="af1eddd9-086b-4286-aac4-6fc52c716c42" d="M78.8,80.254c-4.183-3.641-9.047-5.209-15.14-2.523C49.269,84.073,63.313,104.913,52.819,101c-9.528-3.55-21.065,5.25-21.063,17.987,0,.156,0,.31.006.463a13.518,13.518,0,0,0,13.566,13.078l125.572.044s-15.57,2.183-30.019-12.764-26.452-5.356-36-7.6c-9.866-2.317-16-23.174-26.088-31.959"/>
        <path class="f727e114-701b-430b-aff0-bf6be9638ce0" d="M168.694,133.065c-.715,0-1.584-.028-2.583-.116l-120.783-.042a13.959,13.959,0,0,1-13.942-13.445c0-.155-.006-.313-.006-.471a19.7,19.7,0,0,1,8.254-16.269,14.391,14.391,0,0,1,13.317-2.071c1.47.548,2.456.608,3.015.185,1-.756.8-3.212.559-6.054-.484-5.83-1.146-13.813,6.979-17.395,5.616-2.477,10.7-1.631,15.539,2.583h0c4.384,3.816,8,9.848,11.507,15.682,4.6,7.668,8.95,14.91,14.42,16.195,2.944.692,6.192.222,9.631-.275,7.746-1.121,16.527-2.391,26.551,7.978,9.513,9.842,19.587,12.179,25.215,12.647l4.533,0,.052.748A17.751,17.751,0,0,1,168.694,133.065ZM48.384,100.586a14.633,14.633,0,0,0-8.321,2.753,18.947,18.947,0,0,0-7.931,15.652c0,.151,0,.3.006.452a13.2,13.2,0,0,0,13.19,12.712l116.03.04-.134-.031a41.911,41.911,0,0,1-20.613-12.091c-9.756-10.093-18.335-8.851-25.9-7.757-3.512.508-6.83.988-9.911.264-5.779-1.358-10.206-8.733-14.893-16.541-3.472-5.784-7.061-11.764-11.356-15.5h0c-4.6-4-9.422-4.808-14.742-2.462-7.634,3.365-7,11.04-6.532,16.644.264,3.19.473,5.71-.855,6.716-.79.6-1.976.574-3.732-.08A12.293,12.293,0,0,0,48.384,100.586Z"/>
      </g>
      <g>
        <path class="af1eddd9-086b-4286-aac4-6fc52c716c42" d="M100.276,113.494s6.568,3.453,13.622,1.833,8.341-1.9,12.867-.7"/>
        <path class="b7e55b49-fcfe-44bf-8bdf-53506b998bff" d="M110.005,115.978a23.614,23.614,0,0,1-9.833-2.286.225.225,0,0,1-.094-.3.228.228,0,0,1,.3-.094c.064.034,6.58,3.395,13.468,1.814,6.924-1.591,8.364-1.921,12.974-.7a.223.223,0,1,1-.114.432c-4.5-1.194-5.763-.9-12.76.7A17.632,17.632,0,0,1,110.005,115.978Z"/>
      </g>
      <g>
        <path class="af1eddd9-086b-4286-aac4-6fc52c716c42" d="M81.124,87.642s-6.352-9.067-12.7-8.038-7.473,7.352-7.473,7.352"/>
        <path class="b7e55b49-fcfe-44bf-8bdf-53506b998bff" d="M81.124,87.866a.225.225,0,0,1-.183-.1c-.062-.088-6.351-8.94-12.486-7.946-6.117.991-7.278,7.109-7.29,7.171a.228.228,0,0,1-.258.18.222.222,0,0,1-.181-.259c.011-.064,1.223-6.49,7.658-7.532,6.412-1.045,12.66,7.756,12.922,8.131a.222.222,0,0,1-.054.31A.226.226,0,0,1,81.124,87.866Z"/>
      </g>
      <g>
        <path class="af1eddd9-086b-4286-aac4-6fc52c716c42" d="M48.746,103.673s-8.987-.016-11.6,8.713"/>
        <path class="b7e55b49-fcfe-44bf-8bdf-53506b998bff" d="M37.143,112.609a.235.235,0,0,1-.064-.009.224.224,0,0,1-.15-.278c2.631-8.778,11.709-8.872,11.816-8.872h0a.223.223,0,1,1,0,.446h0c-.093,0-8.853.094-11.388,8.554A.225.225,0,0,1,37.143,112.609Z"/>
      </g>
    </g>
    <path d="M127.652,58.538H107.533a.282.282,0,0,1,0-.564h20.119a.282.282,0,1,1,0,.564Z"/>
    <path d="M116.276,62.393H96.157a.282.282,0,0,1,0-.564h20.119a.282.282,0,0,1,0,.564Z"/>
    <path d="M126.43,66.342H106.311a.283.283,0,0,1,0-.565H126.43a.283.283,0,0,1,0,.565Z"/>
    <path d="M89.388,90.41H69.268a.283.283,0,0,1,0-.565h20.12a.283.283,0,0,1,0,.565Z"/>
    <path d="M95.405,94.17h-20.5a.282.282,0,1,1,0-.564h20.5a.282.282,0,1,1,0,.564Z"/>
    <path d="M71.713,94.17H66.072a.282.282,0,1,1,0-.564h5.641a.282.282,0,1,1,0,.564Z"/>
    <path d="M89.2,98.5H72.277a.282.282,0,1,1,0-.564H89.2a.282.282,0,0,1,0,.564Z"/>
    <path class="f727e114-701b-430b-aff0-bf6be9638ce0" d="M151.535,132.6a11.817,11.817,0,0,0,11.514,9.171c.257,0,.512-.011.765-.028h24.424c1.832-3.023,3.573-6.05,5.222-9.143Z"/>
    <path class="f727e114-701b-430b-aff0-bf6be9638ce0" d="M193.46,132.6c-1.649,3.093-3.39,6.12-5.222,9.143h10.3v-.027a11.138,11.138,0,0,0,10.207-9.116Z"/>
    <path class="b7e55b49-fcfe-44bf-8bdf-53506b998bff" d="M208.929,130.608a11.132,11.132,0,0,0-14.089-10.735,17.293,17.293,0,0,0-32.789-1.687A11.81,11.81,0,0,0,151.535,132.6h57.213A11.161,11.161,0,0,0,208.929,130.608Z"/>
    <g>
      <path class="af1eddd9-086b-4286-aac4-6fc52c716c42" d="M211.11,129.828a11.135,11.135,0,0,0-14.089-10.735,17.293,17.293,0,0,0-32.789-1.686,11.813,11.813,0,0,0,1,23.583c.257,0,.511-.011.765-.027h34.726v-.028A11.132,11.132,0,0,0,211.11,129.828Z"/>
      <path class="b7e55b49-fcfe-44bf-8bdf-53506b998bff" d="M165.23,141.178a12,12,0,0,1-1.13-23.948,17.481,17.481,0,0,1,33.052,1.634,11.321,11.321,0,1,1,3.758,22.246v.013l-.188.028H165.994C165.749,141.167,165.491,141.178,165.23,141.178Zm15.118-34.6a17,17,0,0,0-15.94,10.9l-.043.109-.117.01a11.624,11.624,0,0,0,.982,23.207c.253,0,.5-.011.753-.027h34.6l.121-.027a10.945,10.945,0,1,0-3.638-21.474l-.182.05-.049-.181A17.139,17.139,0,0,0,180.348,106.575Z"/>
    </g>
    <path class="fd8b1760-5571-4ebd-b09b-2986d023570a" d="M180.3,106.392s-14.1,1.316-9.213,14.291a8,8,0,0,0-6.581-3.2S166.763,107.52,180.3,106.392Z"/>
    <path class="fd8b1760-5571-4ebd-b09b-2986d023570a" d="M156.609,121.059c-3.2,3.008-2.632,16.735,8.462,16.735h37.784a8.78,8.78,0,0,0,7.513-4.147c.057-.094.114-.19.169-.286,0,0-2.407,7.629-10.492,7.629s-35.918-.051-35.918-.051-3.671.509-8.227-4.515S153.977,122.939,156.609,121.059Z"/>
    <path class="fd8b1760-5571-4ebd-b09b-2986d023570a" d="M197.036,119.178a10.778,10.778,0,0,0-6.205,7.334s4.889-9.214,14.855-6.2C205.686,120.307,200.8,117.862,197.036,119.178Z"/>
    <path class="b7e55b49-fcfe-44bf-8bdf-53506b998bff" d="M165.23,141.178a12,12,0,0,1-1.13-23.948,17.481,17.481,0,0,1,33.052,1.634,11.321,11.321,0,1,1,3.758,22.246v.013l-.188.028H165.994C165.749,141.167,165.491,141.178,165.23,141.178Zm15.118-34.6a17,17,0,0,0-15.94,10.9l-.043.109-.117.01a11.624,11.624,0,0,0,.982,23.207c.253,0,.5-.011.753-.027h34.6l.121-.027a10.945,10.945,0,1,0-3.638-21.474l-.182.05-.049-.181A17.139,17.139,0,0,0,180.348,106.575Z"/>
  </g>
</svg>
