<svg xmlns="http://www.w3.org/2000/svg" xmlns:xlink="http://www.w3.org/1999/xlink" viewBox="0 0 262 180">
  <defs>
    <style>
      .b7a332ce-7ef9-49a5-8c52-d8adca9ed943 {
        fill: none;
      }

      .f8dac0f2-243f-4d38-9da1-d202ff0f6c53 {
        isolation: isolate;
      }

      .b0848fdd-b0cc-451d-80f4-058d1b251cc2 {
        fill: #fddbdb;
      }

      .ea2bafd8-262d-4880-9dfd-3708cfe04cc1 {
        fill: #fab6b6;
      }

      .a36b3d44-7990-4416-941d-f001879237ed {
        fill: #fff;
      }

      .b4ca904f-893e-4110-8ff5-669a358bed0c {
        fill: #e00;
      }

      .b8a8eed5-3b26-40a1-a18f-e9c767b163f1 {
        mix-blend-mode: multiply;
      }

      .ad21132e-d76e-4937-9cd0-d102d982b52f {
        clip-path: url(#e54b2dae-5962-41a9-afc6-9ab3c956b96b);
      }

      .b5275beb-09ec-4c08-a363-26ae4ef98be3 {
        clip-path: url(#ab1079c4-1e60-45cc-93e8-67983aa21aea);
      }

      .a6236702-49da-4521-8dac-a0f4a99c8950 {
        clip-path: url(#a3ccebe9-2f95-451b-883d-3d0988d3caea);
      }

      .f4689fde-bca9-4216-b8c3-7f43c6c1604e {
        clip-path: url(#fc57a44f-c476-47cc-b4ee-49b351908915);
      }

      .b0ac5244-7cd3-4e72-95c3-c1541c17060c {
        clip-path: url(#b21a082a-fc10-45cd-b387-bfd3537b5f2f);
      }

      .bad63c84-dc08-45f6-bcb3-1a50e03c62e3 {
        clip-path: url(#acb16253-3270-44b2-82ea-891b64a71efb);
      }

      .ac762db6-43e7-44df-8559-47ffb5513168 {
        clip-path: url(#a0f7aed2-42fd-4461-9664-b60f5a57bbf8);
      }

      .e400d4b8-d5f8-435b-a942-1315a537815a {
        clip-path: url(#a22228d2-5476-44c6-8997-caf65a95b991);
      }
    </style>
    <clipPath id="e54b2dae-5962-41a9-afc6-9ab3c956b96b">
      <path class="b7a332ce-7ef9-49a5-8c52-d8adca9ed943" d="M186.65,103.483a3.808,3.808,0,0,1,1.617.367c1.23-3.5,3.663-5.891,6.464-5.891,3.117,0,5.777,2.953,6.832,7.113,1.992.1,3.687,1.974,4.419,4.614a2.394,2.394,0,0,1,.871-.165c1.935,0,3.5,2.376,3.5,5.308s-1.568,5.309-3.5,5.309h-20.2c-3.035,0-5.5-3.728-5.5-8.327S183.615,103.483,186.65,103.483Z"/>
    </clipPath>
    <clipPath id="ab1079c4-1e60-45cc-93e8-67983aa21aea">
      <path class="b7a332ce-7ef9-49a5-8c52-d8adca9ed943" d="M189.952,75.136h17.389c1.665,0,3.015-2.046,3.015-4.57S209.006,66,207.341,66a2.065,2.065,0,0,0-.75.143c-.63-2.273-2.089-3.886-3.8-3.972-.909-3.58-3.2-6.123-5.881-6.123-2.411,0-4.505,2.055-5.564,5.071a3.274,3.274,0,0,0-1.391-.316c-2.613,0-4.73,3.21-4.73,7.168S187.339,75.136,189.952,75.136Zm-18.4,5.052a4.752,4.752,0,0,0-2.014.457c-1.532-4.365-4.563-7.339-8.053-7.339-3.882,0-7.2,3.68-8.51,8.861-2.481.126-4.593,2.459-5.5,5.748a3,3,0,0,0-1.085-.206c-2.41,0-4.364,2.96-4.364,6.612s1.954,6.613,4.364,6.613h25.166c3.78,0,6.845-4.644,6.845-10.373S175.331,80.188,171.551,80.188Zm35.3,29.333a2.394,2.394,0,0,0-.871.165c-.732-2.64-2.427-4.513-4.419-4.614-1.055-4.16-3.715-7.113-6.832-7.113-2.8,0-5.234,2.387-6.464,5.891a3.808,3.808,0,0,0-1.617-.367c-3.035,0-5.5,3.729-5.5,8.328s2.46,8.327,5.5,8.327h20.2c1.935,0,3.5-2.377,3.5-5.309S208.788,109.521,206.853,109.521Z"/>
    </clipPath>
    <clipPath id="a3ccebe9-2f95-451b-883d-3d0988d3caea">
      <polygon class="b7a332ce-7ef9-49a5-8c52-d8adca9ed943" points="208.982 83.798 208.982 87.276 210.97 89.016 212.958 87.276 212.958 83.798 210.97 82.058 208.982 83.798"/>
    </clipPath>
    <clipPath id="fc57a44f-c476-47cc-b4ee-49b351908915">
      <polygon class="b7a332ce-7ef9-49a5-8c52-d8adca9ed943" points="155.395 100.223 155.395 107.515 151.228 111.161 147.06 107.515 147.06 100.223 151.228 96.577 155.395 100.223"/>
    </clipPath>
    <clipPath id="b21a082a-fc10-45cd-b387-bfd3537b5f2f">
      <polygon class="b7a332ce-7ef9-49a5-8c52-d8adca9ed943" points="167.467 120.606 167.467 124.085 169.455 125.824 171.444 124.085 171.444 120.606 169.455 118.867 167.467 120.606"/>
    </clipPath>
    <clipPath id="acb16253-3270-44b2-82ea-891b64a71efb">
      <polygon class="b7a332ce-7ef9-49a5-8c52-d8adca9ed943" points="199.7 131.623 199.7 139.764 195.048 143.834 190.395 139.764 190.395 131.623 195.048 127.552 199.7 131.623"/>
    </clipPath>
    <clipPath id="a0f7aed2-42fd-4461-9664-b60f5a57bbf8">
      <polygon class="b7a332ce-7ef9-49a5-8c52-d8adca9ed943" points="185.646 38.712 185.646 48.096 180.282 52.789 174.919 48.096 174.919 38.712 180.282 34.019 185.646 38.712"/>
    </clipPath>
    <clipPath id="a22228d2-5476-44c6-8997-caf65a95b991">
      <polygon class="b7a332ce-7ef9-49a5-8c52-d8adca9ed943" points="159.996 49.96 159.996 53.16 161.824 54.76 163.653 53.16 163.653 49.96 161.824 48.36 159.996 49.96"/>
    </clipPath>
  </defs>
  <g class="f8dac0f2-243f-4d38-9da1-d202ff0f6c53">
    <g id="e2a88538-38b8-46b2-b2ab-a7c7cda2b2c9" data-name="Layer 1">
      <g>
        <g>
          <path class="b0848fdd-b0cc-451d-80f4-058d1b251cc2" d="M69.47,80.78a57.752,57.752,0,0,0,4.5,21.652c5.959,13.344,16.4,21.3,24.623,31.469,7.292,9.018,14.823,16.879,24.763,19.542,8.681,2.326,24.024.234,31-10.832,6.674-10.588,6.25-24.175,5.391-37.282-.886-13.516,5-26.6,6.748-39.3,1.672-12.18.432-28.759-10.1-35.307-9.573-5.955-21.608-4.663-31.076,3.166-8.147,6.738-11.632,10.558-24.89,11.161-8.761.4-19.277,1.689-25.039,12.34C71.551,64.489,69.245,71.48,69.47,80.78Z"/>
          <g>
            <path class="ea2bafd8-262d-4880-9dfd-3708cfe04cc1" d="M115.956,79.315c0-5.076-2.889-9.2-6.473-9.274-.221-8.63-5.1-15.582-11.2-15.994-2.736-8.332-8.713-14.112-15.648-14.112-7.8,0-14.395,7.318-16.519,17.356-.24-.022-.481-.037-.725-.037-6.132,0-11.1,7.015-11.1,15.669,0,8.63,4.944,15.629,11.052,15.668v0h44.151v0C113.072,88.506,115.956,84.387,115.956,79.315Z"/>
            <path class="a36b3d44-7990-4416-941d-f001879237ed" d="M70.186,55.168a.209.209,0,0,1-.042-.005.159.159,0,0,1-.11-.195c.035-.132,3.718-13.094,13.647-11.132a.158.158,0,0,1-.06.311c-9.637-1.9-13.246,10.777-13.282,10.905A.159.159,0,0,1,70.186,55.168Z"/>
            <path class="a36b3d44-7990-4416-941d-f001879237ed" d="M57.334,69.778l-.025,0a.156.156,0,0,1-.131-.18c.7-4.525,2.794-6.774,4.431-7.864a7.6,7.6,0,0,1,3.443-1.3h.009a.159.159,0,0,1,.01.317,7.426,7.426,0,0,0-3.3,1.252c-1.578,1.056-3.6,3.238-4.28,7.639A.157.157,0,0,1,57.334,69.778Z"/>
          </g>
          <path d="M66.108,77.717A13.076,13.076,0,0,0,58.692,85.4a10.77,10.77,0,0,0,1.467,1.344A9.643,9.643,0,0,1,66.108,77.717Z"/>
          <g>
            <path d="M110.858,70l-2.144,26.7h18.125C124.725,84.561,119.586,72.826,110.858,70Z"/>
            <path class="ea2bafd8-262d-4880-9dfd-3708cfe04cc1" d="M156.4,51.866H112.314L110.858,70c8.728,2.829,13.867,14.564,15.981,26.7H152.8Z"/>
            <g>
              <g>
                <polygon class="a36b3d44-7990-4416-941d-f001879237ed" points="113.883 49.877 157.966 49.877 154.366 94.707 110.284 94.707 113.883 49.877"/>
                <path class="b4ca904f-893e-4110-8ff5-669a358bed0c" d="M154.513,94.865h-44.4l3.625-45.146h44.4Zm-44.057-.316H154.22l3.574-44.514H114.03Z"/>
              </g>
              <polygon points="113.883 49.877 157.966 49.877 157.274 58.493 113.192 58.493 113.883 49.877"/>
              <path class="a36b3d44-7990-4416-941d-f001879237ed" d="M132.475,54.372H116.6a.209.209,0,1,1,0-.418h15.876a.209.209,0,1,1,0,.418Z"/>
              <g>
                <ellipse class="a36b3d44-7990-4416-941d-f001879237ed" cx="150.193" cy="54.163" rx="1.268" ry="0.887" transform="translate(73.088 193.971) rotate(-80.953)"/>
                <ellipse class="a36b3d44-7990-4416-941d-f001879237ed" cx="153.723" cy="54.163" rx="1.268" ry="0.887" transform="translate(76.063 197.458) rotate(-80.953)"/>
              </g>
              <g>
                <polygon class="b0848fdd-b0cc-451d-80f4-058d1b251cc2" points="115.831 63.73 136.345 63.73 134.201 90.429 113.688 90.429 115.831 63.73"/>
                <polygon class="b0848fdd-b0cc-451d-80f4-058d1b251cc2" points="140.011 63.73 152.931 63.73 152.066 74.51 139.145 74.51 140.011 63.73"/>
                <polygon class="b0848fdd-b0cc-451d-80f4-058d1b251cc2" points="138.73 79.684 151.65 79.684 150.788 90.429 137.867 90.429 138.73 79.684"/>
                <polygon class="b0848fdd-b0cc-451d-80f4-058d1b251cc2" points="115.831 63.73 136.345 63.73 134.201 90.429 113.688 90.429 115.831 63.73"/>
                <polygon class="b0848fdd-b0cc-451d-80f4-058d1b251cc2" points="140.011 63.73 152.931 63.73 152.066 74.51 139.145 74.51 140.011 63.73"/>
                <polygon class="b0848fdd-b0cc-451d-80f4-058d1b251cc2" points="138.73 79.684 151.65 79.684 150.788 90.429 137.867 90.429 138.73 79.684"/>
                <g>
                  <polygon class="a36b3d44-7990-4416-941d-f001879237ed" points="116.616 62.735 137.13 62.735 134.986 89.434 114.472 89.434 116.616 62.735"/>
                  <path class="b4ca904f-893e-4110-8ff5-669a358bed0c" d="M135.133,89.592H114.3l2.169-27.015H137.3Zm-20.489-.316h20.2l2.118-26.383H116.763Z"/>
                </g>
                <g>
                  <polygon class="a36b3d44-7990-4416-941d-f001879237ed" points="140.796 62.735 153.716 62.735 152.609 76.745 139.688 76.745 140.796 62.735"/>
                  <path class="b4ca904f-893e-4110-8ff5-669a358bed0c" d="M152.755,76.9H139.517l.013-.171,1.119-14.155h13.239l-.013.171Zm-12.9-.317h12.6l1.084-13.693h-12.6Z"/>
                </g>
                <g>
                  <polygon class="a36b3d44-7990-4416-941d-f001879237ed" points="139.515 78.689 152.435 78.689 151.573 89.434 138.652 89.434 139.515 78.689"/>
                  <path class="b4ca904f-893e-4110-8ff5-669a358bed0c" d="M151.72,89.592H138.48l.888-11.061h13.239Zm-12.9-.316h12.6l.837-10.429h-12.6Z"/>
                </g>
              </g>
            </g>
          </g>
          <g>
            <g>
              <path class="a36b3d44-7990-4416-941d-f001879237ed" d="M113.911,94.561s7.924-1.1,14.839-11.489,13.72-4.139,18.405-4.588,8.031-13.14,19.743-14.272c8.053-.779,15.894,6.047,16.021,17.7.112,10.278-5.875,18.63-13.158,18.63H136.335l-23.976.1Z"/>
              <path class="ea2bafd8-262d-4880-9dfd-3708cfe04cc1" d="M111.951,100.964l1.706-6.687.21-.03c.078-.011,7.874-1.216,14.619-11.35,5.177-7.777,10.368-6.435,14.536-5.36a12.831,12.831,0,0,0,4.1.632c1.682-.162,3.23-2.091,5.191-4.535,3.058-3.811,7.245-9.031,14.552-9.737a13.622,13.622,0,0,1,10.49,3.562c3.725,3.346,5.813,8.478,5.877,14.453.067,6.045-2.007,11.79-5.544,15.366a11.108,11.108,0,0,1-7.93,3.584H136.336Zm2.216-6.126-1.4,5.489,23.568-.1h33.426a10.492,10.492,0,0,0,7.48-3.4c3.421-3.459,5.426-9.034,5.361-14.914-.063-5.8-2.076-10.763-5.667-13.988a13,13,0,0,0-10.006-3.4c-7.04.68-10.965,5.573-14.12,9.5-2.053,2.56-3.675,4.582-5.624,4.769a13.245,13.245,0,0,1-4.321-.649c-4.184-1.082-8.926-2.3-13.85,5.1C122.642,92.82,115.507,94.584,114.167,94.838Z"/>
            </g>
            <g>
              <path class="a36b3d44-7990-4416-941d-f001879237ed" d="M130.981,84.331s2.975-5.463,9-3.938,6.091,1.839,8.437,1.42"/>
              <path class="b4ca904f-893e-4110-8ff5-669a358bed0c" d="M130.981,84.49a.178.178,0,0,1-.076-.019.159.159,0,0,1-.062-.215c.03-.056,3.1-5.553,9.175-4.017,1.332.337,2.373.615,3.212.84,2.916.778,3.365.9,5.158.578a.155.155,0,0,1,.184.128.158.158,0,0,1-.128.183c-1.867.333-2.322.211-5.3-.584-.838-.223-1.877-.5-3.208-.838-5.837-1.476-8.79,3.807-8.82,3.861A.157.157,0,0,1,130.981,84.49Z"/>
            </g>
            <g>
              <path class="a36b3d44-7990-4416-941d-f001879237ed" d="M166.139,68.118s7.734-1.966,12.568,6.7"/>
              <path class="b4ca904f-893e-4110-8ff5-669a358bed0c" d="M178.707,74.978a.158.158,0,0,1-.139-.081c-4.721-8.464-12.312-6.646-12.389-6.626a.159.159,0,0,1-.079-.307c.081-.02,7.909-1.893,12.746,6.779a.159.159,0,0,1-.062.215A.153.153,0,0,1,178.707,74.978Z"/>
            </g>
          </g>
          <g>
            <polygon points="148.487 77.106 90.949 77.106 89.96 88.423 147.474 88.423 148.487 77.106"/>
            <polygon class="ea2bafd8-262d-4880-9dfd-3708cfe04cc1" points="89.96 88.423 86.064 132.987 143.488 132.987 147.474 88.423 89.96 88.423"/>
            <g>
              <g>
                <polygon class="a36b3d44-7990-4416-941d-f001879237ed" points="93.019 74.509 150.556 74.509 145.391 133.022 87.853 133.022 93.019 74.509"/>
                <path class="b4ca904f-893e-4110-8ff5-669a358bed0c" d="M145.535,133.181H87.681l.015-.172,5.178-58.658h57.855l-.015.171Zm-57.509-.317h57.22l5.138-58.2H93.163Z"/>
              </g>
              <polygon class="b4ca904f-893e-4110-8ff5-669a358bed0c" points="93.019 74.509 150.556 74.509 149.563 85.755 92.026 85.755 93.019 74.509"/>
              <path class="a36b3d44-7990-4416-941d-f001879237ed" d="M117.241,80.377H96.518a.274.274,0,0,1,0-.547h20.723a.274.274,0,0,1,0,.547Z"/>
              <g>
                <ellipse class="a36b3d44-7990-4416-941d-f001879237ed" cx="140.367" cy="80.103" rx="1.657" ry="1.156" transform="translate(37.312 204.599) rotate(-80.095)"/>
                <ellipse class="a36b3d44-7990-4416-941d-f001879237ed" cx="144.974" cy="80.103" rx="1.657" ry="1.156" transform="translate(41.127 209.138) rotate(-80.095)"/>
              </g>
              <g>
                <polygon class="b0848fdd-b0cc-451d-80f4-058d1b251cc2" points="95.417 92.591 122.192 92.591 119.116 127.438 92.34 127.438 95.417 92.591"/>
                <polygon class="b0848fdd-b0cc-451d-80f4-058d1b251cc2" points="126.976 92.591 143.841 92.591 142.599 106.662 125.734 106.662 126.976 92.591"/>
                <polygon class="b0848fdd-b0cc-451d-80f4-058d1b251cc2" points="125.138 113.414 142.002 113.414 140.764 127.438 123.9 127.438 125.138 113.414"/>
                <polygon points="95.417 92.591 122.192 92.591 119.116 127.438 92.34 127.438 95.417 92.591"/>
                <polygon points="126.976 92.591 143.841 92.591 142.599 106.662 125.734 106.662 126.976 92.591"/>
                <polygon points="125.138 113.414 142.002 113.414 140.764 127.438 123.9 127.438 125.138 113.414"/>
                <g>
                  <polygon class="a36b3d44-7990-4416-941d-f001879237ed" points="96.451 91.292 123.227 91.292 120.15 126.14 93.375 126.14 96.451 91.292"/>
                  <path class="b4ca904f-893e-4110-8ff5-669a358bed0c" d="M120.3,126.3H93.2l.016-.172,3.088-34.992H123.4l-.015.173Zm-26.747-.316h26.458l3.048-34.531H96.6Z"/>
                </g>
                <g>
                  <polygon class="a36b3d44-7990-4416-941d-f001879237ed" points="128.011 91.292 144.875 91.292 143.633 105.363 126.769 105.363 128.011 91.292"/>
                  <path class="b4ca904f-893e-4110-8ff5-669a358bed0c" d="M143.778,105.521H126.6l.015-.172,1.255-14.215h17.182l-.016.173Zm-16.836-.316h16.547L144.7,91.451H128.156Z"/>
                </g>
                <g>
                  <polygon class="a36b3d44-7990-4416-941d-f001879237ed" points="126.173 112.115 143.037 112.115 141.799 126.14 124.935 126.14 126.173 112.115"/>
                  <path class="b4ca904f-893e-4110-8ff5-669a358bed0c" d="M141.943,126.3h-17.18l.015-.172,1.25-14.169H143.21l-.016.173Zm-16.835-.316h16.546l1.21-13.708H126.317Z"/>
                </g>
              </g>
            </g>
          </g>
          <g>
            <g>
              <path class="a36b3d44-7990-4416-941d-f001879237ed" d="M75.609,80.9c-2.964-3.641-6.41-5.208-10.728-2.522-10.194,6.342-.243,27.181-7.678,23.271-6.752-3.549-14.926,5.25-14.925,17.988,0,.155,0,.309,0,.462.128,7.3,4.438,13.076,9.613,13.079l88.976.043s-11.032,2.184-21.27-12.763-18.744-5.356-25.506-7.6C87.1,110.542,82.761,89.685,75.609,80.9"/>
              <path class="ea2bafd8-262d-4880-9dfd-3708cfe04cc1" d="M139.413,133.635a15.467,15.467,0,0,1-1.715-.1l-85.8-.042c-5.345,0-9.8-6.009-9.928-13.389,0-.155,0-.311,0-.468,0-7.806,3.2-14.984,7.965-17.862a7.327,7.327,0,0,1,7.423-.406c.863.454,1.49.563,1.863.324.9-.581.745-3.221.565-6.277-.341-5.8-.806-13.734,4.937-17.307,4.034-2.509,7.678-1.662,11.139,2.591h0c3.1,3.812,5.666,9.838,8.146,15.667,3.263,7.671,6.345,14.916,10.194,16.192,2.055.682,4.34.215,6.76-.279,5.523-1.127,11.783-2.405,18.908,8,6.74,9.84,13.874,12.161,17.834,12.624h3.175l.061.627A9.042,9.042,0,0,1,139.413,133.635ZM54.062,101.168a7.347,7.347,0,0,0-3.808,1.149c-3.813,2.3-7.66,8.552-7.659,17.32,0,.153,0,.3,0,.457.124,7.037,4.294,12.765,9.3,12.767l82.693.04c-4.178-1.226-9.852-4.388-15.246-12.265-6.889-10.056-12.93-8.823-18.26-7.736-2.505.512-4.87.994-7.086.26-4.121-1.366-7.258-8.739-10.577-16.545C80.956,90.827,78.41,84.842,75.364,81.1h0c-3.271-4.018-6.549-4.8-10.315-2.454-5.424,3.375-4.97,11.1-4.639,16.732.207,3.522.357,6.066-.854,6.847-.586.379-1.4.28-2.5-.295A6.379,6.379,0,0,0,54.062,101.168Z"/>
            </g>
            <g>
              <path class="a36b3d44-7990-4416-941d-f001879237ed" d="M90.829,114.14s4.654,3.453,9.652,1.834,5.911-1.9,9.117-.7"/>
              <path class="b4ca904f-893e-4110-8ff5-669a358bed0c" d="M97.723,116.589a13.188,13.188,0,0,1-7.006-2.3.188.188,0,0,1,.224-.3c.046.034,4.637,3.375,9.483,1.806,4.925-1.6,5.951-1.927,9.24-.7a.188.188,0,0,1-.131.352c-3.168-1.183-4.057-.9-8.994.7A9.088,9.088,0,0,1,97.723,116.589Z"/>
            </g>
            <g>
              <path class="a36b3d44-7990-4416-941d-f001879237ed" d="M77.259,88.289s-4.5-9.068-9-8.039-5.3,7.352-5.3,7.352"/>
              <path class="b4ca904f-893e-4110-8ff5-669a358bed0c" d="M77.259,88.476a.185.185,0,0,1-.168-.1c-.045-.089-4.481-8.917-8.792-7.938s-5.144,7.129-5.152,7.191a.188.188,0,0,1-.373-.046c.008-.065.865-6.466,5.441-7.512,4.594-1.05,9.026,7.763,9.212,8.138a.189.189,0,0,1-.084.252A.2.2,0,0,1,77.259,88.476Z"/>
            </g>
            <g>
              <path class="a36b3d44-7990-4416-941d-f001879237ed" d="M54.316,104.32s-6.367-.016-8.221,8.712"/>
              <path class="b4ca904f-893e-4110-8ff5-669a358bed0c" d="M46.1,113.22a.19.19,0,0,1-.04,0,.187.187,0,0,1-.144-.222c.972-4.576,3.2-6.741,4.893-7.752a7.44,7.44,0,0,1,3.51-1.109h0a.188.188,0,1,1,0,.376h0a7.205,7.205,0,0,0-3.337,1.067c-1.625.974-3.758,3.066-4.7,7.5A.188.188,0,0,1,46.1,113.22Z"/>
            </g>
          </g>
          <path d="M110.227,59.14H95.972a.238.238,0,1,1,0-.475h14.255a.238.238,0,1,1,0,.475Z"/>
          <path d="M102.167,62.994H87.911a.238.238,0,0,1,0-.475h14.256a.238.238,0,0,1,0,.475Z"/>
          <path d="M109.361,66.943H95.105a.238.238,0,0,1,0-.475h14.256a.238.238,0,0,1,0,.475Z"/>
          <path d="M83.114,91.011H68.858a.237.237,0,0,1,0-.474H83.114a.237.237,0,0,1,0,.474Z"/>
          <path d="M87.378,94.771H72.855a.237.237,0,0,1,0-.474H87.378a.237.237,0,0,1,0,.474Z"/>
          <path d="M70.59,94.771h-4a.237.237,0,1,1,0-.474h4a.237.237,0,0,1,0,.474Z"/>
          <path d="M82.981,99.1H70.99a.238.238,0,0,1,0-.475H82.981a.238.238,0,1,1,0,.475Z"/>
          <path class="ea2bafd8-262d-4880-9dfd-3708cfe04cc1" d="M127.15,133.245c.851,5.252,4.179,9.171,8.158,9.171.182,0,.363-.011.542-.027h17.306c1.3-3.024,2.532-6.051,3.7-9.144Z"/>
          <path class="ea2bafd8-262d-4880-9dfd-3708cfe04cc1" d="M156.857,133.245c-1.169,3.093-2.4,6.12-3.7,9.144h7.3v-.028c3.636-.34,6.6-4.156,7.232-9.116Z"/>
          <path class="b4ca904f-893e-4110-8ff5-669a358bed0c" d="M167.817,131.254c0-6.149-3.532-11.134-7.889-11.134a5.759,5.759,0,0,0-2.094.4c-1.423-7.324-6.172-12.706-11.813-12.706-5.2,0-9.641,4.571-11.42,11.02-4.292.507-7.664,5.58-7.664,11.769a16.494,16.494,0,0,0,.213,2.643h40.539A15.622,15.622,0,0,0,167.817,131.254Z"/>
          <g>
            <path class="a36b3d44-7990-4416-941d-f001879237ed" d="M169.362,130.475c0-6.15-3.532-11.135-7.889-11.135a5.775,5.775,0,0,0-2.093.4c-1.423-7.323-6.173-12.706-11.814-12.706-5.2,0-9.641,4.571-11.419,11.02-4.292.507-7.665,5.581-7.665,11.769,0,6.525,3.748,11.814,8.371,11.814.183,0,.363-.011.542-.027H162v-.027C166.112,141.2,169.362,136.373,169.362,130.475Z"/>
            <path class="b4ca904f-893e-4110-8ff5-669a358bed0c" d="M136.853,141.795c-4.7,0-8.529-5.371-8.529-11.973,0-6.121,3.373-11.325,7.7-11.912,1.884-6.707,6.407-11.035,11.544-11.035,5.534,0,10.421,5.192,11.933,12.651a5.914,5.914,0,0,1,1.973-.344c4.438,0,8.048,5.066,8.048,11.293,0,5.855-3.221,10.757-7.36,11.249v.016l-.158.027H137.4C137.225,141.784,137.041,141.795,136.853,141.795Zm10.713-34.6c-5.017,0-9.439,4.28-11.267,10.9l-.029.1-.105.012c-4.22.5-7.525,5.6-7.525,11.612,0,6.427,3.685,11.656,8.213,11.656.178,0,.353-.011.529-.026h24.51l.095-.027c4.047-.379,7.217-5.188,7.217-10.949,0-6.053-3.469-10.977-7.732-10.977a5.612,5.612,0,0,0-2.035.389l-.176.068-.037-.186C157.786,112.364,152.992,107.192,147.566,107.192Z"/>
          </g>
          <path class="b0848fdd-b0cc-451d-80f4-058d1b251cc2" d="M147.533,107.038s-9.993,1.317-6.529,14.291c0,0-1.465-3.2-4.663-3.2C136.341,118.132,137.94,108.167,147.533,107.038Z"/>
          <path class="b0848fdd-b0cc-451d-80f4-058d1b251cc2" d="M130.745,121.705c-2.265,3.009-1.865,16.735,6,16.735h26.773c2.161,0,4.2-1.542,5.323-4.146.041-.095.08-.19.12-.287,0,0-1.706,7.629-7.435,7.629s-25.45-.051-25.45-.051-2.6.509-5.829-4.515S128.88,123.585,130.745,121.705Z"/>
          <path class="b0848fdd-b0cc-451d-80f4-058d1b251cc2" d="M159.391,119.825s-3.2,1.5-4.4,7.333c0,0,3.464-9.214,10.525-6.2C165.519,120.953,162.055,118.508,159.391,119.825Z"/>
          <path class="b4ca904f-893e-4110-8ff5-669a358bed0c" d="M136.853,141.795c-4.7,0-8.529-5.371-8.529-11.973,0-6.121,3.373-11.325,7.7-11.912,1.884-6.707,6.407-11.035,11.544-11.035,5.534,0,10.421,5.192,11.933,12.651a5.914,5.914,0,0,1,1.973-.344c4.438,0,8.048,5.066,8.048,11.293,0,5.855-3.221,10.757-7.36,11.249v.016l-.158.027H137.4C137.225,141.784,137.041,141.795,136.853,141.795Zm10.713-34.6c-5.017,0-9.439,4.28-11.267,10.9l-.029.1-.105.012c-4.22.5-7.525,5.6-7.525,11.612,0,6.427,3.685,11.656,8.213,11.656.178,0,.353-.011.529-.026h24.51l.095-.027c4.047-.379,7.217-5.188,7.217-10.949,0-6.053-3.469-10.977-7.732-10.977a5.612,5.612,0,0,0-2.035.389l-.176.068-.037-.186C157.786,112.364,152.992,107.192,147.566,107.192Z"/>
        </g>
        <g>
          <path class="b0848fdd-b0cc-451d-80f4-058d1b251cc2" d="M153.9,80.784a26.306,26.306,0,0,1,.849-11.857c3.594-12.4,12.512-16.944,20.589-13.451,7.229,3.127,12.64,10.55,20.149,11.786,5.262.866,11.282-2.436,16.111,2.138,4.371,4.141,6.963,11.478,6.622,19.321a27.977,27.977,0,0,1-5.437,15.7c-3.1,4.024-6.8,6.718-9.874,10.826-2.148,2.871-3.142,6.982-4.952,10.265-2.113,3.832-5.292,6.442-8.536,7.2-3.411.8-6.965-.43-9.861-3.255-2.567-2.5-4.687-6.4-7.754-7.547-2.226-.832-4.415.061-6.58.844a5.82,5.82,0,0,1-4.675-.533c-2.941-1.551-5.478-5.179-6.546-9.634a17.935,17.935,0,0,1,.176-9.134A45.385,45.385,0,0,0,156,96.945a30.477,30.477,0,0,0-1.2-12.612C154.432,83.029,154.128,82.019,153.9,80.784Z"/>
          <polygon class="ea2bafd8-262d-4880-9dfd-3708cfe04cc1" points="190.844 90.584 190.844 67.017 167.923 67.017 167.923 90.584 159.94 90.584 159.94 116.076 177.174 116.076 177.174 102.224 185.532 102.224 185.532 116.076 203.96 116.076 203.96 90.584 190.844 90.584"/>
          <path class="a36b3d44-7990-4416-941d-f001879237ed" d="M171.551,80.188a4.752,4.752,0,0,0-2.014.457c-1.532-4.365-4.563-7.339-8.053-7.339-3.882,0-7.2,3.68-8.51,8.861-2.481.126-4.593,2.459-5.5,5.748a3,3,0,0,0-1.085-.206c-2.41,0-4.364,2.96-4.364,6.612s1.954,6.613,4.364,6.613h25.166c3.78,0,6.845-4.644,6.845-10.373S175.331,80.188,171.551,80.188Z"/>
          <g>
            <path class="a36b3d44-7990-4416-941d-f001879237ed" d="M186.65,103.483a3.808,3.808,0,0,1,1.617.367c1.23-3.5,3.663-5.891,6.464-5.891,3.117,0,5.777,2.953,6.832,7.113,1.992.1,3.687,1.974,4.419,4.614a2.394,2.394,0,0,1,.871-.165c1.935,0,3.5,2.376,3.5,5.308s-1.568,5.309-3.5,5.309h-20.2c-3.035,0-5.5-3.728-5.5-8.327S183.615,103.483,186.65,103.483Z"/>
            <g class="ad21132e-d76e-4937-9cd0-d102d982b52f">
              <path class="b0848fdd-b0cc-451d-80f4-058d1b251cc2" d="M201.957,107.935a11.059,11.059,0,0,1-.015,1.382s-1.546-12.856-10.473-10.58c0,0,5.607-4.073,9.159,3.58A14.988,14.988,0,0,1,201.957,107.935Z"/>
              <path class="b0848fdd-b0cc-451d-80f4-058d1b251cc2" d="M185.39,103.9a4.707,4.707,0,0,0-2.6.817,4.594,4.594,0,0,1,3.271-1.506c3.246,0,5.878,3.989,5.878,8.909,0,.277-.009.55-.026.821C191.616,107.871,188.809,103.9,185.39,103.9Z"/>
            </g>
          </g>
          <g class="b5275beb-09ec-4c08-a363-26ae4ef98be3">
            <polygon points="190.845 90.582 190.845 67.015 167.925 67.015 167.925 90.582 159.941 90.582 159.941 116.074 177.175 116.074 177.175 102.222 185.533 102.222 185.533 116.074 203.79 116.074 203.79 90.582 190.845 90.582"/>
          </g>
          <path class="b0848fdd-b0cc-451d-80f4-058d1b251cc2" d="M206.853,120.243h-20.2c-3.088,0-5.6-3.783-5.6-8.433s2.511-8.432,5.6-8.432a3.888,3.888,0,0,1,1.556.33c1.3-3.614,3.8-5.855,6.525-5.855,3.038,0,5.81,2.858,6.915,7.119,1.922.142,3.638,1.924,4.407,4.578a2.474,2.474,0,0,1,.8-.134c1.99,0,3.608,2.429,3.608,5.414S208.843,120.243,206.853,120.243Zm-20.2-16.655c-2.972,0-5.39,3.689-5.39,8.222s2.418,8.223,5.39,8.223h20.2c1.874,0,3.4-2.334,3.4-5.2s-1.525-5.2-3.4-5.2a2.3,2.3,0,0,0-.833.158l-.108.042-.03-.112c-.739-2.661-2.436-4.442-4.324-4.537l-.078,0-.018-.075c-1.068-4.208-3.773-7.035-6.731-7.035-2.666,0-5.1,2.231-6.366,5.822l-.038.109-.1-.049A3.7,3.7,0,0,0,186.65,103.588Z"/>
          <path class="b0848fdd-b0cc-451d-80f4-058d1b251cc2" d="M171.551,101.065H146.385c-2.479,0-4.5-3.025-4.5-6.744s2.016-6.743,4.5-6.743a3.107,3.107,0,0,1,1,.166c.958-3.306,3.094-5.525,5.489-5.7,1.376-5.307,4.829-8.866,8.613-8.866,3.4,0,6.507,2.79,8.129,7.292a4.826,4.826,0,0,1,1.938-.41c3.846,0,6.975,4.711,6.975,10.5S175.4,101.065,171.551,101.065ZM146.385,87.84c-2.334,0-4.233,2.907-4.233,6.481s1.9,6.482,4.233,6.482h25.166c3.7,0,6.713-4.595,6.713-10.242s-3.011-10.242-6.713-10.242a4.607,4.607,0,0,0-1.958.445l-.132.061-.048-.136c-1.569-4.473-4.607-7.252-7.929-7.252-3.684,0-7.053,3.522-8.383,8.763l-.023.093-.1,0c-2.352.119-4.466,2.337-5.385,5.653l-.039.139-.135-.052A2.837,2.837,0,0,0,146.385,87.84Z"/>
          <path class="a36b3d44-7990-4416-941d-f001879237ed" d="M189.952,60.8a3.274,3.274,0,0,1,1.391.316c1.059-3.016,3.153-5.071,5.564-5.071,2.683,0,4.972,2.542,5.881,6.123,1.714.086,3.173,1.7,3.8,3.972a2.065,2.065,0,0,1,.75-.143c1.665,0,3.015,2.046,3.015,4.569s-1.35,4.57-3.015,4.57H189.952c-2.613,0-4.73-3.209-4.73-7.168S187.339,60.8,189.952,60.8Z"/>
          <path class="b0848fdd-b0cc-451d-80f4-058d1b251cc2" d="M207.341,75.267H189.952c-2.681,0-4.861-3.274-4.861-7.3s2.18-7.3,4.861-7.3a3.385,3.385,0,0,1,1.315.269c1.13-3.1,3.282-5.025,5.64-5.025,2.628,0,5.024,2.459,5.984,6.129,1.651.138,3.12,1.662,3.788,3.927a2.179,2.179,0,0,1,.662-.1c1.735,0,3.146,2.109,3.146,4.7S209.076,75.267,207.341,75.267ZM189.952,60.932c-2.536,0-4.6,3.156-4.6,7.036s2.064,7.037,4.6,7.037h17.389c1.59,0,2.884-1.991,2.884-4.439s-1.294-4.438-2.884-4.438a1.94,1.94,0,0,0-.7.134l-.135.052-.038-.139c-.631-2.274-2.076-3.795-3.684-3.876l-.1-.005-.023-.094c-.914-3.6-3.227-6.024-5.754-6.024-2.277,0-4.362,1.91-5.439,4.984l-.048.136-.132-.061A3.155,3.155,0,0,0,189.952,60.932Z"/>
          <g>
            <rect class="a36b3d44-7990-4416-941d-f001879237ed" x="186.431" y="89.294" width="17.234" height="25.492"/>
            <path class="b4ca904f-893e-4110-8ff5-669a358bed0c" d="M203.821,114.943H186.273V89.137h17.548Zm-17.233-.315h16.919V89.451H186.588Z"/>
          </g>
          <polygon class="b7a332ce-7ef9-49a5-8c52-d8adca9ed943" points="190.833 100.931 190.833 108.305 195.048 111.992 199.262 108.305 199.262 100.931 195.048 97.245 190.833 100.931"/>
          <g>
            <path class="b4ca904f-893e-4110-8ff5-669a358bed0c" d="M190.834,101.088a.216.216,0,0,1-.111-.04.165.165,0,0,1-.049-.12.159.159,0,0,1,.049-.11.157.157,0,0,1,.22,0,.162.162,0,0,1,.051.11.186.186,0,0,1-.051.12A.2.2,0,0,1,190.834,101.088Z"/>
            <path class="b4ca904f-893e-4110-8ff5-669a358bed0c" d="M190.674,107.488a.158.158,0,0,1,.16-.16h0a.158.158,0,0,1,.16.16h0a.156.156,0,0,1-.16.15h0A.156.156,0,0,1,190.674,107.488Zm0-.82a.158.158,0,0,1,.16-.16h0a.158.158,0,0,1,.16.16h0a.156.156,0,0,1-.16.15h0A.156.156,0,0,1,190.674,106.668Zm0-.82a.158.158,0,0,1,.16-.16h0a.158.158,0,0,1,.16.16h0a.158.158,0,0,1-.16.16h0A.158.158,0,0,1,190.674,105.848Zm0-.82a.158.158,0,0,1,.16-.16h0a.158.158,0,0,1,.16.16h0a.158.158,0,0,1-.16.16h0A.158.158,0,0,1,190.674,105.028Zm0-.82a.158.158,0,0,1,.16-.16h0a.158.158,0,0,1,.16.16h0a.158.158,0,0,1-.16.16h0A.158.158,0,0,1,190.674,104.208Zm0-.82a.164.164,0,0,1,.16-.16h0a.164.164,0,0,1,.16.16h0a.158.158,0,0,1-.16.16h0A.158.158,0,0,1,190.674,103.388Zm0-.82a.158.158,0,0,1,.16-.16h0a.158.158,0,0,1,.16.16h0a.158.158,0,0,1-.16.16h0A.158.158,0,0,1,190.674,102.568Zm0-.82a.156.156,0,0,1,.16-.15h0a.156.156,0,0,1,.16.15h0a.158.158,0,0,1-.16.16h0A.158.158,0,0,1,190.674,101.748Z"/>
            <path class="b4ca904f-893e-4110-8ff5-669a358bed0c" d="M190.834,108.458a.154.154,0,0,1-.111-.04.159.159,0,0,1-.049-.11.142.142,0,0,1,.049-.11.157.157,0,0,1,.22,0,.144.144,0,0,1,.051.11.162.162,0,0,1-.051.11A.147.147,0,0,1,190.834,108.458Z"/>
            <path class="b4ca904f-893e-4110-8ff5-669a358bed0c" d="M194.344,111.578a.156.156,0,0,1-.021-.22h0a.159.159,0,0,1,.221-.01h0a.149.149,0,0,1,.019.22h0a.146.146,0,0,1-.12.05h0A.126.126,0,0,1,194.344,111.578Zm-.6-.52a.151.151,0,0,1-.021-.22h0a.15.15,0,0,1,.22-.02h0a.158.158,0,0,1,.021.22h0a.158.158,0,0,1-.12.06h0A.175.175,0,0,1,193.744,111.058Zm-.61-.53a.155.155,0,0,1-.01-.22h0a.149.149,0,0,1,.22-.01h0a.167.167,0,0,1,.019.22h0a.211.211,0,0,1-.13.05h0A.143.143,0,0,1,193.134,110.528Zm-.6-.52a.17.17,0,0,1-.01-.23h0a.158.158,0,0,1,.221-.01h0a.158.158,0,0,1,.01.22h0a.137.137,0,0,1-.12.05h0A.194.194,0,0,1,192.533,110.008Zm-.6-.53a.157.157,0,0,1-.019-.22h0a.169.169,0,0,1,.229-.02h0a.155.155,0,0,1,.01.22h0a.14.14,0,0,1-.12.06h0A.219.219,0,0,1,191.933,109.478Zm-.6-.53a.158.158,0,0,1-.021-.22h0a.149.149,0,0,1,.22-.01h0a.149.149,0,0,1,.021.22h0a.189.189,0,0,1-.121.05h0A.125.125,0,0,1,191.334,108.948Z"/>
            <path class="b4ca904f-893e-4110-8ff5-669a358bed0c" d="M195.044,112.148a.165.165,0,0,1-.111-.05.137.137,0,0,1-.04-.11.15.15,0,0,1,.04-.11.167.167,0,0,1,.22,0,.162.162,0,0,1,.051.11.118.118,0,0,1-.051.11A.115.115,0,0,1,195.044,112.148Z"/>
            <path class="b4ca904f-893e-4110-8ff5-669a358bed0c" d="M195.533,111.568a.156.156,0,0,1,.011-.22h0a.156.156,0,0,1,.22.01h0a.171.171,0,0,1-.01.23h0a.2.2,0,0,1-.1.03h0A.135.135,0,0,1,195.533,111.568Zm.6-.53a.157.157,0,0,1,.009-.22h0a.171.171,0,0,1,.231.02h0a.168.168,0,0,1-.021.22h0a.212.212,0,0,1-.1.04h0A.143.143,0,0,1,196.134,111.038Zm.6-.52a.161.161,0,0,1,.021-.23h0a.168.168,0,0,1,.219.02h0a.158.158,0,0,1-.019.22h0a.144.144,0,0,1-.1.04h0A.187.187,0,0,1,196.733,110.518Zm.6-.53a.157.157,0,0,1,.019-.22h0a.157.157,0,0,1,.22.01h0a.16.16,0,0,1-.019.23h0a.171.171,0,0,1-.1.03h0A.144.144,0,0,1,197.334,109.988Zm.6-.53a.159.159,0,0,1,.021-.22h0a.158.158,0,0,1,.22.02h0a.151.151,0,0,1-.021.22h0a.148.148,0,0,1-.1.04h0A.16.16,0,0,1,197.933,109.458Zm.611-.52a.168.168,0,0,1,.01-.23h0a.156.156,0,0,1,.219.02h0a.156.156,0,0,1-.009.22h0a.154.154,0,0,1-.111.04h0A.156.156,0,0,1,198.544,108.938Z"/>
            <path class="b4ca904f-893e-4110-8ff5-669a358bed0c" d="M199.264,108.458a.139.139,0,0,1-.111-.04.146.146,0,0,1,0-.22.158.158,0,0,1,.221,0,.146.146,0,0,1,0,.22A.15.15,0,0,1,199.264,108.458Z"/>
            <path class="b4ca904f-893e-4110-8ff5-669a358bed0c" d="M199.1,107.488a.159.159,0,0,1,.161-.16h0a.156.156,0,0,1,.15.16h0a.154.154,0,0,1-.15.15h0A.157.157,0,0,1,199.1,107.488Zm0-.82a.159.159,0,0,1,.161-.16h0a.156.156,0,0,1,.15.16h0a.163.163,0,0,1-.15.16h0A.165.165,0,0,1,199.1,106.668Zm0-.82a.159.159,0,0,1,.161-.16h0a.156.156,0,0,1,.15.16h0a.156.156,0,0,1-.15.16h0A.159.159,0,0,1,199.1,105.848Zm0-.82a.159.159,0,0,1,.161-.16h0a.156.156,0,0,1,.15.16h0a.156.156,0,0,1-.15.16h0A.159.159,0,0,1,199.1,105.028Zm0-.82a.159.159,0,0,1,.161-.16h0a.156.156,0,0,1,.15.16h0a.156.156,0,0,1-.15.16h0A.159.159,0,0,1,199.1,104.208Zm0-.82a.159.159,0,0,1,.161-.16h0a.156.156,0,0,1,.15.16h0a.156.156,0,0,1-.15.16h0A.159.159,0,0,1,199.1,103.388Zm0-.82a.165.165,0,0,1,.161-.16h0a.163.163,0,0,1,.15.16h0a.156.156,0,0,1-.15.16h0A.159.159,0,0,1,199.1,102.568Zm0-.82a.157.157,0,0,1,.161-.15h0a.154.154,0,0,1,.15.15h0a.156.156,0,0,1-.15.16h0A.159.159,0,0,1,199.1,101.748Z"/>
            <path class="b4ca904f-893e-4110-8ff5-669a358bed0c" d="M199.264,101.088a.161.161,0,0,1-.111-.05.147.147,0,0,1-.05-.11.165.165,0,0,1,.05-.11.158.158,0,0,1,.221,0,.165.165,0,0,1,.05.11.147.147,0,0,1-.05.11A.161.161,0,0,1,199.264,101.088Z"/>
            <path class="b4ca904f-893e-4110-8ff5-669a358bed0c" d="M198.554,100.528a.168.168,0,0,1-.01-.23h0a.156.156,0,0,1,.22-.01h0a.156.156,0,0,1,.009.22h0a.133.133,0,0,1-.12.05h0A.192.192,0,0,1,198.554,100.528Zm-.6-.53a.159.159,0,0,1-.021-.22h0a.171.171,0,0,1,.231-.02h0a.159.159,0,0,1,.01.22h0a.145.145,0,0,1-.12.06h0A.2.2,0,0,1,197.954,100Zm-.6-.53a.157.157,0,0,1-.019-.22h0a.158.158,0,0,1,.22-.02h0a.16.16,0,0,1,.019.23h0a.18.18,0,0,1-.119.05h0A.132.132,0,0,1,197.353,99.468Zm-.609-.53a.156.156,0,0,1-.011-.22h0a.159.159,0,0,1,.221-.01h0a.158.158,0,0,1,.019.22h0a.146.146,0,0,1-.12.05h0A.147.147,0,0,1,196.744,98.938Zm-.6-.52a.157.157,0,0,1-.009-.22h0a.148.148,0,0,1,.219-.02h0a.168.168,0,0,1,.021.22h0a.173.173,0,0,1-.12.06h0A.216.216,0,0,1,196.143,98.418Zm-.6-.53a.156.156,0,0,1-.011-.22h0a.158.158,0,0,1,.221-.02h0a.171.171,0,0,1,.01.23h0a.165.165,0,0,1-.111.05h0A.147.147,0,0,1,195.544,97.888Z"/>
            <path class="b4ca904f-893e-4110-8ff5-669a358bed0c" d="M195.044,97.4a.154.154,0,0,1-.111-.04.15.15,0,0,1-.04-.11.159.159,0,0,1,.04-.12.18.18,0,0,1,.22,0,.166.166,0,0,1,.051.12.128.128,0,0,1-.051.11A.133.133,0,0,1,195.044,97.4Z"/>
            <path class="b4ca904f-893e-4110-8ff5-669a358bed0c" d="M191.313,100.508a.149.149,0,0,1,.021-.22h0a.157.157,0,0,1,.22.01h0a.162.162,0,0,1-.021.23h0a.167.167,0,0,1-.1.03h0A.147.147,0,0,1,191.313,100.508Zm.6-.53a.157.157,0,0,1,.019-.22h0a.158.158,0,0,1,.22.02h0a.155.155,0,0,1-.01.22h0a.21.21,0,0,1-.11.04h0A.173.173,0,0,1,191.914,99.978Zm.609-.52a.17.17,0,0,1,.01-.23h0a.169.169,0,0,1,.221.02h0a.158.158,0,0,1-.01.22h0a.144.144,0,0,1-.1.04h0A.169.169,0,0,1,192.523,99.458Zm.6-.53a.155.155,0,0,1,.01-.22h0a.168.168,0,0,1,.229.01h0a.167.167,0,0,1-.019.22h0a.147.147,0,0,1-.1.04h0A.133.133,0,0,1,193.124,98.928Zm.6-.53a.159.159,0,0,1,.01-.22h0a.162.162,0,0,1,.231.02h0a.158.158,0,0,1-.021.22h0a.172.172,0,0,1-.1.04h0A.146.146,0,0,1,193.723,98.4Zm.6-.52a.169.169,0,0,1,.021-.23h0a.157.157,0,0,1,.219.02h0a.149.149,0,0,1-.019.22h0a.13.13,0,0,1-.1.04h0A.185.185,0,0,1,194.323,97.878Z"/>
          </g>
          <g>
            <rect class="b4ca904f-893e-4110-8ff5-669a358bed0c" x="186.431" y="89.294" width="17.234" height="5.478"/>
            <path class="b4ca904f-893e-4110-8ff5-669a358bed0c" d="M203.664,94.929H186.431a.158.158,0,0,1-.158-.158V89.294a.157.157,0,0,1,.158-.157h17.233a.157.157,0,0,1,.157.157v5.477A.157.157,0,0,1,203.664,94.929Zm-17.076-.315h16.919V89.451H186.588Z"/>
          </g>
          <path class="a36b3d44-7990-4416-941d-f001879237ed" d="M197.467,92.138h-10.15a.105.105,0,0,1,0-.21h10.15a.105.105,0,0,1,0,.21Z"/>
          <g>
            <rect class="a36b3d44-7990-4416-941d-f001879237ed" x="168.822" y="65.727" width="22.921" height="35.207"/>
            <path class="b4ca904f-893e-4110-8ff5-669a358bed0c" d="M191.9,101.091H168.665V65.57H191.9Zm-22.921-.314h22.607V65.884H168.979Z"/>
          </g>
          <polygon class="b7a332ce-7ef9-49a5-8c52-d8adca9ed943" points="174.335 80.352 174.335 90.758 180.282 95.961 186.23 90.758 186.23 80.352 180.282 75.148 174.335 80.352"/>
          <g>
            <path class="b4ca904f-893e-4110-8ff5-669a358bed0c" d="M174.334,80.508a.165.165,0,0,1-.111-.05.142.142,0,0,1-.049-.11.159.159,0,0,1,.049-.11.157.157,0,0,1,.22,0,.162.162,0,0,1,.051.11.144.144,0,0,1-.051.11A.156.156,0,0,1,174.334,80.508Z"/>
            <path class="b4ca904f-893e-4110-8ff5-669a358bed0c" d="M174.174,89.888a.156.156,0,0,1,.16-.15h0a.156.156,0,0,1,.16.15h0a.158.158,0,0,1-.16.16h0A.158.158,0,0,1,174.174,89.888Zm0-.86a.158.158,0,0,1,.16-.16h0a.158.158,0,0,1,.16.16h0a.156.156,0,0,1-.16.15h0A.156.156,0,0,1,174.174,89.028Zm0-.87a.158.158,0,0,1,.16-.16h0a.158.158,0,0,1,.16.16h0a.164.164,0,0,1-.16.16h0A.164.164,0,0,1,174.174,88.158Zm0-.87a.158.158,0,0,1,.16-.16h0a.158.158,0,0,1,.16.16h0a.158.158,0,0,1-.16.16h0A.158.158,0,0,1,174.174,87.288Zm0-.87a.156.156,0,0,1,.16-.15h0a.156.156,0,0,1,.16.15h0a.158.158,0,0,1-.16.16h0A.158.158,0,0,1,174.174,86.418Zm0-.86a.158.158,0,0,1,.16-.16h0a.158.158,0,0,1,.16.16h0a.156.156,0,0,1-.16.15h0A.156.156,0,0,1,174.174,85.558Zm0-.87a.158.158,0,0,1,.16-.16h0a.158.158,0,0,1,.16.16h0a.158.158,0,0,1-.16.16h0A.158.158,0,0,1,174.174,84.688Zm0-.87a.156.156,0,0,1,.16-.15h0a.156.156,0,0,1,.16.15h0a.158.158,0,0,1-.16.16h0A.158.158,0,0,1,174.174,83.818Zm0-.86a.158.158,0,0,1,.16-.16h0a.158.158,0,0,1,.16.16h0a.156.156,0,0,1-.16.15h0A.156.156,0,0,1,174.174,82.958Zm0-.87a.158.158,0,0,1,.16-.16h0a.158.158,0,0,1,.16.16h0a.158.158,0,0,1-.16.16h0A.158.158,0,0,1,174.174,82.088Zm0-.87a.158.158,0,0,1,.16-.16h0a.158.158,0,0,1,.16.16h0a.158.158,0,0,1-.16.16h0A.158.158,0,0,1,174.174,81.218Z"/>
            <path class="b4ca904f-893e-4110-8ff5-669a358bed0c" d="M174.334,90.918a.165.165,0,0,1-.111-.05.148.148,0,0,1,0-.22.157.157,0,0,1,.22,0,.144.144,0,0,1,0,.22A.156.156,0,0,1,174.334,90.918Z"/>
            <path class="b4ca904f-893e-4110-8ff5-669a358bed0c" d="M179.514,95.5a.155.155,0,0,1-.01-.22h0a.156.156,0,0,1,.219-.01h0a.167.167,0,0,1,.021.22h0a.208.208,0,0,1-.12.05h0A.15.15,0,0,1,179.514,95.5Zm-.661-.57a.169.169,0,0,1-.009-.23h0a.156.156,0,0,1,.219-.01h0a.158.158,0,0,1,.021.22h0a.158.158,0,0,1-.12.05h0A.207.207,0,0,1,178.853,94.928Zm-.66-.58a.159.159,0,0,1-.01-.22h0a.149.149,0,0,1,.22-.02h0a.157.157,0,0,1,.011.22h0a.138.138,0,0,1-.11.06h0A.213.213,0,0,1,178.193,94.348Zm-.66-.58a.158.158,0,0,1-.01-.22h0a.158.158,0,0,1,.221-.02h0a.158.158,0,0,1,.01.22h0a.145.145,0,0,1-.12.06h0A.211.211,0,0,1,177.533,93.768Zm-.659-.58a.157.157,0,0,1-.011-.22h0a.158.158,0,0,1,.221-.02h0a.171.171,0,0,1,.01.23h0a.17.17,0,0,1-.121.05h0A.139.139,0,0,1,176.874,93.188Zm-.66-.58a.146.146,0,0,1-.01-.22h0a.156.156,0,0,1,.22-.01h0a.156.156,0,0,1,.009.22h0a.166.166,0,0,1-.12.05h0A.126.126,0,0,1,176.214,92.608Zm-.66-.58a.156.156,0,0,1-.021-.22h0a.171.171,0,0,1,.231-.01h0a.157.157,0,0,1,.009.22h0a.144.144,0,0,1-.12.05h0A.126.126,0,0,1,175.554,92.028Zm-.661-.57a.169.169,0,0,1-.019-.23h0a.168.168,0,0,1,.229-.01h0a.155.155,0,0,1,.01.22h0a.14.14,0,0,1-.119.06h0A.184.184,0,0,1,174.893,91.458Z"/>
            <path class="b4ca904f-893e-4110-8ff5-669a358bed0c" d="M180.283,96.118a.179.179,0,0,1-.109-.04.2.2,0,0,1-.05-.12.16.16,0,0,1,.319,0,.2.2,0,0,1-.05.12A.21.21,0,0,1,180.283,96.118Z"/>
            <path class="b4ca904f-893e-4110-8ff5-669a358bed0c" d="M180.823,95.488a.149.149,0,0,1,.021-.22h0a.156.156,0,0,1,.219.01h0a.158.158,0,0,1-.019.22h0a.13.13,0,0,1-.1.04h0A.166.166,0,0,1,180.823,95.488Zm.66-.58a.149.149,0,0,1,.021-.22h0a.156.156,0,0,1,.219.01h0a.161.161,0,0,1-.019.23h0a.172.172,0,0,1-.1.03h0A.147.147,0,0,1,181.483,94.908Zm.66-.58a.151.151,0,0,1,.021-.22h0a.157.157,0,0,1,.22.01h0a.162.162,0,0,1-.021.23h0a.172.172,0,0,1-.1.04h0A.158.158,0,0,1,182.143,94.328Zm.661-.58a.159.159,0,0,1,.019-.22h0a.16.16,0,0,1,.221.02h0a.15.15,0,0,1-.021.22h0a.148.148,0,0,1-.1.04h0A.156.156,0,0,1,182.8,93.748Zm.66-.57a.171.171,0,0,1,.019-.23h0a.16.16,0,0,1,.221.02h0a.156.156,0,0,1-.011.22h0a.164.164,0,0,1-.109.04h0A.185.185,0,0,1,183.464,93.178Zm.66-.58a.169.169,0,0,1,.019-.23h0a.169.169,0,0,1,.22.02h0a.154.154,0,0,1-.01.22h0a.15.15,0,0,1-.109.04h0A.208.208,0,0,1,184.124,92.6Zm.67-.58a.147.147,0,0,1,.01-.22h0a.156.156,0,0,1,.219.01h0a.156.156,0,0,1-.009.22h0a.154.154,0,0,1-.111.04h0A.125.125,0,0,1,184.794,92.018Zm.66-.58a.155.155,0,0,1,.01-.22h0a.156.156,0,0,1,.219.01h0a.169.169,0,0,1-.009.23h0a.207.207,0,0,1-.111.03h0A.125.125,0,0,1,185.454,91.438Z"/>
            <path class="b4ca904f-893e-4110-8ff5-669a358bed0c" d="M186.233,90.918a.185.185,0,0,1-.12-.05.171.171,0,0,1,0-.22.171.171,0,0,1,.231,0,.171.171,0,0,1,0,.22A.165.165,0,0,1,186.233,90.918Z"/>
            <path class="b4ca904f-893e-4110-8ff5-669a358bed0c" d="M186.073,89.888a.156.156,0,0,1,.16-.15h0a.155.155,0,0,1,.151.15h0a.157.157,0,0,1-.151.16h0A.158.158,0,0,1,186.073,89.888Zm0-.86a.158.158,0,0,1,.16-.16h0a.157.157,0,0,1,.151.16h0a.155.155,0,0,1-.151.15h0A.156.156,0,0,1,186.073,89.028Zm0-.87a.158.158,0,0,1,.16-.16h0a.157.157,0,0,1,.151.16h0a.157.157,0,0,1-.151.16h0A.158.158,0,0,1,186.073,88.158Zm0-.87a.158.158,0,0,1,.16-.16h0a.157.157,0,0,1,.151.16h0a.157.157,0,0,1-.151.16h0A.158.158,0,0,1,186.073,87.288Zm0-.87a.156.156,0,0,1,.16-.15h0a.155.155,0,0,1,.151.15h0a.157.157,0,0,1-.151.16h0A.158.158,0,0,1,186.073,86.418Zm0-.86a.158.158,0,0,1,.16-.16h0a.157.157,0,0,1,.151.16h0a.155.155,0,0,1-.151.15h0A.156.156,0,0,1,186.073,85.558Zm0-.87a.158.158,0,0,1,.16-.16h0a.157.157,0,0,1,.151.16h0a.157.157,0,0,1-.151.16h0A.158.158,0,0,1,186.073,84.688Zm0-.87a.164.164,0,0,1,.16-.16h0a.164.164,0,0,1,.151.16h0a.157.157,0,0,1-.151.16h0A.158.158,0,0,1,186.073,83.818Zm0-.86a.158.158,0,0,1,.16-.16h0a.157.157,0,0,1,.151.16h0a.155.155,0,0,1-.151.15h0A.156.156,0,0,1,186.073,82.958Zm0-.87a.158.158,0,0,1,.16-.16h0a.157.157,0,0,1,.151.16h0a.155.155,0,0,1-.151.15h0A.156.156,0,0,1,186.073,82.088Zm0-.87a.158.158,0,0,1,.16-.16h0a.157.157,0,0,1,.151.16h0a.157.157,0,0,1-.151.16h0A.158.158,0,0,1,186.073,81.218Z"/>
            <path class="b4ca904f-893e-4110-8ff5-669a358bed0c" d="M186.233,80.508a.214.214,0,0,1-.12-.04.18.18,0,0,1-.04-.12.155.155,0,0,1,.04-.11.171.171,0,0,1,.231,0,.15.15,0,0,1,.04.11.159.159,0,0,1-.04.12A.216.216,0,0,1,186.233,80.508Z"/>
            <path class="b4ca904f-893e-4110-8ff5-669a358bed0c" d="M185.464,79.888a.154.154,0,0,1-.01-.22h0a.156.156,0,0,1,.22-.01h0a.156.156,0,0,1,.009.22h0a.166.166,0,0,1-.12.05h0A.141.141,0,0,1,185.464,79.888Zm-.66-.58a.167.167,0,0,1-.021-.22h0a.171.171,0,0,1,.231-.01h0a.157.157,0,0,1,.009.22h0a.162.162,0,0,1-.12.05h0A.143.143,0,0,1,184.8,79.308Zm-.661-.57a.157.157,0,0,1-.019-.22h0a.159.159,0,0,1,.229-.02h0a.155.155,0,0,1,.01.22h0a.14.14,0,0,1-.119.06h0A.219.219,0,0,1,184.143,78.738Zm-.66-.58a.159.159,0,0,1-.019-.22h0a.149.149,0,0,1,.219-.02h0a.149.149,0,0,1,.021.22h0a.156.156,0,0,1-.12.06h0A.184.184,0,0,1,183.483,78.158Zm-.66-.58a.159.159,0,0,1-.019-.22h0a.157.157,0,0,1,.219-.02h0a.161.161,0,0,1,.021.23h0a.185.185,0,0,1-.12.05h0A.13.13,0,0,1,182.823,77.578Zm-.659-.58a.159.159,0,0,1-.021-.22h0a.149.149,0,0,1,.22-.01h0a.149.149,0,0,1,.021.22h0a.187.187,0,0,1-.12.05h0A.126.126,0,0,1,182.164,77Zm-.66-.58a.149.149,0,0,1-.021-.22h0a.159.159,0,0,1,.221-.01h0a.158.158,0,0,1,.019.22h0a.146.146,0,0,1-.12.05h0A.113.113,0,0,1,181.5,76.418Zm-.66-.57a.161.161,0,0,1-.021-.23h0a.159.159,0,0,1,.221-.01h0a.159.159,0,0,1,.019.22h0a.156.156,0,0,1-.12.06h0A.148.148,0,0,1,180.844,75.848Z"/>
            <path class="b4ca904f-893e-4110-8ff5-669a358bed0c" d="M180.283,75.308a.16.16,0,0,1-.109-.05.16.16,0,1,1,.219,0A.161.161,0,0,1,180.283,75.308Z"/>
            <path class="b4ca904f-893e-4110-8ff5-669a358bed0c" d="M174.874,79.878a.156.156,0,0,1,.019-.22h0a.157.157,0,0,1,.22.01h0a.148.148,0,0,1-.019.22h0a.131.131,0,0,1-.1.04h0A.182.182,0,0,1,174.874,79.878Zm.659-.58a.158.158,0,0,1,.021-.22h0a.156.156,0,0,1,.219.01h0a.148.148,0,0,1-.019.22h0a.119.119,0,0,1-.1.04h0A.146.146,0,0,1,175.533,79.3Zm.66-.58a.168.168,0,0,1,.021-.22h0a.149.149,0,0,1,.219.02h0a.157.157,0,0,1-.009.22h0a.216.216,0,0,1-.111.04h0A.173.173,0,0,1,176.193,78.718Zm.67-.58a.157.157,0,0,1,.011-.22h0a.158.158,0,0,1,.22.02h0a.159.159,0,0,1-.01.22h0a.144.144,0,0,1-.1.04h0A.143.143,0,0,1,176.863,78.138Zm.66-.57a.17.17,0,0,1,.01-.23h0a.159.159,0,0,1,.221.02h0a.158.158,0,0,1-.01.22h0a.15.15,0,0,1-.11.04h0A.165.165,0,0,1,177.523,77.568Zm.66-.58a.158.158,0,0,1,.01-.22h0a.149.149,0,0,1,.221.01h0a.156.156,0,0,1-.011.22h0a.139.139,0,0,1-.1.04h0A.17.17,0,0,1,178.183,76.988Zm.661-.58a.156.156,0,0,1,.009-.22h0a.156.156,0,0,1,.22.01h0a.167.167,0,0,1-.01.23h0a.19.19,0,0,1-.1.03h0A.135.135,0,0,1,178.844,76.408Zm.66-.58a.15.15,0,0,1,.019-.22h0a.151.151,0,0,1,.221.02h0a.158.158,0,0,1-.021.22h0a.212.212,0,0,1-.1.04h0A.14.14,0,0,1,179.5,75.828Z"/>
          </g>
          <g>
            <rect class="b4ca904f-893e-4110-8ff5-669a358bed0c" x="168.822" y="65.727" width="22.921" height="5.86"/>
            <path class="b4ca904f-893e-4110-8ff5-669a358bed0c" d="M191.743,71.744H168.822a.157.157,0,0,1-.157-.158V65.727a.157.157,0,0,1,.157-.157h22.921a.157.157,0,0,1,.157.157v5.859A.157.157,0,0,1,191.743,71.744Zm-22.764-.315h22.607V65.884H168.979Z"/>
          </g>
          <path class="a36b3d44-7990-4416-941d-f001879237ed" d="M183.623,68.762h-12.77a.105.105,0,0,1,0-.21h12.77a.105.105,0,0,1,0,.21Z"/>
          <g>
            <rect class="a36b3d44-7990-4416-941d-f001879237ed" x="160.839" y="89.294" width="17.234" height="25.492"/>
            <path class="b4ca904f-893e-4110-8ff5-669a358bed0c" d="M178.229,114.943H160.681V89.137h17.548ZM161,114.628h16.919V89.451H161Z"/>
          </g>
          <g>
            <rect class="b4ca904f-893e-4110-8ff5-669a358bed0c" x="160.839" y="89.294" width="17.234" height="5.478"/>
            <path class="b4ca904f-893e-4110-8ff5-669a358bed0c" d="M178.072,94.929H160.839a.158.158,0,0,1-.158-.158V89.294a.157.157,0,0,1,.158-.157h17.233a.157.157,0,0,1,.157.157v5.477A.157.157,0,0,1,178.072,94.929ZM161,94.614h16.919V89.451H161Z"/>
          </g>
          <path class="a36b3d44-7990-4416-941d-f001879237ed" d="M170.828,92.138h-8.307a.105.105,0,0,1,0-.21h8.307a.105.105,0,0,1,0,.21Z"/>
          <g>
            <ellipse class="a36b3d44-7990-4416-941d-f001879237ed" cx="174.812" cy="92.033" rx="0.48" ry="0.727"/>
            <ellipse class="a36b3d44-7990-4416-941d-f001879237ed" cx="176.251" cy="92.033" rx="0.48" ry="0.727"/>
          </g>
          <g>
            <g>
              <path d="M215.481,87.538h-1.267a.1.1,0,1,1,0-.209h1.267a.1.1,0,1,1,0,.209Z"/>
              <path d="M216.5,83.746h-2.286a.105.105,0,0,1,0-.21H216.5a.105.105,0,0,1,0,.21Z"/>
            </g>
            <path d="M220.216,85.642h-6a.105.105,0,0,1,0-.21h6a.105.105,0,0,1,0,.21Z"/>
            <path d="M222.764,85.642h-1.417a.105.105,0,0,1,0-.21h1.417a.105.105,0,0,1,0,.21Z"/>
          </g>
          <g>
            <g>
              <path d="M168.2,129.154a.1.1,0,0,1-.105-.1v-1.921a.1.1,0,1,1,.209,0v1.921A.1.1,0,0,1,168.2,129.154Z"/>
              <path d="M170.707,130.7a.1.1,0,0,1-.1-.1v-3.463a.1.1,0,1,1,.209,0v3.463A.1.1,0,0,1,170.707,130.7Z"/>
            </g>
            <path d="M169.456,135.038a.1.1,0,0,1-.1-.105v-7.8a.1.1,0,1,1,.209,0v7.8A.1.1,0,0,1,169.456,135.038Z"/>
            <path d="M169.456,140.188a.1.1,0,0,1-.1-.1v-3.435a.1.1,0,1,1,.209,0v3.435A.1.1,0,0,1,169.456,140.188Z"/>
          </g>
          <g>
            <g>
              <path d="M158.014,49.849h-1.267a.1.1,0,0,1,0-.21h1.267a.1.1,0,0,1,0,.21Z"/>
              <path d="M158.014,53.642h-2.285a.105.105,0,0,1,0-.21h2.285a.1.1,0,0,1,0,.21Z"/>
            </g>
            <path d="M158.014,51.746h-5.29a.105.105,0,0,1,0-.21h5.29a.1.1,0,0,1,0,.21Z"/>
            <path d="M151.334,51.746h-1.666a.105.105,0,1,1,0-.21h1.666a.105.105,0,0,1,0,.21Z"/>
          </g>
          <polygon class="b7a332ce-7ef9-49a5-8c52-d8adca9ed943" points="165.226 100.802 165.226 108.176 169.44 111.863 173.654 108.176 173.654 100.802 169.44 97.116 165.226 100.802"/>
          <g>
            <path class="b4ca904f-893e-4110-8ff5-669a358bed0c" d="M180.282,64.55a.1.1,0,0,1-.1-.105V62.292a.1.1,0,1,1,.209,0v2.153A.1.1,0,0,1,180.282,64.55Z"/>
            <path class="b4ca904f-893e-4110-8ff5-669a358bed0c" d="M182.226,63.392a.1.1,0,0,1-.1-.105V55.994a.1.1,0,1,1,.209,0v7.293A.1.1,0,0,1,182.226,63.392Z"/>
            <path class="b4ca904f-893e-4110-8ff5-669a358bed0c" d="M178.339,60.9a.1.1,0,0,1-.1-.1v-4.69a.1.1,0,1,1,.209,0V60.8A.1.1,0,0,1,178.339,60.9Z"/>
            <path class="b4ca904f-893e-4110-8ff5-669a358bed0c" d="M180.282,59.9a.1.1,0,0,1-.1-.105V54.333a.1.1,0,1,1,.209,0V59.8A.1.1,0,0,1,180.282,59.9Z"/>
          </g>
          <g>
            <ellipse class="a36b3d44-7990-4416-941d-f001879237ed" cx="188.04" cy="68.657" rx="0.48" ry="0.727"/>
            <ellipse class="a36b3d44-7990-4416-941d-f001879237ed" cx="189.479" cy="68.657" rx="0.48" ry="0.727"/>
          </g>
          <g>
            <ellipse class="a36b3d44-7990-4416-941d-f001879237ed" cx="200.404" cy="92.033" rx="0.48" ry="0.727"/>
            <ellipse class="a36b3d44-7990-4416-941d-f001879237ed" cx="201.843" cy="92.033" rx="0.48" ry="0.727"/>
          </g>
          <g>
            <path class="b4ca904f-893e-4110-8ff5-669a358bed0c" d="M165.223,100.958a.15.15,0,0,1-.11-.04.17.17,0,0,1-.05-.12.165.165,0,0,1,.05-.11.169.169,0,0,1,.221,0,.165.165,0,0,1,.05.11.17.17,0,0,1-.05.12A.21.21,0,0,1,165.223,100.958Z"/>
            <path class="b4ca904f-893e-4110-8ff5-669a358bed0c" d="M165.063,107.358a.164.164,0,0,1,.16-.16h0a.159.159,0,0,1,.161.16h0a.159.159,0,0,1-.161.16h0A.164.164,0,0,1,165.063,107.358Zm0-.82a.164.164,0,0,1,.16-.16h0a.159.159,0,0,1,.161.16h0a.159.159,0,0,1-.161.16h0A.164.164,0,0,1,165.063,106.538Zm0-.82a.164.164,0,0,1,.16-.16h0a.159.159,0,0,1,.161.16h0a.159.159,0,0,1-.161.16h0A.164.164,0,0,1,165.063,105.718Zm0-.82a.164.164,0,0,1,.16-.16h0a.159.159,0,0,1,.161.16h0a.159.159,0,0,1-.161.16h0A.164.164,0,0,1,165.063,104.9Zm0-.82a.164.164,0,0,1,.16-.16h0a.159.159,0,0,1,.161.16h0a.159.159,0,0,1-.161.16h0A.164.164,0,0,1,165.063,104.078Zm0-.82a.172.172,0,0,1,.16-.16h0a.165.165,0,0,1,.161.16h0a.159.159,0,0,1-.161.16h0A.164.164,0,0,1,165.063,103.258Zm0-.82a.163.163,0,0,1,.16-.15h0a.157.157,0,0,1,.161.15h0a.159.159,0,0,1-.161.16h0A.164.164,0,0,1,165.063,102.438Zm0-.82a.163.163,0,0,1,.16-.15h0a.157.157,0,0,1,.161.15h0a.159.159,0,0,1-.161.16h0A.164.164,0,0,1,165.063,101.618Z"/>
            <path class="b4ca904f-893e-4110-8ff5-669a358bed0c" d="M165.223,108.338a.161.161,0,0,1-.11-.05.146.146,0,0,1,0-.22.158.158,0,0,1,.221,0,.146.146,0,0,1,0,.22A.161.161,0,0,1,165.223,108.338Z"/>
            <path class="b4ca904f-893e-4110-8ff5-669a358bed0c" d="M168.733,111.458a.183.183,0,0,1-.019-.23h0a.168.168,0,0,1,.229-.01h0a.156.156,0,0,1,.011.22h0a.143.143,0,0,1-.12.06h0A.219.219,0,0,1,168.733,111.458Zm-.6-.53a.158.158,0,0,1-.021-.22h0a.171.171,0,0,1,.231-.02h0a.157.157,0,0,1,.009.22h0a.156.156,0,0,1-.12.06h0A.126.126,0,0,1,168.134,110.928Zm-.6-.53a.149.149,0,0,1-.019-.22h0a.156.156,0,0,1,.219-.01h0a.156.156,0,0,1,.021.22h0a.187.187,0,0,1-.12.05h0A.13.13,0,0,1,167.533,110.4Zm-.6-.52a.149.149,0,0,1-.019-.22h0a.15.15,0,0,1,.22-.02h0a.157.157,0,0,1,.019.22h0a.173.173,0,0,1-.12.06h0A.157.157,0,0,1,166.933,109.878Zm-.61-.53a.159.159,0,0,1-.01-.22h0a.157.157,0,0,1,.22-.02h0a.157.157,0,0,1,.011.22h0a.14.14,0,0,1-.111.06h0A.15.15,0,0,1,166.323,109.348Zm-.6-.53a.156.156,0,0,1-.009-.22h0a.155.155,0,0,1,.219-.01h0a.154.154,0,0,1,.01.22h0a.162.162,0,0,1-.12.05h0A.147.147,0,0,1,165.723,108.818Z"/>
            <path class="b4ca904f-893e-4110-8ff5-669a358bed0c" d="M169.443,112.018a.147.147,0,0,1-.109-.04.162.162,0,0,1-.051-.11.166.166,0,0,1,.051-.12.179.179,0,0,1,.22,0,.159.159,0,0,1,.04.12.15.15,0,0,1-.04.11A.154.154,0,0,1,169.443,112.018Z"/>
            <path class="b4ca904f-893e-4110-8ff5-669a358bed0c" d="M169.924,111.438a.157.157,0,0,1,.009-.22h0a.171.171,0,0,1,.231.01h0a.169.169,0,0,1-.021.23h0a.175.175,0,0,1-.1.04h0A.156.156,0,0,1,169.924,111.438Zm.6-.52a.161.161,0,0,1,.021-.23h0a.158.158,0,0,1,.22.02h0a.16.16,0,0,1-.02.22h0a.13.13,0,0,1-.1.04h0A.187.187,0,0,1,170.523,110.918Zm.6-.53a.148.148,0,0,1,.019-.22h0a.157.157,0,0,1,.22.01h0a.148.148,0,0,1-.019.22h0a.131.131,0,0,1-.1.04h0A.182.182,0,0,1,171.124,110.388Zm.6-.53a.169.169,0,0,1,.021-.22h0a.157.157,0,0,1,.22.01h0a.17.17,0,0,1-.01.23h0a.2.2,0,0,1-.11.03h0A.162.162,0,0,1,171.723,109.858Zm.611-.52a.167.167,0,0,1,.01-.23h0a.155.155,0,0,1,.219.02h0a.157.157,0,0,1-.009.22h0a.147.147,0,0,1-.1.04h0A.162.162,0,0,1,172.334,109.338Zm.6-.53a.158.158,0,0,1,.01-.22h0a.171.171,0,0,1,.231.01h0a.158.158,0,0,1-.021.22h0a.139.139,0,0,1-.1.04h0A.17.17,0,0,1,172.933,108.808Z"/>
            <path class="b4ca904f-893e-4110-8ff5-669a358bed0c" d="M173.653,108.328a.147.147,0,0,1-.109-.04.146.146,0,0,1,0-.22.157.157,0,0,1,.22,0,.148.148,0,0,1,0,.22A.154.154,0,0,1,173.653,108.328Z"/>
            <path class="b4ca904f-893e-4110-8ff5-669a358bed0c" d="M173.494,107.358a.157.157,0,0,1,.159-.16h0a.157.157,0,0,1,.16.16h0a.157.157,0,0,1-.16.16h0A.157.157,0,0,1,173.494,107.358Zm0-.82a.157.157,0,0,1,.159-.16h0a.157.157,0,0,1,.16.16h0a.157.157,0,0,1-.16.16h0A.157.157,0,0,1,173.494,106.538Zm0-.82a.157.157,0,0,1,.159-.16h0a.157.157,0,0,1,.16.16h0a.157.157,0,0,1-.16.16h0A.157.157,0,0,1,173.494,105.718Zm0-.82a.157.157,0,0,1,.159-.16h0a.157.157,0,0,1,.16.16h0a.157.157,0,0,1-.16.16h0A.157.157,0,0,1,173.494,104.9Zm0-.82a.157.157,0,0,1,.159-.16h0a.157.157,0,0,1,.16.16h0a.157.157,0,0,1-.16.16h0A.157.157,0,0,1,173.494,104.078Zm0-.82a.155.155,0,0,1,.159-.15h0a.155.155,0,0,1,.16.15h0a.157.157,0,0,1-.16.16h0A.157.157,0,0,1,173.494,103.258Zm0-.82a.155.155,0,0,1,.159-.15h0a.155.155,0,0,1,.16.15h0a.157.157,0,0,1-.16.16h0A.157.157,0,0,1,173.494,102.438Zm0-.82a.155.155,0,0,1,.159-.15h0a.155.155,0,0,1,.16.15h0a.157.157,0,0,1-.16.16h0A.157.157,0,0,1,173.494,101.618Z"/>
            <path class="b4ca904f-893e-4110-8ff5-669a358bed0c" d="M173.653,100.958a.147.147,0,0,1-.109-.04.166.166,0,0,1-.05-.12.161.161,0,0,1,.05-.11.167.167,0,0,1,.22,0,.159.159,0,0,1,.049.11.165.165,0,0,1-.049.12A.154.154,0,0,1,173.653,100.958Z"/>
            <path class="b4ca904f-893e-4110-8ff5-669a358bed0c" d="M172.954,100.4a.162.162,0,0,1-.021-.23h0a.157.157,0,0,1,.22-.01h0a.159.159,0,0,1,.021.22h0a.147.147,0,0,1-.12.05h0A.148.148,0,0,1,172.954,100.4Zm-.61-.53a.155.155,0,0,1-.01-.22h0a.148.148,0,0,1,.22-.02h0a.157.157,0,0,1,.009.22h0a.141.141,0,0,1-.12.06h0A.143.143,0,0,1,172.344,99.868Zm-.6-.53a.156.156,0,0,1-.011-.22h0a.157.157,0,0,1,.221-.01h0a.157.157,0,0,1,.01.22h0a.169.169,0,0,1-.12.05h0A.14.14,0,0,1,171.744,99.338Zm-.6-.52a.169.169,0,0,1-.019-.23h0a.168.168,0,0,1,.229-.01h0a.155.155,0,0,1,.01.22h0a.144.144,0,0,1-.119.05h0A.174.174,0,0,1,171.143,98.818Zm-.6-.53a.15.15,0,0,1-.021-.22h0a.151.151,0,0,1,.221-.02h0a.151.151,0,0,1,.02.22h0a.16.16,0,0,1-.121.06h0A.172.172,0,0,1,170.544,98.288Zm-.6-.53a.148.148,0,0,1-.019-.22h0a.168.168,0,0,1,.219-.02h0a.169.169,0,0,1,.021.23h0a.185.185,0,0,1-.12.05h0A.119.119,0,0,1,169.943,97.758Z"/>
            <path class="b4ca904f-893e-4110-8ff5-669a358bed0c" d="M169.443,97.268a.133.133,0,0,1-.109-.04.144.144,0,0,1,0-.22.156.156,0,0,1,.22,0,.171.171,0,0,1,0,.22A.154.154,0,0,1,169.443,97.268Z"/>
            <path class="b4ca904f-893e-4110-8ff5-669a358bed0c" d="M165.714,100.378a.157.157,0,0,1,.009-.22h0a.156.156,0,0,1,.22.01h0a.167.167,0,0,1-.01.23h0a.21.21,0,0,1-.11.04h0A.136.136,0,0,1,165.714,100.378Zm.6-.53a.159.159,0,0,1,.01-.22h0a.158.158,0,0,1,.221.02h0a.157.157,0,0,1-.011.22h0a.2.2,0,0,1-.1.04h0A.145.145,0,0,1,166.313,99.848Zm.6-.52a.154.154,0,0,1,.01-.22h0a.168.168,0,0,1,.229.01h0a.168.168,0,0,1-.019.22h0a.147.147,0,0,1-.1.04h0A.162.162,0,0,1,166.914,99.328Zm.6-.53a.15.15,0,0,1,.019-.22h0a.159.159,0,0,1,.221.01h0a.156.156,0,0,1-.021.22h0a.125.125,0,0,1-.1.04h0A.146.146,0,0,1,167.514,98.8Zm.6-.53a.158.158,0,0,1,.021-.22h0a.149.149,0,0,1,.219.02h0a.157.157,0,0,1-.009.22h0a.216.216,0,0,1-.111.04h0A.156.156,0,0,1,168.113,98.268Zm.6-.52a.183.183,0,0,1,.019-.23h0a.169.169,0,0,1,.221.02h0a.155.155,0,0,1-.011.22h0a.147.147,0,0,1-.109.04h0A.208.208,0,0,1,168.714,97.748Z"/>
          </g>
          <g>
            <path class="b4ca904f-893e-4110-8ff5-669a358bed0c" d="M195.048,118.9a.1.1,0,0,1-.1-.1v-2.961a.1.1,0,1,1,.209,0V118.8A.1.1,0,0,1,195.048,118.9Z"/>
            <path class="b4ca904f-893e-4110-8ff5-669a358bed0c" d="M193.1,124.394a.1.1,0,0,1-.1-.105v-6.405a.1.1,0,1,1,.209,0v6.405A.1.1,0,0,1,193.1,124.394Z"/>
            <path class="b4ca904f-893e-4110-8ff5-669a358bed0c" d="M196.991,124.28a.1.1,0,0,1-.1-.105v-5.29a.1.1,0,1,1,.209,0v5.29A.1.1,0,0,1,196.991,124.28Z"/>
            <path class="b4ca904f-893e-4110-8ff5-669a358bed0c" d="M195.048,126.054a.1.1,0,0,1-.1-.105v-4.688a.1.1,0,1,1,.209,0v4.688A.1.1,0,0,1,195.048,126.054Z"/>
          </g>
          <g>
            <path class="b4ca904f-893e-4110-8ff5-669a358bed0c" d="M163.566,104.426h-3.695a.1.1,0,0,1,0-.21h3.695a.1.1,0,0,1,0,.21Z"/>
            <path class="b4ca904f-893e-4110-8ff5-669a358bed0c" d="M159,104.426h-2.11a.105.105,0,0,1,0-.21H159a.105.105,0,0,1,0,.21Z"/>
            <path class="b4ca904f-893e-4110-8ff5-669a358bed0c" d="M158.116,102.623h-1.223a.105.105,0,0,1,0-.21h1.223a.1.1,0,0,1,0,.21Z"/>
            <path class="b4ca904f-893e-4110-8ff5-669a358bed0c" d="M159.759,106.184h-2.866a.1.1,0,0,1,0-.209h2.866a.1.1,0,0,1,0,.209Z"/>
          </g>
          <polygon class="b4ca904f-893e-4110-8ff5-669a358bed0c" points="208.982 83.798 208.982 87.276 210.97 89.016 212.958 87.276 212.958 83.798 210.97 82.058 208.982 83.798"/>
          <g class="a6236702-49da-4521-8dac-a0f4a99c8950">
            <g>
              <g>
                <line class="b4ca904f-893e-4110-8ff5-669a358bed0c" x1="213.056" y1="83.721" x2="210.969" y2="85.538"/>
                <path class="a36b3d44-7990-4416-941d-f001879237ed" d="M210.969,85.643a.1.1,0,0,1-.069-.184l2.088-1.817a.1.1,0,1,1,.137.158l-2.088,1.818A.1.1,0,0,1,210.969,85.643Z"/>
              </g>
              <path class="a36b3d44-7990-4416-941d-f001879237ed" d="M210.971,89.6h0a.1.1,0,0,1-.1-.1V85.586l-2.088-1.814a.1.1,0,1,1,.137-.158l2.124,1.845a.1.1,0,0,1,.036.079V89.5A.1.1,0,0,1,210.971,89.6Z"/>
            </g>
          </g>
          <polygon class="b4ca904f-893e-4110-8ff5-669a358bed0c" points="167.467 120.606 167.467 124.085 169.455 125.824 171.444 124.085 171.444 120.606 169.455 118.867 167.467 120.606"/>
          <g>
            <polygon class="b4ca904f-893e-4110-8ff5-669a358bed0c" points="155.395 100.223 155.395 107.515 151.228 111.161 147.06 107.515 147.06 100.223 151.228 96.577 155.395 100.223"/>
            <g class="f4689fde-bca9-4216-b8c3-7f43c6c1604e">
              <g>
                <line class="b4ca904f-893e-4110-8ff5-669a358bed0c" x1="147.06" y1="100.223" x2="151.231" y2="103.872"/>
                <path class="a36b3d44-7990-4416-941d-f001879237ed" d="M151.231,103.974a.107.107,0,0,1-.067-.025l-4.171-3.649a.1.1,0,0,1-.009-.144.1.1,0,0,1,.144-.01L151.3,103.8a.1.1,0,0,1,.008.144A.1.1,0,0,1,151.231,103.974Z"/>
              </g>
              <path class="a36b3d44-7990-4416-941d-f001879237ed" d="M151.231,112.434a.1.1,0,0,1-.1-.1v-8.461a.1.1,0,1,1,.2,0v8.461A.1.1,0,0,1,151.231,112.434Z"/>
              <g>
                <line class="b4ca904f-893e-4110-8ff5-669a358bed0c" x1="155.395" y1="100.223" x2="151.231" y2="103.872"/>
                <path class="a36b3d44-7990-4416-941d-f001879237ed" d="M151.231,103.974a.1.1,0,0,1-.076-.035.1.1,0,0,1,.009-.144l4.164-3.649a.1.1,0,0,1,.135.154l-4.164,3.649A.11.11,0,0,1,151.231,103.974Z"/>
              </g>
            </g>
            <g class="f4689fde-bca9-4216-b8c3-7f43c6c1604e">
              <path d="M147.853,94.508a6.586,6.586,0,0,0-.471,1.731,16.9,16.9,0,0,0-.424,3.328,8.486,8.486,0,0,0,1.309,4.165c.627,1.095,1.448,1.905,2.023,3.073a6.377,6.377,0,0,1,.282.663,11.884,11.884,0,0,1,.553,4.628c0,.076-.012.548-.1.552l-5.651.3-.431-18.261A17.73,17.73,0,0,1,147.853,94.508Z"/>
            </g>
          </g>
          <g class="b0ac5244-7cd3-4e72-95c3-c1541c17060c">
            <g>
              <polygon class="a36b3d44-7990-4416-941d-f001879237ed" points="169.522 122.426 169.386 122.268 171.472 120.451 171.609 120.609 169.522 122.426"/>
              <polygon class="a36b3d44-7990-4416-941d-f001879237ed" points="169.56 126.307 169.351 126.307 169.352 122.395 167.264 120.58 167.401 120.422 169.561 122.299 169.56 126.307"/>
            </g>
          </g>
          <g>
            <polygon class="b4ca904f-893e-4110-8ff5-669a358bed0c" points="199.7 131.623 199.7 139.764 195.048 143.834 190.395 139.764 190.395 131.623 195.048 127.552 199.7 131.623"/>
            <g class="bad63c84-dc08-45f6-bcb3-1a50e03c62e3">
              <g>
                <line class="b4ca904f-893e-4110-8ff5-669a358bed0c" x1="190.395" y1="131.623" x2="195.051" y2="135.697"/>
                <path class="a36b3d44-7990-4416-941d-f001879237ed" d="M195.052,135.81a.115.115,0,0,1-.076-.028l-4.656-4.074a.114.114,0,0,1-.011-.16.115.115,0,0,1,.162-.011l4.656,4.074a.114.114,0,0,1,.011.16A.115.115,0,0,1,195.052,135.81Z"/>
              </g>
              <path class="a36b3d44-7990-4416-941d-f001879237ed" d="M195.052,145.256a.114.114,0,0,1-.114-.114V135.7a.114.114,0,1,1,.227,0v9.445A.114.114,0,0,1,195.052,145.256Z"/>
              <g>
                <line class="b4ca904f-893e-4110-8ff5-669a358bed0c" x1="199.7" y1="131.623" x2="195.051" y2="135.697"/>
                <path class="a36b3d44-7990-4416-941d-f001879237ed" d="M195.052,135.81a.112.112,0,0,1-.086-.039.115.115,0,0,1,.01-.16l4.649-4.074a.114.114,0,1,1,.15.171l-4.648,4.074A.115.115,0,0,1,195.052,135.81Z"/>
              </g>
            </g>
            <g class="bad63c84-dc08-45f6-bcb3-1a50e03c62e3">
              <path d="M191.28,125.243a7.356,7.356,0,0,0-.526,1.932,18.727,18.727,0,0,0-.473,3.715,9.481,9.481,0,0,0,1.46,4.65c.7,1.223,1.618,2.127,2.26,3.431a6.867,6.867,0,0,1,.314.741,13.239,13.239,0,0,1,.617,5.166c0,.085-.013.611-.107.617l-6.308.332-.482-20.388A19.721,19.721,0,0,1,191.28,125.243Z"/>
            </g>
          </g>
          <path class="a36b3d44-7990-4416-941d-f001879237ed" d="M180.287,48.724a.131.131,0,0,1-.131-.131V43.408a.131.131,0,0,1,.262,0v5.185A.131.131,0,0,1,180.287,48.724Z"/>
          <path class="a36b3d44-7990-4416-941d-f001879237ed" d="M180.287,51.847a.131.131,0,0,1-.131-.131V43.408a.131.131,0,0,1,.262,0v8.308A.131.131,0,0,1,180.287,51.847Z"/>
          <polygon class="b4ca904f-893e-4110-8ff5-669a358bed0c" points="185.646 38.712 185.646 48.096 180.282 52.789 174.919 48.096 174.919 38.712 180.282 34.019 185.646 38.712"/>
          <g class="ac762db6-43e7-44df-8559-47ffb5513168">
            <g>
              <g>
                <line class="b4ca904f-893e-4110-8ff5-669a358bed0c" x1="174.919" y1="38.712" x2="180.287" y2="43.408"/>
                <path class="a36b3d44-7990-4416-941d-f001879237ed" d="M180.287,43.539a.133.133,0,0,1-.086-.032l-5.368-4.7a.13.13,0,0,1-.013-.185.134.134,0,0,1,.185-.012l5.368,4.7a.133.133,0,0,1,.013.186A.135.135,0,0,1,180.287,43.539Z"/>
              </g>
              <path class="a36b3d44-7990-4416-941d-f001879237ed" d="M180.287,54.428a.131.131,0,0,1-.131-.131V43.408a.131.131,0,0,1,.262,0V54.3A.131.131,0,0,1,180.287,54.428Z"/>
              <g>
                <line class="b4ca904f-893e-4110-8ff5-669a358bed0c" x1="185.646" y1="38.712" x2="180.287" y2="43.408"/>
                <path class="a36b3d44-7990-4416-941d-f001879237ed" d="M180.287,43.539a.135.135,0,0,1-.1-.044.132.132,0,0,1,.013-.186l5.358-4.7a.134.134,0,0,1,.185.012.13.13,0,0,1-.013.185l-5.358,4.7A.135.135,0,0,1,180.287,43.539Z"/>
              </g>
            </g>
          </g>
          <g class="ac762db6-43e7-44df-8559-47ffb5513168">
            <path d="M175.94,31.357a8.458,8.458,0,0,0-.607,2.228,21.677,21.677,0,0,0-.546,4.282,10.938,10.938,0,0,0,1.684,5.361c.807,1.409,1.865,2.452,2.6,3.954a8.2,8.2,0,0,1,.362.854,15.292,15.292,0,0,1,.712,5.956c-.006.1-.016.705-.124.711l-7.272.383-.555-23.5S176.071,31.143,175.94,31.357Z"/>
          </g>
          <polygon class="b4ca904f-893e-4110-8ff5-669a358bed0c" points="159.996 49.96 159.996 53.16 161.824 54.76 163.653 53.16 163.653 49.96 161.824 48.36 159.996 49.96"/>
          <g class="e400d4b8-d5f8-435b-a942-1315a537815a">
            <g>
              <line class="b4ca904f-893e-4110-8ff5-669a358bed0c" x1="163.825" y1="49.802" x2="161.823" y2="51.561"/>
              <path class="a36b3d44-7990-4416-941d-f001879237ed" d="M161.823,51.666a.107.107,0,0,1-.079-.035.106.106,0,0,1,.01-.148l2-1.76a.1.1,0,1,1,.138.157l-2,1.76A.1.1,0,0,1,161.823,51.666Z"/>
            </g>
            <path class="a36b3d44-7990-4416-941d-f001879237ed" d="M161.825,55.026h0a.1.1,0,0,1-.1-.105V51.609L159.859,50a.1.1,0,1,1,.137-.158l1.9,1.645a.1.1,0,0,1,.037.079v3.36A.1.1,0,0,1,161.825,55.026Z"/>
          </g>
        </g>
      </g>
    </g>
  </g>
</svg>
