<svg id="b31d6e15-1c69-47e3-8482-6a5c6c1f81af" data-name="Layer 1" xmlns="http://www.w3.org/2000/svg" xmlns:xlink="http://www.w3.org/1999/xlink" viewBox="0 0 262 180">
  <defs>
    <style>
      .f1b5bd90-3492-4450-b1a2-85f8fc9b70be {
        fill: none;
      }

      .b30d8ad8-0279-4530-a401-87b3597cdf47 {
        fill: #f56d6d;
      }

      .a655273f-3ff1-4749-8bc0-1b92f0606a7c {
        fill: #fc0000;
      }

      .a4d7983b-bd26-463f-8137-157483cce032 {
        fill: #fddbdb;
      }

      .a6d101b1-430c-4d87-b097-8643cd2c1486 {
        fill: #fff;
      }

      .a4f36617-a6c0-4d7c-93a3-d35ae9aee61f {
        clip-path: url(#fefec9c3-9dc3-4728-a449-93748af7ca92);
      }

      .bf436909-ea33-4f92-997c-c5bf6cdbbeed {
        clip-path: url(#f90da9c2-53be-45bf-bed0-b0e01dcd8497);
      }

      .a4862dc6-a07e-4002-987d-bcf546116c5a {
        fill: #e00;
      }

      .a86fdf98-68d2-4639-ace2-b417254156b9 {
        clip-path: url(#a48353ff-e2ba-469a-99e2-30ec001cfb7f);
      }

      .a47210f6-9a9d-4bb5-bf86-a5db847216c5 {
        clip-path: url(#bc67fb9c-7ef2-4147-8017-708902f8fb3b);
      }

      .e3c670b2-fe3d-4788-bccb-e104680b675d {
        clip-path: url(#aa8a5350-adaf-4110-af49-e3d49efcd763);
      }

      .f82e6290-154b-470c-9888-209d2ef6b470 {
        clip-path: url(#a94fa314-fc31-4070-a08f-c468ce7fdde7);
      }

      .ab084f51-1d7d-42f7-81a1-24a87a9b76bc {
        clip-path: url(#a65e53c3-3d6e-41da-9d17-09bf3053837a);
      }

      .af477c50-91c6-4656-a683-1ee214d0b615 {
        clip-path: url(#e522702b-0367-4af2-afca-91069020e9e3);
      }

      .bbe95d4b-75f7-4672-9404-e1011c199913 {
        clip-path: url(#b5f60a6a-68f7-4612-95f4-28bf3d7abc4b);
      }

      .a59f6389-7680-45e2-a350-7ca7b1ea1672 {
        isolation: isolate;
      }

      .fa2fcd4d-dfd7-48d7-90c9-7df987e9f6a0 {
        clip-path: url(#a05902e5-026b-45b0-91b0-f876b32e62ca);
      }

      .b0f98f15-5eaa-4f0d-8836-d6a68b433218 {
        clip-path: url(#b6977596-36ca-4828-b536-3a3983eda176);
      }

      .a0eadfa8-ecbd-4aa6-a2d7-2266ffc938e6 {
        clip-path: url(#f8c498fd-06c2-4576-8876-512db00f32a3);
      }

      .a79754a4-bba2-4cce-b8c4-6b2b840603fd {
        fill: #231f20;
      }

      .bcc06152-e411-419f-8c5f-6fd7888df396 {
        fill: url(#ebc1c908-bc1e-4c56-8370-ab5af8a89050);
      }
    </style>
    <clipPath id="fefec9c3-9dc3-4728-a449-93748af7ca92">
      <circle class="f1b5bd90-3492-4450-b1a2-85f8fc9b70be" cx="122.912" cy="80.575" r="53.804"/>
    </clipPath>
    <clipPath id="f90da9c2-53be-45bf-bed0-b0e01dcd8497">
      <rect class="f1b5bd90-3492-4450-b1a2-85f8fc9b70be" x="120.984" y="26.771" width="54.961" height="108.765"/>
    </clipPath>
    <clipPath id="a48353ff-e2ba-469a-99e2-30ec001cfb7f">
      <rect class="f1b5bd90-3492-4450-b1a2-85f8fc9b70be" x="67.951" y="24.843" width="53.226" height="110.694"/>
    </clipPath>
    <clipPath id="bc67fb9c-7ef2-4147-8017-708902f8fb3b">
      <path class="f1b5bd90-3492-4450-b1a2-85f8fc9b70be" d="M129.043,97.629H113.376V107.7a4.642,4.642,0,0,1-2.757,4.242l-4.484,1.994h18.32V113.3h4.588Z"/>
    </clipPath>
    <clipPath id="aa8a5350-adaf-4110-af49-e3d49efcd763">
      <path class="f1b5bd90-3492-4450-b1a2-85f8fc9b70be" d="M132.795,74.236a8.56,8.56,0,1,0,9.532,7.463A8.562,8.562,0,0,0,132.795,74.236Zm1.479,12.147a3.676,3.676,0,1,1,3.206-4.094A3.676,3.676,0,0,1,134.274,86.383Z"/>
    </clipPath>
    <clipPath id="a94fa314-fc31-4070-a08f-c468ce7fdde7">
      <circle class="f1b5bd90-3492-4450-b1a2-85f8fc9b70be" cx="67.855" cy="110.949" r="23.431"/>
    </clipPath>
    <clipPath id="a65e53c3-3d6e-41da-9d17-09bf3053837a">
      <rect class="f1b5bd90-3492-4450-b1a2-85f8fc9b70be" x="75.472" y="121.073" width="9.257" height="10.028" transform="translate(160.201 252.174) rotate(180)"/>
    </clipPath>
    <clipPath id="e522702b-0367-4af2-afca-91069020e9e3">
      <rect class="f1b5bd90-3492-4450-b1a2-85f8fc9b70be" x="48.666" y="95.232" width="9.257" height="10.028" transform="translate(106.59 200.492) rotate(180)"/>
    </clipPath>
    <clipPath id="b5f60a6a-68f7-4612-95f4-28bf3d7abc4b">
      <circle class="f1b5bd90-3492-4450-b1a2-85f8fc9b70be" cx="173.438" cy="101.499" r="32.88"/>
    </clipPath>
    <clipPath id="a05902e5-026b-45b0-91b0-f876b32e62ca">
      <polygon class="b30d8ad8-0279-4530-a401-87b3597cdf47" points="154.412 92.532 146.25 97.275 146.225 107.071 154.444 111.817 162.606 107.073 162.631 97.277 154.412 92.532"/>
    </clipPath>
    <clipPath id="b6977596-36ca-4828-b536-3a3983eda176">
      <polygon class="f1b5bd90-3492-4450-b1a2-85f8fc9b70be" points="156.341 89.061 148.179 93.804 148.153 103.6 156.372 108.345 164.534 103.602 164.56 93.806 156.341 89.061"/>
    </clipPath>
    <clipPath id="f8c498fd-06c2-4576-8876-512db00f32a3">
      <polygon class="f1b5bd90-3492-4450-b1a2-85f8fc9b70be" points="175.896 104.887 175.858 119.634 163.485 112.491 163.524 97.744 175.896 104.887"/>
    </clipPath>
    <pattern id="ebc1c908-bc1e-4c56-8370-ab5af8a89050" data-name="10 dpi 20%" width="28.8" height="28.801" patternTransform="translate(41.722 44.227) scale(0.148)" patternUnits="userSpaceOnUse" viewBox="0 0 28.8 28.801">
      <rect class="f1b5bd90-3492-4450-b1a2-85f8fc9b70be" width="28.8" height="28.801"/>
      <g>
        <path class="a655273f-3ff1-4749-8bc0-1b92f0606a7c" d="M28.8,30.24A1.44,1.44,0,1,0,27.359,28.8,1.439,1.439,0,0,0,28.8,30.24Z"/>
        <path class="a655273f-3ff1-4749-8bc0-1b92f0606a7c" d="M14.4,30.24A1.44,1.44,0,1,0,12.96,28.8,1.44,1.44,0,0,0,14.4,30.24Z"/>
        <path class="a655273f-3ff1-4749-8bc0-1b92f0606a7c" d="M28.8,15.842A1.441,1.441,0,1,0,27.359,14.4,1.441,1.441,0,0,0,28.8,15.842Z"/>
        <path class="a655273f-3ff1-4749-8bc0-1b92f0606a7c" d="M14.4,15.842A1.441,1.441,0,1,0,12.96,14.4,1.443,1.443,0,0,0,14.4,15.842Z"/>
        <path class="a655273f-3ff1-4749-8bc0-1b92f0606a7c" d="M7.2,23.041A1.441,1.441,0,1,0,5.76,21.6,1.44,1.44,0,0,0,7.2,23.041Z"/>
        <path class="a655273f-3ff1-4749-8bc0-1b92f0606a7c" d="M21.6,23.041a1.441,1.441,0,1,0-1.44-1.439A1.44,1.44,0,0,0,21.6,23.041Z"/>
        <path class="a655273f-3ff1-4749-8bc0-1b92f0606a7c" d="M7.2,8.641A1.441,1.441,0,1,0,5.76,7.2,1.44,1.44,0,0,0,7.2,8.641Z"/>
        <path class="a655273f-3ff1-4749-8bc0-1b92f0606a7c" d="M21.6,8.641a1.441,1.441,0,1,0-1.44-1.44A1.441,1.441,0,0,0,21.6,8.641Z"/>
      </g>
      <g>
        <path class="a655273f-3ff1-4749-8bc0-1b92f0606a7c" d="M0,30.24A1.439,1.439,0,0,0,1.439,28.8,1.44,1.44,0,0,0,0,27.361,1.441,1.441,0,0,0-1.441,28.8,1.44,1.44,0,0,0,0,30.24Z"/>
        <path class="a655273f-3ff1-4749-8bc0-1b92f0606a7c" d="M0,15.842A1.441,1.441,0,0,0,1.439,14.4,1.44,1.44,0,0,0,0,12.961,1.441,1.441,0,0,0-1.441,14.4,1.442,1.442,0,0,0,0,15.842Z"/>
      </g>
      <g>
        <path class="a655273f-3ff1-4749-8bc0-1b92f0606a7c" d="M28.8,1.44A1.44,1.44,0,0,0,30.239,0,1.439,1.439,0,0,0,28.8-1.439,1.44,1.44,0,0,0,27.359,0,1.441,1.441,0,0,0,28.8,1.44Z"/>
        <path class="a655273f-3ff1-4749-8bc0-1b92f0606a7c" d="M14.4,1.44A1.441,1.441,0,0,0,15.84,0,1.44,1.44,0,0,0,14.4-1.439,1.438,1.438,0,0,0,12.96,0,1.439,1.439,0,0,0,14.4,1.44Z"/>
      </g>
      <path class="a655273f-3ff1-4749-8bc0-1b92f0606a7c" d="M0,1.44A1.44,1.44,0,0,0,1.439,0,1.439,1.439,0,0,0,0-1.439,1.44,1.44,0,0,0-1.441,0,1.441,1.441,0,0,0,0,1.44Z"/>
    </pattern>
  </defs>
  <g>
    <g>
      <path class="a4d7983b-bd26-463f-8137-157483cce032" d="M46.931,57.048C33.432,82.5,50.788,104.1,71.808,120.5c20.454,15.95,25.308,38.27,55.154,39.919,34.9,1.928,39.635-26.6,62.1-45.7,20.634-17.549,34.519-40.5,22.948-63.253-17.981-35.363-61.132-11.185-91.795-10.221S62.15,28.35,46.931,57.048Z"/>
      <g>
        <path class="a6d101b1-430c-4d87-b097-8643cd2c1486" d="M163.449,31.436a8.938,8.938,0,0,0-2.633.394,11.918,11.918,0,0,0-21.654,1.313,8.1,8.1,0,0,0-7.2,4.959,5.706,5.706,0,1,0-1.419,11.232h32.9a8.949,8.949,0,0,0,0-17.9Z"/>
        <path class="a4d7983b-bd26-463f-8137-157483cce032" d="M150.288,25.965A11.437,11.437,0,0,1,160.4,32.049l.181.341.369-.113a8.483,8.483,0,1,1,2.5,16.59h-32.9a5.238,5.238,0,1,1,1.3-10.312l.391.1.156-.372a7.652,7.652,0,0,1,6.781-4.673l.31-.01.111-.289a11.521,11.521,0,0,1,10.69-7.346m0-.467a11.919,11.919,0,0,0-11.126,7.645,8.1,8.1,0,0,0-7.2,4.959,5.706,5.706,0,1,0-1.419,11.232h32.9a8.949,8.949,0,1,0-2.633-17.5A11.916,11.916,0,0,0,150.288,25.5Z"/>
      </g>
      <g>
        <path class="a6d101b1-430c-4d87-b097-8643cd2c1486" d="M150.288,27.427a9.979,9.979,0,0,1,8.825,5.308"/>
        <path class="a4d7983b-bd26-463f-8137-157483cce032" d="M159.113,32.969a.234.234,0,0,1-.206-.124,9.746,9.746,0,0,0-8.619-5.185.234.234,0,0,1,0-.467,10.21,10.21,0,0,1,9.031,5.433.233.233,0,0,1-.1.316A.229.229,0,0,1,159.113,32.969Z"/>
      </g>
      <g>
        <path class="a6d101b1-430c-4d87-b097-8643cd2c1486" d="M163.449,33.364a7.029,7.029,0,0,1,7.021,7.021"/>
        <path class="a4d7983b-bd26-463f-8137-157483cce032" d="M170.47,40.619a.234.234,0,0,1-.234-.234,6.8,6.8,0,0,0-6.787-6.787.234.234,0,0,1,0-.468,7.263,7.263,0,0,1,7.254,7.255A.233.233,0,0,1,170.47,40.619Z"/>
      </g>
      <g>
        <circle class="a6d101b1-430c-4d87-b097-8643cd2c1486" cx="122.912" cy="80.575" r="53.804"/>
        <path class="a6d101b1-430c-4d87-b097-8643cd2c1486" d="M122.912,26.771a53.8,53.8,0,1,1-53.8,53.8,53.8,53.8,0,0,1,53.8-53.8m0-.578A54.383,54.383,0,1,0,177.3,80.576a54.444,54.444,0,0,0-54.383-54.383Z"/>
      </g>
      <g class="a4f36617-a6c0-4d7c-93a3-d35ae9aee61f">
        <circle class="a4d7983b-bd26-463f-8137-157483cce032" cx="122.912" cy="80.575" r="53.804"/>
        <g>
          <path class="b30d8ad8-0279-4530-a401-87b3597cdf47" d="M163.449,31.436a8.938,8.938,0,0,0-2.633.394,11.918,11.918,0,0,0-21.654,1.313,8.1,8.1,0,0,0-7.2,4.959,5.706,5.706,0,1,0-1.419,11.232h32.9a8.949,8.949,0,0,0,0-17.9Z"/>
          <ellipse class="b30d8ad8-0279-4530-a401-87b3597cdf47" cx="121.209" cy="117.043" rx="48.578" ry="5.419"/>
          <g class="bf436909-ea33-4f92-997c-c5bf6cdbbeed">
            <g>
              <g>
                <rect class="a6d101b1-430c-4d87-b097-8643cd2c1486" x="113.376" y="97.629" width="15.667" height="15.667"/>
                <path class="b30d8ad8-0279-4530-a401-87b3597cdf47" d="M129.332,113.585H113.087V97.34h16.245Zm-15.667-.579h15.089V97.918H113.665Z"/>
              </g>
              <polygon class="a4d7983b-bd26-463f-8137-157483cce032" points="129.043 106.355 113.376 108.882 113.376 97.629 129.043 97.629 129.043 106.355"/>
              <g>
                <rect class="a4862dc6-a07e-4002-987d-bcf546116c5a" x="80.172" y="53.424" width="82.275" height="52.029"/>
                <rect class="a6d101b1-430c-4d87-b097-8643cd2c1486" x="97.266" y="40.271" width="48.087" height="78.334" transform="translate(200.748 -41.871) rotate(90)"/>
              </g>
              <path class="a6d101b1-430c-4d87-b097-8643cd2c1486" d="M112.6,65.443H93.051a.29.29,0,0,1,0-.579H112.6a.29.29,0,0,1,0,.579Z"/>
            </g>
            <g>
              <polyline class="a6d101b1-430c-4d87-b097-8643cd2c1486" points="105.495 113.841 105.495 111.752 129.18 111.752 136.865 113.841"/>
              <path class="b30d8ad8-0279-4530-a401-87b3597cdf47" d="M136.789,114.121l-7.648-2.08H105.784v1.8h-.578v-2.089a.289.289,0,0,1,.289-.289H129.18a.289.289,0,0,1,.076.01l7.685,2.089Z"/>
            </g>
            <g>
              <rect class="a6d101b1-430c-4d87-b097-8643cd2c1486" x="106.135" y="113.938" width="30.663" height="2.7"/>
              <path class="b30d8ad8-0279-4530-a401-87b3597cdf47" d="M137.087,116.927H105.846v-3.278h31.241Zm-30.663-.578h30.085v-2.122H106.424Z"/>
            </g>
          </g>
        </g>
      </g>
      <g>
        <circle class="a6d101b1-430c-4d87-b097-8643cd2c1486" cx="209.79" cy="114.806" r="17.645"/>
        <path class="a4d7983b-bd26-463f-8137-157483cce032" d="M209.79,132.74a17.935,17.935,0,1,1,17.934-17.934A17.954,17.954,0,0,1,209.79,132.74Zm0-35.291a17.357,17.357,0,1,0,17.356,17.357A17.377,17.377,0,0,0,209.79,97.449Z"/>
      </g>
      <g class="a4f36617-a6c0-4d7c-93a3-d35ae9aee61f">
        <g class="a86fdf98-68d2-4639-ace2-b417254156b9">
          <circle class="a6d101b1-430c-4d87-b097-8643cd2c1486" cx="122.912" cy="80.575" r="53.804"/>
          <ellipse class="a4d7983b-bd26-463f-8137-157483cce032" cx="121.209" cy="117.043" rx="48.578" ry="5.419"/>
          <g>
            <path class="a6d101b1-430c-4d87-b097-8643cd2c1486" d="M129.043,113.938V97.629H113.376V107.7a4.642,4.642,0,0,1-2.757,4.242l-4.484,1.994"/>
            <path class="a4d7983b-bd26-463f-8137-157483cce032" d="M106.252,114.2l-.235-.528,4.485-1.994a4.357,4.357,0,0,0,2.585-3.978V97.629a.289.289,0,0,1,.289-.289h15.667a.289.289,0,0,1,.289.289v16.309h-.578V97.918H113.665V107.7a4.936,4.936,0,0,1-2.929,4.507Z"/>
          </g>
          <g>
            <rect class="a6d101b1-430c-4d87-b097-8643cd2c1486" x="106.135" y="113.938" width="30.663" height="2.7"/>
            <path class="b30d8ad8-0279-4530-a401-87b3597cdf47" d="M136.8,116.927H106.135a.289.289,0,0,1-.289-.289v-2.7a.288.288,0,0,1,.289-.289H136.8a.289.289,0,0,1,.289.289v2.7A.289.289,0,0,1,136.8,116.927Zm-30.374-.578h30.085v-2.122H106.424Z"/>
          </g>
          <path class="a4d7983b-bd26-463f-8137-157483cce032" d="M106.424,116.445h-.578v-2.507a.288.288,0,0,1,.289-.289H136.8v.578H106.424Z"/>
          <g class="a47210f6-9a9d-4bb5-bf86-a5db847216c5">
            <polygon class="b30d8ad8-0279-4530-a401-87b3597cdf47" points="129.043 106.355 112.306 109.117 113.376 97.629 129.043 97.629 129.043 106.355"/>
          </g>
          <rect x="79.988" y="53.471" width="82.442" height="52.015" rx="2.893"/>
          <path class="a6d101b1-430c-4d87-b097-8643cd2c1486" d="M101.406,41.5h40.708a1.928,1.928,0,0,1,1.928,1.928v73.064a.964.964,0,0,1-.964.964H100.442a.964.964,0,0,1-.964-.964V43.429A1.928,1.928,0,0,1,101.406,41.5Z" transform="translate(201.238 -42.281) rotate(90)"/>
        </g>
      </g>
      <g>
        <rect class="a4d7983b-bd26-463f-8137-157483cce032" x="90.167" y="64.296" width="61.311" height="34.021"/>
        <g>
          <g>
            <rect x="91.746" y="62.718" width="61.311" height="34.021"/>
            <path class="a4862dc6-a07e-4002-987d-bcf546116c5a" d="M153.346,97.028H91.457v-34.6h61.889ZM92.035,96.45h60.732V63.006H92.035Z"/>
          </g>
          <rect class="a4862dc6-a07e-4002-987d-bcf546116c5a" x="91.746" y="62.718" width="61.311" height="6.835"/>
          <path class="a6d101b1-430c-4d87-b097-8643cd2c1486" d="M120.5,66.407H95.172a.289.289,0,0,1,0-.578H120.5a.289.289,0,1,1,0,.578Z"/>
          <g>
            <circle class="a6d101b1-430c-4d87-b097-8643cd2c1486" cx="144.74" cy="66.118" r="0.999"/>
            <circle class="a6d101b1-430c-4d87-b097-8643cd2c1486" cx="148.692" cy="66.118" r="0.999"/>
          </g>
        </g>
      </g>
      <path class="b30d8ad8-0279-4530-a401-87b3597cdf47" d="M107.162,76.692h-6.205a.289.289,0,0,1,0-.578h6.205a.289.289,0,1,1,0,.578Z"/>
      <path class="a6d101b1-430c-4d87-b097-8643cd2c1486" d="M112.209,80.228H99.028a.289.289,0,1,1,0-.578h13.181a.289.289,0,0,1,0,.578Z"/>
      <path class="b30d8ad8-0279-4530-a401-87b3597cdf47" d="M107.162,83.763h-6.205a.289.289,0,0,1,0-.578h6.205a.289.289,0,1,1,0,.578Z"/>
      <path class="a6d101b1-430c-4d87-b097-8643cd2c1486" d="M120.5,87.3H102.886a.289.289,0,0,1,0-.578H120.5a.289.289,0,0,1,0,.578Z"/>
      <path class="b30d8ad8-0279-4530-a401-87b3597cdf47" d="M112.6,90.834H100.957a.289.289,0,0,1,0-.578H112.6a.289.289,0,0,1,0,.578Z"/>
      <path class="a6d101b1-430c-4d87-b097-8643cd2c1486" d="M118.573,94.37H99.028a.289.289,0,0,1,0-.578h19.545a.289.289,0,0,1,0,.578Z"/>
      <path class="a4862dc6-a07e-4002-987d-bcf546116c5a" d="M95.172,94.46a.289.289,0,0,1-.289-.289v-21.3a.289.289,0,1,1,.578,0v21.3A.289.289,0,0,1,95.172,94.46Z"/>
      <path class="a6d101b1-430c-4d87-b097-8643cd2c1486" d="M116.066,73.156H99.028a.289.289,0,0,1,0-.578h17.038a.289.289,0,0,1,0,.578Z"/>
      <g class="e3c670b2-fe3d-4788-bccb-e104680b675d">
        <circle class="a4862dc6-a07e-4002-987d-bcf546116c5a" cx="133.83" cy="82.734" r="8.56"/>
        <path class="a6d101b1-430c-4d87-b097-8643cd2c1486" d="M124.937,75.193l8.893,7.541,11.147-1.358s.988-5.591-5.737-9.037S124.937,75.193,124.937,75.193Z"/>
        <path class="b30d8ad8-0279-4530-a401-87b3597cdf47" d="M124.553,80.217l9.277,2.517,5.273-8.977s-5.7-2.6-9.66-.907S124.553,80.217,124.553,80.217Z"/>
        <path class="a4d7983b-bd26-463f-8137-157483cce032" d="M133.83,82.734l7.233-7.132s-3.191-2.447-5.407-2.582Z"/>
      </g>
      <g class="f82e6290-154b-470c-9888-209d2ef6b470">
        <g>
          <circle class="a6d101b1-430c-4d87-b097-8643cd2c1486" cx="67.855" cy="110.949" r="23.431"/>
          <path class="a4d7983b-bd26-463f-8137-157483cce032" d="M67.855,88.1A22.852,22.852,0,1,1,45,110.949,22.878,22.878,0,0,1,67.855,88.1m0-.579a23.431,23.431,0,1,0,23.431,23.431A23.43,23.43,0,0,0,67.855,87.518Z"/>
        </g>
        <rect class="a4d7983b-bd26-463f-8137-157483cce032" x="75.472" y="121.073" width="9.257" height="10.028" transform="translate(160.201 252.174) rotate(180)"/>
        <rect class="a4d7983b-bd26-463f-8137-157483cce032" x="48.666" y="95.232" width="9.257" height="10.028" transform="translate(106.59 200.492) rotate(180)"/>
        <circle class="b30d8ad8-0279-4530-a401-87b3597cdf47" cx="122.912" cy="80.575" r="53.804"/>
        <g>
          <g class="ab084f51-1d7d-42f7-81a1-24a87a9b76bc">
            <rect class="b30d8ad8-0279-4530-a401-87b3597cdf47" x="67.951" y="115.866" width="9.257" height="10.028" transform="translate(145.159 241.761) rotate(180)"/>
          </g>
          <g class="af477c50-91c6-4656-a683-1ee214d0b615">
            <rect class="b30d8ad8-0279-4530-a401-87b3597cdf47" x="54.645" y="101.789" width="9.257" height="10.028" transform="translate(118.546 213.605) rotate(180)"/>
          </g>
        </g>
        <g>
          <path d="M63.13,111.141a.289.289,0,0,1-.289-.289v-2.121a.289.289,0,0,1,.578,0v2.121A.289.289,0,0,1,63.13,111.141Z"/>
          <path d="M57.345,111.141a.288.288,0,0,1-.289-.289v-2.121a.289.289,0,0,1,.578,0v2.121A.289.289,0,0,1,57.345,111.141Z"/>
          <path d="M61.2,111.141a.289.289,0,0,1-.289-.289v-2.121a.289.289,0,0,1,.578,0v2.121A.289.289,0,0,1,61.2,111.141Z"/>
          <path d="M59.273,111.141a.289.289,0,0,1-.289-.289v-2.121a.289.289,0,0,1,.578,0v2.121A.289.289,0,0,1,59.273,111.141Z"/>
          <path d="M71.133,111.141a.289.289,0,0,1-.289-.289v-2.121a.289.289,0,0,1,.578,0v2.121A.289.289,0,0,1,71.133,111.141Z"/>
          <path d="M76.919,111.141a.289.289,0,0,1-.289-.289v-2.121a.289.289,0,0,1,.578,0v2.121A.289.289,0,0,1,76.919,111.141Z"/>
          <path d="M73.061,111.141a.289.289,0,0,1-.289-.289v-2.121a.289.289,0,0,1,.578,0v2.121A.288.288,0,0,1,73.061,111.141Z"/>
          <path d="M74.99,111.141a.289.289,0,0,1-.289-.289v-2.121a.289.289,0,0,1,.578,0v2.121A.289.289,0,0,1,74.99,111.141Z"/>
          <path d="M70.361,121.266H68.24a.289.289,0,1,1,0-.578h2.121a.289.289,0,1,1,0,.578Z"/>
          <path d="M70.361,115.481H68.24a.29.29,0,0,1,0-.579h2.121a.29.29,0,0,1,0,.579Z"/>
          <path d="M70.361,119.338H68.24a.29.29,0,0,1,0-.579h2.121a.29.29,0,0,1,0,.579Z"/>
          <path d="M70.361,117.409H68.24a.289.289,0,1,1,0-.578h2.121a.289.289,0,1,1,0,.578Z"/>
          <path d="M70.361,103.138H68.24a.289.289,0,0,1,0-.578h2.121a.289.289,0,0,1,0,.578Z"/>
          <path d="M70.361,108.923H68.24a.289.289,0,0,1,0-.578h2.121a.289.289,0,0,1,0,.578Z"/>
          <path d="M70.361,105.067H68.24a.29.29,0,0,1,0-.579h2.121a.29.29,0,0,1,0,.579Z"/>
          <path d="M70.361,107H68.24a.289.289,0,0,1,0-.578h2.121a.289.289,0,0,1,0,.578Z"/>
          <g>
            <rect class="a4862dc6-a07e-4002-987d-bcf546116c5a" x="55.802" y="99.86" width="9.257" height="10.028"/>
            <path class="b30d8ad8-0279-4530-a401-87b3597cdf47" d="M62.552,107.67a.288.288,0,0,1-.289-.289v-4.725H58.308a.289.289,0,0,1,0-.578h4.244a.289.289,0,0,1,.289.289v5.014A.289.289,0,0,1,62.552,107.67Z"/>
            <g>
              <path class="a4862dc6-a07e-4002-987d-bcf546116c5a" d="M66.119,102.174H64a.289.289,0,0,1,0-.578h2.121a.289.289,0,0,1,0,.578Z"/>
              <path class="a4862dc6-a07e-4002-987d-bcf546116c5a" d="M66.119,107.96H64a.29.29,0,0,1,0-.579h2.121a.29.29,0,0,1,0,.579Z"/>
              <path class="a4862dc6-a07e-4002-987d-bcf546116c5a" d="M66.119,104.1H64a.289.289,0,0,1,0-.578h2.121a.289.289,0,0,1,0,.578Z"/>
              <path class="a4862dc6-a07e-4002-987d-bcf546116c5a" d="M66.119,106.031H64a.289.289,0,0,1,0-.578h2.121a.289.289,0,0,1,0,.578Z"/>
            </g>
          </g>
          <g>
            <rect class="a4862dc6-a07e-4002-987d-bcf546116c5a" x="69.205" y="99.86" width="9.257" height="10.028" transform="translate(147.666 209.748) rotate(-180)"/>
            <path class="b30d8ad8-0279-4530-a401-87b3597cdf47" d="M75.954,107.67a.289.289,0,0,1-.289-.289v-4.725H71.712a.289.289,0,0,1,0-.578h4.242a.289.289,0,0,1,.289.289v5.014A.289.289,0,0,1,75.954,107.67Z"/>
          </g>
          <g>
            <rect class="a4862dc6-a07e-4002-987d-bcf546116c5a" x="55.802" y="113.938" width="9.257" height="10.028"/>
            <path class="b30d8ad8-0279-4530-a401-87b3597cdf47" d="M62.552,121.748a.288.288,0,0,1-.289-.289v-4.725H58.308a.289.289,0,1,1,0-.578h4.244a.289.289,0,0,1,.289.289v5.014A.289.289,0,0,1,62.552,121.748Z"/>
            <g>
              <path class="a4862dc6-a07e-4002-987d-bcf546116c5a" d="M66.119,122.23H64a.289.289,0,0,1,0-.578h2.121a.289.289,0,0,1,0,.578Z"/>
              <path class="a4862dc6-a07e-4002-987d-bcf546116c5a" d="M66.119,116.444H64a.289.289,0,0,1,0-.578h2.121a.289.289,0,0,1,0,.578Z"/>
              <path class="a4862dc6-a07e-4002-987d-bcf546116c5a" d="M66.119,120.3H64a.289.289,0,0,1,0-.578h2.121a.289.289,0,0,1,0,.578Z"/>
              <path class="a4862dc6-a07e-4002-987d-bcf546116c5a" d="M66.119,118.373H64a.289.289,0,0,1,0-.578h2.121a.289.289,0,0,1,0,.578Z"/>
            </g>
            <g>
              <path class="a4862dc6-a07e-4002-987d-bcf546116c5a" d="M64.1,115.384a.288.288,0,0,1-.289-.289v-2.121a.289.289,0,1,1,.578,0V115.1A.289.289,0,0,1,64.1,115.384Z"/>
              <path class="a4862dc6-a07e-4002-987d-bcf546116c5a" d="M58.308,115.384a.289.289,0,0,1-.289-.289v-2.121a.29.29,0,0,1,.579,0V115.1A.289.289,0,0,1,58.308,115.384Z"/>
              <path class="a4862dc6-a07e-4002-987d-bcf546116c5a" d="M62.166,115.384a.289.289,0,0,1-.289-.289v-2.121a.289.289,0,0,1,.578,0V115.1A.289.289,0,0,1,62.166,115.384Z"/>
              <path class="a4862dc6-a07e-4002-987d-bcf546116c5a" d="M60.237,115.384a.289.289,0,0,1-.289-.289v-2.121a.289.289,0,0,1,.578,0V115.1A.289.289,0,0,1,60.237,115.384Z"/>
            </g>
          </g>
          <g>
            <rect class="a4862dc6-a07e-4002-987d-bcf546116c5a" x="69.205" y="113.938" width="9.257" height="10.028" transform="translate(147.666 237.904) rotate(180)"/>
            <path class="b30d8ad8-0279-4530-a401-87b3597cdf47" d="M75.954,121.748a.289.289,0,0,1-.289-.289v-4.725H71.712a.289.289,0,1,1,0-.578h4.242a.289.289,0,0,1,.289.289v5.014A.289.289,0,0,1,75.954,121.748Z"/>
            <g>
              <path class="a4862dc6-a07e-4002-987d-bcf546116c5a" d="M70.169,115.384a.289.289,0,0,1-.289-.289v-2.121a.289.289,0,0,1,.578,0V115.1A.289.289,0,0,1,70.169,115.384Z"/>
              <path class="a4862dc6-a07e-4002-987d-bcf546116c5a" d="M75.954,115.384a.289.289,0,0,1-.289-.289v-2.121a.289.289,0,1,1,.578,0V115.1A.289.289,0,0,1,75.954,115.384Z"/>
              <path class="a4862dc6-a07e-4002-987d-bcf546116c5a" d="M72.1,115.384a.289.289,0,0,1-.29-.289v-2.121a.29.29,0,0,1,.579,0V115.1A.289.289,0,0,1,72.1,115.384Z"/>
              <path class="a4862dc6-a07e-4002-987d-bcf546116c5a" d="M74.026,115.384a.289.289,0,0,1-.289-.289v-2.121a.289.289,0,0,1,.578,0V115.1A.289.289,0,0,1,74.026,115.384Z"/>
            </g>
          </g>
        </g>
      </g>
      <g class="bbe95d4b-75f7-4672-9404-e1011c199913">
        <circle class="a6d101b1-430c-4d87-b097-8643cd2c1486" cx="173.438" cy="101.499" r="32.88"/>
        <circle class="a4d7983b-bd26-463f-8137-157483cce032" cx="122.912" cy="80.575" r="53.804"/>
        <g>
          <g class="a59f6389-7680-45e2-a350-7ca7b1ea1672">
            <polygon class="b30d8ad8-0279-4530-a401-87b3597cdf47" points="169.475 79.541 164.289 82.554 159.067 79.539 164.253 76.526 169.475 79.541"/>
            <polygon class="b30d8ad8-0279-4530-a401-87b3597cdf47" points="169.475 79.541 169.459 85.765 164.273 88.778 164.289 82.554 169.475 79.541"/>
            <polygon class="b30d8ad8-0279-4530-a401-87b3597cdf47" points="164.289 82.554 164.273 88.778 159.051 85.763 159.067 79.539 164.289 82.554"/>
          </g>
          <g>
            <g class="a59f6389-7680-45e2-a350-7ca7b1ea1672">
              <polygon class="b30d8ad8-0279-4530-a401-87b3597cdf47" points="162.631 97.277 154.469 102.02 146.25 97.275 154.412 92.532 162.631 97.277"/>
              <polygon class="b30d8ad8-0279-4530-a401-87b3597cdf47" points="162.631 97.277 162.606 107.073 154.444 111.817 154.469 102.02 162.631 97.277"/>
              <polygon class="b30d8ad8-0279-4530-a401-87b3597cdf47" points="154.469 102.02 154.444 111.817 146.225 107.071 146.25 97.275 154.469 102.02"/>
            </g>
            <g>
              <polygon class="b30d8ad8-0279-4530-a401-87b3597cdf47" points="154.412 92.532 146.25 97.275 146.225 107.071 154.444 111.817 162.606 107.073 162.631 97.277 154.412 92.532"/>
              <g class="fa2fcd4d-dfd7-48d7-90c9-7df987e9f6a0">
                <g class="a59f6389-7680-45e2-a350-7ca7b1ea1672">
                  <polygon class="b30d8ad8-0279-4530-a401-87b3597cdf47" points="174.781 102.098 166.619 106.842 158.4 102.096 166.562 97.353 174.781 102.098"/>
                  <polygon class="b30d8ad8-0279-4530-a401-87b3597cdf47" points="174.781 102.098 174.755 111.894 166.593 116.638 166.619 106.842 174.781 102.098"/>
                  <polygon class="b30d8ad8-0279-4530-a401-87b3597cdf47" points="166.619 106.842 166.593 116.638 158.374 111.893 158.4 102.096 166.619 106.842"/>
                </g>
              </g>
            </g>
          </g>
        </g>
        <g class="a59f6389-7680-45e2-a350-7ca7b1ea1672">
          <polygon class="a6d101b1-430c-4d87-b097-8643cd2c1486" points="171.404 76.069 166.218 79.083 160.996 76.068 166.182 73.054 171.404 76.069"/>
          <polygon class="a6d101b1-430c-4d87-b097-8643cd2c1486" points="171.404 76.069 171.388 82.293 166.202 85.307 166.218 79.083 171.404 76.069"/>
          <g>
            <polygon class="a4d7983b-bd26-463f-8137-157483cce032" points="166.218 79.083 166.202 85.307 160.98 82.292 160.996 76.068 166.218 79.083"/>
            <path class="a6d101b1-430c-4d87-b097-8643cd2c1486" d="M161.572,77.069l4.067,2.348-.013,4.89-4.067-2.348.013-4.89m-.576-1-.016,6.224,5.222,3.015.016-6.224L161,76.068Z"/>
          </g>
        </g>
        <g class="a59f6389-7680-45e2-a350-7ca7b1ea1672">
          <g>
            <polygon class="a6d101b1-430c-4d87-b097-8643cd2c1486" points="171.018 122.353 165.832 125.366 160.61 122.351 165.796 119.338 171.018 122.353"/>
            <path class="a4d7983b-bd26-463f-8137-157483cce032" d="M165.8,120.006l4.067,2.348-4.033,2.344-4.067-2.348,4.033-2.344m0-.668-5.186,3.013,5.222,3.015,5.186-3.013-5.222-3.015Z"/>
          </g>
          <polygon class="a4d7983b-bd26-463f-8137-157483cce032" points="171.018 122.353 171.002 128.577 165.816 131.59 165.832 125.366 171.018 122.353"/>
          <polygon class="b30d8ad8-0279-4530-a401-87b3597cdf47" points="165.832 125.366 165.816 131.59 160.594 128.575 160.61 122.351 165.832 125.366"/>
        </g>
        <g>
          <g class="a59f6389-7680-45e2-a350-7ca7b1ea1672">
            <polygon class="a6d101b1-430c-4d87-b097-8643cd2c1486" points="164.56 93.806 156.398 98.549 148.179 93.804 156.341 89.061 164.56 93.806"/>
            <polygon class="a6d101b1-430c-4d87-b097-8643cd2c1486" points="164.56 93.806 164.534 103.602 156.372 108.345 156.398 98.549 164.56 93.806"/>
            <g>
              <polygon class="a4d7983b-bd26-463f-8137-157483cce032" points="156.398 98.549 156.372 108.345 148.153 103.6 148.179 93.804 156.398 98.549"/>
              <path class="a6d101b1-430c-4d87-b097-8643cd2c1486" d="M148.755,94.805l7.063,4.078-.022,8.462-7.063-4.078.022-8.462m-.576-1-.026,9.8,8.219,4.745.026-9.8L148.179,93.8Z"/>
            </g>
          </g>
          <g class="b0f98f15-5eaa-4f0d-8836-d6a68b433218">
            <g class="a59f6389-7680-45e2-a350-7ca7b1ea1672">
              <polygon class="a4d7983b-bd26-463f-8137-157483cce032" points="176.709 98.049 168.547 102.792 160.328 98.047 168.49 93.303 176.709 98.049"/>
              <polygon class="a4d7983b-bd26-463f-8137-157483cce032" points="176.709 98.627 176.684 108.423 168.522 113.167 168.547 103.37 176.709 98.627"/>
              <polygon class="a4d7983b-bd26-463f-8137-157483cce032" points="168.547 102.792 168.522 112.588 160.303 107.843 160.328 98.047 168.547 102.792"/>
            </g>
          </g>
        </g>
        <g>
          <g class="a59f6389-7680-45e2-a350-7ca7b1ea1672">
            <polygon class="a4862dc6-a07e-4002-987d-bcf546116c5a" points="188.183 97.747 175.896 104.887 163.524 97.744 175.81 90.603 188.183 97.747"/>
            <polygon class="b30d8ad8-0279-4530-a401-87b3597cdf47" points="188.183 97.747 188.145 112.493 175.858 119.634 175.896 104.887 188.183 97.747"/>
            <polygon class="a4862dc6-a07e-4002-987d-bcf546116c5a" points="175.896 104.887 175.858 119.634 163.485 112.491 163.524 97.744 175.896 104.887"/>
            <g class="a0eadfa8-ecbd-4aa6-a2d7-2266ffc938e6">
              <path d="M163.121,97.932s.771,15.138,10.413,20.731l-10.606-6.171Z"/>
            </g>
          </g>
          <polygon class="a6d101b1-430c-4d87-b097-8643cd2c1486" points="176.146 119.635 175.568 119.633 175.606 105.054 163.379 97.994 163.668 97.493 176.186 104.72 176.185 104.888 176.146 119.635"/>
          <polygon class="a6d101b1-430c-4d87-b097-8643cd2c1486" points="176.146 119.635 175.568 119.633 175.607 104.721 188.038 97.497 188.329 97.997 176.185 105.054 176.146 119.635"/>
        </g>
        <circle class="a4d7983b-bd26-463f-8137-157483cce032" cx="209.79" cy="114.806" r="17.645"/>
        <path class="a6d101b1-430c-4d87-b097-8643cd2c1486" d="M173.438,69.2a32.3,32.3,0,1,1-32.3,32.3,32.338,32.338,0,0,1,32.3-32.3m0-.579a32.881,32.881,0,1,0,32.88,32.88,32.88,32.88,0,0,0-32.88-32.88Z"/>
      </g>
      <g>
        <rect class="b30d8ad8-0279-4530-a401-87b3597cdf47" x="203.218" y="107.634" width="10.153" height="16.85"/>
        <g>
          <path class="b30d8ad8-0279-4530-a401-87b3597cdf47" d="M219.775,115H199.684a.289.289,0,0,1,0-.578h20.091a.289.289,0,1,1,0,.578Z"/>
          <path class="b30d8ad8-0279-4530-a401-87b3597cdf47" d="M219.775,110.678H199.684a.289.289,0,0,1,0-.578h20.091a.289.289,0,1,1,0,.578Z"/>
          <path class="b30d8ad8-0279-4530-a401-87b3597cdf47" d="M219.775,119.319H199.684a.289.289,0,0,1,0-.578h20.091a.289.289,0,1,1,0,.578Z"/>
          <rect class="a4862dc6-a07e-4002-987d-bcf546116c5a" x="218.479" y="109.093" width="2.592" height="2.592"/>
          <rect class="a4862dc6-a07e-4002-987d-bcf546116c5a" x="218.479" y="117.734" width="2.592" height="2.592" rx="1.296"/>
          <polygon class="a4862dc6-a07e-4002-987d-bcf546116c5a" points="218.479 116.005 218.479 113.413 221.071 114.709 218.479 116.005"/>
          <rect class="a4862dc6-a07e-4002-987d-bcf546116c5a" x="198.604" y="117.734" width="2.592" height="2.592"/>
          <rect class="a4862dc6-a07e-4002-987d-bcf546116c5a" x="198.604" y="113.413" width="2.592" height="2.592" rx="1.296"/>
          <polygon class="a4862dc6-a07e-4002-987d-bcf546116c5a" points="201.197 109.093 201.197 111.685 198.604 110.389 201.197 109.093"/>
          <rect x="203.329" y="114.42" width="10.221" height="0.578"/>
          <rect x="203.329" y="110.1" width="10.221" height="0.578"/>
          <rect x="203.329" y="118.741" width="10.221" height="0.578"/>
        </g>
        <g>
          <rect class="a6d101b1-430c-4d87-b097-8643cd2c1486" x="204.761" y="106.284" width="10.153" height="16.85"/>
          <path class="a4d7983b-bd26-463f-8137-157483cce032" d="M214.336,106.863v15.693h-9V106.863h9m.578-.579H204.761v16.85h10.153v-16.85Z"/>
        </g>
        <path class="a4d7983b-bd26-463f-8137-157483cce032" d="M213.094,121.362a.288.288,0,0,1-.289-.289V108.634h-6.031a.289.289,0,0,1,0-.578h6.32a.289.289,0,0,1,.289.289v12.728A.289.289,0,0,1,213.094,121.362Z"/>
      </g>
      <g class="a59f6389-7680-45e2-a350-7ca7b1ea1672">
        <g>
          <polygon class="a6d101b1-430c-4d87-b097-8643cd2c1486" points="196.341 71.799 188.217 76.521 180.036 71.798 188.161 67.076 196.341 71.799"/>
          <path class="a4d7983b-bd26-463f-8137-157483cce032" d="M188.162,67.745l7.025,4.056-6.971,4.051L181.191,71.8l6.971-4.051m0-.669L180.036,71.8l8.181,4.723,8.124-4.722-8.18-4.723Z"/>
        </g>
        <polygon class="a4d7983b-bd26-463f-8137-157483cce032" points="196.341 71.799 196.316 81.55 188.192 86.271 188.217 76.521 196.341 71.799"/>
        <polygon class="b30d8ad8-0279-4530-a401-87b3597cdf47" points="188.217 76.521 188.192 86.271 180.011 81.548 180.036 71.798 188.217 76.521"/>
      </g>
    </g>
    <g>
      <circle class="a6d101b1-430c-4d87-b097-8643cd2c1486" cx="172.398" cy="99.14" r="33.312"/>
      <path class="a79754a4-bba2-4cce-b8c4-6b2b840603fd" d="M172.4,132.851A33.712,33.712,0,1,1,206.11,99.14,33.75,33.75,0,0,1,172.4,132.851Zm0-66.623A32.912,32.912,0,1,0,205.309,99.14,32.949,32.949,0,0,0,172.4,66.228Z"/>
    </g>
    <g>
      <circle class="a6d101b1-430c-4d87-b097-8643cd2c1486" cx="67.855" cy="110.949" r="23.288"/>
      <path class="a79754a4-bba2-4cce-b8c4-6b2b840603fd" d="M67.854,134.637a23.689,23.689,0,1,1,23.69-23.688A23.715,23.715,0,0,1,67.854,134.637Zm0-46.577a22.889,22.889,0,1,0,22.889,22.889A22.914,22.914,0,0,0,67.854,88.06Z"/>
    </g>
    <g>
      <path class="a4862dc6-a07e-4002-987d-bcf546116c5a" d="M74.76,124.388H60.95a.616.616,0,0,1-.616-.616V98.126a.616.616,0,0,1,.616-.617H74.76a.617.617,0,0,1,.616.617v25.646A.616.616,0,0,1,74.76,124.388Zm-13.194-1.233H74.143V98.743H61.566Z"/>
      <path class="a4862dc6-a07e-4002-987d-bcf546116c5a" d="M67.853,101.7a.667.667,0,0,1-.24-.051.612.612,0,0,1-.2-.129.817.817,0,0,1-.131-.2.659.659,0,0,1-.05-.239.608.608,0,0,1,.05-.23.579.579,0,0,1,.131-.2.608.608,0,0,1,.88,0,.607.607,0,0,1,.13.2.589.589,0,0,1,.05.23.677.677,0,0,1-.05.239.875.875,0,0,1-.13.2A.621.621,0,0,1,67.853,101.7Z"/>
      <path class="a4862dc6-a07e-4002-987d-bcf546116c5a" d="M69.827,121.429H65.882a.617.617,0,0,1,0-1.234h3.945a.617.617,0,0,1,0,1.234Z"/>
    </g>
    <g>
      <g>
        <polyline class="a6d101b1-430c-4d87-b097-8643cd2c1486" points="151.251 92.543 161.945 92.543 161.945 87.727 177.313 78.855 192.682 87.727 192.682 105.473 177.313 114.346 161.945 105.473 161.945 105.119"/>
        <path class="a655273f-3ff1-4749-8bc0-1b92f0606a7c" d="M177.313,114.523a.177.177,0,0,1-.088-.024l-15.368-8.873a.178.178,0,0,1-.089-.153v-.355a.177.177,0,0,1,.354,0v.253l15.191,8.771,15.192-8.771V87.83l-15.192-8.771L162.122,87.83v4.713a.176.176,0,0,1-.177.176H151.251a.177.177,0,1,1,0-.353h10.517V87.728a.178.178,0,0,1,.089-.153L177.225,78.7a.173.173,0,0,1,.176,0l15.368,8.873a.176.176,0,0,1,.089.153v17.745a.176.176,0,0,1-.089.153L177.4,114.5A.171.171,0,0,1,177.313,114.523Z"/>
      </g>
      <polygon class="a655273f-3ff1-4749-8bc0-1b92f0606a7c" points="164.545 105.644 164.561 106.984 175.573 113.341 175.573 107.508 168.566 103.463 164.545 105.644"/>
      <path class="a655273f-3ff1-4749-8bc0-1b92f0606a7c" d="M161.945,101.982a.178.178,0,0,1-.177-.177V99.06a.177.177,0,0,1,.354,0v2.745A.177.177,0,0,1,161.945,101.982Z"/>
      <path class="a655273f-3ff1-4749-8bc0-1b92f0606a7c" d="M161.945,97.35a.177.177,0,0,1-.177-.177V93.9a.177.177,0,1,1,.354,0v3.275A.177.177,0,0,1,161.945,97.35Z"/>
      <polygon class="a655273f-3ff1-4749-8bc0-1b92f0606a7c" points="177.312 96.76 192.68 87.887 192.682 105.473 177.313 114.346 177.313 110.526 177.312 96.76"/>
      <path class="a655273f-3ff1-4749-8bc0-1b92f0606a7c" d="M177.311,114.523a.177.177,0,0,1-.176-.177V96.76a.176.176,0,0,1,.089-.153l15.368-8.873a.176.176,0,1,1,.175.306l-15.279,8.822v17.484A.177.177,0,0,1,177.311,114.523Z"/>
      <path class="a655273f-3ff1-4749-8bc0-1b92f0606a7c" d="M177.313,96.937a.177.177,0,0,1-.088-.024L161.857,88.04a.177.177,0,1,1,.176-.306L177.4,96.607a.176.176,0,0,1,.066.241A.179.179,0,0,1,177.313,96.937Z"/>
      <path class="a655273f-3ff1-4749-8bc0-1b92f0606a7c" d="M161.981,110.1a.177.177,0,0,1-.092-.327l3.6-2.226a.178.178,0,0,1,.243.058.177.177,0,0,1-.057.243l-3.6,2.225A.173.173,0,0,1,161.981,110.1Z"/>
      <path class="a655273f-3ff1-4749-8bc0-1b92f0606a7c" d="M168.837,97.35H148.258a.177.177,0,1,1,0-.353h20.579a.177.177,0,1,1,0,.353Z"/>
      <path class="a655273f-3ff1-4749-8bc0-1b92f0606a7c" d="M163.039,101.982h-9.414a.177.177,0,1,1,0-.354h9.414a.177.177,0,1,1,0,.354Z"/>
      <g>
        <g>
          <polygon class="a6d101b1-430c-4d87-b097-8643cd2c1486" points="158.047 106.936 158.047 115.28 165.274 119.452 172.5 115.28 172.5 106.936 165.274 102.764 158.047 106.936"/>
          <path class="a655273f-3ff1-4749-8bc0-1b92f0606a7c" d="M165.273,119.629a.177.177,0,0,1-.088-.024l-7.225-4.172a.177.177,0,0,1-.089-.153v-8.344a.176.176,0,0,1,.089-.153l7.225-4.172a.173.173,0,0,1,.176,0l7.227,4.172a.178.178,0,0,1,.089.153v8.344a.179.179,0,0,1-.089.153l-7.227,4.172A.171.171,0,0,1,165.273,119.629Zm-7.049-4.451,7.049,4.07,7.05-4.07v-8.14l-7.05-4.07-7.049,4.07Z"/>
        </g>
        <path class="a655273f-3ff1-4749-8bc0-1b92f0606a7c" d="M165.175,117.144a.177.177,0,0,1-.177-.177v-5.694l-7.138-4.121a.177.177,0,1,1,.176-.306l7.227,4.172a.177.177,0,0,1,.088.153v5.8A.176.176,0,0,1,165.175,117.144Z"/>
        <path class="a655273f-3ff1-4749-8bc0-1b92f0606a7c" d="M165.175,111.348a.179.179,0,0,1-.154-.089.178.178,0,0,1,.065-.241l7.325-4.235a.177.177,0,1,1,.178.306l-7.325,4.235A.183.183,0,0,1,165.175,111.348Z"/>
      </g>
      <polygon class="bcc06152-e411-419f-8c5f-6fd7888df396" points="165.175 111.171 172.5 106.936 172.5 115.28 165.274 119.452 165.175 111.171"/>
    </g>
  </g>
</svg>
