<svg id="b8011fb8-26c9-4405-90f3-c7bcee622366" data-name="Layer 1" xmlns="http://www.w3.org/2000/svg" xmlns:xlink="http://www.w3.org/1999/xlink" viewBox="0 0 262 180">
  <defs>
    <style>
      .a173ab86-30f7-4214-844e-24b5f66e8445 {
        fill: none;
      }

      .af6dc12a-8b34-4fc0-bc6d-69ea426e9194 {
        fill: #fc0000;
      }

      .feaffaa7-5c10-424d-bd77-ca68a477d449 {
        fill: #fff;
      }

      .f4a690f8-fd9c-4304-8691-24c46035809e {
        fill: url(#bd76f3f9-5d71-4042-9fde-d53089c74013);
      }

      .af9a141b-1c4e-4e13-b4d5-244ad50a8d74 {
        fill: url(#acce96b9-93fc-4019-9a3e-8a9c2550566e);
      }

      .aee1d5b3-a64e-49af-aad1-c49ad9cae1b2 {
        fill: url(#aa8134ee-8c7a-4adf-921f-48a0a4b55204);
      }

      .f7da3808-b6e7-43e6-a053-d0a763a2a991 {
        fill: url(#a2c01661-067f-4da1-91c1-679ef977f749);
      }

      .b8f374d5-4672-40fa-a817-5bdc9db5d59e {
        fill: url(#b0bef53c-8c77-4ac9-9a50-cd431394a99d);
      }
    </style>
    <pattern id="bd76f3f9-5d71-4042-9fde-d53089c74013" data-name="10 dpi 20%" width="28.8" height="28.801" patternTransform="translate(64.133 115.136) scale(0.349)" patternUnits="userSpaceOnUse" viewBox="0 0 28.8 28.801">
      <rect class="a173ab86-30f7-4214-844e-24b5f66e8445" width="28.8" height="28.801"/>
      <g>
        <path class="af6dc12a-8b34-4fc0-bc6d-69ea426e9194" d="M28.8,30.24A1.44,1.44,0,1,0,27.359,28.8,1.439,1.439,0,0,0,28.8,30.24Z"/>
        <path class="af6dc12a-8b34-4fc0-bc6d-69ea426e9194" d="M14.4,30.24A1.44,1.44,0,1,0,12.96,28.8,1.44,1.44,0,0,0,14.4,30.24Z"/>
        <path class="af6dc12a-8b34-4fc0-bc6d-69ea426e9194" d="M28.8,15.842A1.441,1.441,0,1,0,27.359,14.4,1.441,1.441,0,0,0,28.8,15.842Z"/>
        <path class="af6dc12a-8b34-4fc0-bc6d-69ea426e9194" d="M14.4,15.842A1.441,1.441,0,1,0,12.96,14.4,1.443,1.443,0,0,0,14.4,15.842Z"/>
        <path class="af6dc12a-8b34-4fc0-bc6d-69ea426e9194" d="M7.2,23.041A1.441,1.441,0,1,0,5.76,21.6,1.44,1.44,0,0,0,7.2,23.041Z"/>
        <path class="af6dc12a-8b34-4fc0-bc6d-69ea426e9194" d="M21.6,23.041a1.441,1.441,0,1,0-1.44-1.439A1.44,1.44,0,0,0,21.6,23.041Z"/>
        <path class="af6dc12a-8b34-4fc0-bc6d-69ea426e9194" d="M7.2,8.641A1.441,1.441,0,1,0,5.76,7.2,1.44,1.44,0,0,0,7.2,8.641Z"/>
        <path class="af6dc12a-8b34-4fc0-bc6d-69ea426e9194" d="M21.6,8.641a1.441,1.441,0,1,0-1.44-1.44A1.441,1.441,0,0,0,21.6,8.641Z"/>
      </g>
      <g>
        <path class="af6dc12a-8b34-4fc0-bc6d-69ea426e9194" d="M0,30.24A1.439,1.439,0,0,0,1.439,28.8,1.44,1.44,0,0,0,0,27.361,1.441,1.441,0,0,0-1.441,28.8,1.44,1.44,0,0,0,0,30.24Z"/>
        <path class="af6dc12a-8b34-4fc0-bc6d-69ea426e9194" d="M0,15.842A1.441,1.441,0,0,0,1.439,14.4,1.44,1.44,0,0,0,0,12.961,1.441,1.441,0,0,0-1.441,14.4,1.442,1.442,0,0,0,0,15.842Z"/>
      </g>
      <g>
        <path class="af6dc12a-8b34-4fc0-bc6d-69ea426e9194" d="M28.8,1.44A1.44,1.44,0,0,0,30.239,0,1.439,1.439,0,0,0,28.8-1.439,1.44,1.44,0,0,0,27.359,0,1.441,1.441,0,0,0,28.8,1.44Z"/>
        <path class="af6dc12a-8b34-4fc0-bc6d-69ea426e9194" d="M14.4,1.44A1.441,1.441,0,0,0,15.84,0,1.44,1.44,0,0,0,14.4-1.439,1.438,1.438,0,0,0,12.96,0,1.439,1.439,0,0,0,14.4,1.44Z"/>
      </g>
      <path class="af6dc12a-8b34-4fc0-bc6d-69ea426e9194" d="M0,1.44A1.44,1.44,0,0,0,1.439,0,1.439,1.439,0,0,0,0-1.439,1.44,1.44,0,0,0-1.441,0,1.441,1.441,0,0,0,0,1.44Z"/>
    </pattern>
    <pattern id="acce96b9-93fc-4019-9a3e-8a9c2550566e" data-name="10 dpi 20%" width="28.8" height="28.801" patternTransform="translate(61.224 115.864) scale(0.349)" patternUnits="userSpaceOnUse" viewBox="0 0 28.8 28.801">
      <rect class="a173ab86-30f7-4214-844e-24b5f66e8445" width="28.8" height="28.801"/>
      <g>
        <path class="af6dc12a-8b34-4fc0-bc6d-69ea426e9194" d="M28.8,30.24A1.44,1.44,0,1,0,27.359,28.8,1.439,1.439,0,0,0,28.8,30.24Z"/>
        <path class="af6dc12a-8b34-4fc0-bc6d-69ea426e9194" d="M14.4,30.24A1.44,1.44,0,1,0,12.96,28.8,1.44,1.44,0,0,0,14.4,30.24Z"/>
        <path class="af6dc12a-8b34-4fc0-bc6d-69ea426e9194" d="M28.8,15.842A1.441,1.441,0,1,0,27.359,14.4,1.441,1.441,0,0,0,28.8,15.842Z"/>
        <path class="af6dc12a-8b34-4fc0-bc6d-69ea426e9194" d="M14.4,15.842A1.441,1.441,0,1,0,12.96,14.4,1.443,1.443,0,0,0,14.4,15.842Z"/>
        <path class="af6dc12a-8b34-4fc0-bc6d-69ea426e9194" d="M7.2,23.041A1.441,1.441,0,1,0,5.76,21.6,1.44,1.44,0,0,0,7.2,23.041Z"/>
        <path class="af6dc12a-8b34-4fc0-bc6d-69ea426e9194" d="M21.6,23.041a1.441,1.441,0,1,0-1.44-1.439A1.44,1.44,0,0,0,21.6,23.041Z"/>
        <path class="af6dc12a-8b34-4fc0-bc6d-69ea426e9194" d="M7.2,8.641A1.441,1.441,0,1,0,5.76,7.2,1.44,1.44,0,0,0,7.2,8.641Z"/>
        <path class="af6dc12a-8b34-4fc0-bc6d-69ea426e9194" d="M21.6,8.641a1.441,1.441,0,1,0-1.44-1.44A1.441,1.441,0,0,0,21.6,8.641Z"/>
      </g>
      <g>
        <path class="af6dc12a-8b34-4fc0-bc6d-69ea426e9194" d="M0,30.24A1.439,1.439,0,0,0,1.439,28.8,1.44,1.44,0,0,0,0,27.361,1.441,1.441,0,0,0-1.441,28.8,1.44,1.44,0,0,0,0,30.24Z"/>
        <path class="af6dc12a-8b34-4fc0-bc6d-69ea426e9194" d="M0,15.842A1.441,1.441,0,0,0,1.439,14.4,1.44,1.44,0,0,0,0,12.961,1.441,1.441,0,0,0-1.441,14.4,1.442,1.442,0,0,0,0,15.842Z"/>
      </g>
      <g>
        <path class="af6dc12a-8b34-4fc0-bc6d-69ea426e9194" d="M28.8,1.44A1.44,1.44,0,0,0,30.239,0,1.439,1.439,0,0,0,28.8-1.439,1.44,1.44,0,0,0,27.359,0,1.441,1.441,0,0,0,28.8,1.44Z"/>
        <path class="af6dc12a-8b34-4fc0-bc6d-69ea426e9194" d="M14.4,1.44A1.441,1.441,0,0,0,15.84,0,1.44,1.44,0,0,0,14.4-1.439,1.438,1.438,0,0,0,12.96,0,1.439,1.439,0,0,0,14.4,1.44Z"/>
      </g>
      <path class="af6dc12a-8b34-4fc0-bc6d-69ea426e9194" d="M0,1.44A1.44,1.44,0,0,0,1.439,0,1.439,1.439,0,0,0,0-1.439,1.44,1.44,0,0,0-1.441,0,1.441,1.441,0,0,0,0,1.44Z"/>
    </pattern>
    <pattern id="aa8134ee-8c7a-4adf-921f-48a0a4b55204" data-name="10 dpi 20%" width="28.8" height="28.801" patternTransform="translate(58.332 120.189) scale(0.349)" patternUnits="userSpaceOnUse" viewBox="0 0 28.8 28.801">
      <rect class="a173ab86-30f7-4214-844e-24b5f66e8445" width="28.8" height="28.801"/>
      <g>
        <path class="af6dc12a-8b34-4fc0-bc6d-69ea426e9194" d="M28.8,30.24A1.44,1.44,0,1,0,27.359,28.8,1.439,1.439,0,0,0,28.8,30.24Z"/>
        <path class="af6dc12a-8b34-4fc0-bc6d-69ea426e9194" d="M14.4,30.24A1.44,1.44,0,1,0,12.96,28.8,1.44,1.44,0,0,0,14.4,30.24Z"/>
        <path class="af6dc12a-8b34-4fc0-bc6d-69ea426e9194" d="M28.8,15.842A1.441,1.441,0,1,0,27.359,14.4,1.441,1.441,0,0,0,28.8,15.842Z"/>
        <path class="af6dc12a-8b34-4fc0-bc6d-69ea426e9194" d="M14.4,15.842A1.441,1.441,0,1,0,12.96,14.4,1.443,1.443,0,0,0,14.4,15.842Z"/>
        <path class="af6dc12a-8b34-4fc0-bc6d-69ea426e9194" d="M7.2,23.041A1.441,1.441,0,1,0,5.76,21.6,1.44,1.44,0,0,0,7.2,23.041Z"/>
        <path class="af6dc12a-8b34-4fc0-bc6d-69ea426e9194" d="M21.6,23.041a1.441,1.441,0,1,0-1.44-1.439A1.44,1.44,0,0,0,21.6,23.041Z"/>
        <path class="af6dc12a-8b34-4fc0-bc6d-69ea426e9194" d="M7.2,8.641A1.441,1.441,0,1,0,5.76,7.2,1.44,1.44,0,0,0,7.2,8.641Z"/>
        <path class="af6dc12a-8b34-4fc0-bc6d-69ea426e9194" d="M21.6,8.641a1.441,1.441,0,1,0-1.44-1.44A1.441,1.441,0,0,0,21.6,8.641Z"/>
      </g>
      <g>
        <path class="af6dc12a-8b34-4fc0-bc6d-69ea426e9194" d="M0,30.24A1.439,1.439,0,0,0,1.439,28.8,1.44,1.44,0,0,0,0,27.361,1.441,1.441,0,0,0-1.441,28.8,1.44,1.44,0,0,0,0,30.24Z"/>
        <path class="af6dc12a-8b34-4fc0-bc6d-69ea426e9194" d="M0,15.842A1.441,1.441,0,0,0,1.439,14.4,1.44,1.44,0,0,0,0,12.961,1.441,1.441,0,0,0-1.441,14.4,1.442,1.442,0,0,0,0,15.842Z"/>
      </g>
      <g>
        <path class="af6dc12a-8b34-4fc0-bc6d-69ea426e9194" d="M28.8,1.44A1.44,1.44,0,0,0,30.239,0,1.439,1.439,0,0,0,28.8-1.439,1.44,1.44,0,0,0,27.359,0,1.441,1.441,0,0,0,28.8,1.44Z"/>
        <path class="af6dc12a-8b34-4fc0-bc6d-69ea426e9194" d="M14.4,1.44A1.441,1.441,0,0,0,15.84,0,1.44,1.44,0,0,0,14.4-1.439,1.438,1.438,0,0,0,12.96,0,1.439,1.439,0,0,0,14.4,1.44Z"/>
      </g>
      <path class="af6dc12a-8b34-4fc0-bc6d-69ea426e9194" d="M0,1.44A1.44,1.44,0,0,0,1.439,0,1.439,1.439,0,0,0,0-1.439,1.44,1.44,0,0,0-1.441,0,1.441,1.441,0,0,0,0,1.44Z"/>
    </pattern>
    <pattern id="a2c01661-067f-4da1-91c1-679ef977f749" data-name="10 dpi 20%" width="28.8" height="28.801" patternTransform="translate(59.146 120.189) scale(0.349)" patternUnits="userSpaceOnUse" viewBox="0 0 28.8 28.801">
      <rect class="a173ab86-30f7-4214-844e-24b5f66e8445" width="28.8" height="28.801"/>
      <g>
        <path class="af6dc12a-8b34-4fc0-bc6d-69ea426e9194" d="M28.8,30.24A1.44,1.44,0,1,0,27.359,28.8,1.439,1.439,0,0,0,28.8,30.24Z"/>
        <path class="af6dc12a-8b34-4fc0-bc6d-69ea426e9194" d="M14.4,30.24A1.44,1.44,0,1,0,12.96,28.8,1.44,1.44,0,0,0,14.4,30.24Z"/>
        <path class="af6dc12a-8b34-4fc0-bc6d-69ea426e9194" d="M28.8,15.842A1.441,1.441,0,1,0,27.359,14.4,1.441,1.441,0,0,0,28.8,15.842Z"/>
        <path class="af6dc12a-8b34-4fc0-bc6d-69ea426e9194" d="M14.4,15.842A1.441,1.441,0,1,0,12.96,14.4,1.443,1.443,0,0,0,14.4,15.842Z"/>
        <path class="af6dc12a-8b34-4fc0-bc6d-69ea426e9194" d="M7.2,23.041A1.441,1.441,0,1,0,5.76,21.6,1.44,1.44,0,0,0,7.2,23.041Z"/>
        <path class="af6dc12a-8b34-4fc0-bc6d-69ea426e9194" d="M21.6,23.041a1.441,1.441,0,1,0-1.44-1.439A1.44,1.44,0,0,0,21.6,23.041Z"/>
        <path class="af6dc12a-8b34-4fc0-bc6d-69ea426e9194" d="M7.2,8.641A1.441,1.441,0,1,0,5.76,7.2,1.44,1.44,0,0,0,7.2,8.641Z"/>
        <path class="af6dc12a-8b34-4fc0-bc6d-69ea426e9194" d="M21.6,8.641a1.441,1.441,0,1,0-1.44-1.44A1.441,1.441,0,0,0,21.6,8.641Z"/>
      </g>
      <g>
        <path class="af6dc12a-8b34-4fc0-bc6d-69ea426e9194" d="M0,30.24A1.439,1.439,0,0,0,1.439,28.8,1.44,1.44,0,0,0,0,27.361,1.441,1.441,0,0,0-1.441,28.8,1.44,1.44,0,0,0,0,30.24Z"/>
        <path class="af6dc12a-8b34-4fc0-bc6d-69ea426e9194" d="M0,15.842A1.441,1.441,0,0,0,1.439,14.4,1.44,1.44,0,0,0,0,12.961,1.441,1.441,0,0,0-1.441,14.4,1.442,1.442,0,0,0,0,15.842Z"/>
      </g>
      <g>
        <path class="af6dc12a-8b34-4fc0-bc6d-69ea426e9194" d="M28.8,1.44A1.44,1.44,0,0,0,30.239,0,1.439,1.439,0,0,0,28.8-1.439,1.44,1.44,0,0,0,27.359,0,1.441,1.441,0,0,0,28.8,1.44Z"/>
        <path class="af6dc12a-8b34-4fc0-bc6d-69ea426e9194" d="M14.4,1.44A1.441,1.441,0,0,0,15.84,0,1.44,1.44,0,0,0,14.4-1.439,1.438,1.438,0,0,0,12.96,0,1.439,1.439,0,0,0,14.4,1.44Z"/>
      </g>
      <path class="af6dc12a-8b34-4fc0-bc6d-69ea426e9194" d="M0,1.44A1.44,1.44,0,0,0,1.439,0,1.439,1.439,0,0,0,0-1.439,1.44,1.44,0,0,0-1.441,0,1.441,1.441,0,0,0,0,1.44Z"/>
    </pattern>
    <pattern id="b0bef53c-8c77-4ac9-9a50-cd431394a99d" data-name="10 dpi 20%" width="28.8" height="28.801" patternTransform="translate(65.748 115.864) scale(0.349)" patternUnits="userSpaceOnUse" viewBox="0 0 28.8 28.801">
      <rect class="a173ab86-30f7-4214-844e-24b5f66e8445" width="28.8" height="28.801"/>
      <g>
        <path class="af6dc12a-8b34-4fc0-bc6d-69ea426e9194" d="M28.8,30.24A1.44,1.44,0,1,0,27.359,28.8,1.439,1.439,0,0,0,28.8,30.24Z"/>
        <path class="af6dc12a-8b34-4fc0-bc6d-69ea426e9194" d="M14.4,30.24A1.44,1.44,0,1,0,12.96,28.8,1.44,1.44,0,0,0,14.4,30.24Z"/>
        <path class="af6dc12a-8b34-4fc0-bc6d-69ea426e9194" d="M28.8,15.842A1.441,1.441,0,1,0,27.359,14.4,1.441,1.441,0,0,0,28.8,15.842Z"/>
        <path class="af6dc12a-8b34-4fc0-bc6d-69ea426e9194" d="M14.4,15.842A1.441,1.441,0,1,0,12.96,14.4,1.443,1.443,0,0,0,14.4,15.842Z"/>
        <path class="af6dc12a-8b34-4fc0-bc6d-69ea426e9194" d="M7.2,23.041A1.441,1.441,0,1,0,5.76,21.6,1.44,1.44,0,0,0,7.2,23.041Z"/>
        <path class="af6dc12a-8b34-4fc0-bc6d-69ea426e9194" d="M21.6,23.041a1.441,1.441,0,1,0-1.44-1.439A1.44,1.44,0,0,0,21.6,23.041Z"/>
        <path class="af6dc12a-8b34-4fc0-bc6d-69ea426e9194" d="M7.2,8.641A1.441,1.441,0,1,0,5.76,7.2,1.44,1.44,0,0,0,7.2,8.641Z"/>
        <path class="af6dc12a-8b34-4fc0-bc6d-69ea426e9194" d="M21.6,8.641a1.441,1.441,0,1,0-1.44-1.44A1.441,1.441,0,0,0,21.6,8.641Z"/>
      </g>
      <g>
        <path class="af6dc12a-8b34-4fc0-bc6d-69ea426e9194" d="M0,30.24A1.439,1.439,0,0,0,1.439,28.8,1.44,1.44,0,0,0,0,27.361,1.441,1.441,0,0,0-1.441,28.8,1.44,1.44,0,0,0,0,30.24Z"/>
        <path class="af6dc12a-8b34-4fc0-bc6d-69ea426e9194" d="M0,15.842A1.441,1.441,0,0,0,1.439,14.4,1.44,1.44,0,0,0,0,12.961,1.441,1.441,0,0,0-1.441,14.4,1.442,1.442,0,0,0,0,15.842Z"/>
      </g>
      <g>
        <path class="af6dc12a-8b34-4fc0-bc6d-69ea426e9194" d="M28.8,1.44A1.44,1.44,0,0,0,30.239,0,1.439,1.439,0,0,0,28.8-1.439,1.44,1.44,0,0,0,27.359,0,1.441,1.441,0,0,0,28.8,1.44Z"/>
        <path class="af6dc12a-8b34-4fc0-bc6d-69ea426e9194" d="M14.4,1.44A1.441,1.441,0,0,0,15.84,0,1.44,1.44,0,0,0,14.4-1.439,1.438,1.438,0,0,0,12.96,0,1.439,1.439,0,0,0,14.4,1.44Z"/>
      </g>
      <path class="af6dc12a-8b34-4fc0-bc6d-69ea426e9194" d="M0,1.44A1.44,1.44,0,0,0,1.439,0,1.439,1.439,0,0,0,0-1.439,1.44,1.44,0,0,0-1.441,0,1.441,1.441,0,0,0,0,1.44Z"/>
    </pattern>
  </defs>
  <g>
    <path class="af6dc12a-8b34-4fc0-bc6d-69ea426e9194" d="M186.72,106.487a.418.418,0,0,1-.418-.418,55.3,55.3,0,1,0-110.6,0,.418.418,0,1,1-.835,0,56.137,56.137,0,0,1,112.274,0A.418.418,0,0,1,186.72,106.487Z"/>
    <g>
      <g>
        <circle class="feaffaa7-5c10-424d-bd77-ca68a477d449" cx="131.365" cy="50.349" r="9.676"/>
        <path class="af6dc12a-8b34-4fc0-bc6d-69ea426e9194" d="M131.366,60.443A10.094,10.094,0,1,1,141.459,50.35,10.106,10.106,0,0,1,131.366,60.443Zm0-19.352a9.259,9.259,0,1,0,9.258,9.259A9.27,9.27,0,0,0,131.366,41.091Z"/>
      </g>
      <path class="f4a690f8-fd9c-4304-8691-24c46035809e" d="M138.208,43.507a9.677,9.677,0,0,1-13.685,13.685Z"/>
    </g>
    <g>
      <g>
        <circle class="feaffaa7-5c10-424d-bd77-ca68a477d449" cx="88.23" cy="71.192" r="9.676"/>
        <path class="af6dc12a-8b34-4fc0-bc6d-69ea426e9194" d="M88.23,81.286A10.094,10.094,0,1,1,98.324,71.192,10.106,10.106,0,0,1,88.23,81.286Zm0-19.353a9.259,9.259,0,1,0,9.259,9.259A9.269,9.269,0,0,0,88.23,61.933Z"/>
      </g>
      <path class="af9a141b-1c4e-4e13-b4d5-244ad50a8d74" d="M95.072,64.349A9.677,9.677,0,0,1,81.387,78.034Z"/>
    </g>
    <g>
      <g>
        <circle class="feaffaa7-5c10-424d-bd77-ca68a477d449" cx="75.28" cy="115.746" r="9.676"/>
        <path class="af6dc12a-8b34-4fc0-bc6d-69ea426e9194" d="M75.28,125.84a10.094,10.094,0,1,1,10.094-10.094A10.107,10.107,0,0,1,75.28,125.84Zm0-19.353a9.259,9.259,0,1,0,9.259,9.259A9.269,9.269,0,0,0,75.28,106.487Z"/>
      </g>
      <path class="aee1d5b3-a64e-49af-aad1-c49ad9cae1b2" d="M82.123,108.9a9.677,9.677,0,0,1-13.685,13.685Z"/>
    </g>
    <g>
      <g>
        <circle class="feaffaa7-5c10-424d-bd77-ca68a477d449" cx="186.72" cy="115.746" r="9.676"/>
        <path class="af6dc12a-8b34-4fc0-bc6d-69ea426e9194" d="M186.72,125.84a10.094,10.094,0,1,1,10.093-10.094A10.106,10.106,0,0,1,186.72,125.84Zm0-19.353a9.259,9.259,0,1,0,9.259,9.259A9.269,9.269,0,0,0,186.72,106.487Z"/>
      </g>
      <path class="f7da3808-b6e7-43e6-a053-d0a763a2a991" d="M193.562,108.9a9.677,9.677,0,0,1-13.685,13.685Z"/>
    </g>
    <g>
      <g>
        <circle class="feaffaa7-5c10-424d-bd77-ca68a477d449" cx="173.208" cy="71.192" r="9.676"/>
        <path class="af6dc12a-8b34-4fc0-bc6d-69ea426e9194" d="M173.208,81.286A10.094,10.094,0,1,1,183.3,71.192,10.106,10.106,0,0,1,173.208,81.286Zm0-19.353a9.259,9.259,0,1,0,9.259,9.259A9.269,9.269,0,0,0,173.208,61.933Z"/>
      </g>
      <path class="b8f374d5-4672-40fa-a817-5bdc9db5d59e" d="M180.05,64.349a9.677,9.677,0,0,1-13.685,13.685Z"/>
    </g>
    <rect class="af6dc12a-8b34-4fc0-bc6d-69ea426e9194" x="106.717" y="82.599" width="56.584" height="57.145"/>
    <g>
      <rect class="feaffaa7-5c10-424d-bd77-ca68a477d449" x="103.087" y="78.062" width="54.747" height="56.265"/>
      <path class="af6dc12a-8b34-4fc0-bc6d-69ea426e9194" d="M157.834,134.745H103.087a.418.418,0,0,1-.418-.417V78.062a.418.418,0,0,1,.418-.417h54.747a.417.417,0,0,1,.417.417v56.266A.417.417,0,0,1,157.834,134.745Zm-54.33-.835h53.912V78.48H103.5Z"/>
    </g>
    <path class="af6dc12a-8b34-4fc0-bc6d-69ea426e9194" d="M157.834,120.438H103.087a.418.418,0,1,1,0-.835h54.747a.418.418,0,0,1,0,.835Z"/>
    <path class="af6dc12a-8b34-4fc0-bc6d-69ea426e9194" d="M157.834,106.452H103.087a.418.418,0,1,1,0-.835h54.747a.418.418,0,0,1,0,.835Z"/>
    <path class="af6dc12a-8b34-4fc0-bc6d-69ea426e9194" d="M157.834,92.466H103.087a.418.418,0,1,1,0-.835h54.747a.418.418,0,0,1,0,.835Z"/>
    <path class="af6dc12a-8b34-4fc0-bc6d-69ea426e9194" d="M119.378,113.41H109.152a.418.418,0,0,1,0-.835h10.226a.418.418,0,1,1,0,.835Z"/>
    <circle class="af6dc12a-8b34-4fc0-bc6d-69ea426e9194" cx="150.115" cy="113.027" r="1.132"/>
    <circle class="af6dc12a-8b34-4fc0-bc6d-69ea426e9194" cx="145.412" cy="113.027" r="1.132"/>
    <circle class="af6dc12a-8b34-4fc0-bc6d-69ea426e9194" cx="150.115" cy="85.368" r="1.132"/>
    <circle class="af6dc12a-8b34-4fc0-bc6d-69ea426e9194" cx="145.412" cy="85.368" r="1.132"/>
    <g>
      <line class="feaffaa7-5c10-424d-bd77-ca68a477d449" x1="151.233" y1="99.076" x2="141.007" y2="99.076"/>
      <path class="af6dc12a-8b34-4fc0-bc6d-69ea426e9194" d="M151.233,99.494H141.007a.418.418,0,0,1,0-.835h10.226a.418.418,0,0,1,0,.835Z"/>
    </g>
    <circle class="af6dc12a-8b34-4fc0-bc6d-69ea426e9194" cx="110.271" cy="99.041" r="1.132"/>
    <circle class="af6dc12a-8b34-4fc0-bc6d-69ea426e9194" cx="114.973" cy="99.041" r="1.132"/>
    <g>
      <rect class="feaffaa7-5c10-424d-bd77-ca68a477d449" x="107.48" y="123.994" width="45.709" height="6.336"/>
      <path class="af6dc12a-8b34-4fc0-bc6d-69ea426e9194" d="M153.189,130.748H107.48a.418.418,0,0,1-.417-.418v-6.336a.417.417,0,0,1,.417-.417h45.709a.417.417,0,0,1,.417.417v6.336A.418.418,0,0,1,153.189,130.748Zm-45.291-.835h44.873v-5.5H107.9Z"/>
    </g>
    <g>
      <rect class="feaffaa7-5c10-424d-bd77-ca68a477d449" x="107.48" y="82.763" width="19.511" height="5.211"/>
      <path class="af6dc12a-8b34-4fc0-bc6d-69ea426e9194" d="M126.991,88.391H107.48a.417.417,0,0,1-.417-.417V82.763a.417.417,0,0,1,.417-.417h19.511a.418.418,0,0,1,.418.417v5.211A.418.418,0,0,1,126.991,88.391ZM107.9,87.556h18.676V83.181H107.9Z"/>
    </g>
    <path class="af6dc12a-8b34-4fc0-bc6d-69ea426e9194" d="M129,88.391a.417.417,0,0,1-.417-.417V82.763a.418.418,0,0,1,.835,0v5.211A.418.418,0,0,1,129,88.391Z"/>
  </g>
</svg>
