<svg id="a9dc799b-987d-4b05-addf-d5377d2f47b7" data-name="Layer 1" xmlns="http://www.w3.org/2000/svg" xmlns:xlink="http://www.w3.org/1999/xlink" viewBox="0 0 262 180">
  <defs>
    <style>
      .ebf0d4b1-4a89-4ed7-bfff-f3ecd6643ef3 {
        fill: none;
      }

      .ae8d8c0f-87b1-4c61-9983-7091f4fc8421 {
        fill: #fc0000;
      }

      .ff15ddd5-c227-47ae-a528-2d9afcf20267 {
        fill: #ffea6c;
      }

      .ed3eeb34-307a-43da-8b0a-b81c79e40ec7 {
        fill: url(#f096266b-5cf4-4a23-a771-e84f423a3102);
      }
    </style>
    <pattern id="f096266b-5cf4-4a23-a771-e84f423a3102" data-name="10 dpi 20%" width="28.8" height="28.801" patternTransform="matrix(0.421, 0.128, 0, 0.421, 86.346, -23.588)" patternUnits="userSpaceOnUse" viewBox="0 0 28.8 28.801">
      <rect class="ebf0d4b1-4a89-4ed7-bfff-f3ecd6643ef3" width="28.8" height="28.801"/>
      <g>
        <path class="ae8d8c0f-87b1-4c61-9983-7091f4fc8421" d="M28.8,30.24A1.44,1.44,0,1,0,27.359,28.8,1.439,1.439,0,0,0,28.8,30.24Z"/>
        <path class="ae8d8c0f-87b1-4c61-9983-7091f4fc8421" d="M14.4,30.24A1.44,1.44,0,1,0,12.96,28.8,1.44,1.44,0,0,0,14.4,30.24Z"/>
        <path class="ae8d8c0f-87b1-4c61-9983-7091f4fc8421" d="M28.8,15.842A1.441,1.441,0,1,0,27.359,14.4,1.441,1.441,0,0,0,28.8,15.842Z"/>
        <path class="ae8d8c0f-87b1-4c61-9983-7091f4fc8421" d="M14.4,15.842A1.441,1.441,0,1,0,12.96,14.4,1.443,1.443,0,0,0,14.4,15.842Z"/>
        <path class="ae8d8c0f-87b1-4c61-9983-7091f4fc8421" d="M7.2,23.041A1.441,1.441,0,1,0,5.76,21.6,1.44,1.44,0,0,0,7.2,23.041Z"/>
        <path class="ae8d8c0f-87b1-4c61-9983-7091f4fc8421" d="M21.6,23.041a1.441,1.441,0,1,0-1.44-1.439A1.44,1.44,0,0,0,21.6,23.041Z"/>
        <path class="ae8d8c0f-87b1-4c61-9983-7091f4fc8421" d="M7.2,8.641A1.441,1.441,0,1,0,5.76,7.2,1.44,1.44,0,0,0,7.2,8.641Z"/>
        <path class="ae8d8c0f-87b1-4c61-9983-7091f4fc8421" d="M21.6,8.641a1.441,1.441,0,1,0-1.44-1.44A1.441,1.441,0,0,0,21.6,8.641Z"/>
      </g>
      <g>
        <path class="ae8d8c0f-87b1-4c61-9983-7091f4fc8421" d="M0,30.24A1.439,1.439,0,0,0,1.439,28.8,1.44,1.44,0,0,0,0,27.361,1.441,1.441,0,0,0-1.441,28.8,1.44,1.44,0,0,0,0,30.24Z"/>
        <path class="ae8d8c0f-87b1-4c61-9983-7091f4fc8421" d="M0,15.842A1.441,1.441,0,0,0,1.439,14.4,1.44,1.44,0,0,0,0,12.961,1.441,1.441,0,0,0-1.441,14.4,1.442,1.442,0,0,0,0,15.842Z"/>
      </g>
      <g>
        <path class="ae8d8c0f-87b1-4c61-9983-7091f4fc8421" d="M28.8,1.44A1.44,1.44,0,0,0,30.239,0,1.439,1.439,0,0,0,28.8-1.439,1.44,1.44,0,0,0,27.359,0,1.441,1.441,0,0,0,28.8,1.44Z"/>
        <path class="ae8d8c0f-87b1-4c61-9983-7091f4fc8421" d="M14.4,1.44A1.441,1.441,0,0,0,15.84,0,1.44,1.44,0,0,0,14.4-1.439,1.438,1.438,0,0,0,12.96,0,1.439,1.439,0,0,0,14.4,1.44Z"/>
      </g>
      <path class="ae8d8c0f-87b1-4c61-9983-7091f4fc8421" d="M0,1.44A1.44,1.44,0,0,0,1.439,0,1.439,1.439,0,0,0,0-1.439,1.44,1.44,0,0,0-1.441,0,1.441,1.441,0,0,0,0,1.44Z"/>
    </pattern>
  </defs>
  <g>
    <g>
      <path class="ae8d8c0f-87b1-4c61-9983-7091f4fc8421" d="M137.678,139.21a.314.314,0,0,1-.091-.014L70.218,118.715a.312.312,0,0,1-.222-.3v-46.9a.312.312,0,0,1,.127-.251.315.315,0,0,1,.276-.048L137.768,91.7a.312.312,0,0,1,.222.3v46.9a.312.312,0,0,1-.312.312ZM70.621,118.185l66.744,20.291V92.232L70.621,71.941Z"/>
      <path class="ae8d8c0f-87b1-4c61-9983-7091f4fc8421" d="M103.993,116.692a.38.38,0,0,1-.3-.151L70.006,71.747l.605-.456,33.461,44.5,33.384-24.094.443.614L104.215,116.62A.375.375,0,0,1,103.993,116.692Z"/>
    </g>
    <g>
      <path class="ae8d8c0f-87b1-4c61-9983-7091f4fc8421" d="M191.691,109.328a.363.363,0,0,1-.091-.013L124.231,88.833a.311.311,0,0,1-.221-.3v-46.9a.312.312,0,0,1,.4-.3L191.782,61.82a.312.312,0,0,1,.222.3v46.9a.312.312,0,0,1-.313.312ZM124.635,88.3l66.744,20.291V62.35L124.635,42.059Z"/>
      <path class="ae8d8c0f-87b1-4c61-9983-7091f4fc8421" d="M158.007,86.81a.376.376,0,0,1-.3-.151L124.019,41.865l.606-.456,33.461,44.5L191.47,61.812l.443.614L158.228,86.738A.369.369,0,0,1,158.007,86.81Z"/>
    </g>
    <polygon class="ae8d8c0f-87b1-4c61-9983-7091f4fc8421" points="137.678 135.064 80.579 117.705 80.579 74.642 137.678 92.001 137.678 135.064"/>
    <polygon class="ae8d8c0f-87b1-4c61-9983-7091f4fc8421" points="184.023 106.685 124.322 88.534 124.322 53.997 184.023 72.148 184.023 106.685"/>
    <g>
      <polygon class="ff15ddd5-c227-47ae-a528-2d9afcf20267" points="178.662 141.039 86.935 113.152 86.935 49.299 178.662 77.186 178.662 141.039"/>
      <path class="ae8d8c0f-87b1-4c61-9983-7091f4fc8421" d="M178.662,141.464a.443.443,0,0,1-.124-.018L86.811,113.559a.425.425,0,0,1-.3-.407V49.3a.425.425,0,0,1,.171-.342.42.42,0,0,1,.377-.065l91.727,27.886a.425.425,0,0,1,.3.407v63.853a.424.424,0,0,1-.425.425Zm-91.3-28.627,90.877,27.628V77.5L87.36,49.873Z"/>
    </g>
    <path class="ae8d8c0f-87b1-4c61-9983-7091f4fc8421" d="M132.8,110.8a.511.511,0,0,1-.412-.206L86.523,49.61l.824-.621,45.56,60.584L178.36,76.767l.6.837-45.864,33.1A.508.508,0,0,1,132.8,110.8Z"/>
    <polygon class="ed3eeb34-307a-43da-8b0a-b81c79e40ec7" points="86.935 49.299 136.238 128.141 178.662 141.039 178.662 77.186 132.799 110.288 86.935 49.299"/>
  </g>
</svg>
