<svg id="f3ad7b68-41ef-41d7-81e6-633489d3e775" data-name="Layer 1" xmlns="http://www.w3.org/2000/svg" xmlns:xlink="http://www.w3.org/1999/xlink" viewBox="0 0 262 180">
  <defs>
    <style>
      .a3fa3a7f-82d4-47fb-acf7-eb23c89fd893 {
        fill: none;
      }

      .a57e71db-eab3-4749-83d9-c076473cb9ee {
        fill: #f56d6d;
      }

      .ae4c0276-548a-4d2b-9561-5d6362d42108 {
        fill: #fddbdb;
      }

      .b4fe1f74-05b8-4932-882a-b985bbb85e2b {
        fill: #fff;
      }

      .f4e6baae-5734-425a-a322-9d4deb6476d4 {
        clip-path: url(#b97a50ca-e7b7-488b-a84d-85747cd7d9f6);
      }

      .a704eede-e470-40eb-b53a-71c98e79d13a {
        clip-path: url(#b33248f2-018a-4892-b8f6-8bdbb7551171);
      }

      .e5fd87d4-4571-4bd5-8016-86436be6f667 {
        fill: #e00;
      }

      .a42e3874-af6a-49f5-855d-31074f99c73f {
        clip-path: url(#b83bb526-14b2-4bd4-b290-19f98b72d484);
      }

      .a2193513-87ec-4e6a-9eda-fe93a06348fb {
        clip-path: url(#a61dd2be-95e5-4f7a-8ef2-b58472633e0c);
      }

      .f48a6285-95fd-49d5-8acb-450290bc5de0 {
        clip-path: url(#aaf23614-6dd8-4c0b-ad8c-0445a98ae13b);
      }

      .f508f7fe-2fd1-47b2-bcc4-18384453c21a {
        clip-path: url(#a6bbe1bc-e8be-464d-89f3-dd9f9db3c3b1);
      }

      .fa682976-3a58-4ae9-ac01-efe7e1d09e52 {
        clip-path: url(#e3d885c8-411a-4743-a1f1-1cabe7101e3f);
      }

      .a97ba8cb-2af6-4c7a-9254-5740fccb6107 {
        clip-path: url(#bd9acf5d-b7cf-44af-b9c5-b1d1dbc39376);
      }

      .ad50aa0d-43c8-4bb2-acca-03d69a97b88f {
        clip-path: url(#e0d1a377-f55f-4833-9475-a829a6102a5b);
      }

      .b70453d9-764c-4f1d-9875-8edff48ddcc1 {
        isolation: isolate;
      }

      .b9380c4c-6012-4bab-af8a-d2a397e0829b {
        clip-path: url(#ab8cc841-362c-408b-b6e9-507e8863894c);
      }

      .f3324204-da17-46cc-8d15-873827ef10c2 {
        clip-path: url(#fbd3d52d-d359-42df-b44d-e15b39b34f14);
      }

      .b28b3365-a869-4c0e-a40a-9c9a9b73203e {
        clip-path: url(#af9c43b6-e960-4d88-9cdf-017533db5059);
      }
    </style>
    <clipPath id="b97a50ca-e7b7-488b-a84d-85747cd7d9f6">
      <circle class="a3fa3a7f-82d4-47fb-acf7-eb23c89fd893" cx="118.968" cy="80.575" r="53.804"/>
    </clipPath>
    <clipPath id="b33248f2-018a-4892-b8f6-8bdbb7551171">
      <rect class="a3fa3a7f-82d4-47fb-acf7-eb23c89fd893" x="117.039" y="26.771" width="54.961" height="108.765"/>
    </clipPath>
    <clipPath id="b83bb526-14b2-4bd4-b290-19f98b72d484">
      <rect class="a3fa3a7f-82d4-47fb-acf7-eb23c89fd893" x="64.006" y="24.843" width="53.226" height="110.694"/>
    </clipPath>
    <clipPath id="a61dd2be-95e5-4f7a-8ef2-b58472633e0c">
      <path class="a3fa3a7f-82d4-47fb-acf7-eb23c89fd893" d="M125.1,97.629H109.431V107.7a4.642,4.642,0,0,1-2.757,4.242l-4.484,1.994h18.32V113.3H125.1Z"/>
    </clipPath>
    <clipPath id="aaf23614-6dd8-4c0b-ad8c-0445a98ae13b">
      <path class="a3fa3a7f-82d4-47fb-acf7-eb23c89fd893" d="M128.85,74.236a8.56,8.56,0,1,0,9.532,7.463A8.56,8.56,0,0,0,128.85,74.236Zm1.479,12.147a3.676,3.676,0,1,1,3.206-4.094A3.676,3.676,0,0,1,130.329,86.383Z"/>
    </clipPath>
    <clipPath id="a6bbe1bc-e8be-464d-89f3-dd9f9db3c3b1">
      <circle class="a3fa3a7f-82d4-47fb-acf7-eb23c89fd893" cx="63.91" cy="110.949" r="23.431"/>
    </clipPath>
    <clipPath id="e3d885c8-411a-4743-a1f1-1cabe7101e3f">
      <rect class="a3fa3a7f-82d4-47fb-acf7-eb23c89fd893" x="71.527" y="121.073" width="9.257" height="10.028" transform="translate(152.311 252.174) rotate(180)"/>
    </clipPath>
    <clipPath id="bd9acf5d-b7cf-44af-b9c5-b1d1dbc39376">
      <rect class="a3fa3a7f-82d4-47fb-acf7-eb23c89fd893" x="44.722" y="95.232" width="9.257" height="10.028" transform="translate(98.7 200.492) rotate(180)"/>
    </clipPath>
    <clipPath id="e0d1a377-f55f-4833-9475-a829a6102a5b">
      <circle class="a3fa3a7f-82d4-47fb-acf7-eb23c89fd893" cx="169.493" cy="101.499" r="32.88"/>
    </clipPath>
    <clipPath id="ab8cc841-362c-408b-b6e9-507e8863894c">
      <polygon class="a57e71db-eab3-4749-83d9-c076473cb9ee" points="150.468 92.532 142.306 97.275 142.28 107.071 150.499 111.817 158.661 107.073 158.687 97.277 150.468 92.532"/>
    </clipPath>
    <clipPath id="fbd3d52d-d359-42df-b44d-e15b39b34f14">
      <polygon class="a3fa3a7f-82d4-47fb-acf7-eb23c89fd893" points="152.396 89.061 144.234 93.804 144.209 103.6 152.428 108.345 160.59 103.602 160.615 93.806 152.396 89.061"/>
    </clipPath>
    <clipPath id="af9c43b6-e960-4d88-9cdf-017533db5059">
      <polygon class="a3fa3a7f-82d4-47fb-acf7-eb23c89fd893" points="171.951 104.887 171.913 119.634 159.54 112.491 159.579 97.744 171.951 104.887"/>
    </clipPath>
  </defs>
  <g>
    <path class="ae4c0276-548a-4d2b-9561-5d6362d42108" d="M42.986,57.048C29.487,82.5,46.843,104.1,67.863,120.5c20.455,15.95,25.309,38.27,55.154,39.919,34.905,1.928,39.635-26.6,62.1-45.7,20.634-17.549,34.519-40.5,22.949-63.253-17.982-35.363-61.133-11.185-91.795-10.221S58.205,28.35,42.986,57.048Z"/>
    <g>
      <path class="b4fe1f74-05b8-4932-882a-b985bbb85e2b" d="M159.5,31.436a8.938,8.938,0,0,0-2.633.394,11.918,11.918,0,0,0-21.654,1.313,8.1,8.1,0,0,0-7.2,4.959A5.706,5.706,0,1,0,126.6,49.334h32.9a8.949,8.949,0,1,0,0-17.9Z"/>
      <path class="ae4c0276-548a-4d2b-9561-5d6362d42108" d="M146.343,25.965a11.437,11.437,0,0,1,10.115,6.084l.181.341.369-.113a8.483,8.483,0,1,1,2.5,16.59H126.6a5.238,5.238,0,1,1,1.3-10.312l.391.1.156-.372a7.653,7.653,0,0,1,6.781-4.673l.31-.01.111-.289a11.522,11.522,0,0,1,10.69-7.346m0-.467a11.919,11.919,0,0,0-11.126,7.645,8.1,8.1,0,0,0-7.2,4.959A5.706,5.706,0,1,0,126.6,49.334h32.9a8.949,8.949,0,1,0-2.633-17.5A11.916,11.916,0,0,0,146.343,25.5Z"/>
    </g>
    <g>
      <path class="b4fe1f74-05b8-4932-882a-b985bbb85e2b" d="M146.343,27.427a9.979,9.979,0,0,1,8.825,5.308"/>
      <path class="ae4c0276-548a-4d2b-9561-5d6362d42108" d="M155.168,32.969a.234.234,0,0,1-.206-.124,9.745,9.745,0,0,0-8.619-5.185.234.234,0,1,1,0-.467,10.213,10.213,0,0,1,9.032,5.433.234.234,0,0,1-.1.316A.229.229,0,0,1,155.168,32.969Z"/>
    </g>
    <g>
      <path class="b4fe1f74-05b8-4932-882a-b985bbb85e2b" d="M159.5,33.364a7.029,7.029,0,0,1,7.021,7.021"/>
      <path class="ae4c0276-548a-4d2b-9561-5d6362d42108" d="M166.525,40.619a.234.234,0,0,1-.234-.234A6.8,6.8,0,0,0,159.5,33.6a.234.234,0,1,1,0-.468,7.264,7.264,0,0,1,7.255,7.255A.234.234,0,0,1,166.525,40.619Z"/>
    </g>
    <g>
      <circle class="b4fe1f74-05b8-4932-882a-b985bbb85e2b" cx="118.968" cy="80.575" r="53.804"/>
      <path class="b4fe1f74-05b8-4932-882a-b985bbb85e2b" d="M118.968,26.771a53.8,53.8,0,1,1-53.805,53.8,53.8,53.8,0,0,1,53.805-53.8m0-.578A54.383,54.383,0,1,0,173.35,80.576a54.444,54.444,0,0,0-54.382-54.383Z"/>
    </g>
    <g class="f4e6baae-5734-425a-a322-9d4deb6476d4">
      <circle class="ae4c0276-548a-4d2b-9561-5d6362d42108" cx="118.968" cy="80.575" r="53.804"/>
      <g>
        <path class="a57e71db-eab3-4749-83d9-c076473cb9ee" d="M159.5,31.436a8.938,8.938,0,0,0-2.633.394,11.918,11.918,0,0,0-21.654,1.313,8.1,8.1,0,0,0-7.2,4.959A5.706,5.706,0,1,0,126.6,49.334h32.9a8.949,8.949,0,1,0,0-17.9Z"/>
        <ellipse class="a57e71db-eab3-4749-83d9-c076473cb9ee" cx="117.265" cy="117.043" rx="48.578" ry="5.419"/>
        <g class="a704eede-e470-40eb-b53a-71c98e79d13a">
          <g>
            <g>
              <rect class="b4fe1f74-05b8-4932-882a-b985bbb85e2b" x="109.431" y="97.629" width="15.667" height="15.667"/>
              <path class="a57e71db-eab3-4749-83d9-c076473cb9ee" d="M125.387,113.585H109.142V97.34h16.245Zm-15.666-.579h15.088V97.918H109.721Z"/>
            </g>
            <polygon class="ae4c0276-548a-4d2b-9561-5d6362d42108" points="125.098 106.355 109.431 108.882 109.431 97.629 125.098 97.629 125.098 106.355"/>
            <g>
              <rect class="e5fd87d4-4571-4bd5-8016-86436be6f667" x="76.227" y="53.424" width="82.275" height="52.029"/>
              <rect class="b4fe1f74-05b8-4932-882a-b985bbb85e2b" x="93.321" y="40.271" width="48.087" height="78.334" transform="translate(196.803 -37.927) rotate(90)"/>
            </g>
            <path class="b4fe1f74-05b8-4932-882a-b985bbb85e2b" d="M108.65,65.443H89.105a.29.29,0,0,1,0-.579H108.65a.29.29,0,0,1,0,.579Z"/>
          </g>
          <g>
            <polyline class="b4fe1f74-05b8-4932-882a-b985bbb85e2b" points="101.55 113.841 101.55 111.752 125.235 111.752 132.92 113.841"/>
            <path class="a57e71db-eab3-4749-83d9-c076473cb9ee" d="M132.844,114.121l-7.647-2.08H101.839v1.8h-.578v-2.089a.289.289,0,0,1,.289-.289h23.685a.278.278,0,0,1,.076.01L133,113.562Z"/>
          </g>
          <g>
            <rect class="b4fe1f74-05b8-4932-882a-b985bbb85e2b" x="102.19" y="113.938" width="30.663" height="2.7"/>
            <path class="a57e71db-eab3-4749-83d9-c076473cb9ee" d="M133.141,116.927H101.9v-3.278h31.24Zm-30.662-.578h30.084v-2.122H102.479Z"/>
          </g>
        </g>
      </g>
    </g>
    <g>
      <circle class="b4fe1f74-05b8-4932-882a-b985bbb85e2b" cx="205.845" cy="114.806" r="17.645"/>
      <path class="ae4c0276-548a-4d2b-9561-5d6362d42108" d="M205.845,132.74a17.935,17.935,0,1,1,17.934-17.934A17.954,17.954,0,0,1,205.845,132.74Zm0-35.291A17.357,17.357,0,1,0,223.2,114.806,17.376,17.376,0,0,0,205.845,97.449Z"/>
    </g>
    <g class="f4e6baae-5734-425a-a322-9d4deb6476d4">
      <g class="a42e3874-af6a-49f5-855d-31074f99c73f">
        <circle class="b4fe1f74-05b8-4932-882a-b985bbb85e2b" cx="118.968" cy="80.575" r="53.804"/>
        <ellipse class="ae4c0276-548a-4d2b-9561-5d6362d42108" cx="117.265" cy="117.043" rx="48.578" ry="5.419"/>
        <g>
          <path class="b4fe1f74-05b8-4932-882a-b985bbb85e2b" d="M125.1,113.938V97.629H109.431V107.7a4.642,4.642,0,0,1-2.757,4.242l-4.484,1.994"/>
          <path class="ae4c0276-548a-4d2b-9561-5d6362d42108" d="M102.307,114.2l-.235-.528,4.484-1.994a4.356,4.356,0,0,0,2.586-3.978V97.629a.289.289,0,0,1,.289-.289H125.1a.289.289,0,0,1,.289.289v16.309h-.578V97.918H109.721V107.7a4.937,4.937,0,0,1-2.929,4.507Z"/>
        </g>
        <g>
          <rect class="b4fe1f74-05b8-4932-882a-b985bbb85e2b" x="102.19" y="113.938" width="30.663" height="2.7"/>
          <path class="a57e71db-eab3-4749-83d9-c076473cb9ee" d="M132.852,116.927H102.19a.289.289,0,0,1-.289-.289v-2.7a.289.289,0,0,1,.289-.289h30.662a.289.289,0,0,1,.289.289v2.7A.289.289,0,0,1,132.852,116.927Zm-30.373-.578h30.084v-2.122H102.479Z"/>
        </g>
        <path class="ae4c0276-548a-4d2b-9561-5d6362d42108" d="M102.479,116.445H101.9v-2.507a.289.289,0,0,1,.289-.289h30.662v.578H102.479Z"/>
        <g class="a2193513-87ec-4e6a-9eda-fe93a06348fb">
          <polygon class="a57e71db-eab3-4749-83d9-c076473cb9ee" points="125.098 106.355 108.361 109.117 109.431 97.629 125.098 97.629 125.098 106.355"/>
        </g>
        <rect x="76.043" y="53.471" width="82.442" height="52.015" rx="2.893"/>
        <path class="b4fe1f74-05b8-4932-882a-b985bbb85e2b" d="M97.461,41.5h40.708a1.928,1.928,0,0,1,1.928,1.928v73.064a.964.964,0,0,1-.964.964H96.5a.964.964,0,0,1-.964-.964V43.429A1.928,1.928,0,0,1,97.461,41.5Z" transform="translate(197.293 -38.337) rotate(90)"/>
      </g>
    </g>
    <g>
      <rect class="ae4c0276-548a-4d2b-9561-5d6362d42108" x="86.223" y="64.296" width="61.311" height="34.021"/>
      <g>
        <g>
          <rect x="87.801" y="62.718" width="61.311" height="34.021"/>
          <path class="e5fd87d4-4571-4bd5-8016-86436be6f667" d="M149.4,97.028H87.512v-34.6H149.4ZM88.09,96.45h60.733V63.006H88.09Z"/>
        </g>
        <rect class="e5fd87d4-4571-4bd5-8016-86436be6f667" x="87.801" y="62.718" width="61.311" height="6.835"/>
        <path class="b4fe1f74-05b8-4932-882a-b985bbb85e2b" d="M116.557,66.407H91.227a.289.289,0,0,1,0-.578h25.33a.289.289,0,1,1,0,.578Z"/>
        <g>
          <circle class="b4fe1f74-05b8-4932-882a-b985bbb85e2b" cx="140.795" cy="66.118" r="0.999"/>
          <circle class="b4fe1f74-05b8-4932-882a-b985bbb85e2b" cx="144.747" cy="66.118" r="0.999"/>
        </g>
      </g>
    </g>
    <path class="a57e71db-eab3-4749-83d9-c076473cb9ee" d="M103.217,76.692h-6.2a.289.289,0,1,1,0-.578h6.2a.289.289,0,0,1,0,.578Z"/>
    <path class="b4fe1f74-05b8-4932-882a-b985bbb85e2b" d="M108.264,80.228H95.084a.289.289,0,1,1,0-.578h13.18a.289.289,0,1,1,0,.578Z"/>
    <path class="a57e71db-eab3-4749-83d9-c076473cb9ee" d="M103.217,83.763h-6.2a.289.289,0,0,1,0-.578h6.2a.289.289,0,0,1,0,.578Z"/>
    <path class="b4fe1f74-05b8-4932-882a-b985bbb85e2b" d="M116.557,87.3H98.941a.289.289,0,0,1,0-.578h17.616a.289.289,0,0,1,0,.578Z"/>
    <path class="a57e71db-eab3-4749-83d9-c076473cb9ee" d="M108.65,90.834H97.012a.289.289,0,0,1,0-.578H108.65a.289.289,0,1,1,0,.578Z"/>
    <path class="b4fe1f74-05b8-4932-882a-b985bbb85e2b" d="M114.628,94.37H95.084a.289.289,0,0,1,0-.578h19.544a.289.289,0,0,1,0,.578Z"/>
    <path class="e5fd87d4-4571-4bd5-8016-86436be6f667" d="M91.227,94.46a.289.289,0,0,1-.289-.289v-21.3a.289.289,0,1,1,.578,0v21.3A.289.289,0,0,1,91.227,94.46Z"/>
    <path class="b4fe1f74-05b8-4932-882a-b985bbb85e2b" d="M112.121,73.156H95.084a.289.289,0,0,1,0-.578h17.037a.289.289,0,0,1,0,.578Z"/>
    <g class="f48a6285-95fd-49d5-8acb-450290bc5de0">
      <circle class="e5fd87d4-4571-4bd5-8016-86436be6f667" cx="129.885" cy="82.734" r="8.56"/>
      <path class="b4fe1f74-05b8-4932-882a-b985bbb85e2b" d="M120.992,75.193l8.893,7.541,11.147-1.358s.988-5.591-5.737-9.037S120.992,75.193,120.992,75.193Z"/>
      <path class="a57e71db-eab3-4749-83d9-c076473cb9ee" d="M120.608,80.217l9.277,2.517,5.273-8.977s-5.7-2.6-9.66-.907S120.608,80.217,120.608,80.217Z"/>
      <path class="ae4c0276-548a-4d2b-9561-5d6362d42108" d="M129.885,82.734l7.234-7.132s-3.192-2.447-5.408-2.582Z"/>
    </g>
    <g class="f508f7fe-2fd1-47b2-bcc4-18384453c21a">
      <g>
        <circle class="b4fe1f74-05b8-4932-882a-b985bbb85e2b" cx="63.91" cy="110.949" r="23.431"/>
        <path class="ae4c0276-548a-4d2b-9561-5d6362d42108" d="M63.91,88.1a22.852,22.852,0,1,1-22.852,22.852A22.877,22.877,0,0,1,63.91,88.1m0-.579a23.431,23.431,0,1,0,23.431,23.431A23.43,23.43,0,0,0,63.91,87.518Z"/>
      </g>
      <rect class="ae4c0276-548a-4d2b-9561-5d6362d42108" x="71.527" y="121.073" width="9.257" height="10.028" transform="translate(152.311 252.174) rotate(180)"/>
      <rect class="ae4c0276-548a-4d2b-9561-5d6362d42108" x="44.722" y="95.232" width="9.257" height="10.028" transform="translate(98.7 200.492) rotate(180)"/>
      <circle class="a57e71db-eab3-4749-83d9-c076473cb9ee" cx="118.968" cy="80.575" r="53.804"/>
      <g>
        <g class="fa682976-3a58-4ae9-ac01-efe7e1d09e52">
          <rect class="a57e71db-eab3-4749-83d9-c076473cb9ee" x="64.006" y="115.866" width="9.257" height="10.028" transform="translate(137.269 241.761) rotate(180)"/>
        </g>
        <g class="a97ba8cb-2af6-4c7a-9254-5740fccb6107">
          <rect class="a57e71db-eab3-4749-83d9-c076473cb9ee" x="50.7" y="101.789" width="9.257" height="10.028" transform="translate(110.656 213.605) rotate(180)"/>
        </g>
      </g>
      <g>
        <path d="M59.185,111.141a.289.289,0,0,1-.289-.289v-2.121a.289.289,0,0,1,.578,0v2.121A.289.289,0,0,1,59.185,111.141Z"/>
        <path d="M53.4,111.141a.289.289,0,0,1-.289-.289v-2.121a.289.289,0,0,1,.578,0v2.121A.289.289,0,0,1,53.4,111.141Z"/>
        <path d="M57.257,111.141a.289.289,0,0,1-.289-.289v-2.121a.289.289,0,0,1,.578,0v2.121A.289.289,0,0,1,57.257,111.141Z"/>
        <path d="M55.328,111.141a.289.289,0,0,1-.289-.289v-2.121a.29.29,0,0,1,.579,0v2.121A.289.289,0,0,1,55.328,111.141Z"/>
        <path d="M67.188,111.141a.289.289,0,0,1-.289-.289v-2.121a.289.289,0,0,1,.578,0v2.121A.289.289,0,0,1,67.188,111.141Z"/>
        <path d="M72.973,111.141a.289.289,0,0,1-.289-.289v-2.121a.29.29,0,0,1,.579,0v2.121A.289.289,0,0,1,72.973,111.141Z"/>
        <path d="M69.117,111.141a.289.289,0,0,1-.29-.289v-2.121a.29.29,0,0,1,.579,0v2.121A.289.289,0,0,1,69.117,111.141Z"/>
        <path d="M71.045,111.141a.289.289,0,0,1-.289-.289v-2.121a.289.289,0,0,1,.578,0v2.121A.289.289,0,0,1,71.045,111.141Z"/>
        <path d="M66.417,121.266H64.3a.289.289,0,1,1,0-.578h2.121a.289.289,0,0,1,0,.578Z"/>
        <path d="M66.417,115.481H64.3a.29.29,0,0,1,0-.579h2.121a.29.29,0,0,1,0,.579Z"/>
        <path d="M66.417,119.338H64.3a.29.29,0,0,1,0-.579h2.121a.29.29,0,0,1,0,.579Z"/>
        <path d="M66.417,117.409H64.3a.289.289,0,1,1,0-.578h2.121a.289.289,0,0,1,0,.578Z"/>
        <path d="M66.417,103.138H64.3a.289.289,0,0,1,0-.578h2.121a.289.289,0,0,1,0,.578Z"/>
        <path d="M66.417,108.923H64.3a.289.289,0,0,1,0-.578h2.121a.289.289,0,0,1,0,.578Z"/>
        <path d="M66.417,105.067H64.3a.29.29,0,0,1,0-.579h2.121a.29.29,0,0,1,0,.579Z"/>
        <path d="M66.417,107H64.3a.289.289,0,0,1,0-.578h2.121a.289.289,0,0,1,0,.578Z"/>
        <g>
          <rect class="e5fd87d4-4571-4bd5-8016-86436be6f667" x="51.857" y="99.86" width="9.257" height="10.028"/>
          <path class="a57e71db-eab3-4749-83d9-c076473cb9ee" d="M58.607,107.67a.289.289,0,0,1-.289-.289v-4.725H54.364a.289.289,0,0,1,0-.578h4.243a.29.29,0,0,1,.289.289v5.014A.289.289,0,0,1,58.607,107.67Z"/>
          <g>
            <path class="e5fd87d4-4571-4bd5-8016-86436be6f667" d="M62.174,102.174H60.053a.289.289,0,0,1,0-.578h2.121a.289.289,0,0,1,0,.578Z"/>
            <path class="e5fd87d4-4571-4bd5-8016-86436be6f667" d="M62.174,107.96H60.053a.29.29,0,0,1,0-.579h2.121a.29.29,0,0,1,0,.579Z"/>
            <path class="e5fd87d4-4571-4bd5-8016-86436be6f667" d="M62.174,104.1H60.053a.289.289,0,0,1,0-.578h2.121a.289.289,0,0,1,0,.578Z"/>
            <path class="e5fd87d4-4571-4bd5-8016-86436be6f667" d="M62.174,106.031H60.053a.289.289,0,0,1,0-.578h2.121a.289.289,0,0,1,0,.578Z"/>
          </g>
        </g>
        <g>
          <rect class="e5fd87d4-4571-4bd5-8016-86436be6f667" x="65.26" y="99.86" width="9.257" height="10.028" transform="translate(139.776 209.748) rotate(-180)"/>
          <path class="a57e71db-eab3-4749-83d9-c076473cb9ee" d="M72.01,107.67a.289.289,0,0,1-.289-.289v-4.725H67.767a.289.289,0,0,1,0-.578H72.01a.29.29,0,0,1,.289.289v5.014A.289.289,0,0,1,72.01,107.67Z"/>
        </g>
        <g>
          <rect class="e5fd87d4-4571-4bd5-8016-86436be6f667" x="51.857" y="113.938" width="9.257" height="10.028"/>
          <path class="a57e71db-eab3-4749-83d9-c076473cb9ee" d="M58.607,121.748a.289.289,0,0,1-.289-.289v-4.725H54.364a.289.289,0,0,1,0-.578h4.243a.289.289,0,0,1,.289.289v5.014A.289.289,0,0,1,58.607,121.748Z"/>
          <g>
            <path class="e5fd87d4-4571-4bd5-8016-86436be6f667" d="M62.174,122.23H60.053a.289.289,0,0,1,0-.578h2.121a.289.289,0,1,1,0,.578Z"/>
            <path class="e5fd87d4-4571-4bd5-8016-86436be6f667" d="M62.174,116.444H60.053a.289.289,0,0,1,0-.578h2.121a.289.289,0,1,1,0,.578Z"/>
            <path class="e5fd87d4-4571-4bd5-8016-86436be6f667" d="M62.174,120.3H60.053a.289.289,0,0,1,0-.578h2.121a.289.289,0,1,1,0,.578Z"/>
            <path class="e5fd87d4-4571-4bd5-8016-86436be6f667" d="M62.174,118.373H60.053a.289.289,0,0,1,0-.578h2.121a.289.289,0,1,1,0,.578Z"/>
          </g>
          <g>
            <path class="e5fd87d4-4571-4bd5-8016-86436be6f667" d="M60.149,115.384a.289.289,0,0,1-.289-.289v-2.121a.289.289,0,1,1,.578,0V115.1A.289.289,0,0,1,60.149,115.384Z"/>
            <path class="e5fd87d4-4571-4bd5-8016-86436be6f667" d="M54.364,115.384a.289.289,0,0,1-.289-.289v-2.121a.289.289,0,0,1,.578,0V115.1A.289.289,0,0,1,54.364,115.384Z"/>
            <path class="e5fd87d4-4571-4bd5-8016-86436be6f667" d="M58.221,115.384a.289.289,0,0,1-.289-.289v-2.121a.289.289,0,0,1,.578,0V115.1A.289.289,0,0,1,58.221,115.384Z"/>
            <path class="e5fd87d4-4571-4bd5-8016-86436be6f667" d="M56.292,115.384A.289.289,0,0,1,56,115.1v-2.121a.289.289,0,1,1,.578,0V115.1A.289.289,0,0,1,56.292,115.384Z"/>
          </g>
        </g>
        <g>
          <rect class="e5fd87d4-4571-4bd5-8016-86436be6f667" x="65.26" y="113.938" width="9.257" height="10.028" transform="translate(139.776 237.904) rotate(180)"/>
          <path class="a57e71db-eab3-4749-83d9-c076473cb9ee" d="M72.01,121.748a.289.289,0,0,1-.289-.289v-4.725H67.767a.289.289,0,1,1,0-.578H72.01a.289.289,0,0,1,.289.289v5.014A.289.289,0,0,1,72.01,121.748Z"/>
          <g>
            <path class="e5fd87d4-4571-4bd5-8016-86436be6f667" d="M66.224,115.384a.289.289,0,0,1-.289-.289v-2.121a.289.289,0,0,1,.578,0V115.1A.289.289,0,0,1,66.224,115.384Z"/>
            <path class="e5fd87d4-4571-4bd5-8016-86436be6f667" d="M72.01,115.384a.289.289,0,0,1-.289-.289v-2.121a.289.289,0,0,1,.578,0V115.1A.289.289,0,0,1,72.01,115.384Z"/>
            <path class="e5fd87d4-4571-4bd5-8016-86436be6f667" d="M68.153,115.384a.289.289,0,0,1-.289-.289v-2.121a.289.289,0,0,1,.578,0V115.1A.289.289,0,0,1,68.153,115.384Z"/>
            <path class="e5fd87d4-4571-4bd5-8016-86436be6f667" d="M70.081,115.384a.289.289,0,0,1-.289-.289v-2.121a.289.289,0,0,1,.578,0V115.1A.289.289,0,0,1,70.081,115.384Z"/>
          </g>
        </g>
      </g>
    </g>
    <g class="ad50aa0d-43c8-4bb2-acca-03d69a97b88f">
      <circle class="b4fe1f74-05b8-4932-882a-b985bbb85e2b" cx="169.493" cy="101.499" r="32.88"/>
      <circle class="ae4c0276-548a-4d2b-9561-5d6362d42108" cx="118.968" cy="80.575" r="53.804"/>
      <g>
        <g class="b70453d9-764c-4f1d-9875-8edff48ddcc1">
          <polygon class="a57e71db-eab3-4749-83d9-c076473cb9ee" points="165.531 79.541 160.345 82.554 155.123 79.539 160.309 76.526 165.531 79.541"/>
          <polygon class="a57e71db-eab3-4749-83d9-c076473cb9ee" points="165.531 79.541 165.514 85.765 160.328 88.778 160.345 82.554 165.531 79.541"/>
          <polygon class="a57e71db-eab3-4749-83d9-c076473cb9ee" points="160.345 82.554 160.328 88.778 155.106 85.763 155.123 79.539 160.345 82.554"/>
        </g>
        <g>
          <g class="b70453d9-764c-4f1d-9875-8edff48ddcc1">
            <polygon class="a57e71db-eab3-4749-83d9-c076473cb9ee" points="158.687 97.277 150.525 102.02 142.306 97.275 150.468 92.532 158.687 97.277"/>
            <polygon class="a57e71db-eab3-4749-83d9-c076473cb9ee" points="158.687 97.277 158.661 107.073 150.499 111.817 150.525 102.02 158.687 97.277"/>
            <polygon class="a57e71db-eab3-4749-83d9-c076473cb9ee" points="150.525 102.02 150.499 111.817 142.28 107.071 142.306 97.275 150.525 102.02"/>
          </g>
          <g>
            <polygon class="a57e71db-eab3-4749-83d9-c076473cb9ee" points="150.468 92.532 142.306 97.275 142.28 107.071 150.499 111.817 158.661 107.073 158.687 97.277 150.468 92.532"/>
            <g class="b9380c4c-6012-4bab-af8a-d2a397e0829b">
              <g class="b70453d9-764c-4f1d-9875-8edff48ddcc1">
                <polygon class="a57e71db-eab3-4749-83d9-c076473cb9ee" points="170.836 102.098 162.674 106.842 154.455 102.096 162.617 97.353 170.836 102.098"/>
                <polygon class="a57e71db-eab3-4749-83d9-c076473cb9ee" points="170.836 102.098 170.81 111.894 162.648 116.638 162.674 106.842 170.836 102.098"/>
                <polygon class="a57e71db-eab3-4749-83d9-c076473cb9ee" points="162.674 106.842 162.648 116.638 154.429 111.893 154.455 102.096 162.674 106.842"/>
              </g>
            </g>
          </g>
        </g>
      </g>
      <g class="b70453d9-764c-4f1d-9875-8edff48ddcc1">
        <polygon class="b4fe1f74-05b8-4932-882a-b985bbb85e2b" points="167.459 76.069 162.273 79.083 157.051 76.068 162.237 73.054 167.459 76.069"/>
        <polygon class="b4fe1f74-05b8-4932-882a-b985bbb85e2b" points="167.459 76.069 167.443 82.293 162.257 85.307 162.273 79.083 167.459 76.069"/>
        <g>
          <polygon class="ae4c0276-548a-4d2b-9561-5d6362d42108" points="162.273 79.083 162.257 85.307 157.035 82.292 157.051 76.068 162.273 79.083"/>
          <path class="b4fe1f74-05b8-4932-882a-b985bbb85e2b" d="M157.627,77.069l4.067,2.348-.013,4.89-4.067-2.348.013-4.89m-.576-1-.016,6.224,5.222,3.015.016-6.224-5.222-3.015Z"/>
        </g>
      </g>
      <g class="b70453d9-764c-4f1d-9875-8edff48ddcc1">
        <g>
          <polygon class="b4fe1f74-05b8-4932-882a-b985bbb85e2b" points="167.073 122.353 161.887 125.366 156.665 122.351 161.851 119.338 167.073 122.353"/>
          <path class="ae4c0276-548a-4d2b-9561-5d6362d42108" d="M161.852,120.006l4.067,2.348-4.033,2.344-4.066-2.348,4.032-2.344m0-.668-5.186,3.013,5.222,3.015,5.186-3.013-5.222-3.015Z"/>
        </g>
        <polygon class="ae4c0276-548a-4d2b-9561-5d6362d42108" points="167.073 122.353 167.057 128.577 161.871 131.59 161.887 125.366 167.073 122.353"/>
        <polygon class="a57e71db-eab3-4749-83d9-c076473cb9ee" points="161.887 125.366 161.871 131.59 156.649 128.575 156.665 122.351 161.887 125.366"/>
      </g>
      <g>
        <g class="b70453d9-764c-4f1d-9875-8edff48ddcc1">
          <polygon class="b4fe1f74-05b8-4932-882a-b985bbb85e2b" points="160.615 93.806 152.453 98.549 144.234 93.804 152.396 89.061 160.615 93.806"/>
          <polygon class="b4fe1f74-05b8-4932-882a-b985bbb85e2b" points="160.615 93.806 160.59 103.602 152.428 108.345 152.453 98.549 160.615 93.806"/>
          <g>
            <polygon class="ae4c0276-548a-4d2b-9561-5d6362d42108" points="152.453 98.549 152.428 108.345 144.209 103.6 144.234 93.804 152.453 98.549"/>
            <path class="b4fe1f74-05b8-4932-882a-b985bbb85e2b" d="M144.81,94.805l7.064,4.078-.022,8.462-7.064-4.078.022-8.462m-.576-1-.025,9.8,8.219,4.745.025-9.8L144.234,93.8Z"/>
          </g>
        </g>
        <g class="f3324204-da17-46cc-8d15-873827ef10c2">
          <g class="b70453d9-764c-4f1d-9875-8edff48ddcc1">
            <polygon class="ae4c0276-548a-4d2b-9561-5d6362d42108" points="172.764 98.049 164.602 102.792 156.383 98.047 164.545 93.303 172.764 98.049"/>
            <polygon class="ae4c0276-548a-4d2b-9561-5d6362d42108" points="172.764 98.627 172.739 108.423 164.577 113.167 164.602 103.37 172.764 98.627"/>
            <polygon class="ae4c0276-548a-4d2b-9561-5d6362d42108" points="164.602 102.792 164.577 112.588 156.358 107.843 156.383 98.047 164.602 102.792"/>
          </g>
        </g>
      </g>
      <g>
        <g class="b70453d9-764c-4f1d-9875-8edff48ddcc1">
          <polygon class="e5fd87d4-4571-4bd5-8016-86436be6f667" points="184.238 97.747 171.951 104.887 159.579 97.744 171.866 90.603 184.238 97.747"/>
          <polygon class="a57e71db-eab3-4749-83d9-c076473cb9ee" points="184.238 97.747 184.2 112.493 171.913 119.634 171.951 104.887 184.238 97.747"/>
          <polygon class="e5fd87d4-4571-4bd5-8016-86436be6f667" points="171.951 104.887 171.913 119.634 159.54 112.491 159.579 97.744 171.951 104.887"/>
          <g class="b28b3365-a869-4c0e-a40a-9c9a9b73203e">
            <path d="M159.176,97.932s.771,15.138,10.414,20.731l-10.607-6.171Z"/>
          </g>
        </g>
        <polygon class="b4fe1f74-05b8-4932-882a-b985bbb85e2b" points="172.202 119.635 171.624 119.633 171.662 105.054 159.434 97.994 159.723 97.493 172.241 104.72 172.202 119.635"/>
        <polygon class="b4fe1f74-05b8-4932-882a-b985bbb85e2b" points="172.202 119.635 171.624 119.633 171.662 104.721 184.093 97.497 184.384 97.997 172.241 105.054 172.202 119.635"/>
      </g>
      <circle class="ae4c0276-548a-4d2b-9561-5d6362d42108" cx="205.845" cy="114.806" r="17.645"/>
      <path class="b4fe1f74-05b8-4932-882a-b985bbb85e2b" d="M169.493,69.2a32.3,32.3,0,1,1-32.3,32.3,32.338,32.338,0,0,1,32.3-32.3m0-.579a32.881,32.881,0,1,0,32.881,32.88,32.88,32.88,0,0,0-32.881-32.88Z"/>
    </g>
    <g>
      <rect class="a57e71db-eab3-4749-83d9-c076473cb9ee" x="199.274" y="107.634" width="10.153" height="16.85"/>
      <g>
        <path class="a57e71db-eab3-4749-83d9-c076473cb9ee" d="M215.83,115H195.74a.289.289,0,1,1,0-.578h20.09a.289.289,0,1,1,0,.578Z"/>
        <path class="a57e71db-eab3-4749-83d9-c076473cb9ee" d="M215.83,110.678H195.74a.289.289,0,1,1,0-.578h20.09a.289.289,0,1,1,0,.578Z"/>
        <path class="a57e71db-eab3-4749-83d9-c076473cb9ee" d="M215.83,119.319H195.74a.289.289,0,1,1,0-.578h20.09a.289.289,0,1,1,0,.578Z"/>
        <rect class="e5fd87d4-4571-4bd5-8016-86436be6f667" x="214.534" y="109.093" width="2.592" height="2.592"/>
        <rect class="e5fd87d4-4571-4bd5-8016-86436be6f667" x="214.534" y="117.734" width="2.592" height="2.592" rx="1.296"/>
        <polygon class="e5fd87d4-4571-4bd5-8016-86436be6f667" points="214.534 116.005 214.534 113.413 217.126 114.709 214.534 116.005"/>
        <rect class="e5fd87d4-4571-4bd5-8016-86436be6f667" x="194.66" y="117.734" width="2.592" height="2.592"/>
        <rect class="e5fd87d4-4571-4bd5-8016-86436be6f667" x="194.66" y="113.413" width="2.592" height="2.592" rx="1.296"/>
        <polygon class="e5fd87d4-4571-4bd5-8016-86436be6f667" points="197.252 109.093 197.252 111.685 194.66 110.389 197.252 109.093"/>
        <rect x="199.385" y="114.42" width="10.221" height="0.578"/>
        <rect x="199.385" y="110.1" width="10.221" height="0.578"/>
        <rect x="199.385" y="118.741" width="10.221" height="0.578"/>
      </g>
      <g>
        <rect class="b4fe1f74-05b8-4932-882a-b985bbb85e2b" x="200.816" y="106.284" width="10.153" height="16.85"/>
        <path class="ae4c0276-548a-4d2b-9561-5d6362d42108" d="M210.391,106.863v15.693h-9V106.863h9m.579-.579H200.816v16.85H210.97v-16.85Z"/>
      </g>
      <path class="ae4c0276-548a-4d2b-9561-5d6362d42108" d="M209.149,121.362a.289.289,0,0,1-.289-.289V108.634h-6.03a.289.289,0,1,1,0-.578h6.319a.289.289,0,0,1,.289.289v12.728A.289.289,0,0,1,209.149,121.362Z"/>
    </g>
    <g class="b70453d9-764c-4f1d-9875-8edff48ddcc1">
      <g>
        <polygon class="b4fe1f74-05b8-4932-882a-b985bbb85e2b" points="192.397 71.799 184.272 76.521 176.092 71.798 184.216 67.076 192.397 71.799"/>
        <path class="ae4c0276-548a-4d2b-9561-5d6362d42108" d="M184.217,67.745l7.025,4.056-6.97,4.051L177.246,71.8l6.971-4.051m0-.669L176.092,71.8l8.18,4.723L192.4,71.8l-8.181-4.723Z"/>
      </g>
      <polygon class="ae4c0276-548a-4d2b-9561-5d6362d42108" points="192.397 71.799 192.371 81.55 184.247 86.271 184.272 76.521 192.397 71.799"/>
      <polygon class="a57e71db-eab3-4749-83d9-c076473cb9ee" points="184.272 76.521 184.247 86.271 176.066 81.548 176.092 71.798 184.272 76.521"/>
    </g>
  </g>
</svg>
