<svg id="f7f3c727-9c53-4c81-95c8-daa8f8a50509" data-name="Layer 1" xmlns="http://www.w3.org/2000/svg" xmlns:xlink="http://www.w3.org/1999/xlink" viewBox="0 0 262 180">
  <defs>
    <style>
      .f9fef978-c666-4e8a-ab2f-2a19079652fa {
        fill: none;
      }

      .a6e0decb-9741-4923-846e-dc333e684548 {
        fill: #f56d6d;
      }

      .abb23cc1-9523-4955-a44a-3bf51c9eff7b {
        fill: red;
      }

      .eb0422e3-5131-4e64-820f-d33b46644944 {
        fill: #fadfdf;
      }

      .a3f49d25-fcf8-4f28-b753-95a840a43362 {
        fill: #fff;
      }

      .ad2f6e58-db60-429e-ad6f-73afbc072673 {
        fill: #fddbdb;
      }

      .b8d5e11b-f8a0-4504-a214-321c542242f6 {
        fill: #fab6b6;
      }

      .a5cc7d0f-3d1a-45ad-8234-9b571e9774c0 {
        fill: #e00;
      }

      .b81fb3ee-d4f2-4f85-9d5a-465ff25bd4a5 {
        clip-path: url(#fc0a9f6f-3674-4b8d-b2cd-1f02c2d0025c);
      }

      .a39899e8-73b6-4a07-881a-a608828e758b {
        clip-path: url(#a00d079a-3f18-4041-b430-895dccb69fb0);
      }

      .fbd539c1-59c3-4059-8c33-bd33ac34d657 {
        clip-path: url(#a23e1ea7-dfdf-4830-8a98-d95ceedacc2e);
      }

      .b93dde93-a7ff-4ab9-a7c6-903233e46ea7 {
        clip-path: url(#e87a79ab-8d58-44cf-b91a-6c6ee3cff5d2);
      }

      .f8a63185-57cf-4ec0-948b-ec576ff6ad05 {
        clip-path: url(#ecf4c7ed-10ab-4ce3-ae48-a69a12c73482);
      }

      .aa1ac2e9-a22b-4e92-80e0-1f10833e3eca {
        clip-path: url(#ff015091-8663-420a-891c-1a5f98f51821);
      }

      .fab69446-65bc-4c0f-a782-ca9dba3941ef {
        clip-path: url(#efe300a0-48b7-4384-aeb9-d5bc334cc69d);
      }

      .a7482b2d-6d7c-4b88-a47a-1733b6cf79cb {
        clip-path: url(#aa42e23c-bb39-4f57-b579-b43e0baaa46c);
      }

      .f4886fa8-9938-405e-9acb-1e0453fe5d49 {
        clip-path: url(#bfccdd83-1c42-4958-b983-3659a8f5598f);
      }

      .aac60bf6-001c-45e5-9f06-368660840236 {
        isolation: isolate;
      }

      .bd3c3773-81bb-4e80-a5e8-f4a29991ee34 {
        clip-path: url(#a09dc58a-93bd-415c-b930-15caacd1aa8d);
      }

      .e7e1d80f-08b1-4e5b-8b75-9fb3c32a14db {
        clip-path: url(#f1b7857a-f3c2-4d37-b03a-64263f8229c1);
      }

      .b8a9a350-cfce-4026-bae4-06da8fb73786 {
        clip-path: url(#bc910ffd-5738-4ff7-84a6-843cd182457d);
      }
    </style>
    <clipPath id="fc0a9f6f-3674-4b8d-b2cd-1f02c2d0025c">
      <circle class="f9fef978-c666-4e8a-ab2f-2a19079652fa" cx="204.596" cy="69.68" r="16.738"/>
    </clipPath>
    <clipPath id="a00d079a-3f18-4041-b430-895dccb69fb0">
      <rect class="f9fef978-c666-4e8a-ab2f-2a19079652fa" x="203.996" y="52.942" width="17.098" height="33.836"/>
    </clipPath>
    <clipPath id="a23e1ea7-dfdf-4830-8a98-d95ceedacc2e">
      <rect class="f9fef978-c666-4e8a-ab2f-2a19079652fa" x="187.498" y="52.342" width="16.558" height="34.436"/>
    </clipPath>
    <clipPath id="e87a79ab-8d58-44cf-b91a-6c6ee3cff5d2">
      <path class="f9fef978-c666-4e8a-ab2f-2a19079652fa" d="M206.5,74.985H201.63v3.133a1.446,1.446,0,0,1-.858,1.32l-1.395.62h5.7v-.2H206.5Z"/>
    </clipPath>
    <clipPath id="ecf4c7ed-10ab-4ce3-ae48-a69a12c73482">
      <path class="f9fef978-c666-4e8a-ab2f-2a19079652fa" d="M207.671,67.707a2.663,2.663,0,1,0,2.965,2.322A2.664,2.664,0,0,0,207.671,67.707Zm.46,3.779a1.144,1.144,0,1,1,1-1.273A1.144,1.144,0,0,1,208.131,71.486Z"/>
    </clipPath>
    <clipPath id="ff015091-8663-420a-891c-1a5f98f51821">
      <circle class="f9fef978-c666-4e8a-ab2f-2a19079652fa" cx="187.468" cy="79.128" r="7.289"/>
    </clipPath>
    <clipPath id="efe300a0-48b7-4384-aeb9-d5bc334cc69d">
      <rect class="f9fef978-c666-4e8a-ab2f-2a19079652fa" x="189.838" y="82.278" width="2.88" height="3.12" transform="translate(382.556 167.676) rotate(180)"/>
    </clipPath>
    <clipPath id="aa42e23c-bb39-4f57-b579-b43e0baaa46c">
      <rect class="f9fef978-c666-4e8a-ab2f-2a19079652fa" x="181.499" y="74.239" width="2.88" height="3.12" transform="translate(365.878 151.598) rotate(180)"/>
    </clipPath>
    <clipPath id="bfccdd83-1c42-4958-b983-3659a8f5598f">
      <circle class="f9fef978-c666-4e8a-ab2f-2a19079652fa" cx="220.314" cy="76.189" r="10.229"/>
    </clipPath>
    <clipPath id="a09dc58a-93bd-415c-b930-15caacd1aa8d">
      <polygon class="a6e0decb-9741-4923-846e-dc333e684548" points="214.396 73.399 211.857 74.875 211.849 77.922 214.405 79.398 216.945 77.923 216.953 74.875 214.396 73.399"/>
    </clipPath>
    <clipPath id="f1b7857a-f3c2-4d37-b03a-64263f8229c1">
      <polygon class="f9fef978-c666-4e8a-ab2f-2a19079652fa" points="214.996 72.319 212.456 73.795 212.449 76.842 215.005 78.318 217.545 76.843 217.552 73.795 214.996 72.319"/>
    </clipPath>
    <clipPath id="bc910ffd-5738-4ff7-84a6-843cd182457d">
      <polygon class="f9fef978-c666-4e8a-ab2f-2a19079652fa" points="221.079 77.243 221.067 81.83 217.218 79.608 217.23 75.02 221.079 77.243"/>
    </clipPath>
  </defs>
  <g>
    <g>
      <g>
        <path class="abb23cc1-9523-4955-a44a-3bf51c9eff7b" d="M47.392,78.2a13.822,13.822,0,0,1-13.51-16.868.15.15,0,0,1,.173-.109.148.148,0,0,1,.11.174,13.537,13.537,0,0,0,20.266,14.53.145.145,0,1,1,.151.247A13.74,13.74,0,0,1,47.392,78.2Z"/>
        <path class="abb23cc1-9523-4955-a44a-3bf51c9eff7b" d="M35.578,57.575a.15.15,0,0,1-.073-.019.147.147,0,0,1-.052-.2,13.83,13.83,0,0,1,23.716-.192.145.145,0,0,1-.048.2.147.147,0,0,1-.2-.047A13.543,13.543,0,0,0,35.7,57.5.143.143,0,0,1,35.578,57.575Z"/>
        <circle class="abb23cc1-9523-4955-a44a-3bf51c9eff7b" cx="35.556" cy="57.483" r="0.415"/>
        <circle class="abb23cc1-9523-4955-a44a-3bf51c9eff7b" cx="34.077" cy="61.28" r="0.415"/>
        <path class="abb23cc1-9523-4955-a44a-3bf51c9eff7b" d="M65.766,96.545A13.781,13.781,0,0,1,55.989,92.5a.144.144,0,1,1,.2-.2,13.539,13.539,0,1,0,0-19.147.144.144,0,1,1-.2-.2,13.826,13.826,0,1,1,9.777,23.6Z"/>
        <path class="eb0422e3-5131-4e64-820f-d33b46644944" d="M65.018,52.261c7.1,1.494,6.885,7.146,10.245,9.153,2.695,1.609,5.931,5.169,5.931,8.189,0,6.5-6.024,9.305-7.078,12.93-.881,3.032-1.1,5.881-3.469,8.338A9.422,9.422,0,0,1,62.8,93.76c-4.206-.575-6.564-3.551-10.949-3.925a41.053,41.053,0,0,1-6.223-.695,28.862,28.862,0,0,1-6.15-2.226c-3.961-2.145-7.143-6.948-6.382-11.855.746-4.814,4.717-8.379,8.69-10.227a27.078,27.078,0,0,0,4.475-2.26,34.462,34.462,0,0,0,3.976-3.956C54.512,54.35,59.489,51.1,65.018,52.261Z"/>
        <path class="a3f49d25-fcf8-4f28-b753-95a840a43362" d="M47.392,78.208a13.84,13.84,0,0,1-11.825-6.616c-.236-.387-.453-.785-.647-1.186a.148.148,0,0,1,.069-.2.152.152,0,0,1,.2.069c.19.391.4.782.634,1.16a13.543,13.543,0,0,0,18.6,4.488.151.151,0,0,1,.157.257A13.755,13.755,0,0,1,47.392,78.208Z"/>
        <path class="a3f49d25-fcf8-4f28-b753-95a840a43362" d="M78.09,76.92a.148.148,0,0,1-.135-.085A13.546,13.546,0,0,0,56.2,73.156a.15.15,0,0,1-.214,0,.152.152,0,0,1,0-.213A13.844,13.844,0,0,1,78.225,76.7a.151.151,0,0,1-.135.216Z"/>
        <g>
          <g>
            <rect class="a3f49d25-fcf8-4f28-b753-95a840a43362" x="65.61" y="81.619" width="14.361" height="13.147"/>
            <circle cx="76.57" cy="82.997" r="0.457"/>
            <circle cx="78.343" cy="82.997" r="0.457"/>
          </g>
          <path d="M78.117,85.389H67.533a.111.111,0,0,1,0-.222H78.117a.111.111,0,0,1,0,.222Z"/>
        </g>
        <g>
          <path class="a3f49d25-fcf8-4f28-b753-95a840a43362" d="M55.691,60.752a3.4,3.4,0,0,1,1.206.219,4.908,4.908,0,0,1,4.08-2.577,7.4,7.4,0,0,1,13.568-.976,5.6,5.6,0,1,1,1.62,10.951H55.99c-2.609,0-3.729-2.293-3.729-4.187A3.43,3.43,0,0,1,55.691,60.752Z"/>
          <path class="ad2f6e58-db60-429e-ad6f-73afbc072673" d="M76.165,68.462H55.989c-2.508,0-3.821-2.153-3.821-4.28a3.523,3.523,0,0,1,4.687-3.325A5.035,5.035,0,0,1,60.911,58.3a7.486,7.486,0,0,1,13.68-1,5.637,5.637,0,0,1,1.574-.223,5.688,5.688,0,0,1,0,11.376ZM55.691,60.845a3.341,3.341,0,0,0-3.338,3.337c0,1.647.969,4.094,3.636,4.094H76.165a5.5,5.5,0,1,0,0-11,5.453,5.453,0,0,0-1.593.236l-.074.022-.036-.068a7.3,7.3,0,0,0-13.4.962l-.021.059-.061,0a4.844,4.844,0,0,0-4,2.528l-.039.071-.075-.028A3.3,3.3,0,0,0,55.691,60.845Z"/>
        </g>
        <g>
          <rect class="a6e0decb-9741-4923-846e-dc333e684548" x="42.977" y="60.129" width="25.397" height="24.215"/>
          <g>
            <g>
              <g>
                <rect class="a3f49d25-fcf8-4f28-b753-95a840a43362" x="38.334" y="53.196" width="13.657" height="12.502"/>
                <circle cx="48.756" cy="54.506" r="0.435"/>
                <circle cx="50.442" cy="54.506" r="0.435"/>
              </g>
              <path d="M50.228,56.787H40.164a.111.111,0,0,1,0-.222H50.228a.111.111,0,1,1,0,.222Z"/>
              <g>
                <path d="M49.355,64.319a.11.11,0,0,1-.111-.111V61.789a.111.111,0,0,1,.222,0v2.419A.11.11,0,0,1,49.355,64.319Z"/>
                <path d="M44.515,64.319a.11.11,0,0,1-.111-.111V61.789a.111.111,0,0,1,.222,0v2.419A.11.11,0,0,1,44.515,64.319Z"/>
                <path d="M46.936,64.319A1.321,1.321,0,1,1,48.255,63,1.323,1.323,0,0,1,46.936,64.319Zm0-2.42a1.1,1.1,0,1,0,1.1,1.1A1.1,1.1,0,0,0,46.936,61.9Z"/>
                <path d="M42.1,64.319A1.321,1.321,0,1,1,43.416,63,1.322,1.322,0,0,1,42.1,64.319Zm0-2.42A1.1,1.1,0,1,0,43.2,63,1.1,1.1,0,0,0,42.1,61.9Z"/>
                <path d="M49.355,60.689a.11.11,0,0,1-.111-.111V58.159a.111.111,0,0,1,.222,0v2.419A.11.11,0,0,1,49.355,60.689Z"/>
                <path d="M47.742,60.689a.11.11,0,0,1-.111-.111V58.159a.111.111,0,0,1,.222,0v2.419A.11.11,0,0,1,47.742,60.689Z"/>
                <path d="M42.9,60.689a.11.11,0,0,1-.111-.111V58.159a.111.111,0,1,1,.222,0v2.419A.11.11,0,0,1,42.9,60.689Z"/>
                <path d="M41.289,60.689a.11.11,0,0,1-.111-.111V58.159a.111.111,0,0,1,.222,0v2.419A.11.11,0,0,1,41.289,60.689Z"/>
                <path d="M45.321,60.689a1.321,1.321,0,1,1,1.321-1.32A1.32,1.32,0,0,1,45.321,60.689Zm0-2.419a1.1,1.1,0,1,0,1.1,1.1A1.1,1.1,0,0,0,45.321,58.27Z"/>
              </g>
            </g>
            <polygon class="b8d5e11b-f8a0-4504-a214-321c542242f6" points="42.979 65.804 38.228 65.804 38.228 53.195 38.441 53.195 38.441 65.591 42.979 65.591 42.979 65.804"/>
            <rect x="42.977" y="61.498" width="5.438" height="4.2"/>
            <rect class="ad2f6e58-db60-429e-ad6f-73afbc072673" x="42.978" y="65.593" width="2.418" height="0.193"/>
          </g>
          <rect x="65.598" y="80.73" width="3.991" height="3.615"/>
          <rect class="ad2f6e58-db60-429e-ad6f-73afbc072673" x="65.513" y="80.73" width="0.193" height="3.616"/>
          <rect class="a3f49d25-fcf8-4f28-b753-95a840a43362" x="45.426" y="58.988" width="25.397" height="23.251"/>
          <rect class="abb23cc1-9523-4955-a44a-3bf51c9eff7b" x="45.426" y="58.988" width="25.397" height="4.934"/>
          <circle class="a3f49d25-fcf8-4f28-b753-95a840a43362" cx="64.808" cy="61.424" r="0.809"/>
          <circle class="a3f49d25-fcf8-4f28-b753-95a840a43362" cx="67.944" cy="61.424" r="0.809"/>
          <rect class="eb0422e3-5131-4e64-820f-d33b46644944" x="59.311" y="71.359" width="10.302" height="9.303"/>
          <rect class="eb0422e3-5131-4e64-820f-d33b46644944" x="47.13" y="65.489" width="10.994" height="15.072"/>
          <rect class="eb0422e3-5131-4e64-820f-d33b46644944" x="59.311" y="65.489" width="10.302" height="4.579"/>
          <polygon class="abb23cc1-9523-4955-a44a-3bf51c9eff7b" points="70.824 82.335 45.329 82.335 45.329 58.891 70.824 58.891 70.824 59.084 45.522 59.084 45.522 82.142 70.824 82.142 70.824 82.335"/>
        </g>
        <g>
          <path class="a3f49d25-fcf8-4f28-b753-95a840a43362" d="M59.494,82.034a3.5,3.5,0,0,0-1.238.224,5.032,5.032,0,0,0-4.185-2.643,7.585,7.585,0,0,0-13.917-1,5.74,5.74,0,1,0-1.662,11.234h20.7c2.676,0,3.825-2.353,3.825-4.3A3.518,3.518,0,0,0,59.494,82.034Z"/>
          <path class="ad2f6e58-db60-429e-ad6f-73afbc072673" d="M59.187,89.941H38.493a5.832,5.832,0,1,1,1.614-11.436,7.679,7.679,0,0,1,14.032,1.021A5.157,5.157,0,0,1,58.3,82.145a3.611,3.611,0,0,1,4.807,3.407C63.105,87.732,61.758,89.941,59.187,89.941ZM38.493,78.462a5.647,5.647,0,1,0,0,11.293H59.187c2.738,0,3.733-2.513,3.733-4.2a3.431,3.431,0,0,0-4.632-3.208l-.075.028-.038-.07a4.968,4.968,0,0,0-4.108-2.6l-.062,0-.021-.059a7.494,7.494,0,0,0-13.748-.988l-.036.069-.074-.022A5.6,5.6,0,0,0,38.493,78.462Z"/>
        </g>
        <circle class="a3f49d25-fcf8-4f28-b753-95a840a43362" cx="59.077" cy="57.248" r="0.415"/>
        <circle class="abb23cc1-9523-4955-a44a-3bf51c9eff7b" cx="55.994" cy="92.345" r="0.415"/>
        <polygon class="b8d5e11b-f8a0-4504-a214-321c542242f6" points="79.971 94.873 65.504 94.873 65.504 84.345 65.717 84.345 65.717 94.66 79.971 94.66 79.971 94.873"/>
      </g>
      <path class="a3f49d25-fcf8-4f28-b753-95a840a43362" d="M59.046,57.392a.149.149,0,0,1-.129-.072,13.506,13.506,0,0,0-2.834-3.3.151.151,0,0,1,.193-.232,13.789,13.789,0,0,1,2.9,3.376.15.15,0,0,1-.05.207A.146.146,0,0,1,59.046,57.392Z"/>
      <g>
        <path d="M68.708,89.436a.11.11,0,0,1-.111-.11v-2.42a.111.111,0,0,1,.221,0v2.42A.109.109,0,0,1,68.708,89.436Z"/>
        <path d="M73.547,89.436a.11.11,0,0,1-.111-.11v-2.42a.111.111,0,0,1,.221,0v2.42A.11.11,0,0,1,73.547,89.436Z"/>
        <path d="M71.127,89.436a1.32,1.32,0,1,1,1.32-1.321A1.323,1.323,0,0,1,71.127,89.436Zm0-2.419a1.1,1.1,0,1,0,1.1,1.1A1.1,1.1,0,0,0,71.127,87.017Z"/>
        <path d="M75.966,89.436a1.32,1.32,0,1,1,1.321-1.321A1.323,1.323,0,0,1,75.966,89.436Zm0-2.419a1.1,1.1,0,1,0,1.1,1.1A1.1,1.1,0,0,0,75.966,87.017Z"/>
        <path d="M68.708,93.066a.11.11,0,0,1-.111-.11V90.535a.111.111,0,1,1,.221,0v2.421A.109.109,0,0,1,68.708,93.066Z"/>
        <path d="M70.321,93.066a.11.11,0,0,1-.111-.11V90.535a.111.111,0,1,1,.221,0v2.421A.11.11,0,0,1,70.321,93.066Z"/>
        <path d="M75.16,93.066a.11.11,0,0,1-.111-.11V90.535a.111.111,0,1,1,.221,0v2.421A.11.11,0,0,1,75.16,93.066Z"/>
        <path d="M76.772,93.066a.11.11,0,0,1-.11-.11V90.535a.111.111,0,1,1,.221,0v2.421A.11.11,0,0,1,76.772,93.066Z"/>
        <path d="M72.74,93.066a1.321,1.321,0,1,1,1.32-1.321A1.323,1.323,0,0,1,72.74,93.066Zm0-2.421a1.1,1.1,0,1,0,1.1,1.1A1.1,1.1,0,0,0,72.74,90.645Z"/>
      </g>
    </g>
    <g>
      <path class="eb0422e3-5131-4e64-820f-d33b46644944" d="M111.439,70.213a14.815,14.815,0,0,0,2.144,7.314c2.841,4.507,7.819,7.195,11.739,10.63,3.477,3.047,7.067,5.7,11.806,6.6,4.138.785,11.453.079,14.779-3.66,3.182-3.576,2.98-8.166,2.57-12.593-.422-4.567,2.386-8.985,3.217-13.277.8-4.114.206-9.715-4.813-11.927a16.692,16.692,0,0,0-14.815,1.07c-3.885,2.276-5.546,3.567-11.867,3.77-4.177.135-9.19.571-11.937,4.169A11.7,11.7,0,0,0,111.439,70.213Z"/>
      <g>
        <path class="b8d5e11b-f8a0-4504-a214-321c542242f6" d="M133.6,69.718a3.133,3.133,0,0,0-3.086-3.133,5.615,5.615,0,0,0-5.339-5.4,8.22,8.22,0,0,0-15.335,1.1c-.115-.008-.23-.013-.346-.013a5.293,5.293,0,0,0-.025,10.586h21.05v0A3.133,3.133,0,0,0,133.6,69.718Z"/>
        <path class="a3f49d25-fcf8-4f28-b753-95a840a43362" d="M111.781,61.57a.048.048,0,0,1-.023-.005.06.06,0,0,1-.036-.081c.016-.045,1.775-4.418,6.487-3.761a.063.063,0,0,1-.009.126h-.009a6.032,6.032,0,0,0-6.352,3.681A.06.06,0,0,1,111.781,61.57Z"/>
        <path class="a3f49d25-fcf8-4f28-b753-95a840a43362" d="M105.653,66.506h-.014a.064.064,0,0,1-.048-.076,4.1,4.1,0,0,1,3.743-3.1h0a.063.063,0,0,1,.063.062.064.064,0,0,1-.061.066,3.969,3.969,0,0,0-3.623,3A.065.065,0,0,1,105.653,66.506Z"/>
      </g>
      <path d="M109.836,69.178a5.882,5.882,0,0,0-3.535,2.595,4.776,4.776,0,0,0,.7.454S106.842,70.071,109.836,69.178Z"/>
      <g>
        <path d="M131.171,66.57l-1.022,9.019h8.641C137.782,71.49,135.332,67.526,131.171,66.57Z"/>
        <path class="b8d5e11b-f8a0-4504-a214-321c542242f6" d="M152.881,60.445H131.865l-.694,6.125c4.161.956,6.611,4.92,7.619,9.019h12.375Z"/>
        <g>
          <g>
            <polygon class="a3f49d25-fcf8-4f28-b753-95a840a43362" points="132.613 59.773 153.629 59.773 151.913 74.917 130.897 74.917 132.613 59.773"/>
            <path class="a5cc7d0f-3d1a-45ad-8234-9b571e9774c0" d="M151.97,74.98H130.827l.007-.071,1.723-15.2H153.7l-.008.071Zm-21-.127h20.888l1.7-15.017h-20.89Z"/>
          </g>
          <polygon points="132.613 59.773 153.629 59.773 153.3 62.684 132.283 62.684 132.613 59.773"/>
          <path class="a3f49d25-fcf8-4f28-b753-95a840a43362" d="M141.477,61.305h-7.569a.084.084,0,0,1,0-.168h7.569a.084.084,0,0,1,0,.168Z"/>
          <g>
            <ellipse class="a3f49d25-fcf8-4f28-b753-95a840a43362" cx="149.924" cy="61.221" rx="0.45" ry="0.402" transform="translate(-1.091 119.698) rotate(-43.38)"/>
            <ellipse class="a3f49d25-fcf8-4f28-b753-95a840a43362" cx="151.607" cy="61.221" rx="0.45" ry="0.402" transform="translate(-0.632 120.854) rotate(-43.38)"/>
          </g>
          <g>
            <polygon class="ad2f6e58-db60-429e-ad6f-73afbc072673" points="133.542 64.453 143.322 64.453 142.3 73.472 132.52 73.472 133.542 64.453"/>
            <polygon class="ad2f6e58-db60-429e-ad6f-73afbc072673" points="145.069 64.453 151.229 64.453 150.817 68.095 144.657 68.095 145.069 64.453"/>
            <polygon class="ad2f6e58-db60-429e-ad6f-73afbc072673" points="144.459 69.842 150.619 69.842 150.207 73.472 144.047 73.472 144.459 69.842"/>
            <polygon class="ad2f6e58-db60-429e-ad6f-73afbc072673" points="133.542 64.453 143.322 64.453 142.3 73.472 132.52 73.472 133.542 64.453"/>
            <polygon class="ad2f6e58-db60-429e-ad6f-73afbc072673" points="145.069 64.453 151.229 64.453 150.817 68.095 144.657 68.095 145.069 64.453"/>
            <polygon class="ad2f6e58-db60-429e-ad6f-73afbc072673" points="144.459 69.842 150.619 69.842 150.207 73.472 144.047 73.472 144.459 69.842"/>
            <g>
              <polygon class="a3f49d25-fcf8-4f28-b753-95a840a43362" points="133.916 64.117 143.696 64.117 142.674 73.136 132.894 73.136 133.916 64.117"/>
              <path class="a5cc7d0f-3d1a-45ad-8234-9b571e9774c0" d="M142.73,73.2h-9.907l.007-.071,1.03-9.075h9.908l-.008.071Zm-9.765-.127h9.652l1.008-8.892h-9.652Z"/>
            </g>
            <g>
              <polygon class="a3f49d25-fcf8-4f28-b753-95a840a43362" points="145.444 64.117 151.603 64.117 151.075 68.849 144.916 68.849 145.444 64.117"/>
              <path class="a5cc7d0f-3d1a-45ad-8234-9b571e9774c0" d="M151.132,68.913h-6.288l.008-.071.535-4.789h6.288l-.007.071Zm-6.146-.128h6.032l.515-4.6H145.5Z"/>
            </g>
            <g>
              <polygon class="a3f49d25-fcf8-4f28-b753-95a840a43362" points="144.833 69.506 150.993 69.506 150.581 73.136 144.422 73.136 144.833 69.506"/>
              <path class="a5cc7d0f-3d1a-45ad-8234-9b571e9774c0" d="M150.637,73.2H144.35l.008-.071.419-3.685h6.287l-.008.071Zm-6.145-.127h6.033l.4-3.5h-6.033Z"/>
            </g>
          </g>
        </g>
      </g>
      <g>
        <g>
          <path class="a3f49d25-fcf8-4f28-b753-95a840a43362" d="M132.626,74.868a12.316,12.316,0,0,0,7.075-3.881c3.3-3.51,6.541-1.4,8.774-1.55S152.3,65,157.888,64.616c3.839-.263,7.577,2.042,7.638,5.98a6.248,6.248,0,0,1-6.273,6.294H143.317l-11.431.033Z"/>
          <path class="b8d5e11b-f8a0-4504-a214-321c542242f6" d="M131.706,77.051l.828-2.3.08-.008a12.322,12.322,0,0,0,7-3.842c2.457-2.615,4.911-2.166,6.882-1.8a7.834,7.834,0,0,0,1.976.213,4.846,4.846,0,0,0,2.5-1.539,10.814,10.814,0,0,1,6.911-3.282c.2-.012.4-.02.594-.02a7.9,7.9,0,0,1,5.3,1.93,5.69,5.69,0,0,1,1.88,4.2,6.247,6.247,0,0,1-1.814,4.5,6.4,6.4,0,0,1-4.587,1.919H143.317Zm1.014-2.067-.652,1.813,11.249-.034h15.935a6.139,6.139,0,0,0,4.406-1.844A5.987,5.987,0,0,0,165.4,70.6a5.438,5.438,0,0,0-1.8-4.013,7.7,7.7,0,0,0-5.7-1.842,10.583,10.583,0,0,0-6.76,3.218,4.994,4.994,0,0,1-2.653,1.6,8.987,8.987,0,0,1-2.039-.218c-2.013-.37-4.29-.784-6.652,1.729A12.7,12.7,0,0,1,132.72,74.984Z"/>
        </g>
        <g>
          <path class="a3f49d25-fcf8-4f28-b753-95a840a43362" d="M140.764,71.412a4.43,4.43,0,0,1,4.29-1.33c2.872.515,2.9.621,4.022.479"/>
          <path class="a5cc7d0f-3d1a-45ad-8234-9b571e9774c0" d="M140.765,71.476a.07.07,0,0,1-.039-.013.064.064,0,0,1-.011-.089,4.524,4.524,0,0,1,4.35-1.355c.634.114,1.13.207,1.529.283a6.01,6.01,0,0,0,2.475.2.071.071,0,0,1,.071.056.065.065,0,0,1-.056.071,6.214,6.214,0,0,1-2.513-.2c-.4-.076-.9-.17-1.529-.283a4.43,4.43,0,0,0-4.227,1.307A.064.064,0,0,1,140.765,71.476Z"/>
        </g>
        <g>
          <path class="a3f49d25-fcf8-4f28-b753-95a840a43362" d="M157.526,65.935a6.585,6.585,0,0,1,5.992,2.264"/>
          <path class="a5cc7d0f-3d1a-45ad-8234-9b571e9774c0" d="M163.517,68.263a.064.064,0,0,1-.05-.025A6.573,6.573,0,0,0,157.537,66a.061.061,0,0,1-.074-.051.062.062,0,0,1,.051-.073,6.691,6.691,0,0,1,6.053,2.288.064.064,0,0,1-.05.1Z"/>
        </g>
      </g>
      <g>
        <polygon points="149.11 68.971 121.679 68.971 121.208 72.794 148.628 72.794 149.11 68.971"/>
        <polygon class="b8d5e11b-f8a0-4504-a214-321c542242f6" points="121.208 72.794 119.35 87.849 146.727 87.849 148.628 72.794 121.208 72.794"/>
        <g>
          <g>
            <polygon class="a3f49d25-fcf8-4f28-b753-95a840a43362" points="122.666 68.094 150.097 68.094 147.634 87.86 120.203 87.86 122.666 68.094"/>
            <path class="a5cc7d0f-3d1a-45ad-8234-9b571e9774c0" d="M147.691,87.924h-27.56l.009-.071,2.47-19.822h27.559l-.008.071ZM120.276,87.8h27.3l2.446-19.639h-27.3Z"/>
          </g>
          <polygon class="a5cc7d0f-3d1a-45ad-8234-9b571e9774c0" points="122.666 68.094 150.097 68.094 149.624 71.893 122.193 71.893 122.666 68.094"/>
          <path class="a3f49d25-fcf8-4f28-b753-95a840a43362" d="M134.215,70.094h-9.88a.11.11,0,1,1,0-.219h9.88a.11.11,0,0,1,0,.219Z"/>
          <g>
            <ellipse class="a3f49d25-fcf8-4f28-b753-95a840a43362" cx="145.239" cy="69.984" rx="0.591" ry="0.522" transform="translate(-8.527 118.442) rotate(-43.219)"/>
            <ellipse class="a3f49d25-fcf8-4f28-b753-95a840a43362" cx="147.436" cy="69.984" rx="0.591" ry="0.522" transform="translate(-7.931 119.946) rotate(-43.219)"/>
          </g>
          <g>
            <polygon class="ad2f6e58-db60-429e-ad6f-73afbc072673" points="123.809 74.202 136.574 74.202 135.108 85.974 122.343 85.974 123.809 74.202"/>
            <polygon class="ad2f6e58-db60-429e-ad6f-73afbc072673" points="138.855 74.202 146.895 74.202 146.303 78.956 138.263 78.956 138.855 74.202"/>
            <polygon class="ad2f6e58-db60-429e-ad6f-73afbc072673" points="137.979 81.237 146.019 81.237 145.429 85.974 137.389 85.974 137.979 81.237"/>
            <polygon points="123.809 74.202 136.574 74.202 135.108 85.974 122.343 85.974 123.809 74.202"/>
            <polygon points="138.855 74.202 146.895 74.202 146.303 78.956 138.263 78.956 138.855 74.202"/>
            <polygon points="137.979 81.237 146.019 81.237 145.429 85.974 137.389 85.974 137.979 81.237"/>
            <g>
              <polygon class="a3f49d25-fcf8-4f28-b753-95a840a43362" points="124.302 73.764 137.068 73.764 135.601 85.536 122.836 85.536 124.302 73.764"/>
              <path class="a5cc7d0f-3d1a-45ad-8234-9b571e9774c0" d="M135.657,85.6H122.763l.009-.072L124.246,73.7H137.14l-.009.072Zm-12.749-.128h12.636L137,73.828H124.359Z"/>
            </g>
            <g>
              <polygon class="a3f49d25-fcf8-4f28-b753-95a840a43362" points="139.349 73.764 147.389 73.764 146.796 78.517 138.756 78.517 139.349 73.764"/>
              <path class="a5cc7d0f-3d1a-45ad-8234-9b571e9774c0" d="M146.853,78.58h-8.169l.009-.071.6-4.809h8.168l-.008.072Zm-8.024-.127h7.911l.577-4.625h-7.912Z"/>
            </g>
            <g>
              <polygon class="a3f49d25-fcf8-4f28-b753-95a840a43362" points="138.472 80.798 146.512 80.798 145.922 85.536 137.882 85.536 138.472 80.798"/>
              <path class="a5cc7d0f-3d1a-45ad-8234-9b571e9774c0" d="M145.978,85.6H137.81l.009-.072.6-4.792h8.168l-.008.071Zm-8.024-.128h7.912l.574-4.609h-7.912Z"/>
            </g>
          </g>
        </g>
      </g>
      <g>
        <g>
          <path class="a3f49d25-fcf8-4f28-b753-95a840a43362" d="M114.366,70.253a4.458,4.458,0,0,0-5.115-.852c-4.859,2.142-.115,9.182-3.66,7.861-3.219-1.2-7.116,1.774-7.116,6.077,0,.052,0,.1,0,.156a4.567,4.567,0,0,0,4.583,4.418l42.42.015s-5.26.737-10.141-4.312-8.936-1.809-12.16-2.567c-3.333-.783-5.4-7.828-8.813-10.8"/>
          <path class="b8d5e11b-f8a0-4504-a214-321c542242f6" d="M144.734,88.093c-.24,0-.535-.01-.872-.039l-40.8-.014A4.716,4.716,0,0,1,98.349,83.5c0-.054,0-.107,0-.161a6.655,6.655,0,0,1,2.788-5.495,4.854,4.854,0,0,1,4.5-.7c.5.184.829.2,1.018.063.338-.256.269-1.086.189-2.046-.163-1.969-.388-4.666,2.357-5.876a4.584,4.584,0,0,1,5.25.872h0a22.437,22.437,0,0,1,3.886,5.3c1.556,2.591,3.024,5.038,4.871,5.472a9.072,9.072,0,0,0,3.254-.094c2.622-.375,5.586-.806,8.969,2.7a13.9,13.9,0,0,0,6.826,4.01,11.494,11.494,0,0,0,1.638.262h1.585l.018.254A6.191,6.191,0,0,1,144.734,88.093ZM104.093,77.121a4.941,4.941,0,0,0-2.812.931A6.394,6.394,0,0,0,98.6,83.338c0,.051,0,.1,0,.155a4.458,4.458,0,0,0,4.456,4.292l39.2.014-.045-.01a14.161,14.161,0,0,1-6.963-4.084c-3.295-3.408-6.193-2.993-8.75-2.621a9.167,9.167,0,0,1-3.348.089c-1.954-.458-3.448-2.951-5.031-5.588a22.272,22.272,0,0,0-3.836-5.236h0a4.355,4.355,0,0,0-4.981-.833c-2.579,1.138-2.363,3.73-2.206,5.623.089,1.078.16,1.93-.289,2.269-.266.2-.667.2-1.261-.028A4.172,4.172,0,0,0,104.093,77.121Z"/>
        </g>
        <g>
          <path class="a3f49d25-fcf8-4f28-b753-95a840a43362" d="M121.622,81.482a7.428,7.428,0,0,0,4.6.619c2.383-.547,2.818-.641,4.346-.236"/>
          <path class="a5cc7d0f-3d1a-45ad-8234-9b571e9774c0" d="M124.907,82.32a7.955,7.955,0,0,1-3.32-.772.073.073,0,0,1-.031-.1.072.072,0,0,1,.1-.031,7.411,7.411,0,0,0,4.549.611c2.342-.538,2.828-.649,4.384-.234a.073.073,0,0,1,.053.091.068.068,0,0,1-.091.053c-1.525-.4-1.952-.3-4.311.237A5.916,5.916,0,0,1,124.907,82.32Z"/>
        </g>
        <g>
          <path class="a3f49d25-fcf8-4f28-b753-95a840a43362" d="M115.152,72.749s-2.146-3.063-4.291-2.715a3.162,3.162,0,0,0-2.525,2.483"/>
          <path class="a5cc7d0f-3d1a-45ad-8234-9b571e9774c0" d="M115.152,72.823a.075.075,0,0,1-.061-.031c-.021-.028-1.924-2.71-3.888-2.71a1.936,1.936,0,0,0-.331.026,3.1,3.1,0,0,0-2.461,2.422.075.075,0,0,1-.075.061h-.013a.077.077,0,0,1-.061-.088,3.263,3.263,0,0,1,2.586-2.545,2.332,2.332,0,0,1,.361-.029c2.036,0,3.921,2.656,4,2.776a.074.074,0,0,1-.018.105A.073.073,0,0,1,115.152,72.823Z"/>
        </g>
        <g>
          <path class="a3f49d25-fcf8-4f28-b753-95a840a43362" d="M104.215,78.164a4.2,4.2,0,0,0-3.92,2.943"/>
          <path class="a5cc7d0f-3d1a-45ad-8234-9b571e9774c0" d="M100.3,81.183a.049.049,0,0,1-.021,0,.076.076,0,0,1-.051-.093,4.3,4.3,0,0,1,3.992-3h0a.075.075,0,0,1,0,.15h0a4.151,4.151,0,0,0-3.847,2.89A.075.075,0,0,1,100.3,81.183Z"/>
        </g>
      </g>
      <path d="M130.87,62.916h-6.8a.095.095,0,1,1,0-.189h6.8a.095.095,0,1,1,0,.189Z"/>
      <path d="M127.027,64.219h-6.8a.095.095,0,0,1,0-.19h6.8a.095.095,0,1,1,0,.19Z"/>
      <path d="M130.457,65.553h-6.8a.095.095,0,1,1,0-.189h6.8a.095.095,0,1,1,0,.189Z"/>
      <path d="M117.944,73.683h-6.8a.1.1,0,1,1,0-.19h6.8a.1.1,0,0,1,0,.19Z"/>
      <path d="M119.976,74.954h-6.923a.1.1,0,0,1,0-.19h6.923a.095.095,0,0,1,0,.19Z"/>
      <path d="M111.973,74.954h-1.905a.095.095,0,0,1,0-.19h1.905a.095.095,0,0,1,0,.19Z"/>
      <path d="M117.881,76.415h-5.717a.1.1,0,1,1,0-.19h5.717a.1.1,0,0,1,0,.19Z"/>
      <path class="b8d5e11b-f8a0-4504-a214-321c542242f6" d="M138.938,87.936a3.991,3.991,0,0,0,3.889,3.1c.087,0,.173,0,.259-.01h8.25c.619-1.021,1.208-2.043,1.765-3.088Z"/>
      <path class="b8d5e11b-f8a0-4504-a214-321c542242f6" d="M153.1,87.936c-.557,1.045-1.146,2.067-1.765,3.088h3.481v-.009a3.762,3.762,0,0,0,3.448-3.079Z"/>
      <path class="a5cc7d0f-3d1a-45ad-8234-9b571e9774c0" d="M158.326,87.263a3.76,3.76,0,0,0-4.759-3.626,5.842,5.842,0,0,0-11.077-.57,3.987,3.987,0,0,0-3.552,4.869h19.327A3.735,3.735,0,0,0,158.326,87.263Z"/>
      <g>
        <path class="a3f49d25-fcf8-4f28-b753-95a840a43362" d="M159.063,87a3.761,3.761,0,0,0-4.76-3.627,5.841,5.841,0,0,0-11.076-.569,3.99,3.99,0,0,0,.337,7.966q.131,0,.258-.009h11.732v-.009A3.762,3.762,0,0,0,159.063,87Z"/>
        <path class="a5cc7d0f-3d1a-45ad-8234-9b571e9774c0" d="M143.564,90.834a4.054,4.054,0,0,1-.381-8.09,5.9,5.9,0,0,1,11.164.552,3.824,3.824,0,1,1,1.27,7.514v0l-.064.01H143.822C143.739,90.83,143.653,90.834,143.564,90.834Zm5.107-11.69a5.745,5.745,0,0,0-5.385,3.683l-.014.037-.04,0a3.927,3.927,0,0,0,.332,7.839c.086,0,.17,0,.255-.009h11.688l.043-.01A3.7,3.7,0,0,0,155.3,83.3a3.747,3.747,0,0,0-.981.132l-.061.018-.017-.063A5.791,5.791,0,0,0,148.671,79.144Z"/>
      </g>
      <path class="ad2f6e58-db60-429e-ad6f-73afbc072673" d="M148.655,79.083s-4.763.444-3.112,4.827a2.7,2.7,0,0,0-2.223-1.08S144.082,79.464,148.655,79.083Z"/>
      <path class="ad2f6e58-db60-429e-ad6f-73afbc072673" d="M140.652,84.037c-1.08,1.017-.889,5.654,2.858,5.654h12.764a2.964,2.964,0,0,0,2.538-1.4c.02-.032.039-.064.057-.1a3.808,3.808,0,0,1-3.544,2.577c-2.731,0-12.134-.017-12.134-.017s-1.239.172-2.778-1.525A4.049,4.049,0,0,1,140.652,84.037Z"/>
      <path class="ad2f6e58-db60-429e-ad6f-73afbc072673" d="M154.309,83.4a3.637,3.637,0,0,0-2.1,2.477,4.332,4.332,0,0,1,5.018-2.1A4.476,4.476,0,0,0,154.309,83.4Z"/>
      <path class="a5cc7d0f-3d1a-45ad-8234-9b571e9774c0" d="M143.564,90.834a4.054,4.054,0,0,1-.381-8.09,5.9,5.9,0,0,1,11.164.552,3.824,3.824,0,1,1,1.27,7.514v0l-.064.01H143.822C143.739,90.83,143.653,90.834,143.564,90.834Zm5.107-11.69a5.745,5.745,0,0,0-5.385,3.683l-.014.037-.04,0a3.927,3.927,0,0,0,.332,7.839c.086,0,.17,0,.255-.009h11.688l.043-.01A3.7,3.7,0,0,0,155.3,83.3a3.747,3.747,0,0,0-.981.132l-.061.018-.017-.063A5.791,5.791,0,0,0,148.671,79.144Z"/>
    </g>
    <g>
      <path class="eb0422e3-5131-4e64-820f-d33b46644944" d="M180.959,62.36c-4.2,7.919,1.2,14.639,7.739,19.738,6.363,4.962,7.873,11.906,17.158,12.419,10.859.6,12.33-8.276,19.318-14.219,6.419-5.459,10.738-12.6,7.139-19.677-5.594-11-19.018-3.48-28.557-3.18S185.693,53.433,180.959,62.36Z"/>
      <g>
        <path class="a3f49d25-fcf8-4f28-b753-95a840a43362" d="M217.207,54.392a2.8,2.8,0,0,0-.819.123,3.708,3.708,0,0,0-6.737.409,2.52,2.52,0,0,0-2.239,1.542,1.775,1.775,0,1,0-.441,3.495h10.236a2.785,2.785,0,0,0,0-5.569Z"/>
        <path class="ad2f6e58-db60-429e-ad6f-73afbc072673" d="M213.112,52.691a3.557,3.557,0,0,1,3.147,1.892l.057.106.114-.035a2.639,2.639,0,1,1,.777,5.161H206.971a1.63,1.63,0,1,1,.405-3.208l.122.031.049-.115a2.378,2.378,0,0,1,2.109-1.454l.1,0,.035-.09a3.583,3.583,0,0,1,3.325-2.285m0-.146a3.709,3.709,0,0,0-3.461,2.379,2.518,2.518,0,0,0-2.238,1.542,1.8,1.8,0,0,0-.442-.055,1.775,1.775,0,0,0,0,3.55h10.236a2.784,2.784,0,1,0-.819-5.446,3.709,3.709,0,0,0-3.276-1.97Z"/>
      </g>
      <g>
        <path class="a3f49d25-fcf8-4f28-b753-95a840a43362" d="M213.112,53.145a3.105,3.105,0,0,1,2.746,1.652"/>
        <path class="ad2f6e58-db60-429e-ad6f-73afbc072673" d="M215.858,54.869a.073.073,0,0,1-.064-.038,3.034,3.034,0,0,0-2.681-1.613.073.073,0,1,1,0-.145,3.181,3.181,0,0,1,2.81,1.689.074.074,0,0,1-.03.1A.072.072,0,0,1,215.858,54.869Z"/>
      </g>
      <g>
        <path class="a3f49d25-fcf8-4f28-b753-95a840a43362" d="M217.207,54.992a2.187,2.187,0,0,1,2.184,2.185"/>
        <path class="ad2f6e58-db60-429e-ad6f-73afbc072673" d="M219.391,57.249a.072.072,0,0,1-.072-.073,2.113,2.113,0,0,0-2.112-2.11.073.073,0,1,1,0-.146,2.259,2.259,0,0,1,2.257,2.256A.072.072,0,0,1,219.391,57.249Z"/>
      </g>
      <g>
        <circle class="a3f49d25-fcf8-4f28-b753-95a840a43362" cx="204.596" cy="69.68" r="16.738"/>
        <path class="a3f49d25-fcf8-4f28-b753-95a840a43362" d="M204.6,52.942A16.738,16.738,0,1,1,187.858,69.68,16.738,16.738,0,0,1,204.6,52.942m0-.18A16.918,16.918,0,1,0,221.514,69.68,16.937,16.937,0,0,0,204.6,52.762Z"/>
      </g>
      <g class="b81fb3ee-d4f2-4f85-9d5a-465ff25bd4a5">
        <circle class="ad2f6e58-db60-429e-ad6f-73afbc072673" cx="204.596" cy="69.68" r="16.738"/>
        <g>
          <path class="a6e0decb-9741-4923-846e-dc333e684548" d="M217.207,54.392a2.8,2.8,0,0,0-.819.123,3.708,3.708,0,0,0-6.737.409,2.52,2.52,0,0,0-2.239,1.542,1.775,1.775,0,1,0-.441,3.495h10.236a2.785,2.785,0,0,0,0-5.569Z"/>
          <ellipse class="a6e0decb-9741-4923-846e-dc333e684548" cx="204.066" cy="81.024" rx="15.112" ry="1.686"/>
          <g class="a39899e8-73b6-4a07-881a-a608828e758b">
            <g>
              <g>
                <rect class="a3f49d25-fcf8-4f28-b753-95a840a43362" x="201.63" y="74.985" width="4.874" height="4.874"/>
                <path class="a6e0decb-9741-4923-846e-dc333e684548" d="M206.593,79.949H201.54V74.894h5.053Zm-4.873-.18h4.693v-4.7H201.72Z"/>
              </g>
              <polygon class="ad2f6e58-db60-429e-ad6f-73afbc072673" points="206.503 77.699 201.63 78.485 201.63 74.985 206.503 74.985 206.503 77.699"/>
              <g>
                <rect class="a5cc7d0f-3d1a-45ad-8234-9b571e9774c0" x="191.3" y="61.233" width="25.595" height="16.186"/>
                <rect class="a3f49d25-fcf8-4f28-b753-95a840a43362" x="196.618" y="57.141" width="14.96" height="24.369" transform="translate(273.423 -134.772) rotate(90)"/>
              </g>
              <path class="a3f49d25-fcf8-4f28-b753-95a840a43362" d="M201.386,64.972h-6.08a.09.09,0,1,1,0-.18h6.08a.09.09,0,0,1,0,.18Z"/>
            </g>
            <g>
              <polyline class="a3f49d25-fcf8-4f28-b753-95a840a43362" points="199.178 80.028 199.178 79.378 206.546 79.378 208.937 80.028"/>
              <path class="a6e0decb-9741-4923-846e-dc333e684548" d="M208.914,80.115l-2.38-.647h-7.267v.56h-.18v-.65a.091.091,0,0,1,.09-.09h7.369a.059.059,0,0,1,.023,0l2.391.65Z"/>
            </g>
            <g>
              <rect class="a3f49d25-fcf8-4f28-b753-95a840a43362" x="199.377" y="80.058" width="9.539" height="0.84"/>
              <path class="a6e0decb-9741-4923-846e-dc333e684548" d="M209.006,80.988h-9.719v-1.02h9.719Zm-9.539-.18h9.359v-.66h-9.359Z"/>
            </g>
          </g>
        </g>
      </g>
      <g>
        <circle class="a3f49d25-fcf8-4f28-b753-95a840a43362" cx="231.623" cy="80.328" r="5.489"/>
        <path class="ad2f6e58-db60-429e-ad6f-73afbc072673" d="M231.623,85.907a5.579,5.579,0,1,1,5.58-5.578A5.585,5.585,0,0,1,231.623,85.907Zm0-10.978a5.4,5.4,0,1,0,5.4,5.4A5.405,5.405,0,0,0,231.623,74.929Z"/>
      </g>
      <g class="b81fb3ee-d4f2-4f85-9d5a-465ff25bd4a5">
        <g class="fbd539c1-59c3-4059-8c33-bd33ac34d657">
          <circle class="a3f49d25-fcf8-4f28-b753-95a840a43362" cx="204.596" cy="69.68" r="16.738"/>
          <ellipse class="ad2f6e58-db60-429e-ad6f-73afbc072673" cx="204.066" cy="81.024" rx="15.112" ry="1.686"/>
          <g>
            <path class="a3f49d25-fcf8-4f28-b753-95a840a43362" d="M206.5,80.058V74.985H201.63v3.133a1.446,1.446,0,0,1-.858,1.32l-1.395.62"/>
            <path class="ad2f6e58-db60-429e-ad6f-73afbc072673" d="M199.414,80.14l-.074-.164,1.4-.62a1.355,1.355,0,0,0,.8-1.237V74.984a.09.09,0,0,1,.09-.09H206.5a.09.09,0,0,1,.09.09v5.074h-.18V75.074H201.72v3.045a1.536,1.536,0,0,1-.911,1.4Z"/>
          </g>
          <g>
            <rect class="a3f49d25-fcf8-4f28-b753-95a840a43362" x="199.377" y="80.058" width="9.539" height="0.84"/>
            <path class="a6e0decb-9741-4923-846e-dc333e684548" d="M208.916,80.988h-9.539a.09.09,0,0,1-.09-.09v-.84a.09.09,0,0,1,.09-.09h9.539a.09.09,0,0,1,.09.09v.84A.09.09,0,0,1,208.916,80.988Zm-9.449-.18h9.359v-.66h-9.359Z"/>
          </g>
          <path class="ad2f6e58-db60-429e-ad6f-73afbc072673" d="M199.467,80.838h-.18v-.78a.09.09,0,0,1,.09-.09h9.539v.18h-9.449Z"/>
          <g class="b93dde93-a7ff-4ab9-a7c6-903233e46ea7">
            <polygon class="a6e0decb-9741-4923-846e-dc333e684548" points="206.503 77.699 201.297 78.558 201.63 74.985 206.503 74.985 206.503 77.699"/>
          </g>
          <rect x="191.243" y="61.248" width="25.647" height="16.181" rx="0.761"/>
          <path class="a3f49d25-fcf8-4f28-b753-95a840a43362" d="M197.813,57.524h12.849a.507.507,0,0,1,.507.507V80.9a.254.254,0,0,1-.254.254H197.56a.254.254,0,0,1-.254-.254V58.031A.507.507,0,0,1,197.813,57.524Z" transform="translate(273.576 -134.899) rotate(90)"/>
        </g>
      </g>
      <g>
        <rect class="ad2f6e58-db60-429e-ad6f-73afbc072673" x="194.41" y="64.615" width="19.073" height="10.584"/>
        <g>
          <g>
            <rect x="194.901" y="64.124" width="19.073" height="10.584"/>
            <path class="a5cc7d0f-3d1a-45ad-8234-9b571e9774c0" d="M214.064,74.8H194.811V64.034h19.253Zm-19.073-.18h18.893v-10.4H194.991Z"/>
          </g>
          <rect class="a5cc7d0f-3d1a-45ad-8234-9b571e9774c0" x="194.901" y="64.124" width="19.073" height="2.126"/>
          <path class="a3f49d25-fcf8-4f28-b753-95a840a43362" d="M203.846,65.272h-7.879a.09.09,0,0,1,0-.18h7.879a.09.09,0,0,1,0,.18Z"/>
          <g>
            <circle class="a3f49d25-fcf8-4f28-b753-95a840a43362" cx="211.387" cy="65.182" r="0.311"/>
            <circle class="a3f49d25-fcf8-4f28-b753-95a840a43362" cx="212.616" cy="65.182" r="0.311"/>
          </g>
        </g>
      </g>
      <path class="a6e0decb-9741-4923-846e-dc333e684548" d="M199.7,68.471h-1.929a.09.09,0,1,1,0-.18H199.7a.09.09,0,0,1,0,.18Z"/>
      <path class="a3f49d25-fcf8-4f28-b753-95a840a43362" d="M201.267,69.572h-4.1a.091.091,0,0,1,0-.181h4.1a.091.091,0,0,1,0,.181Z"/>
      <path class="a6e0decb-9741-4923-846e-dc333e684548" d="M199.7,70.671h-1.929a.09.09,0,1,1,0-.18H199.7a.09.09,0,0,1,0,.18Z"/>
      <path class="a3f49d25-fcf8-4f28-b753-95a840a43362" d="M203.846,71.771h-5.48a.09.09,0,0,1,0-.18h5.48a.09.09,0,1,1,0,.18Z"/>
      <path class="a6e0decb-9741-4923-846e-dc333e684548" d="M201.386,72.871h-3.619a.09.09,0,1,1,0-.18h3.619a.09.09,0,1,1,0,.18Z"/>
      <path class="a3f49d25-fcf8-4f28-b753-95a840a43362" d="M203.246,73.97h-6.08a.09.09,0,0,1,0-.18h6.08a.09.09,0,0,1,0,.18Z"/>
      <path class="a5cc7d0f-3d1a-45ad-8234-9b571e9774c0" d="M195.967,74a.09.09,0,0,1-.09-.09V67.282a.09.09,0,0,1,.18,0v6.627A.09.09,0,0,1,195.967,74Z"/>
      <path class="a3f49d25-fcf8-4f28-b753-95a840a43362" d="M202.467,67.372h-5.3a.09.09,0,0,1,0-.18h5.3a.09.09,0,1,1,0,.18Z"/>
      <g class="f8a63185-57cf-4ec0-948b-ec576ff6ad05">
        <circle class="a5cc7d0f-3d1a-45ad-8234-9b571e9774c0" cx="207.993" cy="70.351" r="2.663"/>
        <path class="a3f49d25-fcf8-4f28-b753-95a840a43362" d="M205.226,68.005l2.767,2.346,3.467-.423a2.783,2.783,0,0,0-1.784-2.811C207.583,66.045,205.226,68.005,205.226,68.005Z"/>
        <path class="a6e0decb-9741-4923-846e-dc333e684548" d="M205.107,69.568l2.886.783,1.64-2.793a4.475,4.475,0,0,0-3.005-.282A3.278,3.278,0,0,0,205.107,69.568Z"/>
        <path class="ad2f6e58-db60-429e-ad6f-73afbc072673" d="M207.993,70.351l2.25-2.219a4.231,4.231,0,0,0-1.682-.8Z"/>
      </g>
      <g class="aa1ac2e9-a22b-4e92-80e0-1f10833e3eca">
        <g>
          <circle class="a3f49d25-fcf8-4f28-b753-95a840a43362" cx="187.468" cy="79.128" r="7.289"/>
          <path class="ad2f6e58-db60-429e-ad6f-73afbc072673" d="M187.468,72.019a7.109,7.109,0,1,1-7.109,7.109,7.117,7.117,0,0,1,7.109-7.109m0-.18a7.289,7.289,0,1,0,7.289,7.289,7.29,7.29,0,0,0-7.289-7.289Z"/>
        </g>
        <rect class="ad2f6e58-db60-429e-ad6f-73afbc072673" x="189.838" y="82.278" width="2.88" height="3.12" transform="translate(382.556 167.676) rotate(180)"/>
        <rect class="ad2f6e58-db60-429e-ad6f-73afbc072673" x="181.499" y="74.239" width="2.88" height="3.12" transform="translate(365.878 151.598) rotate(180)"/>
        <circle class="a6e0decb-9741-4923-846e-dc333e684548" cx="204.596" cy="69.68" r="16.738"/>
        <g>
          <g class="fab69446-65bc-4c0f-a782-ca9dba3941ef">
            <rect class="a6e0decb-9741-4923-846e-dc333e684548" x="187.498" y="80.658" width="2.88" height="3.12" transform="translate(377.876 164.436) rotate(180)"/>
          </g>
          <g class="a7482b2d-6d7c-4b88-a47a-1733b6cf79cb">
            <rect class="a6e0decb-9741-4923-846e-dc333e684548" x="183.359" y="76.279" width="2.88" height="3.12" transform="translate(369.597 155.677) rotate(180)"/>
          </g>
        </g>
        <g>
          <path d="M186,79.188a.09.09,0,0,1-.09-.09v-.659a.09.09,0,1,1,.18,0V79.1A.09.09,0,0,1,186,79.188Z"/>
          <path d="M184.2,79.188a.091.091,0,0,1-.09-.09v-.659a.09.09,0,1,1,.18,0V79.1A.09.09,0,0,1,184.2,79.188Z"/>
          <path d="M185.4,79.188a.09.09,0,0,1-.09-.09v-.659a.09.09,0,1,1,.18,0V79.1A.09.09,0,0,1,185.4,79.188Z"/>
          <path d="M184.8,79.188a.091.091,0,0,1-.091-.09v-.659a.091.091,0,0,1,.181,0V79.1A.091.091,0,0,1,184.8,79.188Z"/>
          <path d="M188.488,79.188a.091.091,0,0,1-.09-.09v-.659a.091.091,0,0,1,.181,0V79.1A.091.091,0,0,1,188.488,79.188Z"/>
          <path d="M190.288,79.188a.091.091,0,0,1-.09-.09v-.659a.091.091,0,0,1,.181,0V79.1A.091.091,0,0,1,190.288,79.188Z"/>
          <path d="M189.088,79.188a.09.09,0,0,1-.09-.09v-.659a.09.09,0,1,1,.18,0V79.1A.091.091,0,0,1,189.088,79.188Z"/>
          <path d="M189.688,79.188a.09.09,0,0,1-.09-.09v-.659a.09.09,0,1,1,.18,0V79.1A.09.09,0,0,1,189.688,79.188Z"/>
          <path d="M188.248,82.338h-.66a.091.091,0,0,1,0-.181h.66a.091.091,0,0,1,0,.181Z"/>
          <path d="M188.248,80.539h-.66a.09.09,0,0,1,0-.18h.66a.09.09,0,0,1,0,.18Z"/>
          <path d="M188.248,81.738h-.66a.09.09,0,0,1,0-.18h.66a.09.09,0,0,1,0,.18Z"/>
          <path d="M188.248,81.138h-.66a.09.09,0,0,1,0-.18h.66a.09.09,0,0,1,0,.18Z"/>
          <path d="M188.248,76.7h-.66a.09.09,0,0,1,0-.18h.66a.09.09,0,0,1,0,.18Z"/>
          <path d="M188.248,78.5h-.66a.09.09,0,1,1,0-.18h.66a.09.09,0,1,1,0,.18Z"/>
          <path d="M188.248,77.3h-.66a.09.09,0,0,1,0-.18h.66a.09.09,0,0,1,0,.18Z"/>
          <path d="M188.248,77.9h-.66a.09.09,0,1,1,0-.18h.66a.09.09,0,1,1,0,.18Z"/>
          <g>
            <rect class="a5cc7d0f-3d1a-45ad-8234-9b571e9774c0" x="183.719" y="75.679" width="2.88" height="3.12"/>
            <path class="a6e0decb-9741-4923-846e-dc333e684548" d="M185.818,78.108a.09.09,0,0,1-.09-.09V76.549H184.5a.091.091,0,0,1,0-.181h1.32a.09.09,0,0,1,.09.091v1.559A.09.09,0,0,1,185.818,78.108Z"/>
            <g>
              <path class="a5cc7d0f-3d1a-45ad-8234-9b571e9774c0" d="M186.929,76.4h-.661a.09.09,0,1,1,0-.18h.661a.09.09,0,1,1,0,.18Z"/>
              <path class="a5cc7d0f-3d1a-45ad-8234-9b571e9774c0" d="M186.929,78.2h-.661a.09.09,0,1,1,0-.18h.661a.09.09,0,1,1,0,.18Z"/>
              <path class="a5cc7d0f-3d1a-45ad-8234-9b571e9774c0" d="M186.929,77h-.661a.09.09,0,1,1,0-.18h.661a.09.09,0,1,1,0,.18Z"/>
              <path class="a5cc7d0f-3d1a-45ad-8234-9b571e9774c0" d="M186.929,77.6h-.661a.09.09,0,0,1,0-.18h.661a.09.09,0,0,1,0,.18Z"/>
            </g>
          </g>
          <g>
            <rect class="a5cc7d0f-3d1a-45ad-8234-9b571e9774c0" x="187.888" y="75.679" width="2.88" height="3.12" transform="translate(378.656 154.477) rotate(-180)"/>
            <path class="a6e0decb-9741-4923-846e-dc333e684548" d="M189.988,78.108a.09.09,0,0,1-.09-.09V76.549h-1.229a.091.091,0,0,1,0-.181h1.319a.09.09,0,0,1,.09.091v1.559A.09.09,0,0,1,189.988,78.108Z"/>
          </g>
          <g>
            <rect class="a5cc7d0f-3d1a-45ad-8234-9b571e9774c0" x="183.719" y="80.058" width="2.88" height="3.12"/>
            <path class="a6e0decb-9741-4923-846e-dc333e684548" d="M185.818,82.488a.09.09,0,0,1-.09-.09v-1.47H184.5a.09.09,0,0,1,0-.18h1.32a.09.09,0,0,1,.09.09V82.4A.09.09,0,0,1,185.818,82.488Z"/>
            <g>
              <path class="a5cc7d0f-3d1a-45ad-8234-9b571e9774c0" d="M186.929,82.638h-.661a.09.09,0,0,1,0-.18h.661a.09.09,0,0,1,0,.18Z"/>
              <path class="a5cc7d0f-3d1a-45ad-8234-9b571e9774c0" d="M186.929,80.838h-.661a.09.09,0,1,1,0-.18h.661a.09.09,0,1,1,0,.18Z"/>
              <path class="a5cc7d0f-3d1a-45ad-8234-9b571e9774c0" d="M186.929,82.038h-.661a.09.09,0,0,1,0-.18h.661a.09.09,0,0,1,0,.18Z"/>
              <path class="a5cc7d0f-3d1a-45ad-8234-9b571e9774c0" d="M186.929,81.438h-.661a.09.09,0,0,1,0-.18h.661a.09.09,0,0,1,0,.18Z"/>
            </g>
            <g>
              <path class="a5cc7d0f-3d1a-45ad-8234-9b571e9774c0" d="M186.3,80.509a.091.091,0,0,1-.09-.09v-.661a.09.09,0,1,1,.18,0v.661A.09.09,0,0,1,186.3,80.509Z"/>
              <path class="a5cc7d0f-3d1a-45ad-8234-9b571e9774c0" d="M184.5,80.509a.091.091,0,0,1-.09-.09v-.661a.09.09,0,1,1,.18,0v.661A.09.09,0,0,1,184.5,80.509Z"/>
              <path class="a5cc7d0f-3d1a-45ad-8234-9b571e9774c0" d="M185.7,80.509a.09.09,0,0,1-.09-.09v-.661a.09.09,0,0,1,.18,0v.661A.09.09,0,0,1,185.7,80.509Z"/>
              <path class="a5cc7d0f-3d1a-45ad-8234-9b571e9774c0" d="M185.1,80.509a.09.09,0,0,1-.09-.09v-.661a.09.09,0,1,1,.18,0v.661A.091.091,0,0,1,185.1,80.509Z"/>
            </g>
          </g>
          <g>
            <rect class="a5cc7d0f-3d1a-45ad-8234-9b571e9774c0" x="187.888" y="80.058" width="2.88" height="3.12" transform="translate(378.656 163.236) rotate(180)"/>
            <path class="a6e0decb-9741-4923-846e-dc333e684548" d="M189.988,82.488a.091.091,0,0,1-.09-.09v-1.47h-1.229a.09.09,0,0,1,0-.18h1.319a.09.09,0,0,1,.09.09V82.4A.09.09,0,0,1,189.988,82.488Z"/>
            <g>
              <path class="a5cc7d0f-3d1a-45ad-8234-9b571e9774c0" d="M188.188,80.509a.091.091,0,0,1-.09-.09v-.661a.09.09,0,1,1,.18,0v.661A.09.09,0,0,1,188.188,80.509Z"/>
              <path class="a5cc7d0f-3d1a-45ad-8234-9b571e9774c0" d="M189.988,80.509a.091.091,0,0,1-.09-.09v-.661a.09.09,0,1,1,.18,0v.661A.09.09,0,0,1,189.988,80.509Z"/>
              <path class="a5cc7d0f-3d1a-45ad-8234-9b571e9774c0" d="M188.789,80.509a.09.09,0,0,1-.09-.09v-.661a.09.09,0,1,1,.18,0v.661A.091.091,0,0,1,188.789,80.509Z"/>
              <path class="a5cc7d0f-3d1a-45ad-8234-9b571e9774c0" d="M189.388,80.509a.09.09,0,0,1-.09-.09v-.661a.09.09,0,1,1,.18,0v.661A.09.09,0,0,1,189.388,80.509Z"/>
            </g>
          </g>
        </g>
      </g>
      <g class="f4886fa8-9938-405e-9acb-1e0453fe5d49">
        <circle class="a3f49d25-fcf8-4f28-b753-95a840a43362" cx="220.314" cy="76.189" r="10.229"/>
        <circle class="ad2f6e58-db60-429e-ad6f-73afbc072673" cx="204.596" cy="69.68" r="16.738"/>
        <g>
          <g class="aac60bf6-001c-45e5-9f06-368660840236">
            <polygon class="a6e0decb-9741-4923-846e-dc333e684548" points="219.082 69.358 217.468 70.295 215.844 69.357 217.457 68.42 219.082 69.358"/>
            <polygon class="a6e0decb-9741-4923-846e-dc333e684548" points="219.082 69.358 219.077 71.294 217.463 72.231 217.468 70.295 219.082 69.358"/>
            <polygon class="a6e0decb-9741-4923-846e-dc333e684548" points="217.468 70.295 217.463 72.231 215.839 71.293 215.844 69.357 217.468 70.295"/>
          </g>
          <g>
            <g class="aac60bf6-001c-45e5-9f06-368660840236">
              <polygon class="a6e0decb-9741-4923-846e-dc333e684548" points="216.953 74.875 214.413 76.351 211.857 74.875 214.396 73.399 216.953 74.875"/>
              <polygon class="a6e0decb-9741-4923-846e-dc333e684548" points="216.953 74.875 216.945 77.923 214.405 79.398 214.413 76.351 216.953 74.875"/>
              <polygon class="a6e0decb-9741-4923-846e-dc333e684548" points="214.413 76.351 214.405 79.398 211.849 77.922 211.857 74.875 214.413 76.351"/>
            </g>
            <g>
              <polygon class="a6e0decb-9741-4923-846e-dc333e684548" points="214.396 73.399 211.857 74.875 211.849 77.922 214.405 79.398 216.945 77.923 216.953 74.875 214.396 73.399"/>
              <g class="bd3c3773-81bb-4e80-a5e8-f4a29991ee34">
                <g class="aac60bf6-001c-45e5-9f06-368660840236">
                  <polygon class="a6e0decb-9741-4923-846e-dc333e684548" points="220.732 76.375 218.193 77.851 215.636 76.374 218.175 74.899 220.732 76.375"/>
                  <polygon class="a6e0decb-9741-4923-846e-dc333e684548" points="220.732 76.375 220.724 79.423 218.185 80.898 218.193 77.851 220.732 76.375"/>
                  <polygon class="a6e0decb-9741-4923-846e-dc333e684548" points="218.193 77.851 218.185 80.898 215.628 79.422 215.636 76.374 218.193 77.851"/>
                </g>
              </g>
            </g>
          </g>
        </g>
        <g class="aac60bf6-001c-45e5-9f06-368660840236">
          <polygon class="a3f49d25-fcf8-4f28-b753-95a840a43362" points="219.682 68.278 218.068 69.215 216.444 68.277 218.057 67.34 219.682 68.278"/>
          <polygon class="a3f49d25-fcf8-4f28-b753-95a840a43362" points="219.682 68.278 219.676 70.214 218.063 71.151 218.068 69.215 219.682 68.278"/>
          <g>
            <polygon class="ad2f6e58-db60-429e-ad6f-73afbc072673" points="218.068 69.215 218.063 71.151 216.439 70.214 216.444 68.277 218.068 69.215"/>
            <path class="a3f49d25-fcf8-4f28-b753-95a840a43362" d="M216.623,68.589l1.265.73,0,1.521-1.265-.73,0-1.521m-.179-.312,0,1.937,1.624.938.005-1.937-1.624-.938Z"/>
          </g>
        </g>
        <g class="aac60bf6-001c-45e5-9f06-368660840236">
          <g>
            <polygon class="a3f49d25-fcf8-4f28-b753-95a840a43362" points="219.562 82.676 217.948 83.614 216.324 82.676 217.937 81.738 219.562 82.676"/>
            <path class="ad2f6e58-db60-429e-ad6f-73afbc072673" d="M217.937,81.946l1.265.73-1.254.73-1.265-.731,1.254-.729m0-.208-1.613.938,1.624.938,1.614-.938-1.625-.938Z"/>
          </g>
          <polygon class="ad2f6e58-db60-429e-ad6f-73afbc072673" points="219.562 82.676 219.556 84.612 217.943 85.55 217.948 83.614 219.562 82.676"/>
          <polygon class="a6e0decb-9741-4923-846e-dc333e684548" points="217.948 83.614 217.943 85.55 216.319 84.612 216.324 82.676 217.948 83.614"/>
        </g>
        <g>
          <g class="aac60bf6-001c-45e5-9f06-368660840236">
            <polygon class="a3f49d25-fcf8-4f28-b753-95a840a43362" points="217.552 73.795 215.013 75.271 212.456 73.795 214.996 72.319 217.552 73.795"/>
            <polygon class="a3f49d25-fcf8-4f28-b753-95a840a43362" points="217.552 73.795 217.545 76.843 215.005 78.318 215.013 75.271 217.552 73.795"/>
            <g>
              <polygon class="ad2f6e58-db60-429e-ad6f-73afbc072673" points="215.013 75.271 215.005 78.318 212.448 76.842 212.456 73.795 215.013 75.271"/>
              <path class="a3f49d25-fcf8-4f28-b753-95a840a43362" d="M212.636,74.106l2.2,1.269-.007,2.632-2.2-1.269.007-2.632m-.18-.311-.008,3.047,2.557,1.476.008-3.047L212.456,73.8Z"/>
            </g>
          </g>
          <g class="e7e1d80f-08b1-4e5b-8b75-9fb3c32a14db">
            <g class="aac60bf6-001c-45e5-9f06-368660840236">
              <polygon class="ad2f6e58-db60-429e-ad6f-73afbc072673" points="221.332 75.115 218.793 76.591 216.236 75.115 218.775 73.639 221.332 75.115"/>
              <polygon class="ad2f6e58-db60-429e-ad6f-73afbc072673" points="221.332 75.295 221.324 78.343 218.785 79.818 218.793 76.771 221.332 75.295"/>
              <polygon class="ad2f6e58-db60-429e-ad6f-73afbc072673" points="218.793 76.591 218.785 79.638 216.228 78.162 216.236 75.115 218.793 76.591"/>
            </g>
          </g>
        </g>
        <g>
          <g class="aac60bf6-001c-45e5-9f06-368660840236">
            <polygon class="a5cc7d0f-3d1a-45ad-8234-9b571e9774c0" points="224.901 75.021 221.079 77.243 217.23 75.02 221.052 72.799 224.901 75.021"/>
            <polygon class="a6e0decb-9741-4923-846e-dc333e684548" points="224.901 75.021 224.889 79.609 221.067 81.83 221.079 77.243 224.901 75.021"/>
            <polygon class="a5cc7d0f-3d1a-45ad-8234-9b571e9774c0" points="221.079 77.243 221.067 81.83 217.218 79.608 217.23 75.02 221.079 77.243"/>
            <g class="b8a9a350-cfce-4026-bae4-06da8fb73786">
              <path d="M217.105,75.079s.24,4.709,3.239,6.449l-3.3-1.92Z"/>
            </g>
          </g>
          <polygon class="a3f49d25-fcf8-4f28-b753-95a840a43362" points="221.157 81.831 220.977 81.831 220.989 77.294 217.185 75.098 217.275 74.941 221.169 77.191 221.169 77.242 221.157 81.831"/>
          <polygon class="a3f49d25-fcf8-4f28-b753-95a840a43362" points="221.157 81.831 220.977 81.831 220.989 77.191 221.034 77.165 224.856 74.944 224.946 75.098 221.169 77.294 221.157 81.831"/>
        </g>
        <circle class="ad2f6e58-db60-429e-ad6f-73afbc072673" cx="231.623" cy="80.328" r="5.489"/>
        <path class="a3f49d25-fcf8-4f28-b753-95a840a43362" d="M220.314,66.14a10.049,10.049,0,1,1-10.048,10.049A10.06,10.06,0,0,1,220.314,66.14m0-.18a10.229,10.229,0,1,0,10.229,10.229A10.229,10.229,0,0,0,220.314,65.96Z"/>
      </g>
      <g>
        <rect class="a6e0decb-9741-4923-846e-dc333e684548" x="229.579" y="78.097" width="3.159" height="5.242"/>
        <g>
          <path class="a6e0decb-9741-4923-846e-dc333e684548" d="M234.73,80.389h-6.251a.09.09,0,1,1,0-.18h6.251a.09.09,0,0,1,0,.18Z"/>
          <path class="a6e0decb-9741-4923-846e-dc333e684548" d="M234.73,79.045h-6.251a.09.09,0,0,1,0-.18h6.251a.09.09,0,0,1,0,.18Z"/>
          <path class="a6e0decb-9741-4923-846e-dc333e684548" d="M234.73,81.733h-6.251a.091.091,0,0,1,0-.181h6.251a.091.091,0,0,1,0,.181Z"/>
          <rect class="a5cc7d0f-3d1a-45ad-8234-9b571e9774c0" x="234.326" y="78.551" width="0.806" height="0.806"/>
          <rect class="a5cc7d0f-3d1a-45ad-8234-9b571e9774c0" x="234.326" y="81.239" width="0.806" height="0.806" rx="0.341"/>
          <polygon class="a5cc7d0f-3d1a-45ad-8234-9b571e9774c0" points="234.326 80.701 234.326 79.895 235.133 80.298 234.326 80.701"/>
          <rect class="a5cc7d0f-3d1a-45ad-8234-9b571e9774c0" x="228.143" y="81.239" width="0.806" height="0.806"/>
          <rect class="a5cc7d0f-3d1a-45ad-8234-9b571e9774c0" x="228.143" y="79.895" width="0.806" height="0.806" rx="0.341"/>
          <polygon class="a5cc7d0f-3d1a-45ad-8234-9b571e9774c0" points="228.95 78.551 228.95 79.357 228.143 78.954 228.95 78.551"/>
          <rect x="229.613" y="80.209" width="3.18" height="0.18"/>
          <rect x="229.613" y="78.865" width="3.18" height="0.18"/>
          <rect x="229.613" y="81.552" width="3.18" height="0.18"/>
        </g>
        <g>
          <rect class="a3f49d25-fcf8-4f28-b753-95a840a43362" x="230.059" y="77.677" width="3.159" height="5.242"/>
          <path class="ad2f6e58-db60-429e-ad6f-73afbc072673" d="M233.037,77.857v4.882h-2.8V77.857h2.8m.18-.18h-3.158v5.242h3.158V77.677Z"/>
        </g>
        <path class="ad2f6e58-db60-429e-ad6f-73afbc072673" d="M232.65,82.368a.091.091,0,0,1-.09-.091V78.409h-1.875a.091.091,0,0,1,0-.181h1.965a.09.09,0,0,1,.09.091v3.958A.09.09,0,0,1,232.65,82.368Z"/>
      </g>
      <g class="aac60bf6-001c-45e5-9f06-368660840236">
        <g>
          <polygon class="a3f49d25-fcf8-4f28-b753-95a840a43362" points="227.439 66.949 224.912 68.418 222.367 66.949 224.894 65.48 227.439 66.949"/>
          <path class="ad2f6e58-db60-429e-ad6f-73afbc072673" d="M224.9,65.688l2.185,1.262-2.168,1.26-2.186-1.262,2.169-1.26m0-.208-2.527,1.469,2.545,1.469,2.527-1.469-2.545-1.469Z"/>
        </g>
        <polygon class="ad2f6e58-db60-429e-ad6f-73afbc072673" points="227.439 66.949 227.432 69.983 224.904 71.451 224.912 68.418 227.439 66.949"/>
        <polygon class="a6e0decb-9741-4923-846e-dc333e684548" points="224.912 68.418 224.904 71.451 222.359 69.982 222.367 66.949 224.912 68.418"/>
      </g>
    </g>
    <g>
      <g>
        <path class="a5cc7d0f-3d1a-45ad-8234-9b571e9774c0" d="M194.3,110.386h.6v1.491h1.758v-1.491h.606v3.536h-.606v-1.515H194.9v1.515h-.6Z"/>
        <path class="a5cc7d0f-3d1a-45ad-8234-9b571e9774c0" d="M199.192,113.972a1.286,1.286,0,0,1-1.288-1.313,1.246,1.246,0,0,1,1.233-1.308,1.214,1.214,0,0,1,1.2,1.3v.142h-1.869a.773.773,0,0,0,.758.691.817.817,0,0,0,.6-.237l.374.349A1.46,1.46,0,0,1,199.192,113.972Zm-.718-1.525h1.319a.692.692,0,0,0-.661-.631A.682.682,0,0,0,198.474,112.447Z"/>
        <path class="a5cc7d0f-3d1a-45ad-8234-9b571e9774c0" d="M200.768,113.194c0-.454.369-.742.965-.742a1.566,1.566,0,0,1,.682.157v-.278c0-.333-.192-.505-.581-.505a1.737,1.737,0,0,0-.737.2l-.2-.414a2.428,2.428,0,0,1,1.051-.258c.656,0,1.035.334,1.035.92v1.651h-.565v-.258a1.056,1.056,0,0,1-.753.3A.8.8,0,0,1,200.768,113.194Zm1.05.37a.906.906,0,0,0,.6-.207v-.415a1.309,1.309,0,0,0-.586-.121c-.323,0-.525.142-.525.364S201.506,113.564,201.818,113.564Z"/>
        <path class="a5cc7d0f-3d1a-45ad-8234-9b571e9774c0" d="M205.481,113.584a.974.974,0,0,1-.778.363,1.214,1.214,0,0,1-1.147-1.288,1.226,1.226,0,0,1,1.182-1.288.964.964,0,0,1,.737.334v-1.394l.572-.1v3.707h-.566Zm-.606-.117a.754.754,0,0,0,.6-.277v-1.066a.782.782,0,0,0-.6-.273.81.81,0,0,0,0,1.616Z"/>
        <path class="a5cc7d0f-3d1a-45ad-8234-9b571e9774c0" d="M207.324,113.922h-.57v-3.611l.57-.1Z"/>
        <path class="a5cc7d0f-3d1a-45ad-8234-9b571e9774c0" d="M207.957,110.528a.356.356,0,0,1,.712,0,.356.356,0,0,1-.712,0Zm.641,3.394h-.571v-2.53h.571Z"/>
        <path class="a5cc7d0f-3d1a-45ad-8234-9b571e9774c0" d="M209.3,111.392h.57v.414a.92.92,0,0,1,.8-.455.852.852,0,0,1,.874.9v1.667h-.572v-1.5a.544.544,0,0,0-.555-.606.649.649,0,0,0-.551.3v1.808h-.57Z"/>
        <path class="a5cc7d0f-3d1a-45ad-8234-9b571e9774c0" d="M213.412,113.972a1.285,1.285,0,0,1-1.288-1.313,1.246,1.246,0,0,1,1.232-1.308,1.214,1.214,0,0,1,1.2,1.3v.142h-1.87a.774.774,0,0,0,.758.691.818.818,0,0,0,.6-.237l.374.349A1.46,1.46,0,0,1,213.412,113.972Zm-.717-1.525h1.318a.693.693,0,0,0-.662-.631A.68.68,0,0,0,212.7,112.447Z"/>
      </g>
      <g>
        <path d="M183.755,118.4h.389v3.192h2v.344h-2.384Z"/>
        <path d="M187.721,119.429a1.28,1.28,0,1,1-1.2,1.272A1.21,1.21,0,0,1,187.721,119.429Zm.837,1.277a.843.843,0,1,0-1.671,0,.842.842,0,1,0,1.671,0Z"/>
        <path d="M189.569,119.469h.368v.5a.738.738,0,0,1,.688-.546.7.7,0,0,1,.232.036v.333a.926.926,0,0,0-.258-.045.7.7,0,0,0-.662.5v1.687h-.368Z"/>
        <path d="M192.3,121.979a1.23,1.23,0,0,1-1.223-1.278,1.2,1.2,0,0,1,1.162-1.272,1.163,1.163,0,0,1,1.131,1.242v.111h-1.935a.9.9,0,0,0,.879.874,1,1,0,0,0,.677-.253l.232.248A1.438,1.438,0,0,1,192.3,121.979Zm-.854-1.459h1.561a.781.781,0,0,0-1.561,0Z"/>
        <path d="M194.005,119.469h.368v.384a.844.844,0,0,1,.732-.424.81.81,0,0,1,.758.479.912.912,0,0,1,.823-.479.839.839,0,0,1,.839.914v1.591h-.369v-1.5c0-.429-.232-.7-.605-.7a.687.687,0,0,0-.617.39,1.025,1.025,0,0,1,.02.217v1.591h-.368v-1.5a.614.614,0,0,0-.612-.7.677.677,0,0,0-.6.364v1.834h-.368Z"/>
        <path d="M199.369,118.6a.265.265,0,0,1,.53,0,.265.265,0,1,1-.53,0Zm.449,3.339h-.368v-2.465h.368Z"/>
        <path d="M200.576,119.469h.363v.353a.975.975,0,0,1,.8-.383,1.271,1.271,0,0,1-.019,2.53,1,1,0,0,1-.774-.343v1.363h-.368Zm.368.631v1.207a.866.866,0,0,0,.7.344.948.948,0,0,0,0-1.889A.842.842,0,0,0,200.944,120.1Z"/>
        <path d="M203.481,121.373a1.285,1.285,0,0,0,.792.308c.36,0,.622-.187.622-.444,0-.2-.131-.308-.444-.369l-.4-.071c-.481-.085-.7-.288-.7-.646,0-.424.37-.722.889-.722a1.6,1.6,0,0,1,.94.307l-.182.258a1.313,1.313,0,0,0-.773-.262c-.323,0-.535.151-.535.394,0,.2.106.3.424.353l.414.076c.495.091.718.3.718.661a.864.864,0,0,1-.96.763,1.4,1.4,0,0,1-1-.364Z"/>
        <path d="M206.163,120.954a.637.637,0,0,0,.656.712.731.731,0,0,0,.647-.374v-1.823h.369v2.465h-.369v-.4a.883.883,0,0,1-.783.439.862.862,0,0,1-.894-.914v-1.591h.374Z"/>
        <path d="M208.593,119.469h.368v.384a.843.843,0,0,1,.732-.424.81.81,0,0,1,.758.479.911.911,0,0,1,.823-.479.839.839,0,0,1,.839.914v1.591h-.369v-1.5c0-.429-.232-.7-.6-.7a.687.687,0,0,0-.617.39,1.025,1.025,0,0,1,.02.217v1.591h-.368v-1.5a.614.614,0,0,0-.612-.7.676.676,0,0,0-.6.364v1.834h-.368Z"/>
        <path d="M215.851,121.606a.971.971,0,0,1-.788.363,1.271,1.271,0,0,1,.02-2.53,1,1,0,0,1,.768.343v-1.46l.369-.075v3.687h-.369Zm-.7.04a.847.847,0,0,0,.7-.328V120.1a.912.912,0,1,0-.7,1.551Z"/>
        <path d="M218.063,119.429a1.28,1.28,0,1,1-1.2,1.272A1.209,1.209,0,0,1,218.063,119.429Zm.838,1.277a.843.843,0,1,0-1.672,0,.843.843,0,1,0,1.672,0Z"/>
        <path d="M220.28,121.934h-.368v-3.612l.368-.075Z"/>
        <path d="M222.124,119.429a1.28,1.28,0,1,1-1.2,1.272A1.21,1.21,0,0,1,222.124,119.429Zm.838,1.277a.843.843,0,1,0-1.672,0,.843.843,0,1,0,1.672,0Z"/>
        <path d="M223.973,119.469h.368v.5a.738.738,0,0,1,.687-.546.715.715,0,0,1,.233.036v.333a.933.933,0,0,0-.258-.045.7.7,0,0,0-.662.5v1.687h-.368Z"/>
        <path d="M195.644,127.435a1.286,1.286,0,0,0,.793.308c.359,0,.621-.187.621-.444,0-.2-.131-.308-.444-.369l-.4-.07c-.481-.086-.7-.289-.7-.647,0-.424.369-.723.888-.723a1.6,1.6,0,0,1,.94.308l-.182.258a1.312,1.312,0,0,0-.772-.262c-.324,0-.536.151-.536.394,0,.2.106.3.424.353l.414.076c.5.091.717.3.717.661a.863.863,0,0,1-.959.763,1.4,1.4,0,0,1-1-.364Z"/>
        <path d="M197.887,124.657a.265.265,0,0,1,.53,0,.265.265,0,1,1-.53,0Zm.449,3.339h-.368v-2.465h.368Z"/>
        <path d="M199.387,125.834h-.51v-.3h.51v-.677l.368-.086v.763h.707v.3h-.707v1.51c0,.263.1.369.359.369a.874.874,0,0,0,.348-.066v.329a1.391,1.391,0,0,1-.429.065c-.425,0-.646-.207-.646-.6Z"/>
        <path d="M202.048,127.289c0-.44.369-.733.925-.733a1.421,1.421,0,0,1,.751.192v-.338a.555.555,0,0,0-.635-.612,1.623,1.623,0,0,0-.748.213l-.136-.283a2.119,2.119,0,0,1,.929-.238c.611,0,.955.308.955.87V128h-.365v-.288a1.055,1.055,0,0,1-.782.333A.8.8,0,0,1,202.048,127.289Zm.969.469a.971.971,0,0,0,.707-.282V127a1.3,1.3,0,0,0-.7-.177c-.379,0-.627.182-.627.454C202.4,127.567,202.649,127.758,203.017,127.758Z"/>
        <path d="M204.837,125.531h.368v.384a.845.845,0,0,1,.732-.425.811.811,0,0,1,.758.48.913.913,0,0,1,.823-.48.839.839,0,0,1,.839.915V128h-.369v-1.5c0-.429-.232-.7-.6-.7a.687.687,0,0,0-.617.39,1.025,1.025,0,0,1,.02.217V128h-.368v-1.5a.613.613,0,0,0-.612-.7.677.677,0,0,0-.6.364V128h-.368Z"/>
        <path d="M210.217,128.041a1.23,1.23,0,0,1-1.223-1.278,1.2,1.2,0,0,1,1.162-1.273,1.164,1.164,0,0,1,1.131,1.243v.111h-1.935a.9.9,0,0,0,.879.874,1,1,0,0,0,.677-.253l.232.248A1.438,1.438,0,0,1,210.217,128.041Zm-.854-1.459h1.561a.815.815,0,0,0-.774-.773A.823.823,0,0,0,209.363,126.582Z"/>
        <path d="M212.136,125.834h-.511v-.3h.511v-.677l.368-.086v.763h.707v.3H212.5v1.51c0,.263.1.369.359.369a.874.874,0,0,0,.348-.066v.329a1.391,1.391,0,0,1-.429.065c-.425,0-.646-.207-.646-.6Z"/>
      </g>
    </g>
    <g>
      <g>
        <path class="a5cc7d0f-3d1a-45ad-8234-9b571e9774c0" d="M120.959,110.386h.6v1.491h1.758v-1.491h.607v3.536h-.607v-1.515h-1.758v1.515h-.6Z"/>
        <path class="a5cc7d0f-3d1a-45ad-8234-9b571e9774c0" d="M125.853,113.972a1.286,1.286,0,0,1-1.288-1.313,1.247,1.247,0,0,1,1.233-1.308,1.214,1.214,0,0,1,1.2,1.3v.142h-1.869a.773.773,0,0,0,.758.691.816.816,0,0,0,.6-.237l.374.349A1.458,1.458,0,0,1,125.853,113.972Zm-.716-1.525h1.317a.691.691,0,0,0-.661-.631A.679.679,0,0,0,125.137,112.447Z"/>
        <path class="a5cc7d0f-3d1a-45ad-8234-9b571e9774c0" d="M127.43,113.194c0-.454.368-.742.964-.742a1.566,1.566,0,0,1,.682.157v-.278c0-.333-.192-.505-.581-.505a1.741,1.741,0,0,0-.737.2l-.2-.414a2.42,2.42,0,0,1,1.05-.258c.657,0,1.035.334,1.035.92v1.651h-.565v-.258a1.056,1.056,0,0,1-.753.3A.8.8,0,0,1,127.43,113.194Zm1.049.37a.906.906,0,0,0,.6-.207v-.415a1.309,1.309,0,0,0-.586-.121c-.323,0-.525.142-.525.364S128.167,113.564,128.479,113.564Z"/>
        <path class="a5cc7d0f-3d1a-45ad-8234-9b571e9774c0" d="M132.142,113.584a.974.974,0,0,1-.778.363,1.295,1.295,0,0,1,.035-2.576.968.968,0,0,1,.738.334v-1.394l.571-.1v3.707h-.566Zm-.606-.117a.757.757,0,0,0,.6-.277v-1.066a.786.786,0,0,0-.6-.273.81.81,0,0,0,0,1.616Z"/>
        <path class="a5cc7d0f-3d1a-45ad-8234-9b571e9774c0" d="M133.985,113.922h-.57v-3.611l.57-.1Z"/>
        <path class="a5cc7d0f-3d1a-45ad-8234-9b571e9774c0" d="M134.618,110.528a.356.356,0,0,1,.712,0,.356.356,0,0,1-.712,0Zm.641,3.394h-.571v-2.53h.571Z"/>
        <path class="a5cc7d0f-3d1a-45ad-8234-9b571e9774c0" d="M135.962,111.392h.57v.414a.92.92,0,0,1,.8-.455.852.852,0,0,1,.874.9v1.667h-.571v-1.5a.545.545,0,0,0-.556-.606.649.649,0,0,0-.551.3v1.808h-.57Z"/>
        <path class="a5cc7d0f-3d1a-45ad-8234-9b571e9774c0" d="M140.073,113.972a1.285,1.285,0,0,1-1.288-1.313,1.246,1.246,0,0,1,1.232-1.308,1.214,1.214,0,0,1,1.2,1.3v.142h-1.869a.773.773,0,0,0,.757.691.818.818,0,0,0,.6-.237l.374.349A1.46,1.46,0,0,1,140.073,113.972Zm-.718-1.525h1.319a.693.693,0,0,0-.661-.631A.682.682,0,0,0,139.355,112.447Z"/>
      </g>
      <g>
        <path d="M110.416,118.4h.39v3.192H112.8v.344h-2.384Z"/>
        <path d="M114.382,119.429a1.28,1.28,0,1,1-1.2,1.272A1.21,1.21,0,0,1,114.382,119.429Zm.838,1.277a.843.843,0,1,0-1.672,0,.843.843,0,1,0,1.672,0Z"/>
        <path d="M116.23,119.469h.368v.5a.739.739,0,0,1,.688-.546.7.7,0,0,1,.232.036v.333a.926.926,0,0,0-.257-.045.705.705,0,0,0-.663.5v1.687h-.368Z"/>
        <path d="M118.964,121.979a1.23,1.23,0,0,1-1.223-1.278,1.2,1.2,0,0,1,1.162-1.272,1.163,1.163,0,0,1,1.131,1.242v.111H118.1a.9.9,0,0,0,.879.874,1,1,0,0,0,.677-.253l.233.248A1.442,1.442,0,0,1,118.964,121.979Zm-.854-1.459h1.561a.815.815,0,0,0-.774-.773A.823.823,0,0,0,118.11,120.52Z"/>
        <path d="M120.666,119.469h.368v.384a.845.845,0,0,1,.732-.424.808.808,0,0,1,.758.479.912.912,0,0,1,.824-.479.838.838,0,0,1,.838.914v1.591h-.369v-1.5c0-.429-.232-.7-.6-.7a.685.685,0,0,0-.616.39,1.1,1.1,0,0,1,.019.217v1.591h-.368v-1.5a.613.613,0,0,0-.611-.7.678.678,0,0,0-.6.364v1.834h-.368Z"/>
        <path d="M126.03,118.6a.265.265,0,0,1,.53,0,.265.265,0,1,1-.53,0Zm.449,3.339h-.368v-2.465h.368Z"/>
        <path d="M127.237,119.469h.363v.353a.975.975,0,0,1,.8-.383,1.271,1.271,0,0,1-.019,2.53,1,1,0,0,1-.774-.343v1.363h-.368Zm.368.631v1.207a.866.866,0,0,0,.7.344.948.948,0,0,0,0-1.889A.844.844,0,0,0,127.605,120.1Z"/>
        <path d="M130.142,121.373a1.286,1.286,0,0,0,.793.308c.359,0,.621-.187.621-.444,0-.2-.131-.308-.444-.369l-.4-.071c-.481-.085-.7-.288-.7-.646,0-.424.369-.722.888-.722a1.6,1.6,0,0,1,.94.307l-.182.258a1.312,1.312,0,0,0-.772-.262c-.324,0-.536.151-.536.394,0,.2.106.3.424.353l.414.076c.495.091.717.3.717.661a.863.863,0,0,1-.959.763,1.4,1.4,0,0,1-1-.364Z"/>
        <path d="M132.824,120.954a.637.637,0,0,0,.656.712.731.731,0,0,0,.647-.374v-1.823h.369v2.465h-.369v-.4a.881.881,0,0,1-.782.439.862.862,0,0,1-.9-.914v-1.591h.374Z"/>
        <path d="M135.254,119.469h.368v.384a.844.844,0,0,1,.732-.424.809.809,0,0,1,.758.479.912.912,0,0,1,.823-.479.838.838,0,0,1,.839.914v1.591h-.369v-1.5c0-.429-.232-.7-.6-.7a.687.687,0,0,0-.617.39,1.025,1.025,0,0,1,.02.217v1.591h-.368v-1.5a.613.613,0,0,0-.612-.7.677.677,0,0,0-.6.364v1.834h-.368Z"/>
        <path d="M142.513,121.606a.975.975,0,0,1-.789.363,1.271,1.271,0,0,1,.02-2.53,1.007,1.007,0,0,1,.769.343v-1.46l.368-.075v3.687h-.368Zm-.7.04a.851.851,0,0,0,.7-.328V120.1a.912.912,0,1,0-.7,1.551Z"/>
        <path d="M144.724,119.429a1.28,1.28,0,1,1-1.2,1.272A1.21,1.21,0,0,1,144.724,119.429Zm.838,1.277a.843.843,0,1,0-1.672,0,.843.843,0,1,0,1.672,0Z"/>
        <path d="M146.941,121.934h-.368v-3.612l.368-.075Z"/>
        <path d="M148.785,119.429a1.28,1.28,0,1,1-1.2,1.272A1.209,1.209,0,0,1,148.785,119.429Zm.838,1.277a.843.843,0,1,0-1.672,0,.843.843,0,1,0,1.672,0Z"/>
        <path d="M150.634,119.469H151v.5a.738.738,0,0,1,.687-.546.711.711,0,0,1,.233.036v.333a.933.933,0,0,0-.258-.045.7.7,0,0,0-.662.5v1.687h-.368Z"/>
        <path d="M122.306,127.435a1.283,1.283,0,0,0,.792.308c.359,0,.622-.187.622-.444,0-.2-.132-.308-.445-.369l-.4-.07c-.481-.086-.7-.289-.7-.647,0-.424.369-.723.888-.723a1.6,1.6,0,0,1,.94.308l-.182.258a1.312,1.312,0,0,0-.772-.262c-.324,0-.535.151-.535.394,0,.2.1.3.423.353l.414.076c.5.091.718.3.718.661a.864.864,0,0,1-.96.763,1.4,1.4,0,0,1-1-.364Z"/>
        <path d="M124.548,124.657a.265.265,0,0,1,.53,0,.265.265,0,1,1-.53,0ZM125,128h-.368v-2.465H125Z"/>
        <path d="M126.048,125.834h-.511v-.3h.511v-.677l.368-.086v.763h.707v.3h-.707v1.51c0,.263.1.369.359.369a.874.874,0,0,0,.348-.066v.329a1.391,1.391,0,0,1-.429.065c-.425,0-.646-.207-.646-.6Z"/>
        <path d="M128.709,127.289c0-.44.369-.733.925-.733a1.43,1.43,0,0,1,.752.192v-.338a.555.555,0,0,0-.636-.612,1.623,1.623,0,0,0-.748.213l-.136-.283a2.119,2.119,0,0,1,.929-.238c.611,0,.955.308.955.87V128h-.364v-.288a1.059,1.059,0,0,1-.783.333A.8.8,0,0,1,128.709,127.289Zm.97.469a.974.974,0,0,0,.707-.282V127a1.3,1.3,0,0,0-.7-.177c-.379,0-.627.182-.627.454C129.062,127.567,129.31,127.758,129.679,127.758Z"/>
        <path d="M131.5,125.531h.368v.384a.846.846,0,0,1,.732-.425.809.809,0,0,1,.758.48.913.913,0,0,1,.824-.48.839.839,0,0,1,.838.915V128h-.369v-1.5c0-.429-.232-.7-.6-.7a.685.685,0,0,0-.616.39,1.1,1.1,0,0,1,.019.217V128h-.368v-1.5a.613.613,0,0,0-.611-.7.678.678,0,0,0-.6.364V128H131.5Z"/>
        <path d="M136.878,128.041a1.23,1.23,0,0,1-1.223-1.278,1.2,1.2,0,0,1,1.162-1.273,1.164,1.164,0,0,1,1.131,1.243v.111h-1.934a.9.9,0,0,0,.878.874,1,1,0,0,0,.677-.253l.233.248A1.44,1.44,0,0,1,136.878,128.041Zm-.854-1.459h1.561a.815.815,0,0,0-.774-.773A.823.823,0,0,0,136.024,126.582Z"/>
        <path d="M138.8,125.834h-.51v-.3h.51v-.677l.368-.086v.763h.707v.3h-.707v1.51c0,.263.1.369.359.369a.874.874,0,0,0,.348-.066v.329a1.391,1.391,0,0,1-.429.065c-.425,0-.646-.207-.646-.6Z"/>
      </g>
    </g>
    <g>
      <g>
        <path class="a5cc7d0f-3d1a-45ad-8234-9b571e9774c0" d="M47.619,110.386h.6v1.491h1.758v-1.491h.607v3.536h-.607v-1.515H48.224v1.515h-.6Z"/>
        <path class="a5cc7d0f-3d1a-45ad-8234-9b571e9774c0" d="M52.514,113.972a1.286,1.286,0,0,1-1.289-1.313,1.247,1.247,0,0,1,1.233-1.308,1.214,1.214,0,0,1,1.2,1.3v.142H51.786a.773.773,0,0,0,.758.691.816.816,0,0,0,.6-.237l.374.349A1.458,1.458,0,0,1,52.514,113.972Zm-.717-1.525h1.317a.691.691,0,0,0-.661-.631A.679.679,0,0,0,51.8,112.447Z"/>
        <path class="a5cc7d0f-3d1a-45ad-8234-9b571e9774c0" d="M54.09,113.194c0-.454.368-.742.965-.742a1.562,1.562,0,0,1,.681.157v-.278c0-.333-.192-.505-.581-.505a1.741,1.741,0,0,0-.737.2l-.2-.414a2.427,2.427,0,0,1,1.05-.258c.657,0,1.036.334,1.036.92v1.651h-.566v-.258a1.054,1.054,0,0,1-.753.3A.8.8,0,0,1,54.09,113.194Zm1.049.37a.906.906,0,0,0,.6-.207v-.415a1.306,1.306,0,0,0-.586-.121c-.323,0-.525.142-.525.364S54.827,113.564,55.139,113.564Z"/>
        <path class="a5cc7d0f-3d1a-45ad-8234-9b571e9774c0" d="M58.8,113.584a.976.976,0,0,1-.779.363,1.295,1.295,0,0,1,.035-2.576.968.968,0,0,1,.738.334v-1.394l.571-.1v3.707H58.8Zm-.607-.117a.757.757,0,0,0,.6-.277v-1.066a.786.786,0,0,0-.6-.273.81.81,0,0,0,0,1.616Z"/>
        <path class="a5cc7d0f-3d1a-45ad-8234-9b571e9774c0" d="M60.645,113.922h-.57v-3.611l.57-.1Z"/>
        <path class="a5cc7d0f-3d1a-45ad-8234-9b571e9774c0" d="M61.278,110.528a.356.356,0,0,1,.712,0,.356.356,0,0,1-.712,0Zm.641,3.394h-.571v-2.53h.571Z"/>
        <path class="a5cc7d0f-3d1a-45ad-8234-9b571e9774c0" d="M62.622,111.392h.57v.414a.921.921,0,0,1,.8-.455.852.852,0,0,1,.874.9v1.667H64.3v-1.5a.545.545,0,0,0-.556-.606.649.649,0,0,0-.551.3v1.808h-.57Z"/>
        <path class="a5cc7d0f-3d1a-45ad-8234-9b571e9774c0" d="M66.733,113.972a1.286,1.286,0,0,1-1.288-1.313,1.246,1.246,0,0,1,1.233-1.308,1.214,1.214,0,0,1,1.2,1.3v.142H66.006a.773.773,0,0,0,.758.691.817.817,0,0,0,.6-.237l.374.349A1.458,1.458,0,0,1,66.733,113.972Zm-.718-1.525h1.319a.692.692,0,0,0-.661-.631A.682.682,0,0,0,66.015,112.447Z"/>
      </g>
      <g>
        <path d="M37.076,118.4h.39v3.192H39.46v.344H37.076Z"/>
        <path d="M41.042,119.429a1.28,1.28,0,1,1-1.2,1.272A1.21,1.21,0,0,1,41.042,119.429Zm.838,1.277a.843.843,0,1,0-1.672,0,.843.843,0,1,0,1.672,0Z"/>
        <path d="M42.89,119.469h.369v.5a.738.738,0,0,1,.687-.546.715.715,0,0,1,.233.036v.333a.933.933,0,0,0-.258-.045.7.7,0,0,0-.662.5v1.687H42.89Z"/>
        <path d="M45.624,121.979A1.23,1.23,0,0,1,44.4,120.7a1.2,1.2,0,0,1,1.162-1.272,1.163,1.163,0,0,1,1.131,1.242v.111H44.76a.9.9,0,0,0,.879.874,1,1,0,0,0,.676-.253l.233.248A1.44,1.44,0,0,1,45.624,121.979Zm-.854-1.459h1.561a.815.815,0,0,0-.774-.773A.823.823,0,0,0,44.77,120.52Z"/>
        <path d="M47.326,119.469h.368v.384a.846.846,0,0,1,.733-.424.808.808,0,0,1,.757.479.912.912,0,0,1,.824-.479.839.839,0,0,1,.839.914v1.591h-.37v-1.5c0-.429-.232-.7-.6-.7a.685.685,0,0,0-.616.39,1.1,1.1,0,0,1,.019.217v1.591h-.368v-1.5a.613.613,0,0,0-.611-.7.678.678,0,0,0-.6.364v1.834h-.368Z"/>
        <path d="M52.69,118.6a.266.266,0,0,1,.531,0,.266.266,0,1,1-.531,0Zm.449,3.339h-.368v-2.465h.368Z"/>
        <path d="M53.9,119.469h.364v.353a.972.972,0,0,1,.8-.383,1.271,1.271,0,0,1-.019,2.53,1,1,0,0,1-.774-.343v1.363H53.9Zm.368.631v1.207a.868.868,0,0,0,.7.344.948.948,0,0,0,0-1.889A.845.845,0,0,0,54.265,120.1Z"/>
        <path d="M56.8,121.373a1.284,1.284,0,0,0,.793.308c.358,0,.621-.187.621-.444,0-.2-.132-.308-.445-.369l-.4-.071c-.48-.085-.7-.288-.7-.646,0-.424.369-.722.888-.722a1.6,1.6,0,0,1,.94.307l-.182.258a1.312,1.312,0,0,0-.772-.262c-.323,0-.535.151-.535.394,0,.2.105.3.423.353l.415.076c.5.091.716.3.716.661a.863.863,0,0,1-.959.763,1.4,1.4,0,0,1-1-.364Z"/>
        <path d="M59.484,120.954a.637.637,0,0,0,.656.712.731.731,0,0,0,.647-.374v-1.823h.369v2.465h-.369v-.4a.881.881,0,0,1-.782.439.862.862,0,0,1-.9-.914v-1.591h.374Z"/>
        <path d="M61.914,119.469h.368v.384a.845.845,0,0,1,.732-.424.808.808,0,0,1,.758.479.912.912,0,0,1,.824-.479.838.838,0,0,1,.838.914v1.591h-.369v-1.5c0-.429-.232-.7-.605-.7a.685.685,0,0,0-.616.39,1.1,1.1,0,0,1,.019.217v1.591H63.5v-1.5a.613.613,0,0,0-.611-.7.678.678,0,0,0-.6.364v1.834h-.368Z"/>
        <path d="M69.173,121.606a.974.974,0,0,1-.788.363,1.271,1.271,0,0,1,.019-2.53,1.007,1.007,0,0,1,.769.343v-1.46l.368-.075v3.687h-.368Zm-.7.04a.849.849,0,0,0,.7-.328V120.1a.912.912,0,1,0-.7,1.551Z"/>
        <path d="M71.385,119.429a1.28,1.28,0,1,1-1.2,1.272A1.21,1.21,0,0,1,71.385,119.429Zm.838,1.277a.843.843,0,1,0-1.672,0,.843.843,0,1,0,1.672,0Z"/>
        <path d="M73.6,121.934h-.368v-3.612l.368-.075Z"/>
        <path d="M75.445,119.429a1.28,1.28,0,1,1-1.2,1.272A1.209,1.209,0,0,1,75.445,119.429Zm.838,1.277a.843.843,0,1,0-1.672,0,.843.843,0,1,0,1.672,0Z"/>
        <path d="M77.294,119.469h.368v.5a.738.738,0,0,1,.687-.546.711.711,0,0,1,.233.036v.333a.933.933,0,0,0-.258-.045.7.7,0,0,0-.662.5v1.687h-.368Z"/>
        <path d="M48.966,127.435a1.283,1.283,0,0,0,.792.308c.359,0,.622-.187.622-.444,0-.2-.132-.308-.445-.369l-.4-.07c-.48-.086-.7-.289-.7-.647,0-.424.369-.723.889-.723a1.6,1.6,0,0,1,.939.308l-.182.258a1.308,1.308,0,0,0-.772-.262c-.323,0-.535.151-.535.394,0,.2.1.3.424.353l.414.076c.495.091.717.3.717.661a.864.864,0,0,1-.96.763,1.4,1.4,0,0,1-1-.364Z"/>
        <path d="M51.208,124.657a.265.265,0,0,1,.53,0,.265.265,0,1,1-.53,0ZM51.657,128h-.368v-2.465h.368Z"/>
        <path d="M52.708,125.834H52.2v-.3h.511v-.677l.368-.086v.763h.707v.3h-.707v1.51c0,.263.1.369.359.369a.874.874,0,0,0,.348-.066v.329a1.391,1.391,0,0,1-.429.065c-.424,0-.646-.207-.646-.6Z"/>
        <path d="M55.369,127.289c0-.44.369-.733.925-.733a1.43,1.43,0,0,1,.752.192v-.338a.555.555,0,0,0-.636-.612,1.623,1.623,0,0,0-.748.213l-.136-.283a2.119,2.119,0,0,1,.929-.238c.611,0,.955.308.955.87V128h-.364v-.288a1.058,1.058,0,0,1-.782.333A.8.8,0,0,1,55.369,127.289Zm.97.469a.972.972,0,0,0,.707-.282V127a1.3,1.3,0,0,0-.7-.177c-.378,0-.626.182-.626.454C55.723,127.567,55.971,127.758,56.339,127.758Z"/>
        <path d="M58.158,125.531h.368v.384a.847.847,0,0,1,.733-.425.808.808,0,0,1,.757.48.913.913,0,0,1,.824-.48.84.84,0,0,1,.839.915V128h-.37v-1.5c0-.429-.232-.7-.6-.7a.685.685,0,0,0-.616.39,1.1,1.1,0,0,1,.019.217V128h-.368v-1.5a.613.613,0,0,0-.611-.7.678.678,0,0,0-.6.364V128h-.368Z"/>
        <path d="M63.538,128.041a1.231,1.231,0,0,1-1.223-1.278,1.2,1.2,0,0,1,1.162-1.273,1.164,1.164,0,0,1,1.131,1.243v.111H62.674a.9.9,0,0,0,.879.874,1,1,0,0,0,.676-.253l.233.248A1.438,1.438,0,0,1,63.538,128.041Zm-.854-1.459h1.561a.814.814,0,0,0-.773-.773A.823.823,0,0,0,62.684,126.582Z"/>
        <path d="M65.457,125.834h-.51v-.3h.51v-.677l.368-.086v.763h.707v.3h-.707v1.51c0,.263.1.369.359.369a.874.874,0,0,0,.348-.066v.329a1.391,1.391,0,0,1-.429.065c-.424,0-.646-.207-.646-.6Z"/>
      </g>
    </g>
  </g>
</svg>
