<svg id="ac44831f-d67f-4ce6-adb4-54efb7e25259" data-name="Layer 1" xmlns="http://www.w3.org/2000/svg" xmlns:xlink="http://www.w3.org/1999/xlink" viewBox="0 0 262 180">
  <defs>
    <style>
      .b42e1a92-0cff-4ab4-a8c9-51b3b075cfea {
        fill: none;
      }

      .b454477d-0385-4890-916d-fdecc36d81c3 {
        fill: #fc0000;
      }

      .f4c3f8a1-aa3b-47de-8796-f5f9ca0602e4 {
        fill: #fff;
      }

      .bebf464f-4276-47df-9fc5-30c5230fc47a {
        fill: url(#a769a164-e33e-4a69-b1c6-1de68bb799dd);
      }
    </style>
    <pattern id="a769a164-e33e-4a69-b1c6-1de68bb799dd" data-name="10 dpi 20%" width="28.8" height="28.801" patternTransform="translate(72.359 -23.083) scale(0.421)" patternUnits="userSpaceOnUse" viewBox="0 0 28.8 28.801">
      <rect class="b42e1a92-0cff-4ab4-a8c9-51b3b075cfea" width="28.8" height="28.801"/>
      <g>
        <path class="b454477d-0385-4890-916d-fdecc36d81c3" d="M28.8,30.24A1.44,1.44,0,1,0,27.359,28.8,1.439,1.439,0,0,0,28.8,30.24Z"/>
        <path class="b454477d-0385-4890-916d-fdecc36d81c3" d="M14.4,30.24A1.44,1.44,0,1,0,12.96,28.8,1.44,1.44,0,0,0,14.4,30.24Z"/>
        <path class="b454477d-0385-4890-916d-fdecc36d81c3" d="M28.8,15.842A1.441,1.441,0,1,0,27.359,14.4,1.441,1.441,0,0,0,28.8,15.842Z"/>
        <path class="b454477d-0385-4890-916d-fdecc36d81c3" d="M14.4,15.842A1.441,1.441,0,1,0,12.96,14.4,1.443,1.443,0,0,0,14.4,15.842Z"/>
        <path class="b454477d-0385-4890-916d-fdecc36d81c3" d="M7.2,23.041A1.441,1.441,0,1,0,5.76,21.6,1.44,1.44,0,0,0,7.2,23.041Z"/>
        <path class="b454477d-0385-4890-916d-fdecc36d81c3" d="M21.6,23.041a1.441,1.441,0,1,0-1.44-1.439A1.44,1.44,0,0,0,21.6,23.041Z"/>
        <path class="b454477d-0385-4890-916d-fdecc36d81c3" d="M7.2,8.641A1.441,1.441,0,1,0,5.76,7.2,1.44,1.44,0,0,0,7.2,8.641Z"/>
        <path class="b454477d-0385-4890-916d-fdecc36d81c3" d="M21.6,8.641a1.441,1.441,0,1,0-1.44-1.44A1.441,1.441,0,0,0,21.6,8.641Z"/>
      </g>
      <g>
        <path class="b454477d-0385-4890-916d-fdecc36d81c3" d="M0,30.24A1.439,1.439,0,0,0,1.439,28.8,1.44,1.44,0,0,0,0,27.361,1.441,1.441,0,0,0-1.441,28.8,1.44,1.44,0,0,0,0,30.24Z"/>
        <path class="b454477d-0385-4890-916d-fdecc36d81c3" d="M0,15.842A1.441,1.441,0,0,0,1.439,14.4,1.44,1.44,0,0,0,0,12.961,1.441,1.441,0,0,0-1.441,14.4,1.442,1.442,0,0,0,0,15.842Z"/>
      </g>
      <g>
        <path class="b454477d-0385-4890-916d-fdecc36d81c3" d="M28.8,1.44A1.44,1.44,0,0,0,30.239,0,1.439,1.439,0,0,0,28.8-1.439,1.44,1.44,0,0,0,27.359,0,1.441,1.441,0,0,0,28.8,1.44Z"/>
        <path class="b454477d-0385-4890-916d-fdecc36d81c3" d="M14.4,1.44A1.441,1.441,0,0,0,15.84,0,1.44,1.44,0,0,0,14.4-1.439,1.438,1.438,0,0,0,12.96,0,1.439,1.439,0,0,0,14.4,1.44Z"/>
      </g>
      <path class="b454477d-0385-4890-916d-fdecc36d81c3" d="M0,1.44A1.44,1.44,0,0,0,1.439,0,1.439,1.439,0,0,0,0-1.439,1.44,1.44,0,0,0-1.441,0,1.441,1.441,0,0,0,0,1.44Z"/>
    </pattern>
  </defs>
  <g>
    <g>
      <path class="b454477d-0385-4890-916d-fdecc36d81c3" d="M137.678,136.912H70.309A.313.313,0,0,1,70,136.6V89.7a.313.313,0,0,1,.313-.313h67.369a.313.313,0,0,1,.313.313v46.9A.313.313,0,0,1,137.678,136.912Zm-67.057-.624h66.745V90.015H70.621Z"/>
      <path class="b454477d-0385-4890-916d-fdecc36d81c3" d="M103.993,124.634a.378.378,0,0,1-.271-.114L70.037,89.967l.543-.529,33.413,34.275,33.414-34.275.543.529L104.265,124.52A.379.379,0,0,1,103.993,124.634Z"/>
    </g>
    <g>
      <path class="b454477d-0385-4890-916d-fdecc36d81c3" d="M191.691,90.61H124.322a.313.313,0,0,1-.312-.313V43.4a.312.312,0,0,1,.312-.312h67.369A.313.313,0,0,1,192,43.4V90.3A.313.313,0,0,1,191.691,90.61Zm-67.057-.625h66.745V43.712H124.634Z"/>
      <path class="b454477d-0385-4890-916d-fdecc36d81c3" d="M158.007,78.332a.377.377,0,0,1-.272-.115L124.051,43.665l.543-.53L158.007,77.41,191.42,43.135l.543.53L158.278,78.217A.375.375,0,0,1,158.007,78.332Z"/>
    </g>
    <rect class="b454477d-0385-4890-916d-fdecc36d81c3" x="80.579" y="89.703" width="57.099" height="43.063"/>
    <rect class="b454477d-0385-4890-916d-fdecc36d81c3" x="124.322" y="55.76" width="59.701" height="34.537"/>
    <g>
      <rect class="f4c3f8a1-aa3b-47de-8796-f5f9ca0602e4" x="86.935" y="62.428" width="91.727" height="63.853"/>
      <path class="b454477d-0385-4890-916d-fdecc36d81c3" d="M178.662,126.706H86.935a.425.425,0,0,1-.425-.425V62.428A.425.425,0,0,1,86.935,62h91.727a.425.425,0,0,1,.425.425v63.853A.425.425,0,0,1,178.662,126.706Zm-91.3-.85h90.877v-63H87.36Z"/>
    </g>
    <path class="b454477d-0385-4890-916d-fdecc36d81c3" d="M132.8,109.989a.519.519,0,0,1-.37-.155L86.565,62.788l.74-.72L132.8,108.734l45.493-46.666.74.72-45.864,47.046A.517.517,0,0,1,132.8,109.989Z"/>
    <polygon class="bebf464f-4276-47df-9fc5-30c5230fc47a" points="86.935 62.428 136.238 126.281 178.662 126.281 178.662 62.428 132.799 109.473 86.935 62.428"/>
  </g>
</svg>
