<svg id="b90465ba-e735-47b9-9e7f-c1011dde8e97" data-name="Layer 1" xmlns="http://www.w3.org/2000/svg" xmlns:xlink="http://www.w3.org/1999/xlink" viewBox="0 0 555 515">
  <defs>
    <style>
      .e0ee8315-706a-4b3e-ae3e-80803b2adeb6 {
        fill: none;
      }

      .b0be6ae1-e7cc-4849-8ef7-1625cd3e218e {
        fill: #f56d6d;
      }

      .b1225589-4483-4b33-a8e4-b44c14b75d40 {
        fill: #dedede;
      }

      .b4ae4fcb-5cb6-4505-980d-483cf15ba9c4 {
        fill: #e00;
      }

      .b0935c57-b5c2-4240-9a91-07cce594f289 {
        fill: #aaa;
      }

      .aa571fc3-bf4e-4a99-84a2-34d126f50716 {
        fill: #fff;
      }

      .a7a0d940-951b-44f8-b418-5e170a21d1a8 {
        clip-path: url(#eb8ffa05-910b-4ce5-bc1f-e14d3876c902);
      }

      .a6acfe25-4e2b-4b29-ae95-ed46b709cb18 {
        clip-path: url(#bdba51a9-4f38-4e39-b503-eac9ca0cffa6);
      }

      .b73a92a1-ced7-4002-aa17-b272557f8d5a {
        clip-path: url(#a6d24244-74e2-4071-a22a-3f17a1de41e4);
      }

      .af64b944-b660-4dd7-96cc-4ea642920148 {
        clip-path: url(#a7d57a4f-488d-4323-a5be-5787c964f5ee);
      }

      .b49fa8cf-75b3-478b-8000-47ec38c3c933 {
        clip-path: url(#a1864f3a-bdf3-4ad3-8ef2-065baa79b8e1);
      }

      .bbc502c9-b297-4508-90ca-f13dc3b75eaa {
        clip-path: url(#aa8aee6c-7058-47a4-b25d-0e159c1abee6);
      }

      .ba4f07c8-7356-45fa-8798-ba2e44793aa0 {
        clip-path: url(#f224ae70-c465-4b17-a29f-a21ab233b713);
      }

      .f42150b2-e518-4248-b077-01f6811bdefa {
        fill: #8f0000;
      }

      .a26eb2f8-ed0b-450b-a966-0a3288387509 {
        fill: #5f0000;
      }

      .e527c2ed-55b3-4a4e-979f-26c6d5a7173b {
        fill: #be0000;
      }

      .afeab3ae-4e0e-4dce-8132-708d30f9095a {
        clip-path: url(#aacf365d-7285-44c6-919f-67d2f9d4d878);
      }

      .b4c18d04-d8ca-489e-83ac-eb934d133bb9 {
        clip-path: url(#a940b977-4dfe-463f-b083-99401c76b44f);
      }
    </style>
    <clipPath id="eb8ffa05-910b-4ce5-bc1f-e14d3876c902">
      <rect class="e0ee8315-706a-4b3e-ae3e-80803b2adeb6" x="104.33" y="348.908" width="24.184" height="82.667"/>
    </clipPath>
    <clipPath id="bdba51a9-4f38-4e39-b503-eac9ca0cffa6">
      <path class="e0ee8315-706a-4b3e-ae3e-80803b2adeb6" d="M180.546,256.455s-20.75,4.342-20.75,23.86,4.971,17.152,0,40.614-9.994,38.13,17.5,53.6,67.261,9.722,79.017-.59S200.744,258.005,180.546,256.455Z"/>
    </clipPath>
    <clipPath id="a6d24244-74e2-4071-a22a-3f17a1de41e4">
      <polygon class="e0ee8315-706a-4b3e-ae3e-80803b2adeb6" points="485.52 331.857 485.52 345.189 473.974 351.855 462.428 345.189 462.428 331.857 473.974 325.191 485.52 331.857"/>
    </clipPath>
    <clipPath id="a7d57a4f-488d-4323-a5be-5787c964f5ee">
      <polygon class="e0ee8315-706a-4b3e-ae3e-80803b2adeb6" points="464.875 325.224 464.875 342.978 449.5 351.855 434.124 342.978 434.124 325.224 449.5 316.346 464.875 325.224"/>
    </clipPath>
    <clipPath id="a1864f3a-bdf3-4ad3-8ef2-065baa79b8e1">
      <polygon class="e0ee8315-706a-4b3e-ae3e-80803b2adeb6" points="441.213 117.253 441.213 135.008 425.837 143.885 410.461 135.008 410.461 117.253 425.837 108.376 441.213 117.253"/>
    </clipPath>
    <clipPath id="aa8aee6c-7058-47a4-b25d-0e159c1abee6">
      <polygon class="b0be6ae1-e7cc-4849-8ef7-1625cd3e218e" points="415.273 126.836 415.273 140.167 403.727 146.833 392.181 140.167 392.181 126.836 403.727 120.17 415.273 126.836"/>
    </clipPath>
    <clipPath id="f224ae70-c465-4b17-a29f-a21ab233b713">
      <path class="e0ee8315-706a-4b3e-ae3e-80803b2adeb6" d="M191.394,240.184s-20.751,4.342-20.751,23.86,4.972,17.152,0,40.614-9.993,38.13,17.5,53.6,67.261,9.721,79.016-.59S211.592,241.734,191.394,240.184Z"/>
    </clipPath>
    <clipPath id="aacf365d-7285-44c6-919f-67d2f9d4d878">
      <polygon class="e0ee8315-706a-4b3e-ae3e-80803b2adeb6" points="102.8 162.662 102.8 175.993 91.254 182.659 79.708 175.993 79.708 162.662 91.254 155.996 102.8 162.662"/>
    </clipPath>
    <clipPath id="a940b977-4dfe-463f-b083-99401c76b44f">
      <polygon class="e0ee8315-706a-4b3e-ae3e-80803b2adeb6" points="120.484 180.794 120.484 198.549 105.109 207.426 89.733 198.549 89.733 180.794 105.109 171.917 120.484 180.794"/>
    </clipPath>
  </defs>
  <g>
    <path class="b1225589-4483-4b33-a8e4-b44c14b75d40" d="M48.747,267.853c5,25.668,16.432,49.627,33.017,67.326C117.4,373.212,171.7,388.408,216.52,413.4c39.747,22.157,80.083,44.689,129.118,38.288,40.736-5.318,86.849-25.743,110.018-62.467,26.734-42.371,17.2-87.4,6.149-130.18-11.4-44.115,12.062-83.517,13.712-127.777,1.582-42.433-21.627-82.094-60.535-97.6-40.34-16.073-85.015-5.935-123.111,17.182C273.01,62.291,255.431,75.97,235.95,86.33c-19.709,10.482-40.6,15.43-61.707,21.349C132.6,119.356,82.664,134.238,60.657,176.013,45.989,203.857,42.75,237.083,48.747,267.853Z"/>
    <path class="b4ae4fcb-5cb6-4505-980d-483cf15ba9c4" d="M408.883,109.46a1.085,1.085,0,0,1-.72-.274A185.707,185.707,0,0,0,301.285,62.978,188.125,188.125,0,0,0,256.7,64.162a1.085,1.085,0,1,1-.316-2.146,190.183,190.183,0,0,1,45.1-1.2A187.865,187.865,0,0,1,409.6,107.563a1.085,1.085,0,0,1-.719,1.9Z"/>
    <g>
      <ellipse class="b1225589-4483-4b33-a8e4-b44c14b75d40" cx="128.288" cy="433.948" rx="84.619" ry="7.454"/>
      <g>
        <rect class="b0935c57-b5c2-4240-9a91-07cce594f289" x="75.179" y="349.498" width="25.943" height="81.488"/>
        <rect class="b1225589-4483-4b33-a8e4-b44c14b75d40" x="82.712" y="348.943" width="75.481" height="22.285"/>
        <rect class="aa571fc3-bf4e-4a99-84a2-34d126f50716" x="94.883" y="357.275" width="40.589" height="3.861"/>
        <circle class="aa571fc3-bf4e-4a99-84a2-34d126f50716" cx="145.957" cy="359.205" r="2.682"/>
        <rect class="b1225589-4483-4b33-a8e4-b44c14b75d40" x="82.712" y="369.552" width="75.481" height="20.525"/>
        <circle class="aa571fc3-bf4e-4a99-84a2-34d126f50716" cx="145.957" cy="379.815" r="2.413"/>
        <rect class="b1225589-4483-4b33-a8e4-b44c14b75d40" x="82.712" y="390.078" width="75.481" height="20.525"/>
        <circle class="aa571fc3-bf4e-4a99-84a2-34d126f50716" cx="145.957" cy="400.34" r="2.682"/>
        <rect class="b1225589-4483-4b33-a8e4-b44c14b75d40" x="82.712" y="410.603" width="75.481" height="20.525"/>
        <circle class="aa571fc3-bf4e-4a99-84a2-34d126f50716" cx="145.957" cy="420.866" r="2.682"/>
        <rect class="aa571fc3-bf4e-4a99-84a2-34d126f50716" x="94.629" y="377.86" width="41.096" height="3.91"/>
        <rect class="aa571fc3-bf4e-4a99-84a2-34d126f50716" x="94.883" y="398.41" width="40.589" height="3.861"/>
        <rect class="aa571fc3-bf4e-4a99-84a2-34d126f50716" x="94.883" y="418.935" width="40.589" height="3.861"/>
        <g>
          <line class="e0ee8315-706a-4b3e-ae3e-80803b2adeb6" x1="158.416" y1="369.754" x2="82.937" y2="369.754"/>
          <line class="e0ee8315-706a-4b3e-ae3e-80803b2adeb6" x1="158.416" y1="390.097" x2="82.937" y2="390.097"/>
          <line class="e0ee8315-706a-4b3e-ae3e-80803b2adeb6" x1="158.416" y1="410.441" x2="82.937" y2="410.441"/>
        </g>
      </g>
      <g>
        <g class="a7a0d940-951b-44f8-b418-5e170a21d1a8">
          <g>
            <rect x="82.712" y="348.943" width="75.481" height="22.285"/>
            <rect class="b0935c57-b5c2-4240-9a91-07cce594f289" x="94.883" y="357.275" width="40.589" height="3.861"/>
            <circle class="b0935c57-b5c2-4240-9a91-07cce594f289" cx="145.957" cy="359.205" r="2.682"/>
            <rect x="82.712" y="369.552" width="75.481" height="20.525"/>
            <circle class="b0935c57-b5c2-4240-9a91-07cce594f289" cx="145.957" cy="379.815" r="2.413"/>
            <rect x="82.712" y="390.078" width="75.481" height="20.525"/>
            <circle class="b0935c57-b5c2-4240-9a91-07cce594f289" cx="145.957" cy="400.34" r="2.682"/>
            <rect x="82.712" y="410.603" width="75.481" height="20.525"/>
            <circle class="b0935c57-b5c2-4240-9a91-07cce594f289" cx="145.957" cy="420.866" r="2.682"/>
            <rect class="b0935c57-b5c2-4240-9a91-07cce594f289" x="94.629" y="377.86" width="41.096" height="3.91"/>
            <rect class="b0935c57-b5c2-4240-9a91-07cce594f289" x="94.883" y="398.41" width="40.589" height="3.861"/>
            <rect class="b0935c57-b5c2-4240-9a91-07cce594f289" x="94.883" y="418.935" width="40.589" height="3.861"/>
            <g>
              <line class="e0ee8315-706a-4b3e-ae3e-80803b2adeb6" x1="158.416" y1="369.754" x2="82.937" y2="369.754"/>
              <line class="e0ee8315-706a-4b3e-ae3e-80803b2adeb6" x1="158.416" y1="390.097" x2="82.937" y2="390.097"/>
              <line class="e0ee8315-706a-4b3e-ae3e-80803b2adeb6" x1="158.416" y1="410.441" x2="82.937" y2="410.441"/>
            </g>
          </g>
        </g>
        <rect class="b0935c57-b5c2-4240-9a91-07cce594f289" x="113.874" y="293.39" width="25.943" height="143.462"/>
        <g>
          <rect class="aa571fc3-bf4e-4a99-84a2-34d126f50716" x="120.678" y="293.154" width="75.481" height="20.525"/>
          <circle class="b1225589-4483-4b33-a8e4-b44c14b75d40" cx="183.923" cy="303.417" r="2.413"/>
          <rect class="aa571fc3-bf4e-4a99-84a2-34d126f50716" x="120.678" y="313.679" width="75.481" height="20.525"/>
          <circle class="b1225589-4483-4b33-a8e4-b44c14b75d40" cx="183.923" cy="323.942" r="2.682"/>
          <rect class="aa571fc3-bf4e-4a99-84a2-34d126f50716" x="120.678" y="334.205" width="75.481" height="20.525"/>
          <circle class="b1225589-4483-4b33-a8e4-b44c14b75d40" cx="183.923" cy="344.468" r="2.682"/>
          <rect class="aa571fc3-bf4e-4a99-84a2-34d126f50716" x="120.678" y="354.73" width="75.481" height="20.525"/>
          <rect class="b1225589-4483-4b33-a8e4-b44c14b75d40" x="132.595" y="301.462" width="41.096" height="3.91"/>
          <rect class="b1225589-4483-4b33-a8e4-b44c14b75d40" x="132.849" y="322.012" width="40.589" height="3.861"/>
          <rect class="b1225589-4483-4b33-a8e4-b44c14b75d40" x="132.849" y="342.537" width="40.589" height="3.861"/>
          <rect class="b1225589-4483-4b33-a8e4-b44c14b75d40" x="132.849" y="363.062" width="40.589" height="3.861"/>
          <circle class="b1225589-4483-4b33-a8e4-b44c14b75d40" cx="183.923" cy="364.993" r="2.682"/>
          <rect class="aa571fc3-bf4e-4a99-84a2-34d126f50716" x="120.678" y="373.586" width="75.481" height="22.279"/>
          <circle class="b1225589-4483-4b33-a8e4-b44c14b75d40" cx="183.923" cy="385.603" r="2.413"/>
          <rect class="aa571fc3-bf4e-4a99-84a2-34d126f50716" x="120.678" y="395.865" width="75.481" height="20.525"/>
          <circle class="b1225589-4483-4b33-a8e4-b44c14b75d40" cx="183.923" cy="406.128" r="2.682"/>
          <rect class="aa571fc3-bf4e-4a99-84a2-34d126f50716" x="120.678" y="416.391" width="75.481" height="20.525"/>
          <circle class="b1225589-4483-4b33-a8e4-b44c14b75d40" cx="183.923" cy="426.654" r="2.682"/>
          <rect class="b1225589-4483-4b33-a8e4-b44c14b75d40" x="132.595" y="383.648" width="41.096" height="3.91"/>
          <rect class="b1225589-4483-4b33-a8e4-b44c14b75d40" x="132.849" y="404.197" width="40.589" height="3.861"/>
          <rect class="b1225589-4483-4b33-a8e4-b44c14b75d40" x="132.849" y="424.723" width="40.589" height="3.861"/>
        </g>
      </g>
      <g class="a6acfe25-4e2b-4b29-ae95-ed46b709cb18">
        <g>
          <g class="a7a0d940-951b-44f8-b418-5e170a21d1a8">
            <g>
              <rect x="82.712" y="348.943" width="75.481" height="22.285"/>
              <rect class="b0935c57-b5c2-4240-9a91-07cce594f289" x="94.883" y="357.275" width="40.589" height="3.861"/>
              <circle class="b0935c57-b5c2-4240-9a91-07cce594f289" cx="145.957" cy="359.205" r="2.682"/>
              <rect x="82.712" y="369.552" width="75.481" height="20.525"/>
              <circle class="b0935c57-b5c2-4240-9a91-07cce594f289" cx="145.957" cy="379.815" r="2.413"/>
              <rect x="82.712" y="390.078" width="75.481" height="20.525"/>
              <circle class="b0935c57-b5c2-4240-9a91-07cce594f289" cx="145.957" cy="400.34" r="2.682"/>
              <rect x="82.712" y="410.603" width="75.481" height="20.525"/>
              <circle class="b0935c57-b5c2-4240-9a91-07cce594f289" cx="145.957" cy="420.866" r="2.682"/>
              <rect class="b0935c57-b5c2-4240-9a91-07cce594f289" x="94.629" y="377.86" width="41.096" height="3.91"/>
              <rect class="b0935c57-b5c2-4240-9a91-07cce594f289" x="94.883" y="398.41" width="40.589" height="3.861"/>
              <rect class="b0935c57-b5c2-4240-9a91-07cce594f289" x="94.883" y="418.935" width="40.589" height="3.861"/>
              <g>
                <line class="e0ee8315-706a-4b3e-ae3e-80803b2adeb6" x1="158.416" y1="369.754" x2="82.937" y2="369.754"/>
                <line class="e0ee8315-706a-4b3e-ae3e-80803b2adeb6" x1="158.416" y1="390.097" x2="82.937" y2="390.097"/>
                <line class="e0ee8315-706a-4b3e-ae3e-80803b2adeb6" x1="158.416" y1="410.441" x2="82.937" y2="410.441"/>
              </g>
            </g>
          </g>
          <rect class="b0935c57-b5c2-4240-9a91-07cce594f289" x="113.874" y="293.39" width="25.943" height="143.462"/>
          <g>
            <rect class="b1225589-4483-4b33-a8e4-b44c14b75d40" x="120.678" y="293.154" width="75.481" height="20.525"/>
            <circle class="b0935c57-b5c2-4240-9a91-07cce594f289" cx="183.923" cy="303.417" r="2.413"/>
            <rect class="b1225589-4483-4b33-a8e4-b44c14b75d40" x="120.678" y="313.679" width="75.481" height="20.525"/>
            <circle class="b0935c57-b5c2-4240-9a91-07cce594f289" cx="183.923" cy="323.942" r="2.682"/>
            <rect class="b1225589-4483-4b33-a8e4-b44c14b75d40" x="120.678" y="334.205" width="75.481" height="20.525"/>
            <circle class="b0935c57-b5c2-4240-9a91-07cce594f289" cx="183.923" cy="344.468" r="2.682"/>
            <rect class="b1225589-4483-4b33-a8e4-b44c14b75d40" x="120.678" y="354.73" width="75.481" height="20.525"/>
            <rect class="b0935c57-b5c2-4240-9a91-07cce594f289" x="132.595" y="301.462" width="41.096" height="3.91"/>
            <rect class="b0935c57-b5c2-4240-9a91-07cce594f289" x="132.849" y="322.012" width="40.589" height="3.861"/>
            <rect class="b0935c57-b5c2-4240-9a91-07cce594f289" x="132.849" y="342.537" width="40.589" height="3.861"/>
            <rect class="b0935c57-b5c2-4240-9a91-07cce594f289" x="132.849" y="363.062" width="40.589" height="3.861"/>
            <circle class="b0935c57-b5c2-4240-9a91-07cce594f289" cx="183.923" cy="364.993" r="2.682"/>
            <rect class="b1225589-4483-4b33-a8e4-b44c14b75d40" x="120.678" y="373.586" width="75.481" height="22.279"/>
            <circle class="b0935c57-b5c2-4240-9a91-07cce594f289" cx="183.923" cy="385.603" r="2.413"/>
            <rect class="b1225589-4483-4b33-a8e4-b44c14b75d40" x="120.678" y="395.865" width="75.481" height="20.525"/>
            <circle class="b0935c57-b5c2-4240-9a91-07cce594f289" cx="183.923" cy="406.128" r="2.682"/>
            <rect class="b1225589-4483-4b33-a8e4-b44c14b75d40" x="120.678" y="416.391" width="75.481" height="20.525"/>
            <circle class="b0935c57-b5c2-4240-9a91-07cce594f289" cx="183.923" cy="426.654" r="2.682"/>
            <rect class="b0935c57-b5c2-4240-9a91-07cce594f289" x="132.595" y="383.648" width="41.096" height="3.91"/>
            <rect class="b0935c57-b5c2-4240-9a91-07cce594f289" x="132.849" y="404.197" width="40.589" height="3.861"/>
            <rect class="b0935c57-b5c2-4240-9a91-07cce594f289" x="132.849" y="424.723" width="40.589" height="3.861"/>
          </g>
        </g>
      </g>
    </g>
    <g>
      <g>
        <path class="aa571fc3-bf4e-4a99-84a2-34d126f50716" d="M513.936,239.333a46.478,46.478,0,0,0-92.543,6.192c0,.062,0,.124,0,.186-.63-.051-1.266-.084-1.91-.084a23.191,23.191,0,0,0,0,46.381c.329,0,.656-.011.981-.025v.025h80.806c.589.038,1.181.064,1.779.064a27.492,27.492,0,0,0,10.882-52.739Z"/>
        <path class="b1225589-4483-4b33-a8e4-b44c14b75d40" d="M503.055,293.156c-.623,0-1.237-.026-1.849-.065l-81.822,0h0a24.275,24.275,0,0,1,.1-48.55c.269,0,.544.006.83.016a47.564,47.564,0,0,1,94.61-5.971,28.576,28.576,0,0,1-11.872,54.569Zm-81.5-2.233h79.721c.635.039,1.2.064,1.78.064a26.408,26.408,0,0,0,10.451-50.658l-.565-.243-.081-.61a45.394,45.394,0,0,0-90.383,6.049l.005,1.362-1.173-.095c-.669-.054-1.265-.08-1.822-.08a22.106,22.106,0,0,0,0,44.211c.314,0,.625-.011.936-.024l1.131-.047Z"/>
      </g>
      <path class="b1225589-4483-4b33-a8e4-b44c14b75d40" d="M477.636,242.9a10.014,10.014,0,1,0-14.544,8.923v9.913a4.53,4.53,0,1,0,9.06,0v-9.913A10.005,10.005,0,0,0,477.636,242.9Z"/>
    </g>
    <g>
      <path class="aa571fc3-bf4e-4a99-84a2-34d126f50716" d="M337.438,187.3a31.424,31.424,0,0,0-31.424-31.424c-.382,0-.761.015-1.14.028a50.349,50.349,0,0,0-47.466-42.252,82.418,82.418,0,0,0-161.266,14.7c-.136,0-.271-.01-.407-.01a45.186,45.186,0,0,0-.246,90.372v.006h211.05v-.013A31.418,31.418,0,0,0,337.438,187.3Z"/>
      <path class="b1225589-4483-4b33-a8e4-b44c14b75d40" d="M306.539,219.813,94.4,219.788a46.271,46.271,0,0,1,.759-92.519,83.5,83.5,0,0,1,163.071-14.657A51.563,51.563,0,0,1,305.785,154.8l.229,0a32.5,32.5,0,0,1,1.61,64.969v.036Zm-209.965-2.17H306.068l.453-.012a30.335,30.335,0,0,0-.507-60.666c-.335,0-.668.012-1,.024l-1.058.038-.152-.947a49.373,49.373,0,0,0-46.442-41.341l-.781-.034-.215-.752A81.332,81.332,0,0,0,97.222,128.464l-.095.988-1.392-.017a44.1,44.1,0,0,0-.24,88.2Z"/>
    </g>
    <g>
      <path class="e0ee8315-706a-4b3e-ae3e-80803b2adeb6" d="M361.709,109.768a159.578,159.578,0,0,1,24.744,17.213"/>
      <path class="aa571fc3-bf4e-4a99-84a2-34d126f50716" d="M426.744,391.786a1.084,1.084,0,0,1-.77-1.849A201.705,201.705,0,0,0,454.1,354.4a1.085,1.085,0,0,1,1.842,1.147,203.884,203.884,0,0,1-28.428,35.922A1.085,1.085,0,0,1,426.744,391.786Z"/>
      <path class="aa571fc3-bf4e-4a99-84a2-34d126f50716" d="M418.582,99.761a1.083,1.083,0,0,1-.726-.278A200.179,200.179,0,0,0,283.669,47.99a1.085,1.085,0,1,1,0-2.169A202.347,202.347,0,0,1,419.307,97.87a1.084,1.084,0,0,1-.725,1.891Z"/>
      <path class="e0ee8315-706a-4b3e-ae3e-80803b2adeb6" d="M468.642,357.528a215.247,215.247,0,0,1-20.231,28.646"/>
      <path class="aa571fc3-bf4e-4a99-84a2-34d126f50716" d="M419.8,357.967a1.086,1.086,0,0,1-.848-1.761c2.846-3.572,5.583-7.3,8.136-11.088a1.085,1.085,0,0,1,1.8,1.213c-2.585,3.833-5.357,7.61-8.238,11.226A1.084,1.084,0,0,1,419.8,357.967Z"/>
      <path class="aa571fc3-bf4e-4a99-84a2-34d126f50716" d="M394.277,115.394a1.085,1.085,0,0,1-.689-.248A173.421,173.421,0,0,0,325.18,80.721a1.085,1.085,0,0,1,.519-2.107,175.615,175.615,0,0,1,69.27,34.858,1.085,1.085,0,0,1-.692,1.922Z"/>
    </g>
    <g>
      <g>
        <g class="b73a92a1-ced7-4002-aa17-b272557f8d5a">
          <g>
            <polygon class="b0be6ae1-e7cc-4849-8ef7-1625cd3e218e" points="485.471 331.829 473.974 325.191 462.477 331.829 473.984 338.472 485.471 331.829"/>
            <polygon class="b4ae4fcb-5cb6-4505-980d-483cf15ba9c4" points="462.428 331.914 462.428 345.189 473.935 351.832 473.935 338.557 462.428 331.914"/>
            <polygon class="b4ae4fcb-5cb6-4505-980d-483cf15ba9c4" points="474.033 351.821 485.52 345.189 485.52 331.914 474.033 338.557 474.033 351.821"/>
            <path class="aa571fc3-bf4e-4a99-84a2-34d126f50716" d="M473.947,338.5l.008-.007Z"/>
            <path class="aa571fc3-bf4e-4a99-84a2-34d126f50716" d="M473.938,338.513l0-.008Z"/>
          </g>
          <g>
            <line class="b4ae4fcb-5cb6-4505-980d-483cf15ba9c4" x1="462.428" y1="331.857" x2="473.984" y2="338.529"/>
            <line class="b4ae4fcb-5cb6-4505-980d-483cf15ba9c4" x1="485.52" y1="331.857" x2="473.984" y2="338.529"/>
          </g>
        </g>
        <g class="af64b944-b660-4dd7-96cc-4ea642920148">
          <g>
            <polygon class="b0be6ae1-e7cc-4849-8ef7-1625cd3e218e" points="464.81 325.186 449.5 316.346 434.189 325.186 449.512 334.033 464.81 325.186"/>
            <polygon class="b4ae4fcb-5cb6-4505-980d-483cf15ba9c4" points="434.124 325.299 434.124 342.978 449.447 351.825 449.447 334.146 434.124 325.299"/>
            <polygon class="b4ae4fcb-5cb6-4505-980d-483cf15ba9c4" points="449.578 351.81 464.875 342.978 464.875 325.299 449.578 334.146 449.578 351.81"/>
            <path class="aa571fc3-bf4e-4a99-84a2-34d126f50716" d="M449.464,334.066l.01-.009Z"/>
            <path class="aa571fc3-bf4e-4a99-84a2-34d126f50716" d="M449.451,334.087l.006-.011Z"/>
          </g>
          <g>
            <line class="b4ae4fcb-5cb6-4505-980d-483cf15ba9c4" x1="434.124" y1="325.224" x2="449.512" y2="334.108"/>
            <line class="b4ae4fcb-5cb6-4505-980d-483cf15ba9c4" x1="464.875" y1="325.224" x2="449.512" y2="334.108"/>
          </g>
        </g>
      </g>
      <g class="b49fa8cf-75b3-478b-8000-47ec38c3c933">
        <g>
          <polygon class="b0be6ae1-e7cc-4849-8ef7-1625cd3e218e" points="441.148 117.216 425.837 108.376 410.527 117.216 425.85 126.063 441.148 117.216"/>
          <polygon class="b0be6ae1-e7cc-4849-8ef7-1625cd3e218e" points="410.461 117.328 410.461 135.008 425.785 143.855 425.785 126.176 410.461 117.328"/>
          <polygon class="b4ae4fcb-5cb6-4505-980d-483cf15ba9c4" points="425.915 143.84 441.213 135.008 441.213 117.328 425.915 126.175 425.915 143.84"/>
          <path class="aa571fc3-bf4e-4a99-84a2-34d126f50716" d="M425.8,126.1l.011-.009Z"/>
          <path class="aa571fc3-bf4e-4a99-84a2-34d126f50716" d="M425.789,126.117l0-.011Z"/>
        </g>
        <g>
          <line class="b4ae4fcb-5cb6-4505-980d-483cf15ba9c4" x1="410.461" y1="117.253" x2="425.85" y2="126.138"/>
          <line class="e0ee8315-706a-4b3e-ae3e-80803b2adeb6" x1="425.85" y1="126.138" x2="425.85" y2="145.098"/>
          <line class="b4ae4fcb-5cb6-4505-980d-483cf15ba9c4" x1="441.213" y1="117.253" x2="425.85" y2="126.138"/>
        </g>
      </g>
      <g>
        <polygon class="b0be6ae1-e7cc-4849-8ef7-1625cd3e218e" points="415.273 126.836 415.273 140.167 403.727 146.833 392.181 140.167 392.181 126.836 403.727 120.17 415.273 126.836"/>
        <g class="bbc502c9-b297-4508-90ca-f13dc3b75eaa">
          <g>
            <polygon class="b0be6ae1-e7cc-4849-8ef7-1625cd3e218e" points="415.224 126.807 403.727 120.17 392.23 126.807 403.737 133.451 415.224 126.807"/>
            <polygon class="b0be6ae1-e7cc-4849-8ef7-1625cd3e218e" points="392.181 126.892 392.181 140.167 403.688 146.811 403.688 133.535 392.181 126.892"/>
            <polygon class="b4ae4fcb-5cb6-4505-980d-483cf15ba9c4" points="403.786 146.799 415.273 140.167 415.273 126.892 403.786 133.535 403.786 146.799"/>
            <path class="aa571fc3-bf4e-4a99-84a2-34d126f50716" d="M403.7,133.475l.008-.007Z"/>
            <path class="aa571fc3-bf4e-4a99-84a2-34d126f50716" d="M403.691,133.491l0-.008Z"/>
          </g>
          <g>
            <line class="b4ae4fcb-5cb6-4505-980d-483cf15ba9c4" x1="392.181" y1="126.836" x2="403.737" y2="133.507"/>
            <line class="b4ae4fcb-5cb6-4505-980d-483cf15ba9c4" x1="415.273" y1="126.836" x2="403.737" y2="133.507"/>
          </g>
        </g>
      </g>
    </g>
    <g>
      <path d="M240.032,373s-4.127,1.769-12.383,1.769A46.944,46.944,0,0,1,214.086,373V357.665h25.946Z"/>
      <path class="b1225589-4483-4b33-a8e4-b44c14b75d40" d="M366.293,473.211c0-5.857-49.483-10.605-123.9-10.605s-134.751,4.748-134.751,10.605c0,4.36,33.424,8.1,81.2,9.734a45.6,45.6,0,0,1,11.668,1.87c8.457,2.563,27.4,4.348,49.416,4.348,22.577,0,41.923-1.877,50.041-4.545a45.928,45.928,0,0,1,12.143-2.329C351.088,480.43,366.293,477.06,366.293,473.211Z"/>
      <g>
        <path d="M268.293,470.244a2.164,2.164,0,0,1-.539-.068c-42.456-10.853-42.369-34.682-42.3-36.441V362.558a2.17,2.17,0,0,1,4.34,0l0,71.34c-.035.88-.432,21.984,39.041,32.074a2.17,2.17,0,0,1-.535,4.272Z"/>
        <path d="M189.181,470.244a2.17,2.17,0,0,1-.594-4.256c.368-.105,36.861-10.771,36.864-32.207a2.17,2.17,0,0,1,2.17-2.168h0a2.17,2.17,0,0,1,2.17,2.169c0,10.359-7.019,19.962-20.291,27.772a94.024,94.024,0,0,1-19.725,8.606A2.146,2.146,0,0,1,189.181,470.244Z"/>
      </g>
      <path class="b0935c57-b5c2-4240-9a91-07cce594f289" d="M388.336,302.805H235.624a1.085,1.085,0,0,1,0-2.17H388.336a1.085,1.085,0,0,1,0,2.17Z"/>
      <path class="b0935c57-b5c2-4240-9a91-07cce594f289" d="M191.394,240.184s-20.751,4.342-20.751,23.86,4.972,17.152,0,40.614-9.993,38.13,17.5,53.6,67.261,9.721,79.016-.59S211.592,241.734,191.394,240.184Z"/>
      <g class="ba4f07c8-7356-45fa-8798-ba2e44793aa0">
        <path d="M199.345,238.55c-8.256-1.179-19.46,8.846-18.28,21.818s5.9,23.588,1.179,44.226c-4.188,18.321-4.013,39.82,12.145,44.382s40.451-1.766,41.573,18.793c0,0,15.864,12.3,28.247,4.048s15.332-31.842.59-41.867S199.345,238.55,199.345,238.55Z"/>
      </g>
      <path class="b1225589-4483-4b33-a8e4-b44c14b75d40" d="M220.38,224.586s-.574,2.039-17.827,7.3c-7.47,2.278-13.8,6.482-14.309,19.424s-.171,42.925,20.272,52.635c14.7,6.983,30.092.068,44.867-4.274l13.092,13.148s-2.524-15.68-1.96-15.774a28.689,28.689,0,0,1,6.35-.425l.237-14.346-7.788.361-.5-6.084,10.269,6.611s16.524-.852,18.057-.852,2.9.341,3.407,1.022a4.606,4.606,0,0,1,5.281.852s2.215-1.192,5.451,1.874l7.5,6.3,3.407-8.006-19.25-8.348s-17.206-16.306-22.316-22.463-17.867-18.421-25.373-20.806S220.38,224.586,220.38,224.586Z"/>
      <path class="f42150b2-e518-4248-b077-01f6811bdefa" d="M259.192,184.264s2.264,8.57,1.861,13.2c-.164,1.882-2.949,4.633-2.508,8.208.118.955,2.445,2.695,2.026,4.49-.325,1.39-2.112.686-2.764,1.156a8.828,8.828,0,0,0-.051,3.882c.057.411-.146.487-.479,1.043l-.595,1.038.428.964a.583.583,0,0,1-.028.513c-1.058,1.98-.858,5.425-1.168,6.576-.919,3.414-2.239,3.612-8.608,3.141a45.927,45.927,0,0,0-2.1,7.351l5.775,4.859s-8.65,12.272-10.766,17.155c-2.544-2.775-12.569-15.748-14.928-16.337s-3.976-11.19-3.976-11.19l-.934-5.723s6.842-5.961,2.379-15.544-5.468-20.547.644-28.314C229.705,172.72,249.74,164.572,259.192,184.264Z"/>
      <path d="M230.5,199.36s.788-3.053,1.477-3.84.4-2.078.492-2.56c.394-1.97,2.3-1.444,3.873-2.757s.788-4.07,2.888-4.464a7.533,7.533,0,0,0,4.07-1.969c.722-.722,1.444-.985,3.151-.46s3.282-2.363,5.186-.656,4,.919,5.316,1.247,2.193,3.041,3.327,2.377,5.618-5.336,3.43-7.043-.626-2.823-2.267-4.4-1.667-3.67-3.5-4.458-2.954.2-4.135,0-1.707-2.429-3.479-2.757-2.757.919-4.464.788-1.378-1.444-3.348-1.51-1.378,1.313-3.478,1.313-2.56-.656-4.267.328-2.232,1.51-3.085,1.641-2.166-.328-3.545.394-1.247,2.888-2.757,3.479-3.61,1.05-4.726,2.3,0,3.15-1.544,4.2a6.151,6.151,0,0,0-3.051,4.135c-.656,2.363.394,2.954,0,5.186s-.788,2.888.46,5.579a81.932,81.932,0,0,1,2.953,8.2c.919,2.691,4.484,7.858,4.549,10.1l1.687-5.636s-5.581-4.669-3.15-10.9C224.662,191.844,229.651,195.52,230.5,199.36Z"/>
      <path class="a26eb2f8-ed0b-450b-a966-0a3288387509" d="M252.526,211.094a.51.51,0,0,1-.109-.011,3.246,3.246,0,0,1-1.435-.645.543.543,0,1,1,.768-.767,2.4,2.4,0,0,0,.884.349.543.543,0,0,1-.108,1.074Z"/>
      <path d="M254.18,194.081l.111.077.027.021c.024.031-.044-.066.164.166a.881.881,0,0,1,.06.971.726.726,0,0,1-.308.307.949.949,0,0,1-.582.11l-.061-.012-.1-.024-.221-.067-.387-.123-.76-.224q-.762-.21-1.538-.357a16.034,16.034,0,0,0-3.135-.292,11.12,11.12,0,0,0-5.983,1.7.354.354,0,0,1-.49-.1.359.359,0,0,1,.083-.477,11.336,11.336,0,0,1,2.99-1.617,13.335,13.335,0,0,1,3.338-.719,17.52,17.52,0,0,1,3.412.05q.847.093,1.686.255l.831.176.4.095.176.039,0,0h-.011a.8.8,0,0,0-.532.11.935.935,0,0,0-.3.3.846.846,0,0,0,.046.95l.151.155.026.02a.865.865,0,1,1,.9-1.48Z"/>
      <path d="M248.882,207.864a22.988,22.988,0,0,1-6.329-.818.544.544,0,0,1-.3-.212c-1.9-2.737-1.976-8.3-1.976-9.131l-10.357-.034a.542.542,0,0,1-.54-.545.519.519,0,0,1,.544-.54l10.9.04c.332-.046,9.824-1.231,14.1.439a.546.546,0,0,1,.343.453,20.833,20.833,0,0,1-1.872,9.768.542.542,0,0,1-.46.316h-.053l-.2.024A31.047,31.047,0,0,1,248.882,207.864Zm-5.84-1.808a24.617,24.617,0,0,0,9.493.494,20.4,20.4,0,0,0,1.671-8.593c-3.629-1.208-10.915-.518-12.84-.307C241.366,198.12,241.4,203.475,243.042,206.056Z"/>
      <path d="M260.242,207.664a3.743,3.743,0,0,1-1.077-.147l.312-1.039a4.958,4.958,0,0,0,2.878-.353,16.232,16.232,0,0,0,1.823-7.341,14.121,14.121,0,0,0-5.727-.236l-.185-1.068c.161-.029,3.979-.673,6.652.423a.543.543,0,0,1,.335.468,16.885,16.885,0,0,1-2.038,8.444.557.557,0,0,1-.248.23A7.383,7.383,0,0,1,260.242,207.664Z"/>
      <path d="M259.239,195.738a4.07,4.07,0,0,1,.771-.115,4.651,4.651,0,0,1,.746.016,2.9,2.9,0,0,1,1.416.519.356.356,0,0,1-.31.627l-.032-.009a1.975,1.975,0,0,0-1.032.006,3.31,3.31,0,0,0-.508.174,2.343,2.343,0,0,0-.443.241.818.818,0,0,1-1.015-1.282.8.8,0,0,1,.3-.149Z"/>
      <path class="b4ae4fcb-5cb6-4505-980d-483cf15ba9c4" d="M220.38,224a25.714,25.714,0,0,0,3.731,11.606c4.717,7.666,16.511,22.408,16.511,22.408l-.59.589s-7.234-10.33-11.793-12.972a24.539,24.539,0,0,0-14.14-3.488l3.526-16.561Z"/>
      <path class="b1225589-4483-4b33-a8e4-b44c14b75d40" d="M190.717,279.6s-.392,27.523-1.536,34.765-3.815,17.394-3.815,17.394l24.444-27.823S196.627,300.941,190.717,279.6Z"/>
      <path class="f42150b2-e518-4248-b077-01f6811bdefa" d="M270.865,282.994s18.291-.909,20.272-.682a10.055,10.055,0,0,1,3.407,1.022,5.864,5.864,0,0,1,5.281.852s2.547-.568,5.451,1.874l7.5,6.3L311.3,295.44l-5.457-2.989,2.6,4.548H294.407s-10.264-4.028-14.941-4.288a30.756,30.756,0,0,0-8.6.78Z"/>
      <path class="a26eb2f8-ed0b-450b-a966-0a3288387509" d="M299.741,297.541a.546.546,0,0,1-.342-.121c-.063-.052-6.351-5.172-9.577-8.4a7.859,7.859,0,0,0-6.605-2.373.543.543,0,0,1-.2-1.067,8.952,8.952,0,0,1,7.572,2.673c3.185,3.186,9.43,8.271,9.493,8.322a.542.542,0,0,1-.342.963Z"/>
      <path class="a26eb2f8-ed0b-450b-a966-0a3288387509" d="M302.333,297.541a.538.538,0,0,1-.414-.192c-.052-.061-5.138-6.09-8.126-9.964-2.8-3.627-6.169-3.626-6.34-3.609a.58.58,0,0,1-.552-.532.54.54,0,0,1,.529-.552,9.45,9.45,0,0,1,7.222,4.031c2.974,3.855,8.044,9.866,8.1,9.926a.543.543,0,0,1-.414.892Z"/>
      <path class="a26eb2f8-ed0b-450b-a966-0a3288387509" d="M303.462,297.129a4.5,4.5,0,0,1-3.367-1.96.542.542,0,0,1,.837-.689,3.5,3.5,0,0,0,2.531,1.564h.034a2.4,2.4,0,0,0,1.483-.624c-1.373-1.494-6.473-7.049-9.26-10.124a6.934,6.934,0,0,0-5.921-2.552c-.645.072-1.3.1-1.848.117l-5.15.162h-.017a.543.543,0,0,1-.017-1.085l5.15-.162c.53-.017,1.155-.043,1.761-.111a8.01,8.01,0,0,1,6.846,2.9c3.239,3.573,9.6,10.5,9.6,10.5l.307.336-.276.361a3.687,3.687,0,0,1-2.642,1.367Z"/>
      <path class="a26eb2f8-ed0b-450b-a966-0a3288387509" d="M308.439,297.541a.54.54,0,0,1-.439-.224c-.212-.294-5.214-7.227-7.22-11.015-1.787-3.376-5.939-2.478-6.115-2.439a.542.542,0,0,1-.243-1.057c.052-.012,5.136-1.131,7.317,2.988,1.97,3.722,7.088,10.816,7.14,10.887a.543.543,0,0,1-.44.86Z"/>
      <path class="a26eb2f8-ed0b-450b-a966-0a3288387509" d="M312.772,292.9a.54.54,0,0,1-.348-.127c-.065-.054-6.455-5.428-8.617-7.327a3.494,3.494,0,0,0-3.746-.776.543.543,0,0,1-.475-.976,4.563,4.563,0,0,1,4.935.936c2.155,1.893,8.536,7.259,8.6,7.313a.542.542,0,0,1-.349.957Z"/>
      <path class="e527c2ed-55b3-4a4e-979f-26c6d5a7173b" d="M301.544,352.927l-6.12-6.824L282.96,360.8a103.46,103.46,0,0,1,8.3,7.932C296.425,365.2,298.8,358.514,301.544,352.927Z"/>
      <path class="b0935c57-b5c2-4240-9a91-07cce594f289" d="M325.425,372.675a34.546,34.546,0,0,1-14.449-9.231l-9.432-10.517c-2.744,5.587-6.456,10.932-11.626,14.469,2.759,2.907,3,3.716,3,3.716s.2,13,3.813,15.61,10.836,4.215,16.044,3.813,14.66,4.817,19.877,5.419,19.265,0,20.068-8.83S334.857,375.886,325.425,372.675Z"/>
      <path class="b4ae4fcb-5cb6-4505-980d-483cf15ba9c4" d="M288.582,366.06s8.465-4.9,12.91-13.191l6.948,7.747s-2.524-2.454-2.712,3.893-3.582,7.739-5.987,7.739-4.036-2.037-6.826-1.136A43.155,43.155,0,0,0,288.582,366.06Z"/>
      <path class="b4ae4fcb-5cb6-4505-980d-483cf15ba9c4" d="M294.2,381.763s6.976,4.5,15.076,3.824,10.8,1.1,13.5,2.657,18.714,8.853,29.944-1.12c0,0-.92,8.564-14.251,9s-16.3-5.236-23.807-5.523-12.59-.548-17.931-3.877C296.728,386.722,294.932,385.615,294.2,381.763Z"/>
      <path class="aa571fc3-bf4e-4a99-84a2-34d126f50716" d="M316.968,376.484a1.085,1.085,0,0,1-.943-1.621l2.919-5.136a1.085,1.085,0,0,1,1.887,1.073l-2.919,5.135A1.084,1.084,0,0,1,316.968,376.484Z"/>
      <path class="aa571fc3-bf4e-4a99-84a2-34d126f50716" d="M323.456,379.051a1.07,1.07,0,0,1-.535-.142,1.084,1.084,0,0,1-.407-1.479l2.918-5.135a1.085,1.085,0,0,1,1.887,1.072L324.4,378.5A1.085,1.085,0,0,1,323.456,379.051Z"/>
      <path class="e527c2ed-55b3-4a4e-979f-26c6d5a7173b" d="M272.573,439.519c.965-5.11,2.115-9.785,2.115-9.785l-22.041-3.814a48.632,48.632,0,0,0-.987,12.041C256.947,446.705,257.393,444.923,272.573,439.519Z"/>
      <path class="b0935c57-b5c2-4240-9a91-07cce594f289" d="M290.861,466.157c-11.062-2.384-18.692-10.173-19.487-14.942a20.324,20.324,0,0,1,.137-4.984c.239-2.074-19.925-1.837-20.289,1.03A40.117,40.117,0,0,1,248.007,459c-2.7,5.881-3.974,8.9-2.385,13.67a27.21,27.21,0,0,0,14.943,3.5c8.742-.477,9.219,2.544,19.869,4.292s17.645,1.431,19.234-2.225S301.924,468.541,290.861,466.157Z"/>
      <path class="b4ae4fcb-5cb6-4505-980d-483cf15ba9c4" d="M251.648,437.6s11.092,4.645,21.1,1.509a80.488,80.488,0,0,0-1.37,12.1s-3.525-2.8-6.014,2.864c-1,2.264-3.426,3.7-8.665.2-2.485-1.659-5.559-.714-6.712-.738C249.983,453.538,251.617,441.673,251.648,437.6Z"/>
      <path class="b4ae4fcb-5cb6-4505-980d-483cf15ba9c4" d="M245.1,466.775s1.084,4.8,13.273,4.51,14.076,2.9,20.316,4.789,18.634,3.817,21.8-.7c0,0,1.819,10.811-24.79,4.088,0,0-7.724-3.626-15.135-3.288a28.21,28.21,0,0,1-14.943-3.5S244.619,468.71,245.1,466.775Z"/>
      <path class="aa571fc3-bf4e-4a99-84a2-34d126f50716" d="M274.106,465.4a1.085,1.085,0,0,1-.754-1.865l4.247-4.107a1.085,1.085,0,0,1,1.507,1.56l-4.246,4.106A1.079,1.079,0,0,1,274.106,465.4Z"/>
      <path class="aa571fc3-bf4e-4a99-84a2-34d126f50716" d="M280.536,468.81a1.085,1.085,0,0,1-.754-1.864l4.246-4.107a1.084,1.084,0,0,1,1.508,1.559l-4.246,4.107A1.08,1.08,0,0,1,280.536,468.81Z"/>
      <path d="M257.351,346.1s4.932,6.011-.538,29.67-12.838,38.65-12.681,51.583c0,0,4.023,3.619,14.152,5.982,13.367,3.119,20.05-.445,20.187-.1,0,0,1.918-20.686,5.472-33.564s5.15-33.279,5.15-33.279-4.062-5.706-6.133-5.59c-.825.046-6.612,7.557-6.612,7.557Z"/>
      <path class="aa571fc3-bf4e-4a99-84a2-34d126f50716" d="M215.439,286.851c-3.382,0-5.378-.04-5.45-.042a1.085,1.085,0,0,1-1.061-1.108,1.1,1.1,0,0,1,1.108-1.061,444.136,444.136,0,0,0,53.15-2.49,1.084,1.084,0,1,1,.254,2.154A436.6,436.6,0,0,1,215.439,286.851Z"/>
      <path class="aa571fc3-bf4e-4a99-84a2-34d126f50716" d="M214.262,286.684a1.085,1.085,0,0,1-1.073-.926s-1.055-7.149-2.1-14.307c-.521-3.58-1.038-7.162-1.418-9.853-.735-5.2-.735-5.2-.071-5.593l1.062,1.892-.51-.957,1.081-.015c.056.936,2.482,17.566,4.1,28.516a1.085,1.085,0,0,1-.915,1.232A1.238,1.238,0,0,1,214.262,286.684Z"/>
      <path d="M260.789,254.572s3.53,12.742,8.253,18.6c7.334,9.1,13.918,9.286,13.918,9.286l-9.871.445-2.224.088v-1.256l-8.054-5.185S260.584,261.092,260.789,254.572Z"/>
      <path d="M289.093,352.869s-4.018,12.366,13.146,18.658c-2.169,15.131,5.434,18.658,5.434,18.658s-7.7-.744-10.945-3.463c-4.244-3.557-3.813-15.61-3.813-15.61s-5.709-7.6-9.955-10.311Z"/>
      <polygon points="268.291 296.586 270.865 301.13 361.836 301.13 382.876 251.555 328.725 251.555 310.341 296.999 268.291 296.586"/>
      <path class="a26eb2f8-ed0b-450b-a966-0a3288387509" d="M229.652,210.306a.563.563,0,0,1-.1-.009c-.2-.038-4.925-.99-7.674-7.277a7.035,7.035,0,0,1,.56-6.887,4,4,0,0,1,3.679-1.788c1.893.213,3.628,1.917,4.884,4.8a.542.542,0,1,1-.994.433c-1.095-2.51-2.52-3.985-4.011-4.153a2.948,2.948,0,0,0-2.684,1.353,5.941,5.941,0,0,0-.44,5.81c2.508,5.734,6.7,6.61,6.881,6.645a.542.542,0,0,1-.1,1.075Z"/>
      <path d="M243.361,200.836a.542.542,0,0,1-.154-1.062,20.468,20.468,0,0,1,8.929-.2.542.542,0,1,1-.2,1.065,19.718,19.718,0,0,0-8.416.174A.558.558,0,0,1,243.361,200.836Z"/>
      <path d="M260.773,201.524a1.084,1.084,0,0,1-.245-.028,10.694,10.694,0,0,0-2.475-.305,1.049,1.049,0,0,1-1.12-1.048,1.083,1.083,0,0,1,1.042-1.12,12.581,12.581,0,0,1,3.041.359,1.085,1.085,0,0,1-.243,2.142Z"/>
      <path d="M250.45,200.4a1.53,1.53,0,1,1-2.641-1.052,2.846,2.846,0,0,1,2.391.213A1.525,1.525,0,0,1,250.45,200.4Z"/>
      <path d="M258.015,201.583a1.526,1.526,0,0,0,.827,1.352,22.3,22.3,0,0,1,.987-2.641C258.3,200.011,258.015,200.874,258.015,201.583Z"/>
      <circle cx="259.028" cy="201.598" r="1.39"/>
      <path class="a26eb2f8-ed0b-450b-a966-0a3288387509" d="M231.261,220.968s7.66,6.005,16.045,7.5A22.291,22.291,0,0,0,246,232.738c-.162,1.065-1.245,8.761-1.245,8.761s.494-6.758-3.485-10.632C235.435,225.191,231.261,220.968,231.261,220.968Z"/>
      <path d="M222.268,347.742s28.1-3.062,36.878,4.433l-.556-3.05-17.918-19.406Z"/>
      <path d="M184.857,328.722a8.026,8.026,0,0,1,2.3-4.109c3.681-3.523,13.212-12.652,25.252-24.228,15.537-14.94,22.168-19.869,28.264-13.894s36.391,39.7,59.069,54.576c0,0,.172,4.384-6.608,12.906s-16.785,14.385-16.785,14.385l-35.676-38.639-18.4,18.023s-15.369.691-21.214,1.792C193.347,350.987,181.477,344.485,184.857,328.722Z"/>
      <path d="M259.228,198.3a12.475,12.475,0,0,0-.675,3.337c-.044.578-.058,1.163-.051,1.75,0,.294.013.589.032.883a1.01,1.01,0,0,1-.25.945.925.925,0,0,1-.546-.839c-.061-.3-.111-.61-.155-.918a13.323,13.323,0,0,1-.122-1.866,9.02,9.02,0,0,1,.77-3.719.543.543,0,0,1,1,.41Z"/>
      <path class="a26eb2f8-ed0b-450b-a966-0a3288387509" d="M256.8,211.91a7.943,7.943,0,0,1-3.375-.548.543.543,0,1,1,.5-.965,9.291,9.291,0,0,0,4.553.337c.532-.055,1.2-.194,1.381-.543.327-.638-.634-2.316-1.564-3.939-2.673-4.662-1.623-7.535-1.577-7.655a.542.542,0,0,1,1.014.385c-.014.042-.881,2.571,1.5,6.731,1.268,2.212,2.184,3.811,1.588,4.973a2.581,2.581,0,0,1-2.234,1.127A17.271,17.271,0,0,1,256.8,211.91Z"/>
      <path class="a26eb2f8-ed0b-450b-a966-0a3288387509" d="M255.746,217.881a16.227,16.227,0,0,1-6.022-1.333.542.542,0,1,1,.408-1c3.973,1.612,6.43,1.2,6.453,1.2a.542.542,0,0,1,.195,1.067A6.163,6.163,0,0,1,255.746,217.881Z"/>
      <path class="b4ae4fcb-5cb6-4505-980d-483cf15ba9c4" d="M246.827,229.717s3.474,4.012,5.207,6.171,5.689,6.2,5.689,6.2-5.2.386-10.706,5.625a21.807,21.807,0,0,0-6.395,10.886h-.59s4.414-17.01,4.934-22.222A22.125,22.125,0,0,1,246.827,229.717Z"/>
      <path d="M190.717,279.6s2.161,11.645,9.35,17.867,9.038,6.482,9.038,6.482l-9.489,8.633s-7.567-2.171-9.956-23.974C189.365,285.913,190.891,282.922,190.717,279.6Z"/>
      <path d="M258.105,199.83c-1.951-1.029-2.964-.126-3.005-.087l-.754-.779c.064-.062,1.583-1.51,4.265-.093Z"/>
      <path class="e0ee8315-706a-4b3e-ae3e-80803b2adeb6" d="M233.01,260.368H218.268l1.514,11.35a7.306,7.306,0,0,0,7.242,6.341h0a7.306,7.306,0,0,0,7.242-8.272Z"/>
    </g>
    <g class="afeab3ae-4e0e-4dce-8132-708d30f9095a">
      <g>
        <polygon class="b0be6ae1-e7cc-4849-8ef7-1625cd3e218e" points="102.751 162.633 91.254 155.996 79.757 162.633 91.264 169.277 102.751 162.633"/>
        <polygon class="b0be6ae1-e7cc-4849-8ef7-1625cd3e218e" points="79.708 162.718 79.708 175.993 91.215 182.637 91.215 169.361 79.708 162.718"/>
        <polygon class="b4ae4fcb-5cb6-4505-980d-483cf15ba9c4" points="91.313 182.625 102.8 175.993 102.8 162.718 91.313 169.361 91.313 182.625"/>
        <path class="aa571fc3-bf4e-4a99-84a2-34d126f50716" d="M91.227,169.3l.008-.007Z"/>
        <path class="aa571fc3-bf4e-4a99-84a2-34d126f50716" d="M91.218,169.317l0-.008Z"/>
      </g>
      <g>
        <line class="b4ae4fcb-5cb6-4505-980d-483cf15ba9c4" x1="79.708" y1="162.662" x2="91.264" y2="169.333"/>
        <line class="e0ee8315-706a-4b3e-ae3e-80803b2adeb6" x1="91.264" y1="169.333" x2="91.264" y2="183.57"/>
        <line class="b4ae4fcb-5cb6-4505-980d-483cf15ba9c4" x1="102.8" y1="162.662" x2="91.264" y2="169.333"/>
      </g>
    </g>
    <path class="b4ae4fcb-5cb6-4505-980d-483cf15ba9c4" d="M99.941,289.691a1.084,1.084,0,0,1-1.06-.86,189.319,189.319,0,0,1-3.311-56.846,192.448,192.448,0,0,1,2.786-19.372,1.085,1.085,0,0,1,2.129.418,190.476,190.476,0,0,0-2.755,19.153A187.2,187.2,0,0,0,101,288.38a1.087,1.087,0,0,1-1.062,1.311Z"/>
    <path class="aa571fc3-bf4e-4a99-84a2-34d126f50716" d="M83.238,272.155a1.086,1.086,0,0,1-1.077-.965,206,206,0,0,1-1.247-22.615,203.739,203.739,0,0,1,5.535-47.249,1.085,1.085,0,1,1,2.11.5,201.589,201.589,0,0,0-5.475,46.745,203.845,203.845,0,0,0,1.233,22.375,1.085,1.085,0,0,1-.958,1.2A.993.993,0,0,1,83.238,272.155Z"/>
    <path class="e0ee8315-706a-4b3e-ae3e-80803b2adeb6" d="M69.588,232.926a213.717,213.717,0,0,1,9.749-50.267"/>
    <path class="aa571fc3-bf4e-4a99-84a2-34d126f50716" d="M110.6,232.031a1.012,1.012,0,0,1-.11,0,1.085,1.085,0,0,1-.971-1.188,175.329,175.329,0,0,1,4.015-23.568,1.085,1.085,0,0,1,2.109.51,173.089,173.089,0,0,0-3.965,23.275A1.085,1.085,0,0,1,110.6,232.031Z"/>
    <g class="b4c18d04-d8ca-489e-83ac-eb934d133bb9">
      <g>
        <polygon class="b0be6ae1-e7cc-4849-8ef7-1625cd3e218e" points="120.419 180.757 105.109 171.917 89.798 180.756 105.121 189.603 120.419 180.757"/>
        <polygon class="b0be6ae1-e7cc-4849-8ef7-1625cd3e218e" points="89.733 180.869 89.733 198.549 105.056 207.395 105.056 189.716 89.733 180.869"/>
        <polygon class="b4ae4fcb-5cb6-4505-980d-483cf15ba9c4" points="105.187 207.381 120.484 198.549 120.484 180.869 105.187 189.716 105.187 207.381"/>
        <path class="aa571fc3-bf4e-4a99-84a2-34d126f50716" d="M105.073,189.637l.01-.01Z"/>
        <path class="aa571fc3-bf4e-4a99-84a2-34d126f50716" d="M105.06,189.658l.006-.012Z"/>
      </g>
      <g>
        <line class="e0ee8315-706a-4b3e-ae3e-80803b2adeb6" x1="89.733" y1="180.794" x2="105.121" y2="189.679"/>
        <line class="e0ee8315-706a-4b3e-ae3e-80803b2adeb6" x1="120.484" y1="180.794" x2="105.121" y2="189.679"/>
      </g>
    </g>
    <path class="b4ae4fcb-5cb6-4505-980d-483cf15ba9c4" d="M312.244,436.628a1.085,1.085,0,0,1-.16-2.158,187.764,187.764,0,0,0,127.009-80.107,1.085,1.085,0,0,1,1.795,1.219,189.939,189.939,0,0,1-128.482,81.033A.992.992,0,0,1,312.244,436.628Z"/>
  </g>
</svg>
