<svg id="a5ca78fe-e622-45d4-9f9a-cb8ee3506e09" data-name="Layer 1" xmlns="http://www.w3.org/2000/svg" viewBox="0 0 262 180">
  <defs>
    <style>
      .bbad94b6-c6a8-48e5-8522-16d87fa5c6e2 {
        fill: #e00;
      }

      .a7269ac7-f0b3-42b2-8791-6c330801912b {
        fill: red;
      }

      .b543dcfb-267e-49c7-bffe-bd4f0d7fca08 {
        fill: #fadfdf;
      }

      .ada17b70-6d6e-4a26-95d0-8734182daf70 {
        fill: #fff;
      }

      .f8cca751-e481-46fb-9856-cec0517b3bdd {
        fill: #fddbdb;
      }

      .b21b5945-f613-4c5c-a5fb-0785f7936be1 {
        fill: #f56d6d;
      }

      .bc632102-3c04-47dd-88a0-3b9c96778a97 {
        fill: #fab6b6;
      }
    </style>
  </defs>
  <g>
    <path class="bbad94b6-c6a8-48e5-8522-16d87fa5c6e2" d="M90.986,119.126a5.915,5.915,0,1,1,5.914-5.915A5.922,5.922,0,0,1,90.986,119.126Zm0-10.037a4.123,4.123,0,1,0,4.122,4.122A4.127,4.127,0,0,0,90.986,109.089Z"/>
    <path class="bbad94b6-c6a8-48e5-8522-16d87fa5c6e2" d="M98.155,134.9a5.915,5.915,0,1,1,5.914-5.915A5.922,5.922,0,0,1,98.155,134.9Zm0-10.037a4.122,4.122,0,1,0,4.122,4.122A4.127,4.127,0,0,0,98.155,124.861Z"/>
    <path class="bbad94b6-c6a8-48e5-8522-16d87fa5c6e2" d="M112.493,119.126a5.915,5.915,0,1,1,5.914-5.915A5.922,5.922,0,0,1,112.493,119.126Zm0-10.037a4.123,4.123,0,1,0,4.122,4.122A4.127,4.127,0,0,0,112.493,109.089Z"/>
    <path class="bbad94b6-c6a8-48e5-8522-16d87fa5c6e2" d="M80.232,119.126a.9.9,0,0,1-.9-.9V108.193a.9.9,0,0,1,1.792,0V118.23A.9.9,0,0,1,80.232,119.126Z"/>
    <path class="bbad94b6-c6a8-48e5-8522-16d87fa5c6e2" d="M80.232,134.9a.9.9,0,0,1-.9-.9V123.965a.9.9,0,0,1,1.792,0V134A.9.9,0,0,1,80.232,134.9Z"/>
    <path class="bbad94b6-c6a8-48e5-8522-16d87fa5c6e2" d="M87.4,134.9a.9.9,0,0,1-.9-.9V123.965a.9.9,0,1,1,1.792,0V134A.9.9,0,0,1,87.4,134.9Z"/>
    <path class="bbad94b6-c6a8-48e5-8522-16d87fa5c6e2" d="M108.908,134.9a.9.9,0,0,1-.9-.9V123.965a.9.9,0,0,1,1.793,0V134A.9.9,0,0,1,108.908,134.9Z"/>
    <path class="bbad94b6-c6a8-48e5-8522-16d87fa5c6e2" d="M116.077,134.9a.9.9,0,0,1-.9-.9V123.965a.9.9,0,0,1,1.793,0V134A.9.9,0,0,1,116.077,134.9Z"/>
    <path class="bbad94b6-c6a8-48e5-8522-16d87fa5c6e2" d="M101.739,119.126a.9.9,0,0,1-.9-.9V108.193a.9.9,0,0,1,1.793,0V118.23A.9.9,0,0,1,101.739,119.126Z"/>
    <path class="bbad94b6-c6a8-48e5-8522-16d87fa5c6e2" d="M170.562,70.95H152.639a10.216,10.216,0,0,1,0-20.431,9.833,9.833,0,0,1,1.2.075,13.082,13.082,0,0,1,24.789,5.839v.034a7.38,7.38,0,0,1,5.312,4.683.9.9,0,1,1-1.688.6A5.582,5.582,0,0,0,177.6,58.11a.9.9,0,0,1-.8-.949l.012-.184c.013-.18.027-.36.027-.544a11.29,11.29,0,0,0-21.647-4.495.9.9,0,0,1-.987.524,8.533,8.533,0,0,0-1.562-.151,8.424,8.424,0,0,0,0,16.847h17.923a.9.9,0,1,1,0,1.792Z"/>
    <g>
      <path class="bbad94b6-c6a8-48e5-8522-16d87fa5c6e2" d="M174.863,65.234l4.3-.915,4.3.915v4.951a4.3,4.3,0,0,1-8.6,0Z"/>
      <path class="bbad94b6-c6a8-48e5-8522-16d87fa5c6e2" d="M179.165,75.383a5.2,5.2,0,0,1-5.2-5.2V65.233a.9.9,0,0,1,.71-.876l4.3-.915a.9.9,0,0,1,.372,0l4.3.915a.894.894,0,0,1,.71.876v4.952A5.2,5.2,0,0,1,179.165,75.383Zm-3.406-9.424v4.226a3.406,3.406,0,0,0,6.811,0V65.959l-3.405-.724Z"/>
    </g>
    <path class="bbad94b6-c6a8-48e5-8522-16d87fa5c6e2" d="M111.31,78.119H88.118a10.216,10.216,0,1,1,0-20.431,9.833,9.833,0,0,1,1.2.075,13.087,13.087,0,0,1,6.316-6.085.9.9,0,1,1,.739,1.633,11.292,11.292,0,0,0-5.7,5.8.9.9,0,0,1-.988.524,8.421,8.421,0,1,0-1.561,16.7H111.31a.9.9,0,1,1,0,1.792Z"/>
    <g>
      <path class="bbad94b6-c6a8-48e5-8522-16d87fa5c6e2" d="M111.489,78.119a.9.9,0,1,1,0-1.792,5.538,5.538,0,0,0,.583-11.048.9.9,0,0,1-.8-.949l.012-.184c.013-.18.027-.36.027-.544A11.242,11.242,0,0,0,106,54.021a.9.9,0,1,1,.949-1.519A13.022,13.022,0,0,1,113.1,63.6v.032a7.33,7.33,0,0,1-1.613,14.485Z"/>
      <path class="bbad94b6-c6a8-48e5-8522-16d87fa5c6e2" d="M114.417,65.949a.9.9,0,0,1-.409-1.694,5.536,5.536,0,0,0-1.936-10.447.9.9,0,0,1-.8-.948l.012-.184c.013-.18.027-.361.027-.544a11.29,11.29,0,0,0-21.647-4.495.894.894,0,0,1-.987.524,8.537,8.537,0,0,0-1.562-.152,8.434,8.434,0,0,0-8.423,8.424,8.343,8.343,0,0,0,1.782,5.185.9.9,0,0,1-1.411,1.1A10.107,10.107,0,0,1,76.9,56.433,10.227,10.227,0,0,1,87.114,46.217a9.833,9.833,0,0,1,1.2.075,13.082,13.082,0,0,1,24.789,5.84v.032a7.327,7.327,0,0,1,1.721,13.687A.9.9,0,0,1,114.417,65.949Z"/>
      <path class="bbad94b6-c6a8-48e5-8522-16d87fa5c6e2" d="M100.736,59.48a.9.9,0,0,1-.9-.9V45.68a.9.9,0,1,1,1.793,0v12.9A.9.9,0,0,1,100.736,59.48Z"/>
      <path class="bbad94b6-c6a8-48e5-8522-16d87fa5c6e2" d="M103.6,49.443a.894.894,0,0,1-.634-.262l-2.233-2.234L98.5,49.181a.9.9,0,0,1-1.268-1.267l2.867-2.868a.9.9,0,0,1,1.269,0l2.867,2.868a.9.9,0,0,1-.634,1.529Z"/>
    </g>
    <g>
      <g>
        <path class="a7269ac7-f0b3-42b2-8791-6c330801912b" d="M155.69,124.47a13.359,13.359,0,0,1-13.057-16.3.14.14,0,0,1,.273.062,13.083,13.083,0,0,0,19.585,14.043.141.141,0,0,1,.192.047.139.139,0,0,1-.045.192A13.29,13.29,0,0,1,155.69,124.47Z"/>
        <path class="a7269ac7-f0b3-42b2-8791-6c330801912b" d="M144.273,104.537a.134.134,0,0,1-.07-.019.139.139,0,0,1-.05-.191,13.364,13.364,0,0,1,22.916-.185.139.139,0,0,1-.046.191.14.14,0,0,1-.192-.046,13.089,13.089,0,0,0-22.438.181A.136.136,0,0,1,144.273,104.537Z"/>
        <circle class="a7269ac7-f0b3-42b2-8791-6c330801912b" cx="144.251" cy="104.448" r="0.401"/>
        <circle class="a7269ac7-f0b3-42b2-8791-6c330801912b" cx="142.821" cy="108.117" r="0.401"/>
        <path class="a7269ac7-f0b3-42b2-8791-6c330801912b" d="M173.445,142.2A13.275,13.275,0,0,1,164,138.289a.138.138,0,0,1,0-.2.14.14,0,0,1,.2,0,13.083,13.083,0,1,0,0-18.5.14.14,0,0,1-.2-.2,13.362,13.362,0,1,1,9.448,22.812Z"/>
        <path class="b543dcfb-267e-49c7-bffe-bd4f0d7fca08" d="M172.723,99.4c6.861,1.443,6.653,6.906,9.9,8.845,2.6,1.555,5.732,5,5.732,7.914,0,6.285-5.822,8.992-6.84,12.5-.852,2.931-1.066,5.684-3.352,8.059a9.106,9.106,0,0,1-7.583,2.791c-4.065-.555-6.343-3.432-10.58-3.793a39.7,39.7,0,0,1-6.014-.671,27.883,27.883,0,0,1-5.944-2.151c-3.828-2.074-6.9-6.715-6.168-11.457.722-4.653,4.559-8.1,8.4-9.883a26.242,26.242,0,0,0,4.325-2.185,33.253,33.253,0,0,0,3.842-3.822C162.57,101.42,167.38,98.277,172.723,99.4Z"/>
        <path class="ada17b70-6d6e-4a26-95d0-8734182daf70" d="M155.69,124.476a13.37,13.37,0,0,1-11.428-6.394c-.229-.373-.44-.759-.627-1.146a.144.144,0,0,1,.067-.194.146.146,0,0,1,.194.067c.184.379.391.756.614,1.122a13.093,13.093,0,0,0,17.978,4.337.146.146,0,0,1,.153.249A13.3,13.3,0,0,1,155.69,124.476Z"/>
        <path class="ada17b70-6d6e-4a26-95d0-8734182daf70" d="M185.354,123.232a.145.145,0,0,1-.13-.082,13.082,13.082,0,0,0-21.026-3.556.145.145,0,0,1-.205-.206,13.377,13.377,0,0,1,21.492,3.635.145.145,0,0,1-.067.194A.146.146,0,0,1,185.354,123.232Z"/>
        <g>
          <g>
            <rect class="ada17b70-6d6e-4a26-95d0-8734182daf70" x="173.295" y="127.772" width="13.878" height="12.705"/>
            <circle cx="183.886" cy="129.104" r="0.442"/>
            <circle cx="185.599" cy="129.104" r="0.442"/>
          </g>
          <path d="M185.382,131.415H175.153a.107.107,0,1,1,0-.213h10.229a.107.107,0,1,1,0,.213Z"/>
        </g>
        <g>
          <path class="ada17b70-6d6e-4a26-95d0-8734182daf70" d="M163.709,107.607a3.3,3.3,0,0,1,1.166.211,4.743,4.743,0,0,1,3.943-2.49,7.147,7.147,0,0,1,13.112-.943,5.407,5.407,0,1,1,1.565,10.583H164c-2.521,0-3.6-2.216-3.6-4.047A3.315,3.315,0,0,1,163.709,107.607Z"/>
          <path class="f8cca751-e481-46fb-9856-cec0517b3bdd" d="M183.5,115.057H164a3.382,3.382,0,0,1-2.818-1.373,4.685,4.685,0,0,1-.874-2.763,3.406,3.406,0,0,1,4.528-3.213,4.865,4.865,0,0,1,3.92-2.466,7.234,7.234,0,0,1,13.22-.963,5.5,5.5,0,1,1,1.521,10.778ZM163.709,107.7a3.23,3.23,0,0,0-3.226,3.225A3.623,3.623,0,0,0,164,114.879h19.5a5.318,5.318,0,1,0-1.54-10.409l-.07.021-.035-.065a7.057,7.057,0,0,0-12.948.93l-.019.057-.061,0a4.687,4.687,0,0,0-3.869,2.444l-.037.069-.072-.028A3.224,3.224,0,0,0,163.709,107.7Z"/>
        </g>
        <g>
          <rect class="b21b5945-f613-4c5c-a5fb-0785f7936be1" x="151.422" y="107.005" width="24.544" height="23.401"/>
          <g>
            <g>
              <g>
                <rect class="ada17b70-6d6e-4a26-95d0-8734182daf70" x="146.936" y="100.304" width="13.198" height="12.082"/>
                <circle cx="157.008" cy="101.57" r="0.42"/>
                <circle cx="158.637" cy="101.57" r="0.42"/>
              </g>
              <path d="M158.43,103.774H148.7a.107.107,0,0,1,0-.214h9.727a.107.107,0,0,1,0,.214Z"/>
              <g>
                <path d="M157.586,111.053a.107.107,0,0,1-.108-.107v-2.338a.108.108,0,0,1,.215,0v2.338A.107.107,0,0,1,157.586,111.053Z"/>
                <path d="M152.909,111.053a.106.106,0,0,1-.107-.107v-2.338a.107.107,0,0,1,.214,0v2.338A.106.106,0,0,1,152.909,111.053Z"/>
                <path d="M155.248,111.053a1.276,1.276,0,1,1,1.276-1.276A1.278,1.278,0,0,1,155.248,111.053Zm0-2.338a1.062,1.062,0,1,0,1.061,1.062A1.064,1.064,0,0,0,155.248,108.715Z"/>
                <path d="M150.571,111.053a1.276,1.276,0,1,1,1.277-1.276A1.278,1.278,0,0,1,150.571,111.053Zm0-2.338a1.062,1.062,0,1,0,1.062,1.062A1.062,1.062,0,0,0,150.571,108.715Z"/>
                <path d="M157.586,107.546a.107.107,0,0,1-.108-.107V105.1a.108.108,0,0,1,.215,0v2.338A.107.107,0,0,1,157.586,107.546Z"/>
                <path d="M156.027,107.546a.107.107,0,0,1-.107-.107V105.1a.108.108,0,0,1,.215,0v2.338A.107.107,0,0,1,156.027,107.546Z"/>
                <path d="M151.35,107.546a.107.107,0,0,1-.107-.107V105.1a.108.108,0,0,1,.215,0v2.338A.107.107,0,0,1,151.35,107.546Z"/>
                <path d="M149.792,107.546a.107.107,0,0,1-.108-.107V105.1a.108.108,0,0,1,.215,0v2.338A.107.107,0,0,1,149.792,107.546Z"/>
                <path d="M153.688,107.546a1.276,1.276,0,1,1,1.278-1.276A1.278,1.278,0,0,1,153.688,107.546Zm0-2.339a1.063,1.063,0,1,0,1.063,1.063A1.063,1.063,0,0,0,153.688,105.207Z"/>
              </g>
            </g>
            <polygon class="bc632102-3c04-47dd-88a0-3b9c96778a97" points="151.425 112.49 146.833 112.49 146.833 100.304 147.038 100.304 147.038 112.284 151.425 112.284 151.425 112.49"/>
            <rect x="151.422" y="108.328" width="5.255" height="4.059"/>
            <rect class="f8cca751-e481-46fb-9856-cec0517b3bdd" x="151.423" y="112.285" width="2.338" height="0.187"/>
          </g>
          <rect x="173.283" y="126.913" width="3.857" height="3.494"/>
          <rect class="f8cca751-e481-46fb-9856-cec0517b3bdd" x="173.201" y="126.913" width="0.186" height="3.494"/>
          <rect class="ada17b70-6d6e-4a26-95d0-8734182daf70" x="153.789" y="105.902" width="24.544" height="22.47"/>
          <rect class="a7269ac7-f0b3-42b2-8791-6c330801912b" x="153.789" y="105.902" width="24.544" height="4.768"/>
          <circle class="ada17b70-6d6e-4a26-95d0-8734182daf70" cx="172.52" cy="108.256" r="0.782"/>
          <circle class="ada17b70-6d6e-4a26-95d0-8734182daf70" cx="175.55" cy="108.256" r="0.782"/>
          <rect class="b543dcfb-267e-49c7-bffe-bd4f0d7fca08" x="167.208" y="117.857" width="9.956" height="8.99"/>
          <rect class="b543dcfb-267e-49c7-bffe-bd4f0d7fca08" x="155.436" y="112.184" width="10.625" height="14.565"/>
          <rect class="b543dcfb-267e-49c7-bffe-bd4f0d7fca08" x="167.208" y="112.184" width="9.956" height="4.425"/>
          <polygon class="a7269ac7-f0b3-42b2-8791-6c330801912b" points="178.333 128.465 153.696 128.465 153.696 105.809 178.333 105.809 178.333 105.995 153.882 105.995 153.882 128.278 178.333 128.278 178.333 128.465"/>
        </g>
        <g>
          <path class="ada17b70-6d6e-4a26-95d0-8734182daf70" d="M167.384,128.173a3.389,3.389,0,0,0-1.2.217,4.865,4.865,0,0,0-4.044-2.555,7.331,7.331,0,0,0-13.45-.967,5.547,5.547,0,1,0-1.606,10.856h20c2.586,0,3.7-2.273,3.7-4.151A3.4,3.4,0,0,0,167.384,128.173Z"/>
          <path class="f8cca751-e481-46fb-9856-cec0517b3bdd" d="M167.088,135.813h-20a5.635,5.635,0,1,1,1.56-11.051,7.421,7.421,0,0,1,13.56.988,4.98,4.98,0,0,1,4.02,2.53,3.491,3.491,0,0,1,4.644,3.293,4.81,4.81,0,0,1-.9,2.834A3.47,3.47,0,0,1,167.088,135.813Zm-20-11.092a5.458,5.458,0,1,0,0,10.915h20a3.719,3.719,0,0,0,3.607-4.063,3.312,3.312,0,0,0-4.475-3.1l-.073.027-.037-.068a4.8,4.8,0,0,0-3.969-2.508l-.061,0-.02-.057a7.242,7.242,0,0,0-13.287-.955l-.034.066-.07-.021A5.435,5.435,0,0,0,147.089,124.721Z"/>
        </g>
        <circle class="ada17b70-6d6e-4a26-95d0-8734182daf70" cx="166.981" cy="104.221" r="0.401"/>
        <circle class="a7269ac7-f0b3-42b2-8791-6c330801912b" cx="164.002" cy="138.138" r="0.401"/>
        <polygon class="bc632102-3c04-47dd-88a0-3b9c96778a97" points="187.173 140.581 173.192 140.581 173.192 130.407 173.397 130.407 173.397 140.375 187.173 140.375 187.173 140.581"/>
      </g>
      <path class="ada17b70-6d6e-4a26-95d0-8734182daf70" d="M166.95,104.36a.145.145,0,0,1-.124-.07,13.067,13.067,0,0,0-2.738-3.191.146.146,0,1,1,.187-.223,13.367,13.367,0,0,1,2.8,3.263.144.144,0,0,1-.048.2A.142.142,0,0,1,166.95,104.36Z"/>
      <g>
        <path d="M176.288,135.327a.106.106,0,0,1-.107-.107v-2.338a.107.107,0,0,1,.214,0v2.338A.106.106,0,0,1,176.288,135.327Z"/>
        <path d="M180.965,135.327a.107.107,0,0,1-.108-.107v-2.338a.108.108,0,0,1,.215,0v2.338A.107.107,0,0,1,180.965,135.327Z"/>
        <path d="M178.626,135.327a1.276,1.276,0,1,1,1.277-1.276A1.279,1.279,0,0,1,178.626,135.327Zm0-2.338a1.062,1.062,0,1,0,1.062,1.062A1.063,1.063,0,0,0,178.626,132.989Z"/>
        <path d="M183.3,135.327a1.276,1.276,0,1,1,1.276-1.276A1.278,1.278,0,0,1,183.3,135.327Zm0-2.338a1.062,1.062,0,1,0,1.061,1.062A1.063,1.063,0,0,0,183.3,132.989Z"/>
        <path d="M176.288,138.834a.106.106,0,0,1-.107-.107v-2.338a.107.107,0,0,1,.214,0v2.338A.106.106,0,0,1,176.288,138.834Z"/>
        <path d="M177.847,138.834a.107.107,0,0,1-.108-.107v-2.338a.108.108,0,0,1,.215,0v2.338A.106.106,0,0,1,177.847,138.834Z"/>
        <path d="M182.523,138.834a.106.106,0,0,1-.107-.107v-2.338a.108.108,0,0,1,.215,0v2.338A.107.107,0,0,1,182.523,138.834Z"/>
        <path d="M184.082,138.834a.107.107,0,0,1-.108-.107v-2.338a.108.108,0,0,1,.215,0v2.338A.106.106,0,0,1,184.082,138.834Z"/>
        <path d="M180.185,138.834a1.276,1.276,0,1,1,1.277-1.276A1.278,1.278,0,0,1,180.185,138.834Zm0-2.338a1.063,1.063,0,1,0,1.062,1.062A1.062,1.062,0,0,0,180.185,136.5Z"/>
      </g>
    </g>
  </g>
</svg>
