<svg id="abb836fc-f1d3-467d-b9d1-c3ae3e376466" data-name="Layer 1" xmlns="http://www.w3.org/2000/svg" xmlns:xlink="http://www.w3.org/1999/xlink" width="262" height="180" viewBox="0 0 262 180"><defs><style>.e606c119-7c31-4671-8b84-f69b266e0ba2{fill:none;}.e1882681-c4a6-4828-a511-ba3ba585eb62{clip-path:url(#e68ff1c2-893e-47c3-b26c-5d43e2245002);}.f858cea2-6f7f-444f-9a8d-44865e1dae9b{fill:#ed1c24;}.f10e4b94-2cf0-4797-920d-bd1ebe4dce25{fill:#0678ab;}.b9a4533f-2bbe-43c3-a301-044f5c92c218{fill:#03b9e4;}.a23a0a53-f61c-4bd8-b4fc-290de88d13f8{fill:#fff;}</style><clipPath id="e68ff1c2-893e-47c3-b26c-5d43e2245002"><rect class="e606c119-7c31-4671-8b84-f69b266e0ba2" x="-1" y="-442" width="1140" height="390"/></clipPath></defs><title>BrandStandards-Logo-Cobrand_Logos-ASSETS</title><g class="e1882681-c4a6-4828-a511-ba3ba585eb62"><image width="3124" height="1388" transform="translate(-1 -442) scale(0.36)" xlink:href="BrandStandards-Logo-Cobrand_Logos-ASSETS1.png"/></g><path d="M132.85,112a.4.4,0,0,1-.4-.4V68.26a.4.4,0,0,1,.8,0v43.3a.4.4,0,0,1-.4.4"/><path d="M94.3,78.9a2.43,2.43,0,0,1,0,.6c0,2.65-3.21,3.11-5.44,3.12-8.65,0-15.12-5.37-15.12-7a1,1,0,0,1,0-.34l-.65,1.61a3.29,3.29,0,0,0-.27,1.3c0,3.22,7.3,8.09,15.62,8.08,3.68,0,6.48-1.39,6.48-3.88a8.74,8.74,0,0,0-.31-1.8Z"/><path class="f858cea2-6f7f-444f-9a8d-44865e1dae9b" d="M88.91,82.62c2.23,0,5.45-.47,5.44-3.12a2.43,2.43,0,0,0,0-.6L93,73.14c-.31-1.27-.58-1.84-2.8-3-1.73-.88-5.49-2.34-6.6-2.34S82.23,69.2,81,69.2s-2.07-1-3.19-1-1.76.74-2.29,2.23c0,0-1.5,4.22-1.69,4.84a1,1,0,0,0,0,.34c0,1.64,6.47,7,15.12,7m5.79-2a8.74,8.74,0,0,1,.31,1.8c0,2.49-2.8,3.88-6.48,3.88-8.32,0-15.61-4.86-15.62-8.08a3.29,3.29,0,0,1,.27-1.3c-3,.15-6.86.69-6.86,4.11,0,5.6,13.28,12.49,23.79,12.48,8,0,10.08-3.65,10.08-6.53,0-2.26-2-4.83-5.49-6.36"/><path d="M111.81,108.94c0,2.12,1.28,3.15,3.59,3.15a9.18,9.18,0,0,0,2.12-.3v-2.45a4.42,4.42,0,0,1-1.37.2c-1,0-1.31-.3-1.31-1.19v-3.76h2.77v-2.53h-2.77v-3.2l-3,.66v2.54h-2v2.53h2Zm-9.41.06c0-.65.65-1,1.64-1a7.65,7.65,0,0,1,1.8.22v1.27A3.81,3.81,0,0,1,104,110c-1,0-1.55-.37-1.55-1m.92,3.12a4.62,4.62,0,0,0,2.73-.76v.6h3v-6.35c0-2.41-1.63-3.74-4.35-3.74a11,11,0,0,0-4.62,1.09l1.09,2.23a8,8,0,0,1,3-.79c1.26,0,1.89.49,1.89,1.48v.48a9.1,9.1,0,0,0-2.24-.28c-2.55,0-4.08,1.07-4.08,3,0,1.74,1.38,3.06,3.59,3.06M86.88,112H90.1v-5.13h5.38V112H98.7V98.86H95.48v5H90.1v-5H86.88Zm-12.26-5a2.51,2.51,0,0,1,2.6-2.51,3,3,0,0,1,2.09.77v3.46a2.92,2.92,0,0,1-2.09.79,2.52,2.52,0,0,1-2.6-2.51m4.73,5h3V98.21l-3,.65v3.72a5,5,0,0,0-2.52-.65,5.08,5.08,0,1,0-.1,10.16,4.47,4.47,0,0,0,2.66-.86Zm-13.73-7.6a2.2,2.2,0,0,1,2.08,1.57H63.56a2.06,2.06,0,0,1,2.06-1.57M60.51,107a5.19,5.19,0,0,0,5.39,5.12A5.94,5.94,0,0,0,70,110.65l-2-1.78a2.65,2.65,0,0,1-2,.75,2.56,2.56,0,0,1-2.43-1.57h7.05v-.75c0-3.14-2.11-5.41-5-5.41A5.09,5.09,0,0,0,60.51,107m-5.21-5.41a1.49,1.49,0,1,1,0,3H52.12v-3ZM48.9,112h3.22v-4.77h2.45L57,112h3.59l-2.88-5.24A4,4,0,0,0,60.22,103c0-2.35-1.86-4.17-4.62-4.17H48.9Z"/><path class="f10e4b94-2cf0-4797-920d-bd1ebe4dce25" d="M198.6,111.28H158.17a6.59,6.59,0,0,1,0-13.18H198.6a6.59,6.59,0,0,1,0,13.18"/><polygon class="b9a4533f-2bbe-43c3-a301-044f5c92c218" points="157.37 79.71 152.61 68.53 157.71 68.53 160.66 75.48 166.1 68.53 171.68 68.53 162.65 80.12 167.78 92.03 162.68 92.03 159.35 84.35 153.38 92.03 147.81 92.03 157.37 79.71"/><polygon class="b9a4533f-2bbe-43c3-a301-044f5c92c218" points="178.39 82.57 172.58 68.53 177.35 68.53 181.24 78.14 188.49 68.53 193.66 68.53 182.95 82.67 181.31 92.03 176.71 92.03 178.39 82.57"/><polygon class="b9a4533f-2bbe-43c3-a301-044f5c92c218" points="192.02 88.58 206.22 72.83 195.51 72.83 196.25 68.53 213.1 68.53 212.5 71.99 198.19 87.74 209.74 87.74 208.97 92.03 191.41 92.03 192.02 88.58"/><path class="a23a0a53-f61c-4bd8-b4fc-290de88d13f8" d="M159.7,104.89c0-2.06,1.2-4,3.23-4a1.9,1.9,0,0,1,1.85,1.15l-.68.34a1.34,1.34,0,0,0-1.24-.75c-1.53,0-2.34,1.74-2.34,3.21,0,1,.42,2,1.46,2a1.81,1.81,0,0,0,1.49-.83l.67.31a2.53,2.53,0,0,1-2.22,1.27c-1.54,0-2.22-1.34-2.22-2.71"/><path class="a23a0a53-f61c-4bd8-b4fc-290de88d13f8" d="M165.07,105.62c0-1.45.85-3,2.44-3a1.73,1.73,0,0,1,1.72,1.95c0,1.46-.83,3-2.42,3-1.22,0-1.74-.89-1.74-2m3.37-1c0-.67-.27-1.29-1-1.29-1.05,0-1.6,1.2-1.6,2.24,0,.71.29,1.28,1,1.28,1.07,0,1.61-1.18,1.61-2.23"/><path class="a23a0a53-f61c-4bd8-b4fc-290de88d13f8" d="M170.8,102.73h.77l-.08.45a1.74,1.74,0,0,1,1.26-.56,1.14,1.14,0,0,1,1.11.71,1.87,1.87,0,0,1,1.48-.71,1.28,1.28,0,0,1,1.35,1.36,2.77,2.77,0,0,1,0,.39l-.55,3.12h-.8l.52-2.94a2.4,2.4,0,0,0,0-.37c0-.57-.29-.84-.73-.84a1.31,1.31,0,0,0-1.18,1.2l-.52,2.95h-.8l.51-2.94a1.67,1.67,0,0,0,0-.37c0-.57-.29-.84-.73-.84a1.3,1.3,0,0,0-1.19,1.2l-.52,2.95H170Z"/><path class="a23a0a53-f61c-4bd8-b4fc-290de88d13f8" d="M178.47,107l-.36,2-.84.32,1.17-6.65h.79l-.08.42a1.74,1.74,0,0,1,1.29-.53c.91,0,1.53.77,1.53,2,0,1.9-1.11,3-2.27,3a1.45,1.45,0,0,1-1.23-.58m2.69-2.35c0-.8-.31-1.33-.95-1.33A1.47,1.47,0,0,0,179,104l-.39,2.22a1.15,1.15,0,0,0,1,.64c.9,0,1.5-.9,1.5-2.19"/><path class="a23a0a53-f61c-4bd8-b4fc-290de88d13f8" d="M185.38,107.1a2,2,0,0,1-1.34.5,1.3,1.3,0,0,1-1.39-1.38,1.79,1.79,0,0,1,2-1.8,2,2,0,0,1,1.15.34l.07-.36a2,2,0,0,0,0-.38.67.67,0,0,0-.76-.71,3.08,3.08,0,0,0-1.51.5l-.1-.66a3.35,3.35,0,0,1,1.7-.53,1.28,1.28,0,0,1,1.42,1.31,2.9,2.9,0,0,1,0,.47l-.54,3.09h-.75Zm.15-.81.14-.83a1.78,1.78,0,0,0-1-.36c-.63,0-1.23.31-1.23,1.05a.73.73,0,0,0,.81.76,2,2,0,0,0,1.32-.62"/><path class="a23a0a53-f61c-4bd8-b4fc-290de88d13f8" d="M188.34,102.73h.78l-.08.51a1.61,1.61,0,0,1,1.26-.62c.86,0,1.34.52,1.34,1.49a3.62,3.62,0,0,1-.06.72l-.48,2.66h-.78l.5-2.81a3.57,3.57,0,0,0,0-.47c0-.56-.28-.87-.78-.87a1.41,1.41,0,0,0-1.3,1.3l-.5,2.85h-.78Z"/><path class="a23a0a53-f61c-4bd8-b4fc-290de88d13f8" d="M193.77,107.35l-.87-4.62h.8l.54,3.28c0,.16.06.33.07.36a1.84,1.84,0,0,1,.19-.36l1.73-3.28h.85l-3.51,6.57h-.83Z"/><rect class="e606c119-7c31-4671-8b84-f69b266e0ba2" x="48.54" y="67.5" width="164.91" height="45"/></svg>