<svg id="ab22f8eb-c70f-447d-b348-5d1b5ee24eac" data-name="Layer 1" xmlns="http://www.w3.org/2000/svg" xmlns:xlink="http://www.w3.org/1999/xlink" width="262" height="180" viewBox="0 0 262 180"><defs><style>.be4d9801-663f-4523-8430-a0bffe3600a3{fill:none;}.af0fe85f-b643-4038-aef7-cff9298a478e{clip-path:url(#f7f4a37b-334d-4369-8b2b-2ebb3e579b8e);}.a455525c-1354-4db6-8043-bd076650227e{clip-path:url(#fce5d799-cafc-45d8-a097-c6e4d38b8076);}.ee783571-f951-4523-90e4-240a8b654dc3{fill:#ed1c24;}.efb35719-bbec-4db3-918c-b469f12178e7{clip-path:url(#bb4a7553-7157-4951-a338-1b283c5b171d);}.edca4b34-d43d-4eaa-987e-326d2999c01e{fill:#03b9e4;}.a56532fd-20b1-4e05-af84-48373b6d052b{fill:#0678ab;}</style><clipPath id="f7f4a37b-334d-4369-8b2b-2ebb3e579b8e"><rect class="be4d9801-663f-4523-8430-a0bffe3600a3" x="-585" y="-442" width="1140" height="390"/></clipPath><clipPath id="fce5d799-cafc-45d8-a097-c6e4d38b8076"><rect class="be4d9801-663f-4523-8430-a0bffe3600a3" x="59" y="45" width="144" height="90"/></clipPath><clipPath id="bb4a7553-7157-4951-a338-1b283c5b171d"><rect class="be4d9801-663f-4523-8430-a0bffe3600a3" x="59.01" y="45" width="143.99" height="90"/></clipPath></defs><title>BrandStandards-Logo-Cobrand_Logos-ASSETS</title><g class="af0fe85f-b643-4038-aef7-cff9298a478e"><image width="3124" height="1388" transform="translate(-585 -442) scale(0.36)" xlink:href="BrandStandards-Logo-Cobrand_Logos-ASSETS1.png"/></g><g class="a455525c-1354-4db6-8043-bd076650227e"><path d="M59.39,90a.44.44,0,0,1,.43-.44H202.18a.44.44,0,0,1,0,.88H59.82a.44.44,0,0,1-.43-.44"/><path class="ee783571-f951-4523-90e4-240a8b654dc3" d="M96.29,61.47c2.43,0,5.94-.5,5.94-3.38a3,3,0,0,0-.06-.66l-1.45-6.28c-.33-1.38-.62-2-3-3.21-1.88-1-6-2.55-7.19-2.55S89,46.85,87.69,46.85s-2.26-1.09-3.47-1.09-1.93.8-2.51,2.43c0,0-1.63,4.59-1.84,5.26a1.3,1.3,0,0,0,0,.38c0,1.79,7,7.64,16.46,7.64m6.31-2.21a9.65,9.65,0,0,1,.34,2c0,2.72-3,4.22-7.07,4.22-9.06,0-17-5.3-17-8.81a3.48,3.48,0,0,1,.29-1.42c-3.26.16-7.48.75-7.48,4.47,0,6.1,14.46,13.62,25.91,13.62,8.77,0,11-4,11-7.1,0-2.47-2.13-5.27-6-6.94"/><path d="M102.6,59.26a9.65,9.65,0,0,1,.34,2c0,2.72-3,4.22-7.07,4.22-9.06,0-17-5.3-17-8.81a3.48,3.48,0,0,1,.29-1.42l.71-1.76a1.3,1.3,0,0,0,0,.38c0,1.79,7,7.64,16.46,7.64,2.43,0,5.94-.5,5.94-3.38a3,3,0,0,0-.06-.66Z"/></g><g class="efb35719-bbec-4db3-918c-b469f12178e7"><path d="M184,63.28c0,2.3,1.38,3.42,3.91,3.42a10.44,10.44,0,0,0,2.31-.32V63.71a4.89,4.89,0,0,1-1.49.22c-1,0-1.43-.32-1.43-1.3v-4.1h3V55.78h-3V52.29L184,53v2.78h-2.18v2.75H184Zm-10.26.06c0-.71.71-1.06,1.79-1.06a8,8,0,0,1,2,.25v1.38a4.17,4.17,0,0,1-2.06.51c-1.06,0-1.69-.41-1.69-1.08m1,3.4a5.05,5.05,0,0,0,3-.83v.65h3.26V59.65c0-2.63-1.77-4.08-4.73-4.08a11.91,11.91,0,0,0-5,1.19l1.18,2.42a8.75,8.75,0,0,1,3.26-.85c1.37,0,2.06.53,2.06,1.61v.53a9.29,9.29,0,0,0-2.45-.31c-2.77,0-4.44,1.16-4.44,3.24,0,1.9,1.51,3.34,3.91,3.34m-17.91-.18h3.5V61h5.87v5.58h3.51V52.29h-3.51v5.49h-5.87V52.29h-3.5Zm-13.37-5.4a2.73,2.73,0,0,1,2.84-2.73,3.34,3.34,0,0,1,2.28.83V63a3.16,3.16,0,0,1-2.28.85,2.75,2.75,0,0,1-2.84-2.73m5.16,5.4h3.26v-15l-3.3.71v4.06a5.45,5.45,0,0,0-2.75-.72,5.54,5.54,0,1,0-.1,11.07,4.84,4.84,0,0,0,2.89-.93Zm-15-8.27A2.37,2.37,0,0,1,135.88,60h-4.5a2.24,2.24,0,0,1,2.24-1.71m-5.57,2.89a5.67,5.67,0,0,0,5.87,5.59,6.45,6.45,0,0,0,4.51-1.64l-2.18-1.93a2.93,2.93,0,0,1-2.16.81,2.78,2.78,0,0,1-2.65-1.71h7.68v-.81c0-3.43-2.3-5.9-5.44-5.9a5.55,5.55,0,0,0-5.63,5.59m-5.68-5.89a1.62,1.62,0,1,1,0,3.22H118.9V55.29Zm-7,11.27h3.51v-5.2h2.67l2.69,5.2h3.92L125,60.85a4.31,4.31,0,0,0,2.69-4c0-2.57-2-4.55-5-4.55h-7.3Z"/><path class="edca4b34-d43d-4eaa-987e-326d2999c01e" d="M84.06,109.94c5,5,4.24,13.81-1.66,19.71s-14.72,6.64-19.71,1.66-4.24-13.81,1.66-19.71,14.72-6.64,19.71-1.66"/></g><g class="a455525c-1354-4db6-8043-bd076650227e"><polygon points="97.61 119.69 95.1 113.8 97.79 113.8 99.35 117.46 102.21 113.8 105.15 113.8 100.39 119.9 103.1 126.18 100.41 126.18 98.66 122.13 95.51 126.18 92.57 126.18 97.61 119.69"/><polygon points="108.69 121.19 105.63 113.8 108.14 113.8 110.19 118.86 114.01 113.8 116.73 113.8 111.09 121.25 110.22 126.18 107.8 126.18 108.69 121.19"/><polygon points="115.86 124.36 123.35 116.06 117.7 116.06 118.09 113.8 126.97 113.8 126.65 115.62 119.12 123.92 125.2 123.92 124.8 126.18 115.55 126.18 115.86 124.36"/><path d="M131.62,121.25c0-3.91,2.28-7.66,6.14-7.66a3.62,3.62,0,0,1,3.5,2.19l-1.29.65a2.52,2.52,0,0,0-2.35-1.43c-2.9,0-4.44,3.31-4.44,6.1,0,1.91.79,3.86,2.76,3.86a3.4,3.4,0,0,0,2.83-1.57l1.27.6a4.78,4.78,0,0,1-4.21,2.4c-2.92,0-4.21-2.55-4.21-5.14"/><path d="M141.81,122.64c0-2.76,1.61-5.71,4.63-5.71,2.28,0,3.27,1.79,3.27,3.71,0,2.78-1.57,5.75-4.6,5.75-2.31,0-3.3-1.68-3.3-3.75m6.4-1.89c0-1.27-.51-2.44-1.86-2.44-2,0-3,2.26-3,4.24,0,1.35.55,2.44,1.84,2.44,2,0,3.06-2.24,3.06-4.24"/><path d="M152.68,117.14h1.47L154,118a3.34,3.34,0,0,1,2.41-1.08,2.13,2.13,0,0,1,2.1,1.36,3.56,3.56,0,0,1,2.81-1.36,2.44,2.44,0,0,1,2.57,2.58,3.93,3.93,0,0,1-.07.74l-1,5.93h-1.53l1-5.57a4.44,4.44,0,0,0,.06-.71c0-1.08-.55-1.59-1.38-1.59a2.46,2.46,0,0,0-2.23,2.28l-1,5.59h-1.52l1-5.57a3.7,3.7,0,0,0,.07-.71c0-1.08-.55-1.59-1.4-1.59a2.47,2.47,0,0,0-2.24,2.28l-1,5.59h-1.49Z"/><path d="M167.26,125.29l-.69,3.88-1.59.6,2.22-12.63h1.49l-.14.8a3.31,3.31,0,0,1,2.44-1c1.73,0,2.9,1.47,2.9,3.75,0,3.61-2.11,5.71-4.3,5.71a2.72,2.72,0,0,1-2.33-1.1m5.09-4.45c0-1.52-.58-2.53-1.79-2.53a2.75,2.75,0,0,0-2.3,1.26l-.74,4.2a2.16,2.16,0,0,0,2,1.22c1.72,0,2.85-1.71,2.85-4.15"/><path d="M180.38,125.44a3.9,3.9,0,0,1-2.55,1,2.46,2.46,0,0,1-2.65-2.62c0-2.37,1.86-3.41,3.78-3.41a3.88,3.88,0,0,1,2.2.64l.12-.69a4.29,4.29,0,0,0,.09-.71,1.27,1.27,0,0,0-1.43-1.36,5.9,5.9,0,0,0-2.87,1l-.19-1.25a6.3,6.3,0,0,1,3.22-1,2.44,2.44,0,0,1,2.7,2.49,5.46,5.46,0,0,1-.09.91l-1,5.85h-1.44Zm.28-1.54.27-1.58a3.47,3.47,0,0,0-2-.67c-1.21,0-2.34.59-2.34,2a1.39,1.39,0,0,0,1.54,1.45,3.71,3.71,0,0,0,2.51-1.18"/><path d="M186,117.14h1.49l-.16,1a3.1,3.1,0,0,1,2.41-1.18c1.62,0,2.54,1,2.54,2.83a7.43,7.43,0,0,1-.12,1.38l-.9,5h-1.49l.94-5.34a5.16,5.16,0,0,0,.09-.89c0-1.06-.53-1.64-1.49-1.64a2.66,2.66,0,0,0-2.46,2.46l-1,5.41h-1.49Z"/><path d="M196.29,125.91l-1.64-8.77h1.52l1,6.23c.05.3.1.63.12.69a4,4,0,0,1,.35-.69l3.29-6.23h1.61l-6.65,12.47h-1.57Z"/><path class="a56532fd-20b1-4e05-af84-48373b6d052b" d="M66.34,125.53l11.3-12.38a.39.39,0,0,1,.67.33l-2.17,12.38a.38.38,0,0,1-.38.32H66.63a.39.39,0,0,1-.29-.65"/></g></svg>