<svg id="Layer_1" data-name="Layer 1" xmlns="http://www.w3.org/2000/svg" xmlns:xlink="http://www.w3.org/1999/xlink" viewBox="0 0 555 310"><defs><style>.cls-1{fill:none;}.cls-2{clip-path:url(#clip-path);}.cls-3{fill:#ed1c24;}.cls-4{fill:#0678ab;}.cls-5{fill:#03b9e4;}.cls-6{fill:#fff;}</style><clipPath id="clip-path"><rect class="cls-1" x="137.27" y="116.74" width="280.45" height="76.53"/></clipPath></defs><title>Brand_Standards-Red_Hat-Lockup_C-RGB</title><g class="cls-2"><path d="M280.64,192.34a.69.69,0,0,1-.68-.68V118a.68.68,0,0,1,1.36,0v73.64a.68.68,0,0,1-.68.68"/><path d="M215.09,136.11a4.57,4.57,0,0,1,.09,1c0,4.5-5.47,5.29-9.26,5.29-14.72,0-25.71-9.12-25.71-11.91a1.79,1.79,0,0,1,.07-.59l-1.11,2.74a5.61,5.61,0,0,0-.45,2.22c0,5.48,12.4,13.75,26.56,13.74,6.26,0,11-2.36,11-6.6a15.13,15.13,0,0,0-.52-3.06Z"/><path class="cls-3" d="M205.92,142.44c3.79,0,9.26-.79,9.26-5.29a4,4,0,0,0-.1-1l-2.26-9.8c-.52-2.15-1-3.12-4.76-5-2.94-1.5-9.33-4-11.23-4s-2.28,2.28-4.36,2.29-3.53-1.7-5.42-1.69-3,1.24-3.91,3.78c0,0-2.54,7.18-2.86,8.22a1.79,1.79,0,0,0-.07.59c0,2.79,11,11.93,25.71,11.91m9.85-3.46a15.13,15.13,0,0,1,.52,3.06c0,4.24-4.75,6.59-11,6.6-14.16,0-26.56-8.26-26.56-13.74a5.61,5.61,0,0,1,.45-2.22c-5.09.27-11.67,1.19-11.67,7,0,9.52,22.59,21.25,40.46,21.23,13.7,0,17.15-6.21,17.14-11.11,0-3.84-3.33-8.21-9.33-10.81"/><path d="M244.87,187.22c0,3.59,2.16,5.34,6.11,5.34a15.54,15.54,0,0,0,3.59-.51v-4.17a7.27,7.27,0,0,1-2.32.35c-1.62,0-2.23-.5-2.23-2v-6.39h4.71v-4.3H250v-5.44l-5.15,1.11v4.33h-3.4v4.3h3.4Zm-16,.09c0-1.11,1.11-1.65,2.8-1.65a13,13,0,0,1,3.05.38v2.16a6.53,6.53,0,0,1-3.21.8c-1.66,0-2.64-.64-2.64-1.69m1.57,5.31a7.89,7.89,0,0,0,4.64-1.3v1h5.09V181.55c0-4.1-2.76-6.36-7.38-6.36a18.79,18.79,0,0,0-7.86,1.85l1.85,3.78a13.87,13.87,0,0,1,5.09-1.33c2.13,0,3.21.82,3.21,2.51v.83a14.84,14.84,0,0,0-3.81-.48c-4.33,0-6.94,1.81-6.94,5.06,0,3,2.36,5.21,6.11,5.21m-28-.28h5.47v-8.72h9.16v8.72h5.47V170.07H217.1v8.56h-9.16v-8.56h-5.47Zm-20.85-8.43a4.25,4.25,0,0,1,4.42-4.26,5.19,5.19,0,0,1,3.56,1.3v5.89a4.94,4.94,0,0,1-3.56,1.33,4.28,4.28,0,0,1-4.42-4.26m8,8.43h5.09V169l-5.16,1.11v6.33a8.67,8.67,0,1,0-4.45,16.16,7.65,7.65,0,0,0,4.52-1.46Zm-23.35-12.92a3.72,3.72,0,0,1,3.53,2.68h-7a3.51,3.51,0,0,1,3.5-2.68m-8.69,4.52a8.84,8.84,0,0,0,9.16,8.72,10.11,10.11,0,0,0,7-2.55l-3.4-3a4.55,4.55,0,0,1-3.37,1.27,4.36,4.36,0,0,1-4.14-2.67h12v-1.27c0-5.35-3.6-9.19-8.5-9.19a8.64,8.64,0,0,0-8.78,8.71m-8.87-9.19a2.53,2.53,0,1,1,0,5h-5.41v-5Zm-10.88,17.59h5.47v-8.11h4.17l4.2,8.11h6.1l-4.9-8.91a6.73,6.73,0,0,0,4.2-6.27c0-4-3.15-7.09-7.85-7.09H137.88Z"/><path class="cls-4" d="M392.47,191.18H323.71a11.2,11.2,0,1,1,0-22.4h68.76a11.2,11.2,0,0,1,0,22.4"/><polygon class="cls-5" points="322.35 137.51 314.24 118.49 322.92 118.49 327.95 130.31 337.2 118.49 346.67 118.49 331.32 138.19 340.05 158.46 331.37 158.46 325.72 145.39 315.56 158.46 306.08 158.46 322.35 137.51"/><polygon class="cls-5" points="358.09 142.36 348.21 118.5 356.32 118.5 362.94 134.82 375.27 118.5 384.07 118.5 365.85 142.53 363.06 158.46 355.24 158.46 358.09 142.36"/><polygon class="cls-5" points="381.27 152.58 405.42 125.8 387.21 125.8 388.46 118.5 417.12 118.5 416.09 124.38 391.77 151.15 411.41 151.15 410.1 158.46 380.24 158.46 381.27 152.58"/><path class="cls-6" d="M326.31,180.32c0-3.5,2.05-6.86,5.5-6.86a3.25,3.25,0,0,1,3.14,2l-1.16.58a2.25,2.25,0,0,0-2.11-1.28c-2.59,0-4,3-4,5.46,0,1.71.71,3.46,2.47,3.46a3,3,0,0,0,2.53-1.41l1.14.54a4.29,4.29,0,0,1-3.77,2.15c-2.61,0-3.77-2.28-3.77-4.61"/><path class="cls-6" d="M335.44,181.57c0-2.47,1.44-5.11,4.15-5.11,2,0,2.93,1.59,2.93,3.32,0,2.49-1.41,5.15-4.12,5.15-2.08,0-3-1.51-3-3.36m5.73-1.69c0-1.14-.46-2.19-1.66-2.19-1.79,0-2.73,2-2.73,3.8,0,1.21.49,2.19,1.65,2.19,1.82,0,2.74-2,2.74-3.8"/><path class="cls-6" d="M345.18,176.65h1.31l-.14.77a3,3,0,0,1,2.16-1,1.92,1.92,0,0,1,1.88,1.23,3.15,3.15,0,0,1,2.52-1.23,2.19,2.19,0,0,1,2.3,2.32,3.16,3.16,0,0,1-.07.66l-.93,5.31h-1.36l.88-5a4.7,4.7,0,0,0,0-.63c0-1-.49-1.43-1.23-1.43a2.2,2.2,0,0,0-2,2l-.89,5H348.3l.87-5a2.85,2.85,0,0,0,.06-.63c0-1-.49-1.43-1.25-1.43a2.21,2.21,0,0,0-2,2l-.88,5h-1.34Z"/><path class="cls-6" d="M358.23,184l-.62,3.47-1.42.54,2-11.32h1.34l-.13.72a3,3,0,0,1,2.18-.91c1.56,0,2.6,1.32,2.6,3.36,0,3.23-1.88,5.12-3.85,5.12a2.47,2.47,0,0,1-2.09-1m4.56-4c0-1.37-.52-2.27-1.6-2.27a2.43,2.43,0,0,0-2.05,1.13l-.67,3.76a1.92,1.92,0,0,0,1.77,1.1c1.54,0,2.55-1.54,2.55-3.72"/><path class="cls-6" d="M370,184.07a3.48,3.48,0,0,1-2.28.86,2.21,2.21,0,0,1-2.38-2.34c0-2.13,1.66-3.06,3.39-3.06a3.4,3.4,0,0,1,2,.57l.11-.62a3.28,3.28,0,0,0,.08-.63,1.13,1.13,0,0,0-1.28-1.22,5.2,5.2,0,0,0-2.57.85l-.17-1.12a5.64,5.64,0,0,1,2.88-.9,2.18,2.18,0,0,1,2.43,2.23,5.36,5.36,0,0,1-.08.81l-.92,5.24h-1.28Zm.25-1.37.24-1.41a3.07,3.07,0,0,0-1.78-.6c-1.07,0-2.09.52-2.09,1.77a1.25,1.25,0,0,0,1.38,1.3,3.35,3.35,0,0,0,2.25-1.06"/><path class="cls-6" d="M375,176.65h1.33l-.14.87a2.76,2.76,0,0,1,2.15-1.07c1.46,0,2.28.89,2.28,2.54a6.54,6.54,0,0,1-.11,1.23l-.81,4.52h-1.33l.84-4.78a4.26,4.26,0,0,0,.08-.8c0-.95-.47-1.47-1.33-1.47a2.38,2.38,0,0,0-2.2,2.2l-.86,4.85h-1.33Z"/><path class="cls-6" d="M384.24,184.5l-1.47-7.86h1.36l.92,5.58c.05.27.1.57.11.62a3.68,3.68,0,0,1,.32-.62l2.95-5.58h1.44l-6,11.17H382.5Z"/></g></svg>