<svg id="Layer_1" data-name="Layer 1" xmlns="http://www.w3.org/2000/svg" xmlns:xlink="http://www.w3.org/1999/xlink" viewBox="0 0 555 310"><defs><style>.cls-1{fill:none;}.cls-2{clip-path:url(#clip-path);}.cls-3{fill:#ed1c24;}.cls-4{clip-path:url(#clip-path-2);}.cls-5{fill:#03b9e4;}.cls-6{fill:#0678ab;}</style><clipPath id="clip-path"><rect class="cls-1" x="69.41" y="134.8" width="416.18" height="40.4"/></clipPath><clipPath id="clip-path-2"><rect class="cls-1" x="69.43" y="134.8" width="416.16" height="40.4"/></clipPath></defs><title>Brand_Standards-Red_Hat-Lockup_A-RGB</title><g class="cls-2"><path d="M260.06,174.62a.62.62,0,0,1-.61-.62V136a.62.62,0,0,1,1.23,0v38a.62.62,0,0,1-.62.62"/><path class="cls-3" d="M104.54,158c3.41,0,8.34-.71,8.34-4.76a4.08,4.08,0,0,0-.08-.93l-2-8.82c-.47-1.94-.88-2.82-4.29-4.52-2.64-1.35-8.4-3.58-10.1-3.58s-2,2.05-3.93,2.05-3.17-1.52-4.88-1.52-2.7,1.11-3.52,3.4c0,0-2.29,6.46-2.59,7.4a2,2,0,0,0-.06.53c0,2.51,9.89,10.75,23.14,10.75m8.87-3.12a13.63,13.63,0,0,1,.47,2.76c0,3.82-4.29,5.94-9.92,5.94-12.75,0-23.9-7.46-23.9-12.4a4.92,4.92,0,0,1,.41-2c-4.58.23-10.52,1.05-10.52,6.28,0,8.58,20.32,19.15,36.42,19.15,12.33,0,15.44-5.58,15.44-10,0-3.46-3-7.4-8.4-9.75"/><path d="M113.41,154.88a13.63,13.63,0,0,1,.47,2.76c0,3.82-4.29,5.94-9.92,5.94-12.75,0-23.9-7.46-23.9-12.4a4.92,4.92,0,0,1,.41-2l1-2.47a2,2,0,0,0-.06.53c0,2.51,9.89,10.75,23.14,10.75,3.41,0,8.34-.71,8.34-4.76a4.08,4.08,0,0,0-.08-.93Z"/></g><g class="cls-4"><path d="M227.75,160.53c0,3.24,1.95,4.81,5.51,4.81a14.6,14.6,0,0,0,3.23-.45v-3.76a6.68,6.68,0,0,1-2.09.32c-1.46,0-2-.46-2-1.84v-5.75h4.24V150h-4.24v-4.9l-4.64,1V150h-3.06v3.87h3.06Zm-14.42.09c0-1,1-1.49,2.52-1.49a11.69,11.69,0,0,1,2.75.34v1.95a5.82,5.82,0,0,1-2.89.72c-1.49,0-2.38-.58-2.38-1.52m1.42,4.78a7.09,7.09,0,0,0,4.18-1.17v.91h4.58v-9.71c0-3.69-2.49-5.73-6.64-5.73a17,17,0,0,0-7.08,1.66l1.66,3.41a12.5,12.5,0,0,1,4.59-1.2c1.92,0,2.89.74,2.89,2.26v.75a13.29,13.29,0,0,0-3.44-.43c-3.89,0-6.24,1.63-6.24,4.55,0,2.67,2.12,4.7,5.5,4.7m-25.19-.26h4.93V157.3h8.25v7.84h4.93v-20h-4.93v7.71h-8.25v-7.71h-4.93Zm-18.78-7.59a3.84,3.84,0,0,1,4-3.84,4.69,4.69,0,0,1,3.21,1.18v5.3a4.48,4.48,0,0,1-3.21,1.2,3.86,3.86,0,0,1-4-3.84m7.25,7.59h4.59v-21l-4.64,1v5.7a7.81,7.81,0,1,0-4,14.55A6.81,6.81,0,0,0,178,164Zm-21-11.63a3.37,3.37,0,0,1,3.19,2.41h-6.34a3.16,3.16,0,0,1,3.15-2.41m-7.82,4.07a8,8,0,0,0,8.25,7.85,9.13,9.13,0,0,0,6.34-2.29l-3.07-2.72a4.14,4.14,0,0,1-3,1.14,3.9,3.9,0,0,1-3.72-2.4h10.8V158c0-4.81-3.24-8.28-7.65-8.28a7.79,7.79,0,0,0-7.91,7.85m-8-8.28a2.28,2.28,0,1,1,0,4.53h-4.87V149.3Zm-9.8,15.84h4.93v-7.3h3.75l3.78,7.3h5.5l-4.41-8a6.06,6.06,0,0,0,3.78-5.64c0-3.61-2.83-6.39-7.07-6.39H131.39Z"/><path class="cls-5" d="M318.47,140c7,7,6,19.41-2.32,27.7s-20.7,9.33-27.7,2.32-6-19.41,2.32-27.7,20.7-9.33,27.7-2.32"/></g><g class="cls-2"><polygon points="337.53 153.68 334 145.41 337.78 145.41 339.97 150.55 343.99 145.41 348.12 145.41 341.43 153.98 345.24 162.81 341.46 162.81 339 157.11 334.57 162.81 330.45 162.81 337.53 153.68"/><polygon points="353.09 155.8 348.79 145.41 352.32 145.41 355.2 152.51 360.57 145.41 364.4 145.41 356.47 155.87 355.25 162.81 351.85 162.81 353.09 155.8"/><polygon points="363.18 160.25 373.69 148.59 365.77 148.59 366.31 145.41 378.79 145.41 378.34 147.97 367.75 159.62 376.31 159.62 375.73 162.8 362.74 162.8 363.18 160.25"/><path d="M385.33,155.87c0-5.49,3.21-10.76,8.62-10.76a5.07,5.07,0,0,1,4.92,3.08l-1.81.92a3.54,3.54,0,0,0-3.31-2c-4.07,0-6.23,4.64-6.23,8.57,0,2.69,1.11,5.42,3.87,5.42a4.75,4.75,0,0,0,4-2.21l1.79.84a6.73,6.73,0,0,1-5.92,3.38c-4.1,0-5.91-3.58-5.91-7.23"/><path d="M399.64,157.83c0-3.87,2.26-8,6.51-8,3.21,0,4.6,2.51,4.6,5.21,0,3.91-2.21,8.08-6.46,8.08-3.25,0-4.65-2.36-4.65-5.27m9-2.66c0-1.78-.72-3.42-2.61-3.42-2.81,0-4.28,3.18-4.28,6,0,1.89.78,3.43,2.59,3.43,2.86,0,4.3-3.16,4.3-6"/><path d="M414.93,150.1H417l-.22,1.22a4.69,4.69,0,0,1,3.38-1.51,3,3,0,0,1,3,1.91,4.93,4.93,0,0,1,3.95-1.91,3.41,3.41,0,0,1,3.6,3.62,4.9,4.9,0,0,1-.1,1l-1.46,8.32H427l1.39-7.82a7.07,7.07,0,0,0,.08-1c0-1.51-.77-2.23-1.94-2.23-1.37,0-2.79,1.14-3.13,3.2L422,162.8h-2.14l1.36-7.82a4.52,4.52,0,0,0,.1-1c0-1.51-.77-2.23-2-2.23a3.47,3.47,0,0,0-3.16,3.2l-1.39,7.85h-2.09Z"/><path d="M435.41,161.56l-1,5.45-2.23.84,3.12-17.75h2.09l-.19,1.12a4.61,4.61,0,0,1,3.42-1.41c2.44,0,4.08,2.06,4.08,5.26,0,5.07-3,8-6,8a3.86,3.86,0,0,1-3.28-1.54m7.16-6.26c0-2.14-.82-3.55-2.51-3.55a3.87,3.87,0,0,0-3.23,1.76l-1.05,5.91a3.05,3.05,0,0,0,2.79,1.72c2.41,0,4-2.41,4-5.84"/><path d="M453.85,161.76a5.44,5.44,0,0,1-3.58,1.34,3.46,3.46,0,0,1-3.72-3.68c0-3.32,2.61-4.79,5.31-4.79a5.39,5.39,0,0,1,3.08.89l.18-1a5.74,5.74,0,0,0,.12-1,1.78,1.78,0,0,0-2-1.91,8.23,8.23,0,0,0-4,1.34l-.27-1.77a9,9,0,0,1,4.52-1.41c1.64,0,3.81.77,3.81,3.5a8,8,0,0,1-.13,1.27l-1.44,8.22h-2Zm.4-2.16.37-2.21a4.73,4.73,0,0,0-2.78-.95c-1.69,0-3.28.82-3.28,2.79a2,2,0,0,0,2.16,2,5.22,5.22,0,0,0,3.53-1.66"/><path d="M461.73,150.1h2.09l-.23,1.37a4.37,4.37,0,0,1,3.38-1.66c2.29,0,3.58,1.39,3.58,4a11,11,0,0,1-.17,1.94l-1.27,7.08H467l1.32-7.5a7.24,7.24,0,0,0,.13-1.24c0-1.49-.75-2.31-2.09-2.31-1.62,0-3.11,1.31-3.46,3.45l-1.34,7.6h-2.09Z"/><path d="M476.22,162.43l-2.31-12.33h2.14l1.44,8.75c.07.42.15.9.17,1a6,6,0,0,1,.5-1l4.62-8.75H485l-9.34,17.53h-2.21Z"/><path class="cls-6" d="M293.58,161.9l15.88-17.4a.55.55,0,0,1,.94.46l-3,17.4a.55.55,0,0,1-.54.45H294a.54.54,0,0,1-.4-.91"/></g></svg>