<svg id="Layer_1" data-name="Layer 1" xmlns="http://www.w3.org/2000/svg" xmlns:xlink="http://www.w3.org/1999/xlink" viewBox="0 0 555 310"><defs><style>.cls-1{fill:none;}.cls-2{clip-path:url(#clip-path);}.cls-3{clip-path:url(#clip-path-2);}.cls-4{fill:#ed1c24;}.cls-5{fill:#03b9e4;}.cls-6{fill:#0678ab;}</style><clipPath id="clip-path"><rect class="cls-1" x="172.26" y="123.99" width="210.47" height="62.01"/></clipPath><clipPath id="clip-path-2"><rect class="cls-1" x="172.26" y="123.99" width="210.47" height="62.01"/></clipPath></defs><title>Brand_Standards-Red_Hat-Lockup_D-RGB</title><g class="cls-2"><path d="M286.36,184.54a.92.92,0,0,1-.92-.92V126.38a.93.93,0,0,1,1.85,0v57.24a.93.93,0,0,1-.93.92"/><path d="M237.63,150.92a6.06,6.06,0,0,1,.12,1.41c0,6.1-7.42,7.17-12.55,7.18-20,0-34.87-12.38-34.88-16.16a2.55,2.55,0,0,1,.09-.8l-1.5,3.72a7.67,7.67,0,0,0-.61,3c0,7.43,16.82,18.65,36,18.63,8.49,0,15-3.2,15-8.95a20.17,20.17,0,0,0-.72-4.15Z"/></g><g class="cls-3"><path class="cls-4" d="M225.2,159.51c5.13,0,12.56-1.08,12.55-7.18a6.06,6.06,0,0,0-.12-1.41l-3.07-13.27c-.71-2.92-1.34-4.25-6.47-6.81-4-2-12.65-5.38-15.22-5.38-2.39,0-3.09,3.09-5.92,3.1s-4.78-2.3-7.35-2.29-4.07,1.68-5.3,5.13c0,0-3.45,9.74-3.89,11.15a2.52,2.52,0,0,0-.09.8c0,3.78,14.91,16.18,34.88,16.16m13.35-4.7a20.17,20.17,0,0,1,.72,4.15c0,5.75-6.46,8.95-15,8.95-19.2,0-36-11.2-36-18.63a7.67,7.67,0,0,1,.61-3c-6.9.36-15.83,1.61-15.83,9.48,0,12.92,30.64,28.81,54.88,28.79,18.58,0,23.26-8.42,23.26-15.06,0-5.22-4.52-11.14-12.67-14.67"/><path class="cls-5" d="M374.79,132c10.76,10.76,9.16,29.8-3.57,42.53s-31.78,14.33-42.54,3.57-9.16-29.8,3.57-42.53S364,121.19,374.79,132"/></g><g class="cls-2"><path class="cls-6" d="M336.56,165.59l24.38-26.72a.83.83,0,0,1,1.44.71L357.7,166.3a.83.83,0,0,1-.82.69h-19.7a.84.84,0,0,1-.62-1.4"/></g></svg>