<svg id="e7e3628c-5487-4433-8e28-e317b455e34f" data-name="Layer 1" xmlns="http://www.w3.org/2000/svg" viewBox="0 0 555 230"><defs><style>.b2bc0e7a-25e5-47ed-ac2a-2def969fbd86{fill:#261a4c;}.fbe226c9-6f83-484a-a3ab-24831136afe8{fill:#e2eaf6;}.b40d7067-7c44-478c-8f8e-0be3cea173e3{fill:#e00;}.adb6b48e-0944-40b2-8145-52e65d132d2d{fill:#fff;}.b703c872-d0e8-4830-aed2-697ffecfdf4c{fill:#f3f3f3;}</style></defs><rect class="b2bc0e7a-25e5-47ed-ac2a-2def969fbd86" width="277.5" height="115"/><rect class="fbe226c9-6f83-484a-a3ab-24831136afe8" y="115" width="277.5" height="115"/><path class="b40d7067-7c44-478c-8f8e-0be3cea173e3" d="M100.20855,57.38652a13.13986,13.13986,0,0,1,.45385,2.66566c0,3.687-4.14105,5.72839-9.58529,5.72839-12.30862,0-23.0848-7.20285-23.0848-11.96732a4.84858,4.84858,0,0,1,.397-1.92835c-4.42422.22675-10.15273,1.0207-10.15273,6.0687,0,8.28083,19.625,18.49022,35.16565,18.49022,11.91144,0,14.91692-5.38793,14.91692-9.64186,0-3.347-2.89261-7.1465-8.11057-9.41544m-8.5647,3.00622c3.29017,0,8.05427-.6809,8.05427-4.59437a3.73262,3.73262,0,0,0-.08157-.90046l-1.95988-8.51479c-.4544-1.87167-.85091-2.72266-4.14081-4.36749-2.55241-1.30422-8.11084-3.45945-9.75568-3.45945-1.53146,0-1.98481,1.98475-3.80011,1.98475-1.75793,0-3.06255-1.47447-4.70742-1.47447-1.58786,0-2.60925,1.07749-3.40315,3.28977,0,0-2.21232,6.23892-2.49587,7.14591a1.6422,1.6422,0,0,0-.05839.51106c0,2.42475,9.54944,10.37954,22.34861,10.37954"/><path d="M100.20855,57.38652a13.13986,13.13986,0,0,1,.45385,2.66566c0,3.687-4.14105,5.72839-9.58529,5.72839-12.30862,0-23.0848-7.20285-23.0848-11.96732a4.84858,4.84858,0,0,1,.397-1.92835l.96435-2.38276a1.6422,1.6422,0,0,0-.05839.51106c0,2.42475,9.54944,10.37954,22.34861,10.37954,3.29017,0,8.05427-.6809,8.05427-4.59437a3.73262,3.73262,0,0,0-.08157-.90046l.592,2.48861Z"/><path class="adb6b48e-0944-40b2-8145-52e65d132d2d" d="M117.70366,67.235h4.736V60.13105h3.64947l3.67729,7.10393h5.377L130.86,59.447a5.89036,5.89036,0,0,0,3.67144-5.47934c0-3.50469-2.75371-6.20266-6.87027-6.20266h-9.95748v19.47Zm9.54859-15.26028a2.25232,2.25232,0,1,1,0,4.47284h-4.81264V51.9747Zm7.5253,7.95005a7.68517,7.68517,0,0,0,7.96929,7.58173,8.78263,8.78263,0,0,0,6.11516-2.21379l-2.96076-2.62856a3.96439,3.96439,0,0,1-2.93313,1.10676,3.783,3.783,0,0,1-3.59722-2.3243h10.432V60.33971c0-4.64861-3.12678-7.99679-7.38808-7.99679a7.51872,7.51872,0,0,0-7.63724,7.58183m7.53174-3.95976a3.2377,3.2377,0,0,1,3.07153,2.3243h-6.11517a3.04821,3.04821,0,0,1,3.04364-2.3243m20.38589,11.27H167.168V46.89718l-4.736.9684v5.56869a12.35312,12.35312,0,0,0-3.60379-.96856,7.5129,7.5129,0,1,0-.1384,15.02507,7.00391,7.00391,0,0,0,4.0053-1.27266V67.235Zm-6.94527-7.27055a3.7064,3.7064,0,0,1,3.84612-3.7078,4.535,4.535,0,0,1,3.09915,1.13453v5.11905a4.307,4.307,0,0,1-3.09915,1.16215,3.723,3.723,0,0,1-3.84612-3.70793M173.74572,67.235h4.736V59.60484h7.89325V67.235h4.736V47.765h-4.736V55.3951h-7.89325V47.765h-4.736v19.47Zm24.3344.24916a6.972,6.972,0,0,0,4.08129-1.13453V67.235h4.47285V57.85471c0-3.56956-2.4322-5.53413-6.48557-5.53413a16.59535,16.59535,0,0,0-6.90476,1.60485l1.62119,3.29283a12.18565,12.18565,0,0,1,4.47283-1.16215c1.8732,0,2.82346.71945,2.82346,2.18593v.71944a13.25663,13.25663,0,0,0-3.35455-.41508c-3.80192,0-6.09429,1.57723-6.09429,4.39973,0,2.57338,2.06882,4.538,5.36755,4.538m-1.27322-4.559c0-.96839.96849-1.43886,2.43506-1.43886a11.244,11.244,0,0,1,2.65635.3321V63.7a5.65656,5.65656,0,0,1-2.79474.69192c-1.43868,0-2.29667-.55355-2.29667-1.46672m13.774-.03044c0,3.12678,1.87724,4.64859,5.29993,4.64859a13.68476,13.68476,0,0,0,3.11953-.44255v-3.679a6.49613,6.49613,0,0,1-2.0149.30368c-1.40765,0-1.93172-.44169-1.93172-1.76637V56.44754h4.20973V52.764h-4.20973V48.03231l-4.47284.96842V52.764h-2.89419v3.68352h2.89419v6.44718Z"/><rect class="b40d7067-7c44-478c-8f8e-0be3cea173e3" x="277.5" y="115" width="277.5" height="115"/><path class="adb6b48e-0944-40b2-8145-52e65d132d2d" d="M377.70855,172.38652a13.13986,13.13986,0,0,1,.45385,2.66566c0,3.687-4.14105,5.72839-9.58529,5.72839-12.30862,0-23.0848-7.20285-23.0848-11.96732a4.84858,4.84858,0,0,1,.397-1.92835c-4.42422.22675-10.15273,1.0207-10.15273,6.0687,0,8.28083,19.62495,18.49022,35.16565,18.49022,11.91144,0,14.91692-5.38793,14.91692-9.64186,0-3.347-2.89261-7.1465-8.11057-9.41544m-8.5647,3.00622c3.29017,0,8.05427-.6809,8.05427-4.59437a3.73262,3.73262,0,0,0-.08157-.90046l-1.95988-8.51479c-.4544-1.87167-.85091-2.72266-4.14081-4.36749-2.55241-1.30422-8.11084-3.45945-9.75568-3.45945-1.53146,0-1.98481,1.98475-3.80011,1.98475-1.75793,0-3.06255-1.47447-4.70742-1.47447-1.58786,0-2.60925,1.07749-3.40315,3.28977,0,0-2.21232,6.23892-2.49587,7.14591a1.6422,1.6422,0,0,0-.05839.51106c0,2.42475,9.54944,10.37954,22.34861,10.37954"/><path class="adb6b48e-0944-40b2-8145-52e65d132d2d" d="M395.20366,182.235h4.736V175.131h3.64947l3.67729,7.10393h5.377L408.36,174.447a5.89036,5.89036,0,0,0,3.67144-5.47934c0-3.50469-2.75371-6.20266-6.87027-6.20266h-9.95748v19.47Zm9.54859-15.26028a2.25232,2.25232,0,1,1,0,4.47284h-4.81264V166.9747Zm7.5253,7.95a7.68517,7.68517,0,0,0,7.96929,7.58173,8.78263,8.78263,0,0,0,6.11516-2.21379l-2.96076-2.62856a3.96439,3.96439,0,0,1-2.93313,1.10676,3.783,3.783,0,0,1-3.59722-2.3243h10.432v-1.10688c0-4.64861-3.12678-7.99679-7.38808-7.99679a7.51872,7.51872,0,0,0-7.63724,7.58183m7.53174-3.95976a3.2377,3.2377,0,0,1,3.07153,2.3243h-6.11517a3.04821,3.04821,0,0,1,3.04364-2.3243m20.38589,11.27H444.668v-20.3378l-4.736.9684v5.56869a12.35312,12.35312,0,0,0-3.60379-.96856,7.5129,7.5129,0,1,0-.1384,15.02507,7.00391,7.00391,0,0,0,4.0053-1.27266V182.235Zm-6.94527-7.27055a3.7064,3.7064,0,0,1,3.84612-3.7078,4.535,4.535,0,0,1,3.09915,1.13453v5.119a4.307,4.307,0,0,1-3.09915,1.16215,3.723,3.723,0,0,1-3.84612-3.70793m17.99581,7.27055h4.736v-7.63014h7.89325V182.235h4.736v-19.47h-4.736v7.63014h-7.89325V162.765h-4.736v19.47Zm24.3344.24916a6.972,6.972,0,0,0,4.08129-1.13453v.88537h4.47285v-9.38027c0-3.56956-2.4322-5.53413-6.48557-5.53413a16.59535,16.59535,0,0,0-6.90476,1.60485l1.62119,3.29283a12.18565,12.18565,0,0,1,4.47283-1.16215c1.8732,0,2.82346.71945,2.82346,2.18593v.71944a13.25663,13.25663,0,0,0-3.35455-.41508c-3.80192,0-6.09429,1.57723-6.09429,4.39973,0,2.57338,2.06882,4.538,5.36755,4.538m-1.27322-4.559c0-.96839.96849-1.43886,2.43506-1.43886a11.244,11.244,0,0,1,2.65635.3321V178.7a5.65656,5.65656,0,0,1-2.79474.69192c-1.43868,0-2.29667-.55355-2.29667-1.46672m13.774-.03044c0,3.12678,1.87724,4.64859,5.29993,4.64859a13.68476,13.68476,0,0,0,3.11953-.44255v-3.679a6.49613,6.49613,0,0,1-2.0149.30368c-1.40765,0-1.93172-.44169-1.93172-1.76637v-5.51152h4.20973V167.764h-4.20973v-4.73171l-4.47284.96842V167.764h-2.89419v3.68352h2.89419v6.44718Z"/><path d="M100.20855,172.38652a13.13986,13.13986,0,0,1,.45385,2.66566c0,3.687-4.14105,5.72839-9.58529,5.72839-12.30862,0-23.0848-7.20285-23.0848-11.96732a4.84858,4.84858,0,0,1,.397-1.92835c-4.42422.22675-10.15273,1.0207-10.15273,6.0687,0,8.28083,19.625,18.49022,35.16565,18.49022,11.91144,0,14.91692-5.38793,14.91692-9.64186,0-3.347-2.89261-7.1465-8.11057-9.41544m-8.5647,3.00622c3.29017,0,8.05427-.6809,8.05427-4.59437a3.73262,3.73262,0,0,0-.08157-.90046l-1.95988-8.51479c-.4544-1.87167-.85091-2.72266-4.14081-4.36749-2.55241-1.30422-8.11084-3.45945-9.75568-3.45945-1.53146,0-1.98481,1.98475-3.80011,1.98475-1.75793,0-3.06255-1.47447-4.70742-1.47447-1.58786,0-2.60925,1.07749-3.40315,3.28977,0,0-2.21232,6.23892-2.49587,7.14591a1.6422,1.6422,0,0,0-.05839.51106c0,2.42475,9.54944,10.37954,22.34861,10.37954"/><path d="M117.70366,182.235h4.736V175.131h3.64947l3.67729,7.10393h5.377L130.86,174.447a5.89036,5.89036,0,0,0,3.67144-5.47934c0-3.50469-2.75371-6.20266-6.87027-6.20266h-9.95748v19.47Zm9.54859-15.26028a2.25232,2.25232,0,1,1,0,4.47284h-4.81264V166.9747Zm7.5253,7.95a7.68517,7.68517,0,0,0,7.96929,7.58173,8.78263,8.78263,0,0,0,6.11516-2.21379l-2.96076-2.62856a3.96439,3.96439,0,0,1-2.93313,1.10676,3.783,3.783,0,0,1-3.59722-2.3243h10.432v-1.10688c0-4.64861-3.12678-7.99679-7.38808-7.99679a7.51872,7.51872,0,0,0-7.63724,7.58183m7.53174-3.95976a3.2377,3.2377,0,0,1,3.07153,2.3243h-6.11517a3.04821,3.04821,0,0,1,3.04364-2.3243m20.38589,11.27H167.168v-20.3378l-4.736.9684v5.56869a12.35312,12.35312,0,0,0-3.60379-.96856,7.5129,7.5129,0,1,0-.1384,15.02507,7.00391,7.00391,0,0,0,4.0053-1.27266V182.235Zm-6.94527-7.27055a3.7064,3.7064,0,0,1,3.84612-3.7078,4.535,4.535,0,0,1,3.09915,1.13453v5.119a4.307,4.307,0,0,1-3.09915,1.16215,3.723,3.723,0,0,1-3.84612-3.70793m17.99581,7.27055h4.736v-7.63014h7.89325V182.235h4.736v-19.47h-4.736v7.63014h-7.89325V162.765h-4.736v19.47Zm24.3344.24916a6.972,6.972,0,0,0,4.08129-1.13453v.88537h4.47285v-9.38027c0-3.56956-2.4322-5.53413-6.48557-5.53413a16.59535,16.59535,0,0,0-6.90476,1.60485l1.62119,3.29283a12.18565,12.18565,0,0,1,4.47283-1.16215c1.8732,0,2.82346.71945,2.82346,2.18593v.71944a13.25663,13.25663,0,0,0-3.35455-.41508c-3.80192,0-6.09429,1.57723-6.09429,4.39973,0,2.57338,2.06882,4.538,5.36755,4.538m-1.27322-4.559c0-.96839.96849-1.43886,2.43506-1.43886a11.244,11.244,0,0,1,2.65635.3321V178.7a5.65656,5.65656,0,0,1-2.79474.69192c-1.43868,0-2.29667-.55355-2.29667-1.46672m13.774-.03044c0,3.12678,1.87724,4.64859,5.29993,4.64859a13.68476,13.68476,0,0,0,3.11953-.44255v-3.679a6.49613,6.49613,0,0,1-2.0149.30368c-1.40765,0-1.93172-.44169-1.93172-1.76637v-5.51152h4.20973V167.764h-4.20973v-4.73171l-4.47284.96842V167.764h-2.89419v3.68352h2.89419v6.44718Z"/><rect class="b703c872-d0e8-4830-aed2-697ffecfdf4c" x="277.5" width="277.5" height="115"/><path class="b40d7067-7c44-478c-8f8e-0be3cea173e3" d="M377.70855,57.38652a13.13986,13.13986,0,0,1,.45385,2.66566c0,3.687-4.14105,5.72839-9.58529,5.72839-12.30862,0-23.0848-7.20285-23.0848-11.96732a4.84858,4.84858,0,0,1,.397-1.92835c-4.42422.22675-10.15273,1.0207-10.15273,6.0687,0,8.28083,19.62495,18.49022,35.16565,18.49022,11.91144,0,14.91692-5.38793,14.91692-9.64186,0-3.347-2.89261-7.1465-8.11057-9.41544m-8.5647,3.00622c3.29017,0,8.05427-.6809,8.05427-4.59437a3.73262,3.73262,0,0,0-.08157-.90046l-1.95988-8.51479c-.4544-1.87167-.85091-2.72266-4.14081-4.36749-2.55241-1.30422-8.11084-3.45945-9.75568-3.45945-1.53146,0-1.98481,1.98475-3.80011,1.98475-1.75793,0-3.06255-1.47447-4.70742-1.47447-1.58786,0-2.60925,1.07749-3.40315,3.28977,0,0-2.21232,6.23892-2.49587,7.14591a1.6422,1.6422,0,0,0-.05839.51106c0,2.42475,9.54944,10.37954,22.34861,10.37954"/><path d="M377.70855,57.38652a13.13986,13.13986,0,0,1,.45385,2.66566c0,3.687-4.14105,5.72839-9.58529,5.72839-12.30862,0-23.0848-7.20285-23.0848-11.96732a4.84858,4.84858,0,0,1,.397-1.92835l.96435-2.38276a1.6422,1.6422,0,0,0-.05839.51106c0,2.42475,9.54944,10.37954,22.34861,10.37954,3.29017,0,8.05427-.6809,8.05427-4.59437a3.73262,3.73262,0,0,0-.08157-.90046l.592,2.48861Z"/><path d="M395.20366,67.235h4.736V60.13105h3.64947l3.67729,7.10393h5.377L408.36,59.447a5.89036,5.89036,0,0,0,3.67144-5.47934c0-3.50469-2.75371-6.20266-6.87027-6.20266h-9.95748v19.47Zm9.54859-15.26028a2.25232,2.25232,0,1,1,0,4.47284h-4.81264V51.9747Zm7.5253,7.95005a7.68517,7.68517,0,0,0,7.96929,7.58173,8.78263,8.78263,0,0,0,6.11516-2.21379l-2.96076-2.62856a3.96439,3.96439,0,0,1-2.93313,1.10676,3.783,3.783,0,0,1-3.59722-2.3243h10.432V60.33971c0-4.64861-3.12678-7.99679-7.38808-7.99679a7.51872,7.51872,0,0,0-7.63724,7.58183m7.53174-3.95976a3.2377,3.2377,0,0,1,3.07153,2.3243h-6.11517a3.04821,3.04821,0,0,1,3.04364-2.3243m20.38589,11.27H444.668V46.89718l-4.736.9684v5.56869a12.35312,12.35312,0,0,0-3.60379-.96856,7.5129,7.5129,0,1,0-.1384,15.02507,7.00391,7.00391,0,0,0,4.0053-1.27266V67.235Zm-6.94527-7.27055a3.7064,3.7064,0,0,1,3.84612-3.7078,4.535,4.535,0,0,1,3.09915,1.13453v5.11905a4.307,4.307,0,0,1-3.09915,1.16215,3.723,3.723,0,0,1-3.84612-3.70793M451.24572,67.235h4.736V59.60484h7.89325V67.235h4.736V47.765h-4.736V55.3951h-7.89325V47.765h-4.736v19.47Zm24.3344.24916a6.972,6.972,0,0,0,4.08129-1.13453V67.235h4.47285V57.85471c0-3.56956-2.4322-5.53413-6.48557-5.53413a16.59535,16.59535,0,0,0-6.90476,1.60485l1.62119,3.29283a12.18565,12.18565,0,0,1,4.47283-1.16215c1.8732,0,2.82346.71945,2.82346,2.18593v.71944a13.25663,13.25663,0,0,0-3.35455-.41508c-3.80192,0-6.09429,1.57723-6.09429,4.39973,0,2.57338,2.06882,4.538,5.36755,4.538m-1.27322-4.559c0-.96839.96849-1.43886,2.43506-1.43886a11.244,11.244,0,0,1,2.65635.3321V63.7a5.65656,5.65656,0,0,1-2.79474.69192c-1.43868,0-2.29667-.55355-2.29667-1.46672m13.774-.03044c0,3.12678,1.87724,4.64859,5.29993,4.64859a13.68476,13.68476,0,0,0,3.11953-.44255v-3.679a6.49613,6.49613,0,0,1-2.0149.30368c-1.40765,0-1.93172-.44169-1.93172-1.76637V56.44754h4.20973V52.764h-4.20973V48.03231l-4.47284.96842V52.764h-2.89419v3.68352h2.89419v6.44718Z"/></svg>