<svg xmlns="http://www.w3.org/2000/svg" width="560" height="290" viewBox="0 0 560 290"><defs><style>.a{fill:#e2eaf6;}.b{fill:#316dc1;}.c{fill:#fff;}</style></defs><rect class="a" width="560" height="290"/><rect class="b" x="50.75919" y="60.30662" width="327.58473" height="48.95367"/><rect class="b" x="50.75919" y="129.17507" width="284.88829" height="48.95367"/><path class="c" d="M54.364,65.01494H88.7527v5.35693H74.58278v34.96436H68.53444V70.37187H54.364Z"/><path class="c" d="M93.13454,65.01494l5.76025-1.26709V78.95439a12.075,12.075,0,0,1,8.813-3.51367c6.73975,0,11.46289,4.666,11.46289,11.46289v18.43262h-5.76025V87.88262c0-4.60791-2.82227-7.43067-7.25782-7.43067a8.28605,8.28605,0,0,0-7.25781,3.80176v21.08252H93.13454Z"/><path class="c" d="M139.85329,105.85478a15.08746,15.08746,0,0,1-15.37989-15.207A14.73243,14.73243,0,0,1,139.16188,75.556c8.06445,0,14.16992,6.68213,14.16992,15.32226v1.67041H130.176a9.88907,9.88907,0,0,0,9.90723,8.40967,11.40346,11.40346,0,0,0,7.43066-2.5918l3.68653,3.62891A17.488,17.488,0,0,1,139.85329,105.85478Zm-9.61963-17.62646h17.39551c-.86377-4.49268-4.31983-7.8335-8.58252-7.8335C134.6111,80.39482,131.09743,83.56279,130.23366,88.22832Z"/><path class="c" d="M171.53981,65.01494h18.31738c8.00684,0,13.42139,4.83838,13.42139,11.92334,0,5.29981-3.22607,9.38916-8.29492,11.05957l8.98584,17.33838h-6.68164l-8.35254-16.53174H177.58766v16.53174h-6.04785Zm6.04785,5.29932v13.479h11.751c4.72363,0,7.834-2.70752,7.834-6.73975,0-4.08935-3.11035-6.73925-7.834-6.73925Z"/><path class="c" d="M221.13991,105.85478A15.08745,15.08745,0,0,1,205.76,90.64775,14.73242,14.73242,0,0,1,220.4485,75.556c8.06446,0,14.16992,6.68213,14.16992,15.32226v1.67041H211.46266a9.88907,9.88907,0,0,0,9.90723,8.40967,11.40346,11.40346,0,0,0,7.43066-2.5918l3.68653,3.62891A17.488,17.488,0,0,1,221.13991,105.85478Zm-9.61963-17.62646h17.39551c-.86377-4.49268-4.31983-7.8335-8.58252-7.8335C215.89772,80.39482,212.38405,83.56279,211.52028,88.22832Z"/><path class="c" d="M262.67458,102.57109a13.84819,13.84819,0,0,1-8.98584,3.22608A15.12072,15.12072,0,1,1,262.617,78.43633V65.01494l5.76025-1.26709v41.58838h-5.70263Zm-8.17969-1.78564a10.56487,10.56487,0,0,0,8.12207-3.51367V83.96611a10.71919,10.71919,0,0,0-8.12207-3.45654,10.13944,10.13944,0,0,0,0,20.27588Z"/><path class="c" d="M287.90993,65.01494h6.04785V82.2957H315.386V65.01494h6.04834v40.32129H315.386V87.76787H293.95778v17.56836h-6.04785Z"/><path class="c" d="M326.91139,96.92656c0-5.52978,4.49317-8.92871,11.86621-8.92871a20.694,20.694,0,0,1,8.00635,1.61328V86.50029c0-4.14746-2.47656-6.2207-7.14258-6.2207-2.707,0-5.47216.74853-9.10107,2.47656L328.409,78.43633A27.44227,27.44227,0,0,1,340.448,75.44072c7.60352,0,11.981,3.74414,11.981,10.48389v19.41162h-5.645v-2.53467a13.90824,13.90824,0,0,1-9.10107,3.05322C331.28932,105.85478,326.91139,102.22588,326.91139,96.92656Zm12.09619,4.66553a11.274,11.274,0,0,0,7.77637-2.76465V93.7581a15.22967,15.22967,0,0,0-7.5459-1.78564c-4.20459,0-6.79687,1.90088-6.79687,4.83887C332.44118,99.63359,335.09108,101.59209,339.00758,101.59209Z"/><path class="c" d="M361.7068,80.85527h-6.22119V76.01689h6.22119V68.52861l5.70264-1.38232v8.8706h8.64014v4.83838h-8.64014V96.75371c0,2.99512,1.20947,4.08936,4.32031,4.08936a11.31193,11.31193,0,0,0,4.20459-.69092v4.83838a19.073,19.073,0,0,1-5.47217.86425c-5.70263,0-8.75537-2.70752-8.75537-7.77636Z"/><path class="c" d="M61.16139,145.14775v-4.43554c0-6.10547,3.51367-9.44678,9.96485-9.44678a15.11641,15.11641,0,0,1,4.14746.51855v5.01123a11.5331,11.5331,0,0,0-3.62891-.51806c-3.168,0-4.72314,1.43994-4.72314,4.55029v4.32031H75.2737v4.83838H66.92165v24.481H61.16139v-24.481H54.364v-4.83838Z"/><path class="c" d="M92.38405,144.57158a15.23587,15.23587,0,1,1-15.26465,15.207A15.04782,15.04782,0,0,1,92.38405,144.57158Zm9.56152,15.207c0-5.70263-4.2622-10.13818-9.56152-10.13818-5.35693,0-9.61963,4.43555-9.61963,10.13818s4.20508,10.19532,9.61963,10.19532C97.68337,169.97393,101.94557,165.48125,101.94557,159.77861Z"/><path class="c" d="M113.06715,145.14775h5.76026v2.9375a12.075,12.075,0,0,1,8.813-3.51367c6.73974,0,11.46289,4.666,11.46289,11.46289v18.43262H133.343V157.01348c0-4.60791-2.82226-7.43067-7.25781-7.43067a8.28605,8.28605,0,0,0-7.25781,3.80176v21.08252h-5.76026Z"/><path class="c" d="M148.38063,149.98613h-6.22119v-4.83838h6.22119v-7.48828l5.70264-1.38232v8.8706h8.64013v4.83838h-8.64013v15.89844c0,2.99512,1.20947,4.08936,4.32031,4.08936a11.31193,11.31193,0,0,0,4.20459-.69092v4.83838a19.073,19.073,0,0,1-5.47217.86425c-5.70263,0-8.75537-2.70752-8.75537-7.77636Z"/><path class="c" d="M183.407,145.14775v-4.43554c0-6.10547,3.51367-9.44678,9.96484-9.44678a15.11631,15.11631,0,0,1,4.14746.51855v5.01123a11.533,11.533,0,0,0-3.6289-.51806c-3.168,0-4.72315,1.43994-4.72315,4.55029v4.32031h8.352v4.83838h-8.352v24.481H183.407v-24.481h-6.79737v-4.83838Z"/><path class="c" d="M200.05592,166.05742c0-5.52978,4.49317-8.92871,11.86621-8.92871a20.694,20.694,0,0,1,8.00635,1.61328v-3.11084c0-4.14746-2.47656-6.2207-7.14258-6.2207-2.707,0-5.47216.74853-9.10107,2.47656l-2.13135-4.31982a27.44227,27.44227,0,0,1,12.03906-2.99561c7.60352,0,11.981,3.74414,11.981,10.48389v19.41162h-5.645v-2.53467a13.90822,13.90822,0,0,1-9.10107,3.05322C204.43385,174.98564,200.05592,171.35674,200.05592,166.05742Zm12.0962,4.66553a11.27395,11.27395,0,0,0,7.77636-2.76465V162.889a15.22967,15.22967,0,0,0-7.5459-1.78564c-4.20459,0-6.79687,1.90088-6.79687,4.83887C205.58571,168.76445,208.23561,170.723,212.15212,170.723Z"/><path class="c" d="M232.20143,145.14775h5.76026v2.76465a11.25146,11.25146,0,0,1,8.2373-3.34082,10.21512,10.21512,0,0,1,9.04346,4.89649,11.74175,11.74175,0,0,1,9.90722-4.89649c6.45166,0,11.002,4.666,11.002,11.46289v18.43262h-5.76026V157.01348c0-4.60791-2.59179-7.43067-6.73925-7.43067a7.82,7.82,0,0,0-6.8545,3.917,12.20583,12.20583,0,0,1,.23047,2.53467v18.43262h-5.70263V157.01348c0-4.60791-2.59229-7.43067-6.73975-7.43067a7.68185,7.68185,0,0,0-6.624,3.57178v21.3125h-5.76026Z"/><path class="c" d="M282.14821,136.85283a3.54055,3.54055,0,0,1,3.51416-3.57129,3.57129,3.57129,0,0,1,0,7.14258A3.54054,3.54054,0,0,1,282.14821,136.85283Zm6.394,37.61426H282.782V145.14775h5.76025Z"/><path class="c" d="M301.10036,174.46709H295.3401V134.1458l5.76026-1.26709Z"/><path class="c" d="M316.366,174.58232l-11.69336-29.43457h6.33594l8.583,22.40723,9.44678-22.40723h6.2207l-14.16992,32.833c-2.70752,6.27881-5.81787,8.75537-11.23242,8.75537a11.15226,11.15226,0,0,1-3.05274-.34521v-5.06934a11.38376,11.38376,0,0,0,2.5918.23047c2.6499,0,4.55078-1.38232,5.81787-4.31982Z"/><path d="M54.78639,224.33525h4.51953c2.10987,0,3.51172,1.27539,3.51172,3.18116a3,3,0,0,1-2.29931,2.97607L62.865,235.3582H61.52614l-2.23584-4.70849H55.99879v4.70849h-1.2124Zm1.2124,1.0708v4.23584h3.2129a2.13379,2.13379,0,1,0,0-4.23584Z"/><path d="M67.82643,235.4998a3.83513,3.83513,0,0,1-3.811-3.98388,3.74,3.74,0,0,1,3.62207-3.96826,3.63024,3.63024,0,0,1,3.52734,3.874v.34619H65.13356a2.80018,2.80018,0,0,0,2.74023,2.72412,3.13916,3.13916,0,0,0,2.10987-.78711l.72412.77149A4.48533,4.48533,0,0,1,67.82643,235.4998ZM65.16481,230.949H70.031a2.53773,2.53773,0,0,0-2.40918-2.40918A2.567,2.567,0,0,0,65.16481,230.949Z"/><path d="M78.80251,234.33476a3.02686,3.02686,0,0,1-2.45606,1.13379,3.96412,3.96412,0,0,1,.0625-7.88964,3.12753,3.12753,0,0,1,2.39356,1.07128v-4.55126l1.1499-.23584V235.3582h-1.1499Zm-2.17286.126a2.63181,2.63181,0,0,0,2.17286-1.02344v-3.811a2.84286,2.84286,0,1,0-2.17286,4.83447Z"/><path d="M86.18922,224.33525h1.21241V229.264h6.33056v-4.92871H94.9446v11.023H93.73219v-5.00781H87.40163v5.00781H86.18922Z"/><path d="M96.93,233.15361c0-1.37011,1.1499-2.2832,2.88183-2.2832a4.45,4.45,0,0,1,2.34619.59814v-1.05468a1.73042,1.73042,0,0,0-1.98388-1.90577,5.07022,5.07022,0,0,0-2.33057.66163l-.42529-.88184a6.58381,6.58381,0,0,1,2.89746-.74023c1.90527,0,2.97607.96044,2.97607,2.70849v5.10205H102.158v-.89746a3.29821,3.29821,0,0,1-2.44043,1.03906C98.07985,235.4998,96.93,234.53935,96.93,233.15361Zm3.02343,1.46436a3.04068,3.04068,0,0,0,2.20459-.88184v-1.48a4.05513,4.05513,0,0,0-2.17285-.55127c-1.18115,0-1.95263.5669-1.95263,1.417C98.03249,234.01982,98.804,234.618,99.95338,234.618Z"/><path d="M106.30055,228.61846h-1.59033v-.94483h1.59033v-2.11035l1.14942-.26758v2.37793H109.655v.94483H107.45V233.327c0,.81885.31543,1.14942,1.11816,1.14942a2.76659,2.76659,0,0,0,1.08691-.20459v1.02343a4.32229,4.32229,0,0,1-1.33886.20459c-1.32276,0-2.01563-.6455-2.01563-1.874Z"/><path d="M115.22975,224.33525h3.65332a5.51148,5.51148,0,1,1,0,11.023h-3.65332Zm1.2124,1.08643v8.8501h2.51954a4.43083,4.43083,0,0,0,0-8.8501Z"/><path d="M126.22292,224.94951a.8267.8267,0,0,1,1.65332,0,.8267.8267,0,1,1-1.65332,0Zm1.40136,10.40869h-1.14941v-7.68457h1.14941Z"/><path d="M129.86061,233.61016a4.00643,4.00643,0,0,0,2.47217.96093c1.11816,0,1.937-.583,1.937-1.38574,0-.62988-.40967-.96094-1.38574-1.1499l-1.25977-.22022c-1.49609-.26757-2.17334-.89746-2.17334-2.01562,0-1.32276,1.14942-2.25195,2.77149-2.25195a4.97059,4.97059,0,0,1,2.9292.96044l-.5669.80323a4.077,4.077,0,0,0-2.40918-.81885c-1.00781,0-1.66943.47217-1.66943,1.228,0,.62988.33057.9292,1.32275,1.10254l1.291.23632c1.54346.28321,2.23633.92872,2.23633,2.0625,0,1.33887-1.291,2.37793-2.99219,2.37793a4.3799,4.3799,0,0,1-3.11768-1.13379Z"/><path d="M137.10524,227.67363H138.239v1.10254a3.03068,3.03068,0,0,1,2.48779-1.19726,3.96409,3.96409,0,0,1-.063,7.88964,3.11578,3.11578,0,0,1-2.40918-1.0708v4.25147h-1.14941Zm1.14941,1.96826v3.76368a2.7008,2.7008,0,0,0,2.189,1.0708,2.95661,2.95661,0,0,0,0-5.88965A2.62407,2.62407,0,0,0,138.25465,229.64189Z"/><path d="M147.43629,235.3582h-1.14941V224.09893l1.14941-.23584Z"/><path d="M149.38893,233.15361c0-1.37011,1.1499-2.2832,2.88184-2.2832a4.4501,4.4501,0,0,1,2.34619.59814v-1.05468a1.73042,1.73042,0,0,0-1.98389-1.90577,5.07021,5.07021,0,0,0-2.33056.66163l-.4253-.88184a6.58384,6.58384,0,0,1,2.89746-.74023c1.90528,0,2.97608.96044,2.97608,2.70849v5.10205H154.617v-.89746a3.29823,3.29823,0,0,1-2.44043,1.03906C150.53883,235.4998,149.38893,234.53935,149.38893,233.15361Zm3.02344,1.46436a3.0407,3.0407,0,0,0,2.20459-.88184v-1.48a4.05516,4.05516,0,0,0-2.17285-.55127c-1.18115,0-1.95264.5669-1.95264,1.417C150.49147,234.01982,151.263,234.618,152.41237,234.618Z"/><path d="M159.94069,235.34258l-2.96045-7.66895h1.27539l2.33057,6.31446,2.47217-6.31446h1.27539l-3.81055,9.25928c-.48828,1.24414-1.0708,1.70068-2.20459,1.70068a2.62734,2.62734,0,0,1-.74024-.11035V237.4998a2.67534,2.67534,0,0,0,.62989.063c.58252,0,.94482-.28369,1.22851-.97607Z"/><path class="b" d="M314.41859,178.12873a5.96548,5.96548,0,0,1-5.48386,3.53862,11.9315,11.9315,0,0,1-2.53471-.23018v5.1271c.34554.03809.78631.08652,1.325.1442a15.64732,15.64732,0,0,0,1.67058.08653,11.8771,11.8771,0,0,0,4.75272-.86413,9.69288,9.69288,0,0,0,3.57188-2.76544,21.13121,21.13121,0,0,0,2.95147-5.0367Z"/></svg>