<svg xmlns="http://www.w3.org/2000/svg" viewBox="0 0 262 180">
  <defs>
    <style>
      .a13fc7e4-3c8c-47fd-aea5-2dbb04c7927a {
        fill: #e00;
      }
    </style>
  </defs>
  <g id="a7f48b59-cdf1-44d7-b0c0-545a29e73b21" data-name="Section: Red Hat Marketplace logo in use">
    <g>
      <path id="a651c7ca-d072-4173-bb7b-51b547120155" data-name="Path 20128" d="M116.16,69.08v4.3h3.75a2.18,2.18,0,0,0,.66-4.3,1.83,1.83,0,0,0-.66,0Zm-1.93-1.69h5.85c2.56,0,4.28,1.54,4.28,3.8a3.62,3.62,0,0,1-2.64,3.53l2.86,5.54h-2.13L119.79,75h-3.63v5.28h-1.93V67.39Z"/>
      <path id="e203f9b5-6144-41fb-8e79-ad63c015c96a" data-name="Path 20129" d="M127,74.8h5.55a2.79,2.79,0,0,0-5.55,0Zm3.07,5.62a4.82,4.82,0,0,1-4.91-4.72v-.13a4.71,4.71,0,0,1,4.58-4.82h.11a4.64,4.64,0,0,1,4.53,4.74.76.76,0,0,1,0,.15v.54H127a3.17,3.17,0,0,0,3.16,2.68,3.67,3.67,0,0,0,2.38-.83l1.17,1.16a5.52,5.52,0,0,1-3.62,1.23Z"/>
      <path id="f2024e67-b361-484d-9999-b3a76b4f89e7" data-name="Path 20130" d="M140.7,78.81a3.39,3.39,0,0,0,2.6-1.13V73.44a3.45,3.45,0,0,0-2.6-1.1,3.24,3.24,0,0,0,0,6.47Zm2.62.57a4.42,4.42,0,0,1-2.87,1,4.83,4.83,0,0,1,0-9.65,4.92,4.92,0,0,1,2.82.92V67.39l1.84-.4V80.26h-1.82v-.88Z"/>
      <path id="eae2a0c6-bfc0-445b-aadb-a0c048fca927" data-name="Path 20131" d="M151.37,67.39h1.93V72.9h6.84V67.39h1.93V80.26h-1.93V74.65H153.3v5.61h-1.93V67.39Z"/>
      <path id="a4228f45-34d9-4956-87af-c60d5cdd9c06" data-name="Path 20132" d="M167.67,79.06a3.57,3.57,0,0,0,2.48-.88V76.56a4.89,4.89,0,0,0-2.4-.57c-1.35,0-2.17.61-2.17,1.55s.84,1.52,2.1,1.52Zm-3.86-1.49c0-1.76,1.44-2.85,3.79-2.85a6.72,6.72,0,0,1,2.55.52v-1c0-1.33-.79-2-2.28-2a6.73,6.73,0,0,0-2.9.79l-.68-1.38a8.9,8.9,0,0,1,3.85-1c2.42,0,3.82,1.19,3.82,3.34v6.2h-1.8v-.81a4.43,4.43,0,0,1-2.9,1c-2,0-3.44-1.16-3.44-2.85Z"/>
      <path id="acd4bd6d-420e-44d1-8a63-3c0a0222fa12" data-name="Path 20133" d="M174.92,72.45h-2V70.9h2V68.51l1.82-.44V70.9h2.75v1.55h-2.75v5.07c0,1,.38,1.31,1.37,1.31a3.65,3.65,0,0,0,1.35-.23v1.55a6.14,6.14,0,0,1-1.75.27c-1.82,0-2.79-.86-2.79-2.48v-5.5Z"/>
      <path id="a2d5bc19-80a4-411f-b9cd-ab3ba7f609b3" data-name="Path 20134" d="M116.55,90.09v9.47h-2.46V86.69h3.42L121,93.6l3.53-6.91H128V99.56h-2.52V90.11L121,98.64l-4.45-8.55Z"/>
      <path id="a9915089-96ba-40d6-a4f7-ac2b4f0babbb" data-name="Path 20135" d="M133.65,97.92a3.58,3.58,0,0,0,2.11-.6V95.88a5.8,5.8,0,0,0-2-.35c-1.16,0-1.84.46-1.84,1.2s.68,1.2,1.75,1.2Zm-4.16-1.14c0-1.82,1.47-2.9,3.94-2.9a8,8,0,0,1,2.33.37v-.68c0-1.1-.68-1.67-2-1.67a7.43,7.43,0,0,0-2.92.79l-.92-1.86a10.12,10.12,0,0,1,4.26-1c2.59,0,4.08,1.29,4.08,3.55v6.21h-2.48V98.9a4.58,4.58,0,0,1-2.78.83c-2,0-3.49-1.2-3.49-2.94Z"/>
      <path id="b735e234-c8c8-47da-9bd5-e25617691f61" data-name="Path 20136" d="M140.15,90h2.52v1a3.07,3.07,0,0,1,2.56-1.27,2.26,2.26,0,0,1,1.05.22v2.21a3.38,3.38,0,0,0-1.29-.26,2.54,2.54,0,0,0-2.32,1.44v6.2h-2.52V90Z"/>
      <path id="ad87ffdc-d423-4cd0-8dbd-cc3abf2a0aba" data-name="Path 20137" d="M147.63,86.69l2.52-.55V94l4.14-4h2.85l-4.49,4.4,4.77,5.18H154.2l-4-4.38v4.38h-2.51V86.69Z"/>
      <path id="b88a40ba-9737-4d4d-af5f-c9054f251cf4" data-name="Path 20138" d="M159.43,93.82h4.69a2.47,2.47,0,0,0-2.33-1.93A2.42,2.42,0,0,0,159.43,93.82Zm2.63,5.92a5,5,0,0,1-5.14-4.82v-.14a4.88,4.88,0,0,1,4.81-5h.11a4.84,4.84,0,0,1,4.76,4.91,1.85,1.85,0,0,0,0,.23v.66h-7.14a2.76,2.76,0,0,0,2.72,2,3,3,0,0,0,2.12-.77l1.65,1.51a5.79,5.79,0,0,1-3.88,1.38Z"/>
      <path id="a75614ed-14a1-4a09-af28-886d2d055024" data-name="Path 20139" d="M169.07,92.1h-2V90h2V87.54l2.52-.57v3h2.72V92.1h-2.72v4.24c0,.9.35,1.23,1.32,1.23a3.59,3.59,0,0,0,1.34-.22v2.06a7.93,7.93,0,0,1-1.94.3c-2.14,0-3.24-1-3.24-2.85V92.09Z"/>
      <path id="a8f622da-2c9f-45dc-83c3-f3372193f92d" data-name="Path 20140" d="M178.08,92.9v3.77a3.2,3.2,0,0,0,2.28.88,2.78,2.78,0,0,0,0-5.55,3.12,3.12,0,0,0-2.28.9ZM175.56,90H178v.79a4.34,4.34,0,0,1,2.72-.92,4.92,4.92,0,0,1-.07,9.83,4.72,4.72,0,0,1-2.61-.75v4.46h-2.52Z"/>
      <path id="f928d5a3-5f1f-4864-bcf8-f23b7ddc4bff" data-name="Path 20141" d="M189.69,99.56h-2.52V86.69l2.52-.55Z"/>
      <path id="ff2d3581-f975-4921-bfb2-5d9080c26ba2" data-name="Path 20142" d="M195.36,97.92a3.58,3.58,0,0,0,2.11-.6V95.88a5.54,5.54,0,0,0-2-.35c-1.16,0-1.84.46-1.84,1.2s.68,1.2,1.75,1.2Zm-4.16-1.14c0-1.82,1.47-2.9,3.94-2.9a8,8,0,0,1,2.33.37v-.68c0-1.1-.68-1.67-2-1.67a7.43,7.43,0,0,0-2.92.79l-.92-1.86a10.16,10.16,0,0,1,4.26-1c2.59,0,4.08,1.29,4.08,3.55v6.21h-2.48V98.9a4.57,4.57,0,0,1-2.77.83c-2.06,0-3.5-1.2-3.5-2.94Z"/>
      <path id="bfc39568-a1ae-4ec1-8acc-49fc880cc638" data-name="Path 20143" d="M208.83,96.47,210.34,98a5.32,5.32,0,0,1-3.9,1.71,5,5,0,1,1-.14-9.94h.14a5.39,5.39,0,0,1,4,1.71l-1.55,1.63A3.09,3.09,0,0,0,206.49,92a2.78,2.78,0,0,0,.06,5.55,3,3,0,0,0,2.28-1.07Z"/>
      <path id="fccfb201-676e-4d9b-9cc7-41eddc4ca827" data-name="Path 20144" d="M213.35,93.82H218a2.46,2.46,0,0,0-2.33-1.93A2.42,2.42,0,0,0,213.35,93.82ZM216,99.74a5,5,0,0,1-5.14-4.82v-.14a4.88,4.88,0,0,1,4.81-5h.11a4.84,4.84,0,0,1,4.76,4.91c0,.08,0,.16,0,.23v.66h-7.14a2.76,2.76,0,0,0,2.72,2,3,3,0,0,0,2.12-.77l1.65,1.51A5.79,5.79,0,0,1,216,99.74Z"/>
      <path id="b53d14c4-5752-45c7-a52a-4c865980e308" data-name="Path 20145" class="a13fc7e4-3c8c-47fd-aea5-2dbb04c7927a" d="M78.13,83.84a10.84,10.84,0,0,1,.4,2.32c0,3.22-3.61,5-8.37,5C59.41,91.16,50,84.87,50,80.71A4.21,4.21,0,0,1,50.35,79c-3.87.2-8.87.89-8.87,5.3,0,7.23,17.14,16.15,30.71,16.15,10.4,0,13-4.71,13-8.43,0-2.92-2.52-6.24-7.08-8.22Zm-7.48,2.62c2.88,0,7-.59,7-4a3.52,3.52,0,0,0-.07-.79L75.9,74.23c-.4-1.64-.74-2.38-3.61-3.82-2.23-1.14-7.08-3-8.52-3S62,69.12,60.45,69.12s-2.67-1.28-4.11-1.28-2.28.94-3,2.87c0,0-1.93,5.45-2.18,6.24a1.38,1.38,0,0,0,0,.45c0,2.11,8.34,9.06,19.52,9.06Z"/>
      <path id="befc93e5-1c8c-4919-8f4f-d7585ae879e8" data-name="Path 20146" d="M78.13,83.83a11,11,0,0,1,.4,2.33c0,3.22-3.61,5-8.37,5C59.41,91.16,50,84.87,50,80.71A4.21,4.21,0,0,1,50.35,79L51.19,77a1.3,1.3,0,0,0,0,.44c0,2.12,8.34,9.07,19.52,9.07,2.87,0,7-.6,7-4a3,3,0,0,0-.07-.78l.52,2.17Z"/>
      <path id="e2779721-2915-4c4e-aa0a-ba7717e7c45e" data-name="Path 20147" d="M99.72,113.55a.52.52,0,0,1-.52-.51V66.24a.52.52,0,0,1,.52-.52.52.52,0,0,1,.52.52h0V113a.52.52,0,0,1-.52.52Z"/>
      <path id="a2b107a8-79c9-4792-9b36-f65aa0ba2409" data-name="Path 20148" d="M116.71,107.8a2.07,2.07,0,1,0,2,2.12v0a2,2,0,0,0-1.93-2.07Zm0,4.89a2.82,2.82,0,1,1,.06,0Z"/>
      <path id="ec98016e-c396-4574-8b83-0e3931b6de2f" data-name="Path 20149" d="M121.13,109.72v1.8a1.47,1.47,0,0,0,1.11.47,1.38,1.38,0,0,0,0-2.75,1.46,1.46,0,0,0-1.11.48Zm-.78-1.1h.77V109a1.83,1.83,0,0,1,1.22-.44,2.06,2.06,0,0,1,0,4.11,2.07,2.07,0,0,1-1.2-.39v2h-.78v-5.6Z"/>
      <path id="f0cd6a2e-01ce-40c8-bf9b-ec75a43c61cf" data-name="Path 20150" d="M125.7,110.28h2.37a1.19,1.19,0,0,0-2.37,0Zm1.31,2.4a2,2,0,0,1-2.09-2v0a2,2,0,0,1,2-2.05h0a2,2,0,0,1,1.93,2,.17.17,0,0,1,0,.07v.22H125.7A1.34,1.34,0,0,0,127,112a1.59,1.59,0,0,0,1-.35l.5.49a2.32,2.32,0,0,1-1.54.52Z"/>
      <path id="a9750fe9-0a89-4d74-b595-64c3dd7dfd1d" data-name="Path 20151" d="M129.58,108.62h.79v.51a1.25,1.25,0,0,1,1.1-.6,1.12,1.12,0,0,1,.4.07v.7a1.27,1.27,0,0,0-.47-.09,1.1,1.1,0,0,0-1,.73v2.66h-.78v-4Z"/>
      <path id="a7865888-afaf-4652-9abe-615f88bcc498" data-name="Path 20152" d="M133.93,112.1a1.5,1.5,0,0,0,1-.38V111a2,2,0,0,0-1-.25c-.57,0-.92.26-.92.66s.36.65.89.65Zm-1.65-.63c0-.75.61-1.22,1.62-1.22a2.86,2.86,0,0,1,1.08.22v-.42c0-.57-.33-.85-1-.85a2.8,2.8,0,0,0-1.23.34l-.29-.59a3.68,3.68,0,0,1,1.63-.41c1,0,1.63.51,1.63,1.43v2.64H135v-.35a1.91,1.91,0,0,1-1.23.42c-.87,0-1.47-.49-1.47-1.21Z"/>
      <path id="b9db8945-6796-47a5-aaff-cd0b73ca55d0" data-name="Path 20153" d="M137.17,109.28h-.84v-.66h.84v-1l.78-.19v1.2h1.17v.66H138v2.16c0,.41.16.56.58.56a1.56,1.56,0,0,0,.57-.1v.66a2.34,2.34,0,0,1-.74.12c-.77,0-1.19-.37-1.19-1.06v-2.34Z"/>
      <path id="a0ffea40-542d-4f95-a2f1-47617c440f04" data-name="Path 20154" d="M140.3,110.28h2.36a1.19,1.19,0,0,0-2.36,0Zm1.31,2.4a2,2,0,0,1-2.09-2v0a2,2,0,0,1,1.94-2.05h.06a2,2,0,0,1,1.92,2v.29h-3.15a1.36,1.36,0,0,0,1.35,1.15,1.59,1.59,0,0,0,1-.35l.5.49a2.34,2.34,0,0,1-1.54.52Z"/>
      <path id="b548a9ab-9c93-43e9-a170-ad9caf23bae3" data-name="Path 20155" d="M146.12,112a1.41,1.41,0,0,0,1.1-.48v-1.8a1.43,1.43,0,0,0-1.1-.47,1.38,1.38,0,0,0,0,2.75Zm1.11.24a1.81,1.81,0,0,1-1.22.44,2.06,2.06,0,0,1,0-4.11,2,2,0,0,1,1.2.39v-1.82L148,107v5.65h-.78v-.38Z"/>
      <path id="ea015299-5342-490b-9253-7998da00ae73" data-name="Path 20156" d="M151.35,109.72v1.8a1.47,1.47,0,0,0,1.11.47,1.38,1.38,0,0,0,0-2.75,1.43,1.43,0,0,0-1.11.48Zm1.2,3a2,2,0,0,1-1.2-.4v.34h-.78v-5.48l.78-.18v2a1.87,1.87,0,0,1,1.22-.44,2.06,2.06,0,0,1,0,4.11Z"/>
      <path id="ade03f43-5bfd-4f4c-aa16-41904c96b6b3" data-name="Path 20157" d="M156.47,112.62l-1.59-4h.86l1.17,3,1.28-3H159l-1.93,4.47c-.37.85-.79,1.19-1.52,1.19a2,2,0,0,1-.42,0v-.69a1.38,1.38,0,0,0,.35,0,.82.82,0,0,0,.79-.59Z"/>
      <path id="a2c111cd-10bc-4f90-93ea-7ca8e8fd2c21" data-name="Path 20158" d="M161.25,107.13h.82v5.48h-.82Z"/>
      <path id="a96672f2-185b-47f9-8918-fa998e10c647" data-name="Path 20159" d="M166.72,111c0-.54-.43-.9-1.12-.9H164v1.8h1.58c.69,0,1.12-.35,1.12-.9Zm-2.7-3.18v1.62h1.5c.61,0,1-.31,1-.81s-.4-.81-1-.81Zm1.55-.7c1.07,0,1.77.57,1.77,1.44a1.3,1.3,0,0,1-.76,1.19,1.36,1.36,0,0,1,1,1.29c0,.94-.74,1.56-1.88,1.56h-2.48v-5.48Z"/>
      <path id="b5aba623-af41-4797-854a-00487d3d1128" data-name="Path 20160" d="M169.21,108.15v4.46h-.76v-5.48h1.1l1.72,3.5,1.71-3.5h1.1v5.48h-.77v-4.47l-2.05,4.08-2-4.07Z"/>
    </g>
  </g>
</svg>
