<svg xmlns="http://www.w3.org/2000/svg" viewBox="0 0 262 180">
  <defs>
    <style>
      .a3e575f2-1102-4a37-86f8-5847e6498eb6 {
        fill: #e00;
      }
    </style>
  </defs>
  <g id="b608c1b1-19db-4600-acd8-14286435312c" data-name="Section: Red Hat Marketplace logo in use">
    <g id="aa37dfed-4b50-4979-ba22-57d9b6887ebb" data-name="Group 35741">
      <g id="e980d8e7-c475-48fd-9723-f6a710e650aa" data-name="Group 35739">
        <path id="b60d33cc-ab38-4d94-a0fc-7b32c60ef78b" data-name="Path 20403" d="M115.87,48.52v4.39h3.82A2.27,2.27,0,0,0,122.23,51c0-.08,0-.17,0-.25,0-1.33-1-2.2-2.56-2.2Zm-2-1.72h6c2.61,0,4.37,1.57,4.37,3.88a3.71,3.71,0,0,1-2.7,3.6l2.93,5.64h-2.18l-2.72-5.38h-3.69v5.38h-2Z"/>
        <path id="bf5f222f-67b3-466a-9abf-9ee024684d29" data-name="Path 20404" d="M126.92,54.36h5.66a2.85,2.85,0,0,0-5.66,0Zm3.13,5.74a4.92,4.92,0,0,1-5-4.82v-.14a4.79,4.79,0,0,1,4.68-4.91h.1a4.73,4.73,0,0,1,4.62,4.83v.7H126.9a3.23,3.23,0,0,0,3.23,2.74,3.68,3.68,0,0,0,2.42-.84l1.2,1.18a5.66,5.66,0,0,1-3.7,1.25Z"/>
        <path id="acac28b5-bf30-4b89-9fff-1c83d890263a" data-name="Path 20405" d="M140.91,58.44a3.41,3.41,0,0,0,2.64-1.14V53a3.49,3.49,0,0,0-2.64-1.13,3.3,3.3,0,1,0,0,6.6Zm2.66.59a4.59,4.59,0,0,1-2.93,1,4.93,4.93,0,1,1,2.91-8.91V46.8l1.88-.42V59.93h-1.86V59Z"/>
        <path id="ac0a47da-d508-4ea6-b117-b2d273297b8e" data-name="Path 20406" d="M151.79,46.8h2v5.62h7V46.8h2V59.93h-2V54.21h-7v5.72h-2Z"/>
        <path id="bc0548e5-75eb-4b4e-9307-a7c48bff6a8c" data-name="Path 20407" d="M168.42,58.71a3.68,3.68,0,0,0,2.53-.9V56.16a4.91,4.91,0,0,0-2.46-.59c-1.37,0-2.21.62-2.21,1.58S167.14,58.71,168.42,58.71Zm-3.94-1.52c0-1.8,1.46-2.91,3.86-2.91a6.69,6.69,0,0,1,2.61.53v-1c0-1.35-.81-2-2.33-2a6.82,6.82,0,0,0-3,.8l-.69-1.4a8.88,8.88,0,0,1,3.92-1c2.47,0,3.9,1.22,3.9,3.41v6.33H171V59.1a4.5,4.5,0,0,1-3,1c-2.08,0-3.5-1.18-3.5-2.9Z"/>
        <path id="ab19c570-8d48-4595-83f1-cda2ce573d9a" data-name="Path 20408" d="M175.81,52h-2V50.38h2V47.94l1.86-.45v2.89h2.81V52h-2.81v5.17c0,1,.4,1.34,1.41,1.34a3.79,3.79,0,0,0,1.37-.23v1.58a6.36,6.36,0,0,1-1.78.28c-1.86,0-2.86-.88-2.86-2.53V52Z"/>
        <path id="b0e8fc8d-791f-4d00-9323-393a69d5202b" data-name="Path 20409" d="M116.26,70v9.66h-2.51V66.49h3.49l3.6,7.05,3.6-7.05h3.49V79.62h-2.58V70l-4.55,8.7L116.26,70Z"/>
        <path id="bd22ffaf-c608-4315-8b47-7e0efc8e43cb" data-name="Path 20410" d="M133.7,78a3.68,3.68,0,0,0,2.16-.62V75.87a5.59,5.59,0,0,0-2.06-.36c-1.19,0-1.88.47-1.88,1.22S132.61,78,133.7,78Zm-4.24-1.16c0-1.86,1.5-3,4-3a8.06,8.06,0,0,1,2.38.38v-.7c0-1.12-.7-1.71-2.06-1.71a7.79,7.79,0,0,0-3,.81l-.93-1.89a10.1,10.1,0,0,1,4.35-1c2.64,0,4.16,1.31,4.16,3.62v6.34h-2.53v-.68a4.7,4.7,0,0,1-2.83.85c-2.1,0-3.57-1.22-3.57-3Z"/>
        <path id="bf498343-453d-4195-90a4-1b40e90cca13" data-name="Path 20411" d="M140.34,69.85h2.57v1.07a3.09,3.09,0,0,1,2.61-1.29,2.19,2.19,0,0,1,1.07.22V72.1a3.48,3.48,0,0,0-1.31-.26,2.61,2.61,0,0,0-2.37,1.46v6.32h-2.57V69.85Z"/>
        <path id="b4f5e26f-7a1c-4adb-9c01-9a3bf0143253" data-name="Path 20412" d="M148,66.49l2.57-.56v8l4.22-4.13h2.9l-4.57,4.48L158,79.62h-3.29l-4.12-4.46v4.46H148V66.49Z"/>
        <path id="b263549b-0733-4c88-8338-e0deca3d0585" data-name="Path 20413" d="M160,73.77h4.78a2.51,2.51,0,0,0-2.38-2,2.44,2.44,0,0,0-2.4,2Zm2.68,6a5.09,5.09,0,0,1-5.25-4.92v-.15a5,5,0,0,1,4.91-5.06h.12a4.92,4.92,0,0,1,4.84,5,1.93,1.93,0,0,1,0,.24v.68H160a2.81,2.81,0,0,0,2.77,2,3.06,3.06,0,0,0,2.16-.79l1.69,1.54a5.91,5.91,0,0,1-4,1.41Z"/>
        <path id="b4be9db8-818b-4398-9e26-d4e50b3fb623" data-name="Path 20414" d="M169.85,72h-2V69.85h2v-2.5l2.57-.58v3.08h2.77V72h-2.77v4.33c0,.92.35,1.26,1.35,1.26a3.79,3.79,0,0,0,1.37-.23v2.1a7.49,7.49,0,0,1-2,.3c-2.18,0-3.3-1-3.3-2.9V72Z"/>
        <path id="bc583b74-7e2e-40bc-98dc-e6ca4b69a067" data-name="Path 20415" d="M179,72.83v3.84a3.25,3.25,0,0,0,2.33.9,2.83,2.83,0,0,0,0-5.66A3.12,3.12,0,0,0,179,72.83Zm-2.57-3H179v.81a4.43,4.43,0,0,1,2.78-.94,5,5,0,1,1-.08,10A4.82,4.82,0,0,1,179,79v4.56h-2.57V69.85Z"/>
        <path id="a0e67ca5-473c-4113-9ca2-db8d4c90a982" data-name="Path 20416" d="M190.89,79.62h-2.57V66.49l2.57-.56Z"/>
        <path id="aecbddea-fe5a-4a32-89db-582d8cf5df91" data-name="Path 20417" d="M196.67,78a3.65,3.65,0,0,0,2.15-.62V75.87a5.59,5.59,0,0,0-2.06-.36c-1.18,0-1.88.47-1.88,1.22s.7,1.22,1.79,1.22Zm-4.24-1.16c0-1.86,1.5-3,4-3a8,8,0,0,1,2.38.38v-.7c0-1.12-.69-1.71-2.06-1.71a7.74,7.74,0,0,0-3,.81l-.94-1.89a10.13,10.13,0,0,1,4.35-1c2.65,0,4.17,1.31,4.17,3.62v6.34h-2.54v-.68a4.68,4.68,0,0,1-2.83.85c-2.1,0-3.56-1.22-3.56-3Z"/>
        <path id="f7797e65-17b6-4061-85f0-a92fbf703fc6" data-name="Path 20418" d="M210.42,76.47,212,78.06a5.44,5.44,0,0,1-4,1.75,5.08,5.08,0,1,1-.14-10.15H208A5.51,5.51,0,0,1,212,71.4l-1.58,1.67A3.18,3.18,0,0,0,208,71.89a2.84,2.84,0,0,0,.06,5.66,3,3,0,0,0,2.33-1.08Z"/>
        <path id="b8d74c63-5d51-410f-a269-7cc40f8e1273" data-name="Path 20419" d="M215,73.77h4.78a2.51,2.51,0,0,0-2.38-2,2.44,2.44,0,0,0-2.4,2Zm2.68,6a5.09,5.09,0,0,1-5.25-4.92v-.15a5,5,0,0,1,4.91-5.06h.12a4.92,4.92,0,0,1,4.84,5,1.93,1.93,0,0,1,0,.24v.68h-7.27a2.81,2.81,0,0,0,2.77,2,3.06,3.06,0,0,0,2.16-.79l1.69,1.54a5.91,5.91,0,0,1-4,1.41Z"/>
        <path id="a569932c-022d-4755-87d9-78060416b1bc" data-name="Path 20420" class="a3e575f2-1102-4a37-86f8-5847e6498eb6" d="M77.07,63.58a11.86,11.86,0,0,1,.4,2.37c0,3.29-3.69,5.1-8.54,5.1-11,0-20.57-6.42-20.57-10.66a4.41,4.41,0,0,1,.35-1.72c-3.94.2-9,.91-9,5.41,0,7.38,17.48,16.47,31.33,16.47,10.61,0,13.29-4.8,13.29-8.59,0-3-2.58-6.37-7.23-8.39Zm-7.63,2.67c2.93,0,7.17-.6,7.17-4.09a3.06,3.06,0,0,0-.07-.8l-1.75-7.59c-.4-1.67-.76-2.42-3.69-3.89-2.27-1.16-7.22-3.08-8.69-3.08S60.64,48.57,59,48.57s-2.73-1.32-4.2-1.32-2.33,1-3,2.93c0,0-2,5.56-2.22,6.37a1.41,1.41,0,0,0,0,.46c0,2.16,8.51,9.24,19.91,9.24Z"/>
        <path id="fe8d0a56-f696-4ece-aa46-3ec6c926c242" data-name="Path 20421" d="M77.07,63.58a12.62,12.62,0,0,1,.4,2.37c0,3.29-3.69,5.1-8.54,5.1-11,0-20.57-6.42-20.57-10.66a4.41,4.41,0,0,1,.35-1.72l.86-2.12a1.38,1.38,0,0,0,0,.45c0,2.16,8.51,9.25,19.91,9.25,2.93,0,7.18-.61,7.18-4.09a3.06,3.06,0,0,0-.08-.8l.53,2.21Z"/>
        <path id="a9c4e295-1d67-4618-bd9f-4aba7f1d03f7" data-name="Path 20422" d="M99.1,93.9a.53.53,0,0,1-.53-.53h0V45.63a.53.53,0,1,1,1.06,0V93.37a.53.53,0,0,1-.53.53Z"/>
        <path id="fefbd482-be55-4715-8d44-970918150e97" data-name="Path 20423" d="M117.78,86.69a3.1,3.1,0,1,0,3,3.17v-.08a3,3,0,0,0-2.91-3.09Zm0,7.32a4.23,4.23,0,1,1,.1,0Z"/>
        <path id="acfc84f8-315f-4e56-85bd-6830c484bb46" data-name="Path 20424" d="M124.41,89.56v2.7a2.21,2.21,0,0,0,1.66.7,2.06,2.06,0,0,0,0-4.12,2.11,2.11,0,0,0-1.66.72Zm-1.17-1.64h1.16v.57a2.72,2.72,0,0,1,1.83-.67,3.08,3.08,0,1,1-1.82,5.57v2.92h-1.17Z"/>
        <path id="adf042bb-2c05-4a48-9c3b-5ce289102d2e" data-name="Path 20425" d="M131.25,90.4h3.54a1.78,1.78,0,0,0-3.54,0Zm2,3.59a3.07,3.07,0,0,1-3.13-3v-.09A3,3,0,0,1,133,87.82h.06a3,3,0,0,1,2.89,3s0,.06,0,.1v.34h-4.71a2,2,0,0,0,2,1.71,2.32,2.32,0,0,0,1.51-.53l.75.74a3.57,3.57,0,0,1-2.31.78Z"/>
        <path id="a5286a0a-4b40-48dd-9025-e1f3562f809e" data-name="Path 20426" d="M137.07,87.92h1.17v.76a1.85,1.85,0,0,1,1.64-.89,1.51,1.51,0,0,1,.6.09v1.05a2.28,2.28,0,0,0-.69-.13,1.64,1.64,0,0,0-1.55,1.09v4h-1.17v-6Z"/>
        <path id="a413e5b4-eec6-415a-8369-6fdceaa2beb8" data-name="Path 20427" d="M143.57,93.12a2.24,2.24,0,0,0,1.58-.57v-1a3.15,3.15,0,0,0-1.53-.37c-.86,0-1.39.39-1.39,1s.54,1,1.34,1Zm-2.46-1c0-1.13.91-1.82,2.42-1.82a4.2,4.2,0,0,1,1.63.33v-.63c0-.85-.5-1.27-1.46-1.27a4.13,4.13,0,0,0-1.85.5l-.43-.88a5.58,5.58,0,0,1,2.45-.61c1.54,0,2.43.76,2.43,2.14v3.95h-1.15v-.52a2.82,2.82,0,0,1-1.85.62c-1.3,0-2.19-.74-2.19-1.81Z"/>
        <path id="f2f9d1c6-798b-4210-85e8-7d3cee2b1631" data-name="Path 20428" d="M148.42,88.9h-1.26v-1h1.26V86.39l1.17-.28v1.81h1.75v1h-1.75v3.24c0,.61.24.83.87.83a2.25,2.25,0,0,0,.86-.14v1a3.53,3.53,0,0,1-1.11.18c-1.16,0-1.78-.55-1.78-1.58V88.9Z"/>
        <path id="ed4b8b3b-7ff8-4282-b260-20b41f0b0f72" data-name="Path 20429" d="M153.11,90.4h3.54a1.78,1.78,0,0,0-3.54,0Zm2,3.59a3.07,3.07,0,0,1-3.13-3v-.09a3,3,0,0,1,2.93-3.07h.06a3,3,0,0,1,2.89,3,.38.38,0,0,1,0,.1v.34H153.1a2,2,0,0,0,2,1.71,2.32,2.32,0,0,0,1.51-.53l.75.74a3.57,3.57,0,0,1-2.31.78Z"/>
        <path id="eb760122-3bb8-4348-a0de-454b4e8c7f52" data-name="Path 20430" d="M161.84,93a2.18,2.18,0,0,0,1.65-.72V89.53a2.21,2.21,0,0,0-1.65-.7,2.07,2.07,0,0,0,0,4.13Zm1.66.36a2.84,2.84,0,0,1-1.83.66,3.08,3.08,0,1,1,0-6.16,3.12,3.12,0,0,1,1.8.59V85.68l1.17-.26v8.46H163.5v-.56Z"/>
        <path id="faf8d8a1-6223-4cca-ae7f-d92a650ca139" data-name="Path 20431" d="M169.67,89.56v2.7a2.21,2.21,0,0,0,1.66.7,2.06,2.06,0,0,0,0-4.12,2.11,2.11,0,0,0-1.66.72ZM171.46,94a3,3,0,0,1-1.81-.6v.5h-1.16V85.67l1.18-.26v3.06a2.72,2.72,0,0,1,1.81-.65,3.08,3.08,0,0,1,0,6.15Z"/>
        <path id="b75a6985-33b8-413e-92c2-b1793b597bfe" data-name="Path 20432" d="M177.33,93.91l-2.38-6h1.29L178,92.48l1.92-4.56h1.27l-2.89,6.68c-.55,1.28-1.18,1.78-2.28,1.78a2.15,2.15,0,0,1-.62-.07v-1a3.05,3.05,0,0,0,.52,0,1.25,1.25,0,0,0,1.19-.88l.23-.54Z"/>
        <path id="f2b39744-2300-44e5-8218-446c83979656" data-name="Path 20433" d="M184.49,85.68h1.23v8.2h-1.23Z"/>
        <path id="b73d0aa0-e110-4b51-b220-b152c4362ac0" data-name="Path 20434" d="M192.69,91.49c0-.81-.66-1.35-1.68-1.35h-2.38v2.7H191c1,0,1.68-.52,1.68-1.34Zm-4.06-4.77v2.44h2.25c.93,0,1.52-.47,1.52-1.22s-.59-1.22-1.52-1.22Zm2.32-1c1.61,0,2.66.85,2.66,2.17a1.93,1.93,0,0,1-1.13,1.77,2.06,2.06,0,0,1,1.45,1.93c0,1.4-1.11,2.33-2.83,2.33h-3.7V85.67Z"/>
        <path id="fbcb1530-a881-4208-9052-7019bbe8d714" data-name="Path 20435" d="M196.41,87.2v6.68h-1.14v-8.2h1.64l2.58,5.24,2.56-5.24h1.64v8.2h-1.16V87.19l-3.06,6.11-3.06-6.1Z"/>
      </g>
      <g id="e849d6f3-8755-4667-a0e7-92e786af7d7b" data-name="Group 35740">
        <path id="bdcceaf7-a6bf-41df-9784-b4244c605fc0" data-name="Path 20436" d="M190.14,132.31c.07,0,.1,0,.1-.09v-.06s0-.08-.1-.08H190v.23Zm-.14.42h-.2v-.81h.36a.26.26,0,0,1,.28.22v0a.24.24,0,0,1-.15.24l.18.31h-.21l-.15-.27H190v.27Zm.71-.36v-.1a.61.61,0,0,0-.62-.57.6.6,0,0,0-.57.57v.1a.59.59,0,0,0,.62.57A.6.6,0,0,0,190.71,132.37Zm-1.37-.05a.78.78,0,1,1,.77.8.77.77,0,0,1-.77-.8Zm-11.18-12.81-.35-1H172v1Zm.68,1.94-.36-1H172v1Zm4.32,11.63h5.08v-1h-5.08Zm0-1.94h5.08v-1h-5.08Zm0-1.94h3.05v-1h-3.05Zm3.05-2.95h-3.05v1h3.05Zm-3.05-.92h3.05v-1H180.4l-.28.82-.29-.82H174v1h3v-.93l.33.93h5.44l.32-.93v.93Zm3.05-3h-5.13l-.36,1h5.49v-1ZM174,127.27h3v-1h-3Zm0,1.94h3v-1h-3Zm-2,1.93h5.08v-1H172Zm0,1.94h5.08v-1H172Zm10.44-14.59-.35,1h6.17v-1Zm-1,3h6.85v-1h-6.49ZM174,123.38h5.48l-.35-1H174v1Zm4.05,3.88h4.08l.36-1h-4.8Zm.68,1.94h2.72l.36-1h-3.43Zm.68,1.94h1.35l.36-1h-2.07l.36,1Zm.68,1.94.35-1h-.7l.35,1Zm-20.32,0h7.48a3.85,3.85,0,0,0,2.62-1H159.8v1Zm7.95-4.9v1h3.41a3.86,3.86,0,0,0-.13-1Zm-5.91,1h3v-1h-3Zm5.91-5.82H171a3.86,3.86,0,0,0,.13-1h-3.41Zm-5.91,0h3v-1h-3Zm5.44-4.9H159.8v1h10.1a3.82,3.82,0,0,0-2.61-1Zm3.36,1.94H159.8v1h11.25a4.11,4.11,0,0,0-.41-1Zm-8.8,3.88v1h7.95a3.79,3.79,0,0,0,.85-1Zm7.95,1.94h-7.95v1h8.8a3.79,3.79,0,0,0-.85-1Zm-10,4.9h10.84a3.76,3.76,0,0,0,.41-1H159.8v1Zm-8.13-11.63h7.11v-1h-7.11Zm0,1.94h7.11v-1h-7.11Zm5.08.92h-3v1h3Zm-3,3h3v-1h-3v1Zm0,1.93h3v-1h-3Zm0,1.94h3v-1h-3Zm-2,1.94h7.11v-1h-7.11Zm0,.93h7.11v1h-7.11Z"/>
        <path id="b7eb3755-f5d9-4087-b4b8-4847057cbdd7" data-name="Path 20437" d="M142.22,134.9h.33V116.66h-.33Z"/>
        <path id="b394f4a7-cb85-4f47-8e6a-5ab6925bef41" data-name="Path 20438" class="a3e575f2-1102-4a37-86f8-5847e6498eb6" d="M87.27,125.74a5.06,5.06,0,0,1,.17,1c0,1.42-1.59,2.21-3.69,2.21-4.74,0-8.89-2.77-8.89-4.61a1.88,1.88,0,0,1,.15-.74c-1.7.09-3.91.39-3.91,2.34,0,3.18,7.56,7.12,13.54,7.12,4.59,0,5.75-2.08,5.75-3.72,0-1.29-1.12-2.75-3.12-3.62M84,126.9c1.26,0,3.1-.27,3.1-1.77a1.34,1.34,0,0,0,0-.35l-.75-3.28c-.18-.72-.33-1-1.59-1.68a14.77,14.77,0,0,0-3.76-1.33c-.59,0-.77.76-1.47.76s-1.17-.57-1.81-.57-1,.42-1.31,1.27c0,0-.85,2.4-1,2.75a.46.46,0,0,0,0,.2c0,.93,3.67,4,8.6,4"/>
        <path id="aa13a980-837f-43c7-8689-b27d4cd43b73" data-name="Path 20439" d="M87.27,125.74a5.06,5.06,0,0,1,.17,1c0,1.42-1.59,2.21-3.69,2.21-4.74,0-8.89-2.77-8.89-4.61a1.88,1.88,0,0,1,.15-.74l.37-.92a1.36,1.36,0,0,0,0,.2c0,.93,3.68,4,8.61,4,1.27,0,3.1-.26,3.1-1.77a2.16,2.16,0,0,0,0-.35l.23,1Z"/>
        <path id="bb889eb7-0820-4c18-96ed-e30e13858277" data-name="Path 20440" d="M94,129.55h1.84v-2.71h1.4l1.4,2.71h2l-1.64-3a2.25,2.25,0,0,0,1.4-2.1A2.41,2.41,0,0,0,98,122.09H94v7.46Zm3.65-5.89a.85.85,0,0,1,.2,1.69h-2v-1.69Zm3,3.08a3,3,0,0,0,3,2.92h.07a3.38,3.38,0,0,0,2.35-.85l-1.14-1a1.52,1.52,0,0,1-1.13.42,1.44,1.44,0,0,1-1.38-.9h4v-.42a2.9,2.9,0,1,0-5.78-.53,2.26,2.26,0,0,0,0,.37m2.91-1.52a1.25,1.25,0,0,1,1.18.9h-2.35a1.17,1.17,0,0,1,1.17-.9m7.82,4.33H113v-7.83l-1.73.38v2.12a2.9,2.9,0,1,0-1.49,5.41,2.58,2.58,0,0,0,1.52-.49v.42Zm-2.7-2.82A1.43,1.43,0,0,1,110,125.3h0a1.72,1.72,0,0,1,1.19.44v2a1.63,1.63,0,0,1-1.19.44,1.43,1.43,0,0,1-1.48-1.38v0m7,2.82h1.84v-2.92h3.07v2.92h1.83v-7.46h-1.83V125h-3.07v-2.87h-1.84v7.46Zm9.37.1a2.62,2.62,0,0,0,1.56-.44v.34h1.7v-3.61c0-1.37-.93-2.13-2.47-2.13a6.2,6.2,0,0,0-2.64.62l.62,1.27a4.56,4.56,0,0,1,1.7-.45q1.08,0,1.08.84v.28a5,5,0,0,0-1.28-.16c-1.45,0-2.32.61-2.32,1.69a1.81,1.81,0,0,0,1.88,1.76h.16m-.53-1.78c0-.37.38-.55.94-.55a4.46,4.46,0,0,1,1,.12v.73a2.28,2.28,0,0,1-1.08.27c-.55,0-.89-.22-.89-.57m5.37,0c0,1.2.72,1.79,2,1.79a5.34,5.34,0,0,0,1.2-.17v-1.4a2.25,2.25,0,0,1-.77.11c-.55,0-.75-.17-.75-.68v-2.14h1.58v-1.44H131.5v-1.82l-1.73.38v1.44h-1.14v1.44h1.14v2.49Z"/>
      </g>
    </g>
  </g>
</svg>
