<svg xmlns="http://www.w3.org/2000/svg" viewBox="0 0 262 180">
  <defs>
    <style>
      .b1c7f7c5-06bd-4a68-9288-1fa7b453a980 {
        fill: #e00;
      }
    </style>
  </defs>
  <g id="a8479f4e-f38f-4264-b1fb-d686f82a53f2" data-name="Section: Red Hat Marketplace logo in use">
    <g>
      <g id="baf280ea-9ed5-453a-a390-f2bd99ceb83b" data-name="Group 35722">
        <path id="ee8b1e73-3917-4670-aec7-bd107167a317" data-name="Path 20161" d="M116.17,68.22v4.3h3.75a2.17,2.17,0,0,0,.65-4.3,2.36,2.36,0,0,0-.65,0Zm-1.93-1.69h5.84c2.56,0,4.28,1.55,4.28,3.81a3.63,3.63,0,0,1-2.64,3.53l2.87,5.53h-2.14l-2.66-5.28h-3.62V79.4h-1.93V66.53Z"/>
        <path id="b079c30f-804d-4eca-b350-86db8cfd7e2a" data-name="Path 20162" d="M127,73.94h5.56a2.8,2.8,0,0,0-5.56,0Zm3.07,5.63a4.81,4.81,0,0,1-4.9-4.72.66.66,0,0,1,0-.14,4.69,4.69,0,0,1,4.58-4.81h.1a4.63,4.63,0,0,1,4.53,4.73v.69H127A3.14,3.14,0,0,0,130.14,78a3.66,3.66,0,0,0,2.37-.82l1.17,1.15a5.53,5.53,0,0,1-3.62,1.24Z"/>
        <path id="af137f74-e24a-435e-a2f3-0dfeaaae3a75" data-name="Path 20163" d="M140.71,78a3.41,3.41,0,0,0,2.59-1.12V72.58a3.44,3.44,0,0,0-2.59-1.1,3.24,3.24,0,0,0,0,6.47Zm2.61.57a4.43,4.43,0,0,1-2.87,1,4.83,4.83,0,1,1,2.85-8.73V66.53l1.84-.4V79.41h-1.82v-.89Z"/>
        <path id="f9c6b7ac-14d2-4ff2-a2e6-1ba739482637" data-name="Path 20164" d="M151.37,66.53h1.93v5.52h6.84V66.53h1.93V79.4h-1.93V73.79H153.3V79.4h-1.93Z"/>
        <path id="ad4a8705-772a-4b10-8ecc-ca65823580cc" data-name="Path 20165" d="M167.67,78.21a3.62,3.62,0,0,0,2.49-.89V75.71a4.82,4.82,0,0,0-2.41-.57c-1.34,0-2.17.6-2.17,1.54s.85,1.53,2.1,1.53Zm-3.86-1.49c0-1.77,1.44-2.85,3.79-2.85a6.61,6.61,0,0,1,2.56.51v-1c0-1.32-.79-2-2.28-2a6.65,6.65,0,0,0-2.9.79l-.69-1.37a8.77,8.77,0,0,1,3.85-1c2.42,0,3.82,1.19,3.82,3.35V79.4h-1.8v-.81a4.49,4.49,0,0,1-2.9,1c-2,0-3.44-1.16-3.44-2.85Z"/>
        <path id="a50a9c92-023e-4da0-8363-12429d523bab" data-name="Path 20166" d="M174.92,71.59h-2V70h2V67.65l1.82-.44V70h2.75v1.55h-2.75v5.07c0,1,.38,1.3,1.38,1.3a3.63,3.63,0,0,0,1.34-.22v1.55a6.14,6.14,0,0,1-1.75.27c-1.82,0-2.79-.86-2.79-2.48v-5.5Z"/>
        <path id="a9db825c-3a5d-437d-8f8d-c9e111a55c14" data-name="Path 20167" d="M116.55,89.24V98.7h-2.46V85.84h3.42L121,92.75l3.53-6.91H128V98.7h-2.52V89.25L121,97.78l-4.45-8.54Z"/>
        <path id="ea09b75d-45eb-407e-91e9-28156067ffde" data-name="Path 20168" d="M133.65,97.07a3.61,3.61,0,0,0,2.11-.61V95a5.58,5.58,0,0,0-2-.35c-1.16,0-1.84.46-1.84,1.19s.68,1.2,1.74,1.2Zm-4.16-1.14c0-1.82,1.47-2.9,3.93-2.9a7.44,7.44,0,0,1,2.34.37v-.68c0-1.1-.68-1.68-2-1.68a7.48,7.48,0,0,0-2.93.79L129.89,90a9.91,9.91,0,0,1,4.27-1c2.59,0,4.08,1.28,4.08,3.54v6.22h-2.48V98a4.52,4.52,0,0,1-2.78.82c-2.06,0-3.49-1.19-3.49-2.94Z"/>
        <path id="f237c9fe-5d1d-4212-87e9-c5043e6bdb49" data-name="Path 20169" d="M140.16,89.13h2.51v1a3,3,0,0,1,2.56-1.26,2.14,2.14,0,0,1,1.05.22v2.2a3.38,3.38,0,0,0-1.29-.26,2.55,2.55,0,0,0-2.32,1.44V98.7h-2.51Z"/>
        <path id="aa05c842-dea7-4b9f-a7fe-13356783c0b1" data-name="Path 20170" d="M147.64,85.84l2.52-.56v7.89l4.13-4h2.85l-4.48,4.39,4.76,5.19H154.2l-4-4.38v4.38h-2.52Z"/>
        <path id="b4b1e8a2-afca-4ef4-b894-f9313a947ceb" data-name="Path 20171" d="M159.44,93h4.69A2.47,2.47,0,0,0,161.79,91,2.4,2.4,0,0,0,159.44,93Zm2.63,5.92a5,5,0,0,1-5.15-4.83v-.14a4.88,4.88,0,0,1,4.81-5h.12a4.84,4.84,0,0,1,4.75,4.92,1.85,1.85,0,0,1,0,.23v.66h-7.13a2.75,2.75,0,0,0,2.72,2,3,3,0,0,0,2.11-.77L166,97.51a5.73,5.73,0,0,1-3.88,1.37Z"/>
        <path id="f41fcdea-563a-431b-8e4a-505df56400ef" data-name="Path 20172" d="M169.07,91.24h-2V89.13h2V86.68l2.52-.57v3h2.72v2.11h-2.72v4.25c0,.9.35,1.23,1.32,1.23a4.15,4.15,0,0,0,1.35-.22v2.06a8.07,8.07,0,0,1-1.95.29c-2.14,0-3.24-1-3.24-2.85V91.24Z"/>
        <path id="e362f60b-14a9-4f21-966d-a77e6bcde15e" data-name="Path 20173" d="M178.08,92.05v3.77a3.24,3.24,0,0,0,2.28.88,2.78,2.78,0,1,0,0-5.55,3.1,3.1,0,0,0-2.28.9Zm-2.51-2.92h2.48v.79a4.3,4.3,0,0,1,2.72-.92,4.92,4.92,0,0,1-.08,9.83,4.75,4.75,0,0,1-2.61-.75v4.47h-2.51V89.13Z"/>
        <path id="f7605986-1299-428d-a836-fb864145be3f" data-name="Path 20174" d="M189.7,98.7h-2.52V85.84l2.52-.56V98.7Z"/>
        <path id="e087eece-32ad-4e6e-a4e2-148ccb414471" data-name="Path 20175" d="M195.36,97.07a3.59,3.59,0,0,0,2.11-.61V95a5.54,5.54,0,0,0-2-.35c-1.16,0-1.84.46-1.84,1.19s.68,1.2,1.75,1.2Zm-4.16-1.14c0-1.82,1.48-2.9,3.94-2.9a7.38,7.38,0,0,1,2.33.37v-.68c0-1.1-.68-1.68-2-1.68a7.43,7.43,0,0,0-2.92.79L191.61,90a9.86,9.86,0,0,1,4.26-1c2.6,0,4.09,1.28,4.09,3.54v6.22h-2.49V98a4.49,4.49,0,0,1-2.77.82c-2.06,0-3.49-1.19-3.49-2.94Z"/>
        <path id="f71c10c8-9727-4a2e-b538-5f5db00d0fdc" data-name="Path 20176" d="M208.83,95.61l1.51,1.57a5.37,5.37,0,0,1-3.9,1.71,5,5,0,0,1,0-10h0a5.36,5.36,0,0,1,4,1.71l-1.54,1.64a3.1,3.1,0,0,0-2.37-1.16,2.78,2.78,0,0,0,.05,5.55,3,3,0,0,0,2.28-1.07Z"/>
        <path id="a772ac88-0d56-4fd0-8c19-07f56745dddb" data-name="Path 20177" d="M213.36,93H218A2.45,2.45,0,0,0,215.71,91,2.39,2.39,0,0,0,213.36,93ZM216,98.89a5,5,0,0,1-5.14-4.82v-.15a4.88,4.88,0,0,1,4.81-5h.11a4.84,4.84,0,0,1,4.76,4.91,1.93,1.93,0,0,0,0,.24v.66h-7.14a2.77,2.77,0,0,0,2.72,2,3.05,3.05,0,0,0,2.12-.77l1.65,1.51A5.72,5.72,0,0,1,216,98.88Z"/>
        <path id="b145fa86-b814-4011-bd8d-aa2b8121535a" data-name="Path 20178" class="b1c7f7c5-06bd-4a68-9288-1fa7b453a980" d="M78.14,83a12.21,12.21,0,0,1,.4,2.33c0,3.22-3.62,5-8.38,5C59.42,90.31,50,84,50,79.85a4.25,4.25,0,0,1,.35-1.68c-3.86.2-8.87.89-8.87,5.3,0,7.23,17.14,16.15,30.72,16.15,10.4,0,13-4.71,13-8.42,0-2.93-2.52-6.24-7.08-8.23ZM70.66,85.6c2.87,0,7-.59,7-4a3.38,3.38,0,0,0-.07-.78l-1.71-7.44c-.4-1.63-.75-2.38-3.62-3.81-2.23-1.14-7.08-3-8.52-3S62,68.27,60.45,68.27,57.78,67,56.34,67s-2.28.94-3,2.87c0,0-1.94,5.45-2.18,6.24a1.38,1.38,0,0,0,0,.45c0,2.12,8.33,9.07,19.51,9.07Z"/>
        <path id="afc5f077-8166-4075-a4bb-8f75f8e68e67" data-name="Path 20179" d="M78.14,83a12.21,12.21,0,0,1,.4,2.33c0,3.22-3.62,5-8.38,5C59.42,90.31,50,84,50,79.86a4.26,4.26,0,0,1,.35-1.69l.84-2.08a1.38,1.38,0,0,0,0,.45c0,2.12,8.34,9.06,19.52,9.06,2.87,0,7-.59,7-4a2.91,2.91,0,0,0-.07-.78L78.14,83Z"/>
        <path id="b0db1b09-5dcd-489a-96b0-3851e2fad192" data-name="Path 20180" d="M99.72,112.7a.51.51,0,0,1-.51-.52V65.38a.52.52,0,0,1,1,0v46.8a.52.52,0,0,1-.52.52Z"/>
        <path id="ba11a4e3-9b58-44e9-80a5-95971119d890" data-name="Path 20181" d="M118,105.63a3,3,0,1,0,3,3.1v-.07a3,3,0,0,0-2.85-3Zm0,7.18a4.15,4.15,0,1,1,.1,0Z"/>
        <path id="f0d0bcb4-04d8-41d8-8090-eeace68666bc" data-name="Path 20182" d="M124.53,108.44v2.65a2.19,2.19,0,0,0,1.63.69,2,2,0,0,0,0-4,2.08,2.08,0,0,0-1.63.7Zm-1.15-1.6h1.14v.56a2.7,2.7,0,0,1,1.79-.66,3,3,0,0,1,0,6,3.09,3.09,0,0,1-1.76-.58v2.86h-1.15v-8.22Z"/>
        <path id="eeeda17e-6525-4771-ad95-5181a3a2d8a2" data-name="Path 20183" d="M131.24,109.27h3.47a1.74,1.74,0,0,0-1.91-1.56A1.77,1.77,0,0,0,131.24,109.27Zm1.92,3.52a3,3,0,0,1-3.07-3v-.09a2.93,2.93,0,0,1,2.87-3H133a2.9,2.9,0,0,1,2.83,3v.42h-4.62a2,2,0,0,0,2,1.68,2.23,2.23,0,0,0,1.48-.52l.74.73a3.53,3.53,0,0,1-2.27.77Z"/>
        <path id="bff42190-9496-4860-bcd0-3f18a50206e7" data-name="Path 20184" d="M136.94,106.84h1.15v.75a1.83,1.83,0,0,1,1.61-.88,1.49,1.49,0,0,1,.59.09v1a2,2,0,0,0-.68-.13,1.62,1.62,0,0,0-1.52,1.07v3.91h-1.15v-5.85Z"/>
        <path id="ab713579-c50f-4303-a86f-3679472cfd7e" data-name="Path 20185" d="M143.32,111.94a2.25,2.25,0,0,0,1.55-.55v-1a3,3,0,0,0-1.5-.36c-.84,0-1.36.38-1.36,1s.53,1,1.31,1Zm-2.41-.93c0-1.1.9-1.78,2.36-1.78a4.15,4.15,0,0,1,1.6.32v-.62c0-.83-.49-1.24-1.42-1.24a4.12,4.12,0,0,0-1.82.49l-.42-.86a5.4,5.4,0,0,1,2.4-.6c1.51,0,2.39.75,2.39,2.09v3.87h-1.13v-.5a2.83,2.83,0,0,1-1.81.61c-1.28,0-2.15-.73-2.15-1.79Z"/>
        <path id="ba0b351e-adda-4f5a-a3a3-f74fbeaf2e99" data-name="Path 20186" d="M148.08,107.8h-1.25v-1h1.24v-1.5l1.14-.27v1.77h1.72v1h-1.72V111c0,.6.24.82.86.82a2.18,2.18,0,0,0,.84-.14v1a4,4,0,0,1-1.09.17c-1.14,0-1.75-.54-1.75-1.55V107.8Z"/>
        <path id="f402956a-1d79-4036-88ea-a0c570ff5380" data-name="Path 20187" d="M152.67,109.27h3.47a1.74,1.74,0,0,0-3.47,0Zm1.92,3.52a3,3,0,0,1-3.06-3v-.08a2.94,2.94,0,0,1,2.86-3h.07a2.9,2.9,0,0,1,2.83,3s0,0,0,.08v.34h-4.62a2,2,0,0,0,2,1.67,2.26,2.26,0,0,0,1.48-.51l.74.72a3.45,3.45,0,0,1-2.27.77Z"/>
        <path id="b5aea5ed-8d45-47ff-9951-776b7f6aeb53" data-name="Path 20188" d="M161.22,111.78a2.11,2.11,0,0,0,1.62-.7v-2.65a2.1,2.1,0,0,0-1.62-.69,2,2,0,0,0,0,4Zm1.63.35a2.79,2.79,0,0,1-1.79.65,3,3,0,1,1,0-6,3.09,3.09,0,0,1,1.76.58v-2.68l1.15-.25v8.3h-1.14v-.55Z"/>
        <path id="b57ca146-5eab-403b-ac37-61099687883f" data-name="Path 20189" d="M168.89,108.44v2.65a2.2,2.2,0,0,0,1.64.69,2,2,0,0,0,0-4,2.12,2.12,0,0,0-1.64.7Zm1.76,4.34a3,3,0,0,1-1.77-.59v.49h-1.14v-8l1.15-.25v3a2.7,2.7,0,0,1,1.78-.64,3,3,0,0,1,0,6Z"/>
        <path id="bc4fbdc1-1bce-4b63-8f96-4a5d745a2cbb" data-name="Path 20190" d="M176.41,112.71l-2.33-5.87h1.26l1.71,4.47,1.89-4.47h1.24l-2.83,6.55c-.54,1.25-1.16,1.74-2.24,1.74a2.08,2.08,0,0,1-.61-.07v-1a2.24,2.24,0,0,0,.52,0,1.22,1.22,0,0,0,1.16-.86l.23-.53Z"/>
      </g>
      <g id="e771511d-ee2c-43a7-a6cf-93c8dfafaf7a" data-name="Group 35723">
        <path id="bade418e-9da3-4140-bd78-a91aaebc95ad" data-name="Path 20191" d="M203.19,105.22h-3.3l.2-.57h3.1v.57Z"/>
        <path id="f8e12152-6dcc-481d-a94f-15fd9d2d330e" data-name="Path 20192" d="M194.38,104.65h3.07l.2.57h-3.27v-.57Z"/>
        <path id="a1e53232-0cd9-414a-8431-496be29fe950" data-name="Path 20193" d="M191.94,104.65a2.2,2.2,0,0,1,1.32.57H187.7v-.57Z"/>
        <path id="acde9d48-5c73-43c6-b79c-0bd9fa279a8d" data-name="Path 20194" d="M187.21,105.22h-3.87v-.57h3.87Z"/>
        <path id="e69cd28a-2a9e-4223-bf02-b0ab9f721bbf" data-name="Path 20195" d="M203.19,106.29h-3.68l.2-.57h3.48Z"/>
        <path id="abd83eee-968c-4663-a04c-d8c3bf12ba63" data-name="Path 20196" d="M198,106.29h-3.65v-.57h3.45l.2.57Z"/>
        <path id="a5ac4468-9dbd-41a1-a3c3-043cf5b680b2" data-name="Path 20197" d="M193.7,105.72a1.62,1.62,0,0,1,.16.57H187.7v-.57Z"/>
        <path id="a6780a04-717e-4cda-9421-5fbabb392302" data-name="Path 20198" d="M187.21,106.29h-3.87v-.57h3.87Z"/>
        <path id="bae71693-fef0-4ef1-91d4-6a3da50b87b3" data-name="Path 20199" d="M199.13,107.36l.2-.57h2.77v.57Z"/>
        <path id="a396546f-5aff-43f1-87af-e1408a831db4" data-name="Path 20200" d="M198.21,106.79l.2.57h-2.94v-.57Z"/>
        <path id="f08f76be-9891-4132-a836-5ead723d42d4" data-name="Path 20201" d="M193.91,106.79a1.88,1.88,0,0,1-.09.57h-1.68v-.57Z"/>
        <path id="b0ff3e37-deba-42f8-b2d7-5095dfcf7b8c" data-name="Path 20202" d="M186.08,107.36h-1.67v-.57h1.67Z"/>
        <path id="a62f09e2-e043-4779-be3b-ce659ace1bbc" data-name="Path 20203" d="M190.48,107.36h-1.66v-.57h1.66Z"/>
        <path id="adb7dd33-24a2-4d56-9c2b-9f40065d8073" data-name="Path 20204" d="M197.1,108v.44h-1.63v-.57h3.11l.2.53.18-.53h3.14v.57h-1.63V108l-.15.44h-3.07l-.15-.44Z"/>
        <path id="ffd5ccfd-c903-490b-8bad-aff98fba12a3" data-name="Path 20205" d="M188.82,107.84h4.76a2.14,2.14,0,0,1-.47.57h-4.29v-.57Z"/>
        <path id="f45057fc-bb49-44ee-8458-471ec7ac9ad7" data-name="Path 20206" d="M186.08,108.41h-1.67v-.57h1.67Z"/>
        <path id="b2652f31-eb07-4fa5-9537-4f0fc7e9cfe9" data-name="Path 20207" d="M202.1,109.48h-1.63v-.57h1.63v.57Z"/>
        <path id="b3bad34d-a151-4d01-a880-2902010614dd" data-name="Path 20208" d="M197.1,108.91h-1.63v.57h1.63Z"/>
        <path id="baa1a62c-24f7-4e70-a53f-cfcec16f3bdc" data-name="Path 20209" d="M200.15,108.91s-.19.57-.2.57h-2.32l-.2-.57Z"/>
        <path id="ffae1664-0550-4e94-a805-d05b6209832e" data-name="Path 20210" d="M188.82,108.91h4.28a2.32,2.32,0,0,1,.51.57h-4.79v-.57Z"/>
        <path id="fbfa5135-4687-4506-9d57-fd7bc65416aa" data-name="Path 20211" d="M186.08,109.48v-.57h-1.66v.57Z"/>
        <path id="bc8b3144-b833-4203-9719-a637f49e6b70" data-name="Path 20212" d="M202.1,110.54h-1.63V110h1.63v.56Z"/>
        <path id="a1eddcd6-4c40-4a25-9aff-0f8db523cfc5" data-name="Path 20213" d="M197.1,110.54h-1.63V110h1.63Z"/>
        <path id="a17b964a-75d2-408f-8855-9290d2e1b022" data-name="Path 20214" d="M199.57,110.55l.2-.57h-2l.2.57h1.57Z"/>
        <path id="b636a85c-d36a-4a8d-b32d-e16cd5fbbc3e" data-name="Path 20215" d="M188.82,110.54V110h1.68v.56Z"/>
        <path id="ac3b0680-d46a-4198-94bc-9856347a11a7" data-name="Path 20216" d="M193.85,110a1.8,1.8,0,0,1,.1.57h-1.78V110Z"/>
        <path id="be1780d3-f6de-4031-b743-8ac7ffc51f52" data-name="Path 20217" d="M186.08,110.54h-1.66V110h1.66Z"/>
        <path id="b4af3e53-d420-4de2-b056-e5c5b2a5e061" data-name="Path 20218" d="M203.19,111.59h-2.72V111h2.72v.57Z"/>
        <path id="f5b158d3-4356-4fdf-9c70-c29c2d42ec08" data-name="Path 20219" d="M197.1,111.59h-2.72V111h2.72Z"/>
        <path id="b4d0adcb-d8d3-4c73-8883-611eb9db1641" data-name="Path 20220" d="M199.2,111.59h-.83l-.2-.57h1.22Z"/>
        <path id="a5c798dd-d6dc-488b-b0ae-eb914ccd5f24" data-name="Path 20221" d="M183.34,111v.57h3.86V111Z"/>
        <path id="aa0a71ec-8062-4d97-babf-0b224a821fd4" data-name="Path 20222" d="M193.88,111a1.27,1.27,0,0,1-.21.57h-6V111Z"/>
        <path id="f90e6855-133c-4312-b6bf-4e5d7c7bc4d8" data-name="Path 20223" d="M198.83,112.66h-.08l-.2-.57H199l-.2.57Z"/>
        <path id="b718d015-ee4f-44b3-af46-6e864080000f" data-name="Path 20224" d="M203.19,112.66h-2.72v-.57h2.72v.57Z"/>
        <path id="e2c82239-7cc5-4993-a224-8fe120660539" data-name="Path 20225" d="M187.7,112.66v-.56h5.6a2.13,2.13,0,0,1-1.44.56H187.7"/>
        <path id="f7a7dbac-b6e7-43f9-901b-470f87d996c5" data-name="Path 20226" d="M197.1,112.66h-2.72v-.57h2.72Z"/>
        <path id="b9ba6d53-80c7-4658-b39e-5e13dc498455" data-name="Path 20227" d="M187.2,112.1v.56h-3.86v-.57h3.86Z"/>
        <path id="b8c60b86-3e97-49de-846a-1f3e793bfdba" data-name="Path 20228" d="M205.11,111.84h.1l.07,0,.06,0a.17.17,0,0,0,0-.16.1.1,0,0,0-.05,0l-.06,0H205v.3Zm.07-.41a.35.35,0,0,1,.24.06.29.29,0,0,1,0,.39.35.35,0,0,1-.17.06l.26.41h-.15l-.25-.4H205v.4h-.15v-.92Zm-.65.72a.61.61,0,0,0,.13.22.6.6,0,0,0,.21.14.75.75,0,0,0,.26,0,.74.74,0,0,0,.25,0,.63.63,0,0,0,.34-.36.58.58,0,0,0,.05-.26.65.65,0,0,0-.05-.27.57.57,0,0,0-.13-.21.66.66,0,0,0-.2-.14.75.75,0,0,0-.26,0,.66.66,0,0,0-.46.19.6.6,0,0,0-.14.21.86.86,0,0,0-.05.27.75.75,0,0,0,.05.26Zm-.13-.57a.62.62,0,0,1,.17-.25.85.85,0,0,1,.25-.17.82.82,0,0,1,.87.17.74.74,0,0,1,.17.25.78.78,0,0,1,.06.31.81.81,0,0,1-.06.31.85.85,0,0,1-.17.25.9.9,0,0,1-.26.17.81.81,0,0,1-.61,0,.85.85,0,0,1-.25-.17.62.62,0,0,1-.17-.25.67.67,0,0,1-.07-.31A.64.64,0,0,1,204.4,111.58Z"/>
      </g>
    </g>
  </g>
</svg>
