<svg xmlns="http://www.w3.org/2000/svg" viewBox="0 0 555 146.31">
  <defs>
    <style>
      .e780a400-3528-4987-98c9-6119cdf94935 {
        fill: #f3f3f3;
      }

      .a587a587-c76d-454f-87c0-aeb065f9a2ac, .f0c0a6fc-07d5-4428-889d-49dde2a5fb54 {
        fill: #fff;
      }

      .f0c0a6fc-07d5-4428-889d-49dde2a5fb54 {
        stroke: #d2d2d2;
      }

      .e7799472-822f-437d-825e-f9c1ef1c5e4f, .f0c0a6fc-07d5-4428-889d-49dde2a5fb54 {
        stroke-miterlimit: 10;
      }

      .b1fdcc12-c959-4f2b-b5f4-ba81a973c98e {
        fill: #06c;
      }

      .ad8db6b0-3e96-49b7-ad25-8b53e93a0a06 {
        fill: #e00;
      }

      .eaaf10df-4c9e-4cc1-b817-df90f35a6638 {
        fill: #ed1c24;
      }

      .bd346d0d-3562-407d-abb5-559bb5ae322d {
        fill: #c9c9c9;
      }

      .e7799472-822f-437d-825e-f9c1ef1c5e4f {
        fill: none;
        stroke: #000;
        stroke-width: 1.25px;
      }

      .a43038e2-e9e1-4446-914d-2f058ac1f218 {
        fill: #6c6c6c;
      }

      .f8f9cdcc-03b1-4bbc-8d26-f90ca5296456 {
        fill: #dedede;
      }

      .ee4a229d-7b13-4cce-9b95-e11052bf6afc {
        fill: #aaa;
      }
    </style>
  </defs>
  <g id="b687a78d-6f4e-4731-bb85-b5f562a33537" data-name="Section: User experience">
    <g>
      <rect class="e780a400-3528-4987-98c9-6119cdf94935" width="555" height="146.31"/>
      <g>
        <path d="M234.85,19.9h6.72l20.75,50.6h-6.07l-6.37-15.91H226L219.6,70.5h-5.78Zm13.08,29.92L238,25.1,228,49.82Z"/>
        <path d="M263.62,52.21c0-10.41,7.95-18.58,18.21-18.58a17.88,17.88,0,0,1,11.42,4.27V34.28h5.28V71.36c0,9.26-5.57,14.39-15.61,14.39A28.46,28.46,0,0,1,268.75,82l2.31-4.19c4.34,2.31,7.88,3.32,11.64,3.32,6.87,0,10.48-3.32,10.48-9.68V66.59a17.58,17.58,0,0,1-11.49,4.2C271.64,70.79,263.62,62.69,263.62,52.21Zm18.5,13.88a13.64,13.64,0,0,0,11.06-5V43.32a13.89,13.89,0,0,0-11.06-4.92c-7.52,0-13.23,6-13.23,13.81S274.68,66.09,282.12,66.09Z"/>
      </g>
      <g>
        <rect class="f0c0a6fc-07d5-4428-889d-49dde2a5fb54" x="402.1" y="19.86" width="131.58" height="106.59" rx="3"/>
        <g>
          <path class="b1fdcc12-c959-4f2b-b5f4-ba81a973c98e" d="M416,101.25h1v8.09h5.35v.89H416Z"/>
          <path class="b1fdcc12-c959-4f2b-b5f4-ba81a973c98e" d="M423.57,101.93a.65.65,0,0,1,.64-.64.64.64,0,0,1,0,1.28A.65.65,0,0,1,423.57,101.93Zm1.12,8.3h-.95v-6.42h.95Z"/>
          <path class="b1fdcc12-c959-4f2b-b5f4-ba81a973c98e" d="M426.44,103.81h.95v.75a2.55,2.55,0,0,1,2-.88,2.36,2.36,0,0,1,2.47,2.48v4.07H431v-3.87a1.69,1.69,0,0,0-1.8-1.85,2,2,0,0,0-1.77,1v4.73h-.95Z"/>
          <path class="b1fdcc12-c959-4f2b-b5f4-ba81a973c98e" d="M433.63,101.25l.94-.21v5.66l3.36-2.89h1.16l-3.53,3,3.69,3.37H438l-3.39-3.08v3.08h-.94Z"/>
          <path class="b1fdcc12-c959-4f2b-b5f4-ba81a973c98e" d="M443,101.25,444,101v3.52a2.53,2.53,0,0,1,2-.88,2.37,2.37,0,0,1,2.48,2.48v4.07h-.94v-3.87a1.69,1.69,0,0,0-1.79-1.85,2,2,0,0,0-1.77,1v4.73H443Z"/>
          <path class="b1fdcc12-c959-4f2b-b5f4-ba81a973c98e" d="M453.19,110.34a3.27,3.27,0,0,1-3.31-3.33,3.22,3.22,0,0,1,3.17-3.31,3.16,3.16,0,0,1,3,3.31v.29h-5.27a2.42,2.42,0,0,0,2.41,2.21,2.83,2.83,0,0,0,1.77-.59l.59.63A3.81,3.81,0,0,1,453.19,110.34Zm-2.35-3.79h4.3a2.15,2.15,0,0,0-4.3,0Z"/>
          <path class="b1fdcc12-c959-4f2b-b5f4-ba81a973c98e" d="M457.55,103.81h.95v.91a2,2,0,0,1,1.79-1.06,1.91,1.91,0,0,1,.61.09v.88a2.06,2.06,0,0,0-.67-.12,1.81,1.81,0,0,0-1.73,1.32v4.4h-.95Z"/>
          <path class="b1fdcc12-c959-4f2b-b5f4-ba81a973c98e" d="M464.68,110.34a3.27,3.27,0,0,1-3.31-3.33,3.22,3.22,0,0,1,3.17-3.31,3.15,3.15,0,0,1,3,3.31v.29h-5.26a2.42,2.42,0,0,0,2.41,2.21,2.78,2.78,0,0,0,1.76-.59l.59.63A3.76,3.76,0,0,1,464.68,110.34Zm-2.35-3.79h4.3a2.15,2.15,0,0,0-4.3,0Z"/>
        </g>
      </g>
      <g>
        <rect class="ad8db6b0-3e96-49b7-ad25-8b53e93a0a06" x="16.77" y="19.86" width="170.03" height="50.69" rx="3"/>
        <g>
          <path class="a587a587-c76d-454f-87c0-aeb065f9a2ac" d="M66.13,48l1.32,1.31a5.37,5.37,0,0,1-4,1.8,5,5,0,1,1,0-10,5.33,5.33,0,0,1,4,1.82l-1.36,1.35a3.4,3.4,0,0,0-2.69-1.32,3.16,3.16,0,0,0,.06,6.32A3.36,3.36,0,0,0,66.13,48Z"/>
          <path class="a587a587-c76d-454f-87c0-aeb065f9a2ac" d="M68.31,48.82c0-1.38,1.11-2.2,3-2.2a5.89,5.89,0,0,1,1.77.27v-.51c0-.84-.52-1.27-1.53-1.27a5.69,5.69,0,0,0-2.22.6l-.69-1.41a7.53,7.53,0,0,1,3.23-.78c2,0,3.09,1,3.09,2.69v4.71H73.06v-.5A3.47,3.47,0,0,1,71,51C69.4,51,68.31,50.14,68.31,48.82Zm3.15.86a2.74,2.74,0,0,0,1.6-.46V48.13a4.28,4.28,0,0,0-1.53-.26c-.88,0-1.4.35-1.4.9S70.65,49.68,71.46,49.68Z"/>
          <path class="a587a587-c76d-454f-87c0-aeb065f9a2ac" d="M78.44,50.92h-1.9V41.17l1.9-.42Z"/>
          <path class="a587a587-c76d-454f-87c0-aeb065f9a2ac" d="M82,50.92h-1.9V41.17l1.9-.42Z"/>
          <path class="a587a587-c76d-454f-87c0-aeb065f9a2ac" d="M87.57,45.26H86.09v-1.6h1.48V41.81l1.91-.43v2.28h2.06v1.6H89.48v3.22c0,.68.27.93,1,.93a3,3,0,0,0,1-.16v1.56A6.15,6.15,0,0,1,90,51c-1.62,0-2.46-.74-2.46-2.16Z"/>
          <path class="a587a587-c76d-454f-87c0-aeb065f9a2ac" d="M96.11,43.52a3.77,3.77,0,1,1-3.87,3.78A3.78,3.78,0,0,1,96.11,43.52Zm2,3.78a2,2,0,0,0-2-2.12,2.11,2.11,0,1,0,2,2.12Z"/>
          <path class="a587a587-c76d-454f-87c0-aeb065f9a2ac" d="M103.9,48.82c0-1.38,1.12-2.2,3-2.2a5.89,5.89,0,0,1,1.77.27v-.51c0-.84-.51-1.27-1.53-1.27a5.69,5.69,0,0,0-2.21.6l-.7-1.41a7.56,7.56,0,0,1,3.23-.78c2,0,3.09,1,3.09,2.69v4.71h-1.88v-.5a3.45,3.45,0,0,1-2.1.62C105,51,103.9,50.14,103.9,48.82Zm3.15.86a2.7,2.7,0,0,0,1.6-.46V48.13a4.2,4.2,0,0,0-1.53-.26c-.88,0-1.39.35-1.39.9S106.24,49.68,107.05,49.68Z"/>
          <path class="a587a587-c76d-454f-87c0-aeb065f9a2ac" d="M117.41,48.58l1.14,1.18a4,4,0,0,1-3,1.3,3.77,3.77,0,1,1,0-7.54,4.12,4.12,0,0,1,3,1.3l-1.17,1.24a2.35,2.35,0,0,0-1.8-.88,2.11,2.11,0,0,0,0,4.21A2.25,2.25,0,0,0,117.41,48.58Z"/>
          <path class="a587a587-c76d-454f-87c0-aeb065f9a2ac" d="M120.82,45.26h-1.49v-1.6h1.49V41.81l1.91-.43v2.28h2.06v1.6h-2.06v3.22c0,.68.26.93,1,.93a3,3,0,0,0,1-.16v1.56a6.08,6.08,0,0,1-1.47.22c-1.62,0-2.45-.74-2.45-2.16Z"/>
          <path class="a587a587-c76d-454f-87c0-aeb065f9a2ac" d="M125.75,41.71a1.09,1.09,0,1,1,1.08,1.09A1.08,1.08,0,0,1,125.75,41.71Zm2,9.21h-1.91V43.66h1.91Z"/>
          <path class="a587a587-c76d-454f-87c0-aeb065f9a2ac" d="M133,43.52a3.77,3.77,0,1,1-3.87,3.78A3.78,3.78,0,0,1,133,43.52Zm2,3.78a2,2,0,1,0-2,2.1A2,2,0,0,0,135,47.3Z"/>
          <path class="a587a587-c76d-454f-87c0-aeb065f9a2ac" d="M138.16,43.66h1.91v.57a3.12,3.12,0,0,1,2-.71A2.76,2.76,0,0,1,145,46.41v4.51h-1.91V46.69a1.41,1.41,0,0,0-1.5-1.52,1.74,1.74,0,0,0-1.49.72v5h-1.91Z"/>
        </g>
      </g>
      <path class="eaaf10df-4c9e-4cc1-b817-df90f35a6638" d="M286.14,113.28a13.07,13.07,0,0,0,0-4.14h3.46a7.76,7.76,0,0,1,0,4.14Zm1.51,3.43a7.79,7.79,0,0,1-3.72,2.05,12.92,12.92,0,0,0,1.88-3.93H289a8.08,8.08,0,0,1-1.34,1.88Zm-5.49,1.83a11.51,11.51,0,0,1-2-3.71h4a11.51,11.51,0,0,1-2,3.71Zm-5.49-1.83a7.73,7.73,0,0,1-1.35-1.88h3.18a13.16,13.16,0,0,0,1.88,3.93,7.81,7.81,0,0,1-3.71-2.05Zm-2.27-5.49a8,8,0,0,1,.31-2.08h3.47a13.37,13.37,0,0,0,0,4.14h-3.46a7.5,7.5,0,0,1-.31-2.06Zm2.27-5.49a7.72,7.72,0,0,1,3.71-2,13,13,0,0,0-1.87,3.9h-3.17a7.68,7.68,0,0,1,1.33-1.85Zm7.5,1.85h-4a11.76,11.76,0,0,1,2-3.68,11.53,11.53,0,0,1,2,3.68Zm.41,5.7h-4.84a11.52,11.52,0,0,1,0-4.14h4.83a11.75,11.75,0,0,1,0,4.14Zm3.07-7.55a7.83,7.83,0,0,1,1.32,1.85h-3.16a13.25,13.25,0,0,0-1.88-3.9,7.71,7.71,0,0,1,3.72,2Zm1.09-1.1a9.31,9.31,0,1,0-6.58,15.9h0a9.21,9.21,0,0,0,6.57-2.73,9.31,9.31,0,0,0,0-13.17Z"/>
      <g>
        <circle class="bd346d0d-3562-407d-abb5-559bb5ae322d" cx="348.92" cy="45.18" r="25.32"/>
        <polygon class="a587a587-c76d-454f-87c0-aeb065f9a2ac" points="342.73 37.19 342.73 53.17 358.28 45.18 342.73 37.19"/>
      </g>
      <g>
        <rect class="a587a587-c76d-454f-87c0-aeb065f9a2ac" x="17.27" y="88.02" width="233.85" height="37.34" rx="2.5"/>
        <path class="bd346d0d-3562-407d-abb5-559bb5ae322d" d="M248.62,88.52a2,2,0,0,1,2,2v32.34a2,2,0,0,1-2,2H19.77a2,2,0,0,1-2-2V90.52a2,2,0,0,1,2-2H248.62m0-1H19.77a3,3,0,0,0-3,3v32.34a3,3,0,0,0,3,3H248.62a3,3,0,0,0,3-3V90.52a3,3,0,0,0-3-3Z"/>
      </g>
      <polyline class="e7799472-822f-437d-825e-f9c1ef1c5e4f" points="224.13 104.56 228.26 108.69 232.41 104.53"/>
      <g>
        <path class="a43038e2-e9e1-4446-914d-2f058ac1f218" d="M34.18,102.58h3a4.53,4.53,0,1,1,0,9.06h-3Zm1,.89v7.28h2.07a3.64,3.64,0,0,0,0-7.28Z"/>
        <path class="a43038e2-e9e1-4446-914d-2f058ac1f218" d="M43.56,105.33h.95v1.28a1.89,1.89,0,0,1,1.76-1.4,1.62,1.62,0,0,1,.59.09v.85a2.46,2.46,0,0,0-.66-.11,1.79,1.79,0,0,0-1.69,1.28v4.32h-.95Z"/>
        <path class="a43038e2-e9e1-4446-914d-2f058ac1f218" d="M50.64,105.22a3.28,3.28,0,1,1-3.07,3.26A3.1,3.1,0,0,1,50.64,105.22Zm2.15,3.28a2.16,2.16,0,1,0-4.28,0,2.22,2.22,0,0,0,2.13,2.43A2.25,2.25,0,0,0,52.79,108.5Z"/>
        <path class="a43038e2-e9e1-4446-914d-2f058ac1f218" d="M55.52,105.33h.93v.9a2.51,2.51,0,0,1,2-1,3.26,3.26,0,0,1,0,6.48,2.59,2.59,0,0,1-2-.88v3.5h-.94Zm.94,1.61V110a2.34,2.34,0,1,0,1.8-4A2.18,2.18,0,0,0,56.46,106.94Z"/>
        <path class="a43038e2-e9e1-4446-914d-2f058ac1f218" d="M71,110.8a2.48,2.48,0,0,1-2,.93,3.26,3.26,0,0,1,.05-6.48,2.56,2.56,0,0,1,2,.88v-3.74l.95-.2v9.45H71Zm-1.79.1a2.15,2.15,0,0,0,1.79-.84v-3.13a2.34,2.34,0,1,0-1.79,4Z"/>
        <path class="a43038e2-e9e1-4446-914d-2f058ac1f218" d="M76.82,105.22a3.28,3.28,0,1,1-3.07,3.26A3.1,3.1,0,0,1,76.82,105.22ZM79,108.5a2.16,2.16,0,1,0-4.29,0,2.16,2.16,0,1,0,4.29,0Z"/>
        <path class="a43038e2-e9e1-4446-914d-2f058ac1f218" d="M82.69,111.64,81,105.33h.92l1.32,5,1.51-5h.84l1.52,5,1.31-5h.89l-1.72,6.31h-.92l-1.5-5.1-1.51,5.1Z"/>
        <path class="a43038e2-e9e1-4446-914d-2f058ac1f218" d="M90.74,105.33h1v1a2.26,2.26,0,0,1,2-1.13A2.2,2.2,0,0,1,96,107.55v4.09H95v-3.82a1.64,1.64,0,0,0-1.7-1.81,1.85,1.85,0,0,0-1.65,1v4.66h-1Z"/>
        <path class="a43038e2-e9e1-4446-914d-2f058ac1f218" d="M101.18,105.33h.95v1a2.15,2.15,0,0,1,1.87-1.09,2.08,2.08,0,0,1,2,1.23,2.34,2.34,0,0,1,2.11-1.23,2.15,2.15,0,0,1,2.14,2.34v4.08h-.94V107.8c0-1.1-.6-1.79-1.55-1.79a1.75,1.75,0,0,0-1.58,1,2.5,2.5,0,0,1,.05.55v4.08h-1V107.8c0-1.1-.6-1.79-1.56-1.79a1.72,1.72,0,0,0-1.54.93v4.7h-.95Z"/>
        <path class="a43038e2-e9e1-4446-914d-2f058ac1f218" d="M115.11,111.76a3.16,3.16,0,0,1-3.14-3.28,3.08,3.08,0,0,1,3-3.26,3,3,0,0,1,2.9,3.19v.28h-5a2.31,2.31,0,0,0,2.26,2.24,2.58,2.58,0,0,0,1.73-.65l.6.64A3.7,3.7,0,0,1,115.11,111.76ZM112.92,108h4a2,2,0,0,0-4,0Z"/>
        <path class="a43038e2-e9e1-4446-914d-2f058ac1f218" d="M119.61,105.33h.94v1a2.29,2.29,0,0,1,2-1.13,2.2,2.2,0,0,1,2.29,2.33v4.09h-.95v-3.82a1.64,1.64,0,0,0-1.69-1.81,1.88,1.88,0,0,0-1.66,1v4.66h-.94Z"/>
        <path class="a43038e2-e9e1-4446-914d-2f058ac1f218" d="M127.75,109.13a1.63,1.63,0,0,0,1.68,1.83,1.89,1.89,0,0,0,1.66-1v-4.67H132v6.31h-.94v-1a2.28,2.28,0,0,1-2,1.13,2.21,2.21,0,0,1-2.29-2.35v-4.07h1Z"/>
      </g>
      <g>
        <g>
          <rect class="a587a587-c76d-454f-87c0-aeb065f9a2ac" x="316.46" y="87.96" width="10.28" height="10.28" rx="1.63"/>
          <path class="f8f9cdcc-03b1-4bbc-8d26-f90ca5296456" d="M325.11,88.33a1.25,1.25,0,0,1,1.25,1.25v7a1.25,1.25,0,0,1-1.25,1.25h-7a1.25,1.25,0,0,1-1.25-1.25v-7a1.25,1.25,0,0,1,1.25-1.25h7m0-.75h-7a2,2,0,0,0-2,2v7a2,2,0,0,0,2,2h7a2,2,0,0,0,2-2v-7a2,2,0,0,0-2-2Z"/>
        </g>
        <g>
          <rect class="a587a587-c76d-454f-87c0-aeb065f9a2ac" x="316.46" y="109.81" width="10.28" height="10.28" rx="1.63"/>
          <path class="ee4a229d-7b13-4cce-9b95-e11052bf6afc" d="M325.11,110.18a1.25,1.25,0,0,1,1.25,1.25v7a1.25,1.25,0,0,1-1.25,1.25h-7a1.25,1.25,0,0,1-1.25-1.25v-7a1.25,1.25,0,0,1,1.25-1.25h7m0-.75h-7a2,2,0,0,0-2,2v7a2,2,0,0,0,2,2h7a2,2,0,0,0,2-2v-7a2,2,0,0,0-2-2Z"/>
        </g>
        <g>
          <path class="a43038e2-e9e1-4446-914d-2f058ac1f218" d="M334.22,89.87l3.82,5.4,0-5.4h.68v6.52h-.65l-3.91-5.52v5.52h-.67V89.87Z"/>
          <path class="a43038e2-e9e1-4446-914d-2f058ac1f218" d="M342.49,91.77a2.36,2.36,0,1,1-2.21,2.35A2.23,2.23,0,0,1,342.49,91.77ZM344,94.13a1.55,1.55,0,1,0-3.08,0,1.55,1.55,0,1,0,3.08,0Z"/>
          <path class="a43038e2-e9e1-4446-914d-2f058ac1f218" d="M346.41,92.4h-.94v-.55h.94V90.6l.68-.16v1.41h1.3v.55h-1.3v2.79c0,.48.19.68.66.68a1.53,1.53,0,0,0,.64-.13v.61a2.66,2.66,0,0,1-.79.12c-.78,0-1.19-.38-1.19-1.11Z"/>
          <path class="a43038e2-e9e1-4446-914d-2f058ac1f218" d="M354.08,91.77a2.36,2.36,0,1,1-2.2,2.35A2.23,2.23,0,0,1,354.08,91.77Zm1.55,2.36a1.55,1.55,0,1,0-3.08,0,1.55,1.55,0,1,0,3.08,0Z"/>
          <path class="a43038e2-e9e1-4446-914d-2f058ac1f218" d="M357.75,91.85h.67v.65a1.8,1.8,0,0,1,1.47-.71,2.34,2.34,0,0,1,0,4.66,1.84,1.84,0,0,1-1.43-.63v2.51h-.68Zm.68,1.16v2.22a1.6,1.6,0,0,0,1.29.64,1.75,1.75,0,0,0,0-3.49A1.55,1.55,0,0,0,358.43,93Z"/>
          <path class="a43038e2-e9e1-4446-914d-2f058ac1f218" d="M363.69,92.4h-.94v-.55h.94V90.6l.68-.16v1.41h1.31v.55h-1.31v2.79c0,.48.19.68.66.68a1.57,1.57,0,0,0,.65-.13v.61a2.77,2.77,0,0,1-.8.12c-.78,0-1.19-.38-1.19-1.11Z"/>
          <path class="a43038e2-e9e1-4446-914d-2f058ac1f218" d="M366.78,90.23a.5.5,0,0,1,.5-.48.49.49,0,0,1,0,1A.5.5,0,0,1,366.78,90.23Zm.83,6.16h-.68V91.85h.68Z"/>
          <path class="a43038e2-e9e1-4446-914d-2f058ac1f218" d="M371.27,91.77a2.36,2.36,0,1,1-2.2,2.35A2.23,2.23,0,0,1,371.27,91.77Zm1.55,2.36a1.55,1.55,0,1,0-3.08,0,1.55,1.55,0,1,0,3.08,0Z"/>
          <path class="a43038e2-e9e1-4446-914d-2f058ac1f218" d="M374.94,91.85h.68v.73a1.64,1.64,0,0,1,1.44-.81,1.58,1.58,0,0,1,1.65,1.68v2.94H378V93.64a1.17,1.17,0,0,0-1.22-1.3,1.33,1.33,0,0,0-1.19.7v3.35h-.68Z"/>
        </g>
        <g>
          <path d="M336.42,118.38a3.36,3.36,0,1,1,3.23-3.36A3.27,3.27,0,0,1,336.42,118.38Zm0-6.07a2.72,2.72,0,1,0,2.51,2.71A2.59,2.59,0,0,0,336.42,112.31Z"/>
          <path d="M341.15,113.74h.67v.65a1.77,1.77,0,0,1,1.47-.71,2.34,2.34,0,0,1,0,4.66,1.82,1.82,0,0,1-1.42-.63v2.51h-.68Zm.68,1.16v2.22a1.6,1.6,0,0,0,1.29.64,1.75,1.75,0,0,0,0-3.48A1.54,1.54,0,0,0,341.83,114.9Z"/>
          <path d="M347.09,114.3h-.94v-.56h.94v-1.25l.68-.16v1.41h1.3v.56h-1.3v2.78c0,.48.18.68.66.68a1.68,1.68,0,0,0,.64-.12v.6a2.66,2.66,0,0,1-.79.12c-.78,0-1.19-.38-1.19-1.11Z"/>
          <path d="M350.18,112.13a.5.5,0,0,1,.49-.49.5.5,0,0,1,.49.49.48.48,0,0,1-.49.49A.48.48,0,0,1,350.18,112.13Zm.83,6.15h-.68v-4.54H351Z"/>
          <path d="M354.67,113.66a2.36,2.36,0,1,1-2.21,2.35A2.23,2.23,0,0,1,354.67,113.66Zm1.54,2.36a1.55,1.55,0,1,0-1.54,1.75A1.62,1.62,0,0,0,356.21,116Z"/>
          <path d="M358.34,113.74H359v.73a1.63,1.63,0,0,1,1.44-.81,1.58,1.58,0,0,1,1.65,1.68v2.94h-.68v-2.75a1.18,1.18,0,0,0-1.22-1.3,1.33,1.33,0,0,0-1.19.7v3.35h-.68Z"/>
        </g>
      </g>
    </g>
  </g>
</svg>
