<?xml version="1.0" encoding="UTF-8"?><svg id="uuid-97843281-612e-4c79-ba64-79ade2f7c369" xmlns="http://www.w3.org/2000/svg" viewBox="0 0 555 200"><defs><style>.uuid-fadba987-a03c-41b2-a3b4-e79f0e2ef7ae{fill:#f3f3f3;}.uuid-a7c5ec3c-91b9-4a91-981b-1bca82a39200{fill:#06c;}.uuid-a3774b48-19ef-4ff4-817d-28d0da736327{fill:#e00;}.uuid-f21a0f81-bbb5-4e06-a15d-f08aeca7b776,.uuid-b6255894-da4e-4235-a412-b127cd9e76da{fill:#fff;}.uuid-ff3f6c3d-aaf4-4fb5-8912-1f7a43ac9478{fill:#ed1c24;}.uuid-3fc3551c-37e6-498b-a3ad-aa056512c172{fill:#6c6c6c;}.uuid-65696813-18be-4278-aa84-a8522cabe3a6{fill:#aaa;}.uuid-5f101f0d-6416-4478-9bd5-05c45d3a2c49{fill:#c9c9c9;}.uuid-48352df4-19bd-40c1-9d9e-fa797ce8ca85{fill:#dedede;}.uuid-9780adaa-6052-465e-9a18-27f0728bfa25{fill:none;stroke:#000;stroke-width:1.25px;}.uuid-9780adaa-6052-465e-9a18-27f0728bfa25,.uuid-b6255894-da4e-4235-a412-b127cd9e76da{stroke-miterlimit:10;}.uuid-b6255894-da4e-4235-a412-b127cd9e76da{stroke:#d2d2d2;}</style></defs><rect class="uuid-fadba987-a03c-41b2-a3b4-e79f0e2ef7ae" width="555" height="200"/><path d="m238.3128,51.1529h6.1655l19.0276,46.4079h-5.5693l-5.834-14.5851h-21.8783l-5.9004,14.5851h-5.3038l19.2927-46.4079Zm11.9999,27.4476l-9.0827-22.6744-9.2153,22.6744h18.298Z"/><path d="m264.6984,80.7876c0-9.5464,7.2928-17.0378,16.707-17.0378,3.7789,0,7.4253,1.3919,10.475,3.9115v-3.3148h4.8397v34.0096c0,8.4861-5.1048,13.1936-14.32,13.1936-4.6411,0-9.2817-1.2598-12.9946-3.4478l2.1215-3.845c3.9779,2.1215,7.2267,3.0497,10.6741,3.0497,6.2981,0,9.6133-3.0497,9.6133-8.8841v-4.4417c-2.9837,2.5195-6.63,3.845-10.5415,3.845-9.2153,0-16.5745-7.4249-16.5745-17.0382Zm16.9721,12.7287c4.243,0,7.8894-1.657,10.1439-4.5746v-16.3086c-2.2545-2.8503-5.9669-4.5081-10.1439-4.5081-6.8947,0-12.1321,5.5028-12.1321,12.6626s5.3038,12.7287,12.1321,12.7287Z"/><rect class="uuid-b6255894-da4e-4235-a412-b127cd9e76da" x="391.7183" y="51.1185" width="120.6882" height="97.763" rx="3" ry="3"/><path class="uuid-a7c5ec3c-91b9-4a91-981b-1bca82a39200" d="m404.4951,125.7721h.9058v7.4184h4.902v.8107h-5.8078v-8.2292Z"/><path class="uuid-a7c5ec3c-91b9-4a91-981b-1bca82a39200" d="m411.4106,126.3952c0-.3286.2702-.5872.588-.5872.3286,0,.5872.2586.5872.5872,0,.3178-.2586.588-.5872.588-.3178,0-.588-.2702-.588-.588Zm1.0226,7.6061h-.87v-5.8895h.87v5.8895Z"/><path class="uuid-a7c5ec3c-91b9-4a91-981b-1bca82a39200" d="m414.0447,128.1118h.87v.694c.4588-.5413,1.0935-.8116,1.8575-.8116,1.3404,0,2.2687.9283,2.2687,2.2804v3.7267h-.8583v-3.5499c0-1.0468-.6347-1.6932-1.6457-1.6932-.7056,0-1.2695.3295-1.6223.905v4.3381h-.87v-5.8895Z"/><path class="uuid-a7c5ec3c-91b9-4a91-981b-1bca82a39200" d="m420.6307,125.7721l.87-.1993v5.1956l3.0803-2.6566h1.0576l-3.2329,2.7976,3.3856,3.092h-1.1869l-3.1037-2.8217v2.8217h-.87v-8.2292Z"/><path class="uuid-a7c5ec3c-91b9-4a91-981b-1bca82a39200" d="m429.2277,125.7721l.87-.1993v3.2329c.4579-.5413,1.0927-.8116,1.8567-.8116,1.3404,0,2.2696.9283,2.2696,2.2804v3.7267h-.8583v-3.5499c0-1.0468-.6347-1.6932-1.6457-1.6932-.7056,0-1.2703.3295-1.6223.905v4.3381h-.87v-8.2292Z"/><path class="uuid-a7c5ec3c-91b9-4a91-981b-1bca82a39200" d="m438.5753,134.1072c-1.7041,0-3.0328-1.3287-3.0328-3.057,0-1.6924,1.2812-3.0328,2.9035-3.0328,1.5639,0,2.7859,1.3404,2.7859,3.0328v.2711h-4.8311c.1293,1.1636,1.046,2.0218,2.2095,2.0218.6114,0,1.2228-.2002,1.6223-.5413l.5413.5764c-.6589.4938-1.3521.729-2.1987.729Zm-2.1511-3.4798h3.9378c-.1526-1.046-.9634-1.8458-1.9393-1.8458-1.0226,0-1.8342.764-1.9985,1.8458Z"/><path class="uuid-a7c5ec3c-91b9-4a91-981b-1bca82a39200" d="m442.5757,128.1118h.87v.8349c.352-.6114.9283-.9642,1.6457-.9642.2235,0,.3762.0234.5522.0826v.7991c-.2119-.0709-.4112-.1059-.6114-.1059-.729,0-1.2812.4237-1.5864,1.2111v4.032h-.87v-5.8895Z"/><path class="uuid-a7c5ec3c-91b9-4a91-981b-1bca82a39200" d="m449.1125,134.1072c-1.7041,0-3.0328-1.3287-3.0328-3.057,0-1.6924,1.2812-3.0328,2.9035-3.0328,1.5639,0,2.7859,1.3404,2.7859,3.0328v.2711h-4.8311c.1293,1.1636,1.046,2.0218,2.2095,2.0218.6114,0,1.2228-.2002,1.6223-.5413l.5413.5764c-.6589.4938-1.3521.729-2.1987.729Zm-2.1511-3.4798h3.9378c-.1526-1.046-.9634-1.8458-1.9393-1.8458-1.0226,0-1.8342.764-1.9985,1.8458Z"/><rect class="uuid-a3774b48-19ef-4ff4-817d-28d0da736327" x="38.2892" y="51.1185" width="155.9553" height="46.4949" rx="3" ry="3"/><path class="uuid-f21a0f81-bbb5-4e06-a15d-f08aeca7b776" d="m83.5576,76.883l1.2128,1.2007c-.8558,1.0088-2.2604,1.6473-3.665,1.6473-2.695,0-4.7643-2.0052-4.7643-4.5979,0-2.6053,2.0819-4.6105,4.7643-4.6105,1.443,0,2.886.6514,3.7167,1.6732l-1.252,1.2386c-.6389-.792-1.5072-1.2132-2.4647-1.2132-1.6223,0-2.8609,1.2516-2.8609,2.9118,0,1.6348,1.2511,2.8864,2.9118,2.8864.945,0,1.775-.3958,2.4014-1.1365Z"/><path class="uuid-f21a0f81-bbb5-4e06-a15d-f08aeca7b776" d="m85.5594,77.675c0-1.2645,1.0218-2.0181,2.7333-2.0181.5497,0,1.0985.0892,1.6223.2552v-.4725c0-.7661-.4729-1.1623-1.4046-1.1623-.5622,0-1.1886.1789-2.031.5493l-.6389-1.2899c1.0476-.4854,2.0052-.7152,2.9635-.7152,1.8008,0,2.8351.8941,2.8351,2.4652v4.3169h-1.7241v-.4596c-.5622.3958-1.1627.5747-1.9284.5747-1.4305,0-2.4272-.8303-2.4272-2.0435Zm2.8868.7916c.5747,0,1.0601-.1401,1.4688-.4212v-.9963c-.4346-.166-.8941-.2427-1.4046-.2427-.8049,0-1.2778.3195-1.2778.8303s.4729.8299,1.2136.8299Z"/><path class="uuid-f21a0f81-bbb5-4e06-a15d-f08aeca7b776" d="m94.8554,79.6034h-1.7499v-8.9406l1.7499-.3828v9.3235Z"/><path class="uuid-f21a0f81-bbb5-4e06-a15d-f08aeca7b776" d="m98.1108,79.6034h-1.7491v-8.9406l1.7491-.3828v9.3235Z"/><path class="uuid-f21a0f81-bbb5-4e06-a15d-f08aeca7b776" d="m103.2305,74.4178h-1.3662v-1.4688h1.3662v-1.6986l1.7499-.3958v2.0944h1.8901v1.4688h-1.8901v2.9506c0,.6256.2427.8554.92.8554.332,0,.5872-.038.9317-.1531v1.4305c-.3703.1151-.9701.2044-1.3537.2044-1.4814,0-2.2479-.6769-2.2479-1.9797v-3.308Z"/><path class="uuid-f21a0f81-bbb5-4e06-a15d-f08aeca7b776" d="m111.0585,72.8214c1.9926,0,3.5507,1.5197,3.5507,3.4615s-1.5581,3.4481-3.5507,3.4481-3.5507-1.5072-3.5507-3.4481,1.5581-3.4615,3.5507-3.4615Zm1.8392,3.4615c0-1.0985-.8049-1.9418-1.8392-1.9418-1.0218,0-1.8392.8433-1.8392,1.9418,0,1.0726.8049,1.9284,1.8392,1.9284s1.8392-.8558,1.8392-1.9284Z"/><path class="uuid-f21a0f81-bbb5-4e06-a15d-f08aeca7b776" d="m118.2075,77.675c0-1.2645,1.0218-2.0181,2.7333-2.0181.5488,0,1.0985.0892,1.6215.2552v-.4725c0-.7661-.4721-1.1623-1.4046-1.1623-.5622,0-1.1877.1789-2.031.5493l-.6381-1.2899c1.0468-.4854,2.0052-.7152,2.9627-.7152,1.8008,0,2.8359.8941,2.8359,2.4652v4.3169h-1.7249v-.4596c-.5613.3958-1.1619.5747-1.9284.5747-1.4305,0-2.4264-.8303-2.4264-2.0435Zm2.886.7916c.5755,0,1.0601-.1401,1.4688-.4212v-.9963c-.4337-.166-.8933-.2427-1.4046-.2427-.8049,0-1.277.3195-1.277.8303s.4721.8299,1.2128.8299Z"/><path class="uuid-f21a0f81-bbb5-4e06-a15d-f08aeca7b776" d="m130.5938,77.4577l1.0476,1.0856c-.6898.7536-1.6865,1.1877-2.7083,1.1877-1.9668,0-3.4865-1.5072-3.4865-3.4481s1.5197-3.4615,3.4865-3.4615c1.0601,0,2.0694.4341,2.7592,1.1877l-1.0726,1.1369c-.4854-.5363-1.0218-.8049-1.6482-.8049-1.0084,0-1.7875.8433-1.7875,1.9418s.7916,1.9155,1.8258,1.9155c.6005,0,1.1118-.2298,1.5839-.7407Z"/><path class="uuid-f21a0f81-bbb5-4e06-a15d-f08aeca7b776" d="m133.7208,74.4178h-1.3662v-1.4688h1.3662v-1.6986l1.7499-.3958v2.0944h1.8901v1.4688h-1.8901v2.9506c0,.6256.2427.8554.92.8554.332,0,.5872-.038.9317-.1531v1.4305c-.3703.1151-.9701.2044-1.3537.2044-1.4814,0-2.2479-.6769-2.2479-1.9797v-3.308Z"/><path class="uuid-f21a0f81-bbb5-4e06-a15d-f08aeca7b776" d="m138.2407,71.1611c0-.5493.4462-.9963.9959-.9963.5488,0,.9959.4471.9959.9963s-.4471.9963-.9959.9963c-.5497,0-.9959-.4471-.9959-.9963Zm1.8767,8.4423h-1.7491v-6.6544h1.7491v6.6544Z"/><path class="uuid-f21a0f81-bbb5-4e06-a15d-f08aeca7b776" d="m144.8685,72.8214c1.9918,0,3.5499,1.5197,3.5499,3.4615s-1.5581,3.4481-3.5499,3.4481-3.5507-1.5072-3.5507-3.4481,1.5581-3.4615,3.5507-3.4615Zm1.8392,3.4615c0-1.0985-.8049-1.9418-1.8392-1.9418-1.0218,0-1.8392.8433-1.8392,1.9418,0,1.0726.8041,1.9284,1.8392,1.9284,1.0343,0,1.8392-.8558,1.8392-1.9284Z"/><path class="uuid-f21a0f81-bbb5-4e06-a15d-f08aeca7b776" d="m149.6295,72.949h1.7499v.5238c.5105-.4216,1.1369-.6514,1.865-.6514,1.5447,0,2.6307,1.0856,2.6307,2.6441v4.1379h-1.7499v-3.8827c0-.8429-.5363-1.3921-1.3796-1.3921-.5872,0-1.0601.2298-1.3662.6639v4.6109h-1.7499v-6.6544Z"/><path class="uuid-ff3f6c3d-aaf4-4fb5-8912-1f7a43ac9478" d="m285.3589,136.7987c.1975-1.2584.1968-2.539-.0034-3.7974h3.1717c.3456,1.2445.3483,2.5515.007,3.7974h-3.1752Zm1.3794,3.1467c-.9504.9497-2.129,1.5809-3.4067,1.8799.7821-1.1193,1.3655-2.3346,1.7256-3.6028h2.911c-.3247.616-.7127,1.2056-1.2298,1.7229h0Zm-5.035,1.6824c-.8419-1.0359-1.4586-2.1913-1.8542-3.4053h3.7092c-.3956,1.214-1.0123,2.3694-1.855,3.4053h0Zm-5.0335-1.6824c-.5117-.5117-.9046-1.1012-1.2341-1.7229h2.9145c.3601,1.2695.9434,2.4848,1.7256,3.6028-1.2772-.299-2.4549-.9288-3.406-1.8799h0Zm-2.0851-5.0336c0-.6591.1196-1.2932.2914-1.9105h3.1759c-.2002,1.2584-.201,2.539-.0035,3.7974h-3.1793c-.1676-.6104-.2844-1.2361-.2844-1.8869h0Zm2.0851-5.0336c.9504-.9511,2.1281-1.581,3.4053-1.8799-.7773,1.1123-1.3578,2.3193-1.7179,3.5791h-2.9082c.3267-.6118.7161-1.1944,1.2208-1.6992h0Zm6.8801,1.6992h-3.6925c.3956-1.2056,1.0095-2.3527,1.8459-3.3817.8371,1.029,1.451,2.1761,1.8466,3.3817h0Zm.3733,5.2213h-4.4398c-.2246-1.2556-.2239-2.5418.0035-3.7974h4.4335c.2273,1.2556.2273,2.5418.0028,3.7974h0Zm2.8151-6.9205c.5103.5103.8947,1.0929,1.2172,1.6992h-2.9054c-.3601-1.2598-.9413-2.4668-1.7186-3.5791,1.2778.2989,2.4563.9288,3.4067,1.8799h0Zm1.0067-1.0067c-1.6137-1.6144-3.7592-2.5029-6.041-2.5029s-4.4273.8885-6.041,2.5029c-1.6136,1.613-2.5021,3.7585-2.5021,6.0403s.8885,4.4273,2.5021,6.0402c1.6137,1.6144,3.7578,2.5029,6.0382,2.5029h.0118c2.2797-.0027,4.4217-.8926,6.032-2.5029,3.3308-3.3302,3.3308-8.7503,0-12.0805h0Z"/><circle class="uuid-5f101f0d-6416-4478-9bd5-05c45d3a2c49" cx="342.9381" cy="74.3396" r="23.2211"/><polygon class="uuid-f21a0f81-bbb5-4e06-a15d-f08aeca7b776" points="337.2596 67.0143 337.2596 81.6649 351.5219 74.3396 337.2596 67.0143"/><rect class="uuid-f21a0f81-bbb5-4e06-a15d-f08aeca7b776" x="38.7891" y="113.6729" width="214.4087" height="34.1699" rx="2.5" ry="2.5"/><path class="uuid-5f101f0d-6416-4478-9bd5-05c45d3a2c49" d="m250.6979,114.173c1.1028,0,2,.8972,2,2v29.1701c0,1.1028-.8972,2-2,2H41.2892c-1.1028,0-2-.8972-2-2v-29.1701c0-1.1028.8972-2,2-2h209.4087m0-1H41.2892c-1.6569,0-3,1.3431-3,3v29.1701c0,1.6569,1.3431,3,3,3h209.4087c1.6569,0,3-1.3431,3-3v-29.1701c0-1.6569-1.3431-3-3-3h0Z"/><polyline class="uuid-9780adaa-6052-465e-9a18-27f0728bfa25" points="228.4794 128.8007 232.2675 132.5888 236.0783 128.778"/><path class="uuid-3fc3551c-37e6-498b-a3ad-aa056512c172" d="m54.2592,126.9887h2.7542c2.4464,0,4.1555,1.7925,4.1555,4.1555s-1.6974,4.1555-4.1555,4.1555h-2.7542v-8.3109Zm.9142.8191v6.6727h1.8992c1.7933,0,3.1704-1.4371,3.1704-3.3364s-1.3771-3.3364-3.1704-3.3364h-1.8992Z"/><path class="uuid-3fc3551c-37e6-498b-a3ad-aa056512c172" d="m62.8637,129.506h.8666v1.1752c.2969-.8074.8783-1.282,1.6148-1.282.2019,0,.3678.0234.5455.0826v.784c-.1893-.0601-.4154-.1068-.6056-.1068-.7123,0-1.2578.4271-1.5548,1.1752v3.9653h-.8666v-5.7936Z"/><path class="uuid-3fc3551c-37e6-498b-a3ad-aa056512c172" d="m69.3563,129.4109c1.6148,0,2.8259,1.282,2.8259,2.9919,0,1.7216-1.2228,3.0152-2.8259,3.0152-1.5906,0-2.8142-1.3054-2.8142-3.0152s1.2111-2.9919,2.8142-2.9919Zm1.971,3.0036c0-1.282-.8433-2.2437-1.971-2.2437s-1.9593.9617-1.9593,2.2437c0,1.2945.8316,2.232,1.9593,2.232s1.971-.95,1.971-2.232Z"/><path class="uuid-3fc3551c-37e6-498b-a3ad-aa056512c172" d="m73.8295,129.506h.8541v.8308c.4396-.5814,1.1043-.9025,1.8759-.9025,1.508,0,2.6716,1.3062,2.6716,2.9685,0,1.674-1.1869,2.9802-2.7183,2.9802-.7248,0-1.3654-.2853-1.8167-.8074v3.2054h-.8666v-8.275Zm.8666,1.4839v2.8376c.3795.5105.9851.8074,1.6498.8074,1.1636,0,2.0302-.95,2.0302-2.2204s-.8666-2.2204-2.0302-2.2204c-.6881,0-1.282.2853-1.6498.7957Z"/><path class="uuid-3fc3551c-37e6-498b-a3ad-aa056512c172" d="m88.0375,134.528c-.4396.558-1.0927.8549-1.8525.8549-1.508,0-2.6716-1.3062-2.6716-2.9685,0-1.674,1.1877-2.9802,2.7191-2.9802.7123,0,1.3421.2853,1.805.8074v-3.4315l.8666-.1777v8.6671h-.8666v-.7715Zm-1.639.0951c.6773,0,1.2703-.2736,1.639-.7724v-2.8726c-.3803-.4871-.9859-.784-1.639-.784-1.1636,0-2.0302.9384-2.0302,2.2087s.8666,2.2204,2.0302,2.2204Z"/><path class="uuid-3fc3551c-37e6-498b-a3ad-aa056512c172" d="m93.3648,129.4109c1.6148,0,2.8259,1.282,2.8259,2.9919,0,1.7216-1.2228,3.0152-2.8259,3.0152-1.5906,0-2.8142-1.3054-2.8142-3.0152s1.2111-2.9919,2.8142-2.9919Zm1.971,3.0036c0-1.282-.8433-2.2437-1.971-2.2437s-1.9593.9617-1.9593,2.2437c0,1.2945.8316,2.232,1.9593,2.232s1.971-.95,1.971-2.232Z"/><path class="uuid-3fc3551c-37e6-498b-a3ad-aa056512c172" d="m98.7523,135.2996l-1.5906-5.7936h.8424l1.2111,4.6301,1.3896-4.6301h.7715l1.3888,4.6301,1.1994-4.6301h.8191l-1.5789,5.7936h-.8433l-1.3771-4.6776-1.3771,4.6776h-.8549Z"/><path class="uuid-3fc3551c-37e6-498b-a3ad-aa056512c172" d="m106.1348,129.506h.8666v.9375c.4387-.6881,1.0685-1.0326,1.84-1.0326,1.247,0,2.1011.8666,2.1011,2.1369v3.7518h-.8666v-3.5024c0-1.0209-.6056-1.6623-1.5548-1.6623-.6414,0-1.1761.3086-1.5197.8908v4.2739h-.8666v-5.7936Z"/><path class="uuid-3fc3551c-37e6-498b-a3ad-aa056512c172" d="m115.7119,129.506h.8666v.9017c.4387-.6648,1.0093-.9967,1.7216-.9967.8191,0,1.4605.4387,1.7808,1.1277.4512-.7482,1.0918-1.1277,1.9351-1.1277,1.1636,0,1.971.8783,1.971,2.1486v3.7401h-.8666v-3.5265c0-1.0093-.5463-1.6382-1.4246-1.6382-.6056,0-1.0927.2969-1.4488.9142.0359.166.0475.3328.0475.5105v3.7401h-.8666v-3.5265c0-1.0093-.558-1.6382-1.4363-1.6382-.5939,0-1.0693.2853-1.413.8549v4.3098h-.8666v-5.7936Z"/><path class="uuid-3fc3551c-37e6-498b-a3ad-aa056512c172" d="m128.4827,135.4063c-1.6265,0-2.8735-1.3062-2.8735-3.0036s1.1877-2.9919,2.7308-2.9919c1.5197,0,2.6599,1.2586,2.6599,2.9202v.2619h-4.5475c.0834,1.1752.9617,2.0535,2.066,2.0535.6056,0,1.1994-.2252,1.5906-.5939l.5463.5822c-.6648.5221-1.3654.7715-2.1728.7715Zm-2.006-3.4315h3.6683c-.131-1.0443-.8666-1.8158-1.8167-1.8158-.9617,0-1.6974.7473-1.8517,1.8158Z"/><path class="uuid-3fc3551c-37e6-498b-a3ad-aa056512c172" d="m132.6115,129.506h.8666v.9375c.4387-.6881,1.0685-1.0326,1.84-1.0326,1.247,0,2.1019.8666,2.1019,2.1369v3.7518h-.8675v-3.5024c0-1.0209-.6056-1.6623-1.5548-1.6623-.6414,0-1.1761.3086-1.5197.8908v4.2739h-.8666v-5.7936Z"/><path class="uuid-3fc3551c-37e6-498b-a3ad-aa056512c172" d="m140.0766,132.9966c0,1.0326.5939,1.674,1.5439,1.674.6406,0,1.1752-.3094,1.5197-.8791v-4.2856h.8666v5.7936h-.8666v-.9384c-.4396.689-1.0568,1.0334-1.8408,1.0334-1.2461,0-2.1011-.8783-2.1011-2.1495v-3.7392h.8783v3.4907Z"/><rect class="uuid-f21a0f81-bbb5-4e06-a15d-f08aeca7b776" x="313.1943" y="113.6055" width="9.3633" height="9.3623" rx="1.625" ry="1.625"/><path class="uuid-48352df4-19bd-40c1-9d9e-fa797ce8ca85" d="m320.9323,113.9801c.6892,0,1.25.5607,1.25,1.25v6.113c0,.6893-.5608,1.25-1.25,1.25h-6.113c-.6892,0-1.25-.5607-1.25-1.25v-6.113c0-.6893.5608-1.25,1.25-1.25h6.113m0-.75h-6.113c-1.1046,0-2,.8954-2,2v6.113c0,1.1046.8954,2,2,2h6.113c1.1046,0,2-.8954,2-2v-6.113c0-1.1046-.8954-2-2-2h0Z"/><rect class="uuid-f21a0f81-bbb5-4e06-a15d-f08aeca7b776" x="313.1943" y="133.6484" width="9.3633" height="9.3623" rx="1.625" ry="1.625"/><path class="uuid-65696813-18be-4278-aa84-a8522cabe3a6" d="m320.9323,134.0231c.6892,0,1.25.5607,1.25,1.25v6.113c0,.6893-.5608,1.25-1.25,1.25h-6.113c-.6892,0-1.25-.5607-1.25-1.25v-6.113c0-.6893.5608-1.25,1.25-1.25h6.113m0-.75h-6.113c-1.1046,0-2,.8954-2,2v6.113c0,1.1046.8954,2,2,2h6.113c1.1046,0,2-.8954,2-2v-6.113c0-1.1046-.8954-2-2-2h0Z"/><path class="uuid-3fc3551c-37e6-498b-a3ad-aa056512c172" d="m329.455,115.3322l3.4999,4.9512-.0167-4.9512h.6231v5.9754h-.5972l-3.5858-5.0621.0175,5.0621h-.6231v-5.9754h.6823Z"/><path class="uuid-3fc3551c-37e6-498b-a3ad-aa056512c172" d="m337.0395,117.0738c1.1611,0,2.0319.9217,2.0319,2.1511,0,1.2378-.88,2.1678-2.0319,2.1678-1.1444,0-2.0235-.9384-2.0235-2.1678s.8708-2.1511,2.0235-2.1511Zm1.4171,2.1595c0-.9217-.6064-1.6131-1.4171-1.6131-.8116,0-1.4088.6915-1.4088,1.6131,0,.9308.5972,1.6048,1.4088,1.6048.8107,0,1.4171-.6831,1.4171-1.6048Z"/><path class="uuid-3fc3551c-37e6-498b-a3ad-aa056512c172" d="m340.6361,117.6543h-.8625v-.5121h.8625v-1.1444l.6231-.1451v1.2895h1.1953v.5121h-1.1953v2.5523c0,.4437.171.6231.6064.6231.2135,0,.3587-.0259.5889-.1109v.5547c-.2302.0767-.4871.1109-.7257.1109-.7173,0-1.0927-.3503-1.0927-1.0159v-2.7141Z"/><path class="uuid-3fc3551c-37e6-498b-a3ad-aa056512c172" d="m347.6725,117.0738c1.1611,0,2.0319.9217,2.0319,2.1511,0,1.2378-.8791,2.1678-2.0319,2.1678-1.1435,0-2.0227-.9384-2.0227-2.1678s.8708-2.1511,2.0227-2.1511Zm1.4171,2.1595c0-.9217-.6064-1.6131-1.4171-1.6131s-1.408.6915-1.408,1.6131c0,.9308.5972,1.6048,1.408,1.6048s1.4171-.6831,1.4171-1.6048Z"/><path class="uuid-3fc3551c-37e6-498b-a3ad-aa056512c172" d="m351.0389,117.1422h.6147v.5972c.3161-.4179.7941-.6489,1.3487-.6489,1.0843,0,1.9209.9392,1.9209,2.1344,0,1.2036-.8533,2.1428-1.9551,2.1428-.5205,0-.9817-.2052-1.3062-.5805v2.3046h-.6231v-5.9496Zm.6231,1.0668v2.0402c.2736.367.709.5805,1.1869.5805.8366,0,1.4597-.6831,1.4597-1.5965s-.6231-1.5965-1.4597-1.5965c-.4955,0-.9217.2052-1.1869.5722Z"/><path class="uuid-3fc3551c-37e6-498b-a3ad-aa056512c172" d="m356.488,117.6543h-.8625v-.5121h.8625v-1.1444l.6231-.1451v1.2895h1.1953v.5121h-1.1953v2.5523c0,.4437.171.6231.6064.6231.2135,0,.3587-.0259.5889-.1109v.5547c-.2302.0767-.4871.1109-.7257.1109-.7173,0-1.0927-.3503-1.0927-1.0159v-2.7141Z"/><path class="uuid-3fc3551c-37e6-498b-a3ad-aa056512c172" d="m359.3239,115.665c0-.2386.2052-.4437.4529-.4437.2386,0,.4437.2052.4437.4437,0,.2561-.1968.4529-.4437.4529-.2569,0-.4529-.1968-.4529-.4529Zm.7599,5.6426h-.6231v-4.1655h.6231v4.1655Z"/><path class="uuid-3fc3551c-37e6-498b-a3ad-aa056512c172" d="m363.4394,117.0738c1.1611,0,2.0319.9217,2.0319,2.1511,0,1.2378-.8791,2.1678-2.0319,2.1678-1.1435,0-2.0227-.9384-2.0227-2.1678s.8708-2.1511,2.0227-2.1511Zm1.4171,2.1595c0-.9217-.6064-1.6131-1.4171-1.6131s-1.408.6915-1.408,1.6131c0,.9308.5972,1.6048,1.408,1.6048s1.4171-.6831,1.4171-1.6048Z"/><path class="uuid-3fc3551c-37e6-498b-a3ad-aa056512c172" d="m366.8058,117.1422h.6231v.6739c.3161-.4946.7682-.7423,1.3229-.7423.8967,0,1.5114.6231,1.5114,1.5364v2.6975h-.6231v-2.5181c0-.734-.4354-1.1953-1.1185-1.1953-.4613,0-.8449.2219-1.0927.6406v3.0728h-.6231v-4.1655Z"/><path d="m331.4702,141.481c-1.6565,0-2.971-1.3579-2.971-3.082s1.3145-3.082,2.971-3.082c1.664,0,2.9702,1.3579,2.9702,3.082s-1.3062,3.082-2.9702,3.082Zm0-5.5659c-1.2978,0-2.3054,1.0843-2.3054,2.4839s1.0076,2.4839,2.3054,2.4839c1.3062,0,2.3046-1.0843,2.3046-2.4839s-.9984-2.4839-2.3046-2.4839Z"/><path d="m335.81,137.2213h.6147v.5972c.3161-.4179.7941-.6489,1.3487-.6489,1.0843,0,1.9209.9392,1.9209,2.1344,0,1.2036-.8533,2.1428-1.9551,2.1428-.5205,0-.9817-.2052-1.3062-.5805v2.3046h-.6231v-5.9496Zm.6231,1.0668v2.0402c.2736.367.709.5805,1.1869.5805.8366,0,1.4597-.6831,1.4597-1.5965s-.6231-1.5965-1.4597-1.5965c-.4955,0-.9217.2052-1.1869.5722Z"/><path d="m341.2591,137.7335h-.8616v-.5121h.8616v-1.1444l.6239-.1451v1.2895h1.1944v.5121h-1.1944v2.5523c0,.4437.1702.6231.6056.6231.2135,0,.3587-.0259.5889-.1109v.5547c-.2302.0767-.4863.1109-.7257.1109-.7165,0-1.0927-.3503-1.0927-1.0159v-2.7141Z"/><path d="m344.0951,135.7441c0-.2386.2052-.4437.4529-.4437.2386,0,.4437.2052.4437.4437,0,.2561-.1968.4529-.4437.4529-.2569,0-.4529-.1968-.4529-.4529Zm.7599,5.6426h-.6231v-4.1655h.6231v4.1655Z"/><path d="m348.2113,137.1529c1.1611,0,2.0319.9217,2.0319,2.1511,0,1.2378-.88,2.1678-2.0319,2.1678-1.1444,0-2.0235-.9384-2.0235-2.1678s.8708-2.1511,2.0235-2.1511Zm1.4171,2.1595c0-.9217-.6064-1.6131-1.4171-1.6131-.8116,0-1.4088.6915-1.4088,1.6131,0,.9308.5972,1.6048,1.4088,1.6048.8107,0,1.4171-.6831,1.4171-1.6048Z"/><path d="m351.5769,137.2213h.6231v.6739c.3161-.4946.769-.7423,1.3237-.7423.8958,0,1.5105.6231,1.5105,1.5364v2.6975h-.6231v-2.5181c0-.734-.4354-1.1953-1.1185-1.1953-.4604,0-.8449.2219-1.0927.6406v3.0728h-.6231v-4.1655Z"/></svg>