<?xml version="1.0" encoding="UTF-8"?><svg id="uuid-1c35a578-be11-432c-9116-e5b2259da80b" xmlns="http://www.w3.org/2000/svg" viewBox="0 0 555 385"><defs><style>.uuid-810b5e1d-170d-43c1-986a-f7a3b4420024{fill:none;}.uuid-853b6298-9572-49d2-a39e-15aa1f5f4229{fill:#f3f3f3;}.uuid-695d2efb-fe00-43b5-aa4f-73ab98e084bf{fill:#e00;}</style></defs><rect class="uuid-853b6298-9572-49d2-a39e-15aa1f5f4229" width="555" height="385"/><g id="uuid-4c9f182c-17ea-40aa-8b4e-dac3adc7ebcd"><g id="uuid-89be4bf6-86a2-4bf7-99ce-c6402c984d7e"><path class="uuid-695d2efb-fe00-43b5-aa4f-73ab98e084bf" d="m111.3118,115.5415h45.1866c.6083,0,1.0775-.4866,1.0775-1.0775v-45.1866c0-.6083-.4866-1.0775-1.0775-1.0775h-45.1866c-.6083,0-1.0775.4866-1.0775,1.0775v45.1866c0,.6083.4866,1.0775,1.0775,1.0775Zm1.0775-45.1866h43.0316v43.0316h-43.0316s0-43.0316,0-43.0316Z"/><path class="uuid-695d2efb-fe00-43b5-aa4f-73ab98e084bf" d="m128.6912,76.8896h-10.4277c-.6083,0-1.0775.4866-1.0775,1.0775s.4866,1.0775,1.0775,1.0775h10.4277c.6083,0,1.0775-.4866,1.0775-1.0775s-.4866-1.0775-1.0775-1.0775Z"/><path class="uuid-695d2efb-fe00-43b5-aa4f-73ab98e084bf" d="m150.3113,77.2024c-.3128-.3128-.7821-.3997-1.1818-.2433l-.3476.2433-.2433.3476-.0695.4171c0,.2781.1043.5561.3128.7647l.3476.2433.4171.0869.4171-.0869.3476-.2433.2433-.3476.0869-.4171-.0869-.4171-.2433-.3476Z"/><path class="uuid-695d2efb-fe00-43b5-aa4f-73ab98e084bf" d="m128.6912,104.6967h-10.4277c-.6083,0-1.0775.4866-1.0775,1.0775s.4866,1.0775,1.0775,1.0775h10.4277c.6083,0,1.0775-.4866,1.0775-1.0775s-.4866-1.0775-1.0775-1.0775Z"/><path class="uuid-695d2efb-fe00-43b5-aa4f-73ab98e084bf" d="m150.3113,105.0095l-.3476-.2433c-.2607-.1043-.5735-.1043-.8342,0l-.3476.2433c-.2086.2086-.3128.4866-.3128.7647s.1043.5561.3128.7647l.3476.2433.4171.0869.4171-.0869.3476-.2433c.2086-.1912.3302-.4692.3302-.7647l-.0869-.4171s-.2433-.3476-.2433-.3476Z"/><path class="uuid-695d2efb-fe00-43b5-aa4f-73ab98e084bf" d="m128.6912,90.7931h-10.4277c-.6083,0-1.0775.4866-1.0775,1.0775s.4866,1.0775,1.0775,1.0775h10.4277c.6083,0,1.0775-.4866,1.0775-1.0775s-.4866-1.0775-1.0775-1.0775Z"/><path class="uuid-695d2efb-fe00-43b5-aa4f-73ab98e084bf" d="m150.3113,91.106l-.3476-.2433c-.2607-.1043-.5735-.1043-.8342,0l-.3476.2433-.2433.3476-.0695.4171c0,.2781.1043.5561.3128.7647l.3476.2433.4171.0869.4171-.0869.3476-.2433c.2086-.1912.3302-.4692.3302-.7647l-.0869-.4171s-.2433-.3476-.2433-.3476Z"/></g><g id="uuid-ad46c3e6-ea6e-491d-8649-c8694e2c5963"><rect class="uuid-810b5e1d-170d-43c1-986a-f7a3b4420024" x="102.622" y="60.5876" width="62.5661" height="62.5661"/></g></g><g id="uuid-dbe9c3ff-d732-433a-9ed5-64917545be9a"><g id="uuid-4ddbe435-81ec-47d4-881b-cc6ab5983723"><path class="uuid-695d2efb-fe00-43b5-aa4f-73ab98e084bf" d="m240.651,68.1477c-13.2953,0-23.723,5.8395-23.723,13.2953v20.8554c0,7.4558,10.4277,13.2953,23.723,13.2953s23.723-5.8395,23.723-13.2953v-20.8554c0-7.4558-10.4277-13.2953-23.723-13.2953Zm-20.3166,20.2471c.2781.2607.5735.5214.8864.7473.2955.2433.6083.4866.9211.6952,4.3101,3.0066,10.9491,4.901,18.5091,4.901s14.199-1.8944,18.5091-4.901c.3128-.2086.6257-.4519.9211-.6952.3128-.2259.6083-.4866.8864-.7473.3823-.3476.7299-.7126,1.0428-1.0949.0695.365.1043.7299.1043,1.0949s-.0348.7299-.1043,1.0949c-.0869.4345-.2259.8516-.4345,1.2687-.1564.3823-.3476.7473-.5909,1.1123-2.9198,4.3449-11.036,7.5601-20.334,7.5601s-17.4142-3.2152-20.334-7.5601c-.2433-.365-.4345-.7299-.5909-1.1123-.2086-.4171-.3476-.8342-.4345-1.2687-.0695-.365-.1043-.7299-.1043-1.0949s.0348-.7299.1043-1.0949c.3128.3823.6604.7473,1.0428,1.0949Zm-1.0428,5.8569c3.7887,4.4491,11.8354,7.4384,21.3594,7.4384s17.5706-2.9893,21.3594-7.4384c.0695.365.1043.7299.1043,1.0949,0,5.9785-9.8194,11.036-21.4636,11.036s-21.4636-5.0574-21.4636-11.036c0-.365.0348-.7299.1043-1.0949Zm42.823,8.0467c0,5.9785-9.8194,11.036-21.4636,11.036s-21.4636-5.0574-21.4636-11.036v-1.2166c3.754,4.5187,11.8528,7.5601,21.4636,7.5601s17.7097-3.0414,21.4636-7.5601v1.2166Zm-.1043-19.7605c-.0869.4345-.2259.8516-.4345,1.2687-.1564.3823-.3476.7473-.5909,1.1123-.4866.7126-1.0949,1.3904-1.8248,2.0334-.2955.2433-.6083.504-.9559.7473-.3128.2433-.6604.4692-1.0254.6952-3.9625,2.4679-9.9584,4.0842-16.5279,4.0842s-12.5654-1.6163-16.5279-4.0842c-.365-.2259-.7126-.4519-1.0254-.6952-.3476-.2433-.6604-.504-.9559-.7473-.7299-.643-1.3382-1.3208-1.8248-2.0334-.2433-.365-.4345-.7299-.5909-1.1123-.2086-.4171-.3476-.8342-.4345-1.2687-.0695-.365-.1043-.7299-.1043-1.0949,0-5.9785,9.8194-11.036,21.4636-11.036s21.4636,5.0574,21.4636,11.036c0,.365-.0348.7299-.1043,1.0949Z"/></g><g id="uuid-c3b0975e-1156-46ba-982e-d183de9b5515"><rect class="uuid-810b5e1d-170d-43c1-986a-f7a3b4420024" x="209.368" y="60.5876" width="62.5661" height="62.5661"/></g></g><g id="uuid-ff6c3eee-7932-4ffd-95f3-91a2854ccca6"><g id="uuid-348064cf-f016-4552-a6fb-22401faa1955"><path class="uuid-695d2efb-fe00-43b5-aa4f-73ab98e084bf" d="m111.3118,316.8002h43.4487c.6083,0,1.0775-.4866,1.0775-1.0775v-1.7379c0-.6083-.4866-1.0775-1.0775-1.0775s-1.0775.4866-1.0775,1.0775v.6604h-11.7311v-10.1322c1.9986-.4866,3.4759-2.2767,3.4759-4.4144,0-2.52-2.0508-4.5534-4.5534-4.5534s-4.5534,2.0508-4.5534,4.5534c0,2.1377,1.4773,3.9278,3.4759,4.4144v10.1322h-13.4691v-5.4224l4.901-4.901c.2086-.2086.3128-.4866.3128-.7647v-7.7512c1.9986-.4866,3.4759-2.2767,3.4759-4.4144,0-2.52-2.0508-4.5534-4.5534-4.5534s-4.5534,2.0508-4.5534,4.5534c0,2.1377,1.4773,3.9278,3.4759,4.4144v7.2994l-4.901,4.901c-.2086.2086-.3128.4866-.3128.7647v5.8743h-11.7833v-43.0316h11.7311v7.1603l-4.901,4.901c-.2086.2086-.3128.4866-.3128.7647v11.2271c-1.9986.4866-3.4759,2.2767-3.4759,4.4144,0,2.52,2.0508,4.5534,4.5534,4.5534s4.5534-2.0508,4.5534-4.5534c0-2.1377-1.4773-3.9278-3.4759-4.4144v-10.7753l4.901-4.901c.2086-.2086.3128-.4866.3128-.7647v-7.6122h13.4691v6.6563c-1.9986.4866-3.4759,2.2767-3.4759,4.4144,0,2.52,2.0508,4.5534,4.5534,4.5534s4.5534-2.0508,4.5534-4.5534c0-2.1377-1.4773-3.9278-3.4759-4.4144v-6.6563h11.7311v4.7794h-2.3984c-.6083,0-1.0775.4866-1.0775,1.0775v10.4277c0,.6083.4866,1.0775,1.0775,1.0775h2.3984v2.3984c0,.6083.4866,1.0775,1.0775,1.0775s1.0775-.4866,1.0775-1.0775v-3.4759c0-.6083-.4866-1.0775-1.0775-1.0775h-2.3984v-8.2552h2.3984c.6083,0,1.0775-.4866,1.0775-1.0775v-6.9518c0-.6083-.4866-1.0775-1.0775-1.0775h-43.3965c-.6083,0-1.0775.4866-1.0775,1.0775v45.1866c0,.6083.4866,1.0775,1.0775,1.0775Zm27.1467-16.719c0-1.3208,1.0775-2.3984,2.3984-2.3984s2.3984,1.0775,2.3984,2.3984-1.0775,2.3984-2.3984,2.3984-2.3984-1.0775-2.3984-2.3984Zm-10.4277-8.6897c0-1.3208,1.0775-2.3984,2.3984-2.3984s2.3984,1.0775,2.3984,2.3984-1.0775,2.3984-2.3984,2.3984-2.3984-1.0775-2.3984-2.3984Zm-5.6483,8.6897c0,1.3208-1.0775,2.3984-2.3984,2.3984s-2.3984-1.0775-2.3984-2.3984,1.0775-2.3984,2.3984-2.3984,2.3984,1.0775,2.3984,2.3984Zm20.8554-17.3795c0,1.3208-1.0775,2.3984-2.3984,2.3984s-2.3984-1.0775-2.3984-2.3984,1.0775-2.3984,2.3984-2.3984,2.3984,1.0775,2.3984,2.3984Z"/><path class="uuid-695d2efb-fe00-43b5-aa4f-73ab98e084bf" d="m158.2363,295.5277h-6.9518c-.6083,0-1.0775.4866-1.0775,1.0775v12.1656c0,.6083.4866,1.0775,1.0775,1.0775h6.9518c.6083,0,1.0775-.4866,1.0775-1.0775v-12.1656c0-.6083-.4866-1.0775-1.0775-1.0775Zm-1.0775,12.1656h-4.7794v-9.9932h4.7794v9.9932Z"/></g><g id="uuid-93479d16-8cba-4484-8af3-4831b9ca06cb"><rect class="uuid-810b5e1d-170d-43c1-986a-f7a3b4420024" x="102.622" y="261.8463" width="62.5661" height="62.5661"/></g></g><g id="uuid-0c7c6889-aa62-49a5-a207-0f6955cb9ffa"><g id="uuid-16789d07-feb4-474c-a652-918b47904730"><rect class="uuid-810b5e1d-170d-43c1-986a-f7a3b4420024" x="102.622" y="161.217" width="62.5661" height="62.5661"/></g><g id="uuid-7348f9b5-6ad5-4872-9d0d-610063d1b687"><path class="uuid-695d2efb-fe00-43b5-aa4f-73ab98e084bf" d="m145.4276,179.4306l-8.7766,8.7766c-.8168-.5388-1.8075-.8516-2.8502-.8516-2.9024,0-5.2486,2.3636-5.2486,5.2486s2.3636,5.2486,5.2486,5.2486,5.2486-2.3636,5.2486-5.2486c0-1.0601-.3128-2.0334-.8516-2.8502l8.7766-8.7766c.4171-.4171.4171-1.1123,0-1.5294s-1.1123-.4171-1.5294,0l-.0174-.0174Zm-11.6442,16.2498c-1.7032,0-3.0762-1.373-3.0762-3.0762s1.373-3.0762,3.0762-3.0762,3.0762,1.373,3.0762,3.0762-1.373,3.0762-3.0762,3.0762Z"/><path class="uuid-695d2efb-fe00-43b5-aa4f-73ab98e084bf" d="m133.9051,167.0565c-14.0252,0-25.4435,11.4183-25.4435,25.4435s11.4183,25.4435,25.4435,25.4435,25.4435-11.4183,25.4435-25.4435-11.4183-25.4435-25.4435-25.4435Zm0,48.732c-12.826,0-23.2711-10.4451-23.2711-23.2711s10.4451-23.2885,23.2711-23.2885,23.2711,10.4451,23.2711,23.2711-10.4451,23.2711-23.2711,23.2711v.0174Z"/><path class="uuid-695d2efb-fe00-43b5-aa4f-73ab98e084bf" d="m133.1404,175.8852c.1912.2086.4692.3302.7647.3302s.5735-.1217.7647-.3302c.1043-.1043.1912-.2086.2433-.3476.0521-.139.0869-.2781.0869-.4171,0-.2781-.1217-.5561-.3302-.7647-.2955-.2955-.7821-.3997-1.1818-.2433-.1217.0695-.2433.139-.3476.2433-.2086.2086-.3302.4866-.3302.7647,0,.139.0348.2781.0869.4171.0695.139.139.2433.2433.3476Z"/><path class="uuid-695d2efb-fe00-43b5-aa4f-73ab98e084bf" d="m122.8343,180.3344c0-.2781-.1217-.5735-.3302-.7647-.3997-.3997-1.1123-.3997-1.5294,0-.1043.1043-.1912.2259-.2433.3476-.0521.139-.0869.2781-.0869.4171s.0348.2781.0869.4171c.0521.1217.139.2433.2433.3476.2086.2086.4866.3302.7647.3302.2955,0,.5735-.1217.7647-.3302.2086-.1912.3302-.4692.3302-.7647Z"/><path class="uuid-695d2efb-fe00-43b5-aa4f-73ab98e084bf" d="m115.7609,191.7353c-.1043.1043-.1912.2259-.2433.3476-.0521.139-.0869.2781-.0869.4171s.0348.2781.0869.4171c.0521.1217.139.2433.2433.3476.2086.2086.4866.3302.7647.3302.2955,0,.5735-.1217.7647-.3302.2086-.1912.3302-.4692.3302-.7647,0-.2781-.1217-.5735-.3302-.7647-.3823-.3997-1.1297-.3997-1.5294,0Z"/><path class="uuid-695d2efb-fe00-43b5-aa4f-73ab98e084bf" d="m152.0492,191.7353c-.2955-.3128-.7821-.3997-1.1818-.2433-.1217.0695-.2433.139-.3476.2433-.2086.1912-.3128.4692-.3128.7647,0,.139,0,.2781.0695.4171s.139.2433.2433.3476c.1043.1043.2259.1912.3476.2433.139.0521.2781.0869.4171.0869.2955,0,.5735-.1217.7647-.3302.1043-.1043.1912-.2086.2433-.3476.0521-.139.0869-.2781.0869-.4171,0-.2955-.1217-.5735-.3302-.7647Z"/><path class="uuid-695d2efb-fe00-43b5-aa4f-73ab98e084bf" d="m141.2566,201.8502h-15.6415c-2.0334,0-3.6844,1.6511-3.6844,3.6844s1.651,3.6844,3.6844,3.6844h15.6415c2.0334,0,3.6844-1.6511,3.6844-3.6844s-1.6511-3.6844-3.6844-3.6844Zm0,5.2138h-15.6415c-.8342,0-1.5294-.6778-1.5294-1.5294s.6778-1.5294,1.5294-1.5294h15.6415c.8342,0,1.5294.6778,1.5294,1.5294s-.6778,1.5294-1.5294,1.5294Z"/></g></g><g id="uuid-336d9120-873d-44b4-8301-ee4afc6923f0"><g id="uuid-f84ffb22-6b0a-4fbf-b262-bfcd26784c3c"><rect class="uuid-810b5e1d-170d-43c1-986a-f7a3b4420024" x="209.368" y="161.217" width="62.5661" height="62.5661"/></g><g id="uuid-5adbb1c4-aabe-4347-884b-9109e0f88054"><path class="uuid-695d2efb-fe00-43b5-aa4f-73ab98e084bf" d="m263.2444,168.8205h-45.1866c-.5999,0-1.0862.4863-1.0862,1.0862v34.7589c0,.0492.0217.0911.028.1385.0064.0492.0151.0914.0282.1392.0502.1858.1303.3587.2626.4908l10.4266,10.4266c.0998.1001.2195.1795.3521.2346.1321.0549.2734.0841.4164.0841h34.7589c.5999,0,1.0862-.4863,1.0862-1.0862v-45.1866c0-.5999-.4863-1.0862-1.0862-1.0862Zm-1.0862,2.1724v6.5173h-8.2552v-2.3897c0-.5999-.4863-1.0862-1.0862-1.0862s-1.0862.4863-1.0862,1.0862v2.3897h-22.1588v-2.3897c0-.5999-.4863-1.0862-1.0862-1.0862s-1.0862.4863-1.0862,1.0862v2.3897h-8.2552v-6.5173h43.0142Zm-34.7589,41.4782l-6.7192-6.7192h6.7192v6.7192Zm2.1724,1.536v-9.3415c0-.5999-.4863-1.0862-1.0862-1.0862h-9.3415v-23.8968h8.2552v2.3897c0,.5999.4863,1.0862,1.0862,1.0862s1.0862-.4863,1.0862-1.0862v-2.3897h22.1588v2.3897c0,.5999.4863,1.0862,1.0862,1.0862s1.0862-.4863,1.0862-1.0862v-2.3897h8.2552v34.3244h-32.5865Z"/></g></g><g id="uuid-436a52de-f4d1-45cd-88fd-8a62581d88b1"><g id="uuid-6a89a76d-3918-4698-9cc4-ffcddfae7afc"><rect class="uuid-810b5e1d-170d-43c1-986a-f7a3b4420024" x="209.368" y="261.8463" width="62.5661" height="62.5661"/></g><g id="uuid-9c54d5f3-ef34-4ab0-ae70-289df7e1fba5"><path class="uuid-695d2efb-fe00-43b5-aa4f-73ab98e084bf" d="m247.0597,291.5136c6.2059,0,11.2542-5.0493,11.2542-11.2542s-5.0484-11.2542-11.2542-11.2542c-1.7303,0-3.3902.3818-4.9339,1.1354-.3233.1578-.6373.3309-.9428.5193-.3021.1849-.5949.3836-.8792.5958-2.8589,2.1486-4.4985,5.4311-4.4985,9.0038,0,6.205,5.0484,11.2542,11.2542,11.2542h.0002Zm-5.4523-18.5199c.2299-.1714.4684-.3326.7136-.4837s.4981-.2902.7577-.4175c1.2449-.6076,2.584-.9149,3.9808-.9149,5.0075,0,9.0818,4.0734,9.0818,9.0818s-4.0741,9.0818-9.0818,9.0818-9.0818-4.0734-9.0818-9.0818c0-2.8836,1.3238-5.5329,3.6295-7.2658h.0002Z"/><path class="uuid-695d2efb-fe00-43b5-aa4f-73ab98e084bf" d="m226.4878,283.961c-1.732,0-3.392.3818-4.9339,1.1371-.3217.1578-.6347.3293-.9428.5177-.3029.1849-.5975.3853-.8792.5975-2.8589,2.1486-4.4985,5.4293-4.4985,9.002,0,6.205,5.0484,11.2542,11.2542,11.2542s11.2542-5.0493,11.2542-11.2542-5.0484-11.2542-11.2542-11.2542l.0002-.0002Zm0,20.3361c-5.0075,0-9.0818-4.0734-9.0818-9.0818,0-2.8819,1.3238-5.5312,3.6328-7.2658.2291-.1731.4659-.3326.706-.4804.247-.151.5007-.292.7638-.4192,1.2423-.6076,2.5815-.9164,3.9792-.9164,5.0075,0,9.0818,4.0734,9.0818,9.0818s-4.0741,9.0818-9.0818,9.0818Z"/><path class="uuid-695d2efb-fe00-43b5-aa4f-73ab98e084bf" d="m249.7099,294.3004c-1.732,0-3.392.3818-4.9347,1.1371-.3217.1578-.6356.3309-.9402.516-.3047.1867-.5991.387-.8799.5991-2.8589,2.1486-4.4994,5.4293-4.4994,9.002,0,6.205,5.0484,11.2542,11.2542,11.2542s11.2542-5.0493,11.2542-11.2542-5.0484-11.2542-11.2542-11.2542Zm0,20.3361c-5.0075,0-9.0818-4.0734-9.0818-9.0818,0-2.8819,1.3238-5.5295,3.6354-7.2674.2266-.1714.4633-.3309.7053-.4804.247-.151.5016-.2902.7621-.4175,1.2423-.6076,2.5815-.9164,3.9792-.9164,5.0075,0,9.0818,4.0734,9.0818,9.0818s-4.0741,9.0818-9.0818,9.0818l-.0002-.0002Z"/><path class="uuid-695d2efb-fe00-43b5-aa4f-73ab98e084bf" d="m263.4124,287.2773c-2.2564-.9979-4.905.0153-5.9088,2.2692-1.003,2.2539.0144,4.905,2.2684,5.9097.5899.2614,1.2058.3853,1.8127.3853,1.715,0,3.3555-.9894,4.0962-2.6544,1.003-2.2539-.0144-4.905-2.2684-5.9097v-.0002Zm.2843,5.0272c-.5169,1.1575-1.8848,1.6837-3.0414,1.166-1.1601-.516-1.6837-1.8805-1.1677-3.0414.3818-.8554,1.2263-1.3646,2.1088-1.3646.3123,0,.6297.0627.9326.1986,1.1601.516,1.6837,1.8805,1.1677,3.0414Z"/><path class="uuid-695d2efb-fe00-43b5-aa4f-73ab98e084bf" d="m227.26,280.9807c.5829.2596,1.2007.3886,1.8195.3886.5422,0,1.0845-.0984,1.6046-.2988,1.1159-.4277,1.9985-1.2661,2.4847-2.3573.4871-1.093.5184-2.3082.0907-3.425-.4286-1.1168-1.267-1.9993-2.3582-2.4847-1.0947-.4871-2.3099-.5193-3.4241-.09-1.1168.4294-1.9993,1.2661-2.4847,2.3591-.4863,1.0913-.5184,2.3064-.09,3.4232s1.2661,1.9993,2.3573,2.4847l.0002.0002Zm-.2835-5.0254c.2503-.5617.7044-.9929,1.2788-1.2134.2673-.1018.5466-.1545.8248-.1545.3191,0,.6373.068.9378.2019.5617.2496.9929.7027,1.2134,1.2781.2199.5737.2037,1.1999-.0468,1.76v.0017c-.2503.5617-.7044.9929-1.2788,1.2134-.5754.219-1.2007.202-1.7626-.0474s-.992-.7027-1.2127-1.2781c-.2207-.5737-.2037-1.1999.0459-1.7618h.0002Z"/><path class="uuid-695d2efb-fe00-43b5-aa4f-73ab98e084bf" d="m234.7499,307.9069c-1.093-.4837-2.3099-.516-3.425-.0883-1.1159.4277-1.9976,1.2644-2.4839,2.3573-1.003,2.2539.0144,4.905,2.2684,5.9097.589.2614,1.2058.3853,1.8127.3853,1.715,0,3.3546-.9894,4.0953-2.6544,1.0038-2.2539-.0136-4.905-2.2675-5.9097Zm.2835,5.0272c-.5184,1.1575-1.8848,1.6837-3.0405,1.166-1.1601-.516-1.6837-1.8805-1.1677-3.0414.2503-.5617.7044-.9929,1.2788-1.2134.2682-.1018.5473-.1528.8266-.1528.3182,0,.6356.0662.9352.2002,1.1601.516,1.6844,1.8805,1.1677,3.0414Z"/></g></g><rect id="uuid-fb90c7a7-d18a-48e6-997f-441b6ff1a272" class="uuid-810b5e1d-170d-43c1-986a-f7a3b4420024" x="354.0862" y="232.3022" width="29.7971" height="29.7971"/><path d="m369.5549,235.2948c-.3401-.2654-.8171-.2654-1.1572,0l-13.3804,10.4342,1.1572,1.4635,1.6363-1.2759v11.5269c.0021,1.0277.8347,1.8602,1.8623,1.8623h18.6232c1.0277-.0019,1.8604-.8346,1.8623-1.8623v-11.5185l1.6363,1.2757,1.1572-1.4636-13.3973-10.4424Zm1.2922,22.1488h-3.7246v-7.4493h3.7246v7.4493Zm1.8623,0v-7.4493c-.0012-1.028-.8343-1.8611-1.8623-1.8623h-3.7246c-1.0281.001-1.8613.8342-1.8623,1.8623v7.4493h-5.587v-12.979l9.3116-7.2537,9.3116,7.2635v12.9692h-5.587Z"/><path d="m446.791,249.0631c0,5.1427-4.1689,9.3116-9.3116,9.3116s-9.3116-4.1689-9.3116-9.3116,4.1689-9.3116,9.3116-9.3116h5.7565l-3.3377,3.3386,1.3058,1.3172,5.587-5.587-5.587-5.587-1.3058,1.3167,3.3404,3.3391h-5.7593c-6.1712,0-11.1739,5.0027-11.1739,11.1739s5.0027,11.1739,11.1739,11.1739,11.1739-5.0027,11.1739-11.1739h-1.8623Z"/><rect id="uuid-005d9b81-e5b3-43f9-9e27-de81a56fb068" class="uuid-810b5e1d-170d-43c1-986a-f7a3b4420024" x="422.5809" y="232.3022" width="29.7971" height="29.7971"/><rect x="359.9887" y="304.6954" width="10.5314" height="1.8623" transform="translate(-109.1301 347.7899) rotate(-45)"/><path d="m369.9159,314.9378c-.1179.0003-.2349-.0218-.3445-.0652-.3105-.1238-.5309-.4046-.5773-.7356l-.9312-6.5181,1.8623-.2607.6984,4.9072,3.017-2.4303v-7.0023c-.0014-.2475.0957-.4854.27-.6611l3.7898-3.7898c1.5773-1.5666,2.4625-3.6991,2.4583-5.9222v-1.732h-1.732c-2.2231-.0042-4.3556.8809-5.9222,2.4583l-3.7898,3.7898c-.1757.1743-.4136.2715-.6611.27h-7.0023l-2.4303,3.0356,4.9072.6984-.2607,1.8623-6.5181-.9312c-.3311-.0464-.6118-.2668-.7356-.5773-.1254-.3128-.0719-.6689.1397-.9312l3.7246-4.6558c.1738-.2258.4414-.3596.7263-.3632h7.0675l3.5105-3.5198c1.9169-1.9277,4.5259-3.0075,7.2444-2.9983h1.732c1.0285,0,1.8623.8338,1.8623,1.8623v1.732c.0092,2.7185-1.0707,5.3275-2.9983,7.2444l-3.5198,3.5105v7.0675c-.0013.2833-.1315.5506-.3538.7263l-4.6558,3.7246c-.1638.1314-.3673.2036-.5773.2049Z"/><rect id="uuid-7b9a0904-e72d-4de2-9982-00c388ac0f87" class="uuid-810b5e1d-170d-43c1-986a-f7a3b4420024" x="354.0862" y="287.003" width="29.7971" height="29.7971"/><path d="m437.4794,293.0742l2.57,5.1959.4283.9312.9312.1397,5.7359.8287-4.0785,4.004-.6984.6797.1676.9312.9777,5.708-5.1307-2.6911-.9032-.3818-.866.4563-5.1307,2.6538.9312-5.708.1676-.9312-.6891-.717-4.1157-4.0505,5.7359-.8287.9312-.1397.4283-.9312,2.6072-5.1493m0-4.2088l-4.2368,8.5853-9.4699,1.3688,6.8533,6.6857-1.6202,9.4327,8.4736-4.4509,8.4736,4.4509-1.6202-9.4327,6.8533-6.6764-9.4699-1.3781-4.2368-8.5853Z"/><rect id="uuid-c9a41530-3961-4e5a-86e7-532311f22272" class="uuid-810b5e1d-170d-43c1-986a-f7a3b4420024" x="422.5809" y="287.003" width="29.7971" height="29.7971"/><path d="m426.3055,70.0622h-1.8623v24.2102c0,1.0285.8338,1.8623,1.8623,1.8623h24.2102v-1.8623h-24.2102v-24.2102Z"/><path d="m450.5157,76.5803h-6.5181v1.8623h3.3429l-7.0675,7.0675-3.9947-4.004c-.3621-.3651-.9517-.3675-1.3168-.0054-.0018.0018-.0036.0036-.0054.0054l-6.7882,6.7975,1.3129,1.3129,6.1363-6.1363,3.9947,4.004c.3621.3651.9517.3675,1.3168.0054.0018-.0018.0036-.0036.0054-.0054l7.7193-7.7286v3.3429h1.8623v-6.5181Z"/><rect id="uuid-723aefc7-92df-4c1f-ba4a-be68074e3177" class="uuid-810b5e1d-170d-43c1-986a-f7a3b4420024" x="422.5809" y="68.1998" width="29.7971" height="29.7971"/><path d="m433.8479,124.763c-1.7858-.0061-3.5341.5119-5.0283,1.4899l5.9594,5.9594c.8216.701.9193,1.9352.2184,2.7568-.0106.0124-.0213.0246-.0321.0367-.8038.7212-2.0401.6543-2.7614-.1495-.0109-.0121-.0216-.0243-.0321-.0367l-6.1457-5.9594c-1.0626,1.5635-1.6155,3.4175-1.583,5.3076.0204,5.1856,4.2191,9.3843,9.4047,9.4047.8153.0045,1.6282-.0893,2.421-.2793l6.2388,6.2388c1.8256,1.8256,4.7856,1.8256,6.6112,0s1.8256-4.7856,0-6.6112l-6.2388-6.2388c.19-.7929.2838-1.6057.2793-2.421.1029-5.1416-3.9819-9.3931-9.1235-9.496-.0627-.0013-.1254-.0019-.1881-.0019Zm7.4493,9.4047c-.0014.6617-.0954,1.3199-.2793,1.9554l-.2793,1.0243.7449.7449,6.2388,6.2388c.537.5084.8402,1.216.838,1.9554.0212.7432-.2852,1.4582-.838,1.9554-1.0285,1.08-2.7378,1.1216-3.8178.0931-.0318-.0303-.0628-.0613-.0931-.0931l-6.2388-6.2388-.7449-.7449-1.0243.2793c-.6356.184-1.2938.278-1.9554.2793-1.9786-.0055-3.8793-.7724-5.3076-2.1417-1.4607-1.3745-2.2724-3.3023-2.2348-5.3076.0013-.6923.0952-1.3812.2793-2.0486l4.0971,4.0971c1.4406,1.5677,3.8793,1.6707,5.4469.2301.0158-.0145.0314-.0291.0469-.0438,1.4665-1.5435,1.4041-3.9835-.1393-5.45-.0155-.0147-.0311-.0293-.0469-.0438l-4.0971-4.0971c.6022-.1905,1.2307-.2847,1.8623-.2793,1.9786.0055,3.8793.7724,5.3076,2.1417,1.4297,1.4719,2.2311,3.4419,2.2348,5.4938Z"/><rect id="uuid-6ad3e418-95aa-4c49-987e-0c561c3ea628" class="uuid-810b5e1d-170d-43c1-986a-f7a3b4420024" x="422.5809" y="122.9006" width="29.7971" height="29.7971"/><path d="m379.2275,193.2077v-1.4247l1.7878-1.5643c.6804-.5997.8298-1.6024.3538-2.3745l-2.1975-3.7246c-.3323-.5756-.9462-.9305-1.6109-.9312-.2024-.0016-.4037.0299-.5959.0931l-2.2627.7636c-.3907-.2596-.7982-.4929-1.2198-.6984l-.4749-2.3465c-.1757-.8848-.9604-1.5165-1.8623-1.4992h-4.3578c-.9019-.0173-1.6866.6144-1.8623,1.4992l-.4749,2.3465c-.4247.2054-.8353.4387-1.2291.6984l-2.2162-.8008c-.1943-.0506-.3956-.0695-.5959-.0559-.6647.0007-1.2786.3555-1.6109.9312l-2.1975,3.7246c-.4483.7701-.2882,1.7498.3818,2.3372l1.7599,1.6109v1.4247l-1.7599,1.5643c-.6898.5922-.8511,1.5959-.3818,2.3745l2.1975,3.7246c.3323.5756.9462.9305,1.6109.9312.2024.0016.4037-.0299.5959-.0931l2.2627-.7636c.3907.2596.7982.4929,1.2198.6984l.4749,2.3465c.1757.8848.9604,1.5165,1.8623,1.4992h4.3951c.9019.0173,1.6866-.6144,1.8623-1.4992l.4749-2.3465c.4247-.2054.8353-.4387,1.2291-.6984l2.2534.7636c.1923.0632.3936.0947.5959.0931.6647-.0007,1.2786-.3555,1.6109-.9312l2.123-3.7246c.4483-.7701.2882-1.7498-.3818-2.3372l-1.7599-1.6109Zm-1.6668,6.7416l-3.1939-1.0801c-.7477.6333-1.6022,1.1283-2.5234,1.4619l-.6611,3.3429h-4.3951l-.6611-3.3056c-.914-.3431-1.7639-.8372-2.5141-1.4619l-3.2032,1.0429-2.1975-3.7246,2.5328-2.2348c-.1722-.9639-.1722-1.9506,0-2.9145l-2.5328-2.3,2.1975-3.7246,3.1939,1.0801c.7477-.6333,1.6022-1.1283,2.5234-1.4619l.6611-3.3429h4.3951l.6611,3.3056c.914.3431,1.7639.8372,2.5141,1.4619l3.2032-1.0429,2.1975,3.7246-2.5328,2.2348c.1722.9639.1722,1.9506,0,2.9145l2.5328,2.3-2.1975,3.7246Z"/><path d="m368.9848,198.087c-3.0856,0-5.587-2.5014-5.587-5.587s2.5014-5.587,5.587-5.587,5.587,2.5014,5.587,5.587c.031,3.0546-2.4201,5.5559-5.4747,5.587-.0374.0004-.0749.0004-.1123,0Zm0-9.3116c-2.0102-.0468-3.6778,1.5448-3.7246,3.5551-.0013.0565-.0013.1131,0,.1696-.0468,2.0102,1.5448,3.6778,3.5551,3.7246.0565.0013.1131.0013.1696,0,2.0102.0468,3.6778-1.5448,3.7246-3.5551.0013-.0565.0013-.1131,0-.1696.0468-2.0102-1.5448-3.6778-3.5551-3.7246-.0565-.0013-.1131-.0013-.1696,0Z"/><rect id="uuid-d4ac0c7a-16ec-4a57-8784-bc8c5f7d8cb1" class="uuid-810b5e1d-170d-43c1-986a-f7a3b4420024" x="354.0862" y="177.6014" width="29.7971" height="29.7971"/><path d="m376.4341,135.9369h-1.8623v-5.587c0-3.0856-2.5014-5.587-5.587-5.587s-5.587,2.5014-5.587,5.587v5.587h-1.8623c-1.0285,0-1.8623.8338-1.8623,1.8623v11.1739c0,1.0285.8338,1.8623,1.8623,1.8623h14.8986c1.0285,0,1.8623-.8338,1.8623-1.8623v-11.1739c0-1.0285-.8338-1.8623-1.8623-1.8623Zm-11.1739-5.587c0-2.0571,1.6676-3.7246,3.7246-3.7246s3.7246,1.6676,3.7246,3.7246v5.587h-7.4493v-5.587Zm11.1739,18.6232h-14.8986v-11.1739h14.8986v11.1739Z"/><rect id="uuid-2b51611f-bc28-42ed-8921-7c0cdb580356" class="uuid-810b5e1d-170d-43c1-986a-f7a3b4420024" x="354.0862" y="122.9006" width="29.7971" height="29.7971"/><rect id="uuid-e9e480e2-a2ec-45a8-a910-7f8384d96cec" class="uuid-810b5e1d-170d-43c1-986a-f7a3b4420024" x="422.5809" y="177.6014" width="29.7971" height="29.7971"/><path d="m439.0996,205.5362l-1.6202-.9312,3.7246-6.5181h5.587c1.0285,0,1.8623-.8338,1.8623-1.8623v-11.1739c0-1.0285-.8338-1.8623-1.8623-1.8623h-18.6232c-1.0285,0-1.8623.8338-1.8623,1.8623v11.1739c0,1.0285.8338,1.8623,1.8623,1.8623h8.3804v1.8623h-8.3804c-2.0571,0-3.7246-1.6676-3.7246-3.7246v-11.1739c0-2.0571,1.6676-3.7246,3.7246-3.7246h18.6232c2.0571,0,3.7246,1.6676,3.7246,3.7246v11.1739c0,2.0571-1.6676,3.7246-3.7246,3.7246h-4.5068l-3.1846,5.587Z"/><rect x="430.0301" y="186.913" width="14.8986" height="1.8623"/><rect x="430.0301" y="192.5" width="9.3116" height="1.8623"/><path d="m368.9848,70.0622c-7.1997,0-13.0362,5.8365-13.0362,13.0362s5.8365,13.0362,13.0362,13.0362,13.0362-5.8365,13.0362-13.0362-5.8365-13.0362-13.0362-13.0362Zm11.1739,12.1051h-5.587c-.1087-3.4294-.9971-6.7889-2.5979-9.8237,4.5174,1.2357,7.7849,5.1575,8.1849,9.8237Zm-11.1739,12.1051c-.2077.0139-.4162.0139-.6239,0-1.9291-3.0764-2.9997-6.613-3.1008-10.2428h7.4493c-.0926,3.6272-1.1536,7.1636-3.0728,10.2428-.217.0152-.4348.0152-.6518,0Zm-3.7246-12.1051c.0926-3.6272,1.1536-7.1636,3.0728-10.2428.4146-.0466.8331-.0466,1.2478,0,1.9389,3.0736,3.0193,6.6104,3.1287,10.2428h-7.4493Zm.7077-9.8237c-1.5911,3.0371-2.4699,6.3966-2.57,9.8237h-5.587c.4-4.6663,3.6675-8.588,8.1849-9.8237h-.0279Zm-8.1104,11.6861h5.587c.0972,3.4265.9728,6.7859,2.5607,9.8237-4.5028-1.2488-7.753-5.1677-8.1477-9.8237Zm14.1164,9.8237c1.6008-3.0348,2.4892-6.3944,2.5979-9.8237h5.587c-.4,4.6663-3.6675,8.588-8.1849,9.8237Z"/><rect id="uuid-2067d907-d86a-4389-8ab0-66ce85a0b2ad" class="uuid-810b5e1d-170d-43c1-986a-f7a3b4420024" x="354.0862" y="68.1998" width="29.7971" height="29.7971"/></svg>