<?xml version="1.0" encoding="utf-8"?>
<!-- Generator: Adobe Illustrator 25.2.1, SVG Export Plug-In . SVG Version: 6.00 Build 0)  -->
<svg version="1.1" xmlns="http://www.w3.org/2000/svg" xmlns:xlink="http://www.w3.org/1999/xlink" x="0px" y="0px"
	 viewBox="0 0 596.5 457.5" style="enable-background:new 0 0 596.5 457.5;" xml:space="preserve">
<style type="text/css">
	.st0{fill:#EE0000;}
	.st1{clip-path:url(#SVGID_2_);}
	.st2{opacity:0.5;clip-path:url(#SVGID_4_);}
	.st3{fill:#DBF0F7;}
	.st4{clip-path:url(#SVGID_4_);}
	.st5{fill:#FFFFFF;}
	.st6{fill:#4CB6D6;}
	.st7{fill:#93D3E6;}
	.st8{fill:#FAB6B6;}
	.st9{clip-path:url(#SVGID_6_);}
	.st10{clip-path:url(#SVGID_8_);}
	.st11{clip-path:url(#SVGID_10_);}
	.st12{clip-path:url(#SVGID_14_);}
	.st13{clip-path:url(#SVGID_16_);}
	.st14{clip-path:url(#SVGID_20_);}
	.st15{clip-path:url(#SVGID_22_);}
	.st16{opacity:0.5;clip-path:url(#SVGID_24_);}
	.st17{clip-path:url(#SVGID_24_);}
	.st18{fill:#F56D6D;}
	.st19{clip-path:url(#SVGID_26_);}
	.st20{clip-path:url(#SVGID_28_);}
	.st21{clip-path:url(#SVGID_30_);}
	.st22{clip-path:url(#SVGID_34_);}
	.st23{clip-path:url(#SVGID_36_);}
	.st24{clip-path:url(#SVGID_40_);}
	.st25{clip-path:url(#SVGID_42_);}
	.st26{clip-path:url(#SVGID_44_);}
	.st27{fill:#78A9FF;}
	.st28{fill:#0F62FE;}
	.st29{fill:#4589FF;}
	.st30{clip-path:url(#SVGID_46_);}
	.st31{clip-path:url(#SVGID_48_);}
	.st32{clip-path:url(#SVGID_50_);}
	.st33{fill:#0043CE;}
	.st34{clip-path:url(#SVGID_54_);}
	.st35{clip-path:url(#SVGID_56_);}
	.st36{clip-path:url(#SVGID_60_);}
	.st37{opacity:0.5;fill:#DBF0F7;enable-background:new    ;}
	.st38{clip-path:url(#SVGID_62_);}
	.st39{clip-path:url(#SVGID_64_);}
	.st40{clip-path:url(#SVGID_66_);}
	.st41{clip-path:url(#SVGID_68_);}
	.st42{fill:#025C76;}
	.st43{clip-path:url(#SVGID_70_);}
	.st44{fill:#5F0000;}
	.st45{fill:none;}
	.st46{clip-path:url(#SVGID_72_);}
	.st47{clip-path:url(#SVGID_74_);}
	.st48{fill:#8F0000;}
	.st49{clip-path:url(#SVGID_76_);}
	.st50{clip-path:url(#SVGID_78_);}
	.st51{clip-path:url(#SVGID_80_);}
	.st52{clip-path:url(#SVGID_82_);}
	.st53{fill:#BE0000;}
	.st54{fill:none;stroke:#4CB6D6;stroke-width:2.458;stroke-linecap:round;stroke-linejoin:round;}
	.st55{fill:#FFEA6C;}
	.st56{enable-background:new    ;}
	.st57{fill:none;stroke:#000000;stroke-width:0.5;stroke-miterlimit:10;}
	.st58{fill:#FDDBDB;}
	.st59{fill:#D9D9D9;}
	.st60{fill:#FAFAFA;}
	.st61{fill:#D40000;}
	.st62{fill:#151515;}
	.st63{opacity:0.75;fill:#0066CC;}
	.st64{fill:#0066CC;}
	.st65{fill:#F3F3F3;}
	.st66{fill:#231F20;}
	.st67{fill:#0499C5;}
	.st68{fill:#595A5A;}
	.st69{fill:#EA2837;}
	.st70{fill:#070606;}
	.st71{opacity:0.25;fill:#0066CC;}
	.st72{opacity:0.5;}
	.st73{fill:#FFFFFF;stroke:#D2D2D2;stroke-miterlimit:10;}
	.st74{fill:#ED1C24;}
	.st75{fill:#C9C9C9;}
	.st76{fill:none;stroke:#000000;stroke-width:1.25;stroke-miterlimit:10;}
	.st77{fill:#6C6C6C;}
	.st78{fill:#DEDEDE;}
	.st79{fill:#AAAAAA;}
</style>
<g id="Section:_Icons">
</g>
<g id="Section:_Illustration">
</g>
<g id="Section:_Typography">
</g>
<g id="Section:_Color_palette">
	<g id="Rectangle_708">
		<path class="st5" d="M3.2497,138.75c-1.3789,0-2.5-1.1211-2.5-2.5v-133c0-1.3789,1.1211-2.5,2.5-2.5h282
			c1.3789,0,2.5,1.1211,2.5,2.5v133c0,1.3789-1.1211,2.5-2.5,2.5H3.2497z"/>
		<path class="st59" d="M285.2499,1.25c1.1028,0,2,0.8972,2,2v133c0,1.1028-0.8972,2-2,2H3.25c-1.1028,0-2-0.8972-2-2v-133
			c0-1.1028,0.8972-2,2-2H285.2499 M285.2499,0.25H3.25c-1.6569,0-3,1.3431-3,3v133c0,1.6569,1.3431,3,3,3h281.9999
			c1.657,0,3-1.3431,3-3v-133C288.2499,1.5931,286.9069,0.25,285.2499,0.25L285.2499,0.25z"/>
	</g>
	<path id="Rectangle_709" class="st60" d="M311.25,0.25h282c1.6569,0,3,1.3431,3,3v133c0,1.6569-1.3431,3-3,3h-282
		c-1.6569,0-3-1.3431-3-3v-133C308.25,1.5931,309.5931,0.25,311.25,0.25z"/>
	<g class="st56">
		<path d="M16.5592,22.6035h-0.8281v-1.2754h1.2646l0.4023-1.1631h-1.1406v-1.2754h1.5771l0.7041-2.0576h1.5439l-0.7051,2.0576
			h1.4092l0.7051-2.0576h1.5322l-0.7051,2.0576h0.8389v1.2754h-1.2744l-0.4033,1.1631h1.1416v1.2754h-1.5771l-0.7051,2.0576h-1.5322
			l0.7051-2.0576h-1.4092l-0.7051,2.0576h-1.5439L16.5592,22.6035z M19.9479,21.3281l0.4033-1.1631h-1.4092l-0.4033,1.1631H19.9479z
			"/>
	</g>
	<g class="st56">
		<path d="M24.2038,16.832h5.626v1.1406h-4.2842v2.2373h2.9531v1.1182h-2.9531v3.333h-1.3418V16.832z"/>
		<path d="M31.2897,16.832h5.626v1.1406h-4.2842v2.2373h2.9531v1.1182h-2.9531v3.333h-1.3418V16.832z"/>
		<path d="M38.3756,16.832h5.626v1.1406h-4.2842v2.2373h2.9531v1.1182h-2.9531v3.333h-1.3418V16.832z"/>
		<path d="M45.4626,16.832h5.626v1.1406h-4.2842v2.2373h2.9531v1.1182h-2.9531v3.333h-1.3418V16.832z"/>
		<path d="M52.5485,16.832h5.626v1.1406h-4.2842v2.2373h2.9531v1.1182h-2.9531v3.333h-1.3418V16.832z"/>
		<path d="M59.6344,16.832h5.626v1.1406h-4.2842v2.2373h2.9531v1.1182h-2.9531v3.333h-1.3418V16.832z"/>
	</g>
	<g class="st56">
		<path d="M16.1227,34.7148h3.8027c1.6113,0,2.7627,1.04,2.7627,2.4941c0,0.9951-0.5703,1.8008-1.4541,2.1924l1.6445,3.1426h-2.1475
			l-1.4209-2.874h-1.2637v2.874h-1.9238V34.7148z M18.0465,36.3027v1.8564h1.7002c0.5928,0,0.9951-0.3691,0.9951-0.9277
			c0-0.5596-0.4023-0.9287-0.9951-0.9287H18.0465z"/>
	</g>
	<g class="st56">
		<path d="M25.8463,41.6601l3.21-3.3555c0.5596-0.6035,0.7607-0.9844,0.7607-1.4766c0-0.6592-0.6035-1.1514-1.4316-1.1514
			c-0.7158,0-1.2754,0.2686-2.0244,0.9619l-0.6934-0.8389c0.8496-0.7939,1.7666-1.1855,2.751-1.1855
			c1.5322,0,2.584,0.8721,2.584,2.1357c0,0.75-0.2793,1.2979-1.1182,2.1816l-2.5059,2.583l3.7695-0.0225v1.0518h-5.3018V41.6601z"/>
		<path d="M32.5641,34.7148h4.7646v1.0508h-3.7246l-0.1006,2.2705c0.5264-0.2676,1.0518-0.3906,1.6328-0.3906
			c1.5547,0,2.6064,0.9502,2.6064,2.3711c0,1.5762-1.1973,2.6504-2.9639,2.6504c-1.0518,0-1.9912-0.3584-2.752-1.0625l0.7383-0.8389
			c0.6709,0.5928,1.2861,0.8389,2.0586,0.8389c0.9951,0,1.666-0.6152,1.666-1.5322c0-0.8613-0.7041-1.4648-1.7002-1.4648
			c-0.5254,0-1.0059,0.1338-1.5547,0.4131l-0.8496-0.2568L32.5641,34.7148z"/>
		<path d="M39.0016,34.7148h4.7646v1.0508h-3.7246l-0.1006,2.2705c0.5264-0.2676,1.0518-0.3906,1.6328-0.3906
			c1.5547,0,2.6064,0.9502,2.6064,2.3711c0,1.5762-1.1973,2.6504-2.9639,2.6504c-1.0518,0-1.9912-0.3584-2.752-1.0625l0.7383-0.8389
			c0.6709,0.5928,1.2861,0.8389,2.0586,0.8389c0.9951,0,1.666-0.6152,1.666-1.5322c0-0.8613-0.7041-1.4648-1.7002-1.4648
			c-0.5254,0-1.0059,0.1338-1.5547,0.4131l-0.8496-0.2568L39.0016,34.7148z"/>
	</g>
	<g class="st56">
		<path d="M51.2878,42.667c-2.3154,0-4.1162-1.7676-4.1162-4.0381s1.79-4.0371,4.083-4.0371c1.3086,0,2.5615,0.5479,3.2881,1.5205
			l-1.3535,1.1748c-0.4922-0.6602-1.1631-0.9844-1.9346-0.9844c-1.208,0-2.0918,0.9951-2.0918,2.3262
			c0,1.3428,0.917,2.3496,2.1582,2.3496c0.8838,0,1.5771-0.5371,1.79-1.3086h-1.957v-1.6221h4.0264v0.5479
			C55.1803,40.9443,53.5475,42.667,51.2878,42.667z"/>
	</g>
	<g class="st56">
		<path d="M58.7174,41.6601l3.21-3.3555c0.5596-0.6035,0.7607-0.9844,0.7607-1.4766c0-0.6592-0.6035-1.1514-1.4316-1.1514
			c-0.7158,0-1.2754,0.2686-2.0244,0.9619l-0.6934-0.8389c0.8496-0.7939,1.7666-1.1855,2.751-1.1855
			c1.5322,0,2.584,0.8721,2.584,2.1357c0,0.75-0.2793,1.2979-1.1182,2.1816l-2.5059,2.583l3.7695-0.0225v1.0518h-5.3018V41.6601z"/>
		<path d="M65.4352,34.7148h4.7646v1.0508h-3.7246l-0.1006,2.2705c0.5264-0.2676,1.0518-0.3906,1.6328-0.3906
			c1.5547,0,2.6064,0.9502,2.6064,2.3711c0,1.5762-1.1973,2.6504-2.9639,2.6504c-1.0518,0-1.9912-0.3584-2.752-1.0625l0.7383-0.8389
			c0.6709,0.5928,1.2861,0.8389,2.0586,0.8389c0.9951,0,1.666-0.6152,1.666-1.5322c0-0.8613-0.7041-1.4648-1.7002-1.4648
			c-0.5254,0-1.0059,0.1338-1.5547,0.4131l-0.8496-0.2568L65.4352,34.7148z"/>
		<path d="M71.8727,34.7148h4.7646v1.0508h-3.7246l-0.1006,2.2705c0.5264-0.2676,1.0518-0.3906,1.6328-0.3906
			c1.5547,0,2.6064,0.9502,2.6064,2.3711c0,1.5762-1.1973,2.6504-2.9639,2.6504c-1.0518,0-1.9912-0.3584-2.752-1.0625l0.7383-0.8389
			c0.6709,0.5928,1.2861,0.8389,2.0586,0.8389c0.9951,0,1.666-0.6152,1.666-1.5322c0-0.8613-0.7041-1.4648-1.7002-1.4648
			c-0.5254,0-1.0059,0.1338-1.5547,0.4131l-0.8496-0.2568L71.8727,34.7148z"/>
	</g>
	<g class="st56">
		<path d="M84.2819,34.7148c1.5215,0,2.6064,0.8945,2.6064,2.1357c0,0.7275-0.459,1.3428-1.1416,1.7002
			c0.8174,0.3242,1.3652,0.9961,1.3652,1.8008c0,1.2861-1.0967,2.1924-2.6514,2.1924h-4.0488v-7.8291H84.2819z M82.3356,36.2471
			v1.6104h1.7227c0.5371,0,0.8945-0.3242,0.8945-0.8047c0-0.4922-0.3467-0.8057-0.8945-0.8057H82.3356z M85.1657,40.1504
			c0-0.5254-0.3691-0.8613-0.9512-0.8613h-1.8789v1.7227h1.8789C84.7965,41.0117,85.1657,40.6758,85.1657,40.1504z"/>
	</g>
	<g class="st56">
		<path d="M90.404,41.6601l3.21-3.3555c0.5596-0.6035,0.7607-0.9844,0.7607-1.4766c0-0.6592-0.6045-1.1514-1.4316-1.1514
			c-0.7158,0-1.2754,0.2686-2.0244,0.9619l-0.6934-0.8389c0.8496-0.7939,1.7666-1.1855,2.751-1.1855
			c1.5322,0,2.584,0.8721,2.584,2.1357c0,0.75-0.2793,1.2979-1.1182,2.1816l-2.5059,2.583l3.7695-0.0225v1.0518H90.404V41.6601z"/>
		<path d="M97.1217,34.7148h4.7646v1.0508h-3.7246l-0.1006,2.2705c0.5264-0.2676,1.0518-0.3906,1.6328-0.3906
			c1.5547,0,2.6064,0.9502,2.6064,2.3711c0,1.5762-1.1973,2.6504-2.9639,2.6504c-1.0518,0-1.9912-0.3584-2.752-1.0625l0.7383-0.8389
			c0.6719,0.5928,1.2861,0.8389,2.0586,0.8389c0.9951,0,1.666-0.6152,1.666-1.5322c0-0.8613-0.7041-1.4648-1.7002-1.4648
			c-0.5254,0-1.0059,0.1338-1.5547,0.4131l-0.8496-0.2568L97.1217,34.7148z"/>
		<path d="M103.5592,34.7148h4.7646v1.0508h-3.7246l-0.1006,2.2705c0.5264-0.2676,1.0518-0.3906,1.6328-0.3906
			c1.5547,0,2.6064,0.9502,2.6064,2.3711c0,1.5762-1.1973,2.6504-2.9639,2.6504c-1.0518,0-1.9912-0.3584-2.752-1.0625l0.7383-0.8389
			c0.6719,0.5928,1.2861,0.8389,2.0586,0.8389c0.9951,0,1.666-0.6152,1.666-1.5322c0-0.8613-0.7041-1.4648-1.7002-1.4648
			c-0.5254,0-1.0059,0.1338-1.5547,0.4131l-0.8496-0.2568L103.5592,34.7148z"/>
	</g>
	<g class="st56">
		<path d="M21.7379,57.8437l1.2637,1.1973c-0.6934,0.9062-1.9121,1.499-3.1201,1.499c-2.3379,0-4.1279-1.7568-4.1279-4.0273
			c0-2.2812,1.8008-4.0371,4.1279-4.0371c1.252,0,2.4941,0.5928,3.1758,1.5205l-1.2969,1.2305
			c-0.5146-0.6934-1.1406-1.04-1.8789-1.04c-1.2197,0-2.1367,0.9951-2.1367,2.3262c0,1.3203,0.9512,2.3047,2.2031,2.3047
			C20.653,58.8174,21.2458,58.4931,21.7379,57.8437z"/>
	</g>
	<g class="st56">
		<path d="M26.4167,56.5019c0-2.3828,1.2979-4.0264,3.1992-4.0264c1.9121,0,3.1982,1.6436,3.1982,4.0264
			c0,2.4043-1.2861,4.0381-3.1982,4.0381C27.7028,60.54,26.4167,58.9062,26.4167,56.5019z M31.5954,56.5019
			c0-1.8008-0.7715-2.9414-1.9795-2.9414s-1.9805,1.1514-1.9805,2.9414c0,1.8115,0.7725,2.9531,1.9805,2.9531
			C30.8346,59.4551,31.5954,58.3252,31.5954,56.5019z"/>
	</g>
	<g class="st56">
		<path d="M38.5563,55.0703v5.3574h-1.7676v-7.8291h2.416l1.8906,3.7578l1.8789-3.7578h2.416v7.8291h-1.8125v-5.3125l-2.5049,4.7529
			L38.5563,55.0703z"/>
	</g>
	<g class="st56">
		<path d="M48.9489,56.5019c0-2.3828,1.2979-4.0264,3.1992-4.0264c1.9121,0,3.1982,1.6436,3.1982,4.0264
			c0,2.4043-1.2861,4.0381-3.1982,4.0381C50.235,60.54,48.9489,58.9062,48.9489,56.5019z M54.1276,56.5019
			c0-1.8008-0.7715-2.9414-1.9795-2.9414s-1.9795,1.1514-1.9795,2.9414c0,1.8115,0.7715,2.9531,1.9795,2.9531
			C53.3669,59.4551,54.1276,58.3252,54.1276,56.5019z"/>
	</g>
	<g class="st56">
		<path d="M61.6139,57.4638l-3.1758-4.8652h2.2139l1.9795,3.21l2.0029-3.21h2.0908l-3.1875,4.8535v2.9756h-1.9238V57.4638z"/>
	</g>
	<g class="st56">
		<path d="M69.2233,56.5019c0-2.3828,1.2979-4.0264,3.1992-4.0264c1.9121,0,3.1982,1.6436,3.1982,4.0264
			c0,2.4043-1.2861,4.0381-3.1982,4.0381C70.5094,60.54,69.2233,58.9062,69.2233,56.5019z M74.402,56.5019
			c0-1.8008-0.7715-2.9414-1.9795-2.9414s-1.9805,1.1514-1.9805,2.9414c0,1.8115,0.7725,2.9531,1.9805,2.9531
			C73.6413,59.4551,74.402,58.3252,74.402,56.5019z"/>
	</g>
	<g class="st56">
		<path d="M79.5954,52.5986h1.9238v3.4004l2.9199-3.4004h2.292l-3.4219,3.6797l3.624,4.1494h-2.5166l-2.8975-3.5566v3.5566h-1.9238
			V52.5986z"/>
	</g>
	<g class="st56">
		<path d="M89.2751,56.5019c0-2.3828,1.2979-4.0264,3.1992-4.0264c1.9121,0,3.1982,1.6436,3.1982,4.0264
			c0,2.4043-1.2861,4.0381-3.1982,4.0381C90.5612,60.54,89.2751,58.9062,89.2751,56.5019z M94.4538,56.5019
			c0-1.8008-0.7715-2.9414-1.9795-2.9414s-1.9795,1.1514-1.9795,2.9414c0,1.8115,0.7715,2.9531,1.9795,2.9531
			C93.693,59.4551,94.4538,58.3252,94.4538,56.5019z"/>
	</g>
	<g class="st56">
		<path d="M17.3307,78.3105l-1.7441-7.8291h1.9795l0.9502,4.8535l1.3652-4.8535h1.8008l1.3643,4.8535l0.9502-4.8535h1.9131
			l-1.7451,7.8291h-2.0352l-1.376-5.0439l-1.3867,5.0439H17.3307z"/>
		<path d="M26.943,70.3135l1.8115-0.2793v3.4443c0.4473-0.6709,1.0732-1.0283,1.8232-1.0283c1.1182,0,1.9121,0.8164,1.9121,1.9678
			v3.8926h-1.8115v-3.3662c0-0.6494-0.3809-1.0742-0.9619-1.0742c-0.3916,0-0.7051,0.1562-0.9619,0.4814v3.959H26.943V70.3135z"/>
		<path d="M33.7379,70.6377c0-0.5596,0.459-1.0176,1.0176-1.0176c0.5596,0,1.0293,0.458,1.0293,1.0176s-0.4473,1.0068-1.0293,1.0068
			C34.1852,71.6445,33.7379,71.1973,33.7379,70.6377z M35.6618,78.3105h-1.8115V72.539h1.8115V78.3105z"/>
		<path d="M37.8288,73.9375h-1.1182V72.539h1.1182v-1.5996l1.8125-0.3691v1.9688h1.543v1.3984h-1.543v2.2363
			c0,0.5146,0.2012,0.6943,0.7607,0.6943c0.2119,0,0.3799-0.0225,0.7373-0.123v1.4648c-0.335,0.1006-0.8721,0.1787-1.2412,0.1787
			c-1.3643,0-2.0693-0.626-2.0693-1.8564V73.9375z"/>
		<path d="M44.9723,78.4228c-1.7002,0-3.042-1.3086-3.042-2.9863c0-1.7002,1.2529-2.998,2.9082-2.998
			c1.666,0,2.8408,1.2637,2.8408,3.0645v0.3916h-3.9707c0.168,0.6484,0.6934,1.085,1.3535,1.085
			c0.4805,0,0.8838-0.168,1.1406-0.4805l1.1973,0.9951C46.6501,78.1543,45.946,78.4228,44.9723,78.4228z M43.7087,74.8652h2.293
			c-0.1455-0.626-0.5928-1.0176-1.1748-1.0176C44.2565,73.8476,43.8542,74.2285,43.7087,74.8652z"/>
	</g>
	<g class="st56">
		<path d="M324.5592,22.6035h-0.8281v-1.2754h1.2646l0.4023-1.1631h-1.1406v-1.2754h1.5771l0.7041-2.0576h1.5439l-0.7051,2.0576
			h1.4092l0.7051-2.0576h1.5322l-0.7051,2.0576h0.8389v1.2754h-1.2744l-0.4033,1.1631h1.1416v1.2754h-1.5771l-0.7051,2.0576h-1.5322
			l0.7051-2.0576h-1.4092l-0.7051,2.0576h-1.5439L324.5592,22.6035z M327.9479,21.3281l0.4033-1.1631h-1.4092l-0.4033,1.1631
			H327.9479z"/>
	</g>
	<g class="st56">
		<path d="M332.2038,16.832h5.626v1.1406h-4.2842v2.2373h2.9531v1.1182h-2.9531v3.333h-1.3418V16.832z"/>
		<path d="M340.2184,16.832h1.5547l3.0312,7.8291h-1.4424l-0.7949-2.1924h-3.2207l-0.8057,2.1924h-1.3975L340.2184,16.832z
			 M342.1764,21.418l-1.208-3.333l-1.2305,3.333H342.1764z"/>
		<path d="M345.8063,16.832h5.626v1.1406h-4.2842v2.2373h2.9531v1.1182h-2.9531v3.333h-1.3418V16.832z"/>
		<path d="M353.821,16.832h1.5547l3.0312,7.8291h-1.4424l-0.7949-2.1924h-3.2207l-0.8057,2.1924h-1.3975L353.821,16.832z
			 M355.779,21.418l-1.208-3.333l-1.2305,3.333H355.779z"/>
		<path d="M359.4079,16.832h5.626v1.1406h-4.2842v2.2373h2.9531v1.1182h-2.9531v3.333h-1.3418V16.832z"/>
		<path d="M367.4235,16.832h1.5547l3.0312,7.8291h-1.4424l-0.7949-2.1924h-3.2207l-0.8057,2.1924h-1.3975L367.4235,16.832z
			 M369.3815,21.418l-1.208-3.333l-1.2305,3.333H369.3815z"/>
	</g>
	<g class="st56">
		<path d="M324.1227,34.7158h3.8027c1.6113,0,2.7627,1.04,2.7627,2.4941c0,0.9951-0.5703,1.8008-1.4541,2.1924l1.6445,3.1426
			h-2.1475l-1.4209-2.874h-1.2637v2.874h-1.9238V34.7158z M326.0465,36.3037v1.8564h1.7002c0.5928,0,0.9951-0.3691,0.9951-0.9277
			c0-0.5596-0.4023-0.9287-0.9951-0.9287H326.0465z"/>
	</g>
	<g class="st56">
		<path d="M333.8463,41.6611l3.21-3.3555c0.5596-0.6035,0.7607-0.9844,0.7607-1.4766c0-0.6592-0.6035-1.1514-1.4316-1.1514
			c-0.7158,0-1.2754,0.2686-2.0244,0.9619l-0.6934-0.8389c0.8496-0.7939,1.7666-1.1855,2.751-1.1855
			c1.5322,0,2.584,0.8721,2.584,2.1357c0,0.75-0.2793,1.2979-1.1182,2.1816l-2.5059,2.583l3.7695-0.0225v1.0518h-5.3018V41.6611z"/>
		<path d="M340.5641,34.7158h4.7646v1.0508h-3.7246l-0.1006,2.2705c0.5264-0.2676,1.0518-0.3906,1.6328-0.3906
			c1.5547,0,2.6064,0.9502,2.6064,2.3711c0,1.5762-1.1973,2.6504-2.9639,2.6504c-1.0518,0-1.9912-0.3584-2.752-1.0625l0.7383-0.8389
			c0.6709,0.5928,1.2861,0.8389,2.0586,0.8389c0.9951,0,1.666-0.6152,1.666-1.5322c0-0.8613-0.7041-1.4658-1.7002-1.4658
			c-0.5254,0-1.0059,0.1348-1.5547,0.4141l-0.8496-0.2568L340.5641,34.7158z"/>
		<path d="M346.8229,38.6191c0-2.3828,1.2979-4.0264,3.1992-4.0264c1.9121,0,3.1982,1.6436,3.1982,4.0264
			c0,2.4043-1.2861,4.0381-3.1982,4.0381C348.109,42.6572,346.8229,41.0234,346.8229,38.6191z M352.0016,38.6191
			c0-1.8008-0.7715-2.9414-1.9795-2.9414s-1.9805,1.1514-1.9805,2.9414c0,1.8115,0.7725,2.9531,1.9805,2.9531
			C351.2409,41.5722,352.0016,40.4424,352.0016,38.6191z"/>
	</g>
	<g class="st56">
		<path d="M360.3717,42.6679c-2.3154,0-4.1162-1.7676-4.1162-4.0381s1.79-4.0371,4.083-4.0371c1.3086,0,2.5615,0.5479,3.2881,1.5205
			l-1.3535,1.1748c-0.4922-0.6602-1.1631-0.9844-1.9346-0.9844c-1.208,0-2.0918,0.9951-2.0918,2.3262
			c0,1.3428,0.917,2.3496,2.1582,2.3496c0.8838,0,1.5771-0.5371,1.79-1.3086h-1.957v-1.6221h4.0264v0.5479
			C364.2643,40.9453,362.6315,42.6679,360.3717,42.6679z"/>
	</g>
	<g class="st56">
		<path d="M367.8014,41.6611l3.21-3.3555c0.5596-0.6035,0.7607-0.9844,0.7607-1.4766c0-0.6592-0.6035-1.1514-1.4316-1.1514
			c-0.7158,0-1.2754,0.2686-2.0244,0.9619l-0.6934-0.8389c0.8496-0.7939,1.7666-1.1855,2.751-1.1855
			c1.5322,0,2.584,0.8721,2.584,2.1357c0,0.75-0.2793,1.2979-1.1182,2.1816l-2.5059,2.583l3.7695-0.0225v1.0518h-5.3018V41.6611z"/>
		<path d="M374.5192,34.7158h4.7646v1.0508h-3.7246l-0.1006,2.2705c0.5264-0.2676,1.0518-0.3906,1.6328-0.3906
			c1.5547,0,2.6064,0.9502,2.6064,2.3711c0,1.5762-1.1973,2.6504-2.9639,2.6504c-1.0518,0-1.9912-0.3584-2.752-1.0625l0.7383-0.8389
			c0.6709,0.5928,1.2861,0.8389,2.0586,0.8389c0.9951,0,1.666-0.6152,1.666-1.5322c0-0.8613-0.7041-1.4658-1.7002-1.4658
			c-0.5254,0-1.0059,0.1348-1.5547,0.4141l-0.8496-0.2568L374.5192,34.7158z"/>
		<path d="M380.778,38.6191c0-2.3828,1.2979-4.0264,3.1992-4.0264c1.9121,0,3.1982,1.6436,3.1982,4.0264
			c0,2.4043-1.2861,4.0381-3.1982,4.0381C382.0641,42.6572,380.778,41.0234,380.778,38.6191z M385.9567,38.6191
			c0-1.8008-0.7715-2.9414-1.9795-2.9414s-1.9805,1.1514-1.9805,2.9414c0,1.8115,0.7725,2.9531,1.9805,2.9531
			C385.196,41.5722,385.9567,40.4424,385.9567,38.6191z"/>
	</g>
	<g class="st56">
		<path d="M394.5397,34.7158c1.5215,0,2.6064,0.8945,2.6064,2.1357c0,0.7275-0.459,1.3428-1.1416,1.7002
			c0.8174,0.3242,1.3652,0.9961,1.3652,1.8008c0,1.2861-1.0967,2.1924-2.6514,2.1924h-4.0488v-7.8291H394.5397z M392.5934,36.248
			v1.6104h1.7227c0.5371,0,0.8945-0.3242,0.8945-0.8047c0-0.4922-0.3467-0.8057-0.8945-0.8057H392.5934z M395.4235,40.1513
			c0-0.5254-0.3691-0.8613-0.9512-0.8613h-1.8789v1.7227h1.8789C395.0544,41.0127,395.4235,40.6767,395.4235,40.1513z"/>
	</g>
	<g class="st56">
		<path d="M400.6618,41.6611l3.21-3.3555c0.5596-0.6035,0.7607-0.9844,0.7607-1.4766c0-0.6592-0.6045-1.1514-1.4316-1.1514
			c-0.7158,0-1.2754,0.2686-2.0244,0.9619l-0.6934-0.8389c0.8496-0.7939,1.7666-1.1855,2.751-1.1855
			c1.5322,0,2.584,0.8721,2.584,2.1357c0,0.75-0.2793,1.2979-1.1182,2.1816l-2.5059,2.583l3.7695-0.0225v1.0518h-5.3018V41.6611z"/>
		<path d="M407.3795,34.7158h4.7646v1.0508h-3.7246l-0.1006,2.2705c0.5264-0.2676,1.0518-0.3906,1.6328-0.3906
			c1.5547,0,2.6064,0.9502,2.6064,2.3711c0,1.5762-1.1973,2.6504-2.9639,2.6504c-1.0518,0-1.9912-0.3584-2.752-1.0625l0.7383-0.8389
			c0.6719,0.5928,1.2861,0.8389,2.0586,0.8389c0.9951,0,1.666-0.6152,1.666-1.5322c0-0.8613-0.7041-1.4658-1.7002-1.4658
			c-0.5254,0-1.0059,0.1348-1.5547,0.4141l-0.8496-0.2568L407.3795,34.7158z"/>
		<path d="M413.6383,38.6191c0-2.3828,1.2979-4.0264,3.1992-4.0264c1.9121,0,3.1982,1.6436,3.1982,4.0264
			c0,2.4043-1.2861,4.0381-3.1982,4.0381C414.9245,42.6572,413.6383,41.0234,413.6383,38.6191z M418.817,38.6191
			c0-1.8008-0.7715-2.9414-1.9795-2.9414s-1.9795,1.1514-1.9795,2.9414c0,1.8115,0.7715,2.9531,1.9795,2.9531
			C418.0563,41.5722,418.817,40.4424,418.817,38.6191z"/>
	</g>
	<g class="st56">
		<path d="M329.7379,57.8437l1.2637,1.1973c-0.6934,0.9062-1.9121,1.499-3.1201,1.499c-2.3379,0-4.1279-1.7568-4.1279-4.0273
			c0-2.2812,1.8008-4.0371,4.1279-4.0371c1.252,0,2.4941,0.5928,3.1758,1.5205l-1.2969,1.2305
			c-0.5146-0.6934-1.1406-1.04-1.8789-1.04c-1.2197,0-2.1367,0.9951-2.1367,2.3262c0,1.3203,0.9512,2.3047,2.2031,2.3047
			C328.653,58.8174,329.2458,58.4931,329.7379,57.8437z"/>
	</g>
	<g class="st56">
		<path d="M334.4167,56.5019c0-2.3828,1.2979-4.0264,3.1992-4.0264c1.9121,0,3.1982,1.6436,3.1982,4.0264
			c0,2.4043-1.2861,4.0381-3.1982,4.0381C335.7028,60.54,334.4167,58.9062,334.4167,56.5019z M339.5954,56.5019
			c0-1.8008-0.7715-2.9414-1.9795-2.9414s-1.9805,1.1514-1.9805,2.9414c0,1.8115,0.7725,2.9531,1.9805,2.9531
			C338.8346,59.4551,339.5954,58.3252,339.5954,56.5019z"/>
	</g>
	<g class="st56">
		<path d="M346.4665,55.0703v5.3574h-1.7676v-7.8291h2.416l1.8906,3.7578l1.8789-3.7578h2.416v7.8291h-1.8125v-5.3125
			l-2.5049,4.7529L346.4665,55.0703z"/>
	</g>
	<g class="st56">
		<path d="M356.859,56.5019c0-2.3828,1.2979-4.0264,3.1992-4.0264c1.9121,0,3.1982,1.6436,3.1982,4.0264
			c0,2.4043-1.2861,4.0381-3.1982,4.0381C358.1452,60.54,356.859,58.9062,356.859,56.5019z M362.0378,56.5019
			c0-1.8008-0.7715-2.9414-1.9795-2.9414s-1.9795,1.1514-1.9795,2.9414c0,1.8115,0.7715,2.9531,1.9795,2.9531
			C361.277,59.4551,362.0378,58.3252,362.0378,56.5019z"/>
	</g>
	<g class="st56">
		<path d="M369.5241,57.4638l-3.1758-4.8652h2.2139l1.9795,3.21l2.0029-3.21h2.0908l-3.1875,4.8535v2.9756h-1.9238V57.4638z"/>
	</g>
	<g class="st56">
		<path d="M377.1344,56.5019c0-2.3828,1.2979-4.0264,3.1992-4.0264c1.9121,0,3.1982,1.6436,3.1982,4.0264
			c0,2.4043-1.2861,4.0381-3.1982,4.0381C378.4206,60.54,377.1344,58.9062,377.1344,56.5019z M382.3131,56.5019
			c0-1.8008-0.7715-2.9414-1.9795-2.9414s-1.9795,1.1514-1.9795,2.9414c0,1.8115,0.7715,2.9531,1.9795,2.9531
			C381.5524,59.4551,382.3131,58.3252,382.3131,56.5019z"/>
	</g>
	<g class="st56">
		<path d="M387.5055,52.5986h1.9238v3.4004l2.9199-3.4004h2.292l-3.4219,3.6797l3.624,4.1494h-2.5166l-2.8975-3.5566v3.5566h-1.9238
			V52.5986z"/>
	</g>
	<g class="st56">
		<path d="M397.1852,59.5439l3.21-3.3555c0.5596-0.6035,0.7607-0.9844,0.7607-1.4766c0-0.6592-0.6045-1.1514-1.4316-1.1514
			c-0.7158,0-1.2754,0.2686-2.0244,0.9619l-0.6934-0.8389c0.8496-0.7939,1.7666-1.1855,2.751-1.1855
			c1.5322,0,2.584,0.8721,2.584,2.1357c0,0.75-0.2793,1.2979-1.1182,2.1816l-2.5059,2.583l3.7695-0.0225v1.0518h-5.3018V59.5439z"/>
	</g>
	<g class="st56">
		<path d="M324.1227,70.4824h1.9238v6.1846h3.8818v1.6445h-5.8057V70.4824z"/>
		<path d="M331.0856,70.6387c0-0.5586,0.459-1.0176,1.0176-1.0176c0.5596,0,1.0293,0.459,1.0293,1.0176
			c0,0.5596-0.4473,1.0068-1.0293,1.0068C331.5329,71.6455,331.0856,71.1982,331.0856,70.6387z M333.0094,78.3115h-1.8115V72.54
			h1.8115V78.3115z"/>
		<path d="M334.1598,75.3926c0-1.6113,1.1855-2.8857,2.6846-2.8857c0.6152,0,1.1738,0.2568,1.5654,0.7266V72.54h1.7783v5.8496
			c0,1.5547-1.0732,2.416-3.042,2.416c-0.8721,0-1.7002-0.1787-2.3936-0.5146l0.5596-1.3086
			c0.6377,0.3018,1.208,0.4473,1.7666,0.4473c0.8613,0,1.3086-0.3574,1.3086-1.0625V77.54
			c-0.3799,0.4697-1.0059,0.7607-1.6777,0.7607C335.2897,78.3008,334.1598,77.0029,334.1598,75.3926z M337.3141,76.8242
			c0.4365,0,0.7939-0.1572,1.0732-0.459v-1.9238c-0.2793-0.291-0.6592-0.4473-1.0732-0.4473c-0.7939,0-1.376,0.5928-1.376,1.4092
			S336.5309,76.8242,337.3141,76.8242z"/>
		<path d="M341.5934,70.3144l1.8115-0.2793v3.4443c0.4473-0.6709,1.0732-1.0283,1.8232-1.0283c1.1182,0,1.9121,0.8164,1.9121,1.9678
			v3.8926h-1.8115v-3.3662c0-0.6494-0.3809-1.0742-0.9619-1.0742c-0.3916,0-0.7051,0.1562-0.9619,0.4814v3.959h-1.8115V70.3144z"/>
		<path d="M349.0924,73.9385h-1.1182V72.54h1.1182v-1.5996l1.8125-0.3691V72.54h1.543v1.3984h-1.543v2.2363
			c0,0.5146,0.2012,0.6943,0.7607,0.6943c0.2119,0,0.3799-0.0225,0.7373-0.123v1.4648c-0.335,0.1006-0.8721,0.1787-1.2412,0.1787
			c-1.3643,0-2.0693-0.626-2.0693-1.8564V73.9385z"/>
		<path d="M355.5973,75.3926c0-1.6113,1.1855-2.8857,2.6846-2.8857c0.6152,0,1.1738,0.2568,1.5654,0.7266V72.54h1.7783v5.8496
			c0,1.5547-1.0732,2.416-3.042,2.416c-0.8721,0-1.7002-0.1787-2.3936-0.5146l0.5596-1.3086
			c0.6377,0.3018,1.208,0.4473,1.7666,0.4473c0.8613,0,1.3086-0.3574,1.3086-1.0625V77.54
			c-0.3799,0.4697-1.0059,0.7607-1.6777,0.7607C356.7272,78.3008,355.5973,77.0029,355.5973,75.3926z M358.7516,76.8242
			c0.4365,0,0.7939-0.1572,1.0732-0.459v-1.9238c-0.2793-0.291-0.6592-0.4473-1.0732-0.4473c-0.7939,0-1.376,0.5928-1.376,1.4092
			S357.9684,76.8242,358.7516,76.8242z"/>
		<path d="M363.0299,72.54h1.8115v1.3086c0.3691-0.9619,0.8838-1.4199,1.5654-1.4199c0.2578,0.0107,0.3809,0.0332,0.6045,0.1455
			v1.5547c-0.2236-0.1123-0.5371-0.1797-0.8506-0.1797c-0.5361,0-1.0283,0.2803-1.3193,0.7158v3.6465h-1.8115V72.54z"/>
		<path d="M367.5905,76.6562c0-1.0625,0.8271-1.6777,2.248-1.6777c0.4141,0,0.8271,0.0781,1.3418,0.2686v-0.4697
			c0-0.5596-0.3691-0.8389-1.1406-0.8389c-0.4365,0-0.9512,0.123-1.6221,0.4023l-0.626-1.2637
			c0.9502-0.4248,1.8008-0.626,2.6504-0.626c1.5996,0,2.5283,0.7939,2.5283,2.1689v3.6914h-1.79v-0.5029
			c-0.5029,0.4248-0.9844,0.5928-1.5996,0.5928C368.4069,78.4014,367.5905,77.6855,367.5905,76.6562z M370.1403,77.2041
			c0.3799,0,0.7266-0.1006,1.04-0.291v-0.7383c-0.335-0.0781-0.6602-0.123-0.9951-0.123c-0.5928,0-0.9287,0.2021-0.9287,0.5713
			S369.5807,77.2041,370.1403,77.2041z"/>
		<path d="M375.6608,78.4238l-2.125-5.8838h2.002l1.1523,3.7246l1.3193-3.7246h1.957l-2.5947,6.4424
			c-0.5361,1.3203-1.1963,1.8008-2.5273,1.8008c-0.2129,0-0.5029-0.0332-0.749-0.0889v-1.5215
			c0.3799,0.0449,0.4355,0.0449,0.5361,0.0449c0.4922,0,0.7939-0.1904,0.9395-0.582L375.6608,78.4238z"/>
		<path d="M385.9225,70.3594l0.9619,1.1074c-1.4209,0.9395-2.1699,2.3594-2.1699,4.127c0,1.7666,0.749,3.1875,2.1699,4.127
			l-0.9619,1.1074c-1.8115-1.0957-2.7959-2.9531-2.7959-5.2344C383.1266,73.3115,384.111,71.4551,385.9225,70.3594z"/>
		<path d="M391.9919,70.4824c1.5215,0,2.6064,0.8945,2.6064,2.1357c0,0.7275-0.459,1.3428-1.1416,1.7002
			c0.8174,0.3242,1.3652,0.9961,1.3652,1.8008c0,1.2861-1.0967,2.1924-2.6514,2.1924h-4.0488v-7.8291H391.9919z M390.0456,72.0146
			v1.6104h1.7227c0.5371,0,0.8945-0.3242,0.8945-0.8047c0-0.4922-0.3467-0.8057-0.8945-0.8057H390.0456z M392.8756,75.918
			c0-0.5254-0.3691-0.8613-0.9512-0.8613h-1.8789v1.7227h1.8789C392.5065,76.7793,392.8756,76.4433,392.8756,75.918z"/>
		<path d="M397.9147,78.3115h-1.8115v-7.9971l1.8115-0.2793V78.3115z"/>
		<path d="M399.0534,76.6562c0-1.0625,0.8271-1.6777,2.248-1.6777c0.4141,0,0.8271,0.0781,1.3418,0.2686v-0.4697
			c0-0.5596-0.3691-0.8389-1.1406-0.8389c-0.4365,0-0.9512,0.123-1.6221,0.4023l-0.626-1.2637
			c0.9502-0.4248,1.8008-0.626,2.6504-0.626c1.5996,0,2.5283,0.7939,2.5283,2.1689v3.6914h-1.79v-0.5029
			c-0.5029,0.4248-0.9844,0.5928-1.5996,0.5928C399.8698,78.4014,399.0534,77.6855,399.0534,76.6562z M401.6032,77.2041
			c0.3799,0,0.7266-0.1006,1.04-0.291v-0.7383c-0.335-0.0781-0.6602-0.123-0.9951-0.123c-0.5928,0-0.9287,0.2021-0.9287,0.5713
			S401.0436,77.2041,401.6032,77.2041z"/>
		<path d="M409.7975,76.2871l1.0732,1.0625c-0.5479,0.6709-1.4199,1.0742-2.3486,1.0742c-1.6885,0-2.9863-1.2979-2.9863-2.9863
			c0-1.6895,1.2979-2.9863,2.9863-2.9863c0.9512,0,1.8232,0.3799,2.4053,1.0625l-1.1074,1.1064
			c-0.3691-0.4355-0.7383-0.626-1.2305-0.626c-0.7158,0-1.2529,0.6152-1.2529,1.4434c0,0.8164,0.5479,1.4199,1.2979,1.4199
			C409.1149,76.8574,409.5065,76.667,409.7975,76.2871z"/>
		<path d="M411.818,70.3144l1.8115-0.2793v4.7979l2.0137-2.293h2.002l-2.3496,2.584l2.5166,3.1875h-2.2588l-1.9238-2.5498v2.5498
			h-1.8115V70.3144z"/>
		<path d="M422.1588,74.3525v1.5098h-4.1162v-1.5098H422.1588z"/>
		<path d="M426.07,78.3115h-1.7227v-6.04l-1.5439,0.6377v-1.5205l2.1816-0.9062h1.085V78.3115z"/>
		<path d="M427.2292,74.3857c0-2.416,1.3535-4.0264,3.3896-4.0264c2.0244,0,3.3779,1.6104,3.3779,4.0264
			c0,2.4268-1.3428,4.0381-3.3779,4.0381C428.5719,78.4238,427.2292,76.8242,427.2292,74.3857z M432.2848,74.3857
			c0-1.5439-0.6377-2.5059-1.666-2.5059c-1.0293,0-1.6777,0.9736-1.6777,2.5059c0,1.5547,0.6377,2.5166,1.6777,2.5166
			S432.2848,75.9512,432.2848,74.3857z"/>
		<path d="M434.9528,74.3857c0-2.416,1.3535-4.0264,3.3896-4.0264c2.0244,0,3.3779,1.6104,3.3779,4.0264
			c0,2.4268-1.3428,4.0381-3.3779,4.0381C436.2956,78.4238,434.9528,76.8242,434.9528,74.3857z M440.0085,74.3857
			c0-1.5439-0.6377-2.5059-1.666-2.5059c-1.0293,0-1.6777,0.9736-1.6777,2.5059c0,1.5547,0.6377,2.5166,1.6777,2.5166
			S440.0085,75.9512,440.0085,74.3857z"/>
		<path d="M443.4147,80.8281l-0.9619-1.1074c1.4209-0.9395,2.1699-2.3604,2.1699-4.127c0-1.7676-0.749-3.1875-2.1699-4.127
			l0.9619-1.1074c1.8115,1.0957,2.7959,2.9521,2.7959,5.2344C446.2106,77.875,445.2262,79.7324,443.4147,80.8281z"/>
	</g>
	<path id="Rectangle_708-2" class="st61" d="M3.25,159.25h282c1.6569,0,3,1.3431,3,3v133c0,1.6569-1.3431,3-3,3h-282
		c-1.6569,0-3-1.3431-3-3v-133C0.25,160.5931,1.5931,159.25,3.25,159.25z"/>
	<path id="Rectangle_709-2" class="st62" d="M311.25,159.25h282c1.6569,0,3,1.3431,3,3v133c0,1.6569-1.3431,3-3,3h-282
		c-1.6569,0-3-1.3431-3-3v-133C308.25,160.5931,309.5931,159.25,311.25,159.25z"/>
	<g class="st56">
		<path class="st5" d="M16.609,181.8896h-0.8594v-1.3232h1.3125l0.418-1.208h-1.1846v-1.3242h1.6377l0.7314-2.1357h1.6025
			l-0.7314,2.1357h1.4629l0.7314-2.1357h1.5908l-0.7314,2.1357h0.8711v1.3242h-1.3242l-0.418,1.208h1.1846v1.3232h-1.6377
			l-0.7314,2.1367H18.943l0.7314-2.1367h-1.4629l-0.7314,2.1367h-1.6025L16.609,181.8896z M20.1276,180.5664l0.418-1.208h-1.4629
			l-0.418,1.208H20.1276z"/>
	</g>
	<g class="st56">
		<path class="st5" d="M24.5504,175.8984h2.9727c2.3457,0,4.0752,1.7764,4.0752,4.0752c0,2.2881-1.7295,4.0527-4.0752,4.0527
			h-2.9727V175.8984z M25.944,177.1055v5.7129h1.6133c1.4639,0,2.6016-1.2305,2.6016-2.8447s-1.1377-2.8682-2.6016-2.8682H25.944z"
			/>
		<path class="st5" d="M38.2858,180.9258h1.0449v1.0918h-1.0449v2.0088h-1.2656v-2.0088H32.654v-1.0332l4.1914-5.0859h1.4404
			V180.9258z M37.0202,180.9258v-3.6689l-3.0078,3.6689H37.0202z"/>
		<path class="st5" d="M40.3395,179.9502c0-2.4727,1.3477-4.1797,3.3213-4.1797c1.9854,0,3.3213,1.707,3.3213,4.1797
			c0,2.4971-1.3359,4.1924-3.3213,4.1924S40.3395,182.4473,40.3395,179.9502z M45.7165,179.9502
			c0-1.8691-0.8018-3.0537-2.0557-3.0537s-2.0547,1.1963-2.0547,3.0537c0,1.8818,0.8008,3.0664,2.0547,3.0664
			C44.9264,183.0166,45.7165,181.8437,45.7165,179.9502z"/>
		<path class="st5" d="M48.1647,179.9502c0-2.4727,1.3477-4.1797,3.3213-4.1797c1.9854,0,3.3213,1.707,3.3213,4.1797
			c0,2.4971-1.3359,4.1924-3.3213,4.1924S48.1647,182.4473,48.1647,179.9502z M53.5417,179.9502
			c0-1.8691-0.8018-3.0537-2.0557-3.0537s-2.0557,1.1963-2.0557,3.0537c0,1.8818,0.8018,3.0664,2.0557,3.0664
			C52.7516,183.0166,53.5417,181.8437,53.5417,179.9502z"/>
		<path class="st5" d="M55.9899,179.9502c0-2.4727,1.3477-4.1797,3.3213-4.1797c1.9854,0,3.3213,1.707,3.3213,4.1797
			c0,2.4971-1.3359,4.1924-3.3213,4.1924S55.9899,182.4473,55.9899,179.9502z M61.3669,179.9502
			c0-1.8691-0.8018-3.0537-2.0557-3.0537s-2.0547,1.1963-2.0547,3.0537c0,1.8818,0.8008,3.0664,2.0547,3.0664
			C60.5768,183.0166,61.3669,181.8437,61.3669,179.9502z"/>
		<path class="st5" d="M63.8151,179.9502c0-2.4727,1.3477-4.1797,3.3213-4.1797c1.9854,0,3.3213,1.707,3.3213,4.1797
			c0,2.4971-1.3359,4.1924-3.3213,4.1924S63.8151,182.4473,63.8151,179.9502z M69.1921,179.9502
			c0-1.8691-0.8018-3.0537-2.0557-3.0537s-2.0557,1.1963-2.0557,3.0537c0,1.8818,0.8018,3.0664,2.0557,3.0664
			C68.402,183.0166,69.1921,181.8437,69.1921,179.9502z"/>
	</g>
	<g class="st56">
		<path class="st5" d="M16.1559,194.4746h3.9482c1.6729,0,2.8682,1.0791,2.8682,2.5889c0,1.0332-0.5918,1.8701-1.5098,2.2764
			l1.707,3.2627h-2.2295l-1.4746-2.9844H18.154v2.9844h-1.998V194.4746z M18.154,196.123v1.9277h1.7646
			c0.6152,0,1.0332-0.3838,1.0332-0.9639c0-0.5811-0.418-0.9639-1.0332-0.9639H18.154z"/>
	</g>
	<g class="st56">
		<path class="st5" d="M26.2565,201.6855l3.333-3.4844c0.5811-0.627,0.79-1.0215,0.79-1.5322c0-0.6855-0.627-1.1963-1.4863-1.1963
			c-0.7432,0-1.3242,0.2793-2.1025,0.999l-0.7197-0.8711c0.8828-0.8242,1.835-1.2305,2.8564-1.2305
			c1.5908,0,2.6826,0.9053,2.6826,2.2178c0,0.7773-0.29,1.3467-1.1611,2.2637l-2.6016,2.6826l3.9141-0.0234v1.0918h-5.5049V201.6855
			z"/>
		<path class="st5" d="M33.234,194.4746h4.9463v1.0908h-3.8662l-0.1045,2.3574c0.5459-0.2783,1.0918-0.4062,1.6953-0.4062
			c1.6143,0,2.7051,0.9873,2.7051,2.4619c0,1.6367-1.2422,2.752-3.0771,2.752c-1.0908,0-2.0664-0.3721-2.8564-1.1035l0.7666-0.8711
			c0.6963,0.6162,1.335,0.8711,2.1367,0.8711c1.0332,0,1.7305-0.6387,1.7305-1.5908c0-0.8936-0.7314-1.5205-1.7656-1.5205
			c-0.5459,0-1.0449,0.1387-1.6143,0.4287l-0.8818-0.2666L33.234,194.4746z"/>
		<path class="st5" d="M39.736,198.5264c0-2.4727,1.3477-4.1797,3.3213-4.1797c1.9854,0,3.3213,1.707,3.3213,4.1797
			c0,2.4971-1.3359,4.1924-3.3213,4.1924S39.736,201.0234,39.736,198.5264z M45.1129,198.5264c0-1.8691-0.8018-3.0537-2.0557-3.0537
			s-2.0547,1.1963-2.0547,3.0537c0,1.8818,0.8008,3.0664,2.0547,3.0664C44.3229,201.5928,45.1129,200.4199,45.1129,198.5264z"/>
	</g>
	<g class="st56">
		<path class="st5" d="M53.901,202.7305c-2.4043,0-4.2734-1.835-4.2734-4.1924s1.8584-4.1914,4.2383-4.1914
			c1.3584,0,2.6592,0.5684,3.4141,1.5791l-1.4053,1.2188c-0.5107-0.6846-1.207-1.0215-2.0088-1.0215
			c-1.2539,0-2.1709,1.0332-2.1709,2.415c0,1.3936,0.9521,2.4385,2.2412,2.4385c0.917,0,1.6367-0.5566,1.8574-1.3584h-2.0322
			v-1.6836h4.1807v0.5693C57.9421,200.9424,56.2467,202.7305,53.901,202.7305z"/>
	</g>
	<g class="st56">
		<path class="st5" d="M64.1637,202.6025h-1.2656v-6.8047l-1.4395,0.627v-1.126l1.9043-0.8242h0.8008V202.6025z"/>
		<path class="st5" d="M65.6149,200.3613c0-0.9404,0.7197-1.7188,1.7539-1.9854c-0.8828-0.29-1.4863-0.9873-1.4863-1.8115
			c0-1.2656,1.1729-2.2178,2.7402-2.2178s2.752,0.9521,2.752,2.2178c0,0.8242-0.6035,1.5215-1.4746,1.8115
			c1.0332,0.2666,1.7529,1.0449,1.7529,1.9854c0,1.3818-1.2539,2.3691-3.0186,2.3691
			C66.8581,202.7305,65.6149,201.7431,65.6149,200.3613z M70.3756,200.2685c0-0.79-0.7432-1.3818-1.7412-1.3818
			c-1.0107,0-1.7539,0.5918-1.7539,1.3818c0,0.8008,0.7432,1.4053,1.7539,1.4053
			C69.6325,201.6738,70.3756,201.0693,70.3756,200.2685z M70.1325,196.6455c0-0.7197-0.6504-1.2656-1.498-1.2656
			c-0.8594,0-1.5098,0.5459-1.5098,1.2656s0.6621,1.2539,1.5098,1.2539C69.4704,197.8994,70.1325,197.3652,70.1325,196.6455z"/>
		<path class="st5" d="M72.7663,201.6855l3.333-3.4844c0.5811-0.627,0.79-1.0215,0.79-1.5322c0-0.6855-0.627-1.1963-1.4863-1.1963
			c-0.7432,0-1.3242,0.2793-2.1025,0.999l-0.7197-0.8711c0.8828-0.8242,1.835-1.2305,2.8564-1.2305
			c1.5908,0,2.6826,0.9053,2.6826,2.2178c0,0.7773-0.29,1.3467-1.1611,2.2637l-2.6016,2.6826l3.9141-0.0234v1.0918h-5.5049V201.6855
			z"/>
	</g>
	<g class="st56">
		<path class="st5" d="M85.6667,194.4746c1.5791,0,2.7051,0.9287,2.7051,2.2178c0,0.7549-0.4756,1.3936-1.1846,1.7646
			c0.8477,0.3369,1.417,1.0332,1.417,1.8691c0,1.3359-1.1377,2.2764-2.752,2.2764h-4.2041v-8.1279H85.6667z M83.6462,196.0654
			v1.6719h1.7881c0.5576,0,0.9287-0.3369,0.9287-0.8359c0-0.5107-0.3604-0.8359-0.9287-0.8359H83.6462z M86.5837,200.1172
			c0-0.5449-0.3828-0.8936-0.9873-0.8936h-1.9502v1.7881h1.9502C86.2008,201.0117,86.5837,200.6631,86.5837,200.1172z"/>
	</g>
	<g class="st56">
		<path class="st5" d="M94.57,202.6025h-1.2656v-6.8047l-1.4395,0.627v-1.126l1.9043-0.8242H94.57V202.6025z"/>
		<path class="st5" d="M96.0212,200.3613c0-0.9404,0.7197-1.7188,1.7539-1.9854c-0.8828-0.29-1.4863-0.9873-1.4863-1.8115
			c0-1.2656,1.1729-2.2178,2.7402-2.2178s2.752,0.9521,2.752,2.2178c0,0.8242-0.6035,1.5215-1.4746,1.8115
			c1.0332,0.2666,1.7529,1.0449,1.7529,1.9854c0,1.3818-1.2539,2.3691-3.0186,2.3691
			C97.2643,202.7305,96.0212,201.7431,96.0212,200.3613z M100.7819,200.2685c0-0.79-0.7432-1.3818-1.7412-1.3818
			c-1.0107,0-1.7539,0.5918-1.7539,1.3818c0,0.8008,0.7432,1.4053,1.7539,1.4053
			C100.0387,201.6738,100.7819,201.0693,100.7819,200.2685z M100.5387,196.6455c0-0.7197-0.6504-1.2656-1.498-1.2656
			c-0.8594,0-1.5098,0.5459-1.5098,1.2656s0.6621,1.2539,1.5098,1.2539C99.8766,197.8994,100.5387,197.3652,100.5387,196.6455z"/>
		<path class="st5" d="M103.1725,201.6855l3.333-3.4844c0.5811-0.627,0.79-1.0215,0.79-1.5322c0-0.6855-0.627-1.1963-1.4863-1.1963
			c-0.7432,0-1.3242,0.2793-2.1025,0.999l-0.7197-0.8711c0.8828-0.8242,1.835-1.2305,2.8564-1.2305
			c1.5908,0,2.6826,0.9053,2.6826,2.2178c0,0.7773-0.29,1.3467-1.1611,2.2637l-2.6016,2.6826l3.9141-0.0234v1.0918h-5.5049V201.6855
			z"/>
	</g>
	<g class="st56">
		<path class="st5" d="M21.986,218.4961l1.3115,1.2432c-0.7197,0.9404-1.9854,1.5557-3.2393,1.5557
			c-2.4268,0-4.2852-1.8232-4.2852-4.1807c0-2.3682,1.8691-4.1914,4.2852-4.1914c1.2998,0,2.5889,0.6152,3.2979,1.5791
			l-1.3477,1.2773c-0.5342-0.7197-1.1836-1.0801-1.9502-1.0801c-1.2656,0-2.2178,1.0332-2.2178,2.415
			c0,1.3701,0.9863,2.3926,2.2871,2.3926C20.859,219.5068,21.4743,219.1699,21.986,218.4961z"/>
		<path class="st5" d="M24.3415,215.1865h1.8809v1.3594c0.3838-0.999,0.918-1.4746,1.626-1.4746
			c0.2676,0.0107,0.3945,0.0342,0.627,0.1504v1.6143c-0.2324-0.1162-0.5576-0.1855-0.8828-0.1855
			c-0.5566,0-1.0674,0.29-1.3701,0.7432v3.7852h-1.8809V215.1865z"/>
		<path class="st5" d="M29.3571,213.2129c0-0.5801,0.4766-1.0566,1.0566-1.0566c0.5811,0,1.0684,0.4766,1.0684,1.0566
			c0,0.5811-0.4639,1.0449-1.0684,1.0449C29.8219,214.2578,29.3571,213.7939,29.3571,213.2129z M31.3542,221.1787h-1.8809v-5.9922
			h1.8809V221.1787z"/>
		<path class="st5" d="M32.8171,215.1865h1.8809v0.9521c0.4414-0.6846,1.0459-1.0449,1.7773-1.0449
			c0.7773,0,1.3936,0.4297,1.6836,1.1152c0.4639-0.7197,1.1377-1.1152,1.9619-1.1152c1.1035,0,1.8818,0.8711,1.8818,2.1025v3.9824
			h-1.8818v-3.6113c0-0.6035-0.3594-0.999-0.8936-0.999c-0.3486,0-0.627,0.1396-0.8711,0.4648v4.1455h-1.8809v-3.6113
			c0-0.6035-0.3604-0.999-0.8945-0.999c-0.3486,0-0.6387,0.1514-0.8828,0.4648v4.1455h-1.8809V215.1865z"/>
		<path class="st5" d="M43.7536,219.3096c0.8594,0.4521,1.3467,0.6035,1.9277,0.6035c0.5342,0,0.8594-0.1855,0.8594-0.4873
			c0-0.2324-0.1748-0.3604-0.5576-0.4297l-1.1494-0.209c-1.1611-0.2207-1.7656-0.8135-1.7656-1.7422
			c0-1.2305,0.9414-1.9629,2.5088-1.9629c0.8359,0,1.6602,0.2324,2.4385,0.6855l-0.8594,1.1963
			c-0.6035-0.3486-1.1611-0.5107-1.7188-0.5107c-0.4531,0-0.7197,0.1504-0.7197,0.418c0,0.2432,0.1504,0.3477,0.6152,0.4297
			l1.126,0.209c1.1846,0.2197,1.8115,0.8242,1.7998,1.7295c0.0117,1.1729-1.1025,2.0557-2.5771,2.0557
			c-1.0918,0-2.0557-0.2559-2.752-0.7314L43.7536,219.3096z"/>
		<path class="st5" d="M52.2643,215.0937c1.7881,0,3.1357,1.3359,3.1357,3.1006s-1.3594,3.1006-3.1357,3.1006
			s-3.123-1.3467-3.123-3.1006C49.1413,216.4297,50.4879,215.0937,52.2643,215.0937z M53.5651,218.1943
			c0-0.8936-0.5459-1.5322-1.3008-1.5322s-1.2891,0.6387-1.2891,1.5322c0,0.8828,0.5342,1.5098,1.2891,1.5098
			C53.0309,219.7041,53.5651,219.0771,53.5651,218.1943z"/>
		<path class="st5" d="M56.5944,215.1865h1.8809v0.9756c0.4648-0.6963,1.1152-1.0684,1.8936-1.0684
			c1.1611,0,1.9854,0.8477,1.9854,2.0439v4.041h-1.8809v-3.4951c0-0.6738-0.3955-1.1152-0.999-1.1152
			c-0.4062,0-0.7314,0.1631-0.999,0.5v4.1104h-1.8809V215.1865z"/>
	</g>
	<g class="st56">
		<path class="st5" d="M324.6081,181.8896h-0.8594v-1.3232h1.3125l0.418-1.208h-1.1846v-1.3242h1.6377l0.7314-2.1357h1.6025
			l-0.7314,2.1357h1.4629l0.7314-2.1357h1.5908l-0.7314,2.1357h0.8711v1.3242h-1.3242l-0.418,1.208h1.1846v1.3232h-1.6377
			l-0.7314,2.1367h-1.5908l0.7314-2.1367h-1.4629l-0.7314,2.1367h-1.6025L324.6081,181.8896z M328.1266,180.5664l0.418-1.208
			h-1.4629l-0.418,1.208H328.1266z"/>
	</g>
	<g class="st56">
		<path class="st5" d="M334.7096,184.0264h-1.2656v-6.8047l-1.4395,0.627v-1.126l1.9043-0.8242h0.8008V184.0264z"/>
		<path class="st5" d="M336.4977,175.8984h4.9463v1.0908h-3.8662l-0.1045,2.3574c0.5459-0.2783,1.0918-0.4062,1.6953-0.4062
			c1.6143,0,2.7051,0.9873,2.7051,2.4619c0,1.6367-1.2422,2.752-3.0771,2.752c-1.0908,0-2.0664-0.3721-2.8564-1.1035l0.7666-0.8711
			c0.6963,0.6162,1.335,0.8711,2.1367,0.8711c1.0332,0,1.7305-0.6387,1.7305-1.5908c0-0.8936-0.7314-1.5205-1.7656-1.5205
			c-0.5459,0-1.0449,0.1387-1.6143,0.4287l-0.8818-0.2666L336.4977,175.8984z"/>
		<path class="st5" d="M345.3678,184.0264h-1.2656v-6.8047l-1.4395,0.627v-1.126l1.9043-0.8242h0.8008V184.0264z"/>
		<path class="st5" d="M347.1559,175.8984h4.9463v1.0908h-3.8662l-0.1045,2.3574c0.5459-0.2783,1.0918-0.4062,1.6953-0.4062
			c1.6143,0,2.7051,0.9873,2.7051,2.4619c0,1.6367-1.2422,2.752-3.0771,2.752c-1.0908,0-2.0664-0.3721-2.8564-1.1035l0.7666-0.8711
			c0.6963,0.6162,1.335,0.8711,2.1367,0.8711c1.0332,0,1.7305-0.6387,1.7305-1.5908c0-0.8936-0.7314-1.5205-1.7656-1.5205
			c-0.5459,0-1.0449,0.1387-1.6143,0.4287l-0.8818-0.2666L347.1559,175.8984z"/>
		<path class="st5" d="M356.026,184.0264h-1.2656v-6.8047l-1.4395,0.627v-1.126l1.9043-0.8242h0.8008V184.0264z"/>
		<path class="st5" d="M357.8141,175.8984h4.9463v1.0908h-3.8662l-0.1045,2.3574c0.5459-0.2783,1.0918-0.4062,1.6953-0.4062
			c1.6143,0,2.7051,0.9873,2.7051,2.4619c0,1.6367-1.2422,2.752-3.0771,2.752c-1.0908,0-2.0664-0.3721-2.8564-1.1035l0.7666-0.8711
			c0.6963,0.6162,1.335,0.8711,2.1367,0.8711c1.0332,0,1.7305-0.6387,1.7305-1.5908c0-0.8936-0.7314-1.5205-1.7656-1.5205
			c-0.5459,0-1.0449,0.1387-1.6143,0.4287l-0.8818-0.2666L357.8141,175.8984z"/>
	</g>
	<g class="st56">
		<path class="st5" d="M324.1549,194.4746h3.9482c1.6729,0,2.8682,1.0791,2.8682,2.5889c0,1.0332-0.5918,1.8701-1.5098,2.2764
			l1.707,3.2627h-2.2295l-1.4746-2.9844h-1.3115v2.9844h-1.998V194.4746z M326.153,196.123v1.9277h1.7646
			c0.6152,0,1.0332-0.3838,1.0332-0.9639c0-0.5811-0.418-0.9639-1.0332-0.9639H326.153z"/>
	</g>
	<g class="st56">
		<path class="st5" d="M334.2555,201.6855l3.333-3.4844c0.5811-0.627,0.79-1.0215,0.79-1.5322c0-0.6855-0.6279-1.1963-1.4863-1.1963
			c-0.7432,0-1.3242,0.2793-2.1025,0.999l-0.7197-0.8711c0.8828-0.8242,1.835-1.2305,2.8564-1.2305
			c1.5908,0,2.6826,0.9053,2.6826,2.2178c0,0.7773-0.29,1.3467-1.1611,2.2637l-2.6016,2.6826l3.9141-0.0234v1.0918h-5.5049V201.6855
			z"/>
		<path class="st5" d="M343.4167,202.6025h-1.2656v-6.8047l-1.4395,0.627v-1.126l1.9043-0.8242h0.8008V202.6025z"/>
	</g>
	<g class="st56">
		<path class="st5" d="M351.0915,202.7305c-2.4043,0-4.2734-1.835-4.2734-4.1924s1.8584-4.1914,4.2383-4.1914
			c1.3584,0,2.6592,0.5684,3.4141,1.5791l-1.4053,1.2188c-0.5107-0.6846-1.207-1.0215-2.0088-1.0215
			c-1.2539,0-2.1709,1.0332-2.1709,2.415c0,1.3936,0.9521,2.4385,2.2402,2.4385c0.918,0,1.6377-0.5566,1.8584-1.3584h-2.0322
			v-1.6836h4.1807v0.5693C355.1325,200.9424,353.4372,202.7305,351.0915,202.7305z"/>
	</g>
	<g class="st56">
		<path class="st5" d="M358.8112,201.6855l3.333-3.4844c0.5811-0.627,0.79-1.0215,0.79-1.5322c0-0.6855-0.627-1.1963-1.4863-1.1963
			c-0.7432,0-1.3242,0.2793-2.1025,0.999l-0.7197-0.8711c0.8828-0.8242,1.835-1.2305,2.8564-1.2305
			c1.5908,0,2.6826,0.9053,2.6826,2.2178c0,0.7773-0.29,1.3467-1.1611,2.2637l-2.6016,2.6826l3.9141-0.0234v1.0918h-5.5049V201.6855
			z"/>
		<path class="st5" d="M367.9713,202.6025h-1.2656v-6.8047l-1.4395,0.627v-1.126l1.9043-0.8242h0.8008V202.6025z"/>
	</g>
	<g class="st56">
		<path class="st5" d="M375.8678,194.4746c1.5791,0,2.7051,0.9287,2.7051,2.2178c0,0.7549-0.4756,1.3936-1.1846,1.7646
			c0.8477,0.3369,1.417,1.0332,1.417,1.8691c0,1.3359-1.1377,2.2764-2.752,2.2764h-4.2041v-8.1279H375.8678z M373.8473,196.0654
			v1.6719h1.7881c0.5576,0,0.9287-0.3369,0.9287-0.8359c0-0.5107-0.3604-0.8359-0.9287-0.8359H373.8473z M376.7848,200.1172
			c0-0.5449-0.3828-0.8936-0.9873-0.8936h-1.9502v1.7881h1.9502C376.402,201.0117,376.7848,200.6631,376.7848,200.1172z"/>
	</g>
	<g class="st56">
		<path class="st5" d="M382.2282,201.6855l3.333-3.4844c0.5811-0.627,0.79-1.0215,0.79-1.5322c0-0.6855-0.6279-1.1963-1.4863-1.1963
			c-0.7432,0-1.3242,0.2793-2.1025,0.999l-0.7197-0.8711c0.8828-0.8242,1.835-1.2305,2.8564-1.2305
			c1.5908,0,2.6826,0.9053,2.6826,2.2178c0,0.7773-0.29,1.3467-1.1611,2.2637l-2.6016,2.6826l3.9141-0.0234v1.0918h-5.5049V201.6855
			z"/>
		<path class="st5" d="M391.3883,202.6025h-1.2656v-6.8047l-1.4395,0.627v-1.126l1.9043-0.8242h0.8008V202.6025z"/>
	</g>
	<g class="st56">
		<path class="st5" d="M324.0397,213.0508h1.9971v8.1279h-1.9971V213.0508z"/>
		<path class="st5" d="M327.5573,215.1865h1.8809v0.9756c0.4648-0.6963,1.1152-1.0684,1.8936-1.0684
			c1.1611,0,1.9854,0.8477,1.9854,2.0439v4.041h-1.8809v-3.4951c0-0.6738-0.3955-1.1152-0.999-1.1152
			c-0.4062,0-0.7314,0.1631-0.999,0.5v4.1104h-1.8809V215.1865z"/>
		<path class="st5" d="M335.3483,216.6387h-1.1611v-1.4521h1.1611v-1.6602l1.8809-0.3828v2.043h1.6025v1.4521h-1.6025v2.3223
			c0,0.5342,0.209,0.7197,0.79,0.7197c0.2197,0,0.3945-0.0234,0.7656-0.1279v1.5215c-0.3477,0.1045-0.9053,0.1855-1.2891,0.1855
			c-1.416,0-2.1475-0.6504-2.1475-1.9277V216.6387z"/>
		<path class="st5" d="M342.7672,221.2949c-1.7646,0-3.1582-1.3584-3.1582-3.1006c0-1.7646,1.2998-3.1123,3.0186-3.1123
			c1.7305,0,2.9492,1.3125,2.9492,3.1816v0.4072h-4.1221c0.1748,0.6729,0.7197,1.126,1.4053,1.126
			c0.499,0,0.917-0.1738,1.1846-0.499l1.2422,1.0332C344.5085,221.0166,343.777,221.2949,342.7672,221.2949z M341.4547,217.6025
			h2.3809c-0.1514-0.6504-0.6152-1.0566-1.2197-1.0566C342.0241,216.5459,341.6061,216.9404,341.4547,217.6025z"/>
		<path class="st5" d="M346.7487,215.1865h1.8809v1.3594c0.3838-0.999,0.918-1.4746,1.626-1.4746
			c0.2676,0.0107,0.3945,0.0342,0.627,0.1504v1.6143c-0.2324-0.1162-0.5576-0.1855-0.8828-0.1855
			c-0.5566,0-1.0674,0.29-1.3701,0.7432v3.7852h-1.8809V215.1865z"/>
		<path class="st5" d="M352.8795,215.1865v-0.7891c0-1.4287,0.8477-2.2061,2.3916-2.2061c0.3252,0,0.7549,0.0459,0.999,0.1162
			v1.5439c-0.3369-0.0576-0.5107-0.0693-0.7197-0.0693c-0.5342,0-0.79,0.209-0.79,0.6504v0.7539h1.5098v1.4521h-1.5098v4.54h-1.8809
			v-4.54h-1.2422v-1.4521H352.8795z"/>
		<path class="st5" d="M357.0583,219.4599c0-1.1025,0.8594-1.7412,2.334-1.7412c0.4297,0,0.8594,0.0811,1.3936,0.2783v-0.4873
			c0-0.5811-0.3838-0.8711-1.1846-0.8711c-0.4531,0-0.9873,0.1279-1.6836,0.418l-0.6504-1.3125
			c0.9863-0.4414,1.8691-0.6504,2.752-0.6504c1.6602,0,2.624,0.8252,2.624,2.2529v3.832h-1.8574v-0.5225
			c-0.5225,0.4414-1.0225,0.6152-1.6611,0.6152C357.9059,221.2715,357.0583,220.5283,357.0583,219.4599z M359.7057,220.0293
			c0.3945,0,0.7549-0.1045,1.0801-0.3018v-0.7666c-0.3486-0.0811-0.6855-0.1279-1.0342-0.1279c-0.6152,0-0.9639,0.209-0.9639,0.5928
			C358.7878,219.8086,359.1247,220.0293,359.7057,220.0293z"/>
		<path class="st5" d="M368.2165,219.0771l1.1143,1.1025c-0.5684,0.6973-1.4746,1.1152-2.4385,1.1152
			c-1.7529,0-3.0996-1.3467-3.0996-3.1006c0-1.7529,1.3467-3.1006,3.0996-3.1006c0.9873,0,1.8936,0.3955,2.4971,1.1035
			l-1.1494,1.1494c-0.3838-0.4531-0.7666-0.6504-1.2773-0.6504c-0.7432,0-1.3008,0.6387-1.3008,1.498
			c0,0.8477,0.5693,1.4746,1.3467,1.4746C367.5085,219.6689,367.9147,219.4717,368.2165,219.0771z"/>
		<path class="st5" d="M373.0348,221.2949c-1.7646,0-3.1582-1.3584-3.1582-3.1006c0-1.7646,1.2998-3.1123,3.0186-3.1123
			c1.7305,0,2.9492,1.3125,2.9492,3.1816v0.4072h-4.1221c0.1748,0.6729,0.7197,1.126,1.4053,1.126
			c0.499,0,0.917-0.1738,1.1846-0.499l1.2422,1.0332C374.776,221.0166,374.0446,221.2949,373.0348,221.2949z M371.7223,217.6025
			h2.3809c-0.1514-0.6504-0.6152-1.0566-1.2197-1.0566C372.2917,216.5459,371.8737,216.9404,371.7223,217.6025z"/>
		<path class="st5" d="M383.0075,221.2139c-0.6504,0-1.2305-0.2793-1.6367-0.7666v0.7314h-1.8584v-8.3027l1.8809-0.29v3.3672
			c0.3955-0.4873,1.0459-0.8008,1.7539-0.8008c1.4746,0,2.6475,1.3584,2.6475,3.042S384.5641,221.2139,383.0075,221.2139z
			 M381.3932,217.1963v1.9971c0.291,0.3018,0.6855,0.4756,1.127,0.4756c0.8242,0,1.4277-0.627,1.4277-1.4863
			c0-0.8477-0.6152-1.4746-1.4277-1.4746C382.0553,216.708,381.696,216.8711,381.3932,217.1963z"/>
		<path class="st5" d="M388.8698,221.1787h-1.8809v-8.3027l1.8809-0.29V221.1787z"/>
		<path class="st5" d="M390.0544,219.4599c0-1.1025,0.8594-1.7412,2.334-1.7412c0.4297,0,0.8594,0.0811,1.3936,0.2783v-0.4873
			c0-0.5811-0.3838-0.8711-1.1846-0.8711c-0.4531,0-0.9873,0.1279-1.6836,0.418l-0.6504-1.3125
			c0.9863-0.4414,1.8691-0.6504,2.752-0.6504c1.6602,0,2.624,0.8252,2.624,2.2529v3.832h-1.8574v-0.5225
			c-0.5225,0.4414-1.0225,0.6152-1.6611,0.6152C390.902,221.2715,390.0544,220.5283,390.0544,219.4599z M392.7018,220.0293
			c0.3945,0,0.7549-0.1045,1.0801-0.3018v-0.7666c-0.3486-0.0811-0.6855-0.1279-1.0342-0.1279c-0.6152,0-0.9639,0.209-0.9639,0.5928
			C391.7838,219.8086,392.1208,220.0293,392.7018,220.0293z"/>
		<path class="st5" d="M401.2126,219.0771l1.1143,1.1025c-0.5684,0.6973-1.4746,1.1152-2.4385,1.1152
			c-1.7529,0-3.0996-1.3467-3.0996-3.1006c0-1.7529,1.3467-3.1006,3.0996-3.1006c0.9873,0,1.8936,0.3955,2.4971,1.1035
			l-1.1494,1.1494c-0.3838-0.4531-0.7666-0.6504-1.2773-0.6504c-0.7432,0-1.3008,0.6387-1.3008,1.498
			c0,0.8477,0.5693,1.4746,1.3467,1.4746C400.5045,219.6689,400.9108,219.4717,401.2126,219.0771z"/>
		<path class="st5" d="M403.3131,212.876l1.8809-0.29v4.9814l2.0908-2.3809h2.0781l-2.4385,2.6826l2.6123,3.3096h-2.3447
			l-1.998-2.6475v2.6475h-1.8809V212.876z"/>
		<path class="st5" d="M415.7018,212.9228l0.999,1.1494c-1.4756,0.9756-2.2529,2.4502-2.2529,4.2852
			c0,1.834,0.7773,3.3086,2.2529,4.2842l-0.999,1.1494c-1.8809-1.1377-2.9033-3.0654-2.9033-5.4336
			C412.7985,215.9883,413.821,214.0605,415.7018,212.9228z"/>
		<path class="st5" d="M422.0065,213.0508c1.5791,0,2.7051,0.9287,2.7051,2.2178c0,0.7549-0.4756,1.3936-1.1846,1.7646
			c0.8477,0.3369,1.417,1.0332,1.417,1.8691c0,1.3359-1.1377,2.2764-2.752,2.2764h-4.2041v-8.1279H422.0065z M419.986,214.6416
			v1.6719h1.7881c0.5576,0,0.9287-0.3369,0.9287-0.8359c0-0.5107-0.3604-0.8359-0.9287-0.8359H419.986z M422.9235,218.6933
			c0-0.5449-0.3828-0.8936-0.9873-0.8936h-1.9502v1.7881h1.9502C422.5407,219.5879,422.9235,219.2392,422.9235,218.6933z"/>
		<path class="st5" d="M428.1588,221.1787h-1.8809v-8.3027l1.8809-0.29V221.1787z"/>
		<path class="st5" d="M429.3434,219.4599c0-1.1025,0.8594-1.7412,2.334-1.7412c0.4297,0,0.8594,0.0811,1.3936,0.2783v-0.4873
			c0-0.5811-0.3838-0.8711-1.1846-0.8711c-0.4531,0-0.9873,0.1279-1.6836,0.418l-0.6504-1.3125
			c0.9863-0.4414,1.8691-0.6504,2.752-0.6504c1.6602,0,2.624,0.8252,2.624,2.2529v3.832h-1.8574v-0.5225
			c-0.5225,0.4414-1.0225,0.6152-1.6611,0.6152C430.1911,221.2715,429.3434,220.5283,429.3434,219.4599z M431.9909,220.0293
			c0.3945,0,0.7549-0.1045,1.0801-0.3018v-0.7666c-0.3486-0.0811-0.6855-0.1279-1.0342-0.1279c-0.6152,0-0.9639,0.209-0.9639,0.5928
			C431.0729,219.8086,431.4098,220.0293,431.9909,220.0293z"/>
		<path class="st5" d="M440.5006,219.0771l1.1143,1.1025c-0.5684,0.6973-1.4746,1.1152-2.4385,1.1152
			c-1.7529,0-3.0996-1.3467-3.0996-3.1006c0-1.7529,1.3467-3.1006,3.0996-3.1006c0.9873,0,1.8936,0.3955,2.4971,1.1035
			l-1.1494,1.1494c-0.3838-0.4531-0.7666-0.6504-1.2773-0.6504c-0.7432,0-1.3008,0.6387-1.3008,1.498
			c0,0.8477,0.5693,1.4746,1.3467,1.4746C439.7926,219.6689,440.1989,219.4717,440.5006,219.0771z"/>
		<path class="st5" d="M442.6012,212.876l1.8809-0.29v4.9814l2.0908-2.3809h2.0781l-2.4385,2.6826l2.6123,3.3096h-2.3447
			l-1.998-2.6475v2.6475h-1.8809V212.876z"/>
		<path class="st5" d="M453.3415,217.0683v1.5674h-4.2734v-1.5674H453.3415z"/>
		<path class="st5" d="M460.7848,216.9756c0,2.6006-1.5791,4.3311-3.9482,4.3311c-0.9053,0-1.9043-0.3486-2.4736-0.8828
			l1.0342-1.2773c0.4521,0.3838,0.9287,0.5576,1.5791,0.5576c1.3232,0,2.0322-0.999,2.0322-2.7871
			c-0.5117,0.7314-1.2666,1.1494-2.0791,1.1494c-1.6025,0-2.7285-1.0215-2.7285-2.4609c0-1.5449,1.2773-2.6943,3.0078-2.6943
			C459.3444,212.9111,460.7848,214.5478,460.7848,216.9756z M458.904,215.9648c-0.2324-0.9287-0.8252-1.5215-1.6025-1.5215
			c-0.7666,0-1.3477,0.4766-1.3477,1.127s0.5225,1.1025,1.2773,1.1025C457.8932,216.6728,458.4743,216.418,458.904,215.9648z"/>
		<path class="st5" d="M461.7702,217.1025c0-2.5078,1.4053-4.1797,3.5186-4.1797c2.1016,0,3.5068,1.6719,3.5068,4.1797
			c0,2.5205-1.3936,4.1924-3.5068,4.1924C463.1637,221.2949,461.7702,219.6348,461.7702,217.1025z M467.0192,217.1025
			c0-1.6025-0.6621-2.6006-1.7305-2.6006s-1.7412,1.0098-1.7412,2.6006c0,1.6143,0.6611,2.6133,1.7412,2.6133
			S467.0192,218.7285,467.0192,217.1025z"/>
		<path class="st5" d="M469.7926,217.1025c0-2.5078,1.4053-4.1797,3.5186-4.1797c2.1016,0,3.5068,1.6719,3.5068,4.1797
			c0,2.5205-1.3936,4.1924-3.5068,4.1924C471.1862,221.2949,469.7926,219.6348,469.7926,217.1025z M475.0417,217.1025
			c0-1.6025-0.6621-2.6006-1.7305-2.6006s-1.7412,1.0098-1.7412,2.6006c0,1.6143,0.6611,2.6133,1.7412,2.6133
			S475.0417,218.7285,475.0417,217.1025z"/>
		<path class="st5" d="M478.5817,223.791l-0.999-1.1494c1.4746-0.9756,2.2529-2.4502,2.2529-4.2842
			c0-1.835-0.7783-3.3096-2.2529-4.2852l0.999-1.1494c1.8809,1.1377,2.9033,3.0654,2.9033,5.4346
			C481.485,220.7256,480.4626,222.6533,478.5817,223.791z"/>
	</g>
	<path id="Rectangle_708-3" class="st0" d="M3.25,318.25h590c1.6569,0,3,1.3431,3,3v133c0,1.6569-1.3431,3-3,3h-590
		c-1.6569,0-3-1.3431-3-3v-133C0.25,319.5931,1.5931,318.25,3.25,318.25z"/>
	<g class="st56">
		<path class="st5" d="M16.528,340.4394h-0.8086v-1.2451h1.2344l0.3936-1.1357h-1.1143v-1.2461h1.54l0.6885-2.0098h1.5078
			l-0.6885,2.0098h1.377l0.6885-2.0098h1.4961l-0.6875,2.0098h0.8193v1.2461h-1.2461l-0.3936,1.1357h1.1152v1.2451h-1.541
			l-0.6885,2.0107h-1.4961l0.6875-2.0107h-1.376l-0.6885,2.0107h-1.5078L16.528,340.4394z M19.8385,339.1943l0.3926-1.1357h-1.376
			l-0.3936,1.1357H19.8385z"/>
	</g>
	<g class="st56">
		<path class="st5" d="M24.0026,334.8027h5.4736v1.1143h-4.1631v2.1299h2.9062v1.0928h-2.9062v2.1963h4.2061v1.1143h-5.5166
			V334.8027z"/>
		<path class="st5" d="M31.0075,334.8027h5.4736v1.1143H32.318v2.1299h2.9062v1.0928H32.318v2.1963h4.2061v1.1143h-5.5166V334.8027z
			"/>
		<path class="st5" d="M37.651,338.6152c0-2.3271,1.2666-3.9326,3.124-3.9326c1.8682,0,3.125,1.6055,3.125,3.9326
			c0,2.3496-1.2568,3.9443-3.125,3.9443S37.651,340.9648,37.651,338.6152z M42.7087,338.6152c0-1.7588-0.7539-2.873-1.9336-2.873
			s-1.9336,1.125-1.9336,2.873c0,1.7705,0.7539,2.8848,1.9336,2.8848C41.9665,341.5,42.7087,340.3965,42.7087,338.6152z"/>
		<path class="st5" d="M45.0163,338.6152c0-2.3271,1.2666-3.9326,3.124-3.9326c1.8682,0,3.125,1.6055,3.125,3.9326
			c0,2.3496-1.2568,3.9443-3.125,3.9443S45.0163,340.9648,45.0163,338.6152z M50.0739,338.6152c0-1.7588-0.7539-2.873-1.9336-2.873
			s-1.9336,1.125-1.9336,2.873c0,1.7705,0.7539,2.8848,1.9336,2.8848C49.3317,341.5,50.0739,340.3965,50.0739,338.6152z"/>
		<path class="st5" d="M52.3815,338.6152c0-2.3271,1.2666-3.9326,3.124-3.9326c1.8682,0,3.125,1.6055,3.125,3.9326
			c0,2.3496-1.2568,3.9443-3.125,3.9443S52.3815,340.9648,52.3815,338.6152z M57.4391,338.6152c0-1.7588-0.7539-2.873-1.9336-2.873
			s-1.9336,1.125-1.9336,2.873c0,1.7705,0.7539,2.8848,1.9336,2.8848C56.6969,341.5,57.4391,340.3965,57.4391,338.6152z"/>
		<path class="st5" d="M59.7467,338.6152c0-2.3271,1.2666-3.9326,3.124-3.9326c1.8682,0,3.125,1.6055,3.125,3.9326
			c0,2.3496-1.2568,3.9443-3.125,3.9443C61.0026,342.5595,59.7467,340.9648,59.7467,338.6152z M64.8044,338.6152
			c0-1.7588-0.7539-2.873-1.9336-2.873c-1.1797,0-1.9336,1.125-1.9336,2.873c0,1.7705,0.7539,2.8848,1.9336,2.8848
			C64.0622,341.5,64.8044,340.3965,64.8044,338.6152z"/>
	</g>
	<g class="st56">
		<path class="st5" d="M16.1022,352.2871h3.7139c1.5732,0,2.6992,1.0156,2.6992,2.4365c0,0.9717-0.5576,1.7588-1.4209,2.1406
			l1.6064,3.0703h-2.0977l-1.3877-2.8076h-1.2344v2.8076h-1.8789V352.2871z M17.9811,353.8379v1.8145h1.6602
			c0.5791,0,0.9727-0.3613,0.9727-0.9072s-0.3936-0.9072-0.9727-0.9072H17.9811z"/>
	</g>
	<g class="st56">
		<path class="st5" d="M25.61,359.0713l3.1348-3.2773c0.5469-0.5898,0.7432-0.9619,0.7432-1.4424
			c0-0.6445-0.5898-1.125-1.3984-1.125c-0.6992,0-1.2451,0.2617-1.9775,0.9395l-0.6768-0.8193
			c0.8301-0.7754,1.7256-1.1582,2.6875-1.1582c1.4961,0,2.5234,0.8525,2.5234,2.0869c0,0.7314-0.2734,1.2676-1.0928,2.1299
			l-2.4473,2.5244l3.6816-0.0225v1.0273H25.61V359.0713z"/>
		<path class="st5" d="M34.4713,360.0439c-1.126,0-2.1416-0.415-2.8301-1.1475l0.8086-0.7539
			c0.6123,0.623,1.1582,0.8525,2.0107,0.8525c0.9824,0,1.6602-0.5137,1.6602-1.2676c0-0.6768-0.5576-1.1475-1.3545-1.1475h-0.9512
			v-0.9941h0.8525c0.7324,0,1.2129-0.4473,1.2129-1.1465c0-0.6885-0.623-1.2129-1.4531-1.2129
			c-0.7646,0-1.2676,0.2402-1.9014,0.9062l-0.8086-0.7539c0.7109-0.7754,1.6943-1.2119,2.7539-1.2119
			c1.5186,0,2.6113,0.9062,2.6113,2.1406c0,0.8418-0.6016,1.5186-1.4863,1.748c1.0381,0.208,1.7266,0.8857,1.7266,1.748
			C37.3229,359.1045,36.1315,360.0439,34.4713,360.0439z"/>
		<path class="st5" d="M38.4489,357.8261c0-0.8848,0.6777-1.6172,1.6494-1.8682c-0.8301-0.2734-1.3984-0.9287-1.3984-1.7041
			c0-1.1914,1.1035-2.0869,2.5781-2.0869c1.4756,0,2.5898,0.8955,2.5898,2.0869c0,0.7754-0.5684,1.4307-1.3877,1.7041
			c0.9727,0.251,1.6494,0.9834,1.6494,1.8682c0,1.2998-1.1797,2.2285-2.8398,2.2285
			C39.6178,360.0547,38.4489,359.1259,38.4489,357.8261z M42.9284,357.7383c0-0.7422-0.6992-1.2998-1.6387-1.2998
			c-0.9512,0-1.6504,0.5576-1.6504,1.2998c0,0.7539,0.6992,1.3223,1.6504,1.3223
			C42.2292,359.0605,42.9284,358.4922,42.9284,357.7383z M42.6989,354.33c0-0.6777-0.6123-1.1914-1.4092-1.1914
			c-0.8086,0-1.4209,0.5137-1.4209,1.1914c0,0.6768,0.623,1.1797,1.4209,1.1797C42.0758,355.5097,42.6989,355.0068,42.6989,354.33z"
			/>
	</g>
	<g class="st56">
		<path class="st5" d="M51.2106,360.0547c-2.2607,0-4.0205-1.7266-4.0205-3.9443s1.748-3.9434,3.9883-3.9434
			c1.2783,0,2.502,0.5352,3.2119,1.4854l-1.3223,1.1475c-0.4805-0.6445-1.1357-0.9619-1.8896-0.9619
			c-1.1797,0-2.043,0.9727-2.043,2.2725c0,1.3115,0.8955,2.2949,2.1084,2.2949c0.8633,0,1.54-0.5244,1.748-1.2783h-1.9121v-1.584
			h3.9336v0.5352C55.0133,358.372,53.4176,360.0547,51.2106,360.0547z"/>
	</g>
	<g class="st56">
		<path class="st5" d="M58.4792,356.0996c0-2.3271,1.2666-3.9326,3.124-3.9326c1.8682,0,3.125,1.6055,3.125,3.9326
			c0,2.3496-1.2568,3.9443-3.125,3.9443S58.4792,358.4492,58.4792,356.0996z M63.5368,356.0996c0-1.7588-0.7539-2.873-1.9336-2.873
			s-1.9336,1.125-1.9336,2.873c0,1.7705,0.7539,2.8848,1.9336,2.8848C62.7946,358.9843,63.5368,357.8808,63.5368,356.0996z"/>
	</g>
	<g class="st56">
		<path class="st5" d="M72.3991,352.2871c1.4854,0,2.5449,0.874,2.5449,2.0869c0,0.71-0.4473,1.3105-1.1143,1.6602
			c0.7979,0.3174,1.333,0.9727,1.333,1.7588c0,1.2568-1.0703,2.1416-2.5898,2.1416h-3.9541v-7.6475H72.3991z M70.4977,353.7832
			v1.5732h1.6826c0.5244,0,0.874-0.3164,0.874-0.7861c0-0.4805-0.3389-0.7871-0.874-0.7871H70.4977z M73.2614,357.5966
			c0-0.5137-0.3604-0.8418-0.9287-0.8418h-1.835v1.6826h1.835C72.901,358.4375,73.2614,358.1103,73.2614,357.5966z"/>
	</g>
	<g class="st56">
		<path class="st5" d="M78.3883,356.0996c0-2.3271,1.2666-3.9326,3.124-3.9326c1.8682,0,3.125,1.6055,3.125,3.9326
			c0,2.3496-1.2568,3.9443-3.125,3.9443S78.3883,358.4492,78.3883,356.0996z M83.446,356.0996c0-1.7588-0.7539-2.873-1.9336-2.873
			s-1.9336,1.125-1.9336,2.873c0,1.7705,0.7539,2.8848,1.9336,2.8848C82.7038,358.9843,83.446,357.8808,83.446,356.0996z"/>
	</g>
	<g class="st56">
		<path class="st5" d="M21.5866,374.8955l1.2344,1.1689c-0.6777,0.8848-1.8682,1.4639-3.0479,1.4639
			c-2.2842,0-4.0322-1.7158-4.0322-3.9336c0-2.2285,1.7598-3.9434,4.0322-3.9434c1.2236,0,2.4355,0.5791,3.1025,1.4854
			l-1.2676,1.2021c-0.502-0.6777-1.1143-1.0166-1.835-1.0166c-1.1914,0-2.0869,0.9727-2.0869,2.2725
			c0,1.29,0.9287,2.251,2.1523,2.251C20.527,375.8457,21.1061,375.5293,21.5866,374.8955z"/>
	</g>
	<g class="st56">
		<path class="st5" d="M26.1667,373.584c0-2.3271,1.2666-3.9326,3.124-3.9326c1.8682,0,3.125,1.6055,3.125,3.9326
			c0,2.3496-1.2568,3.9443-3.125,3.9443S26.1667,375.9336,26.1667,373.584z M31.2243,373.584c0-1.7588-0.7539-2.873-1.9336-2.873
			s-1.9336,1.125-1.9336,2.873c0,1.7705,0.7539,2.8848,1.9336,2.8848C30.4821,376.4687,31.2243,375.3652,31.2243,373.584z"/>
	</g>
	<g class="st56">
		<path class="st5" d="M38.0329,372.1855v5.2334h-1.7256v-7.6475h2.3594l1.8467,3.6709l1.835-3.6709h2.3604v7.6475h-1.7705v-5.1895
			l-2.4473,4.6436L38.0329,372.1855z"/>
	</g>
	<g class="st56">
		<path class="st5" d="M53.987,373.3877c0,2.4795-1.4199,4.1299-3.5615,4.1299c-0.7324,0-1.5186-0.252-2.0322-0.6562l0.6553-0.8848
			c0.4375,0.3174,0.918,0.4697,1.4756,0.4697c1.4199,0,2.25-1.1143,2.2715-3.0371c-0.5352,0.71-1.2998,1.1143-2.1084,1.1143
			c-1.4961,0-2.5566-0.9834-2.5566-2.3486c0-1.4531,1.1367-2.5127,2.6885-2.5127C52.6979,369.6621,53.987,371.1806,53.987,373.3877z
			 M52.7419,372.6552c-0.1865-1.1904-0.9072-1.9658-1.8799-1.9658c-0.8955,0-1.5625,0.6221-1.5625,1.4521
			c0,0.8418,0.6455,1.4316,1.5742,1.4316C51.6051,373.5732,52.2721,373.2343,52.7419,372.6552z"/>
		<path class="st5" d="M55.1129,375.3105c0-0.8848,0.6777-1.6172,1.6494-1.8682c-0.8301-0.2734-1.3984-0.9287-1.3984-1.7041
			c0-1.1914,1.1035-2.0869,2.5781-2.0869c1.4756,0,2.5898,0.8955,2.5898,2.0869c0,0.7754-0.5684,1.4307-1.3877,1.7041
			c0.9727,0.251,1.6494,0.9834,1.6494,1.8682c0,1.2998-1.1797,2.2285-2.8398,2.2285
			C56.2819,377.539,55.1129,376.6103,55.1129,375.3105z M59.5924,375.2226c0-0.7422-0.6992-1.2998-1.6387-1.2998
			c-0.9512,0-1.6504,0.5576-1.6504,1.2998c0,0.7539,0.6992,1.3223,1.6504,1.3223
			C58.8932,376.5449,59.5924,375.9765,59.5924,375.2226z M59.3629,371.8144c0-0.6777-0.6123-1.1914-1.4092-1.1914
			c-0.8086,0-1.4209,0.5137-1.4209,1.1914c0,0.6768,0.623,1.1797,1.4209,1.1797C58.7399,372.9941,59.3629,372.4912,59.3629,371.8144
			z"/>
	</g>
	<g class="st56">
		<path class="st5" d="M66.8366,374.5234l-3.1025-4.752h2.1631l1.9336,3.1357l1.9561-3.1357h2.043l-3.1143,4.7412v2.9062h-1.8789
			V374.5234z"/>
	</g>
	<g class="st56">
		<path class="st5" d="M74.3014,375.3105c0-0.8848,0.6777-1.6172,1.6494-1.8682c-0.8301-0.2734-1.3984-0.9287-1.3984-1.7041
			c0-1.1914,1.1035-2.0869,2.5791-2.0869c1.4746,0,2.5889,0.8955,2.5889,2.0869c0,0.7754-0.5684,1.4307-1.3877,1.7041
			c0.9727,0.251,1.6494,0.9834,1.6494,1.8682c0,1.2998-1.1797,2.2285-2.8398,2.2285
			C75.4704,377.539,74.3014,376.6103,74.3014,375.3105z M78.7809,375.2226c0-0.7422-0.6992-1.2998-1.6387-1.2998
			c-0.9512,0-1.6504,0.5576-1.6504,1.2998c0,0.7539,0.6992,1.3223,1.6504,1.3223
			C78.0817,376.5449,78.7809,375.9765,78.7809,375.2226z M78.5514,371.8144c0-0.6777-0.6123-1.1914-1.4092-1.1914
			c-0.8086,0-1.4209,0.5137-1.4209,1.1914c0,0.6768,0.623,1.1797,1.4209,1.1797C77.9284,372.9941,78.5514,372.4912,78.5514,371.8144
			z"/>
		<path class="st5" d="M81.3376,369.7715h4.6543v1.0264h-3.6377l-0.0986,2.2178c0.5137-0.2617,1.0273-0.3818,1.5947-0.3818
			c1.5195,0,2.5459,0.9287,2.5459,2.3164c0,1.54-1.1689,2.5889-2.8955,2.5889c-1.0264,0-1.9443-0.3496-2.6875-1.0381l0.7217-0.8193
			c0.6553,0.5791,1.2559,0.8193,2.0098,0.8193c0.9727,0,1.6279-0.6006,1.6279-1.4961c0-0.8418-0.6885-1.4316-1.6602-1.4316
			c-0.5137,0-0.9834,0.1309-1.5186,0.4043l-0.8311-0.251L81.3376,369.7715z"/>
	</g>
	<g class="st56">
		<path class="st5" d="M90.0368,369.7715h1.8789v3.3213l2.8516-3.3213h2.2393l-3.3428,3.5938l3.54,4.0537h-2.459l-2.8291-3.4746
			v3.4746h-1.8789V369.7715z"/>
	</g>
	<g class="st56">
		<path class="st5" d="M99.5006,373.584c0-2.3271,1.2666-3.9326,3.124-3.9326c1.8682,0,3.125,1.6055,3.125,3.9326
			c0,2.3496-1.2568,3.9443-3.125,3.9443S99.5006,375.9336,99.5006,373.584z M104.5583,373.584c0-1.7588-0.7539-2.873-1.9336-2.873
			s-1.9336,1.125-1.9336,2.873c0,1.7705,0.7539,2.8848,1.9336,2.8848C103.8161,376.4687,104.5583,375.3652,104.5583,373.584z"/>
	</g>
	<g class="st56">
		<path class="st5" d="M16.1022,387.2549h3.7363c1.6279,0,2.6982,1.0596,2.6982,2.5234c0,1.3877-1.0703,2.458-2.6982,2.458h-1.8574
			v2.666h-1.8789V387.2549z M17.9811,388.8056v1.9346h1.5186c0.7646,0,1.1357-0.416,1.1357-0.9727
			c0-0.5469-0.3711-0.9619-1.125-0.9619H17.9811z"/>
		<path class="st5" d="M25.5866,389.6689v5.2334H23.861v-7.6475h2.3594l1.8467,3.6709l1.835-3.6709h2.3604v7.6475h-1.7705v-5.1895
			l-2.4473,4.6436L25.5866,389.6689z"/>
		<path class="st5" d="M34.2848,392.4658c1.0596,0.7432,1.7266,1.0166,2.4805,1.0166c0.8076,0,1.2998-0.3281,1.2998-0.7979
			c0-0.4482-0.2627-0.6553-1.0049-0.7979l-1.6279-0.2842c-1.2129-0.2295-1.8789-0.9717-1.8789-2.043
			c0-1.4854,1.1357-2.4141,3.0371-2.4141c1.1797,0,2.3486,0.3818,3.1348,1.0049l-0.9502,1.3662
			c-0.7432-0.5684-1.4746-0.8418-2.2832-0.8418c-0.7432,0-1.1689,0.3057-1.1689,0.7217c0,0.3818,0.251,0.5898,0.8633,0.6875
			l1.5293,0.2627c1.4316,0.251,2.1846,0.9941,2.1846,2.1631c0,1.4854-1.2666,2.502-3.2666,2.502
			c-1.2119,0-2.2939-0.4043-3.3096-1.1582L34.2848,392.4658z"/>
	</g>
	<g class="st56">
		<path class="st5" d="M44.7653,394.9023h-1.1914V388.5l-1.3545,0.5898v-1.0596l1.792-0.7754h0.7539V394.9023z"/>
		<path class="st5" d="M50.2819,388.3144H45.901v-1.0596h5.6924v0.8955l-3.4639,6.752h-1.3984L50.2819,388.3144z"/>
		<path class="st5" d="M52.36,392.7939c0-0.8848,0.6777-1.6172,1.6494-1.8682c-0.8301-0.2734-1.3984-0.9287-1.3984-1.7051
			c0-1.1904,1.1035-2.0859,2.5791-2.0859c1.4746,0,2.5889,0.8955,2.5889,2.0859c0,0.7764-0.5684,1.4316-1.3877,1.7051
			c0.9727,0.251,1.6494,0.9834,1.6494,1.8682c0,1.2998-1.1797,2.2285-2.8398,2.2285C53.529,395.0224,52.36,394.0937,52.36,392.7939z
			 M56.8395,392.706c0-0.7422-0.6992-1.2998-1.6387-1.2998c-0.9512,0-1.6504,0.5576-1.6504,1.2998
			c0,0.7539,0.6992,1.3223,1.6504,1.3223C56.1403,394.0283,56.8395,393.4599,56.8395,392.706z M56.61,389.2978
			c0-0.6777-0.6123-1.1914-1.4092-1.1914c-0.8086,0-1.4209,0.5137-1.4209,1.1914c0,0.6768,0.623,1.1797,1.4209,1.1797
			C55.987,390.4775,56.61,389.9746,56.61,389.2978z"/>
		<path class="st5" d="M59.1452,392.7939c0-0.8848,0.6777-1.6172,1.6494-1.8682c-0.8301-0.2734-1.3984-0.9287-1.3984-1.7051
			c0-1.1904,1.1035-2.0859,2.5791-2.0859c1.4746,0,2.5889,0.8955,2.5889,2.0859c0,0.7764-0.5684,1.4316-1.3877,1.7051
			c0.9727,0.251,1.6494,0.9834,1.6494,1.8682c0,1.2998-1.1797,2.2285-2.8398,2.2285
			C60.3141,395.0224,59.1452,394.0937,59.1452,392.7939z M63.6247,392.706c0-0.7422-0.6992-1.2998-1.6387-1.2998
			c-0.9512,0-1.6504,0.5576-1.6504,1.2998c0,0.7539,0.6992,1.3223,1.6504,1.3223C62.9254,394.0283,63.6247,393.4599,63.6247,392.706
			z M63.3952,389.2978c0-0.6777-0.6123-1.1914-1.4092-1.1914c-0.8086,0-1.4209,0.5137-1.4209,1.1914
			c0,0.6768,0.623,1.1797,1.4209,1.1797C62.7721,390.4775,63.3952,389.9746,63.3952,389.2978z"/>
		<path class="st5" d="M71.9948,392.8379l0.8633,0.8301c-0.71,0.8408-1.8135,1.3438-2.9502,1.3438
			c-2.2393,0-3.9541-1.7266-3.9541-3.9336c0-2.2178,1.7256-3.9434,3.9541-3.9434c1.1689,0,2.2842,0.502,2.9834,1.3545l-0.8857,0.874
			c-0.5352-0.6777-1.2891-1.0596-2.0977-1.0596c-1.4854,0-2.6104,1.2012-2.6104,2.7744c0,1.5625,1.1465,2.7539,2.6543,2.7539
			C70.7497,393.832,71.4704,393.4824,71.9948,392.8379z"/>
	</g>
	<g class="st56">
		<path class="st5" d="M16.1022,404.7392h3.7139c1.5732,0,2.6992,1.0156,2.6992,2.4365c0,0.9717-0.5576,1.7588-1.4209,2.1406
			l1.6064,3.0703h-2.0977l-1.3877-2.8076h-1.2344v2.8076h-1.8789V404.7392z M17.9811,406.29v1.8135h1.6602
			c0.5791,0,0.9727-0.3604,0.9727-0.9062s-0.3936-0.9072-0.9727-0.9072H17.9811z"/>
		<path class="st5" d="M26.0671,412.4961c-1.6602,0-2.9707-1.2783-2.9707-2.917c0-1.6611,1.2227-2.9277,2.8398-2.9277
			c1.6279,0,2.7754,1.2344,2.7754,2.9932v0.3828h-3.8789c0.1641,0.6328,0.6777,1.0596,1.3223,1.0596
			c0.4697,0,0.8633-0.1641,1.1143-0.4697l1.1689,0.9717C27.7067,412.2334,27.0182,412.4961,26.0671,412.4961z M24.8327,409.0215
			h2.2402c-0.1426-0.6113-0.5791-0.9941-1.1475-0.9941C25.3678,408.0273,24.9753,408.3994,24.8327,409.0215z"/>
		<path class="st5" d="M33.7712,411.6543c-0.3721,0.4707-0.9941,0.7656-1.6611,0.7656c-1.3877,0-2.4902-1.2783-2.4902-2.8633
			c0-1.584,1.1572-2.8398,2.6211-2.8398c0.5908,0,1.126,0.2402,1.5078,0.6768v-2.8184l1.7705-0.2734v8.085h-1.748V411.6543z
			 M32.6999,410.955c0.4268,0,0.7764-0.1523,1.0488-0.4473v-1.9014c-0.2725-0.2842-0.6445-0.4365-1.0488-0.4365
			c-0.7754,0-1.3438,0.5898-1.3438,1.3984C31.3561,410.3652,31.9352,410.955,32.6999,410.955z"/>
		<path class="st5" d="M39.3004,404.7392h1.8789v2.9717h3.0918v-2.9717h1.8789v7.6475h-1.8789v-3.0264h-3.0918v3.0264h-1.8789
			V404.7392z"/>
		<path class="st5" d="M47.2116,410.7695c0-1.0381,0.8086-1.6387,2.1963-1.6387c0.4043,0,0.8086,0.0762,1.3115,0.2627v-0.459
			c0-0.5469-0.3613-0.8193-1.1152-0.8193c-0.4258,0-0.9287,0.1201-1.584,0.3926l-0.6113-1.2344
			c0.9287-0.415,1.7588-0.6113,2.5889-0.6113c1.5625,0,2.4697,0.7754,2.4697,2.1191v3.6055h-1.748v-0.4912
			c-0.4922,0.415-0.9619,0.5791-1.5625,0.5791C48.0094,412.4746,47.2116,411.7754,47.2116,410.7695z M49.7028,411.3047
			c0.3711,0,0.71-0.0977,1.0166-0.2832v-0.7217c-0.3281-0.0762-0.6455-0.1201-0.9727-0.1201c-0.5791,0-0.9072,0.1973-0.9072,0.5576
			S49.1569,411.3047,49.7028,411.3047z"/>
		<path class="st5" d="M54.3805,408.1152h-1.0928v-1.3662h1.0928v-1.5625l1.7695-0.3604v1.9229h1.5078v1.3662h-1.5078v2.1846
			c0,0.5029,0.1963,0.6777,0.7432,0.6777c0.207,0,0.3711-0.0225,0.7207-0.1201v1.4307c-0.3281,0.0986-0.8525,0.1748-1.2129,0.1748
			c-1.333,0-2.0205-0.6113-2.0205-1.8135V408.1152z"/>
		<path class="st5" d="M60.9919,406.749h1.7695v1.2783c0.3604-0.9395,0.8633-1.3877,1.5293-1.3877
			c0.252,0.0117,0.3721,0.0332,0.5908,0.1426v1.5186c-0.2188-0.1094-0.5244-0.1748-0.8311-0.1748
			c-0.5244,0-1.0049,0.2734-1.2891,0.6992v3.5615h-1.7695V406.749z"/>
		<path class="st5" d="M68.3776,412.4961c-1.6602,0-2.9707-1.2783-2.9707-2.917c0-1.6611,1.2227-2.9277,2.8398-2.9277
			c1.6279,0,2.7754,1.2344,2.7754,2.9932v0.3828h-3.8789c0.1641,0.6328,0.6777,1.0596,1.3223,1.0596
			c0.4697,0,0.8633-0.1641,1.1143-0.4697l1.1689,0.9717C70.0173,412.2334,69.3288,412.4961,68.3776,412.4961z M67.1432,409.0215
			h2.2402c-0.1426-0.6113-0.5791-0.9941-1.1475-0.9941C67.6784,408.0273,67.2858,408.3994,67.1432,409.0215z"/>
		<path class="st5" d="M76.0817,411.6543c-0.3721,0.4707-0.9941,0.7656-1.6611,0.7656c-1.3877,0-2.4902-1.2783-2.4902-2.8633
			c0-1.584,1.1572-2.8398,2.6211-2.8398c0.5908,0,1.126,0.2402,1.5078,0.6768v-2.8184l1.7705-0.2734v8.085h-1.748V411.6543z
			 M75.0104,410.955c0.4268,0,0.7764-0.1523,1.0488-0.4473v-1.9014c-0.2725-0.2842-0.6445-0.4365-1.0488-0.4365
			c-0.7754,0-1.3438,0.5898-1.3438,1.3984C73.6667,410.3652,74.2458,410.955,75.0104,410.955z"/>
	</g>
</g>
<g id="Section:_Red_Hat_Marketplace_partner_buttons">
</g>
<g id="Section:_Red_Hat_Marketplace_logo_in_use">
</g>
<g id="Section:_Using_the_correct_logo">
</g>
<g id="Section:_Logo_and_clear_space">
</g>
<g id="Section:_User_experience">
</g>
</svg>
