<svg xmlns="http://www.w3.org/2000/svg" viewBox="0 0 262 180">
  <defs>
    <style>
      .b4975bd6-cdc7-431e-b437-4e0174a28a1b {
        fill: #e00;
      }
    </style>
  </defs>
  <g id="fff0e38c-f63c-47e7-a2a2-010fb3623f96" data-name="Section: Red Hat Marketplace logo in use">
    <g id="a5ed360b-8701-4fba-92e6-38a64fcb7589" data-name="Group 35726">
      <path id="e05835a2-54aa-4adf-ad83-82fd902ca5b9" data-name="Path 20229" d="M116.17,68.22v4.3h3.75a2.17,2.17,0,0,0,.65-4.3,2.36,2.36,0,0,0-.65,0Zm-1.93-1.69h5.84c2.56,0,4.29,1.55,4.29,3.81a3.64,3.64,0,0,1-2.65,3.53l2.87,5.53h-2.14l-2.66-5.27h-3.62V79.4h-1.93V66.53Z"/>
      <path id="b8488bd7-e05c-4430-8d8a-fd4444f8e2fe" data-name="Path 20230" d="M127,73.94h5.55a2.79,2.79,0,0,0-5.55,0Zm3.07,5.63a4.82,4.82,0,0,1-4.91-4.72v-.14a4.69,4.69,0,0,1,4.58-4.81h.1a4.64,4.64,0,0,1,4.53,4.74v.68H127A3.15,3.15,0,0,0,130.14,78a3.67,3.67,0,0,0,2.37-.83l1.18,1.16a5.62,5.62,0,0,1-3.63,1.23Z"/>
      <path id="f86a60d5-1dfb-4ef4-91e5-4ed3d902ac64" data-name="Path 20231" d="M140.71,78a3.41,3.41,0,0,0,2.59-1.12V72.58a3.44,3.44,0,0,0-2.59-1.1,3.14,3.14,0,0,0-3.18,3.09v.13A3.16,3.16,0,0,0,140.6,78Zm2.61.57a4.41,4.41,0,0,1-2.87,1,4.72,4.72,0,0,1-4.72-4.73v-.11a4.77,4.77,0,0,1,4.7-4.82,4.84,4.84,0,0,1,2.87.92V66.53l1.84-.4V79.4h-1.82v-.88Z"/>
      <path id="baabb355-7612-42cb-b52c-4c948b1ca8ed" data-name="Path 20232" d="M151.37,66.53h1.93v5.52h6.84V66.53h1.93V79.4h-1.93V73.79H153.3V79.4h-1.93Z"/>
      <path id="bed399e1-ffd0-47b9-bca6-ca538a30506b" data-name="Path 20233" d="M167.68,78.21a3.59,3.59,0,0,0,2.48-.89V75.71a4.82,4.82,0,0,0-2.41-.57c-1.34,0-2.17.6-2.17,1.54s.85,1.53,2.1,1.53Zm-3.87-1.49c0-1.77,1.44-2.85,3.79-2.85a6.52,6.52,0,0,1,2.55.51v-1c0-1.32-.79-2-2.28-2a6.46,6.46,0,0,0-2.9.79l-.68-1.39a8.86,8.86,0,0,1,3.85-1c2.42,0,3.82,1.19,3.82,3.34v6.2h-1.8v-.81a4.43,4.43,0,0,1-2.9,1c-2,0-3.44-1.16-3.44-2.85Z"/>
      <path id="e0772d79-0fe4-4863-a694-a28755154ccf" data-name="Path 20234" d="M174.92,71.59h-2V70h2V67.65l1.82-.44V70h2.76v1.55h-2.76v5.07c0,1,.39,1.31,1.38,1.31a3.81,3.81,0,0,0,1.34-.22v1.54a6.1,6.1,0,0,1-1.75.28c-1.82,0-2.79-.87-2.79-2.49v-5.5Z"/>
      <path id="f97d38d7-d7f0-4bd5-ad29-e6e6793a8657" data-name="Path 20235" d="M116.55,89.24V98.7h-2.46V85.84h3.42L121,92.75l3.53-6.91H128V98.7h-2.52V89.25L121,97.78l-4.45-8.54Z"/>
      <path id="e0405138-adbf-4085-b055-79ee5aadaf4a" data-name="Path 20236" d="M133.65,97.07a3.59,3.59,0,0,0,2.11-.61V95a5.54,5.54,0,0,0-2-.35c-1.16,0-1.84.46-1.84,1.19s.69,1.2,1.75,1.2Zm-4.15-1.14c0-1.82,1.47-2.9,3.93-2.9a7.66,7.66,0,0,1,2.33.36v-.68c0-1.1-.68-1.67-2-1.67a7.43,7.43,0,0,0-2.92.79L129.9,90a10,10,0,0,1,4.26-1c2.6,0,4.09,1.28,4.09,3.54v6.22h-2.49V98a4.57,4.57,0,0,1-2.77.83c-2.06,0-3.5-1.2-3.5-2.94Z"/>
      <path id="b72f680e-4aa0-4376-b0db-4afa9fb979d1" data-name="Path 20237" d="M140.16,89.13h2.52v1.05a3,3,0,0,1,2.55-1.27,2.09,2.09,0,0,1,1.05.22v2.2a3.29,3.29,0,0,0-1.28-.26,2.54,2.54,0,0,0-2.32,1.44V98.7h-2.52V89.13Z"/>
      <path id="bdf751a0-5cb0-49ed-a466-a518ad5181bc" data-name="Path 20238" d="M147.64,85.84l2.52-.56v7.89l4.13-4h2.85l-4.48,4.39,4.76,5.19H154.2l-4-4.38V98.7h-2.52V85.84Z"/>
      <path id="ae5b9614-da43-4aa5-98f6-42f240a7883c" data-name="Path 20239" d="M159.44,93h4.69A2.47,2.47,0,0,0,161.79,91,2.41,2.41,0,0,0,159.44,93Zm2.63,5.92a5,5,0,0,1-5.15-4.82v-.15a4.9,4.9,0,0,1,4.82-5h.11a4.83,4.83,0,0,1,4.75,4.91,1.93,1.93,0,0,1,0,.24v.66h-7.13a2.75,2.75,0,0,0,2.72,2,3,3,0,0,0,2.11-.77L166,97.5a5.69,5.69,0,0,1-3.88,1.38Z"/>
      <path id="a04e9d30-66ef-4187-b26e-16c5b87ef0a5" data-name="Path 20240" d="M169.07,91.24h-2V89.13h2V86.68l2.52-.57v3h2.72v2.11h-2.72v4.25c0,.9.35,1.23,1.33,1.23a4.09,4.09,0,0,0,1.34-.22v2.06a7.6,7.6,0,0,1-1.95.29c-2.13,0-3.24-1-3.24-2.85V91.24Z"/>
      <path id="a21eeb80-3f59-40fc-a0d3-b378a715dbb7" data-name="Path 20241" d="M178.08,92.05v3.77a3.22,3.22,0,0,0,2.28.88,2.78,2.78,0,1,0,0-5.55h0a3.08,3.08,0,0,0-2.28.9Zm-2.52-2.92h2.49v.79a4.32,4.32,0,0,1,2.72-.92,4.92,4.92,0,0,1-.07,9.83,4.7,4.7,0,0,1-2.61-.75v4.47h-2.52V89.13Z"/>
      <path id="a8deb940-e354-4c32-942f-12f656d1800e" data-name="Path 20242" d="M189.7,98.7h-2.52V85.84l2.52-.56Z"/>
      <path id="be9a703a-baae-40ff-9843-f7d489660756" data-name="Path 20243" d="M195.36,97.07a3.59,3.59,0,0,0,2.11-.61V95a5.54,5.54,0,0,0-2-.35c-1.16,0-1.84.46-1.84,1.19s.68,1.2,1.75,1.2Zm-4.15-1.14c0-1.82,1.47-2.9,3.93-2.9a7.77,7.77,0,0,1,2.34.36v-.68c0-1.1-.68-1.67-2-1.67a7.48,7.48,0,0,0-2.92.79L191.61,90a10.05,10.05,0,0,1,4.27-1c2.59,0,4.08,1.29,4.08,3.55V98.7h-2.48V98a4.6,4.6,0,0,1-2.78.83c-2.06,0-3.49-1.2-3.49-2.94Z"/>
      <path id="b7d2672d-84e6-4b24-a31b-89e365325ec7" data-name="Path 20244" d="M208.84,95.61l1.5,1.57a5.3,5.3,0,0,1-3.9,1.71,5,5,0,0,1-.14-10h.14a5.36,5.36,0,0,1,4,1.71l-1.54,1.64a3.1,3.1,0,0,0-2.37-1.16,2.78,2.78,0,0,0,.05,5.55,3,3,0,0,0,2.28-1.06Z"/>
      <path id="baf70b28-b822-4c52-9b06-24c208a381a7" data-name="Path 20245" d="M213.36,93h4.69A2.47,2.47,0,0,0,215.71,91,2.4,2.4,0,0,0,213.36,93ZM216,98.89a5,5,0,0,1-5.15-4.82v-.15a4.89,4.89,0,0,1,4.81-5h.12a4.85,4.85,0,0,1,4.75,4.91c0,.08,0,.16,0,.24v.66h-7.13a2.75,2.75,0,0,0,2.72,2,3,3,0,0,0,2.11-.77l1.66,1.5A5.69,5.69,0,0,1,216,98.88Z"/>
      <path id="b71cc08c-300d-4714-9e37-e23c7a6a7081" data-name="Path 20246" class="b4975bd6-cdc7-431e-b437-4e0174a28a1b" d="M78.14,83a12.21,12.21,0,0,1,.4,2.33c0,3.22-3.62,5-8.37,5C59.42,90.31,50,84,50,79.86a4.09,4.09,0,0,1,.34-1.69c-3.87.2-8.87.9-8.87,5.3,0,7.24,17.14,16.15,30.71,16.15,10.4,0,13-4.7,13-8.42,0-2.92-2.52-6.24-7.08-8.22ZM70.66,85.6c2.87,0,7-.59,7-4a2.91,2.91,0,0,0-.07-.78l-1.71-7.44c-.4-1.64-.74-2.38-3.62-3.81-2.23-1.14-7.08-3-8.52-3S62,68.27,60.45,68.27,57.78,67,56.34,67s-2.28.94-3,2.87c0,0-1.93,5.45-2.18,6.24a1.38,1.38,0,0,0,0,.45C51.14,78.66,59.48,85.6,70.66,85.6Z"/>
      <path id="e4baac89-c4bc-420e-afe7-d5088bd3b464" data-name="Path 20247" d="M78.14,83a12.21,12.21,0,0,1,.4,2.33c0,3.22-3.62,5-8.37,5C59.41,90.31,50,84,50,79.86a4.21,4.21,0,0,1,.35-1.68l.84-2.08a1.3,1.3,0,0,0,0,.44c0,2.12,8.34,9.07,19.52,9.07,2.87,0,7-.6,7-4a3,3,0,0,0-.07-.79L78.14,83Z"/>
      <path id="bb8637c5-3dce-4b89-9808-bffb44edc76f" data-name="Path 20248" d="M99.73,112.7a.52.52,0,0,1-.52-.52V65.38a.52.52,0,0,1,1,0h0v46.8a.51.51,0,0,1-.51.52Z"/>
      <path id="a8e508ea-cd1c-4ffb-9964-f6030b211c43" data-name="Path 20249" d="M118.05,105.63a3,3,0,1,0,3,3.1v-.07a3,3,0,0,0-2.85-3Zm0,7.18a4.15,4.15,0,1,1,.09,0Z"/>
      <path id="b410dc7d-989d-42ef-8a65-5da3c2d8b421" data-name="Path 20250" d="M124.54,108.44v2.65a2.18,2.18,0,0,0,1.63.69,2,2,0,0,0,0-4,2.1,2.1,0,0,0-1.63.7Zm-1.15-1.6h1.13v.56a2.7,2.7,0,0,1,1.8-.66,3,3,0,0,1,0,6,3.06,3.06,0,0,1-1.75-.58v2.86h-1.15v-8.23Z"/>
      <path id="eac4842b-9536-4c6a-b712-318a397583ac" data-name="Path 20251" d="M131.25,109.27h3.47a1.74,1.74,0,0,0-3.47,0Zm1.91,3.52a3,3,0,0,1-3.06-3v-.08a2.94,2.94,0,0,1,2.86-3H133a2.91,2.91,0,0,1,2.83,3s0,.06,0,.08v.34h-4.62a2,2,0,0,0,2,1.68,2.32,2.32,0,0,0,1.48-.52l.74.72a3.45,3.45,0,0,1-2.27.77Z"/>
      <path id="e9509660-8ed5-4b94-89dd-95de1e8d2ebf" data-name="Path 20252" d="M136.94,106.84h1.15v.74a1.84,1.84,0,0,1,1.61-.87,1.49,1.49,0,0,1,.59.09v1a1.79,1.79,0,0,0-.68-.13,1.62,1.62,0,0,0-1.52,1.07v3.9h-1.15v-5.84Z"/>
      <path id="a081a68f-70f3-4788-9ee8-04952868fe65" data-name="Path 20253" d="M143.32,111.94a2.25,2.25,0,0,0,1.55-.55v-1a3,3,0,0,0-1.5-.36c-.84,0-1.36.38-1.36,1s.53,1,1.31,1Zm-2.41-.93c0-1.1.9-1.78,2.37-1.78a4.23,4.23,0,0,1,1.6.32v-.62c0-.83-.5-1.24-1.43-1.24a4.08,4.08,0,0,0-1.81.49l-.43-.86a5.4,5.4,0,0,1,2.4-.6c1.52,0,2.39.75,2.39,2.09v3.87h-1.13v-.5a2.83,2.83,0,0,1-1.81.61c-1.28,0-2.15-.73-2.15-1.79Z"/>
      <path id="bf080c28-b3a9-4abb-b0f4-3dbeefa7271c" data-name="Path 20254" d="M148.08,107.8h-1.24v-1h1.24v-1.5l1.13-.27v1.77h1.73v1h-1.73V111c0,.6.25.82.87.82a2.22,2.22,0,0,0,.84-.14v1a4.13,4.13,0,0,1-1.1.17c-1.13,0-1.74-.54-1.74-1.55V107.8Z"/>
      <path id="a8e5913c-99ee-40d6-898f-fa4dd4fd2acd" data-name="Path 20255" d="M152.67,109.27h3.47a1.74,1.74,0,0,0-3.47,0Zm1.92,3.52a3,3,0,0,1-3.07-3v-.08a3,3,0,0,1,2.87-3h.06a2.9,2.9,0,0,1,2.83,3v.42h-4.62a2,2,0,0,0,2,1.68,2.34,2.34,0,0,0,1.48-.52l.73.72a3.45,3.45,0,0,1-2.26.77Z"/>
      <path id="a508ce65-1ca4-44b5-921c-72c1e4ea1a16" data-name="Path 20256" d="M161.22,111.78a2.11,2.11,0,0,0,1.62-.7v-2.66a2.14,2.14,0,0,0-1.62-.69,2,2,0,0,0,0,4Zm1.63.35a2.77,2.77,0,0,1-1.79.65,3,3,0,0,1,0-6,3.06,3.06,0,0,1,1.76.58v-2.67l1.15-.26v8.3h-1.14v-.55Z"/>
      <path id="ef1a25ee-f0b1-4681-815e-d03659389f92" data-name="Path 20257" d="M168.9,108.45v2.64a2.18,2.18,0,0,0,1.63.69,2,2,0,0,0,0-4,2.13,2.13,0,0,0-1.63.7Zm1.75,4.33a2.92,2.92,0,0,1-1.77-.59v.5h-1.13v-8l1.14-.26v3a2.71,2.71,0,0,1,1.79-.64,3,3,0,0,1,0,6Z"/>
      <path id="e57703f8-e784-4c09-b366-e5b339a132a0" data-name="Path 20258" d="M176.41,112.71l-2.33-5.87h1.26l1.71,4.47,1.88-4.47h1.24l-2.82,6.55c-.54,1.25-1.16,1.74-2.24,1.74a2.08,2.08,0,0,1-.61-.07v-1a2.21,2.21,0,0,0,.51,0,1.22,1.22,0,0,0,1.17-.86l.23-.53Z"/>
      <path id="b472c12c-d629-4f56-b70e-c4e3017ba878" data-name="Path 20259" d="M183.43,104.64h1.21v8h-1.21Z"/>
      <path id="e2d3b48d-d6af-4fce-81d1-5d005abc7787" data-name="Path 20260" d="M191.46,110.34c0-.79-.64-1.32-1.64-1.32h-2.33v2.64h2.33c1,0,1.64-.51,1.64-1.32Zm-4-4.68v2.39h2.2c.91,0,1.48-.46,1.48-1.19s-.57-1.2-1.48-1.2Zm2.27-1c1.57,0,2.61.84,2.61,2.13a1.91,1.91,0,0,1-1.12,1.73,2,2,0,0,1,1.43,1.9c0,1.38-1.09,2.29-2.77,2.29h-3.63v-8Z"/>
      <path id="abd97df7-f429-4880-a407-e093d1cf07bb" data-name="Path 20261" d="M195.11,106.14v6.54H194v-8h1.61l2.52,5.14,2.52-5.14h1.61v8h-1.14v-6.56l-3,6-3-6Z"/>
    </g>
  </g>
</svg>
