<svg xmlns="http://www.w3.org/2000/svg" viewBox="0 0 360 196">
  <defs>
    <style>
      .eb0a846c-aac4-4bc4-a363-3c09a16ffe3e {
        fill: #e00;
      }
    </style>
  </defs>
  <g id="b04e05d1-3981-4557-ab76-416d8470a9a2" data-name="Section: Using the correct logo">
    <g id="b8b8effd-f80b-4071-ba06-d9e9e6023a97" data-name="Group 35725">
      <path id="b7d62eda-87da-4ec2-a767-9a454782d11f" data-name="Path 20229" d="M161.34,70.6V76h4.72c1.9,0,3.15-1.09,3.15-2.71s-1.25-2.7-3.15-2.7Zm-2.43-2.13h7.36c3.21,0,5.39,1.94,5.39,4.79a4.58,4.58,0,0,1-3.33,4.44l3.61,7h-2.69L165.9,78h-4.56v6.64h-2.43V68.47Z"/>
      <path id="eae5943e-f1dd-4341-9aa1-78351607bf69" data-name="Path 20230" d="M175,77.79h7a3.51,3.51,0,0,0-7,0Zm3.86,7.08a6.06,6.06,0,0,1-6.18-5.94v-.17a5.93,5.93,0,0,1,5.77-6.06h.13a5.83,5.83,0,0,1,5.7,6v.87H175a4,4,0,0,0,4,3.38,4.64,4.64,0,0,0,3-1l1.48,1.46a7,7,0,0,1-4.56,1.55Z"/>
      <path id="ab157759-60d5-4439-982d-d99bf03d1161" data-name="Path 20231" d="M192.22,82.83a4.21,4.21,0,0,0,3.26-1.41V76.08a4.27,4.27,0,0,0-3.26-1.39,4,4,0,0,0-4,3.88v.17a4,4,0,0,0,3.87,4.09Zm3.29.72a5.54,5.54,0,0,1-3.61,1.3,6,6,0,0,1-6-5.94v-.14a6,6,0,0,1,9.53-4.9v-5.4L197.8,68v16.7h-2.29V83.55Z"/>
      <path id="b7110c08-6d18-46f3-945a-b5b36d9183d6" data-name="Path 20232" d="M205.64,68.47h2.43v6.94h8.6V68.47h2.43V84.66h-2.43v-7h-8.6v7h-2.43V68.47Z"/>
      <path id="fd96acd0-2cb7-4223-80ab-e5ec390ce858" data-name="Path 20233" d="M226.16,83.16a4.52,4.52,0,0,0,3.12-1.11V80a6.13,6.13,0,0,0-3-.72c-1.69,0-2.73.76-2.73,1.94s1.06,1.92,2.64,1.92Zm-4.86-1.87c0-2.22,1.8-3.59,4.76-3.59a8.27,8.27,0,0,1,3.22.65V77.1c0-1.67-1-2.5-2.87-2.5a8.51,8.51,0,0,0-3.66,1l-.85-1.73a10.85,10.85,0,0,1,4.83-1.2c3.06,0,4.81,1.5,4.81,4.21v7.8h-2.26v-1a5.59,5.59,0,0,1-3.66,1.23c-2.57,0-4.32-1.46-4.32-3.59Z"/>
      <path id="f28617ba-769d-4437-a6c8-717bc8dfaf8f" data-name="Path 20234" d="M235.27,74.83h-2.5V72.89h2.5v-3l2.29-.55v3.56H241v1.94h-3.47v6.39c0,1.2.49,1.64,1.74,1.64a4.65,4.65,0,0,0,1.69-.28v1.94a7.9,7.9,0,0,1-2.2.35c-2.29,0-3.52-1.09-3.52-3.12V74.83Z"/>
      <path id="be880067-4862-4452-97a5-41c434582530" data-name="Path 20235" d="M161.83,97V109h-3.1V92.76H163l4.44,8.7,4.44-8.7h4.3V109H173V97.07l-5.62,10.73L161.82,97Z"/>
      <path id="ef84104c-e18f-4330-8b5e-899bbec26b81" data-name="Path 20236" d="M183.34,106.89a4.56,4.56,0,0,0,2.66-.76v-1.8a7.11,7.11,0,0,0-2.54-.44c-1.46,0-2.32.58-2.32,1.5s.86,1.5,2.2,1.5Zm-5.23-1.43c0-2.29,1.85-3.66,4.95-3.66a9.77,9.77,0,0,1,2.94.47v-.86c0-1.39-.85-2.1-2.54-2.1a9.25,9.25,0,0,0-3.68,1L178.62,98a12.53,12.53,0,0,1,5.37-1.3c3.26,0,5.13,1.62,5.13,4.46V109H186v-.83a5.78,5.78,0,0,1-3.49,1c-2.59,0-4.4-1.5-4.4-3.7Z"/>
      <path id="f560ee1d-9664-4bc8-bbe1-6b1dd62cea65" data-name="Path 20237" d="M191.53,96.9h3.17v1.32a3.82,3.82,0,0,1,3.21-1.6,2.62,2.62,0,0,1,1.32.28v2.77a3.91,3.91,0,0,0-1.62-.32,3.17,3.17,0,0,0-2.91,1.8V109h-3.17Z"/>
      <path id="aafa52b3-c38c-45cf-84fa-8db6b5d6df79" data-name="Path 20238" d="M200.94,92.75l3.17-.69V102l5.2-5.08h3.59l-5.65,5.52,6,6.53h-4l-5.09-5.51V109h-3.17V92.75Z"/>
      <path id="a9df44e9-66b5-4496-aa6d-d2cdf156b1b4" data-name="Path 20239" d="M215.79,101.73h5.9a3.11,3.11,0,0,0-2.93-2.43,3,3,0,0,0-3,2.43Zm3.31,7.45a6.27,6.27,0,0,1-6.47-6.07.91.91,0,0,0,0-.17,6.15,6.15,0,0,1,6.06-6.25h.15c3.42,0,6,2.78,6,6.48V104h-9a3.47,3.47,0,0,0,3.42,2.52,3.82,3.82,0,0,0,2.66-1l2.08,1.9a7.18,7.18,0,0,1-4.88,1.73Z"/>
      <path id="e1817e2a-4e93-4508-82b4-ac2f26bcb3ce" data-name="Path 20240" d="M227.92,99.56h-2.48V96.9h2.48V93.82l3.16-.71V96.9h3.43v2.66h-3.43v5.34c0,1.14.44,1.55,1.67,1.55a4.83,4.83,0,0,0,1.69-.27v2.59a9.69,9.69,0,0,1-2.45.37c-2.69,0-4.08-1.23-4.08-3.58v-6Z"/>
      <path id="fa58a8e3-04f1-4b52-87c7-a26f2f50063a" data-name="Path 20241" d="M239.25,100.58v4.74a4.06,4.06,0,0,0,2.87,1.11,3.5,3.5,0,0,0,0-7A3.9,3.9,0,0,0,239.25,100.58Zm-3.17-3.68h3.12v1a5.46,5.46,0,0,1,3.43-1.15,6.19,6.19,0,1,1-.1,12.37,6,6,0,0,1-3.28-1v5.62h-3.17Z"/>
      <path id="b83f9a3f-4970-4c86-be25-d6ec57ab0c35" data-name="Path 20242" d="M253.87,109H250.7V92.75l3.17-.69Z"/>
      <path id="b40f4442-4db2-4f7c-9e41-092ae5b9a296" data-name="Path 20243" d="M261,106.89a4.54,4.54,0,0,0,2.66-.76v-1.8a7.08,7.08,0,0,0-2.54-.44c-1.46,0-2.31.58-2.31,1.5s.85,1.5,2.2,1.5Zm-5.22-1.43c0-2.29,1.85-3.66,5-3.66a9.71,9.71,0,0,1,2.93.47v-.86c0-1.39-.85-2.1-2.54-2.1a9.3,9.3,0,0,0-3.68,1L256.28,98a12.49,12.49,0,0,1,5.36-1.3c3.26,0,5.14,1.62,5.14,4.46V109h-3.13v-.83a5.78,5.78,0,0,1-3.49,1c-2.59,0-4.4-1.5-4.4-3.7Z"/>
      <path id="b113c2fd-bf42-4465-80d6-fa0609b84ea4" data-name="Path 20244" d="M278,105.07l1.9,2a6.66,6.66,0,0,1-4.9,2.15,6.26,6.26,0,1,1-.16-12.51H275a6.81,6.81,0,0,1,5,2.15L278,100.88a3.92,3.92,0,0,0-3-1.46,3.5,3.5,0,0,0,.07,7,3.75,3.75,0,0,0,2.87-1.35Z"/>
      <path id="ae714134-eafd-42d2-a10b-38279833aca0" data-name="Path 20245" d="M283.64,101.73h5.9a3.12,3.12,0,0,0-2.94-2.43,3,3,0,0,0-3,2.43Zm3.31,7.45a6.28,6.28,0,0,1-6.48-6.07v-.17a6.15,6.15,0,0,1,6.06-6.25h.14c3.42,0,6,2.78,6,6.48V104h-9a3.48,3.48,0,0,0,3.43,2.52,3.82,3.82,0,0,0,2.66-1l2.08,1.9a7.22,7.22,0,0,1-4.88,1.73Z"/>
      <path id="eb095e77-20b2-48c0-aedc-9fa0a3a4ea51" data-name="Path 20246" class="eb0a846c-aac4-4bc4-a363-3c09a16ffe3e" d="M113.49,89.16a15.35,15.35,0,0,1,.5,2.93c0,4-4.55,6.3-10.54,6.3-13.52,0-25.37-7.91-25.37-13.15a5.33,5.33,0,0,1,.44-2.12c-4.86.25-11.16,1.12-11.16,6.67,0,9.1,21.57,20.32,38.65,20.32,13.09,0,16.39-5.92,16.39-10.6,0-3.68-3.18-7.86-8.91-10.35Zm-9.42,3.3c3.62,0,8.86-.74,8.86-5a4.15,4.15,0,0,0-.09-1l-2.16-9.35c-.5-2.06-.93-3-4.55-4.8-2.8-1.43-8.91-3.8-10.72-3.8s-2.18,2.18-4.18,2.18S87.87,69,86.06,69s-2.87,1.19-3.74,3.62c0,0-2.43,6.85-2.74,7.85a2.1,2.1,0,0,0-.07.56c0,2.67,10.5,11.41,24.56,11.41Z"/>
      <path id="bf2e8cc4-96f8-47e1-bb17-9f5e93ccaeaf" data-name="Path 20247" d="M113.49,89.17a15.35,15.35,0,0,1,.5,2.93c0,4.05-4.55,6.3-10.54,6.3-13.53,0-25.37-7.93-25.37-13.16a5.33,5.33,0,0,1,.44-2.12l1.06-2.62a2.1,2.1,0,0,0-.07.56c0,2.67,10.5,11.41,24.56,11.41,3.62,0,8.85-.75,8.85-5a3.3,3.3,0,0,0-.09-1Z"/>
      <path id="adb0e741-12d8-4e95-a1cd-65dc0f0b0292" data-name="Path 20248" d="M140.65,126.56a.65.65,0,0,1-.65-.65V67a.65.65,0,0,1,1.3,0v58.89a.65.65,0,0,1-.65.65Z"/>
      <path id="b4e53363-14c0-4406-8929-fdc70246f58c" data-name="Path 20249" d="M163.7,117.67a3.82,3.82,0,1,0,3.73,3.9v-.09a3.69,3.69,0,0,0-3.58-3.81Zm0,9a5.22,5.22,0,1,1,.12,0Z"/>
      <path id="af9c66f1-ca76-40a1-a344-e49bf040e1ae" data-name="Path 20250" d="M171.87,121.21v3.32a2.72,2.72,0,0,0,2,.87,2.54,2.54,0,0,0,0-5.07A2.63,2.63,0,0,0,171.87,121.21Zm-1.44-2h1.43v.71a3.36,3.36,0,0,1,2.25-.82,3.8,3.8,0,0,1,0,7.6,3.84,3.84,0,0,1-2.24-.73v3.6h-1.45V119.18Z"/>
      <path id="a7353f36-5848-43d6-be97-8a9e3d043b16" data-name="Path 20251" d="M180.31,122.25h4.37a2.2,2.2,0,0,0-4.37,0Zm2.42,4.42a3.79,3.79,0,0,1-3.86-3.71v-.1a3.7,3.7,0,0,1,3.61-3.79h.08a3.64,3.64,0,0,1,3.56,3.73.45.45,0,0,1,0,.11v.42H180.3a2.46,2.46,0,0,0,2.48,2.11,2.84,2.84,0,0,0,1.87-.65l.92.91a4.32,4.32,0,0,1-2.84,1Z"/>
      <path id="aa34f7f7-c427-4500-bc1c-1924e4910545" data-name="Path 20252" d="M187.49,119.19h1.44v.93a2.31,2.31,0,0,1,2-1.1,1.81,1.81,0,0,1,.73.12v1.3a2.46,2.46,0,0,0-.85-.16,2,2,0,0,0-1.91,1.35v4.91h-1.44v-7.36Z"/>
      <path id="f15a11e7-dfd6-4436-99a8-a2b2a015bf37" data-name="Path 20253" d="M195.51,125.6a2.78,2.78,0,0,0,2-.69v-1.28a3.88,3.88,0,0,0-1.89-.45c-1.06,0-1.71.48-1.71,1.22s.67,1.2,1.65,1.2Zm-3-1.17c0-1.39,1.13-2.24,3-2.24a5.3,5.3,0,0,1,2,.4v-.78c0-1-.62-1.56-1.79-1.56a5.18,5.18,0,0,0-2.28.62l-.54-1.08a6.92,6.92,0,0,1,3-.76c1.91,0,3,.94,3,2.64v4.87h-1.42v-.64a3.48,3.48,0,0,1-2.28.77c-1.6,0-2.7-.91-2.7-2.24Z"/>
      <path id="e2754afc-683e-48fa-aaa6-3d6ebf578cd7" data-name="Path 20254" d="M201.49,120.4h-1.56v-1.21h1.56V117.3l1.44-.35v2.23h2.16v1.22h-2.16v4c0,.75.3,1,1.08,1a2.75,2.75,0,0,0,1.06-.18v1.22a5,5,0,0,1-1.38.22c-1.43,0-2.2-.68-2.2-2V120.4Z"/>
      <path id="ed1a6b4e-4bf3-49a5-9edb-0421d7682110" data-name="Path 20255" d="M207.28,122.25h4.36a2.2,2.2,0,0,0-4.36,0Zm2.41,4.42a3.79,3.79,0,0,1-3.86-3.71v-.1a3.7,3.7,0,0,1,3.61-3.79h.08a3.64,3.64,0,0,1,3.56,3.73v.53h-5.82a2.48,2.48,0,0,0,2.49,2.11,2.79,2.79,0,0,0,1.87-.65l.92.91a4.34,4.34,0,0,1-2.85,1Z"/>
      <path id="a88302ee-de0c-40cf-a993-de1d10d1821d" data-name="Path 20256" d="M218,125.4a2.62,2.62,0,0,0,2-.88v-3.34a2.66,2.66,0,0,0-2-.87,2.55,2.55,0,0,0,0,5.09Zm2.06.45a3.44,3.44,0,0,1-2.26.81,3.8,3.8,0,1,1,2.24-6.87v-3.37l1.45-.32v10.44h-1.43v-.69Z"/>
      <path id="f122873f-093c-45b8-8021-4c3a50e6524d" data-name="Path 20257" d="M227.69,121.21v3.32a2.72,2.72,0,0,0,2.06.87,2.54,2.54,0,0,0,0-5.07A2.63,2.63,0,0,0,227.69,121.21Zm2.21,5.45a3.7,3.7,0,0,1-2.22-.74v.62h-1.43V116.42l1.44-.32v3.78a3.41,3.41,0,0,1,2.24-.81,3.8,3.8,0,0,1,0,7.59Z"/>
      <path id="bdbf6eac-54e2-4fe9-a1b5-185bc6534616" data-name="Path 20258" d="M237.15,126.57l-2.94-7.39h1.59l2.16,5.63,2.37-5.63h1.56l-3.56,8.25c-.68,1.57-1.46,2.2-2.82,2.2a3.22,3.22,0,0,1-.76-.09v-1.28a2.35,2.35,0,0,0,.65.06,1.53,1.53,0,0,0,1.46-1.08l.29-.67Z"/>
      <path id="e7ab2154-b79d-4e1c-bfa0-3c942818c89d" data-name="Path 20259" d="M246,116.42h1.52v10.12H246Z"/>
      <path id="a13ddebe-8950-45db-aa2c-6ce15adff686" data-name="Path 20260" d="M256.09,123.59c0-1-.81-1.66-2.07-1.66h-2.94v3.33H254c1.26,0,2.07-.65,2.07-1.67Zm-5-5.88v3h2.77c1.15,0,1.87-.58,1.87-1.5s-.72-1.5-1.87-1.5Zm2.86-1.29c2,0,3.28,1.06,3.28,2.68a2.38,2.38,0,0,1-1.4,2.18,2.53,2.53,0,0,1,1.79,2.39c0,1.73-1.37,2.87-3.48,2.87h-4.58V116.42Z"/>
      <path id="e30714d6-a651-4784-b93d-acfbc7f8bd02" data-name="Path 20261" d="M260.68,118.3v8.24h-1.41V116.42h2l3.18,6.47,3.17-6.47h2v10.12h-1.43v-8.25l-3.77,7.53-3.78-7.52Z"/>
    </g>
  </g>
</svg>
