<svg id="ab3f55fa-3c1c-42a8-b507-0650c00751df" data-name="Layer 1" xmlns="http://www.w3.org/2000/svg" xmlns:xlink="http://www.w3.org/1999/xlink" width="262" height="180" viewBox="0 0 262 180"><defs><style>.a171523a-665e-488d-bdd3-2854d2d6652d{fill:none;}.ac6d82cb-45c3-4c1e-83af-4ddcfde0f4e0{clip-path:url(#ef222aca-6b37-44e2-bf30-8161f4381582);}.eda36fcd-cac2-49b9-9423-5da1f8e09f3b{fill:#03b9e4;}.bfcf63a6-8fe9-46f4-b823-f01333bcf635{fill:#0678ab;}.b6876865-1a4a-42b9-8dbf-d1b0a7e9c115{fill:#e00;}</style><clipPath id="ef222aca-6b37-44e2-bf30-8161f4381582"><rect class="a171523a-665e-488d-bdd3-2854d2d6652d" x="-877" y="-442" width="1140" height="390"/></clipPath></defs><title>BrandStandards-Logo-Cobrand_Logos-ASSETS</title><g class="ac6d82cb-45c3-4c1e-83af-4ddcfde0f4e0"><image width="3124" height="1388" transform="translate(-877 -442) scale(0.36)" xlink:href="BrandStandards-Logo-Cobrand_Logos-ASSETS1.png"/></g><path d="M58.1,94.74a.4.4,0,0,1,.39-.39h145a.4.4,0,0,1,0,.79h-145a.4.4,0,0,1-.39-.4"/><path class="eda36fcd-cac2-49b9-9423-5da1f8e09f3b" d="M81.56,112.75c4.5,4.5,3.83,12.46-1.49,17.78s-13.28,6-17.77,1.49-3.83-12.45,1.49-17.77,13.28-6,17.77-1.5"/><polygon points="93.79 121.54 91.53 116.23 93.95 116.23 95.35 119.53 97.94 116.23 100.58 116.23 96.29 121.73 98.73 127.39 96.31 127.39 94.73 123.74 91.89 127.39 89.25 127.39 93.79 121.54"/><polygon points="103.77 122.9 101.02 116.23 103.28 116.23 105.13 120.79 108.57 116.23 111.03 116.23 105.94 122.95 105.16 127.39 102.98 127.39 103.77 122.9"/><polygon points="110.25 125.75 116.99 118.27 111.91 118.27 112.26 116.23 120.26 116.23 119.98 117.88 113.18 125.35 118.67 125.35 118.3 127.39 109.96 127.39 110.25 125.75"/><path d="M124.46,123c0-3.53,2.06-6.91,5.53-6.91a3.26,3.26,0,0,1,3.16,2l-1.16.59a2.28,2.28,0,0,0-2.13-1.29c-2.61,0-4,3-4,5.5,0,1.72.72,3.47,2.49,3.47a3,3,0,0,0,2.55-1.41l1.15.54a4.32,4.32,0,0,1-3.8,2.17c-2.63,0-3.79-2.3-3.79-4.64"/><path d="M133.64,124.21c0-2.49,1.45-5.16,4.18-5.16,2.06,0,3,1.62,3,3.35,0,2.51-1.42,5.19-4.14,5.19-2.09,0-3-1.52-3-3.38m5.78-1.71c0-1.15-.47-2.2-1.68-2.2-1.8,0-2.74,2-2.74,3.83,0,1.21.49,2.2,1.66,2.2,1.83,0,2.76-2,2.76-3.83"/><path d="M143.45,119.25h1.33l-.15.78a3,3,0,0,1,2.17-1,1.94,1.94,0,0,1,1.9,1.23,3.17,3.17,0,0,1,2.53-1.23,2.2,2.2,0,0,1,2.32,2.33,3.25,3.25,0,0,1-.07.67l-.94,5.35h-1.37l.89-5a4.72,4.72,0,0,0,.05-.64c0-1-.49-1.43-1.24-1.43a2.21,2.21,0,0,0-2,2.06l-.9,5h-1.37l.88-5a2.88,2.88,0,0,0,.06-.64c0-1-.49-1.43-1.26-1.43a2.23,2.23,0,0,0-2,2.06l-.89,5H142Z"/><path d="M156.59,126.6l-.62,3.49-1.43.54,2-11.38h1.34l-.12.71a3,3,0,0,1,2.2-.91c1.56,0,2.61,1.33,2.61,3.39,0,3.25-1.9,5.15-3.87,5.15a2.5,2.5,0,0,1-2.11-1m4.59-4c0-1.37-.52-2.28-1.61-2.28a2.49,2.49,0,0,0-2.07,1.13l-.67,3.8a2,2,0,0,0,1.79,1.1c1.54,0,2.56-1.55,2.56-3.75"/><path d="M168.42,126.73a3.46,3.46,0,0,1-2.29.86,2.23,2.23,0,0,1-2.39-2.36c0-2.14,1.67-3.08,3.41-3.08a3.5,3.5,0,0,1,2,.57l.11-.62a3.28,3.28,0,0,0,.08-.64,1.14,1.14,0,0,0-1.29-1.22,5.25,5.25,0,0,0-2.59.86l-.17-1.14a5.79,5.79,0,0,1,2.9-.91,2.2,2.2,0,0,1,2.44,2.25,5.36,5.36,0,0,1-.08.82l-.93,5.27h-1.29Zm.26-1.39.24-1.42a3.1,3.1,0,0,0-1.79-.61c-1.08,0-2.1.53-2.1,1.79a1.26,1.26,0,0,0,1.39,1.31,3.39,3.39,0,0,0,2.26-1.07"/><path d="M173.48,119.25h1.34l-.14.87a2.78,2.78,0,0,1,2.16-1.07c1.47,0,2.3.9,2.3,2.56a6.79,6.79,0,0,1-.11,1.24l-.81,4.55h-1.34l.84-4.82a4.26,4.26,0,0,0,.08-.8c0-1-.48-1.48-1.34-1.48a2.39,2.39,0,0,0-2.21,2.21l-.87,4.89h-1.33Z"/><path d="M182.78,127.16l-1.49-7.91h1.38l.92,5.61c0,.27.1.57.11.62a3.68,3.68,0,0,1,.32-.62l3-5.61h1.45l-6,11.24H181Z"/><path class="bfcf63a6-8fe9-46f4-b823-f01333bcf635" d="M65.59,126.81l10.19-11.16a.35.35,0,0,1,.6.29l-1.95,11.17a.35.35,0,0,1-.35.29H65.85a.35.35,0,0,1-.26-.59"/><g id="f6a8d12f-b5ce-4687-9ff3-0fae57adfd9d" data-name="Group 150"><g id="b0b7cda6-4cf1-4aa5-ae03-d860cf0da22d" data-name="Group 79"><path id="ac910e75-3a23-47e3-ab68-c14f845caeaa" data-name="Path 377" d="M91.51,66.2h7.86v1.4H93.11v3.2h4.11v1.39H93.11v3.29h6.33v1.39H91.51Z"/><path id="e5e8808a-dcf8-438e-a944-3a6144a87c54" data-name="Path 378" d="M100.9,69.12h1.52v.78a3.14,3.14,0,0,1,2.33-.93,2.89,2.89,0,0,1,3,2.74v0a1.31,1.31,0,0,1,0,.28v4.86h-1.52V72.25a1.81,1.81,0,0,0-1.64-2h-.28a2.22,2.22,0,0,0-1.92,1v5.56H100.9Z"/><path id="bd622991-be12-484f-a85a-7c58a0de423e" data-name="Path 379" d="M110.24,70.4h-1.65V69.12h1.65v-2l1.5-.36v2.34H114V70.4h-2.29v4.17c0,.79.32,1.08,1.15,1.08a3,3,0,0,0,1.11-.18v1.28a5.49,5.49,0,0,1-1.45.23c-1.51,0-2.31-.7-2.31-2.09Z"/><path id="fab2c840-49b6-4093-a2b7-5ede41a2b3ee" data-name="Path 380" d="M118.71,77a4,4,0,0,1-4.07-3.91h0V73a3.89,3.89,0,0,1,3.79-4h.1a3.83,3.83,0,0,1,3.74,3.93h0v.57h-6.12a2.6,2.6,0,0,0,2.62,2.23,3,3,0,0,0,2-.7l1,1A4.59,4.59,0,0,1,118.71,77Zm-2.55-4.66h4.61a2.32,2.32,0,0,0-4.61,0Z"/><path id="ea116a83-ab39-4ac8-8ce6-e25cf256e33b" data-name="Path 381" d="M123.72,69.12h1.52v1A2.45,2.45,0,0,1,127.38,69a2,2,0,0,1,.77.12v1.39a3.05,3.05,0,0,0-.9-.17,2.14,2.14,0,0,0-2,1.4v5.18h-1.52Z"/><path id="b629a3d0-2142-43a3-abd3-5b5e975b03cc" data-name="Path 382" d="M129.37,69.12h1.53v.74a3.57,3.57,0,0,1,2.38-.87,3.92,3.92,0,0,1,3.88,3.91V73a3.91,3.91,0,0,1-3.83,4h-.12a3.85,3.85,0,0,1-2.33-.76V80h-1.53Zm1.53,2.13v3.48a2.85,2.85,0,0,0,2.16.91,2.58,2.58,0,0,0,2.62-2.54V73a2.61,2.61,0,0,0-2.53-2.69h-.09A2.82,2.82,0,0,0,130.9,71.25Z"/><path id="beff71ae-1e43-4540-b9d4-359876dee71a" data-name="Path 383" d="M138.62,69.12h1.52v1A2.45,2.45,0,0,1,142.28,69a2.09,2.09,0,0,1,.78.12v1.39a3.11,3.11,0,0,0-.9-.17,2.14,2.14,0,0,0-2,1.4v5.18h-1.52Z"/><path id="bfdabbee-151f-45ce-8ad8-1883ccabe1bb" data-name="Path 384" d="M144.11,66.92A.93.93,0,0,1,145,66h0a.94.94,0,0,1,.16,1.88H145a.93.93,0,0,1-.93-.93Zm1.69,10h-1.52V69.12h1.52Z"/><path id="b84f187f-0651-4971-8fca-ef7896d49279" data-name="Path 385" d="M147.69,74.86a4,4,0,0,0,2.53,1c1.09,0,1.86-.48,1.86-1.16s-.4-.87-1.26-1l-1.39-.2c-1.53-.23-2.31-.94-2.31-2.15,0-1.39,1.22-2.35,3-2.35a5.37,5.37,0,0,1,3.12,1l-.81,1a4.36,4.36,0,0,0-2.43-.83c-.93,0-1.56.43-1.56,1s.37.84,1.28,1l1.39.2c1.54.23,2.35,1,2.35,2.16,0,1.39-1.39,2.43-3.24,2.43a5.16,5.16,0,0,1-3.36-1.11Z"/><path id="b053d04f-a5d6-4f57-8c65-9e2def601e95" data-name="Path 386" d="M158.47,77a4,4,0,0,1-4.06-3.91h0V73a3.89,3.89,0,0,1,3.78-4h.1A3.84,3.84,0,0,1,162,72.93h0v.57h-6.1a2.6,2.6,0,0,0,2.62,2.23,3,3,0,0,0,2-.7l1,1A4.58,4.58,0,0,1,158.47,77Zm-2.53-4.66h4.6a2.31,2.31,0,0,0-4.6,0Z"/><path id="aafb5cc2-c72d-4948-a562-32bb16fc83ce" data-name="Path 387" d="M166.85,66.2h1.6v9.25h6.14v1.4h-7.74Z"/><path id="e6622850-942c-4024-bda0-61611e861a51" data-name="Path 388" d="M175.86,66.92a.93.93,0,0,1,.92-.93h0a.94.94,0,0,1,0,1.88.92.92,0,0,1-.93-.93h0Zm1.69,10H176V69.12h1.52Z"/><path id="b0fff7c0-4eaa-4454-8620-8ed4b2e6484e" data-name="Path 389" d="M179.35,69.12h1.52v.78A3.14,3.14,0,0,1,183.2,69a2.9,2.9,0,0,1,3,2.74V76.9h-1.53V72.25a1.81,1.81,0,0,0-1.65-2h-.28a2.22,2.22,0,0,0-1.92,1v5.57h-1.52Z"/><path id="ae8a83b7-0f8a-4b0a-8111-124ff190c2f6" data-name="Path 390" d="M189.41,73.72a1.81,1.81,0,0,0,1.61,2h.31a2.18,2.18,0,0,0,1.9-1V69.15h1.53v7.72h-1.53v-.78a3.18,3.18,0,0,1-2.33.94,2.91,2.91,0,0,1-3-2.78h0V69.09h1.52Z"/><path id="aad710a5-6685-4efa-8649-7065da850c16" data-name="Path 391" d="M198.7,72.9l-2.89-3.78h1.78l2,2.66,2-2.66h1.72l-2.85,3.76,3.06,4H201.7L199.57,74l-2.17,2.86h-1.72Z"/></g><g id="fadbd7c7-3da2-4e2e-ac14-52501786d3c7" data-name="Group 81"><g id="b7877831-7058-45c7-b17e-a9eac4485262" data-name="Group 80"><path id="a09c695e-d9c6-4a35-950b-360058193fae" data-name="Path 392" class="b6876865-1a4a-42b9-8dbf-d1b0a7e9c115" d="M76.9,57.16c1.84,0,4.49-.38,4.49-2.56a2.89,2.89,0,0,0,0-.5l-1.1-4.74c-.25-1-.47-1.52-2.31-2.43A22,22,0,0,0,72.51,45c-.91,0-1.1,1.11-2.08,1.11s-1.71-.82-2.63-.82-1.45.59-1.89,1.82c0,0-1.23,3.48-1.39,4a.71.71,0,0,0,0,.29c0,1.35,5.31,5.78,12.44,5.78m4.77-1.67A7.21,7.21,0,0,1,81.92,57c0,2.08-2.3,3.19-5.33,3.19-6.86,0-12.86-4-12.86-6.67A2.81,2.81,0,0,1,64,52.4c-2.46.13-5.65.57-5.65,3.38,0,4.61,10.93,10.29,19.58,10.29,6.64,0,8.31-3,8.31-5.37,0-1.86-1.61-4-4.52-5.24"/><path id="fc8e6f38-5650-44f7-b89e-0003c111621c" data-name="Path 393" d="M81.67,55.49A6.47,6.47,0,0,1,81.92,57c0,2-2.3,3.18-5.33,3.18-6.86,0-12.85-4-12.85-6.66A2.62,2.62,0,0,1,64,52.4l.54-1.33a.92.92,0,0,0,0,.29c0,1.35,5.32,5.78,12.44,5.78,1.84,0,4.49-.39,4.49-2.56a2.74,2.74,0,0,0,0-.5Z"/></g><path id="b1bc8f27-fdeb-4cf7-8248-3a717948edaa" data-name="Path 394" d="M143.17,58.53c0,1.74,1.05,2.59,3,2.59a7.86,7.86,0,0,0,1.74-.25v-2a3.55,3.55,0,0,1-1.12.18c-.78,0-1.08-.25-1.08-1v-3.1h2.28V52.85h-2.28V50.22l-2.49.55v2.08h-1.65v2.09h1.65Zm-7.76,0c0-.54.54-.8,1.36-.8a6.1,6.1,0,0,1,1.47.18V59a3,3,0,0,1-1.56.39c-.8,0-1.27-.31-1.27-.82m.77,2.58a3.8,3.8,0,0,0,2.24-.64V61h2.47V55.79c0-2-1.34-3.08-3.57-3.08a9,9,0,0,0-3.81.89l.87,1.83a6.54,6.54,0,0,1,2.46-.64c1,0,1.56.4,1.56,1.21v.41a7.28,7.28,0,0,0-1.85-.24c-2.09,0-3.36.88-3.36,2.45s1.14,2.53,3,2.53M122.6,61h2.65V56.79h4.45V61h2.64V50.22H129.7V54.4h-4.45V50.22H122.6ZM112.53,57a2.09,2.09,0,0,1,2.09-2.09h.07a2.6,2.6,0,0,1,1.73.63v2.85a2.41,2.41,0,0,1-1.73.65,2.1,2.1,0,0,1-2.14-2v0m3.9,4.08h2.47V49.69l-2.5.53v3.07a4.26,4.26,0,0,0-6.32,3.55V57a4.17,4.17,0,0,0,4.11,4.17h.07a3.68,3.68,0,0,0,2.19-.69Zm-11.31-6.26a1.8,1.8,0,0,1,1.71,1.29h-3.41a1.71,1.71,0,0,1,1.7-1.29M100.91,57a4.29,4.29,0,0,0,4.33,4.23h.11a4.87,4.87,0,0,0,3.4-1.23l-1.64-1.46a2.2,2.2,0,0,1-1.63.61,2.08,2.08,0,0,1-2-1.29h5.8v-.62a4.18,4.18,0,1,0-8.36-.35V57m-4.3-4.45A1.24,1.24,0,0,1,98,53.56v.15a1.24,1.24,0,0,1-1.25,1.23H94V52.5ZM91.35,61H94V57.09h2L98,61H101L98.62,56.7a3.25,3.25,0,0,0,2-3,3.49,3.49,0,0,0-3.8-3.43h-5.5Z"/></g></g></svg>