<svg id="Layer_1" data-name="Layer 1" xmlns="http://www.w3.org/2000/svg" xmlns:xlink="http://www.w3.org/1999/xlink" viewBox="0 0 555 310"><defs><style>.cls-1{fill:none;}.cls-2{clip-path:url(#clip-path);}.cls-3{fill:#ed1c24;}.cls-4{clip-path:url(#clip-path-2);}.cls-5{fill:#03b9e4;}.cls-6{fill:#0678ab;}</style><clipPath id="clip-path"><rect class="cls-1" x="165.14" y="84.78" width="224.72" height="140.44"/></clipPath><clipPath id="clip-path-2"><rect class="cls-1" x="165.16" y="84.78" width="224.7" height="140.44"/></clipPath></defs><title>Brand_Standards-Red_Hat-Lockup_B-RGB</title><g class="cls-2"><path d="M165.75,155a.68.68,0,0,1,.68-.68H388.58a.68.68,0,1,1,0,1.36H166.43a.67.67,0,0,1-.68-.68"/><path class="cls-3" d="M223.34,110.49c3.78,0,9.26-.79,9.26-5.29a4.44,4.44,0,0,0-.09-1l-2.26-9.79c-.52-2.15-1-3.13-4.76-5-2.93-1.5-9.32-4-11.21-4s-2.29,2.28-4.37,2.28S206.39,86,204.5,86s-3,1.24-3.92,3.78c0,0-2.54,7.17-2.87,8.22a2,2,0,0,0-.06.58c0,2.79,11,11.94,25.69,11.94m9.85-3.46a15.14,15.14,0,0,1,.52,3.07c0,4.23-4.76,6.58-11,6.58-14.15,0-26.54-8.28-26.54-13.76a5.35,5.35,0,0,1,.46-2.21c-5.09.26-11.68,1.17-11.68,7,0,9.52,22.56,21.26,40.43,21.26,13.69,0,17.15-6.19,17.15-11.08,0-3.85-3.33-8.22-9.32-10.83"/><path d="M233.19,107a15.14,15.14,0,0,1,.52,3.07c0,4.23-4.76,6.58-11,6.58-14.15,0-26.54-8.28-26.54-13.76a5.35,5.35,0,0,1,.46-2.21l1.1-2.74a2,2,0,0,0-.06.58c0,2.79,11,11.94,25.69,11.94,3.78,0,9.26-.79,9.26-5.29a4.44,4.44,0,0,0-.09-1Z"/></g><g class="cls-4"><path d="M360.14,113.3c0,3.6,2.16,5.35,6.11,5.35a16.1,16.1,0,0,0,3.59-.51V114a7.56,7.56,0,0,1-2.32.35c-1.62,0-2.23-.51-2.23-2v-6.4H370V101.6h-4.71V96.16l-5.15,1.11v4.33h-3.4v4.29h3.4Zm-16,.1c0-1.11,1.11-1.66,2.8-1.66a12.52,12.52,0,0,1,3.05.39v2.16a6.5,6.5,0,0,1-3.21.79c-1.66,0-2.64-.63-2.64-1.68m1.57,5.31a7.87,7.87,0,0,0,4.64-1.3v1h5.09V107.64c0-4.1-2.77-6.36-7.38-6.36a18.7,18.7,0,0,0-7.85,1.84l1.84,3.79a13.72,13.72,0,0,1,5.09-1.34c2.13,0,3.21.83,3.21,2.52v.82a14.79,14.79,0,0,0-3.81-.47c-4.33,0-6.94,1.81-6.94,5,0,3,2.36,5.22,6.11,5.22m-28-.29h5.47v-8.71h9.16v8.71h5.47V96.16h-5.47v8.55h-9.16V96.16h-5.47ZM296.89,110a4.26,4.26,0,0,1,4.42-4.26,5.19,5.19,0,0,1,3.56,1.31v5.88a5,5,0,0,1-3.56,1.34,4.28,4.28,0,0,1-4.42-4.27m8.05,8.43H310V95l-5.16,1.12v6.33a8.67,8.67,0,1,0-4.45,16.16,7.59,7.59,0,0,0,4.52-1.47Zm-23.35-12.91a3.72,3.72,0,0,1,3.53,2.67h-7a3.51,3.51,0,0,1,3.5-2.67M272.9,110a8.84,8.84,0,0,0,9.16,8.71,10.08,10.08,0,0,0,7-2.54l-3.4-3a4.57,4.57,0,0,1-3.37,1.27,4.36,4.36,0,0,1-4.14-2.67h12V110.5c0-5.34-3.6-9.19-8.5-9.19A8.65,8.65,0,0,0,272.9,110m-8.87-9.2a2.53,2.53,0,1,1,0,5h-5.41v-5Zm-10.88,17.59h5.47v-8.11h4.17l4.2,8.11h6.1l-4.9-8.9a6.73,6.73,0,0,0,4.2-6.27c0-4-3.15-7.09-7.85-7.09H253.15Z"/><path class="cls-5" d="M204.24,186.12c7.78,7.78,6.63,21.55-2.58,30.76s-23,10.36-30.76,2.58-6.62-21.55,2.59-30.76,23-10.36,30.75-2.58"/></g><g class="cls-2"><polygon points="225.4 201.33 221.49 192.14 225.68 192.14 228.11 197.85 232.58 192.14 237.16 192.14 229.73 201.66 233.96 211.46 229.76 211.46 227.03 205.14 222.12 211.46 217.54 211.46 225.4 201.33"/><polygon points="242.68 203.68 237.9 192.14 241.82 192.14 245.02 200.03 250.98 192.14 255.23 192.14 246.43 203.76 245.08 211.46 241.3 211.46 242.68 203.68"/><polygon points="253.88 208.61 265.56 195.67 256.75 195.67 257.36 192.14 271.21 192.14 270.72 194.98 258.96 207.92 268.45 207.92 267.82 211.46 253.39 211.46 253.88 208.61"/><path d="M278.47,203.76c0-6.1,3.56-11.95,9.58-11.95a5.64,5.64,0,0,1,5.46,3.42l-2,1a3.93,3.93,0,0,0-3.67-2.23c-4.53,0-6.93,5.16-6.93,9.52,0,3,1.24,6,4.3,6a5.28,5.28,0,0,0,4.42-2.45l2,.94a7.49,7.49,0,0,1-6.57,3.75c-4.55,0-6.57-4-6.57-8"/><path d="M294.37,205.94c0-4.31,2.51-8.92,7.23-8.92,3.56,0,5.1,2.79,5.1,5.8,0,4.33-2.45,9-7.17,9-3.62,0-5.16-2.62-5.16-5.85m10-2.95c0-2-.8-3.81-2.9-3.81-3.12,0-4.75,3.53-4.75,6.62,0,2.1.86,3.81,2.87,3.81,3.18,0,4.78-3.51,4.78-6.62"/><path d="M311.34,197.36h2.29l-.25,1.35a5.18,5.18,0,0,1,3.75-1.69,3.35,3.35,0,0,1,3.29,2.13,5.51,5.51,0,0,1,4.39-2.13,3.8,3.8,0,0,1,4,4,6,6,0,0,1-.11,1.16l-1.63,9.25h-2.38l1.55-8.7a8.38,8.38,0,0,0,.08-1.1c0-1.68-.85-2.48-2.15-2.48-1.52,0-3.09,1.27-3.48,3.56l-1.54,8.72h-2.38l1.52-8.7a4.82,4.82,0,0,0,.11-1.1c0-1.68-.85-2.48-2.18-2.48-1.51,0-3.11,1.27-3.5,3.56l-1.55,8.72h-2.31Z"/><path d="M334.08,210.08l-1.08,6-2.48.94,3.47-19.7h2.32l-.22,1.24A5.17,5.17,0,0,1,339.9,197c2.71,0,4.53,2.3,4.53,5.86,0,5.62-3.29,8.91-6.71,8.91a4.28,4.28,0,0,1-3.64-1.71m7.95-7c0-2.37-.91-3.94-2.79-3.94a4.31,4.31,0,0,0-3.59,2l-1.16,6.57a3.38,3.38,0,0,0,3.09,1.9c2.68,0,4.45-2.68,4.45-6.49"/><path d="M354.55,210.3a6,6,0,0,1-4,1.49,3.85,3.85,0,0,1-4.14-4.08c0-3.7,2.9-5.33,5.91-5.33a6,6,0,0,1,3.42,1l.19-1.08a6.23,6.23,0,0,0,.14-1.1,2,2,0,0,0-2.23-2.12,9.05,9.05,0,0,0-4.48,1.49l-.3-2a9.85,9.85,0,0,1,5-1.58c1.82,0,4.23.86,4.23,3.9a10,10,0,0,1-.14,1.4l-1.6,9.14h-2.24Zm.45-2.4.41-2.46a5.37,5.37,0,0,0-3.09-1.05c-1.88,0-3.64.91-3.64,3.09a2.17,2.17,0,0,0,2.4,2.27A5.83,5.83,0,0,0,355,207.9"/><path d="M363.3,197.36h2.32l-.25,1.51a4.83,4.83,0,0,1,3.76-1.85c2.53,0,4,1.55,4,4.42a11.52,11.52,0,0,1-.19,2.15l-1.41,7.87h-2.32l1.46-8.34a6.94,6.94,0,0,0,.14-1.38c0-1.65-.83-2.56-2.32-2.56-1.79,0-3.45,1.46-3.83,3.83l-1.49,8.45h-2.32Z"/><path d="M379.39,211l-2.57-13.68h2.38l1.6,9.71c.08.47.16,1,.19,1.08a6.78,6.78,0,0,1,.55-1.08l5.14-9.71h2.51l-10.38,19.45h-2.45Z"/><path class="cls-6" d="M176.6,210.45l17.63-19.32a.6.6,0,0,1,1,.51L191.89,211a.6.6,0,0,1-.6.5H177.05a.6.6,0,0,1-.45-1"/></g></svg>