<svg id="eaf64aef-97b3-4b17-837c-92cf03243101" data-name="Layer 1" xmlns="http://www.w3.org/2000/svg" viewBox="0 0 262 180"><defs><style>.bada954a-8d22-4ebd-bd92-c3780417453c{fill:#e00;}</style></defs><path d="M62.1644,69.5886v4.8833h4.2573c1.7113,0,2.8381-.9808,2.8381-2.4416,0-1.4817-1.1268-2.4417-2.8381-2.4417Zm-2.1913-1.92h6.6363c2.901,0,4.8625,1.7526,4.8625,4.32a4.1262,4.1262,0,0,1-3.0052,4.0068l3.2557,6.2816H69.3015l-3.0258-5.9892H62.1644v5.9892H59.9731V67.6688Z"/><path d="M74.456,76.0788h6.3023a3.1684,3.1684,0,0,0-6.3023,0Zm3.4851,6.386a5.4662,5.4662,0,0,1-5.5722-5.51,5.3376,5.3376,0,0,1,5.3218-5.4675,5.26,5.26,0,0,1,5.1336,5.551v.6054H74.4351a3.5826,3.5826,0,0,0,3.5893,3.0466,4.1311,4.1311,0,0,0,2.6921-.9388l1.3357,1.3147a6.3356,6.3356,0,0,1-4.1111,1.3982Z"/><path d="M90.0237,80.6281a3.8286,3.8286,0,0,0,2.9427-1.273V74.5345a3.8844,3.8844,0,0,0-2.9427-1.2521,3.6734,3.6734,0,0,0,0,7.3457Zm2.9636.6472a5.0185,5.0185,0,0,1-3.2558,1.1686,5.4781,5.4781,0,1,1,3.2349-9.9128V67.6688l2.0868-.4592V82.2769H92.9873V81.2753Z"/><polygon points="102.127 67.669 104.319 67.669 104.319 73.929 112.082 73.929 112.082 67.669 114.273 67.669 114.273 82.277 112.082 82.277 112.082 75.912 104.319 75.912 104.319 82.277 102.127 82.277 102.127 67.669 102.127 67.669"/><path d="M120.6378,80.92a4.0836,4.0836,0,0,0,2.8172-1.0016V78.0821a5.52,5.52,0,0,0-2.734-.6469c-1.5234,0-2.4623.6889-2.4623,1.7532,0,1.0226.96,1.7318,2.3791,1.7318Zm-4.3827-1.69c0-2.0036,1.6278-3.2348,4.2992-3.2348a7.4956,7.4956,0,0,1,2.9007.5846V75.4527c0-1.5025-.8973-2.2538-2.5877-2.2538a7.5521,7.5521,0,0,0-3.2975.8973l-.7721-1.5651a9.9422,9.9422,0,0,1,4.3618-1.0852c2.7546,0,4.3406,1.3565,4.3406,3.7984v7.0326H123.455v-.9182a5.039,5.039,0,0,1-3.2972,1.1061c-2.3167,0-3.9027-1.315-3.9027-3.2347Z"/><path d="M128.86,73.4076h-2.2538v-1.753H128.86V68.9415l2.066-.5006v3.2137h3.1306v1.753h-3.1306v5.76c0,1.0852.4385,1.4814,1.5651,1.4814a4.0947,4.0947,0,0,0,1.5237-.25v1.7532a6.9083,6.9083,0,0,1-1.9825.3131c-2.066,0-3.1723-.9811-3.1723-2.8175v-6.24Z"/><polygon points="59.806 89.581 62.832 89.581 62.832 104.189 59.806 104.189 59.806 89.581 59.806 89.581"/><path d="M65.2944,93.3161h2.859v.8556A4.6676,4.6676,0,0,1,71.2,93.1074a4.1251,4.1251,0,0,1,4.2991,4.32v6.7614H72.64V97.8446a2.12,2.12,0,0,0-2.254-2.2747,2.6043,2.6043,0,0,0-2.2328,1.0852v7.5338h-2.859V93.3161Z"/><path d="M77.6693,93.3161h2.859v.8556a4.6674,4.6674,0,0,1,3.0467-1.0643,4.1252,4.1252,0,0,1,4.299,4.32v6.7614H85.015V97.8446A2.12,2.12,0,0,0,82.7611,95.57a2.6041,2.6041,0,0,0-2.2328,1.0852v7.5338h-2.859V93.3161Z"/><path d="M98.3494,98.7631a3.0084,3.0084,0,1,0-3.0048,3.1511,3.046,3.046,0,0,0,3.0048-3.1511Zm-3.0048-5.6557a5.6471,5.6471,0,1,1-5.8017,5.6557,5.667,5.667,0,0,1,5.8017-5.6557Z"/><polygon points="101.355 93.316 104.464 93.316 107.448 100.558 110.412 93.316 113.458 93.316 108.784 104.189 106.029 104.189 101.355 93.316 101.355 93.316"/><path d="M118.78,102.3313a4.1173,4.1173,0,0,0,2.4-.6884v-1.6277a6.3118,6.3118,0,0,0-2.2958-.3968c-1.3147,0-2.0868.5217-2.0868,1.3565s.7721,1.3564,1.9827,1.3564Zm-4.7165-1.2938c0-2.0658,1.6695-3.2973,4.4661-3.2973a8.7941,8.7941,0,0,1,2.65.4174v-.7721c0-1.2521-.7721-1.8991-2.2958-1.8991a8.4281,8.4281,0,0,0-3.3181.8974l-1.0434-2.1077a11.3381,11.3381,0,0,1,4.8418-1.1687c2.9424,0,4.6327,1.4608,4.6327,4.0276v7.0539H121.18v-.7513a5.1693,5.1693,0,0,1-3.1511.9388c-2.3376,0-3.9653-1.3564-3.9653-3.3389Z"/><path d="M127.2314,95.716h-2.2329v-2.4h2.2329V90.54l2.859-.6466v3.4224h3.0888v2.4H130.09v4.8209c0,1.0223.3968,1.3982,1.5028,1.3982a4.3964,4.3964,0,0,0,1.5234-.2505v2.3373a8.8729,8.8729,0,0,1-2.2123.3337c-2.4208,0-3.6729-1.1058-3.6729-3.2344V95.716Z"/><path d="M137.457,104.1889h-2.859V93.3161h2.859v10.8728Zm-3.0677-13.7944a1.6278,1.6278,0,1,1,1.6277,1.6278,1.63,1.63,0,0,1-1.6277-1.6278Z"/><path d="M147.9956,98.7631a3.0086,3.0086,0,1,0-3.0054,3.1511,3.0462,3.0462,0,0,0,3.0054-3.1511ZM144.99,93.1074a5.6471,5.6471,0,1,1-5.8014,5.6557,5.667,5.667,0,0,1,5.8014-5.6557Z"/><path d="M152.5446,93.3161h2.859v.8556a4.6673,4.6673,0,0,1,3.0468-1.0643,4.125,4.125,0,0,1,4.2989,4.32v6.7614H159.89V97.8446a2.12,2.12,0,0,0-2.2538-2.2747,2.6043,2.6043,0,0,0-2.2329,1.0852v7.5338h-2.859V93.3161Z"/><path d="M68.1748,119.84l-2.0662-5.3841L64.0009,119.84Zm-3.7564-8.3474h3.5058l5.9268,14.6082H70.5748l-1.4819-3.84h-6.031l-1.5027,3.84H58.408l6.01-14.6082Z"/><polygon points="75.938 126.101 72.953 115.228 75.666 115.228 77.461 122.261 79.631 115.228 82.031 115.228 84.181 122.261 85.975 115.228 88.647 115.228 85.642 126.101 82.908 126.101 80.8 119.151 78.692 126.101 75.938 126.101 75.938 126.101"/><path d="M94.01,124.2432a4.1161,4.1161,0,0,0,2.4-.6884v-1.6277a6.3106,6.3106,0,0,0-2.2955-.3968c-1.3147,0-2.0868.5217-2.0868,1.3565s.7721,1.3564,1.9825,1.3564Zm-4.7163-1.2938c0-2.0658,1.6695-3.2972,4.4658-3.2972a8.791,8.791,0,0,1,2.65.4173v-.7724c0-1.2518-.7721-1.8988-2.2955-1.8988a8.4221,8.4221,0,0,0-3.3183.8974l-1.0435-2.1077a11.34,11.34,0,0,1,4.8418-1.1689c2.9424,0,4.633,1.461,4.633,4.0279v7.0538H96.4094V125.35a5.1687,5.1687,0,0,1-3.1511.9388c-2.3373,0-3.965-1.3564-3.965-3.3389Z"/><path d="M101.3967,115.228h2.859v1.1893a3.46,3.46,0,0,1,2.9008-1.44,2.4621,2.4621,0,0,1,1.19.25v2.504a3.6537,3.6537,0,0,0-1.461-.2922,2.8782,2.8782,0,0,0-2.6295,1.628v7.033h-2.859V115.228Z"/><path d="M114.8572,123.8052a3.4879,3.4879,0,0,0,2.5877-1.0437v-4.2363a3.5893,3.5893,0,0,0-2.5877-1.0225,3.1513,3.1513,0,1,0,0,6.3025Zm2.6294,1.398a4.93,4.93,0,0,1-3.0885,1.0434,5.5826,5.5826,0,0,1,.0832-11.1649,5.402,5.402,0,0,1,2.9636.8559v-4.445l2.8592-.6263v15.2345h-2.8175v-.8976Z"/><path d="M123.0582,122.9076a6.3308,6.3308,0,0,0,3.5268,1.2313c1.2732,0,2.108-.4591,2.108-1.1475,0-.5637-.4177-.8768-1.3565-1.0229l-2.0871-.313c-2.1494-.3339-3.2972-1.3982-3.2972-3.1514,0-2.1077,1.753-3.4433,4.5285-3.4433a8.0221,8.0221,0,0,1,4.4658,1.3565l-1.3773,1.8364a6.42,6.42,0,0,0-3.36-1.0434c-1.0435,0-1.7112.4176-1.7112,1.0645,0,.5843.4173.8765,1.4816,1.0223l2.0869.3133c2.1288.313,3.3181,1.4191,3.3181,3.11,0,2.0448-2.0243,3.5891-4.7581,3.5891a8.0132,8.0132,0,0,1-4.9875-1.5023l1.419-1.8993Z"/><path d="M136.664,124.0974l5.76-5.1548c1.3147-1.2106,1.8155-2.0036,1.8155-2.9842a2.3593,2.3593,0,0,0-2.6294-2.2123,5.52,5.52,0,0,0-3.9233,1.795l-1.6069-1.92a8.2647,8.2647,0,0,1,5.6139-2.3166c3.1512,0,5.3215,1.8158,5.3215,4.4661,0,1.6692-.73,2.9216-2.7964,4.758l-3.5685,3.172h6.5527v2.4H136.664v-2.0034Z"/><path d="M158.6179,118.7754c0-3.0883-1.4191-5.0293-3.652-5.0293s-3.6311,1.941-3.6311,5.0293c0,3.13,1.3979,5.0507,3.6311,5.0507,2.2538,0,3.652-1.92,3.652-5.0507Zm-10.08,0c0-4.4867,2.6086-7.5124,6.4278-7.5124,3.84,0,6.4275,3.0257,6.4275,7.5124,0,4.5287-2.5668,7.5338-6.4275,7.5338-3.84,0-6.4278-3.0051-6.4278-7.5338Z"/><path d="M162.4577,124.0974l5.76-5.1548c1.3147-1.2106,1.8155-2.0036,1.8155-2.9842a2.3593,2.3593,0,0,0-2.6294-2.2123,5.52,5.52,0,0,0-3.9233,1.795l-1.6068-1.92a8.2642,8.2642,0,0,1,5.6136-2.3166c3.1514,0,5.3217,1.8158,5.3217,4.4661,0,1.6692-.73,2.9216-2.7964,4.758l-3.5687,3.172h6.5529v2.4H162.4577v-2.0034Z"/><path d="M184.4113,118.7754c0-3.0883-1.4188-5.0293-3.652-5.0293s-3.6311,1.941-3.6311,5.0293c0,3.13,1.3982,5.0507,3.6311,5.0507,2.2541,0,3.652-1.92,3.652-5.0507Zm-10.08,0c0-4.4867,2.6086-7.5124,6.4275-7.5124,3.84,0,6.4278,3.0257,6.4278,7.5124,0,4.5287-2.5668,7.5338-6.4278,7.5338-3.84,0-6.4275-3.0051-6.4275-7.5338Z"/><path class="bada954a-8d22-4ebd-bd92-c3780417453c" d="M165.0344,94.6314a1.3044,1.3044,0,0,1-.9221-2.2265l15.7087-15.709L160.375,57.25l-19.446,19.446,11.8653,11.8656A1.3042,1.3042,0,0,1,150.95,90.406L138.1623,77.6181a1.3034,1.3034,0,0,1,0-1.8443l21.2906-21.2906a1.3036,1.3036,0,0,1,1.8442,0l21.2906,21.2906a1.3039,1.3039,0,0,1,0,1.8443L165.9565,94.2492a1.2988,1.2988,0,0,1-.9221.3822Z"/><path class="bada954a-8d22-4ebd-bd92-c3780417453c" d="M178.9863,91.5076l7.5567,7.557,7.557-7.557-7.557-7.5567-7.5567,7.5567Zm7.5567,10.7058a1.2993,1.2993,0,0,1-.9221-.3822L176.2194,92.43a1.3036,1.3036,0,0,1,0-1.8442l9.4015-9.4015a1.3037,1.3037,0,0,1,1.8443,0l9.4015,9.4015a1.3033,1.3033,0,0,1,0,1.8442l-9.4015,9.4015a1.2987,1.2987,0,0,1-.9222.3822Z"/><path class="bada954a-8d22-4ebd-bd92-c3780417453c" d="M173.36,56.3815l13.5418,13.5418L200.443,56.3815,186.9014,42.84,173.36,56.3815Zm13.5418,16.6906a1.3037,1.3037,0,0,1-.9221-.3819L170.593,57.3037a1.3037,1.3037,0,0,1,0-1.8443l15.3863-15.3865a1.3038,1.3038,0,0,1,1.8443,0L203.21,55.4594a1.3037,1.3037,0,0,1,0,1.8443L187.8236,72.69a1.3035,1.3035,0,0,1-.9222.3819Z"/></svg>