<svg id="b290e3be-2394-4060-a6d4-be5657044ed6" data-name="Layer 1" xmlns="http://www.w3.org/2000/svg" viewBox="0 0 262 180"><defs><style>.a0dd4aee-e955-4b39-bc35-a1f3fae4f088{fill:#e00;}</style></defs><path d="M73.7954,66.1969h6.474c2.9566,0,4.92,1.7265,4.92,4.3378a4.1393,4.1393,0,0,1-3.2154,4.057l3.388,6.7115H83.5281L80.291,74.8074H75.4571v6.4958H73.7954Zm6.3662,7.2078c2.0285,0,3.3665-1.1222,3.3665-2.87,0-1.7265-1.338-2.8487-3.3665-2.8487H75.4571v5.7187Z"/><path d="M86.2683,75.8864a5.4105,5.4105,0,0,1,5.33-5.5675,5.3059,5.3059,0,0,1,5.1145,5.5675v.4966H87.8435a4.0623,4.0623,0,0,0,4.0572,3.7116,4.7119,4.7119,0,0,0,2.978-.9926l.9927,1.0574a6.3991,6.3991,0,0,1-4.0355,1.3379A5.51,5.51,0,0,1,86.2683,75.8864Zm8.8478-.7768a3.6222,3.6222,0,0,0-7.2294,0Z"/><path d="M98.4391,75.8864a5.4609,5.4609,0,0,1,8.9125-4.3375v-5.352l1.5971-.3667v15.473h-1.5754V80.1594a5.024,5.024,0,0,1-3.4961,1.3163A5.45,5.45,0,0,1,98.4391,75.8864Zm8.9125,2.6761v-5.352a4.2733,4.2733,0,0,0-3.3233-1.4891,3.9972,3.9972,0,0,0-4.0139,4.1434,4.0527,4.0527,0,0,0,4.0139,4.2082A4.1913,4.1913,0,0,0,107.3516,78.5625Z"/><path d="M116.609,66.1969h1.6617v6.7547h8.7831V66.1969h1.6617V81.3032h-1.6617V74.4407h-8.7831v6.8625H116.609Z"/><path d="M130.9378,78.2388c0-2.0286,1.6617-3.3018,4.3161-3.3018a7.0058,7.0058,0,0,1,3.1723.7337V74.2463c0-1.7262-.9927-2.611-2.87-2.611a7.1715,7.1715,0,0,0-3.3881.9494l-.6042-1.23a9.1847,9.1847,0,0,1,4.1434-1.079c2.7407,0,4.2729,1.338,4.2729,3.7549v7.2726h-1.5538V80.2458a5.15,5.15,0,0,1-3.496,1.2515C132.5564,81.4973,130.9378,80.181,130.9378,78.2388Zm4.2729,2.007a4.3084,4.3084,0,0,0,3.2155-1.2518V76.9654a5.2836,5.2836,0,0,0-3.1291-.863c-1.7265,0-2.8271.82-2.8271,2.0932C132.47,79.4042,133.5922,80.2458,135.2107,80.2458Z"/><path d="M143.67,78.9076V71.851h-2.3307V70.4915H143.67V67.7508l1.5754-.41v3.1508h3.2585V71.851h-3.2585v6.6467c0,1.1654.4748,1.6185,1.6617,1.6185a3.8568,3.8568,0,0,0,1.5754-.2805v1.4027a6.1341,6.1341,0,0,1-1.8992.2805C144.7057,81.5189,143.67,80.6125,143.67,78.9076Z"/><path d="M72.3711,101.3721l1.1006-1.1437a7.1036,7.1036,0,0,0,5.2871,2.5033c2.3739,0,4.0572-1.23,4.0572-2.978,0-1.5537-.9928-2.3092-3.4745-2.7191l-2.1795-.3453c-2.9134-.4747-4.2514-1.6833-4.2514-3.82,0-2.5033,2.1365-4.2082,5.3087-4.2082a9.9524,9.9524,0,0,1,5.9562,2.007l-.95,1.2948a8.3527,8.3527,0,0,0-5.0715-1.8775c-2.1579,0-3.6253,1.079-3.6253,2.6543,0,1.4027.8631,2.0934,3.0642,2.4388l2.1581.3451c3.3018.54,4.7261,1.7912,4.7261,4.1434,0,2.6545-2.3738,4.51-5.7836,4.51A8.526,8.526,0,0,1,72.3711,101.3721Z"/><path d="M86.1819,100.8975c0-2.0287,1.6616-3.3018,4.316-3.3018a7.0058,7.0058,0,0,1,3.1723.7336V96.905c0-1.7262-.9927-2.6111-2.87-2.6111a7.173,7.173,0,0,0-3.3882.9494l-.6042-1.23a9.185,9.185,0,0,1,4.1434-1.079c2.7407,0,4.2729,1.3379,4.2729,3.7549v7.2726H93.67v-1.0574a5.15,5.15,0,0,1-3.496,1.2515C87.8005,104.156,86.1819,102.84,86.1819,100.8975Zm4.2728,2.007a4.3086,4.3086,0,0,0,3.2155-1.2518V99.6241a5.2829,5.2829,0,0,0-3.1291-.863c-1.7265,0-2.827.82-2.827,2.0931C87.7141,102.0628,88.8362,102.9045,90.4547,102.9045Z"/><path d="M97.9,88.8556l1.597-.3667v15.473H97.9Z"/><path d="M101.7191,98.5451a5.4105,5.4105,0,0,1,5.33-5.5675,5.3058,5.3058,0,0,1,5.1145,5.5675v.4965h-8.87a4.0623,4.0623,0,0,0,4.0571,3.7117,4.71,4.71,0,0,0,2.978-.9926l.9927,1.0574a6.3989,6.3989,0,0,1-4.0355,1.3379A5.51,5.51,0,0,1,101.7191,98.5451Zm8.8479-.7769a3.6222,3.6222,0,0,0-7.2294,0Z"/><path d="M113.3933,102.4943l.9711-1.0358a5.1755,5.1755,0,0,0,3.5176,1.446c1.7264,0,2.9348-.7987,2.9348-1.9422,0-.95-.6257-1.4676-2.0069-1.6617l-1.8775-.259c-2.158-.3021-3.1938-1.2734-3.1938-2.9566,0-1.8127,1.6832-3.1506,4.057-3.1506a6.9109,6.9109,0,0,1,4.2513,1.4243l-.8415,1.079a6.0643,6.0643,0,0,0-3.4961-1.2086c-1.489,0-2.5033.7337-2.5033,1.7913,0,.971.5827,1.4457,2.0069,1.64l1.8776.2589c2.1579.3022,3.2369,1.2732,3.2369,2.9564,0,1.8775-1.899,3.3018-4.3807,3.3018A6.5771,6.5771,0,0,1,113.3933,102.4943Z"/><path d="M128.348,96.4087a7.7326,7.7326,0,0,1,7.79-7.79A8.1018,8.1018,0,0,1,142.0946,91.1l-1.1222,1.1438a6.5164,6.5164,0,0,0-4.8339-2.0932,6.26,6.26,0,0,0,0,12.5166,5.5572,5.5572,0,0,0,5.6756-5.1362h-5.4167V96.0634h7.1v.6691a7.2931,7.2931,0,0,1-7.3371,7.4667A7.7509,7.7509,0,0,1,128.348,96.4087Z"/><path d="M145.7625,93.15h1.597v1.532a3.3727,3.3727,0,0,1,3.0213-1.7694,2.9519,2.9519,0,0,1,1.0141.151v1.4675a3.5061,3.5061,0,0,0-1.1222-.1942A3.0593,3.0593,0,0,0,147.36,96.56v7.402h-1.597Z"/><path d="M151.9776,98.5667a5.5252,5.5252,0,1,1,5.5246,5.6109A5.5135,5.5135,0,0,1,151.9776,98.5667Zm9.4738,0a3.956,3.956,0,1,0-3.9492,4.1866A4.0354,4.0354,0,0,0,161.4514,98.5667Z"/><path d="M165.2057,99.991V93.15h1.5756v6.5171a2.8458,2.8458,0,0,0,3.0212,3.1076,3.3369,3.3369,0,0,0,2.978-1.6833V93.15h1.5968v10.8117h-1.5968V102.71a4.2857,4.2857,0,0,1-3.3882,1.4673A3.9875,3.9875,0,0,1,165.2057,99.991Z"/><path d="M177.0961,93.15h1.5756v1.1653a4.9451,4.9451,0,0,1,3.4959-1.3379,5.5787,5.5787,0,1,1-3.4743,9.9053v5.4813h-1.5972Zm8.9343,5.4165a4.0341,4.0341,0,0,0-4.0138-4.1866,4.19,4.19,0,0,0-3.3233,1.5107v5.352a4.2736,4.2736,0,0,0,3.3233,1.4889A4.0024,4.0024,0,0,0,186.03,98.5667Z"/><path class="a0dd4aee-e955-4b39-bc35-a1f3fae4f088" d="M111.2159,114.6448H62.6617a1.3488,1.3488,0,0,1-1.3488-1.3488V89.0189a1.3488,1.3488,0,1,1,2.6975,0v22.9284h47.2055a1.3488,1.3488,0,1,1,0,2.6975Z"/><path class="a0dd4aee-e955-4b39-bc35-a1f3fae4f088" d="M103.9328,121.9279H55.3785a1.3487,1.3487,0,0,1-1.3487-1.3487V96.302a1.3487,1.3487,0,1,1,2.6974,0V119.23h47.2056a1.3488,1.3488,0,0,1,0,2.6975Z"/><path class="a0dd4aee-e955-4b39-bc35-a1f3fae4f088" d="M206.6215,85.0467H158.0672a1.3486,1.3486,0,0,1-1.3487-1.3487V59.4208a1.3486,1.3486,0,0,1,1.3487-1.3487h48.5543a1.3487,1.3487,0,0,1,1.3487,1.3487V83.698A1.3487,1.3487,0,0,1,206.6215,85.0467Zm-47.2056-2.6975h45.8569V60.77H159.4159Z"/><path class="a0dd4aee-e955-4b39-bc35-a1f3fae4f088" d="M182.3443,77.7636a6.2042,6.2042,0,1,1,6.2042-6.2042A6.2111,6.2111,0,0,1,182.3443,77.7636Zm0-9.7109a3.5067,3.5067,0,1,0,3.5067,3.5067A3.5108,3.5108,0,0,0,182.3443,68.0527Z"/><path class="a0dd4aee-e955-4b39-bc35-a1f3fae4f088" d="M194.484,72.9089a1.36,1.36,0,0,1-.9549-.3967,1.2136,1.2136,0,0,1-.1673-.2049,1.2568,1.2568,0,0,1-.1241-.2321,1.3664,1.3664,0,0,1-.0782-.2534,1.4359,1.4359,0,0,1,0-.5261,1.43,1.43,0,0,1,.0782-.2534,1.2568,1.2568,0,0,1,.1241-.2321,1.3159,1.3159,0,0,1,.3722-.3722,1.446,1.446,0,0,1,.2321-.1241,1.42,1.42,0,0,1,.2534-.0756,1.3306,1.3306,0,0,1,.526,0,1.36,1.36,0,0,1,.2535.0756,1.4493,1.4493,0,0,1,.232.1241,1.3146,1.3146,0,0,1,.3723.3722,1.2623,1.2623,0,0,1,.124.2321,1.3086,1.3086,0,0,1,.0783.7795,1.3592,1.3592,0,0,1-.0783.2534,1.2623,1.2623,0,0,1-.124.2321,1.2184,1.2184,0,0,1-.1673.2049,1.3269,1.3269,0,0,1-.205.1673,1.262,1.262,0,0,1-.232.1241,1.1956,1.1956,0,0,1-.2535.0782A1.2246,1.2246,0,0,1,194.484,72.9089Z"/><path class="a0dd4aee-e955-4b39-bc35-a1f3fae4f088" d="M170.2068,72.9089a1.36,1.36,0,0,1-.9549-.3967,1.2136,1.2136,0,0,1-.1673-.2049,1.2623,1.2623,0,0,1-.124-.2321,1.3592,1.3592,0,0,1-.0783-.2534,1.3268,1.3268,0,0,1,.0783-.7795,1.2623,1.2623,0,0,1,.124-.2321,1.3309,1.3309,0,0,1,.1673-.2049,1.3511,1.3511,0,0,1,1.9069,0,1.3309,1.3309,0,0,1,.1673.2049,1.2628,1.2628,0,0,1,.1241.2321,1.28,1.28,0,0,1,.1025.5179,1.4144,1.4144,0,0,1-.0243.2616,1.3664,1.3664,0,0,1-.0782.2534,1.2628,1.2628,0,0,1-.1241.2321,1.2136,1.2136,0,0,1-.1673.2049A1.358,1.358,0,0,1,170.2068,72.9089Z"/></svg>