<svg id="a3d058ed-e96b-4a2a-a482-1ca087f1e101" data-name="Layer 1" xmlns="http://www.w3.org/2000/svg" viewBox="0 0 262 180"><defs><style>.b2f3bbcc-f1ad-4885-a401-599a7336edcd{fill:#e00;}</style></defs><path d="M147.2911,76.9587H152.04c2.0975,0,3.5057,1.2585,3.5057,3.1012a2.9574,2.9574,0,0,1-2.1574,2.8614l2.3372,4.5246h-1.7379l-2.1723-4.3h-2.9514v4.3h-1.573Zm4.6293,4.8691c1.2285,0,2.0524-.6891,2.0524-1.7529,0-1.0486-.8239-1.7379-2.0524-1.7379h-3.0563v3.4908Z"/><path d="M156.19,83.6256a3.8446,3.8446,0,0,1,3.82-3.94,3.7938,3.7938,0,0,1,3.6854,4.015V84.12H157.688a2.57,2.57,0,0,0,2.5618,2.1874,2.8876,2.8876,0,0,0,1.9327-.6743l.9588.9438a4.5758,4.5758,0,0,1-2.9513,1.0038A3.924,3.924,0,0,1,156.19,83.6256Zm6.0227-.6293a2.3466,2.3466,0,0,0-2.2323-2.0374,2.3157,2.3157,0,0,0-2.2772,2.0374Z"/><path d="M164.7889,83.6256a3.8535,3.8535,0,0,1,3.88-3.9252,3.8,3.8,0,0,1,2.2921.764V76.9587l1.4981-.2846V87.4459h-1.4831v-.7341a3.48,3.48,0,0,1-2.3371.8539A3.8508,3.8508,0,0,1,164.7889,83.6256Zm6.1724,1.7079V81.9027a2.8091,2.8091,0,0,0-2.1274-.914,2.6375,2.6375,0,0,0,0,5.2736A2.6977,2.6977,0,0,0,170.9613,85.3335Z"/><path d="M177.5378,76.9587h1.573v4.4945h5.5731V76.9587h1.5731V87.4459h-1.5731V82.8765h-5.5731v4.5694h-1.573Z"/><path d="M187.68,85.2585c0-1.4381,1.1686-2.3222,3.0862-2.3222a5.08,5.08,0,0,1,2.0824.4346v-.8091c0-1.0786-.6441-1.6329-1.8577-1.6329a5.4225,5.4225,0,0,0-2.3671.6441l-.5543-1.1236a7.1863,7.1863,0,0,1,3.1312-.779c1.9924,0,3.1162.9738,3.1162,2.7116v5.0639h-1.4683v-.6593a3.6173,3.6173,0,0,1-2.367.794C188.8336,87.5806,187.68,86.6368,187.68,85.2585Zm3.1462,1.1986a2.8884,2.8884,0,0,0,2.0224-.7191V84.45a3.776,3.776,0,0,0-1.9626-.4794c-1.0936,0-1.7678.4944-1.7678,1.2584C189.1182,85.9626,189.8074,86.4571,190.8262,86.4571Z"/><path d="M196.8035,85.5582v-4.48h-1.6179V79.82h1.6179V77.8727l1.4833-.3595V79.82h2.2471v1.2584h-2.2471v4.1348c0,.7791.3145,1.0788,1.1235,1.0788a2.9432,2.9432,0,0,0,1.0936-.18v1.2584a5.0345,5.0345,0,0,1-1.4231.21C197.5975,87.5806,196.8035,86.8916,196.8035,85.5582Z"/><path d="M146.7667,97.9325a5.4252,5.4252,0,0,1,5.5731-5.4084,5.7546,5.7546,0,0,1,4.3747,1.9627L155.2463,95.94a3.66,3.66,0,0,0-2.9065-1.4232,3.4011,3.4011,0,0,0,.0749,6.8016,3.6,3.6,0,0,0,2.8166-1.3334l1.4232,1.4083a5.7715,5.7715,0,0,1-4.3147,1.9327A5.4039,5.4039,0,0,1,146.7667,97.9325Z"/><path d="M157.7927,95.3706h2.0524v.869a2.4959,2.4959,0,0,1,2.0824-1.0488,1.7273,1.7273,0,0,1,.8541.18v1.7978a2.6228,2.6228,0,0,0-1.0488-.21,2.0888,2.0888,0,0,0-1.8877,1.1536v5.0638h-2.0524Z"/><path d="M163.3357,100.9139c0-1.4833,1.1836-2.3671,3.1761-2.3671a5.7861,5.7861,0,0,1,1.9176.3145V98.292c0-.8988-.5543-1.3633-1.648-1.3633a5.8006,5.8006,0,0,0-2.382.6443L163.65,96.06a8.0893,8.0893,0,0,1,3.4758-.8391c2.1124,0,3.3258,1.0488,3.3258,2.8915v5.0638h-2.0225v-.5543a3.61,3.61,0,0,1-2.2472.6891C164.4893,103.3109,163.3357,102.3371,163.3357,100.9139Zm3.3708.9288a2.8262,2.8262,0,0,0,1.7229-.5095v-1.1385a4.2425,4.2425,0,0,0-1.648-.3c-.9438,0-1.4981.3745-1.4981.9738S165.8376,101.8427,166.7065,101.8427Z"/><path d="M172.9835,97.0787h-1.7379V95.3706h1.7379v-.7491c0-1.7526,1.0487-2.7115,2.9663-2.7115a5.0072,5.0072,0,0,1,1.2135.1348v1.7229a4.5267,4.5267,0,0,0-.9588-.12c-.779,0-1.1685.33-1.1685,1.0188v.7041h2.1273v1.7081H175.036v6.0974h-2.0525Z"/><path d="M179.35,100.9737v-3.895h-1.603V95.3706h1.603V93.3782l2.0525-.4645v2.4569h2.2322v1.7081h-2.2322v3.4755c0,.7342.2846,1.0038,1.0787,1.0038a3.158,3.158,0,0,0,1.0936-.18v1.6931a6.35,6.35,0,0,1-1.588.2246C180.2492,103.2959,179.35,102.502,179.35,100.9737Z"/><path d="M187.7844,92.6889h8.105v1.8878h-5.9326v2.472h3.94v1.8276h-3.94v4.3h-2.1724Z"/><path d="M195.8443,100.9139c0-1.4833,1.1835-2.3671,3.1762-2.3671a5.7866,5.7866,0,0,1,1.9176.3145V98.292c0-.8988-.5543-1.3633-1.6481-1.3633a5.8,5.8,0,0,0-2.3819.6443L196.159,96.06a8.0885,8.0885,0,0,1,3.4757-.8391c2.1124,0,3.3258,1.0488,3.3258,2.8915v5.0638h-2.0224v-.5543a3.61,3.61,0,0,1-2.2472.6891C196.9979,103.3109,195.8443,102.3371,195.8443,100.9139Zm3.3709.9288a2.8266,2.8266,0,0,0,1.7229-.5095v-1.1385a4.2437,4.2437,0,0,0-1.6481-.3c-.9438,0-1.4981.3745-1.4981.9738S198.3462,101.8427,199.2152,101.8427Z"/><path d="M204.3685,93.2732a1.1686,1.1686,0,1,1,1.1685,1.1686A1.17,1.17,0,0,1,204.3685,93.2732Zm.15,2.0974h2.0524v7.8055h-2.0524Z"/><path d="M208.1736,95.3706h2.0524v.869a2.496,2.496,0,0,1,2.0824-1.0488,1.7272,1.7272,0,0,1,.854.18v1.7978a2.6221,2.6221,0,0,0-1.0488-.21,2.0886,2.0886,0,0,0-1.8876,1.1536v5.0638h-2.0524Z"/><path class="b2f3bbcc-f1ad-4885-a401-599a7336edcd" d="M211.7927,88.5887a2.5541,2.5541,0,0,1-1.8061-4.36l4.2743-4.2744a.6817.6817,0,0,0-.9641-.9641l-7.1374,7.1374a.9362.9362,0,1,1-1.3241-1.324l7.1375-7.1374a2.5541,2.5541,0,1,1,3.6121,3.6121l-4.2743,4.2744a.6817.6817,0,1,0,.9641.9641l1.3242-1.3242a3.0933,3.0933,0,0,1,4.3748,0,.9362.9362,0,0,1-1.3241,1.324,1.221,1.221,0,0,0-1.7265,0l-1.3244,1.3242A2.538,2.538,0,0,1,211.7927,88.5887Z"/><path class="b2f3bbcc-f1ad-4885-a401-599a7336edcd" d="M226.7186,103.3162a.9332.9332,0,0,1-.662-.2743L217.5141,94.5a.9358.9358,0,0,1-.2743-.662V89.5663a.9358.9358,0,0,1,.2743-.662l2.8476-2.8476a.9355.9355,0,0,1,.662-.2743h4.271a.9355.9355,0,0,1,.662.2743l8.5425,8.5425a.9359.9359,0,0,1,0,1.324l-7.1186,7.1187A.9332.9332,0,0,1,226.7186,103.3162ZM219.1124,93.45l7.6062,7.6059,5.7944-5.7944-7.6062-7.6061h-3.4953l-2.2991,2.2991Z"/><path class="b2f3bbcc-f1ad-4885-a401-599a7336edcd" d="M221.8874,91.3678a.94.94,0,0,1-.9363-.9363.8661.8661,0,0,1,.0186-.1834.96.96,0,0,1,.0525-.1761,1.0225,1.0225,0,0,1,.0861-.161,1.0975,1.0975,0,0,1,.118-.1424.8652.8652,0,0,1,.1423-.116.8856.8856,0,0,1,.1611-.0863.9491.9491,0,0,1,.1761-.0541.9155.9155,0,0,1,.365,0,.9954.9954,0,0,1,.1761.0541.8856.8856,0,0,1,.1611.0863.9069.9069,0,0,1,.2584.2584,1.023,1.023,0,0,1,.0862.161.9441.9441,0,0,1,.0523.1761.86.86,0,0,1,.0188.1834.9365.9365,0,0,1-.9363.9363Z"/><path class="b2f3bbcc-f1ad-4885-a401-599a7336edcd" d="M53.7438,89.9391a7.047,7.047,0,0,1,.2436,1.43c0,1.978-2.2216,3.0733-5.1424,3.0733-6.6034,0-12.3847-3.8643-12.3847-6.42a2.6013,2.6013,0,0,1,.213-1.0345c-2.3735.1217-5.4468.5476-5.4468,3.2558,0,4.4425,10.5285,9.92,18.8659,9.92,6.39,0,8.0026-2.8906,8.0026-5.1727,0-1.7956-1.5517-3.8339-4.3512-5.0513m-4.5947,1.6128c1.7651,0,4.3208-.3653,4.3208-2.4648a1.9984,1.9984,0,0,0-.0437-.4831l-1.0513-4.568c-.2438-1.0041-.4567-1.4606-2.2215-2.3431a20.6092,20.6092,0,0,0-5.2339-1.856c-.8216,0-1.0648,1.0648-2.0387,1.0648-.9431,0-1.643-.791-2.5254-.791-.8518,0-1.4.578-1.8258,1.7649,0,0-1.1868,3.3471-1.339,3.8337a.8819.8819,0,0,0-.0313.2742c0,1.3008,5.1232,5.5684,11.99,5.5684"/><path d="M53.7438,89.9391a7.047,7.047,0,0,1,.2436,1.43c0,1.978-2.2216,3.0733-5.1424,3.0733-6.6034,0-12.3847-3.8643-12.3847-6.42a2.6013,2.6013,0,0,1,.213-1.0345l.5173-1.2783a.8819.8819,0,0,0-.0313.2742c0,1.3008,5.1232,5.5684,11.99,5.5684,1.7651,0,4.3208-.3653,4.3208-2.4648a1.9984,1.9984,0,0,0-.0437-.4831l.3176,1.3351Z"/><path d="M63.0592,95.256h2.5532V91.4706h1.9448l1.96,3.7854h2.85L70.0808,91.1a3.144,3.144,0,0,0,1.96-2.9244,3.3737,3.3737,0,0,0-3.6667-3.3105H63.0592V95.256Zm5.0769-8.2091a1.1811,1.1811,0,1,1,0,2.3455H65.6124V87.0469Zm4.1416,4.29a4.1229,4.1229,0,0,0,4.2753,4.0675,4.7125,4.7125,0,0,0,3.2807-1.1875l-1.5883-1.41a2.1275,2.1275,0,0,1-1.5736.5937,2.0291,2.0291,0,0,1-1.93-1.2469h5.5964V91.56a4.0345,4.0345,0,1,0-8.0607-.2227M76.33,89.229a1.7368,1.7368,0,0,1,1.6477,1.2471H74.6974A1.6355,1.6355,0,0,1,76.33,89.229m10.8959,6.027h2.3752V84.3451l-2.4048.5195v2.9542A4.0466,4.0466,0,1,0,85.1183,95.36a3.5411,3.5411,0,0,0,2.108-.6829v.5789Zm-3.7557-3.9338A1.9884,1.9884,0,0,1,85.534,89.333a2.4337,2.4337,0,0,1,1.6627.6086v2.7463a2.31,2.31,0,0,1-1.6627.6235,1.9973,1.9973,0,0,1-2.0634-1.9892M93.2,95.256h2.5535V91.1886h4.2752V95.256h2.5534V84.8646h-2.5534V88.858H95.7536V84.8646H93.2V95.256Zm13.0487.1337a3.6748,3.6748,0,0,0,2.1674-.6087v.475h2.3752V90.2237c0-1.915-1.2916-2.969-3.444-2.969a8.74,8.74,0,0,0-3.6668.861l.8611,1.7665a6.4161,6.4161,0,0,1,2.3752-.6235c.9945,0,1.4993.386,1.4993,1.1728v.386a6.9707,6.9707,0,0,0-1.7814-.2227c-2.0189,0-3.2362.8462-3.2362,2.36,0,1.3806,1.0985,2.4346,2.85,2.4346m-.7337-2.4791c0-.52.5195-.7719,1.3063-.7719a6.0361,6.0361,0,0,1,1.4251.1781v1.01a3.0354,3.0354,0,0,1-1.4993.3711c-.772,0-1.2321-.297-1.2321-.7868m7.4731-.0445c0,1.6774,1.01,2.4939,2.85,2.4939a7.3776,7.3776,0,0,0,1.6776-.2375V93.1778a3.4929,3.4929,0,0,1-1.0838.1633c-.7571,0-1.039-.2375-1.039-.95V89.4072H117.59V87.4031h-2.1969V84.8646l-2.4051.52v2.0189H111.4v2.0041h1.5884v3.4589Z"/><path d="M132.7208,103.8262a.5.5,0,0,1-.5-.5V76.6739a.5.5,0,0,1,1,0v26.6523A.5.5,0,0,1,132.7208,103.8262Z"/></svg>