<svg id="b0029e22-89fa-4a2a-b20a-5303c8cb0fe5" data-name="Layer 1" xmlns="http://www.w3.org/2000/svg" viewBox="0 0 262 180"><defs><style>.b5934b96-b23b-415d-96fc-4c912d35f4ce{fill:#e00;}</style></defs><path d="M67.2892,53.8838V58.852h4.3314c1.7412,0,2.8875-.9979,2.8875-2.484,0-1.5076-1.1463-2.4842-2.8875-2.4842ZM65.06,51.93h6.7519c2.9516,0,4.9473,1.7834,4.9473,4.3952a4.1981,4.1981,0,0,1-3.0576,4.0766l3.3123,6.3909H74.5507l-3.0786-6.0936H67.2892V66.793H65.06V51.93Z"/><path d="M79.7949,60.4869H86.207a3.2236,3.2236,0,0,0-6.4121,0Zm3.5459,6.4974a5.5615,5.5615,0,0,1-5.6694-5.6056,5.4307,5.4307,0,0,1,5.4146-5.5628,5.3518,5.3518,0,0,1,5.223,5.6478V62.08H79.7737a3.6451,3.6451,0,0,0,3.6518,3.1,4.2028,4.2028,0,0,0,2.739-.9553l1.3589,1.3377a6.4464,6.4464,0,0,1-4.1826,1.4226Z"/><path d="M95.634,65.1156a3.8951,3.8951,0,0,0,2.9937-1.2951V58.9157a3.9519,3.9519,0,0,0-2.9937-1.2738,3.7374,3.7374,0,0,0,0,7.4737Zm3.015.6583a5.1053,5.1053,0,0,1-3.3122,1.1891,5.5736,5.5736,0,1,1,3.2909-10.0855V51.93l2.1232-.467v15.33H98.649V65.7739Z"/><polygon points="107.948 51.93 110.178 51.93 110.178 58.3 118.076 58.3 118.076 51.93 120.306 51.93 120.306 66.793 118.076 66.793 118.076 60.317 110.178 60.317 110.178 66.793 107.948 66.793 107.948 51.93 107.948 51.93"/><path d="M126.7812,65.4129a4.1554,4.1554,0,0,0,2.8663-1.0191V62.5253a5.615,5.615,0,0,0-2.7817-.6583c-1.55,0-2.5051.7009-2.5051,1.7837,0,1.04.9767,1.7622,2.4205,1.7622Zm-4.459-1.72c0-2.0385,1.6561-3.2911,4.374-3.2911a7.6283,7.6283,0,0,1,2.9513.5946V59.85c0-1.5289-.913-2.2932-2.6328-2.2932a7.6823,7.6823,0,0,0-3.3549.913l-.7856-1.5924a10.1165,10.1165,0,0,1,4.4378-1.1041c2.8029,0,4.4165,1.38,4.4165,3.8644V66.793h-2.081v-.9341a5.1268,5.1268,0,0,1-3.3547,1.1254c-2.357,0-3.9706-1.3379-3.9706-3.2911Z"/><path d="M135.1469,57.7691h-2.2934V55.9857h2.2934v-2.76l2.1017-.51v3.27h3.185v1.7834h-3.185v5.86c0,1.1041.4461,1.5074,1.5924,1.5074a4.17,4.17,0,0,0,1.55-.2548v1.7836a7.0321,7.0321,0,0,1-2.0171.3186c-2.1019,0-3.2272-.9981-3.2272-2.8666V57.7691Z"/><polygon points="64.89 74.224 67.969 74.224 67.969 89.087 64.89 89.087 64.89 74.224 64.89 74.224"/><path d="M70.4737,78.0245h2.9088v.8706a4.7482,4.7482,0,0,1,3.1-1.0829,4.1969,4.1969,0,0,1,4.374,4.3953v6.8792H77.9475V82.6319a2.1568,2.1568,0,0,0-2.2933-2.314,2.65,2.65,0,0,0-2.2717,1.1038v7.665H70.4737V78.0245Z"/><path d="M83.0642,78.0245H85.973v.8706a4.7482,4.7482,0,0,1,3.1-1.0829,4.1968,4.1968,0,0,1,4.3738,4.3953v6.8792H90.5378V82.6319a2.1567,2.1567,0,0,0-2.2931-2.314,2.6494,2.6494,0,0,0-2.2717,1.1038v7.665H83.0642V78.0245Z"/><path d="M104.1048,83.5664a3.0608,3.0608,0,1,0-3.0574,3.206,3.0991,3.0991,0,0,0,3.0574-3.206Zm-3.0574-5.7542a5.7456,5.7456,0,1,1-5.9028,5.7542,5.7655,5.7655,0,0,1,5.9028-5.7542Z"/><polygon points="107.162 78.025 110.326 78.025 113.362 85.392 116.377 78.025 119.477 78.025 114.721 89.087 111.918 89.087 107.162 78.025 107.162 78.025"/><path d="M124.891,87.1971a4.1886,4.1886,0,0,0,2.4417-.7007V84.84a6.4284,6.4284,0,0,0-2.3358-.4037c-1.3376,0-2.1232.5308-2.1232,1.38s.7856,1.38,2.0173,1.38Zm-4.7987-1.3164c0-2.102,1.6985-3.355,4.5439-3.355a8.9486,8.9486,0,0,1,2.6965.4249v-.7855c0-1.2742-.7856-1.9324-2.3358-1.9324a8.5769,8.5769,0,0,0-3.3757.913L120.56,79.0012a11.5342,11.5342,0,0,1,4.9259-1.189c2.9937,0,4.7135,1.4863,4.7135,4.0981v7.1764h-2.8663v-.7644a5.2593,5.2593,0,0,1-3.2061.9555c-2.3782,0-4.0343-1.38-4.0343-3.3971Z"/><path d="M133.49,80.4662h-2.2718V78.0245H133.49v-2.824l2.9088-.658v3.482h3.1426v2.4417h-3.1426v4.9049c0,1.04.4036,1.4225,1.5289,1.4225a4.4769,4.4769,0,0,0,1.55-.2547v2.3779a9.0236,9.0236,0,0,1-2.2509.34c-2.4629,0-3.7368-1.125-3.7368-3.2907V80.4662Z"/><path d="M149.3291,83.5664a3.0609,3.0609,0,1,0-3.0575,3.206,3.0992,3.0992,0,0,0,3.0575-3.206Zm-3.0575-5.7542a5.7455,5.7455,0,1,1-5.9027,5.7542,5.7657,5.7657,0,0,1,5.9027-5.7542Z"/><path d="M153.9576,78.0245h2.9088v1.21a3.5192,3.5192,0,0,1,2.9515-1.465,2.5075,2.5075,0,0,1,1.21.2547v2.5481a3.7117,3.7117,0,0,0-1.4865-.2972,2.9279,2.9279,0,0,0-2.6753,1.6561v7.1552h-2.9088V78.0245Z"/><path d="M163.2358,85.8382a6.4417,6.4417,0,0,0,3.5882,1.2527c1.2954,0,2.1447-.4671,2.1447-1.1678,0-.5732-.4249-.8917-1.38-1.04l-2.1234-.3185c-2.1867-.34-3.3547-1.4228-3.3547-3.2061,0-2.1444,1.7835-3.5035,4.6076-3.5035a8.161,8.161,0,0,1,4.5437,1.38L169.86,81.1035a6.5265,6.5265,0,0,0-3.4184-1.0616c-1.0616,0-1.741.4243-1.741,1.0828,0,.5942.4249.8915,1.5077,1.04l2.1232.3184c2.1657.3183,3.3757,1.4436,3.3757,3.1636,0,2.0808-2.0593,3.6519-4.8409,3.6519A8.1522,8.1522,0,0,1,161.792,87.77l1.4438-1.9321Z"/><path d="M67.6077,111.38H64.699V100.3182h2.9087V111.38ZM64.4864,97.3457a1.6562,1.6562,0,1,1,1.6562,1.6561,1.6584,1.6584,0,0,1-1.6562-1.6561Z"/><path d="M69.8792,100.3182H72.788v.87a4.7483,4.7483,0,0,1,3.1-1.0831,4.1972,4.1972,0,0,1,4.3739,4.3953V111.38H77.3531v-6.4548a2.1569,2.1569,0,0,0-2.2932-2.3142,2.65,2.65,0,0,0-2.2719,1.104v7.665H69.8792V100.3182Z"/><path d="M88.2444,102.76H85.9725v-2.4417h2.2719V97.4943l2.9089-.6582v3.4821h3.1426V102.76H91.1533v4.9048c0,1.04.4034,1.4223,1.5289,1.4223a4.466,4.466,0,0,0,1.55-.2548v2.3783a9.0232,9.0232,0,0,1-2.2506.3394c-2.463,0-3.7369-1.125-3.7369-3.2909V102.76Z"/><path d="M95.7394,96.5177l2.9088-.6373v5.3083a4.7482,4.7482,0,0,1,3.1-1.0831,4.1971,4.1971,0,0,1,4.3738,4.3953V111.38h-2.9088v-6.4548a2.1569,2.1569,0,0,0-2.2931-2.3142,2.65,2.65,0,0,0-2.2718,1.104v7.665H95.7394V96.5177Z"/><path d="M110.7289,104.7557h5.4142a2.8537,2.8537,0,0,0-2.6965-2.2294,2.7782,2.7782,0,0,0-2.7177,2.2294Zm3.0362,6.837A5.7591,5.7591,0,0,1,107.82,105.86a5.6468,5.6468,0,0,1,5.69-5.733c3.1426,0,5.4781,2.5481,5.4781,5.9455v.7644H110.75a3.1867,3.1867,0,0,0,3.1423,2.314,3.4838,3.4838,0,0,0,2.4417-.8917L118.2451,110a6.6316,6.6316,0,0,1-4.48,1.5924Z"/><path d="M132.5128,99.108a4.8427,4.8427,0,1,0,4.7135,4.8409,4.6762,4.6762,0,0,0-4.7135-4.8409Zm0,12.5059a7.6678,7.6678,0,1,1,7.877-7.665,7.6916,7.6916,0,0,1-7.877,7.665Z"/><path d="M145.2092,103.6941v4.3525a3.7237,3.7237,0,0,0,2.6326,1.0194,3.2062,3.2062,0,1,0,0-6.4123,3.5662,3.5662,0,0,0-2.6326,1.04Zm-2.9087-3.3759h2.866v.913a5.0172,5.0172,0,0,1,3.1424-1.0616,5.68,5.68,0,0,1-.0847,11.3591,5.4979,5.4979,0,0,1-3.015-.87v5.16h-2.9087v-15.5Z"/><path d="M158.203,104.7557h5.4142a2.8539,2.8539,0,0,0-2.6965-2.2294,2.7782,2.7782,0,0,0-2.7177,2.2294Zm3.0362,6.837a5.7592,5.7592,0,0,1-5.9453-5.7329,5.6469,5.6469,0,0,1,5.69-5.733c3.1426,0,5.4781,2.5481,5.4781,5.9455v.7644h-8.238a3.1868,3.1868,0,0,0,3.1421,2.314,3.484,3.484,0,0,0,2.442-.8917L165.7191,110a6.6313,6.6313,0,0,1-4.48,1.5924Z"/><path d="M168.2455,100.3182h2.9088v.87a4.7485,4.7485,0,0,1,3.1-1.0831,4.1971,4.1971,0,0,1,4.3741,4.3953V111.38h-2.9088v-6.4548a2.157,2.157,0,0,0-2.2933-2.3142,2.65,2.65,0,0,0-2.2718,1.104v7.665h-2.9088V100.3182Z"/><path class="b5934b96-b23b-415d-96fc-4c912d35f4ce" d="M183.8956,103.6848a1.3274,1.3274,0,0,1-.7442-2.4271A26.5547,26.5547,0,1,0,151.318,58.8305a1.327,1.327,0,1,1-1.6991-2.0387,29.2087,29.2087,0,1,1,35.0182,46.6653,1.3217,1.3217,0,0,1-.7415.2277Z"/><path class="b5934b96-b23b-415d-96fc-4c912d35f4ce" d="M168.3063,96.3871a17.1925,17.1925,0,0,1-7.9169-1.9335A1.327,1.327,0,1,1,161.6163,92.1a14.33,14.33,0,0,0,6.69,1.6328A14.4943,14.4943,0,0,0,178.6046,69.04a1.327,1.327,0,1,1,1.8857-1.8677,17.1484,17.1484,0,0,1-12.184,29.2152Z"/><path class="b5934b96-b23b-415d-96fc-4c912d35f4ce" d="M183.359,97.2141a1.3271,1.3271,0,0,1-.9353-2.2684,21.5082,21.5082,0,0,0-8.6513-35.7363,21.2743,21.2743,0,0,0-9.902-.75,1.3271,1.3271,0,0,1-.4194-2.6209,24.1629,24.1629,0,0,1,26.8206,31.1887,24.2164,24.2164,0,0,1-5.9776,9.8015,1.3217,1.3217,0,0,1-.935.3857Z"/><path d="M64.4864,129.469v-8.1738h1.226v7.088h4.6943v1.0858Z"/><path d="M73.529,129.574a2.7043,2.7043,0,0,1-1.1446-.2273,1.8649,1.8649,0,0,1-.77-.6369,1.6294,1.6294,0,0,1-.28-.945,1.5509,1.5509,0,0,1,.6479-1.32,2.8935,2.8935,0,0,1,1.7573-.4789,4.05,4.05,0,0,1,1.6113.315v-.6184a1.2029,1.2029,0,0,0-.3617-.9577,1.595,1.595,0,0,0-1.0742-.315,3.12,3.12,0,0,0-.8463.1223,6.5839,6.5839,0,0,0-.9871.38l-.4437-.8757a6.8008,6.8008,0,0,1,1.2554-.4616,4.9325,4.9325,0,0,1,1.185-.1454,2.6615,2.6615,0,0,1,1.7924.5481,1.9573,1.9573,0,0,1,.6364,1.5646v3.9473H75.35v-.5135a2.6449,2.6449,0,0,1-.8405.4673A3.1052,3.1052,0,0,1,73.529,129.574Zm-1.0857-1.845a.8337.8337,0,0,0,.3732.7119,1.6162,1.6162,0,0,0,.9692.2689,2.5779,2.5779,0,0,0,.8643-.14,1.9188,1.9188,0,0,0,.7-.4326v-1.0039a2.7448,2.7448,0,0,0-.7-.28,3.3183,3.3183,0,0,0-.806-.0934,1.7344,1.7344,0,0,0-1.0275.2688A.8255.8255,0,0,0,72.4433,127.729Z"/><path d="M80.36,129.574a1.9349,1.9349,0,0,1-1.3079-.3969,1.48,1.48,0,0,1-.4552-1.1793v-3.4915H77.3355v-.9807h1.2611V122.02l1.1562-.2919v1.7977h1.763v.9807h-1.763v3.2342a.8458.8458,0,0,0,.2042.6369.9627.9627,0,0,0,.6715.1927,2.3861,2.3861,0,0,0,.4379-.0357,2.4965,2.4965,0,0,0,.4143-.1166v.9923a2.7087,2.7087,0,0,1-.5429.1235A4.5663,4.5663,0,0,1,80.36,129.574Z"/><path d="M83.0862,122.5564a.6871.6871,0,0,1-.5019-.21.7.7,0,0,1-.21-.5135.717.717,0,0,1,.7119-.7131.7171.7171,0,0,1,.724.7246.6868.6868,0,0,1-.21.502A.701.701,0,0,1,83.0862,122.5564Zm-.5838,6.9126v-5.9434H83.67v5.9434Z"/><path d="M85.2018,129.469v-5.9434h1.1676v.6069a2.3559,2.3559,0,0,1,1.7868-.7235,2.4232,2.4232,0,0,1,1.2086.292,2.1213,2.1213,0,0,1,.8169.8169,2.4239,2.4239,0,0,1,.2977,1.215v3.7361H89.3123v-3.5377a1.5052,1.5052,0,0,0-.3975-1.1042,1.4585,1.4585,0,0,0-1.0858-.4027,1.69,1.69,0,0,0-.8348.2042,1.84,1.84,0,0,0-.6248.5781v4.2623Z"/><path d="M93.5849,129.469l3.375-8.1738h1.4359l3.3514,8.1738h-1.3316l-.9455-2.3942H95.8038l-.9462,2.3942Zm2.6273-3.41h2.8609l-1.4244-3.5965Z"/><path d="M102.6541,129.469v-5.9434h1.1677v.5607a2.2456,2.2456,0,0,1,1.6695-.6773,2.1736,2.1736,0,0,1,1.0864.2689,1.9373,1.9373,0,0,1,.7471.735,2.365,2.365,0,0,1,.87-.7535,2.5349,2.5349,0,0,1,1.1382-.25,2.2466,2.2466,0,0,1,1.1619.292,2.057,2.057,0,0,1,.7766.8111,2.5334,2.5334,0,0,1,.28,1.2208v3.7361h-1.1562v-3.5377a1.5767,1.5767,0,0,0-.3675-1.1042,1.2754,1.2754,0,0,0-.9871-.4027,1.5468,1.5468,0,0,0-.7938.2042,1.8279,1.8279,0,0,0-.6075.6012,2.2855,2.2855,0,0,1,.0352.2458c.0075.0853.0115.1707.0115.2573v3.7361H106.531v-3.5377a1.561,1.561,0,0,0-.3739-1.1042,1.2785,1.2785,0,0,0-.9807-.4027,1.6175,1.6175,0,0,0-.7708.1812,1.6493,1.6493,0,0,0-.5838.5434v4.32Z"/><path d="M115.86,129.574a3.1352,3.1352,0,0,1-1.5825-.4027,3.0549,3.0549,0,0,1-1.1267-1.1088,3.1667,3.1667,0,0,1-.0173-3.1235,3.123,3.123,0,0,1,1.08-1.1042,2.8523,2.8523,0,0,1,1.5178-.4142,2.6663,2.6663,0,0,1,1.4654.4142,2.9791,2.9791,0,0,1,1.0275,1.1215,3.3148,3.3148,0,0,1,.38,1.5935v.315H113.91a2.0085,2.0085,0,0,0,1.0563,1.49,1.973,1.973,0,0,0,.94.2273,2.5072,2.5072,0,0,0,.8406-.1408,2.0414,2.0414,0,0,0,.6658-.3727l.7355.7235a3.7836,3.7836,0,0,1-1.0684.59A3.707,3.707,0,0,1,115.86,129.574Zm-1.9384-3.585h3.5261a2.0027,2.0027,0,0,0-.3329-.8111,1.8663,1.8663,0,0,0-.6127-.5608,1.6131,1.6131,0,0,0-.806-.2042,1.6772,1.6772,0,0,0-.8174.2042,1.8623,1.8623,0,0,0-.6243.555A1.9543,1.9543,0,0,0,113.9213,125.989Z"/><path d="M119.7954,129.469v-5.955h1.1677v.7708a2.0237,2.0237,0,0,1,.6946-.6542,1.88,1.88,0,0,1,.94-.2331,1.62,1.62,0,0,1,.5954.0935v1.05a1.5093,1.5093,0,0,0-.3387-.0993,2.3206,2.3206,0,0,0-.3617-.0288,1.54,1.54,0,0,0-.8994.2746,1.8653,1.8653,0,0,0-.6306.8v3.9819Z"/><path d="M124.8175,122.5564a.687.687,0,0,1-.5019-.21.7.7,0,0,1-.21-.5135.717.717,0,0,1,.7119-.7131.7171.7171,0,0,1,.724.7246.6868.6868,0,0,1-.21.502A.7012.7012,0,0,1,124.8175,122.5564Zm-.5839,6.9126v-5.9434h1.1677v5.9434Z"/><path d="M129.674,129.574A3.04,3.04,0,0,1,127,128.0555a3.1662,3.1662,0,0,1,.0057-3.1234,3.162,3.162,0,0,1,1.1094-1.1088,2.987,2.987,0,0,1,1.5589-.4143,3.4291,3.4291,0,0,1,1.29.25,3.04,3.04,0,0,1,1.08.73l-.724.8054a2.2576,2.2576,0,0,0-.7586-.5608,2.1535,2.1535,0,0,0-.8758-.1869,1.851,1.851,0,0,0-.9865.2688,1.907,1.907,0,0,0-.6889.7362,2.2608,2.2608,0,0,0,.0058,2.0838,1.9148,1.9148,0,0,0,.7.7419,1.88,1.88,0,0,0,.9923.2689,2.0412,2.0412,0,0,0,.8527-.1812,2.5706,2.5706,0,0,0,.7471-.5319l.7125.7592a3.3289,3.3289,0,0,1-1.08.7235A3.2394,3.2394,0,0,1,129.674,129.574Z"/><path d="M135.0716,129.574a2.704,2.704,0,0,1-1.1446-.2273,1.8643,1.8643,0,0,1-.77-.6369,1.6294,1.6294,0,0,1-.28-.945,1.5509,1.5509,0,0,1,.6479-1.32,2.8935,2.8935,0,0,1,1.7573-.4789,4.0507,4.0507,0,0,1,1.6113.315v-.6184a1.2032,1.2032,0,0,0-.3617-.9577,1.5952,1.5952,0,0,0-1.0742-.315,3.1216,3.1216,0,0,0-.8464.1223,6.5921,6.5921,0,0,0-.9871.38l-.4436-.8757a6.7982,6.7982,0,0,1,1.2554-.4616,4.9317,4.9317,0,0,1,1.1849-.1454,2.6616,2.6616,0,0,1,1.7925.5481,1.9573,1.9573,0,0,1,.6364,1.5646v3.9473h-1.1562v-.5135a2.6443,2.6443,0,0,1-.8406.4673A3.1042,3.1042,0,0,1,135.0716,129.574Zm-1.0858-1.845a.8338.8338,0,0,0,.3733.7119,1.6162,1.6162,0,0,0,.9692.2689,2.5773,2.5773,0,0,0,.8642-.14,1.9192,1.9192,0,0,0,.7-.4326v-1.0039a2.7455,2.7455,0,0,0-.7-.28,3.3168,3.3168,0,0,0-.8059-.0934,1.7344,1.7344,0,0,0-1.0275.2688A.8256.8256,0,0,0,133.9858,127.729Z"/><path d="M141.9842,129.469v-8.1738h3.69a3.1911,3.1911,0,0,1,1.43.3035,2.2617,2.2617,0,0,1,1.3021,2.1253,2.1808,2.1808,0,0,1-.4609,1.3835,2.4806,2.4806,0,0,1-1.2087.8354l1.81,3.5261h-1.3661l-1.6817-3.3508H143.21v3.3508Zm1.226-4.3788h2.3705a1.7211,1.7211,0,0,0,1.1561-.3681,1.2425,1.2425,0,0,0,.4322-.9981,1.23,1.23,0,0,0-.4322-.9865,1.7211,1.7211,0,0,0-1.1561-.3681H143.21Z"/><path d="M152.3768,129.574a3.1349,3.1349,0,0,1-1.5825-.4027,3.0549,3.0549,0,0,1-1.1267-1.1088,3.1667,3.1667,0,0,1-.0173-3.1235,3.1221,3.1221,0,0,1,1.08-1.1042,2.8523,2.8523,0,0,1,1.5178-.4142,2.6663,2.6663,0,0,1,1.4654.4142,2.9791,2.9791,0,0,1,1.0275,1.1215,3.3148,3.3148,0,0,1,.38,1.5935v.315h-4.6938a2.0085,2.0085,0,0,0,1.0563,1.49,1.973,1.973,0,0,0,.94.2273,2.5072,2.5072,0,0,0,.8406-.1408,2.04,2.04,0,0,0,.6657-.3727l.7356.7235a3.7836,3.7836,0,0,1-1.0684.59A3.707,3.707,0,0,1,152.3768,129.574Zm-1.9385-3.585h3.5262a2.0027,2.0027,0,0,0-.3329-.8111,1.8672,1.8672,0,0,0-.6127-.5608,1.6131,1.6131,0,0,0-.806-.2042,1.6778,1.6778,0,0,0-.8175.2042,1.863,1.863,0,0,0-.6242.555A1.9544,1.9544,0,0,0,150.4383,125.989Z"/><path d="M159.283,131.9682a5.26,5.26,0,0,1-1.2611-.1523,4.4828,4.4828,0,0,1-1.1209-.4316l.4557-.9115a5.1192,5.1192,0,0,0,.975.38,3.5467,3.5467,0,0,0,.9167.1223,1.78,1.78,0,0,0,1.1966-.35,1.3181,1.3181,0,0,0,.4026-1.0511v-.6773a2.7658,2.7658,0,0,1-1.7861.6184,2.8493,2.8493,0,0,1-1.5063-.4084,3.0558,3.0558,0,0,1-1.08-1.1031,3.1281,3.1281,0,0,1,.0058-3.083,3.047,3.047,0,0,1,1.0915-1.0973,3.0527,3.0527,0,0,1,2.464-.2516,2.8,2.8,0,0,1,.8348.4558v-.5019h1.144v6.0368a2.2543,2.2543,0,0,1-.7,1.7862A2.976,2.976,0,0,1,159.283,131.9682Zm-.07-3.4569a2.2869,2.2869,0,0,0,.9283-.1869,1.9351,1.9351,0,0,0,.7061-.5135v-2.6861a1.8838,1.8838,0,0,0-.7-.5019,2.3267,2.3267,0,0,0-.9341-.1869,1.9613,1.9613,0,0,0-1.01.263,1.931,1.931,0,0,0-.712.7235,2.0761,2.0761,0,0,0-.263,1.0454,2.0512,2.0512,0,0,0,.263,1.0338,1.9989,1.9989,0,0,0,.7177.735A1.9042,1.9042,0,0,0,159.2132,128.5113Z"/><path d="M164.1366,122.5564a.6871.6871,0,0,1-.5019-.21.7.7,0,0,1-.21-.5135.717.717,0,0,1,.7119-.7131.7171.7171,0,0,1,.7241.7246.6868.6868,0,0,1-.21.502A.7014.7014,0,0,1,164.1366,122.5564Zm-.5838,6.9126v-5.9434h1.1677v5.9434Z"/><path d="M169.0162,129.5855a3.109,3.109,0,0,1-1.57-.4027,3.0041,3.0041,0,0,1-1.1209-1.1088,3.0849,3.0849,0,0,1,1.1152-4.2507,3.08,3.08,0,0,1,1.5761-.4143,3.0493,3.0493,0,0,1,1.57.4143,3.081,3.081,0,0,1,1.1152,1.1088,3.0459,3.0459,0,0,1,.409,1.5715,3.0809,3.0809,0,0,1-.409,1.57,2.96,2.96,0,0,1-1.1152,1.1088A3.109,3.109,0,0,1,169.0162,129.5855Zm0-1.0269a1.8567,1.8567,0,0,0,.9929-.2746,1.9823,1.9823,0,0,0,.7-.7419,2.1431,2.1431,0,0,0,.2567-1.0512,2.0841,2.0841,0,0,0-.2567-1.0326,2.035,2.035,0,0,0-.7-.742,1.8874,1.8874,0,0,0-1.9794,0,2.0137,2.0137,0,0,0-.7067.742,2.0831,2.0831,0,0,0-.2568,1.0326,2.1421,2.1421,0,0,0,.2568,1.0512,1.9624,1.9624,0,0,0,.7067.7419A1.8618,1.8618,0,0,0,169.0162,128.5586Z"/><path d="M173.3506,129.469v-5.9434h1.1677v.6069a2.3556,2.3556,0,0,1,1.7867-.7235,2.4232,2.4232,0,0,1,1.2086.292,2.1206,2.1206,0,0,1,.8169.8169,2.4239,2.4239,0,0,1,.2977,1.215v3.7361h-1.1671v-3.5377a1.5052,1.5052,0,0,0-.3975-1.1042,1.4584,1.4584,0,0,0-1.0857-.4027,1.69,1.69,0,0,0-.8348.2042,1.8385,1.8385,0,0,0-.6248.5781v4.2623Z"/></svg>