<svg id="e2073781-32d5-4821-95e5-152e5421378a" data-name="Layer 1" xmlns="http://www.w3.org/2000/svg" viewBox="0 0 262 180"><defs><style>.bbd0a5fe-d7b9-4b7b-bb93-5b003f6926e2{fill:#e00;}</style></defs><path d="M67.2892,60.9588V65.927h4.3314c1.7412,0,2.8875-.9978,2.8875-2.484,0-1.5076-1.1463-2.4842-2.8875-2.4842ZM65.06,59.0053h6.7519c2.9516,0,4.9473,1.7835,4.9473,4.3952a4.1981,4.1981,0,0,1-3.0576,4.0767l3.3123,6.3908H74.5507l-3.0786-6.0936H67.2892V73.868H65.06V59.0053Z"/><path d="M79.7949,67.5619H86.207a3.2236,3.2236,0,0,0-6.4121,0Zm3.5459,6.4974a5.5614,5.5614,0,0,1-5.6694-5.6055A5.4306,5.4306,0,0,1,83.086,62.891a5.3518,5.3518,0,0,1,5.223,5.6478v.6158H79.7737a3.6452,3.6452,0,0,0,3.6518,3.1,4.2028,4.2028,0,0,0,2.739-.9554l1.3589,1.3377a6.4458,6.4458,0,0,1-4.1826,1.4226Z"/><path d="M95.634,72.1906a3.8948,3.8948,0,0,0,2.9937-1.2951V65.9908a3.9516,3.9516,0,0,0-2.9937-1.2739,3.7374,3.7374,0,0,0,0,7.4737Zm3.015.6584a5.1053,5.1053,0,0,1-3.3122,1.1891,5.5736,5.5736,0,1,1,3.2909-10.0855V59.0053l2.1232-.467v15.33H98.649V72.849Z"/><polygon points="107.948 59.005 110.178 59.005 110.178 65.375 118.076 65.375 118.076 59.005 120.306 59.005 120.306 73.868 118.076 73.868 118.076 67.392 110.178 67.392 110.178 73.868 107.948 73.868 107.948 59.005 107.948 59.005"/><path d="M126.7812,72.4879a4.1549,4.1549,0,0,0,2.8663-1.0191V69.6a5.615,5.615,0,0,0-2.7817-.6583c-1.55,0-2.5051.7008-2.5051,1.7837,0,1.04.9767,1.7621,2.4205,1.7621Zm-4.459-1.72c0-2.0384,1.6561-3.291,4.374-3.291a7.6282,7.6282,0,0,1,2.9513.5945V66.9251c0-1.5289-.913-2.2932-2.6328-2.2932a7.6812,7.6812,0,0,0-3.3549.9131l-.7856-1.5924a10.1165,10.1165,0,0,1,4.4378-1.1041c2.8029,0,4.4165,1.38,4.4165,3.8643V73.868h-2.081v-.934a5.1273,5.1273,0,0,1-3.3547,1.1253c-2.357,0-3.9706-1.3379-3.9706-3.2911Z"/><path d="M135.1469,64.8442h-2.2934V63.0607h2.2934v-2.76l2.1017-.51v3.27h3.185v1.7835h-3.185v5.86c0,1.1041.4461,1.5074,1.5924,1.5074a4.1677,4.1677,0,0,0,1.55-.2548v1.7837a7.0355,7.0355,0,0,1-2.0171.3185c-2.1019,0-3.2272-.9981-3.2272-2.8665V64.8442Z"/><polygon points="64.89 81.299 67.969 81.299 67.969 96.162 64.89 96.162 64.89 81.299 64.89 81.299"/><path d="M70.4737,85.1h2.9088V85.97a4.7481,4.7481,0,0,1,3.1-1.0828,4.1969,4.1969,0,0,1,4.374,4.3953v6.8791H77.9475V89.7069a2.1568,2.1568,0,0,0-2.2933-2.314,2.65,2.65,0,0,0-2.2717,1.1038v7.665H70.4737V85.1Z"/><path d="M83.0642,85.1H85.973V85.97a4.7481,4.7481,0,0,1,3.1-1.0828,4.1968,4.1968,0,0,1,4.3738,4.3953v6.8791H90.5378V89.7069a2.1567,2.1567,0,0,0-2.2931-2.314,2.6494,2.6494,0,0,0-2.2717,1.1038v7.665H83.0642V85.1Z"/><path d="M104.1048,90.6414a3.0608,3.0608,0,1,0-3.0574,3.206,3.0991,3.0991,0,0,0,3.0574-3.206Zm-3.0574-5.7541a5.7456,5.7456,0,1,1-5.9028,5.7541,5.7655,5.7655,0,0,1,5.9028-5.7541Z"/><polygon points="107.162 85.1 110.326 85.1 113.362 92.467 116.377 85.1 119.477 85.1 114.721 96.162 111.918 96.162 107.162 85.1 107.162 85.1"/><path d="M124.891,94.2721a4.1886,4.1886,0,0,0,2.4417-.7007V91.9153a6.4284,6.4284,0,0,0-2.3358-.4036c-1.3376,0-2.1232.5308-2.1232,1.38s.7856,1.38,2.0173,1.38Zm-4.7987-1.3164c0-2.102,1.6985-3.3549,4.5439-3.3549a8.9486,8.9486,0,0,1,2.6965.4249V89.24c0-1.2742-.7856-1.9324-2.3358-1.9324a8.5769,8.5769,0,0,0-3.3757.913L120.56,86.0762a11.534,11.534,0,0,1,4.9259-1.1889c2.9937,0,4.7135,1.4862,4.7135,4.098v7.1764h-2.8663v-.7643a5.26,5.26,0,0,1-3.2061.9554c-2.3782,0-4.0343-1.38-4.0343-3.3971Z"/><path d="M133.49,87.5413h-2.2718V85.1H133.49v-2.824l2.9088-.6581V85.1h3.1426v2.4417h-3.1426v4.9048c0,1.04.4036,1.4226,1.5289,1.4226a4.4747,4.4747,0,0,0,1.55-.2548v2.378a9.0234,9.0234,0,0,1-2.2509.3394c-2.4629,0-3.7368-1.125-3.7368-3.2907V87.5413Z"/><path d="M149.3291,90.6414a3.0609,3.0609,0,1,0-3.0575,3.206,3.0992,3.0992,0,0,0,3.0575-3.206Zm-3.0575-5.7541a5.7455,5.7455,0,1,1-5.9027,5.7541,5.7657,5.7657,0,0,1,5.9027-5.7541Z"/><path d="M153.9576,85.1h2.9088v1.21a3.5194,3.5194,0,0,1,2.9515-1.465,2.5062,2.5062,0,0,1,1.21.2548v2.5481a3.71,3.71,0,0,0-1.4865-.2973,2.9279,2.9279,0,0,0-2.6753,1.6561v7.1552h-2.9088V85.1Z"/><path d="M163.2358,92.9132a6.4417,6.4417,0,0,0,3.5882,1.2527c1.2954,0,2.1447-.4671,2.1447-1.1677,0-.5733-.4249-.8918-1.38-1.04l-2.1234-.3185c-2.1867-.34-3.3547-1.4228-3.3547-3.206,0-2.1445,1.7835-3.5036,4.6076-3.5036a8.161,8.161,0,0,1,4.5437,1.38L169.86,88.1785a6.5265,6.5265,0,0,0-3.4184-1.0616c-1.0616,0-1.741.4244-1.741,1.0828,0,.5943.4249.8915,1.5077,1.04l2.1232.3185c2.1657.3182,3.3757,1.4435,3.3757,3.1635,0,2.0808-2.0593,3.652-4.8409,3.652a8.1522,8.1522,0,0,1-5.0745-1.5287l1.4438-1.9322Z"/><path d="M67.6077,118.4554H64.699V107.3932h2.9087v11.0622Zm-3.1213-14.0347a1.6562,1.6562,0,1,1,1.6562,1.6561,1.6585,1.6585,0,0,1-1.6562-1.6561Z"/><path d="M69.8792,107.3932H72.788v.8705a4.7489,4.7489,0,0,1,3.1-1.0831,4.1972,4.1972,0,0,1,4.3739,4.3953v6.8795H77.3531v-6.4548a2.157,2.157,0,0,0-2.2932-2.3143,2.65,2.65,0,0,0-2.2719,1.104v7.6651H69.8792V107.3932Z"/><path d="M88.2444,109.8349H85.9725v-2.4417h2.2719v-2.8238l2.9089-.6582v3.482h3.1426v2.4417H91.1533V114.74c0,1.04.4034,1.4223,1.5289,1.4223a4.4684,4.4684,0,0,0,1.55-.2548v2.3782a9.0233,9.0233,0,0,1-2.2506.34c-2.463,0-3.7369-1.1251-3.7369-3.291v-5.4991Z"/><path d="M95.7394,103.5927l2.9088-.6372v5.3082a4.7488,4.7488,0,0,1,3.1-1.0831,4.1971,4.1971,0,0,1,4.3738,4.3953v6.8795h-2.9088v-6.4548a2.1569,2.1569,0,0,0-2.2931-2.3143,2.65,2.65,0,0,0-2.2718,1.104v7.6651H95.7394V103.5927Z"/><path d="M110.7289,111.8307h5.4142a2.8536,2.8536,0,0,0-2.6965-2.2293,2.7782,2.7782,0,0,0-2.7177,2.2293Zm3.0362,6.837a5.7591,5.7591,0,0,1-5.9452-5.7329,5.6467,5.6467,0,0,1,5.69-5.7329c3.1426,0,5.4781,2.5481,5.4781,5.9455v.7643H110.75a3.1867,3.1867,0,0,0,3.1423,2.314,3.4834,3.4834,0,0,0,2.4417-.8917l1.9109,1.7413a6.6311,6.6311,0,0,1-4.48,1.5924Z"/><path d="M132.5128,106.183a4.8428,4.8428,0,1,0,4.7135,4.8409,4.6762,4.6762,0,0,0-4.7135-4.8409Zm0,12.5059a7.6678,7.6678,0,1,1,7.877-7.665,7.6916,7.6916,0,0,1-7.877,7.665Z"/><path d="M145.2092,110.7691v4.3526a3.7241,3.7241,0,0,0,2.6326,1.0194,3.2063,3.2063,0,1,0,0-6.4124,3.5662,3.5662,0,0,0-2.6326,1.04Zm-2.9087-3.3759h2.866v.913a5.0172,5.0172,0,0,1,3.1424-1.0616,5.68,5.68,0,0,1-.0847,11.3591,5.4987,5.4987,0,0,1-3.015-.87v5.16h-2.9087v-15.5Z"/><path d="M158.203,111.8307h5.4142a2.8538,2.8538,0,0,0-2.6965-2.2293,2.7782,2.7782,0,0,0-2.7177,2.2293Zm3.0362,6.837a5.7591,5.7591,0,0,1-5.9453-5.7329,5.6468,5.6468,0,0,1,5.69-5.7329c3.1426,0,5.4781,2.5481,5.4781,5.9455v.7643h-8.238a3.1868,3.1868,0,0,0,3.1421,2.314,3.4836,3.4836,0,0,0,2.442-.8917l1.9108,1.7413a6.6308,6.6308,0,0,1-4.48,1.5924Z"/><path d="M168.2455,107.3932h2.9088v.8705a4.7491,4.7491,0,0,1,3.1-1.0831,4.1971,4.1971,0,0,1,4.3741,4.3953v6.8795h-2.9088v-6.4548a2.1571,2.1571,0,0,0-2.2933-2.3143,2.65,2.65,0,0,0-2.2718,1.104v7.6651h-2.9088V107.3932Z"/><path class="bbd0a5fe-d7b9-4b7b-bb93-5b003f6926e2" d="M183.8956,110.76a1.3274,1.3274,0,0,1-.7442-2.4271A26.5547,26.5547,0,1,0,151.318,65.9055a1.327,1.327,0,1,1-1.6991-2.0387,29.2087,29.2087,0,1,1,35.0182,46.6653,1.3209,1.3209,0,0,1-.7415.2277Z"/><path class="bbd0a5fe-d7b9-4b7b-bb93-5b003f6926e2" d="M168.3063,103.4621a17.1924,17.1924,0,0,1-7.9169-1.9334,1.327,1.327,0,1,1,1.2269-2.3533,14.3309,14.3309,0,0,0,6.69,1.6327,14.4943,14.4943,0,0,0,10.2983-24.6935A1.327,1.327,0,1,1,180.49,74.247a17.1483,17.1483,0,0,1-12.184,29.2151Z"/><path class="bbd0a5fe-d7b9-4b7b-bb93-5b003f6926e2" d="M183.359,104.2891a1.3271,1.3271,0,0,1-.9353-2.2684,21.5082,21.5082,0,0,0-8.6513-35.7363,21.2743,21.2743,0,0,0-9.902-.75,1.3271,1.3271,0,0,1-.4194-2.6208A24.1629,24.1629,0,0,1,190.2716,94.102a24.2171,24.2171,0,0,1-5.9776,9.8015,1.322,1.322,0,0,1-.935.3856Z"/></svg>