<svg id="acb3f107-fdd7-4082-aa1b-153db6cdcb02" data-name="Layer 1" xmlns="http://www.w3.org/2000/svg" xmlns:xlink="http://www.w3.org/1999/xlink" viewBox="0 0 262 180"><defs><style>.f9c7667a-4b48-403d-8ee4-e017d537c5af{fill:none;}.f4812149-c1bb-4b00-aa4b-d85fbc7c97fa{fill:#e00;}.e0a33f1e-638a-4c14-b65a-7f6297c9bc07{clip-path:url(#a8c7773a-8515-4de7-b0e0-4b3ea9cad1cd);}.b01a8f30-dc37-4366-b045-ec20b9f80ace{clip-path:url(#bb22e012-ffa6-4d37-a121-b0dcbaad899d);}.f6b2fbd2-7f1e-4800-aa82-3993b4e7a09d{fill:#e80000;}.bcf96054-9f58-47fc-9f9d-50b204bf0528{clip-path:url(#a04ec24a-3b0f-4818-be0d-6fd603dd07fd);}.fd58398c-535a-4f4c-a098-50bf2fa9d0cb{clip-path:url(#aad4004c-6fc5-46dd-a1c1-241ba8bcc91a);}.bc7a13aa-0f96-4611-bed2-1fd6fb65d07d{clip-path:url(#e816ee7e-f472-4505-a7c9-ed421cf42946);}.b3293bd2-1381-4723-98ed-04f4165c8dc5{clip-path:url(#a533db84-7e4e-4b90-89e8-3dc21f9cd344);}.eb51b77a-7669-4c17-a6bc-6f47a01d6d17{clip-path:url(#bf0eb2d6-3497-4662-834f-a3d23374ecf1);}.f507bf81-ea05-4483-a3c3-2b1270ec4ff2{clip-path:url(#bb629cf2-d1dd-447b-bf00-5efa5a2699f4);}.ff9113d4-281d-481e-ac1a-a793456e810c{clip-path:url(#ef5c9321-57b6-43b6-8286-4f11f9864c80);}.a3dacf85-037c-44d8-a7d5-b235265ec233{clip-path:url(#a859fdcc-84af-498c-b69f-4b06e96c9498);}.b1f9501f-c5a8-414e-8bb3-0a9fd620ff0b{clip-path:url(#ee37009c-c4b0-4265-a4a2-2075ee3c86ab);}.bdf6fc5d-a7ab-4337-b690-aaf84d59a432{clip-path:url(#a4d1232f-033a-4474-a818-858ca157fce3);}.e8391650-f209-4f70-b489-dc1be49057e9{clip-path:url(#a080c947-ad34-41f2-9e0e-6347eb48a0b8);}.bccd83ea-ea74-49f0-aeaa-235bccb0ad51{clip-path:url(#a2702fb9-2cbf-467a-8960-04f150c58194);}.b47723de-4623-49b3-964d-e34597dfb176{clip-path:url(#b6d44d86-e04e-4b8d-90f1-d662d69661de);}.a6dcc1a9-7f33-4d14-afbd-2dbcdc72c88b{clip-path:url(#f5ea6a91-ca22-4f1e-a6c5-98ed735d8b7b);}.ad8c267b-bb3a-4ea6-b7af-794be7b8ecd7{clip-path:url(#bc83089f-0717-4a2c-9338-825c60d9e7dc);}.b0e21dde-323f-44d1-b800-e8dca0fce618{clip-path:url(#e1bb87a8-39a9-4c8e-9662-ea1d8f783163);}.e503286e-af36-499c-ae5c-6bcc8599c5bf{clip-path:url(#a494ea84-d25a-4224-97e8-ee471ffda1e4);}.a129344c-0665-44a4-82f7-795296945dff{clip-path:url(#bfc81c82-ca0e-4662-a3f3-ba6570c55fbb);}.a13b1da2-c5b6-497d-88a4-8590ba95f624{clip-path:url(#aef7ba06-a0fb-47b1-8a89-c064784d05d1);}.ed550565-c833-492d-8779-75a755e99748{clip-path:url(#b0bc4f58-1c44-40f4-8988-c2abd0288a26);}.accdccfd-3080-46b5-942e-a86f908ec77a{clip-path:url(#ab6e7839-c451-427f-8c0f-351ab57dc58b);}.bfc3b350-9ff3-4a67-a9b8-e44b8530c0fe{clip-path:url(#b2d35b8c-0ca4-42f3-b4f0-d05f86b8d76b);}.ff79c89b-94cd-49fa-b750-041315d5892e{clip-path:url(#a883684d-261a-4e0a-a1bb-56ff3054a390);}.e7f45b04-75c7-402b-89c7-4298f2bf8e92{clip-path:url(#adf8cbbd-5a1e-4e21-b6a4-53db8cd91534);}.ec143d1c-0d18-4033-8e45-a208c4a6aa95{clip-path:url(#f6e1bc7d-d067-4654-9f9d-b205ee78fd5b);}.b0854a93-742f-43b2-8b95-364f85cca0b5{clip-path:url(#a39800e9-b97e-422a-85be-48b25435443a);}.b812921e-a7a9-4e44-b784-1162467adf2a{clip-path:url(#b1b53347-8235-4cd8-8bc2-0c680e75240f);}.b3f19bd8-1ff3-4719-a57a-540cf64bc2c5{clip-path:url(#fd8ed403-53ef-452f-97ee-dea457df2fa2);}.b39fc806-f566-4cb3-9710-e80c3bbd3077{clip-path:url(#be3444bc-10cf-4e21-9e07-ba55fe681196);}.be684a71-be99-40c2-a4e7-de4f18c93a85{clip-path:url(#fa505fbb-a1f3-4e52-aa0e-c2fbfdf93d42);}.aabc45f1-f3ec-4cc5-84c8-4d917e88c2dc{clip-path:url(#bcd37cfd-90e5-4bac-9fbd-430acccb0af4);}.fd6d976f-781b-4272-be77-e42155813d53{clip-path:url(#aa931916-594f-4910-9342-6aec78f2bb71);}.af6d7915-9ccb-4ef3-b883-1dba952e3dde{clip-path:url(#ecd87c3a-0b43-428e-b9f5-beabbce4d447);}.ea445841-d02c-41d6-99d6-8af197bcb7bc{clip-path:url(#f72d7ed3-d5c0-42e2-a1c5-65401e5d673b);}.b2491dd5-f3d7-43e0-ab4e-55e500ede208{fill:#fff;}</style><clipPath id="a8c7773a-8515-4de7-b0e0-4b3ea9cad1cd"><path class="f9c7667a-4b48-403d-8ee4-e017d537c5af" d="M67.6712,104.01A41.0787,41.0787,0,0,1,81.3737,85.02c11.2995-8.9011,5.6172-20.6971,4.9982-24.4532,0,0,15.15,10.4736,5.0927,27.5012,0,0-7.3511,9.5234-8.81,15.9424Z"/></clipPath><clipPath id="bb22e012-ffa6-4d37-a121-b0dcbaad899d"><rect class="f9c7667a-4b48-403d-8ee4-e017d537c5af" x="92.5477" y="60.0333" width="7.098" height="7.0982"/></clipPath><clipPath id="a04ec24a-3b0f-4818-be0d-6fd603dd07fd"><rect class="f9c7667a-4b48-403d-8ee4-e017d537c5af" x="92.5477" y="67.1316" width="7.098" height="7.0982"/></clipPath><clipPath id="aad4004c-6fc5-46dd-a1c1-241ba8bcc91a"><rect class="f9c7667a-4b48-403d-8ee4-e017d537c5af" x="92.5477" y="74.2298" width="7.098" height="7.0982"/></clipPath><clipPath id="e816ee7e-f472-4505-a7c9-ed421cf42946"><rect class="f9c7667a-4b48-403d-8ee4-e017d537c5af" x="92.5477" y="81.328" width="7.098" height="7.0982"/></clipPath><clipPath id="a533db84-7e4e-4b90-89e8-3dc21f9cd344"><rect class="f9c7667a-4b48-403d-8ee4-e017d537c5af" x="92.5477" y="88.4263" width="7.098" height="7.0982"/></clipPath><clipPath id="bf0eb2d6-3497-4662-834f-a3d23374ecf1"><rect class="f9c7667a-4b48-403d-8ee4-e017d537c5af" x="92.5477" y="95.5245" width="7.098" height="7.0982"/></clipPath><clipPath id="bb629cf2-d1dd-447b-bf00-5efa5a2699f4"><rect class="f9c7667a-4b48-403d-8ee4-e017d537c5af" x="92.5477" y="102.6228" width="7.098" height="7.0982"/></clipPath><clipPath id="ef5c9321-57b6-43b6-8286-4f11f9864c80"><rect class="f9c7667a-4b48-403d-8ee4-e017d537c5af" x="85.4498" y="60.0333" width="7.098" height="7.0982"/></clipPath><clipPath id="a859fdcc-84af-498c-b69f-4b06e96c9498"><rect class="f9c7667a-4b48-403d-8ee4-e017d537c5af" x="85.4498" y="67.1316" width="7.098" height="7.0982"/></clipPath><clipPath id="ee37009c-c4b0-4265-a4a2-2075ee3c86ab"><rect class="f9c7667a-4b48-403d-8ee4-e017d537c5af" x="85.4498" y="74.2298" width="7.098" height="7.0982"/></clipPath><clipPath id="a4d1232f-033a-4474-a818-858ca157fce3"><rect class="f9c7667a-4b48-403d-8ee4-e017d537c5af" x="85.4498" y="81.328" width="7.098" height="7.0982"/></clipPath><clipPath id="a080c947-ad34-41f2-9e0e-6347eb48a0b8"><rect class="f9c7667a-4b48-403d-8ee4-e017d537c5af" x="85.4498" y="88.4263" width="7.098" height="7.0982"/></clipPath><clipPath id="a2702fb9-2cbf-467a-8960-04f150c58194"><rect class="f9c7667a-4b48-403d-8ee4-e017d537c5af" x="85.4498" y="95.5245" width="7.098" height="7.0982"/></clipPath><clipPath id="b6d44d86-e04e-4b8d-90f1-d662d69661de"><rect class="f9c7667a-4b48-403d-8ee4-e017d537c5af" x="85.4498" y="102.6228" width="7.098" height="7.0982"/></clipPath><clipPath id="f5ea6a91-ca22-4f1e-a6c5-98ed735d8b7b"><rect class="f9c7667a-4b48-403d-8ee4-e017d537c5af" x="78.3518" y="60.0333" width="7.098" height="7.0982"/></clipPath><clipPath id="bc83089f-0717-4a2c-9338-825c60d9e7dc"><rect class="f9c7667a-4b48-403d-8ee4-e017d537c5af" x="78.3518" y="67.1316" width="7.098" height="7.0982"/></clipPath><clipPath id="e1bb87a8-39a9-4c8e-9662-ea1d8f783163"><rect class="f9c7667a-4b48-403d-8ee4-e017d537c5af" x="78.3518" y="74.2298" width="7.098" height="7.0982"/></clipPath><clipPath id="a494ea84-d25a-4224-97e8-ee471ffda1e4"><rect class="f9c7667a-4b48-403d-8ee4-e017d537c5af" x="78.3518" y="81.328" width="7.098" height="7.0982"/></clipPath><clipPath id="bfc81c82-ca0e-4662-a3f3-ba6570c55fbb"><rect class="f9c7667a-4b48-403d-8ee4-e017d537c5af" x="78.3518" y="88.4263" width="7.098" height="7.0982"/></clipPath><clipPath id="aef7ba06-a0fb-47b1-8a89-c064784d05d1"><rect class="f9c7667a-4b48-403d-8ee4-e017d537c5af" x="78.3518" y="95.5245" width="7.098" height="7.0982"/></clipPath><clipPath id="b0bc4f58-1c44-40f4-8988-c2abd0288a26"><rect class="f9c7667a-4b48-403d-8ee4-e017d537c5af" x="78.3518" y="102.6228" width="7.098" height="7.0982"/></clipPath><clipPath id="ab6e7839-c451-427f-8c0f-351ab57dc58b"><rect class="f9c7667a-4b48-403d-8ee4-e017d537c5af" x="71.2538" y="60.0333" width="7.098" height="7.0982"/></clipPath><clipPath id="b2d35b8c-0ca4-42f3-b4f0-d05f86b8d76b"><rect class="f9c7667a-4b48-403d-8ee4-e017d537c5af" x="71.2538" y="67.1316" width="7.098" height="7.0982"/></clipPath><clipPath id="a883684d-261a-4e0a-a1bb-56ff3054a390"><rect class="f9c7667a-4b48-403d-8ee4-e017d537c5af" x="71.2538" y="74.2298" width="7.098" height="7.0982"/></clipPath><clipPath id="adf8cbbd-5a1e-4e21-b6a4-53db8cd91534"><rect class="f9c7667a-4b48-403d-8ee4-e017d537c5af" x="71.2538" y="81.328" width="7.098" height="7.0982"/></clipPath><clipPath id="f6e1bc7d-d067-4654-9f9d-b205ee78fd5b"><rect class="f9c7667a-4b48-403d-8ee4-e017d537c5af" x="71.2538" y="88.4263" width="7.098" height="7.0982"/></clipPath><clipPath id="a39800e9-b97e-422a-85be-48b25435443a"><rect class="f9c7667a-4b48-403d-8ee4-e017d537c5af" x="71.2538" y="95.5245" width="7.098" height="7.0982"/></clipPath><clipPath id="b1b53347-8235-4cd8-8bc2-0c680e75240f"><rect class="f9c7667a-4b48-403d-8ee4-e017d537c5af" x="71.2538" y="102.6228" width="7.098" height="7.0982"/></clipPath><clipPath id="fd8ed403-53ef-452f-97ee-dea457df2fa2"><rect class="f9c7667a-4b48-403d-8ee4-e017d537c5af" x="64.1558" y="60.0333" width="7.098" height="7.0982"/></clipPath><clipPath id="be3444bc-10cf-4e21-9e07-ba55fe681196"><rect class="f9c7667a-4b48-403d-8ee4-e017d537c5af" x="64.1558" y="67.1316" width="7.098" height="7.0982"/></clipPath><clipPath id="fa505fbb-a1f3-4e52-aa0e-c2fbfdf93d42"><rect class="f9c7667a-4b48-403d-8ee4-e017d537c5af" x="64.1558" y="74.2298" width="7.098" height="7.0982"/></clipPath><clipPath id="bcd37cfd-90e5-4bac-9fbd-430acccb0af4"><rect class="f9c7667a-4b48-403d-8ee4-e017d537c5af" x="64.1558" y="81.328" width="7.098" height="7.0982"/></clipPath><clipPath id="aa931916-594f-4910-9342-6aec78f2bb71"><rect class="f9c7667a-4b48-403d-8ee4-e017d537c5af" x="64.1558" y="88.4263" width="7.098" height="7.0982"/></clipPath><clipPath id="ecd87c3a-0b43-428e-b9f5-beabbce4d447"><rect class="f9c7667a-4b48-403d-8ee4-e017d537c5af" x="64.1558" y="95.5245" width="7.098" height="7.0982"/></clipPath><clipPath id="f72d7ed3-d5c0-42e2-a1c5-65401e5d673b"><rect class="f9c7667a-4b48-403d-8ee4-e017d537c5af" x="64.1558" y="102.6228" width="7.098" height="7.0982"/></clipPath></defs><path d="M104.6426,69.8269h6.8243c3.0139,0,5.0376,1.8082,5.0376,4.4563a4.25,4.25,0,0,1-3.1,4.1118l3.3584,6.5013h-2.4972l-3.1217-6.1784h-4.2411v6.1784h-2.26Zm6.6522,6.9966c1.7651,0,2.9492-.99,2.9492-2.5188,0-1.5071-1.1841-2.4972-2.9492-2.4972h-4.392v5.016Z"/><path d="M117.43,79.4067a5.5244,5.5244,0,0,1,5.49-5.6617c3.0139,0,5.2959,2.5188,5.2959,5.7695v.6028h-8.6328a3.6928,3.6928,0,0,0,3.6814,3.1429,4.149,4.149,0,0,0,2.7771-.9686l1.3778,1.3562a6.5764,6.5764,0,0,1-4.2411,1.4424A5.6387,5.6387,0,0,1,117.43,79.4067Zm8.6543-.904a3.3721,3.3721,0,0,0-3.2078-2.9279,3.3278,3.3278,0,0,0-3.2722,2.9279Z"/><path d="M129.7862,79.4067a5.5375,5.5375,0,0,1,5.5758-5.64,5.4587,5.4587,0,0,1,3.2938,1.098V69.8269l2.1527-.4092V84.8963h-2.1312V83.8415a4.9988,4.9988,0,0,1-3.3584,1.2272A5.5336,5.5336,0,0,1,129.7862,79.4067Zm8.87,2.4544v-4.93a4.0355,4.0355,0,0,0-3.057-1.3134,3.79,3.79,0,0,0,0,7.5777A3.8769,3.8769,0,0,0,138.6558,81.8611Z"/><path d="M148.1061,69.8269h2.26v6.4584h8.0084V69.8269h2.2605V84.8963h-2.2605V78.33h-8.0084v6.566h-2.26Z"/><path d="M162.68,81.7534c0-2.0666,1.6792-3.3369,4.4348-3.3369a7.3016,7.3016,0,0,1,2.9923.6244V77.8783c0-1.55-.9255-2.3466-2.6693-2.3466a7.7914,7.7914,0,0,0-3.4015.9258l-.7965-1.6146a10.3269,10.3269,0,0,1,4.4994-1.12c2.863,0,4.4779,1.3994,4.4779,3.8966v7.2763h-2.11v-.9471a5.1975,5.1975,0,0,1-3.4012,1.141C164.3376,85.09,162.68,83.7337,162.68,81.7534Zm4.521,1.7223a4.15,4.15,0,0,0,2.9061-1.0333V80.5908a5.427,5.427,0,0,0-2.82-.689c-1.5714,0-2.54.7106-2.54,1.8085C164.7467,82.7651,165.7369,83.4757,167.2009,83.4757Z"/><path d="M175.79,82.1838V75.7472h-2.3248V73.9387H175.79V71.14l2.1315-.5166v3.3153h3.2291v1.8085h-3.2291v5.9415c0,1.12.452,1.55,1.6146,1.55a4.2357,4.2357,0,0,0,1.5714-.2581v1.8082a7.235,7.235,0,0,1-2.045.3014C176.9311,85.09,175.79,84.1,175.79,82.1838Z"/><path d="M104.2335,100.9988V92.4306h3.1216v8.5682c0,2.3251,1.3993,3.8319,3.5736,3.8319,2.1528,0,3.53-1.5068,3.53-3.8319V92.4306h3.1217v8.5682c0,4.09-2.6266,6.7168-6.6737,6.7168C106.8385,107.7156,104.2335,105.1106,104.2335,100.9988Z"/><path d="M119.8837,96.2841h2.9492v.9043a4.6778,4.6778,0,0,1,3.1432-1.12,4.2611,4.2611,0,0,1,4.4348,4.4779V107.5h-2.9493v-6.5229a2.193,2.193,0,0,0-2.3251-2.3679,2.7415,2.7415,0,0,0-2.3036,1.1192V107.5h-2.9492Z"/><path d="M132.4341,93.27a1.6792,1.6792,0,1,1,1.6792,1.6792A1.6814,1.6814,0,0,1,132.4341,93.27Zm.2152,3.0139h2.9492V107.5h-2.9492Z"/><path d="M136.739,96.2841h3.2078l3.0783,7.47,3.057-7.47h3.1432L144.4029,107.5H141.54Z"/><path d="M149.5477,101.903a5.7385,5.7385,0,0,1,5.77-5.8125c3.186,0,5.5542,2.5831,5.5542,6.0277v.775h-8.31a3.1863,3.1863,0,0,0,3.1432,2.3464,3.4939,3.4939,0,0,0,2.4757-.904l1.9375,1.7654a6.74,6.74,0,0,1-4.564,1.6146A5.8337,5.8337,0,0,1,149.5477,101.903Zm8.4173-1.12a2.8147,2.8147,0,0,0-2.7125-2.26,2.7606,2.7606,0,0,0-2.734,2.26Z"/><path d="M162.6794,96.2841h2.9492v1.2485a3.5872,3.5872,0,0,1,2.9924-1.5068,2.483,2.483,0,0,1,1.2272.2583v2.5835a3.76,3.76,0,0,0-1.5071-.3014,3.0011,3.0011,0,0,0-2.7125,1.6576V107.5h-2.9492Z"/><path d="M170.6442,106.1657l1.464-1.9594a6.4063,6.4063,0,0,0,3.6382,1.2919c1.3132,0,2.1743-.4736,2.1743-1.2057,0-.5813-.43-.904-1.3993-1.0548l-2.1528-.323c-2.2173-.3229-3.4015-1.4639-3.4015-3.2722,0-2.1527,1.8085-3.552,4.6716-3.552a8.2735,8.2735,0,0,1,4.6071,1.3993l-1.4208,1.916a6.4686,6.4686,0,0,0-3.4662-1.098c-1.0548,0-1.7651.452-1.7651,1.098,0,.6243.43.9255,1.5283,1.0763l2.1528.323c2.1958.323,3.423,1.464,3.423,3.2076,0,2.1314-2.0881,3.7029-4.9083,3.7029A8.267,8.267,0,0,1,170.6442,106.1657Z"/><path d="M181.9461,93.27a1.6792,1.6792,0,1,1,1.6792,1.6792A1.6814,1.6814,0,0,1,181.9461,93.27Zm.2152,3.0139h2.9492V107.5h-2.9492Z"/><path d="M188.9422,104.3356V98.7383h-2.3033V96.2841h2.3033v-2.863l2.9495-.6675v3.53h3.2076v2.4542h-3.2076v4.9945c0,1.0548.4089,1.4424,1.55,1.4424a4.5368,4.5368,0,0,0,1.5715-.2583V107.35a9.1371,9.1371,0,0,1-2.2818.3227C190.2341,107.6725,188.9422,106.5315,188.9422,104.3356Z"/><path d="M196.52,112.0211v-2.54a4.88,4.88,0,0,0,1.0333.0856,2.285,2.285,0,0,0,2.239-1.5283l.1721-.4305-4.37-11.3237h3.2506l2.7987,7.6426,3.1647-7.6426h3.186l-5.1666,12.099c-1.1841,2.734-2.54,3.7457-4.973,3.7457A7.4071,7.4071,0,0,1,196.52,112.0211Z"/><path class="f4812149-c1bb-4b00-aa4b-d85fbc7c97fa" d="M75.2616,104.7078a69.7862,69.7862,0,0,1-7.6287-.3863L67.46,104.3l-.0732-.1581c-.0382-.0826-3.8741-8.3054-7.8945-12.8224l-.0894-.1007q-.1647-.1806-.3248-.3647l-.051-.0573h.0015A20.6985,20.6985,0,1,1,95.4058,77.2851c0,5.8207-3.0316,10.3424-6.694,15.2327a39.2272,39.2272,0,0,0-5.7545,11.5751l-.0564.2059-.2122.0233A68.878,68.878,0,0,1,75.2616,104.7078Zm-7.381-.99a73.4925,73.4925,0,0,0,14.5314.0026,40.0365,40.0365,0,0,1,5.7972-11.5789c3.5939-4.7989,6.5686-9.2289,6.5686-14.8564A20.072,20.072,0,1,0,59.96,90.8979l.4867.5268h-.0344C64.0115,95.718,67.3422,102.5853,67.8806,103.7178Z"/><path class="f4812149-c1bb-4b00-aa4b-d85fbc7c97fa" d="M75.0178,104.3217a.3138.3138,0,0,1-.3138-.3138V82.5755a.3138.3138,0,0,1,.6276,0v21.4324A.3139.3139,0,0,1,75.0178,104.3217Z"/><path class="f4812149-c1bb-4b00-aa4b-d85fbc7c97fa" d="M80.0037,82.8893c-.8283,0-1.2035-.8522-1.5345-1.6041-.3269-.7426-.57-1.23-.96-1.23s-.6326.4869-.9593,1.23c-.3308.7519-.7058,1.6041-1.5337,1.6041s-1.2033-.8524-1.5343-1.6043c-.3267-.7426-.57-1.2293-.96-1.2293s-.6325.4867-.9592,1.2293c-.3308.7519-.7056,1.6043-1.5337,1.6043s-1.2027-.8524-1.5335-1.6043c-.3265-.7426-.57-1.2293-.9588-1.2293a.3138.3138,0,0,1,0-.6276c.8277,0,1.2026.8522,1.5334,1.6041.3264.7426.57,1.23.9589,1.23s.6325-.4867.9591-1.2293c.3308-.7519.7057-1.6043,1.5338-1.6043s1.2031.8522,1.5341,1.6041c.3267.7426.57,1.23.96,1.23s.6324-.4867.9591-1.2293c.3308-.7519.7058-1.6043,1.5339-1.6043s1.2037.8524,1.5347,1.6043c.3269.7426.57,1.2293.96,1.2293s.6332-.4869.96-1.23c.3311-.7519.7062-1.6041,1.5346-1.6041a.3138.3138,0,1,1,0,.6276c-.39,0-.6332.4869-.96,1.23C81.2072,82.0371,80.8322,82.8893,80.0037,82.8893Z"/><path class="f4812149-c1bb-4b00-aa4b-d85fbc7c97fa" d="M59.0848,74.7715a.3144.3144,0,0,1-.3023-.3991,21.415,21.415,0,0,1,3.0192-5.9864,16.7452,16.7452,0,0,1,11.3616-7.1592.3139.3139,0,0,1,.0866.6217,16.1286,16.1286,0,0,0-10.9252,6.8849,21.1947,21.1947,0,0,0-2.9381,5.81A.3141.3141,0,0,1,59.0848,74.7715Z"/><g class="e0a33f1e-638a-4c14-b65a-7f6297c9bc07"><g class="b01a8f30-dc37-4366-b045-ec20b9f80ace"><path class="f6b2fbd2-7f1e-4800-aa82-3993b4e7a09d" d="M99.6457,67.4864a.3548.3548,0,1,0-.355-.3548A.3549.3549,0,0,0,99.6457,67.4864Z"/><path class="f6b2fbd2-7f1e-4800-aa82-3993b4e7a09d" d="M96.0966,67.4864a.3548.3548,0,1,0-.3548-.3548A.355.355,0,0,0,96.0966,67.4864Z"/><path class="f6b2fbd2-7f1e-4800-aa82-3993b4e7a09d" d="M99.6457,63.9377a.355.355,0,1,0-.355-.3552A.3552.3552,0,0,0,99.6457,63.9377Z"/><path class="f6b2fbd2-7f1e-4800-aa82-3993b4e7a09d" d="M96.0966,63.9377a.355.355,0,1,0-.3548-.3552A.3554.3554,0,0,0,96.0966,63.9377Z"/><path class="f6b2fbd2-7f1e-4800-aa82-3993b4e7a09d" d="M94.322,65.7121a.3551.3551,0,1,0-.3548-.3548A.355.355,0,0,0,94.322,65.7121Z"/><path class="f6b2fbd2-7f1e-4800-aa82-3993b4e7a09d" d="M97.8711,65.7121a.3551.3551,0,1,0-.355-.3548A.355.355,0,0,0,97.8711,65.7121Z"/><path class="f6b2fbd2-7f1e-4800-aa82-3993b4e7a09d" d="M94.322,62.1629a.355.355,0,1,0-.3548-.3547A.355.355,0,0,0,94.322,62.1629Z"/><path class="f6b2fbd2-7f1e-4800-aa82-3993b4e7a09d" d="M97.8711,62.1629a.355.355,0,1,0-.355-.3547A.3549.3549,0,0,0,97.8711,62.1629Z"/><path class="f6b2fbd2-7f1e-4800-aa82-3993b4e7a09d" d="M92.5477,67.4864a.3548.3548,0,1,0-.355-.3548A.3549.3549,0,0,0,92.5477,67.4864Z"/><path class="f6b2fbd2-7f1e-4800-aa82-3993b4e7a09d" d="M92.5477,63.9377a.355.355,0,1,0-.355-.3552A.3552.3552,0,0,0,92.5477,63.9377Z"/><path class="f6b2fbd2-7f1e-4800-aa82-3993b4e7a09d" d="M99.6457,60.3881a.3548.3548,0,1,0-.355-.3547A.3548.3548,0,0,0,99.6457,60.3881Z"/><path class="f6b2fbd2-7f1e-4800-aa82-3993b4e7a09d" d="M96.0966,60.3881a.3548.3548,0,1,0-.3548-.3547A.355.355,0,0,0,96.0966,60.3881Z"/><path class="f6b2fbd2-7f1e-4800-aa82-3993b4e7a09d" d="M92.5477,60.3881a.3548.3548,0,1,0-.355-.3547A.3548.3548,0,0,0,92.5477,60.3881Z"/></g><g class="bcf96054-9f58-47fc-9f9d-50b204bf0528"><path class="f6b2fbd2-7f1e-4800-aa82-3993b4e7a09d" d="M99.6457,74.5846a.3548.3548,0,1,0-.355-.3548A.3548.3548,0,0,0,99.6457,74.5846Z"/><path class="f6b2fbd2-7f1e-4800-aa82-3993b4e7a09d" d="M96.0966,74.5846a.3548.3548,0,1,0-.3548-.3548A.355.355,0,0,0,96.0966,74.5846Z"/><path class="f6b2fbd2-7f1e-4800-aa82-3993b4e7a09d" d="M99.6457,71.036a.355.355,0,1,0-.355-.3553A.3553.3553,0,0,0,99.6457,71.036Z"/><path class="f6b2fbd2-7f1e-4800-aa82-3993b4e7a09d" d="M96.0966,71.036a.355.355,0,1,0-.3548-.3553A.3555.3555,0,0,0,96.0966,71.036Z"/><path class="f6b2fbd2-7f1e-4800-aa82-3993b4e7a09d" d="M94.322,72.81a.355.355,0,1,0-.3548-.3548A.355.355,0,0,0,94.322,72.81Z"/><path class="f6b2fbd2-7f1e-4800-aa82-3993b4e7a09d" d="M97.8711,72.81a.355.355,0,1,0-.355-.3548A.355.355,0,0,0,97.8711,72.81Z"/><path class="f6b2fbd2-7f1e-4800-aa82-3993b4e7a09d" d="M94.322,69.2612a.355.355,0,1,0-.3548-.3548A.355.355,0,0,0,94.322,69.2612Z"/><path class="f6b2fbd2-7f1e-4800-aa82-3993b4e7a09d" d="M97.8711,69.2612a.355.355,0,1,0-.355-.3548A.355.355,0,0,0,97.8711,69.2612Z"/><path class="f6b2fbd2-7f1e-4800-aa82-3993b4e7a09d" d="M92.5477,74.5846a.3548.3548,0,1,0-.355-.3548A.3548.3548,0,0,0,92.5477,74.5846Z"/><path class="f6b2fbd2-7f1e-4800-aa82-3993b4e7a09d" d="M92.5477,71.036a.355.355,0,1,0-.355-.3553A.3553.3553,0,0,0,92.5477,71.036Z"/><path class="f6b2fbd2-7f1e-4800-aa82-3993b4e7a09d" d="M99.6457,67.4864a.3548.3548,0,1,0-.355-.3548A.3549.3549,0,0,0,99.6457,67.4864Z"/><path class="f6b2fbd2-7f1e-4800-aa82-3993b4e7a09d" d="M96.0966,67.4864a.3548.3548,0,1,0-.3548-.3548A.355.355,0,0,0,96.0966,67.4864Z"/><path class="f6b2fbd2-7f1e-4800-aa82-3993b4e7a09d" d="M92.5477,67.4864a.3548.3548,0,1,0-.355-.3548A.3549.3549,0,0,0,92.5477,67.4864Z"/></g><g class="fd58398c-535a-4f4c-a098-50bf2fa9d0cb"><path class="f6b2fbd2-7f1e-4800-aa82-3993b4e7a09d" d="M99.6457,81.6828a.3548.3548,0,1,0-.355-.3547A.3548.3548,0,0,0,99.6457,81.6828Z"/><path class="f6b2fbd2-7f1e-4800-aa82-3993b4e7a09d" d="M96.0966,81.6828a.3548.3548,0,1,0-.3548-.3547A.355.355,0,0,0,96.0966,81.6828Z"/><path class="f6b2fbd2-7f1e-4800-aa82-3993b4e7a09d" d="M99.6457,78.1342a.355.355,0,1,0-.355-.3552A.3552.3552,0,0,0,99.6457,78.1342Z"/><path class="f6b2fbd2-7f1e-4800-aa82-3993b4e7a09d" d="M96.0966,78.1342a.355.355,0,1,0-.3548-.3552A.3554.3554,0,0,0,96.0966,78.1342Z"/><path class="f6b2fbd2-7f1e-4800-aa82-3993b4e7a09d" d="M94.322,79.9085a.355.355,0,1,0-.3548-.3547A.355.355,0,0,0,94.322,79.9085Z"/><path class="f6b2fbd2-7f1e-4800-aa82-3993b4e7a09d" d="M97.8711,79.9085a.355.355,0,1,0-.355-.3547A.3549.3549,0,0,0,97.8711,79.9085Z"/><path class="f6b2fbd2-7f1e-4800-aa82-3993b4e7a09d" d="M94.322,76.3594a.355.355,0,1,0-.3548-.3548A.355.355,0,0,0,94.322,76.3594Z"/><path class="f6b2fbd2-7f1e-4800-aa82-3993b4e7a09d" d="M97.8711,76.3594a.355.355,0,1,0-.355-.3548A.3549.3549,0,0,0,97.8711,76.3594Z"/><path class="f6b2fbd2-7f1e-4800-aa82-3993b4e7a09d" d="M92.5477,81.6828a.3548.3548,0,1,0-.355-.3547A.3548.3548,0,0,0,92.5477,81.6828Z"/><path class="f6b2fbd2-7f1e-4800-aa82-3993b4e7a09d" d="M92.5477,78.1342a.355.355,0,1,0-.355-.3552A.3552.3552,0,0,0,92.5477,78.1342Z"/><path class="f6b2fbd2-7f1e-4800-aa82-3993b4e7a09d" d="M99.6457,74.5846a.3548.3548,0,1,0-.355-.3548A.3548.3548,0,0,0,99.6457,74.5846Z"/><path class="f6b2fbd2-7f1e-4800-aa82-3993b4e7a09d" d="M96.0966,74.5846a.3548.3548,0,1,0-.3548-.3548A.355.355,0,0,0,96.0966,74.5846Z"/><path class="f6b2fbd2-7f1e-4800-aa82-3993b4e7a09d" d="M92.5477,74.5846a.3548.3548,0,1,0-.355-.3548A.3548.3548,0,0,0,92.5477,74.5846Z"/></g><g class="bc7a13aa-0f96-4611-bed2-1fd6fb65d07d"><path class="f6b2fbd2-7f1e-4800-aa82-3993b4e7a09d" d="M99.6457,88.7811a.3548.3548,0,1,0-.355-.3548A.3549.3549,0,0,0,99.6457,88.7811Z"/><path class="f6b2fbd2-7f1e-4800-aa82-3993b4e7a09d" d="M96.0966,88.7811a.3548.3548,0,1,0-.3548-.3548A.355.355,0,0,0,96.0966,88.7811Z"/><path class="f6b2fbd2-7f1e-4800-aa82-3993b4e7a09d" d="M99.6457,85.2325a.3551.3551,0,1,0-.355-.3553A.3553.3553,0,0,0,99.6457,85.2325Z"/><path class="f6b2fbd2-7f1e-4800-aa82-3993b4e7a09d" d="M96.0966,85.2325a.3551.3551,0,1,0-.3548-.3553A.3555.3555,0,0,0,96.0966,85.2325Z"/><path class="f6b2fbd2-7f1e-4800-aa82-3993b4e7a09d" d="M94.322,87.0068a.3551.3551,0,1,0-.3548-.3548A.355.355,0,0,0,94.322,87.0068Z"/><path class="f6b2fbd2-7f1e-4800-aa82-3993b4e7a09d" d="M97.8711,87.0068a.3551.3551,0,1,0-.355-.3548A.355.355,0,0,0,97.8711,87.0068Z"/><path class="f6b2fbd2-7f1e-4800-aa82-3993b4e7a09d" d="M94.322,83.4576a.355.355,0,1,0-.3548-.3547A.355.355,0,0,0,94.322,83.4576Z"/><path class="f6b2fbd2-7f1e-4800-aa82-3993b4e7a09d" d="M97.8711,83.4576a.355.355,0,1,0-.355-.3547A.3549.3549,0,0,0,97.8711,83.4576Z"/><path class="f6b2fbd2-7f1e-4800-aa82-3993b4e7a09d" d="M92.5477,88.7811a.3548.3548,0,1,0-.355-.3548A.3549.3549,0,0,0,92.5477,88.7811Z"/><path class="f6b2fbd2-7f1e-4800-aa82-3993b4e7a09d" d="M92.5477,85.2325a.3551.3551,0,1,0-.355-.3553A.3553.3553,0,0,0,92.5477,85.2325Z"/><path class="f6b2fbd2-7f1e-4800-aa82-3993b4e7a09d" d="M99.6457,81.6828a.3548.3548,0,1,0-.355-.3547A.3548.3548,0,0,0,99.6457,81.6828Z"/><path class="f6b2fbd2-7f1e-4800-aa82-3993b4e7a09d" d="M96.0966,81.6828a.3548.3548,0,1,0-.3548-.3547A.355.355,0,0,0,96.0966,81.6828Z"/><path class="f6b2fbd2-7f1e-4800-aa82-3993b4e7a09d" d="M92.5477,81.6828a.3548.3548,0,1,0-.355-.3547A.3548.3548,0,0,0,92.5477,81.6828Z"/></g><g class="b3293bd2-1381-4723-98ed-04f4165c8dc5"><path class="f6b2fbd2-7f1e-4800-aa82-3993b4e7a09d" d="M99.6457,95.8793a.3548.3548,0,1,0-.355-.3548A.3548.3548,0,0,0,99.6457,95.8793Z"/><path class="f6b2fbd2-7f1e-4800-aa82-3993b4e7a09d" d="M96.0966,95.8793a.3548.3548,0,1,0-.3548-.3548A.355.355,0,0,0,96.0966,95.8793Z"/><path class="f6b2fbd2-7f1e-4800-aa82-3993b4e7a09d" d="M99.6457,92.3307a.355.355,0,1,0-.355-.3553A.3552.3552,0,0,0,99.6457,92.3307Z"/><path class="f6b2fbd2-7f1e-4800-aa82-3993b4e7a09d" d="M96.0966,92.3307a.355.355,0,1,0-.3548-.3553A.3554.3554,0,0,0,96.0966,92.3307Z"/><path class="f6b2fbd2-7f1e-4800-aa82-3993b4e7a09d" d="M94.322,94.105a.355.355,0,1,0-.3548-.3548A.355.355,0,0,0,94.322,94.105Z"/><path class="f6b2fbd2-7f1e-4800-aa82-3993b4e7a09d" d="M97.8711,94.105a.355.355,0,1,0-.355-.3548A.355.355,0,0,0,97.8711,94.105Z"/><path class="f6b2fbd2-7f1e-4800-aa82-3993b4e7a09d" d="M94.322,90.5559a.355.355,0,1,0-.3548-.3548A.355.355,0,0,0,94.322,90.5559Z"/><path class="f6b2fbd2-7f1e-4800-aa82-3993b4e7a09d" d="M97.8711,90.5559a.355.355,0,1,0-.355-.3548A.355.355,0,0,0,97.8711,90.5559Z"/><path class="f6b2fbd2-7f1e-4800-aa82-3993b4e7a09d" d="M92.5477,95.8793a.3548.3548,0,1,0-.355-.3548A.3548.3548,0,0,0,92.5477,95.8793Z"/><path class="f6b2fbd2-7f1e-4800-aa82-3993b4e7a09d" d="M92.5477,92.3307a.355.355,0,1,0-.355-.3553A.3552.3552,0,0,0,92.5477,92.3307Z"/><path class="f6b2fbd2-7f1e-4800-aa82-3993b4e7a09d" d="M99.6457,88.7811a.3548.3548,0,1,0-.355-.3548A.3549.3549,0,0,0,99.6457,88.7811Z"/><path class="f6b2fbd2-7f1e-4800-aa82-3993b4e7a09d" d="M96.0966,88.7811a.3548.3548,0,1,0-.3548-.3548A.355.355,0,0,0,96.0966,88.7811Z"/><path class="f6b2fbd2-7f1e-4800-aa82-3993b4e7a09d" d="M92.5477,88.7811a.3548.3548,0,1,0-.355-.3548A.3549.3549,0,0,0,92.5477,88.7811Z"/></g><g class="eb51b77a-7669-4c17-a6bc-6f47a01d6d17"><path class="f6b2fbd2-7f1e-4800-aa82-3993b4e7a09d" d="M99.6457,102.9776a.3548.3548,0,1,0-.355-.3548A.3549.3549,0,0,0,99.6457,102.9776Z"/><path class="f6b2fbd2-7f1e-4800-aa82-3993b4e7a09d" d="M96.0966,102.9776a.3548.3548,0,1,0-.3548-.3548A.355.355,0,0,0,96.0966,102.9776Z"/><path class="f6b2fbd2-7f1e-4800-aa82-3993b4e7a09d" d="M99.6457,99.4289a.355.355,0,1,0-.355-.3552A.3552.3552,0,0,0,99.6457,99.4289Z"/><path class="f6b2fbd2-7f1e-4800-aa82-3993b4e7a09d" d="M96.0966,99.4289a.355.355,0,1,0-.3548-.3552A.3554.3554,0,0,0,96.0966,99.4289Z"/><path class="f6b2fbd2-7f1e-4800-aa82-3993b4e7a09d" d="M94.322,101.2032a.355.355,0,1,0-.3548-.3547A.355.355,0,0,0,94.322,101.2032Z"/><path class="f6b2fbd2-7f1e-4800-aa82-3993b4e7a09d" d="M97.8711,101.2032a.355.355,0,1,0-.355-.3547A.3549.3549,0,0,0,97.8711,101.2032Z"/><path class="f6b2fbd2-7f1e-4800-aa82-3993b4e7a09d" d="M94.322,97.6541a.355.355,0,1,0-.3548-.3548A.355.355,0,0,0,94.322,97.6541Z"/><path class="f6b2fbd2-7f1e-4800-aa82-3993b4e7a09d" d="M97.8711,97.6541a.355.355,0,1,0-.355-.3548A.3549.3549,0,0,0,97.8711,97.6541Z"/><path class="f6b2fbd2-7f1e-4800-aa82-3993b4e7a09d" d="M92.5477,102.9776a.3548.3548,0,1,0-.355-.3548A.3549.3549,0,0,0,92.5477,102.9776Z"/><path class="f6b2fbd2-7f1e-4800-aa82-3993b4e7a09d" d="M92.5477,99.4289a.355.355,0,1,0-.355-.3552A.3552.3552,0,0,0,92.5477,99.4289Z"/><path class="f6b2fbd2-7f1e-4800-aa82-3993b4e7a09d" d="M99.6457,95.8793a.3548.3548,0,1,0-.355-.3548A.3548.3548,0,0,0,99.6457,95.8793Z"/><path class="f6b2fbd2-7f1e-4800-aa82-3993b4e7a09d" d="M96.0966,95.8793a.3548.3548,0,1,0-.3548-.3548A.355.355,0,0,0,96.0966,95.8793Z"/><path class="f6b2fbd2-7f1e-4800-aa82-3993b4e7a09d" d="M92.5477,95.8793a.3548.3548,0,1,0-.355-.3548A.3548.3548,0,0,0,92.5477,95.8793Z"/></g><g class="f507bf81-ea05-4483-a3c3-2b1270ec4ff2"><path class="f6b2fbd2-7f1e-4800-aa82-3993b4e7a09d" d="M99.6457,110.0758a.3548.3548,0,1,0-.355-.3548A.3549.3549,0,0,0,99.6457,110.0758Z"/><path class="f6b2fbd2-7f1e-4800-aa82-3993b4e7a09d" d="M96.0966,110.0758a.3548.3548,0,1,0-.3548-.3548A.355.355,0,0,0,96.0966,110.0758Z"/><path class="f6b2fbd2-7f1e-4800-aa82-3993b4e7a09d" d="M99.6457,106.5272a.3551.3551,0,1,0-.355-.3553A.3553.3553,0,0,0,99.6457,106.5272Z"/><path class="f6b2fbd2-7f1e-4800-aa82-3993b4e7a09d" d="M96.0966,106.5272a.3551.3551,0,1,0-.3548-.3553A.3555.3555,0,0,0,96.0966,106.5272Z"/><path class="f6b2fbd2-7f1e-4800-aa82-3993b4e7a09d" d="M94.322,108.3015a.3551.3551,0,1,0-.3548-.3548A.355.355,0,0,0,94.322,108.3015Z"/><path class="f6b2fbd2-7f1e-4800-aa82-3993b4e7a09d" d="M97.8711,108.3015a.3551.3551,0,1,0-.355-.3548A.355.355,0,0,0,97.8711,108.3015Z"/><path class="f6b2fbd2-7f1e-4800-aa82-3993b4e7a09d" d="M94.322,104.7524a.3551.3551,0,1,0-.3548-.3548A.355.355,0,0,0,94.322,104.7524Z"/><path class="f6b2fbd2-7f1e-4800-aa82-3993b4e7a09d" d="M97.8711,104.7524a.3551.3551,0,1,0-.355-.3548A.355.355,0,0,0,97.8711,104.7524Z"/><path class="f6b2fbd2-7f1e-4800-aa82-3993b4e7a09d" d="M92.5477,110.0758a.3548.3548,0,1,0-.355-.3548A.3549.3549,0,0,0,92.5477,110.0758Z"/><path class="f6b2fbd2-7f1e-4800-aa82-3993b4e7a09d" d="M92.5477,106.5272a.3551.3551,0,1,0-.355-.3553A.3553.3553,0,0,0,92.5477,106.5272Z"/><path class="f6b2fbd2-7f1e-4800-aa82-3993b4e7a09d" d="M99.6457,102.9776a.3548.3548,0,1,0-.355-.3548A.3549.3549,0,0,0,99.6457,102.9776Z"/><path class="f6b2fbd2-7f1e-4800-aa82-3993b4e7a09d" d="M96.0966,102.9776a.3548.3548,0,1,0-.3548-.3548A.355.355,0,0,0,96.0966,102.9776Z"/><path class="f6b2fbd2-7f1e-4800-aa82-3993b4e7a09d" d="M92.5477,102.9776a.3548.3548,0,1,0-.355-.3548A.3549.3549,0,0,0,92.5477,102.9776Z"/></g><g class="ff9113d4-281d-481e-ac1a-a793456e810c"><path class="f6b2fbd2-7f1e-4800-aa82-3993b4e7a09d" d="M92.5477,67.4864a.3548.3548,0,1,0-.355-.3548A.3549.3549,0,0,0,92.5477,67.4864Z"/><path class="f6b2fbd2-7f1e-4800-aa82-3993b4e7a09d" d="M88.9986,67.4864a.3548.3548,0,1,0-.3548-.3548A.355.355,0,0,0,88.9986,67.4864Z"/><path class="f6b2fbd2-7f1e-4800-aa82-3993b4e7a09d" d="M92.5477,63.9377a.355.355,0,1,0-.355-.3552A.3552.3552,0,0,0,92.5477,63.9377Z"/><path class="f6b2fbd2-7f1e-4800-aa82-3993b4e7a09d" d="M88.9986,63.9377a.355.355,0,1,0-.3548-.3552A.3554.3554,0,0,0,88.9986,63.9377Z"/><path class="f6b2fbd2-7f1e-4800-aa82-3993b4e7a09d" d="M87.224,65.7121a.3551.3551,0,1,0-.3547-.3548A.355.355,0,0,0,87.224,65.7121Z"/><path class="f6b2fbd2-7f1e-4800-aa82-3993b4e7a09d" d="M90.7731,65.7121a.3551.3551,0,1,0-.355-.3548A.3551.3551,0,0,0,90.7731,65.7121Z"/><path class="f6b2fbd2-7f1e-4800-aa82-3993b4e7a09d" d="M87.224,62.1629a.355.355,0,1,0-.3547-.3547A.355.355,0,0,0,87.224,62.1629Z"/><path class="f6b2fbd2-7f1e-4800-aa82-3993b4e7a09d" d="M90.7731,62.1629a.355.355,0,1,0-.355-.3547A.355.355,0,0,0,90.7731,62.1629Z"/><path class="f6b2fbd2-7f1e-4800-aa82-3993b4e7a09d" d="M85.45,67.4864a.3548.3548,0,1,0-.355-.3548A.3549.3549,0,0,0,85.45,67.4864Z"/><path class="f6b2fbd2-7f1e-4800-aa82-3993b4e7a09d" d="M85.45,63.9377a.355.355,0,1,0-.355-.3552A.3552.3552,0,0,0,85.45,63.9377Z"/><path class="f6b2fbd2-7f1e-4800-aa82-3993b4e7a09d" d="M92.5477,60.3881a.3548.3548,0,1,0-.355-.3547A.3548.3548,0,0,0,92.5477,60.3881Z"/><path class="f6b2fbd2-7f1e-4800-aa82-3993b4e7a09d" d="M88.9986,60.3881a.3548.3548,0,1,0-.3548-.3547A.355.355,0,0,0,88.9986,60.3881Z"/><path class="f6b2fbd2-7f1e-4800-aa82-3993b4e7a09d" d="M85.45,60.3881a.3548.3548,0,1,0-.355-.3547A.3548.3548,0,0,0,85.45,60.3881Z"/></g><g class="a3dacf85-037c-44d8-a7d5-b235265ec233"><path class="f6b2fbd2-7f1e-4800-aa82-3993b4e7a09d" d="M92.5477,74.5846a.3548.3548,0,1,0-.355-.3548A.3548.3548,0,0,0,92.5477,74.5846Z"/><path class="f6b2fbd2-7f1e-4800-aa82-3993b4e7a09d" d="M88.9986,74.5846a.3548.3548,0,1,0-.3548-.3548A.355.355,0,0,0,88.9986,74.5846Z"/><path class="f6b2fbd2-7f1e-4800-aa82-3993b4e7a09d" d="M92.5477,71.036a.355.355,0,1,0-.355-.3553A.3553.3553,0,0,0,92.5477,71.036Z"/><path class="f6b2fbd2-7f1e-4800-aa82-3993b4e7a09d" d="M88.9986,71.036a.355.355,0,1,0-.3548-.3553A.3555.3555,0,0,0,88.9986,71.036Z"/><path class="f6b2fbd2-7f1e-4800-aa82-3993b4e7a09d" d="M87.224,72.81a.355.355,0,1,0-.3547-.3548A.355.355,0,0,0,87.224,72.81Z"/><path class="f6b2fbd2-7f1e-4800-aa82-3993b4e7a09d" d="M90.7731,72.81a.355.355,0,1,0-.355-.3548A.3551.3551,0,0,0,90.7731,72.81Z"/><path class="f6b2fbd2-7f1e-4800-aa82-3993b4e7a09d" d="M87.224,69.2612a.355.355,0,1,0-.3547-.3548A.355.355,0,0,0,87.224,69.2612Z"/><path class="f6b2fbd2-7f1e-4800-aa82-3993b4e7a09d" d="M90.7731,69.2612a.355.355,0,1,0-.355-.3548A.3551.3551,0,0,0,90.7731,69.2612Z"/><path class="f6b2fbd2-7f1e-4800-aa82-3993b4e7a09d" d="M85.45,74.5846a.3548.3548,0,1,0-.355-.3548A.3548.3548,0,0,0,85.45,74.5846Z"/><path class="f6b2fbd2-7f1e-4800-aa82-3993b4e7a09d" d="M85.45,71.036a.355.355,0,1,0-.355-.3553A.3553.3553,0,0,0,85.45,71.036Z"/><path class="f6b2fbd2-7f1e-4800-aa82-3993b4e7a09d" d="M92.5477,67.4864a.3548.3548,0,1,0-.355-.3548A.3549.3549,0,0,0,92.5477,67.4864Z"/><path class="f6b2fbd2-7f1e-4800-aa82-3993b4e7a09d" d="M88.9986,67.4864a.3548.3548,0,1,0-.3548-.3548A.355.355,0,0,0,88.9986,67.4864Z"/><path class="f6b2fbd2-7f1e-4800-aa82-3993b4e7a09d" d="M85.45,67.4864a.3548.3548,0,1,0-.355-.3548A.3549.3549,0,0,0,85.45,67.4864Z"/></g><g class="b1f9501f-c5a8-414e-8bb3-0a9fd620ff0b"><path class="f6b2fbd2-7f1e-4800-aa82-3993b4e7a09d" d="M92.5477,81.6828a.3548.3548,0,1,0-.355-.3547A.3548.3548,0,0,0,92.5477,81.6828Z"/><path class="f6b2fbd2-7f1e-4800-aa82-3993b4e7a09d" d="M88.9986,81.6828a.3548.3548,0,1,0-.3548-.3547A.355.355,0,0,0,88.9986,81.6828Z"/><path class="f6b2fbd2-7f1e-4800-aa82-3993b4e7a09d" d="M92.5477,78.1342a.355.355,0,1,0-.355-.3552A.3552.3552,0,0,0,92.5477,78.1342Z"/><path class="f6b2fbd2-7f1e-4800-aa82-3993b4e7a09d" d="M88.9986,78.1342a.355.355,0,1,0-.3548-.3552A.3554.3554,0,0,0,88.9986,78.1342Z"/><path class="f6b2fbd2-7f1e-4800-aa82-3993b4e7a09d" d="M87.224,79.9085a.355.355,0,1,0-.3547-.3547A.355.355,0,0,0,87.224,79.9085Z"/><path class="f6b2fbd2-7f1e-4800-aa82-3993b4e7a09d" d="M90.7731,79.9085a.355.355,0,1,0-.355-.3547A.355.355,0,0,0,90.7731,79.9085Z"/><path class="f6b2fbd2-7f1e-4800-aa82-3993b4e7a09d" d="M87.224,76.3594a.355.355,0,1,0-.3547-.3548A.355.355,0,0,0,87.224,76.3594Z"/><path class="f6b2fbd2-7f1e-4800-aa82-3993b4e7a09d" d="M90.7731,76.3594a.355.355,0,1,0-.355-.3548A.355.355,0,0,0,90.7731,76.3594Z"/><path class="f6b2fbd2-7f1e-4800-aa82-3993b4e7a09d" d="M85.45,81.6828a.3548.3548,0,1,0-.355-.3547A.3548.3548,0,0,0,85.45,81.6828Z"/><path class="f6b2fbd2-7f1e-4800-aa82-3993b4e7a09d" d="M85.45,78.1342a.355.355,0,1,0-.355-.3552A.3552.3552,0,0,0,85.45,78.1342Z"/><path class="f6b2fbd2-7f1e-4800-aa82-3993b4e7a09d" d="M92.5477,74.5846a.3548.3548,0,1,0-.355-.3548A.3548.3548,0,0,0,92.5477,74.5846Z"/><path class="f6b2fbd2-7f1e-4800-aa82-3993b4e7a09d" d="M88.9986,74.5846a.3548.3548,0,1,0-.3548-.3548A.355.355,0,0,0,88.9986,74.5846Z"/><path class="f6b2fbd2-7f1e-4800-aa82-3993b4e7a09d" d="M85.45,74.5846a.3548.3548,0,1,0-.355-.3548A.3548.3548,0,0,0,85.45,74.5846Z"/></g><g class="bdf6fc5d-a7ab-4337-b690-aaf84d59a432"><path class="f6b2fbd2-7f1e-4800-aa82-3993b4e7a09d" d="M92.5477,88.7811a.3548.3548,0,1,0-.355-.3548A.3549.3549,0,0,0,92.5477,88.7811Z"/><path class="f6b2fbd2-7f1e-4800-aa82-3993b4e7a09d" d="M88.9986,88.7811a.3548.3548,0,1,0-.3548-.3548A.355.355,0,0,0,88.9986,88.7811Z"/><path class="f6b2fbd2-7f1e-4800-aa82-3993b4e7a09d" d="M92.5477,85.2325a.3551.3551,0,1,0-.355-.3553A.3553.3553,0,0,0,92.5477,85.2325Z"/><path class="f6b2fbd2-7f1e-4800-aa82-3993b4e7a09d" d="M88.9986,85.2325a.3551.3551,0,1,0-.3548-.3553A.3555.3555,0,0,0,88.9986,85.2325Z"/><path class="f6b2fbd2-7f1e-4800-aa82-3993b4e7a09d" d="M87.224,87.0068a.3551.3551,0,1,0-.3547-.3548A.355.355,0,0,0,87.224,87.0068Z"/><path class="f6b2fbd2-7f1e-4800-aa82-3993b4e7a09d" d="M90.7731,87.0068a.3551.3551,0,1,0-.355-.3548A.3551.3551,0,0,0,90.7731,87.0068Z"/><path class="f6b2fbd2-7f1e-4800-aa82-3993b4e7a09d" d="M87.224,83.4576a.355.355,0,1,0-.3547-.3547A.355.355,0,0,0,87.224,83.4576Z"/><path class="f6b2fbd2-7f1e-4800-aa82-3993b4e7a09d" d="M90.7731,83.4576a.355.355,0,1,0-.355-.3547A.355.355,0,0,0,90.7731,83.4576Z"/><path class="f6b2fbd2-7f1e-4800-aa82-3993b4e7a09d" d="M85.45,88.7811a.3548.3548,0,1,0-.355-.3548A.3549.3549,0,0,0,85.45,88.7811Z"/><path class="f6b2fbd2-7f1e-4800-aa82-3993b4e7a09d" d="M85.45,85.2325a.3551.3551,0,1,0-.355-.3553A.3553.3553,0,0,0,85.45,85.2325Z"/><path class="f6b2fbd2-7f1e-4800-aa82-3993b4e7a09d" d="M92.5477,81.6828a.3548.3548,0,1,0-.355-.3547A.3548.3548,0,0,0,92.5477,81.6828Z"/><path class="f6b2fbd2-7f1e-4800-aa82-3993b4e7a09d" d="M88.9986,81.6828a.3548.3548,0,1,0-.3548-.3547A.355.355,0,0,0,88.9986,81.6828Z"/><path class="f6b2fbd2-7f1e-4800-aa82-3993b4e7a09d" d="M85.45,81.6828a.3548.3548,0,1,0-.355-.3547A.3548.3548,0,0,0,85.45,81.6828Z"/></g><g class="e8391650-f209-4f70-b489-dc1be49057e9"><path class="f6b2fbd2-7f1e-4800-aa82-3993b4e7a09d" d="M92.5477,95.8793a.3548.3548,0,1,0-.355-.3548A.3548.3548,0,0,0,92.5477,95.8793Z"/><path class="f6b2fbd2-7f1e-4800-aa82-3993b4e7a09d" d="M88.9986,95.8793a.3548.3548,0,1,0-.3548-.3548A.355.355,0,0,0,88.9986,95.8793Z"/><path class="f6b2fbd2-7f1e-4800-aa82-3993b4e7a09d" d="M92.5477,92.3307a.355.355,0,1,0-.355-.3553A.3552.3552,0,0,0,92.5477,92.3307Z"/><path class="f6b2fbd2-7f1e-4800-aa82-3993b4e7a09d" d="M88.9986,92.3307a.355.355,0,1,0-.3548-.3553A.3554.3554,0,0,0,88.9986,92.3307Z"/><path class="f6b2fbd2-7f1e-4800-aa82-3993b4e7a09d" d="M87.224,94.105a.355.355,0,1,0-.3547-.3548A.355.355,0,0,0,87.224,94.105Z"/><path class="f6b2fbd2-7f1e-4800-aa82-3993b4e7a09d" d="M90.7731,94.105a.355.355,0,1,0-.355-.3548A.3551.3551,0,0,0,90.7731,94.105Z"/><path class="f6b2fbd2-7f1e-4800-aa82-3993b4e7a09d" d="M87.224,90.5559a.355.355,0,1,0-.3547-.3548A.355.355,0,0,0,87.224,90.5559Z"/><path class="f6b2fbd2-7f1e-4800-aa82-3993b4e7a09d" d="M90.7731,90.5559a.355.355,0,1,0-.355-.3548A.3551.3551,0,0,0,90.7731,90.5559Z"/><path class="f6b2fbd2-7f1e-4800-aa82-3993b4e7a09d" d="M85.45,95.8793a.3548.3548,0,1,0-.355-.3548A.3548.3548,0,0,0,85.45,95.8793Z"/><path class="f6b2fbd2-7f1e-4800-aa82-3993b4e7a09d" d="M85.45,92.3307a.355.355,0,1,0-.355-.3553A.3552.3552,0,0,0,85.45,92.3307Z"/><path class="f6b2fbd2-7f1e-4800-aa82-3993b4e7a09d" d="M92.5477,88.7811a.3548.3548,0,1,0-.355-.3548A.3549.3549,0,0,0,92.5477,88.7811Z"/><path class="f6b2fbd2-7f1e-4800-aa82-3993b4e7a09d" d="M88.9986,88.7811a.3548.3548,0,1,0-.3548-.3548A.355.355,0,0,0,88.9986,88.7811Z"/><path class="f6b2fbd2-7f1e-4800-aa82-3993b4e7a09d" d="M85.45,88.7811a.3548.3548,0,1,0-.355-.3548A.3549.3549,0,0,0,85.45,88.7811Z"/></g><g class="bccd83ea-ea74-49f0-aeaa-235bccb0ad51"><path class="f6b2fbd2-7f1e-4800-aa82-3993b4e7a09d" d="M92.5477,102.9776a.3548.3548,0,1,0-.355-.3548A.3549.3549,0,0,0,92.5477,102.9776Z"/><path class="f6b2fbd2-7f1e-4800-aa82-3993b4e7a09d" d="M88.9986,102.9776a.3548.3548,0,1,0-.3548-.3548A.355.355,0,0,0,88.9986,102.9776Z"/><path class="f6b2fbd2-7f1e-4800-aa82-3993b4e7a09d" d="M92.5477,99.4289a.355.355,0,1,0-.355-.3552A.3552.3552,0,0,0,92.5477,99.4289Z"/><path class="f6b2fbd2-7f1e-4800-aa82-3993b4e7a09d" d="M88.9986,99.4289a.355.355,0,1,0-.3548-.3552A.3554.3554,0,0,0,88.9986,99.4289Z"/><path class="f6b2fbd2-7f1e-4800-aa82-3993b4e7a09d" d="M87.224,101.2032a.355.355,0,1,0-.3547-.3547A.355.355,0,0,0,87.224,101.2032Z"/><path class="f6b2fbd2-7f1e-4800-aa82-3993b4e7a09d" d="M90.7731,101.2032a.355.355,0,1,0-.355-.3547A.355.355,0,0,0,90.7731,101.2032Z"/><path class="f6b2fbd2-7f1e-4800-aa82-3993b4e7a09d" d="M87.224,97.6541a.355.355,0,1,0-.3547-.3548A.355.355,0,0,0,87.224,97.6541Z"/><path class="f6b2fbd2-7f1e-4800-aa82-3993b4e7a09d" d="M90.7731,97.6541a.355.355,0,1,0-.355-.3548A.355.355,0,0,0,90.7731,97.6541Z"/><path class="f6b2fbd2-7f1e-4800-aa82-3993b4e7a09d" d="M85.45,102.9776a.3548.3548,0,1,0-.355-.3548A.3549.3549,0,0,0,85.45,102.9776Z"/><path class="f6b2fbd2-7f1e-4800-aa82-3993b4e7a09d" d="M85.45,99.4289a.355.355,0,1,0-.355-.3552A.3552.3552,0,0,0,85.45,99.4289Z"/><path class="f6b2fbd2-7f1e-4800-aa82-3993b4e7a09d" d="M92.5477,95.8793a.3548.3548,0,1,0-.355-.3548A.3548.3548,0,0,0,92.5477,95.8793Z"/><path class="f6b2fbd2-7f1e-4800-aa82-3993b4e7a09d" d="M88.9986,95.8793a.3548.3548,0,1,0-.3548-.3548A.355.355,0,0,0,88.9986,95.8793Z"/><path class="f6b2fbd2-7f1e-4800-aa82-3993b4e7a09d" d="M85.45,95.8793a.3548.3548,0,1,0-.355-.3548A.3548.3548,0,0,0,85.45,95.8793Z"/></g><g class="b47723de-4623-49b3-964d-e34597dfb176"><path class="f6b2fbd2-7f1e-4800-aa82-3993b4e7a09d" d="M92.5477,110.0758a.3548.3548,0,1,0-.355-.3548A.3549.3549,0,0,0,92.5477,110.0758Z"/><path class="f6b2fbd2-7f1e-4800-aa82-3993b4e7a09d" d="M88.9986,110.0758a.3548.3548,0,1,0-.3548-.3548A.355.355,0,0,0,88.9986,110.0758Z"/><path class="f6b2fbd2-7f1e-4800-aa82-3993b4e7a09d" d="M92.5477,106.5272a.3551.3551,0,1,0-.355-.3553A.3553.3553,0,0,0,92.5477,106.5272Z"/><path class="f6b2fbd2-7f1e-4800-aa82-3993b4e7a09d" d="M88.9986,106.5272a.3551.3551,0,1,0-.3548-.3553A.3555.3555,0,0,0,88.9986,106.5272Z"/><path class="f6b2fbd2-7f1e-4800-aa82-3993b4e7a09d" d="M87.224,108.3015a.3551.3551,0,1,0-.3547-.3548A.355.355,0,0,0,87.224,108.3015Z"/><path class="f6b2fbd2-7f1e-4800-aa82-3993b4e7a09d" d="M90.7731,108.3015a.3551.3551,0,1,0-.355-.3548A.3551.3551,0,0,0,90.7731,108.3015Z"/><path class="f6b2fbd2-7f1e-4800-aa82-3993b4e7a09d" d="M87.224,104.7524a.3551.3551,0,1,0-.3547-.3548A.355.355,0,0,0,87.224,104.7524Z"/><path class="f6b2fbd2-7f1e-4800-aa82-3993b4e7a09d" d="M90.7731,104.7524a.3551.3551,0,1,0-.355-.3548A.3551.3551,0,0,0,90.7731,104.7524Z"/><path class="f6b2fbd2-7f1e-4800-aa82-3993b4e7a09d" d="M85.45,110.0758a.3548.3548,0,1,0-.355-.3548A.3549.3549,0,0,0,85.45,110.0758Z"/><path class="f6b2fbd2-7f1e-4800-aa82-3993b4e7a09d" d="M85.45,106.5272a.3551.3551,0,1,0-.355-.3553A.3553.3553,0,0,0,85.45,106.5272Z"/><path class="f6b2fbd2-7f1e-4800-aa82-3993b4e7a09d" d="M92.5477,102.9776a.3548.3548,0,1,0-.355-.3548A.3549.3549,0,0,0,92.5477,102.9776Z"/><path class="f6b2fbd2-7f1e-4800-aa82-3993b4e7a09d" d="M88.9986,102.9776a.3548.3548,0,1,0-.3548-.3548A.355.355,0,0,0,88.9986,102.9776Z"/><path class="f6b2fbd2-7f1e-4800-aa82-3993b4e7a09d" d="M85.45,102.9776a.3548.3548,0,1,0-.355-.3548A.3549.3549,0,0,0,85.45,102.9776Z"/></g><g class="a6dcc1a9-7f33-4d14-afbd-2dbcdc72c88b"><path class="f6b2fbd2-7f1e-4800-aa82-3993b4e7a09d" d="M85.45,67.4864a.3548.3548,0,1,0-.355-.3548A.3549.3549,0,0,0,85.45,67.4864Z"/><path class="f6b2fbd2-7f1e-4800-aa82-3993b4e7a09d" d="M81.9006,67.4864a.3548.3548,0,1,0-.3548-.3548A.355.355,0,0,0,81.9006,67.4864Z"/><path class="f6b2fbd2-7f1e-4800-aa82-3993b4e7a09d" d="M85.45,63.9377a.355.355,0,1,0-.355-.3552A.3552.3552,0,0,0,85.45,63.9377Z"/><path class="f6b2fbd2-7f1e-4800-aa82-3993b4e7a09d" d="M81.9006,63.9377a.355.355,0,1,0-.3548-.3552A.3554.3554,0,0,0,81.9006,63.9377Z"/><path class="f6b2fbd2-7f1e-4800-aa82-3993b4e7a09d" d="M80.126,65.7121a.3551.3551,0,1,0-.3547-.3548A.355.355,0,0,0,80.126,65.7121Z"/><path class="f6b2fbd2-7f1e-4800-aa82-3993b4e7a09d" d="M83.6751,65.7121a.3551.3551,0,1,0-.355-.3548A.3551.3551,0,0,0,83.6751,65.7121Z"/><path class="f6b2fbd2-7f1e-4800-aa82-3993b4e7a09d" d="M80.126,62.1629a.355.355,0,1,0-.3547-.3547A.355.355,0,0,0,80.126,62.1629Z"/><path class="f6b2fbd2-7f1e-4800-aa82-3993b4e7a09d" d="M83.6751,62.1629a.355.355,0,1,0-.355-.3547A.355.355,0,0,0,83.6751,62.1629Z"/><path class="f6b2fbd2-7f1e-4800-aa82-3993b4e7a09d" d="M78.3517,67.4864a.3548.3548,0,1,0-.355-.3548A.3549.3549,0,0,0,78.3517,67.4864Z"/><path class="f6b2fbd2-7f1e-4800-aa82-3993b4e7a09d" d="M78.3517,63.9377a.355.355,0,1,0-.355-.3552A.3552.3552,0,0,0,78.3517,63.9377Z"/><path class="f6b2fbd2-7f1e-4800-aa82-3993b4e7a09d" d="M85.45,60.3881a.3548.3548,0,1,0-.355-.3547A.3548.3548,0,0,0,85.45,60.3881Z"/><path class="f6b2fbd2-7f1e-4800-aa82-3993b4e7a09d" d="M81.9006,60.3881a.3548.3548,0,1,0-.3548-.3547A.355.355,0,0,0,81.9006,60.3881Z"/><path class="f6b2fbd2-7f1e-4800-aa82-3993b4e7a09d" d="M78.3517,60.3881a.3548.3548,0,1,0-.355-.3547A.3548.3548,0,0,0,78.3517,60.3881Z"/></g><g class="ad8c267b-bb3a-4ea6-b7af-794be7b8ecd7"><path class="f6b2fbd2-7f1e-4800-aa82-3993b4e7a09d" d="M85.45,74.5846a.3548.3548,0,1,0-.355-.3548A.3548.3548,0,0,0,85.45,74.5846Z"/><path class="f6b2fbd2-7f1e-4800-aa82-3993b4e7a09d" d="M81.9006,74.5846a.3548.3548,0,1,0-.3548-.3548A.355.355,0,0,0,81.9006,74.5846Z"/><path class="f6b2fbd2-7f1e-4800-aa82-3993b4e7a09d" d="M85.45,71.036a.355.355,0,1,0-.355-.3553A.3553.3553,0,0,0,85.45,71.036Z"/><path class="f6b2fbd2-7f1e-4800-aa82-3993b4e7a09d" d="M81.9006,71.036a.355.355,0,1,0-.3548-.3553A.3555.3555,0,0,0,81.9006,71.036Z"/><path class="f6b2fbd2-7f1e-4800-aa82-3993b4e7a09d" d="M80.126,72.81a.355.355,0,1,0-.3547-.3548A.355.355,0,0,0,80.126,72.81Z"/><path class="f6b2fbd2-7f1e-4800-aa82-3993b4e7a09d" d="M83.6751,72.81a.355.355,0,1,0-.355-.3548A.3551.3551,0,0,0,83.6751,72.81Z"/><path class="f6b2fbd2-7f1e-4800-aa82-3993b4e7a09d" d="M80.126,69.2612a.355.355,0,1,0-.3547-.3548A.355.355,0,0,0,80.126,69.2612Z"/><path class="f6b2fbd2-7f1e-4800-aa82-3993b4e7a09d" d="M83.6751,69.2612a.355.355,0,1,0-.355-.3548A.3551.3551,0,0,0,83.6751,69.2612Z"/><path class="f6b2fbd2-7f1e-4800-aa82-3993b4e7a09d" d="M78.3517,74.5846a.3548.3548,0,1,0-.355-.3548A.3548.3548,0,0,0,78.3517,74.5846Z"/><path class="f6b2fbd2-7f1e-4800-aa82-3993b4e7a09d" d="M78.3517,71.036a.355.355,0,1,0-.355-.3553A.3553.3553,0,0,0,78.3517,71.036Z"/><path class="f6b2fbd2-7f1e-4800-aa82-3993b4e7a09d" d="M85.45,67.4864a.3548.3548,0,1,0-.355-.3548A.3549.3549,0,0,0,85.45,67.4864Z"/><path class="f6b2fbd2-7f1e-4800-aa82-3993b4e7a09d" d="M81.9006,67.4864a.3548.3548,0,1,0-.3548-.3548A.355.355,0,0,0,81.9006,67.4864Z"/><path class="f6b2fbd2-7f1e-4800-aa82-3993b4e7a09d" d="M78.3517,67.4864a.3548.3548,0,1,0-.355-.3548A.3549.3549,0,0,0,78.3517,67.4864Z"/></g><g class="b0e21dde-323f-44d1-b800-e8dca0fce618"><path class="f6b2fbd2-7f1e-4800-aa82-3993b4e7a09d" d="M85.45,81.6828a.3548.3548,0,1,0-.355-.3547A.3548.3548,0,0,0,85.45,81.6828Z"/><path class="f6b2fbd2-7f1e-4800-aa82-3993b4e7a09d" d="M81.9006,81.6828a.3548.3548,0,1,0-.3548-.3547A.355.355,0,0,0,81.9006,81.6828Z"/><path class="f6b2fbd2-7f1e-4800-aa82-3993b4e7a09d" d="M85.45,78.1342a.355.355,0,1,0-.355-.3552A.3552.3552,0,0,0,85.45,78.1342Z"/><path class="f6b2fbd2-7f1e-4800-aa82-3993b4e7a09d" d="M81.9006,78.1342a.355.355,0,1,0-.3548-.3552A.3554.3554,0,0,0,81.9006,78.1342Z"/><path class="f6b2fbd2-7f1e-4800-aa82-3993b4e7a09d" d="M80.126,79.9085a.355.355,0,1,0-.3547-.3547A.355.355,0,0,0,80.126,79.9085Z"/><path class="f6b2fbd2-7f1e-4800-aa82-3993b4e7a09d" d="M83.6751,79.9085a.355.355,0,1,0-.355-.3547A.355.355,0,0,0,83.6751,79.9085Z"/><path class="f6b2fbd2-7f1e-4800-aa82-3993b4e7a09d" d="M80.126,76.3594a.355.355,0,1,0-.3547-.3548A.355.355,0,0,0,80.126,76.3594Z"/><path class="f6b2fbd2-7f1e-4800-aa82-3993b4e7a09d" d="M83.6751,76.3594a.355.355,0,1,0-.355-.3548A.355.355,0,0,0,83.6751,76.3594Z"/><path class="f6b2fbd2-7f1e-4800-aa82-3993b4e7a09d" d="M78.3517,81.6828a.3548.3548,0,1,0-.355-.3547A.3548.3548,0,0,0,78.3517,81.6828Z"/><path class="f6b2fbd2-7f1e-4800-aa82-3993b4e7a09d" d="M78.3517,78.1342a.355.355,0,1,0-.355-.3552A.3552.3552,0,0,0,78.3517,78.1342Z"/><path class="f6b2fbd2-7f1e-4800-aa82-3993b4e7a09d" d="M85.45,74.5846a.3548.3548,0,1,0-.355-.3548A.3548.3548,0,0,0,85.45,74.5846Z"/><path class="f6b2fbd2-7f1e-4800-aa82-3993b4e7a09d" d="M81.9006,74.5846a.3548.3548,0,1,0-.3548-.3548A.355.355,0,0,0,81.9006,74.5846Z"/><path class="f6b2fbd2-7f1e-4800-aa82-3993b4e7a09d" d="M78.3517,74.5846a.3548.3548,0,1,0-.355-.3548A.3548.3548,0,0,0,78.3517,74.5846Z"/></g><g class="e503286e-af36-499c-ae5c-6bcc8599c5bf"><path class="f6b2fbd2-7f1e-4800-aa82-3993b4e7a09d" d="M85.45,88.7811a.3548.3548,0,1,0-.355-.3548A.3549.3549,0,0,0,85.45,88.7811Z"/><path class="f6b2fbd2-7f1e-4800-aa82-3993b4e7a09d" d="M81.9006,88.7811a.3548.3548,0,1,0-.3548-.3548A.355.355,0,0,0,81.9006,88.7811Z"/><path class="f6b2fbd2-7f1e-4800-aa82-3993b4e7a09d" d="M85.45,85.2325a.3551.3551,0,1,0-.355-.3553A.3553.3553,0,0,0,85.45,85.2325Z"/><path class="f6b2fbd2-7f1e-4800-aa82-3993b4e7a09d" d="M81.9006,85.2325a.3551.3551,0,1,0-.3548-.3553A.3555.3555,0,0,0,81.9006,85.2325Z"/><path class="f6b2fbd2-7f1e-4800-aa82-3993b4e7a09d" d="M80.126,87.0068a.3551.3551,0,1,0-.3547-.3548A.355.355,0,0,0,80.126,87.0068Z"/><path class="f6b2fbd2-7f1e-4800-aa82-3993b4e7a09d" d="M83.6751,87.0068a.3551.3551,0,1,0-.355-.3548A.3551.3551,0,0,0,83.6751,87.0068Z"/><path class="f6b2fbd2-7f1e-4800-aa82-3993b4e7a09d" d="M80.126,83.4576a.355.355,0,1,0-.3547-.3547A.355.355,0,0,0,80.126,83.4576Z"/><path class="f6b2fbd2-7f1e-4800-aa82-3993b4e7a09d" d="M83.6751,83.4576a.355.355,0,1,0-.355-.3547A.355.355,0,0,0,83.6751,83.4576Z"/><path class="f6b2fbd2-7f1e-4800-aa82-3993b4e7a09d" d="M78.3517,88.7811a.3548.3548,0,1,0-.355-.3548A.3549.3549,0,0,0,78.3517,88.7811Z"/><path class="f6b2fbd2-7f1e-4800-aa82-3993b4e7a09d" d="M78.3517,85.2325a.3551.3551,0,1,0-.355-.3553A.3553.3553,0,0,0,78.3517,85.2325Z"/><path class="f6b2fbd2-7f1e-4800-aa82-3993b4e7a09d" d="M85.45,81.6828a.3548.3548,0,1,0-.355-.3547A.3548.3548,0,0,0,85.45,81.6828Z"/><path class="f6b2fbd2-7f1e-4800-aa82-3993b4e7a09d" d="M81.9006,81.6828a.3548.3548,0,1,0-.3548-.3547A.355.355,0,0,0,81.9006,81.6828Z"/><path class="f6b2fbd2-7f1e-4800-aa82-3993b4e7a09d" d="M78.3517,81.6828a.3548.3548,0,1,0-.355-.3547A.3548.3548,0,0,0,78.3517,81.6828Z"/></g><g class="a129344c-0665-44a4-82f7-795296945dff"><path class="f6b2fbd2-7f1e-4800-aa82-3993b4e7a09d" d="M85.45,95.8793a.3548.3548,0,1,0-.355-.3548A.3548.3548,0,0,0,85.45,95.8793Z"/><path class="f6b2fbd2-7f1e-4800-aa82-3993b4e7a09d" d="M81.9006,95.8793a.3548.3548,0,1,0-.3548-.3548A.355.355,0,0,0,81.9006,95.8793Z"/><path class="f6b2fbd2-7f1e-4800-aa82-3993b4e7a09d" d="M85.45,92.3307a.355.355,0,1,0-.355-.3553A.3552.3552,0,0,0,85.45,92.3307Z"/><path class="f6b2fbd2-7f1e-4800-aa82-3993b4e7a09d" d="M81.9006,92.3307a.355.355,0,1,0-.3548-.3553A.3554.3554,0,0,0,81.9006,92.3307Z"/><path class="f6b2fbd2-7f1e-4800-aa82-3993b4e7a09d" d="M80.126,94.105a.355.355,0,1,0-.3547-.3548A.355.355,0,0,0,80.126,94.105Z"/><path class="f6b2fbd2-7f1e-4800-aa82-3993b4e7a09d" d="M83.6751,94.105a.355.355,0,1,0-.355-.3548A.3551.3551,0,0,0,83.6751,94.105Z"/><path class="f6b2fbd2-7f1e-4800-aa82-3993b4e7a09d" d="M80.126,90.5559a.355.355,0,1,0-.3547-.3548A.355.355,0,0,0,80.126,90.5559Z"/><path class="f6b2fbd2-7f1e-4800-aa82-3993b4e7a09d" d="M83.6751,90.5559a.355.355,0,1,0-.355-.3548A.3551.3551,0,0,0,83.6751,90.5559Z"/><path class="f6b2fbd2-7f1e-4800-aa82-3993b4e7a09d" d="M78.3517,95.8793a.3548.3548,0,1,0-.355-.3548A.3548.3548,0,0,0,78.3517,95.8793Z"/><path class="f6b2fbd2-7f1e-4800-aa82-3993b4e7a09d" d="M78.3517,92.3307a.355.355,0,1,0-.355-.3553A.3552.3552,0,0,0,78.3517,92.3307Z"/><path class="f6b2fbd2-7f1e-4800-aa82-3993b4e7a09d" d="M85.45,88.7811a.3548.3548,0,1,0-.355-.3548A.3549.3549,0,0,0,85.45,88.7811Z"/><path class="f6b2fbd2-7f1e-4800-aa82-3993b4e7a09d" d="M81.9006,88.7811a.3548.3548,0,1,0-.3548-.3548A.355.355,0,0,0,81.9006,88.7811Z"/><path class="f6b2fbd2-7f1e-4800-aa82-3993b4e7a09d" d="M78.3517,88.7811a.3548.3548,0,1,0-.355-.3548A.3549.3549,0,0,0,78.3517,88.7811Z"/></g><g class="a13b1da2-c5b6-497d-88a4-8590ba95f624"><path class="f6b2fbd2-7f1e-4800-aa82-3993b4e7a09d" d="M85.45,102.9776a.3548.3548,0,1,0-.355-.3548A.3549.3549,0,0,0,85.45,102.9776Z"/><path class="f6b2fbd2-7f1e-4800-aa82-3993b4e7a09d" d="M81.9006,102.9776a.3548.3548,0,1,0-.3548-.3548A.355.355,0,0,0,81.9006,102.9776Z"/><path class="f6b2fbd2-7f1e-4800-aa82-3993b4e7a09d" d="M85.45,99.4289a.355.355,0,1,0-.355-.3552A.3552.3552,0,0,0,85.45,99.4289Z"/><path class="f6b2fbd2-7f1e-4800-aa82-3993b4e7a09d" d="M81.9006,99.4289a.355.355,0,1,0-.3548-.3552A.3554.3554,0,0,0,81.9006,99.4289Z"/><path class="f6b2fbd2-7f1e-4800-aa82-3993b4e7a09d" d="M80.126,101.2032a.355.355,0,1,0-.3547-.3547A.355.355,0,0,0,80.126,101.2032Z"/><path class="f6b2fbd2-7f1e-4800-aa82-3993b4e7a09d" d="M83.6751,101.2032a.355.355,0,1,0-.355-.3547A.355.355,0,0,0,83.6751,101.2032Z"/><path class="f6b2fbd2-7f1e-4800-aa82-3993b4e7a09d" d="M80.126,97.6541a.355.355,0,1,0-.3547-.3548A.355.355,0,0,0,80.126,97.6541Z"/><path class="f6b2fbd2-7f1e-4800-aa82-3993b4e7a09d" d="M83.6751,97.6541a.355.355,0,1,0-.355-.3548A.355.355,0,0,0,83.6751,97.6541Z"/><path class="f6b2fbd2-7f1e-4800-aa82-3993b4e7a09d" d="M78.3517,102.9776a.3548.3548,0,1,0-.355-.3548A.3549.3549,0,0,0,78.3517,102.9776Z"/><path class="f6b2fbd2-7f1e-4800-aa82-3993b4e7a09d" d="M78.3517,99.4289a.355.355,0,1,0-.355-.3552A.3552.3552,0,0,0,78.3517,99.4289Z"/><path class="f6b2fbd2-7f1e-4800-aa82-3993b4e7a09d" d="M85.45,95.8793a.3548.3548,0,1,0-.355-.3548A.3548.3548,0,0,0,85.45,95.8793Z"/><path class="f6b2fbd2-7f1e-4800-aa82-3993b4e7a09d" d="M81.9006,95.8793a.3548.3548,0,1,0-.3548-.3548A.355.355,0,0,0,81.9006,95.8793Z"/><path class="f6b2fbd2-7f1e-4800-aa82-3993b4e7a09d" d="M78.3517,95.8793a.3548.3548,0,1,0-.355-.3548A.3548.3548,0,0,0,78.3517,95.8793Z"/></g><g class="ed550565-c833-492d-8779-75a755e99748"><path class="f6b2fbd2-7f1e-4800-aa82-3993b4e7a09d" d="M85.45,110.0758a.3548.3548,0,1,0-.355-.3548A.3549.3549,0,0,0,85.45,110.0758Z"/><path class="f6b2fbd2-7f1e-4800-aa82-3993b4e7a09d" d="M81.9006,110.0758a.3548.3548,0,1,0-.3548-.3548A.355.355,0,0,0,81.9006,110.0758Z"/><path class="f6b2fbd2-7f1e-4800-aa82-3993b4e7a09d" d="M85.45,106.5272a.3551.3551,0,1,0-.355-.3553A.3553.3553,0,0,0,85.45,106.5272Z"/><path class="f6b2fbd2-7f1e-4800-aa82-3993b4e7a09d" d="M81.9006,106.5272a.3551.3551,0,1,0-.3548-.3553A.3555.3555,0,0,0,81.9006,106.5272Z"/><path class="f6b2fbd2-7f1e-4800-aa82-3993b4e7a09d" d="M80.126,108.3015a.3551.3551,0,1,0-.3547-.3548A.355.355,0,0,0,80.126,108.3015Z"/><path class="f6b2fbd2-7f1e-4800-aa82-3993b4e7a09d" d="M83.6751,108.3015a.3551.3551,0,1,0-.355-.3548A.3551.3551,0,0,0,83.6751,108.3015Z"/><path class="f6b2fbd2-7f1e-4800-aa82-3993b4e7a09d" d="M80.126,104.7524a.3551.3551,0,1,0-.3547-.3548A.355.355,0,0,0,80.126,104.7524Z"/><path class="f6b2fbd2-7f1e-4800-aa82-3993b4e7a09d" d="M83.6751,104.7524a.3551.3551,0,1,0-.355-.3548A.3551.3551,0,0,0,83.6751,104.7524Z"/><path class="f6b2fbd2-7f1e-4800-aa82-3993b4e7a09d" d="M78.3517,110.0758a.3548.3548,0,1,0-.355-.3548A.3549.3549,0,0,0,78.3517,110.0758Z"/><path class="f6b2fbd2-7f1e-4800-aa82-3993b4e7a09d" d="M78.3517,106.5272a.3551.3551,0,1,0-.355-.3553A.3553.3553,0,0,0,78.3517,106.5272Z"/><path class="f6b2fbd2-7f1e-4800-aa82-3993b4e7a09d" d="M85.45,102.9776a.3548.3548,0,1,0-.355-.3548A.3549.3549,0,0,0,85.45,102.9776Z"/><path class="f6b2fbd2-7f1e-4800-aa82-3993b4e7a09d" d="M81.9006,102.9776a.3548.3548,0,1,0-.3548-.3548A.355.355,0,0,0,81.9006,102.9776Z"/><path class="f6b2fbd2-7f1e-4800-aa82-3993b4e7a09d" d="M78.3517,102.9776a.3548.3548,0,1,0-.355-.3548A.3549.3549,0,0,0,78.3517,102.9776Z"/></g><g class="accdccfd-3080-46b5-942e-a86f908ec77a"><path class="f6b2fbd2-7f1e-4800-aa82-3993b4e7a09d" d="M78.3517,67.4864a.3548.3548,0,1,0-.355-.3548A.3549.3549,0,0,0,78.3517,67.4864Z"/><path class="f6b2fbd2-7f1e-4800-aa82-3993b4e7a09d" d="M74.8026,67.4864a.3548.3548,0,1,0-.3548-.3548A.355.355,0,0,0,74.8026,67.4864Z"/><path class="f6b2fbd2-7f1e-4800-aa82-3993b4e7a09d" d="M78.3517,63.9377a.355.355,0,1,0-.355-.3552A.3552.3552,0,0,0,78.3517,63.9377Z"/><path class="f6b2fbd2-7f1e-4800-aa82-3993b4e7a09d" d="M74.8026,63.9377a.355.355,0,1,0-.3548-.3552A.3554.3554,0,0,0,74.8026,63.9377Z"/><path class="f6b2fbd2-7f1e-4800-aa82-3993b4e7a09d" d="M73.028,65.7121a.3551.3551,0,1,0-.3547-.3548A.3551.3551,0,0,0,73.028,65.7121Z"/><path class="f6b2fbd2-7f1e-4800-aa82-3993b4e7a09d" d="M76.5772,65.7121a.3551.3551,0,1,0-.3551-.3548A.355.355,0,0,0,76.5772,65.7121Z"/><path class="f6b2fbd2-7f1e-4800-aa82-3993b4e7a09d" d="M73.028,62.1629a.355.355,0,1,0-.3547-.3547A.355.355,0,0,0,73.028,62.1629Z"/><path class="f6b2fbd2-7f1e-4800-aa82-3993b4e7a09d" d="M76.5772,62.1629a.355.355,0,1,0-.3551-.3547A.355.355,0,0,0,76.5772,62.1629Z"/><path class="f6b2fbd2-7f1e-4800-aa82-3993b4e7a09d" d="M71.2537,67.4864a.3548.3548,0,1,0-.355-.3548A.3548.3548,0,0,0,71.2537,67.4864Z"/><path class="f6b2fbd2-7f1e-4800-aa82-3993b4e7a09d" d="M71.2537,63.9377a.355.355,0,1,0-.355-.3552A.3551.3551,0,0,0,71.2537,63.9377Z"/><path class="f6b2fbd2-7f1e-4800-aa82-3993b4e7a09d" d="M78.3517,60.3881a.3548.3548,0,1,0-.355-.3547A.3548.3548,0,0,0,78.3517,60.3881Z"/><path class="f6b2fbd2-7f1e-4800-aa82-3993b4e7a09d" d="M74.8026,60.3881a.3548.3548,0,1,0-.3548-.3547A.355.355,0,0,0,74.8026,60.3881Z"/><path class="f6b2fbd2-7f1e-4800-aa82-3993b4e7a09d" d="M71.2537,60.3881a.3548.3548,0,1,0-.355-.3547A.3547.3547,0,0,0,71.2537,60.3881Z"/></g><g class="bfc3b350-9ff3-4a67-a9b8-e44b8530c0fe"><path class="f6b2fbd2-7f1e-4800-aa82-3993b4e7a09d" d="M78.3517,74.5846a.3548.3548,0,1,0-.355-.3548A.3548.3548,0,0,0,78.3517,74.5846Z"/><path class="f6b2fbd2-7f1e-4800-aa82-3993b4e7a09d" d="M74.8026,74.5846a.3548.3548,0,1,0-.3548-.3548A.355.355,0,0,0,74.8026,74.5846Z"/><path class="f6b2fbd2-7f1e-4800-aa82-3993b4e7a09d" d="M78.3517,71.036a.355.355,0,1,0-.355-.3553A.3553.3553,0,0,0,78.3517,71.036Z"/><path class="f6b2fbd2-7f1e-4800-aa82-3993b4e7a09d" d="M74.8026,71.036a.355.355,0,1,0-.3548-.3553A.3555.3555,0,0,0,74.8026,71.036Z"/><path class="f6b2fbd2-7f1e-4800-aa82-3993b4e7a09d" d="M73.028,72.81a.355.355,0,1,0-.3547-.3548A.3551.3551,0,0,0,73.028,72.81Z"/><path class="f6b2fbd2-7f1e-4800-aa82-3993b4e7a09d" d="M76.5772,72.81a.355.355,0,1,0-.3551-.3548A.355.355,0,0,0,76.5772,72.81Z"/><path class="f6b2fbd2-7f1e-4800-aa82-3993b4e7a09d" d="M73.028,69.2612a.355.355,0,1,0-.3547-.3548A.3551.3551,0,0,0,73.028,69.2612Z"/><path class="f6b2fbd2-7f1e-4800-aa82-3993b4e7a09d" d="M76.5772,69.2612a.355.355,0,1,0-.3551-.3548A.355.355,0,0,0,76.5772,69.2612Z"/><path class="f6b2fbd2-7f1e-4800-aa82-3993b4e7a09d" d="M71.2537,74.5846a.3548.3548,0,1,0-.355-.3548A.3547.3547,0,0,0,71.2537,74.5846Z"/><path class="f6b2fbd2-7f1e-4800-aa82-3993b4e7a09d" d="M71.2537,71.036a.355.355,0,1,0-.355-.3553A.3552.3552,0,0,0,71.2537,71.036Z"/><path class="f6b2fbd2-7f1e-4800-aa82-3993b4e7a09d" d="M78.3517,67.4864a.3548.3548,0,1,0-.355-.3548A.3549.3549,0,0,0,78.3517,67.4864Z"/><path class="f6b2fbd2-7f1e-4800-aa82-3993b4e7a09d" d="M74.8026,67.4864a.3548.3548,0,1,0-.3548-.3548A.355.355,0,0,0,74.8026,67.4864Z"/><path class="f6b2fbd2-7f1e-4800-aa82-3993b4e7a09d" d="M71.2537,67.4864a.3548.3548,0,1,0-.355-.3548A.3548.3548,0,0,0,71.2537,67.4864Z"/></g><g class="ff79c89b-94cd-49fa-b750-041315d5892e"><path class="f6b2fbd2-7f1e-4800-aa82-3993b4e7a09d" d="M78.3517,81.6828a.3548.3548,0,1,0-.355-.3547A.3548.3548,0,0,0,78.3517,81.6828Z"/><path class="f6b2fbd2-7f1e-4800-aa82-3993b4e7a09d" d="M74.8026,81.6828a.3548.3548,0,1,0-.3548-.3547A.355.355,0,0,0,74.8026,81.6828Z"/><path class="f6b2fbd2-7f1e-4800-aa82-3993b4e7a09d" d="M78.3517,78.1342a.355.355,0,1,0-.355-.3552A.3552.3552,0,0,0,78.3517,78.1342Z"/><path class="f6b2fbd2-7f1e-4800-aa82-3993b4e7a09d" d="M74.8026,78.1342a.355.355,0,1,0-.3548-.3552A.3554.3554,0,0,0,74.8026,78.1342Z"/><path class="f6b2fbd2-7f1e-4800-aa82-3993b4e7a09d" d="M73.028,79.9085a.355.355,0,1,0-.3547-.3547A.355.355,0,0,0,73.028,79.9085Z"/><path class="f6b2fbd2-7f1e-4800-aa82-3993b4e7a09d" d="M76.5772,79.9085a.355.355,0,1,0-.3551-.3547A.355.355,0,0,0,76.5772,79.9085Z"/><path class="f6b2fbd2-7f1e-4800-aa82-3993b4e7a09d" d="M73.028,76.3594a.355.355,0,1,0-.3547-.3548A.355.355,0,0,0,73.028,76.3594Z"/><path class="f6b2fbd2-7f1e-4800-aa82-3993b4e7a09d" d="M76.5772,76.3594a.355.355,0,1,0-.3551-.3548A.355.355,0,0,0,76.5772,76.3594Z"/><path class="f6b2fbd2-7f1e-4800-aa82-3993b4e7a09d" d="M71.2537,81.6828a.3548.3548,0,1,0-.355-.3547A.3547.3547,0,0,0,71.2537,81.6828Z"/><path class="f6b2fbd2-7f1e-4800-aa82-3993b4e7a09d" d="M71.2537,78.1342a.355.355,0,1,0-.355-.3552A.3551.3551,0,0,0,71.2537,78.1342Z"/><path class="f6b2fbd2-7f1e-4800-aa82-3993b4e7a09d" d="M78.3517,74.5846a.3548.3548,0,1,0-.355-.3548A.3548.3548,0,0,0,78.3517,74.5846Z"/><path class="f6b2fbd2-7f1e-4800-aa82-3993b4e7a09d" d="M74.8026,74.5846a.3548.3548,0,1,0-.3548-.3548A.355.355,0,0,0,74.8026,74.5846Z"/><path class="f6b2fbd2-7f1e-4800-aa82-3993b4e7a09d" d="M71.2537,74.5846a.3548.3548,0,1,0-.355-.3548A.3547.3547,0,0,0,71.2537,74.5846Z"/></g><g class="e7f45b04-75c7-402b-89c7-4298f2bf8e92"><path class="f6b2fbd2-7f1e-4800-aa82-3993b4e7a09d" d="M78.3517,88.7811a.3548.3548,0,1,0-.355-.3548A.3549.3549,0,0,0,78.3517,88.7811Z"/><path class="f6b2fbd2-7f1e-4800-aa82-3993b4e7a09d" d="M74.8026,88.7811a.3548.3548,0,1,0-.3548-.3548A.355.355,0,0,0,74.8026,88.7811Z"/><path class="f6b2fbd2-7f1e-4800-aa82-3993b4e7a09d" d="M78.3517,85.2325a.3551.3551,0,1,0-.355-.3553A.3553.3553,0,0,0,78.3517,85.2325Z"/><path class="f6b2fbd2-7f1e-4800-aa82-3993b4e7a09d" d="M74.8026,85.2325a.3551.3551,0,1,0-.3548-.3553A.3555.3555,0,0,0,74.8026,85.2325Z"/><path class="f6b2fbd2-7f1e-4800-aa82-3993b4e7a09d" d="M73.028,87.0068a.3551.3551,0,1,0-.3547-.3548A.3551.3551,0,0,0,73.028,87.0068Z"/><path class="f6b2fbd2-7f1e-4800-aa82-3993b4e7a09d" d="M76.5772,87.0068a.3551.3551,0,1,0-.3551-.3548A.355.355,0,0,0,76.5772,87.0068Z"/><path class="f6b2fbd2-7f1e-4800-aa82-3993b4e7a09d" d="M73.028,83.4576a.355.355,0,1,0-.3547-.3547A.355.355,0,0,0,73.028,83.4576Z"/><path class="f6b2fbd2-7f1e-4800-aa82-3993b4e7a09d" d="M76.5772,83.4576a.355.355,0,1,0-.3551-.3547A.355.355,0,0,0,76.5772,83.4576Z"/><path class="f6b2fbd2-7f1e-4800-aa82-3993b4e7a09d" d="M71.2537,88.7811a.3548.3548,0,1,0-.355-.3548A.3548.3548,0,0,0,71.2537,88.7811Z"/><path class="f6b2fbd2-7f1e-4800-aa82-3993b4e7a09d" d="M71.2537,85.2325a.3551.3551,0,1,0-.355-.3553A.3552.3552,0,0,0,71.2537,85.2325Z"/><path class="f6b2fbd2-7f1e-4800-aa82-3993b4e7a09d" d="M78.3517,81.6828a.3548.3548,0,1,0-.355-.3547A.3548.3548,0,0,0,78.3517,81.6828Z"/><path class="f6b2fbd2-7f1e-4800-aa82-3993b4e7a09d" d="M74.8026,81.6828a.3548.3548,0,1,0-.3548-.3547A.355.355,0,0,0,74.8026,81.6828Z"/><path class="f6b2fbd2-7f1e-4800-aa82-3993b4e7a09d" d="M71.2537,81.6828a.3548.3548,0,1,0-.355-.3547A.3547.3547,0,0,0,71.2537,81.6828Z"/></g><g class="ec143d1c-0d18-4033-8e45-a208c4a6aa95"><path class="f6b2fbd2-7f1e-4800-aa82-3993b4e7a09d" d="M78.3517,95.8793a.3548.3548,0,1,0-.355-.3548A.3548.3548,0,0,0,78.3517,95.8793Z"/><path class="f6b2fbd2-7f1e-4800-aa82-3993b4e7a09d" d="M74.8026,95.8793a.3548.3548,0,1,0-.3548-.3548A.355.355,0,0,0,74.8026,95.8793Z"/><path class="f6b2fbd2-7f1e-4800-aa82-3993b4e7a09d" d="M78.3517,92.3307a.355.355,0,1,0-.355-.3553A.3552.3552,0,0,0,78.3517,92.3307Z"/><path class="f6b2fbd2-7f1e-4800-aa82-3993b4e7a09d" d="M74.8026,92.3307a.355.355,0,1,0-.3548-.3553A.3554.3554,0,0,0,74.8026,92.3307Z"/><path class="f6b2fbd2-7f1e-4800-aa82-3993b4e7a09d" d="M73.028,94.105a.355.355,0,1,0-.3547-.3548A.3551.3551,0,0,0,73.028,94.105Z"/><path class="f6b2fbd2-7f1e-4800-aa82-3993b4e7a09d" d="M76.5772,94.105a.355.355,0,1,0-.3551-.3548A.355.355,0,0,0,76.5772,94.105Z"/><path class="f6b2fbd2-7f1e-4800-aa82-3993b4e7a09d" d="M73.028,90.5559a.355.355,0,1,0-.3547-.3548A.3551.3551,0,0,0,73.028,90.5559Z"/><path class="f6b2fbd2-7f1e-4800-aa82-3993b4e7a09d" d="M76.5772,90.5559a.355.355,0,1,0-.3551-.3548A.355.355,0,0,0,76.5772,90.5559Z"/><path class="f6b2fbd2-7f1e-4800-aa82-3993b4e7a09d" d="M71.2537,95.8793a.3548.3548,0,1,0-.355-.3548A.3547.3547,0,0,0,71.2537,95.8793Z"/><path class="f6b2fbd2-7f1e-4800-aa82-3993b4e7a09d" d="M71.2537,92.3307a.355.355,0,1,0-.355-.3553A.3552.3552,0,0,0,71.2537,92.3307Z"/><path class="f6b2fbd2-7f1e-4800-aa82-3993b4e7a09d" d="M78.3517,88.7811a.3548.3548,0,1,0-.355-.3548A.3549.3549,0,0,0,78.3517,88.7811Z"/><path class="f6b2fbd2-7f1e-4800-aa82-3993b4e7a09d" d="M74.8026,88.7811a.3548.3548,0,1,0-.3548-.3548A.355.355,0,0,0,74.8026,88.7811Z"/><path class="f6b2fbd2-7f1e-4800-aa82-3993b4e7a09d" d="M71.2537,88.7811a.3548.3548,0,1,0-.355-.3548A.3548.3548,0,0,0,71.2537,88.7811Z"/></g><g class="b0854a93-742f-43b2-8b95-364f85cca0b5"><path class="f6b2fbd2-7f1e-4800-aa82-3993b4e7a09d" d="M78.3517,102.9776a.3548.3548,0,1,0-.355-.3548A.3549.3549,0,0,0,78.3517,102.9776Z"/><path class="f6b2fbd2-7f1e-4800-aa82-3993b4e7a09d" d="M74.8026,102.9776a.3548.3548,0,1,0-.3548-.3548A.355.355,0,0,0,74.8026,102.9776Z"/><path class="f6b2fbd2-7f1e-4800-aa82-3993b4e7a09d" d="M78.3517,99.4289a.355.355,0,1,0-.355-.3552A.3552.3552,0,0,0,78.3517,99.4289Z"/><path class="f6b2fbd2-7f1e-4800-aa82-3993b4e7a09d" d="M74.8026,99.4289a.355.355,0,1,0-.3548-.3552A.3554.3554,0,0,0,74.8026,99.4289Z"/><path class="f6b2fbd2-7f1e-4800-aa82-3993b4e7a09d" d="M73.028,101.2032a.355.355,0,1,0-.3547-.3547A.355.355,0,0,0,73.028,101.2032Z"/><path class="f6b2fbd2-7f1e-4800-aa82-3993b4e7a09d" d="M76.5772,101.2032a.355.355,0,1,0-.3551-.3547A.355.355,0,0,0,76.5772,101.2032Z"/><path class="f6b2fbd2-7f1e-4800-aa82-3993b4e7a09d" d="M73.028,97.6541a.355.355,0,1,0-.3547-.3548A.355.355,0,0,0,73.028,97.6541Z"/><path class="f6b2fbd2-7f1e-4800-aa82-3993b4e7a09d" d="M76.5772,97.6541a.355.355,0,1,0-.3551-.3548A.355.355,0,0,0,76.5772,97.6541Z"/><path class="f6b2fbd2-7f1e-4800-aa82-3993b4e7a09d" d="M71.2537,102.9776a.3548.3548,0,1,0-.355-.3548A.3548.3548,0,0,0,71.2537,102.9776Z"/><path class="f6b2fbd2-7f1e-4800-aa82-3993b4e7a09d" d="M71.2537,99.4289a.355.355,0,1,0-.355-.3552A.3551.3551,0,0,0,71.2537,99.4289Z"/><path class="f6b2fbd2-7f1e-4800-aa82-3993b4e7a09d" d="M78.3517,95.8793a.3548.3548,0,1,0-.355-.3548A.3548.3548,0,0,0,78.3517,95.8793Z"/><path class="f6b2fbd2-7f1e-4800-aa82-3993b4e7a09d" d="M74.8026,95.8793a.3548.3548,0,1,0-.3548-.3548A.355.355,0,0,0,74.8026,95.8793Z"/><path class="f6b2fbd2-7f1e-4800-aa82-3993b4e7a09d" d="M71.2537,95.8793a.3548.3548,0,1,0-.355-.3548A.3547.3547,0,0,0,71.2537,95.8793Z"/></g><g class="b812921e-a7a9-4e44-b784-1162467adf2a"><path class="f6b2fbd2-7f1e-4800-aa82-3993b4e7a09d" d="M78.3517,110.0758a.3548.3548,0,1,0-.355-.3548A.3549.3549,0,0,0,78.3517,110.0758Z"/><path class="f6b2fbd2-7f1e-4800-aa82-3993b4e7a09d" d="M74.8026,110.0758a.3548.3548,0,1,0-.3548-.3548A.355.355,0,0,0,74.8026,110.0758Z"/><path class="f6b2fbd2-7f1e-4800-aa82-3993b4e7a09d" d="M78.3517,106.5272a.3551.3551,0,1,0-.355-.3553A.3553.3553,0,0,0,78.3517,106.5272Z"/><path class="f6b2fbd2-7f1e-4800-aa82-3993b4e7a09d" d="M74.8026,106.5272a.3551.3551,0,1,0-.3548-.3553A.3555.3555,0,0,0,74.8026,106.5272Z"/><path class="f6b2fbd2-7f1e-4800-aa82-3993b4e7a09d" d="M73.028,108.3015a.3551.3551,0,1,0-.3547-.3548A.3551.3551,0,0,0,73.028,108.3015Z"/><path class="f6b2fbd2-7f1e-4800-aa82-3993b4e7a09d" d="M76.5772,108.3015a.3551.3551,0,1,0-.3551-.3548A.355.355,0,0,0,76.5772,108.3015Z"/><path class="f6b2fbd2-7f1e-4800-aa82-3993b4e7a09d" d="M73.028,104.7524a.3551.3551,0,1,0-.3547-.3548A.3551.3551,0,0,0,73.028,104.7524Z"/><path class="f6b2fbd2-7f1e-4800-aa82-3993b4e7a09d" d="M76.5772,104.7524a.3551.3551,0,1,0-.3551-.3548A.355.355,0,0,0,76.5772,104.7524Z"/><path class="f6b2fbd2-7f1e-4800-aa82-3993b4e7a09d" d="M71.2537,110.0758a.3548.3548,0,1,0-.355-.3548A.3548.3548,0,0,0,71.2537,110.0758Z"/><path class="f6b2fbd2-7f1e-4800-aa82-3993b4e7a09d" d="M71.2537,106.5272a.3551.3551,0,1,0-.355-.3553A.3552.3552,0,0,0,71.2537,106.5272Z"/><path class="f6b2fbd2-7f1e-4800-aa82-3993b4e7a09d" d="M78.3517,102.9776a.3548.3548,0,1,0-.355-.3548A.3549.3549,0,0,0,78.3517,102.9776Z"/><path class="f6b2fbd2-7f1e-4800-aa82-3993b4e7a09d" d="M74.8026,102.9776a.3548.3548,0,1,0-.3548-.3548A.355.355,0,0,0,74.8026,102.9776Z"/><path class="f6b2fbd2-7f1e-4800-aa82-3993b4e7a09d" d="M71.2537,102.9776a.3548.3548,0,1,0-.355-.3548A.3548.3548,0,0,0,71.2537,102.9776Z"/></g><g class="b3f19bd8-1ff3-4719-a57a-540cf64bc2c5"><path class="f6b2fbd2-7f1e-4800-aa82-3993b4e7a09d" d="M71.2537,67.4864a.3548.3548,0,1,0-.355-.3548A.3548.3548,0,0,0,71.2537,67.4864Z"/><path class="f6b2fbd2-7f1e-4800-aa82-3993b4e7a09d" d="M67.7046,67.4864a.3548.3548,0,1,0-.3548-.3548A.355.355,0,0,0,67.7046,67.4864Z"/><path class="f6b2fbd2-7f1e-4800-aa82-3993b4e7a09d" d="M71.2537,63.9377a.355.355,0,1,0-.355-.3552A.3551.3551,0,0,0,71.2537,63.9377Z"/><path class="f6b2fbd2-7f1e-4800-aa82-3993b4e7a09d" d="M67.7046,63.9377a.355.355,0,1,0-.3548-.3552A.3554.3554,0,0,0,67.7046,63.9377Z"/><path class="f6b2fbd2-7f1e-4800-aa82-3993b4e7a09d" d="M65.93,65.7121a.3551.3551,0,1,0-.3548-.3548A.355.355,0,0,0,65.93,65.7121Z"/><path class="f6b2fbd2-7f1e-4800-aa82-3993b4e7a09d" d="M69.4792,65.7121a.3551.3551,0,1,0-.355-.3548A.355.355,0,0,0,69.4792,65.7121Z"/><path class="f6b2fbd2-7f1e-4800-aa82-3993b4e7a09d" d="M65.93,62.1629a.355.355,0,1,0-.3548-.3547A.355.355,0,0,0,65.93,62.1629Z"/><path class="f6b2fbd2-7f1e-4800-aa82-3993b4e7a09d" d="M69.4792,62.1629a.355.355,0,1,0-.355-.3547A.355.355,0,0,0,69.4792,62.1629Z"/><path class="f6b2fbd2-7f1e-4800-aa82-3993b4e7a09d" d="M64.1557,67.4864a.3548.3548,0,1,0-.355-.3548A.3548.3548,0,0,0,64.1557,67.4864Z"/><path class="f6b2fbd2-7f1e-4800-aa82-3993b4e7a09d" d="M64.1557,63.9377a.355.355,0,1,0-.355-.3552A.3551.3551,0,0,0,64.1557,63.9377Z"/><path class="f6b2fbd2-7f1e-4800-aa82-3993b4e7a09d" d="M71.2537,60.3881a.3548.3548,0,1,0-.355-.3547A.3547.3547,0,0,0,71.2537,60.3881Z"/><path class="f6b2fbd2-7f1e-4800-aa82-3993b4e7a09d" d="M67.7046,60.3881a.3548.3548,0,1,0-.3548-.3547A.355.355,0,0,0,67.7046,60.3881Z"/><path class="f6b2fbd2-7f1e-4800-aa82-3993b4e7a09d" d="M64.1557,60.3881a.3548.3548,0,1,0-.355-.3547A.3547.3547,0,0,0,64.1557,60.3881Z"/></g><g class="b39fc806-f566-4cb3-9710-e80c3bbd3077"><path class="f6b2fbd2-7f1e-4800-aa82-3993b4e7a09d" d="M71.2537,74.5846a.3548.3548,0,1,0-.355-.3548A.3547.3547,0,0,0,71.2537,74.5846Z"/><path class="f6b2fbd2-7f1e-4800-aa82-3993b4e7a09d" d="M67.7046,74.5846A.3548.3548,0,1,0,67.35,74.23.355.355,0,0,0,67.7046,74.5846Z"/><path class="f6b2fbd2-7f1e-4800-aa82-3993b4e7a09d" d="M71.2537,71.036a.355.355,0,1,0-.355-.3553A.3552.3552,0,0,0,71.2537,71.036Z"/><path class="f6b2fbd2-7f1e-4800-aa82-3993b4e7a09d" d="M67.7046,71.036a.355.355,0,1,0-.3548-.3553A.3555.3555,0,0,0,67.7046,71.036Z"/><path class="f6b2fbd2-7f1e-4800-aa82-3993b4e7a09d" d="M65.93,72.81a.355.355,0,1,0-.3548-.3548A.355.355,0,0,0,65.93,72.81Z"/><path class="f6b2fbd2-7f1e-4800-aa82-3993b4e7a09d" d="M69.4792,72.81a.355.355,0,1,0-.355-.3548A.355.355,0,0,0,69.4792,72.81Z"/><path class="f6b2fbd2-7f1e-4800-aa82-3993b4e7a09d" d="M65.93,69.2612a.355.355,0,1,0-.3548-.3548A.355.355,0,0,0,65.93,69.2612Z"/><path class="f6b2fbd2-7f1e-4800-aa82-3993b4e7a09d" d="M69.4792,69.2612a.355.355,0,1,0-.355-.3548A.355.355,0,0,0,69.4792,69.2612Z"/><path class="f6b2fbd2-7f1e-4800-aa82-3993b4e7a09d" d="M64.1557,74.5846a.3548.3548,0,1,0-.355-.3548A.3547.3547,0,0,0,64.1557,74.5846Z"/><path class="f6b2fbd2-7f1e-4800-aa82-3993b4e7a09d" d="M64.1557,71.036a.355.355,0,1,0-.355-.3553A.3552.3552,0,0,0,64.1557,71.036Z"/><path class="f6b2fbd2-7f1e-4800-aa82-3993b4e7a09d" d="M71.2537,67.4864a.3548.3548,0,1,0-.355-.3548A.3548.3548,0,0,0,71.2537,67.4864Z"/><path class="f6b2fbd2-7f1e-4800-aa82-3993b4e7a09d" d="M67.7046,67.4864a.3548.3548,0,1,0-.3548-.3548A.355.355,0,0,0,67.7046,67.4864Z"/><path class="f6b2fbd2-7f1e-4800-aa82-3993b4e7a09d" d="M64.1557,67.4864a.3548.3548,0,1,0-.355-.3548A.3548.3548,0,0,0,64.1557,67.4864Z"/></g><g class="be684a71-be99-40c2-a4e7-de4f18c93a85"><path class="f6b2fbd2-7f1e-4800-aa82-3993b4e7a09d" d="M71.2537,81.6828a.3548.3548,0,1,0-.355-.3547A.3547.3547,0,0,0,71.2537,81.6828Z"/><path class="f6b2fbd2-7f1e-4800-aa82-3993b4e7a09d" d="M67.7046,81.6828a.3548.3548,0,1,0-.3548-.3547A.355.355,0,0,0,67.7046,81.6828Z"/><path class="f6b2fbd2-7f1e-4800-aa82-3993b4e7a09d" d="M71.2537,78.1342a.355.355,0,1,0-.355-.3552A.3551.3551,0,0,0,71.2537,78.1342Z"/><path class="f6b2fbd2-7f1e-4800-aa82-3993b4e7a09d" d="M67.7046,78.1342a.355.355,0,1,0-.3548-.3552A.3554.3554,0,0,0,67.7046,78.1342Z"/><path class="f6b2fbd2-7f1e-4800-aa82-3993b4e7a09d" d="M65.93,79.9085a.355.355,0,1,0-.3548-.3547A.355.355,0,0,0,65.93,79.9085Z"/><path class="f6b2fbd2-7f1e-4800-aa82-3993b4e7a09d" d="M69.4792,79.9085a.355.355,0,1,0-.355-.3547A.355.355,0,0,0,69.4792,79.9085Z"/><path class="f6b2fbd2-7f1e-4800-aa82-3993b4e7a09d" d="M65.93,76.3594a.355.355,0,1,0-.3548-.3548A.355.355,0,0,0,65.93,76.3594Z"/><path class="f6b2fbd2-7f1e-4800-aa82-3993b4e7a09d" d="M69.4792,76.3594a.355.355,0,1,0-.355-.3548A.355.355,0,0,0,69.4792,76.3594Z"/><path class="f6b2fbd2-7f1e-4800-aa82-3993b4e7a09d" d="M64.1557,81.6828a.3548.3548,0,1,0-.355-.3547A.3547.3547,0,0,0,64.1557,81.6828Z"/><path class="f6b2fbd2-7f1e-4800-aa82-3993b4e7a09d" d="M64.1557,78.1342a.355.355,0,1,0-.355-.3552A.3551.3551,0,0,0,64.1557,78.1342Z"/><path class="f6b2fbd2-7f1e-4800-aa82-3993b4e7a09d" d="M71.2537,74.5846a.3548.3548,0,1,0-.355-.3548A.3547.3547,0,0,0,71.2537,74.5846Z"/><path class="f6b2fbd2-7f1e-4800-aa82-3993b4e7a09d" d="M67.7046,74.5846A.3548.3548,0,1,0,67.35,74.23.355.355,0,0,0,67.7046,74.5846Z"/><path class="f6b2fbd2-7f1e-4800-aa82-3993b4e7a09d" d="M64.1557,74.5846a.3548.3548,0,1,0-.355-.3548A.3547.3547,0,0,0,64.1557,74.5846Z"/></g><g class="aabc45f1-f3ec-4cc5-84c8-4d917e88c2dc"><path class="f6b2fbd2-7f1e-4800-aa82-3993b4e7a09d" d="M71.2537,88.7811a.3548.3548,0,1,0-.355-.3548A.3548.3548,0,0,0,71.2537,88.7811Z"/><path class="f6b2fbd2-7f1e-4800-aa82-3993b4e7a09d" d="M67.7046,88.7811a.3548.3548,0,1,0-.3548-.3548A.355.355,0,0,0,67.7046,88.7811Z"/><path class="f6b2fbd2-7f1e-4800-aa82-3993b4e7a09d" d="M71.2537,85.2325a.3551.3551,0,1,0-.355-.3553A.3552.3552,0,0,0,71.2537,85.2325Z"/><path class="f6b2fbd2-7f1e-4800-aa82-3993b4e7a09d" d="M67.7046,85.2325a.3551.3551,0,1,0-.3548-.3553A.3555.3555,0,0,0,67.7046,85.2325Z"/><path class="f6b2fbd2-7f1e-4800-aa82-3993b4e7a09d" d="M65.93,87.0068a.3551.3551,0,1,0-.3548-.3548A.355.355,0,0,0,65.93,87.0068Z"/><path class="f6b2fbd2-7f1e-4800-aa82-3993b4e7a09d" d="M69.4792,87.0068a.3551.3551,0,1,0-.355-.3548A.355.355,0,0,0,69.4792,87.0068Z"/><path class="f6b2fbd2-7f1e-4800-aa82-3993b4e7a09d" d="M65.93,83.4576a.355.355,0,1,0-.3548-.3547A.355.355,0,0,0,65.93,83.4576Z"/><path class="f6b2fbd2-7f1e-4800-aa82-3993b4e7a09d" d="M69.4792,83.4576a.355.355,0,1,0-.355-.3547A.355.355,0,0,0,69.4792,83.4576Z"/><path class="f6b2fbd2-7f1e-4800-aa82-3993b4e7a09d" d="M64.1557,88.7811a.3548.3548,0,1,0-.355-.3548A.3548.3548,0,0,0,64.1557,88.7811Z"/><path class="f6b2fbd2-7f1e-4800-aa82-3993b4e7a09d" d="M64.1557,85.2325a.3551.3551,0,1,0-.355-.3553A.3552.3552,0,0,0,64.1557,85.2325Z"/><path class="f6b2fbd2-7f1e-4800-aa82-3993b4e7a09d" d="M71.2537,81.6828a.3548.3548,0,1,0-.355-.3547A.3547.3547,0,0,0,71.2537,81.6828Z"/><path class="f6b2fbd2-7f1e-4800-aa82-3993b4e7a09d" d="M67.7046,81.6828a.3548.3548,0,1,0-.3548-.3547A.355.355,0,0,0,67.7046,81.6828Z"/><path class="f6b2fbd2-7f1e-4800-aa82-3993b4e7a09d" d="M64.1557,81.6828a.3548.3548,0,1,0-.355-.3547A.3547.3547,0,0,0,64.1557,81.6828Z"/></g><g class="fd6d976f-781b-4272-be77-e42155813d53"><path class="f6b2fbd2-7f1e-4800-aa82-3993b4e7a09d" d="M71.2537,95.8793a.3548.3548,0,1,0-.355-.3548A.3547.3547,0,0,0,71.2537,95.8793Z"/><path class="f6b2fbd2-7f1e-4800-aa82-3993b4e7a09d" d="M67.7046,95.8793a.3548.3548,0,1,0-.3548-.3548A.355.355,0,0,0,67.7046,95.8793Z"/><path class="f6b2fbd2-7f1e-4800-aa82-3993b4e7a09d" d="M71.2537,92.3307a.355.355,0,1,0-.355-.3553A.3552.3552,0,0,0,71.2537,92.3307Z"/><path class="f6b2fbd2-7f1e-4800-aa82-3993b4e7a09d" d="M67.7046,92.3307a.355.355,0,1,0-.3548-.3553A.3554.3554,0,0,0,67.7046,92.3307Z"/><path class="f6b2fbd2-7f1e-4800-aa82-3993b4e7a09d" d="M65.93,94.105a.355.355,0,1,0-.3548-.3548A.355.355,0,0,0,65.93,94.105Z"/><path class="f6b2fbd2-7f1e-4800-aa82-3993b4e7a09d" d="M69.4792,94.105a.355.355,0,1,0-.355-.3548A.355.355,0,0,0,69.4792,94.105Z"/><path class="f6b2fbd2-7f1e-4800-aa82-3993b4e7a09d" d="M65.93,90.5559a.355.355,0,1,0-.3548-.3548A.355.355,0,0,0,65.93,90.5559Z"/><path class="f6b2fbd2-7f1e-4800-aa82-3993b4e7a09d" d="M69.4792,90.5559a.355.355,0,1,0-.355-.3548A.355.355,0,0,0,69.4792,90.5559Z"/><path class="f6b2fbd2-7f1e-4800-aa82-3993b4e7a09d" d="M64.1557,95.8793a.3548.3548,0,1,0-.355-.3548A.3547.3547,0,0,0,64.1557,95.8793Z"/><path class="f6b2fbd2-7f1e-4800-aa82-3993b4e7a09d" d="M64.1557,92.3307a.355.355,0,1,0-.355-.3553A.3552.3552,0,0,0,64.1557,92.3307Z"/><path class="f6b2fbd2-7f1e-4800-aa82-3993b4e7a09d" d="M71.2537,88.7811a.3548.3548,0,1,0-.355-.3548A.3548.3548,0,0,0,71.2537,88.7811Z"/><path class="f6b2fbd2-7f1e-4800-aa82-3993b4e7a09d" d="M67.7046,88.7811a.3548.3548,0,1,0-.3548-.3548A.355.355,0,0,0,67.7046,88.7811Z"/><path class="f6b2fbd2-7f1e-4800-aa82-3993b4e7a09d" d="M64.1557,88.7811a.3548.3548,0,1,0-.355-.3548A.3548.3548,0,0,0,64.1557,88.7811Z"/></g><g class="af6d7915-9ccb-4ef3-b883-1dba952e3dde"><path class="f6b2fbd2-7f1e-4800-aa82-3993b4e7a09d" d="M71.2537,102.9776a.3548.3548,0,1,0-.355-.3548A.3548.3548,0,0,0,71.2537,102.9776Z"/><path class="f6b2fbd2-7f1e-4800-aa82-3993b4e7a09d" d="M67.7046,102.9776a.3548.3548,0,1,0-.3548-.3548A.355.355,0,0,0,67.7046,102.9776Z"/><path class="f6b2fbd2-7f1e-4800-aa82-3993b4e7a09d" d="M71.2537,99.4289a.355.355,0,1,0-.355-.3552A.3551.3551,0,0,0,71.2537,99.4289Z"/><path class="f6b2fbd2-7f1e-4800-aa82-3993b4e7a09d" d="M67.7046,99.4289a.355.355,0,1,0-.3548-.3552A.3554.3554,0,0,0,67.7046,99.4289Z"/><path class="f6b2fbd2-7f1e-4800-aa82-3993b4e7a09d" d="M65.93,101.2032a.355.355,0,1,0-.3548-.3547A.355.355,0,0,0,65.93,101.2032Z"/><path class="f6b2fbd2-7f1e-4800-aa82-3993b4e7a09d" d="M69.4792,101.2032a.355.355,0,1,0-.355-.3547A.355.355,0,0,0,69.4792,101.2032Z"/><path class="f6b2fbd2-7f1e-4800-aa82-3993b4e7a09d" d="M65.93,97.6541a.355.355,0,1,0-.3548-.3548A.355.355,0,0,0,65.93,97.6541Z"/><path class="f6b2fbd2-7f1e-4800-aa82-3993b4e7a09d" d="M69.4792,97.6541a.355.355,0,1,0-.355-.3548A.355.355,0,0,0,69.4792,97.6541Z"/><path class="f6b2fbd2-7f1e-4800-aa82-3993b4e7a09d" d="M64.1557,102.9776a.3548.3548,0,1,0-.355-.3548A.3548.3548,0,0,0,64.1557,102.9776Z"/><path class="f6b2fbd2-7f1e-4800-aa82-3993b4e7a09d" d="M64.1557,99.4289a.355.355,0,1,0-.355-.3552A.3551.3551,0,0,0,64.1557,99.4289Z"/><path class="f6b2fbd2-7f1e-4800-aa82-3993b4e7a09d" d="M71.2537,95.8793a.3548.3548,0,1,0-.355-.3548A.3547.3547,0,0,0,71.2537,95.8793Z"/><path class="f6b2fbd2-7f1e-4800-aa82-3993b4e7a09d" d="M67.7046,95.8793a.3548.3548,0,1,0-.3548-.3548A.355.355,0,0,0,67.7046,95.8793Z"/><path class="f6b2fbd2-7f1e-4800-aa82-3993b4e7a09d" d="M64.1557,95.8793a.3548.3548,0,1,0-.355-.3548A.3547.3547,0,0,0,64.1557,95.8793Z"/></g><g class="ea445841-d02c-41d6-99d6-8af197bcb7bc"><path class="f6b2fbd2-7f1e-4800-aa82-3993b4e7a09d" d="M71.2537,110.0758a.3548.3548,0,1,0-.355-.3548A.3548.3548,0,0,0,71.2537,110.0758Z"/><path class="f6b2fbd2-7f1e-4800-aa82-3993b4e7a09d" d="M67.7046,110.0758a.3548.3548,0,1,0-.3548-.3548A.355.355,0,0,0,67.7046,110.0758Z"/><path class="f6b2fbd2-7f1e-4800-aa82-3993b4e7a09d" d="M71.2537,106.5272a.3551.3551,0,1,0-.355-.3553A.3552.3552,0,0,0,71.2537,106.5272Z"/><path class="f6b2fbd2-7f1e-4800-aa82-3993b4e7a09d" d="M67.7046,106.5272a.3551.3551,0,1,0-.3548-.3553A.3555.3555,0,0,0,67.7046,106.5272Z"/><path class="f6b2fbd2-7f1e-4800-aa82-3993b4e7a09d" d="M65.93,108.3015a.3551.3551,0,1,0-.3548-.3548A.355.355,0,0,0,65.93,108.3015Z"/><path class="f6b2fbd2-7f1e-4800-aa82-3993b4e7a09d" d="M69.4792,108.3015a.3551.3551,0,1,0-.355-.3548A.355.355,0,0,0,69.4792,108.3015Z"/><path class="f6b2fbd2-7f1e-4800-aa82-3993b4e7a09d" d="M65.93,104.7524a.3551.3551,0,1,0-.3548-.3548A.355.355,0,0,0,65.93,104.7524Z"/><path class="f6b2fbd2-7f1e-4800-aa82-3993b4e7a09d" d="M69.4792,104.7524a.3551.3551,0,1,0-.355-.3548A.355.355,0,0,0,69.4792,104.7524Z"/><path class="f6b2fbd2-7f1e-4800-aa82-3993b4e7a09d" d="M64.1557,110.0758a.3548.3548,0,1,0-.355-.3548A.3548.3548,0,0,0,64.1557,110.0758Z"/><path class="f6b2fbd2-7f1e-4800-aa82-3993b4e7a09d" d="M64.1557,106.5272a.3551.3551,0,1,0-.355-.3553A.3552.3552,0,0,0,64.1557,106.5272Z"/><path class="f6b2fbd2-7f1e-4800-aa82-3993b4e7a09d" d="M71.2537,102.9776a.3548.3548,0,1,0-.355-.3548A.3548.3548,0,0,0,71.2537,102.9776Z"/><path class="f6b2fbd2-7f1e-4800-aa82-3993b4e7a09d" d="M67.7046,102.9776a.3548.3548,0,1,0-.3548-.3548A.355.355,0,0,0,67.7046,102.9776Z"/><path class="f6b2fbd2-7f1e-4800-aa82-3993b4e7a09d" d="M64.1557,102.9776a.3548.3548,0,1,0-.355-.3548A.3548.3548,0,0,0,64.1557,102.9776Z"/></g></g><path class="f4812149-c1bb-4b00-aa4b-d85fbc7c97fa" d="M67.4552,103.8812l.1,9.12s6.5017,7.2706,15.206,0l.1-9.12A48.5155,48.5155,0,0,1,67.4552,103.8812Z"/><path class="f4812149-c1bb-4b00-aa4b-d85fbc7c97fa" d="M68.6618,106.01a18.05,18.05,0,0,0,12.7119,0"/><path class="b2491dd5-f3d7-43e0-ab4e-55e500ede208" d="M74.8171,107.3778a18.6274,18.6274,0,0,1-2.5685-.1751,14.0159,14.0159,0,0,1-3.6915-.9685.2479.2479,0,0,1,.2094-.45,17.9765,17.9765,0,0,0,12.526-.01.2479.2479,0,1,1,.1624.4685A20.2462,20.2462,0,0,1,74.8171,107.3778Z"/><path class="f4812149-c1bb-4b00-aa4b-d85fbc7c97fa" d="M68.6618,108.426a18.05,18.05,0,0,0,12.7119,0"/><path class="b2491dd5-f3d7-43e0-ab4e-55e500ede208" d="M74.8171,109.7943a18.6274,18.6274,0,0,1-2.5685-.1751,14.0065,14.0065,0,0,1-3.6915-.9685.2479.2479,0,0,1,.2094-.45,17.9765,17.9765,0,0,0,12.526-.01.248.248,0,1,1,.1624.4686A20.2458,20.2458,0,0,1,74.8171,109.7943Z"/><path class="f4812149-c1bb-4b00-aa4b-d85fbc7c97fa" d="M68.6618,110.8424a18.05,18.05,0,0,0,12.7119,0"/><path class="b2491dd5-f3d7-43e0-ab4e-55e500ede208" d="M74.8171,112.2108a18.6431,18.6431,0,0,1-2.5685-.1751,14.0137,14.0137,0,0,1-3.6915-.9684.248.248,0,0,1,.2094-.45,17.9792,17.9792,0,0,0,12.526-.01.248.248,0,1,1,.1624.4686A20.2511,20.2511,0,0,1,74.8171,112.2108Z"/></svg>