<svg id="a61375be-d140-434b-81f7-3959a68bb8fb" data-name="Layer 1" xmlns="http://www.w3.org/2000/svg" viewBox="0 0 360 150"><defs><style>.eb5bf3b1-f6d5-4326-b783-00c2a9453591{fill:#e00;}</style></defs><rect width="360" height="150"/><path class="eb5bf3b1-f6d5-4326-b783-00c2a9453591" d="M77.27,48.8254h8.6862c3.8364,0,6.4121,2.3018,6.4121,5.6722a5.41,5.41,0,0,1-3.9459,5.2337l4.2747,8.2753H89.5181l-3.9732-7.8642H80.1467v7.8642H77.27Zm8.4671,8.9057c2.2469,0,3.754-1.2605,3.754-3.2061,0-1.9181-1.5071-3.1786-3.754-3.1786h-5.59v6.3847Z"/><path class="eb5bf3b1-f6d5-4326-b783-00c2a9453591" d="M93.5456,61.0192a7.032,7.032,0,0,1,6.9876-7.2066c3.8362,0,6.7407,3.206,6.7407,7.3436v.7673H96.2859a4.7,4.7,0,0,0,4.6856,4.0006,5.2815,5.2815,0,0,0,3.5348-1.2331l1.7537,1.7263a8.37,8.37,0,0,1-5.398,1.836A7.1772,7.1772,0,0,1,93.5456,61.0192Zm11.0156-1.1509a4.292,4.292,0,0,0-4.0829-3.7265,4.2355,4.2355,0,0,0-4.165,3.7265Z"/><path class="eb5bf3b1-f6d5-4326-b783-00c2a9453591" d="M109.2736,61.0192a7.0483,7.0483,0,0,1,7.0971-7.1792,6.948,6.948,0,0,1,4.1924,1.3975V48.8254l2.74-.5206V68.0066h-2.7127V66.664a6.3643,6.3643,0,0,1-4.2747,1.5619A7.0432,7.0432,0,0,1,109.2736,61.0192Zm11.29,3.1238V57.868a5.1382,5.1382,0,0,0-3.8911-1.6715,4.8239,4.8239,0,0,0,0,9.6453A4.9345,4.9345,0,0,0,120.5631,64.143Z"/><path class="eb5bf3b1-f6d5-4326-b783-00c2a9453591" d="M132.5917,48.8254h2.877v8.2205h10.1935V48.8254h2.8772V68.0066h-2.8772V59.6492H135.4687v8.3574h-2.877Z"/><path class="eb5bf3b1-f6d5-4326-b783-00c2a9453591" d="M151.142,64.006c0-2.6306,2.1374-4.2473,5.6448-4.2473a9.2954,9.2954,0,0,1,3.8087.7946v-1.48c0-1.973-1.1782-2.9868-3.3978-2.9868a9.9147,9.9147,0,0,0-4.3294,1.1782l-1.0138-2.055a13.1435,13.1435,0,0,1,5.7268-1.4249c3.6444,0,5.7,1.7811,5.7,4.96v9.2617h-2.6855V66.8009a6.6167,6.6167,0,0,1-4.3294,1.4524C153.2519,68.2533,151.142,66.5268,151.142,64.006Zm5.7543,2.192a5.2822,5.2822,0,0,0,3.6992-1.3152V62.5262a6.9075,6.9075,0,0,0-3.59-.8768c-2,0-3.2333.9043-3.2333,2.3017C153.7726,65.2938,155.0331,66.198,156.8963,66.198Z"/><path class="eb5bf3b1-f6d5-4326-b783-00c2a9453591" d="M167.8291,64.554V56.3608H164.87V54.0593h2.9593V50.497l2.7128-.6576v4.22h4.11v2.3015h-4.11v7.5629c0,1.4249.5755,1.973,2.0551,1.973a5.3859,5.3859,0,0,0,2-.3288V67.87a9.2111,9.2111,0,0,1-2.6031.3837C169.2814,68.2533,167.8291,66.9928,167.8291,64.554Z"/><path class="eb5bf3b1-f6d5-4326-b783-00c2a9453591" d="M77.05,77.5964h3.9734V96.7775H77.05Z"/><path class="eb5bf3b1-f6d5-4326-b783-00c2a9453591" d="M84.2565,82.5013H88.01v1.151a5.9536,5.9536,0,0,1,4.0006-1.4249,5.4234,5.4234,0,0,1,5.6448,5.6993v8.8508h-3.754V88.4749a2.7913,2.7913,0,0,0-2.9595-3.0141A3.4884,3.4884,0,0,0,88.01,86.8854v9.8921H84.2565Z"/><path class="eb5bf3b1-f6d5-4326-b783-00c2a9453591" d="M100.231,78.6651a2.1374,2.1374,0,1,1,2.1373,2.1374A2.14,2.14,0,0,1,100.231,78.6651Zm.2741,3.8362h3.7539V96.7775h-3.7539Z"/><path class="eb5bf3b1-f6d5-4326-b783-00c2a9453591" d="M109.1358,92.75V85.6251h-2.932V82.5013h2.932V78.8568l3.7541-.8493v4.4938h4.0828v3.1238H112.89v6.3572c0,1.3426.5206,1.836,1.9729,1.836a5.7763,5.7763,0,0,0,2-.3288v3.0963a11.6157,11.6157,0,0,1-2.9045.4107C110.78,96.9965,109.1358,95.5445,109.1358,92.75Z"/><path class="eb5bf3b1-f6d5-4326-b783-00c2a9453591" d="M118.5343,78.6651a2.1374,2.1374,0,1,1,2.1373,2.1374A2.14,2.14,0,0,1,118.5343,78.6651Zm.2741,3.8362h3.7539V96.7775h-3.7539Z"/><path class="eb5bf3b1-f6d5-4326-b783-00c2a9453591" d="M124.8361,92.64c0-2.7127,2.1648-4.33,5.8092-4.33a10.5788,10.5788,0,0,1,3.5074.5757V87.8447c0-1.6443-1.0138-2.4936-3.0142-2.4936a10.613,10.613,0,0,0-4.3568,1.1781l-1.37-2.7675a14.7935,14.7935,0,0,1,6.3572-1.5343c3.8637,0,6.0831,1.9179,6.0831,5.2885v9.2616h-3.6992V95.7636a6.6022,6.6022,0,0,1-4.11,1.26C126.9461,97.024,124.8361,95.2428,124.8361,92.64Zm6.1654,1.6988a5.172,5.172,0,0,0,3.1512-.9315V91.3247a7.7609,7.7609,0,0,0-3.0142-.5482c-1.7263,0-2.74.685-2.74,1.7811S129.4122,94.3387,131.0015,94.3387Z"/><path class="eb5bf3b1-f6d5-4326-b783-00c2a9453591" d="M142.2357,92.75V85.6251h-2.9319V82.5013h2.9319V78.8568l3.7541-.8493v4.4938h4.0829v3.1238H145.99v6.3572c0,1.3426.5206,1.836,1.9729,1.836a5.7772,5.7772,0,0,0,2-.3288v3.0963a11.6163,11.6163,0,0,1-2.9045.4107C143.88,96.9965,142.2357,95.5445,142.2357,92.75Z"/><path class="eb5bf3b1-f6d5-4326-b783-00c2a9453591" d="M151.634,78.6651a2.1374,2.1374,0,1,1,2.1374,2.1374A2.14,2.14,0,0,1,151.634,78.6651Zm.2741,3.8362h3.754V96.7775h-3.754Z"/><path class="eb5bf3b1-f6d5-4326-b783-00c2a9453591" d="M157.1139,82.5013h4.0829l3.9183,9.5084,3.8911-9.5084h4.0006l-6.138,14.2762h-3.6444Z"/><path class="eb5bf3b1-f6d5-4326-b783-00c2a9453591" d="M173.4172,89.6533a7.3042,7.3042,0,0,1,7.3436-7.3985c4.0554,0,7.07,3.288,7.07,7.6724v.9864H177.2534A4.0557,4.0557,0,0,0,181.2541,93.9a4.4472,4.4472,0,0,0,3.1512-1.1506l2.4662,2.2467a8.5794,8.5794,0,0,1-5.8092,2.0551A7.4251,7.4251,0,0,1,173.4172,89.6533Zm10.714-1.4249a3.5825,3.5825,0,0,0-3.4525-2.8773,3.5136,3.5136,0,0,0-3.48,2.8773Z"/><path class="eb5bf3b1-f6d5-4326-b783-00c2a9453591" d="M195.8857,77.5964h3.9733V93.27h10.4948v3.5075H195.8857Z"/><path class="eb5bf3b1-f6d5-4326-b783-00c2a9453591" d="M211.6683,89.6533a7.6209,7.6209,0,1,1,7.6177,7.3981A7.4408,7.4408,0,0,1,211.6683,89.6533Zm11.5909,0a3.9646,3.9646,0,1,0-7.9191,0,3.9634,3.9634,0,1,0,7.9191,0Z"/><path class="eb5bf3b1-f6d5-4326-b783-00c2a9453591" d="M230.4381,101.3261l1.3152-2.9047a10.1218,10.1218,0,0,0,4.5486,1.1236c2.2469,0,3.3979-.959,3.3979-2.85V95.5716a6.7067,6.7067,0,0,1-3.9185,1.2881,7.289,7.289,0,0,1,.11-14.5775,7.0275,7.0275,0,0,1,3.8636,1.1507v-.9316h3.6992V96.75c0,3.7814-2.4934,5.8913-7.07,5.8913A13.2789,13.2789,0,0,1,230.4381,101.3261Zm9.2617-8.96v-5.59a4.7545,4.7545,0,0,0-3.3156-1.2881,4.0967,4.0967,0,1,0-.0274,8.1932A4.52,4.52,0,0,0,239.7,92.3659Z"/><path class="eb5bf3b1-f6d5-4326-b783-00c2a9453591" d="M245.7548,89.6533a7.6209,7.6209,0,1,1,7.6177,7.3981A7.4408,7.4408,0,0,1,245.7548,89.6533Zm11.5909,0a3.9646,3.9646,0,1,0-7.9191,0,3.9634,3.9634,0,1,0,7.9191,0Z"/><path class="eb5bf3b1-f6d5-4326-b783-00c2a9453591" d="M268.383,79.9261A14.583,14.583,0,0,1,253.8164,65.36V52.5056a1.7126,1.7126,0,0,1,1.7125-1.7126h25.7082a1.7126,1.7126,0,0,1,1.7126,1.7126V65.36A14.583,14.583,0,0,1,268.383,79.9261Zm-11.1415-25.708V65.36a11.1415,11.1415,0,0,0,22.283,0V54.2181Z"/><path class="eb5bf3b1-f6d5-4326-b783-00c2a9453591" d="M261.9559,54.2181a1.7126,1.7126,0,0,1-1.7126-1.7125V39.6515a1.7126,1.7126,0,0,1,3.4252,0V52.5056A1.7126,1.7126,0,0,1,261.9559,54.2181Z"/><path class="eb5bf3b1-f6d5-4326-b783-00c2a9453591" d="M274.81,54.2181a1.7126,1.7126,0,0,1-1.7126-1.7125V39.6515a1.7126,1.7126,0,1,1,3.4251,0V52.5056A1.7126,1.7126,0,0,1,274.81,54.2181Z"/><path class="eb5bf3b1-f6d5-4326-b783-00c2a9453591" d="M233.0345,78.8314a1.7126,1.7126,0,0,1-1.7125-1.7126V63.995a15.9617,15.9617,0,0,0-31.9234,0v8.0921a1.7126,1.7126,0,1,1-3.4251,0V63.995a19.3868,19.3868,0,1,1,38.7736,0V77.1188A1.7126,1.7126,0,0,1,233.0345,78.8314Z"/><path class="eb5bf3b1-f6d5-4326-b783-00c2a9453591" d="M250.7087,112.0611a19.2888,19.2888,0,0,1-10.8656-3.3288,1.7126,1.7126,0,0,1,1.922-2.8351,15.9643,15.9643,0,0,0,24.9054-13.2229V78.2136a1.7126,1.7126,0,1,1,3.4251,0V92.6743A19.4089,19.4089,0,0,1,250.7087,112.0611Z"/></svg>