<svg id="e542c9b8-0c38-4466-8dda-4a0f6585361c" data-name="Layer 1" xmlns="http://www.w3.org/2000/svg" viewBox="0 0 555 250"><defs><style>.b9933994-17b4-45a7-9933-de1877b908cd{fill:#fff;}.f8c3b312-3269-4062-ae5d-ffe6583c3eef{fill:#e00;}</style></defs><rect width="555" height="250"/><path class="b9933994-17b4-45a7-9933-de1877b908cd" d="M94.8042,78.4511h15.4476c6.8226,0,11.4033,4.0935,11.4033,10.0874a9.62,9.62,0,0,1-7.0175,9.3076l7.6022,14.7168H116.587l-7.0659-13.9857h-9.6v13.9857H94.8042Zm15.058,15.8378c3.9959,0,6.676-2.2417,6.676-5.7016,0-3.4111-2.68-5.6528-6.676-5.6528H99.9208V94.2889Z"/><path class="b9933994-17b4-45a7-9933-de1877b908cd" d="M123.75,100.1366A12.5056,12.5056,0,0,1,136.1762,87.32c6.8223,0,11.9876,5.7016,11.9876,13.06v1.3645h-19.541a8.3593,8.3593,0,0,0,8.3329,7.1147,9.3934,9.3934,0,0,0,6.2864-2.1929l3.1187,3.07a14.8858,14.8858,0,0,1-9.6,3.2651A12.7639,12.7639,0,0,1,123.75,100.1366ZM143.34,98.09c-.6823-3.8008-3.655-6.6272-7.261-6.6272a7.5324,7.5324,0,0,0-7.407,6.6272Z"/><path class="b9933994-17b4-45a7-9933-de1877b908cd" d="M151.72,100.1366a12.5346,12.5346,0,0,1,12.6215-12.7675,12.3569,12.3569,0,0,1,7.4558,2.4852V78.4511l4.873-.9259v35.0377h-4.8242v-2.3877a11.3185,11.3185,0,0,1-7.6022,2.7777A12.5256,12.5256,0,0,1,151.72,100.1366Zm20.0773,5.5553V94.5325a9.1376,9.1376,0,0,0-6.92-2.9727,8.5789,8.5789,0,0,0,0,17.1533A8.7753,8.7753,0,0,0,171.7974,105.6919Z"/><path class="b9933994-17b4-45a7-9933-de1877b908cd" d="M193.189,78.4511h5.1166V93.07h18.128V78.4511H221.55v34.1118h-5.1168V97.7h-18.128v14.8628H193.189Z"/><path class="b9933994-17b4-45a7-9933-de1877b908cd" d="M226.179,105.4483c0-4.6782,3.801-7.5534,10.0386-7.5534a16.532,16.532,0,0,1,6.7735,1.413V96.6766c0-3.5087-2.0953-5.3116-6.0427-5.3116A17.6327,17.6327,0,0,0,229.249,93.46l-1.803-3.6547a23.3751,23.3751,0,0,1,10.1847-2.5341c6.4811,0,10.1362,3.1676,10.1362,8.82v16.471h-4.7758v-2.1441a11.7675,11.7675,0,0,1-7.6994,2.5828C229.9312,113.0016,226.179,109.9313,226.179,105.4483Zm10.2334,3.8983a9.3947,9.3947,0,0,0,6.5787-2.3389v-4.191a12.283,12.283,0,0,0-6.3839-1.5594c-3.5572,0-5.75,1.6081-5.75,4.0934C230.8571,107.7384,233.0988,109.3466,236.4124,109.3466Z"/><path class="b9933994-17b4-45a7-9933-de1877b908cd" d="M255.8553,106.4229V91.8521h-5.2629V87.759h5.2629V81.4239l4.8245-1.1695V87.759h7.31v4.0931h-7.31v13.45c0,2.5341,1.0234,3.5087,3.6547,3.5087a9.5776,9.5776,0,0,0,3.5575-.5847v4.0934a16.3794,16.3794,0,0,1-4.6294.6823C258.4381,113.0016,255.8553,110.76,255.8553,106.4229Z"/><path class="b9933994-17b4-45a7-9933-de1877b908cd" d="M94.4143,129.6175h7.0662V163.729H94.4143Z"/><path class="b9933994-17b4-45a7-9933-de1877b908cd" d="M107.23,138.34h6.676v2.0469a10.5883,10.5883,0,0,1,7.1147-2.534c5.8964,0,10.0386,4.1419,10.0386,10.1356v15.74h-6.676V148.9637c0-3.2651-2.0468-5.36-5.2632-5.36a6.2035,6.2035,0,0,0-5.2141,2.5334v17.592H107.23Z"/><path class="b9933994-17b4-45a7-9933-de1877b908cd" d="M135.6387,131.518a3.8011,3.8011,0,1,1,3.8011,3.8011A3.8061,3.8061,0,0,1,135.6387,131.518Zm.4875,6.8223h6.676V163.729h-6.676Z"/><path class="b9933994-17b4-45a7-9933-de1877b908cd" d="M151.475,156.5659v-12.67h-5.2141V138.34h5.2141v-6.4814l6.6763-1.51V138.34h7.261v5.5553h-7.261v11.3057c0,2.3877.9259,3.2651,3.5087,3.2651a10.2722,10.2722,0,0,0,3.5572-.5847v5.5065a20.6564,20.6564,0,0,1-5.1653.73C154.399,164.1186,151.475,161.5364,151.475,156.5659Z"/><path class="b9933994-17b4-45a7-9933-de1877b908cd" d="M168.1894,131.518a3.8011,3.8011,0,1,1,3.801,3.8011A3.806,3.806,0,0,1,168.1894,131.518Zm.4874,6.8223h6.676V163.729h-6.676Z"/><path class="b9933994-17b4-45a7-9933-de1877b908cd" d="M179.3966,156.3708c0-4.8243,3.85-7.7,10.331-7.7a18.8155,18.8155,0,0,1,6.2376,1.0237V147.843c0-2.9242-1.803-4.4346-5.3605-4.4346a18.8752,18.8752,0,0,0-7.7482,2.0951l-2.4365-4.9218a26.311,26.311,0,0,1,11.3057-2.7285c6.8711,0,10.8182,3.4108,10.8182,9.4051V163.729h-6.5787v-1.803a11.742,11.742,0,0,1-7.31,2.2414C183.1489,164.1674,179.3966,161,179.3966,156.3708Zm10.9645,3.0212a9.1984,9.1984,0,0,0,5.6041-1.6567v-3.7035a13.8038,13.8038,0,0,0-5.3605-.9749c-3.07,0-4.873,1.2182-4.873,3.1675S187.5347,159.392,190.3611,159.392Z"/><path class="b9933994-17b4-45a7-9933-de1877b908cd" d="M210.34,156.5659v-12.67h-5.2142V138.34H210.34v-6.4814l6.6762-1.51V138.34h7.261v5.5553h-7.261v11.3057c0,2.3877.9259,3.2651,3.5087,3.2651a10.2722,10.2722,0,0,0,3.5572-.5847v5.5065a20.6564,20.6564,0,0,1-5.1653.73C213.2639,164.1186,210.34,161.5364,210.34,156.5659Z"/><path class="b9933994-17b4-45a7-9933-de1877b908cd" d="M227.054,131.518a3.8011,3.8011,0,1,1,3.801,3.8011A3.806,3.806,0,0,1,227.054,131.518Zm.4874,6.8223h6.676V163.729h-6.676Z"/><path class="b9933994-17b4-45a7-9933-de1877b908cd" d="M236.7994,138.34h7.261l6.9683,16.91,6.92-16.91h7.1146L254.1475,163.729h-6.4812Z"/><path class="b9933994-17b4-45a7-9933-de1877b908cd" d="M265.7931,151.0594a12.99,12.99,0,0,1,13.06-13.1575c7.2122,0,12.5727,5.8474,12.5727,13.6446v1.7543h-18.81a7.2129,7.2129,0,0,0,7.115,5.3113,7.9089,7.9089,0,0,0,5.604-2.0462l4.3858,3.9956a15.2574,15.2574,0,0,1-10.331,3.6547C271.7383,164.2162,265.7931,158.4664,265.7931,151.0594Zm19.0539-2.5341a6.3713,6.3713,0,0,0-6.14-5.1169,6.2484,6.2484,0,0,0-6.1887,5.1169Z"/><path class="b9933994-17b4-45a7-9933-de1877b908cd" d="M305.7511,129.6175h7.0662v27.874h18.6639v6.2375h-25.73Z"/><path class="b9933994-17b4-45a7-9933-de1877b908cd" d="M333.819,151.0594a13.553,13.553,0,1,1,13.5473,13.1568A13.2328,13.2328,0,0,1,333.819,151.0594Zm20.6132,0a7.0507,7.0507,0,1,0-14.0833,0,7.0485,7.0485,0,1,0,14.0833,0Z"/><path class="b9933994-17b4-45a7-9933-de1877b908cd" d="M367.1991,171.8184l2.339-5.1657a18.0022,18.0022,0,0,0,8.0893,1.9981c3.9959,0,6.0427-1.7054,6.0427-5.0681v-1.9981a11.9275,11.9275,0,0,1-6.9686,2.2908,12.9627,12.9627,0,0,1,.1948-25.9247,12.4976,12.4976,0,0,1,6.8711,2.0463V138.34h6.5787v25.34c0,6.7248-4.4343,10.4771-12.5724,10.4771A23.6161,23.6161,0,0,1,367.1991,171.8184Zm16.471-15.9348v-9.9411a8.4546,8.4546,0,0,0-5.8964-2.2908,7.2856,7.2856,0,1,0-.0488,14.5708A8.0389,8.0389,0,0,0,383.67,155.8836Z"/><path class="b9933994-17b4-45a7-9933-de1877b908cd" d="M394.4384,151.0594a13.553,13.553,0,1,1,13.5473,13.1568A13.2328,13.2328,0,0,1,394.4384,151.0594Zm20.6132,0a7.0507,7.0507,0,1,0-14.0833,0,7.0485,7.0485,0,1,0,14.0833,0Z"/><path class="f8c3b312-3269-4062-ae5d-ffe6583c3eef" d="M434.68,133.7606a25.9344,25.9344,0,0,1-25.9053-25.905v-22.86a3.0458,3.0458,0,0,1,3.0456-3.0456H457.54a3.0456,3.0456,0,0,1,3.0456,3.0456v22.86A25.9344,25.9344,0,0,1,434.68,133.7606ZM414.8663,88.0415v19.8141a19.8141,19.8141,0,0,0,39.6281,0V88.0415Z"/><path class="f8c3b312-3269-4062-ae5d-ffe6583c3eef" d="M423.25,88.0415a3.0457,3.0457,0,0,1-3.0456-3.0456v-22.86a3.0456,3.0456,0,1,1,6.0912,0v22.86A3.0457,3.0457,0,0,1,423.25,88.0415Z"/><path class="f8c3b312-3269-4062-ae5d-ffe6583c3eef" d="M446.11,88.0415a3.0456,3.0456,0,0,1-3.0456-3.0456v-22.86a3.0456,3.0456,0,0,1,6.0912,0v22.86A3.0457,3.0457,0,0,1,446.11,88.0415Z"/><path class="f8c3b312-3269-4062-ae5d-ffe6583c3eef" d="M371.8166,131.8137a3.0456,3.0456,0,0,1-3.0456-3.0456V105.4286a28.3863,28.3863,0,0,0-56.7725,0V119.82a3.0457,3.0457,0,0,1-6.0913,0V105.4286a34.4775,34.4775,0,0,1,68.955,0v23.34A3.0456,3.0456,0,0,1,371.8166,131.8137Z"/><path class="f8c3b312-3269-4062-ae5d-ffe6583c3eef" d="M403.2483,190.9094a34.3027,34.3027,0,0,1-19.3233-5.92,3.0457,3.0457,0,0,1,3.418-5.042,28.3909,28.3909,0,0,0,44.2918-23.5155V130.715a3.0456,3.0456,0,1,1,6.0912,0v25.717A34.5166,34.5166,0,0,1,403.2483,190.9094Z"/></svg>