<svg id="e382cbb7-faa0-4ae9-bacf-7045c77ca800" data-name="Layer 1" xmlns="http://www.w3.org/2000/svg" viewBox="0 0 262 180"><defs><style>.f2b9aac3-bddd-4b49-9099-8a0393557e91{fill:#1d4174;}.a2aa3c6c-9751-4076-921e-ad3bf060be84{fill:#93d3e6;}.e9b3c2b2-8410-41b7-bd36-1220e163b6de{fill:#e00;}</style></defs><path d="M101.9484,62.9762v5.0477h4.4008c1.7688,0,2.9334-1.0138,2.9334-2.5238,0-1.5315-1.1646-2.5239-2.9334-2.5239Zm-2.265-1.9846h6.86c2.9986,0,5.0263,1.812,5.0263,4.4654a4.2651,4.2651,0,0,1-3.1065,4.1417l3.3654,6.4931H109.326l-3.1278-6.191h-4.25v6.191h-2.265v-15.1Z"/><path d="M114.6538,69.685h6.5148a3.2752,3.2752,0,0,0-6.5148,0Zm3.6027,6.601a5.65,5.65,0,0,1-5.76-5.695,5.5174,5.5174,0,0,1,5.5012-5.6517,5.437,5.437,0,0,1,5.3062,5.738v.6256h-8.6716a3.7036,3.7036,0,0,0,3.71,3.1494,4.2694,4.2694,0,0,0,2.7826-.9707l1.3809,1.359a6.5486,6.5486,0,0,1-4.2495,1.4454Z"/><path d="M130.7459,74.3876a3.9565,3.9565,0,0,0,3.0415-1.3158V68.0887a4.0145,4.0145,0,0,0-3.0415-1.2944,3.7972,3.7972,0,0,0,0,7.5933Zm3.0631.6688a5.1863,5.1863,0,0,1-3.3651,1.208,5.6626,5.6626,0,1,1,3.3435-10.2466V60.9916l2.1571-.4745V76.0918H133.809V75.0564Z"/><polygon points="143.257 60.992 145.522 60.992 145.522 67.463 153.547 67.463 153.547 60.992 155.812 60.992 155.812 76.092 153.547 76.092 153.547 69.512 145.522 69.512 145.522 76.092 143.257 76.092 143.257 60.992 143.257 60.992"/><path d="M162.39,74.69a4.2214,4.2214,0,0,0,2.9121-1.0354V71.7558a5.7033,5.7033,0,0,0-2.8258-.6687c-1.5747,0-2.5454.7119-2.5454,1.8121,0,1.0569.9923,1.79,2.4591,1.79Zm-4.53-1.7473c0-2.0709,1.6826-3.3436,4.4437-3.3436a7.7485,7.7485,0,0,1,2.9983.6041V69.0379c0-1.5533-.9272-2.33-2.6748-2.33a7.8063,7.8063,0,0,0-3.4082.9276l-.7981-1.6179a10.277,10.277,0,0,1,4.5083-1.1217c2.8477,0,4.4871,1.4022,4.4871,3.9261v7.27h-2.1143v-.9492a5.2071,5.2071,0,0,1-3.4079,1.1434c-2.3947,0-4.0341-1.3592-4.0341-3.3437Z"/><path d="M170.89,66.9238h-2.33V65.1119h2.33V62.3075l2.1356-.5177v3.3221h3.2359v1.8119h-3.2359v5.9538c0,1.1217.4532,1.5316,1.6178,1.5316a4.2384,4.2384,0,0,0,1.575-.2589v1.812a7.1425,7.1425,0,0,1-2.0495.3237c-2.1356,0-3.2789-1.0139-3.2789-2.9122v-6.45Z"/><path d="M106.91,86.273a4.92,4.92,0,1,0,4.7888,4.9185A4.751,4.751,0,0,0,106.91,86.273Zm0,12.7057a7.79,7.79,0,1,1,8.0029-7.7872,7.8143,7.8143,0,0,1-8.0029,7.7872Z"/><path d="M119.8093,90.9327v4.4221a3.7846,3.7846,0,0,0,2.6746,1.0354,3.2575,3.2575,0,1,0,0-6.5148,3.623,3.623,0,0,0-2.6746,1.0573Zm-2.9552-3.43h2.9118V88.43a5.0973,5.0973,0,0,1,3.1925-1.0786,5.7706,5.7706,0,0,1-.086,11.5408,5.5834,5.5834,0,0,1-3.0631-.8844V103.25h-2.9552V87.5026Z"/><path d="M133.0106,92.0112h5.5006a2.8994,2.8994,0,0,0-2.7395-2.2652,2.8227,2.8227,0,0,0-2.7611,2.2652Zm3.0846,6.9459a5.8508,5.8508,0,0,1-6.04-5.8242,5.7367,5.7367,0,0,1,5.781-5.8244c3.1928,0,5.5656,2.5885,5.5656,6.04v.7764h-8.37a3.2379,3.2379,0,0,0,3.1923,2.3515,3.5391,3.5391,0,0,0,2.4809-.906l1.9414,1.7688a6.7369,6.7369,0,0,1-4.5515,1.6178Z"/><path d="M143.2134,87.5026h2.9553v.8844a4.8248,4.8248,0,0,1,3.1494-1.1,4.264,4.264,0,0,1,4.4439,4.4655v6.989h-2.9553V92.1838a2.1915,2.1915,0,0,0-2.33-2.3513,2.6925,2.6925,0,0,0-2.3081,1.1215v7.7874h-2.9553V87.5026Z"/><path d="M161.0309,94.1036a7.4792,7.4792,0,0,0,5.1121,2.2c1.8767,0,3.085-.7334,3.085-1.8983,0-1.0354-.6906-1.5531-2.4807-1.8551l-2.9984-.5177c-2.5888-.4314-3.9478-1.8338-3.9478-4.0341,0-2.8258,2.2865-4.573,5.9536-4.573a10.4921,10.4921,0,0,1,6.2344,2.1139l-1.6826,2.33a7.6848,7.6848,0,0,0-4.7675-1.812c-1.6825,0-2.7611.6687-2.7611,1.7042,0,.9275.604,1.4021,2.1571,1.6394l2.8477.4745c3.02.4964,4.5084,1.92,4.5084,4.25,0,2.9554-2.4807,4.8321-6.3635,4.8321a10.0112,10.0112,0,0,1-6.6873-2.61l1.7906-2.2434Z"/><path d="M175.0735,89.9833h-2.3081V87.5026h2.3081v-2.869l2.9555-.6687v3.5377h3.1922v2.4807H178.029v4.9832c0,1.057.41,1.4452,1.5528,1.4452a4.5457,4.5457,0,0,0,1.5747-.2588v2.416a9.1683,9.1683,0,0,1-2.2862.3451c-2.5026,0-3.7968-1.1433-3.7968-3.3435V89.9833Z"/><path d="M185.5568,94.0389a2.2085,2.2085,0,0,0,2.33,2.3728,2.7049,2.7049,0,0,0,2.33-1.1216V87.5026h2.9555V98.7414h-2.9555v-.906a4.7844,4.7844,0,0,1-3.171,1.1217,4.2811,4.2811,0,0,1-4.4436-4.4867V87.5026h2.955v6.5363Z"/><path d="M201.1527,96.3686a3.6049,3.6049,0,0,0,2.6748-1.0785v-4.379a3.71,3.71,0,0,0-2.6748-1.0572,3.2574,3.2574,0,1,0,0,6.5147Zm2.7179,1.4453a5.0963,5.0963,0,0,1-3.1922,1.0785,5.7706,5.7706,0,0,1,.086-11.5408,5.5854,5.5854,0,0,1,3.0631.8844V83.6414l2.9555-.6472V98.7414h-2.9124v-.9275Z"/><path d="M212.0674,98.7414h-2.9552V87.5026h2.9552V98.7414Zm-3.1712-14.2588a1.6827,1.6827,0,1,1,1.6825,1.6826,1.6848,1.6848,0,0,1-1.6825-1.6826Z"/><path d="M222.9606,93.1329a3.11,3.11,0,1,0-3.106,3.2573,3.1486,3.1486,0,0,0,3.106-3.2573Zm-3.106-5.846a5.8373,5.8373,0,1,1-5.9971,5.846,5.8577,5.8577,0,0,1,5.9971-5.846Z"/><path d="M111.1164,116.7965l2.0493,2.0276a8.2982,8.2982,0,0,1-6.1909,2.7827,7.781,7.781,0,1,1,0-15.553,8.2736,8.2736,0,0,1,6.2772,2.8258l-2.114,2.0924a5.26,5.26,0,0,0-4.1632-2.0493,4.897,4.897,0,0,0,.086,9.7936,5.1838,5.1838,0,0,0,4.0556-1.92Z"/><path d="M122.9587,115.7823a3.11,3.11,0,1,0-3.106,3.2576,3.1485,3.1485,0,0,0,3.106-3.2576Zm-3.106-5.8457a5.8373,5.8373,0,1,1-5.9973,5.8457,5.8577,5.8577,0,0,1,5.9973-5.8457Z"/><path d="M127.6612,110.1523h2.9552v.8415a4.37,4.37,0,0,1,2.9337-1.0572,4.0343,4.0343,0,0,1,3.3867,1.6825,4.6248,4.6248,0,0,1,3.71-1.6825,4.1924,4.1924,0,0,1,4.2926,4.4652v6.9893h-2.9552v-6.5576a2.0975,2.0975,0,0,0-2.114-2.3515,2.5306,2.5306,0,0,0-2.1571,1.1217,4.8093,4.8093,0,0,1,.0645.7981v6.9893h-2.9553v-6.5576a2.0975,2.0975,0,0,0-2.114-2.3515,2.5079,2.5079,0,0,0-2.0924,1.0141v7.895h-2.9552V110.1523Z"/><path d="M147.2044,110.1523H150.16v.8415a4.37,4.37,0,0,1,2.9337-1.0572,4.0346,4.0346,0,0,1,3.3869,1.6825,4.6244,4.6244,0,0,1,3.71-1.6825,4.1924,4.1924,0,0,1,4.2926,4.4652v6.9893h-2.9552v-6.5576a2.0976,2.0976,0,0,0-2.1143-2.3515,2.5309,2.5309,0,0,0-2.1571,1.1217,4.7556,4.7556,0,0,1,.065.7981v6.9893h-2.9552v-6.5576a2.0976,2.0976,0,0,0-2.1143-2.3515,2.5078,2.5078,0,0,0-2.0924,1.0141v7.895h-2.9552V110.1523Z"/><path d="M169.5089,116.6886a2.2082,2.2082,0,0,0,2.33,2.3726,2.7042,2.7042,0,0,0,2.3294-1.1217v-7.7872h2.9555v11.2388h-2.9555v-.906a4.7849,4.7849,0,0,1-3.171,1.1217,4.2813,4.2813,0,0,1-4.4436-4.487v-6.9675h2.9552v6.5363Z"/><path d="M179.4316,110.1523h2.9553v.8847a4.8226,4.8226,0,0,1,3.1491-1.1,4.2639,4.2639,0,0,1,4.4439,4.4652v6.9893h-2.9552v-6.5576a2.1916,2.1916,0,0,0-2.33-2.3515,2.6924,2.6924,0,0,0-2.3078,1.1217v7.7874h-2.9553V110.1523Z"/><path d="M195.178,121.3911h-2.9552V110.1523h2.9552v11.2388Zm-3.1712-14.2588a1.6827,1.6827,0,1,1,1.6828,1.6826,1.6849,1.6849,0,0,1-1.6828-1.6826Z"/><path d="M199.0174,112.6332h-2.3081v-2.4809h2.3081v-2.869l2.9553-.6687v3.5377h3.1928v2.4809h-3.1928v4.983c0,1.057.41,1.445,1.5533,1.445a4.5465,4.5465,0,0,0,1.5747-.2586v2.4159a9.1658,9.1658,0,0,1-2.2868.3452c-2.5022,0-3.7965-1.1433-3.7965-3.3438v-5.5867Z"/><path d="M210.0616,121.499l-4.379-11.3467H208.94l2.7829,7.658,3.1923-7.658h3.1927l-5.177,12.1232c-1.1649,2.718-2.5238,3.7534-4.9829,3.7534a5.4052,5.4052,0,0,1-1.3162-.1292v-2.5456a4.6172,4.6172,0,0,0,1.0355.0865,2.2636,2.2636,0,0,0,2.2221-1.5318l.1723-.41Z"/><path class="f2b9aac3-bddd-4b49-9099-8a0393557e91" d="M74.1582,100.9326a1.348,1.348,0,1,0,1.6745.914A1.3475,1.3475,0,0,0,74.1582,100.9326Z"/><path class="f2b9aac3-bddd-4b49-9099-8a0393557e91" d="M63.3846,56.4388a1.2092,1.2092,0,0,0,.2346.124,1.3579,1.3579,0,0,0,.2508.0781,1.4212,1.4212,0,0,0,.2642.0271,1.3581,1.3581,0,0,0,.9516-.3964,1.3728,1.3728,0,0,0,.17-.2049,1.4944,1.4944,0,0,0,.1241-.2319,1.3678,1.3678,0,0,0,.0752-.2534,1.2164,1.2164,0,0,0,.0272-.2615,1.3482,1.3482,0,0,0-.3966-.9546,1.33,1.33,0,0,0-1.4666-.2913,1.21,1.21,0,0,0-.2346.1241,1.3446,1.3446,0,0,0,0,2.2407Z"/><path class="f2b9aac3-bddd-4b49-9099-8a0393557e91" d="M73.7388,59.4425a1.37,1.37,0,0,0,.6387.1618,1.3478,1.3478,0,1,0-.6387-.1618Z"/><path class="f2b9aac3-bddd-4b49-9099-8a0393557e91" d="M69.0443,57.5281a1.3778,1.3778,0,0,0,.3722.0513,1.3456,1.3456,0,1,0-.3722-.0513Z"/><path class="f2b9aac3-bddd-4b49-9099-8a0393557e91" d="M85.2305,71.1368a1.3192,1.3192,0,0,0,.5636-.1267,1.34,1.34,0,1,0-.5636.1267Z"/><path class="f2b9aac3-bddd-4b49-9099-8a0393557e91" d="M78.7972,62.6405a1.3482,1.3482,0,1,0-.879-.3262A1.3408,1.3408,0,0,0,78.7972,62.6405Z"/><path class="f2b9aac3-bddd-4b49-9099-8a0393557e91" d="M82.47,66.5421a1.347,1.347,0,1,0-1.0759-.534A1.3448,1.3448,0,0,0,82.47,66.5421Z"/><path class="f2b9aac3-bddd-4b49-9099-8a0393557e91" d="M85.6242,75.1571A1.3516,1.3516,0,0,0,86.94,76.2139a1.3868,1.3868,0,0,0,.2942-.0322,1.3476,1.3476,0,1,0-1.61-1.0246Z"/><path class="f2b9aac3-bddd-4b49-9099-8a0393557e91" d="M81.4963,94.4229a1.3487,1.3487,0,1,0,1.8875-.2751A1.35,1.35,0,0,0,81.4963,94.4229Z"/><path class="f2b9aac3-bddd-4b49-9099-8a0393557e91" d="M85.8615,89.3887a1.3477,1.3477,0,1,0,.6714,1.7823A1.3469,1.3469,0,0,0,85.8615,89.3887Z"/><path class="f2b9aac3-bddd-4b49-9099-8a0393557e91" d="M78.0476,98.1412a1.3492,1.3492,0,1,0,1.9037.1321A1.3491,1.3491,0,0,0,78.0476,98.1412Z"/><path class="f2b9aac3-bddd-4b49-9099-8a0393557e91" d="M87.5252,78.8431a1.3483,1.3483,0,0,0,.0056,2.6965h.0051a1.3483,1.3483,0,1,0-.0107-2.6965Z"/><path class="f2b9aac3-bddd-4b49-9099-8a0393557e91" d="M87.2636,84.2037A1.3482,1.3482,0,1,0,86.7,86.8406a1.2652,1.2652,0,0,0,.2829.03,1.3483,1.3483,0,0,0,.28-2.6665Z"/><path class="f2b9aac3-bddd-4b49-9099-8a0393557e91" d="M69.2115,102.992a1.348,1.348,0,1,0,1.6745.9141A1.3477,1.3477,0,0,0,69.2115,102.992Z"/><path class="f2b9aac3-bddd-4b49-9099-8a0393557e91" d="M65.5468,104.7232a1.4363,1.4363,0,0,0-.124-.2319,1.3522,1.3522,0,0,0-.17-.2051,1.2411,1.2411,0,0,0-.2047-.17,1.4752,1.4752,0,0,0-.2322-.124,1.4186,1.4186,0,0,0-.2505-.0755,1.3578,1.3578,0,0,0-1.2187.3694,1.2243,1.2243,0,0,0-.1672.2051,1.4363,1.4363,0,0,0-.124.2319,1.3179,1.3179,0,0,0-.0755.25,1.2553,1.2553,0,0,0-.027.2644,1.2158,1.2158,0,0,0,.027.2642,1.3154,1.3154,0,0,0,.0755.2507,1.4585,1.4585,0,0,0,.124.2346,1.3436,1.3436,0,0,0,.1672.2051,1.3579,1.3579,0,0,0,.9545.3936,1.2788,1.2788,0,0,0,.2642-.0269,1.4267,1.4267,0,0,0,.2505-.0754,1.484,1.484,0,0,0,.2322-.1241,1.2262,1.2262,0,0,0,.2047-.1672,1.4991,1.4991,0,0,0,.17-.2051,1.4585,1.4585,0,0,0,.124-.2346,1.3308,1.3308,0,0,0,.0758-.2507,1.4357,1.4357,0,0,0,.027-.2642,1.4909,1.4909,0,0,0-.027-.2644A1.3333,1.3333,0,0,0,65.5468,104.7232Z"/><path class="f2b9aac3-bddd-4b49-9099-8a0393557e91" d="M59.1312,56.8551a1.3483,1.3483,0,0,0-.3818-2.6695,26.3692,26.3692,0,0,0,0,52.1968,1.3483,1.3483,0,0,0,.3818-2.6694,23.6725,23.6725,0,0,1,0-46.8579Z"/><path class="a2aa3c6c-9751-4076-921e-ad3bf060be84" d="M59.2186,96.4231a16.4729,16.4729,0,0,1,0-32.2781,1.3481,1.3481,0,0,0-.5364-2.6424,19.1692,19.1692,0,0,0,0,37.5629,1.3481,1.3481,0,0,0,.5364-2.6424Z"/><path class="e9b3c2b2-8410-41b7-bd36-1220e163b6de" d="M74.6448,91.4223a16.4258,16.4258,0,0,1-9.1629,5.0636V91.9511a12.0389,12.0389,0,0,0,0-23.3343V64.0822a16.4712,16.4712,0,0,1,9.1629,27.34ZM53.172,80.2841a9.342,9.342,0,1,1,9.342,9.3416,9.3524,9.3524,0,0,1-9.342-9.3416ZM76.63,67.3215a19.1069,19.1069,0,0,0-12.3759-6.1243,1.3483,1.3483,0,0,0-1.469,1.3428v5.7126c-.0906-.002-.1807-.0068-.2715-.0068a12.0382,12.0382,0,1,0,0,24.0763c.0908,0,.1809-.0048.2715-.0067v5.7128a1.348,1.348,0,0,0,1.3482,1.3482c.04,0,.0806-.0019.1208-.0054A19.1662,19.1662,0,0,0,76.63,67.3215Z"/></svg>