<svg xmlns="http://www.w3.org/2000/svg" width="652" height="395" viewBox="0 0 652 395"><defs><style>.a{fill:#989898;}.b{fill:#e00;}</style></defs><path class="a" d="M50.9951,266.7651h3.3828a2.3409,2.3409,0,0,1,2.65,2.3266,2.2181,2.2181,0,0,1-1.8232,2.2427l1.8594,3.8262h-.6l-1.8232-3.7539a1.9029,1.9029,0,0,1-.2637.0117h-2.831v3.7422h-.5518Zm.5518.5156v3.622h2.7949c1.3789,0,2.123-.7793,2.123-1.811s-.7441-1.811-2.123-1.811Z"/><path class="a" d="M60.667,275.28a2.9739,2.9739,0,0,1-2.9385-3.07,2.9352,2.9352,0,0,1,2.89-3.07,2.8283,2.8283,0,0,1,2.6748,2.9985v.2158H58.2676a2.4587,2.4587,0,0,0,2.3994,2.4229,3.06,3.06,0,0,0,1.835-.6l.3115.4194A3.5735,3.5735,0,0,1,60.667,275.28Zm-2.375-3.43H62.73a2.2689,2.2689,0,0,0-2.1231-2.207A2.3673,2.3673,0,0,0,58.292,271.8505Z"/><path class="a" d="M69.3408,274.453a2.7765,2.7765,0,0,1-2.0263.8272,3.0733,3.0733,0,0,1,0-6.1406,3.09,3.09,0,0,1,2.0263.8159v-3.19l.5274-.1319v8.5274h-.5274Zm-2.0263.3238a2.4234,2.4234,0,0,0,2.0263-.9834v-3.1665a2.5572,2.5572,0,0,0-2.0263-.9834,2.5725,2.5725,0,0,0,0,5.1333Z"/><path class="a" d="M74.335,266.7651h.5517v3.91h5.35v-3.91h.5518v8.3955h-.5518v-3.97h-5.35v3.97H74.335Z"/><path class="a" d="M82.1357,273.5053c0-1.2232,1.0791-1.811,2.3272-1.811a3.4743,3.4743,0,0,1,1.87.5156v-.9834c0-1.0791-.6113-1.6192-1.7148-1.6192a4.0175,4.0175,0,0,0-1.8711.564l-.2276-.4678a4.4942,4.4942,0,0,1,2.11-.5639c1.416,0,2.2314.6958,2.2314,1.9912v4.03H86.333v-.66a2.8576,2.8576,0,0,1-2.0146.7793C83.06,275.28,82.1357,274.5966,82.1357,273.5053Zm2.2188,1.3071a2.5541,2.5541,0,0,0,1.9785-.8511v-1.2236a3.036,3.036,0,0,0-1.9307-.5874c-1.0068,0-1.7392.5156-1.7392,1.3433C82.6631,274.2851,83.4072,274.8124,84.3545,274.8124Z"/><path class="a" d="M88.915,269.74H87.62v-.48H88.915v-1.4873l.5284-.168V269.26h1.8222v.48H89.4434v4.0893c0,.6719.2753.9478.9589.9478a1.9454,1.9454,0,0,0,.8633-.168v.5156a2.87,2.87,0,0,1-.959.1558c-.8994,0-1.3916-.4678-1.3916-1.271Z"/><path class="a" d="M95.1191,275.1606v-8.3955h2.5674a4.203,4.203,0,1,1,0,8.3955Zm6.417-4.1978a3.6531,3.6531,0,0,0-3.7783-3.6821H95.6709v7.3642h2.0869A3.6534,3.6534,0,0,0,101.5361,270.9628Z"/><path class="a" d="M103.7588,267.9164a.4439.4439,0,1,1,.4443-.4438A.4425.4425,0,0,1,103.7588,267.9164Zm.2637,7.2442h-.5274V269.26h.5274Z"/><path class="a" d="M107.335,274.7768c1.0908,0,1.8105-.5157,1.8105-1.2593,0-.5518-.3838-.9478-1.2715-1.0557l-.9717-.12c-1.1152-.1323-1.7148-.6719-1.7148-1.56,0-.9712.84-1.643,2.0986-1.643a3.7224,3.7224,0,0,1,2.2676.7675l-.3125.4322a3.19,3.19,0,0,0-1.9424-.6958c-.9238,0-1.583.396-1.583,1.1513,0,.5757.3711.9356,1.2471,1.0435l.959.12c1.1875.1436,1.751.7192,1.751,1.5708,0,.9956-.959,1.751-2.3379,1.751a3.1334,3.1334,0,0,1-2.3389-.9595l.4072-.3354A2.671,2.671,0,0,0,107.335,274.7768Z"/><path class="a" d="M110.7666,269.26h.5273v.7075a2.78,2.78,0,0,1,2.0274-.8276,3.0733,3.0733,0,0,1,0,6.1406,3.09,3.09,0,0,1-2.0274-.8154v3.1425h-.5273Zm.5273,1.3672v3.1665a2.56,2.56,0,0,0,2.0274.9834,2.5726,2.5726,0,0,0,0-5.1333A2.4268,2.4268,0,0,0,111.2939,270.6269Z"/><path class="a" d="M118.1475,275.1606h-.5284v-8.3955l.5284-.1319Z"/><path class="a" d="M119.4316,273.5053c0-1.2232,1.0791-1.811,2.3272-1.811a3.4743,3.4743,0,0,1,1.87.5156v-.9834c0-1.0791-.6113-1.6192-1.7148-1.6192a4.0175,4.0175,0,0,0-1.8711.564l-.2276-.4678a4.4942,4.4942,0,0,1,2.11-.5639c1.416,0,2.2314.6958,2.2314,1.9912v4.03h-.5283v-.66a2.8576,2.8576,0,0,1-2.0146.7793C120.3555,275.28,119.4316,274.5966,119.4316,273.5053Zm2.2188,1.3071a2.5541,2.5541,0,0,0,1.9785-.8511v-1.2236a3.036,3.036,0,0,0-1.9307-.5874c-1.0078,0-1.7392.5156-1.7392,1.3433C119.959,274.2851,120.7031,274.8124,121.65,274.8124Z"/><path class="a" d="M127.3613,275.1244,124.915,269.26h.6l2.1348,5.2173,2.2549-5.2173h.5879l-3.07,7.0044c-.4678,1.0552-.96,1.4389-1.6914,1.4389a2.2257,2.2257,0,0,1-.4912-.0478v-.5278a1.8005,1.8005,0,0,0,.4677.0478c.4434,0,.8506-.2275,1.1748-.9712Z"/><path class="a" d="M139.96,275.1606h-5.7334v-8.3955h.5517v7.88H139.96Z"/><path class="a" d="M141.4258,267.9164a.4439.4439,0,1,1,.4443-.4438A.4425.4425,0,0,1,141.4258,267.9164Zm.2646,7.2442h-.5283V269.26h.5283Z"/><path class="a" d="M143.9463,277.0912l.3-.4316a3.608,3.608,0,0,0,1.8828.5639c1.2236,0,1.8828-.6,1.8828-1.7631V274.453a2.7765,2.7765,0,0,1-2.0263.8272,3.0733,3.0733,0,0,1,0-6.1406,3.09,3.09,0,0,1,2.0263.8159V269.26h.5274v6.1767a2.1037,2.1037,0,0,1-2.3741,2.2906A4.3037,4.3037,0,0,1,143.9463,277.0912Zm2.0391-2.3144a2.4234,2.4234,0,0,0,2.0263-.9834v-3.1665a2.5572,2.5572,0,0,0-2.0263-.9834,2.5725,2.5725,0,0,0,0,5.1333Z"/><path class="a" d="M150.1738,266.7651l.5283-.1319v3.4541a2.3226,2.3226,0,0,1,1.9541-.9477,2.14,2.14,0,0,1,2.2549,2.2548v3.7662h-.5273v-3.6221a1.7366,1.7366,0,0,0-1.8467-1.9072,2.0088,2.0088,0,0,0-1.835,1.0918v4.4375h-.5283Z"/><path class="a" d="M156.9658,269.74h-1.2949v-.48h1.2949v-1.4873l.5283-.168V269.26h1.8223v.48h-1.8223v4.0893c0,.6719.2754.9478.959.9478a1.9454,1.9454,0,0,0,.8633-.168v.5156a2.87,2.87,0,0,1-.959.1558c-.8994,0-1.3916-.4678-1.3916-1.271Z"/><path class="a" d="M52.1348,290.0129h3.07c1.4511,0,2.3623.7675,2.3623,1.9909a2.6084,2.6084,0,0,1-2.3623,2.6267l1.1513,3.7779h-.5517l-1.14-3.742H51.6787l-.791,3.742h-.54Zm.4316.5158-.7676,3.6221H54.665a2.15,2.15,0,0,0,2.3516-2.1108c0-.9476-.6836-1.5113-1.8232-1.5113Z"/><path class="a" d="M60.2939,298.5282a2.6788,2.6788,0,0,1-2.6386-2.7463,3.3408,3.3408,0,0,1,3.1543-3.3943A2.4314,2.4314,0,0,1,63.16,295.05c0,.084-.0235.4558-.0362.5518H58.1826v.18a2.1437,2.1437,0,0,0,2.1358,2.2427,3.4043,3.4043,0,0,0,1.7627-.5279l.288.4319A3.913,3.913,0,0,1,60.2939,298.5282Zm-2.0273-3.43h4.3779a1.9466,1.9466,0,0,0-1.8828-2.207A2.7372,2.7372,0,0,0,58.2666,295.0983Z"/><path class="a" d="M68.501,297.9167a2.8879,2.8879,0,0,1-1.7627.6115,2.5868,2.5868,0,0,1-2.5908-2.7343,3.3308,3.3308,0,0,1,3.2265-3.4063,2.5737,2.5737,0,0,1,2.0869.9837l.72-3.3584.539-.1319-1.8105,8.5274h-.5156Zm-1.6787.1079a2.6,2.6,0,0,0,1.8105-.7556l.6963-3.25a2.1546,2.1546,0,0,0-1.9434-1.1274,2.7908,2.7908,0,0,0-2.7109,2.8664A2.1184,2.1184,0,0,0,66.8223,298.0246Z"/><path class="a" d="M75.1387,290.0129h.54l-.84,3.9218h5.2529l.84-3.9218h.54l-1.7871,8.3955h-.54l.8516-3.982H74.7432l-.8516,3.982h-.54Z"/><path class="a" d="M81.4043,296.8493c0-1.1634,1.0068-1.907,2.3623-1.907a3.2206,3.2206,0,0,1,2.0029.6716l.2041-.9714c.2393-1.1274-.2041-1.7871-1.3916-1.7871a4.579,4.579,0,0,0-1.9306.5036l-.18-.4555a4.9891,4.9891,0,0,1,2.0625-.5159c1.3916,0,2.2783.7317,1.9668,2.2068l-.8155,3.814H85.17l.1074-.5157a3.0363,3.0363,0,0,1-1.87.6355C82.207,298.5282,81.4043,297.8686,81.4043,296.8493Zm2.0986,1.2112a2.8007,2.8007,0,0,0,1.9073-.7557l.2509-1.1992a2.7053,2.7053,0,0,0-1.9424-.7075c-1.0439,0-1.7988.54-1.7988,1.4273C81.92,297.5448,82.459,298.0605,83.5029,298.0605Z"/><path class="a" d="M88.8066,292.9875H87.5234l.1084-.48h1.2715l.3233-1.4871.5517-.1679-.3476,1.655h1.7509l-.1084.48H89.3223l-.8633,4.0417c-.1563.7195.1084,1.0073.9238,1.0073a2.287,2.287,0,0,0,.6709-.1318l-.1074.5156a2.74,2.74,0,0,1-.7559.1079c-.9951,0-1.4629-.5036-1.2715-1.3911Z"/><path class="a" d="M95.5508,290.0129H97.77a3.5046,3.5046,0,0,1,3.7784,3.694,4.7486,4.7486,0,0,1-4.93,4.7015H93.7637Zm.4316.5158-1.5713,7.364h2.3028a4.2314,4.2314,0,0,0,4.2822-4.21,2.9906,2.9906,0,0,0-3.2022-3.1543Z"/><path class="a" d="M102.6436,298.4084h-.5157l1.2588-5.9009h.5156Zm1.8222-7.7237a.4936.4936,0,0,1-.4912.4917.4044.4044,0,0,1-.4082-.4079.4945.4945,0,0,1,.4922-.4917A.4042.4042,0,0,1,104.4658,290.6847Z"/><path class="a" d="M104.3945,297.0771a2.423,2.423,0,0,0,1.9551.9475c1.0078,0,1.7393-.5637,1.7393-1.2954,0-.5037-.2881-.7554-1.0918-.9473l-.9229-.2161c-1.0078-.24-1.4512-.6836-1.4512-1.4511a1.8443,1.8443,0,0,1,2.0743-1.7271,3.38,3.38,0,0,1,2.291.9714l-.3594.3838a2.7994,2.7994,0,0,0-1.9316-.8515c-.9229,0-1.5469.5039-1.5469,1.2234,0,.5036.2637.7556,1.0439.9475l.9229.2158c1.0312.228,1.499.6716,1.499,1.4512a2.0375,2.0375,0,0,1-2.2666,1.8232,2.9778,2.9778,0,0,1-2.375-1.1636Z"/><path class="a" d="M110.5381,292.5075h.5156l-.0957.4919a2.8278,2.8278,0,0,1,1.751-.6118,2.5869,2.5869,0,0,1,2.5908,2.7346,3.3308,3.3308,0,0,1-3.2266,3.406,2.5746,2.5746,0,0,1-2.0869-.9834l-.708,3.31h-.5156Zm.2637,1.1394-.6836,3.25a2.14,2.14,0,0,0,1.9433,1.1275,2.79,2.79,0,0,0,2.71-2.8665,2.1181,2.1181,0,0,0-2.1465-2.2668A2.6318,2.6318,0,0,0,110.8018,293.6469Z"/><path class="a" d="M116.5146,298.4084h-.5156l1.7862-8.3955.54-.1319Z"/><path class="a" d="M118.1836,296.8493c0-1.1634,1.0068-1.907,2.3623-1.907a3.2206,3.2206,0,0,1,2.0029.6716l.2041-.9714c.2393-1.1274-.2041-1.7871-1.3916-1.7871a4.579,4.579,0,0,0-1.9306.5036l-.18-.4555a4.9891,4.9891,0,0,1,2.0625-.5159c1.3916,0,2.2783.7317,1.9668,2.2068l-.8155,3.814h-.5156l.1074-.5157a3.0363,3.0363,0,0,1-1.87.6355C118.9863,298.5282,118.1836,297.8686,118.1836,296.8493Zm2.0986,1.2112a2.8007,2.8007,0,0,0,1.9073-.7557l.2509-1.1992a2.7053,2.7053,0,0,0-1.9424-.7075c-1.0439,0-1.7988.54-1.7988,1.4273C118.6992,297.5448,119.2383,298.0605,120.2822,298.0605Z"/><path class="a" d="M125.4062,298.3844l-1.1875-5.8769h.54l1.0547,5.2532,3.2861-5.2532h.6l-4.4609,7.0762c-.6358,1.0075-1.2119,1.3913-1.9434,1.3913a2.3038,2.3038,0,0,1-.5273-.072l.1074-.5278a1.5682,1.5682,0,0,0,.4922.072c.4072,0,.8633-.2039,1.3193-.9234Z"/><path class="a" d="M133.9375,290.0129h.54l-1.68,7.88h5.0859l-.1084.5157H132.15l.1084-.5157Z"/><path class="a" d="M139.4824,298.4084h-.5166l1.26-5.9009h.5156Zm1.8223-7.7237a.4937.4937,0,0,1-.4912.4917.4044.4044,0,0,1-.4082-.4079.4945.4945,0,0,1,.4922-.4917A.4042.4042,0,0,1,141.3047,290.6847Z"/><path class="a" d="M141.3545,300.0876l.3359-.3838a3.332,3.332,0,0,0,2.0391.7675,1.7872,1.7872,0,0,0,1.8584-1.5952l.24-.9834a2.9411,2.9411,0,0,1-1.7988.6355,2.5868,2.5868,0,0,1-2.5908-2.7343,3.3308,3.3308,0,0,1,3.2265-3.4063,2.589,2.589,0,0,1,2.0987.9956l.18-.8757h.5156l-1.3672,6.4165a2.2834,2.2834,0,0,1-2.3262,2.051A4.0048,4.0048,0,0,1,141.3545,300.0876Zm2.7588-2.063a2.599,2.599,0,0,0,1.8467-.7915l.6718-3.2024a2.1333,2.1333,0,0,0-1.955-1.1394,2.7908,2.7908,0,0,0-2.711,2.8664A2.1184,2.1184,0,0,0,144.1133,298.0246Z"/><path class="a" d="M149.6572,290.0129l.54-.1319-.708,3.3342a2.5512,2.5512,0,0,1,1.8837-.8276,1.87,1.87,0,0,1,1.8946,2.4587l-.7559,3.5621h-.5156l.7441-3.49c.2637-1.2473-.3242-2.0391-1.4638-2.0391a2.4213,2.4213,0,0,0-1.919.9837l-.9707,4.5454H147.87Z"/><path class="a" d="M155.6816,292.9875h-1.2832l.1084-.48h1.2715l.3233-1.4871.5517-.1679-.3476,1.655h1.7509l-.1084.48h-1.7509l-.8633,4.0417c-.1563.7195.1084,1.0073.9238,1.0073a2.287,2.287,0,0,0,.6709-.1318l-.1074.5156a2.74,2.74,0,0,1-.7559.1079c-.9951,0-1.4629-.5036-1.2715-1.3911Z"/><path class="a" d="M162.4248,290.0129h.54l-1.7871,8.3955h-.54Z"/><path class="a" d="M164.7891,292.9875h-1.2832l.1084-.48h1.2714l.3233-1.4871.5517-.1679-.3476,1.655h1.751l-.1084.48h-1.751l-.8633,4.0417c-.1562.7195.1084,1.0073.9238,1.0073a2.287,2.287,0,0,0,.6709-.1318l-.1074.5156a2.739,2.739,0,0,1-.7558.1079c-.9952,0-1.4629-.5036-1.2715-1.3911Z"/><path class="a" d="M166.9863,296.8493c0-1.1634,1.0069-1.907,2.3623-1.907a3.2211,3.2211,0,0,1,2.003.6716l.2041-.9714c.2392-1.1274-.2041-1.7871-1.3916-1.7871a4.5794,4.5794,0,0,0-1.9307.5036l-.18-.4555a4.9891,4.9891,0,0,1,2.0625-.5159c1.3916,0,2.2783.7317,1.9668,2.2068l-.8154,3.814h-.5156l.1074-.5157a3.0367,3.0367,0,0,1-1.87.6355C167.7891,298.5282,166.9863,297.8686,166.9863,296.8493Zm2.0987,1.2112a2.8006,2.8006,0,0,0,1.9072-.7557l.251-1.1992a2.7055,2.7055,0,0,0-1.9424-.7075c-1.044,0-1.7988.54-1.7988,1.4273C167.502,297.5448,168.041,298.0605,169.085,298.0605Z"/><path class="a" d="M173.3223,298.4084h-.5166l1.7871-8.3955.54-.1319Z"/><path class="a" d="M175.458,298.4084h-.5156l1.2588-5.9009h.5156Zm1.8223-7.7237a.4937.4937,0,0,1-.4912.4917.4043.4043,0,0,1-.4082-.4079.4945.4945,0,0,1,.4921-.4917A.4042.4042,0,0,1,177.28,290.6847Z"/><path class="a" d="M177.4131,295.7819a3.376,3.376,0,0,1,3.2265-3.3943,2.8031,2.8031,0,0,1,2.1944,1.1394l-.3955.3479a2.2708,2.2708,0,0,0-1.8467-.9836,2.8616,2.8616,0,0,0-2.6514,2.8906,2.1152,2.1152,0,0,0,2.1,2.2427,3.1352,3.1352,0,0,0,1.7871-.6717l.3116.4319a3.6684,3.6684,0,0,1-2.1465.7434A2.6308,2.6308,0,0,1,177.4131,295.7819Z"/><path class="a" d="M50.9238,313.1645h3.5977a2.44,2.44,0,0,1,2.7344,2.4109,2.3,2.3,0,0,1-1.7872,2.2546l1.8829,3.73H56.333l-1.8-3.61H51.8467v3.61h-.9229Zm.9229.8276V317.17h2.6152c1.127,0,1.8711-.6235,1.8711-1.5949,0-.9595-.7441-1.5833-1.8711-1.5833Z"/><path class="a" d="M60.9541,321.6679a3.0622,3.0622,0,0,1-3.0947-3.1182,3.0075,3.0075,0,0,1,2.9629-3.0945,2.9488,2.9488,0,0,1,2.8418,3.0945v.2759H58.7354a2.2574,2.2574,0,0,0,2.2548,2.0627,2.6155,2.6155,0,0,0,1.6543-.5517l.5518.5876A3.553,3.553,0,0,1,60.9541,321.6679Zm-2.1953-3.55h4.0185a2.0135,2.0135,0,0,0-4.0185,0Z"/><path class="a" d="M69.6055,320.9242a2.7925,2.7925,0,0,1-1.9434.7317,3.1,3.1,0,1,1,1.9307-5.5168v-2.9746l.8877-.2039V321.56h-.875Zm-1.8594-.0478a2.3269,2.3269,0,0,0,1.8467-.84v-2.9744a2.3731,2.3731,0,0,0-1.8467-.8276,2.2216,2.2216,0,0,0-2.23,2.3027A2.2526,2.2526,0,0,0,67.7461,320.8764Z"/><path class="a" d="M74.7432,313.1645h.9228v3.7541h4.8819v-3.7541h.9228V321.56h-.9228v-3.814H75.666v3.814h-.9228Z"/><path class="a" d="M82.7109,319.8568c0-1.1274.9239-1.8349,2.3985-1.8349a3.8971,3.8971,0,0,1,1.7636.4077v-.7915c0-.9595-.5517-1.4512-1.5957-1.4512a3.9866,3.9866,0,0,0-1.8828.5279l-.3359-.6839a5.1073,5.1073,0,0,1,2.3027-.6c1.5235,0,2.375.7437,2.375,2.0869V321.56H86.873v-.5877a2.8629,2.8629,0,0,1-1.9433.6956C83.61,321.6679,82.7109,320.9364,82.7109,319.8568Zm2.375,1.1155a2.3954,2.3954,0,0,0,1.7871-.6955v-1.1275a2.937,2.937,0,0,0-1.7392-.48c-.96,0-1.5713.4558-1.5713,1.1633C83.5625,320.5046,84.1865,320.9723,85.0859,320.9723Z"/><path class="a" d="M89.7305,316.3068h-1.295v-.7556h1.295v-1.523l.8759-.228v1.751H92.417v.7556H90.6064v3.6821c0,.6475.2637.8994.9229.8994a2.14,2.14,0,0,0,.876-.156v.78a3.4091,3.4091,0,0,1-1.0557.1558c-1.043,0-1.6191-.5037-1.6191-1.4512Z"/><path class="a" d="M96.1152,313.1645h2.77a4.203,4.203,0,1,1,0,8.3955h-2.77Zm.9229.84V320.72h1.8955a3.3589,3.3589,0,1,0,0-6.7163Z"/><path class="a" d="M104.4307,313.8a.6017.6017,0,0,1,.6-.6.5937.5937,0,0,1,.6.6.6013.6013,0,0,1-.6.6A.61.61,0,0,1,104.4307,313.8Zm1.0439,7.76h-.8877v-6.0088h.8877Z"/><path class="a" d="M106.915,320.1567a2.8762,2.8762,0,0,0,1.9551.8037c.959,0,1.6309-.4439,1.6309-1.08,0-.5157-.3477-.8035-1.1153-.9114l-1.0429-.1438c-1.2-.18-1.7754-.7078-1.7754-1.6191,0-1.0076.9355-1.7513,2.2549-1.7513a3.84,3.84,0,0,1,2.3623.7918l-.4678.6a3.3694,3.3694,0,0,0-1.9424-.6716c-.8281,0-1.3916.4077-1.3916.9953,0,.5159.3242.7676,1.1152.8877l1.044.1438c1.1992.168,1.7988.7075,1.7988,1.6311,0,1.0435-1.0556,1.835-2.4346,1.835a3.6549,3.6549,0,0,1-2.5312-.9356Z"/><path class="a" d="M112.3389,315.5512h.875v.6477a2.7491,2.7491,0,0,1,1.9433-.7437,3.1005,3.1005,0,1,1-1.9306,5.5052v3.0583h-.8877Zm.8877,1.5232v2.9743a2.3719,2.3719,0,0,0,1.8466.8277,2.3226,2.3226,0,0,0,0-4.6416A2.3273,2.3273,0,0,0,113.2266,317.0744Z"/><path class="a" d="M120.3066,321.56h-.8877v-8.3955l.8877-.2039Z"/><path class="a" d="M121.4951,319.8568c0-1.1274.9238-1.8349,2.3985-1.8349a3.8971,3.8971,0,0,1,1.7636.4077v-.7915c0-.9595-.5517-1.4512-1.5957-1.4512a3.9863,3.9863,0,0,0-1.8828.5279l-.3359-.6839a5.107,5.107,0,0,1,2.3027-.6c1.5234,0,2.375.7437,2.375,2.0869V321.56h-.8633v-.5877a2.8629,2.8629,0,0,1-1.9433.6956C122.3945,321.6679,121.4951,320.9364,121.4951,319.8568Zm2.375,1.1155a2.3956,2.3956,0,0,0,1.7871-.6955v-1.1275a2.9372,2.9372,0,0,0-1.7392-.48c-.96,0-1.5713.4558-1.5713,1.1633C122.3467,320.5046,122.9707,320.9723,123.87,320.9723Z"/><path class="a" d="M129.6416,321.548l-2.4473-5.9968h.9834l1.9434,4.9294,2.0986-4.9294h.96l-2.9863,6.9082c-.5157,1.1636-1.08,1.6311-2.0391,1.6311a2.3124,2.3124,0,0,1-.5635-.06v-.8037a2.0372,2.0372,0,0,0,.5039.0481c.5391,0,.9112-.3,1.1992-.9356Z"/><path class="a" d="M136.7588,313.1645h3.5976a2.44,2.44,0,0,1,2.7344,2.4109,2.3,2.3,0,0,1-1.7871,2.2546l1.8828,3.73H142.167l-1.7988-3.61h-2.6866v3.61h-.9228Zm.9228.8276V317.17h2.6153c1.1269,0,1.87-.6235,1.87-1.5949,0-.9595-.7432-1.5833-1.87-1.5833Z"/><path class="a" d="M146.7891,321.6679a3.0623,3.0623,0,0,1-3.0948-3.1182,3.0076,3.0076,0,0,1,2.9629-3.0945,2.9487,2.9487,0,0,1,2.8418,3.0945v.2759H144.57a2.2575,2.2575,0,0,0,2.2549,2.0627,2.6157,2.6157,0,0,0,1.6543-.5517l.5517.5876A3.5527,3.5527,0,0,1,146.7891,321.6679Zm-2.1954-3.55h4.0186a2.0135,2.0135,0,0,0-4.0186,0Z"/><path class="a" d="M150.4746,318.5255a3.016,3.016,0,0,1,3.0225-3.0822,2.9725,2.9725,0,0,1,1.8955.7077v-.6h.875v6.1528c0,1.5352-.9239,2.3865-2.5908,2.3865a4.7133,4.7133,0,0,1-2.3506-.6235l.3838-.6956a3.9677,3.9677,0,0,0,1.9316.5515c1.1387,0,1.7383-.5515,1.7383-1.6069v-.8037a2.9166,2.9166,0,0,1-1.9063.6955A3.0111,3.0111,0,0,1,150.4746,318.5255Zm3.07,2.3028a2.2615,2.2615,0,0,0,1.835-.8274v-2.95a2.3049,2.3049,0,0,0-1.835-.8157,2.2991,2.2991,0,0,0,0,4.5935Z"/><path class="a" d="M158.6338,319.1733a1.5814,1.5814,0,0,0,1.6787,1.727,1.8551,1.8551,0,0,0,1.6553-.9355v-4.4136h.8877V321.56h-.8877v-.6956a2.3818,2.3818,0,0,1-1.8828.8154,2.216,2.216,0,0,1-2.3272-2.3266v-3.802h.876Z"/><path class="a" d="M165.2578,321.56H164.37v-8.3955l.8877-.2039Z"/><path class="a" d="M166.4463,319.8568c0-1.1274.9238-1.8349,2.3984-1.8349a3.8972,3.8972,0,0,1,1.7637.4077v-.7915c0-.9595-.5518-1.4512-1.5957-1.4512a3.9863,3.9863,0,0,0-1.8828.5279l-.336-.6839a5.1074,5.1074,0,0,1,2.3028-.6c1.5234,0,2.375.7437,2.375,2.0869V321.56h-.8633v-.5877a2.8629,2.8629,0,0,1-1.9434.6956C167.3457,321.6679,166.4463,320.9364,166.4463,319.8568Zm2.375,1.1155a2.3957,2.3957,0,0,0,1.7871-.6955v-1.1275a2.9373,2.9373,0,0,0-1.7393-.48c-.96,0-1.5712.4558-1.5712,1.1633C167.2979,320.5046,167.9219,320.9723,168.8213,320.9723Z"/><path class="a" d="M172.9629,315.5512h.8877v.8515a1.874,1.874,0,0,1,1.6787-.9834,1.638,1.638,0,0,1,.5635.084v.8155a1.9544,1.9544,0,0,0-.6231-.1079,1.7,1.7,0,0,0-1.6191,1.2353V321.56h-.8877Z"/><path class="a" d="M52.0508,336.4364H55.373a2.0929,2.0929,0,0,1,2.375,2.0989,2.6568,2.6568,0,0,1-2.3027,2.6267l1.1875,3.67h-.9482l-1.1514-3.61H51.9307l-.7676,3.61h-.8994Zm.72.8277-.6719,3.1782h2.6748a1.894,1.894,0,0,0,2.0752-1.835c0-.8276-.624-1.3432-1.6191-1.3432Z"/><path class="a" d="M60.75,344.94a2.7562,2.7562,0,0,1-2.9023-2.8184,3.3,3.3,0,0,1,3.1543-3.3943,2.6365,2.6365,0,0,1,2.5546,2.8306,4.6677,4.6677,0,0,1-.0244.54H58.7109a2.0385,2.0385,0,0,0,2.0752,2.0747,2.8728,2.8728,0,0,0,1.6192-.4917l.4551.6116A3.5372,3.5372,0,0,1,60.75,344.94Zm-1.9551-3.55h3.9336a1.8645,1.8645,0,0,0-1.81-1.883A2.2937,2.2937,0,0,0,58.7949,341.39Z"/><path class="a" d="M68.7891,344.4123a2.9089,2.9089,0,0,1-1.6553.5156,2.6331,2.6331,0,0,1-2.65-2.7586,3.3742,3.3742,0,0,1,3.31-3.43,2.6693,2.6693,0,0,1,2.0273.8637l.6719-3.1665.8994-.2038-1.8232,8.5993h-.8633Zm-1.4639-.252a2.4243,2.4243,0,0,0,1.6553-.66l.6474-3.0222a2.069,2.069,0,0,0-1.81-.9594,2.5248,2.5248,0,0,0-2.4824,2.5786A1.953,1.953,0,0,0,67.3252,344.16Z"/><path class="a" d="M75.6064,336.4364h.9l-.8038,3.7542h4.7862l.8027-3.7542h.9121l-1.7871,8.3955h-.9111l.8154-3.8139H75.5342l-.8155,3.8139h-.8994Z"/><path class="a" d="M82.04,343.2367c0-1.1753.959-1.9548,2.4463-1.9548a3.7588,3.7588,0,0,1,1.919.5156l.1562-.7075c.2276-1.0913-.2519-1.6311-1.4277-1.6311a4.4788,4.4788,0,0,0-1.7988.4678l-.24-.7075a5.6231,5.6231,0,0,1,2.1826-.504c1.6319,0,2.4356.8755,2.1358,2.3147l-.8037,3.802h-.8516l.1074-.4917a2.9851,2.9851,0,0,1-1.7744.5757C82.8555,344.9159,82.04,344.2563,82.04,343.2367Zm2.2784.9956a2.6082,2.6082,0,0,0,1.7031-.6118l.2392-1.1272a2.7,2.7,0,0,0-1.7861-.5637c-.9355,0-1.6074.5156-1.6074,1.2231C82.8672,343.8246,83.4072,344.2323,84.3184,344.2323Z"/><path class="a" d="M89.623,339.5788H88.3516l.1679-.7556h1.2588l.3242-1.523.9229-.228-.3711,1.751h1.751l-.168.7556h-1.751l-.7793,3.634c-.1445.6956.0957.9595.8867.9595a2.3529,2.3529,0,0,0,.6963-.12l-.1562.78a3.497,3.497,0,0,1-.876.108c-1.1269,0-1.6543-.5518-1.4385-1.5352Z"/><path class="a" d="M96.5947,336.4364H98.97a3.5514,3.5514,0,0,1,3.8018,3.7061,4.7971,4.7971,0,0,1-4.8936,4.6894h-3.07Zm.72.84-1.4268,6.7163h2.11a3.8259,3.8259,0,0,0,3.85-3.8259,2.7538,2.7538,0,0,0-2.9258-2.89Z"/><path class="a" d="M104.0947,344.8319h-.8633l1.2715-6.0087h.8633Zm.6114-7.7a.6824.6824,0,0,1,.66-.66.517.517,0,0,1,.5274.5276.684.684,0,0,1-.6592.6716A.5279.5279,0,0,1,104.7061,337.1322Z"/><path class="a" d="M105.9072,343.2968a2.6186,2.6186,0,0,0,1.9912.9355c.8868,0,1.5469-.4677,1.5469-1.1035,0-.4436-.2881-.6955-.9717-.8515l-.9834-.2278c-1.02-.2278-1.4873-.7075-1.4873-1.5113,0-1.0913.876-1.811,2.1953-1.811a3.5237,3.5237,0,0,1,2.41.9475l-.5273.5757a2.9634,2.9634,0,0,0-1.9317-.8154c-.8154,0-1.3545.42-1.3545,1.0312,0,.4439.2637.6839.959.84l.9834.228c1.0557.24,1.5352.72,1.5352,1.511a2.1433,2.1433,0,0,1-2.3985,1.907,3.3818,3.3818,0,0,1-2.5429-1.1152Z"/><path class="a" d="M112.1348,338.8232h.8632l-.0957.4318a2.96,2.96,0,0,1,1.6543-.5158,2.634,2.634,0,0,1,2.6514,2.7585,3.3758,3.3758,0,0,1-3.2988,3.4422,2.6337,2.6337,0,0,1-2.0264-.8755l-.6836,3.2263h-.8642Zm.5869,1.3313-.6475,3.0224a2.04,2.04,0,0,0,1.8115.9715,2.5152,2.5152,0,0,0,2.4707-2.5787,1.9412,1.9412,0,0,0-1.9794-2.0507A2.4393,2.4393,0,0,0,112.7217,340.1545Z"/><path class="a" d="M118.6621,344.8319h-.8633l1.7871-8.3955.9-.2038Z"/><path class="a" d="M120.2471,343.2367c0-1.1753.959-1.9548,2.4463-1.9548a3.7582,3.7582,0,0,1,1.9189.5156l.1563-.7075c.2275-1.0913-.252-1.6311-1.4278-1.6311a4.4792,4.4792,0,0,0-1.7988.4678l-.24-.7075a5.6223,5.6223,0,0,1,2.1826-.504c1.6318,0,2.4355.8755,2.1357,2.3147l-.8037,3.802h-.8516l.1075-.4917a2.9855,2.9855,0,0,1-1.7744.5757C121.0625,344.9159,120.2471,344.2563,120.2471,343.2367Zm2.2783.9956a2.6082,2.6082,0,0,0,1.7031-.6118l.2393-1.1272a2.7,2.7,0,0,0-1.7862-.5637c-.9355,0-1.6074.5156-1.6074,1.2231C121.0742,343.8246,121.6143,344.2323,122.5254,344.2323Z"/><path class="a" d="M127.71,344.82l-1.1514-5.9968h.9238l.8994,4.9773,3.0948-4.9773h.9707l-4.4014,6.9921c-.6719,1.0674-1.3193,1.5113-2.207,1.5113a2.3644,2.3644,0,0,1-.6592-.096l.168-.7915a1.62,1.62,0,0,0,.5156.072,1.5392,1.5392,0,0,0,1.3193-.8757Z"/><path class="a" d="M136.5059,336.4364h3.3222a2.0929,2.0929,0,0,1,2.375,2.0989A2.6568,2.6568,0,0,1,139.9,341.162l1.1875,3.67H140.14l-1.1513-3.61h-2.6026l-.7675,3.61h-.8995Zm.72.8277-.6719,3.1782h2.6748a1.894,1.894,0,0,0,2.0752-1.835c0-.8276-.624-1.3432-1.6191-1.3432Z"/><path class="a" d="M145.2051,344.94a2.7563,2.7563,0,0,1-2.9024-2.8184,3.3,3.3,0,0,1,3.1543-3.3943,2.6365,2.6365,0,0,1,2.5547,2.8306,4.6677,4.6677,0,0,1-.0244.54H143.166a2.0384,2.0384,0,0,0,2.0752,2.0747,2.8728,2.8728,0,0,0,1.6192-.4917l.455.6116A3.5369,3.5369,0,0,1,145.2051,344.94Zm-1.9551-3.55h3.9336a1.8645,1.8645,0,0,0-1.8106-1.883A2.2936,2.2936,0,0,0,143.25,341.39Z"/><path class="a" d="M148.95,342.1693a3.365,3.365,0,0,1,3.2978-3.43,2.635,2.635,0,0,1,2.0157.8515l.167-.7675h.8642l-1.331,6.4045a2.4253,2.4253,0,0,1-2.543,2.1228,4.35,4.35,0,0,1-2.5547-.8755l.4561-.66a3.476,3.476,0,0,0,2.0625.7557,1.6184,1.6184,0,0,0,1.7148-1.4273l.1563-.7434a2.9457,2.9457,0,0,1-1.667.5156A2.6136,2.6136,0,0,1,148.95,342.1693Zm2.83,1.9791a2.453,2.453,0,0,0,1.667-.66l.6357-3.01a2.043,2.043,0,0,0-1.81-.9594,2.5151,2.5151,0,0,0-2.4707,2.5786A1.934,1.934,0,0,0,151.78,344.1484Z"/><path class="a" d="M156.8936,342.3373c-.24,1.1035.3,1.835,1.331,1.835a2.1812,2.1812,0,0,0,1.7275-.8635l.959-4.4856h.8633l-1.2832,6.0087h-.8633l.1319-.6a2.6707,2.6707,0,0,1-1.8106.7076,1.9133,1.9133,0,0,1-1.9433-2.5066l.7675-3.61h.8633Z"/><path class="a" d="M162.8818,344.8319h-.8632l1.7871-8.3955.8994-.2038Z"/><path class="a" d="M164.4658,343.2367c0-1.1753.96-1.9548,2.4473-1.9548a3.7609,3.7609,0,0,1,1.9189.5156l.1563-.7075c.2275-1.0913-.252-1.6311-1.4278-1.6311a4.4792,4.4792,0,0,0-1.7988.4678l-.24-.7075a5.6223,5.6223,0,0,1,2.1826-.504c1.6318,0,2.4355.8755,2.1348,2.3147l-.8028,3.802h-.8515l.1074-.4917a2.9855,2.9855,0,0,1-1.7744.5757C165.2822,344.9159,164.4658,344.2563,164.4658,343.2367Zm2.2793.9956a2.6082,2.6082,0,0,0,1.7031-.6118l.24-1.1272a2.7046,2.7046,0,0,0-1.7871-.5637c-.9356,0-1.6075.5156-1.6075,1.2231C165.2939,343.8246,165.834,344.2323,166.7451,344.2323Z"/><path class="a" d="M171.7256,338.8232h.8515l-.1552.7556a2.1863,2.1863,0,0,1,1.7265-.8875,1.894,1.894,0,0,1,.6358.1079l-.168.8157a1.6921,1.6921,0,0,0-.6836-.1321,2.05,2.05,0,0,0-1.7392,1.1514l-.8877,4.1977h-.8633Z"/><path class="a" d="M179.0332,336.4364h.8994l-1.7871,8.3955h-.8994Z"/><path class="a" d="M181.6494,339.5788h-1.2715l.168-.7556h1.2588l.3242-1.523.9229-.228-.3711,1.751h1.7509l-.1679.7556h-1.751l-.7793,3.634c-.1445.6956.0957.9595.8867.9595a2.3539,2.3539,0,0,0,.6963-.12l-.1562.78a3.497,3.497,0,0,1-.876.108c-1.127,0-1.6543-.5518-1.4385-1.5352Z"/><path class="a" d="M184.1826,343.2367c0-1.1753.959-1.9548,2.4463-1.9548a3.7588,3.7588,0,0,1,1.919.5156l.1562-.7075c.2275-1.0913-.252-1.6311-1.4277-1.6311a4.4792,4.4792,0,0,0-1.7989.4678l-.24-.7075a5.6227,5.6227,0,0,1,2.1826-.504c1.6319,0,2.4356.8755,2.1358,2.3147l-.8037,3.802H187.9l.1074-.4917a2.9853,2.9853,0,0,1-1.7744.5757C184.998,344.9159,184.1826,344.2563,184.1826,343.2367Zm2.2783.9956a2.6085,2.6085,0,0,0,1.7032-.6118l.2392-1.1272a2.7,2.7,0,0,0-1.7861-.5637c-.9356,0-1.6074.5156-1.6074,1.2231C185.01,343.8246,185.55,344.2323,186.4609,344.2323Z"/><path class="a" d="M191.0459,344.8319h-.8633l1.7871-8.3955.8994-.2038Z"/><path class="a" d="M193.4219,344.8319h-.8633l1.2715-6.0087h.8633Zm.6113-7.7a.6825.6825,0,0,1,.66-.66.5169.5169,0,0,1,.5273.5276.6839.6839,0,0,1-.6592.6716A.5279.5279,0,0,1,194.0332,337.1322Z"/><path class="a" d="M199.7441,343.5126l.419.6238a3.5922,3.5922,0,0,1-2.23.8035,2.6283,2.6283,0,0,1-2.6865-2.7344,3.4455,3.4455,0,0,1,3.334-3.4783,2.9145,2.9145,0,0,1,2.291,1.1394l-.6357.5877a2.0737,2.0737,0,0,0-1.7149-.9234,2.5768,2.5768,0,0,0-2.4111,2.6384,1.9363,1.9363,0,0,0,1.9316,1.991A2.8581,2.8581,0,0,0,199.7441,343.5126Z"/><path class="a" d="M231.7261,265.8769H235.54a2.5177,2.5177,0,0,1,2.7949,2.4826,2.3715,2.3715,0,0,1-1.7276,2.3028l1.8711,3.61h-1.3906l-1.7393-3.4422h-2.3632v3.4422h-1.2588Zm1.2588,1.1035v2.8064h2.4472a1.4191,1.4191,0,1,0,0-2.8064Z"/><path class="a" d="M242.0562,274.38a3.1414,3.1414,0,0,1-3.2022-3.1663,3.068,3.068,0,0,1,3.0586-3.1423,3.0232,3.0232,0,0,1,2.95,3.19v.3477h-4.8213a2.0593,2.0593,0,0,0,2.0625,1.751,2.3772,2.3772,0,0,0,1.5479-.54l.7675.7556A3.643,3.643,0,0,1,242.0562,274.38Zm-2.003-3.67h3.6221a1.821,1.821,0,0,0-3.6221,0Z"/><path class="a" d="M250.7075,273.6967a2.8835,2.8835,0,0,1-1.8711.6716,3.1483,3.1483,0,1,1,1.8594-5.6968v-2.7946l1.1992-.2637v8.6592h-1.1875Zm-1.7031-.3718a2.2014,2.2014,0,0,0,1.6914-.7317v-2.77a2.2316,2.2316,0,0,0-1.6914-.72,2.1112,2.1112,0,0,0,0,4.2217Z"/><path class="a" d="M255.9663,265.8769h1.2588v3.5981h4.4619v-3.5981h1.26v8.3955h-1.26v-3.658h-4.4619v3.658h-1.2588Z"/><path class="a" d="M264.0894,272.5214c0-1.1514.9355-1.8591,2.4707-1.8591a4.3107,4.3107,0,0,1,1.667.3359v-.6477c0-.8635-.5157-1.2952-1.4874-1.2952a4.3383,4.3383,0,0,0-1.8945.5157l-.4433-.9a5.7113,5.7113,0,0,1,2.5058-.6237c1.583,0,2.4951.7795,2.4951,2.1828v4.0418h-1.1757v-.5279a2.894,2.894,0,0,1-1.8946.6358C265.0015,274.38,264.0894,273.6247,264.0894,272.5214Zm2.5185.9714a2.3466,2.3466,0,0,0,1.6192-.5756v-1.0555a3.1694,3.1694,0,0,0-1.5713-.3718c-.875,0-1.4151.3958-1.4151,1.0076C265.2407,273.0851,265.7925,273.4928,266.6079,273.4928Z"/><path class="a" d="M271.3374,269.1752h-1.2949v-1.0076h1.2949v-1.559l1.1875-.2879v1.8469h1.7988v1.0076h-1.7988v3.31c0,.6237.252.8515.8994.8515a2.3588,2.3588,0,0,0,.876-.1438V274.2a3.98,3.98,0,0,1-1.14.18c-1.1875,0-1.8232-.5637-1.8232-1.6192Z"/><path class="a" d="M277.8657,265.8769h2.9619a4.2036,4.2036,0,1,1,0,8.3955h-2.9619Zm1.26,1.1274v6.1406h1.7266a3.0705,3.0705,0,1,0,0-6.1406Z"/><path class="a" d="M286.3267,266.4406a.7366.7366,0,0,1,.7314-.7434.7435.7435,0,0,1,0,1.487A.7366.7366,0,0,1,286.3267,266.4406Zm1.331,7.8318h-1.1992v-6.1048h1.1992Z"/><path class="a" d="M289.145,272.6894a3.201,3.201,0,0,0,1.9912.7675c.8633,0,1.4629-.3718,1.4629-.9116,0-.4316-.3115-.6836-.9834-.7795l-1.1035-.156c-1.2109-.18-1.8223-.7437-1.8223-1.6909,0-1.1036.959-1.8472,2.3868-1.8472a4.1833,4.1833,0,0,1,2.458.78l-.6114.7915a3.3928,3.3928,0,0,0-1.9306-.6358c-.7324,0-1.2237.336-1.2237.8277,0,.4436.2881.66,1.0079.7676l1.1025.1557c1.2119.18,1.8477.7556,1.8477,1.7031,0,1.0913-1.1036,1.919-2.5547,1.919a4.0269,4.0269,0,0,1-2.6748-.8994Z"/><path class="a" d="M294.6538,268.1676H295.84v.5877a2.7867,2.7867,0,0,1,1.8711-.6836,3.1483,3.1483,0,1,1-1.8584,5.697v2.9863h-1.1992Zm1.1992,1.6792v2.7586a2.2643,2.2643,0,0,0,1.7032.72,2.1053,2.1053,0,0,0,0-4.21A2.1887,2.1887,0,0,0,295.853,269.8468Z"/><path class="a" d="M303.1372,274.2724H301.938v-8.3955l1.1992-.2637Z"/><path class="a" d="M304.2417,272.5214c0-1.1514.9355-1.8591,2.4707-1.8591a4.31,4.31,0,0,1,1.667.3359v-.6477c0-.8635-.5156-1.2952-1.4873-1.2952a4.3376,4.3376,0,0,0-1.8945.5157l-.4434-.9a5.7114,5.7114,0,0,1,2.5059-.6237c1.583,0,2.4951.7795,2.4951,2.1828v4.0418h-1.1758v-.5279a2.8939,2.8939,0,0,1-1.8945.6358C305.1538,274.38,304.2417,273.6247,304.2417,272.5214Zm2.5186.9714a2.3462,2.3462,0,0,0,1.6191-.5756v-1.0555a3.1694,3.1694,0,0,0-1.5713-.3718c-.875,0-1.415.3958-1.415,1.0076C305.3931,273.0851,305.9448,273.4928,306.76,273.4928Z"/><path class="a" d="M312.5806,274.2963l-2.4346-6.1287h1.3193l1.7871,4.6656,1.9668-4.6656h1.295l-2.95,6.8365c-.5635,1.3071-1.211,1.823-2.3389,1.823a2.3219,2.3219,0,0,1-.6357-.0721V275.7a2.3812,2.3812,0,0,0,.54.0479,1.2646,1.2646,0,0,0,1.2109-.8994Z"/><path class="a" d="M321.0894,267.4362v6.8362h-1.1758v-8.3955h1.6787l2.6387,5.3611,2.6269-5.3611h1.6787v8.3955h-1.1875v-6.8482l-3.13,6.2486Z"/><path class="a" d="M333.0278,274.38a3.1414,3.1414,0,0,1-3.2021-3.1663,3.0679,3.0679,0,0,1,3.0586-3.1423,3.0232,3.0232,0,0,1,2.95,3.19v.3477h-4.8213a2.0593,2.0593,0,0,0,2.0625,1.751,2.3769,2.3769,0,0,0,1.5478-.54l.7676.7556A3.6433,3.6433,0,0,1,333.0278,274.38Zm-2.0029-3.67h3.6221a1.821,1.821,0,0,0-3.6221,0Z"/><path class="a" d="M341.6782,273.6967a2.8835,2.8835,0,0,1-1.8711.6716,3.1483,3.1483,0,1,1,1.8594-5.6968v-2.7946l1.1992-.2637v8.6592h-1.1875Zm-1.7031-.3718a2.2014,2.2014,0,0,0,1.6914-.7317v-2.77a2.2316,2.2316,0,0,0-1.6914-.72,2.1112,2.1112,0,0,0,0,4.2217Z"/><path class="a" d="M344.1528,266.4406a.7375.7375,0,0,1,.7325-.7434.7435.7435,0,0,1,0,1.487A.7375.7375,0,0,1,344.1528,266.4406Zm1.3321,7.8318h-1.1993v-6.1048h1.1993Z"/><path class="a" d="M348.0767,271.79a1.43,1.43,0,0,0,1.5117,1.5591,1.7153,1.7153,0,0,0,1.499-.8035v-4.3777h1.1992v6.1048h-1.1992v-.6116a2.4948,2.4948,0,0,1-1.835.7314,2.2794,2.2794,0,0,1-2.375-2.3986v-3.826h1.1993Z"/><path class="a" d="M353.7056,268.1676h1.1992v.5757a2.3416,2.3416,0,0,1,1.7148-.6955,2.1269,2.1269,0,0,1,1.8828,1.0195,2.4455,2.4455,0,0,1,2.0625-1.0195,2.2365,2.2365,0,0,1,2.2911,2.3867v3.8379h-1.1993v-3.6341a1.3717,1.3717,0,0,0-1.4033-1.5471,1.6273,1.6273,0,0,0-1.4267.8155,2.5344,2.5344,0,0,1,.0478.5278v3.8379H357.687v-3.6341a1.3717,1.3717,0,0,0-1.4033-1.5471,1.6,1.6,0,0,0-1.3789.7437v4.4375h-1.1992Z"/><path class="a" d="M232.853,289.2568h3.49a2.1885,2.1885,0,0,1,2.4589,2.1948,2.7172,2.7172,0,0,1-2.2548,2.6626l1.2109,3.5381h-1.2949l-1.14-3.4541H233.021l-.7314,3.4541h-1.2227Zm.9834,1.1035-.5869,2.7944h2.5059a1.6436,1.6436,0,0,0,1.8-1.5952c0-.7432-.54-1.1992-1.416-1.1992Z"/><path class="a" d="M241.9126,297.7724a2.8488,2.8488,0,0,1-3.01-2.8906,3.3641,3.3641,0,0,1,3.25-3.43,2.7043,2.7043,0,0,1,2.6621,2.9028,4.6456,4.6456,0,0,1-.0361.6235h-4.7246a1.8762,1.8762,0,0,0,1.9307,1.7749,2.496,2.496,0,0,0,1.5107-.4794l.6357.7915A3.6722,3.6722,0,0,1,241.9126,297.7724ZM240.15,294.09h3.5615a1.6706,1.6706,0,0,0-1.6426-1.6191A2.0769,2.0769,0,0,0,240.15,294.09Z"/><path class="a" d="M249.9634,297.2807a2.8765,2.8765,0,0,1-1.583.4677,2.7014,2.7014,0,0,1-2.6983-2.8183,3.4175,3.4175,0,0,1,3.37-3.4663,2.8151,2.8151,0,0,1,1.9786.7554l.624-2.9624,1.2236-.2637-1.8349,8.6592h-1.1641Zm-1.2949-.564a2.2693,2.2693,0,0,0,1.5234-.5757l.6-2.8183a2.0161,2.0161,0,0,0-1.6914-.8277,2.2962,2.2962,0,0,0-2.2666,2.3389A1.7958,1.7958,0,0,0,248.6685,296.7167Z"/><path class="a" d="M256.8892,289.2568h1.2236l-.7676,3.5981h4.3779l.7676-3.5981h1.2354l-1.7871,8.3955h-1.2354l.7793-3.6578H257.105l-.7793,3.6578h-1.2236Z"/><path class="a" d="M263.4663,296.0331c0-1.2231.9707-2.0029,2.5186-2.0029a4.1769,4.1769,0,0,1,1.8349.42l.12-.54q.3048-1.4751-1.3671-1.4751a4.76,4.76,0,0,0-1.7754.4316l-.3116-.9116A6.0687,6.0687,0,0,1,266.8,291.44c1.751,0,2.6143.9116,2.291,2.4345l-.8037,3.7779h-1.1514l.0957-.4439a2.8694,2.8694,0,0,1-1.6787.5278C264.2817,297.7362,263.4663,297.0649,263.4663,296.0331Zm2.4346.8159a2.553,2.553,0,0,0,1.5107-.4922l.2285-1.0551a2.7637,2.7637,0,0,0-1.6074-.4556c-.8633,0-1.4512.4434-1.4512,1.0791C264.5815,296.5009,265.0728,296.849,265.9009,296.849Z"/><path class="a" d="M271.2417,292.5551H269.97l.2158-1.0073h1.26l.335-1.5591,1.2353-.2881-.3955,1.8472h1.751l-.2158,1.0073h-1.751l-.6953,3.2622c-.1446.66.0957.9233.8388.9233a2.9046,2.9046,0,0,0,.7325-.1079l-.2168.9956a4.2493,4.2493,0,0,1-.9834.12c-1.2471,0-1.8106-.6118-1.583-1.7031Z"/><path class="a" d="M278.3931,289.2568h2.5185a3.6127,3.6127,0,0,1,3.8506,3.7182,4.8075,4.8075,0,0,1-4.8818,4.6773H276.606Zm.9834,1.1274-1.3067,6.1406h1.9424a3.4631,3.4631,0,0,0,3.4668-3.478,2.5313,2.5313,0,0,0-2.6631-2.6626Z"/><path class="a" d="M286.2661,297.6523h-1.164l1.2958-6.1045h1.1631Zm.3477-7.7476a.843.843,0,0,1,.8154-.8276.6479.6479,0,0,1,.6475.66.843.843,0,0,1-.8155.8277A.64.64,0,0,1,286.6138,289.9047Z"/><path class="a" d="M288.1626,295.9374a2.7647,2.7647,0,0,0,2.0146.8994c.7911,0,1.3555-.3838,1.3555-.9233,0-.3838-.2646-.6-.8515-.7319l-1.0557-.24c-1.0195-.228-1.5234-.7554-1.5234-1.583,0-1.1636.9121-1.9072,2.3154-1.9072a3.815,3.815,0,0,1,2.53.9477l-.6836.7554a3.0176,3.0176,0,0,0-1.919-.7793c-.72,0-1.1875.3355-1.1875.8633,0,.3721.24.5879.876.7319l1.0547.24c1.0439.2275,1.56.7553,1.56,1.5708a2.2288,2.2288,0,0,1-2.4951,1.9912,3.75,3.75,0,0,1-2.71-1.0913Z"/><path class="a" d="M294.4614,291.5478h1.1631l-.084.3715a2.924,2.924,0,0,1,1.5713-.4555,2.6943,2.6943,0,0,1,2.711,2.8066,3.4308,3.4308,0,0,1-3.3829,3.478,2.6857,2.6857,0,0,1-1.9668-.7915l-.6718,3.1783h-1.1631Zm.8389,1.5229-.5869,2.7827a1.985,1.985,0,0,0,1.69.8516,2.2785,2.2785,0,0,0,2.2666-2.3267,1.7959,1.7959,0,0,0-1.835-1.8833A2.3018,2.3018,0,0,0,295.3,293.0707Z"/><path class="a" d="M301.4692,297.6523h-1.164l1.7871-8.3955,1.2236-.2637Z"/><path class="a" d="M302.9819,296.0331c0-1.2231.9707-2.0029,2.5186-2.0029a4.1765,4.1765,0,0,1,1.8349.42l.12-.54q.3047-1.4751-1.3672-1.4751a4.7609,4.7609,0,0,0-1.7754.4316l-.3115-.9116a6.0683,6.0683,0,0,1,2.3144-.5156c1.751,0,2.6143.9116,2.291,2.4345l-.8037,3.7779h-1.1513l.0957-.4439a2.87,2.87,0,0,1-1.6788.5278C303.7974,297.7362,302.9819,297.0649,302.9819,296.0331Zm2.4346.8159a2.5528,2.5528,0,0,0,1.5107-.4922l.2286-1.0551a2.7642,2.7642,0,0,0-1.6075-.4556c-.8632,0-1.4511.4434-1.4511,1.0791C304.0972,296.5009,304.5884,296.849,305.4165,296.849Z"/><path class="a" d="M310.6724,297.6523l-1.1153-6.1045h1.2471l.78,4.7373,2.9375-4.7373h1.2959l-4.4014,6.9922a2.7659,2.7659,0,0,1-2.4473,1.6308,3.2164,3.2164,0,0,1-.7793-.1079l.2276-1.0435a1.7159,1.7159,0,0,0,.54.0723,1.5717,1.5717,0,0,0,1.3311-.84Z"/><path class="a" d="M320.5122,290.7919l-1.4512,6.86h-1.164l1.7871-8.3955H321.28l1.4512,5.373,3.706-5.373h1.69l-1.7871,8.3955h-1.1386l1.4394-6.8243-4.3779,6.2246Z"/><path class="a" d="M331.2515,297.7724a2.8488,2.8488,0,0,1-3.01-2.8906,3.3641,3.3641,0,0,1,3.25-3.43,2.7043,2.7043,0,0,1,2.6621,2.9028,4.6456,4.6456,0,0,1-.0361.6235h-4.7246a1.8761,1.8761,0,0,0,1.9306,1.7749,2.4963,2.4963,0,0,0,1.5108-.4794l.6357.7915A3.6722,3.6722,0,0,1,331.2515,297.7724Zm-1.7627-3.6822H333.05a1.6706,1.6706,0,0,0-1.6426-1.6191A2.0769,2.0769,0,0,0,329.4888,294.09Z"/><path class="a" d="M339.3032,297.2807a2.8763,2.8763,0,0,1-1.583.4677,2.7013,2.7013,0,0,1-2.6982-2.8183,3.4175,3.4175,0,0,1,3.37-3.4663,2.8149,2.8149,0,0,1,1.9785.7554l.624-2.9624,1.2237-.2637-1.835,8.6592h-1.1641Zm-1.2949-.564a2.2693,2.2693,0,0,0,1.5234-.5757l.6-2.8183a2.0161,2.0161,0,0,0-1.6914-.8277,2.2962,2.2962,0,0,0-2.2666,2.3389A1.7958,1.7958,0,0,0,338.0083,296.7167Z"/><path class="a" d="M342.9653,297.6523h-1.164l1.2959-6.1045H344.26Zm.3477-7.7476a.843.843,0,0,1,.8154-.8276.6479.6479,0,0,1,.6475.66.843.843,0,0,1-.8155.8277A.64.64,0,0,1,343.313,289.9047Z"/><path class="a" d="M346.0366,295.0859c-.2158.9834.2764,1.643,1.2237,1.643a2.0074,2.0074,0,0,0,1.5468-.7314l.9473-4.45H350.93l-1.2949,6.1045H348.46l.1084-.5279a2.7237,2.7237,0,0,1-1.7637.6358,1.9467,1.9467,0,0,1-1.9668-2.5547l.7793-3.6577h1.1758Z"/><path class="a" d="M352.3491,291.5478h1.1631l-.12.5634a2.5034,2.5034,0,0,1,1.6914-.6713,1.78,1.78,0,0,1,1.7266,1.0791,2.8352,2.8352,0,0,1,2.1709-1.0791,1.8477,1.8477,0,0,1,1.8115,2.4824l-.792,3.73h-1.1631l.7676-3.6338c.1914-.9117-.252-1.5474-1.0791-1.5474a2.0365,2.0365,0,0,0-1.56.8516,2.7436,2.7436,0,0,1-.06.6l-.792,3.73H354.94l.7549-3.5738c.2158-.9594-.2158-1.6074-1.0674-1.6074a1.9274,1.9274,0,0,0-1.4746.7559l-.9355,4.4253h-1.1641Z"/><path class="a" d="M365.812,289.2568h1.2236l-1.7871,8.3955h-1.2226Z"/><path class="a" d="M368.6567,292.5551h-1.2714l.2158-1.0073H368.86l.3359-1.5591,1.2354-.2881-.3956,1.8472h1.751l-.2158,1.0073H369.82l-.6953,3.2622c-.1445.66.0957.9233.8389.9233a2.9046,2.9046,0,0,0,.7324-.1079l-.2168.9956a4.2493,4.2493,0,0,1-.9834.12c-1.2471,0-1.8105-.6118-1.583-1.7031Z"/><path class="a" d="M371.4771,296.0331c0-1.2231.9707-2.0029,2.5185-2.0029a4.1773,4.1773,0,0,1,1.835.42l.12-.54q.3047-1.4751-1.3682-1.4751a4.7608,4.7608,0,0,0-1.7744.4316l-.3115-.9116a6.0683,6.0683,0,0,1,2.3144-.5156c1.751,0,2.6143.9116,2.2911,2.4345l-.8038,3.7779H375.147l.0957-.4439a2.87,2.87,0,0,1-1.6787.5278C372.2925,297.7362,371.4771,297.0649,371.4771,296.0331Zm2.4345.8159a2.5511,2.5511,0,0,0,1.5108-.4922l.2285-1.0551a2.7639,2.7639,0,0,0-1.6074-.4556c-.8633,0-1.4512.4434-1.4512,1.0791C372.5923,296.5009,373.0835,296.849,373.9116,296.849Z"/><path class="a" d="M378.8091,297.6523H377.645l1.7871-8.3955,1.2237-.2637Z"/><path class="a" d="M381.3882,297.6523h-1.1641l1.2959-6.1045h1.1631Zm.3476-7.7476a.843.843,0,0,1,.8155-.8276.6479.6479,0,0,1,.6474.66.843.843,0,0,1-.8154.8277A.64.64,0,0,1,381.7358,289.9047Z"/><path class="a" d="M387.6616,296.0815l.5879.8154a3.5961,3.5961,0,0,1-2.3144.8755,2.7324,2.7324,0,0,1-2.8067-2.8184A3.4778,3.4778,0,0,1,386.51,291.44a2.9932,2.9932,0,0,1,2.4111,1.1992l-.8281.7558a1.9317,1.9317,0,0,0-1.6192-.8877,2.3167,2.3167,0,0,0-2.17,2.3868,1.75,1.75,0,0,0,1.7627,1.8227A2.4642,2.4642,0,0,0,387.6616,296.0815Z"/><path class="a" d="M231.6309,312.6366h4.1015a2.6463,2.6463,0,0,1,2.9024,2.6028,2.4925,2.4925,0,0,1-1.6436,2.3386l1.8594,3.4541h-1.9434l-1.6426-3.2143H233.37v3.2143h-1.7392Zm1.7392,1.4993v2.2549h2.2061a1.1384,1.1384,0,1,0,0-2.2549Z"/><path class="a" d="M242.3809,321.152a3.2535,3.2535,0,0,1-3.3584-3.238,3.19,3.19,0,0,1,3.2148-3.2383,3.1539,3.1539,0,0,1,3.0938,3.3581v.4317h-4.6534a1.8018,1.8018,0,0,0,1.7754,1.3074,1.9668,1.9668,0,0,0,1.3789-.5037l1.08.9834A3.7468,3.7468,0,0,1,242.3809,321.152ZM240.666,317.29h3.0586a1.6122,1.6122,0,0,0-1.5234-1.2593A1.5694,1.5694,0,0,0,240.666,317.29Z"/><path class="a" d="M251.0566,320.5165a2.8357,2.8357,0,0,1-1.7754.6,3.2083,3.2083,0,0,1,.0479-6.4165,3.1088,3.1088,0,0,1,1.7031.4917v-2.5547l1.6436-.36v8.7551h-1.6192Zm-1.5117-.8037a2.0039,2.0039,0,0,0,1.4873-.6v-2.4346a2.0619,2.0619,0,0,0-1.4873-.5879,1.8111,1.8111,0,1,0,0,3.6221Z"/><path class="a" d="M256.4941,312.6366h1.7393v3.37h3.8613v-3.37h1.7393v8.3955h-1.7393v-3.43h-3.8613v3.43h-1.7393Z"/><path class="a" d="M264.834,319.2211c0-1.1873.96-1.895,2.5664-1.895a5.0505,5.0505,0,0,1,1.5234.24v-.4439c0-.72-.4433-1.0913-1.3193-1.0913a4.85,4.85,0,0,0-1.9072.5156l-.6-1.2111a6.5177,6.5177,0,0,1,2.7832-.6717c1.69,0,2.6621.8394,2.6621,2.3147v4.0537h-1.6192v-.4316a2.9706,2.9706,0,0,1-1.8105.54A2.0229,2.0229,0,0,1,264.834,319.2211Zm2.7109.7437a2.3657,2.3657,0,0,0,1.3789-.3958v-.9355a3.6276,3.6276,0,0,0-1.3193-.2278c-.7559,0-1.1992.3-1.1992.7795S266.8486,319.9648,267.5449,319.9648Z"/><path class="a" d="M272.4053,316.1628h-1.2832v-1.3792h1.2832v-1.5952l1.6435-.3718v1.967h1.7744v1.3792h-1.7744v2.77c0,.5876.2276.8034.8633.8034a2.5245,2.5245,0,0,0,.875-.1438v1.3433a5.0947,5.0947,0,0,1-1.2705.1919c-1.3916,0-2.1113-.6358-2.1113-1.8589Z"/><path class="a" d="M279.1621,312.6366h3.2256a4.2042,4.2042,0,1,1,0,8.3955h-3.2256Zm1.7393,1.5474v5.301h1.4746a2.6505,2.6505,0,1,0,0-5.301Z"/><path class="a" d="M287.79,313.1044a.9356.9356,0,1,1,.9356.9356A.9368.9368,0,0,1,287.79,313.1044Zm1.7637,7.9277H287.91v-6.2485h1.6435Z"/><path class="a" d="M291.126,319.1972a3.6378,3.6378,0,0,0,2.0263.7075c.7325,0,1.212-.2637,1.212-.66,0-.3237-.24-.5036-.7793-.5876l-1.2-.18c-1.2354-.1919-1.8946-.8035-1.8946-1.8111,0-1.2112,1.0078-1.9787,2.6026-1.9787a4.61,4.61,0,0,1,2.5664.7795l-.791,1.0554a3.6915,3.6915,0,0,0-1.9317-.6c-.6,0-.9834.24-.9834.6116,0,.3359.24.5036.8516.5876l1.1992.18c1.2236.18,1.9072.8156,1.9072,1.7871,0,1.1753-1.1631,2.0627-2.7343,2.0627a4.6028,4.6028,0,0,1-2.8663-.8635Z"/><path class="a" d="M296.73,314.7836h1.6191v.5156a2.8344,2.8344,0,0,1,1.7754-.6,3.2083,3.2083,0,0,1-.0478,6.4165,3.1037,3.1037,0,0,1-1.7032-.4917v2.9143H296.73Zm1.6435,1.907v2.4585a2.1039,2.1039,0,0,0,1.4874.5757,1.811,1.811,0,1,0,0-3.6219A2.0142,2.0142,0,0,0,298.373,316.6906Z"/><path class="a" d="M305.957,321.0321h-1.6435v-8.3955l1.6435-.36Z"/><path class="a" d="M306.9414,319.2211c0-1.1873.96-1.895,2.5664-1.895a5.0505,5.0505,0,0,1,1.5234.24v-.4439c0-.72-.4433-1.0913-1.3193-1.0913a4.85,4.85,0,0,0-1.9072.5156l-.6-1.2111a6.5181,6.5181,0,0,1,2.7832-.6717c1.69,0,2.6621.8394,2.6621,2.3147v4.0537h-1.6192v-.4316a2.97,2.97,0,0,1-1.81.54A2.023,2.023,0,0,1,306.9414,319.2211Zm2.7109.7437a2.3655,2.3655,0,0,0,1.3789-.3958v-.9355a3.6276,3.6276,0,0,0-1.3193-.2278c-.7558,0-1.1992.3-1.1992.7795S308.9561,319.9648,309.6523,319.9648Z"/><path class="a" d="M315.5684,321.0922l-2.4346-6.3086h1.81l1.5479,4.2576,1.7744-4.2576h1.7754l-2.8789,6.74c-.6475,1.5113-1.4024,2.087-2.7695,2.087a2.9983,2.9983,0,0,1-.7325-.0721v-1.4153a2.5683,2.5683,0,0,0,.5762.0481,1.2584,1.2584,0,0,0,1.2354-.8515Z"/><path class="a" d="M327.1592,312.6366c1.6914,0,2.8428.9356,2.8428,2.3028a2.0707,2.0707,0,0,1-1.0313,1.7632,2.1156,2.1156,0,0,1,1.3193,1.895c0,1.4631-1.1757,2.4345-2.9384,2.4345h-4.1377v-8.3955Zm-2.2071,1.44v1.9907h2.1c.7431,0,1.2226-.3838,1.2226-.9954s-.48-.9953-1.2226-.9953Zm3.587,4.4255c0-.6477-.5166-1.08-1.3194-1.08h-2.2676v2.1709H327.22C328.0225,319.5929,328.5391,319.1733,328.5391,318.5016Z"/><path class="a" d="M334.4434,314.6637a3.2454,3.2454,0,1,1-3.335,3.25A3.257,3.257,0,0,1,334.4434,314.6637Zm1.7265,3.25a1.729,1.729,0,1,0-1.7265,1.8108A1.7508,1.7508,0,0,0,336.17,317.914Z"/><path class="a" d="M340.4326,321.0321h-1.6435v-8.3955l1.6435-.36Z"/><path class="a" d="M346.3828,320.5165a2.8357,2.8357,0,0,1-1.7754.6,3.2083,3.2083,0,0,1,.0479-6.4165,3.1088,3.1088,0,0,1,1.7031.4917v-2.5547l1.6436-.36v8.7551h-1.6192Zm-1.5117-.8037a2.0041,2.0041,0,0,0,1.4873-.6v-2.4346a2.0621,2.0621,0,0,0-1.4873-.5879,1.8111,1.8111,0,1,0,0,3.6221Z"/><path class="a" d="M232.7461,336.1728h3.7422a2.3429,2.3429,0,0,1,2.5781,2.3388,2.8291,2.8291,0,0,1-2.1943,2.6985l1.2588,3.3582H236.332l-1.1152-3.2383h-1.8711l-.6836,3.2383H230.959Zm1.3789,1.4992-.4678,2.243h2.2549a1.2994,1.2994,0,0,0,1.415-1.2476,1.0006,1.0006,0,0,0-1.1386-.9954Z"/><path class="a" d="M242.3086,344.7a2.9671,2.9671,0,0,1-3.166-2.9863,3.4564,3.4564,0,0,1,3.3818-3.49,2.8164,2.8164,0,0,1,2.8311,3.01,6.5,6.5,0,0,1-.0606.7557h-4.5576a1.6284,1.6284,0,0,0,1.6914,1.3432,2.1492,2.1492,0,0,0,1.3555-.4558l.8994,1.0435A3.8629,3.8629,0,0,1,242.3086,344.7Zm-1.4629-3.8738h2.998a1.4164,1.4164,0,0,0-1.4033-1.2353A1.7408,1.7408,0,0,0,240.8457,340.8263Z"/><path class="a" d="M250.3721,344.2565a2.8831,2.8831,0,0,1-1.4629.3958,2.7881,2.7881,0,0,1-2.7832-2.89,3.499,3.499,0,0,1,3.4785-3.5261,2.8441,2.8441,0,0,1,1.8828.6477l.5762-2.7107,1.69-.36-1.8584,8.7552H250.3Zm-1.0313-.9956a2.03,2.03,0,0,0,1.3194-.48l.5273-2.4825a1.995,1.995,0,0,0-3.4775,1.3191A1.5914,1.5914,0,0,0,249.3408,343.2609Z"/><path class="a" d="M257.4775,336.1728h1.7032l-.72,3.37h3.79l.72-3.37h1.69l-1.7871,8.3955h-1.69l.7314-3.43h-3.79l-.7314,3.43H255.69Z"/><path class="a" d="M264.2832,342.9013c0-1.2715.9951-2.063,2.626-2.063a4.9887,4.9887,0,0,1,1.7031.3118l.0723-.3118c.18-.8516-.252-1.2712-1.2715-1.2712a5.1087,5.1087,0,0,0-1.7627.4077l-.3965-1.2354a6.9207,6.9207,0,0,1,2.5068-.5276c1.9073,0,2.8428.9715,2.5069,2.6026l-.792,3.7539h-1.583l.084-.3838a2.9082,2.9082,0,0,1-1.5713.4558C265.0986,344.64,264.2832,343.9567,264.2832,342.9013Zm2.6738.5757a2.2356,2.2356,0,0,0,1.2354-.3479l.2041-.9356a3.3946,3.3946,0,0,0-1.3672-.2759c-.7559,0-1.2236.324-1.2236.84C265.8057,343.213,266.2373,343.477,266.957,343.477Z"/><path class="a" d="M272.3213,339.6989h-1.2588l.2881-1.3792h1.2588l.3359-1.5952,1.6914-.3718-.42,1.967h1.7393l-.2881,1.3792h-1.7393l-.5879,2.7346c-.1318.6116.0957.8516.7793.8516a2.9894,2.9894,0,0,0,.7676-.096l-.2871,1.3313a5.42,5.42,0,0,1-1.14.1319c-1.4033,0-2.039-.6956-1.7754-1.9551Z"/><path class="a" d="M279.749,336.1728h2.7461a3.6875,3.6875,0,0,1,3.8858,3.7422,4.8019,4.8019,0,0,1-4.8448,4.6533h-3.5742Zm1.3789,1.5473-1.1386,5.3011h1.69a2.9441,2.9441,0,0,0,2.9267-2.9864,2.22,2.22,0,0,0-2.3027-2.3147Z"/><path class="a" d="M288.1611,344.5683h-1.6074l1.3193-6.2486h1.6075Zm-.0478-7.82a1.0575,1.0575,0,0,1,1.0312-1.0432.8085.8085,0,0,1,.8155.8155,1.0682,1.0682,0,0,1-1.0313,1.0554A.8114.8114,0,0,1,288.1133,336.7484Z"/><path class="a" d="M290.1533,342.5893a3.1231,3.1231,0,0,0,2.0508.8635c.66,0,1.1035-.2756,1.1035-.6836,0-.2759-.2275-.4558-.6836-.5637l-1.1513-.2517c-1.0313-.2281-1.5831-.8157-1.5831-1.6912,0-1.2593.96-2.0388,2.4825-2.0388a4.15,4.15,0,0,1,2.6992.9595l-.8994.9953a3.2342,3.2342,0,0,0-1.9073-.7314c-.5761,0-.9355.24-.9355.6235,0,.3.2041.4678.7432.5877l1.14.2519c1.0557.2278,1.6309.8274,1.6309,1.667,0,1.2114-1.1387,2.1228-2.65,2.1228a4.3758,4.3758,0,0,1-2.9619-1.0674Z"/><path class="a" d="M296.5732,338.32h1.5957l-.06.3118a2.81,2.81,0,0,1,1.4512-.3957,2.78,2.78,0,0,1,2.7832,2.89,3.4918,3.4918,0,0,1-3.4785,3.5262,2.7,2.7,0,0,1-1.8711-.6836l-.6719,3.1062h-1.6065Zm1.2481,1.7749-.5283,2.4588a1.8609,1.8609,0,0,0,1.5117.6955,1.9553,1.9553,0,0,0,1.9668-1.9787,1.5916,1.5916,0,0,0-1.6309-1.6433A2.0586,2.0586,0,0,0,297.8213,340.0946Z"/><path class="a" d="M304.2891,344.5683h-1.6075l1.7871-8.3955,1.68-.36Z"/><path class="a" d="M305.6943,342.9013c0-1.2715.9952-2.063,2.626-2.063a4.9887,4.9887,0,0,1,1.7031.3118l.0723-.3118c.18-.8516-.252-1.2712-1.2715-1.2712a5.1091,5.1091,0,0,0-1.7627.4077l-.3965-1.2354a6.9212,6.9212,0,0,1,2.5069-.5276c1.9072,0,2.8427.9715,2.5068,2.6026l-.792,3.7539h-1.583l.084-.3838a2.9077,2.9077,0,0,1-1.5713.4558C306.51,344.64,305.6943,343.9567,305.6943,342.9013Zm2.6739.5757a2.2378,2.2378,0,0,0,1.2353-.3479l.2041-.9356a3.3946,3.3946,0,0,0-1.3672-.2759c-.7558,0-1.2236.324-1.2236.84C307.2168,343.213,307.6484,343.477,308.3682,343.477Z"/><path class="a" d="M313.709,344.5563l-1.08-6.2366h1.7158l.6475,4.4016,2.6865-4.4016h1.7627l-4.4014,6.9922a3.1193,3.1193,0,0,1-2.7949,1.7989,3.8593,3.8593,0,0,1-.9472-.12l.288-1.4031a2.0731,2.0731,0,0,0,.5879.0718,1.4975,1.4975,0,0,0,1.3311-.7915Z"/><path class="a" d="M326.6426,336.1728c1.5224,0,2.5058.7917,2.5058,2.0029a2.4588,2.4588,0,0,1-1.3545,2.135,1.8047,1.8047,0,0,1,.959,1.583c0,1.5352-1.3789,2.6746-3.2021,2.6746h-4.3057l1.7871-8.3955Zm.3955,5.709c0-.5757-.4317-.9236-1.1514-.9236h-2.1709l-.456,2.1709h2.3271A1.3045,1.3045,0,0,0,327.0381,341.8818Zm-2.6152-4.27-.419,1.9907h2.0742a1.2084,1.2084,0,0,0,1.3321-1.1394c0-.5276-.3965-.8513-1.044-.8513Z"/><path class="a" d="M333.1475,338.2a2.9717,2.9717,0,0,1,3.07,2.9983,3.5323,3.5323,0,0,1-3.49,3.49,2.9742,2.9742,0,0,1-3.07-3.01A3.5148,3.5148,0,0,1,333.1475,338.2Zm1.4873,3.07a1.5574,1.5574,0,0,0-1.5713-1.6433,1.9138,1.9138,0,0,0-1.8223,1.979,1.558,1.558,0,0,0,1.5586,1.655A1.9265,1.9265,0,0,0,334.6348,341.27Z"/><path class="a" d="M338.1641,344.5683h-1.6075l1.7871-8.3955,1.68-.36Z"/><path class="a" d="M344.0664,344.2565a2.8829,2.8829,0,0,1-1.4629.3958,2.7881,2.7881,0,0,1-2.7832-2.89,3.4991,3.4991,0,0,1,3.4785-3.5261,2.8441,2.8441,0,0,1,1.8828.6477l.5762-2.7107,1.69-.36-1.8584,8.7552h-1.5957Zm-1.0312-.9956a2.03,2.03,0,0,0,1.3193-.48l.5273-2.4825a1.995,1.995,0,0,0-3.4775,1.3191A1.5914,1.5914,0,0,0,343.0352,343.2609Z"/><path class="a" d="M351.1719,336.1728h1.7031l-1.7871,8.3955h-1.7031Z"/><path class="a" d="M354.34,339.6989h-1.2587l.288-1.3792h1.2588l.336-1.5952,1.6914-.3718-.42,1.967h1.7392l-.2881,1.3792h-1.7392l-.5879,2.7346c-.1319.6116.0957.8516.78.8516a3,3,0,0,0,.7676-.096l-.2881,1.3313a5.4186,5.4186,0,0,1-1.14.1319c-1.4033,0-2.0391-.6956-1.7754-1.9551Z"/><path class="a" d="M357.5928,342.9013c0-1.2715.9951-2.063,2.6259-2.063a4.99,4.99,0,0,1,1.7032.3118l.0722-.3118c.18-.8516-.2519-1.2712-1.2714-1.2712a5.1082,5.1082,0,0,0-1.7627.4077l-.3965-1.2354a6.9207,6.9207,0,0,1,2.5068-.5276c1.9072,0,2.8428.9715,2.5068,2.6026l-.7919,3.7539h-1.5831l.084-.3838a2.9077,2.9077,0,0,1-1.5713.4558C358.4082,344.64,357.5928,343.9567,357.5928,342.9013Zm2.6738.5757a2.2382,2.2382,0,0,0,1.2354-.3479l.2041-.9356a3.395,3.395,0,0,0-1.3672-.2759c-.7559,0-1.2237.324-1.2237.84C359.1152,343.213,359.5469,343.477,360.2666,343.477Z"/><path class="a" d="M365.6074,344.5683H364l1.7871-8.3955,1.68-.36Z"/><path class="a" d="M368.4873,344.5683H366.88l1.3193-6.2486h1.6074Zm-.0478-7.82a1.0574,1.0574,0,0,1,1.0312-1.0432.8084.8084,0,0,1,.8154.8155,1.0682,1.0682,0,0,1-1.0312,1.0554A.8113.8113,0,0,1,368.44,336.7484Z"/><path class="a" d="M374.69,342.6493l.8271,1.0794a3.6126,3.6126,0,0,1-2.4463.9714,2.8744,2.8744,0,0,1-2.9619-2.9382,3.4993,3.4993,0,0,1,3.4541-3.55,3.1434,3.1434,0,0,1,2.5664,1.2593l-1.1152,1.0073a1.6809,1.6809,0,0,0-1.4756-.8274,1.9436,1.9436,0,0,0-1.8233,2.0269,1.5027,1.5027,0,0,0,1.5352,1.595A2.0992,2.0992,0,0,0,374.69,342.6493Z"/><path class="a" d="M419.6206,265.8771h4.294a2.7248,2.7248,0,0,1,2.9619,2.6746,2.5785,2.5785,0,0,1-1.57,2.3628l1.8349,3.3581h-2.3027l-1.583-3.0583h-1.5713v3.0583h-2.0635Zm2.0635,1.7632v1.895h2.039a.9542.9542,0,1,0,0-1.895Z"/><path class="a" d="M430.647,274.3925a3.3313,3.3313,0,0,1-3.4541-3.2861,3.26,3.26,0,1,1,6.5127.18v.48h-4.5215a1.6453,1.6453,0,0,0,1.56,1.0074,1.7165,1.7165,0,0,0,1.2705-.48l1.2832,1.1394A3.825,3.825,0,0,1,430.647,274.3925Zm-1.4991-3.9817h2.65a1.3911,1.3911,0,0,0-1.331-1.0076A1.3221,1.3221,0,0,0,429.1479,270.4108Z"/><path class="a" d="M439.3335,273.8048a2.8589,2.8589,0,0,1-1.7031.5518,3.2567,3.2567,0,1,1,1.68-6.0928v-2.3867l1.9423-.42v8.8152h-1.9189Zm-1.3672-1.1032a1.8687,1.8687,0,0,0,1.3438-.5039v-2.2188a1.9669,1.9669,0,0,0-1.3438-.4917,1.6083,1.6083,0,1,0,0,3.2144Z"/><path class="a" d="M444.8921,265.8771h2.0635v3.2263H450.41v-3.2263h2.0625v8.3955H450.41v-3.2861h-3.4541v3.2861h-2.0635Z"/><path class="a" d="M453.3765,272.4137c0-1.2114.9589-1.9069,2.6142-1.9069a5.7693,5.7693,0,0,1,1.44.18v-.312c0-.6355-.4082-.9473-1.2119-.9473a5.0925,5.0925,0,0,0-1.919.5037l-.6953-1.4273a7.0592,7.0592,0,0,1,2.9619-.6955c1.7637,0,2.7832.8755,2.7832,2.3986v4.0657H457.43v-.3838a2.9679,2.9679,0,0,1-1.751.4917A2.0575,2.0575,0,0,1,453.3765,272.4137Zm2.8418.6a2.3013,2.3013,0,0,0,1.2119-.3v-.8156a4.59,4.59,0,0,0-1.1514-.1438c-.6719,0-1.0557.2277-1.0557.6235S455.5952,273.0133,456.2183,273.0133Z"/><path class="a" d="M461.1636,269.5473H459.88v-1.6192h1.2832V266.297l1.9433-.42v2.051h1.7744v1.6192h-1.7744v2.4106c0,.5637.2159.7676.8389.7676a2.8177,2.8177,0,0,0,.876-.1321v1.5713a5.78,5.78,0,0,1-1.3555.1919c-1.5234,0-2.3027-.6836-2.3027-2.0149Z"/><path class="a" d="M468.0757,265.8771h3.4062a4.2042,4.2042,0,1,1,0,8.3955h-3.4062Zm2.0635,1.8233V272.45h1.2949a2.3243,2.3243,0,0,0,2.3506-2.3508,2.35,2.35,0,0,0-2.3506-2.3984Z"/><path class="a" d="M476.8247,266.2731a1.0674,1.0674,0,1,1,1.0674,1.0674A1.0695,1.0695,0,0,1,476.8247,266.2731Zm2.0391,8H476.92v-6.3445h1.9434Z"/><path class="a" d="M480.4956,272.2577a3.91,3.91,0,0,0,2.0635.6836c.6347,0,1.043-.1919,1.043-.5036,0-.24-.2042-.3838-.6475-.4559l-1.26-.1918c-1.2588-.1919-1.9424-.8516-1.9424-1.8951,0-1.2832,1.0313-2.0627,2.7344-2.0627a4.9737,4.9737,0,0,1,2.65.7676l-.9238,1.2473a3.7493,3.7493,0,0,0-1.919-.5757c-.5029,0-.8271.18-.8271.4558,0,.2637.2041.3958.7431.48l1.26.1919c1.2471.18,1.9551.8514,1.9551,1.847,0,1.2353-1.2119,2.1467-2.8545,2.1467a5.1219,5.1219,0,0,1-2.998-.8274Z"/><path class="a" d="M486.1724,267.9281h1.9189v.4678a2.861,2.861,0,0,1,1.7031-.5517,3.2567,3.2567,0,1,1-1.6787,6.0925v2.8664h-1.9433Zm1.9433,2.075v2.2187a1.9657,1.9657,0,0,0,1.3428.4917,1.6082,1.6082,0,1,0,0-3.2143A1.8646,1.8646,0,0,0,488.1157,270.0031Z"/><path class="a" d="M495.8911,274.2726h-1.9433v-8.3955l1.9433-.42Z"/><path class="a" d="M496.8169,272.4137c0-1.2114.959-1.9069,2.6143-1.9069a5.7685,5.7685,0,0,1,1.4394.18v-.312c0-.6355-.4082-.9473-1.2119-.9473a5.093,5.093,0,0,0-1.919.5037l-.6953-1.4273a7.0592,7.0592,0,0,1,2.9619-.6955c1.7637,0,2.7833.8755,2.7833,2.3986v4.0657h-1.919v-.3838a2.9679,2.9679,0,0,1-1.751.4917A2.0575,2.0575,0,0,1,496.8169,272.4137Zm2.8418.6a2.3008,2.3008,0,0,0,1.2119-.3v-.8156a4.59,4.59,0,0,0-1.1514-.1438c-.6718,0-1.0556.2277-1.0556.6235S499.0356,273.0133,499.6587,273.0133Z"/><path class="a" d="M505.6353,274.3566,503.2,267.9281h2.1475l1.4033,3.9939,1.6308-3.9939H510.48l-2.8428,6.6682c-.707,1.6553-1.5351,2.2669-3.0576,2.2669a3.6646,3.6646,0,0,1-.8037-.072v-1.6551a2.888,2.888,0,0,0,.6.0481,1.25,1.25,0,0,0,1.26-.8156Z"/><path class="a" d="M517.6577,265.8771c1.7149,0,2.9141.9717,2.9141,2.3628a2.1287,2.1287,0,0,1-.959,1.7271,2.1176,2.1176,0,0,1,1.2226,1.8349c0,1.4754-1.1992,2.4707-2.9736,2.4707h-4.3662v-8.3955Zm-2.0986,1.6912v1.655h1.9668c.6,0,.9834-.3237.9834-.8274s-.3838-.8276-.9834-.8276Zm3.1894,4.1257c0-.54-.4072-.8874-1.0429-.8874h-2.1465v1.7749h2.1465C518.3413,272.5815,518.7485,272.2338,518.7485,271.694Z"/><path class="a" d="M523.8032,274.2726H521.86v-8.3955l1.9433-.42Z"/><path class="a" d="M524.728,272.4137c0-1.2114.959-1.9069,2.6143-1.9069a5.768,5.768,0,0,1,1.4394.18v-.312c0-.6355-.4082-.9473-1.2119-.9473a5.0921,5.0921,0,0,0-1.9189.5037l-.6953-1.4273a7.0588,7.0588,0,0,1,2.9619-.6955c1.7637,0,2.7832.8755,2.7832,2.3986v4.0657h-1.919v-.3838a2.9676,2.9676,0,0,1-1.7509.4917A2.0575,2.0575,0,0,1,524.728,272.4137Zm2.8418.6a2.3008,2.3008,0,0,0,1.2119-.3v-.8156a4.5889,4.5889,0,0,0-1.1513-.1438c-.6719,0-1.0557.2277-1.0557.6235S526.9468,273.0133,527.57,273.0133Z"/><path class="a" d="M536.4019,272.03l1.1513,1.1993a3.53,3.53,0,0,1-2.6269,1.1633,3.2928,3.2928,0,1,1,0-6.5842,3.5864,3.5864,0,0,1,2.6865,1.1753l-1.1875,1.2353a1.8366,1.8366,0,0,0-1.4512-.7317,1.6177,1.6177,0,0,0,.0479,3.2263A1.7749,1.7749,0,0,0,536.4019,272.03Z"/><path class="a" d="M538.3237,265.8771l1.9434-.42v5.0613l2.53-2.5906h2.1709l-2.8184,2.8665,3.01,3.478h-2.458l-2.4346-2.8425v2.8425h-1.9434Z"/><path class="a" d="M420.7241,289.5212h3.91a2.43,2.43,0,0,1,2.65,2.4348,2.8927,2.8927,0,0,1-2.1465,2.7224l1.2832,3.2383h-2.1348l-1.0918-3.0823h-1.583l-.6592,3.0823H418.937Zm1.6436,1.7631-.3965,1.8709h2.1a1.06,1.06,0,0,0,1.1514-1.0073.85.85,0,0,0-.9483-.8636Z"/><path class="a" d="M430.6226,298.0485a3.0451,3.0451,0,0,1-3.2618-3.0342,3.5325,3.5325,0,0,1,3.4776-3.5381,2.877,2.877,0,0,1,2.9267,3.0823,6.5028,6.5028,0,0,1-.0722.84h-4.4375a1.5042,1.5042,0,0,0,1.5234,1.0554,1.8506,1.8506,0,0,0,1.2588-.4438l1.0674,1.2114A3.8721,3.8721,0,0,1,430.6226,298.0485Zm-1.2588-3.9937h2.6142a1.2514,1.2514,0,0,0-1.2236-.9834A1.5352,1.5352,0,0,0,429.3638,294.0548Z"/><path class="a" d="M438.6978,297.6527a2.939,2.939,0,0,1-1.379.3479,2.8487,2.8487,0,0,1-2.83-2.95,3.5445,3.5445,0,0,1,3.55-3.562,2.9571,2.9571,0,0,1,1.8232.5757l.5391-2.5427,1.9912-.42-1.8711,8.8152h-1.8828Zm-.8516-1.2951a1.8093,1.8093,0,0,0,1.1875-.4077l.4795-2.2549a1.9605,1.9605,0,0,0-1.4024-.5518,1.728,1.728,0,0,0-1.7519,1.739A1.4476,1.4476,0,0,0,437.8462,296.3576Z"/><path class="a" d="M445.9233,289.5212h2.0147l-.6836,3.2263h3.3945l.6836-3.2263h2.0147l-1.7871,8.3955h-2.0147l.6953-3.2862h-3.3935l-.6953,3.2862h-2.0157Z"/><path class="a" d="M452.8726,296.2135c0-1.3071,1.0068-2.0988,2.6982-2.0988a5.6977,5.6977,0,0,1,1.6191.2519l.0362-.18c.1552-.7556-.252-1.1275-1.2119-1.1275a5.8016,5.8016,0,0,0-1.751.3838l-.4551-1.4392a7.6623,7.6623,0,0,1,2.6377-.54c2.0156,0,3.0107,1.0193,2.6631,2.71l-.792,3.742h-1.8828l.0722-.3479a2.8162,2.8162,0,0,1-1.4873.4079C453.7,297.9767,452.8726,297.2931,452.8726,296.2135Zm2.83.42a2.2482,2.2482,0,0,0,1.0557-.252l.18-.8276a4.0341,4.0341,0,0,0-1.1875-.1919c-.6953,0-1.0791.2519-1.0791.6958C454.6714,296.4174,455.0552,296.6335,455.7026,296.6335Z"/><path class="a" d="M461.103,293.1913h-1.2588l.336-1.6191h1.2588l.3486-1.6311,1.99-.42-.4433,2.051h1.7392l-.3359,1.6191h-1.7393l-.5156,2.3867c-.12.5757.0957.8155.7432.8155a3.04,3.04,0,0,0,.792-.096l-.336,1.5591a6.29,6.29,0,0,1-1.2353.1321c-1.5235,0-2.2071-.7556-1.919-2.1109Z"/><path class="a" d="M468.7,289.5212H471.59a3.748,3.748,0,0,1,3.9219,3.7541,4.795,4.795,0,0,1-4.8213,4.6414h-3.7783Zm1.6309,1.8232-1.0186,4.7493h1.5225a2.5957,2.5957,0,0,0,2.5664-2.6507,2.02,2.02,0,0,0-2.0625-2.0986Z"/><path class="a" d="M477.4839,297.9167h-1.9072l1.3437-6.3445h1.9063Zm-.3125-7.8677a1.2142,1.2142,0,0,1,1.1758-1.1992.9219.9219,0,0,1,.9355.9353,1.2144,1.2144,0,0,1-1.1758,1.1994A.9219.9219,0,0,1,477.1714,290.049Z"/><path class="a" d="M479.5483,295.758a3.3559,3.3559,0,0,0,2.0752.8393c.5635,0,.9229-.2038.9229-.5156,0-.2158-.1914-.36-.5635-.4438l-1.2109-.2637a1.7887,1.7887,0,0,1-1.6192-1.7752c0-1.3193.9834-2.1228,2.59-2.1228a4.4376,4.4376,0,0,1,2.8066.9595l-1.043,1.1753a3.3,3.3,0,0,0-1.8955-.7075c-.4795,0-.7675.1679-.7675.4678,0,.24.18.3837.6474.48l1.2119.2637c1.0557.228,1.667.8635,1.667,1.727,0,1.26-1.1875,2.2068-2.7588,2.2068a4.8317,4.8317,0,0,1-3.1181-1.0435Z"/><path class="a" d="M486.04,291.5722h1.8828l-.0606.2759a2.84,2.84,0,0,1,4.2217,2.5905,3.5445,3.5445,0,0,1-3.55,3.562,2.7406,2.7406,0,0,1-1.8106-.6237l-.66,3.07h-1.9072Zm1.499,1.9668-.4678,2.2068a1.7949,1.7949,0,0,0,1.3906.6,1.7308,1.7308,0,0,0,1.7637-1.739,1.45,1.45,0,0,0-1.499-1.4753A1.8086,1.8086,0,0,0,487.5386,293.539Z"/><path class="a" d="M494.2231,297.9167h-1.9072l1.7871-8.3955,1.9912-.42Z"/><path class="a" d="M495.5562,296.2135c0-1.3071,1.0068-2.0988,2.6982-2.0988a5.6977,5.6977,0,0,1,1.6191.2519l.0362-.18c.1552-.7556-.252-1.1275-1.2119-1.1275a5.8016,5.8016,0,0,0-1.751.3838l-.4551-1.4392a7.6623,7.6623,0,0,1,2.6377-.54c2.0156,0,3.0107,1.0193,2.6631,2.71l-.792,3.742h-1.8828l.0722-.3479a2.8162,2.8162,0,0,1-1.4873.4079C496.3833,297.9767,495.5562,297.2931,495.5562,296.2135Zm2.83.42a2.2482,2.2482,0,0,0,1.0557-.252l.18-.8276a4.0341,4.0341,0,0,0-1.1875-.1919c-.6953,0-1.0791.2519-1.0791.6958C497.355,296.4174,497.7388,296.6335,498.3862,296.6335Z"/><path class="a" d="M503.7876,297.9167l-1.0439-6.3445h2.0273l.5518,4.15,2.5185-4.15h2.0742l-4.4013,6.9922a3.3233,3.3233,0,0,1-3.0225,1.9069,4.1958,4.1958,0,0,1-1.0674-.132l.3477-1.6431a2.1348,2.1348,0,0,0,.6123.072,1.4966,1.4966,0,0,0,1.331-.7436Z"/><path class="a" d="M517.1411,289.5212c1.5469,0,2.5664.8156,2.5664,2.0629a2.4907,2.4907,0,0,1-1.2715,2.0989,1.8174,1.8174,0,0,1,.8877,1.5352c0,1.5351-1.4033,2.6985-3.2383,2.6985H511.54l1.7871-8.3955Zm.1553,5.685c0-.4678-.3477-.7556-.9229-.7556h-2.0752l-.3837,1.7749h2.2187A1.0649,1.0649,0,0,0,517.2964,295.2062Zm-2.3145-3.9939-.3476,1.655h1.9189a1.0035,1.0035,0,0,0,1.0908-.9472c0-.4439-.3232-.7078-.8515-.7078Z"/><path class="a" d="M521.6431,297.9167h-1.9073l1.7871-8.3955,1.9913-.42Z"/><path class="a" d="M522.9761,296.2135c0-1.3071,1.0068-2.0988,2.6982-2.0988a5.6984,5.6984,0,0,1,1.6192.2519l.0361-.18c.1553-.7556-.252-1.1275-1.2119-1.1275a5.8016,5.8016,0,0,0-1.751.3838l-.4551-1.4392a7.6623,7.6623,0,0,1,2.6377-.54c2.0156,0,3.0108,1.0193,2.6631,2.71l-.792,3.742h-1.8828l.0723-.3479a2.8167,2.8167,0,0,1-1.4873.4079C523.8032,297.9767,522.9761,297.2931,522.9761,296.2135Zm2.83.42a2.2481,2.2481,0,0,0,1.0556-.252l.18-.8276a4.0341,4.0341,0,0,0-1.1875-.1919c-.6953,0-1.0791.2519-1.0791.6958C524.7749,296.4174,525.1587,296.6335,525.8062,296.6335Z"/><path class="a" d="M534.5288,295.758l.9834,1.2592a3.62,3.62,0,0,1-2.5185,1.0313,2.9528,2.9528,0,0,1-3.07-3.01,3.5321,3.5321,0,0,1,3.502-3.5859,3.1959,3.1959,0,0,1,2.6621,1.3191l-1.2949,1.1755a1.5645,1.5645,0,0,0-1.3916-.8037,1.6961,1.6961,0,0,0-1.583,1.7871,1.3323,1.3323,0,0,0,1.38,1.4392A1.8307,1.8307,0,0,0,534.5288,295.758Z"/><path class="a" d="M537.6743,289.5212l1.9912-.42-1.1035,5.1811,2.8779-2.71h2.3155l-3.5508,3.19,2.3867,3.1543h-2.29l-1.9317-2.7224-.5752,2.7224h-1.9072Z"/><path class="a" d="M547.13,289.5212h2.0146l-1.7861,8.3955h-2.0156Z"/><path class="a" d="M550.5259,293.1913h-1.2588l.3359-1.6191h1.2588l.3477-1.6311,1.9912-.42-.4434,2.051h1.7393l-.336,1.6191h-1.7392l-.5156,2.3867c-.12.5757.0957.8155.7431.8155a3.04,3.04,0,0,0,.792-.096l-.3359,1.5591a6.2908,6.2908,0,0,1-1.2354.1321c-1.5234,0-2.207-.7556-1.9189-2.1109Z"/><path class="a" d="M554.0552,296.2135c0-1.3071,1.0068-2.0988,2.6982-2.0988a5.6984,5.6984,0,0,1,1.6192.2519l.0361-.18c.1553-.7556-.252-1.1275-1.2119-1.1275a5.8016,5.8016,0,0,0-1.751.3838l-.4551-1.4392a7.663,7.663,0,0,1,2.6387-.54c2.0146,0,3.01,1.0193,2.6621,2.71l-.792,3.742h-1.8828l.0723-.3479a2.8167,2.8167,0,0,1-1.4873.4079C554.8823,297.9767,554.0552,297.2931,554.0552,296.2135Zm2.83.42a2.2481,2.2481,0,0,0,1.0556-.252l.18-.8276a4.0341,4.0341,0,0,0-1.1875-.1919c-.6953,0-1.0791.2519-1.0791.6958C555.854,296.4174,556.2378,296.6335,556.8853,296.6335Z"/><path class="a" d="M562.5386,297.9167h-1.9073l1.7872-8.3955,1.9912-.42Z"/><path class="a" d="M565.6226,297.9167h-1.9073l1.3438-6.3445h1.9062Zm-.3125-7.8677a1.2142,1.2142,0,0,1,1.1757-1.1992.9219.9219,0,0,1,.9356.9353,1.2144,1.2144,0,0,1-1.1758,1.1994A.9219.9219,0,0,1,565.31,290.049Z"/><path class="a" d="M571.7759,295.758l.9834,1.2592a3.62,3.62,0,0,1-2.5186,1.0313,2.9528,2.9528,0,0,1-3.07-3.01,3.5321,3.5321,0,0,1,3.502-3.5859,3.1959,3.1959,0,0,1,2.6621,1.3191l-1.2949,1.1755a1.5635,1.5635,0,0,0-1.3917-.8037,1.6961,1.6961,0,0,0-1.583,1.7871,1.3324,1.3324,0,0,0,1.38,1.4392A1.8311,1.8311,0,0,0,571.7759,295.758Z"/><path class="b" d="M54.1768,137.1115H79.9551c10.3681,0,17.7851,6.6965,17.7851,16.0574a15.4813,15.4813,0,0,1-9.4326,14.1853l11.0166,20.1616H85.499l-9.5049-18.3616H66.5615v18.3616H54.1768Zm12.3847,10.5849v11.377H78.8027c3.8164,0,6.4082-2.3042,6.4082-5.6885s-2.5918-5.6885-6.4082-5.6885Z"/><path class="b" d="M120.3457,188.2358c-11.665,0-20.7383-8.6407-20.7383-19.73a19.5654,19.5654,0,0,1,19.874-19.7295c11.1612,0,19.2256,8.7847,19.2256,20.81v2.88H111.5605a9.8787,9.8787,0,0,0,9.36,6.0486,10.3154,10.3154,0,0,0,7.6328-2.88l7.7051,6.8406A22.9778,22.9778,0,0,1,120.3457,188.2358Zm-9.001-23.9061h15.9131a8.359,8.359,0,0,0-7.9922-6.0485A7.9331,7.9331,0,0,0,111.3447,164.33Z"/><path class="b" d="M172.4727,184.7074a17.1777,17.1777,0,0,1-10.2256,3.3125,19.5528,19.5528,0,1,1,10.081-36.5793V137.1115l11.6651-2.52v52.9246h-11.52Zm-8.209-6.6245a11.2061,11.2061,0,0,0,8.0644-3.0241V161.7375a11.8005,11.8005,0,0,0-8.0644-2.9522,9.6553,9.6553,0,1,0,0,19.2976Z"/><path class="b" d="M205.8057,137.1115H218.19v19.37h20.7373v-19.37h12.3858v50.4043H238.9277v-19.73H218.19v19.73H205.8057Z"/><path class="b" d="M256.709,176.3549c0-7.2727,5.7607-11.449,15.6972-11.449a34.6456,34.6456,0,0,1,8.6407,1.08v-1.8723c0-3.8162-2.4483-5.6885-7.2725-5.6885-3.0244,0-6.5527.936-11.5215,3.0244l-4.1758-8.5688a42.3848,42.3848,0,0,1,17.7852-4.1763c10.585,0,16.7061,5.2564,16.7061,14.4011v24.41H281.0469v-2.3042a17.8253,17.8253,0,0,1-10.5127,2.9521C262.3975,188.1637,256.709,183.34,256.709,176.3549Zm17.0654,3.6a13.8,13.8,0,0,0,7.2725-1.8v-4.8964a27.5536,27.5536,0,0,0-6.9121-.8641c-4.0332,0-6.3369,1.3682-6.3369,3.7444S270.03,179.9552,273.7744,179.9552Z"/><path class="b" d="M303.4385,159.1454h-7.7051v-9.7209h7.7051v-9.7927l11.665-2.52v12.313H325.76v9.7209H315.1035v14.4732c0,3.3842,1.2959,4.6084,5.04,4.6084a16.9578,16.9578,0,0,0,5.2568-.792v9.4328a34.663,34.663,0,0,1-8.1367,1.1521c-9.1446,0-13.8252-4.1045-13.8252-12.0971Z"/><path class="b" d="M344.9092,137.1115h20.4492c14.9053,0,26.6426,11.1609,26.6426,25.3462,0,13.9692-11.7373,25.0581-26.6426,25.0581H344.9092Zm12.3847,10.9448V176.571H365.07a13.9548,13.9548,0,0,0,14.1133-14.1133A14.11,14.11,0,0,0,365.07,148.0563Z"/><path class="b" d="M397.3965,139.4877a6.4087,6.4087,0,1,1,6.4082,6.4085A6.4226,6.4226,0,0,1,397.3965,139.4877Zm12.2412,48.0281h-11.665V149.4245h11.665Z"/><path class="b" d="M419.4277,175.4186c4.8243,2.88,8.4971,4.1045,12.3848,4.1045,3.8164,0,6.2646-1.1521,6.2646-3.0242,0-1.44-1.2236-2.3042-3.8876-2.7363l-7.5606-1.1521c-7.5615-1.1521-11.665-5.1125-11.665-11.3769,0-7.7046,6.1923-12.3851,16.417-12.3851a29.8557,29.8557,0,0,1,15.913,4.6084l-5.5439,7.4886a22.52,22.52,0,0,0-11.5215-3.4563c-3.0244,0-4.9678,1.08-4.9678,2.7363,0,1.584,1.2237,2.3762,4.4639,2.88l7.5606,1.1521c7.4892,1.08,11.7373,5.1126,11.7373,11.0891,0,7.4165-7.2725,12.889-17.1377,12.889-7.2,0-13.5371-1.7281-18.001-4.9683Z"/><path class="b" d="M453.4834,149.4245h11.52v2.8083a17.1767,17.1767,0,0,1,10.2246-3.3122,19.5527,19.5527,0,1,1-10.08,36.5791v17.2094h-11.665Zm11.665,12.457v13.3213a11.8007,11.8007,0,0,0,8.0645,2.9521,9.6553,9.6553,0,1,0,0-19.2976A11.2064,11.2064,0,0,0,465.1484,161.8815Z"/><path class="b" d="M511.8037,187.5158h-11.665V137.1115l11.665-2.52Z"/><path class="b" d="M517.3457,176.3549c0-7.2727,5.7607-11.449,15.6973-11.449a34.6454,34.6454,0,0,1,8.6406,1.08v-1.8723c0-3.8162-2.4482-5.6885-7.2725-5.6885-3.0244,0-6.5527.936-11.5215,3.0244l-4.1757-8.5688a42.384,42.384,0,0,1,17.7851-4.1763c10.585,0,16.7061,5.2564,16.7061,14.4011v24.41H541.6836v-2.3042a17.8253,17.8253,0,0,1-10.5127,2.9521C523.0342,188.1637,517.3457,183.34,517.3457,176.3549Zm17.0654,3.6a13.8,13.8,0,0,0,7.2725-1.8v-4.8964a27.5531,27.5531,0,0,0-6.9121-.8641c-4.0332,0-6.3369,1.3682-6.3369,3.7444S530.667,179.9552,534.4111,179.9552Z"/><path class="b" d="M570.2676,188.02,555.65,149.4245h12.8887l8.4248,23.978,9.7929-23.978h12.6006L582.292,189.46c-4.2481,9.937-9.2168,13.6091-18.3613,13.6091a22.0838,22.0838,0,0,1-4.8243-.4319V192.7a17.344,17.344,0,0,0,3.6006.2878c3.6719,0,6.2637-1.656,7.5606-4.8962Z"/></svg>