<?xml version="1.0" encoding="utf-8"?>
<!-- Generator: Adobe Illustrator 24.3.0, SVG Export Plug-In . SVG Version: 6.00 Build 0)  -->
<svg version="1.1" id="a0964bfe-0719-425d-966b-69eef0455bfa"
	 xmlns="http://www.w3.org/2000/svg" xmlns:xlink="http://www.w3.org/1999/xlink" x="0px" y="0px" viewBox="0 0 360 180"
	 style="enable-background:new 0 0 360 180;" xml:space="preserve">
<style type="text/css">
	.st0{fill:#8C77D1;}
	.st1{fill:#316DC1;}
	.st2{fill:#305DA2;}
	.st3{fill:#FFFFFF;}
</style>
<rect class="st0" width="360" height="180"/>
<rect class="st1" width="360" height="180"/>
<path class="st2" d="M60.4,22.5c-12.3-3.6-20.6,5-31,6.9c0.9,10.1-3.4,20.2,2.8,31.9C45.6,50.6,58.2,41.1,60.4,22.5z M58.8,109.4
	c-0.2-3.3-1-7.5-5.1-6.8c-2.4,0.3-4.9,3.8-6,6.3c-1.5,3.6-1.8,7.7-2.5,11.6c-2.4,13.7-4.7,27.4-7.1,41.1c-2.8-3.1-4-6.4-5.1-9.7
	c-2.3-6.9-4.3-13.8-7-20.5c-1.9-5-4.3-10.6-11-10.3c-6.3,0.2-7.8,5.8-9.4,10.6c-2,5.9-3.8,11.9-5.6,17.8V180h4.8
	c0.4-1.5,0.8-3,1.2-4.5c2.4-9.5,4.7-18.9,7-28.4l1.9,0.3c0.6,1.6,1.2,3.3,1.7,4.9c2.7,9.2,5.2,18.5,8.1,27.7h29.2
	c2.4-16.2,4.4-32.6,5.9-49C60.4,123.9,59.3,116.6,58.8,109.4z M16.5,64c-2.9-21.3-3.8-42.6-4.1-64h15c0.5,6.6,1.1,13.2,1.6,19.8
	C35.3,13.6,40.2,7,44.1,0h11.2c-1.4,2.9-3.1,5.9-5.2,9.8c3.8,0,6.5-0.2,9.2,0c8.7,0.8,14.4,6,14.2,14.6c-0.1,6.1-1.5,12.1-4,17.6
	c-7.6,15.9-20.9,25.6-37,31.6C23.1,77.2,17.8,73.7,16.5,64z M225.7,158.9c-0.7-15.5-2.3-31-3.6-46.5c-0.2-2.5-0.8-5-1.6-7.4
	c-1.1-3.2-3-6.7-6.8-5.4c-2.1,0.7-4.3,3.9-4.6,6.3c-0.8,6.8-1.2,13.7-1.3,20.5c-0.1,5.8,0,11.5,0,18l-19.1,2.6
	c-0.6-2.1-1-4.1-1.4-6.3c-0.9-11.2-1.6-22.4-2.5-33.5c-0.3-2.9-0.8-5.7-1.7-8.4c-1.2-3.8-4.1-6.8-8-5.5c-2.5,0.8-4.4,4.1-5.8,6.8
	c-0.9,1.8-0.7,4.3-0.5,6.4c1.7,24.5,3.4,49,5.1,73.4h13.9c0.1-6.9,0.2-13.8,0.3-20.6c4.3-1.2,7.4-2.2,10.6-2.8c3-0.6,6-0.8,9-1.2
	c1.5,8.5,2.9,16.7,4.3,24.7h14.1C226,173,226,165.9,225.7,158.9z M105.6,160.2c4.7-2.1,11.4-1.8,13.6-9.6l-30.7,4.2
	c-1.6-10.7-2.9-20.2-4.4-30l12.2-2.5c7.1-1.4,14.3-2.7,21.3-4.3c4-0.9,7.6-2.5,7-7.7c-8.8-2.7-29.2-3-40.9-0.7
	c-11.9,2.3-15.3,5.9-15.1,18.5c0.2,15.9,1,31.8,2.1,47.7c0.1,1.4,0.3,2.8,0.6,4.2H90c-0.6-4.9-1-9.3-1.6-13.8
	C94.8,164,100.4,162.5,105.6,160.2z M84,59.3c2.5,7,8,11.3,15.2,12.5c12.8,2.2,25.2-0.4,37.2-5.1c2.1-0.8,4.6-4.4,4.4-6.4
	c-0.2-1.9-3.5-4.8-5.7-5.1c-7.5-1.1-15.1-1.3-22.7-1.7c-3.8-0.2-7.7,0-12.2,0C99.4,46.2,98.8,40.3,98,34c6.4-2.2,12-3.6,17.2-6
	c4.7-2.1,11.4-1.8,13.6-9.6l-30.7,4.2C97,14.6,95.9,7.3,94.8,0H78.3c0.3,14.5,1,29.1,2,43.6C80.6,48.9,82.2,54.3,84,59.3z
	 M282.3,132.1c3.2,16,6.4,31.9,9.6,47.9h-50.2c4.6-14.9,9.2-29.9,13.9-44.8c1.2-3.8,3.3-7.2,5.3-10.7c2.2-3.9,5-7.5,10-7
	c4.9,0.5,7.3,4.3,9.1,8.4C281,127.9,281.8,130,282.3,132.1z M274.7,172.8c-2.2-11-4-20.4-5.8-29.7l-2.5-0.1
	c-2.5,8.8-5,17.6-7.8,27.6L274.7,172.8z M351.8,121.7c-14.1-12.3-30.8-17.1-49.4-14.9c-2.8,0.3-5.4,2.2-8.5,3.6
	c7.9,9,7.9,9,8.3,21.1c0.5,15.5,1.1,31.1,1.9,46.6c0,0.7,0.1,1.3,0.1,1.9h12.1c-0.5-7.4-1.1-14.8-1.4-22.2
	c-0.6-12.9-0.9-25.8-1.4-39.9c13.2,2.8,24.6,7.9,32.2,19.1c2.3,3.6,3.7,7.8,3.9,12.1c0.5,12.5-8.9,25.2-21.7,30.9h25.4
	c2.6-2.8,4.9-5.9,6.7-9.3v-39.3C357.9,127.9,355.1,124.7,351.8,121.7z M274.1,64.6c6.3,10.4,15.4,10.5,22.2,0.4
	c2.4-3.7,4.3-7.8,5.6-12.1c5.4-17.3,7.8-35,7.7-52.9h-13.8c-0.2,3.3-0.4,6.7-0.8,10c-1.4,15.2-2.8,30.4-10.5,46.6
	c-2.4-7-4.5-11.8-5.5-16.8c-2.6-13.3-4.9-26.5-7.3-39.8h-14c2,16.9,5.4,33.6,10.2,50C269.4,55.1,271.5,60,274.1,64.6z M348.1,29.2
	c-6,4.9-13,6.3-20.3,2.9c-2.6-1.2-4.8-3.4-7.4-4.4c-1.7-0.7-4.6-0.8-5.6,0.3c-1,1.1-1.1,4.1-0.4,5.7c2.6,5.7,7.6,10,13.5,11.8
	c12.1,3.9,23,1.3,32.2-6.3V0h-13.4c2.1,3.7,3.9,7.5,5.5,11.4C354.8,17.9,353.7,24.5,348.1,29.2z M146.3,30.3
	c1.2,9.8,3.5,19.2,9.4,27.4c7.3,10.2,16.9,12,27.3,5.1c5.3-3.5,9.2-7.8,11.7-12.8c2.5-0.6,4.9-3.2,6.9-7.8c2.3-5.3,3.7-11,6.1-16.2
	c1.1-2.4,3.2-5.1,5.5-5.9c5-1.7,10.4-2.3,15.8-3.4c1.1,2.7,1.9,4.3,2.5,6c3,8.5,5.7,17,9.1,25.3c0.8,1.9,3.8,4,5.5,4
	c1.8-0.1,4.7-2.7,4.9-4.5c0.7-4.7,0.6-9.4-0.4-14c-2.7-11.2-5.5-22.4-8.4-33.5h-16.9c0.6,2.6,1.2,5.2,1.9,8l-13.4,2.3
	c0.1-3.7,0.7-7.1,1.6-10.3H201c-3.8,10.7-7.6,21.4-11.4,32.1c-0.7,1.7-1.2,3.4-1.5,5.2c-0.2,1.2-0.5,2.4-0.6,3.6
	c-1,2-2.1,3.9-3.5,5.6c-8.1,9.5-16,8.4-20.2-3.3c-5-14.1-5.4-28.3-2.5-43.2h-14.1C145.4,10,145.1,20.2,146.3,30.3z"/>
<path class="st3" d="M179.3,81.4c-0.5,2-0.9,3.9-1.4,5.9c-0.2,0.8-0.4,1.6-0.7,2.4c-0.4,1-0.9,2-2.2,1.9s-1.7-1.1-2-2.2
	c-0.3-0.8-0.4-1.6-0.5-2.4c-0.2-3.6-0.4-7.2-0.5-10.8c-0.1-0.4,0-0.8,0.1-1.1c0.3-0.4,0.7-0.7,1.1-0.9c0.3,0,0.8,0.4,0.9,0.8
	c0.2,0.9,0.4,1.9,0.5,2.9c0.2,2.3,0.5,4.7,0.9,7c0.2-0.4,0.4-0.9,0.6-1.3c0.6-1.8,1.1-3.6,1.7-5.4c0.3-1,0.6-2.2,1.9-2.2
	s1.9,1.1,2.3,2.2c0.6,1.4,1,2.8,1.4,4.3c0.2,0.7,0.6,1.4,1.1,2l1.5-8.5c0.1-0.8,0.3-1.6,0.5-2.4c0.2-0.5,0.8-1.2,1.2-1.3
	c0.9-0.1,1,0.7,1.1,1.4c0.2,1.5,0.3,3,0.2,4.5c-0.3,3.6-0.8,7.2-1.3,10.7c-0.2,1.5-0.8,3.1-2.6,3.2s-2.5-1.4-3-2.8
	c-0.8-2.2-1.3-4.5-2-6.7c-0.1-0.3-0.2-0.7-0.4-1L179.3,81.4z"/>
<path class="st3" d="M69,73.6c1.7-0.6,3.2-1.3,4.8-1.8c2.2-0.6,3.4,0.6,2.9,2.8c-0.3,1.2-0.8,2.3-1.3,3.3c-0.3,0.7-0.7,1.4-1.3,2.5
	c0.8,0,1.4,0,1.9,0c1.6-0.1,2.9,1.2,3,2.8c0,0.1,0,0.1,0,0.2c0,1.3-0.3,2.5-0.8,3.7c-1.6,3.1-4.3,5.5-7.7,6.6c-2,0.7-3.1,0-3.3-2
	c-0.7-6.1-1-12.3-0.9-18.5c0-0.6,0.3-1.2,0.7-1.6c0.8-0.4,1.3,0.3,1.6,1.1C68.7,72.9,68.8,73.2,69,73.6z M70.4,91.1
	c2.8-2.2,5.4-4.2,5.9-8.1c-2.6-0.8-4.3,1-6.4,1.4C70,86.6,69.1,88.7,70.4,91.1L70.4,91.1z M74.5,74.4l-0.4-0.5
	c-1.3,0.4-2.7,0.8-3.9,1.4c-0.5,0.2-0.8,0.6-0.9,1.1c0.1,2,0.3,4.1,0.4,6.1C72,80.2,73.6,77.4,74.5,74.4L74.5,74.4z"/>
<path class="st3" d="M221.1,81.4l4-0.5c0-1.4,0-2.6,0-3.7c0-1.4,0.1-2.9,0.3-4.3c0.1-0.6,0.5-1.1,1-1.3c0.8-0.3,1.2,0.4,1.4,1.1
	c0.2,0.5,0.3,1,0.3,1.5c0.3,3.2,0.6,6.4,0.7,9.7c0.1,2.7,0,5.4,0,8.1c0,0.7-0.1,1.5-0.9,1.6s-1.1-0.6-1.3-1.3c-0.5-3-1-5.9-1.6-9.1
	c-0.6,0.1-1.2,0.1-1.9,0.2s-1.3,0.3-2.2,0.6c0,2.2-0.1,4.5-0.1,6.7c0.1,0.7,0,1.3-0.1,2c-0.1,0.5-0.5,1-1,1.3
	c-0.8,0.2-1.2-0.5-1.3-1.2c-0.1-0.5-0.2-1-0.3-1.6c-0.4-6.1-0.9-12.1-1.3-18.2c-0.1-0.4,0-0.9,0.1-1.3c0.3-0.5,0.7-1.2,1.2-1.4
	c0.8-0.3,1.4,0.3,1.7,1.1c0.2,0.6,0.3,1.2,0.4,1.8c0.2,2.3,0.3,4.7,0.5,7C220.9,80.6,220.9,81,221.1,81.4z"/>
<path class="st3" d="M282.2,84.6c0.4-2,0.7-4.1,1.3-6.1c0.3-1,0.8-2,1.4-2.8c1.5-2.1,3-2.2,4.9-0.6c3.9,3.3,5.2,10.2,2.9,14.7
	c-0.1,0.2-0.2,0.4-0.3,0.6c-1.2,1.8-2.6,3.2-4.9,3s-3.6-1.8-4.2-3.9C282.8,87.9,282.5,86.2,282.2,84.6z M287.3,78
	c-1.9,4.3-1.7,9.6,0.5,11.9c2.2-1.5,2.7-3.8,2.8-6.2c0.2-2-0.4-4.1-1.5-5.8L287.3,78z"/>
<path class="st3" d="M202.5,73.8c0.1,1.1-0.6,1.4-1.4,1.6c-1.5,0.3-2.9,0.6-4.4,0.9l-2.6,0.5L195,83l6.4-0.9c-0.5,1.6-1.9,1.6-2.8,2
	s-2.3,0.9-3.6,1.3l0.5,4.1c0.9,0,1.8,0,2.6,0c1.6,0.1,3.1,0.1,4.7,0.3c0.5,0.1,1.1,0.7,1.2,1.1c-0.1,0.6-0.4,1.1-0.9,1.3
	c-2.4,1.1-5.1,1.4-7.7,1.1c-1.5-0.2-2.7-1.2-3.2-2.6c-0.4-1-0.7-2.1-0.8-3.3c-0.2-3.3-0.4-6.6-0.4-9.9c0-2.6,0.7-3.4,3.1-3.8
	C196.8,73.2,199.7,73.2,202.5,73.8z"/>
<path class="st3" d="M91.6,73.8c0.1,1.1-0.6,1.4-1.4,1.6c-1.5,0.3-3,0.6-4.4,0.9l-2.6,0.5l0.9,6.2l6.4-0.9c-0.5,1.6-1.9,1.6-2.8,2
	s-2.2,0.8-3.6,1.2l0.5,4.1c1,0,1.7,0,2.5,0c1.6,0.1,3.2,0.1,4.7,0.3c0.6,0.1,1,0.5,1.2,1.1c-0.1,0.6-0.4,1.1-0.9,1.3
	c-2.4,1.1-5.1,1.4-7.7,1.1c-1.5-0.2-2.7-1.2-3.2-2.6c-0.4-1-0.7-2.1-0.8-3.3c-0.2-3.3-0.4-6.6-0.4-9.9c0-2.6,0.7-3.4,3.2-3.8
	C85.9,73.2,88.8,73.2,91.6,73.8z"/>
<path class="st3" d="M146.7,81c3.1-0.4,5.9-1,8.9-0.8c0,1-0.6,1.1-1.1,1.3c-1.5,0.4-3.1,0.8-4.6,1.2c-0.9,0.3-1.8,0.7-2.6,1.1
	c0.4,3,1.2,3.6,3.9,3.4c1-0.1,1.9-0.4,2.9-0.5c0.6,0,1.2,0.2,1.7,0.7c0.3,0.6,0.1,1.4-0.5,1.7c-0.1,0-0.2,0.1-0.3,0.1
	c-1.6,0.8-3.3,1.5-5,2c-1.9,0.5-3.9-0.2-5-1.9c-0.8-1.1-1.4-2.3-1.8-3.6c-0.8-3.5-0.8-7,0-10.5c0.3-1.8,0.9-1.9,2.5-1.2
	c0.5,0.2,1.1,0.2,1.7,0.1c1.9-0.3,3.7-0.8,5.5-1.1c0.8-0.1,1.6-0.2,2.4-0.2c0.4,1.3-0.6,1.4-1.2,1.7c-1.6,0.5-3.3,1-5,1.5
	c-0.8,0.2-1.6,0.5-2.7,0.9C146.5,78.2,146.6,79.5,146.7,81z"/>
<path class="st3" d="M239.7,88.8H235c-0.4,1.4-0.9,2.8-1.3,4.1c-0.2,0.7-0.4,1.3-0.8,1.8c-0.4,0.4-0.9,0.7-1.5,0.7
	c-0.4-0.1-0.7-0.8-0.9-1.3c-0.1-0.4,0-0.8,0.1-1.1c1.4-4.7,2.9-9.3,4.3-14c0.3-0.8,0.7-1.5,1.1-2.2c0.5-0.8,1-1.6,2.1-1.4
	s1.5,0.9,1.9,1.8c0.2,0.4,0.4,0.8,0.5,1.3c1,5.2,2.1,10.3,3.1,15.5c0.1,0.3,0.1,0.6,0,0.9c-0.3,0.5-0.6,1.1-1,1.6
	c-0.4-0.4-0.7-0.8-1-1.3C241,93,240.4,91,239.7,88.8z M235.6,86.3l3.4,0.4l-1.2-6.2h-0.5L235.6,86.3z"/>
<path class="st3" d="M243,73.8c0.6-0.3,1.2-0.6,1.8-0.8c3.7-0.5,7.4,0.6,10.2,3.1c2.8,2.3,3.6,6.2,2.1,9.4c-1.5,3.5-5.3,6-8.7,5.7
	c-2.4-0.2-3.1-0.9-3.3-3.4c-0.2-3.2-0.3-6.5-0.4-9.7C244.6,75.7,244.6,75.7,243,73.8z M247.7,88.9c3.8-0.3,7-3.7,6.9-7
	c0-0.9-0.3-1.8-0.8-2.5c-1.6-2.3-3.9-3.4-6.7-4c0.1,2.9,0.2,5.6,0.3,8.3C247.4,85.4,247.6,87.2,247.7,88.9L247.7,88.9z"/>
<path class="st3" d="M111.3,81.8c-1.1,0.2-2.2,0.4-3.3,0.7c-0.5,0.3-0.9,0.7-1.2,1.2c-0.5,1.1-0.8,2.3-1.3,3.4
	c-0.6,1.4-1.3,1.9-2.1,1.5c-1.2-0.6-0.9-1.6-0.7-2.6c0.1-0.4,0.2-0.7,0.3-1.1c1.5-4.1,2.9-8.2,4.4-12.3c0.2-0.5,0.4-1,0.6-1.4
	c1-1.9,2.6-2,3.7,0c0.3,0.5,0.6,1.1,0.7,1.6c1.1,4.2,2.2,8.3,3.2,12.5c0.2,1,0.2,1.9,0.1,2.9c-0.2,0.5-0.5,0.8-1,0.9
	c-0.5-0.1-0.9-0.4-1.1-0.8c-0.7-1.7-1.3-3.5-1.9-5.3C111.7,82.7,111.6,82.4,111.3,81.8z M109.8,75.3c-1,1.6-1.6,3.4-1.7,5.2l2.8-0.5
	L109.8,75.3z"/>
<path class="st3" d="M273.6,74.8c-2.2,0-4.4,0-6.6,0c-0.7,0-1.3-0.1-1.9-0.4c-0.5-0.3-0.8-0.8-0.8-1.4c0-0.4,0.6-0.9,1.1-1.2
	c0.4-0.2,0.9-0.2,1.3-0.2c5.5-0.1,11-0.2,16.5-0.3c0.7,0,1.8-0.3,1.9,0.7c0.2,1.2-0.9,1.4-1.8,1.5c-1.9,0.3-3.9,0.5-5.8,0.7
	c-0.4,0.1-0.8,0.2-1.2,0.3c1.7,5.5,0.9,11.1,1.1,16.6c0,0.4,0,0.8-0.1,1.1c-0.1,0.3-0.5,0.7-0.7,0.7c-0.4,0-0.8-0.2-1.1-0.5
	c-0.3-0.6-0.4-1.3-0.5-1.9c-0.4-5-0.7-10-1.1-15.1C273.8,75.2,273.7,75,273.6,74.8z"/>
<path class="st3" d="M127,70.8c0.3,0.7,0.6,1.4,0.8,2.2c0.8,5.5,0.4,11.1-1.2,16.3c-0.3,0.9-0.7,1.7-1.2,2.5
	c-1.4,2.1-3.3,2.1-4.6-0.1c-0.6-0.9-1-2-1.3-3C118,84,117.2,79,116.9,74c-0.1-1-0.5-2.6,0.9-2.8s1.3,1.4,1.5,2.4
	c0.8,4.3,1.5,8.6,2.3,12.9c0.3,1.2,0.7,2.3,1.2,3.5c1.3-3.1,2.1-6.4,2.2-9.7c0.2-2.4,0.3-4.8,0.5-7.2
	C125.6,72.3,125.5,71.2,127,70.8z"/>
<path class="st3" d="M138.8,70.3l-4.6,1.7l2,1.8c1.9,1.6,3.2,3.6,4,5.9c0.7,2.3,0.7,4.7-1.2,6.5c-1.9,1.9-4.6,2.5-7.1,1.7
	c-1.3-0.4-2.3-1.2-2.9-2.4c-0.2-0.4-0.1-0.8,0.1-1.2c0.2-0.2,0.8-0.2,1.2-0.1c0.6,0.2,1,0.7,1.6,0.9c1.4,0.7,3.1,0.4,4.2-0.6
	c1.1-0.9,1.5-2.4,0.8-3.7c-0.5-1.3-1.2-2.6-2-3.8c-0.6-0.8-1.4-1.6-2.1-2.3c-1.7-1.8-1.6-3.3,0.6-4.6c1.1-0.5,2.2-0.9,3.4-1.1
	c0.8-0.3,1.7,0.2,2,1C138.8,70.1,138.8,70.2,138.8,70.3z"/>
<path class="st3" d="M97.6,76.8c-1.1,3.5-1,7.2,0.1,10.6c0.9,2.4,2.5,2.7,4.2,0.7c0.4-0.6,0.8-1.3,1.1-1.9l1.2-2
	c0.4,0.7,0.7,1.1,0.7,1.4c0,2.4-1.2,4.6-3.2,5.9c-2.2,1.4-4.2,1.1-5.7-1.1c-1.1-1.7-1.8-3.7-2-5.7c-0.4-2.9-0.1-5.9,0.8-8.7
	c0.2-0.7,0.6-1.4,1-2c0.6-1.1,2-1.5,3.1-0.8c0,0,0,0,0.1,0c1.1,0.8,1.6,2.3,1.2,3.6C99.8,77.5,99.3,77.5,97.6,76.8z"/>
<path class="st3" d="M167.3,114.1c-0.2,0.7-0.4,1.3-0.6,2c-0.1,0.4-0.3,0.9-0.5,1.3c-0.2,0.4-0.6,0.7-1.1,0.7c-0.5,0-0.9-0.3-1-0.7
	c-0.2-0.5-0.4-1.1-0.5-1.6c-0.1-0.3-0.2-0.7-0.3-1.2c-0.1,0.3-0.2,0.5-0.3,0.7l-0.6,2.1c-0.1,0.2-0.1,0.3-0.2,0.5
	c-0.1,0.3-0.3,0.5-0.7,0.4c-0.3-0.1-0.5-0.4-0.4-0.7c0-0.3,0.1-0.7,0.1-1c0.4-1.6,0.8-3.2,1.2-4.8c0-0.2,0.1-0.3,0.1-0.4
	c0.2-0.4,0.4-0.8,0.9-0.8c0.4,0,0.8,0.4,0.9,0.8c0.2,0.9,0.4,1.9,0.6,2.8c0,0.2,0.1,0.4,0.2,0.8c0.4-1,0.7-1.9,1-2.7
	c0.2-0.6,0.5-1.1,0.8-1.6c0.2-0.4,0.6-0.7,1-0.6c0.5,0.1,0.8,0.4,0.9,0.9c0.1,0.3,0.2,0.6,0.2,0.9c0.2,1.6,0.4,3.2,0.6,4.8
	c0,0.5,0,1-0.2,1.5c0,0.2-0.3,0.5-0.4,0.5c-0.3,0-0.5-0.1-0.7-0.3c-0.2-0.3-0.4-0.6-0.5-1c-0.2-0.7-0.3-1.4-0.4-2.1
	c-0.1-0.3-0.1-0.6-0.1-1H167.3z"/>
<path class="st3" d="M232.6,114.8c0.3-0.9,0.6-1.6,0.8-2.3s0.5-1.2,0.8-1.7c0.1-0.4,0.6-0.7,1-0.5c0.3,0.1,0.5,0.4,0.6,0.7
	c0.2,0.7,0.3,1.3,0.4,2c0.1,1,0.1,2,0.1,3.1c0,0.3,0.1,0.7,0.1,1s0,0.7-0.4,0.8s-0.6-0.2-0.7-0.5c-0.4-1-0.7-2.1-0.7-3.3
	c0-0.3-0.1-0.6-0.2-0.8c-0.1,0.4-0.3,0.9-0.4,1.3s-0.4,1.1-0.6,1.7c-0.1,0.4-0.5,0.7-0.9,0.7c-0.5,0-0.7-0.4-0.8-0.8
	c-0.2-0.8-0.4-1.6-0.6-2.6c-0.2,0.7-0.3,1.1-0.4,1.6s-0.3,1.2-0.5,1.8c-0.1,0.3-0.2,0.6-0.6,0.5s-0.4-0.4-0.4-0.7
	c0.1-0.9,0.3-1.8,0.5-2.8s0.5-1.7,0.7-2.5c0-0.2,0.1-0.4,0.2-0.6c0.2-0.2,0.4-0.4,0.6-0.4c0.3,0.1,0.5,0.2,0.6,0.5
	c0.2,0.4,0.3,0.9,0.3,1.3c0.1,0.7,0.1,1.3,0.2,2C232.5,114.3,232.5,114.5,232.6,114.8z"/>
<path class="st3" d="M134,115.8c0.3-0.9,0.6-1.6,0.8-2.3s0.5-1.2,0.8-1.7c0.1-0.4,0.6-0.7,1-0.5c0.3,0.1,0.5,0.4,0.6,0.7
	c0.2,0.7,0.3,1.3,0.4,2c0.1,1,0.1,2,0.1,3.1c0,0.3,0.1,0.7,0.1,1s0,0.7-0.4,0.8s-0.6-0.2-0.7-0.5c-0.4-1-0.7-2.1-0.7-3.2
	c0-0.3-0.1-0.6-0.2-0.8c-0.1,0.4-0.3,0.9-0.4,1.3s-0.4,1.1-0.6,1.7c-0.1,0.4-0.5,0.7-0.9,0.7c-0.4,0-0.7-0.4-0.8-0.8
	c-0.2-0.8-0.4-1.6-0.6-2.6c-0.2,0.7-0.3,1.1-0.4,1.6s-0.3,1.2-0.5,1.7c-0.1,0.3-0.2,0.6-0.6,0.5s-0.4-0.4-0.4-0.7
	c0.1-0.9,0.3-1.8,0.5-2.8s0.5-1.7,0.7-2.5c0-0.2,0.1-0.4,0.2-0.6c0.2-0.2,0.4-0.4,0.6-0.4c0.3,0.1,0.5,0.2,0.6,0.5
	c0.2,0.4,0.3,0.9,0.3,1.3c0.1,0.7,0.1,1.3,0.2,2C133.9,115.4,133.9,115.6,134,115.8z"/>
<path class="st3" d="M158.5,117.2c0.1-0.7,0.2-1.3,0.3-1.9c0.1-1.3,0.2-2.5,0.4-3.8c0-0.4,0.1-0.8,0.3-1.1c0.1-0.2,0.3-0.3,0.6-0.4
	c0.2,0.1,0.5,0.2,0.6,0.4c0.1,0.3,0.2,0.6,0.2,0.9c0.1,2-0.1,4-0.6,6c-0.1,0.5-0.3,1-0.6,1.4c-0.2,0.5-0.7,0.8-1.3,0.7
	c-0.3-0.1-0.6-0.3-0.7-0.7c-0.6-0.9-0.9-1.9-1-3c-0.1-1.3-0.2-2.7-0.3-4.1c0-0.1,0-0.2,0-0.4c0-0.3,0.1-0.6,0.5-0.7s0.6,0.3,0.6,0.6
	c0.1,0.8,0.1,1.6,0.2,2.3s0.2,1.8,0.4,2.7c0.1,0.3,0.1,0.6,0.2,0.8L158.5,117.2z"/>
<path class="st3" d="M197.1,114.3c0.4,0.3,0.8,0.7,1.2,1.1c0.4,0.5,0.8,0.9,1.2,1.5c0.2,0.3,0.2,0.8-0.2,1c0,0,0,0,0,0
	c-0.3,0.2-0.8,0.1-1-0.2l-2-1.9c0,0.4,0.1,0.8,0.1,1.2c0,0.3,0,0.5-0.1,0.8c-0.1,0.3-0.4,0.4-0.6,0.5c-0.3-0.1-0.5-0.2-0.7-0.5
	c-0.1-0.3-0.2-0.7-0.2-1c-0.1-1.4-0.2-2.9-0.3-4.3c0-0.3,0-0.5,0.1-0.8c0.1-0.2,0.2-0.3,0.4-0.4c0.1,0,0.3,0.2,0.4,0.3
	c0.1,0.2,0.2,0.4,0.3,0.6c0.2-0.2,0.3-0.5,0.5-0.7c0.3-0.3,0.7-0.6,1.1-0.8c0.6-0.3,1.4-0.1,1.7,0.6c0.1,0.3,0.2,0.6,0.1,0.9
	c-0.1,0.5-0.4,1-0.8,1.4C197.9,113.8,197.5,114,197.1,114.3z M197.6,111.8c-0.9,0.1-1.5,0.8-1.6,1.7
	C197.1,113.2,197.5,112.7,197.6,111.8z"/>
<path class="st3" d="M121.7,114.6c0.4,0.4,0.9,0.7,1.2,1.1c0.4,0.5,0.8,0.9,1.2,1.5c0.2,0.3,0.1,0.8-0.2,1c0,0,0,0,0,0
	c-0.3,0.2-0.8,0.1-1-0.2l-2-1.9c0,0.3,0.1,0.8,0.1,1.2c0,0.3,0,0.5-0.1,0.8c-0.1,0.3-0.4,0.4-0.7,0.5c-0.3,0-0.5-0.2-0.7-0.5
	c-0.1-0.3-0.2-0.7-0.2-1c-0.1-1.4-0.2-2.9-0.3-4.3c0-0.3,0-0.5,0.1-0.8c0.1-0.2,0.2-0.3,0.4-0.4c0.1,0,0.3,0.2,0.4,0.3
	c0.1,0.2,0.2,0.4,0.3,0.6c0.2-0.2,0.3-0.5,0.5-0.7c0.3-0.3,0.6-0.6,1-0.8c0.6-0.3,1.4-0.1,1.7,0.6c0.1,0.3,0.2,0.6,0.1,0.9
	c-0.1,0.5-0.4,1-0.8,1.4C122.5,114,122.1,114.2,121.7,114.6z M122.2,112c-0.9,0.1-1.5,0.9-1.6,1.7
	C121.7,113.4,122.1,112.9,122.2,112L122.2,112z"/>
<path class="st3" d="M245.5,112.5c-0.5,0.1-1,0.2-1.4,0.2c-0.3,0-0.7,0-1,0c-0.3,0-0.6-0.2-0.6-0.5c-0.1-0.3,0.1-0.6,0.4-0.7
	c0.4-0.2,0.7-0.3,1.1-0.4c1.7-0.3,3.5-0.6,5.2-0.9c0.3-0.1,0.7-0.1,1,0c0.2,0,0.4,0.3,0.5,0.4c-0.1,0.2-0.3,0.4-0.4,0.5
	c-0.7,0.3-1.5,0.5-2.2,0.7l-0.9,0.3c0.1,2,0.2,3.9,0.4,5.8c0,0.3,0.1,0.7-0.3,0.8s-0.6-0.2-0.8-0.5c-0.1-0.2-0.2-0.5-0.3-0.8
	c-0.2-1.4-0.5-2.9-0.7-4.4C245.6,112.8,245.6,112.7,245.5,112.5z"/>
<path class="st3" d="M215.1,112.3c-0.5,0.1-1,0.2-1.4,0.2c-0.3,0-0.7,0-1,0c-0.4,0-0.6-0.3-0.6-0.7c0-0.3,0.2-0.5,0.4-0.6
	c0.4-0.2,0.7-0.3,1.1-0.4c1.7-0.3,3.5-0.6,5.2-0.9c0.3-0.1,0.7-0.1,1,0c0.2,0,0.4,0.3,0.5,0.4c-0.1,0.2-0.3,0.4-0.4,0.5
	c-0.7,0.2-1.5,0.4-2.2,0.7l-0.9,0.3c0.1,2,0.2,3.9,0.4,5.8c0,0.3,0.1,0.7-0.3,0.8s-0.6-0.2-0.8-0.5c-0.1-0.2-0.2-0.5-0.3-0.8
	c-0.2-1.4-0.5-2.9-0.7-4.4C215.1,112.7,215.1,112.6,215.1,112.3z"/>
<path class="st3" d="M242.1,110.4c0.1,0.4-0.2,0.6-0.6,0.6c-0.6,0.1-1.2,0.2-1.8,0.4l-1,0.2l0.4,2.5l2.6-0.3
	c-0.2,0.7-0.7,0.6-1.1,0.8s-0.9,0.3-1.4,0.5l0.2,1.6c0.4,0,0.7,0,1,0c0.6,0,1.3,0,1.9,0.1c0.2,0,0.4,0.2,0.5,0.4
	c0,0.2-0.2,0.4-0.4,0.5c-1,0.4-2,0.6-3.1,0.4c-0.6-0.1-1.1-0.5-1.3-1c-0.2-0.4-0.3-0.9-0.3-1.3c-0.1-1.3-0.2-2.7-0.2-4
	c0-1.1,0.3-1.3,1.3-1.6C239.8,110.1,240.9,110.1,242.1,110.4z"/>
<path class="st3" d="M126.3,113.2c1.2-0.2,2.4-0.3,3.6-0.3c0,0.4-0.2,0.4-0.5,0.5c-0.6,0.2-1.2,0.3-1.8,0.5c-0.4,0.1-0.7,0.3-1,0.4
	c0.2,1.2,0.5,1.5,1.6,1.4c0.4,0,0.8-0.2,1.2-0.2c0.3,0,0.5,0.1,0.7,0.3c0.1,0.3,0,0.6-0.2,0.7c0,0-0.1,0-0.1,0
	c-0.6,0.3-1.3,0.6-2,0.8c-0.8,0.2-1.6-0.1-2-0.8c-0.3-0.4-0.6-0.9-0.7-1.4c-0.3-1.4-0.3-2.8,0-4.2c0.1-0.7,0.3-0.8,1-0.5
	c0.2,0.1,0.5,0.1,0.7,0c0.7-0.1,1.5-0.3,2.2-0.5c0.3-0.1,0.6,0,1-0.1c0.2,0.5-0.2,0.6-0.5,0.7c-0.6,0.2-1.3,0.4-2,0.6
	c-0.3,0.1-0.6,0.2-1.1,0.3L126.3,113.2z"/>
<path class="st3" d="M173.7,110.6c0.2-0.1,0.5-0.2,0.7-0.3c1.5-0.2,3,0.2,4.1,1.2c1.1,0.9,1.5,2.5,0.8,3.8c-0.6,1.4-2,2.3-3.5,2.3
	c-1-0.1-1.3-0.4-1.3-1.3c-0.1-1.3-0.1-2.6-0.2-3.9C174.5,111.6,174.2,111,173.7,110.6z M175.6,116.6c1.5-0.1,2.7-1.3,2.8-2.8
	c0-0.4-0.1-0.7-0.3-1c-0.6-0.9-1.6-1.5-2.7-1.6c0,1.2,0.1,2.2,0.1,3.3C175.5,115.2,175.5,115.9,175.6,116.6z"/>
<path class="st3" d="M226.7,115.3c-0.4,0.1-0.9,0.2-1.3,0.3c-0.2,0.1-0.4,0.3-0.5,0.5c-0.2,0.4-0.3,0.9-0.5,1.3s-0.5,0.8-0.9,0.6
	c-0.5-0.2-0.4-0.6-0.3-1c0-0.1,0.1-0.3,0.1-0.4c0.6-1.7,1.2-3.3,1.8-4.9c0.1-0.2,0.2-0.4,0.3-0.6c0.4-0.8,1-0.8,1.5,0
	c0.1,0.2,0.2,0.4,0.3,0.7c0.4,1.7,0.9,3.3,1.3,5c0.1,0.4,0.1,0.8,0,1.2c-0.1,0.2-0.2,0.3-0.4,0.4c-0.2,0-0.4-0.2-0.5-0.3
	c-0.3-0.7-0.5-1.4-0.8-2.1C226.9,115.7,226.8,115.5,226.7,115.3z M226.1,112.7c-0.4,0.6-0.6,1.3-0.7,2.1l1.1-0.2L226.1,112.7z"/>
<path class="st3" d="M147.8,116.3c-0.1,0.8-0.1,1.6-0.1,2.5c0,0.3,0,0.6-0.1,0.8c-0.1,0.2-0.2,0.4-0.4,0.4c-0.2,0-0.4-0.1-0.5-0.3
	c-0.1-0.2-0.2-0.5-0.2-0.7c-0.2-2.3-0.3-4.7-0.1-7c0.1-0.9,0.2-1,1-1.1c0.6-0.1,1.3-0.1,1.9,0c0.8,0.1,1.4,0.7,1.6,1.4
	c0.2,0.8,0,1.6-0.6,2.2c-0.6,0.5-1.3,1-2,1.5C148.1,116.2,147.9,116.2,147.8,116.3z M147.8,115c0.6-0.4,1.1-1,1.5-1.7
	c0.2-0.4,0.1-0.7-0.3-0.8c-0.4-0.3-0.9-0.3-1.4-0.2L147.8,115z"/>
<path class="st3" d="M204.9,116.6c0.7,0.2,1.3,0.4,1.9,0.5c0.8,0.1,1-0.2,0.7-0.9c-0.2-0.4-0.5-0.8-0.8-1.2
	c-0.5-0.7-1.1-1.2-1.5-1.9c-0.5-0.5-0.5-1.3,0-1.8c0.2-0.2,0.5-0.3,0.8-0.4c0.6-0.2,1.3-0.1,1.8,0.3c0.2,0.2,0.4,0.4,0.5,0.7
	c0.2,0.5-0.2,0.8-0.6,0.6c-0.5-0.3-1-0.3-1.5-0.2c0.3,0.3,0.5,0.6,0.8,0.9c0.6,0.7,1.1,1.3,1.6,2.1c0.3,0.4,0.4,0.9,0.5,1.4
	c0.1,0.9-0.4,1.7-1.3,1.8c-0.2,0-0.4,0-0.6,0c-0.7-0.2-1.4-0.5-2.1-0.9C204.8,117.4,204.8,117.2,204.9,116.6z"/>
<path class="st3" d="M189.3,114.2c0.1-0.7,0.2-1.3,0.4-2c0.1-0.2,0.1-0.5,0.1-0.7c0-0.6,0.1-0.8,0.6-1c0.2-0.1,0.3-0.1,0.5-0.1
	c1.2,0.1,2.3,0.3,2.9,1.5c0.4,1.1,0.2,2.3-0.6,3.2c-0.4,0.5-0.8,0.9-1.4,1.2c-0.7,0.4-1.6,0.2-2.1-0.5c-0.1-0.2-0.2-0.3-0.2-0.5
	C189.4,115.1,189.3,114.7,189.3,114.2z M191,115.2c0.7-0.2,1.3-0.7,1.6-1.4c0.6-1.2,0-2.2-1.4-2.3C190.9,112.7,190.8,114,191,115.2
	L191,115.2z"/>
<path class="st3" d="M180.2,115c0.1-0.7,0.3-1.3,0.4-2c0.1-0.2,0.1-0.5,0.1-0.7c0-0.6,0.1-0.8,0.6-1c0.2-0.1,0.4-0.1,0.5-0.1
	c1.2,0.1,2.3,0.3,2.9,1.5c0.4,1.1,0.2,2.3-0.6,3.2c-0.4,0.5-0.8,0.9-1.4,1.2c-0.7,0.4-1.6,0.2-2.1-0.5c-0.1-0.2-0.2-0.3-0.2-0.5
	C180.3,115.8,180.2,115.4,180.2,115z M181.9,116c0.7-0.2,1.3-0.7,1.6-1.4c0.6-1.2,0-2.2-1.4-2.3C181.8,113.5,181.7,114.8,181.9,116
	L181.9,116z"/>
<path class="st3" d="M113.4,114.5c0.1-0.7,0.2-1.3,0.4-2c0.1-0.2,0.1-0.5,0.1-0.7c0-0.6,0.1-0.8,0.6-1c0.2-0.1,0.3-0.1,0.5-0.1
	c1.2,0.1,2.3,0.3,2.9,1.5c0.4,1.1,0.2,2.3-0.6,3.2c-0.4,0.5-0.8,0.9-1.4,1.2c-0.7,0.4-1.6,0.2-2.1-0.5c-0.1-0.2-0.2-0.3-0.2-0.5
	C113.6,115.3,113.5,114.9,113.4,114.5z M115.1,115.5c0.7-0.2,1.3-0.7,1.6-1.4c0.6-1.2,0-2.2-1.4-2.3C115,113,115,114.3,115.1,115.5
	L115.1,115.5z"/>
<path class="st3" d="M154.7,110.7l-1.8,0.7l0.8,0.7c0.7,0.6,1.3,1.4,1.6,2.4c0.4,0.9,0.2,1.9-0.5,2.6c-0.7,0.8-1.9,1-2.9,0.7
	c-0.5-0.1-0.9-0.5-1.1-1c-0.1-0.1-0.1-0.3,0-0.5c0.1-0.1,0.3-0.1,0.5,0s0.4,0.3,0.6,0.4c0.6,0.3,1.2,0.2,1.7-0.2
	c0.4-0.4,0.6-1,0.3-1.5c-0.2-0.5-0.5-1-0.8-1.5c-0.3-0.3-0.5-0.6-0.9-0.9c-0.7-0.7-0.6-1.3,0.2-1.8c0.4-0.2,0.9-0.4,1.4-0.4
	c0.3-0.1,0.7,0.1,0.8,0.4C154.7,110.6,154.7,110.7,154.7,110.7z"/>
<path class="st3" d="M186.6,116.4c0.6,0,1.1,0,1.6,0.1c0.6,0.1,1.1,0.2,1.7,0.3c0.2,0.1,0.4,0.4,0.4,0.6c0,0.1-0.3,0.4-0.5,0.4
	c-0.3,0.1-0.5,0.1-0.8,0.1c-0.8-0.1-1.7-0.2-2.5-0.3c-0.7-0.1-1.2-0.6-1.1-1.3c0,0,0,0,0,0c0-1.7,0-3.3,0-5c0-0.1,0-0.2,0.1-0.3
	c0.1-0.2,0.3-0.4,0.4-0.4c0.2,0,0.4,0.1,0.5,0.3c0.1,0.3,0.2,0.6,0.2,0.9c0,1.2,0,2.4,0,3.6C186.6,115.7,186.6,116,186.6,116.4z"/>
<path class="st3" d="M110.4,116.8c0.6,0,1.2,0,1.7,0.1c0.6,0.1,1.1,0.2,1.7,0.3c0.2,0.1,0.4,0.4,0.4,0.6c0,0.2-0.3,0.4-0.5,0.4
	c-0.3,0.1-0.5,0.1-0.8,0.1c-0.8-0.1-1.7-0.2-2.5-0.3c-0.7,0-1.2-0.6-1.1-1.3c0,0,0,0,0,0c0-1.7,0-3.3,0-5c0-0.1,0-0.2,0.1-0.3
	c0.1-0.2,0.3-0.4,0.4-0.4c0.2,0,0.4,0.1,0.5,0.3c0.1,0.3,0.2,0.6,0.2,0.9c0,1.2,0,2.4,0.1,3.6C110.4,116.1,110.4,116.4,110.4,116.8z
	"/>
<path class="st3" d="M211.3,114.7v3.6c0,0.2,0,0.4-0.1,0.6c-0.1,0.2-0.3,0.4-0.4,0.7c-0.2-0.2-0.4-0.3-0.5-0.6
	c-0.1-0.6-0.2-1.1-0.2-1.7c-0.1-1.8-0.2-3.7-0.2-5.5c0-0.5,0-0.9,0.1-1.4c0.1-0.2,0.3-0.6,0.5-0.6s0.4,0.3,0.5,0.6
	c0.1,0.3,0.1,0.7,0.1,1C211.2,112.5,211.3,113.7,211.3,114.7z"/>
<path class="st3" d="M144.9,114.8c0,1.4,0,2.5,0,3.6c0,0.2,0,0.4,0,0.6c-0.1,0.2-0.3,0.5-0.4,0.7c-0.2-0.2-0.4-0.3-0.5-0.6
	c-0.1-0.6-0.2-1.1-0.2-1.7c-0.1-1.8-0.2-3.7-0.2-5.5c0-0.5,0-0.9,0.1-1.4c0.1-0.2,0.3-0.6,0.4-0.6s0.4,0.3,0.5,0.6
	c0.1,0.3,0.1,0.7,0.1,1C144.8,112.7,144.8,113.8,144.9,114.8z"/>
</svg>
