<?xml version="1.0" encoding="utf-8"?>
<!-- Generator: Adobe Illustrator 24.3.0, SVG Export Plug-In . SVG Version: 6.00 Build 0)  -->
<svg version="1.1" id="e4b5bb24-be03-48f8-8259-9cfb2c6ab20e"
	 xmlns="http://www.w3.org/2000/svg" xmlns:xlink="http://www.w3.org/1999/xlink" x="0px" y="0px" viewBox="0 0 360 180"
	 style="enable-background:new 0 0 360 180;" xml:space="preserve">
<style type="text/css">
	.st0{fill:#316DC1;}
	.st1{fill:#305DA2;}
	.st2{fill:#FFFFFF;}
</style>
<rect class="st0" width="360" height="180"/>
<g>
	<polygon class="st1" points="144.8,78.9 144.8,58.2 76,58.2 76,0 49.2,0 49.2,78.9 	"/>
	<rect x="160.7" class="st1" width="25.5" height="78.9"/>
	<path class="st1" d="M208.9,78.9h24.8c0.5-2.3,0.8-4.7,0.9-7.1c0.3-3.7,0.4-6.6,0.4-8.7h0.2c2.5,5.4,6.6,10,11.7,13.1
		c5.5,3.1,11.8,4.7,18.1,4.5c12.1,0,21.5-4.5,28-13.5s9.8-21.6,9.8-37.9c0-11.7-1.6-21.5-4.9-29.4h-30.6c1.5,1.2,2.8,2.7,3.9,4.5
		c3.3,5.4,4.9,13.7,4.9,24.8c0,22.6-6.8,33.9-20.3,33.9c-6.9,0-12.1-2.9-15.7-8.7s-5.3-13.9-5.3-24.4c0-10.9,1.8-19.3,5.4-25.1
		c1.2-2,2.7-3.8,4.5-5.1h-35.1v56.5C209.6,65.8,209.4,73.3,208.9,78.9z"/>
	<path class="st1" d="M347,56.3c-3.5-4.9-5.3-12.1-5.3-21.7H360v-16h-18.1c0.2-7.5,1.9-13.4,5.1-17.6c0.3-0.4,0.6-0.7,0.9-1.1h-26.8
		c-4.2,7.8-6.3,17.6-6.3,29.3c0,16.8,4,29.6,11.9,38.3c7.8,8.6,18.9,12.9,33.2,13.1v-17C354.5,63.1,350.2,60.7,347,56.3z"/>
	<path class="st1" d="M3.5,120.6l26-3.6C27.1,105.5,22,97.3,14,92.4C10.2,90,5.6,88.2,0,87v25.7C1.6,114.9,2.8,117.5,3.5,120.6z"/>
	<path class="st1" d="M30.4,163.9c-1.6-4-4-7.6-7.1-10.5c-3.7-3.3-8-5.9-12.6-7.7c-2.7-1.1-6.3-2.3-10.8-3.5v25.6
		c1.2,0.9,2.4,1.9,3.5,2.9c2.2,2.5,3.3,5.7,3.2,9c0,0.1,0,0.3,0,0.4h26.1c0-0.7,0-1.3,0-2C33,173.2,32.1,168.4,30.4,163.9z"/>
	<path class="st1" d="M118.3,123.9c-6.7-6.1-16.3-9.2-28.7-9.2c-12.3,0-22,2.5-29.2,7.4c-7.1,5-11.5,12.2-13.1,21.8l26.7,1.3
		c0.5-5,1.9-8.5,4.1-10.7s5.7-3.2,10.4-3.2c5.1,0,8.8,1.6,11,4.7c2.2,3.1,3.4,7.9,3.4,14.3v5l-21.2,0.4c-12.6,0.1-22.2,2.8-28.9,8.2
		c-5,4-8.1,9.4-9.4,16.2H70c0.3-1.2,0.8-2.4,1.4-3.6c1.3-2.2,3.3-3.9,5.7-4.9c2.5-1.1,6.7-1.8,12.6-2l13.1-0.2v5
		c0,1.9-0.2,3.8-0.6,5.6h26.1v-30C128.4,138.7,125,130,118.3,123.9z"/>
	<path class="st1" d="M232,124.3c-5.6-6.4-13.6-9.6-24-9.6c-7.2,0-13.4,1.7-18.7,5.1c-5.2,3.4-9.6,8.9-13,16.4H176
		c0-1.9-0.1-5.3-0.5-10.3c-0.3-5-0.5-8.1-0.7-9.2h-24.4c0.2,2.6,0.3,5.6,0.5,9c0.1,3.4,0.2,7.7,0.2,13V180h25.5v-17.8
		c0-8.3,1.9-15.1,5.7-20.4c3.8-5.3,8.8-8,15-8c11.7,0,17.6,8.6,17.6,25.9V180h25.5v-27.5C240.4,140.1,237.6,130.7,232,124.3z"/>
	<path class="st1" d="M333.1,163.5c-4.5-2.7-9.3-4.7-14.4-6c-6-1.7-12.8-3.3-20.5-4.9c-5.5-1.1-9.5-2.5-11.8-4.1
		c-2.3-1.5-3.6-4.1-3.5-6.8c0-3.8,1.5-6.4,4.5-8c3-1.5,7.6-2.3,13.6-2.3c6.2,0,10.7,1,13.5,3c3,2.1,4.9,5.4,5.4,9l22.6-2.4
		c-1.5-8.2-6.3-15.3-13.3-19.7c-7.1-4.5-16.5-6.8-28.2-6.8c-13.3,0-23.5,2.6-30.8,7.9c-7.2,5.3-10.9,12.6-10.9,22
		c0,5.7,1.3,10.5,4,14.4c2.9,4.2,6.9,7.4,11.5,9.5c5,2.5,14.8,5.2,29.2,8c5.1,1,9,2.2,11.6,3.6h28.7c-0.5-2.9-1.4-5.5-2.8-7.6
		C339.6,168.8,336.7,165.7,333.1,163.5z"/>
</g>
<path class="st2" d="M79.8,88.8V69.5h4v16.2h10.4v3.1C94.2,88.8,79.8,88.8,79.8,88.8z"/>
<path class="st2" d="M96.6,71.3v-2.8h3.8v2.8H96.6z M96.6,88.8V74h3.8v14.8H96.6z"/>
<path class="st2" d="M117.9,81.3c0.1,2-0.4,4-1.5,5.7c-1,1.3-2.6,2.1-4.2,2c-1,0-1.9-0.2-2.7-0.7c-0.8-0.5-1.4-1.2-1.8-2l0,0
	c0,0.3,0,0.8-0.1,1.3c0,0.4-0.1,0.7-0.1,1.1h-3.7c0.1-0.8,0.1-2,0.1-3.4V68.5h3.8v5.7l-0.1,2.4h0.1c0.8-1.9,2.7-3,4.7-2.8
	c1.6-0.1,3.1,0.7,4,2C117.5,77.4,118,79.3,117.9,81.3z M113.9,81.3c0.1-1.3-0.2-2.6-0.7-3.7c-0.5-0.8-1.4-1.3-2.3-1.2
	c-1,0-1.9,0.5-2.4,1.3c-0.6,1.2-0.9,2.5-0.8,3.8c-0.1,1.3,0.2,2.5,0.8,3.7c0.5,0.8,1.4,1.4,2.4,1.3
	C112.9,86.4,113.9,84.7,113.9,81.3L113.9,81.3z"/>
<path class="st2" d="M126.7,89c-1.9,0.1-3.8-0.6-5.1-2c-1.3-1.6-1.9-3.7-1.8-5.8c-0.1-2,0.5-4.1,1.8-5.6c1.3-1.4,3.2-2.1,5.2-2
	c1.9-0.1,3.7,0.7,4.9,2.1c1.1,1.4,1.7,3.5,1.7,6.2V82h-9.5c-0.1,1.1,0.2,2.3,0.8,3.3c0.5,0.7,1.4,1.1,2.3,1.1
	c1.2,0.1,2.3-0.6,2.6-1.8L133,85C132,87.7,129.9,89,126.7,89z M126.7,76.1c-0.8,0-1.6,0.3-2.1,0.9c-0.5,0.8-0.8,1.7-0.8,2.6h5.7
	c0-1-0.3-1.9-0.9-2.7C128.2,76.4,127.4,76.1,126.7,76.1L126.7,76.1z"/>
<path class="st2" d="M135.8,88.8V77.4c0-0.8,0-1.5,0-2s-0.1-1-0.1-1.4h3.7c0,0.2,0.1,0.7,0.1,1.5s0.1,1.4,0.1,1.7h0.1
	c0.2-0.8,0.6-1.5,1-2.2c0.2-0.4,0.6-0.7,1-0.9c0.5-0.2,1-0.3,1.5-0.3c0.4,0,0.8,0.1,1.2,0.2v3.2c-0.5-0.1-1.1-0.2-1.6-0.2
	c-0.9,0-1.7,0.4-2.2,1.2c-0.6,1-0.9,2.2-0.8,3.4v7.3L135.8,88.8L135.8,88.8z"/>
<path class="st2" d="M149.6,89c-1.2,0.1-2.4-0.3-3.4-1.2c-0.8-0.9-1.3-2.1-1.2-3.3c-0.1-1.3,0.5-2.6,1.5-3.5
	c1.3-0.9,2.8-1.3,4.3-1.2h3.2V79c0.1-0.8-0.1-1.5-0.5-2.2c-0.4-0.5-1-0.8-1.6-0.7c-0.6,0-1.1,0.1-1.6,0.5c-0.4,0.5-0.6,1-0.6,1.6
	l-4-0.2c0.2-1.3,0.9-2.5,2-3.3c1.3-0.8,2.8-1.2,4.4-1.1c1.6-0.1,3.1,0.4,4.3,1.4c1.1,1,1.6,2.5,1.5,4v5.4c0,0.6,0,1.2,0.3,1.7
	c0.2,0.3,0.6,0.5,0.9,0.5c0.3,0,0.6,0,0.8-0.1v2.1l-0.6,0.2l-0.6,0.1c-0.2,0-0.4,0-0.6,0.1s-0.4,0-0.7,0c-0.8,0.1-1.6-0.2-2.1-0.7
	c-0.5-0.6-0.8-1.3-0.8-2.1h-0.1C153.6,87.9,151.7,89.1,149.6,89z M154.1,81.9h-2c-0.6,0-1.3,0.1-1.9,0.3c-0.4,0.1-0.7,0.4-0.9,0.7
	c-0.2,0.4-0.3,0.9-0.3,1.3c0,0.6,0.1,1.1,0.5,1.6c0.3,0.3,0.8,0.5,1.3,0.5c0.6,0,1.2-0.2,1.6-0.5c0.5-0.3,0.9-0.8,1.2-1.4
	s0.4-1.2,0.4-1.8L154.1,81.9z"/>
<path class="st2" d="M165.2,89c-1,0.1-1.9-0.3-2.6-0.9c-0.7-0.8-1-1.8-0.9-2.8v-8.7h-1.9V74h2.1l1.2-3.5h2.4V74h2.8v2.6h-2.8v7.7
	c0,0.6,0.1,1.1,0.4,1.6c0.3,0.4,0.8,0.5,1.3,0.5c0.4,0,0.9-0.1,1.3-0.2v2.4C167.3,88.9,166.3,89,165.2,89z"/>
<path class="st2" d="M170.3,71.3v-2.8h3.8v2.8H170.3z M170.3,88.8V74h3.8v14.8H170.3z"/>
<path class="st2" d="M191.7,81.3c0.1,2.1-0.6,4.1-2,5.6c-1.5,1.4-3.5,2.1-5.5,2c-2,0.1-4-0.6-5.4-2c-1.4-1.5-2.1-3.6-2-5.6
	c-0.1-2.1,0.6-4.1,2-5.6c3.2-2.7,7.8-2.7,11-0.1C191.1,77.2,191.8,79.3,191.7,81.3z M187.7,81.3c0.1-1.3-0.2-2.7-0.9-3.8
	c-0.6-0.8-1.5-1.2-2.5-1.2c-2.3,0-3.5,1.7-3.5,5c-0.1,1.3,0.2,2.6,0.9,3.8c0.5,0.8,1.5,1.3,2.5,1.3
	C186.5,86.4,187.7,84.7,187.7,81.3L187.7,81.3z"/>
<path class="st2" d="M203.9,88.8v-8.3c0-2.6-0.9-3.9-2.6-3.9c-0.9,0-1.8,0.4-2.2,1.2c-0.6,0.9-0.9,2-0.9,3.1v7.9h-3.8V77.3
	c0-0.8,0-1.4,0-1.9s0-1-0.1-1.4h3.7c0,0.2,0.1,0.6,0.1,1.4s0.1,1.3,0.1,1.6h0.1c0.4-1,1.1-1.8,1.9-2.5c0.8-0.5,1.8-0.8,2.8-0.8
	c1.4-0.1,2.7,0.4,3.6,1.4c0.9,1.2,1.4,2.7,1.3,4.2v9.4L203.9,88.8z"/>
<path class="st2" d="M234,83.2c0.1,1.7-0.7,3.3-2.1,4.3c-1.9,1.1-4,1.6-6.2,1.5c-2,0.1-4-0.3-5.8-1.3c-1.4-0.9-2.4-2.3-2.7-4
	l3.9-0.6c0.2,0.9,0.7,1.7,1.5,2.2c1,0.5,2.1,0.7,3.2,0.7c2.8,0,4.2-0.9,4.2-2.6c0-0.5-0.2-1-0.5-1.3c-0.4-0.4-0.8-0.7-1.4-0.9
	c-1.1-0.4-2.2-0.7-3.4-0.9c-1-0.2-2-0.5-3-0.8c-0.5-0.2-1-0.4-1.5-0.7c-0.9-0.5-1.6-1.4-1.9-2.4c-0.2-0.6-0.3-1.2-0.3-1.8
	c-0.1-1.6,0.7-3.1,2-4c1.7-1,3.7-1.5,5.7-1.4c1.9-0.1,3.7,0.3,5.4,1.1c1.3,0.8,2.1,2.2,2.3,3.7l-3.9,0.5c-0.2-0.8-0.6-1.4-1.2-1.9
	c-0.8-0.5-1.7-0.7-2.6-0.6c-2.4,0-3.7,0.8-3.7,2.3c0,0.4,0.1,0.9,0.4,1.2c0.3,0.4,0.7,0.6,1.1,0.8c1,0.4,2.1,0.6,3.1,0.8
	c1.4,0.2,2.7,0.6,4,1.1c0.7,0.3,1.3,0.7,1.9,1.2c0.5,0.4,0.8,1,1.1,1.6C233.9,81.8,234,82.5,234,83.2z"/>
<path class="st2" d="M240,89c-1.2,0.1-2.4-0.3-3.3-1.2c-0.8-0.9-1.3-2.1-1.2-3.3c-0.1-1.3,0.5-2.6,1.5-3.5c1.3-0.9,2.8-1.3,4.3-1.2
	h3.2V79c0.1-0.8-0.1-1.5-0.5-2.2c-0.4-0.5-1-0.8-1.6-0.7c-0.6,0-1.1,0.1-1.6,0.5c-0.4,0.5-0.6,1-0.6,1.6l-4-0.2
	c0.2-1.3,0.9-2.5,2-3.3c1.3-0.8,2.8-1.2,4.4-1.1c1.6-0.1,3.1,0.4,4.3,1.4c1.1,1,1.6,2.5,1.5,4v5.4c0,0.6,0,1.2,0.3,1.7
	c0.2,0.3,0.6,0.5,0.9,0.5c0.3,0,0.6,0,0.9-0.1v2.1l-0.6,0.2l-0.6,0.1c-0.2,0-0.4,0-0.6,0.1s-0.4,0-0.7,0c-0.8,0.1-1.6-0.2-2.1-0.7
	c-0.5-0.6-0.8-1.3-0.8-2.1H245C244,87.9,242.1,89.1,240,89z M244.5,81.9h-2c-0.6,0-1.3,0.1-1.9,0.3c-0.4,0.1-0.7,0.4-0.9,0.7
	c-0.2,0.4-0.3,0.9-0.3,1.3c0,0.6,0.1,1.1,0.5,1.6c0.3,0.3,0.8,0.5,1.3,0.5c0.6,0,1.2-0.2,1.6-0.5c0.5-0.3,0.9-0.8,1.2-1.4
	s0.4-1.2,0.4-1.8L244.5,81.9z"/>
<path class="st2" d="M261.4,88.8v-8.3c0-2.6-0.9-3.9-2.6-3.9c-0.9,0-1.8,0.4-2.2,1.2c-0.6,0.9-0.9,2-0.9,3.1v7.9h-3.8V77.3
	c0-0.8,0-1.4,0-1.9s-0.1-1-0.1-1.4h3.7c0,0.2,0.1,0.6,0.1,1.4s0.1,1.3,0.1,1.6h0.1c0.4-1,1.1-1.8,1.9-2.5c0.8-0.5,1.8-0.8,2.8-0.8
	c1.4-0.1,2.7,0.4,3.6,1.4c0.9,1.2,1.4,2.7,1.3,4.2v9.4L261.4,88.8z"/>
<path class="st2" d="M280.9,84.4c0,1.4-0.6,2.6-1.8,3.4c-1.5,0.9-3.2,1.3-4.9,1.2c-1.6,0.1-3.2-0.3-4.7-1c-1.1-0.7-1.9-1.8-2.2-3
	l3.4-0.5c0.1,0.6,0.5,1.1,1,1.5c0.8,0.4,1.6,0.5,2.5,0.4c0.8,0,1.6-0.1,2.4-0.4c0.5-0.2,0.8-0.8,0.7-1.3c0-0.5-0.2-0.9-0.6-1.1
	c-0.6-0.4-1.3-0.6-2-0.7c-1.5-0.2-3-0.6-4.4-1.2c-0.7-0.3-1.3-0.8-1.7-1.4c-1.1-1.8-0.7-4.2,1-5.5c2.8-1.5,6.1-1.6,8.9-0.2
	c1.1,0.7,1.8,1.8,2,3l-3.4,0.4c-0.1-0.5-0.4-1-0.8-1.3c-0.6-0.3-1.3-0.5-2-0.4c-0.7,0-1.4,0.1-2,0.3c-0.4,0.2-0.7,0.7-0.7,1.2
	c0,0.4,0.2,0.8,0.5,1c0.5,0.3,1.1,0.5,1.8,0.6c1.2,0.2,2.2,0.5,3.1,0.7c0.8,0.2,1.5,0.5,2.2,0.9c0.5,0.3,1,0.8,1.3,1.3
	C280.9,83,281,83.7,280.9,84.4z"/>
<path class="st2" d="M107,113.5v-8.2h1.1v7.3h4.2v0.9L107,113.5z"/>
<path class="st2" d="M118.8,110.4c0.1,0.9-0.2,1.8-0.7,2.5c-0.6,0.6-1.3,0.9-2.1,0.8c-0.8,0.1-1.6-0.3-2.1-0.8
	c-0.5-0.7-0.8-1.6-0.7-2.4c0-2.2,0.9-3.3,2.8-3.3c0.8-0.1,1.6,0.2,2.1,0.8C118.6,108.6,118.9,109.5,118.8,110.4z M117.7,110.4
	c0-0.7-0.1-1.3-0.4-1.9c-0.3-0.4-0.8-0.6-1.3-0.6s-1,0.2-1.3,0.6c-0.3,0.6-0.5,1.2-0.4,1.9c0,0.7,0.1,1.3,0.4,1.9
	c0.3,0.4,0.8,0.7,1.3,0.6c0.5,0.1,1-0.2,1.3-0.6C117.6,111.7,117.8,111,117.7,110.4z"/>
<path class="st2" d="M120.2,113.5v-4.9c0-0.4,0-0.9,0-1.5h1c0,0.7,0,1.2,0,1.3l0,0c0.1-0.4,0.3-0.8,0.6-1.1c0.3-0.2,0.6-0.3,0.9-0.3
	c0.1,0,0.3,0,0.4,0v1c-0.2,0-0.4-0.1-0.6-0.1c-0.4,0-0.8,0.2-1,0.6c-0.3,0.5-0.4,1.1-0.3,1.6v3.3L120.2,113.5z"/>
<path class="st2" d="M124.9,110.6c0,0.6,0.1,1.2,0.4,1.7c0.3,0.4,0.8,0.6,1.3,0.6c0.4,0,0.8-0.1,1.1-0.3c0.3-0.2,0.5-0.4,0.6-0.7
	l0.9,0.3c-0.4,1-1.5,1.6-2.6,1.5c-0.8,0.1-1.6-0.3-2.1-0.8c-0.5-0.7-0.8-1.6-0.7-2.5c-0.1-0.9,0.2-1.7,0.7-2.4
	c0.5-0.6,1.3-0.9,2.1-0.8c1.9,0,2.8,1.1,2.8,3.4v0.1L124.9,110.6L124.9,110.6z M128.4,109.8c0-0.5-0.2-1-0.5-1.5
	c-0.3-0.3-0.8-0.5-1.2-0.5c-0.5,0-0.9,0.2-1.2,0.5c-0.3,0.4-0.5,0.9-0.5,1.4L128.4,109.8z"/>
<path class="st2" d="M134.5,113.5v-4c0-0.4,0-0.9-0.2-1.3c-0.2-0.3-0.6-0.4-0.9-0.3c-0.4,0-0.8,0.2-1.1,0.5
	c-0.3,0.4-0.4,0.9-0.4,1.4v3.7h-1.1v-5c0-0.7,0-1.2,0-1.4h1c0,0.1,0,0.1,0,0.2s0,0.2,0,0.3s0,0.3,0,0.6l0,0c0.2-0.4,0.4-0.7,0.8-0.9
	c0.7-0.4,1.5-0.4,2.2,0c0.3,0.2,0.5,0.6,0.6,0.9l0,0c0.3-0.8,1.1-1.2,1.9-1.2c0.5,0,1,0.1,1.4,0.5c0.3,0.5,0.5,1.1,0.4,1.7v4.2h-1
	v-4c0-0.4,0-0.9-0.2-1.3c-0.2-0.3-0.6-0.4-0.9-0.3c-0.4,0-0.8,0.2-1.1,0.5c-0.3,0.4-0.4,0.9-0.4,1.5v3.7L134.5,113.5L134.5,113.5z"
	/>
<path class="st2" d="M144.1,105.9v-1h1.1v1H144.1z M144.1,113.5v-6.3h1.1v6.3H144.1z"/>
<path class="st2" d="M152.2,110.3c0,2.2-0.8,3.3-2.3,3.3c-0.8,0.1-1.6-0.3-2-1.1l0,0c0,0,0,0.4,0,1v2.4h-1.1v-7.5c0-0.7,0-1.1,0-1.3
	h1c0,0,0,0.1,0,0.2s0,0.2,0,0.4s0,0.3,0,0.4l0,0c0.2-0.4,0.4-0.7,0.8-0.9c0.4-0.2,0.8-0.3,1.2-0.3c0.7-0.1,1.3,0.2,1.8,0.8
	C152,108.6,152.2,109.5,152.2,110.3z M151.1,110.3c0-0.7-0.1-1.3-0.4-1.9c-0.3-0.4-0.7-0.6-1.1-0.6c-0.4,0-0.7,0.1-1,0.3
	c-0.3,0.2-0.4,0.5-0.5,0.8c-0.1,0.5-0.2,1-0.2,1.5c0,0.6,0.1,1.3,0.4,1.8c0.3,0.4,0.8,0.6,1.3,0.6s0.9-0.2,1.1-0.6
	C151,111.7,151.1,111,151.1,110.3L151.1,110.3z"/>
<path class="st2" d="M158.2,111.8c0,0.5-0.2,1.1-0.7,1.4c-0.6,0.4-1.2,0.5-1.9,0.5c-0.6,0-1.3-0.1-1.8-0.4c-0.4-0.3-0.7-0.7-0.8-1.2
	l0.9-0.2c0.1,0.3,0.3,0.6,0.6,0.8c0.4,0.2,0.8,0.3,1.2,0.2c0.4,0,0.8-0.1,1.2-0.2c0.2-0.2,0.4-0.4,0.4-0.7c0-0.2-0.1-0.5-0.3-0.6
	c-0.2-0.2-0.5-0.3-0.8-0.4l-0.8-0.2c-0.5-0.1-0.9-0.3-1.3-0.5c-0.2-0.1-0.4-0.3-0.6-0.6c-0.1-0.2-0.2-0.5-0.2-0.8
	c0-0.5,0.2-1,0.6-1.3c0.5-0.3,1.2-0.5,1.8-0.5s1.1,0.1,1.7,0.4c0.4,0.3,0.7,0.7,0.8,1.2l-1,0.1c-0.1-0.3-0.2-0.5-0.5-0.6
	c-0.7-0.3-1.4-0.3-2.1,0c-0.2,0.1-0.4,0.4-0.3,0.7c0,0.2,0,0.3,0.1,0.4s0.3,0.2,0.4,0.3c0.4,0.1,0.8,0.3,1.2,0.3
	c0.4,0.1,0.8,0.2,1.2,0.4c0.2,0.1,0.4,0.2,0.6,0.4C158,111,158.2,111.4,158.2,111.8L158.2,111.8z"/>
<path class="st2" d="M160.5,107.2v4c0,0.3,0,0.7,0.1,1c0.1,0.2,0.2,0.4,0.4,0.5s0.5,0.2,0.8,0.2c0.5,0,0.9-0.2,1.2-0.5
	c0.3-0.4,0.5-0.9,0.4-1.4v-3.7h1.1v5c0,0.4,0,0.9,0,1.3h-1c0,0,0-0.1,0-0.2s0-0.2,0-0.3s0-0.3,0-0.6l0,0c-0.3,0.8-1.1,1.3-2,1.2
	c-0.6,0-1.1-0.1-1.5-0.5c-0.4-0.5-0.5-1.1-0.5-1.7v-4.2h1V107.2z"/>
<path class="st2" d="M169.8,113.5v-4c0-0.4,0-0.9-0.2-1.3c-0.2-0.3-0.6-0.4-0.9-0.3c-0.4,0-0.8,0.2-1.1,0.5
	c-0.3,0.4-0.4,0.9-0.4,1.4v3.7h-1v-5c0-0.7,0-1.2,0-1.4h1c0,0.1,0,0.1,0,0.2s0,0.2,0,0.3s0,0.3,0,0.6l0,0c0.2-0.4,0.4-0.7,0.8-0.9
	c0.7-0.4,1.5-0.4,2.2,0c0.3,0.2,0.5,0.6,0.6,0.9l0,0c0.2-0.4,0.5-0.7,0.8-0.9c0.3-0.2,0.7-0.3,1.1-0.3c0.5,0,1,0.1,1.4,0.5
	c0.3,0.5,0.5,1.1,0.4,1.7v4.2h-1v-4c0-0.4-0.1-0.9-0.3-1.3c-0.2-0.3-0.6-0.4-0.9-0.3c-0.4,0-0.8,0.2-1.1,0.5
	c-0.3,0.4-0.4,0.9-0.4,1.5v3.7L169.8,113.5L169.8,113.5z"/>
<path class="st2" d="M183.5,112.5c-0.2,0.4-0.4,0.7-0.8,0.9c-0.4,0.2-0.8,0.3-1.2,0.3c-0.7,0.1-1.4-0.3-1.8-0.8
	c-0.4-0.7-0.6-1.6-0.6-2.4c0-2.2,0.8-3.3,2.3-3.3c0.4,0,0.8,0.1,1.2,0.3c0.3,0.2,0.6,0.5,0.8,0.8l0,0v-0.7V105h1.1v7.4
	c0,0.7,0,1.1,0,1.3h-1c0-0.1,0-0.3,0-0.4C183.5,112.9,183.5,112.7,183.5,112.5L183.5,112.5z M180.3,110.4c-0.1,0.7,0.1,1.3,0.4,1.9
	c0.2,0.4,0.7,0.6,1.1,0.6c0.5,0,1-0.2,1.3-0.6c0.3-0.6,0.4-1.3,0.4-1.9s-0.1-1.3-0.4-1.8c-0.3-0.4-0.8-0.6-1.3-0.6s-0.9,0.2-1.1,0.6
	C180.4,109,180.2,109.7,180.3,110.4z"/>
<path class="st2" d="M191.5,110.4c0.1,0.9-0.2,1.8-0.7,2.5c-0.6,0.6-1.3,0.9-2.1,0.8c-0.8,0.1-1.6-0.3-2.1-0.8
	c-0.5-0.7-0.8-1.6-0.7-2.4c0-2.2,0.9-3.3,2.8-3.3c0.8-0.1,1.6,0.2,2.1,0.8C191.3,108.6,191.6,109.5,191.5,110.4z M190.4,110.4
	c0-0.7-0.1-1.3-0.4-1.9c-0.3-0.4-0.8-0.6-1.3-0.6s-1,0.2-1.3,0.6c-0.3,0.6-0.5,1.2-0.4,1.9c0,0.7,0.1,1.3,0.4,1.9
	c0.3,0.4,0.8,0.7,1.3,0.6c0.5,0.1,1-0.2,1.4-0.6C190.3,111.7,190.4,111,190.4,110.4z"/>
<path class="st2" d="M192.8,113.5v-8.7h1.1v8.7H192.8z"/>
<path class="st2" d="M200.9,110.4c0.1,0.9-0.2,1.8-0.7,2.5c-0.6,0.6-1.3,0.9-2.1,0.8c-0.8,0.1-1.6-0.3-2.1-0.8
	c-0.5-0.7-0.8-1.6-0.7-2.4c0-2.2,0.9-3.3,2.8-3.3c0.8-0.1,1.6,0.2,2.1,0.8C200.7,108.6,200.9,109.5,200.9,110.4z M199.7,110.4
	c0-0.7-0.1-1.3-0.4-1.9c-0.3-0.4-0.8-0.6-1.3-0.6s-1,0.2-1.3,0.6c-0.3,0.6-0.5,1.2-0.4,1.9c0,0.7,0.1,1.3,0.4,1.9
	c0.3,0.4,0.8,0.7,1.3,0.6c0.5,0.1,1-0.2,1.4-0.6C199.6,111.7,199.8,111,199.7,110.4z"/>
<path class="st2" d="M202.2,113.5v-4.9c0-0.4,0-0.9,0-1.5h1c0,0.7,0.1,1.2,0.1,1.3l0,0c0.1-0.4,0.3-0.8,0.6-1.1
	c0.3-0.2,0.6-0.3,0.9-0.3c0.1,0,0.3,0,0.4,0v1c-0.2,0-0.4-0.1-0.6-0.1c-0.4,0-0.8,0.2-1,0.6c-0.3,0.5-0.4,1.1-0.3,1.6v3.3
	L202.2,113.5z"/>
<path class="st2" d="M214.2,111.8c0,0.5-0.2,1.1-0.7,1.4c-0.6,0.4-1.2,0.5-1.9,0.5c-0.6,0-1.3-0.1-1.8-0.4c-0.4-0.3-0.7-0.7-0.8-1.2
	l0.9-0.2c0.1,0.3,0.3,0.6,0.6,0.8c0.4,0.2,0.8,0.3,1.2,0.2c0.4,0,0.8-0.1,1.2-0.2c0.2-0.2,0.4-0.4,0.4-0.7c0-0.2-0.1-0.5-0.3-0.6
	c-0.2-0.2-0.5-0.3-0.8-0.4l-0.8-0.2c-0.5-0.1-0.9-0.3-1.3-0.5c-0.2-0.1-0.4-0.3-0.6-0.6c-0.1-0.2-0.2-0.5-0.2-0.8
	c0-0.5,0.2-1,0.6-1.3c0.5-0.3,1.2-0.5,1.8-0.5s1.1,0.1,1.7,0.4c0.4,0.3,0.7,0.7,0.8,1.2l-0.9,0.1c-0.1-0.3-0.2-0.5-0.5-0.6
	c-0.3-0.2-0.7-0.2-1-0.2c-0.4,0-0.7,0.1-1.1,0.2c-0.4,0.2-0.4,0.7-0.2,1.1l0,0c0.1,0.1,0.3,0.2,0.4,0.3c0.4,0.1,0.8,0.3,1.2,0.3
	c0.4,0.1,0.8,0.2,1.2,0.4c0.2,0.1,0.4,0.2,0.6,0.4C214.1,110.9,214.3,111.4,214.2,111.8L214.2,111.8z"/>
<path class="st2" d="M215.5,105.9v-1h1.1v1H215.5z M215.5,113.5v-6.3h1.1v6.3H215.5z"/>
<path class="st2" d="M220.6,113.5c-0.3,0.1-0.7,0.1-1.1,0.1c-0.9,0-1.3-0.5-1.3-1.4V108h-0.7v-0.8h0.8l0.3-1.4h0.7v1.4h1.2v0.8h-1.2
	v4c0,0.2,0,0.4,0.1,0.6c0.1,0.1,0.3,0.2,0.5,0.2s0.4,0,0.6-0.1L220.6,113.5L220.6,113.5z"/>
<path class="st2" d="M226.4,113.7c-0.5,0-1-0.1-1.4-0.5c-0.3-0.4-0.5-0.9-0.5-1.4c0-0.6,0.2-1.1,0.6-1.5c0.6-0.4,1.4-0.6,2.1-0.6
	h1.4v-0.3c0-0.4-0.1-0.8-0.3-1.1c-0.3-0.2-0.6-0.4-1-0.3c-0.3,0-0.7,0.1-1,0.2c-0.2,0.2-0.4,0.5-0.4,0.8l-1.1-0.1
	c0.2-1.1,1-1.7,2.5-1.7c0.6,0,1.3,0.1,1.8,0.5c0.4,0.4,0.6,1,0.6,1.6v2.8c0,0.2,0,0.5,0.1,0.7s0.3,0.2,0.5,0.2c0.1,0,0.2,0,0.4,0
	v0.7c-0.3,0.1-0.5,0.1-0.8,0.1s-0.6-0.1-0.9-0.3c-0.2-0.3-0.3-0.6-0.3-1l0,0C228.4,113.2,227.5,113.8,226.4,113.7L226.4,113.7z
	 M226.7,112.9c0.4,0,0.7-0.1,1-0.3c0.3-0.2,0.5-0.4,0.7-0.7c0.2-0.3,0.3-0.6,0.3-0.9v-0.5h-1.2c-0.4,0-0.8,0-1.1,0.2
	c-0.2,0.1-0.4,0.2-0.6,0.4c-0.1,0.2-0.2,0.5-0.2,0.8s0.1,0.6,0.3,0.8C226.1,112.8,226.4,112.9,226.7,112.9L226.7,112.9z"/>
<path class="st2" d="M235.2,113.5v-4c0-0.4-0.1-0.9-0.2-1.3c-0.2-0.3-0.6-0.4-0.9-0.3c-0.4,0-0.8,0.2-1.1,0.5
	c-0.3,0.4-0.4,0.9-0.4,1.4v3.7h-1v-5c0-0.7,0-1.2,0-1.4h1c0,0.1,0,0.1,0,0.2s0,0.2,0,0.3s0,0.3,0,0.6l0,0c0.2-0.4,0.4-0.7,0.8-0.9
	c0.7-0.4,1.5-0.4,2.2,0c0.3,0.2,0.5,0.6,0.6,0.9l0,0c0.3-0.8,1.1-1.2,1.9-1.2c0.5,0,1,0.1,1.4,0.5c0.3,0.5,0.5,1.1,0.4,1.7v4.2h-1
	v-4c0-0.4,0-0.9-0.2-1.3c-0.2-0.3-0.6-0.4-0.9-0.3c-0.4,0-0.8,0.2-1.1,0.5c-0.3,0.4-0.4,0.9-0.4,1.5v3.7L235.2,113.5L235.2,113.5z"
	/>
<path class="st2" d="M242.3,110.6c0,0.6,0.1,1.2,0.4,1.7c0.3,0.4,0.8,0.6,1.3,0.6c0.4,0,0.8-0.1,1.1-0.3c0.3-0.2,0.5-0.4,0.6-0.7
	l0.9,0.3c-0.4,1-1.5,1.6-2.6,1.5c-0.8,0.1-1.6-0.3-2.1-0.8c-0.5-0.7-0.8-1.6-0.7-2.5c-0.1-0.9,0.2-1.7,0.7-2.4
	c0.5-0.6,1.3-0.9,2.1-0.8c1.9,0,2.8,1.1,2.8,3.4v0.1L242.3,110.6L242.3,110.6z M245.7,109.8c0-0.5-0.2-1-0.5-1.5
	c-0.3-0.3-0.8-0.5-1.2-0.5c-0.5,0-0.9,0.2-1.2,0.5c-0.3,0.4-0.5,0.9-0.5,1.4L245.7,109.8z"/>
<path class="st2" d="M250.6,113.5c-0.3,0.1-0.7,0.1-1.1,0.1c-0.9,0-1.3-0.5-1.3-1.4V108h-0.7v-0.8h0.8l0.3-1.4h0.7v1.4h1.2v0.8h-1.2
	v4c0,0.2,0,0.4,0.1,0.6c0.1,0.1,0.3,0.2,0.5,0.2s0.4,0,0.6-0.1L250.6,113.5z"/>
<path class="st2" d="M251.8,113.5v-1.3h1.1v1.3H251.8z"/>
</svg>
