<svg id="ad6fb92d-5127-450e-91b6-c94e24790511" data-name="Layer 1" xmlns="http://www.w3.org/2000/svg" viewBox="0 0 262 142"><defs><style>.a85d776f-5ee3-4057-9f3b-7874c8768291{fill:#e00;}</style></defs><path class="a85d776f-5ee3-4057-9f3b-7874c8768291" d="M129.49,69.49a2.14,2.14,0,0,0,3,3L152.4,52.62h9.37a2.13,2.13,0,0,0,1.51-.62L177,38.32a2.15,2.15,0,0,0-1.52-3.64h-8.12V26.56A2.15,2.15,0,0,0,163.68,25L150,38.72a2.13,2.13,0,0,0-.62,1.51V49.6Zm31.39-21.14h-4.21l9.4-9.4h4.22Zm-7.23-7.23,9.4-9.41v4.22l-9.4,9.4Z"/><path class="a85d776f-5ee3-4057-9f3b-7874c8768291" d="M179.92,60.6a2.14,2.14,0,1,0-4.18.88,46.61,46.61,0,0,1,1,9.52,45.73,45.73,0,1,1-36.22-44.73,2.14,2.14,0,1,0,.89-4.18A49.49,49.49,0,0,0,131,21a49.93,49.93,0,1,0,48.92,39.6Z"/><path class="a85d776f-5ee3-4057-9f3b-7874c8768291" d="M131,59.46a12.17,12.17,0,0,1,2.41.25,2.12,2.12,0,0,0,2.53-1.65,2.15,2.15,0,0,0-1.65-2.53,15.78,15.78,0,1,0,12.18,12.18,2.14,2.14,0,1,0-4.18.89,12,12,0,0,1,.25,2.4A11.54,11.54,0,1,1,131,59.46Z"/><path class="a85d776f-5ee3-4057-9f3b-7874c8768291" d="M139.49,41.34a2.13,2.13,0,0,0-1.64-2.53,32.91,32.91,0,1,0,25.34,25.34A2.14,2.14,0,0,0,159,65a29,29,0,0,1,.62,6A28.63,28.63,0,1,1,131,42.37a29,29,0,0,1,6,.62A2.12,2.12,0,0,0,139.49,41.34Z"/></svg>