<svg id="e2242942-890d-4d3f-a83f-0177cb01b928" data-name="Layer 1" xmlns="http://www.w3.org/2000/svg" viewBox="0 0 262 142"><defs><style>.f4ceedc7-3674-46a7-b4e6-007e9d682a6a{fill:#e00;}</style></defs><path class="f4ceedc7-3674-46a7-b4e6-007e9d682a6a" d="M150.23,67.58V30a2.14,2.14,0,0,0-2.14-2.13H86.56A2.14,2.14,0,0,0,84.42,30V67.62a2.14,2.14,0,0,0,2.14,2.13l8.12,0V81.26a2.13,2.13,0,0,0,3.64,1.51l13.05-13h36.72A2.14,2.14,0,0,0,150.23,67.58ZM146,65.44H110.49a2.13,2.13,0,0,0-1.51.63l-10,10C98.68,64,101.27,65.45,88.69,65.47V32.11H146Z"/><path class="f4ceedc7-3674-46a7-b4e6-007e9d682a6a" d="M175.44,58.61H158.35a2.14,2.14,0,0,0,0,4.27h15V96.24c-12.66,0-10-1.51-10.26,10.63l-10-10a2.13,2.13,0,0,0-1.51-.63H116V77.84a2.14,2.14,0,0,0-4.27,0V98.35a2.14,2.14,0,0,0,2.14,2.14h36.72l13.05,13.05a2.13,2.13,0,0,0,3.64-1.51V100.49l8.12,0a2.14,2.14,0,0,0,2.14-2.13V60.74A2.14,2.14,0,0,0,175.44,58.61Z"/></svg>