<svg id="ae6e5aa5-b53e-4b31-8dc4-6f73738636ff" data-name="Layer 1" xmlns="http://www.w3.org/2000/svg" viewBox="0 0 262 142"><defs><style>.fe49f577-faf8-419a-acfd-21cef6a869b1{fill:#e00;}</style></defs><path class="fe49f577-faf8-419a-acfd-21cef6a869b1" d="M169.05,32.46l-37.61-8a2.17,2.17,0,0,0-.88,0L93,32.46a2.13,2.13,0,0,0-1.69,2.09V77.84a39.74,39.74,0,0,0,79.48,0V34.55A2.13,2.13,0,0,0,169.05,32.46ZM131,28.74l35.47,7.54V55.45L95.53,70.53V36.28Zm0,84.57A35.51,35.51,0,0,1,95.53,77.84V74.9l70.94-15.08v18A35.51,35.51,0,0,1,131,113.31Z"/></svg>