<svg id="e21d47e3-1d76-4bc3-807d-ee696ea7df53" data-name="Layer 1" xmlns="http://www.w3.org/2000/svg" viewBox="0 0 262 142"><defs><style>.a867cbb4-fa50-47db-931e-48beeb394b85{fill:#e00;}</style></defs><path class="a867cbb4-fa50-47db-931e-48beeb394b85" d="M175.44,113.31h-42.3V42.37h21L146,80.81c0,.08,0,.15,0,.23a1.43,1.43,0,0,0,0,.22c0,.12,0,.24,0,.37v0a15.77,15.77,0,0,0,31.54,0v0c0-.13,0-.25,0-.37a1.43,1.43,0,0,0,0-.22,1.77,1.77,0,0,0,0-.23l-8.2-38.59a2.13,2.13,0,0,0-.72-4.13H133.14V26.56a2.14,2.14,0,0,0-4.28,0V38.09H93.39a2.13,2.13,0,0,0-.72,4.13l-8.2,38.59a1.77,1.77,0,0,0,0,.23,1.43,1.43,0,0,0,0,.22c0,.12,0,.24,0,.37v0a15.77,15.77,0,0,0,31.54,0,.06.06,0,0,1,0,0c0-.13,0-.25,0-.37a1.43,1.43,0,0,0,0-.22c0-.08,0-.15,0-.23l-8.18-38.44h21v70.94H86.56a2.14,2.14,0,1,0,0,4.27h88.88a2.14,2.14,0,1,0,0-4.27ZM165,42.37l7.82,36.75H150.73l7.81-36.75Zm-3.22,50.42a11.55,11.55,0,0,1-11.34-9.4h22.68A11.55,11.55,0,0,1,161.77,92.79Zm-61.54,0a11.55,11.55,0,0,1-11.34-9.4h22.68A11.55,11.55,0,0,1,100.23,92.79Zm11-13.67H89.19L97,42.37h6.45Z"/></svg>