<svg id="ad5d2429-e18e-437a-b2cc-eb07430c9023" data-name="Layer 1" xmlns="http://www.w3.org/2000/svg" viewBox="0 0 262 142"><defs><style>.e63461bb-c6d0-4e63-a9bc-cff31a05c5fc{fill:#e00;}</style></defs><path class="e63461bb-c6d0-4e63-a9bc-cff31a05c5fc" d="M177.76,42.26c-8.11-17-31.13-23.38-46.87-13.07C97.34,9.82,63.43,52.66,90.48,80.84c-.65,5.22,4.25,10.39,9.59,9.72-.78,5.13,4.11,10.43,9.33,9.86-1.07,6.37,6.12,12.18,12.17,9.49.63,7.45,10.72,10.69,15.63,4.93l34-34A32.73,32.73,0,0,0,177.76,42.26ZM85.05,57.45C84.7,32.21,116.53,19,134.17,37.11L150,52.88c4.31,4.44-2.32,11.2-6.67,6.72L127.5,43.82a2.23,2.23,0,0,0-2.4-.42c-3.18,2.84-6.92,5-11.33,4.85a15,15,0,0,1-10.67-4.43,2.14,2.14,0,0,0-3,3A18.76,18.76,0,0,0,116,52.32L92.88,75.38a6.9,6.9,0,0,0-.74,1A28.56,28.56,0,0,1,85.05,57.45ZM168.19,77.8l-34,34a4.75,4.75,0,1,1-7.28-6.11l10.31-10.3a2.14,2.14,0,1,0-3-3l-12.12,12.12c-4.52,5.2-11.89-2.11-6.71-6.68L127.5,85.67a2.14,2.14,0,1,0-3-3L112.31,94.81c-4.37,4.34-11-2.29-6.67-6.67,0,0,12.12-12.16,12.12-12.17,2-1.92-1.09-5-3-3L102.66,85.07c-4.38,4.1-10.81-2.34-6.71-6.72l30-30L139.8,62.17a2.09,2.09,0,0,0,.29.44c8.6,8.29,21.07-4,12.89-12.74h0s-17-17-17-17a10.36,10.36,0,0,1-1.21-1C164.15,16.52,191.89,54.51,168.19,77.8Z"/></svg>