<svg id="ffea8f7a-ade8-4f9e-b0ae-9589a757d78f" data-name="Layer 1" xmlns="http://www.w3.org/2000/svg" viewBox="0 0 262 142"><defs><style>.a35ad71b-a81f-4568-a2c0-a1c4e91a0056{fill:#e00;}</style></defs><path class="a35ad71b-a81f-4568-a2c0-a1c4e91a0056" d="M161.81,51.77c-25.42.81-25.41,37.66,0,38.46C187.22,89.42,187.21,52.57,161.81,51.77Zm0,34.19C142,85.33,142,56.67,161.81,56,181.57,56.67,181.57,85.33,161.81,86Z"/><path class="a35ad71b-a81f-4568-a2c0-a1c4e91a0056" d="M90,58.61c-11.83.31-11.83,17.64,0,18C101.84,76.24,101.84,58.92,90,58.61Zm0,13.67c-6.18-.11-6.18-9.29,0-9.4C96.19,63,96.19,72.17,90,72.28Z"/><path class="a35ad71b-a81f-4568-a2c0-a1c4e91a0056" d="M110.52,69.72c11.84-.31,11.83-17.64,0-17.95C98.69,52.08,98.69,69.41,110.52,69.72Zm0-13.68c6.18.11,6.18,9.29,0,9.4C104.35,65.33,104.35,56.15,110.52,56Z"/><path class="a35ad71b-a81f-4568-a2c0-a1c4e91a0056" d="M116.08,81.26c-.31-11.84-17.64-11.83-18,0C98.44,93.09,115.77,93.09,116.08,81.26Zm-13.68,0c.11-6.18,9.3-6.18,9.41,0C111.69,87.43,102.51,87.43,102.4,81.26Z"/><path class="a35ad71b-a81f-4568-a2c0-a1c4e91a0056" d="M121.6,69a2.14,2.14,0,1,0-.82,4.13A2.16,2.16,0,0,0,121.6,69Z"/><path class="a35ad71b-a81f-4568-a2c0-a1c4e91a0056" d="M96,55.89c2.57,1.06,4.2-2.88,1.64-4S93.49,54.78,96,55.89Z"/><path class="a35ad71b-a81f-4568-a2c0-a1c4e91a0056" d="M88.51,83.17c-2,1.91,1.1,5,3,3S90.46,81.22,88.51,83.17Z"/><path class="a35ad71b-a81f-4568-a2c0-a1c4e91a0056" d="M105.24,46.65c13.29-14.73,38.3-14.73,51.59,0,1.86,2.05,5-.94,3.11-2.93-14.9-16.51-42.91-16.51-57.81,0C100.22,45.71,103.36,48.71,105.24,46.65Z"/><path class="a35ad71b-a81f-4568-a2c0-a1c4e91a0056" d="M156.83,95.35c-13.29,14.73-38.3,14.73-51.59,0-1.86-2-5,.94-3.11,2.93,14.9,16.51,42.91,16.51,57.81,0C161.86,96.29,158.72,93.3,156.83,95.35Z"/></svg>