<svg id="f094808f-84b5-4674-a57f-d359df6c409b" data-name="Layer 1" xmlns="http://www.w3.org/2000/svg" viewBox="0 0 262 142"><defs><style>.ad85f95a-827a-4f11-b913-d66f33619923{fill:#e00;}</style></defs><path class="ad85f95a-827a-4f11-b913-d66f33619923" d="M131,24.42A36.36,36.36,0,0,0,94.68,60.74v41a15.81,15.81,0,0,0,31.62,0V76.24a2.34,2.34,0,0,0-1.19-1.91,13.25,13.25,0,1,1,11.78,0,2.34,2.34,0,0,0-1.19,1.91v25.53a15.81,15.81,0,0,0,31.62,0v-41A36.36,36.36,0,0,0,131,24.42Zm9,62.39h23.08v9.4H140ZM122,96.21H99v-9.4H122Zm-11.54,17.1A11.56,11.56,0,0,1,99,101.77v-1.28H122v1.28A11.56,11.56,0,0,1,110.49,113.31Zm3-50.86a17.4,17.4,0,0,0,8.55,15v5.08H99V60.74A32.07,32.07,0,0,1,128.86,28.8V45.15A17.48,17.48,0,0,0,113.48,62.45Zm35,0a17.48,17.48,0,0,0-15.38-17.3V28.8a32.07,32.07,0,0,1,29.91,31.94v21.8H140V77.46A17.4,17.4,0,0,0,148.52,62.45Zm3,50.86A11.56,11.56,0,0,1,140,101.77v-1.28h23.08v1.28A11.56,11.56,0,0,1,151.51,113.31Z"/></svg>