<svg xmlns="http://www.w3.org/2000/svg" width="555" height="180" viewBox="0 0 555 180"><defs><style>.a{fill:#e00;}</style></defs><path d="M90.7723,101.1618h1.0791v8.8525h5.5332v.9527H90.7723Z"/><path d="M102.9129,111.1213a5.06,5.06,0,1,1,4.875-5.0572A4.93,4.93,0,0,1,102.9129,111.1213Zm0-9.1333a4.0876,4.0876,0,1,0,3.7823,4.0761A3.8836,3.8836,0,0,0,102.9129,101.988Z"/><path d="M109.826,101.1618h4.0205a2.822,2.822,0,0,1,3.1241,2.83,2.6692,2.6692,0,0,1-2.0459,2.6474l2.0878,4.3282h-1.1914l-1.9882-4.1885h-2.9278v4.1885H109.826Zm1.0791.9526v3.7676h2.8574a1.8979,1.8979,0,1,0,0-3.7676Z"/><path d="M118.8836,101.1618H125.58V102.1h-5.6172v3.4458h3.8936v.9384h-3.8936v3.544h5.6729v.9385h-6.752Z"/><path d="M128.5584,102.4084v8.5586H127.55v-9.8052h1.499l3.2783,6.9756,3.2773-6.9756h1.4991v9.8052h-1.0225v-8.5308l-3.7539,7.8306Z"/><path d="M142.8377,101.1618h1.0782v9.8052h-1.0782Z"/><path d="M146.3934,101.1618h4.0479a2.9075,2.9075,0,1,1,0,5.7988h-2.97v4.0064h-1.0781Zm1.0781.9526v3.9219h2.8438a1.9711,1.9711,0,1,0,0-3.9219Z"/><path d="M155.493,108.6559a4.5669,4.5669,0,0,0,3.39,1.5269c1.5127,0,2.62-.8408,2.62-1.9751,0-.981-.5889-1.4429-2.1856-1.7232l-1.583-.2661c-1.7929-.3222-2.5918-1.0644-2.5918-2.3813,0-1.6529,1.3731-2.8013,3.3623-2.8013a6.4109,6.4109,0,0,1,3.88,1.2466l-.5605.84a5.5416,5.5416,0,0,0-3.3057-1.1767c-1.3721,0-2.3389.7563-2.3389,1.7793,0,.8681.5323,1.3164,1.8487,1.5268l1.5693.2661c2.0869.378,2.9834,1.1626,2.9834,2.6333,0,1.6949-1.5693,2.9556-3.7256,2.9556a5.64,5.64,0,0,1-4.02-1.667Z"/><path d="M168.1512,111.1213c-2.4238,0-3.9365-1.6534-3.9365-4.3008v-5.6587h1.0791v5.6587c0,2.0176,1.12,3.32,2.8574,3.32s2.8574-1.3022,2.8574-3.32v-5.6587h1.0782v5.6587C172.0868,109.4543,170.56,111.1213,168.1512,111.1213Z"/><path d="M175.3875,102.4084v8.5586h-1.0087v-9.8052h1.499l3.2773,6.9756,3.2783-6.9756h1.4981v9.8052H182.909v-8.5308l-3.7539,7.8306Z"/><path d="M189.6942,101.1618h3.25a4.9026,4.9026,0,0,1,0,9.8052h-3.25Zm1.0781.9663v7.8725h2.2412a3.9414,3.9414,0,0,0,0-7.8725Z"/><path d="M204.3123,111.1213a5.06,5.06,0,1,1,4.875-5.0572A4.93,4.93,0,0,1,204.3123,111.1213Zm0-9.1333a4.0876,4.0876,0,1,0,3.7823,4.0761A3.8836,3.8836,0,0,0,204.3123,101.988Z"/><path d="M211.2254,101.1618h1.0791v8.8525h5.5332v.9527h-6.6123Z"/><path d="M223.3661,111.1213a5.06,5.06,0,1,1,4.875-5.0572A4.9295,4.9295,0,0,1,223.3661,111.1213Zm0-9.1333a4.0876,4.0876,0,1,0,3.7822,4.0761A3.8837,3.8837,0,0,0,223.3661,101.988Z"/><path d="M230.2791,101.1618H234.3a2.8219,2.8219,0,0,1,3.124,2.83,2.6692,2.6692,0,0,1-2.0459,2.6474l2.0879,4.3282h-1.1914l-1.9883-4.1885h-2.9278v4.1885h-1.0791Zm1.0791.9526v3.7676h2.8575a1.8979,1.8979,0,1,0,0-3.7676Z"/><path d="M242.4032,108.6559a4.5638,4.5638,0,0,0,3.39,1.5269c1.5127,0,2.6192-.8408,2.6192-1.9751,0-.981-.5879-1.4429-2.1856-1.7232l-1.582-.2661c-1.793-.3222-2.5918-1.0644-2.5918-2.3813,0-1.6529,1.373-2.8013,3.3613-2.8013a6.4142,6.4142,0,0,1,3.8809,1.2466l-.5606.84a5.5436,5.5436,0,0,0-3.3056-1.1767c-1.3731,0-2.34.7563-2.34,1.7793,0,.8681.5322,1.3164,1.85,1.5268l1.5684.2661c2.0869.378,2.9834,1.1626,2.9834,2.6333,0,1.6949-1.5684,2.9556-3.7256,2.9556a5.6418,5.6418,0,0,1-4.02-1.667Z"/><path d="M251.2928,101.1618h1.0781v9.8052h-1.0781Z"/><path d="M253.994,101.1618h7.8437v.9526h-3.375v8.8526h-1.0791v-8.8526h-3.39Z"/><path d="M269.5077,101.1618h1.288l3.8243,9.8052h-1.1621l-1.1631-3.0816h-4.37l-1.1631,3.0816h-1.1348Zm2.4648,5.8691-1.8633-4.9028-1.8486,4.9028Z"/><path d="M276.9959,102.4084v8.5586h-1.0087v-9.8052h1.499l3.2783,6.9756,3.2773-6.9756h1.4991v9.8052h-1.0225v-8.5308l-3.7539,7.8306Z"/><path d="M288.0409,101.1618h6.6963V102.1H289.12v3.4458h3.8935v.9384H289.12v3.544h5.6728v.9385h-6.7519Z"/><path d="M295.8524,101.1618h7.8447v.9526h-3.376v8.8526H299.243v-8.8526h-3.3906Z"/><path d="M305.3319,109.93l-1.1348,3.2359h-.7978l.84-3.2359Z"/><path d="M318.1024,108.7956l.7.7143a5.0415,5.0415,0,1,1,.0283-6.8916l-.7139.7427a4.0008,4.0008,0,1,0-2.956,6.7793A3.84,3.84,0,0,0,318.1024,108.7956Z"/><path d="M324.9891,111.1213a5.06,5.06,0,1,1,4.875-5.0572A4.9295,4.9295,0,0,1,324.9891,111.1213Zm0-9.1333a4.0876,4.0876,0,1,0,3.7822,4.0761A3.8836,3.8836,0,0,0,324.9891,101.988Z"/><path d="M333.0233,101.1618l5.7432,8.1245-.0284-8.1245h1.0225v9.8052H338.78l-5.8828-8.3067.0274,8.3067h-1.0225v-9.8052Z"/><path d="M342.0526,108.6559a4.5667,4.5667,0,0,0,3.39,1.5269c1.5127,0,2.62-.8408,2.62-1.9751,0-.981-.5888-1.4429-2.1855-1.7232l-1.583-.2661c-1.793-.3222-2.5918-1.0644-2.5918-2.3813,0-1.6529,1.373-2.8013,3.3623-2.8013a6.4113,6.4113,0,0,1,3.88,1.2466l-.5606.84a5.5413,5.5413,0,0,0-3.3056-1.1767c-1.3721,0-2.3389.7563-2.3389,1.7793,0,.8681.5322,1.3164,1.8486,1.5268l1.5694.2661c2.0869.378,2.9834,1.1626,2.9834,2.6333,0,1.6949-1.5694,2.9556-3.7256,2.9556a5.64,5.64,0,0,1-4.02-1.667Z"/><path d="M350.9706,101.1618h6.6953V102.1h-5.6172v3.4458h3.8945v.9384h-3.8945v3.544h5.6738v.9385h-6.7519Z"/><path d="M366.5848,108.7956l.7.7143a5.0415,5.0415,0,1,1,.0283-6.8916l-.7148.7427a4.0008,4.0008,0,1,0-2.9551,6.7793A3.8432,3.8432,0,0,0,366.5848,108.7956Z"/><path d="M368.54,101.1618h7.8437v.9526h-3.375v8.8526H371.93v-8.8526h-3.39Z"/><path d="M378.0321,101.1618h6.6953V102.1H379.11v3.4458h3.8945v.9384H379.11v3.544h5.6738v.9385h-6.7519Z"/><path d="M385.8436,101.1618h7.8437v.9526h-3.375v8.8526h-1.0791v-8.8526h-3.39Z"/><path d="M399.076,111.1213c-2.4238,0-3.9365-1.6534-3.9365-4.3008v-5.6587h1.0791v5.6587c0,2.0176,1.12,3.32,2.8574,3.32s2.8574-1.3022,2.8574-3.32v-5.6587h1.0782v5.6587C403.0116,109.4543,401.4852,111.1213,399.076,111.1213Z"/><path d="M405.3036,101.1618h6.6953V102.1h-5.6172v3.4458h3.8945v.9384h-3.8945v3.544h5.6738v.9385h-6.7519Z"/><path d="M413.97,101.1618h4.02a2.8211,2.8211,0,0,1,3.123,2.83,2.6682,2.6682,0,0,1-2.0449,2.6474l2.0869,4.3282h-1.19l-1.9893-4.1885h-2.9277v4.1885H413.97Zm1.0781.9526v3.7676h2.8574a1.898,1.898,0,1,0,0-3.7676Z"/><path d="M93.5321,119.5622h1.289l3.8243,9.8051H97.4823l-1.1631-3.0815h-4.37l-1.1621,3.0815H89.6522Zm2.4658,5.8691-1.8633-4.9028-1.85,4.9028Z"/><path d="M100.0125,119.5622h3.25a4.9026,4.9026,0,0,1,0,9.8051h-3.25Zm1.0782.9663v7.8725h2.2412a3.9414,3.9414,0,0,0,0-7.8725Z"/><path d="M110.1766,119.5622h1.0781v9.8051h-1.0781Z"/><path d="M113.7323,119.5622H117.78a2.9075,2.9075,0,1,1,0,5.7988h-2.97v4.0063h-1.0781Zm1.0781.9526v3.9219h2.8437a1.9711,1.9711,0,1,0,0-3.9219Z"/><path d="M122.86,119.5622h1.0781v9.8051H122.86Z"/><path d="M126.22,127.0563a4.5667,4.5667,0,0,0,3.39,1.5269c1.5127,0,2.62-.8409,2.62-1.9751,0-.981-.5888-1.4429-2.1855-1.7232l-1.583-.2661c-1.793-.3223-2.5918-1.0644-2.5918-2.3813,0-1.6529,1.373-2.8013,3.3623-2.8013a6.4113,6.4113,0,0,1,3.88,1.2466l-.5606.84a5.5413,5.5413,0,0,0-3.3056-1.1767c-1.3721,0-2.3389.7563-2.3389,1.7792,0,.8682.5322,1.3165,1.8486,1.5269l1.5694.2661c2.0869.3779,2.9834,1.1626,2.9834,2.6333,0,1.6948-1.5694,2.9556-3.7256,2.9556a5.64,5.64,0,0,1-4.02-1.667Z"/><path d="M142.6317,127.196l.7.7143a5.0415,5.0415,0,1,1,.0283-6.8916l-.7148.7427a4.0008,4.0008,0,1,0-2.9551,6.7793A3.8434,3.8434,0,0,0,142.6317,127.196Z"/><path d="M145.2733,119.5622h1.0791v9.8051h-1.0791Z"/><path d="M149.95,119.5622l5.7432,8.1245-.0283-8.1245h1.0224v9.8051h-.98l-5.8828-8.3066.0273,8.3066H148.829v-9.8051Z"/><path d="M163.6864,129.5216a5.0577,5.0577,0,0,1-.0147-10.1137,5.0326,5.0326,0,0,1,3.8242,1.6108l-.7285.7285a4.0666,4.0666,0,0,0-3.0957-1.3589,4.0893,4.0893,0,0,0,0,8.1665,3.5682,3.5682,0,0,0,3.586-3.3618H163.952V124.24H168.35v.4346A4.6793,4.6793,0,0,1,163.6864,129.5216Z"/><path d="M173.6229,119.5622h6.6963v.9384H174.702v3.4458h3.8936v.9385H174.702v3.544h5.6728v.9384h-6.7519Z"/><path d="M182.2889,119.5622h1.0791v8.8525h5.5332v.9526h-6.6123Z"/><path d="M190.76,119.5622h1.0781v9.8051H190.76Z"/><path d="M193.4608,119.5622h7.8437v.9526H197.93v8.8525H196.85v-8.8525h-3.39Z"/><path d="M202.9393,128.3307l-1.1348,3.2359h-.7978l.84-3.2359Z"/><path d="M208.02,127.0563a4.5636,4.5636,0,0,0,3.39,1.5269c1.5127,0,2.6191-.8409,2.6191-1.9751,0-.981-.5878-1.4429-2.1855-1.7232l-1.582-.2661c-1.793-.3223-2.5918-1.0644-2.5918-2.3813,0-1.6529,1.373-2.8013,3.3613-2.8013a6.4142,6.4142,0,0,1,3.8809,1.2466l-.5606.84a5.5436,5.5436,0,0,0-3.3057-1.1767c-1.373,0-2.34.7563-2.34,1.7792,0,.8682.5322,1.3165,1.85,1.5269l1.5684.2661c2.0869.3779,2.9834,1.1626,2.9834,2.6333,0,1.6948-1.5684,2.9556-3.7256,2.9556a5.6418,5.6418,0,0,1-4.02-1.667Z"/><path d="M216.9373,119.5622h6.6963v.9384h-5.6171v3.4458H221.91v.9385h-3.8935v3.544h5.6728v.9384h-6.752Z"/><path d="M225.6034,119.5622h3.25a4.9026,4.9026,0,0,1,0,9.8051h-3.25Zm1.0791.9663v7.8725h2.2412a3.9414,3.9414,0,0,0,0-7.8725Z"/><path d="M239.0575,119.5622h3.25a4.9026,4.9026,0,0,1,0,9.8051h-3.25Zm1.0781.9663v7.8725h2.2412a3.9414,3.9414,0,0,0,0-7.8725Z"/><path d="M249.2215,119.5622H250.3v9.8051h-1.0782Z"/><path d="M255.537,119.5622h1.288l3.8243,9.8051h-1.1621l-1.1631-3.0815h-4.37l-1.1631,3.0815h-1.1348Zm2.4648,5.8691-1.8633-4.9028-1.8486,4.9028Z"/><path d="M263.0252,120.8088v8.5585h-1.0087v-9.8051h1.499l3.2783,6.9756,3.2773-6.9756H271.57v9.8051h-1.0225v-8.5307l-3.7539,7.8306Z"/><path d="M278.453,119.5622l5.7431,8.1245-.0283-8.1245H285.19v9.8051H284.21l-5.8828-8.3066.0273,8.3066h-1.0224v-9.8051Z"/><path d="M292.1043,129.5216a5.06,5.06,0,1,1,4.875-5.0571A4.9292,4.9292,0,0,1,292.1043,129.5216Zm0-9.1333a4.0876,4.0876,0,1,0,3.7823,4.0762A3.8828,3.8828,0,0,0,292.1043,120.3883Z"/><path d="M300.1385,119.5622l5.7432,8.1245-.0274-8.1245h1.0225v9.8051h-.9805l-5.8838-8.3066.0284,8.3066h-1.0225v-9.8051Z"/><path d="M313.1043,129.5216c-2.4228,0-3.9355-1.6533-3.9355-4.3007v-5.6587h1.0781v5.6587c0,2.0175,1.1211,3.32,2.8574,3.32s2.8575-1.3023,2.8575-3.32v-5.6587h1.0791v5.6587C317.0409,127.8547,315.5135,129.5216,313.1043,129.5216Z"/><path d="M320.3407,120.8088v8.5585h-1.0088v-9.8051h1.499l3.2783,6.9756,3.2774-6.9756h1.499v9.8051h-1.0225v-8.5307l-3.7539,7.8306Z"/><path d="M332.3944,120.8088v8.5585h-1.0088v-9.8051h1.499l3.2783,6.9756,3.2774-6.9756h1.499v9.8051h-1.0225v-8.5307l-3.7539,7.8306Z"/><path d="M346.1707,125.361l-3.81-5.7988h1.2607l3.1231,4.86,3.1377-4.86h1.1914l-3.8243,5.8271v3.978h-1.0791Z"/><path d="M356.8661,119.5622l5.7431,8.1245-.0283-8.1245h1.0225v9.8051h-.9805l-5.8828-8.3066.0273,8.3066H355.745v-9.8051Z"/><path d="M366.0633,119.5622h1.0791v9.8051h-1.0791Z"/><path d="M373.5838,119.5622c1.793,0,2.9551.98,2.9551,2.4931a2.2667,2.2667,0,0,1-1.7363,2.2134,2.4341,2.4341,0,0,1,2.1142,2.3814c0,1.6386-1.26,2.7172-3.18,2.7172H369.619v-9.8051Zm-2.8857.9243v3.3618H373.5c1.19,0,1.961-.6582,1.961-1.6807s-.7705-1.6811-1.961-1.6811Zm5.1269,6.0933c0-1.1207-.8544-1.8492-2.1992-1.8492h-2.9277v3.7124h2.9277C374.9559,128.443,375.825,127.7,375.825,126.58Z"/><path d="M378.9715,119.5622H380.05v4.3842h5.6308v-4.3842H386.76v9.8051h-1.0791v-4.4545H380.05v4.4545h-1.0782Z"/><path d="M392.48,119.5622h6.6963v.9384h-5.6172v3.4458h3.8936v.9385h-3.8936v3.544h5.6729v.9384H392.48Z"/><path d="M404.8866,129.5216c-2.4229,0-3.9356-1.6533-3.9356-4.3007v-5.6587h1.0781v5.6587c0,2.0175,1.1211,3.32,2.8575,3.32s2.8574-1.3023,2.8574-3.32v-5.6587h1.0791v5.6587C408.8231,127.8547,407.2957,129.5216,404.8866,129.5216Z"/><path d="M411.0868,119.5622h1.0781v9.8051h-1.0781Z"/><path d="M414.4461,127.0563a4.567,4.567,0,0,0,3.39,1.5269c1.5127,0,2.62-.8409,2.62-1.9751,0-.981-.5889-1.4429-2.1855-1.7232l-1.5831-.2661c-1.7929-.3223-2.5917-1.0644-2.5917-2.3813,0-1.6529,1.373-2.8013,3.3623-2.8013a6.4108,6.4108,0,0,1,3.88,1.2466l-.56.84a5.5413,5.5413,0,0,0-3.3057-1.1767c-1.372,0-2.3388.7563-2.3388,1.7792,0,.8682.5322,1.3165,1.8486,1.5269l1.5693.2661c2.0869.3779,2.9834,1.1626,2.9834,2.6333,0,1.6948-1.5693,2.9556-3.7256,2.9556a5.64,5.64,0,0,1-4.0205-1.667Z"/><path d="M424.3729,120.8088v8.5585h-1.0088v-9.8051h1.499l3.2774,6.9756,3.2783-6.9756h1.499v9.8051h-1.0234v-8.5307l-3.7539,7.8306Z"/><path d="M439.8446,129.5216a5.06,5.06,0,1,1,4.875-5.0571A4.9292,4.9292,0,0,1,439.8446,129.5216Zm0-9.1333a4.0876,4.0876,0,1,0,3.7822,4.0762A3.8837,3.8837,0,0,0,439.8446,120.3883Z"/><path d="M446.7586,119.5622h3.2491a4.9026,4.9026,0,1,1,0,9.8051h-3.2491Zm1.0782.9663v7.8725h2.2412a3.9414,3.9414,0,0,0,0-7.8725Z"/><path d="M89.9178,137.9621h7.8447v.9521H94.3866v8.8531H93.3084v-8.8531H89.9178Z"/><path d="M99.3827,137.9621h1.0781v9.8052H99.3827Z"/><path d="M104.0584,137.9621l5.7432,8.124-.0273-8.124h1.0224v9.8052h-.98l-5.8838-8.3067.0283,8.3067h-1.0225v-9.8052Z"/><path d="M120.7782,145.5959l.7.7148a5.0417,5.0417,0,1,1,.0283-6.8921l-.7139.7427a4.0008,4.0008,0,1,0-2.956,6.7793A3.84,3.84,0,0,0,120.7782,145.5959Z"/><path d="M123.4207,137.9621h1.0782v9.8052h-1.0782Z"/><path d="M126.9764,137.9621h3.25a4.9026,4.9026,0,0,1,0,9.8052h-3.25Zm1.0781.9663v7.8725h2.2412a3.9414,3.9414,0,0,0,0-7.8725Z"/><path d="M140.9081,147.9215c-2.4229,0-3.9356-1.6533-3.9356-4.3v-5.6592h1.0781v5.6592c0,2.0166,1.1211,3.3193,2.8575,3.3193s2.8574-1.3027,2.8574-3.3193v-5.6592h1.0791v5.6592C144.8446,146.2546,143.3172,147.9215,140.9081,147.9215Z"/><path d="M148.2567,137.9621,154,146.0861l-.0283-8.124h1.0225v9.8052h-.9805l-5.8828-8.3067.0274,8.3067h-1.0225v-9.8052Z"/><path d="M156.6278,137.9621h7.8437v.9521h-3.375v8.8531h-1.0791v-8.8531h-3.39Z"/><path d="M173.1219,147.9215c-2.4238,0-3.9365-1.6533-3.9365-4.3v-5.6592h1.0791v5.6592c0,2.0166,1.12,3.3193,2.8574,3.3193s2.8574-1.3027,2.8574-3.3193v-5.6592h1.0782v5.6592C177.0575,146.2546,175.5311,147.9215,173.1219,147.9215Z"/><path d="M178.495,137.9621h7.8437v.9521h-3.375v8.8531h-1.0791v-8.8531h-3.39Z"/><path d="M191.2489,137.9621h1.0781v8.8525H197.86v.9527h-6.6113Z"/><path d="M202.8143,137.9621h1.2881l3.8242,9.8052h-1.1621l-1.1631-3.0816h-4.37l-1.1631,3.0816h-1.1348Zm2.4648,5.8691-1.8632-4.9028-1.8487,4.9028Z"/><path d="M213.287,147.9215a5.06,5.06,0,1,1,4.875-5.0571A4.9294,4.9294,0,0,1,213.287,147.9215Zm0-9.1333a4.0876,4.0876,0,1,0,3.7822,4.0762A3.8837,3.8837,0,0,0,213.287,138.7882Z"/><path d="M220.2,137.9621h4.0206a2.8219,2.8219,0,0,1,3.124,2.83,2.6692,2.6692,0,0,1-2.0459,2.6474l2.0879,4.3282h-1.1914l-1.9883-4.1885h-2.9278v4.1885H220.2Zm1.0791.9521v3.7681h2.8575a1.8981,1.8981,0,1,0,0-3.7681Z"/><path d="M229.2577,137.9621h6.6963v.9385h-5.6172v3.4458H234.23v.9384h-3.8935v3.544H236.01v.9385h-6.7519Z"/><path d="M237.9237,137.9621H244.62v.9385h-5.6172v3.4458h3.8935v.9384h-3.8935v3.544h5.6728v.9385h-6.7519Z"/><path d="M245.7352,137.9621H253.58v.9521H250.204v8.8531h-1.0782v-8.8531h-3.3906Z"/><path d="M258.4891,137.9621h3.25a4.9026,4.9026,0,0,1,0,9.8052h-3.25Zm1.0791.9663v7.8725h2.2412a3.9414,3.9414,0,0,0,0-7.8725Z"/><path d="M273.1073,147.9215a5.06,5.06,0,1,1,4.875-5.0571A4.9293,4.9293,0,0,1,273.1073,147.9215Zm0-9.1333a4.0876,4.0876,0,1,0,3.7822,4.0762A3.8829,3.8829,0,0,0,273.1073,138.7882Z"/><path d="M280.0213,137.9621H281.1v8.8525h5.5332v.9527h-6.6114Z"/><path d="M292.161,147.9215a5.06,5.06,0,1,1,4.875-5.0571A4.9292,4.9292,0,0,1,292.161,147.9215Zm0-9.1333a4.0876,4.0876,0,1,0,3.7822,4.0762A3.8829,3.8829,0,0,0,292.161,138.7882Z"/><path d="M299.075,137.9621h4.0206a2.8211,2.8211,0,0,1,3.123,2.83,2.6683,2.6683,0,0,1-2.0449,2.6474l2.0869,4.3282h-1.19l-1.9893-4.1885h-2.9277v4.1885H299.075Zm1.0782.9521v3.7681h2.8574a1.8982,1.8982,0,1,0,0-3.7681Z"/><path d="M308.1327,137.9621h6.6953v.9385h-5.6172v3.4458h3.8945v.9384h-3.8945v3.544h5.6738v.9385h-6.7519Z"/><path d="M321.0692,139.2087v8.5586H320.06v-9.8052h1.499l3.2774,6.9756,3.2783-6.9756h1.498v9.8052h-1.0224v-8.5308l-3.7539,7.8306Z"/><path d="M334.8739,137.9621h1.2881l3.8242,9.8052h-1.1621l-1.1631-3.0816h-4.37l-1.1631,3.0816H330.993Zm2.4648,5.8691-1.8633-4.9028-1.8486,4.9028Z"/><path d="M345.4305,147.9215a5.0577,5.0577,0,0,1-.0137-10.1137,5.0345,5.0345,0,0,1,3.8243,1.6108l-.7286.7285a4.0666,4.0666,0,0,0-3.0957-1.3589,4.0894,4.0894,0,0,0,0,8.1666,3.569,3.569,0,0,0,3.586-3.3619h-3.3057V142.64h4.3985v.4346A4.68,4.68,0,0,1,345.4305,147.9215Z"/><path d="M353.2264,137.9621l5.7432,8.124-.0274-8.124h1.0225v9.8052h-.9805L353.1,139.4606l.0284,8.3067h-1.0225v-9.8052Z"/><path d="M365.2118,137.9621h1.289l3.8242,9.8052h-1.163l-1.1631-3.0816h-4.37l-1.1622,3.0816h-1.1347Zm2.4658,5.8691-1.8633-4.9028-1.85,4.9028Z"/><path d="M377.7137,137.9621h1.2881l3.8242,9.8052h-1.1621l-1.1631-3.0816h-4.37l-1.1631,3.0816h-1.1347Zm2.4649,5.8691-1.8633-4.9028-1.8487,4.9028Z"/><path d="M384.1932,137.9621h1.0791v8.8525h5.5332v.9527h-6.6123Z"/><path d="M392.6639,137.9621h1.0781v9.8052h-1.0781Z"/><path d="M403.9657,146.5905l.9248,1.0366-.7852.6026-.91-1.0367a4.7917,4.7917,0,0,1-2.55.7285,5.06,5.06,0,1,1,4.875-5.0571A5.108,5.108,0,0,1,403.9657,146.5905Zm-.6866-.77a4.1934,4.1934,0,0,0,1.1485-2.9556,3.7924,3.7924,0,1,0-3.7822,4.0762,3.635,3.635,0,0,0,1.8632-.5039l-1.3164-1.4849.7842-.6025Z"/><path d="M411.285,147.9215c-2.4228,0-3.9355-1.6533-3.9355-4.3v-5.6592h1.0781v5.6592c0,2.0166,1.1211,3.3193,2.8574,3.3193s2.8574-1.3027,2.8574-3.3193v-5.6592h1.0791v5.6592C415.2215,146.2546,413.6942,147.9215,411.285,147.9215Z"/><path d="M419.9784,137.9621h1.289l3.8242,9.8052h-1.163l-1.1631-3.0816h-4.37l-1.1622,3.0816h-1.1347Zm2.4658,5.8691-1.8633-4.9028-1.85,4.9028Z"/><path d="M427.4676,139.2087v8.5586h-1.0088v-9.8052h1.4991l3.2773,6.9756,3.2783-6.9756h1.499v9.8052h-1.0234v-8.5308l-3.7539,7.8306Z"/><path d="M439.536,147.109a.7356.7356,0,1,1-.7285-.7563A.7515.7515,0,0,1,439.536,147.109Z"/><path class="a" d="M89.9344,35.2629h14.33v2.2319H98.3592V52.0641h-2.52V37.4948H89.9344Z"/><path class="a" d="M106.3748,35.2629h2.5206v7.2h8.9287v-7.2h2.52V52.0641h-2.52V44.7433h-8.9287v7.3208h-2.5206Z"/><path class="a" d="M123.7743,35.2629h2.52V52.0641h-2.52Z"/><path class="a" d="M129.7508,47.5036a8.1071,8.1071,0,0,0,5.7842,2.64c2.4248,0,4.08-1.1518,4.08-2.8081,0-1.4878-.96-2.2319-3.4082-2.64l-2.8076-.4561c-3.0723-.5039-4.585-1.9443-4.585-4.3681,0-2.9283,2.4482-4.8248,6.1924-4.8248a11.2772,11.2772,0,0,1,6.7695,2.28l-1.3926,1.92a8.9247,8.9247,0,0,0-5.4961-2.0644c-2.1855,0-3.6484,1.0083-3.6484,2.4961,0,1.3681.84,2.0166,3,2.3764l2.7119.4322c3.5518.5756,5.1612,2.04,5.1612,4.6562,0,3.0962-2.69,5.1607-6.6973,5.1607a10.1233,10.1233,0,0,1-7.2012-3.0245Z"/><path class="a" d="M149.454,35.2629h2.52V52.0641h-2.52Z"/><path class="a" d="M155.43,47.5036a8.109,8.109,0,0,0,5.7842,2.64c2.4248,0,4.08-1.1518,4.08-2.8081,0-1.4878-.959-2.2319-3.4082-2.64l-2.8076-.4561c-3.0723-.5039-4.585-1.9443-4.585-4.3681,0-2.9283,2.4492-4.8248,6.1934-4.8248a11.2743,11.2743,0,0,1,6.7685,2.28l-1.3926,1.92a8.92,8.92,0,0,0-5.496-2.0644c-2.1846,0-3.6485,1.0083-3.6485,2.4961,0,1.3681.84,2.0166,3,2.3764l2.7119.4322c3.5528.5756,5.1612,2.04,5.1612,4.6562,0,3.0962-2.6885,5.1607-6.6963,5.1607a10.12,10.12,0,0,1-7.2012-3.0245Z"/><path class="a" d="M180.4139,35.2629h2.9522l6.8652,16.8012H187.495l-1.9444-4.92h-7.5127l-1.9687,4.92H173.454Zm4.3213,9.7924-2.9287-7.3686-2.9287,7.3686Z"/><path class="a" d="M196.9735,35.2629h2.5195v7.2h8.93v-7.2h2.52V52.0641h-2.52V44.7433h-8.93v7.3208h-2.5195Z"/><path class="a" d="M214.3729,35.2629h12.3857v2.208h-9.8652v5.0405h6.48v2.16h-6.48v5.1846h9.9609v2.208H214.3729Z"/><path class="a" d="M235.1082,35.2629h2.9532l6.8642,16.8012H242.19l-1.9453-4.92h-7.5118l-1.9687,4.92h-2.6162Zm4.3213,9.7924-2.9287-7.3686-2.9277,7.3686Z"/><path class="a" d="M246.6522,35.2629h5.9287c5.0645,0,8.8564,3.5761,8.8564,8.4243,0,4.8008-3.7685,8.3769-8.8564,8.3769h-5.9287Zm2.52,2.2558V49.8078h3.4561a6.145,6.145,0,1,0,0-12.2891Z"/><path class="a" d="M264.1239,35.2629h2.5205V49.8317h9.6728v2.2324H264.1239Z"/><path class="a" d="M278.86,35.2629h2.52V52.0641h-2.52Z"/><path class="a" d="M287.284,35.2629l9.3614,12.457V35.2629h2.3759V52.0641h-2.208l-9.625-12.8652V52.0641h-2.3769V35.2629Z"/><path class="a" d="M302.452,35.2629h12.3848v2.208h-9.8653v5.0405h6.4805v2.16h-6.4805v5.1846h9.961v2.208H302.452Z"/><path d="M89.7987,63.0417h9.5556V64.53H95.4168v9.7159H93.7362V64.53H89.7987Z"/><path d="M100.5672,63.0417l1.6006-.3521v4.2256a3.3548,3.3548,0,0,1,2.4492-.9761,3.0415,3.0415,0,0,1,3.1846,3.1851v5.1221h-1.6v-4.85a1.8966,1.8966,0,0,0-2.0176-2.0645,2.3016,2.3016,0,0,0-2.0166,1.0562v5.8584h-1.6006Z"/><path d="M109.4627,63.7941a.9841.9841,0,0,1,.9756-.9927.9925.9925,0,1,1,0,1.9849A.9839.9839,0,0,1,109.4627,63.7941Zm1.7764,10.4522h-1.6006V66.0988h1.6006Z"/><path d="M113.2235,72.1335a4.2662,4.2662,0,0,0,2.6562,1.0244c1.1524,0,1.9532-.4961,1.9532-1.2168,0-.5762-.4161-.9121-1.3125-1.04l-1.4727-.208c-1.6172-.24-2.4336-.9926-2.4336-2.2573,0-1.4722,1.2813-2.4648,3.1856-2.4648a5.5842,5.5842,0,0,1,3.2812,1.04l-.8164,1.0561a4.5324,4.5324,0,0,0-2.5762-.8481c-.9765,0-1.6328.4482-1.6328,1.1045,0,.5923.3838.88,1.3438,1.0244l1.4726.208c1.6172.24,2.4649,1.0083,2.4649,2.273,0,1.4565-1.4727,2.561-3.4082,2.561a5.373,5.373,0,0,1-3.57-1.2007Z"/><path d="M123.7342,63.7941a.9842.9842,0,0,1,.9766-.9927.9925.9925,0,1,1,0,1.9849A.984.984,0,0,1,123.7342,63.7941Zm1.7764,10.4522h-1.6V66.0988h1.6Z"/><path d="M127.495,72.1335a4.2662,4.2662,0,0,0,2.6562,1.0244c1.1524,0,1.9531-.4961,1.9531-1.2168,0-.5762-.416-.9121-1.3125-1.04l-1.4726-.208c-1.6172-.24-2.4336-.9926-2.4336-2.2573,0-1.4722,1.2812-2.4648,3.1855-2.4648a5.5842,5.5842,0,0,1,3.2813,1.04l-.8164,1.0561a4.5324,4.5324,0,0,0-2.5762-.8481c-.9766,0-1.6328.4482-1.6328,1.1045,0,.5923.3838.88,1.3437,1.0244l1.4727.208c1.6172.24,2.4648,1.0083,2.4648,2.273,0,1.4565-1.4726,2.561-3.4082,2.561a5.3729,5.3729,0,0,1-3.57-1.2007Z"/><path d="M137.7665,71.9093c0-1.5366,1.248-2.4809,3.2968-2.4809a5.7449,5.7449,0,0,1,2.2246.4482v-.8642c0-1.1529-.6875-1.729-1.9843-1.729a5.7922,5.7922,0,0,0-2.5293.6884l-.5918-1.2006a7.6281,7.6281,0,0,1,3.3457-.8321c2.1123,0,3.3291,1.04,3.3291,2.9131v5.3941h-1.5694v-.7041a3.8629,3.8629,0,0,1-2.5283.8481C138.9832,74.39,137.7665,73.382,137.7665,71.9093Zm3.3613,1.2964a3.1308,3.1308,0,0,0,2.16-.768V71.029a4.2251,4.2251,0,0,0-2.0957-.4961c-1.1689,0-1.8886.5283-1.8886,1.3442C139.3036,72.6618,140.04,73.2057,141.1278,73.2057Z"/><path d="M150.2459,71.2052a5.4115,5.4115,0,0,0,3.8584,1.76c1.6153,0,2.7207-.7681,2.7207-1.8726,0-.9922-.6406-1.4887-2.2734-1.7607l-1.873-.3042c-2.0489-.3359-3.0567-1.2964-3.0567-2.9131,0-1.9526,1.6328-3.2173,4.1289-3.2173a7.52,7.52,0,0,1,4.5147,1.52l-.9287,1.2808a5.951,5.951,0,0,0-3.6661-1.3765c-1.456,0-2.4316.6719-2.4316,1.6646,0,.9121.56,1.3447,2,1.5844l1.8086.2881c2.3691.3843,3.4414,1.3609,3.4414,3.1055,0,2.0649-1.793,3.4414-4.4648,3.4414a6.7505,6.7505,0,0,1-4.8028-2.0171Z"/><path d="M161.4461,74.2463h-1.6V63.0417l1.6-.3521Z"/><path d="M163.1581,63.7941a.984.984,0,0,1,.9755-.9927.9925.9925,0,1,1,0,1.9849A.9838.9838,0,0,1,163.1581,63.7941Zm1.7763,10.4522h-1.6006V66.0988h1.6006Z"/><path d="M166.454,70.1325a4.11,4.11,0,0,1,4.1289-4.1777,4.003,4.003,0,0,1,2.4179.8164v-.6724h1.584v8.2593c0,2.1133-1.3281,3.2973-3.73,3.2973a6.91,6.91,0,0,1-3.2812-.8l.624-1.2485a5.5131,5.5131,0,0,0,2.6094.7046c1.4238,0,2.1767-.6724,2.1767-1.9531V73.446a3.831,3.831,0,0,1-2.4326.8642A4.1031,4.1031,0,0,1,166.454,70.1325Zm4.289,2.7851a2.8832,2.8832,0,0,0,2.2412-.9443V68.2917a2.94,2.94,0,0,0-2.2412-.9444,2.7859,2.7859,0,0,0,0,5.57Z"/><path d="M176.47,63.0417,178.07,62.69v4.2256a3.3545,3.3545,0,0,1,2.4492-.9761,3.0415,3.0415,0,0,1,3.1846,3.1851v5.1221h-1.6v-4.85a1.8965,1.8965,0,0,0-2.0175-2.0645,2.3014,2.3014,0,0,0-2.0166,1.0562v5.8584H176.47Z"/><path d="M186.2782,67.4435H184.55V66.0988h1.7285V64.0182l1.584-.3843v2.4649h2.4013v1.3447h-2.4013v4.418c0,.832.3359,1.1362,1.2011,1.1362a3.1451,3.1451,0,0,0,1.168-.1919V74.15a5.2978,5.2978,0,0,1-1.52.24c-1.585,0-2.4326-.7524-2.4326-2.1606Z"/><path d="M193.0457,74.2463h-1.6005V63.0417l1.6005-.3521Z"/><path d="M197.286,74.2785l-3.249-8.18h1.7607l2.3848,6.2266,2.625-6.2266h1.7285l-3.9375,9.124c-.752,1.7446-1.6162,2.4326-3.1211,2.4326a3.0882,3.0882,0,0,1-.8477-.0957V76.151a3.167,3.167,0,0,0,.72.064,1.6878,1.6878,0,0,0,1.6162-1.2007Z"/><path d="M207.0614,63.0417h1.6806v9.7158h6.45v1.4888h-8.1308Z"/><path d="M220.1512,65.9391a4.2337,4.2337,0,1,1-4.2422,4.2256A4.18,4.18,0,0,1,220.1512,65.9391Zm2.6563,4.2256a2.67,2.67,0,1,0-2.6563,2.833A2.7187,2.7187,0,0,0,222.8075,70.1647Z"/><path d="M225.8934,66.0988h1.6006v.8164a3.3545,3.3545,0,0,1,2.4492-.9761,3.0415,3.0415,0,0,1,3.1846,3.1851v5.1221h-1.6v-4.85a1.8966,1.8966,0,0,0-2.0176-2.0645,2.3014,2.3014,0,0,0-2.0166,1.0562v5.8584h-1.6006Z"/><path d="M234.5965,70.1325a4.11,4.11,0,0,1,4.13-4.1777,4.0024,4.0024,0,0,1,2.417.8164v-.6724h1.584v8.2593c0,2.1133-1.3281,3.2973-3.7285,3.2973a6.9053,6.9053,0,0,1-3.2813-.8l.6231-1.2485a5.519,5.519,0,0,0,2.6093.7046c1.4248,0,2.1778-.6724,2.1778-1.9531V73.446a3.8358,3.8358,0,0,1-2.4336.8642A4.1032,4.1032,0,0,1,234.5965,70.1325Zm4.29,2.7851a2.8846,2.8846,0,0,0,2.2412-.9443V68.2917a2.94,2.94,0,0,0-2.2412-.9444,2.7859,2.7859,0,0,0,0,5.57Z"/><path d="M248.5184,74.39a4.1926,4.1926,0,0,1-4.2734-4.2256,4.0941,4.0941,0,0,1,4.082-4.1938,4.0351,4.0351,0,0,1,3.9375,4.2578v.4643H245.829a2.75,2.75,0,0,0,2.7539,2.3369,3.1656,3.1656,0,0,0,2.0644-.7207l1.0254,1.0088A4.8626,4.8626,0,0,1,248.5184,74.39Zm-2.6728-4.898H250.68a2.43,2.43,0,0,0-4.8339,0Z"/><path d="M253.7811,66.0988h1.6006v1.0405a2.551,2.551,0,0,1,2.2412-1.2163,2.0243,2.0243,0,0,1,.8154.1279v1.4405a2.734,2.734,0,0,0-.9433-.1758,2.2239,2.2239,0,0,0-2.1133,1.4883v5.4424h-1.6006Z"/><path d="M263.2684,71.2052a5.4092,5.4092,0,0,0,3.8574,1.76c1.6172,0,2.7207-.7681,2.7207-1.8726,0-.9922-.64-1.4887-2.2724-1.7607l-1.8721-.3042c-2.0488-.3359-3.0576-1.2964-3.0576-2.9131,0-1.9526,1.6318-3.2173,4.13-3.2173a7.5214,7.5214,0,0,1,4.5136,1.52l-.9287,1.2808a5.9484,5.9484,0,0,0-3.665-1.3765c-1.457,0-2.4336.6719-2.4336,1.6646,0,.9121.56,1.3447,2.001,1.5844l1.81.2881c2.3682.3843,3.4414,1.3609,3.4414,3.1055,0,2.0649-1.7929,3.4414-4.4668,3.4414a6.7465,6.7465,0,0,1-4.8017-2.0171Z"/><path d="M274.4373,70.9328a1.9086,1.9086,0,0,0,2.0167,2.081,2.2889,2.2889,0,0,0,2.0009-1.0727V66.0988h1.6006v8.1475h-1.6006V73.43a3.3293,3.3293,0,0,1-2.4492.9766,3.0419,3.0419,0,0,1-3.1689-3.2012V66.0988h1.6005Z"/><path d="M285.99,74.3742a4.0728,4.0728,0,0,1-2.4658-.8164v.6885H281.94V63.0417l1.6006-.3521v4.1777a3.7753,3.7753,0,0,1,2.4814-.8964,4.2023,4.2023,0,0,1-.0322,8.4033ZM283.5409,68.34v3.6812a3.021,3.021,0,0,0,2.2724.96,2.81,2.81,0,0,0,0-5.6182A2.9216,2.9216,0,0,0,283.5409,68.34Z"/><path d="M291.6522,63.0417l1.6006-.3521v4.2256a3.3561,3.3561,0,0,1,2.4492-.9761,3.0417,3.0417,0,0,1,3.1855,3.1851v5.1221H297.286v-4.85a1.8951,1.8951,0,0,0-2.0156-2.0645,2.3019,2.3019,0,0,0-2.0176,1.0562v5.8584h-1.6006Z"/><path d="M304.63,74.39a4.1926,4.1926,0,0,1-4.2734-4.2256,4.0939,4.0939,0,0,1,4.081-4.1938,4.0352,4.0352,0,0,1,3.9385,4.2578v.4643H301.94a2.7489,2.7489,0,0,0,2.7539,2.3369,3.1674,3.1674,0,0,0,2.0644-.7207l1.0245,1.0088A4.8585,4.8585,0,0,1,304.63,74.39Zm-2.6738-4.898h4.834a2.43,2.43,0,0,0-4.834,0Z"/><path d="M309.38,71.9093c0-1.5366,1.2481-2.4809,3.2969-2.4809a5.7449,5.7449,0,0,1,2.2246.4482v-.8642c0-1.1529-.6875-1.729-1.9844-1.729a5.7926,5.7926,0,0,0-2.5293.6884l-.5918-1.2006a7.6285,7.6285,0,0,1,3.3458-.8321c2.1123,0,3.3291,1.04,3.3291,2.9131v5.3941h-1.5694v-.7041a3.8629,3.8629,0,0,1-2.5283.8481C310.5965,74.39,309.38,73.382,309.38,71.9093Zm3.3614,1.2964a3.131,3.131,0,0,0,2.16-.768V71.029a4.2251,4.2251,0,0,0-2.0957-.4961c-1.1689,0-1.8887.5283-1.8887,1.3442C310.9168,72.6618,311.6532,73.2057,312.7411,73.2057Z"/><path d="M324.5506,73.4782a3.8483,3.8483,0,0,1-2.497.896,4.2017,4.2017,0,1,1,2.48-7.603V63.0417l1.6016-.3521V74.2463h-1.585Zm-2.2724-.4966a2.9337,2.9337,0,0,0,2.2558-.9761V68.3078a2.9742,2.9742,0,0,0-2.2558-.96,2.8176,2.8176,0,0,0,0,5.6343Z"/><path d="M329.62,74.2463h-1.6V63.0417l1.6-.3521Z"/><path d="M331.3319,63.7941a.984.984,0,0,1,.9756-.9927.9925.9925,0,1,1,0,1.9849A.9838.9838,0,0,1,331.3319,63.7941Zm1.7763,10.4522h-1.6005V66.0988h1.6005Z"/><path d="M334.995,66.0988h1.6015v.8164a3.3548,3.3548,0,0,1,2.4492-.9761,3.0415,3.0415,0,0,1,3.1846,3.1851v5.1221H340.63v-4.85a1.8958,1.8958,0,0,0-2.0166-2.0645,2.3,2.3,0,0,0-2.0166,1.0562v5.8584H334.995Z"/><path d="M347.9735,74.39a4.1928,4.1928,0,0,1-4.2744-4.2256,4.0939,4.0939,0,0,1,4.081-4.1938,4.0346,4.0346,0,0,1,3.9385,4.2578v.4643H345.284a2.7473,2.7473,0,0,0,2.753,2.3369,3.1721,3.1721,0,0,0,2.0654-.7207l1.0234,1.0088A4.8553,4.8553,0,0,1,347.9735,74.39ZM345.3,69.4923h4.8339a2.43,2.43,0,0,0-4.8339,0Z"/></svg>