<?xml version="1.0" encoding="utf-8"?>
<!-- Generator: Adobe Illustrator 24.3.0, SVG Export Plug-In . SVG Version: 6.00 Build 0)  -->
<svg version="1.1" id="a409a35d-4cc3-437c-af73-451f09173bc1"
	 xmlns="http://www.w3.org/2000/svg" xmlns:xlink="http://www.w3.org/1999/xlink" x="0px" y="0px" viewBox="0 0 555 180"
	 style="enable-background:new 0 0 555 180;" xml:space="preserve">
<style type="text/css">
	.st0{fill:#EE0000;}
</style>
<g>
	<path class="st0" d="M367.6,69.6c1.5-4.9,13.5-38.5,13.5-38.5c4.3-11.9,9.8-17.7,18.3-17.7c8.9,0,15.9,7.9,25.4,7.9
		c9.8,0,12.2-10.7,20.5-10.7c8.9,0,38.8,11.7,52.6,18.7c17.7,8.9,19.9,13.5,22.3,23.5l10.6,45.9c0.3,1.6,0.5,3.2,0.4,4.9
		c0,21.1-25.7,24.8-43.4,24.8c-69,0-120.5-42.9-120.5-56C367.2,71.4,367.3,70.5,367.6,69.6z"/>
	<path class="st0" d="M555,124.5c-5.9-4.6-13-8.9-21.1-12.4v0c2.4,11.6,2.4,12.8,2.4,14.4c0,19.9-22.3,30.9-51.7,30.9
		c-66.3,0-124.5-38.8-124.5-64.5c0-3.6,0.7-7.1,2.1-10.4c-23.8,1.2-54.7,5.5-54.7,32.7c0,21.6,24.9,45.7,60,64.8H555V124.5z"/>
</g>
<path d="M533.9,112.2c2.4,11.6,2.4,12.8,2.4,14.4c0,19.9-22.3,30.9-51.7,30.9c-66.4,0-124.5-38.8-124.5-64.5c0-3.6,0.7-7.1,2.1-10.4
	l5.2-12.8c-0.2,0.9-0.4,1.8-0.3,2.8c0,13.1,51.5,56,120.5,56c17.7,0,43.4-3.7,43.4-24.8c0.1-1.6-0.1-3.3-0.4-4.9L533.9,112.2
	L533.9,112.2z"/>
<path d="M50.8,76.6h0.7v5.6H55v0.6h-4.2V76.6z"/>
<path d="M57.8,78.4c1.2-0.1,2.3,0.9,2.4,2.1c0.1,1.2-0.9,2.3-2.1,2.4s-2.3-0.9-2.4-2.1c0-0.1,0-0.1,0-0.2
	C55.6,79.5,56.5,78.5,57.8,78.4C57.7,78.5,57.7,78.5,57.8,78.4z M59.2,80.7c0.1-0.8-0.4-1.6-1.3-1.7c-0.8-0.1-1.6,0.4-1.7,1.3
	c0,0.1,0,0.3,0,0.4c-0.1,0.8,0.4,1.6,1.3,1.7c0.8,0.1,1.6-0.4,1.7-1.3C59.3,81,59.3,80.8,59.2,80.7z"/>
<path d="M61,78.5h0.7v0.9c0.1-0.6,0.6-1,1.2-1c0.1,0,0.3,0,0.4,0.1V79c-0.1,0-0.3-0.1-0.5-0.1c-0.5,0-1,0.4-1.2,0.9v3H61V78.5z"/>
<path d="M65.8,82.9c-1.2,0-2.2-1-2.1-2.2c0,0,0,0,0-0.1c-0.1-1.2,0.8-2.2,2-2.2c0,0,0,0,0,0c1.1,0,2,0.9,2,2c0,0.1,0,0.1,0,0.2v0.2
	h-3.4c0,0.8,0.7,1.5,1.5,1.5c0.4,0,0.8-0.2,1.2-0.4l0.4,0.4C67,82.7,66.4,82.9,65.8,82.9z M64.3,80.4H67c0-0.7-0.6-1.3-1.3-1.4
	C64.9,79,64.3,79.6,64.3,80.4z"/>
<path d="M68.8,78.5h0.7v0.7c0.3-0.5,0.8-0.7,1.3-0.7c0.6,0,1.1,0.3,1.3,0.8c0.3-0.5,0.8-0.9,1.4-0.8c0.8,0,1.5,0.6,1.5,1.4
	c0,0.1,0,0.1,0,0.2v2.8h-0.7v-2.6c0-0.8-0.4-1.2-1.1-1.2c-0.5,0-0.9,0.3-1.1,0.7c0,0.1,0,0.3,0,0.4v2.8h-0.7v-2.6
	c0-0.8-0.4-1.2-1.1-1.2c-0.4,0-0.8,0.3-1,0.6v3.2h-0.7L68.8,78.5z"/>
<path d="M78.2,77c0-0.3,0.2-0.5,0.5-0.5s0.5,0.2,0.5,0.5s-0.2,0.5-0.5,0.5S78.2,77.3,78.2,77L78.2,77z M79,82.8h-0.6v-4.3H79V82.8z"
	/>
<path d="M80.3,78.5h0.6v0.6c0.3-0.4,0.9-0.7,1.4-0.7c1.2,0.1,2.1,1.2,2,2.4c-0.1,1.1-0.9,1.9-2,2c-0.5,0-1-0.2-1.3-0.6v2.4h-0.7
	L80.3,78.5z M80.9,79.6v2.1c0.3,0.4,0.7,0.6,1.2,0.6c0.9-0.1,1.6-0.9,1.5-1.8c-0.1-0.8-0.7-1.5-1.5-1.5C81.7,79,81.2,79.2,80.9,79.6
	z"/>
<path d="M85.4,81.8c0.4,0.3,0.9,0.5,1.4,0.5c0.6,0,1.1-0.3,1.1-0.8s-0.2-0.5-0.8-0.7l-0.7-0.1c-0.8-0.2-1.2-0.5-1.2-1.1
	s0.7-1.3,1.6-1.3c0.6,0,1.2,0.2,1.6,0.5L88,79.4c-0.4-0.3-0.9-0.4-1.3-0.4c-0.6,0-0.9,0.3-0.9,0.7s0.2,0.5,0.8,0.6l0.7,0.1
	c0.9,0.2,1.3,0.5,1.3,1.2c-0.1,0.8-0.8,1.4-1.7,1.3c-0.7,0-1.3-0.2-1.8-0.7L85.4,81.8z"/>
<path d="M90.1,81.1c-0.1,0.6,0.4,1.2,1,1.2c0.1,0,0.1,0,0.2,0c0.5,0,0.9-0.2,1.1-0.7v-3.2H93v4.3h-0.7v-0.7
	c-0.3,0.5-0.8,0.8-1.4,0.8c-0.8,0-1.5-0.6-1.6-1.4c0-0.1,0-0.1,0-0.2v-2.8h0.7L90.1,81.1z"/>
<path d="M94.3,78.5H95v0.7c0.3-0.5,0.8-0.7,1.3-0.7c0.6,0,1.1,0.3,1.3,0.8c0.3-0.5,0.8-0.8,1.4-0.8c0.8,0,1.5,0.7,1.5,1.5
	c0,0,0,0.1,0,0.1v2.8h-0.6v-2.6c0-0.8-0.4-1.2-1.1-1.2c-0.5,0-0.9,0.3-1.1,0.7c0,0.1,0,0.3,0,0.4v2.8h-0.6v-2.6
	c0-0.8-0.4-1.2-1.1-1.2c-0.4,0-0.8,0.3-1,0.6v3.2h-0.7L94.3,78.5z"/>
<path d="M107.1,82.3c-0.3,0.4-0.8,0.7-1.4,0.6c-1.1,0-2-1-2-2.2c0,0,0,0,0-0.1c-0.1-1.2,0.8-2.2,2-2.2c0,0,0,0,0,0
	c0.5,0,1,0.2,1.3,0.6v-2.6l0.6-0.1v6.5H107L107.1,82.3z M105.8,82.3c0.5,0,0.9-0.2,1.2-0.6v-2.1c-0.6-0.6-1.6-0.7-2.3,0
	s-0.7,1.6,0,2.3C105,82.1,105.4,82.3,105.8,82.3z"/>
<path d="M110.9,78.4c1.2-0.1,2.3,0.9,2.4,2.1c0.1,1.2-0.9,2.3-2.1,2.4c-1.2,0.1-2.3-0.9-2.4-2.1c0-0.1,0-0.1,0-0.2
	C108.8,79.5,109.7,78.5,110.9,78.4C110.9,78.5,110.9,78.5,110.9,78.4z M112.4,80.7c0.1-0.8-0.4-1.6-1.3-1.7
	c-0.8-0.1-1.6,0.4-1.7,1.3c0,0.1,0,0.3,0,0.4c-0.1,0.8,0.4,1.6,1.3,1.7c0.8,0.1,1.6-0.4,1.7-1.3C112.4,81,112.4,80.8,112.4,80.7z"/>
<path d="M114.8,82.8h-0.7v-6.3l0.7-0.1V82.8z"/>
<path d="M118,78.4c1.2-0.1,2.3,0.9,2.4,2.1c0.1,1.2-0.9,2.3-2.1,2.4c-1.2,0.1-2.3-0.9-2.4-2.1c0,0,0-0.1,0-0.1
	c-0.1-1.2,0.8-2.2,2-2.2C117.9,78.5,118,78.5,118,78.4z M119.5,80.7c0.1-0.8-0.4-1.6-1.3-1.7c-0.8-0.1-1.6,0.4-1.7,1.3
	c0,0.1,0,0.3,0,0.4c-0.1,0.8,0.4,1.6,1.3,1.7c0.8,0.1,1.6-0.4,1.7-1.3C119.5,81,119.5,80.8,119.5,80.7z"/>
<path d="M121.3,78.5h0.7v0.9c0.1-0.6,0.6-1,1.2-1c0.1,0,0.3,0,0.4,0.1V79c-0.1,0-0.3-0.1-0.4-0.1c-0.5,0-1,0.4-1.2,0.9v3h-0.7V78.5z
	"/>
<path d="M126.4,81.8c0.4,0.3,0.9,0.5,1.4,0.5c0.6,0,1.1-0.3,1.1-0.8s-0.2-0.5-0.8-0.7l-0.7-0.1c-0.8-0.2-1.2-0.5-1.2-1.1
	s0.7-1.3,1.6-1.3c0.6,0,1.2,0.2,1.6,0.5l-0.3,0.4c-0.4-0.3-0.9-0.5-1.3-0.5c-0.6,0-0.9,0.3-0.9,0.7s0.2,0.5,0.8,0.6l0.7,0.1
	c0.9,0.2,1.3,0.5,1.3,1.2c-0.1,0.8-0.8,1.4-1.7,1.3c-0.6,0-1.3-0.2-1.8-0.6L126.4,81.8z"/>
<path d="M130.3,77c0-0.3,0.2-0.5,0.5-0.5s0.5,0.2,0.5,0.5s-0.2,0.5-0.5,0.5S130.3,77.3,130.3,77L130.3,77z M131.1,82.8h-0.6v-4.3
	h0.6V82.8z"/>
<path d="M132.9,79.1H132v-0.5h0.9v-1.2l0.6-0.2v1.3h1.2V79h-1.2v2.7c0,0.4,0.2,0.6,0.6,0.6c0.2,0,0.4,0,0.6-0.1v0.6
	c-0.2,0.1-0.5,0.1-0.8,0.1c-0.7,0-1.1-0.4-1.1-1.1L132.9,79.1z"/>
<path d="M137.6,81.6c0-0.8,0.6-1.3,1.6-1.3c0.5,0,0.9,0.1,1.3,0.3v-0.6c0-0.7-0.4-1.1-1.1-1.1c-0.5,0-0.9,0.1-1.3,0.4l-0.2-0.5
	c0.5-0.3,1.1-0.4,1.6-0.4c1.1,0,1.7,0.5,1.7,1.5v2.9h-0.6v-0.5c-0.4,0.4-0.9,0.6-1.4,0.6c-0.8,0.1-1.5-0.4-1.6-1.2
	C137.6,81.7,137.6,81.6,137.6,81.6z M139.3,82.4c0.5,0,0.9-0.2,1.2-0.5v-0.8c-0.4-0.2-0.8-0.3-1.2-0.3c-0.7,0-1.1,0.3-1.1,0.8
	S138.6,82.4,139.3,82.4z"/>
<path d="M142.5,78.5h0.6v0.7c0.3-0.5,0.8-0.7,1.3-0.7c0.6,0,1.1,0.3,1.3,0.8c0.3-0.5,0.8-0.9,1.4-0.8c0.8,0,1.5,0.7,1.5,1.5
	c0,0,0,0.1,0,0.1v2.8H148v-2.6c0-0.8-0.4-1.2-1.1-1.2c-0.5,0-0.9,0.3-1.1,0.7c0,0.1,0,0.3,0,0.4v2.8h-0.6v-2.6
	c0-0.8-0.4-1.2-1.1-1.2c-0.4,0-0.8,0.2-1.1,0.6v3.2h-0.6L142.5,78.5z"/>
<path d="M151.9,82.9c-1.2,0-2.2-1-2.2-2.2c0,0,0,0,0-0.1c-0.1-1.2,0.8-2.2,2-2.2c0,0,0,0,0,0c1.1,0,2,0.9,2,2c0,0.1,0,0.1,0,0.2v0.2
	h-3.4c0,0.8,0.7,1.5,1.5,1.5c0.4,0,0.9-0.2,1.2-0.4l0.4,0.4C153.1,82.7,152.5,82.9,151.9,82.9z M150.4,80.4h2.7
	c0-0.7-0.6-1.3-1.4-1.4C151,79,150.5,79.6,150.4,80.4z"/>
<path d="M155.3,79.1h-0.9v-0.5h0.9v-1.2l0.6-0.2v1.3h1.2V79h-1.2v2.7c0,0.4,0.2,0.6,0.6,0.6c0.2,0,0.4,0,0.6-0.1v0.6
	c-0.2,0.1-0.5,0.1-0.8,0.1c-0.7,0-1.1-0.4-1.1-1.1V79.1z"/>
<path d="M158.9,82.2l-0.7,2h-0.5l0.5-2H158.9z"/>
<path d="M165.3,81.8l0.4,0.4c-0.4,0.4-1,0.7-1.6,0.7c-1.2-0.1-2.2-1.2-2.1-2.4c0.1-1.1,1-2,2.1-2.1c0.6,0,1.2,0.2,1.7,0.7l-0.4,0.4
	c-0.3-0.3-0.8-0.5-1.2-0.5c-0.9,0.1-1.6,0.9-1.5,1.8c0.1,0.8,0.7,1.4,1.5,1.5C164.5,82.3,165,82.2,165.3,81.8z"/>
<path d="M168.4,78.4c1.2-0.1,2.3,0.9,2.4,2.1s-0.9,2.3-2.1,2.4c-1.2,0.1-2.3-0.9-2.4-2.1c0,0,0-0.1,0-0.1
	C166.2,79.5,167.1,78.5,168.4,78.4C168.3,78.5,168.3,78.5,168.4,78.4z M169.9,80.7c0.1-0.8-0.4-1.6-1.3-1.7
	c-0.8-0.1-1.6,0.4-1.7,1.3c0,0.1,0,0.3,0,0.4c-0.1,0.8,0.4,1.6,1.3,1.7c0.8,0.1,1.6-0.4,1.7-1.3C169.9,81,169.9,80.8,169.9,80.7z"/>
<path d="M171.6,78.5h0.6v0.7c0.3-0.5,0.8-0.8,1.4-0.8c0.8,0,1.5,0.6,1.6,1.4c0,0,0,0.1,0,0.1v2.8h-0.6v-2.6c0.1-0.6-0.4-1.2-1-1.2
	c-0.1,0-0.1,0-0.2,0c-0.5,0-0.9,0.2-1.1,0.7v3.2h-0.6V78.5z"/>
<path d="M176.4,81.8c0.4,0.3,0.9,0.5,1.4,0.5c0.6,0,1.1-0.3,1.1-0.8s-0.2-0.5-0.8-0.7l-0.7-0.1c-0.8-0.2-1.2-0.5-1.2-1.1
	s0.6-1.3,1.6-1.3c0.6,0,1.2,0.2,1.6,0.5l-0.3,0.4c-0.4-0.3-0.9-0.5-1.4-0.5c-0.6,0-0.9,0.3-0.9,0.7s0.2,0.5,0.8,0.6l0.7,0.1
	c0.9,0.2,1.3,0.5,1.3,1.2c-0.1,0.8-0.8,1.4-1.7,1.3c-0.6,0-1.3-0.2-1.8-0.6L176.4,81.8z"/>
<path d="M182.5,82.9c-1.2,0-2.2-1-2.1-2.2c0,0,0,0,0-0.1c-0.1-1.2,0.8-2.2,2-2.2c0,0,0,0,0,0c1.1,0,2,0.9,2,2c0,0.1,0,0.1,0,0.2v0.2
	H181c0,0.8,0.7,1.5,1.5,1.5c0.4,0,0.9-0.2,1.2-0.4l0.4,0.4C183.7,82.7,183.1,82.9,182.5,82.9z M181,80.4h2.7
	c-0.1-0.8-0.7-1.3-1.5-1.2C181.6,79.2,181.1,79.7,181,80.4z"/>
<path d="M188.7,81.8l0.4,0.4c-0.4,0.4-1,0.7-1.6,0.7c-1.2-0.1-2.2-1.2-2.1-2.4c0.1-1.1,1-2,2.1-2.1c0.6,0,1.2,0.2,1.7,0.7l-0.4,0.4
	c-0.3-0.3-0.8-0.5-1.2-0.5c-0.9,0.1-1.6,0.9-1.5,1.8c0.1,0.8,0.7,1.4,1.5,1.5C187.9,82.3,188.3,82.2,188.7,81.8z"/>
<path d="M190.6,79.1h-0.9v-0.5h0.9v-1.2l0.6-0.2v1.3h1.2V79h-1.2v2.7c0,0.4,0.2,0.6,0.6,0.6c0.2,0,0.4,0,0.6-0.1v0.6
	c-0.2,0.1-0.5,0.1-0.8,0.1c-0.7,0-1.1-0.4-1.1-1.1V79.1z"/>
<path d="M195.3,82.9c-1.2,0-2.2-1-2.1-2.2c0,0,0,0,0-0.1c-0.1-1.2,0.8-2.2,2-2.2c0,0,0,0,0,0c1.1,0,2,0.9,2,2c0,0.1,0,0.1,0,0.2v0.2
	h-3.4c0,0.8,0.7,1.5,1.5,1.5c0.4,0,0.9-0.2,1.2-0.4l0.4,0.4C196.4,82.7,195.8,82.9,195.3,82.9z M193.8,80.4h2.7
	c0-0.7-0.6-1.3-1.4-1.4C194.4,79,193.8,79.6,193.8,80.4z"/>
<path d="M198.6,79.1h-0.9v-0.5h0.9v-1.2l0.6-0.2v1.3h1.2V79h-1.2v2.7c0,0.4,0.2,0.6,0.6,0.6c0.2,0,0.4,0,0.6-0.1v0.6
	c-0.2,0.1-0.5,0.1-0.8,0.1c-0.7,0-1.1-0.4-1.1-1.1V79.1z"/>
<path d="M202.1,81.1c-0.1,0.6,0.4,1.2,1,1.2c0.1,0,0.1,0,0.2,0c0.5,0,0.9-0.2,1.1-0.7v-3.2h0.6v4.3h-0.6v-0.7
	c-0.3,0.5-0.8,0.8-1.4,0.8c-0.8,0-1.5-0.6-1.6-1.4c0-0.1,0-0.1,0-0.2v-2.8h0.7L202.1,81.1z"/>
<path d="M208.3,82.9c-1.2,0-2.2-1-2.1-2.2c0,0,0,0,0-0.1c-0.1-1.2,0.8-2.2,2-2.2c0,0,0,0,0,0c1.1,0,2,0.9,2,2c0,0.1,0,0.1,0,0.2v0.2
	h-3.4c0,0.8,0.7,1.5,1.5,1.5c0.4,0,0.9-0.2,1.2-0.4l0.4,0.4C209.4,82.7,208.9,82.9,208.3,82.9z M206.8,80.4h2.7
	c-0.1-0.8-0.7-1.3-1.5-1.2C207.4,79.2,206.8,79.7,206.8,80.4z"/>
<path d="M211.3,78.5h0.6v0.9c0.1-0.6,0.6-1,1.2-1c0.1,0,0.3,0,0.4,0.1V79c-0.1,0-0.3-0.1-0.4-0.1c-0.5,0-1,0.4-1.2,0.9v3h-0.6V78.5z
	"/>
<path d="M216.2,81.6c0-0.8,0.6-1.3,1.6-1.3c0.5,0,0.9,0.1,1.3,0.3v-0.6c0-0.7-0.4-1.1-1.1-1.1c-0.5,0-0.9,0.1-1.3,0.4l-0.2-0.5
	c0.5-0.3,1.1-0.4,1.6-0.4c1.1,0,1.7,0.5,1.7,1.5v2.9h-0.6v-0.5c-0.4,0.4-0.9,0.6-1.4,0.6c-0.8,0.1-1.5-0.4-1.6-1.2
	C216.2,81.7,216.2,81.6,216.2,81.6z M217.9,82.4c0.5,0,0.9-0.2,1.2-0.5v-0.8c-0.4-0.2-0.8-0.3-1.2-0.3c-0.7,0-1.1,0.3-1.1,0.8
	S217.3,82.4,217.9,82.4z"/>
<path d="M224.3,82.3c-0.3,0.4-0.8,0.7-1.4,0.6c-1.2-0.1-2.1-1.2-2-2.4c0.1-1.1,0.9-1.9,2-2c0.5,0,1,0.2,1.4,0.6v-2.6l0.6-0.1v6.5
	h-0.6L224.3,82.3z M223.1,82.3c0.5,0,0.9-0.2,1.2-0.6v-2.1c-0.3-0.4-0.7-0.6-1.2-0.6c-0.9,0.1-1.6,0.9-1.5,1.8
	C221.7,81.6,222.3,82.2,223.1,82.3z"/>
<path d="M226.1,77c0-0.3,0.3-0.4,0.5-0.4c0.2,0,0.4,0.2,0.4,0.4c0,0.3-0.1,0.5-0.4,0.5c-0.3,0-0.5-0.1-0.5-0.4
	C226.1,77.1,226.1,77,226.1,77z M226.9,82.8h-0.6v-4.3h0.6V82.8z"/>
<path d="M228.2,78.5h0.6v0.6c0.3-0.4,0.9-0.7,1.4-0.7c1.2,0.1,2.1,1.2,2,2.4c-0.1,1.1-0.9,1.9-2,2c-0.5,0-1-0.2-1.4-0.6v2.4h-0.6
	L228.2,78.5z M228.9,79.6v2.1c0.3,0.4,0.7,0.6,1.2,0.6c0.9-0.1,1.6-0.9,1.5-1.8c-0.1-0.8-0.7-1.5-1.5-1.5
	C229.6,79,229.2,79.2,228.9,79.6z"/>
<path d="M233.2,77c0-0.3,0.3-0.4,0.5-0.4c0.2,0,0.4,0.2,0.4,0.4c0,0.3-0.2,0.5-0.4,0.5c0,0,0,0,0,0C233.4,77.5,233.2,77.3,233.2,77z
	 M234,82.8h-0.6v-4.3h0.6L234,82.8z"/>
<path d="M235.3,81.8c0.4,0.3,0.9,0.5,1.4,0.5c0.6,0,1.1-0.3,1.1-0.8s-0.2-0.5-0.8-0.7l-0.7-0.1c-0.8-0.2-1.2-0.5-1.2-1.1
	s0.6-1.3,1.6-1.3c0.6,0,1.2,0.2,1.6,0.5l-0.3,0.4c-0.4-0.3-0.9-0.5-1.4-0.5c-0.6,0-0.9,0.3-0.9,0.7s0.2,0.5,0.7,0.6l0.7,0.1
	c0.9,0.2,1.2,0.5,1.2,1.2c-0.1,0.8-0.8,1.4-1.7,1.3c0,0,0,0,0,0c-0.6,0-1.3-0.2-1.8-0.6L235.3,81.8z"/>
<path d="M242.6,81.8l0.4,0.4c-0.4,0.4-1,0.7-1.6,0.7c-1.2-0.1-2.2-1.2-2.1-2.4c0.1-1.1,1-2,2.1-2.1c0.6,0,1.2,0.2,1.7,0.7l-0.4,0.4
	c-0.3-0.3-0.8-0.5-1.2-0.5c-0.9,0.1-1.6,0.9-1.5,1.8c0.1,0.8,0.7,1.4,1.5,1.5C241.8,82.3,242.3,82.2,242.6,81.8z"/>
<path d="M243.8,77c0-0.3,0.3-0.4,0.5-0.4c0.2,0,0.4,0.2,0.4,0.4c0,0.3-0.2,0.5-0.4,0.5c0,0,0,0,0,0C244,77.5,243.8,77.3,243.8,77z
	 M244.5,82.8h-0.6v-4.3h0.6V82.8z"/>
<path d="M245.9,78.5h0.6v0.7c0.3-0.5,0.8-0.8,1.4-0.8c0.8,0,1.5,0.6,1.6,1.4c0,0,0,0.1,0,0.1v2.8h-0.6v-2.6c0.1-0.6-0.4-1.2-1-1.2
	c-0.1,0-0.1,0-0.2,0c-0.5,0-0.9,0.2-1.1,0.7v3.2h-0.6V78.5z"/>
<path d="M250.6,80.7c-0.1-1.2,0.8-2.2,2-2.2c0,0,0,0,0,0c0.5,0,1,0.2,1.4,0.6v-0.6h0.6v4.5c0,1.1-0.6,1.7-1.8,1.7
	c-0.6,0-1.2-0.2-1.7-0.4l0.3-0.5c0.4,0.2,0.9,0.4,1.4,0.4c0.8,0,1.2-0.4,1.2-1.1v-0.8c-0.3,0.4-0.8,0.7-1.4,0.6
	C251.4,82.8,250.5,81.9,250.6,80.7C250.6,80.7,250.6,80.7,250.6,80.7z M252.7,82.3c0.5,0,0.9-0.2,1.2-0.6v-2.1
	c-0.6-0.6-1.6-0.7-2.3,0c-0.6,0.6-0.7,1.6,0,2.3C251.9,82.1,252.3,82.3,252.7,82.3z"/>
<path d="M52.7,95.8c-1.2,0-2.2-1-2.1-2.2c0,0,0,0,0-0.1c-0.1-1.2,0.8-2.2,2-2.2c0,0,0,0,0,0c1.1,0,2,0.9,2,2c0,0.1,0,0.1,0,0.2v0.2
	h-3.4c0,0.8,0.7,1.5,1.5,1.5c0.4,0,0.9-0.2,1.2-0.4l0.4,0.4C53.8,95.6,53.2,95.8,52.7,95.8z M51.2,93.2h2.7
	c-0.1-0.8-0.7-1.3-1.5-1.2C51.7,92,51.2,92.6,51.2,93.2z"/>
<path d="M56.3,95.7h-0.7v-6.3l0.7-0.1V95.7z"/>
<path d="M57.5,89.9c0-0.3,0.2-0.5,0.5-0.5c0.3,0,0.5,0.2,0.5,0.5c0,0.3-0.2,0.5-0.5,0.5C57.7,90.3,57.5,90.1,57.5,89.9
	C57.5,89.9,57.5,89.9,57.5,89.9z M58.2,95.7h-0.6v-4.3h0.6V95.7z"/>
<path d="M60.1,91.9h-0.9v-0.5h0.9v-1.2l0.7-0.2v1.3H62v0.5h-1.3v2.6c0,0.5,0.2,0.7,0.6,0.7c0.2,0,0.4,0,0.6-0.1v0.6
	c-0.2,0.1-0.5,0.1-0.8,0.1c-0.8,0-1.1-0.4-1.1-1.1L60.1,91.9z"/>
<path d="M63.7,95.1l-0.7,2h-0.5l0.5-2H63.7z"/>
<path d="M66.9,94.7c0.4,0.3,0.9,0.5,1.4,0.5c0.6,0,1.1-0.3,1.1-0.8s-0.2-0.5-0.8-0.7l-0.7-0.1c-0.8-0.2-1.2-0.5-1.2-1.1
	s0.7-1.3,1.6-1.3c0.6,0,1.2,0.2,1.6,0.5l-0.3,0.4c-0.4-0.3-0.9-0.5-1.4-0.5c-0.6,0-0.9,0.3-0.9,0.7s0.2,0.5,0.8,0.6l0.7,0.1
	c0.9,0.2,1.3,0.5,1.3,1.2c-0.1,0.8-0.8,1.4-1.7,1.3c-0.6,0-1.3-0.2-1.8-0.6L66.9,94.7z"/>
<path d="M72.9,95.8c-1.2,0-2.2-1-2.1-2.2c0,0,0,0,0-0.1c-0.1-1.2,0.8-2.2,2-2.2c0,0,0,0,0,0c1.1,0,2,0.9,2,2c0,0.1,0,0.1,0,0.2v0.2
	h-3.4c0,0.9,0.7,1.5,1.6,1.5c0.4,0,0.9-0.2,1.2-0.4l0.4,0.4C74.1,95.6,73.5,95.8,72.9,95.8z M71.4,93.2h2.7
	c-0.1-0.8-0.7-1.3-1.5-1.2C72,92,71.5,92.6,71.4,93.2z"/>
<path d="M79.1,95.1c-0.3,0.4-0.8,0.7-1.4,0.6c-1.1,0-2-1-2-2.2c0,0,0,0,0-0.1c-0.1-1.2,0.8-2.2,2-2.2c0,0,0,0,0,0
	c0.5,0,1,0.2,1.3,0.6v-2.6l0.6-0.1v6.5h-0.6L79.1,95.1z M77.9,95.2c0.5,0,0.9-0.2,1.2-0.6v-2.1c-0.6-0.6-1.6-0.6-2.3,0
	s-0.6,1.6,0,2.3C77.1,95,77.5,95.2,77.9,95.2z"/>
<path d="M86.3,95.1c-0.3,0.4-0.8,0.7-1.4,0.6c-1.1,0-2-1-2-2.2c0,0,0,0,0-0.1c-0.1-1.2,0.8-2.2,2-2.2c0,0,0,0,0,0
	c0.5,0,1,0.2,1.3,0.6v-2.6l0.7-0.1v6.5h-0.6V95.1z M85.1,95.2c0.5,0,0.9-0.2,1.2-0.6v-2.1c-0.6-0.6-1.6-0.6-2.3,0s-0.6,1.6,0,2.3
	C84.3,95,84.7,95.2,85.1,95.2z"/>
<path d="M88.1,89.9c0-0.3,0.3-0.4,0.5-0.4c0.2,0,0.4,0.2,0.4,0.4c0,0.3-0.1,0.5-0.4,0.5c-0.3,0-0.5-0.1-0.5-0.4
	C88.1,90,88.1,89.9,88.1,89.9z M88.9,95.7h-0.7v-4.3h0.7V95.7z"/>
<path d="M90,94.5c0-0.8,0.7-1.3,1.6-1.3c0.5,0,0.9,0.1,1.3,0.3v-0.6c0-0.6-0.4-1-0.9-1.1c-0.1,0-0.1,0-0.2,0c-0.5,0-0.9,0.1-1.3,0.4
	l-0.2-0.5c0.5-0.3,1.1-0.4,1.6-0.4c1.1,0,1.7,0.5,1.7,1.5v2.9H93v-0.5c-0.4,0.4-0.9,0.6-1.4,0.6c-0.8,0.1-1.5-0.4-1.6-1.1
	C90,94.6,90,94.5,90,94.5z M91.7,95.3c0.5,0,0.9-0.2,1.2-0.5V94c-0.4-0.2-0.8-0.3-1.2-0.3c-0.7,0-1.1,0.3-1.1,0.8
	S91.1,95.3,91.7,95.3L91.7,95.3z"/>
<path d="M94.9,91.4h0.6v0.7c0.3-0.5,0.8-0.7,1.3-0.7c0.6,0,1.1,0.3,1.3,0.8c0.3-0.5,0.8-0.9,1.4-0.8c0.8,0,1.5,0.7,1.5,1.5
	c0,0,0,0.1,0,0.1v2.8h-0.7v-2.6c0-0.8-0.4-1.2-1.1-1.2c-0.5,0-0.9,0.3-1.1,0.7c0,0.1,0,0.3,0,0.4v2.8h-0.6v-2.6
	c0.1-0.6-0.3-1.1-0.9-1.2c-0.1,0-0.1,0-0.2,0c-0.4,0-0.8,0.2-1.1,0.6v3.2h-0.6V91.4z"/>
<path d="M104.4,91.4h0.6v0.7c0.3-0.5,0.8-0.8,1.4-0.8c0.8,0,1.5,0.6,1.6,1.4c0,0,0,0.1,0,0.1v2.8h-0.7v-2.6c0.1-0.6-0.4-1.2-1-1.2
	c-0.1,0-0.1,0-0.2,0c-0.5,0-0.9,0.3-1.1,0.7v3.2h-0.6L104.4,91.4z"/>
<path d="M111.2,91.3c1.2-0.1,2.3,0.9,2.4,2.1c0.1,1.2-0.9,2.3-2.1,2.4c-1.2,0.1-2.3-0.9-2.4-2.1c0-0.1,0-0.1,0-0.2
	C109.1,92.4,110,91.4,111.2,91.3C111.2,91.3,111.2,91.3,111.2,91.3z M112.7,93.6c0.1-0.8-0.4-1.6-1.3-1.7c-0.8-0.1-1.6,0.4-1.7,1.3
	c0,0.1,0,0.3,0,0.4c-0.1,0.8,0.4,1.6,1.3,1.7c0.8,0.1,1.6-0.4,1.7-1.3C112.7,93.8,112.7,93.7,112.7,93.6z"/>
<path d="M114.5,91.4h0.7v0.7c0.3-0.5,0.8-0.8,1.4-0.8c0.8,0,1.5,0.6,1.5,1.5c0,0,0,0.1,0,0.1v2.8h-0.6v-2.6c0.1-0.6-0.4-1.2-1-1.2
	c-0.1,0-0.1,0-0.2,0c-0.5,0-0.9,0.2-1.1,0.7v3.2h-0.7L114.5,91.4z"/>
<path d="M119.9,94c-0.1,0.6,0.4,1.2,1,1.2c0.1,0,0.1,0,0.2,0c0.5,0,0.9-0.2,1.1-0.7v-3.2h0.7v4.3h-0.7V95c-0.3,0.5-0.8,0.8-1.4,0.8
	c-0.8,0-1.5-0.6-1.6-1.5c0,0,0-0.1,0-0.1v-2.8h0.7V94z"/>
<path d="M124.2,91.4h0.7v0.7c0.3-0.5,0.8-0.7,1.3-0.7c0.6,0,1.1,0.3,1.3,0.8c0.3-0.5,0.8-0.9,1.4-0.8c0.8,0,1.5,0.7,1.5,1.5
	c0,0,0,0.1,0,0.1v2.8h-0.6v-2.6c0-0.8-0.4-1.2-1.1-1.2c-0.5,0-0.9,0.3-1.1,0.7c0,0.1,0,0.3,0,0.4v2.8H127v-2.6
	c0-0.8-0.4-1.2-1.1-1.2c-0.4,0-0.8,0.3-1,0.6v3.2h-0.7L124.2,91.4z"/>
<path d="M131.7,91.4h0.6v0.7c0.3-0.5,0.8-0.7,1.3-0.7c0.6,0,1.1,0.3,1.3,0.8c0.3-0.5,0.8-0.9,1.4-0.8c0.8,0,1.5,0.7,1.5,1.5
	c0,0,0,0.1,0,0.1v2.8h-0.6v-2.6c0-0.8-0.4-1.2-1.1-1.2c-0.5,0-0.9,0.3-1.1,0.7c0,0.1,0,0.3,0,0.4v2.8h-0.6v-2.6
	c0-0.8-0.4-1.2-1.1-1.2c-0.4,0-0.8,0.2-1.1,0.6v3.2h-0.6L131.7,91.4z"/>
<path d="M140.2,95.7l-1.7-4.3h0.7l1.3,3.6l1.4-3.6h0.7l-2.1,5.2c-0.3,0.7-0.6,1-1.2,1c-0.1,0-0.3,0-0.4-0.1v-0.6c0.1,0,0.2,0,0.4,0
	c0.3,0,0.5-0.2,0.7-0.6L140.2,95.7z"/>
<path d="M145.5,91.4h0.6v0.7c0.3-0.5,0.8-0.8,1.4-0.8c0.8,0,1.5,0.6,1.6,1.4c0,0.1,0,0.1,0,0.2v2.8h-0.6v-2.6c0.1-0.6-0.4-1.2-1-1.2
	c-0.1,0-0.1,0-0.2,0c-0.5,0-0.9,0.2-1.1,0.7v3.2h-0.6V91.4z"/>
<path d="M150.3,89.9c0-0.3,0.2-0.5,0.5-0.5s0.5,0.2,0.5,0.5s-0.2,0.5-0.5,0.5S150.3,90.1,150.3,89.9L150.3,89.9z M151,95.7h-0.6
	v-4.3h0.6V95.7z"/>
<path d="M154.4,95.8c-0.5,0-1-0.2-1.4-0.6v0.6h-0.6v-6.3l0.6-0.1V92c0.3-0.4,0.9-0.7,1.4-0.7c1.2,0.1,2.1,1.2,2,2.4
	C156.3,94.8,155.5,95.7,154.4,95.8L154.4,95.8z M153,92.5v2.1c0.3,0.4,0.7,0.6,1.2,0.6c0.9-0.1,1.6-0.9,1.5-1.8
	c-0.1-0.8-0.7-1.5-1.5-1.5C153.7,91.9,153.3,92.1,153,92.5z"/>
<path d="M157.5,89.4l0.6-0.1v2.8c0.3-0.5,0.8-0.8,1.4-0.8c0.8,0,1.5,0.6,1.6,1.4c0,0.1,0,0.1,0,0.2v2.8h-0.6v-2.6
	c0.1-0.6-0.4-1.2-1-1.2c-0.1,0-0.1,0-0.2,0c-0.5,0-0.9,0.2-1.1,0.7v3.2h-0.6V89.4z"/>
<path d="M166.4,95.8c-1.2,0-2.2-1-2.1-2.2c0,0,0,0,0-0.1c-0.1-1.2,0.8-2.2,2-2.2c0,0,0,0,0,0c1.1,0,2,0.9,2,2c0,0.1,0,0.1,0,0.2v0.2
	h-3.4c0,0.8,0.7,1.5,1.5,1.5c0.4,0,0.9-0.2,1.2-0.4l0.4,0.4C167.6,95.6,167,95.8,166.4,95.8z M164.9,93.2h2.7c0-0.7-0.6-1.3-1.4-1.4
	C165.6,91.9,165,92.5,164.9,93.2z"/>
<path d="M170,94c-0.1,0.6,0.4,1.2,1,1.2c0.1,0,0.1,0,0.2,0c0.5,0,0.9-0.2,1.1-0.7v-3.2h0.7v4.3h-0.6V95c-0.3,0.5-0.8,0.8-1.4,0.8
	c-0.8,0-1.5-0.6-1.6-1.5c0,0,0-0.1,0-0.1v-2.8h0.6V94z"/>
<path d="M174.1,89.9c0-0.3,0.2-0.5,0.5-0.5s0.5,0.2,0.5,0.5s-0.2,0.5-0.5,0.5S174.1,90.1,174.1,89.9L174.1,89.9z M174.9,95.7h-0.6
	v-4.3h0.6V95.7z"/>
<path d="M176.2,94.7c0.4,0.3,0.9,0.5,1.4,0.5c0.6,0,1.1-0.3,1.1-0.8s-0.2-0.5-0.8-0.7l-0.7-0.1c-0.8-0.2-1.2-0.5-1.2-1.1
	s0.6-1.3,1.6-1.3c0.6,0,1.2,0.2,1.6,0.5l-0.3,0.4c-0.4-0.3-0.9-0.5-1.4-0.5c-0.6,0-0.9,0.3-0.9,0.7s0.2,0.5,0.8,0.6l0.7,0.1
	c0.9,0.2,1.3,0.5,1.3,1.2c-0.1,0.8-0.8,1.4-1.7,1.3c-0.6,0-1.3-0.2-1.8-0.6L176.2,94.7z"/>
<path d="M180.3,91.4h0.6v0.7c0.3-0.5,0.8-0.7,1.3-0.7c0.6,0,1.1,0.3,1.3,0.8c0.3-0.5,0.8-0.9,1.4-0.8c0.8,0,1.5,0.7,1.5,1.5
	c0,0,0,0.1,0,0.1v2.8h-0.6v-2.6c0-0.8-0.4-1.2-1.1-1.2c-0.5,0-0.9,0.3-1.1,0.7c0,0.1,0,0.3,0,0.4v2.8H183v-2.6
	c0-0.8-0.4-1.2-1.1-1.2c-0.4,0-0.8,0.2-1.1,0.6v3.2h-0.6L180.3,91.4z"/>
<path d="M189.6,91.3c1.2-0.1,2.3,0.9,2.4,2.1s-0.9,2.3-2.1,2.4c-1.2,0.1-2.3-0.9-2.4-2.1c0,0,0-0.1,0-0.1
	C187.5,92.4,188.4,91.4,189.6,91.3C189.6,91.3,189.6,91.3,189.6,91.3z M191.1,93.6c0.1-0.8-0.4-1.6-1.3-1.7
	c-0.8-0.1-1.6,0.4-1.7,1.3c0,0.1,0,0.3,0,0.4c-0.1,0.8,0.4,1.6,1.3,1.7c0.8,0.1,1.6-0.4,1.7-1.3C191.1,93.8,191.1,93.7,191.1,93.6z"
	/>
<path d="M196.1,95.1c-0.3,0.4-0.8,0.7-1.4,0.6c-1.2,0-2-1-2-2.2c0,0,0,0,0,0c-0.1-1.2,0.8-2.2,2-2.2c0,0,0,0,0,0
	c0.5,0,1,0.2,1.3,0.6v-2.6l0.6-0.1v6.5H196L196.1,95.1z M194.8,95.2c0.5,0,0.9-0.2,1.2-0.6v-2.1c-0.6-0.6-1.6-0.6-2.3,0
	s-0.6,1.6,0,2.3C194.1,95,194.4,95.2,194.8,95.2z"/>
<path d="M200.6,91.9h-0.9v-0.5h0.9v-1.2l0.6-0.2v1.3h1.2v0.5h-1.2v2.6c0,0.5,0.2,0.7,0.6,0.7c0.2,0,0.4,0,0.6-0.1v0.6
	c-0.2,0.1-0.5,0.1-0.8,0.1c-0.7,0-1.1-0.4-1.1-1.1V91.9z"/>
<path d="M203.3,89.9c0-0.3,0.3-0.4,0.5-0.4c0.2,0,0.4,0.2,0.4,0.4c0,0.3-0.1,0.5-0.4,0.5c-0.3,0-0.5-0.1-0.5-0.4
	C203.3,90,203.3,89.9,203.3,89.9z M204.1,95.7h-0.6v-4.3h0.6V95.7z"/>
<path d="M205.4,91.4h0.6v0.7c0.3-0.5,0.8-0.8,1.4-0.8c0.8,0,1.5,0.6,1.6,1.4c0,0.1,0,0.1,0,0.2v2.8h-0.6v-2.6c0.1-0.6-0.4-1.2-1-1.2
	c-0.1,0-0.1,0-0.2,0c-0.5,0-0.9,0.3-1.1,0.7v3.2h-0.6V91.4z"/>
<path d="M213.5,94.7l0.4,0.4c-0.4,0.4-1,0.7-1.6,0.7c-1.2-0.1-2.2-1.2-2.1-2.4c0.1-1.1,1-2,2.1-2.1c0.6,0,1.2,0.2,1.7,0.7l-0.4,0.4
	c-0.3-0.3-0.8-0.5-1.2-0.5c-0.9,0.1-1.6,0.9-1.5,1.8c0.1,0.8,0.7,1.4,1.5,1.5C212.7,95.2,213.2,95,213.5,94.7z"/>
<path d="M214.7,89.9c0-0.3,0.3-0.4,0.5-0.4c0.2,0,0.4,0.2,0.4,0.4c0,0.3-0.1,0.5-0.4,0.5c-0.3,0-0.5-0.1-0.5-0.4
	C214.7,90,214.7,89.9,214.7,89.9z M215.4,95.7h-0.6v-4.3h0.6V95.7z"/>
<path d="M220,95.1c-0.3,0.4-0.8,0.7-1.4,0.6c-1.2,0-2-1-2-2.2c0,0,0,0,0,0c-0.1-1.2,0.8-2.2,2-2.2c0,0,0,0,0,0c0.5,0,1,0.2,1.3,0.6
	v-2.6l0.6-0.1v6.5H220V95.1z M218.8,95.2c0.5,0,0.9-0.2,1.2-0.6v-2.1c-0.6-0.6-1.6-0.6-2.3,0s-0.6,1.6,0,2.3
	C218,95,218.4,95.2,218.8,95.2z"/>
<path d="M222.6,94c-0.1,0.6,0.4,1.2,1,1.2c0.1,0,0.1,0,0.2,0c0.5,0,0.9-0.2,1.1-0.7v-3.2h0.6v4.3h-0.6V95c-0.3,0.5-0.8,0.8-1.4,0.8
	c-0.8,0-1.5-0.6-1.6-1.5c0,0,0-0.1,0-0.1v-2.8h0.6L222.6,94z"/>
<path d="M226.8,91.4h0.6v0.7c0.3-0.5,0.8-0.8,1.4-0.8c0.8,0,1.5,0.6,1.6,1.4c0,0.1,0,0.1,0,0.2v2.8h-0.6v-2.6c0.1-0.6-0.4-1.2-1-1.2
	c-0.1,0-0.1,0-0.2,0c-0.5,0-0.9,0.2-1.1,0.7v3.2h-0.6L226.8,91.4z"/>
<path d="M232.1,91.9h-0.9v-0.5h0.9v-1.2l0.6-0.2v1.3h1.3v0.5h-1.2v2.6c0,0.5,0.2,0.7,0.6,0.7c0.2,0,0.4,0,0.6-0.1v0.6
	c-0.2,0.1-0.5,0.1-0.8,0.1c-0.8,0-1.1-0.4-1.1-1.1L232.1,91.9z"/>
<path d="M237.6,94c-0.1,0.6,0.4,1.2,1,1.2c0.1,0,0.1,0,0.2,0c0.5,0,0.9-0.2,1.1-0.7v-3.2h0.6v4.3h-0.6V95c-0.3,0.5-0.8,0.8-1.4,0.8
	c-0.8,0-1.5-0.6-1.6-1.5c0,0,0-0.1,0-0.1v-2.8h0.6L237.6,94z"/>
<path d="M242.4,91.9h-0.9v-0.5h0.9v-1.2L243,90v1.3h1.2v0.5H243v2.6c0,0.5,0.2,0.7,0.6,0.7c0.2,0,0.4,0,0.6-0.1v0.6
	c-0.2,0.1-0.5,0.1-0.8,0.1c-0.8,0-1.1-0.4-1.1-1.1L242.4,91.9z"/>
<path d="M51.3,108.6h-0.6v-6.3l0.7-0.1L51.3,108.6z"/>
<path d="M52.5,107.3c0-0.8,0.6-1.3,1.6-1.3c0.5,0,0.9,0.1,1.3,0.3v-0.6c0-0.7-0.4-1.1-1.1-1.1c-0.5,0-0.9,0.1-1.3,0.4l-0.2-0.5
	c0.5-0.3,1.1-0.4,1.6-0.4c1.1,0,1.7,0.5,1.7,1.5v2.9h-0.6v-0.5c-0.4,0.4-0.9,0.6-1.4,0.6c-0.8,0.1-1.5-0.4-1.6-1.2
	C52.5,107.4,52.5,107.4,52.5,107.3z M54.2,108.2c0.5,0,0.9-0.2,1.2-0.5v-0.8c-0.4-0.2-0.8-0.3-1.2-0.3c-0.7,0-1.1,0.3-1.1,0.8
	S53.5,108.2,54.2,108.2z"/>
<path d="M59.2,104.2c1.2-0.1,2.3,0.9,2.4,2.1c0.1,1.2-0.9,2.3-2.1,2.4s-2.3-0.9-2.4-2.1c0-0.1,0-0.1,0-0.2
	C57.1,105.3,58,104.3,59.2,104.2C59.2,104.2,59.2,104.2,59.2,104.2z M60.7,106.4c0.1-0.8-0.4-1.6-1.3-1.7c-0.8-0.1-1.6,0.4-1.7,1.3
	c0,0.1,0,0.3,0,0.4c-0.1,0.8,0.4,1.6,1.3,1.7c0.8,0.1,1.6-0.4,1.7-1.3C60.7,106.7,60.7,106.6,60.7,106.4z"/>
<path d="M62.5,104.3h0.7v0.9c0.1-0.5,0.6-0.9,1.2-0.9c0.1,0,0.3,0,0.4,0.1v0.6c-0.1,0-0.3-0.1-0.4-0.1c-0.5,0-1,0.4-1.2,0.9v3h-0.7
	L62.5,104.3z"/>
<path d="M67.3,108.7c-1.2,0-2.2-1-2.1-2.2c0,0,0,0,0-0.1c-0.1-1.2,0.8-2.2,2-2.2c0,0,0,0,0,0c1.1,0,2,0.9,2,2c0,0.1,0,0.1,0,0.2v0.2
	h-3.4c0,0.8,0.7,1.5,1.5,1.5c0.4,0,0.9-0.2,1.2-0.4l0.4,0.4C68.4,108.5,67.9,108.7,67.3,108.7z M65.8,106.1h2.7
	c0-0.7-0.6-1.3-1.4-1.4C66.4,104.8,65.8,105.4,65.8,106.1z"/>
<path d="M72.2,108.7c-1.2,0-2.2-1-2.2-2.2c0,0,0,0,0-0.1c-0.1-1.2,0.8-2.2,2-2.2c0,0,0,0,0,0c1.1,0,2,0.9,2,2c0,0.1,0,0.1,0,0.2v0.2
	h-3.4c0,0.8,0.7,1.5,1.5,1.5c0.4,0,0.9-0.2,1.2-0.4l0.4,0.4C73.4,108.5,72.8,108.7,72.2,108.7z M70.7,106.1h2.7
	c0-0.8-0.6-1.4-1.4-1.4C71.3,104.7,70.7,105.3,70.7,106.1z"/>
<path d="M75.6,104.8h-0.9v-0.5h0.9v-1.2l0.6-0.2v1.3h1.2v0.5h-1.2v2.6c0,0.5,0.2,0.7,0.6,0.7c0.2,0,0.4,0,0.6-0.1v0.6
	c-0.2,0.1-0.5,0.1-0.8,0.1c-0.7,0-1.1-0.4-1.1-1.1V104.8z"/>
<path d="M83.6,108c-0.3,0.4-0.8,0.7-1.4,0.6c-1.1,0-2-1-2-2.2c0,0,0,0,0-0.1c-0.1-1.2,0.8-2.2,2-2.2c0,0,0,0,0,0
	c0.5,0,1,0.2,1.3,0.6v-2.6l0.6-0.1v6.5h-0.6L83.6,108z M82.4,108.1c0.5,0,0.9-0.2,1.2-0.6v-2.2c-0.3-0.4-0.7-0.6-1.2-0.6
	c-0.9,0.1-1.6,0.9-1.5,1.8C81,107.4,81.6,108,82.4,108.1z"/>
<path d="M87.5,104.2c1.2-0.1,2.3,0.9,2.4,2.1c0.1,1.2-0.9,2.3-2.1,2.4c-1.2,0.1-2.3-0.9-2.4-2.1c0-0.1,0-0.1,0-0.2
	C85.3,105.3,86.2,104.3,87.5,104.2C87.4,104.2,87.5,104.2,87.5,104.2z M89,106.4c0.1-0.8-0.4-1.6-1.3-1.7c-0.8-0.1-1.6,0.4-1.7,1.3
	c0,0.1,0,0.3,0,0.4c-0.1,0.8,0.4,1.6,1.3,1.7c0.8,0.1,1.6-0.4,1.7-1.3C89,106.7,89,106.6,89,106.4z"/>
<path d="M91.4,108.6h-0.7v-6.3l0.7-0.1V108.6z"/>
<path d="M94.6,104.2c1.2-0.1,2.3,0.9,2.4,2.1c0.1,1.2-0.9,2.3-2.1,2.4c-1.2,0.1-2.3-0.9-2.4-2.1c0,0,0-0.1,0-0.1
	c-0.1-1.2,0.8-2.2,2-2.2C94.5,104.2,94.6,104.2,94.6,104.2z M96.1,106.4c0.1-0.8-0.4-1.6-1.3-1.7c-0.8-0.1-1.6,0.4-1.7,1.3
	c0,0.1,0,0.3,0,0.4c-0.1,0.8,0.4,1.6,1.3,1.7c0.8,0.1,1.6-0.4,1.7-1.3C96.1,106.7,96.1,106.6,96.1,106.4z"/>
<path d="M97.8,104.3h0.7v0.9c0.1-0.5,0.6-0.9,1.2-0.9c0.1,0,0.3,0,0.4,0.1v0.6c-0.1,0-0.3-0.1-0.4-0.1c-0.5,0-1,0.4-1.2,0.9v3h-0.7
	V104.3z"/>
<path d="M102.6,108.7c-1.2,0-2.2-1-2.1-2.2c0,0,0,0,0-0.1c-0.1-1.2,0.8-2.2,2-2.2c0,0,0,0,0,0c1.1,0,2,0.9,2,2c0,0.1,0,0.1,0,0.2
	v0.2h-3.4c0,0.8,0.7,1.5,1.5,1.5c0.4,0,0.9-0.2,1.2-0.4l0.4,0.4C103.8,108.5,103.2,108.7,102.6,108.7z M101.2,106.1h2.7
	c-0.1-0.8-0.7-1.3-1.5-1.2C101.7,104.9,101.2,105.4,101.2,106.1z"/>
<path d="M107.7,104.3h0.7v0.7c0.3-0.5,0.8-0.7,1.3-0.7c0.6,0,1.1,0.3,1.3,0.8c0.3-0.5,0.8-0.9,1.4-0.8c0.8,0,1.5,0.7,1.5,1.5
	c0,0,0,0.1,0,0.1v2.8h-0.6V106c0-0.8-0.4-1.2-1.1-1.2c-0.5,0-0.9,0.3-1.1,0.7c0,0.1,0,0.3,0,0.4v2.8h-0.7V106c0-0.8-0.4-1.2-1.1-1.2
	c-0.4,0-0.8,0.3-1,0.6v3.2h-0.7L107.7,104.3z"/>
<path d="M114.9,107.3c0-0.8,0.7-1.3,1.6-1.3c0.5,0,0.9,0.1,1.3,0.3v-0.6c0-0.7-0.4-1.1-1.1-1.1c-0.5,0-0.9,0.1-1.3,0.4l-0.2-0.5
	c0.5-0.3,1.1-0.4,1.6-0.4c1.1,0,1.7,0.5,1.7,1.5v2.9h-0.6v-0.5c-0.4,0.4-0.9,0.6-1.4,0.6c-0.8,0.1-1.5-0.5-1.6-1.2
	C114.9,107.4,114.9,107.4,114.9,107.3z M116.6,108.2c0.5,0,0.9-0.2,1.2-0.5v-0.8c-0.4-0.2-0.8-0.3-1.2-0.3c-0.7,0-1.1,0.3-1.1,0.8
	S116,108.2,116.6,108.2z"/>
<path d="M119.6,106.4c-0.1-1.2,0.8-2.2,2-2.2c0,0,0,0,0,0c0.5,0,1,0.2,1.3,0.6v-0.6h0.6v4.5c0,1.1-0.7,1.7-1.8,1.7
	c-0.6,0-1.2-0.2-1.7-0.4l0.3-0.5c0.4,0.2,0.9,0.4,1.4,0.4c0.8,0,1.2-0.4,1.2-1.1V108c-0.3,0.4-0.8,0.7-1.4,0.6
	C120.4,108.6,119.6,107.6,119.6,106.4C119.6,106.4,119.6,106.4,119.6,106.4z M121.8,108.1c0.5,0,0.9-0.2,1.2-0.6v-2.1
	c-0.6-0.6-1.6-0.6-2.3,0s-0.6,1.6,0,2.3C121,107.9,121.4,108.1,121.8,108.1z"/>
<path d="M125,104.3h0.7v0.7c0.3-0.5,0.8-0.8,1.4-0.8c0.8,0,1.5,0.6,1.6,1.4c0,0.1,0,0.1,0,0.2v2.8h-0.7V106c0.1-0.6-0.4-1.2-1-1.2
	c-0.1,0-0.1,0-0.2,0c-0.5,0-0.9,0.2-1.1,0.7v3.2H125V104.3z"/>
<path d="M129.6,107.3c0-0.8,0.6-1.3,1.6-1.3c0.5,0,0.9,0.1,1.3,0.3v-0.6c0-0.6-0.4-1-0.9-1.1c-0.1,0-0.1,0-0.2,0
	c-0.5,0-0.9,0.1-1.3,0.4l-0.2-0.5c0.5-0.3,1.1-0.4,1.6-0.4c1.1,0,1.7,0.5,1.7,1.5v2.9h-0.6v-0.5c-0.4,0.4-0.9,0.6-1.4,0.6
	c-0.8,0.1-1.5-0.4-1.6-1.2C129.6,107.4,129.6,107.4,129.6,107.3z M131.3,108.2c0.5,0,0.9-0.2,1.2-0.5v-0.8c-0.4-0.2-0.8-0.3-1.2-0.3
	c-0.7,0-1.1,0.3-1.1,0.8S130.7,108.2,131.3,108.2L131.3,108.2z"/>
<path d="M135.3,108.2c0,0.3-0.1,0.5-0.4,0.5c-0.3,0-0.5-0.1-0.5-0.4c0,0,0-0.1,0-0.1c0-0.3,0.1-0.5,0.4-0.5c0.3,0,0.5,0.1,0.5,0.4
	C135.3,108.1,135.3,108.1,135.3,108.2z"/>
<path d="M51.9,40.2h2.7V48h9.6v-7.8h2.7v18h-2.7v-7.8h-9.6v7.8h-2.7V40.2z"/>
<path d="M76.5,58.5c-3.7,0.1-6.8-2.9-6.9-6.6c0-0.1,0-0.1,0-0.2c-0.1-3.6,2.8-6.7,6.4-6.7c0,0,0.1,0,0.1,0c3.6,0,6.3,3,6.3,6.8v0.8
	H72.2c0.3,2.2,2.2,3.8,4.4,3.8c1.2,0,2.4-0.4,3.3-1.2l1.7,1.6C80.1,57.9,78.3,58.5,76.5,58.5z M72.2,50.6H80
	c-0.2-2.1-2.1-3.7-4.3-3.5C73.9,47.3,72.4,48.8,72.2,50.6L72.2,50.6z"/>
<path d="M84.1,54.5c0-2.5,2-4,5.3-4c1.2,0,2.4,0.2,3.6,0.7v-1.4c0-1.9-1.1-2.8-3.2-2.8c-1.4,0.1-2.8,0.4-4.1,1.1l-1-1.9
	c1.7-0.8,3.5-1.3,5.4-1.3c3.4,0,5.4,1.7,5.4,4.7v8.7H93v-1.1c-1.1,0.9-2.5,1.4-4,1.4C86.1,58.5,84.1,56.8,84.1,54.5z M89.6,56.6
	c1.3,0,2.5-0.4,3.4-1.2v-2.3c-1-0.6-2.2-0.8-3.4-0.8c-1.9,0-3,0.8-3,2.2S87.8,56.6,89.6,56.6z"/>
<path d="M108.6,57c-1.1,0.9-2.5,1.4-4,1.4c-3.7,0-6.8-3-6.8-6.8c0-3.7,3-6.8,6.8-6.8c1.4,0,2.8,0.5,3.9,1.3v-6l2.6-0.6v18.6h-2.5
	L108.6,57z M104.9,56.2c1.4,0,2.7-0.5,3.6-1.6v-6c-0.9-1-2.3-1.6-3.6-1.5c-2.4,0-4.4,1.9-4.5,4.3c0,0.1,0,0.1,0,0.2
	c-0.1,2.4,1.8,4.5,4.2,4.6C104.7,56.2,104.8,56.2,104.9,56.2L104.9,56.2z"/>
<path d="M116.7,58.2h-2.6v-18l2.6-0.6V58.2z"/>
<path d="M119.5,41.4c0-0.9,0.7-1.6,1.5-1.6c0.9,0.1,1.5,1,1.3,1.8c-0.1,0.7-0.6,1.2-1.3,1.3C120.1,43,119.5,42.3,119.5,41.4z
	 M122.3,58.2h-2.6V45.1h2.6V58.2z"/>
<path d="M125.3,45.1h2.6v1.3c1-1,2.5-1.6,3.9-1.6c2.7-0.1,5,1.9,5.1,4.6c0,0.2,0,0.3,0,0.5v8.2h-2.6v-7.8c0.2-1.6-1-3.1-2.7-3.3
	c-0.2,0-0.4,0-0.6,0c-1.3,0-2.5,0.6-3.2,1.7v9.4h-2.6L125.3,45.1z"/>
<path d="M146.2,58.5c-3.7,0.1-6.8-2.9-6.9-6.6c0-0.1,0-0.1,0-0.2c-0.1-3.6,2.8-6.7,6.4-6.7c0,0,0.1,0,0.1,0c3.6,0,6.3,3,6.3,6.8v0.8
	h-10.4c0.3,2.2,2.2,3.8,4.4,3.8c1.2,0,2.4-0.4,3.3-1.2l1.6,1.6C149.9,57.9,148.1,58.5,146.2,58.5z M141.9,50.6h7.8
	c-0.2-2.1-2.2-3.7-4.3-3.4C143.6,47.4,142.1,48.8,141.9,50.6z"/>
<path class="st0" d="M65.3,144.5c0.1,0.3,0.2,0.7,0.2,1c0,1.3-1.5,2.1-3.5,2.1c-4.5,0-8.4-2.6-8.4-4.3c0-0.2,0-0.5,0.1-0.7
	c-1.6,0.1-3.7,0.4-3.7,2.2c0,3,7.1,6.7,12.8,6.7c4.3,0,5.4-2,5.4-3.5C68.2,146.7,67.2,145.3,65.3,144.5 M62.2,145.6
	c1.2,0,2.9-0.2,2.9-1.7c0-0.1,0-0.2,0-0.3l-0.7-3.1c-0.2-0.7-0.3-1-1.5-1.6c-1.1-0.6-2.3-1-3.5-1.3c-0.6,0-0.7,0.7-1.4,0.7
	s-1.1-0.5-1.7-0.5s-0.9,0.4-1.2,1.2c0,0-0.8,2.3-0.9,2.6c0,0.1,0,0.1,0,0.2C54.1,142.7,57.6,145.6,62.2,145.6"/>
<path d="M65.3,144.5c0.1,0.3,0.2,0.7,0.2,1c0,1.3-1.5,2.1-3.5,2.1c-4.5,0-8.4-2.6-8.4-4.3c0-0.2,0-0.5,0.1-0.7l0.3-0.9
	c0,0.1,0,0.1,0,0.2c0,0.9,3.5,3.8,8.1,3.8c1.2,0,2.9-0.2,2.9-1.7c0-0.1,0-0.2,0-0.3L65.3,144.5L65.3,144.5z"/>
<path d="M71.6,148.1h1.7v-2.6h1.3l1.3,2.6h1.9l-1.5-2.8c0.8-0.3,1.3-1.1,1.3-2c0-1.3-1-2.3-2.3-2.2c-0.1,0-0.1,0-0.2,0h-3.6
	L71.6,148.1L71.6,148.1z M75,142.5c0.4,0,0.8,0.3,0.9,0.7c0,0.4-0.3,0.8-0.7,0.9c-0.1,0-0.1,0-0.2,0h-1.7v-1.6H75z M77.8,145.4
	c0,1.5,1.3,2.8,2.8,2.8c0,0,0,0,0.1,0c0.8,0,1.6-0.3,2.2-0.8l-1.1-0.9c-0.3,0.3-0.7,0.4-1.1,0.4c-0.6,0-1.1-0.3-1.3-0.8h3.8v-0.4
	c0.1-1.5-1-2.8-2.5-2.9c-1.5-0.1-2.8,1-2.9,2.5C77.8,145.2,77.8,145.3,77.8,145.4 M80.5,144c0.5,0,1,0.3,1.1,0.8h-2.2
	C79.6,144.3,80,144,80.5,144 M87.9,148.1h1.6v-7.4l-1.6,0.4v2c-1.3-0.8-3-0.3-3.8,1c-0.8,1.3-0.3,3,1,3.8c0.4,0.2,0.9,0.4,1.4,0.4
	c0.5,0,1-0.2,1.4-0.5V148.1L87.9,148.1z M85.4,145.4c0-0.7,0.6-1.3,1.3-1.4c0,0,0,0,0.1,0c0.4,0,0.8,0.1,1.1,0.4v1.9
	c-0.3,0.3-0.7,0.4-1.1,0.4C86,146.8,85.4,146.2,85.4,145.4C85.4,145.4,85.4,145.4,85.4,145.4 M91.9,148.1h1.7v-2.8h2.9v2.8h1.7v-7
	h-1.7v2.7h-2.9V141h-1.7V148.1L91.9,148.1z M100.8,148.2c0.5,0,1-0.1,1.5-0.4v0.3h1.6v-3.4c0-1.3-0.9-2-2.3-2
	c-0.9,0-1.7,0.2-2.5,0.6l0.6,1.2c0.5-0.2,1-0.4,1.6-0.4c0.7,0,1,0.3,1,0.8v0.3c-0.4-0.1-0.8-0.2-1.2-0.1c-1.4,0-2.2,0.6-2.2,1.6
	c0,1,0.8,1.7,1.8,1.7C100.7,148.2,100.7,148.2,100.8,148.2 M100.2,146.5c0-0.4,0.3-0.5,0.9-0.5c0.3,0,0.7,0,1,0.1v0.7
	c-0.3,0.2-0.7,0.3-1,0.2C100.6,147,100.3,146.8,100.2,146.5 M105.3,146.5c0,1.1,0.7,1.7,1.9,1.7c0.4,0,0.8-0.1,1.1-0.2v-1.3
	c-0.2,0.1-0.5,0.1-0.7,0.1c-0.5,0-0.7-0.2-0.7-0.6v-2h1.5v-1.4h-1.5V141l-1.6,0.4v1.4h-1.1v1.4h1.1L105.3,146.5L105.3,146.5z"/>
</svg>
