<svg id="f0feea14-5a37-4a54-bdde-7acbae41e0fc" data-name="Layer 1" xmlns="http://www.w3.org/2000/svg" viewBox="0 0 555 180">
  <g>
    <path d="M180.34,65.63h14.33v2.23h-5.91V82.43h-2.52V67.86h-5.9Z"/>
    <path d="M196.49,65.63l2.4-.53v6.33A5,5,0,0,1,202.56,70a4.57,4.57,0,0,1,4.78,4.78v7.68h-2.4V75.16a2.85,2.85,0,0,0-3-3.1,3.45,3.45,0,0,0-3,1.58v8.79h-2.4Z"/>
    <path d="M209.83,66.75a1.47,1.47,0,0,1,1.47-1.48,1.49,1.49,0,1,1-1.47,1.48Zm2.67,15.68h-2.4V70.21h2.4Z"/>
    <path d="M215.47,79.26a6.4,6.4,0,0,0,4,1.54c1.72,0,2.92-.75,2.92-1.83,0-.86-.62-1.37-2-1.56l-2.21-.31q-3.65-.54-3.65-3.38c0-2.21,1.92-3.7,4.78-3.7a8.36,8.36,0,0,1,4.92,1.56L223,73.16a6.84,6.84,0,0,0-3.86-1.27c-1.47,0-2.45.67-2.45,1.66s.58,1.32,2,1.53l2.2.32c2.43.36,3.7,1.51,3.7,3.4,0,2.19-2.21,3.84-5.11,3.84a8,8,0,0,1-5.35-1.8Z"/>
    <path d="M231.24,66.75a1.47,1.47,0,0,1,1.46-1.48,1.49,1.49,0,1,1,0,3A1.47,1.47,0,0,1,231.24,66.75Zm2.66,15.68h-2.4V70.21h2.4Z"/>
    <path d="M236.88,79.26a6.4,6.4,0,0,0,4,1.54c1.73,0,2.93-.75,2.93-1.83,0-.86-.62-1.37-2-1.56l-2.2-.31Q236,76.56,236,73.72c0-2.21,1.92-3.7,4.77-3.7a8.34,8.34,0,0,1,4.92,1.56l-1.22,1.58a6.84,6.84,0,0,0-3.86-1.27c-1.47,0-2.45.67-2.45,1.66s.57,1.32,2,1.53l2.21.32c2.43.36,3.7,1.51,3.7,3.4,0,2.19-2.21,3.84-5.11,3.84a8.05,8.05,0,0,1-5.36-1.8Z"/>
    <path d="M252.29,78.92c0-2.3,1.87-3.72,4.94-3.72a8.48,8.48,0,0,1,3.34.68v-1.3c0-1.73-1-2.59-3-2.59a8.66,8.66,0,0,0-3.79,1l-.89-1.8a11.38,11.38,0,0,1,5-1.25c3.17,0,5,1.56,5,4.37v8.09h-2.35V81.37a5.77,5.77,0,0,1-3.79,1.27C254.11,82.64,252.29,81.13,252.29,78.92Zm5,2a4.76,4.76,0,0,0,3.24-1.15V77.6a6.4,6.4,0,0,0-3.15-.74c-1.75,0-2.83.79-2.83,2S255.7,80.87,257.33,80.87Z"/>
    <path d="M265.68,70.21h2.4v1.22A5,5,0,0,1,271.75,70a4.57,4.57,0,0,1,4.78,4.78v7.68h-2.4V75.16a2.85,2.85,0,0,0-3-3.1,3.45,3.45,0,0,0-3,1.58v8.79h-2.4Z"/>
    <path d="M290.16,82.64a6.29,6.29,0,0,1-6.41-6.33A6.14,6.14,0,0,1,289.87,70c3.36,0,5.91,2.78,5.91,6.38v.7h-9.65a4.11,4.11,0,0,0,4.13,3.5,4.7,4.7,0,0,0,3.09-1.08L294.89,81A7.32,7.32,0,0,1,290.16,82.64Zm-4-7.34h7.25a3.64,3.64,0,0,0-7.25,0Z"/>
    <path d="M300.55,76.16l-4.56-6h2.81l3.14,4.2,3.15-4.2h2.71l-4.51,5.93,4.82,6.29h-2.83l-3.36-4.51-3.41,4.51H295.8Z"/>
    <path d="M308.47,78.92c0-2.3,1.87-3.72,4.95-3.72a8.47,8.47,0,0,1,3.33.68v-1.3c0-1.73-1-2.59-3-2.59a8.73,8.73,0,0,0-3.8,1l-.88-1.8a11.31,11.31,0,0,1,5-1.25c3.17,0,5,1.56,5,4.37v8.09h-2.35V81.37A5.75,5.75,0,0,1,313,82.64C310.3,82.64,308.47,81.13,308.47,78.92Zm5,2a4.72,4.72,0,0,0,3.24-1.15V77.6a6.37,6.37,0,0,0-3.14-.74c-1.75,0-2.83.79-2.83,2S311.88,80.87,313.51,80.87Z"/>
    <path d="M321.86,70.21h2.4v1.15A4.72,4.72,0,0,1,327.7,70a4.24,4.24,0,0,1,3.76,2,4.91,4.91,0,0,1,4.13-2,4.48,4.48,0,0,1,4.59,4.78v7.68h-2.4V75.16c0-1.92-1.08-3.1-2.81-3.1a3.27,3.27,0,0,0-2.86,1.63,5.29,5.29,0,0,1,.1,1.06v7.68h-2.38V75.16c0-1.92-1.08-3.1-2.81-3.1a3.2,3.2,0,0,0-2.76,1.49v8.88h-2.4Z"/>
    <path d="M342.94,70.21h2.37v1.18A5.58,5.58,0,0,1,349.06,70a6.3,6.3,0,1,1-3.72,11.4v6h-2.4Zm2.4,3.36v5.52a4.5,4.5,0,0,0,3.4,1.44,4.21,4.21,0,0,0,0-8.42A4.35,4.35,0,0,0,345.34,73.57Z"/>
    <path d="M359.9,82.43h-2.4V65.63l2.4-.53Z"/>
    <path d="M368.59,82.64a6.29,6.29,0,0,1-6.41-6.33A6.14,6.14,0,0,1,368.3,70c3.36,0,5.91,2.78,5.91,6.38v.7h-9.65a4.12,4.12,0,0,0,4.13,3.5,4.68,4.68,0,0,0,3.09-1.08L373.32,81A7.3,7.3,0,0,1,368.59,82.64Zm-4-7.34h7.25a3.64,3.64,0,0,0-7.25,0Z"/>
    <path d="M183.62,111.23,180.22,99h2.32l2.36,9,2.81-9h2.06l2.78,9,2.38-9h2.26l-3.44,12.22h-2.3l-2.74-9-2.76,9Z"/>
    <path d="M198.62,95.55a1.47,1.47,0,0,1,1.47-1.48,1.49,1.49,0,1,1,0,3A1.48,1.48,0,0,1,198.62,95.55Zm2.67,15.68h-2.4V99h2.4Z"/>
    <path d="M205.7,101h-2.59V99h2.59V95.89l2.38-.58V99h3.6v2h-3.6v6.62c0,1.25.5,1.71,1.8,1.71a4.84,4.84,0,0,0,1.75-.29v2a7.82,7.82,0,0,1-2.28.36c-2.37,0-3.65-1.12-3.65-3.24Z"/>
    <path d="M213.46,94.43l2.4-.53v6.33a5,5,0,0,1,3.67-1.46,4.57,4.57,0,0,1,4.78,4.78v7.68H221.9V104a2.84,2.84,0,0,0-3-3.1,3.44,3.44,0,0,0-3,1.58v8.79h-2.4Z"/>
    <path d="M237.5,111.47a5.7,5.7,0,0,1-6-5.79,6.73,6.73,0,0,1,6.5-6.86c3.08,0,5.33,2.45,5.33,5.81a9.68,9.68,0,0,1-.07,1.25h-9.46a3.76,3.76,0,0,0,3.87,3.55,5,5,0,0,0,3-1l1.27,1.58A7.3,7.3,0,0,1,237.5,111.47ZM234,104.1h7.12a3.34,3.34,0,0,0-3.28-3.24A4.15,4.15,0,0,0,234,104.1Z"/>
    <path d="M246.86,99h2.33l-.24,1.13a5,5,0,0,1,3.39-1.35,3.56,3.56,0,0,1,3.45,2.16,5.67,5.67,0,0,1,4.35-2.16c2.71,0,4.25,2.12,3.62,5l-1.58,7.47h-2.33l1.53-7.27c.39-1.83-.5-3.1-2.16-3.1a4.1,4.1,0,0,0-3.12,1.7,5.24,5.24,0,0,1-.12,1.2l-1.58,7.47h-2.35l1.51-7.16c.43-1.92-.43-3.21-2.14-3.21a3.85,3.85,0,0,0-2.95,1.51l-1.87,8.86h-2.33Z"/>
    <path d="M267.53,99h2.33l-.17.74a5.83,5.83,0,0,1,3.14-.91,5.39,5.39,0,0,1,5.43,5.62,6.87,6.87,0,0,1-6.77,7,5.39,5.39,0,0,1-3.94-1.58l-1.34,6.36h-2.33Zm1.68,3L268,107.63a4,4,0,0,0,3.39,1.7,4.55,4.55,0,0,0,4.53-4.65,3.59,3.59,0,0,0-3.67-3.77A4.57,4.57,0,0,0,269.21,102.06Z"/>
    <path d="M282.79,94.43l2.45-.53L283.92,100a5.64,5.64,0,0,1,3.53-1.25c2.9,0,4.56,2.16,3.93,5.09l-1.56,7.35H287.5l1.48-7.08c.44-2-.55-3.29-2.42-3.29a4.14,4.14,0,0,0-3.12,1.44l-1.9,8.93h-2.32Z"/>
    <path d="M292.77,108c0-2.45,2-4,5.05-4a8.32,8.32,0,0,1,3.67.84l.24-1.08c.41-2-.51-2.95-2.74-2.95a9.53,9.53,0,0,0-3.55.86l-.63-1.82a12.24,12.24,0,0,1,4.64-1c3.5,0,5.23,1.83,4.58,4.88l-1.61,7.56h-2.3l.19-.89A5.72,5.72,0,0,1,297,111.4C294.41,111.4,292.77,110.05,292.77,108Zm4.88,1.63a5.16,5.16,0,0,0,3-1l.46-2.12a5.55,5.55,0,0,0-3.22-.91c-1.73,0-2.9.89-2.9,2.16S296,109.62,297.65,109.62Z"/>
    <path d="M306.07,107.8a5.55,5.55,0,0,0,4,1.8c1.59,0,2.72-.77,2.72-1.85,0-.77-.53-1.2-1.71-1.47L309,105.8c-2-.45-3.05-1.51-3.05-3.17,0-2.32,1.82-3.81,4.63-3.81a7.62,7.62,0,0,1,5.07,1.9l-1.37,1.51a6,6,0,0,0-3.84-1.56c-1.44,0-2.38.67-2.38,1.72,0,.75.48,1.18,1.75,1.47l2.12.48c2.09.46,3.12,1.51,3.12,3.14,0,2.28-2.14,4-5,4a7.48,7.48,0,0,1-5.43-2.19Z"/>
    <path d="M318.41,111.23h-2.33L318.67,99H321Zm.69-15.51a1.68,1.68,0,0,1,1.63-1.65,1.3,1.3,0,0,1,1.3,1.32A1.69,1.69,0,0,1,320.4,97,1.28,1.28,0,0,1,319.1,95.72Z"/>
    <path d="M322.2,107.8a5.52,5.52,0,0,0,4,1.8c1.58,0,2.71-.77,2.71-1.85,0-.77-.53-1.2-1.7-1.47l-2.11-.48c-2-.45-3.05-1.51-3.05-3.17,0-2.32,1.82-3.81,4.63-3.81a7.62,7.62,0,0,1,5.06,1.9l-1.36,1.51a6.07,6.07,0,0,0-3.84-1.56c-1.44,0-2.38.67-2.38,1.72,0,.75.48,1.18,1.75,1.47l2.11.48c2.09.46,3.12,1.51,3.12,3.14,0,2.28-2.13,4-5,4a7.47,7.47,0,0,1-5.42-2.19Z"/>
    <path d="M335.42,109.72a1.75,1.75,0,0,1-1.65,1.7,1.33,1.33,0,0,1-1.35-1.34,1.74,1.74,0,0,1,1.71-1.71A1.3,1.3,0,0,1,335.42,109.72Z"/>
  </g>
</svg>
