<svg id="ae288f55-2492-40b3-95c1-9206c5b3b881" data-name="Layer 1" xmlns="http://www.w3.org/2000/svg" viewBox="0 0 555 320"><defs><style>.abe2a01e-ad95-4ee9-a060-ad2fa78999a1{fill:#a7c0e4;}.abe2a01e-ad95-4ee9-a060-ad2fa78999a1,.fb1f8fcd-48b7-486a-abbc-8ec3760c2271{isolation:isolate;opacity:0.5;}.adfc3b43-a804-4f9b-9681-d372e956cb8c{fill:#fff;}.e6c2ab78-be06-4ac4-a488-1f33c957b75d{fill:#e00;}.fb1f8fcd-48b7-486a-abbc-8ec3760c2271{fill:#6c97d3;}.f37f3149-595a-4fd1-b3a7-db44636f1c7c{fill:none;stroke:#6c97d3;stroke-linecap:round;stroke-linejoin:round;stroke-width:0.5px;stroke-dasharray:2;}</style></defs><rect class="abe2a01e-ad95-4ee9-a060-ad2fa78999a1" x="94.4143" y="197.7381" width="366.1714" height="25.6813"/><rect class="adfc3b43-a804-4f9b-9681-d372e956cb8c" x="94.4143" y="65.9193" width="366.1714" height="131.8188"/><path d="M94.8042,85.28h15.4476c6.8226,0,11.4033,4.0935,11.4033,10.0874a9.62,9.62,0,0,1-7.0175,9.3076l7.6022,14.7168H116.587l-7.0659-13.9857h-9.6v13.9857H94.8042Zm15.058,15.8378c3.9959,0,6.676-2.2417,6.676-5.7016,0-3.4111-2.68-5.6528-6.676-5.6528H99.9208v11.3544Z"/><path d="M123.75,106.9653A12.5056,12.5056,0,0,1,136.1762,94.149c6.8223,0,11.9876,5.7016,11.9876,13.06v1.3645h-19.541a8.3593,8.3593,0,0,0,8.3329,7.1147,9.3934,9.3934,0,0,0,6.2864-2.1929l3.1187,3.07a14.8858,14.8858,0,0,1-9.6,3.2651A12.7639,12.7639,0,0,1,123.75,106.9653Zm19.59-2.0469c-.6823-3.8008-3.655-6.6272-7.261-6.6272a7.5324,7.5324,0,0,0-7.407,6.6272Z"/><path d="M151.72,106.9653a12.5346,12.5346,0,0,1,12.6215-12.7675,12.3569,12.3569,0,0,1,7.4558,2.4852V85.28l4.873-.9259v35.0377h-4.8242v-2.3877a11.3185,11.3185,0,0,1-7.6022,2.7777A12.5256,12.5256,0,0,1,151.72,106.9653Zm20.0773,5.5552V101.3612a9.1376,9.1376,0,0,0-6.92-2.9727,8.5789,8.5789,0,0,0,0,17.1533A8.7751,8.7751,0,0,0,171.7974,112.5205Z"/><path d="M193.189,85.28h5.1166V99.8991h18.128V85.28H221.55v34.1118h-5.1168V104.5288h-18.128v14.8628H193.189Z"/><path d="M226.179,112.277c0-4.6782,3.801-7.5534,10.0386-7.5534a16.532,16.532,0,0,1,6.7735,1.413v-2.6313c0-3.5087-2.0953-5.3117-6.0427-5.3117a17.633,17.633,0,0,0-7.6994,2.0954l-1.803-3.6547A23.3751,23.3751,0,0,1,237.6307,94.1c6.4811,0,10.1362,3.1676,10.1362,8.82v16.471h-4.7758v-2.1441a11.7675,11.7675,0,0,1-7.6994,2.5828C229.9312,119.83,226.179,116.76,226.179,112.277Zm10.2334,3.8983a9.3943,9.3943,0,0,0,6.5787-2.339v-4.1909a12.283,12.283,0,0,0-6.3839-1.5594c-3.5572,0-5.75,1.6081-5.75,4.0934C230.8571,114.5671,233.0988,116.1753,236.4124,116.1753Z"/><path d="M255.8553,113.2516V98.6808h-5.2629V94.5877h5.2629V88.2526l4.8245-1.1695v7.5046h7.31v4.0931h-7.31v13.45c0,2.5341,1.0234,3.5087,3.6547,3.5087a9.5776,9.5776,0,0,0,3.5575-.5847v4.0934a16.3794,16.3794,0,0,1-4.6294.6823C258.4381,119.83,255.8553,117.5886,255.8553,113.2516Z"/><path d="M94.4143,136.4462h7.0662v34.1115H94.4143Z"/><path d="M107.23,145.169h6.676v2.0469a10.5883,10.5883,0,0,1,7.1147-2.534c5.8964,0,10.0386,4.1419,10.0386,10.1356v15.74h-6.676V155.7924c0-3.2651-2.0468-5.36-5.2632-5.36a6.2036,6.2036,0,0,0-5.2141,2.5335v17.592H107.23Z"/><path d="M135.6387,138.3467a3.8011,3.8011,0,1,1,3.8011,3.8011A3.8061,3.8061,0,0,1,135.6387,138.3467Zm.4875,6.8223h6.676v25.3887h-6.676Z"/><path d="M151.475,163.3946v-12.67h-5.2141V145.169h5.2141v-6.4814l6.6763-1.51v7.9917h7.261v5.5553h-7.261V162.03c0,2.3877.9259,3.2651,3.5087,3.2651a10.2722,10.2722,0,0,0,3.5572-.5847v5.5065a20.6564,20.6564,0,0,1-5.1653.73C154.399,170.9473,151.475,168.3651,151.475,163.3946Z"/><path d="M168.1894,138.3467a3.8011,3.8011,0,1,1,3.801,3.8011A3.806,3.806,0,0,1,168.1894,138.3467Zm.4874,6.8223h6.676v25.3887h-6.676Z"/><path d="M179.3966,163.2c0-4.8243,3.85-7.7,10.331-7.7a18.8155,18.8155,0,0,1,6.2376,1.0237v-1.8518c0-2.9242-1.803-4.4346-5.3605-4.4346a18.8752,18.8752,0,0,0-7.7482,2.0951L180.42,147.41a26.311,26.311,0,0,1,11.3057-2.7285c6.8711,0,10.8182,3.4108,10.8182,9.4051v16.4707h-6.5787v-1.803a11.742,11.742,0,0,1-7.31,2.2414C183.1489,170.9961,179.3966,167.8286,179.3966,163.2Zm10.9645,3.0212a9.1984,9.1984,0,0,0,5.6041-1.6567v-3.7035a13.8038,13.8038,0,0,0-5.3605-.9749c-3.07,0-4.873,1.2182-4.873,3.1675S187.5347,166.2207,190.3611,166.2207Z"/><path d="M210.34,163.3946v-12.67h-5.2142V145.169H210.34v-6.4814l6.6762-1.51v7.9917h7.261v5.5553h-7.261V162.03c0,2.3877.9259,3.2651,3.5087,3.2651a10.2722,10.2722,0,0,0,3.5572-.5847v5.5065a20.6564,20.6564,0,0,1-5.1653.73C213.2639,170.9473,210.34,168.3651,210.34,163.3946Z"/><path d="M227.054,138.3467a3.8011,3.8011,0,1,1,3.801,3.8011A3.806,3.806,0,0,1,227.054,138.3467Zm.4874,6.8223h6.676v25.3887h-6.676Z"/><path d="M236.7994,145.169h7.261l6.9683,16.91,6.92-16.91h7.1146l-10.9157,25.3887h-6.4812Z"/><path d="M265.7931,157.8881a12.99,12.99,0,0,1,13.06-13.1575c7.2122,0,12.5727,5.8474,12.5727,13.6446V160.13h-18.81a7.2129,7.2129,0,0,0,7.115,5.3113,7.9089,7.9089,0,0,0,5.604-2.0462L289.72,167.39a15.2574,15.2574,0,0,1-10.331,3.6547C271.7383,171.0449,265.7931,165.2951,265.7931,157.8881Zm19.0539-2.5341a6.3713,6.3713,0,0,0-6.14-5.1169,6.2484,6.2484,0,0,0-6.1887,5.1169Z"/><path d="M305.7511,136.4462h7.0662V164.32h18.6639v6.2375h-25.73Z"/><path d="M333.819,157.8881a13.553,13.553,0,1,1,13.5473,13.1568A13.2328,13.2328,0,0,1,333.819,157.8881Zm20.6132,0a7.0507,7.0507,0,1,0-14.0833,0,7.0485,7.0485,0,1,0,14.0833,0Z"/><path d="M367.1991,178.647l2.339-5.1656a18.0022,18.0022,0,0,0,8.0893,1.9981c3.9959,0,6.0427-1.7054,6.0427-5.0681v-1.9981a11.9275,11.9275,0,0,1-6.9686,2.2908,12.9627,12.9627,0,0,1,.1948-25.9247,12.4976,12.4976,0,0,1,6.8711,2.0463V145.169h6.5787v25.34c0,6.7248-4.4343,10.4771-12.5724,10.4771A23.6148,23.6148,0,0,1,367.1991,178.647Zm16.471-15.9347v-9.9411a8.4546,8.4546,0,0,0-5.8964-2.2908,7.2856,7.2856,0,1,0-.0488,14.5708A8.0389,8.0389,0,0,0,383.67,162.7123Z"/><path d="M394.4384,157.8881a13.553,13.553,0,1,1,13.5473,13.1568A13.2328,13.2328,0,0,1,394.4384,157.8881Zm20.6132,0a7.0507,7.0507,0,1,0-14.0833,0,7.0485,7.0485,0,1,0,14.0833,0Z"/><path class="e6c2ab78-be06-4ac4-a488-1f33c957b75d" d="M434.68,140.5893a25.9344,25.9344,0,0,1-25.9053-25.905v-22.86a3.0458,3.0458,0,0,1,3.0456-3.0456H457.54a3.0456,3.0456,0,0,1,3.0456,3.0456v22.86A25.9344,25.9344,0,0,1,434.68,140.5893ZM414.8663,94.87v19.8141a19.8141,19.8141,0,0,0,39.6281,0V94.87Z"/><path class="e6c2ab78-be06-4ac4-a488-1f33c957b75d" d="M423.25,94.87a3.0458,3.0458,0,0,1-3.0456-3.0456v-22.86a3.0456,3.0456,0,1,1,6.0912,0v22.86A3.0458,3.0458,0,0,1,423.25,94.87Z"/><path class="e6c2ab78-be06-4ac4-a488-1f33c957b75d" d="M446.11,94.87a3.0457,3.0457,0,0,1-3.0456-3.0456v-22.86a3.0456,3.0456,0,0,1,6.0912,0v22.86A3.0458,3.0458,0,0,1,446.11,94.87Z"/><path class="e6c2ab78-be06-4ac4-a488-1f33c957b75d" d="M371.8166,138.6424a3.0456,3.0456,0,0,1-3.0456-3.0456V112.2573a28.3863,28.3863,0,0,0-56.7725,0v14.3912a3.0457,3.0457,0,0,1-6.0913,0V112.2573a34.4775,34.4775,0,0,1,68.955,0v23.34A3.0456,3.0456,0,0,1,371.8166,138.6424Z"/><path class="e6c2ab78-be06-4ac4-a488-1f33c957b75d" d="M403.2483,197.7381a34.3027,34.3027,0,0,1-19.3233-5.92,3.0457,3.0457,0,0,1,3.418-5.042,28.3909,28.3909,0,0,0,44.2918-23.5155v-25.717a3.0456,3.0456,0,1,1,6.0912,0v25.717A34.5166,34.5166,0,0,1,403.2483,197.7381Z"/><path class="fb1f8fcd-48b7-486a-abbc-8ec3760c2271" d="M123.75,210.5544a12.5056,12.5056,0,0,1,12.4267-12.8163c6.8223,0,11.9876,5.7016,11.9876,13.06v1.3645h-19.541a8.3593,8.3593,0,0,0,8.3329,7.1147,9.3934,9.3934,0,0,0,6.2864-2.1929l3.1187,3.07a14.8858,14.8858,0,0,1-9.6,3.2651A12.7639,12.7639,0,0,1,123.75,210.5544Zm19.59-2.0469c-.6823-3.8008-3.655-6.6272-7.261-6.6272a7.5324,7.5324,0,0,0-7.407,6.6272Z"/><line class="f37f3149-595a-4fd1-b3a7-db44636f1c7c" x1="123.7495" y1="106.9653" x2="123.7495" y2="223.4194"/><line class="f37f3149-595a-4fd1-b3a7-db44636f1c7c" x1="148.1638" y1="106.9653" x2="148.1638" y2="223.4194"/><path class="e6c2ab78-be06-4ac4-a488-1f33c957b75d" d="M220.2193,251.422a19.5288,19.5288,0,0,1,.6754,3.9641c0,5.4829-6.1582,8.519-14.2543,8.519-18.3043,0-34.3295-10.7117-34.3295-17.7969a7.21,7.21,0,0,1,.59-2.8676c-6.5793.3373-15.0982,1.5178-15.0982,9.0247,0,12.3143,29.1842,27.4967,52.2949,27.4967,17.7131,0,22.1826-8.0124,22.1826-14.3384,0-4.9772-4.3012-10.6273-12.0613-14.0016m-12.7361,4.4706c4.8928,0,11.9771-1.0126,11.9771-6.8323a5.5316,5.5316,0,0,0-.1213-1.3391l-2.9142-12.6621c-.6757-2.7834-1.2657-4.0489-6.1578-6.4951-3.796-1.9395-12.0616-5.1446-14.5079-5.1446-2.2773,0-2.9515,2.9515-5.651,2.9515-2.6143,0-4.5544-2.1924-7-2.1924-2.3612,0-3.88,1.6021-5.0609,4.892,0,0-3.29,9.2779-3.7115,10.6267a2.4433,2.4433,0,0,0-.0869.76c0,3.6059,14.201,15.4355,33.2348,15.4355"/><path d="M220.2193,251.422a19.5288,19.5288,0,0,1,.6754,3.9641c0,5.4829-6.1582,8.519-14.2543,8.519-18.3043,0-34.3295-10.7117-34.3295-17.7969a7.21,7.21,0,0,1,.59-2.8676l1.434-3.5434a2.4433,2.4433,0,0,0-.0869.76c0,3.6059,14.201,15.4355,33.2348,15.4355,4.8928,0,11.9771-1.0126,11.9771-6.8323a5.5316,5.5316,0,0,0-.1213-1.3391l.88,3.7008Z"/><path d="M246.0411,266.16h7.0772V255.6671h5.3909l5.4316,10.4929h7.9l-6.337-11.5215a8.715,8.715,0,0,0,5.432-8.1064c0-5.1847-4.0739-9.1762-10.164-9.1762H246.0411V266.16Zm14.0727-22.7552c2.3457,0,3.6623,1.4814,3.6623,3.2507s-1.3166,3.2509-3.6623,3.2509h-6.9955v-6.5016Zm11.48,11.8921c0,6.3369,5.1847,11.2747,11.8507,11.2747a13.0624,13.0624,0,0,0,9.0939-3.2917l-4.4026-3.9093a5.8964,5.8964,0,0,1-4.3618,1.6459,5.625,5.625,0,0,1-5.3494-3.4565h15.513v-1.6459c0-6.9131-4.65-11.8919-10.9864-11.8919a11.1808,11.1808,0,0,0-11.3574,11.2747m11.2337-5.8432a4.8142,4.8142,0,0,1,4.5673,3.4566h-9.0939a4.5337,4.5337,0,0,1,4.5266-3.4566M313.0305,266.16h6.5838V235.9157l-6.666,1.44v8.1887a11.2168,11.2168,0,1,0-5.761,20.9037,9.8177,9.8177,0,0,0,5.8432-1.8929V266.16ZM302.62,255.2558a5.5119,5.5119,0,0,1,5.72-5.5141,6.7446,6.7446,0,0,1,4.6087,1.6872v7.6126A6.4046,6.4046,0,0,1,308.34,260.77a5.5364,5.5364,0,0,1-5.72-5.5139M329.5893,266.16h7.0781V254.8854h11.8507V266.16h7.0777V237.3559h-7.0777v11.0692H336.6674V237.3559h-7.0781V266.16Zm36.17.37a10.1866,10.1866,0,0,0,6.0079-1.6871V266.16h6.5838V252.2107c0-5.3081-3.58-8.23-9.5465-8.23a24.2242,24.2242,0,0,0-10.164,2.3867l2.3867,4.8966a17.7887,17.7887,0,0,1,6.5839-1.7282c2.7569,0,4.1561,1.07,4.1561,3.2509v1.07a19.323,19.323,0,0,0-4.9378-.6173c-5.5964,0-8.9706,2.3455-8.9706,6.5426,0,3.8268,3.0448,6.7484,7.9005,6.7484m-2.0339-6.8718c0-1.44,1.44-2.14,3.6212-2.14a16.7333,16.7333,0,0,1,3.95.4937v2.7982a8.4145,8.4145,0,0,1-4.1561,1.0286c-2.14,0-3.4154-.823-3.4154-2.1808m20.7149-.1234c0,4.65,2.7988,6.913,7.9009,6.913a20.4431,20.4431,0,0,0,4.65-.6585v-5.39a9.6856,9.6856,0,0,1-3.0042.4526c-2.0987,0-2.88-.6584-2.88-2.6336v-8.2709h6.09v-5.5551h-6.09v-7.0365l-6.6668,1.44v5.5962h-4.4029v5.5551H384.44v9.5878Z"/></svg>