<svg id="af74ed00-7a95-4258-b9d6-5a64c27e102b" data-name="Layer 1" xmlns="http://www.w3.org/2000/svg" viewBox="0 0 262 180"><defs><style>.ed2e9fcc-fb59-4d4f-9355-fe5124821f6b{fill:#e00;}</style></defs><path class="ed2e9fcc-fb59-4d4f-9355-fe5124821f6b" d="M200.2857,68.6024H61.7145a1.4883,1.4883,0,1,1,0-2.9765H200.2857a1.4883,1.4883,0,0,1,0,2.9765Z"/><path class="ed2e9fcc-fb59-4d4f-9355-fe5124821f6b" d="M200.2857,114.3741H61.7145a1.4883,1.4883,0,1,1,0-2.9765H200.2857a1.4883,1.4883,0,0,1,0,2.9765Z"/><path class="ed2e9fcc-fb59-4d4f-9355-fe5124821f6b" d="M197.305,80.877a4.05,4.05,0,0,1-.7381-.0675,3.8662,3.8662,0,0,1-.7073-.2185,3.6307,3.6307,0,0,1-.6478-.3461,3.9049,3.9049,0,0,1-.572-.4669,3.8574,3.8574,0,0,1-.4665-.5719,3.6291,3.6291,0,0,1-.3463-.6476,3.9412,3.9412,0,0,1-.2187-.7078,3.64,3.64,0,0,1,0-1.4673,3.9507,3.9507,0,0,1,.2187-.708,3.6325,3.6325,0,0,1,.3463-.6476,3.84,3.84,0,0,1,.4665-.5716,3.892,3.892,0,0,1,.572-.4669,3.5994,3.5994,0,0,1,.6478-.3462,3.8737,3.8737,0,0,1,.7073-.2184,3.7035,3.7035,0,0,1,1.4676,0,3.8653,3.8653,0,0,1,.7079.2184,3.5412,3.5412,0,0,1,.6472.3462,3.6741,3.6741,0,0,1,1.0391,1.0385,3.5756,3.5756,0,0,1,.3463.6476,3.8236,3.8236,0,0,1,.2181.708,3.6115,3.6115,0,0,1,0,1.4673,3.8147,3.8147,0,0,1-.2181.7078,3.5723,3.5723,0,0,1-.3463.6476,3.67,3.67,0,0,1-1.0391,1.0388,3.5716,3.5716,0,0,1-.6472.3461,3.8579,3.8579,0,0,1-.7079.2185,4.0147,4.0147,0,0,1-.73.0675Z"/><path d="M64.2147,83.9429v5.5722h4.8579c1.9526,0,3.2384-1.1191,3.2384-2.7861,0-1.69-1.2858-2.7861-3.2384-2.7861Zm-2.5-2.1907h7.5723c3.31,0,5.5484,2,5.5484,4.9292a4.7082,4.7082,0,0,1-3.4291,4.572l3.7148,7.1676H72.3587L68.906,91.5868H64.2147V98.421h-2.5V81.7522Z"/><path d="M78.24,91.3487h7.1915a3.6154,3.6154,0,0,0-7.1915,0Zm3.9767,7.2865a6.2369,6.2369,0,0,1-6.3581-6.2863A6.09,6.09,0,0,1,81.931,86.11c3.3338,0,5.8578,2.7622,5.8578,6.334v.6907H78.2162a4.0884,4.0884,0,0,0,4.0957,3.4767A4.7144,4.7144,0,0,0,85.3838,95.54l1.524,1.5a7.2292,7.2292,0,0,1-4.6911,1.5953Z"/><path d="M96.0036,96.54a4.3677,4.3677,0,0,0,3.3576-1.4524V89.5867a4.4316,4.4316,0,0,0-3.3576-1.429,4.1917,4.1917,0,0,0,0,8.3821Zm3.3815.7385A5.7262,5.7262,0,0,1,95.67,98.6115a6.2508,6.2508,0,1,1,3.691-11.311V81.7522l2.3813-.5239V98.421H99.3851V97.2783Z"/><polygon points="109.815 81.752 112.315 81.752 112.315 88.896 121.173 88.896 121.173 81.752 123.673 81.752 123.673 98.421 121.173 98.421 121.173 91.158 112.315 91.158 112.315 98.421 109.815 98.421 109.815 81.752 109.815 81.752"/><path d="M130.9355,96.8732A4.6607,4.6607,0,0,0,134.15,95.73V93.6346a6.2967,6.2967,0,0,0-3.12-.7381c-1.7383,0-2.8095.7857-2.8095,2,0,1.1669,1.095,1.9766,2.7143,1.9766Zm-5-1.9289c0-2.2858,1.8572-3.6909,4.9052-3.6909a8.5543,8.5543,0,0,1,3.31.6668v-1.286c0-1.7144-1.0238-2.5715-2.9527-2.5715a8.6184,8.6184,0,0,0-3.7624,1.0237l-.881-1.7859a11.3442,11.3442,0,0,1,4.9768-1.2382c3.1433,0,4.9529,1.5478,4.9529,4.3339V98.421H134.15V97.3733a5.75,5.75,0,0,1-3.7622,1.2619c-2.6433,0-4.453-1.5-4.453-3.6909Z"/><path d="M140.3178,88.3007h-2.572v-2h2.572V83.2049l2.3573-.5714v3.6671h3.5722v2h-3.5722v6.5721c0,1.2384.5,1.6908,1.7858,1.6908a4.677,4.677,0,0,0,1.7385-.2857v2a7.8757,7.8757,0,0,1-2.2624.3571c-2.3571,0-3.6192-1.119-3.6192-3.2144v-7.12Z"/><polygon points="153.081 81.752 156.534 81.752 156.534 95.373 165.654 95.373 165.654 98.421 153.081 98.421 153.081 81.752 153.081 81.752"/><path d="M171.0823,98.421H167.82V86.0146h3.2623V98.421Zm-3.5007-15.74a1.8575,1.8575,0,1,1,1.8577,1.8574,1.86,1.86,0,0,1-1.8577-1.8574Z"/><polygon points="172.344 86.015 175.892 86.015 179.297 94.278 182.679 86.015 186.155 86.015 180.821 98.421 177.678 98.421 172.344 86.015 172.344 86.015"/><path d="M189.6554,90.9915h6.0721a3.2006,3.2006,0,0,0-3.024-2.5,3.116,3.116,0,0,0-3.0481,2.5Zm3.4053,7.6677a6.459,6.459,0,0,1-6.6678-6.43A6.333,6.333,0,0,1,192.7746,85.8c3.5245,0,6.1437,2.8577,6.1437,6.6675v.8573h-9.2391a3.575,3.575,0,0,0,3.5242,2.5956,3.9054,3.9054,0,0,0,2.7385-1l2.1431,1.9527a7.4364,7.4364,0,0,1-5.0243,1.786Z"/></svg>