<svg id="b3028b09-4d2f-4c1d-8dd5-67ec836dcfde" data-name="Layer 1" xmlns="http://www.w3.org/2000/svg" viewBox="0 0 262 180"><defs><style>.b8c893b0-fd8e-44f2-914a-45468fd78e75{fill:#e00;}</style></defs><path d="M97.25,69.8269h6.8242c3.0139,0,5.0376,1.8082,5.0376,4.4563a4.25,4.25,0,0,1-3.1,4.1118l3.3584,6.5013h-2.4973l-3.1216-6.1784H99.51v6.1784H97.25Zm6.6521,6.9966c1.7651,0,2.9493-.99,2.9493-2.5188,0-1.5071-1.1842-2.4972-2.9493-2.4972H99.51v5.016Z"/><path d="M110.0373,79.4067a5.5245,5.5245,0,0,1,5.49-5.6617c3.0139,0,5.2959,2.5188,5.2959,5.7695v.6028H112.19a3.6927,3.6927,0,0,0,3.6813,3.1429,4.149,4.149,0,0,0,2.7771-.9686l1.3778,1.3562a6.5762,6.5762,0,0,1-4.2411,1.4424A5.6387,5.6387,0,0,1,110.0373,79.4067Zm8.6543-.904a3.3721,3.3721,0,0,0-3.2078-2.9279,3.3278,3.3278,0,0,0-3.2722,2.9279Z"/><path d="M122.3938,79.4067a5.5374,5.5374,0,0,1,5.5758-5.64,5.4586,5.4586,0,0,1,3.2937,1.098V69.8269l2.1528-.4092V84.8963h-2.1312V83.8415a4.9992,4.9992,0,0,1-3.3584,1.2272A5.5335,5.5335,0,0,1,122.3938,79.4067Zm8.8695,2.4544v-4.93a4.0355,4.0355,0,0,0-3.057-1.3134,3.79,3.79,0,0,0,0,7.5777A3.8769,3.8769,0,0,0,131.2633,81.8611Z"/><path d="M140.7136,69.8269h2.26v6.4584h8.0084V69.8269h2.2605V84.8963h-2.2605V78.33h-8.0084v6.566h-2.26Z"/><path d="M155.2875,81.7534c0-2.0666,1.6792-3.3369,4.4347-3.3369a7.302,7.302,0,0,1,2.9924.6244V77.8783c0-1.55-.9256-2.3466-2.6694-2.3466a7.7917,7.7917,0,0,0-3.4015.9258l-.7965-1.6146a10.3272,10.3272,0,0,1,4.4994-1.12c2.8631,0,4.4779,1.3994,4.4779,3.8966v7.2763h-2.11v-.9471a5.198,5.198,0,0,1-3.4013,1.141C156.9451,85.09,155.2875,83.7337,155.2875,81.7534Zm4.5209,1.7223a4.1505,4.1505,0,0,0,2.9062-1.0333V80.5908a5.4272,5.4272,0,0,0-2.82-.689c-1.5715,0-2.54.7106-2.54,1.8085C157.3543,82.7651,158.3444,83.4757,159.8084,83.4757Z"/><path d="M168.3976,82.1838V75.7472h-2.3249V73.9387h2.3249V71.14l2.1314-.5166v3.3153h3.2291v1.8085H170.529v5.9415c0,1.12.452,1.55,1.6146,1.55a4.2363,4.2363,0,0,0,1.5715-.2581v1.8082a7.235,7.235,0,0,1-2.045.3014C169.5386,85.09,168.3976,84.1,168.3976,82.1838Z"/><path d="M96.841,100.9988V92.4306h3.1216v8.5682c0,2.3251,1.3994,3.8319,3.5737,3.8319,2.1527,0,3.5305-1.5068,3.5305-3.8319V92.4306h3.1216v8.5682c0,4.09-2.6265,6.7168-6.6737,6.7168C99.446,107.7156,96.841,105.1106,96.841,100.9988Z"/><path d="M112.4912,96.2841h2.9493v.9043a4.6776,4.6776,0,0,1,3.1431-1.12,4.2611,4.2611,0,0,1,4.4348,4.4779V107.5h-2.9492v-6.5229a2.1931,2.1931,0,0,0-2.3252-2.3679,2.7413,2.7413,0,0,0-2.3035,1.1192V107.5h-2.9493Z"/><path d="M125.0416,93.27a1.6792,1.6792,0,1,1,1.6792,1.6792A1.6814,1.6814,0,0,1,125.0416,93.27Zm.2152,3.0139h2.9493V107.5h-2.9493Z"/><path d="M129.3466,96.2841h3.2078l3.0783,7.47,3.0569-7.47h3.1432L137.01,107.5h-2.863Z"/><path d="M142.1553,101.903a5.7384,5.7384,0,0,1,5.7694-5.8125c3.186,0,5.5543,2.5831,5.5543,6.0277v.775h-8.31a3.1865,3.1865,0,0,0,3.1432,2.3464,3.4937,3.4937,0,0,0,2.4757-.904l1.9376,1.7654a6.74,6.74,0,0,1-4.5641,1.6146A5.8336,5.8336,0,0,1,142.1553,101.903Zm8.4173-1.12a2.8148,2.8148,0,0,0-2.7125-2.26,2.76,2.76,0,0,0-2.734,2.26Z"/><path d="M155.2869,96.2841h2.9493v1.2485a3.5868,3.5868,0,0,1,2.9923-1.5068,2.483,2.483,0,0,1,1.2272.2583v2.5835a3.76,3.76,0,0,0-1.507-.3014,3.0009,3.0009,0,0,0-2.7125,1.6576V107.5h-2.9493Z"/><path d="M163.2517,106.1657l1.464-1.9594a6.4063,6.4063,0,0,0,3.6383,1.2919c1.3131,0,2.1742-.4736,2.1742-1.2057,0-.5813-.43-.904-1.3993-1.0548l-2.1527-.323c-2.2174-.3229-3.4015-1.4639-3.4015-3.2722,0-2.1527,1.8085-3.552,4.6715-3.552a8.274,8.274,0,0,1,4.6072,1.3993l-1.4209,1.916a6.4683,6.4683,0,0,0-3.4662-1.098c-1.0548,0-1.7651.452-1.7651,1.098,0,.6243.43.9255,1.5284,1.0763l2.1527.323c2.1959.323,3.4231,1.464,3.4231,3.2076,0,2.1314-2.0881,3.7029-4.9083,3.7029A8.2671,8.2671,0,0,1,163.2517,106.1657Z"/><path d="M174.5536,93.27a1.6792,1.6792,0,1,1,1.6792,1.6792A1.6814,1.6814,0,0,1,174.5536,93.27Zm.2152,3.0139h2.9493V107.5h-2.9493Z"/><path d="M181.55,104.3356V98.7383h-2.3033V96.2841H181.55v-2.863l2.95-.6675v3.53h3.2075v2.4542h-3.2075v4.9945c0,1.0548.4089,1.4424,1.55,1.4424a4.5366,4.5366,0,0,0,1.5714-.2583V107.35a9.137,9.137,0,0,1-2.2817.3227C182.8416,107.6725,181.55,106.5315,181.55,104.3356Z"/><path d="M189.1272,112.0211v-2.54a4.8785,4.8785,0,0,0,1.0333.0856,2.2849,2.2849,0,0,0,2.2389-1.5283l.1721-.4305-4.37-11.3237h3.2506l2.7987,7.6426,3.1647-7.6426h3.1861l-5.1667,12.099c-1.1841,2.734-2.54,3.7457-4.9729,3.7457A7.4055,7.4055,0,0,1,189.1272,112.0211Z"/><path class="b8c893b0-fd8e-44f2-914a-45468fd78e75" d="M79.5436,103.1223H69.3783a1.3455,1.3455,0,1,1,0-2.6909H79.5436a1.3455,1.3455,0,1,1,0,2.6909Z"/><path class="b8c893b0-fd8e-44f2-914a-45468fd78e75" d="M78.708,107.37H70.214a1.3455,1.3455,0,1,1,0-2.6909h8.494a1.3455,1.3455,0,0,1,0,2.6909Z"/><path class="b8c893b0-fd8e-44f2-914a-45468fd78e75" d="M78.5931,98.8755h-8.264a3.4646,3.4646,0,0,1-3.2912-2.3722l-2.3472-7.0419a1.3454,1.3454,0,0,1,2.5527-.8509l2.3475,7.0422a.7769.7769,0,0,0,.7382.5318h8.264a.7774.7774,0,0,0,.7382-.5321l2.3475-7.0419a1.3454,1.3454,0,1,1,2.5527.8509L81.884,96.5036A3.4647,3.4647,0,0,1,78.5931,98.8755Z"/><path class="b8c893b0-fd8e-44f2-914a-45468fd78e75" d="M83.9127,89.95,81.966,88.0926a10.3716,10.3716,0,1,0-15.01,0L65.009,89.95a13.0629,13.0629,0,1,1,18.9037,0Z"/><path class="b8c893b0-fd8e-44f2-914a-45468fd78e75" d="M74.4611,98.8755A1.3454,1.3454,0,0,1,73.1156,97.53V77.3339a1.3455,1.3455,0,1,1,2.691,0V97.53A1.3454,1.3454,0,0,1,74.4611,98.8755Z"/><path class="b8c893b0-fd8e-44f2-914a-45468fd78e75" d="M79.622,81.26a1.3405,1.3405,0,0,1-.9513-.3942l-4.21-4.209-4.21,4.209a1.3453,1.3453,0,0,1-1.9025-1.9025L73.51,73.8023a1.345,1.345,0,0,1,1.9026,0l5.1608,5.1606A1.3455,1.3455,0,0,1,79.622,81.26Z"/></svg>