<svg id="a14b73c4-0fc8-4401-bc36-ced771a9ffe0" data-name="Layer 1" xmlns="http://www.w3.org/2000/svg" viewBox="0 0 262 180"><defs><style>.a3ce45b4-62d6-4825-b395-18812473a67e{fill:#e00;}</style></defs><path class="a3ce45b4-62d6-4825-b395-18812473a67e" d="M199.5415,78.6024H150.8241a1.4883,1.4883,0,1,1,0-2.9765h48.7174a1.4883,1.4883,0,0,1,0,2.9765Z"/><path class="a3ce45b4-62d6-4825-b395-18812473a67e" d="M199.5415,104.3741H150.8241a1.4882,1.4882,0,1,1,0-2.9764h48.7174a1.4882,1.4882,0,0,1,0,2.9764Z"/><path class="a3ce45b4-62d6-4825-b395-18812473a67e" d="M197.2758,83.99a1.5953,1.5953,0,0,1-.2919-.0267,1.5194,1.5194,0,0,1-.28-.0864,1.4327,1.4327,0,0,1-.2561-.1368,1.4469,1.4469,0,0,1-.4107-.4108,1.4327,1.4327,0,0,1-.1369-.2561,1.5632,1.5632,0,0,1-.0865-.28,1.4411,1.4411,0,0,1,0-.58,1.5652,1.5652,0,0,1,.0865-.28,1.4362,1.4362,0,0,1,.1369-.2561,1.52,1.52,0,0,1,.1845-.226,1.5385,1.5385,0,0,1,.2262-.1847,1.42,1.42,0,0,1,.2561-.1368,1.5349,1.5349,0,0,1,.28-.0864,1.4653,1.4653,0,0,1,.58,0,1.5321,1.5321,0,0,1,.28.0864,1.3985,1.3985,0,0,1,.2559.1368,1.4558,1.4558,0,0,1,.4109.4107,1.4109,1.4109,0,0,1,.1369.2561,1.51,1.51,0,0,1,.0863.28,1.4316,1.4316,0,0,1,0,.58,1.5078,1.5078,0,0,1-.0863.28,1.4076,1.4076,0,0,1-.1369.2561,1.5206,1.5206,0,0,1-.1847.2262,1.5032,1.5032,0,0,1-.2262.1846,1.4108,1.4108,0,0,1-.2559.1368,1.5167,1.5167,0,0,1-.28.0864,1.58,1.58,0,0,1-.2885.0267Z"/><path d="M63.4705,83.943v5.5721h4.858c1.9525,0,3.2384-1.1191,3.2384-2.7861,0-1.69-1.2859-2.786-3.2384-2.786Zm-2.5-2.1908h7.5722c3.31,0,5.5485,2,5.5485,4.9292a4.7083,4.7083,0,0,1-3.4291,4.572l3.7148,7.1676H71.6146l-3.4528-6.8342H63.4705V98.421h-2.5V81.7522Z"/><path d="M77.4959,91.3487h7.1914a3.6154,3.6154,0,0,0-7.1914,0Zm3.9766,7.2865a6.2369,6.2369,0,0,1-6.358-6.2863,6.09,6.09,0,0,1,6.0723-6.239c3.3338,0,5.8579,2.7622,5.8579,6.334v.6907H77.4721a4.0883,4.0883,0,0,0,4.0957,3.4767A4.7142,4.7142,0,0,0,84.64,95.54l1.5241,1.5a7.23,7.23,0,0,1-4.6912,1.5953Z"/><path d="M95.26,96.54a4.3672,4.3672,0,0,0,3.3575-1.4524V89.5867a4.4314,4.4314,0,0,0-3.3575-1.429,4.1917,4.1917,0,0,0,0,8.3821Zm3.3815.7385a5.7266,5.7266,0,0,1-3.7149,1.3332,6.2508,6.2508,0,1,1,3.6909-11.311V81.7522l2.3813-.5239V98.421H98.641V97.2783Z"/><polygon points="109.07 81.752 111.571 81.752 111.571 88.896 120.429 88.896 120.429 81.752 122.929 81.752 122.929 98.421 120.429 98.421 120.429 91.158 111.571 91.158 111.571 98.421 109.07 98.421 109.07 81.752 109.07 81.752"/><path d="M130.1913,96.8732a4.6605,4.6605,0,0,0,3.2148-1.1429V93.6346a6.2964,6.2964,0,0,0-3.12-.7381c-1.7382,0-2.8095.7857-2.8095,2,0,1.1669,1.095,1.9766,2.7143,1.9766Zm-5-1.9289c0-2.2858,1.8573-3.6909,4.9052-3.6909a8.5554,8.5554,0,0,1,3.31.6668v-1.286c0-1.7144-1.0237-2.5715-2.9527-2.5715a8.6188,8.6188,0,0,0-3.7624,1.0237l-.881-1.7859a11.3442,11.3442,0,0,1,4.9768-1.2382c3.1434,0,4.9529,1.5478,4.9529,4.3339V98.421h-2.3336V97.3733a5.75,5.75,0,0,1-3.7622,1.2619c-2.6432,0-4.453-1.5-4.453-3.6909Z"/><path d="M139.5736,88.3007h-2.572v-2h2.572V83.2049l2.3574-.5714v3.6671h3.5721v2H141.931v6.5722c0,1.2383.5,1.6907,1.7857,1.6907a4.6766,4.6766,0,0,0,1.7385-.2857v2a7.875,7.875,0,0,1-2.2623.3571c-2.3572,0-3.6193-1.1189-3.6193-3.2144v-7.12Z"/><polygon points="152.336 81.752 155.789 81.752 155.789 95.373 164.91 95.373 164.91 98.421 152.336 98.421 152.336 81.752 152.336 81.752"/><path d="M170.3382,98.421h-3.2624V86.0146h3.2624V98.421Zm-3.5007-15.74a1.8575,1.8575,0,1,1,1.8576,1.8574,1.86,1.86,0,0,1-1.8576-1.8574Z"/><polygon points="171.6 86.015 175.148 86.015 178.553 94.278 181.934 86.015 185.411 86.015 180.077 98.421 176.934 98.421 171.6 86.015 171.6 86.015"/><path d="M188.9113,90.9915h6.0721a3.2006,3.2006,0,0,0-3.024-2.5,3.116,3.116,0,0,0-3.0481,2.5Zm3.4053,7.6677a6.4588,6.4588,0,0,1-6.6678-6.4294,6.333,6.333,0,0,1,6.3817-6.43c3.5244,0,6.1437,2.8577,6.1437,6.6675v.8573H188.935a3.5749,3.5749,0,0,0,3.5243,2.5956,3.9056,3.9056,0,0,0,2.7385-1l2.1431,1.9527a7.4366,7.4366,0,0,1-5.0243,1.786Z"/></svg>