<svg id="b7c52f88-a5d3-48dc-9a8e-2cb48beb837a" data-name="Layer 1" xmlns="http://www.w3.org/2000/svg" viewBox="0 0 262 180"><defs><style>.a92aebcd-dceb-4375-8e20-57b09c818e48{fill:#e00;}</style></defs><path d="M69.7632,44.4147h6.6887c2.9542,0,4.9376,1.7726,4.9376,4.3678a4.1654,4.1654,0,0,1-3.0385,4.03l3.2917,6.3724H79.195l-3.0595-6.0559H71.9787v6.0559H69.7632Zm6.52,6.8577c1.73,0,2.8907-.97,2.8907-2.4687,0-1.4769-1.16-2.4477-2.8907-2.4477H71.9787v4.9164Z"/><path d="M82.2964,53.8046a5.4149,5.4149,0,0,1,5.3806-5.55A5.3432,5.3432,0,0,1,92.8676,53.91v.5909H84.4065a3.62,3.62,0,0,0,3.6081,3.0807,4.0669,4.0669,0,0,0,2.7219-.95l1.35,1.3293A6.4455,6.4455,0,0,1,87.93,59.3749,5.5266,5.5266,0,0,1,82.2964,53.8046Zm8.4824-.8863a3.3048,3.3048,0,0,0-3.144-2.87,3.2615,3.2615,0,0,0-3.2072,2.87Z"/><path d="M94.4075,53.8046a5.4274,5.4274,0,0,1,5.465-5.5284,5.3514,5.3514,0,0,1,3.2284,1.0761V44.4147l2.11-.4007V59.1851H103.122V58.1512A4.9006,4.9006,0,0,1,99.83,59.3538,5.4235,5.4235,0,0,1,94.4075,53.8046Zm8.6934,2.4054V51.378a3.9567,3.9567,0,0,0-2.9963-1.2873,3.7147,3.7147,0,0,0,0,7.4274A3.8,3.8,0,0,0,103.1009,56.21Z"/><path d="M112.3633,44.4147h2.2155v6.33h7.8493v-6.33h2.2156v14.77h-2.2156V52.75h-7.8493v6.4355h-2.2155Z"/><path d="M126.6478,56.1044c0-2.0255,1.6458-3.2706,4.3467-3.2706a7.155,7.155,0,0,1,2.9329.612V52.3063c0-1.5191-.9072-2.3-2.6164-2.3a7.637,7.637,0,0,0-3.3339.9071l-.7807-1.5824a10.121,10.121,0,0,1,4.41-1.0973c2.8062,0,4.389,1.3716,4.389,3.8192v7.132h-2.068v-.9285a5.095,5.095,0,0,1-3.3337,1.1183C128.2725,59.3749,126.6478,58.0456,126.6478,56.1044Zm4.4311,1.6881a4.0682,4.0682,0,0,0,2.8485-1.0128V54.9649a5.3192,5.3192,0,0,0-2.7642-.6751c-1.54,0-2.49.6962-2.49,1.7723C128.6734,57.096,129.644,57.7925,131.0789,57.7925Z"/><path d="M139.4975,56.5265V50.2174h-2.2787V48.4451h2.2787v-2.743l2.0891-.5064v3.2494h3.165v1.7723h-3.165V56.041c0,1.0972.443,1.5194,1.5825,1.5194a4.1469,4.1469,0,0,0,1.54-.2532V59.08a7.0925,7.0925,0,0,1-2.0044.2954C140.6158,59.3749,139.4975,58.4044,139.4975,56.5265Z"/><path d="M69.0246,73.9547a7.641,7.641,0,0,1,7.8494-7.6172,8.1047,8.1047,0,0,1,6.1613,2.7642l-2.0678,2.0466a5.1545,5.1545,0,0,0-4.0935-2.0044,4.79,4.79,0,0,0,.1054,9.5794,5.07,5.07,0,0,0,3.9669-1.8779l2.0045,1.9835a8.1289,8.1289,0,0,1-6.0768,2.7219A7.6109,7.6109,0,0,1,69.0246,73.9547Z"/><path d="M84.5539,70.3465h2.8907V71.57a3.515,3.515,0,0,1,2.9329-1.4771,2.4323,2.4323,0,0,1,1.2028.2532v2.5321a3.6919,3.6919,0,0,0-1.4771-.2954,2.9416,2.9416,0,0,0-2.6586,1.6247V81.34H84.5539Z"/><path d="M92.3608,78.1538c0-2.0891,1.6669-3.3339,4.4732-3.3339a8.1484,8.1484,0,0,1,2.7009.443v-.8018c0-1.266-.7807-1.92-2.3211-1.92a8.1689,8.1689,0,0,0-3.3549.9074l-1.055-2.1311a11.3927,11.3927,0,0,1,4.8953-1.1817c2.9751,0,4.6842,1.4772,4.6842,4.0724V81.34H99.5349v-.7807a5.0842,5.0842,0,0,1-3.165.9705C93.9855,81.53,92.3608,80.1582,92.3608,78.1538Zm4.7475,1.3082a3.9814,3.9814,0,0,0,2.4266-.7176V77.1408a5.9772,5.9772,0,0,0-2.3211-.4219c-1.3293,0-2.11.5275-2.11,1.3715S95.8845,79.462,97.1083,79.462Z"/><path d="M105.9489,72.7521h-2.4477V70.3465h2.4477v-1.055c0-2.4685,1.477-3.8189,4.1778-3.8189a7.0541,7.0541,0,0,1,1.7091.19v2.4265a6.3762,6.3762,0,0,0-1.35-.169c-1.0971,0-1.6457.4644-1.6457,1.4349v.9917h2.9961v2.4056H108.84V81.34h-2.8908Z"/><path d="M114.916,78.238V72.7521h-2.2576V70.3465h2.2576V67.54l2.8908-.6542v3.46h3.144v2.4056h-3.144v4.8951c0,1.0341.4009,1.4138,1.5193,1.4138a4.4483,4.4483,0,0,0,1.54-.2532v2.3845a8.9451,8.9451,0,0,1-2.2365.3163C116.1821,81.5086,114.916,80.3905,114.916,78.238Z"/><path d="M126.7949,66.57H138.21v2.6589h-8.3557V72.71h5.5492V75.284h-5.5492V81.34h-3.06Z"/><path d="M138.1465,78.1538c0-2.0891,1.667-3.3339,4.4735-3.3339a8.1487,8.1487,0,0,1,2.7008.443v-.8018c0-1.266-.7807-1.92-2.3212-1.92a8.1693,8.1693,0,0,0-3.3548.9074l-1.055-2.1311a11.3923,11.3923,0,0,1,4.8953-1.1817c2.9752,0,4.6841,1.4772,4.6841,4.0724V81.34h-2.8484v-.7807a5.0846,5.0846,0,0,1-3.165.9705C139.7713,81.53,138.1465,80.1582,138.1465,78.1538Zm4.7478,1.3082a3.9819,3.9819,0,0,0,2.4265-.7176V77.1408A5.9787,5.9787,0,0,0,143,76.7189c-1.3293,0-2.11.5275-2.11,1.3715S141.67,79.462,142.8943,79.462Z"/><path d="M150.1522,67.3924a1.6459,1.6459,0,1,1,1.6459,1.6459A1.6482,1.6482,0,0,1,150.1522,67.3924Zm.2112,2.9541h2.8907V81.34h-2.8907Z"/><path d="M155.5114,70.3465h2.8906V71.57a3.5154,3.5154,0,0,1,2.9329-1.4771,2.433,2.433,0,0,1,1.2029.2532v2.5321a3.6913,3.6913,0,0,0-1.4772-.2954,2.942,2.942,0,0,0-2.6586,1.6247V81.34h-2.8906Z"/><path class="a92aebcd-dceb-4375-8e20-57b09c818e48" d="M160.6086,60.7946a3.5973,3.5973,0,0,1-2.5437-6.1411l6.02-6.02a.96.96,0,0,0-1.3579-1.3579L152.6745,57.3281a1.3186,1.3186,0,1,1-1.8647-1.8648l10.0525-10.0525a3.5973,3.5973,0,1,1,5.0874,5.0874l-6.02,6.02a.96.96,0,0,0,1.3578,1.3579l1.8651-1.8651a4.3567,4.3567,0,0,1,6.1615,0,1.3186,1.3186,0,0,1-1.8648,1.8648,1.72,1.72,0,0,0-2.4317,0l-1.8653,1.865A3.5743,3.5743,0,0,1,160.6086,60.7946Z"/><path class="a92aebcd-dceb-4375-8e20-57b09c818e48" d="M181.6306,81.5372a1.314,1.314,0,0,1-.9324-.3864L168.6668,69.12a1.3177,1.3177,0,0,1-.3863-.9324V62.1716a1.3177,1.3177,0,0,1,.3863-.9324l4.0106-4.0106a1.3175,1.3175,0,0,1,.9324-.3863h6.0154a1.3177,1.3177,0,0,1,.9324.3863L192.589,69.26a1.3182,1.3182,0,0,1,0,1.8647l-10.026,10.026A1.314,1.314,0,0,1,181.6306,81.5372ZM170.9179,67.641l10.7127,10.7124,8.161-8.161L179.0789,59.48H174.156l-3.2381,3.2381Z"/><path class="a92aebcd-dceb-4375-8e20-57b09c818e48" d="M174.8262,64.7089a1.3235,1.3235,0,0,1-1.3187-1.3188,1.2208,1.2208,0,0,1,.0263-.2583,1.3387,1.3387,0,0,1,.0739-.248,1.4326,1.4326,0,0,1,.1213-.2267,1.5415,1.5415,0,0,1,.1661-.2006,1.2194,1.2194,0,0,1,.2-.1633,1.2519,1.2519,0,0,1,.2269-.1216,1.3336,1.3336,0,0,1,.2481-.0763,1.29,1.29,0,0,1,.5141,0,1.393,1.393,0,0,1,.248.0763,1.2453,1.2453,0,0,1,.2269.1216,1.2771,1.2771,0,0,1,.364.3639,1.4408,1.4408,0,0,1,.1213.2267,1.3228,1.3228,0,0,1,.0736.248,1.2017,1.2017,0,0,1,.0266.2583,1.3192,1.3192,0,0,1-1.3188,1.3188Z"/><path class="a92aebcd-dceb-4375-8e20-57b09c818e48" d="M110.6477,125.9166a6.94,6.94,0,0,1,.24,1.4085c0,1.9481-2.188,3.0268-5.0646,3.0268-6.5037,0-12.1976-3.8059-12.1976-6.3234a2.5617,2.5617,0,0,1,.21-1.0189c-2.3377.12-5.3645.5394-5.3645,3.2066,0,4.3754,10.3694,9.77,18.5808,9.77,6.2936,0,7.8816-2.8468,7.8816-5.0945,0-1.7685-1.5282-3.776-4.2854-4.9749m-4.5253,1.5884c1.7385,0,4.2556-.36,4.2556-2.4276a1.9676,1.9676,0,0,0-.0431-.4757l-1.0354-4.499c-.24-.989-.45-1.4386-2.1879-2.3078a20.2978,20.2978,0,0,0-5.1548-1.8279c-.8092,0-1.0487,1.0487-2.0079,1.0487-.9289,0-1.6182-.779-2.4873-.779-.8389,0-1.3787.5693-1.7982,1.7382,0,0-1.1689,3.2965-1.3187,3.7757a.87.87,0,0,0-.0309.27c0,1.2812,5.0458,5.4843,11.8086,5.4843"/><path d="M110.6477,125.9166a6.94,6.94,0,0,1,.24,1.4085c0,1.9481-2.188,3.0268-5.0646,3.0268-6.5037,0-12.1976-3.8059-12.1976-6.3234a2.5617,2.5617,0,0,1,.21-1.0189l.51-1.259a.87.87,0,0,0-.0309.27c0,1.2812,5.0458,5.4843,11.8086,5.4843,1.7385,0,4.2556-.36,4.2556-2.4276a1.9676,1.9676,0,0,0-.0431-.4757l.3128,1.3149Z"/><path d="M119.8224,131.1531h2.5146v-3.7282h1.9154l1.93,3.7282h2.8071l-2.2516-4.0937a3.0965,3.0965,0,0,0,1.93-2.88,3.3227,3.3227,0,0,0-3.6114-3.26h-5.2341v10.2343Zm5-8.0851a1.1633,1.1633,0,1,1,0,2.31H122.337v-2.31Zm4.0791,4.2254a4.0606,4.0606,0,0,0,4.2106,4.006,4.6408,4.6408,0,0,0,3.2311-1.17l-1.5642-1.389a2.0953,2.0953,0,0,1-1.55.5848,1.9987,1.9987,0,0,1-1.9007-1.2281h5.5119v-.5848a3.9735,3.9735,0,1,0-7.9389-.2193m3.9914-2.0762a1.7106,1.7106,0,0,1,1.6228,1.2282h-3.2312a1.6109,1.6109,0,0,1,1.6084-1.2282m10.7313,5.9359h2.3393v-10.746l-2.3685.5117v2.9095a3.9855,3.9855,0,1,0-2.047,7.4273,3.4883,3.4883,0,0,0,2.0762-.6726v.57Zm-3.6989-3.8743a1.9583,1.9583,0,0,1,2.0322-1.9592,2.3966,2.3966,0,0,1,1.6375.5994v2.7048a2.2755,2.2755,0,0,1-1.6375.6141,1.9671,1.9671,0,0,1-2.0322-1.9591m9.5824,3.8743h2.5149v-4.006h4.2106v4.006h2.5148V120.9188h-2.5148v3.9329h-4.2106v-3.9329h-2.5149v10.2343Zm12.8515.1317a3.62,3.62,0,0,0,2.1347-.5995v.4678h2.3393v-4.9563c0-1.886-1.2721-2.9241-3.392-2.9241a8.6067,8.6067,0,0,0-3.6113.848l.848,1.74a6.32,6.32,0,0,1,2.3393-.6141c.98,0,1.4767.38,1.4767,1.1551v.38a6.8635,6.8635,0,0,0-1.7545-.2194c-1.9884,0-3.1873.8334-3.1873,2.3247,0,1.36,1.0818,2.3978,2.8071,2.3978m-.7226-2.4417c0-.5117.5117-.76,1.2866-.76a5.9478,5.9478,0,0,1,1.4036.1754v.9942a2.99,2.99,0,0,1-1.4767.3655c-.76,0-1.2135-.2924-1.2135-.7749m7.36-.0438c0,1.652.9945,2.4563,2.8073,2.4563a7.2668,7.2668,0,0,0,1.6523-.234v-1.9153a3.4406,3.4406,0,0,1-1.0674.1608c-.7457,0-1.0234-.2339-1.0234-.9357v-2.9387h2.1637v-1.9738h-2.1637v-2.5l-2.3688.5117v1.9884h-1.5644v1.9738h1.5644v3.4066Z"/></svg>