<svg id="ae6349c5-331a-4193-a46a-c7b41cd0c8d7" data-name="Layer 1" xmlns="http://www.w3.org/2000/svg" viewBox="0 0 555 309.02"><defs><style>.e301fcd3-8d33-4fbf-abe6-7cae01dcb2cd{fill:#ed1c24;}.ab3f7480-8f85-4de7-879f-44059909d866{fill:#81c299;}.b642d336-c17e-48eb-bfbc-07fe97618887{fill:#f5823d;}.e180945b-4aef-4197-b344-596ec388e20a{fill:#fee96b;}.f6d10dc3-7fda-4091-a564-e9782eadbc92{fill:#c0d681;}.bf384151-c2b3-47f1-9246-1275330c8675{fill:#5d4ea0;}.b46b040f-71c7-4be1-98e7-53d42dd0149b{fill:#4cb6d6;}.b6dc6844-9170-41a8-a2a6-5d27ceba95be{fill:#e00;}.ab412495-eb24-4cdc-b867-0b89cc35f119{fill:#faaa4f;}.aff500c4-cdd9-41f2-a40d-1e8c2b52055b{fill:#689b7a;}</style></defs><path d="M119.82,79.5778v5.2237h4.5541c1.8305,0,3.0357-1.0491,3.0357-2.6118,0-1.585-1.2052-2.6119-3.0357-2.6119Zm-2.344-2.0538h7.0988c3.1032,0,5.2015,1.8752,5.2015,4.621a4.4139,4.4139,0,0,1-3.2148,4.2862l3.4827,6.7194h-2.59l-3.2368-6.4069H119.82v6.4069h-2.344V77.524Z"/><path d="M132.9681,86.52H139.71a3.3893,3.3893,0,0,0-6.7418,0Zm3.7279,6.831a5.8472,5.8472,0,0,1-5.96-5.8933,5.71,5.71,0,0,1,5.6926-5.8488,5.6268,5.6268,0,0,1,5.4915,5.938v.6475h-8.9739a3.8328,3.8328,0,0,0,3.84,3.2592,4.4193,4.4193,0,0,0,2.88-1.0046l1.4287,1.4063a6.7764,6.7764,0,0,1-4.3977,1.4957Z"/><path d="M149.6211,91.387a4.0944,4.0944,0,0,0,3.1475-1.3617V84.8685a4.1539,4.1539,0,0,0-3.1475-1.3394,3.93,3.93,0,0,0,0,7.8579Zm3.17.6921a5.367,5.367,0,0,1-3.4827,1.25,5.86,5.86,0,1,1,3.46-10.6036V77.524l2.2323-.491V93.1506h-2.21V92.0791Z"/><polygon points="162.568 77.524 164.912 77.524 164.912 84.221 173.217 84.221 173.217 77.524 175.561 77.524 175.561 93.151 173.217 93.151 173.217 86.342 164.912 86.342 164.912 93.151 162.568 93.151 162.568 77.524 162.568 77.524"/><path d="M182.3688,91.7a4.37,4.37,0,0,0,3.0136-1.0714V88.6635a5.9025,5.9025,0,0,0-2.9243-.692c-1.63,0-2.6342.7367-2.6342,1.8752,0,1.0938,1.0269,1.8528,2.5449,1.8528Zm-4.6879-1.8081c0-2.1431,1.7412-3.46,4.5986-3.46a8.0209,8.0209,0,0,1,3.1029.6251V85.8508c0-1.6074-.96-2.411-2.7681-2.411a8.0762,8.0762,0,0,0-3.527.96l-.826-1.6742a10.6353,10.6353,0,0,1,4.6655-1.1609c2.947,0,4.6435,1.4511,4.6435,4.063v7.523h-2.1879v-.9824a5.3906,5.3906,0,0,1-3.5271,1.1832c-2.4778,0-4.1744-1.4064-4.1744-3.46Z"/><path d="M191.1641,83.663h-2.4109V81.7879h2.4109V78.8858l2.21-.5357v3.4378h3.3485V83.663h-3.3485v6.1613c0,1.1609.4688,1.585,1.6743,1.585a4.3833,4.3833,0,0,0,1.63-.2679v1.8751a7.3867,7.3867,0,0,1-2.1207.3349c-2.21,0-3.3933-1.0491-3.3933-3.0136V83.663Z"/><polygon points="120.289 105.093 120.289 116.59 117.297 116.59 117.297 100.963 121.449 100.963 125.735 109.357 130.022 100.963 134.174 100.963 134.174 116.59 131.116 116.59 131.116 105.115 125.691 115.474 120.289 105.093 120.289 105.093"/><path d="M139.8433,116.59H136.785V104.9589h3.0583V116.59Zm-3.2815-14.7561a1.7412,1.7412,0,1,1,1.7412,1.7412,1.7436,1.7436,0,0,1-1.7412-1.7412Z"/><polygon points="145.29 116.59 142.232 116.59 142.232 100.963 145.29 100.294 145.29 116.59 145.29 116.59"/><path d="M150.7364,116.59h-3.0583V104.9589h3.0583V116.59Zm-3.2815-14.7561a1.7412,1.7412,0,1,1,1.7412,1.7412,1.7436,1.7436,0,0,1-1.7412-1.7412Z"/><path d="M154.71,107.5263h-2.3885v-2.5674H154.71V101.99l3.0583-.6922v3.6609h3.3041v2.5674h-3.3041v5.1567c0,1.0941.4241,1.4956,1.6075,1.4956a4.7,4.7,0,0,0,1.6293-.2679v2.5a9.4864,9.4864,0,0,1-2.3662.3572c-2.5895,0-3.9289-1.1831-3.9289-3.46v-5.7817Z"/><path d="M167.0766,114.603a4.4015,4.4015,0,0,0,2.5672-.7369v-1.7412a6.7564,6.7564,0,0,0-2.4556-.4239c-1.4063,0-2.2323.5581-2.2323,1.4511s.826,1.4509,2.1207,1.4509Zm-5.045-1.384c0-2.21,1.7858-3.5273,4.7771-3.5273a9.4053,9.4053,0,0,1,2.8351.4465v-.826c0-1.3394-.826-2.0314-2.4556-2.0314a9.0121,9.0121,0,0,0-3.5493.96l-1.1162-2.2546a12.1268,12.1268,0,0,1,5.179-1.25c3.1478,0,4.956,1.5626,4.956,4.3083V116.59h-3.0139v-.8036a5.5278,5.5278,0,0,1-3.3708,1.0045c-2.5,0-4.2414-1.451-4.2414-3.5717Z"/><path d="M174.979,104.9589h3.0583v1.2727a3.7,3.7,0,0,1,3.1029-1.5406,2.642,2.642,0,0,1,1.2724.2679v2.6791a3.9045,3.9045,0,0,0-1.5626-.3126,3.0781,3.0781,0,0,0-2.8127,1.7412V116.59H174.979V104.9589Z"/><path d="M187.6136,116.7014l-4.5316-11.7425h3.3708l2.88,7.9253,3.3038-7.9253H195.94l-5.3579,12.5462c-1.2054,2.8127-2.6118,3.8842-5.1566,3.8842a5.5972,5.5972,0,0,1-1.3617-.1337v-2.6344a4.7744,4.7744,0,0,0,1.0715.09,2.3421,2.3421,0,0,0,2.2993-1.5852l.1786-.4242Z"/><polygon points="200.337 100.963 203.842 100.963 208.619 113.308 213.508 100.963 216.857 100.963 210.427 116.59 206.677 116.59 200.337 100.963 200.337 100.963"/><path d="M218.7986,109.6247h5.6924a3,3,0,0,0-2.835-2.3439,2.9209,2.9209,0,0,0-2.8574,2.3439Zm3.1922,7.1883a6.055,6.055,0,0,1-6.2507-6.0275,5.937,5.937,0,0,1,5.9829-6.0272c3.3038,0,5.7593,2.6788,5.7593,6.25v.8036H218.821a3.3512,3.3512,0,0,0,3.3038,2.4335,3.6617,3.6617,0,0,0,2.5671-.9379l2.0091,1.8308a6.9718,6.9718,0,0,1-4.71,1.6742Z"/><path d="M230.4959,107.5263h-2.3885v-2.5674h2.3885V101.99l3.0583-.6922v3.6609h3.3038v2.5674h-3.3038v5.1567c0,1.0941.4241,1.4956,1.6073,1.4956a4.7018,4.7018,0,0,0,1.63-.2679v2.5a9.4869,9.4869,0,0,1-2.366.3572c-2.59,0-3.9292-1.1831-3.9292-3.46v-5.7817Z"/><path d="M240.7869,109.6247H246.48a3,3,0,0,0-2.8351-2.3439,2.9216,2.9216,0,0,0-2.8576,2.3439Zm3.1925,7.1883a6.0551,6.0551,0,0,1-6.2508-6.0275,5.937,5.937,0,0,1,5.9829-6.0272c3.3038,0,5.7593,2.6788,5.7593,6.25v.8036h-8.6616a3.3518,3.3518,0,0,0,3.3041,2.4335,3.6619,3.6619,0,0,0,2.5672-.9379l2.0093,1.8308a6.9725,6.9725,0,0,1-4.71,1.6742Z"/><path d="M251.3457,104.9589h3.0583v1.2727a3.7005,3.7005,0,0,1,3.1029-1.5406,2.6436,2.6436,0,0,1,1.2727.2679v2.6791a3.9049,3.9049,0,0,0-1.5629-.3126,3.0785,3.0785,0,0,0-2.8127,1.7412V116.59h-3.0583V104.9589Z"/><path d="M264.5836,114.603a4.4012,4.4012,0,0,0,2.5671-.7369v-1.7412a6.757,6.757,0,0,0-2.4555-.4239c-1.4064,0-2.2323.5581-2.2323,1.4511s.8259,1.4509,2.1207,1.4509Zm-5.045-1.384c0-2.21,1.7858-3.5273,4.7771-3.5273a9.4042,9.4042,0,0,1,2.835.4465v-.826c0-1.3394-.8259-2.0314-2.4555-2.0314a9.0149,9.0149,0,0,0-3.55.96l-1.1161-2.2546a12.1289,12.1289,0,0,1,5.1792-1.25c3.1476,0,4.956,1.5626,4.956,4.3083V116.59h-3.0139v-.8036a5.5278,5.5278,0,0,1-3.3708,1.0045c-2.5,0-4.2413-1.451-4.2413-3.5717Z"/><path d="M272.4856,104.9589h3.0583v.9155a4.9929,4.9929,0,0,1,3.26-1.1384,4.4126,4.4126,0,0,1,4.5985,4.6208v7.233h-3.0582v-6.7862a2.2678,2.2678,0,0,0-2.4109-2.4335,2.7866,2.7866,0,0,0-2.3889,1.1608V116.59h-3.0583V104.9589Z"/><path d="M286.2584,113.1744a6.7737,6.7737,0,0,0,3.7729,1.317c1.3617,0,2.2547-.4911,2.2547-1.228,0-.6025-.4465-.9373-1.451-1.0938l-2.2324-.3349c-2.2992-.3569-3.5273-1.4954-3.5273-3.3708,0-2.2546,1.8754-3.6833,4.8444-3.6833a8.58,8.58,0,0,1,4.7772,1.451l-1.4734,1.9644a6.867,6.867,0,0,0-3.5943-1.1161c-1.1161,0-1.83.4464-1.83,1.1385,0,.625.4465.9375,1.585,1.0938l2.2323.3348c2.2769.3349,3.5493,1.5183,3.5493,3.3262,0,2.1879-2.1653,3.84-5.09,3.84a8.5717,8.5717,0,0,1-5.3355-1.6072l1.5179-2.0314Z"/><path d="M103.1335,92.0055a1.2557,1.2557,0,0,0-1.2556,1.2557v14.2509a9.4333,9.4333,0,0,1-18.7343,1.5735,1.2645,1.2645,0,0,0-.0747-.26c.1055-.0982.2115-.1959.3142-.2986L93.46,98.45a11.9545,11.9545,0,0,0,2.6913-12.768,1.2556,1.2556,0,0,0-2.3414.9075A9.4434,9.4434,0,0,1,91.6843,96.674L81.6072,106.7509a9.4326,9.4326,0,0,1-13.34-13.34l10.077-10.0768a9.4429,9.4429,0,0,1,10.0845-2.1257,1.2557,1.2557,0,0,0,.9077-2.3416,11.9557,11.9557,0,0,0-12.768,2.6915l-10.077,10.077a11.9441,11.9441,0,0,0,14.3747,18.8118,11.9445,11.9445,0,0,0,23.5226-2.9352V93.2612a1.2556,1.2556,0,0,0-1.2557-1.2557Z"/><path class="e301fcd3-8d33-4fbf-abe6-7cae01dcb2cd" d="M84.6427,85.3373a1.256,1.256,0,0,0-1.7758,0L72.79,95.4145A1.2556,1.2556,0,1,0,74.5659,97.19L84.6427,87.1132a1.2558,1.2558,0,0,0,0-1.7759Z"/><path class="e301fcd3-8d33-4fbf-abe6-7cae01dcb2cd" d="M82.4952,98.8174a1.2517,1.2517,0,0,0,.8879-.3678l6.2981-6.298a1.2558,1.2558,0,0,0-1.7759-1.7759L81.6072,96.674a1.2556,1.2556,0,0,0,.888,2.1434Z"/><path d="M92.4461,83.83a1.2575,1.2575,0,0,0,1.2557-1.2556,1.1992,1.1992,0,0,0-.0252-.2456,1.2767,1.2767,0,0,0-.1869-.452,1.1522,1.1522,0,0,0-.1563-.1926,1.26,1.26,0,0,0-1.7747,0,1.1467,1.1467,0,0,0-.1562.1926,1.1554,1.1554,0,0,0-.187.452,1.2062,1.2062,0,0,0-.0251.2456A1.2573,1.2573,0,0,0,92.4461,83.83Z"/><path d="M96.0094,80.2667a1.24,1.24,0,0,0,.2456-.0251,1.4054,1.4054,0,0,0,.2343-.0726,1.2143,1.2143,0,0,0,.2149-.1143,1.3038,1.3038,0,0,0,.1925-.1563,1.2527,1.2527,0,0,0,0-1.7746,1.2558,1.2558,0,1,0-.8873,2.1429Z"/><path d="M98.4119,75.9277a1.354,1.354,0,0,0,.1144.2176,1.4515,1.4515,0,0,0,.1563.19,1.2646,1.2646,0,0,0,.8873.3683,1.1984,1.1984,0,0,0,.2456-.0251,1.2816,1.2816,0,0,0,.452-.1869,1.1522,1.1522,0,0,0,.1926-.1563,1.4215,1.4215,0,0,0,.1534-.19,1.17,1.17,0,0,0,.1172-.2176,1.3483,1.3483,0,0,0,.0726-.2343,1.4691,1.4691,0,0,0,.0223-.2457,1.2634,1.2634,0,0,0-.3655-.8873,1.1467,1.1467,0,0,0-.1926-.1562,1.1554,1.1554,0,0,0-.452-.187,1.2559,1.2559,0,0,0-1.5012,1.23,1.22,1.22,0,0,0,.0251.2457,1.34,1.34,0,0,0,.0725.2343Z"/><path d="M343.2141,195.0158V200.24h4.5539c1.8308,0,3.0359-1.0491,3.0359-2.6118,0-1.585-1.2051-2.6119-3.0359-2.6119ZM340.87,192.962h7.099c3.1029,0,5.2013,1.8752,5.2013,4.621a4.4135,4.4135,0,0,1-3.2145,4.2861l3.4824,6.7194h-2.59l-3.2371-6.4068h-4.3974v6.4068H340.87V192.962Z"/><path d="M356.3621,201.9584h6.7418a3.3893,3.3893,0,0,0-6.7418,0ZM360.09,208.79a5.8471,5.8471,0,0,1-5.9605-5.8935,5.71,5.71,0,0,1,5.6924-5.8487,5.6268,5.6268,0,0,1,5.4917,5.938v.6475H356.34a3.8328,3.8328,0,0,0,3.8395,3.2592,4.42,4.42,0,0,0,2.88-1.0046l1.4287,1.4064A6.7775,6.7775,0,0,1,360.09,208.79Z"/><path d="M373.0148,206.8249a4.0956,4.0956,0,0,0,3.1482-1.3617v-5.1567a4.1556,4.1556,0,0,0-3.1482-1.3395,3.93,3.93,0,0,0,0,7.8579Zm3.1705.6922a5.3681,5.3681,0,0,1-3.4827,1.25,5.86,5.86,0,1,1,3.46-10.6038V192.962l2.2323-.4911v16.1176h-2.21v-1.0714Z"/><polygon points="385.963 192.962 388.306 192.962 388.306 199.659 396.611 199.659 396.611 192.962 398.955 192.962 398.955 208.589 396.611 208.589 396.611 201.78 388.306 201.78 388.306 208.589 385.963 208.589 385.963 192.962 385.963 192.962"/><path d="M405.7628,207.1375a4.37,4.37,0,0,0,3.0139-1.0715v-1.9645a5.9035,5.9035,0,0,0-2.9246-.6921c-1.63,0-2.6339.7367-2.6339,1.8752,0,1.0938,1.0266,1.8529,2.5446,1.8529Zm-4.6878-1.8082c0-2.143,1.7412-3.46,4.5988-3.46a8.0217,8.0217,0,0,1,3.1029.6251v-1.2055c0-1.6073-.96-2.4109-2.7681-2.4109a8.078,8.078,0,0,0-3.5273.96l-.8259-1.6743a10.6345,10.6345,0,0,1,4.6655-1.1608c2.9466,0,4.6432,1.451,4.6432,4.0629v7.523h-2.1874v-.9822a5.3906,5.3906,0,0,1-3.5273,1.1832c-2.4779,0-4.1744-1.4065-4.1744-3.46Z"/><path d="M414.5584,199.101h-2.4109v-1.8751h2.4109v-2.9021l2.21-.5358v3.4379h3.3484v1.8751h-3.3484v6.1613c0,1.1608.4687,1.585,1.6742,1.585a4.3842,4.3842,0,0,0,1.63-.2679v1.8752a7.3885,7.3885,0,0,1-2.1207.3349c-2.21,0-3.3931-1.0492-3.3931-3.0137V199.101Z"/><polygon points="343.772 216.401 351.54 226.514 351.54 216.401 354.577 216.401 354.577 232.028 351.719 232.028 343.75 221.58 343.75 232.028 340.691 232.028 340.691 216.401 343.772 216.401 343.772 216.401"/><path d="M359.7329,225.0629h5.6924a3,3,0,0,0-2.8351-2.3442,2.9211,2.9211,0,0,0-2.8573,2.3442Zm3.1922,7.188a6.055,6.055,0,0,1-6.2508-6.0272,5.937,5.937,0,0,1,5.9829-6.0275c3.3038,0,5.76,2.679,5.76,6.2507v.8037h-8.6616a3.351,3.351,0,0,0,3.3038,2.4332,3.663,3.663,0,0,0,2.5675-.9376l2.0088,1.8305a6.9715,6.9715,0,0,1-4.71,1.6742Z"/><path d="M373.2607,227.1613a2.2853,2.2853,0,0,0,2.4109,2.4555,2.7991,2.7991,0,0,0,2.4109-1.1608v-8.0589h3.0585v11.6306h-3.0585V231.09a4.95,4.95,0,0,1-3.2815,1.1608,4.4308,4.4308,0,0,1-4.5989-4.6432v-7.2106h3.0586v6.7642Z"/><path d="M383.529,220.3971h3.058V221.67a3.7009,3.7009,0,0,1,3.1032-1.54,2.6407,2.6407,0,0,1,1.2727.2679v2.679a3.907,3.907,0,0,0-1.5632-.3125,3.0785,3.0785,0,0,0-2.8127,1.7412v7.5229h-3.058V220.3971Z"/><path d="M400.9413,226.2237a3.2183,3.2183,0,1,0-3.2145,3.3708,3.2586,3.2586,0,0,0,3.2145-3.3708Zm-3.2145-6.05a6.0408,6.0408,0,1,1-6.2061,6.05,6.062,6.062,0,0,1,6.2061-6.05Z"/><path d="M411.7674,229.5721a3.7313,3.7313,0,0,0,2.7684-1.1161v-4.5316a3.8392,3.8392,0,0,0-2.7684-1.0941,3.371,3.371,0,1,0,0,6.7418Zm2.813,1.4957a5.2724,5.2724,0,0,1-3.3038,1.1162,5.9718,5.9718,0,0,1,.0893-11.9432,5.78,5.78,0,0,1,3.17.9153v-4.7549l3.0582-.67v16.2961H414.58v-.96Z"/><path d="M423.0626,232.0277h-3.0579V220.3971h3.0579v11.6306Zm-3.2814-14.7558a1.7413,1.7413,0,1,1,1.7411,1.7412,1.7436,1.7436,0,0,1-1.7411-1.7412Z"/><polygon points="424.246 220.397 427.572 220.397 430.764 228.143 433.934 220.397 437.193 220.397 432.193 232.028 429.246 232.028 424.246 220.397 424.246 220.397"/><path d="M440.4746,225.0629h5.6927a3.0009,3.0009,0,0,0-2.835-2.3442,2.9215,2.9215,0,0,0-2.8577,2.3442Zm3.1925,7.188a6.0549,6.0549,0,0,1-6.251-6.0272,5.937,5.937,0,0,1,5.9829-6.0275c3.3041,0,5.7593,2.679,5.7593,6.2507v.8037H440.497a3.3511,3.3511,0,0,0,3.3038,2.4332,3.6613,3.6613,0,0,0,2.5671-.9376l2.0094,1.8305a6.9729,6.9729,0,0,1-4.71,1.6742Z"/><path d="M451.0335,220.3971h3.0582V221.67a3.7006,3.7006,0,0,1,3.1029-1.54,2.64,2.64,0,0,1,1.2727.2679v2.679a3.9063,3.9063,0,0,0-1.5629-.3125,3.0781,3.0781,0,0,0-2.8127,1.7412v7.5229h-3.0582V220.3971Z"/><path d="M460.7884,228.6123a6.7724,6.7724,0,0,0,3.7726,1.317c1.362,0,2.2549-.4911,2.2549-1.2278,0-.6027-.4468-.9375-1.451-1.0938l-2.2326-.3348c-2.2993-.3572-3.527-1.4957-3.527-3.3708,0-2.2546,1.8751-3.6833,4.8441-3.6833a8.5791,8.5791,0,0,1,4.7771,1.4507l-1.4733,1.9647a6.8654,6.8654,0,0,0-3.5941-1.1161c-1.1161,0-1.83.4461-1.83,1.1384,0,.6251.4464.9376,1.5849,1.0939l2.2323.3348c2.277.3349,3.5494,1.518,3.5494,3.3261,0,2.1877-2.1653,3.84-5.09,3.84a8.571,8.571,0,0,1-5.3352-1.6072l1.518-2.0314Z"/><path d="M474.2715,232.0277h-3.0582V220.3971h3.0582v11.6306ZM470.99,217.2719a1.7412,1.7412,0,1,1,1.7412,1.7412,1.7435,1.7435,0,0,1-1.7412-1.7412Z"/><path d="M478.2447,222.9642h-2.3888v-2.5671h2.3888v-2.969l3.0583-.692v3.661h3.3038v2.5671H481.303v5.157c0,1.0938.4242,1.4956,1.6073,1.4956a4.7053,4.7053,0,0,0,1.63-.2679v2.5005a9.5027,9.5027,0,0,1-2.3663.3569c-2.59,0-3.9289-1.1829-3.9289-3.46v-5.782Z"/><path d="M489.6741,232.14l-4.5318-11.7425h3.3711l2.88,7.925,3.3037-7.925h3.3039l-5.3576,12.5461c-1.2054,2.8127-2.6118,3.8842-5.1566,3.8842a5.5974,5.5974,0,0,1-1.362-.1339v-2.6341a4.8021,4.8021,0,0,0,1.0718.0893,2.3424,2.3424,0,0,0,2.2993-1.5853l.1785-.4238Z"/><path class="ab3f7480-8f85-4de7-879f-44059909d866" d="M315.6077,205.6622a6.5327,6.5327,0,0,0-3.506,1.0156,7.2091,7.2091,0,0,0-1.24,1.0163,1.2558,1.2558,0,0,0,1.774,1.7778,4.8045,4.8045,0,0,1,.811-.6735,4.0434,4.0434,0,1,1,2.1609,7.4614c-1.525,0-2.484-.8521-3.7736-2.1521q-1.939-1.9552-3.87-3.9192l-1.7134-1.7384a7.827,7.827,0,0,0-5.48-2.7879,6.5545,6.5545,0,0,0,0,13.1089,6.6675,6.6675,0,0,0,4.63-1.9836,1.2557,1.2557,0,0,0-1.6895-1.8582,4.1474,4.1474,0,0,1-2.9405,1.3305,4.0432,4.0432,0,0,1,0-8.0863c1.1924,0,2.2623.5912,3.6923,2.04l1.7124,1.7372q1.9359,1.9647,3.876,3.9252c1.2792,1.29,2.8711,2.8949,5.5563,2.8949a6.5545,6.5545,0,0,0,0-13.1089Z"/><path d="M326.1048,216.11a7.5655,7.5655,0,0,1-2.8191,12.1108,8.3965,8.3965,0,0,0,.16-1.1832,1.2557,1.2557,0,0,0-2.5066-.1565,5.8522,5.8522,0,0,1-.6212,2.27,1.2457,1.2457,0,0,0-.1615.2224,5.8977,5.8977,0,0,1-4.1273,2.9235c-.1041.017-.2082.0338-.3128.0449-.0421.0048-.0843.0092-.1261.0132a5.8571,5.8571,0,0,1-4.66-1.6924c-.0125-.0123-.0272-.0207-.04-.0327a5.8464,5.8464,0,0,1-1.6838-3.935c.0011-.0608.0043-.1213.0043-.1827a8.3717,8.3717,0,0,0-2.0949-5.5437,1.2558,1.2558,0,1,0-1.883,1.662,5.8578,5.8578,0,0,1,1.4625,3.7865c-.0024.0321-.01.0625-.01.0952a5.8762,5.8762,0,0,1-5.8631,5.8693c-.18,0-.3569-.0106-.533-.0268-.04-.0039-.0809-.0081-.1212-.0126q-.2376-.0267-.469-.0717c-.0537-.0109-.1071-.0237-.16-.036-.11-.0248-.2178-.053-.3249-.0837-.0885-.0259-.1765-.053-.2637-.0829-.0365-.0125-.0722-.0268-.1088-.04a5.9254,5.9254,0,0,1-3.1152-2.6545,1.1922,1.1922,0,0,0-.0929-.14,5.83,5.83,0,0,1-.6733-2.7212,1.2557,1.2557,0,0,0-2.5114,0,8.3856,8.3856,0,0,0,.1782,1.72,7.5663,7.5663,0,0,1-2.8492-12.123,1.2552,1.2552,0,0,0,.05-1.6081,9.3333,9.3333,0,0,1-2.0075-5.8027,9.4353,9.4353,0,0,1,6.3419-8.9029,1.256,1.256,0,0,0,.84-1.2916c-.0084-.0978-.0212-.1944-.0343-.2908-.0106-.0791-.0218-.1608-.0218-.2029a5.8765,5.8765,0,0,1,5.87-5.87,6.18,6.18,0,0,1,5.91,4.4033,1.2457,1.2457,0,0,0,.06.172,8.3721,8.3721,0,0,0-.1,1.2945v5.3441a1.2557,1.2557,0,1,0,2.5113,0V198.011a5.88,5.88,0,0,1,4.1252-5.6051l.0023-.0008c.1546-.0481.3133-.0865.4732-.1219.05-.0109.1005-.0226.1513-.0323.1258-.0244.2536-.0422.3822-.0584.06-.0076.1189-.0174.1789-.0231.1836-.0173.3689-.0282.5567-.0282a5.8764,5.8764,0,0,1,5.87,5.87,1.9894,1.9894,0,0,1-.0218.2039c-.0131.0958-.0257.1917-.034.289a1.25,1.25,0,0,0,.0064.2511,5.8773,5.8773,0,0,1-1.9382,3.659,1.2556,1.2556,0,0,0,1.6616,1.883,8.3921,8.3921,0,0,0,2.486-3.8958,9.4339,9.4339,0,0,1,4.9655,8.298,9.3332,9.3332,0,0,1-2.0074,5.8027,1.2552,1.2552,0,0,0,.05,1.6081Zm4.4688-7.4108a11.9486,11.9486,0,0,0-7.1286-10.9212c-.0008-.0345-.0042-.0686-.0055-.103q-.0039-.1013-.0106-.2019-.0068-.1107-.0165-.22c-.0064-.0669-.0131-.1335-.0207-.2q-.0125-.1092-.0276-.2173-.0138-.0985-.03-.1964-.018-.1074-.0386-.2143-.0187-.0969-.04-.1929c-.015-.0706-.0315-.1409-.0488-.2108-.0154-.0634-.0313-.1266-.0483-.1892-.0187-.07-.0385-.1385-.0589-.2073-.0186-.062-.0373-.1236-.0572-.185-.0223-.0683-.0454-.1358-.0692-.2034q-.0318-.091-.0655-.1811-.0378-.1-.0782-.1981c-.0242-.06-.0488-.1188-.0745-.1777-.0281-.0648-.0577-.129-.0873-.193-.0271-.0581-.0544-.1159-.0826-.1732-.031-.0634-.0639-.1259-.0965-.1883-.03-.0563-.06-.1125-.09-.1682-.0343-.0615-.07-.1224-.1055-.1831-.032-.0546-.0641-.1091-.0976-.1629-.0371-.06-.0756-.1192-.1144-.1782-.0343-.0526-.0689-.1053-.1044-.1571-.04-.0582-.0815-.1154-.1228-.1726-.0368-.0509-.0736-.1017-.1116-.1516-.0427-.0562-.0868-.1114-.1308-.1666-.0391-.0488-.0782-.0978-.1184-.1458-.0452-.0542-.0918-.1071-.1386-.16-.0413-.0467-.0824-.0937-.1245-.14-.048-.0522-.0977-.1032-.147-.1541-.043-.0446-.086-.0895-.13-.1331-.05-.05-.1024-.0983-.1537-.1469-.0458-.0425-.09-.0853-.1367-.1269-.0528-.0475-.1069-.0936-.1613-.14-.0472-.04-.0938-.0808-.1418-.12-.0552-.0451-.1116-.0884-.168-.1322-.0491-.0378-.0976-.0763-.1476-.1133-.0574-.0425-.116-.0831-.1744-.1243-.0507-.0355-.1013-.0716-.1526-.1063-.0594-.04-.12-.0773-.18-.1156-.0525-.0333-.1047-.0672-.158-.0993-.0614-.0371-.1241-.072-.1864-.1074-.0544-.0308-.1077-.0621-.1624-.0917-.0636-.0342-.1281-.0661-.1925-.0987-.0555-.028-.1105-.057-.1669-.084-.0653-.0311-.1317-.06-.1978-.0895-.0569-.0255-.1136-.0518-.1711-.0759-.0678-.0286-.137-.0545-.2056-.0814-.0572-.0222-.1139-.0455-.1716-.0666-.07-.0256-.1421-.0485-.2132-.0722-.0581-.0194-.1152-.04-.1736-.0578-.0728-.0225-.1462-.0421-.22-.0625-.058-.0164-.1157-.0338-.1743-.0489-.0754-.0192-.1521-.0356-.2283-.0528-.058-.0132-.1155-.0276-.1738-.04-.0787-.0159-.1583-.0288-.2375-.0425-.0575-.01-.1141-.0214-.1719-.03-.0823-.0124-.1657-.0215-.2489-.0316-.0558-.0068-.1108-.0152-.1669-.021-.0943-.01-.19-.0153-.2851-.0216-.0455-.0032-.09-.0079-.1362-.01q-.2122-.011-.4272-.0109c-.1635,0-.3259.006-.4875.0152-.06.0034-.1191.009-.1789.0136-.0962.0077-.1925.0161-.2874.027-.0834.0093-.1666.02-.2492.0318-.0541.0077-.1082.0165-.1618.0252a8.7946,8.7946,0,0,0-5.7606,3.5656,8.7922,8.7922,0,0,0-7.1256-3.6784,8.391,8.391,0,0,0-8.378,8.1481,11.9482,11.9482,0,0,0-7.1285,10.9212,11.7958,11.7958,0,0,0,1.9538,6.5337,10.0778,10.0778,0,0,0,6.5942,15.9245,8.398,8.398,0,0,0,5.3971,3.5859c.0223.0045.0449.0081.0673.012q.1905.0346.384.0611c.05.0067.1008.0134.1514.0193.1052.0122.211.0217.3172.03.0581.0045.1159.01.1739.0134q.2045.0112.4115.0128c.0188,0,.0373.002.0561.002l.006,0,.0079,0c.1736,0,.3455-.0073.5166-.0176.0276-.0017.0545-.0042.0821-.0061q.2353-.0168.4668-.0466l.05-.0062a8.3942,8.3942,0,0,0,6.0024-3.8867,8.4458,8.4458,0,0,0,2.7388,2.72c.0464.0287.0924.0574.1393.0851.0757.0449.1526.0881.23.1306.067.0368.1346.072.2024.1068s.136.07.2055.1036c.106.051.2137.0987.3221.145.0714.03.1433.0595.2155.0882.102.04.2042.0793.3074.1153.0646.0226.13.0432.1951.0644q.1325.0428.2665.0809c.0675.0193.1351.0386.2037.0561.1016.0263.204.05.3064.072.0837.0182.1674.0355.252.0514.1172.0217.2349.0418.3535.0586.0687.01.1379.0173.2071.0254.0982.0114.1967.0214.2957.0293.0653.0053.1306.0108.1962.0145.1468.0083.2947.0136.4428.0145l.0394.0014.0058,0,.0079,0c.1685,0,.3356-.0067.5022-.0165l.0092,0a8.357,8.357,0,0,0,6.4673-3.7261,10.0764,10.0764,0,0,0,6.56-15.918,11.7936,11.7936,0,0,0,1.9541-6.5337Z"/><path d="M121.4163,195.8986v5.2237H125.97c1.8308,0,3.0359-1.0491,3.0359-2.6118,0-1.585-1.2051-2.6119-3.0359-2.6119Zm-2.3439-2.0538h7.0987c3.1032,0,5.2016,1.8752,5.2016,4.621a4.4139,4.4139,0,0,1-3.2148,4.2862l3.4826,6.7194h-2.59l-3.2366-6.4069h-4.3979v6.4069h-2.3439V193.8448Z"/><path d="M134.5646,202.8412h6.7416a3.3892,3.3892,0,0,0-6.7416,0Zm3.7279,6.8311a5.8471,5.8471,0,0,1-5.96-5.8934,5.71,5.71,0,0,1,5.6927-5.8488,5.6266,5.6266,0,0,1,5.4914,5.938v.6475h-8.9738a3.8326,3.8326,0,0,0,3.8395,3.2592,4.4191,4.4191,0,0,0,2.88-1.0046l1.4287,1.4064a6.7769,6.7769,0,0,1-4.3977,1.4957Z"/><path d="M151.2176,207.7077a4.0953,4.0953,0,0,0,3.1476-1.3616v-5.1568a4.1552,4.1552,0,0,0-3.1476-1.3394,3.9295,3.9295,0,0,0,0,7.8578Zm3.17.6922a5.3673,5.3673,0,0,1-3.4824,1.25,5.86,5.86,0,1,1,3.46-10.6037v-5.2015l2.2323-.491v16.1176h-2.21V208.4Z"/><polygon points="164.165 193.845 166.509 193.845 166.509 200.542 174.813 200.542 174.813 193.845 177.157 193.845 177.157 209.471 174.813 209.471 174.813 202.663 166.509 202.663 166.509 209.471 164.165 209.471 164.165 193.845 164.165 193.845"/><path d="M183.9653,208.02a4.3688,4.3688,0,0,0,3.0136-1.0715v-1.9645a5.9027,5.9027,0,0,0-2.9246-.692c-1.6293,0-2.6338.7367-2.6338,1.8752,0,1.0938,1.0268,1.8528,2.5448,1.8528Zm-4.6881-1.8081c0-2.1431,1.7415-3.46,4.5988-3.46a8.0191,8.0191,0,0,1,3.1029.6251v-1.2056c0-1.6073-.96-2.4109-2.768-2.4109a8.078,8.078,0,0,0-3.5274.96l-.8259-1.6742a10.6359,10.6359,0,0,1,4.6658-1.1609c2.9469,0,4.6435,1.4511,4.6435,4.063v7.523h-2.188v-.9823a5.39,5.39,0,0,1-3.527,1.1832c-2.4782,0-4.1747-1.4065-4.1747-3.46Z"/><path d="M192.7609,199.9838H190.35v-1.8751h2.4112v-2.9021l2.21-.5357v3.4378H198.32v1.8751h-3.3487v6.1613c0,1.1609.4688,1.585,1.6742,1.585a4.3842,4.3842,0,0,0,1.63-.2679v1.8752a7.39,7.39,0,0,1-2.1207.3349c-2.21,0-3.3931-1.0492-3.3931-3.0137v-6.6748Z"/><path d="M122.1306,220.0746v4.2637h4.2417a2.14,2.14,0,1,0,0-4.2637Zm-3.2368-2.7907h7.8354c3.0809,0,5.2462,2.0317,5.2462,4.9114,0,2.79-2.21,4.8218-5.2462,4.8218h-4.5986v5.8936h-3.2368V217.2839Z"/><path d="M133.8949,221.28h3.0583v1.2727a3.6992,3.6992,0,0,1,3.1029-1.54,2.6412,2.6412,0,0,1,1.2724.2676v2.6793a3.8973,3.8973,0,0,0-1.5626-.3128,3.0781,3.0781,0,0,0-2.8127,1.7412v7.5232h-3.0583V221.28Z"/><path d="M146.0387,232.9107H142.98V221.28h3.0583v11.6309Zm-3.2818-14.7559a1.7414,1.7414,0,1,1,1.7415,1.7412,1.7437,1.7437,0,0,1-1.7415-1.7412Z"/><path d="M154.2979,230.4548a3.73,3.73,0,0,0,2.7681-1.1161v-4.5316a3.8393,3.8393,0,0,0-2.7681-1.0938,3.3708,3.3708,0,1,0,0,6.7415Zm2.8127,1.4957a5.2729,5.2729,0,0,1-3.3038,1.1161,5.9716,5.9716,0,0,1,.089-11.9428,5.7818,5.7818,0,0,1,3.17.9152v-4.7551l3.0585-.6695v16.2963h-3.0139v-.96Z"/><path d="M165.0574,225.9456H170.75a3.001,3.001,0,0,0-2.835-2.3442,2.9219,2.9219,0,0,0-2.8576,2.3442Zm3.1925,7.1883a6.0553,6.0553,0,0,1-6.2511-6.0275,5.937,5.937,0,0,1,5.9829-6.0273c3.3041,0,5.7593,2.6788,5.7593,6.2508v.8033H165.08a3.351,3.351,0,0,0,3.3038,2.4333,3.6615,3.6615,0,0,0,2.5672-.9373l2.0093,1.83a6.9719,6.9719,0,0,1-4.71,1.6743Z"/><path class="b642d336-c17e-48eb-bfbc-07fe97618887" d="M74.077,208.41a1.2559,1.2559,0,0,1-.5823-2.369,35.52,35.52,0,0,1,12.54-3.7967,1.2557,1.2557,0,0,1,.2668,2.4972,32.9851,32.9851,0,0,0-11.6442,3.5256,1.2513,1.2513,0,0,1-.58.1429Z"/><path class="e180945b-4aef-4197-b344-596ec388e20a" d="M75.5065,213.6463a1.2558,1.2558,0,0,1-.5839-2.368,35.5156,35.5156,0,0,1,12.4793-3.8091,1.2557,1.2557,0,1,1,.2744,2.4963,32.985,32.985,0,0,0-11.5877,3.5369,1.25,1.25,0,0,1-.5821.1439Z"/><path class="e301fcd3-8d33-4fbf-abe6-7cae01dcb2cd" d="M72.6725,203.1855a1.2558,1.2558,0,0,1-.5959-2.3617,35.4792,35.4792,0,0,1,12.4679-3.9406,1.2557,1.2557,0,0,1,.2984,2.4936,32.9458,32.9458,0,0,0-11.5766,3.6586,1.2508,1.2508,0,0,1-.5938.15Z"/><path class="f6d10dc3-7fda-4091-a564-e9782eadbc92" d="M99.0352,204.4579c-.0329,0-.0659-.0012-.0994-.0038a27.8133,27.8133,0,0,0-3.79-.0253,1.2557,1.2557,0,1,1-.144-2.5073,30.3077,30.3077,0,0,1,4.1292.0289,1.2557,1.2557,0,0,1-.0962,2.5075Z"/><path class="bf384151-c2b3-47f1-9246-1275330c8675" d="M101.6618,215.0508c-.04,0-.0793-.0017-.12-.0055a36.3014,36.3014,0,0,0-4.0887-.1534l-.0246,0a1.2557,1.2557,0,0,1-.0237-2.5111,38.8027,38.8027,0,0,1,4.3728.1638,1.2557,1.2557,0,0,1-.1163,2.5059Z"/><path class="b46b040f-71c7-4be1-98e7-53d42dd0149b" d="M100.3185,209.6486c-.0237,0-.0477-.0007-.0717-.002-1.3115-.0739-2.6414-.1022-3.9543-.0844l-.0176,0a1.2557,1.2557,0,0,1-.0164-2.5112c1.3712-.0182,2.76.011,4.13.0881a1.2557,1.2557,0,0,1-.07,2.5093Z"/><path d="M69.2756,199.0091A46.75,46.75,0,0,1,86.692,193.03l4.097,19.2754a49.2049,49.2049,0,0,0-17.37,6.155l-4.1436-19.4515Zm-3.73-3.0625a1.5306,1.5306,0,1,1,.6635.9657,1.5211,1.5211,0,0,1-.6635-.9657Zm8.4259,25.1071a46.7928,46.7928,0,0,1,18.4842-6.4468,1.2559,1.2559,0,0,0,1.07-1.5067L88.9094,191.383a1.2544,1.2544,0,0,0-1.3663-.9869A49.266,49.266,0,0,0,71.06,195.2038a4.0435,4.0435,0,1,0-4.2126,4.459l4.451,20.8945a1.2489,1.2489,0,0,0,.0676.3181l3.0247,14.2a1.2557,1.2557,0,1,0,2.4563-.5232l-2.8754-13.498Z"/><path d="M108.7125,219.5843,103.69,198.0166l-.0131-.0512-.1342-.4823a1.2557,1.2557,0,0,0-1.0643-.9113,49.8052,49.8052,0,0,0-8.3971-.2639,1.2557,1.2557,0,1,0,.1337,2.5078,47.31,47.31,0,0,1,7.1194.159l4.5078,19.357a50.13,50.13,0,0,0-21.4234,1.2409,1.2557,1.2557,0,1,0,.68,2.4176,47.539,47.539,0,0,1,22.04-.8748,1.256,1.256,0,0,0,.4174.012l.106-.0145a1.2558,1.2558,0,0,0,1.0506-1.5286Z"/><path d="M407.9947,78.392h7.0988c3.1032,0,5.2015,1.8752,5.2015,4.6209A4.4136,4.4136,0,0,1,417.08,87.299l3.4825,6.7195h-2.5895l-3.2367-6.4069h-4.3979v6.4069h-2.344Zm2.344,2.0538V85.67h4.554c1.8306,0,3.0359-1.0492,3.0359-2.6119,0-1.5849-1.2053-2.6118-3.0359-2.6118Z"/><path d="M427.2151,94.2194a5.8472,5.8472,0,0,1-5.9607-5.8934,5.71,5.71,0,0,1,5.6928-5.8489,5.6268,5.6268,0,0,1,5.4914,5.9381v.6474h-8.9739a3.8327,3.8327,0,0,0,3.8395,3.2594,4.42,4.42,0,0,0,2.88-1.0047l1.4287,1.4063A6.7755,6.7755,0,0,1,427.2151,94.2194Zm-3.7281-6.831h6.7416a3.3892,3.3892,0,0,0-6.7416,0Z"/><path d="M443.31,92.9471a5.3672,5.3672,0,0,1-3.4825,1.25,5.86,5.86,0,1,1,3.46-10.6037V78.392l2.2323-.4911V94.0185h-2.21Zm-3.17-.6922a4.095,4.095,0,0,0,3.1476-1.3616V85.7365a4.1549,4.1549,0,0,0-3.1476-1.34,3.93,3.93,0,0,0,0,7.858Z"/><path d="M453.0872,78.392h2.344v6.697h8.3041V78.392h2.3441V94.0185h-2.3441V87.21h-8.3041v6.8086h-2.344Z"/><path d="M468.2,90.7592c0-2.1429,1.7413-3.46,4.5987-3.46a8.02,8.02,0,0,1,3.1029.6251V86.7186c0-1.6072-.96-2.4108-2.768-2.4108a8.0794,8.0794,0,0,0-3.5272.96l-.826-1.6742a10.6358,10.6358,0,0,1,4.6657-1.1609c2.9468,0,4.6434,1.4511,4.6434,4.063v7.5231h-2.1879v-.9823a5.39,5.39,0,0,1-3.5269,1.1832C469.8963,94.2194,468.2,92.813,468.2,90.7592Zm4.6881,1.8083a4.37,4.37,0,0,0,3.0135-1.0715V89.5313a5.9026,5.9026,0,0,0-2.9244-.6919c-1.63,0-2.634.7366-2.634,1.8751C470.3429,91.8083,471.37,92.5675,472.8878,92.5675Z"/><path d="M481.6832,84.531h-2.4111V82.6559h2.4111V79.7538l2.21-.5357v3.4378h3.3487V84.531h-3.3487v6.1612c0,1.1608.4689,1.5851,1.6742,1.5851a4.3889,4.3889,0,0,0,1.63-.2679v1.8751a7.3881,7.3881,0,0,1-2.1209.3349c-2.21,0-3.3931-1.0491-3.3931-3.0136Z"/><path d="M415.1606,101.8311c3.1476,0,5.2908,1.7412,5.2908,4.2861a3.8542,3.8542,0,0,1-1.92,3.2817,3.9386,3.9386,0,0,1,2.4557,3.5272c0,2.7234-2.1879,4.5317-5.4693,4.5317h-7.7016V101.8311Zm-4.1074,2.6789v3.7057H414.96c1.3841,0,2.277-.7142,2.277-1.8527s-.8929-1.853-2.277-1.853Zm6.6746,8.2374c0-1.2056-.96-2.0092-2.4555-2.0092h-4.2191v4.0406h4.2191C416.768,114.7788,417.7278,113.9976,417.7278,112.7474Z"/><path d="M425.7864,115.8729a1.8194,1.8194,0,1,1-1.8307-1.8306A1.8344,1.8344,0,0,1,425.7864,115.8729Z"/><path d="M434.18,117.681c-4.2191,0-6.92-2.7013-6.92-6.9875v-8.8624h3.2367v8.8624c0,2.4335,1.4511,3.996,3.7057,3.996,2.2326,0,3.6613-1.5625,3.6613-3.996v-8.8624H441.1v8.8624C441.1,114.9576,438.3769,117.681,434.18,117.681Z"/><path d="M446.2341,115.8729a1.8194,1.8194,0,1,1-1.83-1.8306A1.8342,1.8342,0,0,1,446.2341,115.8729Z"/><path d="M448.5111,101.8311h3.237v15.6267h-3.237Z"/><path d="M457.6856,115.8729a1.8194,1.8194,0,1,1-1.8306-1.8306A1.8343,1.8343,0,0,1,457.6856,115.8729Z"/><path d="M459.9626,101.8311H463.2V114.6h8.55v2.8574H459.9626Z"/><path d="M477.0842,115.8729a1.8193,1.8193,0,1,1-1.8306-1.8306A1.8343,1.8343,0,0,1,477.0842,115.8729Z"/><path d="M479.361,101.8311h6.005a7.9375,7.9375,0,0,1,8.26,7.858c0,4.3755-3.5942,7.7687-8.26,7.7687h-6.005Zm3.237,2.88v9.8672h2.7457a4.9336,4.9336,0,1,0,0-9.8672Z"/><path d="M498.0007,115.8729a1.8194,1.8194,0,1,1-1.83-1.8306A1.8343,1.8343,0,0,1,498.0007,115.8729Z"/><path class="b6dc6844-9170-41a8-a2a6-5d27ceba95be" d="M364.0812,92.17a1.2557,1.2557,0,0,1-.8879-2.1436l7.883-7.8829a1.2558,1.2558,0,1,1,1.7759,1.7759l-7.883,7.8828A1.2527,1.2527,0,0,1,364.0812,92.17Z"/><path class="b6dc6844-9170-41a8-a2a6-5d27ceba95be" d="M371.3149,93.8378a1.2557,1.2557,0,0,1-.888-2.1436l7.9887-7.9885a1.2557,1.2557,0,0,1,1.7759,1.7758L372.2028,93.47A1.2525,1.2525,0,0,1,371.3149,93.8378Z"/><path class="ab412495-eb24-4cdc-b867-0b89cc35f119" d="M376.7282,97.3754a1.2557,1.2557,0,0,1-.888-2.1436l6.7722-6.7721a1.2557,1.2557,0,0,1,1.7758,1.7758l-6.7721,6.7722A1.252,1.252,0,0,1,376.7282,97.3754Z"/><path class="aff500c4-cdd9-41f2-a40d-1e8c2b52055b" d="M378.7831,104.2553a1.2557,1.2557,0,0,1-.888-2.1436l8.749-8.749a1.2558,1.2558,0,1,1,1.7759,1.7759l-8.749,8.749A1.252,1.252,0,0,1,378.7831,104.2553Z"/><path class="aff500c4-cdd9-41f2-a40d-1e8c2b52055b" d="M379.7074,112.26a1.2557,1.2557,0,0,1-.8879-2.1436l5.1431-5.1431a1.2558,1.2558,0,1,1,1.7759,1.7759l-5.1432,5.1431A1.252,1.252,0,0,1,379.7074,112.26Z"/><path d="M381.76,119.1374h-4.4647a1.2556,1.2556,0,0,1-1.2556-1.2557v-2.4564l-2.6087-2.6085a1.2562,1.2562,0,0,1-.3677-.8879V100.5433l-2.2409-2.2408H363.901a1.2561,1.2561,0,0,1-.888-.3678L358.5484,93.47a1.2562,1.2562,0,0,1-.3677-.8879V86.6294a1.2562,1.2562,0,0,1,.3677-.8879l8.9293-8.9292a1.2557,1.2557,0,0,1,1.1494-.34l13.85,2.9489h3.7473a1.2556,1.2556,0,0,1,1.2284.9957l1.5207,7.1861,3.7238,3.7238H398.13a1.2557,1.2557,0,0,1,.8879,2.1436l-8.5615,8.5614v8.4091a1.2564,1.2564,0,0,1-.3677.888l-7.4411,7.4411A1.2564,1.2564,0,0,1,381.76,119.1374Zm-3.209-2.5113h2.6889l6.7055-6.7055v-8.4092a1.256,1.256,0,0,1,.3677-.8879l6.7858-6.7857h-2.9215a1.2562,1.2562,0,0,1-.8879-.3677l-4.3551-4.3551a1.2555,1.2555,0,0,1-.3405-.6279l-1.3871-6.5549h-2.8617a1.2558,1.2558,0,0,1-.2614-.0275L368.7712,79.07,360.692,87.15v4.9126l3.729,3.729h6.9211a1.256,1.256,0,0,1,.8879.3677l2.9764,2.9765a1.2564,1.2564,0,0,1,.3677.888v11.3855l2.6087,2.6085a1.2564,1.2564,0,0,1,.3677.8879Zm10.65-6.1855h0Z"/><path d="M391.2816,115.2366a1.2557,1.2557,0,0,1-.8879-2.1436l2.9765-2.9764a1.2558,1.2558,0,1,1,1.7759,1.7759l-2.9765,2.9764A1.2525,1.2525,0,0,1,391.2816,115.2366Z"/></svg>