<?xml version="1.0" encoding="utf-8"?>
<!-- Generator: Adobe Illustrator 25.2.1, SVG Export Plug-In . SVG Version: 6.00 Build 0)  -->
<svg version="1.1" id="Layer_1" xmlns="http://www.w3.org/2000/svg" xmlns:xlink="http://www.w3.org/1999/xlink" x="0px" y="0px"
	 viewBox="0 0 555 367" style="enable-background:new 0 0 555 367;" xml:space="preserve">
<style type="text/css">
	.st0{opacity:0.15;fill:#0066CC;}
	.st1{fill:#FF0000;}
	.st2{fill:#FFFFFF;}
	.st3{opacity:0.3;fill:#0066CC;}
	.st4{fill:#EB0000;}
	.st5{fill:none;stroke:#0066CC;stroke-width:2;stroke-linecap:round;stroke-linejoin:round;}
	.st6{fill:none;stroke:#0066CC;stroke-width:2;stroke-linecap:round;stroke-linejoin:round;stroke-dasharray:10.089,14.1245;}
	.st7{fill:#F2F2F2;}
	.st8{clip-path:url(#Rectangle_69_2_);}
	.st9{fill:#EE0000;}
	.st10{opacity:0.3;fill:#0066CC;enable-background:new    ;}
	.st11{opacity:0.15;fill:#0066CC;enable-background:new    ;}
	.st12{clip-path:url(#SVGID_4_);fill:url(#);}
</style>
<rect id="Rectangle_64" y="0" class="st9" width="555" height="367"/>
<g id="Red_Hat_lock-up_horizontal_reverse_" transform="translate(209.5 261.879)">
	<path id="Path" class="st2" d="M128.75,20.66c0,2.66,1.59,3.95,4.49,3.95c0.89-0.02,1.78-0.15,2.64-0.38v-3.09
		c-0.55,0.18-1.13,0.26-1.71,0.26c-1.19,0-1.64-0.38-1.64-1.51v-4.73H136V12h-3.46V7.97l-3.78,0.82v3.2h-2.51v3.18h2.5L128.75,20.66
		z M116.97,20.73c0-0.82,0.82-1.22,2.06-1.22c0.76,0,1.51,0.1,2.24,0.28v1.6c-0.72,0.4-1.54,0.6-2.36,0.59
		C117.7,21.98,116.97,21.51,116.97,20.73 M118.12,24.66c1.21,0.05,2.41-0.29,3.41-0.97v0.75h3.74v-7.98c0-3.03-2.03-4.7-5.42-4.7
		c-2,0.03-3.98,0.49-5.78,1.37l1.36,2.8c1.17-0.57,2.44-0.91,3.74-0.99c1.56,0,2.36,0.61,2.36,1.86v0.61
		c-0.92-0.24-1.86-0.36-2.8-0.35c-3.18,0-5.1,1.34-5.1,3.74C113.63,22.99,115.36,24.66,118.12,24.66 M97.57,24.45h4.02V18h6.73v6.45
		h4.03V7.97h-4.02v6.33h-6.73V7.97h-4.02L97.57,24.45z M82.27,18.21c-0.01-1.74,1.39-3.15,3.13-3.16c0.04,0,0.08,0,0.12,0
		c0.96-0.02,1.9,0.33,2.61,0.97v4.35c-0.7,0.67-1.64,1.03-2.61,1c-1.74,0.05-3.2-1.32-3.25-3.06c0-0.03,0-0.06,0-0.09 M88.18,24.46
		h3.74V7.15l-3.78,0.82v4.68c-0.96-0.55-2.05-0.83-3.16-0.82c-3.55,0-6.43,2.88-6.43,6.43c0,1.68,0.65,3.29,1.82,4.49
		c1.18,1.2,2.8,1.88,4.49,1.87c1.19,0.01,2.36-0.37,3.32-1.08L88.18,24.46z M71.02,14.88c1.21,0.02,2.26,0.82,2.59,1.98h-5.16
		C68.74,15.68,69.81,14.86,71.02,14.88 M64.65,18.24c0.03,3.6,2.97,6.49,6.57,6.45c0.05,0,0.11,0,0.16,0
		c1.9,0.06,3.75-0.61,5.17-1.88l-2.5-2.24c-0.66,0.64-1.56,0.98-2.48,0.94c-1.33,0.03-2.53-0.75-3.04-1.98h8.81v-0.95
		c0-3.95-2.64-6.8-6.24-6.8c-1.71-0.03-3.36,0.64-4.57,1.86C65.31,14.86,64.64,16.52,64.65,18.24 M58.12,11.43
		c1.03-0.12,1.95,0.62,2.07,1.65c0.12,1.03-0.62,1.95-1.65,2.07c-0.14,0.02-0.28,0.02-0.42,0h-3.98v-3.72H58.12z M50.12,24.45h4.02
		v-6h3.06l3.09,6h4.5l-3.6-6.59c1.88-0.77,3.1-2.61,3.09-4.64c0-2.97-2.31-5.25-5.78-5.25h-8.38V24.45z"/>
	<path id="Path-2" class="st2" d="M28.22,18.57c2.78,0,6.8-0.58,6.8-3.91c0.01-0.26-0.01-0.51-0.07-0.77L33.3,6.66
		c-0.38-1.59-0.72-2.32-3.5-3.72C27.65,1.83,22.95,0,21.56,0c-1.29,0-1.67,1.68-3.21,1.68c-1.49,0-2.59-1.25-3.98-1.25
		c-1.33,0-2.2,0.91-2.87,2.8c0,0-1.87,5.31-2.11,6.08C9.35,9.45,9.34,9.59,9.34,9.74C9.34,11.8,17.41,18.57,28.22,18.57
		 M35.45,16.02c0.21,0.74,0.33,1.5,0.38,2.27c0,3.13-3.5,4.87-8.1,4.87c-10.39,0.01-19.5-6.12-19.5-10.18
		c0-0.56,0.11-1.12,0.34-1.64C4.84,11.53,0,12.2,0,16.5c0,7.05,16.58,15.73,29.71,15.73c10.06,0,12.6-4.58,12.6-8.2
		C42.31,21.18,39.86,17.95,35.45,16.02"/>
</g>
<g>
	<g>
		<g>
			<polygon class="st2" points="406,94.89 148.97,94.89 148.97,209.46 258.46,209.46 277.84,228.84 297.22,209.46 406,209.46 			"/>
		</g>
		<g>
			<path class="st9" d="M179.34,171.56c4.62,3.75,8.26,5.27,12.66,5.27c4.29,0,6.84-1.36,6.84-3.69c0-2.12-1.47-3.15-5.27-3.8
				l-8.36-1.47c-6.19-1.09-9.61-4.83-9.61-10.43c0-7.39,5.87-11.84,15.59-11.84c5.65,0,11.79,2.06,15.97,5.43l-4.94,6.9
				c-4.02-3.1-7.66-4.51-11.68-4.51c-3.8,0-6.14,1.25-6.14,3.31c0,1.9,1.3,2.82,4.51,3.37l7.88,1.3c7.33,1.2,11.19,4.94,11.19,10.81
				c0,7.71-6.36,12.49-16.67,12.49c-6.14,0-12.44-2.34-17.16-6.36L179.34,171.56z"/>
			<path class="st9" d="M220.41,171.94c0,3.15,2.06,5.21,5.21,5.21c2.23,0,3.96-0.81,5.16-2.28v-19.45h8.8v28.73h-8.8v-1.96
				c-2.12,1.63-4.78,2.5-7.71,2.5c-6.74,0-11.46-4.78-11.46-11.57v-17.71h8.8V171.94z"/>
			<path class="st9" d="M245.01,155.43h8.8v1.85c2.01-1.57,4.45-2.39,7.17-2.39c3.58,0,6.57,1.47,8.53,3.96
				c2.34-2.55,5.54-3.96,9.34-3.96c6.52,0,11.13,4.78,11.13,11.57v17.71h-8.8v-16.51c0-3.15-1.85-5.21-4.67-5.21
				c-1.96,0-3.59,0.76-4.73,2.17c0.05,0.6,0.11,1.19,0.11,1.85v17.71h-8.8v-16.51c0-3.15-1.85-5.21-4.67-5.21
				c-1.96,0-3.53,0.71-4.62,2.06v19.66h-8.8V155.43z"/>
			<path class="st9" d="M295.2,155.43h8.8v1.85c2.01-1.57,4.45-2.39,7.17-2.39c3.59,0,6.57,1.47,8.53,3.96
				c2.34-2.55,5.54-3.96,9.34-3.96c6.52,0,11.13,4.78,11.13,11.57v17.71h-8.8v-16.51c0-3.15-1.85-5.21-4.67-5.21
				c-1.96,0-3.59,0.76-4.73,2.17c0.05,0.6,0.11,1.19,0.11,1.85v17.71h-8.8v-16.51c0-3.15-1.85-5.21-4.67-5.21
				c-1.96,0-3.53,0.71-4.62,2.06v19.66h-8.8V155.43z"/>
			<path class="st9" d="M344.96,147.93c0-2.66,2.17-4.83,4.83-4.83c2.66,0,4.83,2.17,4.83,4.83c0,2.66-2.17,4.83-4.83,4.83
				C347.13,152.77,344.96,150.59,344.96,147.93z M354.19,184.16h-8.8v-28.73h8.8V184.16z"/>
			<path class="st9" d="M363.7,162.76h-5.81v-7.33h5.81v-7.39l8.8-1.9v9.29h8.04v7.33h-8.04v10.92c0,2.55,0.98,3.48,3.8,3.48
				c1.41,0,2.5-0.16,3.97-0.6v7.11c-1.63,0.49-4.45,0.87-6.14,0.87c-6.9,0-10.43-3.1-10.43-9.13V162.76z"/>
		</g>
		<path class="st9" d="M321.52,135.96c0,3.3,1.99,4.91,5.61,4.91c0.88,0,2.4-0.2,3.3-0.47v-3.83c-0.79,0.23-1.37,0.32-2.13,0.32
			c-1.49,0-2.05-0.47-2.05-1.87v-5.88h4.33v-3.95h-4.33v-5l-4.74,1.02v3.98h-3.13v3.95h3.13V135.96z M306.8,136.05
			c0-1.02,1.02-1.52,2.57-1.52c1.02,0,1.96,0.15,2.81,0.35v1.99c-0.88,0.5-1.9,0.73-2.95,0.73
			C307.71,137.6,306.8,137.02,306.8,136.05 M308.25,140.93c1.67,0,3.01-0.35,4.27-1.2v0.94h4.68v-9.91c0-3.77-2.54-5.85-6.78-5.85
			c-2.37,0-4.71,0.56-7.22,1.7l1.7,3.48c1.81-0.76,3.33-1.23,4.68-1.23c1.96,0,2.95,0.76,2.95,2.31v0.76
			c-1.11-0.29-2.28-0.44-3.51-0.44c-3.98,0-6.37,1.67-6.37,4.65C302.63,138.86,304.8,140.93,308.25,140.93 M282.55,140.67h5.03
			v-8.01H296v8.01h5.03V120.2H296v7.87h-8.42v-7.87h-5.03V140.67z M263.38,132.92c0-2.22,1.75-3.92,4.06-3.92
			c1.29,0,2.46,0.44,3.27,1.2v5.41c-0.85,0.82-1.96,1.23-3.27,1.23C265.17,136.84,263.38,135.15,263.38,132.92 M270.78,140.67h4.68
			v-21.49l-4.74,1.02v5.82c-1.17-0.67-2.51-1.02-3.95-1.02c-4.5,0-8.04,3.48-8.04,7.92c0,4.44,3.48,7.95,7.89,7.95
			c1.52,0,2.95-0.47,4.15-1.35V140.67z M249.32,128.8c1.49,0,2.75,0.96,3.25,2.46h-6.46C246.57,129.71,247.74,128.8,249.32,128.8
			 M241.34,132.95c0,4.5,3.68,8.01,8.42,8.01c2.6,0,4.5-0.7,6.46-2.34l-3.13-2.78c-0.73,0.76-1.81,1.17-3.1,1.17
			c-1.75,0-3.19-0.96-3.8-2.46h11.02v-1.17c0-4.91-3.3-8.45-7.81-8.45C244.87,124.94,241.34,128.45,241.34,132.95 M233.18,124.5
			c1.67,0,2.6,1.05,2.6,2.31s-0.94,2.31-2.6,2.31h-4.97v-4.62H233.18z M223.18,140.67h5.03v-7.46h3.83l3.86,7.46h5.61l-4.5-8.19
			c2.43-1.05,3.86-3.25,3.86-5.76c0-3.68-2.89-6.52-7.22-6.52h-10.47V140.67z"/>
	</g>
</g>
</svg>
