<svg id="e4ef384c-2f2e-4a8f-84a9-c2bf39bb9ad7" data-name="Layer 1" xmlns="http://www.w3.org/2000/svg" xmlns:xlink="http://www.w3.org/1999/xlink" width="262" height="180" viewBox="0 0 262 180"><defs><style>.e1eced97-118d-4e8c-8857-7e621cea5a63{fill:none;}.bdb68d6b-14c0-4316-8a19-b036e7183dea{fill:#e00;}.ac82d4c2-e4aa-4b0e-8914-60b293c72894{fill:#fff;}.b5f7574a-a372-4072-91b6-df1ccf126ee9{clip-path:url(#a8b07357-bd29-49a9-81ed-1a4d4d0c0882);}</style><clipPath id="a8b07357-bd29-49a9-81ed-1a4d4d0c0882"><rect class="e1eced97-118d-4e8c-8857-7e621cea5a63" y="220" width="555" height="290"/></clipPath></defs><title>BrandStandards-Logo-Summit_Logos-ASSETS</title><polygon class="bdb68d6b-14c0-4316-8a19-b036e7183dea" points="206 50.91 56 50.91 56 117.78 119.9 117.78 131.21 129.09 142.52 117.78 206 117.78 206 50.91 206 50.91"/><path class="ac82d4c2-e4aa-4b0e-8914-60b293c72894" d="M73.72,95.66c2.7,2.18,4.82,3.07,7.39,3.07s4-.79,4-2.16-.85-1.83-3.07-2.21l-4.88-.86c-3.62-.63-5.61-2.82-5.61-6.09,0-4.31,3.42-6.91,9.09-6.91A15.55,15.55,0,0,1,90,83.67l-2.88,4a10.82,10.82,0,0,0-6.82-2.63c-2.22,0-3.58.73-3.58,1.93s.76,1.65,2.63,2l4.6.76c4.28.7,6.53,2.88,6.53,6.31,0,4.5-3.71,7.29-9.73,7.29a15.81,15.81,0,0,1-10-3.71l3-4Z"/><path class="ac82d4c2-e4aa-4b0e-8914-60b293c72894" d="M97.69,95.88a2.86,2.86,0,0,0,3,3,3.71,3.71,0,0,0,3-1.33V86.24h5.14V103h-5.14v-1.14a7.29,7.29,0,0,1-4.5,1.46,6.45,6.45,0,0,1-6.69-6.76V86.24h5.14v9.64Z"/><path class="ac82d4c2-e4aa-4b0e-8914-60b293c72894" d="M112.05,86.24h5.13v1.08a6.68,6.68,0,0,1,4.19-1.4,6.13,6.13,0,0,1,5,2.32,7.2,7.2,0,0,1,5.46-2.32c3.8,0,6.5,2.79,6.5,6.76V103h-5.14V93.37a2.72,2.72,0,0,0-2.73-3,3.38,3.38,0,0,0-2.75,1.27c0,.35.06.69.06,1.08V103H122.6V93.37c0-1.84-1.07-3-2.72-3a3.32,3.32,0,0,0-2.7,1.2V103h-5.13V86.24Z"/><path class="ac82d4c2-e4aa-4b0e-8914-60b293c72894" d="M141.34,86.24h5.13v1.08a6.68,6.68,0,0,1,4.19-1.4,6.17,6.17,0,0,1,5,2.32,7.16,7.16,0,0,1,5.45-2.32c3.8,0,6.5,2.79,6.5,6.76V103h-5.14V93.37a2.72,2.72,0,0,0-2.73-3A3.38,3.38,0,0,0,157,91.6c0,.35.06.69.06,1.08V103H151.9V93.37a2.72,2.72,0,0,0-2.73-3,3.32,3.32,0,0,0-2.7,1.2V103h-5.13V86.24Z"/><path class="ac82d4c2-e4aa-4b0e-8914-60b293c72894" d="M175.77,103h-5.14V86.24h5.14V103Zm-5.39-21.14a2.82,2.82,0,1,1,2.82,2.82,2.82,2.82,0,0,1-2.82-2.82Z"/><path class="ac82d4c2-e4aa-4b0e-8914-60b293c72894" d="M181.31,90.52h-3.39V86.24h3.39V81.93l5.14-1.11v5.42h4.69v4.28h-4.69v6.37c0,1.49.57,2,2.22,2a7.25,7.25,0,0,0,2.31-.35v4.15a15,15,0,0,1-3.58.51c-4,0-6.09-1.81-6.09-5.32V90.52Z"/><path class="ac82d4c2-e4aa-4b0e-8914-60b293c72894" d="M99.31,77.63h2.93V73.28h2.24l2.25,4.35H110l-2.63-4.78a3.61,3.61,0,0,0,2.25-3.36c0-2.15-1.69-3.8-4.21-3.8H99.31V77.63Zm5.83-9.44a1.36,1.36,0,1,1,0,2.7h-2.9v-2.7Zm4.76,4.93a4.74,4.74,0,0,0,4.92,4.68,5.43,5.43,0,0,0,3.77-1.36l-1.83-1.63a2.4,2.4,0,0,1-1.81.69,2.32,2.32,0,0,1-2.21-1.44h6.43v-.68a4.64,4.64,0,1,0-9.27-.26m4.66-2.42a2,2,0,0,1,1.9,1.44h-3.77a1.87,1.87,0,0,1,1.87-1.44m12.53,6.93h2.73V65.09l-2.77.6v3.39a4.65,4.65,0,1,0-2.39,8.67,4,4,0,0,0,2.43-.79v.67Zm-4.32-4.52a2.28,2.28,0,0,1,2.37-2.29,2.8,2.8,0,0,1,1.91.7v3.16a2.63,2.63,0,0,1-1.91.71,2.29,2.29,0,0,1-2.37-2.28M134,77.63h2.94V73h4.91v4.68h2.94V65.69H141.8v4.59h-4.91V65.69H134V77.63Zm15,.15a4.16,4.16,0,0,0,2.49-.7v.55h2.73V71.85c0-2.21-1.48-3.42-3.95-3.42a10.13,10.13,0,0,0-4.22,1l1,2a7.45,7.45,0,0,1,2.73-.71c1.14,0,1.72.44,1.72,1.34v.45a8,8,0,0,0-2-.26c-2.32,0-3.72,1-3.72,2.71,0,1.59,1.26,2.8,3.27,2.8m-.84-2.85c0-.59.6-.88,1.5-.88a7,7,0,0,1,1.64.2v1.16a3.49,3.49,0,0,1-1.72.43c-.89,0-1.42-.34-1.42-.91m8.59-.05c0,1.93,1.16,2.87,3.28,2.87a8.62,8.62,0,0,0,1.92-.27V75.24a3.9,3.9,0,0,1-1.24.19c-.87,0-1.2-.27-1.2-1.09V70.91H162V68.6h-2.53V65.69l-2.76.59V68.6h-1.83v2.31h1.83v4Z"/><g class="b5f7574a-a372-4072-91b6-df1ccf126ee9"><image width="4928" height="3280" transform="translate(-68.67 176.55) scale(0.13)" xlink:href="DSC_4520.jpg"/></g></svg>