<svg id="bbcaded3-9e3d-4b39-97e2-bda77360df24" data-name="Layer 1" xmlns="http://www.w3.org/2000/svg" xmlns:xlink="http://www.w3.org/1999/xlink" width="262" height="180" viewBox="0 0 262 180"><defs><style>.ff2f98dd-67af-4a0a-97a0-cc99e10f2ac4{fill:none;}.e336c353-570c-49ed-be61-eac72b405cd5{fill:#e00;}.a5460ef7-6102-4e15-b03a-485c0e76f6bc{fill:#fff;}.f9d4caaf-80a2-489d-b839-1a587ae90e8b{clip-path:url(#b12517db-ec62-49ed-a836-d2db6ad0d0de);}</style><clipPath id="b12517db-ec62-49ed-a836-d2db6ad0d0de"><rect class="ff2f98dd-67af-4a0a-97a0-cc99e10f2ac4" x="-292" y="220" width="555" height="290"/></clipPath></defs><title>BrandStandards-Logo-Summit_Logos-ASSETS</title><polygon class="e336c353-570c-49ed-be61-eac72b405cd5" points="225.3 50.91 75.3 50.91 36.7 117.78 100.6 117.78 105.38 129.09 123.22 117.78 186.7 117.78 225.3 50.91 225.3 50.91"/><path class="a5460ef7-6102-4e15-b03a-485c0e76f6bc" d="M67.19,95.66a6,6,0,0,0,5.61,3.07c2.51,0,4.46-.79,5.24-2.16s.21-1.83-1.79-2.21l-4.39-.86c-3.25-.63-4-2.82-2.1-6.09,2.49-4.31,7.42-6.91,13.09-6.91,3.3,0,6.18,1.21,7.49,3.17l-5.21,4a6,6,0,0,0-5.29-2.63c-2.22,0-4,.73-4.7,1.93s-.19,1.65,1.49,2l4.16.76c3.88.7,4.87,2.88,2.89,6.31-2.6,4.5-7.92,7.29-13.94,7.29-3.58,0-6.47-1.37-7.88-3.71l5.33-4Z"/><path class="a5460ef7-6102-4e15-b03a-485c0e76f6bc" d="M91,95.88c-1.06,1.84-.55,3,1.29,3a6.54,6.54,0,0,0,3.78-1.33l6.55-11.35h5.13L98.1,103H93l.66-1.14a11.59,11.59,0,0,1-5.35,1.46c-3.93,0-5.07-2.79-2.79-6.76l6-10.33h5.13L91,95.88Z"/><path class="a5460ef7-6102-4e15-b03a-485c0e76f6bc" d="M111,86.24h5.14l-.62,1.08a10.59,10.59,0,0,1,5-1.4c2.09,0,3.34.86,3.64,2.32a12.41,12.41,0,0,1,6.79-2.32c3.8,0,4.88,2.79,2.6,6.76l-6,10.33h-5.14L128,93.37c1.06-1.84.68-3-1-3a6,6,0,0,0-3.49,1.27c-.17.35-.34.69-.56,1.08L117,103h-5.13l5.56-9.64c1.06-1.84.68-3-1-3a5.79,5.79,0,0,0-3.39,1.2L106.41,103h-5.14L111,86.24Z"/><path class="a5460ef7-6102-4e15-b03a-485c0e76f6bc" d="M140.25,86.24h5.13l-.62,1.08a10.59,10.59,0,0,1,5-1.4c2.09,0,3.34.86,3.64,2.32a12.41,12.41,0,0,1,6.79-2.32c3.8,0,4.88,2.79,2.6,6.76l-6,10.33h-5.14l5.57-9.64c1.06-1.84.68-3-1-3a6,6,0,0,0-3.49,1.27c-.17.35-.34.69-.56,1.08l-6,10.33h-5.13l5.56-9.64c1.06-1.84.68-3-1-3a5.82,5.82,0,0,0-3.39,1.2L135.7,103h-5.14l9.69-16.77Z"/><path class="a5460ef7-6102-4e15-b03a-485c0e76f6bc" d="M165,103h-5.14l9.69-16.77h5.13L165,103Zm6.82-21.14a5.83,5.83,0,0,1,4.45-2.82c1.55,0,2.09,1.26,1.19,2.82A5.89,5.89,0,0,1,173,84.69c-1.55,0-2.09-1.27-1.19-2.82Z"/><path class="a5460ef7-6102-4e15-b03a-485c0e76f6bc" d="M177.75,90.52h-3.39l2.47-4.28h3.39l2.49-4.31,5.77-1.11-3.13,5.42H190l-2.47,4.28h-4.69l-3.68,6.37c-.86,1.49-.6,2,1.05,2a9.28,9.28,0,0,0,2.52-.35l-2.4,4.15a18.9,18.9,0,0,1-3.88.51c-4,0-5-1.81-3-5.32l4.27-7.39Z"/><path class="a5460ef7-6102-4e15-b03a-485c0e76f6bc" d="M103.18,77.63h2.94l2.51-4.35h2.24l-.26,4.35h3.27l.13-4.78a8,8,0,0,0,4.2-3.36c1.24-2.15.5-3.8-2-3.8h-6.11l-6.9,11.94Zm11.29-9.44c1,0,1.16.62.74,1.35a2.76,2.76,0,0,1-2.3,1.35H110l1.56-2.7Zm1.91,4.93c-1.52,2.63-.55,4.68,2.22,4.68a8.91,8.91,0,0,0,4.56-1.36l-.89-1.63a4.07,4.07,0,0,1-2.21.69c-1,0-1.53-.57-1.39-1.44h6.44l.39-.68c1.65-2.87.92-4.93-1.71-4.93s-5.89,2-7.41,4.67m6.06-2.42c.87,0,1.28.57,1.07,1.44h-3.78a3.79,3.79,0,0,1,2.71-1.44M131,77.63h2.73l7.25-12.54-3.11.6-2,3.39a3,3,0,0,0-2-.6c-2.63,0-5.87,2-7.37,4.63s-.64,4.64,1.93,4.64a6.36,6.36,0,0,0,2.88-.79l-.39.67Zm-1.7-4.52A4.69,4.69,0,0,1,133,70.82a1.58,1.58,0,0,1,1.51.7l-1.83,3.16a4.35,4.35,0,0,1-2.32.71c-1.33,0-1.8-1-1.05-2.28m8.57,4.52h2.94l2.7-4.68h4.91l-2.7,4.68h2.93l6.9-11.94h-2.93l-2.65,4.59H145l2.65-4.59h-2.93l-6.9,11.94Zm14.91.15a6.33,6.33,0,0,0,2.9-.7l-.32.55h2.73l3.34-5.78c1.27-2.21.49-3.42-2-3.42a14.4,14.4,0,0,0-4.78,1l-.19,2a11,11,0,0,1,3.15-.71c1.14,0,1.46.44.94,1.34l-.25.45a6.47,6.47,0,0,0-1.9-.26A5.88,5.88,0,0,0,151.08,75c-.92,1.59-.35,2.8,1.66,2.8m.8-2.85a2.24,2.24,0,0,1,2-.88,5.6,5.6,0,0,1,1.52.2l-.67,1.16a5.09,5.09,0,0,1-2,.43c-.89,0-1.22-.34-.9-.91m8.62-.05c-1.11,1.93-.49,2.87,1.62,2.87a10.89,10.89,0,0,0,2.09-.27l1.29-2.24a5,5,0,0,1-1.35.19c-.87,0-1-.27-.57-1.09l2-3.43h2.53l1.33-2.31h-2.53l1.69-2.91-3.11.59-1.34,2.32H164l-1.33,2.31h1.83l-2.3,4Z"/><g class="f9d4caaf-80a2-489d-b839-1a587ae90e8b"><image width="4928" height="3280" transform="translate(-360.67 176.55) scale(0.13)" xlink:href="DSC_4520.jpg"/></g></svg>