<svg xmlns="http://www.w3.org/2000/svg" width="262" height="180" viewBox="0 0 262 180"><defs><style>.a{fill:#03b9e4;}.b{fill:#0678ab;}.c,.g{fill:none;}.c,.d{stroke:#dedede;}.c,.d,.g{stroke-miterlimit:10;}.d{fill:#dedede;}.e{fill:#fff;}.f{fill:#f3f3f3;}.g{stroke:#000;stroke-width:0.5px;}.h{fill:#e00;}</style></defs><path class="a" d="M92.66283,52.35688c4.07324,4.07326,3.46841,11.28345-1.35155,16.10339-4.82,4.82-12.03015,5.4248-16.1034,1.35157s-3.46843-11.28341,1.35155-16.10336c4.82-4.82,12.03013-5.42479,16.1034-1.3516"/><polygon points="103.741 60.318 101.69 55.508 103.886 55.508 105.157 58.498 107.497 55.508 109.897 55.508 106.009 60.492 108.219 65.621 106.025 65.621 104.594 62.312 102.022 65.621 99.624 65.621 103.741 60.318"/><polygon points="112.787 61.546 110.286 55.508 112.339 55.508 114.014 59.639 117.135 55.508 119.36 55.508 114.75 61.589 114.043 65.621 112.063 65.621 112.787 61.546"/><polygon points="118.652 64.133 124.763 57.356 120.155 57.356 120.471 55.507 127.725 55.507 127.465 56.996 121.31 63.771 126.281 63.771 125.949 65.62 118.393 65.62 118.652 64.133"/><path d="M131.5258,61.58967c0-3.19272,1.86448-6.25641,5.01188-6.25641a2.9594,2.9594,0,0,1,2.86243,1.79238l-1.05494.53386a2.05638,2.05638,0,0,0-1.92264-1.17008c-2.36928,0-3.62545,2.70192-3.62545,4.98511,0,1.55974.65019,3.14973,2.25413,3.14973a2.76717,2.76717,0,0,0,2.31229-1.28639l1.03865.49083a3.90759,3.90759,0,0,1-3.43817,1.96568c-2.38323,0-3.43818-2.08083-3.43818-4.20471"/><path d="M139.84757,62.731c0-2.25411,1.31431-4.66639,3.78479-4.66639,1.86448,0,2.674,1.45972,2.674,3.03338,0,2.26924-1.28642,4.69668-3.75688,4.69668-1.89239,0-2.70192-1.37365-2.70192-3.06367m5.22939-1.54579c0-1.03981-.41757-1.99354-1.51556-1.99354-1.633,0-2.48675,1.84932-2.48675,3.46724,0,1.098.449,1.99358,1.50276,1.99358,1.6621,0,2.49955-1.83424,2.49955-3.46728"/><path d="M148.73357,58.23779h1.19917l-.13027.70835a2.71736,2.71736,0,0,1,1.96568-.88164,1.7497,1.7497,0,0,1,1.71793,1.11194,2.88508,2.88508,0,0,1,2.29832-1.11194,1.98817,1.98817,0,0,1,2.09476,2.10872,3.00278,3.00278,0,0,1-.05815.60715l-.85256,4.83976h-1.24338L156.5346,61.07a3.8673,3.8673,0,0,0,.04421-.57808c0-.88161-.44781-1.30038-1.12707-1.30038a2.00527,2.00527,0,0,0-1.82027,1.86334l-.80838,4.56523h-1.24337l.79441-4.55011a2.81653,2.81653,0,0,0,.057-.57808c0-.88161-.44662-1.30038-1.13985-1.30038a2.01907,2.01907,0,0,0-1.8354,1.86334l-.80953,4.56523h-1.21314Z"/><path d="M160.63787,64.898l-.56178,3.16486-1.30039.49083L160.59482,58.238H161.808l-.114.65014a2.6963,2.6963,0,0,1,1.99243-.8235c1.41667,0,2.37044,1.19919,2.37044,3.06249,0,2.94738-1.72026,4.66647-3.51031,4.66647a2.24165,2.24165,0,0,1-1.90867-.89563m4.16165-3.64057c0-1.2422-.47688-2.06563-1.45858-2.06563a2.249,2.249,0,0,0-1.87843,1.02582l-.60833,3.43818a1.76954,1.76954,0,0,0,1.6191.99678c1.40154,0,2.32624-1.40154,2.32624-3.39515"/><path d="M171.35882,65.01429a3.16078,3.16078,0,0,1-2.08082.77927,2.0163,2.0163,0,0,1-2.16573-2.13779,2.78424,2.78424,0,0,1,3.09039-2.788,3.138,3.138,0,0,1,1.79122.51991l.10119-.5641a3.07332,3.07332,0,0,0,.07327-.57691,1.037,1.037,0,0,0-1.17008-1.1131,4.76135,4.76135,0,0,0-2.34136.78044l-.15821-1.02586a5.19012,5.19012,0,0,1,2.62867-.8235,1.99056,1.99056,0,0,1,2.21109,2.03663,4.7957,4.7957,0,0,1-.0733.73742l-.83745,4.78158h-1.17007Zm.23147-1.25736.21631-1.2864a2.78756,2.78756,0,0,0-1.61789-.549c-.98167,0-1.90636.47685-1.90636,1.61906a1.13593,1.13593,0,0,0,1.25736,1.184,3.03412,3.03412,0,0,0,2.05058-.96772"/><path d="M175.93882,58.23779h1.21427l-.13141.79446a2.53081,2.53081,0,0,1,1.96564-.96775c1.33063,0,2.08083.80958,2.08083,2.31112a6.16829,6.16829,0,0,1-.10116,1.12705l-.73629,4.11746h-1.21544l.76649-4.36287a3.98226,3.98226,0,0,0,.07326-.7223c0-.86648-.43382-1.3434-1.21426-1.3434a2.17092,2.17092,0,0,0-2.00874,2.00756l-.78044,4.421h-1.21313Z"/><path d="M184.36225,65.40392,183.01881,58.238h1.24224l.83745,5.08514c.04419.24541.08721.52107.10116.56409a3.50568,3.50568,0,0,1,.28964-.56409l2.688-5.08514h1.31429l-5.43175,10.18539h-1.28643Z"/><path class="b" d="M78.19187,65.0944l9.23051-10.1156a.31644.31644,0,0,1,.54551.26749L86.19645,65.36311a.31681.31681,0,0,1-.3117.2617h-7.4591a.31655.31655,0,0,1-.23378-.53041"/><rect class="c" x="16.05186" y="30.8017" width="229.89627" height="126.90274"/><path class="d" d="M17.42566,22.29556H244.57434a1.3738,1.3738,0,0,1,1.3738,1.3738V30.8017a0,0,0,0,1,0,0H16.05186a0,0,0,0,1,0,0V23.66936A1.3738,1.3738,0,0,1,17.42566,22.29556Z"/><circle class="e" cx="20.57502" cy="26.54863" r="1.56971"/><circle class="e" cx="25.34656" cy="26.54863" r="1.56971"/><circle class="e" cx="30.11811" cy="26.54863" r="1.56971"/><rect class="f" x="52.84237" y="88.37462" width="73.01788" height="31.66735"/><line class="g" x1="133.92609" y1="88.87462" x2="209.15763" y2="88.87462"/><line class="g" x1="133.92609" y1="93.87462" x2="209.15763" y2="93.87462"/><line class="g" x1="133.92609" y1="98.87462" x2="209.15763" y2="98.87462"/><line class="g" x1="133.92609" y1="103.87462" x2="209.15763" y2="103.87462"/><line class="g" x1="133.92609" y1="108.87462" x2="209.15763" y2="108.87462"/><line class="g" x1="133.92609" y1="113.87462" x2="187.37885" y2="113.87462"/><path d="M145.273,136.8212h1.82157a1.22571,1.22571,0,0,1,1.25783,1.21085,1.14907,1.14907,0,0,1-.67849,1.03867l.79331,1.404h-1.00211l-.68374-1.27874h-.61066v1.27874H145.273Zm.89771.76723v.86639h.81946a.4384.4384,0,0,0,.4541-.42277.44886.44886,0,0,0-.4541-.44362Z"/><path d="M149.89232,140.52687a1.44952,1.44952,0,0,1-1.50313-1.43006,1.41816,1.41816,0,0,1,1.44048-1.43013,1.401,1.401,0,0,1,1.39356,1.48754v.22964h-1.96766a.71348.71348,0,0,0,.6785.43843.74775.74775,0,0,0,.55325-.2088l.5585.49585A1.65678,1.65678,0,0,1,149.89232,140.52687Zm-.642-1.73277h1.14826a.61713.61713,0,0,0-.57934-.4332A.57427.57427,0,0,0,149.25033,138.7941Z"/><path d="M153.61378,140.27115a1.25,1.25,0,0,1-.74108.2453,1.42236,1.42236,0,1,1,.73066-2.65663V136.8212l.84554-.261v3.91446h-.83512Zm-.60542-.47494a.83764.83764,0,0,0,.595-.21922v-.96561a.89253.89253,0,0,0-.595-.214.69987.69987,0,1,0,0,1.3988Z"/><path d="M157.91988,139.04458h-1.3988v1.43012h-.89771v-3.6535h.89771v1.404h1.3988v-1.404h.89771v3.6535h-.89771Z"/><path d="M160.7855,140.30772a1.22768,1.22768,0,0,1-.74115.214.92927.92927,0,0,1-1.02819-.882c0-.48542.39144-.85079,1.07512-.85079a1.47946,1.47946,0,0,1,.69422.15657v-.167c0-.2662-.17747-.40193-.52193-.40193a2.135,2.135,0,0,0-.82988.19838l-.25055-.63157a2.9032,2.9032,0,0,1,1.13784-.28181c.84548,0,1.31.37055,1.31,1.04386v1.76934h-.84548Zm-.51675-.37585a.97238.97238,0,0,0,.51675-.1409v-.287a1.0984,1.0984,0,0,0-.54284-.14615c-.261,0-.42277.10958-.42277.28187C159.81989,139.82229,159.99212,139.93187,160.26875,139.93187Z"/><path d="M163.27527,140.51645c-.57934,0-.903-.27663-.903-.85072v-1.24742h-.58459v-.70464h.58459v-.6315l.84554-.261v.89247h.77247v.70464h-.77247v1.05428c0,.23488.12524.32362.381.32362a.91327.91327,0,0,0,.37054-.08356l-.11482.68374A1.47162,1.47162,0,0,1,163.27527,140.51645Z"/><path class="h" d="M140.33411,139.16845c.622,0,1.52285-.12869,1.52285-.86867a.70342.70342,0,0,0-.01545-.1702l-.37062-1.61c-.0858-.3539-.16087-.51476-.78288-.82577a7.26081,7.26081,0,0,0-1.84459-.65419c-.28955,0-.37535.37536-.71853.37536-.33245,0-.57911-.27884-.89012-.27884-.30028,0-.49332.20377-.64346.622,0,0-.41825,1.17967-.47187,1.35126a.30969.30969,0,0,0-.011.09652C136.10847,137.66432,137.91394,139.16845,140.33411,139.16845Zm1.61937-.56839a2.485,2.485,0,0,1,.0858.504c0,.69708-.78288,1.08316-1.81242,1.08316-2.32718,0-4.3648-1.362-4.3648-2.26284a.91719.91719,0,0,1,.07507-.36463c-.8365.0429-1.91966.193-1.91966,1.14751,0,1.56575,3.71062,3.49613,6.64909,3.49613,2.25211,0,2.8205-1.01881,2.8205-1.82314A2.21183,2.21183,0,0,0,141.95348,138.60006Z"/><path d="M141.95348,138.60006a2.485,2.485,0,0,1,.0858.504c0,.69708-.78288,1.08316-1.81242,1.08316-2.32718,0-4.3648-1.362-4.3648-2.26284a.91719.91719,0,0,1,.07507-.36463l.18231-.45042a.30969.30969,0,0,0-.011.09652c0,.45842,1.80547,1.96255,4.22564,1.96255.622,0,1.52285-.12869,1.52285-.86867a.70342.70342,0,0,0-.01545-.1702Z"/><path d="M98.34819,139.4703a1.78716,1.78716,0,0,0,1.27477.58183c.53422,0,.8992-.25389.8992-.6189,0-.32793-.21158-.4919-.75109-.58183l-.61888-.10047c-.67705-.11106-1.01028-.42845-1.01028-.96272,0-.64528.53952-1.06319,1.36467-1.06319a2.48407,2.48407,0,0,1,1.49165.50254l-.3068.42316a1.9669,1.9669,0,0,0-1.2113-.45493c-.48134,0-.804.22217-.804.55015,0,.30151.18515.4443.66119.52363l.59772.09523c.78284.12694,1.13723.44958,1.13723,1.02617,0,.6823-.59242,1.13723-1.47576,1.13723a2.2304,2.2304,0,0,1-1.58684-.66647Z"/><path d="M102.04007,139.38037a.63075.63075,0,0,0,.66646.68765.75646.75646,0,0,0,.66119-.35441V137.783h.52895v2.69232h-.52895v-.26978a1.1,1.1,0,0,1-.8093.32269,1.00521,1.00521,0,0,1-1.0473-1.0579V137.783h.52895Z"/><path d="M104.52062,137.783h.52367v.25914a1.22851,1.22851,0,0,1,.82514-.30151,1.38852,1.38852,0,1,1-.81987,2.51252v1.31708h-.52894Zm.52894.7405v1.21661a.99832.99832,0,0,0,.75112.31735.92849.92849,0,0,0,0-1.8566A.9657.9657,0,0,0,105.04956,138.52347Z"/><path d="M107.73115,137.783h.52365v.25914a1.22858,1.22858,0,0,1,.82519-.30151,1.38852,1.38852,0,1,1-.81989,2.51252v1.31708h-.52895Zm.52895.7405v1.21661a.99828.99828,0,0,0,.75112.31735.92849.92849,0,0,0,0-1.8566A.9657.9657,0,0,0,108.2601,138.52347Z"/><path d="M112.23232,137.73006a1.39907,1.39907,0,1,1-1.40172,1.39642A1.38179,1.38179,0,0,1,112.23232,137.73006Zm.878,1.39642a.88235.88235,0,1,0-.878.93624A.89859.89859,0,0,0,113.11036,139.12648Z"/><path d="M114.13109,137.783H114.66v.34377a.84274.84274,0,0,1,.74052-.402.67213.67213,0,0,1,.26976.04232v.47606a.906.906,0,0,0-.31207-.0582.735.735,0,0,0-.69821.49195v1.7984h-.52895Z"/><path d="M116.46358,138.22726h-.57126V137.783h.57126v-.68765l.52365-.12695v.8146h.79344v.44429h-.79344v1.45987c0,.27507.11109.37559.39671.37559a1.039,1.039,0,0,0,.38614-.0635v.44434a1.75142,1.75142,0,0,1-.5025.07934c-.52367,0-.804-.2486-.804-.71407Z"/><path d="M119.40446,140.5229a1.38546,1.38546,0,0,1-1.41229-1.39642,1.35287,1.35287,0,0,1,1.34881-1.38588,1.33331,1.33331,0,0,1,1.30123,1.40706v.15338h-2.12638a.90812.90812,0,0,0,.90979.77223,1.047,1.047,0,0,0,.68234-.238l.33853.33323A1.6059,1.6059,0,0,1,119.40446,140.5229Zm-.88334-1.61859h1.59741a.80307.80307,0,0,0-1.59741,0Z"/><path d="M123.218,140.22139a1.27181,1.27181,0,0,1-.82516.29622,1.38852,1.38852,0,1,1,.81986-2.51252v-1.23246l.529-.11635v3.819H123.218Zm-.75112-.164a.97026.97026,0,0,0,.74582-.32269v-1.22186a.98437.98437,0,0,0-.74582-.31735.93109.93109,0,0,0,0,1.8619Z"/><path d="M126.80936,140.51761a1.34542,1.34542,0,0,1-.81457-.26974v.22742h-.52368v-3.70266l.529-.11635v1.38058a1.24715,1.24715,0,0,1,.81986-.29626,1.38872,1.38872,0,0,1-.01056,2.777Zm-.8093-1.99414v1.21661a.99828.99828,0,0,0,.75112.31735.92849.92849,0,0,0,0-1.8566A.9657.9657,0,0,0,126.00006,138.52347Z"/><path d="M129.35348,140.48588l-1.07376-2.70291h.58186l.78811,2.05758.8675-2.05758h.57124l-1.3012,3.015c-.2486.57658-.53424.804-1.03144.804a1.02115,1.02115,0,0,1-.28035-.03178v-.46547a1.04483,1.04483,0,0,0,.238.02113.558.558,0,0,0,.53424-.39668Z"/></svg>