<svg xmlns="http://www.w3.org/2000/svg" xmlns:xlink="http://www.w3.org/1999/xlink" width="360" height="180" viewBox="0 0 360 180"><defs><style>.a{fill:none;}.b{fill:#e00;}.c{fill:url(#a);}</style><pattern id="a" width="30" height="30" patternTransform="translate(21.9167 20.566) scale(0.2603)" patternUnits="userSpaceOnUse" viewBox="0 0 30 30"><rect class="a" width="30" height="30"/><circle class="b" cx="29.9999" cy="30" r="3"/><circle class="b" cx="-0.0001" cy="30" r="3"/><circle class="b" cx="29.9999" cy="30" r="3"/><circle class="b" cx="-0.0001" cy="30" r="3"/><circle class="b" cx="29.9999" r="3"/><circle class="b" cx="29.9999" cy="30" r="3"/><circle class="b" cx="-0.0001" r="3"/><circle class="b" cx="-0.0001" cy="30" r="3"/><circle class="b" cx="29.9999" r="3"/><circle class="b" cx="29.9999" cy="30" r="3"/><circle class="b" cx="14.9999" cy="15" r="3"/><circle class="b" cx="-0.0001" r="3"/><circle class="b" cx="-0.0001" cy="30" r="3"/><circle class="b" cx="29.9999" r="3"/><circle class="b" cx="-0.0001" r="3"/><circle class="b" cx="29.9999" r="3"/><circle class="b" cx="-0.0001" r="3"/></pattern></defs><polygon class="b" points="303.625 73.984 267.175 98.613 230.231 41.967 264.681 18.118 303.625 73.984"/><path class="b" d="M267.1749,99.2313a.6177.6177,0,0,1-.5177-.28L229.7137,42.3047a.6179.6179,0,0,1,.1658-.8459L264.3289,17.61a.6183.6183,0,0,1,.8588.1548L304.132,73.631a.6178.6178,0,0,1-.1611.8656l-36.45,24.6287A.6166.6166,0,0,1,267.1749,99.2313ZM231.0776,42.133,267.35,97.7493l35.41-23.9259L264.5259,18.977Z"/><polyline class="c" points="97.458 18.296 130.665 41.683 91.273 98.613 56.375 74.466"/><path class="b" d="M91.2728,99.2312a.6148.6148,0,0,1-.3513-.11L56.0233,74.9744a.6181.6181,0,0,1,.7036-1.0165l34.39,23.7951,38.6912-55.9174L97.1018,18.8011a.6181.6181,0,1,1,.7118-1.0107l33.2073,23.3874a.6182.6182,0,0,1,.1524.8571l-39.3917,56.93A.617.617,0,0,1,91.2728,99.2312Z"/><path class="b" d="M248.5962,127.4523a16.2685,16.2685,0,0,1-8.6308-2.903L202.1079,99.1264A.6181.6181,0,0,1,202.797,98.1l37.8674,25.43.02.0143c.0454.0332,4.6509,3.342,9.4744,2.5465a9.807,9.807,0,0,0,6.4481-4.3789c1.98-2.8109,2.73-5.52,2.23-8.051a10.0165,10.0165,0,0,0-4.0328-5.8893L211.4652,78.55c-8.25-.5674-15.3036-4.845-19.78-8.3468a51.34,51.34,0,0,1-7.6058-7.2817,93.0959,93.0959,0,0,1-20.3486,2.4159,2.5245,2.5245,0,0,0-2.4445,2.1382c-1.1189,6.5522-7.064,14.1953-12.1655,17.7992-2.6118,1.8448-4.9865,2.6478-6.8669,2.3219a7.5885,7.5885,0,0,1-5.4043-3.4222c-3.2485-5.1707-.5464-14.6667.9052-19.7683l.2236-.7884c2.1973-7.8028,5.5093-9.4343,5.935-9.6148l18.662-9.39a15.3167,15.3167,0,0,1,6.4358-1.6192l61.2037-1.6448a.6181.6181,0,1,1,.0333,1.2357L169.0443,44.23a14.0709,14.0709,0,0,0-5.913,1.4878l-18.6828,9.4a.6588.6588,0,0,1-.0616.0268c-1.0636.4294-3.5342,2.8272-5.2186,8.8084l-.2245.7915c-1.399,4.9165-4.0029,14.068-1.0472,18.7724a6.3213,6.3213,0,0,0,4.5683,2.8617c1.5509.27,3.6052-.462,5.9427-2.1135,5.4914-3.8795,10.722-11.5046,11.66-16.9975a3.759,3.759,0,0,1,3.6556-3.1665,91.642,91.642,0,0,0,20.444-2.4725.62.62,0,0,1,.6326.219c.114.145,11.5739,14.521,26.9111,15.48a.6181.6181,0,0,1,.3069.1044l43.4643,29.3056a11.1545,11.1545,0,0,1,4.5681,6.6835c.5681,2.8759-.25,5.9048-2.4322,9.0027a10.9938,10.9938,0,0,1-7.2663,4.8881A10.8367,10.8367,0,0,1,248.5962,127.4523Z"/><path class="b" d="M226.9152,137.5529c-9.3832.0013-23.1343-11.0995-31.3058-17.6953-2.2815-1.8416-4.0835-3.2961-5-3.8458a.618.618,0,1,1,.636-1.06,63.99,63.99,0,0,1,5.14,3.9438c7.5015,6.0549,21.5564,17.3993,30.5327,17.4a7.0226,7.0226,0,0,0,5.376-2.1381c2.6767-2.8611,3.8321-5.7207,3.4339-8.499-.6845-4.7756-5.76-7.8272-5.811-7.8574a.6182.6182,0,0,1,.6277-1.0651c.23.1353,5.632,3.3732,6.4058,8.7393.4573,3.17-.8055,6.3756-3.7536,9.5268A8.216,8.216,0,0,1,226.9152,137.5529Z"/><path class="b" d="M204.3389,148.4752a14.09,14.09,0,0,1-4.3406-.7481c-5.6059-1.8175-12.5759-7.1411-20.7161-15.8227a.618.618,0,1,1,.9016-.8456c7.996,8.5276,14.7908,13.74,20.1957,15.4923,4.0917,1.3263,7.4318.7091,10.2124-1.8863,4.5743-4.2688,1.3652-12.8763,1.3321-12.9627a.6182.6182,0,0,1,1.1549-.4413,21.362,21.362,0,0,1,1.1469,5.2562c.3383,3.9024-.6266,7.0324-2.79,9.0516A10.0766,10.0766,0,0,1,204.3389,148.4752Z"/><path class="b" d="M180.3914,158.3359a15.6819,15.6819,0,0,1-7.9272-2.5048l-1.0921-.7351a.6181.6181,0,1,1,.6906-1.0254l1.1.7408a15.1446,15.1446,0,0,0,4.48,1.956,8.8541,8.8541,0,0,0,8.5412-1.902,9.5946,9.5946,0,0,0,2.9375-10.66A17.3611,17.3611,0,0,0,186.13,138.66a.6182.6182,0,0,1,.9366-.8071c.0867.1006,8.5692,10.1413-.0538,17.93A9.6034,9.6034,0,0,1,180.3914,158.3359Z"/><path class="b" d="M164.4412,162.5a5.2487,5.2487,0,0,1-2.8651-.8488l-9.3344-6.0536a4.7075,4.7075,0,0,1-1.3858-6.5032l5.108-7.8755a10.44,10.44,0,0,1,14.4-3.07l0,0,.2386.1549a10.4393,10.4393,0,0,1,3.07,14.4l-4.7926,7.3905A5.2822,5.2822,0,0,1,164.4412,162.5Zm.2941-24.7845a9.3276,9.3276,0,0,0-1.9467.2066,9.1076,9.1076,0,0,0-5.7874,3.97l-5.108,7.8755a3.47,3.47,0,0,0,1.0211,4.7934l9.3345,6.0535a4.05,4.05,0,0,0,5.5945-1.1922l4.7924-7.3906a9.2032,9.2032,0,0,0-2.7055-12.69l-.2386-.1549A9.0767,9.0767,0,0,0,164.7353,137.7155Z"/><path class="b" d="M146.9864,153.1209a4.63,4.63,0,0,1-2.528-.75l-8.83-5.727a5.4552,5.4552,0,0,1-1.6069-7.536L146.19,120.3449a10.3539,10.3539,0,0,1,14.2806-3.0442h0a10.337,10.337,0,0,1,3.0441,14.2808l-12.589,19.4106a4.6418,4.6418,0,0,1-2.9491,2.0238A4.7459,4.7459,0,0,1,146.9864,153.1209Zm7.9018-36.24a9.2336,9.2336,0,0,0-1.9282.2047,9.0226,9.0226,0,0,0-5.7329,3.9316L135.0583,139.78a4.2172,4.2172,0,0,0,1.2423,5.8262l8.83,5.7268a3.4511,3.4511,0,0,0,4.7572-1.0138l12.589-19.4106a9.0991,9.0991,0,0,0-2.68-12.5709A8.9909,8.9909,0,0,0,154.8882,116.8813Z"/><path class="b" d="M130.7155,142.0293a5.0916,5.0916,0,0,1-2.7785-.8228l-8.7793-5.6938a5.0778,5.0778,0,0,1-1.4931-7.0058l10.0361-15.4744a9.7179,9.7179,0,0,1,13.4041-2.8575l0,0,1.0629.69a9.7169,9.7169,0,0,1,2.8574,13.404L135.02,139.697A5.1214,5.1214,0,0,1,130.7155,142.0293Zm5.1492-32.172a8.6047,8.6047,0,0,0-1.7937.19,8.3934,8.3934,0,0,0-5.3331,3.6577L118.7019,129.18a3.841,3.841,0,0,0,1.1285,5.2958l8.7793,5.6937a3.8891,3.8891,0,0,0,5.3727-1.145l10.0056-15.4278a8.4806,8.4806,0,0,0-2.493-11.6941l-1.0631-.69A8.3657,8.3657,0,0,0,135.8647,109.8573Z"/><path class="b" d="M116.8318,126.8779a5.8491,5.8491,0,0,1-3.1925-.95l-8-5.1895a5.954,5.954,0,0,1-1.7537-8.2251l2.5793-3.9763a10.6858,10.6858,0,1,1,17.93,11.63l-2.61,4.0244a5.8509,5.8509,0,0,1-3.7131,2.5554A5.9328,5.9328,0,0,1,116.8318,126.8779Zm-1.3833-21.9789a9.536,9.536,0,0,0-1.9889.2108,9.387,9.387,0,0,0-5.9578,4.1l-2.5793,3.9762a4.7163,4.7163,0,0,0,1.3891,6.5154l8,5.1893a4.6526,4.6526,0,0,0,6.4355-1.3723l2.61-4.0244a9.46,9.46,0,0,0-2.7859-13.07h0A9.3854,9.3854,0,0,0,115.4485,104.899Z"/><path class="b" d="M110.9937,104.9014a.6182.6182,0,0,1-.6179-.6063c-.1415-7.3751-10.5847-17.93-10.69-18.0359a.618.618,0,1,1,.875-.8731A64.252,64.252,0,0,1,106,91.7928c3.66,4.9505,5.548,9.1489,5.6119,12.4787a.618.618,0,0,1-.6063.63Z"/><path class="b" d="M169.0281,44.23l-.0317-.0008-38.3625-1.9285a.6182.6182,0,0,1,.0622-1.2348l38.3626,1.9285a.6182.6182,0,0,1-.0306,1.2356Z"/><polygon class="b" points="211.672 77.944 262.011 90.696 248.609 102.848 211.672 77.944"/><path class="b" d="M56.3754,74.4659s39.7573,20.131,74.29-32.7823L91.2728,98.6129Z"/><path class="c" d="M150.3906,83.5077a46.3154,46.3154,0,0,1,26.923-9.5187c13.4709-.2885,78.5827,49.5834,78.5827,49.5834s7.9582-8.8421-.76-16.3226-43.4644-29.3055-43.4644-29.3055-13.6426.452-27.3588-15.7151c0,0-19.4063,2.8328-20.5858,2.49-3.7731-1.0963-2.7664,9.2419-11.7073,17.51"/></svg>