<svg xmlns="http://www.w3.org/2000/svg" width="262" height="180" viewBox="0 0 262 180"><defs><style>.a{fill:#03b9e4;}.b{fill:#0678ab;}.c,.g{fill:none;}.c,.d{stroke:#dedede;}.c,.d,.g{stroke-miterlimit:10;}.d{fill:#dedede;}.e{fill:#fff;}.f{fill:#f3f3f3;}.g{stroke:#000;stroke-width:0.5px;}.h{fill:#e00;}</style></defs><path class="a" d="M114.88593,136.28068c1.71209,1.7121,1.45786,4.74272-.56809,6.76866s-5.05657,2.28018-6.76866.5681-1.45786-4.7427.56809-6.76865,5.05657-2.28017,6.76866-.56811"/><polygon points="119.542 139.627 118.68 137.605 119.603 137.605 120.137 138.862 121.121 137.605 122.13 137.605 120.496 139.7 121.425 141.856 120.502 141.856 119.901 140.465 118.82 141.856 117.812 141.856 119.542 139.627"/><polygon points="123.344 140.143 122.293 137.605 123.156 137.605 123.86 139.342 125.172 137.605 126.108 137.605 124.17 140.161 123.872 141.856 123.04 141.856 123.344 140.143"/><polygon points="125.81 141.23 128.379 138.382 126.442 138.382 126.575 137.605 129.623 137.605 129.514 138.23 126.927 141.078 129.017 141.078 128.877 141.856 125.701 141.856 125.81 141.23"/><path d="M131.221,140.16146a2.36962,2.36962,0,0,1,2.10661-2.62973,1.24393,1.24393,0,0,1,1.20316.75338l-.44342.22439a.86437.86437,0,0,0-.80814-.49181c-.99586,0-1.52386,1.13569-1.52386,2.09537,0,.6556.27329,1.32391.94746,1.32391a1.16312,1.16312,0,0,0,.97192-.5407l.43657.20631a1.64247,1.64247,0,0,1-1.44515.82622c-1.00173,0-1.44515-.87462-1.44515-1.76734"/><path d="M134.71885,140.64117a1.77745,1.77745,0,0,1,1.59084-1.9614,1.13141,1.13141,0,0,1,1.124,1.275,1.77726,1.77726,0,0,1-1.57911,1.97413c-.79542,0-1.13569-.57738-1.13569-1.28773m2.198-.64974c0-.43706-.17552-.83793-.637-.83793-.68639,0-1.04524.77731-1.04524,1.45737,0,.46151.18871.838.63164.838.69863,0,1.05063-.771,1.05063-1.45739"/><path d="M138.45386,138.75258h.504l-.05475.29773a1.14217,1.14217,0,0,1,.82622-.37057.73544.73544,0,0,1,.72209.46737,1.21268,1.21268,0,0,1,.966-.46737.83567.83567,0,0,1,.88048.88635,1.26213,1.26213,0,0,1-.02444.2552l-.35836,2.03427h-.52262l.34027-1.91253a1.62548,1.62548,0,0,0,.01858-.243c0-.37056-.18823-.54658-.47374-.54658a.84287.84287,0,0,0-.7651.78321l-.33978,1.91888h-.52262l.33391-1.91253a1.18357,1.18357,0,0,0,.02395-.243c0-.37056-.18773-.54658-.47911-.54658a.84867.84867,0,0,0-.77146.78321l-.34027,1.91888h-.50991Z"/><path d="M143.45754,141.552l-.23614,1.33026-.54658.20631.76462-4.33592h.50991l-.04791.27326a1.13335,1.13335,0,0,1,.83747-.34613c.59546,0,.99635.504.99635,1.28724,0,1.23885-.72306,1.96143-1.47546,1.96143a.94222.94222,0,0,1-.80226-.37645m1.74924-1.53023c0-.52213-.20045-.86823-.61308-.86823a.94529.94529,0,0,0-.78955.43118l-.25569,1.44515a.74377.74377,0,0,0,.68054.419c.58911,0,.97778-.5891.97778-1.42707"/><path d="M147.96382,141.60091a1.32858,1.32858,0,0,1-.87462.32754.8475.8475,0,0,1-.91031-.89856,1.17028,1.17028,0,0,1,1.299-1.17187,1.319,1.319,0,0,1,.7529.21853l.04253-.23711a1.29159,1.29159,0,0,0,.0308-.24248.43587.43587,0,0,0-.49182-.46787,2.00127,2.00127,0,0,0-.98413.328l-.0665-.4312a2.18161,2.18161,0,0,1,1.1049-.34613.83667.83667,0,0,1,.92937.856,2.01528,2.01528,0,0,1-.03081.31l-.352,2.00982h-.49181Zm.09729-.5285.09092-.54071a1.1717,1.1717,0,0,0-.68-.23074c-.41262,0-.80129.20043-.80129.68053a.47745.47745,0,0,0,.5285.49767,1.27533,1.27533,0,0,0,.86191-.40675"/><path d="M149.8889,138.75258h.51039l-.05523.33393a1.06375,1.06375,0,0,1,.82621-.40677c.55929,0,.87462.34029.87462.97142a2.59292,2.59292,0,0,1-.04252.47373l-.30948,1.73067H151.182l.32217-1.83383a1.67306,1.67306,0,0,0,.0308-.3036c0-.3642-.18235-.56466-.51039-.56466a.9125.9125,0,0,0-.84432.84383l-.328,1.85826h-.50991Z"/><path d="M153.42948,141.76468l-.56468-3.012h.52214l.352,2.1374c.01858.10316.03666.219.04252.23711a1.47378,1.47378,0,0,1,.12175-.23711l1.12982-2.1374h.55243l-2.2831,4.28117h-.54072Z"/><path class="b" d="M108.80343,141.63458l3.87981-4.25184a.133.133,0,0,1,.2293.11243l-.74459,4.25235a.13317.13317,0,0,1-.131.11h-3.13525a.13306.13306,0,0,1-.09826-.22295"/><rect class="c" x="16.05186" y="30.8017" width="229.89627" height="126.90274"/><path class="d" d="M17.42566,22.29556H244.57434a1.3738,1.3738,0,0,1,1.3738,1.3738V30.8017a0,0,0,0,1,0,0H16.05186a0,0,0,0,1,0,0V23.66936A1.3738,1.3738,0,0,1,17.42566,22.29556Z"/><circle class="e" cx="20.57502" cy="26.54863" r="1.56971"/><circle class="e" cx="25.34656" cy="26.54863" r="1.56971"/><circle class="e" cx="30.11811" cy="26.54863" r="1.56971"/><rect class="f" x="52.84237" y="88.37462" width="73.01788" height="31.66735"/><line class="g" x1="133.92609" y1="88.87462" x2="209.15763" y2="88.87462"/><line class="g" x1="133.92609" y1="93.87462" x2="209.15763" y2="93.87462"/><line class="g" x1="133.92609" y1="98.87462" x2="209.15763" y2="98.87462"/><line class="g" x1="133.92609" y1="103.87462" x2="209.15763" y2="103.87462"/><line class="g" x1="133.92609" y1="108.87462" x2="209.15763" y2="108.87462"/><line class="g" x1="133.92609" y1="113.87462" x2="187.37885" y2="113.87462"/><path d="M164.81433,55.95531h4.3155a2.90385,2.90385,0,0,1,2.97994,2.86862,2.72225,2.72225,0,0,1-1.60743,2.46074l1.87945,3.32617h-2.37411l-1.61985-3.02946H166.9411v3.02946h-2.12677ZM166.9411,57.773v2.05256h1.94139a1.03861,1.03861,0,0,0,1.07581-1.00159,1.06339,1.06339,0,0,0-1.07581-1.051Z"/><path d="M175.75793,64.73443a3.43407,3.43407,0,0,1-3.56108-3.388,3.35977,3.35977,0,0,1,3.41266-3.38812,3.319,3.319,0,0,1,3.30148,3.52413v.544h-4.66158a1.69028,1.69028,0,0,0,1.60743,1.0387,1.77158,1.77158,0,0,0,1.31072-.49466l1.32313,1.17471A3.92505,3.92505,0,0,1,175.75793,64.73443ZM174.237,60.62931h2.72034a1.462,1.462,0,0,0-1.37251-1.02628A1.3605,1.3605,0,0,0,174.237,60.62931Z"/><path d="M184.57446,64.1286a2.96117,2.96117,0,0,1-1.7557.58115,3.36973,3.36973,0,1,1,1.731-6.29385V55.95531l2.00318-.61825v9.27378h-1.9785Zm-1.43431-1.12518a1.98444,1.98444,0,0,0,1.40963-.51935V60.19644a2.11455,2.11455,0,0,0-1.40963-.50693,1.65807,1.65807,0,1,0,0,3.31391Z"/><path d="M194.77608,61.22273h-3.31391v3.38811H189.3354V55.95531h2.12677v3.32617h3.31391V55.95531h2.12677v8.65553h-2.12677Z"/><path d="M201.565,64.21523a2.90836,2.90836,0,0,1-1.75585.50694,2.20153,2.20153,0,0,1-2.4359-2.08967c0-1.15.92737-2.01561,2.54707-2.01561a3.505,3.505,0,0,1,1.64468.37092V60.5922c0-.63067-.42044-.95221-1.2365-.95221a5.058,5.058,0,0,0-1.96608.47l-.59356-1.49625a6.87784,6.87784,0,0,1,2.69565-.66763c2.003,0,3.10353.87785,3.10353,2.473v4.19175h-2.003Zm-1.22423-.89042A2.3035,2.3035,0,0,0,201.565,62.991V62.311a2.60228,2.60228,0,0,0-1.286-.34623c-.61825,0-1.00159.2596-1.00159.66778C199.27741,63.06521,199.68544,63.32481,200.3408,63.32481Z"/><path d="M207.46357,64.70975c-1.37252,0-2.1392-.65536-2.1392-2.01546V59.739h-1.38493V58.06967h1.38493V56.57356l2.00319-.61825v2.11436h1.83007V59.739h-1.83007v2.4977c0,.55645.2967.76668.90269.76668a2.16361,2.16361,0,0,0,.87785-.198l-.272,1.61985A3.48618,3.48618,0,0,1,207.46357,64.70975Z"/><path class="h" d="M153.1135,61.5162c1.47361,0,3.6078-.30488,3.6078-2.058a1.66651,1.66651,0,0,0-.03659-.40324l-.87806-3.81434c-.20326-.83843-.38111-1.21954-1.85472-1.95635a17.20154,17.20154,0,0,0-4.37-1.54983c-.686,0-.88925.88925-1.70227.88925-.78762,0-1.372-.66059-2.10879-.66059-.7114,0-1.16873.48274-1.52443,1.47362,0,0-.99088,2.79478-1.11791,3.20129a.73327.73327,0,0,0-.026.22866C143.10251,57.95275,147.37986,61.5162,153.1135,61.5162ZM156.95,60.16963a5.88733,5.88733,0,0,1,.20326,1.19413c0,1.65146-1.85472,2.56612-4.2938,2.56612-5.51334,0-10.34069-3.2267-10.34069-5.3609a2.173,2.173,0,0,1,.17785-.86384c-1.98176.10163-4.54787.45733-4.54787,2.71856,0,3.70943,8.79085,8.28271,15.7524,8.28271,5.33549,0,6.68206-2.41367,6.68206-4.31921C160.58318,62.88819,159.28742,61.18591,156.95,60.16963Z"/><path d="M156.95,60.16963a5.88733,5.88733,0,0,1,.20326,1.19413c0,1.65146-1.85472,2.56612-4.2938,2.56612-5.51334,0-10.34069-3.2267-10.34069-5.3609a2.173,2.173,0,0,1,.17785-.86384l.43192-1.0671a.73327.73327,0,0,0-.026.22866c0,1.08605,4.27735,4.6495,10.011,4.6495,1.47361,0,3.6078-.30488,3.6078-2.058a1.66651,1.66651,0,0,0-.03659-.40324Z"/><path d="M53.64438,62.23131a4.23388,4.23388,0,0,0,3.02006,1.37842c1.26563,0,2.1303-.6015,2.1303-1.46624,0-.77691-.50125-1.16537-1.77942-1.37842l-1.46618-.238c-1.604-.26311-2.39347-1.01505-2.39347-2.28079,0-1.52873,1.27817-2.51881,3.23306-2.51881A5.88481,5.88481,0,0,1,59.92259,56.918l-.72685,1.0025a4.65977,4.65977,0,0,0-2.86969-1.07778c-1.14033,0-1.90476.52635-1.90476,1.30338,0,.7143.43864,1.05257,1.56643,1.24053l1.41606.22559c1.85464.30075,2.69422,1.06512,2.69422,2.43111,0,1.61644-1.40351,2.69422-3.49623,2.69422a5.28408,5.28408,0,0,1-3.7594-1.57892Z"/><path d="M62.39082,62.01826a1.49432,1.49432,0,0,0,1.57892,1.62911,1.79209,1.79209,0,0,0,1.56643-.83965V58.23383H66.7893v6.37841H65.53617v-.63915a2.606,2.606,0,0,1-1.91731.76449,2.38146,2.38146,0,0,1-2.48118-2.50627V58.23383h1.25314Z"/><path d="M68.26751,58.23383h1.24064v.61394a2.91051,2.91051,0,0,1,1.95483-.7143,3.28953,3.28953,0,1,1-1.94234,5.95242v3.12032H68.26751Zm1.25313,1.75433v2.88229a2.3651,2.3651,0,0,0,1.77948.75183,2.19969,2.19969,0,0,0,0-4.39849A2.28786,2.28786,0,0,0,69.52064,59.98816Z"/><path d="M75.87361,58.23383H77.1142v.61394a2.91066,2.91066,0,0,1,1.95494-.7143,3.28953,3.28953,0,1,1-1.9424,5.95242v3.12032H75.87361Zm1.25313,1.75433v2.88229a2.3651,2.3651,0,0,0,1.77948.75183,2.19969,2.19969,0,0,0,0-4.39849A2.28786,2.28786,0,0,0,77.12674,59.98816Z"/><path d="M86.53735,58.10849a3.31455,3.31455,0,1,1-3.32081,3.30827A3.27363,3.27363,0,0,1,86.53735,58.10849Zm2.08018,3.30827a2.09038,2.09038,0,1,0-2.08018,2.21806A2.12886,2.12886,0,0,0,88.61753,61.41676Z"/><path d="M91.03574,58.23383h1.25314v.81444a1.99656,1.99656,0,0,1,1.75438-.95233,1.59254,1.59254,0,0,1,.63909.10025V59.324a2.14673,2.14673,0,0,0-.73934-.13789,1.74131,1.74131,0,0,0-1.65413,1.16549v4.2606H91.03574Z"/><path d="M96.56167,59.28641H95.20829V58.23383h1.35338v-1.6291l1.24059-.30075v1.92985H99.682v1.05258H97.80226V62.745c0,.65168.26317.88982.93983.88982a2.462,2.462,0,0,0,.91481-.15043v1.05269a4.15019,4.15019,0,0,1-1.19047.188c-1.24064,0-1.90476-.589-1.90476-1.69171Z"/><path d="M103.52892,64.725a3.28228,3.28228,0,0,1-3.34585-3.30827,3.20508,3.20508,0,0,1,3.19547-3.28329,3.15875,3.15875,0,0,1,3.08274,3.33347v.36337h-5.03763A2.15147,2.15147,0,0,0,103.579,63.6598a2.48053,2.48053,0,0,0,1.61656-.56387l.802.78946A3.80458,3.80458,0,0,1,103.52892,64.725Zm-2.09272-3.83461h3.78443a1.90256,1.90256,0,0,0-3.78443,0Z"/><path d="M112.56368,64.01073a3.013,3.013,0,0,1-1.95489.70176,3.28953,3.28953,0,1,1,1.94234-5.95243V55.84025l1.25314-.27566v9.04765h-1.24059Zm-1.77948-.38845a2.29865,2.29865,0,0,0,1.76693-.76449V59.96307a2.3321,2.3321,0,0,0-1.76693-.75182,2.20584,2.20584,0,0,0,0,4.411Z"/><path d="M121.07192,64.71249a3.18748,3.18748,0,0,1-1.9298-.639v.53878h-1.24064v-8.772l1.25313-.27566v3.27075a2.95469,2.95469,0,0,1,1.94234-.70187,3.29,3.29,0,0,1-.025,6.579Zm-1.91731-4.72433v2.88229a2.3651,2.3651,0,0,0,1.77948.75183,2.19969,2.19969,0,0,0,0-4.39849A2.28786,2.28786,0,0,0,119.15461,59.98816Z"/><path d="M127.09922,64.63733l-2.54385-6.4035h1.37848l1.86712,4.87465,2.0552-4.87465h1.35332l-3.08268,7.14277c-.589,1.366-1.26567,1.90488-2.44359,1.90488a2.42026,2.42026,0,0,1-.66418-.07527V66.10345a2.47561,2.47561,0,0,0,.56393.05007,1.322,1.322,0,0,0,1.26568-.93978Z"/></svg>