<?xml version="1.0" encoding="utf-8"?>
<!-- Generator: Adobe Illustrator 25.4.1, SVG Export Plug-In . SVG Version: 6.00 Build 0)  -->
<svg version="1.1" id="Layer_1" xmlns="http://www.w3.org/2000/svg" xmlns:xlink="http://www.w3.org/1999/xlink" x="0px" y="0px"
	 viewBox="0 0 262 180" style="enable-background:new 0 0 262 180;" xml:space="preserve">
<style type="text/css">
	.st0{fill:#EE0000;}
	.st1{fill:#FFFFFF;}
</style>
<path d="M100.4,158.2c-0.7,0-1.4-0.3-2-0.8L99,157c0.4,0.4,0.9,0.6,1.5,0.6c0.7,0,1.2-0.4,1.2-0.9c0-0.5-0.4-0.8-1.2-0.8H100v-0.6
	h0.4c0.5,0.1,1-0.3,1-0.8c0,0,0,0,0,0c0,0,0,0,0-0.1c0-0.5-0.5-0.8-1.1-0.8c-0.5,0-1,0.2-1.4,0.6l-0.5-0.5c0.5-0.5,1.2-0.8,1.9-0.8
	c1,0,1.8,0.6,1.8,1.4c0,0.5-0.3,1-0.8,1.2c0.6,0.1,1,0.6,1,1.2C102.4,157.6,101.6,158.2,100.4,158.2L100.4,158.2z"/>
<path d="M103.2,157.2c0.3,0.3,0.8,0.5,1.2,0.5c0.6,0,0.9-0.3,0.9-0.6c0-0.3-0.2-0.4-0.6-0.5l-0.7-0.1c-0.7-0.1-1.1-0.5-1.1-1
	c0-0.7,0.6-1.1,1.5-1.1c0.5,0,1.1,0.2,1.5,0.5l-0.4,0.5c-0.3-0.3-0.8-0.4-1.2-0.4c-0.4,0-0.8,0.2-0.8,0.5c0,0.3,0.2,0.4,0.6,0.5
	l0.7,0.1c0.8,0.1,1.1,0.5,1.1,1c0,0.7-0.7,1.2-1.6,1.2c-0.6,0-1.2-0.2-1.6-0.6L103.2,157.2L103.2,157.2z"/>
<path d="M109.4,157.1l0.4,0.5c-0.4,0.4-0.9,0.6-1.5,0.6c-1.1,0-1.9-0.8-1.9-1.9v0c0-1.1,0.8-1.9,1.9-1.9c0,0,0,0,0,0c0,0,0,0,0,0
	c0.6,0,1.1,0.2,1.5,0.6l-0.5,0.5c-0.3-0.3-0.6-0.5-1-0.5c-0.7,0-1.2,0.6-1.2,1.3l0,0c0,0.7,0.5,1.3,1.2,1.3c0,0,0,0,0,0l0,0
	C108.8,157.5,109.2,157.4,109.4,157.1L109.4,157.1z"/>
<path d="M111.8,157.7c0.4,0,0.7-0.1,1-0.4v-0.7c-0.3-0.2-0.6-0.2-1-0.2c-0.5,0-0.9,0.2-0.9,0.6C111,157.4,111.4,157.7,111.8,157.7
	L111.8,157.7z M110.3,157.1c0-0.8,0.6-1.1,1.5-1.1c0.4,0,0.7,0.1,1,0.2v-0.4c0-0.5-0.3-0.8-0.9-0.8c-0.4,0-0.8,0.1-1.2,0.3l-0.3-0.6
	c0.5-0.2,1-0.4,1.5-0.4c1,0,1.5,0.5,1.5,1.3v2.5h-0.7v-0.3c-0.3,0.3-0.7,0.4-1.2,0.4C110.9,158.2,110.3,157.7,110.3,157.1
	L110.3,157.1z"/>
<path d="M115.1,158.1h-0.7V153l0.7-0.2V158.1z"/>
<path d="M116.6,155.9h2.2c-0.1-0.6-0.6-1.1-1.2-1C117,155,116.6,155.4,116.6,155.9L116.6,155.9z M117.7,154.3c1,0,1.8,0.9,1.8,1.9
	c0,0,0,0,0,0.1v0.2h-3c0.1,0.6,0.6,1.1,1.3,1.1c0.3,0,0.7-0.1,1-0.3l0.5,0.5c-0.4,0.3-0.9,0.5-1.5,0.5c-1.1,0-1.9-0.8-2-1.9
	c0,0,0,0,0-0.1C115.8,155.2,116.6,154.3,117.7,154.3L117.7,154.3L117.7,154.3z"/>
<path d="M124.8,156l-0.9-2.3L123,156H124.8z M123.5,153h0.9l2.1,5.2h-0.8l-0.6-1.5h-2.3l-0.6,1.5h-0.8L123.5,153L123.5,153z"/>
<path d="M127.8,153.6v1.8h1.5c0.5,0.1,0.9-0.3,1-0.8s-0.3-0.9-0.8-1c0,0-0.1,0-0.1,0c0,0-0.1,0-0.1,0L127.8,153.6z M127,153h2.4
	c0.8-0.1,1.6,0.5,1.7,1.4c0,0,0,0,0,0c0,0.1,0,0.1,0,0.2c0,0.8-0.7,1.5-1.5,1.5c0,0,0,0,0,0c-0.1,0-0.1,0-0.1,0h-1.6v2.1H127V153z"
	/>
<path d="M131.9,153h0.8v5.2h-0.8V153z"/>
<path d="M136,153.9v4.2h-0.7V153h1l1.6,3.3l1.6-3.3h1v5.2h-0.7v-4.2l-1.9,3.8L136,153.9L136,153.9z"/>
<path d="M142.8,157.7c0.4,0,0.7-0.1,1-0.4v-0.7c-0.3-0.2-0.6-0.2-1-0.2c-0.5,0-0.9,0.2-0.9,0.6C142,157.4,142.3,157.7,142.8,157.7
	L142.8,157.7z M141.3,157.1c0-0.8,0.6-1.1,1.5-1.1c0.4,0,0.7,0.1,1,0.2v-0.4c0-0.5-0.3-0.8-0.9-0.8c-0.4,0-0.8,0.1-1.2,0.3l-0.3-0.6
	c0.5-0.2,1-0.4,1.5-0.4c1,0,1.5,0.5,1.5,1.3v2.5h-0.7v-0.3c-0.3,0.3-0.7,0.4-1.2,0.4C141.8,158.2,141.3,157.7,141.3,157.1
	L141.3,157.1z"/>
<path d="M145.4,154.4h0.7v0.4c0.3-0.3,0.7-0.5,1.1-0.4c0.8,0,1.4,0.6,1.5,1.3c0,0,0,0.1,0,0.1v2.4H148v-2.2c0-0.5-0.3-0.9-0.8-0.9
	c0,0-0.1,0-0.1,0c-0.4,0-0.7,0.2-0.9,0.5v2.7h-0.7L145.4,154.4z"/>
<path d="M150.9,157.7c0.4,0,0.7-0.1,1-0.4v-0.7c-0.3-0.2-0.6-0.2-1-0.2c-0.5,0-0.9,0.2-0.9,0.6C150.1,157.4,150.4,157.7,150.9,157.7
	L150.9,157.7z M149.4,157.1c0-0.8,0.6-1.1,1.5-1.1c0.4,0,0.7,0.1,1,0.2v-0.4c0-0.5-0.3-0.8-0.9-0.8c-0.4,0-0.8,0.1-1.2,0.3l-0.3-0.6
	c0.5-0.2,1-0.4,1.5-0.4c1,0,1.5,0.5,1.5,1.3v2.5h-0.7v-0.3c-0.3,0.3-0.7,0.4-1.2,0.4C149.9,158.2,149.4,157.7,149.4,157.1
	L149.4,157.1z"/>
<path d="M155.3,157.5c0.4,0,0.8-0.1,1-0.4v-1.7c-0.3-0.3-0.6-0.4-1-0.4c-0.7,0-1.3,0.6-1.3,1.2v0v0
	C154,156.9,154.6,157.5,155.3,157.5C155.3,157.5,155.3,157.5,155.3,157.5C155.3,157.5,155.3,157.5,155.3,157.5L155.3,157.5z
	 M153.3,156.2c0-1,0.8-1.9,1.9-1.9l0,0c0,0,0,0,0,0c0.4,0,0.8,0.1,1.1,0.4v-0.3h0.7v3.8c0,1-0.6,1.5-1.7,1.5c-0.5,0-1-0.1-1.5-0.4
	l0.3-0.6c0.4,0.2,0.8,0.3,1.2,0.3c0.7,0,1-0.3,1-0.9v-0.4c-0.3,0.3-0.7,0.4-1.1,0.4C154.2,158.2,153.3,157.3,153.3,156.2
	L153.3,156.2L153.3,156.2L153.3,156.2z"/>
<path d="M158.5,155.9h2.2c-0.1-0.6-0.6-1.1-1.2-1C159,155,158.5,155.4,158.5,155.9L158.5,155.9z M159.6,154.3c1,0,1.8,0.9,1.8,1.9v0
	c0,0,0,0,0,0.1v0.2h-3c0.1,0.6,0.6,1.1,1.3,1.1c0.3,0,0.7-0.1,1-0.3l0.5,0.5c-0.4,0.3-0.9,0.5-1.5,0.5c-1.1,0-1.9-0.8-2-1.9
	c0,0,0,0,0-0.1C157.7,155.2,158.6,154.3,159.6,154.3L159.6,154.3L159.6,154.3z"/>
<path d="M162.1,154.4h0.7v0.3c0.3-0.3,0.7-0.4,1-0.4c0.5,0,0.9,0.2,1.2,0.6c0.3-0.4,0.8-0.6,1.3-0.6c0.8,0,1.4,0.6,1.4,1.3
	c0,0,0,0,0,0c0,0,0,0.1,0,0.1v2.4H167v-2.2c0.1-0.5-0.3-0.9-0.7-0.9c0,0-0.1,0-0.1,0c-0.4,0-0.7,0.2-0.9,0.5c0,0.1,0,0.2,0,0.3v2.4
	h-0.7v-2.2c0.1-0.5-0.3-0.9-0.7-0.9c0,0-0.1,0-0.1,0c-0.3,0-0.7,0.2-0.8,0.4v2.7h-0.7L162.1,154.4L162.1,154.4z"/>
<path d="M169.2,155.9h2.2c-0.1-0.6-0.6-1.1-1.2-1C169.7,155,169.2,155.4,169.2,155.9L169.2,155.9z M170.3,154.3c1,0,1.8,0.9,1.8,1.9
	v0c0,0,0,0,0,0.1v0.2h-3c0.1,0.6,0.6,1.1,1.3,1.1c0.3,0,0.7-0.1,0.9-0.3l0.5,0.5c-0.4,0.3-0.9,0.5-1.5,0.5c-1.1,0-1.9-0.8-2-1.9v0
	c0,0,0,0,0-0.1C168.4,155.2,169.2,154.3,170.3,154.3L170.3,154.3L170.3,154.3z"/>
<path d="M172.8,154.4h0.7v0.4c0.3-0.3,0.7-0.5,1.1-0.4c0.8,0,1.4,0.6,1.5,1.3c0,0,0,0.1,0,0.1v2.4h-0.7v-2.2c0-0.5-0.3-0.9-0.8-0.9
	c0,0-0.1,0-0.1,0c-0.4,0-0.7,0.2-0.9,0.5v2.7h-0.7L172.8,154.4z"/>
<path d="M177.4,155h-0.8v-0.6h0.8v-1l0.7-0.2v1.1h1.1v0.6h-1.1v2c0,0.4,0.2,0.5,0.6,0.5c0.2,0,0.4,0,0.5-0.1v0.6
	c-0.2,0.1-0.5,0.1-0.7,0.1c-0.7,0-1.1-0.3-1.1-1V155z"/>
<path class="st0" d="M94.1,147.8c0.1,0.2,0.1,0.5,0.1,0.7c0,1-1.1,1.5-2.6,1.5c-3.3,0-6.2-1.9-6.2-3.2c0-0.2,0-0.4,0.1-0.5
	c-1.2,0.1-2.7,0.3-2.7,1.6c0,2.2,5.3,5,9.5,5c3.2,0,4-1.5,4-2.6C96.1,149.1,95.3,148.1,94.1,147.8 M91.8,148.6
	c0.9,0,2.2-0.2,2.2-1.2c0-0.1,0-0.2,0-0.2l-0.5-2.3c-0.1-0.5-0.2-0.7-1.1-1.2c-0.8-0.4-1.7-0.7-2.6-0.9c-0.4,0-0.5,0.5-1,0.5
	c-0.5,0-0.8-0.4-1.3-0.4c-0.4,0-0.7,0.3-0.9,0.9c0,0-0.6,1.7-0.7,1.9c0,0,0,0.1,0,0.1C85.8,146.4,88.4,148.6,91.8,148.6"/>
<path d="M94.1,147.8c0.1,0.2,0.1,0.5,0.1,0.7c0,1-1.1,1.5-2.6,1.5c-3.3,0-6.2-1.9-6.2-3.2c0-0.2,0-0.4,0.1-0.5l0.3-0.6
	c0,0,0,0.1,0,0.1c0,0.7,2.6,2.8,6,2.8c0.9,0,2.2-0.2,2.2-1.2c0-0.1,0-0.2,0-0.2L94.1,147.8L94.1,147.8z"/>
<path d="M98.8,150.5h1.3v-1.9h1l1,1.9h1.4l-1.1-2.1c0.6-0.2,1-0.8,1-1.5c0-0.9-0.8-1.7-1.7-1.7c0,0,0,0,0,0c0,0-0.1,0-0.1,0h-2.7
	L98.8,150.5L98.8,150.5z M101.3,146.3c0.3,0,0.6,0.2,0.7,0.5c0,0,0,0,0,0c0,0,0,0,0,0.1c0,0.3-0.3,0.6-0.6,0.6c0,0,0,0,0,0
	c0,0,0,0-0.1,0h-1.3v-1.2H101.3z M103.4,148.5c0,1.1,1,2.1,2.1,2c0,0,0,0,0,0l0.1,0c0.6,0,1.2-0.2,1.6-0.6l-0.8-0.7
	c-0.2,0.2-0.5,0.3-0.8,0.3c-0.4,0-0.8-0.2-1-0.6h2.8v-0.3c0.1-1.1-0.8-2.1-1.9-2.1c0,0-0.1,0-0.1,0
	C104.4,146.4,103.4,147.3,103.4,148.5C103.4,148.5,103.4,148.5,103.4,148.5 M105.4,147.4c0.4,0,0.7,0.3,0.8,0.6h-1.6
	C104.7,147.7,105.1,147.4,105.4,147.4 M110.9,150.5h1.2V145l-1.2,0.3v1.5c-1-0.6-2.2-0.2-2.8,0.8c-0.2,0.3-0.2,0.6-0.3,0.9v0
	c0,1.1,0.9,2,2,2c0,0,0,0,0,0c0,0,0,0,0,0c0.4,0,0.8-0.1,1.1-0.3L110.9,150.5L110.9,150.5z M109,148.5c0-0.6,0.4-1,1-1l0,0
	c0.3,0,0.6,0.1,0.8,0.3v1.4c-0.2,0.2-0.5,0.3-0.8,0.3C109.5,149.5,109.1,149.1,109,148.5L109,148.5 M113.9,150.4h1.3v-2h2.1v2h1.3
	v-5.2h-1.3v2h-2.1v-2h-1.3L113.9,150.4z M120.5,150.5c0.4,0,0.8-0.1,1.1-0.3v0.2h1.2v-2.5c0-1-0.6-1.5-1.7-1.5
	c-0.6,0-1.3,0.2-1.8,0.4l0.4,0.9c0.4-0.2,0.8-0.3,1.2-0.3c0.5,0,0.8,0.2,0.8,0.6v0.2c-0.3-0.1-0.6-0.1-0.9-0.1c-1,0-1.6,0.4-1.6,1.2
	c0,0.7,0.6,1.3,1.3,1.2C120.4,150.5,120.4,150.5,120.5,150.5 M120.1,149.3c0-0.3,0.3-0.4,0.7-0.4c0.2,0,0.5,0,0.7,0.1v0.5
	c-0.2,0.1-0.5,0.2-0.8,0.2C120.3,149.7,120.1,149.5,120.1,149.3 M123.9,149.2c0,0.8,0.5,1.3,1.4,1.3c0.3,0,0.6,0,0.8-0.1v-1
	c-0.2,0.1-0.4,0.1-0.5,0.1c-0.4,0-0.5-0.1-0.5-0.5v-1.5h1.1v-1h-1.1v-1.3l-1.2,0.3v1h-0.8v1h0.8V149.2L123.9,149.2z"/>
<path d="M156.8,20.1h-51.6c-14.2,0-25.8,11.5-25.8,25.8c0,0,0,0,0,0v51.6c0,14.2,11.5,25.8,25.8,25.8h51.6
	c14.2,0,25.8-11.5,25.8-25.8l0,0V45.9C182.6,31.6,171,20.1,156.8,20.1L156.8,20.1z"/>
<path class="st1" d="M148.1,60c-3.2,0-5.9-2.5-6.1-5.7c-0.2-3.3,2.4-6.2,5.7-6.4c3.4-0.2,6.2,2.4,6.4,5.7l0,0
	c0.2,3.3-2.4,6.2-5.7,6.4c0,0,0,0,0,0C148.4,60,148.3,60,148.1,60z M148.2,51.4c-0.1,0-0.1,0-0.2,0c-1.4,0.1-2.4,1.3-2.4,2.6
	c0,0,0,0,0,0v0c0.1,1.4,1.3,2.4,2.7,2.3c1.4-0.1,2.4-1.3,2.3-2.6l0,0C150.6,52.5,149.5,51.4,148.2,51.4L148.2,51.4z"/>
<path class="st1" d="M148.2,94.9c-3.4,0-6.1-2.7-6.1-6.1s2.7-6.1,6.1-6.1c3.4,0,6.1,2.7,6.1,6.1c0,0,0,0,0,0
	C154.2,92.2,151.5,94.9,148.2,94.9z M148.2,86.3c-0.1,0-0.1,0-0.2,0c-1.4,0.1-2.4,1.3-2.4,2.6c0,0,0,0,0,0v0
	c0.1,1.4,1.3,2.4,2.7,2.3c1.4-0.1,2.4-1.3,2.3-2.6l0,0C150.6,87.4,149.5,86.3,148.2,86.3L148.2,86.3z"/>
<path class="st1" d="M143.9,90.6h-11.4c-1,0-1.8-0.8-1.8-1.8v-8.6c0-1,0.8-1.8,1.8-1.8c1,0,1.8,0.8,1.8,1.8V87h9.7
	c1,0,1.8,0.8,1.7,1.8C145.6,89.8,144.8,90.6,143.9,90.6L143.9,90.6z"/>
<path class="st1" d="M132.4,82c-1,0-1.8-0.8-1.8-1.8V54.5c0-1,0.8-1.8,1.8-1.8h11.4c1,0,1.8,0.8,1.8,1.8c0,1-0.8,1.8-1.8,1.8h-9.7
	v24C134.2,81.2,133.4,82,132.4,82z"/>
<path class="st1" d="M158.2,77.6h-8.6c-1,0-1.8-0.8-1.8-1.8v-8.6c0-1,0.8-1.8,1.8-1.8h8.6c1,0,1.8,0.8,1.8,1.8v8.6
	C160,76.8,159.2,77.6,158.2,77.6z M151.4,74h5v-5h-5V74z"/>
<path class="st1" d="M149.6,73.4h-17.2c-1,0-1.8-0.8-1.8-1.8c0-1,0.8-1.8,1.8-1.8c0,0,0,0,0,0h17.2c1,0,1.8,0.8,1.8,1.8
	C151.4,72.6,150.6,73.4,149.6,73.4C149.6,73.4,149.6,73.4,149.6,73.4z"/>
<circle cx="129.6" cy="71.7" r="8.6"/>
<path class="st0" d="M129.6,82c-5.7,0-10.4-4.6-10.4-10.4s4.6-10.4,10.4-10.4c5.7,0,10.4,4.6,10.4,10.4c0,0,0,0,0,0
	C139.9,77.4,135.3,82,129.6,82z"/>
<path class="st0" d="M126.7,90.4c-0.1,0-0.2,0-0.3,0c-10.3-1.7-17.3-11.5-15.5-21.8c1.3-8,7.6-14.2,15.5-15.5c1-0.2,1.9,0.5,2.1,1.5
	c0.2,1-0.5,1.9-1.5,2.1h0c-8.4,1.4-14,9.4-12.6,17.7c1.1,6.4,6.1,11.5,12.6,12.6c1,0.2,1.6,1.1,1.5,2.1c0,0,0,0,0,0v0
	C128.3,89.7,127.6,90.4,126.7,90.4z"/>
<path class="st0" d="M126.7,99c-0.1,0-0.1,0-0.2,0c-15.1-1.7-26-15.3-24.3-30.4c1.4-12.8,11.5-22.9,24.3-24.3c1-0.1,1.9,0.6,2,1.5
	l0,0c0.1,1-0.6,1.9-1.6,2c0,0,0,0,0,0h0c-13.1,1.5-22.6,13.3-21.1,26.5c1.2,11.1,10,19.9,21.1,21.1c1,0.1,1.7,1,1.6,2c0,0,0,0,0,0v0
	C128.4,98.3,127.6,99,126.7,99z"/>
<path d="M122.8,71.7c0-3.8,3-6.8,6.8-6.8c3.8,0,6.8,3,6.8,6.8c0,3.8-3,6.8-6.8,6.8C125.8,78.4,122.8,75.4,122.8,71.7L122.8,71.7z"/>
</svg>
