<?xml version="1.0" encoding="utf-8"?>
<!-- Generator: Adobe Illustrator 25.4.1, SVG Export Plug-In . SVG Version: 6.00 Build 0)  -->
<svg version="1.1" id="Layer_1" xmlns="http://www.w3.org/2000/svg" xmlns:xlink="http://www.w3.org/1999/xlink" x="0px" y="0px"
	 viewBox="0 0 555 200" style="enable-background:new 0 0 555 200;" xml:space="preserve">
<style type="text/css">
	.st0{fill:#EE0000;}
	.st1{fill:#FFFFFF;}
</style>
<path d="M303.8,47.5h-52.5c-14.5,0-26.2,11.8-26.2,26.2v52.5c0,14.5,11.8,26.2,26.2,26.2h52.5c14.5,0,26.2-11.8,26.2-26.2V73.8
	C330,59.3,318.2,47.5,303.8,47.5z"/>
<path class="st0" d="M301.3,86.2c-3.9,0-7.1-3.2-7.1-7.1s3.2-7.1,7.1-7.1c3.9,0,7.1,3.2,7.1,7.1C308.4,83,305.2,86.2,301.3,86.2z
	 M301.3,75.7c-1.9,0-3.4,1.5-3.4,3.4s1.5,3.4,3.4,3.4c1.9,0,3.4-1.5,3.4-3.4c0,0,0,0,0,0C304.8,77.2,303.2,75.7,301.3,75.7z"/>
<path class="st0" d="M291.4,131.1c-7.4,0-13.4-6-13.4-13.4c0-7.4,6-13.4,13.4-13.4s13.4,6,13.4,13.4
	C304.7,125.1,298.7,131.1,291.4,131.1z M291.4,107.9c-5.4,0-9.7,4.4-9.7,9.7c0,5.4,4.4,9.7,9.7,9.7c5.4,0,9.7-4.4,9.7-9.7
	C301.1,112.3,296.7,107.9,291.4,107.9z"/>
<path class="st1" d="M271.3,120.5c-1,0-1.8-0.8-1.8-1.8c0-1,0.8-1.8,1.7-1.8c0.7,0,1.3-0.1,2-0.2c1-0.1,1.9,0.5,2.1,1.5
	s-0.5,1.9-1.5,2.1l0,0C273,120.4,272.2,120.5,271.3,120.5C271.4,120.5,271.3,120.5,271.3,120.5z"/>
<path class="st1" d="M262.3,119c-0.2,0-0.5,0-0.7-0.1c-1.5-0.6-3-1.4-4.4-2.3c-0.8-0.6-1.1-1.7-0.5-2.5c0.6-0.8,1.7-1.1,2.5-0.5
	c1.2,0.8,2.4,1.4,3.7,1.9c0.9,0.4,1.4,1.4,1,2.4C263.7,118.6,263,119,262.3,119L262.3,119z M251.8,110.4c-0.6,0-1.2-0.3-1.5-0.8
	c-0.9-1.4-1.7-2.9-2.2-4.4c-0.4-0.9,0.1-2,1.1-2.4c0.9-0.4,2,0.1,2.4,1.1c0.5,1.3,1.1,2.6,1.9,3.8c0.5,0.8,0.3,2-0.5,2.5
	C252.5,110.3,252.1,110.4,251.8,110.4L251.8,110.4z M248.3,97.3C248.3,97.3,248.2,97.3,248.3,97.3c-1.1-0.1-1.9-0.9-1.8-1.9
	c0,0,0,0,0,0c0.1-1.7,0.3-3.3,0.8-4.9c0.2-1,1.2-1.6,2.2-1.3c1,0.2,1.6,1.2,1.3,2.2c0,0,0,0,0,0.1c-0.4,1.4-0.6,2.8-0.7,4.2
	C250.1,96.6,249.3,97.3,248.3,97.3z M290.8,90.3c-0.7,0-1.4-0.5-1.7-1.1c-0.5-1.3-1.2-2.6-2-3.7c-0.6-0.8-0.3-2,0.5-2.5
	c0.8-0.6,2-0.3,2.5,0.5c0.9,1.4,1.7,2.9,2.3,4.4c0.4,0.9-0.1,2-1,2.4C291.3,90.3,291.1,90.3,290.8,90.3L290.8,90.3z M253.1,84.6
	c-1,0-1.8-0.8-1.8-1.8c0-0.4,0.1-0.8,0.4-1.1c1-1.3,2.2-2.5,3.5-3.5c0.8-0.6,1.9-0.5,2.6,0.3c0.6,0.8,0.5,1.9-0.3,2.6
	c-1.1,0.9-2.1,1.9-3,3C254.2,84.4,253.7,84.6,253.1,84.6L253.1,84.6z M282.2,79.8c-0.3,0-0.7-0.1-1-0.3c-1.2-0.8-2.4-1.4-3.8-1.9
	c-0.9-0.4-1.4-1.4-1.1-2.3c0.4-0.9,1.4-1.4,2.3-1.1c1.6,0.6,3.1,1.3,4.5,2.2c0.8,0.5,1.1,1.7,0.6,2.5
	C283.4,79.5,282.8,79.8,282.2,79.8L282.2,79.8z M264.5,77.2c-1,0-1.8-0.8-1.8-1.8c0-0.8,0.5-1.5,1.3-1.8c1.6-0.4,3.2-0.7,4.9-0.8
	c1,0,1.8,0.7,1.9,1.7c0.1,1-0.7,1.9-1.7,1.9c0,0,0,0,0,0c-1.4,0.1-2.8,0.3-4.2,0.7C264.8,77.2,264.7,77.2,264.5,77.2L264.5,77.2z"/>
<path class="st1" d="M292.2,101.6c-0.1,0-0.2,0-0.3,0c-1-0.1-1.7-1.1-1.5-2.1c0,0,0,0,0,0c0.1-0.7,0.2-1.3,0.2-2
	c0-1,0.8-1.8,1.8-1.7c0,0,0.1,0,0.1,0c1,0,1.8,0.9,1.7,1.9c0,0,0,0,0,0c0,0.8-0.1,1.6-0.2,2.3C293.9,101,293.1,101.6,292.2,101.6z"
	/>
</svg>
