<?xml version="1.0" encoding="utf-8"?>
<!-- Generator: Adobe Illustrator 25.4.1, SVG Export Plug-In . SVG Version: 6.00 Build 0)  -->
<svg version="1.1" id="Layer_1" xmlns="http://www.w3.org/2000/svg" xmlns:xlink="http://www.w3.org/1999/xlink" x="0px" y="0px"
	 viewBox="0 0 262 180" style="enable-background:new 0 0 262 180;" xml:space="preserve">
<style type="text/css">
	.st0{clip-path:url(#SVGID_00000003814485794223975070000012867869974460238467_);}
	.st1{clip-path:url(#SVGID_00000166663887295856101610000012494810103327122599_);}
	.st2{fill:#040404;}
	.st3{stroke:#FFFFFF;stroke-width:3;stroke-miterlimit:10;}
	.st4{fill:#FFFFFF;}
	.st5{fill:#EE0000;}
</style>
<g>
	<defs>
		<rect id="SVGID_1_" x="-293" y="-770" width="555" height="250"/>
	</defs>
	<clipPath id="SVGID_00000012442853455508399250000010607132450065056156_">
		<use xlink:href="#SVGID_1_"  style="overflow:visible;"/>
	</clipPath>
	<g style="clip-path:url(#SVGID_00000012442853455508399250000010607132450065056156_);">
		<g>
			<defs>
				<circle id="SVGID_00000134969654115657647480000007722385275450080414_" cx="-242.7" cy="-719.7" r="47.3"/>
			</defs>
			<clipPath id="SVGID_00000123416063304168475960000018251401052530333361_">
				<use xlink:href="#SVGID_00000134969654115657647480000007722385275450080414_"  style="overflow:visible;"/>
			</clipPath>
			<g style="clip-path:url(#SVGID_00000123416063304168475960000018251401052530333361_);">
				
					<image style="overflow:visible;enable-background:new    ;" width="3004" height="1920" xlink:href="B3F1DDF99B922F22.png"  transform="matrix(0.6251 0 0 0.6251 -464.8571 -784.7881)">
				</image>
			</g>
		</g>
	</g>
</g>
<path class="st2" d="M0,0h262c0,0,0,0,0,0v180c0,0,0,0,0,0H0c0,0,0,0,0,0L0,0C0,0,0,0,0,0z"/>
<path class="st3" d="M157.2,37.5h-52.5c-14.5,0-26.2,11.8-26.2,26.2v52.5c0,14.5,11.8,26.2,26.2,26.2h52.5
	c14.5,0,26.2-11.8,26.2-26.2V63.8C183.5,49.3,171.7,37.5,157.2,37.5z"/>
<path class="st4" d="M119.4,103.5c-0.3,0-0.5-0.1-0.7-0.2c-0.9-0.4-1.3-1.5-0.9-2.4c0,0,0,0,0,0l11.6-25.8c0.5-0.9,1.7-1.3,2.6-0.7
	c0.3,0.2,0.6,0.4,0.7,0.7l11.6,25.8c0.4,0.9,0,2-0.9,2.4c-0.6,0.3-1.3,0.2-1.8-0.2L126,91.4l-5,11
	C120.7,103,120.1,103.5,119.4,103.5z M127.5,88l10.6,7.9L131,80.3L127.5,88z"/>
<path class="st5" d="M131,122.4c-17.9,0-32.4-14.5-32.4-32.4s14.5-32.4,32.4-32.4c17.9,0,32.4,14.5,32.4,32.4
	C163.4,107.9,148.9,122.4,131,122.4z M131,61.2c-15.9,0-28.8,12.9-28.8,28.8s12.9,28.8,28.8,28.8c15.9,0,28.8-12.9,28.8-28.8
	C159.7,74.1,146.9,61.3,131,61.2z"/>
</svg>
