<?xml version="1.0" encoding="UTF-8"?><svg id="uuid-a964b905-1dc7-4c8d-8976-f92f90d67f0e" xmlns="http://www.w3.org/2000/svg" viewBox="0 0 1140 208"><defs><style>.uuid-9210fb1f-41a5-402b-9779-9cc679eeefb2{fill:#f3f3f3;}.uuid-a9ec94be-397e-4cd3-a711-e10d6d449e10{fill:#e00;}.uuid-2029bcec-7823-4873-b5da-4984a43ad538{fill:#fff;}.uuid-6c472feb-6e0b-4cb7-aa3f-84319c48306b{fill:#dfdfdf;}.uuid-842d34f9-9bc2-46cd-92a9-525b24a24171{fill:#383838;}</style></defs><rect class="uuid-9210fb1f-41a5-402b-9779-9cc679eeefb2" width="1140" height="208"/><path class="uuid-2029bcec-7823-4873-b5da-4984a43ad538" d="m682.09609,59.00781h-44.99218c-12.42424,0-22.49609,10.07185-22.49609,22.49609v44.99219c0,12.42427,10.07185,22.49609,22.49609,22.49609h44.99218c12.42425,0,22.49609-10.07183,22.49609-22.49609v-44.99219c0-12.42424-10.07185-22.49609-22.49609-22.49609h0Z"/><path class="uuid-6c472feb-6e0b-4cb7-aa3f-84319c48306b" d="m682.09609,62.13227c10.68143,0,19.37164,8.69005,19.37164,19.37164v44.99219c0,10.68159-8.6902,19.37164-19.37164,19.37164h-44.99219c-10.68143,0-19.37164-8.69005-19.37164-19.37164v-44.99219c0-10.68159,8.6902-19.37164,19.37164-19.37164h44.99219m0-3.12446h-44.99219c-12.42429,0-22.49609,10.0718-22.49609,22.49609v44.99219c0,12.42429,10.0718,22.49609,22.49609,22.49609h44.99219c12.42429,0,22.49609-10.0718,22.49609-22.49609v-44.99219c0-12.42429-10.0718-22.49609-22.49609-22.49609h0Z"/><path d="m669.58606,125.55875c-.27095,0-.53946-.07079-.78111-.20992l-8.65816-4.99913c-.48331-.27827-.78111-.79332-.78111-1.3523v-9.99826c0-.55898.2978-1.07403.78111-1.3523l8.65816-4.99913c.48331-.27827,1.07891-.27827,1.56223,0l8.65816,4.99913c.48331.27827.78111.79332.78111,1.3523v9.99826c0,.55898-.2978,1.07403-.78111,1.3523l-8.65816,4.99913c-.24166.13914-.51017.20992-.78111.20992Zm-7.09594-7.46208l7.09594,4.09597,7.09594-4.09597v-8.19682l-7.09594-4.09597-7.09594,4.09597v8.19682Zm15.7541.90072h.02441-.02441Z"/><path d="m649.60174,115.56049h-12.49783c-.86167,0-1.56223-.70056-1.56223-1.56223v-32.49436c0-.86167.70056-1.56223,1.56223-1.56223h32.49436c.86167,0,1.56223.70056,1.56223,1.56223v12.49783c0,.86167-.70056,1.56223-1.56223,1.56223s-1.56223-.70056-1.56223-1.56223v-10.9356h-29.3699v29.3699h10.9356c.86167,0,1.56223.70056,1.56223,1.56223s-.70056,1.56223-1.56223,1.56223Z"/><path class="uuid-a9ec94be-397e-4cd3-a711-e10d6d449e10" d="m659.59756,132.8817c-.26363,0-.53213-.06835-.77867-.20992-6.64924-3.84455-10.77938-10.99907-10.77938-18.67351,0-11.88758,9.67117-21.55876,21.55876-21.55876,6.18057,0,12.07554,2.66067,16.16907,7.30098.57119.64686.50772,1.63302-.13914,2.20421-.64198.56631-1.63058.51017-2.20421-.13914-3.50037-3.9666-8.541-6.24159-13.82572-6.24159-10.16425,0-18.4343,8.27005-18.4343,18.4343,0,6.56136,3.5321,12.6809,9.21715,15.96891.74694.43205,1.00324,1.38648.57119,2.13342-.29048.5004-.81529.78111-1.35475.78111Z"/><path class="uuid-2029bcec-7823-4873-b5da-4984a43ad538" d="m1040.49609,59.00781h-44.99218c-12.42424,0-22.49609,10.07185-22.49609,22.49609v44.99219c0,12.42427,10.07185,22.49609,22.49609,22.49609h44.99218c12.42425,0,22.49609-10.07183,22.49609-22.49609v-44.99219c0-12.42424-10.07185-22.49609-22.49609-22.49609h0Z"/><path class="uuid-6c472feb-6e0b-4cb7-aa3f-84319c48306b" d="m1040.49609,62.13228c10.68143,0,19.37164,8.69009,19.37164,19.37164v44.99219c0,10.68155-8.6902,19.37164-19.37164,19.37164h-44.99219c-10.68143,0-19.37164-8.69009-19.37164-19.37164v-44.99219c0-10.68155,8.6902-19.37164,19.37164-19.37164h44.99219m0-3.12446h-44.99219c-12.42429,0-22.49609,10.07186-22.49609,22.49609v44.99219c0,12.42428,10.0718,22.49609,22.49609,22.49609h44.99219c12.42429,0,22.49609-10.07182,22.49609-22.49609v-44.99219c0-12.42424-10.0718-22.49609-22.49609-22.49609h0Z"/><path class="uuid-a9ec94be-397e-4cd3-a711-e10d6d449e10" d="m1005.50217,93.0644h-7.4987c-.86167,0-1.56223-.69934-1.56223-1.56223v-7.4987c0-.86289.70056-1.56223,1.56223-1.56223h7.4987c.86167,0,1.56223.69934,1.56223,1.56223v7.4987c0,.86289-.70056,1.56223-1.56223,1.56223Zm-5.93647-3.12446h4.37424v-4.37424h-4.37424v4.37424Z"/><path class="uuid-a9ec94be-397e-4cd3-a711-e10d6d449e10" d="m1037.99653,93.0644h-7.4987c-.86167,0-1.56223-.69934-1.56223-1.56223v-7.4987c0-.86289.70056-1.56223,1.56223-1.56223h7.4987c.86167,0,1.56223.69934,1.56223,1.56223v7.4987c0,.86289-.70056,1.56223-1.56223,1.56223Zm-5.93647-3.12446h4.37424v-4.37424h-4.37424v4.37424Z"/><path class="uuid-a9ec94be-397e-4cd3-a711-e10d6d449e10" d="m1037.99653,125.55876h-7.4987c-.86167,0-1.56223-.69934-1.56223-1.56223v-7.4987c0-.86289.70056-1.56223,1.56223-1.56223h7.4987c.86167,0,1.56223.69934,1.56223,1.56223v7.4987c0,.86289-.70056,1.56223-1.56223,1.56223Zm-5.93647-3.12446h4.37424v-4.37424h-4.37424v4.37424Z"/><path class="uuid-a9ec94be-397e-4cd3-a711-e10d6d449e10" d="m1005.50217,125.55876h-7.4987c-.86167,0-1.56223-.69934-1.56223-1.56223v-7.4987c0-.86289.70056-1.56223,1.56223-1.56223h7.4987c.86167,0,1.56223.69934,1.56223,1.56223v7.4987c0,.86289-.70056,1.56223-1.56223,1.56223Zm-5.93647-3.12446h4.37424v-4.37424h-4.37424v4.37424Z"/><path d="m1022.99913,86.19548c-.12693,0-.25874-.01587-.38812-.04882-2.99753-.77135-6.2245-.77135-9.22203,0-.84458.20992-1.68916-.29048-1.90153-1.12407-.21481-.83604.28804-1.68794,1.12529-1.90275,3.50037-.90072,7.27413-.90072,10.7745,0,.83726.21481,1.3401,1.06671,1.12529,1.90275-.18063.70544-.81529,1.17289-1.51341,1.17289Z"/><path d="m998.63325,110.56136c-.69812,0-1.33278-.46867-1.51341-1.17411-.44914-1.75507-.67859-3.5675-.67859-5.38725s.22945-3.63218.67859-5.38725c.21481-.83237,1.05939-1.33766,1.90153-1.12529.83482.21481,1.3401,1.06671,1.12529,1.90153-.38568,1.5012-.58095,3.05245-.58095,4.61102s.19528,3.10981.58095,4.61102c.21481.83482-.29048,1.68672-1.12529,1.90153-.12937.03295-.26119.04882-.38812.04882Z"/><path d="m1018,125.55876c-1.82341,0-3.63706-.22823-5.38725-.67859-.83726-.21481-1.3401-1.06671-1.12529-1.90275.21481-.8336,1.05939-1.3401,1.90153-1.12407,2.99753.77135,6.2245.77135,9.22203,0,.84214-.21725,1.68916.29048,1.90153,1.12407.21481.83604-.28804,1.68794-1.12529,1.90275-1.75018.45036-3.56383.67859-5.38725.67859Z"/><path d="m1037.36675,110.56136c-.12693,0-.25874-.01587-.38812-.04882-.83482-.21481-1.3401-1.06671-1.12529-1.90153.38568-1.5012.58095-3.05245.58095-4.61102s-.19528-3.10981-.58095-4.61102c-.21481-.83482.29048-1.68672,1.12529-1.90153.84214-.21481,1.68672.29048,1.90153,1.12529.44914,1.75507.67859,3.5675.67859,5.38725s-.22945,3.63218-.67859,5.38725c-.18063.70544-.81529,1.17411-1.51341,1.17411Z"/><path d="m1025.14231,111.2961h-12.49783c-3.42226,0-6.20498-2.78272-6.20498-6.20376,0-3.41005,2.76563-6.18667,6.1708-6.20498,1.38404-2.19933,3.81037-3.56994,6.46128-3.56994,3.9373,0,7.18625,2.99509,7.59145,6.82499,1.71845.72985,2.89745,2.4239,2.89745,4.3779,0,2.35067-1.70869,4.31077-3.94707,4.70377-.1489.04638-.30756.07201-.47111.07201Zm-12.49783-9.28428c-1.69892,0-3.08052,1.3816-3.08052,3.08052,0,1.6977,1.3816,3.0793,3.08052,3.0793h12.139c.91049,0,1.65255-.74084,1.65255-1.65132,0-.83726-.63466-1.5366-1.47679-1.62569-.82993-.08788-1.44262-.80919-1.39624-1.64156l.01709-.3039c0-2.48492-2.02357-4.50727-4.50849-4.50727-1.79412,0-3.41738,1.06549-4.13502,2.71437-.29048.66639-.99836,1.04596-1.72333.91171-.18307-.03539-.37347-.05614-.56875-.05614Z"/><path class="uuid-2029bcec-7823-4873-b5da-4984a43ad538" d="m861.29609,59.00781h-44.99218c-12.42424,0-22.49609,10.07185-22.49609,22.49609v44.99219c0,12.42427,10.07185,22.49609,22.49609,22.49609h44.99218c12.42425,0,22.49609-10.07183,22.49609-22.49609v-44.99219c0-12.42424-10.07185-22.49609-22.49609-22.49609h0Z"/><path class="uuid-6c472feb-6e0b-4cb7-aa3f-84319c48306b" d="m861.29609,62.13227c10.68143,0,19.37164,8.69009,19.37164,19.37164v44.99219c0,10.68155-8.6902,19.37164-19.37164,19.37164h-44.99219c-10.68143,0-19.37164-8.69009-19.37164-19.37164v-44.99219c0-10.68155,8.6902-19.37164,19.37164-19.37164h44.99219m0-3.12446h-44.99219c-12.42429,0-22.49609,10.07187-22.49609,22.49609v44.99219c0,12.42429,10.0718,22.49609,22.49609,22.49609h44.99219c12.42429,0,22.49609-10.0718,22.49609-22.49609v-44.99219c0-12.42422-10.0718-22.49609-22.49609-22.49609h0Z"/><path d="m861.29609,120.55943h-42.49262c-.86167,0-1.56223-.70056-1.56223-1.56223v-9.99826c0-.86167.70056-1.56223,1.56223-1.56223s1.56223.70056,1.56223,1.56223v8.43603h39.36816v-26.87033h-25.933c-.86167,0-1.56223-.70056-1.56223-1.56223s.70056-1.56223,1.56223-1.56223h27.49522c.86167,0,1.56223.70056,1.56223,1.56223v29.99479c0,.86167-.70056,1.56223-1.56223,1.56223Z"/><path d="m853.7974,98.06334h-2.49957c-.86167,0-1.56223-.70056-1.56223-1.56223s.70056-1.56223,1.56223-1.56223h2.49957c.86167,0,1.56223.70056,1.56223,1.56223s-.70056,1.56223-1.56223,1.56223Z"/><path class="uuid-a9ec94be-397e-4cd3-a711-e10d6d449e10" d="m843.79913,98.06334h-7.4987c-.86167,0-1.56223-.70056-1.56223-1.56223s.70056-1.56223,1.56223-1.56223h7.4987c.86167,0,1.56223.70056,1.56223,1.56223s-.70056,1.56223-1.56223,1.56223Z"/><path class="uuid-a9ec94be-397e-4cd3-a711-e10d6d449e10" d="m853.7974,105.56204h-9.99826c-.86167,0-1.56223-.70056-1.56223-1.56223s.70056-1.56223,1.56223-1.56223h9.99826c.86167,0,1.56223.70056,1.56223,1.56223s-.70056,1.56223-1.56223,1.56223Z"/><path d="m836.30043,105.56204h-2.49957c-.86167,0-1.56223-.70056-1.56223-1.56223s.70056-1.56223,1.56223-1.56223h2.49957c.86167,0,1.56223.70056,1.56223,1.56223s-.70056,1.56223-1.56223,1.56223Z"/><path d="m853.7974,113.06074h-2.49957c-.86167,0-1.56223-.70056-1.56223-1.56223s.70056-1.56223,1.56223-1.56223h2.49957c.86167,0,1.56223.70056,1.56223,1.56223s-.70056,1.56223-1.56223,1.56223Z"/><path class="uuid-a9ec94be-397e-4cd3-a711-e10d6d449e10" d="m843.79913,113.06074h-7.4987c-.86167,0-1.56223-.70056-1.56223-1.56223s.70056-1.56223,1.56223-1.56223h7.4987c.86167,0,1.56223.70056,1.56223,1.56223s-.70056,1.56223-1.56223,1.56223Z"/><path d="m828.80174,113.06074h-2.49957c-.86167,0-1.56223-.70056-1.56223-1.56223s.70056-1.56223,1.56223-1.56223h2.49957c.86167,0,1.56223.70056,1.56223,1.56223s-.70056,1.56223-1.56223,1.56223Z"/><path class="uuid-a9ec94be-397e-4cd3-a711-e10d6d449e10" d="m821.30304,105.56204c-.86167,0-1.56223-.70056-1.56223-1.56223v-19.99653c0-.86167.70056-1.56223,1.56223-1.56223s1.56223.70056,1.56223,1.56223v19.99653c0,.86167-.70056,1.56223-1.56223,1.56223Z"/><path class="uuid-a9ec94be-397e-4cd3-a711-e10d6d449e10" d="m831.3013,95.56377h-19.99653c-.86167,0-1.56223-.70056-1.56223-1.56223s.70056-1.56223,1.56223-1.56223h19.99653c.86167,0,1.56223.70056,1.56223,1.56223s-.70056,1.56223-1.56223,1.56223Z"/><path class="uuid-a9ec94be-397e-4cd3-a711-e10d6d449e10" d="m828.37212,102.63286c-.40032,0-.80064-.15134-1.10576-.45646l-14.13817-14.13817c-.6078-.61025-.6078-1.60128,0-2.21153.61025-.61025,1.60128-.61025,2.21153,0l14.13817,14.13817c.6078.61025.6078,1.60128,0,2.21153-.30512.30512-.70544.45646-1.10576.45646Z"/><path class="uuid-a9ec94be-397e-4cd3-a711-e10d6d449e10" d="m814.23395,102.63286c-.40032,0-.80064-.15134-1.10576-.45646-.6078-.61025-.6078-1.60128,0-2.21153l14.13817-14.13817c.61025-.61025,1.60128-.61025,2.21153,0,.6078.61025.6078,1.60128,0,2.21153l-14.13817,14.13817c-.30512.30512-.70544.45646-1.10576.45646Z"/><circle class="uuid-2029bcec-7823-4873-b5da-4984a43ad538" cx="821.30304" cy="94.00175" r="6.66551"/><path class="uuid-a9ec94be-397e-4cd3-a711-e10d6d449e10" d="m821.30304,102.2301c-4.53779,0-8.22855-3.69077-8.22855-8.22855s3.69077-8.22855,8.22855-8.22855,8.22855,3.69077,8.22855,8.22855-3.69077,8.22855-8.22855,8.22855Zm0-13.33265c-2.81445,0-5.10409,2.28964-5.10409,5.10409s2.28964,5.10409,5.10409,5.10409,5.10409-2.28964,5.10409-5.10409-2.28964-5.10409-5.10409-5.10409Z"/><rect x="256.20781" y="59.00781" width="89.98437" height="89.98437" rx="22.49609" ry="22.49609"/><path class="uuid-842d34f9-9bc2-46cd-92a9-525b24a24171" d="m323.69609,62.13227c10.68159,0,19.37164,8.69009,19.37164,19.37164v44.99219c0,10.68155-8.69005,19.37164-19.37164,19.37164h-44.99219c-10.68159,0-19.37164-8.69009-19.37164-19.37164v-44.99219c0-10.68155,8.69005-19.37164,19.37164-19.37164h44.99219m0-3.12446h-44.99219c-12.42429,0-22.49609,10.07186-22.49609,22.49609v44.99219c0,12.42428,10.0718,22.49609,22.49609,22.49609h44.99219c12.42429,0,22.49609-10.07182,22.49609-22.49609v-44.99219c0-12.42424-10.0718-22.49609-22.49609-22.49609h0Z"/><path class="uuid-2029bcec-7823-4873-b5da-4984a43ad538" d="m291.20174,115.56049c-.21481,0-.43449-.04394-.64198-.13914-.786-.35394-1.1375-1.27907-.78111-2.06507l5.05039-11.20167c.00732-.01465.01465-.02929.01953-.04394l4.92834-10.92095c.50284-1.12285,2.34334-1.12285,2.84619,0l9.99826,22.16656c.2953.6493.10984,1.41577-.4467,1.86247-.55654.44426-1.3401.45646-1.91617.02929l-13.3717-10.05197-4.26196,9.44416c-.25874.57851-.82749.92025-1.42309.92025Zm7.00074-13.28383l9.07069,6.81766-6.07316-13.46202-2.99753,6.64435Z"/><path class="uuid-a9ec94be-397e-4cd3-a711-e10d6d449e10" d="m301.2,131.80767c-15.33425,0-27.80767-12.47342-27.80767-27.80767s12.47342-27.80767,27.80767-27.80767,27.80767,12.47342,27.80767,27.80767-12.47342,27.80767-27.80767,27.80767Zm0-52.49088c-13.61092,0-24.68321,11.0723-24.68321,24.68321s11.0723,24.68321,24.68321,24.68321,24.68321-11.0723,24.68321-24.68321-11.0723-24.68321-24.68321-24.68321Z"/><rect x="435.40781" y="59.00781" width="89.98437" height="89.98437" rx="22.49609" ry="22.49609"/><path class="uuid-842d34f9-9bc2-46cd-92a9-525b24a24171" d="m502.89609,62.13227c10.68159,0,19.37164,8.69009,19.37164,19.37164v44.99219c0,10.68155-8.69005,19.37164-19.37164,19.37164h-44.99219c-10.68159,0-19.37164-8.69009-19.37164-19.37164v-44.99219c0-10.68155,8.69005-19.37164,19.37164-19.37164h44.99219m0-3.12446h-44.99219c-12.42429,0-22.49609,10.07184-22.49609,22.49609v44.99219c0,12.42426,10.0718,22.49609,22.49609,22.49609h44.99219c12.42429,0,22.49609-10.07184,22.49609-22.49609v-44.99219c0-12.42426-10.0718-22.49609-22.49609-22.49609h0Z"/><path class="uuid-2029bcec-7823-4873-b5da-4984a43ad538" d="m501.29023,85.1454c.12373-.30467.12022-.63603.04317-.95275-.06499-.26988-.1756-.5303-.38522-.74084-.00275-.00275-.00641-.00351-.00915-.0061-5.48916-5.48336-12.7822-8.50316-20.53904-8.50316-.86167,0-1.56223.70056-1.56223,1.56223v21.14257c-2.86205.7056-4.99913,3.2761-4.99913,6.35266,0,3.61754,2.94382,6.56136,6.56136,6.56136s6.56136-2.94382,6.56136-6.56136c0-1.24139-.3663-2.39094-.96785-3.38198l14.95468-14.95468c.1521-.15271.26607-.32938.34204-.51795Zm-3.70831-.53885l-13.79994,13.79994c-.55914-.33945-1.16816-.5985-1.81975-.75915v-19.53396c5.81656.34281,11.25918,2.62268,15.61969,6.49317Zm-17.18192,22.83035c-1.8942,0-3.4369-1.5427-3.4369-3.4369s1.5427-3.4369,3.4369-3.4369,3.4369,1.5427,3.4369,3.4369-1.5427,3.4369-3.4369,3.4369Z"/><path class="uuid-a9ec94be-397e-4cd3-a711-e10d6d449e10" d="m480.4,130.55789c-14.64345,0-26.55789-11.91443-26.55789-26.55789,0-11.66545,7.47185-21.84923,18.59046-25.34228.82999-.25874,1.70142.20016,1.96017,1.02277s-.20016,1.70136-1.02283,1.96011c-9.81269,3.08052-16.40334,12.06578-16.40334,22.3594,0,12.92012,10.51331,23.43343,23.43343,23.43343s23.43343-10.51331,23.43343-23.43343c0-4.11794-1.0838-8.16997-3.13422-11.71672-.43205-.74694-.17575-1.70136.57119-2.13342.74206-.43205,1.70136-.17819,2.13342.57119,2.32626,4.0203,3.55407,8.61179,3.55407,13.27894,0,14.64345-11.91443,26.55789-26.55789,26.55789Z"/><path class="uuid-a9ec94be-397e-4cd3-a711-e10d6d449e10" d="m480.4,120.55962c-9.13171,0-16.55962-7.42791-16.55962-16.55962,0-5.89497,3.17328-11.39206,8.27975-14.34321.747-.43205,1.69898-.17575,2.13348.57119.43205.74694.17575,1.70136-.57125,2.13342-4.14229,2.39704-6.71752,6.85672-6.71752,11.6386,0,7.40838,6.02679,13.43517,13.43517,13.43517s13.43517-6.02679,13.43517-13.43517c0-1.54026-.2563-3.04635-.76403-4.47676-.28804-.81285.1367-1.70625.94954-1.99428.81529-.28804,1.70381.1367,1.99428.94954.62733,1.76727.94466,3.62486.94466,5.5215,0,9.13171-7.42791,16.55962-16.55962,16.55962Z"/><rect x="77.00781" y="59.00781" width="89.98437" height="89.98437" rx="22.49609" ry="22.49609"/><path class="uuid-842d34f9-9bc2-46cd-92a9-525b24a24171" d="m144.49609,62.13227c10.68159,0,19.37164,8.69009,19.37164,19.37164v44.99219c0,10.68155-8.69005,19.37164-19.37164,19.37164h-44.99219c-10.68159,0-19.37164-8.69009-19.37164-19.37164v-44.99219c0-10.68155,8.69005-19.37164,19.37164-19.37164h44.99219m0-3.12446h-44.99219c-12.42429,0-22.49609,10.07184-22.49609,22.49609v44.99219c0,12.42426,10.0718,22.49609,22.49609,22.49609h44.99219c12.42429,0,22.49609-10.07184,22.49609-22.49609v-44.99219c0-12.42426-10.0718-22.49609-22.49609-22.49609h0Z"/><path class="uuid-a9ec94be-397e-4cd3-a711-e10d6d449e10" d="m122,130.55789c-.26119,0-.52237-.06591-.75915-.19772l-24.74668-13.74761c-.49552-.27339-.80308-.7982-.80308-1.36451s.30756-1.09112.80308-1.36451l9.74928-5.41654c.75915-.42229,1.70381-.14646,2.12365.60536.41985.75426.1489,1.70625-.60536,2.12365l-7.29121,4.05203,21.52946,11.96081,21.52946-11.96081-7.29121-4.05203c-.75426-.41741-1.02521-1.36939-.60536-2.12365.41985-.75182,1.36451-1.02765,2.12365-.60536l9.74928,5.41654c.49552.27339.80308.7982.80308,1.36451s-.30756,1.09112-.80308,1.36451l-24.74668,13.74761c-.23678.13181-.49796.19772-.75915.19772Z"/><path class="uuid-a9ec94be-397e-4cd3-a711-e10d6d449e10" d="m122,108.06179c-.26119,0-.52237-.06591-.75915-.19772l-24.74668-13.74761c-.49552-.27339-.80308-.7982-.80308-1.36451s.30756-1.09112.80308-1.36451l24.74668-13.74761c.75915-.42229,1.70625-.14646,2.12365.60536.41985.75426.1489,1.70625-.60536,2.12365l-22.28861,12.3831,21.52946,11.96081,23.98753-13.32532c.76159-.42229,1.70625-.14646,2.12365.60536.41985.75426.1489,1.70625-.60536,2.12365l-24.74668,13.74761c-.23678.13181-.49796.19772-.75915.19772Z"/><path class="uuid-a9ec94be-397e-4cd3-a711-e10d6d449e10" d="m110.1295,101.32712c-.54922,0-1.08136-.29048-1.36695-.80308-.41985-.75426-.1489-1.70625.60536-2.12365l16.87207-9.37337c.75915-.42229,1.70381-.14646,2.12365.60536.41985.75426.1489,1.70625-.60536,2.12365l-16.87207,9.37337c-.24166.13425-.5004.19772-.7567.19772Z"/><path class="uuid-2029bcec-7823-4873-b5da-4984a43ad538" d="m122,119.44898c-.26119,0-.52237-.06591-.75915-.19772l-24.99566-13.88675c-.75426-.41741-1.02521-1.36939-.60536-2.12365.41497-.75182,1.36695-1.02521,2.12365-.60536l24.23651,13.46446,24.23651-13.46446c.7567-.41985,1.70381-.14646,2.12365.60536.41985.75426.1489,1.70625-.60536,2.12365l-24.99566,13.88675c-.23678.13181-.49796.19772-.75915.19772Z"/></svg>