<?xml version="1.0" encoding="UTF-8"?><svg id="uuid-44104e44-cf7d-4e83-aafb-4b6e109eae3d" xmlns="http://www.w3.org/2000/svg" viewBox="0 0 262 180"><defs><style>.uuid-14be39c1-bfcc-47fe-b5df-709f7b215508{fill:#f3f3f3;}.uuid-25b5a7e8-f1d4-430c-be78-2b82407d47ee{fill:#ed0000;}.uuid-a3d2055d-5d2b-4789-a670-22493c7b9f5d{fill:#e00;}.uuid-88f0c08f-3c84-478c-8ea4-947997f3a713{fill:#fff;}.uuid-d525fde8-f5af-4175-be15-204f08fdf634{fill:#4d4d4d;}</style></defs><rect class="uuid-14be39c1-bfcc-47fe-b5df-709f7b215508" width="262" height="180"/><path class="uuid-88f0c08f-3c84-478c-8ea4-947997f3a713" d="m195.93608,60.8583h-32.49999c-8.97462,0-16.25,7.27538-16.25,16.25v32.49999c0,8.97464,7.27538,16.25,16.25,16.25h32.49999c8.97462,0,16.25-7.27536,16.25-16.25v-32.49999c0-8.97462-7.27537-16.25-16.25-16.25h0Z"/><path class="uuid-a3d2055d-5d2b-4789-a670-22493c7b9f5d" d="m195.9361,63.11525c7.71576,0,13.99305,6.27724,13.99305,13.99305v32.49999c0,7.71582-6.27729,13.99305-13.99305,13.99305h-32.49999c-7.71576,0-13.99305-6.27724-13.99305-13.99305v-32.49999c0-7.71582,6.27729-13.99305,13.99305-13.99305h32.49999m0-2.25694h-32.49999c-8.97466,0-16.25,7.27534-16.25,16.25v32.49999c0,8.97466,7.27534,16.25,16.25,16.25h32.49999c8.9746,0,16.25-7.27534,16.25-16.25v-32.49999c0-8.97466-7.27539-16.25-16.25-16.25h0Z"/><path d="m179.68572,103.514c-.19396,0-.38968-.05113-.56424-.15164l-7.81819-4.51389c-.34912-.20101-.56424-.57305-.56424-.97683v-9.02778c0-.40378.21511-.77582.56424-.97683l7.81819-4.51389c.34912-.20101.77935-.20101,1.12847,0l7.81819,4.51389c.34912.20101.56424.57305.56424.97683v9.02778c0,.40378-.21511.77582-.56424.97683l-7.81819,4.51389c-.17456.1005-.37028.15164-.56424.15164Zm-6.68972-6.29299l6.68972,3.86149,6.68972-3.86149v-7.72651l-6.68972-3.86149-6.68972,3.86149v7.72651Zm14.50792.65063h.01763-.01763Z"/><path d="m194.13016,112.54177c-2.61312,0-4.73958-2.12646-4.73958-4.73958s2.12646-4.73958,4.73958-4.73958,4.73958,2.12646,4.73958,4.73958-2.12646,4.73958-4.73958,4.73958Zm0-7.22222c-1.36827,0-2.48264,1.11437-2.48264,2.48264s1.11437,2.48264,2.48264,2.48264,2.48264-1.11437,2.48264-2.48264-1.11437-2.48264-2.48264-2.48264Z"/><path class="uuid-a3d2055d-5d2b-4789-a670-22493c7b9f5d" d="m184.32304,113.80249c-.50958,0-.97154-.34736-1.09497-.86575-.14635-.60655.22746-1.21487.83401-1.35946.82696-.19925,1.64686-.45492,2.43503-.76348.57305-.22922,1.2325.05642,1.46172.64006.22746.58011-.05995,1.23427-.64006,1.46172-.88515.34559-1.80379.63477-2.73125.85517-.08816.02116-.17632.03174-.26449.03174Z"/><path class="uuid-a3d2055d-5d2b-4789-a670-22493c7b9f5d" d="m178.94693,114.33498h-.04055c-1.91488-.07053-3.80507-.40025-5.6212-.98036-.59421-.19043-.92041-.8252-.73174-1.41941.19043-.59421.8252-.91512,1.41941-.73174,1.61865.51839,3.30607.81285,5.01465.87457.62242.02292,1.10908.5466,1.08792,1.16903-.02292.61008-.52368,1.08792-1.12847,1.08792Zm-10.18975-3.26023c-.21335,0-.42847-.05995-.62066-.1869-1.59044-1.05089-3.03277-2.31337-4.28996-3.7557-.41083-.47078-.36146-1.18313.10756-1.5922.47255-.40907,1.1849-.36146,1.5922.10756,1.12495,1.29069,2.41387,2.41916,3.83504,3.3572.52016.34383.66298,1.04384.31915,1.56399-.21688.32796-.57658.50605-.94333.50605Zm-7.01945-8.07563c-.42141,0-.8252-.23804-1.01915-.64358-.82167-1.72797-1.40177-3.55998-1.72268-5.44488-.10403-.61361.30857-1.19724.92394-1.30127.60303-.1005,1.19724.30857,1.30127.92394.28564,1.6786.80227,3.31136,1.53578,4.85243.26801.56247.02821,1.23603-.53426,1.50404-.15693.07406-.32091.10932-.48489.10932Zm37.79147-9.30989c-.60303,0-1.10379-.47607-1.12847-1.08439-.06524-1.7121-.36499-3.39776-.88691-5.01112-.19219-.59245.13401-1.22898.72645-1.42117.59245-.19043,1.22898.13401,1.42117.72645.58539,1.80908.92041,3.69927.99623,5.61767.02292.62242-.46197,1.14787-1.08439,1.17255h-.04408Zm-39.60055-1.23074c-.03879,0-.07758-.00176-.11637-.00529-.6189-.06348-1.07205-.61713-1.00857-1.23779.19396-1.90782.64711-3.77333,1.34711-5.54714.22746-.57834.88162-.86928,1.46349-.63477.58011.22746.86399.88338.63477,1.46349-.62242,1.57986-1.0262,3.24436-1.199,4.94764-.05995.58011-.55013,1.01386-1.12142,1.01386Zm36.31564-8.94667c-.36675,0-.72469-.17632-.94157-.50429-.94157-1.41764-2.07533-2.70481-3.36778-3.8227-.47078-.40731-.52192-1.12142-.11461-1.5922.41083-.47078,1.12318-.52192,1.5922-.11461,1.44585,1.2519,2.71539,2.69246,3.7698,4.28114.34559.51839.20454,1.2184-.31562,1.56399-.19219.12695-.40907.18867-.62242.18867Zm-32.39772-1.01033c-.23804,0-.47784-.07406-.68061-.22922-.49723-.37557-.59597-1.08439-.21864-1.57986,1.15316-1.52344,2.50909-2.88289,4.02723-4.03958.49547-.37381,1.20253-.28212,1.58162.21335.37733.49547.28212,1.20429-.21335,1.58162-1.35593,1.03326-2.56727,2.24636-3.597,3.60582-.22217.29446-.55895.44786-.89925.44786Zm24.3027-5.98795c-.16222,0-.3262-.03526-.48136-.10756-1.54283-.72822-3.17735-1.23956-4.85772-1.52167-.61361-.10227-1.02973-.68414-.9257-1.29951.1005-.61361.67708-1.03678,1.29951-.9257,1.8849.31562,3.7169.88867,5.44664,1.70505.56424.26625.8058.93981.53955,1.50228-.19219.40907-.5995.64711-1.02091.64711Zm-15.79155-.49194c-.44786,0-.8728-.26978-1.04913-.71235-.22922-.57834.0529-1.23427.633-1.46525,1.77558-.70529,3.64109-1.16374,5.54185-1.35946.63829-.04937,1.17608.38791,1.23956,1.00681.06348.62066-.38791,1.17432-1.00681,1.23956-1.69623.17456-3.35897.58187-4.94235,1.21134-.13577.05466-.27683.07935-.41612.07935Z"/><path class="uuid-a3d2055d-5d2b-4789-a670-22493c7b9f5d" d="m198.19266,101.70844c-.13753,0-.27683-.02469-.41083-.07758-.58011-.22746-.86751-.88162-.64006-1.46172.30857-.78817.56424-1.60807.76348-2.43503.14459-.60832.75819-.9786,1.35946-.83401.60655.14459.98036.7529.83401,1.35946-.2204.92746-.50958,1.84611-.85517,2.73125-.17456.4461-.5995.71764-1.05089.71764Z"/><rect x="49.8139" y="60.8583" width="64.99997" height="64.99997" rx="16.24999" ry="16.24999"/><path class="uuid-d525fde8-f5af-4175-be15-204f08fdf634" d="m98.56391,63.11526c7.71576,0,13.99305,6.27729,13.99305,13.99305v32.49999c0,7.71576-6.27729,13.99305-13.99305,13.99305h-32.49999c-7.71576,0-13.99305-6.27729-13.99305-13.99305v-32.49999c0-7.71576,6.27729-13.99305,13.99305-13.99305h32.49999m0-2.25694h-32.49999c-8.97466,0-16.24999,7.27534-16.24999,16.24999v32.49999c0,8.9746,7.27534,16.24999,16.24999,16.24999h32.49999c8.9746,0,16.24999-7.27539,16.24999-16.24999v-32.49999c0-8.97466-7.27539-16.24999-16.24999-16.24999h0Z"/><path class="uuid-88f0c08f-3c84-478c-8ea4-947997f3a713" d="m98.85542,92.46263c-.72975,0-1.36857-.53624-1.47582-1.27997-.95124-6.64-6.25065-11.93942-12.89066-12.88832-.81601-.11657-1.38256-.8743-1.26598-1.69031.11657-.81368.86964-1.37556,1.69031-1.26598,7.94096,1.13775,14.28254,7.477,15.42262,15.42029.11657.81601-.44997,1.57141-1.26598,1.69031-.07228.00933-.14455.01399-.21449.01399Z"/><path class="uuid-88f0c08f-3c84-478c-8ea4-947997f3a713" d="m84.69878,121.00439c-.76239,0-1.41287-.58287-1.48281-1.35924-.07461-.82067.53157-1.54576,1.35225-1.61803,12.8347-1.15641,22.51493-11.76223,22.51493-24.6692s-9.68023-23.5128-22.51493-24.6692c-.82067-.07228-1.42686-.79736-1.35225-1.61803.07461-.82301.85565-1.4152,1.61803-1.35225,14.38512,1.29396,25.23342,13.17743,25.23342,27.63949s-10.84829,26.34553-25.23342,27.63949c-.0443.00466-.09093.00699-.13522.00699Z"/><path class="uuid-25b5a7e8-f1d4-430c-be78-2b82407d47ee" d="m82.31369,111.56197c-10.03695,0-18.20406-8.16711-18.20406-18.20406,0-8.99944,6.70995-16.74689,15.60448-18.01987.83-.11191,1.57374.4523,1.69031,1.26598.11657.81601-.44997,1.57141-1.26598,1.69031-7.43737,1.06315-13.04453,7.53995-13.04453,15.06358,0,8.39326,6.82652,15.21979,15.21979,15.21979,7.52596,0,14.00276-5.60717,15.06591-13.04453.11657-.81368.86964-1.36391,1.69031-1.26598.81601.1189,1.38256.8743,1.26598,1.69031-1.27298,8.89453-9.02043,15.60448-18.0222,15.60448Z"/><path class="uuid-25b5a7e8-f1d4-430c-be78-2b82407d47ee" d="m79.92861,121.00439c-.04663,0-.09093-.00233-.13522-.00699-14.38512-1.29396-25.23342-13.17743-25.23342-27.63949s10.84829-26.34553,25.23342-27.63949c.80902-.07927,1.54343.53157,1.61803,1.35225s-.53157,1.54576-1.35225,1.61803c-12.8347,1.15641-22.51493,11.76223-22.51493,24.6692s9.68023,23.5128,22.51493,24.6692c.82067.07228,1.42686.79736,1.35225,1.61803-.06994.77638-.72042,1.35924-1.48281,1.35924Z"/><path class="uuid-88f0c08f-3c84-478c-8ea4-947997f3a713" d="m79.92628,99.62488c-.38236,0-.76472-.14455-1.05615-.43598l-4.77484-4.77484c-.58053-.58287-.58053-1.52944,0-2.1123.58287-.58287,1.52944-.58287,2.1123,0l3.71868,3.72101,8.49352-8.49585c.58287-.58287,1.52944-.58287,2.1123,0,.58053.58287.58053,1.52944,0,2.1123l-9.54967,9.54967c-.29143.29143-.67379.43598-1.05615.43598Z"/></svg>