<?xml version="1.0" encoding="UTF-8"?><svg id="uuid-9553a766-f28e-43d8-91db-0a0894af1775" xmlns="http://www.w3.org/2000/svg" viewBox="0 0 262 180"><defs><style>.uuid-f9755d6e-4a84-4c62-869c-eb17da9108c7{fill:#f3f3f3;}.uuid-3b2f4d11-553e-4112-9569-0e7dc1f685ce{fill:#ed0000;}.uuid-a495fbed-26e9-4289-b511-48003024dbbf{fill:#e00;}.uuid-c834ebf4-1ecd-4628-b547-575b6b3e23b9{fill:#fff;}</style></defs><rect class="uuid-f9755d6e-4a84-4c62-869c-eb17da9108c7" width="262" height="180"/><path d="m115.36116,106.49002v-32.98004c0-1.60259-.85497-3.08344-2.24285-3.88473l-28.56155-16.49002c-1.38788-.80129-3.09782-.80129-4.4857,0l-28.56155,16.49002c-1.38788.80129-2.24285,2.28214-2.24285,3.88473v32.98004c0,1.60259.85497,3.08344,2.24285,3.88473l28.56155,16.49002c1.38788.80129,3.09782.80129,4.4857,0l28.56155-16.49002c1.38788-.80129,2.24285-2.28214,2.24285-3.88473Z"/><path class="uuid-c834ebf4-1ecd-4628-b547-575b6b3e23b9" d="m89.53612,103.76736c-.62242,0-1.12847-.50605-1.12847-1.12847v-12.63889c0-.62242.50605-1.12847,1.12847-1.12847s1.12847.50605,1.12847,1.12847v12.63889c0,.62242-.50605,1.12847-1.12847,1.12847Z"/><path class="uuid-c834ebf4-1ecd-4628-b547-575b6b3e23b9" d="m75.09168,91.12847c-.62242,0-1.12847-.50605-1.12847-1.12847v-12.63889c0-.62242.50605-1.12847,1.12847-1.12847s1.12847.50605,1.12847,1.12847v12.63889c0,.62242-.50605,1.12847-1.12847,1.12847Z"/><path class="uuid-3b2f4d11-553e-4112-9569-0e7dc1f685ce" d="m71.48057,92.48264h-6.09375v-4.96528h20.53819c.62242,0,1.12847-.50605,1.12847-1.12847s-.50605-1.12847-1.12847-1.12847h-21.66667c-.62242,0-1.12847.50605-1.12847,1.12847v7.22222c0,.62242.50605,1.12847,1.12847,1.12847h7.22222c.62242,0,1.12847-.50605,1.12847-1.12847s-.50605-1.12847-1.12847-1.12847Z"/><path class="uuid-3b2f4d11-553e-4112-9569-0e7dc1f685ce" d="m100.36946,85.26042h-7.22222c-.62242,0-1.12847.50605-1.12847,1.12847s.50605,1.12847,1.12847,1.12847h6.09375v4.96528h-20.53819c-.62242,0-1.12847.50605-1.12847,1.12847s.50605,1.12847,1.12847,1.12847h21.66667c.62242,0,1.12847-.50605,1.12847-1.12847v-7.22222c0-.62242-.50605-1.12847-1.12847-1.12847Z"/><path class="uuid-c834ebf4-1ecd-4628-b547-575b6b3e23b9" d="m79.50154,100.03459c-.44081-.44081-1.15668-.44081-1.59749,0l-1.68389,1.68499v-11.71958c0-.62242-.50605-1.12847-1.12847-1.12847s-1.12847.50605-1.12847,1.12847v11.71958l-1.68389-1.68499c-.44081-.44081-1.15668-.44081-1.59749,0-.43905.44081-.43905,1.15668,0,1.59749l3.61111,3.61111c.04496.04496.10227.06524.1523.10095.06943.05003.13312.10767.21302.14106.13863.05731.28564.08772.43343.08772s.29479-.03042.43343-.08772c.0799-.03339.14359-.09103.21302-.14106.05003-.03571.10734-.05598.1523-.10095l3.61111-3.61111c.43905-.44081.43905-1.15668,0-1.59749Z"/><path class="uuid-c834ebf4-1ecd-4628-b547-575b6b3e23b9" d="m93.94598,78.36792l-3.61111-3.61111c-.04981-.04981-.11274-.07339-.16872-.11197-.06458-.04496-.12221-.09907-.19561-.12982-.27771-.1156-.59113-.1156-.86884,0-.07339.03075-.13103.08486-.19561.12982-.05598.03857-.11891.06215-.16872.11197l-3.61111,3.61111c-.43905.44081-.43905,1.15668,0,1.59749.44081.44081,1.15668.44081,1.59749,0l1.68389-1.68499v11.71958c0,.62242.50605,1.12847,1.12847,1.12847s1.12847-.50605,1.12847-1.12847v-11.71958l1.68389,1.68499c.2204.2204.50958.32973.79875.32973s.57834-.10932.79875-.32973c.43905-.44081.43905-1.15668,0-1.59749Z"/><path class="uuid-a495fbed-26e9-4289-b511-48003024dbbf" d="m173.74248,96.49728c-.38823,0-.77413-.15111-1.06704-.45099-.57188-.58815-.56026-1.53199.03022-2.10386l22.61945-21.98712c.57653-.56258,1.49711-.56258,2.07364,0l2.82685,2.74781c.59048.57188.6021,1.51571.03022,2.10386-.57653.58815-1.51571.60443-2.10386.03022l-1.79003-1.73888-21.58262,20.9782c-.28826.28129-.66254.42077-1.03682.42077Z"/><path class="uuid-a495fbed-26e9-4289-b511-48003024dbbf" d="m196.36193,85.50372c-.37428,0-.74856-.13948-1.03682-.42077l-5.65602-5.49562c-.58815-.57188-.6021-1.51339-.03022-2.10386s1.51804-.6021,2.10386-.03022l5.65602,5.49562c.58815.57188.6021,1.51339.03022,2.10386-.29059.29989-.67882.45099-1.06704.45099Z"/><path class="uuid-a495fbed-26e9-4289-b511-48003024dbbf" d="m190.7059,90.99934c-.37428,0-.74856-.13948-1.03682-.42077l-5.6537-5.49562c-.59048-.57188-.6021-1.51571-.03022-2.10386.5742-.58815,1.51571-.6021,2.10386-.03022l5.6537,5.49562c.59048.57188.6021,1.51571.03022,2.10386-.29291.29989-.67882.45099-1.06704.45099Z"/><path d="m168.27243,109.70397c-2.46419,0-4.78193-.96011-6.52314-2.70364-1.74121-1.74121-2.70132-4.05895-2.70132-6.52082,0-2.46419.96011-4.78193,2.70364-6.52314,3.47544-3.48242,9.55689-3.48474,13.04163,0h.00232c1.74121,1.74353,2.70132,4.05895,2.70132,6.52314,0,2.46187-.96011,4.77961-2.70132,6.52314-1.74353,1.74121-4.06127,2.70132-6.52314,2.70132Zm0-15.47328c-1.66914,0-3.23832.65092-4.41695,1.82955-1.18095,1.18095-1.83187,2.75013-1.83187,4.41928s.65092,3.23832,1.83187,4.41695c2.35726,2.36191,6.47665,2.36191,8.83391,0,1.18095-1.17863,1.83187-2.74781,1.83187-4.41695s-.65092-3.23832-1.82955-4.41695h-.00232c-1.17863-1.18095-2.74781-1.83187-4.41695-1.83187Z"/></svg>