<?xml version="1.0" encoding="UTF-8"?><svg id="uuid-1babe1a1-f39c-48b5-85a2-efacc13d998a" xmlns="http://www.w3.org/2000/svg" viewBox="0 0 360 208"><defs><style>.uuid-721f12b1-bfd2-4cd7-ba2b-3dc9616a0586{fill:#f2f2f2;}.uuid-3aeb8d70-dc2a-46bd-9a2e-44bc7422f073{fill:#fff;}.uuid-ac2b9b8e-29c0-44ea-89f0-eb5bdd2aad04{fill:#e0e0e0;}.uuid-dec05561-69ea-4f19-88eb-49bd9f3bde81{fill:#151515;}.uuid-e3b01b9b-6a88-4e4b-ad2f-4cf7cfab86cd{fill:#4d4d4d;}.uuid-7d406bcc-df9f-49b9-8b55-2c5c49ff1cd3{fill:none;stroke:#1e67cd;stroke-miterlimit:10;stroke-width:.75px;}</style></defs><rect class="uuid-dec05561-69ea-4f19-88eb-49bd9f3bde81" width="180" height="208"/><rect class="uuid-721f12b1-bfd2-4cd7-ba2b-3dc9616a0586" x="180" width="180" height="208"/><rect class="uuid-3aeb8d70-dc2a-46bd-9a2e-44bc7422f073" x="229.58266" y="63.58266" width="80.83468" height="80.83468" rx="20.20867" ry="20.20867"/><path class="uuid-ac2b9b8e-29c0-44ea-89f0-eb5bdd2aad04" d="m290.20867,66.38942c9.59547,0,17.40191,7.80647,17.40191,17.40191v40.41734c0,9.59544-7.80644,17.40191-17.40191,17.40191h-40.41734c-9.59547,0-17.40191-7.80647-17.40191-17.40191v-40.41734c0-9.59544,7.80644-17.40191,17.40191-17.40191h40.41734m0-2.80676h-40.41734c-11.16098,0-20.20867,9.04774-20.20867,20.20867v40.41734c0,11.16096,9.04769,20.20867,20.20867,20.20867h40.41734c11.16098,0,20.20867-9.04771,20.20867-20.20867v-40.41734c0-11.16093-9.04769-20.20867-20.20867-20.20867h0Z"/><rect x="49.58266" y="63.58266" width="80.83468" height="80.83468" rx="20.20867" ry="20.20867"/><path class="uuid-e3b01b9b-6a88-4e4b-ad2f-4cf7cfab86cd" d="m110.20867,66.38942c9.59547,0,17.40191,7.80647,17.40191,17.40191v40.41734c0,9.59544-7.80644,17.40191-17.40191,17.40191h-40.41734c-9.59547,0-17.40191-7.80647-17.40191-17.40191v-40.41734c0-9.59544,7.80644-17.40191,17.40191-17.40191h40.41734m0-2.80676h-40.41734c-11.16098,0-20.20867,9.04774-20.20867,20.20867v40.41734c0,11.16096,9.04769,20.20867,20.20867,20.20867h40.41734c11.16098,0,20.20867-9.04771,20.20867-20.20867v-40.41734c0-11.16093-9.04769-20.20867-20.20867-20.20867h0Z"/><circle class="uuid-7d406bcc-df9f-49b9-8b55-2c5c49ff1cd3" cx="90" cy="104" r="24.69948"/><polyline class="uuid-7d406bcc-df9f-49b9-8b55-2c5c49ff1cd3" points="99.22704 83.79133 110.20867 83.79133 110.20867 95.77296"/><polyline class="uuid-7d406bcc-df9f-49b9-8b55-2c5c49ff1cd3" points="69.79133 94.77295 69.79133 83.79133 80.77296 83.79133"/><polyline class="uuid-7d406bcc-df9f-49b9-8b55-2c5c49ff1cd3" points="80.77295 124.20867 69.79133 124.20867 69.79133 113.22704"/><polyline class="uuid-7d406bcc-df9f-49b9-8b55-2c5c49ff1cd3" points="110.20867 113.22704 110.20867 124.20867 99.22704 124.20867"/><circle class="uuid-7d406bcc-df9f-49b9-8b55-2c5c49ff1cd3" cx="270" cy="104" r="24.69948"/><polyline class="uuid-7d406bcc-df9f-49b9-8b55-2c5c49ff1cd3" points="279.22704 83.79133 290.20867 83.79133 290.20867 94.77296"/><polyline class="uuid-7d406bcc-df9f-49b9-8b55-2c5c49ff1cd3" points="249.79133 94.77295 249.79133 83.79133 260.77296 83.79133"/><polyline class="uuid-7d406bcc-df9f-49b9-8b55-2c5c49ff1cd3" points="260.77295 124.20867 249.79133 124.20867 249.79133 113.22704"/><polyline class="uuid-7d406bcc-df9f-49b9-8b55-2c5c49ff1cd3" points="290.20867 113.22704 290.20867 124.20867 279.22704 124.20867"/></svg>