<?xml version="1.0" encoding="UTF-8"?><svg id="uuid-684f3ed5-aeb5-4827-9e9c-103522a87208" xmlns="http://www.w3.org/2000/svg" viewBox="0 0 360 208"><defs><style>.uuid-9ef3e9a7-6084-44bc-ac5c-addcb5a5f892{fill:#f2f2f2;}.uuid-91e56773-ca0f-4495-9869-d0e91348e15c{fill:#e00;}.uuid-3e4e5e24-f8db-4afa-9759-8e98d3fd3661{fill:#fff;}.uuid-7a20ebc9-a9c8-493e-8c55-19b3b2bd8925{fill:#151515;}.uuid-d766b27e-6046-45a0-b75a-ed61ab20b5fe{fill:none;stroke:#1e67cd;stroke-miterlimit:10;stroke-width:.75px;}</style></defs><rect class="uuid-7a20ebc9-a9c8-493e-8c55-19b3b2bd8925" width="180" height="208"/><rect class="uuid-9ef3e9a7-6084-44bc-ac5c-addcb5a5f892" x="180" width="180" height="208"/><path class="uuid-d766b27e-6046-45a0-b75a-ed61ab20b5fe" d="m110.20867,66.38942c9.59544,0,17.40191,7.80648,17.40191,17.40191v40.41734c0,9.59544-7.80647,17.40191-17.40191,17.40191h-40.41734c-9.59544,0-17.40191-7.80647-17.40191-17.40191v-40.41734c0-9.59544,7.80647-17.40191,17.40191-17.40191h40.41734m0-2.80676h-40.41734c-11.16096,0-20.20867,9.04774-20.20867,20.20867v40.41734c0,11.16093,9.04771,20.20867,20.20867,20.20867h40.41734c11.16093,0,20.20867-9.04774,20.20867-20.20867v-40.41734c0-11.16093-9.04774-20.20867-20.20867-20.20867h0Z"/><path class="uuid-d766b27e-6046-45a0-b75a-ed61ab20b5fe" d="m290.20867,66.38942c9.59544,0,17.40191,7.80647,17.40191,17.40191v40.41734c0,9.59544-7.80647,17.40191-17.40191,17.40191h-40.41734c-9.59544,0-17.40191-7.80647-17.40191-17.40191v-40.41734c0-9.59543,7.80647-17.40191,17.40191-17.40191h40.41734m0-2.80676h-40.41734c-11.16093,0-20.20867,9.04774-20.20867,20.20867v40.41734c0,11.16095,9.04774,20.20867,20.20867,20.20867h40.41734c11.16093,0,20.20867-9.04771,20.20867-20.20867v-40.41734c0-11.16093-9.04774-20.20867-20.20867-20.20867h0Z"/><line class="uuid-d766b27e-6046-45a0-b75a-ed61ab20b5fe" x1="229.58266" y1="144.41734" x2="310.41734" y2="63.58266"/><line class="uuid-d766b27e-6046-45a0-b75a-ed61ab20b5fe" x1="229.58266" y1="63.58266" x2="310.41734" y2="144.41734"/><line class="uuid-d766b27e-6046-45a0-b75a-ed61ab20b5fe" x1="270" y1="58.44894" x2="270" y2="149.55106"/><line class="uuid-d766b27e-6046-45a0-b75a-ed61ab20b5fe" x1="315.55106" y1="104" x2="224.44894" y2="104"/><path d="m290.20867,107.64879h-6.73622c-.77405,0-1.40338-.62933-1.40338-1.40338,0-.77515.62933-1.40338,1.40338-1.40338h6.73622c.77405,0,1.40338.62823,1.40338,1.40338,0,.77405-.62933,1.40338-1.40338,1.40338Z"/><path d="m256.52755,107.64879h-6.73622c-.77405,0-1.40338-.62933-1.40338-1.40338,0-.77515.62933-1.40338,1.40338-1.40338h6.73622c.77405,0,1.40338.62823,1.40338,1.40338,0,.77405-.62933,1.40338-1.40338,1.40338Z"/><path d="m276.73622,91.93093c-.77405,0-1.40338-.62823-1.40338-1.40338v-5.33284h-10.66569v5.33284c0,.77515-.62933,1.40338-1.40338,1.40338s-1.40338-.62823-1.40338-1.40338v-6.73622c0-.77515.62933-1.40338,1.40338-1.40338h13.47245c.77405,0,1.40338.62823,1.40338,1.40338v6.73622c0,.77515-.62933,1.40338-1.40338,1.40338Z"/><path class="uuid-91e56773-ca0f-4495-9869-d0e91348e15c" d="m290.20867,123.36664h-40.41734c-.77405,0-1.40338-.62933-1.40338-1.40338v-26.94489c0-.37168.14692-.7291.41005-.99223l4.49082-4.49082c.26313-.26313.62056-.41115.99333-.41115h31.43571c.37277,0,.7302.14801.99333.41115l4.49082,4.49082c.26313.26313.41005.62056.41005.99223v26.94489c0,.77405-.62933,1.40338-1.40338,1.40338Zm-39.01396-2.80676h37.61058v-24.96042l-3.66852-3.66852h-30.27353l-3.66852,3.66852v24.96042Z"/><path class="uuid-91e56773-ca0f-4495-9869-d0e91348e15c" d="m278.98163,104.84204h-1.72736c-.19244-.99622-.58228-1.92285-1.13232-2.73389l1.22168-1.22192c.54602-.54822.54602-1.43628,0-1.98444-.54822-.54822-1.43848-.54822-1.98669,0l-1.22107,1.22107c-.81073-.54926-1.73682-.93854-2.73248-1.13074v-1.72839c0-.77515-.62933-1.40332-1.40338-1.40332s-1.40338.62817-1.40338,1.40332v1.72839c-.99567.1922-1.92175.58148-2.73248,1.13074l-1.22107-1.22107c-.54822-.54822-1.43848-.54822-1.98669,0-.54602.54816-.54602,1.43622,0,1.98444l1.22168,1.22192c-.55005.81104-.93988,1.73767-1.13232,2.73389h-1.72736c-.77405,0-1.40338.62817-1.40338,1.40338,0,.77405.62933,1.40332,1.40338,1.40332h1.72729c.19226.99597.58167,1.92224,1.13116,2.73315l-1.22046,1.22046c-.54602.54822-.54602,1.43848,0,1.98663.27411.27411.63373.4101.99335.4101s.71924-.13599.99335-.4101l1.22034-1.22052c.81085.54956,1.73718.93903,2.73322,1.13129v1.72729c0,.77405.62933,1.40338,1.40338,1.40338s1.40338-.62933,1.40338-1.40338v-1.72729c.99603-.19226,1.92236-.58173,2.73322-1.13129l1.22034,1.22052c.27411.27411.63373.4101.99335.4101s.71924-.13599.99335-.4101c.54602-.54816.54602-1.43842,0-1.98663l-1.22046-1.22046c.5495-.81091.9389-1.73718,1.13116-2.73315h1.72729c.77405,0,1.40338-.62927,1.40338-1.40332,0-.77521-.62933-1.40338-1.40338-1.40338Zm-13.56671,1.40338c0-2.52722,2.05682-4.58405,4.58508-4.58405s4.58508,2.05682,4.58508,4.58405c0,2.52826-2.05682,4.58508-4.58508,4.58508s-4.58508-2.05682-4.58508-4.58508Z"/><line class="uuid-d766b27e-6046-45a0-b75a-ed61ab20b5fe" x1="49.58266" y1="144.41734" x2="130.41734" y2="63.58266"/><line class="uuid-d766b27e-6046-45a0-b75a-ed61ab20b5fe" x1="49.58266" y1="63.58266" x2="130.41734" y2="144.41734"/><line class="uuid-d766b27e-6046-45a0-b75a-ed61ab20b5fe" x1="90" y1="58.44894" x2="90" y2="149.55106"/><line class="uuid-d766b27e-6046-45a0-b75a-ed61ab20b5fe" x1="135.55106" y1="104" x2="44.44894" y2="104"/><path class="uuid-3e4e5e24-f8db-4afa-9759-8e98d3fd3661" d="m70.0128,111.16382c-.53723,0-1.05034-.30918-1.28278-.83326-.31576-.70608.00219-1.53714.71046-1.8529l6.15404-2.73988c.70936-.31686,1.53824.00439,1.8529.71156.31576.70608-.00219,1.53714-.71046,1.8529l-6.15404,2.74098c-.18529.08113-.37935.1206-.57012.1206Z"/><path class="uuid-3e4e5e24-f8db-4afa-9759-8e98d3fd3661" d="m67.16876,118.57322c-.53723,0-1.05034-.30918-1.28278-.83326-.31576-.70827.00329-1.53714.71046-1.8529l6.15294-2.73878c.71265-.30918,1.53714.00219,1.8529.71265.31576.70827-.00329,1.53714-.71046,1.8529l-6.15294,2.73878c-.18639.08113-.37935.1206-.57012.1206Z"/><path class="uuid-3e4e5e24-f8db-4afa-9759-8e98d3fd3661" d="m106.68049,94.83746c-.53723,0-1.05034-.31028-1.28278-.83216-.31576-.70827.00329-1.53824.71046-1.8529l6.15294-2.73988c.70608-.31686,1.53824.00439,1.8529.71046.31576.70827-.00329,1.53824-.71046,1.8529l-6.15294,2.73988c-.18529.08333-.37935.1217-.57012.1217Z"/><path class="uuid-3e4e5e24-f8db-4afa-9759-8e98d3fd3661" d="m103.83535,102.24906c-.53723,0-1.05034-.31028-1.28278-.83216-.31576-.70827.00329-1.53824.71046-1.8529l6.15404-2.73988c.70936-.31905,1.53714.00329,1.8529.71046.31576.70827-.00329,1.53824-.71046,1.8529l-6.15404,2.73988c-.18639.08333-.37935.1217-.57012.1217Z"/><path class="uuid-91e56773-ca0f-4495-9869-d0e91348e15c" d="m89.89036,125.63179c-4.9217,0-9.77542-1.69721-13.74654-4.97981-.59753-.49338-.68195-1.37707-.18858-1.9757.49447-.59644,1.37926-.68195,1.9757-.18639,5.54664,4.58291,13.07336,5.61133,19.64403,2.68835,6.56957-2.92517,10.84001-9.20749,11.14481-16.39652.0318-.77405.68305-1.40338,1.46149-1.34308.77405.03289,1.37597.68744,1.34308,1.46149-.35084,8.2613-5.25719,15.47994-12.80694,18.84366-2.84623,1.26743-5.84924,1.88798-8.82704,1.88798Z"/><path class="uuid-91e56773-ca0f-4495-9869-d0e91348e15c" d="m69.73432,104.50763c-.02193,0-.04276,0-.06469-.0011-.77405-.03508-1.37378-.69182-1.33869-1.46587.37277-8.23499,5.27912-15.43279,12.80474-18.78336,7.55303-3.36263,16.20136-2.17634,22.57358,3.08963.59753.49447.68195,1.37816.18858,1.9757-.49338.59863-1.38036.68086-1.9757.18858-5.54774-4.58401-13.07226-5.61681-19.64403-2.69054-6.54984,2.9164-10.81918,9.18008-11.14262,16.34718-.03399.75212-.65564,1.33979-1.40119,1.33979Z"/></svg>