<?xml version="1.0" encoding="UTF-8"?><svg id="uuid-40cc1da8-e129-41c2-91a1-744ca4160775" xmlns="http://www.w3.org/2000/svg" viewBox="0 0 262 180"><defs><style>.uuid-8e07fcf6-eadc-439d-b09a-152d454627f7{fill:#f3f3f3;}.uuid-44c6d60a-83ac-4058-88f2-0cda2ecaebdf{fill:#ed0000;}.uuid-f3a94df4-038e-4768-aadd-2613d4c20565{fill:#e00;}.uuid-4a9d599a-f681-43b1-ad4a-0ae879e49704{fill:#fff;}.uuid-f6e2eb98-d2e7-49dc-8dd0-021960eadbe0{fill:#dfdfdf;}.uuid-17aed9ee-2dc8-4a6f-b9f2-0a0a5b1d3e32{fill:#4d4d4d;}</style></defs><rect class="uuid-8e07fcf6-eadc-439d-b09a-152d454627f7" width="262" height="180"/><path class="uuid-4a9d599a-f681-43b1-ad4a-0ae879e49704" d="m195.93608,60.8583h-32.49999c-8.97462,0-16.25,7.27538-16.25,16.25v32.49999c0,8.97464,7.27538,16.25,16.25,16.25h32.49999c8.97462,0,16.25-7.27536,16.25-16.25v-32.49999c0-8.97462-7.27537-16.25-16.25-16.25h0Z"/><path class="uuid-f6e2eb98-d2e7-49dc-8dd0-021960eadbe0" d="m195.9361,63.11525c7.71576,0,13.99305,6.27724,13.99305,13.99305v32.49999c0,7.71582-6.27729,13.99305-13.99305,13.99305h-32.49999c-7.71576,0-13.99305-6.27724-13.99305-13.99305v-32.49999c0-7.71582,6.27729-13.99305,13.99305-13.99305h32.49999m0-2.25694h-32.49999c-8.97466,0-16.25,7.27534-16.25,16.25v32.49999c0,8.97466,7.27534,16.25,16.25,16.25h32.49999c8.9746,0,16.25-7.27534,16.25-16.25v-32.49999c0-8.97466-7.27539-16.25-16.25-16.25h0Z"/><path d="m179.68572,103.514c-.19396,0-.38968-.05113-.56424-.15164l-7.81819-4.51389c-.34912-.20101-.56424-.57305-.56424-.97683v-9.02778c0-.40378.21511-.77582.56424-.97683l7.81819-4.51389c.34912-.20101.77935-.20101,1.12847,0l7.81819,4.51389c.34912.20101.56424.57305.56424.97683v9.02778c0,.40378-.21511.77582-.56424.97683l-7.81819,4.51389c-.17456.1005-.37028.15164-.56424.15164Zm-6.68972-6.29299l6.68972,3.86149,6.68972-3.86149v-7.72651l-6.68972-3.86149-6.68972,3.86149v7.72651Zm14.50792.65063h.01763-.01763Z"/><path d="m194.13016,112.54177c-2.61312,0-4.73958-2.12646-4.73958-4.73958s2.12646-4.73958,4.73958-4.73958,4.73958,2.12646,4.73958,4.73958-2.12646,4.73958-4.73958,4.73958Zm0-7.22222c-1.36827,0-2.48264,1.11437-2.48264,2.48264s1.11437,2.48264,2.48264,2.48264,2.48264-1.11437,2.48264-2.48264-1.11437-2.48264-2.48264-2.48264Z"/><path class="uuid-f3a94df4-038e-4768-aadd-2613d4c20565" d="m184.32304,113.80249c-.50958,0-.97154-.34736-1.09497-.86575-.14635-.60655.22746-1.21487.83401-1.35946.82696-.19925,1.64686-.45492,2.43503-.76348.57305-.22922,1.2325.05642,1.46172.64006.22746.58011-.05995,1.23427-.64006,1.46172-.88515.34559-1.80379.63477-2.73125.85517-.08816.02116-.17632.03174-.26449.03174Z"/><path class="uuid-f3a94df4-038e-4768-aadd-2613d4c20565" d="m178.94693,114.33498h-.04055c-1.91488-.07053-3.80507-.40025-5.6212-.98036-.59421-.19043-.92041-.8252-.73174-1.41941.19043-.59421.8252-.91512,1.41941-.73174,1.61865.51839,3.30607.81285,5.01465.87457.62242.02292,1.10908.5466,1.08792,1.16903-.02292.61008-.52368,1.08792-1.12847,1.08792Zm-10.18975-3.26023c-.21335,0-.42847-.05995-.62066-.1869-1.59044-1.05089-3.03277-2.31337-4.28996-3.7557-.41083-.47078-.36146-1.18313.10756-1.5922.47255-.40907,1.1849-.36146,1.5922.10756,1.12495,1.29069,2.41387,2.41916,3.83504,3.3572.52016.34383.66298,1.04384.31915,1.56399-.21688.32796-.57658.50605-.94333.50605Zm-7.01945-8.07563c-.42141,0-.8252-.23804-1.01915-.64358-.82167-1.72797-1.40177-3.55998-1.72268-5.44488-.10403-.61361.30857-1.19724.92394-1.30127.60303-.1005,1.19724.30857,1.30127.92394.28564,1.6786.80227,3.31136,1.53578,4.85243.26801.56247.02821,1.23603-.53426,1.50404-.15693.07406-.32091.10932-.48489.10932Zm37.79147-9.30989c-.60303,0-1.10379-.47607-1.12847-1.08439-.06524-1.7121-.36499-3.39776-.88691-5.01112-.19219-.59245.13401-1.22898.72645-1.42117.59245-.19043,1.22898.13401,1.42117.72645.58539,1.80908.92041,3.69927.99623,5.61767.02292.62242-.46197,1.14787-1.08439,1.17255h-.04408Zm-39.60055-1.23074c-.03879,0-.07758-.00176-.11637-.00529-.6189-.06348-1.07205-.61713-1.00857-1.23779.19396-1.90782.64711-3.77333,1.34711-5.54714.22746-.57834.88162-.86928,1.46349-.63477.58011.22746.86399.88338.63477,1.46349-.62242,1.57986-1.0262,3.24436-1.199,4.94764-.05995.58011-.55013,1.01386-1.12142,1.01386Zm36.31564-8.94667c-.36675,0-.72469-.17632-.94157-.50429-.94157-1.41764-2.07533-2.70481-3.36778-3.8227-.47078-.40731-.52192-1.12142-.11461-1.5922.41083-.47078,1.12318-.52192,1.5922-.11461,1.44585,1.2519,2.71539,2.69246,3.7698,4.28114.34559.51839.20454,1.2184-.31562,1.56399-.19219.12695-.40907.18867-.62242.18867Zm-32.39772-1.01033c-.23804,0-.47784-.07406-.68061-.22922-.49723-.37557-.59597-1.08439-.21864-1.57986,1.15316-1.52344,2.50909-2.88289,4.02723-4.03958.49547-.37381,1.20253-.28212,1.58162.21335.37733.49547.28212,1.20429-.21335,1.58162-1.35593,1.03326-2.56727,2.24636-3.597,3.60582-.22217.29446-.55895.44786-.89925.44786Zm24.3027-5.98795c-.16222,0-.3262-.03526-.48136-.10756-1.54283-.72822-3.17735-1.23956-4.85772-1.52167-.61361-.10227-1.02973-.68414-.9257-1.29951.1005-.61361.67708-1.03678,1.29951-.9257,1.8849.31562,3.7169.88867,5.44664,1.70505.56424.26625.8058.93981.53955,1.50228-.19219.40907-.5995.64711-1.02091.64711Zm-15.79155-.49194c-.44786,0-.8728-.26978-1.04913-.71235-.22922-.57834.0529-1.23427.633-1.46525,1.77558-.70529,3.64109-1.16374,5.54185-1.35946.63829-.04937,1.17608.38791,1.23956,1.00681.06348.62066-.38791,1.17432-1.00681,1.23956-1.69623.17456-3.35897.58187-4.94235,1.21134-.13577.05466-.27683.07935-.41612.07935Z"/><path class="uuid-f3a94df4-038e-4768-aadd-2613d4c20565" d="m198.19266,101.70844c-.13753,0-.27683-.02469-.41083-.07758-.58011-.22746-.86751-.88162-.64006-1.46172.30857-.78817.56424-1.60807.76348-2.43503.14459-.60832.75819-.9786,1.35946-.83401.60655.14459.98036.7529.83401,1.35946-.2204.92746-.50958,1.84611-.85517,2.73125-.17456.4461-.5995.71764-1.05089.71764Z"/><rect x="49.8139" y="60.8583" width="64.99997" height="64.99997" rx="16.24999" ry="16.24999"/><path class="uuid-17aed9ee-2dc8-4a6f-b9f2-0a0a5b1d3e32" d="m98.56391,63.11526c7.71576,0,13.99305,6.27729,13.99305,13.99305v32.49999c0,7.71576-6.27729,13.99305-13.99305,13.99305h-32.49999c-7.71576,0-13.99305-6.27729-13.99305-13.99305v-32.49999c0-7.71576,6.27729-13.99305,13.99305-13.99305h32.49999m0-2.25694h-32.49999c-8.97466,0-16.24999,7.27534-16.24999,16.24999v32.49999c0,8.9746,7.27534,16.24999,16.24999,16.24999h32.49999c8.9746,0,16.24999-7.27539,16.24999-16.24999v-32.49999c0-8.97466-7.27539-16.24999-16.24999-16.24999h0Z"/><path class="uuid-4a9d599a-f681-43b1-ad4a-0ae879e49704" d="m94.82386,92.68084c-.55189,0-1.03502-.40554-1.11613-.96802-.7194-5.0217-4.72724-9.02954-9.74894-9.74717-.61713-.08816-1.0456-.66121-.95744-1.27835.08816-.61537.65769-1.04031,1.27835-.95744,6.00559.86046,10.80159,5.6547,11.66381,11.66205.08816.61713-.3403,1.18842-.95744,1.27835-.05466.00705-.10932.01058-.16222.01058Z"/><path class="uuid-4a9d599a-f681-43b1-ad4a-0ae879e49704" d="m84.11748,114.26639c-.57658,0-1.06852-.44081-1.12142-1.02797-.05642-.62066.40202-1.16903,1.02268-1.22369,9.70662-.87457,17.02758-8.89553,17.02758-18.65681s-7.32096-17.78225-17.02758-18.65681c-.62066-.05466-1.0791-.60303-1.02268-1.22369.05642-.62242.64711-1.07028,1.22369-1.02268,10.87917.9786,19.08352,9.96582,19.08352,20.90318s-8.20434,19.92458-19.08352,20.90318c-.0335.00353-.06877.00529-.10227.00529Z"/><path class="uuid-44c6d60a-83ac-4058-88f2-0cda2ecaebdf" d="m82.31369,107.12528c-7.59074,0-13.76736-6.17662-13.76736-13.76736,0-6.8061,5.0746-12.66533,11.80135-13.62806.62771-.08464,1.19019.34207,1.27835.95744.08816.61713-.3403,1.18842-.95744,1.27835-5.62473.80404-9.86531,5.70231-9.86531,11.39228,0,6.34765,5.16276,11.51041,11.51041,11.51041,5.69173,0,10.59-4.24059,11.39404-9.86531.08816-.61537.65769-1.03149,1.27835-.95744.61713.08993,1.0456.66121.95744,1.27835-.96273,6.72675-6.82196,11.80135-13.62982,11.80135Z"/><path class="uuid-44c6d60a-83ac-4058-88f2-0cda2ecaebdf" d="m80.5099,114.26639c-.03526,0-.06877-.00176-.10227-.00529-10.87917-.9786-19.08352-9.96582-19.08352-20.90318s8.20434-19.92458,19.08352-20.90318c.61184-.05995,1.16726.40202,1.22369,1.02268s-.40202,1.16903-1.02268,1.22369c-9.70662.87457-17.02758,8.89553-17.02758,18.65681s7.32096,17.78225,17.02758,18.65681c.62066.05466,1.0791.60303,1.02268,1.22369-.0529.58716-.54484,1.02797-1.12142,1.02797Z"/><path class="uuid-4a9d599a-f681-43b1-ad4a-0ae879e49704" d="m80.50814,98.0975c-.28917,0-.57834-.10932-.79875-.32973l-3.61111-3.61111c-.43905-.44081-.43905-1.15668,0-1.59749.44081-.44081,1.15668-.44081,1.59749,0l2.81236,2.81413,6.42347-6.42524c.44081-.44081,1.15668-.44081,1.59749,0,.43905.44081.43905,1.15668,0,1.59749l-7.22222,7.22222c-.2204.2204-.50958.32973-.79875.32973Z"/></svg>