<?xml version="1.0" encoding="UTF-8"?><svg id="uuid-cd68c409-11e0-4ab7-90c2-a99d07674ecd" xmlns="http://www.w3.org/2000/svg" viewBox="0 0 262 180"><defs><style>.uuid-2368c89b-2acd-4309-b842-4dae933a9bba{fill:#f3f3f3;}.uuid-c65d1769-20ed-421e-9669-d730e74a2151{fill:#e00;}.uuid-0204f103-b42e-4565-a84a-e3f0b53bcd32{fill:#fff;}.uuid-98021664-e5da-49de-9fd9-35e04312109d{fill:#4d4d4d;}</style></defs><rect class="uuid-2368c89b-2acd-4309-b842-4dae933a9bba" width="262" height="180"/><rect x="99.9396" y="27.64301" width="65" height="65" rx="16.25" ry="16.25"/><path class="uuid-98021664-e5da-49de-9fd9-35e04312109d" d="m148.6896,29.89995c7.71582,0,13.99306,6.27729,13.99306,13.99306v32.5c0,7.71576-6.27724,13.99306-13.99306,13.99306h-32.5c-7.71582,0-13.99306-6.27729-13.99306-13.99306v-32.5c0-7.71576,6.27724-13.99306,13.99306-13.99306h32.5m0-2.25694h-32.5c-8.97466,0-16.25,7.27539-16.25,16.25v32.5c0,8.97461,7.27534,16.25,16.25,16.25h32.5c8.97466,0,16.25-7.27539,16.25-16.25v-32.5c0-8.97461-7.27534-16.25-16.25-16.25h0Z"/><path class="uuid-0204f103-b42e-4565-a84a-e3f0b53bcd32" d="m116.36769,65.90351c-.43199,0-.84283-.24862-1.03149-.67003-.25214-.56776.00353-1.23603.57305-1.48994l4.94765-2.20405c.56424-.25038,1.23427.00176,1.48994.57305.25214.56776-.00353,1.23603-.57305,1.48994l-4.94765,2.20405c-.14811.06524-.30504.09698-.45844.09698Z"/><path class="uuid-0204f103-b42e-4565-a84a-e3f0b53bcd32" d="m114.079,71.86149c-.43199,0-.84459-.24862-1.03149-.67003-.25214-.56953.00353-1.23603.57305-1.48994l4.94941-2.20228c.56424-.24862,1.23603.00176,1.48994.57305.25214.56953-.00353,1.23603-.57305,1.48994l-4.94941,2.20228c-.14811.06524-.30504.09698-.45844.09698Z"/><path class="uuid-0204f103-b42e-4565-a84a-e3f0b53bcd32" d="m145.85079,52.7762c-.43199,0-.84459-.24862-1.03149-.67003-.25214-.56953.00353-1.23603.57305-1.48994l4.94941-2.20405c.56424-.24685,1.23603.00176,1.48994.57305.25214.56953-.00353,1.23603-.57305,1.48994l-4.94941,2.20405c-.14811.06524-.30504.09698-.45844.09698Z"/><path class="uuid-0204f103-b42e-4565-a84a-e3f0b53bcd32" d="m143.56387,58.73595c-.43199,0-.84283-.24862-1.03149-.67003-.25214-.56776.00353-1.23603.57305-1.48994l4.94765-2.20405c.566-.24862,1.23427.00176,1.48994.57305.25214.56776-.00353,1.23603-.57305,1.48994l-4.94765,2.20405c-.14811.06524-.30504.09698-.45844.09698Z"/><path class="uuid-c65d1769-20ed-421e-9669-d730e74a2151" d="m132.35144,77.53735c-3.95671,0-7.86051-1.36475-11.05374-4.00431-.4796-.39673-.5466-1.10731-.14988-1.58868s1.10555-.5466,1.58868-.14988c4.45747,3.68517,10.51066,4.51213,15.79508,2.16173,5.2809-2.35216,8.71568-7.40384,8.96254-13.18549.02645-.62242.52897-1.18137,1.17432-1.0791.62242.02645,1.10555.55189,1.0791,1.17432-.28212,6.64388-4.22824,12.45022-10.29907,15.15327-2.28868,1.01915-4.70256,1.51815-7.09703,1.51815Z"/><path class="uuid-c65d1769-20ed-421e-9669-d730e74a2151" d="m116.14199,60.55208c-.01587,0-.0335,0-.05113-.00176-.62242-.02821-1.10379-.55542-1.07558-1.17784.29975-6.62272,4.24588-12.41143,10.29731-15.10566,6.07259-2.70128,13.0268-1.74913,18.15077,2.48617.4796.39673.5466,1.10731.14988,1.58868s-1.10731.54837-1.58868.14988c-4.45923-3.68517-10.51242-4.51389-15.79508-2.16173-5.26503,2.34334-8.69805,7.38091-8.96077,13.14494-.02645.60479-.52544,1.07734-1.12671,1.07734Z"/><g id="uuid-988b5e6e-8f1c-48e7-af2b-b30f36a8d2a1"><path d="m118.45018,149.48883c-3.13569,0-5.5946-2.44265-5.5946-5.54731s2.4589-5.54879,5.5946-5.54879,5.61528,2.44413,5.61528,5.54879-2.48107,5.54731-5.61528,5.54731Zm0-9.60509c-2.22838,0-3.94991,1.75256-3.94991,4.05778s1.72153,4.0563,3.94991,4.0563,3.96468-1.77325,3.96468-4.0563-1.72153-4.05778-3.96468-4.05778Z"/><path d="m125.59637,141.49739h1.51465v.75363c.66355-.57766,1.51717-.88974,2.39684-.87628,2.21656,0,3.95139,1.77325,3.95139,4.02675s-1.73778,4.04153-3.98094,4.04153c-.84578.00248-1.66997-.2669-2.35103-.76841v3.82726h-1.53681l.00591-11.00448Zm1.53681,2.15154v3.53467c.4906.56892,1.30629.92209,2.1811.92209,1.50726,0,2.64361-1.15261,2.64361-2.68943s-1.15261-2.7042-2.64362-2.7042c-.89105,0-1.67424.33839-2.18109.93687Z"/><path d="m138.7051,149.4578c-2.30522,0-4.10359-1.77325-4.10359-4.0563,0-2.25941,1.72153-4.02675,3.91888-4.02675,2.15154,0,3.77997,1.78211,3.77997,4.08734v.44331h-6.17533c.19635,1.30295,1.32459,2.26083,2.64214,2.24316.72042.0151,1.42276-.22634,1.9816-.68123l.98415.96938c-.85785.68573-1.92989,1.04726-3.02782,1.0211Zm-2.56678-4.70206h4.64148c-.23052-1.19842-1.15261-2.08948-2.29044-2.08948-1.18217,0-2.12051.84525-2.35103,2.08948Z"/><path d="m143.76034,141.49739h1.53681v.78466c.62323-.62168,1.47399-.96081,2.35399-.93834,1.79689,0,3.05737,1.24571,3.05737,3.05885v4.91781h-1.53681v-4.66069c0-1.22945-.75363-1.98308-1.9358-1.98308-.77908-.02626-1.51469.35866-1.93727,1.01371v5.62563h-1.53681l-.00148-7.81855Z"/><path d="m152.67534,146.40042c1.16739,1.13636,2.36433,1.6905,3.70461,1.6905,1.55159,0,2.61258-.73885,2.61258-1.79837,0-.95312-.61472-1.42894-2.18258-1.6905l-1.79837-.29554c-1.96683-.32214-2.9362-1.24423-2.9362-2.7973,0-1.87373,1.56784-3.08841,3.96616-3.08841,1.56471.00437,3.08569.51672,4.33412,1.45997l-.88662,1.22945c-1.16739-.88662-2.32-1.32107-3.51842-1.32107-1.39939,0-2.33625.64428-2.33625,1.5974,0,.87628.53789,1.29152,1.92102,1.52204l1.72892.27337c2.27419.36943,3.30415,1.30629,3.30415,2.98201,0,1.9816-1.72153,3.30415-4.28535,3.30415-1.73413-.00281-3.39477-.7006-4.61045-1.93727l.98268-1.13044Z"/><path d="m161.89475,138.56267l1.53682-.33839v4.05778c.62251-.62092,1.47205-.95999,2.35103-.93834,1.79837,0,3.05885,1.24571,3.05885,3.05885v4.91781h-1.53682v-4.66069c0-1.22945-.75363-1.98308-1.93727-1.98308-.77856-.02573-1.51349.35912-1.93579,1.01371v5.62563h-1.53682v-10.75327Z"/><path d="m170.43885,139.28379c-.00409-.52148.41533-.94754.93682-.95163.00051,0,.00102,0,.00152-.00001.52598.02072.93558.46392.91486.9899-.01958.49693-.41793.89528-.91486.91486-.52149-.00324-.9416-.42862-.93837-.95011,0-.00101.00002-.00201.00003-.00301Zm1.70675,10.03658h-1.53682v-7.82298h1.53682v7.82298Z"/><path d="m175.12613,141.49739v-1.18217c0-1.62548.93687-2.51949,2.65987-2.51949.3735-.00537.74595.04087,1.1068.13743v1.33732c-.31314-.09773-.63991-.14463-.9679-.1389-.84524,0-1.26049.3842-1.26049,1.21467v1.15261h2.22838v1.29152h-2.22985v6.53146h-1.53682v-6.53146h-1.81315v-1.29299h1.81315Z"/><path d="m181.22758,142.78891h-1.65798v-1.29151h1.65946v-1.99786l1.52056-.36943v2.36433h2.30522v1.29152h-2.30522v4.23806c0,.79944.32362,1.09202,1.15261,1.09202.38264.00969.76367-.05298,1.12305-.18471v1.29004c-.47279.14773-.96467.22539-1.45997.23052-1.52204,0-2.33625-.72112-2.33625-2.06879l-.00147-4.59419Z"/><path class="uuid-c65d1769-20ed-421e-9669-d730e74a2151" d="m98.59129,129.43931c1.84861,0,4.52326-.38125,4.52326-2.58008.00553-.1697-.00986-.33944-.04581-.50538l-1.10089-4.78186c-.25417-1.05213-.4773-1.52943-2.32443-2.45299-1.43781-.73442-4.5602-1.94466-5.48525-1.94466-.86003,0-1.11567,1.11419-2.13529,1.11419-.98711,0-1.72005-.82752-2.64362-.82752-.88662,0-1.46441.60438-1.91067,1.84713,0,0-1.24275,3.50512-1.40234,4.01345-.02636.09319-.03832.18987-.03547.28668,0,1.36244,5.36851,5.83103,12.5605,5.83103m4.80993-1.68754c.25564,1.21024.25564,1.33732.25564,1.49692,0,2.06879-2.32591,3.21697-5.38328,3.21697-6.92305-.00148-12.96983-4.04596-12.96983-6.72061-.0004-.3725.07554-.74114.22313-1.08316-2.4855.12561-5.70247.57187-5.70247,3.40611,0,4.65182,11.02221,10.38532,19.74955,10.38532,6.69105,0,8.3786-3.02634,8.3786-5.41579,0-1.87964-1.62548-4.01345-4.55577-5.28723"/><path d="m103.39679,127.75029c.25564,1.21024.25564,1.33732.25564,1.49692,0,2.06879-2.32591,3.21697-5.38328,3.21697-6.91862,0-12.9654-4.04448-12.9654-6.71913-.0004-.3725.07554-.74114.22313-1.08316l.54084-1.3388c-.02671.09264-.03917.18881-.03694.2852,0,1.36244,5.36851,5.83103,12.5605,5.83103,1.84861,0,4.52326-.38125,4.52326-2.58008.00553-.1697-.00986-.33944-.04581-.50538l.32805,1.39643Z"/><path d="m165.41908,130.81358c0,1.75699,1.05656,2.61111,2.98349,2.61111.59327-.01477,1.18285-.09807,1.757-.24825v-2.03628c-.36696.11629-.74994.17414-1.13488.17141-.79353,0-1.08759-.24825-1.08759-.9945v-3.12387h2.29931v-2.09834h-2.29931v-2.65987l-2.5121.5438v2.11608h-1.66686v2.09834h1.66242l-.00148,3.62038Zm-7.83184.04729c0-.5438.54527-.80831,1.36836-.80831.5031.00292,1.00408.06542,1.49248.18619v1.05656c-.47999.26215-1.0195.39601-1.56637.38864-.80683,0-1.29003-.31032-1.29003-.82308m.76841,2.59485c.88662,0,1.60184-.18619,2.26975-.63689v.49799h2.4855v-5.2695c0-2.00377-1.35063-3.10318-3.60413-3.10318-1.25901,0-2.50324.29554-3.84204.9014l.9014,1.85009c.96347-.40489,1.77325-.65315,2.48698-.65315,1.03439,0,1.56932.40341,1.56932,1.22797v.40341c-.609-.15765-1.23579-.23612-1.86486-.23348-2.1146,0-3.38838.88662-3.38838,2.4722,0,1.4452,1.14966,2.54757,2.98349,2.54757m-13.65992-.1389h2.67317v-4.26318h4.47597v4.25875h2.67317v-10.87887h-2.66726v4.18043h-4.47597v-4.18043h-2.67317l-.00591,10.88331Zm-10.17992-4.1228c0-1.18217.93243-2.08357,2.16041-2.08357.63988-.0137,1.26142.21423,1.74074.63837v2.86823c-.46998.44105-1.09663.67618-1.74074.65315-1.21172,0-2.16041-.9014-2.16041-2.08209m3.93217,4.11837h2.48698v-11.41676l-2.5121.5438v3.09284c-.6395-.36254-1.36326-.55011-2.09834-.5438-2.39241,0-4.27353,1.84861-4.27353,4.21146-.03103,2.30532,1.81264,4.1993,4.11796,4.23033.02428.00033.04855.00044.07283.00034.79275.00378,1.56589-.24634,2.20621-.71373v.59552Zm-11.40642-6.30981c.79205,0,1.45997.51276,1.72449,1.30482h-3.42976c.24825-.82308.87037-1.30482,1.70971-1.30482m-4.24693,2.21213c0,2.39388,1.95796,4.25875,4.47449,4.25875,1.38313,0,2.39389-.37386,3.43567-1.24423l-1.6639-1.47771c-.38864.40489-.96346.62211-1.64617.62211-.87877.02475-1.68218-.49382-2.0215-1.30482h5.85911v-.62064c0-2.61111-1.75552-4.49075-4.1494-4.49075-2.33137-.03518-4.24984,1.82626-4.28502,4.15763-.00051.03321-.00061.06643-.00033.09964m-4.33854-4.49075c.88662,0,1.38313.55857,1.38313,1.22797s-.49799,1.22797-1.38313,1.22797h-2.64214v-2.45595h2.64214Zm-5.31974,8.59434h2.67317v-3.96321h2.0348l2.05254,3.96321h2.98349l-2.39389-4.35185c1.24463-.50619,2.05654-1.71819,2.05106-3.06181,0-1.95796-1.53829-3.46522-3.84204-3.46522h-5.5547l-.00444,10.87888Z"/></g></svg>