<?xml version="1.0" encoding="UTF-8"?><svg id="uuid-c8f17f52-8d10-4cf4-80e9-5c79ce791c21" xmlns="http://www.w3.org/2000/svg" viewBox="0 0 360 208"><defs><style>.uuid-ea8a63e3-0867-4e75-aadb-6bfb4db42d8f{fill:none;}.uuid-a65215a5-3aa1-4d33-a6d3-6e1d600d1097{fill:#e00;}.uuid-fdfe28ca-8a6d-4ffe-9999-5ed5eada9c35{fill:#fff;}.uuid-fefcf6ad-0e24-47bb-b58f-1b616886bb45{fill:#1e67cd;}.uuid-529c1da8-5a92-41f2-918a-bec7b23b6d6c{fill:#151515;}.uuid-738e4e2f-5a35-468c-81d0-96f0a0273c3d{fill:#4d4d4d;}</style></defs><rect class="uuid-529c1da8-5a92-41f2-918a-bec7b23b6d6c" width="360" height="208"/><rect x="49.58265" y="63.58267" width="80.8347" height="80.8347" rx="20.20867" ry="20.20867"/><path class="uuid-738e4e2f-5a35-468c-81d0-96f0a0273c3d" d="m110.20868,66.38939c9.59544,0,17.40191,7.80644,17.40191,17.40191v40.41735c0,9.59548-7.80647,17.40191-17.40191,17.40191h-40.41735c-9.59544,0-17.40191-7.80644-17.40191-17.40191v-40.41735c0-9.59548,7.80647-17.40191,17.40191-17.40191h40.41735m0-2.80676h-40.41735c-11.16097,0-20.20867,9.04783-20.20867,20.20867v40.41735c0,11.16098,9.04771,20.20867,20.20867,20.20867h40.41735c11.16095,0,20.20867-9.04769,20.20867-20.20867v-40.41735c0-11.16085-9.04773-20.20867-20.20867-20.20867h0Z"/><path class="uuid-fdfe28ca-8a6d-4ffe-9999-5ed5eada9c35" d="m96.73671,118.8765h-20.20867c-.77405,0-1.40338-.62933-1.40338-1.40338s.62933-1.40338,1.40338-1.40338h20.20867c2.94052,0,5.33284-2.39232,5.33284-5.33284s-2.39232-5.33284-5.33284-5.33284h-15.71786c-4.48862,0-8.13961-3.65098-8.13961-8.13961s3.65098-8.13961,8.13961-8.13961h22.45408c.77405,0,1.40338.62933,1.40338,1.40338s-.62933,1.40338-1.40338,1.40338h-22.45408c-2.94052,0-5.33284,2.39232-5.33284,5.33284s2.39232,5.33284,5.33284,5.33284h15.71786c4.48862,0,8.13961,3.65098,8.13961,8.13961s-3.65098,8.13961-8.13961,8.13961Z"/><path class="uuid-a65215a5-3aa1-4d33-a6d3-6e1d600d1097" d="m103.47293,98.66782c-4.48862,0-8.13961-3.65098-8.13961-8.13961s3.65098-8.13961,8.13961-8.13961,8.13961,3.65098,8.13961,8.13961-3.65098,8.13961-8.13961,8.13961Zm0-13.47245c-2.94052,0-5.33284,2.39232-5.33284,5.33284s2.39232,5.33284,5.33284,5.33284,5.33284-2.39232,5.33284-5.33284-2.39232-5.33284-5.33284-5.33284Z"/><path class="uuid-a65215a5-3aa1-4d33-a6d3-6e1d600d1097" d="m76.52803,125.61272c-4.48862,0-8.13961-3.65098-8.13961-8.13961s3.65098-8.13961,8.13961-8.13961,8.13961,3.65098,8.13961,8.13961-3.65098,8.13961-8.13961,8.13961Zm0-13.47245c-2.94052,0-5.33284,2.39232-5.33284,5.33284s2.39232,5.33284,5.33284,5.33284,5.33284-2.39232,5.33284-5.33284-2.39232-5.33284-5.33284-5.33284Z"/><path class="uuid-a65215a5-3aa1-4d33-a6d3-6e1d600d1097" d="m256.52805,116.06969h5.12164c-.62067-2.25726-2.66998-3.92944-5.12164-3.92944-2.94055,0-5.33289,2.39233-5.33289,5.33282s2.39233,5.33289,5.33289,5.33289c2.45172,0,4.50098-1.67218,5.12164-3.9295h-5.12164c-.77405,0-1.40338-.62927-1.40338-1.40338,0-.77405.62933-1.40338,1.40338-1.40338Z"/><path class="uuid-a65215a5-3aa1-4d33-a6d3-6e1d600d1097" d="m283.47293,85.19536c-2.45172,0-4.50098,1.67218-5.12164,3.92944h5.12164c.77405,0,1.40338.62933,1.40338,1.40338s-.62933,1.40338-1.40338,1.40338h-5.12164c.62067,2.25732,2.66992,3.9295,5.12164,3.9295,2.94049,0,5.33282-2.39233,5.33282-5.33289s-2.39233-5.33282-5.33282-5.33282Z"/><path class="uuid-a65215a5-3aa1-4d33-a6d3-6e1d600d1097" d="m290.20865,63.58263h-40.41736c-11.16089,0-20.20862,9.04773-20.20862,20.20868v40.41736c0,11.16095,9.04773,20.20868,20.20862,20.20868h40.41736c11.16095,0,20.20868-9.04773,20.20868-20.20868v-40.41736c0-11.16095-9.04773-20.20868-20.20868-20.20868Zm-6.73572,35.08521c-4.00928,0-7.34198-2.91547-8.00989-6.73627h-14.44421c-2.94049,0-5.33282,2.39233-5.33282,5.33289s2.39233,5.33282,5.33282,5.33282h15.7179c4.48859,0,8.13959,3.651,8.13959,8.13959s-3.651,8.13959-8.13959,8.13959h-12.19879c-.66791,3.8208-4.00067,6.73627-8.00989,6.73627-4.48865,0-8.13965-3.651-8.13965-8.13965s3.651-8.13959,8.13965-8.13959c4.00922,0,7.34198,2.91547,8.00989,6.73621h12.19879c2.94049,0,5.33282-2.39227,5.33282-5.33282s-2.39233-5.33282-5.33282-5.33282h-15.7179c-4.48859,0-8.13959-3.651-8.13959-8.13959s3.651-8.13965,8.13959-8.13965h14.44421c.66791-3.82074,4.00061-6.73621,8.00989-6.73621,4.48859,0,8.13959,3.651,8.13959,8.13959s-3.651,8.13965-8.13959,8.13965Z"/><g id="uuid-61da2461-3cec-4ba2-b773-1cdc9d3bab11"><g id="uuid-c1c400e6-efcf-4144-a874-a77d30965b26"><rect class="uuid-ea8a63e3-0867-4e75-aadb-6bfb4db42d8f" x="154.6426" y="79.6426" width="48.71479" height="48.71479"/></g><g id="uuid-1cb96415-a857-473e-a39a-586f75bef009"><path class="uuid-fefcf6ad-0e24-47bb-b58f-1b616886bb45" d="m161.40855,104.83898h33.13959l-10.73079,10.73079c-.32476.32476-.32476.86604,0,1.1908.16238.16238.37889.24357.5954.24357s.43302-.08119.5954-.24357l12.1787-12.1787s.0406-.06766.06766-.10825c.0406-.05413.08119-.10825.10825-.17591.0406-.09472.05413-.18945.05413-.28417v-.08119c0-.09472-.01353-.18945-.05413-.28417-.02706-.06766-.06766-.12179-.10825-.17591-.02706-.02706-.0406-.06766-.06766-.10825l-12.1787-12.1787c-.32476-.32476-.86604-.32476-1.1908,0s-.32476.86604,0,1.19081l10.73079,10.73079h-33.13959c-.46008,0-.83898.37889-.83898.83898s.37889.83898.83898.83898v.05412Z"/></g></g></svg>