<svg xmlns="http://www.w3.org/2000/svg" viewBox="0 0 555 320"><defs><style>.abe922f6-f098-492f-be5b-d9876cf20f8e{fill:#dedede;}.ac235381-e987-48d6-8560-c84c1ac0d7f1{fill:#fff;}.b9400a22-3371-48a4-b5b3-1aa9ff69c640{fill:#0797f1;}.e80cbb57-4cb2-4da4-a247-2e7d9ee735e7{fill:#6c6c6c;}.bd4c6623-f0dc-4d40-8dae-7a944692f457{fill:#ed0000;}</style></defs><g id="a6636a38-307f-4252-92ac-cd5313260a2d" data-name="Layer 3"><rect class="abe922f6-f098-492f-be5b-d9876cf20f8e" width="555" height="320"/><rect x="57.29033" y="62.05209" width="440.41934" height="195.89582" rx="4"/><circle class="ac235381-e987-48d6-8560-c84c1ac0d7f1" cx="88.63689" cy="93.49784" r="14.77694"/><path class="ac235381-e987-48d6-8560-c84c1ac0d7f1" d="M78.95474,144.34834h7.5205a7.253,7.253,0,0,1,3.37012.74316,5.41832,5.41832,0,0,1,2.23145,2.08594,6.07252,6.07252,0,0,1,.792,3.14844v.02734a6.08413,6.08413,0,0,1-1.07715,3.60743,5.58184,5.58184,0,0,1-2.9541,2.12011l4.64355,8.32617H90.54751l-4.29492-7.9375h-4.7959v7.9375H78.95474Zm7.29785,9.91113a4.152,4.152,0,0,0,2.98144-1.001,3.7528,3.7528,0,0,0,1.04981-2.84961v-.02735a3.59983,3.59983,0,0,0-1.10547-2.80175,4.33753,4.33753,0,0,0-3.03711-1.00782H81.45669v7.6875Z"/><path class="ac235381-e987-48d6-8560-c84c1ac0d7f1" d="M97.54946,163.76729a5.98189,5.98189,0,0,1-2.29394-2.5918,9.06238,9.06238,0,0,1-.79883-3.94141v-.01367a9.1211,9.1211,0,0,1,.80566-3.94141,6.30958,6.30958,0,0,1,2.26563-2.65429,6.7323,6.7323,0,0,1,6.832-.042,5.90664,5.90664,0,0,1,2.18945,2.55078,8.92761,8.92761,0,0,1,.76465,3.80859v.88965H95.66567v-1.89063H106.1188l-1.22363,1.752v-.93164a6.64885,6.64885,0,0,0-.50684-2.78028,3.59566,3.59566,0,0,0-1.39746-1.63281,4.13031,4.13031,0,0,0-4.11426.02734,3.83263,3.83263,0,0,0-1.44531,1.668,6.26972,6.26972,0,0,0-.52832,2.71778v.93164a5.98414,5.98414,0,0,0,.52148,2.61328,3.80288,3.80288,0,0,0,1.48047,1.66113,4.30855,4.30855,0,0,0,2.26563.57715,4.53455,4.53455,0,0,0,1.63964-.27832,3.42841,3.42841,0,0,0,1.21-.76465,2.81347,2.81347,0,0,0,.69433-1.1123l.042-.125h2.377l-.02735.13964a4.79579,4.79579,0,0,1-.68847,1.668,5.356,5.356,0,0,1-1.29981,1.36914,6.1621,6.1621,0,0,1-1.80664.917,7.13371,7.13371,0,0,1-2.19629.32714A6.6753,6.6753,0,0,1,97.54946,163.76729Z"/><path class="ac235381-e987-48d6-8560-c84c1ac0d7f1" d="M111.80825,163.76045a6.05046,6.05046,0,0,1-2.14844-2.61328,9.54785,9.54785,0,0,1-.76367-3.96875v-.01367a9.424,9.424,0,0,1,.77149-3.96192,6.11882,6.11882,0,0,1,2.14746-2.60644,5.5722,5.5722,0,0,1,3.18261-.92383,5.24148,5.24148,0,0,1,2.73926.72266,5.09305,5.09305,0,0,1,1.88965,1.97363h.05566v-8.02051h2.41895v20.05859h-2.41895v-2.44628h-.05566a5.2027,5.2027,0,0,1-1.85547,1.99414,5.06175,5.06175,0,0,1-2.73144.73046A5.67809,5.67809,0,0,1,111.80825,163.76045Zm5.873-1.88379a4.42579,4.42579,0,0,0,1.48047-1.876,6.9295,6.9295,0,0,0,.53515-2.82226v-.01367a6.783,6.783,0,0,0-.543-2.81543,4.49473,4.49473,0,0,0-1.48046-1.86914,3.62939,3.62939,0,0,0-2.16114-.667,3.74788,3.74788,0,0,0-2.21.65332,4.13806,4.13806,0,0,0-1.43164,1.84864,7.35051,7.35051,0,0,0-.501,2.84961v.01367a7.45,7.45,0,0,0,.501,2.86328,4.08763,4.08763,0,0,0,1.43164,1.85645,3.77852,3.77852,0,0,0,2.21.64648A3.66665,3.66665,0,0,0,117.6813,161.87666Z"/><path class="ac235381-e987-48d6-8560-c84c1ac0d7f1" d="M131.58267,144.34834h2.50195v8.67383h11.00976v-8.67383h2.502v20.05859h-2.502v-9.13281H134.08462v9.13281h-2.50195Z"/><path class="ac235381-e987-48d6-8560-c84c1ac0d7f1" d="M152.61977,164.14326a4.06954,4.06954,0,0,1-1.68847-1.52929,4.30153,4.30153,0,0,1-.60449-2.29395v-.02734a3.59332,3.59332,0,0,1,1.376-2.95411,6.635,6.635,0,0,1,3.86426-1.24414l5.35156-.30566v1.876l-5.07324.30664a4.015,4.015,0,0,0-2.24512.69433,1.94709,1.94709,0,0,0-.7998,1.627V160.32a1.98381,1.98381,0,0,0,.78613,1.6543,3.3096,3.3096,0,0,0,2.0918.61133,4.32121,4.32121,0,0,0,2.0498-.4795,3.77307,3.77307,0,0,0,1.44629-1.31347,3.40291,3.40291,0,0,0,.53516-1.877v-4.2666a2.68252,2.68252,0,0,0-.82715-2.0791,3.34509,3.34509,0,0,0-2.34277-.75684,3.80149,3.80149,0,0,0-2.24414.6045,2.52874,2.52874,0,0,0-1.06348,1.57812l-.02832.125h-2.335l.01367-.15332a4.32574,4.32574,0,0,1,.81348-2.16894,4.86612,4.86612,0,0,1,1.93847-1.54981,7.76605,7.76605,0,0,1,5.8877.00684,4.4875,4.4875,0,0,1,1.9248,1.64746,4.55308,4.55308,0,0,1,.68164,2.50976v9.99414h-2.41894v-2.34961H159.654a4.642,4.642,0,0,1-1.1123,1.38379,5.25607,5.25607,0,0,1-1.56348.917,5.19054,5.19054,0,0,1-1.84179.32714A5.55789,5.55789,0,0,1,152.61977,164.14326Z"/><path class="ac235381-e987-48d6-8560-c84c1ac0d7f1" d="M166.611,163.73994a4.01784,4.01784,0,0,1-.98731-3.0166v-8.77148H163.5104v-2.002h2.11328v-3.90625h2.50195v3.90625h2.752v2.002h-2.752v8.75781a1.9535,1.9535,0,0,0,.501,1.56348,2.27651,2.27651,0,0,0,1.47266.41015,4.17592,4.17592,0,0,0,.42382-.02051c.13477-.01464.25293-.02539.3545-.03515v1.96q-.22119.02783-.57617.0625c-.23633.02344-.47559.03515-.71583.03515A4.15336,4.15336,0,0,1,166.611,163.73994Z"/><path class="ac235381-e987-48d6-8560-c84c1ac0d7f1" d="M182.42251,164.06611a6.166,6.166,0,0,1-2.61328-1.9248,5.36309,5.36309,0,0,1-1.09082-2.96094l-.01465-.19433h2.50293l.02734.19433a3.22333,3.22333,0,0,0,.82031,1.73047,4.316,4.316,0,0,0,1.77247,1.126,7.527,7.527,0,0,0,2.55078.39648,6.90267,6.90267,0,0,0,2.50195-.41015,3.62353,3.62353,0,0,0,1.63281-1.17481,2.89266,2.89266,0,0,0,.57715-1.793v-.01367a2.65286,2.65286,0,0,0-.917-2.11328,6.92444,6.92444,0,0,0-2.98926-1.251l-2.22363-.48633a9.02,9.02,0,0,1-4.34375-2.00879,4.69845,4.69845,0,0,1-1.41113-3.55175v-.01367a4.9327,4.9327,0,0,1,.917-2.91211,6.04694,6.04694,0,0,1,2.49511-1.97461,8.824,8.824,0,0,1,3.64942-.71582,8.37235,8.37235,0,0,1,3.50293.70214,6.17692,6.17692,0,0,1,2.4668,1.95313,5.37142,5.37142,0,0,1,1.03613,2.8916l.01367.208h-2.50195l-.02735-.19434a3.50425,3.50425,0,0,0-.751-1.752,3.8585,3.8585,0,0,0-1.56348-1.11133,5.97587,5.97587,0,0,0-2.24512-.38965,6.23352,6.23352,0,0,0-2.33593.40332,3.56291,3.56291,0,0,0-1.54981,1.126,2.722,2.722,0,0,0-.54883,1.69629v.01367a2.53033,2.53033,0,0,0,.93164,2.01563,6.69053,6.69053,0,0,0,2.89063,1.22265l2.22461.48731a9.27509,9.27509,0,0,1,4.46191,2.00781,4.796,4.796,0,0,1,1.376,3.62109v.01465a5.32156,5.32156,0,0,1-.89649,3.08594,5.73533,5.73533,0,0,1-2.55761,2.01562,11.25587,11.25587,0,0,1-7.77051.03418Z"/><path class="ac235381-e987-48d6-8560-c84c1ac0d7f1" d="M198.25747,164.03193a4.27964,4.27964,0,0,1-1.71-1.85644,6.38164,6.38164,0,0,1-.59082-2.84277V149.9499h2.41894v8.95215a3.96521,3.96521,0,0,0,.82715,2.7041,3.153,3.153,0,0,0,2.49512.93848,3.79453,3.79453,0,0,0,1.98828-.50781,3.423,3.423,0,0,0,1.31348-1.43164,4.71171,4.71171,0,0,0,.46582-2.14746V149.9499h2.418v14.457h-2.418v-2.05761h-.05567a4.64894,4.64894,0,0,1-1.68945,1.67578,6.00834,6.00834,0,0,1-5.46289.00683Z"/><path class="ac235381-e987-48d6-8560-c84c1ac0d7f1" d="M210.80239,149.9499h2.41895v2.11328h.05566a3.95741,3.95741,0,0,1,1.5293-1.73046,4.44732,4.44732,0,0,1,2.43262-.66016,4.6818,4.6818,0,0,1,1.78613.32617,3.91,3.91,0,0,1,1.38281.94531,4.08788,4.08788,0,0,1,.88965,1.50879h.05566a4.63755,4.63755,0,0,1,1.07715-1.49511,4.79162,4.79162,0,0,1,1.55762-.95215,5.33526,5.33526,0,0,1,1.89746-.333,5.01282,5.01282,0,0,1,2.48828.59082,4.14124,4.14124,0,0,1,1.63965,1.65332,5.133,5.133,0,0,1,.584,2.50977v9.98046h-2.41894v-9.4248a3.27866,3.27866,0,0,0-.78516-2.32813,2.88474,2.88474,0,0,0-2.21679-.84082,3.25571,3.25571,0,0,0-1.69629.4375,3.08142,3.08142,0,0,0-1.15332,1.209,3.63688,3.63688,0,0,0-.417,1.75879v9.18847h-2.41894v-9.68847a2.82667,2.82667,0,0,0-.80664-2.11328,2.9394,2.9394,0,0,0-2.1543-.792,3.14148,3.14148,0,0,0-1.70312.46582,3.33791,3.33791,0,0,0-1.17383,1.25782,3.71281,3.71281,0,0,0-.43164,1.80664v9.06347h-2.41895Z"/><path class="ac235381-e987-48d6-8560-c84c1ac0d7f1" d="M233.47036,149.9499h2.41895v2.11328h.05566a3.95735,3.95735,0,0,1,1.5293-1.73046,4.44731,4.44731,0,0,1,2.43261-.66016,4.68182,4.68182,0,0,1,1.78614.32617,3.91,3.91,0,0,1,1.38281.94531,4.08788,4.08788,0,0,1,.88965,1.50879h.05566a4.63755,4.63755,0,0,1,1.07715-1.49511,4.79162,4.79162,0,0,1,1.55762-.95215,5.33526,5.33526,0,0,1,1.89746-.333,5.01282,5.01282,0,0,1,2.48828.59082,4.14124,4.14124,0,0,1,1.63965,1.65332,5.133,5.133,0,0,1,.584,2.50977v9.98046h-2.41894v-9.4248a3.27866,3.27866,0,0,0-.78516-2.32813,2.88475,2.88475,0,0,0-2.2168-.84082,3.25576,3.25576,0,0,0-1.69629.4375,3.08149,3.08149,0,0,0-1.15332,1.209,3.63688,3.63688,0,0,0-.417,1.75879v9.18847h-2.41894v-9.68847a2.82667,2.82667,0,0,0-.80664-2.11328,2.9394,2.9394,0,0,0-2.1543-.792,3.14154,3.14154,0,0,0-1.70313.46582,3.338,3.338,0,0,0-1.17382,1.25782,3.71281,3.71281,0,0,0-.43164,1.80664v9.06347h-2.41895Z"/><path class="ac235381-e987-48d6-8560-c84c1ac0d7f1" d="M256.321,147.05928a1.52067,1.52067,0,1,1,1.07031.44433A1.46173,1.46173,0,0,1,256.321,147.05928Zm-.13868,2.89062h2.41895v14.457h-2.41895Z"/><path class="ac235381-e987-48d6-8560-c84c1ac0d7f1" d="M263.39224,163.73994a4.01784,4.01784,0,0,1-.98731-3.0166v-8.77148h-2.11328v-2.002h2.11328v-3.90625h2.502v3.90625h2.752v2.002h-2.752v8.75781a1.9535,1.9535,0,0,0,.501,1.56348,2.27651,2.27651,0,0,0,1.47266.41015,4.17592,4.17592,0,0,0,.42382-.02051c.13477-.01464.25293-.02539.3545-.03515v1.96q-.22119.02783-.57617.0625c-.23633.02344-.47559.03515-.71583.03515A4.15336,4.15336,0,0,1,263.39224,163.73994Z"/><path class="ac235381-e987-48d6-8560-c84c1ac0d7f1" d="M278.279,164.14326a4.55533,4.55533,0,0,1-2.82128-3.78125l-.01368-.125h2.418l.02832.13867a2.68248,2.68248,0,0,0,1.043,1.68946,3.80375,3.80375,0,0,0,2.293.60449,4.85779,4.85779,0,0,0,1.68262-.25781,2.3603,2.3603,0,0,0,1.07031-.73633,1.78386,1.78386,0,0,0,.375-1.13281V160.529a1.69153,1.69153,0,0,0-.47266-1.251,3.72148,3.72148,0,0,0-1.71-.7793l-2.29394-.55566a6.40221,6.40221,0,0,1-3.04395-1.4668,3.39476,3.39476,0,0,1-1.001-2.53613v-.01465a3.74236,3.74236,0,0,1,.6748-2.21,4.475,4.475,0,0,1,1.876-1.501,6.653,6.653,0,0,1,2.75976-.542,6.3237,6.3237,0,0,1,2.75879.5625,4.63785,4.63785,0,0,1,1.84863,1.5293,4.23422,4.23422,0,0,1,.75782,2.17578l.01367.18066h-2.30664l-.01465-.09765a2.52961,2.52961,0,0,0-.92383-1.69629,3.28745,3.28745,0,0,0-2.13379-.63868,3.96489,3.96489,0,0,0-1.51562.26368,2.18115,2.18115,0,0,0-.9795.74414,1.87731,1.87731,0,0,0-.34082,1.11816v.01465a1.67874,1.67874,0,0,0,.52832,1.251,3.73092,3.73092,0,0,0,1.72364.80566l2.29394.55664a6.33625,6.33625,0,0,1,3.08594,1.45215,3.40959,3.40959,0,0,1,.88965,2.46777v.01367a3.63129,3.63129,0,0,1-.73047,2.23829,4.82019,4.82019,0,0,1-2.001,1.52148,8.02383,8.02383,0,0,1-5.81836.00781Z"/><path class="ac235381-e987-48d6-8560-c84c1ac0d7f1" d="M290.88052,163.73994a4.01784,4.01784,0,0,1-.98731-3.0166v-8.77148h-2.11328v-2.002h2.11328v-3.90625h2.502v3.90625h2.75195v2.002h-2.75195v8.75781a1.9535,1.9535,0,0,0,.501,1.56348,2.27651,2.27651,0,0,0,1.47266.41015,4.17612,4.17612,0,0,0,.42383-.02051c.13476-.01464.25293-.02539.35449-.03515v1.96q-.22119.02783-.57617.0625c-.23633.02344-.47559.03515-.71582.03515A4.15337,4.15337,0,0,1,290.88052,163.73994Z"/><path class="ac235381-e987-48d6-8560-c84c1ac0d7f1" d="M298.97915,164.14326a4.0695,4.0695,0,0,1-1.68848-1.52929,4.30153,4.30153,0,0,1-.60449-2.29395v-.02734a3.59333,3.59333,0,0,1,1.376-2.95411,6.635,6.635,0,0,1,3.86426-1.24414l5.35156-.30566v1.876l-5.07324.30664a4.01493,4.01493,0,0,0-2.24512.69433,1.9471,1.9471,0,0,0-.79981,1.627V160.32a1.98379,1.98379,0,0,0,.78614,1.6543,3.30957,3.30957,0,0,0,2.09179.61133,4.32125,4.32125,0,0,0,2.04981-.4795,3.77307,3.77307,0,0,0,1.44629-1.31347,3.403,3.403,0,0,0,.53515-1.877v-4.2666a2.68249,2.68249,0,0,0-.82715-2.0791,3.34507,3.34507,0,0,0-2.34277-.75684,3.80151,3.80151,0,0,0-2.24414.6045,2.52882,2.52882,0,0,0-1.06348,1.57812l-.02832.125h-2.335l.01367-.15332a4.32574,4.32574,0,0,1,.81348-2.16894,4.86616,4.86616,0,0,1,1.93848-1.54981,7.766,7.766,0,0,1,5.88769.00684,4.48752,4.48752,0,0,1,1.92481,1.64746,4.55308,4.55308,0,0,1,.68164,2.50976v9.99414H306.069v-2.34961h-.05566a4.642,4.642,0,0,1-1.11231,1.38379,5.25589,5.25589,0,0,1-1.56347.917,5.19056,5.19056,0,0,1-1.8418.32714A5.55785,5.55785,0,0,1,298.97915,164.14326Z"/><path class="ac235381-e987-48d6-8560-c84c1ac0d7f1" d="M311.36489,149.9499h2.41895v2.44727h.05566a3.91725,3.91725,0,0,1,1.251-1.98828,3.208,3.208,0,0,1,2.11328-.73633,4.47756,4.47756,0,0,1,.57715.03418c.1709.02344.30273.04394.39551.0625v2.34961a2.21585,2.21585,0,0,0-.49317-.09766,7.01571,7.01571,0,0,0-.7998-.041,3.134,3.134,0,0,0-1.63282.417,2.7644,2.7644,0,0,0-1.084,1.20215,4.26678,4.26678,0,0,0-.38281,1.88379v8.92382h-2.41895Z"/><path class="ac235381-e987-48d6-8560-c84c1ac0d7f1" d="M322.319,163.73994a4.01788,4.01788,0,0,1-.9873-3.0166v-8.77148h-2.11328v-2.002h2.11328v-3.90625h2.502v3.90625h2.752v2.002h-2.752v8.75781a1.95346,1.95346,0,0,0,.501,1.56348,2.2765,2.2765,0,0,0,1.47265.41015,4.17612,4.17612,0,0,0,.42383-.02051c.13477-.01464.25293-.02539.35449-.03515v1.96q-.22119.02783-.57617.0625c-.23633.02344-.47558.03515-.71582.03515A4.15341,4.15341,0,0,1,322.319,163.73994Z"/><path class="ac235381-e987-48d6-8560-c84c1ac0d7f1" d="M330.82974,164.14326a4.55532,4.55532,0,0,1-2.82129-3.78125l-.01368-.125h2.418l.02832.13867a2.68248,2.68248,0,0,0,1.043,1.68946,3.80375,3.80375,0,0,0,2.293.60449,4.85779,4.85779,0,0,0,1.68262-.25781,2.3603,2.3603,0,0,0,1.07031-.73633,1.78386,1.78386,0,0,0,.375-1.13281V160.529a1.69153,1.69153,0,0,0-.47266-1.251,3.72148,3.72148,0,0,0-1.71-.7793l-2.29394-.55566a6.40225,6.40225,0,0,1-3.04395-1.4668,3.39476,3.39476,0,0,1-1.001-2.53613v-.01465a3.74243,3.74243,0,0,1,.6748-2.21,4.475,4.475,0,0,1,1.876-1.501,6.653,6.653,0,0,1,2.75976-.542,6.3237,6.3237,0,0,1,2.75879.5625,4.63788,4.63788,0,0,1,1.84864,1.5293,4.2343,4.2343,0,0,1,.75781,2.17578l.01367.18066h-2.30664l-.01465-.09765a2.52961,2.52961,0,0,0-.92383-1.69629,3.28745,3.28745,0,0,0-2.13379-.63868,3.96492,3.96492,0,0,0-1.51562.26368,2.18106,2.18106,0,0,0-.97949.74414,1.87724,1.87724,0,0,0-.34082,1.11816v.01465a1.6787,1.6787,0,0,0,.52832,1.251,3.73083,3.73083,0,0,0,1.72363.80566l2.29394.55664a6.33625,6.33625,0,0,1,3.08594,1.45215,3.40954,3.40954,0,0,1,.88965,2.46777v.01367a3.63129,3.63129,0,0,1-.73047,2.23829,4.82019,4.82019,0,0,1-2.001,1.52148,8.02381,8.02381,0,0,1-5.81835.00781Z"/><path class="ac235381-e987-48d6-8560-c84c1ac0d7f1" d="M347.71938,149.9499h2.41895v2.05762h.05566a4.62952,4.62952,0,0,1,1.69629-1.6748,5.30473,5.30473,0,0,1,2.752-.66016,4.74342,4.74342,0,0,1,3.69043,1.43848,5.58187,5.58187,0,0,1,1.31445,3.91308v9.38281h-2.41895v-8.95214a3.96573,3.96573,0,0,0-.82715-2.70313,3.15242,3.15242,0,0,0-2.49511-.93848,3.80323,3.80323,0,0,0-1.98828.50684,3.43375,3.43375,0,0,0-1.31348,1.4248,4.70515,4.70515,0,0,0-.46582,2.15528v8.50683h-2.41895Z"/><path class="ac235381-e987-48d6-8560-c84c1ac0d7f1" d="M365.01138,163.76729a6.207,6.207,0,0,1-2.34864-2.60645,8.82392,8.82392,0,0,1-.84082-3.98242v-.02735a8.76924,8.76924,0,0,1,.84082-3.98242,6.18058,6.18058,0,0,1,2.34864-2.58593,7.19592,7.19592,0,0,1,7.00586,0,6.17638,6.17638,0,0,1,2.3496,2.58593,8.782,8.782,0,0,1,.84083,3.98242v.02735a8.82343,8.82343,0,0,1-.84083,3.98926,6.22454,6.22454,0,0,1-2.34277,2.59961,7.15559,7.15559,0,0,1-7.01269,0Zm5.74121-1.85547a4.11358,4.11358,0,0,0,1.46-1.835,7.26379,7.26379,0,0,0,.52051-2.89844v-.02735a7.21257,7.21257,0,0,0-.52051-2.8916,4.0405,4.0405,0,0,0-1.47363-1.82129,3.97162,3.97162,0,0,0-2.23145-.625,3.89454,3.89454,0,0,0-2.20313.63184,4.13866,4.13866,0,0,0-1.48046,1.82129,7.07381,7.07381,0,0,0-.52832,2.88476v.02735a7.1747,7.1747,0,0,0,.52832,2.89844,4.12461,4.12461,0,0,0,1.48046,1.835,3.938,3.938,0,0,0,2.23145.63281A3.86808,3.86808,0,0,0,370.75259,161.91182Z"/><path class="ac235381-e987-48d6-8560-c84c1ac0d7f1" d="M375.82778,149.9499h2.4043l2.8916,11.76075h.05566L384.446,149.9499h2.335l3.28027,11.76075h.05566l2.89161-11.76075h2.39062l-4.03027,14.457h-2.46094l-3.2666-11.19043h-.05567l-3.25292,11.19043h-2.46Z"/><path class="ac235381-e987-48d6-8560-c84c1ac0d7f1" d="M396.32583,164.14326a1.61306,1.61306,0,1,1,1.126.458A1.53,1.53,0,0,1,396.32583,164.14326Z"/><path class="b9400a22-3371-48a4-b5b3-1aa9ff69c640" d="M462.10086,103.68424a14.93511,14.93511,0,0,1-8.0867-2.3696,10.744,10.744,0,0,0,1.25841.07313,10.58666,10.58666,0,0,0,6.55231-2.25832,5.28155,5.28155,0,0,1-4.92846-3.66416,5.267,5.267,0,0,0,2.38246-.09041,5.2777,5.2777,0,0,1-4.23245-5.172c0-.02308,0-.0452.00116-.06723a5.23671,5.23671,0,0,0,2.38941.65987,5.27976,5.27976,0,0,1-1.63312-7.04284,14.97732,14.97732,0,0,0,10.87391,5.51193,5.27887,5.27887,0,0,1,8.99041-4.81128A10.57411,10.57411,0,0,0,479.018,83.1728a5.295,5.295,0,0,1-2.31987,2.9184,10.52968,10.52968,0,0,0,3.02958-.83068A10.73279,10.73279,0,0,1,477.096,87.9922c.01054.22614.01517.45354.01517.682a14.90805,14.90805,0,0,1-15.01026,15.01005"/><path class="ac235381-e987-48d6-8560-c84c1ac0d7f1" d="M97.78188,229.32393h-.03515l-2.17481,1.49218v-1.376l2.19825-1.54492h1.48632v8.4121H97.78188Z"/><path class="ac235381-e987-48d6-8560-c84c1ac0d7f1" d="M104.76919,234.68721h-4.19727v-1.27735q.34863-.54784.69922-1.10156.3501-.55371.69922-1.10449.3501-.55078.69727-1.10156.34569-.55078.69629-1.10157.35008-.55077.69921-1.10546h2.13965v5.56738h1.13672v1.22461h-1.13672v1.62011h-1.43359Zm.02246-1.19531v-4.46h-.03418q-.28564.44385-.56836.88379-.28272.43945-.56543.88282-.28272.44383-.56836.88574-.28564.44385-.56836.88379-.2827.43945-.5625.88281v.041Z"/><path class="ac235381-e987-48d6-8560-c84c1ac0d7f1" d="M112.41079,234.68721h-4.19727v-1.27735q.34864-.54784.69922-1.10156.3501-.55371.69922-1.10449.3501-.55078.69727-1.10156.3457-.55078.69629-1.10157.3501-.55077.69922-1.10546h2.13964v5.56738h1.13672v1.22461h-1.13672v1.62011h-1.43359Zm.02246-1.19531v-4.46h-.03418q-.28564.44385-.56836.88379-.2827.43945-.56543.88282-.28271.44383-.56836.88574-.28565.44385-.56836.88379-.2827.43945-.5625.88281v.041Z"/><path class="ac235381-e987-48d6-8560-c84c1ac0d7f1" d="M201.80239,235.281l2.9668-2.89649a9.99162,9.99162,0,0,0,.83984-.8955,2.47775,2.47775,0,0,0,.39258-.64063,1.63881,1.63881,0,0,0,.1084-.5918v-.01172a1.225,1.225,0,0,0-.668-1.12207,1.49564,1.49564,0,0,0-.71387-.166,1.73948,1.73948,0,0,0-.82422.18945,1.46591,1.46591,0,0,0-.56543.5127,1.36145,1.36145,0,0,0-.21289.73144v.041H201.7145v-.041a2.40067,2.40067,0,0,1,.39649-1.36426,2.75673,2.75673,0,0,1,1.07519-.93554,3.64717,3.64717,0,0,1,3.0166-.02832,2.4737,2.4737,0,0,1,1.01172.85644,2.17526,2.17526,0,0,1,.36426,1.23828v.01172a2.41853,2.41853,0,0,1-.17774.92774,3.743,3.743,0,0,1-.60058.93847,15.04885,15.04885,0,0,1-1.16895,1.21778l-2.38965,2.27929.542-.99121v.99121l-.53614-.45507h4.459v1.23046h-5.9043Z"/><path class="ac235381-e987-48d6-8560-c84c1ac0d7f1" d="M208.91177,236.156a.85118.85118,0,1,1,.60058.24511A.81.81,0,0,1,208.91177,236.156Z"/><path class="ac235381-e987-48d6-8560-c84c1ac0d7f1" d="M212.70376,229.32393h-.03516l-2.1748,1.49218v-1.376l2.19824-1.54492h1.48633v8.4121h-1.47461Z"/><path class="ac235381-e987-48d6-8560-c84c1ac0d7f1" d="M215.99673,227.89522h1.5039v8.4121h-1.5039Zm1.42285,3.95312h.11621l3.26465-3.95312h1.71973l-3.1836,3.80078h-.23242l-1.68457,1.99414Zm.69922.46582,1.07812-1.00293,3.57325,4.99609H220.946Z"/><path class="ac235381-e987-48d6-8560-c84c1ac0d7f1" d="M309.26333,236.1208a2.73292,2.73292,0,0,1-1.05762-.87109,2.45719,2.45719,0,0,1-.45215-1.24512l-.00586-.07617h1.41114l.00586.041a1.38549,1.38549,0,0,0,.28222.63575,1.57011,1.57011,0,0,0,.57422.44922,1.8626,1.8626,0,0,0,.793.16308,1.79078,1.79078,0,0,0,.88379-.21289,1.537,1.537,0,0,0,.59668-.58887,1.713,1.713,0,0,0,.21582-.87109v-.01172a1.65869,1.65869,0,0,0-.21582-.85449,1.54915,1.54915,0,0,0-.59668-.583,1.77853,1.77853,0,0,0-.87793-.21289,2.04009,2.04009,0,0,0-.66406.10547,1.64466,1.64466,0,0,0-.54785.30859,2.03482,2.03482,0,0,0-.22168.21875,1.3589,1.3589,0,0,0-.18067.25977h-1.30566l.40234-4.8916h5.16406V229.114h-3.96386l-.2334,2.53613h.0293a1.81733,1.81733,0,0,1,.77246-.66211,2.60424,2.60424,0,0,1,1.12793-.23633,2.82438,2.82438,0,0,1,1.42871.3584,2.60929,2.60929,0,0,1,.97851.97656,2.801,2.801,0,0,1,.35645,1.42285v.01172a2.8666,2.8666,0,0,1-.40235,1.52149,2.78208,2.78208,0,0,1-1.11328,1.02832,3.8478,3.8478,0,0,1-3.18359.0498Z"/><path class="ac235381-e987-48d6-8560-c84c1ac0d7f1" d="M315.09048,236.14424a.85115.85115,0,1,1,.60058.24512A.81.81,0,0,1,315.09048,236.14424Z"/><path class="ac235381-e987-48d6-8560-c84c1ac0d7f1" d="M319.09634,236.13252a2.71665,2.71665,0,0,1-1.15137-.86035,2.05546,2.05546,0,0,1-.41406-1.26758v-.01172a2.00485,2.00485,0,0,1,.23926-.9707,2.14769,2.14769,0,0,1,.668-.74024,2.56611,2.56611,0,0,1,.98145-.41113v-.03418a2.29531,2.29531,0,0,1-1.14844-.68847,1.70634,1.70634,0,0,1-.43652-1.166v-.01172a1.85859,1.85859,0,0,1,.3789-1.14551,2.547,2.547,0,0,1,1.04883-.79492,4.179,4.179,0,0,1,3.06934,0,2.54358,2.54358,0,0,1,1.0459.79492,1.85859,1.85859,0,0,1,.3789,1.14551v.01172a1.713,1.713,0,0,1-.43359,1.166,2.27921,2.27921,0,0,1-1.15137.68847v.03418a2.552,2.552,0,0,1,.98535.41113,2.16549,2.16549,0,0,1,.66407.74024,2.00484,2.00484,0,0,1,.23925.9707v.01172a2.04937,2.04937,0,0,1-.41406,1.26758,2.71062,2.71062,0,0,1-1.15137.86035,4.83256,4.83256,0,0,1-3.39843,0Zm2.59082-1.01758a1.48506,1.48506,0,0,0,.60644-.48926,1.20461,1.20461,0,0,0,.22168-.71386v-.01172a1.22625,1.22625,0,0,0-.21875-.7207,1.48872,1.48872,0,0,0-.60644-.49219,2.30485,2.30485,0,0,0-1.78907,0,1.48878,1.48878,0,0,0-.60644.49219,1.22625,1.22625,0,0,0-.21875.7207v.01172a1.20461,1.20461,0,0,0,.22168.71386,1.48153,1.48153,0,0,0,.60937.48926,2.31782,2.31782,0,0,0,1.78028,0Zm-.12207-3.91406a1.25092,1.25092,0,0,0,.51855-.4375,1.12394,1.12394,0,0,0,.18653-.64063V230.111a1.12115,1.12115,0,0,0-.18653-.64454,1.25922,1.25922,0,0,0-.51855-.43457,1.96191,1.96191,0,0,0-1.53907,0,1.25922,1.25922,0,0,0-.51855.43457,1.12853,1.12853,0,0,0-.18652.64454v.01171a1.13145,1.13145,0,0,0,.18652.64063,1.25092,1.25092,0,0,0,.51855.4375,1.96179,1.96179,0,0,0,1.53907,0Z"/><path class="ac235381-e987-48d6-8560-c84c1ac0d7f1" d="M325.30142,227.8835h1.5039v8.41211h-1.5039Zm1.42285,3.95312h.11621l3.26465-3.95312h1.71972l-3.18359,3.80078h-.23242l-1.68457,1.99414Zm.69922.46582,1.07812-1.00293,3.57324,4.9961h-1.82422Z"/><path class="ac235381-e987-48d6-8560-c84c1ac0d7f1" d="M85.42043,225.80533l-.00037-.00007-2.50705-.00591-.00037.00011-.00059-.00011a4.6656,4.6656,0,0,0-4.71562,4.716,4.47652,4.47652,0,0,0,4.51293,4.455v2.3141a.51848.51848,0,0,0,.07142.24379.45247.45247,0,0,0,.62573.13814c.15939-.10154,3.91258-2.50174,4.889-3.32817a5.106,5.106,0,0,0,1.8394-3.81518v-.01A4.66485,4.66485,0,0,0,85.42043,225.80533Zm2.28945,7.841c-.68576.58046-2.93916,2.05853-4.09381,2.80667V234.5265a.45346.45346,0,0,0-.45335-.45335h-.24026a3.57408,3.57408,0,0,1-3.81931-3.55781,3.76823,3.76823,0,0,1,3.80865-3.80927l2.5059.0059h.00118a3.7687,3.7687,0,0,1,3.80928,3.80574A4.191,4.191,0,0,1,87.70988,233.64635Z"/><path class="ac235381-e987-48d6-8560-c84c1ac0d7f1" d="M195.73849,233.99778a.4532.4532,0,0,0-.64108,0l-1.53835,1.53813v-6.58233a2.26946,2.26946,0,0,0-2.26679-2.26679h-4.01943a.45336.45336,0,1,0,0,.90671h4.01943a1.36175,1.36175,0,0,1,1.36007,1.36008v6.58218l-1.53776-1.538a.45331.45331,0,1,0-.64107.64108l2.31165,2.31195a.4532.4532,0,0,0,.64108,0l2.31225-2.31195A.4532.4532,0,0,0,195.73849,233.99778Z"/><path class="ac235381-e987-48d6-8560-c84c1ac0d7f1" d="M188.76515,236.29793h-4.02a1.36175,1.36175,0,0,1-1.36007-1.36008V228.3553l1.53835,1.53835a.45331.45331,0,0,0,.64107-.64108l-2.31224-2.31225a.4532.4532,0,0,0-.64108,0l-2.31225,2.31225a.45331.45331,0,0,0,.64108.64108l1.53835-1.53835v6.58255a2.26947,2.26947,0,0,0,2.26679,2.2668h4.02a.45336.45336,0,0,0,0-.90672Z"/><path class="ac235381-e987-48d6-8560-c84c1ac0d7f1" d="M407.60355,228.86892l-2.90247-2.90247a.43522.43522,0,0,0-.61564,0l-2.90247,2.90247a.43532.43532,0,0,0,.61564.61564l2.15928-2.15928v5.91492a.43537.43537,0,1,0,.87074,0v-5.91492l2.15927,2.15928a.43533.43533,0,0,0,.61565-.61564Z"/><path class="ac235381-e987-48d6-8560-c84c1ac0d7f1" d="M408.86771,237.27134h-8.9489a1.3321,1.3321,0,0,1-1.33049-1.33049V232.6597a.43537.43537,0,0,1,.87074,0v3.28115a.46041.46041,0,0,0,.45975.45975h8.9489a.4604.4604,0,0,0,.45974-.45975V232.6597a.43537.43537,0,0,1,.87074,0v3.28115A1.3321,1.3321,0,0,1,408.86771,237.27134Z"/><path class="ac235381-e987-48d6-8560-c84c1ac0d7f1" d="M295.95824,237.52961H295.95c-1.56137-.02892-6.06662-4.09912-6.06662-7.95384a3.46635,3.46635,0,0,1,3.26618-3.4787,3.53875,3.53875,0,0,1,2.8087,1.64932,3.5376,3.5376,0,0,1,2.80811-1.64932,3.46643,3.46643,0,0,1,3.26678,3.4787c0,3.85472-4.50525,7.92492-6.06662,7.95384Zm-2.8087-10.52583a2.53768,2.53768,0,0,0-2.35947,2.572c0,3.47043,4.25142,7.00934,5.16817,7.04712.91675-.03778,5.16817-3.57669,5.16817-7.04712a2.53775,2.53775,0,0,0-2.36006-2.572c-1.52831,0-2.38131,1.77448-2.389,1.79219a.47193.47193,0,0,1-.83824,0C295.53145,228.77826,294.67845,227.00378,293.14954,227.00378Z"/><path class="e80cbb57-4cb2-4da4-a247-2e7d9ee735e7" d="M82.71841,187.361a2.80308,2.80308,0,0,1,1.02832.708,3.51947,3.51947,0,0,1,.74023,1.291,6.10121,6.10121,0,0,1,.27735,1.97363v.01172a6.732,6.732,0,0,1-.3877,2.42188,3.31161,3.31161,0,0,1-1.11621,1.53613,2.9113,2.9113,0,0,1-1.76074.53027,3.14027,3.14027,0,0,1-1.28809-.25586,2.6294,2.6294,0,0,1-.96191-.71484,2.48719,2.48719,0,0,1-.52442-1.06934l-.01757-.07617h1.0664l.02344.06445a1.7843,1.7843,0,0,0,.36426.59766,1.58613,1.58613,0,0,0,.57715.39063,2.07045,2.07045,0,0,0,.77246.13671,1.77026,1.77026,0,0,0,1.26757-.4541,2.72289,2.72289,0,0,0,.71192-1.2041,6.08569,6.08569,0,0,0,.25293-1.62891q.00585-.05859.00586-.11425v-.11328l-.25-1.38184a1.91612,1.91612,0,0,0-.94141-1.67578,1.87044,1.87044,0,0,0-.97656-.25977,1.912,1.912,0,0,0-1.667.93848,1.84009,1.84009,0,0,0-.25684.96191v.01172a1.90793,1.90793,0,0,0,.24512.97364,1.74642,1.74642,0,0,0,.67578.667,1.97035,1.97035,0,0,0,.98535.24218,2.02546,2.02546,0,0,0,.99121-.23925,1.78991,1.78991,0,0,0,.94434-1.61426v-.00586h.34961v1.42773h-.12305a2.092,2.092,0,0,1-.501.67969,2.51561,2.51561,0,0,1-.80175.48926,3.02548,3.02548,0,0,1-2.47168-.17773,2.63794,2.63794,0,0,1-.9961-.99122,2.79356,2.79356,0,0,1-.36523-1.42773v-.01172a2.756,2.756,0,0,1,1.44629-2.48633,3.12473,3.12473,0,0,1,1.5332-.37011A3.166,3.166,0,0,1,82.71841,187.361Z"/><path class="e80cbb57-4cb2-4da4-a247-2e7d9ee735e7" d="M86.026,189.70186a.67563.67563,0,1,1,.47168.19238A.6416.6416,0,0,1,86.026,189.70186Zm0,4.51171a.6756.6756,0,1,1,.47168.19239A.64157.64157,0,0,1,86.026,194.21357Z"/><path class="e80cbb57-4cb2-4da4-a247-2e7d9ee735e7" d="M89.70083,195.53682a2.55081,2.55081,0,0,1-1.02246-.81641,2.32161,2.32161,0,0,1-.43457-1.18359l-.00586-.06934h1.00879l.00586.05762a1.38976,1.38976,0,0,0,.59472,1.00879,2.24744,2.24744,0,0,0,1.36914.39062,2.29886,2.29886,0,0,0,.97071-.19238,1.54859,1.54859,0,0,0,.65039-.5332,1.35677,1.35677,0,0,0,.2334-.78418V193.403a1.44376,1.44376,0,0,0-.51661-1.19238,2.16863,2.16863,0,0,0-1.40136-.416H90.09731v-.88672H91.1061a1.96976,1.96976,0,0,0,.88574-.18945,1.47385,1.47385,0,0,0,.60059-.51856,1.34,1.34,0,0,0,.21582-.749v-.01172a1.4338,1.4338,0,0,0-.18652-.75195,1.19493,1.19493,0,0,0-.54492-.47266,2.10141,2.10141,0,0,0-.8711-.16308,2.23213,2.23213,0,0,0-.88379.166,1.508,1.508,0,0,0-.62109.47559,1.46137,1.46137,0,0,0-.2793.73437l-.00586.0586H88.40688l.00586-.0586a2.471,2.471,0,0,1,.43457-1.20117,2.44516,2.44516,0,0,1,.96778-.79785,3.21329,3.21329,0,0,1,1.39062-.28613,3.304,3.304,0,0,1,1.40137.27734,2.20337,2.20337,0,0,1,.92676.76367,1.962,1.962,0,0,1,.3291,1.12793v.01172a1.84185,1.84185,0,0,1-.22656.9209,1.96361,1.96361,0,0,1-.62989.66992,2.62691,2.62691,0,0,1-.92675.37891v.02343a2.35659,2.35659,0,0,1,1.48925.6211,1.90554,1.90554,0,0,1,.56836,1.44238v.01172a2.16591,2.16591,0,0,1-.3789,1.25391,2.59075,2.59075,0,0,1-1.03809.87109,3.41644,3.41644,0,0,1-1.50391.31738A3.59962,3.59962,0,0,1,89.70083,195.53682Z"/><path class="e80cbb57-4cb2-4da4-a247-2e7d9ee735e7" d="M96.74966,195.5251a2.62479,2.62479,0,0,1-1.00586-.8457,2.47322,2.47322,0,0,1-.44336-1.21778l-.00586-.06445h1.03223l.00586.04687a1.56274,1.56274,0,0,0,.30273.749,1.725,1.725,0,0,0,.65332.52734,2.07035,2.07035,0,0,0,.90332.19238,2.02288,2.02288,0,0,0,1.00879-.24511,1.74526,1.74526,0,0,0,.68164-.67871,2.002,2.002,0,0,0,.24512-1v-.01172a1.92374,1.92374,0,0,0-.248-.98145,1.79166,1.79166,0,0,0-.67871-.67383,1.97628,1.97628,0,0,0-.99121-.24511,2.40185,2.40185,0,0,0-.79.126,1.806,1.806,0,0,0-.64356.38184,2.48129,2.48129,0,0,0-.21289.22656,1.73617,1.73617,0,0,0-.18359.26856h-.92676l.43067-4.79786h4.81543v.93262H96.74673l-.28614,2.82813H96.484a1.87426,1.87426,0,0,1,.79883-.64746,2.72681,2.72681,0,0,1,1.11328-.22168,2.82787,2.82787,0,0,1,1.43653.36132,2.63,2.63,0,0,1,.98535.98829,2.83873,2.83873,0,0,1,.3584,1.43652v.01172a2.853,2.853,0,0,1-.38477,1.4873,2.68893,2.68893,0,0,1-1.06055,1.01074,3.47721,3.47721,0,0,1-2.98144.05567Z"/><path class="e80cbb57-4cb2-4da4-a247-2e7d9ee735e7" d="M107.31509,187.28193h.77539v1.25977h-.26856l-2.53613,7.15234h-1.10156Zm-1.34668,5.11231h3.73047l.34961.89258H105.6188Zm1.87695-3.85254v-1.25977h.50684l3.125,8.41211h-1.10157Z"/><path class="e80cbb57-4cb2-4da4-a247-2e7d9ee735e7" d="M112.45474,187.28193h1.21191l2.915,7.08887h.03515l2.91407-7.08887h1.21289V195.694h-.97949v-6.5h-.47754l1.13672-1.67871-3.38184,8.17871h-.88574l-3.38086-8.17871,1.13672,1.67871h-.47754v6.5h-.97949Z"/><path class="e80cbb57-4cb2-4da4-a247-2e7d9ee735e7" d="M127.70962,192.28975a1.09633,1.09633,0,0,1-.15137.57129,1.14345,1.14345,0,0,1-.4082.4082,1.10565,1.10565,0,0,1-.57129.15137h-.0166a1.10565,1.10565,0,0,1-.57129-.15137,1.13574,1.13574,0,0,1-.4082-.4082,1.097,1.097,0,0,1-.15235-.57129v-.01758a1.097,1.097,0,0,1,.15235-.57129,1.13566,1.13566,0,0,1,.4082-.4082,1.10556,1.10556,0,0,1,.57129-.15137h.0166a1.10556,1.10556,0,0,1,.57129.15137,1.14337,1.14337,0,0,1,.4082.4082,1.09633,1.09633,0,0,1,.15137.57129Z"/><path class="e80cbb57-4cb2-4da4-a247-2e7d9ee735e7" d="M132.39126,187.28193h1.21191l2.915,7.08887h.03516l2.91406-7.08887h1.21289V195.694h-.97949v-6.5h-.47754l1.13672-1.67871-3.38184,8.17871h-.88574l-3.38086-8.17871,1.13672,1.67871h-.47754v6.5h-.97949Z"/><path class="e80cbb57-4cb2-4da4-a247-2e7d9ee735e7" d="M142.85317,195.58369a1.7108,1.7108,0,0,1-.709-.6416,1.806,1.806,0,0,1-.25293-.96191v-.01172a1.50651,1.50651,0,0,1,.57715-1.23828,2.78136,2.78136,0,0,1,1.62011-.52246l2.24415-.12793v.78711l-2.127.12792a1.68462,1.68462,0,0,0-.9414.292.81614.81614,0,0,0-.33594.68164v.01172a.83168.83168,0,0,0,.33008.69336,1.38174,1.38174,0,0,0,.87695.25683,1.81713,1.81713,0,0,0,.85937-.20117,1.57351,1.57351,0,0,0,.60645-.55078,1.42767,1.42767,0,0,0,.22461-.78711v-1.78906a1.12365,1.12365,0,0,0-.34668-.87207,1.40193,1.40193,0,0,0-.98242-.31739,1.59065,1.59065,0,0,0-.94141.25391,1.06269,1.06269,0,0,0-.44629.66113l-.01172.05274h-.97851l.00586-.06446a1.80818,1.80818,0,0,1,.34082-.90918,2.04253,2.04253,0,0,1,.8125-.65039,3.26071,3.26071,0,0,1,2.46875.00293,1.87309,1.87309,0,0,1,.80761.69141,1.90575,1.90575,0,0,1,.28614,1.05176v4.1914h-1.01465v-.98535h-.02344a1.93219,1.93219,0,0,1-.46582.58008,2.19067,2.19067,0,0,1-.65625.38477,2.16571,2.16571,0,0,1-.77246.13671A2.32925,2.32925,0,0,1,142.85317,195.58369Z"/><path class="e80cbb57-4cb2-4da4-a247-2e7d9ee735e7" d="M148.1686,197.71943c-.09863-.00976-.18164-.0205-.248-.03222v-.82715q.06444.01172.14941.02344a1.28354,1.28354,0,0,0,.17773.01172,1.52806,1.52806,0,0,0,.77247-.16895,1.22969,1.22969,0,0,0,.46875-.68262l.12207-.34375-2.25-6.06836h1.085l1.748,5.28125-.21582-.23339h.30371l-.21582.23339,1.75489-5.28125h1.0664l-2.36621,6.44141a3.98241,3.98241,0,0,1-.48437.94434,1.65315,1.65315,0,0,1-.64649.542,2.2,2.2,0,0,1-.92773.1748C148.36587,197.73408,148.26724,197.7292,148.1686,197.71943Z"/><path class="e80cbb57-4cb2-4da4-a247-2e7d9ee735e7" d="M158.30239,188.39619H158.279l-2.22656,1.54981v-1.05469l2.23828-1.60938H159.317V195.694h-1.01465Z"/><path class="e80cbb57-4cb2-4da4-a247-2e7d9ee735e7" d="M162.44692,195.30342a3.30889,3.30889,0,0,1-1.05859-1.50391,6.55451,6.55451,0,0,1-.36719-2.30859v-.01172a6.55828,6.55828,0,0,1,.36719-2.30859,3.29948,3.29948,0,0,1,1.05859-1.501,2.87537,2.87537,0,0,1,3.31934,0,3.30869,3.30869,0,0,1,1.06445,1.501,6.51094,6.51094,0,0,1,.37012,2.30859v.01172a6.50719,6.50719,0,0,1-.37012,2.30859,3.31808,3.31808,0,0,1-1.06445,1.50391,2.8624,2.8624,0,0,1-3.31934,0Zm2.75684-.80176a2.62947,2.62947,0,0,0,.69922-1.18555,6.09023,6.09023,0,0,0,.24219-1.82519v-.01172a6.05425,6.05425,0,0,0-.24219-1.82129,2.61661,2.61661,0,0,0-.69922-1.18066,1.66063,1.66063,0,0,0-2.19434,0,2.60258,2.60258,0,0,0-.69433,1.18066,6.15738,6.15738,0,0,0-.23828,1.82129v.01172a6.194,6.194,0,0,0,.23828,1.82519,2.61545,2.61545,0,0,0,.69433,1.18555,1.65191,1.65191,0,0,0,2.19434,0Z"/><path class="e80cbb57-4cb2-4da4-a247-2e7d9ee735e7" d="M168.28677,194.49287h1.06054l-.85058,2.85059h-.72266Z"/><path class="e80cbb57-4cb2-4da4-a247-2e7d9ee735e7" d="M173.21743,194.97139l2.96191-3.08985a12.90842,12.90842,0,0,0,.8711-.98242,2.71757,2.71757,0,0,0,.41406-.69629,1.88542,1.88542,0,0,0,.11328-.65918v-.01074a1.436,1.436,0,0,0-.20117-.76367,1.41973,1.41973,0,0,0-.55371-.52246,1.69181,1.69181,0,0,0-.8125-.18946,1.98023,1.98023,0,0,0-.93848.21875,1.71272,1.71272,0,0,0-.65332.58594,1.47628,1.47628,0,0,0-.23926.82227v.02929h-1.01367v-.03515a2.30805,2.30805,0,0,1,.37891-1.30274,2.64006,2.64006,0,0,1,1.02246-.90429,3.09539,3.09539,0,0,1,1.42578-.3291,2.90376,2.90376,0,0,1,1.3584.30957,2.405,2.405,0,0,1,.93555.83886,2.1584,2.1584,0,0,1,.34082,1.18946v.01172a2.39318,2.39318,0,0,1-.17188.8916,4.08067,4.08067,0,0,1-.59765.9707,17.79511,17.79511,0,0,1-1.20118,1.332l-2.30859,2.36621.30957-.64648v.64648l-.30957-.291h4.41895v.93261h-5.54981Z"/><path class="e80cbb57-4cb2-4da4-a247-2e7d9ee735e7" d="M181.07485,195.30342a3.30889,3.30889,0,0,1-1.05859-1.50391,6.55451,6.55451,0,0,1-.36719-2.30859v-.01172a6.55828,6.55828,0,0,1,.36719-2.30859,3.29948,3.29948,0,0,1,1.05859-1.501,2.87537,2.87537,0,0,1,3.31934,0,3.30869,3.30869,0,0,1,1.06445,1.501,6.51094,6.51094,0,0,1,.37012,2.30859v.01172a6.50719,6.50719,0,0,1-.37012,2.30859,3.31808,3.31808,0,0,1-1.06445,1.50391,2.8624,2.8624,0,0,1-3.31934,0Zm2.75684-.80176a2.62947,2.62947,0,0,0,.69922-1.18555,6.09025,6.09025,0,0,0,.24218-1.82519v-.01172a6.05427,6.05427,0,0,0-.24218-1.82129,2.61661,2.61661,0,0,0-.69922-1.18066,1.66063,1.66063,0,0,0-2.19434,0,2.60258,2.60258,0,0,0-.69433,1.18066,6.15738,6.15738,0,0,0-.23828,1.82129v.01172a6.194,6.194,0,0,0,.23828,1.82519,2.61545,2.61545,0,0,0,.69433,1.18555,1.65191,1.65191,0,0,0,2.19434,0Z"/><path class="e80cbb57-4cb2-4da4-a247-2e7d9ee735e7" d="M186.86782,194.97139l2.96192-3.08985a12.91013,12.91013,0,0,0,.87109-.98242,2.71757,2.71757,0,0,0,.41406-.69629,1.88542,1.88542,0,0,0,.11328-.65918v-.01074a1.436,1.436,0,0,0-.20117-.76367,1.41973,1.41973,0,0,0-.55371-.52246,1.69178,1.69178,0,0,0-.8125-.18946,1.98023,1.98023,0,0,0-.93848.21875,1.71272,1.71272,0,0,0-.65332.58594,1.47627,1.47627,0,0,0-.23925.82227v.02929h-1.01368v-.03515a2.30805,2.30805,0,0,1,.37891-1.30274,2.64006,2.64006,0,0,1,1.02246-.90429,3.09539,3.09539,0,0,1,1.42578-.3291,2.90376,2.90376,0,0,1,1.3584.30957,2.405,2.405,0,0,1,.93555.83886,2.1584,2.1584,0,0,1,.34082,1.18946v.01172a2.39318,2.39318,0,0,1-.17188.8916,4.08067,4.08067,0,0,1-.59765.9707,17.79511,17.79511,0,0,1-1.20118,1.332l-2.30859,2.36621.30957-.64648v.64648l-.30957-.291h4.41895v.93261h-5.54981Z"/><path class="e80cbb57-4cb2-4da4-a247-2e7d9ee735e7" d="M193.5104,194.97139l2.96191-3.08985a12.90842,12.90842,0,0,0,.8711-.98242,2.71757,2.71757,0,0,0,.41406-.69629,1.88542,1.88542,0,0,0,.11328-.65918v-.01074a1.43608,1.43608,0,0,0-.20117-.76367,1.41973,1.41973,0,0,0-.55371-.52246,1.69181,1.69181,0,0,0-.8125-.18946,1.98023,1.98023,0,0,0-.93848.21875,1.71265,1.71265,0,0,0-.65332.58594,1.47628,1.47628,0,0,0-.23926.82227v.02929h-1.01367v-.03515a2.30805,2.30805,0,0,1,.37891-1.30274,2.64006,2.64006,0,0,1,1.02246-.90429,3.09539,3.09539,0,0,1,1.42578-.3291,2.90379,2.90379,0,0,1,1.3584.30957,2.405,2.405,0,0,1,.93555.83886,2.1584,2.1584,0,0,1,.34082,1.18946v.01172a2.39318,2.39318,0,0,1-.17188.8916,4.08042,4.08042,0,0,1-.59766.9707,17.79686,17.79686,0,0,1-1.20117,1.332l-2.30859,2.36621.30957-.64648v.64648l-.30957-.291h4.41894v.93261h-5.5498Z"/><path class="ac235381-e987-48d6-8560-c84c1ac0d7f1" d="M109.24477,83.1374h3.35743a3.472,3.472,0,0,1,1.54492.31836,2.31589,2.31589,0,0,1,.99707.90625,2.68679,2.68679,0,0,1,.34961,1.39942v.01172a2.61939,2.61939,0,0,1-.42871,1.49218,2.3206,2.3206,0,0,1-1.15723.90918l1.83691,3.375h-1.71386l-1.65528-3.14746h-1.627v3.14746h-1.50391Zm3.2002,4.0752a1.55036,1.55036,0,0,0,1.11328-.376,1.38041,1.38041,0,0,0,.39649-1.05273v-.01074a1.3457,1.3457,0,0,0-.41407-1.041,1.59136,1.59136,0,0,0-1.125-.38184h-1.667V87.2126Z"/><path class="ac235381-e987-48d6-8560-c84c1ac0d7f1" d="M117.55239,91.281a2.57249,2.57249,0,0,1-1.02344-1.10742,3.78482,3.78482,0,0,1-.35546-1.69629v-.00586a3.80647,3.80647,0,0,1,.35839-1.69922,2.703,2.703,0,0,1,1.00879-1.12793,2.86585,2.86585,0,0,1,1.53614-.40234,2.90673,2.90673,0,0,1,1.52441.38769,2.57234,2.57234,0,0,1,.99121,1.08789,3.63756,3.63756,0,0,1,.34668,1.63184v.46582h-5.04883v-.9668h4.35449l-.69921.90332v-.55957a2.40444,2.40444,0,0,0-.18653-1.00879,1.35007,1.35007,0,0,0-.51269-.60351,1.4083,1.4083,0,0,0-.752-.20118,1.43089,1.43089,0,0,0-.7666.207,1.38064,1.38064,0,0,0-.52441.61523,2.33429,2.33429,0,0,0-.18945.99121v.55957a2.22838,2.22838,0,0,0,.18945.96484,1.39173,1.39173,0,0,0,.53906.61133,1.56578,1.56578,0,0,0,.833.21289,1.64192,1.64192,0,0,0,.63574-.11328,1.355,1.355,0,0,0,.45215-.29492,1.00477,1.00477,0,0,0,.24707-.38965l.01172-.041h1.35254l-.01172.06347a2.2777,2.2777,0,0,1-.82715,1.31153,2.65727,2.65727,0,0,1-.81641.43457,3.31322,3.31322,0,0,1-1.07226.16015A3.10078,3.10078,0,0,1,117.55239,91.281Z"/><path class="ac235381-e987-48d6-8560-c84c1ac0d7f1" d="M123.80727,91.28389a2.47274,2.47274,0,0,1-.88574-1.11035,4.30038,4.30038,0,0,1-.3125-1.71387v-.00586a4.26683,4.26683,0,0,1,.31543-1.7168,2.51193,2.51193,0,0,1,.88574-1.10742,2.34361,2.34361,0,0,1,1.34668-.38769,2.13841,2.13841,0,0,1,1.16309.31835,2.04472,2.04472,0,0,1,.7666.8711h.03418V83.1374H128.567v8.41211h-1.44629V90.50068h-.03418a2.03261,2.03261,0,0,1-.75781.85938,2.14531,2.14531,0,0,1-1.166.31152A2.36033,2.36033,0,0,1,123.80727,91.28389Zm2.585-1.0752a1.59563,1.59563,0,0,0,.53613-.69336,2.6563,2.6563,0,0,0,.19238-1.05566v-.00586a2.59541,2.59541,0,0,0-.19531-1.05176,1.62165,1.62165,0,0,0-.53613-.69043,1.31359,1.31359,0,0,0-.79-.24512,1.35035,1.35035,0,0,0-.80664.24219,1.53912,1.53912,0,0,0-.52539.68457,2.771,2.771,0,0,0-.1836,1.06055v.00586a2.8041,2.8041,0,0,0,.1836,1.06152,1.53545,1.53545,0,0,0,.52539.69043,1.35708,1.35708,0,0,0,.80664.24219A1.33319,1.33319,0,0,0,126.39224,90.20869Z"/><path class="ac235381-e987-48d6-8560-c84c1ac0d7f1" d="M132.33267,83.1374h1.5039v3.49805h4.09277V83.1374h1.49805v8.41211h-1.49805V87.9001h-4.09277v3.64941h-1.5039Z"/><path class="ac235381-e987-48d6-8560-c84c1ac0d7f1" d="M141.485,91.41865a1.76078,1.76078,0,0,1-.72852-.65918,1.81793,1.81793,0,0,1-.25976-.9707v-.01172a1.56692,1.56692,0,0,1,.61523-1.30273,3.05665,3.05665,0,0,1,1.73438-.54492l2.36035-.14551v.96191l-2.15625.13379a1.48376,1.48376,0,0,0-.82227.25684.707.707,0,0,0-.28515.58886v.00586a.70766.70766,0,0,0,.28808.59668,1.23381,1.23381,0,0,0,.7666.21875,1.61146,1.61146,0,0,0,.749-.16894,1.34118,1.34118,0,0,0,.52148-.46,1.16486,1.16486,0,0,0,.19238-.65918V87.405a.95284.95284,0,0,0-.29394-.7373,1.21026,1.21026,0,0,0-.84863-.27149,1.39356,1.39356,0,0,0-.82129.21875.91048.91048,0,0,0-.38477.5625l-.01172.05274h-1.34082l.00586-.07032a1.89454,1.89454,0,0,1,.36719-.98242,2.15886,2.15886,0,0,1,.88867-.68457,3.32916,3.32916,0,0,1,1.34961-.251,3.24691,3.24691,0,0,1,1.34375.25683,2.052,2.052,0,0,1,.87988.7168,1.88888,1.88888,0,0,1,.3125,1.084v4.25h-1.44629v-.95019h-.03515a1.96063,1.96063,0,0,1-.4541.55957,2.01315,2.01315,0,0,1-.63867.36718,2.24769,2.24769,0,0,1-.76661.12793A2.37393,2.37393,0,0,1,141.485,91.41865Z"/><path class="ac235381-e987-48d6-8560-c84c1ac0d7f1" d="M147.8688,91.25264a1.76706,1.76706,0,0,1-.46875-1.376V86.48994h-.875V85.3708h.875V83.80244h1.47461V85.3708h1.14843v1.11914h-1.14843v3.26953a.78788.78788,0,0,0,.20117.6211.88433.88433,0,0,0,.5918.17187,1.924,1.924,0,0,0,.19531-.00879c.05566-.00586.10937-.01074.16015-.01465v1.09082c-.08593.01172-.18945.02344-.31152.03418-.12305.01172-.25976.01758-.41113.01758A2.09941,2.09941,0,0,1,147.8688,91.25264Z"/><path class="ac235381-e987-48d6-8560-c84c1ac0d7f1" d="M151.07583,90.1794h1.40527l-.85156,3.08984h-1.01367Z"/><path class="ac235381-e987-48d6-8560-c84c1ac0d7f1" d="M156.28091,83.1374h1.5039v8.41211h-1.5039Z"/><path class="ac235381-e987-48d6-8560-c84c1ac0d7f1" d="M159.13149,85.3708h1.44532v.96777h.03515a1.87535,1.87535,0,0,1,.71387-.79882,2.1771,2.1771,0,0,1,1.1748-.29785,2.01389,2.01389,0,0,1,1.57715.61816,2.43346,2.43346,0,0,1,.55664,1.69043v3.999h-1.45215v-3.707a1.51228,1.51228,0,0,0-.30859-1.01758,1.15576,1.15576,0,0,0-.92676-.3584,1.35629,1.35629,0,0,0-.72265.18946,1.27538,1.27538,0,0,0-.47852.52441,1.72744,1.72744,0,0,0-.16894.78418v3.585h-1.44532Z"/><path class="ac235381-e987-48d6-8560-c84c1ac0d7f1" d="M166.91763,91.281a2.61454,2.61454,0,0,1-1.03516-1.11328,3.77236,3.77236,0,0,1-.36426-1.71387V88.448a3.7205,3.7205,0,0,1,.36719-1.70508,2.65367,2.65367,0,0,1,1.03516-1.11035,3.04788,3.04788,0,0,1,1.56543-.39062,2.99575,2.99575,0,0,1,1.41015.3125,2.45815,2.45815,0,0,1,.93262.82421,2.34762,2.34762,0,0,1,.38476,1.13086v.041h-1.36425l-.01172-.04688a1.40351,1.40351,0,0,0-.42188-.7666,1.27785,1.27785,0,0,0-.91308-.31738,1.31566,1.31566,0,0,0-.79492.24805,1.59082,1.59082,0,0,0-.52833.70214,2.87417,2.87417,0,0,0-.18652,1.08985v.00586a2.84829,2.84829,0,0,0,.18945,1.0957,1.56751,1.56751,0,0,0,.53125.69727,1.3378,1.3378,0,0,0,.79493.24218,1.30684,1.30684,0,0,0,.8955-.30078,1.37878,1.37878,0,0,0,.43946-.78418l.01172-.05175h1.37011l-.00586.04a2.39788,2.39788,0,0,1-.4082,1.1543,2.47277,2.47277,0,0,1-.93848.81348,2.975,2.975,0,0,1-1.37011.2998A3.089,3.089,0,0,1,166.91763,91.281Z"/><path class="ac235381-e987-48d6-8560-c84c1ac0d7f1" d="M172.21157,91.39815a.85118.85118,0,1,1,.60059.24511A.81005.81005,0,0,1,172.21157,91.39815Z"/><path class="e80cbb57-4cb2-4da4-a247-2e7d9ee735e7" d="M112.028,105.7165a4.38964,4.38964,0,0,1-1.55567-.93554,4.18167,4.18167,0,0,1-1.02636-1.52442,5.52981,5.52981,0,0,1-.36426-2.07812v-.00586a5.3637,5.3637,0,0,1,.34961-1.97559,4.41169,4.41169,0,0,1,2.52148-2.53906,5.58164,5.58164,0,0,1,4.35156.18945,4.09384,4.09384,0,0,1,1.66114,1.542,4.48455,4.48455,0,0,1,.60644,2.37011v.00586a4.506,4.506,0,0,1-.2539,1.62012,2.19965,2.19965,0,0,1-.69043.98535,1.579,1.579,0,0,1-.9795.332,1.34655,1.34655,0,0,1-.90625-.30566,1.6523,1.6523,0,0,1-.50488-.74317l-.0166-.05273h-.05273a1.529,1.529,0,0,1-.63282.79,2.00082,2.00082,0,0,1-2.05175-.04981,2.03465,2.03465,0,0,1-.71094-.8623,3.08514,3.08514,0,0,1-.25391-1.29492v-.00586a2.8869,2.8869,0,0,1,.25977-1.25879,2.055,2.055,0,0,1,.71679-.84766,1.8459,1.8459,0,0,1,1.05176-.30664,1.69307,1.69307,0,0,1,.85742.22461,1.27549,1.27549,0,0,1,.55372.59766h.04687v-.71094h.87988v2.83887a1.53175,1.53175,0,0,0,.21582.89746.66112.66112,0,0,0,.55957.29687.84718.84718,0,0,0,.7461-.53613,3.51516,3.51516,0,0,0,.28515-1.60254v-.00586a3.7669,3.7669,0,0,0-.48632-1.95312,3.27485,3.27485,0,0,0-1.3584-1.26758,4.38034,4.38034,0,0,0-2.02539-.44629,3.93891,3.93891,0,0,0-1.54493.29688,3.606,3.606,0,0,0-1.22363.84277,3.82431,3.82431,0,0,0-.80469,1.29394,4.58671,4.58671,0,0,0-.28613,1.64649v.00586a4.30487,4.30487,0,0,0,.53125,2.21289,3.47182,3.47182,0,0,0,1.44238,1.37207,4.46757,4.46757,0,0,0,2.06641.4668,8.12107,8.12107,0,0,0,1.13086-.07618,3.14474,3.14474,0,0,0,.82812-.2041v.793a5.96562,5.96562,0,0,1-1.9707.28613A5.82617,5.82617,0,0,1,112.028,105.7165Zm2.60937-3.331a1.84843,1.84843,0,0,0,.35547-1.18945v-.00586a1.8228,1.8228,0,0,0-.35547-1.18262,1.15516,1.15516,0,0,0-.94433-.4375,1.14361,1.14361,0,0,0-.668.19238,1.21593,1.21593,0,0,0-.42578.55371,2.28907,2.28907,0,0,0-.14844.86817v.00586a2.33142,2.33142,0,0,0,.14844.87793,1.25833,1.25833,0,0,0,.42578.5625,1.09969,1.09969,0,0,0,.65625.19824A1.16256,1.16256,0,0,0,114.63735,102.38545Z"/><path class="e80cbb57-4cb2-4da4-a247-2e7d9ee735e7" d="M119.79556,96.25264h3.15332a3.04,3.04,0,0,1,1.41406.3125,2.27861,2.27861,0,0,1,.93555.874,2.55666,2.55666,0,0,1,.332,1.32031v.01172a2.54707,2.54707,0,0,1-.45215,1.5127,2.33663,2.33663,0,0,1-1.23828.88867l1.94726,3.49219h-1.23047l-1.80078-3.32813h-2.01172v3.32813h-1.04882Zm3.06054,4.15625a1.74263,1.74263,0,0,0,1.25-.41895,1.5767,1.5767,0,0,0,.44043-1.19531v-.01172a1.51264,1.51264,0,0,0-.46386-1.1748,1.82083,1.82083,0,0,0-1.27344-.42286h-1.96485v3.22364Z"/><path class="e80cbb57-4cb2-4da4-a247-2e7d9ee735e7" d="M127.65981,104.39619a2.50312,2.50312,0,0,1-.96191-1.08691,3.7947,3.7947,0,0,1-.335-1.65235v-.00586a3.81474,3.81474,0,0,1,.33789-1.65234,2.63935,2.63935,0,0,1,.95019-1.11328,2.82274,2.82274,0,0,1,2.86524-.01758,2.47,2.47,0,0,1,.918,1.06934,3.74476,3.74476,0,0,1,.32129,1.59765v.37305h-4.88575v-.793h4.38379l-.51269.73438v-.39063a2.78645,2.78645,0,0,0-.21289-1.166,1.50424,1.50424,0,0,0-.58594-.68457,1.73053,1.73053,0,0,0-1.72559.01171,1.60731,1.60731,0,0,0-.60546.69922,2.61749,2.61749,0,0,0-.22168,1.13965v.39063a2.49706,2.49706,0,0,0,.21875,1.0957,1.59769,1.59769,0,0,0,.62011.69629,1.80218,1.80218,0,0,0,.9502.24219,1.92032,1.92032,0,0,0,.68847-.11621,1.43481,1.43481,0,0,0,.50684-.32129,1.17277,1.17277,0,0,0,.291-.46582l.01757-.05274h.99707l-.01171.0586a2.00639,2.00639,0,0,1-.28809.69921,2.251,2.251,0,0,1-.5459.57422,2.55345,2.55345,0,0,1-.75781.38477,2.96933,2.96933,0,0,1-.9209.13672A2.799,2.799,0,0,1,127.65981,104.39619Z"/><path class="e80cbb57-4cb2-4da4-a247-2e7d9ee735e7" d="M133.69985,104.39326a2.53383,2.53383,0,0,1-.90136-1.0957,3.99929,3.99929,0,0,1-.32032-1.66406v-.00586a3.96284,3.96284,0,0,1,.32325-1.66114,2.56417,2.56417,0,0,1,.90136-1.09277,2.33351,2.33351,0,0,1,1.335-.38769,2.198,2.198,0,0,1,1.14844.30273,2.13839,2.13839,0,0,1,.792.82813h.02344V96.25264h1.01465v8.41211h-1.01465v-1.02637h-.02344a2.17274,2.17274,0,0,1-.77832.83691,2.12334,2.12334,0,0,1-1.14551.30567A2.37688,2.37688,0,0,1,133.69985,104.39326Zm2.46289-.78906a1.85671,1.85671,0,0,0,.62012-.78711,2.88888,2.88888,0,0,0,.22461-1.18359v-.00586a2.83948,2.83948,0,0,0-.22754-1.18067,1.8901,1.8901,0,0,0-.62012-.78418,1.5256,1.5256,0,0,0-.90722-.27929,1.57332,1.57332,0,0,0-.92676.27343,1.74553,1.74553,0,0,0-.59961.77539,3.07793,3.07793,0,0,0-.21,1.19532v.00586a3.11888,3.11888,0,0,0,.21,1.20117,1.7171,1.7171,0,0,0,.59961.77832,1.58547,1.58547,0,0,0,.92676.27051A1.53877,1.53877,0,0,0,136.16274,103.6042Z"/><path class="e80cbb57-4cb2-4da4-a247-2e7d9ee735e7" d="M139.529,96.25264h1.04883v3.63769H145.195V96.25264h1.04883v8.41211H145.195v-3.83008h-4.61719v3.83008H139.529Z"/><path class="e80cbb57-4cb2-4da4-a247-2e7d9ee735e7" d="M148.41665,104.5544a1.71089,1.71089,0,0,1-.709-.64161,1.806,1.806,0,0,1-.25293-.96191v-.01172a1.50653,1.50653,0,0,1,.57714-1.23828,2.78142,2.78142,0,0,1,1.62012-.52246l2.24414-.12793v.78711l-2.12695.12793a1.68466,1.68466,0,0,0-.94141.292.81618.81618,0,0,0-.33594.68164v.01172a.83171.83171,0,0,0,.33008.69336,1.38175,1.38175,0,0,0,.877.25683,1.81716,1.81716,0,0,0,.85937-.20117,1.57366,1.57366,0,0,0,.60645-.55078,1.42767,1.42767,0,0,0,.22461-.78711V100.573a1.12365,1.12365,0,0,0-.34668-.87207,1.402,1.402,0,0,0-.98243-.31738,1.59062,1.59062,0,0,0-.9414.2539,1.06265,1.06265,0,0,0-.44629.66114l-.01172.05273h-.97852l.00586-.06445a1.80829,1.80829,0,0,1,.34082-.90918,2.0426,2.0426,0,0,1,.8125-.65039,3.26071,3.26071,0,0,1,2.46875.00293,1.873,1.873,0,0,1,.80762.6914,1.90577,1.90577,0,0,1,.28613,1.05176v4.19141h-1.01464v-.98535h-.02344a1.93243,1.93243,0,0,1-.46582.58007,2.19092,2.19092,0,0,1-.65625.38477,2.16554,2.16554,0,0,1-.77246.13672A2.32935,2.32935,0,0,1,148.41665,104.5544Z"/><path class="e80cbb57-4cb2-4da4-a247-2e7d9ee735e7" d="M154.34536,104.38447a1.68178,1.68178,0,0,1-.41406-1.26465V99.44209h-.88574v-.83984h.88574v-1.6377h1.04883v1.6377h1.15429v.83984h-1.15429V103.114a.82158.82158,0,0,0,.21.65625.95976.95976,0,0,0,.61816.17187,1.719,1.719,0,0,0,.17774-.00879c.05664-.00586.10546-.01074.14843-.01465v.82227c-.06152.00781-.14258.01562-.24121.02539-.09961.00976-.19922.01465-.30078.01465A1.7383,1.7383,0,0,1,154.34536,104.38447Z"/><path class="ac235381-e987-48d6-8560-c84c1ac0d7f1" d="M190.22945,87.44476a2.12707,2.12707,0,0,0-1.13509-1.90336,2.20425,2.20425,0,0,0,.126-.73947,2.06671,2.06671,0,0,0-2.01795-2.11359,1.90633,1.90633,0,0,0-.70621.13155,1.9817,1.9817,0,0,0-3.63292,0,1.90692,1.90692,0,0,0-.70582-.13155,2.06642,2.06642,0,0,0-2.01791,2.11359,2.21286,2.21286,0,0,0,.12558.73947,2.16469,2.16469,0,0,0-.10858,3.74505,2.29184,2.29184,0,0,0-.017.27191,2.06655,2.06655,0,0,0,2.01791,2.11359,1.9218,1.9218,0,0,0,.70582-.1312,1.98207,1.98207,0,0,0,3.63292,0,1.92119,1.92119,0,0,0,.70621.1312,2.06684,2.06684,0,0,0,2.01795-2.11359,2.28508,2.28508,0,0,0-.01778-.27191A2.13566,2.13566,0,0,0,190.22945,87.44476Zm-3.49682-1.76249L184.442,89.1177a.39637.39637,0,0,1-.54969.10994l-.06013-.04955-1.27642-1.27641a.39635.39635,0,0,1,.56053-.56053l.93438.9344,2.02233-3.033a.39639.39639,0,1,1,.65963.43975Z"/><path class="bd4c6623-f0dc-4d40-8dae-7a944692f457" d="M95.2266,92.86977a5.34655,5.34655,0,0,1,.18486,1.08516c0,1.50093-1.68578,2.332-3.90206,2.332-5.01074,0-9.39758-2.93229-9.39758-4.87186a1.97376,1.97376,0,0,1,.1616-.785c-1.80107.09236-4.13309.41551-4.13309,2.4705,0,3.371,7.9891,7.52714,14.31558,7.52714,4.84891,0,6.07241-2.19337,6.07241-3.9251,0-1.36249-1.17744-2.90918-3.30172-3.83289m-3.48649,1.2238c1.33939,0,3.27869-.27719,3.27869-1.87032a1.51424,1.51424,0,0,0-.0332-.36656l-.79774-3.46623c-.185-.76194-.3465-1.10837-1.68567-1.778a15.63751,15.63751,0,0,0-3.9715-1.40831c-.62341,0-.808.808-1.547.808-.71565,0-1.24675-.60018-1.91634-.60018-.64636,0-1.06219.43858-1.3854,1.33917,0,0-.90058,2.5398-1.016,2.909a.66955.66955,0,0,0-.02378.20805c0,.98709,3.88749,4.2254,9.09792,4.2254"/><path d="M95.2266,92.86977a5.34655,5.34655,0,0,1,.18486,1.08516c0,1.50093-1.68578,2.332-3.90206,2.332-5.01074,0-9.39758-2.93229-9.39758-4.87186a1.97376,1.97376,0,0,1,.1616-.785l.39255-.97a.66955.66955,0,0,0-.02378.20805c0,.98709,3.88749,4.2254,9.09792,4.2254,1.33939,0,3.27869-.27719,3.27869-1.87032a1.51424,1.51424,0,0,0-.0332-.36656l.241,1.01308Z"/></g></svg>