<svg id="adb8012d-4e53-445a-8fdb-45010fbf12de" data-name="Layer 1" xmlns="http://www.w3.org/2000/svg" viewBox="0 0 262 180"><defs><style>.bdb5062f-8190-4ef5-97c1-7cbbc252291e{fill:#cb0000;}</style></defs><path class="bdb5062f-8190-4ef5-97c1-7cbbc252291e" d="M171.936,89.97947a11.50526,11.50526,0,0,1-6.38333,7.9616c-.667.34539-.92933-.21641-.61678-.749a34.41777,34.41777,0,0,0,2.5617-4.88118c.713-1.71464,1.07557-4.14408-.32057-9.22461-2.792-9.99168-8.57052-23.34821-12.7847-27.68754-4.068-4.17606-11.43069-5.35191-18.08847-3.64137-2.45563.617-7.24268,3.12164-16.14366,1.1137-15.3825-3.4582-17.66181,4.24312-18.53512,7.59816-.88931,3.35276-3.01642,12.90288-3.01642,12.90288-.71314,3.88356-1.63033,10.63858,22.27454,15.19529,11.1263,2.11106,11.69113,4.99131,12.17988,7.06526.88339,3.70455,2.30347,5.83064,3.88378,6.89019,1.59428,1.06446,0,1.93881-1.76058,2.12011-4.74088.49857-22.25667-4.53581-32.62593-10.42628-8.48828-5.18065-8.62861-9.84853-6.68776-13.80532C83.06182,79.02342,73.44178,81.605,71.69929,87.677c-2.99445,10.40334,22.88754,28.18333,52.35866,37.10741,30.91335,9.36365,62.73,2.82708,66.26512-16.61231,1.59631-8.82794-5.84866-15.35754-18.38706-18.19263ZM133.4938,56.85678c-.02212,0-.02807.0051-.04616.0051a.23005.23005,0,0,1-.23237-.22642.2014.2014,0,0,1,.12819-.19835,19.89345,19.89345,0,0,1,6.93835-1.85964,24.26728,24.26728,0,0,1,2.47948-.13206h.42659c4.727.106,8.51066,1.98475,8.45649,4.19611-.06009,2.22026-3.9338,3.91662-8.66877,3.81343a16.57023,16.57023,0,0,1-4.2101-.61283.31607.31607,0,0,1-.24837-.30332.33542.33542,0,0,1,.25228-.32056c2.95836-.676,4.94925-1.79157,4.79912-2.84721-.19031-1.40208-4.04192-2.16116-8.62463-1.70747-.49473.05-.97753.11608-1.4501.19322Zm-8.95922,14.09879c-8.53851.60976-9.4198,1.53212-11.01611,3.23977-2.25324,2.38738-5.21961-3.1206-5.21961-3.1206a4.57044,4.57044,0,0,1-2.78405-5.92371c1.14959-2.65689,3.26688-1.85882,3.9398-1.03145.81119,1.00335,2.52764,2.65073,4.75891,2.58263,2.25324-.049,4.83117-.52361,8.43233-.52361,3.64931,0,6.103,1.36084,6.2412,2.53255.12021,1.00848-.29843,1.94291-4.35247,2.24442Z"/></svg>