<svg xmlns="http://www.w3.org/2000/svg" xmlns:xlink="http://www.w3.org/1999/xlink" viewBox="0 0 555 250"><defs><style>.b34f8afc-3f83-4f4c-990c-6dc8fbe28fbd{fill:none;}.b865bbfa-a4ab-42d0-a07b-275d4f4c4f8d{clip-path:url(#b753047b-3d48-4734-a8b1-c48863ec1cc0);}.e4476447-c58c-487c-8494-8a9cb671e601{fill:#2e2e2e;}.e965c6c0-4028-40c2-83f3-f6760f1a57e1{fill:#ed0000;}.e441d381-20e3-49ee-9fd9-417cb43f4298{fill:#fff;}</style><clipPath id="b753047b-3d48-4734-a8b1-c48863ec1cc0"><rect class="b34f8afc-3f83-4f4c-990c-6dc8fbe28fbd" width="555" height="250"/></clipPath></defs><g id="f90f41b1-46b8-4916-abab-262d4253207d" data-name="Layer 3"><rect width="555" height="250"/><g class="b865bbfa-a4ab-42d0-a07b-275d4f4c4f8d"><path class="e4476447-c58c-487c-8494-8a9cb671e601" d="M630.01272,124.16073c3.35932,15.94313,3.35932,17.62144,3.35932,19.71878,0,27.2739-30.63286,42.37645-70.90572,42.37645-91.05174,0-170.76645-53.28359-170.76645-88.528a35.86606,35.86606,0,0,1,2.93656-14.26459c-32.72779,1.6783-75.10371,7.55047-75.10371,44.89224,0,61.25579,145.17253,136.77818,260.13306,136.77818,88.111,0,110.34367-39.85644,110.34367-71.32425,0-24.75828-21.39573-52.86372-59.99673-69.6488m-63.35408,22.23808c24.33852,0,59.57825-5.03687,59.57825-33.98616a27.51934,27.51934,0,0,0-.60335-6.66084L611.13748,42.76575c-3.36124-13.84537-6.29629-20.1405-30.63089-32.30881-18.883-9.64776-59.99869-25.59072-72.16735-25.59072-11.32806,0-14.68173,14.68185-28.11023,14.68185-13.00443,0-22.65519-10.90616-34.82247-10.90616-11.74517,0-19.30146,7.9696-25.17449,24.33457,0,0-16.36488,46.15145-18.46241,52.86081a12.16612,12.16612,0,0,0-.43228,3.78046c0,17.93672,70.64086,76.78106,165.32128,76.78106"/></g><path class="e965c6c0-4028-40c2-83f3-f6760f1a57e1" d="M85.57257,179.19541a10.23486,10.23486,0,0,1,.3539,2.07739c0,2.87332-3.22719,4.46439-7.47,4.46439-9.59237,0-17.99037-5.61347-17.99037-9.32649a3.77855,3.77855,0,0,1,.30937-1.50279c-3.44789.17681-7.91223.79545-7.91223,4.72943,0,6.45334,15.294,14.40968,27.4052,14.40968,9.28256,0,11.62479-4.19891,11.62479-7.51406,0-2.6083-2.25406-5.56923-6.3207-7.33755m-6.6744,2.3428c2.56408,0,6.27661-.53064,6.27661-3.58047a2.89922,2.89922,0,0,0-.06356-.70172l-1.52717-6.63563c-.35411-1.45862-.66332-2.12181-3.227-3.40375-1.98934-1.0164-6.3209-2.696-7.60288-2.696-1.19342,0-1.54673,1.54674-2.96143,1.54674-1.37,0-2.38674-1.149-3.66857-1.149-1.23736,0-2.03342.8396-2.65215,2.56366,0,0-1.724,4.86209-1.945,5.56892a1.28193,1.28193,0,0,0-.04554.39828c0,1.88964,7.44206,8.08894,17.41671,8.08894"/><path d="M85.57257,179.19541a10.23486,10.23486,0,0,1,.3539,2.07739c0,2.87332-3.22719,4.46439-7.47,4.46439-9.59237,0-17.99037-5.61347-17.99037-9.32649a3.77855,3.77855,0,0,1,.30937-1.50279L61.527,173.051a1.28193,1.28193,0,0,0-.04554.39828c0,1.88964,7.44206,8.08894,17.41671,8.08894,2.56408,0,6.27661-.53064,6.27661-3.58047a2.89922,2.89922,0,0,0-.06356-.70172l.46135,1.93939Z"/><path class="e441d381-20e3-49ee-9fd9-417cb43f4298" d="M99.10447,186.91886h3.70884v-5.49878h2.8251l2.84643,5.49878h4.14025l-3.3209-6.03782a4.56714,4.56714,0,0,0,2.84663-4.24817c0-2.71705-2.13492-4.80883-5.32643-4.80883H99.10447v15.09482ZM106.4793,174.994a1.71569,1.71569,0,1,1,0,3.40716h-3.666V174.994Zm6.0162,6.232a5.98908,5.98908,0,0,0,6.21039,5.90852,6.84516,6.84516,0,0,0,4.76563-1.725l-2.30715-2.04864a3.09015,3.09015,0,0,1-2.28584.86252,2.9478,2.9478,0,0,1-2.80336-1.81137h8.1296v-.86252c0-3.62282-2.43675-6.232-5.75745-6.232a5.85931,5.85931,0,0,0-5.95182,5.90853m5.887-3.06215a2.5229,2.5229,0,0,1,2.39348,1.81147h-4.76564a2.3759,2.3759,0,0,1,2.37216-1.81147m15.82778,8.755h3.45028V171.06934l-3.49333.7547v4.29132A5.87818,5.87818,0,1,0,131.14818,187.07a5.14473,5.14473,0,0,0,3.06213-.992v.84089Zm-5.45561-5.71434a2.88847,2.88847,0,0,1,2.99733-2.88965,3.53465,3.53465,0,0,1,2.41523.88415v3.98937a3.35618,3.35618,0,0,1-2.41523.90567,2.90136,2.90136,0,0,1-2.99733-2.88954m14.13329,5.71434h3.70926v-5.90848h6.21038v5.90848h3.709V171.824h-3.709v5.80082h-6.21038V171.824H142.888v15.09482Zm18.95492.19417a5.338,5.338,0,0,0,3.14846-.88415v.69h3.45027v-7.31014c0-2.78172-1.87615-4.31284-5.00287-4.31284a12.69455,12.69455,0,0,0-5.32644,1.25079l1.25077,2.566a9.32155,9.32155,0,0,1,3.45028-.90568c1.44474,0,2.178.56068,2.178,1.70363v.56068a10.12724,10.12724,0,0,0-2.58766-.32348c-2.93277,0-4.701,1.22916-4.701,3.42867,0,2.00544,1.59565,3.5365,4.14025,3.5365m-1.06583-3.60117c0-.75479.75478-1.12133,1.89769-1.12133a8.77032,8.77032,0,0,1,2.07013.25871v1.46643a4.40918,4.40918,0,0,1-2.178.539c-1.12137,0-1.78983-.4313-1.78983-1.14285m10.85565-.06467c0,2.43661,1.4667,3.62278,4.14048,3.62278a10.71446,10.71446,0,0,0,2.43694-.34509V183.9a5.07627,5.07627,0,0,1-1.57433.23717c-1.09984,0-1.50933-.345-1.50933-1.38013V178.4227h3.1913v-2.91117h-3.1913V171.824l-3.49376.7548v2.93269h-2.30735v2.91117h2.30735v5.02449Z"/><path class="e441d381-20e3-49ee-9fd9-417cb43f4298" d="M54.833,69.32619V51.42091h1.96972V67.56154h10.666v1.76465Z"/><path class="e441d381-20e3-49ee-9fd9-417cb43f4298" d="M75.16694,69.55666a6.444,6.444,0,0,1-3.33789-.88282,6.584,6.584,0,0,1-3.26074-5.76757,6.67325,6.67325,0,0,1,.84375-3.33789,6.47713,6.47713,0,0,1,2.27637-2.37891,5.96891,5.96891,0,0,1,3.19726-.88281,5.559,5.559,0,0,1,3.082.88281,6.35928,6.35928,0,0,1,2.17481,2.37891,6.92326,6.92326,0,0,1,.80566,3.33789v.58789H70.4355a5.21487,5.21487,0,0,0,.80566,2.251,4.72525,4.72525,0,0,0,4.00293,2.14844,6.28451,6.28451,0,0,0,1.94434-.30664,4.446,4.446,0,0,0,1.58593-.87012l1.17578,1.25391a8.25194,8.25194,0,0,1-2.2373,1.18945A7.87211,7.87211,0,0,1,75.16694,69.55666Zm-4.68066-7.57129h8.56933a4.84293,4.84293,0,0,0-.75488-2.05957,4.54069,4.54069,0,0,0-1.49609-1.43262,3.83925,3.83925,0,0,0-1.96973-.52441,4.09079,4.09079,0,0,0-2.02051.51171,4.44161,4.44161,0,0,0-1.53515,1.41993A5.01718,5.01718,0,0,0,70.48628,61.98537Z"/><path class="e441d381-20e3-49ee-9fd9-417cb43f4298" d="M87.36909,69.55666a5.87075,5.87075,0,0,1-2.46875-.48633,3.97715,3.97715,0,0,1-1.66309-1.35547,3.46983,3.46983,0,0,1-.60058-2.02051,3.40281,3.40281,0,0,1,1.38086-2.86523,6.032,6.032,0,0,1,3.73437-1.04883,8.08721,8.08721,0,0,1,3.76074.87012V60.96193a2.94739,2.94739,0,0,0-.87011-2.31445,3.67325,3.67325,0,0,0-2.53223-.78028,7.01569,7.01569,0,0,0-1.90527.26856,11.57027,11.57027,0,0,0-2.11035.85644l-.71582-1.458a14.17908,14.17908,0,0,1,2.55761-.97168A9.26511,9.26511,0,0,1,88.29,56.25588a5.52044,5.52044,0,0,1,3.74707,1.15039,4.14811,4.14811,0,0,1,1.31738,3.2998v8.62012h-1.8418V68.07326a6.07447,6.07447,0,0,1-1.90625,1.1123A6.59441,6.59441,0,0,1,87.36909,69.55666Zm-2.916-3.91407a2.08971,2.08971,0,0,0,.90723,1.752,3.80946,3.80946,0,0,0,2.34082.67871,5.8735,5.8735,0,0,0,2.09766-.3584,4.822,4.822,0,0,0,1.71386-1.126V64.18459a5.67234,5.67234,0,0,0-1.68847-.78028,7.75978,7.75978,0,0,0-2.02051-.24218,3.99177,3.99177,0,0,0-2.44336.67773A2.1386,2.1386,0,0,0,84.45307,65.64259Z"/><path class="e441d381-20e3-49ee-9fd9-417cb43f4298" d="M96.52534,69.32619V56.51076h1.89258v1.8164A4.34676,4.34676,0,0,1,99.915,56.78029a3.93541,3.93541,0,0,1,2.084-.55078,3.79084,3.79084,0,0,1,1.20215.17969v1.73925a3.29805,3.29805,0,0,0-.665-.17968,4.48427,4.48427,0,0,0-.665-.05079,3.28693,3.28693,0,0,0-2.05859.67774,4.49918,4.49918,0,0,0-1.39453,1.957v8.77344Z"/><path class="e441d381-20e3-49ee-9fd9-417cb43f4298" d="M105.37593,69.32619V56.51076h1.89257v1.50976a5.04773,5.04773,0,0,1,4.042-1.76464,5.15476,5.15476,0,0,1,2.57031.626,4.49078,4.49078,0,0,1,1.73926,1.73926,5.20246,5.20246,0,0,1,.627,2.59668v8.1084h-1.86719V61.60158a3.70043,3.70043,0,0,0-.959-2.69824,3.48935,3.48935,0,0,0-2.62207-.98536,4.05058,4.05058,0,0,0-2.0459.51172,4.17972,4.17972,0,0,0-1.48438,1.458v9.43848Z"/><path class="e441d381-20e3-49ee-9fd9-417cb43f4298" d="M124.91792,69.32619V56.51076h1.89258V57.918a4.77235,4.77235,0,0,1,3.76074-1.6621,4.60421,4.60421,0,0,1,2.40429.626,4.42558,4.42558,0,0,1,1.63672,1.70117,5.19362,5.19362,0,0,1,1.89258-1.752,5.3268,5.3268,0,0,1,2.50684-.57519,4.70612,4.70612,0,0,1,2.45605.626,4.44211,4.44211,0,0,1,1.64942,1.73926,5.3864,5.3864,0,0,1,.60156,2.59668v8.1084h-1.86719V61.60158a3.86125,3.86125,0,0,0-.89551-2.69824,3.12027,3.12027,0,0,0-2.42968-.98536,3.64465,3.64465,0,0,0-1.91895.52442,4.33838,4.33838,0,0,0-1.4834,1.57324c.03418.1875.06348.37988.08985.5752a4.89294,4.89294,0,0,1,.03808.627v8.1084h-1.86719V61.60158a3.86125,3.86125,0,0,0-.8955-2.69824,3.08778,3.08778,0,0,0-2.4043-.98536,3.68014,3.68014,0,0,0-1.85449.47364,4.10187,4.10187,0,0,0-1.41992,1.39355v9.541Z"/><path class="e441d381-20e3-49ee-9fd9-417cb43f4298" d="M152.84956,69.58205a6.3956,6.3956,0,0,1-3.3125-.88282,6.49385,6.49385,0,0,1-2.36621-2.3916,6.99307,6.99307,0,0,1,0-6.75293,6.50852,6.50852,0,0,1,2.36621-2.3916,6.68628,6.68628,0,0,1,6.63769,0,6.53435,6.53435,0,0,1,2.35352,2.3916,6.99307,6.99307,0,0,1,0,6.75293,6.51951,6.51951,0,0,1-2.35352,2.3916A6.376,6.376,0,0,1,152.84956,69.58205Zm0-1.68848a4.36608,4.36608,0,0,0,2.36621-.665,4.88455,4.88455,0,0,0,1.68848-1.79,5.358,5.358,0,0,0,0-5.02636,4.91914,4.91914,0,0,0-1.68848-1.77832,4.542,4.542,0,0,0-4.73242,0,4.90286,4.90286,0,0,0-1.68848,1.77832,5.35791,5.35791,0,0,0,0,5.02636,4.86858,4.86858,0,0,0,1.68848,1.79A4.36608,4.36608,0,0,0,152.84956,67.89357Z"/><path class="e441d381-20e3-49ee-9fd9-417cb43f4298" d="M162.03218,69.32619V56.51076h1.89257v1.8164a4.34685,4.34685,0,0,1,1.49707-1.54687,3.93547,3.93547,0,0,1,2.084-.55078,3.79088,3.79088,0,0,1,1.20215.17969v1.73925a3.29805,3.29805,0,0,0-.665-.17968,4.48427,4.48427,0,0,0-.665-.05079,3.287,3.287,0,0,0-2.0586.67774,4.49926,4.49926,0,0,0-1.39453,1.957v8.77344Z"/><path class="e441d381-20e3-49ee-9fd9-417cb43f4298" d="M175.998,69.55666a6.444,6.444,0,0,1-3.33789-.88282,6.58407,6.58407,0,0,1-3.26075-5.76757,6.67325,6.67325,0,0,1,.84375-3.33789,6.47713,6.47713,0,0,1,2.27637-2.37891,5.969,5.969,0,0,1,3.19727-.88281,5.559,5.559,0,0,1,3.082.88281,6.35926,6.35926,0,0,1,2.1748,2.37891,6.92327,6.92327,0,0,1,.80567,3.33789v.58789h-10.5127a5.215,5.215,0,0,0,.80566,2.251,4.72529,4.72529,0,0,0,4.00293,2.14844,6.28451,6.28451,0,0,0,1.94434-.30664,4.44616,4.44616,0,0,0,1.58594-.87012l1.17578,1.25391a8.252,8.252,0,0,1-2.23731,1.18945A7.872,7.872,0,0,1,175.998,69.55666Zm-4.68067-7.57129h8.56934a4.84281,4.84281,0,0,0-.75489-2.05957,4.54069,4.54069,0,0,0-1.49609-1.43262,3.83925,3.83925,0,0,0-1.96973-.52441,4.09078,4.09078,0,0,0-2.0205.51171,4.44164,4.44164,0,0,0-1.53516,1.41993A5.01718,5.01718,0,0,0,171.31733,61.98537Z"/><path class="e441d381-20e3-49ee-9fd9-417cb43f4298" d="M193.955,69.55666a5.87075,5.87075,0,0,1-2.46875-.48633,3.97715,3.97715,0,0,1-1.66309-1.35547,3.46983,3.46983,0,0,1-.60058-2.02051,3.40282,3.40282,0,0,1,1.38085-2.86523,6.032,6.032,0,0,1,3.73438-1.04883,8.08721,8.08721,0,0,1,3.76074.87012V60.96193a2.9474,2.9474,0,0,0-.87012-2.31445,3.6732,3.6732,0,0,0-2.53222-.78028,7.01576,7.01576,0,0,0-1.90528.26856,11.57084,11.57084,0,0,0-2.11035.85644l-.71582-1.458a14.17887,14.17887,0,0,1,2.55762-.97168,9.26511,9.26511,0,0,1,2.35352-.30664,5.52044,5.52044,0,0,1,3.74707,1.15039,4.14811,4.14811,0,0,1,1.31738,3.2998v8.62012h-1.8418V68.07326a6.07458,6.07458,0,0,1-1.90625,1.1123A6.59441,6.59441,0,0,1,193.955,69.55666Zm-2.916-3.91407a2.08971,2.08971,0,0,0,.90723,1.752,3.80946,3.80946,0,0,0,2.34082.67871,5.8734,5.8734,0,0,0,2.09765-.3584,4.82211,4.82211,0,0,0,1.71387-1.126V64.18459a5.67257,5.67257,0,0,0-1.68847-.78028,7.75978,7.75978,0,0,0-2.02051-.24218,3.99177,3.99177,0,0,0-2.44336.67773A2.1386,2.1386,0,0,0,191.039,65.64259Z"/><path class="e441d381-20e3-49ee-9fd9-417cb43f4298" d="M203.11128,69.32619V51.42091l1.89258-.43457V57.8672a5.7327,5.7327,0,0,1,4.11816-1.56054,6.1936,6.1936,0,0,1,3.27441.88281,6.53217,6.53217,0,0,1,3.17188,5.7168,6.64847,6.64847,0,0,1-.85742,3.36328,6.53072,6.53072,0,0,1-2.31446,2.3789,6.25051,6.25051,0,0,1-3.2998.88282,6.38053,6.38053,0,0,1-2.18652-.38379,6.48509,6.48509,0,0,1-1.93165-1.10059v1.2793Zm5.832-1.458a4.59067,4.59067,0,0,0,2.42969-.65234,4.7598,4.7598,0,0,0,1.70117-1.76465,5.04468,5.04468,0,0,0,.62695-2.51953,5.114,5.114,0,0,0-.62695-2.53223,4.74024,4.74024,0,0,0-1.70117-1.77832,4.59067,4.59067,0,0,0-2.42969-.65234,5.322,5.322,0,0,0-2.23828.47363,4.51591,4.51591,0,0,0-1.70117,1.31738v6.34375a4.59085,4.59085,0,0,0,1.71386,1.291A5.33654,5.33654,0,0,0,208.94331,67.86818Z"/><path class="e441d381-20e3-49ee-9fd9-417cb43f4298" d="M224.16206,69.58205a6.3956,6.3956,0,0,1-3.3125-.88282,6.49385,6.49385,0,0,1-2.36621-2.3916,6.99307,6.99307,0,0,1,0-6.75293,6.50852,6.50852,0,0,1,2.36621-2.3916,6.68628,6.68628,0,0,1,6.63769,0,6.53435,6.53435,0,0,1,2.35352,2.3916,6.99307,6.99307,0,0,1,0,6.75293,6.51951,6.51951,0,0,1-2.35352,2.3916A6.376,6.376,0,0,1,224.16206,69.58205Zm0-1.68848a4.36608,4.36608,0,0,0,2.36621-.665,4.88455,4.88455,0,0,0,1.68848-1.79,5.358,5.358,0,0,0,0-5.02636,4.91914,4.91914,0,0,0-1.68848-1.77832,4.542,4.542,0,0,0-4.73242,0,4.90286,4.90286,0,0,0-1.68848,1.77832,5.35791,5.35791,0,0,0,0,5.02636,4.86858,4.86858,0,0,0,1.68848,1.79A4.36608,4.36608,0,0,0,224.16206,67.89357Z"/><path class="e441d381-20e3-49ee-9fd9-417cb43f4298" d="M238.25581,69.58205a5.21728,5.21728,0,0,1-2.583-.627,4.4547,4.4547,0,0,1-1.75293-1.73925,5.19827,5.19827,0,0,1-.626-2.59571V56.51076h1.86719v7.72558a3.67082,3.67082,0,0,0,.97168,2.69825,3.50182,3.50182,0,0,0,2.60938.98437,3.96947,3.96947,0,0,0,3.52929-1.99512V56.51076H244.165V69.32619h-1.89356v-1.4834A5.0529,5.0529,0,0,1,238.25581,69.58205Z"/><path class="e441d381-20e3-49ee-9fd9-417cb43f4298" d="M252.42671,69.58205a3.73606,3.73606,0,0,1-2.55762-.793,2.90965,2.90965,0,0,1-.89551-2.30176V58.12306h-2.76269v-1.6123h2.76269v-3.248l1.86719-.48633v3.73438h3.8623v1.6123h-3.8623V66.001a1.98239,1.98239,0,0,0,.46094,1.47071,2.11119,2.11119,0,0,0,1.50879.44726,5.431,5.431,0,0,0,.959-.07617,5.5754,5.5754,0,0,0,.9082-.25586V69.249a4.95625,4.95625,0,0,1-1.08691.25586A9.097,9.097,0,0,1,252.42671,69.58205Z"/><path class="e441d381-20e3-49ee-9fd9-417cb43f4298" d="M54.47456,98.51173V80.60646l1.89258-.43457v7.03418a5.04768,5.04768,0,0,1,4.042-1.76465,5.15477,5.15477,0,0,1,2.57031.626,4.49078,4.49078,0,0,1,1.73926,1.73926,5.20233,5.20233,0,0,1,.627,2.59668v8.10839H63.47846v-7.7246a3.70045,3.70045,0,0,0-.959-2.69825,3.48938,3.48938,0,0,0-2.62207-.98535,4.05058,4.05058,0,0,0-2.0459.51172,4.17969,4.17969,0,0,0-1.48437,1.458v9.43847Z"/><path class="e441d381-20e3-49ee-9fd9-417cb43f4298" d="M68.79878,103.98537a5.72548,5.72548,0,0,1-.67774-.03809,4.34053,4.34053,0,0,1-.52441-.08984v-1.71387a4.77214,4.77214,0,0,0,1.07422.10254,2.7754,2.7754,0,0,0,2.55761-1.99512l.76758-1.76465-5.21777-12.79h2.09766L73.01948,96.21,77.496,85.69631h2.0459l-6.39453,14.81054A8.94946,8.94946,0,0,1,71.996,102.502a3.85184,3.85184,0,0,1-1.39355,1.126A4.29316,4.29316,0,0,1,68.79878,103.98537Z"/><path class="e441d381-20e3-49ee-9fd9-417cb43f4298" d="M81.30659,98.51173V80.60646l1.89258-.43457v6.88086a5.73271,5.73271,0,0,1,4.11816-1.56055,6.19364,6.19364,0,0,1,3.27442.88282,6.53219,6.53219,0,0,1,3.17187,5.71679,6.64845,6.64845,0,0,1-.85742,3.36328A6.5308,6.5308,0,0,1,90.59175,97.834a6.25054,6.25054,0,0,1-3.29981.88281,6.38053,6.38053,0,0,1-2.18652-.38379,6.485,6.485,0,0,1-1.93164-1.10058v1.27929Zm5.832-1.458a4.59068,4.59068,0,0,0,2.42969-.65235,4.75964,4.75964,0,0,0,1.70117-1.76465,5.04466,5.04466,0,0,0,.62695-2.51953,5.114,5.114,0,0,0-.62695-2.53222,4.74009,4.74009,0,0,0-1.70117-1.77832,4.59068,4.59068,0,0,0-2.42969-.65235,5.322,5.322,0,0,0-2.23828.47364,4.516,4.516,0,0,0-1.70117,1.31738v6.34375a4.59089,4.59089,0,0,0,1.71386,1.291A5.33639,5.33639,0,0,0,87.13862,97.05373Z"/><path class="e441d381-20e3-49ee-9fd9-417cb43f4298" d="M96.39741,98.51173V85.69631H98.29v1.8164a4.34668,4.34668,0,0,1,1.49707-1.54687,3.93541,3.93541,0,0,1,2.084-.55078,3.79084,3.79084,0,0,1,1.20215.17968V87.334a3.29875,3.29875,0,0,0-.665-.17969,4.48561,4.48561,0,0,0-.665-.05078,3.28687,3.28687,0,0,0-2.05859.67774A4.49912,4.49912,0,0,0,98.29,89.7383v8.77343Z"/><path class="e441d381-20e3-49ee-9fd9-417cb43f4298" d="M106.19428,83.24123a1.22415,1.22415,0,0,1-.89453-.38379,1.25546,1.25546,0,0,1-.38379-.9209,1.18427,1.18427,0,0,1,.38379-.88184,1.27473,1.27473,0,0,1,1.80274,1.80274A1.2137,1.2137,0,0,1,106.19428,83.24123Zm-.94628,15.2705V85.69631h1.89257V98.51173Z"/><path class="e441d381-20e3-49ee-9fd9-417cb43f4298" d="M116.22065,98.71681a6.22094,6.22094,0,0,1-3.26074-.88281,6.49083,6.49083,0,0,1-2.32813-2.37891,6.64791,6.64791,0,0,1-.85644-3.36328,6.57889,6.57889,0,0,1,.85644-3.35156,6.51294,6.51294,0,0,1,2.32813-2.36523,6.257,6.257,0,0,1,3.28613-.88282,6.47921,6.47921,0,0,1,2.17481.3711,6.29728,6.29728,0,0,1,1.918,1.08691V80.60646l1.89355-.43457V98.51173h-1.86816V97.15627A5.87716,5.87716,0,0,1,116.22065,98.71681Zm.17969-1.66308a5.3058,5.3058,0,0,0,2.2373-.47364,4.49641,4.49641,0,0,0,1.70118-1.3164V88.91994a4.62081,4.62081,0,0,0-1.70118-1.292,5.32078,5.32078,0,0,0-2.2373-.47364,4.66018,4.66018,0,0,0-4.13184,2.3916,5.04415,5.04415,0,0,0-.626,2.51954,5.11718,5.11718,0,0,0,.626,2.5332,4.80317,4.80317,0,0,0,1.71387,1.79A4.54087,4.54087,0,0,0,116.40034,97.05373Z"/><path class="e441d381-20e3-49ee-9fd9-417cb43f4298" d="M136.88862,98.7422a6.32526,6.32526,0,0,1-3.2998-.88281,6.51951,6.51951,0,0,1-2.35352-2.3916,6.72237,6.72237,0,0,1,2.35352-9.13184,6.262,6.262,0,0,1,3.2998-.89453,7.201,7.201,0,0,1,2.71094.52442,7.00552,7.00552,0,0,1,2.30273,1.49609l-1.20215,1.38086a5.20039,5.20039,0,0,0-1.75293-1.24023,5.112,5.112,0,0,0-2.0332-.42188,4.42383,4.42383,0,0,0-2.36621.65234,4.788,4.788,0,0,0-1.68848,1.76465,4.98979,4.98979,0,0,0-.626,2.49414,5.06417,5.06417,0,0,0,.626,2.50684A4.73774,4.73774,0,0,0,134.5605,96.376a4.50083,4.50083,0,0,0,2.3789.65235,4.88858,4.88858,0,0,0,1.98242-.40918,5.9658,5.9658,0,0,0,1.752-1.20215l1.17675,1.27832a7.57428,7.57428,0,0,1-2.30175,1.50976A6.81828,6.81828,0,0,1,136.88862,98.7422Z"/><path class="e441d381-20e3-49ee-9fd9-417cb43f4298" d="M144.07612,98.51173V80.60646l1.89258-.43457V98.51173Z"/><path class="e441d381-20e3-49ee-9fd9-417cb43f4298" d="M155.15132,98.76759a6.39556,6.39556,0,0,1-3.3125-.88281,6.49378,6.49378,0,0,1-2.36621-2.3916,6.993,6.993,0,0,1,0-6.75293,6.50844,6.50844,0,0,1,2.36621-2.3916,6.68621,6.68621,0,0,1,6.63769,0,6.53435,6.53435,0,0,1,2.35352,2.3916,6.99307,6.99307,0,0,1,0,6.75293,6.51951,6.51951,0,0,1-2.35352,2.3916A6.376,6.376,0,0,1,155.15132,98.76759Zm0-1.68847a4.3661,4.3661,0,0,0,2.36621-.665,4.88444,4.88444,0,0,0,1.68847-1.79,5.35793,5.35793,0,0,0,0-5.02637,4.91911,4.91911,0,0,0-1.68847-1.77832,4.542,4.542,0,0,0-4.73242,0,4.90294,4.90294,0,0,0-1.68848,1.77832,5.35793,5.35793,0,0,0,0,5.02637,4.86858,4.86858,0,0,0,1.68848,1.79A4.36605,4.36605,0,0,0,155.15132,97.07912Z"/><path class="e441d381-20e3-49ee-9fd9-417cb43f4298" d="M169.24507,98.76759a5.21728,5.21728,0,0,1-2.583-.62695,4.45466,4.45466,0,0,1-1.75293-1.73926,5.19823,5.19823,0,0,1-.626-2.5957V85.69631h1.86719v7.72558a3.67079,3.67079,0,0,0,.97168,2.69824,3.50182,3.50182,0,0,0,2.60937.98438,3.96952,3.96952,0,0,0,3.5293-1.99512V85.69631h1.89356V98.51173h-1.89356V97.02834A5.05291,5.05291,0,0,1,169.24507,98.76759Z"/><path class="e441d381-20e3-49ee-9fd9-417cb43f4298" d="M184.23432,98.71681a6.22094,6.22094,0,0,1-3.26074-.88281,6.49088,6.49088,0,0,1-2.32812-2.37891,6.64781,6.64781,0,0,1-.85645-3.36328,6.57879,6.57879,0,0,1,.85645-3.35156,6.513,6.513,0,0,1,2.32812-2.36523,6.257,6.257,0,0,1,3.28613-.88282,6.47921,6.47921,0,0,1,2.17481.3711,6.29728,6.29728,0,0,1,1.918,1.08691V80.60646l1.89355-.43457V98.51173h-1.86816V97.15627A5.87716,5.87716,0,0,1,184.23432,98.71681Zm.17969-1.66308a5.30585,5.30585,0,0,0,2.23731-.47364,4.49646,4.49646,0,0,0,1.70117-1.3164V88.91994a4.62085,4.62085,0,0,0-1.70117-1.292,5.32082,5.32082,0,0,0-2.23731-.47364,4.66014,4.66014,0,0,0-4.13183,2.3916,5.04416,5.04416,0,0,0-.626,2.51954,5.11719,5.11719,0,0,0,.626,2.5332,4.80307,4.80307,0,0,0,1.71386,1.79A4.54089,4.54089,0,0,0,184.414,97.05373Z"/><path class="e441d381-20e3-49ee-9fd9-417cb43f4298" d="M195.05366,88.02443a1.31038,1.31038,0,1,1,.9209-.38379A1.25546,1.25546,0,0,1,195.05366,88.02443Zm0,10.64063a1.31038,1.31038,0,1,1,.9209-.38379A1.25546,1.25546,0,0,1,195.05366,98.66506Z"/><path class="e441d381-20e3-49ee-9fd9-417cb43f4298" d="M56.77632,127.69826,53.0937,114.37209h3.35058l2.2002,8.59375,2.66016-8.59375H64.246l2.63477,8.62011L69.08,114.37209h3.27441l-3.68359,13.32617h-3.376l-2.55859-8.51758-2.583,8.51758Z"/><path class="e441d381-20e3-49ee-9fd9-417cb43f4298" d="M76.77827,127.69826l-3.68262-13.32617h3.35059l2.20019,8.59375,2.66016-8.59375H84.248l2.63476,8.62011,2.19922-8.62011h3.27441L88.6728,127.69826h-3.376l-2.55859-8.51758-2.583,8.51758Z"/><path class="e441d381-20e3-49ee-9fd9-417cb43f4298" d="M96.78022,127.69826l-3.68261-13.32617h3.35058l2.2002,8.59375,2.66015-8.59375H104.25l2.63476,8.62011,2.19922-8.62011h3.27442l-3.6836,13.32617h-3.376l-2.5586-8.51758-2.583,8.51758Z"/><path class="e441d381-20e3-49ee-9fd9-417cb43f4298" d="M114.788,127.92873a2.00093,2.00093,0,0,1-1.4707-.60157,1.97071,1.97071,0,0,1-.60156-1.44531,2.07229,2.07229,0,1,1,4.14453,0,1.97071,1.97071,0,0,1-.60156,1.44531A2.00094,2.00094,0,0,1,114.788,127.92873Z"/><path class="e441d381-20e3-49ee-9fd9-417cb43f4298" d="M119.34077,127.69826V114.37209H122.871v1.48339a4.12536,4.12536,0,0,1,1.52149-1.33007,4.42486,4.42486,0,0,1,2.03418-.46094,3.33588,3.33588,0,0,1,1.458.28125v3.0957a4.86914,4.86914,0,0,0-.85742-.28125,4.17,4.17,0,0,0-.93359-.10254,3.46621,3.46621,0,0,0-1.86719.52442,3.8355,3.8355,0,0,0-1.35547,1.4707v8.64551Z"/><path class="e441d381-20e3-49ee-9fd9-417cb43f4298" d="M135.789,127.95412a7.17182,7.17182,0,0,1-6.19043-3.415,6.55645,6.55645,0,0,1-.94629-3.49121,6.85513,6.85513,0,0,1,.90821-3.49121,6.7776,6.7776,0,0,1,2.46777-2.49414,6.66451,6.66451,0,0,1,3.45312-.9209,6.32018,6.32018,0,0,1,3.415.93359,6.59418,6.59418,0,0,1,2.35352,2.54492,7.73479,7.73479,0,0,1,.85644,3.6836v.9209h-9.873a3.8924,3.8924,0,0,0,.76758,1.43261,3.62134,3.62134,0,0,0,1.30371.98438,4.0003,4.0003,0,0,0,1.66308.3457,4.93056,4.93056,0,0,0,1.63672-.26855,3.589,3.589,0,0,0,1.30469-.78028l2.30176,2.09668a8.01244,8.01244,0,0,1-5.42188,1.919Zm-3.60742-8.23633h6.49707a3.74552,3.74552,0,0,0-.67773-1.39453,3.35372,3.35372,0,0,0-1.1377-.9336,3.17432,3.17432,0,0,0-1.43262-.332,3.38184,3.38184,0,0,0-1.4834.31934,2.98692,2.98692,0,0,0-1.11328.9209A3.97163,3.97163,0,0,0,132.18159,119.71779Z"/><path class="e441d381-20e3-49ee-9fd9-417cb43f4298" d="M150.52143,127.877a6.52941,6.52941,0,0,1-3.42773-.9209,6.89349,6.89349,0,0,1-2.44238-2.46777,6.865,6.865,0,0,1,2.46777-9.3877,6.846,6.846,0,0,1,3.50488-.9082,6.69433,6.69433,0,0,1,1.90528.26855,7.015,7.015,0,0,1,1.72656.78028V109.793l3.5039-.58789v18.49317h-3.45312v-1.09961A5.973,5.973,0,0,1,150.52143,127.877Zm.5625-2.99219a4.6443,4.6443,0,0,0,1.76465-.333,4.00673,4.00673,0,0,0,1.40723-.94629V118.4131a4.065,4.065,0,0,0-1.40723-.9082,4.81293,4.81293,0,0,0-1.76465-.31934,3.95414,3.95414,0,0,0-1.98242.499,3.69689,3.69689,0,0,0-1.39355,1.36816,4.00355,4.00355,0,0,0,.01269,3.93945,3.92448,3.92448,0,0,0,1.39356,1.38086A3.81433,3.81433,0,0,0,151.08393,124.88478Z"/><path class="e441d381-20e3-49ee-9fd9-417cb43f4298" d="M160.497,127.69826V109.793l3.50488-.76757v6.44629a5.47789,5.47789,0,0,1,3.75977-1.35547,5.40251,5.40251,0,0,1,2.72461.67773,4.82651,4.82651,0,0,1,1.85449,1.86719,5.55169,5.55169,0,0,1,.665,2.75v8.28711h-3.47949v-7.75a2.78273,2.78273,0,0,0-.75391-2.05957,2.7516,2.7516,0,0,0-2.03418-.75488,3.499,3.499,0,0,0-1.58594.3457,3.12662,3.12662,0,0,0-1.15039.98437v9.23438Z"/><path class="e441d381-20e3-49ee-9fd9-417cb43f4298" d="M179.88569,127.92873a5.77188,5.77188,0,0,1-2.50683-.52442A4.1477,4.1477,0,0,1,175.665,125.959a3.73853,3.73853,0,0,1-.61328-2.12305,3.49288,3.49288,0,0,1,1.43261-2.98047,6.58709,6.58709,0,0,1,3.99024-1.06152,9.82818,9.82818,0,0,1,3.27344.53809v-.97266a2.11971,2.11971,0,0,0-.71582-1.73926,3.24119,3.24119,0,0,0-2.09766-.58789,7.01533,7.01533,0,0,0-1.81641.26856,15.30447,15.30447,0,0,0-2.251.83105l-1.25293-2.60937a19.47275,19.47275,0,0,1,3.01855-1.04883,11.78347,11.78347,0,0,1,2.86426-.35742,6.23538,6.23538,0,0,1,4.2207,1.291,4.57584,4.57584,0,0,1,1.4834,3.64551v8.64551H183.748V126.752a5.57174,5.57174,0,0,1-1.76465.89551A7.346,7.346,0,0,1,179.88569,127.92873Zm-1.50879-4.16992a1.39257,1.39257,0,0,0,.665,1.21484,3.10684,3.10684,0,0,0,1.76465.44824,5.88943,5.88943,0,0,0,1.59863-.20508,4.01074,4.01074,0,0,0,1.34278-.665v-1.94336a5.52254,5.52254,0,0,0-1.33008-.39648,8.98236,8.98236,0,0,0-1.4834-.11523,3.462,3.462,0,0,0-1.87988.43457A1.37835,1.37835,0,0,0,178.3769,123.75881Z"/><path class="e441d381-20e3-49ee-9fd9-417cb43f4298" d="M195.76948,127.90334a4.879,4.879,0,0,1-3.33789-1.01075,3.707,3.707,0,0,1-1.13867-2.92871V117.2881h-2.73731v-2.916h2.73731v-3.40235l3.47851-.793v4.19532h3.83692v2.916h-3.83692v5.9336a1.74386,1.74386,0,0,0,.42188,1.31738,2.04819,2.04819,0,0,0,1.41992.39648,6.4058,6.4058,0,0,0,.959-.06347,6.87408,6.87408,0,0,0,.9336-.21778v2.86524a7.20678,7.20678,0,0,1-1.33008.28125A11.28278,11.28278,0,0,1,195.76948,127.90334Z"/><path class="e441d381-20e3-49ee-9fd9-417cb43f4298" d="M202.13862,127.92873a2.00092,2.00092,0,0,1-1.4707-.60157,1.97071,1.97071,0,0,1-.60156-1.44531,2.07229,2.07229,0,1,1,4.14453,0,1.97072,1.97072,0,0,1-.60157,1.44531A2.00092,2.00092,0,0,1,202.13862,127.92873Z"/><path class="e441d381-20e3-49ee-9fd9-417cb43f4298" d="M212.57514,127.95412a6.86456,6.86456,0,0,1-6.02343-3.38965,6.915,6.915,0,0,1,2.49414-9.52734,6.894,6.894,0,0,1,3.52929-.9209,7.73978,7.73978,0,0,1,3.05664.61328,6.83214,6.83214,0,0,1,2.46875,1.76562l-2.123,2.27637a5.057,5.057,0,0,0-1.54785-1.20215,4.021,4.021,0,0,0-1.752-.38379,3.45461,3.45461,0,0,0-3.12109,1.86719,4.20491,4.20491,0,0,0-.46,1.99512,3.98961,3.98961,0,0,0,.48633,1.957,3.72469,3.72469,0,0,0,1.30371,1.39355,3.44405,3.44405,0,0,0,1.86816.51172,3.74367,3.74367,0,0,0,1.67481-.38379,5.21951,5.21951,0,0,0,1.49609-1.15136l2.09766,2.20019a7.46767,7.46767,0,0,1-2.45508,1.752A7.27179,7.27179,0,0,1,212.57514,127.95412Z"/><path class="e441d381-20e3-49ee-9fd9-417cb43f4298" d="M225.9521,127.95412a7.13448,7.13448,0,0,1-3.60645-.9209,6.97036,6.97036,0,0,1-2.55762-2.49414,6.962,6.962,0,0,1,0-7.00879,6.87432,6.87432,0,0,1,2.55762-2.48047,7.61466,7.61466,0,0,1,7.21289,0,6.86978,6.86978,0,0,1,2.5586,2.48047,7.00277,7.00277,0,0,1,.01269,7.00879,6.87666,6.87666,0,0,1-2.54492,2.49414A7.18631,7.18631,0,0,1,225.9521,127.95412Zm0-3.044a3.5178,3.5178,0,0,0,1.89355-.52441,3.80129,3.80129,0,0,0,1.33008-1.39356,3.97647,3.97647,0,0,0,.48535-1.96972,3.844,3.844,0,0,0-1.8291-3.3252,3.46663,3.46663,0,0,0-1.85352-.51172,3.58411,3.58411,0,0,0-1.89355.51172,3.69991,3.69991,0,0,0-1.33008,1.38086,3.914,3.914,0,0,0-.48535,1.94434,3.96608,3.96608,0,0,0,.48535,1.96972,3.83924,3.83924,0,0,0,1.31738,1.39356A3.44758,3.44758,0,0,0,225.9521,124.91017Z"/><path class="e441d381-20e3-49ee-9fd9-417cb43f4298" d="M235.21186,127.69826V114.37209h3.50489v1.02246a5.39405,5.39405,0,0,1,5.80664-.75391,4.60054,4.60054,0,0,1,1.6875,1.4707,5.47233,5.47233,0,0,1,1.94433-1.48339,5.913,5.913,0,0,1,2.48145-.51172,5.02214,5.02214,0,0,1,2.62109.67773,4.83648,4.83648,0,0,1,1.791,1.86719,5.6314,5.6314,0,0,1,.65234,2.75v8.28711h-3.50488v-7.75a2.96743,2.96743,0,0,0-.67774-2.05957,2.337,2.337,0,0,0-1.8291-.75488,3.239,3.239,0,0,0-1.44433.32031,2.84023,2.84023,0,0,0-1.11329,1.00976c.01661.1543.03418.30762.05176.46094a4.51922,4.51922,0,0,1,.02539.48633v8.28711h-3.50488v-7.75a2.96747,2.96747,0,0,0-.67773-2.05957,2.337,2.337,0,0,0-1.82911-.75488,3.17529,3.17529,0,0,0-1.41894.30761,2.80093,2.80093,0,0,0-1.06152.9209v9.33594Z"/></g></svg>