<svg xmlns="http://www.w3.org/2000/svg" xmlns:xlink="http://www.w3.org/1999/xlink" viewBox="0 0 262 180"><defs><style>.ab4e08c5-6ff7-4970-9623-477b4489fa2a{fill:none;}.f6cbb7cc-30a8-4205-9441-6ddaca51539c{clip-path:url(#a7bf5ac6-682a-485c-a9ea-7c7067425520);}.f5439feb-4638-42a3-8e39-32b4334603d3{fill:#a7c0e4;}.f214c3ee-9243-4d52-9a83-6757169825ef{clip-path:url(#b495b6ea-f68f-4b32-92f8-662bd65c1d3c);}.b99fc1d0-1753-484f-aa41-62d8cbe61c31{fill:#f3f3f3;}.b3bbecb9-f0d8-42b7-95c0-74a8cad5a9b5{fill:#c9c9c9;}</style><clipPath id="a7bf5ac6-682a-485c-a9ea-7c7067425520"><rect class="ab4e08c5-6ff7-4970-9623-477b4489fa2a" x="-290.27914" width="262" height="180"/></clipPath><clipPath id="b495b6ea-f68f-4b32-92f8-662bd65c1d3c"><rect class="ab4e08c5-6ff7-4970-9623-477b4489fa2a" width="262" height="180"/></clipPath></defs><g id="e930d6a6-1cb7-43e3-8f0f-ec6116a75ae9" data-name="Layer 3"><g class="f6cbb7cc-30a8-4205-9441-6ddaca51539c"><path class="f5439feb-4638-42a3-8e39-32b4334603d3" d="M50.59351,7.58362a11.214,11.214,0,0,1,.38778,2.2762c0,3.1483-3.536,4.89163-8.18484,4.89163-10.51035,0-19.712-6.15067-19.712-10.219a4.1401,4.1401,0,0,1,.339-1.6466c-3.77785.19373-8.66942.87157-8.66942,5.182,0,7.07092,16.75766,15.78868,30.02787,15.78868,10.1709,0,12.73727-4.60074,12.73727-8.23315,0-2.85792-2.46977-6.10221-6.92559-8.03976m-7.31313,2.567c2.80946,0,6.87728-.58142,6.87728-3.92312a3.17654,3.17654,0,0,0-.06965-.76888L48.41469-1.812c-.388-1.59821-.72679-2.32487-3.5358-3.7295-2.17973-1.11366-6.92582-2.954-8.33048-2.954-1.30763,0-1.69475,1.69476-3.24484,1.69476-1.50114,0-2.61515-1.25892-4.01965-1.25892-1.35578,0-2.228.92-2.906,2.809,0,0-1.88905,5.32739-2.13117,6.10187a1.40441,1.40441,0,0,0-.0499.43639c0,2.07048,8.15427,8.86305,19.08349,8.86305"/><path class="f5439feb-4638-42a3-8e39-32b4334603d3" d="M15.942,50.824a11.2141,11.2141,0,0,1,.38778,2.2762c0,3.1483-3.536,4.89163-8.18485,4.89163-10.51035,0-19.712-6.15067-19.712-10.219a4.1401,4.1401,0,0,1,.339-1.6466c-3.77786.19373-8.66943.87157-8.66943,5.182,0,7.07092,16.75767,15.78868,30.02787,15.78868,10.1709,0,12.73728-4.60074,12.73728-8.23315,0-2.85792-2.46977-6.10221-6.92559-8.03976M8.62887,53.391c2.80946,0,6.87728-.58142,6.87728-3.92312a3.17654,3.17654,0,0,0-.06965-.76888l-1.67332-7.27065c-.388-1.59821-.7268-2.32487-3.53581-3.7295-2.17972-1.11366-6.92581-2.954-8.33047-2.954-1.30763,0-1.69476,1.69476-3.24484,1.69476-1.50114,0-2.61515-1.25892-4.01966-1.25892-1.35577,0-2.228.92-2.906,2.809,0,0-1.889,5.32739-2.13116,6.10187a1.40441,1.40441,0,0,0-.0499.43639c0,2.07048,8.15427,8.86305,19.08349,8.86305"/><path class="f5439feb-4638-42a3-8e39-32b4334603d3" d="M50.59351,94.06432a11.2141,11.2141,0,0,1,.38778,2.2762c0,3.1483-3.536,4.89163-8.18484,4.89163-10.51035,0-19.712-6.15067-19.712-10.219a4.1401,4.1401,0,0,1,.339-1.6466c-3.77785.19373-8.66942.87157-8.66942,5.182,0,7.07092,16.75766,15.78868,30.02787,15.78868,10.1709,0,12.73727-4.60074,12.73727-8.23315,0-2.85792-2.46977-6.10221-6.92559-8.03976m-7.31313,2.567c2.80946,0,6.87728-.58142,6.87728-3.92312a3.17654,3.17654,0,0,0-.06965-.76888l-1.67332-7.27065c-.388-1.59821-.72679-2.32487-3.5358-3.7295-2.17973-1.11366-6.92582-2.954-8.33048-2.954-1.30763,0-1.69475,1.69476-3.24484,1.69476-1.50114,0-2.61515-1.25892-4.01965-1.25892-1.35578,0-2.228.92-2.906,2.809,0,0-1.88905,5.32739-2.13117,6.10187a1.40441,1.40441,0,0,0-.0499.43639c0,2.07048,8.15427,8.86305,19.08349,8.86305"/><path class="f5439feb-4638-42a3-8e39-32b4334603d3" d="M15.942,137.30467a11.2141,11.2141,0,0,1,.38778,2.2762c0,3.1483-3.536,4.89163-8.18485,4.89163-10.51035,0-19.712-6.15067-19.712-10.219a4.1401,4.1401,0,0,1,.339-1.6466c-3.77786.19373-8.66943.87157-8.66943,5.182,0,7.07092,16.75767,15.78868,30.02787,15.78868,10.1709,0,12.73728-4.60074,12.73728-8.23315,0-2.85792-2.46977-6.10221-6.92559-8.03976m-7.31313,2.567c2.80946,0,6.87728-.58142,6.87728-3.92312a3.17654,3.17654,0,0,0-.06965-.76888L13.76318,127.909c-.388-1.59821-.7268-2.32487-3.53581-3.72949-2.17972-1.11367-6.92581-2.954-8.33047-2.954-1.30763,0-1.69476,1.69476-3.24484,1.69476-1.50114,0-2.61515-1.25892-4.01966-1.25892-1.35577,0-2.228.92-2.906,2.809,0,0-1.889,5.32739-2.13116,6.10187a1.40441,1.40441,0,0,0-.0499.43639c0,2.07048,8.15427,8.863,19.08349,8.863"/><path class="f5439feb-4638-42a3-8e39-32b4334603d3" d="M50.59351,180.545a11.2141,11.2141,0,0,1,.38778,2.2762c0,3.1483-3.536,4.89163-8.18484,4.89163-10.51035,0-19.712-6.15067-19.712-10.219a4.1401,4.1401,0,0,1,.339-1.6466c-3.77785.19373-8.66942.87157-8.66942,5.182,0,7.07092,16.75766,15.78868,30.02787,15.78868,10.1709,0,12.73727-4.60074,12.73727-8.23315,0-2.85792-2.46977-6.10221-6.92559-8.03976m-7.31313,2.567c2.80946,0,6.87728-.58142,6.87728-3.92312A3.17654,3.17654,0,0,0,50.088,178.42l-1.67332-7.27065c-.388-1.59821-.72679-2.32487-3.5358-3.72949-2.17973-1.11367-6.92582-2.954-8.33048-2.954-1.30763,0-1.69475,1.69476-3.24484,1.69476-1.50114,0-2.61515-1.25892-4.01965-1.25892-1.35578,0-2.228.92-2.906,2.809,0,0-1.88905,5.32739-2.13117,6.10187a1.40441,1.40441,0,0,0-.0499.43639c0,2.07048,8.15427,8.86305,19.08349,8.86305"/></g><g class="f214c3ee-9243-4d52-9a83-6757169825ef"><rect class="b99fc1d0-1753-484f-aa41-62d8cbe61c31" width="262" height="180"/><path class="b3bbecb9-f0d8-42b7-95c0-74a8cad5a9b5" d="M19.5317,7.58362a11.21426,11.21426,0,0,1,.38777,2.2762c0,3.1483-3.536,4.89163-8.18484,4.89163-10.51035,0-19.712-6.15067-19.712-10.219a4.1401,4.1401,0,0,1,.339-1.6466c-3.77786.19373-8.66943.87157-8.66943,5.182,0,7.07092,16.75766,15.78868,30.02787,15.78868,10.1709,0,12.73727-4.60074,12.73727-8.23315,0-2.85792-2.46976-6.10221-6.92558-8.03976m-7.31314,2.567c2.80946,0,6.87728-.58142,6.87728-3.92312a3.177,3.177,0,0,0-.06964-.76888L17.35288-1.812c-.388-1.59821-.7268-2.32487-3.53581-3.7295-2.17972-1.11366-6.92581-2.954-8.33048-2.954-1.30762,0-1.69475,1.69476-3.24484,1.69476-1.50113,0-2.61515-1.25892-4.01965-1.25892-1.35578,0-2.228.92-2.906,2.809,0,0-1.889,5.32739-2.13117,6.10187a1.40441,1.40441,0,0,0-.0499.43639c0,2.07048,8.15427,8.86305,19.08349,8.86305"/><path class="b3bbecb9-f0d8-42b7-95c0-74a8cad5a9b5" d="M83.79989,7.58362a11.21426,11.21426,0,0,1,.38777,2.2762c0,3.1483-3.536,4.89163-8.18484,4.89163-10.51035,0-19.712-6.15067-19.712-10.219a4.1401,4.1401,0,0,1,.339-1.6466c-3.77786.19373-8.66943.87157-8.66943,5.182,0,7.07092,16.75767,15.78868,30.02787,15.78868,10.1709,0,12.73728-4.60074,12.73728-8.23315,0-2.85792-2.46977-6.10221-6.92559-8.03976m-7.31314,2.567c2.80947,0,6.87728-.58142,6.87728-3.92312a3.17654,3.17654,0,0,0-.06964-.76888L81.62107-1.812c-.388-1.59821-.7268-2.32487-3.53581-3.7295-2.17972-1.11366-6.92581-2.954-8.33047-2.954-1.30763,0-1.69476,1.69476-3.24484,1.69476-1.50114,0-2.61516-1.25892-4.01966-1.25892-1.35577,0-2.228.92-2.906,2.809,0,0-1.889,5.32739-2.13116,6.10187a1.40411,1.40411,0,0,0-.0499.43639c0,2.07048,8.15426,8.86305,19.08348,8.86305"/><path class="b3bbecb9-f0d8-42b7-95c0-74a8cad5a9b5" d="M119.15411,7.58362c-4.45582,1.93755-6.92559,5.18184-6.92559,8.03976,0,3.63241,2.56638,8.23315,12.73728,8.23315,13.27021,0,30.02787-8.71776,30.02787-15.78868,0-4.31046-4.89157-4.9883-8.66943-5.182a4.1401,4.1401,0,0,1,.339,1.6466c0,4.06836-9.20169,10.219-19.712,10.219-4.64881,0-8.18484-1.74333-8.18484-4.89163a11.21426,11.21426,0,0,1,.38777-2.2762m7.31314,2.567c10.92922,0,19.08348-6.79257,19.08348-8.863a1.40411,1.40411,0,0,0-.0499-.43639c-.24212-.77448-2.13116-6.10187-2.13116-6.10187-.67794-1.889-1.55019-2.809-2.906-2.809-1.4045,0-2.51852,1.25892-4.01966,1.25892-1.55008,0-1.93721-1.69476-3.24484-1.69476-1.40466,0-6.15075,1.84034-8.33047,2.954-2.809,1.40463-3.14781,2.13129-3.53581,3.7295l-1.67332,7.27065a3.17654,3.17654,0,0,0-.06964.76888c0,3.3417,4.06781,3.92312,6.87728,3.92312"/><path class="b3bbecb9-f0d8-42b7-95c0-74a8cad5a9b5" d="M212.33627,7.58362a11.214,11.214,0,0,1,.38778,2.2762c0,3.1483-3.536,4.89163-8.18484,4.89163-10.51035,0-19.712-6.15067-19.712-10.219a4.1401,4.1401,0,0,1,.339-1.6466c-3.77786.19373-8.66942.87157-8.66942,5.182,0,7.07092,16.75766,15.78868,30.02787,15.78868,10.1709,0,12.73727-4.60074,12.73727-8.23315,0-2.85792-2.46977-6.10221-6.92559-8.03976m-7.31313,2.567c2.80946,0,6.87728-.58142,6.87728-3.92312a3.17654,3.17654,0,0,0-.06965-.76888L210.15745-1.812c-.388-1.59821-.7268-2.32487-3.53581-3.7295-2.17972-1.11366-6.92581-2.954-8.33047-2.954-1.30763,0-1.69475,1.69476-3.24484,1.69476-1.50114,0-2.61515-1.25892-4.01965-1.25892-1.35578,0-2.228.92-2.906,2.809,0,0-1.889,5.32739-2.13117,6.10187a1.40441,1.40441,0,0,0-.0499.43639c0,2.07048,8.15427,8.86305,19.08349,8.86305"/><path class="b3bbecb9-f0d8-42b7-95c0-74a8cad5a9b5" d="M276.60446,7.58362a11.214,11.214,0,0,1,.38778,2.2762c0,3.1483-3.536,4.89163-8.18484,4.89163-10.51035,0-19.712-6.15067-19.712-10.219a4.1401,4.1401,0,0,1,.339-1.6466c-3.77785.19373-8.66942.87157-8.66942,5.182,0,7.07092,16.75766,15.78868,30.02787,15.78868,10.1709,0,12.73727-4.60074,12.73727-8.23315,0-2.85792-2.46977-6.10221-6.92559-8.03976m-7.31313,2.567c2.80946,0,6.87728-.58142,6.87728-3.92312a3.17654,3.17654,0,0,0-.06965-.76888L274.42564-1.812c-.388-1.59821-.72679-2.32487-3.5358-3.7295-2.17973-1.11366-6.92582-2.954-8.33048-2.954-1.30763,0-1.69475,1.69476-3.24484,1.69476-1.50114,0-2.61515-1.25892-4.01965-1.25892-1.35578,0-2.228.92-2.906,2.809,0,0-1.889,5.32739-2.13117,6.10187a1.40441,1.40441,0,0,0-.0499.43639c0,2.07048,8.15427,8.86305,19.08349,8.86305"/><path class="b3bbecb9-f0d8-42b7-95c0-74a8cad5a9b5" d="M20.23441,50.824c-4.45582,1.93755-6.92559,5.18184-6.92559,8.03976,0,3.63241,2.56637,8.23315,12.73727,8.23315,13.27021,0,30.02787-8.71776,30.02787-15.78868,0-4.31046-4.89157-4.9883-8.66942-5.182a4.1401,4.1401,0,0,1,.339,1.6466c0,4.06836-9.20169,10.219-19.712,10.219-4.6488,0-8.18484-1.74333-8.18484-4.89163a11.2141,11.2141,0,0,1,.38778-2.2762m7.31313,2.567c10.92922,0,19.08349-6.79257,19.08349-8.86305a1.40441,1.40441,0,0,0-.0499-.43639C46.339,43.31706,44.45,37.98967,44.45,37.98967c-.67794-1.889-1.55018-2.809-2.906-2.809-1.4045,0-2.51851,1.25892-4.01965,1.25892-1.55009,0-1.93721-1.69476-3.24484-1.69476-1.40466,0-6.15075,1.84034-8.33048,2.954-2.809,1.40463-3.14781,2.13129-3.5358,3.7295L20.73991,48.699a3.17654,3.17654,0,0,0-.06965.76888c0,3.3417,4.06782,3.92312,6.87728,3.92312"/><path class="b3bbecb9-f0d8-42b7-95c0-74a8cad5a9b5" d="M113.41657,50.824a11.21437,11.21437,0,0,1,.38777,2.2762c0,3.1483-3.536,4.89163-8.18484,4.89163-10.51035,0-19.712-6.15067-19.712-10.219a4.1401,4.1401,0,0,1,.339-1.6466c-3.77786.19373-8.66943.87157-8.66943,5.182,0,7.07092,16.75766,15.78868,30.02787,15.78868,10.1709,0,12.73727-4.60074,12.73727-8.23315,0-2.85792-2.46976-6.10221-6.92558-8.03976m-7.31314,2.567c2.80946,0,6.87728-.58142,6.87728-3.92312a3.177,3.177,0,0,0-.06964-.76888l-1.67332-7.27065c-.388-1.59821-.7268-2.32487-3.53581-3.7295-2.17972-1.11366-6.92581-2.954-8.33048-2.954-1.30762,0-1.69475,1.69476-3.24484,1.69476-1.50113,0-2.61515-1.25892-4.01965-1.25892-1.35578,0-2.228.92-2.906,2.809,0,0-1.889,5.32739-2.13117,6.10187a1.40441,1.40441,0,0,0-.0499.43639c0,2.07048,8.15427,8.86305,19.08349,8.86305"/><path class="b3bbecb9-f0d8-42b7-95c0-74a8cad5a9b5" d="M177.68476,50.824a11.21437,11.21437,0,0,1,.38777,2.2762c0,3.1483-3.536,4.89163-8.18484,4.89163-10.51035,0-19.712-6.15067-19.712-10.219a4.1401,4.1401,0,0,1,.339-1.6466c-3.77786.19373-8.66943.87157-8.66943,5.182,0,7.07092,16.75767,15.78868,30.02787,15.78868,10.1709,0,12.73728-4.60074,12.73728-8.23315,0-2.85792-2.46977-6.10221-6.92559-8.03976m-7.31314,2.567c2.80947,0,6.87728-.58142,6.87728-3.92312a3.17654,3.17654,0,0,0-.06964-.76888l-1.67332-7.27065c-.388-1.59821-.7268-2.32487-3.53581-3.7295-2.17972-1.11366-6.92581-2.954-8.33047-2.954-1.30763,0-1.69476,1.69476-3.24484,1.69476-1.50114,0-2.61516-1.25892-4.01966-1.25892-1.35577,0-2.228.92-2.906,2.809,0,0-1.889,5.32739-2.13116,6.10187a1.40411,1.40411,0,0,0-.0499.43639c0,2.07048,8.15426,8.86305,19.08348,8.86305"/><path class="b3bbecb9-f0d8-42b7-95c0-74a8cad5a9b5" d="M213.039,50.824c-4.45582,1.93755-6.92559,5.18184-6.92559,8.03976,0,3.63241,2.56638,8.23315,12.73728,8.23315,13.27021,0,30.02787-8.71776,30.02787-15.78868,0-4.31046-4.89157-4.9883-8.66943-5.182a4.1401,4.1401,0,0,1,.339,1.6466c0,4.06836-9.20169,10.219-19.712,10.219-4.64881,0-8.18484-1.74333-8.18484-4.89163a11.21437,11.21437,0,0,1,.38777-2.2762m7.31314,2.567c10.92922,0,19.08348-6.79257,19.08348-8.86305a1.40411,1.40411,0,0,0-.0499-.43639c-.24212-.77448-2.13116-6.10187-2.13116-6.10187-.67794-1.889-1.55019-2.809-2.906-2.809-1.4045,0-2.51852,1.25892-4.01966,1.25892-1.55008,0-1.93721-1.69476-3.24484-1.69476-1.40466,0-6.15075,1.84034-8.33047,2.954-2.809,1.40463-3.14781,2.13129-3.53581,3.7295L213.54448,48.699a3.17654,3.17654,0,0,0-.06964.76888c0,3.3417,4.06781,3.92312,6.87728,3.92312"/><path class="b3bbecb9-f0d8-42b7-95c0-74a8cad5a9b5" d="M19.5317,94.06432a11.21437,11.21437,0,0,1,.38777,2.2762c0,3.1483-3.536,4.89163-8.18484,4.89163-10.51035,0-19.712-6.15067-19.712-10.219a4.1401,4.1401,0,0,1,.339-1.6466c-3.77786.19373-8.66943.87157-8.66943,5.182,0,7.07092,16.75766,15.78868,30.02787,15.78868,10.1709,0,12.73727-4.60074,12.73727-8.23315,0-2.85792-2.46976-6.10221-6.92558-8.03976m-7.31314,2.567c2.80946,0,6.87728-.58142,6.87728-3.92312a3.177,3.177,0,0,0-.06964-.76888l-1.67332-7.27065c-.388-1.59821-.7268-2.32487-3.53581-3.7295-2.17972-1.11366-6.92581-2.954-8.33048-2.954-1.30762,0-1.69475,1.69476-3.24484,1.69476C.74062,79.67994-.3734,78.421-1.7779,78.421c-1.35578,0-2.228.92-2.906,2.809,0,0-1.889,5.32739-2.13117,6.10187a1.40441,1.40441,0,0,0-.0499.43639c0,2.07048,8.15427,8.86305,19.08349,8.86305"/><path class="b3bbecb9-f0d8-42b7-95c0-74a8cad5a9b5" d="M83.79989,94.06432a11.21437,11.21437,0,0,1,.38777,2.2762c0,3.1483-3.536,4.89163-8.18484,4.89163-10.51035,0-19.712-6.15067-19.712-10.219a4.1401,4.1401,0,0,1,.339-1.6466c-3.77786.19373-8.66943.87157-8.66943,5.182,0,7.07092,16.75767,15.78868,30.02787,15.78868,10.1709,0,12.73728-4.60074,12.73728-8.23315,0-2.85792-2.46977-6.10221-6.92559-8.03976m-7.31314,2.567c2.80947,0,6.87728-.58142,6.87728-3.92312a3.17654,3.17654,0,0,0-.06964-.76888l-1.67332-7.27065c-.388-1.59821-.7268-2.32487-3.53581-3.7295-2.17972-1.11366-6.92581-2.954-8.33047-2.954-1.30763,0-1.69476,1.69476-3.24484,1.69476-1.50114,0-2.61516-1.25892-4.01966-1.25892-1.35577,0-2.228.92-2.906,2.809,0,0-1.889,5.32739-2.13116,6.10187a1.40411,1.40411,0,0,0-.0499.43639c0,2.07048,8.15426,8.86305,19.08348,8.86305"/><path class="b3bbecb9-f0d8-42b7-95c0-74a8cad5a9b5" d="M119.15411,94.06432c-4.45582,1.93755-6.92559,5.18184-6.92559,8.03976,0,3.63241,2.56638,8.23315,12.73728,8.23315,13.27021,0,30.02787-8.71776,30.02787-15.78868,0-4.31046-4.89157-4.9883-8.66943-5.182a4.1401,4.1401,0,0,1,.339,1.6466c0,4.06836-9.20169,10.219-19.712,10.219-4.64881,0-8.18484-1.74333-8.18484-4.89163a11.21437,11.21437,0,0,1,.38777-2.2762m7.31314,2.567c10.92922,0,19.08348-6.79257,19.08348-8.86305a1.40411,1.40411,0,0,0-.0499-.43639c-.24212-.77448-2.13116-6.10187-2.13116-6.10187-.67794-1.889-1.55019-2.809-2.906-2.809-1.4045,0-2.51852,1.25892-4.01966,1.25892-1.55008,0-1.93721-1.69476-3.24484-1.69476-1.40466,0-6.15075,1.84034-8.33047,2.954-2.809,1.40463-3.14781,2.13129-3.53581,3.7295l-1.67332,7.27065a3.17654,3.17654,0,0,0-.06964.76888c0,3.3417,4.06781,3.92312,6.87728,3.92312"/><path class="b3bbecb9-f0d8-42b7-95c0-74a8cad5a9b5" d="M212.33627,94.06432a11.2141,11.2141,0,0,1,.38778,2.2762c0,3.1483-3.536,4.89163-8.18484,4.89163-10.51035,0-19.712-6.15067-19.712-10.219a4.1401,4.1401,0,0,1,.339-1.6466c-3.77786.19373-8.66942.87157-8.66942,5.182,0,7.07092,16.75766,15.78868,30.02787,15.78868,10.1709,0,12.73727-4.60074,12.73727-8.23315,0-2.85792-2.46977-6.10221-6.92559-8.03976m-7.31313,2.567c2.80946,0,6.87728-.58142,6.87728-3.92312a3.17654,3.17654,0,0,0-.06965-.76888l-1.67332-7.27065c-.388-1.59821-.7268-2.32487-3.53581-3.7295-2.17972-1.11366-6.92581-2.954-8.33047-2.954-1.30763,0-1.69475,1.69476-3.24484,1.69476-1.50114,0-2.61515-1.25892-4.01965-1.25892-1.35578,0-2.228.92-2.906,2.809,0,0-1.889,5.32739-2.13117,6.10187a1.40441,1.40441,0,0,0-.0499.43639c0,2.07048,8.15427,8.86305,19.08349,8.86305"/><path class="b3bbecb9-f0d8-42b7-95c0-74a8cad5a9b5" d="M276.60446,94.06432a11.2141,11.2141,0,0,1,.38778,2.2762c0,3.1483-3.536,4.89163-8.18484,4.89163-10.51035,0-19.712-6.15067-19.712-10.219a4.1401,4.1401,0,0,1,.339-1.6466c-3.77785.19373-8.66942.87157-8.66942,5.182,0,7.07092,16.75766,15.78868,30.02787,15.78868,10.1709,0,12.73727-4.60074,12.73727-8.23315,0-2.85792-2.46977-6.10221-6.92559-8.03976m-7.31313,2.567c2.80946,0,6.87728-.58142,6.87728-3.92312a3.17654,3.17654,0,0,0-.06965-.76888l-1.67332-7.27065c-.388-1.59821-.72679-2.32487-3.5358-3.7295-2.17973-1.11366-6.92582-2.954-8.33048-2.954-1.30763,0-1.69475,1.69476-3.24484,1.69476-1.50114,0-2.61515-1.25892-4.01965-1.25892-1.35578,0-2.228.92-2.906,2.809,0,0-1.889,5.32739-2.13117,6.10187a1.40441,1.40441,0,0,0-.0499.43639c0,2.07048,8.15427,8.86305,19.08349,8.86305"/><path class="b3bbecb9-f0d8-42b7-95c0-74a8cad5a9b5" d="M20.23441,137.30467c-4.45582,1.93755-6.92559,5.18184-6.92559,8.03976,0,3.63241,2.56637,8.23315,12.73727,8.23315,13.27021,0,30.02787-8.71776,30.02787-15.78868,0-4.31046-4.89157-4.9883-8.66942-5.182a4.1401,4.1401,0,0,1,.339,1.6466c0,4.06836-9.20169,10.219-19.712,10.219-4.6488,0-8.18484-1.74333-8.18484-4.89163a11.2141,11.2141,0,0,1,.38778-2.2762m7.31313,2.567c10.92922,0,19.08349-6.79257,19.08349-8.863a1.40441,1.40441,0,0,0-.0499-.43639c-.24212-.77448-2.13117-6.10187-2.13117-6.10187-.67794-1.889-1.55018-2.809-2.906-2.809-1.4045,0-2.51851,1.25892-4.01965,1.25892-1.55009,0-1.93721-1.69476-3.24484-1.69476-1.40466,0-6.15075,1.84034-8.33048,2.954-2.809,1.40462-3.14781,2.13128-3.5358,3.72949l-1.67332,7.27065a3.17654,3.17654,0,0,0-.06965.76888c0,3.3417,4.06782,3.92312,6.87728,3.92312"/><path class="b3bbecb9-f0d8-42b7-95c0-74a8cad5a9b5" d="M113.41657,137.30467a11.21437,11.21437,0,0,1,.38777,2.2762c0,3.1483-3.536,4.89163-8.18484,4.89163-10.51035,0-19.712-6.15067-19.712-10.219a4.1401,4.1401,0,0,1,.339-1.6466c-3.77786.19373-8.66943.87157-8.66943,5.182,0,7.07092,16.75766,15.78868,30.02787,15.78868,10.1709,0,12.73727-4.60074,12.73727-8.23315,0-2.85792-2.46976-6.10221-6.92558-8.03976m-7.31314,2.567c2.80946,0,6.87728-.58142,6.87728-3.92312a3.177,3.177,0,0,0-.06964-.76888l-1.67332-7.27065c-.388-1.59821-.7268-2.32487-3.53581-3.72949-2.17972-1.11367-6.92581-2.954-8.33048-2.954-1.30762,0-1.69475,1.69476-3.24484,1.69476-1.50113,0-2.61515-1.25892-4.01965-1.25892-1.35578,0-2.228.92-2.906,2.809,0,0-1.889,5.32739-2.13117,6.10187a1.40441,1.40441,0,0,0-.0499.43639c0,2.07048,8.15427,8.863,19.08349,8.863"/><path class="b3bbecb9-f0d8-42b7-95c0-74a8cad5a9b5" d="M177.68476,137.30467a11.21437,11.21437,0,0,1,.38777,2.2762c0,3.1483-3.536,4.89163-8.18484,4.89163-10.51035,0-19.712-6.15067-19.712-10.219a4.1401,4.1401,0,0,1,.339-1.6466c-3.77786.19373-8.66943.87157-8.66943,5.182,0,7.07092,16.75767,15.78868,30.02787,15.78868,10.1709,0,12.73728-4.60074,12.73728-8.23315,0-2.85792-2.46977-6.10221-6.92559-8.03976m-7.31314,2.567c2.80947,0,6.87728-.58142,6.87728-3.92312a3.17654,3.17654,0,0,0-.06964-.76888l-1.67332-7.27065c-.388-1.59821-.7268-2.32487-3.53581-3.72949-2.17972-1.11367-6.92581-2.954-8.33047-2.954-1.30763,0-1.69476,1.69476-3.24484,1.69476-1.50114,0-2.61516-1.25892-4.01966-1.25892-1.35577,0-2.228.92-2.906,2.809,0,0-1.889,5.32739-2.13116,6.10187a1.40411,1.40411,0,0,0-.0499.43639c0,2.07048,8.15426,8.863,19.08348,8.863"/><path class="b3bbecb9-f0d8-42b7-95c0-74a8cad5a9b5" d="M213.039,137.30467c-4.45582,1.93755-6.92559,5.18184-6.92559,8.03976,0,3.63241,2.56638,8.23315,12.73728,8.23315,13.27021,0,30.02787-8.71776,30.02787-15.78868,0-4.31046-4.89157-4.9883-8.66943-5.182a4.1401,4.1401,0,0,1,.339,1.6466c0,4.06836-9.20169,10.219-19.712,10.219-4.64881,0-8.18484-1.74333-8.18484-4.89163a11.21437,11.21437,0,0,1,.38777-2.2762m7.31314,2.567c10.92922,0,19.08348-6.79257,19.08348-8.863a1.40411,1.40411,0,0,0-.0499-.43639c-.24212-.77448-2.13116-6.10187-2.13116-6.10187-.67794-1.889-1.55019-2.809-2.906-2.809-1.4045,0-2.51852,1.25892-4.01966,1.25892-1.55008,0-1.93721-1.69476-3.24484-1.69476-1.40466,0-6.15075,1.84034-8.33047,2.954-2.809,1.40462-3.14781,2.13128-3.53581,3.72949l-1.67332,7.27065a3.17654,3.17654,0,0,0-.06964.76888c0,3.3417,4.06781,3.92312,6.87728,3.92312"/><path class="b3bbecb9-f0d8-42b7-95c0-74a8cad5a9b5" d="M19.5317,180.545a11.21437,11.21437,0,0,1,.38777,2.2762c0,3.1483-3.536,4.89163-8.18484,4.89163-10.51035,0-19.712-6.15067-19.712-10.219a4.1401,4.1401,0,0,1,.339-1.6466c-3.77786.19373-8.66943.87157-8.66943,5.182,0,7.07092,16.75766,15.78868,30.02787,15.78868,10.1709,0,12.73727-4.60074,12.73727-8.23315,0-2.85792-2.46976-6.10221-6.92558-8.03976m-7.31314,2.567c2.80946,0,6.87728-.58142,6.87728-3.92312a3.177,3.177,0,0,0-.06964-.76888l-1.67332-7.27065c-.388-1.59821-.7268-2.32487-3.53581-3.72949-2.17972-1.11367-6.92581-2.954-8.33048-2.954-1.30762,0-1.69475,1.69476-3.24484,1.69476-1.50113,0-2.61515-1.25892-4.01965-1.25892-1.35578,0-2.228.92-2.906,2.809,0,0-1.889,5.32739-2.13117,6.10187a1.40441,1.40441,0,0,0-.0499.43639c0,2.07048,8.15427,8.86305,19.08349,8.86305"/><path class="b3bbecb9-f0d8-42b7-95c0-74a8cad5a9b5" d="M83.79989,180.545a11.21437,11.21437,0,0,1,.38777,2.2762c0,3.1483-3.536,4.89163-8.18484,4.89163-10.51035,0-19.712-6.15067-19.712-10.219a4.1401,4.1401,0,0,1,.339-1.6466c-3.77786.19373-8.66943.87157-8.66943,5.182,0,7.07092,16.75767,15.78868,30.02787,15.78868,10.1709,0,12.73728-4.60074,12.73728-8.23315,0-2.85792-2.46977-6.10221-6.92559-8.03976m-7.31314,2.567c2.80947,0,6.87728-.58142,6.87728-3.92312a3.17654,3.17654,0,0,0-.06964-.76888l-1.67332-7.27065c-.388-1.59821-.7268-2.32487-3.53581-3.72949-2.17972-1.11367-6.92581-2.954-8.33047-2.954-1.30763,0-1.69476,1.69476-3.24484,1.69476-1.50114,0-2.61516-1.25892-4.01966-1.25892-1.35577,0-2.228.92-2.906,2.809,0,0-1.889,5.32739-2.13116,6.10187a1.40411,1.40411,0,0,0-.0499.43639c0,2.07048,8.15426,8.86305,19.08348,8.86305"/><path class="b3bbecb9-f0d8-42b7-95c0-74a8cad5a9b5" d="M119.15411,180.545c-4.45582,1.93755-6.92559,5.18184-6.92559,8.03976,0,3.63241,2.56638,8.23315,12.73728,8.23315,13.27021,0,30.02787-8.71776,30.02787-15.78868,0-4.31046-4.89157-4.9883-8.66943-5.182a4.1401,4.1401,0,0,1,.339,1.6466c0,4.06836-9.20169,10.219-19.712,10.219-4.64881,0-8.18484-1.74333-8.18484-4.89163a11.21437,11.21437,0,0,1,.38777-2.2762m7.31314,2.567c10.92922,0,19.08348-6.79257,19.08348-8.86305a1.40411,1.40411,0,0,0-.0499-.43639c-.24212-.77448-2.13116-6.10187-2.13116-6.10187-.67794-1.889-1.55019-2.809-2.906-2.809-1.4045,0-2.51852,1.25892-4.01966,1.25892-1.55008,0-1.93721-1.69476-3.24484-1.69476-1.40466,0-6.15075,1.84034-8.33047,2.954-2.809,1.40462-3.14781,2.13128-3.53581,3.72949L119.65961,178.42a3.17654,3.17654,0,0,0-.06964.76888c0,3.3417,4.06781,3.92312,6.87728,3.92312"/><path class="b3bbecb9-f0d8-42b7-95c0-74a8cad5a9b5" d="M212.33627,180.545a11.2141,11.2141,0,0,1,.38778,2.2762c0,3.1483-3.536,4.89163-8.18484,4.89163-10.51035,0-19.712-6.15067-19.712-10.219a4.1401,4.1401,0,0,1,.339-1.6466c-3.77786.19373-8.66942.87157-8.66942,5.182,0,7.07092,16.75766,15.78868,30.02787,15.78868,10.1709,0,12.73727-4.60074,12.73727-8.23315,0-2.85792-2.46977-6.10221-6.92559-8.03976m-7.31313,2.567c2.80946,0,6.87728-.58142,6.87728-3.92312a3.17654,3.17654,0,0,0-.06965-.76888l-1.67332-7.27065c-.388-1.59821-.7268-2.32487-3.53581-3.72949-2.17972-1.11367-6.92581-2.954-8.33047-2.954-1.30763,0-1.69475,1.69476-3.24484,1.69476-1.50114,0-2.61515-1.25892-4.01965-1.25892-1.35578,0-2.228.92-2.906,2.809,0,0-1.889,5.32739-2.13117,6.10187a1.40441,1.40441,0,0,0-.0499.43639c0,2.07048,8.15427,8.86305,19.08349,8.86305"/><path class="b3bbecb9-f0d8-42b7-95c0-74a8cad5a9b5" d="M276.60446,180.545a11.2141,11.2141,0,0,1,.38778,2.2762c0,3.1483-3.536,4.89163-8.18484,4.89163-10.51035,0-19.712-6.15067-19.712-10.219a4.1401,4.1401,0,0,1,.339-1.6466c-3.77785.19373-8.66942.87157-8.66942,5.182,0,7.07092,16.75766,15.78868,30.02787,15.78868,10.1709,0,12.73727-4.60074,12.73727-8.23315,0-2.85792-2.46977-6.10221-6.92559-8.03976m-7.31313,2.567c2.80946,0,6.87728-.58142,6.87728-3.92312a3.17654,3.17654,0,0,0-.06965-.76888l-1.67332-7.27065c-.388-1.59821-.72679-2.32487-3.5358-3.72949-2.17973-1.11367-6.92582-2.954-8.33048-2.954-1.30763,0-1.69475,1.69476-3.24484,1.69476-1.50114,0-2.61515-1.25892-4.01965-1.25892-1.35578,0-2.228.92-2.906,2.809,0,0-1.889,5.32739-2.13117,6.10187a1.40441,1.40441,0,0,0-.0499.43639c0,2.07048,8.15427,8.86305,19.08349,8.86305"/></g></g></svg>