<svg xmlns="http://www.w3.org/2000/svg" xmlns:xlink="http://www.w3.org/1999/xlink" viewBox="0 0 262 180"><defs><style>.b12246de-ddee-452d-a729-953cce4524a2{fill:none;}.b6440a97-012c-443d-a08d-db6701b5e983{clip-path:url(#e8f2a594-4775-4b83-80f9-525ea26b44a9);}.a96e66ea-6690-4fba-9194-e749e25e4c91{fill:#2e2e2e;}.ad6419a5-4e24-4f97-98dd-004f81c67736{fill:#f3f3f3;}.fb85b4ba-2a3b-450a-8f50-fca2a00f9dae{clip-path:url(#f42edf24-be9d-493b-9b60-d7f8cca8c9a6);}.a9372fbe-8bfd-48e8-8fae-e1b0697655d4{fill:#dedede;}.f72bbf8f-0e3a-4f64-9abb-89f2142bdcf4{fill:#ed0000;}.a752dede-acad-4a24-9541-ec836e70a767{clip-path:url(#a26e5d2f-8054-4cfd-a7be-079c82a47ebb);}</style><clipPath id="e8f2a594-4775-4b83-80f9-525ea26b44a9"><rect class="b12246de-ddee-452d-a729-953cce4524a2" x="-654.33487" y="-35" width="555" height="250"/></clipPath><clipPath id="f42edf24-be9d-493b-9b60-d7f8cca8c9a6"><rect class="b12246de-ddee-452d-a729-953cce4524a2" x="0.11915" width="261.88085" height="180"/></clipPath><clipPath id="a26e5d2f-8054-4cfd-a7be-079c82a47ebb"><rect class="b12246de-ddee-452d-a729-953cce4524a2" x="289.20499" width="261.88085" height="180"/></clipPath></defs><g id="a577e49b-df85-4cf1-ae17-449d0a5f6896" data-name="Layer 3"><g class="b6440a97-012c-443d-a08d-db6701b5e983"><path class="a96e66ea-6690-4fba-9194-e749e25e4c91" d="M-24.32215,89.16073c3.35932,15.94313,3.35932,17.62144,3.35932,19.71878,0,27.2739-30.63285,42.37645-70.90572,42.37645-91.05174,0-170.76645-53.28359-170.76645-88.528a35.86623,35.86623,0,0,1,2.93656-14.26459c-32.72779,1.6783-75.10371,7.55047-75.10371,44.89224,0,61.25579,145.17253,136.77818,260.13306,136.77818,88.111,0,110.34367-39.85644,110.34367-71.32425,0-24.75828-21.39572-52.86372-59.99673-69.6488m-63.35408,22.23808c24.33852,0,59.57825-5.03687,59.57825-33.98616a27.51934,27.51934,0,0,0-.60335-6.66084L-43.19738,7.76575c-3.36125-13.84537-6.29629-20.1405-30.6309-32.30881-18.883-9.64776-59.99868-25.59072-72.16735-25.59072-11.32806,0-14.68173,14.68185-28.11023,14.68185-13.00443,0-22.65519-10.90616-34.82246-10.90616-11.74517,0-19.30147,7.9696-25.1745,24.33457,0,0-16.36488,46.15145-18.4624,52.86081a12.16584,12.16584,0,0,0-.43229,3.78046c0,17.93672,70.64087,76.78106,165.32128,76.78106"/></g><rect class="ad6419a5-4e24-4f97-98dd-004f81c67736" x="0.05958" width="261.88085" height="180"/><g class="fb85b4ba-2a3b-450a-8f50-fca2a00f9dae"><path class="a9372fbe-8bfd-48e8-8fae-e1b0697655d4" d="M238.07723,89.28245c2.8721,13.63082,2.8721,15.06572,2.8721,16.85888,0,23.31823-26.19,36.23038-60.62191,36.23038-77.84607,0-145.99937-45.55561-145.99937-75.68836a30.66417,30.66417,0,0,1,2.51066-12.19573C8.85758,55.92251-27.37235,60.943-27.37235,92.86892c0,52.37156,124.11746,116.94058,222.4047,116.94058,75.33188,0,94.34-34.07587,94.34-60.97975,0-21.16747-18.2926-45.19664-51.29512-59.5473M183.9117,108.29524c20.80859,0,50.93733-4.30635,50.93733-29.057a23.52784,23.52784,0,0,0-.51584-5.69478L221.93956,19.69258c-2.87374-11.83731-5.3831-17.21942-26.18834-27.62291-16.14435-8.2485-51.29679-21.87917-61.70057-21.87917-9.6851,0-12.55237,12.55247-24.03327,12.55247-11.11834,0-19.3694-9.32439-29.772-9.32439-10.04172,0-16.50209,6.81374-21.52332,20.80521,0,0-13.9914,39.45788-15.78471,45.19415a10.40151,10.40151,0,0,0-.36959,3.23217c0,15.33526,60.39548,65.64513,141.34393,65.64513"/></g><path class="f72bbf8f-0e3a-4f64-9abb-89f2142bdcf4" d="M100.56648,89.91036a10.37633,10.37633,0,0,1,.35881,2.10614c0,2.9131-3.27187,4.52619-7.57338,4.52619-9.72515,0-18.23941-5.69117-18.23941-9.45559a3.83082,3.83082,0,0,1,.31365-1.52359c-3.49563.17926-8.02176.80646-8.02176,4.7949,0,6.54267,15.50575,14.60915,27.78458,14.60915,9.41106,0,11.78571-4.257,11.78571-7.61808,0-2.64441-2.28526-5.64632-6.4082-7.43912m-6.76679,2.37523c2.59957,0,6.3635-.538,6.3635-3.63a2.93887,2.93887,0,0,0-.06445-.71144l-1.54831-6.72749c-.359-1.47881-.6725-2.15118-3.27165-3.45087-2.01689-1.03047-6.40841-2.73332-7.70813-2.73332-1.20994,0-1.56815,1.56815-3.00243,1.56815-1.389,0-2.41978-1.16488-3.71936-1.16488-1.25449,0-2.06157.85123-2.68886,2.59916,0,0-1.74792,4.92939-1.972,5.646a1.29972,1.29972,0,0,0-.04617.40379c0,1.91581,7.54509,8.20092,17.65782,8.20092"/><path d="M100.56648,89.91036a10.37633,10.37633,0,0,1,.35881,2.10614c0,2.9131-3.27187,4.52619-7.57338,4.52619-9.72515,0-18.23941-5.69117-18.23941-9.45559a3.83082,3.83082,0,0,1,.31365-1.52359l.76189-1.88263a1.29972,1.29972,0,0,0-.04617.40379c0,1.91581,7.54509,8.20092,17.65782,8.20092,2.59957,0,6.3635-.538,6.3635-3.63a2.93887,2.93887,0,0,0-.06445-.71144l.46774,1.96624Z"/><path d="M114.28571,97.74072h3.76018v-5.5749h2.86421l2.88583,5.5749h4.19757l-3.36687-6.1214a4.63036,4.63036,0,0,0,2.886-4.307c0-2.75465-2.16448-4.87539-5.40017-4.87539h-7.82679V97.74072Zm7.47692-12.08992a1.73944,1.73944,0,1,1,0,3.45432h-3.71674V85.6508Zm6.09949,6.3183a6.072,6.072,0,0,0,6.29636,5.99032,6.9399,6.9399,0,0,0,4.8316-1.74892l-2.33909-2.077a3.13292,3.13292,0,0,1-2.31748.87446,2.9886,2.9886,0,0,1-2.84217-1.83644h8.24214v-.87446c0-3.673-2.47048-6.31828-5.83715-6.31828a5.94042,5.94042,0,0,0-6.03421,5.99032m5.96852-3.10454a2.55783,2.55783,0,0,1,2.42662,1.83654h-4.83162a2.40879,2.40879,0,0,1,2.405-1.83654m16.04689,8.87616h3.49805V81.6718l-3.5417.76515v4.35072A5.95956,5.95956,0,1,0,146.773,97.89393a5.216,5.216,0,0,0,3.10452-1.00573v.85252Zm-5.53113-5.79344a2.92845,2.92845,0,0,1,3.03882-2.92965,3.58358,3.58358,0,0,1,2.44866.89639v4.04459a3.40259,3.40259,0,0,1-2.44866.91821,2.94151,2.94151,0,0,1-3.03882-2.92954m14.32894,5.79344h3.7606V91.75045h6.29636v5.99027h3.76039V82.437H168.7323v5.88111h-6.29636V82.437h-3.7606V97.74072Zm19.21732.19687a5.41194,5.41194,0,0,0,3.192-.89639v.69952h3.498V90.32939c0-2.82023-1.90212-4.37254-5.07213-4.37254a12.87031,12.87031,0,0,0-5.40017,1.2681l1.26808,2.60156a9.4506,9.4506,0,0,1,3.49805-.91821c1.46474,0,2.20814.56844,2.20814,1.72721V91.204a10.2677,10.2677,0,0,0-2.62348-.328c-2.97337,0-4.76613,1.24617-4.76613,3.47613,0,2.0332,1.61774,3.58546,4.19757,3.58546m-1.08059-3.651c0-.76523.76523-1.13685,1.924-1.13685a8.89214,8.89214,0,0,1,2.09879.26229v1.48673a4.47024,4.47024,0,0,1-2.20814.54651c-1.13689,0-1.81461-.43728-1.81461-1.15868M187.818,94.221c0,2.47034,1.487,3.67293,4.1978,3.67293a10.86322,10.86322,0,0,0,2.47068-.34987v-2.864a5.14651,5.14651,0,0,1-1.59613.24046c-1.11507,0-1.53022-.34978-1.53022-1.39923V89.12695h3.23548V86.17548h-3.23548V82.437l-3.54213.76524v2.97329h-2.33929v2.95147H187.818V94.221Z"/><g class="a752dede-acad-4a24-9541-ec836e70a767"><path class="a9372fbe-8bfd-48e8-8fae-e1b0697655d4" d="M541.30594,110.80483c3.25145,15.4312,3.25145,17.05561,3.25145,19.08561,0,26.39813-29.64923,41.01574-68.62893,41.01574-88.128,0-165.28311-51.57265-165.28311-85.68537a34.71457,34.71457,0,0,1,2.84226-13.80655c-31.6769,1.62441-72.69211,7.308-72.69211,43.45074,0,59.28886,140.511,132.38621,251.78014,132.38621,85.28179,0,106.80052-38.57664,106.80052-69.034,0-23.96328-20.7087-51.16626-58.07022-67.41236m-68.30841-46.303c20.80859,0,50.93733-4.30635,50.93733-29.057a23.52784,23.52784,0,0,0-.51584-5.69478L511.0254-24.10084c-2.87375-11.8373-5.38311-17.21942-26.18835-27.6229-16.14435-8.2485-51.29679-21.87917-61.70057-21.87917-9.6851,0-12.55237,12.55246-24.03327,12.55246-11.11834,0-19.3694-9.32439-29.772-9.32439-10.04172,0-16.50209,6.81374-21.52332,20.80521,0,0-13.9914,39.45788-15.78471,45.19415a10.40154,10.40154,0,0,0-.36959,3.23217c0,15.33527,60.39548,65.64513,141.34393,65.64513"/></g></g></svg>