<svg xmlns="http://www.w3.org/2000/svg" xmlns:xlink="http://www.w3.org/1999/xlink" viewBox="0 0 262 180"><defs><style>.fa2c1b74-40c5-4ba7-a229-7fa9eb9df7f9{fill:none;}.fd41ff21-4b57-4d03-9516-9747af44c3c0{clip-path:url(#b6f8dcb0-0cb3-47ec-a3ac-454a0ecdba5c);}.bae22475-4e99-4b82-9c96-5ec3e32e9c26{fill:#dedede;}.e6451865-8257-4642-a73b-98aa24cd9c84{fill:#e4f3f4;}.e140d901-ccc7-4c29-95a4-815cabd08622{clip-path:url(#ed7dee8b-0c90-41c3-8d4c-b52960831a3f);}.edfd9b4a-2356-48ad-a0cd-4333c5a61fb5{fill:#aedcdd;}.a8a2837e-7039-468a-9e33-cbf1600b2dfd{fill:#ed0000;}.faec37b4-3668-44b9-becb-9248e4022ba9{clip-path:url(#be32038b-3638-473b-9547-49aca7eaf9a8);}</style><clipPath id="b6f8dcb0-0cb3-47ec-a3ac-454a0ecdba5c"><rect class="fa2c1b74-40c5-4ba7-a229-7fa9eb9df7f9" x="-290.15999" width="261.88085" height="180"/></clipPath><clipPath id="ed7dee8b-0c90-41c3-8d4c-b52960831a3f"><rect class="fa2c1b74-40c5-4ba7-a229-7fa9eb9df7f9" x="0.11915" width="261.88085" height="180"/></clipPath><clipPath id="be32038b-3638-473b-9547-49aca7eaf9a8"><rect class="fa2c1b74-40c5-4ba7-a229-7fa9eb9df7f9" x="289.20499" width="261.88085" height="180"/></clipPath></defs><g id="be688940-6872-4232-9461-95c91b648785" data-name="Layer 3"><g class="fd41ff21-4b57-4d03-9516-9747af44c3c0"><path class="bae22475-4e99-4b82-9c96-5ec3e32e9c26" d="M-38.059,110.80483c3.25144,15.4312,3.25144,17.05561,3.25144,19.08561,0,26.39813-29.64922,41.01574-68.62892,41.01574-88.128,0-165.28312-51.57265-165.28312-85.68537a34.71456,34.71456,0,0,1,2.84227-13.80655c-31.6769,1.62441-72.69211,7.308-72.69211,43.45074,0,59.28886,140.511,132.38621,251.78014,132.38621,85.28179,0,106.80052-38.57664,106.80052-69.034,0-23.96328-20.70871-51.16626-58.07022-67.41236m-68.30841-46.303c20.80859,0,50.93733-4.30635,50.93733-29.057a23.52834,23.52834,0,0,0-.51584-5.69478L-68.33958-24.10084c-2.87374-11.8373-5.38311-17.21942-26.18834-27.6229-16.14435-8.2485-51.29679-21.87917-61.70058-21.87917-9.68509,0-12.55236,12.55246-24.03326,12.55246-11.11834,0-19.3694-9.32439-29.772-9.32439-10.04171,0-16.50208,6.81374-21.52331,20.80521,0,0-13.9914,39.45788-15.78472,45.19415a10.40184,10.40184,0,0,0-.36959,3.23217c0,15.33527,60.39548,65.64513,141.34394,65.64513"/></g><rect class="e6451865-8257-4642-a73b-98aa24cd9c84" x="0.05958" width="261.88085" height="180"/><g class="e140d901-ccc7-4c29-95a4-815cabd08622"><path class="edfd9b4a-2356-48ad-a0cd-4333c5a61fb5" d="M238.07723,89.28245c2.8721,13.63082,2.8721,15.06572,2.8721,16.85888,0,23.31823-26.19,36.23038-60.62191,36.23038-77.84607,0-145.99937-45.55561-145.99937-75.68836a30.66417,30.66417,0,0,1,2.51066-12.19573C8.85758,55.92251-27.37235,60.943-27.37235,92.86892c0,52.37156,124.11746,116.94058,222.4047,116.94058,75.33188,0,94.34-34.07587,94.34-60.97975,0-21.16747-18.2926-45.19664-51.29512-59.5473M183.9117,108.29524c20.80859,0,50.93733-4.30635,50.93733-29.057a23.52784,23.52784,0,0,0-.51584-5.69478L221.93956,19.69258c-2.87374-11.83731-5.3831-17.21942-26.18834-27.62291-16.14435-8.2485-51.29679-21.87917-61.70057-21.87917-9.6851,0-12.55237,12.55247-24.03327,12.55247-11.11834,0-19.3694-9.32439-29.772-9.32439-10.04172,0-16.50209,6.81374-21.52332,20.80521,0,0-13.9914,39.45788-15.78471,45.19415a10.40151,10.40151,0,0,0-.36959,3.23217c0,15.33526,60.39548,65.64513,141.34393,65.64513"/></g><path class="a8a2837e-7039-468a-9e33-cbf1600b2dfd" d="M100.56648,89.91036a10.37633,10.37633,0,0,1,.35881,2.10614c0,2.9131-3.27187,4.52619-7.57338,4.52619-9.72515,0-18.23941-5.69117-18.23941-9.45559a3.83082,3.83082,0,0,1,.31365-1.52359c-3.49563.17926-8.02176.80646-8.02176,4.7949,0,6.54267,15.50575,14.60915,27.78458,14.60915,9.41106,0,11.78571-4.257,11.78571-7.61808,0-2.64441-2.28526-5.64632-6.4082-7.43912m-6.76679,2.37523c2.59957,0,6.3635-.538,6.3635-3.63a2.93887,2.93887,0,0,0-.06445-.71144l-1.54831-6.72749c-.359-1.47881-.6725-2.15118-3.27165-3.45087-2.01689-1.03047-6.40841-2.73332-7.70813-2.73332-1.20994,0-1.56815,1.56815-3.00243,1.56815-1.389,0-2.41978-1.16488-3.71936-1.16488-1.25449,0-2.06157.85123-2.68886,2.59916,0,0-1.74792,4.92939-1.972,5.646a1.29972,1.29972,0,0,0-.04617.40379c0,1.91581,7.54509,8.20092,17.65782,8.20092"/><path d="M100.56648,89.91036a10.37633,10.37633,0,0,1,.35881,2.10614c0,2.9131-3.27187,4.52619-7.57338,4.52619-9.72515,0-18.23941-5.69117-18.23941-9.45559a3.83082,3.83082,0,0,1,.31365-1.52359l.76189-1.88263a1.29972,1.29972,0,0,0-.04617.40379c0,1.91581,7.54509,8.20092,17.65782,8.20092,2.59957,0,6.3635-.538,6.3635-3.63a2.93887,2.93887,0,0,0-.06445-.71144l.46774,1.96624Z"/><path d="M114.28571,97.74072h3.76018v-5.5749h2.86421l2.88583,5.5749h4.19757l-3.36687-6.1214a4.63036,4.63036,0,0,0,2.886-4.307c0-2.75465-2.16448-4.87539-5.40017-4.87539h-7.82679V97.74072Zm7.47692-12.08992a1.73944,1.73944,0,1,1,0,3.45432h-3.71674V85.6508Zm6.09949,6.3183a6.072,6.072,0,0,0,6.29636,5.99032,6.9399,6.9399,0,0,0,4.8316-1.74892l-2.33909-2.077a3.13292,3.13292,0,0,1-2.31748.87446,2.9886,2.9886,0,0,1-2.84217-1.83644h8.24214v-.87446c0-3.673-2.47048-6.31828-5.83715-6.31828a5.94042,5.94042,0,0,0-6.03421,5.99032m5.96852-3.10454a2.55783,2.55783,0,0,1,2.42662,1.83654h-4.83162a2.40879,2.40879,0,0,1,2.405-1.83654m16.04689,8.87616h3.49805V81.6718l-3.5417.76515v4.35072A5.95956,5.95956,0,1,0,146.773,97.89393a5.216,5.216,0,0,0,3.10452-1.00573v.85252Zm-5.53113-5.79344a2.92845,2.92845,0,0,1,3.03882-2.92965,3.58358,3.58358,0,0,1,2.44866.89639v4.04459a3.40259,3.40259,0,0,1-2.44866.91821,2.94151,2.94151,0,0,1-3.03882-2.92954m14.32894,5.79344h3.7606V91.75045h6.29636v5.99027h3.76039V82.437H168.7323v5.88111h-6.29636V82.437h-3.7606V97.74072Zm19.21732.19687a5.41194,5.41194,0,0,0,3.192-.89639v.69952h3.498V90.32939c0-2.82023-1.90212-4.37254-5.07213-4.37254a12.87031,12.87031,0,0,0-5.40017,1.2681l1.26808,2.60156a9.4506,9.4506,0,0,1,3.49805-.91821c1.46474,0,2.20814.56844,2.20814,1.72721V91.204a10.2677,10.2677,0,0,0-2.62348-.328c-2.97337,0-4.76613,1.24617-4.76613,3.47613,0,2.0332,1.61774,3.58546,4.19757,3.58546m-1.08059-3.651c0-.76523.76523-1.13685,1.924-1.13685a8.89214,8.89214,0,0,1,2.09879.26229v1.48673a4.47024,4.47024,0,0,1-2.20814.54651c-1.13689,0-1.81461-.43728-1.81461-1.15868M187.818,94.221c0,2.47034,1.487,3.67293,4.1978,3.67293a10.86322,10.86322,0,0,0,2.47068-.34987v-2.864a5.14651,5.14651,0,0,1-1.59613.24046c-1.11507,0-1.53022-.34978-1.53022-1.39923V89.12695h3.23548V86.17548h-3.23548V82.437l-3.54213.76524v2.97329h-2.33929v2.95147H187.818V94.221Z"/><g class="faec37b4-3668-44b9-becb-9248e4022ba9"><path class="bae22475-4e99-4b82-9c96-5ec3e32e9c26" d="M527.16307,89.28245c2.87209,13.63082,2.87209,15.06572,2.87209,16.85888,0,23.31823-26.19,36.23038-60.62191,36.23038-77.84607,0-145.99937-45.55561-145.99937-75.68836a30.66417,30.66417,0,0,1,2.51066-12.19573c-27.98113,1.43489-64.21106,6.45539-64.21106,38.3813,0,52.37156,124.11746,116.94058,222.4047,116.94058,75.33188,0,94.34-34.07587,94.34-60.97975,0-21.16747-18.2926-45.19664-51.29511-59.5473m-54.16554,19.01279c20.80859,0,50.93733-4.30635,50.93733-29.057a23.52784,23.52784,0,0,0-.51584-5.69478L511.0254,19.69258c-2.87375-11.83731-5.38311-17.21942-26.18835-27.62291-16.14435-8.2485-51.29679-21.87917-61.70057-21.87917-9.6851,0-12.55237,12.55247-24.03327,12.55247-11.11834,0-19.3694-9.32439-29.772-9.32439-10.04172,0-16.50209,6.81374-21.52332,20.80521,0,0-13.9914,39.45788-15.78471,45.19415a10.40151,10.40151,0,0,0-.36959,3.23217c0,15.33526,60.39548,65.64513,141.34393,65.64513"/></g></g></svg>