<svg id="a3062ff9-291a-4f3d-bdc3-0969789640ac" data-name="Layer 1" xmlns="http://www.w3.org/2000/svg" viewBox="0 0 262 180"><defs><style>.b2982173-ff8a-425c-817a-298f4edea673{fill:#ed0000;}</style></defs><path class="b2982173-ff8a-425c-817a-298f4edea673" d="M180.50734,89.76643c1.32792,4.43706,1.32792,4.90414,1.32792,5.48784,0,7.59048-12.109,11.7936-28.02864,11.7936-35.99227,0-67.50306-14.82912-67.50306-24.63783a7.55159,7.55159,0,0,1,1.1608-3.96992c-12.93712.46709-29.68809,2.10134-29.68809,12.49376C57.77627,107.9817,115.16219,129,160.60547,129c34.82982,0,43.61826-11.09226,43.61826-19.84993,0-6.89037-8.45762-14.71226-23.71639-19.38364m-25.04352,6.189c9.62088,0,23.551-1.40179,23.551-9.45854a5.47911,5.47911,0,0,0-.2385-1.85375l-5.73022-17.52936c-1.32868-3.85325-2.48888-5.60522-12.10822-8.99172C153.47347,55.437,137.22068,51,132.41047,51c-4.47792,0-5.80361,4.086-11.11182,4.086-5.14058,0-8.95548-3.03525-13.76513-3.03525-4.64281,0-7.62977,2.218-9.95135,6.77245,0,0-6.46894,12.8442-7.29809,14.71145a2.44362,2.44362,0,0,0-.17088,1.05213c0,4.99188,27.924,21.36859,65.35062,21.36859"/><path d="M180.50734,89.76643c1.32792,4.43706,1.32792,4.90414,1.32792,5.48784,0,7.59048-12.109,11.7936-28.02864,11.7936-35.99227,0-67.50306-14.82912-67.50306-24.63783a7.55159,7.55159,0,0,1,1.1608-3.96992l2.81972-4.90543a2.44362,2.44362,0,0,0-.17088,1.05213c0,4.99188,27.924,21.36859,65.35062,21.36859,9.62088,0,23.551-1.40179,23.551-9.45854a5.47911,5.47911,0,0,0-.2385-1.85375l1.73106,5.12331Z"/></svg>