<svg xmlns="http://www.w3.org/2000/svg" viewBox="0 0 262 180"><defs><style>.ba77e3a4-679a-40e2-aeb8-5934b76f4adc{fill:#fff;}.e84499fd-eea8-481b-89ad-1c893fbea471{fill:#6c6c6c;}</style></defs><g id="af1de5f6-7a68-41d1-ac6e-a85a558b7137" data-name="Layer 3"><rect width="262" height="180"/><circle class="ba77e3a4-679a-40e2-aeb8-5934b76f4adc" cx="55.62804" cy="87.03544" r="25.65823"/><path class="ba77e3a4-679a-40e2-aeb8-5934b76f4adc" d="M91.40928,69.04626h5.83008A6.026,6.026,0,0,1,99.922,69.598a4.011,4.011,0,0,1,1.73047,1.57324,4.66684,4.66684,0,0,1,.60742,2.42969v.02051a4.56079,4.56079,0,0,1-.74316,2.59082,4.03323,4.03323,0,0,1-2.00977,1.5791l3.18848,5.86035H99.71983l-2.875-5.46582H94.02061v5.46582H91.40928Zm5.55762,7.0752a2.697,2.697,0,0,0,1.93262-.65332A2.39709,2.39709,0,0,0,99.588,73.641v-.01953a2.33811,2.33811,0,0,0-.71875-1.80762,2.7709,2.7709,0,0,0-1.95312-.66211H94.02061v4.96973Z"/><path class="ba77e3a4-679a-40e2-aeb8-5934b76f4adc" d="M105.76866,83.18591a4.48056,4.48056,0,0,1-1.77637-1.92285,6.56539,6.56539,0,0,1-.61719-2.94531V78.307a6.587,6.587,0,0,1,.623-2.95019,4.68445,4.68445,0,0,1,1.751-1.959,4.96944,4.96944,0,0,1,2.667-.69824,5.03,5.03,0,0,1,2.64648.67383,4.45266,4.45266,0,0,1,1.72071,1.8877,6.305,6.305,0,0,1,.60254,2.834v.80957h-8.76563V77.224h7.56152l-1.21484,1.56933v-.97168a4.1623,4.1623,0,0,0-.32422-1.751,2.34317,2.34317,0,0,0-.89062-1.04786,2.44288,2.44288,0,0,0-1.30567-.34961,2.48185,2.48185,0,0,0-1.331.35938,2.40786,2.40786,0,0,0-.91113,1.06836,4.06076,4.06076,0,0,0-.32911,1.7207v.97168a3.87475,3.87475,0,0,0,.32911,1.67481,2.4264,2.4264,0,0,0,.93652,1.06347,2.73035,2.73035,0,0,0,1.44726.36914,2.86092,2.86092,0,0,0,1.10352-.19726,2.34454,2.34454,0,0,0,.78418-.51172,1.7567,1.7567,0,0,0,.43066-.67773l.01953-.07129h2.34864l-.02051.11132a3.96033,3.96033,0,0,1-1.4375,2.27735,4.63488,4.63488,0,0,1-1.417.75488,5.77407,5.77407,0,0,1-1.86231.27832A5.39159,5.39159,0,0,1,105.76866,83.18591Z"/><path class="ba77e3a4-679a-40e2-aeb8-5934b76f4adc" d="M116.57139,83.19079a4.3037,4.3037,0,0,1-1.53808-1.92773,7.47137,7.47137,0,0,1-.542-2.97559v-.01074a7.40666,7.40666,0,0,1,.54688-2.98047,4.36368,4.36368,0,0,1,1.53809-1.92285,4.05992,4.05992,0,0,1,2.33886-.67383,3.7099,3.7099,0,0,1,2.01856.55176,3.53648,3.53648,0,0,1,1.33105,1.51367h.06055V69.04626H124.836V83.65173H122.3253V81.82946h-.06055a3.51218,3.51218,0,0,1-1.31543,1.49317,3.72092,3.72092,0,0,1-2.02441.542A4.10293,4.10293,0,0,1,116.57139,83.19079Zm4.48926-1.86718a2.7712,2.7712,0,0,0,.93066-1.20411,4.62708,4.62708,0,0,0,.334-1.832v-.01074a4.52318,4.52318,0,0,0-.33887-1.82715,2.83086,2.83086,0,0,0-.93066-1.19922,2.29536,2.29536,0,0,0-1.37207-.4248,2.35563,2.35563,0,0,0-1.40137.41992,2.67086,2.67086,0,0,0-.91113,1.18945,4.79363,4.79363,0,0,0-.31934,1.8418v.01074a4.84217,4.84217,0,0,0,.31934,1.8418,2.65783,2.65783,0,0,0,.91113,1.19922,2.35563,2.35563,0,0,0,1.40137.41992A2.31645,2.31645,0,0,0,121.06065,81.32361Z"/><path class="ba77e3a4-679a-40e2-aeb8-5934b76f4adc" d="M131.37413,69.04626h2.61133v6.07227h7.10644V69.04626h2.60059V83.65173H141.0919V77.31579h-7.10644v6.33594h-2.61133Z"/><path class="ba77e3a4-679a-40e2-aeb8-5934b76f4adc" d="M147.20616,83.42419a3.05513,3.05513,0,0,1-1.26563-1.14355,3.16242,3.16242,0,0,1-.45019-1.68555v-.02051a2.71869,2.71869,0,0,1,1.06738-2.26172,5.30757,5.30757,0,0,1,3.01172-.94726l4.09961-.25293v1.6709l-3.74512.23242a2.56919,2.56919,0,0,0-1.42773.44531,1.232,1.232,0,0,0-.4961,1.02246v.00977a1.2336,1.2336,0,0,0,.501,1.03808,2.15108,2.15108,0,0,0,1.33105.37891,2.81,2.81,0,0,0,1.30079-.293,2.34961,2.34961,0,0,0,.90625-.7998,2.03134,2.03134,0,0,0,.334-1.14356V76.45544a1.65674,1.65674,0,0,0-.51074-1.28027,2.09692,2.09692,0,0,0-1.47363-.47071,2.42231,2.42231,0,0,0-1.42676.37891,1.591,1.591,0,0,0-.668.97656l-.02051.0918h-2.32812l.01074-.12207a3.28378,3.28378,0,0,1,.63769-1.70508,3.74488,3.74488,0,0,1,1.543-1.18945,5.78027,5.78027,0,0,1,2.34375-.43555,5.63431,5.63431,0,0,1,2.333.44531A3.56746,3.56746,0,0,1,154.3419,74.39a3.28271,3.28271,0,0,1,.541,1.88281v7.37891h-2.50977V82.00232h-.06055a3.44333,3.44333,0,0,1-.79.97168,3.50837,3.50837,0,0,1-1.10839.63769,3.94593,3.94593,0,0,1-1.33106.22266A4.11947,4.11947,0,0,1,147.20616,83.42419Z"/><path class="ba77e3a4-679a-40e2-aeb8-5934b76f4adc" d="M158.22862,83.13513a3.06368,3.06368,0,0,1-.81445-2.38867V74.8656h-1.51856V72.92224h1.51856V70.19958h2.56054v2.72266h1.99414V74.8656h-1.99414v5.67871a1.366,1.366,0,0,0,.34961,1.07812,1.54081,1.54081,0,0,0,1.02735.29883c.12793,0,.24121-.00586.33886-.01562s.19043-.01856.27832-.02539v1.89257q-.22264.03077-.542.06153c-.21191.01953-.45019.03027-.71289.03027A3.63413,3.63413,0,0,1,158.22862,83.13513Z"/><path class="ba77e3a4-679a-40e2-aeb8-5934b76f4adc" d="M163.73448,81.27282h2.43945l-1.47754,5.36524h-1.76074Z"/><path class="ba77e3a4-679a-40e2-aeb8-5934b76f4adc" d="M172.77354,69.04626h2.61133V83.65173h-2.61133Z"/><path class="ba77e3a4-679a-40e2-aeb8-5934b76f4adc" d="M177.65928,72.92224H180.17V74.6029h.06054a3.2542,3.2542,0,0,1,1.24024-1.38672,3.77661,3.77661,0,0,1,2.03906-.5166,3.49835,3.49835,0,0,1,2.73828,1.07324,4.22735,4.22735,0,0,1,.9668,2.93555v6.94336h-2.52051v-6.4375a2.622,2.622,0,0,0-.53711-1.7666,2.00751,2.00751,0,0,0-1.60937-.62207,2.349,2.349,0,0,0-1.25489.3291,2.21187,2.21187,0,0,0-.83008.91113,2.99034,2.99034,0,0,0-.293,1.36133v6.22461h-2.51075Z"/><path class="ba77e3a4-679a-40e2-aeb8-5934b76f4adc" d="M191.1212,83.18591a4.553,4.553,0,0,1-1.79688-1.93262,6.53982,6.53982,0,0,1-.63281-2.97656V78.267a6.44585,6.44585,0,0,1,.6377-2.96093,4.59962,4.59962,0,0,1,1.79687-1.92774,5.28364,5.28364,0,0,1,2.71777-.67871,5.20336,5.20336,0,0,1,2.44922.542,4.25951,4.25951,0,0,1,1.61914,1.43164,4.07875,4.07875,0,0,1,.669,1.96387v.07129H196.212l-.02051-.08105a2.43323,2.43323,0,0,0-.7334-1.33106,2.20637,2.20637,0,0,0-1.584-.55176,2.28649,2.28649,0,0,0-1.38184.43067,2.74717,2.74717,0,0,0-.916,1.21875,4.98585,4.98585,0,0,0-.32422,1.89355v.00977a4.95367,4.95367,0,0,0,.3291,1.90332,2.71506,2.71506,0,0,0,.9209,1.209,2.32677,2.32677,0,0,0,1.38183.41992,2.26285,2.26285,0,0,0,1.55371-.5205,2.39778,2.39778,0,0,0,.76465-1.36231l.02051-.09082h2.37793l-.00977.07129a4.16074,4.16074,0,0,1-.709,2.00391,4.289,4.289,0,0,1-1.62891,1.41211,5.16815,5.16815,0,0,1-2.3789.52148A5.37024,5.37024,0,0,1,191.1212,83.18591Z"/><path class="ba77e3a4-679a-40e2-aeb8-5934b76f4adc" d="M200.24913,83.389a1.47957,1.47957,0,1,1,1.042.4248A1.40844,1.40844,0,0,1,200.24913,83.389Z"/><path class="e84499fd-eea8-481b-89ad-1c893fbea471" d="M96.24327,108.25232a7.66288,7.66288,0,0,1-2.70313-1.625,7.278,7.278,0,0,1-1.78125-2.64649,9.61262,9.61262,0,0,1-.63281-3.6084v-.00976A9.3146,9.3146,0,0,1,91.7335,96.931a7.6572,7.6572,0,0,1,4.37793-4.40821,9.68849,9.68849,0,0,1,7.55567.32911,7.09548,7.09548,0,0,1,2.88476,2.67675,7.78133,7.78133,0,0,1,1.05274,4.11524v.00976a7.80487,7.80487,0,0,1-.44043,2.81348,3.81418,3.81418,0,0,1-1.19922,1.71094,2.7403,2.7403,0,0,1-1.7002.57715,2.34283,2.34283,0,0,1-1.57422-.53125,2.865,2.865,0,0,1-.876-1.291l-.03028-.09082h-.09082a2.64844,2.64844,0,0,1-1.09863,1.37109,3.46456,3.46456,0,0,1-3.5625-.08593,3.52666,3.52666,0,0,1-1.23535-1.498,5.35744,5.35744,0,0,1-.43945-2.24707v-.00977a5.006,5.006,0,0,1,.45019-2.18652,3.58075,3.58075,0,0,1,1.24512-1.47266A3.20693,3.20693,0,0,1,98.88,96.182a2.93411,2.93411,0,0,1,1.4873.38965,2.21156,2.21156,0,0,1,.96192,1.03711h.081V96.37439h1.52832v4.92871a2.6635,2.6635,0,0,0,.374,1.55957,1.15149,1.15149,0,0,0,.97168.51562,1.47164,1.47164,0,0,0,1.2959-.93066,6.11591,6.11591,0,0,0,.4961-2.78418v-.00977a6.53427,6.53427,0,0,0-.84571-3.39062,5.69364,5.69364,0,0,0-2.3584-2.20215,7.62448,7.62448,0,0,0-3.5166-.77344,6.84487,6.84487,0,0,0-2.68261.51563A6.26674,6.26674,0,0,0,94.547,95.266a6.66159,6.66159,0,0,0-1.39649,2.24707,7.95576,7.95576,0,0,0-.49609,2.85937v.00977a7.49722,7.49722,0,0,0,.9209,3.8418,6.046,6.046,0,0,0,2.50586,2.38379,7.778,7.778,0,0,0,3.58789.80957,14.15843,14.15843,0,0,0,1.96387-.13184,5.55461,5.55461,0,0,0,1.4375-.35449V108.308a10.37214,10.37214,0,0,1-3.42188.49609A10.12486,10.12486,0,0,1,96.24327,108.25232Zm4.52929-5.78516a3.20459,3.20459,0,0,0,.61719-2.06445v-.00977a3.163,3.163,0,0,0-.61719-2.05469,2.00762,2.00762,0,0,0-1.63964-.75976,1.9808,1.9808,0,0,0-1.15918.334,2.11373,2.11373,0,0,0-.73926.96192,3.961,3.961,0,0,0-.25781,1.50781v.01074a4.026,4.026,0,0,0,.25781,1.52246,2.17644,2.17644,0,0,0,.73926.97754,1.90377,1.90377,0,0,0,1.13867.34375A2.01662,2.01662,0,0,0,100.77256,102.46716Z"/><path class="e84499fd-eea8-481b-89ad-1c893fbea471" d="M109.66905,91.8197h5.47558a5.28424,5.28424,0,0,1,2.45508.541,3.942,3.942,0,0,1,1.624,1.51856,4.42243,4.42243,0,0,1,.57714,2.292v.02051a4.43269,4.43269,0,0,1-.78417,2.62695,4.07008,4.07008,0,0,1-2.15137,1.54395l3.38086,6.0625h-2.13574l-3.127-5.7793h-3.49219v5.7793h-1.82226Zm5.31445,7.2168a3.02106,3.02106,0,0,0,2.1709-.7295,2.73121,2.73121,0,0,0,.76367-2.07421v-.02051a2.62191,2.62191,0,0,0-.80469-2.04,3.16186,3.16186,0,0,0-2.21093-.7334h-3.41114V99.0365Z"/><path class="e84499fd-eea8-481b-89ad-1c893fbea471" d="M123.25987,105.95935a4.35225,4.35225,0,0,1-1.66992-1.8877,6.58748,6.58748,0,0,1-.582-2.86914v-.01074a6.63293,6.63293,0,0,1,.58691-2.86914,4.59939,4.59939,0,0,1,1.64941-1.93359,4.90242,4.90242,0,0,1,4.97559-.03028,4.30605,4.30605,0,0,1,1.59375,1.85742,6.50357,6.50357,0,0,1,.55664,2.77344v.64746H121.8878v-1.376h7.6123l-.89062,1.27539v-.67871a4.83852,4.83852,0,0,0-.37012-2.02442,2.61848,2.61848,0,0,0-1.0166-1.18848,3.00945,3.00945,0,0,0-2.99609.01954,2.78854,2.78854,0,0,0-1.05274,1.21484,4.56119,4.56119,0,0,0-.38476,1.97852v.67871a4.35932,4.35932,0,0,0,.3789,1.90234,2.78466,2.78466,0,0,0,1.07813,1.21,3.13938,3.13938,0,0,0,1.65039.41992,3.31479,3.31479,0,0,0,1.19433-.20215,2.48893,2.48893,0,0,0,.88086-.55664,2.06409,2.06409,0,0,0,.50586-.80957l.03028-.09179h1.73046l-.01953.10156a3.48347,3.48347,0,0,1-.501,1.21484,3.9122,3.9122,0,0,1-.94727.99707,4.4994,4.4994,0,0,1-1.31543.668,5.20037,5.20037,0,0,1-1.59961.23731A4.86334,4.86334,0,0,1,123.25987,105.95935Z"/><path class="e84499fd-eea8-481b-89ad-1c893fbea471" d="M133.6876,105.95446a4.40006,4.40006,0,0,1-1.56347-1.90332,6.9498,6.9498,0,0,1-.55664-2.88964v-.00977A6.858,6.858,0,0,1,132.129,98.267a4.45382,4.45382,0,0,1,1.56348-1.89746,4.05526,4.05526,0,0,1,2.31836-.67382,3.81681,3.81681,0,0,1,1.99414.52636,3.70956,3.70956,0,0,1,1.376,1.4375h.041V91.8197h1.76074v14.60547H139.422v-1.78125h-.041a3.78886,3.78886,0,0,1-1.35058,1.45215,3.6897,3.6897,0,0,1-1.98926.53125A4.13312,4.13312,0,0,1,133.6876,105.95446Zm4.27637-1.37109a3.21685,3.21685,0,0,0,1.07813-1.36719,5.03791,5.03791,0,0,0,.38964-2.05468v-.00977a4.95546,4.95546,0,0,0-.39453-2.0498,3.28289,3.28289,0,0,0-1.07812-1.36133,2.64452,2.64452,0,0,0-1.57422-.48535,2.72849,2.72849,0,0,0-1.60938.47558,3.0121,3.0121,0,0,0-1.042,1.34571,5.35755,5.35755,0,0,0-.36426,2.07519v.00977a5.42619,5.42619,0,0,0,.36426,2.085,2.96654,2.96654,0,0,0,1.042,1.35156,2.75334,2.75334,0,0,0,1.60938.4707A2.6746,2.6746,0,0,0,137.964,104.58337Z"/><path class="e84499fd-eea8-481b-89ad-1c893fbea471" d="M143.74717,91.8197h1.82227v6.31543h8.0166V91.8197h1.82129v14.60547H153.586V99.77478h-8.0166v6.65039h-1.82227Z"/><path class="e84499fd-eea8-481b-89ad-1c893fbea471" d="M159.11827,106.23279a2.94848,2.94848,0,0,1-1.22949-1.11329,3.13011,3.13011,0,0,1-.44043-1.66992v-.02051a2.61642,2.61642,0,0,1,1.00195-2.15039,4.82844,4.82844,0,0,1,2.81348-.90625l3.89746-.22265V101.516l-3.69434.22265a2.92972,2.92972,0,0,0-1.63477.50586,1.41651,1.41651,0,0,0-.582,1.18457v.02051a1.4463,1.4463,0,0,0,.57129,1.2041,2.4153,2.4153,0,0,0,1.52344.44532,3.1591,3.1591,0,0,0,1.49316-.34864,2.74523,2.74523,0,0,0,1.05274-.957,2.4747,2.4747,0,0,0,.38965-1.36621V99.3197a1.95269,1.95269,0,0,0-.60254-1.51367,2.43592,2.43592,0,0,0-1.70508-.55078,2.77645,2.77645,0,0,0-1.63477.43945,1.84655,1.84655,0,0,0-.77441,1.14941l-.02051.09082h-1.70019l.00976-.11132a3.16016,3.16016,0,0,1,.59278-1.57911,3.54955,3.54955,0,0,1,1.41211-1.1289,5.64218,5.64218,0,0,1,4.28613.00586,3.26092,3.26092,0,0,1,1.40234,1.19922,3.31661,3.31661,0,0,1,.4961,1.82714v7.27735h-1.76172v-1.71094h-.04a3.38549,3.38549,0,0,1-.81055,1.00781,3.83787,3.83787,0,0,1-1.13867.668,3.78053,3.78053,0,0,1-1.34082.23731A4.03848,4.03848,0,0,1,159.11827,106.23279Z"/><path class="e84499fd-eea8-481b-89ad-1c893fbea471" d="M169.35069,105.93884a2.92625,2.92625,0,0,1-.71777-2.19629V97.35583h-1.53907v-1.457h1.53907V93.05407h1.82129V95.8988h2.0039v1.457h-2.0039v6.377a1.42541,1.42541,0,0,0,.36425,1.13867,1.66012,1.66012,0,0,0,1.07325.29883,2.83707,2.83707,0,0,0,.30859-.01563c.09766-.00977.18359-.01855.25781-.02539V106.557c-.10742.01368-.24805.02832-.41992.04493a5.12,5.12,0,0,1-.52051.02539A3.02564,3.02564,0,0,1,169.35069,105.93884Z"/><path class="ba77e3a4-679a-40e2-aeb8-5934b76f4adc" d="M232.03018,76.52507a3.69338,3.69338,0,0,0-1.97093-3.305,3.827,3.827,0,0,0,.21873-1.284,3.58857,3.58857,0,0,0-3.5039-3.67,3.31,3.31,0,0,0-1.22624.22842,3.441,3.441,0,0,0-6.30808,0,3.31119,3.31119,0,0,0-1.22557-.22842,3.58808,3.58808,0,0,0-3.50384,3.67,3.842,3.842,0,0,0,.21806,1.284,3.75869,3.75869,0,0,0-.18854,6.50279,3.98,3.98,0,0,0-.02952.47213,3.5883,3.5883,0,0,0,3.50384,3.67,3.33734,3.33734,0,0,0,1.22557-.2278,3.4416,3.4416,0,0,0,6.30808,0,3.33611,3.33611,0,0,0,1.22624.2278,3.58878,3.58878,0,0,0,3.5039-3.67,3.9687,3.9687,0,0,0-.03086-.47213A3.70824,3.70824,0,0,0,232.03018,76.52507Zm-6.07176-3.06034L221.981,79.4299a.68823.68823,0,0,1-.95446.1909l-.10441-.086-2.21633-2.21633a.68822.68822,0,1,1,.97329-.97328l1.62241,1.62248,3.51152-5.26647a.68827.68827,0,0,1,1.14536.76357Z"/><path d="M67.0702,85.94487a9.28327,9.28327,0,0,1,.321,1.88424c0,2.60617-2.92713,4.0493-6.77543,4.0493-8.70049,0-16.31766-5.09154-16.31766-8.45933a3.42723,3.42723,0,0,1,.2806-1.36306c-3.12732.16037-7.17657.72149-7.17657,4.2897,0,5.85332,13.872,13.0699,24.85714,13.0699,8.41949,0,10.54393-3.8085,10.54393-6.81543,0-2.36578-2.04447-5.05141-5.733-6.65532m-6.05383,2.125c2.32568,0,5.693-.4813,5.693-3.24756a2.62971,2.62971,0,0,0-.05765-.63648l-1.38518-6.01866c-.32119-1.323-.60165-1.92454-2.927-3.08728-1.80438-.9219-5.7332-2.44534-6.896-2.44534-1.08246,0-1.40292,1.40293-2.68609,1.40293-1.24264,0-2.16483-1.04214-3.32748-1.04214-1.12231,0-1.84436.76154-2.40556,2.3253,0,0-1.56375,4.41-1.76418,5.05114a1.16259,1.16259,0,0,0-.04131.36124c0,1.71395,6.75012,7.33685,15.79735,7.33685"/></g></svg>