<svg id="a34ed6a1-7b56-427e-8faa-1e80270a6167" data-name="Layer 1" xmlns="http://www.w3.org/2000/svg" xmlns:xlink="http://www.w3.org/1999/xlink" viewBox="0 0 262 180"><defs><style>.a199cb9a-aa0d-48e4-b0fb-951459ad5174{fill:none;}.bf441153-a545-4839-b319-8a87c5cb5b02{clip-path:url(#feee3bd7-ca66-4ad6-959f-68ab5a5f781b);}.fc2fdedf-be9d-4596-90c3-175c3e2f8386{fill:#4d4d4d;}.ae4f045a-689f-4d7a-83f3-f97df044a8e0{clip-path:url(#e06627fc-8001-42f7-bf26-2df9aeacd532);}.b4f19ef2-699e-40ad-80a9-665b996dc704{fill:#fab6b6;}.a8eda198-6e80-4142-87c4-b659ae4fcd57{clip-path:url(#fa28e0c6-9ac9-4d08-b0b1-047283bcff30);}.b9ef79c4-6f73-4d0f-8872-639e25694068{fill:#e00;}</style><clipPath id="feee3bd7-ca66-4ad6-959f-68ab5a5f781b"><rect class="a199cb9a-aa0d-48e4-b0fb-951459ad5174" width="262" height="180" rx="3"/></clipPath><clipPath id="e06627fc-8001-42f7-bf26-2df9aeacd532"><rect class="a199cb9a-aa0d-48e4-b0fb-951459ad5174" x="282" width="262" height="180" rx="3"/></clipPath><clipPath id="fa28e0c6-9ac9-4d08-b0b1-047283bcff30"><rect class="a199cb9a-aa0d-48e4-b0fb-951459ad5174" x="-283" width="262" height="180" rx="3"/></clipPath></defs><g class="bf441153-a545-4839-b319-8a87c5cb5b02"><path class="fc2fdedf-be9d-4596-90c3-175c3e2f8386" d="M-2.64,17.64A1,1,0,0,1-3,17.58a.83.83,0,0,1-.51-.77V10H-8.39A.82.82,0,0,1-9,9.75a.83.83,0,0,1-.24-.58V-12.39a.83.83,0,0,1,.83-.83H26.13a.83.83,0,0,1,.83.83V9.14a.83.83,0,0,1-.83.83H5.38L-2,17.4A.82.82,0,0,1-2.64,17.64Zm0-9.33A.83.83,0,0,1-2,8.56a.83.83,0,0,1,.24.58v5.67L4.45,8.56A.79.79,0,0,1,5,8.31H25.3V-11.56H-7.56V8.33l4.92,0Z"/><path class="fc2fdedf-be9d-4596-90c3-175c3e2f8386" d="M58.3,17.64a.87.87,0,0,1-.32-.06.83.83,0,0,1-.51-.77V10H52.55A.82.82,0,0,1,52,9.75a.78.78,0,0,1-.24-.58V-12.39a.83.83,0,0,1,.83-.83H87.06a.83.83,0,0,1,.83.83V9.14a.83.83,0,0,1-.83.83H66.31L58.89,17.4A.84.84,0,0,1,58.3,17.64Zm0-9.33a.85.85,0,0,1,.83.83v5.67l6.25-6.25A.83.83,0,0,1,66,8.31H86.23V-11.56H53.38V8.33l4.92,0Z"/><path class="fc2fdedf-be9d-4596-90c3-175c3e2f8386" d="M119.24,17.64a.87.87,0,0,1-.32-.06.83.83,0,0,1-.51-.77V10h-4.93a.78.78,0,0,1-.58-.24.79.79,0,0,1-.25-.58V-12.39a.83.83,0,0,1,.83-.83H148a.83.83,0,0,1,.83.83V9.14A.83.83,0,0,1,148,10H127.25l-7.43,7.43A.82.82,0,0,1,119.24,17.64Zm0-9.33a.85.85,0,0,1,.83.83v5.67l6.25-6.25a.83.83,0,0,1,.59-.25h20.26V-11.56H114.31V8.33l4.92,0Z"/><path class="fc2fdedf-be9d-4596-90c3-175c3e2f8386" d="M180.17,17.64a.85.85,0,0,1-.31-.06.84.84,0,0,1-.52-.77V10h-4.92a.78.78,0,0,1-.58-.24.79.79,0,0,1-.25-.58V-12.39a.83.83,0,0,1,.83-.83h34.52a.83.83,0,0,1,.83.83V9.14a.83.83,0,0,1-.83.83H188.19l-7.43,7.43A.82.82,0,0,1,180.17,17.64Zm0-9.33a.83.83,0,0,1,.59.25.83.83,0,0,1,.24.58v5.67l6.26-6.25a.79.79,0,0,1,.58-.25h20.27V-11.56H175.25V8.33l4.92,0Z"/><path class="fc2fdedf-be9d-4596-90c3-175c3e2f8386" d="M241.11,17.64a.91.91,0,0,1-.32-.06.83.83,0,0,1-.51-.77V10h-4.92a.82.82,0,0,1-.83-.82V-12.39a.83.83,0,0,1,.83-.83h34.51a.83.83,0,0,1,.83.83V9.14a.83.83,0,0,1-.83.83H249.12L241.7,17.4A.82.82,0,0,1,241.11,17.64Zm0-9.33a.85.85,0,0,1,.83.83v5.67l6.25-6.25a.83.83,0,0,1,.59-.25H269V-11.56H236.19V8.33l4.92,0Z"/><path class="fc2fdedf-be9d-4596-90c3-175c3e2f8386" d="M-2.64,63.16A.77.77,0,0,1-3,63.09a.82.82,0,0,1-.51-.76V55.49l-4.92,0h0A.87.87,0,0,1-9,55.27a.87.87,0,0,1-.24-.59V33.12a.83.83,0,0,1,.83-.83H26.13a.83.83,0,0,1,.83.83V54.66a.83.83,0,0,1-.83.83H5.38L-2,62.91A.83.83,0,0,1-2.64,63.16Zm0-9.33a.87.87,0,0,1,.59.24.87.87,0,0,1,.24.59v5.66l6.26-6.25A.83.83,0,0,1,5,53.83H25.3V34H-7.56v19.9l4.92,0Z"/><path class="fc2fdedf-be9d-4596-90c3-175c3e2f8386" d="M58.3,63.16a.71.71,0,0,1-.32-.07.82.82,0,0,1-.51-.76V55.49l-4.92,0h0a.87.87,0,0,1-.59-.24.82.82,0,0,1-.24-.59V33.12a.83.83,0,0,1,.83-.83H87.06a.83.83,0,0,1,.83.83V54.66a.83.83,0,0,1-.83.83H66.31l-7.42,7.42A.85.85,0,0,1,58.3,63.16Zm0-9.33a.83.83,0,0,1,.58.24.83.83,0,0,1,.25.59v5.66l6.25-6.25a.87.87,0,0,1,.59-.24H86.23V34H53.38v19.9l4.92,0Z"/><path class="fc2fdedf-be9d-4596-90c3-175c3e2f8386" d="M119.24,63.16a.71.71,0,0,1-.32-.07.82.82,0,0,1-.51-.76V55.49l-4.92,0h0a.83.83,0,0,1-.58-.24.83.83,0,0,1-.25-.59V33.12a.83.83,0,0,1,.83-.83H148a.83.83,0,0,1,.83.83V54.66a.83.83,0,0,1-.83.83H127.25l-7.43,7.42A.83.83,0,0,1,119.24,63.16Zm0-9.33a.83.83,0,0,1,.58.24.83.83,0,0,1,.25.59v5.66l6.25-6.25a.87.87,0,0,1,.59-.24h20.26V34H114.31v19.9l4.92,0Z"/><path class="fc2fdedf-be9d-4596-90c3-175c3e2f8386" d="M180.17,63.16a.7.7,0,0,1-.31-.07.83.83,0,0,1-.52-.76V55.49l-4.92,0h0a.83.83,0,0,1-.58-.24.83.83,0,0,1-.25-.59V33.12a.83.83,0,0,1,.83-.83h34.52a.83.83,0,0,1,.83.83V54.66a.83.83,0,0,1-.83.83H188.19l-7.43,7.42A.83.83,0,0,1,180.17,63.16Zm0-9.33a.82.82,0,0,1,.83.83v5.66l6.26-6.25a.83.83,0,0,1,.58-.24h20.27V34H175.25v19.9l4.92,0Z"/><path class="fc2fdedf-be9d-4596-90c3-175c3e2f8386" d="M241.11,63.16a.74.74,0,0,1-.32-.07.82.82,0,0,1-.51-.76V55.49l-4.92,0h0a.82.82,0,0,1-.83-.83V33.12a.83.83,0,0,1,.83-.83h34.51a.83.83,0,0,1,.83.83V54.66a.83.83,0,0,1-.83.83H249.12l-7.42,7.42A.83.83,0,0,1,241.11,63.16Zm0-9.33a.83.83,0,0,1,.58.24.83.83,0,0,1,.25.59v5.66l6.25-6.25a.87.87,0,0,1,.59-.24H269V34H236.19v19.9l4.92,0Z"/><path class="fc2fdedf-be9d-4596-90c3-175c3e2f8386" d="M-2.64,108.67a1,1,0,0,1-.32-.06.83.83,0,0,1-.51-.77V101l-4.92,0h0a.82.82,0,0,1-.59-.24.87.87,0,0,1-.24-.59V78.64a.83.83,0,0,1,.83-.83H26.13a.83.83,0,0,1,.83.83v21.53a.83.83,0,0,1-.83.83H5.38L-2,108.43A.82.82,0,0,1-2.64,108.67Zm0-9.33a.87.87,0,0,1,.59.24.87.87,0,0,1,.24.59v5.67l6.26-6.26A.83.83,0,0,1,5,99.34H25.3V79.47H-7.56V99.36l4.92,0Z"/><path class="fc2fdedf-be9d-4596-90c3-175c3e2f8386" d="M58.3,108.67a.87.87,0,0,1-.32-.06.83.83,0,0,1-.51-.77V101l-4.92,0h0a.82.82,0,0,1-.83-.83V78.64a.83.83,0,0,1,.83-.83H87.06a.83.83,0,0,1,.83.83v21.53a.83.83,0,0,1-.83.83H66.31l-7.42,7.43A.84.84,0,0,1,58.3,108.67Zm0-9.33a.83.83,0,0,1,.58.24.83.83,0,0,1,.25.59v5.67l6.25-6.26a.87.87,0,0,1,.59-.24H86.23V79.47H53.38V99.36l4.92,0Z"/><path class="fc2fdedf-be9d-4596-90c3-175c3e2f8386" d="M119.24,108.67a.87.87,0,0,1-.32-.06.83.83,0,0,1-.51-.77V101l-4.92,0h0a.78.78,0,0,1-.58-.24.83.83,0,0,1-.25-.59V78.64a.83.83,0,0,1,.83-.83H148a.83.83,0,0,1,.83.83v21.53a.83.83,0,0,1-.83.83H127.25l-7.43,7.43A.82.82,0,0,1,119.24,108.67Zm0-9.33a.83.83,0,0,1,.58.24.83.83,0,0,1,.25.59v5.67l6.25-6.26a.87.87,0,0,1,.59-.24h20.26V79.47H114.31V99.36l4.92,0Z"/><path class="fc2fdedf-be9d-4596-90c3-175c3e2f8386" d="M180.17,108.67a.85.85,0,0,1-.31-.06.84.84,0,0,1-.52-.77V101l-4.92,0h0a.78.78,0,0,1-.58-.24.83.83,0,0,1-.25-.59V78.64a.83.83,0,0,1,.83-.83h34.52a.83.83,0,0,1,.83.83v21.53a.83.83,0,0,1-.83.83H188.19l-7.43,7.43A.82.82,0,0,1,180.17,108.67Zm0-9.33a.82.82,0,0,1,.83.83v5.67l6.26-6.26a.83.83,0,0,1,.58-.24h20.27V79.47H175.25V99.36l4.92,0Z"/><path class="fc2fdedf-be9d-4596-90c3-175c3e2f8386" d="M241.11,108.67a.91.91,0,0,1-.32-.06.83.83,0,0,1-.51-.77V101l-4.92,0h0a.82.82,0,0,1-.59-.24.87.87,0,0,1-.24-.59V78.64a.83.83,0,0,1,.83-.83h34.51a.83.83,0,0,1,.83.83v21.53a.83.83,0,0,1-.83.83H249.12l-7.42,7.43A.82.82,0,0,1,241.11,108.67Zm0-9.33a.83.83,0,0,1,.58.24.83.83,0,0,1,.25.59v5.67l6.25-6.26a.87.87,0,0,1,.59-.24H269V79.47H236.19V99.36l4.92,0Z"/><path class="fc2fdedf-be9d-4596-90c3-175c3e2f8386" d="M-2.64,154.18a1,1,0,0,1-.32-.06.83.83,0,0,1-.51-.77v-6.83l-4.92,0h0a.83.83,0,0,1-.59-.25.83.83,0,0,1-.24-.58V124.15a.83.83,0,0,1,.83-.83H26.13a.83.83,0,0,1,.83.83v21.54a.83.83,0,0,1-.83.82H5.38L-2,153.94A.82.82,0,0,1-2.64,154.18Zm0-9.32a.82.82,0,0,1,.59.24.83.83,0,0,1,.24.59v5.66l6.26-6.25a.78.78,0,0,1,.58-.24H25.3V125H-7.56v19.89Z"/><path class="fc2fdedf-be9d-4596-90c3-175c3e2f8386" d="M58.3,154.18a.87.87,0,0,1-.32-.06.83.83,0,0,1-.51-.77v-6.83l-4.92,0h0a.83.83,0,0,1-.59-.25.78.78,0,0,1-.24-.58V124.15a.83.83,0,0,1,.83-.83H87.06a.83.83,0,0,1,.83.83v21.54a.83.83,0,0,1-.83.82H66.31l-7.42,7.43A.84.84,0,0,1,58.3,154.18Zm0-9.32a.78.78,0,0,1,.58.24.8.8,0,0,1,.25.59v5.66l6.25-6.25a.82.82,0,0,1,.59-.24H86.23V125H53.38v19.89Z"/><path class="fc2fdedf-be9d-4596-90c3-175c3e2f8386" d="M119.24,154.18a.87.87,0,0,1-.32-.06.83.83,0,0,1-.51-.77v-6.83l-4.92,0h0a.85.85,0,0,1-.83-.83V124.15a.83.83,0,0,1,.83-.83H148a.83.83,0,0,1,.83.83v21.54a.83.83,0,0,1-.83.82H127.25l-7.43,7.43A.82.82,0,0,1,119.24,154.18Zm0-9.32a.78.78,0,0,1,.58.24.8.8,0,0,1,.25.59v5.66l6.25-6.25a.82.82,0,0,1,.59-.24h20.26V125H114.31v19.89h4.93Z"/><path class="fc2fdedf-be9d-4596-90c3-175c3e2f8386" d="M180.17,154.18a.85.85,0,0,1-.31-.06.84.84,0,0,1-.52-.77v-6.83l-4.92,0h0a.85.85,0,0,1-.83-.83V124.15a.83.83,0,0,1,.83-.83h34.52a.83.83,0,0,1,.83.83v21.54a.83.83,0,0,1-.83.82H188.19l-7.43,7.43A.82.82,0,0,1,180.17,154.18Zm0-9.32a.82.82,0,0,1,.83.83v5.66l6.26-6.25a.78.78,0,0,1,.58-.24h20.27V125H175.25v19.89Z"/><path class="fc2fdedf-be9d-4596-90c3-175c3e2f8386" d="M241.11,154.18a.91.91,0,0,1-.32-.06.83.83,0,0,1-.51-.77v-6.83l-4.92,0h0a.83.83,0,0,1-.59-.25.83.83,0,0,1-.24-.58V124.15a.83.83,0,0,1,.83-.83h34.51a.83.83,0,0,1,.83.83v21.54a.83.83,0,0,1-.83.82H249.12l-7.42,7.43A.82.82,0,0,1,241.11,154.18Zm0-9.32a.78.78,0,0,1,.58.24.8.8,0,0,1,.25.59v5.66l6.25-6.25a.82.82,0,0,1,.59-.24H269V125H236.19v19.89Z"/><path class="fc2fdedf-be9d-4596-90c3-175c3e2f8386" d="M-2.64,199.7a.77.77,0,0,1-.32-.07.82.82,0,0,1-.51-.76V192l-4.92,0h0a.87.87,0,0,1-.59-.24.87.87,0,0,1-.24-.59V169.66a.83.83,0,0,1,.83-.83H26.13a.84.84,0,0,1,.83.83V191.2a.83.83,0,0,1-.83.83H5.38L-2,199.46A.87.87,0,0,1-2.64,199.7Zm0-9.33a.87.87,0,0,1,.59.24.87.87,0,0,1,.24.59v5.67l6.26-6.26a.83.83,0,0,1,.58-.24H25.3V170.49H-7.56v19.9l4.92,0Z"/><path class="fc2fdedf-be9d-4596-90c3-175c3e2f8386" d="M58.3,199.7a.71.71,0,0,1-.32-.07.82.82,0,0,1-.51-.76V192l-4.92,0h0a.87.87,0,0,1-.59-.24.82.82,0,0,1-.24-.59V169.66a.83.83,0,0,1,.83-.83H87.06a.83.83,0,0,1,.83.83V191.2a.83.83,0,0,1-.83.83H66.31l-7.42,7.43A.89.89,0,0,1,58.3,199.7Zm0-9.33a.83.83,0,0,1,.58.24.83.83,0,0,1,.25.59v5.67l6.25-6.26a.87.87,0,0,1,.59-.24H86.23V170.49H53.38v19.9l4.92,0Z"/><path class="fc2fdedf-be9d-4596-90c3-175c3e2f8386" d="M119.24,199.7a.71.71,0,0,1-.32-.07.82.82,0,0,1-.51-.76V192l-4.92,0h0a.83.83,0,0,1-.58-.24.83.83,0,0,1-.25-.59V169.66a.84.84,0,0,1,.83-.83H148a.83.83,0,0,1,.83.83V191.2a.83.83,0,0,1-.83.83H127.25l-7.43,7.43A.86.86,0,0,1,119.24,199.7Zm0-9.33a.83.83,0,0,1,.58.24.83.83,0,0,1,.25.59v5.67l6.25-6.26a.87.87,0,0,1,.59-.24h20.26V170.49H114.31v19.9l4.92,0Z"/><path class="fc2fdedf-be9d-4596-90c3-175c3e2f8386" d="M180.17,199.7a.7.7,0,0,1-.31-.07.83.83,0,0,1-.52-.76V192l-4.92,0h0a.83.83,0,0,1-.58-.24.83.83,0,0,1-.25-.59V169.66a.83.83,0,0,1,.83-.83h34.52a.84.84,0,0,1,.83.83V191.2a.83.83,0,0,1-.83.83H188.19l-7.43,7.43A.87.87,0,0,1,180.17,199.7Zm0-9.33a.82.82,0,0,1,.83.83v5.67l6.26-6.26a.83.83,0,0,1,.58-.24h20.27V170.49H175.25v19.9l4.92,0Z"/><path class="fc2fdedf-be9d-4596-90c3-175c3e2f8386" d="M241.11,199.7a.74.74,0,0,1-.32-.07.82.82,0,0,1-.51-.76V192l-4.92,0h0a.82.82,0,0,1-.83-.83V169.66a.83.83,0,0,1,.83-.83h34.51a.83.83,0,0,1,.83.83V191.2a.83.83,0,0,1-.83.83H249.12l-7.42,7.43A.87.87,0,0,1,241.11,199.7Zm0-9.33a.83.83,0,0,1,.58.24.83.83,0,0,1,.25.59v5.67l6.25-6.26a.87.87,0,0,1,.59-.24H269V170.49H236.19v19.9l4.92,0Z"/></g><g class="ae4f045a-689f-4d7a-83f3-f97df044a8e0"><path class="b4f19ef2-699e-40ad-80a9-665b996dc704" d="M250.61,10.46a.82.82,0,0,1-.58-.24L245,5.15H230.7a.83.83,0,0,1-.83-.83v-8a.83.83,0,0,1,.83-.83.83.83,0,0,1,.83.83V3.49H245.3a.85.85,0,0,1,.59.24l3.89,3.9V4.32a.83.83,0,0,1,.25-.59.63.63,0,0,1,.59-.24h3.15V-9.45H248a.83.83,0,0,1-.83-.83.83.83,0,0,1,.83-.83h6.64a.83.83,0,0,1,.83.83V4.33a.82.82,0,0,1-.25.59.69.69,0,0,1-.59.24h-3.15V9.63a.83.83,0,0,1-.51.77A.87.87,0,0,1,250.61,10.46Z"/><path class="b4f19ef2-699e-40ad-80a9-665b996dc704" d="M263.37,38.34h-6.64a.83.83,0,0,1-.83-.83V22.89a.82.82,0,0,1,.83-.83h3.15V17.59A.83.83,0,0,1,261.3,17l5.07,5.07h14.25a.83.83,0,0,1,.83.82v8a.83.83,0,1,1-1.65,0V23.73H266a.78.78,0,0,1-.58-.24l-3.9-3.89v3.3a.83.83,0,0,1-.24.59.78.78,0,0,1-.59.24h-3.15v13h5.81a.83.83,0,0,1,0,1.66Z"/><path class="b4f19ef2-699e-40ad-80a9-665b996dc704" d="M224.06,76.83a.85.85,0,0,1-.31-.06.84.84,0,0,1-.52-.76V71.53h-3.15a1.08,1.08,0,0,1-.58-.24.83.83,0,0,1-.25-.59V56.09a.83.83,0,0,1,.83-.83H244a.83.83,0,0,1,.83.83V70.7a.83.83,0,0,1-.83.82H229.72l-5.07,5.07A.82.82,0,0,1,224.06,76.83Zm0-7a.82.82,0,0,1,.59.24.79.79,0,0,1,.24.59V74l3.9-3.89a.78.78,0,0,1,.58-.24h13.78v-13H220.91v13Z"/><path class="b4f19ef2-699e-40ad-80a9-665b996dc704" d="M250.61,88.78a.82.82,0,0,1-.58-.24L245,83.47H230.7a.83.83,0,0,1-.83-.83v-8a.83.83,0,0,1,1.66,0v7.13H245.3a.82.82,0,0,1,.59.25L249.78,86V82.64a.85.85,0,0,1,.83-.83h3.16V68.87H248a.83.83,0,0,1,0-1.66h6.64a.83.83,0,0,1,.83.83V82.66a.79.79,0,0,1-.25.58,1.12,1.12,0,0,1-.59.25h-3.15V88a.83.83,0,0,1-.51.77A.87.87,0,0,1,250.61,88.78Z"/></g><g class="a8eda198-6e80-4142-87c4-b659ae4fcd57"><path class="b9ef79c4-6f73-4d0f-8872-639e25694068" d="M12,26.48a.74.74,0,0,1-.32-.07.82.82,0,0,1-.51-.76V18.81l-4.92,0a.94.94,0,0,1-.59-.24A.87.87,0,0,1,5.45,18V-3.56a.83.83,0,0,1,.83-.83H40.79a.83.83,0,0,1,.83.83V18a.83.83,0,0,1-.83.83H20l-7.42,7.43A.87.87,0,0,1,12,26.48Zm0-9.33a.82.82,0,0,1,.83.83v5.67l6.25-6.26a.87.87,0,0,1,.59-.24H40V-2.73H7.11v19.9l4.92,0Z"/><path class="b9ef79c4-6f73-4d0f-8872-639e25694068" d="M4.15,65H-30.37a.83.83,0,0,1-.83-.83V42.61a.83.83,0,0,1,.83-.83H-9.62l7.43-7.43a.85.85,0,0,1,.9-.18.84.84,0,0,1,.51.77v6.84l4.92,0h0a.83.83,0,0,1,.58.24.83.83,0,0,1,.25.59V64.15A.84.84,0,0,1,4.15,65Zm-33.69-1.66H3.32V43.42l-4.92,0h0a.83.83,0,0,1-.58-.24.83.83,0,0,1-.25-.59V36.94L-8.69,43.2a.85.85,0,0,1-.59.24H-29.54Z"/><path class="b9ef79c4-6f73-4d0f-8872-639e25694068" d="M12,104.8a.91.91,0,0,1-.32-.06.83.83,0,0,1-.51-.77V97.13l-4.92,0h0a.82.82,0,0,1-.59-.24.87.87,0,0,1-.24-.59V74.77a.83.83,0,0,1,.83-.83H40.79a.83.83,0,0,1,.83.83V96.3a.83.83,0,0,1-.83.83H20l-7.42,7.43A.82.82,0,0,1,12,104.8Zm0-9.33a.82.82,0,0,1,.83.83V102l6.25-6.26a.87.87,0,0,1,.59-.24H40V75.6H7.11V95.49l4.92,0Z"/><path class="b9ef79c4-6f73-4d0f-8872-639e25694068" d="M4.15,143.3H-30.37a.83.83,0,0,1-.83-.83V120.94a.83.83,0,0,1,.83-.83H-9.62l7.43-7.43a.82.82,0,0,1,.9-.18.83.83,0,0,1,.51.76v6.84l4.92,0a.78.78,0,0,1,.59.25.79.79,0,0,1,.25.58v21.56A.83.83,0,0,1,4.15,143.3Zm-33.69-1.66H3.32V121.75H-1.61a.78.78,0,0,1-.58-.24.79.79,0,0,1-.25-.58v-5.67l-6.25,6.25a.81.81,0,0,1-.59.24H-29.54Z"/><path class="b9ef79c4-6f73-4d0f-8872-639e25694068" d="M12,183.12a.91.91,0,0,1-.32-.06.83.83,0,0,1-.51-.77v-6.83l-4.92,0a.68.68,0,0,1-.59-.25.83.83,0,0,1-.24-.58V153.09a.83.83,0,0,1,.83-.83H40.79a.83.83,0,0,1,.83.83v21.54a.83.83,0,0,1-.83.83H20l-7.42,7.42A.82.82,0,0,1,12,183.12Zm0-9.32a.82.82,0,0,1,.83.83v5.66L19.11,174a.82.82,0,0,1,.59-.24H40V153.92H7.11v19.89Z"/></g></svg>