<svg id="b408e5b8-b4e6-4b3e-9e57-6873642aaad9" data-name="Layer 1" xmlns="http://www.w3.org/2000/svg" xmlns:xlink="http://www.w3.org/1999/xlink" viewBox="0 0 262 180"><defs><style>.a3bf0d43-b18d-49f3-ab17-05d0ac96e8ea{fill:none;}.f3c4b013-8bad-4121-84d1-31a222a36719{clip-path:url(#ab219854-48f3-4d5b-a371-85407f112999);}.a4429471-2b42-4cba-a421-dabd071e481d{fill:#4d4d4d;}.f021bc65-2925-459a-8458-359329d16bce{clip-path:url(#af5cd30f-0981-400e-8504-00fdc45caf12);}.f0e8672b-fdc9-486e-8769-e13db53e0484{clip-path:url(#fb9345a3-83b2-4e91-a4e3-4b0dcf42de48);}.b49ef7c0-ed45-426f-80f6-a42d3004255e{clip-path:url(#bedd7a88-af0f-49ab-8064-8e4368c05d78);}.b25e3cd0-3c9e-4d46-9731-1e241f869729{clip-path:url(#aa626c99-dd77-47c7-9a0c-876a91997052);}.af9cea24-1234-4676-9847-bd40b422918e{clip-path:url(#ea09710a-f987-45bb-806c-e5964c1fdaf1);}.a1eeeec4-6507-4b6c-9ed0-1cf2e6a11c74{clip-path:url(#bfd8e417-c043-4a11-bcc1-d3425f06d59f);}.ebb5ec87-6d86-4e7e-9c0a-fa773e2dbe32{clip-path:url(#bd849599-867a-4f0a-acfb-5b25da8e77d3);}.b5c163d2-9b69-454f-9078-91a44f84f7c2{clip-path:url(#befe497f-061a-4dcb-b230-be4dd37b9a60);}.e992a78d-6208-45d2-bb8f-bb511aea2dda{clip-path:url(#e862178d-494e-42db-be33-8fef47b709a3);}.fa2b5744-4d12-40a3-aa44-a40f2655db17{clip-path:url(#f69ed640-b83a-42c8-8a75-dda050c21ba3);}.bb4ef9c6-3332-4112-868c-99e4ac836506{clip-path:url(#beef90b0-f75c-4a44-99ce-3bc871c2a8cb);}.b384de2b-43ad-4268-9395-bc486971c0ea{clip-path:url(#f7144833-7af9-4206-a922-77ba2cf26a94);}.b12bfa57-7edf-46a5-99d8-b500cb459dfd{clip-path:url(#fc2d5de5-6220-4a60-905d-c2633473718e);}.fee7358f-9a53-4604-85db-edee5d5961df{clip-path:url(#a7973b37-0ee9-4b0a-a578-1bf0815c7483);}.aa10663d-c1dc-4d03-b993-e296d8dff48c{clip-path:url(#a3354e4b-4cfd-4799-be3b-6d55cd320162);}.b618c1d5-3852-447e-b6f3-902445043c5a{clip-path:url(#e04f3508-fb1f-4716-8846-257ee378d253);}.eed2c097-f5aa-4be1-b76d-273217720eae{clip-path:url(#ba268f11-2968-4ffb-95c9-540ba75311c1);}.a1190337-a0a3-4435-bb62-40fe87ad2c61{clip-path:url(#f790986c-1a7e-4702-a1f8-4f894ae3a6ec);}.a674a349-be17-40d4-bf49-f97961f398d0{clip-path:url(#aed3bd24-32a3-4856-a572-51d4b30abab1);}.f957bfb5-20df-40b3-a49b-dd23339f8ffc{clip-path:url(#a858a722-29e1-416e-8376-a06938828366);}.eb5f6829-146c-40ea-bef9-54f430d30b2f{clip-path:url(#ba755e4c-1925-4c5a-8dcd-88de23c0f910);}.b37ba907-1780-4104-9d7f-7fb81e3cd907{clip-path:url(#adb37fbe-0ed2-450d-8987-fae58c3b6b9c);}.a8439097-317b-41ad-9ab3-3386dc006ed4{clip-path:url(#a4df4b52-7fc4-4201-a2ed-4d1b19c74495);}.f3118803-65a7-4aff-9402-502083070d47{clip-path:url(#a3b27f76-c0af-4b11-8fa2-7369a7fb8d40);}.fd2dba04-9d35-43b6-9f10-c934c50f653e{clip-path:url(#bbd9c658-c961-4cdc-b4cd-64354d8f83cd);}.aa1a4b7e-9e21-4292-a155-c4df86f36f3c{clip-path:url(#f2aba45c-c6a2-479b-8019-c1e64ff919e0);}.bc72adb6-7fc4-4690-9e5a-74d2bc617e42{clip-path:url(#a0a6c801-2bf3-4e0e-beb6-fa11e0df5300);}.a822d4a1-f60c-4f01-b05c-da777911d2b6{clip-path:url(#bc9b3764-df40-4328-b37d-a935ca9e14e2);}.bb7900c1-eec2-4b23-84cd-7d471303c23c{clip-path:url(#b4322f61-71ba-4e83-812a-16b30594da03);}.acfd83dc-497c-4bff-9f70-6b6049ad1763{clip-path:url(#f578f4ca-5586-42c2-93fe-f406c6df0461);}.addb6ae8-ad82-4a55-80f9-a3c5d5aeae69{clip-path:url(#ff069a39-b6d8-4a29-b35d-f09b7f200aea);}.a5861005-f861-4517-a796-a5338f47fc54{clip-path:url(#fe3dbd46-ff04-476b-89f6-d73f33eed80d);}.f73b2ae9-0fd2-42cd-8cdb-1f4ddf8e3eea{clip-path:url(#abe60d78-34e2-4535-8de8-969d94af48e3);}.a02a7a10-3e9f-451d-b10c-39d73090fa4d{clip-path:url(#a2e3108f-ce30-4307-adbc-7567aea54c1c);}.ba861661-ceda-4420-87d1-36da570e95f6{clip-path:url(#eab21506-4372-4be5-88fa-ec53c303753c);}.e783ea3b-03a7-421f-a924-8d9539cd00da{clip-path:url(#f4821734-02ed-4347-a5a5-5065b7571aee);}.ecb4548b-5546-4e0f-8751-5f0266180dc6{clip-path:url(#e3600e39-7020-4bfe-ab59-c0350c49893f);}.f485fd47-647c-4483-8cb5-2539dbdf8510{clip-path:url(#b9a58a9d-a98b-4ca5-9b74-4548118d6879);}.f0d976d2-0716-48bb-8f02-88e872895c29{clip-path:url(#b2c14bca-d78f-4bef-be1b-6c164375488f);}.fd999e8e-5d8c-4e9b-8b93-579b33a50097{clip-path:url(#f3d8f9a2-7d70-46f5-b211-86de6587a916);}.f2bc89f0-91de-4a05-9101-d73df0f9e7b9{clip-path:url(#a08d5e99-335b-4477-bf0c-aa35d9c07366);}.afdcd583-b5e6-4291-9789-6d7bad24a3f2{fill:#e00;}</style><clipPath id="ab219854-48f3-4d5b-a371-85407f112999"><rect class="a3bf0d43-b18d-49f3-ab17-05d0ac96e8ea" width="262" height="180"/></clipPath><clipPath id="af5cd30f-0981-400e-8504-00fdc45caf12"><polygon class="a3bf0d43-b18d-49f3-ab17-05d0ac96e8ea" points="65.67 52.07 97.84 33.47 97.84 70.12 66.1 88.44 65.67 52.07"/></clipPath><clipPath id="fb9345a3-83b2-4e91-a4e3-4b0dcf42de48"><rect class="a3bf0d43-b18d-49f3-ab17-05d0ac96e8ea" x="91.85" y="32.26" width="15.12" height="15.12"/></clipPath><clipPath id="bedd7a88-af0f-49ab-8064-8e4368c05d78"><rect class="a3bf0d43-b18d-49f3-ab17-05d0ac96e8ea" x="91.85" y="47.38" width="15.12" height="15.12"/></clipPath><clipPath id="aa626c99-dd77-47c7-9a0c-876a91997052"><rect class="a3bf0d43-b18d-49f3-ab17-05d0ac96e8ea" x="91.85" y="62.5" width="15.12" height="15.12"/></clipPath><clipPath id="ea09710a-f987-45bb-806c-e5964c1fdaf1"><rect class="a3bf0d43-b18d-49f3-ab17-05d0ac96e8ea" x="91.85" y="77.63" width="15.12" height="15.12"/></clipPath><clipPath id="bfd8e417-c043-4a11-bcc1-d3425f06d59f"><rect class="a3bf0d43-b18d-49f3-ab17-05d0ac96e8ea" x="76.73" y="32.26" width="15.12" height="15.12"/></clipPath><clipPath id="bd849599-867a-4f0a-acfb-5b25da8e77d3"><rect class="a3bf0d43-b18d-49f3-ab17-05d0ac96e8ea" x="76.73" y="47.38" width="15.12" height="15.12"/></clipPath><clipPath id="befe497f-061a-4dcb-b230-be4dd37b9a60"><rect class="a3bf0d43-b18d-49f3-ab17-05d0ac96e8ea" x="76.73" y="62.5" width="15.12" height="15.12"/></clipPath><clipPath id="e862178d-494e-42db-be33-8fef47b709a3"><rect class="a3bf0d43-b18d-49f3-ab17-05d0ac96e8ea" x="76.73" y="77.63" width="15.12" height="15.12"/></clipPath><clipPath id="f69ed640-b83a-42c8-8a75-dda050c21ba3"><rect class="a3bf0d43-b18d-49f3-ab17-05d0ac96e8ea" x="61.61" y="32.26" width="15.12" height="15.12"/></clipPath><clipPath id="beef90b0-f75c-4a44-99ce-3bc871c2a8cb"><rect class="a3bf0d43-b18d-49f3-ab17-05d0ac96e8ea" x="61.61" y="47.38" width="15.12" height="15.12"/></clipPath><clipPath id="f7144833-7af9-4206-a922-77ba2cf26a94"><rect class="a3bf0d43-b18d-49f3-ab17-05d0ac96e8ea" x="61.61" y="62.5" width="15.12" height="15.12"/></clipPath><clipPath id="fc2d5de5-6220-4a60-905d-c2633473718e"><rect class="a3bf0d43-b18d-49f3-ab17-05d0ac96e8ea" x="61.61" y="77.63" width="15.12" height="15.12"/></clipPath><clipPath id="a7973b37-0ee9-4b0a-a578-1bf0815c7483"><polygon class="a3bf0d43-b18d-49f3-ab17-05d0ac96e8ea" points="194.18 52.07 226.35 33.47 226.35 70.12 194.61 88.44 194.18 52.07"/></clipPath><clipPath id="a3354e4b-4cfd-4799-be3b-6d55cd320162"><rect class="a3bf0d43-b18d-49f3-ab17-05d0ac96e8ea" x="212.83" y="32.26" width="15.12" height="15.12"/></clipPath><clipPath id="e04f3508-fb1f-4716-8846-257ee378d253"><rect class="a3bf0d43-b18d-49f3-ab17-05d0ac96e8ea" x="212.83" y="47.38" width="15.12" height="15.12"/></clipPath><clipPath id="ba268f11-2968-4ffb-95c9-540ba75311c1"><rect class="a3bf0d43-b18d-49f3-ab17-05d0ac96e8ea" x="212.83" y="62.5" width="15.12" height="15.12"/></clipPath><clipPath id="f790986c-1a7e-4702-a1f8-4f894ae3a6ec"><rect class="a3bf0d43-b18d-49f3-ab17-05d0ac96e8ea" x="212.83" y="77.63" width="15.12" height="15.12"/></clipPath><clipPath id="aed3bd24-32a3-4856-a572-51d4b30abab1"><rect class="a3bf0d43-b18d-49f3-ab17-05d0ac96e8ea" x="197.7" y="32.26" width="15.12" height="15.12"/></clipPath><clipPath id="a858a722-29e1-416e-8376-a06938828366"><rect class="a3bf0d43-b18d-49f3-ab17-05d0ac96e8ea" x="197.7" y="47.38" width="15.12" height="15.12"/></clipPath><clipPath id="ba755e4c-1925-4c5a-8dcd-88de23c0f910"><rect class="a3bf0d43-b18d-49f3-ab17-05d0ac96e8ea" x="197.7" y="62.5" width="15.12" height="15.12"/></clipPath><clipPath id="adb37fbe-0ed2-450d-8987-fae58c3b6b9c"><rect class="a3bf0d43-b18d-49f3-ab17-05d0ac96e8ea" x="197.7" y="77.63" width="15.12" height="15.12"/></clipPath><clipPath id="a4df4b52-7fc4-4201-a2ed-4d1b19c74495"><rect class="a3bf0d43-b18d-49f3-ab17-05d0ac96e8ea" x="182.58" y="32.26" width="15.12" height="15.12"/></clipPath><clipPath id="a3b27f76-c0af-4b11-8fa2-7369a7fb8d40"><rect class="a3bf0d43-b18d-49f3-ab17-05d0ac96e8ea" x="182.58" y="47.38" width="15.12" height="15.12"/></clipPath><clipPath id="bbd9c658-c961-4cdc-b4cd-64354d8f83cd"><rect class="a3bf0d43-b18d-49f3-ab17-05d0ac96e8ea" x="182.58" y="62.5" width="15.12" height="15.12"/></clipPath><clipPath id="f2aba45c-c6a2-479b-8019-c1e64ff919e0"><rect class="a3bf0d43-b18d-49f3-ab17-05d0ac96e8ea" x="182.58" y="77.63" width="15.12" height="15.12"/></clipPath><clipPath id="a0a6c801-2bf3-4e0e-beb6-fa11e0df5300"><polygon class="a3bf0d43-b18d-49f3-ab17-05d0ac96e8ea" points="65.67 177.85 97.84 159.25 97.84 195.9 66.1 214.22 65.67 177.85"/></clipPath><clipPath id="bc9b3764-df40-4328-b37d-a935ca9e14e2"><rect class="a3bf0d43-b18d-49f3-ab17-05d0ac96e8ea" x="91.85" y="153.24" width="15.12" height="15.12"/></clipPath><clipPath id="b4322f61-71ba-4e83-812a-16b30594da03"><rect class="a3bf0d43-b18d-49f3-ab17-05d0ac96e8ea" x="91.85" y="168.36" width="15.12" height="15.12"/></clipPath><clipPath id="f578f4ca-5586-42c2-93fe-f406c6df0461"><rect class="a3bf0d43-b18d-49f3-ab17-05d0ac96e8ea" x="76.73" y="153.24" width="15.12" height="15.12"/></clipPath><clipPath id="ff069a39-b6d8-4a29-b35d-f09b7f200aea"><rect class="a3bf0d43-b18d-49f3-ab17-05d0ac96e8ea" x="76.73" y="168.36" width="15.12" height="15.12"/></clipPath><clipPath id="fe3dbd46-ff04-476b-89f6-d73f33eed80d"><rect class="a3bf0d43-b18d-49f3-ab17-05d0ac96e8ea" x="61.61" y="153.24" width="15.12" height="15.12"/></clipPath><clipPath id="abe60d78-34e2-4535-8de8-969d94af48e3"><rect class="a3bf0d43-b18d-49f3-ab17-05d0ac96e8ea" x="61.61" y="168.36" width="15.12" height="15.12"/></clipPath><clipPath id="a2e3108f-ce30-4307-adbc-7567aea54c1c"><polygon class="a3bf0d43-b18d-49f3-ab17-05d0ac96e8ea" points="194.18 177.85 226.35 159.25 226.35 195.9 194.61 214.22 194.18 177.85"/></clipPath><clipPath id="eab21506-4372-4be5-88fa-ec53c303753c"><rect class="a3bf0d43-b18d-49f3-ab17-05d0ac96e8ea" x="212.83" y="153.24" width="15.12" height="15.12"/></clipPath><clipPath id="f4821734-02ed-4347-a5a5-5065b7571aee"><rect class="a3bf0d43-b18d-49f3-ab17-05d0ac96e8ea" x="212.83" y="168.36" width="15.12" height="15.12"/></clipPath><clipPath id="e3600e39-7020-4bfe-ab59-c0350c49893f"><rect class="a3bf0d43-b18d-49f3-ab17-05d0ac96e8ea" x="197.7" y="153.24" width="15.12" height="15.12"/></clipPath><clipPath id="b9a58a9d-a98b-4ca5-9b74-4548118d6879"><rect class="a3bf0d43-b18d-49f3-ab17-05d0ac96e8ea" x="197.7" y="168.36" width="15.12" height="15.12"/></clipPath><clipPath id="b2c14bca-d78f-4bef-be1b-6c164375488f"><rect class="a3bf0d43-b18d-49f3-ab17-05d0ac96e8ea" x="182.58" y="153.24" width="15.12" height="15.12"/></clipPath><clipPath id="f3d8f9a2-7d70-46f5-b211-86de6587a916"><rect class="a3bf0d43-b18d-49f3-ab17-05d0ac96e8ea" x="182.58" y="168.36" width="15.12" height="15.12"/></clipPath><clipPath id="a08d5e99-335b-4477-bf0c-aa35d9c07366"><rect class="a3bf0d43-b18d-49f3-ab17-05d0ac96e8ea" x="-283" width="262" height="180"/></clipPath></defs><g class="f3c4b013-8bad-4121-84d1-31a222a36719"><path class="a4429471-2b42-4cba-a421-dabd071e481d" d="M19.57,8.67H-14.95a.83.83,0,0,1-.83-.83V-26.68a.83.83,0,0,1,.83-.83H19.57a.83.83,0,0,1,.83.83V7.84A.83.83,0,0,1,19.57,8.67ZM-14.12,7H18.74V-25.85H-14.12Z"/><path class="a4429471-2b42-4cba-a421-dabd071e481d" d="M14.25,2a.82.82,0,0,1-.82-.82A.56.56,0,0,1,13.5.89a.73.73,0,0,1,.17-.28.89.89,0,0,1,1.18,0A.88.88,0,0,1,15,.89a.79.79,0,0,1,.07.32.82.82,0,0,1-.24.58.75.75,0,0,1-.28.18A.66.66,0,0,1,14.25,2Z"/><path class="a4429471-2b42-4cba-a421-dabd071e481d" d="M148,8.67H113.49a.83.83,0,0,1-.83-.83V-26.68a.83.83,0,0,1,.83-.83H148a.84.84,0,0,1,.83.83V7.84A.83.83,0,0,1,148,8.67ZM114.32,7h32.86V-25.85H114.32Z"/><path class="a4429471-2b42-4cba-a421-dabd071e481d" d="M126.76,2h-8a.83.83,0,1,1,0-1.65h8a.83.83,0,1,1,0,1.65Z"/><path class="a4429471-2b42-4cba-a421-dabd071e481d" d="M142.69,2a.8.8,0,0,1-.58-.24.82.82,0,0,1-.24-.58.66.66,0,0,1,.06-.32.64.64,0,0,1,.18-.28.89.89,0,0,1,1.18,0,1.1,1.1,0,0,1,.17.28.79.79,0,0,1,.07.32.82.82,0,0,1-.24.58A.84.84,0,0,1,143,2,.68.68,0,0,1,142.69,2Z"/><path class="a4429471-2b42-4cba-a421-dabd071e481d" d="M276.44,8.67H241.92a.83.83,0,0,1-.83-.83V-26.68a.84.84,0,0,1,.83-.83h34.52a.83.83,0,0,1,.83.83V7.84A.83.83,0,0,1,276.44,8.67ZM242.75,7h32.86V-25.85H242.75Z"/><path class="a4429471-2b42-4cba-a421-dabd071e481d" d="M255.2,2h-8a.83.83,0,0,1-.83-.83.83.83,0,0,1,.83-.82h8a.83.83,0,1,1,0,1.65Z"/><path class="a4429471-2b42-4cba-a421-dabd071e481d" d="M66.53,8.67A15.45,15.45,0,0,1,51.1-6.76V-23.57a.83.83,0,0,1,.65-.81l14.61-3.11a1,1,0,0,1,.34,0l14.61,3.11a.83.83,0,0,1,.65.81V-6.76A15.45,15.45,0,0,1,66.53,8.67ZM52.76-22.9V-6.76A13.78,13.78,0,0,0,66.53,7,13.79,13.79,0,0,0,80.3-6.76V-22.9L66.53-25.83Z"/><path class="a4429471-2b42-4cba-a421-dabd071e481d" d="M2.31,70.22A15.45,15.45,0,0,1-13.12,54.79V38a.84.84,0,0,1,.66-.82l14.6-3.1a1,1,0,0,1,.34,0l14.61,3.1a.85.85,0,0,1,.66.82V54.79A15.45,15.45,0,0,1,2.31,70.22ZM-11.46,38.65V54.79A13.79,13.79,0,0,0,2.31,68.56,13.79,13.79,0,0,0,16.09,54.79V38.65L2.31,35.72Z"/><path class="a4429471-2b42-4cba-a421-dabd071e481d" d="M.43,56a.86.86,0,0,1-.59-.24L-3,52.89a.83.83,0,0,1,0-1.17.83.83,0,0,1,1.18,0L1,54.54a.83.83,0,0,1,0,1.17A.84.84,0,0,1,.43,56Z"/><path class="a4429471-2b42-4cba-a421-dabd071e481d" d="M.43,56a.86.86,0,0,1-.59-.24.82.82,0,0,1,0-1.17L6.42,48A.83.83,0,1,1,7.6,49.13L1,55.71A.84.84,0,0,1,.43,56Z"/><path class="a4429471-2b42-4cba-a421-dabd071e481d" d="M130.75,70.22a15.45,15.45,0,0,1-15.44-15.43V38a.85.85,0,0,1,.66-.82l14.61-3.1a1,1,0,0,1,.34,0l14.6,3.1a.84.84,0,0,1,.66.82V54.79A15.45,15.45,0,0,1,130.75,70.22ZM117,38.65V54.79a13.78,13.78,0,0,0,27.55,0V38.65l-13.77-2.93Z"/><path class="a4429471-2b42-4cba-a421-dabd071e481d" d="M128.87,56a.84.84,0,0,1-.59-.24l-2.82-2.82a.83.83,0,0,1,1.18-1.17l2.82,2.82a.83.83,0,0,1,0,1.17A.86.86,0,0,1,128.87,56Z"/><path class="a4429471-2b42-4cba-a421-dabd071e481d" d="M128.87,56a.83.83,0,0,1-.59-1.41L134.86,48A.83.83,0,0,1,136,49.13l-6.57,6.58A.86.86,0,0,1,128.87,56Z"/><path class="a4429471-2b42-4cba-a421-dabd071e481d" d="M259.18,70.22a15.45,15.45,0,0,1-15.43-15.43V38a.84.84,0,0,1,.66-.82l14.6-3.1a1,1,0,0,1,.35,0l14.6,3.1a.85.85,0,0,1,.66.82V54.79A15.45,15.45,0,0,1,259.18,70.22ZM245.41,38.65V54.79a13.78,13.78,0,0,0,27.55,0V38.65l-13.78-2.93Z"/><path class="a4429471-2b42-4cba-a421-dabd071e481d" d="M257.3,56a.82.82,0,0,1-.58-.24l-2.82-2.82a.83.83,0,0,1,1.17-1.17l2.82,2.82a.83.83,0,0,1,0,1.17A.82.82,0,0,1,257.3,56Z"/><path class="a4429471-2b42-4cba-a421-dabd071e481d" d="M257.3,56a.83.83,0,0,1-.58-1.41L263.3,48a.82.82,0,0,1,1.17,0,.83.83,0,0,1,0,1.17l-6.58,6.58A.82.82,0,0,1,257.3,56Z"/><path class="a4429471-2b42-4cba-a421-dabd071e481d" d="M195,8.67A15.45,15.45,0,0,1,179.53-6.76V-23.57a.83.83,0,0,1,.66-.81l14.6-3.11a1,1,0,0,1,.35,0l14.6,3.11a.82.82,0,0,1,.66.81V-6.76A15.45,15.45,0,0,1,195,8.67ZM181.19-22.9V-6.76A13.79,13.79,0,0,0,195,7,13.79,13.79,0,0,0,208.74-6.76V-22.9L195-25.83Z"/><path class="a4429471-2b42-4cba-a421-dabd071e481d" d="M19.57,131.77H-14.95a.83.83,0,0,1-.83-.83V96.42a.83.83,0,0,1,.83-.83H19.57a.83.83,0,0,1,.83.83v34.52A.83.83,0,0,1,19.57,131.77Zm-33.69-1.66H18.74V97.25H-14.12Z"/><path class="a4429471-2b42-4cba-a421-dabd071e481d" d="M14.27,103.89a.66.66,0,0,1-.32-.07.73.73,0,0,1-.28-.17.77.77,0,0,1-.17-.27.87.87,0,0,1-.07-.31.79.79,0,0,1,.07-.32.88.88,0,0,1,.17-.28.86.86,0,0,1,1.18,0,.88.88,0,0,1,.17.28.79.79,0,0,1,.07.32.82.82,0,0,1-.24.58.73.73,0,0,1-.28.17A.63.63,0,0,1,14.27,103.89Z"/><path class="a4429471-2b42-4cba-a421-dabd071e481d" d="M14.25,125.13a.82.82,0,0,1-.82-.82.56.56,0,0,1,.07-.32.73.73,0,0,1,.17-.28.86.86,0,0,1,1.18,0A.88.88,0,0,1,15,124a.79.79,0,0,1,.07.32.82.82,0,0,1-.24.58.62.62,0,0,1-.28.17A.56.56,0,0,1,14.25,125.13Z"/><path class="a4429471-2b42-4cba-a421-dabd071e481d" d="M14.27,114.51a.79.79,0,0,1-.32-.07.73.73,0,0,1-.28-.17.77.77,0,0,1-.17-.27.79.79,0,0,1,.45-1.08.83.83,0,0,1,.62,0A.8.8,0,0,1,15,114a.77.77,0,0,1-.17.27A.82.82,0,0,1,14.27,114.51Z"/><path class="a4429471-2b42-4cba-a421-dabd071e481d" d="M148,131.77H113.49a.83.83,0,0,1-.83-.83V96.42a.83.83,0,0,1,.83-.83H148a.83.83,0,0,1,.83.83v34.52A.83.83,0,0,1,148,131.77Zm-33.69-1.66h32.86V97.25H114.32Z"/><path class="a4429471-2b42-4cba-a421-dabd071e481d" d="M126.76,103.89h-8a.83.83,0,1,1,0-1.66h8a.83.83,0,1,1,0,1.66Z"/><path class="a4429471-2b42-4cba-a421-dabd071e481d" d="M142.7,103.89a.68.68,0,0,1-.32-.07.69.69,0,0,1-.27-.17.68.68,0,0,1-.18-.27.85.85,0,0,1-.06-.31.79.79,0,0,1,.06-.32.9.9,0,0,1,.18-.28.86.86,0,0,1,1.18,0,1.1,1.1,0,0,1,.17.28.79.79,0,0,1,.07.32.77.77,0,0,1-.52.75A.67.67,0,0,1,142.7,103.89Z"/><path class="a4429471-2b42-4cba-a421-dabd071e481d" d="M126.76,125.13h-8a.83.83,0,0,1,0-1.66h8a.83.83,0,0,1,0,1.66Z"/><path class="a4429471-2b42-4cba-a421-dabd071e481d" d="M142.69,125.13a.8.8,0,0,1-.58-.24.82.82,0,0,1-.24-.58.66.66,0,0,1,.06-.32.64.64,0,0,1,.18-.28.86.86,0,0,1,1.18,0,1.1,1.1,0,0,1,.17.28.79.79,0,0,1,.07.32.82.82,0,0,1-.24.58.68.68,0,0,1-.28.17A.58.58,0,0,1,142.69,125.13Z"/><path class="a4429471-2b42-4cba-a421-dabd071e481d" d="M126.76,114.51h-8a.83.83,0,0,1,0-1.66h8a.83.83,0,1,1,0,1.66Z"/><path class="a4429471-2b42-4cba-a421-dabd071e481d" d="M142.7,114.51a.83.83,0,0,1-.32-.07.69.69,0,0,1-.27-.17.68.68,0,0,1-.18-.27.85.85,0,0,1-.06-.31.87.87,0,0,1,.24-.6.83.83,0,0,1,.27-.17.86.86,0,0,1,.63,0,1,1,0,0,1,.28.17.92.92,0,0,1,.24.6.87.87,0,0,1-.07.31.77.77,0,0,1-.17.27A.84.84,0,0,1,142.7,114.51Z"/><path class="a4429471-2b42-4cba-a421-dabd071e481d" d="M276.44,131.77H241.92a.83.83,0,0,1-.83-.83V96.42a.83.83,0,0,1,.83-.83h34.52a.83.83,0,0,1,.83.83v34.52A.83.83,0,0,1,276.44,131.77Zm-33.69-1.66h32.86V97.25H242.75Z"/><path class="a4429471-2b42-4cba-a421-dabd071e481d" d="M255.2,103.89h-8a.83.83,0,1,1,0-1.66h8a.83.83,0,0,1,0,1.66Z"/><path class="a4429471-2b42-4cba-a421-dabd071e481d" d="M255.2,125.13h-8a.83.83,0,1,1,0-1.66h8a.83.83,0,0,1,0,1.66Z"/><path class="a4429471-2b42-4cba-a421-dabd071e481d" d="M255.2,114.51h-8a.83.83,0,1,1,0-1.66h8a.83.83,0,1,1,0,1.66Z"/><path class="a4429471-2b42-4cba-a421-dabd071e481d" d="M66.53,131.77A15.45,15.45,0,0,1,51.1,116.34V99.53a.84.84,0,0,1,.65-.82l14.61-3.1a1,1,0,0,1,.34,0l14.61,3.1a.84.84,0,0,1,.65.82v16.81A15.45,15.45,0,0,1,66.53,131.77ZM52.76,100.2v16.14a13.77,13.77,0,1,0,27.54,0V100.2L66.53,97.27Z"/><path class="a4429471-2b42-4cba-a421-dabd071e481d" d="M64.65,117.5a.84.84,0,0,1-.59-.24l-2.82-2.82a.83.83,0,1,1,1.18-1.17l2.82,2.82a.83.83,0,0,1-.59,1.41Z"/><path class="a4429471-2b42-4cba-a421-dabd071e481d" d="M64.65,117.5a.83.83,0,0,1-.59-1.41l6.58-6.58a.83.83,0,0,1,1.18,1.17l-6.58,6.58A.84.84,0,0,1,64.65,117.5Z"/><path class="a4429471-2b42-4cba-a421-dabd071e481d" d="M195,131.77a15.45,15.45,0,0,1-15.44-15.43V99.53a.85.85,0,0,1,.66-.82l14.6-3.1a1,1,0,0,1,.35,0l14.6,3.1a.83.83,0,0,1,.66.82v16.81A15.45,15.45,0,0,1,195,131.77ZM181.19,100.2v16.14a13.78,13.78,0,0,0,27.55,0V100.2L195,97.27Z"/><path class="a4429471-2b42-4cba-a421-dabd071e481d" d="M193.09,117.5a.82.82,0,0,1-.59-.24l-2.82-2.82a.83.83,0,0,1,0-1.17.82.82,0,0,1,1.17,0l2.82,2.82a.83.83,0,0,1-.58,1.41Z"/><path class="a4429471-2b42-4cba-a421-dabd071e481d" d="M193.09,117.5a.82.82,0,0,1-.59-.24.83.83,0,0,1,0-1.17l6.58-6.58a.83.83,0,1,1,1.17,1.17l-6.58,6.58A.82.82,0,0,1,193.09,117.5Z"/><path class="a4429471-2b42-4cba-a421-dabd071e481d" d="M2.31,194.23a15.45,15.45,0,0,1-15.43-15.44V162a.82.82,0,0,1,.66-.81l14.6-3.11a1,1,0,0,1,.34,0l14.61,3.11a.83.83,0,0,1,.66.81v16.81A15.46,15.46,0,0,1,2.31,194.23Zm-13.77-31.58v16.14A13.79,13.79,0,0,0,2.31,192.57a13.79,13.79,0,0,0,13.78-13.78V162.65L2.31,159.72Z"/><path class="a4429471-2b42-4cba-a421-dabd071e481d" d="M.43,180a.83.83,0,0,1-.59-.25L-3,176.89a.83.83,0,0,1,0-1.17.85.85,0,0,1,1.18,0L1,178.54a.83.83,0,0,1,0,1.17A.81.81,0,0,1,.43,180Z"/><path class="a4429471-2b42-4cba-a421-dabd071e481d" d="M.43,180a.83.83,0,0,1-.59-.25.82.82,0,0,1,0-1.17L6.42,172a.83.83,0,0,1,1.18,1.18L1,179.71A.81.81,0,0,1,.43,180Z"/><path class="a4429471-2b42-4cba-a421-dabd071e481d" d="M130.75,194.23a15.46,15.46,0,0,1-15.44-15.44V162a.83.83,0,0,1,.66-.81l14.61-3.11a1,1,0,0,1,.34,0l14.6,3.11a.82.82,0,0,1,.66.81v16.81A15.45,15.45,0,0,1,130.75,194.23ZM117,162.65v16.14a13.78,13.78,0,1,0,27.55,0V162.65l-13.77-2.93Z"/><path class="a4429471-2b42-4cba-a421-dabd071e481d" d="M128.87,180a.81.81,0,0,1-.59-.25l-2.82-2.82a.83.83,0,0,1,0-1.17.85.85,0,0,1,1.18,0l2.82,2.82a.84.84,0,0,1-.59,1.42Z"/><path class="a4429471-2b42-4cba-a421-dabd071e481d" d="M128.87,180a.81.81,0,0,1-.59-.25.83.83,0,0,1,0-1.17l6.58-6.58a.83.83,0,0,1,1.17,1.18l-6.57,6.57A.83.83,0,0,1,128.87,180Z"/><path class="a4429471-2b42-4cba-a421-dabd071e481d" d="M259.18,194.23a15.45,15.45,0,0,1-15.43-15.44V162a.82.82,0,0,1,.66-.81l14.6-3.11a1,1,0,0,1,.35,0l14.6,3.11a.83.83,0,0,1,.66.81v16.81A15.46,15.46,0,0,1,259.18,194.23Zm-13.77-31.58v16.14a13.78,13.78,0,1,0,27.55,0V162.65l-13.78-2.93Z"/><path class="a4429471-2b42-4cba-a421-dabd071e481d" d="M257.3,180a.79.79,0,0,1-.58-.25l-2.82-2.82a.82.82,0,0,1,0-1.17.83.83,0,0,1,1.17,0l2.82,2.82a.83.83,0,0,1,0,1.17A.79.79,0,0,1,257.3,180Z"/><path class="a4429471-2b42-4cba-a421-dabd071e481d" d="M257.3,180a.79.79,0,0,1-.58-.25.82.82,0,0,1,0-1.17L263.3,172a.83.83,0,0,1,1.17,0,.85.85,0,0,1,0,1.18l-6.58,6.57A.79.79,0,0,1,257.3,180Z"/><g class="f021bc65-2925-459a-8458-359329d16bce"><g class="f0e8672b-fdc9-486e-8769-e13db53e0484"><path class="a4429471-2b42-4cba-a421-dabd071e481d" d="M107,48.14a.76.76,0,0,0,.76-.76.75.75,0,0,0-.76-.75.74.74,0,0,0-.75.75A.75.75,0,0,0,107,48.14Z"/><path class="a4429471-2b42-4cba-a421-dabd071e481d" d="M99.41,48.14a.76.76,0,0,0,.76-.76.75.75,0,0,0-.76-.75.74.74,0,0,0-.75.75A.75.75,0,0,0,99.41,48.14Z"/><path class="a4429471-2b42-4cba-a421-dabd071e481d" d="M107,40.58a.76.76,0,1,0,0-1.52.76.76,0,0,0,0,1.52Z"/><path class="a4429471-2b42-4cba-a421-dabd071e481d" d="M99.41,40.58a.76.76,0,1,0,0-1.52.76.76,0,0,0,0,1.52Z"/><path class="a4429471-2b42-4cba-a421-dabd071e481d" d="M95.63,44.36a.76.76,0,1,0-.76-.76A.76.76,0,0,0,95.63,44.36Z"/><path class="a4429471-2b42-4cba-a421-dabd071e481d" d="M103.19,44.36a.76.76,0,1,0,0-1.52.76.76,0,0,0,0,1.52Z"/><path class="a4429471-2b42-4cba-a421-dabd071e481d" d="M95.63,36.8a.76.76,0,1,0-.76-.76A.76.76,0,0,0,95.63,36.8Z"/><path class="a4429471-2b42-4cba-a421-dabd071e481d" d="M103.19,36.8a.76.76,0,1,0,0-1.52.76.76,0,0,0,0,1.52Z"/><path class="a4429471-2b42-4cba-a421-dabd071e481d" d="M91.85,48.14a.76.76,0,0,0,.76-.76.76.76,0,0,0-1.52,0A.76.76,0,0,0,91.85,48.14Z"/><path class="a4429471-2b42-4cba-a421-dabd071e481d" d="M91.85,40.58a.76.76,0,1,0-.76-.76A.76.76,0,0,0,91.85,40.58Z"/><path class="a4429471-2b42-4cba-a421-dabd071e481d" d="M107,33a.76.76,0,1,0,0-1.52A.76.76,0,0,0,107,33Z"/><path class="a4429471-2b42-4cba-a421-dabd071e481d" d="M99.41,33a.76.76,0,1,0,0-1.52.76.76,0,0,0,0,1.52Z"/><path class="a4429471-2b42-4cba-a421-dabd071e481d" d="M91.85,33a.76.76,0,1,0-.76-.76A.76.76,0,0,0,91.85,33Z"/></g><g class="b49ef7c0-ed45-426f-80f6-a42d3004255e"><path class="a4429471-2b42-4cba-a421-dabd071e481d" d="M107,63.26a.76.76,0,1,0,0-1.51.76.76,0,0,0,0,1.51Z"/><path class="a4429471-2b42-4cba-a421-dabd071e481d" d="M99.41,63.26a.76.76,0,1,0,0-1.51.76.76,0,0,0,0,1.51Z"/><path class="a4429471-2b42-4cba-a421-dabd071e481d" d="M107,55.7a.76.76,0,1,0,0-1.51.76.76,0,0,0,0,1.51Z"/><path class="a4429471-2b42-4cba-a421-dabd071e481d" d="M99.41,55.7a.76.76,0,1,0,0-1.51.76.76,0,0,0,0,1.51Z"/><path class="a4429471-2b42-4cba-a421-dabd071e481d" d="M95.63,59.48a.76.76,0,1,0-.76-.76A.76.76,0,0,0,95.63,59.48Z"/><path class="a4429471-2b42-4cba-a421-dabd071e481d" d="M103.19,59.48a.76.76,0,1,0,0-1.51.76.76,0,0,0,0,1.51Z"/><path class="a4429471-2b42-4cba-a421-dabd071e481d" d="M95.63,51.92a.76.76,0,0,0,.76-.76.76.76,0,0,0-1.52,0A.76.76,0,0,0,95.63,51.92Z"/><path class="a4429471-2b42-4cba-a421-dabd071e481d" d="M103.19,51.92a.76.76,0,0,0,.76-.76.75.75,0,0,0-.76-.75.74.74,0,0,0-.75.75A.75.75,0,0,0,103.19,51.92Z"/><path class="a4429471-2b42-4cba-a421-dabd071e481d" d="M91.85,63.26a.76.76,0,1,0-.76-.76A.76.76,0,0,0,91.85,63.26Z"/><path class="a4429471-2b42-4cba-a421-dabd071e481d" d="M91.85,55.7a.76.76,0,1,0-.76-.76A.76.76,0,0,0,91.85,55.7Z"/><path class="a4429471-2b42-4cba-a421-dabd071e481d" d="M107,48.14a.76.76,0,0,0,.76-.76.75.75,0,0,0-.76-.75.74.74,0,0,0-.75.75A.75.75,0,0,0,107,48.14Z"/><path class="a4429471-2b42-4cba-a421-dabd071e481d" d="M99.41,48.14a.76.76,0,0,0,.76-.76.75.75,0,0,0-.76-.75.74.74,0,0,0-.75.75A.75.75,0,0,0,99.41,48.14Z"/><path class="a4429471-2b42-4cba-a421-dabd071e481d" d="M91.85,48.14a.76.76,0,0,0,.76-.76.76.76,0,0,0-1.52,0A.76.76,0,0,0,91.85,48.14Z"/></g><g class="b25e3cd0-3c9e-4d46-9731-1e241f869729"><path class="a4429471-2b42-4cba-a421-dabd071e481d" d="M107,78.38a.76.76,0,1,0-.75-.75A.75.75,0,0,0,107,78.38Z"/><path class="a4429471-2b42-4cba-a421-dabd071e481d" d="M99.41,78.38a.76.76,0,1,0-.75-.75A.75.75,0,0,0,99.41,78.38Z"/><path class="a4429471-2b42-4cba-a421-dabd071e481d" d="M107,70.82a.76.76,0,1,0-.75-.75A.75.75,0,0,0,107,70.82Z"/><path class="a4429471-2b42-4cba-a421-dabd071e481d" d="M99.41,70.82a.76.76,0,1,0-.75-.75A.75.75,0,0,0,99.41,70.82Z"/><path class="a4429471-2b42-4cba-a421-dabd071e481d" d="M95.63,74.6a.76.76,0,1,0-.76-.75A.76.76,0,0,0,95.63,74.6Z"/><path class="a4429471-2b42-4cba-a421-dabd071e481d" d="M103.19,74.6a.76.76,0,1,0-.75-.75A.75.75,0,0,0,103.19,74.6Z"/><path class="a4429471-2b42-4cba-a421-dabd071e481d" d="M95.63,67a.76.76,0,1,0-.76-.75A.76.76,0,0,0,95.63,67Z"/><path class="a4429471-2b42-4cba-a421-dabd071e481d" d="M103.19,67a.76.76,0,1,0-.75-.75A.75.75,0,0,0,103.19,67Z"/><path class="a4429471-2b42-4cba-a421-dabd071e481d" d="M91.85,78.38a.76.76,0,1,0-.76-.75A.76.76,0,0,0,91.85,78.38Z"/><path class="a4429471-2b42-4cba-a421-dabd071e481d" d="M91.85,70.82a.76.76,0,1,0-.76-.75A.76.76,0,0,0,91.85,70.82Z"/><path class="a4429471-2b42-4cba-a421-dabd071e481d" d="M107,63.26a.76.76,0,1,0,0-1.51.76.76,0,0,0,0,1.51Z"/><path class="a4429471-2b42-4cba-a421-dabd071e481d" d="M99.41,63.26a.76.76,0,1,0,0-1.51.76.76,0,0,0,0,1.51Z"/><path class="a4429471-2b42-4cba-a421-dabd071e481d" d="M91.85,63.26a.76.76,0,1,0-.76-.76A.76.76,0,0,0,91.85,63.26Z"/></g><g class="af9cea24-1234-4676-9847-bd40b422918e"><path class="a4429471-2b42-4cba-a421-dabd071e481d" d="M107,93.51A.76.76,0,0,0,107,92a.76.76,0,0,0,0,1.52Z"/><path class="a4429471-2b42-4cba-a421-dabd071e481d" d="M99.41,93.51a.76.76,0,0,0,0-1.52.76.76,0,0,0,0,1.52Z"/><path class="a4429471-2b42-4cba-a421-dabd071e481d" d="M107,86a.76.76,0,0,0,0-1.52A.76.76,0,0,0,107,86Z"/><path class="a4429471-2b42-4cba-a421-dabd071e481d" d="M99.41,86a.76.76,0,0,0,0-1.52.76.76,0,0,0,0,1.52Z"/><path class="a4429471-2b42-4cba-a421-dabd071e481d" d="M95.63,89.73a.76.76,0,1,0-.76-.76A.76.76,0,0,0,95.63,89.73Z"/><path class="a4429471-2b42-4cba-a421-dabd071e481d" d="M103.19,89.73a.76.76,0,0,0,0-1.52.76.76,0,0,0,0,1.52Z"/><path class="a4429471-2b42-4cba-a421-dabd071e481d" d="M95.63,82.16a.75.75,0,0,0,.76-.75.76.76,0,1,0-1.52,0A.75.75,0,0,0,95.63,82.16Z"/><path class="a4429471-2b42-4cba-a421-dabd071e481d" d="M103.19,82.16a.75.75,0,0,0,.76-.75.76.76,0,0,0-.76-.76.75.75,0,0,0-.75.76A.74.74,0,0,0,103.19,82.16Z"/><path class="a4429471-2b42-4cba-a421-dabd071e481d" d="M91.85,93.51a.76.76,0,1,0-.76-.76A.76.76,0,0,0,91.85,93.51Z"/><path class="a4429471-2b42-4cba-a421-dabd071e481d" d="M91.85,86a.76.76,0,1,0-.76-.76A.76.76,0,0,0,91.85,86Z"/><path class="a4429471-2b42-4cba-a421-dabd071e481d" d="M107,78.38a.76.76,0,1,0-.75-.75A.75.75,0,0,0,107,78.38Z"/><path class="a4429471-2b42-4cba-a421-dabd071e481d" d="M99.41,78.38a.76.76,0,1,0-.75-.75A.75.75,0,0,0,99.41,78.38Z"/><path class="a4429471-2b42-4cba-a421-dabd071e481d" d="M91.85,78.38a.76.76,0,1,0-.76-.75A.76.76,0,0,0,91.85,78.38Z"/></g><g class="a1eeeec4-6507-4b6c-9ed0-1cf2e6a11c74"><path class="a4429471-2b42-4cba-a421-dabd071e481d" d="M91.85,48.14a.76.76,0,0,0,.76-.76.76.76,0,0,0-1.52,0A.76.76,0,0,0,91.85,48.14Z"/><path class="a4429471-2b42-4cba-a421-dabd071e481d" d="M84.29,48.14a.76.76,0,0,0,.76-.76.76.76,0,0,0-1.52,0A.76.76,0,0,0,84.29,48.14Z"/><path class="a4429471-2b42-4cba-a421-dabd071e481d" d="M91.85,40.58a.76.76,0,1,0-.76-.76A.76.76,0,0,0,91.85,40.58Z"/><path class="a4429471-2b42-4cba-a421-dabd071e481d" d="M84.29,40.58a.76.76,0,1,0-.76-.76A.76.76,0,0,0,84.29,40.58Z"/><path class="a4429471-2b42-4cba-a421-dabd071e481d" d="M80.51,44.36a.76.76,0,0,0,0-1.52.76.76,0,1,0,0,1.52Z"/><path class="a4429471-2b42-4cba-a421-dabd071e481d" d="M88.07,44.36a.76.76,0,1,0-.76-.76A.76.76,0,0,0,88.07,44.36Z"/><path class="a4429471-2b42-4cba-a421-dabd071e481d" d="M80.51,36.8a.76.76,0,0,0,0-1.52.76.76,0,1,0,0,1.52Z"/><path class="a4429471-2b42-4cba-a421-dabd071e481d" d="M88.07,36.8a.76.76,0,1,0-.76-.76A.76.76,0,0,0,88.07,36.8Z"/><path class="a4429471-2b42-4cba-a421-dabd071e481d" d="M76.73,48.14a.75.75,0,0,0,.75-.76.74.74,0,0,0-.75-.75.75.75,0,0,0-.76.75A.76.76,0,0,0,76.73,48.14Z"/><path class="a4429471-2b42-4cba-a421-dabd071e481d" d="M76.73,40.58a.76.76,0,0,0,0-1.52.76.76,0,1,0,0,1.52Z"/><path class="a4429471-2b42-4cba-a421-dabd071e481d" d="M91.85,33a.76.76,0,1,0-.76-.76A.76.76,0,0,0,91.85,33Z"/><path class="a4429471-2b42-4cba-a421-dabd071e481d" d="M84.29,33a.76.76,0,1,0-.76-.76A.76.76,0,0,0,84.29,33Z"/><path class="a4429471-2b42-4cba-a421-dabd071e481d" d="M76.73,33a.76.76,0,0,0,0-1.52.76.76,0,0,0,0,1.52Z"/></g><g class="ebb5ec87-6d86-4e7e-9c0a-fa773e2dbe32"><path class="a4429471-2b42-4cba-a421-dabd071e481d" d="M91.85,63.26a.76.76,0,1,0-.76-.76A.76.76,0,0,0,91.85,63.26Z"/><path class="a4429471-2b42-4cba-a421-dabd071e481d" d="M84.29,63.26a.76.76,0,1,0-.76-.76A.76.76,0,0,0,84.29,63.26Z"/><path class="a4429471-2b42-4cba-a421-dabd071e481d" d="M91.85,55.7a.76.76,0,1,0-.76-.76A.76.76,0,0,0,91.85,55.7Z"/><path class="a4429471-2b42-4cba-a421-dabd071e481d" d="M84.29,55.7a.76.76,0,1,0-.76-.76A.76.76,0,0,0,84.29,55.7Z"/><path class="a4429471-2b42-4cba-a421-dabd071e481d" d="M80.51,59.48a.76.76,0,1,0-.76-.76A.76.76,0,0,0,80.51,59.48Z"/><path class="a4429471-2b42-4cba-a421-dabd071e481d" d="M88.07,59.48a.76.76,0,1,0-.76-.76A.76.76,0,0,0,88.07,59.48Z"/><path class="a4429471-2b42-4cba-a421-dabd071e481d" d="M80.51,51.92a.75.75,0,0,0,.75-.76.74.74,0,0,0-.75-.75.75.75,0,0,0-.76.75A.76.76,0,0,0,80.51,51.92Z"/><path class="a4429471-2b42-4cba-a421-dabd071e481d" d="M88.07,51.92a.76.76,0,0,0,.76-.76.76.76,0,0,0-1.52,0A.76.76,0,0,0,88.07,51.92Z"/><path class="a4429471-2b42-4cba-a421-dabd071e481d" d="M76.73,63.26A.76.76,0,1,0,76,62.5.76.76,0,0,0,76.73,63.26Z"/><path class="a4429471-2b42-4cba-a421-dabd071e481d" d="M76.73,55.7a.76.76,0,1,0-.76-.76A.76.76,0,0,0,76.73,55.7Z"/><path class="a4429471-2b42-4cba-a421-dabd071e481d" d="M91.85,48.14a.76.76,0,0,0,.76-.76.76.76,0,0,0-1.52,0A.76.76,0,0,0,91.85,48.14Z"/><path class="a4429471-2b42-4cba-a421-dabd071e481d" d="M84.29,48.14a.76.76,0,0,0,.76-.76.76.76,0,0,0-1.52,0A.76.76,0,0,0,84.29,48.14Z"/><path class="a4429471-2b42-4cba-a421-dabd071e481d" d="M76.73,48.14a.75.75,0,0,0,.75-.76.74.74,0,0,0-.75-.75.75.75,0,0,0-.76.75A.76.76,0,0,0,76.73,48.14Z"/></g><g class="b5c163d2-9b69-454f-9078-91a44f84f7c2"><path class="a4429471-2b42-4cba-a421-dabd071e481d" d="M91.85,78.38a.76.76,0,1,0-.76-.75A.76.76,0,0,0,91.85,78.38Z"/><path class="a4429471-2b42-4cba-a421-dabd071e481d" d="M84.29,78.38a.76.76,0,1,0-.76-.75A.76.76,0,0,0,84.29,78.38Z"/><path class="a4429471-2b42-4cba-a421-dabd071e481d" d="M91.85,70.82a.76.76,0,1,0-.76-.75A.76.76,0,0,0,91.85,70.82Z"/><path class="a4429471-2b42-4cba-a421-dabd071e481d" d="M84.29,70.82a.76.76,0,1,0-.76-.75A.76.76,0,0,0,84.29,70.82Z"/><path class="a4429471-2b42-4cba-a421-dabd071e481d" d="M80.51,74.6a.76.76,0,0,0,0-1.51.76.76,0,1,0,0,1.51Z"/><path class="a4429471-2b42-4cba-a421-dabd071e481d" d="M88.07,74.6a.76.76,0,1,0-.76-.75A.76.76,0,0,0,88.07,74.6Z"/><path class="a4429471-2b42-4cba-a421-dabd071e481d" d="M80.51,67a.76.76,0,0,0,0-1.51.76.76,0,1,0,0,1.51Z"/><path class="a4429471-2b42-4cba-a421-dabd071e481d" d="M88.07,67a.76.76,0,1,0-.76-.75A.76.76,0,0,0,88.07,67Z"/><path class="a4429471-2b42-4cba-a421-dabd071e481d" d="M76.73,78.38a.76.76,0,0,0,0-1.51.76.76,0,1,0,0,1.51Z"/><path class="a4429471-2b42-4cba-a421-dabd071e481d" d="M76.73,70.82a.76.76,0,0,0,0-1.51.76.76,0,1,0,0,1.51Z"/><path class="a4429471-2b42-4cba-a421-dabd071e481d" d="M91.85,63.26a.76.76,0,1,0-.76-.76A.76.76,0,0,0,91.85,63.26Z"/><path class="a4429471-2b42-4cba-a421-dabd071e481d" d="M84.29,63.26a.76.76,0,1,0-.76-.76A.76.76,0,0,0,84.29,63.26Z"/><path class="a4429471-2b42-4cba-a421-dabd071e481d" d="M76.73,63.26A.76.76,0,1,0,76,62.5.76.76,0,0,0,76.73,63.26Z"/></g><g class="e992a78d-6208-45d2-bb8f-bb511aea2dda"><path class="a4429471-2b42-4cba-a421-dabd071e481d" d="M91.85,93.51a.76.76,0,1,0-.76-.76A.76.76,0,0,0,91.85,93.51Z"/><path class="a4429471-2b42-4cba-a421-dabd071e481d" d="M84.29,93.51a.76.76,0,1,0-.76-.76A.76.76,0,0,0,84.29,93.51Z"/><path class="a4429471-2b42-4cba-a421-dabd071e481d" d="M91.85,86a.76.76,0,1,0-.76-.76A.76.76,0,0,0,91.85,86Z"/><path class="a4429471-2b42-4cba-a421-dabd071e481d" d="M84.29,86a.76.76,0,1,0-.76-.76A.76.76,0,0,0,84.29,86Z"/><path class="a4429471-2b42-4cba-a421-dabd071e481d" d="M80.51,89.73a.76.76,0,0,0,0-1.52.76.76,0,1,0,0,1.52Z"/><path class="a4429471-2b42-4cba-a421-dabd071e481d" d="M88.07,89.73a.76.76,0,1,0-.76-.76A.76.76,0,0,0,88.07,89.73Z"/><path class="a4429471-2b42-4cba-a421-dabd071e481d" d="M80.51,82.16a.74.74,0,0,0,.75-.75.75.75,0,0,0-.75-.76.76.76,0,0,0-.76.76A.75.75,0,0,0,80.51,82.16Z"/><path class="a4429471-2b42-4cba-a421-dabd071e481d" d="M88.07,82.16a.75.75,0,0,0,.76-.75.76.76,0,1,0-1.52,0A.75.75,0,0,0,88.07,82.16Z"/><path class="a4429471-2b42-4cba-a421-dabd071e481d" d="M76.73,93.51a.76.76,0,0,0,0-1.52.76.76,0,1,0,0,1.52Z"/><path class="a4429471-2b42-4cba-a421-dabd071e481d" d="M76.73,86a.76.76,0,0,0,0-1.52.76.76,0,0,0,0,1.52Z"/><path class="a4429471-2b42-4cba-a421-dabd071e481d" d="M91.85,78.38a.76.76,0,1,0-.76-.75A.76.76,0,0,0,91.85,78.38Z"/><path class="a4429471-2b42-4cba-a421-dabd071e481d" d="M84.29,78.38a.76.76,0,1,0-.76-.75A.76.76,0,0,0,84.29,78.38Z"/><path class="a4429471-2b42-4cba-a421-dabd071e481d" d="M76.73,78.38a.76.76,0,0,0,0-1.51.76.76,0,1,0,0,1.51Z"/></g><g class="fa2b5744-4d12-40a3-aa44-a40f2655db17"><path class="a4429471-2b42-4cba-a421-dabd071e481d" d="M76.73,48.14a.75.75,0,0,0,.75-.76.74.74,0,0,0-.75-.75.75.75,0,0,0-.76.75A.76.76,0,0,0,76.73,48.14Z"/><path class="a4429471-2b42-4cba-a421-dabd071e481d" d="M69.17,48.14a.76.76,0,0,0,.75-.76.76.76,0,0,0-1.51,0A.76.76,0,0,0,69.17,48.14Z"/><path class="a4429471-2b42-4cba-a421-dabd071e481d" d="M76.73,40.58a.76.76,0,0,0,0-1.52.76.76,0,1,0,0,1.52Z"/><path class="a4429471-2b42-4cba-a421-dabd071e481d" d="M69.17,40.58a.76.76,0,1,0-.76-.76A.76.76,0,0,0,69.17,40.58Z"/><path class="a4429471-2b42-4cba-a421-dabd071e481d" d="M65.39,44.36a.76.76,0,1,0-.76-.76A.76.76,0,0,0,65.39,44.36Z"/><path class="a4429471-2b42-4cba-a421-dabd071e481d" d="M73,44.36a.76.76,0,0,0,0-1.52.76.76,0,1,0,0,1.52Z"/><path class="a4429471-2b42-4cba-a421-dabd071e481d" d="M65.39,36.8a.76.76,0,1,0-.76-.76A.76.76,0,0,0,65.39,36.8Z"/><path class="a4429471-2b42-4cba-a421-dabd071e481d" d="M73,36.8a.76.76,0,0,0,0-1.52.76.76,0,1,0,0,1.52Z"/><path class="a4429471-2b42-4cba-a421-dabd071e481d" d="M61.61,48.14a.76.76,0,0,0,.75-.76.76.76,0,0,0-1.51,0A.76.76,0,0,0,61.61,48.14Z"/><path class="a4429471-2b42-4cba-a421-dabd071e481d" d="M61.61,40.58a.76.76,0,1,0-.76-.76A.76.76,0,0,0,61.61,40.58Z"/><path class="a4429471-2b42-4cba-a421-dabd071e481d" d="M76.73,33a.76.76,0,0,0,0-1.52.76.76,0,0,0,0,1.52Z"/><path class="a4429471-2b42-4cba-a421-dabd071e481d" d="M69.17,33a.76.76,0,1,0-.76-.76A.76.76,0,0,0,69.17,33Z"/><path class="a4429471-2b42-4cba-a421-dabd071e481d" d="M61.61,33a.76.76,0,1,0-.76-.76A.76.76,0,0,0,61.61,33Z"/></g><g class="bb4ef9c6-3332-4112-868c-99e4ac836506"><path class="a4429471-2b42-4cba-a421-dabd071e481d" d="M76.73,63.26A.76.76,0,1,0,76,62.5.76.76,0,0,0,76.73,63.26Z"/><path class="a4429471-2b42-4cba-a421-dabd071e481d" d="M69.17,63.26a.76.76,0,1,0-.76-.76A.76.76,0,0,0,69.17,63.26Z"/><path class="a4429471-2b42-4cba-a421-dabd071e481d" d="M76.73,55.7a.76.76,0,1,0-.76-.76A.76.76,0,0,0,76.73,55.7Z"/><path class="a4429471-2b42-4cba-a421-dabd071e481d" d="M69.17,55.7a.76.76,0,1,0-.76-.76A.76.76,0,0,0,69.17,55.7Z"/><path class="a4429471-2b42-4cba-a421-dabd071e481d" d="M65.39,59.48a.76.76,0,1,0-.76-.76A.76.76,0,0,0,65.39,59.48Z"/><path class="a4429471-2b42-4cba-a421-dabd071e481d" d="M73,59.48a.76.76,0,1,0-.76-.76A.76.76,0,0,0,73,59.48Z"/><path class="a4429471-2b42-4cba-a421-dabd071e481d" d="M65.39,51.92a.76.76,0,0,0,.75-.76.76.76,0,0,0-1.51,0A.76.76,0,0,0,65.39,51.92Z"/><path class="a4429471-2b42-4cba-a421-dabd071e481d" d="M73,51.92a.75.75,0,0,0,.75-.76.74.74,0,0,0-.75-.75.75.75,0,0,0-.76.75A.76.76,0,0,0,73,51.92Z"/><path class="a4429471-2b42-4cba-a421-dabd071e481d" d="M61.61,63.26a.76.76,0,1,0-.76-.76A.76.76,0,0,0,61.61,63.26Z"/><path class="a4429471-2b42-4cba-a421-dabd071e481d" d="M61.61,55.7a.76.76,0,1,0-.76-.76A.76.76,0,0,0,61.61,55.7Z"/><path class="a4429471-2b42-4cba-a421-dabd071e481d" d="M76.73,48.14a.75.75,0,0,0,.75-.76.74.74,0,0,0-.75-.75.75.75,0,0,0-.76.75A.76.76,0,0,0,76.73,48.14Z"/><path class="a4429471-2b42-4cba-a421-dabd071e481d" d="M69.17,48.14a.76.76,0,0,0,.75-.76.76.76,0,0,0-1.51,0A.76.76,0,0,0,69.17,48.14Z"/><path class="a4429471-2b42-4cba-a421-dabd071e481d" d="M61.61,48.14a.76.76,0,0,0,.75-.76.76.76,0,0,0-1.51,0A.76.76,0,0,0,61.61,48.14Z"/></g><g class="b384de2b-43ad-4268-9395-bc486971c0ea"><path class="a4429471-2b42-4cba-a421-dabd071e481d" d="M76.73,78.38a.76.76,0,0,0,0-1.51.76.76,0,1,0,0,1.51Z"/><path class="a4429471-2b42-4cba-a421-dabd071e481d" d="M69.17,78.38a.76.76,0,1,0-.76-.75A.76.76,0,0,0,69.17,78.38Z"/><path class="a4429471-2b42-4cba-a421-dabd071e481d" d="M76.73,70.82a.76.76,0,0,0,0-1.51.76.76,0,1,0,0,1.51Z"/><path class="a4429471-2b42-4cba-a421-dabd071e481d" d="M69.17,70.82a.76.76,0,1,0-.76-.75A.76.76,0,0,0,69.17,70.82Z"/><path class="a4429471-2b42-4cba-a421-dabd071e481d" d="M65.39,74.6a.76.76,0,1,0-.76-.75A.76.76,0,0,0,65.39,74.6Z"/><path class="a4429471-2b42-4cba-a421-dabd071e481d" d="M73,74.6a.76.76,0,0,0,0-1.51.76.76,0,1,0,0,1.51Z"/><path class="a4429471-2b42-4cba-a421-dabd071e481d" d="M65.39,67a.76.76,0,1,0-.76-.75A.76.76,0,0,0,65.39,67Z"/><path class="a4429471-2b42-4cba-a421-dabd071e481d" d="M73,67a.76.76,0,0,0,0-1.51A.76.76,0,1,0,73,67Z"/><path class="a4429471-2b42-4cba-a421-dabd071e481d" d="M61.61,78.38a.76.76,0,1,0-.76-.75A.76.76,0,0,0,61.61,78.38Z"/><path class="a4429471-2b42-4cba-a421-dabd071e481d" d="M61.61,70.82a.76.76,0,1,0-.76-.75A.76.76,0,0,0,61.61,70.82Z"/><path class="a4429471-2b42-4cba-a421-dabd071e481d" d="M76.73,63.26A.76.76,0,1,0,76,62.5.76.76,0,0,0,76.73,63.26Z"/><path class="a4429471-2b42-4cba-a421-dabd071e481d" d="M69.17,63.26a.76.76,0,1,0-.76-.76A.76.76,0,0,0,69.17,63.26Z"/><path class="a4429471-2b42-4cba-a421-dabd071e481d" d="M61.61,63.26a.76.76,0,1,0-.76-.76A.76.76,0,0,0,61.61,63.26Z"/></g><g class="b12bfa57-7edf-46a5-99d8-b500cb459dfd"><path class="a4429471-2b42-4cba-a421-dabd071e481d" d="M76.73,93.51a.76.76,0,0,0,0-1.52.76.76,0,1,0,0,1.52Z"/><path class="a4429471-2b42-4cba-a421-dabd071e481d" d="M69.17,93.51a.76.76,0,1,0-.76-.76A.76.76,0,0,0,69.17,93.51Z"/><path class="a4429471-2b42-4cba-a421-dabd071e481d" d="M76.73,86a.76.76,0,0,0,0-1.52.76.76,0,0,0,0,1.52Z"/><path class="a4429471-2b42-4cba-a421-dabd071e481d" d="M69.17,86a.76.76,0,1,0-.76-.76A.76.76,0,0,0,69.17,86Z"/><path class="a4429471-2b42-4cba-a421-dabd071e481d" d="M65.39,89.73a.76.76,0,1,0-.76-.76A.76.76,0,0,0,65.39,89.73Z"/><path class="a4429471-2b42-4cba-a421-dabd071e481d" d="M73,89.73a.76.76,0,0,0,0-1.52.76.76,0,1,0,0,1.52Z"/><path class="a4429471-2b42-4cba-a421-dabd071e481d" d="M65.39,82.16a.75.75,0,0,0,.75-.75.76.76,0,1,0-.75.75Z"/><path class="a4429471-2b42-4cba-a421-dabd071e481d" d="M73,82.16a.74.74,0,0,0,.75-.75.75.75,0,0,0-.75-.76.76.76,0,0,0-.76.76A.75.75,0,0,0,73,82.16Z"/><path class="a4429471-2b42-4cba-a421-dabd071e481d" d="M61.61,93.51a.76.76,0,1,0-.76-.76A.76.76,0,0,0,61.61,93.51Z"/><path class="a4429471-2b42-4cba-a421-dabd071e481d" d="M61.61,86a.76.76,0,1,0-.76-.76A.76.76,0,0,0,61.61,86Z"/><path class="a4429471-2b42-4cba-a421-dabd071e481d" d="M76.73,78.38a.76.76,0,0,0,0-1.51.76.76,0,1,0,0,1.51Z"/><path class="a4429471-2b42-4cba-a421-dabd071e481d" d="M69.17,78.38a.76.76,0,1,0-.76-.75A.76.76,0,0,0,69.17,78.38Z"/><path class="a4429471-2b42-4cba-a421-dabd071e481d" d="M61.61,78.38a.76.76,0,1,0-.76-.75A.76.76,0,0,0,61.61,78.38Z"/></g></g><g class="fee7358f-9a53-4604-85db-edee5d5961df"><g class="aa10663d-c1dc-4d03-b993-e296d8dff48c"><path class="a4429471-2b42-4cba-a421-dabd071e481d" d="M228,48.14a.75.75,0,0,0,.75-.76.74.74,0,0,0-.75-.75.75.75,0,0,0-.76.75A.76.76,0,0,0,228,48.14Z"/><path class="a4429471-2b42-4cba-a421-dabd071e481d" d="M220.39,48.14a.76.76,0,0,0,.75-.76.76.76,0,0,0-1.51,0A.76.76,0,0,0,220.39,48.14Z"/><path class="a4429471-2b42-4cba-a421-dabd071e481d" d="M228,40.58a.76.76,0,0,0,0-1.52.76.76,0,1,0,0,1.52Z"/><path class="a4429471-2b42-4cba-a421-dabd071e481d" d="M220.39,40.58a.76.76,0,1,0-.76-.76A.76.76,0,0,0,220.39,40.58Z"/><path class="a4429471-2b42-4cba-a421-dabd071e481d" d="M216.61,44.36a.76.76,0,1,0-.76-.76A.76.76,0,0,0,216.61,44.36Z"/><path class="a4429471-2b42-4cba-a421-dabd071e481d" d="M224.17,44.36a.76.76,0,1,0-.76-.76A.76.76,0,0,0,224.17,44.36Z"/><path class="a4429471-2b42-4cba-a421-dabd071e481d" d="M216.61,36.8a.76.76,0,1,0-.76-.76A.76.76,0,0,0,216.61,36.8Z"/><path class="a4429471-2b42-4cba-a421-dabd071e481d" d="M224.17,36.8a.76.76,0,1,0-.76-.76A.76.76,0,0,0,224.17,36.8Z"/><path class="a4429471-2b42-4cba-a421-dabd071e481d" d="M212.83,48.14a.76.76,0,0,0,.75-.76.76.76,0,0,0-1.51,0A.76.76,0,0,0,212.83,48.14Z"/><path class="a4429471-2b42-4cba-a421-dabd071e481d" d="M212.83,40.58a.76.76,0,1,0-.76-.76A.76.76,0,0,0,212.83,40.58Z"/><path class="a4429471-2b42-4cba-a421-dabd071e481d" d="M228,33a.76.76,0,0,0,0-1.52A.76.76,0,1,0,228,33Z"/><path class="a4429471-2b42-4cba-a421-dabd071e481d" d="M220.39,33a.76.76,0,1,0-.76-.76A.76.76,0,0,0,220.39,33Z"/><path class="a4429471-2b42-4cba-a421-dabd071e481d" d="M212.83,33a.76.76,0,1,0-.76-.76A.76.76,0,0,0,212.83,33Z"/></g><g class="b618c1d5-3852-447e-b6f3-902445043c5a"><path class="a4429471-2b42-4cba-a421-dabd071e481d" d="M228,63.26a.76.76,0,1,0-.76-.76A.76.76,0,0,0,228,63.26Z"/><path class="a4429471-2b42-4cba-a421-dabd071e481d" d="M220.39,63.26a.76.76,0,1,0-.76-.76A.76.76,0,0,0,220.39,63.26Z"/><path class="a4429471-2b42-4cba-a421-dabd071e481d" d="M228,55.7a.76.76,0,1,0-.76-.76A.76.76,0,0,0,228,55.7Z"/><path class="a4429471-2b42-4cba-a421-dabd071e481d" d="M220.39,55.7a.76.76,0,1,0-.76-.76A.76.76,0,0,0,220.39,55.7Z"/><path class="a4429471-2b42-4cba-a421-dabd071e481d" d="M216.61,59.48a.76.76,0,1,0-.76-.76A.76.76,0,0,0,216.61,59.48Z"/><path class="a4429471-2b42-4cba-a421-dabd071e481d" d="M224.17,59.48a.76.76,0,1,0-.76-.76A.76.76,0,0,0,224.17,59.48Z"/><path class="a4429471-2b42-4cba-a421-dabd071e481d" d="M216.61,51.92a.76.76,0,0,0,.75-.76.76.76,0,0,0-1.51,0A.76.76,0,0,0,216.61,51.92Z"/><path class="a4429471-2b42-4cba-a421-dabd071e481d" d="M224.17,51.92a.76.76,0,0,0,.75-.76.76.76,0,0,0-1.51,0A.76.76,0,0,0,224.17,51.92Z"/><path class="a4429471-2b42-4cba-a421-dabd071e481d" d="M212.83,63.26a.76.76,0,1,0-.76-.76A.76.76,0,0,0,212.83,63.26Z"/><path class="a4429471-2b42-4cba-a421-dabd071e481d" d="M212.83,55.7a.76.76,0,1,0-.76-.76A.76.76,0,0,0,212.83,55.7Z"/><path class="a4429471-2b42-4cba-a421-dabd071e481d" d="M228,48.14a.75.75,0,0,0,.75-.76.74.74,0,0,0-.75-.75.75.75,0,0,0-.76.75A.76.76,0,0,0,228,48.14Z"/><path class="a4429471-2b42-4cba-a421-dabd071e481d" d="M220.39,48.14a.76.76,0,0,0,.75-.76.76.76,0,0,0-1.51,0A.76.76,0,0,0,220.39,48.14Z"/><path class="a4429471-2b42-4cba-a421-dabd071e481d" d="M212.83,48.14a.76.76,0,0,0,.75-.76.76.76,0,0,0-1.51,0A.76.76,0,0,0,212.83,48.14Z"/></g><g class="eed2c097-f5aa-4be1-b76d-273217720eae"><path class="a4429471-2b42-4cba-a421-dabd071e481d" d="M228,78.38a.76.76,0,0,0,0-1.51.76.76,0,1,0,0,1.51Z"/><path class="a4429471-2b42-4cba-a421-dabd071e481d" d="M220.39,78.38a.76.76,0,1,0-.76-.75A.76.76,0,0,0,220.39,78.38Z"/><path class="a4429471-2b42-4cba-a421-dabd071e481d" d="M228,70.82a.76.76,0,0,0,0-1.51.76.76,0,1,0,0,1.51Z"/><path class="a4429471-2b42-4cba-a421-dabd071e481d" d="M220.39,70.82a.76.76,0,1,0-.76-.75A.76.76,0,0,0,220.39,70.82Z"/><path class="a4429471-2b42-4cba-a421-dabd071e481d" d="M216.61,74.6a.76.76,0,1,0-.76-.75A.76.76,0,0,0,216.61,74.6Z"/><path class="a4429471-2b42-4cba-a421-dabd071e481d" d="M224.17,74.6a.76.76,0,1,0-.76-.75A.76.76,0,0,0,224.17,74.6Z"/><path class="a4429471-2b42-4cba-a421-dabd071e481d" d="M216.61,67a.76.76,0,1,0-.76-.75A.76.76,0,0,0,216.61,67Z"/><path class="a4429471-2b42-4cba-a421-dabd071e481d" d="M224.17,67a.76.76,0,1,0-.76-.75A.76.76,0,0,0,224.17,67Z"/><path class="a4429471-2b42-4cba-a421-dabd071e481d" d="M212.83,78.38a.76.76,0,1,0-.76-.75A.76.76,0,0,0,212.83,78.38Z"/><path class="a4429471-2b42-4cba-a421-dabd071e481d" d="M212.83,70.82a.76.76,0,1,0-.76-.75A.76.76,0,0,0,212.83,70.82Z"/><path class="a4429471-2b42-4cba-a421-dabd071e481d" d="M228,63.26a.76.76,0,1,0-.76-.76A.76.76,0,0,0,228,63.26Z"/><path class="a4429471-2b42-4cba-a421-dabd071e481d" d="M220.39,63.26a.76.76,0,1,0-.76-.76A.76.76,0,0,0,220.39,63.26Z"/><path class="a4429471-2b42-4cba-a421-dabd071e481d" d="M212.83,63.26a.76.76,0,1,0-.76-.76A.76.76,0,0,0,212.83,63.26Z"/></g><g class="a1190337-a0a3-4435-bb62-40fe87ad2c61"><path class="a4429471-2b42-4cba-a421-dabd071e481d" d="M228,93.51A.76.76,0,0,0,228,92a.76.76,0,1,0,0,1.52Z"/><path class="a4429471-2b42-4cba-a421-dabd071e481d" d="M220.39,93.51a.76.76,0,1,0-.76-.76A.76.76,0,0,0,220.39,93.51Z"/><path class="a4429471-2b42-4cba-a421-dabd071e481d" d="M228,86a.76.76,0,0,0,0-1.52A.76.76,0,1,0,228,86Z"/><path class="a4429471-2b42-4cba-a421-dabd071e481d" d="M220.39,86a.76.76,0,1,0-.76-.76A.76.76,0,0,0,220.39,86Z"/><path class="a4429471-2b42-4cba-a421-dabd071e481d" d="M216.61,89.73a.76.76,0,1,0-.76-.76A.76.76,0,0,0,216.61,89.73Z"/><path class="a4429471-2b42-4cba-a421-dabd071e481d" d="M224.17,89.73a.76.76,0,1,0-.76-.76A.76.76,0,0,0,224.17,89.73Z"/><path class="a4429471-2b42-4cba-a421-dabd071e481d" d="M216.61,82.16a.75.75,0,0,0,.75-.75.76.76,0,1,0-.75.75Z"/><path class="a4429471-2b42-4cba-a421-dabd071e481d" d="M224.17,82.16a.75.75,0,0,0,.75-.75.76.76,0,1,0-.75.75Z"/><path class="a4429471-2b42-4cba-a421-dabd071e481d" d="M212.83,93.51a.76.76,0,1,0-.76-.76A.76.76,0,0,0,212.83,93.51Z"/><path class="a4429471-2b42-4cba-a421-dabd071e481d" d="M212.83,86a.76.76,0,1,0-.76-.76A.76.76,0,0,0,212.83,86Z"/><path class="a4429471-2b42-4cba-a421-dabd071e481d" d="M228,78.38a.76.76,0,0,0,0-1.51.76.76,0,1,0,0,1.51Z"/><path class="a4429471-2b42-4cba-a421-dabd071e481d" d="M220.39,78.38a.76.76,0,1,0-.76-.75A.76.76,0,0,0,220.39,78.38Z"/><path class="a4429471-2b42-4cba-a421-dabd071e481d" d="M212.83,78.38a.76.76,0,1,0-.76-.75A.76.76,0,0,0,212.83,78.38Z"/></g><g class="a674a349-be17-40d4-bf49-f97961f398d0"><path class="a4429471-2b42-4cba-a421-dabd071e481d" d="M212.83,48.14a.76.76,0,0,0,.75-.76.76.76,0,0,0-1.51,0A.76.76,0,0,0,212.83,48.14Z"/><path class="a4429471-2b42-4cba-a421-dabd071e481d" d="M205.26,48.14a.76.76,0,0,0,.76-.76.76.76,0,1,0-.76.76Z"/><path class="a4429471-2b42-4cba-a421-dabd071e481d" d="M212.83,40.58a.76.76,0,1,0-.76-.76A.76.76,0,0,0,212.83,40.58Z"/><path class="a4429471-2b42-4cba-a421-dabd071e481d" d="M205.26,40.58a.76.76,0,1,0-.75-.76A.76.76,0,0,0,205.26,40.58Z"/><path class="a4429471-2b42-4cba-a421-dabd071e481d" d="M201.48,44.36a.76.76,0,1,0-.75-.76A.76.76,0,0,0,201.48,44.36Z"/><path class="a4429471-2b42-4cba-a421-dabd071e481d" d="M209.05,44.36a.76.76,0,1,0-.76-.76A.76.76,0,0,0,209.05,44.36Z"/><path class="a4429471-2b42-4cba-a421-dabd071e481d" d="M201.48,36.8a.76.76,0,1,0-.75-.76A.76.76,0,0,0,201.48,36.8Z"/><path class="a4429471-2b42-4cba-a421-dabd071e481d" d="M209.05,36.8a.76.76,0,1,0-.76-.76A.76.76,0,0,0,209.05,36.8Z"/><path class="a4429471-2b42-4cba-a421-dabd071e481d" d="M197.7,48.14a.76.76,0,0,0,.76-.76.76.76,0,1,0-.76.76Z"/><path class="a4429471-2b42-4cba-a421-dabd071e481d" d="M197.7,40.58a.76.76,0,1,0-.75-.76A.76.76,0,0,0,197.7,40.58Z"/><path class="a4429471-2b42-4cba-a421-dabd071e481d" d="M212.83,33a.76.76,0,1,0-.76-.76A.76.76,0,0,0,212.83,33Z"/><path class="a4429471-2b42-4cba-a421-dabd071e481d" d="M205.26,33a.76.76,0,1,0-.75-.76A.76.76,0,0,0,205.26,33Z"/><path class="a4429471-2b42-4cba-a421-dabd071e481d" d="M197.7,33a.76.76,0,1,0-.75-.76A.76.76,0,0,0,197.7,33Z"/></g><g class="f957bfb5-20df-40b3-a49b-dd23339f8ffc"><path class="a4429471-2b42-4cba-a421-dabd071e481d" d="M212.83,63.26a.76.76,0,1,0-.76-.76A.76.76,0,0,0,212.83,63.26Z"/><path class="a4429471-2b42-4cba-a421-dabd071e481d" d="M205.26,63.26a.76.76,0,1,0-.75-.76A.76.76,0,0,0,205.26,63.26Z"/><path class="a4429471-2b42-4cba-a421-dabd071e481d" d="M212.83,55.7a.76.76,0,1,0-.76-.76A.76.76,0,0,0,212.83,55.7Z"/><path class="a4429471-2b42-4cba-a421-dabd071e481d" d="M205.26,55.7a.76.76,0,1,0-.75-.76A.76.76,0,0,0,205.26,55.7Z"/><path class="a4429471-2b42-4cba-a421-dabd071e481d" d="M201.48,59.48a.76.76,0,1,0-.75-.76A.76.76,0,0,0,201.48,59.48Z"/><path class="a4429471-2b42-4cba-a421-dabd071e481d" d="M209.05,59.48a.76.76,0,1,0-.76-.76A.76.76,0,0,0,209.05,59.48Z"/><path class="a4429471-2b42-4cba-a421-dabd071e481d" d="M201.48,51.92a.76.76,0,0,0,.76-.76.76.76,0,1,0-.76.76Z"/><path class="a4429471-2b42-4cba-a421-dabd071e481d" d="M209.05,51.92a.76.76,0,0,0,.75-.76.76.76,0,0,0-1.51,0A.76.76,0,0,0,209.05,51.92Z"/><path class="a4429471-2b42-4cba-a421-dabd071e481d" d="M197.7,63.26a.76.76,0,1,0-.75-.76A.76.76,0,0,0,197.7,63.26Z"/><path class="a4429471-2b42-4cba-a421-dabd071e481d" d="M197.7,55.7a.76.76,0,1,0-.75-.76A.76.76,0,0,0,197.7,55.7Z"/><path class="a4429471-2b42-4cba-a421-dabd071e481d" d="M212.83,48.14a.76.76,0,0,0,.75-.76.76.76,0,0,0-1.51,0A.76.76,0,0,0,212.83,48.14Z"/><path class="a4429471-2b42-4cba-a421-dabd071e481d" d="M205.26,48.14a.76.76,0,0,0,.76-.76.76.76,0,1,0-.76.76Z"/><path class="a4429471-2b42-4cba-a421-dabd071e481d" d="M197.7,48.14a.76.76,0,0,0,.76-.76.76.76,0,1,0-.76.76Z"/></g><g class="eb5f6829-146c-40ea-bef9-54f430d30b2f"><path class="a4429471-2b42-4cba-a421-dabd071e481d" d="M212.83,78.38a.76.76,0,1,0-.76-.75A.76.76,0,0,0,212.83,78.38Z"/><path class="a4429471-2b42-4cba-a421-dabd071e481d" d="M205.26,78.38a.76.76,0,1,0-.75-.75A.76.76,0,0,0,205.26,78.38Z"/><path class="a4429471-2b42-4cba-a421-dabd071e481d" d="M212.83,70.82a.76.76,0,1,0-.76-.75A.76.76,0,0,0,212.83,70.82Z"/><path class="a4429471-2b42-4cba-a421-dabd071e481d" d="M205.26,70.82a.76.76,0,1,0-.75-.75A.76.76,0,0,0,205.26,70.82Z"/><path class="a4429471-2b42-4cba-a421-dabd071e481d" d="M201.48,74.6a.76.76,0,1,0-.75-.75A.76.76,0,0,0,201.48,74.6Z"/><path class="a4429471-2b42-4cba-a421-dabd071e481d" d="M209.05,74.6a.76.76,0,1,0-.76-.75A.76.76,0,0,0,209.05,74.6Z"/><path class="a4429471-2b42-4cba-a421-dabd071e481d" d="M201.48,67a.76.76,0,1,0-.75-.75A.76.76,0,0,0,201.48,67Z"/><path class="a4429471-2b42-4cba-a421-dabd071e481d" d="M209.05,67a.76.76,0,1,0-.76-.75A.76.76,0,0,0,209.05,67Z"/><path class="a4429471-2b42-4cba-a421-dabd071e481d" d="M197.7,78.38a.76.76,0,1,0-.75-.75A.76.76,0,0,0,197.7,78.38Z"/><path class="a4429471-2b42-4cba-a421-dabd071e481d" d="M197.7,70.82a.76.76,0,1,0-.75-.75A.76.76,0,0,0,197.7,70.82Z"/><path class="a4429471-2b42-4cba-a421-dabd071e481d" d="M212.83,63.26a.76.76,0,1,0-.76-.76A.76.76,0,0,0,212.83,63.26Z"/><path class="a4429471-2b42-4cba-a421-dabd071e481d" d="M205.26,63.26a.76.76,0,1,0-.75-.76A.76.76,0,0,0,205.26,63.26Z"/><path class="a4429471-2b42-4cba-a421-dabd071e481d" d="M197.7,63.26a.76.76,0,1,0-.75-.76A.76.76,0,0,0,197.7,63.26Z"/></g><g class="b37ba907-1780-4104-9d7f-7fb81e3cd907"><path class="a4429471-2b42-4cba-a421-dabd071e481d" d="M212.83,93.51a.76.76,0,1,0-.76-.76A.76.76,0,0,0,212.83,93.51Z"/><path class="a4429471-2b42-4cba-a421-dabd071e481d" d="M205.26,93.51a.76.76,0,1,0-.75-.76A.76.76,0,0,0,205.26,93.51Z"/><path class="a4429471-2b42-4cba-a421-dabd071e481d" d="M212.83,86a.76.76,0,1,0-.76-.76A.76.76,0,0,0,212.83,86Z"/><path class="a4429471-2b42-4cba-a421-dabd071e481d" d="M205.26,86a.76.76,0,1,0-.75-.76A.76.76,0,0,0,205.26,86Z"/><path class="a4429471-2b42-4cba-a421-dabd071e481d" d="M201.48,89.73a.76.76,0,1,0-.75-.76A.76.76,0,0,0,201.48,89.73Z"/><path class="a4429471-2b42-4cba-a421-dabd071e481d" d="M209.05,89.73a.76.76,0,1,0-.76-.76A.76.76,0,0,0,209.05,89.73Z"/><path class="a4429471-2b42-4cba-a421-dabd071e481d" d="M201.48,82.16a.75.75,0,0,0,.76-.75.76.76,0,1,0-1.51,0A.75.75,0,0,0,201.48,82.16Z"/><path class="a4429471-2b42-4cba-a421-dabd071e481d" d="M209.05,82.16a.75.75,0,0,0,.75-.75.76.76,0,1,0-.75.75Z"/><path class="a4429471-2b42-4cba-a421-dabd071e481d" d="M197.7,93.51a.76.76,0,1,0-.75-.76A.76.76,0,0,0,197.7,93.51Z"/><path class="a4429471-2b42-4cba-a421-dabd071e481d" d="M197.7,86a.76.76,0,1,0-.75-.76A.76.76,0,0,0,197.7,86Z"/><path class="a4429471-2b42-4cba-a421-dabd071e481d" d="M212.83,78.38a.76.76,0,1,0-.76-.75A.76.76,0,0,0,212.83,78.38Z"/><path class="a4429471-2b42-4cba-a421-dabd071e481d" d="M205.26,78.38a.76.76,0,1,0-.75-.75A.76.76,0,0,0,205.26,78.38Z"/><path class="a4429471-2b42-4cba-a421-dabd071e481d" d="M197.7,78.38a.76.76,0,1,0-.75-.75A.76.76,0,0,0,197.7,78.38Z"/></g><g class="a8439097-317b-41ad-9ab3-3386dc006ed4"><path class="a4429471-2b42-4cba-a421-dabd071e481d" d="M197.7,48.14a.76.76,0,0,0,.76-.76.76.76,0,1,0-.76.76Z"/><path class="a4429471-2b42-4cba-a421-dabd071e481d" d="M190.14,48.14a.76.76,0,0,0,.76-.76.76.76,0,1,0-.76.76Z"/><path class="a4429471-2b42-4cba-a421-dabd071e481d" d="M197.7,40.58a.76.76,0,1,0-.75-.76A.76.76,0,0,0,197.7,40.58Z"/><path class="a4429471-2b42-4cba-a421-dabd071e481d" d="M190.14,40.58a.76.76,0,1,0-.75-.76A.76.76,0,0,0,190.14,40.58Z"/><path class="a4429471-2b42-4cba-a421-dabd071e481d" d="M186.36,44.36a.76.76,0,0,0,0-1.52.76.76,0,0,0,0,1.52Z"/><path class="a4429471-2b42-4cba-a421-dabd071e481d" d="M193.92,44.36a.76.76,0,1,0-.75-.76A.76.76,0,0,0,193.92,44.36Z"/><path class="a4429471-2b42-4cba-a421-dabd071e481d" d="M186.36,36.8a.76.76,0,0,0,0-1.52.76.76,0,0,0,0,1.52Z"/><path class="a4429471-2b42-4cba-a421-dabd071e481d" d="M193.92,36.8a.76.76,0,1,0-.75-.76A.76.76,0,0,0,193.92,36.8Z"/><path class="a4429471-2b42-4cba-a421-dabd071e481d" d="M182.58,48.14a.76.76,0,0,0,.76-.76.75.75,0,0,0-.76-.75.74.74,0,0,0-.75.75A.75.75,0,0,0,182.58,48.14Z"/><path class="a4429471-2b42-4cba-a421-dabd071e481d" d="M182.58,40.58a.76.76,0,0,0,0-1.52.76.76,0,0,0,0,1.52Z"/><path class="a4429471-2b42-4cba-a421-dabd071e481d" d="M197.7,33a.76.76,0,1,0-.75-.76A.76.76,0,0,0,197.7,33Z"/><path class="a4429471-2b42-4cba-a421-dabd071e481d" d="M190.14,33a.76.76,0,1,0-.75-.76A.76.76,0,0,0,190.14,33Z"/><path class="a4429471-2b42-4cba-a421-dabd071e481d" d="M182.58,33a.76.76,0,0,0,0-1.52.76.76,0,0,0,0,1.52Z"/></g><g class="f3118803-65a7-4aff-9402-502083070d47"><path class="a4429471-2b42-4cba-a421-dabd071e481d" d="M197.7,63.26a.76.76,0,1,0-.75-.76A.76.76,0,0,0,197.7,63.26Z"/><path class="a4429471-2b42-4cba-a421-dabd071e481d" d="M190.14,63.26a.76.76,0,1,0-.75-.76A.76.76,0,0,0,190.14,63.26Z"/><path class="a4429471-2b42-4cba-a421-dabd071e481d" d="M197.7,55.7a.76.76,0,1,0-.75-.76A.76.76,0,0,0,197.7,55.7Z"/><path class="a4429471-2b42-4cba-a421-dabd071e481d" d="M190.14,55.7a.76.76,0,1,0-.75-.76A.76.76,0,0,0,190.14,55.7Z"/><path class="a4429471-2b42-4cba-a421-dabd071e481d" d="M186.36,59.48a.76.76,0,1,0,0-1.51.76.76,0,0,0,0,1.51Z"/><path class="a4429471-2b42-4cba-a421-dabd071e481d" d="M193.92,59.48a.76.76,0,1,0-.75-.76A.76.76,0,0,0,193.92,59.48Z"/><path class="a4429471-2b42-4cba-a421-dabd071e481d" d="M186.36,51.92a.76.76,0,0,0,.76-.76.75.75,0,0,0-.76-.75.74.74,0,0,0-.75.75A.75.75,0,0,0,186.36,51.92Z"/><path class="a4429471-2b42-4cba-a421-dabd071e481d" d="M193.92,51.92a.76.76,0,0,0,.76-.76.76.76,0,1,0-.76.76Z"/><path class="a4429471-2b42-4cba-a421-dabd071e481d" d="M182.58,63.26a.76.76,0,1,0,0-1.51.76.76,0,0,0,0,1.51Z"/><path class="a4429471-2b42-4cba-a421-dabd071e481d" d="M182.58,55.7a.76.76,0,1,0,0-1.51.76.76,0,0,0,0,1.51Z"/><path class="a4429471-2b42-4cba-a421-dabd071e481d" d="M197.7,48.14a.76.76,0,0,0,.76-.76.76.76,0,1,0-.76.76Z"/><path class="a4429471-2b42-4cba-a421-dabd071e481d" d="M190.14,48.14a.76.76,0,0,0,.76-.76.76.76,0,1,0-.76.76Z"/><path class="a4429471-2b42-4cba-a421-dabd071e481d" d="M182.58,48.14a.76.76,0,0,0,.76-.76.75.75,0,0,0-.76-.75.74.74,0,0,0-.75.75A.75.75,0,0,0,182.58,48.14Z"/></g><g class="fd2dba04-9d35-43b6-9f10-c934c50f653e"><path class="a4429471-2b42-4cba-a421-dabd071e481d" d="M197.7,78.38a.76.76,0,1,0-.75-.75A.76.76,0,0,0,197.7,78.38Z"/><path class="a4429471-2b42-4cba-a421-dabd071e481d" d="M190.14,78.38a.76.76,0,1,0-.75-.75A.76.76,0,0,0,190.14,78.38Z"/><path class="a4429471-2b42-4cba-a421-dabd071e481d" d="M197.7,70.82a.76.76,0,1,0-.75-.75A.76.76,0,0,0,197.7,70.82Z"/><path class="a4429471-2b42-4cba-a421-dabd071e481d" d="M190.14,70.82a.76.76,0,1,0-.75-.75A.76.76,0,0,0,190.14,70.82Z"/><path class="a4429471-2b42-4cba-a421-dabd071e481d" d="M186.36,74.6a.76.76,0,1,0-.75-.75A.75.75,0,0,0,186.36,74.6Z"/><path class="a4429471-2b42-4cba-a421-dabd071e481d" d="M193.92,74.6a.76.76,0,1,0-.75-.75A.76.76,0,0,0,193.92,74.6Z"/><path class="a4429471-2b42-4cba-a421-dabd071e481d" d="M186.36,67a.76.76,0,1,0-.75-.75A.75.75,0,0,0,186.36,67Z"/><path class="a4429471-2b42-4cba-a421-dabd071e481d" d="M193.92,67a.76.76,0,1,0-.75-.75A.76.76,0,0,0,193.92,67Z"/><path class="a4429471-2b42-4cba-a421-dabd071e481d" d="M182.58,78.38a.76.76,0,1,0-.75-.75A.75.75,0,0,0,182.58,78.38Z"/><path class="a4429471-2b42-4cba-a421-dabd071e481d" d="M182.58,70.82a.76.76,0,1,0-.75-.75A.75.75,0,0,0,182.58,70.82Z"/><path class="a4429471-2b42-4cba-a421-dabd071e481d" d="M197.7,63.26a.76.76,0,1,0-.75-.76A.76.76,0,0,0,197.7,63.26Z"/><path class="a4429471-2b42-4cba-a421-dabd071e481d" d="M190.14,63.26a.76.76,0,1,0-.75-.76A.76.76,0,0,0,190.14,63.26Z"/><path class="a4429471-2b42-4cba-a421-dabd071e481d" d="M182.58,63.26a.76.76,0,1,0,0-1.51.76.76,0,0,0,0,1.51Z"/></g><g class="aa1a4b7e-9e21-4292-a155-c4df86f36f3c"><path class="a4429471-2b42-4cba-a421-dabd071e481d" d="M197.7,93.51a.76.76,0,1,0-.75-.76A.76.76,0,0,0,197.7,93.51Z"/><path class="a4429471-2b42-4cba-a421-dabd071e481d" d="M190.14,93.51a.76.76,0,1,0-.75-.76A.76.76,0,0,0,190.14,93.51Z"/><path class="a4429471-2b42-4cba-a421-dabd071e481d" d="M197.7,86a.76.76,0,1,0-.75-.76A.76.76,0,0,0,197.7,86Z"/><path class="a4429471-2b42-4cba-a421-dabd071e481d" d="M190.14,86a.76.76,0,1,0-.75-.76A.76.76,0,0,0,190.14,86Z"/><path class="a4429471-2b42-4cba-a421-dabd071e481d" d="M186.36,89.73a.76.76,0,0,0,0-1.52.76.76,0,0,0,0,1.52Z"/><path class="a4429471-2b42-4cba-a421-dabd071e481d" d="M193.92,89.73a.76.76,0,1,0-.75-.76A.76.76,0,0,0,193.92,89.73Z"/><path class="a4429471-2b42-4cba-a421-dabd071e481d" d="M186.36,82.16a.75.75,0,0,0,.76-.75.76.76,0,0,0-.76-.76.75.75,0,0,0-.75.76A.74.74,0,0,0,186.36,82.16Z"/><path class="a4429471-2b42-4cba-a421-dabd071e481d" d="M193.92,82.16a.75.75,0,0,0,.76-.75.76.76,0,1,0-1.51,0A.75.75,0,0,0,193.92,82.16Z"/><path class="a4429471-2b42-4cba-a421-dabd071e481d" d="M182.58,93.51a.76.76,0,0,0,0-1.52.76.76,0,0,0,0,1.52Z"/><path class="a4429471-2b42-4cba-a421-dabd071e481d" d="M182.58,86a.76.76,0,0,0,0-1.52.76.76,0,0,0,0,1.52Z"/><path class="a4429471-2b42-4cba-a421-dabd071e481d" d="M197.7,78.38a.76.76,0,1,0-.75-.75A.76.76,0,0,0,197.7,78.38Z"/><path class="a4429471-2b42-4cba-a421-dabd071e481d" d="M190.14,78.38a.76.76,0,1,0-.75-.75A.76.76,0,0,0,190.14,78.38Z"/><path class="a4429471-2b42-4cba-a421-dabd071e481d" d="M182.58,78.38a.76.76,0,1,0-.75-.75A.75.75,0,0,0,182.58,78.38Z"/></g></g><g class="bc72adb6-7fc4-4690-9e5a-74d2bc617e42"><g class="a822d4a1-f60c-4f01-b05c-da777911d2b6"><path class="a4429471-2b42-4cba-a421-dabd071e481d" d="M107,169.12a.76.76,0,0,0,.76-.76.75.75,0,0,0-.76-.75.74.74,0,0,0-.75.75A.75.75,0,0,0,107,169.12Z"/><path class="a4429471-2b42-4cba-a421-dabd071e481d" d="M99.41,169.12a.76.76,0,0,0,.76-.76.75.75,0,0,0-.76-.75.74.74,0,0,0-.75.75A.75.75,0,0,0,99.41,169.12Z"/><path class="a4429471-2b42-4cba-a421-dabd071e481d" d="M107,161.56a.76.76,0,0,0,0-1.52.76.76,0,0,0,0,1.52Z"/><path class="a4429471-2b42-4cba-a421-dabd071e481d" d="M99.41,161.56a.76.76,0,0,0,0-1.52.76.76,0,0,0,0,1.52Z"/><path class="a4429471-2b42-4cba-a421-dabd071e481d" d="M95.63,165.34a.76.76,0,0,0,.76-.76.76.76,0,0,0-1.52,0A.76.76,0,0,0,95.63,165.34Z"/><path class="a4429471-2b42-4cba-a421-dabd071e481d" d="M103.19,165.34a.76.76,0,0,0,.76-.76.75.75,0,0,0-.76-.75.74.74,0,0,0-.75.75A.75.75,0,0,0,103.19,165.34Z"/><path class="a4429471-2b42-4cba-a421-dabd071e481d" d="M95.63,157.78a.76.76,0,1,0-.76-.76A.76.76,0,0,0,95.63,157.78Z"/><path class="a4429471-2b42-4cba-a421-dabd071e481d" d="M103.19,157.78a.76.76,0,0,0,0-1.52.76.76,0,0,0,0,1.52Z"/><path class="a4429471-2b42-4cba-a421-dabd071e481d" d="M91.85,169.12a.76.76,0,0,0,.76-.76.76.76,0,0,0-1.52,0A.76.76,0,0,0,91.85,169.12Z"/><path class="a4429471-2b42-4cba-a421-dabd071e481d" d="M91.85,161.56a.76.76,0,1,0-.76-.76A.76.76,0,0,0,91.85,161.56Z"/><path class="a4429471-2b42-4cba-a421-dabd071e481d" d="M107,154a.76.76,0,0,0,0-1.52.76.76,0,0,0,0,1.52Z"/><path class="a4429471-2b42-4cba-a421-dabd071e481d" d="M99.41,154a.76.76,0,1,0,0-1.52.76.76,0,0,0,0,1.52Z"/><path class="a4429471-2b42-4cba-a421-dabd071e481d" d="M91.85,154a.76.76,0,1,0-.76-.76A.76.76,0,0,0,91.85,154Z"/></g><g class="bb7900c1-eec2-4b23-84cd-7d471303c23c"><path class="a4429471-2b42-4cba-a421-dabd071e481d" d="M107,176.68a.76.76,0,1,0,0-1.51.76.76,0,0,0,0,1.51Z"/><path class="a4429471-2b42-4cba-a421-dabd071e481d" d="M99.41,176.68a.76.76,0,1,0,0-1.51.76.76,0,0,0,0,1.51Z"/><path class="a4429471-2b42-4cba-a421-dabd071e481d" d="M95.63,180.46a.76.76,0,1,0-.76-.76A.76.76,0,0,0,95.63,180.46Z"/><path class="a4429471-2b42-4cba-a421-dabd071e481d" d="M103.19,180.46a.76.76,0,1,0,0-1.51.76.76,0,0,0,0,1.51Z"/><path class="a4429471-2b42-4cba-a421-dabd071e481d" d="M95.63,172.9a.76.76,0,0,0,.76-.76.76.76,0,0,0-1.52,0A.76.76,0,0,0,95.63,172.9Z"/><path class="a4429471-2b42-4cba-a421-dabd071e481d" d="M103.19,172.9a.76.76,0,0,0,.76-.76.75.75,0,0,0-.76-.75.74.74,0,0,0-.75.75A.75.75,0,0,0,103.19,172.9Z"/><path class="a4429471-2b42-4cba-a421-dabd071e481d" d="M91.85,176.68a.76.76,0,1,0-.76-.76A.76.76,0,0,0,91.85,176.68Z"/><path class="a4429471-2b42-4cba-a421-dabd071e481d" d="M107,169.12a.76.76,0,0,0,.76-.76.75.75,0,0,0-.76-.75.74.74,0,0,0-.75.75A.75.75,0,0,0,107,169.12Z"/><path class="a4429471-2b42-4cba-a421-dabd071e481d" d="M99.41,169.12a.76.76,0,0,0,.76-.76.75.75,0,0,0-.76-.75.74.74,0,0,0-.75.75A.75.75,0,0,0,99.41,169.12Z"/><path class="a4429471-2b42-4cba-a421-dabd071e481d" d="M91.85,169.12a.76.76,0,0,0,.76-.76.76.76,0,0,0-1.52,0A.76.76,0,0,0,91.85,169.12Z"/></g><g class="acfd83dc-497c-4bff-9f70-6b6049ad1763"><path class="a4429471-2b42-4cba-a421-dabd071e481d" d="M91.85,169.12a.76.76,0,0,0,.76-.76.76.76,0,0,0-1.52,0A.76.76,0,0,0,91.85,169.12Z"/><path class="a4429471-2b42-4cba-a421-dabd071e481d" d="M84.29,169.12a.76.76,0,0,0,.76-.76.76.76,0,0,0-1.52,0A.76.76,0,0,0,84.29,169.12Z"/><path class="a4429471-2b42-4cba-a421-dabd071e481d" d="M91.85,161.56a.76.76,0,1,0-.76-.76A.76.76,0,0,0,91.85,161.56Z"/><path class="a4429471-2b42-4cba-a421-dabd071e481d" d="M84.29,161.56a.76.76,0,1,0-.76-.76A.76.76,0,0,0,84.29,161.56Z"/><path class="a4429471-2b42-4cba-a421-dabd071e481d" d="M80.51,165.34a.75.75,0,0,0,.75-.76.74.74,0,0,0-.75-.75.75.75,0,0,0-.76.75A.76.76,0,0,0,80.51,165.34Z"/><path class="a4429471-2b42-4cba-a421-dabd071e481d" d="M88.07,165.34a.76.76,0,0,0,.76-.76.76.76,0,0,0-1.52,0A.76.76,0,0,0,88.07,165.34Z"/><path class="a4429471-2b42-4cba-a421-dabd071e481d" d="M80.51,157.78a.76.76,0,0,0,0-1.52.76.76,0,1,0,0,1.52Z"/><path class="a4429471-2b42-4cba-a421-dabd071e481d" d="M88.07,157.78a.76.76,0,1,0-.76-.76A.76.76,0,0,0,88.07,157.78Z"/><path class="a4429471-2b42-4cba-a421-dabd071e481d" d="M76.73,169.12a.75.75,0,0,0,.75-.76.74.74,0,0,0-.75-.75.75.75,0,0,0-.76.75A.76.76,0,0,0,76.73,169.12Z"/><path class="a4429471-2b42-4cba-a421-dabd071e481d" d="M76.73,161.56a.76.76,0,0,0,0-1.52.76.76,0,1,0,0,1.52Z"/><path class="a4429471-2b42-4cba-a421-dabd071e481d" d="M91.85,154a.76.76,0,1,0-.76-.76A.76.76,0,0,0,91.85,154Z"/><path class="a4429471-2b42-4cba-a421-dabd071e481d" d="M84.29,154a.76.76,0,1,0-.76-.76A.76.76,0,0,0,84.29,154Z"/><path class="a4429471-2b42-4cba-a421-dabd071e481d" d="M76.73,154a.76.76,0,0,0,0-1.52.76.76,0,1,0,0,1.52Z"/></g><g class="addb6ae8-ad82-4a55-80f9-a3c5d5aeae69"><path class="a4429471-2b42-4cba-a421-dabd071e481d" d="M91.85,176.68a.76.76,0,1,0-.76-.76A.76.76,0,0,0,91.85,176.68Z"/><path class="a4429471-2b42-4cba-a421-dabd071e481d" d="M84.29,176.68a.76.76,0,1,0-.76-.76A.76.76,0,0,0,84.29,176.68Z"/><path class="a4429471-2b42-4cba-a421-dabd071e481d" d="M80.51,180.46a.76.76,0,1,0-.76-.76A.76.76,0,0,0,80.51,180.46Z"/><path class="a4429471-2b42-4cba-a421-dabd071e481d" d="M88.07,180.46a.76.76,0,1,0-.76-.76A.76.76,0,0,0,88.07,180.46Z"/><path class="a4429471-2b42-4cba-a421-dabd071e481d" d="M80.51,172.9a.75.75,0,0,0,.75-.76.74.74,0,0,0-.75-.75.75.75,0,0,0-.76.75A.76.76,0,0,0,80.51,172.9Z"/><path class="a4429471-2b42-4cba-a421-dabd071e481d" d="M88.07,172.9a.76.76,0,0,0,.76-.76.76.76,0,0,0-1.52,0A.76.76,0,0,0,88.07,172.9Z"/><path class="a4429471-2b42-4cba-a421-dabd071e481d" d="M76.73,176.68a.76.76,0,1,0-.76-.76A.76.76,0,0,0,76.73,176.68Z"/><path class="a4429471-2b42-4cba-a421-dabd071e481d" d="M91.85,169.12a.76.76,0,0,0,.76-.76.76.76,0,0,0-1.52,0A.76.76,0,0,0,91.85,169.12Z"/><path class="a4429471-2b42-4cba-a421-dabd071e481d" d="M84.29,169.12a.76.76,0,0,0,.76-.76.76.76,0,0,0-1.52,0A.76.76,0,0,0,84.29,169.12Z"/><path class="a4429471-2b42-4cba-a421-dabd071e481d" d="M76.73,169.12a.75.75,0,0,0,.75-.76.74.74,0,0,0-.75-.75.75.75,0,0,0-.76.75A.76.76,0,0,0,76.73,169.12Z"/></g><g class="a5861005-f861-4517-a796-a5338f47fc54"><path class="a4429471-2b42-4cba-a421-dabd071e481d" d="M76.73,169.12a.75.75,0,0,0,.75-.76.74.74,0,0,0-.75-.75.75.75,0,0,0-.76.75A.76.76,0,0,0,76.73,169.12Z"/><path class="a4429471-2b42-4cba-a421-dabd071e481d" d="M69.17,169.12a.76.76,0,0,0,.75-.76.76.76,0,0,0-1.51,0A.76.76,0,0,0,69.17,169.12Z"/><path class="a4429471-2b42-4cba-a421-dabd071e481d" d="M76.73,161.56a.76.76,0,0,0,0-1.52.76.76,0,1,0,0,1.52Z"/><path class="a4429471-2b42-4cba-a421-dabd071e481d" d="M69.17,161.56a.76.76,0,1,0-.76-.76A.76.76,0,0,0,69.17,161.56Z"/><path class="a4429471-2b42-4cba-a421-dabd071e481d" d="M65.39,165.34a.76.76,0,0,0,.75-.76.76.76,0,0,0-1.51,0A.76.76,0,0,0,65.39,165.34Z"/><path class="a4429471-2b42-4cba-a421-dabd071e481d" d="M73,165.34a.75.75,0,0,0,.75-.76.74.74,0,0,0-.75-.75.75.75,0,0,0-.76.75A.76.76,0,0,0,73,165.34Z"/><path class="a4429471-2b42-4cba-a421-dabd071e481d" d="M65.39,157.78a.76.76,0,1,0-.76-.76A.76.76,0,0,0,65.39,157.78Z"/><path class="a4429471-2b42-4cba-a421-dabd071e481d" d="M73,157.78a.76.76,0,0,0,0-1.52.76.76,0,1,0,0,1.52Z"/><path class="a4429471-2b42-4cba-a421-dabd071e481d" d="M61.61,169.12a.76.76,0,0,0,.75-.76.76.76,0,0,0-1.51,0A.76.76,0,0,0,61.61,169.12Z"/><path class="a4429471-2b42-4cba-a421-dabd071e481d" d="M61.61,161.56a.76.76,0,1,0-.76-.76A.76.76,0,0,0,61.61,161.56Z"/><path class="a4429471-2b42-4cba-a421-dabd071e481d" d="M76.73,154a.76.76,0,0,0,0-1.52.76.76,0,1,0,0,1.52Z"/><path class="a4429471-2b42-4cba-a421-dabd071e481d" d="M69.17,154a.76.76,0,1,0-.76-.76A.76.76,0,0,0,69.17,154Z"/><path class="a4429471-2b42-4cba-a421-dabd071e481d" d="M61.61,154a.76.76,0,1,0-.76-.76A.76.76,0,0,0,61.61,154Z"/></g><g class="f73b2ae9-0fd2-42cd-8cdb-1f4ddf8e3eea"><path class="a4429471-2b42-4cba-a421-dabd071e481d" d="M76.73,176.68a.76.76,0,1,0-.76-.76A.76.76,0,0,0,76.73,176.68Z"/><path class="a4429471-2b42-4cba-a421-dabd071e481d" d="M69.17,176.68a.76.76,0,1,0-.76-.76A.76.76,0,0,0,69.17,176.68Z"/><path class="a4429471-2b42-4cba-a421-dabd071e481d" d="M65.39,180.46a.76.76,0,1,0-.76-.76A.76.76,0,0,0,65.39,180.46Z"/><path class="a4429471-2b42-4cba-a421-dabd071e481d" d="M73,180.46a.76.76,0,1,0-.76-.76A.76.76,0,0,0,73,180.46Z"/><path class="a4429471-2b42-4cba-a421-dabd071e481d" d="M65.39,172.9a.76.76,0,0,0,.75-.76.76.76,0,0,0-1.51,0A.76.76,0,0,0,65.39,172.9Z"/><path class="a4429471-2b42-4cba-a421-dabd071e481d" d="M73,172.9a.75.75,0,0,0,.75-.76.74.74,0,0,0-.75-.75.75.75,0,0,0-.76.75A.76.76,0,0,0,73,172.9Z"/><path class="a4429471-2b42-4cba-a421-dabd071e481d" d="M61.61,176.68a.76.76,0,1,0-.76-.76A.76.76,0,0,0,61.61,176.68Z"/><path class="a4429471-2b42-4cba-a421-dabd071e481d" d="M76.73,169.12a.75.75,0,0,0,.75-.76.74.74,0,0,0-.75-.75.75.75,0,0,0-.76.75A.76.76,0,0,0,76.73,169.12Z"/><path class="a4429471-2b42-4cba-a421-dabd071e481d" d="M69.17,169.12a.76.76,0,0,0,.75-.76.76.76,0,0,0-1.51,0A.76.76,0,0,0,69.17,169.12Z"/><path class="a4429471-2b42-4cba-a421-dabd071e481d" d="M61.61,169.12a.76.76,0,0,0,.75-.76.76.76,0,0,0-1.51,0A.76.76,0,0,0,61.61,169.12Z"/></g></g><g class="a02a7a10-3e9f-451d-b10c-39d73090fa4d"><g class="ba861661-ceda-4420-87d1-36da570e95f6"><path class="a4429471-2b42-4cba-a421-dabd071e481d" d="M228,169.12a.75.75,0,0,0,.75-.76.74.74,0,0,0-.75-.75.75.75,0,0,0-.76.75A.76.76,0,0,0,228,169.12Z"/><path class="a4429471-2b42-4cba-a421-dabd071e481d" d="M220.39,169.12a.76.76,0,0,0,.75-.76.76.76,0,0,0-1.51,0A.76.76,0,0,0,220.39,169.12Z"/><path class="a4429471-2b42-4cba-a421-dabd071e481d" d="M228,161.56a.76.76,0,0,0,0-1.52.76.76,0,0,0,0,1.52Z"/><path class="a4429471-2b42-4cba-a421-dabd071e481d" d="M220.39,161.56a.76.76,0,1,0-.76-.76A.76.76,0,0,0,220.39,161.56Z"/><path class="a4429471-2b42-4cba-a421-dabd071e481d" d="M216.61,165.34a.76.76,0,0,0,.75-.76.76.76,0,0,0-1.51,0A.76.76,0,0,0,216.61,165.34Z"/><path class="a4429471-2b42-4cba-a421-dabd071e481d" d="M224.17,165.34a.76.76,0,0,0,.75-.76.76.76,0,0,0-1.51,0A.76.76,0,0,0,224.17,165.34Z"/><path class="a4429471-2b42-4cba-a421-dabd071e481d" d="M216.61,157.78a.76.76,0,1,0-.76-.76A.76.76,0,0,0,216.61,157.78Z"/><path class="a4429471-2b42-4cba-a421-dabd071e481d" d="M224.17,157.78a.76.76,0,1,0-.76-.76A.76.76,0,0,0,224.17,157.78Z"/><path class="a4429471-2b42-4cba-a421-dabd071e481d" d="M212.83,169.12a.76.76,0,0,0,.75-.76.76.76,0,0,0-1.51,0A.76.76,0,0,0,212.83,169.12Z"/><path class="a4429471-2b42-4cba-a421-dabd071e481d" d="M212.83,161.56a.76.76,0,1,0-.76-.76A.76.76,0,0,0,212.83,161.56Z"/><path class="a4429471-2b42-4cba-a421-dabd071e481d" d="M228,154a.76.76,0,0,0,0-1.52.76.76,0,0,0,0,1.52Z"/><path class="a4429471-2b42-4cba-a421-dabd071e481d" d="M220.39,154a.76.76,0,1,0-.76-.76A.76.76,0,0,0,220.39,154Z"/><path class="a4429471-2b42-4cba-a421-dabd071e481d" d="M212.83,154a.76.76,0,1,0-.76-.76A.76.76,0,0,0,212.83,154Z"/></g><g class="e783ea3b-03a7-421f-a924-8d9539cd00da"><path class="a4429471-2b42-4cba-a421-dabd071e481d" d="M228,176.68a.76.76,0,1,0-.76-.76A.76.76,0,0,0,228,176.68Z"/><path class="a4429471-2b42-4cba-a421-dabd071e481d" d="M220.39,176.68a.76.76,0,1,0-.76-.76A.76.76,0,0,0,220.39,176.68Z"/><path class="a4429471-2b42-4cba-a421-dabd071e481d" d="M216.61,180.46a.76.76,0,1,0-.76-.76A.76.76,0,0,0,216.61,180.46Z"/><path class="a4429471-2b42-4cba-a421-dabd071e481d" d="M224.17,180.46a.76.76,0,1,0-.76-.76A.76.76,0,0,0,224.17,180.46Z"/><path class="a4429471-2b42-4cba-a421-dabd071e481d" d="M216.61,172.9a.76.76,0,0,0,.75-.76.76.76,0,0,0-1.51,0A.76.76,0,0,0,216.61,172.9Z"/><path class="a4429471-2b42-4cba-a421-dabd071e481d" d="M224.17,172.9a.76.76,0,0,0,.75-.76.76.76,0,0,0-1.51,0A.76.76,0,0,0,224.17,172.9Z"/><path class="a4429471-2b42-4cba-a421-dabd071e481d" d="M212.83,176.68a.76.76,0,1,0-.76-.76A.76.76,0,0,0,212.83,176.68Z"/><path class="a4429471-2b42-4cba-a421-dabd071e481d" d="M228,169.12a.75.75,0,0,0,.75-.76.74.74,0,0,0-.75-.75.75.75,0,0,0-.76.75A.76.76,0,0,0,228,169.12Z"/><path class="a4429471-2b42-4cba-a421-dabd071e481d" d="M220.39,169.12a.76.76,0,0,0,.75-.76.76.76,0,0,0-1.51,0A.76.76,0,0,0,220.39,169.12Z"/><path class="a4429471-2b42-4cba-a421-dabd071e481d" d="M212.83,169.12a.76.76,0,0,0,.75-.76.76.76,0,0,0-1.51,0A.76.76,0,0,0,212.83,169.12Z"/></g><g class="ecb4548b-5546-4e0f-8751-5f0266180dc6"><path class="a4429471-2b42-4cba-a421-dabd071e481d" d="M212.83,169.12a.76.76,0,0,0,.75-.76.76.76,0,0,0-1.51,0A.76.76,0,0,0,212.83,169.12Z"/><path class="a4429471-2b42-4cba-a421-dabd071e481d" d="M205.26,169.12a.76.76,0,0,0,.76-.76.76.76,0,1,0-.76.76Z"/><path class="a4429471-2b42-4cba-a421-dabd071e481d" d="M212.83,161.56a.76.76,0,1,0-.76-.76A.76.76,0,0,0,212.83,161.56Z"/><path class="a4429471-2b42-4cba-a421-dabd071e481d" d="M205.26,161.56a.76.76,0,1,0-.75-.76A.76.76,0,0,0,205.26,161.56Z"/><path class="a4429471-2b42-4cba-a421-dabd071e481d" d="M201.48,165.34a.76.76,0,0,0,.76-.76.76.76,0,1,0-.76.76Z"/><path class="a4429471-2b42-4cba-a421-dabd071e481d" d="M209.05,165.34a.76.76,0,0,0,.75-.76.76.76,0,0,0-1.51,0A.76.76,0,0,0,209.05,165.34Z"/><path class="a4429471-2b42-4cba-a421-dabd071e481d" d="M201.48,157.78a.76.76,0,1,0-.75-.76A.76.76,0,0,0,201.48,157.78Z"/><path class="a4429471-2b42-4cba-a421-dabd071e481d" d="M209.05,157.78a.76.76,0,1,0-.76-.76A.76.76,0,0,0,209.05,157.78Z"/><path class="a4429471-2b42-4cba-a421-dabd071e481d" d="M197.7,169.12a.76.76,0,0,0,.76-.76.76.76,0,1,0-.76.76Z"/><path class="a4429471-2b42-4cba-a421-dabd071e481d" d="M197.7,161.56a.76.76,0,1,0-.75-.76A.76.76,0,0,0,197.7,161.56Z"/><path class="a4429471-2b42-4cba-a421-dabd071e481d" d="M212.83,154a.76.76,0,1,0-.76-.76A.76.76,0,0,0,212.83,154Z"/><path class="a4429471-2b42-4cba-a421-dabd071e481d" d="M205.26,154a.76.76,0,1,0-.75-.76A.76.76,0,0,0,205.26,154Z"/><path class="a4429471-2b42-4cba-a421-dabd071e481d" d="M197.7,154a.76.76,0,1,0-.75-.76A.76.76,0,0,0,197.7,154Z"/></g><g class="f485fd47-647c-4483-8cb5-2539dbdf8510"><path class="a4429471-2b42-4cba-a421-dabd071e481d" d="M212.83,176.68a.76.76,0,1,0-.76-.76A.76.76,0,0,0,212.83,176.68Z"/><path class="a4429471-2b42-4cba-a421-dabd071e481d" d="M205.26,176.68a.76.76,0,1,0-.75-.76A.76.76,0,0,0,205.26,176.68Z"/><path class="a4429471-2b42-4cba-a421-dabd071e481d" d="M201.48,180.46a.76.76,0,1,0-.75-.76A.76.76,0,0,0,201.48,180.46Z"/><path class="a4429471-2b42-4cba-a421-dabd071e481d" d="M209.05,180.46a.76.76,0,1,0-.76-.76A.76.76,0,0,0,209.05,180.46Z"/><path class="a4429471-2b42-4cba-a421-dabd071e481d" d="M201.48,172.9a.76.76,0,0,0,.76-.76.76.76,0,1,0-.76.76Z"/><path class="a4429471-2b42-4cba-a421-dabd071e481d" d="M209.05,172.9a.76.76,0,0,0,.75-.76.76.76,0,0,0-1.51,0A.76.76,0,0,0,209.05,172.9Z"/><path class="a4429471-2b42-4cba-a421-dabd071e481d" d="M197.7,176.68a.76.76,0,1,0-.75-.76A.76.76,0,0,0,197.7,176.68Z"/><path class="a4429471-2b42-4cba-a421-dabd071e481d" d="M212.83,169.12a.76.76,0,0,0,.75-.76.76.76,0,0,0-1.51,0A.76.76,0,0,0,212.83,169.12Z"/><path class="a4429471-2b42-4cba-a421-dabd071e481d" d="M205.26,169.12a.76.76,0,0,0,.76-.76.76.76,0,1,0-.76.76Z"/><path class="a4429471-2b42-4cba-a421-dabd071e481d" d="M197.7,169.12a.76.76,0,0,0,.76-.76.76.76,0,1,0-.76.76Z"/></g><g class="f0d976d2-0716-48bb-8f02-88e872895c29"><path class="a4429471-2b42-4cba-a421-dabd071e481d" d="M197.7,169.12a.76.76,0,0,0,.76-.76.76.76,0,1,0-.76.76Z"/><path class="a4429471-2b42-4cba-a421-dabd071e481d" d="M190.14,169.12a.76.76,0,0,0,.76-.76.76.76,0,1,0-.76.76Z"/><path class="a4429471-2b42-4cba-a421-dabd071e481d" d="M197.7,161.56a.76.76,0,1,0-.75-.76A.76.76,0,0,0,197.7,161.56Z"/><path class="a4429471-2b42-4cba-a421-dabd071e481d" d="M190.14,161.56a.76.76,0,1,0-.75-.76A.76.76,0,0,0,190.14,161.56Z"/><path class="a4429471-2b42-4cba-a421-dabd071e481d" d="M186.36,165.34a.76.76,0,0,0,.76-.76.75.75,0,0,0-.76-.75.74.74,0,0,0-.75.75A.75.75,0,0,0,186.36,165.34Z"/><path class="a4429471-2b42-4cba-a421-dabd071e481d" d="M193.92,165.34a.76.76,0,0,0,.76-.76.76.76,0,1,0-.76.76Z"/><path class="a4429471-2b42-4cba-a421-dabd071e481d" d="M186.36,157.78a.76.76,0,1,0,0-1.52.76.76,0,0,0,0,1.52Z"/><path class="a4429471-2b42-4cba-a421-dabd071e481d" d="M193.92,157.78a.76.76,0,1,0-.75-.76A.76.76,0,0,0,193.92,157.78Z"/><path class="a4429471-2b42-4cba-a421-dabd071e481d" d="M182.58,169.12a.76.76,0,0,0,.76-.76.75.75,0,0,0-.76-.75.74.74,0,0,0-.75.75A.75.75,0,0,0,182.58,169.12Z"/><path class="a4429471-2b42-4cba-a421-dabd071e481d" d="M182.58,161.56a.76.76,0,1,0,0-1.52.76.76,0,0,0,0,1.52Z"/><path class="a4429471-2b42-4cba-a421-dabd071e481d" d="M197.7,154a.76.76,0,1,0-.75-.76A.76.76,0,0,0,197.7,154Z"/><path class="a4429471-2b42-4cba-a421-dabd071e481d" d="M190.14,154a.76.76,0,1,0-.75-.76A.76.76,0,0,0,190.14,154Z"/><path class="a4429471-2b42-4cba-a421-dabd071e481d" d="M182.58,154a.76.76,0,1,0,0-1.52.76.76,0,0,0,0,1.52Z"/></g><g class="fd999e8e-5d8c-4e9b-8b93-579b33a50097"><path class="a4429471-2b42-4cba-a421-dabd071e481d" d="M197.7,176.68a.76.76,0,1,0-.75-.76A.76.76,0,0,0,197.7,176.68Z"/><path class="a4429471-2b42-4cba-a421-dabd071e481d" d="M190.14,176.68a.76.76,0,1,0-.75-.76A.76.76,0,0,0,190.14,176.68Z"/><path class="a4429471-2b42-4cba-a421-dabd071e481d" d="M186.36,180.46a.76.76,0,1,0,0-1.51.76.76,0,0,0,0,1.51Z"/><path class="a4429471-2b42-4cba-a421-dabd071e481d" d="M193.92,180.46a.76.76,0,1,0-.75-.76A.76.76,0,0,0,193.92,180.46Z"/><path class="a4429471-2b42-4cba-a421-dabd071e481d" d="M186.36,172.9a.76.76,0,0,0,.76-.76.75.75,0,0,0-.76-.75.74.74,0,0,0-.75.75A.75.75,0,0,0,186.36,172.9Z"/><path class="a4429471-2b42-4cba-a421-dabd071e481d" d="M193.92,172.9a.76.76,0,0,0,.76-.76.76.76,0,1,0-.76.76Z"/><path class="a4429471-2b42-4cba-a421-dabd071e481d" d="M182.58,176.68a.76.76,0,1,0,0-1.51.76.76,0,0,0,0,1.51Z"/><path class="a4429471-2b42-4cba-a421-dabd071e481d" d="M197.7,169.12a.76.76,0,0,0,.76-.76.76.76,0,1,0-.76.76Z"/><path class="a4429471-2b42-4cba-a421-dabd071e481d" d="M190.14,169.12a.76.76,0,0,0,.76-.76.76.76,0,1,0-.76.76Z"/><path class="a4429471-2b42-4cba-a421-dabd071e481d" d="M182.58,169.12a.76.76,0,0,0,.76-.76.75.75,0,0,0-.76-.75.74.74,0,0,0-.75.75A.75.75,0,0,0,182.58,169.12Z"/></g></g><path class="a4429471-2b42-4cba-a421-dabd071e481d" d="M66.47,88.56a.76.76,0,0,1-.38-.11l-31-17.89a.76.76,0,0,1-.38-.66V34.11a.73.73,0,0,1,.38-.65l31-17.9a.79.79,0,0,1,.76,0l31,17.9a.73.73,0,0,1,.38.65V69.9a.76.76,0,0,1-.38.66l-31,17.89A.76.76,0,0,1,66.47,88.56ZM36.23,69.46,66.47,86.92,96.71,69.46V34.55L66.47,17.09,36.23,34.55Z"/><path class="a4429471-2b42-4cba-a421-dabd071e481d" d="M66.05,87.55a.76.76,0,0,1-.76-.76V52.71L35.3,35a.76.76,0,0,1,.77-1.31l30.36,17.9a.75.75,0,0,1,.38.65V86.79A.76.76,0,0,1,66.05,87.55Z"/><path class="a4429471-2b42-4cba-a421-dabd071e481d" d="M66.05,53a.76.76,0,0,1-.38-1.42L97.09,33.46a.75.75,0,0,1,1,.27.76.76,0,0,1-.27,1L66.43,52.94A.86.86,0,0,1,66.05,53Z"/><polygon class="a4429471-2b42-4cba-a421-dabd071e481d" points="66.57 52.28 35.16 34.11 35.16 69.9 66.15 87.8 66.57 52.28"/><path class="a4429471-2b42-4cba-a421-dabd071e481d" d="M195.15,88.56a.76.76,0,0,1-.38-.11l-31-17.89a.76.76,0,0,1-.38-.66V34.11a.73.73,0,0,1,.38-.65l31-17.9a.79.79,0,0,1,.76,0l31,17.9a.74.74,0,0,1,.37.65V69.9a.77.77,0,0,1-.37.66l-31,17.89A.76.76,0,0,1,195.15,88.56Zm-30.24-19.1,30.24,17.46,30.24-17.46V34.55L195.15,17.09,164.91,34.55Z"/><path class="a4429471-2b42-4cba-a421-dabd071e481d" d="M194.73,87.55a.76.76,0,0,1-.76-.76V52.71L164,35a.76.76,0,0,1,.77-1.31l30.36,17.9a.75.75,0,0,1,.38.65V86.79A.76.76,0,0,1,194.73,87.55Z"/><path class="a4429471-2b42-4cba-a421-dabd071e481d" d="M194.73,53a.76.76,0,0,1-.38-1.42l31.42-18.16a.75.75,0,0,1,1,.27.76.76,0,0,1-.27,1L195.11,52.94A.86.86,0,0,1,194.73,53Z"/><polygon class="a4429471-2b42-4cba-a421-dabd071e481d" points="195.25 52.28 163.84 34.11 163.84 69.9 194.83 87.8 195.25 52.28"/><path class="a4429471-2b42-4cba-a421-dabd071e481d" d="M66.47,214.2a.86.86,0,0,1-.38-.1l-31-17.9a.73.73,0,0,1-.38-.65v-35.8a.73.73,0,0,1,.38-.65l31-17.9a.79.79,0,0,1,.76,0l31,17.9a.73.73,0,0,1,.38.65v35.8a.73.73,0,0,1-.38.65l-31,17.9A.86.86,0,0,1,66.47,214.2ZM36.23,195.11l30.24,17.46,30.24-17.46V160.19L66.47,142.74,36.23,160.19Z"/><path class="a4429471-2b42-4cba-a421-dabd071e481d" d="M66.05,213.19a.76.76,0,0,1-.76-.75V178.35l-30-17.67a.76.76,0,1,1,.77-1.31l30.36,17.9a.76.76,0,0,1,.38.65v34.52A.76.76,0,0,1,66.05,213.19Z"/><path class="a4429471-2b42-4cba-a421-dabd071e481d" d="M66.05,178.68a.77.77,0,0,1-.66-.38.75.75,0,0,1,.28-1L97.09,159.1a.76.76,0,0,1,.76,1.31L66.43,178.58A.75.75,0,0,1,66.05,178.68Z"/><polygon class="a4429471-2b42-4cba-a421-dabd071e481d" points="66.57 177.92 35.16 159.75 35.16 195.54 66.15 213.44 66.57 177.92"/><path class="a4429471-2b42-4cba-a421-dabd071e481d" d="M195.15,214.2a.86.86,0,0,1-.38-.1l-31-17.9a.73.73,0,0,1-.38-.65v-35.8a.73.73,0,0,1,.38-.65l31-17.9a.79.79,0,0,1,.76,0l31,17.9a.74.74,0,0,1,.37.65v35.8a.74.74,0,0,1-.37.65l-31,17.9A.86.86,0,0,1,195.15,214.2Zm-30.24-19.09,30.24,17.46,30.24-17.46V160.19l-30.24-17.45-30.24,17.45Z"/><path class="a4429471-2b42-4cba-a421-dabd071e481d" d="M194.73,213.19a.76.76,0,0,1-.76-.75V178.35l-30-17.67a.76.76,0,0,1,.77-1.31l30.36,17.9a.76.76,0,0,1,.38.65v34.52A.76.76,0,0,1,194.73,213.19Z"/><path class="a4429471-2b42-4cba-a421-dabd071e481d" d="M194.73,178.68a.77.77,0,0,1-.66-.38.75.75,0,0,1,.28-1l31.42-18.17a.76.76,0,0,1,.76,1.31l-31.42,18.17A.75.75,0,0,1,194.73,178.68Z"/><polygon class="a4429471-2b42-4cba-a421-dabd071e481d" points="195.25 177.92 163.84 159.75 163.84 195.54 194.83 213.44 195.25 177.92"/></g><g class="f2bc89f0-91de-4a05-9101-d73df0f9e7b9"><path class="afdcd583-b5e6-4291-9789-6d7bad24a3f2" d="M40.48,75.5A15.45,15.45,0,0,1,25,60.07V43.26a.82.82,0,0,1,.66-.81l14.6-3.11a1,1,0,0,1,.35,0l14.6,3.11a.82.82,0,0,1,.66.81V60.07A15.45,15.45,0,0,1,40.48,75.5ZM26.7,43.93V60.07a13.78,13.78,0,0,0,27.55,0V43.93L40.48,41Z"/><path class="afdcd583-b5e6-4291-9789-6d7bad24a3f2" d="M38.6,61.24A.83.83,0,0,1,38,61l-2.82-2.82a.83.83,0,0,1,0-1.17.82.82,0,0,1,1.17,0l2.82,2.82a.82.82,0,0,1,0,1.17A.83.83,0,0,1,38.6,61.24Z"/><path class="afdcd583-b5e6-4291-9789-6d7bad24a3f2" d="M38.6,61.24A.84.84,0,0,1,38,59.82l6.58-6.58a.83.83,0,0,1,1.17,0,.82.82,0,0,1,0,1.17L39.18,61A.83.83,0,0,1,38.6,61.24Z"/><polygon class="afdcd583-b5e6-4291-9789-6d7bad24a3f2" points="40.48 -4.88 39.73 -4.88 38.25 1.06 42.7 1.06 41.22 -4.88 40.48 -4.88"/><path class="afdcd583-b5e6-4291-9789-6d7bad24a3f2" d="M42.7,1.87H38.25a.8.8,0,0,1-.64-.31.8.8,0,0,1-.15-.7L39-5.07a.81.81,0,0,1,.78-.62h1.49a.82.82,0,0,1,.79.62L43.49.86a.8.8,0,0,1-.15.7A.8.8,0,0,1,42.7,1.87ZM39.29.25h2.37L40.58-4.06h-.21Z"/><path class="afdcd583-b5e6-4291-9789-6d7bad24a3f2" d="M40.48,14.86a.87.87,0,0,1-.41-.11L24.32,5.66a.81.81,0,0,1-.4-.7V-13.23a.81.81,0,0,1,.4-.7L40.07-23a.81.81,0,0,1,.81,0l15.75,9.09a.81.81,0,0,1,.4.7V5a.81.81,0,0,1-.4.7L40.88,14.75A.8.8,0,0,1,40.48,14.86ZM25.54,4.49l14.94,8.62L55.41,4.49V-12.76L40.48-21.38,25.54-12.76ZM56.22,5h0Z"/><circle class="afdcd583-b5e6-4291-9789-6d7bad24a3f2" cx="40.48" cy="116.9" r="2.23"/><path class="afdcd583-b5e6-4291-9789-6d7bad24a3f2" d="M40.48,119.94a3,3,0,1,1,3-3A3,3,0,0,1,40.48,119.94Zm0-4.45a1.42,1.42,0,1,0,1.41,1.41A1.42,1.42,0,0,0,40.48,115.49Z"/><polygon class="afdcd583-b5e6-4291-9789-6d7bad24a3f2" points="40.48 119.13 39.73 119.13 38.25 125.06 42.7 125.06 41.22 119.13 40.48 119.13"/><path class="afdcd583-b5e6-4291-9789-6d7bad24a3f2" d="M42.7,125.88H38.25a.81.81,0,0,1-.64-.32.78.78,0,0,1-.15-.69L39,118.93a.8.8,0,0,1,.78-.61h1.49a.81.81,0,0,1,.79.61l1.48,5.94a.78.78,0,0,1-.15.69A.81.81,0,0,1,42.7,125.88Zm-3.41-1.63h2.37l-1.08-4.31h-.21Z"/><path class="afdcd583-b5e6-4291-9789-6d7bad24a3f2" d="M40.48,138.86a.77.77,0,0,1-.41-.11l-15.75-9.09a.8.8,0,0,1-.4-.7V110.78a.8.8,0,0,1,.4-.7L40.07,101a.83.83,0,0,1,.81,0l15.75,9.1a.8.8,0,0,1,.4.7V129a.8.8,0,0,1-.4.7l-15.75,9.09A.71.71,0,0,1,40.48,138.86ZM25.54,128.49l14.94,8.62,14.93-8.62V111.25l-14.93-8.63-14.94,8.63Zm30.68.47h0Z"/><path class="afdcd583-b5e6-4291-9789-6d7bad24a3f2" d="M40.48,200.41A15.45,15.45,0,0,1,25,185V168.17a.82.82,0,0,1,.66-.81l14.6-3.11a1,1,0,0,1,.35,0l14.6,3.11a.82.82,0,0,1,.66.81V185A15.45,15.45,0,0,1,40.48,200.41ZM26.7,168.84V185a13.78,13.78,0,0,0,27.55,0V168.84l-13.77-2.93Z"/><path class="afdcd583-b5e6-4291-9789-6d7bad24a3f2" d="M38.6,186.14a.82.82,0,0,1-.59-.24.83.83,0,0,1,0-1.17l6.58-6.58a.83.83,0,0,1,1.17,1.17l-6.58,6.58A.82.82,0,0,1,38.6,186.14Z"/></g></svg>