<svg id="a57ece2b-948c-48c9-b25c-981b57f28210" data-name="Layer 1" xmlns="http://www.w3.org/2000/svg" xmlns:xlink="http://www.w3.org/1999/xlink" viewBox="0 0 555 240"><defs><style>.bc72011b-c351-48bf-bb6a-1edf17028857{fill:none;}.a93e3fd7-df4a-475c-9454-a90a39270900{fill:#f3f3f3;}.bc31dd78-a64e-4554-a306-8de71d640c05{clip-path:url(#b93efcdb-9ac6-4073-a3d7-ade39f738077);}.e753b7a5-8ef9-4eff-b5a0-d12edb40c5f2{fill:#e00;}.f10f4b0b-7474-4e5b-9f7e-371aa3a88fe0{fill:#43adaf;}</style><clipPath id="b93efcdb-9ac6-4073-a3d7-ade39f738077"><rect class="bc72011b-c351-48bf-bb6a-1edf17028857" width="555" height="240"/></clipPath></defs><rect class="a93e3fd7-df4a-475c-9454-a90a39270900" width="555" height="240"/><g class="bc31dd78-a64e-4554-a306-8de71d640c05"><path class="e753b7a5-8ef9-4eff-b5a0-d12edb40c5f2" d="M208.34,222.3a4.85,4.85,0,1,1,4.85-4.84A4.84,4.84,0,0,1,208.34,222.3Zm0-7.47a2.63,2.63,0,1,0,2.63,2.63A2.63,2.63,0,0,0,208.34,214.83Z"/><path class="e753b7a5-8ef9-4eff-b5a0-d12edb40c5f2" d="M30.44,134.1A1.11,1.11,0,0,1,29.33,133v-7.47a1.11,1.11,0,1,1,2.22,0V133A1.11,1.11,0,0,1,30.44,134.1Z"/><path class="e753b7a5-8ef9-4eff-b5a0-d12edb40c5f2" d="M34.18,130.37H26.7a1.11,1.11,0,0,1,0-2.22h7.48a1.11,1.11,0,1,1,0,2.22Z"/><path class="e753b7a5-8ef9-4eff-b5a0-d12edb40c5f2" d="M128.16,39.14A1.11,1.11,0,0,1,127.05,38V30.56a1.11,1.11,0,0,1,2.22,0V38A1.11,1.11,0,0,1,128.16,39.14Z"/><path class="e753b7a5-8ef9-4eff-b5a0-d12edb40c5f2" d="M131.9,35.41h-7.47a1.11,1.11,0,0,1,0-2.22h7.47a1.11,1.11,0,0,1,0,2.22Z"/><path class="e753b7a5-8ef9-4eff-b5a0-d12edb40c5f2" d="M304.11,39.14A1.11,1.11,0,0,1,303,38V30.56a1.11,1.11,0,0,1,2.22,0V38A1.11,1.11,0,0,1,304.11,39.14Z"/><path class="e753b7a5-8ef9-4eff-b5a0-d12edb40c5f2" d="M307.85,35.41h-7.48a1.11,1.11,0,0,1,0-2.22h7.48a1.11,1.11,0,0,1,0,2.22Z"/><path class="e753b7a5-8ef9-4eff-b5a0-d12edb40c5f2" d="M94,141.55H83.44a1.11,1.11,0,1,1,0-2.21H94a6.15,6.15,0,0,0,.65-12.27,1.11,1.11,0,0,1-1-1.18v-.19c0-.2,0-.41,0-.62a12.63,12.63,0,0,0-24.22-5,1.13,1.13,0,0,1-1.23.65,8.76,8.76,0,0,0-1.74-.17,9.41,9.41,0,0,0,0,18.81h7.28a1.11,1.11,0,1,1,0,2.21H66.46a11.62,11.62,0,1,1,1.3-23.16A14.85,14.85,0,0,1,95.87,125,8.36,8.36,0,0,1,94,141.55Z"/><path class="e753b7a5-8ef9-4eff-b5a0-d12edb40c5f2" d="M193.51,7.36H152.35a1.11,1.11,0,0,1-1.11-1.11V-19.47a1.11,1.11,0,0,1,1.11-1.11h15.44a1.11,1.11,0,0,1,1.1,1.11,1.11,1.11,0,0,1-1.1,1.11H153.46V5.14H192.4v-23.5H178.08A1.11,1.11,0,0,1,177-19.47a1.11,1.11,0,0,1,1.11-1.11h15.43a1.11,1.11,0,0,1,1.11,1.11V6.25A1.11,1.11,0,0,1,193.51,7.36Z"/><path class="e753b7a5-8ef9-4eff-b5a0-d12edb40c5f2" d="M196.94,12.5h-48a1.11,1.11,0,1,1,0-2.21h48a1.11,1.11,0,1,1,0,2.21Z"/><path class="e753b7a5-8ef9-4eff-b5a0-d12edb40c5f2" d="M16.13,186.92H-25a1.11,1.11,0,0,1-1.11-1.11V160.09A1.11,1.11,0,0,1-25,159H-9.6a1.11,1.11,0,0,1,1.11,1.11,1.11,1.11,0,0,1-1.11,1.1H-23.92V184.7H15V161.19H.69a1.11,1.11,0,1,1,0-2.21H16.13a1.11,1.11,0,0,1,1.11,1.11v25.72A1.11,1.11,0,0,1,16.13,186.92Z"/><path class="e753b7a5-8ef9-4eff-b5a0-d12edb40c5f2" d="M19.56,192.06h-48A1.11,1.11,0,0,1-29.57,191a1.11,1.11,0,0,1,1.11-1.1h48a1.11,1.11,0,1,1,0,2.21Z"/><path class="e753b7a5-8ef9-4eff-b5a0-d12edb40c5f2" d="M259.61,231.4a23.75,23.75,0,1,1,23.75-23.75A23.77,23.77,0,0,1,259.61,231.4Zm0-45.28a21.53,21.53,0,1,0,21.53,21.53A21.55,21.55,0,0,0,259.61,186.12Z"/><path class="e753b7a5-8ef9-4eff-b5a0-d12edb40c5f2" d="M256.37,60.38H238.58a1.11,1.11,0,0,1-1.1-1.11V41.48a1.11,1.11,0,0,1,1.1-1.11h17.79a1.11,1.11,0,0,1,1.11,1.11V59.27A1.11,1.11,0,0,1,256.37,60.38Zm-16.68-2.22h15.57V42.59H239.69Z"/><path class="e753b7a5-8ef9-4eff-b5a0-d12edb40c5f2" d="M256.37,42.59a1.11,1.11,0,0,1-.78-1.89l24.26-24.26a1.09,1.09,0,0,1,1.2-.24,1.11,1.11,0,0,1,.69,1V28.55a1.11,1.11,0,0,1-2.22,0V19.9L257.16,42.27A1.14,1.14,0,0,1,256.37,42.59Z"/><path class="e753b7a5-8ef9-4eff-b5a0-d12edb40c5f2" d="M280.63,18.33H269.31a1.11,1.11,0,1,1,0-2.21h11.32a1.11,1.11,0,1,1,0,2.21Z"/><path class="e753b7a5-8ef9-4eff-b5a0-d12edb40c5f2" d="M259.61,151.25a1.11,1.11,0,0,1-1.11-1.1V108.1a1.11,1.11,0,1,1,2.22,0v42.05A1.11,1.11,0,0,1,259.61,151.25Z"/><path class="e753b7a5-8ef9-4eff-b5a0-d12edb40c5f2" d="M245.05,123.76a1.11,1.11,0,0,1-.78-1.89l14.55-14.55a1.11,1.11,0,1,1,1.57,1.56l-14.55,14.56A1.14,1.14,0,0,1,245.05,123.76Z"/><path class="e753b7a5-8ef9-4eff-b5a0-d12edb40c5f2" d="M274.16,123.76a1.11,1.11,0,0,1-.78-.32l-14.56-14.56a1.11,1.11,0,0,1,1.57-1.56L275,121.87a1.12,1.12,0,0,1,0,1.57A1.14,1.14,0,0,1,274.16,123.76Z"/><path class="e753b7a5-8ef9-4eff-b5a0-d12edb40c5f2" d="M-4.45,277.92a1.15,1.15,0,0,1-.56-.15l-19.6-11.32a1.11,1.11,0,0,1-.56-1V242.85a1.1,1.1,0,0,1,.56-.95L-5,230.57a1.13,1.13,0,0,1,1.11,0L15.71,241.9a1.09,1.09,0,0,1,.55.95v22.64a1.1,1.1,0,0,1-.55,1L-3.9,277.77A1.08,1.08,0,0,1-4.45,277.92Zm-18.5-13.07,18.5,10.68,18.5-10.68V243.49l-18.5-10.68-18.5,10.68Zm38.11.64h0Z"/><path class="e753b7a5-8ef9-4eff-b5a0-d12edb40c5f2" d="M172.93,106.78A23.75,23.75,0,1,1,196.68,83,23.78,23.78,0,0,1,172.93,106.78Zm0-45.28A21.54,21.54,0,1,0,194.46,83,21.56,21.56,0,0,0,172.93,61.5Z"/><path class="e753b7a5-8ef9-4eff-b5a0-d12edb40c5f2" d="M83.75,220.7a1.17,1.17,0,0,1-.54-.14l-21-11.68a1.11,1.11,0,0,1,0-1.94l21-11.68a1.15,1.15,0,0,1,1.08,0l21,11.68a1.11,1.11,0,0,1,0,1.94l-21,11.68A1.14,1.14,0,0,1,83.75,220.7ZM65,207.91l18.74,10.41,18.75-10.41L83.75,197.5Z"/><path class="e753b7a5-8ef9-4eff-b5a0-d12edb40c5f2" d="M11.56,97.81a1.11,1.11,0,0,1-.79-.33,1.12,1.12,0,0,1,0-1.57A21.56,21.56,0,0,0,15,71.46a1.11,1.11,0,1,1,2-.95,23.81,23.81,0,0,1-4.67,27A1.08,1.08,0,0,1,11.56,97.81Z"/><path class="e753b7a5-8ef9-4eff-b5a0-d12edb40c5f2" d="M11.56,65.79a1.11,1.11,0,0,1-.79-.33,21.58,21.58,0,0,0-24.45-4.23,1.11,1.11,0,0,1-1.48-.53,1.11,1.11,0,0,1,.53-1.47,23.79,23.79,0,0,1,27,4.67,1.1,1.1,0,0,1,0,1.56A1.08,1.08,0,0,1,11.56,65.79Z"/><path class="e753b7a5-8ef9-4eff-b5a0-d12edb40c5f2" d="M-4.42,104.43a23.81,23.81,0,0,1-16.83-7,1.12,1.12,0,0,1,0-1.57,1.12,1.12,0,0,1,1.57,0,21.58,21.58,0,0,0,24.46,4.24,1.11,1.11,0,0,1,1,2A23.62,23.62,0,0,1-4.42,104.43Z"/><path class="e753b7a5-8ef9-4eff-b5a0-d12edb40c5f2" d="M15,99.59H10.1A1.11,1.11,0,0,1,9,98.48V93.63a1.11,1.11,0,0,1,2.22,0v3.74H15a1.11,1.11,0,0,1,0,2.22Z"/><path class="e753b7a5-8ef9-4eff-b5a0-d12edb40c5f2" d="M13.34,67.24H8.49a1.11,1.11,0,1,1,0-2.21h3.74V61.28a1.11,1.11,0,0,1,2.22,0v4.85A1.11,1.11,0,0,1,13.34,67.24Z"/><path class="e753b7a5-8ef9-4eff-b5a0-d12edb40c5f2" d="M189.32,259h-7.26a1.11,1.11,0,0,1,0-2.22h6.16v-21.4h-21.4v17.06a1.11,1.11,0,0,1-2.22,0V234.24a1.11,1.11,0,0,1,1.11-1.1h23.61a1.11,1.11,0,0,1,1.11,1.1v23.62A1.11,1.11,0,0,1,189.32,259Z"/><path class="e753b7a5-8ef9-4eff-b5a0-d12edb40c5f2" d="M160.65,180.05a6.37,6.37,0,1,1,6.36-6.37A6.38,6.38,0,0,1,160.65,180.05Zm0-10.52a4.15,4.15,0,1,0,4.14,4.15A4.15,4.15,0,0,0,160.65,169.53Z"/><path class="e753b7a5-8ef9-4eff-b5a0-d12edb40c5f2" d="M171.16,190.56h-21a1.11,1.11,0,0,1-1.1-1.11,11.62,11.62,0,0,1,23.24,0A1.11,1.11,0,0,1,171.16,190.56Zm-19.85-2.22H170a9.41,9.41,0,0,0-18.68,0Z"/><path class="e753b7a5-8ef9-4eff-b5a0-d12edb40c5f2" d="M104.46,58h-42a1.11,1.11,0,0,1-1.11-1.1V40.67a1.11,1.11,0,0,1,1.11-1.1h42a1.1,1.1,0,0,1,1.11,1.1V56.85A1.1,1.1,0,0,1,104.46,58ZM63.53,55.74h39.83v-14H63.53Z"/><path class="e753b7a5-8ef9-4eff-b5a0-d12edb40c5f2" d="M78.59,49.87h-9.7a1.11,1.11,0,0,1,0-2.22h9.7a1.11,1.11,0,0,1,0,2.22Z"/><path class="e753b7a5-8ef9-4eff-b5a0-d12edb40c5f2" d="M98,49.87a1.07,1.07,0,0,1-.78-.32,1.14,1.14,0,0,1,0-1.58,1.12,1.12,0,0,1,1.2-.23,2.21,2.21,0,0,1,.36.23,1.14,1.14,0,0,1,0,1.58,1.38,1.38,0,0,1-.36.23A1.06,1.06,0,0,1,98,49.87Z"/><path class="e753b7a5-8ef9-4eff-b5a0-d12edb40c5f2" d="M558.37,222.3a4.85,4.85,0,1,1,4.84-4.84A4.84,4.84,0,0,1,558.37,222.3Zm0-7.47a2.63,2.63,0,1,0,2.63,2.63A2.63,2.63,0,0,0,558.37,214.83Z"/><path class="e753b7a5-8ef9-4eff-b5a0-d12edb40c5f2" d="M380.47,134.1a1.11,1.11,0,0,1-1.11-1.11v-7.47a1.11,1.11,0,1,1,2.21,0V133A1.1,1.1,0,0,1,380.47,134.1Z"/><path class="e753b7a5-8ef9-4eff-b5a0-d12edb40c5f2" d="M384.2,130.37h-7.47a1.11,1.11,0,1,1,0-2.22h7.47a1.11,1.11,0,1,1,0,2.22Z"/><path class="e753b7a5-8ef9-4eff-b5a0-d12edb40c5f2" d="M478.19,39.14A1.1,1.1,0,0,1,477.08,38V30.56a1.11,1.11,0,1,1,2.21,0V38A1.1,1.1,0,0,1,478.19,39.14Z"/><path class="e753b7a5-8ef9-4eff-b5a0-d12edb40c5f2" d="M481.92,35.41h-7.47a1.11,1.11,0,0,1,0-2.22h7.47a1.11,1.11,0,0,1,0,2.22Z"/><path class="e753b7a5-8ef9-4eff-b5a0-d12edb40c5f2" d="M444,141.55H433.47a1.11,1.11,0,1,1,0-2.21H444a6.15,6.15,0,0,0,.65-12.27,1.12,1.12,0,0,1-1-1.18l0-.19c0-.2,0-.41,0-.62a12.64,12.64,0,0,0-24.23-5,1.12,1.12,0,0,1-1.22.65,8.76,8.76,0,0,0-1.74-.17,9.41,9.41,0,1,0,0,18.81h7.27a1.11,1.11,0,1,1,0,2.21h-7.27a11.62,11.62,0,0,1,0-23.24,11.45,11.45,0,0,1,1.29.08A14.85,14.85,0,0,1,445.89,125,8.36,8.36,0,0,1,444,141.55Z"/><path class="e753b7a5-8ef9-4eff-b5a0-d12edb40c5f2" d="M543.54,7.36H502.38a1.11,1.11,0,0,1-1.11-1.11V-19.47a1.11,1.11,0,0,1,1.11-1.11h15.43a1.11,1.11,0,0,1,1.11,1.11,1.11,1.11,0,0,1-1.11,1.11H503.48V5.14h38.95v-23.5H528.1A1.11,1.11,0,0,1,527-19.47a1.11,1.11,0,0,1,1.11-1.11h15.44a1.11,1.11,0,0,1,1.1,1.11V6.25A1.11,1.11,0,0,1,543.54,7.36Z"/><path class="e753b7a5-8ef9-4eff-b5a0-d12edb40c5f2" d="M547,12.5H499a1.11,1.11,0,1,1,0-2.21h48a1.11,1.11,0,1,1,0,2.21Z"/><path class="e753b7a5-8ef9-4eff-b5a0-d12edb40c5f2" d="M366.15,186.92H325a1.11,1.11,0,0,1-1.1-1.11V160.09A1.1,1.1,0,0,1,325,159h15.44a1.11,1.11,0,1,1,0,2.21H326.1V184.7H365V161.19H350.72a1.11,1.11,0,1,1,0-2.21h15.43a1.11,1.11,0,0,1,1.11,1.11v25.72A1.11,1.11,0,0,1,366.15,186.92Z"/><path class="e753b7a5-8ef9-4eff-b5a0-d12edb40c5f2" d="M369.58,192.06h-48a1.11,1.11,0,0,1,0-2.21h48a1.11,1.11,0,1,1,0,2.21Z"/><path class="e753b7a5-8ef9-4eff-b5a0-d12edb40c5f2" d="M327.68,5.89h-3.13a1.11,1.11,0,0,1-1.11-1.11v-9.7A1.11,1.11,0,0,1,324.55-6h12.94a1.11,1.11,0,0,1,1.11,1.11,1.11,1.11,0,0,1-1.11,1.11H325.66V3.68h2a1.11,1.11,0,1,1,0,2.21Z"/><path class="e753b7a5-8ef9-4eff-b5a0-d12edb40c5f2" d="M345.57,277.92a1.08,1.08,0,0,1-.55-.15l-19.61-11.32a1.1,1.1,0,0,1-.55-1V242.85a1.09,1.09,0,0,1,.55-.95L345,230.57a1.13,1.13,0,0,1,1.11,0l19.6,11.33a1.08,1.08,0,0,1,.56.95v22.64a1.09,1.09,0,0,1-.56,1l-19.6,11.32A1.12,1.12,0,0,1,345.57,277.92Zm-18.49-13.07,18.49,10.68,18.5-10.68V243.49l-18.5-10.68-18.49,10.68Zm38.1.64h0Z"/><path class="e753b7a5-8ef9-4eff-b5a0-d12edb40c5f2" d="M523,106.78A23.75,23.75,0,1,1,546.7,83,23.77,23.77,0,0,1,523,106.78Zm0-45.28A21.54,21.54,0,1,0,544.49,83,21.56,21.56,0,0,0,523,61.5Z"/><path class="e753b7a5-8ef9-4eff-b5a0-d12edb40c5f2" d="M433.78,220.7a1.14,1.14,0,0,1-.54-.14l-21-11.68a1.11,1.11,0,0,1,0-1.94l21-11.68a1.15,1.15,0,0,1,1.08,0l21,11.68a1.11,1.11,0,0,1,0,1.94l-21,11.68A1.17,1.17,0,0,1,433.78,220.7ZM415,207.91l18.74,10.41,18.74-10.41L433.78,197.5Z"/><path class="e753b7a5-8ef9-4eff-b5a0-d12edb40c5f2" d="M361.58,97.81a1.08,1.08,0,0,1-.78-.33,1.12,1.12,0,0,1,0-1.57A21.59,21.59,0,0,0,365,71.46a1.11,1.11,0,1,1,2-.95,23.81,23.81,0,0,1-4.67,27A1.11,1.11,0,0,1,361.58,97.81Z"/><path class="e753b7a5-8ef9-4eff-b5a0-d12edb40c5f2" d="M361.58,65.79a1.08,1.08,0,0,1-.78-.33,21.59,21.59,0,0,0-24.46-4.23,1.1,1.1,0,0,1-.94-2,23.79,23.79,0,0,1,27,4.67,1.11,1.11,0,0,1-.79,1.89Z"/><path class="e753b7a5-8ef9-4eff-b5a0-d12edb40c5f2" d="M325.11,91.5a1.11,1.11,0,0,1-1-.63,23.79,23.79,0,0,1,4.67-27,1.11,1.11,0,1,1,1.57,1.56,21.58,21.58,0,0,0-4.24,24.46,1.09,1.09,0,0,1-.52,1.47A1.05,1.05,0,0,1,325.11,91.5Z"/><path class="e753b7a5-8ef9-4eff-b5a0-d12edb40c5f2" d="M345.61,104.43a23.8,23.8,0,0,1-16.83-7,1.11,1.11,0,1,1,1.57-1.57,21.56,21.56,0,0,0,24.45,4.24,1.11,1.11,0,0,1,1.48.53,1.1,1.1,0,0,1-.53,1.47A23.54,23.54,0,0,1,345.61,104.43Z"/><path class="e753b7a5-8ef9-4eff-b5a0-d12edb40c5f2" d="M365,99.59h-4.85A1.11,1.11,0,0,1,359,98.48V93.63a1.11,1.11,0,0,1,2.22,0v3.74H365a1.11,1.11,0,1,1,0,2.22Z"/><path class="e753b7a5-8ef9-4eff-b5a0-d12edb40c5f2" d="M327.79,101.2a1.1,1.1,0,0,1-1.11-1.1V95.24a1.11,1.11,0,0,1,1.11-1.11h4.85a1.11,1.11,0,0,1,0,2.22h-3.75v3.75A1.1,1.1,0,0,1,327.79,101.2Z"/><path class="e753b7a5-8ef9-4eff-b5a0-d12edb40c5f2" d="M363.36,67.24h-4.85a1.11,1.11,0,1,1,0-2.21h3.74V61.28a1.11,1.11,0,0,1,2.22,0v4.85A1.11,1.11,0,0,1,363.36,67.24Z"/><path class="e753b7a5-8ef9-4eff-b5a0-d12edb40c5f2" d="M331,68.86a1.11,1.11,0,0,1-1.11-1.11V64h-3.74a1.11,1.11,0,0,1,0-2.22H331a1.11,1.11,0,0,1,1.11,1.11v4.85A1.11,1.11,0,0,1,331,68.86Z"/><path class="e753b7a5-8ef9-4eff-b5a0-d12edb40c5f2" d="M539.35,259h-7.27a1.11,1.11,0,0,1,0-2.22h6.16v-21.4h-21.4v17.06a1.11,1.11,0,0,1-2.22,0V234.24a1.11,1.11,0,0,1,1.11-1.1h23.62a1.11,1.11,0,0,1,1.11,1.1v23.62A1.11,1.11,0,0,1,539.35,259Z"/><path class="e753b7a5-8ef9-4eff-b5a0-d12edb40c5f2" d="M510.67,180.05a6.37,6.37,0,1,1,6.37-6.37A6.37,6.37,0,0,1,510.67,180.05Zm0-10.52a4.15,4.15,0,1,0,4.15,4.15A4.15,4.15,0,0,0,510.67,169.53Z"/><path class="e753b7a5-8ef9-4eff-b5a0-d12edb40c5f2" d="M521.18,190.56h-21a1.11,1.11,0,0,1-1.11-1.11,11.62,11.62,0,1,1,23.24,0A1.11,1.11,0,0,1,521.18,190.56Zm-19.85-2.22H520a9.41,9.41,0,0,0-18.68,0Z"/><path class="e753b7a5-8ef9-4eff-b5a0-d12edb40c5f2" d="M454.49,58H412.44a1.1,1.1,0,0,1-1.1-1.1V40.67a1.1,1.1,0,0,1,1.1-1.1h42.05a1.11,1.11,0,0,1,1.11,1.1V56.85A1.11,1.11,0,0,1,454.49,58Zm-40.94-2.21h39.83v-14H413.55Z"/><path class="e753b7a5-8ef9-4eff-b5a0-d12edb40c5f2" d="M428.61,49.87h-9.7a1.11,1.11,0,0,1,0-2.22h9.7a1.11,1.11,0,1,1,0,2.22Z"/><path class="e753b7a5-8ef9-4eff-b5a0-d12edb40c5f2" d="M448,49.87a1.14,1.14,0,0,1-.78-.32,1.21,1.21,0,0,1-.25-.37,1.18,1.18,0,0,1-.07-.43,1.09,1.09,0,0,1,.32-.78,1.12,1.12,0,0,1,1.2-.23,1,1,0,0,1,.36.23,1.19,1.19,0,0,1,.24.36,1.06,1.06,0,0,1,.09.42,1.14,1.14,0,0,1-.33.8,1,1,0,0,1-.36.23A.93.93,0,0,1,448,49.87Z"/><path class="f10f4b0b-7474-4e5b-9f7e-371aa3a88fe0" d="M30.44,39.14a4.85,4.85,0,1,1,4.85-4.84A4.84,4.84,0,0,1,30.44,39.14Zm0-7.47a2.63,2.63,0,1,0,2.63,2.63A2.63,2.63,0,0,0,30.44,31.67Z"/><path class="f10f4b0b-7474-4e5b-9f7e-371aa3a88fe0" d="M128.16,223.55a1.11,1.11,0,0,1-1.11-1.11V215a1.11,1.11,0,0,1,2.22,0v7.48A1.11,1.11,0,0,1,128.16,223.55Z"/><path class="f10f4b0b-7474-4e5b-9f7e-371aa3a88fe0" d="M131.9,219.81h-7.47a1.11,1.11,0,1,1,0-2.22h7.47a1.11,1.11,0,0,1,0,2.22Z"/><path class="f10f4b0b-7474-4e5b-9f7e-371aa3a88fe0" d="M304.11,223.55a1.11,1.11,0,0,1-1.11-1.11V215a1.11,1.11,0,0,1,2.22,0v7.48A1.11,1.11,0,0,1,304.11,223.55Z"/><path class="f10f4b0b-7474-4e5b-9f7e-371aa3a88fe0" d="M307.85,219.81h-7.48a1.11,1.11,0,0,1,0-2.22h7.48a1.11,1.11,0,0,1,0,2.22Z"/><path class="f10f4b0b-7474-4e5b-9f7e-371aa3a88fe0" d="M208.34,134.1a1.1,1.1,0,0,1-1.1-1.11v-7.47a1.11,1.11,0,1,1,2.21,0V133A1.1,1.1,0,0,1,208.34,134.1Z"/><path class="f10f4b0b-7474-4e5b-9f7e-371aa3a88fe0" d="M212.08,130.37h-7.47a1.11,1.11,0,1,1,0-2.22h7.47a1.11,1.11,0,1,1,0,2.22Z"/><path class="f10f4b0b-7474-4e5b-9f7e-371aa3a88fe0" d="M210.22,166.62a1.06,1.06,0,0,1-.42-.09,1,1,0,0,1-.6-.6,1.27,1.27,0,0,1,0-.83,1.45,1.45,0,0,1,.24-.38,2.21,2.21,0,0,1,.36-.23,1.12,1.12,0,0,1,1.2.23,1,1,0,0,1,.25.38.93.93,0,0,1,.09.42,1,1,0,0,1-.09.41.94.94,0,0,1-.25.37A1.07,1.07,0,0,1,210.22,166.62Z"/><path class="f10f4b0b-7474-4e5b-9f7e-371aa3a88fe0" d="M285.3,165.5a1.11,1.11,0,0,1,1.12-1.1h0a1.11,1.11,0,0,1,1.1,1.1h0a1.11,1.11,0,0,1-1.1,1.12h0A1.12,1.12,0,0,1,285.3,165.5Zm-10.88,0a1.11,1.11,0,0,1,1.11-1.1h0a1.11,1.11,0,0,1,1.12,1.1h0a1.12,1.12,0,0,1-1.12,1.12h0A1.11,1.11,0,0,1,274.42,165.5Zm-10.87,0a1.1,1.1,0,0,1,1.09-1.1h0a1.09,1.09,0,0,1,1.1,1.1h0a1.1,1.1,0,0,1-1.1,1.12h0A1.11,1.11,0,0,1,263.55,165.5Zm-10.89,0a1.1,1.1,0,0,1,1.1-1.1h0a1.11,1.11,0,0,1,1.11,1.1h0a1.11,1.11,0,0,1-1.11,1.12h0A1.11,1.11,0,0,1,252.66,165.5Zm-10.89,0a1.11,1.11,0,0,1,1.12-1.1h0a1.11,1.11,0,0,1,1.1,1.1h0a1.11,1.11,0,0,1-1.1,1.12h0A1.12,1.12,0,0,1,241.77,165.5Zm-10.89,0a1.11,1.11,0,0,1,1.12-1.1h0a1.11,1.11,0,0,1,1.1,1.1h0a1.11,1.11,0,0,1-1.1,1.12h0A1.12,1.12,0,0,1,230.88,165.5Zm-10.87,0a1.1,1.1,0,0,1,1.1-1.1h0a1.13,1.13,0,0,1,1.12,1.1h0a1.13,1.13,0,0,1-1.12,1.12h0A1.1,1.1,0,0,1,220,165.5Z"/><path class="f10f4b0b-7474-4e5b-9f7e-371aa3a88fe0" d="M297.29,166.62a1.16,1.16,0,0,1-.78-.32,1.2,1.2,0,0,1-.32-.8,1.06,1.06,0,0,1,.09-.4,1.21,1.21,0,0,1,.23-.38,1.19,1.19,0,0,1,1.58,0,1.21,1.21,0,0,1,.23.38,1.06,1.06,0,0,1,.09.4,1.2,1.2,0,0,1-.32.8A1.17,1.17,0,0,1,297.29,166.62Z"/><path class="f10f4b0b-7474-4e5b-9f7e-371aa3a88fe0" d="M84.09,66.18A1.08,1.08,0,0,1,83,65.07a1.14,1.14,0,0,1,.32-.78,1.16,1.16,0,0,1,1.57,0,1.06,1.06,0,0,1,.32.78,1.1,1.1,0,0,1-.32.8A1.18,1.18,0,0,1,84.09,66.18Z"/><path class="f10f4b0b-7474-4e5b-9f7e-371aa3a88fe0" d="M83,75.71a1.1,1.1,0,0,1,1.11-1.1h0a1.1,1.1,0,0,1,1.1,1.1h0a1.1,1.1,0,0,1-1.1,1.11h0A1.1,1.1,0,0,1,83,75.71Z"/><path class="f10f4b0b-7474-4e5b-9f7e-371aa3a88fe0" d="M84.09,87.46a1.11,1.11,0,1,1,.78-1.89,1.12,1.12,0,0,1,0,1.57A1.14,1.14,0,0,1,84.09,87.46Z"/><path class="f10f4b0b-7474-4e5b-9f7e-371aa3a88fe0" d="M72.69,86.35a1.11,1.11,0,0,1,1.12-1.1h0a1.1,1.1,0,0,1,1.1,1.1h0a1.11,1.11,0,0,1-1.1,1.11h0A1.11,1.11,0,0,1,72.69,86.35Zm-10.28,0a1.1,1.1,0,0,1,1.11-1.1h0a1.1,1.1,0,0,1,1.1,1.1h0a1.1,1.1,0,0,1-1.1,1.11h0A1.1,1.1,0,0,1,62.41,86.35Zm-10.27,0a1.09,1.09,0,0,1,1.1-1.1h0a1.12,1.12,0,0,1,1.12,1.1h0a1.12,1.12,0,0,1-1.12,1.11h0A1.09,1.09,0,0,1,52.14,86.35Zm-10.28,0A1.09,1.09,0,0,1,43,85.25h0a1.11,1.11,0,0,1,1.12,1.1h0A1.11,1.11,0,0,1,43,87.46h0A1.1,1.1,0,0,1,41.86,86.35Z"/><path class="f10f4b0b-7474-4e5b-9f7e-371aa3a88fe0" d="M32.67,87.46a1.16,1.16,0,0,1-.78-.32,1.12,1.12,0,0,1,0-1.57,1.14,1.14,0,0,1,1.56,0,1.08,1.08,0,0,1,0,1.57A1.09,1.09,0,0,1,32.67,87.46Z"/><path class="f10f4b0b-7474-4e5b-9f7e-371aa3a88fe0" d="M84.09,238.69a1.1,1.1,0,0,1-.79-.32,1,1,0,0,1-.23-.36,1.06,1.06,0,0,1-.09-.42,1.17,1.17,0,0,1,.32-.8,1.16,1.16,0,0,1,1.57,0,1.09,1.09,0,0,1,.32.8.91.91,0,0,1-.09.42,1,1,0,0,1-.23.36A1.1,1.1,0,0,1,84.09,238.69Z"/><path class="f10f4b0b-7474-4e5b-9f7e-371aa3a88fe0" d="M173.27,28.34a1.11,1.11,0,0,1-.43-.07,1.61,1.61,0,0,1-.35-.25,1.4,1.4,0,0,1-.25-.35,1.25,1.25,0,0,1-.07-.43,1.16,1.16,0,0,1,.07-.42,1.05,1.05,0,0,1,.25-.36,1.29,1.29,0,0,1,.35-.24,1.12,1.12,0,0,1,1.21.24,1.06,1.06,0,0,1,.32.78,1.25,1.25,0,0,1-.07.43,1,1,0,0,1-.25.35A1,1,0,0,1,173.27,28.34Z"/><path class="f10f4b0b-7474-4e5b-9f7e-371aa3a88fe0" d="M172.17,37.85a1.11,1.11,0,0,1,1.1-1.12h0a1.12,1.12,0,0,1,1.12,1.12h0a1.11,1.11,0,0,1-1.12,1.1h0A1.11,1.11,0,0,1,172.17,37.85Z"/><path class="f10f4b0b-7474-4e5b-9f7e-371aa3a88fe0" d="M173.27,49.55a1.33,1.33,0,0,1-.43-.07,1.61,1.61,0,0,1-.35-.25,1.4,1.4,0,0,1-.25-.35,1.29,1.29,0,0,1-.07-.43,1.23,1.23,0,0,1,.07-.42,1.05,1.05,0,0,1,.25-.36,1.61,1.61,0,0,1,.35-.25,1.11,1.11,0,0,1,1.21.25,1.06,1.06,0,0,1,.32.78,1.1,1.1,0,0,1-.32.78A1,1,0,0,1,173.27,49.55Z"/><path class="f10f4b0b-7474-4e5b-9f7e-371aa3a88fe0" d="M259.34,73.31a1.18,1.18,0,0,1-.78-.32,1.1,1.1,0,0,1,1.21-1.8.77.77,0,0,1,.35.23,1.05,1.05,0,0,1,.25,1.2.94.94,0,0,1-.25.37,1,1,0,0,1-.35.23A1.07,1.07,0,0,1,259.34,73.31Z"/><path class="f10f4b0b-7474-4e5b-9f7e-371aa3a88fe0" d="M258.24,82.8a1.11,1.11,0,0,1,1.1-1.1h0a1.11,1.11,0,0,1,1.12,1.1h0a1.12,1.12,0,0,1-1.12,1.12h0A1.11,1.11,0,0,1,258.24,82.8Z"/><path class="f10f4b0b-7474-4e5b-9f7e-371aa3a88fe0" d="M259.34,94.52a1.18,1.18,0,0,1-.78-.32,1.11,1.11,0,0,1-.32-.8,1.09,1.09,0,0,1,1.53-1,1,1,0,0,1,.35.23,1.11,1.11,0,0,1,.34.78,1.09,1.09,0,0,1-.34.8,1,1,0,0,1-.35.23A1.07,1.07,0,0,1,259.34,94.52Z"/><path class="f10f4b0b-7474-4e5b-9f7e-371aa3a88fe0" d="M179.48,202.67a1.09,1.09,0,0,1-1.1-1.1,1,1,0,0,1,.07-.42,1,1,0,0,1,.25-.36,1.4,1.4,0,0,1,.35-.25,1.24,1.24,0,0,1,.85,0,1.05,1.05,0,0,1,.36.25,1,1,0,0,1,.25.36,1.25,1.25,0,0,1,.08.42,1.11,1.11,0,0,1-.33.78,1.05,1.05,0,0,1-.36.25A1.23,1.23,0,0,1,179.48,202.67Z"/><path class="f10f4b0b-7474-4e5b-9f7e-371aa3a88fe0" d="M178.38,212.18a1.11,1.11,0,0,1,1.1-1.12h0a1.11,1.11,0,0,1,1.11,1.12h0a1.11,1.11,0,0,1-1.11,1.1h0A1.1,1.1,0,0,1,178.38,212.18Z"/><path class="f10f4b0b-7474-4e5b-9f7e-371aa3a88fe0" d="M179.48,223.88a.92.92,0,0,1-.43-.09,1,1,0,0,1-.35-.23,1.45,1.45,0,0,1-.25-.36,1,1,0,0,1-.07-.42,1.05,1.05,0,0,1,.07-.43,1,1,0,0,1,.25-.35,1,1,0,0,1,.35-.25,1.14,1.14,0,0,1,.85,0,.84.84,0,0,1,.36.25,1,1,0,0,1,.25.35,1.17,1.17,0,0,1,0,.85,1.45,1.45,0,0,1-.25.36.8.8,0,0,1-.36.23A.91.91,0,0,1,179.48,223.88Z"/><path class="f10f4b0b-7474-4e5b-9f7e-371aa3a88fe0" d="M83,5a1.1,1.1,0,0,1,1.11-1.1h0A1.1,1.1,0,0,1,85.19,5h0a1.1,1.1,0,0,1-1.1,1.11h0A1.1,1.1,0,0,1,83,5Z"/><path class="f10f4b0b-7474-4e5b-9f7e-371aa3a88fe0" d="M84.09,16.71A1.09,1.09,0,0,1,83,15.61a1.19,1.19,0,0,1,.32-.8,1.18,1.18,0,0,1,1.57,0,1.1,1.1,0,0,1,.32.8,1.06,1.06,0,0,1-.32.78A1.14,1.14,0,0,1,84.09,16.71Z"/><path class="f10f4b0b-7474-4e5b-9f7e-371aa3a88fe0" d="M136,166.62a1.06,1.06,0,0,1-.42-.09,1.38,1.38,0,0,1-.36-.23,1.41,1.41,0,0,1-.25-.37,1.1,1.1,0,0,1-.07-.41,1.09,1.09,0,0,1,.07-.42,1.47,1.47,0,0,1,.25-.38,2.21,2.21,0,0,1,.36-.23,1.13,1.13,0,0,1,1.2.23,1,1,0,0,1,.25.38,1.09,1.09,0,0,1,.07.42,1.1,1.1,0,0,1-.07.41.94.94,0,0,1-.25.37A1.09,1.09,0,0,1,136,166.62Z"/><path class="f10f4b0b-7474-4e5b-9f7e-371aa3a88fe0" d="M124.54,165.52a1.11,1.11,0,0,1,1.1-1.12h0a1.12,1.12,0,0,1,1.12,1.12h0a1.11,1.11,0,0,1-1.12,1.1h0A1.11,1.11,0,0,1,124.54,165.52Zm-10.39,0a1.11,1.11,0,0,1,1.1-1.12h0a1.12,1.12,0,0,1,1.12,1.12h0a1.11,1.11,0,0,1-1.12,1.1h0A1.11,1.11,0,0,1,114.15,165.52Zm-10.39,0a1.12,1.12,0,0,1,1.12-1.12h0a1.11,1.11,0,0,1,1.1,1.12h0a1.11,1.11,0,0,1-1.1,1.1h0A1.11,1.11,0,0,1,103.76,165.52Zm-10.39,0a1.11,1.11,0,0,1,1.11-1.12h0a1.11,1.11,0,0,1,1.1,1.12h0a1.1,1.1,0,0,1-1.1,1.1h0A1.11,1.11,0,0,1,93.37,165.52Z"/><path class="f10f4b0b-7474-4e5b-9f7e-371aa3a88fe0" d="M84.09,166.62a1.18,1.18,0,0,1-.79-.32,1.15,1.15,0,0,1-.32-.8,1.18,1.18,0,0,1,.32-.78,1.16,1.16,0,0,1,.37-.23,1,1,0,0,1,.83,0,1.16,1.16,0,0,1,.37.23,1.09,1.09,0,0,1,.32.78,1.07,1.07,0,0,1-.32.8A1.14,1.14,0,0,1,84.09,166.62Z"/><path class="f10f4b0b-7474-4e5b-9f7e-371aa3a88fe0" d="M83,176.14a1.11,1.11,0,0,1,1.11-1.1h0a1.1,1.1,0,0,1,1.1,1.1h0a1.11,1.11,0,0,1-1.1,1.12h0A1.11,1.11,0,0,1,83,176.14Z"/><path class="f10f4b0b-7474-4e5b-9f7e-371aa3a88fe0" d="M84.09,187.9a1.15,1.15,0,0,1-.79-.32,1.14,1.14,0,0,1,0-1.58,1.16,1.16,0,0,1,1.57,0,1.14,1.14,0,0,1,0,1.58A1.14,1.14,0,0,1,84.09,187.9Z"/><path class="f10f4b0b-7474-4e5b-9f7e-371aa3a88fe0" d="M259.61,239.15a1.32,1.32,0,0,1-.43-.09,1.12,1.12,0,0,1-.35-.23,1,1,0,0,1-.25-.37,1.16,1.16,0,0,1-.09-.41,1.18,1.18,0,0,1,.09-.43,1,1,0,0,1,.25-.37A1.11,1.11,0,0,1,260,237a1.38,1.38,0,0,1,.36.23,1,1,0,0,1,.23.37.88.88,0,0,1,.09.43.85.85,0,0,1-.09.41,1,1,0,0,1-.23.37,1.69,1.69,0,0,1-.36.23A1.27,1.27,0,0,1,259.61,239.15Z"/><path class="f10f4b0b-7474-4e5b-9f7e-371aa3a88fe0" d="M380.47,39.14a4.85,4.85,0,1,1,4.84-4.84A4.85,4.85,0,0,1,380.47,39.14Zm0-7.47a2.63,2.63,0,1,0,2.62,2.63A2.63,2.63,0,0,0,380.47,31.67Z"/><path class="f10f4b0b-7474-4e5b-9f7e-371aa3a88fe0" d="M478.19,223.55a1.11,1.11,0,0,1-1.11-1.11V215a1.11,1.11,0,0,1,2.21,0v7.48A1.11,1.11,0,0,1,478.19,223.55Z"/><path class="f10f4b0b-7474-4e5b-9f7e-371aa3a88fe0" d="M481.92,219.81h-7.47a1.11,1.11,0,1,1,0-2.22h7.47a1.11,1.11,0,0,1,0,2.22Z"/><path class="f10f4b0b-7474-4e5b-9f7e-371aa3a88fe0" d="M562.1,130.37h-7.47a1.11,1.11,0,0,1,0-2.22h7.47a1.11,1.11,0,1,1,0,2.22Z"/><path class="f10f4b0b-7474-4e5b-9f7e-371aa3a88fe0" d="M434.11,66.18a1.25,1.25,0,0,1-.42-.08,1.29,1.29,0,0,1-.36-.25,1.07,1.07,0,0,1-.33-.78,1.11,1.11,0,0,1,.09-.43,1.15,1.15,0,0,1,.24-.35.92.92,0,0,1,.36-.23,1,1,0,0,1,.85,0,1,1,0,0,1,.35.23,1,1,0,0,1,.25.35,1.11,1.11,0,0,1,.09.43,1.15,1.15,0,0,1-1.12,1.11Z"/><path class="f10f4b0b-7474-4e5b-9f7e-371aa3a88fe0" d="M433,75.71a1.09,1.09,0,0,1,1.1-1.1h0a1.09,1.09,0,0,1,1.1,1.1h0a1.09,1.09,0,0,1-1.1,1.11h0A1.09,1.09,0,0,1,433,75.71Z"/><path class="f10f4b0b-7474-4e5b-9f7e-371aa3a88fe0" d="M434.11,87.46a1.18,1.18,0,0,1-.78-.32,1,1,0,0,1-.24-.37,1,1,0,0,1-.09-.42.91.91,0,0,1,.09-.41,1,1,0,0,1,.24-.37.92.92,0,0,1,.36-.23,1.11,1.11,0,0,1,1.2.23.94.94,0,0,1,.25.37.91.91,0,0,1,.09.41,1,1,0,0,1-.09.42.94.94,0,0,1-.25.37,1.67,1.67,0,0,1-.35.24A1.26,1.26,0,0,1,434.11,87.46Z"/><path class="f10f4b0b-7474-4e5b-9f7e-371aa3a88fe0" d="M422.71,86.35a1.11,1.11,0,0,1,1.12-1.1h0a1.11,1.11,0,0,1,1.12,1.1h0a1.11,1.11,0,0,1-1.12,1.11h0A1.11,1.11,0,0,1,422.71,86.35Zm-10.26,0a1.09,1.09,0,0,1,1.09-1.1h0a1.11,1.11,0,0,1,1.12,1.1h0a1.11,1.11,0,0,1-1.12,1.11h0A1.1,1.1,0,0,1,412.45,86.35Zm-10.29,0a1.1,1.1,0,0,1,1.1-1.1h0a1.11,1.11,0,0,1,1.12,1.1h0a1.11,1.11,0,0,1-1.12,1.11h0A1.11,1.11,0,0,1,402.16,86.35Zm-10.29,0a1.1,1.1,0,0,1,1.1-1.1h0a1.1,1.1,0,0,1,1.12,1.1h0A1.1,1.1,0,0,1,393,87.46h0A1.11,1.11,0,0,1,391.87,86.35Z"/><path class="f10f4b0b-7474-4e5b-9f7e-371aa3a88fe0" d="M382.71,87.46a1.18,1.18,0,0,1-.43-.08,1.34,1.34,0,0,1-.37-.25,1.1,1.1,0,0,1-.32-.78,1.14,1.14,0,0,1,.32-.78,1,1,0,0,1,.37-.23,1.13,1.13,0,0,1,1.21.23,1.63,1.63,0,0,1,.23.35,1.27,1.27,0,0,1,.09.43,1.2,1.2,0,0,1-.32.78A1.12,1.12,0,0,1,382.71,87.46Z"/><path class="f10f4b0b-7474-4e5b-9f7e-371aa3a88fe0" d="M434.11,238.69a1.27,1.27,0,0,1-.42-.09,1.23,1.23,0,0,1-.36-.23,1.07,1.07,0,0,1-.24-.38.9.9,0,0,1-.09-.4,1.2,1.2,0,0,1,.33-.8,1.23,1.23,0,0,1,.36-.23,1.14,1.14,0,0,1,.85,0,1.32,1.32,0,0,1,.35.23.94.94,0,0,1,.25.37,1,1,0,0,1,.09.43.9.9,0,0,1-.09.4,1,1,0,0,1-.25.38,1.32,1.32,0,0,1-.35.23A1.27,1.27,0,0,1,434.11,238.69Z"/><path class="f10f4b0b-7474-4e5b-9f7e-371aa3a88fe0" d="M523.31,28.34a1.15,1.15,0,0,1-.45-.07,1.61,1.61,0,0,1-.35-.25,1.19,1.19,0,0,1-.32-.78,1.27,1.27,0,0,1,.09-.42.92.92,0,0,1,.23-.36,1.29,1.29,0,0,1,.35-.24,1.16,1.16,0,0,1,.86,0,.88.88,0,0,1,.35.24,1.06,1.06,0,0,1,0,1.56,1,1,0,0,1-.35.25A1,1,0,0,1,523.31,28.34Z"/><path class="f10f4b0b-7474-4e5b-9f7e-371aa3a88fe0" d="M522.19,37.85a1.11,1.11,0,0,1,1.1-1.12h0a1.12,1.12,0,0,1,1.12,1.12h0a1.11,1.11,0,0,1-1.12,1.1h0A1.11,1.11,0,0,1,522.19,37.85Z"/><path class="f10f4b0b-7474-4e5b-9f7e-371aa3a88fe0" d="M523.31,49.55a1.09,1.09,0,0,1-.8-.32,1.19,1.19,0,0,1-.32-.78,1.27,1.27,0,0,1,.09-.42.8.8,0,0,1,.23-.36,1.61,1.61,0,0,1,.35-.25,1.27,1.27,0,0,1,.86,0,1,1,0,0,1,.35.25,1.08,1.08,0,0,1,.34.78,1.12,1.12,0,0,1-.34.78,1,1,0,0,1-.35.25A1.14,1.14,0,0,1,523.31,49.55Z"/><path class="f10f4b0b-7474-4e5b-9f7e-371aa3a88fe0" d="M344.58,119.75a1,1,0,0,1-.42-.07,1.51,1.51,0,0,1-.36-.24,1.12,1.12,0,0,1,0-1.57,1.15,1.15,0,0,1,1.21-.24,1,1,0,0,1,.35.24,1,1,0,0,1,.34.78,1.27,1.27,0,0,1-.09.43,1.17,1.17,0,0,1-.25.36,1,1,0,0,1-.35.24A1.08,1.08,0,0,1,344.58,119.75Z"/><path class="f10f4b0b-7474-4e5b-9f7e-371aa3a88fe0" d="M343.48,129.26a1.11,1.11,0,0,1,1.1-1.12h0a1.12,1.12,0,0,1,1.12,1.12h0a1.11,1.11,0,0,1-1.12,1.1h0A1.11,1.11,0,0,1,343.48,129.26Z"/><path class="f10f4b0b-7474-4e5b-9f7e-371aa3a88fe0" d="M344.58,141a1.09,1.09,0,0,1-.78-.32,1,1,0,0,1-.32-.78,1.06,1.06,0,0,1,.32-.78,1.13,1.13,0,0,1,1.21-.25,1.12,1.12,0,0,1,.35.25,1,1,0,0,1,.34.78,1.32,1.32,0,0,1-.09.43,1,1,0,0,1-.25.35.82.82,0,0,1-.35.23A1,1,0,0,1,344.58,141Z"/><path class="f10f4b0b-7474-4e5b-9f7e-371aa3a88fe0" d="M529.51,202.67a1.27,1.27,0,0,1-.44-.07,1.4,1.4,0,0,1-.35-.25,1.32,1.32,0,0,1-.23-.35,1.11,1.11,0,0,1-.09-.43,1.06,1.06,0,0,1,.09-.42.75.75,0,0,1,.23-.36,1.4,1.4,0,0,1,.35-.25,1.24,1.24,0,0,1,.85,0,1.05,1.05,0,0,1,.36.25,1.07,1.07,0,0,1,.33.78,1.31,1.31,0,0,1-.08.43,1.4,1.4,0,0,1-.25.35,1.05,1.05,0,0,1-.36.25A1.07,1.07,0,0,1,529.51,202.67Z"/><path class="f10f4b0b-7474-4e5b-9f7e-371aa3a88fe0" d="M528.4,212.18a1.11,1.11,0,0,1,1.11-1.12h0a1.11,1.11,0,0,1,1.1,1.12h0a1.1,1.1,0,0,1-1.1,1.1h0A1.11,1.11,0,0,1,528.4,212.18Z"/><path class="f10f4b0b-7474-4e5b-9f7e-371aa3a88fe0" d="M529.51,223.88a1.1,1.1,0,0,1-.79-.32,1,1,0,0,1-.23-.36,1.06,1.06,0,0,1-.09-.42,1.07,1.07,0,0,1,.09-.43,1,1,0,0,1,.23-.35,1,1,0,0,1,.35-.25,1.14,1.14,0,0,1,.85,0,.84.84,0,0,1,.36.25,1,1,0,0,1,.25.35,1.26,1.26,0,0,1,.08.43,1.12,1.12,0,0,1-.33.78.8.8,0,0,1-.36.23A.85.85,0,0,1,529.51,223.88Z"/><path class="f10f4b0b-7474-4e5b-9f7e-371aa3a88fe0" d="M433,5a1.09,1.09,0,0,1,1.1-1.1h0a1.09,1.09,0,0,1,1.1,1.1h0a1.09,1.09,0,0,1-1.1,1.11h0A1.09,1.09,0,0,1,433,5Z"/><path class="f10f4b0b-7474-4e5b-9f7e-371aa3a88fe0" d="M434.11,16.71a1.18,1.18,0,0,1-.78-.32,1,1,0,0,1-.24-.37,1,1,0,0,1-.09-.41.93.93,0,0,1,.09-.42,1.07,1.07,0,0,1,.24-.38,1.14,1.14,0,0,1,1.21-.23,2.12,2.12,0,0,1,.35.23,1,1,0,0,1,.25.38.93.93,0,0,1,.09.42,1,1,0,0,1-.09.41.94.94,0,0,1-.25.37,1.32,1.32,0,0,1-.35.23A1.07,1.07,0,0,1,434.11,16.71Z"/><path class="f10f4b0b-7474-4e5b-9f7e-371aa3a88fe0" d="M486.05,166.62a1.16,1.16,0,0,1-.78-.32,1,1,0,0,1-.23-.37,1.13,1.13,0,0,1-.09-.43,1.06,1.06,0,0,1,.09-.4,1,1,0,0,1,.23-.38,1.38,1.38,0,0,1,.36-.23,1,1,0,0,1,.85,0,1.28,1.28,0,0,1,.37.23,1.21,1.21,0,0,1,.23.38,1.06,1.06,0,0,1,.09.4,1.2,1.2,0,0,1-.32.8A1.17,1.17,0,0,1,486.05,166.62Z"/><path class="f10f4b0b-7474-4e5b-9f7e-371aa3a88fe0" d="M474.56,165.5a1.11,1.11,0,0,1,1.12-1.1h0a1.11,1.11,0,0,1,1.1,1.1h0a1.11,1.11,0,0,1-1.1,1.12h0A1.12,1.12,0,0,1,474.56,165.5Zm-10.39,0a1.11,1.11,0,0,1,1.12-1.1h0a1.11,1.11,0,0,1,1.1,1.1h0a1.11,1.11,0,0,1-1.1,1.12h0A1.12,1.12,0,0,1,464.17,165.5Zm-10.39,0a1.11,1.11,0,0,1,1.12-1.1h0a1.11,1.11,0,0,1,1.1,1.1h0a1.11,1.11,0,0,1-1.1,1.12h0A1.12,1.12,0,0,1,453.78,165.5Zm-10.39,0a1.11,1.11,0,0,1,1.12-1.1h0a1.11,1.11,0,0,1,1.1,1.1h0a1.11,1.11,0,0,1-1.1,1.12h0A1.11,1.11,0,0,1,443.39,165.5Z"/><path class="f10f4b0b-7474-4e5b-9f7e-371aa3a88fe0" d="M434.11,166.62a1.06,1.06,0,0,1-.42-.09,1.23,1.23,0,0,1-.36-.23,1,1,0,0,1-.24-.37,1,1,0,0,1-.09-.43,1.06,1.06,0,0,1,.09-.42,1.19,1.19,0,0,1,.24-.36,1.23,1.23,0,0,1,.36-.23,1.14,1.14,0,0,1,.85,0,1.32,1.32,0,0,1,.35.23,1.1,1.1,0,0,1,.34.78,1,1,0,0,1-.09.43.94.94,0,0,1-.25.37,1.32,1.32,0,0,1-.35.23A1.07,1.07,0,0,1,434.11,166.62Z"/><path class="f10f4b0b-7474-4e5b-9f7e-371aa3a88fe0" d="M433,176.16a1.1,1.1,0,0,1,1.1-1.12h0a1.1,1.1,0,0,1,1.1,1.12h0a1.1,1.1,0,0,1-1.1,1.1h0A1.1,1.1,0,0,1,433,176.16Z"/><path class="f10f4b0b-7474-4e5b-9f7e-371aa3a88fe0" d="M434.11,187.9a1.18,1.18,0,0,1-.78-.32,1.12,1.12,0,0,1-.33-.78.93.93,0,0,1,.09-.42,1.07,1.07,0,0,1,.24-.38,1.12,1.12,0,0,1,1.21-.23,1.63,1.63,0,0,1,.35.23,1,1,0,0,1,.25.38.93.93,0,0,1,.09.42,1.09,1.09,0,0,1-.34.78,1.32,1.32,0,0,1-.35.23A1.27,1.27,0,0,1,434.11,187.9Z"/><path d="M356.89,79.58h-2.74a8.53,8.53,0,0,0-1.73-4.17l1.94-1.94a1.11,1.11,0,1,0-1.57-1.57l-1.93,1.94a8.61,8.61,0,0,0-4.18-1.73V69.37a1.11,1.11,0,0,0-2.22,0v2.74a8.61,8.61,0,0,0-4.17,1.73l-1.94-1.94a1.11,1.11,0,0,0-1.57,1.57l1.94,1.94A8.63,8.63,0,0,0,337,79.58h-2.74a1.11,1.11,0,0,0,0,2.22H337A8.63,8.63,0,0,0,338.72,86l-1.94,1.94a1.12,1.12,0,0,0,0,1.57,1.16,1.16,0,0,0,.79.32,1.11,1.11,0,0,0,.78-.32l1.94-1.94a8.61,8.61,0,0,0,4.17,1.73V92a1.11,1.11,0,0,0,2.22,0V89.27a8.61,8.61,0,0,0,4.18-1.73l1.93,1.94a1.14,1.14,0,0,0,.79.32,1.11,1.11,0,0,0,.78-1.89L352.42,86a8.57,8.57,0,0,0,1.73-4.17h2.74a1.11,1.11,0,1,0,0-2.22ZM346.69,87h0a6.74,6.74,0,0,1-1.11.1,6.94,6.94,0,0,1-1.11-.1h0l-.33-.07h0a6.44,6.44,0,0,1-4.8-4.8v0l-.06-.32v0h0a6.89,6.89,0,0,1,0-2.22h0a3.43,3.43,0,0,1,.06-.34h0A6.44,6.44,0,1,1,346.69,87Z"/><path d="M93.14,28.25h-12a4.35,4.35,0,1,0,0,2.21h4.4v2.13a1.11,1.11,0,1,0,2.21,0V30.46h1v2.13a1.11,1.11,0,0,0,2.22,0V30.46h1V31a1.11,1.11,0,1,0,2.21,0V29.35A1.1,1.1,0,0,0,93.14,28.25ZM77,31.48a2.13,2.13,0,1,1,2.13-2.13A2.12,2.12,0,0,1,77,31.48Z"/><path d="M128.16,134.1a4.85,4.85,0,1,1,4.84-4.84A4.84,4.84,0,0,1,128.16,134.1Zm0-7.47a2.63,2.63,0,1,0,2.63,2.63A2.63,2.63,0,0,0,128.16,126.63Z"/><path d="M208.34,39.14a4.85,4.85,0,1,1,4.85-4.84A4.84,4.84,0,0,1,208.34,39.14Zm0-7.47A2.63,2.63,0,1,0,211,34.3,2.63,2.63,0,0,0,208.34,31.67Z"/><path d="M30.44,223.55a4.85,4.85,0,1,1,4.85-4.85A4.85,4.85,0,0,1,30.44,223.55Zm0-7.48a2.63,2.63,0,1,0,2.63,2.63A2.63,2.63,0,0,0,30.44,216.07Z"/><path d="M304.11,134.1a4.85,4.85,0,1,1,4.84-4.84A4.84,4.84,0,0,1,304.11,134.1Zm0-7.47a2.63,2.63,0,1,0,2.63,2.63A2.63,2.63,0,0,0,304.11,126.63Z"/><path d="M78.59,148a1.11,1.11,0,0,1-1.11-1.11V132.36a1.11,1.11,0,1,1,2.22,0v14.55A1.11,1.11,0,0,1,78.59,148Z"/><path d="M81.82,136.7a1.13,1.13,0,0,1-.78-.32l-2.45-2.46-2.45,2.46a1.11,1.11,0,1,1-1.57-1.57l3.23-3.24a1.16,1.16,0,0,1,1.57,0l3.24,3.24a1.12,1.12,0,0,1,0,1.57A1.14,1.14,0,0,1,81.82,136.7Z"/><path d="M7,169.77H-3a1.11,1.11,0,0,1-1.11-1.11A1.11,1.11,0,0,1-3,167.55H7a1.11,1.11,0,1,1,0,2.22Z"/><path d="M7,174.06H-3A1.11,1.11,0,0,1-4.13,173,1.11,1.11,0,0,1-3,171.84H7a1.11,1.11,0,1,1,0,2.22Z"/><path d="M7,178.34H-3a1.11,1.11,0,0,1-1.11-1.11A1.11,1.11,0,0,1-3,176.13H7a1.11,1.11,0,1,1,0,2.21Z"/><path d="M-1.22,23.68a14.1,14.1,0,0,1-14-12.29,1.11,1.11,0,0,1,1-1.24,1.13,1.13,0,0,1,1.24,1A11.88,11.88,0,0,0-1.22,21.46,11.83,11.83,0,0,0,10.61,9.64V4.06L-3.08,1A1.12,1.12,0,0,1-3.94-.07V-10.58A1.32,1.32,0,0,0-5.26-11.9a1.32,1.32,0,0,0-1.32,1.32V9.64a1.1,1.1,0,0,1-.79,1.06,1.11,1.11,0,0,1-1.25-.46C-11,6.52-13.56,4-15,4a1.11,1.11,0,0,1-1.11-1.11A1.11,1.11,0,0,1-15,1.8c2.13,0,4.39,2.16,6.17,4.38V-10.58a3.53,3.53,0,0,1,3.53-3.53,3.53,3.53,0,0,1,3.53,3.53V-1L12,2.08a1.12,1.12,0,0,1,.87,1.09V9.64A14.06,14.06,0,0,1-1.22,23.68Z"/><path d="M256.37,215.23a1.11,1.11,0,0,1-.78-.33l-6.47-6.47a1.11,1.11,0,0,1,1.57-1.56l5.68,5.68,12.16-12.15a1.09,1.09,0,0,1,1.56,0,1.1,1.1,0,0,1,0,1.57L257.16,214.9A1.11,1.11,0,0,1,256.37,215.23Z"/><path d="M280.63,58.76H261.22a1.11,1.11,0,0,1,0-2.21h18.3V35a1.11,1.11,0,0,1,2.22,0V57.66A1.11,1.11,0,0,1,280.63,58.76Z"/><path d="M240.2,37.74a1.11,1.11,0,0,1-1.11-1.11V17.23a1.11,1.11,0,0,1,1.11-1.11h22.64a1.11,1.11,0,1,1,0,2.21H241.31v18.3A1.11,1.11,0,0,1,240.2,37.74Z"/><path d="M172.93,95.35a1.08,1.08,0,0,1-.55-.15l-9.71-5.6a1.12,1.12,0,0,1-.55-1V77.43a1.12,1.12,0,0,1,.55-1l9.71-5.6a1.1,1.1,0,0,1,1.11,0l9.7,5.6a1.12,1.12,0,0,1,.55,1V88.64a1.12,1.12,0,0,1-.55,1l-9.7,5.6A1.15,1.15,0,0,1,172.93,95.35ZM164.34,88l8.59,5,8.6-5V78.07l-8.6-5-8.59,5Zm18.29.64h0Z"/><path d="M83.75,230a1.17,1.17,0,0,1-.54-.14l-21-11.68a1.11,1.11,0,0,1-.43-1.51,1.12,1.12,0,0,1,1.51-.43l20.48,11.39,20.49-11.39a1.11,1.11,0,0,1,1.08,1.94l-21,11.68A1.14,1.14,0,0,1,83.75,230Z"/><path d="M192.18,179.24h-21a1.11,1.11,0,1,1,0-2.22h19.91V148.51H162.56v15.06a1.11,1.11,0,1,1-2.21,0V147.4a1.11,1.11,0,0,1,1.11-1.11h30.72a1.11,1.11,0,0,1,1.11,1.11v30.73A1.11,1.11,0,0,1,192.18,179.24Z"/><path d="M478.19,134.1a4.85,4.85,0,1,1,4.84-4.84A4.85,4.85,0,0,1,478.19,134.1Zm0-7.47a2.63,2.63,0,1,0,2.62,2.63A2.63,2.63,0,0,0,478.19,126.63Z"/><path d="M558.37,39.14a4.85,4.85,0,1,1,4.84-4.84A4.84,4.84,0,0,1,558.37,39.14Zm0-7.47A2.63,2.63,0,1,0,561,34.3,2.63,2.63,0,0,0,558.37,31.67Z"/><path d="M380.47,223.55a4.85,4.85,0,1,1,4.84-4.85A4.85,4.85,0,0,1,380.47,223.55Zm0-7.48a2.63,2.63,0,1,0,2.62,2.63A2.63,2.63,0,0,0,380.47,216.07Z"/><path d="M428.61,148a1.11,1.11,0,0,1-1.1-1.11V132.36a1.11,1.11,0,1,1,2.21,0v14.55A1.11,1.11,0,0,1,428.61,148Z"/><path d="M431.85,136.7a1.1,1.1,0,0,1-.78-.32l-2.46-2.46-2.44,2.46a1.11,1.11,0,1,1-1.57-1.57l3.23-3.24a1.16,1.16,0,0,1,1.57,0l3.23,3.24a1.11,1.11,0,0,1-.78,1.89Z"/><path d="M345.58,161.2a1.06,1.06,0,0,1-.78-.34.78.78,0,0,1-.25-.36,1,1,0,0,1-.09-.42,1.08,1.08,0,0,1,.34-.78,1.1,1.1,0,0,1,1.2-.23,1,1,0,0,1,.36.23,1.16,1.16,0,0,1,.23.37.82.82,0,0,1,.09.41,1.06,1.06,0,0,1-.32.78,1.45,1.45,0,0,1-.36.25A1.27,1.27,0,0,1,345.58,161.2Z"/><path d="M357,169.77H347a1.11,1.11,0,0,1,0-2.22h10a1.11,1.11,0,0,1,0,2.22Z"/><path d="M357,174.06H347a1.11,1.11,0,0,1,0-2.22h10a1.11,1.11,0,0,1,0,2.22Z"/><path d="M357,178.34H347a1.11,1.11,0,0,1,0-2.21h10a1.11,1.11,0,0,1,0,2.21Z"/><path d="M333.45,178a1.09,1.09,0,0,1-.56-.15,1.11,1.11,0,0,1-.55-1V169a1.12,1.12,0,0,1,.55-1,1.11,1.11,0,0,1,1.1,0l7,3.94a1.12,1.12,0,0,1,.57,1,1.09,1.09,0,0,1-.57,1l-7,4A1.14,1.14,0,0,1,333.45,178Zm1.11-7.1V175l3.62-2Z"/><path d="M348.81,23.68a14.1,14.1,0,0,1-14-12.29,1.11,1.11,0,1,1,2.2-.27,11.89,11.89,0,0,0,23.67-1.48V4.06L347,1a1.12,1.12,0,0,1-.87-1.09V-10.58a1.32,1.32,0,0,0-1.32-1.32,1.32,1.32,0,0,0-1.31,1.32V9.64a1.11,1.11,0,0,1-.8,1.06,1.1,1.1,0,0,1-1.24-.46C339,6.52,336.47,4,335.06,4a1.11,1.11,0,0,1,0-2.22c2.13,0,4.4,2.15,6.17,4.37V-10.58a3.54,3.54,0,0,1,3.53-3.53,3.54,3.54,0,0,1,3.54,3.53V-1l13.69,3a1.12,1.12,0,0,1,.86,1.09V9.64A14.06,14.06,0,0,1,348.81,23.68Z"/><path d="M333.65,8.42a1.1,1.1,0,0,1-.64-.2,3.54,3.54,0,0,1,2.05-6.42,1.11,1.11,0,1,1,0,2.22,1.31,1.31,0,0,0-.76,2.39,1.11,1.11,0,0,1-.65,2Z"/><path d="M335.86,12.36a1.11,1.11,0,0,1-1.1-1A4.38,4.38,0,0,0,333,8.21a1.11,1.11,0,0,1,1.3-1.8A6.62,6.62,0,0,1,337,11.14a1.12,1.12,0,0,1-1,1.22Z"/><path d="M523,95.35a1.12,1.12,0,0,1-.56-.15l-9.7-5.6a1.12,1.12,0,0,1-.55-1V77.43a1.12,1.12,0,0,1,.55-1l9.7-5.6a1.1,1.1,0,0,1,1.11,0l9.7,5.6a1.11,1.11,0,0,1,.56,1V88.64a1.11,1.11,0,0,1-.56,1l-9.7,5.6A1.08,1.08,0,0,1,523,95.35ZM514.36,88l8.6,5,8.59-5V78.07l-8.59-5-8.6,5Zm18.3.64h0Z"/><path d="M433.78,230a1.14,1.14,0,0,1-.54-.14l-21-11.68a1.11,1.11,0,0,1,1.07-1.94l20.49,11.39,20.48-11.39a1.12,1.12,0,0,1,1.51.43,1.1,1.1,0,0,1-.43,1.51l-21,11.68A1.17,1.17,0,0,1,433.78,230Z"/><path d="M542.21,179.24h-21a1.11,1.11,0,1,1,0-2.22H541.1V148.51H512.59v15.06a1.11,1.11,0,0,1-2.22,0V147.4a1.11,1.11,0,0,1,1.11-1.11h30.73a1.11,1.11,0,0,1,1.1,1.11v30.73A1.11,1.11,0,0,1,542.21,179.24Z"/><path d="M443.17,28.25h-12a4.35,4.35,0,1,0,0,2.21h4.4v2.13a1.11,1.11,0,0,0,2.22,0V30.46h1v2.13a1.11,1.11,0,1,0,2.21,0V30.46h1V31a1.11,1.11,0,0,0,2.22,0V29.35A1.11,1.11,0,0,0,443.17,28.25ZM427,31.48a2.13,2.13,0,1,1,2.12-2.13A2.13,2.13,0,0,1,427,31.48Z"/><path d="M6.87,79.58H4.13A8.63,8.63,0,0,0,2.4,75.41l1.94-1.94A1.11,1.11,0,0,0,2.77,71.9L.83,73.84a8.61,8.61,0,0,0-4.17-1.73V69.37a1.11,1.11,0,0,0-1.11-1.11,1.11,1.11,0,0,0-1.11,1.11v2.74a8.53,8.53,0,0,0-4.17,1.73l-1.94-1.94a1.12,1.12,0,0,0-1.57,0,1.12,1.12,0,0,0,0,1.57l1.94,1.94A8.53,8.53,0,0,0-13,79.58h-2.74a1.11,1.11,0,0,0-1.11,1.11,1.11,1.11,0,0,0,1.11,1.11H-13A8.53,8.53,0,0,0-11.3,86l-1.94,1.94a1.12,1.12,0,0,0,0,1.57,1.13,1.13,0,0,0,.78.32,1.14,1.14,0,0,0,.79-.32l1.94-1.94a8.53,8.53,0,0,0,4.17,1.73V92a1.11,1.11,0,0,0,1.11,1.11A1.11,1.11,0,0,0-3.34,92V89.27A8.61,8.61,0,0,0,.83,87.54l1.94,1.94a1.12,1.12,0,0,0,1.57,0,1.12,1.12,0,0,0,0-1.57L2.4,86A8.67,8.67,0,0,0,4.13,81.8H6.87a1.11,1.11,0,1,0,0-2.22ZM-3.34,87h0a6.74,6.74,0,0,1-1.11.1A6.74,6.74,0,0,1-5.56,87h0L-5.91,87h0a6.47,6.47,0,0,1-4.8-4.8v0c0-.11,0-.21-.07-.32v0h0a6.74,6.74,0,0,1-.1-1.11,6.74,6.74,0,0,1,.1-1.11h0v0c0-.11,0-.22.07-.33h0a6.44,6.44,0,0,1,6.27-5A6.44,6.44,0,0,1,2,80.69,6.44,6.44,0,0,1-3.34,87Z"/></g></svg>