<svg id="a3ac9307-f6f9-4d5d-b682-f0f77a0e5cff" data-name="Layer 1" xmlns="http://www.w3.org/2000/svg" xmlns:xlink="http://www.w3.org/1999/xlink" viewBox="0 0 262 180"><defs><style>.bec028af-7c2e-45b8-8408-7d2b6cd969ee{fill:none;}.a1bebf10-d76c-442e-8209-2cda491175b1{clip-path:url(#a63a8315-c222-4cd6-89b6-24e720033d6a);}.b4ca6bce-8466-41ff-b578-4f0934e6b653{fill:#4d4d4d;}.a7311ba8-e81d-49ab-a7a2-5db1e8807ea7{clip-path:url(#a3b72f04-1eb7-48cd-b77e-3bbadf6d81a6);}.ecec904a-988d-4609-a544-7510c5fe4ac6{fill:#fab6b6;}.b57d1fc5-9128-4362-93a9-85792bc090a0{fill:#e00;}</style><clipPath id="a63a8315-c222-4cd6-89b6-24e720033d6a"><rect class="bec028af-7c2e-45b8-8408-7d2b6cd969ee" width="262" height="180" rx="3"/></clipPath><clipPath id="a3b72f04-1eb7-48cd-b77e-3bbadf6d81a6"><rect class="bec028af-7c2e-45b8-8408-7d2b6cd969ee" x="-283" width="262" height="180" rx="3"/></clipPath></defs><g class="a1bebf10-d76c-442e-8209-2cda491175b1"><path class="b4ca6bce-8466-41ff-b578-4f0934e6b653" d="M160.51,27.81H136.62a.83.83,0,0,1-.83-.83V12.37a.83.83,0,0,1,.83-.83h14.25l5.07-5.06a.83.83,0,0,1,1.42.58v4.48h3.15a.81.81,0,0,1,.59.24.87.87,0,0,1,.24.59V27A.83.83,0,0,1,160.51,27.81Zm-23.07-1.66h22.24v-13h-3.15a.82.82,0,0,1-.59-.24.85.85,0,0,1-.24-.59V9.07L151.8,13a.78.78,0,0,1-.58.24H137.44Z"/><path class="b4ca6bce-8466-41ff-b578-4f0934e6b653" d="M132.63,15.86H126a.83.83,0,0,1-.83-.83V.41A.82.82,0,0,1,126-.42h3.15V-4.88a.83.83,0,0,1,.51-.77.81.81,0,0,1,.9.18L135.63-.4h14.26a.83.83,0,0,1,.83.83v8a.83.83,0,1,1-1.66,0V1.26H135.29A.83.83,0,0,1,134.7,1l-3.89-3.89V.43a.79.79,0,0,1-.25.58.79.79,0,0,1-.58.25h0l-3.15,0v13h5.81a.83.83,0,0,1,0,1.66Z"/><path class="b4ca6bce-8466-41ff-b578-4f0934e6b653" d="M93.33,54.36a.74.74,0,0,1-.32-.07.83.83,0,0,1-.51-.76V49.05H89.35a.74.74,0,0,1-.59-.24.82.82,0,0,1-.24-.59V33.61a.83.83,0,0,1,.83-.83h23.89a.83.83,0,0,1,.83.83V48.22a.83.83,0,0,1-.83.83H99l-5.06,5.06A.83.83,0,0,1,93.33,54.36Zm0-7a.82.82,0,0,1,.59.24.85.85,0,0,1,.24.59v3.3l3.89-3.89a.82.82,0,0,1,.59-.24h13.77v-13H90.18v13Z"/><path class="b4ca6bce-8466-41ff-b578-4f0934e6b653" d="M119.88,66.3a.82.82,0,0,1-.59-.24L114.23,61H100a.83.83,0,0,1-.83-.83v-8a.83.83,0,1,1,1.66,0v7.13h13.77a.83.83,0,0,1,.59.25l3.89,3.89V60.16a.83.83,0,0,1,.24-.58.64.64,0,0,1,.59-.25l3.15,0v-13h-5.81a.83.83,0,0,1,0-1.66h6.64a.83.83,0,0,1,.83.83V60.18a.87.87,0,0,1-.24.59.75.75,0,0,1-.59.24h-3.15v4.47a.83.83,0,0,1-.51.77A.91.91,0,0,1,119.88,66.3Z"/><path class="b4ca6bce-8466-41ff-b578-4f0934e6b653" d="M186.18,26.48a.71.71,0,0,1-.32-.07.82.82,0,0,1-.51-.76V18.81l-4.92,0a.9.9,0,0,1-.59-.24.83.83,0,0,1-.25-.59V-3.56a.83.83,0,0,1,.83-.83h34.52a.83.83,0,0,1,.83.83V18a.83.83,0,0,1-.83.83H194.19l-7.43,7.43A.86.86,0,0,1,186.18,26.48Zm0-9.33a.86.86,0,0,1,.58.24A.82.82,0,0,1,187,18v5.67l6.26-6.26a.85.85,0,0,1,.59-.24h20.26V-2.73H181.25v19.9l4.92,0Z"/><path class="b4ca6bce-8466-41ff-b578-4f0934e6b653" d="M178.29,65H143.78a.83.83,0,0,1-.83-.83V42.61a.83.83,0,0,1,.83-.83h20.74L172,34.35a.87.87,0,0,1,.91-.18.84.84,0,0,1,.51.77v6.84l4.92,0h0a.82.82,0,0,1,.83.83V64.15A.83.83,0,0,1,178.29,65ZM144.6,63.32h32.86V43.42l-4.92,0h0a.82.82,0,0,1-.83-.83V36.94l-6.26,6.26a.83.83,0,0,1-.58.24H144.6Z"/><path class="b4ca6bce-8466-41ff-b578-4f0934e6b653" d="M269.37,27.81h-23.9a.83.83,0,0,1-.83-.83V12.37a.83.83,0,0,1,.83-.83h14.26l5.07-5.06a.81.81,0,0,1,.9-.18.83.83,0,0,1,.51.76v4.48h3.15a.78.78,0,0,1,.59.24.83.83,0,0,1,.25.59V27A.84.84,0,0,1,269.37,27.81ZM246.3,26.15h22.24v-13h-3.16a.78.78,0,0,1-.58-.24.82.82,0,0,1-.25-.59V9.07L260.66,13a.82.82,0,0,1-.59.24H246.3Z"/><path class="b4ca6bce-8466-41ff-b578-4f0934e6b653" d="M241.49,15.86h-6.64A.83.83,0,0,1,234,15V.41a.83.83,0,0,1,.25-.59.8.8,0,0,1,.58-.24H238V-4.88a.84.84,0,0,1,.52-.77.82.82,0,0,1,.9.18L244.49-.4h14.26a.83.83,0,0,1,.83.83v8a.83.83,0,0,1-1.66,0V1.26H244.14a.79.79,0,0,1-.58-.25l-3.9-3.89V.43a.78.78,0,0,1-.24.58.83.83,0,0,1-.59.25h0l-3.15,0v13h5.81a.83.83,0,1,1,0,1.66Z"/><path class="b4ca6bce-8466-41ff-b578-4f0934e6b653" d="M202.19,54.36a.71.71,0,0,1-.32-.07.83.83,0,0,1-.51-.76V49.05h-3.15a.73.73,0,0,1-.59-.24.83.83,0,0,1-.25-.59V33.61a.83.83,0,0,1,.83-.83h23.9a.83.83,0,0,1,.83.83V48.22a.83.83,0,0,1-.83.83H207.84l-5.07,5.06A.83.83,0,0,1,202.19,54.36Zm0-7a.78.78,0,0,1,.58.24.82.82,0,0,1,.25.59v3.3l3.89-3.89a.81.81,0,0,1,.59-.24h13.77v-13H199v13h3.16Z"/><path class="b4ca6bce-8466-41ff-b578-4f0934e6b653" d="M228.74,66.3a.82.82,0,0,1-.59-.24L223.08,61H208.82a.83.83,0,0,1-.83-.83v-8a.83.83,0,0,1,1.66,0v7.13h13.78a.79.79,0,0,1,.58.25l3.9,3.89V60.16a.78.78,0,0,1,.24-.58.64.64,0,0,1,.59-.25l3.15,0v-13h-5.81a.83.83,0,0,1,0-1.66h6.64a.83.83,0,0,1,.83.83V60.18a.83.83,0,0,1-.25.59.73.73,0,0,1-.58.24h-3.15v4.47a.84.84,0,0,1-.52.77A.85.85,0,0,1,228.74,66.3Z"/><path class="b4ca6bce-8466-41ff-b578-4f0934e6b653" d="M287.15,65H252.63a.83.83,0,0,1-.83-.83V42.61a.83.83,0,0,1,.83-.83h20.75l7.43-7.43a.85.85,0,0,1,.9-.18.84.84,0,0,1,.51.77v6.84l4.92,0h0a.83.83,0,0,1,.58.24.83.83,0,0,1,.25.59V64.15A.84.84,0,0,1,287.15,65Zm-33.69-1.66h32.86V43.42l-4.92,0h0a.83.83,0,0,1-.58-.24.83.83,0,0,1-.25-.59V36.94l-6.25,6.26a.85.85,0,0,1-.59.24H253.46Z"/><path class="b4ca6bce-8466-41ff-b578-4f0934e6b653" d="M51.65,27.81H27.76a.83.83,0,0,1-.83-.83V12.37a.83.83,0,0,1,.83-.83H42l5.07-5.06A.81.81,0,0,1,48,6.3a.83.83,0,0,1,.51.76v4.48h3.15a.81.81,0,0,1,.59.24.82.82,0,0,1,.24.59V27A.83.83,0,0,1,51.65,27.81ZM28.59,26.15H50.82v-13H47.67a.78.78,0,0,1-.58-.24.82.82,0,0,1-.25-.59V9.07L43,13a.82.82,0,0,1-.59.24H28.59Z"/><path class="b4ca6bce-8466-41ff-b578-4f0934e6b653" d="M23.78,15.86H17.14a.83.83,0,0,1-.83-.83V.41a.87.87,0,0,1,.24-.59.82.82,0,0,1,.59-.24h3.15V-4.88a.83.83,0,0,1,.51-.77.83.83,0,0,1,.91.18L26.78-.4H41a.83.83,0,0,1,.83.83v8a.83.83,0,0,1-1.66,0V1.26H26.43A.79.79,0,0,1,25.85,1L22-2.88V.43a.83.83,0,0,1-.24.58.83.83,0,0,1-.59.25h0L18,1.24v13h5.81a.83.83,0,0,1,0,1.66Z"/><path class="b4ca6bce-8466-41ff-b578-4f0934e6b653" d="M-15.53,54.36a.7.7,0,0,1-.31-.07.84.84,0,0,1-.52-.76V49.05h-3.15a.71.71,0,0,1-.58-.24.83.83,0,0,1-.25-.59V33.61a.83.83,0,0,1,.83-.83H4.39a.84.84,0,0,1,.83.83V48.22a.84.84,0,0,1-.83.83H-9.87l-5.07,5.06A.83.83,0,0,1-15.53,54.36Zm0-7a.82.82,0,0,1,.59.24.81.81,0,0,1,.24.59v3.3l3.9-3.89a.78.78,0,0,1,.58-.24H3.56v-13H-18.68v13Z"/><path class="b4ca6bce-8466-41ff-b578-4f0934e6b653" d="M11,66.3a.82.82,0,0,1-.58-.24L5.37,61H-8.89a.83.83,0,0,1-.83-.83v-8a.83.83,0,0,1,.83-.83.83.83,0,0,1,.83.83v7.13H5.71a.82.82,0,0,1,.59.25l3.89,3.89V60.16a.79.79,0,0,1,.25-.58.62.62,0,0,1,.59-.25l3.15,0v-13H8.37a.83.83,0,0,1,0-1.66H15a.83.83,0,0,1,.83.83V60.18a.83.83,0,0,1-.25.59A.75.75,0,0,1,15,61H11.85v4.47a.83.83,0,0,1-.51.77A.87.87,0,0,1,11,66.3Z"/><path class="b4ca6bce-8466-41ff-b578-4f0934e6b653" d="M77.32,26.48a.71.71,0,0,1-.32-.07.82.82,0,0,1-.51-.76V18.81l-4.92,0a.92.92,0,0,1-.59-.24.82.82,0,0,1-.24-.59V-3.56a.83.83,0,0,1,.83-.83h34.51a.83.83,0,0,1,.83.83V18a.83.83,0,0,1-.83.83H85.33l-7.42,7.43A.87.87,0,0,1,77.32,26.48Zm0-9.33a.83.83,0,0,1,.58.24.83.83,0,0,1,.25.59v5.67l6.25-6.26a.87.87,0,0,1,.59-.24h20.26V-2.73H72.4v19.9l4.92,0Z"/><path class="b4ca6bce-8466-41ff-b578-4f0934e6b653" d="M69.43,65H34.92a.83.83,0,0,1-.83-.83V42.61a.83.83,0,0,1,.83-.83H55.67l7.43-7.43a.85.85,0,0,1,.9-.18.84.84,0,0,1,.51.77v6.84l4.92,0A1,1,0,0,1,70,42a.82.82,0,0,1,.24.59V64.15A.83.83,0,0,1,69.43,65ZM35.75,63.32H68.6V43.42l-4.91,0h0a.83.83,0,0,1-.58-.24.83.83,0,0,1-.25-.59V36.94L56.6,43.2a.87.87,0,0,1-.59.24H35.75Z"/><path class="b4ca6bce-8466-41ff-b578-4f0934e6b653" d="M160.51,106.13H136.62a.83.83,0,0,1-.83-.83V90.7a.83.83,0,0,1,.83-.83h14.25l5.07-5.07a.83.83,0,0,1,1.42.59v4.47h3.15a.83.83,0,0,1,.59.25.83.83,0,0,1,.24.58V105.3A.83.83,0,0,1,160.51,106.13Zm-23.07-1.66h22.24v-13l-3.15,0a.84.84,0,0,1-.59-.25.83.83,0,0,1-.24-.58V87.39l-3.9,3.89a.79.79,0,0,1-.58.25H137.44Z"/><path class="b4ca6bce-8466-41ff-b578-4f0934e6b653" d="M132.63,94.18H126a.83.83,0,0,1-.83-.83V78.73a.78.78,0,0,1,.24-.58.81.81,0,0,1,.59-.24h3.15V73.44a.83.83,0,0,1,.51-.77.81.81,0,0,1,.9.18l5.07,5.07h14.26a.83.83,0,0,1,.83.83v8a.83.83,0,0,1-1.66,0V79.58H135.29a.87.87,0,0,1-.59-.24l-3.89-3.9v3.31a.83.83,0,0,1-.25.59.79.79,0,0,1-.59.24h-3.15v13h5.81a.83.83,0,0,1,0,1.66Z"/><path class="b4ca6bce-8466-41ff-b578-4f0934e6b653" d="M93.33,132.68a.91.91,0,0,1-.32-.06.83.83,0,0,1-.51-.77v-4.48H89.35a1,1,0,0,1-.59-.24.81.81,0,0,1-.24-.59V111.94a.83.83,0,0,1,.83-.83h23.89a.83.83,0,0,1,.83.83v14.6a.83.83,0,0,1-.83.83H99l-5.06,5.07A.87.87,0,0,1,93.33,132.68Zm0-7a.82.82,0,0,1,.83.83v3.31l3.89-3.9a.87.87,0,0,1,.59-.24h13.77V112.77H90.18v13Z"/><path class="b4ca6bce-8466-41ff-b578-4f0934e6b653" d="M119.88,144.63a.83.83,0,0,1-.59-.25l-5.06-5.06H100a.83.83,0,0,1-.83-.83v-8a.83.83,0,0,1,1.66,0v7.14h13.77a.82.82,0,0,1,.59.24l3.89,3.89v-3.3a.87.87,0,0,1,.24-.59.82.82,0,0,1,.59-.24H123v-13h-5.81a.83.83,0,0,1,0-1.66h6.64a.83.83,0,0,1,.83.83V138.5a.87.87,0,0,1-.24.59,1,1,0,0,1-.59.24h-3.15v4.48a.83.83,0,0,1-.51.76A.74.74,0,0,1,119.88,144.63Z"/><path class="b4ca6bce-8466-41ff-b578-4f0934e6b653" d="M186.18,104.8a.87.87,0,0,1-.32-.06.83.83,0,0,1-.51-.77V97.13l-4.92,0h0a.78.78,0,0,1-.58-.24.83.83,0,0,1-.25-.59V74.77a.83.83,0,0,1,.83-.83h34.52a.83.83,0,0,1,.83.83V96.3a.83.83,0,0,1-.83.83H194.19l-7.43,7.43A.82.82,0,0,1,186.18,104.8Zm0-9.33a.86.86,0,0,1,.58.24.82.82,0,0,1,.24.59V102l6.26-6.26a.85.85,0,0,1,.59-.24h20.26V75.6H181.25V95.49l4.92,0Z"/><path class="b4ca6bce-8466-41ff-b578-4f0934e6b653" d="M178.29,143.3H143.78a.83.83,0,0,1-.83-.83V120.94a.83.83,0,0,1,.83-.83h20.74l7.43-7.43a.83.83,0,0,1,1.42.58v6.84l4.92,0h0a.83.83,0,0,1,.59.25.83.83,0,0,1,.24.58v21.56A.83.83,0,0,1,178.29,143.3Zm-33.69-1.66h32.86V121.75h-4.92a.82.82,0,0,1-.83-.82v-5.67l-6.26,6.25a.78.78,0,0,1-.58.24H144.6Z"/><path class="b4ca6bce-8466-41ff-b578-4f0934e6b653" d="M269.37,106.13h-23.9a.83.83,0,0,1-.83-.83V90.7a.83.83,0,0,1,.83-.83h14.26l5.07-5.07a.81.81,0,0,1,.9-.18.83.83,0,0,1,.51.77v4.47h3.16a.85.85,0,0,1,.83.83V105.3A.83.83,0,0,1,269.37,106.13Zm-23.07-1.66h22.24v-13l-3.15,0a.83.83,0,0,1-.59-.25.79.79,0,0,1-.25-.58V87.39l-3.89,3.89a.83.83,0,0,1-.59.25H246.3Z"/><path class="b4ca6bce-8466-41ff-b578-4f0934e6b653" d="M241.49,94.18h-6.64a.83.83,0,0,1-.83-.83V78.73a.79.79,0,0,1,.25-.58.78.78,0,0,1,.58-.24H238V73.44a.84.84,0,0,1,.52-.77.82.82,0,0,1,.9.18l5.07,5.07h14.26a.83.83,0,0,1,.83.83v8a.83.83,0,1,1-1.66,0V79.58H244.14a.83.83,0,0,1-.58-.24l-3.9-3.9v3.31a.82.82,0,0,1-.24.59.81.81,0,0,1-.59.24h-3.15v13h5.81a.83.83,0,0,1,0,1.66Z"/><path class="b4ca6bce-8466-41ff-b578-4f0934e6b653" d="M202.19,132.68a.87.87,0,0,1-.32-.06.83.83,0,0,1-.51-.77v-4.48h-3.15a1,1,0,0,1-.59-.24.82.82,0,0,1-.25-.59V111.94a.83.83,0,0,1,.83-.83h23.9a.83.83,0,0,1,.83.83v14.6a.83.83,0,0,1-.83.83H207.84l-5.07,5.07A.86.86,0,0,1,202.19,132.68Zm0-7a.83.83,0,0,1,.58.24.83.83,0,0,1,.25.59v3.31l3.89-3.9a.85.85,0,0,1,.59-.24h13.77V112.77H199v13h3.16Z"/><path class="b4ca6bce-8466-41ff-b578-4f0934e6b653" d="M228.74,144.63a.83.83,0,0,1-.59-.25l-5.07-5.06H208.82a.83.83,0,0,1-.83-.83v-8a.83.83,0,0,1,1.66,0v7.14h13.78a.78.78,0,0,1,.58.24l3.9,3.89v-3.3a.82.82,0,0,1,.83-.83h3.15v-13h-5.81a.83.83,0,0,1,0-1.66h6.64a.83.83,0,0,1,.83.83V138.5a.83.83,0,0,1-.25.59,1,1,0,0,1-.58.24h-3.15v4.48a.84.84,0,0,1-.52.76A.7.7,0,0,1,228.74,144.63Z"/><path class="b4ca6bce-8466-41ff-b578-4f0934e6b653" d="M287.15,143.3H252.63a.83.83,0,0,1-.83-.83V120.94a.83.83,0,0,1,.83-.83h20.75l7.43-7.43a.82.82,0,0,1,.9-.18.83.83,0,0,1,.51.76v6.84l4.92,0a.78.78,0,0,1,.59.25.79.79,0,0,1,.25.58v21.56A.83.83,0,0,1,287.15,143.3Zm-33.69-1.66h32.86V121.75h-4.93a.78.78,0,0,1-.58-.24.79.79,0,0,1-.25-.58v-5.67l-6.25,6.25a.81.81,0,0,1-.59.24H253.46Z"/><path class="b4ca6bce-8466-41ff-b578-4f0934e6b653" d="M160.51,184.45H136.62a.83.83,0,0,1-.83-.83V169a.83.83,0,0,1,.83-.83h14.25l5.07-5.07a.87.87,0,0,1,.91-.18.83.83,0,0,1,.51.77v4.48h3.15a.82.82,0,0,1,.59.24.85.85,0,0,1,.24.59v14.61A.83.83,0,0,1,160.51,184.45Zm-23.07-1.66h22.24V169.84h-3.15a.82.82,0,0,1-.83-.83v-3.31l-3.9,3.9a.83.83,0,0,1-.58.24H137.44Z"/><path class="b4ca6bce-8466-41ff-b578-4f0934e6b653" d="M132.63,172.5H126a.83.83,0,0,1-.83-.83V157.06a.82.82,0,0,1,.24-.59.85.85,0,0,1,.59-.24h3.15v-4.48a.82.82,0,0,1,.51-.76.83.83,0,0,1,.9.17l5.07,5.07h14.26a.83.83,0,0,1,.83.83v8a.83.83,0,1,1-1.66,0V157.9H135.29a.87.87,0,0,1-.59-.24l-3.89-3.89v3.3a.83.83,0,0,1-.25.59,1.13,1.13,0,0,1-.59.24h-3.15v13h5.81a.83.83,0,1,1,0,1.65Z"/><path class="b4ca6bce-8466-41ff-b578-4f0934e6b653" d="M186.18,183.12a.87.87,0,0,1-.32-.06.83.83,0,0,1-.51-.77v-6.83l-4.92,0a.66.66,0,0,1-.59-.25.79.79,0,0,1-.25-.58V153.09a.83.83,0,0,1,.83-.83h34.52a.83.83,0,0,1,.83.83v21.54a.83.83,0,0,1-.83.83H194.19l-7.43,7.42A.82.82,0,0,1,186.18,183.12Zm0-9.32a.82.82,0,0,1,.58.24.79.79,0,0,1,.24.59v5.66l6.26-6.25a.81.81,0,0,1,.59-.24h20.26V153.92H181.25v19.89h4.93Z"/><path class="b4ca6bce-8466-41ff-b578-4f0934e6b653" d="M269.37,184.45h-23.9a.83.83,0,0,1-.83-.83V169a.83.83,0,0,1,.83-.83h14.26l5.07-5.07a.85.85,0,0,1,.9-.18.83.83,0,0,1,.51.77v4.48h3.16a.78.78,0,0,1,.58.24.82.82,0,0,1,.25.59v14.61A.83.83,0,0,1,269.37,184.45Zm-23.07-1.66h22.24V169.84h-3.16a.83.83,0,0,1-.58-.24.83.83,0,0,1-.25-.59v-3.31l-3.89,3.9a.87.87,0,0,1-.59.24H246.3Z"/><path class="b4ca6bce-8466-41ff-b578-4f0934e6b653" d="M241.49,172.5h-6.64a.83.83,0,0,1-.83-.83V157.06a.83.83,0,0,1,.25-.59.83.83,0,0,1,.58-.24H238v-4.48a.84.84,0,0,1,1.42-.59l5.07,5.07h14.26a.83.83,0,0,1,.83.83v8a.83.83,0,1,1-1.66,0V157.9H244.14a.83.83,0,0,1-.58-.24l-3.9-3.89v3.3a.82.82,0,0,1-.24.59,1.16,1.16,0,0,1-.59.24h-3.15v13h5.81a.83.83,0,1,1,0,1.65Z"/><path class="b4ca6bce-8466-41ff-b578-4f0934e6b653" d="M51.65,106.13H27.76a.83.83,0,0,1-.83-.83V90.7a.83.83,0,0,1,.83-.83H42l5.07-5.07a.81.81,0,0,1,.9-.18.83.83,0,0,1,.51.77v4.47h3.15a.83.83,0,0,1,.59.25.78.78,0,0,1,.24.58V105.3A.83.83,0,0,1,51.65,106.13Zm-23.06-1.66H50.82v-13l-3.14,0a.81.81,0,0,1-.59-.25.79.79,0,0,1-.25-.58V87.39L43,91.28a.83.83,0,0,1-.59.25H28.59Z"/><path class="b4ca6bce-8466-41ff-b578-4f0934e6b653" d="M23.78,94.18H17.14a.83.83,0,0,1-.83-.83V78.73a.82.82,0,0,1,.83-.82h3.15V73.44a.83.83,0,0,1,1.42-.59l5.07,5.07H41a.83.83,0,0,1,.83.83v8a.83.83,0,1,1-1.66,0V79.58H26.43a.83.83,0,0,1-.58-.24L22,75.44v3.31a.87.87,0,0,1-.24.59.82.82,0,0,1-.59.24H18v13h5.81a.83.83,0,0,1,0,1.66Z"/><path class="b4ca6bce-8466-41ff-b578-4f0934e6b653" d="M-15.53,132.68a.85.85,0,0,1-.31-.06.84.84,0,0,1-.52-.77v-4.48h-3.15a1,1,0,0,1-.58-.24.82.82,0,0,1-.25-.59V111.94a.83.83,0,0,1,.83-.83H4.39a.83.83,0,0,1,.83.83v14.6a.83.83,0,0,1-.83.83H-9.87l-5.07,5.07A.87.87,0,0,1-15.53,132.68Zm0-7a.87.87,0,0,1,.59.24.82.82,0,0,1,.24.59v3.31l3.9-3.9a.83.83,0,0,1,.58-.24H3.56V112.77H-18.68v13Z"/><path class="b4ca6bce-8466-41ff-b578-4f0934e6b653" d="M11,144.63a.83.83,0,0,1-.58-.25l-5.07-5.06H-8.89a.83.83,0,0,1-.83-.83v-8a.83.83,0,0,1,.83-.83.83.83,0,0,1,.83.83v7.14H5.71a.81.81,0,0,1,.59.24l3.89,3.89v-3.3a.83.83,0,0,1,.25-.59.78.78,0,0,1,.58-.24h3.16v-13H8.37a.83.83,0,0,1,0-1.66H15a.84.84,0,0,1,.83.83V138.5a.83.83,0,0,1-.25.59,1,1,0,0,1-.59.24H11.85v4.48a.83.83,0,0,1-.51.76A.71.71,0,0,1,11,144.63Z"/><path class="b4ca6bce-8466-41ff-b578-4f0934e6b653" d="M77.32,104.8a.87.87,0,0,1-.32-.06.83.83,0,0,1-.51-.77V97.13l-4.92,0h0a.82.82,0,0,1-.83-.83V74.77a.83.83,0,0,1,.83-.83h34.51a.83.83,0,0,1,.83.83V96.3a.83.83,0,0,1-.83.83H85.33l-7.42,7.43A.82.82,0,0,1,77.32,104.8Zm0-9.33a.83.83,0,0,1,.58.24.83.83,0,0,1,.25.59V102l6.25-6.26a.87.87,0,0,1,.59-.24h20.26V75.6H72.4V95.49l4.92,0Z"/><path class="b4ca6bce-8466-41ff-b578-4f0934e6b653" d="M69.43,143.3H34.92a.83.83,0,0,1-.83-.83V120.94a.83.83,0,0,1,.83-.83H55.67l7.43-7.43a.81.81,0,0,1,.9-.18.83.83,0,0,1,.51.76v6.84l4.92,0a.67.67,0,0,1,.59.25.78.78,0,0,1,.24.58v21.56A.83.83,0,0,1,69.43,143.3Zm-33.68-1.66H68.6V121.75H63.68a.78.78,0,0,1-.58-.24.79.79,0,0,1-.25-.58v-5.67l-6.25,6.25a.82.82,0,0,1-.59.24H35.75Z"/><path class="b4ca6bce-8466-41ff-b578-4f0934e6b653" d="M51.65,184.45H27.76a.83.83,0,0,1-.83-.83V169a.83.83,0,0,1,.83-.83H42l5.07-5.07a.85.85,0,0,1,.9-.18.83.83,0,0,1,.51.77v4.48h3.15a.82.82,0,0,1,.59.24.81.81,0,0,1,.24.59v14.61A.83.83,0,0,1,51.65,184.45Zm-23.06-1.66H50.82V169.84H47.67a.83.83,0,0,1-.58-.24.83.83,0,0,1-.25-.59v-3.31L43,169.61a.87.87,0,0,1-.59.24H28.59Z"/><path class="b4ca6bce-8466-41ff-b578-4f0934e6b653" d="M23.78,172.5H17.14a.83.83,0,0,1-.83-.83V157.06a.82.82,0,0,1,.83-.83h3.15v-4.48a.82.82,0,0,1,.51-.76.84.84,0,0,1,.91.17l5.07,5.07H41a.83.83,0,0,1,.83.83v8a.83.83,0,1,1-1.66,0V157.9H26.43a.83.83,0,0,1-.58-.24L22,153.77v3.3a.87.87,0,0,1-.24.59,1.2,1.2,0,0,1-.59.24H18v13h5.81a.83.83,0,1,1,0,1.65Z"/><path class="b4ca6bce-8466-41ff-b578-4f0934e6b653" d="M77.32,183.12a.87.87,0,0,1-.32-.06.83.83,0,0,1-.51-.77v-6.83l-4.92,0a.67.67,0,0,1-.59-.25.78.78,0,0,1-.24-.58V153.09a.83.83,0,0,1,.83-.83h34.51a.83.83,0,0,1,.83.83v21.54a.83.83,0,0,1-.83.83H85.33l-7.42,7.42A.82.82,0,0,1,77.32,183.12Zm0-9.32a.78.78,0,0,1,.58.24.8.8,0,0,1,.25.59v5.66L84.4,174a.82.82,0,0,1,.59-.24h20.26V153.92H72.4v19.89Z"/></g><g class="a7311ba8-e81d-49ab-a7a2-5db1e8807ea7"><path class="ecec904a-988d-4609-a544-7510c5fe4ac6" d="M12.18,10.46a.8.8,0,0,1-.58-.24L6.53,5.15H-7.73a.83.83,0,0,1-.83-.83v-8a.83.83,0,0,1,.83-.83.83.83,0,0,1,.83.83V3.49H6.87a.87.87,0,0,1,.59.24l3.89,3.9V4.32a.83.83,0,0,1,.25-.59.64.64,0,0,1,.59-.24h3.14V-9.45H9.53a.83.83,0,0,1-.83-.83.83.83,0,0,1,.83-.83h6.63a.83.83,0,0,1,.83.83V4.33a.81.81,0,0,1-.24.59.69.69,0,0,1-.59.24H13V9.63a.83.83,0,0,1-.51.77A.87.87,0,0,1,12.18,10.46Z"/><path class="ecec904a-988d-4609-a544-7510c5fe4ac6" d="M70.59,9.13H36.08a.83.83,0,0,1-.83-.83V-13.23a.83.83,0,0,1,.83-.83H56.83l7.42-7.43a.83.83,0,0,1,.91-.18.83.83,0,0,1,.51.77v6.84l4.92,0h0a.82.82,0,0,1,.59.24.87.87,0,0,1,.24.59V8.3A.83.83,0,0,1,70.59,9.13ZM36.91,7.47H69.76V-12.42l-4.92,0h0a.83.83,0,0,1-.58-.24.83.83,0,0,1-.25-.59V-18.9l-6.25,6.26a.87.87,0,0,1-.59.24H36.91Z"/><path class="ecec904a-988d-4609-a544-7510c5fe4ac6" d="M52.81,50.28H28.92a.83.83,0,0,1-.83-.82V34.85a.83.83,0,0,1,.83-.83H43.18L48.24,29a.83.83,0,0,1,.91-.18.82.82,0,0,1,.51.76V34h3.15a.82.82,0,0,1,.83.83V49.46A.83.83,0,0,1,52.81,50.28ZM29.75,48.63H52v-13H48.83a.81.81,0,0,1-.59-.24.87.87,0,0,1-.24-.59v-3.3l-3.89,3.89a.82.82,0,0,1-.59.24H29.75Z"/><path class="ecec904a-988d-4609-a544-7510c5fe4ac6" d="M24.93,38.34H18.3a.83.83,0,0,1-.83-.83V22.89a.82.82,0,0,1,.83-.83h3.15V17.59A.83.83,0,0,1,22.87,17l5.06,5.07H42.19a.83.83,0,0,1,.83.82v8a.83.83,0,0,1-1.66,0V23.73H27.59a.82.82,0,0,1-.59-.24L23.11,19.6v3.3a.83.83,0,0,1-.24.59.77.77,0,0,1-.59.24H19.13v13h5.8a.83.83,0,0,1,0,1.66Z"/><path class="ecec904a-988d-4609-a544-7510c5fe4ac6" d="M-14.37,76.83a.91.91,0,0,1-.32-.06A.83.83,0,0,1-15.2,76V71.53h-3.15a1.18,1.18,0,0,1-.59-.24.87.87,0,0,1-.24-.59V56.09a.83.83,0,0,1,.83-.83H5.54a.83.83,0,0,1,.83.83V70.7a.83.83,0,0,1-.83.82H-8.71l-5.07,5.07A.82.82,0,0,1-14.37,76.83Zm0-7a.82.82,0,0,1,.59.24.83.83,0,0,1,.24.59V74l3.9-3.89a.78.78,0,0,1,.58-.24H4.71v-13H-17.52v13Z"/><path class="ecec904a-988d-4609-a544-7510c5fe4ac6" d="M12.18,88.78a.8.8,0,0,1-.58-.24L6.53,83.47H-7.73a.83.83,0,0,1-.83-.83v-8a.83.83,0,0,1,.83-.83.83.83,0,0,1,.83.83v7.13H6.87a.83.83,0,0,1,.59.25L11.35,86V82.64a.85.85,0,0,1,.83-.83h3.15V68.87H9.53a.83.83,0,0,1,0-1.66h6.63A.83.83,0,0,1,17,68V82.66a.78.78,0,0,1-.24.58,1.12,1.12,0,0,1-.59.25H13V88a.83.83,0,0,1-.51.77A.87.87,0,0,1,12.18,88.78Z"/><path class="ecec904a-988d-4609-a544-7510c5fe4ac6" d="M78.48,49a.71.71,0,0,1-.32-.07.82.82,0,0,1-.51-.76V41.29l-4.92,0h0a.85.85,0,0,1-.59-.24.82.82,0,0,1-.24-.59V18.92a.83.83,0,0,1,.83-.83h34.51a.83.83,0,0,1,.83.83V40.46a.83.83,0,0,1-.83.83H86.49l-7.43,7.42A.81.81,0,0,1,78.48,49Zm0-9.33a.83.83,0,0,1,.58.24.83.83,0,0,1,.25.59v5.66l6.25-6.25a.87.87,0,0,1,.59-.24h20.26V19.75H73.55v19.9l4.92,0Z"/><path class="ecec904a-988d-4609-a544-7510c5fe4ac6" d="M70.59,87.46H36.08a.83.83,0,0,1-.83-.83V65.09a.83.83,0,0,1,.83-.83H56.83l7.42-7.43a.85.85,0,0,1,.91-.18.83.83,0,0,1,.51.77v6.84l4.92,0a.84.84,0,0,1,.59.24.87.87,0,0,1,.24.59V86.63A.83.83,0,0,1,70.59,87.46ZM36.91,85.8H69.76V65.9l-4.92,0h0a.83.83,0,0,1-.58-.24.83.83,0,0,1-.25-.59V59.42l-6.25,6.26a.87.87,0,0,1-.59.24H36.91Z"/><path class="ecec904a-988d-4609-a544-7510c5fe4ac6" d="M52.81,128.61H28.92a.83.83,0,0,1-.83-.83v-14.6a.83.83,0,0,1,.83-.83H43.18l5.06-5.07a.83.83,0,0,1,1.42.59v4.47h3.15a.82.82,0,0,1,.83.83v14.62A.83.83,0,0,1,52.81,128.61ZM29.75,127H52V114l-3.15,0h0a.83.83,0,0,1-.59-.25.83.83,0,0,1-.24-.58v-3.31l-3.89,3.89a.83.83,0,0,1-.59.25H29.75Z"/><path class="ecec904a-988d-4609-a544-7510c5fe4ac6" d="M24.93,116.66H18.3a.83.83,0,0,1-.83-.83V101.21a.83.83,0,0,1,.24-.58.83.83,0,0,1,.59-.25h0l3.15,0V95.92a.83.83,0,0,1,1.42-.59l5.06,5.07H42.19a.83.83,0,0,1,.83.83v8a.83.83,0,1,1-1.66,0v-7.13H27.59a.87.87,0,0,1-.59-.24l-3.89-3.9v3.31a.87.87,0,0,1-.24.59,1.37,1.37,0,0,1-.59.24H19.13v13h5.8a.83.83,0,1,1,0,1.66Z"/><path class="ecec904a-988d-4609-a544-7510c5fe4ac6" d="M-14.37,155.16a.74.74,0,0,1-.32-.07.82.82,0,0,1-.51-.76v-4.48h-3.15a.82.82,0,0,1-.59-.24.87.87,0,0,1-.24-.59V134.42a.83.83,0,0,1,.83-.83H5.54a.83.83,0,0,1,.83.83V149a.83.83,0,0,1-.83.83H-8.71l-5.07,5.07A.87.87,0,0,1-14.37,155.16Zm0-7a.87.87,0,0,1,.59.24.87.87,0,0,1,.24.59v3.31l3.9-3.9a.83.83,0,0,1,.58-.24H4.71V135.25H-17.52V148.2Z"/><path class="ecec904a-988d-4609-a544-7510c5fe4ac6" d="M12.18,167.11a.81.81,0,0,1-.58-.25L6.53,161.8H-7.73a.83.83,0,0,1-.83-.83v-8a.83.83,0,0,1,.83-.83.83.83,0,0,1,.83.83v7.14H6.87a.82.82,0,0,1,.59.24l3.89,3.89V161a.82.82,0,0,1,.25-.59.79.79,0,0,1,.59-.24h3.14v-13H9.53a.83.83,0,0,1,0-1.66h6.63a.83.83,0,0,1,.83.83V161a.82.82,0,0,1-.24.59.85.85,0,0,1-.59.24H13v4.48a.83.83,0,0,1-.51.76A.88.88,0,0,1,12.18,167.11Z"/><path class="ecec904a-988d-4609-a544-7510c5fe4ac6" d="M78.48,127.28a.87.87,0,0,1-.32-.06.83.83,0,0,1-.51-.77v-6.84l-4.92,0a.67.67,0,0,1-.59-.24.82.82,0,0,1-.24-.59V97.25a.83.83,0,0,1,.83-.83h34.51a.83.83,0,0,1,.83.83v21.53a.83.83,0,0,1-.83.83H86.49L79.06,127A.8.8,0,0,1,78.48,127.28Zm0-9.33a.83.83,0,0,1,.58.24.83.83,0,0,1,.25.59v5.67l6.25-6.26a.87.87,0,0,1,.59-.24h20.26V98.08H73.55V118l4.92,0Z"/><path class="ecec904a-988d-4609-a544-7510c5fe4ac6" d="M70.59,165.78H36.08a.83.83,0,0,1-.83-.83V143.41a.83.83,0,0,1,.83-.83H56.83l7.42-7.42a.83.83,0,0,1,1.42.58v6.84l4.92,0h0a.83.83,0,0,1,.59.25.83.83,0,0,1,.24.58V165A.83.83,0,0,1,70.59,165.78Zm-33.68-1.66H69.76V144.23H64.84a.76.76,0,0,1-.58-.24.82.82,0,0,1-.25-.59v-5.66L57.76,144a.82.82,0,0,1-.59.24H36.91Z"/></g><path class="b57d1fc5-9128-4362-93a9-85792bc090a0" d="M16.47,124.46,20,123.12c.77,2.24,2,3.27,4,3.27,2.27,0,3.77-1.61,3.77-4.06V111.14h3.83v11.29c0,4.49-3,7.44-7.63,7.44A7.34,7.34,0,0,1,16.47,124.46Z"/><path class="b57d1fc5-9128-4362-93a9-85792bc090a0" d="M33.75,122.75a7.34,7.34,0,1,1,7.33,7.12A7.16,7.16,0,0,1,33.75,122.75Zm11.16,0a3.81,3.81,0,1,0-7.62,0,3.81,3.81,0,1,0,7.62,0Z"/><path class="b57d1fc5-9128-4362-93a9-85792bc090a0" d="M50.37,112.17a2.06,2.06,0,1,1,2.06,2.06A2.06,2.06,0,0,1,50.37,112.17Zm.26,3.69h3.62v13.75H50.63Z"/><path class="b57d1fc5-9128-4362-93a9-85792bc090a0" d="M57.07,115.86h3.62V117a5.7,5.7,0,0,1,3.85-1.37A5.22,5.22,0,0,1,70,121.09v8.52H66.36v-8a2.69,2.69,0,0,0-2.85-2.9,3.35,3.35,0,0,0-2.82,1.37v9.53H57.07Z"/><path class="b57d1fc5-9128-4362-93a9-85792bc090a0" d="M79.89,125.73v-6.86H77.07v-3h2.82v-3.51l3.62-.81v4.32h3.93v3H83.51V125c0,1.29.5,1.77,1.9,1.77a5.49,5.49,0,0,0,1.92-.32v3a11,11,0,0,1-2.79.4C81.48,129.82,79.89,128.42,79.89,125.73Z"/><path class="b57d1fc5-9128-4362-93a9-85792bc090a0" d="M89.21,111.14l3.61-.79V117a5.72,5.72,0,0,1,3.85-1.37,5.23,5.23,0,0,1,5.44,5.49v8.52H98.49v-8a2.69,2.69,0,0,0-2.85-2.9,3.35,3.35,0,0,0-2.82,1.37v9.53H89.21Z"/><path class="b57d1fc5-9128-4362-93a9-85792bc090a0" d="M104.22,122.75a7,7,0,0,1,7.07-7.13c3.9,0,6.81,3.17,6.81,7.39V124H107.91a3.91,3.91,0,0,0,3.85,2.88,4.31,4.31,0,0,0,3-1.11l2.37,2.16a8.23,8.23,0,0,1-5.59,2A7.15,7.15,0,0,1,104.22,122.75Zm10.31-1.37a3.44,3.44,0,0,0-3.32-2.77,3.38,3.38,0,0,0-3.35,2.77Z"/><path class="b57d1fc5-9128-4362-93a9-85792bc090a0" d="M16.81,154.41a7.08,7.08,0,0,1,7.2-7.15,7.75,7.75,0,0,1,5.7,2.45l-2.21,2.35a4.47,4.47,0,0,0-3.41-1.66,4,4,0,0,0,.08,8,4.27,4.27,0,0,0,3.27-1.53l2.17,2.27a7.76,7.76,0,0,1-5.6,2.42A7.06,7.06,0,0,1,16.81,154.41Z"/><path class="b57d1fc5-9128-4362-93a9-85792bc090a0" d="M30.45,154.41a7.34,7.34,0,1,1,7.34,7.12A7.17,7.17,0,0,1,30.45,154.41Zm11.16,0a3.81,3.81,0,1,0-7.62,0,3.81,3.81,0,1,0,7.62,0Z"/><path class="b57d1fc5-9128-4362-93a9-85792bc090a0" d="M47.34,147.52H51v1.11a5.72,5.72,0,0,1,3.85-1.37,5.22,5.22,0,0,1,5.44,5.49v8.52H56.62v-8a2.69,2.69,0,0,0-2.85-2.9A3.35,3.35,0,0,0,51,151.74v9.53H47.34Z"/><path class="b57d1fc5-9128-4362-93a9-85792bc090a0" d="M60.79,147.52h3.93l3.78,9.16,3.74-9.16h3.85l-5.91,13.75H66.67Z"/><path class="b57d1fc5-9128-4362-93a9-85792bc090a0" d="M76.49,154.41a7,7,0,0,1,7.07-7.12c3.9,0,6.81,3.16,6.81,7.38v1H80.18A3.92,3.92,0,0,0,84,158.5a4.29,4.29,0,0,0,3-1.11l2.37,2.16a8.21,8.21,0,0,1-5.59,2A7.15,7.15,0,0,1,76.49,154.41ZM86.81,153a3.45,3.45,0,0,0-3.33-2.77A3.39,3.39,0,0,0,80.13,153Z"/><path class="b57d1fc5-9128-4362-93a9-85792bc090a0" d="M92.58,147.52H96.2v1.53a4.4,4.4,0,0,1,3.67-1.84,3,3,0,0,1,1.5.31v3.17a4.59,4.59,0,0,0-1.85-.37,3.67,3.67,0,0,0-3.32,2v8.92H92.58Z"/><path class="b57d1fc5-9128-4362-93a9-85792bc090a0" d="M102.35,159.63l1.79-2.4a7.87,7.87,0,0,0,4.46,1.58c1.61,0,2.66-.58,2.66-1.47,0-.72-.52-1.11-1.71-1.3l-2.64-.39c-2.72-.4-4.17-1.79-4.17-4,0-2.64,2.22-4.35,5.73-4.35a10.15,10.15,0,0,1,5.64,1.71l-1.74,2.35a8,8,0,0,0-4.25-1.35c-1.29,0-2.16.56-2.16,1.35s.53,1.13,1.87,1.32l2.64.39c2.69.4,4.2,1.8,4.2,3.93,0,2.62-2.56,4.54-6,4.54A10.09,10.09,0,0,1,102.35,159.63Z"/><path class="b57d1fc5-9128-4362-93a9-85792bc090a0" d="M116,157.29c0-2.62,2.08-4.17,5.59-4.17a10.19,10.19,0,0,1,3.38.55v-1c0-1.59-1-2.4-2.9-2.4a10.24,10.24,0,0,0-4.2,1.13l-1.32-2.66a14.18,14.18,0,0,1,6.12-1.48c3.72,0,5.86,1.85,5.86,5.09v8.92h-3.56v-1a6.34,6.34,0,0,1-4,1.22C118,161.51,116,159.79,116,157.29Zm5.94,1.63a5,5,0,0,0,3-.9v-2a7.48,7.48,0,0,0-2.9-.53c-1.66,0-2.64.66-2.64,1.72S120.37,158.92,121.9,158.92Z"/><path class="b57d1fc5-9128-4362-93a9-85792bc090a0" d="M132.71,157.39v-6.86h-2.82v-3h2.82V144l3.62-.81v4.32h3.93v3h-3.93v6.12c0,1.29.5,1.77,1.9,1.77a5.49,5.49,0,0,0,1.92-.32v3a11,11,0,0,1-2.79.4C134.29,161.48,132.71,160.08,132.71,157.39Z"/><path class="b57d1fc5-9128-4362-93a9-85792bc090a0" d="M141.76,143.83a2.06,2.06,0,1,1,2.06,2.06A2.06,2.06,0,0,1,141.76,143.83Zm.27,3.69h3.61v13.75H142Z"/><path class="b57d1fc5-9128-4362-93a9-85792bc090a0" d="M147.83,154.41a7.34,7.34,0,1,1,7.33,7.12A7.16,7.16,0,0,1,147.83,154.41Zm11.16,0a3.81,3.81,0,1,0-7.62,0,3.81,3.81,0,1,0,7.62,0Z"/><path class="b57d1fc5-9128-4362-93a9-85792bc090a0" d="M164.71,147.52h3.62v1.11a5.72,5.72,0,0,1,3.85-1.37,5.23,5.23,0,0,1,5.44,5.49v8.52H174v-8a2.69,2.69,0,0,0-2.85-2.9,3.35,3.35,0,0,0-2.82,1.37v9.53h-3.62Z"/></svg>