<svg id="afe81b38-06d1-47cf-91aa-3e04309bd2d6" data-name="Layer 1" xmlns="http://www.w3.org/2000/svg" viewBox="0 0 262 180"><defs><style>.e0910a94-71a6-431d-a817-b14b40bdb108{fill:#e00;}</style></defs><path class="e0910a94-71a6-431d-a817-b14b40bdb108" d="M191.59,116.68h-13.9a3.5,3.5,0,0,1,0-7h13.9a3.5,3.5,0,0,1,0,7Z"/><path class="e0910a94-71a6-431d-a817-b14b40bdb108" d="M191.4,109.72H177.87a7,7,0,0,1-6.61-4.77l-5.38-16.13H203.4L198,105A7,7,0,0,1,191.4,109.72Zm3.3-5.87h0Zm-19.11-8,2.31,6.92,13.49,0,2.3-6.9Z"/><path class="e0910a94-71a6-431d-a817-b14b40bdb108" d="M184.64,123.63a9.31,9.31,0,0,1-9.3-9.3,9.6,9.6,0,0,1,.19-1.85,3.5,3.5,0,0,1,6.86,1.39,2.4,2.4,0,0,0,0,.46,2.3,2.3,0,1,0,4.59,0,2.38,2.38,0,0,0,0-.46,3.5,3.5,0,0,1,6.86-1.39,9.59,9.59,0,0,1,.18,1.85A9.31,9.31,0,0,1,184.64,123.63Z"/><path class="e0910a94-71a6-431d-a817-b14b40bdb108" d="M168.23,94.71a22.68,22.68,0,1,1,32.82,0L196,89.88a15.68,15.68,0,1,0-22.7,0Z"/><path class="e0910a94-71a6-431d-a817-b14b40bdb108" d="M103.69,75.14,53.85,109c-.66.45-1.83-.12-2.61-1.26s-.87-2.44-.21-2.89L100.87,71c.66-.45,1.83.11,2.61,1.26S104.35,74.7,103.69,75.14Z"/><path class="e0910a94-71a6-431d-a817-b14b40bdb108" d="M103.69,75.14a1.23,1.23,0,0,1-1.26,0L64.88,57a3.92,3.92,0,0,1-2-2.94c-.09-1.12.67-1.64,1.69-1.15L102.13,71a3.93,3.93,0,0,1,2,2.93A1.23,1.23,0,0,1,103.69,75.14Z"/><path class="e0910a94-71a6-431d-a817-b14b40bdb108" d="M106.74,116.74a1.23,1.23,0,0,1-1.26,0,4,4,0,0,1-2-2.93l-3-41.6c-.08-1.13.68-1.65,1.69-1.15a3.93,3.93,0,0,1,2,2.93l3,41.6A1.26,1.26,0,0,1,106.74,116.74Z"/></svg>