<svg id="fc662002-02a2-4332-98f1-64c54a158af5" data-name="Layer 1" xmlns="http://www.w3.org/2000/svg" xmlns:xlink="http://www.w3.org/1999/xlink" viewBox="0 0 262 180"><defs><style>.f92c3b6e-267c-411d-988e-95dbe0183a8b{fill:none;}.ab549db7-3632-4238-84cb-60296a9a6637{clip-path:url(#aa999124-513e-47f9-99da-3167e8679ab7);}.f4ea0432-dead-449a-9912-1d08f953560f{fill:#e00;}</style><clipPath id="aa999124-513e-47f9-99da-3167e8679ab7"><rect class="f92c3b6e-267c-411d-988e-95dbe0183a8b" width="262" height="180" rx="3"/></clipPath></defs><g class="ab549db7-3632-4238-84cb-60296a9a6637"><path class="f4ea0432-dead-449a-9912-1d08f953560f" d="M160.51,27.81H136.62a.83.83,0,0,1-.83-.83V12.37a.83.83,0,0,1,.83-.83h14.25l5.07-5.06a.83.83,0,0,1,1.42.58v4.48h3.15a.81.81,0,0,1,.59.24.87.87,0,0,1,.24.59V27A.83.83,0,0,1,160.51,27.81Zm-23.07-1.66h22.24v-13h-3.15a.82.82,0,0,1-.59-.24.85.85,0,0,1-.24-.59V9.07L151.8,13a.78.78,0,0,1-.58.24H137.44Z"/><path class="f4ea0432-dead-449a-9912-1d08f953560f" d="M132.63,15.86H126a.83.83,0,0,1-.83-.83V.41A.82.82,0,0,1,126-.42h3.15V-4.88a.83.83,0,0,1,.51-.77.81.81,0,0,1,.9.18L135.63-.4h14.26a.83.83,0,0,1,.83.83v8a.83.83,0,1,1-1.66,0V1.26H135.29A.83.83,0,0,1,134.7,1l-3.89-3.89V.43a.79.79,0,0,1-.25.58.79.79,0,0,1-.58.25h0l-3.15,0v13h5.81a.83.83,0,0,1,0,1.66Z"/><path class="f4ea0432-dead-449a-9912-1d08f953560f" d="M93.33,54.36a.74.74,0,0,1-.32-.07.83.83,0,0,1-.51-.76V49.05H89.35a.74.74,0,0,1-.59-.24.82.82,0,0,1-.24-.59V33.61a.83.83,0,0,1,.83-.83h23.89a.83.83,0,0,1,.83.83V48.22a.83.83,0,0,1-.83.83H99l-5.06,5.06A.83.83,0,0,1,93.33,54.36Zm0-7a.82.82,0,0,1,.59.24.85.85,0,0,1,.24.59v3.3l3.89-3.89a.82.82,0,0,1,.59-.24h13.77v-13H90.18v13Z"/><path class="f4ea0432-dead-449a-9912-1d08f953560f" d="M119.88,66.3a.82.82,0,0,1-.59-.24L114.23,61H100a.83.83,0,0,1-.83-.83v-8a.83.83,0,1,1,1.66,0v7.13h13.77a.83.83,0,0,1,.59.25l3.89,3.89V60.16a.83.83,0,0,1,.24-.58.64.64,0,0,1,.59-.25l3.15,0v-13h-5.81a.83.83,0,0,1,0-1.66h6.64a.83.83,0,0,1,.83.83V60.18a.87.87,0,0,1-.24.59.75.75,0,0,1-.59.24h-3.15v4.47a.83.83,0,0,1-.51.77A.91.91,0,0,1,119.88,66.3Z"/><path class="f4ea0432-dead-449a-9912-1d08f953560f" d="M186.18,26.48a.71.71,0,0,1-.32-.07.82.82,0,0,1-.51-.76V18.81l-4.92,0a.9.9,0,0,1-.59-.24.83.83,0,0,1-.25-.59V-3.56a.83.83,0,0,1,.83-.83h34.52a.83.83,0,0,1,.83.83V18a.83.83,0,0,1-.83.83H194.19l-7.43,7.43A.86.86,0,0,1,186.18,26.48Zm0-9.33a.86.86,0,0,1,.58.24A.82.82,0,0,1,187,18v5.67l6.26-6.26a.85.85,0,0,1,.59-.24h20.26V-2.73H181.25v19.9l4.92,0Z"/><path class="f4ea0432-dead-449a-9912-1d08f953560f" d="M178.29,65H143.78a.83.83,0,0,1-.83-.83V42.61a.83.83,0,0,1,.83-.83h20.74L172,34.35a.87.87,0,0,1,.91-.18.84.84,0,0,1,.51.77v6.84l4.92,0h0a.82.82,0,0,1,.83.83V64.15A.83.83,0,0,1,178.29,65ZM144.6,63.32h32.86V43.42l-4.92,0h0a.82.82,0,0,1-.83-.83V36.94l-6.26,6.26a.83.83,0,0,1-.58.24H144.6Z"/><path class="f4ea0432-dead-449a-9912-1d08f953560f" d="M269.37,27.81h-23.9a.83.83,0,0,1-.83-.83V12.37a.83.83,0,0,1,.83-.83h14.26l5.07-5.06a.81.81,0,0,1,.9-.18.83.83,0,0,1,.51.76v4.48h3.15a.78.78,0,0,1,.59.24.83.83,0,0,1,.25.59V27A.84.84,0,0,1,269.37,27.81ZM246.3,26.15h22.24v-13h-3.16a.78.78,0,0,1-.58-.24.82.82,0,0,1-.25-.59V9.07L260.66,13a.82.82,0,0,1-.59.24H246.3Z"/><path class="f4ea0432-dead-449a-9912-1d08f953560f" d="M241.49,15.86h-6.64A.83.83,0,0,1,234,15V.41a.83.83,0,0,1,.25-.59.8.8,0,0,1,.58-.24H238V-4.88a.84.84,0,0,1,.52-.77.82.82,0,0,1,.9.18L244.49-.4h14.26a.83.83,0,0,1,.83.83v8a.83.83,0,0,1-1.66,0V1.26H244.14a.79.79,0,0,1-.58-.25l-3.9-3.89V.43a.78.78,0,0,1-.24.58.83.83,0,0,1-.59.25h0l-3.15,0v13h5.81a.83.83,0,1,1,0,1.66Z"/><path class="f4ea0432-dead-449a-9912-1d08f953560f" d="M202.19,54.36a.71.71,0,0,1-.32-.07.83.83,0,0,1-.51-.76V49.05h-3.15a.73.73,0,0,1-.59-.24.83.83,0,0,1-.25-.59V33.61a.83.83,0,0,1,.83-.83h23.9a.83.83,0,0,1,.83.83V48.22a.83.83,0,0,1-.83.83H207.84l-5.07,5.06A.83.83,0,0,1,202.19,54.36Zm0-7a.78.78,0,0,1,.58.24.82.82,0,0,1,.25.59v3.3l3.89-3.89a.81.81,0,0,1,.59-.24h13.77v-13H199v13h3.16Z"/><path class="f4ea0432-dead-449a-9912-1d08f953560f" d="M228.74,66.3a.82.82,0,0,1-.59-.24L223.08,61H208.82a.83.83,0,0,1-.83-.83v-8a.83.83,0,0,1,1.66,0v7.13h13.78a.79.79,0,0,1,.58.25l3.9,3.89V60.16a.78.78,0,0,1,.24-.58.64.64,0,0,1,.59-.25l3.15,0v-13h-5.81a.83.83,0,0,1,0-1.66h6.64a.83.83,0,0,1,.83.83V60.18a.83.83,0,0,1-.25.59.73.73,0,0,1-.58.24h-3.15v4.47a.84.84,0,0,1-.52.77A.85.85,0,0,1,228.74,66.3Z"/><path class="f4ea0432-dead-449a-9912-1d08f953560f" d="M287.15,65H252.63a.83.83,0,0,1-.83-.83V42.61a.83.83,0,0,1,.83-.83h20.75l7.43-7.43a.85.85,0,0,1,.9-.18.84.84,0,0,1,.51.77v6.84l4.92,0h0a.83.83,0,0,1,.58.24.83.83,0,0,1,.25.59V64.15A.84.84,0,0,1,287.15,65Zm-33.69-1.66h32.86V43.42l-4.92,0h0a.83.83,0,0,1-.58-.24.83.83,0,0,1-.25-.59V36.94l-6.25,6.26a.85.85,0,0,1-.59.24H253.46Z"/><path class="f4ea0432-dead-449a-9912-1d08f953560f" d="M51.65,27.81H27.76a.83.83,0,0,1-.83-.83V12.37a.83.83,0,0,1,.83-.83H42l5.07-5.06A.81.81,0,0,1,48,6.3a.83.83,0,0,1,.51.76v4.48h3.15a.81.81,0,0,1,.59.24.82.82,0,0,1,.24.59V27A.83.83,0,0,1,51.65,27.81ZM28.59,26.15H50.82v-13H47.67a.78.78,0,0,1-.58-.24.82.82,0,0,1-.25-.59V9.07L43,13a.82.82,0,0,1-.59.24H28.59Z"/><path class="f4ea0432-dead-449a-9912-1d08f953560f" d="M23.78,15.86H17.14a.83.83,0,0,1-.83-.83V.41a.87.87,0,0,1,.24-.59.82.82,0,0,1,.59-.24h3.15V-4.88a.83.83,0,0,1,.51-.77.83.83,0,0,1,.91.18L26.78-.4H41a.83.83,0,0,1,.83.83v8a.83.83,0,0,1-1.66,0V1.26H26.43A.79.79,0,0,1,25.85,1L22-2.88V.43a.83.83,0,0,1-.24.58.83.83,0,0,1-.59.25h0L18,1.24v13h5.81a.83.83,0,0,1,0,1.66Z"/><path class="f4ea0432-dead-449a-9912-1d08f953560f" d="M-15.53,54.36a.7.7,0,0,1-.31-.07.84.84,0,0,1-.52-.76V49.05h-3.15a.71.71,0,0,1-.58-.24.83.83,0,0,1-.25-.59V33.61a.83.83,0,0,1,.83-.83H4.39a.84.84,0,0,1,.83.83V48.22a.84.84,0,0,1-.83.83H-9.87l-5.07,5.06A.83.83,0,0,1-15.53,54.36Zm0-7a.82.82,0,0,1,.59.24.81.81,0,0,1,.24.59v3.3l3.9-3.89a.78.78,0,0,1,.58-.24H3.56v-13H-18.68v13Z"/><path class="f4ea0432-dead-449a-9912-1d08f953560f" d="M11,66.3a.82.82,0,0,1-.58-.24L5.37,61H-8.89a.83.83,0,0,1-.83-.83v-8a.83.83,0,0,1,.83-.83.83.83,0,0,1,.83.83v7.13H5.71a.82.82,0,0,1,.59.25l3.89,3.89V60.16a.79.79,0,0,1,.25-.58.62.62,0,0,1,.59-.25l3.15,0v-13H8.37a.83.83,0,0,1,0-1.66H15a.83.83,0,0,1,.83.83V60.18a.83.83,0,0,1-.25.59A.75.75,0,0,1,15,61H11.85v4.47a.83.83,0,0,1-.51.77A.87.87,0,0,1,11,66.3Z"/><path class="f4ea0432-dead-449a-9912-1d08f953560f" d="M77.32,26.48a.71.71,0,0,1-.32-.07.82.82,0,0,1-.51-.76V18.81l-4.92,0a.92.92,0,0,1-.59-.24.82.82,0,0,1-.24-.59V-3.56a.83.83,0,0,1,.83-.83h34.51a.83.83,0,0,1,.83.83V18a.83.83,0,0,1-.83.83H85.33l-7.42,7.43A.87.87,0,0,1,77.32,26.48Zm0-9.33a.83.83,0,0,1,.58.24.83.83,0,0,1,.25.59v5.67l6.25-6.26a.87.87,0,0,1,.59-.24h20.26V-2.73H72.4v19.9l4.92,0Z"/><path class="f4ea0432-dead-449a-9912-1d08f953560f" d="M69.43,65H34.92a.83.83,0,0,1-.83-.83V42.61a.83.83,0,0,1,.83-.83H55.67l7.43-7.43a.85.85,0,0,1,.9-.18.84.84,0,0,1,.51.77v6.84l4.92,0A1,1,0,0,1,70,42a.82.82,0,0,1,.24.59V64.15A.83.83,0,0,1,69.43,65ZM35.75,63.32H68.6V43.42l-4.91,0h0a.83.83,0,0,1-.58-.24.83.83,0,0,1-.25-.59V36.94L56.6,43.2a.87.87,0,0,1-.59.24H35.75Z"/><path class="f4ea0432-dead-449a-9912-1d08f953560f" d="M160.51,106.13H136.62a.83.83,0,0,1-.83-.83V90.7a.83.83,0,0,1,.83-.83h14.25l5.07-5.07a.83.83,0,0,1,1.42.59v4.47h3.15a.83.83,0,0,1,.59.25.83.83,0,0,1,.24.58V105.3A.83.83,0,0,1,160.51,106.13Zm-23.07-1.66h22.24v-13l-3.15,0a.84.84,0,0,1-.59-.25.83.83,0,0,1-.24-.58V87.39l-3.9,3.89a.79.79,0,0,1-.58.25H137.44Z"/><path class="f4ea0432-dead-449a-9912-1d08f953560f" d="M132.63,94.18H126a.83.83,0,0,1-.83-.83V78.73a.78.78,0,0,1,.24-.58.81.81,0,0,1,.59-.24h3.15V73.44a.83.83,0,0,1,.51-.77.81.81,0,0,1,.9.18l5.07,5.07h14.26a.83.83,0,0,1,.83.83v8a.83.83,0,0,1-1.66,0V79.58H135.29a.87.87,0,0,1-.59-.24l-3.89-3.9v3.31a.83.83,0,0,1-.25.59.79.79,0,0,1-.59.24h-3.15v13h5.81a.83.83,0,0,1,0,1.66Z"/><path class="f4ea0432-dead-449a-9912-1d08f953560f" d="M93.33,132.68a.91.91,0,0,1-.32-.06.83.83,0,0,1-.51-.77v-4.48H89.35a1,1,0,0,1-.59-.24.81.81,0,0,1-.24-.59V111.94a.83.83,0,0,1,.83-.83h23.89a.83.83,0,0,1,.83.83v14.6a.83.83,0,0,1-.83.83H99l-5.06,5.07A.87.87,0,0,1,93.33,132.68Zm0-7a.82.82,0,0,1,.83.83v3.31l3.89-3.9a.87.87,0,0,1,.59-.24h13.77V112.77H90.18v13Z"/><path class="f4ea0432-dead-449a-9912-1d08f953560f" d="M119.88,144.63a.83.83,0,0,1-.59-.25l-5.06-5.06H100a.83.83,0,0,1-.83-.83v-8a.83.83,0,0,1,1.66,0v7.14h13.77a.82.82,0,0,1,.59.24l3.89,3.89v-3.3a.87.87,0,0,1,.24-.59.82.82,0,0,1,.59-.24H123v-13h-5.81a.83.83,0,0,1,0-1.66h6.64a.83.83,0,0,1,.83.83V138.5a.87.87,0,0,1-.24.59,1,1,0,0,1-.59.24h-3.15v4.48a.83.83,0,0,1-.51.76A.74.74,0,0,1,119.88,144.63Z"/><path class="f4ea0432-dead-449a-9912-1d08f953560f" d="M186.18,104.8a.87.87,0,0,1-.32-.06.83.83,0,0,1-.51-.77V97.13l-4.92,0h0a.78.78,0,0,1-.58-.24.83.83,0,0,1-.25-.59V74.77a.83.83,0,0,1,.83-.83h34.52a.83.83,0,0,1,.83.83V96.3a.83.83,0,0,1-.83.83H194.19l-7.43,7.43A.82.82,0,0,1,186.18,104.8Zm0-9.33a.86.86,0,0,1,.58.24.82.82,0,0,1,.24.59V102l6.26-6.26a.85.85,0,0,1,.59-.24h20.26V75.6H181.25V95.49l4.92,0Z"/><path class="f4ea0432-dead-449a-9912-1d08f953560f" d="M178.29,143.3H143.78a.83.83,0,0,1-.83-.83V120.94a.83.83,0,0,1,.83-.83h20.74l7.43-7.43a.83.83,0,0,1,1.42.58v6.84l4.92,0h0a.83.83,0,0,1,.59.25.83.83,0,0,1,.24.58v21.56A.83.83,0,0,1,178.29,143.3Zm-33.69-1.66h32.86V121.75h-4.92a.82.82,0,0,1-.83-.82v-5.67l-6.26,6.25a.78.78,0,0,1-.58.24H144.6Z"/><path class="f4ea0432-dead-449a-9912-1d08f953560f" d="M269.37,106.13h-23.9a.83.83,0,0,1-.83-.83V90.7a.83.83,0,0,1,.83-.83h14.26l5.07-5.07a.81.81,0,0,1,.9-.18.83.83,0,0,1,.51.77v4.47h3.16a.85.85,0,0,1,.83.83V105.3A.83.83,0,0,1,269.37,106.13Zm-23.07-1.66h22.24v-13l-3.15,0a.83.83,0,0,1-.59-.25.79.79,0,0,1-.25-.58V87.39l-3.89,3.89a.83.83,0,0,1-.59.25H246.3Z"/><path class="f4ea0432-dead-449a-9912-1d08f953560f" d="M241.49,94.18h-6.64a.83.83,0,0,1-.83-.83V78.73a.79.79,0,0,1,.25-.58.78.78,0,0,1,.58-.24H238V73.44a.84.84,0,0,1,.52-.77.82.82,0,0,1,.9.18l5.07,5.07h14.26a.83.83,0,0,1,.83.83v8a.83.83,0,1,1-1.66,0V79.58H244.14a.83.83,0,0,1-.58-.24l-3.9-3.9v3.31a.82.82,0,0,1-.24.59.81.81,0,0,1-.59.24h-3.15v13h5.81a.83.83,0,0,1,0,1.66Z"/><path class="f4ea0432-dead-449a-9912-1d08f953560f" d="M202.19,132.68a.87.87,0,0,1-.32-.06.83.83,0,0,1-.51-.77v-4.48h-3.15a1,1,0,0,1-.59-.24.82.82,0,0,1-.25-.59V111.94a.83.83,0,0,1,.83-.83h23.9a.83.83,0,0,1,.83.83v14.6a.83.83,0,0,1-.83.83H207.84l-5.07,5.07A.86.86,0,0,1,202.19,132.68Zm0-7a.83.83,0,0,1,.58.24.83.83,0,0,1,.25.59v3.31l3.89-3.9a.85.85,0,0,1,.59-.24h13.77V112.77H199v13h3.16Z"/><path class="f4ea0432-dead-449a-9912-1d08f953560f" d="M228.74,144.63a.83.83,0,0,1-.59-.25l-5.07-5.06H208.82a.83.83,0,0,1-.83-.83v-8a.83.83,0,0,1,1.66,0v7.14h13.78a.78.78,0,0,1,.58.24l3.9,3.89v-3.3a.82.82,0,0,1,.83-.83h3.15v-13h-5.81a.83.83,0,0,1,0-1.66h6.64a.83.83,0,0,1,.83.83V138.5a.83.83,0,0,1-.25.59,1,1,0,0,1-.58.24h-3.15v4.48a.84.84,0,0,1-.52.76A.7.7,0,0,1,228.74,144.63Z"/><path class="f4ea0432-dead-449a-9912-1d08f953560f" d="M287.15,143.3H252.63a.83.83,0,0,1-.83-.83V120.94a.83.83,0,0,1,.83-.83h20.75l7.43-7.43a.82.82,0,0,1,.9-.18.83.83,0,0,1,.51.76v6.84l4.92,0a.78.78,0,0,1,.59.25.79.79,0,0,1,.25.58v21.56A.83.83,0,0,1,287.15,143.3Zm-33.69-1.66h32.86V121.75h-4.93a.78.78,0,0,1-.58-.24.79.79,0,0,1-.25-.58v-5.67l-6.25,6.25a.81.81,0,0,1-.59.24H253.46Z"/><path class="f4ea0432-dead-449a-9912-1d08f953560f" d="M160.51,184.45H136.62a.83.83,0,0,1-.83-.83V169a.83.83,0,0,1,.83-.83h14.25l5.07-5.07a.87.87,0,0,1,.91-.18.83.83,0,0,1,.51.77v4.48h3.15a.82.82,0,0,1,.59.24.85.85,0,0,1,.24.59v14.61A.83.83,0,0,1,160.51,184.45Zm-23.07-1.66h22.24V169.84h-3.15a.82.82,0,0,1-.83-.83v-3.31l-3.9,3.9a.83.83,0,0,1-.58.24H137.44Z"/><path class="f4ea0432-dead-449a-9912-1d08f953560f" d="M132.63,172.5H126a.83.83,0,0,1-.83-.83V157.06a.82.82,0,0,1,.24-.59.85.85,0,0,1,.59-.24h3.15v-4.48a.82.82,0,0,1,.51-.76.83.83,0,0,1,.9.17l5.07,5.07h14.26a.83.83,0,0,1,.83.83v8a.83.83,0,1,1-1.66,0V157.9H135.29a.87.87,0,0,1-.59-.24l-3.89-3.89v3.3a.83.83,0,0,1-.25.59,1.13,1.13,0,0,1-.59.24h-3.15v13h5.81a.83.83,0,1,1,0,1.65Z"/><path class="f4ea0432-dead-449a-9912-1d08f953560f" d="M186.18,183.12a.87.87,0,0,1-.32-.06.83.83,0,0,1-.51-.77v-6.83l-4.92,0a.66.66,0,0,1-.59-.25.79.79,0,0,1-.25-.58V153.09a.83.83,0,0,1,.83-.83h34.52a.83.83,0,0,1,.83.83v21.54a.83.83,0,0,1-.83.83H194.19l-7.43,7.42A.82.82,0,0,1,186.18,183.12Zm0-9.32a.82.82,0,0,1,.58.24.79.79,0,0,1,.24.59v5.66l6.26-6.25a.81.81,0,0,1,.59-.24h20.26V153.92H181.25v19.89h4.93Z"/><path class="f4ea0432-dead-449a-9912-1d08f953560f" d="M269.37,184.45h-23.9a.83.83,0,0,1-.83-.83V169a.83.83,0,0,1,.83-.83h14.26l5.07-5.07a.85.85,0,0,1,.9-.18.83.83,0,0,1,.51.77v4.48h3.16a.78.78,0,0,1,.58.24.82.82,0,0,1,.25.59v14.61A.83.83,0,0,1,269.37,184.45Zm-23.07-1.66h22.24V169.84h-3.16a.83.83,0,0,1-.58-.24.83.83,0,0,1-.25-.59v-3.31l-3.89,3.9a.87.87,0,0,1-.59.24H246.3Z"/><path class="f4ea0432-dead-449a-9912-1d08f953560f" d="M241.49,172.5h-6.64a.83.83,0,0,1-.83-.83V157.06a.83.83,0,0,1,.25-.59.83.83,0,0,1,.58-.24H238v-4.48a.84.84,0,0,1,1.42-.59l5.07,5.07h14.26a.83.83,0,0,1,.83.83v8a.83.83,0,1,1-1.66,0V157.9H244.14a.83.83,0,0,1-.58-.24l-3.9-3.89v3.3a.82.82,0,0,1-.24.59,1.16,1.16,0,0,1-.59.24h-3.15v13h5.81a.83.83,0,1,1,0,1.65Z"/><path class="f4ea0432-dead-449a-9912-1d08f953560f" d="M51.65,106.13H27.76a.83.83,0,0,1-.83-.83V90.7a.83.83,0,0,1,.83-.83H42l5.07-5.07a.81.81,0,0,1,.9-.18.83.83,0,0,1,.51.77v4.47h3.15a.83.83,0,0,1,.59.25.78.78,0,0,1,.24.58V105.3A.83.83,0,0,1,51.65,106.13Zm-23.06-1.66H50.82v-13l-3.14,0a.81.81,0,0,1-.59-.25.79.79,0,0,1-.25-.58V87.39L43,91.28a.83.83,0,0,1-.59.25H28.59Z"/><path class="f4ea0432-dead-449a-9912-1d08f953560f" d="M23.78,94.18H17.14a.83.83,0,0,1-.83-.83V78.73a.82.82,0,0,1,.83-.82h3.15V73.44a.83.83,0,0,1,1.42-.59l5.07,5.07H41a.83.83,0,0,1,.83.83v8a.83.83,0,1,1-1.66,0V79.58H26.43a.83.83,0,0,1-.58-.24L22,75.44v3.31a.87.87,0,0,1-.24.59.82.82,0,0,1-.59.24H18v13h5.81a.83.83,0,0,1,0,1.66Z"/><path class="f4ea0432-dead-449a-9912-1d08f953560f" d="M-15.53,132.68a.85.85,0,0,1-.31-.06.84.84,0,0,1-.52-.77v-4.48h-3.15a1,1,0,0,1-.58-.24.82.82,0,0,1-.25-.59V111.94a.83.83,0,0,1,.83-.83H4.39a.83.83,0,0,1,.83.83v14.6a.83.83,0,0,1-.83.83H-9.87l-5.07,5.07A.87.87,0,0,1-15.53,132.68Zm0-7a.87.87,0,0,1,.59.24.82.82,0,0,1,.24.59v3.31l3.9-3.9a.83.83,0,0,1,.58-.24H3.56V112.77H-18.68v13Z"/><path class="f4ea0432-dead-449a-9912-1d08f953560f" d="M11,144.63a.83.83,0,0,1-.58-.25l-5.07-5.06H-8.89a.83.83,0,0,1-.83-.83v-8a.83.83,0,0,1,.83-.83.83.83,0,0,1,.83.83v7.14H5.71a.81.81,0,0,1,.59.24l3.89,3.89v-3.3a.83.83,0,0,1,.25-.59.78.78,0,0,1,.58-.24h3.16v-13H8.37a.83.83,0,0,1,0-1.66H15a.84.84,0,0,1,.83.83V138.5a.83.83,0,0,1-.25.59,1,1,0,0,1-.59.24H11.85v4.48a.83.83,0,0,1-.51.76A.71.71,0,0,1,11,144.63Z"/><path class="f4ea0432-dead-449a-9912-1d08f953560f" d="M77.32,104.8a.87.87,0,0,1-.32-.06.83.83,0,0,1-.51-.77V97.13l-4.92,0h0a.82.82,0,0,1-.83-.83V74.77a.83.83,0,0,1,.83-.83h34.51a.83.83,0,0,1,.83.83V96.3a.83.83,0,0,1-.83.83H85.33l-7.42,7.43A.82.82,0,0,1,77.32,104.8Zm0-9.33a.83.83,0,0,1,.58.24.83.83,0,0,1,.25.59V102l6.25-6.26a.87.87,0,0,1,.59-.24h20.26V75.6H72.4V95.49l4.92,0Z"/><path class="f4ea0432-dead-449a-9912-1d08f953560f" d="M69.43,143.3H34.92a.83.83,0,0,1-.83-.83V120.94a.83.83,0,0,1,.83-.83H55.67l7.43-7.43a.81.81,0,0,1,.9-.18.83.83,0,0,1,.51.76v6.84l4.92,0a.67.67,0,0,1,.59.25.78.78,0,0,1,.24.58v21.56A.83.83,0,0,1,69.43,143.3Zm-33.68-1.66H68.6V121.75H63.68a.78.78,0,0,1-.58-.24.79.79,0,0,1-.25-.58v-5.67l-6.25,6.25a.82.82,0,0,1-.59.24H35.75Z"/><path class="f4ea0432-dead-449a-9912-1d08f953560f" d="M51.65,184.45H27.76a.83.83,0,0,1-.83-.83V169a.83.83,0,0,1,.83-.83H42l5.07-5.07a.85.85,0,0,1,.9-.18.83.83,0,0,1,.51.77v4.48h3.15a.82.82,0,0,1,.59.24.81.81,0,0,1,.24.59v14.61A.83.83,0,0,1,51.65,184.45Zm-23.06-1.66H50.82V169.84H47.67a.83.83,0,0,1-.58-.24.83.83,0,0,1-.25-.59v-3.31L43,169.61a.87.87,0,0,1-.59.24H28.59Z"/><path class="f4ea0432-dead-449a-9912-1d08f953560f" d="M23.78,172.5H17.14a.83.83,0,0,1-.83-.83V157.06a.82.82,0,0,1,.83-.83h3.15v-4.48a.82.82,0,0,1,.51-.76.84.84,0,0,1,.91.17l5.07,5.07H41a.83.83,0,0,1,.83.83v8a.83.83,0,1,1-1.66,0V157.9H26.43a.83.83,0,0,1-.58-.24L22,153.77v3.3a.87.87,0,0,1-.24.59,1.2,1.2,0,0,1-.59.24H18v13h5.81a.83.83,0,1,1,0,1.65Z"/><path class="f4ea0432-dead-449a-9912-1d08f953560f" d="M77.32,183.12a.87.87,0,0,1-.32-.06.83.83,0,0,1-.51-.77v-6.83l-4.92,0a.67.67,0,0,1-.59-.25.78.78,0,0,1-.24-.58V153.09a.83.83,0,0,1,.83-.83h34.51a.83.83,0,0,1,.83.83v21.54a.83.83,0,0,1-.83.83H85.33l-7.42,7.42A.82.82,0,0,1,77.32,183.12Zm0-9.32a.78.78,0,0,1,.58.24.8.8,0,0,1,.25.59v5.66L84.4,174a.82.82,0,0,1,.59-.24h20.26V153.92H72.4v19.89Z"/></g></svg>