<svg id="f57f17af-08d3-46e9-871c-7e17b5620883" data-name="Layer 1" xmlns="http://www.w3.org/2000/svg" xmlns:xlink="http://www.w3.org/1999/xlink" viewBox="0 0 555 240"><defs><style>.b0d9f1bd-9d76-4251-811f-79d772e3de2f{fill:none;}.a4aa1ca7-6055-4b31-8471-3dd2c6bc7e76{clip-path:url(#a4c2e8be-8365-49ea-84ee-d749e4a217ca);}.a40cee54-5aa8-4f73-829c-f2776f693d01{fill:#fbc4a2;}.b3e964b2-142d-46e2-9b30-5709812e1c46{fill:#f7823c;}.fdf55b72-c07b-454a-bbdc-8a227288c6f9{fill:#e00;}</style><clipPath id="a4c2e8be-8365-49ea-84ee-d749e4a217ca"><rect class="b0d9f1bd-9d76-4251-811f-79d772e3de2f" width="555" height="240"/></clipPath></defs><rect width="555" height="240"/><g class="a4aa1ca7-6055-4b31-8471-3dd2c6bc7e76"><rect class="a40cee54-5aa8-4f73-829c-f2776f693d01" x="-717.98" y="-157.42" width="1425.96" height="886.85"/><circle class="b3e964b2-142d-46e2-9b30-5709812e1c46" cx="-0.41" cy="53.54" r="23.39"/><polyline class="b3e964b2-142d-46e2-9b30-5709812e1c46" points="245.17 60.22 270.23 73.58 270.23 30.15 245.17 43.51"/><circle class="b3e964b2-142d-46e2-9b30-5709812e1c46" cx="124.89" cy="196.74" r="23.39"/><path class="b3e964b2-142d-46e2-9b30-5709812e1c46" d="M394.67,190.52a11.65,11.65,0,0,0-19.1-4l-1.77,1.77-8.71-8.71a1,1,0,0,0-1.47,0,14.39,14.39,0,0,0-.71,19.6l-8.22,8.23-5,5a1,1,0,0,0,0,1.47,10.44,10.44,0,0,0,14.21.52,22.26,22.26,0,0,0,22.35-5.53l5.84-5.84a11.57,11.57,0,0,0,3.07-5.55h2a1,1,0,0,0,1.05-1v-1.67A4.41,4.41,0,0,0,394.67,190.52Z"/><path class="b3e964b2-142d-46e2-9b30-5709812e1c46" d="M495.76,56.1a7.52,7.52,0,1,1,6.68,0V68.57a6.68,6.68,0,1,0,13.36,0v-20a16.71,16.71,0,0,0-33.41,0v20a6.69,6.69,0,0,0,13.37,0Z"/><polygon class="a40cee54-5aa8-4f73-829c-f2776f693d01" points="-2.58 51.37 7.95 35.16 -8.26 45.68 -18.78 61.89 -2.58 51.37"/><circle class="a40cee54-5aa8-4f73-829c-f2776f693d01" cx="119.88" cy="191.72" r="6.68"/><polyline class="a40cee54-5aa8-4f73-829c-f2776f693d01" points="136.58 175.02 136.58 170.01 129.9 176.69 129.9 181.7"/><polyline class="a40cee54-5aa8-4f73-829c-f2776f693d01" points="136.58 175.02 141.59 175.02 134.91 181.7 129.9 181.7"/><rect class="a40cee54-5aa8-4f73-829c-f2776f693d01" x="479.05" y="55.21" width="13.36" height="6.68"/><rect class="a40cee54-5aa8-4f73-829c-f2776f693d01" x="499.32" y="55.21" width="13.36" height="6.68"/><path class="fdf55b72-c07b-454a-bbdc-8a227288c6f9" d="M8.35,60.93a.93.93,0,0,0-.8,0,.77.77,0,0,0-.33.22,1,1,0,0,0-.32.73,1,1,0,0,0,.08.4,1,1,0,0,0,.24.35,1,1,0,0,0,.73.3,1.11,1.11,0,0,0,.74-.3.89.89,0,0,0,.21-.35.74.74,0,0,0,.09-.4,1,1,0,0,0-.3-.73A1,1,0,0,0,8.35,60.93Z"/><path class="fdf55b72-c07b-454a-bbdc-8a227288c6f9" d="M-5.42,73A24.46,24.46,0,0,0,19,48.52,24.46,24.46,0,0,0-5.42,24.09,24.46,24.46,0,0,0-29.85,48.52,24.46,24.46,0,0,0-5.42,73Zm-1-46.73v2.5a1,1,0,0,0,1,1.05,1,1,0,0,0,1-1.05v-2.5A22.33,22.33,0,0,1,16.87,47.48h-2.5a1,1,0,0,0,0,2.09h2.5A22.34,22.34,0,0,1-4.37,70.82V68.31a1,1,0,0,0-1-1,1,1,0,0,0-1,1v2.51A22.35,22.35,0,0,1-27.71,49.57h2.5a1,1,0,0,0,1.05-1,1,1,0,0,0-1.05-1h-2.5A22.34,22.34,0,0,1-6.46,26.23Z"/><path class="fdf55b72-c07b-454a-bbdc-8a227288c6f9" d="M-19.52,62.63a1,1,0,0,0,.74.3,1.1,1.1,0,0,0,.57-.16L-2,52.24a1,1,0,0,0,.31-.31L8.82,35.73a1,1,0,0,0-1.44-1.45L-8.83,44.81a1,1,0,0,0-.3.31l-10.53,16.2A1,1,0,0,0-19.52,62.63Zm12-16.19L4.4,38.71l-7.73,11.9-11.9,7.73Z"/><path class="fdf55b72-c07b-454a-bbdc-8a227288c6f9" d="M265.22,71.29a1,1,0,0,0,.53-.15,1,1,0,0,0,.51-.9V26.81a1,1,0,0,0-.51-.9,1,1,0,0,0-1,0L239.9,39.13h-6.42a9.39,9.39,0,0,0-2.07,18.55l2.72,12.78s0,.07,0,.1a.39.39,0,0,0,.06.15,1.22,1.22,0,0,0,.12.19,1.09,1.09,0,0,0,.1.11.9.9,0,0,0,.2.14l.12.06a1,1,0,0,0,.38.08h5a1,1,0,0,0,1-1.05V58.62l23.53,12.54A1,1,0,0,0,265.22,71.29ZM226.17,48.52a7.31,7.31,0,0,1,7.31-7.3h5.63V55.83h-5.63A7.32,7.32,0,0,1,226.17,48.52ZM236,69.2l-2.4-11.28h5.52V69.2Zm28.18-.7-23-12.25V40.8l23-12.25Z"/><path class="fdf55b72-c07b-454a-bbdc-8a227288c6f9" d="M137,169a1,1,0,0,0-1.14.23L129.16,176a1.07,1.07,0,0,0-.3.74v4.58L119.14,191a1,1,0,0,0,0,1.47,1,1,0,0,0,1.47,0l9.72-9.72h4.58a1.07,1.07,0,0,0,.74-.3l6.68-6.68a1,1,0,0,0-.74-1.79h-4v-4A1,1,0,0,0,137,169Zm-1.44,3.49v2.06l-4.6,4.59v-2.06Zm-1.06,8.13h-2.06l4.59-4.6h2.06Z"/><path class="fdf55b72-c07b-454a-bbdc-8a227288c6f9" d="M143.78,186.64a1,1,0,0,0-2,.43,22.65,22.65,0,0,1,.48,4.65,22.3,22.3,0,1,1-17.7-21.86,1,1,0,0,0,.44-2,24.41,24.41,0,1,0,18.82,18.82Z"/><path class="fdf55b72-c07b-454a-bbdc-8a227288c6f9" d="M119.88,186.09a5.74,5.74,0,0,1,1.17.12,1,1,0,1,0,.43-2,7.13,7.13,0,0,0-1.6-.17,7.73,7.73,0,1,0,7.72,7.72,7.13,7.13,0,0,0-.17-1.6,1,1,0,0,0-1.23-.81,1,1,0,0,0-.81,1.24,5.74,5.74,0,0,1,.12,1.17,5.64,5.64,0,1,1-5.63-5.63Z"/><path class="fdf55b72-c07b-454a-bbdc-8a227288c6f9" d="M124,177.23a1,1,0,0,0-.81-1.24,16.08,16.08,0,0,0-19.42,15.73,16.08,16.08,0,0,0,32.16,0,16.26,16.26,0,0,0-.35-3.34,1,1,0,1,0-2.05.43,13.51,13.51,0,0,1,.31,2.91,14,14,0,1,1-14-14,13.51,13.51,0,0,1,2.91.31A1,1,0,0,0,124,177.23Z"/><path class="fdf55b72-c07b-454a-bbdc-8a227288c6f9" d="M161.64-84.2h82.07v91a1,1,0,0,0,2.09,0v-91h82.9a1,1,0,0,0,1-1,1,1,0,0,0-1-1H161.64a1,1,0,0,0-1,1A1,1,0,0,0,161.64-84.2Z"/><path class="fdf55b72-c07b-454a-bbdc-8a227288c6f9" d="M204,48.52a1,1,0,0,0-1-1H120.92v-141a1,1,0,0,0-1-1,1,1,0,0,0-1,1v141H35.93a1,1,0,0,0,0,2.09h82.9V150a1,1,0,0,0,2.09,0V49.57H203A1,1,0,0,0,204,48.52Z"/><path class="fdf55b72-c07b-454a-bbdc-8a227288c6f9" d="M495.76,8.19a1.46,1.46,0,0,0,0-2.92,1.46,1.46,0,1,0,0,2.92Z"/><path class="fdf55b72-c07b-454a-bbdc-8a227288c6f9" d="M494.72,7.79a1.78,1.78,0,0,0,.47.32,1.41,1.41,0,0,0,.57.11,1.49,1.49,0,0,0,1-.43,1.67,1.67,0,0,0,.31-.47,1.62,1.62,0,0,0,0-1.12,1.88,1.88,0,0,0-.31-.48,1.18,1.18,0,0,0-.49-.3,1.45,1.45,0,0,0-1.12,0,1.34,1.34,0,0,0-.47.3,1.46,1.46,0,0,0-.31.48,1.6,1.6,0,0,0-.12.55,1.57,1.57,0,0,0,.12.57A1.33,1.33,0,0,0,494.72,7.79Z"/><path class="fdf55b72-c07b-454a-bbdc-8a227288c6f9" d="M401.62,50a1.47,1.47,0,1,0-1.45-1.47A1.46,1.46,0,0,0,401.62,50Z"/><path class="fdf55b72-c07b-454a-bbdc-8a227288c6f9" d="M389.78,48.52a1.46,1.46,0,1,0,1.47-1.46A1.46,1.46,0,0,0,389.78,48.52Z"/><path class="fdf55b72-c07b-454a-bbdc-8a227288c6f9" d="M412,50a1.47,1.47,0,1,0-1.45-1.47A1.46,1.46,0,0,0,412,50Z"/><path class="fdf55b72-c07b-454a-bbdc-8a227288c6f9" d="M379.39,48.52a1.46,1.46,0,1,0,1.47-1.46A1.46,1.46,0,0,0,379.39,48.52Z"/><path class="fdf55b72-c07b-454a-bbdc-8a227288c6f9" d="M422.41,50A1.47,1.47,0,1,0,421,48.52,1.46,1.46,0,0,0,422.41,50Z"/><path class="fdf55b72-c07b-454a-bbdc-8a227288c6f9" d="M443.19,50a1.47,1.47,0,0,0,0-2.93,1.47,1.47,0,1,0,0,2.93Z"/><path class="fdf55b72-c07b-454a-bbdc-8a227288c6f9" d="M432.8,50a1.47,1.47,0,1,0-1.47-1.47A1.47,1.47,0,0,0,432.8,50Z"/><path class="fdf55b72-c07b-454a-bbdc-8a227288c6f9" d="M453.58,50a1.42,1.42,0,0,0,1-.44,1.45,1.45,0,0,0,.42-1,1.51,1.51,0,0,0-.42-1,1.55,1.55,0,0,0-2.07,0,1.52,1.52,0,0,0-.43,1,1.46,1.46,0,0,0,.43,1A1.41,1.41,0,0,0,453.58,50Z"/><path class="fdf55b72-c07b-454a-bbdc-8a227288c6f9" d="M287.56,49.55a1.49,1.49,0,0,0,.41-1,1.45,1.45,0,0,0-2.49-1,1.57,1.57,0,0,0-.43,1,1.5,1.5,0,0,0,.43,1,1.43,1.43,0,0,0,1,.44A1.46,1.46,0,0,0,287.56,49.55Z"/><path class="fdf55b72-c07b-454a-bbdc-8a227288c6f9" d="M328.49,47.06A1.47,1.47,0,1,0,330,48.52,1.46,1.46,0,0,0,328.49,47.06Z"/><path class="fdf55b72-c07b-454a-bbdc-8a227288c6f9" d="M349.47,47.06a1.47,1.47,0,1,0,1.47,1.46A1.47,1.47,0,0,0,349.47,47.06Z"/><path class="fdf55b72-c07b-454a-bbdc-8a227288c6f9" d="M339,50a1.47,1.47,0,1,0-1.46-1.47A1.46,1.46,0,0,0,339,50Z"/><path class="fdf55b72-c07b-454a-bbdc-8a227288c6f9" d="M358.51,48.52A1.46,1.46,0,1,0,360,47.06,1.46,1.46,0,0,0,358.51,48.52Z"/><path class="fdf55b72-c07b-454a-bbdc-8a227288c6f9" d="M297,47.06A1.47,1.47,0,1,0,297,50a1.47,1.47,0,0,0,0-2.93Z"/><path class="fdf55b72-c07b-454a-bbdc-8a227288c6f9" d="M318,47.06a1.47,1.47,0,1,0,1.47,1.46A1.46,1.46,0,0,0,318,47.06Z"/><path class="fdf55b72-c07b-454a-bbdc-8a227288c6f9" d="M307.5,47.06A1.47,1.47,0,1,0,309,48.52,1.48,1.48,0,0,0,307.5,47.06Z"/><path class="fdf55b72-c07b-454a-bbdc-8a227288c6f9" d="M370.47,128.2a1.47,1.47,0,1,0,1.45,1.47A1.47,1.47,0,0,0,370.47,128.2Z"/><path class="fdf55b72-c07b-454a-bbdc-8a227288c6f9" d="M370.47,118.06a1.47,1.47,0,1,0,1.45,1.46A1.46,1.46,0,0,0,370.47,118.06Z"/><path class="fdf55b72-c07b-454a-bbdc-8a227288c6f9" d="M370.47,107.92a1.47,1.47,0,1,0,1.45,1.46A1.46,1.46,0,0,0,370.47,107.92Z"/><path class="fdf55b72-c07b-454a-bbdc-8a227288c6f9" d="M370.47,97.78a1.46,1.46,0,1,0,1.45,1.47A1.46,1.46,0,0,0,370.47,97.78Z"/><path class="fdf55b72-c07b-454a-bbdc-8a227288c6f9" d="M370.47,107.92a1.46,1.46,0,1,0,1.45,1.47A1.46,1.46,0,0,0,370.47,107.92Z"/><path class="fdf55b72-c07b-454a-bbdc-8a227288c6f9" d="M370.47,128.22a1.46,1.46,0,0,0-1.47,1.45,1.46,1.46,0,1,0,2.92,0A1.45,1.45,0,0,0,370.47,128.22Z"/><path class="fdf55b72-c07b-454a-bbdc-8a227288c6f9" d="M370.47,97.78A1.46,1.46,0,0,0,369,99.24a1.46,1.46,0,1,0,2.92,0A1.45,1.45,0,0,0,370.47,97.78Z"/><path class="fdf55b72-c07b-454a-bbdc-8a227288c6f9" d="M370.47,138.36a1.46,1.46,0,1,0,1.45,1.45A1.46,1.46,0,0,0,370.47,138.36Z"/><path class="fdf55b72-c07b-454a-bbdc-8a227288c6f9" d="M370.47,118.08a1.45,1.45,0,1,0,1.45,1.45A1.46,1.46,0,0,0,370.47,118.08Z"/><path class="fdf55b72-c07b-454a-bbdc-8a227288c6f9" d="M370.47,6.47a1.47,1.47,0,1,0,1.45,1.46A1.46,1.46,0,0,0,370.47,6.47Z"/><path class="fdf55b72-c07b-454a-bbdc-8a227288c6f9" d="M370.47,87.63a1.46,1.46,0,1,0,0,2.92,1.46,1.46,0,0,0,0-2.92Z"/><path class="fdf55b72-c07b-454a-bbdc-8a227288c6f9" d="M371.81,48l0,0a1.44,1.44,0,0,0-.29-.45,1.53,1.53,0,0,0-.3-.19,1.43,1.43,0,0,0-.73-.23,1.45,1.45,0,0,0-.93.36.39.39,0,0,0-.11.06h0a1.43,1.43,0,0,0-.43,1,1.46,1.46,0,0,0,.9,1.36,1.56,1.56,0,0,0,.57.11,1.38,1.38,0,0,0,.56-.12,1.6,1.6,0,0,0,.47-.31h0a.9.9,0,0,0,.17-.26,1.21,1.21,0,0,0,.14-.2,1.6,1.6,0,0,0,.11-.57A1.56,1.56,0,0,0,371.81,48Z"/><path class="fdf55b72-c07b-454a-bbdc-8a227288c6f9" d="M370.47,6.49a1.46,1.46,0,1,0,0,2.92,1.46,1.46,0,0,0,0-2.92Z"/><path class="fdf55b72-c07b-454a-bbdc-8a227288c6f9" d="M370.47,67.34a1.47,1.47,0,1,0,0,2.93,1.47,1.47,0,0,0,0-2.93Z"/><path class="fdf55b72-c07b-454a-bbdc-8a227288c6f9" d="M370.47,77.49A1.46,1.46,0,1,0,371.92,79,1.46,1.46,0,0,0,370.47,77.49Z"/><path class="fdf55b72-c07b-454a-bbdc-8a227288c6f9" d="M370.47,57.2a1.47,1.47,0,1,0,1.45,1.46A1.46,1.46,0,0,0,370.47,57.2Z"/><path class="fdf55b72-c07b-454a-bbdc-8a227288c6f9" d="M370.47,16.64A1.46,1.46,0,0,0,369,18.1a1.46,1.46,0,1,0,2.92,0A1.45,1.45,0,0,0,370.47,16.64Z"/><path class="fdf55b72-c07b-454a-bbdc-8a227288c6f9" d="M370.47,36.92a1.47,1.47,0,1,0,1.45,1.46A1.46,1.46,0,0,0,370.47,36.92Z"/><path class="fdf55b72-c07b-454a-bbdc-8a227288c6f9" d="M370.47,26.78A1.46,1.46,0,0,0,369,28.24a1.46,1.46,0,1,0,2.92,0A1.45,1.45,0,0,0,370.47,26.78Z"/><path class="fdf55b72-c07b-454a-bbdc-8a227288c6f9" d="M369.43,148.92a1.68,1.68,0,0,0-.32.48,1.48,1.48,0,0,0,0,1.12,1.51,1.51,0,0,0,.32.47,1.46,1.46,0,0,0,2.07,0,1.18,1.18,0,0,0,.3-.47,1.24,1.24,0,0,0,.12-.57,1.22,1.22,0,0,0-.12-.55,1.29,1.29,0,0,0-.3-.48A1.52,1.52,0,0,0,369.43,148.92Z"/><path class="fdf55b72-c07b-454a-bbdc-8a227288c6f9" d="M621.05-94.52a1,1,0,0,0-1,1v141H537.52a1,1,0,0,0,0,2.09H620V150a1,1,0,0,0,2.09,0V-93.48A1,1,0,0,0,621.05-94.52Z"/><path class="fdf55b72-c07b-454a-bbdc-8a227288c6f9" d="M383.43,187.17a.81.81,0,0,0-.33.24,1,1,0,0,0-.32.73,1.06,1.06,0,0,0,.32.74.75.75,0,0,0,.33.21.83.83,0,0,0,.4.09.81.81,0,0,0,.4-.09,1,1,0,0,0,.34-.21,1,1,0,0,0,.3-.74,1,1,0,0,0-.3-.73,1,1,0,0,0-1.14-.24Z"/><path class="fdf55b72-c07b-454a-bbdc-8a227288c6f9" d="M353.76,213.65a10.44,10.44,0,0,0,6.79-2.54,22.26,22.26,0,0,0,22.35-5.53l5.84-5.85a11.55,11.55,0,0,0,3.28-6.42s0-.05,0-.08a.24.24,0,0,0,0-.08s0-.08,0-.12a1.3,1.3,0,0,0,0-.21l-.09-.18a.91.91,0,0,0-.11-.16,1.85,1.85,0,0,0-.14-.14l-.17-.1a.64.64,0,0,0-.19-.08l-.12,0h-2.31a1,1,0,1,0,0,2.08h.83a9.6,9.6,0,0,1-2.4,4.07l-5.85,5.85a20.25,20.25,0,0,1-27.84.71L361.4,197a16,16,0,0,0,4,.53,16.35,16.35,0,0,0,3.6-.4,1,1,0,1,0-.46-2,14,14,0,0,1-7.09-.23,12.27,12.27,0,0,1-.42-16.34l15.36,15.36a1,1,0,0,0,1.47-1.48l-5.94-5.94,1.77-1.77a9.6,9.6,0,0,1,13.56,0,9.5,9.5,0,0,1,2.32,3.76s0,0,0,0a.45.45,0,0,0,.06.12.63.63,0,0,0,.13.2l.09.1a1.37,1.37,0,0,0,.2.13.27.27,0,0,0,.12.06,1,1,0,0,0,.29.07h.06a2.32,2.32,0,0,1,2.25,2.3,1,1,0,0,0,2.09,0,4.41,4.41,0,0,0-3.57-4.3A11.65,11.65,0,0,0,374,181.8l-9.44-9.44a1,1,0,1,0-1.48,1.48l9.29,9.29-.1.09L370.46,185l-8.71-8.71h0l-6.19-6.19a1,1,0,0,0-1.48,0,16.1,16.1,0,0,0,0,22.74,16.27,16.27,0,0,0,5.11,3.44l-7.84,7.84-5,5a1,1,0,0,0,0,1.47A10.44,10.44,0,0,0,353.76,213.65Zm1.8-22.3a14,14,0,0,1-.7-19l4.71,4.71a14.37,14.37,0,0,0-1.93,16A14.5,14.5,0,0,1,355.56,191.35Zm-3.44,14.93a21.92,21.92,0,0,0,6.14,4,8.47,8.47,0,0,1-9.66-.45Z"/><path class="fdf55b72-c07b-454a-bbdc-8a227288c6f9" d="M485.73,71.29a7.74,7.74,0,0,0,7.73-7.73V51.08a.7.7,0,0,0,0-.14,1.43,1.43,0,0,0,0-.22c0-.07-.07-.12-.1-.18l-.11-.16a.85.85,0,0,0-.19-.14s-.06-.07-.11-.09a6.48,6.48,0,1,1,5.75,0,.87.87,0,0,0-.11.09.79.79,0,0,0-.18.14.76.76,0,0,0-.11.16.64.64,0,0,0-.1.18,1.42,1.42,0,0,0-.05.22c0,.05,0,.09,0,.14V63.56a7.73,7.73,0,0,0,15.46,0V43.51a17.75,17.75,0,1,0-35.5,0V63.56A7.73,7.73,0,0,0,485.73,71.29Zm-5.63-15h11.27v4.59H480.1Zm31.32,4.59H500.14V56.25h11.28Zm-5.64,8.36a5.65,5.65,0,0,1-5.64-5.64v-.63h11.28v.63A5.65,5.65,0,0,1,505.78,69.2Zm5.64-25.69V54.16H500.14V51.68a8.52,8.52,0,0,0-3.34-15.79v-8A15.68,15.68,0,0,1,511.42,43.51ZM494.71,27.9v8a8.52,8.52,0,0,0-3.34,15.79v2.48H480.1V43.51A15.67,15.67,0,0,1,494.71,27.9Zm-14.61,35h11.27v.63a5.64,5.64,0,1,1-11.27,0Z"/><path class="fdf55b72-c07b-454a-bbdc-8a227288c6f9" d="M267.19,191.72a1.46,1.46,0,1,0-1.45,1.47A1.45,1.45,0,0,0,267.19,191.72Z"/><path class="fdf55b72-c07b-454a-bbdc-8a227288c6f9" d="M286.72,193.19a1.47,1.47,0,1,0,0-2.93,1.47,1.47,0,0,0,0,2.93Z"/><path class="fdf55b72-c07b-454a-bbdc-8a227288c6f9" d="M274.78,191.72a1.46,1.46,0,0,0,1.45,1.47,1.47,1.47,0,1,0,0-2.93A1.45,1.45,0,0,0,274.78,191.72Z"/><path class="fdf55b72-c07b-454a-bbdc-8a227288c6f9" d="M253.79,191.72a1.46,1.46,0,1,0,1.46-1.46A1.46,1.46,0,0,0,253.79,191.72Z"/><path class="fdf55b72-c07b-454a-bbdc-8a227288c6f9" d="M316.74,191.72a1.46,1.46,0,1,0,1.47-1.46A1.46,1.46,0,0,0,316.74,191.72Z"/><path class="fdf55b72-c07b-454a-bbdc-8a227288c6f9" d="M295.76,191.72a1.46,1.46,0,1,0,1.45-1.46A1.46,1.46,0,0,0,295.76,191.72Z"/><path class="fdf55b72-c07b-454a-bbdc-8a227288c6f9" d="M306.25,191.72a1.46,1.46,0,1,0,1.47-1.46A1.46,1.46,0,0,0,306.25,191.72Z"/><path class="fdf55b72-c07b-454a-bbdc-8a227288c6f9" d="M327.67,190.68a1.53,1.53,0,0,0-.44,1,1.47,1.47,0,0,0,.44,1,1.39,1.39,0,0,0,1,.44,1.47,1.47,0,0,0,1.46-1.47,1.72,1.72,0,0,0-.1-.55,2.07,2.07,0,0,0-.32-.49A1.55,1.55,0,0,0,327.67,190.68Z"/><path class="fdf55b72-c07b-454a-bbdc-8a227288c6f9" d="M160.61,190.68a1.53,1.53,0,0,0-.44,1,1.47,1.47,0,0,0,.44,1,1.41,1.41,0,0,0,1,.44,1.43,1.43,0,0,0,1-.44,1.45,1.45,0,0,0,.42-1,1.72,1.72,0,0,0-.1-.55,2.07,2.07,0,0,0-.32-.49A1.55,1.55,0,0,0,160.61,190.68Z"/><path class="fdf55b72-c07b-454a-bbdc-8a227288c6f9" d="M232.89,191.72a1.47,1.47,0,1,0,1.47-1.46A1.47,1.47,0,0,0,232.89,191.72Z"/><path class="fdf55b72-c07b-454a-bbdc-8a227288c6f9" d="M222.5,191.72a1.47,1.47,0,0,0,1.47,1.47,1.47,1.47,0,1,0-1.47-1.47Z"/><path class="fdf55b72-c07b-454a-bbdc-8a227288c6f9" d="M212.13,191.72a1.46,1.46,0,0,0,1.45,1.47,1.47,1.47,0,1,0,0-2.93A1.45,1.45,0,0,0,212.13,191.72Z"/><path class="fdf55b72-c07b-454a-bbdc-8a227288c6f9" d="M172,190.26a1.47,1.47,0,1,0,1.46,1.46A1.46,1.46,0,0,0,172,190.26Z"/><path class="fdf55b72-c07b-454a-bbdc-8a227288c6f9" d="M192.8,190.26a1.47,1.47,0,1,0,1.47,1.46A1.45,1.45,0,0,0,192.8,190.26Z"/><path class="fdf55b72-c07b-454a-bbdc-8a227288c6f9" d="M182.43,190.26a1.47,1.47,0,1,0,1.45,1.46A1.46,1.46,0,0,0,182.43,190.26Z"/><path class="fdf55b72-c07b-454a-bbdc-8a227288c6f9" d="M203.19,190.26a1.47,1.47,0,1,0,1.47,1.46A1.45,1.45,0,0,0,203.19,190.26Z"/><path class="fdf55b72-c07b-454a-bbdc-8a227288c6f9" d="M245.79,89.25a1.15,1.15,0,0,0-.48-.3,1.46,1.46,0,0,0-1.59.3,1.68,1.68,0,0,0-.32.48,1.48,1.48,0,0,0,0,1.12,1.51,1.51,0,0,0,.32.47,1.46,1.46,0,0,0,2.07,0,1.49,1.49,0,0,0,0-2.07Z"/><path class="fdf55b72-c07b-454a-bbdc-8a227288c6f9" d="M244.76,99a1.46,1.46,0,0,0-1.47,1.46,1.46,1.46,0,1,0,2.92,0A1.45,1.45,0,0,0,244.76,99Z"/><path class="fdf55b72-c07b-454a-bbdc-8a227288c6f9" d="M244.76,109.12a1.47,1.47,0,1,0,1.45,1.46A1.46,1.46,0,0,0,244.76,109.12Z"/><path class="fdf55b72-c07b-454a-bbdc-8a227288c6f9" d="M244.76,119.26a1.47,1.47,0,1,0,1.45,1.46A1.46,1.46,0,0,0,244.76,119.26Z"/><path class="fdf55b72-c07b-454a-bbdc-8a227288c6f9" d="M244.76,129.41a1.46,1.46,0,0,0-1.47,1.45,1.46,1.46,0,1,0,2.92,0A1.45,1.45,0,0,0,244.76,129.41Z"/><path class="fdf55b72-c07b-454a-bbdc-8a227288c6f9" d="M244.76,99a1.46,1.46,0,1,0,1.45,1.47A1.46,1.46,0,0,0,244.76,99Z"/><path class="fdf55b72-c07b-454a-bbdc-8a227288c6f9" d="M244.76,129.4a1.47,1.47,0,1,0,1.45,1.47A1.47,1.47,0,0,0,244.76,129.4Z"/><path class="fdf55b72-c07b-454a-bbdc-8a227288c6f9" d="M244.76,109.11a1.46,1.46,0,1,0,1.45,1.47A1.46,1.46,0,0,0,244.76,109.11Z"/><path class="fdf55b72-c07b-454a-bbdc-8a227288c6f9" d="M244.76,119.25a1.46,1.46,0,1,0,1.45,1.47A1.46,1.46,0,0,0,244.76,119.25Z"/><path class="fdf55b72-c07b-454a-bbdc-8a227288c6f9" d="M244.76,180.12a1.47,1.47,0,1,0,1.45,1.46A1.46,1.46,0,0,0,244.76,180.12Z"/><path class="fdf55b72-c07b-454a-bbdc-8a227288c6f9" d="M244.76,170a1.46,1.46,0,0,0-1.47,1.46,1.46,1.46,0,1,0,2.92,0A1.45,1.45,0,0,0,244.76,170Z"/><path class="fdf55b72-c07b-454a-bbdc-8a227288c6f9" d="M244.76,159.83a1.46,1.46,0,1,0,0,2.92,1.46,1.46,0,0,0,0-2.92Z"/><path class="fdf55b72-c07b-454a-bbdc-8a227288c6f9" d="M244.76,149.69a1.46,1.46,0,1,0,1.45,1.46A1.46,1.46,0,0,0,244.76,149.69Z"/><path class="fdf55b72-c07b-454a-bbdc-8a227288c6f9" d="M244.76,139.54a1.47,1.47,0,1,0,1.45,1.47A1.47,1.47,0,0,0,244.76,139.54Z"/><path class="fdf55b72-c07b-454a-bbdc-8a227288c6f9" d="M245.79,190.68a1.55,1.55,0,0,0-2.07,0,1.6,1.6,0,0,0-.32.49,1.74,1.74,0,0,0-.11.55v.05a1.46,1.46,0,0,0,.43,1,1.48,1.48,0,0,0,1,.44,1.51,1.51,0,0,0,1-.44,1.45,1.45,0,0,0,.42-1s0,0,0,0,0,0,0,0A1.51,1.51,0,0,0,245.79,190.68Z"/><path class="fdf55b72-c07b-454a-bbdc-8a227288c6f9" d="M244.76,210.59a1.47,1.47,0,1,0,0,2.93,1.47,1.47,0,0,0,0-2.93Z"/><path class="fdf55b72-c07b-454a-bbdc-8a227288c6f9" d="M244.76,220.73a1.47,1.47,0,1,0,0,2.93,1.47,1.47,0,0,0,0-2.93Z"/><path class="fdf55b72-c07b-454a-bbdc-8a227288c6f9" d="M244.76,200.45a1.47,1.47,0,1,0,0,2.93,1.47,1.47,0,0,0,0-2.93Z"/><path class="fdf55b72-c07b-454a-bbdc-8a227288c6f9" d="M244.76,230.88a1.46,1.46,0,1,0,0,2.92,1.46,1.46,0,0,0,0-2.92Z"/><path class="fdf55b72-c07b-454a-bbdc-8a227288c6f9" d="M120.92,232.51a1.31,1.31,0,0,0-.49-.31,1.37,1.37,0,0,0-1.12,0,1.17,1.17,0,0,0-.47.31,1.5,1.5,0,0,0-.43,1,1.53,1.53,0,0,0,.43,1,1.46,1.46,0,0,0,1,.43,1.49,1.49,0,0,0,1-.43,1.82,1.82,0,0,0,.31-.47,1.56,1.56,0,0,0,.1-.57A1.48,1.48,0,0,0,120.92,232.51Z"/><path class="fdf55b72-c07b-454a-bbdc-8a227288c6f9" d="M-5.84,334.82a1,1,0,0,0,1-1.05v-141h82.9a1,1,0,1,0,0-2.09H-4.79V90.29a1,1,0,0,0-1-1.05,1,1,0,0,0-1,1.05V190.68H-88.95a1,1,0,0,0-1,1,1,1,0,0,0,1,1.05H-6.88v141A1,1,0,0,0-5.84,334.82Z"/><path class="fdf55b72-c07b-454a-bbdc-8a227288c6f9" d="M495.76,334.82a1,1,0,0,0,1-1.05v-141h83.32a1,1,0,1,0,0-2.09H496.8V90.29a1,1,0,1,0-2.09,0V190.68H413.06a1,1,0,0,0,0,2.09h81.65v141A1,1,0,0,0,495.76,334.82Z"/><path class="fdf55b72-c07b-454a-bbdc-8a227288c6f9" d="M370.46,518.58a1,1,0,0,0,1.05-1v-141h82.07a1,1,0,0,0,0-2.09H371.51v-141a1,1,0,1,0-2.09,0v141h-82.9a1,1,0,1,0,0,2.09h82.9v141A1,1,0,0,0,370.46,518.58Z"/></g></svg>