<svg id="a86ceff8-993b-4093-91f6-ff003267d1d5" data-name="Layer 1" xmlns="http://www.w3.org/2000/svg" viewBox="0 0 262 180"><defs><style>.eb0eb965-64c8-4496-9b36-97fc5a2eaed8{fill:#378b8d;}</style></defs><path d="M88.40862,69.71851v6.14291h5.35574c2.15267,0,3.57029-1.23379,3.57029-3.07129,0-1.86413-1.41762-3.07162-3.57029-3.07162Zm-2.75645-2.41528h8.34814c3.64968,0,6.117,2.20507,6.117,5.43432a5.19052,5.19052,0,0,1-3.78028,5.04053L100.43238,85.68H97.38714L93.5806,78.14563h-5.172V85.68H85.65217V67.30323Z"/><path d="M103.87139,77.88285h7.92811a3.98573,3.98573,0,0,0-7.92811,0Zm4.38409,8.03362a6.87624,6.87624,0,0,1-7.00962-6.9309,6.71438,6.71438,0,0,1,6.69459-6.878c3.67529,0,6.458,3.04534,6.458,6.98314v.7614H103.84482a4.50736,4.50736,0,0,0,4.51534,3.8327,5.19777,5.19777,0,0,0,3.38684-1.18121l1.68013,1.65388a7.97039,7.97039,0,0,1-5.17165,1.759Z"/><path d="M123.45508,83.60593a4.815,4.815,0,0,0,3.70153-1.60131V75.94023a4.88528,4.88528,0,0,0-3.70153-1.57505,4.62105,4.62105,0,0,0,0,9.24075Zm3.72811.814a6.313,6.313,0,0,1-4.09564,1.47027,6.89137,6.89137,0,1,1,4.06906-12.47V67.30323l2.6252-.57749V85.68h-2.59862V84.41991Z"/><polygon points="138.681 67.303 141.438 67.303 141.438 75.179 151.203 75.179 151.203 67.303 153.96 67.303 153.96 85.68 151.203 85.68 151.203 77.673 141.438 77.673 141.438 85.68 138.681 85.68 138.681 67.303 138.681 67.303"/><path d="M161.96678,83.97353a5.1359,5.1359,0,0,0,3.5437-1.26007V80.40328a6.94126,6.94126,0,0,0-3.439-.814c-1.91641,0-3.09774.86652-3.09774,2.20539,0,1.28633,1.2076,2.17884,2.99305,2.17884Zm-5.51325-2.12625c0-2.52043,2.04766-4.0692,5.40792-4.0692a9.43067,9.43067,0,0,1,3.649.73512V77.09549c0-1.89037-1.1285-2.83541-3.25526-2.83541a9.49806,9.49806,0,0,0-4.1478,1.129l-.97134-1.9689a12.507,12.507,0,0,1,5.487-1.36513c3.46527,0,5.46042,1.7064,5.46042,4.778V85.68h-2.573V84.525a6.3377,6.3377,0,0,1-4.14749,1.39146c-2.9143,0-4.90946-1.65424-4.90946-4.06919Z"/><path d="M172.31009,74.52253h-2.83555V72.31746h2.83555V68.90457l2.59893-.63005v4.04294h3.93814v2.20507H174.909v7.24589c0,1.36517.55163,1.8638,1.9689,1.8638a5.15478,5.15478,0,0,0,1.91673-.315v2.2054a8.699,8.699,0,0,1-2.49425.39384c-2.599,0-3.99031-1.23411-3.99031-3.54429V74.52253Z"/><path d="M93.2915,113.50711c-4.96163,0-8.13813-3.17649-8.13813-8.21688V94.86785h3.80655v10.42238c0,2.86113,1.70638,4.69911,4.35784,4.69911,2.62552,0,4.30565-1.838,4.30565-4.69911V94.86785H101.43v10.42238c0,5.01414-3.20274,8.21688-8.13845,8.21688Z"/><path d="M104.23859,99.567h3.59653v1.07667a5.86918,5.86918,0,0,1,3.83247-1.33918,5.18929,5.18929,0,0,1,5.40825,5.43449v8.50565H113.4793V105.264a2.66693,2.66693,0,0,0-2.83554-2.86147,3.27588,3.27588,0,0,0-2.80864,1.36477v9.47731h-3.59653V99.567Z"/><path d="M123.40223,113.24459h-3.59651V99.567h3.59651v13.67763Zm-3.85936-17.35291a2.04782,2.04782,0,1,1,2.048,2.04766,2.05054,2.05054,0,0,1-2.048-2.04766Z"/><path d="M133.11516,110.35686a4.38749,4.38749,0,0,0,3.25526-1.3126v-5.32915a4.51387,4.51387,0,0,0-3.25526-1.28668,3.9643,3.9643,0,1,0,0,7.92843Zm3.30775,1.7589a6.20362,6.20362,0,0,1-3.88529,1.3126,7.02279,7.02279,0,0,1,.10467-14.04516,6.799,6.799,0,0,1,3.72813,1.07633V94.86785l3.59684-.7877v19.16444h-3.54435v-1.12883Z"/><path d="M153.25012,106.41906a3.78454,3.78454,0,1,0-3.78,3.96406,3.8318,3.8318,0,0,0,3.78-3.96406Zm-3.78-7.11461a7.104,7.104,0,1,1-7.29872,7.11461,7.12889,7.12889,0,0,1,7.29872-7.11461Z"/><path d="M159.6028,109.228a7.96521,7.96521,0,0,0,4.43659,1.54886c1.60169,0,2.65178-.57755,2.65178-1.44386,0-.70881-.52538-1.10259-1.70639-1.28635l-2.62553-.39378c-2.70364-.42-4.14782-1.75888-4.14782-3.964,0-2.65146,2.20517-4.33159,5.697-4.33159a10.08918,10.08918,0,0,1,5.61793,1.70606l-1.733,2.3105a8.06973,8.06973,0,0,0-4.22626-1.31259c-1.31259,0-2.153.5247-2.153,1.33885,0,.73472.52538,1.10225,1.86423,1.28634l2.62519.39378c2.67771.39346,4.17375,1.78514,4.17375,3.91156,0,2.5727-2.54613,4.51534-5.98547,4.51534a10.08019,10.08019,0,0,1-6.27423-1.89015l1.78515-2.38892Z"/><path d="M49.25978,118.74214H64.653l-.00053-41.47086H58.07474l-8.815,41.47086Zm17.748,4.70949H46.35162a2.3553,2.3553,0,0,1-2.30314-2.84452l9.816-46.18009a2.355,2.355,0,0,1,2.30366-1.86523H67.00723A2.3547,2.3547,0,0,1,69.362,74.91654l.00052,46.18034a2.35507,2.35507,0,0,1-2.35474,2.35475Z"/><path class="eb0eb965-64c8-4496-9b36-97fc5a2eaed8" d="M62.23694,52.268a5.02224,5.02224,0,1,0,5.02225,5.0222,5.02768,5.02768,0,0,0-5.02225-5.0222Zm0,14.754a9.73173,9.73173,0,1,1,9.73174-9.73176,9.74235,9.74235,0,0,1-9.73174,9.73176Z"/><path d="M197.348,102.72882h6.57774l8.815-41.47111H197.347l.001,41.47111Zm8.485,4.70949H194.99326a2.35449,2.35449,0,0,1-2.35474-2.35474l-.001-46.18061a2.35523,2.35523,0,0,1,2.35474-2.35474h20.65637a2.35428,2.35428,0,0,1,2.30293,2.84426l-9.81563,46.18088a2.35387,2.35387,0,0,1-2.30294,1.865Z"/><path class="eb0eb965-64c8-4496-9b36-97fc5a2eaed8" d="M199.76409,117.68774a5.02216,5.02216,0,1,0,5.02173,5.02243,5.02817,5.02817,0,0,0-5.02173-5.02243Zm0,14.7538a9.73165,9.73165,0,1,1,9.73133-9.73137,9.74231,9.74231,0,0,1-9.73133,9.73137Z"/></svg>