<svg id="e3d6e514-d2c7-4026-9d67-0d3f61f2c7d1" data-name="Layer 1" xmlns="http://www.w3.org/2000/svg" viewBox="0 0 262 180"><defs><style>.f857da43-0180-430c-b530-31adb3bb967d{fill:#f7823c;}</style></defs><path d="M99.61521,56.36235h7.4644c3.26568,0,5.47213,1.97173,5.47213,4.8589a4.65147,4.65147,0,0,1-3.38011,4.50681l3.66178,7.06536h-2.72286L106.707,66.045h-4.6271v6.74847H99.61521Zm2.46466,2.15951v5.48681h4.79142c1.92478,0,3.19232-1.10323,3.19232-2.74634s-1.26754-2.74634-3.19232-2.74634Z"/><path d="M119.82836,73.00468a6.16166,6.16166,0,0,1-6.26936-6.052q-.00127-.07241-.00085-.14483a6.02147,6.02147,0,0,1,5.98853-6.16165c3.28622,0,5.77435,2.72286,5.77435,6.2438v.68072H115.882a4.0315,4.0315,0,0,0,4.03735,3.427,4.65647,4.65647,0,0,0,3.03094-1.05629l1.50227,1.46706A7.127,7.127,0,0,1,119.82836,73.00468Zm-3.92-7.18273h7.08882a3.56379,3.56379,0,0,0-7.08882,0Z"/><path d="M136.75235,71.66672a5.657,5.657,0,0,1-3.66471,1.31448,6.16434,6.16434,0,0,1-.11877-12.32218q.08284-.00169.16572-.00112a6.103,6.103,0,0,1,3.59429,1.17365v-5.4692l2.3473-.5164V72.79342h-2.32383Zm-3.33609-.72767a4.31607,4.31607,0,0,0,3.31262-1.43185V64.085a4.37766,4.37766,0,0,0-3.31262-1.40837,3.9992,3.9992,0,0,0-4.06181,3.9356q-.00136.08608.001.17216a4.04028,4.04028,0,0,0,3.92417,4.15315Q133.34792,70.93943,133.41626,70.93905Z"/><path d="M147.03057,56.36235h2.46466v7.04189h8.73194V56.36235h2.46466V72.79342h-2.46466V65.63417h-8.73194v7.15925h-2.46466Z"/><path d="M162.92176,69.36637c0-2.25341,1.83089-3.63831,4.83543-3.63831a8.43552,8.43552,0,0,1,3.26274.65724V65.11776c0-1.69005-1.00934-2.53508-2.91065-2.53508a8.33367,8.33367,0,0,0-3.70873,1.00934l-.88024-1.76047a11.1822,11.1822,0,0,1,4.90585-1.22059c3.09843,0,4.88237,1.52574,4.88237,4.27207v7.92212h-2.30035V71.76061a5.66872,5.66872,0,0,1-3.70873,1.24406C164.72038,73.00468,162.92176,71.52588,162.92176,69.36637Zm4.92932,1.90131a4.59484,4.59484,0,0,0,3.16884-1.12671V68.08709a6.20577,6.20577,0,0,0-3.072-.7394c-1.71353,0-2.76981.77461-2.76981,1.97173-.00294,1.14431,1.07682,1.94826,2.673,1.94826Z"/><path d="M177.09942,62.81741h-2.53508V60.84569h2.53508V57.7942l2.32383-.56335v3.61484h3.52094v1.97172h-3.52094v6.47267c0,1.22059.49587,1.66658,1.76047,1.66658a4.62714,4.62714,0,0,0,1.71646-.29341V72.635a7.77827,7.77827,0,0,1-2.23286.35209c-2.32382,0-3.56789-1.10323-3.56789-3.16885Z"/><path d="M102.66669,81.009l8.17153,10.63325V81.009h3.19232V97.44H111.026l-8.38278-10.98534V97.44H99.41569V81.009Z"/><path d="M115.97586,93.8956c0-2.32382,1.87783-3.70872,5.02614-3.70872a9.9053,9.9053,0,0,1,2.98107.46946V89.7761c0-1.40838-.88024-2.136-2.585-2.136a9.47765,9.47765,0,0,0-3.72926,1.00934l-1.17365-2.37077a12.74288,12.74288,0,0,1,5.44573-1.31448c3.30968,0,5.211,1.6431,5.211,4.53028v7.92212h-3.16884v-.845a5.81255,5.81255,0,0,1-3.54441,1.05629C117.80674,97.65127,115.97586,96.12553,115.97586,93.8956Zm5.30782,1.46706a4.6359,4.6359,0,0,0,2.69939-.77461V92.75716a7.12129,7.12129,0,0,0-2.585-.446c-1.46706,0-2.34729.58683-2.34729,1.52575s.86849,1.514,2.2446,1.514Z"/><path d="M130.78729,87.91h-2.5116V85.21061h2.5116v-3.1219l3.22753-.72766v3.84956h3.47694V87.91h-3.48868v5.42225c0,1.15018.44892,1.57269,1.693,1.57269a4.94685,4.94685,0,0,0,1.71352-.29341v2.6407a9.97591,9.97591,0,0,1-2.49106.37557c-2.72286,0-4.13124-1.24407-4.13124-3.6383Z"/><path d="M138.83852,81.9244a1.83089,1.83089,0,1,1,1.83086,1.83091l-.00878,0A1.83383,1.83383,0,0,1,138.83852,81.9244ZM142.289,97.44h-3.21286V85.21061H142.289Z"/><path d="M143.53311,85.21061h3.49747l3.35662,8.13925,3.33316-8.14512h3.42705l-5.25795,12.22941H148.791Z"/><path d="M163.95458,97.67475a6.36665,6.36665,0,0,1-6.57243-6.3377,6.24381,6.24381,0,0,1,6.149-6.33717q.07086-.00106.14172-.00053c3.474,0,6.056,2.81676,6.056,6.57243v.845h-9.11631a3.521,3.521,0,0,0,3.474,2.55855,3.84959,3.84959,0,0,0,2.69939-.98586l2.11257,1.92478A7.33534,7.33534,0,0,1,163.95458,97.67475Zm-3.342-7.55243h5.9856a3.142,3.142,0,0,0-2.98107-2.46466A3.03681,3.03681,0,0,0,160.61261,90.12232Z"/><path d="M175.83188,93.8956c0-2.32382,1.87784-3.70872,5.02321-3.70872a9.89081,9.89081,0,0,1,2.98107.46946V89.7761c0-1.40838-.88024-2.136-2.582-2.136a9.47707,9.47707,0,0,0-3.7322,1.00934l-1.17365-2.37077a12.75169,12.75169,0,0,1,5.44572-1.31448c3.30969,0,5.211,1.6431,5.211,4.53028v7.92212h-3.16884v-.845a5.81255,5.81255,0,0,1-3.54441,1.05629C177.66277,97.65127,175.83188,96.12553,175.83188,93.8956Zm5.30489,1.46706a4.63,4.63,0,0,0,2.69939-.77461V92.75716a7.10658,7.10658,0,0,0-2.582-.446c-1.46706,0-2.3473.58683-2.3473,1.52575s.8685,1.514,2.2446,1.514Z"/><path d="M189.44619,85.21061h3.22754V86.173a5.2491,5.2491,0,0,1,3.427-1.19712,4.63979,4.63979,0,0,1,4.83542,4.8589V97.44h-3.22753V90.30424a2.38453,2.38453,0,0,0-2.53508-2.55855,2.93411,2.93411,0,0,0-2.51161,1.22059V97.44h-3.22753Z"/><path d="M212.49664,96.43068a5.54549,5.54549,0,0,1-3.474,1.17365,6.27919,6.27919,0,0,1,.0939-12.558,6.07941,6.07941,0,0,1,3.33315.96826v-4.988l3.22753-.70419V97.45762h-3.16884ZM209.539,94.858a3.92289,3.92289,0,0,0,2.91064-1.17365v-4.765a4.03732,4.03732,0,0,0-2.91064-1.15018,3.54442,3.54442,0,1,0-.00369,7.08883Z"/><path d="M99.42743,105.65555h3.40651v16.43107H99.42743Z"/><path d="M105.60081,109.85721h3.22753v.96239a5.24912,5.24912,0,0,1,3.42706-1.19712,4.6398,4.6398,0,0,1,4.83543,4.8589v7.60523H113.8633v-7.13577a2.38453,2.38453,0,0,0-2.53508-2.55855,2.93409,2.93409,0,0,0-2.51161,1.22059v8.47374h-3.22753Z"/><path d="M128.65125,121.07728a5.54552,5.54552,0,0,1-3.474,1.17365,6.27919,6.27919,0,1,1,.09389-12.558,6.07949,6.07949,0,0,1,3.33316.96826v-4.988l3.22753-.70418v17.13525H128.663Zm-2.95466-1.57269a3.92291,3.92291,0,0,0,2.91065-1.17365v-4.765a4.03735,4.03735,0,0,0-2.91065-1.1443,3.54442,3.54442,0,1,0,0,7.08883Z"/><path d="M134.12045,106.571a1.83273,1.83273,0,1,1,0,.00885Zm3.45052,15.51563h-3.22753V109.85721H137.571Z"/><path d="M139.51922,115.88976a6.20274,6.20274,0,0,1,6.18448-6.22093q.05313-.00017.10628.0006a5.9621,5.9621,0,0,1,3.30968.99173v-.79808h3.16885v12.2294c0,3.22753-2.136,5.04669-6.056,5.04669a11.37273,11.37273,0,0,1-5.09363-1.10323l1.1267-2.51161a8.71137,8.71137,0,0,0,3.89651.98587c1.92479,0,2.91065-.845,2.91065-2.44119v-1.00933a5.53669,5.53669,0,0,1-3.35663,1.10322,6.191,6.191,0,0,1-6.19741-6.18457Q139.51864,115.934,139.51922,115.88976Zm6.68979,3.54442a4.02858,4.02858,0,0,0,2.8637-1.10323v-4.812a4.10773,4.10773,0,0,0-2.83728-1.09736A3.52094,3.52094,0,1,0,146.212,119.44Z"/><path d="M160.83267,122.32135a6.36666,6.36666,0,0,1-6.57243-6.3377,6.24381,6.24381,0,0,1,6.149-6.33717q.07085-.00106.14173-.00053c3.474,0,6.056,2.81676,6.056,6.57242v.845h-9.09577a3.52094,3.52094,0,0,0,3.474,2.55855,3.84955,3.84955,0,0,0,2.69939-.98586l2.11257,1.92478A7.33528,7.33528,0,0,1,160.83267,122.32135Zm-3.35663-7.55243h5.9856a3.142,3.142,0,0,0-2.98107-2.46465A3.05983,3.05983,0,0,0,157.476,114.76892Z"/><path d="M168.57874,109.85721h3.22753v.96239a5.2491,5.2491,0,0,1,3.427-1.19712,4.6398,4.6398,0,0,1,4.83543,4.8589v7.60523h-3.22753v-7.13577a2.38453,2.38453,0,0,0-2.53508-2.55855,2.93409,2.93409,0,0,0-2.51161,1.22059v8.47374H168.567Z"/><path d="M188.46033,109.62248a6.35181,6.35181,0,1,1-6.52547,6.36117A6.37416,6.37416,0,0,1,188.46033,109.62248Zm3.38011,6.36117a3.38391,3.38391,0,1,0-3.38011,3.54442,3.41895,3.41895,0,0,0,3.38011-3.54442Z"/><path d="M200.07945,116.96951a2.403,2.403,0,0,0,2.53508,2.582,2.93412,2.93412,0,0,0,2.53508-1.2206v-8.47373h3.22753v12.22941h-3.22753v-.98587a5.20516,5.20516,0,0,1-3.45934,1.2206,4.65874,4.65874,0,0,1-4.83542-4.88238v-7.58176h3.22753Z"/><path d="M211.44035,118.49525a7.12122,7.12122,0,0,0,3.96693,1.38491c1.43185,0,2.37077-.51641,2.37077-1.291,0-.63377-.46945-.98587-1.52574-1.15018l-2.3473-.35209c-2.41771-.37557-3.70873-1.57269-3.70873-3.54442,0-2.37076,1.97172-3.873,5.09363-3.873a9.02234,9.02234,0,0,1,5.02321,1.52574l-1.54922,2.05388a7.21986,7.21986,0,0,0-3.77915-1.17365c-1.17365,0-1.92478.46947-1.92478,1.19713,0,.65724.46945.98586,1.66657,1.15017l2.3473.35209c2.39423.3521,3.73219,1.59616,3.73219,3.49747,0,2.30035-2.27688,4.03735-5.35183,4.03735a9.0126,9.0126,0,0,1-5.61-1.69Z"/><path d="M87.47089,77.978H77.83818a1.32036,1.32036,0,0,1,0-2.64071h9.63271a1.32036,1.32036,0,1,1,0,2.64071Z"/><path d="M81.04811,73.16018H77.83818a1.32035,1.32035,0,0,1,0-2.6407h3.20993a1.32035,1.32035,0,0,1,0,2.6407Z"/><path d="M81.04811,82.787H77.83818a1.32036,1.32036,0,0,1,0-2.64071h3.20993a1.32036,1.32036,0,0,1,0,2.64071Z"/><path d="M52.147,77.978H42.51432a1.32036,1.32036,0,0,1,0-2.64071H52.147a1.32036,1.32036,0,0,1,0,2.64071Z"/><path d="M52.147,82.787H48.93711a1.32036,1.32036,0,0,1,0-2.64071H52.147a1.32036,1.32036,0,0,1,0,2.64071Z"/><path d="M52.147,73.16018H48.93711a1.32035,1.32035,0,0,1,0-2.6407H52.147a1.32035,1.32035,0,0,1,0,2.6407Z"/><path d="M64.99261,65.13243A1.31742,1.31742,0,0,1,63.67225,63.818V54.17937a1.32036,1.32036,0,1,1,2.64071,0v9.63271A1.32035,1.32035,0,0,1,64.99261,65.13243Z"/><path d="M60.17479,65.13243a1.32035,1.32035,0,0,1-1.32036-1.32035V60.60215a1.32036,1.32036,0,0,1,2.64071,0v3.20993a1.31742,1.31742,0,0,1-1.31448,1.32035Z"/><path d="M69.8075,65.13243a1.32035,1.32035,0,0,1-1.32036-1.32035V60.60215a1.32036,1.32036,0,0,1,2.64071,0v3.20993a1.31742,1.31742,0,0,1-1.31448,1.32035Z"/><path d="M64.99261,100.45336a1.31743,1.31743,0,0,1-1.32036-1.31448V89.50029a1.32036,1.32036,0,0,1,2.64071,0h0V99.133a1.32036,1.32036,0,0,1-1.32035,1.32036Z"/><path d="M69.8075,94.03351a1.3233,1.3233,0,0,1-1.32036-1.32036V89.48562a1.32036,1.32036,0,0,1,2.64071,0h0v3.22753A1.32036,1.32036,0,0,1,69.8075,94.03351Z"/><path d="M60.17479,94.03351a1.3233,1.3233,0,0,1-1.32036-1.32036V89.48562a1.32036,1.32036,0,0,1,2.64071,0h0v3.22753A1.32036,1.32036,0,0,1,60.17479,94.03351Z"/><path class="f857da43-0180-430c-b530-31adb3bb967d" d="M65.01023,67.31838a9.348,9.348,0,1,0,9.33935,9.33911A9.3481,9.3481,0,0,0,65.01023,67.31838Zm0,16.05542a6.70741,6.70741,0,0,1-.01758-13.4148v-.00878a6.7118,6.7118,0,0,1,.01758,13.42358Z"/></svg>