<svg xmlns="http://www.w3.org/2000/svg" width="1140" height="212" viewBox="0 0 1140 212"><defs><style>.a{fill:#fff;}.b{fill:#e00;}.c{fill:#ed1c24;}</style></defs><path d="M162.75,53.5h-52.5A26.25,26.25,0,0,0,84,79.75v52.5a26.25,26.25,0,0,0,26.25,26.25h52.5A26.25,26.25,0,0,0,189,132.25V79.75A26.25,26.25,0,0,0,162.75,53.5Z"/><path class="a" d="M124.8509,119.4671a1.79,1.79,0,0,1-.7465-.1621,1.8186,1.8186,0,0,1-.9114-2.4059l11.648-25.8213a1.8938,1.8938,0,0,1,3.3187,0l11.648,25.8213a1.82,1.82,0,0,1-2.7528,2.204L131.474,107.3953l-4.9624,11A1.8207,1.8207,0,0,1,124.8509,119.4671Zm8.1573-15.4729,10.566,7.94L136.5,96.2506Z"/><path class="b" d="M136.5,138.3951a32.3961,32.3961,0,1,1,32.3961-32.3961A32.4322,32.4322,0,0,1,136.5,138.3951Zm0-61.1522a28.7561,28.7561,0,1,0,28.7561,28.7561A28.7878,28.7878,0,0,0,136.5,77.2429Z"/><path d="M509.75,53.5h-52.5A26.25,26.25,0,0,0,431,79.75v52.5a26.25,26.25,0,0,0,26.25,26.25h52.5A26.25,26.25,0,0,0,536,132.25V79.75A26.25,26.25,0,0,0,509.75,53.5Z"/><path class="a" d="M490.4163,132.0251a8.7456,8.7456,0,0,1-8.736-8.736V109.457a1.82,1.82,0,0,1,3.64,0v13.8321a5.0961,5.0961,0,0,0,10.1921,0V109.457a8.736,8.736,0,0,1,17.472,0v6.916a1.82,1.82,0,1,1-3.64,0v-6.916a5.096,5.096,0,0,0-10.192,0v13.8321A8.7456,8.7456,0,0,1,490.4163,132.0251Z"/><path class="b" d="M462.7523,111.277a8.7455,8.7455,0,0,1-8.736-8.736V95.625a1.82,1.82,0,0,1,3.64,0v6.916a5.096,5.096,0,1,0,10.192,0V88.709a8.736,8.736,0,1,1,17.472,0V99.083a1.82,1.82,0,0,1-3.64,0V88.709a5.096,5.096,0,0,0-10.192,0v13.832A8.7456,8.7456,0,0,1,462.7523,111.277Z"/><path d="M335.75,53.5h-52.5A26.25,26.25,0,0,0,257,79.75v52.5a26.25,26.25,0,0,0,26.25,26.25h52.5A26.25,26.25,0,0,0,362,132.25V79.75A26.25,26.25,0,0,0,335.75,53.5Z"/><path class="c" d="M317.1562,127.51H331.01V113.6563H317.1562V127.51Zm15.677,3.6459h-17.5a1.8239,1.8239,0,0,1-1.8228-1.823v-17.5a1.8238,1.8238,0,0,1,1.8228-1.8228h17.5a1.8237,1.8237,0,0,1,1.823,1.8228v17.5a1.8239,1.8239,0,0,1-1.823,1.823Z"/><path class="c" d="M317.1562,98.3438H331.01V84.49H317.1562V98.3438Zm15.677,3.6457h-17.5a1.8237,1.8237,0,0,1-1.8228-1.8228v-17.5a1.8237,1.8237,0,0,1,1.8228-1.8229h17.5a1.8237,1.8237,0,0,1,1.823,1.8229v17.5a1.8237,1.8237,0,0,1-1.823,1.8228Z"/><path class="c" d="M287.99,98.3438h13.8542V84.49H287.99V98.3438Zm15.6772,3.6457h-17.5a1.8237,1.8237,0,0,1-1.823-1.8228v-17.5a1.8237,1.8237,0,0,1,1.823-1.8229h17.5a1.8237,1.8237,0,0,1,1.8228,1.8229v17.5a1.8236,1.8236,0,0,1-1.8228,1.8228Z"/><path class="a" d="M303.6667,110.01H289.0832a1.823,1.823,0,0,0,0,3.6459h10.18l-14.3867,14.3882a1.8238,1.8238,0,0,0,2.5807,2.5777l14.3867-14.3867v10.1812a1.8229,1.8229,0,1,0,3.6458,0V111.8332a1.8237,1.8237,0,0,0-1.8228-1.8228Z"/><rect class="a" x="778" y="53.5" width="104.9999" height="104.9999" rx="26.25"/><path d="M856.75,57.1459A22.63,22.63,0,0,1,879.3542,79.75v52.5A22.63,22.63,0,0,1,856.75,154.8541h-52.5A22.63,22.63,0,0,1,781.6459,132.25V79.75A22.63,22.63,0,0,1,804.25,57.1459h52.5m0-3.6459h-52.5A26.25,26.25,0,0,0,778,79.75v52.5a26.25,26.25,0,0,0,26.25,26.25h52.5A26.25,26.25,0,0,0,883,132.25V79.75A26.25,26.25,0,0,0,856.75,53.5Z"/><path d="M853.8342,131.1562H823.32a1.8237,1.8237,0,0,1-1.8229-1.8229V123.18a1.823,1.823,0,0,1,3.6459,0V127.51h26.868V100.6438H821.5259a1.823,1.823,0,0,1,0-3.6459h32.3083a1.8238,1.8238,0,0,1,1.823,1.8229v30.5125A1.8237,1.8237,0,0,1,853.8342,131.1562Z"/><path d="M825.1148,106.0285a1.8188,1.8188,0,0,1-1.29-.5341l-5.3833-5.3847a1.8275,1.8275,0,0,1,0-2.5777l5.3833-5.3847a1.8237,1.8237,0,0,1,2.5806,2.5777l-4.0959,4.0958,4.0959,4.0959a1.8244,1.8244,0,0,1-1.29,3.1118Z"/><path class="b" d="M839.4731,115.0021H807.1676a1.8238,1.8238,0,0,1-1.8229-1.823V82.6667a1.8237,1.8237,0,0,1,1.8229-1.8229h30.5111a1.8237,1.8237,0,0,1,1.8229,1.8229V88.82a1.823,1.823,0,1,1-3.6459,0V84.49H808.9905v26.8666h30.4826a1.823,1.823,0,0,1,0,3.6459Z"/><path class="b" d="M835.8842,120.3868a1.8215,1.8215,0,0,1-1.2874-3.1118l4.0959-4.0959-4.0959-4.0958a1.8217,1.8217,0,1,1,2.5749-2.5777l5.3861,5.3847a1.8188,1.8188,0,0,1,0,2.5777l-5.3861,5.3847A1.8077,1.8077,0,0,1,835.8842,120.3868Z"/><path class="a" d="M682.75,53.5h-52.5A26.25,26.25,0,0,0,604,79.75v52.5a26.25,26.25,0,0,0,26.25,26.25h52.5A26.25,26.25,0,0,0,709,132.25V79.75A26.25,26.25,0,0,0,682.75,53.5Z"/><path d="M682.75,57.1459A22.63,22.63,0,0,1,705.3541,79.75v52.5A22.63,22.63,0,0,1,682.75,154.8541h-52.5A22.63,22.63,0,0,1,607.6458,132.25V79.75A22.63,22.63,0,0,1,630.25,57.1459h52.5m0-3.6459h-52.5A26.25,26.25,0,0,0,604,79.75v52.5a26.25,26.25,0,0,0,26.25,26.25h52.5A26.25,26.25,0,0,0,709,132.25V79.75A26.25,26.25,0,0,0,682.75,53.5Z"/><path d="M668.1533,131.1565a1.8224,1.8224,0,0,1-.9115-.2435L657.1389,125.08a1.8251,1.8251,0,0,1-.9115-1.5794V111.8336a1.8253,1.8253,0,0,1,.9115-1.5794l10.1029-5.8333a1.8274,1.8274,0,0,1,1.8229,0l10.103,5.8333a1.8254,1.8254,0,0,1,.9114,1.5794V123.5a1.8253,1.8253,0,0,1-.9114,1.5794l-10.103,5.8334A1.8223,1.8223,0,0,1,668.1533,131.1565Zm-8.28-8.7087,8.28,4.7809,8.28-4.7809V112.886l-8.28-4.7808-8.28,4.7808Zm18.383,1.0524h0Z"/><path d="M644.8342,119.49H630.2509a1.8236,1.8236,0,0,1-1.8229-1.8229V79.75a1.8236,1.8236,0,0,1,1.8229-1.8229h37.9166A1.8236,1.8236,0,0,1,669.99,79.75V94.3336a1.8229,1.8229,0,0,1-3.6458,0v-12.76H632.0738V115.844h12.76a1.8229,1.8229,0,0,1,0,3.6458Z"/><path class="b" d="M656.498,139.7014a1.8,1.8,0,0,1-.9086-.2449,25.1576,25.1576,0,1,1,31.4453-38.428,1.8233,1.8233,0,0,1-2.7344,2.4126,21.5113,21.5113,0,1,0-26.888,32.8594,1.8225,1.8225,0,0,1-.9143,3.4009Z"/><path class="a" d="M1029.75,53.5h-52.5A26.25,26.25,0,0,0,951,79.75v52.5a26.25,26.25,0,0,0,26.25,26.25h52.5A26.25,26.25,0,0,0,1056,132.25V79.75a26.25,26.25,0,0,0-26.25-26.25Z"/><path d="M1029.75,53.5h-52.5A26.25,26.25,0,0,0,951,79.75v52.5a26.25,26.25,0,0,0,26.25,26.25h52.5A26.25,26.25,0,0,0,1056,132.25V79.75a26.25,26.25,0,0,0-26.25-26.25Zm0,3.6458A22.63,22.63,0,0,1,1052.3543,79.75v52.5a22.63,22.63,0,0,1-22.6043,22.6043h-52.5A22.63,22.63,0,0,1,954.6459,132.25V79.75A22.63,22.63,0,0,1,977.25,57.1458h52.5"/><path class="c" d="M981.99,89.5938h5.104V84.49H981.99v5.1042Zm6.9271,3.6458h-8.75a1.823,1.823,0,0,1-1.8231-1.8229v-8.75a1.823,1.823,0,0,1,1.8231-1.8229h8.75a1.8229,1.8229,0,0,1,1.8229,1.8229v8.75a1.8229,1.8229,0,0,1-1.8229,1.8229Z"/><path class="c" d="M1019.9062,89.5938h5.1043V84.49h-5.1043v5.1042Zm6.9272,3.6458h-8.75a1.8237,1.8237,0,0,1-1.8229-1.8229v-8.75a1.8237,1.8237,0,0,1,1.8229-1.8229h8.75a1.8237,1.8237,0,0,1,1.8228,1.8229v8.75a1.8237,1.8237,0,0,1-1.8228,1.8229Z"/><path class="c" d="M1019.9062,127.5105h5.1043v-5.1042h-5.1043v5.1042Zm6.9272,3.6458h-8.75a1.8238,1.8238,0,0,1-1.8229-1.823v-8.75a1.8237,1.8237,0,0,1,1.8229-1.8229h8.75a1.8237,1.8237,0,0,1,1.8228,1.8229v8.75a1.8237,1.8237,0,0,1-1.8228,1.823Z"/><path class="c" d="M981.99,127.5105h5.104v-5.1042H981.99v5.1042Zm6.9271,3.6458h-8.75a1.823,1.823,0,0,1-1.8231-1.823v-8.75a1.823,1.823,0,0,1,1.8231-1.8229h8.75a1.8229,1.8229,0,0,1,1.8229,1.8229v8.75a1.8229,1.8229,0,0,1-1.8229,1.823Z"/><path d="M1009.3334,85.2246a1.8469,1.8469,0,0,1-.4529-.0571,21.7707,21.7707,0,0,0-10.7594,0,1.8234,1.8234,0,1,1-.9087-3.5318,25.4617,25.4617,0,0,1,12.574,0,1.823,1.823,0,0,1-.453,3.5889Z"/><path d="M980.9,113.6563a1.8234,1.8234,0,0,1-1.7646-1.3686,25.3551,25.3551,0,0,1,0-12.5754,1.8234,1.8234,0,1,1,3.5318.9089,21.6815,21.6815,0,0,0,0,10.7577,1.8246,1.8246,0,0,1-1.3117,2.2205,1.8587,1.8587,0,0,1-.4555.0569Z"/><path d="M1003.5,131.1563a25.2389,25.2389,0,0,1-6.2876-.7919,1.8234,1.8234,0,1,1,.9087-3.5318,21.7731,21.7731,0,0,0,10.7594,0,1.8231,1.8231,0,1,1,.9059,3.5318,25.2454,25.2454,0,0,1-6.2864.7919Z"/><path d="M1026.0984,113.6563a1.8441,1.8441,0,0,1-.4526-.0569,1.8246,1.8246,0,0,1-1.3132-2.219,21.6907,21.6907,0,0,0,0-10.7608,1.8231,1.8231,0,1,1,3.5318-.9058,25.35,25.35,0,0,1,0,12.5725,1.8228,1.8228,0,0,1-1.766,1.37Z"/><path d="M997.2493,103.68a3.5938,3.5938,0,0,0,0,7.1875h14.1663a1.9168,1.9168,0,0,0,.205-3.8237,1.8221,1.8221,0,0,1-1.6292-1.9154l.02-.3546a5.26,5.26,0,0,0-10.0857-2.0922,1.8235,1.8235,0,0,1-2.01,1.064,3.5284,3.5284,0,0,0-.6665-.0656Zm14.5848,10.8334H997.2493a7.24,7.24,0,0,1-.0382-14.4793,8.9074,8.9074,0,0,1,16.3975,3.7982,5.5629,5.5629,0,0,1-1.2246,10.5971,1.846,1.846,0,0,1-.55.084Z"/></svg>