<svg xmlns="http://www.w3.org/2000/svg" width="262" height="180" viewBox="0 0 262 180"><defs><style>.a{fill:#fff;}.b{fill:#e00;}</style></defs><path d="M157.25,37.5h-52.5A26.25,26.25,0,0,0,78.5,63.75v52.5a26.25,26.25,0,0,0,26.25,26.25h52.5a26.25,26.25,0,0,0,26.25-26.25V63.75A26.25,26.25,0,0,0,157.25,37.5Z"/><path class="a" d="M137.7433,115.3759a8.5265,8.5265,0,0,1-8.5167-8.5167V93.3735a1.7743,1.7743,0,0,1,3.5486,0v13.4857a4.968,4.968,0,0,0,9.936,0V93.3735a8.5167,8.5167,0,0,1,17.0334,0v6.7434a1.7743,1.7743,0,1,1-3.5485,0V93.3735a4.9681,4.9681,0,0,0-9.9361,0v13.4857A8.5276,8.5276,0,0,1,137.7433,115.3759Z"/><path class="b" d="M110.7739,95.147a8.5275,8.5275,0,0,1-8.5167-8.5167V79.8879a1.7743,1.7743,0,1,1,3.5485,0V86.63a4.9681,4.9681,0,0,0,9.9361,0V73.1456a8.5167,8.5167,0,0,1,17.0334,0V83.2567a1.7743,1.7743,0,0,1-3.5486,0V73.1456a4.968,4.968,0,1,0-9.936,0V86.63A8.5277,8.5277,0,0,1,110.7739,95.147Z"/></svg>