<?xml version="1.0" encoding="utf-8"?>
<!-- Generator: Adobe Illustrator 25.4.1, SVG Export Plug-In . SVG Version: 6.00 Build 0)  -->
<svg version="1.1" id="Layer_1" xmlns="http://www.w3.org/2000/svg" xmlns:xlink="http://www.w3.org/1999/xlink" x="0px" y="0px"
	 viewBox="0 0 262 180" style="enable-background:new 0 0 262 180;" xml:space="preserve">
<style type="text/css">
	.st0{clip-path:url(#SVGID_00000057859161418762832410000013388697808534540173_);}
	.st1{clip-path:url(#SVGID_00000010283332219355548650000009850674031597508239_);}
	.st2{fill:#FFFFFF;}
	.st3{fill:#EE0000;}
</style>
<g>
	<defs>
		<rect id="SVGID_1_" x="292" y="-560" width="555" height="250"/>
	</defs>
	<clipPath id="SVGID_00000063625858481107506960000017348845098016642231_">
		<use xlink:href="#SVGID_1_"  style="overflow:visible;"/>
	</clipPath>
	<g style="clip-path:url(#SVGID_00000063625858481107506960000017348845098016642231_);">
		<g>
			<defs>
				<circle id="SVGID_00000143612224989510046380000018044878575010551174_" cx="342.3" cy="-509.7" r="47.3"/>
			</defs>
			<clipPath id="SVGID_00000080203294600620829900000014985977851564984475_">
				<use xlink:href="#SVGID_00000143612224989510046380000018044878575010551174_"  style="overflow:visible;"/>
			</clipPath>
			<g style="clip-path:url(#SVGID_00000080203294600620829900000014985977851564984475_);">
				
					<image style="overflow:visible;enable-background:new    ;" width="3004" height="1920" xlink:href="B3D89CD36D673249.png"  transform="matrix(0.6251 0 0 0.6251 120.1429 -574.7881)">
				</image>
			</g>
		</g>
	</g>
</g>
<path d="M94.8,96.3c-2.2,0-4.4-0.8-6-2.3l1.5-1.4c1.2,1.2,2.8,1.9,4.5,1.8c2.2,0,3.7-1.2,3.7-2.8c0-1.4-1.3-2.5-3.6-2.5h-1.4v-1.8
	h1.2c2,0,3.2-1.3,3.2-2.8c0-1.4-1.4-2.5-3.3-2.5c-1.6,0-3.2,0.7-4.2,1.9L89,82.4c1.5-1.6,3.6-2.4,5.8-2.4c3.2,0,5.4,1.8,5.4,4.3
	c0,1.6-1.1,3.1-2.6,3.7c1.8,0.4,3.1,1.9,3.2,3.7C100.8,94.4,98.3,96.3,94.8,96.3L94.8,96.3z"/>
<path d="M103.3,93.1c1,0.9,2.4,1.4,3.8,1.4c1.8,0,2.8-0.8,2.8-1.7c0-0.8-0.6-1.3-1.9-1.5l-2.1-0.3c-2.3-0.3-3.4-1.4-3.4-3.2
	c0-2.1,1.9-3.5,4.5-3.5c1.7,0,3.3,0.5,4.6,1.5l-1.2,1.5c-1.1-0.8-2.3-1.2-3.6-1.2c-1.3,0-2.3,0.6-2.3,1.6c0,0.9,0.5,1.2,1.9,1.4
	l2.1,0.3c2.3,0.3,3.5,1.4,3.5,3.2c0,2.1-2.1,3.6-4.8,3.6c-1.8,0.1-3.6-0.6-5-1.7L103.3,93.1L103.3,93.1z"/>
<path d="M122.4,92.9l1.4,1.5c-1.2,1.2-2.8,1.9-4.5,1.9c-3.2,0-5.9-2.6-5.9-5.8c0-0.1,0-0.1,0-0.2c0-3.2,2.5-5.9,5.8-6
	c0,0,0.1,0,0.1,0c1.7,0,3.4,0.7,4.6,1.9l-1.4,1.5c-0.8-0.9-2-1.4-3.2-1.4c-2.1,0-3.8,1.8-3.7,3.9c0,0,0,0,0,0c0,0,0,0.1,0,0.1
	c-0.1,2.1,1.5,3.9,3.6,4c0,0,0.1,0,0.1,0C120.5,94.3,121.6,93.8,122.4,92.9L122.4,92.9z"/>
<path d="M129.8,94.6c1.1,0,2.2-0.4,3.1-1.1v-2c-0.9-0.5-1.9-0.7-3-0.7c-1.6,0-2.7,0.7-2.7,1.9C127.2,93.8,128.2,94.6,129.8,94.6
	L129.8,94.6z M125,92.8c0-2.3,2-3.5,4.7-3.5c1.1,0,2.1,0.2,3.1,0.6v-1.2c0-1.6-1-2.4-2.8-2.4c-1.2,0.1-2.5,0.4-3.6,1l-0.8-1.7
	c1.5-0.7,3.1-1.1,4.7-1.2c3,0,4.7,1.4,4.7,4.1v7.6h-2.2v-1c-1,0.8-2.3,1.2-3.6,1.2C126.7,96.3,125,94.8,125,92.8L125,92.8z"/>
<path d="M139.9,96.1h-2.3V80.2l2.3-0.5C139.9,79.7,139.9,96.1,139.9,96.1z"/>
<path d="M144.3,89.3h6.8c-0.2-1.9-1.9-3.3-3.8-3.1C145.7,86.5,144.4,87.7,144.3,89.3z M147.8,84.4c3.1,0.1,5.6,2.7,5.6,5.8
	c0,0,0,0,0,0c0,0.1,0,0.1,0,0.2V91h-9.1c0.3,1.9,1.9,3.3,3.9,3.3c1.1,0,2.1-0.3,2.9-1l1.4,1.4c-1.3,1-2.8,1.6-4.5,1.5
	c-3.3,0.1-6-2.5-6-5.8c0-0.1,0-0.1,0-0.2c-0.1-3.2,2.4-5.8,5.6-5.9C147.7,84.4,147.7,84.4,147.8,84.4L147.8,84.4z"/>
<path d="M169.5,89.5l-2.8-6.9l-2.8,6.9H169.5z M165.4,80.2h2.8l6.5,15.8h-2.6l-1.8-4.6h-7.1l-1.9,4.6h-2.5L165.4,80.2L165.4,80.2z"
	/>
<path d="M178.7,82.3v5.4h4.7c1.9,0,3-1.1,3-2.7s-1.1-2.7-3-2.7H178.7z M176.3,80.2h7.3c3.1,0,5.2,1.9,5.2,4.7c0,2.7-2.1,4.7-5.2,4.7
	h-4.9v6.4h-2.4L176.3,80.2L176.3,80.2z"/>
<path d="M191.3,80.2h2.4v15.8h-2.4V80.2z"/>
<path d="M92.2,106.7v12.9H90v-15.8h3.2l5,10.1l4.9-10.1h3.2v15.8H104v-12.9l-5.9,11.8L92.2,106.7L92.2,106.7z"/>
<path d="M113.1,118.1c1.1,0,2.2-0.4,3.1-1.1v-2c-0.9-0.5-1.9-0.7-3-0.7c-1.6,0-2.7,0.7-2.7,1.9C110.5,117.3,111.6,118.1,113.1,118.1
	L113.1,118.1z M108.4,116.2c0-2.3,2-3.5,4.7-3.5c1.1,0,2.1,0.2,3.1,0.6v-1.2c0-1.6-1-2.4-2.8-2.4c-1.2,0.1-2.5,0.4-3.6,1l-0.8-1.7
	c1.5-0.7,3.1-1.1,4.7-1.2c3,0,4.7,1.4,4.7,4.1v7.6h-2.2v-1c-1,0.8-2.3,1.2-3.6,1.2C110.1,119.7,108.4,118.3,108.4,116.2L108.4,116.2
	z"/>
<path d="M121,108h2.3v1.2c0.9-0.9,2.2-1.4,3.5-1.4c2.4-0.1,4.4,1.7,4.5,4.1c0,0.1,0,0.3,0,0.4v7.2h-2.2v-6.8c0.1-1.5-1-2.8-2.4-2.9
	c-0.1,0-0.3,0-0.4,0c-1.1,0-2.2,0.5-2.8,1.5v8.3H121L121,108L121,108z"/>
<path d="M138,118.1c1.1,0,2.2-0.4,3.1-1.1v-2c-0.9-0.5-1.9-0.7-3-0.7c-1.6,0-2.7,0.7-2.7,1.9C135.4,117.3,136.4,118.1,138,118.1
	L138,118.1z M133.2,116.2c0-2.3,2-3.5,4.7-3.5c1.1,0,2.1,0.2,3.1,0.6v-1.2c0-1.6-1-2.4-2.8-2.4c-1.2,0.1-2.5,0.4-3.6,1l-0.8-1.7
	c1.5-0.7,3.1-1.1,4.7-1.2c3,0,4.7,1.4,4.7,4.1v7.6H141v-1c-1,0.8-2.3,1.2-3.6,1.2C134.9,119.7,133.2,118.3,133.2,116.2L133.2,116.2z
	"/>
<path d="M151.4,117.7c1.2,0,2.4-0.5,3.2-1.3v-5.2c-0.8-0.9-2-1.4-3.2-1.3c-2.1,0-3.8,1.7-3.8,3.8c0,0,0,0,0,0c0,0,0,0.1,0,0.1
	c-0.1,2.1,1.6,3.9,3.7,3.9c0,0,0,0,0,0C151.3,117.7,151.4,117.7,151.4,117.7L151.4,117.7z M145.3,113.7c-0.1-3.2,2.5-5.8,5.7-5.9h0
	c0,0,0.1,0,0.1,0c1.2,0,2.4,0.4,3.4,1.2V108h2.2v11.6c0,3-1.9,4.7-5.3,4.7c-1.6,0-3.2-0.4-4.6-1.1l0.9-1.8c1.1,0.6,2.4,1,3.7,1
	c2,0,3.1-0.9,3.1-2.7v-1.2c-1,0.8-2.2,1.2-3.4,1.2c-3.2,0-5.8-2.6-5.8-5.8C145.3,113.8,145.3,113.8,145.3,113.7L145.3,113.7z"/>
<path d="M161.2,112.8h6.8c-0.2-1.9-1.9-3.3-3.8-3.1C162.6,109.9,161.4,111.2,161.2,112.8L161.2,112.8z M164.7,107.8
	c3.1,0.1,5.6,2.7,5.6,5.8c0,0,0,0,0,0c0,0.1,0,0.1,0,0.2v0.7h-9.1c0.3,1.9,1.9,3.3,3.9,3.3c1.1,0,2.1-0.3,2.9-1l1.4,1.4
	c-1.3,1-2.8,1.6-4.5,1.5c-3.3,0.1-6-2.5-6-5.8c0-0.1,0-0.1,0-0.2c-0.1-3.2,2.4-5.8,5.6-5.9C164.6,107.8,164.7,107.8,164.7,107.8
	L164.7,107.8z"/>
<path d="M172.4,108h2.3v1.1c0.8-0.8,2-1.3,3.2-1.3c1.4,0,2.8,0.7,3.6,1.9c0.9-1.2,2.4-2,3.9-1.9c2.3-0.1,4.3,1.8,4.3,4.1
	c0,0.1,0,0.3,0,0.4v7.2h-2.2v-6.8c0-1.8-1-2.9-2.6-2.9c-1.1,0-2.1,0.6-2.7,1.5c0.1,0.3,0.1,0.7,0.1,1v7.2h-2.3v-6.8
	c0-1.8-1-2.9-2.6-2.9c-1,0-2,0.5-2.6,1.4v8.4h-2.3L172.4,108z"/>
<path d="M194,112.8h6.8c-0.2-1.9-1.9-3.3-3.8-3.1C195.4,109.9,194.2,111.2,194,112.8L194,112.8z M197.5,107.8
	c3.1,0.1,5.6,2.7,5.6,5.8c0,0.1,0,0.1,0,0.2v0.7H194c0.3,1.9,1.9,3.3,3.9,3.3c1.1,0,2.1-0.3,2.9-1l1.4,1.4c-1.3,1-2.8,1.6-4.5,1.5
	c-3.3,0.1-6-2.5-6-5.8c0,0,0,0,0,0c0-0.1,0-0.1,0-0.2c-0.1-3.2,2.4-5.8,5.6-5.9C197.4,107.8,197.5,107.8,197.5,107.8L197.5,107.8z"
	/>
<path d="M205.2,108h2.3v1.2c0.9-0.9,2.2-1.4,3.5-1.4c2.4-0.1,4.4,1.7,4.5,4.1c0,0,0,0,0,0c0,0.1,0,0.3,0,0.4v7.2h-2.2v-6.8
	c0.1-1.5-1-2.8-2.4-2.9c-0.1,0-0.3,0-0.4,0c-1.1,0-2.2,0.5-2.8,1.5v8.3h-2.3L205.2,108L205.2,108z"/>
<path d="M219.1,109.9h-2.4V108h2.4v-2.9l2.2-0.5v3.5h3.4v1.9h-3.4v6.2c0,1.2,0.5,1.6,1.7,1.6c0.6,0,1.1-0.1,1.6-0.3v1.9
	c-0.7,0.2-1.4,0.3-2.1,0.3c-2.2,0-3.4-1.1-3.4-3.1L219.1,109.9L219.1,109.9z"/>
<path d="M89.7,72.5h3.9v-5.8h3l3,5.8h4.4l-3.5-6.4c1.8-0.7,3-2.5,3-4.5c0-2.9-2.3-5.1-5.6-5.1h-8.2L89.7,72.5z M97.5,59.9
	c1-0.1,1.9,0.6,2,1.6c0.1,1-0.6,1.9-1.6,2c-0.1,0-0.3,0-0.4,0h-3.9v-3.6L97.5,59.9z M103.9,66.5c0,3.5,2.9,6.3,6.4,6.3c0,0,0,0,0,0
	c0.1,0,0.1,0,0.2,0c1.9,0.1,3.7-0.6,5.1-1.8l-2.4-2.2c-0.6,0.6-1.5,1-2.4,0.9c-1.3,0-2.5-0.7-3-1.9h8.6v-0.9c0-3.8-2.6-6.6-6.1-6.6
	c-3.4-0.1-6.3,2.7-6.3,6.1C103.9,66.4,103.9,66.4,103.9,66.5 M110.2,63.2c1.2,0,2.2,0.8,2.5,1.9h-5.1C107.9,64,109,63.2,110.2,63.2
	 M126.9,72.5h3.7V55.7l-3.7,0.8v4.5c-3-1.7-6.9-0.6-8.6,2.4c-0.5,0.9-0.8,1.8-0.8,2.8c0,0,0,0.1,0,0.1c0,3.4,2.7,6.2,6.1,6.2
	c0,0,0,0,0,0c0,0,0.1,0,0.1,0c1.2,0,2.3-0.4,3.2-1.1L126.9,72.5L126.9,72.5z M121.2,66.5c0-1.7,1.4-3.1,3.1-3.1c0,0,0.1,0,0.1,0
	c0.9,0,1.9,0.3,2.6,0.9v4.2c-0.7,0.6-1.6,1-2.6,1C122.6,69.6,121.2,68.2,121.2,66.5C121.2,66.6,121.2,66.6,121.2,66.5
	C121.2,66.5,121.2,66.5,121.2,66.5 M136.1,72.5h3.9v-6.3h6.6v6.3h3.9v-16h-3.9v6.1h-6.6v-6.1h-3.9V72.5L136.1,72.5z M156.2,72.7
	c1.2,0,2.4-0.3,3.3-0.9v0.7h3.7v-7.7c0-2.9-2-4.6-5.3-4.6c-2,0-3.9,0.5-5.6,1.3l1.3,2.7c1.1-0.6,2.4-0.9,3.7-1
	c1.5,0,2.3,0.6,2.3,1.8v0.6c-0.9-0.2-1.8-0.3-2.7-0.3c-3.1,0-5,1.3-5,3.6C151.8,71.1,153.5,72.7,156.2,72.7 M155.1,68.9
	c0-0.8,0.8-1.2,2-1.2c0.7,0,1.5,0.1,2.2,0.3v1.6c-0.7,0.4-1.5,0.6-2.3,0.6C155.8,70.1,155.1,69.7,155.1,68.9 M166.6,68.8
	c0,2.6,1.6,3.8,4.4,3.8c0.9,0,1.7-0.1,2.6-0.4v-3c-0.5,0.2-1.1,0.3-1.7,0.3c-1.2,0-1.6-0.4-1.6-1.5v-4.6h3.4v-3.1h-3.4v-3.9
	l-3.7,0.8v3.1h-2.4v3.1h2.4L166.6,68.8L166.6,68.8z"/>
<path d="M68.3,55.7H47.6c-5.7,0-10.3,4.6-10.3,10.3v20.6c0,5.7,4.6,10.3,10.3,10.3h20.6c5.7,0,10.3-4.6,10.3-10.3V66
	C78.6,60.3,74,55.7,68.3,55.7L68.3,55.7z"/>
<path class="st2" d="M64.8,71.7c-1.3,0-2.4-1-2.4-2.3c-0.1-1.3,0.9-2.5,2.3-2.6c1.3-0.1,2.5,0.9,2.6,2.3l0,0
	c0.1,1.3-0.9,2.5-2.3,2.6C64.9,71.7,64.9,71.7,64.8,71.7z M64.8,68.3L64.8,68.3c-0.6,0-1,0.5-1,1.1v0c0,0.6,0.5,1,1.1,0.9
	c0.5,0,1-0.5,0.9-1.1l0,0C65.8,68.7,65.4,68.3,64.8,68.3L64.8,68.3z"/>
<path class="st2" d="M64.8,85.7c-1.3,0-2.4-1.1-2.4-2.4s1.1-2.4,2.4-2.4c1.3,0,2.4,1.1,2.4,2.4l0,0C67.3,84.6,66.2,85.7,64.8,85.7z
	 M64.8,82.2c-0.6,0-1,0.4-1,1s0.4,1,1,1s1-0.4,1-1S65.4,82.2,64.8,82.2L64.8,82.2z"/>
<path class="st2" d="M63.1,84h-4.6c-0.4,0-0.7-0.3-0.7-0.7v-3.4c0-0.4,0.3-0.7,0.7-0.7s0.7,0.3,0.7,0.7v2.7h3.9
	c0.4,0,0.7,0.3,0.7,0.7C63.8,83.6,63.5,84,63.1,84C63.1,84,63.1,84,63.1,84z"/>
<path class="st2" d="M58.5,80.5c-0.4,0-0.7-0.3-0.7-0.7V69.5c0-0.4,0.3-0.7,0.7-0.7h4.6c0.4,0,0.7,0.3,0.7,0.7
	c0,0.4-0.3,0.7-0.7,0.7h-3.9v9.6C59.2,80.2,58.9,80.5,58.5,80.5L58.5,80.5z"/>
<path class="st2" d="M68.8,78.8h-3.4c-0.4,0-0.7-0.3-0.7-0.7v-3.4c0-0.4,0.3-0.7,0.7-0.7h3.4c0.4,0,0.7,0.3,0.7,0.7V78
	C69.6,78.4,69.2,78.8,68.8,78.8z M66.1,77.3h2v-2h-2V77.3z"/>
<path class="st2" d="M65.4,77.1h-6.9c-0.4,0-0.7-0.3-0.7-0.7c0-0.4,0.3-0.7,0.7-0.7h6.9c0.4,0,0.7,0.3,0.7,0.7
	C66.1,76.8,65.8,77.1,65.4,77.1z"/>
<circle cx="57.4" cy="76.4" r="3.4"/>
<path class="st3" d="M57.4,80.5c-2.3,0-4.2-1.9-4.2-4.2s1.9-4.2,4.2-4.2s4.2,1.9,4.2,4.2C61.5,78.7,59.7,80.5,57.4,80.5z"/>
<path class="st3" d="M56.2,83.9c0,0-0.1,0-0.1,0c-4.1-0.7-6.9-4.6-6.2-8.7c0.5-3.2,3-5.7,6.2-6.2c0.4-0.1,0.8,0.2,0.8,0.6
	c0.1,0.4-0.2,0.8-0.6,0.8h0c-3.4,0.6-5.6,3.7-5,7.1c0.4,2.6,2.5,4.6,5,5c0.4,0.1,0.7,0.4,0.6,0.8c0,0,0,0,0,0v0
	C56.9,83.6,56.6,83.9,56.2,83.9z"/>
<path class="st3" d="M56.2,87.3C56.2,87.3,56.2,87.3,56.2,87.3c-6.1-0.7-10.5-6.1-9.8-12.2C47,70,51,66,56.2,65.4
	c0.4,0,0.7,0.2,0.8,0.6c0,0,0,0,0,0l0,0c0,0.4-0.2,0.7-0.6,0.8c0,0,0,0,0,0h0c-5.3,0.6-9.1,5.3-8.5,10.6c0.5,4.5,4,8,8.5,8.5
	c0.4,0,0.7,0.4,0.6,0.8C56.9,87.1,56.6,87.3,56.2,87.3L56.2,87.3z"/>
<path d="M54.7,76.4c0-1.5,1.2-2.7,2.7-2.7c1.5,0,2.7,1.2,2.7,2.7c0,1.5-1.2,2.7-2.7,2.7C55.9,79.1,54.7,77.9,54.7,76.4L54.7,76.4z"
	/>
</svg>
