<svg xmlns="http://www.w3.org/2000/svg" width="555" height="200" viewBox="0 0 555 200"><defs><style>.a{fill:#fff;}.b{fill:#e00;}</style></defs><rect class="a" x="225" y="47.5" width="105" height="105" rx="26.25"/><path d="M303.75,51.1458A22.63,22.63,0,0,1,326.3542,73.75v52.5A22.63,22.63,0,0,1,303.75,148.8542h-52.5A22.63,22.63,0,0,1,228.6458,126.25V73.75A22.63,22.63,0,0,1,251.25,51.1458h52.5m0-3.6458h-52.5A26.25,26.25,0,0,0,225,73.75v52.5a26.25,26.25,0,0,0,26.25,26.25h52.5A26.25,26.25,0,0,0,330,126.25V73.75A26.25,26.25,0,0,0,303.75,47.5Z"/><path class="b" d="M301.4948,86.2549a7.08,7.08,0,1,1,7.0781-7.0794A7.0877,7.0877,0,0,1,301.4948,86.2549Zm0-10.5145a3.4344,3.4344,0,1,0,3.4323,3.4351A3.4389,3.4389,0,0,0,301.4948,75.74Z"/><path class="b" d="M291.5258,131.1571a13.3885,13.3885,0,1,1,13.387-13.3885A13.4044,13.4044,0,0,1,291.5258,131.1571Zm0-23.1311a9.7426,9.7426,0,1,0,9.7412,9.7426A9.7552,9.7552,0,0,0,291.5258,108.026Z"/><path d="M271.4822,120.6212a1.823,1.823,0,0,1-.0769-3.6444c.6722-.0285,1.3359-.0912,1.991-.1837a1.8225,1.8225,0,1,1,.5127,3.6088c-.7747.11-1.558.1837-2.35.2179C271.5335,120.6212,271.5079,120.6212,271.4822,120.6212Z"/><path d="M262.4474,119.13a1.8305,1.8305,0,0,1-.6665-.1253,23.9463,23.9463,0,0,1-4.4149-2.2886,1.8229,1.8229,0,0,1,2.0052-3.0449,20.178,20.178,0,0,0,3.7427,1.9383,1.8233,1.8233,0,0,1-.6665,3.52Zm-10.5131-8.6047a1.8245,1.8245,0,0,1-1.5352-.8346,24.15,24.15,0,0,1-2.2473-4.4348,1.8234,1.8234,0,1,1,3.4065-1.3017,20.2732,20.2732,0,0,0,1.9055,3.76,1.8227,1.8227,0,0,1-1.5295,2.8113Zm-3.4835-13.1279c-.0342,0-.0655-.0014-.1-.0028a1.8215,1.8215,0,0,1-1.7232-1.9169,23.8194,23.8194,0,0,1,.7747-4.9119,1.8223,1.8223,0,1,1,3.5206.9427,20.2992,20.2992,0,0,0-.6552,4.1628A1.8207,1.8207,0,0,1,248.4508,97.3975Zm42.5651-7.0139A1.8224,1.8224,0,0,1,289.324,89.24a20.24,20.24,0,0,0-1.9653-3.7327,1.8241,1.8241,0,0,1,3.0363-2.0223,24.2773,24.2773,0,0,1,2.3128,4.3963,1.8225,1.8225,0,0,1-1.014,2.3712A1.7966,1.7966,0,0,1,291.0159,90.3836Zm-37.7173-5.671a1.8213,1.8213,0,0,1-1.4184-2.9665,23.9181,23.9181,0,0,1,3.5034-3.5277,1.8239,1.8239,0,0,1,2.3071,2.8256,20.2737,20.2737,0,0,0-2.9736,2.9893A1.813,1.813,0,0,1,253.2986,84.7126Zm29.0385-4.7866a1.8122,1.8122,0,0,1-.9741-.2848,20.2737,20.2737,0,0,0-3.774-1.88,1.8228,1.8228,0,1,1,1.276-3.4151,23.7815,23.7815,0,0,1,4.452,2.2188,1.8224,1.8224,0,0,1-.98,3.361Zm-17.6766-2.6617a1.8234,1.8234,0,0,1-.4813-3.5818,23.8227,23.8227,0,0,1,4.9076-.8032,1.8475,1.8475,0,0,1,1.9255,1.7161,1.8234,1.8234,0,0,1-1.7147,1.924,20.096,20.096,0,0,0-4.1557.6808A1.8065,1.8065,0,0,1,264.6605,77.2643Z"/><path d="M292.3575,101.7184a1.9372,1.9372,0,0,1-.2564-.0171,1.8228,1.8228,0,0,1-1.5523-2.0579q.1368-.9847.1851-1.9952a1.8218,1.8218,0,1,1,3.64.1566c-.0314.79-.1054,1.5723-.2136,2.3428A1.8243,1.8243,0,0,1,292.3575,101.7184Z"/></svg>