<svg id="ea30b751-2e83-438e-9b79-89ec062d3527" data-name="Layer 1" xmlns="http://www.w3.org/2000/svg" width="360.5" height="300" viewBox="0 0 360.5 300"><defs><style>.e681e7e8-2eed-410b-84db-f94dd0620df5{fill:none;stroke:#e00;stroke-linecap:round;stroke-linejoin:round;stroke-width:3px;}.a544df20-e477-4206-9735-62bc51d2020b{fill:#e00;}.aaa8f5a8-2505-4a8a-acb5-dd005c4e1631{fill:#fff;}</style></defs><title>BrandStandards-Logo-Summit_Logos-ASSETS</title><circle class="e681e7e8-2eed-410b-84db-f94dd0620df5" cx="180.25" cy="262.82" r="3.56"/><line class="e681e7e8-2eed-410b-84db-f94dd0620df5" x1="54.47" y1="64.03" x2="306.03" y2="64.03"/><line class="e681e7e8-2eed-410b-84db-f94dd0620df5" x1="54.47" y1="221.26" x2="306.03" y2="221.26"/><rect class="e681e7e8-2eed-410b-84db-f94dd0620df5" x="69.26" y="64.03" width="226.29" height="157.23"/><line class="e681e7e8-2eed-410b-84db-f94dd0620df5" x1="180.25" y1="231.26" x2="180.25" y2="231.26"/><line class="e681e7e8-2eed-410b-84db-f94dd0620df5" x1="180.25" y1="241.26" x2="180.25" y2="241.26"/><line class="e681e7e8-2eed-410b-84db-f94dd0620df5" x1="180.25" y1="251.26" x2="180.25" y2="251.26"/><polygon class="a544df20-e477-4206-9735-62bc51d2020b" points="146.21 84.03 89.26 84.03 89.26 109.41 113.52 109.41 117.82 113.71 122.11 109.41 146.21 109.41 146.21 84.03 146.21 84.03"/><path class="aaa8f5a8-2505-4a8a-acb5-dd005c4e1631" d="M96,101a4.23,4.23,0,0,0,2.81,1.16c1,0,1.51-.3,1.51-.81s-.32-.7-1.16-.85l-1.86-.32a2.27,2.27,0,0,1-2.13-2.31c0-1.64,1.3-2.63,3.46-2.63a5.89,5.89,0,0,1,3.54,1.21L101.06,98a4.1,4.1,0,0,0-2.59-1c-.84,0-1.36.27-1.36.73s.29.63,1,.75l1.75.29c1.62.26,2.48,1.09,2.48,2.39,0,1.71-1.41,2.77-3.7,2.77a6,6,0,0,1-3.8-1.41L96,101Z"/><path class="aaa8f5a8-2505-4a8a-acb5-dd005c4e1631" d="M105.09,101.1a1.09,1.09,0,0,0,1.16,1.16,1.39,1.39,0,0,0,1.14-.51V97.44h2v6.37h-2v-.44a2.72,2.72,0,0,1-1.71.56,2.45,2.45,0,0,1-2.54-2.56V97.44h2v3.66Z"/><path class="aaa8f5a8-2505-4a8a-acb5-dd005c4e1631" d="M110.54,97.44h1.95v.41a2.54,2.54,0,0,1,1.59-.53,2.33,2.33,0,0,1,1.89.88,2.72,2.72,0,0,1,2.07-.88,2.41,2.41,0,0,1,2.47,2.56v3.93h-2v-3.66a1,1,0,0,0-1-1.16,1.27,1.27,0,0,0-1,.49c0,.13,0,.26,0,.4v3.93h-2v-3.66a1,1,0,0,0-1-1.16,1.26,1.26,0,0,0-1,.46v4.36h-1.95V97.44Z"/><path class="aaa8f5a8-2505-4a8a-acb5-dd005c4e1631" d="M121.66,97.44h2v.41a2.54,2.54,0,0,1,1.59-.53,2.33,2.33,0,0,1,1.89.88,2.72,2.72,0,0,1,2.07-.88,2.41,2.41,0,0,1,2.47,2.56v3.93h-1.95v-3.66a1,1,0,0,0-1-1.16,1.28,1.28,0,0,0-1.05.49c0,.13,0,.26,0,.4v3.93h-2v-3.66a1,1,0,0,0-1-1.16,1.27,1.27,0,0,0-1,.46v4.36h-2V97.44Z"/><path class="aaa8f5a8-2505-4a8a-acb5-dd005c4e1631" d="M134.74,103.81h-2V97.44h2v6.37Zm-2.05-8a1.07,1.07,0,1,1,1.07,1.07,1.07,1.07,0,0,1-1.07-1.07Z"/><path class="aaa8f5a8-2505-4a8a-acb5-dd005c4e1631" d="M136.84,99.07h-1.29V97.44h1.29V95.81l1.95-.43v2.06h1.78v1.63h-1.78v2.42c0,.56.22.77.84.77a2.7,2.7,0,0,0,.88-.14v1.58a5.72,5.72,0,0,1-1.36.19c-1.53,0-2.31-.68-2.31-2v-2.8Z"/><path class="aaa8f5a8-2505-4a8a-acb5-dd005c4e1631" d="M105.71,94.17h1.11V92.52h.85l.85,1.65h1.25l-1-1.81a1.37,1.37,0,0,0,.86-1.28,1.48,1.48,0,0,0-1.6-1.44h-2.32v4.53Zm2.21-3.58a.51.51,0,1,1,0,1h-1.1v-1Zm1.81,1.87a1.81,1.81,0,0,0,1.87,1.78,2.09,2.09,0,0,0,1.43-.52l-.7-.62a.91.91,0,0,1-.68.26.87.87,0,0,1-.84-.54h2.44v-.26a1.76,1.76,0,1,0-3.52-.1m1.77-.92a.77.77,0,0,1,.72.55h-1.43a.71.71,0,0,1,.71-.55m4.75,2.63h1V89.41l-1.05.23v1.29a1.77,1.77,0,1,0-.91,3.29,1.56,1.56,0,0,0,.92-.3v.25Zm-1.64-1.71a.87.87,0,0,1,.9-.87,1.05,1.05,0,0,1,.73.26v1.2a1,1,0,0,1-.73.27.87.87,0,0,1-.9-.86m4.25,1.71H120V92.4h1.87v1.77H123V89.64h-1.11v1.74H120V89.64h-1.11v4.53Zm5.7.06a1.66,1.66,0,0,0,.94-.26v.2h1V92c0-.84-.57-1.3-1.51-1.3a3.74,3.74,0,0,0-1.6.38l.38.77a2.76,2.76,0,0,1,1-.27c.43,0,.65.16.65.51v.17a2.83,2.83,0,0,0-.78-.1c-.88,0-1.41.37-1.41,1a1.11,1.11,0,0,0,1.25,1.06m-.33-1.08c0-.23.23-.34.57-.34a2.47,2.47,0,0,1,.63.08v.44a1.34,1.34,0,0,1-.66.16c-.33,0-.54-.13-.54-.34m3.27,0c0,.73.44,1.09,1.24,1.09a3.15,3.15,0,0,0,.73-.11v-.84a1.53,1.53,0,0,1-.47.07c-.33,0-.45-.11-.45-.42v-1.3h.95v-.87h-.95V89.64l-1.05.22v.89h-.7v.87h.7v1.51Z"/><path d="M236.41,192H240a2.43,2.43,0,0,1,2.49,2.4,2.28,2.28,0,0,1-1.34,2.06l1.57,2.79h-2l-1.35-2.54h-1.22v2.54h-1.78Zm1.78,1.52v1.72h1.63a.87.87,0,0,0,.9-.84.89.89,0,0,0-.9-.88Z"/><path d="M245.58,199.38a2.87,2.87,0,0,1-3-2.84,2.82,2.82,0,0,1,2.85-2.84,2.79,2.79,0,0,1,2.77,3v.45h-3.9a1.4,1.4,0,0,0,1.34.87,1.48,1.48,0,0,0,1.1-.41l1.11,1A3.3,3.3,0,0,1,245.58,199.38Zm-1.28-3.44h2.28a1.22,1.22,0,0,0-1.15-.86A1.14,1.14,0,0,0,244.3,195.94Z"/><path d="M253,198.87a2.47,2.47,0,0,1-1.47.49,2.82,2.82,0,1,1,1.45-5.27V192l1.68-.52v7.77H253Zm-1.2-.94a1.65,1.65,0,0,0,1.18-.43v-1.92a1.76,1.76,0,0,0-1.18-.43,1.39,1.39,0,1,0,0,2.78Z"/><path d="M261.51,196.44h-2.78v2.84H257V192h1.78v2.78h2.78V192h1.78v7.25h-1.78Z"/><path d="M267.19,199a2.42,2.42,0,0,1-1.47.42,1.85,1.85,0,0,1-2-1.75c0-1,.78-1.69,2.14-1.69a2.88,2.88,0,0,1,1.37.31v-.33c0-.53-.35-.8-1-.8a4.24,4.24,0,0,0-1.65.4l-.5-1.26a5.84,5.84,0,0,1,2.26-.56c1.68,0,2.6.74,2.6,2.08v3.51h-1.68Zm-1-.75a1.89,1.89,0,0,0,1-.28v-.57a2.12,2.12,0,0,0-1.07-.29c-.52,0-.84.22-.84.56S265.62,198.2,266.17,198.2Z"/><path d="M272.13,199.36c-1.15,0-1.79-.55-1.79-1.69V195.2h-1.16v-1.4h1.16v-1.26L272,192v1.77h1.53v1.4H272v2.09c0,.46.25.64.76.64a1.73,1.73,0,0,0,.73-.17l-.23,1.36A2.81,2.81,0,0,1,272.13,199.36Z"/><path class="a544df20-e477-4206-9735-62bc51d2020b" d="M226.61,196.68c1.24,0,3-.25,3-1.72a1.31,1.31,0,0,0,0-.34l-.73-3.19c-.17-.7-.32-1-1.55-1.64a14.45,14.45,0,0,0-3.67-1.3c-.57,0-.74.75-1.42.75s-1.15-.56-1.77-.56-1,.41-1.27,1.24c0,0-.83,2.34-.94,2.68a.62.62,0,0,0,0,.19C218.23,193.7,221.81,196.68,226.61,196.68Zm3.22-1.12a4.91,4.91,0,0,1,.17,1c0,1.38-1.56,2.15-3.6,2.15-4.62,0-8.66-2.71-8.66-4.49a1.75,1.75,0,0,1,.15-.73c-1.66.09-3.81.39-3.81,2.28,0,3.11,7.36,6.94,13.19,6.94,4.47,0,5.6-2,5.6-3.62C232.87,197.83,231.78,196.41,229.83,195.56Z"/><path d="M229.83,195.56a4.91,4.91,0,0,1,.17,1c0,1.38-1.56,2.15-3.6,2.15-4.62,0-8.66-2.71-8.66-4.49a1.75,1.75,0,0,1,.15-.73l.36-.89a.62.62,0,0,0,0,.19c0,.91,3.58,3.89,8.38,3.89,1.24,0,3-.25,3-1.72a1.31,1.31,0,0,0,0-.34Z"/></svg>