<svg id="f0586ca7-07a0-4d95-8b11-49114ad171db" data-name="Layer 1" xmlns="http://www.w3.org/2000/svg" width="262" height="180" viewBox="0 0 262 180"><defs><style>.e1ca85d1-e052-4b7f-8719-856a104562a5{fill:#e00;}.f0afc47b-66c8-48c1-b7e3-c8d58d3be8ce{fill:#fff;}</style></defs><title>BrandStandards-Logo-Summit_Logos-ASSETS</title><polygon class="e1ca85d1-e052-4b7f-8719-856a104562a5" points="206 33.78 56 33.78 56 100.64 119.9 100.64 131.21 111.95 142.52 100.64 206 100.64 206 33.78 206 33.78"/><path class="f0afc47b-66c8-48c1-b7e3-c8d58d3be8ce" d="M73.72,78.52c2.7,2.19,4.82,3.08,7.39,3.08s4-.8,4-2.16S84.25,77.6,82,77.22l-4.88-.85c-3.62-.64-5.61-2.83-5.61-6.09,0-4.31,3.42-6.91,9.09-6.91A15.48,15.48,0,0,1,90,66.54l-2.88,4a10.88,10.88,0,0,0-6.82-2.63c-2.22,0-3.58.73-3.58,1.94s.76,1.65,2.63,2l4.6.76c4.28.7,6.53,2.89,6.53,6.31,0,4.5-3.71,7.29-9.73,7.29a15.76,15.76,0,0,1-10-3.71l3-4Z"/><path class="f0afc47b-66c8-48c1-b7e3-c8d58d3be8ce" d="M97.69,78.74a2.86,2.86,0,0,0,3,3.05,3.69,3.69,0,0,0,3-1.34V69.11h5.14V85.88h-5.14V84.73a7.29,7.29,0,0,1-4.5,1.46,6.44,6.44,0,0,1-6.69-6.75V69.11h5.14v9.63Z"/><path class="f0afc47b-66c8-48c1-b7e3-c8d58d3be8ce" d="M112.05,69.11h5.13v1.07a6.73,6.73,0,0,1,4.19-1.39,6.15,6.15,0,0,1,5,2.31,7.19,7.19,0,0,1,5.46-2.31c3.8,0,6.5,2.79,6.5,6.75V85.88h-5.14V76.24a2.72,2.72,0,0,0-2.73-3,3.4,3.4,0,0,0-2.75,1.26c0,.35.06.7.06,1.08V85.88H122.6V76.24c0-1.84-1.07-3-2.72-3a3.32,3.32,0,0,0-2.7,1.2V85.88h-5.13V69.11Z"/><path class="f0afc47b-66c8-48c1-b7e3-c8d58d3be8ce" d="M141.34,69.11h5.13v1.07a6.73,6.73,0,0,1,4.19-1.39,6.19,6.19,0,0,1,5,2.31,7.16,7.16,0,0,1,5.45-2.31c3.8,0,6.5,2.79,6.5,6.75V85.88h-5.14V76.24a2.72,2.72,0,0,0-2.73-3A3.4,3.4,0,0,0,157,74.46c0,.35.06.7.06,1.08V85.88H151.9V76.24a2.72,2.72,0,0,0-2.73-3,3.32,3.32,0,0,0-2.7,1.2V85.88h-5.13V69.11Z"/><path class="f0afc47b-66c8-48c1-b7e3-c8d58d3be8ce" d="M175.77,85.88h-5.14V69.11h5.14V85.88Zm-5.39-21.15a2.82,2.82,0,1,1,2.82,2.82,2.82,2.82,0,0,1-2.82-2.82Z"/><path class="f0afc47b-66c8-48c1-b7e3-c8d58d3be8ce" d="M181.31,73.39h-3.39V69.11h3.39V64.8l5.14-1.11v5.42h4.69v4.28h-4.69v6.37c0,1.49.57,2,2.22,2a7.54,7.54,0,0,0,2.31-.35v4.15a15,15,0,0,1-3.58.51c-4,0-6.09-1.81-6.09-5.33V73.39Z"/><path class="f0afc47b-66c8-48c1-b7e3-c8d58d3be8ce" d="M99.31,60.5h2.93V56.14h2.24l2.25,4.36H110l-2.63-4.78a3.63,3.63,0,0,0,2.25-3.36,3.88,3.88,0,0,0-4.21-3.81H99.31v12Zm5.83-9.44a1.36,1.36,0,1,1,0,2.7h-2.9v-2.7ZM109.9,56a4.74,4.74,0,0,0,4.92,4.68,5.39,5.39,0,0,0,3.77-1.37l-1.83-1.62a2.44,2.44,0,0,1-1.81.68,2.31,2.31,0,0,1-2.21-1.43h6.43v-.68A4.64,4.64,0,1,0,109.9,56m4.66-2.42a2,2,0,0,1,1.9,1.43h-3.77a1.87,1.87,0,0,1,1.87-1.43m12.53,6.93h2.73V48l-2.77.6V52a4.49,4.49,0,0,0-2.3-.6,4.63,4.63,0,1,0-.09,9.26,4.1,4.1,0,0,0,2.43-.78v.67ZM122.77,56a2.28,2.28,0,0,1,2.37-2.28,2.75,2.75,0,0,1,1.91.7v3.15a2.63,2.63,0,0,1-1.91.72A2.3,2.3,0,0,1,122.77,56M134,60.5h2.94V55.82h4.91V60.5h2.94v-12H141.8v4.59h-4.91V48.55H134v12Zm15,.15a4.23,4.23,0,0,0,2.49-.7v.55h2.73V54.71c0-2.2-1.48-3.41-3.95-3.41a10,10,0,0,0-4.22,1l1,2a7.3,7.3,0,0,1,2.73-.72c1.14,0,1.72.45,1.72,1.35v.44a8,8,0,0,0-2-.25c-2.32,0-3.72,1-3.72,2.71,0,1.59,1.26,2.8,3.27,2.8m-.84-2.85c0-.6.6-.89,1.5-.89a6.93,6.93,0,0,1,1.64.21v1.16a3.48,3.48,0,0,1-1.72.42c-.89,0-1.42-.34-1.42-.9m8.59,0c0,1.93,1.16,2.86,3.28,2.86a8.08,8.08,0,0,0,1.92-.27V58.11a4.18,4.18,0,0,1-1.24.18c-.87,0-1.2-.27-1.2-1.09V53.77H162v-2.3h-2.53V48.55l-2.76.6v2.32h-1.83v2.3h1.83v4Z"/><path d="M114.69,122.69h8a5.36,5.36,0,0,1,5.5,5.3,5,5,0,0,1-3,4.54l3.46,6.13h-4.38l-3-5.59h-2.67v5.59h-3.93Zm3.93,3.36v3.79h3.58a1.91,1.91,0,0,0,2-1.85,2,2,0,0,0-2-1.94Z"/><path d="M134.88,138.89a6.34,6.34,0,0,1-6.57-6.25,6.2,6.2,0,0,1,6.3-6.25c3.51,0,6.09,2.76,6.09,6.5v1h-8.6a3.12,3.12,0,0,0,3,1.91,3.27,3.27,0,0,0,2.41-.91l2.44,2.17A7.25,7.25,0,0,1,134.88,138.89Zm-2.8-7.57h5a2.71,2.71,0,0,0-2.54-1.9A2.5,2.5,0,0,0,132.08,131.32Z"/><path d="M151.15,137.77a5.44,5.44,0,0,1-3.24,1.08,6.22,6.22,0,0,1,.11-12.44,6.24,6.24,0,0,1,3.08.82v-4.54l3.7-1.14v17.11h-3.65Zm-2.65-2.07a3.65,3.65,0,0,0,2.6-1v-4.22a3.9,3.9,0,0,0-2.6-.94,3.06,3.06,0,1,0,0,6.12Z"/><path d="M170,132.41h-6.11v6.25h-3.93v-16h3.93v6.14H170v-6.14h3.92v16H170Z"/><path d="M182.5,137.93a5.33,5.33,0,0,1-3.24.94c-2.7,0-4.5-1.69-4.5-3.86s1.71-3.71,4.7-3.71a6.46,6.46,0,0,1,3,.68v-.73c0-1.16-.78-1.76-2.29-1.76a9.36,9.36,0,0,0-3.62.87l-1.1-2.76a12.68,12.68,0,0,1,5-1.23c3.69,0,5.72,1.62,5.72,4.56v7.73H182.5Zm-2.26-1.64a4.28,4.28,0,0,0,2.26-.61v-1.26a4.85,4.85,0,0,0-2.38-.64c-1.14,0-1.84.48-1.84,1.23S179,136.29,180.24,136.29Z"/><path d="M193.38,138.85c-2.53,0-3.95-1.21-3.95-3.72v-5.45h-2.55V126.6h2.55v-2.76l3.7-1.15v3.91h3.37v3.08h-3.37v4.6c0,1,.54,1.42,1.66,1.42a4,4,0,0,0,1.62-.37l-.5,3A6.42,6.42,0,0,1,193.38,138.85Z"/><path class="e1ca85d1-e052-4b7f-8719-856a104562a5" d="M93.11,133c2.71,0,6.65-.56,6.65-3.79a3.18,3.18,0,0,0-.07-.75l-1.62-7c-.37-1.55-.7-2.25-3.42-3.61-2.11-1.08-6.7-2.86-8.06-2.86s-1.64,1.64-3.14,1.64-2.53-1.22-3.89-1.22-2.16.89-2.81,2.72c0,0-1.83,5.15-2.07,5.9a1.64,1.64,0,0,0,0,.43C74.64,126.38,82.53,133,93.11,133Zm7.07-2.48a10.76,10.76,0,0,1,.38,2.2c0,3.05-3.42,4.74-7.92,4.74-10.18,0-19.08-6-19.08-9.89a4,4,0,0,1,.33-1.6c-3.66.19-8.39.85-8.39,5,0,6.84,16.21,15.28,29.06,15.28,9.84,0,12.33-4.45,12.33-8C106.89,135.49,104.5,132.35,100.18,130.47Z"/><path d="M100.18,130.47a10.76,10.76,0,0,1,.38,2.2c0,3.05-3.42,4.74-7.92,4.74-10.18,0-19.08-6-19.08-9.89a4,4,0,0,1,.33-1.6l.79-2a1.64,1.64,0,0,0,0,.43c0,2,7.89,8.57,18.47,8.57,2.71,0,6.65-.56,6.65-3.79a3.18,3.18,0,0,0-.07-.75Z"/></svg>