<?xml version="1.0" encoding="utf-8"?>
<!-- Generator: Adobe Illustrator 25.2.1, SVG Export Plug-In . SVG Version: 6.00 Build 0)  -->
<svg version="1.1" id="Layer_1" xmlns="http://www.w3.org/2000/svg" xmlns:xlink="http://www.w3.org/1999/xlink" x="0px" y="0px"
	 viewBox="0 0 555 373" style="enable-background:new 0 0 555 373;" xml:space="preserve">
<style type="text/css">
	.st0{opacity:0.15;fill:#0066CC;}
	.st1{fill:#FF0000;}
	.st2{fill:#FFFFFF;}
	.st3{opacity:0.3;fill:#0066CC;}
	.st4{fill:#EB0000;}
	.st5{fill:none;stroke:#0066CC;stroke-width:2;stroke-linecap:round;stroke-linejoin:round;}
	.st6{fill:none;stroke:#0066CC;stroke-width:2;stroke-linecap:round;stroke-linejoin:round;stroke-dasharray:10.089,14.1245;}
	.st7{fill:#F2F2F2;}
	.st8{clip-path:url(#Rectangle_69_2_);}
	.st9{fill:#EE0000;}
	.st10{opacity:0.3;fill:#0066CC;enable-background:new    ;}
	.st11{opacity:0.15;fill:#0066CC;enable-background:new    ;}
	.st12{clip-path:url(#SVGID_4_);fill:url(#);}
</style>
<g>
	<g>
		<g>
			<polygon class="st9" points="424.33,109.97 130.64,109.97 130.64,240.88 255.75,240.88 277.89,263.03 300.04,240.88 
				424.33,240.88 			"/>
		</g>
		<g>
			<path class="st2" d="M165.34,197.57c5.28,4.28,9.43,6.02,14.46,6.02c4.9,0,7.82-1.55,7.82-4.22c0-2.42-1.68-3.6-6.02-4.34
				l-9.56-1.68c-7.08-1.24-10.99-5.52-10.99-11.92c0-8.44,6.7-13.53,17.81-13.53c6.45,0,13.47,2.36,18.25,6.21l-5.65,7.88
				c-4.59-3.54-8.75-5.15-13.34-5.15c-4.34,0-7.01,1.43-7.01,3.79c0,2.17,1.49,3.23,5.15,3.85l9,1.49
				c8.38,1.37,12.79,5.65,12.79,12.35c0,8.81-7.26,14.27-19.05,14.27c-7.01,0-14.21-2.67-19.61-7.26L165.34,197.57z"/>
			<path class="st2" d="M212.26,198.01c0,3.6,2.36,5.96,5.96,5.96c2.54,0,4.53-0.93,5.9-2.61v-22.22h10.05v32.83h-10.05v-2.23
				c-2.42,1.86-5.46,2.86-8.81,2.86c-7.7,0-13.1-5.46-13.1-13.22v-20.23h10.05V198.01z"/>
			<path class="st2" d="M240.38,179.14h10.05v2.11c2.3-1.8,5.09-2.73,8.19-2.73c4.1,0,7.51,1.68,9.74,4.53
				c2.67-2.92,6.33-4.53,10.68-4.53c7.45,0,12.72,5.46,12.72,13.22v20.23h-10.05V193.1c0-3.6-2.11-5.96-5.34-5.96
				c-2.23,0-4.1,0.87-5.4,2.48c0.06,0.68,0.12,1.37,0.12,2.11v20.23h-10.06V193.1c0-3.6-2.11-5.96-5.34-5.96
				c-2.23,0-4.03,0.81-5.28,2.36v22.47h-10.05V179.14z"/>
			<path class="st2" d="M297.73,179.14h10.05v2.11c2.3-1.8,5.09-2.73,8.19-2.73c4.1,0,7.51,1.68,9.74,4.53
				c2.67-2.92,6.33-4.53,10.68-4.53c7.45,0,12.72,5.46,12.72,13.22v20.23h-10.05V193.1c0-3.6-2.11-5.96-5.34-5.96
				c-2.23,0-4.1,0.87-5.4,2.48c0.06,0.68,0.12,1.37,0.12,2.11v20.23H318.4V193.1c0-3.6-2.11-5.96-5.34-5.96
				c-2.23,0-4.03,0.81-5.28,2.36v22.47h-10.05V179.14z"/>
			<path class="st2" d="M354.58,170.57c0-3.04,2.48-5.52,5.52-5.52c3.04,0,5.52,2.48,5.52,5.52s-2.48,5.52-5.52,5.52
				C357.07,176.1,354.58,173.62,354.58,170.57z M365.13,211.97h-10.05v-32.83h10.05V211.97z"/>
			<path class="st2" d="M376,187.52h-6.64v-8.38H376v-8.44l10.05-2.17v10.61h9.19v8.38h-9.19v12.48c0,2.92,1.12,3.97,4.34,3.97
				c1.61,0,2.86-0.19,4.53-0.68v8.13c-1.86,0.56-5.09,0.99-7.01,0.99c-7.88,0-11.92-3.54-11.92-10.43V187.52z"/>
		</g>
		<path class="st2" d="M327.8,156.9c0,3.78,2.27,5.61,6.41,5.61c1,0,2.74-0.23,3.78-0.53v-4.38c-0.9,0.27-1.57,0.37-2.44,0.37
			c-1.7,0-2.34-0.53-2.34-2.14v-6.72h4.94v-4.51h-4.94v-5.71l-5.41,1.17v4.54h-3.57v4.51h3.57V156.9z M310.98,157
			c0-1.17,1.17-1.74,2.94-1.74c1.17,0,2.24,0.17,3.21,0.4v2.27c-1,0.57-2.17,0.84-3.37,0.84C312.02,158.77,310.98,158.1,310.98,157
			 M312.64,162.58c1.9,0,3.44-0.4,4.88-1.37v1.07h5.35v-11.33c0-4.31-2.91-6.68-7.75-6.68c-2.71,0-5.38,0.63-8.25,1.94l1.94,3.98
			c2.07-0.87,3.81-1.4,5.35-1.4c2.24,0,3.37,0.87,3.37,2.64v0.87c-1.27-0.33-2.61-0.5-4.01-0.5c-4.54,0-7.28,1.9-7.28,5.31
			C306.22,160.21,308.69,162.58,312.64,162.58 M283.27,162.28h5.75v-9.15h9.62v9.15h5.75v-23.39h-5.75v8.99h-9.62v-8.99h-5.75
			V162.28z M261.37,153.43c0-2.54,2-4.48,4.64-4.48c1.47,0,2.81,0.5,3.74,1.37v6.18c-0.97,0.94-2.24,1.4-3.74,1.4
			C263.41,157.9,261.37,155.97,261.37,153.43 M269.82,162.28h5.35v-24.56l-5.41,1.17v6.65c-1.34-0.77-2.87-1.17-4.51-1.17
			c-5.15,0-9.19,3.98-9.19,9.05c0,5.08,3.98,9.09,9.02,9.09c1.74,0,3.37-0.53,4.74-1.54V162.28z M245.3,148.72
			c1.7,0,3.14,1.1,3.71,2.81h-7.38C242.16,149.75,243.5,148.72,245.3,148.72 M236.18,153.46c0,5.15,4.21,9.15,9.62,9.15
			c2.97,0,5.15-0.8,7.38-2.67l-3.57-3.17c-0.84,0.87-2.07,1.34-3.54,1.34c-2,0-3.64-1.1-4.34-2.81h12.6v-1.34
			c0-5.61-3.78-9.66-8.92-9.66C240.22,144.31,236.18,148.31,236.18,153.46 M226.86,143.8c1.9,0,2.97,1.2,2.97,2.64
			s-1.07,2.64-2.97,2.64h-5.68v-5.28H226.86z M215.43,162.28h5.75v-8.52h4.38l4.41,8.52h6.41l-5.15-9.35
			c2.77-1.2,4.41-3.71,4.41-6.58c0-4.21-3.31-7.45-8.25-7.45h-11.96V162.28z"/>
	</g>
	<path class="st10" d="M130.67,153.96c0-5.61-3.78-9.66-8.92-9.66c-5.18,0-9.22,4.01-9.22,9.15c0,5.15,4.21,9.15,9.62,9.15
		c2.97,0,5.15-0.8,7.38-2.67l-3.57-3.17c-0.84,0.87-2.07,1.34-3.54,1.34c-2,0-3.64-1.1-4.34-2.81h12.6V153.96z M117.97,151.52
		c0.53-1.77,1.87-2.81,3.68-2.81c1.7,0,3.14,1.1,3.71,2.81H117.97z"/>
	<path class="st10" d="M254.32,101.32c0-5.61-3.78-9.66-8.92-9.66c-5.18,0-9.22,4.01-9.22,9.15c0,5.15,4.21,9.15,9.62,9.15
		c2.97,0,5.15-0.8,7.38-2.67l-3.57-3.17c-0.84,0.87-2.07,1.34-3.54,1.34c-2,0-3.64-1.1-4.34-2.81h12.6V101.32z M241.63,98.88
		c0.53-1.77,1.87-2.81,3.68-2.81c1.7,0,3.14,1.1,3.71,2.81H241.63z"/>
	<path class="st10" d="M254.32,83.01c0-5.61-3.78-9.66-8.92-9.66c-5.18,0-9.22,4.01-9.22,9.15c0,5.15,4.21,9.15,9.62,9.15
		c2.97,0,5.15-0.8,7.38-2.67l-3.57-3.17c-0.84,0.87-2.07,1.34-3.54,1.34c-2,0-3.64-1.1-4.34-2.81h12.6V83.01z M241.63,80.57
		c0.53-1.77,1.87-2.81,3.68-2.81c1.7,0,3.14,1.1,3.71,2.81H241.63z"/>
	<path class="st10" d="M254.32,290.99c0-5.61-3.78-9.66-8.92-9.66c-5.18,0-9.22,4.01-9.22,9.15c0,5.15,4.21,9.15,9.62,9.15
		c2.97,0,5.15-0.8,7.38-2.67l-3.57-3.17c-0.84,0.87-2.07,1.34-3.54,1.34c-2,0-3.64-1.1-4.34-2.81h12.6V290.99z M241.63,288.55
		c0.53-1.77,1.87-2.81,3.68-2.81c1.7,0,3.14,1.1,3.71,2.81H241.63z"/>
	<path class="st10" d="M254.32,272.68c0-5.61-3.78-9.66-8.92-9.66c-5.18,0-9.22,4.01-9.22,9.15c0,5.15,4.21,9.15,9.62,9.15
		c2.97,0,5.15-0.8,7.38-2.67l-3.57-3.17c-0.84,0.87-2.07,1.34-3.54,1.34c-2,0-3.64-1.1-4.34-2.81h12.6V272.68z M241.63,270.24
		c0.53-1.77,1.87-2.81,3.68-2.81c1.7,0,3.14,1.1,3.71,2.81H241.63z"/>
	<path class="st10" d="M112.56,153.96c0-5.61-3.78-9.66-8.92-9.66c-5.18,0-9.22,4.01-9.22,9.15c0,5.15,4.21,9.15,9.62,9.15
		c2.97,0,5.15-0.8,7.38-2.67l-3.57-3.17c-0.84,0.87-2.07,1.34-3.54,1.34c-2,0-3.64-1.1-4.34-2.81h12.6V153.96z M99.86,151.52
		c0.53-1.77,1.87-2.81,3.68-2.81c1.7,0,3.14,1.1,3.71,2.81H99.86z"/>
	<path class="st10" d="M460.59,153.96c0-5.61-3.78-9.66-8.92-9.66c-5.18,0-9.22,4.01-9.22,9.15c0,5.15,4.21,9.15,9.62,9.15
		c2.97,0,5.15-0.8,7.38-2.67l-3.57-3.17c-0.84,0.87-2.07,1.34-3.54,1.34c-2,0-3.64-1.1-4.34-2.81h12.6V153.96z M447.89,151.52
		c0.53-1.77,1.87-2.81,3.68-2.81c1.7,0,3.14,1.1,3.71,2.81H447.89z"/>
	<path class="st10" d="M442.47,153.96c0-5.61-3.78-9.66-8.92-9.66c-5.18,0-9.22,4.01-9.22,9.15c0,5.15,4.21,9.15,9.62,9.15
		c2.97,0,5.15-0.8,7.38-2.67l-3.57-3.17c-0.84,0.87-2.07,1.34-3.54,1.34c-2,0-3.64-1.1-4.34-2.81h12.6V153.96z M429.78,151.52
		c0.53-1.77,1.87-2.81,3.68-2.81c1.7,0,3.14,1.1,3.71,2.81H429.78z"/>
	<path id="Path_511-2_2_" class="st11" d="M94.41,73.36v226.29h366.17V73.36H94.41z M424.33,263.03l-293.69-0.26V109.71l293.69,0.26
		V263.03z"/>
</g>
</svg>
