<svg id="e685446f-ba2a-40fa-95e0-35102b5d9e9e" data-name="Layer 1" xmlns="http://www.w3.org/2000/svg" width="360.5" height="300" viewBox="0 0 360.5 300"><defs><style>.a6967059-5899-4580-85a6-a9729f66ac6f{fill:#e00;}.ab1f35e4-beb7-451a-8dc2-215b5b16bde8,.eba67564-0d98-43be-81cc-43950ff7f586{fill:#fff;}.bd99f974-d141-4a6a-9bb2-e0c62ab1f9dc{fill:none;}.bd99f974-d141-4a6a-9bb2-e0c62ab1f9dc,.eba67564-0d98-43be-81cc-43950ff7f586{stroke:#e00;stroke-linecap:round;stroke-linejoin:round;stroke-width:3px;}</style></defs><title>BrandStandards-Logo-Summit_Logos-ASSETS</title><polygon class="a6967059-5899-4580-85a6-a9729f66ac6f" points="159.85 85.53 136.44 85.53 136.44 95.96 146.41 95.96 148.18 97.73 149.95 95.96 159.85 95.96 159.85 85.53 159.85 85.53"/><path class="ab1f35e4-beb7-451a-8dc2-215b5b16bde8" d="M139.21,92.51a1.74,1.74,0,0,0,1.15.48c.39,0,.62-.12.62-.34s-.13-.28-.48-.34l-.76-.14a.93.93,0,0,1-.87-1c0-.67.53-1.08,1.42-1.08a2.4,2.4,0,0,1,1.45.5l-.45.63a1.69,1.69,0,0,0-1.06-.41c-.35,0-.56.11-.56.3s.12.26.41.31l.72.11c.66.11,1,.45,1,1,0,.7-.58,1.14-1.52,1.14a2.51,2.51,0,0,1-1.57-.58l.48-.62Z"/><path class="ab1f35e4-beb7-451a-8dc2-215b5b16bde8" d="M143,92.54a.45.45,0,0,0,.47.48.54.54,0,0,0,.47-.21V91h.81v2.62h-.81v-.18a1.11,1.11,0,0,1-.7.23,1,1,0,0,1-1-1.06V91h.8v1.5Z"/><path class="ab1f35e4-beb7-451a-8dc2-215b5b16bde8" d="M145.19,91h.8v.17a1.07,1.07,0,0,1,.66-.22,1,1,0,0,1,.77.36,1.13,1.13,0,0,1,.85-.36,1,1,0,0,1,1,1.05v1.62h-.8V92.15a.43.43,0,0,0-.43-.47.52.52,0,0,0-.43.2c0,.05,0,.11,0,.16v1.62h-.8V92.15a.43.43,0,0,0-.43-.47.5.5,0,0,0-.42.19v1.79h-.8V91Z"/><path class="ab1f35e4-beb7-451a-8dc2-215b5b16bde8" d="M149.76,91h.8v.17a1.09,1.09,0,0,1,.66-.22.94.94,0,0,1,.77.36,1.15,1.15,0,0,1,.85-.36,1,1,0,0,1,1,1.05v1.62h-.8V92.15a.43.43,0,0,0-.43-.47.54.54,0,0,0-.43.2.86.86,0,0,1,0,.16v1.62h-.8V92.15a.43.43,0,0,0-.43-.47.51.51,0,0,0-.42.19v1.79h-.8V91Z"/><path class="ab1f35e4-beb7-451a-8dc2-215b5b16bde8" d="M155.14,93.66h-.81V91h.81v2.62Zm-.85-3.3a.45.45,0,1,1,.45.44.45.45,0,0,1-.45-.44Z"/><path class="ab1f35e4-beb7-451a-8dc2-215b5b16bde8" d="M156,91.71h-.53V91H156v-.67l.8-.18V91h.74v.67h-.74v1c0,.24.09.32.35.32a1.49,1.49,0,0,0,.36,0v.64a2.1,2.1,0,0,1-.56.08c-.63,0-.95-.28-.95-.83V91.71Z"/><path class="ab1f35e4-beb7-451a-8dc2-215b5b16bde8" d="M143.2,89.7h.46V89H144l.35.68h.51l-.41-.75a.57.57,0,0,0,.35-.52.6.6,0,0,0-.65-.6h-1V89.7Zm.91-1.48a.22.22,0,0,1,.24.21.21.21,0,0,1-.24.21h-.45v-.42Zm.75.77a.73.73,0,0,0,.76.73.84.84,0,0,0,.59-.21l-.28-.25a.39.39,0,0,1-.29.1.34.34,0,0,1-.34-.22h1V89a.72.72,0,1,0-1.44,0m.72-.38a.32.32,0,0,1,.3.23h-.59a.3.3,0,0,1,.29-.23m2,1.09H148v-2l-.43.09v.53a.72.72,0,1,0-.37,1.35.64.64,0,0,0,.38-.12v.11Zm-.68-.71a.36.36,0,0,1,.37-.36.42.42,0,0,1,.3.11v.5a.42.42,0,0,1-.3.11.37.37,0,0,1-.37-.36m1.75.71h.46V89h.76v.73h.46V87.83h-.46v.72h-.76v-.72h-.46V89.7Zm2.34,0a.64.64,0,0,0,.39-.11v.09h.43v-.91c0-.34-.24-.53-.62-.53a1.49,1.49,0,0,0-.66.16l.15.31a1.18,1.18,0,0,1,.43-.11q.27,0,.27.21v.07a1.12,1.12,0,0,0-.32,0c-.36,0-.58.15-.58.42a.46.46,0,0,0,.51.44m-.13-.44c0-.1.09-.14.23-.14a1,1,0,0,1,.26,0v.18a.5.5,0,0,1-.27.07c-.14,0-.22-.06-.22-.14m1.34,0c0,.3.18.44.51.44a1,1,0,0,0,.3,0v-.35a.63.63,0,0,1-.19,0c-.14,0-.19,0-.19-.17v-.53h.4v-.36h-.4v-.46l-.43.1v.36h-.29v.36h.29v.62Z"/><polyline class="bd99f974-d141-4a6a-9bb2-e0c62ab1f9dc" points="172.51 106.13 172.51 196.56 82.08 196.56 82.08 106.13"/><path class="bd99f974-d141-4a6a-9bb2-e0c62ab1f9dc" d="M153.09,48a26.78,26.78,0,0,1-51.59,0"/><polyline class="bd99f974-d141-4a6a-9bb2-e0c62ab1f9dc" points="69.16 125.51 49.78 112.59 62.7 67.37 101.46 48 153.13 48 191.89 67.37 204.81 112.59 185.43 125.51"/><polygon class="ab1f35e4-beb7-451a-8dc2-215b5b16bde8" points="278.42 193.15 187.99 193.15 187.99 113.14 207.37 103.45 259.04 103.45 278.42 113.14 278.42 193.15"/><polyline class="bd99f974-d141-4a6a-9bb2-e0c62ab1f9dc" points="278.42 161.59 278.42 252.02 187.99 252.02 187.99 161.59"/><path class="bd99f974-d141-4a6a-9bb2-e0c62ab1f9dc" d="M207.37,103.45H259"/><polyline class="bd99f974-d141-4a6a-9bb2-e0c62ab1f9dc" points="207.37 103.45 168.61 122.83 155.69 168.05 175.07 180.97"/><polyline class="bd99f974-d141-4a6a-9bb2-e0c62ab1f9dc" points="259.04 103.45 297.8 122.83 310.71 168.05 291.34 180.97"/><path d="M229,118.85H231a1.39,1.39,0,0,1,1.43,1.38,1.3,1.3,0,0,1-.77,1.18l.9,1.6h-1.14l-.78-1.46H230V123h-1Zm1,.87v1h.93a.5.5,0,0,0,.52-.48.51.51,0,0,0-.52-.51Z"/><path d="M234.22,123.07a1.65,1.65,0,0,1-1.72-1.63,1.62,1.62,0,0,1,1.65-1.63,1.6,1.6,0,0,1,1.58,1.7v.26h-2.24a.83.83,0,0,0,.77.5.84.84,0,0,0,.63-.24l.64.57A1.89,1.89,0,0,1,234.22,123.07Zm-.73-2h1.3a.69.69,0,0,0-.66-.5A.65.65,0,0,0,233.49,121.1Z"/><path d="M238.46,122.78a1.44,1.44,0,0,1-.85.28,1.62,1.62,0,0,1,0-3.24,1.71,1.71,0,0,1,.81.21v-1.18l1-.3V123h-.95Zm-.69-.54a1,1,0,0,0,.68-.25v-1.1a1,1,0,0,0-.68-.25.8.8,0,1,0,0,1.6Z"/><path d="M243.36,121.38h-1.59V123h-1v-4.16h1v1.6h1.59v-1.6h1V123h-1Z"/><path d="M246.63,122.82a1.42,1.42,0,0,1-.85.25,1.06,1.06,0,0,1-1.17-1c0-.55.45-1,1.23-1a1.7,1.7,0,0,1,.79.18v-.19c0-.3-.2-.46-.6-.46a2.33,2.33,0,0,0-.94.23l-.29-.72a3.29,3.29,0,0,1,1.3-.32c1,0,1.49.42,1.49,1.19v2h-1Zm-.59-.43a1.09,1.09,0,0,0,.59-.16v-.32a1.26,1.26,0,0,0-.62-.17c-.3,0-.48.12-.48.32S245.72,122.39,246,122.39Z"/><path d="M249.46,123.06c-.66,0-1-.32-1-1v-1.42h-.67v-.8h.67v-.72l1-.3v1h.88v.8h-.88v1.2c0,.27.14.37.43.37a1.08,1.08,0,0,0,.43-.1l-.14.78A1.53,1.53,0,0,1,249.46,123.06Z"/><path class="a6967059-5899-4580-85a6-a9729f66ac6f" d="M223.33,121.52c.71,0,1.73-.14,1.73-1a.62.62,0,0,0,0-.19l-.42-1.83c-.1-.41-.18-.59-.89-1a8.32,8.32,0,0,0-2.1-.74c-.33,0-.43.43-.82.43s-.66-.32-1-.32-.57.23-.74.71l-.54,1.54a.41.41,0,0,0,0,.11C218.51,119.81,220.57,121.52,223.33,121.52Zm1.84-.64a2.73,2.73,0,0,1,.1.57c0,.79-.89,1.23-2.07,1.23-2.65,0-5-1.55-5-2.57a1,1,0,0,1,.09-.42c-1,0-2.19.22-2.19,1.31,0,1.78,4.23,4,7.58,4,2.56,0,3.21-1.16,3.21-2.08A2.5,2.5,0,0,0,225.17,120.88Z"/><path d="M225.17,120.88a2.73,2.73,0,0,1,.1.57c0,.79-.89,1.23-2.07,1.23-2.65,0-5-1.55-5-2.57a1,1,0,0,1,.09-.42l.2-.51a.41.41,0,0,0,0,.11c0,.52,2.06,2.23,4.82,2.23.71,0,1.73-.14,1.73-1a.62.62,0,0,0,0-.19Z"/><polyline class="eba67564-0d98-43be-81cc-43950ff7f586" points="278.42 161.59 278.42 252.02 187.99 252.02 187.99 161.59"/><path class="eba67564-0d98-43be-81cc-43950ff7f586" d="M207.37,103.45H259"/><polyline class="eba67564-0d98-43be-81cc-43950ff7f586" points="207.37 103.45 168.61 122.83 155.69 168.05 175.07 180.97"/><polyline class="eba67564-0d98-43be-81cc-43950ff7f586" points="259.04 103.45 297.8 122.83 310.71 168.05 291.34 180.97"/></svg>