<svg id="eb4126de-1389-468e-95e7-3351ad9e38d4" data-name="Layer 1" xmlns="http://www.w3.org/2000/svg" width="360.5" height="300" viewBox="0 0 360.5 300"><defs><style>.e458a80d-b48c-41ab-837d-d9008f7948bc{fill:#e00;}.efa7ec37-942e-4c3c-b10d-892fcf353a72{fill:#fff;}.ef4412b1-eaa9-4d34-8f73-eee5a1d64323{fill:#a7c0e4;}.a2d21d84-4a07-4e5b-acc4-89e00fca38ca,.ef4412b1-eaa9-4d34-8f73-eee5a1d64323{opacity:0.5;}.a2d21d84-4a07-4e5b-acc4-89e00fca38ca{fill:#6c97d3;}.ac19e646-1f6d-4e84-a6cd-d4edc570e4b7,.b5755943-903c-4bbc-9152-6914aaee2c22{fill:none;stroke:#6c97d3;stroke-linecap:round;stroke-linejoin:round;stroke-width:0.5px;}.b5755943-903c-4bbc-9152-6914aaee2c22{stroke-dasharray:2.01 2.01;}</style></defs><title>BrandStandards-Logo-Summit_Logos-ASSETS</title><polygon class="e458a80d-b48c-41ab-837d-d9008f7948bc" points="298.94 61.08 61.56 61.08 61.56 166.89 162.68 166.89 180.58 184.79 198.48 166.89 298.94 166.89 298.94 61.08 298.94 61.08"/><path class="efa7ec37-942e-4c3c-b10d-892fcf353a72" d="M89.61,131.88c4.26,3.46,7.62,4.87,11.69,4.87s6.32-1.25,6.32-3.41c0-2-1.36-2.91-4.87-3.51L95,128.47c-5.71-1-8.87-4.46-8.87-9.63,0-6.82,5.41-10.94,14.39-10.94a24.55,24.55,0,0,1,14.75,5l-4.56,6.37c-3.72-2.86-7.08-4.16-10.79-4.16-3.51,0-5.67,1.15-5.67,3.06,0,1.75,1.21,2.61,4.17,3.11l7.27,1.2c6.77,1.11,10.33,4.57,10.33,10,0,7.12-5.87,11.53-15.4,11.53a24.91,24.91,0,0,1-15.85-5.87l4.82-6.27Z"/><path class="efa7ec37-942e-4c3c-b10d-892fcf353a72" d="M127.53,132.23a4.54,4.54,0,0,0,4.82,4.82,5.83,5.83,0,0,0,4.76-2.11V117h8.13v26.54h-8.13v-1.8A11.54,11.54,0,0,1,130,144c-6.22,0-10.58-4.41-10.58-10.68V117h8.12v15.25Z"/><path class="efa7ec37-942e-4c3c-b10d-892fcf353a72" d="M150.26,117h8.13v1.71a10.54,10.54,0,0,1,6.62-2.21,9.72,9.72,0,0,1,7.87,3.66,11.38,11.38,0,0,1,8.63-3.66c6,0,10.29,4.42,10.29,10.69v16.35h-8.13V128.27c0-2.91-1.71-4.81-4.32-4.81a5.41,5.41,0,0,0-4.36,2c0,.55.1,1.11.1,1.71v16.35H167V128.27c0-2.91-1.7-4.81-4.31-4.81a5.2,5.2,0,0,0-4.26,1.9v18.16h-8.13V117Z"/><path class="efa7ec37-942e-4c3c-b10d-892fcf353a72" d="M196.61,117h8.13v1.71a10.56,10.56,0,0,1,6.62-2.21,9.76,9.76,0,0,1,7.88,3.66,11.35,11.35,0,0,1,8.63-3.66c6,0,10.28,4.42,10.28,10.69v16.35H230V128.27c0-2.91-1.7-4.81-4.31-4.81a5.43,5.43,0,0,0-4.37,2c0,.55.1,1.11.1,1.71v16.35h-8.12V128.27c0-2.91-1.71-4.81-4.32-4.81a5.21,5.21,0,0,0-4.26,1.9v18.16h-8.13V117Z"/><path class="efa7ec37-942e-4c3c-b10d-892fcf353a72" d="M251.09,143.52H243V117h8.12v26.54Zm-8.52-33.46a4.47,4.47,0,1,1,4.46,4.47,4.46,4.46,0,0,1-4.46-4.47Z"/><path class="efa7ec37-942e-4c3c-b10d-892fcf353a72" d="M259.87,123.76H254.5V117h5.37v-6.82l8.13-1.75V117h7.42v6.78H268v10.08c0,2.36.9,3.21,3.51,3.21a11.79,11.79,0,0,0,3.66-.55v6.57a24.16,24.16,0,0,1-5.67.8c-6.37,0-9.63-2.86-9.63-8.42V123.76Z"/><path class="efa7ec37-942e-4c3c-b10d-892fcf353a72" d="M130.09,103.36h4.65V96.47h3.54l3.56,6.89H147l-4.16-7.56a5.73,5.73,0,0,0,3.56-5.32c0-3.41-2.67-6-6.67-6h-9.67v18.91Zm9.24-14.94a2.15,2.15,0,1,1,0,4.27h-4.59V88.42Zm7.53,7.81a7.51,7.51,0,0,0,7.78,7.4,8.58,8.58,0,0,0,6-2.16l-2.89-2.57a3.86,3.86,0,0,1-2.86,1.08,3.68,3.68,0,0,1-3.51-2.27h10.18V96.63c0-4.53-3.05-7.8-7.21-7.8a7.34,7.34,0,0,0-7.46,7.4m7.38-3.84a3.15,3.15,0,0,1,3,2.27h-6a3,3,0,0,1,3-2.27m19.82,11h4.32V83.51l-4.38.94v5.38a7.36,7.36,0,1,0-3.78,13.72,6.46,6.46,0,0,0,3.84-1.25v1.06Zm-6.83-7.16A3.62,3.62,0,0,1,171,92.58a4.41,4.41,0,0,1,3,1.11v5a4.22,4.22,0,0,1-3,1.13,3.63,3.63,0,0,1-3.75-3.62m17.69,7.16h4.65V96h7.78v7.4H202V84.45h-4.64v7.27h-7.78V84.45h-4.65v18.91Zm23.74.24a6.63,6.63,0,0,0,3.94-1.11v.87h4.32V94.2c0-3.48-2.35-5.4-6.26-5.4A15.78,15.78,0,0,0,204,90.37l1.57,3.21a11.64,11.64,0,0,1,4.32-1.13c1.8,0,2.72.7,2.72,2.13v.7a12.62,12.62,0,0,0-3.24-.4c-3.67,0-5.88,1.54-5.88,4.29,0,2.51,2,4.43,5.18,4.43m-1.33-4.51c0-.94.94-1.4,2.37-1.4a10.86,10.86,0,0,1,2.59.32v1.84a5.48,5.48,0,0,1-2.72.67c-1.41,0-2.24-.54-2.24-1.43M220.92,99c0,3,1.84,4.54,5.19,4.54a13.06,13.06,0,0,0,3-.44V99.58a6.53,6.53,0,0,1-2,.29c-1.38,0-1.89-.43-1.89-1.72V92.72h4V89.07h-4V84.45l-4.38,1v3.67H218v3.65h2.89V99Z"/><rect class="ef4412b1-eaa9-4d34-8f73-eee5a1d64323" x="61.56" y="184.79" width="237.38" height="18.12"/><path d="M156.61,214.2h11.54a7.76,7.76,0,0,1,8,7.67,7.27,7.27,0,0,1-4.3,6.58l5,8.9H170.5l-4.33-8.11H162.3v8.11h-5.69Zm5.69,4.86v5.49h5.19a2.78,2.78,0,0,0,2.88-2.68,2.84,2.84,0,0,0-2.88-2.81Z"/><path d="M185.88,237.68a9.18,9.18,0,0,1-9.52-9.06,9,9,0,0,1,9.12-9.06c5.09,0,8.83,4,8.83,9.42v1.46H181.84a4.53,4.53,0,0,0,4.3,2.77,4.74,4.74,0,0,0,3.51-1.32l3.54,3.14A10.53,10.53,0,0,1,185.88,237.68Zm-4.07-11h7.28a3.93,3.93,0,0,0-3.67-2.75A3.64,3.64,0,0,0,181.81,226.7Z"/><path d="M209.46,236.06a8,8,0,0,1-4.7,1.55,9,9,0,1,1,4.63-16.83V214.2l5.36-1.65v24.8h-5.29Zm-3.84-3a5.33,5.33,0,0,0,3.77-1.39v-6.12a5.64,5.64,0,0,0-3.77-1.35,4.43,4.43,0,1,0,0,8.86Z"/><path d="M236.74,228.29h-8.86v9.06h-5.69V214.2h5.69v8.89h8.86V214.2h5.69v23.15h-5.69Z"/><path d="M254.9,236.29a7.79,7.79,0,0,1-4.7,1.35c-3.9,0-6.51-2.44-6.51-5.58s2.48-5.39,6.81-5.39a9.42,9.42,0,0,1,4.4,1V226.6c0-1.69-1.13-2.55-3.31-2.55a13.56,13.56,0,0,0-5.26,1.26l-1.58-4a18.3,18.3,0,0,1,7.2-1.79c5.36,0,8.3,2.35,8.3,6.62v11.21H254.9Zm-3.28-2.38a6.15,6.15,0,0,0,3.28-.9V231.2a6.93,6.93,0,0,0-3.44-.93c-1.66,0-2.68.69-2.68,1.79S249.87,233.91,251.62,233.91Z"/><path d="M270.67,237.61c-3.67,0-5.72-1.75-5.72-5.39v-7.9h-3.7v-4.47H265v-4l5.36-1.65v5.65h4.89v4.47h-4.89V231c0,1.49.79,2.05,2.41,2.05a5.8,5.8,0,0,0,2.35-.53l-.73,4.33A9.35,9.35,0,0,1,270.67,237.61Z"/><path class="e458a80d-b48c-41ab-837d-d9008f7948bc" d="M125.32,229.07c3.94,0,9.65-.81,9.65-5.5a4.3,4.3,0,0,0-.1-1.08l-2.35-10.2c-.54-2.25-1-3.26-5-5.23-3.06-1.57-9.72-4.15-11.69-4.15s-2.37,2.38-4.55,2.38-3.67-1.77-5.64-1.77-3.12,1.29-4.08,3.94c0,0-2.65,7.48-3,8.56a2.28,2.28,0,0,0-.06.62C98.55,219.54,110,229.07,125.32,229.07Zm10.26-3.6a15.81,15.81,0,0,1,.54,3.19c0,4.42-5,6.87-11.48,6.87-14.75,0-27.66-8.63-27.66-14.34a5.85,5.85,0,0,1,.48-2.31c-5.3.27-12.16,1.22-12.16,7.27,0,9.92,23.51,22.15,42.13,22.15,14.26,0,17.87-6.46,17.87-11.55C145.3,232.74,141.83,228.19,135.58,225.47Z"/><path d="M135.58,225.47a15.81,15.81,0,0,1,.54,3.19c0,4.42-5,6.87-11.48,6.87-14.75,0-27.66-8.63-27.66-14.34a5.85,5.85,0,0,1,.48-2.31L98.61,216a2.28,2.28,0,0,0-.06.62c0,2.9,11.43,12.43,26.77,12.43,3.94,0,9.65-.81,9.65-5.5a4.3,4.3,0,0,0-.1-1.08Z"/><path class="a2d21d84-4a07-4e5b-acc4-89e00fca38ca" d="M185.88,202.91a9.18,9.18,0,0,1-9.52-9.06,9,9,0,0,1,9.12-9.06c5.09,0,8.83,4,8.83,9.42v1.46H181.84a4.54,4.54,0,0,0,4.3,2.78,4.75,4.75,0,0,0,3.51-1.33l3.54,3.14A10.48,10.48,0,0,1,185.88,202.91Zm-4.07-11h7.28a3.92,3.92,0,0,0-3.67-2.74A3.64,3.64,0,0,0,181.81,191.93Z"/><line class="ac19e646-1f6d-4e84-a6cd-d4edc570e4b7" x1="85.3" y1="51.7" x2="85.3" y2="52.7"/><line class="b5755943-903c-4bbc-9152-6914aaee2c22" x1="85.3" y1="54.71" x2="85.3" y2="246.3"/><line class="ac19e646-1f6d-4e84-a6cd-d4edc570e4b7" x1="85.3" y1="247.3" x2="85.3" y2="248.3"/><line class="ac19e646-1f6d-4e84-a6cd-d4edc570e4b7" x1="275.42" y1="51.7" x2="275.42" y2="52.7"/><line class="b5755943-903c-4bbc-9152-6914aaee2c22" x1="275.42" y1="54.71" x2="275.42" y2="246.3"/><line class="ac19e646-1f6d-4e84-a6cd-d4edc570e4b7" x1="275.42" y1="247.3" x2="275.42" y2="248.3"/></svg>