<?xml version="1.0" encoding="utf-8"?>
<!-- Generator: Adobe Illustrator 25.2.1, SVG Export Plug-In . SVG Version: 6.00 Build 0)  -->
<svg version="1.1" id="Layer_1" xmlns="http://www.w3.org/2000/svg" xmlns:xlink="http://www.w3.org/1999/xlink" x="0px" y="0px"
	 viewBox="0 0 555 373" style="enable-background:new 0 0 555 373;" xml:space="preserve">
<style type="text/css">
	.st0{opacity:0.15;fill:#0066CC;}
	.st1{fill:#FF0000;}
	.st2{fill:#FFFFFF;}
	.st3{opacity:0.3;fill:#0066CC;}
	.st4{fill:#EB0000;}
	.st5{fill:none;stroke:#0066CC;stroke-width:2;stroke-linecap:round;stroke-linejoin:round;}
	.st6{fill:none;stroke:#0066CC;stroke-width:2;stroke-linecap:round;stroke-linejoin:round;stroke-dasharray:10.089,14.1245;}
	.st7{fill:#F2F2F2;}
	.st8{clip-path:url(#Rectangle_69_2_);}
	.st9{fill:#EE0000;}
	.st10{opacity:0.3;fill:#0066CC;enable-background:new    ;}
	.st11{opacity:0.15;fill:#0066CC;enable-background:new    ;}
	.st12{clip-path:url(#SVGID_4_);fill:url(#);}
</style>
<g>
	<g>
		<g>
			<g>
				<polygon class="st9" points="424.33,75.42 130.64,75.42 130.64,206.34 255.75,206.34 277.89,228.48 300.04,206.34 
					424.33,206.34 				"/>
			</g>
			<g>
				<path class="st2" d="M165.34,163.02c5.28,4.28,9.43,6.02,14.46,6.02c4.9,0,7.82-1.55,7.82-4.22c0-2.42-1.68-3.6-6.02-4.34
					l-9.56-1.68c-7.08-1.24-10.99-5.52-10.99-11.92c0-8.44,6.7-13.53,17.81-13.53c6.45,0,13.47,2.36,18.25,6.21l-5.65,7.88
					c-4.59-3.54-8.75-5.15-13.34-5.15c-4.34,0-7.01,1.43-7.01,3.79c0,2.17,1.49,3.23,5.15,3.85l9,1.49
					c8.38,1.37,12.79,5.65,12.79,12.35c0,8.81-7.26,14.27-19.05,14.27c-7.01,0-14.21-2.67-19.61-7.26L165.34,163.02z"/>
				<path class="st2" d="M212.26,163.46c0,3.6,2.36,5.96,5.96,5.96c2.54,0,4.53-0.93,5.9-2.61v-22.22h10.05v32.83h-10.05v-2.23
					c-2.42,1.86-5.46,2.86-8.81,2.86c-7.7,0-13.1-5.46-13.1-13.22v-20.23h10.05V163.46z"/>
				<path class="st2" d="M240.38,144.59h10.05v2.11c2.3-1.8,5.09-2.73,8.19-2.73c4.1,0,7.51,1.68,9.74,4.53
					c2.67-2.92,6.33-4.53,10.68-4.53c7.45,0,12.72,5.46,12.72,13.22v20.23h-10.05v-18.87c0-3.6-2.11-5.96-5.34-5.96
					c-2.23,0-4.1,0.87-5.4,2.48c0.06,0.68,0.12,1.37,0.12,2.11v20.23h-10.06v-18.87c0-3.6-2.11-5.96-5.34-5.96
					c-2.23,0-4.03,0.81-5.28,2.36v22.47h-10.05V144.59z"/>
				<path class="st2" d="M297.73,144.59h10.05v2.11c2.3-1.8,5.09-2.73,8.19-2.73c4.1,0,7.51,1.68,9.74,4.53
					c2.67-2.92,6.33-4.53,10.68-4.53c7.45,0,12.72,5.46,12.72,13.22v20.23h-10.05v-18.87c0-3.6-2.11-5.96-5.34-5.96
					c-2.23,0-4.1,0.87-5.4,2.48c0.06,0.68,0.12,1.37,0.12,2.11v20.23H318.4v-18.87c0-3.6-2.11-5.96-5.34-5.96
					c-2.23,0-4.03,0.81-5.28,2.36v22.47h-10.05V144.59z"/>
				<path class="st2" d="M354.58,136.03c0-3.04,2.48-5.52,5.52-5.52c3.04,0,5.52,2.48,5.52,5.52s-2.48,5.52-5.52,5.52
					C357.07,141.55,354.58,139.07,354.58,136.03z M365.13,177.42h-10.05v-32.83h10.05V177.42z"/>
				<path class="st2" d="M376,152.97h-6.64v-8.38H376v-8.44l10.05-2.17v10.61h9.19v8.38h-9.19v12.48c0,2.92,1.12,3.97,4.34,3.97
					c1.61,0,2.86-0.19,4.53-0.68v8.13c-1.86,0.56-5.09,0.99-7.01,0.99c-7.88,0-11.92-3.54-11.92-10.43V152.97z"/>
			</g>
			<path class="st2" d="M327.8,122.35c0,3.78,2.27,5.61,6.41,5.61c1,0,2.74-0.23,3.78-0.53v-4.38c-0.9,0.27-1.57,0.37-2.44,0.37
				c-1.7,0-2.34-0.53-2.34-2.14v-6.72h4.94v-4.51h-4.94v-5.71l-5.41,1.17v4.54h-3.57v4.51h3.57V122.35z M310.98,122.45
				c0-1.17,1.17-1.74,2.94-1.74c1.17,0,2.24,0.17,3.21,0.4v2.27c-1,0.57-2.17,0.84-3.37,0.84
				C312.02,124.22,310.98,123.56,310.98,122.45 M312.64,128.03c1.9,0,3.44-0.4,4.88-1.37v1.07h5.35v-11.33
				c0-4.31-2.91-6.68-7.75-6.68c-2.71,0-5.38,0.63-8.25,1.94l1.94,3.98c2.07-0.87,3.81-1.4,5.35-1.4c2.24,0,3.37,0.87,3.37,2.64
				v0.87c-1.27-0.33-2.61-0.5-4.01-0.5c-4.54,0-7.28,1.9-7.28,5.31C306.22,125.66,308.69,128.03,312.64,128.03 M283.27,127.73h5.75
				v-9.15h9.62v9.15h5.75v-23.39h-5.75v8.99h-9.62v-8.99h-5.75V127.73z M261.37,118.88c0-2.54,2-4.48,4.64-4.48
				c1.47,0,2.81,0.5,3.74,1.37v6.18c-0.97,0.94-2.24,1.4-3.74,1.4C263.41,123.35,261.37,121.42,261.37,118.88 M269.82,127.73h5.35
				v-24.56l-5.41,1.17v6.65c-1.34-0.77-2.87-1.17-4.51-1.17c-5.15,0-9.19,3.98-9.19,9.05c0,5.08,3.98,9.09,9.02,9.09
				c1.74,0,3.37-0.53,4.74-1.54V127.73z M245.3,114.17c1.7,0,3.14,1.1,3.71,2.81h-7.38C242.16,115.2,243.5,114.17,245.3,114.17
				 M236.18,118.91c0,5.15,4.21,9.15,9.62,9.15c2.97,0,5.15-0.8,7.38-2.67l-3.57-3.17c-0.84,0.87-2.07,1.34-3.54,1.34
				c-2,0-3.64-1.1-4.34-2.81h12.6v-1.34c0-5.61-3.78-9.66-8.92-9.66C240.22,109.76,236.18,113.77,236.18,118.91 M226.86,109.26
				c1.9,0,2.97,1.2,2.97,2.64s-1.07,2.64-2.97,2.64h-5.68v-5.28H226.86z M215.43,127.73h5.75v-8.52h4.38l4.41,8.52h6.41l-5.15-9.35
				c2.77-1.2,4.41-3.71,4.41-6.58c0-4.21-3.31-7.45-8.25-7.45h-11.96V127.73z"/>
		</g>
		<path class="st10" d="M130.67,119.41c0-5.61-3.78-9.66-8.92-9.66c-5.18,0-9.22,4.01-9.22,9.15c0,5.15,4.21,9.15,9.62,9.15
			c2.97,0,5.15-0.8,7.38-2.67l-3.57-3.17c-0.84,0.87-2.07,1.34-3.54,1.34c-2,0-3.64-1.1-4.34-2.81h12.6V119.41z M117.97,116.97
			c0.53-1.77,1.87-2.81,3.68-2.81c1.7,0,3.14,1.1,3.71,2.81H117.97z"/>
		<path class="st10" d="M254.32,66.77c0-5.61-3.78-9.66-8.92-9.66c-5.18,0-9.22,4.01-9.22,9.15c0,5.15,4.21,9.15,9.62,9.15
			c2.97,0,5.15-0.8,7.38-2.67l-3.57-3.17c-0.84,0.87-2.07,1.34-3.54,1.34c-2,0-3.64-1.1-4.34-2.81h12.6V66.77z M241.63,64.33
			c0.53-1.77,1.87-2.81,3.68-2.81c1.7,0,3.14,1.1,3.71,2.81H241.63z"/>
		<path class="st10" d="M254.32,48.46c0-5.61-3.78-9.66-8.92-9.66c-5.18,0-9.22,4.01-9.22,9.15c0,5.15,4.21,9.15,9.62,9.15
			c2.97,0,5.15-0.8,7.38-2.67l-3.57-3.17c-0.84,0.87-2.07,1.34-3.54,1.34c-2,0-3.64-1.1-4.34-2.81h12.6V48.46z M241.63,46.02
			c0.53-1.77,1.87-2.81,3.68-2.81c1.7,0,3.14,1.1,3.71,2.81H241.63z"/>
		<path class="st10" d="M254.32,256.44c0-5.61-3.78-9.66-8.92-9.66c-5.18,0-9.22,4.01-9.22,9.15c0,5.15,4.21,9.15,9.62,9.15
			c2.97,0,5.15-0.8,7.38-2.67l-3.57-3.17c-0.84,0.87-2.07,1.34-3.54,1.34c-2,0-3.64-1.1-4.34-2.81h12.6V256.44z M241.63,254
			c0.53-1.77,1.87-2.81,3.68-2.81c1.7,0,3.14,1.1,3.71,2.81H241.63z"/>
		<path class="st10" d="M254.32,238.13c0-5.61-3.78-9.66-8.92-9.66c-5.18,0-9.22,4.01-9.22,9.15c0,5.15,4.21,9.15,9.62,9.15
			c2.97,0,5.15-0.8,7.38-2.67l-3.57-3.17c-0.84,0.87-2.07,1.34-3.54,1.34c-2,0-3.64-1.1-4.34-2.81h12.6V238.13z M241.63,235.7
			c0.53-1.77,1.87-2.81,3.68-2.81c1.7,0,3.14,1.1,3.71,2.81H241.63z"/>
		<path class="st10" d="M112.56,119.41c0-5.61-3.78-9.66-8.92-9.66c-5.18,0-9.22,4.01-9.22,9.15c0,5.15,4.21,9.15,9.62,9.15
			c2.97,0,5.15-0.8,7.38-2.67l-3.57-3.17c-0.84,0.87-2.07,1.34-3.54,1.34c-2,0-3.64-1.1-4.34-2.81h12.6V119.41z M99.86,116.97
			c0.53-1.77,1.87-2.81,3.68-2.81c1.7,0,3.14,1.1,3.71,2.81H99.86z"/>
		<path class="st10" d="M460.59,119.41c0-5.61-3.78-9.66-8.92-9.66c-5.18,0-9.22,4.01-9.22,9.15c0,5.15,4.21,9.15,9.62,9.15
			c2.97,0,5.15-0.8,7.38-2.67l-3.57-3.17c-0.84,0.87-2.07,1.34-3.54,1.34c-2,0-3.64-1.1-4.34-2.81h12.6V119.41z M447.89,116.97
			c0.53-1.77,1.87-2.81,3.68-2.81c1.7,0,3.14,1.1,3.71,2.81H447.89z"/>
		<path class="st10" d="M442.47,119.41c0-5.61-3.78-9.66-8.92-9.66c-5.18,0-9.22,4.01-9.22,9.15c0,5.15,4.21,9.15,9.62,9.15
			c2.97,0,5.15-0.8,7.38-2.67l-3.57-3.17c-0.84,0.87-2.07,1.34-3.54,1.34c-2,0-3.64-1.1-4.34-2.81h12.6V119.41z M429.78,116.97
			c0.53-1.77,1.87-2.81,3.68-2.81c1.7,0,3.14,1.1,3.71,2.81H429.78z"/>
		<path id="Path_511-2_1_" class="st11" d="M94.41,38.81V265.1h366.17V38.81H94.41z M424.33,228.48l-293.69-0.26V75.16l293.69,0.26
			V228.48z"/>
	</g>
	<g>
		<path class="st9" d="M191.59,304.92c6,0,14.69-1.24,14.69-8.38c0-0.56-0.02-1.1-0.15-1.64l-3.57-15.53
			c-0.83-3.41-1.55-4.97-7.55-7.96c-4.66-2.38-14.79-6.31-17.79-6.31c-2.79,0-3.62,3.62-6.93,3.62c-3.21,0-5.59-2.69-8.58-2.69
			c-2.9,0-4.76,1.96-6.21,6c0,0-4.04,11.38-4.55,13.03c-0.1,0.31-0.11,0.66-0.11,0.93C150.84,290.41,168.25,304.92,191.59,304.92
			 M207.21,299.44c0.83,3.93,0.83,4.34,0.83,4.86c0,6.72-7.55,10.45-17.48,10.45c-22.45,0-42.1-13.14-42.1-21.83
			c0-1.35,0.31-2.59,0.72-3.52c-8.07,0.41-18.52,1.86-18.52,11.07c0,15.1,35.79,33.72,64.13,33.72c21.72,0,27.2-9.83,27.2-17.58
			C222.01,310.51,216.73,303.58,207.21,299.44"/>
		<path d="M207.21,299.44c0.83,3.93,0.83,4.34,0.83,4.86c0,6.72-7.55,10.45-17.48,10.45c-22.45,0-42.1-13.14-42.1-21.83
			c0-1.35,0.31-2.59,0.72-3.52l1.76-4.35c-0.1,0.31-0.11,0.66-0.11,0.93c0,4.42,17.42,18.93,40.76,18.93c6,0,14.69-1.24,14.69-8.38
			c0-0.56-0.02-1.1-0.15-1.64L207.21,299.44L207.21,299.44L207.21,299.44z"/>
		<path d="M408.5,309.48c0,5.7,3.42,8.48,9.67,8.48c1.51,0,4.13-0.35,5.69-0.81v-6.71c-1.36,0.4-2.37,0.55-3.67,0.55
			c-2.57,0-3.52-0.81-3.52-3.22v-10.05h7.68v-6.72h-7.68v-8.63l-8.16,1.77v6.86h-5.28v6.72h5.28V309.48L408.5,309.48L408.5,309.48z
			 M383.38,309.54c0-1.77,1.77-2.62,4.44-2.62c1.77,0,3.38,0.25,4.85,0.61v3.43c-1.52,0.86-3.28,1.26-5.1,1.26
			C384.94,312.21,383.38,311.21,383.38,309.54 M385.7,317.85c2.91,0,5.25-0.6,7.44-2.07v1.61h8.16v-17.11
			c0-6.51-4.43-10.09-11.83-10.09c-4.13,0-8.21,0.96-12.59,2.93l2.96,6.01c3.16-1.31,5.81-2.12,8.16-2.12
			c3.42,0,5.15,1.31,5.15,3.99v1.31c-1.94-0.5-3.98-0.76-6.12-0.76c-6.93,0-11.11,2.88-11.11,8.02
			C375.91,314.27,379.68,317.85,385.7,317.85 M341.32,317.4h8.64v-13.92h14.4v13.92h8.64v-35.51h-8.64v13.92h-14.4v-13.92h-8.64
			V317.4L341.32,317.4L341.32,317.4z M308.5,304.14c0-3.84,3.03-6.76,7.01-6.76c2.22,0,4.24,0.76,5.65,2.07v9.34
			c-1.46,1.41-3.38,2.12-5.65,2.12C311.58,310.9,308.5,307.98,308.5,304.14 M321.17,317.4h8.16v-37.09l-8.64,1.77v10.16
			c0,0-4.09-1.77-6.56-1.77c-7.77,0-13.88,6.01-13.88,13.68c0,7.67,6.01,13.73,13.63,13.73c2.62,0,5.1-0.81,7.3-2.32v1.97V317.4
			L321.17,317.4z M284,296.85c2.57,0,4.74,1.67,5.6,4.24h-11.15C279.25,298.41,281.27,296.85,284,296.85 M270.25,304.07
			c0,7.77,6.36,13.83,14.53,13.83c4.49,0,7.77-1.21,11.15-4.04l-5.4-4.79c-1.26,1.31-3.13,2.02-5.35,2.02
			c-3.03,0-5.5-1.67-6.56-4.24h19.02v-2.02c0-8.48-5.7-14.59-13.47-14.59C276.36,290.24,270.25,296.3,270.25,304.07 M256.53,289.57
			c2.94,0,4.6,1.86,4.6,4.08c0,2.22-1.65,4.08-4.6,4.08h-8.78v-8.16H256.53L256.53,289.57L256.53,289.57z M239.11,317.4h8.64v-12.96
			h6.66l6.71,12.96h9.81l-7.81-14.2c4.21-1.83,6.7-5.63,6.7-9.99c0-6.39-5.02-11.31-12.53-11.31h-18.16V317.4L239.11,317.4
			L239.11,317.4z"/>
	</g>
</g>
</svg>
