<?xml version="1.0" encoding="UTF-8"?><svg id="uuid-c2e1a3ca-a45e-441a-93f1-b8937676937a" xmlns="http://www.w3.org/2000/svg" viewBox="0 0 262 180"><defs><style>.uuid-d69a93a9-68c3-41f8-9d62-648002350aa2{fill:#f3f3f3;}.uuid-da7a99ec-e748-4e55-a41f-9a21b3333467{fill:#e00;}</style></defs><rect class="uuid-d69a93a9-68c3-41f8-9d62-648002350aa2" x="0" width="262" height="180"/><path class="uuid-da7a99ec-e748-4e55-a41f-9a21b3333467" d="m82.3139,72.17014c-9.83181,0-17.82986,7.99805-17.82986,17.82986s7.99805,17.82986,17.82986,17.82986,17.82986-7.99805,17.82986-17.82986-7.99805-17.82986-17.82986-17.82986Zm7.92752,25.9337c-.40202.32091-.96802.32973-1.38414.02116l-9.65902-7.26101-3.07861,6.82197c-.1869.41789-.59774.66474-1.02797.66474-.15516,0-.31386-.03174-.46373-.1005-.56776-.25567-.82167-.92394-.56424-1.4917l3.64814-8.0915c.00529-.01058.01058-.02116.01411-.03174l3.55998-7.88873c.36323-.81109,1.69271-.81109,2.05594,0l7.22222,16.01196c.21335.46902.07935,1.02268-.32267,1.34535Z"/><path class="uuid-da7a99ec-e748-4e55-a41f-9a21b3333467" d="m98.5639,57.5h-32.5c-8.97466,0-16.25,7.27534-16.25,16.25v32.5c0,8.97455,7.27534,16.25,16.25,16.25h32.5c8.97466,0,16.25-7.27545,16.25-16.25v-32.5c0-8.97466-7.27534-16.25-16.25-16.25Zm-16.25,52.58681c-11.07666,0-20.08681-9.01015-20.08681-20.08681s9.01015-20.08681,20.08681-20.08681,20.08681,9.01015,20.08681,20.08681-9.01015,20.08681-20.08681,20.08681Z"/><polygon class="uuid-da7a99ec-e748-4e55-a41f-9a21b3333467" points="80.14864 88.75515 86.70084 93.67988 82.3139 83.95562 80.14864 88.75515"/><path d="m195.9361,57.5h-32.5c-8.97466,0-16.25,7.27534-16.25,16.25v32.5c0,8.97466,7.27534,16.25,16.25,16.25h32.5c8.97466,0,16.25-7.27534,16.25-16.25v-32.5c0-8.97466-7.27534-16.25-16.25-16.25Zm13.99306,48.75c0,7.71582-6.27735,13.99306-13.99306,13.99306h-32.5c-7.71571,0-13.99306-6.27724-13.99306-13.99306v-32.5c0-7.71582,6.27735-13.99306,13.99306-13.99306h32.5c7.71571,0,13.99306,6.27724,13.99306,13.99306v32.5Z"/><path d="m173.78102,95.90508c.2204.2204.50958.32973.79875.32973s.57834-.10932.79875-.32973l.98168-.98157c.65152.44158,1.39693.75147,2.19744.90619v1.39252c0,.62242.50605,1.12847,1.12847,1.12847s1.12847-.50605,1.12847-1.12847v-1.39252c.80051-.15472,1.54592-.46461,2.19744-.90619l.98168.98157c.2204.2204.50958.32973.79875.32973s.57834-.10932.79875-.32973c.43905-.44081.43905-1.15668,0-1.59749l-.98168-.98157c.44169-.65174.75158-1.39715.9063-2.19755h1.39252c.62242,0,1.12847-.50605,1.12847-1.12847s-.50605-1.12847-1.12847-1.12847h-1.39252c-.15472-.8004-.46461-1.54581-.9063-2.19755l.98168-.98157c.43905-.44081.43905-1.15668,0-1.59749-.44081-.44081-1.15668-.44081-1.59749,0l-.98168.98157c-.65152-.44158-1.39693-.75147-2.19744-.90619v-1.39252c0-.62242-.50605-1.12847-1.12847-1.12847s-1.12847.50605-1.12847,1.12847v1.39252c-.80051.15472-1.54592.46461-2.19744.90619l-.98168-.98157c-.44081-.44081-1.15668-.44081-1.59749,0-.43905.44081-.43905,1.15668,0,1.59749l.98168.98157c-.44169.65174-.75158,1.39715-.9063,2.19755h-1.39252c-.62242,0-1.12847.50605-1.12847,1.12847s.50605,1.12847,1.12847,1.12847h1.39252c.15472.8004.46461,1.54581.9063,2.19755l-.98168.98157c-.43905.44081-.43905,1.15668,0,1.59749Zm5.90508-9.59201c2.03301,0,3.68693,1.65392,3.68693,3.68693s-1.65392,3.68693-3.68693,3.68693-3.68693-1.65392-3.68693-3.68693,1.65392-3.68693,3.68693-3.68693Z"/><path d="m169.78023,102.02176c.20983.1728.46373.25743.71764.25743.32444,0,.64887-.14106.87104-.41083.39673-.48136.32796-1.19195-.1534-1.58868-4.68845-3.85973-6.16781-10.40134-3.59524-15.9097,2.5708-5.511,8.53231-8.57639,14.50087-7.46467.61184.11461,1.20253-.28829,1.31714-.9019.11461-.61273-.28917-1.20165-.90101-1.31626-6.98947-1.30391-13.95603,2.28516-16.96235,8.72715-3.00808,6.44111-1.27835,14.09356,4.20532,18.60745Z"/><path d="m176.83494,105.31372c.9592.17985,1.91488.26625,2.8635.26625,5.95622,0,11.50513-3.43479,14.09885-8.99428,3.00808-6.44287,1.27835-14.09356-4.20532-18.60657-.47784-.39232-1.19371-.33061-1.58868.15428-.39673.48048-.32796,1.19195.1534,1.5878,4.68845,3.85885,6.16781,10.40046,3.59524,15.90881-2.5708,5.51012-8.54465,8.58168-14.50087,7.46555-.60655-.12166-1.20429.28917-1.31714.90101-.11461.61361.28917,1.20253.90101,1.31714Z"/><path d="m166.06156,77.14335c3.57761-3.7892,8.41593-5.87599,13.62454-5.87599s10.04693,2.08679,13.62454,5.87599c.22217.23451.52016.35353.81991.35353.27859,0,.55718-.10227.77406-.30769.45315-.42847.47431-1.14258.04584-1.59573-4.00784-4.245-9.42803-6.58305-15.26435-6.58305s-11.25651,2.33805-15.26435,6.58305c-.42847.45315-.40731,1.16726.04584,1.59573.44963.42759,1.1655.40819,1.59397-.04584Z"/><path d="m179.6861,108.73264c-10.32905,0-18.73264-8.40359-18.73264-18.73264,0-2.35216.43023-4.64437,1.27658-6.81139.22746-.58011-.05995-1.23427-.64006-1.46172s-1.23427.05819-1.46172.64006c-.95039,2.42974-1.43175,4.99878-1.43175,7.63306,0,11.57389,9.41569,20.98958,20.98958,20.98958.62242,0,1.12847-.50605,1.12847-1.12847s-.50605-1.12847-1.12847-1.12847Z"/><path d="m197.27087,80.68922c-.566.26008-.81462.93011-.55542,1.49611,1.13024,2.45972,1.70329,5.0887,1.70329,7.81467,0,5.60886-2.48264,10.87565-6.81315,14.4515-1.54107,1.27306-3.25846,2.28339-5.1081,3.00456-.58011.22569-.86751.87986-.64006,1.46172.1728.44434.5995.71764,1.05089.71764.13577,0,.27507-.02469.41083-.07758,2.0718-.80756,3.99726-1.94132,5.72523-3.36602,4.8489-4.00608,7.63129-9.90763,7.63129-16.19181,0-3.05393-.64182-6.0003-1.90782-8.75624-.26096-.56864-.93981-.81638-1.49699-.55454Z"/></svg>