<?xml version="1.0" encoding="UTF-8"?><svg id="uuid-b434718f-ffde-440b-a388-d00f41efe654" xmlns="http://www.w3.org/2000/svg" viewBox="0 0 262 180"><defs><style>.uuid-02dd1db0-91a4-414c-b02a-de8f1c561c89{fill:#f3f3f3;}.uuid-899c6f0c-1208-491c-a85d-056dfa7bdb12{fill:#ed0000;}.uuid-cff1d4ae-5c35-402b-b0ee-294da930b009{fill:#e00;}.uuid-a623f465-67f9-4c76-8c38-8c61ec1f54bc{fill:#fff;}.uuid-8db9f825-c742-4e33-a47d-fc054121c098{fill:#dfdfdf;}.uuid-8039135f-6148-445d-b9d0-cd6ea876224f{fill:#4d4d4d;}</style></defs><rect class="uuid-02dd1db0-91a4-414c-b02a-de8f1c561c89" width="262" height="180"/><rect x="49.8139" y="57.5" width="65" height="65" rx="16.25" ry="16.25"/><path class="uuid-8039135f-6148-445d-b9d0-cd6ea876224f" d="m98.5639,59.75694c7.71582,0,13.99306,6.27729,13.99306,13.99306v32.5c0,7.71576-6.27724,13.99306-13.99306,13.99306h-32.5c-7.71582,0-13.99306-6.27729-13.99306-13.99306v-32.5c0-7.71576,6.27724-13.99306,13.99306-13.99306h32.5m0-2.25694h-32.5c-8.97466,0-16.25,7.27539-16.25,16.25v32.5c0,8.97461,7.27534,16.25,16.25,16.25h32.5c8.97466,0,16.25-7.27539,16.25-16.25v-32.5c0-8.97461-7.27534-16.25-16.25-16.25h0Z"/><path class="uuid-a623f465-67f9-4c76-8c38-8c61ec1f54bc" d="m89.53612,103.76736c-.62242,0-1.12847-.50605-1.12847-1.12847v-12.63889c0-.62242.50605-1.12847,1.12847-1.12847s1.12847.50605,1.12847,1.12847v12.63889c0,.62242-.50605,1.12847-1.12847,1.12847Z"/><path class="uuid-a623f465-67f9-4c76-8c38-8c61ec1f54bc" d="m75.09168,91.12847c-.62242,0-1.12847-.50605-1.12847-1.12847v-12.63889c0-.62242.50605-1.12847,1.12847-1.12847s1.12847.50605,1.12847,1.12847v12.63889c0,.62242-.50605,1.12847-1.12847,1.12847Z"/><path class="uuid-899c6f0c-1208-491c-a85d-056dfa7bdb12" d="m71.48057,92.48264h-6.09375v-4.96528h20.53819c.62242,0,1.12847-.50605,1.12847-1.12847s-.50605-1.12847-1.12847-1.12847h-21.66667c-.62242,0-1.12847.50605-1.12847,1.12847v7.22222c0,.62242.50605,1.12847,1.12847,1.12847h7.22222c.62242,0,1.12847-.50605,1.12847-1.12847s-.50605-1.12847-1.12847-1.12847Z"/><path class="uuid-899c6f0c-1208-491c-a85d-056dfa7bdb12" d="m100.36946,85.26042h-7.22222c-.62242,0-1.12847.50605-1.12847,1.12847s.50605,1.12847,1.12847,1.12847h6.09375v4.96528h-20.53819c-.62242,0-1.12847.50605-1.12847,1.12847s.50605,1.12847,1.12847,1.12847h21.66667c.62242,0,1.12847-.50605,1.12847-1.12847v-7.22222c0-.62242-.50605-1.12847-1.12847-1.12847Z"/><path class="uuid-a623f465-67f9-4c76-8c38-8c61ec1f54bc" d="m79.50154,100.03459c-.44081-.44081-1.15668-.44081-1.59749,0l-1.68389,1.68499v-11.71958c0-.62242-.50605-1.12847-1.12847-1.12847s-1.12847.50605-1.12847,1.12847v11.71958l-1.68389-1.68499c-.44081-.44081-1.15668-.44081-1.59749,0-.43905.44081-.43905,1.15668,0,1.59749l3.61111,3.61111c.04496.04496.10227.06524.1523.10095.06943.05003.13312.10767.21302.14106.13863.05731.28564.08772.43343.08772s.29479-.03042.43343-.08772c.0799-.03339.14359-.09103.21302-.14106.05003-.03571.10734-.05598.1523-.10095l3.61111-3.61111c.43905-.44081.43905-1.15668,0-1.59749Z"/><path class="uuid-a623f465-67f9-4c76-8c38-8c61ec1f54bc" d="m93.94598,78.36792l-3.61111-3.61111c-.04981-.04981-.11274-.07339-.16872-.11197-.06458-.04496-.12221-.09907-.19561-.12982-.27771-.1156-.59113-.1156-.86884,0-.07339.03075-.13103.08486-.19561.12982-.05598.03857-.11891.06215-.16872.11197l-3.61111,3.61111c-.43905.44081-.43905,1.15668,0,1.59749.44081.44081,1.15668.44081,1.59749,0l1.68389-1.68499v11.71958c0,.62242.50605,1.12847,1.12847,1.12847s1.12847-.50605,1.12847-1.12847v-11.71958l1.68389,1.68499c.2204.2204.50958.32973.79875.32973s.57834-.10932.79875-.32973c.43905-.44081.43905-1.15668,0-1.59749Z"/><rect class="uuid-a623f465-67f9-4c76-8c38-8c61ec1f54bc" x="147.18612" y="57.50002" width="64.99998" height="64.99998" rx="16.24999" ry="16.24999"/><path class="uuid-8db9f825-c742-4e33-a47d-fc054121c098" d="m195.93608,59.75694c7.71582,0,13.99305,6.27729,13.99305,13.99305v32.49999c0,7.71576-6.27723,13.99305-13.99305,13.99305h-32.49999c-7.71582,0-13.99305-6.27729-13.99305-13.99305v-32.49999c0-7.71576,6.27723-13.99305,13.99305-13.99305h32.49999m0-2.25694h-32.49999c-8.97466,0-16.24999,7.27539-16.24999,16.24999v32.49999c0,8.97466,7.27534,16.24999,16.24999,16.24999h32.49999c8.97466,0,16.24999-7.27534,16.24999-16.24999v-32.49999c0-8.9746-7.27534-16.24999-16.24999-16.24999h0Z"/><path class="uuid-cff1d4ae-5c35-402b-b0ee-294da930b009" d="m175.22058,95.07745c-.29446,0-.58716-.11461-.80933-.34207-.43376-.4461-.42494-1.16197.02292-1.59573l17.1563-16.6767c.43728-.4267,1.13552-.4267,1.57281,0l2.1441,2.08415c.44786.43376.45668,1.14963.02292,1.59573-.43728.4461-1.14963.45844-1.59573.02292l-1.35769-1.3189-16.36989,15.91145c-.21864.21335-.50252.31915-.7864.31915Z"/><path class="uuid-cff1d4ae-5c35-402b-b0ee-294da930b009" d="m192.37688,86.7391c-.28388,0-.56776-.10579-.7864-.31915l-4.28996-4.16829c-.4461-.43376-.45668-1.14787-.02292-1.59573s1.15139-.45668,1.59573-.02292l4.28996,4.16829c.4461.43376.45668,1.14787.02292,1.59573-.2204.22746-.51487.34207-.80933.34207Z"/><path class="uuid-cff1d4ae-5c35-402b-b0ee-294da930b009" d="m188.08692,90.9074c-.28388,0-.56776-.10579-.7864-.31915l-4.28819-4.16829c-.44786-.43376-.45668-1.14963-.02292-1.59573.43552-.4461,1.14963-.45668,1.59573-.02292l4.28819,4.16829c.44786.43376.45668,1.14963.02292,1.59573-.22217.22746-.51487.34207-.80933.34207Z"/><path d="m171.07168,105.0944c-1.86903,0-3.62698-.72822-4.94764-2.05064-1.32066-1.32066-2.04888-3.07861-2.04888-4.94588,0-1.86903.72822-3.62698,2.05064-4.94764,2.63604-2.64133,7.24867-2.64309,9.89176,0h.00176c1.32066,1.32243,2.04888,3.07861,2.04888,4.94764,0,1.86727-.72822,3.62522-2.04888,4.94764-1.32243,1.32066-3.08038,2.04888-4.94764,2.04888Zm0-11.73611c-1.266,0-2.45619.49371-3.35015,1.38767-.89572.89572-1.38943,2.08591-1.38943,3.35191s.49371,2.45619,1.38943,3.35015c1.78792,1.79145,4.91238,1.79145,6.7003,0,.89572-.89396,1.38943-2.08415,1.38943-3.35015s-.49371-2.45619-1.38767-3.35015h-.00176c-.89396-.89572-2.08415-1.38943-3.35015-1.38943Z"/></svg>