<?xml version="1.0" encoding="UTF-8"?><svg id="uuid-39c669ba-166a-4be8-88eb-2a379ee46244" xmlns="http://www.w3.org/2000/svg" viewBox="0 0 360 208"><defs><style>.uuid-86666ede-f67e-4baf-aed3-012201d8721c{fill:none;}.uuid-78f5559c-e59f-47a1-87f4-8ceb6eb04dcd{fill:#f2f2f2;}.uuid-6e6a233b-5a36-4a0a-825a-32c69c096af0{fill:#e00;}.uuid-dff29ef5-adb9-4334-adcf-0b8ef6ec3c5e{fill:#fff;}.uuid-f2983256-4cb1-41fa-810a-2ae7fd3f4b01{fill:#dfdfdf;}.uuid-a21ce30b-c8ca-4ab5-975f-53357c2432a6{fill:#1e67cd;}</style></defs><rect class="uuid-78f5559c-e59f-47a1-87f4-8ceb6eb04dcd" width="360" height="208"/><path class="uuid-dff29ef5-adb9-4334-adcf-0b8ef6ec3c5e" d="m110.20868,63.58266h-40.41734c-11.16093,0-20.20867,9.04774-20.20867,20.20867v40.41735c0,11.16096,9.04774,20.20867,20.20867,20.20867h40.41734c11.16094,0,20.20867-9.04771,20.20867-20.20867v-40.41735c0-11.16093-9.04774-20.20867-20.20867-20.20867h0Z"/><path class="uuid-f2983256-4cb1-41fa-810a-2ae7fd3f4b01" d="m110.20867,66.3894c9.59541,0,17.40191,7.80651,17.40191,17.40191v40.41735c0,9.59541-7.80651,17.40191-17.40191,17.40191h-40.41735c-9.59541,0-17.40191-7.80651-17.40191-17.40191v-40.41735c0-9.59541,7.80651-17.40191,17.40191-17.40191h40.41735m0-2.80676h-40.41735c-11.16091,0-20.20867,9.04776-20.20867,20.20867v40.41735c0,11.16098,9.04776,20.20867,20.20867,20.20867h40.41735c11.16091,0,20.20867-9.04769,20.20867-20.20867v-40.41735c0-11.16091-9.04776-20.20867-20.20867-20.20867h0Z"/><path class="uuid-6e6a233b-5a36-4a0a-825a-32c69c096af0" d="m98.9817,89.12519h-1.73175c-.19242-.99593-.57821-1.92307-1.12791-2.73399l1.22165-1.22179c.546-.5482.546-1.43846,0-1.98666-.5482-.5482-1.43846-.54381-1.98666,0l-1.22179,1.22206c-.81023-.54888-1.73682-.93385-2.73179-1.12613v-1.73175c0-.77405-.62933-1.40338-1.40338-1.40338s-1.40338.62933-1.40338,1.40338v1.73175c-.99497.19228-1.92156.57725-2.73179,1.12613l-1.22179-1.22206c-.5482-.5482-1.43846-.5482-1.98666,0-.546.5482-.546,1.43846,0,1.98666l1.22165,1.22179c-.5497.81092-.9355,1.73805-1.12791,2.73399h-1.73175c-.77405,0-1.40338.62933-1.40338,1.40338s.62933,1.40338,1.40338,1.40338h1.73175c.19255.99511.57821,1.9217,1.12764,2.73207l-1.22138,1.22152c-.546.5482-.546,1.43846,0,1.98666.2741.2741.63371.41005.99333.41005s.71923-.13815.99333-.41005l1.22165-1.22193c.81023.54888,1.73696.93371,2.73193,1.12599v1.73394c0,.77405.62933,1.40338,1.40338,1.40338s1.40338-.62933,1.40338-1.40338v-1.73394c.99497-.19228,1.9217-.57711,2.73193-1.12599l1.22165,1.22193c.2741.2741.63371.41005.99333.41005s.71923-.13595.99333-.41005c.546-.5482.546-1.43846,0-1.98666l-1.22138-1.22152c.54943-.81037.93508-1.73696,1.12764-2.73207h1.73175c.77405,0,1.40338-.62933,1.40338-1.40338s-.62933-1.40338-1.40338-1.40338Zm-13.56674,1.40338c0-2.52828,2.05683-4.58511,4.58511-4.58511s4.58511,2.05683,4.58511,4.58511c0,2.52608-2.05683,4.58291-4.58511,4.58291s-4.58511-2.05683-4.58511-4.58291Z"/><path class="uuid-6e6a233b-5a36-4a0a-825a-32c69c096af0" d="m110.20874,125.61307h-8.98163c-.77405,0-1.40338-.62933-1.40338-1.40338v-8.98163c0-.77405.62933-1.40338,1.40338-1.40338h8.98163c.77405,0,1.40338.62933,1.40338,1.40338v8.98163c0,.77405-.62933,1.40338-1.40338,1.40338Zm-7.57825-2.80676h6.17487v-6.17487h-6.17487v6.17487Z"/><path class="uuid-6e6a233b-5a36-4a0a-825a-32c69c096af0" d="m94.49088,125.61307h-8.98163c-.77405,0-1.40338-.62933-1.40338-1.40338v-8.98163c0-.77405.62933-1.40338,1.40338-1.40338h8.98163c.77405,0,1.40338.62933,1.40338,1.40338v8.98163c0,.77405-.62933,1.40338-1.40338,1.40338Zm-7.57825-2.80676h6.17487v-6.17487h-6.17487v6.17487Z"/><path class="uuid-6e6a233b-5a36-4a0a-825a-32c69c096af0" d="m78.77302,125.61307h-8.98163c-.77405,0-1.40338-.62933-1.40338-1.40338v-8.98163c0-.77405.62933-1.40338,1.40338-1.40338h8.98163c.77405,0,1.40338.62933,1.40338,1.40338v8.98163c0,.77405-.62933,1.40338-1.40338,1.40338Zm-7.57825-2.80676h6.17487v-6.17487h-6.17487v6.17487Z"/><path d="m105.71792,107.08845h-14.31448v-3.08744c0-.77405-.62933-1.40338-1.40338-1.40338s-1.40338.62933-1.40338,1.40338v3.08744h-14.31448c-.77405,0-1.40338.62933-1.40338,1.40338s.62933,1.40338,1.40338,1.40338h31.43571c.77405,0,1.40338-.62933,1.40338-1.40338s-.62933-1.40338-1.40338-1.40338Z"/><path class="uuid-6e6a233b-5a36-4a0a-825a-32c69c096af0" d="m290.20866,63.58263h-40.41736c-11.16089,0-20.20862,9.04773-20.20862,20.20868v40.41736c0,11.16095,9.04773,20.20868,20.20862,20.20868h40.41736c11.16095,0,20.20868-9.04773,20.20868-20.20868v-40.41736c0-11.16095-9.04773-20.20868-20.20868-20.20868Zm17.40192,60.62604c0,9.5954-7.80652,17.40192-17.40192,17.40192h-40.41736c-9.5954,0-17.40192-7.80652-17.40192-17.40192v-40.41736c0-9.5954,7.80652-17.40192,17.40192-17.40192h40.41736c9.5954,0,17.40192,7.80652,17.40192,17.40192v40.41736Z"/><path class="uuid-6e6a233b-5a36-4a0a-825a-32c69c096af0" d="m261.01841,91.93193h1.73175c.19257.99512.57825,1.92169,1.12769,2.73206l-1.22144,1.22156c-.54596.54816-.54596,1.43842,0,1.98663.27411.27411.63373.41003.99335.41003s.71924-.13812.99335-.41003l1.22162-1.22192c.81024.54889,1.737.93372,2.73193,1.12598v1.73395c0,.77405.62933,1.40338,1.40338,1.40338s1.40338-.62933,1.40338-1.40338v-1.73395c.995-.19226,1.92175-.57709,2.73193-1.12598l1.22168,1.22192c.27411.27411.63373.41003.99335.41003s.71924-.13593.99329-.41003c.54602-.54822.54602-1.43848,0-1.98663l-1.22137-1.22156c.54944-.81036.93512-1.73694,1.12769-2.73206h1.73169c.77411,0,1.40338-.62933,1.40338-1.40338s-.62927-1.40338-1.40338-1.40338h-1.73169c-.19244-.99591-.57825-1.9231-1.12793-2.73401l1.22162-1.22174c.54602-.54822.54602-1.43848,0-1.98669-.54816-.54816-1.43842-.54382-1.98663,0l-1.2218,1.22205c-.81024-.54883-1.73682-.93384-2.73181-1.1261v-1.73175c0-.77405-.62933-1.40338-1.40338-1.40338s-1.40338.62933-1.40338,1.40338v1.73175c-.99493.19226-1.92151.57727-2.73175,1.1261l-1.2218-1.22205c-.54822-.54816-1.43848-.54816-1.98669,0-.54596.54822-.54596,1.43848,0,1.98669l1.22168,1.22174c-.54968.81091-.93549,1.7381-1.12793,2.73401h-1.73175c-.77405,0-1.40338.62933-1.40338,1.40338s.62933,1.40338,1.40338,1.40338Zm8.98163-5.98846c2.52832,0,4.58514,2.05682,4.58514,4.58508,0,2.52606-2.05682,4.58289-4.58514,4.58289s-4.58508-2.05682-4.58508-4.58289c0-2.52826,2.05682-4.58508,4.58508-4.58508Z"/><path class="uuid-6e6a233b-5a36-4a0a-825a-32c69c096af0" d="m290.20872,113.82463h-8.98163c-.77405,0-1.40338.62933-1.40338,1.40338v8.98163c0,.77411.62933,1.40338,1.40338,1.40338h8.98163c.77405,0,1.40338-.62927,1.40338-1.40338v-8.98163c0-.77405-.62933-1.40338-1.40338-1.40338Zm-1.40338,8.98169h-6.17487v-6.17493h6.17487v6.17493Z"/><path class="uuid-6e6a233b-5a36-4a0a-825a-32c69c096af0" d="m274.49088,113.82463h-8.98163c-.77405,0-1.40338.62933-1.40338,1.40338v8.98163c0,.77411.62933,1.40338,1.40338,1.40338h8.98163c.77405,0,1.40338-.62927,1.40338-1.40338v-8.98163c0-.77405-.62933-1.40338-1.40338-1.40338Zm-1.40338,8.98169h-6.17487v-6.17493h6.17487v6.17493Z"/><path class="uuid-6e6a233b-5a36-4a0a-825a-32c69c096af0" d="m258.77305,113.82463h-8.98163c-.77411,0-1.40338.62933-1.40338,1.40338v8.98163c0,.77411.62927,1.40338,1.40338,1.40338h8.98163c.77405,0,1.40338-.62927,1.40338-1.40338v-8.98163c0-.77405-.62933-1.40338-1.40338-1.40338Zm-1.40338,8.98169h-6.17487v-6.17493h6.17487v6.17493Z"/><path class="uuid-6e6a233b-5a36-4a0a-825a-32c69c096af0" d="m254.2822,109.89519h31.43573c.77405,0,1.40338-.62933,1.40338-1.40338s-.62933-1.40338-1.40338-1.40338h-14.31451v-3.0874c0-.77405-.62933-1.40338-1.40338-1.40338s-1.40338.62933-1.40338,1.40338v3.0874h-14.31445c-.77405,0-1.40338.62933-1.40338,1.40338s.62933,1.40338,1.40338,1.40338Z"/><g id="uuid-c38386e5-f5ea-4e6f-ae79-a5ad95188331"><g id="uuid-e6ab0f9a-e62d-41fd-b292-3656fc439276"><rect class="uuid-86666ede-f67e-4baf-aed3-012201d8721c" x="154.6426" y="79.6426" width="48.71479" height="48.71479"/></g><g id="uuid-01306d1f-2f06-4267-aae1-24cb9370d9f7"><path class="uuid-a21ce30b-c8ca-4ab5-975f-53357c2432a6" d="m161.40855,104.83898h33.13959l-10.73079,10.73079c-.32476.32476-.32476.86604,0,1.1908.16238.16238.37889.24357.5954.24357s.43302-.08119.5954-.24357l12.1787-12.1787s.0406-.06766.06766-.10825c.0406-.05413.08119-.10825.10825-.17591.0406-.09472.05413-.18945.05413-.28417v-.08119c0-.09472-.01353-.18945-.05413-.28417-.02706-.06766-.06766-.12179-.10825-.17591-.02706-.02706-.0406-.06766-.06766-.10825l-12.1787-12.1787c-.32476-.32476-.86604-.32476-1.1908,0s-.32476.86604,0,1.19081l10.73079,10.73079h-33.13959c-.46008,0-.83898.37889-.83898.83898s.37889.83898.83898.83898v.05412Z"/></g></g></svg>