<?xml version="1.0" encoding="UTF-8"?><svg id="uuid-19ec4eef-6ff3-4f24-8e1d-555038d5576d" xmlns="http://www.w3.org/2000/svg" viewBox="0 0 360 208"><defs><style>.uuid-5a27ca24-fe10-488c-9e0f-75c722000233{fill:#f2f2f2;}.uuid-620f1f4d-3a45-451a-a180-85e25ec29e65{fill:#e00;}.uuid-98fac352-c9e4-40ff-bbee-a58264662bbf{fill:#fff;}.uuid-508e1bc2-5bb1-4a05-a525-c9e58422bc25{fill:#151515;}.uuid-aeb323a8-3a1a-4ae8-bb90-c5649192a4bd{fill:#707070;}</style></defs><rect class="uuid-508e1bc2-5bb1-4a05-a525-c9e58422bc25" width="180" height="208"/><rect class="uuid-5a27ca24-fe10-488c-9e0f-75c722000233" x="180" width="180" height="208"/><path class="uuid-620f1f4d-3a45-451a-a180-85e25ec29e65" d="m45.14125,69.78114h2.98767c-.36206-1.31676-1.55751-2.29221-2.98767-2.29221-1.71535,0-3.11089,1.39555-3.11089,3.11086s1.39555,3.11089,3.11089,3.11089c1.43019,0,2.62561-.97545,2.98767-2.29224h-2.98767c-.45153,0-.81865-.36708-.81865-.81865,0-.45153.36712-.81865.81865-.81865Z"/><path class="uuid-620f1f4d-3a45-451a-a180-85e25ec29e65" d="m60.85932,51.77086c-1.43019,0-2.62561.97545-2.98767,2.29221h2.98767c.45153,0,.81865.36712.81865.81865s-.36712.81865-.81865.81865h-2.98767c.36206,1.31679,1.55748,2.29224,2.98767,2.29224,1.71531,0,3.11086-1.39555,3.11086-3.11089s-1.39555-3.11086-3.11086-3.11086Z"/><path class="uuid-620f1f4d-3a45-451a-a180-85e25ec29e65" d="m64.78854,39.16326h-23.57712c-6.51061,0-11.78852,5.27792-11.78852,11.78856v23.57712c0,6.51064,5.27792,11.78856,11.78852,11.78856h23.57712c6.51064,0,11.78856-5.27792,11.78856-11.78856v-23.57712c0-6.51064-5.27792-11.78856-11.78856-11.78856Zm-3.92922,20.46665c-2.33878,0-4.28288-1.70071-4.6725-3.92954h-8.42591c-1.71531,0-3.11086,1.39555-3.11086,3.11089s1.39555,3.11086,3.11086,3.11086h9.1689c2.61838,0,4.74816,2.12978,4.74816,4.74816s-2.12978,4.74816-4.74816,4.74816h-7.11606c-.38962,2.22883-2.33376,3.92954-4.6725,3.92954-2.61841,0-4.74819-2.12978-4.74819-4.74819s2.12978-4.74816,4.74819-4.74816c2.33874,0,4.28288,1.70071,4.6725,3.92951h7.11606c1.71531,0,3.11086-1.39551,3.11086-3.11086s-1.39555-3.11086-3.11086-3.11086h-9.1689c-2.61838,0-4.74816-2.12978-4.74816-4.74816s2.12978-4.74819,4.74816-4.74819h8.42591c.38962-2.2288,2.33372-3.92951,4.6725-3.92951,2.61838,0,4.74816,2.12978,4.74816,4.74816s-2.12978,4.74819-4.74816,4.74819Z"/><path class="uuid-620f1f4d-3a45-451a-a180-85e25ec29e65" d="m64.78854,121.6825h-23.57712c-6.51061,0-11.78852,5.27792-11.78852,11.78856v23.57712c0,6.51064,5.27792,11.78856,11.78852,11.78856h23.57712c6.51064,0,11.78856-5.27792,11.78856-11.78856v-23.57712c0-6.51064-5.27792-11.78856-11.78856-11.78856Zm10.15126,35.36568c0,5.59739-4.55387,10.15126-10.15126,10.15126h-23.57712c-5.59739,0-10.15126-4.55387-10.15126-10.15126v-23.57712c0-5.59739,4.55387-10.15126,10.15126-10.15126h23.57712c5.59739,0,10.15126,4.55387,10.15126,10.15126v23.57712Z"/><path class="uuid-620f1f4d-3a45-451a-a180-85e25ec29e65" d="m47.76066,138.21983h1.0102c.11233.58049.33732,1.121.65783,1.59372l-.71251.71259c-.31848.31976-.31848.83909,0,1.15889.1599.1599.36968.23919.57946.23919s.41956-.08057.57946-.23919l.71262-.7128c.47265.32019,1.01326.54468,1.59365.65683v1.01148c0,.45153.36712.81865.81865.81865s.81865-.36712.81865-.81865v-1.01148c.58042-.11215,1.12104-.33664,1.59365-.65683l.71266.7128c.1599.1599.36968.23919.57946.23919s.41956-.07929.57942-.23919c.31852-.3198.31852-.83912,0-1.15889l-.71248-.71259c.32051-.47272.54549-1.01323.65783-1.59372h1.01017c.45157,0,.81865-.36712.81865-.81865s-.36708-.81865-.81865-.81865h-1.01017c-.11226-.58096-.33732-1.12182-.65797-1.59486l.71262-.71269c.31852-.3198.31852-.83912,0-1.15892-.31976-.31976-.83909-.31723-1.15889,0l-.71273.71287c-.47265-.32015-1.01316-.54475-1.59358-.6569v-1.0102c0-.45153-.36712-.81865-.81865-.81865s-.81865.36712-.81865.81865v1.0102c-.58039.11215-1.1209.33675-1.59354.6569l-.71273-.71287c-.3198-.31976-.83912-.31976-1.15892,0-.31848.3198-.31848.83912,0,1.15892l.71266.71269c-.32065.47304-.54571,1.0139-.65797,1.59486h-1.0102c-.45153,0-.81865.36712-.81865.81865s.36712.81865.81865.81865Zm5.23936-3.49332c1.47487,0,2.6747,1.19983,2.6747,2.67467,0,1.47356-1.19983,2.67339-2.6747,2.67339s-2.67467-1.19983-2.67467-2.67339c0-1.47484,1.19983-2.67467,2.67467-2.67467Z"/><path class="uuid-620f1f4d-3a45-451a-a180-85e25ec29e65" d="m64.78858,150.99074h-5.23936c-.45153,0-.81865.36712-.81865.81865v5.23936c0,.45157.36712.81865.81865.81865h5.23936c.45153,0,.81865-.36708.81865-.81865v-5.23936c0-.45153-.36712-.81865-.81865-.81865Zm-.81865,5.23939h-3.60205v-3.60209h3.60205v3.60209Z"/><path class="uuid-620f1f4d-3a45-451a-a180-85e25ec29e65" d="m55.61971,150.99074h-5.23936c-.45153,0-.81865.36712-.81865.81865v5.23936c0,.45157.36712.81865.81865.81865h5.23936c.45153,0,.81865-.36708.81865-.81865v-5.23936c0-.45153-.36712-.81865-.81865-.81865Zm-.81865,5.23939h-3.60205v-3.60209h3.60205v3.60209Z"/><path class="uuid-620f1f4d-3a45-451a-a180-85e25ec29e65" d="m46.45085,150.99074h-5.23936c-.45157,0-.81865.36712-.81865.81865v5.23936c0,.45157.36708.81865.81865.81865h5.23936c.45153,0,.81865-.36708.81865-.81865v-5.23936c0-.45153-.36712-.81865-.81865-.81865Zm-.81865,5.23939h-3.60205v-3.60209h3.60205v3.60209Z"/><path class="uuid-620f1f4d-3a45-451a-a180-85e25ec29e65" d="m43.83115,148.69854h18.33776c.45153,0,.81865-.36712.81865-.81865s-.36712-.81865-.81865-.81865h-8.35025v-1.80101c0-.45153-.36712-.81865-.81865-.81865s-.81865.36712-.81865.81865v1.80101h-8.35021c-.45153,0-.81865.36712-.81865.81865s.36712.81865.81865.81865Z"/><path class="uuid-98fac352-c9e4-40ff-bbee-a58264662bbf" d="m119.14125,69.78114h2.98767c-.36206-1.31676-1.55751-2.29221-2.98767-2.29221-1.71535,0-3.11089,1.39555-3.11089,3.11086s1.39555,3.11089,3.11089,3.11089c1.43019,0,2.62561-.97545,2.98767-2.29224h-2.98767c-.45153,0-.81865-.36708-.81865-.81865,0-.45153.36712-.81865.81865-.81865Z"/><path class="uuid-98fac352-c9e4-40ff-bbee-a58264662bbf" d="m134.85932,51.77086c-1.43019,0-2.62561.97545-2.98767,2.29221h2.98767c.45153,0,.81865.36712.81865.81865s-.36712.81865-.81865.81865h-2.98767c.36206,1.31679,1.55748,2.29224,2.98767,2.29224,1.71531,0,3.11086-1.39555,3.11086-3.11089s-1.39555-3.11086-3.11086-3.11086Z"/><path class="uuid-98fac352-c9e4-40ff-bbee-a58264662bbf" d="m138.78854,39.16326h-23.57712c-6.51061,0-11.78852,5.27792-11.78852,11.78856v23.57712c0,6.51064,5.27792,11.78856,11.78852,11.78856h23.57712c6.51064,0,11.78856-5.27792,11.78856-11.78856v-23.57712c0-6.51064-5.27792-11.78856-11.78856-11.78856Zm-3.92922,20.46665c-2.33878,0-4.28288-1.70071-4.6725-3.92954h-8.42591c-1.71531,0-3.11086,1.39555-3.11086,3.11089s1.39555,3.11086,3.11086,3.11086h9.1689c2.61838,0,4.74816,2.12978,4.74816,4.74816s-2.12978,4.74816-4.74816,4.74816h-7.11606c-.38962,2.22883-2.33376,3.92954-4.6725,3.92954-2.61841,0-4.74819-2.12978-4.74819-4.74819s2.12978-4.74816,4.74819-4.74816c2.33874,0,4.28288,1.70071,4.6725,3.92951h7.11606c1.71531,0,3.11086-1.39551,3.11086-3.11086s-1.39555-3.11086-3.11086-3.11086h-9.1689c-2.61838,0-4.74816-2.12978-4.74816-4.74816s2.12978-4.74819,4.74816-4.74819h8.42591c.38962-2.2288,2.33372-3.92951,4.6725-3.92951,2.61838,0,4.74816,2.12978,4.74816,4.74816s-2.12978,4.74819-4.74816,4.74819Z"/><path class="uuid-98fac352-c9e4-40ff-bbee-a58264662bbf" d="m138.78854,121.6825h-23.57712c-6.51061,0-11.78852,5.27792-11.78852,11.78856v23.57712c0,6.51064,5.27792,11.78856,11.78852,11.78856h23.57712c6.51064,0,11.78856-5.27792,11.78856-11.78856v-23.57712c0-6.51064-5.27792-11.78856-11.78856-11.78856Zm10.15126,35.36568c0,5.59739-4.55387,10.15126-10.15126,10.15126h-23.57712c-5.59739,0-10.15126-4.55387-10.15126-10.15126v-23.57712c0-5.59739,4.55387-10.15126,10.15126-10.15126h23.57712c5.59739,0,10.15126,4.55387,10.15126,10.15126v23.57712Z"/><path class="uuid-98fac352-c9e4-40ff-bbee-a58264662bbf" d="m121.76066,138.21983h1.0102c.11233.58049.33732,1.121.65783,1.59372l-.71251.71259c-.31848.31976-.31848.83909,0,1.15889.1599.1599.36968.23919.57946.23919s.41956-.08057.57946-.23919l.71262-.7128c.47265.32019,1.01326.54468,1.59365.65683v1.01148c0,.45153.36712.81865.81865.81865s.81865-.36712.81865-.81865v-1.01148c.58042-.11215,1.12104-.33664,1.59365-.65683l.71266.7128c.1599.1599.36968.23919.57946.23919s.41956-.07929.57942-.23919c.31852-.3198.31852-.83912,0-1.15889l-.71248-.71259c.32051-.47272.54549-1.01323.65783-1.59372h1.01017c.45157,0,.81865-.36712.81865-.81865s-.36708-.81865-.81865-.81865h-1.01017c-.11226-.58096-.33732-1.12182-.65797-1.59486l.71262-.71269c.31852-.3198.31852-.83912,0-1.15892-.31976-.31976-.83909-.31723-1.15889,0l-.71273.71287c-.47265-.32015-1.01316-.54475-1.59358-.6569v-1.0102c0-.45153-.36712-.81865-.81865-.81865s-.81865.36712-.81865.81865v1.0102c-.58039.11215-1.1209.33675-1.59354.6569l-.71273-.71287c-.3198-.31976-.83912-.31976-1.15892,0-.31848.3198-.31848.83912,0,1.15892l.71266.71269c-.32065.47304-.54571,1.0139-.65797,1.59486h-1.0102c-.45153,0-.81865.36712-.81865.81865s.36712.81865.81865.81865Zm5.23936-3.49332c1.47487,0,2.6747,1.19983,2.6747,2.67467,0,1.47356-1.19983,2.67339-2.6747,2.67339s-2.67467-1.19983-2.67467-2.67339c0-1.47484,1.19983-2.67467,2.67467-2.67467Z"/><path class="uuid-98fac352-c9e4-40ff-bbee-a58264662bbf" d="m138.78858,150.99074h-5.23936c-.45153,0-.81865.36712-.81865.81865v5.23936c0,.45157.36712.81865.81865.81865h5.23936c.45153,0,.81865-.36708.81865-.81865v-5.23936c0-.45153-.36712-.81865-.81865-.81865Zm-.81865,5.23939h-3.60205v-3.60209h3.60205v3.60209Z"/><path class="uuid-98fac352-c9e4-40ff-bbee-a58264662bbf" d="m129.61971,150.99074h-5.23936c-.45153,0-.81865.36712-.81865.81865v5.23936c0,.45157.36712.81865.81865.81865h5.23936c.45153,0,.81865-.36708.81865-.81865v-5.23936c0-.45153-.36712-.81865-.81865-.81865Zm-.81865,5.23939h-3.60205v-3.60209h3.60205v3.60209Z"/><path class="uuid-98fac352-c9e4-40ff-bbee-a58264662bbf" d="m120.45085,150.99074h-5.23936c-.45157,0-.81865.36712-.81865.81865v5.23936c0,.45157.36708.81865.81865.81865h5.23936c.45153,0,.81865-.36708.81865-.81865v-5.23936c0-.45153-.36712-.81865-.81865-.81865Zm-.81865,5.23939h-3.60205v-3.60209h3.60205v3.60209Z"/><path class="uuid-98fac352-c9e4-40ff-bbee-a58264662bbf" d="m117.83115,148.69854h18.33776c.45153,0,.81865-.36712.81865-.81865s-.36712-.81865-.81865-.81865h-8.35025v-1.80101c0-.45153-.36712-.81865-.81865-.81865s-.81865.36712-.81865.81865v1.80101h-8.35021c-.45153,0-.81865.36712-.81865.81865s.36712.81865.81865.81865Z"/><path d="m225.14125,69.78114h2.98767c-.36206-1.31676-1.55751-2.29221-2.98767-2.29221-1.71535,0-3.11089,1.39555-3.11089,3.11086s1.39555,3.11089,3.11089,3.11089c1.43019,0,2.62561-.97545,2.98767-2.29224h-2.98767c-.45153,0-.81865-.36708-.81865-.81865,0-.45153.36712-.81865.81865-.81865Z"/><path d="m240.85932,51.77086c-1.43019,0-2.62561.97545-2.98767,2.29221h2.98767c.45153,0,.81865.36712.81865.81865s-.36712.81865-.81865.81865h-2.98767c.36206,1.31679,1.55748,2.29224,2.98767,2.29224,1.71531,0,3.11086-1.39555,3.11086-3.11089s-1.39555-3.11086-3.11086-3.11086Z"/><path d="m244.78854,39.16326h-23.57712c-6.51061,0-11.78852,5.27792-11.78852,11.78856v23.57712c0,6.51064,5.27792,11.78856,11.78852,11.78856h23.57712c6.51064,0,11.78856-5.27792,11.78856-11.78856v-23.57712c0-6.51064-5.27792-11.78856-11.78856-11.78856Zm-3.92922,20.46665c-2.33878,0-4.28288-1.70071-4.6725-3.92954h-8.42591c-1.71531,0-3.11086,1.39555-3.11086,3.11089s1.39555,3.11086,3.11086,3.11086h9.1689c2.61838,0,4.74816,2.12978,4.74816,4.74816s-2.12978,4.74816-4.74816,4.74816h-7.11606c-.38962,2.22883-2.33376,3.92954-4.6725,3.92954-2.61841,0-4.74819-2.12978-4.74819-4.74819s2.12978-4.74816,4.74819-4.74816c2.33874,0,4.28288,1.70071,4.6725,3.92951h7.11606c1.71531,0,3.11086-1.39551,3.11086-3.11086s-1.39555-3.11086-3.11086-3.11086h-9.1689c-2.61838,0-4.74816-2.12978-4.74816-4.74816s2.12978-4.74819,4.74816-4.74819h8.42591c.38962-2.2288,2.33372-3.92951,4.6725-3.92951,2.61838,0,4.74816,2.12978,4.74816,4.74816s-2.12978,4.74819-4.74816,4.74819Z"/><path d="m244.78854,121.6825h-23.57712c-6.51061,0-11.78852,5.27792-11.78852,11.78856v23.57712c0,6.51064,5.27792,11.78856,11.78852,11.78856h23.57712c6.51064,0,11.78856-5.27792,11.78856-11.78856v-23.57712c0-6.51064-5.27792-11.78856-11.78856-11.78856Zm10.15126,35.36568c0,5.59739-4.55387,10.15126-10.15126,10.15126h-23.57712c-5.59739,0-10.15126-4.55387-10.15126-10.15126v-23.57712c0-5.59739,4.55387-10.15126,10.15126-10.15126h23.57712c5.59739,0,10.15126,4.55387,10.15126,10.15126v23.57712Z"/><path d="m227.76066,138.21983h1.0102c.11233.58049.33732,1.121.65783,1.59372l-.71251.71259c-.31848.31976-.31848.83909,0,1.15889.1599.1599.36968.23919.57946.23919s.41956-.08057.57946-.23919l.71262-.7128c.47265.32019,1.01326.54468,1.59365.65683v1.01148c0,.45153.36712.81865.81865.81865s.81865-.36712.81865-.81865v-1.01148c.58042-.11215,1.12104-.33664,1.59365-.65683l.71266.7128c.1599.1599.36968.23919.57946.23919s.41956-.07929.57942-.23919c.31852-.3198.31852-.83912,0-1.15889l-.71248-.71259c.32051-.47272.54549-1.01323.65783-1.59372h1.01017c.45157,0,.81865-.36712.81865-.81865s-.36708-.81865-.81865-.81865h-1.01017c-.11226-.58096-.33732-1.12182-.65797-1.59486l.71262-.71269c.31852-.3198.31852-.83912,0-1.15892-.31976-.31976-.83909-.31723-1.15889,0l-.71273.71287c-.47265-.32015-1.01316-.54475-1.59358-.6569v-1.0102c0-.45153-.36712-.81865-.81865-.81865s-.81865.36712-.81865.81865v1.0102c-.58039.11215-1.1209.33675-1.59354.6569l-.71273-.71287c-.3198-.31976-.83912-.31976-1.15892,0-.31848.3198-.31848.83912,0,1.15892l.71266.71269c-.32065.47304-.54571,1.0139-.65797,1.59486h-1.0102c-.45153,0-.81865.36712-.81865.81865s.36712.81865.81865.81865Zm5.23936-3.49332c1.47487,0,2.6747,1.19983,2.6747,2.67467,0,1.47356-1.19983,2.67339-2.6747,2.67339s-2.67467-1.19983-2.67467-2.67339c0-1.47484,1.19983-2.67467,2.67467-2.67467Z"/><path d="m244.78858,150.99074h-5.23936c-.45153,0-.81865.36712-.81865.81865v5.23936c0,.45157.36712.81865.81865.81865h5.23936c.45153,0,.81865-.36708.81865-.81865v-5.23936c0-.45153-.36712-.81865-.81865-.81865Zm-.81865,5.23939h-3.60205v-3.60209h3.60205v3.60209Z"/><path d="m235.61971,150.99074h-5.23936c-.45153,0-.81865.36712-.81865.81865v5.23936c0,.45157.36712.81865.81865.81865h5.23936c.45153,0,.81865-.36708.81865-.81865v-5.23936c0-.45153-.36712-.81865-.81865-.81865Zm-.81865,5.23939h-3.60205v-3.60209h3.60205v3.60209Z"/><path d="m226.45085,150.99074h-5.23936c-.45157,0-.81865.36712-.81865.81865v5.23936c0,.45157.36708.81865.81865.81865h5.23936c.45153,0,.81865-.36708.81865-.81865v-5.23936c0-.45153-.36712-.81865-.81865-.81865Zm-.81865,5.23939h-3.60205v-3.60209h3.60205v3.60209Z"/><path d="m223.83115,148.69854h18.33776c.45153,0,.81865-.36712.81865-.81865s-.36712-.81865-.81865-.81865h-8.35025v-1.80101c0-.45153-.36712-.81865-.81865-.81865s-.81865.36712-.81865.81865v1.80101h-8.35021c-.45153,0-.81865.36712-.81865.81865s.36712.81865.81865.81865Z"/><path class="uuid-aeb323a8-3a1a-4ae8-bb90-c5649192a4bd" d="m299.14125,69.78114h2.98767c-.36206-1.31676-1.55751-2.29221-2.98767-2.29221-1.71535,0-3.11089,1.39555-3.11089,3.11086s1.39555,3.11089,3.11089,3.11089c1.43019,0,2.62561-.97545,2.98767-2.29224h-2.98767c-.45153,0-.81865-.36708-.81865-.81865,0-.45153.36712-.81865.81865-.81865Z"/><path class="uuid-aeb323a8-3a1a-4ae8-bb90-c5649192a4bd" d="m314.85932,51.77086c-1.43019,0-2.62561.97545-2.98767,2.29221h2.98767c.45153,0,.81865.36712.81865.81865s-.36712.81865-.81865.81865h-2.98767c.36206,1.31679,1.55748,2.29224,2.98767,2.29224,1.71531,0,3.11086-1.39555,3.11086-3.11089s-1.39555-3.11086-3.11086-3.11086Z"/><path class="uuid-aeb323a8-3a1a-4ae8-bb90-c5649192a4bd" d="m318.78854,39.16326h-23.57712c-6.51061,0-11.78852,5.27792-11.78852,11.78856v23.57712c0,6.51064,5.27792,11.78856,11.78852,11.78856h23.57712c6.51064,0,11.78856-5.27792,11.78856-11.78856v-23.57712c0-6.51064-5.27792-11.78856-11.78856-11.78856Zm-3.92922,20.46665c-2.33878,0-4.28288-1.70071-4.6725-3.92954h-8.42591c-1.71531,0-3.11086,1.39555-3.11086,3.11089s1.39555,3.11086,3.11086,3.11086h9.1689c2.61838,0,4.74816,2.12978,4.74816,4.74816s-2.12978,4.74816-4.74816,4.74816h-7.11606c-.38962,2.22883-2.33376,3.92954-4.6725,3.92954-2.61841,0-4.74819-2.12978-4.74819-4.74819s2.12978-4.74816,4.74819-4.74816c2.33874,0,4.28288,1.70071,4.6725,3.92951h7.11606c1.71531,0,3.11086-1.39551,3.11086-3.11086s-1.39555-3.11086-3.11086-3.11086h-9.1689c-2.61838,0-4.74816-2.12978-4.74816-4.74816s2.12978-4.74819,4.74816-4.74819h8.42591c.38962-2.2288,2.33372-3.92951,4.6725-3.92951,2.61838,0,4.74816,2.12978,4.74816,4.74816s-2.12978,4.74819-4.74816,4.74819Z"/><path class="uuid-aeb323a8-3a1a-4ae8-bb90-c5649192a4bd" d="m318.78854,121.6825h-23.57712c-6.51061,0-11.78852,5.27792-11.78852,11.78856v23.57712c0,6.51064,5.27792,11.78856,11.78852,11.78856h23.57712c6.51064,0,11.78856-5.27792,11.78856-11.78856v-23.57712c0-6.51064-5.27792-11.78856-11.78856-11.78856Zm10.15126,35.36568c0,5.59739-4.55387,10.15126-10.15126,10.15126h-23.57712c-5.59739,0-10.15126-4.55387-10.15126-10.15126v-23.57712c0-5.59739,4.55387-10.15126,10.15126-10.15126h23.57712c5.59739,0,10.15126,4.55387,10.15126,10.15126v23.57712Z"/><path class="uuid-aeb323a8-3a1a-4ae8-bb90-c5649192a4bd" d="m301.76066,138.21983h1.0102c.11233.58049.33732,1.121.65783,1.59372l-.71251.71259c-.31848.31976-.31848.83909,0,1.15889.1599.1599.36968.23919.57946.23919s.41956-.08057.57946-.23919l.71262-.7128c.47265.32019,1.01326.54468,1.59365.65683v1.01148c0,.45153.36712.81865.81865.81865s.81865-.36712.81865-.81865v-1.01148c.58042-.11215,1.12104-.33664,1.59365-.65683l.71266.7128c.1599.1599.36968.23919.57946.23919s.41956-.07929.57942-.23919c.31852-.3198.31852-.83912,0-1.15889l-.71248-.71259c.32051-.47272.54549-1.01323.65783-1.59372h1.01017c.45157,0,.81865-.36712.81865-.81865s-.36708-.81865-.81865-.81865h-1.01017c-.11226-.58096-.33732-1.12182-.65797-1.59486l.71262-.71269c.31852-.3198.31852-.83912,0-1.15892-.31976-.31976-.83909-.31723-1.15889,0l-.71273.71287c-.47265-.32015-1.01316-.54475-1.59358-.6569v-1.0102c0-.45153-.36712-.81865-.81865-.81865s-.81865.36712-.81865.81865v1.0102c-.58039.11215-1.1209.33675-1.59354.6569l-.71273-.71287c-.3198-.31976-.83912-.31976-1.15892,0-.31848.3198-.31848.83912,0,1.15892l.71266.71269c-.32065.47304-.54571,1.0139-.65797,1.59486h-1.0102c-.45153,0-.81865.36712-.81865.81865s.36712.81865.81865.81865Zm5.23936-3.49332c1.47487,0,2.6747,1.19983,2.6747,2.67467,0,1.47356-1.19983,2.67339-2.6747,2.67339s-2.67467-1.19983-2.67467-2.67339c0-1.47484,1.19983-2.67467,2.67467-2.67467Z"/><path class="uuid-aeb323a8-3a1a-4ae8-bb90-c5649192a4bd" d="m318.78858,150.99074h-5.23936c-.45153,0-.81865.36712-.81865.81865v5.23936c0,.45157.36712.81865.81865.81865h5.23936c.45153,0,.81865-.36708.81865-.81865v-5.23936c0-.45153-.36712-.81865-.81865-.81865Zm-.81865,5.23939h-3.60205v-3.60209h3.60205v3.60209Z"/><path class="uuid-aeb323a8-3a1a-4ae8-bb90-c5649192a4bd" d="m309.61971,150.99074h-5.23936c-.45153,0-.81865.36712-.81865.81865v5.23936c0,.45157.36712.81865.81865.81865h5.23936c.45153,0,.81865-.36708.81865-.81865v-5.23936c0-.45153-.36712-.81865-.81865-.81865Zm-.81865,5.23939h-3.60205v-3.60209h3.60205v3.60209Z"/><path class="uuid-aeb323a8-3a1a-4ae8-bb90-c5649192a4bd" d="m300.45085,150.99074h-5.23936c-.45157,0-.81865.36712-.81865.81865v5.23936c0,.45157.36708.81865.81865.81865h5.23936c.45153,0,.81865-.36708.81865-.81865v-5.23936c0-.45153-.36712-.81865-.81865-.81865Zm-.81865,5.23939h-3.60205v-3.60209h3.60205v3.60209Z"/><path class="uuid-aeb323a8-3a1a-4ae8-bb90-c5649192a4bd" d="m297.83115,148.69854h18.33776c.45153,0,.81865-.36712.81865-.81865s-.36712-.81865-.81865-.81865h-8.35025v-1.80101c0-.45153-.36712-.81865-.81865-.81865s-.81865.36712-.81865.81865v1.80101h-8.35021c-.45153,0-.81865.36712-.81865.81865s.36712.81865.81865.81865Z"/></svg>