<?xml version="1.0" encoding="UTF-8"?><svg id="uuid-2cf6606d-e51c-479e-93d4-eb2ca057bfbc" xmlns="http://www.w3.org/2000/svg" viewBox="0 0 262 180"><defs><style>.uuid-5ed85359-898a-448d-b6c9-44cc26f6ee7e{fill:#f3f3f3;}.uuid-8552534a-5a99-4321-bf74-322458b76d9c{fill:#fff;}.uuid-a3bf3ecb-44dd-4188-aeff-3070c3cf8589{fill:#e0e0e0;}</style></defs><rect class="uuid-5ed85359-898a-448d-b6c9-44cc26f6ee7e" x="0" width="262" height="180"/><rect x="145.36414" y="55.67804" width="68.64393" height="68.64393"/><path class="uuid-a3bf3ecb-44dd-4188-aeff-3070c3cf8589" d="m84.67027,85.33917c-.23535-.12012-.47852-.22168-.72754-.30371v-13.19629c3.71289.3252,7.16699,1.76172,10.04785,4.17969l-9.32031,9.32031Z"/><path d="m84.44237,72.39295c3.22487.38269,6.23363,1.6347,8.80362,3.66327l-8.68129,8.68127c-.04059-.01752-.08141-.03455-.12233-.05109v-12.29346m-1-1.0921v14.11035c.47067.11603.91061.30316,1.3145.54834l9.96835-9.96832c-3.1498-2.79584-7.08127-4.44275-11.28285-4.69037h0Z"/><path class="uuid-a3bf3ecb-44dd-4188-aeff-3070c3cf8589" d="m82.31383,91.98273c-1.09277,0-1.98242-.88965-1.98242-1.98242,0-1.09375.88965-1.9834,1.98242-1.9834s1.98242.88965,1.98242,1.9834c0,1.09277-.88965,1.98242-1.98242,1.98242Z"/><path d="m82.3139,88.51734c.81754,0,1.48264.6651,1.48264,1.48267s-.6651,1.48267-1.48264,1.48267-1.48264-.6651-1.48264-1.48267.6651-1.48267,1.48264-1.48267m0-1c-1.36827,0-2.48264,1.11438-2.48264,2.48267s1.11436,2.48267,2.48264,2.48267,2.48264-1.11438,2.48264-2.48267-1.11436-2.48267-2.48264-2.48267h0Z"/><path class="uuid-a3bf3ecb-44dd-4188-aeff-3070c3cf8589" d="m66.06383,122.00031c-8.68457,0-15.75-7.06543-15.75-15.75v-32.5c0-8.68457,7.06543-15.75,15.75-15.75h32.5c8.68457,0,15.75,7.06543,15.75,15.75v32.5c0,8.68457-7.06543,15.75-15.75,15.75h-32.5Zm10.83496-50.8584c-.16504,0-.3291.02441-.48828.07422-8.24316,2.58984-13.78027,10.13867-13.78027,18.78418,0,10.85352,8.83008,19.68359,19.68359,19.68359,10.85449,0,19.68457-8.83008,19.68457-19.68359,0-3.45898-.91113-6.86328-2.63477-9.84277-.29004-.50195-.83105-.81445-1.41113-.81445-.28613,0-.56738.07617-.81445.2207-.375.2168-.64453.56836-.75684.9873-.11328.4209-.05469.85938.16309,1.23633,1.43652,2.48438,2.19629,5.32422,2.19629,8.21289,0,9.05762-7.36914,16.42676-16.42676,16.42676s-16.42676-7.36914-16.42676-16.42676c0-7.2168,4.62109-13.51562,11.49805-15.6748.85742-.26953,1.33594-1.18652,1.06641-2.04199-.21484-.68359-.83887-1.1416-1.55273-1.1416Zm-.00293,7.8457c-.28418,0-.56543.0752-.8125.21875-3.84375,2.2207-6.23145,6.35645-6.23145,10.79395,0,6.87109,5.59082,12.46191,12.46191,12.46191s12.46191-5.59082,12.46191-12.46191c0-1.42773-.23926-2.82617-.71094-4.15527-.23242-.64941-.84863-1.08496-1.53418-1.08496-.18555,0-.36816.03223-.54492.09375-.41016.14551-.73828.44238-.92578.83496-.18652.39258-.20898.83496-.06445,1.24414.34766.97949.52344,2.01074.52344,3.06738,0,5.0752-4.12891,9.2041-9.20508,9.2041s-9.20508-4.12891-9.20508-9.2041c0-3.27637,1.76367-6.33105,4.60254-7.97461.77734-.44922,1.04492-1.44727.5957-2.22363-.29297-.50293-.83301-.81445-1.41113-.81445Zm3.79004,6.04688c-2.14551.70117-3.61133,2.68945-3.61133,4.96582,0,2.88867,2.35059,5.23926,5.23926,5.23926s5.23926-2.35059,5.23926-5.23926c0-.80859-.19922-1.61523-.57812-2.35645l10.53516-10.53613c.15625-.15625.27637-.33789.35742-.54199.12012-.29395.13965-.6377.05273-.99121-.07617-.31836-.20996-.57031-.41016-.77051l-.06152-.05957c-4.05371-4.02148-9.4248-6.23438-15.13477-6.23438-.89746,0-1.62793.73047-1.62793,1.62891v14.89551Z"/><path d="m98.5639,58.5c8.40887,0,15.25,6.84113,15.25,15.25v32.5c0,8.40887-6.84113,15.25-15.25,15.25h-32.5c-8.40887,0-15.25-6.84113-15.25-15.25v-32.5c0-8.40887,6.84113-15.25,15.25-15.25h32.5m-18.37848,26.1839c-2.16074.85986-3.61111,2.94562-3.61111,5.3161,0,3.16479,2.57477,5.73956,5.73959,5.73956s5.73958-2.57477,5.73958-5.73956c0-.76807-.16302-1.53406-.47595-2.25195l10.28793-10.2879c.20226-.20312.35902-.44061.46498-.70349.16068-.39569.18707-.84552.07686-1.29865-.09747-.40466-.27977-.74335-.54738-1.01202l-.10674-.10449-.0015-.00079c-4.14168-4.08337-9.61804-6.33026-15.43779-6.33026-1.17365,0-2.12848.95483-2.12848,2.12848v14.54498m2.12848,25.50012c11.12952,0,20.18402-9.0545,20.18402-20.18402,0-3.54822-.93425-7.03827-2.70096-10.09155-.37885-.65704-1.08569-1.06512-1.84468-1.06512-.37386,0-.7424.09955-1.06343.28644-1.01605.58777-1.36482,1.89203-.7776,2.90717,1.39328,2.4101,2.12973,5.1637,2.12973,7.96307,0,8.78223-7.14485,15.92706-15.92708,15.92706s-15.92709-7.14484-15.92709-15.92706c0-6.99652,4.48024-13.10376,11.149-15.19733,1.12013-.35229,1.7449-1.54999,1.39268-2.66986-.28047-.89172-1.09613-1.49091-2.02966-1.49091-.21574,0-.43033.03284-.63988.09814-8.45103,2.65503-14.12909,10.39496-14.12909,19.25995,0,11.12952,9.05452,20.18402,20.18404,20.18402m0-7.22223c7.14717,0,12.96181-5.81464,12.96181-12.96179,0-1.48523-.24896-2.93964-.74069-4.32495-.30234-.84607-1.10791-1.41449-2.00458-1.41449-.24203,0-.48119.04114-.71159.12256-.53595.18982-.96574.57727-1.21021,1.09094-.24417.51306-.27412,1.09058-.08417,1.62665.32799.92413.49429,1.89954.49429,2.89929,0,4.79987-3.90498,8.70483-8.70486,8.70483s-8.70486-3.90497-8.70486-8.70483c0-3.09796,1.66808-5.98773,4.35318-7.5415,1.01602-.58777,1.36479-1.89203.77625-2.90948-.38084-.65472-1.08691-1.06146-1.8427-1.06146-.37221,0-.73994.09894-1.06314.28589-3.99734,2.31012-6.48053,6.61188-6.48053,11.22656,0,7.14716,5.81464,12.96179,12.96181,12.96179m16.25-45.46179h-32.5c-8.97467,0-16.25,7.27533-16.25,16.25v32.5c0,8.97455,7.27533,16.25,16.25,16.25h32.5c8.97466,0,16.25-7.27545,16.25-16.25v-32.5c0-8.97467-7.27534-16.25-16.25-16.25h0Zm-16.25,37.23956c-2.61313,0-4.73959-2.12646-4.73959-4.73956,0-2.22235,1.54372-4.07916,3.61111-4.58881v-15.27228c0-.62244.50606-1.12848,1.12848-1.12848,5.60312,0,10.87125,2.18134,14.83632,6.14221.00198.00189.00462.00244.00661.00439.15143.1521.23132.34021.27827.53516.05565.22876.05818.46814-.03119.68823-.05489.13617-.13721.26379-.24709.37415l-10.80247,10.80243c.43454.71588.69913,1.54626.69913,2.44299,0,2.6131-2.12646,4.73956-4.73958,4.73956h0Zm0,14.44446c-10.57767,0-19.18404-8.60638-19.18404-19.18402,0-8.42651,5.39728-15.78271,13.42882-18.30591.11336-.03534.22784-.05219.34015-.05219.48164,0,.92418.30908,1.07574.79095.18689.59424-.14459,1.229-.7388,1.41589-7.08823,2.22522-11.84897,8.7157-11.84897,16.15125,0,9.33282,7.59427,16.92706,16.92709,16.92706s16.92708-7.59424,16.92708-16.92706c0-2.97461-.78288-5.90155-2.26399-8.46356-.3121-.53955-.12695-1.22894.4126-1.54108.1769-.10297.37094-.15204.5627-.15204.38927,0,.76927.20203.97836.56464,1.68037,2.90405,2.56728,6.2207,2.56728,9.59204,0,10.57764-8.60635,19.18402-19.18402,19.18402h0Zm0-7.22223c-6.59628,0-11.96181-5.36554-11.96181-11.96179,0-4.25824,2.29221-8.229,5.9809-10.36078.17773-.10278.37155-.15167.56277-.15167.38928,0,.76784.20245.9783.56427.31209.53955.12695,1.22894-.4126,1.54108-2.99222,1.73151-4.85243,4.95294-4.85243,8.4071,0,5.35144,4.35344,9.70483,9.70486,9.70483s9.70486-4.35339,9.70486-9.70483c0-1.11261-.18515-2.2005-.5519-3.23376-.20807-.58716.09874-1.23254.6859-1.44055.12505-.04419.25249-.06512.37767-.06512.46434,0,.89763.28851,1.0629.75098.45314,1.27661.68237,2.61841.68237,3.98846,0,6.59625-5.36554,11.96179-11.96181,11.96179h0Z"/><path class="uuid-8552534a-5a99-4321-bf74-322458b76d9c" d="m195.9361,57.5h-32.5c-8.97466,0-16.25,7.27545-16.25,16.25v32.5c0,8.97466,7.27534,16.25,16.25,16.25h32.5c8.97466,0,16.25-7.27534,16.25-16.25v-32.5c0-8.97455-7.27534-16.25-16.25-16.25Zm13.99306,48.75c0,7.71582-6.27735,13.99306-13.99306,13.99306h-32.5c-7.71571,0-13.99306-6.27724-13.99306-13.99306v-32.5c0-7.71582,6.27735-13.99306,13.99306-13.99306h32.5c7.71571,0,13.99306,6.27724,13.99306,13.99306v32.5Z"/><path class="uuid-8552534a-5a99-4321-bf74-322458b76d9c" d="m195.9361,78.03808h-19.86111c-.62242,0-1.12847.50605-1.12847,1.12847s.50605,1.12847,1.12847,1.12847h18.73264v19.40972h-28.4375v-6.09375c0-.62242-.50605-1.12847-1.12847-1.12847s-1.12847.50605-1.12847,1.12847v7.22222c0,.62242.50605,1.12847,1.12847,1.12847h30.69444c.62242,0,1.12847-.50605,1.12847-1.12847v-21.66667c0-.62242-.50605-1.12847-1.12847-1.12847Z"/><path class="uuid-8552534a-5a99-4321-bf74-322458b76d9c" d="m190.51943,85.7117c.62242,0,1.12847-.50605,1.12847-1.12847s-.50605-1.12847-1.12847-1.12847h-1.80556c-.62242,0-1.12847.50605-1.12847,1.12847s.50605,1.12847,1.12847,1.12847h1.80556Z"/><path class="uuid-8552534a-5a99-4321-bf74-322458b76d9c" d="m183.29721,83.45475h-5.41667c-.62242,0-1.12847.50605-1.12847,1.12847s.50605,1.12847,1.12847,1.12847h5.41667c.62242,0,1.12847-.50605,1.12847-1.12847s-.50605-1.12847-1.12847-1.12847Z"/><path class="uuid-8552534a-5a99-4321-bf74-322458b76d9c" d="m182.16874,89.99989c0,.62242.50605,1.12847,1.12847,1.12847h7.22222c.62242,0,1.12847-.50605,1.12847-1.12847s-.50605-1.12847-1.12847-1.12847h-7.22222c-.62242,0-1.12847.50605-1.12847,1.12847Z"/><path class="uuid-8552534a-5a99-4321-bf74-322458b76d9c" d="m174.94652,89.99989c0,.62242.50605,1.12847,1.12847,1.12847h1.80556c.62242,0,1.12847-.50605,1.12847-1.12847s-.50605-1.12847-1.12847-1.12847h-1.80556c-.62242,0-1.12847.50605-1.12847,1.12847Z"/><path class="uuid-8552534a-5a99-4321-bf74-322458b76d9c" d="m190.51943,94.28808h-1.80556c-.62242,0-1.12847.50605-1.12847,1.12847s.50605,1.12847,1.12847,1.12847h1.80556c.62242,0,1.12847-.50605,1.12847-1.12847s-.50605-1.12847-1.12847-1.12847Z"/><path class="uuid-8552534a-5a99-4321-bf74-322458b76d9c" d="m177.88054,94.28808c-.62242,0-1.12847.50605-1.12847,1.12847s.50605,1.12847,1.12847,1.12847h5.41667c.62242,0,1.12847-.50605,1.12847-1.12847s-.50605-1.12847-1.12847-1.12847h-5.41667Z"/><path class="uuid-8552534a-5a99-4321-bf74-322458b76d9c" d="m172.46388,94.28808h-1.80556c-.62242,0-1.12847.50605-1.12847,1.12847s.50605,1.12847,1.12847,1.12847h1.80556c.62242,0,1.12847-.50605,1.12847-1.12847s-.50605-1.12847-1.12847-1.12847Z"/><path class="uuid-8552534a-5a99-4321-bf74-322458b76d9c" d="m165.91874,89.99989c0,.62242.50605,1.12847,1.12847,1.12847s1.12847-.50605,1.12847-1.12847v-1.39252c.80051-.15472,1.54592-.46461,2.19744-.90619l.98168.98157c.2204.2204.50958.32973.79875.32973s.57834-.10932.79875-.32973c.43905-.44081.43905-1.15668,0-1.59749l-.98168-.98157c.44169-.65174.75158-1.39715.9063-2.19755h1.39252c.62242,0,1.12847-.50605,1.12847-1.12847s-.50605-1.12847-1.12847-1.12847h-1.39252c-.15472-.8004-.46461-1.54581-.9063-2.19755l.98168-.98157c.43905-.44081.43905-1.15668,0-1.59749-.44081-.44081-1.15668-.44081-1.59749,0l-.98168.98157c-.65152-.44158-1.39693-.75147-2.19744-.90619v-1.39252c0-.62242-.50605-1.12847-1.12847-1.12847s-1.12847.50605-1.12847,1.12847v1.39252c-.80051.15472-1.54592.46461-2.19744.90619l-.98168-.98157c-.44081-.44081-1.15668-.44081-1.59749,0-.43905.44081-.43905,1.15668,0,1.59749l.98168.98157c-.44169.65174-.75158,1.39715-.9063,2.19755h-1.39252c-.62242,0-1.12847.50605-1.12847,1.12847s.50605,1.12847,1.12847,1.12847h1.39252c.15472.8004.46461,1.54581.9063,2.19755l-.98168.98157c-.43905.44081-.43905,1.15668,0,1.59749.2204.2204.50958.32973.79875.32973s.57834-.10932.79875-.32973l.98168-.98157c.65152.44158,1.39693.75147,2.19744.90619v1.39252Zm-2.55846-7.22222c0-2.03301,1.65392-3.68693,3.68693-3.68693s3.68693,1.65392,3.68693,3.68693-1.65392,3.68693-3.68693,3.68693-3.68693-1.65392-3.68693-3.68693Z"/></svg>