<?xml version="1.0" encoding="UTF-8"?><svg id="uuid-d7b34ffa-689d-4478-bfe9-cbd1626b825a" xmlns="http://www.w3.org/2000/svg" viewBox="0 0 262 180"><defs><style>.uuid-2a3dca5c-a963-4972-b850-4e7a9c67bdd6{fill:#f3f3f3;}.uuid-a48f63a9-785c-4e1b-a79b-fe21cf757c17{fill:#ed0000;}.uuid-bbea9544-aec0-4fd7-9448-9266c29e93a4{fill:#e00;}.uuid-12073d56-a83f-41b9-ab24-77a533b8b0e5{fill:#fff;}.uuid-6ea44115-a14e-43b0-b22f-c3fcae3e01cb{fill:#dfdfdf;}.uuid-8bbaac81-1851-424f-beb5-bec1699d6c46{fill:#4d4d4d;}</style></defs><rect class="uuid-2a3dca5c-a963-4972-b850-4e7a9c67bdd6" width="262" height="180"/><path class="uuid-12073d56-a83f-41b9-ab24-77a533b8b0e5" d="m195.9361,57.50001h-32.49999c-8.97462,0-16.25,7.27538-16.25,16.25v32.5c0,8.97464,7.27538,16.25,16.25,16.25h32.49999c8.97462,0,16.25-7.27536,16.25-16.25v-32.5c0-8.97462-7.27537-16.25-16.25-16.25h0Z"/><path class="uuid-6ea44115-a14e-43b0-b22f-c3fcae3e01cb" d="m195.93609,59.75695c7.71576,0,13.99305,6.27735,13.99305,13.99305v32.49999c0,7.71571-6.27729,13.99305-13.99305,13.99305h-32.49999c-7.71576,0-13.99305-6.27735-13.99305-13.99305v-32.49999c0-7.71571,6.27729-13.99305,13.99305-13.99305h32.49999m0-2.25694h-32.49999c-8.9746,0-16.25,7.27534-16.25,16.25v32.49999c0,8.97466,7.27539,16.25,16.25,16.25h32.49999c8.97466,0,16.25-7.27534,16.25-16.25v-32.49999c0-8.97466-7.27534-16.25-16.25-16.25h0Z"/><path class="uuid-bbea9544-aec0-4fd7-9448-9266c29e93a4" d="m179.68659,87.51736c-.62242,0-1.12847-.50605-1.12847-1.12847v-14.44444c0-.62242.50605-1.12847,1.12847-1.12847s1.12847.50605,1.12847,1.12847v14.44444c0,.62242-.50605,1.12847-1.12847,1.12847Z"/><path class="uuid-bbea9544-aec0-4fd7-9448-9266c29e93a4" d="m186.90881,80.29514h-14.44444c-.62242,0-1.12847-.50605-1.12847-1.12847s.50605-1.12847,1.12847-1.12847h14.44444c.62242,0,1.12847.50605,1.12847,1.12847s-.50605,1.12847-1.12847,1.12847Z"/><line class="uuid-12073d56-a83f-41b9-ab24-77a533b8b0e5" x1="184.79299" y1="74.05979" x2="174.57923" y2="84.27355"/><path class="uuid-bbea9544-aec0-4fd7-9448-9266c29e93a4" d="m174.57849,85.40147c-.28917,0-.57834-.10932-.79875-.32973-.44081-.44081-.43905-1.15668,0-1.59749l10.21443-10.21267c.44081-.44081,1.15668-.44081,1.59749,0,.43905.44081.43905,1.15668,0,1.59749l-10.21443,10.21267c-.2204.2204-.50958.32973-.79875.32973Z"/><line class="uuid-12073d56-a83f-41b9-ab24-77a533b8b0e5" x1="174.57923" y1="74.05979" x2="184.79299" y2="84.27355"/><path class="uuid-bbea9544-aec0-4fd7-9448-9266c29e93a4" d="m184.79292,85.40147c-.28917,0-.57834-.10932-.79875-.32973l-10.21443-10.21267c-.43905-.44081-.44081-1.15668,0-1.59749.44081-.43728,1.15668-.44081,1.59749,0l10.21443,10.21267c.43905.44081.43905,1.15668,0,1.59749-.2204.21864-.50958.32973-.79875.32973Z"/><circle class="uuid-12073d56-a83f-41b9-ab24-77a533b8b0e5" cx="179.68611" cy="79.16667" r="4.81481"/><path class="uuid-bbea9544-aec0-4fd7-9448-9266c29e93a4" d="m179.68659,85.11054c-3.27786,0-5.94387-2.66602-5.94387-5.94387s2.66602-5.94387,5.94387-5.94387c3.2761,0,5.94211,2.66602,5.94211,5.94387s-2.66602,5.94387-5.94211,5.94387Zm0-9.6308c-2.03301,0-3.68693,1.65392-3.68693,3.68693s1.65392,3.68693,3.68693,3.68693c2.03125,0,3.68517-1.65392,3.68517-3.68693s-1.65392-3.68693-3.68517-3.68693Z"/><rect class="uuid-12073d56-a83f-41b9-ab24-77a533b8b0e5" x="188.71388" y="99.02777" width="7.22222" height="7.22222"/><path class="uuid-bbea9544-aec0-4fd7-9448-9266c29e93a4" d="m195.93659,107.37846h-7.22222c-.62242,0-1.12847-.50605-1.12847-1.12847v-7.22222c0-.62242.50605-1.12847,1.12847-1.12847h7.22222c.62242,0,1.12847.50605,1.12847,1.12847v7.22222c0,.62242-.50605,1.12847-1.12847,1.12847Zm-6.09375-2.25694h4.96528v-4.96528h-4.96528v4.96528Z"/><rect class="uuid-12073d56-a83f-41b9-ab24-77a533b8b0e5" x="176.075" y="99.02777" width="7.22222" height="7.22222"/><path class="uuid-bbea9544-aec0-4fd7-9448-9266c29e93a4" d="m183.2977,107.37846h-7.22222c-.62242,0-1.12847-.50605-1.12847-1.12847v-7.22222c0-.62242.50605-1.12847,1.12847-1.12847h7.22222c.62242,0,1.12847.50605,1.12847,1.12847v7.22222c0,.62242-.50605,1.12847-1.12847,1.12847Zm-6.09375-2.25694h4.96528v-4.96528h-4.96528v4.96528Z"/><rect class="uuid-12073d56-a83f-41b9-ab24-77a533b8b0e5" x="163.43611" y="99.02777" width="7.22222" height="7.22222"/><path class="uuid-bbea9544-aec0-4fd7-9448-9266c29e93a4" d="m170.65881,107.37846h-7.22222c-.62242,0-1.12847-.50605-1.12847-1.12847v-7.22222c0-.62242.50605-1.12847,1.12847-1.12847h7.22222c.62242,0,1.12847.50605,1.12847,1.12847v7.22222c0,.62242-.50605,1.12847-1.12847,1.12847Zm-6.09375-2.25694h4.96528v-4.96528h-4.96528v4.96528Z"/><path d="m179.68659,94.73958c-.62242,0-1.12847-.50605-1.12847-1.12847v-3.61111c0-.62242.50605-1.12847,1.12847-1.12847s1.12847.50605,1.12847,1.12847v3.61111c0,.62242-.50605,1.12847-1.12847,1.12847Z"/><path d="m192.32548,94.73958h-25.27777c-.62242,0-1.12847-.50605-1.12847-1.12847s.50605-1.12847,1.12847-1.12847h25.27777c.62242,0,1.12847.50605,1.12847,1.12847s-.50605,1.12847-1.12847,1.12847Z"/><rect x="49.81392" y="57.50003" width="64.99998" height="64.99998" rx="16.25" ry="16.25"/><path class="uuid-8bbaac81-1851-424f-beb5-bec1699d6c46" d="m98.56389,59.75693c7.71576,0,13.99305,6.27735,13.99305,13.99305v32.49999c0,7.71571-6.27729,13.99305-13.99305,13.99305h-32.49999c-7.71576,0-13.99305-6.27735-13.99305-13.99305v-32.49999c0-7.71571,6.27729-13.99305,13.99305-13.99305h32.49999m0-2.25694h-32.49999c-8.9746,0-16.25,7.27534-16.25,16.25v32.49999c0,8.97466,7.27539,16.25,16.25,16.25h32.49999c8.97466,0,16.25-7.27534,16.25-16.25v-32.49999c0-8.97466-7.27534-16.25-16.25-16.25h0Z"/><path class="uuid-a48f63a9-785c-4e1b-a79b-fe21cf757c17" d="m98.56333,105.57333h-14.44444c-.62242,0-1.12847-.50605-1.12847-1.12847v-14.44444c0-.62242.50605-1.12847,1.12847-1.12847h14.44444c.62242,0,1.12847.50605,1.12847,1.12847v14.44444c0,.62242-.50605,1.12847-1.12847,1.12847Zm-13.31597-2.25694h12.1875v-12.1875h-12.1875v12.1875Z"/><path class="uuid-12073d56-a83f-41b9-ab24-77a533b8b0e5" d="m78.70223,98.35111h-7.22222c-4.60381,0-8.35069-3.74688-8.35069-8.35069,0-4.55797,3.67106-8.27487,8.20963-8.34893,1.87961-4.3552,6.18367-7.22398,10.97439-7.22398,5.86805,0,10.82804,4.19298,11.79606,9.96934.10403.61537-.31209,1.19724-.9257,1.29951-.61537.11285-1.19724-.31033-1.29951-.9257-.78464-4.68492-4.81011-8.08621-9.57085-8.08621-4.12421,0-7.80409,2.62193-9.15825,6.52398-.16927.48489-.61184.77582-1.15492.75467l-.29799-.0335c-.07406-.01058-.14635-.02292-.22217-.02292-3.36073,0-6.09375,2.73302-6.09375,6.09375s2.73302,6.09375,6.09375,6.09375h7.22222c.62242,0,1.12847.50605,1.12847,1.12847s-.50605,1.12847-1.12847,1.12847Z"/><path class="uuid-a48f63a9-785c-4e1b-a79b-fe21cf757c17" d="m94.96104,94.74529c-.16222,0-.3068-.03703-.45139-.08993-.12519-.05466-.25214-.14459-.3597-.25391-.19925-.19748-.3262-.48665-.3262-.79346,0-.14459.03703-.28917.08993-.43376.05466-.12695.14459-.25214.23627-.36146.10756-.10756.23451-.17985.3597-.23451.41612-.17985.92217-.08993,1.24661.23451.08993.10932.17985.23451.23451.36146.05466.14459.08993.28917.08993.43376s-.03526.28917-.08993.43376c-.05466.14282-.14459.26978-.23451.3597-.21688.21688-.50605.34383-.79522.34383Z"/><path class="uuid-a48f63a9-785c-4e1b-a79b-fe21cf757c17" d="m91.34993,94.74529c-.16222,0-.3068-.03703-.45139-.08993-.12519-.05466-.25214-.14459-.3597-.25391-.19925-.19748-.3262-.48665-.3262-.79346,0-.14459.03703-.28917.08993-.43376.05466-.12695.14459-.25214.23627-.36146.10756-.10756.23451-.17985.3597-.23451.41612-.17985.92217-.08993,1.24661.23451.08993.10932.17985.23451.23451.36146.05466.14459.08993.28917.08993.43376s-.03526.28917-.08993.43376c-.05466.14282-.14459.26978-.23451.3597-.21688.21688-.50605.34383-.79522.34383Z"/></svg>