<?xml version="1.0" encoding="UTF-8"?><svg id="uuid-ff720437-d9e0-4b15-88bb-e4c9e8a5490c" xmlns="http://www.w3.org/2000/svg" viewBox="0 0 262 180"><defs><style>.uuid-7c49302f-aa5f-429e-ae6f-2d8d10e8890b{fill:#f3f3f3;}.uuid-e94a5a5a-290a-472a-941a-89d7c7885327{fill:#689b7a;}.uuid-023fd9cd-0ca3-41fd-a060-e9555e6b633e{fill:#e00;}.uuid-c6440cb8-4789-43f8-9055-17c47e2ad7ed{fill:#ed1c24;}</style></defs><rect class="uuid-7c49302f-aa5f-429e-ae6f-2d8d10e8890b" width="262" height="180"/><g id="uuid-01bc46ab-7003-4c2c-919e-6e440fb2f1b1"><path id="uuid-82bfd0dd-282d-4190-9612-8d62e5fa7ae3" d="m166.3845,90.9406c-.75235.55628-1.67729.82834-2.61101.768h-2.18199v3.767h-2.17799v-10.48h4.5c.89885-.04572,1.78265.24401,2.48.813.66365.65792,1.00227,1.5757.925,2.507.09459.97104-.24854,1.93371-.936,2.626m-1.67101-3.774c-.33304-.25257-.74588-.37681-1.16299-.35h-1.97301v3.086h1.97301c.42079.02647.83609-.10673,1.16299-.373.30522-.3214.45749-.75853.418-1.2.04587-.43162-.10638-.86078-.414-1.167l-.004.004Z"/><path id="uuid-e06e5c0e-6b0e-4e26-8020-09ca4c3bf221" d="m171.5575,90.75961c.27652-.02242.54887-.08126.81-.175.25574-.0771.43213-.31092.436-.578.02675-.26572-.10474-.52244-.336-.656-.30876-.13957-.64671-.20236-.985-.183-.38145-.03526-.75874.1015-1.02901.373-.15753.20631-.25667.4512-.287.709h-1.955c.01445-.60222.21341-1.18549.57001-1.671.71576-.75403,1.74239-1.13088,2.776-1.019.78467-.01589,1.56181.15551,2.267.5.68585.3761,1.07744,1.12848.992,1.906v4.449c-.00511.1878.0372.37387.123.541.07608.10483.18001.18624.3.235v.3h-2.2c-.05801-.14192-.10158-.28934-.13-.44-.02266-.13867-.04134-.29533-.056-.47-.28345.30615-.61148.56776-.97301.776-.45538.25465-.97037.3834-1.492.373-.63725.02401-1.26067-.18985-1.74899-.6-.47377-.4363-.72699-1.06201-.69-1.705-.05852-.84413.37228-1.64702,1.108-2.065.55916-.27973,1.16682-.44947,1.78999-.5l.71001-.1Zm1.239.947c-.1185.07533-.2433.14024-.373.194-.17682.06339-.35933.10961-.545.138l-.46201.086c-.32367.04275-.63837.13729-.93201.28-.31123.17001-.49687.50392-.47701.858-.02632.28149.08327.55864.295.746.20135.15812.45213.23994.70799.231.43652.00582.86401-.12456,1.22301-.373.41682-.3393.63545-.8652.582-1.4l-.01898-.76Z"/><path id="uuid-b606e205-c82f-4c2e-8317-b48479acf75a" d="m180.61849,87.54661h.175v2.073c-.13,0-.243-.022-.343-.026s-.17799,0-.242,0c-.65573-.08056-1.29794.22999-1.642.794-.18253.43607-.26291.9081-.235,1.38v3.7h-2.03999v-7.742h1.93201v1.35c.21622-.39375.49292-.7511.82001-1.059.42432-.33198.95389-.50023,1.492-.474l.08298.004Z"/><path id="uuid-1717be49-0d78-4007-b6e5-5a02df379aaf" d="m181.18249,89.24761v-1.443h1.08099v-2.159h2.022v2.159h1.256v1.443h-1.256v4.1c-.02728.2054.01459.41403.119.593.2318.11138.49106.15274.746.119h.39999v1.514l-.959.037c-.69485.10859-1.40387-.0721-1.96201-.5-.25021-.29947-.37332-.68494-.343-1.074v-4.789h-1.10399Z"/><path id="uuid-893c2a5e-6aa9-4f71-9090-63bebf75d083" d="m193.0725,88.16961c.55159.54781.82582,1.31571.746,2.089v5.221h-2.073v-4.717c.01569-.32032-.04034-.6401-.164-.936-.2121-.41258-.65694-.65132-1.118-.6-.60892-.04681-1.17792.30648-1.40601.873-.1443.37547-.2123.77594-.2,1.178v4.2h-2.02499v-7.72h1.96201v1.118c.19794-.32614.45026-.61599.746-.857.46078-.32666,1.0166-.49189,1.58099-.47.70343-.02874,1.39441.1919,1.951.623"/><path id="uuid-5a286b1b-f17f-45cc-8767-5161151ad5bd" d="m200.76949,87.88261c.54599.2487,1.01027.64711,1.339,1.149.32463.4793.53502,1.02666.61501,1.6.06377.51069.08617,1.0257.067,1.54h-5.642c-.0331.64835.27333,1.26726.80901,1.634.33734.20149.72522.30245,1.118.291.40294.01659.79892-.10868,1.119-.354.174-.14752.31621-.32886.418-.533h2.07001c-.09235.5345-.35385,1.02525-.746,1.4-.76202.77893-1.82545,1.18744-2.91299,1.119-.99396.0124-1.96051-.32571-2.73-.955-.85504-.79309-1.2923-1.93891-1.183-3.1-.07594-1.13149.30888-2.24561,1.067-3.089.73508-.72629,1.73845-1.11518,2.771-1.074.6265-.00445,1.24683.12405,1.82001.377m-3.032,1.753c-.30428.33169-.49393.75236-.541,1.2h3.495c-.00447-.46501-.20013-.90768-.541-1.224-.33418-.28357-.76196-.43258-1.2-.418-.44603-.03139-.88504.124-1.21201.429l-.00099.013Z"/><path id="uuid-63d7cabe-9d9b-4e7a-b4bb-ae5215b36036" d="m208.1235,87.54661h.175v2.073c-.13,0-.243-.022-.343-.026s-.179,0-.242,0c-.65573-.08056-1.29794.22999-1.642.794-.18253.43607-.26291.9081-.235,1.38v3.7h-2.03999v-7.742h1.936v1.35c.215-.39346.49034-.7508.81599-1.059.42432-.33198.95389-.50023,1.492-.474l.08299.004Z"/><path id="uuid-f8b0c471-c967-4743-aa6e-ab8701dda03f" d="m214.6955,86.09261c1.98361-1.83029,5.07539-1.70601,6.90569.27761.04897.05307.09674.10721.14331.16239.41548.57213.6631,1.24883.715,1.954h-2.189c-.09921-.41179-.28198-.7988-.537-1.137-.44548-.47805-1.08319-.72909-1.735-.683-.74135-.02047-1.4402.34524-1.84599.966-.49788.81884-.73309,1.7705-.674,2.727-.06953.93565.18158,1.8671.71201,2.641.43102.56269,1.10329.8877,1.812.876.65898.04345,1.29829-.23447,1.716-.746.26285-.36371.44803-.77763.54401-1.216h2.175c-.14819,1.06572-.6563,2.04875-1.44,2.786-.80881.73105-1.8716,1.11654-2.961,1.074-1.3302.06754-2.62059-.46499-3.51601-1.451-.90733-1.12685-1.36353-2.55068-1.28-3.995-.10051-1.5497.42346-3.07514,1.455-4.236"/><path id="uuid-54033f57-02b4-436b-ac41-3093f0d95fc0" d="m230.2325,94.52861c-1.66116,1.61502-4.30583,1.61502-5.967,0-1.30681-1.72067-1.30681-4.10133,0-5.822,1.65265-1.63586,4.31435-1.63586,5.967,0,1.3075,1.72044,1.3075,4.10156,0,5.822m-1.61801-1.119c.6319-1.11396.6319-2.47804,0-3.592-.651-.75496-1.79074-.83925-2.5457-.18826-.00011.00009-.0002.00017-.00031.00026-.06726.0579-.1301.12074-.188.188-.64186,1.11131-.64186,2.48069,0,3.592.64522.75358,1.77853.84303,2.534.2.07166-.06149.13852-.12835.20001-.2"/><rect id="uuid-219b2c37-f697-4047-83e6-d00e7829895e" x="231.9435" y="93.35061" width="2.155" height="2.126"/><path id="uuid-c7b7a554-eccb-4f13-a36b-a38d567d9c3c" class="uuid-e94a5a5a-290a-472a-941a-89d7c7885327" d="m143.94649,80.42361c5.44-.00055,9.85045,4.40899,9.851,9.849.00055,5.44-4.409,9.85045-9.849,9.851s-9.85045-4.40899-9.851-9.849v-.002c0-5.43945,4.40955-9.849,9.849-9.849"/><path id="uuid-202a9fda-a165-4688-b8c6-2e007c452096" d="m58.9085,94.9366h2.487v-3.689h1.894l1.91,3.688h2.776l-2.227-4.05c1.15868-.47095,1.91446-1.59927,1.909-2.85-.0283-1.81514-1.5227-3.26366-3.33784-3.23537-.07951.00124-.15895.00536-.23816.01237h-5.168l-.005,10.124Zm4.95-8c.63099-.07711,1.20501.37189,1.28212,1.00288.07711.63099-.37189,1.20501-1.00288,1.28212-.09274.01133-.18651.01133-.27925,0h-2.457v-2.283l2.457-.002Zm4.036,4.179c.02776,2.2178,1.84814,3.99318,4.06594,3.96543.0327-.00041.06538-.00122.09806-.00243,1.17521.03781,2.32028-.37585,3.2-1.156l-1.549-1.375c-.41001.39416-.96384.60275-1.532.577-.81796.02307-1.56568-.45991-1.881-1.215h5.452v-.577c.16206-2.16387-1.46073-4.0494-3.6246-4.21146-2.16386-.16206-4.0494,1.46073-4.21146,3.62459-.00695.0928-.0106.18581-.01094.27887v.093m3.946-2.059c.74191.00982,1.39077.50213,1.6,1.214h-3.192c.17824-.72886.84094-1.23453,1.591-1.214m10.61,5.872h2.315v-10.628l-2.338.506v2.882c-1.882-1.09667-4.29668-.46004-5.39336,1.42195-1.09667,1.882-.46004,4.29669,1.42196,5.39336.56934.33177,1.21273.51559,1.87141.53469h.068c.73795.0033,1.45763-.22935,2.054-.664l.001.554Zm-3.655-3.828c-.00188-1.06922.86336-1.93753,1.93258-1.93941.02581-.00005.05162.00042.07742.00141.59537-.01316,1.17382.19858,1.62.593v2.669c-.43748.41031-1.02058.62915-1.62.608-1.07473.03482-1.97421-.8082-2.00903-1.88293-.00053-.01635-.00085-.03271-.00097-.04907m9.473,3.836h2.488v-3.966h4.165v3.964h2.488v-10.124h-2.485v3.89h-4.165v-3.89h-2.488l-.003,10.126Zm12.715.132c.74922.02653,1.4879-.18262,2.112-.598v.463h2.313v-4.9c0-1.866-1.259-2.888-3.354-2.888-1.23843.01696-2.45832.30326-3.575.839l.836,1.716c.72492-.34996,1.51068-.55641,2.314-.608.963,0,1.46.375,1.46,1.142v.376c-.56655-.14435-1.14937-.21493-1.734-.21-1.968,0-3.154.825-3.154,2.3.0472,1.36664,1.19334,2.43627,2.55998,2.38907.07256-.00251.14497-.0082.21702-.01707m-.717-2.422c0-.506.508-.753,1.273-.753.46832.0027.93464.06146,1.389.175v.983c-.44666.24345-.94835.3681-1.457.362-.753,0-1.2-.29-1.2-.767m7.284-.043c0,1.634.984,2.428,2.776,2.428.55213-.01315,1.10084-.09067,1.635-.231v-1.895c-.34155.10769-.69789.16101-1.056.158-.739,0-1.012-.231-1.012-.925v-2.907h2.14v-1.952h-2.138v-2.476l-2.338.506v1.97h-1.553v1.952h1.547l-.001,3.372Z"/><path id="uuid-fa294021-8a65-45bf-804b-d5f7231cd235" class="uuid-c6440cb8-4789-43f8-9055-17c47e2ad7ed" d="m49.8415,89.75561c.12717.45488.20693.9217.238,1.393,0,1.925-2.164,2.994-5.009,2.994-6.443,0-12.069-3.765-12.069-6.253-.00128-.34787.06884-.69231.206-1.012-2.313.121-5.306.536-5.306,3.175,0,4.328,10.257,9.663,18.379,9.663,6.227,0,7.8-2.817,7.8-5.039,0-1.749-1.513-3.737-4.24-4.922m-4.475,1.573c1.721,0,4.209-.357,4.209-2.4.00511-.15784-.00933-.31571-.043-.47l-1.025-4.45c-.236-.978-.444-1.423-2.163-2.283-1.61082-.82982-3.32632-1.43832-5.1-1.809-.8,0-1.038,1.039-1.987,1.039-.918,0-1.6-.771-2.46-.771-.825,0-1.363.563-1.778,1.72,0,0-1.156,3.261-1.305,3.733-.0248.08709-.03593.1775-.033.268,0,1.267,5,5.425,11.689,5.425"/><path id="uuid-50416a05-faa3-4c81-9ba8-7317d17d6541" d="m49.8375,89.7556c.12717.45488.20693.9217.238,1.393,0,1.925-2.165,2.994-5.01,2.994-6.438,0-12.065-3.764-12.065-6.253-.00047-.3467.07033-.6898.208-1.008l.5-1.246c-.02485.08675-.03631.17679-.034.267,0,1.267,5,5.425,11.689,5.425,1.721,0,4.209-.356,4.209-2.4.00511-.15784-.00933-.31571-.043-.47l.308,1.298Z"/><path id="uuid-290a6e0e-3c86-4620-8490-a1167d32d783" class="uuid-023fd9cd-0ca3-41fd-a060-e9555e6b633e" d="m49.8415,89.75561c.12717.45488.20693.9217.238,1.393,0,1.925-2.164,2.994-5.009,2.994-6.443,0-12.069-3.765-12.069-6.253-.00128-.34787.06884-.69231.206-1.012-2.313.121-5.306.536-5.306,3.175,0,4.328,10.257,9.663,18.379,9.663,6.227,0,7.8-2.817,7.8-5.039,0-1.749-1.513-3.737-4.24-4.922m-4.475,1.573c1.721,0,4.209-.357,4.209-2.4.00511-.15784-.00933-.31571-.043-.47l-1.025-4.45c-.236-.978-.444-1.423-2.163-2.283-1.61082-.82982-3.32632-1.43832-5.1-1.809-.8,0-1.038,1.039-1.987,1.039-.918,0-1.6-.771-2.46-.771-.825,0-1.363.563-1.778,1.72,0,0-1.156,3.261-1.305,3.733-.0248.08709-.03593.1775-.033.268,0,1.267,5,5.425,11.689,5.425"/><path id="uuid-dd366ca2-bf8f-4533-a821-ecc3a5e52dc6" d="m49.8375,89.7556c.12717.45488.20693.9217.238,1.393,0,1.925-2.165,2.994-5.01,2.994-6.438,0-12.065-3.764-12.065-6.253-.00047-.3467.07033-.6898.208-1.008l.5-1.246c-.02485.08675-.03631.17679-.034.267,0,1.267,5,5.425,11.689,5.425,1.721,0,4.209-.356,4.209-2.4.00511-.15784-.00933-.31571-.043-.47l.308,1.298Z"/><path id="uuid-a4fdd28f-6450-410f-b621-f1cc2f326d99" d="m123.0435,99.71061c-.16955,0-.307-.13745-.307-.307v-19.173c-.02384-.1701.09472-.32732.26482-.35116s.32732.09472.35116.26482c.00085.00609.00153.01221.00202.01835.0023.02261.0023.04539,0,.068v19.173c-.00219.17019-.14079.30701-.311.307"/></g></svg>