<?xml version="1.0" encoding="UTF-8"?><svg id="uuid-9f3da1c9-7280-48a7-8110-f4520d041792" xmlns="http://www.w3.org/2000/svg" viewBox="0 0 262 180"><defs><style>.uuid-a4ce90e2-a79f-40f0-8ceb-641bfb34cc3c{fill:#f3f3f3;}.uuid-b5aca90a-43c4-4763-ab30-420a48ee6e65{fill:#e00;}</style></defs><rect class="uuid-a4ce90e2-a79f-40f0-8ceb-641bfb34cc3c" width="262" height="180"/><path d="m94.72522,75.99119c-3.1498-2.79583-7.08127-4.4427-11.28285-4.69032v14.11031c.47067.11604.9106.30317,1.31449.54837l9.96835-9.96835Z"/><circle cx="82.3139" cy="90" r="2.48264"/><path d="m98.5639,57.5h-32.5c-8.97466,0-16.25,7.27534-16.25,16.25v32.5c0,8.97455,7.27534,16.25,16.25,16.25h32.5c8.97466,0,16.25-7.27545,16.25-16.25v-32.5c0-8.97466-7.27534-16.25-16.25-16.25Zm-17.37847,27.91117v-15.27228c0-.62242.50605-1.12847,1.12847-1.12847,5.60313,0,10.87124,2.18135,14.83632,6.14224.00198.00187.00463.00242.00661.00441.15142.15208.23131.34019.27826.53514.05565.22878.05819.46814-.03119.68821-.05488.13621-.1372.26382-.24707.37414l-10.80248,10.80248c.43453.71587.69912,1.54625.69912,2.44297,0,2.61312-2.12646,4.73958-4.73958,4.73958s-4.73958-2.12646-4.73958-4.73958c0-2.22234,1.54371-4.07914,3.61111-4.58883Zm1.12847,14.29369c5.35143,0,9.70486-4.35343,9.70486-9.70486,0-1.1126-.18514-2.20052-.55189-3.23378-.20806-.58716.09874-1.2325.6859-1.44057.58892-.20806,1.23074.09874,1.44057.6859.45315,1.27658.68237,2.61841.68237,3.98844,0,6.59627-5.36553,11.96181-11.96181,11.96181s-11.96181-5.36553-11.96181-11.96181c0-4.25822,2.29221-8.22903,5.9809-10.36079.53955-.31209,1.22721-.12695,1.54107.4126.31209.53955.12695,1.22898-.4126,1.54107-2.99221,1.7315-4.85243,4.95294-4.85243,8.40712,0,5.35143,4.35343,9.70486,9.70486,9.70486Zm0,9.47917c-10.57766,0-19.18403-8.60636-19.18403-19.18403,0-8.42651,5.39727-15.78274,13.42882-18.30594.5995-.1869,1.22898.14459,1.41588.7388s-.14459,1.22898-.7388,1.41588c-7.08822,2.22521-11.84896,8.71568-11.84896,16.15126,0,9.33282,7.59427,16.92708,16.92708,16.92708s16.92708-7.59427,16.92708-16.92708c0-2.97458-.78288-5.90156-2.264-8.46354-.31209-.53955-.12695-1.22898.4126-1.54107.53602-.31209,1.22898-.12872,1.54107.4126,1.68037,2.90405,2.56727,6.2207,2.56727,9.59201,0,10.57766-8.60636,19.18403-19.18403,19.18403Z"/><path class="uuid-b5aca90a-43c4-4763-ab30-420a48ee6e65" d="m195.9361,57.5h-32.5c-8.97466,0-16.25,7.27545-16.25,16.25v32.5c0,8.97466,7.27534,16.25,16.25,16.25h32.5c8.97466,0,16.25-7.27534,16.25-16.25v-32.5c0-8.97455-7.27534-16.25-16.25-16.25Zm13.99306,48.75c0,7.71582-6.27735,13.99306-13.99306,13.99306h-32.5c-7.71571,0-13.99306-6.27724-13.99306-13.99306v-32.5c0-7.71582,6.27735-13.99306,13.99306-13.99306h32.5c7.71571,0,13.99306,6.27724,13.99306,13.99306v32.5Z"/><path class="uuid-b5aca90a-43c4-4763-ab30-420a48ee6e65" d="m195.9361,78.03808h-19.86111c-.62242,0-1.12847.50605-1.12847,1.12847s.50605,1.12847,1.12847,1.12847h18.73264v19.40972h-28.4375v-6.09375c0-.62242-.50605-1.12847-1.12847-1.12847s-1.12847.50605-1.12847,1.12847v7.22222c0,.62242.50605,1.12847,1.12847,1.12847h30.69444c.62242,0,1.12847-.50605,1.12847-1.12847v-21.66667c0-.62242-.50605-1.12847-1.12847-1.12847Z"/><path class="uuid-b5aca90a-43c4-4763-ab30-420a48ee6e65" d="m190.51943,85.7117c.62242,0,1.12847-.50605,1.12847-1.12847s-.50605-1.12847-1.12847-1.12847h-1.80556c-.62242,0-1.12847.50605-1.12847,1.12847s.50605,1.12847,1.12847,1.12847h1.80556Z"/><path class="uuid-b5aca90a-43c4-4763-ab30-420a48ee6e65" d="m183.29721,83.45475h-5.41667c-.62242,0-1.12847.50605-1.12847,1.12847s.50605,1.12847,1.12847,1.12847h5.41667c.62242,0,1.12847-.50605,1.12847-1.12847s-.50605-1.12847-1.12847-1.12847Z"/><path class="uuid-b5aca90a-43c4-4763-ab30-420a48ee6e65" d="m182.16874,89.99989c0,.62242.50605,1.12847,1.12847,1.12847h7.22222c.62242,0,1.12847-.50605,1.12847-1.12847s-.50605-1.12847-1.12847-1.12847h-7.22222c-.62242,0-1.12847.50605-1.12847,1.12847Z"/><path class="uuid-b5aca90a-43c4-4763-ab30-420a48ee6e65" d="m174.94652,89.99989c0,.62242.50605,1.12847,1.12847,1.12847h1.80556c.62242,0,1.12847-.50605,1.12847-1.12847s-.50605-1.12847-1.12847-1.12847h-1.80556c-.62242,0-1.12847.50605-1.12847,1.12847Z"/><path class="uuid-b5aca90a-43c4-4763-ab30-420a48ee6e65" d="m190.51943,94.28808h-1.80556c-.62242,0-1.12847.50605-1.12847,1.12847s.50605,1.12847,1.12847,1.12847h1.80556c.62242,0,1.12847-.50605,1.12847-1.12847s-.50605-1.12847-1.12847-1.12847Z"/><path class="uuid-b5aca90a-43c4-4763-ab30-420a48ee6e65" d="m177.88054,94.28808c-.62242,0-1.12847.50605-1.12847,1.12847s.50605,1.12847,1.12847,1.12847h5.41667c.62242,0,1.12847-.50605,1.12847-1.12847s-.50605-1.12847-1.12847-1.12847h-5.41667Z"/><path class="uuid-b5aca90a-43c4-4763-ab30-420a48ee6e65" d="m172.46388,94.28808h-1.80556c-.62242,0-1.12847.50605-1.12847,1.12847s.50605,1.12847,1.12847,1.12847h1.80556c.62242,0,1.12847-.50605,1.12847-1.12847s-.50605-1.12847-1.12847-1.12847Z"/><path class="uuid-b5aca90a-43c4-4763-ab30-420a48ee6e65" d="m165.91874,89.99989c0,.62242.50605,1.12847,1.12847,1.12847s1.12847-.50605,1.12847-1.12847v-1.39252c.80051-.15472,1.54592-.46461,2.19744-.90619l.98168.98157c.2204.2204.50958.32973.79875.32973s.57834-.10932.79875-.32973c.43905-.44081.43905-1.15668,0-1.59749l-.98168-.98157c.44169-.65174.75158-1.39715.9063-2.19755h1.39252c.62242,0,1.12847-.50605,1.12847-1.12847s-.50605-1.12847-1.12847-1.12847h-1.39252c-.15472-.8004-.46461-1.54581-.9063-2.19755l.98168-.98157c.43905-.44081.43905-1.15668,0-1.59749-.44081-.44081-1.15668-.44081-1.59749,0l-.98168.98157c-.65152-.44158-1.39693-.75147-2.19744-.90619v-1.39252c0-.62242-.50605-1.12847-1.12847-1.12847s-1.12847.50605-1.12847,1.12847v1.39252c-.80051.15472-1.54592.46461-2.19744.90619l-.98168-.98157c-.44081-.44081-1.15668-.44081-1.59749,0-.43905.44081-.43905,1.15668,0,1.59749l.98168.98157c-.44169.65174-.75158,1.39715-.9063,2.19755h-1.39252c-.62242,0-1.12847.50605-1.12847,1.12847s.50605,1.12847,1.12847,1.12847h1.39252c.15472.8004.46461,1.54581.9063,2.19755l-.98168.98157c-.43905.44081-.43905,1.15668,0,1.59749.2204.2204.50958.32973.79875.32973s.57834-.10932.79875-.32973l.98168-.98157c.65152.44158,1.39693.75147,2.19744.90619v1.39252Zm-2.55846-7.22222c0-2.03301,1.65392-3.68693,3.68693-3.68693s3.68693,1.65392,3.68693,3.68693-1.65392,3.68693-3.68693,3.68693-3.68693-1.65392-3.68693-3.68693Z"/></svg>