<?xml version="1.0" encoding="UTF-8"?><svg id="uuid-d3374748-b3a4-45a0-b095-1ab84e6353b1" xmlns="http://www.w3.org/2000/svg" viewBox="0 0 262 180"><defs><style>.uuid-f1fa861f-1a6f-4483-9730-ba5a6568d74b{fill:none;}.uuid-610051ea-498b-489d-8f89-ffb93153a71d{fill:#f3f3f3;}.uuid-12032b6c-462d-48f5-9f44-029b8b44a527{fill:#e00;}.uuid-f52e1f72-b9c2-4b1a-ad86-3dd67569e6c3{fill:#fff;}.uuid-f292a323-2685-47c3-a7f9-c2df723f2e01{fill:#dfdfdf;}</style></defs><rect class="uuid-610051ea-498b-489d-8f89-ffb93153a71d" width="262" height="180"/><path class="uuid-f52e1f72-b9c2-4b1a-ad86-3dd67569e6c3" d="m104.21153,57.50001h-32.49999c-8.97462,0-16.25,7.27538-16.25,16.25v32.5c0,8.97464,7.27538,16.25,16.25,16.25h32.49999c8.97462,0,16.25-7.27536,16.25-16.25v-32.5c0-8.97462-7.27537-16.25-16.25-16.25h0Z"/><path class="uuid-f292a323-2685-47c3-a7f9-c2df723f2e01" d="m104.21152,59.75695c7.71576,0,13.99305,6.27735,13.99305,13.99305v32.49999c0,7.71571-6.27729,13.99305-13.99305,13.99305h-32.49999c-7.71576,0-13.99305-6.27735-13.99305-13.99305v-32.49999c0-7.71571,6.27729-13.99305,13.99305-13.99305h32.49999m0-2.25694h-32.49999c-8.9746,0-16.25,7.27534-16.25,16.25v32.49999c0,8.97466,7.27539,16.25,16.25,16.25h32.49999c8.97466,0,16.25-7.27534,16.25-16.25v-32.49999c0-8.97466-7.27534-16.25-16.25-16.25h0Z"/><g id="uuid-d542ac9d-4102-4291-87ed-819a4205484f"><g id="uuid-5e4d2926-357b-4082-9646-e7520458c1ab"><rect class="uuid-f1fa861f-1a6f-4483-9730-ba5a6568d74b" x="63.95459" y="63.99306" width="52.01388" height="52.01388"/></g><g id="uuid-33a93929-a7fd-422c-8f30-8cc43cd64a18"><path class="uuid-12032b6c-462d-48f5-9f44-029b8b44a527" d="m85.26583,70.31419h-8.66898c-.49803,0-.90302.40426-.90302.90302v8.66898c0,.49875.40499.90302.90302.90302h8.66898c.49803,0,.90302-.40426.90302-.90302v-8.66898c0-.49876-.40499-.90302-.90302-.90302Zm-.90302,8.66898h-6.86294v-6.86294h6.86294v6.86294Z"/><path class="uuid-12032b6c-462d-48f5-9f44-029b8b44a527" d="m85.26583,84.76249h-8.66898c-.49803,0-.90302.40426-.90302.90302v8.66898c0,.49875.40499.90302.90302.90302h8.66898c.49803,0,.90302-.40426.90302-.90302v-8.66898c0-.49875-.40499-.90302-.90302-.90302Zm-.90302,8.66898h-6.86294v-6.86294h6.86294v6.86294Z"/><rect class="uuid-12032b6c-462d-48f5-9f44-029b8b44a527" x="75.69383" y="99.21079" width="10.47502" height="10.47502" rx=".90302" ry=".90302"/><path class="uuid-12032b6c-462d-48f5-9f44-029b8b44a527" d="m98.99171,97.76596c-.49803,0-.90302.40426-.90302.90302v1.44483c0,1.89215-1.53932,3.43147-3.43147,3.43147h-2.15424l1.3486-1.34817c.35138-.35268.35138-.92411,0-1.27694-.35268-.35268-.92556-.35268-1.27839,0l-2.88966,2.88966c-.01864.01864-.02528.04335-.04176.06328-.05953.07051-.11645.14362-.15229.23002-.03988.0968-.05635.19968-.06126.30284-.00072.01488-.00852.02731-.00852.04233s.00795.02774.00867.04262c.00491.10302.02124.2056.06112.30255.03598.08684.09305.16038.15286.23117.01647.01951.02283.04392.04118.06227l2.88966,2.88966c.17641.17641.40773.26455.63919.26455s.46278-.08814.63919-.26455c.35138-.35268.35138-.92411,0-1.27694l-1.3486-1.34817h2.15424c2.88822,0,5.23751-2.34929,5.23751-5.23751v-1.44483c0-.49875-.40499-.90302-.90302-.90302v-.00015Z"/><path class="uuid-12032b6c-462d-48f5-9f44-029b8b44a527" d="m90.32273,76.45472h4.33449c1.89215,0,3.43147,1.53932,3.43147,3.43147v1.44483c0,.49875.40499.90302.90302.90302s.90302-.40426.90302-.90302v-1.44483c0-2.88821-2.34929-5.23751-5.23751-5.23751h-4.33449c-.49803,0-.90302.40426-.90302.90302s.40499.90302.90302.90302Z"/><path class="uuid-12032b6c-462d-48f5-9f44-029b8b44a527" d="m103.3262,89.09698h-.66245c-.0929-.37681-.24273-.72892-.43908-1.05227l.47087-.47087c.35138-.35268.35138-.92411,0-1.27694-.35268-.35268-.92556-.35268-1.27839,0l-.47015.47015c-.32335-.19635-.67546-.34618-1.05227-.43908v-.66245c0-.49875-.40499-.90302-.90302-.90302s-.90302.40426-.90302.90302v.66245c-.37681.0929-.72892.24273-1.05227.43908l-.47015-.47015c-.35268-.35268-.92556-.35268-1.27839,0-.35138.35268-.35138.92411,0,1.27694l.47087.47087c-.19635.32335-.34618.67546-.43908,1.05227h-.66245c-.49803,0-.90302.40426-.90302.90302s.40499.90302.90302.90302h.66245c.0929.37681.24288.72892.43923,1.05227l-.47087.47087c-.35138.35268-.35138.92411,0,1.27694.17641.17641.40773.26455.63919.26455s.46278-.08814.63919-.26455l.47015-.47015c.32335.19635.67546.34618,1.05227.43923v.66245c0,.49875.40499.90302.90302.90302s.90302-.40426.90302-.90302v-.66245c.37681-.0929.72892-.24273,1.05227-.43908l.47015.47015c.17641.17641.40773.26455.63919.26455s.46278-.08814.63919-.26455c.35138-.35268.35138-.92411,0-1.27694l-.47087-.47087c.19635-.32335.34618-.67546.43908-1.05227h.66245c.49803,0,.90302-.40426.90302-.90302s-.40499-.90302-.90302-.90302l-.00015-.00015Zm-6.32113.90302c0-1.09562.89175-1.98664,1.98664-1.98664s1.98664.89103,1.98664,1.98664-.89175,1.98664-1.98664,1.98664-1.98664-.89103-1.98664-1.98664Z"/></g></g><path d="m176.75819,99.91536c-.18425,0-.37269-.03769-.55065-.11934-.67419-.30359-.97569-1.09712-.67-1.77131l4.33195-9.60819c.00628-.01256.01256-.02512.01675-.03769l4.22727-9.36741c.43131-.96312,2.00999-.96312,2.44131,0l8.57598,19.01329c.25334.55694.09422,1.21437-.38315,1.59753-.47737.38106-1.14737.39153-1.64359.02513l-11.46953-8.62203-3.65567,8.1007c-.22194.49622-.70978.78934-1.22065.78934Zm6.00485-11.39416l7.78036,5.84782-5.20924-11.547-2.57112,5.69917Z"/><path class="uuid-12032b6c-462d-48f5-9f44-029b8b44a527" d="m185.33418,113.85131c-13.1529,0-23.85194-10.69902-23.85194-23.85192s10.69902-23.85194,23.85192-23.85194c13.1529,0,23.85194,10.69902,23.85194,23.85192,0,13.1529-10.69902,23.85194-23.85192,23.85194Zm-.00002-45.02387c-11.67472,0-21.17194,9.49723-21.17193,21.17195s9.49723,21.17194,21.17195,21.17193,21.17194-9.49723,21.17193-21.17195-9.49723-21.17194-21.17195-21.17193Z"/></svg>