<?xml version="1.0" encoding="UTF-8"?><svg id="uuid-900d4e7b-186a-4583-9dfd-00eee99930c2" xmlns="http://www.w3.org/2000/svg" viewBox="0 0 262 180"><defs><style>.uuid-67ace86a-6879-4b66-8c1e-115c1bc47bd7{fill:#f3f3f3;}.uuid-bc537c29-20f7-4aff-904b-6f750c567a54{fill:#e00;}.uuid-ba5205e4-8dd7-43db-900b-f99256a496eb{fill:#fff;}.uuid-6be6b753-bf6c-47b0-a927-25368acca7ec{fill:#4d4d4d;}</style></defs><rect class="uuid-67ace86a-6879-4b66-8c1e-115c1bc47bd7" width="262" height="180"/><g id="uuid-84655aca-9e59-4feb-9c1e-e3b89f1300fe"><path d="m110.87969,114.93976c-4.77928,0-8.52703-3.72297-8.52703-8.45496s3.74775-8.45721,8.52703-8.45721,8.55856,3.72523,8.55856,8.45721-3.78153,8.45496-8.55856,8.45496Zm0-14.63964c-3.3964,0-6.02027,2.67117-6.02027,6.18468s2.62387,6.18243,6.02027,6.18243,6.04279-2.7027,6.04279-6.18243-2.62387-6.18468-6.04279-6.18468Z"/><path d="m121.77159,102.75957h2.30856v1.14865c1.01136-.88045,2.3124-1.35611,3.65315-1.33558,3.37838,0,6.02252,2.7027,6.02252,6.13739s-2.64865,6.15991-6.06757,6.15991c-1.2891.00378-2.5453-.40679-3.58334-1.17117v5.83333h-2.34234l.00901-16.77253Zm2.34234,3.27928v5.38739c.74775.86712,1.99099,1.40541,3.32433,1.40541,2.2973,0,4.02928-1.75676,4.02928-4.0991s-1.75675-4.12162-4.02928-4.12162c-1.3581,0-2.5518.51576-3.32432,1.42793Z"/><path d="m141.75132,114.89246c-3.51352,0-6.2545-2.7027-6.2545-6.18243,0-3.44369,2.62387-6.13739,5.97297-6.13739,3.27928,0,5.76126,2.71622,5.76126,6.22973v.67568h-9.41216c.29926,1.9859,2.01888,3.44585,4.02703,3.41892,1.09803.02302,2.1685-.34498,3.02027-1.03829l1.5,1.47748c-1.3075,1.04516-2.94146,1.59619-4.61487,1.55631Zm-3.91216-7.16667h7.07433c-.35135-1.82658-1.75675-3.18469-3.49099-3.18469-1.8018,0-3.23198,1.28829-3.58334,3.18469Z"/><path d="m149.45628,102.75957h2.34234v1.19595c.9499-.94753,2.24659-1.46442,3.58784-1.43018,2.73874,0,4.65991,1.89865,4.65991,4.66216v7.4955h-2.34234v-7.1036c0-1.87388-1.14865-3.02252-2.95045-3.02252-1.18744-.04002-2.30862.54665-2.9527,1.54505v8.57433h-2.34234l-.00225-11.91667Z"/><path d="m163.04412,110.23255c1.77928,1.73198,3.6036,2.57658,5.6464,2.57658,2.36487,0,3.98198-1.12613,3.98198-2.74099,0-1.4527-.93693-2.17793-3.32658-2.57658l-2.74099-.45045c-2.99775-.49099-4.47523-1.8964-4.47523-4.26352,0-2.85586,2.38964-4.70721,6.04505-4.70721,2.38485.00665,4.70306.78756,6.60586,2.22523l-1.35135,1.87388c-1.77929-1.35135-3.53604-2.01351-5.36261-2.01351-2.13288,0-3.56081.98198-3.56081,2.43468,0,1.33558.81982,1.96847,2.92793,2.31982l2.63514.41666c3.46622.56306,5.03603,1.99099,5.03603,4.54505,0,3.02027-2.62388,5.03604-6.53153,5.03604-2.64308-.00428-5.17416-1.06782-7.02703-2.9527l1.49775-1.72297Z"/><path d="m177.09593,98.2866l2.34235-.51576v6.18468c.94881-.94638,2.24363-1.46317,3.58333-1.43018,2.74099,0,4.66217,1.89865,4.66217,4.66216v7.4955h-2.34235v-7.1036c0-1.87388-1.14864-3.02252-2.9527-3.02252-1.18665-.03922-2.30679.54736-2.95045,1.54505v8.57433h-2.34235v-16.38965Z"/><path d="m190.11846,99.3857c-.00624-.79482.63303-1.4442,1.42785-1.45043.00078,0,.00155-.00001.00232-.00002.80168.03159,1.42597.70708,1.39439,1.50876-.02984.7574-.63699,1.36455-1.39439,1.39439-.79483-.00494-1.43515-.65329-1.43022-1.44811.00001-.00153.00003-.00306.00004-.00459Zm2.60135,15.2973h-2.34235v-11.92342h2.34235v11.92342Z"/><path d="m197.2626,102.75957v-1.8018c0-2.47748,1.42793-3.84009,4.05406-3.84009.56928-.00819,1.13695.0623,1.68694.20946v2.03829c-.47727-.14895-.97533-.22043-1.47522-.21171-1.28828,0-1.92118.58559-1.92118,1.85135v1.75676h3.3964v1.96847h-3.39864v9.95496h-2.34235v-9.95496h-2.76352v-1.97072h2.76352Z"/><path d="m206.56215,104.72804h-2.52702v-1.96847h2.52928v-3.04505l2.31756-.56306v3.6036h3.51351v1.96847h-3.51351v6.45946c0,1.21847.49324,1.66441,1.75675,1.66441.5832.01477,1.16396-.08075,1.71171-.28153v1.96622c-.7206.22516-1.4703.34353-2.22523.35135-2.31982,0-3.56081-1.0991-3.56081-3.15315l-.00224-7.00225Z"/><path d="m182.46755,86.47578c0,2.67793,1.61037,3.97973,4.5473,3.97973.90424-.02251,1.80285-.14948,2.67793-.37838v-3.1036c-.55931.17725-1.14302.26542-1.72973.26126-1.20946,0-1.65765-.37838-1.65765-1.51577v-4.76126h3.50451v-3.1982h-3.50451v-4.05406l-3.82883.82883v3.22523h-2.54055v3.1982h2.53378l-.00225,5.51802Zm-11.93694.07207c0-.82883.83108-1.23198,2.08559-1.23198.7668.00446,1.53037.09972,2.27477.28378v1.61036c-.73158.39955-1.55388.60357-2.38738.59234-1.22974,0-1.96621-.47297-1.96621-1.2545m1.17117,3.95496c1.35135,0,2.44145-.28378,3.45946-.97072v.75901h3.78829v-8.03154c0-3.05406-2.05856-4.72973-5.49325-4.72973-1.91892,0-3.81532.45045-5.85586,1.37387l1.37387,2.81982c1.46847-.61712,2.7027-.9955,3.79055-.9955,1.57658,0,2.39189.61487,2.39189,1.87162v.61487c-.92822-.24028-1.88354-.35988-2.84234-.35586-3.22297,0-5.16441,1.35135-5.16441,3.76802,0,2.2027,1.75226,3.88288,4.5473,3.88288m-20.81983-.21171h4.07432v-6.49775h6.82208v6.49099h4.07432v-16.58109h-4.06532v6.37162h-6.82207v-6.37162h-4.07433l-.009,16.58784Zm-15.51577-6.28378c0-1.8018,1.42117-3.17568,3.29279-3.17568.97528-.02088,1.9226.32653,2.65315.97297v4.37162c-.71632.67224-1.67143,1.0306-2.65315.9955-1.84685,0-3.29279-1.37387-3.29279-3.17342m5.99324,6.27703h3.79054v-17.40091l-3.82883.82883v4.71397c-.97469-.55257-2.07781-.83845-3.1982-.82883-3.6464,0-6.51352,2.81757-6.51352,6.41892-.0473,3.51366,2.76274,6.40038,6.2764,6.44768.037.0005.074.00067.111.00053,1.20828.00576,2.38666-.37546,3.36261-1.08784v.90766Zm-17.38514-9.61712c1.2072,0,2.22523.78153,2.62838,1.98874h-5.22748c.37838-1.2545,1.32658-1.98874,2.60586-1.98874m-6.47298,3.37162c0,3.64865,2.98424,6.49099,6.81982,6.49099,2.10811,0,3.64865-.56982,5.23649-1.8964l-2.53604-2.25225c-.59234.61712-1.46847.9482-2.50901.9482-1.33939.03772-2.5639-.75266-3.08108-1.98874h8.93018v-.94595c0-3.97973-2.67568-6.8446-6.32432-6.8446-3.55337-.05362-6.47742,2.7835-6.53103,6.33687-.00077.05062-.00093.10124-.0005.15187m-6.61261-6.8446c1.35135,0,2.10811.85135,2.10811,1.87162s-.75901,1.87162-2.10811,1.87162h-4.02703v-3.74325h4.02703Zm-8.10811,13.0991h4.07432v-6.04054h3.10135l3.12838,6.04054h4.5473l-3.64865-6.63289c1.89701-.77151,3.13448-2.61879,3.12613-4.66667,0-2.98424-2.3446-5.28153-5.85586-5.28153h-8.46621l-.00676,16.58109Z"/><rect x="49.60452" y="60.46789" width="42.87163" height="42.87163" rx="10.71791" ry="10.71791"/><path class="uuid-6be6b753-bf6c-47b0-a927-25368acca7ec" d="m81.75825,61.95649c5.08907,0,9.22931,4.14027,9.22931,9.22931v21.43582c0,5.08904-4.14024,9.22931-9.22931,9.22931h-21.43582c-5.08907,0-9.22931-4.14027-9.22931-9.22931v-21.43582c0-5.08904,4.14024-9.22931,9.22931-9.22931h21.43582m0-1.4886h-21.43582c-5.91936,0-10.71791,4.79859-10.71791,10.71791v21.43582c0,5.91932,4.79855,10.71791,10.71791,10.71791h21.43582c5.91936,0,10.71791-4.79859,10.71791-10.71791v-21.43582c0-5.91932-4.79855-10.71791-10.71791-10.71791h0Z"/><path class="uuid-ba5205e4-8dd7-43db-900b-f99256a496eb" d="m60.43989,85.70313c-.28493,0-.5559-.16398-.68034-.44193-.1663-.37448.00233-.81524.37796-.98271l3.26329-1.45371c.37215-.16514.81408.00116.98271.37796.1663.37448-.00233.81524-.37796.98271l-3.26329,1.45371c-.09769.04303-.20119.06396-.30237.06396Z"/><path class="uuid-ba5205e4-8dd7-43db-900b-f99256a496eb" d="m58.93036,89.63279c-.28493,0-.55706-.16398-.68034-.44193-.1663-.37564.00233-.81524.37796-.98271l3.26445-1.45255c.37215-.16398.81524.00116.98271.37796.1663.37564-.00233.81524-.37796.98271l-3.26445,1.45255c-.09769.04303-.20119.06396-.30237.06396Z"/><path class="uuid-ba5205e4-8dd7-43db-900b-f99256a496eb" d="m79.88587,77.04483c-.28493,0-.55706-.16398-.68034-.44193-.1663-.37564.00233-.81524.37796-.98271l3.26445-1.45371c.37215-.16282.81524.00116.98271.37796.1663.37564-.00233.81524-.37796.98271l-3.26445,1.45371c-.09769.04303-.20119.06396-.30237.06396Z"/><path class="uuid-ba5205e4-8dd7-43db-900b-f99256a496eb" d="m78.3775,80.97566c-.28493,0-.5559-.16398-.68034-.44193-.1663-.37448.00233-.81524.37796-.98271l3.26329-1.45371c.37331-.16398.81408.00116.98271.37796.1663.37448-.00233.81524-.37796.98271l-3.26329,1.45371c-.09769.04303-.20119.06396-.30237.06396Z"/><path class="uuid-bc537c29-20f7-4aff-904b-6f750c567a54" d="m70.98219,93.37638c-2.6097,0-5.18451-.90014-7.29064-2.6411-.31633-.26167-.36052-.73034-.09885-1.04783s.72918-.36052,1.04783-.09885c2.93998,2.4306,6.93245,2.97603,10.41786,1.4258,3.48309-1.5514,5.74855-4.8833,5.91136-8.69667.01744-.41053.34889-.77919.77454-.71174.41053.01744.72918.36401.71174.77454-.18607,4.38206-2.7888,8.21171-6.79289,9.99454-1.50953.6722-3.10163,1.00132-4.68094,1.00132Z"/><path class="uuid-bc537c29-20f7-4aff-904b-6f750c567a54" d="m60.29103,82.17352c-.01047,0-.0221,0-.03373-.00116-.41053-.01861-.72802-.36633-.70941-.77686.1977-4.36811,2.80043-8.18613,6.79173-9.96314,4.00526-1.78167,8.592-1.15366,11.97159,1.63978.31633.26167.36052.73034.09885,1.04783s-.73034.36168-1.04783.09885c-2.94114-2.4306-6.93361-2.9772-10.41786-1.4258-3.47262,1.54558-5.73692,4.86818-5.9102,8.66992-.01744.3989-.34656.71057-.74314.71057Z"/></g></svg>