<svg id="fde0fd0f-0d72-40f1-b73e-b1f97c543ebe" data-name="Layer 1" xmlns="http://www.w3.org/2000/svg" viewBox="0 0 262 180"><defs><style>.f1e025e2-a601-43eb-ba31-be2687308814{fill:#e00;}</style></defs><path d="M51.72,128.53h2.61v-3.87h2l2,3.87h2.91l-2.34-4.24a3.23,3.23,0,0,0,2-3,3.46,3.46,0,0,0-3.75-3.39H51.72v10.62Zm5.18-8.39a1.21,1.21,0,1,1,0,2.4H54.33v-2.4Zm4.24,4.39a4.22,4.22,0,0,0,4.37,4.16,4.82,4.82,0,0,0,3.35-1.22L67.24,126a2.19,2.19,0,0,1-1.61.61,2.06,2.06,0,0,1-2-1.28h5.72v-.6a4.12,4.12,0,1,0-8.24-.23m4.14-2.16A1.76,1.76,0,0,1,67,123.65H63.61a1.67,1.67,0,0,1,1.67-1.28m11.14,6.16h2.42V117.38l-2.45.53v3a4.14,4.14,0,1,0-2.13,7.71,3.62,3.62,0,0,0,2.16-.7v.59Zm-3.84-4a2,2,0,0,1,2.11-2,2.53,2.53,0,0,1,1.7.62v2.81a2.39,2.39,0,0,1-1.7.64,2,2,0,0,1-2.11-2m9.94,4h2.61v-4.15H89.5v4.15h2.61V117.91H89.5V122H85.13v-4.08H82.52v10.62Zm13.34.14a3.74,3.74,0,0,0,2.21-.62v.48h2.43v-5.14c0-2-1.32-3-3.52-3a8.83,8.83,0,0,0-3.75.88l.88,1.8a6.66,6.66,0,0,1,2.43-.64q1.53,0,1.53,1.2v.4a7.14,7.14,0,0,0-1.82-.23c-2.06,0-3.31.86-3.31,2.41s1.13,2.49,2.92,2.49m-.75-2.53c0-.53.53-.79,1.33-.79a6,6,0,0,1,1.46.18v1a3.1,3.1,0,0,1-1.53.38c-.79,0-1.26-.3-1.26-.8m7.63,0c0,1.72,1,2.55,2.92,2.55a7.91,7.91,0,0,0,1.71-.24v-2a3.61,3.61,0,0,1-1.11.17c-.77,0-1.06-.25-1.06-1v-3h2.25v-2H105.2v-2.6l-2.46.53v2.07h-1.62v2h1.62v3.53Z"/><path class="f1e025e2-a601-43eb-ba31-be2687308814" d="M192.17,89.75c1,4.81,1,5.32,1,6,0,8.23-9.25,12.79-21.4,12.79-27.49,0-51.55-16.08-51.55-26.72a10.78,10.78,0,0,1,.89-4.31C111.25,78,98.46,79.74,98.46,91c0,18.49,43.82,41.29,78.52,41.29,26.59,0,33.3-12,33.3-21.53,0-7.47-6.45-16-18.11-21m-19.12,6.71c7.35,0,18-1.52,18-10.26a8,8,0,0,0-.18-2l-4.37-19c-1-4.18-1.9-6.08-9.25-9.75-5.7-2.92-18.11-7.73-21.78-7.73-3.42,0-4.43,4.43-8.49,4.43s-6.83-3.29-10.51-3.29-5.82,2.41-7.59,7.35c0,0-4.94,13.93-5.58,16a3.88,3.88,0,0,0-.13,1.14c0,5.42,21.32,23.18,49.9,23.18"/><path d="M192.17,89.75c1,4.81,1,5.32,1,6,0,8.23-9.25,12.79-21.4,12.79-27.49,0-51.55-16.08-51.55-26.72a10.78,10.78,0,0,1,.89-4.31l2.15-5.32a3.88,3.88,0,0,0-.13,1.14c0,5.42,21.32,23.18,49.9,23.18,7.35,0,18-1.52,18-10.26a8,8,0,0,0-.18-2l1.32,5.56Z"/></svg>