<svg id="a50c36d8-62f2-4fb6-9714-42a0ac70e0e5" data-name="Layer 1" xmlns="http://www.w3.org/2000/svg" viewBox="0 0 555 320"><defs><style>.b85c2ee4-b598-438d-b72c-a347563680bb{fill:#a7c0e4;}.b85c2ee4-b598-438d-b72c-a347563680bb,.ba32188b-e75f-4417-99dc-4fd540bfb0fe{isolation:isolate;opacity:0.5;}.f4ab29d9-48ee-47e3-8ff7-18a0d8bc5071{fill:#fff;}.a341a110-3866-49ca-aa68-2dc41b04253e{fill:#e00;}.ba32188b-e75f-4417-99dc-4fd540bfb0fe{fill:#6c97d3;}.ba989f83-7001-476d-b465-de5d9d52fad7{fill:none;stroke:#6c97d3;stroke-linecap:round;stroke-linejoin:round;stroke-width:0.5px;stroke-dasharray:2;}</style></defs><rect class="b85c2ee4-b598-438d-b72c-a347563680bb" x="70" y="68.4093" width="415" height="183.1815"/><rect class="f4ab29d9-48ee-47e3-8ff7-18a0d8bc5071" x="94.4143" y="94.0906" width="366.1714" height="131.8188"/><path d="M94.8042,113.4511h15.4476c6.8226,0,11.4033,4.0935,11.4033,10.0874a9.62,9.62,0,0,1-7.0175,9.3076l7.6022,14.7168H116.587l-7.0659-13.9857h-9.6v13.9857H94.8042Zm15.058,15.8378c3.9959,0,6.676-2.2417,6.676-5.7016,0-3.4111-2.68-5.6528-6.676-5.6528H99.9208v11.3544Z"/><path d="M123.75,135.1366A12.5056,12.5056,0,0,1,136.1762,122.32c6.8223,0,11.9876,5.7016,11.9876,13.06v1.3645h-19.541a8.3593,8.3593,0,0,0,8.3329,7.1147,9.3934,9.3934,0,0,0,6.2864-2.1929l3.1187,3.07a14.8858,14.8858,0,0,1-9.6,3.2651A12.7639,12.7639,0,0,1,123.75,135.1366Zm19.59-2.0469c-.6823-3.8008-3.655-6.6272-7.261-6.6272a7.5324,7.5324,0,0,0-7.407,6.6272Z"/><path d="M151.72,135.1366a12.5346,12.5346,0,0,1,12.6215-12.7675,12.3569,12.3569,0,0,1,7.4558,2.4852V113.4511l4.873-.9259v35.0377h-4.8242v-2.3877a11.3185,11.3185,0,0,1-7.6022,2.7777A12.5256,12.5256,0,0,1,151.72,135.1366Zm20.0773,5.5553V129.5325a9.1376,9.1376,0,0,0-6.92-2.9727,8.5789,8.5789,0,0,0,0,17.1533A8.7753,8.7753,0,0,0,171.7974,140.6919Z"/><path d="M193.189,113.4511h5.1166V128.07h18.128V113.4511H221.55v34.1118h-5.1168V132.7h-18.128v14.8628H193.189Z"/><path d="M226.179,140.4483c0-4.6782,3.801-7.5534,10.0386-7.5534a16.532,16.532,0,0,1,6.7735,1.413v-2.6313c0-3.5087-2.0953-5.3116-6.0427-5.3116a17.6327,17.6327,0,0,0-7.6994,2.0953l-1.803-3.6547a23.3751,23.3751,0,0,1,10.1847-2.5341c6.4811,0,10.1362,3.1676,10.1362,8.82v16.471h-4.7758v-2.1441a11.7675,11.7675,0,0,1-7.6994,2.5828C229.9312,148.0016,226.179,144.9313,226.179,140.4483Zm10.2334,3.8983a9.3947,9.3947,0,0,0,6.5787-2.3389v-4.191a12.283,12.283,0,0,0-6.3839-1.5594c-3.5572,0-5.75,1.6081-5.75,4.0934C230.8571,142.7384,233.0988,144.3466,236.4124,144.3466Z"/><path d="M255.8553,141.4229V126.8521h-5.2629V122.759h5.2629v-6.3351l4.8245-1.1695v7.5046h7.31v4.0931h-7.31v13.45c0,2.5341,1.0234,3.5087,3.6547,3.5087a9.5776,9.5776,0,0,0,3.5575-.5847v4.0934a16.3794,16.3794,0,0,1-4.6294.6823C258.4381,148.0016,255.8553,145.76,255.8553,141.4229Z"/><path d="M94.4143,164.6175h7.0662V198.729H94.4143Z"/><path d="M107.23,173.34h6.676v2.0469a10.5883,10.5883,0,0,1,7.1147-2.534c5.8964,0,10.0386,4.1419,10.0386,10.1356v15.74h-6.676V183.9637c0-3.2651-2.0468-5.36-5.2632-5.36a6.2035,6.2035,0,0,0-5.2141,2.5334v17.592H107.23Z"/><path d="M135.6387,166.518a3.8011,3.8011,0,1,1,3.8011,3.8011A3.8061,3.8061,0,0,1,135.6387,166.518Zm.4875,6.8223h6.676V198.729h-6.676Z"/><path d="M151.475,191.5659v-12.67h-5.2141V173.34h5.2141v-6.4814l6.6763-1.51V173.34h7.261v5.5553h-7.261v11.3057c0,2.3877.9259,3.2651,3.5087,3.2651a10.2722,10.2722,0,0,0,3.5572-.5847v5.5065a20.6564,20.6564,0,0,1-5.1653.73C154.399,199.1186,151.475,196.5364,151.475,191.5659Z"/><path d="M168.1894,166.518a3.8011,3.8011,0,1,1,3.801,3.8011A3.806,3.806,0,0,1,168.1894,166.518Zm.4874,6.8223h6.676V198.729h-6.676Z"/><path d="M179.3966,191.3708c0-4.8243,3.85-7.7,10.331-7.7a18.8155,18.8155,0,0,1,6.2376,1.0237V182.843c0-2.9242-1.803-4.4346-5.3605-4.4346a18.8752,18.8752,0,0,0-7.7482,2.0951l-2.4365-4.9218a26.311,26.311,0,0,1,11.3057-2.7285c6.8711,0,10.8182,3.4108,10.8182,9.4051V198.729h-6.5787v-1.803a11.742,11.742,0,0,1-7.31,2.2414C183.1489,199.1674,179.3966,196,179.3966,191.3708Zm10.9645,3.0212a9.1984,9.1984,0,0,0,5.6041-1.6567v-3.7035a13.8038,13.8038,0,0,0-5.3605-.9749c-3.07,0-4.873,1.2182-4.873,3.1675S187.5347,194.392,190.3611,194.392Z"/><path d="M210.34,191.5659v-12.67h-5.2142V173.34H210.34v-6.4814l6.6762-1.51V173.34h7.261v5.5553h-7.261v11.3057c0,2.3877.9259,3.2651,3.5087,3.2651a10.2722,10.2722,0,0,0,3.5572-.5847v5.5065a20.6564,20.6564,0,0,1-5.1653.73C213.2639,199.1186,210.34,196.5364,210.34,191.5659Z"/><path d="M227.054,166.518a3.8011,3.8011,0,1,1,3.801,3.8011A3.806,3.806,0,0,1,227.054,166.518Zm.4874,6.8223h6.676V198.729h-6.676Z"/><path d="M236.7994,173.34h7.261l6.9683,16.91,6.92-16.91h7.1146L254.1475,198.729h-6.4812Z"/><path d="M265.7931,186.0594a12.99,12.99,0,0,1,13.06-13.1575c7.2122,0,12.5727,5.8474,12.5727,13.6446v1.7543h-18.81a7.2129,7.2129,0,0,0,7.115,5.3113,7.9089,7.9089,0,0,0,5.604-2.0462l4.3858,3.9956a15.2574,15.2574,0,0,1-10.331,3.6547C271.7383,199.2162,265.7931,193.4664,265.7931,186.0594Zm19.0539-2.5341a6.3713,6.3713,0,0,0-6.14-5.1169,6.2484,6.2484,0,0,0-6.1887,5.1169Z"/><path d="M305.7511,164.6175h7.0662v27.874h18.6639v6.2375h-25.73Z"/><path d="M333.819,186.0594a13.553,13.553,0,1,1,13.5473,13.1568A13.2328,13.2328,0,0,1,333.819,186.0594Zm20.6132,0a7.0507,7.0507,0,1,0-14.0833,0,7.0485,7.0485,0,1,0,14.0833,0Z"/><path d="M367.1991,206.8184l2.339-5.1657a18.0022,18.0022,0,0,0,8.0893,1.9981c3.9959,0,6.0427-1.7054,6.0427-5.0681v-1.9981a11.9275,11.9275,0,0,1-6.9686,2.2908,12.9627,12.9627,0,0,1,.1948-25.9247,12.4976,12.4976,0,0,1,6.8711,2.0463V173.34h6.5787v25.34c0,6.7248-4.4343,10.4771-12.5724,10.4771A23.6161,23.6161,0,0,1,367.1991,206.8184Zm16.471-15.9348v-9.9411a8.4546,8.4546,0,0,0-5.8964-2.2908,7.2856,7.2856,0,1,0-.0488,14.5708A8.0389,8.0389,0,0,0,383.67,190.8836Z"/><path d="M394.4384,186.0594a13.553,13.553,0,1,1,13.5473,13.1568A13.2328,13.2328,0,0,1,394.4384,186.0594Zm20.6132,0a7.0507,7.0507,0,1,0-14.0833,0,7.0485,7.0485,0,1,0,14.0833,0Z"/><path class="a341a110-3866-49ca-aa68-2dc41b04253e" d="M434.68,168.7606a25.9344,25.9344,0,0,1-25.9053-25.905v-22.86a3.0458,3.0458,0,0,1,3.0456-3.0456H457.54a3.0456,3.0456,0,0,1,3.0456,3.0456v22.86A25.9344,25.9344,0,0,1,434.68,168.7606Zm-19.8141-45.7191v19.8141a19.8141,19.8141,0,0,0,39.6281,0V123.0415Z"/><path class="a341a110-3866-49ca-aa68-2dc41b04253e" d="M423.25,123.0415a3.0457,3.0457,0,0,1-3.0456-3.0456v-22.86a3.0456,3.0456,0,1,1,6.0912,0v22.86A3.0457,3.0457,0,0,1,423.25,123.0415Z"/><path class="a341a110-3866-49ca-aa68-2dc41b04253e" d="M446.11,123.0415a3.0456,3.0456,0,0,1-3.0456-3.0456v-22.86a3.0456,3.0456,0,0,1,6.0912,0v22.86A3.0457,3.0457,0,0,1,446.11,123.0415Z"/><path class="a341a110-3866-49ca-aa68-2dc41b04253e" d="M371.8166,166.8137a3.0456,3.0456,0,0,1-3.0456-3.0456v-23.34a28.3863,28.3863,0,0,0-56.7725,0V154.82a3.0457,3.0457,0,0,1-6.0913,0V140.4286a34.4775,34.4775,0,0,1,68.955,0v23.34A3.0456,3.0456,0,0,1,371.8166,166.8137Z"/><path class="a341a110-3866-49ca-aa68-2dc41b04253e" d="M403.2483,225.9094a34.3027,34.3027,0,0,1-19.3233-5.92,3.0457,3.0457,0,0,1,3.418-5.042,28.3909,28.3909,0,0,0,44.2918-23.5155V165.715a3.0456,3.0456,0,1,1,6.0912,0v25.717A34.5166,34.5166,0,0,1,403.2483,225.9094Z"/><path class="ba32188b-e75f-4417-99dc-4fd540bfb0fe" d="M123.75,81.2256a12.5056,12.5056,0,0,1,12.4267-12.8163c6.8223,0,11.9876,5.7016,11.9876,13.06v1.3646h-19.541a8.3593,8.3593,0,0,0,8.3329,7.1147,9.3934,9.3934,0,0,0,6.2864-2.1929l3.1187,3.07a14.8858,14.8858,0,0,1-9.6,3.2651A12.7639,12.7639,0,0,1,123.75,81.2256Zm19.59-2.0469c-.6823-3.8008-3.655-6.6272-7.261-6.6272a7.5324,7.5324,0,0,0-7.407,6.6272Z"/><path class="ba32188b-e75f-4417-99dc-4fd540bfb0fe" d="M123.75,238.7257a12.5056,12.5056,0,0,1,12.4267-12.8163c6.8223,0,11.9876,5.7016,11.9876,13.06v1.3645h-19.541a8.3593,8.3593,0,0,0,8.3329,7.1147,9.3934,9.3934,0,0,0,6.2864-2.1929l3.1187,3.07a14.8858,14.8858,0,0,1-9.6,3.2651A12.7639,12.7639,0,0,1,123.75,238.7257Zm19.59-2.0469c-.6823-3.8008-3.655-6.6272-7.261-6.6272a7.5324,7.5324,0,0,0-7.407,6.6272Z"/><path class="ba32188b-e75f-4417-99dc-4fd540bfb0fe" d="M460.5857,135.1366A12.5056,12.5056,0,0,1,473.0123,122.32c6.8223,0,11.9877,5.7016,11.9877,13.06v1.3645H465.459a8.3592,8.3592,0,0,0,8.3329,7.1147,9.3931,9.3931,0,0,0,6.2863-2.1929l3.1188,3.07a14.886,14.886,0,0,1-9.6,3.2651A12.7639,12.7639,0,0,1,460.5857,135.1366Zm19.59-2.0469c-.6823-3.8008-3.6551-6.6272-7.261-6.6272a7.5325,7.5325,0,0,0-7.4071,6.6272Z"/><path class="ba32188b-e75f-4417-99dc-4fd540bfb0fe" d="M70,135.1366A12.5056,12.5056,0,0,1,82.4267,122.32c6.8223,0,11.9876,5.7016,11.9876,13.06v1.3645H74.8733a8.3593,8.3593,0,0,0,8.3329,7.1147,9.3934,9.3934,0,0,0,6.2864-2.1929l3.1187,3.07a14.8858,14.8858,0,0,1-9.6,3.2651A12.7639,12.7639,0,0,1,70,135.1366ZM89.59,133.09c-.6823-3.8008-3.655-6.6272-7.261-6.6272a7.5324,7.5324,0,0,0-7.407,6.6272Z"/><line class="ba989f83-7001-476d-b465-de5d9d52fad7" x1="123.7495" y1="68.4093" x2="123.7495" y2="251.5907"/><line class="ba989f83-7001-476d-b465-de5d9d52fad7" x1="148.1638" y1="68.4093" x2="148.1638" y2="251.5907"/><line class="ba989f83-7001-476d-b465-de5d9d52fad7" x1="70" y1="122.2715" x2="485" y2="122.2715"/><line class="ba989f83-7001-476d-b465-de5d9d52fad7" x1="70" y1="148.0016" x2="485" y2="148.0016"/></svg>