<svg id="be5017f3-c2be-4486-a9bb-c6d7e281b87a" data-name="Layer 1" xmlns="http://www.w3.org/2000/svg" viewBox="0 0 555 320"><defs><style>.ab03f1f1-8ed4-4ca4-9d16-f46a6c1b5d8f{fill:#e00;}</style></defs><path d="M253.32042,70.66926V76.1674h4.79348c1.9267,0,3.19548-1.10426,3.19548-2.749,0-1.66828-1.26878-2.74913-3.19548-2.74913Zm-2.46708-2.16175h7.472c3.26625,0,5.47487,1.97372,5.47487,4.86386a4.64611,4.64611,0,0,1-3.38372,4.51134l3.66568,7.07249h-2.72585l-3.40662-6.74352h-4.62932V84.9552h-2.46708V68.50751Z"/><path d="M267.1599,77.97663h7.09582a3.56732,3.56732,0,0,0-7.09582,0Zm3.92356,7.19009A6.15427,6.15427,0,0,1,264.81,78.96358a6.00955,6.00955,0,0,1,5.99181-6.15612c3.28944,0,5.78,2.72563,5.78,6.25V79.739h-9.44541a4.03386,4.03386,0,0,0,4.04132,3.43049,4.65194,4.65194,0,0,0,3.031-1.05735l1.50376,1.48025a7.13364,7.13364,0,0,1-4.629,1.57435Z"/><path d="M284.688,83.09892a4.30936,4.30936,0,0,0,3.31266-1.43323V76.238A4.37231,4.37231,0,0,0,284.688,74.8281a4.136,4.136,0,0,0,0,8.27082Zm3.33616.72849a5.64814,5.64814,0,0,1-3.66539,1.31579,6.16792,6.16792,0,1,1,3.64189-11.16093V68.50751l2.34961-.51685V84.9552h-2.32611V83.82741Z"/><polygon points="298.315 68.508 300.783 68.508 300.783 75.556 309.523 75.556 309.523 68.508 311.99 68.508 311.99 84.955 309.523 84.955 309.523 77.789 300.783 77.789 300.783 84.955 298.315 84.955 298.315 68.508 298.315 68.508"/><path d="M319.15643,83.4279a4.59868,4.59868,0,0,0,3.172-1.12779v-2.0678a6.21375,6.21375,0,0,0-3.07828-.72837c-1.71492,0-2.77254.77542-2.77254,1.97372,0,1.15131,1.08112,1.95024,2.67885,1.95024ZM314.222,81.52471c0-2.25568,1.833-3.642,4.84049-3.642a8.443,8.443,0,0,1,3.26595.65794V77.27178c0-1.69178-1.01062-2.53761-2.91383-2.53761a8.50145,8.50145,0,0,0-3.71235,1.0103l-.86936-1.7622a11.19538,11.19538,0,0,1,4.911-1.22183c3.10176,0,4.88747,1.52731,4.88747,4.27643V84.9552H322.3284V83.92137a5.675,5.675,0,0,1-3.71238,1.24535c-2.60837,0-4.39406-1.4804-4.39406-3.642Z"/><path d="M328.41389,74.96907h-2.53758V72.99549h2.53758V69.94088L330.74,69.377v3.61848h3.5247v1.97358H330.74v6.4851c0,1.22182.4937,1.66825,1.76221,1.66825a4.61544,4.61544,0,0,0,1.7155-.28193v1.97373a7.78143,7.78143,0,0,1-2.23213.3525c-2.3264,0-3.57169-1.1044-3.57169-3.17206V74.96907Z"/><path d="M263.30684,104.62112l2.23183,2.20893a9.03891,9.03891,0,0,1-6.74337,3.031,8.47546,8.47546,0,1,1,0-16.94109,9.01178,9.01178,0,0,1,6.83765,3.0781l-2.30261,2.27913a5.72906,5.72906,0,0,0-4.535-2.23213,5.334,5.334,0,0,0,.094,10.66751,5.64613,5.64613,0,0,0,4.41755-2.09145Z"/><path d="M269.97944,104.50394a2.40521,2.40521,0,0,0,2.53757,2.58456,2.94639,2.94639,0,0,0,2.53758-1.22179V97.38433h3.219v12.24175h-3.219v-.98683a5.21187,5.21187,0,0,1-3.45422,1.2218,4.66334,4.66334,0,0,1-4.8402-4.88719V97.38433h3.21927v7.11961Z"/><path d="M281.351,106.03118a7.12815,7.12815,0,0,0,3.97083,1.38627c1.43356,0,2.37341-.51691,2.37341-1.29228,0-.63439-.47022-.98684-1.52726-1.15131l-2.3496-.35274c-2.4201-.37564-3.71267-1.574-3.71267-3.5479,0-2.3731,1.974-3.87686,5.09864-3.87686a9.03054,9.03054,0,0,1,5.02846,1.52725l-1.55074,2.06766a7.227,7.227,0,0,0-3.78317-1.17481c-1.17481,0-1.92668.46992-1.92668,1.1983,0,.65789.46993.98684,1.66852,1.15131l2.34961.35273c2.39659.35215,3.73559,1.59773,3.73559,3.50091,0,2.30263-2.27884,4.04134-5.35711,4.04134a9.02143,9.02143,0,0,1-5.61557-1.69173l1.59774-2.13814Z"/><path d="M293.75717,100.08638H291.2428v-2.702h2.51437V94.25926l3.219-.72837v3.85344h3.47743v2.70205h-3.47743V105.514c0,1.15161.44643,1.57453,1.69172,1.57453a4.95165,4.95165,0,0,0,1.7152-.282v2.63158a9.98682,9.98682,0,0,1-2.49057.37593c-2.72584,0-4.13531-1.2453-4.13531-3.64189v-6.08578Z"/><path d="M311.28525,103.51711a3.38724,3.38724,0,1,0-3.38346,3.5479,3.42961,3.42961,0,0,0,3.38346-3.5479Zm-3.38346-6.36773a6.35821,6.35821,0,1,1-6.53189,6.36773,6.3805,6.3805,0,0,1,6.53189-6.36773Z"/><path d="M316.40768,97.38433h3.21867v.91636a4.76172,4.76172,0,0,1,3.19577-1.15131,4.3951,4.3951,0,0,1,3.68888,1.83269,5.03645,5.03645,0,0,1,4.0413-1.83269,4.56667,4.56667,0,0,1,4.67573,4.864v7.61273h-3.21867v-7.14281a2.28477,2.28477,0,0,0-2.30289-2.56137,2.75587,2.75587,0,0,0-2.34961,1.2218,5.2507,5.2507,0,0,1,.07019.86965v7.61273h-3.21867v-7.14281a2.28478,2.28478,0,0,0-2.30291-2.56137,2.73217,2.73217,0,0,0-2.27912,1.10432v8.59986h-3.21867V97.38433Z"/><path d="M340.3496,102.29531h5.99179a3.15859,3.15859,0,0,0-2.98429-2.46738,3.07485,3.07485,0,0,0-3.0075,2.46738Zm3.36023,7.56574a6.373,6.373,0,0,1-6.5792-6.34394,6.24878,6.24878,0,0,1,6.29695-6.34425c3.47772,0,6.062,2.81953,6.062,6.57891v.84586H340.3731a3.5274,3.5274,0,0,0,3.47772,2.56137,3.85317,3.85317,0,0,0,2.70174-.98684l2.11525,1.92668a7.34006,7.34006,0,0,1-4.958,1.76221Z"/><path d="M351.46325,97.38433h3.219v1.33928a3.89469,3.89469,0,0,1,3.266-1.62123,2.77525,2.77525,0,0,1,1.33958.282v2.81952a4.11177,4.11177,0,0,0-1.645-.32894,3.23975,3.23975,0,0,0-2.96052,1.833v7.91818h-3.219V97.38433Z"/><path d="M251.20607,129.24531a8.1488,8.1488,0,0,0,5.56886,2.3966c2.04387,0,3.35965-.79917,3.35965-2.06766,0-1.12811-.75189-1.692-2.70205-2.021l-3.26595-.5639c-2.81953-.46964-4.30009-1.99718-4.30009-4.39379,0-3.078,2.49089-4.98145,6.48493-4.98145a11.42831,11.42831,0,0,1,6.79066,2.3029l-1.8327,2.53758a8.36955,8.36955,0,0,0-5.19263-1.97367c-1.8327,0-3.0075.72838-3.0075,1.8562,0,1.01033.65788,1.52723,2.34961,1.7857l3.10178.51691c3.28915.54041,4.91038,2.09115,4.91038,4.629,0,3.219-2.702,5.26312-6.93134,5.26312a10.90561,10.90561,0,0,1-7.28409-2.843l1.95048-2.44358Z"/><path d="M268.19315,126.96589h5.99149a3.15724,3.15724,0,0,0-2.984-2.46679,3.07459,3.07459,0,0,0-3.00749,2.46679Zm3.36022,7.566a6.37325,6.37325,0,0,1-6.57919-6.34424,6.2487,6.2487,0,0,1,6.29694-6.34393c3.47743,0,6.0623,2.81952,6.0623,6.57918v.84587h-9.11678a3.52714,3.52714,0,0,0,3.47741,2.56107,3.8553,3.8553,0,0,0,2.70236-.98714l2.11464,1.927a7.33826,7.33826,0,0,1-4.95768,1.76221Z"/><path d="M279.30649,122.05521h3.21926v1.33928a3.89433,3.89433,0,0,1,3.26595-1.62124,2.77333,2.77333,0,0,1,1.33928.282v2.81954a4.109,4.109,0,0,0-1.64473-.329,3.23992,3.23992,0,0,0-2.9605,1.83269V134.297h-3.21926V122.05521Z"/><polygon points="288.071 122.055 291.571 122.055 294.931 130.209 298.268 122.055 301.699 122.055 296.435 134.297 293.334 134.297 288.071 122.055 288.071 122.055"/><path d="M306.18571,134.297h-3.219V122.05521h3.219V134.297Zm-3.45421-15.5312a1.83284,1.83284,0,1,1,1.83269,1.8327,1.83523,1.83523,0,0,1-1.83269-1.8327Z"/><path d="M317.60481,130.34961l1.92667,1.99688a6.79354,6.79354,0,0,1-4.98146,2.18544,6.35611,6.35611,0,1,1,0-12.71168,6.88617,6.88617,0,0,1,5.07543,2.18513l-1.97364,2.09116a3.97421,3.97421,0,0,0-3.031-1.48025,3.55572,3.55572,0,0,0,.07049,7.09611,3.79933,3.79933,0,0,0,2.91351-1.36279Z"/><path d="M323.38484,126.96589h5.99151a3.15726,3.15726,0,0,0-2.984-2.46679,3.07462,3.07462,0,0,0-3.00749,2.46679Zm3.36024,7.566a6.37325,6.37325,0,0,1-6.57919-6.34424,6.24868,6.24868,0,0,1,6.297-6.34393c3.47741,0,6.06228,2.81952,6.06228,6.57918v.84587h-9.11678a3.52716,3.52716,0,0,0,3.47743,2.56107,3.8553,3.8553,0,0,0,2.70234-.98714l2.11465,1.927a7.33829,7.33829,0,0,1-4.95768,1.76221Z"/><polygon points="338.375 117.849 352.849 117.849 352.849 120.857 347.327 120.857 347.327 134.297 343.92 134.297 343.92 120.857 338.375 120.857 338.375 117.849 338.375 117.849"/><path d="M354.21143,126.96589h5.99147a3.15775,3.15775,0,0,0-2.984-2.46679,3.07385,3.07385,0,0,0-3.00748,2.46679Zm3.35964,7.566a6.373,6.373,0,0,1-6.57891-6.34424,6.24868,6.24868,0,0,1,6.29693-6.34393c3.47773,0,6.06229,2.81952,6.06229,6.57918v.84587H354.2349a3.52679,3.52679,0,0,0,3.4771,2.56107,3.85526,3.85526,0,0,0,2.70236-.98714l2.11467,1.927a7.33858,7.33858,0,0,1-4.958,1.76221Z"/><path d="M370.00047,132.20581a4.63412,4.63412,0,0,0,2.702-.77536v-1.8327a7.111,7.111,0,0,0-2.58426-.44673c-1.48055,0-2.34961.58741-2.34961,1.52755,0,.93984.86906,1.52724,2.23183,1.52724Zm-5.31013-1.45676c0-2.32611,1.88-3.71267,5.02819-3.71267a9.89941,9.89941,0,0,1,2.984.47022V126.637c0-1.40976-.86906-2.13785-2.58426-2.13785a9.48546,9.48546,0,0,0-3.73619,1.01l-1.17479-2.3731a12.76665,12.76665,0,0,1,5.4514-1.31578c3.31293,0,5.21582,1.64473,5.21582,4.53475v7.942h-3.172v-.84586a5.8181,5.8181,0,0,1-3.5479,1.05732c-2.63158,0-4.46427-1.52723-4.46427-3.75937Z"/><path d="M378.31809,122.05521h3.219v.91635a4.761,4.761,0,0,1,3.19543-1.15131,4.39442,4.39442,0,0,1,3.68892,1.83269,5.03749,5.03749,0,0,1,4.04161-1.83269,4.56677,4.56677,0,0,1,4.67572,4.86369v7.613h-3.219v-7.14281a2.28461,2.28461,0,0,0-2.30291-2.56135,2.75629,2.75629,0,0,0-2.34961,1.22178,5.21,5.21,0,0,1,.0705.86936v7.613h-3.219v-7.14281a2.28462,2.28462,0,0,0-2.30292-2.56135,2.7314,2.7314,0,0,0-2.27881,1.1046V134.297h-3.219V122.05521Z"/><path class="ab03f1f1-8ed4-4ca4-9d16-f46a6c1b5d8f" d="M204.71262,89.52763a14.66924,14.66924,0,0,1,.50663,2.97574c0,4.11529-4.622,6.3947-10.70011,6.3947-13.73886,0-25.76827-8.04075-25.76827-13.35905a5.42041,5.42041,0,0,1,.44314-2.15271c-4.93815.25326-11.33275,1.13965-11.33275,6.77447,0,9.24363,21.906,20.63981,39.2539,20.63981,13.29555,0,16.65108-6.01469,16.65108-10.763,0-3.73558-3.22895-7.97739-9.05362-10.51Zm-9.56026,3.35562c3.67214,0,8.99047-.75978,8.99047-5.12829a4.14783,4.14783,0,0,0-.09133-1.00486L201.86371,77.245c-.50663-2.0893-.95011-3.03895-4.62226-4.875-2.8489-1.45616-9.05363-3.86214-10.88946-3.86214-1.70944,0-2.21595,2.216-4.242,2.216-1.96269,0-3.41886-1.64605-5.25507-1.64605-1.77252,0-2.91235,1.20291-3.79859,3.67211,0,0-2.46923,6.96436-2.78587,7.97742a1.82514,1.82514,0,0,0-.06483.56975c0,2.70642,10.659,11.58627,24.94677,11.58627Z"/><path d="M204.71262,89.52763a14.66924,14.66924,0,0,1,.50663,2.97574c0,4.11529-4.622,6.3947-10.70011,6.3947-13.73886,0-25.76827-8.04075-25.76827-13.35905a5.42041,5.42041,0,0,1,.44314-2.15271l1.07641-2.65908a1.82514,1.82514,0,0,0-.06483.56975c0,2.70642,10.659,11.58627,24.94677,11.58627,3.67214,0,8.99047-.75978,8.99047-5.12829a4.14783,4.14783,0,0,0-.09133-1.00486l.66112,2.77753Z"/><path d="M232.30523,136.5053a.66088.66088,0,0,1-.66083-.66083v-68.805a.66083.66083,0,0,1,1.32166,0v68.805a.66107.66107,0,0,1-.66083.66083Z"/><path d="M232.66868,211.01339v5.49814h4.7935c1.92668,0,3.19517-1.10426,3.19517-2.749,0-1.66825-1.26849-2.74913-3.19517-2.74913Zm-2.46708-2.16174h7.47175c3.26625,0,5.47488,1.97374,5.47488,4.86384a4.64582,4.64582,0,0,1-3.38343,4.51134l3.66538,7.0725h-2.72583l-3.40664-6.74349h-4.629v6.74349H230.2016V208.85165Z"/><path d="M246.50787,218.32078h7.09582a3.56731,3.56731,0,0,0-7.09582,0Zm3.92385,7.19007a6.15408,6.15408,0,0,1-6.27347-6.20314,6.00948,6.00948,0,0,1,5.99151-6.15609c3.28974,0,5.78,2.7256,5.78,6.25v.68146h-9.44542a4.03427,4.03427,0,0,0,4.04133,3.43049,4.65112,4.65112,0,0,0,3.031-1.05735l1.50405,1.48028a7.1343,7.1343,0,0,1-4.629,1.57433Z"/><path d="M264.036,223.44305a4.30953,4.30953,0,0,0,3.313-1.43323v-5.42774a4.37249,4.37249,0,0,0-3.313-1.40985,4.136,4.136,0,0,0,0,8.27082Zm3.33644.72852a5.64942,5.64942,0,0,1-3.66539,1.31576,6.1679,6.1679,0,1,1,3.6419-11.16091v-5.47477l2.34961-.51685v16.96453h-2.32612v-1.12776Z"/><polygon points="277.663 208.852 280.13 208.852 280.13 215.901 288.871 215.901 288.871 208.852 291.339 208.852 291.339 225.299 288.871 225.299 288.871 218.133 280.13 218.133 280.13 225.299 277.663 225.299 277.663 208.852 277.663 208.852"/><path d="M298.50441,223.772a4.6,4.6,0,0,0,3.17225-1.12775v-2.06783a6.21433,6.21433,0,0,0-3.07827-.72835c-1.71522,0-2.77254.7754-2.77254,1.97374,0,1.15127,1.08111,1.95019,2.67856,1.95019Zm-4.93448-1.90318c0-2.25569,1.83269-3.642,4.84049-3.642a8.44372,8.44372,0,0,1,3.26624.658v-1.26887c0-1.69181-1.01062-2.53765-2.9138-2.53765a8.50049,8.50049,0,0,0-3.7124,1.01035l-.86963-1.76222a11.196,11.196,0,0,1,4.911-1.22186c3.10177,0,4.88747,1.52731,4.88747,4.27647v7.9183h-2.30262V224.2655a5.675,5.675,0,0,1-3.71267,1.24535c-2.60835,0-4.39406-1.4804-4.39406-3.642Z"/><path d="M307.76215,215.3132h-2.53758v-1.97358h2.53758V210.285l2.32611-.56387v3.61848h3.52441v1.97358h-3.52441v6.4851c0,1.22182.4934,1.66828,1.76221,1.66828a4.614,4.614,0,0,0,1.7152-.282v1.97373a7.77954,7.77954,0,0,1-2.23182.3525c-2.32643,0-3.5717-1.10438-3.5717-3.17206V215.3132Z"/><path d="M233.42056,236.55366v10.38555h2.89a5.19278,5.19278,0,1,0,0-10.38555Zm-3.40694-3.03115h6.32045a8.35473,8.35473,0,0,1,8.69384,8.27077c0,4.60552-3.78317,8.17693-8.69384,8.17693h-6.32045v-16.4477Z"/><path d="M251.62973,247.87906a4.63663,4.63663,0,0,0,2.70263-.77537V245.271a7.10923,7.10923,0,0,0-2.58487-.44672c-1.48024,0-2.3496.58741-2.3496,1.52755,0,.93984.86936,1.52724,2.23184,1.52724Zm-5.31012-1.45676c0-2.3261,1.88-3.71268,5.02846-3.71268a9.9033,9.9033,0,0,1,2.98429.46994v-.86937c0-1.40976-.86964-2.13814-2.58487-2.13814a9.48907,9.48907,0,0,0-3.73617,1.01033l-1.17479-2.3731a12.76642,12.76642,0,0,1,5.45138-1.31578c3.31324,0,5.21613,1.64473,5.21613,4.53474v7.942h-3.17168v-.84586a5.82,5.82,0,0,1-3.54791,1.05732c-2.63185,0-4.46484-1.52724-4.46484-3.75937Z"/><path d="M261.14593,240.43051h-2.51437v-2.702h2.51437v-3.12507l3.21926-.72838v3.85345h3.47742v2.702h-3.47742v5.42789c0,1.1513.44613,1.57423,1.69171,1.57423a4.95047,4.95047,0,0,0,1.71493-.28195v2.63156a9.98673,9.98673,0,0,1-2.49059.37594c-2.72525,0-4.13531-1.2453-4.13531-3.6419v-6.08577Z"/><path d="M274.16275,247.87906a4.63412,4.63412,0,0,0,2.70206-.77537V245.271a7.10494,7.10494,0,0,0-2.58428-.44672c-1.48084,0-2.34961.58741-2.34961,1.52755,0,.93984.86877,1.52724,2.23183,1.52724Zm-5.3101-1.45676c0-2.3261,1.87968-3.71268,5.02815-3.71268a9.89859,9.89859,0,0,1,2.984.46994v-.86937c0-1.40976-.86936-2.13814-2.58428-2.13814a9.48657,9.48657,0,0,0-3.73617,1.01033l-1.17481-2.3731a12.76431,12.76431,0,0,1,5.4511-1.31578c3.31323,0,5.21612,1.64473,5.21612,4.53474v7.942h-3.172v-.84586a5.81825,5.81825,0,0,1-3.54792,1.05732c-2.63155,0-4.46424-1.52724-4.46424-3.75937Z"/><path d="M299.58522,245.10622a5.53877,5.53877,0,0,0,1.10432-3.35964,5.20656,5.20656,0,1,0-5.21613,5.35711,4.91259,4.91259,0,0,0,1.69142-.282l-1.80919-2.25562,2.98429-.98713,1.24529,1.52724Zm2.09144,2.63186,1.64443,2.04416-2.984.98683-1.08051-1.36277a8.824,8.824,0,0,1-3.78316.82237,8.48544,8.48544,0,1,1,8.71733-8.48209,8.24282,8.24282,0,0,1-2.51408,5.9915Z"/><path d="M309.42978,244.84806a2.40537,2.40537,0,0,0,2.53758,2.58457,2.94607,2.94607,0,0,0,2.53758-1.22179v-8.48238h3.219v12.24175h-3.219v-.98684a5.21164,5.21164,0,0,1-3.45394,1.2218,4.66356,4.66356,0,0,1-4.84048-4.88718v-7.58953h3.21926v7.1196Z"/><path d="M324.9601,247.87906a4.63413,4.63413,0,0,0,2.702-.77537V245.271a7.10443,7.10443,0,0,0-2.58456-.44672c-1.48,0-2.34961.58741-2.34961,1.52755,0,.93984.86965,1.52724,2.23212,1.52724Zm-5.31041-1.45676c0-2.3261,1.88-3.71268,5.02847-3.71268a9.89846,9.89846,0,0,1,2.984.46994v-.86937c0-1.40976-.86936-2.13814-2.58456-2.13814a9.48662,9.48662,0,0,0-3.73589,1.01033l-1.1748-2.3731a12.76323,12.76323,0,0,1,5.45109-1.31578c3.31324,0,5.21643,1.64473,5.21643,4.53474v7.942h-3.17227v-.84586a5.81757,5.81757,0,0,1-3.54791,1.05732c-2.63186,0-4.46455-1.52724-4.46455-3.75937Z"/><polygon points="336.496 249.97 333.278 249.97 333.278 233.523 336.496 232.818 336.496 249.97 336.496 249.97"/><path d="M342.22942,249.97021h-3.219V237.72846h3.219v12.24175Zm-3.45423-15.5313a1.83286,1.83286,0,1,1,1.83271,1.83279,1.83533,1.83533,0,0,1-1.83271-1.83279Z"/><path d="M346.41113,240.43051h-2.51377v-2.702h2.51377v-3.12507l3.219-.72838v3.85345h3.47772v2.702H349.6301v5.42789c0,1.1513.44672,1.57423,1.692,1.57423a4.95092,4.95092,0,0,0,1.71522-.28195v2.63156a9.98672,9.98672,0,0,1-2.49058.37594c-2.72584,0-4.13562-1.2453-4.13562-3.6419v-6.08577Z"/><path d="M358.44113,250.0877l-4.76972-12.35924h3.54793l3.031,8.3414,3.47743-8.3414h3.47771l-5.63908,13.2051c-1.26877,2.9605-2.749,4.08831-5.42786,4.08831a5.89262,5.89262,0,0,1-1.43328-.14069v-2.77283a5.03094,5.03094,0,0,0,1.12782.09428,2.46563,2.46563,0,0,0,2.4204-1.66852l.18767-.44641Z"/><polygon points="372.35 233.523 386.824 233.523 386.824 236.53 381.303 236.53 381.303 249.97 377.896 249.97 377.896 236.53 372.35 236.53 372.35 233.523 372.35 233.523"/><path d="M394.883,243.86123a3.3874,3.3874,0,1,0-3.38346,3.54791,3.4298,3.4298,0,0,0,3.38346-3.54791Zm-3.38346-6.36773a6.35822,6.35822,0,1,1-6.53219,6.36773,6.3805,6.3805,0,0,1,6.53219-6.36773Z"/><path d="M409.45052,243.86123a3.38738,3.38738,0,1,0-3.38373,3.54791,3.42982,3.42982,0,0,0,3.38373-3.54791Zm-3.38373-6.36773a6.35822,6.35822,0,1,1-6.53219,6.36773,6.38057,6.38057,0,0,1,6.53219-6.36773Z"/><polygon points="417.791 249.97 414.572 249.97 414.572 233.523 417.791 232.818 417.791 249.97 417.791 249.97"/><path class="ab03f1f1-8ed4-4ca4-9d16-f46a6c1b5d8f" d="M184.06,229.8719a14.6679,14.6679,0,0,1,.50663,2.9756c0,4.11528-4.622,6.39469-10.70011,6.39469-13.73886,0-25.76827-8.04074-25.76827-13.359a5.41912,5.41912,0,0,1,.44314-2.15257c-4.93815.25312-11.33274,1.13953-11.33274,6.77433,0,9.24363,21.906,20.64011,39.25389,20.64011,13.29554,0,16.65108-6.01471,16.65108-10.76327,0-3.73557-3.22894-7.97738-9.05362-10.50985Zm-9.56026,3.3555c3.67214,0,8.99048-.7598,8.99048-5.12832a4.14694,4.14694,0,0,0-.09135-1.00486l-2.18778-9.50514c-.50663-2.08929-.95011-3.03894-4.62226-4.875-2.8489-1.45617-9.05363-3.862-10.88946-3.862-1.70944,0-2.21595,2.21594-4.242,2.21594-1.96269,0-3.41886-1.64619-5.25507-1.64619-1.77252,0-2.91235,1.20291-3.79859,3.67214,0,0-2.46923,6.96435-2.78587,7.97738a1.82649,1.82649,0,0,0-.06483.5699c0,2.70627,10.659,11.58615,24.94677,11.58615Z"/><path d="M184.06,229.8719a14.6679,14.6679,0,0,1,.50663,2.9756c0,4.11528-4.622,6.39469-10.70011,6.39469-13.73886,0-25.76827-8.04074-25.76827-13.359a5.41912,5.41912,0,0,1,.44314-2.15257l1.07641-2.65923a1.82649,1.82649,0,0,0-.06483.5699c0,2.70627,10.659,11.58615,24.94677,11.58615,3.67214,0,8.99048-.7598,8.99048-5.12832a4.14694,4.14694,0,0,0-.09135-1.00486l.66113,2.77768Z"/><path d="M211.65262,253.34778a.6607.6607,0,0,1-.66083-.66083V207.38357a.66083.66083,0,1,1,1.32165,0V252.687a.66089.66089,0,0,1-.66082.66083Z"/></svg>