<svg id="e2bf94c4-a19d-4520-8db7-f14955a67e3f" data-name="Layer 1" xmlns="http://www.w3.org/2000/svg" viewBox="0 0 555 320"><defs><style>.eb371926-464d-405b-95f4-8b39657c989b{fill:#e00;}</style></defs><path d="M199.33346,225.01509l-3.26363-8.21344-3.26438,8.21344Zm-4.81582-10.91551h3.29088l7.65163,18.72793h-3.04983l-2.167-5.48464h-8.37423l-2.19374,5.48464h-2.91609l7.75839-18.72793Z"/><path d="M207.06483,219.20967h2.6753v1.36441a5.60755,5.60755,0,0,1,4.09323-1.63194,5.0842,5.0842,0,0,1,5.32412,5.32387v8.5615h-2.67531v-8.1067a3.16937,3.16937,0,0,0-3.37114-3.45115,3.84807,3.84807,0,0,0-3.3709,1.76571v9.79214h-2.6753V219.20967Z"/><path d="M222.39383,229.29584a7.13513,7.13513,0,0,0,4.44075,1.71219c1.92621,0,3.26439-.82933,3.26439-2.03323,0-.96311-.69583-1.52492-2.19427-1.73894l-2.46128-.3478c-2.70206-.40129-4.06672-1.65894-4.06672-3.77243,0-2.46129,2.1405-4.12,5.32438-4.12a9.33755,9.33755,0,0,1,5.48438,1.739L230.821,222.5003a7.57023,7.57023,0,0,0-4.30749-1.41791c-1.63194,0-2.72856.74908-2.72856,1.846,0,.98985.64208,1.47141,2.24725,1.71219l2.46128.34779c2.70206.4013,4.12,1.6857,4.12,3.79919,0,2.43454-2.46127,4.28075-5.6984,4.28075a8.98088,8.98088,0,0,1-5.96644-2.00674l1.44518-1.7657Z"/><path d="M237.34879,232.82751h-2.6753V219.20967h2.6753v13.61784ZM234.37894,215.357a1.64442,1.64442,0,0,1,1.63194-1.65868,1.65869,1.65869,0,1,1,0,3.31738,1.64443,1.64443,0,0,1-1.63194-1.6587Z"/><path d="M243.18044,222.95511v6.15346a5.049,5.049,0,0,0,3.79894,1.60518,4.69624,4.69624,0,0,0,0-9.39058,4.88459,4.88459,0,0,0-3.79894,1.63194Zm4.09323,10.08641a6.80326,6.80326,0,0,1-4.12-1.36466v1.15065h-2.64855V214.09958l2.6753-.58857v6.98282a6.30831,6.30831,0,0,1,4.14673-1.49818,7.024,7.024,0,0,1-.0535,14.04587Z"/><polygon points="259.419 232.828 256.744 232.828 256.744 214.1 259.419 213.511 259.419 232.828 259.419 232.828"/><path d="M264.63589,224.88133h8.08a4.0621,4.0621,0,0,0-8.08,0Zm4.46828,8.18695a7.0076,7.0076,0,0,1-7.14359-7.06307,6.84258,6.84258,0,0,1,6.82255-7.00956c3.74545,0,6.58125,3.10335,6.58125,7.11658v.77583h-10.755a4.593,4.593,0,0,0,4.60178,3.906,5.29767,5.29767,0,0,0,3.45117-1.20389l1.71218,1.68544a8.1212,8.1212,0,0,1-5.27036,1.79271Z"/><path d="M294.51908,225.01509l-3.26362-8.21344-3.26439,8.21344Zm-4.81556-10.91551h3.29089l7.65163,18.72793h-3.0501l-2.16675-5.48464H287.055l-2.194,5.48464h-2.91582l7.75839-18.72793Z"/><path d="M304.33745,227.28936a3.19016,3.19016,0,0,0,3.3709,3.4779,3.82562,3.82562,0,0,0,3.34437-1.79246v-9.76513H313.728v13.61784h-2.67531v-1.36467a5.56378,5.56378,0,0,1-4.09347,1.63219,5.08437,5.08437,0,0,1-5.2971-5.35087v-8.53449h2.6753v8.07969Z"/><path d="M318.65009,221.45693h-2.88934v-2.24726h2.88934v-3.47815l2.64856-.64208v4.12023h4.01321v2.24726h-4.01321V228.841c0,1.39116.56206,1.89947,2.00646,1.89947a5.25824,5.25824,0,0,0,1.95324-.321V232.667a8.862,8.862,0,0,1-2.54154.4013c-2.64882,0-4.06672-1.25766-4.06672-3.61192v-7.99943Z"/><path d="M337.91257,226.00521a4.46284,4.46284,0,1,0-4.441,4.7353,4.54491,4.54491,0,0,0,4.441-4.7353Zm-4.441-7.06307a7.07646,7.07646,0,1,1-7.08982,7.06307,6.989,6.989,0,0,1,7.08982-7.06307Z"/><path d="M343.0754,219.20967h2.67528v1.28416a5.22645,5.22645,0,0,1,3.826-1.55169,4.74511,4.74511,0,0,1,4.20048,2.274,5.454,5.454,0,0,1,4.60153-2.274,4.989,4.989,0,0,1,5.11011,5.32387v8.5615h-2.67531v-8.1067c0-2.14025-1.20391-3.45115-3.13012-3.45115a3.63182,3.63182,0,0,0-3.18388,1.81921,5.6512,5.6512,0,0,1,.107,1.17714v8.5615h-2.64881v-8.1067c0-2.14025-1.20364-3.45115-3.1301-3.45115a3.56823,3.56823,0,0,0-3.07688,1.6587v9.89915H343.0754V219.20967Z"/><path d="M371.48688,231.08829a5.2365,5.2365,0,0,0,3.61192-1.28414v-2.35427a7.07283,7.07283,0,0,0-3.50491-.82935c-1.953,0-3.1566.88286-3.1566,2.24726,0,1.31091,1.23039,2.2205,3.04959,2.2205Zm-5.61814-2.167c0-2.5683,2.08674-4.147,5.51114-4.147a9.60989,9.60989,0,0,1,3.71892.74935v-1.44493c0-1.92622-1.15036-2.88933-3.31738-2.88933a9.6796,9.6796,0,0,0-4.22723,1.15038l-.98987-2.00647a12.74582,12.74582,0,0,1,5.59166-1.39117c3.5314,0,5.56488,1.739,5.56488,4.86906v9.01631H375.0988v-1.1774a6.4583,6.4583,0,0,1-4.227,1.41817c-2.9696,0-5.00308-1.68571-5.00308-4.147Z"/><path d="M382.02786,221.45693h-2.8896v-2.24726h2.8896v-3.47815l2.64881-.64208v4.12023h4.01192v2.24726h-4.01192V228.841c0,1.39116.56155,1.89947,2.00649,1.89947a5.25794,5.25794,0,0,0,1.954-.321V232.667a8.87079,8.87079,0,0,1-2.54283.4013c-2.64856,0-4.06646-1.25766-4.06646-3.61192v-7.99943Z"/><path d="M393.34464,232.82751h-2.67529V219.20967h2.67529v13.61784ZM390.37353,215.357a1.6449,1.6449,0,0,1,1.63349-1.65868,1.65869,1.65869,0,1,1,0,3.31738,1.64491,1.64491,0,0,1-1.63349-1.6587Z"/><path d="M407.41578,226.00521a4.46249,4.46249,0,1,0-4.44,4.7353,4.54394,4.54394,0,0,0,4.44-4.7353Zm-4.44-7.06307a7.07646,7.07646,0,1,1-7.08957,7.06307,6.99014,6.99014,0,0,1,7.08957-7.06307Z"/><path d="M412.57856,219.20967h2.67532v1.36441a5.60978,5.60978,0,0,1,4.09528-1.63194,5.08389,5.08389,0,0,1,5.32231,5.32387v8.5615h-2.67532v-8.1067a3.16813,3.16813,0,0,0-3.36985-3.45115,3.8489,3.8489,0,0,0-3.37242,1.76571v9.79214h-2.67532V219.20967Z"/><path d="M191.441,244.3429v6.34074h5.5649c2.19376,0,3.58517-1.23064,3.58517-3.18363,0-1.92647-1.39141-3.15711-3.58517-3.15711Zm-2.80932-2.46128h8.66851c3.66543,0,6.12671,2.274,6.12671,5.61839,0,3.29064-2.48829,5.56465-6.12671,5.56465H191.441v7.54487h-2.80932V241.88162Z"/><polygon points="208.67 260.61 205.995 260.61 205.995 241.882 208.67 241.293 208.67 260.61 208.67 260.61"/><path d="M216.74892,258.87033a5.23656,5.23656,0,0,0,3.61193-1.28414v-2.35428a7.073,7.073,0,0,0-3.50491-.82935c-1.953,0-3.15661.88286-3.15661,2.24727,0,1.3109,1.23039,2.2205,3.04959,2.2205Zm-5.61814-2.167c0-2.56831,2.08674-4.147,5.51113-4.147a9.61021,9.61021,0,0,1,3.71894.74935v-1.44492c0-1.92622-1.15038-2.88933-3.31737-2.88933a9.67949,9.67949,0,0,0-4.22725,1.15039l-.99012-2.0065a12.74786,12.74786,0,0,1,5.59191-1.39115c3.5314,0,5.56489,1.739,5.56489,4.86906v9.01629h-2.62206v-1.17739a6.45822,6.45822,0,0,1-4.227,1.41817c-2.96959,0-5.00308-1.6857-5.00308-4.147Z"/><path d="M227.2899,249.239h-2.88959v-2.24725h2.88959v-3.47817l2.6488-.64206v4.12023h4.013V249.239h-4.013v7.3841c0,1.39117.56157,1.89947,2.00649,1.89947a5.25435,5.25435,0,0,0,1.953-.321V260.449a8.86137,8.86137,0,0,1-2.54181.40129c-2.64856,0-4.06646-1.25765-4.06646-3.61192V249.239Z"/><path d="M238.23164,246.99172v-2.06025c0-2.83583,1.63195-4.38751,4.62829-4.38751a7.02072,7.02072,0,0,1,1.92622.24078v2.32752a5.35177,5.35177,0,0,0-1.68545-.24077c-1.47141,0-2.19375.66882-2.19375,2.11348v2.00675h3.8792V249.239H240.907v11.37056h-2.67531V249.239h-3.15737v-2.24725Z"/><path d="M257.17307,253.78725a4.463,4.463,0,1,0-4.44152,4.73529,4.54547,4.54547,0,0,0,4.44152-4.73529Zm-4.44152-7.06307a7.07646,7.07646,0,1,1-7.08956,7.06307,6.989,6.989,0,0,1,7.08956-7.06307Z"/><path d="M262.3359,246.99172h2.6753v1.73894a4.26265,4.26265,0,0,1,3.7457-2.03323,3.40019,3.40019,0,0,1,1.36441.214v2.40778a4.58224,4.58224,0,0,0-1.57845-.29428,3.71759,3.71759,0,0,0-3.53166,2.488v9.09655h-2.6753V246.99172Z"/><path d="M272.26077,246.99172h2.67533v1.28413a5.22674,5.22674,0,0,1,3.82593-1.55167,4.74506,4.74506,0,0,1,4.20048,2.274,5.454,5.454,0,0,1,4.60154-2.274,4.98916,4.98916,0,0,1,5.11036,5.32385v8.5615h-2.67558v-8.10669c0-2.14024-1.20388-3.45114-3.13011-3.45114a3.6318,3.6318,0,0,0-3.18387,1.81921,5.65175,5.65175,0,0,1,.107,1.17712v8.5615h-2.6488v-8.10669c0-2.14024-1.20362-3.45114-3.13012-3.45114a3.56848,3.56848,0,0,0-3.07684,1.65869v9.89914h-2.67533V246.99172Z"/><path class="eb371926-464d-405b-95f4-8b39657c989b" d="M171.3644,195.278a12.84027,12.84027,0,0,1,.444,2.60622c0,3.60477-4.04871,5.60085-9.37154,5.60085-12.03423,0-22.57-7.04243-22.57-11.70066a4.74072,4.74072,0,0,1,.38812-1.88534c-4.3256.22182-9.92639.99794-9.92639,5.93337,0,8.09612,19.18733,18.07784,34.38131,18.07784,11.64607,0,14.58453-5.26778,14.58453-9.42686,0-3.27228-2.82811-6.987-7.93-9.20542m-8.37345,2.93919c3.2168,0,7.87466-.66572,7.87466-4.49192a3.6378,3.6378,0,0,0-.08-.88038l-1.91619-8.32479c-.444-1.82993-.83191-2.66195-4.0482-4.27022-2.49549-1.27514-7.93-3.38231-9.53829-3.38231-1.49722,0-1.94037,1.94049-3.71541,1.94049-1.71855,0-2.99422-1.44146-4.60223-1.44146-1.55248,0-2.55107,1.05334-3.32728,3.21628,0,0-2.16294,6.0998-2.4403,6.98656a1.60391,1.60391,0,0,0-.057.49967c0,2.37068,9.33652,10.14808,21.85022,10.14808"/><path d="M171.3644,195.278a12.84027,12.84027,0,0,1,.444,2.60622c0,3.60477-4.04871,5.60085-9.37154,5.60085-12.03423,0-22.57-7.04243-22.57-11.70066a4.74072,4.74072,0,0,1,.38812-1.88534l.94279-2.32963a1.60391,1.60391,0,0,0-.057.49967c0,2.37068,9.33652,10.14808,21.85022,10.14808,3.2168,0,7.87466-.66572,7.87466-4.49192a3.6378,3.6378,0,0,0-.08-.88038l.57879,2.43311Z"/><path d="M188.341,204.96778h4.653V198.069h3.54427l3.571,6.89881h5.19422l-4.166-7.57508a5.72991,5.72991,0,0,0,3.571-5.3296c0-3.4087-2.67839-6.033-6.68235-6.033H188.341v18.93767Zm9.25218-14.96073a2.15248,2.15248,0,1,1,0,4.2745H192.994v-4.2745Zm7.54772,7.81848a7.51368,7.51368,0,0,0,7.79131,7.41262,8.58683,8.58683,0,0,0,5.9788-2.16417l-2.89448-2.57015a3.87635,3.87635,0,0,1-2.86773,1.08208,3.69819,3.69819,0,0,1-3.517-2.27247H219.8312v-1.08208c0-4.54507-3.05731-7.81848-7.22334-7.81848a7.351,7.351,0,0,0-7.46693,7.41265m7.38564-3.84166a3.16569,3.16569,0,0,1,3.003,2.2726h-5.9788a2.98,2.98,0,0,1,2.97576-2.2726m19.857,10.98391h4.3286V185.0833l-4.38261.94681v5.38374a7.37461,7.37461,0,1,0-3.78761,13.74326,6.45437,6.45437,0,0,0,3.84162-1.24453v1.0552Zm-6.84466-7.16926a3.624,3.624,0,0,1,3.7606-3.62524,4.43445,4.43445,0,0,1,3.03,1.10922v5.00491a4.21047,4.21047,0,0,1-3.03,1.13623,3.64015,3.64015,0,0,1-3.7606-3.62512m17.73162,7.16926h4.65324V197.555H255.715v7.41281h4.65322V186.03011H255.715v7.2775h-7.79132v-7.2775h-4.65324v18.93767Zm23.77989.24335a6.69688,6.69688,0,0,0,3.94993-1.10922v.86587h4.32858V195.7965c0-3.48984-2.35373-5.41074-6.27667-5.41074a15.92587,15.92587,0,0,0-6.68209,1.5692l1.56916,3.21927a11.69678,11.69678,0,0,1,4.32862-1.13624c1.81251,0,2.7324.70341,2.7324,2.13732v.7034a12.7053,12.7053,0,0,0-3.24637-.40582c-3.67934,0-5.89778,1.542-5.89778,4.30148,0,2.51594,2.0021,4.43676,5.19422,4.43676m-1.33716-4.5179c0-.94693.94691-1.40678,2.38077-1.40678a11.00131,11.00131,0,0,1,2.59711.32457v1.83973a5.53089,5.53089,0,0,1-2.73242.67632c-1.40658,0-2.24546-.54116-2.24546-1.43384m13.61911-.08113c0,3.05687,1.84032,4.545,5.1945,4.545a13.42808,13.42808,0,0,0,3.05728-.43294v-3.544a6.36823,6.36823,0,0,1-1.97509.29756c-1.37983,0-1.89355-.43284-1.89355-1.73147v-5.43774h4.0037V190.6563h-4.0037v-4.62619l-4.38314.947v3.67923h-2.89473v3.65226h2.89473v6.30354Z"/><polygon points="208.335 95.925 222.14 95.925 222.14 98.386 211.145 98.386 211.145 104.005 218.368 104.005 218.368 106.413 211.145 106.413 211.145 112.191 222.247 112.191 222.247 114.653 208.335 114.653 208.335 95.925 208.335 95.925"/><path d="M224.81549,101.03516h2.6753v1.36441a5.608,5.608,0,0,1,4.09323-1.63194,5.0844,5.0844,0,0,1,5.32436,5.32386v8.5615h-2.67555v-8.1067a3.16924,3.16924,0,0,0-3.37116-3.45114,3.8484,3.8484,0,0,0-3.37088,1.7657V114.653h-2.6753V101.03516Z"/><path d="M241.2146,103.28243H238.325v-2.24727h2.88959V97.557l2.64882-.64207v4.12022h4.013v2.24727h-4.013v7.38411c0,1.39114.56155,1.89946,2.00673,1.89946a5.25369,5.25369,0,0,0,1.95271-.321v2.24752a8.8594,8.8594,0,0,1-2.54179.4013c-2.64829,0-4.06647-1.25766-4.06647-3.61192v-7.99942Z"/><path d="M251.62207,106.70681h8.07967a4.06194,4.06194,0,0,0-8.07967,0Zm4.46775,8.187a7.00769,7.00769,0,0,1-7.14332-7.06306,6.8427,6.8427,0,0,1,6.82229-7.00957c3.74568,0,6.58176,3.10335,6.58176,7.11657v.77583H251.595a4.59364,4.59364,0,0,0,4.6018,3.906,5.29663,5.29663,0,0,0,3.45139-1.20389l1.71221,1.68544a8.12091,8.12091,0,0,1-5.27062,1.79272Z"/><path d="M264.89133,101.03516h2.6753v1.73895a4.26292,4.26292,0,0,1,3.74569-2.03323,3.39818,3.39818,0,0,1,1.3644.214v2.40778a4.58186,4.58186,0,0,0-1.57843-.29429,3.718,3.718,0,0,0-3.53166,2.488V114.653h-2.6753V101.03516Z"/><path d="M277.49151,104.78059v6.15347a5.04969,5.04969,0,0,0,3.79945,1.60518,4.69625,4.69625,0,0,0,0-9.39058,4.88537,4.88537,0,0,0-3.79945,1.63193Zm-2.67531-3.74543H277.465v1.3109a6.21337,6.21337,0,0,1,4.17346-1.52492,7.023,7.023,0,1,1-4.147,12.708v6.66178H274.8162V101.03516Z"/><path d="M291.05556,101.03516h2.67532v1.73895a4.2623,4.2623,0,0,1,3.74569-2.03323,3.39772,3.39772,0,0,1,1.36415.214v2.40778a4.57952,4.57952,0,0,0-1.57818-.29429,3.7173,3.7173,0,0,0-3.53166,2.488V114.653h-2.67532V101.03516Z"/><path d="M303.65576,114.653h-2.67531V101.03516h2.67531V114.653ZM300.6859,97.18247a1.64443,1.64443,0,0,1,1.632-1.6587,1.6587,1.6587,0,1,1,0,3.31739,1.64443,1.64443,0,0,1-1.632-1.65869Z"/><path d="M306.97287,111.12132a7.13574,7.13574,0,0,0,4.44075,1.7122c1.92649,0,3.26439-.82934,3.26439-2.03323,0-.96311-.69582-1.52493-2.194-1.739l-2.46153-.3478c-2.70207-.40129-4.06647-1.65894-4.06647-3.77242,0-2.46129,2.14023-4.12,5.32411-4.12a9.33709,9.33709,0,0,1,5.48438,1.739l-1.36441,1.7657a7.56961,7.56961,0,0,0-4.3075-1.41791c-1.63167,0-2.72855.74909-2.72855,1.846,0,.98987.64208,1.47142,2.24726,1.7122l2.46153.34778c2.70207.4013,4.11972,1.68571,4.11972,3.79921,0,2.43452-2.46128,4.28074-5.6984,4.28074A8.98018,8.98018,0,0,1,305.528,112.887l1.44491-1.76571Z"/><path d="M321.44577,106.70681h8.08a4.0621,4.0621,0,0,0-8.08,0Zm4.468,8.187a7.0077,7.0077,0,0,1-7.14334-7.06306,6.84255,6.84255,0,0,1,6.82231-7.00957c3.74543,0,6.5815,3.10335,6.5815,7.11657v.77583H321.419a4.59345,4.59345,0,0,0,4.6018,3.906,5.29722,5.29722,0,0,0,3.4514-1.20389l1.71218,1.68544a8.12133,8.12133,0,0,1-5.2706,1.79272Z"/><polygon points="340.628 95.925 343.437 95.925 343.437 112.165 354.219 112.165 354.219 114.653 340.628 114.653 340.628 95.925 340.628 95.925"/><path d="M359.40838,114.653h-2.67557V101.03516h2.67557V114.653Zm-2.96961-17.47052a1.6441,1.6441,0,0,1,1.63194-1.6587,1.6587,1.6587,0,1,1,0,3.31739,1.6441,1.6441,0,0,1-1.63194-1.65869Z"/><path d="M362.565,101.03516h2.67532v1.36441a5.60854,5.60854,0,0,1,4.09348-1.63194,5.0842,5.0842,0,0,1,5.32411,5.32386v8.5615h-2.67557v-8.1067a3.16923,3.16923,0,0,0-3.37114-3.45114,3.84868,3.84868,0,0,0-3.37088,1.7657V114.653H362.565V101.03516Z"/><path d="M380.22176,109.11484a3.19021,3.19021,0,0,0,3.37114,3.47791,3.82583,3.82583,0,0,0,3.34413-1.79246v-9.76513h2.67557V114.653H386.937v-1.36467a5.564,5.564,0,0,1-4.09321,1.6322,5.08465,5.08465,0,0,1-5.29762-5.35087v-8.53449h2.67556v8.07968Z"/><polygon points="396.541 107.67 391.458 101.035 394.588 101.035 398.093 105.717 401.597 101.035 404.621 101.035 399.591 107.643 404.969 114.653 401.811 114.653 398.066 109.623 394.267 114.653 391.243 114.653 396.541 107.67 396.541 107.67"/><path class="eb371926-464d-405b-95f4-8b39657c989b" d="M191.06725,77.10346a12.84,12.84,0,0,1,.444,2.60622c0,3.60477-4.04871,5.60085-9.37154,5.60085-12.0342,0-22.57008-7.04244-22.57008-11.70066a4.74086,4.74086,0,0,1,.3881-1.88535c-4.32558.22183-9.92634.998-9.92634,5.93337,0,8.09612,19.18735,18.07785,34.38156,18.07785,11.64556,0,14.584-5.26778,14.584-9.42686,0-3.27228-2.82784-6.987-7.92972-9.20542m-8.37345,2.93919c3.21654,0,7.87467-.66572,7.87467-4.49192a3.63646,3.63646,0,0,0-.08-.88036l-1.91617-8.32481c-.444-1.82993-.83193-2.662-4.0482-4.27022-2.4955-1.27515-7.93-3.38231-9.53825-3.38231-1.4973,0-1.94051,1.94049-3.71538,1.94049-1.71871,0-2.99424-1.44146-4.60246-1.44146-1.55237,0-2.551,1.05333-3.32723,3.21627,0,0-2.163,6.09981-2.44016,6.98657a1.60575,1.60575,0,0,0-.05714.49966c0,2.37069,9.33652,10.14809,21.85034,10.14809"/><path d="M191.06725,77.10346a12.84,12.84,0,0,1,.444,2.60622c0,3.60477-4.04871,5.60085-9.37154,5.60085-12.0342,0-22.57008-7.04244-22.57008-11.70066a4.74086,4.74086,0,0,1,.3881-1.88535l.94287-2.32962a1.60575,1.60575,0,0,0-.05714.49966c0,2.37069,9.33652,10.14809,21.85034,10.14809,3.21654,0,7.87467-.66572,7.87467-4.49192a3.63646,3.63646,0,0,0-.08-.88036l.5788,2.43309Z"/><path d="M208.04388,86.793h4.65324V79.89445h3.544l3.571,6.89856h5.19422l-4.16629-7.57482a5.72977,5.72977,0,0,0,3.57128-5.3296c0-3.4087-2.67839-6.033-6.68235-6.033h-9.68512V86.793Zm9.25219-14.96047a2.15245,2.15245,0,1,1,0,4.2745h-4.59895v-4.2745Zm7.54771,7.81848a7.51367,7.51367,0,0,0,7.79132,7.4126,8.58762,8.58762,0,0,0,5.97879-2.16416l-2.89447-2.57015a3.87672,3.87672,0,0,1-2.86772,1.08208,3.6982,3.6982,0,0,1-3.517-2.27246h10.19909V80.05685c0-4.54507-3.05706-7.81846-7.22334-7.81846a7.35081,7.35081,0,0,0-7.46667,7.41263m7.38565-3.84166A3.16514,3.16514,0,0,1,235.2322,78.082h-5.97879a2.9807,2.9807,0,0,1,2.976-2.27259M252.08638,86.793h4.3286V66.90879l-4.38262.94683v5.38372a7.37455,7.37455,0,1,0-3.78762,13.74326,6.45435,6.45435,0,0,0,3.84164-1.24454V86.793Zm-6.84467-7.169a3.624,3.624,0,0,1,3.76061-3.62524,4.4344,4.4344,0,0,1,3.03,1.10922V82.1129a4.21086,4.21086,0,0,1-3.03,1.13623,3.64015,3.64015,0,0,1-3.76061-3.62512m17.73163,7.169h4.653V79.38046h7.79156V86.793h4.65324V67.85562h-4.65324V75.1331h-7.79156V67.85562h-4.653V86.793Zm23.77987.24361a6.69686,6.69686,0,0,0,3.95-1.10923V86.793h4.32857V77.622c0-3.48983-2.35373-5.41073-6.27641-5.41073a15.9262,15.9262,0,0,0-6.68236,1.5692l1.56918,3.21926a11.69453,11.69453,0,0,1,4.3286-1.13623c1.81251,0,2.73242.7034,2.73242,2.13731v.7034a12.70571,12.70571,0,0,0-3.24638-.40582c-3.67933,0-5.89778,1.54206-5.89778,4.30149,0,2.51594,2.00186,4.43676,5.19421,4.43676m-1.33715-4.5179c0-.94693.94693-1.40678,2.38077-1.40678a11.00132,11.00132,0,0,1,2.59712.32457v1.83974a5.53168,5.53168,0,0,1-2.73243.67625c-1.40684,0-2.24546-.54111-2.24546-1.43378m13.61913-.08113c0,3.05687,1.84,4.545,5.19448,4.545a13.44459,13.44459,0,0,0,3.05728-.43294v-3.544a6.36894,6.36894,0,0,1-1.97533.29755c-1.37959,0-1.8933-.43284-1.8933-1.73147V76.13405h4.0037V72.48179h-4.0037V67.85562l-4.38313.94693v3.67924h-2.89474v3.65226h2.89474v6.30354Z"/></svg>