<svg id="a9507dfc-862f-422d-b430-cf61209a937b" data-name="Layer 1" xmlns="http://www.w3.org/2000/svg" xmlns:xlink="http://www.w3.org/1999/xlink" viewBox="0 0 847 380"><defs><style>.adc27e1e-6cab-4710-8916-ba36ce448b8c{fill:none;}.e6b20f74-7537-4025-a979-266dab895be7{fill:#f2f2f2;}.b350d0b2-8f1d-49c8-b2d5-43ff26adf054{fill:#c9c9c9;}.adecd18d-6ae9-4309-97a7-de2f4a477080{fill:#6c6c6c;}.a065851a-5bc2-4361-b9c5-34025e994ee9{fill:#5f0000;}.a567f711-11b5-4ce8-abec-3022de68cfcb{fill:#e00;}.fb297634-d452-4e19-b337-b87a9858e45a{fill:#f56d6d;}.fdcf7852-63cc-4b49-a327-d918c726d371{fill:#fddbdb;}.aabbc9e1-99e2-448e-8b04-8a5351549236{isolation:isolate;}.a3085137-6681-42de-988e-ac9d6708a3d1{fill:#8f0000;}.bd1814e7-8d7a-42c5-bfe0-51fcb3d1ddb3{fill:#fab6b6;}.a039c9cc-9bf9-47eb-ae87-bee1f5dbf0ed{fill:#4d4d4d;}.b342d3e8-c24d-49a3-ba14-e22f3b9cfb12{fill:#8b8b8b;}.e012104a-686f-42b8-b44f-44be6db16e0a{fill:#f3f3f3;}.a4ab3343-0bde-44af-abc3-3152867c1916{fill:#dedede;}.a3e95a46-e185-4da4-85ec-71d08d544e15{clip-path:url(#bc6f997b-51bf-4459-85ef-55f7e651cd70);}.a2e84beb-e850-4c60-8e0b-5914efd85beb{fill:red;}.b365b0c4-5498-4b67-b33b-8c4cc7e568a1{fill:#2e2e2e;}.e549e385-6cf7-42c5-875e-d1fdebd79e74{fill:#fff;}.a4546803-24a2-427b-91bd-c971bd50da81{fill:#fadfdf;}.e853da97-d17b-4a7c-8c2c-48b2bb487d4f{clip-path:url(#bca81b60-b41a-42fb-89cb-0cae622a6bf9);}.f5990b1f-911a-43b0-b8d3-cc8823b47a77{clip-path:url(#efdea35c-c338-4fc6-aa97-ee0d49d67af1);}.bc3902b0-17bd-42f3-8911-e454b3477c40{clip-path:url(#b90d73c6-ed14-48d6-a433-ac8819fdfd2f);}.b57cb5c7-b6dd-43e1-ba0c-06de5feaabf8{clip-path:url(#a9abb270-658e-4a37-90df-26fd3409060e);}.b85af638-c75d-4d6d-a681-2b1700c2e8b5{clip-path:url(#b7d27eb6-7ace-4539-b653-9a804b7a5050);}</style><clipPath id="bc6f997b-51bf-4459-85ef-55f7e651cd70"><path class="adc27e1e-6cab-4710-8916-ba36ce448b8c" d="M507,200H847V380H507V200Z"/></clipPath><clipPath id="bca81b60-b41a-42fb-89cb-0cae622a6bf9"><path id="e9366c70-4ac1-4991-bae3-bffa293be1c4" data-name="Rectangle 4740" class="adc27e1e-6cab-4710-8916-ba36ce448b8c" d="M53,200H393V380H53V200Z"/></clipPath><clipPath id="efdea35c-c338-4fc6-aa97-ee0d49d67af1"><path class="adc27e1e-6cab-4710-8916-ba36ce448b8c" d="M281.88,370.33c-9.78,33.19-57.25,32.05-87.59,32.05-26.32,0-79.19-13.24-88.66-43.49a45.71,45.71,0,0,1-.52-27.24c2.78-9,7.21-17.75,8.09-27.27a66.72,66.72,0,0,0-3.3-27.76c-3-8.8-8.36-16.42-12.11-24.89-15.53-35.06,27.59-59.6,57.39-47,14.23,6,26.94,14.49,42.27,17.76,11,2.35,22.32,3,33.38.77,10.58-2.18,21.65-6.33,32.5-3.26,14.62,4.13,20.65,19.45,18.3,33.37-2.76,16.31-12.8,30.59-13.95,47.29-.8,11.72,1.9,23.42,6.7,34.37C279.27,346.15,285.55,357.84,281.88,370.33Z"/></clipPath><clipPath id="b90d73c6-ed14-48d6-a433-ac8819fdfd2f"><polygon class="adc27e1e-6cab-4710-8916-ba36ce448b8c" points="168.01 235.13 168.01 257.52 148.63 268.71 129.24 257.52 129.24 235.13 148.63 223.94 168.01 235.13"/></clipPath><clipPath id="a9abb270-658e-4a37-90df-26fd3409060e"><polygon class="adc27e1e-6cab-4710-8916-ba36ce448b8c" points="186.94 263.1 186.94 293.42 160.67 308.58 134.41 293.42 134.41 263.1 160.67 247.93 186.94 263.1"/></clipPath><clipPath id="b7d27eb6-7ace-4539-b653-9a804b7a5050"><polygon class="adc27e1e-6cab-4710-8916-ba36ce448b8c" points="147.39 287.59 147.39 302.64 134.36 310.16 121.33 302.64 121.33 287.59 134.36 280.07 147.39 287.59"/></clipPath></defs><rect id="a15f1049-7547-4b60-9804-cce6b976826a" data-name="Rectangle 377-8" class="e6b20f74-7537-4025-a979-266dab895be7" x="454" y="231" width="33" height="33"/><rect id="f1a0f6b6-3018-468f-89fd-6f9a6f5e5122" data-name="Rectangle 378-4" class="b350d0b2-8f1d-49c8-b2d5-43ff26adf054" x="454" y="198" width="33" height="33"/><rect id="a8fdbf58-881d-495d-8989-44d0185acd7d" data-name="Rectangle 379-2" class="adecd18d-6ae9-4309-97a7-de2f4a477080" x="454" y="165" width="33" height="33"/><rect id="b36f556c-37e6-4fae-8b23-88a2eeeac54a" data-name="Rectangle 380-7" x="454" y="132" width="33" height="33"/><rect id="b47c9566-001d-4748-9a5f-247c3445c081" data-name="Rectangle 381-4" class="a065851a-5bc2-4361-b9c5-34025e994ee9" x="454" y="99" width="33" height="33"/><rect id="a4144c35-ab94-4a91-9c65-9d5cba7717dc" data-name="Rectangle 382-4" class="a567f711-11b5-4ce8-abec-3022de68cfcb" x="454" y="66" width="33" height="33"/><rect id="bb2ffcb2-b103-40af-88e1-57929c22f4d0" data-name="Rectangle 383-4" class="fb297634-d452-4e19-b337-b87a9858e45a" x="454" y="33" width="33" height="33"/><rect id="ae197a6e-f587-4e88-8c84-4c6859281e47" data-name="Rectangle 384-4" class="fdcf7852-63cc-4b49-a327-d918c726d371" x="454" width="33" height="33"/><g id="a00499ef-0f7f-4f69-b9d4-47b67233b8c9" data-name="A -"><g class="aabbc9e1-99e2-448e-8b04-8a5351549236"><path d="M721.8,42.45l2.62-6.35h1.12l2.6,6.35h-1l-.73-1.86h-2.85l-.73,1.86Zm2-2.65h2.22L725,37Z"/><path d="M730.46,40.27V39.5h3.27v.77Z"/><path d="M737.41,42.45V37l-1.14.49v-.8l1.48-.61h.57v6.35Z"/><path d="M741.93,42.54a2.37,2.37,0,0,1-1.34-.39,2.52,2.52,0,0,1-.9-1.08,3.73,3.73,0,0,1-.33-1.61,4.25,4.25,0,0,1,.36-1.82,2.89,2.89,0,0,1,1-1.21,2.72,2.72,0,0,1,1.54-.43,2.8,2.8,0,0,1,.86.13,2.21,2.21,0,0,1,.75.38l-.46.65a2.38,2.38,0,0,0-.58-.28,2,2,0,0,0-.65-.1,1.68,1.68,0,0,0-1.05.32,2,2,0,0,0-.67.9,3.79,3.79,0,0,0-.25,1.42,2.23,2.23,0,0,1,.81-.69,2.16,2.16,0,0,1,1-.25,2.44,2.44,0,0,1,1.1.25,1.88,1.88,0,0,1,.75.7,1.85,1.85,0,0,1,.28,1,2.08,2.08,0,0,1-.29,1.08,2.11,2.11,0,0,1-.79.75A2.34,2.34,0,0,1,741.93,42.54Zm0-3.36a2,2,0,0,0-.9.22,2.36,2.36,0,0,0-.73.61,2.75,2.75,0,0,0,.31.93,1.61,1.61,0,0,0,.56.62,1.39,1.39,0,0,0,.78.22,1.48,1.48,0,0,0,.7-.17,1.14,1.14,0,0,0,.49-.46,1.34,1.34,0,0,0,.18-.69,1.21,1.21,0,0,0-.18-.66,1.18,1.18,0,0,0-.49-.45A1.53,1.53,0,0,0,741.89,39.18Z"/><path d="M746.15,39.32a1.22,1.22,0,0,1-1-.46,2,2,0,0,1,0-2.35,1.24,1.24,0,0,1,1-.46,1.22,1.22,0,0,1,1,.46,2,2,0,0,1,0,2.35A1.22,1.22,0,0,1,746.15,39.32Zm0-.52a.71.71,0,0,0,.6-.3,1.33,1.33,0,0,0,.22-.82,1.37,1.37,0,0,0-.22-.82.71.71,0,0,0-.6-.3.69.69,0,0,0-.58.3,1.37,1.37,0,0,0-.22.82,1.4,1.4,0,0,0,.21.82A.7.7,0,0,0,746.15,38.8Zm-.32,3.65,3.57-6.35h.72l-3.59,6.35Zm4,0a1.25,1.25,0,0,1-1-.45,1.78,1.78,0,0,1-.38-1.18,1.8,1.8,0,0,1,.38-1.18,1.28,1.28,0,0,1,1-.45,1.26,1.26,0,0,1,1,.45,1.86,1.86,0,0,1,.39,1.18,1.84,1.84,0,0,1-.39,1.18A1.26,1.26,0,0,1,749.84,42.49Zm0-.51a.7.7,0,0,0,.59-.3,1.33,1.33,0,0,0,.22-.82,1.35,1.35,0,0,0-.22-.82.7.7,0,0,0-.59-.3.71.71,0,0,0-.59.3,1.35,1.35,0,0,0-.22.82,1.33,1.33,0,0,0,.22.82A.68.68,0,0,0,749.84,42Z"/></g></g><g id="e5a32eb4-716c-4d85-9fd8-4153a799332a" data-name="B -"><g class="aabbc9e1-99e2-448e-8b04-8a5351549236"><path d="M722.44,62.29V55.93h2.74a2.75,2.75,0,0,1,1.09.21,1.69,1.69,0,0,1,.72.59,1.55,1.55,0,0,1,.26.88,1.44,1.44,0,0,1-.24.82,1.6,1.6,0,0,1-.66.55,1.9,1.9,0,0,1,.83.59,1.39,1.39,0,0,1,.31.9,1.71,1.71,0,0,1-.27,1,1.63,1.63,0,0,1-.76.63,2.79,2.79,0,0,1-1.16.23Zm.95-3.66h1.73a1.33,1.33,0,0,0,.86-.25A.89.89,0,0,0,726,57a1.34,1.34,0,0,0-.86-.26h-1.73Zm0,2.85h1.84a1.46,1.46,0,0,0,.94-.28,1,1,0,0,0,0-1.52,1.47,1.47,0,0,0-.94-.29h-1.84Z"/><path d="M730.19,60.11v-.77h3.27v.77Z"/><path d="M736.72,62.29l3-5.58H736v-.78h4.65v.68l-3,5.68Z"/><path d="M742.6,59.16a1.23,1.23,0,0,1-1-.46,1.73,1.73,0,0,1-.38-1.18,1.82,1.82,0,0,1,.38-1.18,1.26,1.26,0,0,1,1-.45,1.23,1.23,0,0,1,1,.45,1.77,1.77,0,0,1,.39,1.18,1.73,1.73,0,0,1-.39,1.18A1.2,1.2,0,0,1,742.6,59.16Zm0-.52a.71.71,0,0,0,.59-.3,1.33,1.33,0,0,0,.22-.82,1.35,1.35,0,0,0-.22-.82.71.71,0,0,0-.59-.3.7.7,0,0,0-.59.3,1.35,1.35,0,0,0-.22.82,1.33,1.33,0,0,0,.22.82A.68.68,0,0,0,742.6,58.64Zm-.33,3.65,3.57-6.36h.72L743,62.29Zm4,0a1.26,1.26,0,0,1-1-.45,1.8,1.8,0,0,1-.38-1.18,1.75,1.75,0,0,1,.39-1.18,1.24,1.24,0,0,1,1-.45,1.26,1.26,0,0,1,1,.45,2,2,0,0,1,0,2.36A1.26,1.26,0,0,1,746.28,62.33Zm0-.51a.68.68,0,0,0,.59-.3,1.35,1.35,0,0,0,.23-.82,1.33,1.33,0,0,0-.23-.82.69.69,0,0,0-.59-.31.72.72,0,0,0-.59.31,1.4,1.4,0,0,0-.22.82,1.35,1.35,0,0,0,.22.82A.7.7,0,0,0,746.28,61.82Z"/></g></g><g id="bfd81f7f-0a9f-4499-869f-4b6a87828ccc" data-name="C -"><g class="aabbc9e1-99e2-448e-8b04-8a5351549236"><path d="M725.49,81.51a3.51,3.51,0,0,1-1.31-.25,3.32,3.32,0,0,1-1.06-.7,3.15,3.15,0,0,1-.71-1,3.43,3.43,0,0,1,0-2.57,3,3,0,0,1,.71-1,3.32,3.32,0,0,1,1.06-.7,3.55,3.55,0,0,1,1.31-.25,3.63,3.63,0,0,1,1,.14,3.42,3.42,0,0,1,.88.37,3.7,3.7,0,0,1,.71.6l-.65.65a2.21,2.21,0,0,0-.86-.65,2.59,2.59,0,0,0-1.06-.23,2.26,2.26,0,0,0-.94.19,2.36,2.36,0,0,0-.74.5,2.33,2.33,0,0,0-.5.77,2.54,2.54,0,0,0,0,1.88,2.33,2.33,0,0,0,.5.77,2.24,2.24,0,0,0,.76.5,2.29,2.29,0,0,0,.94.19,2.51,2.51,0,0,0,1-.23,2.3,2.3,0,0,0,.84-.63l.63.64a3.1,3.1,0,0,1-.71.58,3.07,3.07,0,0,1-.87.38A3.43,3.43,0,0,1,725.49,81.51Z"/><path d="M730.64,79.23v-.77h3.26v.77Z"/><path d="M736.67,81.41v-.64L739.25,78a5.85,5.85,0,0,0,.4-.49,1.5,1.5,0,0,0,.21-.42,1.39,1.39,0,0,0,.06-.4.89.89,0,0,0-.35-.72,1.37,1.37,0,0,0-.87-.27,1.84,1.84,0,0,0-.81.17,3.36,3.36,0,0,0-.85.6l-.49-.6a3.75,3.75,0,0,1,1.05-.71,2.72,2.72,0,0,1,1.12-.24,2.55,2.55,0,0,1,1.07.22,1.73,1.73,0,0,1,.72.61,1.55,1.55,0,0,1,.26.89,2.14,2.14,0,0,1-.08.58,1.84,1.84,0,0,1-.29.55,6.32,6.32,0,0,1-.55.68l-2.07,2.18h3.12v.76Z"/><path d="M743.8,81.51a3.1,3.1,0,0,1-2.21-.87l.53-.59a3.56,3.56,0,0,0,.81.54,2.35,2.35,0,0,0,.89.16,1.6,1.6,0,0,0,.75-.16,1.22,1.22,0,0,0,.5-.48,1.31,1.31,0,0,0,.18-.69,1.22,1.22,0,0,0-.4-.93,1.57,1.57,0,0,0-1.05-.35,2.89,2.89,0,0,0-.65.08,3.46,3.46,0,0,0-.66.26l-.61-.19.15-3.24h3.77v.76h-3l-.09,2a2.75,2.75,0,0,1,.67-.25,3.1,3.1,0,0,1,.69-.08,2.41,2.41,0,0,1,1.1.24,1.78,1.78,0,0,1,.74.67,2,2,0,0,1,.25,1,2.06,2.06,0,0,1-.29,1.12,2.1,2.1,0,0,1-.82.74A2.53,2.53,0,0,1,743.8,81.51Z"/><path d="M748.15,78.28a1.27,1.27,0,0,1-1-.46,1.78,1.78,0,0,1-.38-1.18,1.75,1.75,0,0,1,.39-1.18,1.24,1.24,0,0,1,1-.45,1.26,1.26,0,0,1,1,.45,1.86,1.86,0,0,1,.39,1.18,1.84,1.84,0,0,1-.39,1.18A1.27,1.27,0,0,1,748.15,78.28Zm0-.52a.68.68,0,0,0,.59-.3,1.33,1.33,0,0,0,.23-.82,1.35,1.35,0,0,0-.23-.82.68.68,0,0,0-.59-.3.71.71,0,0,0-.59.3,1.42,1.42,0,0,0-.22.82,1.33,1.33,0,0,0,.22.82A.68.68,0,0,0,748.15,77.76Zm-.33,3.65,3.58-6.36h.71l-3.58,6.36Zm4,0a1.24,1.24,0,0,1-1-.45,1.75,1.75,0,0,1-.39-1.18,1.73,1.73,0,0,1,.39-1.18,1.27,1.27,0,0,1,1-.46,1.25,1.25,0,0,1,1,.46,1.73,1.73,0,0,1,.39,1.18,1.75,1.75,0,0,1-.39,1.18A1.24,1.24,0,0,1,751.83,81.45Zm0-.52a.7.7,0,0,0,.6-.29,1.35,1.35,0,0,0,.22-.82,1.33,1.33,0,0,0-.22-.82.7.7,0,0,0-.6-.31.68.68,0,0,0-.58.31,1.33,1.33,0,0,0-.23.82,1.42,1.42,0,0,0,.22.82A.7.7,0,0,0,751.83,80.93Z"/></g></g><rect id="e62afd79-1519-4df0-b57e-4e2a9985e21b" data-name="Rectangle 377-2" class="a567f711-11b5-4ce8-abec-3022de68cfcb" x="702.39" y="54.26" width="10.18" height="10.18"/><rect id="ae472429-94ac-43ad-b788-7f6b64bd44c7" data-name="Rectangle 380-2" class="a3085137-6681-42de-988e-ac9d6708a3d1" x="702.39" y="73.2" width="10.18" height="10.18"/><rect id="ee7c7856-77f1-4244-b7e2-4d8530eb5323" data-name="Rectangle 382-2" class="bd1814e7-8d7a-42c5-bfe0-51fcb3d1ddb3" x="702.2" y="35.12" width="10" height="10"/><g id="a33c19be-2505-4a34-b38d-588083a46c3d" data-name="D -"><g class="aabbc9e1-99e2-448e-8b04-8a5351549236"><path d="M783.55,42.45V36.1h2.23a3.75,3.75,0,0,1,1.33.23A3.18,3.18,0,0,1,788.88,38a3.33,3.33,0,0,1,0,2.53,3.24,3.24,0,0,1-.71,1,3.17,3.17,0,0,1-1,.66,3.63,3.63,0,0,1-1.34.24Zm1-.85h1.3a2.41,2.41,0,0,0,.93-.18,2,2,0,0,0,.74-.49,2,2,0,0,0,.5-.74,2.27,2.27,0,0,0,.18-.91,2.32,2.32,0,0,0-.18-.92,2.25,2.25,0,0,0-.5-.74,2.33,2.33,0,0,0-.74-.49,2.42,2.42,0,0,0-.94-.18H784.5Z"/><path d="M791.81,40.27V39.5h3.26v.77Z"/><path d="M798.33,42.45l3-5.58h-3.7V36.1h4.65v.67l-2.95,5.68Z"/><path d="M804.21,39.32a1.22,1.22,0,0,1-1-.46,2,2,0,0,1,0-2.35,1.24,1.24,0,0,1,1-.46,1.22,1.22,0,0,1,1,.46,2,2,0,0,1,0,2.35A1.22,1.22,0,0,1,804.21,39.32Zm0-.52a.71.71,0,0,0,.6-.3,1.33,1.33,0,0,0,.22-.82,1.37,1.37,0,0,0-.22-.82.71.71,0,0,0-.6-.3.69.69,0,0,0-.58.3,1.37,1.37,0,0,0-.23.82,1.4,1.4,0,0,0,.22.82A.7.7,0,0,0,804.21,38.8Zm-.32,3.65,3.57-6.35h.72l-3.59,6.35Zm4,0a1.25,1.25,0,0,1-1-.45,1.78,1.78,0,0,1-.38-1.18,1.8,1.8,0,0,1,.38-1.18,1.28,1.28,0,0,1,1-.45,1.23,1.23,0,0,1,1,.45,1.81,1.81,0,0,1,.4,1.18,1.79,1.79,0,0,1-.4,1.18A1.23,1.23,0,0,1,807.9,42.49Zm0-.51a.71.71,0,0,0,.59-.3,1.33,1.33,0,0,0,.22-.82,1.35,1.35,0,0,0-.22-.82.71.71,0,0,0-.59-.3.7.7,0,0,0-.59.3,1.35,1.35,0,0,0-.22.82,1.33,1.33,0,0,0,.22.82A.68.68,0,0,0,807.9,42Z"/></g></g><g id="ae6e4fc7-9bff-4ffd-bb23-3d0a9aed8f1d" data-name="E -"><g class="aabbc9e1-99e2-448e-8b04-8a5351549236"><path d="M783.55,62.29V55.93h4.68v.84H784.5v1.91h2.43v.8H784.5v2h3.77v.84Z"/><path d="M790.91,60.11v-.77h3.27v.77Z"/><path d="M799.27,62.39a2.87,2.87,0,0,1-1.21-.24,2,2,0,0,1-.82-.65,1.58,1.58,0,0,1-.3-1,1.39,1.39,0,0,1,.18-.69,1.67,1.67,0,0,1,.5-.56,2.21,2.21,0,0,1,.73-.33,1.85,1.85,0,0,1-.85-.55,1.32,1.32,0,0,1-.33-.88,1.47,1.47,0,0,1,.27-.87,1.82,1.82,0,0,1,.75-.61,2.51,2.51,0,0,1,1.08-.22,2.47,2.47,0,0,1,1.07.22,1.82,1.82,0,0,1,.75.61,1.49,1.49,0,0,1,.27.87,1.36,1.36,0,0,1-.32.88,1.88,1.88,0,0,1-.86.55,2,2,0,0,1,1,.59,1.41,1.41,0,0,1,.39,1,1.53,1.53,0,0,1-.3.94,2,2,0,0,1-.82.66A2.86,2.86,0,0,1,799.27,62.39Zm0-.72a1.75,1.75,0,0,0,.74-.15,1.28,1.28,0,0,0,.52-.42,1,1,0,0,0,.19-.61,1,1,0,0,0-.19-.59,1.28,1.28,0,0,0-.52-.42,1.75,1.75,0,0,0-.74-.15,1.79,1.79,0,0,0-.75.15,1.18,1.18,0,0,0-.51.42,1,1,0,0,0,0,1.2,1.18,1.18,0,0,0,.51.42A1.79,1.79,0,0,0,799.27,61.67Zm0-3a1.37,1.37,0,0,0,.64-.14,1,1,0,0,0,.44-.37.87.87,0,0,0,.16-.52.93.93,0,0,0-.16-.54,1,1,0,0,0-.44-.38,1.5,1.5,0,0,0-.64-.14,1.47,1.47,0,0,0-.64.14,1.07,1.07,0,0,0-.44.37.94.94,0,0,0-.17.54.88.88,0,0,0,.17.53,1.07,1.07,0,0,0,.44.37A1.34,1.34,0,0,0,799.27,58.63Z"/><path d="M803.75,59.16a1.24,1.24,0,0,1-1-.46,2,2,0,0,1,0-2.36,1.24,1.24,0,0,1,1-.45,1.26,1.26,0,0,1,1,.45,1.88,1.88,0,0,1,.39,1.18,1.84,1.84,0,0,1-.39,1.18A1.24,1.24,0,0,1,803.75,59.16Zm0-.52a.68.68,0,0,0,.59-.3,1.33,1.33,0,0,0,.23-.82,1.35,1.35,0,0,0-.23-.82.68.68,0,0,0-.59-.3.71.71,0,0,0-.59.3,1.42,1.42,0,0,0-.22.82,1.33,1.33,0,0,0,.22.82A.68.68,0,0,0,803.75,58.64Zm-.33,3.65L807,55.93h.72l-3.59,6.36Zm4,0a1.24,1.24,0,0,1-1-.45,2,2,0,0,1,0-2.36,1.26,1.26,0,0,1,1-.45,1.23,1.23,0,0,1,1,.45,2,2,0,0,1,0,2.36A1.23,1.23,0,0,1,807.43,62.33Zm0-.51a.71.71,0,0,0,.6-.3,1.35,1.35,0,0,0,.22-.82,1.33,1.33,0,0,0-.22-.82.72.72,0,0,0-.6-.31.7.7,0,0,0-.58.31,1.33,1.33,0,0,0-.22.82,1.42,1.42,0,0,0,.21.82A.71.71,0,0,0,807.43,61.82Z"/></g></g><g id="b0c56279-7a5e-4ebe-9638-c821326983c5" data-name="F -"><g class="aabbc9e1-99e2-448e-8b04-8a5351549236"><path d="M783.55,81.41V75.05h4.68v.84H784.5v2H787v.81H784.5v2.76Z"/><path d="M790.84,79.23v-.77h3.26v.77Z"/><path d="M799.05,81.51a3.43,3.43,0,0,1-1.28-.24,3,3,0,0,1-1-.7l.58-.55a2.89,2.89,0,0,0,.79.56,2.38,2.38,0,0,0,.93.16,1.84,1.84,0,0,0,.76-.14,1.22,1.22,0,0,0,.51-.4,1,1,0,0,0,.18-.59,1,1,0,0,0-.15-.54,1.13,1.13,0,0,0-.43-.38,1.38,1.38,0,0,0-.62-.13h-.78v-.74h.7a1,1,0,0,0,.77-.28,1,1,0,0,0,.29-.73.94.94,0,0,0-.16-.55,1.22,1.22,0,0,0-.46-.38,1.36,1.36,0,0,0-.65-.15,1.92,1.92,0,0,0-.84.18,2.28,2.28,0,0,0-.75.59l-.59-.57a3,3,0,0,1,1-.73A3.16,3.16,0,0,1,799,75a2.5,2.5,0,0,1,1.09.23,1.88,1.88,0,0,1,.76.63,1.62,1.62,0,0,1,.27.91,1.35,1.35,0,0,1-.33.9,1.67,1.67,0,0,1-.86.55,1.87,1.87,0,0,1,1,.54,1.32,1.32,0,0,1,.38,1,1.62,1.62,0,0,1-.29,1,2,2,0,0,1-.82.66A2.86,2.86,0,0,1,799.05,81.51Z"/><path d="M802.53,81.41l3-5.58h-3.7v-.78h4.65v.68l-3,5.68Z"/><path d="M808.41,78.28a1.25,1.25,0,0,1-1-.46,1.73,1.73,0,0,1-.38-1.18,1.74,1.74,0,0,1,.38-1.18,1.26,1.26,0,0,1,1-.45,1.23,1.23,0,0,1,1,.45,1.75,1.75,0,0,1,.39,1.18,1.73,1.73,0,0,1-.39,1.18A1.24,1.24,0,0,1,808.41,78.28Zm0-.52a.71.71,0,0,0,.6-.3,1.33,1.33,0,0,0,.22-.82,1.35,1.35,0,0,0-.22-.82.71.71,0,0,0-.6-.3.69.69,0,0,0-.58.3,1.35,1.35,0,0,0-.22.82,1.4,1.4,0,0,0,.21.82A.71.71,0,0,0,808.41,77.76Zm-.32,3.65,3.57-6.36h.72l-3.58,6.36Zm4,0a1.26,1.26,0,0,1-1-.45,1.8,1.8,0,0,1-.38-1.18,1.73,1.73,0,0,1,.39-1.18,1.25,1.25,0,0,1,1-.46,1.27,1.27,0,0,1,1,.46,1.84,1.84,0,0,1,.39,1.18A1.86,1.86,0,0,1,813.1,81,1.26,1.26,0,0,1,812.1,81.45Zm0-.52a.69.69,0,0,0,.59-.29,1.35,1.35,0,0,0,.23-.82,1.33,1.33,0,0,0-.23-.82.68.68,0,0,0-.59-.31.69.69,0,0,0-.59.31,1.33,1.33,0,0,0-.22.82,1.35,1.35,0,0,0,.22.82A.67.67,0,0,0,812.1,80.93Z"/></g></g><rect id="f4c3f0fa-b072-45a5-b2a4-d7d12cc47b1e" data-name="Rectangle 377-2-2" class="a039c9cc-9bf9-47eb-ae87-bee1f5dbf0ed" x="763.5" y="54.26" width="10.18" height="10.18"/><rect id="a9dc127f-c8dc-492b-a680-0cb5529aa2d8" data-name="Rectangle 380-2-2" class="b342d3e8-c24d-49a3-ba14-e22f3b9cfb12" x="763.5" y="73.2" width="10.18" height="10.18"/><rect id="e1c849eb-bd34-4288-9911-f506dbe90197" data-name="Rectangle 382-2-2" x="763.5" y="35.32" width="10.18" height="10.18"/><rect id="ab955a58-ca69-442c-990c-8017207d8d85" data-name="Rectangle 377-2-3" y="33" width="33" height="33"/><rect id="b9d42234-f9f8-4a13-9dff-3b155ed52929" data-name="Rectangle 380-2-3" class="b350d0b2-8f1d-49c8-b2d5-43ff26adf054" y="66" width="33" height="33"/><rect id="ad2cc8a8-6096-41f4-a2f2-7b76baad1a88" data-name="Rectangle 382-2-3" class="a567f711-11b5-4ce8-abec-3022de68cfcb" width="33" height="33"/><path class="b350d0b2-8f1d-49c8-b2d5-43ff26adf054" d="M149.43,90,97.82,120.6A60,60,0,0,0,150.13,150a60,60,0,0,0,51.6-30.61Z"/><path class="b350d0b2-8f1d-49c8-b2d5-43ff26adf054" d="M149.43,90l52.3,29.39a57.31,57.31,0,0,0,7.69-30.09Z"/><path d="M201,59.39A60,60,0,0,0,148.73,30l.7,60,60-.7A57.39,57.39,0,0,0,201,59.39Z"/><path class="a567f711-11b5-4ce8-abec-3022de68cfcb" d="M149.43,90,118.82,38.39A57.36,57.36,0,0,1,148.73,30Z"/><path class="a567f711-11b5-4ce8-abec-3022de68cfcb" d="M97.12,60.61A57.31,57.31,0,0,0,89.43,90.7a57.33,57.33,0,0,0,8.39,29.9L149.43,90,118.82,38.39A57.41,57.41,0,0,0,97.12,60.61Z"/><circle class="e012104a-686f-42b8-b44f-44be6db16e0a" cx="149.43" cy="90" r="30.05"/><path d="M270.35,43.52a3.72,3.72,0,0,1-1.47-.3,3.77,3.77,0,0,1-1.25-.84l.58-.68a3.92,3.92,0,0,0,1.05.76,2.81,2.81,0,0,0,1.14.24,2.17,2.17,0,0,0,.8-.13,1.28,1.28,0,0,0,.54-.38.85.85,0,0,0,.2-.55.8.8,0,0,0-.3-.66,2.39,2.39,0,0,0-1-.34l-1-.18a2.52,2.52,0,0,1-1.32-.55,1.46,1.46,0,0,1-.43-1.09,1.67,1.67,0,0,1,.29-1,1.88,1.88,0,0,1,.83-.65,3.09,3.09,0,0,1,1.22-.22,4.17,4.17,0,0,1,1.36.22,4.24,4.24,0,0,1,1.21.64l-.53.73a3.44,3.44,0,0,0-2.08-.78,2,2,0,0,0-.73.12,1.08,1.08,0,0,0-.48.33.8.8,0,0,0-.17.51.72.72,0,0,0,.26.58,2,2,0,0,0,.87.3l1,.17a2.83,2.83,0,0,1,1.48.59,1.5,1.5,0,0,1,.47,1.17,1.69,1.69,0,0,1-.31,1,2,2,0,0,1-.89.69A3.47,3.47,0,0,1,270.35,43.52Z"/><path d="M273.65,45.28V38.81h.9v.44a2.1,2.1,0,0,1,1.42-.51,2.26,2.26,0,0,1,1.18.31,2.39,2.39,0,0,1,.84.86,2.33,2.33,0,0,1,.31,1.2,2.34,2.34,0,0,1-1.15,2.07,2.26,2.26,0,0,1-1.21.32,2.19,2.19,0,0,1-.73-.12,2.38,2.38,0,0,1-.65-.34v2.24Zm2.2-2.57a1.6,1.6,0,0,0,.79-.2,1.53,1.53,0,0,0,.56-.57,1.69,1.69,0,0,0,0-1.63,1.49,1.49,0,0,0-.56-.58,1.51,1.51,0,0,0-.79-.21,1.8,1.8,0,0,0-.73.15,1.54,1.54,0,0,0-.56.41v2.09a1.69,1.69,0,0,0,.57.39A1.75,1.75,0,0,0,275.85,42.71Z"/><path d="M281.38,43.51a2.39,2.39,0,0,1-1.23-.31,2.42,2.42,0,0,1-.88-.86,2.36,2.36,0,0,1-.33-1.23,2.32,2.32,0,0,1,.32-1.2,2.39,2.39,0,0,1,.84-.86,2.23,2.23,0,0,1,1.17-.32,2.14,2.14,0,0,1,1.15.32,2.29,2.29,0,0,1,.79.87,2.56,2.56,0,0,1,.3,1.24v.25h-3.65a1.64,1.64,0,0,0,.28.68,1.53,1.53,0,0,0,.54.47,1.52,1.52,0,0,0,.73.18,2.08,2.08,0,0,0,.66-.11,1.58,1.58,0,0,0,.51-.29l.57.56a2.73,2.73,0,0,1-.83.46A2.81,2.81,0,0,1,281.38,43.51Zm-1.51-2.79h2.74a1.59,1.59,0,0,0-.26-.63,1.41,1.41,0,0,0-.48-.43,1.17,1.17,0,0,0-.62-.16,1.29,1.29,0,0,0-.64.16,1.41,1.41,0,0,0-.48.43A1.48,1.48,0,0,0,279.87,40.72Z"/><path d="M284.36,43.43V38.81h.91v.47A2,2,0,0,1,287.6,39a1.66,1.66,0,0,1,.63.63,1.92,1.92,0,0,1,.23.94v2.91h-.91V40.68a1.2,1.2,0,0,0-.3-.86,1.14,1.14,0,0,0-.85-.31,1.31,1.31,0,0,0-1.13.61v3.31Z"/><path d="M291.63,43.5a2.32,2.32,0,0,1-2-1.17,2.38,2.38,0,0,1-.31-1.22,2.34,2.34,0,0,1,.31-1.21,2.39,2.39,0,0,1,.85-.85,2.33,2.33,0,0,1,1.2-.31,2.23,2.23,0,0,1,.73.11,2.3,2.3,0,0,1,.66.34V37.08l.9-.18v6.53H293V43A2,2,0,0,1,291.63,43.5Zm.12-.79a1.94,1.94,0,0,0,.73-.14,1.76,1.76,0,0,0,.56-.41V40.07a1.66,1.66,0,0,0-.56-.41,2,2,0,0,0-.73-.14,1.67,1.67,0,0,0-.8.2,1.53,1.53,0,0,0-.56.57,1.76,1.76,0,0,0,0,1.63,1.51,1.51,0,0,0,1.36.79Z"/><path d="M295.47,38.06a.54.54,0,0,1-.39-.17.54.54,0,0,1-.17-.4.54.54,0,0,1,.17-.39.53.53,0,0,1,.39-.16.55.55,0,0,1,.56.56.53.53,0,0,1-.16.39A.56.56,0,0,1,295.47,38.06ZM295,43.43V38.81h.91v4.62Z"/><path d="M297,43.43V38.81h.91v.47a1.85,1.85,0,0,1,1.39-.56,1.8,1.8,0,0,1,.94.23,1.59,1.59,0,0,1,.63.63,1.82,1.82,0,0,1,.23.94v2.91h-.9V40.68a1.21,1.21,0,0,0-.31-.86,1.14,1.14,0,0,0-.85-.31,1.34,1.34,0,0,0-1.13.61v3.31Z"/><path d="M304.42,45.37a4.13,4.13,0,0,1-1-.12,3.74,3.74,0,0,1-.87-.33l.36-.71a3.79,3.79,0,0,0,.76.29,2.48,2.48,0,0,0,.71.1,1.39,1.39,0,0,0,.93-.27,1,1,0,0,0,.31-.82V43a2.15,2.15,0,0,1-1.39.48,2.23,2.23,0,0,1-1.17-.31,2.39,2.39,0,0,1-.84-.86,2.32,2.32,0,0,1-.31-1.19,2.35,2.35,0,0,1,.32-1.21,2.31,2.31,0,0,1,.85-.85,2.26,2.26,0,0,1,1.18-.31,2.24,2.24,0,0,1,.73.12,2,2,0,0,1,.65.35v-.39h.89V43.5a1.76,1.76,0,0,1-.54,1.39A2.35,2.35,0,0,1,304.42,45.37Zm-.06-2.69a1.71,1.71,0,0,0,.72-.14,1.51,1.51,0,0,0,.55-.4V40.05a1.57,1.57,0,0,0-.54-.39,2,2,0,0,0-.73-.14,1.56,1.56,0,0,0-.78.2,1.58,1.58,0,0,0-.56.56,1.69,1.69,0,0,0-.2.82,1.67,1.67,0,0,0,.2.8,1.61,1.61,0,0,0,.56.57A1.52,1.52,0,0,0,304.36,42.68Z"/><path d="M309.39,41.25v-.77h3.27v.77Z"/><path d="M317.6,43.53a3.34,3.34,0,0,1-1.27-.24,2.82,2.82,0,0,1-1-.7l.58-.55a2.53,2.53,0,0,0,.78.56,2.41,2.41,0,0,0,.93.17,1.81,1.81,0,0,0,.76-.15,1.22,1.22,0,0,0,.51-.4,1.05,1.05,0,0,0,0-1.13,1,1,0,0,0-.43-.37,1.26,1.26,0,0,0-.62-.14h-.78v-.74h.7a1,1,0,0,0,.77-.28,1,1,0,0,0,.13-1.28,1.15,1.15,0,0,0-.46-.38,1.35,1.35,0,0,0-.65-.14,1.91,1.91,0,0,0-.84.17,2.28,2.28,0,0,0-.75.59l-.59-.57a2.81,2.81,0,0,1,1-.72,3,3,0,0,1,1.21-.25,2.57,2.57,0,0,1,1.1.22,1.92,1.92,0,0,1,.75.63,1.64,1.64,0,0,1,.28.92,1.31,1.31,0,0,1-.34.89,1.67,1.67,0,0,1-.86.55,1.87,1.87,0,0,1,1,.54,1.34,1.34,0,0,1,.38,1,1.55,1.55,0,0,1-.29,1,2,2,0,0,1-.82.66A2.86,2.86,0,0,1,317.6,43.53Z"/><path d="M323.35,43.52a2.37,2.37,0,0,1-1.34-.39,2.49,2.49,0,0,1-.9-1.09,3.67,3.67,0,0,1-.33-1.61,4.24,4.24,0,0,1,.36-1.81,2.83,2.83,0,0,1,1-1.21A2.72,2.72,0,0,1,323.7,37a2.8,2.8,0,0,1,.86.13,2.39,2.39,0,0,1,.75.37l-.46.66a2.28,2.28,0,0,0-.59-.28,1.89,1.89,0,0,0-.63-.1,1.75,1.75,0,0,0-1.06.31,2.11,2.11,0,0,0-.67.91,3.79,3.79,0,0,0-.25,1.42,2.23,2.23,0,0,1,.81-.69,2,2,0,0,1,1-.25,2.44,2.44,0,0,1,1.1.25,2,2,0,0,1,.76.7,1.93,1.93,0,0,1,.27,1,2.08,2.08,0,0,1-.29,1.08,2.11,2.11,0,0,1-.79.75A2.34,2.34,0,0,1,323.35,43.52Zm0-3.36a1.87,1.87,0,0,0-.9.22,2.23,2.23,0,0,0-.73.61,2.83,2.83,0,0,0,.31.93,1.78,1.78,0,0,0,.56.62,1.51,1.51,0,0,0,1.48.05,1.21,1.21,0,0,0,.49-.46,1.34,1.34,0,0,0,.18-.69,1.24,1.24,0,0,0-.18-.67,1.16,1.16,0,0,0-.49-.44A1.53,1.53,0,0,0,323.31,40.16Z"/><path d="M327.57,40.3a1.22,1.22,0,0,1-1-.46,1.73,1.73,0,0,1-.39-1.18,1.77,1.77,0,0,1,.39-1.18,1.26,1.26,0,0,1,1-.45,1.24,1.24,0,0,1,1,.45,1.77,1.77,0,0,1,.39,1.18,1.73,1.73,0,0,1-.39,1.18A1.22,1.22,0,0,1,327.57,40.3Zm0-.52a.71.71,0,0,0,.6-.3,1.33,1.33,0,0,0,.22-.82,1.37,1.37,0,0,0-.22-.82.71.71,0,0,0-.6-.3.69.69,0,0,0-.58.3,1.37,1.37,0,0,0-.23.82,1.4,1.4,0,0,0,.22.82A.71.71,0,0,0,327.57,39.78Zm-.32,3.65,3.57-6.35h.72L328,43.43Zm4,0a1.26,1.26,0,0,1-1-.45,1.8,1.8,0,0,1-.38-1.18,1.75,1.75,0,0,1,.39-1.18,1.24,1.24,0,0,1,1-.45,1.26,1.26,0,0,1,1,.45,2,2,0,0,1,0,2.36A1.26,1.26,0,0,1,331.26,43.47Zm0-.51a.7.7,0,0,0,.59-.3,1.33,1.33,0,0,0,.22-.82,1.35,1.35,0,0,0-.22-.82.73.73,0,0,0-1.18,0,1.35,1.35,0,0,0-.22.82,1.33,1.33,0,0,0,.22.82A.68.68,0,0,0,331.26,43Z"/><path d="M268.21,62.32V56h2.87a2.45,2.45,0,0,1,1.11.24,1.83,1.83,0,0,1,.74.66,1.79,1.79,0,0,1,.27,1,1.71,1.71,0,0,1-.36,1.08,2,2,0,0,1-.94.65l1.41,2.74h-1.06l-1.31-2.61h-1.78v2.61Zm1-3.41H271a1.33,1.33,0,0,0,.9-.28,1,1,0,0,0,.34-.78,1,1,0,0,0-.34-.76,1.28,1.28,0,0,0-.9-.29h-1.84Z"/><path d="M276,62.4a2.55,2.55,0,0,1-1.23-.31,2.34,2.34,0,0,1-.87-.87,2.45,2.45,0,0,1,0-2.42,2.39,2.39,0,0,1,.84-.86,2.18,2.18,0,0,1,1.18-.32,2,2,0,0,1,1.14.32,2.24,2.24,0,0,1,.8.87,2.55,2.55,0,0,1,.29,1.24v.24H274.5a1.61,1.61,0,0,0,.27.69,1.66,1.66,0,0,0,.55.47,1.49,1.49,0,0,0,.73.18,2,2,0,0,0,.65-.11,1.53,1.53,0,0,0,.52-.29l.57.56a2.75,2.75,0,0,1-1.78.61Zm-1.5-2.79h2.74A1.75,1.75,0,0,0,277,59a1.41,1.41,0,0,0-.48-.43,1.22,1.22,0,0,0-.62-.16,1.27,1.27,0,0,0-.64.16,1.44,1.44,0,0,0-.49.43A1.47,1.47,0,0,0,274.51,59.61Z"/><path d="M280.35,62.32l-2-4.62h1l1.44,3.46,1.45-3.46h1l-2,4.62Z"/><path d="M285.84,62.4a2.55,2.55,0,0,1-1.23-.31,2.34,2.34,0,0,1-.87-.87,2.45,2.45,0,0,1,0-2.42,2.39,2.39,0,0,1,.84-.86,2.16,2.16,0,0,1,1.18-.32,2,2,0,0,1,1.14.32,2.32,2.32,0,0,1,.8.87,2.67,2.67,0,0,1,.29,1.24v.24h-3.64a1.61,1.61,0,0,0,.27.69,1.57,1.57,0,0,0,.55.47,1.49,1.49,0,0,0,.73.18,2,2,0,0,0,.65-.11,1.53,1.53,0,0,0,.52-.29l.57.56a2.85,2.85,0,0,1-.83.46A2.91,2.91,0,0,1,285.84,62.4Zm-1.51-2.79h2.74a1.57,1.57,0,0,0-.25-.63,1.51,1.51,0,0,0-.48-.43,1.32,1.32,0,0,0-1.26,0,1.35,1.35,0,0,0-.49.43A1.62,1.62,0,0,0,284.33,59.61Z"/><path d="M288.83,62.32V57.7h.9v.47a1.82,1.82,0,0,1,1.39-.56,1.89,1.89,0,0,1,.94.22,1.68,1.68,0,0,1,.63.64,1.83,1.83,0,0,1,.24.94v2.91H292V59.57a1.15,1.15,0,0,0-.31-.86,1.12,1.12,0,0,0-.84-.31,1.25,1.25,0,0,0-.65.16,1.46,1.46,0,0,0-.49.44v3.32Z"/><path d="M295.71,62.41a1.9,1.9,0,0,1-.94-.23,1.58,1.58,0,0,1-.64-.64,1.82,1.82,0,0,1-.23-.94V57.7h.91v2.75a1.16,1.16,0,0,0,.31.85,1.14,1.14,0,0,0,.84.32,1.28,1.28,0,0,0,.65-.16,1.3,1.3,0,0,0,.48-.45V57.7H298v4.62h-.91v-.47A1.83,1.83,0,0,1,295.71,62.41Z"/><path d="M301.28,62.4a2.55,2.55,0,0,1-1.23-.31,2.42,2.42,0,0,1-.87-.87,2.42,2.42,0,0,1,0-2.42,2.24,2.24,0,0,1,.84-.86,2.15,2.15,0,0,1,1.17-.32,2,2,0,0,1,1.14.32,2.17,2.17,0,0,1,.8.87,2.56,2.56,0,0,1,.3,1.24v.24h-3.65a1.51,1.51,0,0,0,.28.69,1.53,1.53,0,0,0,.54.47,1.49,1.49,0,0,0,.73.18,2,2,0,0,0,.65-.11,1.53,1.53,0,0,0,.52-.29l.57.56a2.73,2.73,0,0,1-.83.46A2.87,2.87,0,0,1,301.28,62.4Zm-1.5-2.79h2.74a1.59,1.59,0,0,0-.26-.63,1.41,1.41,0,0,0-.48-.43,1.17,1.17,0,0,0-.62-.16,1.29,1.29,0,0,0-.64.16A1.41,1.41,0,0,0,300,59,1.48,1.48,0,0,0,299.78,59.61Z"/><path d="M306.05,60.14v-.77h3.27v.77Z"/><path d="M314.26,62.42a3.34,3.34,0,0,1-1.27-.24,2.94,2.94,0,0,1-1-.7l.58-.55a2.71,2.71,0,0,0,.78.56,2.45,2.45,0,0,0,.93.16,1.81,1.81,0,0,0,.76-.14,1.22,1.22,0,0,0,.51-.4,1,1,0,0,0,.18-.59,1,1,0,0,0-.15-.54,1.06,1.06,0,0,0-.43-.38,1.38,1.38,0,0,0-.62-.13h-.78v-.74h.71a1.06,1.06,0,0,0,.77-.28,1,1,0,0,0,.29-.73.94.94,0,0,0-.17-.55,1.09,1.09,0,0,0-.46-.38,1.32,1.32,0,0,0-.64-.15,1.93,1.93,0,0,0-.85.18,2.28,2.28,0,0,0-.75.59l-.59-.57a3,3,0,0,1,1-.73,3.07,3.07,0,0,1,1.2-.25,2.57,2.57,0,0,1,1.1.23,1.85,1.85,0,0,1,.75.63,1.63,1.63,0,0,1,.28.91,1.31,1.31,0,0,1-.34.9,1.67,1.67,0,0,1-.86.55,1.87,1.87,0,0,1,1,.54,1.33,1.33,0,0,1,.39,1,1.56,1.56,0,0,1-.3,1,2,2,0,0,1-.82.66A2.82,2.82,0,0,1,314.26,62.42Z"/><path d="M319.75,62.42a2.86,2.86,0,0,1-1.2-.24,2,2,0,0,1-.82-.65,1.6,1.6,0,0,1-.3-1,1.57,1.57,0,0,1,.17-.7,1.74,1.74,0,0,1,.5-.55,2.26,2.26,0,0,1,.74-.33,1.83,1.83,0,0,1-.86-.55,1.31,1.31,0,0,1-.32-.88,1.45,1.45,0,0,1,.27-.87,1.82,1.82,0,0,1,.75-.61,2.44,2.44,0,0,1,1.07-.23,2.52,2.52,0,0,1,1.08.23,2,2,0,0,1,.75.61,1.49,1.49,0,0,1,.27.87,1.32,1.32,0,0,1-.33.88,1.85,1.85,0,0,1-.85.55,2,2,0,0,1,1,.59,1.41,1.41,0,0,1,.39,1,1.55,1.55,0,0,1-.3.94,1.94,1.94,0,0,1-.82.66A2.86,2.86,0,0,1,319.75,62.42Zm0-.72a1.79,1.79,0,0,0,.75-.15,1.24,1.24,0,0,0,.51-.42,1,1,0,0,0,.19-.61,1,1,0,0,0-.19-.59,1.24,1.24,0,0,0-.51-.42,1.79,1.79,0,0,0-.75-.15,1.75,1.75,0,0,0-.74.15,1.28,1.28,0,0,0-.52.42,1,1,0,0,0,0,1.2,1.28,1.28,0,0,0,.52.42A1.75,1.75,0,0,0,319.75,61.7Zm0-3a1.47,1.47,0,0,0,.64-.14,1.1,1.1,0,0,0,.45-.37,1,1,0,0,0,.16-.52,1,1,0,0,0-.16-.54,1.12,1.12,0,0,0-.45-.38,1.47,1.47,0,0,0-.64-.14,1.39,1.39,0,0,0-.63.14,1.1,1.1,0,0,0-.45.37.93.93,0,0,0-.16.54.9.9,0,0,0,.16.53,1.1,1.1,0,0,0,.45.37A1.39,1.39,0,0,0,319.75,58.66Z"/><path d="M324.23,59.19a1.22,1.22,0,0,1-1-.46,1.73,1.73,0,0,1-.38-1.18,1.76,1.76,0,0,1,.38-1.18,1.26,1.26,0,0,1,1-.45,1.23,1.23,0,0,1,1,.45,1.77,1.77,0,0,1,.39,1.18,1.73,1.73,0,0,1-.39,1.18A1.21,1.21,0,0,1,324.23,59.19Zm0-.52a.71.71,0,0,0,.6-.3,1.33,1.33,0,0,0,.22-.82,1.35,1.35,0,0,0-.22-.82.71.71,0,0,0-.6-.3.69.69,0,0,0-.58.3,1.35,1.35,0,0,0-.22.82,1.4,1.4,0,0,0,.21.82A.71.71,0,0,0,324.23,58.67Zm-.32,3.65L327.48,56h.72l-3.59,6.36Zm4,0a1.26,1.26,0,0,1-1-.45,1.8,1.8,0,0,1-.38-1.18,1.73,1.73,0,0,1,.39-1.18,1.24,1.24,0,0,1,1-.45,1.26,1.26,0,0,1,1,.45,1.84,1.84,0,0,1,.39,1.18,1.86,1.86,0,0,1-.39,1.18A1.26,1.26,0,0,1,327.92,62.36Zm0-.51a.72.72,0,0,0,.59-.3,1.35,1.35,0,0,0,.23-.82,1.33,1.33,0,0,0-.23-.82.68.68,0,0,0-.59-.31.69.69,0,0,0-.59.31,1.33,1.33,0,0,0-.22.82,1.35,1.35,0,0,0,.22.82A.71.71,0,0,0,327.92,61.85Z"/><path d="M270.79,81.51a2.91,2.91,0,0,1-1.45-.35,2.35,2.35,0,0,1-.93-1,3.19,3.19,0,0,1-.33-1.5V75.05H269v3.64a2.26,2.26,0,0,0,.22,1,1.68,1.68,0,0,0,.61.68,1.79,1.79,0,0,0,.93.24,1.7,1.7,0,0,0,.92-.24,1.68,1.68,0,0,0,.61-.68,2.26,2.26,0,0,0,.22-1V75.05h.95v3.64a3.19,3.19,0,0,1-.33,1.5,2.31,2.31,0,0,1-.94,1A2.81,2.81,0,0,1,270.79,81.51Z"/><path d="M274.56,81.41V76.79h.91v.47a1.79,1.79,0,0,1,1.38-.56,1.89,1.89,0,0,1,.94.22,1.78,1.78,0,0,1,.64.64,1.92,1.92,0,0,1,.23.94v2.91h-.91V78.66a1.15,1.15,0,0,0-.31-.86,1.1,1.1,0,0,0-.84-.31,1.28,1.28,0,0,0-.65.16,1.34,1.34,0,0,0-.48.44v3.32Z"/><path d="M281.29,81.5a3.42,3.42,0,0,1-1.12-.18,2.74,2.74,0,0,1-.9-.51l.49-.6a2.68,2.68,0,0,0,.74.43,2.07,2.07,0,0,0,.77.15,1.45,1.45,0,0,0,.79-.19.55.55,0,0,0,.31-.49.49.49,0,0,0-.18-.4,1.18,1.18,0,0,0-.56-.2l-.84-.12a1.82,1.82,0,0,1-1-.42,1.15,1.15,0,0,1-.34-.88,1.2,1.2,0,0,1,.22-.72,1.45,1.45,0,0,1,.64-.49,2.29,2.29,0,0,1,.94-.17,3.12,3.12,0,0,1,1,.14,2.77,2.77,0,0,1,.89.45l-.45.59a3.71,3.71,0,0,0-.75-.37,2.18,2.18,0,0,0-.72-.12,1.13,1.13,0,0,0-.67.18.54.54,0,0,0-.26.46.43.43,0,0,0,.18.39,1.29,1.29,0,0,0,.57.2l.85.13a1.88,1.88,0,0,1,1,.41,1.13,1.13,0,0,1,.36.88,1.21,1.21,0,0,1-.26.74,1.83,1.83,0,0,1-.69.52A2.57,2.57,0,0,1,281.29,81.5Z"/><path d="M283.93,83.26V76.79h.89v.44a2.12,2.12,0,0,1,1.42-.51,2.27,2.27,0,0,1,2,1.17,2.37,2.37,0,0,1-2.05,3.59,2.24,2.24,0,0,1-.73-.12,2.38,2.38,0,0,1-.65-.34v2.24Zm2.19-2.57a1.64,1.64,0,0,0,.8-.2,1.58,1.58,0,0,0,.55-.57,1.61,1.61,0,0,0,.21-.82,1.58,1.58,0,0,0-.21-.81,1.48,1.48,0,0,0-1.35-.79,1.72,1.72,0,0,0-.72.15,1.39,1.39,0,0,0-.57.41v2.09a1.69,1.69,0,0,0,.57.39A1.79,1.79,0,0,0,286.12,80.69Z"/><path d="M291.65,81.49a2.5,2.5,0,0,1-1.23-.31,2.37,2.37,0,0,1-1.2-2.09,2.28,2.28,0,0,1,.31-1.2,2.39,2.39,0,0,1,.84-.86,2.16,2.16,0,0,1,1.18-.32,2,2,0,0,1,1.14.32,2.32,2.32,0,0,1,.8.87,2.67,2.67,0,0,1,.29,1.24v.24h-3.65a1.76,1.76,0,0,0,.28.69,1.64,1.64,0,0,0,.54.47,1.55,1.55,0,0,0,.73.18,2.08,2.08,0,0,0,.66-.11,1.48,1.48,0,0,0,.51-.29l.58.56a3,3,0,0,1-.83.46A2.91,2.91,0,0,1,291.65,81.49Zm-1.51-2.79h2.74a1.59,1.59,0,0,0-.26-.63,1.38,1.38,0,0,0-.47-.43,1.32,1.32,0,0,0-1.26,0,1.35,1.35,0,0,0-.49.43A1.48,1.48,0,0,0,290.14,78.7Z"/><path d="M294.63,81.41V76.79h.91v.47a1.82,1.82,0,0,1,1.39-.56,1.89,1.89,0,0,1,.94.22,1.68,1.68,0,0,1,.63.64,1.82,1.82,0,0,1,.23.94v2.91h-.9V78.66a1.19,1.19,0,0,0-.31-.86,1.13,1.13,0,0,0-.84-.31,1.25,1.25,0,0,0-.65.16,1.37,1.37,0,0,0-.49.44v3.32Z"/><path d="M301.61,81.49a1.45,1.45,0,0,1-1-.31,1.15,1.15,0,0,1-.36-.92V77.55h-1v-.76h1V75.62l.9-.23v1.4h1.37v.76h-1.37v2.51a.65.65,0,0,0,.16.5.73.73,0,0,0,.52.15,1.72,1.72,0,0,0,.34,0l.32-.09v.77a2.16,2.16,0,0,1-.42.1Z"/><path d="M305,79.23v-.77h3.27v.77Z"/><path d="M311,81.41v-.64L313.56,78a6.24,6.24,0,0,0,.41-.49,1.5,1.5,0,0,0,.21-.42,1.83,1.83,0,0,0,.05-.4.88.88,0,0,0-.34-.72,1.37,1.37,0,0,0-.87-.27,1.91,1.91,0,0,0-.82.17,3.16,3.16,0,0,0-.84.6l-.49-.6a3.61,3.61,0,0,1,1.05-.71A2.68,2.68,0,0,1,313,75a2.59,2.59,0,0,1,1.07.22,1.73,1.73,0,0,1,.72.61,1.55,1.55,0,0,1,.26.89,2.14,2.14,0,0,1-.08.58,2.45,2.45,0,0,1-.29.55,6.57,6.57,0,0,1-.56.68l-2.07,2.18h3.12v.76Z"/><path d="M319.25,81.41V79.79h-3.6v-.72l3.49-4h1v4h.77v.76h-.77v1.62ZM316.72,79h2.53V76.12Z"/><path d="M322.84,78.28a1.26,1.26,0,0,1-1-.46,1.78,1.78,0,0,1-.38-1.18,1.82,1.82,0,0,1,.38-1.18,1.28,1.28,0,0,1,1-.45,1.26,1.26,0,0,1,1,.45,1.88,1.88,0,0,1,.39,1.18,1.84,1.84,0,0,1-.39,1.18A1.27,1.27,0,0,1,322.84,78.28Zm0-.52a.7.7,0,0,0,.59-.3,1.33,1.33,0,0,0,.22-.82,1.35,1.35,0,0,0-.22-.82.7.7,0,0,0-.59-.3.71.71,0,0,0-.59.3,1.35,1.35,0,0,0-.22.82,1.33,1.33,0,0,0,.22.82A.68.68,0,0,0,322.84,77.76Zm-.33,3.65,3.58-6.36h.71l-3.58,6.36Zm4,0a1.26,1.26,0,0,1-1-.45,1.8,1.8,0,0,1-.38-1.18,1.73,1.73,0,0,1,.39-1.18,1.25,1.25,0,0,1,1-.46,1.27,1.27,0,0,1,1,.46,1.84,1.84,0,0,1,.39,1.18,1.86,1.86,0,0,1-.39,1.18A1.26,1.26,0,0,1,326.52,81.45Zm0-.52a.7.7,0,0,0,.59-.29,1.35,1.35,0,0,0,.23-.82,1.33,1.33,0,0,0-.23-.82.67.67,0,0,0-.59-.31.69.69,0,0,0-.59.31,1.4,1.4,0,0,0-.22.82,1.42,1.42,0,0,0,.22.82A.71.71,0,0,0,326.52,80.93Z"/><rect id="edd9858c-adaf-4c12-a602-ae3e045e17ec" data-name="Rectangle 377-2" x="248.1" y="54.48" width="10.21" height="10.21"/><rect id="a4f8ce8f-48c0-4065-a355-55d879eee006" data-name="Rectangle 380-2" class="b350d0b2-8f1d-49c8-b2d5-43ff26adf054" x="248.1" y="73.47" width="10.21" height="10.21"/><rect id="e6e53c0d-8438-49d3-a793-2287fe6951e2" data-name="Rectangle 382-2" class="a567f711-11b5-4ce8-abec-3022de68cfcb" x="248.1" y="35.49" width="10.21" height="10.21"/><g id="a1a49107-6a57-42ed-862e-d7dc7e80de44" data-name="Rectangle 4740"><path class="a4ab3343-0bde-44af-abc3-3152867c1916" d="M392,1V179H54V1H392m1-1H53V180H393V0Z"/></g><path d="M318.62,148.11a2,2,0,0,1,0,.42c0,1.8-2.2,2.12-3.72,2.12-5.91,0-10.32-3.67-10.32-4.79a1,1,0,0,1,0-.24l-.44,1.1a2.17,2.17,0,0,0-.18.89c0,2.2,5,5.53,10.65,5.53,2.52,0,4.43-.95,4.43-2.65a6.12,6.12,0,0,0-.21-1.23Z"/><path class="a567f711-11b5-4ce8-abec-3022de68cfcb" d="M314.94,150.65c1.52,0,3.72-.32,3.72-2.12a2,2,0,0,0,0-.42l-.91-3.93c-.21-.86-.39-1.26-1.91-2a17.76,17.76,0,0,0-4.5-1.59c-.71,0-.92.91-1.76.91s-1.41-.68-2.17-.68-1.21.5-1.57,1.52c0,0-1,2.88-1.16,3.3a1,1,0,0,0,0,.24c0,1.12,4.41,4.79,10.32,4.79m3.95-1.39a6.12,6.12,0,0,1,.21,1.23c0,1.7-1.91,2.65-4.43,2.65-5.68,0-10.65-3.33-10.65-5.53a2.17,2.17,0,0,1,.18-.89c-2,.11-4.69.47-4.69,2.8,0,3.83,9.06,8.54,16.24,8.54,5.5,0,6.89-2.49,6.89-4.45,0-1.55-1.34-3.3-3.75-4.35"/><path d="M325.11,144.89h4.38a2.94,2.94,0,0,1,3,2.91,2.75,2.75,0,0,1-1.63,2.49l1.91,3.38h-2.41l-1.64-3.08h-1.47v3.08h-2.16Zm2.16,1.84v2.08h2a1.05,1.05,0,0,0,1.09-1,1.08,1.08,0,0,0-1.09-1.07Z"/><path d="M336.33,153.79a3.48,3.48,0,0,1-3.61-3.43,3.41,3.41,0,0,1,3.46-3.44,3.37,3.37,0,0,1,3.35,3.57v.56H334.8a1.71,1.71,0,0,0,1.63,1,1.82,1.82,0,0,0,1.33-.5l1.34,1.19A4,4,0,0,1,336.33,153.79Zm-1.54-4.16h2.76a1.48,1.48,0,0,0-1.39-1A1.38,1.38,0,0,0,334.79,149.63Z"/><path d="M345.12,153.18a3.07,3.07,0,0,1-1.79.59,3.42,3.42,0,1,1,1.76-6.39v-2.49l2-.63v9.41h-2ZM343.66,152a2,2,0,0,0,1.43-.53v-2.32a2.13,2.13,0,0,0-1.43-.52,1.69,1.69,0,1,0,0,3.37Z"/><path d="M355.75,150.23h-3.36v3.44h-2.16v-8.78h2.16v3.37h3.36v-3.37h2.16v8.78h-2.16Z"/><path d="M362.9,153.27a3,3,0,0,1-1.78.51,2.23,2.23,0,0,1-2.47-2.12c0-1.17.94-2,2.58-2a3.57,3.57,0,0,1,1.67.37v-.4c0-.64-.43-1-1.26-1a5.06,5.06,0,0,0-2,.48l-.6-1.52a6.93,6.93,0,0,1,2.73-.67c2,0,3.15.89,3.15,2.5v4.26h-2Zm-1.24-.91a2.31,2.31,0,0,0,1.24-.34v-.69a2.7,2.7,0,0,0-1.31-.35c-.62,0-1,.27-1,.68S361,152.36,361.66,152.36Z"/><path d="M368.89,153.77c-1.39,0-2.17-.67-2.17-2.05v-3h-1.4V147h1.4v-1.52l2-.62V147h1.85v1.69h-1.85v2.54c0,.56.3.78.91.78a2.27,2.27,0,0,0,.89-.2l-.27,1.64A3.68,3.68,0,0,1,368.89,153.77Z"/><g id="e98cf6c8-1976-40c1-8b75-325578500dd3" data-name="Rectangle 4740"><path class="a4ab3343-0bde-44af-abc3-3152867c1916" d="M846,1V179H508V1H846m1-1H507V180H847V0Z"/></g><path d="M772.62,148.11a2,2,0,0,1,0,.42c0,1.8-2.2,2.12-3.72,2.12-5.91,0-10.32-3.67-10.32-4.79a1,1,0,0,1,0-.24l-.44,1.1a2.17,2.17,0,0,0-.18.89c0,2.2,5,5.53,10.65,5.53,2.52,0,4.43-.95,4.43-2.65a6.12,6.12,0,0,0-.21-1.23Z"/><path class="a567f711-11b5-4ce8-abec-3022de68cfcb" d="M768.94,150.65c1.52,0,3.72-.32,3.72-2.12a2,2,0,0,0,0-.42l-.91-3.93c-.21-.86-.39-1.26-1.91-2a17.76,17.76,0,0,0-4.5-1.59c-.71,0-.92.91-1.76.91s-1.41-.68-2.17-.68-1.21.5-1.57,1.52c0,0-1,2.88-1.16,3.3a1,1,0,0,0,0,.24c0,1.12,4.41,4.79,10.32,4.79m3.95-1.39a6.12,6.12,0,0,1,.21,1.23c0,1.7-1.91,2.65-4.43,2.65-5.68,0-10.65-3.33-10.65-5.53a2.17,2.17,0,0,1,.18-.89c-2,.11-4.69.47-4.69,2.8,0,3.83,9.06,8.54,16.24,8.54,5.5,0,6.89-2.49,6.89-4.45,0-1.55-1.34-3.3-3.75-4.35"/><path d="M779.11,144.89h4.38a2.94,2.94,0,0,1,3,2.91,2.75,2.75,0,0,1-1.63,2.49l1.91,3.38h-2.41l-1.64-3.08h-1.47v3.08h-2.16Zm2.16,1.84v2.08h2a1.05,1.05,0,0,0,1.09-1,1.08,1.08,0,0,0-1.09-1.07Z"/><path d="M790.33,153.79a3.48,3.48,0,0,1-3.61-3.43,3.41,3.41,0,0,1,3.46-3.44,3.37,3.37,0,0,1,3.35,3.57v.56H788.8a1.71,1.71,0,0,0,1.63,1,1.82,1.82,0,0,0,1.33-.5l1.34,1.19A4,4,0,0,1,790.33,153.79Zm-1.54-4.16h2.76a1.48,1.48,0,0,0-1.39-1A1.38,1.38,0,0,0,788.79,149.63Z"/><path d="M799.12,153.18a3.07,3.07,0,0,1-1.79.59,3.42,3.42,0,1,1,1.76-6.39v-2.49l2-.63v9.41h-2ZM797.66,152a2,2,0,0,0,1.43-.53v-2.32a2.13,2.13,0,0,0-1.43-.52,1.69,1.69,0,1,0,0,3.37Z"/><path d="M809.75,150.23h-3.36v3.44h-2.16v-8.78h2.16v3.37h3.36v-3.37h2.16v8.78h-2.16Z"/><path d="M816.9,153.27a3,3,0,0,1-1.78.51,2.23,2.23,0,0,1-2.47-2.12c0-1.17.94-2,2.58-2a3.57,3.57,0,0,1,1.67.37v-.4c0-.64-.43-1-1.26-1a5.06,5.06,0,0,0-2,.48l-.6-1.52a6.93,6.93,0,0,1,2.73-.67c2,0,3.15.89,3.15,2.5v4.26h-2Zm-1.24-.91a2.31,2.31,0,0,0,1.24-.34v-.69a2.7,2.7,0,0,0-1.31-.35c-.62,0-1,.27-1,.68S815,152.36,815.66,152.36Z"/><path d="M822.89,153.77c-1.39,0-2.17-.67-2.17-2.05v-3h-1.4V147h1.4v-1.52l2-.62V147h1.85v1.69h-1.85v2.54c0,.56.3.78.91.78a2.27,2.27,0,0,0,.89-.2l-.27,1.64A3.68,3.68,0,0,1,822.89,153.77Z"/><path id="a016cb4b-56c1-47e9-9ef8-abe9d9698980" data-name="Rectangle 4740-3" d="M507,200H847V380H507V200Z"/><g id="aa6acffe-ac06-445f-a3d3-27298f786791" data-name="Group 36332"><g class="a3e95a46-e185-4da4-85ec-71d08d544e15"><path class="a2e84beb-e850-4c60-8e0b-5914efd85beb" d="M599.15,305.7a47,47,0,0,1-11-1.32,46.56,46.56,0,0,1-34.49-55.51.49.49,0,0,1,1,.22A45.58,45.58,0,0,0,622.83,298a.49.49,0,0,1,.67.17.48.48,0,0,1-.16.66A46.24,46.24,0,0,1,599.15,305.7Z"/><path class="a2e84beb-e850-4c60-8e0b-5914efd85beb" d="M559.36,236.22a.54.54,0,0,1-.25-.06.49.49,0,0,1-.17-.67,46.57,46.57,0,0,1,79.84-.65.49.49,0,0,1-.83.51,45.6,45.6,0,0,0-78.17.63A.47.47,0,0,1,559.36,236.22Z"/><circle class="a2e84beb-e850-4c60-8e0b-5914efd85beb" cx="559.28" cy="235.91" r="1.4"/><circle class="a2e84beb-e850-4c60-8e0b-5914efd85beb" cx="554.3" cy="248.69" r="1.4"/><path class="a2e84beb-e850-4c60-8e0b-5914efd85beb" d="M661,367.45a46.21,46.21,0,0,1-32.92-13.64.48.48,0,0,1,.68-.68,45.59,45.59,0,1,0,0-64.47.48.48,0,0,1-.68-.68A46.55,46.55,0,1,1,661,367.45Z"/><path class="b365b0c4-5498-4b67-b33b-8c4cc7e568a1" d="M658.48,218.33c23.9,5,23.18,24.06,34.49,30.81,9.07,5.42,20,17.41,20,27.58,0,21.89-20.28,31.32-23.83,43.53-3,10.21-3.72,19.8-11.68,28.07-6.63,6.89-16.69,11.06-26.42,9.73-14.16-1.94-22.1-12-36.86-13.22-5.9-.5-15.23-.77-20.95-2.33-7-1.9-14.29-4-20.71-7.5-13.34-7.22-24-23.39-21.49-39.91,2.52-16.21,15.88-28.21,29.26-34.44,5.12-2.38,10.52-4.35,15.07-7.61,5.16-3.7,8.92-8.86,13.38-13.31C623.1,225.36,639.86,214.41,658.48,218.33Z"/><path class="e549e385-6cf7-42c5-875e-d1fdebd79e74" d="M599.15,305.72a47.09,47.09,0,0,1-11-1.32,46.27,46.27,0,0,1-28.81-21c-.79-1.29-1.52-2.63-2.18-4a.51.51,0,0,1,.23-.68.52.52,0,0,1,.68.24c.64,1.32,1.36,2.64,2.13,3.9A45.57,45.57,0,0,0,622.82,298a.51.51,0,1,1,.53.86A46.28,46.28,0,0,1,599.15,305.72Z"/><path class="e549e385-6cf7-42c5-875e-d1fdebd79e74" d="M702.49,301.35a.51.51,0,0,1-.46-.28,45.57,45.57,0,0,0-73.25-12.39.51.51,0,0,1-.72-.72,46.59,46.59,0,0,1,74.88,12.67.5.5,0,0,1-.23.67A.47.47,0,0,1,702.49,301.35Z"/><rect class="e549e385-6cf7-42c5-875e-d1fdebd79e74" x="660.47" y="317.17" width="48.35" height="44.26"/><circle cx="697.37" cy="321.81" r="1.54"/><circle cx="703.34" cy="321.81" r="1.54"/><path d="M702.58,329.87H667a.38.38,0,1,1,0-.75h35.63a.38.38,0,0,1,0,.75Z"/><path class="e549e385-6cf7-42c5-875e-d1fdebd79e74" d="M627.07,246.92a11.7,11.7,0,0,1,4.07.73A16.51,16.51,0,0,1,644.87,239a24.9,24.9,0,0,1,45.68-3.29A18.84,18.84,0,1,1,696,272.56H628.08c-8.78,0-12.55-7.72-12.55-14.1A11.54,11.54,0,0,1,627.07,246.92Z"/><path class="fdcf7852-63cc-4b49-a327-d918c726d371" d="M696,272.87H628.08a11.79,11.79,0,0,1-9.82-4.78,16.38,16.38,0,0,1-3-9.63A11.87,11.87,0,0,1,631,247.27a17,17,0,0,1,13.66-8.59,25.2,25.2,0,0,1,46.06-3.36,19.15,19.15,0,1,1,5.3,37.55Zm-68.94-25.64a11.25,11.25,0,0,0-11.23,11.23,15.7,15.7,0,0,0,2.92,9.26,11.17,11.17,0,0,0,9.32,4.53H696A18.53,18.53,0,1,0,690.64,236l-.24.07-.12-.23a24.59,24.59,0,0,0-45.11,3.25l-.07.2h-.21a16.28,16.28,0,0,0-13.48,8.51l-.13.24-.25-.1A11.36,11.36,0,0,0,627.07,247.23Z"/><rect class="fb297634-d452-4e19-b337-b87a9858e45a" x="584.27" y="244.82" width="85.51" height="81.53"/><rect class="e549e385-6cf7-42c5-875e-d1fdebd79e74" x="568.64" y="221.47" width="45.98" height="42.09"/><circle cx="603.73" cy="225.89" r="1.46"/><circle cx="609.4" cy="225.89" r="1.46"/><path d="M608.68,233.56H574.79a.37.37,0,0,1,0-.74h33.89a.37.37,0,1,1,0,.74Z"/><path d="M605.74,258.92a.36.36,0,0,1-.37-.37v-8.14a.37.37,0,1,1,.74,0v8.14A.36.36,0,0,1,605.74,258.92Z"/><path d="M589.45,258.92a.37.37,0,0,1-.38-.37v-8.14a.38.38,0,1,1,.75,0v8.14A.37.37,0,0,1,589.45,258.92Z"/><path d="M597.59,258.92a4.45,4.45,0,1,1,4.45-4.44A4.44,4.44,0,0,1,597.59,258.92Zm0-8.14a3.7,3.7,0,1,0,3.7,3.7A3.7,3.7,0,0,0,597.59,250.78Z"/><path d="M581.3,258.92a4.45,4.45,0,1,1,4.45-4.44A4.44,4.44,0,0,1,581.3,258.92Zm0-8.14a3.7,3.7,0,1,0,3.7,3.7A3.7,3.7,0,0,0,581.3,250.78Z"/><path d="M605.74,246.7a.36.36,0,0,1-.37-.37v-8.14a.37.37,0,1,1,.74,0v8.14A.36.36,0,0,1,605.74,246.7Z"/><path d="M600.31,246.7a.36.36,0,0,1-.37-.37v-8.14a.37.37,0,1,1,.74,0v8.14A.36.36,0,0,1,600.31,246.7Z"/><path d="M584,246.7a.37.37,0,0,1-.38-.37v-8.14a.38.38,0,1,1,.75,0v8.14A.37.37,0,0,1,584,246.7Z"/><path d="M578.59,246.7a.37.37,0,0,1-.38-.37v-8.14a.38.38,0,1,1,.75,0v8.14A.37.37,0,0,1,578.59,246.7Z"/><path d="M592.16,246.7a4.45,4.45,0,1,1,4.45-4.44A4.44,4.44,0,0,1,592.16,246.7Zm0-8.14a3.7,3.7,0,1,0,3.7,3.7A3.7,3.7,0,0,0,592.16,238.56Z"/><polygon class="bd1814e7-8d7a-42c5-bfe0-51fcb3d1ddb3" points="584.27 263.93 568.28 263.93 568.28 221.47 569 221.47 569 263.21 584.27 263.21 584.27 263.93"/><rect x="584.27" y="249.43" width="18.31" height="14.14"/><rect class="fdcf7852-63cc-4b49-a327-d918c726d371" x="584.27" y="263.22" width="8.14" height="0.65"/><rect x="660.43" y="314.18" width="13.44" height="12.17"/><rect class="fdcf7852-63cc-4b49-a327-d918c726d371" x="660.14" y="314.18" width="0.65" height="12.17"/><rect class="e549e385-6cf7-42c5-875e-d1fdebd79e74" x="592.51" y="240.98" width="85.51" height="78.28"/><rect class="a2e84beb-e850-4c60-8e0b-5914efd85beb" x="592.51" y="240.98" width="85.51" height="16.61"/><circle class="e549e385-6cf7-42c5-875e-d1fdebd79e74" cx="657.77" cy="249.18" r="2.72"/><circle class="e549e385-6cf7-42c5-875e-d1fdebd79e74" cx="668.33" cy="249.18" r="2.72"/><rect class="a4546803-24a2-427b-91bd-c971bd50da81" x="639.26" y="282.63" width="34.69" height="31.32"/><rect class="a4546803-24a2-427b-91bd-c971bd50da81" x="598.25" y="262.86" width="37.02" height="50.74"/><rect class="a4546803-24a2-427b-91bd-c971bd50da81" x="639.26" y="262.86" width="34.69" height="15.42"/><polygon class="a2e84beb-e850-4c60-8e0b-5914efd85beb" points="678.02 319.58 592.19 319.58 592.19 240.65 678.02 240.65 678.02 241.3 592.84 241.3 592.84 318.94 678.02 318.94 678.02 319.58"/><path class="e549e385-6cf7-42c5-875e-d1fdebd79e74" d="M639.88,318.57a12,12,0,0,0-4.17.75,17,17,0,0,0-14.09-8.9,25.54,25.54,0,0,0-46.86-3.37,19.33,19.33,0,1,0-5.59,37.83h69.68c9,0,12.87-7.92,12.87-14.47A11.84,11.84,0,0,0,639.88,318.57Z"/><path class="fdcf7852-63cc-4b49-a327-d918c726d371" d="M638.85,345.19H569.17a19.64,19.64,0,1,1,0-39.27,20,20,0,0,1,5.44.76,25.85,25.85,0,0,1,47.24,3.45,17.36,17.36,0,0,1,14,8.81A12.16,12.16,0,0,1,652,330.41a16.69,16.69,0,0,1-3.12,9.87A12.08,12.08,0,0,1,638.85,345.19Zm-69.68-38.65a19,19,0,0,0,0,38h69.68a11.45,11.45,0,0,0,9.56-4.66,16.08,16.08,0,0,0,3-9.5,11.54,11.54,0,0,0-11.53-11.53,11.66,11.66,0,0,0-4.06.73l-.25.1-.13-.24a16.74,16.74,0,0,0-13.83-8.74h-.21l-.07-.2A25.23,25.23,0,0,0,575,307.2l-.12.23-.25-.08A18.92,18.92,0,0,0,569.17,306.54Z"/><circle class="e549e385-6cf7-42c5-875e-d1fdebd79e74" cx="638.47" cy="235.12" r="1.4"/><circle class="a2e84beb-e850-4c60-8e0b-5914efd85beb" cx="628.1" cy="353.28" r="1.4"/><polygon class="bd1814e7-8d7a-42c5-bfe0-51fcb3d1ddb3" points="708.82 361.8 660.11 361.8 660.11 326.35 660.83 326.35 660.83 361.08 708.82 361.08 708.82 361.8"/><path class="e549e385-6cf7-42c5-875e-d1fdebd79e74" d="M638.37,235.6a.51.51,0,0,1-.44-.24,45.64,45.64,0,0,0-9.54-11.12.5.5,0,0,1,.65-.77,46.44,46.44,0,0,1,9.76,11.36.52.52,0,0,1-.17.7A.48.48,0,0,1,638.37,235.6Z"/><path d="M670.9,343.49a.38.38,0,0,1-.38-.37V335a.38.38,0,0,1,.75,0v8.15A.38.38,0,0,1,670.9,343.49Z"/><path d="M687.19,343.49a.37.37,0,0,1-.37-.37V335a.37.37,0,0,1,.74,0v8.15A.37.37,0,0,1,687.19,343.49Z"/><path d="M679,343.49a4.45,4.45,0,1,1,4.45-4.44A4.44,4.44,0,0,1,679,343.49Zm0-8.14a3.7,3.7,0,1,0,3.7,3.7A3.7,3.7,0,0,0,679,335.35Z"/><path d="M695.34,343.49a4.45,4.45,0,1,1,4.44-4.44A4.45,4.45,0,0,1,695.34,343.49Zm0-8.14a3.7,3.7,0,1,0,3.7,3.7A3.7,3.7,0,0,0,695.34,335.35Z"/><path d="M670.9,355.71a.38.38,0,0,1-.38-.37v-8.15a.38.38,0,0,1,.75,0v8.15A.38.38,0,0,1,670.9,355.71Z"/><path d="M676.33,355.71a.37.37,0,0,1-.37-.37v-8.15a.37.37,0,0,1,.37-.37.38.38,0,0,1,.37.37v8.15A.38.38,0,0,1,676.33,355.71Z"/><path d="M692.62,355.71a.38.38,0,0,1-.37-.37v-8.15a.38.38,0,0,1,.37-.37.37.37,0,0,1,.37.37v8.15A.37.37,0,0,1,692.62,355.71Z"/><path d="M698.05,355.71a.38.38,0,0,1-.37-.37v-8.15a.38.38,0,0,1,.75,0v8.15A.38.38,0,0,1,698.05,355.71Z"/><path d="M684.48,355.71a4.45,4.45,0,1,1,4.44-4.44A4.44,4.44,0,0,1,684.48,355.71Zm0-8.14a3.7,3.7,0,1,0,3.7,3.7A3.7,3.7,0,0,0,684.48,347.57Z"/></g></g><path d="M772.62,348.11a2,2,0,0,1,0,.42c0,1.8-2.2,2.12-3.72,2.12-5.91,0-10.32-3.67-10.32-4.79a1,1,0,0,1,0-.24l-.44,1.1a2.17,2.17,0,0,0-.18.89c0,2.2,5,5.53,10.65,5.53,2.52,0,4.43-.95,4.43-2.65a6.12,6.12,0,0,0-.21-1.23Z"/><path class="a567f711-11b5-4ce8-abec-3022de68cfcb" d="M768.94,350.65c1.52,0,3.72-.32,3.72-2.12a2,2,0,0,0,0-.42l-.91-3.93c-.21-.86-.39-1.26-1.91-2a17.76,17.76,0,0,0-4.5-1.59c-.71,0-.92.91-1.76.91s-1.41-.68-2.17-.68-1.21.5-1.57,1.52c0,0-1,2.88-1.16,3.3a1,1,0,0,0,0,.24c0,1.12,4.41,4.79,10.32,4.79m3.95-1.39a6.12,6.12,0,0,1,.21,1.23c0,1.7-1.91,2.65-4.43,2.65-5.68,0-10.65-3.33-10.65-5.53a2.17,2.17,0,0,1,.18-.89c-2,.11-4.69.47-4.69,2.8,0,3.83,9.06,8.54,16.24,8.54,5.5,0,6.89-2.49,6.89-4.45,0-1.55-1.34-3.3-3.75-4.35"/><path class="e549e385-6cf7-42c5-875e-d1fdebd79e74" d="M779.11,344.89h4.38a2.94,2.94,0,0,1,3,2.91,2.75,2.75,0,0,1-1.63,2.49l1.91,3.38h-2.41l-1.64-3.08h-1.47v3.08h-2.16Zm2.16,1.84v2.08h2a1.05,1.05,0,0,0,1.09-1,1.08,1.08,0,0,0-1.09-1.07Z"/><path class="e549e385-6cf7-42c5-875e-d1fdebd79e74" d="M790.33,353.79a3.48,3.48,0,0,1-3.61-3.43,3.41,3.41,0,0,1,3.46-3.44,3.37,3.37,0,0,1,3.35,3.57v.56H788.8a1.71,1.71,0,0,0,1.63,1.05,1.82,1.82,0,0,0,1.33-.5l1.34,1.19A4,4,0,0,1,790.33,353.79Zm-1.54-4.16h2.76a1.48,1.48,0,0,0-1.39-1A1.38,1.38,0,0,0,788.79,349.63Z"/><path class="e549e385-6cf7-42c5-875e-d1fdebd79e74" d="M799.12,353.18a3.07,3.07,0,0,1-1.79.59,3.42,3.42,0,1,1,1.76-6.39v-2.49l2-.63v9.41h-2ZM797.66,352a2,2,0,0,0,1.43-.53v-2.32a2.13,2.13,0,0,0-1.43-.52,1.69,1.69,0,1,0,0,3.37Z"/><path class="e549e385-6cf7-42c5-875e-d1fdebd79e74" d="M809.75,350.23h-3.36v3.44h-2.16v-8.78h2.16v3.37h3.36v-3.37h2.16v8.78h-2.16Z"/><path class="e549e385-6cf7-42c5-875e-d1fdebd79e74" d="M816.9,353.27a3,3,0,0,1-1.78.51,2.23,2.23,0,0,1-2.47-2.12c0-1.17.94-2,2.58-2a3.57,3.57,0,0,1,1.67.37v-.4c0-.64-.43-1-1.26-1a5.06,5.06,0,0,0-2,.48l-.6-1.52a6.93,6.93,0,0,1,2.73-.67c2,0,3.15.89,3.15,2.5v4.26h-2Zm-1.24-.91a2.31,2.31,0,0,0,1.24-.34v-.69a2.7,2.7,0,0,0-1.31-.35c-.62,0-1,.27-1,.68S815,352.36,815.66,352.36Z"/><path class="e549e385-6cf7-42c5-875e-d1fdebd79e74" d="M822.89,353.77c-1.39,0-2.17-.67-2.17-2v-3h-1.4V347h1.4v-1.52l2-.62V347h1.85v1.69h-1.85v2.54c0,.56.3.78.91.78a2.27,2.27,0,0,0,.89-.2l-.27,1.64A3.68,3.68,0,0,1,822.89,353.77Z"/><path id="be8a02da-0098-4d71-a699-952418d4b66e" data-name="Rectangle 4740" class="b350d0b2-8f1d-49c8-b2d5-43ff26adf054" d="M53,200H393V380H53V200Z"/><path d="M318.62,348.11a2,2,0,0,1,0,.42c0,1.8-2.2,2.12-3.72,2.12-5.91,0-10.32-3.67-10.32-4.79a1,1,0,0,1,0-.24l-.44,1.1a2.17,2.17,0,0,0-.18.89c0,2.2,5,5.53,10.65,5.53,2.52,0,4.43-.95,4.43-2.65a6.12,6.12,0,0,0-.21-1.23Z"/><path class="a567f711-11b5-4ce8-abec-3022de68cfcb" d="M314.94,350.65c1.52,0,3.72-.32,3.72-2.12a2,2,0,0,0,0-.42l-.91-3.93c-.21-.86-.39-1.26-1.91-2a17.76,17.76,0,0,0-4.5-1.59c-.71,0-.92.91-1.76.91s-1.41-.68-2.17-.68-1.21.5-1.57,1.52c0,0-1,2.88-1.16,3.3a1,1,0,0,0,0,.24c0,1.12,4.41,4.79,10.32,4.79m3.95-1.39a6.12,6.12,0,0,1,.21,1.23c0,1.7-1.91,2.65-4.43,2.65-5.68,0-10.65-3.33-10.65-5.53a2.17,2.17,0,0,1,.18-.89c-2,.11-4.69.47-4.69,2.8,0,3.83,9.06,8.54,16.24,8.54,5.5,0,6.89-2.49,6.89-4.45,0-1.55-1.34-3.3-3.75-4.35"/><path d="M325.11,344.89h4.38a2.94,2.94,0,0,1,3,2.91,2.75,2.75,0,0,1-1.63,2.49l1.91,3.38h-2.41l-1.64-3.08h-1.47v3.08h-2.16Zm2.16,1.84v2.08h2a1.05,1.05,0,0,0,1.09-1,1.08,1.08,0,0,0-1.09-1.07Z"/><path d="M336.33,353.79a3.48,3.48,0,0,1-3.61-3.43,3.41,3.41,0,0,1,3.46-3.44,3.37,3.37,0,0,1,3.35,3.57v.56H334.8a1.71,1.71,0,0,0,1.63,1.05,1.82,1.82,0,0,0,1.33-.5l1.34,1.19A4,4,0,0,1,336.33,353.79Zm-1.54-4.16h2.76a1.48,1.48,0,0,0-1.39-1A1.38,1.38,0,0,0,334.79,349.63Z"/><path d="M345.12,353.18a3.07,3.07,0,0,1-1.79.59,3.42,3.42,0,1,1,1.76-6.39v-2.49l2-.63v9.41h-2ZM343.66,352a2,2,0,0,0,1.43-.53v-2.32a2.13,2.13,0,0,0-1.43-.52,1.69,1.69,0,1,0,0,3.37Z"/><path d="M355.75,350.23h-3.36v3.44h-2.16v-8.78h2.16v3.37h3.36v-3.37h2.16v8.78h-2.16Z"/><path d="M362.9,353.27a3,3,0,0,1-1.78.51,2.23,2.23,0,0,1-2.47-2.12c0-1.17.94-2,2.58-2a3.57,3.57,0,0,1,1.67.37v-.4c0-.64-.43-1-1.26-1a5.06,5.06,0,0,0-2,.48l-.6-1.52a6.93,6.93,0,0,1,2.73-.67c2,0,3.15.89,3.15,2.5v4.26h-2Zm-1.24-.91a2.31,2.31,0,0,0,1.24-.34v-.69a2.7,2.7,0,0,0-1.31-.35c-.62,0-1,.27-1,.68S361,352.36,361.66,352.36Z"/><path d="M368.89,353.77c-1.39,0-2.17-.67-2.17-2v-3h-1.4V347h1.4v-1.52l2-.62V347h1.85v1.69h-1.85v2.54c0,.56.3.78.91.78a2.27,2.27,0,0,0,.89-.2l-.27,1.64A3.68,3.68,0,0,1,368.89,353.77Z"/><g class="e853da97-d17b-4a7c-8c2c-48b2bb487d4f"><path class="e549e385-6cf7-42c5-875e-d1fdebd79e74" d="M235.45,229.12a15.82,15.82,0,0,0-5.57,1,22.62,22.62,0,0,0-18.8-11.88,34.09,34.09,0,0,0-62.54-4.49,25.79,25.79,0,1,0-7.47,50.48h93c12,0,17.19-10.57,17.19-19.31A15.81,15.81,0,0,0,235.45,229.12Z"/><path class="b350d0b2-8f1d-49c8-b2d5-43ff26adf054" d="M234.07,264.67h-93a26.22,26.22,0,1,1,7.25-51.43,34.52,34.52,0,0,1,63.07,4.6,23.19,23.19,0,0,1,18.69,11.76,16.26,16.26,0,0,1,21.6,15.33,22.41,22.41,0,0,1-4.17,13.19A16.14,16.14,0,0,1,234.07,264.67Zm-93-51.58a25.36,25.36,0,0,0,0,50.72h93a15.32,15.32,0,0,0,12.76-6.21,21.49,21.49,0,0,0,4-12.67A15.39,15.39,0,0,0,230,230.53l-.36.14-.17-.33a22.31,22.31,0,0,0-18.45-11.66h-.29l-.1-.28A33.66,33.66,0,0,0,148.92,214l-.16.32-.34-.1A25.34,25.34,0,0,0,141.07,213.09Z"/><rect class="e549e385-6cf7-42c5-875e-d1fdebd79e74" x="198.7" y="236.77" width="75.22" height="145.87"/><path class="b350d0b2-8f1d-49c8-b2d5-43ff26adf054" d="M273.92,383.15H198.7a.51.51,0,0,1-.51-.51V236.77a.51.51,0,0,1,.51-.51h75.22a.51.51,0,0,1,.51.51V382.64A.51.51,0,0,1,273.92,383.15Zm-74.71-1h74.2V237.28h-74.2Z"/><g class="f5990b1f-911a-43b0-b8d3-cc8823b47a77"><path class="b350d0b2-8f1d-49c8-b2d5-43ff26adf054" d="M281.88,370.33c-9.78,33.19-57.25,32.05-87.59,32.05-26.32,0-79.19-13.24-88.66-43.49a45.71,45.71,0,0,1-.52-27.24c2.78-9,7.21-17.75,8.09-27.27a66.72,66.72,0,0,0-3.3-27.76c-3-8.8-8.36-16.42-12.11-24.89-15.53-35.06,27.59-59.6,57.39-47,14.23,6,26.94,14.49,42.27,17.76,11,2.35,22.32,3,33.38.77,10.58-2.18,21.65-6.33,32.5-3.26,14.62,4.13,20.65,19.45,18.3,33.37-2.76,16.31-12.8,30.59-13.95,47.29-.8,11.72,1.9,23.42,6.7,34.37C279.27,346.15,285.55,357.84,281.88,370.33Z"/><path class="e549e385-6cf7-42c5-875e-d1fdebd79e74" d="M235.45,229.12a15.82,15.82,0,0,0-5.57,1,22.62,22.62,0,0,0-18.8-11.88,34.09,34.09,0,0,0-62.54-4.49,25.79,25.79,0,1,0-7.47,50.48h93c12,0,17.19-10.57,17.19-19.31A15.81,15.81,0,0,0,235.45,229.12Z"/><path class="b350d0b2-8f1d-49c8-b2d5-43ff26adf054" d="M234.07,264.67h-93a26.22,26.22,0,1,1,7.25-51.43,34.52,34.52,0,0,1,63.07,4.6,23.19,23.19,0,0,1,18.69,11.76,16.26,16.26,0,0,1,21.6,15.33,22.41,22.41,0,0,1-4.17,13.19A16.14,16.14,0,0,1,234.07,264.67Zm-93-51.58a25.36,25.36,0,0,0,0,50.72h93a15.32,15.32,0,0,0,12.76-6.21,21.49,21.49,0,0,0,4-12.67A15.39,15.39,0,0,0,230,230.53l-.36.14-.17-.33a22.31,22.31,0,0,0-18.45-11.66h-.29l-.1-.28A33.66,33.66,0,0,0,148.92,214l-.16.32-.34-.1A25.34,25.34,0,0,0,141.07,213.09Z"/><polygon points="113.16 321.55 113.16 408.09 121.44 408.09 121.44 385.02 121.44 364.5 121.44 342.84 121.44 321.55 113.16 321.55"/><rect class="e549e385-6cf7-42c5-875e-d1fdebd79e74" x="120.95" y="321.94" width="75.22" height="85.58"/><path class="b350d0b2-8f1d-49c8-b2d5-43ff26adf054" d="M196.17,408H121a.42.42,0,0,1-.42-.43V321.94a.42.42,0,0,1,.42-.42h75.22a.42.42,0,0,1,.43.42v85.58A.43.43,0,0,1,196.17,408Zm-74.79-.86h74.36V322.37H121.38Z"/><circle class="a567f711-11b5-4ce8-abec-3022de68cfcb" cx="181.83" cy="332.45" r="2.22"/><circle class="a567f711-11b5-4ce8-abec-3022de68cfcb" cx="181.83" cy="374.45" r="2.22"/><rect class="a567f711-11b5-4ce8-abec-3022de68cfcb" x="128.87" y="347.15" width="3.42" height="12.6"/><rect class="a567f711-11b5-4ce8-abec-3022de68cfcb" x="147.76" y="311.84" width="3.42" height="41.21" transform="translate(-182.97 481.92) rotate(-90)"/><rect class="a567f711-11b5-4ce8-abec-3022de68cfcb" x="147.76" y="353.85" width="3.42" height="41.21" transform="translate(-224.98 523.93) rotate(-90)"/><rect class="a567f711-11b5-4ce8-abec-3022de68cfcb" x="134.84" y="347.15" width="3.42" height="12.6"/><circle class="a567f711-11b5-4ce8-abec-3022de68cfcb" cx="178.23" cy="353.45" r="2.22"/><circle class="a567f711-11b5-4ce8-abec-3022de68cfcb" cx="185.44" cy="353.45" r="2.22"/><path class="b350d0b2-8f1d-49c8-b2d5-43ff26adf054" d="M198.73,341.08H120.92a.43.43,0,1,1,0-.85h77.81a.43.43,0,1,1,0,.85Z"/><path class="b350d0b2-8f1d-49c8-b2d5-43ff26adf054" d="M198.73,367.1H120.92a.43.43,0,1,1,0-.86h77.81a.43.43,0,1,1,0,.86Z"/><polygon points="189.99 236.13 189.99 322.67 198.28 322.67 198.28 299.6 198.28 279.07 198.28 257.42 198.28 236.13 189.99 236.13"/><rect class="e549e385-6cf7-42c5-875e-d1fdebd79e74" x="198.7" y="321.94" width="75.22" height="85.58"/><path class="b350d0b2-8f1d-49c8-b2d5-43ff26adf054" d="M273.92,408H198.7a.43.43,0,0,1-.43-.43V321.94a.43.43,0,0,1,.43-.42h75.22a.42.42,0,0,1,.43.42v85.58A.43.43,0,0,1,273.92,408Zm-74.79-.86h74.36V322.37H199.13Z"/><circle class="a567f711-11b5-4ce8-abec-3022de68cfcb" cx="259.58" cy="332.45" r="2.22"/><circle class="a567f711-11b5-4ce8-abec-3022de68cfcb" cx="259.58" cy="374.45" r="2.22"/><rect class="a567f711-11b5-4ce8-abec-3022de68cfcb" x="206.61" y="347.15" width="3.42" height="12.6"/><rect class="a567f711-11b5-4ce8-abec-3022de68cfcb" x="225.51" y="311.84" width="3.42" height="41.21" transform="translate(-105.22 559.67) rotate(-90)"/><rect class="a567f711-11b5-4ce8-abec-3022de68cfcb" x="225.51" y="353.85" width="3.42" height="41.21" transform="translate(-147.23 601.68) rotate(-90)"/><rect class="a567f711-11b5-4ce8-abec-3022de68cfcb" x="212.59" y="347.15" width="3.42" height="12.6"/><circle class="a567f711-11b5-4ce8-abec-3022de68cfcb" cx="255.97" cy="353.45" r="2.22"/><circle class="a567f711-11b5-4ce8-abec-3022de68cfcb" cx="263.19" cy="353.45" r="2.22"/><polygon points="189.99 321.89 189.99 407.52 198.28 407.52 198.28 384.45 198.28 363.92 198.28 342.26 198.28 321.89 189.99 321.89"/><rect class="e549e385-6cf7-42c5-875e-d1fdebd79e74" x="198.7" y="236.77" width="75.22" height="85.58"/><path class="b350d0b2-8f1d-49c8-b2d5-43ff26adf054" d="M273.92,322.78H198.7a.44.44,0,0,1-.43-.43V236.77a.44.44,0,0,1,.43-.43h75.22a.43.43,0,0,1,.43.43v85.58A.43.43,0,0,1,273.92,322.78Zm-74.79-.86h74.36V237.2H199.13Z"/><circle class="a567f711-11b5-4ce8-abec-3022de68cfcb" cx="259.58" cy="247.27" r="2.22"/><circle class="a567f711-11b5-4ce8-abec-3022de68cfcb" cx="259.58" cy="289.28" r="2.22"/><rect class="a567f711-11b5-4ce8-abec-3022de68cfcb" x="206.61" y="261.98" width="3.42" height="12.6"/><rect class="a567f711-11b5-4ce8-abec-3022de68cfcb" x="225.51" y="226.67" width="3.42" height="41.21" transform="translate(-20.05 474.5) rotate(-90)"/><rect class="a567f711-11b5-4ce8-abec-3022de68cfcb" x="225.51" y="268.68" width="3.42" height="41.21" transform="translate(-62.06 516.5) rotate(-90)"/><rect class="a567f711-11b5-4ce8-abec-3022de68cfcb" x="212.59" y="261.98" width="3.42" height="12.6"/><circle class="a567f711-11b5-4ce8-abec-3022de68cfcb" cx="255.97" cy="268.28" r="2.22"/><circle class="a567f711-11b5-4ce8-abec-3022de68cfcb" cx="263.19" cy="268.28" r="2.22"/><rect class="a567f711-11b5-4ce8-abec-3022de68cfcb" x="206.61" y="303.99" width="3.42" height="13.22"/><rect class="a567f711-11b5-4ce8-abec-3022de68cfcb" x="212.59" y="303.99" width="3.42" height="13.22"/><circle class="a567f711-11b5-4ce8-abec-3022de68cfcb" cx="255.97" cy="310.29" r="2.22"/><circle class="a567f711-11b5-4ce8-abec-3022de68cfcb" cx="263.19" cy="310.29" r="2.22"/></g><path class="e549e385-6cf7-42c5-875e-d1fdebd79e74" d="M168.05,296.74H96.3a20.37,20.37,0,1,1,0-40.73,20.1,20.1,0,0,1,5.52.76,26.77,26.77,0,0,1,48.83,3.57,18,18,0,0,1,14.39,9,12.67,12.67,0,0,1,16.74,12C181.78,289,177.07,296.74,168.05,296.74ZM96.3,256.94a19.43,19.43,0,1,0,0,38.86h71.75a11.68,11.68,0,0,0,9.74-4.73,16.48,16.48,0,0,0,3.06-9.69,11.74,11.74,0,0,0-11.73-11.73,11.62,11.62,0,0,0-4.13.75l-.38.14-.2-.36a17.09,17.09,0,0,0-14.12-8.92H150l-.11-.3a25.82,25.82,0,0,0-47.39-3.41l-.18.34-.37-.11A19.48,19.48,0,0,0,96.3,256.94Z"/><path class="b350d0b2-8f1d-49c8-b2d5-43ff26adf054" d="M184.83,228.34a6.34,6.34,0,1,0-9.21,5.65v6.28a2.87,2.87,0,1,0,5.74,0V234A6.32,6.32,0,0,0,184.83,228.34Z"/><polygon class="a2e84beb-e850-4c60-8e0b-5914efd85beb" points="168.01 235.13 168.01 257.52 148.63 268.71 129.24 257.52 129.24 235.13 148.63 223.94 168.01 235.13"/><g class="bc3902b0-17bd-42f3-8911-e454b3477c40"><path d="M132.93,217.59c-1.16,1.25-1.69,3.75-2.19,5.31a35.06,35.06,0,0,0-2,10.22c-.07,4.78,3,9.28,6.08,12.78s6.74,5.85,9.42,9.44a17.15,17.15,0,0,1,1.31,2,25.09,25.09,0,0,1,2.57,14.21c0,.23-.06,1.68-.45,1.69l-26.28.92-2-56.06S133.4,217.08,132.93,217.59Z"/></g><line class="a2e84beb-e850-4c60-8e0b-5914efd85beb" x1="129.24" y1="235.13" x2="148.64" y2="246.33"/><path class="e549e385-6cf7-42c5-875e-d1fdebd79e74" d="M148.64,246.76a.42.42,0,0,1-.21-.06L129,235.5a.42.42,0,0,1-.16-.58.43.43,0,0,1,.59-.16l19.4,11.2a.45.45,0,0,1,.16.59A.43.43,0,0,1,148.64,246.76Z"/><path class="e549e385-6cf7-42c5-875e-d1fdebd79e74" d="M148.64,272.73a.43.43,0,0,1-.43-.43v-26a.44.44,0,0,1,.43-.43.43.43,0,0,1,.43.43v26A.43.43,0,0,1,148.64,272.73Z"/><line class="a2e84beb-e850-4c60-8e0b-5914efd85beb" x1="168.01" y1="235.13" x2="148.64" y2="246.33"/><path class="e549e385-6cf7-42c5-875e-d1fdebd79e74" d="M148.64,246.76a.43.43,0,0,1-.21-.8l19.37-11.2a.43.43,0,0,1,.59.16.44.44,0,0,1-.16.58l-19.37,11.2A.43.43,0,0,1,148.64,246.76Z"/><polygon class="a2e84beb-e850-4c60-8e0b-5914efd85beb" points="186.94 263.1 186.94 293.42 160.67 308.58 134.41 293.42 134.41 263.1 160.67 247.93 186.94 263.1"/><g class="b57cb5c7-b6dd-43e1-ba0c-06de5feaabf8"><path d="M139.41,239.33c-1.58,1.7-2.29,5.08-3,7.2a47.82,47.82,0,0,0-2.67,13.84c-.08,6.47,4.13,12.58,8.24,17.32a127.88,127.88,0,0,1,8.24,10.14c.65.88-1.21,10.9-.69,11.87,3.17,5.84,11.07,6.21,10.46,12.77,0,.31-.07,2.28-.6,2.29L123.81,316l-2.72-75.94S140.05,238.64,139.41,239.33Z"/><polygon points="153.78 283.94 153.78 298.99 140.75 306.51 127.72 298.99 127.72 283.94 140.75 276.42 153.78 283.94"/><path d="M151.16,291.71s8.44,7.07,9.13,16.88v4.11L143.4,302.21,142,290.72Z"/><line class="a2e84beb-e850-4c60-8e0b-5914efd85beb" x1="134.41" y1="263.1" x2="160.7" y2="278.27"/><path class="e549e385-6cf7-42c5-875e-d1fdebd79e74" d="M160.7,278.7a.43.43,0,0,1-.22-.06L134.2,263.47a.43.43,0,0,1-.16-.59.45.45,0,0,1,.59-.16l26.28,15.18a.42.42,0,0,1,.16.58A.44.44,0,0,1,160.7,278.7Z"/><path class="e549e385-6cf7-42c5-875e-d1fdebd79e74" d="M160.7,313.88a.43.43,0,0,1-.43-.43V278.27a.43.43,0,0,1,.43-.43.43.43,0,0,1,.43.43v35.18A.43.43,0,0,1,160.7,313.88Z"/><line class="a2e84beb-e850-4c60-8e0b-5914efd85beb" x1="186.93" y1="263.1" x2="160.7" y2="278.27"/><path class="e549e385-6cf7-42c5-875e-d1fdebd79e74" d="M160.7,278.7a.43.43,0,0,1-.22-.8l26.24-15.18a.45.45,0,0,1,.59.16.43.43,0,0,1-.16.59l-26.24,15.17A.42.42,0,0,1,160.7,278.7Z"/></g><polygon class="a2e84beb-e850-4c60-8e0b-5914efd85beb" points="147.39 287.59 147.39 302.64 134.36 310.16 121.33 302.64 121.33 287.59 134.36 280.07 147.39 287.59"/><g class="b85af638-c75d-4d6d-a681-2b1700c2e8b5"><path d="M123.81,275.8c-.79.84-1.14,2.52-1.48,3.57a23.76,23.76,0,0,0-1.32,6.87c0,3.21,2,6.24,4.09,8.59s4.53,3.94,6.33,6.34a13.26,13.26,0,0,1,.88,1.37,16.77,16.77,0,0,1,1.72,9.55c0,.16,0,1.13-.3,1.14l-17.66.62-1.35-37.68S124.13,275.46,123.81,275.8Z"/><line class="a2e84beb-e850-4c60-8e0b-5914efd85beb" x1="121.33" y1="287.59" x2="134.37" y2="295.12"/><path class="e549e385-6cf7-42c5-875e-d1fdebd79e74" d="M134.37,295.55a.59.59,0,0,1-.22-.05l-13-7.53a.43.43,0,0,1-.15-.59.42.42,0,0,1,.58-.16l13,7.53a.43.43,0,0,1,.16.59A.42.42,0,0,1,134.37,295.55Z"/><path class="e549e385-6cf7-42c5-875e-d1fdebd79e74" d="M134.37,313a.43.43,0,0,1-.43-.43V295.12a.43.43,0,0,1,.86,0v17.46A.43.43,0,0,1,134.37,313Z"/><line class="a2e84beb-e850-4c60-8e0b-5914efd85beb" x1="147.39" y1="287.59" x2="134.37" y2="295.12"/><path class="e549e385-6cf7-42c5-875e-d1fdebd79e74" d="M134.37,295.55a.42.42,0,0,1-.37-.21.43.43,0,0,1,.15-.59l13-7.53a.43.43,0,0,1,.43.75l-13,7.53A.5.5,0,0,1,134.37,295.55Z"/></g><path class="b350d0b2-8f1d-49c8-b2d5-43ff26adf054" d="M273.81,255.74H198.73a.42.42,0,0,1-.42-.43.43.43,0,0,1,.42-.43h75.08a.44.44,0,0,1,.43.43A.43.43,0,0,1,273.81,255.74Z"/><path class="b350d0b2-8f1d-49c8-b2d5-43ff26adf054" d="M273.81,281.53H198.73a.43.43,0,0,1,0-.86h75.08a.43.43,0,1,1,0,.86Z"/><path class="b350d0b2-8f1d-49c8-b2d5-43ff26adf054" d="M273.81,299.1H198.73a.43.43,0,0,1,0-.86h75.08a.43.43,0,0,1,0,.86Z"/><path class="b350d0b2-8f1d-49c8-b2d5-43ff26adf054" d="M273.81,322.71H198.73a.43.43,0,0,1-.42-.43.42.42,0,0,1,.42-.43h75.08a.43.43,0,0,1,.43.43A.44.44,0,0,1,273.81,322.71Z"/><path class="b350d0b2-8f1d-49c8-b2d5-43ff26adf054" d="M273.81,341.08H198.73a.43.43,0,0,1,0-.85h75.08a.43.43,0,1,1,0,.85Z"/><path class="b350d0b2-8f1d-49c8-b2d5-43ff26adf054" d="M273.81,367.1H198.73a.43.43,0,0,1,0-.86h75.08a.43.43,0,0,1,0,.86Z"/><path d="M128.14,264.74h-10.3a.43.43,0,1,1,0-.85h10.3a.43.43,0,1,1,0,.85Z"/><path d="M128.14,278.22H109.86a.43.43,0,0,1,0-.86h18.28a.43.43,0,1,1,0,.86Z"/><path d="M128.14,271.48H92.29a.43.43,0,0,1-.43-.43.43.43,0,0,1,.43-.43h35.85a.44.44,0,0,1,.43.43A.43.43,0,0,1,128.14,271.48Z"/><rect x="107.31" y="357.21" width="0.86" height="2.24"/><path d="M108.16,350.82h-.85v-4.6h.85Zm0-11h-.85v-4.6h.85Zm0-11h-.85v-4.61h.85Z"/><polygon points="108.16 317.83 107.31 317.83 107.31 315.16 109.98 315.16 109.98 316.02 108.16 316.02 108.16 317.83"/><path d="M178.13,316.09h-4.75v-.86h4.75Zm-11.36,0H162v-.85h4.75Zm-11.36,0h-4.75v-.86h4.75Zm-11.36,0H139.3v-.86h4.76Zm-11.36,0h-4.75v-.86h4.76Zm-11.35,0h-4.76v-.86h4.76Z"/><rect x="185.43" y="314.55" width="0.86" height="2.24" transform="translate(-130.01 501.19) rotate(-89.94)"/></g><g id="ff58afc7-923d-4fcd-9b2a-cd38b0c1e9c9" data-name="Group 36006"><g id="fc061697-c747-4183-aca6-5682d280cd00" data-name="Group 36005"><path id="a631b67b-2abc-4b3c-b671-6ec7c7a3ceba" data-name="Path 7034" class="a039c9cc-9bf9-47eb-ae87-bee1f5dbf0ed" d="M603.43,90l-.17,60a60,60,0,0,0,52-29.86,57.35,57.35,0,0,0,8.12-30,57.26,57.26,0,0,0-8-30Z"/><path id="a65cb83d-5c28-4133-8426-ab9195b846dd" data-name="Path 7035" class="b342d3e8-c24d-49a3-ba14-e22f3b9cfb12" d="M603.42,90l52-29.85a57.21,57.21,0,0,0-21.9-22Z"/><path id="b8574a15-56e1-4b39-bcd9-fc4cfdf4fd5d" data-name="Path 7036" class="bd1814e7-8d7a-42c5-bfe0-51fcb3d1ddb3" d="M603.42,90l30.14-51.87a57.16,57.16,0,0,0-30-8.12Z"/><path id="aa2a8f84-cc45-4acf-ade9-944af3f935a3" data-name="Path 7037" class="a567f711-11b5-4ce8-abec-3022de68cfcb" d="M573.57,38a57.41,57.41,0,0,0-22,21.9L603.42,90l.17-60A57.36,57.36,0,0,0,573.57,38Z"/><g id="febd2db3-bfbc-475d-940b-4cb9bc0e86e8" data-name="Group 36004"><g id="b69b8a0f-7efa-4caa-9543-1f06c9d62482" data-name="Group 36003"><path id="e2a81cd4-7c86-4a95-96a6-0673569f6df2" data-name="Path 7038" class="a3085137-6681-42de-988e-ac9d6708a3d1" d="M603.42,90l-60-.16a57.41,57.41,0,0,1,8.12-30Z"/></g></g><path id="fcc06201-17f6-4b02-a20f-6dfdaff5ab69" data-name="Path 7039" d="M551.39,119.86A60,60,0,0,0,603.26,150l.16-60-60-.16A57.4,57.4,0,0,0,551.39,119.86Z"/></g><circle id="f9989c3e-53a6-407f-b212-65355d61a770" data-name="Ellipse 224" class="e012104a-686f-42b8-b44f-44be6db16e0a" cx="603.43" cy="90" r="30.05"/></g></svg>