<svg id="e7a1dd48-9f4e-4052-9a06-a2ceb1ff89f5" data-name="Layer 1" xmlns="http://www.w3.org/2000/svg" viewBox="0 0 596 318"><defs><style>.b4bb6e36-9a47-4470-9b59-02457125f235{fill:#f3f3f3;}.b6e8ec43-8fca-4280-a77b-cf2332279bc7{fill:#e00;}.bb836e92-1a36-4758-a03c-7bf57b4fcd3c{fill:#fff;}.b990adce-c32e-44b7-b856-e6dca1e1e18c{fill:#4d4d4d;}.f5be2735-6c63-4cd6-9245-20f668d17bf6{fill:#dedede;}</style></defs><rect class="b4bb6e36-9a47-4470-9b59-02457125f235" y="159" width="298" height="159"/><path class="b6e8ec43-8fca-4280-a77b-cf2332279bc7" d="M42.55,235.15H36.48V233.5h14v1.65H44.4V250.3H42.55Z"/><path class="b6e8ec43-8fca-4280-a77b-cf2332279bc7" d="M52.39,233.5l1.78-.41v6.6A4.76,4.76,0,0,1,58,238a4.43,4.43,0,0,1,4.63,4.66v7.61H60.84v-7.25a3.17,3.17,0,0,0-3.36-3.46,3.75,3.75,0,0,0-3.31,1.85v8.86H52.39Z"/><path class="b6e8ec43-8fca-4280-a77b-cf2332279bc7" d="M65.26,234.77a1.2,1.2,0,0,1,1.2-1.2,1.19,1.19,0,0,1,1.2,1.2,1.2,1.2,0,0,1-1.2,1.2A1.22,1.22,0,0,1,65.26,234.77Zm.31,3.5h1.77v12H65.57Z"/><path class="b6e8ec43-8fca-4280-a77b-cf2332279bc7" d="M69.14,248.67l1.08-1.16a5.74,5.74,0,0,0,3.92,1.61c1.92,0,3.26-.89,3.26-2.16,0-1.05-.69-1.63-2.23-1.85l-2.09-.28c-2.4-.34-3.55-1.42-3.55-3.29S71.4,238,74,238a7.71,7.71,0,0,1,4.73,1.59l-.94,1.2a6.74,6.74,0,0,0-3.89-1.35c-1.65,0-2.78.82-2.78,2s.65,1.6,2.23,1.82l2.09.29c2.4.33,3.6,1.41,3.6,3.29,0,2.08-2.11,3.67-4.87,3.67A7.35,7.35,0,0,1,69.14,248.67Z"/><path class="b6e8ec43-8fca-4280-a77b-cf2332279bc7" d="M85.68,244.27A6.13,6.13,0,0,1,91.8,238a6.86,6.86,0,0,1,4.71,1.9l-1.13,1.3a4.94,4.94,0,0,0-3.56-1.56,4.63,4.63,0,0,0,0,9.24,4.88,4.88,0,0,0,3.5-1.52l1.11,1.2a6.7,6.7,0,0,1-4.66,1.92A6.11,6.11,0,0,1,85.68,244.27Z"/><path class="b6e8ec43-8fca-4280-a77b-cf2332279bc7" d="M97.63,244.3a6.15,6.15,0,1,1,6.15,6.24A6.13,6.13,0,0,1,97.63,244.3Zm10.54,0a4.4,4.4,0,1,0-4.39,4.65A4.49,4.49,0,0,0,108.17,244.3Z"/><path class="b6e8ec43-8fca-4280-a77b-cf2332279bc7" d="M112.39,238.27h1.78v1.42A4.76,4.76,0,0,1,118,238a4.43,4.43,0,0,1,4.63,4.66v7.61h-1.75v-7.25a3.17,3.17,0,0,0-3.36-3.46,3.75,3.75,0,0,0-3.31,1.85v8.86h-1.78Z"/><path class="b6e8ec43-8fca-4280-a77b-cf2332279bc7" d="M126.7,247.63v-7.84h-2.6v-1.52h2.6v-3l1.75-.46v3.5h3.62v1.52h-3.62v7.39c0,1.29.53,1.8,1.85,1.8a4.28,4.28,0,0,0,1.75-.31v1.56a7,7,0,0,1-2.11.31C127.85,250.54,126.7,249.53,126.7,247.63Z"/><path class="b6e8ec43-8fca-4280-a77b-cf2332279bc7" d="M133.18,244.27a6,6,0,0,1,5.92-6.19,5.9,5.9,0,0,1,5.69,6.19v.56h-9.86a4.51,4.51,0,0,0,4.51,4.12,5.19,5.19,0,0,0,3.31-1.1l1.11,1.18a7.17,7.17,0,0,1-4.49,1.48A6.12,6.12,0,0,1,133.18,244.27Zm9.84-.86a4,4,0,0,0-8,0Z"/><path class="b6e8ec43-8fca-4280-a77b-cf2332279bc7" d="M147.26,238.27H149v1.42a4.78,4.78,0,0,1,3.79-1.66,4.43,4.43,0,0,1,4.63,4.66v7.61h-1.75v-7.25a3.16,3.16,0,0,0-3.36-3.46,3.75,3.75,0,0,0-3.31,1.85v8.86h-1.78Z"/><path class="b6e8ec43-8fca-4280-a77b-cf2332279bc7" d="M161.57,247.63v-7.84H159v-1.52h2.59v-3l1.75-.46v3.5h3.62v1.52h-3.62v7.39c0,1.29.53,1.8,1.85,1.8a4.28,4.28,0,0,0,1.75-.31v1.56a7,7,0,0,1-2.11.31C162.72,250.54,161.57,249.53,161.57,247.63Z"/><path class="b6e8ec43-8fca-4280-a77b-cf2332279bc7" d="M174,233.5l1.78-.41v6.6a4.76,4.76,0,0,1,3.79-1.66,4.43,4.43,0,0,1,4.63,4.66v7.61h-1.75v-7.25a3.17,3.17,0,0,0-3.36-3.46,3.75,3.75,0,0,0-3.31,1.85v8.86H174Z"/><path class="b6e8ec43-8fca-4280-a77b-cf2332279bc7" d="M186.53,246.89c0-2.26,1.85-3.67,4.8-3.67a7.93,7.93,0,0,1,3.53.81v-1.58c0-1.92-1.11-2.9-3.2-2.9a8,8,0,0,0-3.76,1l-.68-1.37a10.24,10.24,0,0,1,4.61-1.2c3,0,4.75,1.49,4.75,4.18v8.09h-1.72v-1.18a5.71,5.71,0,0,1-3.89,1.39C188.33,250.51,186.53,249.05,186.53,246.89Zm4.75,2.23a4.8,4.8,0,0,0,3.58-1.39v-2.26a5.91,5.91,0,0,0-3.48-1c-1.92,0-3.15.92-3.15,2.33S189.48,249.12,191.28,249.12Z"/><path class="b6e8ec43-8fca-4280-a77b-cf2332279bc7" d="M198.33,248.67l1.09-1.16a5.7,5.7,0,0,0,3.91,1.61c1.92,0,3.26-.89,3.26-2.16,0-1.05-.69-1.63-2.23-1.85l-2.09-.28c-2.4-.34-3.55-1.42-3.55-3.29s1.87-3.51,4.51-3.51a7.71,7.71,0,0,1,4.73,1.59l-.94,1.2a6.73,6.73,0,0,0-3.88-1.35c-1.66,0-2.79.82-2.79,2s.65,1.6,2.23,1.82l2.09.29c2.4.33,3.6,1.41,3.6,3.29,0,2.08-2.11,3.67-4.87,3.67A7.35,7.35,0,0,1,198.33,248.67Z"/><path class="b6e8ec43-8fca-4280-a77b-cf2332279bc7" d="M37.58,262.3l1.78-.41v6.6a4.78,4.78,0,0,1,3.79-1.66,4.44,4.44,0,0,1,4.64,4.66v7.61H46v-7.25a3.16,3.16,0,0,0-3.36-3.46,3.75,3.75,0,0,0-3.31,1.85v8.86H37.58Z"/><path class="b6e8ec43-8fca-4280-a77b-cf2332279bc7" d="M50.45,263.57a1.2,1.2,0,0,1,1.2-1.2,1.19,1.19,0,0,1,1.2,1.2,1.2,1.2,0,0,1-1.2,1.2A1.22,1.22,0,0,1,50.45,263.57Zm.31,3.5h1.78v12H50.76Z"/><path class="b6e8ec43-8fca-4280-a77b-cf2332279bc7" d="M56.71,283l.77-1.4a7.94,7.94,0,0,0,3.87,1.11c2.28,0,3.48-1.11,3.48-3.22V277.8A5.85,5.85,0,0,1,61,279.19a6.17,6.17,0,0,1,.05-12.33,5.93,5.93,0,0,1,3.79,1.41v-1.2H66.6v12.39c0,3.07-1.85,4.78-5.18,4.78A9.49,9.49,0,0,1,56.71,283Zm8.12-7v-5.91a4.63,4.63,0,0,0-3.68-1.63,4.6,4.6,0,0,0,0,9.19A4.56,4.56,0,0,0,64.83,276Z"/><path class="b6e8ec43-8fca-4280-a77b-cf2332279bc7" d="M69.62,262.3l1.78-.41v6.6a4.78,4.78,0,0,1,3.79-1.66,4.44,4.44,0,0,1,4.64,4.66v7.61H78.07v-7.25a3.16,3.16,0,0,0-3.36-3.46,3.75,3.75,0,0,0-3.31,1.85v8.86H69.62Z"/><path class="b6e8ec43-8fca-4280-a77b-cf2332279bc7" d="M87.41,273.07a6.13,6.13,0,0,1,6.12-6.24,6.82,6.82,0,0,1,4.7,1.9L97.1,270a4.9,4.9,0,0,0-3.55-1.56,4.63,4.63,0,0,0,0,9.24,4.9,4.9,0,0,0,3.5-1.52l1.11,1.2a6.72,6.72,0,0,1-4.66,1.92A6.11,6.11,0,0,1,87.41,273.07Z"/><path class="b6e8ec43-8fca-4280-a77b-cf2332279bc7" d="M99.36,273.1a6.15,6.15,0,1,1,6.14,6.24A6.13,6.13,0,0,1,99.36,273.1Zm10.54,0a4.4,4.4,0,1,0-4.4,4.65A4.49,4.49,0,0,0,109.9,273.1Z"/><path class="b6e8ec43-8fca-4280-a77b-cf2332279bc7" d="M114.12,267.07h1.78v1.42a4.76,4.76,0,0,1,3.79-1.66,4.43,4.43,0,0,1,4.63,4.66v7.61h-1.75v-7.25a3.17,3.17,0,0,0-3.36-3.46,3.75,3.75,0,0,0-3.31,1.85v8.86h-1.78Z"/><path class="b6e8ec43-8fca-4280-a77b-cf2332279bc7" d="M128.42,276.43v-7.84h-2.59v-1.52h2.59v-3l1.76-.46v3.5h3.62v1.52h-3.62V276c0,1.29.52,1.8,1.84,1.8a4.3,4.3,0,0,0,1.76-.31V279a7.06,7.06,0,0,1-2.12.31C129.58,279.34,128.42,278.33,128.42,276.43Z"/><path class="b6e8ec43-8fca-4280-a77b-cf2332279bc7" d="M135.7,267.07h1.77v1.71a3.75,3.75,0,0,1,3.36-2A3.28,3.28,0,0,1,142,267v1.63a4,4,0,0,0-1.25-.22,3.41,3.41,0,0,0-3.24,2.48v8.23H135.7Z"/><path class="b6e8ec43-8fca-4280-a77b-cf2332279bc7" d="M142.75,275.69c0-2.26,1.85-3.67,4.8-3.67a7.9,7.9,0,0,1,3.53.81v-1.58c0-1.92-1.1-2.9-3.19-2.9a8,8,0,0,0-3.77,1l-.67-1.37a10.21,10.21,0,0,1,4.61-1.2c3,0,4.75,1.49,4.75,4.18v8.09h-1.73v-1.18a5.71,5.71,0,0,1-3.89,1.39C144.55,279.31,142.75,277.85,142.75,275.69Zm4.75,2.23a4.8,4.8,0,0,0,3.58-1.39v-2.26a5.88,5.88,0,0,0-3.48-1c-1.92,0-3.14.92-3.14,2.33S145.7,277.92,147.5,277.92Z"/><path class="b6e8ec43-8fca-4280-a77b-cf2332279bc7" d="M154.56,277.47l1.08-1.16a5.72,5.72,0,0,0,3.91,1.61c1.92,0,3.27-.89,3.27-2.16,0-1.05-.7-1.63-2.24-1.85l-2.08-.28c-2.4-.34-3.56-1.42-3.56-3.29s1.88-3.51,4.52-3.51a7.66,7.66,0,0,1,4.72,1.59l-.93,1.2a6.79,6.79,0,0,0-3.89-1.35c-1.66,0-2.78.82-2.78,2s.64,1.6,2.23,1.82l2.09.29c2.4.33,3.6,1.41,3.6,3.29,0,2.08-2.12,3.67-4.88,3.67A7.3,7.3,0,0,1,154.56,277.47Z"/><path class="b6e8ec43-8fca-4280-a77b-cf2332279bc7" d="M167.74,276.43v-7.84h-2.6v-1.52h2.6v-3l1.75-.46v3.5h3.62v1.52h-3.62V276c0,1.29.53,1.8,1.85,1.8a4.28,4.28,0,0,0,1.75-.31V279a7,7,0,0,1-2.11.31C168.89,279.34,167.74,278.33,167.74,276.43Z"/><path class="b6e8ec43-8fca-4280-a77b-cf2332279bc7" d="M175.27,278a1.23,1.23,0,1,1,1.23,1.22A1.24,1.24,0,0,1,175.27,278Z"/><path class="b6e8ec43-8fca-4280-a77b-cf2332279bc7" d="M57.5,216.3a25.73,25.73,0,0,1-21.27-11.25.92.92,0,0,1,0-1,25.71,25.71,0,0,1,42.53,0,.92.92,0,0,1,0,1A25.7,25.7,0,0,1,57.5,216.3ZM38.11,204.53a23.88,23.88,0,0,0,38.78,0,23.9,23.9,0,0,0-38.78,0Z"/><path class="b6e8ec43-8fca-4280-a77b-cf2332279bc7" d="M57.5,211.31a6.78,6.78,0,1,1,6.77-6.78A6.79,6.79,0,0,1,57.5,211.31Zm0-11.72a4.95,4.95,0,1,0,4.94,4.94A5,5,0,0,0,57.5,199.59Z"/><rect width="298" height="159"/><path class="bb836e92-1a36-4758-a03c-7bf57b4fcd3c" d="M42.55,76.15H36.48V74.5h14v1.65H44.4V91.3H42.55Z"/><path class="bb836e92-1a36-4758-a03c-7bf57b4fcd3c" d="M52.39,74.5l1.78-.41v6.6A4.76,4.76,0,0,1,58,79a4.43,4.43,0,0,1,4.63,4.66V91.3H60.84V84.05a3.17,3.17,0,0,0-3.36-3.46,3.75,3.75,0,0,0-3.31,1.85V91.3H52.39Z"/><path class="bb836e92-1a36-4758-a03c-7bf57b4fcd3c" d="M65.26,75.77a1.2,1.2,0,0,1,1.2-1.2,1.19,1.19,0,0,1,1.2,1.2,1.2,1.2,0,0,1-1.2,1.2A1.22,1.22,0,0,1,65.26,75.77Zm.31,3.5h1.77v12H65.57Z"/><path class="bb836e92-1a36-4758-a03c-7bf57b4fcd3c" d="M69.14,89.67l1.08-1.16a5.74,5.74,0,0,0,3.92,1.61c1.92,0,3.26-.89,3.26-2.16,0-1-.69-1.63-2.23-1.85l-2.09-.28c-2.4-.34-3.55-1.42-3.55-3.29,0-2,1.87-3.51,4.51-3.51a7.71,7.71,0,0,1,4.73,1.59l-.94,1.2a6.74,6.74,0,0,0-3.89-1.35c-1.65,0-2.78.82-2.78,2s.65,1.6,2.23,1.82l2.09.29c2.4.33,3.6,1.41,3.6,3.29,0,2.08-2.11,3.67-4.87,3.67A7.35,7.35,0,0,1,69.14,89.67Z"/><path class="bb836e92-1a36-4758-a03c-7bf57b4fcd3c" d="M85.68,85.27A6.13,6.13,0,0,1,91.8,79a6.86,6.86,0,0,1,4.71,1.9l-1.13,1.3a4.94,4.94,0,0,0-3.56-1.56,4.63,4.63,0,0,0,0,9.24,4.88,4.88,0,0,0,3.5-1.52l1.11,1.2a6.7,6.7,0,0,1-4.66,1.92A6.11,6.11,0,0,1,85.68,85.27Z"/><path class="bb836e92-1a36-4758-a03c-7bf57b4fcd3c" d="M97.63,85.3a6.15,6.15,0,1,1,6.15,6.24A6.13,6.13,0,0,1,97.63,85.3Zm10.54,0A4.4,4.4,0,1,0,103.78,90,4.49,4.49,0,0,0,108.17,85.3Z"/><path class="bb836e92-1a36-4758-a03c-7bf57b4fcd3c" d="M112.39,79.27h1.78v1.42A4.76,4.76,0,0,1,118,79a4.43,4.43,0,0,1,4.63,4.66V91.3h-1.75V84.05a3.17,3.17,0,0,0-3.36-3.46,3.75,3.75,0,0,0-3.31,1.85V91.3h-1.78Z"/><path class="bb836e92-1a36-4758-a03c-7bf57b4fcd3c" d="M126.7,88.63V80.79h-2.6V79.27h2.6v-3l1.75-.46v3.5h3.62v1.52h-3.62v7.39c0,1.29.53,1.8,1.85,1.8a4.28,4.28,0,0,0,1.75-.31v1.56a7,7,0,0,1-2.11.31C127.85,91.54,126.7,90.53,126.7,88.63Z"/><path class="bb836e92-1a36-4758-a03c-7bf57b4fcd3c" d="M133.18,85.27a6,6,0,0,1,5.92-6.19,5.9,5.9,0,0,1,5.69,6.19v.56h-9.86A4.51,4.51,0,0,0,139.44,90a5.19,5.19,0,0,0,3.31-1.1L143.86,90a7.17,7.17,0,0,1-4.49,1.48A6.12,6.12,0,0,1,133.18,85.27Zm9.84-.86a4,4,0,0,0-8,0Z"/><path class="bb836e92-1a36-4758-a03c-7bf57b4fcd3c" d="M147.26,79.27H149v1.42A4.78,4.78,0,0,1,152.83,79a4.43,4.43,0,0,1,4.63,4.66V91.3h-1.75V84.05a3.16,3.16,0,0,0-3.36-3.46A3.75,3.75,0,0,0,149,82.44V91.3h-1.78Z"/><path class="bb836e92-1a36-4758-a03c-7bf57b4fcd3c" d="M161.57,88.63V80.79H159V79.27h2.59v-3l1.75-.46v3.5h3.62v1.52h-3.62v7.39c0,1.29.53,1.8,1.85,1.8a4.28,4.28,0,0,0,1.75-.31v1.56a7,7,0,0,1-2.11.31C162.72,91.54,161.57,90.53,161.57,88.63Z"/><path class="bb836e92-1a36-4758-a03c-7bf57b4fcd3c" d="M174,74.5l1.78-.41v6.6A4.76,4.76,0,0,1,179.57,79a4.43,4.43,0,0,1,4.63,4.66V91.3h-1.75V84.05a3.17,3.17,0,0,0-3.36-3.46,3.75,3.75,0,0,0-3.31,1.85V91.3H174Z"/><path class="bb836e92-1a36-4758-a03c-7bf57b4fcd3c" d="M186.53,87.89c0-2.26,1.85-3.67,4.8-3.67a7.93,7.93,0,0,1,3.53.81V83.45c0-1.92-1.11-2.9-3.2-2.9a8,8,0,0,0-3.76,1l-.68-1.37a10.24,10.24,0,0,1,4.61-1.2c3,0,4.75,1.49,4.75,4.18V91.3h-1.72V90.12A5.71,5.71,0,0,1,191,91.51C188.33,91.51,186.53,90.05,186.53,87.89Zm4.75,2.23a4.8,4.8,0,0,0,3.58-1.39V86.47a5.91,5.91,0,0,0-3.48-1c-1.92,0-3.15.92-3.15,2.33S189.48,90.12,191.28,90.12Z"/><path class="bb836e92-1a36-4758-a03c-7bf57b4fcd3c" d="M198.33,89.67l1.09-1.16a5.7,5.7,0,0,0,3.91,1.61c1.92,0,3.26-.89,3.26-2.16,0-1-.69-1.63-2.23-1.85l-2.09-.28c-2.4-.34-3.55-1.42-3.55-3.29,0-2,1.87-3.51,4.51-3.51A7.71,7.71,0,0,1,208,80.62l-.94,1.2a6.73,6.73,0,0,0-3.88-1.35c-1.66,0-2.79.82-2.79,2s.65,1.6,2.23,1.82l2.09.29c2.4.33,3.6,1.41,3.6,3.29,0,2.08-2.11,3.67-4.87,3.67A7.35,7.35,0,0,1,198.33,89.67Z"/><path class="bb836e92-1a36-4758-a03c-7bf57b4fcd3c" d="M37.58,103.3l1.78-.41v6.6a4.78,4.78,0,0,1,3.79-1.66,4.44,4.44,0,0,1,4.64,4.66v7.61H46v-7.25a3.16,3.16,0,0,0-3.36-3.46,3.75,3.75,0,0,0-3.31,1.85v8.86H37.58Z"/><path class="bb836e92-1a36-4758-a03c-7bf57b4fcd3c" d="M50.45,104.57a1.2,1.2,0,0,1,1.2-1.2,1.19,1.19,0,0,1,1.2,1.2,1.2,1.2,0,0,1-1.2,1.2A1.22,1.22,0,0,1,50.45,104.57Zm.31,3.5h1.78v12H50.76Z"/><path class="bb836e92-1a36-4758-a03c-7bf57b4fcd3c" d="M56.71,124l.77-1.4a7.94,7.94,0,0,0,3.87,1.11c2.28,0,3.48-1.11,3.48-3.22V118.8A5.85,5.85,0,0,1,61,120.19a6.17,6.17,0,0,1,.05-12.33,5.93,5.93,0,0,1,3.79,1.41v-1.2H66.6v12.39c0,3.07-1.85,4.78-5.18,4.78A9.49,9.49,0,0,1,56.71,124Zm8.12-7v-5.91a4.63,4.63,0,0,0-3.68-1.63,4.6,4.6,0,0,0,0,9.19A4.56,4.56,0,0,0,64.83,117Z"/><path class="bb836e92-1a36-4758-a03c-7bf57b4fcd3c" d="M69.62,103.3l1.78-.41v6.6a4.78,4.78,0,0,1,3.79-1.66,4.44,4.44,0,0,1,4.64,4.66v7.61H78.07v-7.25a3.16,3.16,0,0,0-3.36-3.46,3.75,3.75,0,0,0-3.31,1.85v8.86H69.62Z"/><path class="bb836e92-1a36-4758-a03c-7bf57b4fcd3c" d="M87.41,114.07a6.13,6.13,0,0,1,6.12-6.24,6.82,6.82,0,0,1,4.7,1.9L97.1,111a4.9,4.9,0,0,0-3.55-1.56,4.63,4.63,0,0,0,0,9.24,4.9,4.9,0,0,0,3.5-1.52l1.11,1.2a6.72,6.72,0,0,1-4.66,1.92A6.11,6.11,0,0,1,87.41,114.07Z"/><path class="bb836e92-1a36-4758-a03c-7bf57b4fcd3c" d="M99.36,114.1a6.15,6.15,0,1,1,6.14,6.24A6.13,6.13,0,0,1,99.36,114.1Zm10.54,0a4.4,4.4,0,1,0-4.4,4.65A4.49,4.49,0,0,0,109.9,114.1Z"/><path class="bb836e92-1a36-4758-a03c-7bf57b4fcd3c" d="M114.12,108.07h1.78v1.42a4.76,4.76,0,0,1,3.79-1.66,4.43,4.43,0,0,1,4.63,4.66v7.61h-1.75v-7.25a3.17,3.17,0,0,0-3.36-3.46,3.75,3.75,0,0,0-3.31,1.85v8.86h-1.78Z"/><path class="bb836e92-1a36-4758-a03c-7bf57b4fcd3c" d="M128.42,117.43v-7.84h-2.59v-1.52h2.59v-3l1.76-.46v3.5h3.62v1.52h-3.62V117c0,1.29.52,1.8,1.84,1.8a4.3,4.3,0,0,0,1.76-.31V120a7.06,7.06,0,0,1-2.12.31C129.58,120.34,128.42,119.33,128.42,117.43Z"/><path class="bb836e92-1a36-4758-a03c-7bf57b4fcd3c" d="M135.7,108.07h1.77v1.71a3.75,3.75,0,0,1,3.36-2A3.28,3.28,0,0,1,142,108v1.63a4,4,0,0,0-1.25-.22,3.41,3.41,0,0,0-3.24,2.48v8.23H135.7Z"/><path class="bb836e92-1a36-4758-a03c-7bf57b4fcd3c" d="M142.75,116.69c0-2.26,1.85-3.67,4.8-3.67a7.9,7.9,0,0,1,3.53.81v-1.58c0-1.92-1.1-2.9-3.19-2.9a8,8,0,0,0-3.77,1.05l-.67-1.37a10.21,10.21,0,0,1,4.61-1.2c3,0,4.75,1.49,4.75,4.18v8.09h-1.73v-1.18a5.71,5.71,0,0,1-3.89,1.39C144.55,120.31,142.75,118.85,142.75,116.69Zm4.75,2.23a4.8,4.8,0,0,0,3.58-1.39v-2.26a5.88,5.88,0,0,0-3.48-1c-1.92,0-3.14.92-3.14,2.33S145.7,118.92,147.5,118.92Z"/><path class="bb836e92-1a36-4758-a03c-7bf57b4fcd3c" d="M154.56,118.47l1.08-1.16a5.72,5.72,0,0,0,3.91,1.61c1.92,0,3.27-.89,3.27-2.16,0-1.05-.7-1.63-2.24-1.85l-2.08-.28c-2.4-.34-3.56-1.42-3.56-3.29,0-2,1.88-3.51,4.52-3.51a7.66,7.66,0,0,1,4.72,1.59l-.93,1.2a6.79,6.79,0,0,0-3.89-1.35c-1.66,0-2.78.82-2.78,2s.64,1.6,2.23,1.82l2.09.29c2.4.33,3.6,1.41,3.6,3.29,0,2.08-2.12,3.67-4.88,3.67A7.3,7.3,0,0,1,154.56,118.47Z"/><path class="bb836e92-1a36-4758-a03c-7bf57b4fcd3c" d="M167.74,117.43v-7.84h-2.6v-1.52h2.6v-3l1.75-.46v3.5h3.62v1.52h-3.62V117c0,1.29.53,1.8,1.85,1.8a4.28,4.28,0,0,0,1.75-.31V120a7,7,0,0,1-2.11.31C168.89,120.34,167.74,119.33,167.74,117.43Z"/><path class="bb836e92-1a36-4758-a03c-7bf57b4fcd3c" d="M175.27,119a1.23,1.23,0,1,1,1.23,1.22A1.24,1.24,0,0,1,175.27,119Z"/><path class="bb836e92-1a36-4758-a03c-7bf57b4fcd3c" d="M57.5,57.3A25.73,25.73,0,0,1,36.23,46.05a.92.92,0,0,1,0-1,25.71,25.71,0,0,1,42.53,0,.92.92,0,0,1,0,1A25.7,25.7,0,0,1,57.5,57.3ZM38.11,45.53a23.88,23.88,0,0,0,38.78,0,23.9,23.9,0,0,0-38.78,0Z"/><path class="bb836e92-1a36-4758-a03c-7bf57b4fcd3c" d="M57.5,52.31a6.78,6.78,0,1,1,6.77-6.78A6.79,6.79,0,0,1,57.5,52.31Zm0-11.72a4.95,4.95,0,1,0,4.94,4.94A5,5,0,0,0,57.5,40.59Z"/><rect class="b990adce-c32e-44b7-b856-e6dca1e1e18c" x="298" y="159" width="298" height="159"/><path class="b6e8ec43-8fca-4280-a77b-cf2332279bc7" d="M343.16,235.15h-6.07V233.5h14v1.65H345V250.3h-1.85Z"/><path class="b6e8ec43-8fca-4280-a77b-cf2332279bc7" d="M353,233.5l1.77-.41v6.6a4.8,4.8,0,0,1,3.8-1.66,4.43,4.43,0,0,1,4.63,4.66v7.61h-1.75v-7.25a3.17,3.17,0,0,0-3.36-3.46,3.77,3.77,0,0,0-3.32,1.85v8.86H353Z"/><path class="b6e8ec43-8fca-4280-a77b-cf2332279bc7" d="M365.86,234.77a1.2,1.2,0,0,1,1.2-1.2,1.19,1.19,0,0,1,1.2,1.2,1.2,1.2,0,0,1-1.2,1.2A1.22,1.22,0,0,1,365.86,234.77Zm.31,3.5H368v12h-1.78Z"/><path class="b6e8ec43-8fca-4280-a77b-cf2332279bc7" d="M369.75,248.67l1.08-1.16a5.72,5.72,0,0,0,3.91,1.61c1.92,0,3.27-.89,3.27-2.16,0-1.05-.7-1.63-2.24-1.85l-2.08-.28c-2.4-.34-3.56-1.42-3.56-3.29S372,238,374.65,238a7.66,7.66,0,0,1,4.72,1.59l-.93,1.2a6.79,6.79,0,0,0-3.89-1.35c-1.66,0-2.78.82-2.78,2s.64,1.6,2.23,1.82l2.09.29c2.4.33,3.6,1.41,3.6,3.29,0,2.08-2.12,3.67-4.88,3.67A7.3,7.3,0,0,1,369.75,248.67Z"/><path class="b6e8ec43-8fca-4280-a77b-cf2332279bc7" d="M386.29,244.27a6.12,6.12,0,0,1,6.12-6.24,6.83,6.83,0,0,1,4.7,1.9l-1.13,1.3a4.92,4.92,0,0,0-3.55-1.56,4.63,4.63,0,0,0,0,9.24,4.91,4.91,0,0,0,3.51-1.52l1.1,1.2a6.69,6.69,0,0,1-4.65,1.92A6.1,6.1,0,0,1,386.29,244.27Z"/><path class="b6e8ec43-8fca-4280-a77b-cf2332279bc7" d="M398.24,244.3a6.15,6.15,0,1,1,6.14,6.24A6.13,6.13,0,0,1,398.24,244.3Zm10.53,0a4.4,4.4,0,1,0-4.39,4.65A4.49,4.49,0,0,0,408.77,244.3Z"/><path class="b6e8ec43-8fca-4280-a77b-cf2332279bc7" d="M413,238.27h1.77v1.42a4.78,4.78,0,0,1,3.8-1.66,4.43,4.43,0,0,1,4.63,4.66v7.61h-1.75v-7.25a3.17,3.17,0,0,0-3.37-3.46,3.76,3.76,0,0,0-3.31,1.85v8.86H413Z"/><path class="b6e8ec43-8fca-4280-a77b-cf2332279bc7" d="M427.3,247.63v-7.84h-2.59v-1.52h2.59v-3l1.75-.46v3.5h3.63v1.52h-3.63v7.39c0,1.29.53,1.8,1.85,1.8a4.28,4.28,0,0,0,1.75-.31v1.56a7,7,0,0,1-2.11.31C428.45,250.54,427.3,249.53,427.3,247.63Z"/><path class="b6e8ec43-8fca-4280-a77b-cf2332279bc7" d="M433.78,244.27a6,6,0,0,1,5.93-6.19,5.91,5.91,0,0,1,5.69,6.19v.56h-9.87A4.52,4.52,0,0,0,440,249a5.24,5.24,0,0,0,3.32-1.1l1.1,1.18a7.15,7.15,0,0,1-4.49,1.48A6.12,6.12,0,0,1,433.78,244.27Zm9.84-.86a4,4,0,0,0-8,0Z"/><path class="b6e8ec43-8fca-4280-a77b-cf2332279bc7" d="M447.87,238.27h1.77v1.42a4.8,4.8,0,0,1,3.8-1.66,4.43,4.43,0,0,1,4.63,4.66v7.61h-1.75v-7.25a3.17,3.17,0,0,0-3.36-3.46,3.77,3.77,0,0,0-3.32,1.85v8.86h-1.77Z"/><path class="b6e8ec43-8fca-4280-a77b-cf2332279bc7" d="M462.17,247.63v-7.84h-2.59v-1.52h2.59v-3l1.75-.46v3.5h3.63v1.52h-3.63v7.39c0,1.29.53,1.8,1.85,1.8a4.28,4.28,0,0,0,1.75-.31v1.56a7,7,0,0,1-2.11.31C463.32,250.54,462.17,249.53,462.17,247.63Z"/><path class="b6e8ec43-8fca-4280-a77b-cf2332279bc7" d="M474.6,233.5l1.78-.41v6.6a4.78,4.78,0,0,1,3.79-1.66,4.43,4.43,0,0,1,4.63,4.66v7.61h-1.75v-7.25a3.16,3.16,0,0,0-3.36-3.46,3.75,3.75,0,0,0-3.31,1.85v8.86H474.6Z"/><path class="b6e8ec43-8fca-4280-a77b-cf2332279bc7" d="M487.13,246.89c0-2.26,1.85-3.67,4.8-3.67a7.9,7.9,0,0,1,3.53.81v-1.58c0-1.92-1.1-2.9-3.19-2.9a8,8,0,0,0-3.77,1l-.67-1.37a10.21,10.21,0,0,1,4.61-1.2c3,0,4.75,1.49,4.75,4.18v8.09h-1.73v-1.18a5.71,5.71,0,0,1-3.89,1.39C488.93,250.51,487.13,249.05,487.13,246.89Zm4.75,2.23a4.8,4.8,0,0,0,3.58-1.39v-2.26a5.88,5.88,0,0,0-3.48-1c-1.92,0-3.14.92-3.14,2.33S490.08,249.12,491.88,249.12Z"/><path class="b6e8ec43-8fca-4280-a77b-cf2332279bc7" d="M498.94,248.67l1.08-1.16a5.72,5.72,0,0,0,3.91,1.61c1.92,0,3.27-.89,3.27-2.16,0-1.05-.7-1.63-2.24-1.85l-2.08-.28c-2.4-.34-3.56-1.42-3.56-3.29s1.88-3.51,4.52-3.51a7.66,7.66,0,0,1,4.72,1.59l-.93,1.2a6.79,6.79,0,0,0-3.89-1.35c-1.66,0-2.78.82-2.78,2s.64,1.6,2.23,1.82l2.09.29c2.4.33,3.6,1.41,3.6,3.29,0,2.08-2.12,3.67-4.88,3.67A7.3,7.3,0,0,1,498.94,248.67Z"/><path class="b6e8ec43-8fca-4280-a77b-cf2332279bc7" d="M338.19,262.3l1.78-.41V279.1h-1.78Z"/><path class="b6e8ec43-8fca-4280-a77b-cf2332279bc7" d="M342.44,273.1a6.15,6.15,0,1,1,6.14,6.24A6.13,6.13,0,0,1,342.44,273.1Zm10.53,0a4.4,4.4,0,1,0-4.39,4.65A4.49,4.49,0,0,0,353,273.1Z"/><path class="b6e8ec43-8fca-4280-a77b-cf2332279bc7" d="M355.78,267.07h1.75l2.6,9.6,3-9.6h1.58l3,9.6,2.61-9.6H372l-3.41,12h-1.7l-3-9.63-3,9.63h-1.72Z"/><path class="b6e8ec43-8fca-4280-a77b-cf2332279bc7" d="M378.44,273.07a6.12,6.12,0,0,1,6.12-6.24,6.83,6.83,0,0,1,4.7,1.9l-1.13,1.3a4.92,4.92,0,0,0-3.55-1.56,4.63,4.63,0,0,0,0,9.24,4.9,4.9,0,0,0,3.5-1.52l1.1,1.2a6.67,6.67,0,0,1-4.65,1.92A6.1,6.1,0,0,1,378.44,273.07Z"/><path class="b6e8ec43-8fca-4280-a77b-cf2332279bc7" d="M390.39,273.1a6.15,6.15,0,1,1,6.14,6.24A6.13,6.13,0,0,1,390.39,273.1Zm10.54,0a4.4,4.4,0,1,0-4.4,4.65A4.49,4.49,0,0,0,400.93,273.1Z"/><path class="b6e8ec43-8fca-4280-a77b-cf2332279bc7" d="M405.15,267.07h1.77v1.42a4.8,4.8,0,0,1,3.8-1.66,4.43,4.43,0,0,1,4.63,4.66v7.61H413.6v-7.25a3.17,3.17,0,0,0-3.36-3.46,3.77,3.77,0,0,0-3.32,1.85v8.86h-1.77Z"/><path class="b6e8ec43-8fca-4280-a77b-cf2332279bc7" d="M419.45,276.43v-7.84h-2.59v-1.52h2.59v-3l1.76-.46v3.5h3.62v1.52h-3.62V276c0,1.29.52,1.8,1.84,1.8a4.25,4.25,0,0,0,1.75-.31V279a7,7,0,0,1-2.11.31C420.6,279.34,419.45,278.33,419.45,276.43Z"/><path class="b6e8ec43-8fca-4280-a77b-cf2332279bc7" d="M426.72,267.07h1.78v1.71a3.75,3.75,0,0,1,3.36-2A3.28,3.28,0,0,1,433,267v1.63a4,4,0,0,0-1.25-.22,3.4,3.4,0,0,0-3.24,2.48v8.23h-1.78Z"/><path class="b6e8ec43-8fca-4280-a77b-cf2332279bc7" d="M433.78,275.69c0-2.26,1.85-3.67,4.8-3.67a7.9,7.9,0,0,1,3.53.81v-1.58c0-1.92-1.11-2.9-3.19-2.9a8,8,0,0,0-3.77,1l-.67-1.37a10.17,10.17,0,0,1,4.6-1.2c3.05,0,4.76,1.49,4.76,4.18v8.09h-1.73v-1.18a5.71,5.71,0,0,1-3.89,1.39C435.58,279.31,433.78,277.85,433.78,275.69Zm4.75,2.23a4.8,4.8,0,0,0,3.58-1.39v-2.26a5.91,5.91,0,0,0-3.48-1c-1.92,0-3.15.92-3.15,2.33S436.73,277.92,438.53,277.92Z"/><path class="b6e8ec43-8fca-4280-a77b-cf2332279bc7" d="M445.59,277.47l1.08-1.16a5.7,5.7,0,0,0,3.91,1.61c1.92,0,3.26-.89,3.26-2.16,0-1.05-.69-1.63-2.23-1.85l-2.09-.28c-2.4-.34-3.55-1.42-3.55-3.29s1.87-3.51,4.51-3.51a7.69,7.69,0,0,1,4.73,1.59l-.93,1.2a6.79,6.79,0,0,0-3.89-1.35c-1.66,0-2.79.82-2.79,2s.65,1.6,2.24,1.82l2.08.29c2.41.33,3.61,1.41,3.61,3.29,0,2.08-2.12,3.67-4.88,3.67A7.3,7.3,0,0,1,445.59,277.47Z"/><path class="b6e8ec43-8fca-4280-a77b-cf2332279bc7" d="M458.76,276.43v-7.84h-2.59v-1.52h2.59v-3l1.76-.46v3.5h3.62v1.52h-3.62V276c0,1.29.52,1.8,1.84,1.8a4.3,4.3,0,0,0,1.76-.31V279a7.06,7.06,0,0,1-2.12.31C459.92,279.34,458.76,278.33,458.76,276.43Z"/><path class="b6e8ec43-8fca-4280-a77b-cf2332279bc7" d="M466.3,278a1.23,1.23,0,1,1,1.22,1.22A1.23,1.23,0,0,1,466.3,278Z"/><path class="b6e8ec43-8fca-4280-a77b-cf2332279bc7" d="M367.63,214.57a.92.92,0,0,1-.85-.58.9.9,0,0,1,.51-1.18,23.88,23.88,0,0,0,10.61-8.28,24,24,0,0,0-28.18-8.27.9.9,0,0,1-1.18-.51.91.91,0,0,1,.51-1.19A25.76,25.76,0,0,1,379.77,204a.89.89,0,0,1,0,1,25.71,25.71,0,0,1-11.8,9.46A1,1,0,0,1,367.63,214.57Z"/><path class="b6e8ec43-8fca-4280-a77b-cf2332279bc7" d="M358.51,216.3a25.73,25.73,0,0,1-21.27-11.25.92.92,0,0,1,0-1,26.09,26.09,0,0,1,7.77-7.43.92.92,0,0,1,1,1.56,24.23,24.23,0,0,0-6.85,6.38,23.87,23.87,0,0,0,19.39,9.94,24.12,24.12,0,0,0,4.41-.4.9.9,0,0,1,1.06.73.91.91,0,0,1-.73,1.07A25.88,25.88,0,0,1,358.51,216.3Z"/><path class="b6e8ec43-8fca-4280-a77b-cf2332279bc7" d="M362.65,209.59a.89.89,0,0,1-.64-.27.91.91,0,0,1,0-1.29,4.95,4.95,0,0,0-7-7,.91.91,0,0,1-1.29,0,.92.92,0,0,1,0-1.3,6.78,6.78,0,0,1,9.58,9.59A.94.94,0,0,1,362.65,209.59Z"/><path class="b6e8ec43-8fca-4280-a77b-cf2332279bc7" d="M358.51,211.31a6.79,6.79,0,0,1-6.78-6.78.92.92,0,0,1,1.84,0,5,5,0,0,0,4.94,4.95.92.92,0,1,1,0,1.83Z"/><path class="b6e8ec43-8fca-4280-a77b-cf2332279bc7" d="M374.62,221.56a.93.93,0,0,1-.64-.26l-32.23-32.23a.92.92,0,1,1,1.29-1.3L375.27,220a.92.92,0,0,1,0,1.3A.94.94,0,0,1,374.62,221.56Z"/><rect class="f5be2735-6c63-4cd6-9245-20f668d17bf6" x="298" width="298" height="159"/><path class="bb836e92-1a36-4758-a03c-7bf57b4fcd3c" d="M343.16,76.15h-6.07V74.5h14v1.65H345V91.3h-1.85Z"/><path class="bb836e92-1a36-4758-a03c-7bf57b4fcd3c" d="M353,74.5l1.77-.41v6.6a4.8,4.8,0,0,1,3.8-1.66,4.43,4.43,0,0,1,4.63,4.66V91.3h-1.75V84.05a3.17,3.17,0,0,0-3.36-3.46,3.77,3.77,0,0,0-3.32,1.85V91.3H353Z"/><path class="bb836e92-1a36-4758-a03c-7bf57b4fcd3c" d="M365.86,75.77a1.2,1.2,0,0,1,1.2-1.2,1.19,1.19,0,0,1,1.2,1.2,1.2,1.2,0,0,1-1.2,1.2A1.22,1.22,0,0,1,365.86,75.77Zm.31,3.5H368v12h-1.78Z"/><path class="bb836e92-1a36-4758-a03c-7bf57b4fcd3c" d="M369.75,89.67l1.08-1.16a5.72,5.72,0,0,0,3.91,1.61c1.92,0,3.27-.89,3.27-2.16,0-1-.7-1.63-2.24-1.85l-2.08-.28c-2.4-.34-3.56-1.42-3.56-3.29,0-2,1.88-3.51,4.52-3.51a7.66,7.66,0,0,1,4.72,1.59l-.93,1.2a6.79,6.79,0,0,0-3.89-1.35c-1.66,0-2.78.82-2.78,2s.64,1.6,2.23,1.82l2.09.29c2.4.33,3.6,1.41,3.6,3.29,0,2.08-2.12,3.67-4.88,3.67A7.3,7.3,0,0,1,369.75,89.67Z"/><path class="bb836e92-1a36-4758-a03c-7bf57b4fcd3c" d="M386.29,85.27A6.12,6.12,0,0,1,392.41,79a6.83,6.83,0,0,1,4.7,1.9L396,82.23a4.92,4.92,0,0,0-3.55-1.56,4.63,4.63,0,0,0,0,9.24A4.91,4.91,0,0,0,396,88.39l1.1,1.2a6.69,6.69,0,0,1-4.65,1.92A6.1,6.1,0,0,1,386.29,85.27Z"/><path class="bb836e92-1a36-4758-a03c-7bf57b4fcd3c" d="M398.24,85.3a6.15,6.15,0,1,1,6.14,6.24A6.13,6.13,0,0,1,398.24,85.3Zm10.53,0A4.4,4.4,0,1,0,404.38,90,4.49,4.49,0,0,0,408.77,85.3Z"/><path class="bb836e92-1a36-4758-a03c-7bf57b4fcd3c" d="M413,79.27h1.77v1.42a4.78,4.78,0,0,1,3.8-1.66,4.43,4.43,0,0,1,4.63,4.66V91.3h-1.75V84.05a3.17,3.17,0,0,0-3.37-3.46,3.76,3.76,0,0,0-3.31,1.85V91.3H413Z"/><path class="bb836e92-1a36-4758-a03c-7bf57b4fcd3c" d="M427.3,88.63V80.79h-2.59V79.27h2.59v-3l1.75-.46v3.5h3.63v1.52h-3.63v7.39c0,1.29.53,1.8,1.85,1.8a4.28,4.28,0,0,0,1.75-.31v1.56a7,7,0,0,1-2.11.31C428.45,91.54,427.3,90.53,427.3,88.63Z"/><path class="bb836e92-1a36-4758-a03c-7bf57b4fcd3c" d="M433.78,85.27a6,6,0,0,1,5.93-6.19,5.91,5.91,0,0,1,5.69,6.19v.56h-9.87A4.52,4.52,0,0,0,440,90a5.24,5.24,0,0,0,3.32-1.1l1.1,1.18A7.15,7.15,0,0,1,440,91.51,6.12,6.12,0,0,1,433.78,85.27Zm9.84-.86a4,4,0,0,0-8,0Z"/><path class="bb836e92-1a36-4758-a03c-7bf57b4fcd3c" d="M447.87,79.27h1.77v1.42a4.8,4.8,0,0,1,3.8-1.66,4.43,4.43,0,0,1,4.63,4.66V91.3h-1.75V84.05A3.17,3.17,0,0,0,453,80.59a3.77,3.77,0,0,0-3.32,1.85V91.3h-1.77Z"/><path class="bb836e92-1a36-4758-a03c-7bf57b4fcd3c" d="M462.17,88.63V80.79h-2.59V79.27h2.59v-3l1.75-.46v3.5h3.63v1.52h-3.63v7.39c0,1.29.53,1.8,1.85,1.8a4.28,4.28,0,0,0,1.75-.31v1.56a7,7,0,0,1-2.11.31C463.32,91.54,462.17,90.53,462.17,88.63Z"/><path class="bb836e92-1a36-4758-a03c-7bf57b4fcd3c" d="M474.6,74.5l1.78-.41v6.6A4.78,4.78,0,0,1,480.17,79a4.43,4.43,0,0,1,4.63,4.66V91.3h-1.75V84.05a3.16,3.16,0,0,0-3.36-3.46,3.75,3.75,0,0,0-3.31,1.85V91.3H474.6Z"/><path class="bb836e92-1a36-4758-a03c-7bf57b4fcd3c" d="M487.13,87.89c0-2.26,1.85-3.67,4.8-3.67a7.9,7.9,0,0,1,3.53.81V83.45c0-1.92-1.1-2.9-3.19-2.9a8,8,0,0,0-3.77,1l-.67-1.37a10.21,10.21,0,0,1,4.61-1.2c3,0,4.75,1.49,4.75,4.18V91.3h-1.73V90.12a5.71,5.71,0,0,1-3.89,1.39C488.93,91.51,487.13,90.05,487.13,87.89Zm4.75,2.23a4.8,4.8,0,0,0,3.58-1.39V86.47a5.88,5.88,0,0,0-3.48-1c-1.92,0-3.14.92-3.14,2.33S490.08,90.12,491.88,90.12Z"/><path class="bb836e92-1a36-4758-a03c-7bf57b4fcd3c" d="M498.94,89.67,500,88.51a5.72,5.72,0,0,0,3.91,1.61c1.92,0,3.27-.89,3.27-2.16,0-1-.7-1.63-2.24-1.85l-2.08-.28c-2.4-.34-3.56-1.42-3.56-3.29,0-2,1.88-3.51,4.52-3.51a7.66,7.66,0,0,1,4.72,1.59l-.93,1.2a6.79,6.79,0,0,0-3.89-1.35c-1.66,0-2.78.82-2.78,2s.64,1.6,2.23,1.82l2.09.29c2.4.33,3.6,1.41,3.6,3.29,0,2.08-2.12,3.67-4.88,3.67A7.3,7.3,0,0,1,498.94,89.67Z"/><path class="bb836e92-1a36-4758-a03c-7bf57b4fcd3c" d="M338.19,103.3l1.78-.41V120.1h-1.78Z"/><path class="bb836e92-1a36-4758-a03c-7bf57b4fcd3c" d="M342.44,114.1a6.15,6.15,0,1,1,6.14,6.24A6.13,6.13,0,0,1,342.44,114.1Zm10.53,0a4.4,4.4,0,1,0-4.39,4.65A4.49,4.49,0,0,0,353,114.1Z"/><path class="bb836e92-1a36-4758-a03c-7bf57b4fcd3c" d="M355.78,108.07h1.75l2.6,9.6,3-9.6h1.58l3,9.6,2.61-9.6H372l-3.41,12h-1.7l-3-9.63-3,9.63h-1.72Z"/><path class="bb836e92-1a36-4758-a03c-7bf57b4fcd3c" d="M378.44,114.07a6.12,6.12,0,0,1,6.12-6.24,6.83,6.83,0,0,1,4.7,1.9l-1.13,1.3a4.92,4.92,0,0,0-3.55-1.56,4.63,4.63,0,0,0,0,9.24,4.9,4.9,0,0,0,3.5-1.52l1.1,1.2a6.67,6.67,0,0,1-4.65,1.92A6.1,6.1,0,0,1,378.44,114.07Z"/><path class="bb836e92-1a36-4758-a03c-7bf57b4fcd3c" d="M390.39,114.1a6.15,6.15,0,1,1,6.14,6.24A6.13,6.13,0,0,1,390.39,114.1Zm10.54,0a4.4,4.4,0,1,0-4.4,4.65A4.49,4.49,0,0,0,400.93,114.1Z"/><path class="bb836e92-1a36-4758-a03c-7bf57b4fcd3c" d="M405.15,108.07h1.77v1.42a4.8,4.8,0,0,1,3.8-1.66,4.43,4.43,0,0,1,4.63,4.66v7.61H413.6v-7.25a3.17,3.17,0,0,0-3.36-3.46,3.77,3.77,0,0,0-3.32,1.85v8.86h-1.77Z"/><path class="bb836e92-1a36-4758-a03c-7bf57b4fcd3c" d="M419.45,117.43v-7.84h-2.59v-1.52h2.59v-3l1.76-.46v3.5h3.62v1.52h-3.62V117c0,1.29.52,1.8,1.84,1.8a4.25,4.25,0,0,0,1.75-.31V120a7,7,0,0,1-2.11.31C420.6,120.34,419.45,119.33,419.45,117.43Z"/><path class="bb836e92-1a36-4758-a03c-7bf57b4fcd3c" d="M426.72,108.07h1.78v1.71a3.75,3.75,0,0,1,3.36-2A3.28,3.28,0,0,1,433,108v1.63a4,4,0,0,0-1.25-.22,3.4,3.4,0,0,0-3.24,2.48v8.23h-1.78Z"/><path class="bb836e92-1a36-4758-a03c-7bf57b4fcd3c" d="M433.78,116.69c0-2.26,1.85-3.67,4.8-3.67a7.9,7.9,0,0,1,3.53.81v-1.58c0-1.92-1.11-2.9-3.19-2.9a8,8,0,0,0-3.77,1.05l-.67-1.37a10.17,10.17,0,0,1,4.6-1.2c3.05,0,4.76,1.49,4.76,4.18v8.09h-1.73v-1.18a5.71,5.71,0,0,1-3.89,1.39C435.58,120.31,433.78,118.85,433.78,116.69Zm4.75,2.23a4.8,4.8,0,0,0,3.58-1.39v-2.26a5.91,5.91,0,0,0-3.48-1c-1.92,0-3.15.92-3.15,2.33S436.73,118.92,438.53,118.92Z"/><path class="bb836e92-1a36-4758-a03c-7bf57b4fcd3c" d="M445.59,118.47l1.08-1.16a5.7,5.7,0,0,0,3.91,1.61c1.92,0,3.26-.89,3.26-2.16,0-1.05-.69-1.63-2.23-1.85l-2.09-.28c-2.4-.34-3.55-1.42-3.55-3.29,0-2,1.87-3.51,4.51-3.51a7.69,7.69,0,0,1,4.73,1.59l-.93,1.2a6.79,6.79,0,0,0-3.89-1.35c-1.66,0-2.79.82-2.79,2s.65,1.6,2.24,1.82l2.08.29c2.41.33,3.61,1.41,3.61,3.29,0,2.08-2.12,3.67-4.88,3.67A7.3,7.3,0,0,1,445.59,118.47Z"/><path class="bb836e92-1a36-4758-a03c-7bf57b4fcd3c" d="M458.76,117.43v-7.84h-2.59v-1.52h2.59v-3l1.76-.46v3.5h3.62v1.52h-3.62V117c0,1.29.52,1.8,1.84,1.8a4.3,4.3,0,0,0,1.76-.31V120a7.06,7.06,0,0,1-2.12.31C459.92,120.34,458.76,119.33,458.76,117.43Z"/><path class="bb836e92-1a36-4758-a03c-7bf57b4fcd3c" d="M466.3,119a1.23,1.23,0,1,1,1.22,1.22A1.23,1.23,0,0,1,466.3,119Z"/><path class="bb836e92-1a36-4758-a03c-7bf57b4fcd3c" d="M367.63,55.57a.92.92,0,0,1-.85-.58.9.9,0,0,1,.51-1.18,23.88,23.88,0,0,0,10.61-8.28,24,24,0,0,0-28.18-8.27.9.9,0,0,1-1.18-.51.91.91,0,0,1,.51-1.19A25.76,25.76,0,0,1,379.77,45a.89.89,0,0,1,0,1A25.71,25.71,0,0,1,368,55.51,1,1,0,0,1,367.63,55.57Z"/><path class="bb836e92-1a36-4758-a03c-7bf57b4fcd3c" d="M358.51,57.3a25.73,25.73,0,0,1-21.27-11.25.92.92,0,0,1,0-1A26.09,26.09,0,0,1,345,37.59a.92.92,0,0,1,1,1.56,24.23,24.23,0,0,0-6.85,6.38,23.87,23.87,0,0,0,19.39,9.94,24.12,24.12,0,0,0,4.41-.4.9.9,0,0,1,1.06.73.91.91,0,0,1-.73,1.07A25.88,25.88,0,0,1,358.51,57.3Z"/><path class="bb836e92-1a36-4758-a03c-7bf57b4fcd3c" d="M362.65,50.59a.89.89,0,0,1-.64-.27A.91.91,0,0,1,362,49a4.95,4.95,0,0,0-7-7,.91.91,0,0,1-1.29,0,.92.92,0,0,1,0-1.3,6.78,6.78,0,0,1,9.58,9.59A.94.94,0,0,1,362.65,50.59Z"/><path class="bb836e92-1a36-4758-a03c-7bf57b4fcd3c" d="M358.51,52.31a6.79,6.79,0,0,1-6.78-6.78.92.92,0,0,1,1.84,0,5,5,0,0,0,4.94,4.95.92.92,0,1,1,0,1.83Z"/><path class="bb836e92-1a36-4758-a03c-7bf57b4fcd3c" d="M374.62,62.56a.93.93,0,0,1-.64-.26L341.75,30.07a.92.92,0,1,1,1.29-1.3L375.27,61a.92.92,0,0,1,0,1.3A.94.94,0,0,1,374.62,62.56Z"/></svg>