<svg id="f072ad43-cb06-44b6-ade4-245f9db88a17" data-name="Layer 1" xmlns="http://www.w3.org/2000/svg" xmlns:xlink="http://www.w3.org/1999/xlink" viewBox="0 0 847 380"><defs><style>.a53e32a0-8ec0-4682-9578-953f10f431ce{fill:#fab890;}.ec4ba86e-a774-4e27-8a04-a3b0481dafa5{fill:none;}.af6cf088-baf9-4ac4-8490-2a9ac9542050{fill:#f7823c;}.baf5ccc8-bf3d-47fa-b987-32c45b761fbb{fill:#142c4d;}.fb5f308f-c30c-4ec2-8a24-fe31b434c7a1{clip-path:url(#a9b165a7-42f5-4ea9-a884-757b9df3f4fd);}.a23a9ed4-ab66-47da-95fc-aa41aa346721{fill:#fff;}.b756e626-965a-4695-9138-182644dce090{fill:red;}.a179cfe4-9d6a-4c28-a7fd-472a398734eb{fill:#aedcdd;}.af145203-b15a-4db7-b337-737aca656408{fill:#e00;}.a2bf4a6b-7c92-496a-94f0-9587580d626a{isolation:isolate;}.fbf6b901-45bb-4e50-a089-95abfa321366{fill:#f56d6d;}.a9c17657-6b7b-457e-a9e2-f816a5459f08{fill:#316dc1;}.b2252fb3-08a4-4709-b753-f19c06e44692{fill:#fddbdb;}.b6a8f087-620d-48a2-bd6f-58b1a933ff10{fill:#f3f3f3;}.abb060dc-137d-4ea8-ab04-0a862cca09f2{fill:#dedede;}.fd329f65-3a8d-4980-9a02-88a80fbe9b3c{fill:#fddbc7;}.f4f3ba90-82eb-4d7b-88bd-1daf72f58f3f{clip-path:url(#b6b84c70-356d-4ede-9914-41bed59b1165);}.ab3a650f-7bba-4938-a3b7-4dc41438a36f{clip-path:url(#f076cc77-2149-409f-a2e3-e40b0e605b5b);}.ae36f7a1-c039-4c74-a0ad-7284991f93cb{fill:#6c97d3;}.ba9bee1b-1047-4a22-b10b-8fb46db1c408{clip-path:url(#bcd83f59-5c92-41b7-89d3-d20d06604393);}.bb59c27a-9500-4301-b60c-f6d92d1b304e{clip-path:url(#aceaee68-774f-4b88-a98b-73a5c9106bb3);}.b0c2e071-5375-421a-9736-ecbcc0ad61f3{clip-path:url(#e62e8756-5d1f-49fa-83b5-f77a09bdf70d);}.f953a91c-50b1-4d67-b60f-a62a668c77fb{clip-path:url(#b866da89-7301-4fb3-bd17-6c220a926783);}.b3a50a9b-bee5-4baf-8252-e5d6a1213c3b{clip-path:url(#b527fe23-2937-4668-9124-aab3ca5d7787);}.f15c61d6-c224-4e74-9212-041b98cae95c{clip-path:url(#b78309c8-3550-4172-960d-745b1a2a5a2d);}.b8e0e88f-d6fb-4664-ba65-4b8ca6775eb8{fill:#be0000;}.b9f86705-0d49-40ad-a201-a5155ea820ab{fill:#8f0000;}</style><clipPath id="a9b165a7-42f5-4ea9-a884-757b9df3f4fd"><path class="a53e32a0-8ec0-4682-9578-953f10f431ce" d="M352.31,317.13c-4.17-5.82-9.32-11.23-12.89-16.82-3.87-6-6.92-13.07-6.87-20.36.05-7.52,1.16-15.28-1.41-22.55-6.78-19.28-26.27-31.54-46.74-31.54a52.58,52.58,0,0,0-12.26,1.46c-13.47,3.21-26,10.9-33.94,22.36-8.29,11.89-9.54,26-20.91,36.13-11.8,10.56-26.71,19.88-26.09,41,0,0,0,.06,0,.09s0,.15,0,.22a32.39,32.39,0,0,0,13.7,26.25c10.92,7.71,22.93,5.87,35.15,2.79,16.09-4.05,33-5.09,49.12-1.09C309,360,330.68,369.25,349,355c6.51-5.06,11-13.16,10.31-21.38C358.81,327.55,355.93,322.18,352.31,317.13Z"/></clipPath><clipPath id="b6b84c70-356d-4ede-9914-41bed59b1165"><rect class="ec4ba86e-a774-4e27-8a04-a3b0481dafa5" x="571.37" y="319.79" width="8.85" height="30.25"/></clipPath><clipPath id="f076cc77-2149-409f-a2e3-e40b0e605b5b"><path class="ec4ba86e-a774-4e27-8a04-a3b0481dafa5" d="M599.26,286s-7.59,1.59-7.59,8.73,1.81,6.28,0,14.86-3.66,13.95,6.4,19.61,24.61,3.56,28.91-.22S606.65,286.53,599.26,286Z"/></clipPath><clipPath id="bcd83f59-5c92-41b7-89d3-d20d06604393"><polygon class="ec4ba86e-a774-4e27-8a04-a3b0481dafa5" points="710.84 313.55 710.84 318.43 706.61 320.87 702.39 318.43 702.39 313.55 706.61 311.11 710.84 313.55"/></clipPath><clipPath id="aceaee68-774f-4b88-a98b-73a5c9106bb3"><polygon class="ec4ba86e-a774-4e27-8a04-a3b0481dafa5" points="703.28 311.12 703.28 317.62 697.66 320.87 692.03 317.62 692.03 311.12 697.66 307.87 703.28 311.12"/></clipPath><clipPath id="e62e8756-5d1f-49fa-83b5-f77a09bdf70d"><polygon class="ec4ba86e-a774-4e27-8a04-a3b0481dafa5" points="694.63 235.03 694.63 241.53 689 244.78 683.38 241.53 683.38 235.03 689 231.78 694.63 235.03"/></clipPath><clipPath id="b866da89-7301-4fb3-bd17-6c220a926783"><polygon class="af6cf088-baf9-4ac4-8490-2a9ac9542050" points="685.14 238.54 685.14 243.42 680.91 245.85 676.69 243.42 676.69 238.54 680.91 236.1 685.14 238.54"/></clipPath><clipPath id="b527fe23-2937-4668-9124-aab3ca5d7787"><polygon class="ec4ba86e-a774-4e27-8a04-a3b0481dafa5" points="577.28 258.28 577.28 264.78 571.66 268.02 566.03 264.78 566.03 258.28 571.66 255.03 577.28 258.28"/></clipPath><clipPath id="b78309c8-3550-4172-960d-745b1a2a5a2d"><path class="ec4ba86e-a774-4e27-8a04-a3b0481dafa5" d="M603.23,280s-7.6,1.59-7.6,8.73,1.82,6.27,0,14.86S592,317.55,602,323.21s24.61,3.55,28.91-.22S610.62,280.58,603.23,280Z"/></clipPath></defs><rect class="baf5ccc8-bf3d-47fa-b987-32c45b761fbb" x="53" y="200" width="340" height="180"/><path class="a53e32a0-8ec0-4682-9578-953f10f431ce" d="M296.5,227.81a.52.52,0,0,1-.52-.52v-9.58a1,1,0,0,0-1-1H267.76a1,1,0,0,0-1,1,.52.52,0,0,1-1,0,2,2,0,0,1,2-2H295a2,2,0,0,1,2,2v9.58A.52.52,0,0,1,296.5,227.81Z"/><path class="a53e32a0-8ec0-4682-9578-953f10f431ce" d="M346.24,310.9a.52.52,0,0,1-.52-.52V276.19a1,1,0,0,0-1-1h-8.1a.52.52,0,0,1-.52-.52.52.52,0,0,1,.52-.52h8.1a2,2,0,0,1,2,2v34.19A.52.52,0,0,1,346.24,310.9Z"/><path class="a53e32a0-8ec0-4682-9578-953f10f431ce" d="M194.7,310.71h0a.51.51,0,0,1-.51-.51V263.52a3.25,3.25,0,0,1,3.25-3.24H227.5a.52.52,0,1,1,0,1H197.44a2.22,2.22,0,0,0-2.21,2.21V310.2A.51.51,0,0,1,194.7,310.71Z"/><path class="a53e32a0-8ec0-4682-9578-953f10f431ce" d="M352.31,317.13c-4.17-5.82-9.32-11.23-12.89-16.82-3.87-6-6.92-13.07-6.87-20.36.05-7.52,1.16-15.28-1.41-22.55-6.78-19.28-26.27-31.54-46.74-31.54a52.58,52.58,0,0,0-12.26,1.46c-13.47,3.21-26,10.9-33.94,22.36-8.29,11.89-9.54,26-20.91,36.13-11.8,10.56-26.71,19.88-26.09,41,0,0,0,.06,0,.09s0,.15,0,.22a32.39,32.39,0,0,0,13.7,26.25c10.92,7.71,22.93,5.87,35.15,2.79,16.09-4.05,33-5.09,49.12-1.09C309,360,330.68,369.25,349,355c6.51-5.06,11-13.16,10.31-21.38C358.81,327.55,355.93,322.18,352.31,317.13Z"/><g class="fb5f308f-c30c-4ec2-8a24-fe31b434c7a1"><path class="ec4ba86e-a774-4e27-8a04-a3b0481dafa5" d="M381.91,314.5l-3.12-2.35c-10.28-7.74-17.85-18.85-22.31-30.72-4.88-13-3.17-26.87-7.8-40-8.32-23.63-32.21-38.66-57.3-38.66a64.74,64.74,0,0,0-15,1.78c-16.52,3.95-31.83,13.38-41.61,27.41-10.16,14.58-11.69,31.83-25.62,44.29-14.47,12.95-32.75,24.37-32,50.26v.38a39.68,39.68,0,0,0,16.79,32.18c13.38,9.45,28.1,7.19,43.09,3.42a138.65,138.65,0,0,1,52.31-3.2c10.56,1.44,22.52,4.1,32.09,8.91,9.29,4.68,16.34,12.71,25.71,17.27,25.93,12.63,55-4.88,55-32.69C402.17,335.76,394.1,323.79,381.91,314.5Z"/><path class="ec4ba86e-a774-4e27-8a04-a3b0481dafa5" d="M381.91,314.5l-3.12-2.35c-10.28-7.74-17.85-18.85-22.31-30.72-4.88-13-3.17-26.87-7.8-40-8.32-23.63-32.21-38.66-57.3-38.66a64.74,64.74,0,0,0-15,1.78c-16.52,3.95-31.83,13.38-41.61,27.41-10.16,14.58-11.69,31.83-25.62,44.29-14.47,12.95-32.75,24.37-32,50.26v.38a39.68,39.68,0,0,0,16.79,32.18c13.38,9.45,28.1,7.19,43.09,3.42a138.65,138.65,0,0,1,52.31-3.2c10.56,1.44,22.52,4.1,32.09,8.91,9.29,4.68,16.34,12.71,25.71,17.27,25.93,12.63,55-4.88,55-32.69C402.17,335.76,394.1,323.79,381.91,314.5Z"/><rect class="a23a9ed4-ab66-47da-95fc-aa41aa346721" x="205.13" y="324.63" width="75.03" height="20.95"/><path class="a53e32a0-8ec0-4682-9578-953f10f431ce" d="M280.15,345.93h-75a.35.35,0,0,1-.35-.35V324.63a.34.34,0,0,1,.35-.34h75a.35.35,0,0,1,.35.34v20.95A.35.35,0,0,1,280.15,345.93Zm-74.68-.69h74.34V325H205.47Z"/><rect class="b756e626-965a-4695-9138-182644dce090" x="213.02" y="328.82" width="3.42" height="12.57"/><rect class="b756e626-965a-4695-9138-182644dce090" x="218.98" y="328.82" width="3.42" height="12.57"/><circle class="a179cfe4-9d6a-4c28-a7fd-472a398734eb" cx="262.25" cy="335.11" r="2.21"/><circle class="a179cfe4-9d6a-4c28-a7fd-472a398734eb" cx="269.44" cy="335.11" r="2.21"/><rect class="a23a9ed4-ab66-47da-95fc-aa41aa346721" x="205.13" y="345.28" width="75.03" height="20.95"/><path class="a53e32a0-8ec0-4682-9578-953f10f431ce" d="M280.15,366.57h-75a.34.34,0,0,1-.35-.34v-21a.34.34,0,0,1,.35-.35h75a.35.35,0,0,1,.35.35v21A.35.35,0,0,1,280.15,366.57Zm-74.68-.69h74.34V345.62H205.47Z"/><rect class="b756e626-965a-4695-9138-182644dce090" x="213.02" y="349.47" width="3.42" height="12.57"/><rect class="b756e626-965a-4695-9138-182644dce090" x="218.98" y="349.47" width="3.42" height="12.57"/><circle class="a179cfe4-9d6a-4c28-a7fd-472a398734eb" cx="262.25" cy="355.75" r="2.21"/><circle class="a179cfe4-9d6a-4c28-a7fd-472a398734eb" cx="269.44" cy="355.75" r="2.21"/><rect class="a23a9ed4-ab66-47da-95fc-aa41aa346721" x="205.13" y="283.3" width="75.03" height="20.95"/><path class="a53e32a0-8ec0-4682-9578-953f10f431ce" d="M280.15,304.59h-75a.34.34,0,0,1-.35-.34V283.3a.35.35,0,0,1,.35-.35h75a.35.35,0,0,1,.35.35v20.95A.35.35,0,0,1,280.15,304.59Zm-74.68-.69h74.34V283.64H205.47Z"/><rect class="b756e626-965a-4695-9138-182644dce090" x="213.02" y="287.49" width="3.42" height="12.57"/><rect class="b756e626-965a-4695-9138-182644dce090" x="218.98" y="287.49" width="3.42" height="12.57"/><circle class="a179cfe4-9d6a-4c28-a7fd-472a398734eb" cx="262.25" cy="293.77" r="2.21"/><circle class="a179cfe4-9d6a-4c28-a7fd-472a398734eb" cx="269.44" cy="293.77" r="2.21"/><rect class="a23a9ed4-ab66-47da-95fc-aa41aa346721" x="205.13" y="303.94" width="75.03" height="20.95"/><path class="a53e32a0-8ec0-4682-9578-953f10f431ce" d="M280.15,325.23h-75a.34.34,0,0,1-.35-.34V303.94a.35.35,0,0,1,.35-.35h75a.35.35,0,0,1,.35.35v20.95A.35.35,0,0,1,280.15,325.23Zm-74.68-.69h74.34V304.28H205.47Z"/><rect class="b756e626-965a-4695-9138-182644dce090" x="213.02" y="308.13" width="3.42" height="12.57"/><rect class="b756e626-965a-4695-9138-182644dce090" x="218.98" y="308.13" width="3.42" height="12.57"/><circle class="a179cfe4-9d6a-4c28-a7fd-472a398734eb" cx="262.25" cy="314.41" r="2.21"/><circle class="a179cfe4-9d6a-4c28-a7fd-472a398734eb" cx="269.44" cy="314.41" r="2.21"/><circle class="af145203-b15a-4db7-b337-737aca656408" cx="252.63" cy="353.52" r="2.21"/><path class="a23a9ed4-ab66-47da-95fc-aa41aa346721" d="M346.24,329.24a.52.52,0,0,1-.52-.51V309.17a.52.52,0,0,1,.52-.52.52.52,0,0,1,.52.52v19.56A.51.51,0,0,1,346.24,329.24Z"/><rect class="a23a9ed4-ab66-47da-95fc-aa41aa346721" x="295.98" y="226.43" width="1.04" height="30.23"/><path class="a23a9ed4-ab66-47da-95fc-aa41aa346721" d="M205.47,325.37h-8a3.26,3.26,0,0,1-3.25-3.25V308h1v14.13a2.21,2.21,0,0,0,2.21,2.21h8Z"/></g><path class="a53e32a0-8ec0-4682-9578-953f10f431ce" d="M266.28,236.68a.52.52,0,0,1-.52-.52V217.71a.52.52,0,1,1,1,0v18.45A.52.52,0,0,1,266.28,236.68Z"/><path class="a23a9ed4-ab66-47da-95fc-aa41aa346721" d="M265.54,234.68a20,20,0,0,0-5.92.89,26.81,26.81,0,0,0-48.71,3,18.21,18.21,0,0,0-16.18,11.15,12.84,12.84,0,1,0-3.19,25.27h74a20.13,20.13,0,0,0,0-40.26Z"/><path class="a53e32a0-8ec0-4682-9578-953f10f431ce" d="M265.54,275.28h-74a13.18,13.18,0,1,1,0-26.35,13.06,13.06,0,0,1,3,.34,18.58,18.58,0,0,1,16.14-11.09,27.16,27.16,0,0,1,49.12-3,20.48,20.48,0,1,1,5.75,40.13Zm-74-25.66a12.49,12.49,0,1,0,0,25h74a19.79,19.79,0,1,0-5.82-38.69l-.27.08-.14-.25a26.45,26.45,0,0,0-48.07,2.91l-.09.22h-.22a17.92,17.92,0,0,0-15.88,10.95l-.12.27-.29-.07A12.42,12.42,0,0,0,191.54,249.62Z"/><path class="af145203-b15a-4db7-b337-737aca656408" d="M240.78,249.27a5,5,0,1,0-7.3,4.48v5a2.28,2.28,0,0,0,4.55,0v-5A5,5,0,0,0,240.78,249.27Z"/><rect class="a53e32a0-8ec0-4682-9578-953f10f431ce" x="257.44" y="261.87" width="17.04" height="13.06"/><path class="a53e32a0-8ec0-4682-9578-953f10f431ce" d="M274.57,275H257.35V261.79h17.22Zm-17-.17h16.86V262H257.53Z"/><rect class="baf5ccc8-bf3d-47fa-b987-32c45b761fbb" x="257.44" y="283.4" width="17.04" height="71.04"/><rect class="a23a9ed4-ab66-47da-95fc-aa41aa346721" x="267.12" y="254.56" width="70.02" height="20.26"/><path class="a23a9ed4-ab66-47da-95fc-aa41aa346721" d="M337.14,275.25h-70a.43.43,0,0,1-.43-.43V254.56a.42.42,0,0,1,.43-.42h70a.42.42,0,0,1,.42.42v20.26A.42.42,0,0,1,337.14,275.25Zm-69.6-.85h69.18V255H267.54Z"/><circle class="b756e626-965a-4695-9138-182644dce090" cx="325.79" cy="264.81" r="2.24"/><rect class="a23a9ed4-ab66-47da-95fc-aa41aa346721" x="267.12" y="274.82" width="70.02" height="20.26"/><path class="a23a9ed4-ab66-47da-95fc-aa41aa346721" d="M337.14,295.51h-70a.42.42,0,0,1-.43-.42V274.82a.42.42,0,0,1,.43-.42h70a.42.42,0,0,1,.42.42v20.27A.42.42,0,0,1,337.14,295.51Zm-69.6-.85h69.18V275.25H267.54Z"/><circle class="b756e626-965a-4695-9138-182644dce090" cx="325.79" cy="285.57" r="2.49"/><rect class="b756e626-965a-4695-9138-182644dce090" x="278.17" y="263" width="38.12" height="3.63"/><rect class="b756e626-965a-4695-9138-182644dce090" x="278.41" y="283.78" width="37.65" height="3.58"/><rect class="a23a9ed4-ab66-47da-95fc-aa41aa346721" x="267.12" y="295.3" width="70.02" height="20.26"/><path class="a23a9ed4-ab66-47da-95fc-aa41aa346721" d="M337.14,316h-70a.42.42,0,0,1-.43-.42V295.3a.42.42,0,0,1,.43-.42h70a.42.42,0,0,1,.42.42v20.27A.42.42,0,0,1,337.14,316Zm-69.6-.85h69.18V295.73H267.54Z"/><circle class="b756e626-965a-4695-9138-182644dce090" cx="325.79" cy="305.56" r="2.24"/><rect class="a23a9ed4-ab66-47da-95fc-aa41aa346721" x="267.12" y="315.57" width="70.02" height="20.26"/><path class="a23a9ed4-ab66-47da-95fc-aa41aa346721" d="M337.14,336.25h-70a.42.42,0,0,1-.43-.42V315.57a.43.43,0,0,1,.43-.43h70a.42.42,0,0,1,.42.43v20.26A.42.42,0,0,1,337.14,336.25Zm-69.6-.84h69.18V316H267.54Z"/><circle class="a23a9ed4-ab66-47da-95fc-aa41aa346721" cx="325.79" cy="326.31" r="2.49"/><rect class="b756e626-965a-4695-9138-182644dce090" x="278.17" y="303.74" width="38.12" height="3.63"/><rect class="b756e626-965a-4695-9138-182644dce090" x="278.41" y="324.52" width="37.65" height="3.58"/><rect class="a23a9ed4-ab66-47da-95fc-aa41aa346721" x="267.12" y="335.4" width="70.02" height="20.26"/><path class="a23a9ed4-ab66-47da-95fc-aa41aa346721" d="M337.14,356.09h-70a.42.42,0,0,1-.43-.42V335.4a.42.42,0,0,1,.43-.42h70a.42.42,0,0,1,.42.42v20.27A.42.42,0,0,1,337.14,356.09Zm-69.6-.84h69.18V335.83H267.54Z"/><circle class="a23a9ed4-ab66-47da-95fc-aa41aa346721" cx="325.79" cy="345.66" r="2.24"/><rect class="af145203-b15a-4db7-b337-737aca656408" x="278.17" y="343.85" width="38.12" height="3.63"/><path class="a23a9ed4-ab66-47da-95fc-aa41aa346721" d="M341.4,324.79a20.13,20.13,0,0,0-5.84.87,26.42,26.42,0,0,0-48,2.91,18,18,0,0,0-15.95,11,13,13,0,0,0-3.14-.39,12.65,12.65,0,1,0,0,25.29H341.4a19.84,19.84,0,0,0,0-39.67Z"/><path class="a53e32a0-8ec0-4682-9578-953f10f431ce" d="M341.4,364.8H268.47a13,13,0,0,1,0-26,13.21,13.21,0,0,1,2.95.34,18.32,18.32,0,0,1,15.91-10.92,26.75,26.75,0,0,1,48.4-3,20.45,20.45,0,0,1,5.67-.81,20.18,20.18,0,0,1,0,40.36Zm-72.93-25.29a12.3,12.3,0,0,0,0,24.6H341.4A19.49,19.49,0,1,0,335.66,326l-.27.09-.13-.25a26.07,26.07,0,0,0-47.37,2.87l-.08.21h-.23a17.64,17.64,0,0,0-15.64,10.78l-.12.27-.29-.07A12.05,12.05,0,0,0,268.47,339.51Z"/><circle class="a53e32a0-8ec0-4682-9578-953f10f431ce" cx="262.08" cy="335.11" r="2.21"/><path class="a53e32a0-8ec0-4682-9578-953f10f431ce" d="M262.08,337.41a2.3,2.3,0,1,1,2.3-2.3A2.3,2.3,0,0,1,262.08,337.41Zm0-4.43a2.13,2.13,0,1,0,2.12,2.13A2.14,2.14,0,0,0,262.08,333Z"/><circle class="a53e32a0-8ec0-4682-9578-953f10f431ce" cx="262.08" cy="293.77" r="2.21"/><path class="a53e32a0-8ec0-4682-9578-953f10f431ce" d="M262.08,296.07a2.3,2.3,0,1,1,2.3-2.3A2.3,2.3,0,0,1,262.08,296.07Zm0-4.42a2.13,2.13,0,1,0,2.12,2.12A2.13,2.13,0,0,0,262.08,291.65Z"/><circle class="a53e32a0-8ec0-4682-9578-953f10f431ce" cx="262.08" cy="314.41" r="2.21"/><path class="a53e32a0-8ec0-4682-9578-953f10f431ce" d="M262.08,316.71a2.3,2.3,0,1,1,2.3-2.3A2.3,2.3,0,0,1,262.08,316.71Zm0-4.42a2.13,2.13,0,1,0,2.12,2.12A2.13,2.13,0,0,0,262.08,312.29Z"/><circle class="af145203-b15a-4db7-b337-737aca656408" cx="252.63" cy="335.11" r="2.21"/><circle class="af145203-b15a-4db7-b337-737aca656408" cx="252.63" cy="293.77" r="2.21"/><circle class="af145203-b15a-4db7-b337-737aca656408" cx="252.63" cy="314.41" r="2.21"/><rect class="a53e32a0-8ec0-4682-9578-953f10f431ce" x="257.42" y="324.51" width="9.26" height="0.69"/><rect class="a53e32a0-8ec0-4682-9578-953f10f431ce" x="257.42" y="303.56" width="9.26" height="0.69"/><polygon class="a53e32a0-8ec0-4682-9578-953f10f431ce" points="266.77 283.4 266.08 283.4 266.08 253.54 285.66 253.54 285.66 254.23 266.77 254.23 266.77 283.4"/><g id="b088fa4c-4c2f-43bc-aa6b-acb8f2164ce6" data-name="A -"><g class="a2bf4a6b-7c92-496a-94f0-9587580d626a"><path d="M721.8,42.45l2.62-6.35h1.12l2.6,6.35h-1l-.74-1.86h-2.85l-.73,1.86Zm2-2.65h2.22L725,37Z"/><path d="M730.46,40.27V39.5h3.27v.77Z"/><path d="M737.41,42.45V37l-1.14.49v-.8l1.48-.61h.57v6.35Z"/><path d="M741.93,42.54a2.34,2.34,0,0,1-1.34-.39,2.52,2.52,0,0,1-.9-1.08,3.73,3.73,0,0,1-.33-1.61,4.25,4.25,0,0,1,.36-1.82,2.89,2.89,0,0,1,1-1.21,2.72,2.72,0,0,1,1.54-.43,2.8,2.8,0,0,1,.86.13,2.21,2.21,0,0,1,.75.38l-.46.65a2.38,2.38,0,0,0-.58-.28,2,2,0,0,0-.65-.1,1.68,1.68,0,0,0-1.05.32,2,2,0,0,0-.67.9,3.79,3.79,0,0,0-.25,1.42,2.23,2.23,0,0,1,.81-.69,2.19,2.19,0,0,1,1-.25,2.41,2.41,0,0,1,1.1.25,1.88,1.88,0,0,1,.75.7,1.85,1.85,0,0,1,.28,1,2.08,2.08,0,0,1-.29,1.08,2.11,2.11,0,0,1-.79.75A2.34,2.34,0,0,1,741.93,42.54Zm0-3.36a2,2,0,0,0-.9.22,2.36,2.36,0,0,0-.73.61,2.75,2.75,0,0,0,.31.93,1.61,1.61,0,0,0,.56.62,1.39,1.39,0,0,0,.78.22,1.48,1.48,0,0,0,.7-.17,1.14,1.14,0,0,0,.49-.46,1.34,1.34,0,0,0,.18-.69,1.21,1.21,0,0,0-.18-.66,1.18,1.18,0,0,0-.49-.45A1.53,1.53,0,0,0,741.89,39.18Z"/><path d="M746.15,39.32a1.21,1.21,0,0,1-1-.46,2,2,0,0,1,0-2.35,1.24,1.24,0,0,1,1-.46,1.22,1.22,0,0,1,1,.46,2,2,0,0,1,0,2.35A1.22,1.22,0,0,1,746.15,39.32Zm0-.52a.71.71,0,0,0,.6-.3,1.33,1.33,0,0,0,.22-.82,1.37,1.37,0,0,0-.22-.82.71.71,0,0,0-.6-.3.69.69,0,0,0-.58.3,1.37,1.37,0,0,0-.22.82,1.4,1.4,0,0,0,.21.82A.7.7,0,0,0,746.15,38.8Zm-.32,3.65,3.57-6.35h.72l-3.59,6.35Zm4,0a1.25,1.25,0,0,1-1-.45,1.78,1.78,0,0,1-.38-1.18,1.8,1.8,0,0,1,.38-1.18,1.28,1.28,0,0,1,1-.45,1.26,1.26,0,0,1,1,.45,1.86,1.86,0,0,1,.39,1.18,1.84,1.84,0,0,1-.39,1.18A1.26,1.26,0,0,1,749.84,42.49Zm0-.51a.71.71,0,0,0,.59-.3,1.33,1.33,0,0,0,.22-.82,1.35,1.35,0,0,0-.22-.82.73.73,0,0,0-1.18,0,1.35,1.35,0,0,0-.22.82,1.33,1.33,0,0,0,.22.82A.68.68,0,0,0,749.84,42Z"/></g></g><g id="f626aff0-c9dc-4969-bfb6-10fa71fb189d" data-name="B -"><g class="a2bf4a6b-7c92-496a-94f0-9587580d626a"><path d="M722.44,62.29V55.93h2.74a2.71,2.71,0,0,1,1.09.21,1.69,1.69,0,0,1,.72.59,1.55,1.55,0,0,1,.26.88,1.44,1.44,0,0,1-.24.82,1.6,1.6,0,0,1-.66.55,1.9,1.9,0,0,1,.83.59,1.39,1.39,0,0,1,.31.9,1.71,1.71,0,0,1-.27,1,1.63,1.63,0,0,1-.76.63,2.79,2.79,0,0,1-1.16.23Zm.95-3.66h1.73a1.33,1.33,0,0,0,.86-.25A.89.89,0,0,0,726,57a1.34,1.34,0,0,0-.86-.26h-1.73Zm0,2.85h1.84a1.46,1.46,0,0,0,.94-.28,1,1,0,0,0,0-1.52,1.47,1.47,0,0,0-.94-.29h-1.84Z"/><path d="M730.19,60.11v-.77h3.27v.77Z"/><path d="M736.72,62.29l3-5.58H736v-.78h4.65v.68l-3,5.68Z"/><path d="M742.6,59.16a1.23,1.23,0,0,1-1-.46,1.73,1.73,0,0,1-.38-1.18,1.82,1.82,0,0,1,.38-1.18,1.26,1.26,0,0,1,1-.45,1.23,1.23,0,0,1,1,.45,1.77,1.77,0,0,1,.39,1.18,1.73,1.73,0,0,1-.39,1.18A1.2,1.2,0,0,1,742.6,59.16Zm0-.52a.71.71,0,0,0,.59-.3,1.33,1.33,0,0,0,.22-.82,1.35,1.35,0,0,0-.22-.82.71.71,0,0,0-.59-.3.7.7,0,0,0-.59.3,1.35,1.35,0,0,0-.22.82,1.33,1.33,0,0,0,.22.82A.68.68,0,0,0,742.6,58.64Zm-.33,3.65,3.57-6.36h.72L743,62.29Zm4,0a1.26,1.26,0,0,1-1-.45,1.8,1.8,0,0,1-.38-1.18,1.75,1.75,0,0,1,.39-1.18,1.24,1.24,0,0,1,1-.45,1.26,1.26,0,0,1,1,.45,2,2,0,0,1,0,2.36A1.26,1.26,0,0,1,746.28,62.33Zm0-.51a.68.68,0,0,0,.59-.3,1.35,1.35,0,0,0,.23-.82,1.33,1.33,0,0,0-.23-.82.69.69,0,0,0-.59-.31.72.72,0,0,0-.59.31,1.4,1.4,0,0,0-.22.82,1.35,1.35,0,0,0,.22.82A.68.68,0,0,0,746.28,61.82Z"/></g></g><g id="b8528601-5fcd-48d5-83d7-8192e0ba9339" data-name="C -"><g class="a2bf4a6b-7c92-496a-94f0-9587580d626a"><path d="M725.49,81.51a3.51,3.51,0,0,1-1.31-.25,3.32,3.32,0,0,1-1.06-.7,3.15,3.15,0,0,1-.71-1,3.43,3.43,0,0,1,0-2.57,3,3,0,0,1,.71-1,3.32,3.32,0,0,1,1.06-.7,3.55,3.55,0,0,1,1.31-.25,3.63,3.63,0,0,1,1,.14,3.42,3.42,0,0,1,.88.37,3.7,3.7,0,0,1,.71.6l-.65.65a2.21,2.21,0,0,0-.86-.65,2.59,2.59,0,0,0-1.06-.23,2.18,2.18,0,0,0-.93.19,2.29,2.29,0,0,0-.75.5,2.33,2.33,0,0,0-.5.77,2.54,2.54,0,0,0,0,1.88,2.33,2.33,0,0,0,.5.77,2.24,2.24,0,0,0,.76.5,2.29,2.29,0,0,0,.94.19,2.51,2.51,0,0,0,1-.23,2.38,2.38,0,0,0,.84-.63l.63.64a3.33,3.33,0,0,1-.71.58,3.07,3.07,0,0,1-.87.38A3.43,3.43,0,0,1,725.49,81.51Z"/><path d="M730.64,79.23v-.77h3.26v.77Z"/><path d="M736.67,81.41v-.64L739.25,78a5.85,5.85,0,0,0,.4-.49,1.5,1.5,0,0,0,.21-.42,1.39,1.39,0,0,0,.06-.4.89.89,0,0,0-.35-.72,1.37,1.37,0,0,0-.87-.27,1.84,1.84,0,0,0-.81.17,3.36,3.36,0,0,0-.85.6l-.49-.6a3.75,3.75,0,0,1,1.05-.71,2.72,2.72,0,0,1,1.12-.24,2.55,2.55,0,0,1,1.07.22,1.73,1.73,0,0,1,.72.61,1.48,1.48,0,0,1,.26.89,2.14,2.14,0,0,1-.08.58,1.84,1.84,0,0,1-.29.55,6.32,6.32,0,0,1-.55.68l-2.07,2.18h3.12v.76Z"/><path d="M743.8,81.51a3.1,3.1,0,0,1-2.21-.87l.53-.59a3.4,3.4,0,0,0,.82.54,2.26,2.26,0,0,0,.88.16,1.6,1.6,0,0,0,.75-.16,1.22,1.22,0,0,0,.5-.48,1.31,1.31,0,0,0,.17-.69,1.21,1.21,0,0,0-.39-.93,1.57,1.57,0,0,0-1.05-.35,2.89,2.89,0,0,0-.65.08,3.46,3.46,0,0,0-.66.26l-.61-.19.15-3.24h3.77v.76h-3l-.09,2a2.75,2.75,0,0,1,.67-.25,3.1,3.1,0,0,1,.69-.08,2.41,2.41,0,0,1,1.1.24,1.78,1.78,0,0,1,.74.67,2,2,0,0,1,.25,1,2.06,2.06,0,0,1-.29,1.12,2.1,2.1,0,0,1-.82.74A2.53,2.53,0,0,1,743.8,81.51Z"/><path d="M748.15,78.28a1.27,1.27,0,0,1-1-.46,1.78,1.78,0,0,1-.38-1.18,1.75,1.75,0,0,1,.39-1.18,1.24,1.24,0,0,1,1-.45,1.26,1.26,0,0,1,1,.45,1.86,1.86,0,0,1,.39,1.18,1.84,1.84,0,0,1-.39,1.18A1.27,1.27,0,0,1,748.15,78.28Zm0-.52a.68.68,0,0,0,.59-.3,1.33,1.33,0,0,0,.23-.82,1.35,1.35,0,0,0-.23-.82.68.68,0,0,0-.59-.3.71.71,0,0,0-.59.3,1.42,1.42,0,0,0-.22.82,1.33,1.33,0,0,0,.22.82A.68.68,0,0,0,748.15,77.76Zm-.33,3.65,3.58-6.36h.71l-3.58,6.36Zm4,0a1.24,1.24,0,0,1-1-.45,1.75,1.75,0,0,1-.39-1.18,1.73,1.73,0,0,1,.39-1.18,1.27,1.27,0,0,1,1-.46,1.25,1.25,0,0,1,1,.46,1.73,1.73,0,0,1,.39,1.18,1.75,1.75,0,0,1-.39,1.18A1.24,1.24,0,0,1,751.83,81.45Zm0-.52a.7.7,0,0,0,.6-.29,1.35,1.35,0,0,0,.22-.82,1.33,1.33,0,0,0-.22-.82.7.7,0,0,0-.6-.31.68.68,0,0,0-.58.31,1.33,1.33,0,0,0-.23.82,1.42,1.42,0,0,0,.22.82A.69.69,0,0,0,751.83,80.93Z"/></g></g><rect id="ab541b59-fe33-4e9e-a2f3-3d0ac1e1d0f4" data-name="Rectangle 377-2" class="af145203-b15a-4db7-b337-737aca656408" x="702.39" y="54.26" width="10.18" height="10.18"/><rect id="ac4aa1dc-bd52-46bc-862d-e235e861e1f1" data-name="Rectangle 380-2" class="baf5ccc8-bf3d-47fa-b987-32c45b761fbb" x="702.39" y="73.2" width="10.18" height="10.18"/><rect id="a6acd245-9771-45a0-a3c9-f47d62a37ddf" data-name="Rectangle 382-2" class="fbf6b901-45bb-4e50-a089-95abfa321366" x="702.2" y="35.12" width="10" height="10"/><g id="a0737be6-a149-46a1-9115-e7f2537b23dd" data-name="D -"><g class="a2bf4a6b-7c92-496a-94f0-9587580d626a"><path d="M783.55,42.45V36.1h2.23a3.75,3.75,0,0,1,1.33.23A3.18,3.18,0,0,1,788.88,38a3.33,3.33,0,0,1,0,2.53,3.24,3.24,0,0,1-.71,1,3.17,3.17,0,0,1-1,.66,3.63,3.63,0,0,1-1.34.24Zm1-.85h1.3a2.41,2.41,0,0,0,.93-.18,2,2,0,0,0,.74-.49,2,2,0,0,0,.5-.74,2.27,2.27,0,0,0,.18-.91,2.32,2.32,0,0,0-.18-.92,2.25,2.25,0,0,0-.5-.74,2.33,2.33,0,0,0-.74-.49,2.42,2.42,0,0,0-.94-.18H784.5Z"/><path d="M791.81,40.27V39.5h3.26v.77Z"/><path d="M798.33,42.45l3-5.58h-3.7V36.1h4.65v.67l-2.95,5.68Z"/><path d="M804.21,39.32a1.24,1.24,0,0,1-1-.46,1.78,1.78,0,0,1-.38-1.18,1.72,1.72,0,0,1,.39-1.17,1.24,1.24,0,0,1,1-.46,1.22,1.22,0,0,1,1,.46,2,2,0,0,1,0,2.35A1.22,1.22,0,0,1,804.21,39.32Zm0-.52a.71.71,0,0,0,.6-.3,1.4,1.4,0,0,0,.22-.82,1.45,1.45,0,0,0-.22-.82.71.71,0,0,0-.6-.3.68.68,0,0,0-.58.3,1.37,1.37,0,0,0-.23.82,1.4,1.4,0,0,0,.22.82A.7.7,0,0,0,804.21,38.8Zm-.32,3.65,3.57-6.35h.72l-3.59,6.35Zm4,0a1.25,1.25,0,0,1-1-.45,1.78,1.78,0,0,1-.38-1.18,1.8,1.8,0,0,1,.38-1.18,1.28,1.28,0,0,1,1-.45,1.26,1.26,0,0,1,1,.45,1.8,1.8,0,0,1,.38,1.18A1.78,1.78,0,0,1,808.9,42,1.26,1.26,0,0,1,807.9,42.49Zm0-.51a.71.71,0,0,0,.59-.3,1.33,1.33,0,0,0,.22-.82,1.35,1.35,0,0,0-.22-.82.71.71,0,0,0-.59-.3.7.7,0,0,0-.59.3,1.35,1.35,0,0,0-.22.82,1.33,1.33,0,0,0,.22.82A.68.68,0,0,0,807.9,42Z"/></g></g><g id="b6936c59-7f8f-406e-91a0-65c3462179e9" data-name="E -"><g class="a2bf4a6b-7c92-496a-94f0-9587580d626a"><path d="M783.55,62.29V55.93h4.68v.84H784.5v1.91h2.44v.8H784.5v2h3.77v.84Z"/><path d="M790.91,60.11v-.77h3.27v.77Z"/><path d="M799.27,62.39a2.87,2.87,0,0,1-1.21-.24,2,2,0,0,1-.82-.65,1.58,1.58,0,0,1-.3-1,1.39,1.39,0,0,1,.18-.69,1.67,1.67,0,0,1,.5-.56,2.21,2.21,0,0,1,.73-.33,1.85,1.85,0,0,1-.85-.55,1.32,1.32,0,0,1-.33-.88,1.47,1.47,0,0,1,.27-.87,1.82,1.82,0,0,1,.75-.61,2.51,2.51,0,0,1,1.08-.22,2.47,2.47,0,0,1,1.07.22,1.82,1.82,0,0,1,.75.61,1.49,1.49,0,0,1,.27.87,1.36,1.36,0,0,1-.32.88,1.88,1.88,0,0,1-.86.55,1.91,1.91,0,0,1,1,.59,1.37,1.37,0,0,1,.4,1,1.53,1.53,0,0,1-.3.94,2,2,0,0,1-.82.66A2.86,2.86,0,0,1,799.27,62.39Zm0-.72a1.75,1.75,0,0,0,.74-.15,1.28,1.28,0,0,0,.52-.42,1,1,0,0,0,.19-.61,1,1,0,0,0-.19-.59,1.28,1.28,0,0,0-.52-.42,1.75,1.75,0,0,0-.74-.15,1.79,1.79,0,0,0-.75.15,1.24,1.24,0,0,0-.51.42,1,1,0,0,0,0,1.2,1.24,1.24,0,0,0,.51.42A1.79,1.79,0,0,0,799.27,61.67Zm0-3a1.37,1.37,0,0,0,.64-.14,1,1,0,0,0,.44-.37.87.87,0,0,0,.16-.52.93.93,0,0,0-.16-.54,1,1,0,0,0-.44-.38,1.5,1.5,0,0,0-.64-.14,1.47,1.47,0,0,0-.64.14,1.07,1.07,0,0,0-.44.37.94.94,0,0,0-.17.54.88.88,0,0,0,.17.53,1.07,1.07,0,0,0,.44.37A1.34,1.34,0,0,0,799.27,58.63Z"/><path d="M803.75,59.16a1.24,1.24,0,0,1-1-.46,2,2,0,0,1,0-2.36,1.24,1.24,0,0,1,1-.45,1.26,1.26,0,0,1,1,.45,1.88,1.88,0,0,1,.39,1.18,1.84,1.84,0,0,1-.39,1.18A1.24,1.24,0,0,1,803.75,59.16Zm0-.52a.68.68,0,0,0,.59-.3,1.33,1.33,0,0,0,.23-.82,1.35,1.35,0,0,0-.23-.82.68.68,0,0,0-.59-.3.71.71,0,0,0-.59.3,1.42,1.42,0,0,0-.22.82,1.4,1.4,0,0,0,.22.82A.68.68,0,0,0,803.75,58.64Zm-.33,3.65L807,55.93h.72l-3.59,6.36Zm4,0a1.24,1.24,0,0,1-1-.45,2,2,0,0,1,0-2.36,1.26,1.26,0,0,1,1-.45,1.23,1.23,0,0,1,1,.45,2,2,0,0,1,0,2.36A1.23,1.23,0,0,1,807.43,62.33Zm0-.51a.71.71,0,0,0,.6-.3,1.35,1.35,0,0,0,.22-.82,1.33,1.33,0,0,0-.22-.82.72.72,0,0,0-.6-.31.7.7,0,0,0-.58.31,1.33,1.33,0,0,0-.22.82,1.42,1.42,0,0,0,.21.82A.71.71,0,0,0,807.43,61.82Z"/></g></g><g id="afd5662a-6b66-4237-ab08-d02caf00df0e" data-name="F -"><g class="a2bf4a6b-7c92-496a-94f0-9587580d626a"><path d="M783.55,81.41V75.05h4.68v.84H784.5v2H787v.81H784.5v2.76Z"/><path d="M790.84,79.23v-.77h3.26v.77Z"/><path d="M799.05,81.51a3.43,3.43,0,0,1-1.28-.24,3,3,0,0,1-1-.7l.58-.55a2.89,2.89,0,0,0,.79.56,2.38,2.38,0,0,0,.93.16,1.84,1.84,0,0,0,.76-.14,1.22,1.22,0,0,0,.51-.4,1,1,0,0,0,.18-.59,1,1,0,0,0-.15-.54,1.13,1.13,0,0,0-.43-.38,1.39,1.39,0,0,0-.63-.13h-.77v-.74h.7a1,1,0,0,0,.77-.28,1,1,0,0,0,.29-.73.94.94,0,0,0-.16-.55,1.22,1.22,0,0,0-.46-.38,1.36,1.36,0,0,0-.65-.15,1.92,1.92,0,0,0-.84.18,2.28,2.28,0,0,0-.75.59l-.59-.57a3,3,0,0,1,1-.73A3.12,3.12,0,0,1,799,75a2.5,2.5,0,0,1,1.09.23,1.88,1.88,0,0,1,.76.63,1.62,1.62,0,0,1,.27.91,1.35,1.35,0,0,1-.33.9,1.67,1.67,0,0,1-.86.55,1.87,1.87,0,0,1,1,.54,1.32,1.32,0,0,1,.38,1,1.55,1.55,0,0,1-.29,1,2,2,0,0,1-.82.66A2.86,2.86,0,0,1,799.05,81.51Z"/><path d="M802.53,81.41l3-5.58h-3.71v-.78h4.65v.68l-3,5.68Z"/><path d="M808.41,78.28a1.25,1.25,0,0,1-1-.46,1.73,1.73,0,0,1-.38-1.18,1.74,1.74,0,0,1,.38-1.18,1.26,1.26,0,0,1,1-.45,1.23,1.23,0,0,1,1,.45,1.75,1.75,0,0,1,.39,1.18,1.73,1.73,0,0,1-.39,1.18A1.24,1.24,0,0,1,808.41,78.28Zm0-.52a.71.71,0,0,0,.6-.3,1.33,1.33,0,0,0,.22-.82,1.35,1.35,0,0,0-.22-.82.71.71,0,0,0-.6-.3.69.69,0,0,0-.58.3,1.35,1.35,0,0,0-.22.82,1.4,1.4,0,0,0,.21.82A.71.71,0,0,0,808.41,77.76Zm-.32,3.65,3.57-6.36h.72l-3.58,6.36Zm4,0a1.26,1.26,0,0,1-1-.45,1.8,1.8,0,0,1-.38-1.18,1.73,1.73,0,0,1,.39-1.18,1.25,1.25,0,0,1,1-.46,1.27,1.27,0,0,1,1,.46,1.84,1.84,0,0,1,.39,1.18A1.86,1.86,0,0,1,813.1,81,1.26,1.26,0,0,1,812.1,81.45Zm0-.52a.69.69,0,0,0,.59-.29,1.35,1.35,0,0,0,.23-.82,1.33,1.33,0,0,0-.23-.82.68.68,0,0,0-.59-.31.69.69,0,0,0-.59.31,1.33,1.33,0,0,0-.22.82,1.35,1.35,0,0,0,.22.82A.67.67,0,0,0,812.1,80.93Z"/></g></g><rect id="ecc1f758-5444-45a0-ba9c-7ac068e67eef" data-name="Rectangle 377-2-2" class="af6cf088-baf9-4ac4-8490-2a9ac9542050" x="763.5" y="54.26" width="10.18" height="10.18"/><rect id="a3366889-a5b7-4d26-850f-87658ffff777" data-name="Rectangle 380-2-2" class="a53e32a0-8ec0-4682-9578-953f10f431ce" x="763.5" y="73.2" width="10.18" height="10.18"/><rect id="f7bb58fe-ac71-4154-a9f8-4f5eaf6e3862" data-name="Rectangle 382-2-2" class="a9c17657-6b7b-457e-a9e2-f816a5459f08" x="763.5" y="35.32" width="10.18" height="10.18"/><rect id="b31e421e-cb53-4520-bb9c-1e473c3c02c2" data-name="Rectangle 377-2-3" class="a53e32a0-8ec0-4682-9578-953f10f431ce" y="66" width="33" height="33"/><rect id="bd64ff58-4fbe-4c5f-ba0c-0cf355f781bc" data-name="Rectangle 380-2-3" class="baf5ccc8-bf3d-47fa-b987-32c45b761fbb" y="33" width="33" height="33"/><rect id="ef1d983d-d091-4204-97b1-214dd40323d2" data-name="Rectangle 382-2-3" class="af145203-b15a-4db7-b337-737aca656408" width="33" height="33"/><rect id="ecb30927-fe63-429f-8ee2-a6d77f1ae8cb" data-name="Rectangle 377-2-4" class="fbf6b901-45bb-4e50-a089-95abfa321366" x="454" y="33" width="33" height="33"/><rect id="a4df0b0c-12bc-42e5-bcde-869695dc258c" data-name="Rectangle 380-2-4" class="b2252fb3-08a4-4709-b753-f19c06e44692" x="454" width="33" height="33"/><rect id="f8acfb8f-67da-407e-b0c2-425f0b1ada91" data-name="Rectangle 377-2-5" class="baf5ccc8-bf3d-47fa-b987-32c45b761fbb" x="454" y="132" width="33" height="33"/><rect id="ed58c238-3e09-45ba-ac21-3db4dabd0b28" data-name="Rectangle 380-2-5" x="454" y="99" width="33" height="33"/><rect id="a67f1af9-055a-4233-a861-d56572843e06" data-name="Rectangle 382-2-4" class="af145203-b15a-4db7-b337-737aca656408" x="454" y="66" width="33" height="33"/><rect id="bd826ddf-c79f-4707-8c37-3bf29c39ee22" data-name="Rectangle 377-2-6" class="a53e32a0-8ec0-4682-9578-953f10f431ce" x="454" y="231" width="33" height="33"/><rect id="ef072b56-42d4-43a8-bce4-ef2b4fe3ba2f" data-name="Rectangle 380-2-6" class="af6cf088-baf9-4ac4-8490-2a9ac9542050" x="454" y="198" width="33" height="33"/><rect id="b61249be-b31d-458c-b095-eaef3000b3dd" data-name="Rectangle 382-2-5" class="a9c17657-6b7b-457e-a9e2-f816a5459f08" x="454" y="165" width="33" height="33"/><path class="a53e32a0-8ec0-4682-9578-953f10f431ce" d="M149.43,90,97.82,120.6A60,60,0,0,0,150.13,150a60,60,0,0,0,51.6-30.61Z"/><path class="a53e32a0-8ec0-4682-9578-953f10f431ce" d="M149.43,90l52.3,29.39a57.31,57.31,0,0,0,7.69-30.09Z"/><path class="baf5ccc8-bf3d-47fa-b987-32c45b761fbb" d="M201,59.39A60,60,0,0,0,148.73,30l.7,60,60-.7A57.39,57.39,0,0,0,201,59.39Z"/><path class="af145203-b15a-4db7-b337-737aca656408" d="M149.43,90,118.82,38.39A57.36,57.36,0,0,1,148.73,30Z"/><path class="af145203-b15a-4db7-b337-737aca656408" d="M97.12,60.61A57.31,57.31,0,0,0,89.43,90.7a57.33,57.33,0,0,0,8.39,29.9L149.43,90,118.82,38.39A57.41,57.41,0,0,0,97.12,60.61Z"/><circle class="b6a8f087-620d-48a2-bd6f-58b1a933ff10" cx="149.43" cy="90" r="30.05"/><path d="M270.35,43.52a3.72,3.72,0,0,1-1.47-.3,3.77,3.77,0,0,1-1.25-.84l.58-.68a3.67,3.67,0,0,0,1.06.76,2.7,2.7,0,0,0,1.13.24,2.17,2.17,0,0,0,.8-.13,1.28,1.28,0,0,0,.54-.38.85.85,0,0,0,.2-.55.8.8,0,0,0-.3-.66,2.39,2.39,0,0,0-1-.34l-1-.18a2.52,2.52,0,0,1-1.32-.55,1.46,1.46,0,0,1-.43-1.09,1.67,1.67,0,0,1,.29-1,1.88,1.88,0,0,1,.83-.65,3.09,3.09,0,0,1,1.22-.22,4.21,4.21,0,0,1,1.36.22,4.06,4.06,0,0,1,1.2.64l-.52.73a3.44,3.44,0,0,0-2.08-.78,2,2,0,0,0-.73.12,1.08,1.08,0,0,0-.48.33.8.8,0,0,0-.17.51.72.72,0,0,0,.26.58,2,2,0,0,0,.87.3l1,.17a2.87,2.87,0,0,1,1.48.59,1.5,1.5,0,0,1,.47,1.17,1.69,1.69,0,0,1-.31,1,2,2,0,0,1-.89.69A3.47,3.47,0,0,1,270.35,43.52Z"/><path d="M273.65,45.28V38.81h.9v.44a2.1,2.1,0,0,1,1.42-.51,2.26,2.26,0,0,1,1.18.31,2.47,2.47,0,0,1,.84.86,2.33,2.33,0,0,1,.31,1.2,2.34,2.34,0,0,1-1.15,2.07,2.26,2.26,0,0,1-1.21.32,2.24,2.24,0,0,1-.73-.12,2.38,2.38,0,0,1-.65-.34v2.24Zm2.2-2.57a1.6,1.6,0,0,0,.79-.2,1.53,1.53,0,0,0,.56-.57,1.69,1.69,0,0,0,0-1.63,1.49,1.49,0,0,0-.56-.58,1.51,1.51,0,0,0-.79-.21,1.8,1.8,0,0,0-.73.15,1.54,1.54,0,0,0-.56.41v2.09a1.69,1.69,0,0,0,.57.39A1.72,1.72,0,0,0,275.85,42.71Z"/><path d="M281.38,43.51a2.39,2.39,0,0,1-1.23-.31,2.42,2.42,0,0,1-.88-.86,2.36,2.36,0,0,1-.33-1.23,2.41,2.41,0,0,1,1.16-2.06,2.23,2.23,0,0,1,1.17-.32,2.08,2.08,0,0,1,1.14.32,2.24,2.24,0,0,1,.8.87,2.56,2.56,0,0,1,.3,1.24v.25h-3.65a1.52,1.52,0,0,0,.28.68,1.53,1.53,0,0,0,.54.47,1.52,1.52,0,0,0,.73.18,2.08,2.08,0,0,0,.66-.11,1.58,1.58,0,0,0,.51-.29l.57.56a2.73,2.73,0,0,1-.83.46A2.81,2.81,0,0,1,281.38,43.51Zm-1.51-2.79h2.74a1.59,1.59,0,0,0-.26-.63,1.41,1.41,0,0,0-.48-.43,1.17,1.17,0,0,0-.62-.16,1.29,1.29,0,0,0-.64.16,1.41,1.41,0,0,0-.48.43A1.48,1.48,0,0,0,279.87,40.72Z"/><path d="M284.36,43.43V38.81h.91v.47A2,2,0,0,1,287.6,39a1.66,1.66,0,0,1,.63.63,1.92,1.92,0,0,1,.23.94v2.91h-.91V40.68a1.2,1.2,0,0,0-.3-.86,1.14,1.14,0,0,0-.85-.31,1.31,1.31,0,0,0-1.13.61v3.31Z"/><path d="M291.63,43.5a2.26,2.26,0,0,1-1.19-.32,2.21,2.21,0,0,1-.84-.85,2.38,2.38,0,0,1-.31-1.22,2.34,2.34,0,0,1,.31-1.21,2.31,2.31,0,0,1,.85-.85,2.33,2.33,0,0,1,1.2-.31,2.23,2.23,0,0,1,.73.11,2.3,2.3,0,0,1,.66.34V37.08l.9-.18v6.53H293V43A2,2,0,0,1,291.63,43.5Zm.12-.79a1.94,1.94,0,0,0,.73-.14,1.76,1.76,0,0,0,.56-.41V40.07a1.66,1.66,0,0,0-.56-.41,2,2,0,0,0-.73-.14,1.67,1.67,0,0,0-.8.2,1.53,1.53,0,0,0-.56.57,1.76,1.76,0,0,0,0,1.63,1.51,1.51,0,0,0,1.36.79Z"/><path d="M295.47,38.06a.54.54,0,0,1-.39-.17.54.54,0,0,1-.17-.4.54.54,0,0,1,.17-.39.53.53,0,0,1,.39-.16.55.55,0,0,1,.56.56.53.53,0,0,1-.16.39A.56.56,0,0,1,295.47,38.06ZM295,43.43V38.81h.91v4.62Z"/><path d="M297,43.43V38.81h.91v.47a1.85,1.85,0,0,1,1.39-.56,1.8,1.8,0,0,1,.94.23,1.59,1.59,0,0,1,.63.63,1.82,1.82,0,0,1,.23.94v2.91h-.9V40.68a1.21,1.21,0,0,0-.31-.86,1.14,1.14,0,0,0-.85-.31,1.34,1.34,0,0,0-1.13.61v3.31Z"/><path d="M304.42,45.37a4,4,0,0,1-1-.12,3.66,3.66,0,0,1-.88-.33l.36-.71a3.79,3.79,0,0,0,.76.29,2.44,2.44,0,0,0,.71.1,1.39,1.39,0,0,0,.93-.27,1,1,0,0,0,.31-.82V43a2.15,2.15,0,0,1-1.39.48,2.23,2.23,0,0,1-1.17-.31,2.39,2.39,0,0,1-.84-.86,2.32,2.32,0,0,1-.31-1.19,2.35,2.35,0,0,1,.32-1.21,2.31,2.31,0,0,1,.85-.85,2.35,2.35,0,0,1,1.91-.19,2,2,0,0,1,.65.35v-.39h.89V43.5a1.73,1.73,0,0,1-.55,1.39A2.29,2.29,0,0,1,304.42,45.37Zm-.06-2.69a1.71,1.71,0,0,0,.72-.14,1.51,1.51,0,0,0,.55-.4V40.05a1.57,1.57,0,0,0-.54-.39,2,2,0,0,0-.73-.14,1.56,1.56,0,0,0-.78.2,1.58,1.58,0,0,0-.56.56,1.69,1.69,0,0,0-.2.82,1.67,1.67,0,0,0,.2.8,1.53,1.53,0,0,0,1.34.78Z"/><path d="M309.39,41.25v-.77h3.26v.77Z"/><path d="M317.6,43.53a3.43,3.43,0,0,1-1.28-.24,2.86,2.86,0,0,1-1-.7l.58-.55a2.53,2.53,0,0,0,.78.56,2.38,2.38,0,0,0,.93.17,1.81,1.81,0,0,0,.76-.15,1.22,1.22,0,0,0,.51-.4,1.05,1.05,0,0,0,0-1.13,1,1,0,0,0-.43-.37,1.26,1.26,0,0,0-.62-.14h-.78v-.74h.7a1,1,0,0,0,.77-.28,1,1,0,0,0,.13-1.28,1.15,1.15,0,0,0-.46-.38,1.35,1.35,0,0,0-.65-.14,1.91,1.91,0,0,0-.84.17,2.28,2.28,0,0,0-.75.59l-.59-.57a2.81,2.81,0,0,1,1-.72,3,3,0,0,1,1.21-.25,2.57,2.57,0,0,1,1.1.22,1.92,1.92,0,0,1,.75.63,1.64,1.64,0,0,1,.28.92,1.31,1.31,0,0,1-.34.89,1.67,1.67,0,0,1-.86.55,1.87,1.87,0,0,1,1,.54,1.34,1.34,0,0,1,.38,1,1.55,1.55,0,0,1-.29,1,2,2,0,0,1-.82.66A2.86,2.86,0,0,1,317.6,43.53Z"/><path d="M323.35,43.52a2.37,2.37,0,0,1-1.34-.39,2.49,2.49,0,0,1-.9-1.09,3.67,3.67,0,0,1-.33-1.61,4.24,4.24,0,0,1,.36-1.81,2.83,2.83,0,0,1,1-1.21A2.72,2.72,0,0,1,323.7,37a2.8,2.8,0,0,1,.86.13,2.39,2.39,0,0,1,.75.37l-.46.66a2.38,2.38,0,0,0-.58-.28,2,2,0,0,0-.64-.1,1.75,1.75,0,0,0-1.06.31,2.11,2.11,0,0,0-.67.91,3.79,3.79,0,0,0-.25,1.42,2.23,2.23,0,0,1,.81-.69,2.07,2.07,0,0,1,1-.25,2.41,2.41,0,0,1,1.1.25,2,2,0,0,1,.76.7,1.93,1.93,0,0,1,.27,1,2.08,2.08,0,0,1-.29,1.08,2.11,2.11,0,0,1-.79.75A2.34,2.34,0,0,1,323.35,43.52Zm0-3.36a1.87,1.87,0,0,0-.9.22,2.23,2.23,0,0,0-.73.61,2.83,2.83,0,0,0,.31.93,1.69,1.69,0,0,0,.56.62,1.51,1.51,0,0,0,1.48.05,1.21,1.21,0,0,0,.49-.46,1.34,1.34,0,0,0,.18-.69,1.24,1.24,0,0,0-.18-.67,1.16,1.16,0,0,0-.49-.44A1.53,1.53,0,0,0,323.31,40.16Z"/><path d="M327.57,40.3a1.22,1.22,0,0,1-1-.46,1.73,1.73,0,0,1-.39-1.18,1.77,1.77,0,0,1,.39-1.18,1.26,1.26,0,0,1,1-.45,1.24,1.24,0,0,1,1,.45,1.82,1.82,0,0,1,.39,1.18,1.78,1.78,0,0,1-.39,1.18A1.22,1.22,0,0,1,327.57,40.3Zm0-.52a.71.71,0,0,0,.6-.3,1.33,1.33,0,0,0,.22-.82,1.37,1.37,0,0,0-.22-.82.71.71,0,0,0-.6-.3.69.69,0,0,0-.58.3,1.37,1.37,0,0,0-.22.82,1.4,1.4,0,0,0,.21.82A.7.7,0,0,0,327.57,39.78Zm-.32,3.65,3.57-6.35h.72L328,43.43Zm4,0a1.25,1.25,0,0,1-1-.45,2,2,0,0,1,0-2.36,1.28,1.28,0,0,1,1-.45,1.26,1.26,0,0,1,1,.45,2,2,0,0,1,0,2.36A1.26,1.26,0,0,1,331.26,43.47Zm0-.51a.7.7,0,0,0,.59-.3,1.33,1.33,0,0,0,.22-.82,1.35,1.35,0,0,0-.22-.82.7.7,0,0,0-.59-.3.71.71,0,0,0-.59.3,1.35,1.35,0,0,0-.22.82,1.33,1.33,0,0,0,.22.82A.68.68,0,0,0,331.26,43Z"/><path d="M268.21,62.32V56h2.86a2.46,2.46,0,0,1,1.12.24,1.89,1.89,0,0,1,.74.66,1.79,1.79,0,0,1,.27,1,1.71,1.71,0,0,1-.36,1.08,2,2,0,0,1-.94.65l1.41,2.74h-1.06l-1.31-2.61h-1.78v2.61Zm1-3.41H271a1.33,1.33,0,0,0,.9-.28,1,1,0,0,0,.34-.78,1,1,0,0,0-.34-.76,1.28,1.28,0,0,0-.9-.29h-1.84Z"/><path d="M276,62.4a2.55,2.55,0,0,1-1.23-.31,2.34,2.34,0,0,1-.87-.87,2.45,2.45,0,0,1,0-2.42,2.39,2.39,0,0,1,.84-.86,2.18,2.18,0,0,1,1.18-.32,2,2,0,0,1,1.14.32,2.24,2.24,0,0,1,.8.87,2.55,2.55,0,0,1,.29,1.24v.24H274.5a1.61,1.61,0,0,0,.27.69,1.66,1.66,0,0,0,.55.47,1.49,1.49,0,0,0,.73.18,2,2,0,0,0,.65-.11,1.53,1.53,0,0,0,.52-.29l.57.56a2.75,2.75,0,0,1-1.78.61Zm-1.5-2.79h2.74A1.75,1.75,0,0,0,277,59a1.41,1.41,0,0,0-.48-.43,1.22,1.22,0,0,0-.62-.16,1.24,1.24,0,0,0-.64.16,1.44,1.44,0,0,0-.49.43A1.47,1.47,0,0,0,274.51,59.61Z"/><path d="M280.35,62.32l-2-4.62h1l1.44,3.46,1.45-3.46h1l-2,4.62Z"/><path d="M285.84,62.4a2.55,2.55,0,0,1-1.23-.31,2.37,2.37,0,0,1-1.2-2.09,2.31,2.31,0,0,1,.31-1.2,2.39,2.39,0,0,1,.84-.86,2.16,2.16,0,0,1,1.18-.32,2,2,0,0,1,1.14.32,2.32,2.32,0,0,1,.8.87,2.67,2.67,0,0,1,.29,1.24v.24h-3.65a1.76,1.76,0,0,0,.28.69,1.57,1.57,0,0,0,.55.47,1.49,1.49,0,0,0,.73.18,2,2,0,0,0,.65-.11,1.63,1.63,0,0,0,.52-.29l.57.56a2.75,2.75,0,0,1-1.78.61Zm-1.51-2.79h2.74a1.57,1.57,0,0,0-.25-.63,1.41,1.41,0,0,0-.48-.43,1.32,1.32,0,0,0-1.26,0,1.35,1.35,0,0,0-.49.43A1.62,1.62,0,0,0,284.33,59.61Z"/><path d="M288.82,62.32V57.7h.91v.47a1.82,1.82,0,0,1,1.39-.56,1.89,1.89,0,0,1,.94.22,1.68,1.68,0,0,1,.63.64,1.83,1.83,0,0,1,.24.94v2.91H292V59.57a1.15,1.15,0,0,0-.31-.86,1.12,1.12,0,0,0-.84-.31,1.25,1.25,0,0,0-.65.16,1.46,1.46,0,0,0-.49.44v3.32Z"/><path d="M295.71,62.41a1.92,1.92,0,0,1-.94-.23,1.58,1.58,0,0,1-.64-.64,1.82,1.82,0,0,1-.23-.94V57.7h.91v2.75a1.16,1.16,0,0,0,.31.85,1.14,1.14,0,0,0,.84.32,1.28,1.28,0,0,0,.65-.16,1.3,1.3,0,0,0,.48-.45V57.7H298v4.62h-.91v-.47A1.85,1.85,0,0,1,295.71,62.41Z"/><path d="M301.28,62.4a2.55,2.55,0,0,1-1.23-.31,2.42,2.42,0,0,1-.87-.87,2.42,2.42,0,0,1,.82-3.28,2.2,2.2,0,0,1,1.18-.32,2,2,0,0,1,1.14.32,2.17,2.17,0,0,1,.8.87,2.56,2.56,0,0,1,.3,1.24v.24h-3.65a1.51,1.51,0,0,0,.28.69,1.53,1.53,0,0,0,.54.47,1.49,1.49,0,0,0,.73.18,2,2,0,0,0,.65-.11,1.53,1.53,0,0,0,.52-.29l.57.56a2.73,2.73,0,0,1-.83.46A2.87,2.87,0,0,1,301.28,62.4Zm-1.5-2.79h2.74a1.59,1.59,0,0,0-.26-.63,1.41,1.41,0,0,0-.48-.43,1.17,1.17,0,0,0-.62-.16,1.29,1.29,0,0,0-.64.16A1.41,1.41,0,0,0,300,59,1.48,1.48,0,0,0,299.78,59.61Z"/><path d="M306.05,60.14v-.77h3.27v.77Z"/><path d="M314.26,62.42a3.34,3.34,0,0,1-1.27-.24,2.94,2.94,0,0,1-1-.7l.58-.55a2.71,2.71,0,0,0,.78.56,2.45,2.45,0,0,0,.93.16,1.81,1.81,0,0,0,.76-.14,1.22,1.22,0,0,0,.51-.4,1,1,0,0,0,.18-.59,1,1,0,0,0-.15-.54,1.06,1.06,0,0,0-.43-.38,1.38,1.38,0,0,0-.62-.13h-.78v-.74h.7a1.08,1.08,0,0,0,.78-.28,1,1,0,0,0,.29-.73.94.94,0,0,0-.17-.55,1.09,1.09,0,0,0-.46-.38,1.34,1.34,0,0,0-.64-.15,1.93,1.93,0,0,0-.85.18,2.28,2.28,0,0,0-.75.59l-.59-.57a2.91,2.91,0,0,1,1-.73,3.07,3.07,0,0,1,1.2-.25,2.57,2.57,0,0,1,1.1.23,1.92,1.92,0,0,1,.75.63,1.63,1.63,0,0,1,.28.91,1.31,1.31,0,0,1-.34.9,1.67,1.67,0,0,1-.86.55,1.87,1.87,0,0,1,1,.54,1.32,1.32,0,0,1,.38,1,1.55,1.55,0,0,1-.29,1,2,2,0,0,1-.82.66A2.82,2.82,0,0,1,314.26,62.42Z"/><path d="M319.75,62.42a2.86,2.86,0,0,1-1.2-.24,2,2,0,0,1-.82-.65,1.6,1.6,0,0,1-.3-1,1.46,1.46,0,0,1,.18-.7,1.6,1.6,0,0,1,.49-.55,2.31,2.31,0,0,1,.73-.33,1.85,1.85,0,0,1-.85-.55,1.32,1.32,0,0,1-.33-.88,1.46,1.46,0,0,1,.28-.87,1.82,1.82,0,0,1,.75-.61,2.44,2.44,0,0,1,1.07-.23,2.52,2.52,0,0,1,1.08.23,1.86,1.86,0,0,1,.74.61,1.43,1.43,0,0,1,.28.87,1.32,1.32,0,0,1-.33.88,1.85,1.85,0,0,1-.85.55,2,2,0,0,1,1,.59,1.41,1.41,0,0,1,.39,1,1.55,1.55,0,0,1-.3.94,2,2,0,0,1-.82.66A2.82,2.82,0,0,1,319.75,62.42Zm0-.72a1.72,1.72,0,0,0,.74-.15,1.21,1.21,0,0,0,.52-.42,1,1,0,0,0,.19-.61,1,1,0,0,0-.19-.59,1.21,1.21,0,0,0-.52-.42,1.72,1.72,0,0,0-.74-.15,1.75,1.75,0,0,0-.74.15,1.28,1.28,0,0,0-.52.42,1,1,0,0,0,0,1.2,1.28,1.28,0,0,0,.52.42A1.75,1.75,0,0,0,319.75,61.7Zm0-3a1.47,1.47,0,0,0,.64-.14,1.1,1.1,0,0,0,.45-.37,1,1,0,0,0,.15-.52,1,1,0,0,0-.15-.54,1.12,1.12,0,0,0-.45-.38,1.47,1.47,0,0,0-.64-.14,1.42,1.42,0,0,0-.63.14,1.1,1.1,0,0,0-.45.37.93.93,0,0,0-.16.54.9.9,0,0,0,.16.53,1.1,1.1,0,0,0,.45.37A1.42,1.42,0,0,0,319.75,58.66Z"/><path d="M324.23,59.19a1.22,1.22,0,0,1-1-.46,1.73,1.73,0,0,1-.38-1.18,1.76,1.76,0,0,1,.38-1.18,1.26,1.26,0,0,1,1-.45,1.23,1.23,0,0,1,1,.45,1.77,1.77,0,0,1,.39,1.18,1.73,1.73,0,0,1-.39,1.18A1.21,1.21,0,0,1,324.23,59.19Zm0-.52a.71.71,0,0,0,.6-.3,1.33,1.33,0,0,0,.22-.82,1.35,1.35,0,0,0-.22-.82.71.71,0,0,0-.6-.3.69.69,0,0,0-.58.3,1.35,1.35,0,0,0-.22.82,1.4,1.4,0,0,0,.21.82A.71.71,0,0,0,324.23,58.67Zm-.32,3.65L327.48,56h.72l-3.59,6.36Zm4,0a1.26,1.26,0,0,1-1-.45,1.8,1.8,0,0,1-.38-1.18,1.73,1.73,0,0,1,.39-1.18,1.24,1.24,0,0,1,1-.45,1.26,1.26,0,0,1,1,.45,1.84,1.84,0,0,1,.39,1.18,1.86,1.86,0,0,1-.39,1.18A1.26,1.26,0,0,1,327.92,62.36Zm0-.51a.72.72,0,0,0,.59-.3,1.35,1.35,0,0,0,.22-.82,1.33,1.33,0,0,0-.22-.82.68.68,0,0,0-.59-.31.69.69,0,0,0-.59.31,1.4,1.4,0,0,0-.22.82,1.35,1.35,0,0,0,.22.82A.71.71,0,0,0,327.92,61.85Z"/><path d="M270.79,81.51a2.91,2.91,0,0,1-1.45-.35,2.35,2.35,0,0,1-.93-1,3.19,3.19,0,0,1-.33-1.5V75.05H269v3.64a2.26,2.26,0,0,0,.22,1,1.68,1.68,0,0,0,.61.68,1.79,1.79,0,0,0,.93.24,1.7,1.7,0,0,0,.92-.24,1.68,1.68,0,0,0,.61-.68,2.26,2.26,0,0,0,.22-1V75.05h.95v3.64a3.19,3.19,0,0,1-.33,1.5,2.31,2.31,0,0,1-.94,1A2.83,2.83,0,0,1,270.79,81.51Z"/><path d="M274.56,81.41V76.79h.91v.47a1.8,1.8,0,0,1,1.39-.56,1.88,1.88,0,0,1,.93.22,1.78,1.78,0,0,1,.64.64,1.92,1.92,0,0,1,.23.94v2.91h-.91V78.66a1.15,1.15,0,0,0-.31-.86,1.1,1.1,0,0,0-.84-.31,1.28,1.28,0,0,0-.65.16,1.34,1.34,0,0,0-.48.44v3.32Z"/><path d="M281.29,81.5a3.42,3.42,0,0,1-1.12-.18,2.64,2.64,0,0,1-.9-.51l.49-.6a2.68,2.68,0,0,0,.74.43,2.07,2.07,0,0,0,.77.15,1.45,1.45,0,0,0,.79-.19.55.55,0,0,0,.31-.49.49.49,0,0,0-.18-.4,1.18,1.18,0,0,0-.56-.2l-.84-.12a1.88,1.88,0,0,1-1-.42,1.19,1.19,0,0,1-.34-.88,1.21,1.21,0,0,1,.23-.72,1.39,1.39,0,0,1,.64-.49,2.29,2.29,0,0,1,.94-.17,3.12,3.12,0,0,1,1,.14,2.77,2.77,0,0,1,.89.45l-.45.59a3.71,3.71,0,0,0-.75-.37,2.22,2.22,0,0,0-.72-.12,1.16,1.16,0,0,0-.68.18.56.56,0,0,0-.25.46.43.43,0,0,0,.18.39,1.29,1.29,0,0,0,.57.2l.85.13a1.88,1.88,0,0,1,1,.41,1.13,1.13,0,0,1,.36.88,1.21,1.21,0,0,1-.26.74,1.83,1.83,0,0,1-.69.52A2.57,2.57,0,0,1,281.29,81.5Z"/><path d="M283.92,83.26V76.79h.9v.44a2.12,2.12,0,0,1,1.42-.51,2.26,2.26,0,0,1,1.18.31,2.24,2.24,0,0,1,.84.86,2.37,2.37,0,0,1-2.05,3.59,2.24,2.24,0,0,1-.73-.12,2.38,2.38,0,0,1-.65-.34v2.24Zm2.2-2.57a1.57,1.57,0,0,0,.79-.2,1.53,1.53,0,0,0,.56-.57,1.61,1.61,0,0,0,.21-.82,1.58,1.58,0,0,0-.21-.81,1.51,1.51,0,0,0-1.35-.79,1.72,1.72,0,0,0-.72.15,1.39,1.39,0,0,0-.57.41v2.09a1.69,1.69,0,0,0,.57.39A1.79,1.79,0,0,0,286.12,80.69Z"/><path d="M291.65,81.49a2.5,2.5,0,0,1-1.23-.31,2.37,2.37,0,0,1-.88-.87,2.48,2.48,0,0,1,0-2.42,2.39,2.39,0,0,1,.84-.86,2.16,2.16,0,0,1,1.18-.32,2,2,0,0,1,1.14.32,2.22,2.22,0,0,1,.79.87,2.56,2.56,0,0,1,.3,1.24v.24h-3.65a1.57,1.57,0,0,0,.82,1.16,1.52,1.52,0,0,0,.73.18,2.08,2.08,0,0,0,.66-.11,1.48,1.48,0,0,0,.51-.29l.58.56a3,3,0,0,1-.83.46A2.91,2.91,0,0,1,291.65,81.49Zm-1.51-2.79h2.74a1.59,1.59,0,0,0-.26-.63,1.47,1.47,0,0,0-.47-.43,1.32,1.32,0,0,0-1.26,0,1.35,1.35,0,0,0-.49.43A1.48,1.48,0,0,0,290.14,78.7Z"/><path d="M294.63,81.41V76.79h.91v.47a1.82,1.82,0,0,1,1.39-.56,1.89,1.89,0,0,1,.94.22,1.68,1.68,0,0,1,.63.64,1.82,1.82,0,0,1,.23.94v2.91h-.9V78.66a1.19,1.19,0,0,0-.31-.86,1.14,1.14,0,0,0-.85-.31,1.24,1.24,0,0,0-.64.16,1.29,1.29,0,0,0-.49.44v3.32Z"/><path d="M301.61,81.49a1.5,1.5,0,0,1-1-.31,1.18,1.18,0,0,1-.35-.92V77.55h-1v-.76h1V75.62l.9-.23v1.4h1.37v.76h-1.37v2.51a.65.65,0,0,0,.16.5.73.73,0,0,0,.52.15,1.72,1.72,0,0,0,.34,0l.32-.09v.77a2.16,2.16,0,0,1-.42.1Z"/><path d="M305,79.23v-.77h3.27v.77Z"/><path d="M311,81.41v-.64L313.56,78a6.24,6.24,0,0,0,.41-.49,1.23,1.23,0,0,0,.2-.42,1.39,1.39,0,0,0,.06-.4.88.88,0,0,0-.34-.72,1.37,1.37,0,0,0-.87-.27,1.91,1.91,0,0,0-.82.17,3.16,3.16,0,0,0-.84.6l-.49-.6a3.71,3.71,0,0,1,1-.71A2.76,2.76,0,0,1,313,75a2.59,2.59,0,0,1,1.07.22,1.87,1.87,0,0,1,.72.61,1.55,1.55,0,0,1,.26.89,1.81,1.81,0,0,1-.09.58,1.79,1.79,0,0,1-.28.55,6.57,6.57,0,0,1-.56.68l-2.07,2.18h3.12v.76Z"/><path d="M319.25,81.41V79.79h-3.6v-.72l3.49-4h1v4h.77v.76h-.77v1.62ZM316.72,79h2.53V76.12Z"/><path d="M322.84,78.28a1.26,1.26,0,0,1-1-.46,1.73,1.73,0,0,1-.38-1.18,1.82,1.82,0,0,1,.38-1.18,1.28,1.28,0,0,1,1-.45,1.23,1.23,0,0,1,1,.45,1.83,1.83,0,0,1,.4,1.18,1.79,1.79,0,0,1-.4,1.18A1.23,1.23,0,0,1,322.84,78.28Zm0-.52a.71.71,0,0,0,.59-.3,1.33,1.33,0,0,0,.22-.82,1.35,1.35,0,0,0-.22-.82.71.71,0,0,0-.59-.3.7.7,0,0,0-.59.3,1.35,1.35,0,0,0-.22.82,1.33,1.33,0,0,0,.22.82A.68.68,0,0,0,322.84,77.76Zm-.33,3.65,3.58-6.36h.71l-3.58,6.36Zm4,0a1.26,1.26,0,0,1-1-.45,1.8,1.8,0,0,1-.38-1.18,1.73,1.73,0,0,1,.39-1.18,1.32,1.32,0,0,1,2,0,1.84,1.84,0,0,1,.39,1.18,1.86,1.86,0,0,1-.39,1.18A1.24,1.24,0,0,1,326.52,81.45Zm0-.52a.7.7,0,0,0,.59-.29,1.35,1.35,0,0,0,.23-.82,1.33,1.33,0,0,0-.23-.82.71.71,0,0,0-1.17,0,1.33,1.33,0,0,0-.23.82,1.42,1.42,0,0,0,.22.82A.71.71,0,0,0,326.52,80.93Z"/><rect id="ba4bd355-cf5a-43ca-a3d1-0252550c30ab" data-name="Rectangle 377-2" class="a53e32a0-8ec0-4682-9578-953f10f431ce" x="248.1" y="54.48" width="10.21" height="10.21"/><rect id="bff745a7-75e3-40dd-af65-f5385103fc14" data-name="Rectangle 380-2" class="baf5ccc8-bf3d-47fa-b987-32c45b761fbb" x="248.1" y="73.47" width="10.21" height="10.21"/><rect id="f1cadbea-ac0e-4011-9adb-a76f3dac69ac" data-name="Rectangle 382-2" class="af145203-b15a-4db7-b337-737aca656408" x="248.1" y="35.49" width="10.21" height="10.21"/><g id="f429ee22-9005-45ab-bafb-bf2f914b1f2e" data-name="Rectangle 4740"><path class="abb060dc-137d-4ea8-ab04-0a862cca09f2" d="M392,1V179H54V1H392m1-1H53V180H393V0Z"/></g><path d="M318.62,148.11a2,2,0,0,1,0,.42c0,1.8-2.2,2.12-3.72,2.12-5.91,0-10.32-3.67-10.32-4.79a1,1,0,0,1,0-.24l-.44,1.1a2.17,2.17,0,0,0-.18.89c0,2.2,5,5.53,10.65,5.53,2.52,0,4.43-.95,4.43-2.65a6.12,6.12,0,0,0-.21-1.23Z"/><path class="af145203-b15a-4db7-b337-737aca656408" d="M314.94,150.65c1.52,0,3.72-.32,3.72-2.12a2,2,0,0,0,0-.42l-.91-3.93c-.21-.86-.39-1.26-1.91-2a17.76,17.76,0,0,0-4.5-1.59c-.71,0-.92.91-1.76.91s-1.41-.68-2.17-.68-1.21.5-1.57,1.52c0,0-1,2.88-1.16,3.3a1,1,0,0,0,0,.24c0,1.12,4.41,4.79,10.32,4.79m3.95-1.39a6.12,6.12,0,0,1,.21,1.23c0,1.7-1.91,2.65-4.43,2.65-5.68,0-10.65-3.33-10.65-5.53a2.17,2.17,0,0,1,.18-.89c-2,.11-4.69.47-4.69,2.8,0,3.83,9.06,8.54,16.24,8.54,5.5,0,6.89-2.49,6.89-4.45,0-1.55-1.34-3.3-3.75-4.35"/><path d="M325.11,144.89h4.38a2.94,2.94,0,0,1,3,2.91,2.75,2.75,0,0,1-1.63,2.49l1.91,3.38h-2.41l-1.64-3.08h-1.47v3.08h-2.16Zm2.16,1.84v2.08h2a1.05,1.05,0,0,0,1.09-1,1.08,1.08,0,0,0-1.09-1.07Z"/><path d="M336.33,153.79a3.48,3.48,0,0,1-3.61-3.43,3.41,3.41,0,0,1,3.46-3.44,3.37,3.37,0,0,1,3.35,3.57v.56H334.8a1.71,1.71,0,0,0,1.63,1,1.82,1.82,0,0,0,1.33-.5l1.34,1.19A4,4,0,0,1,336.33,153.79Zm-1.54-4.16h2.76a1.48,1.48,0,0,0-1.39-1A1.38,1.38,0,0,0,334.79,149.63Z"/><path d="M345.12,153.18a3.07,3.07,0,0,1-1.79.59,3.42,3.42,0,1,1,1.76-6.39v-2.49l2-.63v9.41h-2ZM343.66,152a2,2,0,0,0,1.43-.53v-2.32a2.13,2.13,0,0,0-1.43-.52,1.69,1.69,0,1,0,0,3.37Z"/><path d="M355.75,150.23h-3.36v3.44h-2.16v-8.78h2.16v3.37h3.36v-3.37h2.16v8.78h-2.16Z"/><path d="M362.9,153.27a3,3,0,0,1-1.78.51,2.23,2.23,0,0,1-2.47-2.12c0-1.17.94-2,2.58-2a3.57,3.57,0,0,1,1.67.37v-.4c0-.64-.43-1-1.26-1a5.06,5.06,0,0,0-2,.48l-.6-1.52a6.93,6.93,0,0,1,2.73-.67c2,0,3.15.89,3.15,2.5v4.26h-2Zm-1.24-.91a2.31,2.31,0,0,0,1.24-.34v-.69a2.7,2.7,0,0,0-1.31-.35c-.62,0-1,.27-1,.68S361,152.36,361.66,152.36Z"/><path d="M368.89,153.77c-1.39,0-2.17-.67-2.17-2.05v-3h-1.4V147h1.4v-1.52l2-.62V147h1.85v1.69h-1.85v2.54c0,.56.3.78.91.78a2.27,2.27,0,0,0,.89-.2l-.27,1.64A3.68,3.68,0,0,1,368.89,153.77Z"/><g id="aaf49a2b-645e-4354-93f3-afc099035a4f" data-name="Rectangle 4740"><path class="abb060dc-137d-4ea8-ab04-0a862cca09f2" d="M846,1V179H508V1H846m1-1H507V180H847V0Z"/></g><path d="M772.62,148.11a2,2,0,0,1,0,.42c0,1.8-2.2,2.12-3.72,2.12-5.91,0-10.32-3.67-10.32-4.79a1,1,0,0,1,0-.24l-.44,1.1a2.17,2.17,0,0,0-.18.89c0,2.2,5,5.53,10.65,5.53,2.52,0,4.43-.95,4.43-2.65a6.12,6.12,0,0,0-.21-1.23Z"/><path class="af145203-b15a-4db7-b337-737aca656408" d="M768.94,150.65c1.52,0,3.72-.32,3.72-2.12a2,2,0,0,0,0-.42l-.91-3.93c-.21-.86-.39-1.26-1.91-2a17.76,17.76,0,0,0-4.5-1.59c-.71,0-.92.91-1.76.91s-1.41-.68-2.17-.68-1.21.5-1.57,1.52c0,0-1,2.88-1.16,3.3a1,1,0,0,0,0,.24c0,1.12,4.41,4.79,10.32,4.79m3.95-1.39a6.12,6.12,0,0,1,.21,1.23c0,1.7-1.91,2.65-4.43,2.65-5.68,0-10.65-3.33-10.65-5.53a2.17,2.17,0,0,1,.18-.89c-2,.11-4.69.47-4.69,2.8,0,3.83,9.06,8.54,16.24,8.54,5.5,0,6.89-2.49,6.89-4.45,0-1.55-1.34-3.3-3.75-4.35"/><path d="M779.11,144.89h4.38a2.94,2.94,0,0,1,3,2.91,2.75,2.75,0,0,1-1.63,2.49l1.91,3.38h-2.41l-1.64-3.08h-1.47v3.08h-2.16Zm2.16,1.84v2.08h2a1.05,1.05,0,0,0,1.09-1,1.08,1.08,0,0,0-1.09-1.07Z"/><path d="M790.33,153.79a3.48,3.48,0,0,1-3.61-3.43,3.41,3.41,0,0,1,3.46-3.44,3.37,3.37,0,0,1,3.35,3.57v.56H788.8a1.71,1.71,0,0,0,1.63,1,1.82,1.82,0,0,0,1.33-.5l1.34,1.19A4,4,0,0,1,790.33,153.79Zm-1.54-4.16h2.76a1.48,1.48,0,0,0-1.39-1A1.38,1.38,0,0,0,788.79,149.63Z"/><path d="M799.12,153.18a3.07,3.07,0,0,1-1.79.59,3.42,3.42,0,1,1,1.76-6.39v-2.49l2-.63v9.41h-2ZM797.66,152a2,2,0,0,0,1.43-.53v-2.32a2.13,2.13,0,0,0-1.43-.52,1.69,1.69,0,1,0,0,3.37Z"/><path d="M809.75,150.23h-3.36v3.44h-2.16v-8.78h2.16v3.37h3.36v-3.37h2.16v8.78h-2.16Z"/><path d="M816.9,153.27a3,3,0,0,1-1.78.51,2.23,2.23,0,0,1-2.47-2.12c0-1.17.94-2,2.58-2a3.57,3.57,0,0,1,1.67.37v-.4c0-.64-.43-1-1.26-1a5.06,5.06,0,0,0-2,.48l-.6-1.52a6.93,6.93,0,0,1,2.73-.67c2,0,3.15.89,3.15,2.5v4.26h-2Zm-1.24-.91a2.31,2.31,0,0,0,1.24-.34v-.69a2.7,2.7,0,0,0-1.31-.35c-.62,0-1,.27-1,.68S815,152.36,815.66,152.36Z"/><path d="M822.89,153.77c-1.39,0-2.17-.67-2.17-2.05v-3h-1.4V147h1.4v-1.52l2-.62V147h1.85v1.69h-1.85v2.54c0,.56.3.78.91.78a2.27,2.27,0,0,0,.89-.2l-.27,1.64A3.68,3.68,0,0,1,822.89,153.77Z"/><path id="f6e7feff-e903-45ab-b68f-184ccffece7a" data-name="Rectangle 4740-3" class="a53e32a0-8ec0-4682-9578-953f10f431ce" d="M507,200H847V380H507V200Z"/><path d="M772.62,348.11a2,2,0,0,1,0,.42c0,1.8-2.2,2.12-3.72,2.12-5.91,0-10.32-3.67-10.32-4.79a1,1,0,0,1,0-.24l-.44,1.1a2.17,2.17,0,0,0-.18.89c0,2.2,5,5.53,10.65,5.53,2.52,0,4.43-.95,4.43-2.65a6.12,6.12,0,0,0-.21-1.23Z"/><path class="af145203-b15a-4db7-b337-737aca656408" d="M768.94,350.65c1.52,0,3.72-.32,3.72-2.12a2,2,0,0,0,0-.42l-.91-3.93c-.21-.86-.39-1.26-1.91-2a17.76,17.76,0,0,0-4.5-1.59c-.71,0-.92.91-1.76.91s-1.41-.68-2.17-.68-1.21.5-1.57,1.52c0,0-1,2.88-1.16,3.3a1,1,0,0,0,0,.24c0,1.12,4.41,4.79,10.32,4.79m3.95-1.39a6.12,6.12,0,0,1,.21,1.23c0,1.7-1.91,2.65-4.43,2.65-5.68,0-10.65-3.33-10.65-5.53a2.17,2.17,0,0,1,.18-.89c-2,.11-4.69.47-4.69,2.8,0,3.83,9.06,8.54,16.24,8.54,5.5,0,6.89-2.49,6.89-4.45,0-1.55-1.34-3.3-3.75-4.35"/><path d="M779.11,344.89h4.38a2.94,2.94,0,0,1,3,2.91,2.75,2.75,0,0,1-1.63,2.49l1.91,3.38h-2.41l-1.64-3.08h-1.47v3.08h-2.16Zm2.16,1.84v2.08h2a1.05,1.05,0,0,0,1.09-1,1.08,1.08,0,0,0-1.09-1.07Z"/><path d="M790.33,353.79a3.48,3.48,0,0,1-3.61-3.43,3.41,3.41,0,0,1,3.46-3.44,3.37,3.37,0,0,1,3.35,3.57v.56H788.8a1.71,1.71,0,0,0,1.63,1.05,1.82,1.82,0,0,0,1.33-.5l1.34,1.19A4,4,0,0,1,790.33,353.79Zm-1.54-4.16h2.76a1.48,1.48,0,0,0-1.39-1A1.38,1.38,0,0,0,788.79,349.63Z"/><path d="M799.12,353.18a3.07,3.07,0,0,1-1.79.59,3.42,3.42,0,1,1,1.76-6.39v-2.49l2-.63v9.41h-2ZM797.66,352a2,2,0,0,0,1.43-.53v-2.32a2.13,2.13,0,0,0-1.43-.52,1.69,1.69,0,1,0,0,3.37Z"/><path d="M809.75,350.23h-3.36v3.44h-2.16v-8.78h2.16v3.37h3.36v-3.37h2.16v8.78h-2.16Z"/><path d="M816.9,353.27a3,3,0,0,1-1.78.51,2.23,2.23,0,0,1-2.47-2.12c0-1.17.94-2,2.58-2a3.57,3.57,0,0,1,1.67.37v-.4c0-.64-.43-1-1.26-1a5.06,5.06,0,0,0-2,.48l-.6-1.52a6.93,6.93,0,0,1,2.73-.67c2,0,3.15.89,3.15,2.5v4.26h-2Zm-1.24-.91a2.31,2.31,0,0,0,1.24-.34v-.69a2.7,2.7,0,0,0-1.31-.35c-.62,0-1,.27-1,.68S815,352.36,815.66,352.36Z"/><path d="M822.89,353.77c-1.39,0-2.17-.67-2.17-2v-3h-1.4V347h1.4v-1.52l2-.62V347h1.85v1.69h-1.85v2.54c0,.56.3.78.91.78a2.27,2.27,0,0,0,.89-.2l-.27,1.64A3.68,3.68,0,0,1,822.89,353.77Z"/><g id="ee2796aa-ba40-4f0f-a6c3-748f053c135d" data-name="Group 36006"><g id="a1294edf-26fa-41cd-a9eb-5b3311aac6a1" data-name="Group 36005"><path id="ba29b204-9546-4523-9705-f2d8246aad6d" data-name="Path 7034" class="af6cf088-baf9-4ac4-8490-2a9ac9542050" d="M603.43,90l-.17,60a60,60,0,0,0,52-29.86,57.35,57.35,0,0,0,8.12-30,57.26,57.26,0,0,0-8-30Z"/><path id="bc748674-127e-4815-8846-1bbb94f9eaea" data-name="Path 7035" class="a53e32a0-8ec0-4682-9578-953f10f431ce" d="M603.42,90l52-29.85a57.21,57.21,0,0,0-21.9-22Z"/><path id="f95f05b4-15c5-435b-abbd-d39deeb95b42" data-name="Path 7036" class="fbf6b901-45bb-4e50-a089-95abfa321366" d="M603.42,90l30.14-51.87a57.16,57.16,0,0,0-30-8.12Z"/><path id="bc061da2-08f2-4b72-9baf-bef496d7b01b" data-name="Path 7037" class="af145203-b15a-4db7-b337-737aca656408" d="M573.57,38a57.41,57.41,0,0,0-22,21.9L603.42,90l.17-60A57.36,57.36,0,0,0,573.57,38Z"/><g id="a9b79f67-3e43-42f3-ba34-3b7eab3cb63a" data-name="Group 36004"><g id="f76ae4b4-a85d-44e5-9707-c5cca8b72462" data-name="Group 36003"><path id="b09a6158-f5f9-426c-9c58-5286e048b870" data-name="Path 7038" class="baf5ccc8-bf3d-47fa-b987-32c45b761fbb" d="M603.42,90l-60-.16a57.41,57.41,0,0,1,8.12-30Z"/></g></g><path id="b39df8c6-97d2-44a7-8657-4558916eb39f" data-name="Path 7039" class="a9c17657-6b7b-457e-a9e2-f816a5459f08" d="M551.39,119.86A60,60,0,0,0,603.26,150l.16-60-60-.16A57.4,57.4,0,0,0,551.39,119.86Z"/></g><circle id="a6d03bf4-f9f4-42d2-b592-c0b4a960cd08" data-name="Ellipse 224" class="b6a8f087-620d-48a2-bd6f-58b1a933ff10" cx="603.43" cy="90" r="30.05"/></g><path d="M89.53,348.11a2,2,0,0,1,0,.42c0,1.8-2.2,2.12-3.72,2.12-5.91,0-10.32-3.67-10.32-4.79a.69.69,0,0,1,0-.24l-.45,1.1a2.34,2.34,0,0,0-.18.89c0,2.2,5,5.53,10.66,5.53,2.51,0,4.42-.95,4.42-2.65a6.12,6.12,0,0,0-.21-1.23Z"/><path class="af145203-b15a-4db7-b337-737aca656408" d="M85.85,350.65c1.52,0,3.72-.32,3.72-2.12a2,2,0,0,0,0-.42l-.91-3.93c-.21-.86-.39-1.26-1.91-2a17.76,17.76,0,0,0-4.5-1.59c-.71,0-.92.91-1.76.91s-1.41-.68-2.17-.68-1.2.5-1.57,1.52c0,0-1,2.88-1.15,3.3a.69.69,0,0,0,0,.24c0,1.12,4.41,4.79,10.32,4.79m4-1.39a6.12,6.12,0,0,1,.21,1.23c0,1.7-1.91,2.65-4.42,2.65-5.69,0-10.66-3.33-10.66-5.53a2.34,2.34,0,0,1,.18-.89c-2,.11-4.69.47-4.69,2.8,0,3.83,9.06,8.54,16.24,8.54,5.5,0,6.89-2.49,6.89-4.45,0-1.55-1.34-3.3-3.75-4.35"/><path class="a23a9ed4-ab66-47da-95fc-aa41aa346721" d="M96,344.89h4.38a2.94,2.94,0,0,1,3,2.91,2.75,2.75,0,0,1-1.63,2.49l1.91,3.38h-2.41l-1.64-3.08H98.18v3.08H96Zm2.16,1.84v2.08h2a1.05,1.05,0,0,0,1.09-1,1.08,1.08,0,0,0-1.09-1.07Z"/><path class="a23a9ed4-ab66-47da-95fc-aa41aa346721" d="M107.24,353.79a3.48,3.48,0,0,1-3.61-3.43,3.41,3.41,0,0,1,3.46-3.44,3.37,3.37,0,0,1,3.35,3.57v.56h-4.73a1.72,1.72,0,0,0,1.63,1.05,1.8,1.8,0,0,0,1.33-.5l1.35,1.19A4,4,0,0,1,107.24,353.79Zm-1.54-4.16h2.76a1.48,1.48,0,0,0-1.39-1A1.38,1.38,0,0,0,105.7,349.63Z"/><path class="a23a9ed4-ab66-47da-95fc-aa41aa346721" d="M116,353.18a3.06,3.06,0,0,1-1.78.59,3.42,3.42,0,1,1,1.75-6.39v-2.49l2-.63v9.41h-2ZM114.57,352a2,2,0,0,0,1.43-.53v-2.32a2.13,2.13,0,0,0-1.43-.52,1.69,1.69,0,1,0,0,3.37Z"/><path class="a23a9ed4-ab66-47da-95fc-aa41aa346721" d="M126.66,350.23H123.3v3.44h-2.16v-8.78h2.16v3.37h3.36v-3.37h2.16v8.78h-2.16Z"/><path class="a23a9ed4-ab66-47da-95fc-aa41aa346721" d="M133.81,353.27a3,3,0,0,1-1.78.51,2.23,2.23,0,0,1-2.47-2.12c0-1.17.94-2,2.58-2a3.57,3.57,0,0,1,1.67.37v-.4c0-.64-.43-1-1.25-1a5.11,5.11,0,0,0-2,.48l-.6-1.52a6.93,6.93,0,0,1,2.73-.67c2,0,3.15.89,3.15,2.5v4.26h-2Zm-1.24-.91a2.29,2.29,0,0,0,1.24-.34v-.69a2.69,2.69,0,0,0-1.3-.35c-.63,0-1,.27-1,.68S131.9,352.36,132.57,352.36Z"/><path class="a23a9ed4-ab66-47da-95fc-aa41aa346721" d="M139.81,353.77c-1.4,0-2.17-.67-2.17-2v-3h-1.41V347h1.41v-1.52l2-.62V347h1.85v1.69h-1.85v2.54c0,.56.3.78.91.78a2.27,2.27,0,0,0,.89-.2l-.27,1.64A3.67,3.67,0,0,1,139.81,353.77Z"/><ellipse class="baf5ccc8-bf3d-47fa-b987-32c45b761fbb" cx="580.14" cy="350.9" rx="30.96" ry="2.73"/><rect class="a9c17657-6b7b-457e-a9e2-f816a5459f08" x="560.71" y="320" width="9.49" height="29.81"/><rect class="a53e32a0-8ec0-4682-9578-953f10f431ce" x="563.46" y="319.8" width="27.62" height="8.15"/><rect class="fd329f65-3a8d-4980-9a02-88a80fbe9b3c" x="567.92" y="322.85" width="14.85" height="1.41"/><circle class="fd329f65-3a8d-4980-9a02-88a80fbe9b3c" cx="586.6" cy="323.56" r="0.98"/><rect class="a53e32a0-8ec0-4682-9578-953f10f431ce" x="563.46" y="327.34" width="27.62" height="7.51"/><circle class="fd329f65-3a8d-4980-9a02-88a80fbe9b3c" cx="586.6" cy="331.1" r="0.88"/><rect class="a53e32a0-8ec0-4682-9578-953f10f431ce" x="563.46" y="334.85" width="27.62" height="7.51"/><circle class="fd329f65-3a8d-4980-9a02-88a80fbe9b3c" cx="586.6" cy="338.6" r="0.98"/><rect class="a53e32a0-8ec0-4682-9578-953f10f431ce" x="563.46" y="342.36" width="27.62" height="7.51"/><circle class="fd329f65-3a8d-4980-9a02-88a80fbe9b3c" cx="586.6" cy="346.11" r="0.98"/><rect class="fd329f65-3a8d-4980-9a02-88a80fbe9b3c" x="567.82" y="330.38" width="15.04" height="1.43"/><rect class="fd329f65-3a8d-4980-9a02-88a80fbe9b3c" x="567.92" y="337.9" width="14.85" height="1.41"/><rect class="fd329f65-3a8d-4980-9a02-88a80fbe9b3c" x="567.92" y="345.41" width="14.85" height="1.41"/><line class="ec4ba86e-a774-4e27-8a04-a3b0481dafa5" x1="591.16" y1="327.41" x2="563.55" y2="327.41"/><line class="ec4ba86e-a774-4e27-8a04-a3b0481dafa5" x1="591.16" y1="334.86" x2="563.55" y2="334.86"/><line class="ec4ba86e-a774-4e27-8a04-a3b0481dafa5" x1="591.16" y1="342.3" x2="563.55" y2="342.3"/><g class="f4f3ba90-82eb-4d7b-88bd-1daf72f58f3f"><rect class="baf5ccc8-bf3d-47fa-b987-32c45b761fbb" x="563.46" y="319.8" width="27.62" height="8.15"/><rect class="a9c17657-6b7b-457e-a9e2-f816a5459f08" x="567.92" y="322.85" width="14.85" height="1.41"/><circle class="a9c17657-6b7b-457e-a9e2-f816a5459f08" cx="586.6" cy="323.56" r="0.98"/><rect class="baf5ccc8-bf3d-47fa-b987-32c45b761fbb" x="563.46" y="327.34" width="27.62" height="7.51"/><circle class="a9c17657-6b7b-457e-a9e2-f816a5459f08" cx="586.6" cy="331.1" r="0.88"/><rect class="baf5ccc8-bf3d-47fa-b987-32c45b761fbb" x="563.46" y="334.85" width="27.62" height="7.51"/><circle class="a9c17657-6b7b-457e-a9e2-f816a5459f08" cx="586.6" cy="338.6" r="0.98"/><rect class="baf5ccc8-bf3d-47fa-b987-32c45b761fbb" x="563.46" y="342.36" width="27.62" height="7.51"/><circle class="a9c17657-6b7b-457e-a9e2-f816a5459f08" cx="586.6" cy="346.11" r="0.98"/><rect class="a9c17657-6b7b-457e-a9e2-f816a5459f08" x="567.82" y="330.38" width="15.04" height="1.43"/><rect class="a9c17657-6b7b-457e-a9e2-f816a5459f08" x="567.92" y="337.9" width="14.85" height="1.41"/><rect class="a9c17657-6b7b-457e-a9e2-f816a5459f08" x="567.92" y="345.41" width="14.85" height="1.41"/><line class="baf5ccc8-bf3d-47fa-b987-32c45b761fbb" x1="591.16" y1="327.41" x2="563.55" y2="327.41"/><line class="baf5ccc8-bf3d-47fa-b987-32c45b761fbb" x1="591.16" y1="334.86" x2="563.55" y2="334.86"/><line class="baf5ccc8-bf3d-47fa-b987-32c45b761fbb" x1="591.16" y1="342.3" x2="563.55" y2="342.3"/></g><rect class="a9c17657-6b7b-457e-a9e2-f816a5459f08" x="574.86" y="299.48" width="9.49" height="52.49"/><rect class="fd329f65-3a8d-4980-9a02-88a80fbe9b3c" x="577.35" y="299.39" width="27.62" height="7.51"/><circle class="af6cf088-baf9-4ac4-8490-2a9ac9542050" cx="600.49" cy="303.14" r="0.88"/><rect class="fd329f65-3a8d-4980-9a02-88a80fbe9b3c" x="577.35" y="306.9" width="27.62" height="7.51"/><circle class="af6cf088-baf9-4ac4-8490-2a9ac9542050" cx="600.49" cy="310.65" r="0.98"/><rect class="fd329f65-3a8d-4980-9a02-88a80fbe9b3c" x="577.35" y="314.41" width="27.62" height="7.51"/><circle class="af6cf088-baf9-4ac4-8490-2a9ac9542050" cx="600.49" cy="318.16" r="0.98"/><rect class="fd329f65-3a8d-4980-9a02-88a80fbe9b3c" x="577.35" y="321.92" width="27.62" height="7.51"/><rect class="af6cf088-baf9-4ac4-8490-2a9ac9542050" x="581.71" y="302.43" width="15.04" height="1.43"/><rect class="af6cf088-baf9-4ac4-8490-2a9ac9542050" x="581.81" y="309.95" width="14.85" height="1.41"/><rect class="af6cf088-baf9-4ac4-8490-2a9ac9542050" x="581.81" y="317.46" width="14.85" height="1.41"/><rect class="af6cf088-baf9-4ac4-8490-2a9ac9542050" x="581.81" y="324.97" width="14.85" height="1.41"/><circle class="af6cf088-baf9-4ac4-8490-2a9ac9542050" cx="600.49" cy="325.67" r="0.98"/><rect class="fd329f65-3a8d-4980-9a02-88a80fbe9b3c" x="577.35" y="328.82" width="27.62" height="8.15"/><circle class="af6cf088-baf9-4ac4-8490-2a9ac9542050" cx="600.49" cy="333.21" r="0.88"/><rect class="fd329f65-3a8d-4980-9a02-88a80fbe9b3c" x="577.35" y="336.97" width="27.62" height="7.51"/><circle class="af6cf088-baf9-4ac4-8490-2a9ac9542050" cx="600.49" cy="340.72" r="0.98"/><rect class="fd329f65-3a8d-4980-9a02-88a80fbe9b3c" x="577.35" y="344.48" width="27.62" height="7.51"/><circle class="af6cf088-baf9-4ac4-8490-2a9ac9542050" cx="600.49" cy="348.23" r="0.98"/><rect class="af6cf088-baf9-4ac4-8490-2a9ac9542050" x="581.71" y="332.5" width="15.04" height="1.43"/><rect class="af6cf088-baf9-4ac4-8490-2a9ac9542050" x="581.81" y="340.02" width="14.85" height="1.41"/><rect class="af6cf088-baf9-4ac4-8490-2a9ac9542050" x="581.81" y="347.53" width="14.85" height="1.41"/><g class="ab3a650f-7bba-4938-a3b7-4dc41438a36f"><g class="f4f3ba90-82eb-4d7b-88bd-1daf72f58f3f"><rect x="563.46" y="319.8" width="27.62" height="8.15"/><rect class="a9c17657-6b7b-457e-a9e2-f816a5459f08" x="567.92" y="322.85" width="14.85" height="1.41"/><circle class="a9c17657-6b7b-457e-a9e2-f816a5459f08" cx="586.6" cy="323.56" r="0.98"/><rect x="563.46" y="327.34" width="27.62" height="7.51"/><circle class="a9c17657-6b7b-457e-a9e2-f816a5459f08" cx="586.6" cy="331.1" r="0.88"/><rect x="563.46" y="334.85" width="27.62" height="7.51"/><circle class="a9c17657-6b7b-457e-a9e2-f816a5459f08" cx="586.6" cy="338.6" r="0.98"/><rect x="563.46" y="342.36" width="27.62" height="7.51"/><circle class="a9c17657-6b7b-457e-a9e2-f816a5459f08" cx="586.6" cy="346.11" r="0.98"/><rect class="a9c17657-6b7b-457e-a9e2-f816a5459f08" x="567.82" y="330.38" width="15.04" height="1.43"/><rect class="a9c17657-6b7b-457e-a9e2-f816a5459f08" x="567.92" y="337.9" width="14.85" height="1.41"/><rect class="a9c17657-6b7b-457e-a9e2-f816a5459f08" x="567.92" y="345.41" width="14.85" height="1.41"/><line class="ec4ba86e-a774-4e27-8a04-a3b0481dafa5" x1="591.16" y1="327.41" x2="563.55" y2="327.41"/><line class="ec4ba86e-a774-4e27-8a04-a3b0481dafa5" x1="591.16" y1="334.86" x2="563.55" y2="334.86"/><line class="ec4ba86e-a774-4e27-8a04-a3b0481dafa5" x1="591.16" y1="342.3" x2="563.55" y2="342.3"/></g><rect class="a9c17657-6b7b-457e-a9e2-f816a5459f08" x="574.86" y="299.48" width="9.49" height="52.49"/><rect class="ae36f7a1-c039-4c74-a0ad-7284991f93cb" x="577.35" y="299.39" width="27.62" height="7.51"/><circle class="a9c17657-6b7b-457e-a9e2-f816a5459f08" cx="600.49" cy="303.14" r="0.88"/><rect class="ae36f7a1-c039-4c74-a0ad-7284991f93cb" x="577.35" y="306.9" width="27.62" height="7.51"/><circle class="a9c17657-6b7b-457e-a9e2-f816a5459f08" cx="600.49" cy="310.65" r="0.98"/><rect class="ae36f7a1-c039-4c74-a0ad-7284991f93cb" x="577.35" y="314.41" width="27.62" height="7.51"/><circle class="a9c17657-6b7b-457e-a9e2-f816a5459f08" cx="600.49" cy="318.16" r="0.98"/><rect class="ae36f7a1-c039-4c74-a0ad-7284991f93cb" x="577.35" y="321.92" width="27.62" height="7.51"/><rect class="a9c17657-6b7b-457e-a9e2-f816a5459f08" x="581.71" y="302.43" width="15.04" height="1.43"/><rect class="a9c17657-6b7b-457e-a9e2-f816a5459f08" x="581.81" y="309.95" width="14.85" height="1.41"/><rect class="a9c17657-6b7b-457e-a9e2-f816a5459f08" x="581.81" y="317.46" width="14.85" height="1.41"/><rect class="a9c17657-6b7b-457e-a9e2-f816a5459f08" x="581.81" y="324.97" width="14.85" height="1.41"/><circle class="a9c17657-6b7b-457e-a9e2-f816a5459f08" cx="600.49" cy="325.67" r="0.98"/><rect class="ae36f7a1-c039-4c74-a0ad-7284991f93cb" x="577.35" y="328.82" width="27.62" height="8.15"/><circle class="a9c17657-6b7b-457e-a9e2-f816a5459f08" cx="600.49" cy="333.21" r="0.88"/><rect class="ae36f7a1-c039-4c74-a0ad-7284991f93cb" x="577.35" y="336.97" width="27.62" height="7.51"/><circle class="a9c17657-6b7b-457e-a9e2-f816a5459f08" cx="600.49" cy="340.72" r="0.98"/><rect class="ae36f7a1-c039-4c74-a0ad-7284991f93cb" x="577.35" y="344.48" width="27.62" height="7.51"/><circle class="a9c17657-6b7b-457e-a9e2-f816a5459f08" cx="600.49" cy="348.23" r="0.98"/><rect class="a9c17657-6b7b-457e-a9e2-f816a5459f08" x="581.71" y="332.5" width="15.04" height="1.43"/><rect class="a9c17657-6b7b-457e-a9e2-f816a5459f08" x="581.81" y="340.02" width="14.85" height="1.41"/><rect class="a9c17657-6b7b-457e-a9e2-f816a5459f08" x="581.81" y="347.53" width="14.85" height="1.41"/></g><path class="fd329f65-3a8d-4980-9a02-88a80fbe9b3c" d="M721.23,279.7A17,17,0,0,0,687.38,282V282c-.23,0-.47,0-.7,0a8.49,8.49,0,1,0,0,17H716.6l.65,0a10.05,10.05,0,0,0,4-19.29Z"/><path class="ae36f7a1-c039-4c74-a0ad-7284991f93cb" d="M708,281a3.66,3.66,0,1,0-5.32,3.27v3.62a1.66,1.66,0,0,0,3.32,0v-3.62A3.66,3.66,0,0,0,708,281Z"/><path class="fd329f65-3a8d-4980-9a02-88a80fbe9b3c" d="M656.66,260.66a11.5,11.5,0,0,0-11.5-11.5l-.41,0a18.42,18.42,0,0,0-17.37-15.46,30.15,30.15,0,0,0-59,5.38h-.15a16.54,16.54,0,0,0-.09,33.07h77.21A11.49,11.49,0,0,0,656.66,260.66Z"/><path class="ec4ba86e-a774-4e27-8a04-a3b0481dafa5" d="M665.54,232.29a58.75,58.75,0,0,1,9.05,6.3"/><path class="fd329f65-3a8d-4980-9a02-88a80fbe9b3c" d="M689.33,335.48a.39.39,0,0,1-.28-.12.4.4,0,0,1,0-.56,73.66,73.66,0,0,0,10.29-13,.39.39,0,0,1,.55-.13.4.4,0,0,1,.13.55,75.72,75.72,0,0,1-10.4,13.14A.4.4,0,0,1,689.33,335.48Z"/><path class="fd329f65-3a8d-4980-9a02-88a80fbe9b3c" d="M686.35,228.63a.39.39,0,0,1-.27-.1A73.22,73.22,0,0,0,637,209.69a.4.4,0,1,1,0-.79,74,74,0,0,1,49.62,19,.39.39,0,0,1,0,.56A.37.37,0,0,1,686.35,228.63Z"/><path class="ec4ba86e-a774-4e27-8a04-a3b0481dafa5" d="M704.66,322.94a78.54,78.54,0,0,1-7.4,10.48"/><path class="fd329f65-3a8d-4980-9a02-88a80fbe9b3c" d="M686.79,323.1a.43.43,0,0,1-.24-.08.41.41,0,0,1-.07-.56c1-1.31,2-2.67,3-4.06a.4.4,0,1,1,.66.44c-1,1.41-2,2.79-3,4.11A.37.37,0,0,1,686.79,323.1Z"/><path class="fd329f65-3a8d-4980-9a02-88a80fbe9b3c" d="M677.46,234.35a.43.43,0,0,1-.26-.09,63.43,63.43,0,0,0-25-12.59.41.41,0,0,1-.29-.48.39.39,0,0,1,.48-.29,64.24,64.24,0,0,1,25.35,12.75.4.4,0,0,1,0,.56A.41.41,0,0,1,677.46,234.35Z"/><g class="ba9bee1b-1047-4a22-b10b-8fb46db1c408"><polygon class="af6cf088-baf9-4ac4-8490-2a9ac9542050" points="710.82 313.54 706.61 311.11 702.41 313.54 706.62 315.97 710.82 313.54"/><polygon class="af145203-b15a-4db7-b337-737aca656408" points="702.39 313.57 702.39 318.43 706.6 320.86 706.6 316 702.39 313.57"/><polygon class="af145203-b15a-4db7-b337-737aca656408" points="706.63 320.85 710.84 318.43 710.84 313.57 706.63 316 706.63 320.85"/><path class="a23a9ed4-ab66-47da-95fc-aa41aa346721" d="M706.6,316h0Z"/><path class="a23a9ed4-ab66-47da-95fc-aa41aa346721" d="M706.6,316Z"/><line class="af145203-b15a-4db7-b337-737aca656408" x1="702.39" y1="313.55" x2="706.62" y2="315.99"/><line class="ec4ba86e-a774-4e27-8a04-a3b0481dafa5" x1="706.62" y1="315.99" x2="706.62" y2="321.2"/><line class="af145203-b15a-4db7-b337-737aca656408" x1="710.84" y1="313.55" x2="706.62" y2="315.99"/></g><g class="bb59c27a-9500-4301-b60c-f6d92d1b304e"><polygon class="af6cf088-baf9-4ac4-8490-2a9ac9542050" points="703.26 311.11 697.66 307.87 692.06 311.11 697.66 314.35 703.26 311.11"/><polygon class="af145203-b15a-4db7-b337-737aca656408" points="692.03 311.15 692.03 317.62 697.64 320.86 697.64 314.39 692.03 311.15"/><polygon class="af145203-b15a-4db7-b337-737aca656408" points="697.69 320.85 703.28 317.62 703.28 311.15 697.69 314.39 697.69 320.85"/><path class="a23a9ed4-ab66-47da-95fc-aa41aa346721" d="M697.65,314.36h0Z"/><path class="a23a9ed4-ab66-47da-95fc-aa41aa346721" d="M697.64,314.37h0Z"/><line class="af145203-b15a-4db7-b337-737aca656408" x1="692.03" y1="311.12" x2="697.66" y2="314.37"/><line class="af145203-b15a-4db7-b337-737aca656408" x1="703.28" y1="311.12" x2="697.66" y2="314.37"/></g><g class="b0c2e071-5375-421a-9736-ecbcc0ad61f3"><polygon class="af6cf088-baf9-4ac4-8490-2a9ac9542050" points="694.6 235.02 689 231.78 683.4 235.02 689.01 238.26 694.6 235.02"/><polygon class="af6cf088-baf9-4ac4-8490-2a9ac9542050" points="683.38 235.06 683.38 241.53 688.98 244.76 688.98 238.3 683.38 235.06"/><polygon class="af145203-b15a-4db7-b337-737aca656408" points="689.03 244.76 694.63 241.53 694.63 235.06 689.03 238.3 689.03 244.76"/><path class="a23a9ed4-ab66-47da-95fc-aa41aa346721" d="M689,238.27h0Z"/><path class="a23a9ed4-ab66-47da-95fc-aa41aa346721" d="M689,238.28h0Z"/><line class="af145203-b15a-4db7-b337-737aca656408" x1="683.38" y1="235.03" x2="689.01" y2="238.28"/><line class="af145203-b15a-4db7-b337-737aca656408" x1="694.63" y1="235.03" x2="689.01" y2="238.28"/></g><polygon class="af6cf088-baf9-4ac4-8490-2a9ac9542050" points="685.14 238.54 685.14 243.42 680.91 245.85 676.69 243.42 676.69 238.54 680.91 236.1 685.14 238.54"/><g class="f953a91c-50b1-4d67-b60f-a62a668c77fb"><polygon class="af6cf088-baf9-4ac4-8490-2a9ac9542050" points="685.12 238.53 680.91 236.1 676.71 238.53 680.92 240.96 685.12 238.53"/><polygon class="af6cf088-baf9-4ac4-8490-2a9ac9542050" points="676.69 238.56 676.69 243.42 680.9 245.85 680.9 240.99 676.69 238.56"/><polygon class="af145203-b15a-4db7-b337-737aca656408" points="680.93 245.84 685.14 243.42 685.14 238.56 680.93 240.99 680.93 245.84"/><path class="a23a9ed4-ab66-47da-95fc-aa41aa346721" d="M680.9,241h0Z"/><path class="a23a9ed4-ab66-47da-95fc-aa41aa346721" d="M680.9,241Z"/><line class="af145203-b15a-4db7-b337-737aca656408" x1="676.69" y1="238.54" x2="680.92" y2="240.98"/><line class="af145203-b15a-4db7-b337-737aca656408" x1="685.14" y1="238.54" x2="680.92" y2="240.98"/></g><polygon class="af145203-b15a-4db7-b337-737aca656408" points="566.61 258.95 570.81 256.52 570.81 251.67 562.43 251.75 566.61 258.95"/><polygon class="af6cf088-baf9-4ac4-8490-2a9ac9542050" points="570.79 251.64 566.59 249.21 562.38 251.64 566.59 254.07 570.79 251.64"/><polygon class="af6cf088-baf9-4ac4-8490-2a9ac9542050" points="562.37 251.67 562.37 256.52 566.57 258.95 566.57 254.1 562.37 251.67"/><path class="fd329f65-3a8d-4980-9a02-88a80fbe9b3c" d="M563.66,291.71a.4.4,0,0,1-.4-.36,75.84,75.84,0,0,1-.45-8.27,74.78,74.78,0,0,1,2-17.29.4.4,0,0,1,.48-.29.4.4,0,0,1,.29.48,73.63,73.63,0,0,0-2,17.1,74.51,74.51,0,0,0,.45,8.19.39.39,0,0,1-.35.43Z"/><path class="ec4ba86e-a774-4e27-8a04-a3b0481dafa5" d="M558.66,277.35A78.21,78.21,0,0,1,562.23,259"/><path class="fd329f65-3a8d-4980-9a02-88a80fbe9b3c" d="M573.67,277h0a.39.39,0,0,1-.36-.43,64.13,64.13,0,0,1,1.47-8.62.39.39,0,0,1,.48-.3.41.41,0,0,1,.29.48,64.51,64.51,0,0,0-1.45,8.52A.4.4,0,0,1,573.67,277Z"/><g class="b3a50a9b-bee5-4baf-8252-e5d6a1213c3b"><polygon class="af6cf088-baf9-4ac4-8490-2a9ac9542050" points="577.26 258.27 571.66 255.03 566.06 258.27 571.66 261.5 577.26 258.27"/><polygon class="af6cf088-baf9-4ac4-8490-2a9ac9542050" points="566.03 258.31 566.03 264.78 571.64 268.01 571.64 261.54 566.03 258.31"/><polygon class="af145203-b15a-4db7-b337-737aca656408" points="571.69 268.01 577.28 264.78 577.28 258.31 571.69 261.54 571.69 268.01"/><path class="a23a9ed4-ab66-47da-95fc-aa41aa346721" d="M571.64,261.52h0Z"/><path class="a23a9ed4-ab66-47da-95fc-aa41aa346721" d="M571.64,261.52Z"/><line class="ec4ba86e-a774-4e27-8a04-a3b0481dafa5" x1="566.03" y1="258.28" x2="571.66" y2="261.53"/><line class="ec4ba86e-a774-4e27-8a04-a3b0481dafa5" x1="577.28" y1="258.28" x2="571.66" y2="261.53"/></g><path class="baf5ccc8-bf3d-47fa-b987-32c45b761fbb" d="M621,328.6a12.5,12.5,0,0,1-4.53.65,17.08,17.08,0,0,1-5-.65V323H621Z"/><path class="baf5ccc8-bf3d-47fa-b987-32c45b761fbb" d="M667.22,365.27c0-2.15-18.11-3.88-45.34-3.88s-49.3,1.73-49.3,3.88c0,1.59,12.23,3,29.71,3.56a16.63,16.63,0,0,1,4.27.68c3.09.94,10,1.59,18.08,1.59,8.26,0,15.34-.68,18.31-1.66a16.85,16.85,0,0,1,4.44-.85C661.65,367.91,667.22,366.67,667.22,365.27Z"/><path class="baf5ccc8-bf3d-47fa-b987-32c45b761fbb" d="M631.36,364.18l-.2,0c-6.55-1.68-11.14-4.39-13.65-8.07a9.41,9.41,0,0,1-1.82-5.26V324.78a.79.79,0,0,1,1.58,0v26.1a8,8,0,0,0,1.63,4.42c2.86,4.11,8.46,6.25,12.66,7.32a.79.79,0,0,1-.2,1.56Z"/><path class="baf5ccc8-bf3d-47fa-b987-32c45b761fbb" d="M602.42,364.18a.79.79,0,0,1-.22-1.56c.13,0,13.49-3.94,13.49-11.78a.79.79,0,0,1,.79-.79h0a.79.79,0,0,1,.79.79c0,3.79-2.56,7.3-7.42,10.16a34,34,0,0,1-7.22,3.15A.76.76,0,0,1,602.42,364.18Z"/><path class="af6cf088-baf9-4ac4-8490-2a9ac9542050" d="M675.28,302.92H619.41a.4.4,0,0,1-.4-.4.39.39,0,0,1,.4-.39h55.87a.39.39,0,0,1,.4.39A.4.4,0,0,1,675.28,302.92Z"/><path class="af6cf088-baf9-4ac4-8490-2a9ac9542050" d="M603.23,280s-7.6,1.59-7.6,8.73,1.82,6.27,0,14.86S592,317.55,602,323.21s24.61,3.55,28.91-.22S610.62,280.58,603.23,280Z"/><g class="f15c61d6-c224-4e74-9212-041b98cae95c"><path class="baf5ccc8-bf3d-47fa-b987-32c45b761fbb" d="M606.14,279.41c-3-.43-7.12,3.24-6.69,8s2.16,8.63.43,16.18c-1.53,6.71-1.47,14.57,4.44,16.24s14.8-.64,15.21,6.88c0,0,5.81,4.5,10.34,1.48s5.61-11.65.21-15.32S606.14,279.41,606.14,279.41Z"/></g><path class="fd329f65-3a8d-4980-9a02-88a80fbe9b3c" d="M613.83,274.3s-.21.75-6.52,2.67c-2.73.84-5,2.38-5.24,7.11s-.06,15.71,7.42,19.26c5.38,2.55,11,0,16.42-1.57l4.79,4.81s-.93-5.73-.72-5.77a10.93,10.93,0,0,1,2.32-.15l.09-5.25-2.85.13-.18-2.22,3.75,2.41s6-.31,6.61-.31a1.67,1.67,0,0,1,1.25.38,1.69,1.69,0,0,1,1.93.31s.81-.44,2,.68l2.75,2.31,1.24-2.93-7-3.05s-6.3-6-8.17-8.22-6.53-6.74-9.28-7.61S613.83,274.3,613.83,274.3Z"/><path class="b8e0e88f-d6fb-4664-ba65-4b8ca6775eb8" d="M628,259.55a19.31,19.31,0,0,1,.68,4.83c-.06.69-1.08,1.69-.91,3,0,.35.89,1,.74,1.64s-.78.25-1,.43a3.18,3.18,0,0,0,0,1.42c0,.15-.06.17-.18.38l-.22.38.16.35a.21.21,0,0,1,0,.19,9.25,9.25,0,0,0-.43,2.4c-.33,1.25-.82,1.33-3.15,1.15a17.07,17.07,0,0,0-.76,2.69l2.11,1.78a59,59,0,0,0-3.94,6.28c-.93-1-4.6-5.76-5.46-6s-1.46-4.09-1.46-4.09l-.34-2.1a4.79,4.79,0,0,0,.87-5.69c-1.63-3.5-2-7.51.24-10.35S624.57,252.34,628,259.55Z"/><path class="baf5ccc8-bf3d-47fa-b987-32c45b761fbb" d="M617.54,265.07a5.28,5.28,0,0,1,.54-1.4c.25-.29.14-.76.18-.94.14-.72.84-.53,1.41-1s.29-1.49,1.06-1.63a2.78,2.78,0,0,0,1.49-.72c.26-.27.53-.36,1.15-.17s1.2-.86,1.9-.24,1.46.34,1.94.46.81,1.11,1.22.87,2.06-2,1.26-2.58-.23-1-.83-1.61-.61-1.34-1.29-1.63-1.08.07-1.51,0-.62-.89-1.27-1-1,.34-1.63.29-.51-.53-1.23-.55-.5.48-1.27.48-.94-.24-1.56.12-.82.55-1.13.6a3,3,0,0,0-1.3.14c-.5.27-.45,1.06-1,1.27a4.65,4.65,0,0,0-1.73.84c-.4.46,0,1.16-.56,1.54a2.25,2.25,0,0,0-1.12,1.52c-.24.86.15,1.08,0,1.89a2.49,2.49,0,0,0,.17,2,27.88,27.88,0,0,1,1.08,3c.34,1,1.64,2.87,1.67,3.69l.61-2.06a3.74,3.74,0,0,1-1.15-4C615.4,262.32,617.22,263.67,617.54,265.07Z"/><path class="b9f86705-0d49-40ad-a201-a5155ea820ab" d="M625.59,269.37h0a1.15,1.15,0,0,1-.52-.23.2.2,0,0,1,.28-.28.82.82,0,0,0,.32.12.2.2,0,0,1,0,.4Z"/><path class="baf5ccc8-bf3d-47fa-b987-32c45b761fbb" d="M626.2,263.14l0,0h0l0,0,.06.06a.37.37,0,0,1,0,.2.29.29,0,0,1-.09.2l-.06,0-.06,0-.06,0H626l-.08,0-.15,0-.27-.08-.57-.13a6.2,6.2,0,0,0-1.14-.11,4.12,4.12,0,0,0-2.19.62.13.13,0,0,1-.18,0,.14.14,0,0,1,0-.18,4.11,4.11,0,0,1,1.09-.59,4.75,4.75,0,0,1,1.22-.26,5.8,5.8,0,0,1,1.25,0,6.17,6.17,0,0,1,.62.09l.3.06.15,0h0l-.06,0-.05,0-.06,0a.29.29,0,0,0-.09.19.35.35,0,0,0,0,.2l.05.06,0,0h0a.32.32,0,0,1-.13-.43.32.32,0,0,1,.44-.12Z"/><path class="baf5ccc8-bf3d-47fa-b987-32c45b761fbb" d="M624.26,268.18a8.09,8.09,0,0,1-2.32-.3.18.18,0,0,1-.1-.07,7.13,7.13,0,0,1-.73-3.34l-3.79,0a.19.19,0,0,1-.19-.2.2.2,0,0,1,.19-.19h4c.27,0,3.64-.44,5.17.16a.21.21,0,0,1,.13.17,7.76,7.76,0,0,1-.69,3.57v0a.2.2,0,0,1-.18.1h-.07A11.67,11.67,0,0,1,624.26,268.18Zm-2.14-.66a8.88,8.88,0,0,0,3.48.18,7.6,7.6,0,0,0,.61-3.14,14.53,14.53,0,0,0-4.7-.11A7.21,7.21,0,0,0,622.12,267.52Z"/><path class="baf5ccc8-bf3d-47fa-b987-32c45b761fbb" d="M628.42,268.11a1.33,1.33,0,0,1-.4-.05.21.21,0,0,1-.13-.25.2.2,0,0,1,.25-.13,1.83,1.83,0,0,0,1.05-.13,6,6,0,0,0,.67-2.69,5,5,0,0,0-2.1-.08.2.2,0,0,1-.07-.4,5.31,5.31,0,0,1,2.44.16.21.21,0,0,1,.12.17,6.17,6.17,0,0,1-.75,3.09.14.14,0,0,1-.09.08A2.46,2.46,0,0,1,628.42,268.11Z"/><path class="baf5ccc8-bf3d-47fa-b987-32c45b761fbb" d="M628.05,263.75a1,1,0,0,1,.28,0h.27a1.06,1.06,0,0,1,.52.19.13.13,0,0,1-.11.23h0a.7.7,0,0,0-.38,0l-.19.06-.16.09a.3.3,0,1,1-.37-.47l.11-.05Z"/><path class="af145203-b15a-4db7-b337-737aca656408" d="M613.83,274.09a9.32,9.32,0,0,0,1.37,4.24c1.72,2.81,6,8.2,6,8.2l-.22.22s-2.64-3.78-4.31-4.75a9,9,0,0,0-5.18-1.28l1.29-6.06Z"/><path class="fd329f65-3a8d-4980-9a02-88a80fbe9b3c" d="M603,294.43s-.14,10.07-.56,12.72-1.4,6.36-1.4,6.36L610,303.33S605.14,302.24,603,294.43Z"/><path class="b8e0e88f-d6fb-4664-ba65-4b8ca6775eb8" d="M632.3,295.67s6.69-.33,7.42-.25a3.87,3.87,0,0,1,1.25.38,2.12,2.12,0,0,1,1.93.31,2.47,2.47,0,0,1,2,.68l2.75,2.31-.54,1.13-2-1.1.95,1.67h-5.13a26.75,26.75,0,0,0-5.47-1.57,11.2,11.2,0,0,0-3.15.28Z"/><path class="b9f86705-0d49-40ad-a201-a5155ea820ab" d="M642.87,301a.2.2,0,0,1-.13,0s-2.32-1.89-3.5-3.07a2.92,2.92,0,0,0-2.42-.87.2.2,0,1,1-.07-.39,3.27,3.27,0,0,1,2.77,1c1.16,1.16,3.45,3,3.47,3a.2.2,0,0,1,0,.28A.18.18,0,0,1,642.87,301Z"/><path class="b9f86705-0d49-40ad-a201-a5155ea820ab" d="M643.82,301a.2.2,0,0,1-.16-.07s-1.88-2.22-3-3.64a3.07,3.07,0,0,0-2.32-1.32h0a.2.2,0,0,1-.2-.2.19.19,0,0,1,.19-.2A3.48,3.48,0,0,1,641,297c1.08,1.41,2.94,3.61,3,3.63a.2.2,0,0,1,0,.28A.17.17,0,0,1,643.82,301Z"/><path class="b9f86705-0d49-40ad-a201-a5155ea820ab" d="M644.23,300.84a1.64,1.64,0,0,1-1.23-.71.2.2,0,0,1,.3-.26,1.3,1.3,0,0,0,.94.58.87.87,0,0,0,.54-.23c-.5-.55-2.37-2.59-3.38-3.71a2.56,2.56,0,0,0-2.17-.93,5.27,5.27,0,0,1-.68,0l-1.88.06a.2.2,0,1,1,0-.39l1.88-.06.65,0a2.91,2.91,0,0,1,2.5,1.06c1.17,1.29,3.49,3.81,3.51,3.84l.12.12-.1.13a1.39,1.39,0,0,1-1,.5Z"/><path class="b9f86705-0d49-40ad-a201-a5155ea820ab" d="M646.05,301a.18.18,0,0,1-.16-.08,46.68,46.68,0,0,1-2.64-4A2.08,2.08,0,0,0,641,296a.2.2,0,0,1-.09-.39,2.51,2.51,0,0,1,2.68,1.1c.72,1.36,2.59,3.95,2.61,4a.2.2,0,0,1,0,.28A.27.27,0,0,1,646.05,301Z"/><path class="b9f86705-0d49-40ad-a201-a5155ea820ab" d="M647.63,299.3a.18.18,0,0,1-.12-.05s-2.36-2-3.16-2.68a1.24,1.24,0,0,0-1.36-.28.22.22,0,0,1-.27-.09.2.2,0,0,1,.09-.27,1.67,1.67,0,0,1,1.81.34c.78.69,3.12,2.66,3.14,2.68a.19.19,0,0,1,0,.28A.24.24,0,0,1,647.63,299.3Z"/><path class="b8e0e88f-d6fb-4664-ba65-4b8ca6775eb8" d="M643.53,321.26l-2.24-2.5-4.56,5.38a37.26,37.26,0,0,1,3,2.9C641.65,325.75,642.52,323.3,643.53,321.26Z"/><path class="af6cf088-baf9-4ac4-8490-2a9ac9542050" d="M652.26,328.48a12.57,12.57,0,0,1-5.28-3.37l-3.45-3.85a13.43,13.43,0,0,1-4.26,5.29,5.53,5.53,0,0,1,1.1,1.36s.07,4.76,1.4,5.71a10.27,10.27,0,0,0,5.87,1.4c1.9-.15,5.36,1.76,7.27,2s7.05,0,7.34-3.23S655.72,329.66,652.26,328.48Z"/><path class="af145203-b15a-4db7-b337-737aca656408" d="M638.78,326.06a14,14,0,0,0,4.73-4.82l2.54,2.83s-.92-.9-1,1.43-1.31,2.83-2.19,2.83-1.48-.75-2.5-.42A16.05,16.05,0,0,0,638.78,326.06Z"/><path class="af145203-b15a-4db7-b337-737aca656408" d="M640.84,331.81a9.92,9.92,0,0,0,5.52,1.4c3-.25,3.95.4,4.93,1s6.85,3.24,11-.41c0,0-.34,3.13-5.21,3.29s-6-1.91-8.71-2-4.61-.2-6.56-1.42A2.66,2.66,0,0,1,640.84,331.81Z"/><path class="fd329f65-3a8d-4980-9a02-88a80fbe9b3c" d="M649.17,329.88a.39.39,0,0,1-.2-.06.39.39,0,0,1-.14-.54l1.06-1.88a.39.39,0,0,1,.54-.14.38.38,0,0,1,.15.54l-1.06,1.88A.43.43,0,0,1,649.17,329.88Z"/><path class="fd329f65-3a8d-4980-9a02-88a80fbe9b3c" d="M651.54,330.82a.35.35,0,0,1-.19-.06.39.39,0,0,1-.15-.54l1.07-1.88a.4.4,0,0,1,.69.4l-1.07,1.88A.42.42,0,0,1,651.54,330.82Z"/><path class="b8e0e88f-d6fb-4664-ba65-4b8ca6775eb8" d="M632.93,352.94c.35-1.87.77-3.58.77-3.58l-8.06-1.4a17.81,17.81,0,0,0-.36,4.41C627.21,355.57,627.37,354.92,632.93,352.94Z"/><path class="af6cf088-baf9-4ac4-8490-2a9ac9542050" d="M639.62,362.69c-4-.88-6.84-3.73-7.13-5.47a7.3,7.3,0,0,1,0-1.83c.09-.75-7.29-.67-7.42.38a14.79,14.79,0,0,1-1.18,4.3c-1,2.15-1.45,3.25-.87,5a10,10,0,0,0,5.46,1.28c3.2-.18,3.38.93,7.27,1.57s6.46.52,7-.81S643.67,363.56,639.62,362.69Z"/><path class="af145203-b15a-4db7-b337-737aca656408" d="M625.27,352.24s4.06,1.7,7.72.55a29.89,29.89,0,0,0-.5,4.43s-1.29-1-2.2,1c-.37.82-1.25,1.35-3.17.07a3.76,3.76,0,0,0-2.46-.27S625.26,353.73,625.27,352.24Z"/><path class="af145203-b15a-4db7-b337-737aca656408" d="M622.88,362.91s.39,1.76,4.85,1.65,5.15,1.06,7.44,1.75,6.81,1.4,8-.25c0,0,.67,3.95-9.07,1.49a13.74,13.74,0,0,0-5.54-1.2,10.36,10.36,0,0,1-5.46-1.28A6.17,6.17,0,0,1,622.88,362.91Z"/><path class="fd329f65-3a8d-4980-9a02-88a80fbe9b3c" d="M633.49,362.41a.4.4,0,0,1-.29-.12.41.41,0,0,1,0-.57l1.56-1.5a.4.4,0,0,1,.55.57l-1.56,1.51A.39.39,0,0,1,633.49,362.41Z"/><path class="fd329f65-3a8d-4980-9a02-88a80fbe9b3c" d="M635.84,363.66a.35.35,0,0,1-.28-.13.39.39,0,0,1,0-.56l1.55-1.5a.4.4,0,1,1,.55.57l-1.55,1.5A.39.39,0,0,1,635.84,363.66Z"/><path class="baf5ccc8-bf3d-47fa-b987-32c45b761fbb" d="M627.36,318.76s1.8,2.2-.2,10.86-4.7,14.14-4.64,18.87a12.48,12.48,0,0,0,5.18,2.19,13.65,13.65,0,0,0,7.39,0,89.81,89.81,0,0,1,2-12.28A81.73,81.73,0,0,0,639,326.18s-1.48-2.08-2.24-2a21.15,21.15,0,0,0-2.42,2.76Z"/><path class="af6cf088-baf9-4ac4-8490-2a9ac9542050" d="M612,297.08h-2a.4.4,0,1,1,0-.8,158.69,158.69,0,0,0,19.44-.91.4.4,0,0,1,.44.35.39.39,0,0,1-.34.44A159.84,159.84,0,0,1,612,297.08Z"/><path class="af6cf088-baf9-4ac4-8490-2a9ac9542050" d="M611.59,297a.4.4,0,0,1-.39-.34s-.39-2.61-.77-5.23c-.19-1.31-.38-2.62-.52-3.61-.26-1.9-.26-1.9,0-2a.41.41,0,0,1,.44,0,.41.41,0,0,1,.16.33c0,.5.91,6.47,1.5,10.42a.4.4,0,0,1-.34.45Z"/><path class="ae36f7a1-c039-4c74-a0ad-7284991f93cb" d="M628.62,285.27s1.29,4.66,3,6.81c2.68,3.33,5.09,3.4,5.09,3.4l-3.61.16-.82,0v-.46l-2.94-1.89A69.51,69.51,0,0,1,628.62,285.27Z"/><path class="baf5ccc8-bf3d-47fa-b987-32c45b761fbb" d="M639,321.24s-1.47,4.52,4.81,6.82c-.79,5.54,2,6.83,2,6.83s-2.82-.27-4-1.27c-1.56-1.3-1.4-5.71-1.4-5.71a20.1,20.1,0,0,0-3.64-3.77Z"/><polygon class="baf5ccc8-bf3d-47fa-b987-32c45b761fbb" points="631.36 300.64 632.3 302.31 665.59 302.31 673.28 284.17 653.47 284.17 646.75 300.8 631.36 300.64"/><path class="b9f86705-0d49-40ad-a201-a5155ea820ab" d="M617.22,269.08h0a4.23,4.23,0,0,1-2.81-2.66,2.58,2.58,0,0,1,.21-2.52,1.44,1.44,0,0,1,1.34-.65c.69.08,1.33.7,1.79,1.75a.2.2,0,0,1-.1.26.2.2,0,0,1-.27-.1c-.4-.92-.92-1.46-1.46-1.52a1.1,1.1,0,0,0-1,.5,2.2,2.2,0,0,0-.16,2.12,3.87,3.87,0,0,0,2.52,2.43.21.21,0,0,1,.16.24A.2.2,0,0,1,617.22,269.08Z"/><path class="baf5ccc8-bf3d-47fa-b987-32c45b761fbb" d="M622.24,265.61a.19.19,0,0,1-.19-.14.21.21,0,0,1,.13-.25,7.62,7.62,0,0,1,3.27-.07.2.2,0,0,1-.07.39,7.31,7.31,0,0,0-3.08.06Z"/><path class="baf5ccc8-bf3d-47fa-b987-32c45b761fbb" d="M627.59,265l.29,0,.27,0,.54.13a.33.33,0,0,1,.22.42.34.34,0,0,1-.37.24h0l-.47-.05h-.44a.4.4,0,0,1-.45-.35.41.41,0,0,1,.35-.44h.07Z"/><path class="baf5ccc8-bf3d-47fa-b987-32c45b761fbb" d="M624.83,265.45a.56.56,0,1,1-1.12,0,.53.53,0,0,1,.16-.38,1,1,0,0,1,.87.08A.51.51,0,0,1,624.83,265.45Z"/><circle class="baf5ccc8-bf3d-47fa-b987-32c45b761fbb" cx="627.97" cy="265.89" r="0.51"/><path class="b9f86705-0d49-40ad-a201-a5155ea820ab" d="M617.81,273a15.47,15.47,0,0,0,5.87,2.74,8.76,8.76,0,0,0-.48,1.56c-.06.39-.45,3.21-.45,3.21a5.5,5.5,0,0,0-1.28-3.89C619.34,274.52,617.81,273,617.81,273Z"/><path class="baf5ccc8-bf3d-47fa-b987-32c45b761fbb" d="M614.52,319.36S624.8,318.24,628,321l-.21-1.11-6.55-7.1Z"/><path class="baf5ccc8-bf3d-47fa-b987-32c45b761fbb" d="M600.84,312.4a2.85,2.85,0,0,1,.84-1.5c1.34-1.29,4.83-5,9.24-9.26,5.68-5.47,8.11-7.27,10.34-5.09s13.31,14.92,21.61,20.37c0,0,.06,1.6-2.42,4.72a25.21,25.21,0,0,1-6.14,5.26l-13-14.13-6.74,6.59s-5.62.25-7.76.66C603.94,320.55,599.6,318.17,600.84,312.4Z"/><path class="baf5ccc8-bf3d-47fa-b987-32c45b761fbb" d="M627.9,264.72a3.92,3.92,0,0,0-.15.59,4.07,4.07,0,0,0,0,.61,4.42,4.42,0,0,0,0,.63c0,.11,0,.21,0,.32a.4.4,0,0,1-.06.35.34.34,0,0,1-.23-.29c0-.11-.06-.22-.08-.33a4.92,4.92,0,0,1-.1-.67,3.2,3.2,0,0,1,0-.69,2.25,2.25,0,0,1,.2-.67.2.2,0,0,1,.27-.1.2.2,0,0,1,.1.24Z"/><path class="b9f86705-0d49-40ad-a201-a5155ea820ab" d="M627.16,269.66a3,3,0,0,1-1.24-.2.2.2,0,0,1-.08-.26.19.19,0,0,1,.26-.09,3.52,3.52,0,0,0,1.67.12c.19,0,.44-.07.51-.19s-.24-.85-.58-1.45a3.47,3.47,0,0,1-.57-2.8.19.19,0,0,1,.25-.11.2.2,0,0,1,.12.25,3.2,3.2,0,0,0,.55,2.47c.46.81.8,1.39.58,1.82-.12.23-.39.36-.82.41Z"/><path class="b9f86705-0d49-40ad-a201-a5155ea820ab" d="M626.77,271.85a6,6,0,0,1-2.2-.49.2.2,0,1,1,.15-.37,4.79,4.79,0,0,0,2.36.44.2.2,0,0,1,.23.16.2.2,0,0,1-.16.23A1.45,1.45,0,0,1,626.77,271.85Z"/><path class="af145203-b15a-4db7-b337-737aca656408" d="M623.51,276.18s1.27,1.47,1.9,2.26,2.08,2.27,2.08,2.27a7,7,0,0,0-3.91,2.05,8,8,0,0,0-2.34,4H621s1.62-6.23,1.81-8.13A8.11,8.11,0,0,1,623.51,276.18Z"/><path class="ae36f7a1-c039-4c74-a0ad-7284991f93cb" d="M603,294.43s.79,4.26,3.42,6.54,3.31,2.37,3.31,2.37l-3.47,3.16s-2.77-.8-3.65-8.78C602.48,296.74,603,295.65,603,294.43Z"/><path class="baf5ccc8-bf3d-47fa-b987-32c45b761fbb" d="M627.63,265.24c-.71-.37-1.08,0-1.1,0l-.27-.28a1.3,1.3,0,0,1,1.56,0Z"/><path class="ec4ba86e-a774-4e27-8a04-a3b0481dafa5" d="M618.45,287.39h-5.39l.55,4.16a2.68,2.68,0,0,0,2.65,2.32h0a2.67,2.67,0,0,0,2.65-3Z"/><path class="af145203-b15a-4db7-b337-737aca656408" d="M682.8,232.18a.37.37,0,0,1-.26-.1,68,68,0,0,0-39.11-16.91,68.94,68.94,0,0,0-16.31.44.4.4,0,0,1-.45-.34.4.4,0,0,1,.33-.45,70.1,70.1,0,0,1,16.51-.44,68.74,68.74,0,0,1,39.55,17.11.39.39,0,0,1-.26.69Z"/><path class="af145203-b15a-4db7-b337-737aca656408" d="M569.77,298.12a.4.4,0,0,1-.39-.31,69.07,69.07,0,0,1-1.21-20.8,70,70,0,0,1,1-7.09.4.4,0,0,1,.78.15,68.91,68.91,0,0,0,.19,27.57.4.4,0,0,1-.31.47Z"/><path class="af145203-b15a-4db7-b337-737aca656408" d="M647.44,351.88a.4.4,0,0,1-.39-.34.4.4,0,0,1,.33-.45,68.65,68.65,0,0,0,46.47-29.31.39.39,0,0,1,.55-.1.4.4,0,0,1,.11.55,69.5,69.5,0,0,1-47,29.65Z"/></svg>