<svg id="e8f9c763-29ff-4997-b7b4-4622b2141d94" data-name="Layer 1" xmlns="http://www.w3.org/2000/svg" viewBox="0 0 262 180"><defs><style>.b1592c70-ccfd-404f-a865-5cdaab893e71{fill:red;}.b97a81b3-0d2a-4d3d-bf5d-991f8cef51bc{fill:#f7823c;}.ae2a3829-7a79-4452-9363-a7c83e28e4cc{fill:#fff;}.fda0d752-9a40-4505-84bc-917c44bb8974{fill:#316dc1;}.ab009103-ed0c-4b2c-b0fc-bd400bdca4cf{fill:#1d4174;}</style></defs><path class="b1592c70-ccfd-404f-a865-5cdaab893e71" d="M103.14,103.17a39.35,39.35,0,0,1-9.24-1.1A39.09,39.09,0,0,1,65,55.48a.4.4,0,0,1,.49-.3.4.4,0,0,1,.31.48A38.26,38.26,0,0,0,123,96.73a.41.41,0,0,1,.56.13.42.42,0,0,1-.14.56A38.79,38.79,0,0,1,103.14,103.17Z"/><path class="b1592c70-ccfd-404f-a865-5cdaab893e71" d="M69.75,44.87a.39.39,0,0,1-.21-.06.41.41,0,0,1-.15-.56,39.08,39.08,0,0,1,67-.54.41.41,0,0,1-.13.56.4.4,0,0,1-.56-.13,38.26,38.26,0,0,0-65.61.53A.43.43,0,0,1,69.75,44.87Z"/><circle class="b1592c70-ccfd-404f-a865-5cdaab893e71" cx="69.68" cy="44.61" r="1.17"/><circle class="b1592c70-ccfd-404f-a865-5cdaab893e71" cx="65.5" cy="55.33" r="1.17"/><path class="b1592c70-ccfd-404f-a865-5cdaab893e71" d="M155.05,155a38.81,38.81,0,0,1-27.63-11.44A.41.41,0,1,1,128,143a38.26,38.26,0,1,0,0-54.1.41.41,0,0,1-.58-.58A39.07,39.07,0,1,1,155.05,155Z"/><path class="b97a81b3-0d2a-4d3d-bf5d-991f8cef51bc" d="M152.93,29.85C173,34.07,172.38,50,181.88,55.71c7.61,4.55,16.76,14.61,16.76,23.14,0,18.38-17,26.29-20,36.54-2.49,8.56-3.12,16.61-9.8,23.56-5.56,5.78-14,9.28-22.17,8.16-11.89-1.62-18.55-10-30.94-11.09-5-.42-12.78-.65-17.58-2-5.84-1.59-12-3.37-17.38-6.29-11.19-6.06-20.19-19.64-18-33.5,2.11-13.61,13.33-23.68,24.56-28.9,4.29-2,8.83-3.65,12.64-6.39,4.34-3.11,7.49-7.43,11.24-11.17C123.24,35.75,137.31,26.56,152.93,29.85Z"/><path class="ae2a3829-7a79-4452-9363-a7c83e28e4cc" d="M103.14,103.19a39.3,39.3,0,0,1-9.24-1.11A38.85,38.85,0,0,1,69.71,84.47c-.66-1.08-1.28-2.21-1.83-3.35a.43.43,0,1,1,.77-.37c.54,1.11,1.14,2.22,1.79,3.28A38.23,38.23,0,0,0,123,96.71a.42.42,0,0,1,.58.14.43.43,0,0,1-.14.59A38.85,38.85,0,0,1,103.14,103.19Z"/><path class="ae2a3829-7a79-4452-9363-a7c83e28e4cc" d="M189.87,99.53a.44.44,0,0,1-.39-.24A38.24,38.24,0,0,0,128,88.89a.42.42,0,0,1-.6-.6,39.12,39.12,0,0,1,62.84,10.63.43.43,0,0,1-.2.57A.58.58,0,0,1,189.87,99.53Z"/><rect class="ae2a3829-7a79-4452-9363-a7c83e28e4cc" x="154.6" y="112.8" width="40.58" height="37.15"/><circle class="fda0d752-9a40-4505-84bc-917c44bb8974" cx="185.57" cy="116.7" r="1.29"/><circle class="fda0d752-9a40-4505-84bc-917c44bb8974" cx="190.58" cy="116.7" r="1.29"/><path class="fda0d752-9a40-4505-84bc-917c44bb8974" d="M189.94,123.45H160a.31.31,0,0,1,0-.61h29.9a.31.31,0,1,1,0,.61Z"/><path class="ae2a3829-7a79-4452-9363-a7c83e28e4cc" d="M126.58,53.84a9.68,9.68,0,0,1,3.41.62,13.84,13.84,0,0,1,11.52-7.28,20.9,20.9,0,0,1,38.34-2.76,15.81,15.81,0,1,1,4.58,31h-57c-7.37,0-10.54-6.48-10.54-11.84A9.69,9.69,0,0,1,126.58,53.84Z"/><path class="b97a81b3-0d2a-4d3d-bf5d-991f8cef51bc" d="M184.43,75.64h-57a9.91,9.91,0,0,1-8.25-4,13.7,13.7,0,0,1-2.56-8.09,10,10,0,0,1,10-10,10.13,10.13,0,0,1,3.28.55,14.2,14.2,0,0,1,11.46-7.2A21.16,21.16,0,0,1,180,44.1a15.83,15.83,0,0,1,4.44-.63,16.09,16.09,0,0,1,0,32.17ZM126.58,54.11a9.43,9.43,0,0,0-9.42,9.42,13.15,13.15,0,0,0,2.45,7.76,9.36,9.36,0,0,0,7.81,3.8h57a15.54,15.54,0,1,0-4.5-30.41l-.22.07-.1-.21a20.63,20.63,0,0,0-37.84,2.73l-.06.17h-.18a13.65,13.65,0,0,0-11.3,7.14l-.12.21-.22-.09A9.55,9.55,0,0,0,126.58,54.11Z"/><rect class="ab009103-ed0c-4b2c-b0fc-bd400bdca4cf" x="90.65" y="52.08" width="71.76" height="68.42"/><rect class="ae2a3829-7a79-4452-9363-a7c83e28e4cc" x="77.53" y="32.49" width="38.59" height="35.33"/><circle class="fda0d752-9a40-4505-84bc-917c44bb8974" cx="106.98" cy="36.19" r="1.23"/><circle class="fda0d752-9a40-4505-84bc-917c44bb8974" cx="111.75" cy="36.19" r="1.23"/><path class="fda0d752-9a40-4505-84bc-917c44bb8974" d="M111.14,42.64H82.7a.32.32,0,0,1,0-.63h28.44a.32.32,0,0,1,0,.63Z"/><polygon class="b97a81b3-0d2a-4d3d-bf5d-991f8cef51bc" points="90.66 68.09 77.26 68.09 77.26 32.49 77.81 32.49 77.81 67.55 90.66 67.55 90.66 68.09"/><rect class="fda0d752-9a40-4505-84bc-917c44bb8974" x="90.65" y="55.95" width="15.37" height="11.87"/><rect class="b97a81b3-0d2a-4d3d-bf5d-991f8cef51bc" x="90.65" y="67.52" width="6.83" height="0.54"/><path d="M108.67,63.92a.31.31,0,0,1-.31-.31V56.77a.32.32,0,0,1,.63,0v6.84A.31.31,0,0,1,108.67,63.92Z"/><path class="fda0d752-9a40-4505-84bc-917c44bb8974" d="M95,63.92a.31.31,0,0,1-.31-.31V56.77a.31.31,0,0,1,.62,0v6.84A.31.31,0,0,1,95,63.92Z"/><path d="M101.84,63.92a3.73,3.73,0,1,1,3.73-3.73A3.74,3.74,0,0,1,101.84,63.92Zm0-6.84a3.11,3.11,0,1,0,3.1,3.11A3.11,3.11,0,0,0,101.84,57.08Z"/><path class="fda0d752-9a40-4505-84bc-917c44bb8974" d="M88.16,63.92a3.73,3.73,0,1,1,3.73-3.73A3.73,3.73,0,0,1,88.16,63.92Zm0-6.84a3.11,3.11,0,1,0,3.11,3.11A3.11,3.11,0,0,0,88.16,57.08Z"/><path class="fda0d752-9a40-4505-84bc-917c44bb8974" d="M108.67,53.66a.31.31,0,0,1-.31-.31V46.51a.32.32,0,0,1,.63,0v6.84A.31.31,0,0,1,108.67,53.66Z"/><path class="fda0d752-9a40-4505-84bc-917c44bb8974" d="M104.11,53.66a.31.31,0,0,1-.31-.31V46.51a.32.32,0,0,1,.63,0v6.84A.31.31,0,0,1,104.11,53.66Z"/><path class="fda0d752-9a40-4505-84bc-917c44bb8974" d="M90.44,53.66a.31.31,0,0,1-.31-.31V46.51a.31.31,0,1,1,.62,0v6.84A.31.31,0,0,1,90.44,53.66Z"/><path class="fda0d752-9a40-4505-84bc-917c44bb8974" d="M85.88,53.66a.31.31,0,0,1-.31-.31V46.51a.32.32,0,0,1,.63,0v6.84A.31.31,0,0,1,85.88,53.66Z"/><path class="fda0d752-9a40-4505-84bc-917c44bb8974" d="M97.28,53.66A3.73,3.73,0,1,1,101,49.93,3.73,3.73,0,0,1,97.28,53.66Zm0-6.83a3.11,3.11,0,1,0,3.1,3.1A3.11,3.11,0,0,0,97.28,46.83Z"/><rect class="fda0d752-9a40-4505-84bc-917c44bb8974" x="154.57" y="110.29" width="11.28" height="10.22"/><rect class="b97a81b3-0d2a-4d3d-bf5d-991f8cef51bc" x="154.33" y="110.29" width="0.54" height="10.22"/><rect class="ae2a3829-7a79-4452-9363-a7c83e28e4cc" x="97.57" y="48.86" width="71.76" height="65.7"/><rect class="b1592c70-ccfd-404f-a865-5cdaab893e71" x="97.57" y="48.86" width="71.76" height="13.94"/><circle class="ae2a3829-7a79-4452-9363-a7c83e28e4cc" cx="152.34" cy="55.74" r="2.29"/><circle class="ae2a3829-7a79-4452-9363-a7c83e28e4cc" cx="161.2" cy="55.74" r="2.29"/><rect class="b97a81b3-0d2a-4d3d-bf5d-991f8cef51bc" x="136.81" y="83.81" width="29.11" height="26.29"/><rect class="b97a81b3-0d2a-4d3d-bf5d-991f8cef51bc" x="102.39" y="67.23" width="31.07" height="42.59"/><rect class="b97a81b3-0d2a-4d3d-bf5d-991f8cef51bc" x="136.81" y="67.23" width="29.11" height="12.94"/><polygon class="b1592c70-ccfd-404f-a865-5cdaab893e71" points="169.34 114.83 97.3 114.83 97.3 48.58 169.34 48.58 169.34 49.13 97.84 49.13 97.84 114.28 169.34 114.28 169.34 114.83"/><path class="ae2a3829-7a79-4452-9363-a7c83e28e4cc" d="M137.32,114a9.83,9.83,0,0,0-3.49.63A14.24,14.24,0,0,0,122,107.14a21.44,21.44,0,0,0-39.33-2.83A16.22,16.22,0,1,0,78,136.06h58.48c7.56,0,10.8-6.65,10.8-12.14A9.94,9.94,0,0,0,137.32,114Z"/><path class="b97a81b3-0d2a-4d3d-bf5d-991f8cef51bc" d="M136.46,136.33H78a16.49,16.49,0,1,1,0-33,16.31,16.31,0,0,1,4.56.64,21.7,21.7,0,0,1,39.66,2.89A14.6,14.6,0,0,1,134,114.27a10.41,10.41,0,0,1,3.37-.57,10.24,10.24,0,0,1,10.22,10.22,14.06,14.06,0,0,1-2.63,8.29A10.15,10.15,0,0,1,136.46,136.33ZM78,103.89a15.95,15.95,0,1,0,0,31.89h58.48a9.64,9.64,0,0,0,8-3.9,13.49,13.49,0,0,0,2.51-8,9.68,9.68,0,0,0-9.67-9.67,9.83,9.83,0,0,0-3.4.61l-.22.09-.11-.21a14.06,14.06,0,0,0-11.6-7.33h-.19l-.06-.17a21.16,21.16,0,0,0-38.82-2.79l-.11.2-.22-.07A15.93,15.93,0,0,0,78,103.89Z"/><circle class="ae2a3829-7a79-4452-9363-a7c83e28e4cc" cx="136.14" cy="43.94" r="1.17"/><circle class="b1592c70-ccfd-404f-a865-5cdaab893e71" cx="127.43" cy="143.11" r="1.17"/><polygon class="b97a81b3-0d2a-4d3d-bf5d-991f8cef51bc" points="195.18 150.23 154.33 150.23 154.33 120.51 154.88 120.51 154.88 149.68 195.18 149.68 195.18 150.23"/></svg>