<svg id="e034ddb5-1cba-4557-aebc-93ef30c9e97b" data-name="Layer 1" xmlns="http://www.w3.org/2000/svg" xmlns:xlink="http://www.w3.org/1999/xlink" viewBox="0 0 555 318"><defs><style>.b34ec7d2-a401-4206-b600-19ed88afb1f2{fill:none;}.e06d5ca4-cb08-4ef6-b60d-8c447f7c3386{fill:#fddbdb;}.f4759c41-1cd2-4692-9e45-0507c982810a{fill:#e00;}.bf8dc7a9-eee9-49d7-87a6-c75fed11960a{fill:#fff;}.f4157b9f-e82e-49e6-b44e-33ccbb73a624{fill:#fab6b6;}.b3ae777a-2d6a-44c1-9b36-002ecec7eef0{fill:#251a4d;}.a291e136-c56d-4922-8a83-e73e91868dfd{clip-path:url(#a200492a-684f-40d7-9c25-c620978ffa01);}.f31e5125-7862-4928-b59e-b404947194d2{fill:#f56d6d;}.a7eece2a-ee06-4a87-be9b-b339f99914be{fill:#be0000;}.f8bdeb23-0cf8-458e-a1a3-2ff8890982ff{fill:#8f0000;}</style><clipPath id="a200492a-684f-40d7-9c25-c620978ffa01"><circle class="b34ec7d2-a401-4206-b600-19ed88afb1f2" cx="178.52" cy="212.65" r="79.13"/></clipPath></defs><path class="e06d5ca4-cb08-4ef6-b60d-8c447f7c3386" d="M496.48,256H356.74l4.28,12.3s21.21,25.38,62.37,25.38S490.35,266.36,496.48,256Z"/><path class="f4759c41-1cd2-4692-9e45-0507c982810a" d="M117.83,80.25a17.3,17.3,0,0,1,6.08,1.1,24.75,24.75,0,0,1,20.56-13,37.27,37.27,0,0,1,68.38-4.92,28.2,28.2,0,1,1,8.17,55.2H119.33c-13.14,0-18.79-11.56-18.79-21.1A17.29,17.29,0,0,1,117.83,80.25Z"/><circle class="e06d5ca4-cb08-4ef6-b60d-8c447f7c3386" cx="286.79" cy="171.38" r="120.61"/><path class="e06d5ca4-cb08-4ef6-b60d-8c447f7c3386" d="M286.79,292.3a120.91,120.91,0,1,1,85.5-35.42A120.1,120.1,0,0,1,286.79,292.3Zm0-241.22a120.32,120.32,0,1,0,85.06,35.24A119.52,119.52,0,0,0,286.79,51.08Z"/><circle class="e06d5ca4-cb08-4ef6-b60d-8c447f7c3386" cx="88.01" cy="227.21" r="56.01"/><path class="f4759c41-1cd2-4692-9e45-0507c982810a" d="M47,213.43l-.6-.15a47.5,47.5,0,0,1,7.42-14.92A40.57,40.57,0,0,1,84,181.6l0,.61a40,40,0,0,0-29.79,16.51A46.69,46.69,0,0,0,47,213.43Z"/><path class="e06d5ca4-cb08-4ef6-b60d-8c447f7c3386" d="M302.45,290.27V93.37H212.13V264.71l-.5-.4A120.07,120.07,0,0,1,167,170.71c0-22.87,8.25-49.63,21.54-69.84a.31.31,0,0,1,.51.34c-13.22,20.12-21.44,46.75-21.44,69.5a119.45,119.45,0,0,0,43.89,92.71V92.75h91.55V289.57A119.87,119.87,0,1,0,224.38,68.79a.32.32,0,0,1-.43-.1.31.31,0,0,1,.1-.42,120.49,120.49,0,1,1,78.74,222Z"/><path class="bf8dc7a9-eee9-49d7-87a6-c75fed11960a" d="M303.47,291.31V103.81H212.54l-.72,160.26S240.9,298.47,303.47,291.31Z"/><path class="f4759c41-1cd2-4692-9e45-0507c982810a" d="M315,289a.31.31,0,0,1-.31-.31v-4.1a.31.31,0,0,1,.31-.31.3.3,0,0,1,.3.31v4.1A.3.3,0,0,1,315,289Zm0-8.2a.31.31,0,0,1-.31-.31v-4.1a.31.31,0,0,1,.31-.31.3.3,0,0,1,.3.31v4.1A.3.3,0,0,1,315,280.78Zm0-8.2a.31.31,0,0,1-.31-.31v-4.1a.31.31,0,0,1,.31-.31.3.3,0,0,1,.3.31v4.1A.3.3,0,0,1,315,272.58Zm-110.22-3a.31.31,0,0,1-.31-.31v-4.1a.3.3,0,0,1,.31-.3.29.29,0,0,1,.3.3v4.1A.3.3,0,0,1,204.78,269.6ZM315,264.38a.31.31,0,0,1-.31-.31V260a.31.31,0,0,1,.31-.31.3.3,0,0,1,.3.31v4.1A.3.3,0,0,1,315,264.38Zm-110.22-3a.31.31,0,0,1-.31-.31V257a.31.31,0,0,1,.31-.31.3.3,0,0,1,.3.31v4.1A.3.3,0,0,1,204.78,261.4ZM315,256.18a.31.31,0,0,1-.31-.31v-4.1a.31.31,0,0,1,.31-.31.3.3,0,0,1,.3.31v4.1A.3.3,0,0,1,315,256.18Zm-110.22-3a.31.31,0,0,1-.31-.31v-4.1a.31.31,0,0,1,.31-.31.3.3,0,0,1,.3.31v4.1A.3.3,0,0,1,204.78,253.2ZM315,248a.3.3,0,0,1-.31-.3v-4.1a.31.31,0,0,1,.31-.31.3.3,0,0,1,.3.31v4.1A.29.29,0,0,1,315,248Zm-110.22-3a.31.31,0,0,1-.31-.31v-4.1a.31.31,0,0,1,.31-.31.3.3,0,0,1,.3.31v4.1A.3.3,0,0,1,204.78,245ZM315,239.77a.3.3,0,0,1-.31-.3v-4.11a.3.3,0,0,1,.31-.3.29.29,0,0,1,.3.3v4.11A.29.29,0,0,1,315,239.77Zm-110.22-3a.31.31,0,0,1-.31-.31v-4.1a.31.31,0,0,1,.31-.31.3.3,0,0,1,.3.31v4.1A.3.3,0,0,1,204.78,236.8ZM315,231.57a.31.31,0,0,1-.31-.31v-4.1a.3.3,0,0,1,.31-.3.29.29,0,0,1,.3.3v4.1A.3.3,0,0,1,315,231.57Zm-110.22-3a.3.3,0,0,1-.31-.3v-4.1a.31.31,0,0,1,.31-.31.3.3,0,0,1,.3.31v4.1A.29.29,0,0,1,204.78,228.59ZM315,223.37a.31.31,0,0,1-.31-.31V219a.31.31,0,0,1,.31-.31.3.3,0,0,1,.3.31v4.1A.3.3,0,0,1,315,223.37Zm-110.22-3a.3.3,0,0,1-.31-.3V216a.31.31,0,0,1,.31-.31.3.3,0,0,1,.3.31v4.1A.29.29,0,0,1,204.78,220.39ZM315,215.17a.31.31,0,0,1-.31-.31v-4.1a.31.31,0,0,1,.31-.31.3.3,0,0,1,.3.31v4.1A.3.3,0,0,1,315,215.17Zm-110.22-3a.31.31,0,0,1-.31-.31v-4.1a.3.3,0,0,1,.31-.3.29.29,0,0,1,.3.3v4.1A.3.3,0,0,1,204.78,212.19ZM315,207a.31.31,0,0,1-.31-.31v-4.1a.31.31,0,0,1,.31-.31.3.3,0,0,1,.3.31v4.1A.3.3,0,0,1,315,207Zm-110.22-3a.31.31,0,0,1-.31-.31v-4.1a.3.3,0,0,1,.31-.3.29.29,0,0,1,.3.3v4.1A.3.3,0,0,1,204.78,204ZM315,198.77a.31.31,0,0,1-.31-.31v-4.1a.31.31,0,0,1,.31-.31.3.3,0,0,1,.3.31v4.1A.3.3,0,0,1,315,198.77Zm-110.22-3a.31.31,0,0,1-.31-.31v-4.1a.31.31,0,0,1,.31-.31.3.3,0,0,1,.3.31v4.1A.3.3,0,0,1,204.78,195.79ZM315,190.57a.31.31,0,0,1-.31-.31v-4.1a.31.31,0,0,1,.31-.31.3.3,0,0,1,.3.31v4.1A.3.3,0,0,1,315,190.57Zm-110.22-3a.31.31,0,0,1-.31-.31v-4.1a.31.31,0,0,1,.31-.31.3.3,0,0,1,.3.31v4.1A.3.3,0,0,1,204.78,187.59ZM315,182.36a.3.3,0,0,1-.31-.3V178a.31.31,0,0,1,.31-.31.3.3,0,0,1,.3.31v4.1A.29.29,0,0,1,315,182.36Zm-110.22-3a.31.31,0,0,1-.31-.31V175a.31.31,0,0,1,.31-.31.3.3,0,0,1,.3.31v4.1A.3.3,0,0,1,204.78,179.39ZM315,174.16a.3.3,0,0,1-.31-.3v-4.11a.3.3,0,0,1,.31-.3.29.29,0,0,1,.3.3v4.11A.29.29,0,0,1,315,174.16Zm-110.22-3a.31.31,0,0,1-.31-.31v-4.1a.31.31,0,0,1,.31-.31.3.3,0,0,1,.3.31v4.1A.3.3,0,0,1,204.78,171.19ZM315,166a.31.31,0,0,1-.31-.31v-4.1a.3.3,0,0,1,.31-.3.29.29,0,0,1,.3.3v4.1A.3.3,0,0,1,315,166Zm-110.22-3a.3.3,0,0,1-.31-.3v-4.1a.31.31,0,0,1,.31-.31.3.3,0,0,1,.3.31v4.1A.29.29,0,0,1,204.78,163ZM315,157.76a.31.31,0,0,1-.31-.31v-4.1A.31.31,0,0,1,315,153a.3.3,0,0,1,.3.31v4.1A.3.3,0,0,1,315,157.76Zm-110.22-3a.3.3,0,0,1-.31-.3v-4.1a.31.31,0,0,1,.31-.31.3.3,0,0,1,.3.31v4.1A.29.29,0,0,1,204.78,154.78ZM315,149.56a.31.31,0,0,1-.31-.31v-4.1a.31.31,0,0,1,.31-.31.3.3,0,0,1,.3.31v4.1A.3.3,0,0,1,315,149.56Zm-110.22-3a.31.31,0,0,1-.31-.31v-4.1a.3.3,0,0,1,.31-.3.29.29,0,0,1,.3.3v4.1A.3.3,0,0,1,204.78,146.58ZM315,141.36a.31.31,0,0,1-.31-.31V137a.31.31,0,0,1,.31-.31.3.3,0,0,1,.3.31v4.1A.3.3,0,0,1,315,141.36Zm-110.22-3a.31.31,0,0,1-.31-.31V134a.3.3,0,0,1,.31-.3.29.29,0,0,1,.3.3v4.1A.3.3,0,0,1,204.78,138.38ZM315,133.16a.31.31,0,0,1-.31-.31v-4.1a.31.31,0,0,1,.31-.31.3.3,0,0,1,.3.31v4.1A.3.3,0,0,1,315,133.16Zm-110.22-3a.31.31,0,0,1-.31-.31v-4.1a.31.31,0,0,1,.31-.31.3.3,0,0,1,.3.31v4.1A.3.3,0,0,1,204.78,130.18ZM315,125a.31.31,0,0,1-.31-.31v-4.1a.31.31,0,0,1,.31-.31.3.3,0,0,1,.3.31v4.1A.3.3,0,0,1,315,125Zm-110.22-3a.31.31,0,0,1-.31-.31v-4.1a.31.31,0,0,1,.31-.31.3.3,0,0,1,.3.31v4.1A.3.3,0,0,1,204.78,122ZM315,116.75a.3.3,0,0,1-.31-.3v-4.1A.31.31,0,0,1,315,112a.3.3,0,0,1,.3.31v4.1A.29.29,0,0,1,315,116.75Zm-110.22-3a.31.31,0,0,1-.31-.31v-4.1a.31.31,0,0,1,.31-.31.3.3,0,0,1,.3.31v4.1A.3.3,0,0,1,204.78,113.78ZM315,108.55a.3.3,0,0,1-.31-.3v-4.11a.3.3,0,0,1,.31-.3.29.29,0,0,1,.3.3v4.11A.29.29,0,0,1,315,108.55Zm-110.22-3a.31.31,0,0,1-.31-.31v-4.1a.31.31,0,0,1,.31-.31.3.3,0,0,1,.3.31v4.1A.3.3,0,0,1,204.78,105.58ZM315,100.35a.31.31,0,0,1-.31-.31v-4.1a.3.3,0,0,1,.31-.3.29.29,0,0,1,.3.3V100A.3.3,0,0,1,315,100.35Zm-110.22-3a.3.3,0,0,1-.31-.3V93.9H206a.3.3,0,0,1,.3.31.29.29,0,0,1-.3.3h-.94v2.56A.29.29,0,0,1,204.78,97.37Zm107.85-2.86h-4.1a.29.29,0,0,1-.3-.3.3.3,0,0,1,.3-.31h4.1a.31.31,0,0,1,.31.31A.3.3,0,0,1,312.63,94.51Zm-8.2,0h-4.1a.3.3,0,0,1-.31-.3.31.31,0,0,1,.31-.31h4.1a.31.31,0,0,1,.31.31A.3.3,0,0,1,304.43,94.51Zm-8.2,0h-4.1a.3.3,0,0,1-.31-.3.31.31,0,0,1,.31-.31h4.1a.31.31,0,0,1,.31.31A.3.3,0,0,1,296.23,94.51Zm-8.2,0h-4.1a.3.3,0,0,1-.31-.3.31.31,0,0,1,.31-.31H288a.31.31,0,0,1,.31.31A.3.3,0,0,1,288,94.51Zm-8.2,0h-4.1a.3.3,0,0,1-.31-.3.31.31,0,0,1,.31-.31h4.1a.31.31,0,0,1,.31.31A.3.3,0,0,1,279.83,94.51Zm-8.2,0h-4.1a.3.3,0,0,1-.31-.3.31.31,0,0,1,.31-.31h4.1a.3.3,0,0,1,.3.31A.29.29,0,0,1,271.63,94.51Zm-8.2,0h-4.1a.3.3,0,0,1-.31-.3.31.31,0,0,1,.31-.31h4.1a.3.3,0,0,1,.3.31A.29.29,0,0,1,263.43,94.51Zm-8.21,0h-4.1a.29.29,0,0,1-.3-.3.3.3,0,0,1,.3-.31h4.1a.31.31,0,0,1,.31.31A.3.3,0,0,1,255.22,94.51Zm-8.2,0h-4.1a.3.3,0,0,1-.31-.3.31.31,0,0,1,.31-.31H247a.31.31,0,0,1,.31.31A.3.3,0,0,1,247,94.51Zm-8.2,0h-4.1a.3.3,0,0,1-.31-.3.31.31,0,0,1,.31-.31h4.1a.31.31,0,0,1,.31.31A.3.3,0,0,1,238.82,94.51Zm-8.2,0h-4.1a.3.3,0,0,1-.31-.3.31.31,0,0,1,.31-.31h4.1a.31.31,0,0,1,.31.31A.3.3,0,0,1,230.62,94.51Zm-8.2,0h-4.1a.3.3,0,0,1-.31-.3.31.31,0,0,1,.31-.31h4.1a.31.31,0,0,1,.31.31A.3.3,0,0,1,222.42,94.51Zm-8.2,0h-4.1a.3.3,0,0,1-.31-.3.31.31,0,0,1,.31-.31h4.1a.31.31,0,0,1,.31.31A.3.3,0,0,1,214.22,94.51Z"/><rect class="f4759c41-1cd2-4692-9e45-0507c982810a" x="212.54" y="131.96" width="90.93" height="0.62"/><rect class="f4759c41-1cd2-4692-9e45-0507c982810a" x="212.54" y="160.82" width="90.93" height="0.62"/><rect class="f4759c41-1cd2-4692-9e45-0507c982810a" x="212.54" y="189.69" width="90.93" height="0.62"/><rect class="f4759c41-1cd2-4692-9e45-0507c982810a" x="212.54" y="217.32" width="90.93" height="0.62"/><rect class="f4759c41-1cd2-4692-9e45-0507c982810a" x="212.54" y="247.41" width="90.93" height="0.62"/><rect class="f4759c41-1cd2-4692-9e45-0507c982810a" x="227.35" y="276.28" width="76.12" height="0.62"/><rect class="f4157b9f-e82e-49e6-b44e-33ccbb73a624" x="224.42" y="110.41" width="3.78" height="14.61"/><rect class="f4157b9f-e82e-49e6-b44e-33ccbb73a624" x="231.97" y="110.41" width="3.78" height="14.61"/><circle class="f4157b9f-e82e-49e6-b44e-33ccbb73a624" cx="288.52" cy="117.71" r="2.94"/><circle class="f4157b9f-e82e-49e6-b44e-33ccbb73a624" cx="279.39" cy="117.71" r="2.94"/><rect class="f4157b9f-e82e-49e6-b44e-33ccbb73a624" x="224.42" y="139.89" width="3.78" height="14.61"/><rect class="f4157b9f-e82e-49e6-b44e-33ccbb73a624" x="231.97" y="139.89" width="3.78" height="14.61"/><circle class="f4157b9f-e82e-49e6-b44e-33ccbb73a624" cx="288.52" cy="147.19" r="2.94"/><circle class="f4157b9f-e82e-49e6-b44e-33ccbb73a624" cx="279.39" cy="147.19" r="2.94"/><rect class="f4157b9f-e82e-49e6-b44e-33ccbb73a624" x="224.42" y="167.85" width="3.78" height="14.61"/><rect class="f4157b9f-e82e-49e6-b44e-33ccbb73a624" x="231.97" y="167.85" width="3.78" height="14.61"/><circle class="f4157b9f-e82e-49e6-b44e-33ccbb73a624" cx="288.52" cy="175.16" r="2.94"/><circle class="f4157b9f-e82e-49e6-b44e-33ccbb73a624" cx="279.39" cy="175.16" r="2.94"/><rect class="f4157b9f-e82e-49e6-b44e-33ccbb73a624" x="224.42" y="196.96" width="3.78" height="14.61"/><rect class="f4157b9f-e82e-49e6-b44e-33ccbb73a624" x="231.97" y="196.96" width="3.78" height="14.61"/><circle class="f4157b9f-e82e-49e6-b44e-33ccbb73a624" cx="290.57" cy="204.26" r="2.94"/><circle class="f4157b9f-e82e-49e6-b44e-33ccbb73a624" cx="279.39" cy="204.26" r="2.94"/><rect class="f4157b9f-e82e-49e6-b44e-33ccbb73a624" x="224.42" y="226.35" width="3.78" height="14.61"/><rect class="f4157b9f-e82e-49e6-b44e-33ccbb73a624" x="231.97" y="226.35" width="3.78" height="14.61"/><circle class="f4157b9f-e82e-49e6-b44e-33ccbb73a624" cx="290.57" cy="233.65" r="2.94"/><circle class="f4157b9f-e82e-49e6-b44e-33ccbb73a624" cx="279.39" cy="233.65" r="2.94"/><rect class="f4157b9f-e82e-49e6-b44e-33ccbb73a624" x="224.42" y="255.91" width="3.78" height="14.61"/><rect class="f4157b9f-e82e-49e6-b44e-33ccbb73a624" x="231.97" y="255.91" width="3.78" height="14.61"/><circle class="f4157b9f-e82e-49e6-b44e-33ccbb73a624" cx="290.57" cy="263.21" r="2.94"/><circle class="f4157b9f-e82e-49e6-b44e-33ccbb73a624" cx="279.39" cy="263.21" r="2.94"/><path d="M286.79,43.71,409,43.09l1,145.13s-18,100.45-123.24,103.37V43.71"/><rect class="bf8dc7a9-eee9-49d7-87a6-c75fed11960a" x="286.79" y="78.73" width="122.48" height="0.62"/><line class="bf8dc7a9-eee9-49d7-87a6-c75fed11960a" x1="286.79" y1="115.68" x2="409.52" y2="115.44"/><rect class="bf8dc7a9-eee9-49d7-87a6-c75fed11960a" x="286.79" y="115.25" width="122.73" height="0.62" transform="translate(-0.18 0.55) rotate(-0.09)"/><rect class="bf8dc7a9-eee9-49d7-87a6-c75fed11960a" x="286.79" y="204.07" width="116.7" height="0.62"/><rect class="bf8dc7a9-eee9-49d7-87a6-c75fed11960a" x="286.79" y="241.51" width="116.7" height="0.62"/><rect class="bf8dc7a9-eee9-49d7-87a6-c75fed11960a" x="286.79" y="277.74" width="69.96" height="0.62"/><circle class="bf8dc7a9-eee9-49d7-87a6-c75fed11960a" cx="390.37" cy="97.61" r="1.89"/><circle class="bf8dc7a9-eee9-49d7-87a6-c75fed11960a" cx="302.96" cy="260.84" r="2.17"/><circle class="bf8dc7a9-eee9-49d7-87a6-c75fed11960a" cx="317.97" cy="260.84" r="2.17"/><circle class="bf8dc7a9-eee9-49d7-87a6-c75fed11960a" cx="303.69" cy="97.61" r="1.89"/><circle class="bf8dc7a9-eee9-49d7-87a6-c75fed11960a" cx="384.89" cy="61.61" r="1.72"/><circle class="bf8dc7a9-eee9-49d7-87a6-c75fed11960a" cx="393.57" cy="61.61" r="1.72"/><path class="bf8dc7a9-eee9-49d7-87a6-c75fed11960a" d="M376.64,62H301.73a.3.3,0,0,1-.3-.31.29.29,0,0,1,.3-.3h74.91a.3.3,0,0,1,.31.3A.31.31,0,0,1,376.64,62Z"/><circle class="b3ae777a-2d6a-44c1-9b36-002ecec7eef0" cx="383.34" cy="223.7" r="1.99"/><path class="f4759c41-1cd2-4692-9e45-0507c982810a" d="M383.34,225.92a2.22,2.22,0,1,1,2.22-2.22A2.23,2.23,0,0,1,383.34,225.92Zm0-4a1.76,1.76,0,1,0,1.76,1.76A1.76,1.76,0,0,0,383.34,221.94Z"/><circle class="b3ae777a-2d6a-44c1-9b36-002ecec7eef0" cx="377.04" cy="223.7" r="1.99"/><path class="f4759c41-1cd2-4692-9e45-0507c982810a" d="M377,225.92a2.22,2.22,0,1,1,2.22-2.22A2.22,2.22,0,0,1,377,225.92Zm0-4a1.76,1.76,0,1,0,1.75,1.76A1.76,1.76,0,0,0,377,221.94Z"/><circle class="b3ae777a-2d6a-44c1-9b36-002ecec7eef0" cx="390.06" cy="223.7" r="1.99"/><path class="f4759c41-1cd2-4692-9e45-0507c982810a" d="M390.06,225.92a2.22,2.22,0,1,1,2.22-2.22A2.22,2.22,0,0,1,390.06,225.92Zm0-4a1.76,1.76,0,1,0,1.75,1.76A1.76,1.76,0,0,0,390.06,221.94Z"/><rect class="bf8dc7a9-eee9-49d7-87a6-c75fed11960a" x="299.89" y="223.39" width="63.78" height="0.62"/><path class="bf8dc7a9-eee9-49d7-87a6-c75fed11960a" d="M378.73,98H315a.31.31,0,1,1,0-.62h63.78a.31.31,0,0,1,0,.62Z"/><path class="f4157b9f-e82e-49e6-b44e-33ccbb73a624" d="M423.39,294A89.63,89.63,0,1,1,513,204.38,89.73,89.73,0,0,1,423.39,294Zm0-178.63a89,89,0,1,0,89,89A89.11,89.11,0,0,0,423.39,115.37Z"/><path class="bf8dc7a9-eee9-49d7-87a6-c75fed11960a" d="M408.5,117.77l.78,33.56s13.12,66.28-48.92,115.26c0,0-46-40.57-16.31-104.11C344.05,162.48,361.55,128.19,408.5,117.77Z"/><path class="bf8dc7a9-eee9-49d7-87a6-c75fed11960a" d="M174,133.64c1.45-.08,2.91-.12,4.37-.12a79.12,79.12,0,1,1-4.37.12"/><path class="e06d5ca4-cb08-4ef6-b60d-8c447f7c3386" d="M108.78,175.54a.42.42,0,0,1-.15,0,.31.31,0,0,1-.12-.42,79.41,79.41,0,0,1,65.61-41.75.31.31,0,0,1,.33.29.3.3,0,0,1-.29.32,78.83,78.83,0,0,0-65.11,41.43A.31.31,0,0,1,108.78,175.54Z"/><path class="f4759c41-1cd2-4692-9e45-0507c982810a" d="M363.68,138V193.5H334.73S338.36,159.09,363.68,138Z"/><path class="f4157b9f-e82e-49e6-b44e-33ccbb73a624" d="M409.52,116l1.21,33.07s11.48,75.28-50.4,118.56c0,0-45.56-42.81-15.87-106.34C344.46,161.29,363.68,123.16,409.52,116Z"/><rect x="265.37" y="107.57" width="97.27" height="88.3"/><rect class="bf8dc7a9-eee9-49d7-87a6-c75fed11960a" x="267.55" y="105.49" width="96.13" height="88"/><path class="f4759c41-1cd2-4692-9e45-0507c982810a" d="M364.14,194H267.08V105h97.06ZM268,193h95.2V106H268Z"/><rect class="f4759c41-1cd2-4692-9e45-0507c982810a" x="267.55" y="105.49" width="96.13" height="18.67"/><circle class="bf8dc7a9-eee9-49d7-87a6-c75fed11960a" cx="340.91" cy="114.71" r="3.06"/><circle class="bf8dc7a9-eee9-49d7-87a6-c75fed11960a" cx="352.78" cy="114.71" r="3.06"/><rect class="e06d5ca4-cb08-4ef6-b60d-8c447f7c3386" x="318.66" y="153.76" width="38.99" height="35.21"/><rect class="e06d5ca4-cb08-4ef6-b60d-8c447f7c3386" x="272.04" y="132.06" width="41.61" height="57.05"/><rect class="e06d5ca4-cb08-4ef6-b60d-8c447f7c3386" x="318.46" y="131.74" width="38.99" height="17.33"/><rect class="bf8dc7a9-eee9-49d7-87a6-c75fed11960a" x="274" y="130.1" width="41.61" height="57.05"/><path class="f4759c41-1cd2-4692-9e45-0507c982810a" d="M315.61,187.45H274a.31.31,0,0,1-.31-.31v-57a.31.31,0,0,1,.31-.31h41.61a.31.31,0,0,1,.31.31v57A.31.31,0,0,1,315.61,187.45Zm-41.3-.61h41V130.41h-41Z"/><rect class="bf8dc7a9-eee9-49d7-87a6-c75fed11960a" x="320.1" y="130.1" width="38.99" height="17.33"/><path class="f4759c41-1cd2-4692-9e45-0507c982810a" d="M359.1,147.74h-39a.31.31,0,0,1-.31-.31V130.1a.31.31,0,0,1,.31-.31h39a.3.3,0,0,1,.3.31v17.33A.3.3,0,0,1,359.1,147.74Zm-38.69-.62h38.38V130.41H320.41Z"/><rect class="bf8dc7a9-eee9-49d7-87a6-c75fed11960a" x="320.1" y="152.32" width="38.99" height="35.21"/><path class="f4759c41-1cd2-4692-9e45-0507c982810a" d="M359.1,187.83h-39a.3.3,0,0,1-.31-.3V152.32a.31.31,0,0,1,.31-.31h39a.3.3,0,0,1,.3.31v35.21A.29.29,0,0,1,359.1,187.83Zm-38.69-.61h38.38v-34.6H320.41Z"/><g class="a291e136-c56d-4922-8a83-e73e91868dfd"><path class="f4157b9f-e82e-49e6-b44e-33ccbb73a624" d="M178.29,118.64s-20.11,31.86-8.14,83.55c11.23,48.5,54.27,72.45,54.27,72.45L274,312.94l1.32-187.41Z"/></g><path d="M233.38,183.36l10.94,2.22s-.47,8.12-4.51,12.71l-11.61-4S231.24,193.14,233.38,183.36Z"/><path d="M197.42,148.84l11.17.14s1,8.06-2.06,13.33l-12.15-1.75S197.15,158.86,197.42,148.84Z"/><path class="e06d5ca4-cb08-4ef6-b60d-8c447f7c3386" d="M102.78,238.29s-7.14,22.3-9.45,44.6c0,0,18.36-2.16,29.69-12.6C123,270.29,107.3,253.31,102.78,238.29Z"/><path class="e06d5ca4-cb08-4ef6-b60d-8c447f7c3386" d="M446.74,37.73s10.37,5.37,11.66,13.05c0,0-11.91-16.93-28.91-9.87C429.49,40.91,438.17,34.68,446.74,37.73Z"/><path class="e06d5ca4-cb08-4ef6-b60d-8c447f7c3386" d="M493.17,41.07s1.52,5.83,1,9.71c0,0-5.35-29.33-36.21-24.14C458,26.64,481.55,15.34,493.17,41.07Z"/><path class="e06d5ca4-cb08-4ef6-b60d-8c447f7c3386" d="M506.8,50.32a35.38,35.38,0,0,1,1.38,9.6S507,47.11,491.81,40.86C491.81,40.86,502.62,41.8,506.8,50.32Z"/><path class="f4759c41-1cd2-4692-9e45-0507c982810a" d="M511.26,49.14a11.5,11.5,0,0,0-4.12.75,16.79,16.79,0,0,0-14-8.82,25.3,25.3,0,0,0-46.43-3.34,19.15,19.15,0,1,0-5.54,37.48h69c8.93,0,12.76-7.85,12.76-14.33A11.73,11.73,0,0,0,511.26,49.14Z"/><circle class="bf8dc7a9-eee9-49d7-87a6-c75fed11960a" cx="470.31" cy="50.74" r="3.71"/><path class="bf8dc7a9-eee9-49d7-87a6-c75fed11960a" d="M470.31,60.8a1.16,1.16,0,0,1-1.16-1.16v-5.2a1.16,1.16,0,0,1,2.32,0v5.2A1.15,1.15,0,0,1,470.31,60.8Z"/><path class="e06d5ca4-cb08-4ef6-b60d-8c447f7c3386" d="M258,212.24c0-41.42-31.7-67-45.46-70.89l0,125.39c4.08,3.8,8.15,5.66,13.48,9.16C229.31,273.91,258,252.21,258,212.24Z"/><path d="M226.86,163.56H238s1.15,8-1.89,13.35l-14.46-1S226.72,173.57,226.86,163.56Z"/><path d="M224.72,213.68l11.17.14s1.05,8.05-2.06,13.32l-12.15-1.75S224.46,223.69,224.72,213.68Z"/><path class="f31e5125-7862-4928-b59e-b404947194d2" d="M408.74,204.38s-1.39,3.51-.69,15c.52,8.53.57,17.71.57,21.83a2.8,2.8,0,0,1-2.17,2.7l-4.18.92a2.65,2.65,0,0,1-1,0l-8.47-1.2a1.94,1.94,0,0,0-1.52.43l-6.18,5.25a1.6,1.6,0,0,0-.6,1.36c0,.52.4.9,1.78,0A55.62,55.62,0,0,0,390.9,247a1.58,1.58,0,0,1,1.65-.28l3.43,1.57,3.1-1.54a5.81,5.81,0,0,1,1.41-.58l18.57,4.34.5-.26a6.3,6.3,0,0,0,3.34-5.55V243l-1.31-32.14Z"/><path class="f31e5125-7862-4928-b59e-b404947194d2" d="M414.07,157.34S405.53,161.89,409,177a30,30,0,0,1,2.66,7.44c.87,4.16,2.43,7.53,4.55,9.33s4.34,5.7,9,5.39L424,211l7.13,12.47,12-2.52,8.85-16,5-22.73-19.28-18.42Z"/><path d="M418.6,173.85a20.78,20.78,0,0,1,2.23-1.51,10.25,10.25,0,0,1,2.54-1.12,3.27,3.27,0,0,1,.78-.1h.66l1.32,0c.87.05,1.74.11,2.61.21a.28.28,0,0,1,.25.32.27.27,0,0,1-.25.25c-.87.08-1.74.14-2.61.2l-1.29.09-.64.05a2.33,2.33,0,0,0-.51.11,9.86,9.86,0,0,0-2.17,1.1c-.71.44-1.42.94-2.09,1.43h0a.66.66,0,0,1-.94-.14A.67.67,0,0,1,418.6,173.85Z"/><circle cx="422.62" cy="177.88" r="1.25"/><path d="M420.68,178.19a.32.32,0,0,1-.14,0,.33.33,0,0,1-.14-.42c.06-.12,1.55-2.89,6.22-1.69a.29.29,0,0,1,.22.37.31.31,0,0,1-.37.22c-4.18-1.07-5.47,1.28-5.52,1.38A.31.31,0,0,1,420.68,178.19Z"/><path class="a7eece2a-ee06-4a87-be9b-b339f99914be" d="M425.18,199.18s9.41.64,12.37-13.56a1.4,1.4,0,0,1,.75,1c.44,3.31-3.4,9.62-6.59,13.64a5.86,5.86,0,0,0-.79,5.68c.55,1.25.63,1.77,2.9,7.35,1.15,2.81,2.18,5.79,2.18,5.79l-.94.73s-5-8.37-6.38-10.27S424.77,203.41,425.18,199.18Z"/><path class="a7eece2a-ee06-4a87-be9b-b339f99914be" d="M421.83,160.42a8.72,8.72,0,0,0-7.38,7.47,21,21,0,0,0,.2,8.63,36.9,36.9,0,0,1,1.34,7.31c.28,3.87-.62,4,2.05,4.65a5.29,5.29,0,0,1,1.84,3.86c.27,2.8,2.26,6.07,5.3,6.84,0,0-3.13,1.54-9-5.39s-3.46-7.06-5.48-11.34,1.06-6.41,1.11-12.63S417.32,160.42,421.83,160.42Z"/><circle cx="411.6" cy="180.55" r="1.25"/><path d="M413.55,180.47a.32.32,0,0,1-.21-.08,2.8,2.8,0,0,0-3.11-.25.31.31,0,0,1-.41-.15.32.32,0,0,1,.15-.41,3.4,3.4,0,0,1,3.79.36.3.3,0,0,1,0,.43A.28.28,0,0,1,413.55,180.47Z"/><path d="M412.62,176.84l-3.71.06a.38.38,0,0,1-.08-.75l3.66-.66a.67.67,0,0,1,.78.55.66.66,0,0,1-.54.78Z"/><path class="f8bdeb23-0cf8-458e-a1a3-2ff8890982ff" d="M427,189.85a6.27,6.27,0,0,1-1.7,2.18,9.55,9.55,0,0,1-2.44,1.47l-.68.25-.7.2a.37.37,0,0,1-.29,0c-.09-.05-.2-.14-.3-.21a.4.4,0,0,0-.56.05c-.16.16-.28.43-.45.51a.5.5,0,0,1-.3,0,2.21,2.21,0,0,1-.35,0,4.07,4.07,0,0,1-.81-.25,1.94,1.94,0,0,1-.85-.66l0-.38a8.86,8.86,0,0,0,.41-.8,2.31,2.31,0,0,1,.41-.58,1.79,1.79,0,0,1,.26-.23.71.71,0,0,1,.31-.16,2.31,2.31,0,0,1,.78.18.64.64,0,0,0,.69-.2,2.24,2.24,0,0,1,.32-.3.56.56,0,0,1,.34-.07c.38,0,.75,0,1.13,0a11.79,11.79,0,0,0,2.33-.26A10.55,10.55,0,0,0,427,189.85Z"/><path class="a7eece2a-ee06-4a87-be9b-b339f99914be" d="M426.64,190.67s-1.54,3.83-5.13,4.61c-3.39.73-4-1.63-4-1.63A34.28,34.28,0,0,0,426.64,190.67Z"/><path class="f8bdeb23-0cf8-458e-a1a3-2ff8890982ff" d="M418,188.53a2.33,2.33,0,0,1-1.81-.6c-.66-.69-.59-1.87-.5-3.51l0-.61a14.19,14.19,0,0,0-.89-5.3.31.31,0,0,1,.17-.4.31.31,0,0,1,.4.17,14.75,14.75,0,0,1,.94,5.56l0,.62c-.08,1.48-.14,2.55.33,3a1.85,1.85,0,0,0,1.37.4,4.31,4.31,0,0,0,3.28-1.25.3.3,0,0,1,.43,0,.31.31,0,0,1,.05.43A4.91,4.91,0,0,1,418,188.53Z"/><path class="f8bdeb23-0cf8-458e-a1a3-2ff8890982ff" d="M422.49,186.49a.31.31,0,0,1-.08-.61s.51-.2.51-1.36a.31.31,0,0,1,.31-.31h0a.3.3,0,0,1,.3.31c0,1.69-.87,1.94-1,2Z"/><path class="bf8dc7a9-eee9-49d7-87a6-c75fed11960a" d="M425.18,199.18s-.63,3.26,1.79,7.57,7.78,10.83,8.09,13c0,0,4.63-3.26,6.21-7.57s1.82-15.57,1.82-15.57l12.79-13.21a29,29,0,0,1,7.15,1.13,23,23,0,0,0,6.44,1.05s-11.77,7-9.65,26.21,1.27,25,1.27,25H421.18s-2.12-4-1.91-12.23-1.14-9.41-1.14-9.41-4.8,1.41-5.86-4.18-5.88-4.74-5.81-10a9.82,9.82,0,0,0,4.4-2.6c1.69-1.92,4.74-5.32,4.74-5.32a28.77,28.77,0,0,0,5.27,5C423.39,199.75,425.18,199.18,425.18,199.18Z"/><path d="M421.83,160.42s-7.9-.48-9.28,9.24S410.42,181,410.42,181s.9.72,1.18,3.26a19.58,19.58,0,0,0,4,8.84s-1.59,1.62-3.05,3.4-3.38,3.79-4.39,3.87c0,0-1.4-2.4-6-4.49s-5.19-7.33-3.95-12.42-5.12-9.74-4.19-18.34,5.81-7.28,10.39-15,13.34-5.89,16.24-4c0,0,9.94-8.91,21.18-.08s6.66,22.7,13.48,26,9.22,8.21,6.74,12.4a18.56,18.56,0,0,0-6.2-.95s3.9,3.84,1.07,6.76-1.26,5.7-2.76,8.47-5.69,3.19-6.65,4.11c0,0,.31-2.54-1.23-4s-5.14-2.2-6.3-6.9-1.89-7.32-7.08-9.5,1.11-10-1.84-13.43S422.71,166.34,421.83,160.42Z"/><path class="f31e5125-7862-4928-b59e-b404947194d2" d="M478.72,193c-5.19-6.17-10-5.92-10-5.92-2.47,0-5.81,7.93-7.23,11.62-.59,1.17-2.11,7.71-2,14.54.15,11,.8,26.64,1,26.88,1.44,1.58-33.62,8.75-33.62,8.75l-1.16.27a16.51,16.51,0,0,1-7.53,0l-14.68-3.44a4.81,4.81,0,0,0-3.23.38l-11.37,5.64a1.39,1.39,0,0,0-.36,2.27,2.14,2.14,0,0,0,2.11.53s-2.47,1.43-.88,3c1.08,1.08,7.56-2.73,7.56-2.73s-3.91,1.79-2.8,3.49c.63,1,7.12-1.59,9.9-2.82,0,0,.64-.08,1.65.81,1.81,1.58,4.77,3.87,6.8,3.92,3.11.08,12.78-2,12.78-2l.38-.11a14.48,14.48,0,0,1,4.29-.64l39,.12h2.55a3.19,3.19,0,0,0,2.93-1.88l3.45-7.66a48.59,48.59,0,0,0,2.19-6.15c.61-2.06,1.1-4.12,1.53-6.2a104.29,104.29,0,0,0,1.76-12.51C483.84,222,484.81,200.3,478.72,193Z"/><path class="a7eece2a-ee06-4a87-be9b-b339f99914be" d="M475.77,189.54s-5.5-4.61-6.39-.53c-.6,2.78-2.19,2.76-1.06,3.7-4,.79,2.24,6.36,2.24,6.36-4.39.23-5.09.39-5.66,5.91a8.86,8.86,0,0,1-5.49,7.26l.32,13.24c-.15-4.7,3.52-7,6.69-11.89s.57-7.86,4.84-9.51c4.5-1.74,2.88-7.55,1.94-9.23C473.17,192.31,471.77,191.38,475.77,189.54Z"/><path class="bf8dc7a9-eee9-49d7-87a6-c75fed11960a" d="M459.34,212.14s-1.28-13.53,3.94-21.34,11.28-5.15,11.28-5.15,2.66,1.81,4.16.32c0,0,.21,4.25-3.41,4.41s-5.75,1.87-4.15,4.43.74,5.32-2.67,5.32-3.51,1.49-3.51,5S461,211.6,459.34,212.14Z"/><path class="bf8dc7a9-eee9-49d7-87a6-c75fed11960a" d="M421.18,236.8s3.11,8.75,11.37,10.91c0,0,26.43-4.77,27.91-7.55l-.26-3.36Z"/><path class="bf8dc7a9-eee9-49d7-87a6-c75fed11960a" d="M485.31,237.61s-1.26-10.3-1.8-11.92c-1.08,16.24-8.7,30-8.7,30l3.05-7.16c3.34-3.42,4.59-4.2,7.8-10.23A5.9,5.9,0,0,1,485.31,237.61Z"/><path d="M490.39,244.58a38.33,38.33,0,0,1-4.73-6.26,33.64,33.64,0,0,1-7.8,10.23s-2.25,5.12-3.2,7.45H495.9a18.47,18.47,0,0,0,2-2.9C495.83,250.75,492.84,247.37,490.39,244.58Z"/><path class="f31e5125-7862-4928-b59e-b404947194d2" d="M443.68,184a5.49,5.49,0,0,1-3.73-1.23c-1.3-1.18-1.75-3.15-1.31-5.85,1.1-6.81-1.46-10.62-8.05-12a7.38,7.38,0,0,1-5.76-5.74.3.3,0,0,1,.26-.35.31.31,0,0,1,.35.25,6.63,6.63,0,0,0,5.28,5.24c6.88,1.42,9.67,5.57,8.53,12.68-.4,2.48,0,4.27,1.11,5.3,1.9,1.71,5.31.83,5.35.82a.3.3,0,0,1,.37.22.29.29,0,0,1-.21.37A8.56,8.56,0,0,1,443.68,184Z"/><path class="e06d5ca4-cb08-4ef6-b60d-8c447f7c3386" d="M286.38,292.3a120.82,120.82,0,0,1-60.49-16.2l.3-.53a120.27,120.27,0,0,0,60.19,16.11c26.17,0,53.46-9.1,73-24.35l.38.48C340.11,283.15,312.69,292.3,286.38,292.3Z"/><path class="e06d5ca4-cb08-4ef6-b60d-8c447f7c3386" d="M172,133.9l-.58-.19A120.94,120.94,0,0,1,286.38,50.47v.61A120.36,120.36,0,0,0,172,133.9Z"/><path class="a7eece2a-ee06-4a87-be9b-b339f99914be" d="M394.5,256.94a.31.31,0,0,1-.27-.15.31.31,0,0,1,.12-.42l8.79-4.88a2.38,2.38,0,0,1,2.38,0l3.07,1.88a.31.31,0,0,1-.32.53l-3.07-1.88a1.73,1.73,0,0,0-1.76,0l-8.79,4.88Z"/><path class="a7eece2a-ee06-4a87-be9b-b339f99914be" d="M393.8,255a.3.3,0,0,1-.24-.12.31.31,0,0,1,.06-.44l8.54-6.47a1.44,1.44,0,0,1,1.6-.09l5.18,3.1a.31.31,0,0,1,.1.42.3.3,0,0,1-.42.11l-5.18-3.1a.82.82,0,0,0-.91,0L394,254.88A.28.28,0,0,1,393.8,255Z"/><path class="a7eece2a-ee06-4a87-be9b-b339f99914be" d="M393.67,252.52a.33.33,0,0,1-.23-.1.31.31,0,0,1,0-.44c.7-.62,6.84-6.11,8.58-6s6.25,2,6.44,2.07a.31.31,0,0,1-.23.57c-.05,0-4.66-1.94-6.24-2-1.11-.08-5.58,3.56-8.14,5.86A.32.32,0,0,1,393.67,252.52Z"/><path class="f4157b9f-e82e-49e6-b44e-33ccbb73a624" d="M148.07,155.36s4.35,6.5,5.7,8.2,1.26,2.51,1.35,4.41,1.21,3.39,2.88,5.12,3.88,1.33,3.31,3.2-1.94,2.56-2.48,3.26c0,0,.19.77.69,2.48s-.81,2.34-.81,2.34,1.09.24,1.09.76-.76,1.61-.28,3.41.87,4.83-2.93,6.14a22.23,22.23,0,0,1-9.44,1s-.47,6.6,2.52,12.09-1.77,9.8-1.77,9.8l-26-8.11,1.83-3.83a18.37,18.37,0,0,0,1.55-10.88,50.71,50.71,0,0,0-1.32-6s-8-4.6-4.63-18.75S128.84,145.56,148.07,155.36Z"/><path d="M154.15,169.21c-.66-.07-1.33-.13-2-.16a14.45,14.45,0,0,0-2,0,3.23,3.23,0,0,0-.89.22,7.3,7.3,0,0,0-.87.47,8.09,8.09,0,0,0-1.55,1.25h0a.11.11,0,0,1-.16,0,.12.12,0,0,1,0-.16,8.58,8.58,0,0,1,1.45-1.5,7.62,7.62,0,0,1,.87-.62,3.82,3.82,0,0,1,1-.41,14,14,0,0,1,2.1-.31c.7-.06,1.38-.09,2.09-.1a.64.64,0,1,1,0,1.28h-.09Z"/><path d="M149.71,172.71a.22.22,0,0,1-.13,0,.2.2,0,0,1,0-.29c2.35-2.82,4.7-1.88,4.8-1.84a.2.2,0,0,1,.11.27.21.21,0,0,1-.27.11c-.08,0-2.18-.86-4.33,1.72A.2.2,0,0,1,149.71,172.71Z"/><circle cx="152.83" cy="171.78" r="1.25"/><path class="f31e5125-7862-4928-b59e-b404947194d2" d="M159.78,179a.3.3,0,0,1-.2-.08.31.31,0,0,1,0-.44l.26-.28c.67-.71,1.51-1.59,1.35-2.32-.1-.47-.63-.9-1.55-1.28a7.17,7.17,0,0,1-4.22-3.94.31.31,0,0,1,.59-.2,6.6,6.6,0,0,0,3.86,3.57c1.14.47,1.77,1,1.92,1.72.23,1.05-.73,2.06-1.5,2.87l-.26.28A.29.29,0,0,1,159.78,179Z"/><path class="f31e5125-7862-4928-b59e-b404947194d2" d="M158.11,179.73a4.26,4.26,0,0,1-1.52-.24.32.32,0,0,1-.15-.41.31.31,0,0,1,.41-.15,3.89,3.89,0,0,0,1.37.18.31.31,0,1,1,0,.61Z"/><path class="f31e5125-7862-4928-b59e-b404947194d2" d="M155.9,185.16c-.63,0-1.21-.12-1.36-.51a.31.31,0,1,1,.57-.23,4,4,0,0,0,2.28-.08,6.1,6.1,0,0,1,1.33-.28.31.31,0,0,1,0,.62,6.75,6.75,0,0,0-1.16.26A6.89,6.89,0,0,1,155.9,185.16Z"/><path class="f4157b9f-e82e-49e6-b44e-33ccbb73a624" d="M219,192.47l1.83-3a7.32,7.32,0,0,0,1-3.76v-5a2.75,2.75,0,0,0,.59-1.42s1.45.41,1.42-1.71c0-1.58.12-2.6-.21-2.92,0,0,1,1.58,1.91.71s-1.2-3.49-1.2-3.49a2.56,2.56,0,0,0-1.63-1s1.49-1.53-.29-1.8a51.28,51.28,0,0,0-7.18.22,6.59,6.59,0,0,0-2.23,1.58c-1.37,1.31-3.05,3.16-3.05,3.59a9.37,9.37,0,0,0,.7,7.63c2.24,4.09.53,7,.53,7S216.62,192.3,219,192.47Z"/><path class="f4157b9f-e82e-49e6-b44e-33ccbb73a624" d="M211.76,187.77s.53-2.42-1.72-7.07,3-9.84,3-9.84a7.21,7.21,0,0,1,4.6-1.76"/><path class="f31e5125-7862-4928-b59e-b404947194d2" d="M211.76,188.08h-.07a.31.31,0,0,1-.23-.37s.47-2.39-1.7-6.87c-2.32-4.79,2.82-10,3-10.19a7.51,7.51,0,0,1,4.81-1.85.31.31,0,0,1,0,.62,7,7,0,0,0-4.4,1.67s-5,5.09-2.91,9.49c2.27,4.69,1.76,7.16,1.74,7.26A.31.31,0,0,1,211.76,188.08Z"/><path d="M202.17,178.66h0a1,1,0,0,0,1.34.64l24-8.66-.6-1.66L203,177A1.33,1.33,0,0,0,202.17,178.66Z"/><path d="M203.16,179.87a1.57,1.57,0,0,1-.67-.16,1.52,1.52,0,0,1-.79-.88,1.84,1.84,0,0,1,1.15-2.34l23.9-8a.51.51,0,0,1,.64.31l.6,1.66a.51.51,0,0,1-.31.64l-24,8.66A1.6,1.6,0,0,1,203.16,179.87Zm23.44-10.26-23.43,7.84a.83.83,0,0,0-.48.42.81.81,0,0,0,0,.63h0a.55.55,0,0,0,.28.3.53.53,0,0,0,.41,0l23.53-8.49Z"/><path class="bf8dc7a9-eee9-49d7-87a6-c75fed11960a" d="M226.91,168.46l3.25.07a.26.26,0,0,1,.16.46l-2.46,2"/><path class="f4157b9f-e82e-49e6-b44e-33ccbb73a624" d="M214.62,180.39s5.77-9.71,8.1-9.53-2,5.27-3.8,10.45"/><path class="f31e5125-7862-4928-b59e-b404947194d2" d="M218.92,181.62l-.11,0a.3.3,0,0,1-.18-.39,41,41,0,0,1,2.72-5.73c1-1.79,2-3.64,1.69-4.16,0,0-.07-.13-.35-.16-1.54-.12-5.61,5.7-7.8,9.39a.31.31,0,0,1-.42.11.3.3,0,0,1-.11-.42c.6-1,5.93-9.87,8.38-9.69a1,1,0,0,1,.84.47c.44.82-.4,2.38-1.69,4.75a40.75,40.75,0,0,0-2.68,5.64A.32.32,0,0,1,218.92,181.62Z"/><path class="bf8dc7a9-eee9-49d7-87a6-c75fed11960a" d="M149.29,207.61s26.37,13.31,27.48,83.76A75.62,75.62,0,0,1,157,289.65s-.64-40.34-25.38-83.19C131.64,206.46,145,213.07,149.29,207.61Z"/><path class="f31e5125-7862-4928-b59e-b404947194d2" d="M221.54,181a1.61,1.61,0,0,1-.92-.29,2.61,2.61,0,0,1-.86-2.09.31.31,0,1,1,.61,0,2.08,2.08,0,0,0,.61,1.62,1,1,0,0,0,.78.15.32.32,0,0,1,.38.21.3.3,0,0,1-.21.38A1.2,1.2,0,0,1,221.54,181Z"/><path class="e06d5ca4-cb08-4ef6-b60d-8c447f7c3386" d="M222.43,179.25a11.71,11.71,0,0,1-.91-3.43"/><path class="f31e5125-7862-4928-b59e-b404947194d2" d="M222.43,179.56a.3.3,0,0,1-.28-.19,11.52,11.52,0,0,1-.94-3.53.31.31,0,1,1,.61,0,11.29,11.29,0,0,0,.89,3.31.31.31,0,0,1-.16.41Z"/><path class="a7eece2a-ee06-4a87-be9b-b339f99914be" d="M123.45,203a2.62,2.62,0,0,1,2.86-.94c7.69,3.09,30.52,11.47,32,87.18,0,0-38.44-6.35-54.9-50.34,0,0,.7-14.24,6.79-23.56C112.58,211.65,120.16,206.49,123.45,203Z"/><path class="a7eece2a-ee06-4a87-be9b-b339f99914be" d="M149.67,207.77s31.19,14.38,39.46,8.59c0,0,17.79-21.75,21.38-27.69,0,0,7.11,3.8,11.52,3.84,0,0-10.53,37.92-24.49,50a7.14,7.14,0,0,1-4.94,1.73c-4.56-.16-16.84-.32-23.87-1.89C160,216,149.67,207.77,149.67,207.77Z"/><path class="f4157b9f-e82e-49e6-b44e-33ccbb73a624" d="M223.9,178.47l-.05-1.43a13.73,13.73,0,0,0-.81-4.21h0"/><path class="f31e5125-7862-4928-b59e-b404947194d2" d="M223.9,178.78a.31.31,0,0,1-.31-.3l-.05-1.43a13.09,13.09,0,0,0-.79-4.11.31.31,0,0,1,.18-.4.32.32,0,0,1,.4.19,14,14,0,0,1,.83,4.3l.05,1.43a.32.32,0,0,1-.3.32Z"/><path class="bf8dc7a9-eee9-49d7-87a6-c75fed11960a" d="M109.54,167.71a6.65,6.65,0,0,1-3.18-.75,6.44,6.44,0,0,1-3-4.2.24.24,0,0,1,.17-.29.23.23,0,0,1,.28.17,6,6,0,0,0,2.82,3.91,7.41,7.41,0,0,0,5.18.38.23.23,0,0,1,.29.15.23.23,0,0,1-.15.29A8,8,0,0,1,109.54,167.71Z"/><path class="f8bdeb23-0cf8-458e-a1a3-2ff8890982ff" d="M125.3,239.4a179.25,179.25,0,0,0,2.43,20.13c1.68,8.14,2.1,13.42,5.93,18.66,0,0-8.82-6.63-12.73-10.79a72.35,72.35,0,0,1,2.29-13.9A61.92,61.92,0,0,0,125.3,239.4Z"/><path d="M120.93,267.22h0a.31.31,0,0,1-.28-.34,86.51,86.51,0,0,1,1.71-9.83c3.22-15.29,2.68-20,2.67-20a.32.32,0,0,1,.26-.35.31.31,0,0,1,.35.27c0,.18.57,4.75-2.68,20.19a88.54,88.54,0,0,0-1.7,9.77A.3.3,0,0,1,120.93,267.22Z"/><path class="a7eece2a-ee06-4a87-be9b-b339f99914be" d="M176.77,291.68a.31.31,0,0,1-.31-.28c-4.36-45.83-12.23-62.53-12.31-62.69a.31.31,0,0,1,.55-.27c.08.17,8,16.93,12.37,62.9a.3.3,0,0,1-.27.34Z"/><path class="bf8dc7a9-eee9-49d7-87a6-c75fed11960a" d="M142.64,153.2a.23.23,0,0,1-.14,0,14.31,14.31,0,0,0-4.49-1.88,20.15,20.15,0,0,0-11.92.83.23.23,0,0,1-.3-.14.24.24,0,0,1,.14-.3c10-3.66,16.77,1.06,16.84,1.11a.23.23,0,0,1,0,.33A.21.21,0,0,1,142.64,153.2Z"/><path d="M149,156.55s-2.82-6.58-15.14-6.05c-13.55.59-19,10.94-19.62,13.36,0,0-1.48-2-5.17-1.52s-5.39,3.61-5.45,7.89c-.08,5.71,2.71,8.06,5.75,8.06,4.18,0,4.79-1.73,4.79-1.73-.19.33-.14,2.11.5,4.52.88,3.31,3.84,10.36,10.31,10.36,5.29-6.18,5.95-11.54,5.95-11.54a3.08,3.08,0,0,1-.08-2.39c.9-2.06,3.56-4.11,7,.11l1.71,1.59c.87-2.53,1.25-8.7,1.25-8.7l2.43-1.39a.45.45,0,0,0,0-.58c-.27-.36-1.37-1.85-1.6-2.21-1.76-2.75-2.76-4.13-.54-5.61S147.9,157.9,149,156.55Z"/><path class="f31e5125-7862-4928-b59e-b404947194d2" d="M137.9,185.91a7.83,7.83,0,0,1-4.64-2.2,7.22,7.22,0,0,1-2.88-5.35,3.87,3.87,0,0,1,1.73-3,2.92,2.92,0,0,1,2.27-.54c2,.34,3.61,2.56,3.67,2.66a.31.31,0,0,1-.07.43.32.32,0,0,1-.43-.08s-1.51-2.11-3.28-2.41a2.36,2.36,0,0,0-1.8.44,3.2,3.2,0,0,0-1.47,2.55,6.6,6.6,0,0,0,2.65,4.86c1.74,1.47,3.36,2.19,4.57,2a2.07,2.07,0,0,0,1.48-.91.31.31,0,0,1,.51.35,2.67,2.67,0,0,1-1.91,1.17A2.6,2.6,0,0,1,137.9,185.91Z"/><path class="f31e5125-7862-4928-b59e-b404947194d2" d="M138.28,185.57s-7.35,1-7.81,5.94c-.72,7.67-1.2,7.54-1.69,11.6-3.15-1.32-2.69-1.05-3.73-1.2,0,0,1.33-3.13-.08-10.47,0,0,3.79-3.49,5.95-11.54A8.82,8.82,0,0,0,138.28,185.57Z"/><path class="f31e5125-7862-4928-b59e-b404947194d2" d="M147.15,195.68a49.55,49.55,0,0,1-8.26-1.86s1.94,2.34,8.42,6.11C147.31,199.93,147.05,199.49,147.15,195.68Z"/><path class="f31e5125-7862-4928-b59e-b404947194d2" d="M123.13,157.3a.34.34,0,0,1-.24-.11.33.33,0,0,1,0-.44c4-3.3,9.15-4,12.79-3.92a30.29,30.29,0,0,1,7,.88.3.3,0,0,1,.21.38.31.31,0,0,1-.38.21c-.11,0-11.88-3.18-19.22,2.93A.37.37,0,0,1,123.13,157.3Z"/><path class="f31e5125-7862-4928-b59e-b404947194d2" d="M106.29,166.81h-.08a.32.32,0,0,1-.22-.38,3.78,3.78,0,0,1,3.39-2.54c3.23-.31,4.27,1.63,4.31,1.71a.31.31,0,0,1-.13.42.32.32,0,0,1-.42-.13c0-.07-.91-1.66-3.7-1.39a3.16,3.16,0,0,0-2.85,2.09A.31.31,0,0,1,106.29,166.81Z"/><path class="e06d5ca4-cb08-4ef6-b60d-8c447f7c3386" d="M178.52,292.09a79.27,79.27,0,0,1-55-21.64c-.15-.14-15.08-14.66-20.92-32.82a.31.31,0,0,1,.2-.39.3.3,0,0,1,.38.2c5.8,18,20.62,32.43,20.77,32.57a78.63,78.63,0,0,0,54.53,21.46,79.82,79.82,0,0,0,49-17.29.31.31,0,0,1,.43.05.29.29,0,0,1,0,.43A80.41,80.41,0,0,1,178.52,292.09Z"/><path class="a7eece2a-ee06-4a87-be9b-b339f99914be" d="M467.26,245a.31.31,0,0,1-.25-.13,9.7,9.7,0,0,0-6.38-4.23.31.31,0,0,1-.28-.33.3.3,0,0,1,.33-.28,10.1,10.1,0,0,1,6.83,4.48.31.31,0,0,1-.08.43A.27.27,0,0,1,467.26,245Z"/><path class="a7eece2a-ee06-4a87-be9b-b339f99914be" d="M413.5,244.58a.32.32,0,0,1-.2-.08c-2.56-2.26-4.74-1.54-4.84-1.51a.3.3,0,0,1-.39-.19.31.31,0,0,1,.19-.39c.11,0,2.6-.88,5.45,1.63a.3.3,0,0,1,0,.43A.3.3,0,0,1,413.5,244.58Z"/><path class="a7eece2a-ee06-4a87-be9b-b339f99914be" d="M422.78,240s-3.57-4.22-3.52-14.28-1.13-10.53-1.13-10.53a6.17,6.17,0,0,1-2.3.11l-.24-.11v.06c-1.75-.41-3-1.87-3.33-4.24-.5-3.28-3.81-5.54-3.81-5.54s3.43,1.88,2.47,7.31c-.9,5.12,5.35,7.84,5.35,7.84s-.95,10.95.6,15.5c2,5.76-2.33,10.63-4.37,11.62l8,1.85S423.78,247.9,422.78,240Z"/><polygon points="393.44 261.71 415.42 261.71 418.34 257.65 393.44 257.65 393.44 261.71"/><polygon class="f8bdeb23-0cf8-458e-a1a3-2ff8890982ff" points="332.54 261.71 395.45 261.71 386.58 214.45 323.66 214.45 332.54 261.71"/><path d="M323.31,214.45s5.9,26.15,21.83,29.82c21.56,5,47.38.32,50.31,17.44H332.54Z"/><path class="f31e5125-7862-4928-b59e-b404947194d2" d="M408.87,193.54h-.08a8.27,8.27,0,0,1-3.67-3.63,7.65,7.65,0,0,1-.48-6.32,10.34,10.34,0,0,0-.16-8.38,14.07,14.07,0,0,1-1.1-7,6.28,6.28,0,0,1,3.29-5.26,7.18,7.18,0,0,0,3.23-3.87,6.14,6.14,0,0,1,3.4-3.89c3.3-1.39,7.34.46,7.51.53a.32.32,0,0,1,.15.41.31.31,0,0,1-.41.15s-4-1.81-7-.52a5.54,5.54,0,0,0-3,3.52,7.78,7.78,0,0,1-3.47,4.18,5.61,5.61,0,0,0-3,4.81,13.25,13.25,0,0,0,1.05,6.75,10.92,10.92,0,0,1,.18,8.79,7.05,7.05,0,0,0,.43,5.83,7.92,7.92,0,0,0,3.29,3.33.3.3,0,0,1-.08.6Z"/><path class="bf8dc7a9-eee9-49d7-87a6-c75fed11960a" d="M328.38,115.14H274a.31.31,0,0,1,0-.62h54.38a.31.31,0,0,1,0,.62Z"/></svg>