<svg id="b664e805-094f-4dbc-9af5-3b7f318dbc45" data-name="Layer 1" xmlns="http://www.w3.org/2000/svg" viewBox="0 0 262 180"><defs><style>.a88c5471-7d5e-46e7-a84b-492a1675fc57{fill:#378b8d;}</style></defs><path d="M113.19687,69.71851v6.14291h5.35574c2.15267,0,3.57029-1.23379,3.57029-3.07129,0-1.86413-1.41762-3.07162-3.57029-3.07162Zm-2.75645-2.41528h8.34814c3.64968,0,6.117,2.20507,6.117,5.43432a5.19052,5.19052,0,0,1-3.78028,5.04053L125.22063,85.68h-3.04524l-3.80654-7.53434h-5.172V85.68h-2.75645V67.30323Z"/><path d="M128.65964,77.88285h7.92811a3.98573,3.98573,0,0,0-7.92811,0Zm4.38409,8.03362a6.87624,6.87624,0,0,1-7.00962-6.9309,6.71438,6.71438,0,0,1,6.69459-6.878c3.67529,0,6.458,3.04534,6.458,6.98314v.7614H128.63306a4.50737,4.50737,0,0,0,4.51535,3.8327,5.19779,5.19779,0,0,0,3.38684-1.18121l1.68013,1.65388a7.97039,7.97039,0,0,1-5.17165,1.759Z"/><path d="M148.24333,83.60593a4.815,4.815,0,0,0,3.70153-1.60131V75.94023a4.88528,4.88528,0,0,0-3.70153-1.57505,4.62105,4.62105,0,0,0,0,9.24075Zm3.72811.814a6.313,6.313,0,0,1-4.09564,1.47027,6.89137,6.89137,0,1,1,4.06906-12.47V67.30323l2.6252-.57749V85.68h-2.59862V84.41991Z"/><polygon points="163.469 67.303 166.226 67.303 166.226 75.179 175.992 75.179 175.992 67.303 178.748 67.303 178.748 85.68 175.992 85.68 175.992 77.673 166.226 77.673 166.226 85.68 163.469 85.68 163.469 67.303 163.469 67.303"/><path d="M186.755,83.97353a5.1359,5.1359,0,0,0,3.5437-1.26007V80.40328a6.94126,6.94126,0,0,0-3.439-.814c-1.91641,0-3.09774.86652-3.09774,2.20539,0,1.28633,1.2076,2.17884,2.99305,2.17884Zm-5.51326-2.12625c0-2.52043,2.04767-4.0692,5.40792-4.0692a9.43068,9.43068,0,0,1,3.649.73512V77.09549c0-1.89037-1.1285-2.83541-3.25526-2.83541a9.49806,9.49806,0,0,0-4.1478,1.129l-.97134-1.9689a12.507,12.507,0,0,1,5.487-1.36513c3.46527,0,5.46042,1.7064,5.46042,4.778V85.68h-2.573V84.525a6.3377,6.3377,0,0,1-4.14749,1.39146c-2.9143,0-4.90947-1.65424-4.90947-4.06919Z"/><path d="M197.09834,74.52253h-2.83556V72.31746h2.83556V68.90457l2.59893-.63005v4.04294h3.93814v2.20507h-3.93814v7.24589c0,1.36517.55163,1.8638,1.9689,1.8638a5.15478,5.15478,0,0,0,1.91673-.315v2.2054a8.69909,8.69909,0,0,1-2.49425.39384c-2.599,0-3.99031-1.23411-3.99031-3.54429V74.52253Z"/><path d="M118.07975,113.50711c-4.96163,0-8.13813-3.17649-8.13813-8.21688V94.86785h3.80655v10.42238c0,2.86113,1.70638,4.69911,4.35784,4.69911,2.62552,0,4.30565-1.838,4.30565-4.69911V94.86785h3.80654v10.42238c0,5.01414-3.20274,8.21688-8.13845,8.21688Z"/><path d="M129.02684,99.567h3.59653v1.07667a5.86918,5.86918,0,0,1,3.83246-1.33918,5.18929,5.18929,0,0,1,5.40825,5.43449v8.50565h-3.59653V105.264a2.66693,2.66693,0,0,0-2.83554-2.86147,3.27588,3.27588,0,0,0-2.80864,1.36477v9.47731h-3.59653V99.567Z"/><path d="M148.19048,113.24459H144.594V99.567h3.59651v13.67763Zm-3.85936-17.35291a2.04782,2.04782,0,1,1,2.048,2.04766,2.05054,2.05054,0,0,1-2.048-2.04766Z"/><path d="M157.90341,110.35686a4.38746,4.38746,0,0,0,3.25525-1.3126v-5.32915a4.51383,4.51383,0,0,0-3.25525-1.28668,3.9643,3.9643,0,1,0,0,7.92843Zm3.30775,1.7589a6.20362,6.20362,0,0,1-3.88529,1.3126,7.02279,7.02279,0,0,1,.10467-14.04516,6.799,6.799,0,0,1,3.72812,1.07633V94.86785l3.59685-.7877v19.16444h-3.54435v-1.12883Z"/><path d="M178.03837,106.41906a3.78454,3.78454,0,1,0-3.77995,3.96406,3.8318,3.8318,0,0,0,3.77995-3.96406Zm-3.77995-7.11461a7.104,7.104,0,1,1-7.29872,7.11461,7.12889,7.12889,0,0,1,7.29872-7.11461Z"/><path d="M184.39105,109.228a7.96521,7.96521,0,0,0,4.43659,1.54886c1.60169,0,2.65178-.57755,2.65178-1.44386,0-.70881-.52538-1.10259-1.70639-1.28635l-2.62553-.39378c-2.70364-.42-4.14782-1.75888-4.14782-3.964,0-2.65146,2.20517-4.33159,5.697-4.33159a10.08918,10.08918,0,0,1,5.61793,1.70606l-1.733,2.3105a8.06973,8.06973,0,0,0-4.22626-1.31259c-1.31259,0-2.153.5247-2.153,1.33885,0,.73472.52538,1.10225,1.86423,1.28634l2.62519.39378c2.6777.39346,4.17375,1.78514,4.17375,3.91156,0,2.5727-2.54613,4.51534-5.98547,4.51534a10.08019,10.08019,0,0,1-6.27423-1.89015l1.78515-2.38892Z"/><path d="M61.66492,108.02437h9.65319l-.00033-26.00663H67.19284l-5.52792,26.00663Zm11.12987,2.95335H59.84119a1.477,1.477,0,0,1-1.44431-1.78381l6.15569-28.95982a1.47683,1.47683,0,0,1,1.44464-1.1697h6.79725a1.47665,1.47665,0,0,1,1.47667,1.47668l.00033,28.96a1.47689,1.47689,0,0,1-1.47667,1.47667Z"/><path class="a88c5471-7d5e-46e7-a84b-492a1675fc57" d="M69.803,66.338a3.14948,3.14948,0,1,0,3.14948,3.14946A3.1529,3.1529,0,0,0,69.803,66.338Zm0,9.2523a6.10283,6.10283,0,1,1,6.10283-6.10284A6.10949,6.10949,0,0,1,69.803,75.5903Z"/><path d="M85.37922,97.98232h4.12494l5.528-26.00679H85.37859l.00063,26.00679Zm5.321,2.95335H83.90254A1.47651,1.47651,0,0,1,82.42586,99.459l-.00062-28.96014a1.477,1.477,0,0,1,1.47668-1.47668H96.85565a1.47639,1.47639,0,0,1,1.44419,1.78365L92.14439,99.76615a1.47612,1.47612,0,0,1-1.44419,1.16952Z"/><path class="a88c5471-7d5e-46e7-a84b-492a1675fc57" d="M86.89435,107.36315a3.14943,3.14943,0,1,0,3.14916,3.1496,3.1532,3.1532,0,0,0-3.14916-3.1496Zm0,9.2522a6.10278,6.10278,0,1,1,6.10258-6.1026,6.10947,6.10947,0,0,1-6.10258,6.1026Z"/></svg>