<svg id="ed8ad16f-36bd-47af-8cee-a3861255f2bf" data-name="Layer 1" xmlns="http://www.w3.org/2000/svg" viewBox="0 0 262 180"><defs><style>.a248b602-7b6e-4fc5-95d7-b36f76f1a7fb{fill:#e00;}.e6416cbd-bfc1-4770-ae8f-687e2e7c974b{fill:#f5823d;}.b8bf26d1-3572-4b2a-9ea3-621396c40b53{fill:#fee96b;}.ecdb8304-a2fb-4fdf-b9be-c284b6b62434{fill:#ed1c24;}.b9e96036-1ae0-42fd-b34d-10d620b7c28d{fill:#c0d681;}.a477ccfa-7539-4466-a4d8-8b40e0cf30ee{fill:#5d4ea0;}.b9934c95-87b0-481a-81ad-f4faf7166a7d{fill:#4cb6d6;}</style></defs><path class="a248b602-7b6e-4fc5-95d7-b36f76f1a7fb" d="M57.12687,89.93913a7.04566,7.04566,0,0,1,.24363,1.43009c0,1.978-2.22162,3.07331-5.14237,3.07331-6.60345,0-12.38469-3.86434-12.38469-6.42041a2.60113,2.60113,0,0,1,.213-1.03453c-2.37355.12172-5.44683.54759-5.44683,3.25577,0,4.44252,10.52851,9.91972,18.86592,9.91972,6.39018,0,8.00258-2.89055,8.00258-5.17273,0-1.79557-1.55171-3.83389-4.35121-5.05122m-4.5947,1.6128c1.76513,0,4.32086-.36529,4.32086-2.46482a1.99583,1.99583,0,0,0-.04376-.48307L55.758,84.036c-.24377-1.00412-.45663-1.46067-2.22148-2.34316a20.6081,20.6081,0,0,0-5.23387-1.85595c-.82156,0-1.06478,1.06479-2.03867,1.06479-.94314,0-1.643-.791-2.52547-.791-.85181,0-1.39982.578-1.82576,1.76484,0,0-1.18685,3.3471-1.339,3.83369a.88232.88232,0,0,0-.03135.27417c0,1.30085,5.12317,5.56848,11.98978,5.56848"/><path d="M57.12687,89.93913a7.04566,7.04566,0,0,1,.24363,1.43009c0,1.978-2.22162,3.07331-5.14237,3.07331-6.60345,0-12.38469-3.86434-12.38469-6.42041a2.60113,2.60113,0,0,1,.213-1.03453l.51733-1.27831a.88232.88232,0,0,0-.03135.27417c0,1.30085,5.12317,5.56848,11.98978,5.56848,1.76513,0,4.32086-.36529,4.32086-2.46482a1.99583,1.99583,0,0,0-.04376-.48307l.3176,1.33509Z"/><path d="M66.44232,95.256h2.55319V91.47061h1.94482l1.9595,3.78539H75.75l-2.28613-4.15647a3.14406,3.14406,0,0,0,1.95964-2.92447,3.37367,3.37367,0,0,0-3.66676-3.31042H66.44232V95.256Zm5.07688-8.20914a1.18109,1.18109,0,1,1,0,2.34551H68.99551V87.04686ZM75.6608,91.337a4.12292,4.12292,0,0,0,4.27527,4.06747A4.71226,4.71226,0,0,0,83.21676,94.217l-1.58826-1.4103a2.12722,2.12722,0,0,1-1.57358.59377,2.02929,2.02929,0,0,1-1.92986-1.247h5.59647v-.59376A4.0345,4.0345,0,1,0,75.6608,91.337m4.05266-2.108a1.73678,1.73678,0,0,1,1.64769,1.247H78.08046a1.63557,1.63557,0,0,1,1.633-1.247m10.896,6.027h2.37519V84.34509l-2.40483.51955V87.8188A4.04658,4.04658,0,1,0,88.50143,95.36a3.54172,3.54172,0,0,0,2.108-.68289V95.256Zm-3.75568-3.93378A1.98844,1.98844,0,0,1,88.91712,89.333a2.4333,2.4333,0,0,1,1.66266.60866v2.7463a2.3104,2.3104,0,0,1-1.66266.62348,1.99731,1.99731,0,0,1-2.06338-1.98918M96.58319,95.256h2.55348V91.18857h4.27526V95.256h2.55333V84.86464h-2.55333V88.858H99.13667V84.86464H96.58319V95.256Zm13.04869.13368a3.67472,3.67472,0,0,0,2.16742-.60866v.475h2.37519V90.22366c0-1.915-1.29155-2.969-3.444-2.969a8.73892,8.73892,0,0,0-3.66675.861l.861,1.76648a6.41714,6.41714,0,0,1,2.3752-.62347c.99456,0,1.49934.386,1.49934,1.17279v.386a6.97162,6.97162,0,0,0-1.78136-.22268c-2.01894,0-3.23624.84616-3.23624,2.36031,0,1.38056,1.09846,2.43456,2.85018,2.43456m-.73372-2.47907c0-.51961.51959-.77194,1.30638-.77194a6.03756,6.03756,0,0,1,1.42509.17811v1.00949a3.03528,3.03528,0,0,1-1.49934.37108c-.772,0-1.23213-.29691-1.23213-.78674m7.4731-.04452c0,1.67737,1.00968,2.49394,2.85033,2.49394a7.37632,7.37632,0,0,0,1.67761-.23756V93.17782a3.49452,3.49452,0,0,1-1.08378.16328c-.75714,0-1.039-.23751-1.039-.9501V89.4072h2.19691V87.40312h-2.19691V84.86464l-2.40513.5196v2.01888h-1.5884V89.4072h1.5884v3.45889Z"/><path d="M136.10394,103.8262a.49971.49971,0,0,1-.5-.5V76.67386a.5.5,0,0,1,1,0V103.3262A.49972.49972,0,0,1,136.10394,103.8262Z"/><path d="M183.34558,79.96858v2.99175h2.60815a1.51284,1.51284,0,1,0,0-2.99175Zm-1.34244-1.17627h4.06566a2.684,2.684,0,0,1,2.97909,2.6466,2.528,2.528,0,0,1-1.84122,2.4548l1.99464,3.8484h-1.48323l-1.85368-3.6694h-2.51882v3.6694h-1.34244v-8.9498Z"/><path d="M190.876,83.94482h3.8611a1.94111,1.94111,0,0,0-3.8611,0Zm2.13511,3.91239a3.34881,3.34881,0,0,1-3.41378-3.37537,3.27011,3.27011,0,0,1,3.26036-3.34976,3.22255,3.22255,0,0,1,3.14513,3.40088v.37082h-5.1396a2.19507,2.19507,0,0,0,2.199,1.86664,2.531,2.531,0,0,0,1.64928-.57533l.81825.80546a3.88126,3.88126,0,0,1-2.51867.85666Z"/><path d="M200.41368,86.732a2.34546,2.34546,0,0,0,1.8027-.77987V82.99874a2.37966,2.37966,0,0,0-1.8027-.76716,2.25056,2.25056,0,0,0,0,4.50045Zm1.8155.39643a3.0741,3.0741,0,0,1-1.99449.716,3.35619,3.35619,0,1,1,1.98169-6.07309v-2.979l1.27852-.28124v9.231h-1.26572v-.61365Z"/><polygon points="207.829 78.792 209.171 78.792 209.171 82.628 213.927 82.628 213.927 78.792 215.27 78.792 215.27 87.742 213.927 87.742 213.927 83.843 209.171 83.843 209.171 87.742 207.829 87.742 207.829 78.792 207.829 78.792"/><path d="M219.16927,86.911a2.50237,2.50237,0,0,0,1.726-.61365V85.17222a3.38066,3.38066,0,0,0-1.675-.39634c-.93315,0-1.50848.42193-1.50848,1.074,0,.62646.58811,1.06118,1.45749,1.06118Zm-2.685-1.03558c0-1.2274.9974-1.98175,2.63389-1.98175a4.59356,4.59356,0,0,1,1.77713.358v-.69044c0-.92057-.54976-1.38082-1.58535-1.38082a4.62652,4.62652,0,0,0-2.0202.54976l-.47306-.95889a6.09177,6.09177,0,0,1,2.67225-.66485c1.6878,0,2.65947.83106,2.65947,2.327v4.30865h-1.25311v-.56255a3.08725,3.08725,0,0,1-2.02.67765c-1.41931,0-2.391-.80554-2.391-1.98175Z"/><path d="M224.20677,82.30829h-1.381V81.23438h1.381V79.57224l1.26572-.30682v1.969h1.91793v1.07391h-1.91793v3.52877c0,.66486.26849.90778.95889.90778a2.51134,2.51134,0,0,0,.93331-.15342v1.074a4.23266,4.23266,0,0,1-1.21459.19182c-1.26573,0-1.94333-.60093-1.94333-1.726V82.30829Z"/><path d="M183.7547,93.8149v2.442H186.184a1.22542,1.22542,0,1,0,0-2.442Zm-1.85384-1.59831h4.48757a2.79511,2.79511,0,1,1,0,5.57448H183.7547v3.37543h-1.85384V92.21659Z"/><path d="M190.49245,94.50514H192.244v.72891a2.11882,2.11882,0,0,1,1.77712-.88217,1.51337,1.51337,0,0,1,.72876.15326v1.53453a2.23209,2.23209,0,0,0-.895-.17915,1.763,1.763,0,0,0-1.61092.99724v4.30874h-1.75156V94.50514Z"/><path d="M197.44754,101.1665H195.696V94.50514h1.75155v6.66136ZM195.568,92.71539a.99732.99732,0,1,1,.9974.99723.99865.99865,0,0,1-.9974-.99723Z"/><path d="M202.17787,99.76a2.13615,2.13615,0,0,0,1.58535-.63926V96.52535a2.19881,2.19881,0,0,0-1.58535-.62648,1.9306,1.9306,0,1,0,0,3.86111Zm1.61093.8566a3.02,3.02,0,0,1-1.89221.63926,3.42012,3.42012,0,0,1,.051-6.84,3.31122,3.31122,0,0,1,1.81564.52418v-2.7234l1.75173-.38346v9.33337H203.7888v-.54992Z"/><path d="M208.34013,97.17739h3.26036a1.71885,1.71885,0,0,0-1.6237-1.3426,1.6735,1.6735,0,0,0-1.63666,1.3426Zm1.82843,4.117a3.46806,3.46806,0,0,1-3.58015-3.45214,3.40029,3.40029,0,0,1,3.42657-3.452,3.362,3.362,0,0,1,3.29856,3.58v.46011h-4.96062a1.91922,1.91922,0,0,0,1.8922,1.39358,2.09692,2.09692,0,0,0,1.47028-.53682l1.15082,1.04837a3.99329,3.99329,0,0,1-2.69766.95889Z"/><path class="e6416cbd-bfc1-4770-ae8f-687e2e7c974b" d="M156.23292,87.13422a.71928.71928,0,0,1-.33351-1.35677,20.34328,20.34328,0,0,1,7.182-2.17451.71917.71917,0,0,1,.15278,1.43021,18.89247,18.89247,0,0,0-6.66895,2.01922.7161.7161,0,0,1-.33227.08185Z"/><path class="b8bf26d1-3572-4b2a-9ea3-621396c40b53" d="M157.05165,90.13322a.71922.71922,0,0,1-.33445-1.35622,20.34171,20.34171,0,0,1,7.14731-2.1816.71918.71918,0,0,1,.15716,1.42974,18.89,18.89,0,0,0-6.63665,2.02568.71637.71637,0,0,1-.33337.0824Z"/><path class="ecdb8304-a2fb-4fdf-b9be-c284b6b62434" d="M155.42854,84.142a.71927.71927,0,0,1-.34133-1.35264,20.32192,20.32192,0,0,1,7.14076-2.25691.71919.71919,0,0,1,.1709,1.42819,18.86953,18.86953,0,0,0-6.63026,2.09537.71607.71607,0,0,1-.34007.086Z"/><path class="b9e96036-1ae0-42fd-b34d-10d620b7c28d" d="M170.52722,84.87076c-.01885,0-.03771-.0007-.05689-.00217a15.934,15.934,0,0,0-2.17043-.01453.71917.71917,0,1,1-.08246-1.436,17.34838,17.34838,0,0,1,2.36492.01654.71916.71916,0,0,1-.05514,1.43613Z"/><path class="a477ccfa-7539-4466-a4d8-8b40e0cf30ee" d="M172.03155,90.9376c-.02269,0-.04539-.00093-.0684-.00311a20.78506,20.78506,0,0,0-2.34175-.08788l-.01406.00017a.71915.71915,0,0,1-.01359-1.43817,22.22448,22.22448,0,0,1,2.50445.0938.71918.71918,0,0,1-.06665,1.43519Z"/><path class="b9934c95-87b0-481a-81ad-f4faf7166a7d" d="M171.26221,87.84364l-.04107-.00117c-.75113-.0423-1.5128-.05854-2.26472-.04831l-.01007.00008a.71916.71916,0,0,1-.00943-1.43825c.78532-.01038,1.58056.00631,2.36508.05049a.71915.71915,0,0,1-.03979,1.43716Z"/><path d="M153.483,81.75a26.77626,26.77626,0,0,1,9.97494-3.4243l2.34647,11.03965a28.17991,28.17991,0,0,0-9.94824,3.52516L153.483,81.75Zm-2.13626-1.754a.87665.87665,0,1,1,.38.5531.87139.87139,0,0,1-.38-.5531Zm4.82578,14.37963A26.79916,26.79916,0,0,1,166.759,90.68337a.7192.7192,0,0,0,.61272-.8629l-2.64383-12.43809a.71844.71844,0,0,0-.78253-.56528,28.21661,28.21661,0,0,0-9.44041,2.75352,2.31581,2.31581,0,1,0-2.41266,2.55382l2.54922,11.96694a.71459.71459,0,0,0,.03871.18219l1.73235,8.13244a.71917.71917,0,1,0,1.40679-.29965l-1.64682-7.73067Z"/><path d="M176.06973,93.53411l-2.87665-12.35249-.00751-.02933-.07687-.27625a.7191.7191,0,0,0-.60953-.52189,28.51832,28.51832,0,0,0-4.80928-.15115.71916.71916,0,1,0,.07655,1.43629,27.09126,27.09126,0,0,1,4.07749.09107l2.5818,11.08634a28.71108,28.71108,0,0,0-12.26985.7107.71919.71919,0,1,0,.38954,1.38463,27.22645,27.22645,0,0,1,12.6228-.501.71951.71951,0,0,0,.23908.00687l.06073-.00831a.71921.71921,0,0,0,.6017-.87546Z"/></svg>