<svg id="aba9e44f-63a9-4c66-8d02-336dbfc232f8" data-name="Layer 1" xmlns="http://www.w3.org/2000/svg" viewBox="0 0 262 180"><defs><style>.b8c7e560-8ea6-4873-ab12-b1fbe4ec3d00{fill:#f7823c;}</style></defs><path d="M176.27032,92.66209H156.87044a2.65914,2.65914,0,0,1,0-5.31828h19.39988a2.65914,2.65914,0,1,1,0,5.31828Z"/><path d="M163.3351,82.95919h-6.46466a2.65914,2.65914,0,1,1,0-5.31827h6.46466a2.65914,2.65914,0,0,1,0,5.31827Z"/><path d="M163.3351,102.34725h-6.46466a2.65914,2.65914,0,1,1,0-5.31827h6.46466a2.65914,2.65914,0,0,1,0,5.31827Z"/><path d="M105.12956,92.66209H85.72968a2.65914,2.65914,0,0,1,0-5.31828h19.39988a2.65914,2.65914,0,1,1,0,5.31828Z"/><path d="M105.12956,102.34725H98.6649a2.65914,2.65914,0,0,1,0-5.31827h6.46466a2.65914,2.65914,0,1,1,0,5.31827Z"/><path d="M105.12956,82.95919H98.6649a2.65914,2.65914,0,0,1,0-5.31827h6.46466a2.65914,2.65914,0,1,1,0,5.31827Z"/><path d="M131,66.79164a2.65323,2.65323,0,0,1-2.65914-2.6473c0-.00394,0-.00789,0-.01183V44.73263a2.65914,2.65914,0,1,1,5.31828,0V64.13251A2.65913,2.65913,0,0,1,131,66.79164Z"/><path d="M121.29711,66.79164a2.65913,2.65913,0,0,1-2.65914-2.65913V57.66785a2.65914,2.65914,0,1,1,5.31827,0v6.46466a2.65321,2.65321,0,0,1-2.6473,2.65913C121.305,66.79165,121.30105,66.79165,121.29711,66.79164Z"/><path d="M140.697,66.79164a2.65913,2.65913,0,0,1-2.65913-2.65913V57.66785a2.65914,2.65914,0,1,1,5.31827,0v6.46466a2.65322,2.65322,0,0,1-2.64731,2.65913Q140.7029,66.79166,140.697,66.79164Z"/><path d="M131,137.9265a2.65324,2.65324,0,0,1-2.65914-2.64731c0-.00394,0-.00789,0-.01183V115.86748a2.65914,2.65914,0,0,1,5.31828,0h0v19.39987A2.65915,2.65915,0,0,1,131,137.9265Z"/><path d="M140.697,124.99718a2.665,2.665,0,0,1-2.65913-2.65913v-6.50011a2.65914,2.65914,0,1,1,5.31827,0h0v6.50011A2.65913,2.65913,0,0,1,140.697,124.99718Z"/><path d="M121.29711,124.99718a2.665,2.665,0,0,1-2.65914-2.65913v-6.50011a2.65914,2.65914,0,1,1,5.31827,0h0v6.50011A2.65913,2.65913,0,0,1,121.29711,124.99718Z"/><path class="b8c7e560-8ea6-4873-ab12-b1fbe4ec3d00" d="M131.03547,71.19411A18.82667,18.82667,0,1,0,149.84455,90.003,18.82679,18.82679,0,0,0,131.03547,71.19411Zm0,32.335a13.50843,13.50843,0,1,1-.0354-27.01684v-.01782a13.51734,13.51734,0,0,1,.0354,27.03466Z"/></svg>