<svg id="be59c251-6f15-44a6-9cd6-c9106d426634" data-name="Layer 1" xmlns="http://www.w3.org/2000/svg" viewBox="0 0 262 180"><defs><style>.e62bfb90-4dbc-4d6a-a715-3b7d9426eb0c{fill:#5e40be;}</style></defs><path d="M100.73643,57.69237h7.47935c3.26928,0,5.48016,1.97568,5.48016,4.86863a4.66079,4.66079,0,0,1-3.38688,4.51584l3.66912,7.07951h-2.71656l-3.4104-6.74435h-4.63344v6.762h-2.48135Zm2.46959,2.16384V65.354h4.79808c1.92864,0,3.19872-1.10544,3.19872-2.75184s-1.27008-2.75183-3.19872-2.75183Z"/><path d="M120.99889,74.368a6.174,6.174,0,0,1-6.279-6.06713q-.00123-.07107-.00081-.14214a6.033,6.033,0,0,1,5.9976-6.174c3.2928,0,5.78591,2.72831,5.78591,6.25631v.68208h-9.455a4.03958,4.03958,0,0,0,4.04544,3.43392,4.657,4.657,0,0,0,3.03408-1.0584l1.50528,1.47A7.14126,7.14126,0,0,1,120.99889,74.368Zm-3.92784-7.19711h7.103a3.57094,3.57094,0,0,0-7.103,0Z"/><path d="M137.95679,73.02739a5.65355,5.65355,0,0,1-3.66912,1.31712,6.17865,6.17865,0,1,1,3.65736-11.172V57.69237l2.352-.51744V74.15635h-2.34024Zm-3.33983-.72912a4.31294,4.31294,0,0,0,3.31632-1.43471V65.43044a4.37767,4.37767,0,0,0-3.31632-1.4112,4.00723,4.00723,0,0,0-4.07,3.94349q-.00137.08625.001.17251a4.04836,4.04836,0,0,0,3.932,4.16147q.06843.00193.13691.00157Z"/><path d="M148.25855,57.69237h2.45783v7.056h8.76119v-7.056h2.46959v16.464h-2.46959V66.98276h-8.76119v7.17359h-2.4696Z"/><path d="M164.18156,70.72244c0-2.25792,1.83456-3.6456,4.84512-3.6456a8.45239,8.45239,0,0,1,3.26928.65856V66.46532c0-1.69344-1.01136-2.54016-2.91648-2.54016a8.35028,8.35028,0,0,0-3.71616,1.01136l-.882-1.764a11.20461,11.20461,0,0,1,4.91567-1.223c3.10464,0,4.89215,1.5288,4.89215,4.28064v7.938H172.296V73.12147A5.68,5.68,0,0,1,168.5798,74.368C165.96909,74.368,164.18156,72.88628,164.18156,70.72244Zm4.9392,1.90512a4.60405,4.60405,0,0,0,3.17519-1.129v-2.058a6.21812,6.21812,0,0,0-3.08112-.72912c-1.717,0-2.77536.77616-2.77536,1.97568,0,1.13484,1.08194,1.94039,2.6813,1.94039Z"/><path d="M178.38763,64.16036h-2.54016V62.18469h2.54016v-3.0576l2.31672-.56448v3.62208h3.528v1.97567h-3.528V70.646c0,1.223.49392,1.66992,1.764,1.66992a4.62193,4.62193,0,0,0,1.717-.294v1.97567a7.79072,7.79072,0,0,1-2.2344.3528c-2.32848,0-3.575-1.10544-3.575-3.17519Z"/><path d="M103.33538,98.85233l-3.64559-16.464h3.50447l2.2344,11.172,3.234-11.172h3.187l3.19871,11.12495,2.2344-11.12495h3.38687l-3.64559,16.464h-3.575L110.1797,87.35106l-3.26928,11.50127Z"/><path d="M127.3728,86.36322a6.36453,6.36453,0,1,1-6.53855,6.37392A6.38692,6.38692,0,0,1,127.3728,86.36322Zm3.38688,6.37392a3.39069,3.39069,0,1,0-3.38688,3.55151A3.4258,3.4258,0,0,0,130.75968,92.73714Z"/><path d="M135.887,86.59842h3.234v.91728a4.76575,4.76575,0,0,1,3.19872-1.15248,4.41,4.41,0,0,1,3.69263,1.83456,5.0421,5.0421,0,0,1,4.04544-1.83456,4.57126,4.57126,0,0,1,4.68048,4.86864v7.62047h-3.234V91.70226a2.28072,2.28072,0,0,0-2.305-2.56368,2.7577,2.7577,0,0,0-2.352,1.223,5.21523,5.21523,0,0,1,.07056.882v7.62047h-3.234V91.70226a2.28072,2.28072,0,0,0-2.30495-2.56368,2.73419,2.73419,0,0,0-2.28145,1.10544v8.60831h-3.234Z"/><path d="M163.21725,99.08753a6.37941,6.37941,0,0,1-6.5856-6.35039,6.25632,6.25632,0,0,1,6.16135-6.34987q.071-.00106.142-.00053c3.481,0,6.06816,2.8224,6.06816,6.5856v.84672h-9.114a3.528,3.528,0,0,0,3.46919,2.56367,3.85721,3.85721,0,0,0,2.7048-.98784l2.1168,1.92864A7.35,7.35,0,0,1,163.21725,99.08753ZM159.85389,91.52h5.99759a3.14834,3.14834,0,0,0-2.987-2.4696A3.066,3.066,0,0,0,159.85389,91.52Z"/><path d="M170.97885,86.59842h3.234v.96432a5.25964,5.25964,0,0,1,3.43392-1.19952,4.64911,4.64911,0,0,1,4.84512,4.86864v7.62047h-3.234V91.70226a2.38931,2.38931,0,0,0-2.54016-2.56368,2.94,2.94,0,0,0-2.51664,1.223v8.49071h-3.234Z"/><path d="M189.04218,81.424,186.502,87.598h-2.42256l1.62288-6.174Z"/><path d="M189.81834,95.25377a7.13552,7.13552,0,0,0,3.97489,1.38768c1.43472,0,2.37552-.51744,2.37552-1.29359,0-.635-.47039-.98784-1.5288-1.15248l-2.352-.3528c-2.42256-.37632-3.71616-1.57584-3.71616-3.55152,0-2.37552,1.97567-3.88079,5.10383-3.88079a9.04048,9.04048,0,0,1,5.03327,1.52879l-1.55232,2.058a7.23432,7.23432,0,0,0-3.78672-1.176c-1.176,0-1.92864.4704-1.92864,1.19952,0,.65856.47039.98784,1.66992,1.15248l2.352.3528c2.399.3528,3.73967,1.59936,3.73967,3.50448,0,2.305-2.28144,4.04543-5.36255,4.04543a9.03061,9.03061,0,0,1-5.62127-1.69344Z"/><path d="M100.56,107.08432h3.4104v13.45343h9.00816v3.01056H100.56Z"/><path d="M120.62257,123.78351a6.37941,6.37941,0,0,1-6.58559-6.3504,6.25631,6.25631,0,0,1,6.16134-6.34986q.071-.00108.142-.00053c3.481,0,6.06814,2.8224,6.06814,6.58559v.84672h-9.114a3.528,3.528,0,0,0,3.481,2.56368,3.8573,3.8573,0,0,0,2.7048-.98784l2.1168,1.92864A7.35,7.35,0,0,1,120.62257,123.78351Zm-3.36336-7.56756h5.9976a3.14835,3.14835,0,0,0-2.987-2.46959A3.066,3.066,0,0,0,117.25921,116.216Z"/><path d="M127.74912,119.99679c0-2.32848,1.8816-3.71615,5.03328-3.71615a9.91041,9.91041,0,0,1,2.987.4704v-.882c0-1.4112-.882-2.14032-2.5872-2.14032a9.49618,9.49618,0,0,0-3.73968,1.01136l-1.176-2.37552a12.77732,12.77732,0,0,1,5.45663-1.31712c3.31632,0,5.22144,1.6464,5.22144,4.53936v7.938h-3.1752v-.84672a5.82412,5.82412,0,0,1-3.55151,1.0584C129.58368,123.76,127.74912,122.23119,127.74912,119.99679Zm5.31551,1.47a4.63935,4.63935,0,0,0,2.70481-.77616v-1.83456a7.12067,7.12067,0,0,0-2.5872-.44688c-1.47,0-2.352.588-2.352,1.5288s.87024,1.517,2.24616,1.517Z"/><path d="M150.54,122.537a5.55663,5.55663,0,0,1-3.481,1.176,6.29177,6.29177,0,0,1,.09409-12.58319h0a6.09164,6.09164,0,0,1,3.33983.9702v-4.998l3.234-.70559V123.566H150.54Zm-2.96351-1.57584a3.9308,3.9308,0,0,0,2.91648-1.176v-4.77456a4.04544,4.04544,0,0,0-2.91648-1.15247,3.55152,3.55152,0,1,0,0,7.103Z"/><path d="M162.27645,123.78351a6.37941,6.37941,0,0,1-6.58559-6.3504,6.25631,6.25631,0,0,1,6.16134-6.34986q.071-.00108.142-.00053c3.481,0,6.06815,2.8224,6.06815,6.58559v.84672h-9.114a3.528,3.528,0,0,0,3.481,2.56368,3.8573,3.8573,0,0,0,2.7048-.98784l2.1168,1.92864A7.35,7.35,0,0,1,162.27645,123.78351Zm-3.36336-7.56756h5.9976a3.14835,3.14835,0,0,0-2.987-2.46959A3.066,3.066,0,0,0,158.91309,116.216Z"/><path d="M170.038,111.2944h3.234V112.635a3.89842,3.89842,0,0,1,3.26928-1.62288,2.77521,2.77521,0,0,1,1.34063.294v2.8224a4.11592,4.11592,0,0,0-1.6464-.32928,3.234,3.234,0,0,0-2.97527,1.82868v7.938h-3.234Z"/><path d="M180.31627,119.94975a7.13551,7.13551,0,0,0,3.97487,1.38768c1.43472,0,2.37552-.51744,2.37552-1.2936,0-.635-.4704-.98784-1.5288-1.15248l-2.352-.35279c-2.42256-.37632-3.71616-1.57584-3.71616-3.55152,0-2.37552,1.97568-3.8808,5.10383-3.8808a9.04046,9.04046,0,0,1,5.03327,1.5288l-1.55232,2.058a7.23426,7.23426,0,0,0-3.78671-1.176c-1.176,0-1.92864.4704-1.92864,1.19952,0,.65856.4704.98784,1.66991,1.15248l2.352.3528c2.399.35279,3.73968,1.59936,3.73968,3.50447,0,2.305-2.28144,4.04544-5.36255,4.04544a9.03064,9.03064,0,0,1-5.62128-1.69344Z"/><path d="M191.28834,107.08432l3.234-.70559v5.88a5.25962,5.25962,0,0,1,3.43391-1.19952,4.64909,4.64909,0,0,1,4.84511,4.86864v7.62047h-3.234v-7.15008a2.38931,2.38931,0,0,0-2.54016-2.56367,2.94,2.94,0,0,0-2.51664,1.223v8.49071h-3.22223Z"/><path d="M205.01225,108.0016a1.83456,1.83456,0,1,1,1.83455,1.83456h0A1.83749,1.83749,0,0,1,205.01225,108.0016Zm3.45744,15.54671h-3.234V111.2944h3.234Z"/><path d="M210.98632,111.2944h3.17226v1.01136a5.56834,5.56834,0,0,1,3.481-1.176,6.29176,6.29176,0,0,1-.09114,12.58319,6.0917,6.0917,0,0,1-3.32808-.96432V128.464h-3.234Zm3.234,3.74556v4.82159a4.116,4.116,0,0,0,2.91353,1.129,3.55152,3.55152,0,1,0,0-7.103A3.94549,3.94549,0,0,0,214.22032,115.04Z"/><path class="e62bfb90-4dbc-4d6a-a715-3b7d9426eb0c" d="M88.5766,99.22571a1.32593,1.32593,0,0,1-.93492-.38514L64.007,75.20593,40.3724,98.84057a1.32322,1.32322,0,1,1-1.86984-1.87278L63.07212,72.41a1.32,1.32,0,0,1,1.86684-.003l.003.003L89.51152,96.97955a1.323,1.323,0,0,1-.93492,2.25792Z"/><path d="M51.05047,80.80075a1.323,1.323,0,0,1-1.176-.74676,15.65549,15.65549,0,1,1,29.78806-6.72084A15.485,15.485,0,0,1,78.15431,80.054a1.3236,1.3236,0,1,1-2.39022-1.13778,12.85663,12.85663,0,0,0,1.25244-5.586A13.0095,13.0095,0,1,0,52.25,78.91621a1.323,1.323,0,0,1-.62681,1.76288l-.00235.00112A1.29667,1.29667,0,0,1,51.05047,80.80075Z"/><path d="M84.48118,74.65615a1.28717,1.28717,0,0,1-.25872-.02646,1.26814,1.26814,0,0,1-.47628-.197,1.32327,1.32327,0,0,1-.19991-.16464,1.085,1.085,0,0,1-.16464-.19992,1.31151,1.31151,0,0,1-.12054-.22932,1.20251,1.20251,0,0,1-.07644-.247,1.267,1.267,0,0,1-.02646-.25872,1.28789,1.28789,0,0,1,.02646-.25872,1.26123,1.26123,0,0,1,.07644-.247,1.42266,1.42266,0,0,1,.12054-.22932,1.32265,1.32265,0,0,1,.16464-.19992,1.52679,1.52679,0,0,1,.19991-.16464,1.42276,1.42276,0,0,1,.23226-.1176,1.49529,1.49529,0,0,1,.247-.07644A1.34945,1.34945,0,0,1,85.419,72.41a1.50235,1.50235,0,0,1,.1617.19992,1.23748,1.23748,0,0,1,.12348.22931,1.4972,1.4972,0,0,1,.07644.247,1.54056,1.54056,0,0,1,.02352.25872,1.32006,1.32006,0,0,1-1.31712,1.323h-.00588Z"/><path d="M43.5329,74.65615a1.323,1.323,0,1,1,1.09956-2.058,1.42336,1.42336,0,0,1,.12054.22931,1.26191,1.26191,0,0,1,.07644.247,1.28789,1.28789,0,0,1,.02646.25872,1.32891,1.32891,0,0,1-.588,1.09956,1.23788,1.23788,0,0,1-.22932.12348,1.49624,1.49624,0,0,1-.247.07644A1.54037,1.54037,0,0,1,43.5329,74.65615Z"/><path d="M64.007,54.182a1.323,1.323,0,1,1,.93492-2.25792,1.19109,1.19109,0,0,1,.16464.19992,1.72382,1.72382,0,0,1,.12348.22932,1.40606,1.40606,0,0,1,.0735.247A1.28789,1.28789,0,0,1,65.33,52.859,1.32594,1.32594,0,0,1,64.007,54.182Z"/><path d="M49.67455,60.32367a1.33186,1.33186,0,0,1-.93492-.38808,1.08538,1.08538,0,0,1-.16464-.19992,1.41142,1.41142,0,0,1-.197-.47628,1.26836,1.26836,0,0,1-.02646-.25872,1.323,1.323,0,1,1,2.646,0,1.267,1.267,0,0,1-.02646.25872,1.40521,1.40521,0,0,1-.0735.247,1.42263,1.42263,0,0,1-.12348.22932,1.085,1.085,0,0,1-.16464.19992,1.32286,1.32286,0,0,1-.19992.16464,1.23757,1.23757,0,0,1-.22932.12348,1.415,1.415,0,0,1-.247.07644A1.54142,1.54142,0,0,1,49.67455,60.32367Z"/><path d="M78.33953,60.32367a1.326,1.326,0,0,1-1.323-1.323A1.28782,1.28782,0,0,1,77.043,58.742a1.261,1.261,0,0,1,.07644-.247,1.2849,1.2849,0,0,1,.12054-.22638,1.21034,1.21034,0,0,1,.16464-.20286A1.34062,1.34062,0,0,1,78.59825,57.71a1.414,1.414,0,0,1,.247.07644,1.3108,1.3108,0,0,1,.22932.12054,1.35215,1.35215,0,0,1,.19992.16464,1.21034,1.21034,0,0,1,.16464.20286,1.52628,1.52628,0,0,1,.12348.22638,1.48474,1.48474,0,0,1,.0735.247,1.28782,1.28782,0,0,1,.02646.25872,1.267,1.267,0,0,1-.02646.25872,1.40606,1.40606,0,0,1-.0735.247,1.55823,1.55823,0,0,1-.12348.22932,1.085,1.085,0,0,1-.16464.19992,1.32286,1.32286,0,0,1-.19992.16464,1.1494,1.1494,0,0,1-.22932.12348,1.19376,1.19376,0,0,1-.247.0735A1.28818,1.28818,0,0,1,78.33953,60.32367Z"/></svg>