<svg xmlns="http://www.w3.org/2000/svg" viewBox="0 0 555 309">
  <defs>
    <style>
      .a7057559-f624-418c-af6f-be8bf4b38efd {
        fill: #fff;
      }

      .fd66b0bc-1bec-433d-83d4-773584d26a1c {
        fill: #c9c9c9;
      }

      .f1c59381-ac9b-4f3a-9597-2a7b9aa474f1 {
        fill: #1a1a1a;
      }

      .f0b8780a-9395-4142-98a3-b74066d2050f {
        fill: #06c;
        opacity: 0.3;
      }
    </style>
  </defs>
  <g id="fb4ef5bb-2ddc-47dd-80c0-5ec3dce09727" data-name="Layer 1">
    <g>
      <rect class="a7057559-f624-418c-af6f-be8bf4b38efd" x="119.148" y="32.752" width="316.705" height="243.496" rx="3"/>
      <path class="fd66b0bc-1bec-433d-83d4-773584d26a1c" d="M432.852,276.748h-310.7a3.5,3.5,0,0,1-3.5-3.5V35.752a3.5,3.5,0,0,1,3.5-3.5h310.7a3.5,3.5,0,0,1,3.5,3.5v237.5A3.5,3.5,0,0,1,432.852,276.748Zm-310.7-243.5a2.5,2.5,0,0,0-2.5,2.5v237.5a2.5,2.5,0,0,0,2.5,2.5h310.7a2.5,2.5,0,0,0,2.5-2.5V35.752a2.5,2.5,0,0,0-2.5-2.5Z"/>
    </g>
    <g>
      <path class="f1c59381-ac9b-4f3a-9597-2a7b9aa474f1" d="M153.412,78.2H141.42a.6.6,0,0,1-.6-.6V65.607a.6.6,0,0,1,.176-.424l4.8-4.8a.6.6,0,0,1,.424-.176h7.195a.6.6,0,0,1,.6.6V77.6A.6.6,0,0,1,153.412,78.2ZM142.019,77h10.794V61.409h-6.348l-4.446,4.446Z"/>
      <path class="f1c59381-ac9b-4f3a-9597-2a7b9aa474f1" d="M146.217,66.206h-4.8a.6.6,0,1,1,0-1.2h4.2v-4.2a.6.6,0,1,1,1.2,0v4.8A.6.6,0,0,1,146.217,66.206Z"/>
    </g>
    <g>
      <path class="f1c59381-ac9b-4f3a-9597-2a7b9aa474f1" d="M170.925,64.427h1.948l3.8,9.806h-1.808l-.994-2.746h-4.034l-1.009,2.746h-1.751Zm2.452,5.744L171.864,66l-1.541,4.174Z"/>
      <path class="f1c59381-ac9b-4f3a-9597-2a7b9aa474f1" d="M177.923,64.427h4.357a2.989,2.989,0,0,1,3.277,2.97,2.787,2.787,0,0,1-1.932,2.69l2.059,4.146h-1.863l-1.892-3.923H179.6v3.923h-1.681Zm1.681,1.415v3.124h2.536a1.57,1.57,0,1,0,0-3.124Z"/>
      <path class="f1c59381-ac9b-4f3a-9597-2a7b9aa474f1" d="M186.351,64.427h8.236v1.457h-3.263v8.349h-1.681V65.884h-3.292Z"/>
      <path class="f1c59381-ac9b-4f3a-9597-2a7b9aa474f1" d="M196.04,64.427h1.68v9.806h-1.68Z"/>
      <path class="f1c59381-ac9b-4f3a-9597-2a7b9aa474f1" d="M207.286,71.586l1.106,1.064a5.033,5.033,0,1,1,.042-6.64L207.3,67.131a3.449,3.449,0,1,0-2.632,5.729A3.325,3.325,0,0,0,207.286,71.586Z"/>
      <path class="f1c59381-ac9b-4f3a-9597-2a7b9aa474f1" d="M210.124,64.427h1.68v8.349h5.225v1.457h-6.905Z"/>
      <path class="f1c59381-ac9b-4f3a-9597-2a7b9aa474f1" d="M218.874,64.427h7.017v1.429h-5.337v2.732h3.726v1.4h-3.726V72.8h5.393v1.429h-7.073Z"/>
    </g>
    <g>
      <path class="f1c59381-ac9b-4f3a-9597-2a7b9aa474f1" d="M139.86,100.253h15.159v1.794h-6.578v16.407h-2V102.047H139.86Z"/>
      <path class="f1c59381-ac9b-4f3a-9597-2a7b9aa474f1" d="M157.1,100.253l1.924-.442v7.15a5.157,5.157,0,0,1,4.109-1.794,4.8,4.8,0,0,1,5.018,5.045v8.242h-1.9V110.6a3.429,3.429,0,0,0-3.64-3.744,4.052,4.052,0,0,0-3.589,2v9.595H157.1Z"/>
      <path class="f1c59381-ac9b-4f3a-9597-2a7b9aa474f1" d="M177.482,118.687a6.638,6.638,0,0,1-6.709-6.76,6.519,6.519,0,0,1,6.423-6.708c3.458,0,6.162,2.964,6.162,6.708v.6H172.671A4.9,4.9,0,0,0,177.56,117a5.679,5.679,0,0,0,3.588-1.2l1.195,1.275A7.706,7.706,0,0,1,177.482,118.687Zm-4.758-7.7h8.709a4.364,4.364,0,0,0-8.709,0Z"/>
      <path class="f1c59381-ac9b-4f3a-9597-2a7b9aa474f1" d="M191.287,101.631a1.3,1.3,0,0,1,1.3-1.3,1.288,1.288,0,0,1,1.3,1.3,1.3,1.3,0,0,1-1.3,1.3A1.321,1.321,0,0,1,191.287,101.631Zm2.262,16.823h-1.923V105.427h1.923Z"/>
      <path class="f1c59381-ac9b-4f3a-9597-2a7b9aa474f1" d="M196.826,105.427h1.924v1.534a5.154,5.154,0,0,1,4.108-1.794,4.8,4.8,0,0,1,5.019,5.045v8.242h-1.9V110.6a3.429,3.429,0,0,0-3.641-3.744,4.049,4.049,0,0,0-3.587,2v9.595h-1.924Z"/>
      <path class="f1c59381-ac9b-4f3a-9597-2a7b9aa474f1" d="M221.265,117.076a6.051,6.051,0,0,1-4.212,1.586A6.722,6.722,0,1,1,221.24,106.7v-6.448l1.924-.442v18.643h-1.9Zm-4.029-.1a5.048,5.048,0,0,0,4-1.82V108.7a5.151,5.151,0,0,0-4-1.794A4.816,4.816,0,0,0,212.4,111.9,4.883,4.883,0,0,0,217.236,116.971Z"/>
      <path class="f1c59381-ac9b-4f3a-9597-2a7b9aa474f1" d="M228.285,113.279a3.429,3.429,0,0,0,3.64,3.744A4.017,4.017,0,0,0,235.513,115v-9.569h1.924v13.027h-1.924v-1.509a5.158,5.158,0,0,1-4.082,1.769,4.8,4.8,0,0,1-5.044-5.044v-8.243h1.9Z"/>
      <path class="f1c59381-ac9b-4f3a-9597-2a7b9aa474f1" d="M240.557,115.412a6.239,6.239,0,0,0,4.238,1.741c2.081,0,3.537-.962,3.537-2.34,0-1.118-.754-1.742-2.418-1.975l-2.262-.313c-2.6-.39-3.849-1.534-3.849-3.51,0-2.184,2.029-3.8,4.888-3.8a8.33,8.33,0,0,1,5.123,1.716l-1.014,1.3a7.31,7.31,0,0,0-4.213-1.456c-1.793,0-3.015.884-3.015,2.158,0,1.118.7,1.664,2.418,1.924l2.262.313c2.6.363,3.9,1.534,3.9,3.536,0,2.261-2.289,3.977-5.278,3.977a7.924,7.924,0,0,1-5.487-2.027Z"/>
      <path class="f1c59381-ac9b-4f3a-9597-2a7b9aa474f1" d="M253.662,107.065h-2.809v-1.638h2.809v-3.3l1.9-.494v3.8h3.926v1.638H255.56v7.983c0,1.4.571,1.95,2,1.95a4.644,4.644,0,0,0,1.9-.338v1.689a7.366,7.366,0,0,1-2.289.338c-2.261,0-3.509-1.092-3.509-3.145Z"/>
      <path class="f1c59381-ac9b-4f3a-9597-2a7b9aa474f1" d="M261.539,105.427h1.923v1.846a4.067,4.067,0,0,1,3.641-2.132,3.563,3.563,0,0,1,1.223.182v1.769a4.209,4.209,0,0,0-1.353-.235,3.688,3.688,0,0,0-3.511,2.678v8.919h-1.923Z"/>
      <path class="f1c59381-ac9b-4f3a-9597-2a7b9aa474f1" d="M274.591,118.427l-5.3-13h2.133l4.21,10.686,4.551-10.686h2.08L275.787,120.4c-1.117,2.521-2.34,3.536-4.42,3.536a5.009,5.009,0,0,1-1.223-.131v-1.741a4.507,4.507,0,0,0,1.093.1c1.17,0,1.975-.651,2.6-2.029Z"/>
      <path class="f1c59381-ac9b-4f3a-9597-2a7b9aa474f1" d="M289.046,111.876a6.539,6.539,0,0,1,6.553-6.683,6.441,6.441,0,0,1,4.108,1.534v-1.3h1.9v13.338c0,3.328-2,5.175-5.616,5.175a10.219,10.219,0,0,1-5.1-1.352l.832-1.508a8.6,8.6,0,0,0,4.187,1.2c2.469,0,3.77-1.2,3.77-3.484V117.05a6.327,6.327,0,0,1-4.135,1.507A6.528,6.528,0,0,1,289.046,111.876Zm6.657,4.992a4.906,4.906,0,0,0,3.978-1.8v-6.4a5,5,0,0,0-3.978-1.768,4.985,4.985,0,0,0,0,9.959Z"/>
      <path class="f1c59381-ac9b-4f3a-9597-2a7b9aa474f1" d="M306.726,113.279a3.429,3.429,0,0,0,3.641,3.744A4.019,4.019,0,0,0,313.955,115v-9.569h1.923v13.027h-1.923v-1.509a5.162,5.162,0,0,1-4.082,1.769,4.8,4.8,0,0,1-5.045-5.044v-8.243h1.9Z"/>
      <path class="f1c59381-ac9b-4f3a-9597-2a7b9aa474f1" d="M318.816,101.631a1.3,1.3,0,0,1,1.3-1.3,1.287,1.287,0,0,1,1.3,1.3,1.3,1.3,0,0,1-1.3,1.3A1.321,1.321,0,0,1,318.816,101.631Zm2.262,16.823h-1.924V105.427h1.924Z"/>
      <path class="f1c59381-ac9b-4f3a-9597-2a7b9aa474f1" d="M334.521,117.076a6.055,6.055,0,0,1-4.213,1.586,6.722,6.722,0,1,1,4.186-11.961v-6.448l1.925-.442v18.643h-1.9Zm-4.031-.1a5.047,5.047,0,0,0,4-1.82V108.7a5.149,5.149,0,0,0-4-1.794,4.815,4.815,0,0,0-4.836,4.992A4.882,4.882,0,0,0,330.49,116.971Z"/>
      <path class="f1c59381-ac9b-4f3a-9597-2a7b9aa474f1" d="M345.8,118.687a6.638,6.638,0,0,1-6.708-6.76,6.519,6.519,0,0,1,6.423-6.708c3.457,0,6.162,2.964,6.162,6.708v.6H340.994A4.9,4.9,0,0,0,345.882,117a5.675,5.675,0,0,0,3.588-1.2l1.2,1.275A7.71,7.71,0,0,1,345.8,118.687Zm-4.758-7.7h8.711a4.365,4.365,0,0,0-8.711,0Z"/>
      <path class="f1c59381-ac9b-4f3a-9597-2a7b9aa474f1" d="M361.56,107.065h-2.808v-1.638h2.808v-3.3l1.9-.494v3.8h3.925v1.638h-3.925v7.983c0,1.4.571,1.95,2,1.95a4.64,4.64,0,0,0,1.9-.338v1.689a7.36,7.36,0,0,1-2.288.338c-2.262,0-3.51-1.092-3.51-3.145Z"/>
      <path class="f1c59381-ac9b-4f3a-9597-2a7b9aa474f1" d="M375.08,105.167a6.775,6.775,0,1,1-6.657,6.76A6.638,6.638,0,0,1,375.08,105.167Zm4.732,6.76A4.755,4.755,0,1,0,375.08,117,4.841,4.841,0,0,0,379.812,111.927Z"/>
      <path class="f1c59381-ac9b-4f3a-9597-2a7b9aa474f1" d="M147.088,134.253h2.418l7.462,18.2h-2.183l-2.288-5.721h-8.581l-2.314,5.721h-2.08Zm4.707,10.764-3.563-8.892-3.613,8.892Z"/>
      <path class="f1c59381-ac9b-4f3a-9597-2a7b9aa474f1" d="M159.074,134.253h7.9c3.563,0,5.877,2.08,5.877,5.252s-2.341,5.278-5.877,5.278h-5.9v7.671h-2Zm2,1.794v6.994h5.746c2.471,0,4.031-1.352,4.031-3.51s-1.56-3.484-4.031-3.484Z"/>
      <path class="f1c59381-ac9b-4f3a-9597-2a7b9aa474f1" d="M175.9,134.253h2v18.2h-2Z"/>
      <path class="f1c59381-ac9b-4f3a-9597-2a7b9aa474f1" d="M197.293,151.076a6.052,6.052,0,0,1-4.211,1.586,6.722,6.722,0,1,1,4.185-11.961v-6.448l1.924-.442v18.643h-1.9Zm-4.03-.1a5.045,5.045,0,0,0,4-1.82V142.7a5.149,5.149,0,0,0-4-1.794,4.816,4.816,0,0,0-4.836,4.992A4.883,4.883,0,0,0,193.263,150.971Z"/>
      <path class="f1c59381-ac9b-4f3a-9597-2a7b9aa474f1" d="M208.578,152.687a6.637,6.637,0,0,1-6.709-6.76,6.519,6.519,0,0,1,6.422-6.708c3.459,0,6.162,2.964,6.162,6.708v.6H203.767A4.9,4.9,0,0,0,208.655,151a5.682,5.682,0,0,0,3.589-1.2l1.195,1.275A7.708,7.708,0,0,1,208.578,152.687Zm-4.759-7.7h8.71a4.364,4.364,0,0,0-8.71,0Z"/>
      <path class="f1c59381-ac9b-4f3a-9597-2a7b9aa474f1" d="M217.13,139.427h1.9v1.4a5.959,5.959,0,0,1,4.213-1.612,6.722,6.722,0,1,1-4.188,11.934v6.631H217.13Zm1.924,3.3v6.448a5.148,5.148,0,0,0,4,1.794,5.035,5.035,0,0,0,0-10.062A5.052,5.052,0,0,0,219.054,142.729Z"/>
      <path class="f1c59381-ac9b-4f3a-9597-2a7b9aa474f1" d="M234.394,152.454H232.47v-18.2l1.924-.442Z"/>
      <path class="f1c59381-ac9b-4f3a-9597-2a7b9aa474f1" d="M243.728,139.167a6.775,6.775,0,1,1-6.656,6.76A6.638,6.638,0,0,1,243.728,139.167Zm4.733,6.76A4.756,4.756,0,1,0,243.728,151,4.842,4.842,0,0,0,248.461,145.927Z"/>
      <path class="f1c59381-ac9b-4f3a-9597-2a7b9aa474f1" d="M256.312,152.427l-5.3-13h2.132l4.213,10.686,4.55-10.686h2.08L257.509,154.4c-1.119,2.521-2.34,3.536-4.421,3.536a4.985,4.985,0,0,1-1.221-.131v-1.741a4.488,4.488,0,0,0,1.092.1c1.169,0,1.976-.651,2.6-2.029Z"/>
      <path class="f1c59381-ac9b-4f3a-9597-2a7b9aa474f1" d="M265.777,139.427H267.7v1.43a4.876,4.876,0,0,1,3.822-1.69,4.564,4.564,0,0,1,4.107,2.366,5.1,5.1,0,0,1,4.473-2.366,4.685,4.685,0,0,1,4.783,5.045v8.242h-1.9V144.6c0-2.314-1.3-3.744-3.38-3.744a3.925,3.925,0,0,0-3.459,2.132,6.08,6.08,0,0,1,.131,1.223v8.242h-1.9V144.6c0-2.314-1.3-3.744-3.353-3.744a3.8,3.8,0,0,0-3.328,1.9v9.7h-1.924Z"/>
      <path class="f1c59381-ac9b-4f3a-9597-2a7b9aa474f1" d="M294.22,152.687a6.638,6.638,0,0,1-6.708-6.76,6.519,6.519,0,0,1,6.423-6.708c3.457,0,6.162,2.964,6.162,6.708v.6H289.41A4.9,4.9,0,0,0,294.3,151a5.675,5.675,0,0,0,3.588-1.2l1.2,1.275A7.71,7.71,0,0,1,294.22,152.687Zm-4.758-7.7h8.711a4.365,4.365,0,0,0-8.711,0Z"/>
      <path class="f1c59381-ac9b-4f3a-9597-2a7b9aa474f1" d="M302.775,139.427H304.7v1.534a5.153,5.153,0,0,1,4.107-1.794,4.8,4.8,0,0,1,5.019,5.045v8.242h-1.9V144.6a3.429,3.429,0,0,0-3.64-3.744,4.047,4.047,0,0,0-3.588,2v9.595h-1.924Z"/>
      <path class="f1c59381-ac9b-4f3a-9597-2a7b9aa474f1" d="M318.14,141.065h-2.808v-1.638h2.808v-3.3l1.9-.494v3.8h3.925v1.638h-3.925v7.983c0,1.4.572,1.95,2,1.95a4.644,4.644,0,0,0,1.9-.338v1.689a7.362,7.362,0,0,1-2.289.338c-2.262,0-3.51-1.092-3.51-3.145Z"/>
    </g>
    <rect class="f0b8780a-9395-4142-98a3-b74066d2050f" x="139.522" y="221.13" width="135.81" height="33.051" rx="4"/>
  </g>
</svg>
