<svg xmlns="http://www.w3.org/2000/svg" viewBox="0 0 265 210">
  <defs>
    <style>
      .a2efca3f-5061-45a2-8d1a-4c660b93982b, .e392cd02-fd77-43e6-a104-91db2e956267 {
        fill: none;
      }

      .e392cd02-fd77-43e6-a104-91db2e956267 {
        stroke: #707171;
      }

      .fcb08160-115c-490c-ab6b-d97bbf4be12d {
        fill: #2e2e2e;
      }

      .ed9e8b3d-3a15-4ac9-9258-7f71d0e65336 {
        fill: #fff;
      }
    </style>
  </defs>
  <g id="b22a2d84-14fa-4f29-a203-049b1d56a7e7" data-name="Layer 1">
    <g>
      <g id="baf86811-080e-4237-b351-28754782473b" data-name="Rectangle 12">
        <rect class="a2efca3f-5061-45a2-8d1a-4c660b93982b" width="265" height="210"/>
        <rect class="e392cd02-fd77-43e6-a104-91db2e956267" x="0.5" y="0.5" width="264" height="209"/>
      </g>
      <rect class="fcb08160-115c-490c-ab6b-d97bbf4be12d" x="0.5" y="0.5" width="264" height="209"/>
      <g>
        <path class="ed9e8b3d-3a15-4ac9-9258-7f71d0e65336" d="M126.5,115.5A16.5,16.5,0,1,1,143,99,16.519,16.519,0,0,1,126.5,115.5Zm0-30A13.5,13.5,0,1,0,140,99,13.515,13.515,0,0,0,126.5,85.5Z"/>
        <path class="ed9e8b3d-3a15-4ac9-9258-7f71d0e65336" d="M153.5,127.5a1.5,1.5,0,0,1-1.061-.439l-15.955-15.954a1.5,1.5,0,0,1,2.121-2.121l15.956,15.953A1.5,1.5,0,0,1,153.5,127.5Z"/>
      </g>
    </g>
  </g>
</svg>
