<svg xmlns="http://www.w3.org/2000/svg" viewBox="0 0 555 288">
  <defs>
    <style>
      .a3a0c0e9-86d7-4b0c-8c21-d85e5071f26d {
        fill: #2e2e2e;
      }

      .b732e1b5-2809-4517-85c4-f27d1b1ba4e5, .e8db1789-d40d-48e4-87b9-24a7250b32c0 {
        fill: #fff;
      }

      .aec9dc93-7a96-4e36-b737-7167d8850d8b, .b0db254b-7e54-4018-8b3c-17f89a4f9b9f {
        fill: none;
      }

      .aec9dc93-7a96-4e36-b737-7167d8850d8b, .b0db254b-7e54-4018-8b3c-17f89a4f9b9f, .b732e1b5-2809-4517-85c4-f27d1b1ba4e5 {
        stroke: #e00;
        stroke-linecap: round;
        stroke-linejoin: round;
      }

      .b0db254b-7e54-4018-8b3c-17f89a4f9b9f {
        stroke-width: 1.65px;
      }
    </style>
  </defs>
  <g id="a7efaaf1-5def-44c1-917d-7ff308599b2f" data-name="Layer 1">
    <rect class="a3a0c0e9-86d7-4b0c-8c21-d85e5071f26d" y="0.116" width="555" height="288"/>
    <g>
      <rect class="e8db1789-d40d-48e4-87b9-24a7250b32c0" x="115.151" y="36.944" width="327.779" height="214.227"/>
      <g>
        <g>
          <path class="aec9dc93-7a96-4e36-b737-7167d8850d8b" d="M206.713,122.05a2.89,2.89,0,0,1,0-4.086l3.564-3.563a2.889,2.889,0,1,1,4.086,4.086l-.78.78"/>
          <path class="aec9dc93-7a96-4e36-b737-7167d8850d8b" d="M209.862,119.57a2.888,2.888,0,0,1,0,4.086l-3.052,3.052a2.889,2.889,0,0,1-4.086-4.086l.182-.182"/>
        </g>
        <line class="aec9dc93-7a96-4e36-b737-7167d8850d8b" x1="261.544" y1="122.554" x2="262.544" y2="122.554"/>
        <line class="aec9dc93-7a96-4e36-b737-7167d8850d8b" x1="257.544" y1="126.554" x2="257.544" y2="127.554"/>
        <line class="aec9dc93-7a96-4e36-b737-7167d8850d8b" x1="259.544" y1="124.554" x2="260.958" y2="125.969"/>
        <line class="aec9dc93-7a96-4e36-b737-7167d8850d8b" x1="249.544" y1="118.554" x2="248.544" y2="118.554"/>
        <line class="aec9dc93-7a96-4e36-b737-7167d8850d8b" x1="253.544" y1="114.554" x2="253.544" y2="113.554"/>
        <line class="aec9dc93-7a96-4e36-b737-7167d8850d8b" x1="251.544" y1="116.554" x2="250.129" y2="115.14"/>
        <g>
          <circle class="aec9dc93-7a96-4e36-b737-7167d8850d8b" cx="161.544" cy="70.061" r="3.5"/>
          <path class="aec9dc93-7a96-4e36-b737-7167d8850d8b" d="M154.538,80.561a7,7,0,0,1,14,0"/>
        </g>
        <g>
          <path class="aec9dc93-7a96-4e36-b737-7167d8850d8b" d="M297.6,78.51a7,7,0,1,1,4.945,2.044A6.98,6.98,0,0,1,297.6,78.51"/>
          <line class="aec9dc93-7a96-4e36-b737-7167d8850d8b" x1="309.038" y1="71.554" x2="296.038" y2="71.554"/>
          <line class="aec9dc93-7a96-4e36-b737-7167d8850d8b" x1="308.538" y1="75.561" x2="296.538" y2="75.561"/>
          <path class="aec9dc93-7a96-4e36-b737-7167d8850d8b" d="M302.543,80.552a10.2,10.2,0,0,1,0-14"/>
          <path class="aec9dc93-7a96-4e36-b737-7167d8850d8b" d="M302.544,66.557a10.2,10.2,0,0,1,0,14"/>
        </g>
        <rect class="aec9dc93-7a96-4e36-b737-7167d8850d8b" x="201.538" y="160.561" width="5" height="14"/>
        <rect class="aec9dc93-7a96-4e36-b737-7167d8850d8b" x="210.538" y="160.561" width="5" height="14"/>
        <polygon class="aec9dc93-7a96-4e36-b737-7167d8850d8b" points="154.538 160.561 154.538 174.561 168.538 167.561 154.538 160.561"/>
        <polygon class="aec9dc93-7a96-4e36-b737-7167d8850d8b" points="342.544 164.561 342.544 170.561 346.544 170.561 350.538 174.561 350.538 160.561 346.544 164.561 342.544 164.561"/>
        <g>
          <line class="aec9dc93-7a96-4e36-b737-7167d8850d8b" x1="353.538" y1="166.054" x2="356.538" y2="169.054"/>
          <line class="aec9dc93-7a96-4e36-b737-7167d8850d8b" x1="356.538" y1="166.054" x2="353.538" y2="169.054"/>
        </g>
        <g>
          <circle class="aec9dc93-7a96-4e36-b737-7167d8850d8b" cx="396.654" cy="167.554" r="2.259"/>
          <path class="aec9dc93-7a96-4e36-b737-7167d8850d8b" d="M403.419,168.851a6.786,6.786,0,0,0,0-2.593h-1.9a5.118,5.118,0,0,0-.521-1.273l1.35-1.351a7.041,7.041,0,0,0-1.827-1.84l-1.346,1.346a5.073,5.073,0,0,0-1.284-.544v-1.91a6.8,6.8,0,0,0-2.594-.014v1.9a5.133,5.133,0,0,0-1.318.533l-1.351-1.35a7.026,7.026,0,0,0-1.84,1.827l1.346,1.346a5.073,5.073,0,0,0-.556,1.33h-1.9a6.84,6.84,0,0,0,0,2.593h1.9a5.073,5.073,0,0,0,.556,1.33l-1.346,1.346a7.041,7.041,0,0,0,1.84,1.827l1.351-1.35a5.131,5.131,0,0,0,1.318.532v1.9a6.85,6.85,0,0,0,2.594-.014v-1.91a5.073,5.073,0,0,0,1.284-.544l1.346,1.346a7.041,7.041,0,0,0,1.827-1.84l-1.35-1.351a5.118,5.118,0,0,0,.521-1.273Z"/>
        </g>
        <g>
          <polyline class="aec9dc93-7a96-4e36-b737-7167d8850d8b" points="309.538 219.561 304.538 213.561 300.538 213.561 295.538 219.561"/>
          <polyline class="b732e1b5-2809-4517-85c4-f27d1b1ba4e5" points="295.538 209.561 302.538 216.561 309.538 209.561"/>
          <rect class="aec9dc93-7a96-4e36-b737-7167d8850d8b" x="295.538" y="209.561" width="14" height="10"/>
        </g>
        <circle class="aec9dc93-7a96-4e36-b737-7167d8850d8b" cx="400.538" cy="210.561" r="3"/>
        <g>
          <rect class="aec9dc93-7a96-4e36-b737-7167d8850d8b" x="346.538" y="207.561" width="6" height="4"/>
          <line class="aec9dc93-7a96-4e36-b737-7167d8850d8b" x1="345.538" y1="214.561" x2="353.538" y2="214.561"/>
          <polyline class="aec9dc93-7a96-4e36-b737-7167d8850d8b" points="352.538 214.964 352.538 221.561 346.538 221.561 346.538 214.964"/>
          <polyline class="aec9dc93-7a96-4e36-b737-7167d8850d8b" points="352.538 210.561 356.538 210.561 356.538 218.561 352.538 218.561"/>
          <polyline class="aec9dc93-7a96-4e36-b737-7167d8850d8b" points="346.538 218.561 342.538 218.561 342.538 210.561 346.538 210.561"/>
        </g>
        <polyline class="aec9dc93-7a96-4e36-b737-7167d8850d8b" points="215.538 209.561 206.538 219.554 201.538 214.554"/>
        <path class="aec9dc93-7a96-4e36-b737-7167d8850d8b" d="M165.052,215.534l-2,2-4.488-4.489,2-1.994-3.491-3.492-1.5,1.5a3.527,3.527,0,0,0,0,4.987h0l6.484,6.484h0a3.527,3.527,0,0,0,4.987,0l1.5-1.5Z"/>
        <g>
          <line class="b0db254b-7e54-4018-8b3c-17f89a4f9b9f" x1="202.538" y1="67.561" x2="202.538" y2="67.561"/>
          <line class="b0db254b-7e54-4018-8b3c-17f89a4f9b9f" x1="208.538" y1="67.561" x2="208.538" y2="67.561"/>
          <line class="b0db254b-7e54-4018-8b3c-17f89a4f9b9f" x1="214.538" y1="67.561" x2="214.538" y2="67.561"/>
          <line class="b0db254b-7e54-4018-8b3c-17f89a4f9b9f" x1="208.538" y1="73.561" x2="208.538" y2="73.561"/>
          <line class="b0db254b-7e54-4018-8b3c-17f89a4f9b9f" x1="202.538" y1="73.561" x2="202.538" y2="73.561"/>
          <line class="b0db254b-7e54-4018-8b3c-17f89a4f9b9f" x1="202.538" y1="79.561" x2="202.538" y2="79.561"/>
          <line class="b0db254b-7e54-4018-8b3c-17f89a4f9b9f" x1="208.538" y1="79.561" x2="208.538" y2="79.561"/>
          <line class="b0db254b-7e54-4018-8b3c-17f89a4f9b9f" x1="214.538" y1="79.561" x2="214.538" y2="79.561"/>
          <line class="b0db254b-7e54-4018-8b3c-17f89a4f9b9f" x1="214.538" y1="73.561" x2="214.538" y2="73.561"/>
        </g>
        <line class="aec9dc93-7a96-4e36-b737-7167d8850d8b" x1="248.538" y1="68.583" x2="262.544" y2="68.576"/>
        <line class="aec9dc93-7a96-4e36-b737-7167d8850d8b" x1="248.538" y1="73.561" x2="262.538" y2="73.561"/>
        <line class="aec9dc93-7a96-4e36-b737-7167d8850d8b" x1="248.538" y1="78.561" x2="262.538" y2="78.561"/>
        <g>
          <line class="aec9dc93-7a96-4e36-b737-7167d8850d8b" x1="389.538" y1="66.561" x2="403.538" y2="80.561"/>
          <line class="aec9dc93-7a96-4e36-b737-7167d8850d8b" x1="403.538" y1="66.561" x2="389.538" y2="80.561"/>
        </g>
        <g>
          <circle class="aec9dc93-7a96-4e36-b737-7167d8850d8b" cx="159.538" cy="118.561" r="5"/>
          <line class="aec9dc93-7a96-4e36-b737-7167d8850d8b" x1="163.22" y1="122.243" x2="168.538" y2="127.561"/>
        </g>
        <g>
          <polyline class="aec9dc93-7a96-4e36-b737-7167d8850d8b" points="300.538 115.561 295.538 120.561 300.538 125.561"/>
          <line class="aec9dc93-7a96-4e36-b737-7167d8850d8b" x1="295.538" y1="120.561" x2="309.538" y2="120.561"/>
        </g>
        <g>
          <polyline class="aec9dc93-7a96-4e36-b737-7167d8850d8b" points="354.538 118.561 349.538 113.561 344.538 118.561"/>
          <line class="aec9dc93-7a96-4e36-b737-7167d8850d8b" x1="349.538" y1="113.561" x2="349.538" y2="127.561"/>
        </g>
        <g>
          <polyline class="aec9dc93-7a96-4e36-b737-7167d8850d8b" points="391.538 122.561 396.538 127.561 401.538 122.561"/>
          <line class="aec9dc93-7a96-4e36-b737-7167d8850d8b" x1="396.538" y1="127.561" x2="396.538" y2="113.561"/>
        </g>
        <g>
          <path class="aec9dc93-7a96-4e36-b737-7167d8850d8b" d="M261.539,164.554a5.006,5.006,0,0,1,0,6"/>
          <g>
            <path class="aec9dc93-7a96-4e36-b737-7167d8850d8b" d="M259.512,165.554a3,3,0,0,1,0,4"/>
            <polygon class="aec9dc93-7a96-4e36-b737-7167d8850d8b" points="248.544 164.561 248.544 170.561 252.544 170.561 256.538 174.561 256.538 160.561 252.544 164.561 248.544 164.561"/>
          </g>
        </g>
        <g>
          <path class="aec9dc93-7a96-4e36-b737-7167d8850d8b" d="M306.512,165.554a3,3,0,0,1,0,4"/>
          <polygon class="aec9dc93-7a96-4e36-b737-7167d8850d8b" points="295.544 164.561 295.544 170.561 299.544 170.561 303.538 174.561 303.538 160.561 299.544 164.561 295.544 164.561"/>
        </g>
        <g>
          <line class="aec9dc93-7a96-4e36-b737-7167d8850d8b" x1="250.538" y1="221.561" x2="260.538" y2="221.561"/>
          <polyline class="aec9dc93-7a96-4e36-b737-7167d8850d8b" points="251.538 214.561 255.538 218.561 259.538 214.561"/>
          <line class="aec9dc93-7a96-4e36-b737-7167d8850d8b" x1="255.538" y1="218.561" x2="255.538" y2="207.561"/>
        </g>
        <g>
          <path class="aec9dc93-7a96-4e36-b737-7167d8850d8b" d="M253.713,122.05a2.89,2.89,0,0,1,0-4.086l3.564-3.563a2.889,2.889,0,1,1,4.086,4.086l-.78.78"/>
          <path class="aec9dc93-7a96-4e36-b737-7167d8850d8b" d="M256.862,119.57a2.888,2.888,0,0,1,0,4.086l-3.052,3.052a2.889,2.889,0,0,1-4.086-4.086l.182-.182"/>
        </g>
        <g>
          <polyline class="aec9dc93-7a96-4e36-b737-7167d8850d8b" points="351.538 78.561 356.538 73.561 351.538 68.561"/>
          <line class="aec9dc93-7a96-4e36-b737-7167d8850d8b" x1="356.538" y1="73.561" x2="342.538" y2="73.561"/>
        </g>
        <line class="aec9dc93-7a96-4e36-b737-7167d8850d8b" x1="398.394" y1="212.705" x2="390.538" y2="220.561"/>
        <line class="aec9dc93-7a96-4e36-b737-7167d8850d8b" x1="393.538" y1="221.561" x2="391.538" y2="219.561"/>
        <line class="aec9dc93-7a96-4e36-b737-7167d8850d8b" x1="395.538" y1="219.561" x2="393.538" y2="217.561"/>
      </g>
    </g>
  </g>
</svg>
