<svg xmlns="http://www.w3.org/2000/svg" xmlns:xlink="http://www.w3.org/1999/xlink" viewBox="0 0 555 288">
  <defs>
    <style>
      .a7bf2f2c-f2a6-4b1c-a4f3-7eff5505a630, .ab73d95f-25d4-41c3-879e-8f08d122f980, .b1451dbb-d3c7-4ccc-9c5c-f4fb8bb3388d, .bc9240a8-fe99-4696-8ce2-3f835bd17889, .bfec4912-1efb-46b7-ac26-5f61976d071e, .f176a9a9-dd24-41cb-a7cb-6636e9f1034d, .f3709fad-9aa4-47b4-ac9f-c8d52cb0b274, .f54923f0-c74d-46c3-bead-71bfe6a1f595 {
        fill: none;
      }

      .af25cad3-19c4-488e-954d-818d6e3a31d1 {
        fill: #f1f1f2;
        stroke: #f3f3f3;
      }

      .af25cad3-19c4-488e-954d-818d6e3a31d1, .bc9240a8-fe99-4696-8ce2-3f835bd17889, .bfec4912-1efb-46b7-ac26-5f61976d071e, .f54923f0-c74d-46c3-bead-71bfe6a1f595 {
        stroke-miterlimit: 10;
      }

      .a609a4cf-c6d3-453a-97c0-460f939e4269 {
        opacity: 0.5;
      }

      .e66c9c47-b737-40c5-b0b4-1b5a3002e79b {
        clip-path: url(#a76baa78-78dc-4eb8-9bb3-56c53c56c36c);
      }

      .bc9240a8-fe99-4696-8ce2-3f835bd17889, .bfec4912-1efb-46b7-ac26-5f61976d071e {
        stroke: #c9c9c9;
      }

      .bc9240a8-fe99-4696-8ce2-3f835bd17889 {
        stroke-width: 0.501px;
      }

      .bfec4912-1efb-46b7-ac26-5f61976d071e {
        stroke-width: 0.658px;
      }

      .b1451dbb-d3c7-4ccc-9c5c-f4fb8bb3388d, .f176a9a9-dd24-41cb-a7cb-6636e9f1034d {
        stroke: #e00;
      }

      .ab73d95f-25d4-41c3-879e-8f08d122f980, .b1451dbb-d3c7-4ccc-9c5c-f4fb8bb3388d, .f176a9a9-dd24-41cb-a7cb-6636e9f1034d, .f3709fad-9aa4-47b4-ac9f-c8d52cb0b274 {
        stroke-linecap: round;
        stroke-linejoin: round;
      }

      .f176a9a9-dd24-41cb-a7cb-6636e9f1034d {
        stroke-width: 11.381px;
      }

      .b1451dbb-d3c7-4ccc-9c5c-f4fb8bb3388d {
        stroke-width: 11.363px;
      }

      .f265dceb-d553-48d7-bc61-6dda23afdcfe {
        fill: #7497ce;
      }

      .ab73d95f-25d4-41c3-879e-8f08d122f980, .f3709fad-9aa4-47b4-ac9f-c8d52cb0b274, .f54923f0-c74d-46c3-bead-71bfe6a1f595 {
        stroke: #3e6ebb;
      }

      .f3709fad-9aa4-47b4-ac9f-c8d52cb0b274, .f54923f0-c74d-46c3-bead-71bfe6a1f595 {
        stroke-width: 0.75px;
      }

      .ab73d95f-25d4-41c3-879e-8f08d122f980 {
        stroke-width: 0.751px;
      }
    </style>
    <clipPath id="a76baa78-78dc-4eb8-9bb3-56c53c56c36c">
      <rect class="a7bf2f2c-f2a6-4b1c-a4f3-7eff5505a630" y="0.116" width="555" height="287.884"/>
    </clipPath>
  </defs>
  <g id="acb4ebe4-3c4a-44d5-96e1-296028cfb1d2" data-name="Layer 1">
    <rect class="af25cad3-19c4-488e-954d-818d6e3a31d1" y="0.116" width="555" height="287.884"/>
    <g class="a609a4cf-c6d3-453a-97c0-460f939e4269">
      <g class="e66c9c47-b737-40c5-b0b4-1b5a3002e79b">
        <g>
          <g>
            <line class="bc9240a8-fe99-4696-8ce2-3f835bd17889" x1="10.458" y1="-5.064" x2="10.458" y2="322.889"/>
            <line class="bc9240a8-fe99-4696-8ce2-3f835bd17889" x1="21.824" y1="-5.064" x2="21.824" y2="322.889"/>
            <line class="bc9240a8-fe99-4696-8ce2-3f835bd17889" x1="33.189" y1="-5.064" x2="33.189" y2="322.889"/>
            <line class="bc9240a8-fe99-4696-8ce2-3f835bd17889" x1="44.555" y1="-5.064" x2="44.555" y2="322.889"/>
            <line class="bc9240a8-fe99-4696-8ce2-3f835bd17889" x1="55.92" y1="-5.064" x2="55.92" y2="322.889"/>
            <line class="bc9240a8-fe99-4696-8ce2-3f835bd17889" x1="67.286" y1="-5.064" x2="67.286" y2="322.889"/>
            <line class="bc9240a8-fe99-4696-8ce2-3f835bd17889" x1="78.651" y1="-5.064" x2="78.651" y2="322.889"/>
            <line class="bc9240a8-fe99-4696-8ce2-3f835bd17889" x1="90.017" y1="-5.064" x2="90.017" y2="322.889"/>
            <line class="bc9240a8-fe99-4696-8ce2-3f835bd17889" x1="101.382" y1="-5.064" x2="101.382" y2="322.889"/>
            <line class="bc9240a8-fe99-4696-8ce2-3f835bd17889" x1="112.748" y1="-5.064" x2="112.748" y2="322.889"/>
            <line class="bc9240a8-fe99-4696-8ce2-3f835bd17889" x1="124.114" y1="-5.064" x2="124.114" y2="322.889"/>
            <line class="bc9240a8-fe99-4696-8ce2-3f835bd17889" x1="135.479" y1="-5.064" x2="135.479" y2="322.889"/>
            <line class="bc9240a8-fe99-4696-8ce2-3f835bd17889" x1="146.845" y1="-5.064" x2="146.845" y2="322.889"/>
            <line class="bc9240a8-fe99-4696-8ce2-3f835bd17889" x1="158.21" y1="-5.064" x2="158.21" y2="322.889"/>
            <line class="bc9240a8-fe99-4696-8ce2-3f835bd17889" x1="169.576" y1="-5.064" x2="169.576" y2="322.889"/>
            <line class="bc9240a8-fe99-4696-8ce2-3f835bd17889" x1="180.941" y1="-5.064" x2="180.941" y2="322.889"/>
            <line class="bc9240a8-fe99-4696-8ce2-3f835bd17889" x1="192.307" y1="-5.064" x2="192.307" y2="322.889"/>
            <line class="bc9240a8-fe99-4696-8ce2-3f835bd17889" x1="203.672" y1="-5.064" x2="203.672" y2="322.889"/>
            <line class="bc9240a8-fe99-4696-8ce2-3f835bd17889" x1="215.038" y1="-5.064" x2="215.038" y2="322.889"/>
            <line class="bc9240a8-fe99-4696-8ce2-3f835bd17889" x1="226.404" y1="-5.064" x2="226.404" y2="322.889"/>
            <line class="bc9240a8-fe99-4696-8ce2-3f835bd17889" x1="237.769" y1="-5.064" x2="237.769" y2="322.889"/>
            <line class="bc9240a8-fe99-4696-8ce2-3f835bd17889" x1="249.135" y1="-5.064" x2="249.135" y2="322.889"/>
            <line class="bc9240a8-fe99-4696-8ce2-3f835bd17889" x1="260.5" y1="-5.064" x2="260.5" y2="322.889"/>
            <line class="bc9240a8-fe99-4696-8ce2-3f835bd17889" x1="271.866" y1="-5.064" x2="271.866" y2="322.889"/>
            <line class="bc9240a8-fe99-4696-8ce2-3f835bd17889" x1="283.231" y1="-5.064" x2="283.231" y2="322.889"/>
            <line class="bc9240a8-fe99-4696-8ce2-3f835bd17889" x1="294.597" y1="-5.064" x2="294.597" y2="322.889"/>
            <line class="bc9240a8-fe99-4696-8ce2-3f835bd17889" x1="305.962" y1="-5.064" x2="305.962" y2="322.889"/>
            <line class="bc9240a8-fe99-4696-8ce2-3f835bd17889" x1="317.328" y1="-5.064" x2="317.328" y2="322.889"/>
            <line class="bc9240a8-fe99-4696-8ce2-3f835bd17889" x1="328.694" y1="-5.064" x2="328.694" y2="322.889"/>
            <line class="bc9240a8-fe99-4696-8ce2-3f835bd17889" x1="340.059" y1="-5.064" x2="340.059" y2="322.889"/>
            <line class="bc9240a8-fe99-4696-8ce2-3f835bd17889" x1="351.425" y1="-5.064" x2="351.425" y2="322.889"/>
            <line class="bc9240a8-fe99-4696-8ce2-3f835bd17889" x1="362.79" y1="-5.064" x2="362.79" y2="322.889"/>
            <line class="bc9240a8-fe99-4696-8ce2-3f835bd17889" x1="374.156" y1="-5.064" x2="374.156" y2="322.889"/>
            <line class="bc9240a8-fe99-4696-8ce2-3f835bd17889" x1="385.521" y1="-5.064" x2="385.521" y2="322.889"/>
            <line class="bc9240a8-fe99-4696-8ce2-3f835bd17889" x1="396.887" y1="-5.064" x2="396.887" y2="322.889"/>
            <line class="bc9240a8-fe99-4696-8ce2-3f835bd17889" x1="408.253" y1="-5.064" x2="408.253" y2="322.889"/>
            <line class="bc9240a8-fe99-4696-8ce2-3f835bd17889" x1="419.618" y1="-5.064" x2="419.618" y2="322.889"/>
            <line class="bc9240a8-fe99-4696-8ce2-3f835bd17889" x1="430.984" y1="-5.064" x2="430.984" y2="322.889"/>
            <line class="bc9240a8-fe99-4696-8ce2-3f835bd17889" x1="442.349" y1="-5.064" x2="442.349" y2="322.889"/>
            <line class="bc9240a8-fe99-4696-8ce2-3f835bd17889" x1="453.715" y1="-5.064" x2="453.715" y2="322.889"/>
            <line class="bc9240a8-fe99-4696-8ce2-3f835bd17889" x1="465.08" y1="-5.064" x2="465.08" y2="322.889"/>
            <line class="bc9240a8-fe99-4696-8ce2-3f835bd17889" x1="476.446" y1="-5.064" x2="476.446" y2="322.889"/>
            <line class="bc9240a8-fe99-4696-8ce2-3f835bd17889" x1="487.811" y1="-5.064" x2="487.811" y2="322.889"/>
            <line class="bc9240a8-fe99-4696-8ce2-3f835bd17889" x1="499.177" y1="-5.064" x2="499.177" y2="322.889"/>
            <line class="bc9240a8-fe99-4696-8ce2-3f835bd17889" x1="510.543" y1="-5.064" x2="510.543" y2="322.889"/>
            <line class="bc9240a8-fe99-4696-8ce2-3f835bd17889" x1="521.908" y1="-5.064" x2="521.908" y2="322.889"/>
            <line class="bc9240a8-fe99-4696-8ce2-3f835bd17889" x1="533.274" y1="-5.064" x2="533.274" y2="322.889"/>
            <line class="bc9240a8-fe99-4696-8ce2-3f835bd17889" x1="544.639" y1="-5.064" x2="544.639" y2="322.889"/>
          </g>
          <g>
            <line class="bfec4912-1efb-46b7-ac26-5f61976d071e" x1="-2.378" y1="286.138" x2="563.999" y2="286.138"/>
            <line class="bfec4912-1efb-46b7-ac26-5f61976d071e" x1="-2.378" y1="274.772" x2="563.999" y2="274.772"/>
            <line class="bfec4912-1efb-46b7-ac26-5f61976d071e" x1="-2.378" y1="263.406" x2="563.999" y2="263.406"/>
            <line class="bfec4912-1efb-46b7-ac26-5f61976d071e" x1="-2.378" y1="252.041" x2="563.999" y2="252.041"/>
            <line class="bfec4912-1efb-46b7-ac26-5f61976d071e" x1="-2.378" y1="240.675" x2="563.999" y2="240.675"/>
            <line class="bfec4912-1efb-46b7-ac26-5f61976d071e" x1="-2.378" y1="229.31" x2="563.999" y2="229.31"/>
            <line class="bfec4912-1efb-46b7-ac26-5f61976d071e" x1="-2.378" y1="217.944" x2="563.999" y2="217.944"/>
            <line class="bfec4912-1efb-46b7-ac26-5f61976d071e" x1="-2.378" y1="206.579" x2="563.999" y2="206.579"/>
            <line class="bfec4912-1efb-46b7-ac26-5f61976d071e" x1="-2.378" y1="195.213" x2="563.999" y2="195.213"/>
            <line class="bfec4912-1efb-46b7-ac26-5f61976d071e" x1="-2.378" y1="183.848" x2="563.999" y2="183.848"/>
            <line class="bfec4912-1efb-46b7-ac26-5f61976d071e" x1="-2.378" y1="172.482" x2="563.999" y2="172.482"/>
            <line class="bfec4912-1efb-46b7-ac26-5f61976d071e" x1="-2.378" y1="161.116" x2="563.999" y2="161.116"/>
            <line class="bfec4912-1efb-46b7-ac26-5f61976d071e" x1="-2.378" y1="149.751" x2="563.999" y2="149.751"/>
            <line class="bfec4912-1efb-46b7-ac26-5f61976d071e" x1="-2.378" y1="138.385" x2="563.999" y2="138.385"/>
            <line class="bfec4912-1efb-46b7-ac26-5f61976d071e" x1="-2.378" y1="127.02" x2="563.999" y2="127.02"/>
            <line class="bfec4912-1efb-46b7-ac26-5f61976d071e" x1="-2.378" y1="115.654" x2="563.999" y2="115.654"/>
            <line class="bfec4912-1efb-46b7-ac26-5f61976d071e" x1="-2.378" y1="104.289" x2="563.999" y2="104.289"/>
            <line class="bfec4912-1efb-46b7-ac26-5f61976d071e" x1="-2.378" y1="92.923" x2="563.999" y2="92.923"/>
            <line class="bfec4912-1efb-46b7-ac26-5f61976d071e" x1="-2.378" y1="81.557" x2="563.999" y2="81.557"/>
            <line class="bfec4912-1efb-46b7-ac26-5f61976d071e" x1="-2.378" y1="70.192" x2="563.999" y2="70.192"/>
            <line class="bfec4912-1efb-46b7-ac26-5f61976d071e" x1="-2.378" y1="58.826" x2="563.999" y2="58.826"/>
            <line class="bfec4912-1efb-46b7-ac26-5f61976d071e" x1="-2.378" y1="47.461" x2="563.999" y2="47.461"/>
            <line class="bfec4912-1efb-46b7-ac26-5f61976d071e" x1="-2.378" y1="36.095" x2="563.999" y2="36.095"/>
            <line class="bfec4912-1efb-46b7-ac26-5f61976d071e" x1="-2.378" y1="24.73" x2="563.999" y2="24.73"/>
            <line class="bfec4912-1efb-46b7-ac26-5f61976d071e" x1="-2.378" y1="13.364" x2="563.999" y2="13.364"/>
            <line class="bfec4912-1efb-46b7-ac26-5f61976d071e" x1="-2.378" y1="1.999" x2="563.999" y2="1.999"/>
          </g>
        </g>
      </g>
    </g>
    <g>
      <path class="f176a9a9-dd24-41cb-a7cb-6636e9f1034d" d="M334.861,200.607a79.666,79.666,0,1,1,56.27,23.271,79.42,79.42,0,0,1-56.27-23.271"/>
      <line class="f176a9a9-dd24-41cb-a7cb-6636e9f1034d" x1="465.048" y1="121.451" x2="317.098" y2="121.451"/>
      <line class="f176a9a9-dd24-41cb-a7cb-6636e9f1034d" x1="465.048" y1="167.052" x2="314.794" y2="167.052"/>
      <path class="f176a9a9-dd24-41cb-a7cb-6636e9f1034d" d="M391.128,223.854a116.042,116.042,0,0,1,0-159.283"/>
      <path class="f176a9a9-dd24-41cb-a7cb-6636e9f1034d" d="M391.134,64.571a116.043,116.043,0,0,1,0,159.283"/>
    </g>
    <polygon class="b1451dbb-d3c7-4ccc-9c5c-f4fb8bb3388d" points="220.726 223.705 107.098 223.705 107.098 110.076 152.549 64.625 220.726 64.625 220.726 223.705"/>
    <polyline class="b1451dbb-d3c7-4ccc-9c5c-f4fb8bb3388d" points="152.549 64.625 152.549 110.076 107.098 110.076"/>
    <g>
      <path class="f265dceb-d553-48d7-bc61-6dda23afdcfe" d="M67.274,47.4V240.6H260.465V47.4ZM249.013,229.143H78.726V58.857H249.013Z"/>
      <path class="f265dceb-d553-48d7-bc61-6dda23afdcfe" d="M294.535,47.4V240.6H487.726V47.4ZM476.274,229.143H305.987V58.857H476.274Z"/>
    </g>
    <circle class="f54923f0-c74d-46c3-bead-71bfe6a1f595" cx="390.918" cy="144.212" r="85.356"/>
    <g>
      <polyline class="f3709fad-9aa4-47b4-ac9f-c8d52cb0b274" points="78.66 218.15 78.66 229.568 90.079 229.568"/>
      <polyline class="f3709fad-9aa4-47b4-ac9f-c8d52cb0b274" points="237.66 229.568 249.079 229.568 249.079 218.15"/>
      <polyline class="f3709fad-9aa4-47b4-ac9f-c8d52cb0b274" points="249.079 70.275 249.079 58.857 237.66 58.857"/>
      <polyline class="f3709fad-9aa4-47b4-ac9f-c8d52cb0b274" points="90.079 58.857 78.66 58.857 78.66 70.275"/>
    </g>
    <g>
      <polyline class="f3709fad-9aa4-47b4-ac9f-c8d52cb0b274" points="305.922 218.15 305.922 229.568 317.34 229.568"/>
      <polyline class="f3709fad-9aa4-47b4-ac9f-c8d52cb0b274" points="464.921 229.568 476.34 229.568 476.34 218.15"/>
      <polyline class="f3709fad-9aa4-47b4-ac9f-c8d52cb0b274" points="476.34 70.275 476.34 58.857 464.921 58.857"/>
      <polyline class="f3709fad-9aa4-47b4-ac9f-c8d52cb0b274" points="317.34 58.857 305.922 58.857 305.922 70.275"/>
    </g>
    <rect class="ab73d95f-25d4-41c3-879e-8f08d122f980" x="101.416" y="58.857" width="124.992" height="170.712"/>
    <rect class="ab73d95f-25d4-41c3-879e-8f08d122f980" x="101.416" y="58.857" width="124.992" height="170.712" transform="translate(19.7 308.124) rotate(-90)"/>
  </g>
</svg>
