<svg xmlns="http://www.w3.org/2000/svg" viewBox="0 0 360 217">
  <defs>
    <style>
      .aea45df7-8782-49ff-b67f-5ca31a31bcf3 {
        fill: #e00;
      }

      .b846ac59-5225-4491-bfd9-23645d78fff7 {
        fill: #fff;
      }
    </style>
  </defs>
  <g id="b3f0a24f-bceb-4cba-bf8e-05c0e30aa790" data-name="Layer 1">
    <path id="ac5f67bf-53c5-42ff-8600-28a411ba54a1" data-name="Path 334" class="aea45df7-8782-49ff-b67f-5ca31a31bcf3" d="M0,0H360V217H0Z"/>
    <g id="b12bf4d7-7f04-475e-8844-600afaa5afba" data-name="Group 79">
      <g id="aecbb223-07bc-41cb-8456-aff8258bbeb5" data-name="Group 74">
        <path id="b5892c49-a05f-428f-bf0b-3834d66e69e1" data-name="Path 352" class="b846ac59-5225-4491-bfd9-23645d78fff7" d="M176.683,154.765a.911.911,0,0,1-.643-.265,6.156,6.156,0,0,1,0-8.7l6.469-6.469a6.3,6.3,0,0,1,8.7,0,6.16,6.16,0,0,1,0,8.7l-1.416,1.416a.907.907,0,0,1-1.293-1.273l.01-.01,1.416-1.416a4.343,4.343,0,0,0,0-6.133,4.439,4.439,0,0,0-6.133,0l-6.469,6.469a4.334,4.334,0,0,0,0,6.132.907.907,0,0,1,0,1.283l0,0A.9.9,0,0,1,176.683,154.765Z"/>
        <path id="f68b0460-97f1-41a8-9fe7-3da41e41fe96" data-name="Path 353" class="b846ac59-5225-4491-bfd9-23645d78fff7" d="M173.149,164.752a6.15,6.15,0,0,1-4.351-10.5l.332-.33a.907.907,0,0,1,1.283,1.283l-.332.33a4.337,4.337,0,0,0,6.133,6.133l5.542-5.542a4.334,4.334,0,0,0,0-6.132.907.907,0,0,1,1.273-1.293l.01.01a6.154,6.154,0,0,1,0,8.7l-5.542,5.542A6.126,6.126,0,0,1,173.149,164.752Z"/>
      </g>
      <path id="a7d76b7b-43a7-451e-b572-a0abf88a15bc" data-name="Path 354" class="b846ac59-5225-4491-bfd9-23645d78fff7" d="M278.021,155.68h-1.815a.907.907,0,0,1-.908-.906v0a.907.907,0,0,1,.906-.908h1.817a.908.908,0,1,1,0,1.816Z"/>
      <path id="fe3fab05-be8c-472d-97e5-c1c6f426aade" data-name="Path 355" class="b846ac59-5225-4491-bfd9-23645d78fff7" d="M268.946,164.755a.907.907,0,0,1-.908-.906v-1.816a.907.907,0,0,1,.906-.908h0a.909.909,0,0,1,.908.908v1.815A.908.908,0,0,1,268.946,164.755Z"/>
      <path id="b9085e4a-9fc3-4881-9071-067714dfdfe6" data-name="Path 356" class="b846ac59-5225-4491-bfd9-23645d78fff7" d="M275.142,161.877a.907.907,0,0,1-.643-.267l-2.566-2.565a.907.907,0,0,1,1.283-1.283l2.567,2.567a.9.9,0,0,1,.01,1.273l-.01.01A.9.9,0,0,1,275.142,161.877Z"/>
      <path id="baf35271-f256-4c80-ad54-11a3798e2e7a" data-name="Path 357" class="b846ac59-5225-4491-bfd9-23645d78fff7" d="M254.425,148.419H252.61a.907.907,0,0,1-.908-.906v0a.907.907,0,0,1,.906-.908h1.817a.908.908,0,0,1,0,1.816Z"/>
      <path id="b2b25777-277c-42d8-a135-a33c55ace991" data-name="Path 358" class="b846ac59-5225-4491-bfd9-23645d78fff7" d="M261.685,141.159a.907.907,0,0,1-.908-.906v-1.816a.907.907,0,0,1,.906-.908h0a.909.909,0,0,1,.908.908v1.815A.908.908,0,0,1,261.685,141.159Z"/>
      <path id="a238f4ad-3f4b-428d-b6bc-7084351bfbc6" data-name="Path 359" class="b846ac59-5225-4491-bfd9-23645d78fff7" d="M258.054,144.789a.907.907,0,0,1-.643-.267l-2.565-2.567a.907.907,0,0,1,1.283-1.283l2.567,2.567a.9.9,0,0,1,.01,1.273l-.01.01A.9.9,0,0,1,258.054,144.789Z"/>
      <g id="fb9cac99-3275-45d5-8d67-2341e7a3979a" data-name="Group 75">
        <path id="ab4843e9-bbf9-4248-bcb1-9ce609d8b61b" data-name="Path 360" class="b846ac59-5225-4491-bfd9-23645d78fff7" d="M94.694,66.752a7.26,7.26,0,1,1,7.26-7.26A7.268,7.268,0,0,1,94.694,66.752Zm0-12.706a5.445,5.445,0,1,0,5.445,5.445A5.45,5.45,0,0,0,94.694,54.046Z"/>
        <path id="ea23bea0-6bf8-4114-a5ea-d61407675d70" data-name="Path 361" class="b846ac59-5225-4491-bfd9-23645d78fff7" d="M107.391,79.458a.909.909,0,0,1-.908-.908,11.8,11.8,0,0,0-23.6,0,.908.908,0,0,1-1.816,0,13.616,13.616,0,0,1,27.232,0A.909.909,0,0,1,107.391,79.458Z"/>
      </g>
      <g id="e077bdc5-246f-4d69-9ef6-1eaeaffa9096" data-name="Group 76">
        <path id="a2cce442-c580-4850-8088-2a1f97ae2589" data-name="Path 362" class="b846ac59-5225-4491-bfd9-23645d78fff7" d="M169.1,56.453a1.47,1.47,0,0,1-.563-.109,1.8,1.8,0,0,1-.49-.327,1.448,1.448,0,0,1-.327-.49,1.5,1.5,0,0,1,2.451-1.634,1.574,1.574,0,0,1,.436,1.071,1.549,1.549,0,0,1-.109.563,2.339,2.339,0,0,1-.327.49,1.8,1.8,0,0,1-.49.327A1.561,1.561,0,0,1,169.1,56.453Z"/>
        <path id="a5b35dfa-68ce-402d-8077-0f50fb3c2f3a" data-name="Path 363" class="b846ac59-5225-4491-bfd9-23645d78fff7" d="M179.99,56.453a1.47,1.47,0,0,1-.563-.109,1.8,1.8,0,0,1-.49-.327,1.448,1.448,0,0,1-.327-.49,1.555,1.555,0,0,1,0-1.144,1.448,1.448,0,0,1,.327-.49,1.549,1.549,0,0,1,1.634-.327,1.448,1.448,0,0,1,.49.327,1.574,1.574,0,0,1,.436,1.071,1.549,1.549,0,0,1-.109.563,2.339,2.339,0,0,1-.327.49,1.8,1.8,0,0,1-.49.327A1.561,1.561,0,0,1,179.99,56.453Z"/>
        <path id="a7479dd4-6bef-482c-ad82-709a074c8596" data-name="Path 364" class="b846ac59-5225-4491-bfd9-23645d78fff7" d="M190.88,56.453a1.47,1.47,0,0,1-.563-.109,1.8,1.8,0,0,1-.49-.327,1.448,1.448,0,0,1-.327-.49,1.555,1.555,0,0,1,0-1.144,1.448,1.448,0,0,1,.327-.49,1.549,1.549,0,0,1,1.634-.327,1.448,1.448,0,0,1,.49.327,2.3,2.3,0,0,1,.327.49,1.561,1.561,0,0,1,.109.581,1.532,1.532,0,0,1-.436,1.053,1.8,1.8,0,0,1-.49.327A1.561,1.561,0,0,1,190.88,56.453Z"/>
        <path id="f283ad7e-5260-48a5-8d81-04df9e17c684" data-name="Path 365" class="b846ac59-5225-4491-bfd9-23645d78fff7" d="M179.99,67.344a1.5,1.5,0,0,1-1.053-.436,1.448,1.448,0,0,1-.327-.49,1.561,1.561,0,0,1-.109-.581,1.5,1.5,0,0,1,.436-1.053,1.5,1.5,0,0,1,2.56,1.053,1.574,1.574,0,0,1-.436,1.071,2.339,2.339,0,0,1-.49.327A1.561,1.561,0,0,1,179.99,67.344Z"/>
        <path id="e44670d3-b4a9-4c59-abbc-7253c9204888" data-name="Path 366" class="b846ac59-5225-4491-bfd9-23645d78fff7" d="M169.1,67.344a1.47,1.47,0,0,1-.563-.109,2.339,2.339,0,0,1-.49-.327,1.448,1.448,0,0,1-.327-.49,1.561,1.561,0,0,1-.109-.581,1.5,1.5,0,0,1,.436-1.053,1.5,1.5,0,0,1,2.56,1.053,1.489,1.489,0,0,1-1.507,1.507Z"/>
        <path id="afca3f81-830c-4748-9d21-cc5cac150e87" data-name="Path 367" class="b846ac59-5225-4491-bfd9-23645d78fff7" d="M169.1,78.235a1.47,1.47,0,0,1-.563-.109,2.339,2.339,0,0,1-.49-.327,1.5,1.5,0,0,1-.436-1.071,1.5,1.5,0,0,1,3,0,1.489,1.489,0,0,1-1.507,1.507Z"/>
        <path id="b8e04055-bdba-4393-aa26-18a75fccccca" data-name="Path 368" class="b846ac59-5225-4491-bfd9-23645d78fff7" d="M179.99,78.235a1.532,1.532,0,0,1-1.053-.436,1.5,1.5,0,0,1-.436-1.071,1.5,1.5,0,0,1,3,0,1.489,1.489,0,0,1-1.507,1.507Z"/>
        <path id="efb8d818-cc93-489a-8b74-2038ec3638ec" data-name="Path 369" class="b846ac59-5225-4491-bfd9-23645d78fff7" d="M190.88,78.235a1.532,1.532,0,0,1-1.053-.436,1.5,1.5,0,0,1-.436-1.071,1.532,1.532,0,0,1,.436-1.053,1.448,1.448,0,0,1,.49-.327,1.515,1.515,0,0,1,1.634.327,1.532,1.532,0,0,1,.436,1.053,1.489,1.489,0,0,1-1.507,1.507Z"/>
        <path id="e3e6a6d6-75a2-4ce1-a914-a7dc8ad6b890" data-name="Path 370" class="b846ac59-5225-4491-bfd9-23645d78fff7" d="M190.88,67.344a1.47,1.47,0,0,1-.563-.109,2.339,2.339,0,0,1-.49-.327,1.5,1.5,0,0,1-.436-1.071,1.5,1.5,0,0,1,3,0,1.574,1.574,0,0,1-.436,1.071,2.339,2.339,0,0,1-.49.327A1.561,1.561,0,0,1,190.88,67.344Z"/>
      </g>
      <path id="a52ad6b4-014e-46ea-8f99-2beb1f0c554b" data-name="Path 371" class="b846ac59-5225-4491-bfd9-23645d78fff7" d="M252.6,57.716a.907.907,0,0,1-.908-.906v0a.908.908,0,0,1,.906-.908l25.422-.013h0a.909.909,0,0,1,.908.908h0a.909.909,0,0,1-.908.908h0l-25.421.013Z"/>
      <path id="e1866174-e247-455c-a7ea-92623582bd92" data-name="Path 372" class="b846ac59-5225-4491-bfd9-23645d78fff7" d="M278.01,66.752H252.6a.909.909,0,0,1-.908-.908h0a.907.907,0,0,1,.906-.908H278.01a.907.907,0,0,1,.908.906v0a.909.909,0,0,1-.908.908Z"/>
      <path id="b92c2670-20d7-4a5c-94df-6cdd87d1274c" data-name="Path 373" class="b846ac59-5225-4491-bfd9-23645d78fff7" d="M278.01,75.827H252.6a.909.909,0,0,1-.908-.908h0a.907.907,0,0,1,.906-.908H278.01a.907.907,0,0,1,.908.906v0a.909.909,0,0,1-.908.908Z"/>
      <g id="b1bcf49a-4633-48f1-967b-4a059b7259f5" data-name="Group 77">
        <path id="b472cab9-8114-4dd6-8bd7-f087d7f3ba4a" data-name="Path 374" class="b846ac59-5225-4491-bfd9-23645d78fff7" d="M91.055,157.507a9.983,9.983,0,1,1,9.983-9.983A10,10,0,0,1,91.055,157.507Zm0-18.151a8.168,8.168,0,1,0,8.168,8.168A8.176,8.176,0,0,0,91.055,139.356Z"/>
        <path id="a3a730e7-2d73-435e-b384-da4e9b6b2d77" data-name="Path 375" class="b846ac59-5225-4491-bfd9-23645d78fff7" d="M107.392,164.768a.907.907,0,0,1-.643-.267L97.1,154.848a.907.907,0,0,1,1.283-1.283l9.653,9.653a.9.9,0,0,1,.01,1.273l-.01.01A.9.9,0,0,1,107.392,164.768Z"/>
      </g>
      <g id="b7e53366-c599-4cfb-bd26-3e8d27881c61" data-name="Group 78">
        <path id="f476cce0-31aa-47f9-8b24-51f5dc8c2e9b" data-name="Path 376" class="b846ac59-5225-4491-bfd9-23645d78fff7" d="M261.993,154.765a.911.911,0,0,1-.643-.265,6.156,6.156,0,0,1,0-8.7l6.469-6.469a6.3,6.3,0,0,1,8.7,0,6.16,6.16,0,0,1,0,8.7l-1.416,1.416a.907.907,0,0,1-1.293-1.273l.01-.01,1.416-1.416a4.343,4.343,0,0,0,0-6.133,4.439,4.439,0,0,0-6.133,0l-6.469,6.469a4.334,4.334,0,0,0,0,6.132.907.907,0,0,1,0,1.283l0,0A.9.9,0,0,1,261.993,154.765Z"/>
        <path id="a23d897d-a3f3-4631-9d14-598aea10f861" data-name="Path 377" class="b846ac59-5225-4491-bfd9-23645d78fff7" d="M258.459,164.752a6.15,6.15,0,0,1-4.351-10.5l.332-.33a.907.907,0,0,1,1.283,1.283l-.332.33a4.337,4.337,0,0,0,6.133,6.133l5.542-5.542a4.334,4.334,0,0,0,0-6.132.907.907,0,0,1,1.273-1.293l.01.01a6.154,6.154,0,0,1,0,8.7l-5.542,5.542A6.126,6.126,0,0,1,258.459,164.752Z"/>
      </g>
    </g>
  </g>
</svg>
