<svg xmlns="http://www.w3.org/2000/svg" xmlns:xlink="http://www.w3.org/1999/xlink" viewBox="0 0 265 210">
  <defs>
    <style>
      .fa4820c8-5310-4230-97ad-19e75e834de6 {
        fill: none;
      }

      .a9e4cc28-b883-4752-90c3-76b094a31798 {
        fill: #2e2e2e;
      }

      .fde7a606-5f3a-4d08-9661-f4ecc2e7f1c2 {
        fill: #8f0000;
      }

      .f8f3b153-f72c-4935-95aa-100c12825a36 {
        clip-path: url(#f476906b-62b6-48ed-a701-4bcc5c16a09f);
      }

      .a2f44c77-7c60-47c9-bcea-27fbaec4d22d {
        fill: #e00;
      }

      .e25730e6-33de-44b3-8aa7-eb5b0bf98599 {
        fill: #fff;
      }
    </style>
    <clipPath id="f476906b-62b6-48ed-a701-4bcc5c16a09f">
      <rect class="fa4820c8-5310-4230-97ad-19e75e834de6" x="35.615" y="42.288" width="193.769" height="125.423" rx="6"/>
    </clipPath>
  </defs>
  <g id="f8aca897-3160-47a9-9cfa-cff7544ee93c" data-name="Layer 1">
    <g>
      <rect class="a9e4cc28-b883-4752-90c3-76b094a31798" x="0.5" y="0.5" width="264" height="209"/>
      <rect class="fde7a606-5f3a-4d08-9661-f4ecc2e7f1c2" x="35.615" y="42.288" width="193.769" height="125.423" rx="6"/>
      <g class="f8f3b153-f72c-4935-95aa-100c12825a36">
        <g>
          <path class="a2f44c77-7c60-47c9-bcea-27fbaec4d22d" d="M56.941,123.4A18.4,18.4,0,1,1,75.34,105,18.422,18.422,0,0,1,56.941,123.4Zm0-30.128A11.73,11.73,0,1,0,68.671,105,11.744,11.744,0,0,0,56.941,93.272Z"/>
          <path class="a2f44c77-7c60-47c9-bcea-27fbaec4d22d" d="M56.2,155.02a49.5,49.5,0,0,1-8.942-.84,3.344,3.344,0,0,1-2.736-3.283v-10.16a38.677,38.677,0,0,1-4.845-1.96l-7.262,7.262a3.328,3.328,0,0,1-4.227.4,50.118,50.118,0,0,1-13.149-13.051,3.329,3.329,0,0,1,.384-4.253l7.21-7.216a38.574,38.574,0,0,1-2.065-4.937H10.349a3.33,3.33,0,0,1-3.276-2.716,48.589,48.589,0,0,1,0-18.535,3.33,3.33,0,0,1,3.276-2.716H20.567a38.574,38.574,0,0,1,2.065-4.937l-7.21-7.216a3.329,3.329,0,0,1-.384-4.253A50.118,50.118,0,0,1,28.187,63.561a3.336,3.336,0,0,1,4.227.4l7.262,7.261a38.677,38.677,0,0,1,4.845-1.96V59.106a3.342,3.342,0,0,1,2.736-3.282,48.408,48.408,0,0,1,18.535.1,3.322,3.322,0,0,1,2.7,3.269V69.468a37.144,37.144,0,0,1,4.637,1.967l7.21-7.21a3.338,3.338,0,0,1,4.253-.384A49.906,49.906,0,0,1,97.639,76.99a3.327,3.327,0,0,1-.4,4.227l-7.262,7.262a37.372,37.372,0,0,1,1.863,4.539h10.218a3.33,3.33,0,0,1,3.276,2.729,48.776,48.776,0,0,1,0,18.509,3.33,3.33,0,0,1-3.276,2.729H91.837a37.306,37.306,0,0,1-1.863,4.539l7.262,7.262a3.327,3.327,0,0,1,.4,4.227,49.891,49.891,0,0,1-13.051,13.149,3.329,3.329,0,0,1-4.253-.384l-7.2-7.21a37.654,37.654,0,0,1-4.644,1.961v10.277a3.321,3.321,0,0,1-2.7,3.269A49.988,49.988,0,0,1,56.2,155.02Zm-5.009-6.982a40.6,40.6,0,0,0,10.629-.065v-9.906a3.324,3.324,0,0,1,2.469-3.217,30.493,30.493,0,0,0,7.724-3.276,3.342,3.342,0,0,1,4.064.508l6.949,6.955a43.7,43.7,0,0,0,7.49-7.541l-7-7a3.339,3.339,0,0,1-.527-4.031,30.467,30.467,0,0,0,3.132-7.653,3.346,3.346,0,0,1,3.231-2.494H99.2a41.106,41.106,0,0,0,0-10.629H89.349a3.346,3.346,0,0,1-3.231-2.494,30.467,30.467,0,0,0-3.132-7.653,3.339,3.339,0,0,1,.527-4.031l7-7a43.459,43.459,0,0,0-7.49-7.542l-6.949,6.949a3.34,3.34,0,0,1-4.064.508,30.9,30.9,0,0,0-7.731-3.276,3.333,3.333,0,0,1-2.462-3.217v-9.9a41.168,41.168,0,0,0-10.629-.065v9.808A3.33,3.33,0,0,1,48.67,75a31.161,31.161,0,0,0-7.939,3.217,3.353,3.353,0,0,1-4.025-.534l-7-7a43.175,43.175,0,0,0-7.542,7.483l6.95,6.956a3.332,3.332,0,0,1,.508,4.064,30.469,30.469,0,0,0-3.341,8,3.346,3.346,0,0,1-3.231,2.494H13.2a41.106,41.106,0,0,0,0,10.629h9.86a3.346,3.346,0,0,1,3.231,2.494,30.469,30.469,0,0,0,3.341,8,3.332,3.332,0,0,1-.508,4.064l-6.95,6.956a43.175,43.175,0,0,0,7.542,7.483l7-7a3.336,3.336,0,0,1,4.025-.534A31.125,31.125,0,0,0,48.67,135a3.33,3.33,0,0,1,2.52,3.231Z"/>
        </g>
        <g>
          <path class="a2f44c77-7c60-47c9-bcea-27fbaec4d22d" d="M174.728,52.922a18.4,18.4,0,1,1,18.4-18.4A18.423,18.423,0,0,1,174.728,52.922Zm0-30.128a11.73,11.73,0,1,0,11.73,11.729A11.745,11.745,0,0,0,174.728,22.794Z"/>
          <path class="a2f44c77-7c60-47c9-bcea-27fbaec4d22d" d="M173.986,84.542a49.413,49.413,0,0,1-8.942-.841,3.341,3.341,0,0,1-2.735-3.282V70.259a38.629,38.629,0,0,1-4.846-1.96L150.2,75.56a3.326,3.326,0,0,1-4.227.4,50.133,50.133,0,0,1-13.149-13.051,3.331,3.331,0,0,1,.384-4.253l7.21-7.216a38.569,38.569,0,0,1-2.064-4.937H128.136a3.33,3.33,0,0,1-3.276-2.716,48.589,48.589,0,0,1,0-18.535,3.33,3.33,0,0,1,3.276-2.716h10.219a38.569,38.569,0,0,1,2.064-4.937l-7.21-7.216a3.331,3.331,0,0,1-.384-4.253A50.118,50.118,0,0,1,145.974-6.917a3.336,3.336,0,0,1,4.227.4L157.463.748a38.629,38.629,0,0,1,4.846-1.96v-10.16a3.343,3.343,0,0,1,2.735-3.283,48.427,48.427,0,0,1,18.535.1,3.322,3.322,0,0,1,2.7,3.269V-1.01A37.144,37.144,0,0,1,190.913.957l7.209-7.21a3.338,3.338,0,0,1,4.253-.384A49.91,49.91,0,0,1,215.427,6.512a3.328,3.328,0,0,1-.4,4.227L207.761,18a37.226,37.226,0,0,1,1.863,4.54h10.218a3.33,3.33,0,0,1,3.276,2.729A50.884,50.884,0,0,1,224,34.523a50.887,50.887,0,0,1-.886,9.255,3.33,3.33,0,0,1-3.276,2.729H209.624a37.212,37.212,0,0,1-1.863,4.539l7.262,7.262a3.328,3.328,0,0,1,.4,4.227,49.925,49.925,0,0,1-13.052,13.149,3.33,3.33,0,0,1-4.253-.384l-7.2-7.21a37.576,37.576,0,0,1-4.643,1.961V80.328a3.322,3.322,0,0,1-2.7,3.269A50.06,50.06,0,0,1,173.986,84.542Zm-5.008-6.982a40.591,40.591,0,0,0,10.628-.065V67.589a3.326,3.326,0,0,1,2.469-3.218A30.474,30.474,0,0,0,189.8,61.1a3.342,3.342,0,0,1,4.064.508l6.949,6.955a43.634,43.634,0,0,0,7.49-7.542l-7-7a3.339,3.339,0,0,1-.527-4.031,30.469,30.469,0,0,0,3.133-7.653,3.344,3.344,0,0,1,3.23-2.494h9.854a41.106,41.106,0,0,0,0-10.629h-9.854a3.344,3.344,0,0,1-3.23-2.494,30.469,30.469,0,0,0-3.133-7.653,3.339,3.339,0,0,1,.527-4.031l7-7a43.418,43.418,0,0,0-7.49-7.541l-6.949,6.949a3.34,3.34,0,0,1-4.064.508,30.852,30.852,0,0,0-7.731-3.276,3.333,3.333,0,0,1-2.462-3.217v-9.9a41.161,41.161,0,0,0-10.628-.065V1.3a3.331,3.331,0,0,1-2.521,3.231,31.14,31.14,0,0,0-7.939,3.217,3.353,3.353,0,0,1-4.025-.534l-7-6.995A43.169,43.169,0,0,0,139.957,7.7l6.949,6.956a3.332,3.332,0,0,1,.508,4.064,30.5,30.5,0,0,0-3.341,8,3.346,3.346,0,0,1-3.231,2.494h-9.86a41.106,41.106,0,0,0,0,10.629h9.86a3.346,3.346,0,0,1,3.231,2.494,30.5,30.5,0,0,0,3.341,8,3.332,3.332,0,0,1-.508,4.064l-6.949,6.956a43.169,43.169,0,0,0,7.541,7.483l7-6.995a3.334,3.334,0,0,1,4.025-.534,31.176,31.176,0,0,0,7.939,3.217,3.33,3.33,0,0,1,2.521,3.231Z"/>
        </g>
        <g>
          <path class="a2f44c77-7c60-47c9-bcea-27fbaec4d22d" d="M215.724,191.064a18.4,18.4,0,1,1,18.4-18.4A18.422,18.422,0,0,1,215.724,191.064Zm0-30.128a11.73,11.73,0,1,0,11.73,11.73A11.746,11.746,0,0,0,215.724,160.936Z"/>
          <path class="a2f44c77-7c60-47c9-bcea-27fbaec4d22d" d="M214.982,222.684a49.5,49.5,0,0,1-8.942-.84,3.343,3.343,0,0,1-2.736-3.283V208.4a38.677,38.677,0,0,1-4.845-1.96L191.2,213.7a3.329,3.329,0,0,1-4.227.4,50.137,50.137,0,0,1-13.149-13.052,3.331,3.331,0,0,1,.384-4.253l7.21-7.216a38.509,38.509,0,0,1-2.064-4.937H169.132a3.33,3.33,0,0,1-3.276-2.715,48.594,48.594,0,0,1,0-18.536,3.33,3.33,0,0,1,3.276-2.716h10.219a38.5,38.5,0,0,1,2.064-4.936l-7.21-7.216a3.331,3.331,0,0,1-.384-4.253,50.137,50.137,0,0,1,13.149-13.052,3.337,3.337,0,0,1,4.227.4l7.262,7.262a38.682,38.682,0,0,1,4.845-1.961V126.77a3.343,3.343,0,0,1,2.736-3.282,48.447,48.447,0,0,1,18.535.1,3.323,3.323,0,0,1,2.7,3.27v10.27a37.294,37.294,0,0,1,4.637,1.967l7.209-7.21a3.339,3.339,0,0,1,4.253-.384,49.94,49.94,0,0,1,13.052,13.149,3.328,3.328,0,0,1-.4,4.227l-7.262,7.262a37.212,37.212,0,0,1,1.863,4.539h10.218a3.331,3.331,0,0,1,3.276,2.729,48.781,48.781,0,0,1,0,18.51,3.33,3.33,0,0,1-3.276,2.728H250.62a37.226,37.226,0,0,1-1.863,4.54l7.262,7.262a3.327,3.327,0,0,1,.4,4.226,49.929,49.929,0,0,1-13.052,13.15,3.33,3.33,0,0,1-4.253-.385l-7.2-7.209a37.723,37.723,0,0,1-4.643,1.96V218.47a3.323,3.323,0,0,1-2.7,3.27A50.059,50.059,0,0,1,214.982,222.684Zm-5.008-6.982a40.548,40.548,0,0,0,10.628-.065v-9.906a3.325,3.325,0,0,1,2.469-3.217,30.477,30.477,0,0,0,7.724-3.276,3.342,3.342,0,0,1,4.064.508l6.949,6.956a43.7,43.7,0,0,0,7.49-7.542l-7-7a3.341,3.341,0,0,1-.527-4.032,30.462,30.462,0,0,0,3.133-7.652,3.343,3.343,0,0,1,3.23-2.5h9.854a41.106,41.106,0,0,0,0-10.629h-9.854a3.344,3.344,0,0,1-3.23-2.494,30.462,30.462,0,0,0-3.133-7.652,3.34,3.34,0,0,1,.527-4.032l7-7a43.424,43.424,0,0,0-7.49-7.542l-6.949,6.949a3.34,3.34,0,0,1-4.064.508,30.889,30.889,0,0,0-7.731-3.276,3.332,3.332,0,0,1-2.462-3.217v-9.9a41.16,41.16,0,0,0-10.628-.066v9.809a3.329,3.329,0,0,1-2.521,3.23,31.176,31.176,0,0,0-7.939,3.217,3.352,3.352,0,0,1-4.025-.534l-7-6.994a43.1,43.1,0,0,0-7.541,7.483l6.949,6.955a3.333,3.333,0,0,1,.508,4.064,30.517,30.517,0,0,0-3.341,8,3.346,3.346,0,0,1-3.231,2.494h-9.86a41.106,41.106,0,0,0,0,10.629h9.86a3.345,3.345,0,0,1,3.231,2.5,30.51,30.51,0,0,0,3.341,8,3.332,3.332,0,0,1-.508,4.064l-6.949,6.956a43.135,43.135,0,0,0,7.541,7.483l7-7a3.336,3.336,0,0,1,4.025-.534,31.142,31.142,0,0,0,7.939,3.218,3.329,3.329,0,0,1,2.521,3.23Z"/>
        </g>
      </g>
      <g>
        <path class="e25730e6-33de-44b3-8aa7-eb5b0bf98599" d="M123.647,97.942h2.5l4.879,12.605h-2.323l-1.278-3.529h-5.186l-1.3,3.529H118.7Zm3.15,7.383-1.944-5.366-1.981,5.366Z"/>
        <path class="e25730e6-33de-44b3-8aa7-eb5b0bf98599" d="M134.1,106.892a1.942,1.942,0,0,0,1.98,2.16,2.278,2.278,0,0,0,1.981-1.116v-6.41H140.1v9.021h-2.034v-1.495a3.3,3.3,0,0,1-2.881,1.638,3.025,3.025,0,0,1-3.115-3.222v-5.942H134.1Z"/>
        <path class="e25730e6-33de-44b3-8aa7-eb5b0bf98599" d="M143.716,103.146H141.9v-1.62h1.818V99.041l2.034-.432v2.917h2.521v1.62H145.75v4.574c0,.882.342,1.224,1.261,1.224a3.768,3.768,0,0,0,1.225-.215v1.709a6.372,6.372,0,0,1-1.747.252c-1.819,0-2.773-.864-2.773-2.52Z"/>
        <path class="e25730e6-33de-44b3-8aa7-eb5b0bf98599" d="M154.049,101.382a4.675,4.675,0,1,1-4.537,4.663A4.5,4.5,0,0,1,154.049,101.382Zm2.521,4.681a2.55,2.55,0,1,0-5.041,0,2.545,2.545,0,1,0,5.041,0Z"/>
        <path class="e25730e6-33de-44b3-8aa7-eb5b0bf98599" d="M160.69,101.526h2.034v1.44a3.076,3.076,0,0,1,2.682-1.584,2.835,2.835,0,0,1,2.648,1.746,3.327,3.327,0,0,1,2.988-1.746A2.988,2.988,0,0,1,174,104.659v5.888h-2.034v-5.456a1.826,1.826,0,0,0-1.819-2.071,2.15,2.15,0,0,0-1.819,1.063c.019.2.037.377.037.576v5.888h-2.035v-5.456a1.826,1.826,0,0,0-1.819-2.071,2.093,2.093,0,0,0-1.782,1.026v6.5H160.69Z"/>
        <path class="e25730e6-33de-44b3-8aa7-eb5b0bf98599" d="M176.007,107.954c0-1.621,1.315-2.647,3.439-2.647a5.57,5.57,0,0,1,2.43.558v-.99c0-1.188-.683-1.8-2.07-1.8a6.243,6.243,0,0,0-2.629.7l-.72-1.476a8.659,8.659,0,0,1,3.745-.918c2.341,0,3.691,1.188,3.691,3.277v5.888h-2.017v-.919a3.763,3.763,0,0,1-2.682,1.062C177.3,110.69,176.007,109.574,176.007,107.954Zm3.745,1.315a3.217,3.217,0,0,0,2.124-.739v-1.476a4.651,4.651,0,0,0-2.088-.433c-1.152,0-1.873.505-1.873,1.3C177.915,108.746,178.636,109.269,179.752,109.269Z"/>
        <path class="e25730e6-33de-44b3-8aa7-eb5b0bf98599" d="M187.2,103.146h-1.818v-1.62H187.2V99.041l2.035-.432v2.917h2.52v1.62h-2.52v4.574c0,.882.341,1.224,1.26,1.224a3.768,3.768,0,0,0,1.225-.215v1.709a6.372,6.372,0,0,1-1.747.252c-1.819,0-2.773-.864-2.773-2.52Z"/>
        <path class="e25730e6-33de-44b3-8aa7-eb5b0bf98599" d="M193.285,98.447a1.27,1.27,0,0,1,2.539,0,1.27,1.27,0,0,1-2.539,0Zm2.288,12.1h-2.035v-9.021h2.035Z"/>
        <path class="e25730e6-33de-44b3-8aa7-eb5b0bf98599" d="M202.2,101.382a4.674,4.674,0,1,1-4.538,4.663A4.5,4.5,0,0,1,202.2,101.382Zm2.52,4.681a2.55,2.55,0,1,0-5.041,0,2.545,2.545,0,1,0,5.041,0Z"/>
        <path class="e25730e6-33de-44b3-8aa7-eb5b0bf98599" d="M208.838,101.526h2.034V103a3.276,3.276,0,0,1,2.864-1.62,3.035,3.035,0,0,1,3.114,3.223v5.942h-2.034v-5.366a1.943,1.943,0,0,0-1.981-2.161,2.313,2.313,0,0,0-1.963,1.081v6.446h-2.034Z"/>
      </g>
    </g>
  </g>
</svg>
