<svg xmlns="http://www.w3.org/2000/svg" xmlns:xlink="http://www.w3.org/1999/xlink" viewBox="0 0 265 210">
  <defs>
    <style>
      .aa6042d8-50e9-4bf0-a1e5-1d68efdb6bf8, .ed3c5e63-b4b9-49e1-9be5-aeb4af43605b {
        fill: none;
      }

      .aa6042d8-50e9-4bf0-a1e5-1d68efdb6bf8 {
        stroke: #707171;
      }

      .aff7daa4-e8aa-4b65-a976-ea180dab539e {
        fill: #2e2e2e;
      }

      .b6766793-fdd0-42df-ad7b-6397be9ed392 {
        fill: #fff;
      }

      .b4802715-4a66-421c-90cd-3e0a8e8b42b4 {
        clip-path: url(#e018fae9-f88d-461a-8185-4482fe9cb194);
      }
    </style>
    <clipPath id="e018fae9-f88d-461a-8185-4482fe9cb194">
      <circle class="ed3c5e63-b4b9-49e1-9be5-aeb4af43605b" cx="135.943" cy="93.074" r="17.786"/>
    </clipPath>
  </defs>
  <g id="ed822143-b414-4bd9-b0a2-b6f9052d9ddf" data-name="Layer 1">
    <g>
      <g id="a95ec173-ac96-451b-b2cc-262197a24bc6" data-name="Rectangle 12">
        <rect class="ed3c5e63-b4b9-49e1-9be5-aeb4af43605b" width="265" height="210"/>
        <rect class="aa6042d8-50e9-4bf0-a1e5-1d68efdb6bf8" x="0.5" y="0.5" width="264" height="209"/>
      </g>
      <rect class="aff7daa4-e8aa-4b65-a976-ea180dab539e" x="0.5" y="0.5" width="264" height="209"/>
      <g>
        <path id="f07bed26-5c58-4030-8bf0-342a402792a6" data-name="Path 343" class="b6766793-fdd0-42df-ad7b-6397be9ed392" d="M131.346,115.248a10.874,10.874,0,1,0-11.96-.006,20.4,20.4,0,0,0-14.416,19.475,1.357,1.357,0,0,0,1.353,1.362h0a1.358,1.358,0,0,0,1.36-1.354v0a17.668,17.668,0,0,1,35.335,0,1.357,1.357,0,0,0,1.356,1.359h0a1.358,1.358,0,0,0,1.359-1.355v0A20.412,20.412,0,0,0,131.346,115.248Zm-14.13-9.067a8.155,8.155,0,1,1,8.154,8.155,8.163,8.163,0,0,1-8.154-8.155Z"/>
        <circle id="bac87ea5-e499-4a54-82aa-27bac472564d" data-name="Ellipse 1" class="aff7daa4-e8aa-4b65-a976-ea180dab539e" cx="135.943" cy="93.074" r="17.786"/>
        <path id="ba4b8278-478e-4136-af21-41eca249d91b" data-name="Path 342" class="b6766793-fdd0-42df-ad7b-6397be9ed392" d="M165.24,118.664l-14.258-13.888a18.848,18.848,0,1,0-2.419,2.419l14.254,13.888a1.736,1.736,0,0,0,2.423,0A1.712,1.712,0,0,0,165.24,118.664Zm-28.712-10.525a15.4,15.4,0,1,1,15.4-15.4,15.418,15.418,0,0,1-15.4,15.4Z"/>
        <g class="b4802715-4a66-421c-90cd-3e0a8e8b42b4">
          <g id="e4fe2857-3277-435a-9349-e60638b531ab" data-name="Mask Group 1">
            <path id="a31c1a02-7e71-4fcc-ae6d-880e8b6d6763" data-name="Path 344" class="b6766793-fdd0-42df-ad7b-6397be9ed392" d="M133.853,118.843a19.456,19.456,0,1,0-21.4-.008,36.516,36.516,0,0,0-25.8,34.851,2.43,2.43,0,0,0,2.429,2.432h0a2.427,2.427,0,0,0,2.432-2.422v-.01a31.616,31.616,0,1,1,63.232,0,2.43,2.43,0,0,0,2.428,2.432h0a2.426,2.426,0,0,0,2.432-2.422v-.01A36.525,36.525,0,0,0,133.853,118.843ZM108.56,102.616a14.6,14.6,0,1,1,14.6,14.6,14.611,14.611,0,0,1-14.6-14.6Z"/>
          </g>
        </g>
      </g>
    </g>
  </g>
</svg>
