<svg xmlns="http://www.w3.org/2000/svg" viewBox="0 0 360 217">
  <defs>
    <style>
      .bf3fd32e-391d-4a72-ba54-9bd36ee851a7 {
        fill: #f0f0f0;
      }

      .eac6dc6b-2068-401d-841e-38d32aa5698f {
        fill: #2e2e2e;
      }
    </style>
  </defs>
  <g id="bac4663e-cfde-46e1-84a7-d6fa920cdb96" data-name="Layer 1">
    <rect id="fa40bb38-26e1-472a-bcf7-b012ea5609d6" data-name="Rectangle 25" class="bf3fd32e-391d-4a72-ba54-9bd36ee851a7" width="360" height="217"/>
    <g id="b58e4433-303e-462c-a55a-4e41402ec141" data-name="Group 81">
      <g id="bce816ae-e7df-43a5-81e0-3d02ea2554d1" data-name="Group 74-3">
        <path id="b1a9f191-2f71-4ec2-9d83-06ecbd9ec1bd" data-name="Path 352-3" class="eac6dc6b-2068-401d-841e-38d32aa5698f" d="M177.111,154.765a.911.911,0,0,1-.643-.265,6.156,6.156,0,0,1,0-8.7l6.469-6.469a6.3,6.3,0,0,1,8.7,0,6.16,6.16,0,0,1,0,8.7l-1.416,1.416a.907.907,0,0,1-1.293-1.273l.01-.01,1.416-1.416a4.343,4.343,0,0,0,0-6.133,4.439,4.439,0,0,0-6.133,0l-6.469,6.469a4.334,4.334,0,0,0,0,6.132.907.907,0,0,1,0,1.283l0,0A.9.9,0,0,1,177.111,154.765Z"/>
        <path id="abbb2dc7-8381-4353-bfdf-4a3db8f4a927" data-name="Path 353-3" class="eac6dc6b-2068-401d-841e-38d32aa5698f" d="M173.577,164.752a6.15,6.15,0,0,1-4.351-10.5l.332-.33a.907.907,0,0,1,1.283,1.283l-.332.33a4.337,4.337,0,0,0,6.133,6.133l5.542-5.542a4.334,4.334,0,0,0,0-6.132.907.907,0,0,1,1.273-1.293l.01.01a6.154,6.154,0,0,1,0,8.7l-5.542,5.542A6.126,6.126,0,0,1,173.577,164.752Z"/>
      </g>
      <path id="fdab33fd-00b2-424c-94b9-f7a13cf45780" data-name="Path 354-3" class="eac6dc6b-2068-401d-841e-38d32aa5698f" d="M278.449,155.68h-1.815a.907.907,0,0,1-.908-.906v0a.907.907,0,0,1,.906-.908h1.817a.908.908,0,0,1,0,1.816Z"/>
      <path id="b5c78f89-6d92-428c-9d55-e2604040b7d7" data-name="Path 355-3" class="eac6dc6b-2068-401d-841e-38d32aa5698f" d="M269.374,164.755a.907.907,0,0,1-.908-.906v-1.816a.907.907,0,0,1,.906-.908h0a.909.909,0,0,1,.908.908v1.815A.908.908,0,0,1,269.374,164.755Z"/>
      <path id="bf4f6488-375d-4107-a1c5-c8d36d0c657e" data-name="Path 356-3" class="eac6dc6b-2068-401d-841e-38d32aa5698f" d="M275.57,161.877a.907.907,0,0,1-.643-.267l-2.566-2.565a.907.907,0,0,1,1.283-1.283l2.567,2.567a.9.9,0,0,1,.01,1.273l-.01.01A.9.9,0,0,1,275.57,161.877Z"/>
      <path id="fc384e88-85fc-49cf-8034-a7c559deca7f" data-name="Path 357-3" class="eac6dc6b-2068-401d-841e-38d32aa5698f" d="M254.853,148.419h-1.815a.907.907,0,0,1-.908-.906v0a.907.907,0,0,1,.906-.908h1.817a.908.908,0,0,1,0,1.816Z"/>
      <path id="e1381bc1-6c18-4fdd-9a96-430b75370408" data-name="Path 358-3" class="eac6dc6b-2068-401d-841e-38d32aa5698f" d="M262.113,141.159a.907.907,0,0,1-.908-.906v-1.816a.907.907,0,0,1,.906-.908h0a.909.909,0,0,1,.908.908v1.815A.908.908,0,0,1,262.113,141.159Z"/>
      <path id="f7dac53f-a9c4-4022-8d80-20813b82e236" data-name="Path 359-3" class="eac6dc6b-2068-401d-841e-38d32aa5698f" d="M258.482,144.789a.907.907,0,0,1-.643-.267l-2.565-2.567a.907.907,0,0,1,1.283-1.283l2.567,2.567a.9.9,0,0,1,.01,1.273l-.01.01A.9.9,0,0,1,258.482,144.789Z"/>
      <g id="f15215f4-fda1-4c76-8da7-85c9f8ff9d50" data-name="Group 75-3">
        <path id="a0a6d40c-88cc-430d-84b9-3b8da574c56a" data-name="Path 360-3" class="eac6dc6b-2068-401d-841e-38d32aa5698f" d="M95.122,66.752a7.26,7.26,0,1,1,7.26-7.26A7.268,7.268,0,0,1,95.122,66.752Zm0-12.706a5.445,5.445,0,1,0,5.445,5.445A5.45,5.45,0,0,0,95.122,54.046Z"/>
        <path id="ada4e40d-c575-4d58-a06d-fea209caff5c" data-name="Path 361-3" class="eac6dc6b-2068-401d-841e-38d32aa5698f" d="M107.819,79.458a.909.909,0,0,1-.908-.908,11.8,11.8,0,0,0-23.6,0,.908.908,0,0,1-1.816,0,13.616,13.616,0,0,1,27.232,0A.909.909,0,0,1,107.819,79.458Z"/>
      </g>
      <g id="b623a3ba-5fb7-473b-97b2-6b9080f61328" data-name="Group 76-3">
        <path id="af0f804a-8dd4-4101-a2bd-ce3bf3bc7ae9" data-name="Path 362-3" class="eac6dc6b-2068-401d-841e-38d32aa5698f" d="M169.527,56.453a1.47,1.47,0,0,1-.563-.109,1.8,1.8,0,0,1-.49-.327,1.448,1.448,0,0,1-.327-.49,1.5,1.5,0,0,1,2.451-1.634,1.574,1.574,0,0,1,.436,1.071,1.549,1.549,0,0,1-.109.563,2.339,2.339,0,0,1-.327.49,1.8,1.8,0,0,1-.49.327A1.561,1.561,0,0,1,169.527,56.453Z"/>
        <path id="b92ba61a-2806-47ce-84a5-8206578fd7fe" data-name="Path 363-3" class="eac6dc6b-2068-401d-841e-38d32aa5698f" d="M180.418,56.453a1.47,1.47,0,0,1-.563-.109,1.8,1.8,0,0,1-.49-.327,1.448,1.448,0,0,1-.327-.49,1.555,1.555,0,0,1,0-1.144,1.448,1.448,0,0,1,.327-.49A1.549,1.549,0,0,1,181,53.566a1.448,1.448,0,0,1,.49.327,1.574,1.574,0,0,1,.436,1.071,1.549,1.549,0,0,1-.109.563,2.3,2.3,0,0,1-.327.49,1.8,1.8,0,0,1-.49.327A1.561,1.561,0,0,1,180.418,56.453Z"/>
        <path id="ab284f23-eb77-4983-9e3f-e67d3a060549" data-name="Path 364-3" class="eac6dc6b-2068-401d-841e-38d32aa5698f" d="M191.308,56.453a1.47,1.47,0,0,1-.563-.109,1.8,1.8,0,0,1-.49-.327,1.448,1.448,0,0,1-.327-.49,1.555,1.555,0,0,1,0-1.144,1.448,1.448,0,0,1,.327-.49,1.549,1.549,0,0,1,1.634-.327,1.448,1.448,0,0,1,.49.327,2.3,2.3,0,0,1,.327.49,1.561,1.561,0,0,1,.109.581,1.532,1.532,0,0,1-.436,1.053,1.8,1.8,0,0,1-.49.327A1.561,1.561,0,0,1,191.308,56.453Z"/>
        <path id="b55a8e9e-1237-48ea-af8d-e471b6b2d619" data-name="Path 365-3" class="eac6dc6b-2068-401d-841e-38d32aa5698f" d="M180.418,67.344a1.5,1.5,0,0,1-1.053-.436,1.448,1.448,0,0,1-.327-.49,1.561,1.561,0,0,1-.109-.581,1.5,1.5,0,0,1,.436-1.053,1.5,1.5,0,0,1,2.56,1.053,1.574,1.574,0,0,1-.436,1.071,2.339,2.339,0,0,1-.49.327A1.561,1.561,0,0,1,180.418,67.344Z"/>
        <path id="aaa662b1-94db-480a-96b1-f27b728c8ed5" data-name="Path 366-3" class="eac6dc6b-2068-401d-841e-38d32aa5698f" d="M169.527,67.344a1.47,1.47,0,0,1-.563-.109,2.339,2.339,0,0,1-.49-.327,1.448,1.448,0,0,1-.327-.49,1.561,1.561,0,0,1-.109-.581,1.5,1.5,0,0,1,.436-1.053,1.5,1.5,0,0,1,2.56,1.053,1.489,1.489,0,0,1-1.507,1.507Z"/>
        <path id="fdf1360a-7ae6-492a-8963-463e4f11d186" data-name="Path 367-3" class="eac6dc6b-2068-401d-841e-38d32aa5698f" d="M169.527,78.235a1.47,1.47,0,0,1-.563-.109,2.339,2.339,0,0,1-.49-.327,1.5,1.5,0,0,1-.436-1.071,1.5,1.5,0,0,1,3,0,1.489,1.489,0,0,1-1.507,1.507Z"/>
        <path id="bd54411c-ebf7-4bf8-8bf1-154d22cdf4d2" data-name="Path 368-3" class="eac6dc6b-2068-401d-841e-38d32aa5698f" d="M180.418,78.235a1.532,1.532,0,0,1-1.053-.436,1.5,1.5,0,0,1-.436-1.071,1.5,1.5,0,0,1,3,0,1.489,1.489,0,0,1-1.507,1.507Z"/>
        <path id="ef327cca-3ead-40ec-9558-d821633bc0f5" data-name="Path 369-3" class="eac6dc6b-2068-401d-841e-38d32aa5698f" d="M191.308,78.235a1.532,1.532,0,0,1-1.053-.436,1.5,1.5,0,0,1-.436-1.071,1.532,1.532,0,0,1,.436-1.053,1.448,1.448,0,0,1,.49-.327,1.515,1.515,0,0,1,1.634.327,1.532,1.532,0,0,1,.436,1.053,1.489,1.489,0,0,1-1.507,1.507Z"/>
        <path id="aa6e68eb-56aa-42fc-ba34-35b308f85685" data-name="Path 370-3" class="eac6dc6b-2068-401d-841e-38d32aa5698f" d="M191.308,67.344a1.47,1.47,0,0,1-.563-.109,2.339,2.339,0,0,1-.49-.327,1.5,1.5,0,0,1-.436-1.071,1.5,1.5,0,0,1,3,0,1.574,1.574,0,0,1-.436,1.071,2.339,2.339,0,0,1-.49.327A1.561,1.561,0,0,1,191.308,67.344Z"/>
      </g>
      <path id="a406eb69-758a-49d5-bacc-2801145320ae" data-name="Path 371-3" class="eac6dc6b-2068-401d-841e-38d32aa5698f" d="M253.029,57.716a.907.907,0,0,1-.908-.906v0a.908.908,0,0,1,.906-.908l25.422-.013h0a.909.909,0,0,1,.908.908h0a.909.909,0,0,1-.908.908h0l-25.421.013Z"/>
      <path id="b5ff5e17-0343-438b-a645-b47d47b2e537" data-name="Path 372-3" class="eac6dc6b-2068-401d-841e-38d32aa5698f" d="M278.438,66.752h-25.41a.909.909,0,0,1-.908-.908h0a.907.907,0,0,1,.906-.908h25.412a.907.907,0,0,1,.908.906v0a.909.909,0,0,1-.908.908Z"/>
      <path id="e65898d0-788c-4958-8d49-3686c94c1282" data-name="Path 373-3" class="eac6dc6b-2068-401d-841e-38d32aa5698f" d="M278.438,75.827h-25.41a.909.909,0,0,1-.908-.908h0a.907.907,0,0,1,.906-.908h25.412a.907.907,0,0,1,.908.906v0a.909.909,0,0,1-.908.908Z"/>
      <g id="f854524d-a1d3-4cfc-9f18-afe6294eb27a" data-name="Group 77-3">
        <path id="e53525da-eba5-41a4-8d96-69fbe8e9427c" data-name="Path 374-3" class="eac6dc6b-2068-401d-841e-38d32aa5698f" d="M91.483,157.507a9.983,9.983,0,1,1,9.983-9.983A10,10,0,0,1,91.483,157.507Zm0-18.151a8.168,8.168,0,1,0,8.168,8.168A8.176,8.176,0,0,0,91.483,139.356Z"/>
        <path id="e4939958-0dd1-4e8f-8ae8-9852dee3482e" data-name="Path 375-3" class="eac6dc6b-2068-401d-841e-38d32aa5698f" d="M107.82,164.768a.907.907,0,0,1-.643-.267l-9.653-9.653a.907.907,0,0,1,1.283-1.283l9.653,9.653a.9.9,0,0,1,.01,1.273l-.01.01A.9.9,0,0,1,107.82,164.768Z"/>
      </g>
      <g id="a5aadff7-2f5f-4185-bd78-0feb76058b72" data-name="Group 78-3">
        <path id="b69cc6b0-e311-4505-b686-da650f3c3fa8" data-name="Path 376-3" class="eac6dc6b-2068-401d-841e-38d32aa5698f" d="M262.421,154.765a.911.911,0,0,1-.643-.265,6.156,6.156,0,0,1,0-8.7l6.469-6.469a6.3,6.3,0,0,1,8.7,0,6.16,6.16,0,0,1,0,8.7l-1.416,1.416a.907.907,0,0,1-1.293-1.273l.01-.01,1.416-1.416a4.343,4.343,0,0,0,0-6.133,4.439,4.439,0,0,0-6.133,0l-6.469,6.469a4.334,4.334,0,0,0,0,6.132.907.907,0,0,1,0,1.283l0,0A.9.9,0,0,1,262.421,154.765Z"/>
        <path id="b63a913f-6579-469b-8e87-8ca8c72c0c53" data-name="Path 377-3" class="eac6dc6b-2068-401d-841e-38d32aa5698f" d="M258.887,164.752a6.15,6.15,0,0,1-4.351-10.5l.332-.33a.907.907,0,0,1,1.283,1.283l-.332.33a4.337,4.337,0,0,0,6.133,6.133l5.542-5.542a4.334,4.334,0,0,0,0-6.132.907.907,0,0,1,1.273-1.293l.01.01a6.154,6.154,0,0,1,0,8.7l-5.542,5.542A6.126,6.126,0,0,1,258.887,164.752Z"/>
      </g>
    </g>
  </g>
</svg>
