<svg xmlns="http://www.w3.org/2000/svg" viewBox="0 0 265 210">
  <defs>
    <style>
      .abe16bc8-2ca3-47a3-9fcf-665c896792b0 {
        fill: #2e2e2e;
      }

      .a74b8795-deba-4b1d-9217-23537822fd20 {
        fill: #fff;
      }
    </style>
  </defs>
  <g id="fd5829ea-cad9-4c8b-86a6-209b50750660" data-name="Layer 1">
    <g>
      <rect class="abe16bc8-2ca3-47a3-9fcf-665c896792b0" x="0.5" y="0.5" width="264" height="209"/>
      <g>
        <path class="a74b8795-deba-4b1d-9217-23537822fd20" d="M102.242,95.364h3.419l6.666,17.218h-3.174l-1.746-4.821h-7.084l-1.771,4.821H95.477Zm4.3,10.085-2.657-7.33-2.7,7.33Z"/>
        <path class="a74b8795-deba-4b1d-9217-23537822fd20" d="M116.538,107.589a2.653,2.653,0,0,0,2.7,2.951,3.108,3.108,0,0,0,2.706-1.524v-8.757h2.779v12.323h-2.779V110.54a4.507,4.507,0,0,1-3.936,2.238,4.133,4.133,0,0,1-4.255-4.4v-8.117h2.78Z"/>
        <path class="a74b8795-deba-4b1d-9217-23537822fd20" d="M129.676,102.473h-2.484v-2.214h2.484V96.864l2.78-.59v3.985H135.9v2.214h-3.443v6.248c0,1.2.467,1.672,1.721,1.672a5.116,5.116,0,0,0,1.673-.3v2.337a8.76,8.76,0,0,1-2.386.343c-2.484,0-3.788-1.179-3.788-3.443Z"/>
        <path class="a74b8795-deba-4b1d-9217-23537822fd20" d="M143.8,100.062a6.386,6.386,0,1,1-6.2,6.371A6.153,6.153,0,0,1,143.8,100.062Zm3.444,6.395c0-2.336-1.451-4.009-3.444-4.009-2.016,0-3.443,1.673-3.443,4.009,0,2.313,1.427,3.96,3.443,3.96S147.241,108.745,147.241,106.457Z"/>
        <path class="a74b8795-deba-4b1d-9217-23537822fd20" d="M152.878,100.259h2.779v1.968a4.2,4.2,0,0,1,3.665-2.165,3.873,3.873,0,0,1,3.616,2.386,4.547,4.547,0,0,1,4.083-2.386c2.386,0,4.034,1.845,4.034,4.477v8.043h-2.78v-7.453c0-1.722-.959-2.829-2.483-2.829a2.939,2.939,0,0,0-2.485,1.451c.025.271.049.517.049.788v8.043h-2.779v-7.453c0-1.722-.96-2.829-2.485-2.829a2.859,2.859,0,0,0-2.435,1.4v8.879h-2.779Z"/>
        <path class="a74b8795-deba-4b1d-9217-23537822fd20" d="M173.815,109.04c0-2.214,1.8-3.616,4.7-3.616a7.617,7.617,0,0,1,3.322.763v-1.353c0-1.624-.936-2.46-2.83-2.46a8.509,8.509,0,0,0-3.59.96l-.985-2.018a11.846,11.846,0,0,1,5.116-1.254c3.2,0,5.043,1.624,5.043,4.477v8.043h-2.754v-1.255a5.146,5.146,0,0,1-3.665,1.451C175.587,112.778,173.815,111.254,173.815,109.04Zm5.116,1.8a4.4,4.4,0,0,0,2.9-1.009v-2.016a6.371,6.371,0,0,0-2.854-.591c-1.574,0-2.559.688-2.559,1.771C176.422,110.122,177.407,110.836,178.931,110.836Z"/>
        <path class="a74b8795-deba-4b1d-9217-23537822fd20" d="M189.119,102.473h-2.485v-2.214h2.485V96.864l2.779-.59v3.985h3.443v2.214H191.9v6.248c0,1.2.467,1.672,1.722,1.672a5.124,5.124,0,0,0,1.673-.3v2.337a8.765,8.765,0,0,1-2.386.343c-2.485,0-3.788-1.179-3.788-3.443Z"/>
        <path class="a74b8795-deba-4b1d-9217-23537822fd20" d="M197.435,96.053a1.734,1.734,0,0,1,3.468,0,1.734,1.734,0,0,1-3.468,0Zm3.123,16.529h-2.779V100.259h2.779Z"/>
        <path class="a74b8795-deba-4b1d-9217-23537822fd20" d="M209.612,100.062a6.386,6.386,0,1,1-6.2,6.371A6.153,6.153,0,0,1,209.612,100.062Zm3.443,6.395c0-2.336-1.451-4.009-3.443-4.009-2.017,0-3.443,1.673-3.443,4.009,0,2.313,1.426,3.96,3.443,3.96S213.055,108.745,213.055,106.457Z"/>
        <path class="a74b8795-deba-4b1d-9217-23537822fd20" d="M218.692,100.259h2.779v2.017a4.474,4.474,0,0,1,3.911-2.214,4.147,4.147,0,0,1,4.256,4.4v8.117h-2.78v-7.33a2.655,2.655,0,0,0-2.705-2.952,3.16,3.16,0,0,0-2.682,1.476v8.806h-2.779Z"/>
      </g>
      <g>
        <path class="a74b8795-deba-4b1d-9217-23537822fd20" d="M57.028,113.276A8.277,8.277,0,1,1,65.3,105,8.285,8.285,0,0,1,57.028,113.276Zm0-13.553A5.277,5.277,0,1,0,62.3,105,5.282,5.282,0,0,0,57.028,99.723Z"/>
        <path class="a74b8795-deba-4b1d-9217-23537822fd20" d="M56.7,127.5a22.14,22.14,0,0,1-4.022-.378,1.5,1.5,0,0,1-1.23-1.476v-4.573a17.117,17.117,0,0,1-2.18-.879L46,123.459a1.5,1.5,0,0,1-1.9.182,22.5,22.5,0,0,1-5.915-5.871,1.5,1.5,0,0,1,.173-1.913l3.243-3.246a16.821,16.821,0,0,1-.929-2.221h-4.6a1.5,1.5,0,0,1-1.473-1.222,21.819,21.819,0,0,1,0-8.338,1.5,1.5,0,0,1,1.473-1.221h4.6a17.258,17.258,0,0,1,.926-2.224l-3.24-3.243a1.5,1.5,0,0,1-.173-1.913A22.45,22.45,0,0,1,44.1,86.358a1.5,1.5,0,0,1,1.9.181l3.267,3.267a17.018,17.018,0,0,1,2.18-.882v-4.57a1.5,1.5,0,0,1,1.23-1.477,22.043,22.043,0,0,1,8.338.044A1.5,1.5,0,0,1,62.225,84.4v4.623a16.692,16.692,0,0,1,2.086.882l3.243-3.244a1.5,1.5,0,0,1,1.913-.172A22.482,22.482,0,0,1,75.338,92.4a1.5,1.5,0,0,1-.182,1.9L71.89,97.567a16.843,16.843,0,0,1,.835,2.042h4.6A1.5,1.5,0,0,1,78.8,100.83a21.872,21.872,0,0,1,0,8.338,1.5,1.5,0,0,1-1.474,1.222h-4.6a17.318,17.318,0,0,1-.835,2.042l3.266,3.266a1.5,1.5,0,0,1,.182,1.9,22.512,22.512,0,0,1-5.871,5.915,1.5,1.5,0,0,1-1.913-.173L64.311,120.1a16.692,16.692,0,0,1-2.086.882V125.6a1.5,1.5,0,0,1-1.213,1.473A22.745,22.745,0,0,1,56.7,127.5Zm-2.252-3.14a18.388,18.388,0,0,0,4.781-.03v-4.456a1.5,1.5,0,0,1,1.11-1.447,13.77,13.77,0,0,0,3.469-1.471,1.5,1.5,0,0,1,1.831.226l3.129,3.129a19.387,19.387,0,0,0,3.366-3.4l-3.146-3.146a1.5,1.5,0,0,1-.241-1.811,13.839,13.839,0,0,0,1.41-3.445,1.5,1.5,0,0,1,1.453-1.122h4.435a18.511,18.511,0,0,0,0-4.781H71.606a1.5,1.5,0,0,1-1.453-1.122,13.828,13.828,0,0,0-1.407-3.446,1.5,1.5,0,0,1,.238-1.81l3.146-3.147a19.416,19.416,0,0,0-3.366-3.4l-3.129,3.126a1.5,1.5,0,0,1-1.828.228,13.964,13.964,0,0,0-3.475-1.473,1.5,1.5,0,0,1-1.107-1.448V85.669a18.386,18.386,0,0,0-4.781-.029v4.412a1.5,1.5,0,0,1-1.137,1.456,13.931,13.931,0,0,0-3.569,1.441,1.5,1.5,0,0,1-1.81-.237l-3.149-3.149a19.6,19.6,0,0,0-3.393,3.369l3.126,3.129a1.5,1.5,0,0,1,.228,1.828,13.879,13.879,0,0,0-1.505,3.6,1.5,1.5,0,0,1-1.451,1.12H37.352a18.394,18.394,0,0,0,0,4.781h4.432a1.5,1.5,0,0,1,1.451,1.119,14.031,14.031,0,0,0,1.505,3.6,1.5,1.5,0,0,1-.228,1.828l-3.126,3.129a19.485,19.485,0,0,0,3.395,3.366l3.147-3.147a1.5,1.5,0,0,1,1.81-.237,13.932,13.932,0,0,0,3.569,1.439,1.5,1.5,0,0,1,1.137,1.456Z"/>
      </g>
    </g>
  </g>
</svg>
