<?xml version="1.0" encoding="UTF-8"?><svg id="a" xmlns="http://www.w3.org/2000/svg" width="555" height="320" xmlns:xlink="http://www.w3.org/1999/xlink" viewBox="0 0 555 320"><defs><style>.h,.i,.j{fill:none;}.k{fill:#f3f3f3;}.l{fill:#e00;}.m{fill:#647786;}.n{fill:#647787;}.o{fill:#81c39a;}.i{stroke:#82c299;}.i,.j{stroke-linecap:round;stroke-linejoin:round;stroke-width:1.617809px;}.j{stroke:#79c4c6;}.p{clip-path:url(#g);}.q{clip-path:url(#e);}.r{clip-path:url(#f);}.s{clip-path:url(#d);}.t{clip-path:url(#b);}.u{clip-path:url(#c);}</style><clipPath id="b"><rect class="h" x="80.968658" y="34.91662" width="393.062684" height="193.621574" rx="11.17339" ry="11.17339"/></clipPath><clipPath id="c"><path class="h" d="m209.002214,265.879028H59.354876V26.443287h149.647338v239.435741Z"/></clipPath><clipPath id="d"><rect class="h" x="101.99287" y="11.817201" width="122.791708" height="150.618024"/></clipPath><clipPath id="e"><rect class="h" x="101.99287" y="162.435224" width="122.791708" height="150.618024"/></clipPath><clipPath id="f"><rect class="h" x="-20.798837" y="11.817201" width="122.791708" height="150.618024"/></clipPath><clipPath id="g"><rect class="h" x="-20.798837" y="162.435224" width="122.791708" height="150.618024"/></clipPath></defs><path class="m" d="m85.427463,250.60909h-.02832l-2.145508,1.479492v-1.211914l2.162109-1.536133h1.263672v8.209961h-1.251953v-6.941406Z"/><path class="m" d="m89.737033,257.169637c-.46875-.345703-.828125-.834961-1.079102-1.467773-.25-.633789-.375-1.384766-.375-2.253906v-.010742c0-.869141.125-1.620117.375-2.25293.250977-.633789.610352-1.12207,1.079102-1.46582.467773-.342773,1.02832-.514648,1.680664-.514648s1.212891.171875,1.681641.514648c.46875.34375.828125.832031,1.081055,1.46582.251953.632812.37793,1.383789.37793,2.25293v.010742c0,.869141-.125977,1.620117-.37793,2.253906-.25293.632812-.612305,1.12207-1.081055,1.467773-.46875.344727-1.029297.517578-1.681641.517578s-1.212891-.172852-1.680664-.517578Zm2.679688-.933594c.274414-.253906.485352-.618164.631836-1.091797.145508-.474609.21875-1.040039.21875-1.696289v-.010742c0-.65625-.073242-1.220703-.21875-1.693359-.146484-.47168-.357422-.834961-.631836-1.088867-.275391-.253906-.608398-.381836-.999023-.381836s-.722656.12793-.998047.381836-.484375.617188-.628906,1.088867c-.144531.472656-.216797,1.037109-.216797,1.693359v.010742c0,.65625.072266,1.22168.216797,1.696289.144531.473633.353516.837891.628906,1.091797s.607422.381836.998047.381836.723633-.12793.999023-.381836Z"/><path class="m" d="m95.775119,251.838582c-.144531-.144531-.216797-.322266-.216797-.535156,0-.208984.072266-.384766.216797-.529297.144531-.143555.322266-.21582.535156-.21582.208008,0,.384766.072266.529297.21582.143555.144531.214844.320312.214844.529297,0,.212891-.071289.390625-.214844.535156-.144531.143555-.321289.21582-.529297.21582-.212891,0-.390625-.072266-.535156-.21582Zm0,4.272461c-.144531-.144531-.216797-.322266-.216797-.535156,0-.208008.072266-.384766.216797-.52832.144531-.144531.322266-.216797.535156-.216797.208008,0,.384766.072266.529297.216797.143555.143555.214844.320312.214844.52832,0,.212891-.071289.390625-.214844.535156-.144531.144531-.321289.21582-.529297.21582-.212891,0-.390625-.071289-.535156-.21582Z"/><path class="m" d="m100.241916,250.60909h-.027344l-2.145508,1.479492v-1.211914l2.162109-1.536133h1.262695v8.209961h-1.251953v-6.941406Z"/><path class="m" d="m103.025119,256.67452l2.895508-2.907227c.368164-.368164.647461-.671875.836914-.911133.189453-.238281.320312-.454102.392578-.645508s.107422-.393555.107422-.605469v-.011719c0-.261719-.061523-.493164-.18457-.694336-.124023-.201172-.291016-.358398-.50293-.47168-.212891-.114258-.458984-.170898-.740234-.170898-.318359,0-.601562.066406-.850586.199219s-.444336.30957-.588867.532227c-.144531.22168-.216797.470703-.216797.748047l-.005859.040039h-1.205078v-.040039c0-.489258.125-.925781.375-1.308594.25-.383789.592773-.682617,1.027344-.899414.433594-.21582.916016-.324219,1.447266-.324219s1,.100586,1.40625.301758c.405273.201172.722656.476562.953125.828125.228516.350586.34375.748047.34375,1.191406v.011719c0,.310547-.056641.606445-.170898.887695-.114258.280273-.307617.589844-.583008.926758-.275391.337891-.65918.750977-1.152344,1.240234l-2.298828,2.253906.432617-.819336v.819336l-.432617-.370117h4.335938v1.075195h-5.621094v-.875977Z"/><path class="m" d="m114.636447,249.340535h1.036133v1.359375h-.358398l-2.321289,6.850586h-1.342773l2.986328-8.209961Zm-1.166016,4.966797h3.709961l.370117,1.024414h-4.449219l.369141-1.024414Zm1.87207-3.607422v-1.359375h.676758l2.982422,8.209961h-1.34375l-2.31543-6.850586Z"/><path class="m" d="m119.935275,249.340535h1.473633l2.657227,6.548828h.033203l2.658203-6.548828h1.478516v8.209961h-1.166016v-6.053711h-.585938l1.331055-1.928711-3.260742,7.982422h-.943359l-3.254883-7.982422,1.331055,1.928711h-.585938v6.053711h-1.166016v-8.209961Z"/><path class="m" d="m135.103244,254.222371c0,.227539-.053711.43457-.162109.620117-.107422.185547-.254883.333008-.441406.44043-.185547.108398-.390625.162109-.613281.162109h-.017578c-.227539,0-.43457-.053711-.620117-.162109-.186523-.107422-.333008-.254883-.44043-.44043-.109375-.185547-.162109-.392578-.162109-.620117v-.017578c0-.223633.052734-.428711.162109-.614258.107422-.185547.253906-.333008.44043-.44043.185547-.108398.392578-.163086.620117-.163086h.017578c.222656,0,.427734.054688.613281.163086.186523.107422.333984.254883.441406.44043.108398.185547.162109.390625.162109.614258v.017578Z"/><path class="m" d="m141.009494,257.172567c-.577148-.34375-1.021484-.833008-1.332031-1.46875-.310547-.634766-.466797-1.386719-.466797-2.255859v-.010742c0-.869141.15625-1.620117.469727-2.25293.313477-.633789.757812-1.12207,1.334961-1.46582.576172-.342773,1.258789-.514648,2.046875-.514648.785156,0,1.466797.172852,2.042969.517578.576172.345703,1.020508.833984,1.332031,1.46582.310547.630859.466797,1.380859.466797,2.25v.010742c0,.869141-.15625,1.620117-.466797,2.253906-.311523.632812-.753906,1.12207-1.329102,1.467773-.575195.344727-1.256836.517578-2.045898.517578-.791992,0-1.476562-.171875-2.052734-.514648Zm3.408203-.999023c.378906-.253906.670898-.614258.875-1.081055.205078-.466797.307617-1.014648.307617-1.644531v-.010742c0-.633789-.103516-1.182617-.30957-1.647461-.207031-.464844-.500977-.823242-.882812-1.075195-.380859-.251953-.829102-.37793-1.345703-.37793-.519531,0-.96875.125-1.350586.375s-.676758.608398-.884766,1.072266c-.208008.464844-.313477,1.015625-.313477,1.65332v.010742c0,.633789.105469,1.183594.313477,1.650391s.50293.826172.881836,1.078125.830078.37793,1.353516.37793.975586-.126953,1.355469-.380859Z"/><path class="m" d="m149.052463,257.288777c-.426758-.253906-.754883-.614258-.984375-1.081055s-.34375-1.018555-.34375-1.655273v-.005859c0-.633789.116211-1.181641.349609-1.644531.232422-.462891.5625-.820312.986328-1.072266.425781-.251953.921875-.378906,1.491211-.378906.512695,0,.955078.097656,1.329102.292969.373047.196289.666016.455078.878906.777344.211914.322266.335938.670898.369141,1.046875l.005859.044922h-1.177734l-.011719-.050781c-.064453-.291992-.210938-.544922-.44043-.759766-.229492-.213867-.545898-.321289-.947266-.321289-.31543,0-.59082.083984-.827148.25293-.238281.168945-.421875.40918-.552734.719727-.130859.311523-.196289.679688-.196289,1.103516v.005859c0,.436523.066406.80957.199219,1.118164.132812.30957.317383.545898.554688.708008.237305.164062.514648.245117.833008.245117.379883,0,.685547-.099609.919922-.298828.232422-.199219.386719-.459961.462891-.782227l.005859-.045898h1.183594v.040039c-.044922.398438-.181641.757812-.40625,1.078125-.226562.321289-.523438.575195-.894531.762695-.369141.1875-.794922.28125-1.276367.28125-.581055,0-1.083984-.126953-1.510742-.380859Z"/><path class="m" d="m154.835666,257.269246c-.291016-.267578-.435547-.701172-.435547-1.300781v-3.424805h-.859375v-.978516h.859375v-1.558594h1.262695v1.558594h1.121094v.978516h-1.121094v3.356445c0,.303711.066406.511719.199219.623047.132812.112305.330078.167969.591797.167969.064453,0,.124023-.00293.178711-.007812.055664-.005859.105469-.010742.151367-.014648v.950195c-.072266.011719-.163086.022461-.272461.03418-.111328.011719-.228516.016602-.353516.016602-.591797,0-1.033203-.133789-1.322266-.400391Z"/><path class="m" d="m162.257541,250.60909h-.029297l-2.144531,1.479492v-1.211914l2.162109-1.536133h1.263672v8.209961h-1.251953v-6.941406Z"/><path class="m" d="m166.566134,257.169637c-.46875-.345703-.828125-.834961-1.078125-1.467773-.25-.633789-.375-1.384766-.375-2.253906v-.010742c0-.869141.125-1.620117.375-2.25293.25-.633789.609375-1.12207,1.078125-1.46582.46875-.342773,1.029297-.514648,1.681641-.514648s1.212891.171875,1.681641.514648c.467773.34375.828125.832031,1.080078,1.46582.251953.632812.378906,1.383789.378906,2.25293v.010742c0,.869141-.126953,1.620117-.378906,2.253906-.251953.632812-.612305,1.12207-1.080078,1.467773-.46875.344727-1.029297.517578-1.681641.517578s-1.212891-.172852-1.681641-.517578Zm2.679688-.933594c.275391-.253906.486328-.618164.631836-1.091797.145508-.474609.219727-1.040039.219727-1.696289v-.010742c0-.65625-.074219-1.220703-.219727-1.693359-.145508-.47168-.356445-.834961-.631836-1.088867s-.607422-.381836-.998047-.381836-.723633.12793-.998047.381836c-.275391.253906-.485352.617188-.628906,1.088867-.144531.472656-.216797,1.037109-.216797,1.693359v.010742c0,.65625.072266,1.22168.216797,1.696289.143555.473633.353516.837891.628906,1.091797.274414.253906.607422.381836.998047.381836s.722656-.12793.998047-.381836Z"/><path class="m" d="m172.407931,256.281942h1.228516l-.830078,2.918945h-.865234l.466797-2.918945Z"/><path class="m" d="m177.300509,256.67452l2.896484-2.907227c.367188-.368164.646484-.671875.835938-.911133.189453-.238281.320312-.454102.392578-.645508s.108398-.393555.108398-.605469v-.011719c0-.261719-.061523-.493164-.18457-.694336-.124023-.201172-.291016-.358398-.503906-.47168-.212891-.114258-.458984-.170898-.740234-.170898-.318359,0-.601562.066406-.849609.199219-.249023.132812-.445312.30957-.589844.532227-.143555.22168-.21582.470703-.21582.748047l-.005859.040039h-1.206055v-.040039c0-.489258.125-.925781.375-1.308594.250977-.383789.59375-.682617,1.027344-.899414.43457-.21582.916992-.324219,1.448242-.324219.530273,0,.999023.100586,1.405273.301758s.723633.476562.953125.828125c.229492.350586.34375.748047.34375,1.191406v.011719c0,.310547-.056641.606445-.169922.887695-.114258.280273-.308594.589844-.583984.926758-.274414.337891-.658203.750977-1.152344,1.240234l-2.297852,2.253906.432617-.819336v.819336l-.432617-.370117h4.334961v1.075195h-5.621094v-.875977Z"/><path class="m" d="m185.223361,257.169637c-.46875-.345703-.828125-.834961-1.079102-1.467773-.25-.633789-.375-1.384766-.375-2.253906v-.010742c0-.869141.125-1.620117.375-2.25293.250977-.633789.610352-1.12207,1.079102-1.46582.467773-.342773,1.02832-.514648,1.680664-.514648s1.212891.171875,1.681641.514648c.46875.34375.828125.832031,1.081055,1.46582.251953.632812.37793,1.383789.37793,2.25293v.010742c0,.869141-.125977,1.620117-.37793,2.253906-.25293.632812-.612305,1.12207-1.081055,1.467773-.46875.344727-1.029297.517578-1.681641.517578s-1.212891-.172852-1.680664-.517578Zm2.679688-.933594c.274414-.253906.485352-.618164.631836-1.091797.145508-.474609.21875-1.040039.21875-1.696289v-.010742c0-.65625-.073242-1.220703-.21875-1.693359-.146484-.47168-.357422-.834961-.631836-1.088867-.275391-.253906-.608398-.381836-.999023-.381836s-.722656.12793-.998047.381836-.484375.617188-.628906,1.088867c-.144531.472656-.216797,1.037109-.216797,1.693359v.010742c0,.65625.072266,1.22168.216797,1.696289.144531.473633.353516.837891.628906,1.091797s.607422.381836.998047.381836.723633-.12793.999023-.381836Z"/><path class="m" d="m191.023166,256.67452l2.896484-2.907227c.367188-.368164.646484-.671875.835938-.911133.189453-.238281.320312-.454102.392578-.645508s.108398-.393555.108398-.605469v-.011719c0-.261719-.061523-.493164-.18457-.694336-.124023-.201172-.291016-.358398-.503906-.47168-.212891-.114258-.458984-.170898-.740234-.170898-.318359,0-.601562.066406-.849609.199219-.249023.132812-.445312.30957-.589844.532227-.143555.22168-.21582.470703-.21582.748047l-.005859.040039h-1.206055v-.040039c0-.489258.125-.925781.375-1.308594.250977-.383789.59375-.682617,1.027344-.899414.43457-.21582.916992-.324219,1.448242-.324219.530273,0,.999023.100586,1.405273.301758s.723633.476562.953125.828125c.229492.350586.34375.748047.34375,1.191406v.011719c0,.310547-.056641.606445-.169922.887695-.114258.280273-.308594.589844-.583984.926758-.274414.337891-.658203.750977-1.152344,1.240234l-2.297852,2.253906.432617-.819336v.819336l-.432617-.370117h4.334961v1.075195h-5.621094v-.875977Z"/><path class="m" d="m197.679416,256.67452l2.896484-2.907227c.368164-.368164.646484-.671875.835938-.911133.19043-.238281.321289-.454102.392578-.645508.072266-.191406.109375-.393555.109375-.605469v-.011719c0-.261719-.0625-.493164-.185547-.694336s-.291016-.358398-.503906-.47168c-.211914-.114258-.458984-.170898-.739258-.170898-.319336,0-.602539.066406-.850586.199219s-.445312.30957-.588867.532227c-.143555.22168-.21582.470703-.21582.748047l-.005859.040039h-1.207031v-.040039c0-.489258.125977-.925781.375977-1.308594.250977-.383789.592773-.682617,1.026367-.899414.435547-.21582.917969-.324219,1.449219-.324219.530273,0,.999023.100586,1.404297.301758.40625.201172.724609.476562.953125.828125.230469.350586.344727.748047.344727,1.191406v.011719c0,.310547-.057617.606445-.170898.887695-.113281.280273-.308594.589844-.583008.926758-.274414.337891-.65918.750977-1.152344,1.240234l-2.297852,2.253906.431641-.819336v.819336l-.431641-.370117h4.334961v1.075195h-5.62207v-.875977Z"/><path class="n" d="m101.384494,288.071981c-.438477-.195312-.785156-.466797-1.039062-.813477-.253906-.347656-.400391-.745117-.4375-1.192383l-.005859-.068359h1.228516l.005859.0625c.038086.360352.216797.657227.538086.890625.320312.233398.735352.349609,1.243164.349609.333984,0,.626953-.057617.878906-.172852.251953-.116211.449219-.276367.588867-.481445.139648-.204102.209961-.4375.209961-.699219v-.011719c0-.462891-.15625-.818359-.47168-1.066406-.31543-.249023-.745117-.373047-1.291992-.373047h-1.000977v-1.000977h.961914c.310547,0,.584961-.056641.822266-.167969.236328-.112305.419922-.266602.550781-.463867s.197266-.422852.197266-.676758v-.011719c0-.265625-.056641-.491211-.167969-.676758-.112305-.186523-.277344-.327148-.495117-.423828s-.483398-.145508-.793945-.145508c-.302734,0-.572266.049805-.807617.148438s-.422852.240234-.563477.426758c-.140625.185547-.223633.405273-.25.65918l-.005859.057617h-1.206055l.004883-.0625c.046875-.458984.191406-.859375.435547-1.201172.245117-.34082.571289-.605469.978516-.792969.408203-.188477.878906-.282227,1.414062-.282227.546875,0,1.022461.089844,1.427734.270508.40625.179688.720703.429688.945312.748047.223633.318359.335938.688477.335938,1.109375v.011719c0,.34082-.076172.641602-.224609.901367-.150391.259766-.355469.476562-.615234.648438-.259766.172852-.556641.292969-.890625.361328v.02832c.603516.049805,1.088867.249023,1.457031.597656.367188.349609.551758.811523.551758,1.388672v.010742c0,.466797-.12793.881836-.381836,1.246094s-.603516.648438-1.048828.853516c-.446289.205078-.960938.307617-1.544922.307617s-1.095703-.097656-1.533203-.292969Z"/><path class="n" d="m110.949924,281.121785v-.02832h-4.334961v-1.075195h5.597656v1.109375l-3.572266,7.100586h-1.337891l3.647461-7.106445Z"/><path class="n" d="m205.716525,281.286824h-.02832l-2.145508,1.479492v-1.211914l2.162109-1.536133h1.263672v8.209961h-1.251953v-6.941406Z"/><path class="n" d="m208.869845,288.097371c-.144531-.144531-.21582-.322266-.21582-.535156,0-.208008.071289-.384766.21582-.52832.143555-.144531.322266-.216797.53418-.216797.208984,0,.384766.072266.529297.216797.144531.143555.216797.320312.216797.52832,0,.212891-.072266.390625-.216797.535156s-.320312.21582-.529297.21582c-.211914,0-.390625-.071289-.53418-.21582Z"/><path class="n" d="m215.374728,280.11202c.384766.15332.730469.394531,1.035156.722656s.546875.75293.722656,1.274414.264648,1.152344.264648,1.891602v.011719c0,.914062-.130859,1.696289-.392578,2.34668s-.637695,1.147461-1.126953,1.491211c-.489258.342773-1.077148.514648-1.763672.514648-.485352,0-.924805-.087891-1.319336-.261719-.394531-.174805-.722656-.416016-.982422-.725586s-.43457-.666992-.525391-1.072266l-.011719-.068359h1.280273l.022461.056641c.076172.201172.185547.37793.327148.529297s.31543.268555.520508.349609c.205078.082031.438477.123047.700195.123047.469727,0,.850586-.136719,1.143555-.410156.291992-.273438.509766-.634766.651367-1.086914.141602-.451172.222656-.948242.241211-1.490234.003906-.041992.005859-.084961.005859-.12793v-.133789l-.25-1.354492c0-.326172-.076172-.620117-.230469-.881836s-.361328-.46875-.623047-.623047c-.261719-.15332-.557617-.230469-.887695-.230469-.322266,0-.615234.076172-.878906.227539-.263672.152344-.473633.356445-.62793.615234-.15625.257812-.234375.545898-.234375.864258v.011719c0,.330078.075195.62207.224609.875977.150391.253906.355469.454102.615234.600586.259766.145508.554688.21875.884766.21875.333984,0,.632812-.072266.898438-.21582.265625-.144531.474609-.342773.628906-.594727.154297-.25293.230469-.540039.230469-.862305v-.005859h.341797v1.394531h-.120117c-.110352.246094-.272461.46875-.486328.667969s-.47168.357422-.774414.475586c-.300781.117188-.637695.175781-1.009766.175781-.523438,0-.988281-.116211-1.396484-.349609s-.728516-.553711-.960938-.961914c-.233398-.407227-.349609-.869141-.349609-1.384766v-.011719c0-.545898.128906-1.030273.388672-1.454102.259766-.422852.615234-.754883,1.067383-.998047.451172-.243164.967773-.364258,1.547852-.364258.419922,0,.824219.077148,1.208984.230469Z"/><path class="n" d="m218.7009,280.01827h1.274414v8.209961h-1.274414v-8.209961Zm1.195312,3.925781h.119141l3.304688-3.925781h1.513672l-3.167969,3.709961h-.160156l-1.609375,1.854492v-1.638672Zm.779297.380859l.910156-.875977,3.521484,4.779297h-1.582031l-2.849609-3.90332Z"/><path class="n" d="m308.356174,288.04952c-.46582-.201172-.833008-.478516-1.098633-.833008-.264648-.355469-.397461-.763672-.397461-1.226562v-.011719c0-.344727.077148-.660156.230469-.947266.15332-.286133.366211-.529297.639648-.727539.273438-.199219.587891-.336914.945312-.413086v-.02832c-.458984-.132812-.826172-.359375-1.101562-.679688s-.412109-.699219-.412109-1.134766v-.011719c0-.416992.119141-.789062.357422-1.115234.240234-.326172.570312-.583008.994141-.770508.421875-.188477.90625-.282227,1.453125-.282227.542969,0,1.025391.09375,1.447266.282227.423828.1875.753906.444336.994141.770508.238281.326172.357422.698242.357422,1.115234v.011719c0,.435547-.136719.814453-.40918,1.134766-.273438.320312-.641602.546875-1.104492.679688v.02832c.361328.076172.676758.213867.947266.413086.271484.198242.484375.441406.637695.727539.15332.287109.230469.602539.230469.947266v.011719c0,.462891-.131836.871094-.395508,1.226562-.263672.354492-.628906.631836-1.097656.833008s-1.003906.301758-1.607422.301758c-.607422,0-1.143555-.100586-1.610352-.301758Zm2.53418-.904297c.267578-.12207.478516-.289062.632812-.503906.152344-.213867.230469-.459961.230469-.736328v-.011719c0-.277344-.076172-.523438-.228516-.739258-.151367-.216797-.361328-.386719-.630859-.509766s-.579102-.18457-.927734-.18457c-.353516,0-.664062.061523-.933594.18457s-.479492.292969-.630859.509766c-.152344.21582-.228516.461914-.228516.739258v.011719c0,.276367.078125.522461.230469.736328.154297.214844.365234.381836.634766.503906.269531.121094.578125.181641.927734.181641.348633,0,.657227-.060547.923828-.181641Zm-.125-3.87793c.230469-.107422.410156-.257812.541016-.449219s.196289-.410156.196289-.657227v-.011719c0-.25-.06543-.469727-.196289-.65918-.130859-.19043-.3125-.338867-.542969-.447266-.232422-.107422-.498047-.162109-.796875-.162109-.303711,0-.570312.054688-.802734.162109-.230469.108398-.412109.256836-.542969.447266-.130859.189453-.196289.40918-.196289.65918v.011719c0,.24707.06543.46582.196289.657227s.310547.341797.541016.449219c.228516.108398.498047.162109.804688.162109.302734,0,.570312-.053711.798828-.162109Z"/><path class="n" d="m314.304416,288.083699c-.144531-.144531-.21582-.322266-.21582-.535156,0-.208008.071289-.384766.21582-.52832.144531-.144531.322266-.216797.535156-.216797.208984,0,.384766.072266.529297.216797.144531.143555.21582.320312.21582.52832,0,.212891-.071289.390625-.21582.535156s-.320312.21582-.529297.21582c-.212891,0-.390625-.071289-.535156-.21582Z"/><path class="n" d="m320.808322,280.098348c.385742.15332.730469.394531,1.036133.722656s.545898.75293.722656,1.274414.264648,1.152344.264648,1.891602v.011719c0,.914062-.130859,1.696289-.392578,2.34668s-.636719,1.147461-1.126953,1.491211c-.489258.342773-1.077148.514648-1.763672.514648-.485352,0-.925781-.087891-1.320312-.261719-.394531-.174805-.720703-.416016-.980469-.725586s-.435547-.666992-.527344-1.072266l-.010742-.068359h1.280273l.022461.056641c.075195.201172.18457.37793.327148.529297s.316406.268555.520508.349609c.205078.082031.438477.123047.700195.123047.470703,0,.851562-.136719,1.143555-.410156s.508789-.634766.651367-1.086914c.142578-.451172.222656-.948242.242188-1.490234.003906-.041992.005859-.084961.005859-.12793v-.133789l-.250977-1.354492c0-.326172-.077148-.620117-.230469-.881836s-.361328-.46875-.623047-.623047c-.261719-.15332-.557617-.230469-.887695-.230469-.322266,0-.615234.076172-.878906.227539-.263672.152344-.472656.356445-.628906.615234-.155273.257812-.232422.545898-.232422.864258v.011719c0,.330078.074219.62207.224609.875977.149414.253906.353516.454102.614258.600586.259766.145508.554688.21875.883789.21875.333984,0,.634766-.072266.900391-.21582.264648-.144531.474609-.342773.62793-.594727.15332-.25293.230469-.540039.230469-.862305v-.005859h.34082v1.394531h-.119141c-.109375.246094-.271484.46875-.486328.667969s-.472656.357422-.773438.475586c-.301758.117188-.638672.175781-1.009766.175781-.523438,0-.989258-.116211-1.396484-.349609-.408203-.233398-.728516-.553711-.962891-.961914-.232422-.407227-.349609-.869141-.349609-1.384766v-.011719c0-.545898.130859-1.030273.390625-1.454102.259766-.422852.615234-.754883,1.066406-.998047s.966797-.364258,1.546875-.364258c.421875,0,.824219.077148,1.208984.230469Z"/><path class="n" d="m324.136447,280.004598h1.273438v8.209961h-1.273438v-8.209961Zm1.194336,3.925781h.119141l3.305664-3.925781h1.513672l-3.168945,3.709961h-.15918l-1.610352,1.854492v-1.638672Zm.779297.380859l.910156-.875977,3.522461,4.779297h-1.582031l-2.850586-3.90332Z"/><path class="n" d="m90.02655,277.975572l-.00036-.000072-2.44693-.005762-.00036.000108-.000576-.000108c-2.580814,0-4.602541,2.021727-4.602541,4.602901,0,2.417798,1.880245,4.251339,4.404704,4.348169v2.258599c0,.063665.025387.168849.069715.237952.084119.132516.227005.204535.373348.204535.081238,0,.163628-.02247.237376-.069715.155562-.099099,3.818754-2.441744,4.771714-3.248361,1.12235-.950079,1.792994-2.341493,1.795298-3.723689v-.009795c-.003457-2.576636-2.02324-4.593971-4.601389-4.594763Zm2.234545,7.652993c-.669312.56654-2.868675,2.00916-3.995634,2.739364v-1.880317c0-.24429-.198197-.442487-.442487-.442487h-.234495c-2.160004,0-3.727722-1.460553-3.727722-3.472485,0-2.085104,1.632787-3.717927,3.717315-3.717927l2.445813.005762h.001152c2.083952,0,3.716199,1.631671,3.717927,3.71447-.000576,1.126959-.554837,2.268322-1.48187,3.053621Z"/><path class="n" d="m197.69915,285.971569c-.172846-.172846-.452858-.172846-.625704,0l-1.50146,1.501243v-6.424487c0-1.220008-.992715-2.212435-2.212435-2.212435h-3.923038c-.24429,0-.442487.198197-.442487.442487s.198197.442487.442487.442487h3.923038c.731717,0,1.327461.595456,1.327461,1.327461v6.424343l-1.500883-1.501099c-.172846-.172846-.452858-.172846-.625704,0s-.172846.452858,0,.625704l2.256222,2.25651c.082966.082966.195316.129635.312852.129635s.229886-.046669.312852-.129635l2.256799-2.25651c.172846-.172846.172846-.452858,0-.625704Z"/><path class="n" d="m190.893033,288.216557h-3.923614c-.731717,0-1.327461-.595456-1.327461-1.327461v-6.424703l1.50146,1.50146c.086423.086423.19935.129635.31285.129635.113505,0,.226431-.043212.312854-.129635.172846-.172846.172846-.452858,0-.625704l-2.256799-2.256799c-.172846-.172846-.452858-.172846-.625704,0l-2.256799,2.256799c-.172846.172846-.172846.452858,0,.625704s.452858.172846.625704,0l1.50146-1.50146v6.424703c0,1.220008.992715,2.212435,2.212435,2.212435h3.923614c.24429,0,.442487-.198197.442487-.442487s-.198197-.442487-.442487-.442487Z"/><path class="n" d="m404.483629,280.965697l-2.832866-2.832866c-.165988-.165988-.434889-.165988-.600877,0l-2.832866,2.832866c-.165988.165988-.165988.434889,0,.600877s.434889.165988.600877,0l2.107497-2.107497v5.773071c0,.234597.190333.42493.42493.42493s.42493-.190333.42493-.42493v-5.773071l2.107497,2.107497c.082994.082994.19144.124491.300439.124491s.217445-.041497.300439-.124491c.165988-.165988.165988-.434889,0-.600877Z"/><path class="n" d="m405.717475,289.166623h-8.734302c-.715963,0-1.298581-.582619-1.298581-1.298581v-3.202467c0-.234597.190333-.42493.42493-.42493s.42493.190333.42493.42493v3.202467c0,.247322.201399.448722.448722.448722h8.734302c.247322,0,.448722-.201399.448722-.448722v-3.202467c0-.234597.190333-.42493.42493-.42493s.42493.190333.42493.42493v3.202467c0,.715963-.582619,1.298581-1.298581,1.298581Z"/><path class="n" d="m295.515609,289.418704h-.008066c-1.52393-.028232-5.921143-4.000819-5.921143-7.76311,0-1.80855,1.489936-3.39528,3.187865-3.39528,1.351083,0,2.260255.932795,2.741345,1.609777.481089-.676982,1.389685-1.609777,2.740769-1.609777,1.698504,0,3.188441,1.58673,3.188441,3.39528,0,3.762291-4.397214,7.734879-5.921143,7.76311h-.008066Zm-2.741345-10.273417c-1.226634,0-2.302891,1.173051-2.302891,2.510307,0,3.387214,4.149467,6.841263,5.044236,6.878136.894768-.036874,5.044236-3.490922,5.044236-6.878136,0-1.337255-1.076257-2.510307-2.303467-2.510307-1.491665,0-2.324209,1.731921-2.331699,1.749206-.135973.331865-.682167.331865-.81814,0-.00749-.017285-.840034-1.749206-2.332275-1.749206Z"/><rect class="k" x="80.968658" y="34.91662" width="393.062684" height="193.621574" rx="11.17339" ry="11.17339"/><path class="l" d="m406.200288,204.609127c.192792.91498.192792,1.011298.192792,1.131666,0,1.565255-1.758026,2.431994-4.069295,2.431994-5.22548,0-9.800326-3.057958-9.800326-5.080643,0-.313222.072211-.601966.16853-.818648-1.878256.096318-4.310219.433324-4.310219,2.576376,0,3.515484,8.331485,7.849731,14.929096,7.849731,5.056714,0,6.332649-2.28737,6.332649-4.093315,0-1.420883-1.227906-3.033861-3.443226-3.997161m-3.635905,1.276249c1.396793,0,3.41921-.289068,3.41921-1.950474,0-.129636-.003574-.255788-.034626-.382267l-.831932-3.614785c-.192903-.794589-.361346-1.155868-1.757914-1.85421-1.083702-.553687-3.443339-1.468657-4.141701-1.468657-.65012,0-.842588.842595-1.613252.842595-.746327,0-1.300187-.625907-1.998469-.625907-.674058,0-1.107716.457378-1.44477,1.396567,0,0-.939184,2.648642-1.059562,3.033694-.024049.072379-.024809.153582-.024809.216962,0,1.029392,4.054096,4.406483,9.487827,4.406483"/><path d="m406.200288,204.609127c.192792.91498.192792,1.011298.192792,1.131666,0,1.565255-1.758026,2.431994-4.069295,2.431994-5.22548,0-9.800326-3.057958-9.800326-5.080643,0-.313222.072211-.601966.16853-.818648l.409377-1.011564c-.024049.072379-.024809.153582-.024809.216962,0,1.029392,4.054096,4.406483,9.487827,4.406483,1.396793,0,3.41921-.289068,3.41921-1.950474,0-.129636-.003574-.255788-.034626-.382267l.251322,1.056492h0Z"/><path d="m413.571848,208.816506h2.020405v-2.995482h1.538987l1.550601,2.995482h2.255423l-1.809075-3.289127c.975019-.422913,1.550713-1.303959,1.550713-2.314207,0-1.480121-1.163006-2.619627-2.901597-2.619627h-4.205457v8.222961h0Zm4.017467-6.49611c.669637,0,1.045502.422903,1.045502.928005,0,.50516-.375865.92806-1.045502.92806h-1.997062v-1.856064h1.997062Zm3.277353,3.394925c0,1.809054,1.480121,3.218692,3.383134,3.218692,1.045499,0,1.809071-.28193,2.596099-.939721l-1.256832-1.116006c-.293768.30543-.728387.469862-1.245219.469862-.704819,0-1.280513-.387619-1.527145-.986748h4.428633v-.469862c0-1.973548-1.327428-3.394912-3.13639-3.394912-1.820913,0-3.24228,1.409644-3.24228,3.218695m3.206983-1.668118c.599041,0,1.104256.387673,1.30386.986803h-2.596103c.187991-.622643.657907-.986803,1.292243-.986803m8.622252,4.769303h1.879554v-8.63409l-1.90301.411129v2.337711c-.469917-.2702-1.010317-.411187-1.585899-.411187-1.809075,0-3.230442,1.397922-3.230442,3.18353,0,1.785534,1.397911,3.195226,3.171688,3.195226.61088,0,1.186462-.187987,1.668108-.540393v.458075h0Zm-2.971968-3.112907c0-.892833.704819-1.574152,1.63281-1.574152.516832,0,.986748.176227,1.315702.481646v2.173224c-.340683.328926-.787032.493369-1.315702.493369-.916265,0-1.63281-.681315-1.63281-1.574087m7.699169,3.112907h2.020633v-3.218668h3.383131v3.218668h2.020517v-8.222961h-2.020517v3.160016h-3.383131v-3.160016h-2.020633v8.222961h0Zm10.325773.105778c.669627,0,1.210027-.140963,1.715132-.481643v.375865h1.879551v-3.982227c0-1.515354-1.022039-2.349437-2.725336-2.349437-.95156,0-1.891284.223227-2.901597.68137l.68136,1.397864c.728278-.305416,1.339158-.493372,1.879558-.493372.787025,0,1.186465.305433,1.186465.92806v.305433c-.446352-.117487-.916265-.176217-1.409638-.176217-1.597638,0-2.560917.669589-2.560917,1.86778,0,1.092472.869238,1.926524,2.255423,1.926524m-.580617-1.961754c0-.411173.411166-.610849,1.033772-.610849.411051,0,.787032.058733,1.127711.140936v.798843c-.352399.199672-.763572.293646-1.186465.293646-.610873,0-.975019-.234957-.975019-.622575m5.913659-.03523c0,1.327353.79899,1.973524,2.255546,1.973524.352515,0,.963286-.082319,1.327534-.187987v-1.538851c-.317112.09397-.552119.129203-.857627.129203-.59914,0-.82221-.187946-.82221-.751833v-2.361167h1.738475v-1.585875h-1.738475v-2.008771l-1.903242.411177v1.597594h-1.256938v1.585875h1.256938v2.73711h0Z"/><path class="l" d="m251.586642,136.658895l-4.474609-20.209961h4.301758l2.742188,13.68457,3.926758-13.68457h3.955078l3.926758,13.65625,2.771484-13.65625h4.128906l-4.446289,20.209961h-4.416992l-3.984375-14.088867-4.041992,14.088867h-4.388672Z"/><path class="l" d="m281.424533,136.947957c-1.501953,0-2.858398-.34668-4.071289-1.040039-1.211914-.692383-2.174805-1.630859-2.886719-2.814453-.712891-1.183594-1.068359-2.49707-1.068359-3.941406,0-1.461914.355469-2.786133,1.068359-3.969727.711914-1.183594,1.674805-2.117188,2.886719-2.800781,1.212891-.682617,2.569336-1.024414,4.071289-1.024414,1.500977,0,2.858398.341797,4.070312,1.024414,1.212891.683594,2.174805,1.617188,2.887695,2.800781.711914,1.183594,1.068359,2.507812,1.068359,3.969727,0,1.444336-.351562,2.757812-1.053711,3.941406-.703125,1.183594-1.660156,2.12207-2.873047,2.814453-1.212891.693359-2.579102,1.040039-4.099609,1.040039Zm0-3.435547c.789062,0,1.500977-.197266,2.136719-.592773.634766-.393555,1.134766-.918945,1.500977-1.573242.365234-.654297.548828-1.395508.548828-2.222656,0-.808594-.188477-1.540039-.563477-2.194336s-.875977-1.173828-1.500977-1.55957c-.625977-.384766-1.324219-.577148-2.09375-.577148-.789062,0-1.500977.192383-2.135742.577148-.635742.385742-1.136719.905273-1.501953,1.55957s-.547852,1.385742-.547852,2.194336c0,.827148.182617,1.568359.547852,2.222656s.861328,1.179688,1.487305,1.573242c.625.395508,1.332031.592773,2.12207.592773Z"/><path class="l" d="m291.737033,136.658895v-15.041992h3.984375v1.674805c.461914-.654297,1.03418-1.155273,1.717773-1.501953.682617-.345703,1.448242-.519531,2.294922-.519531.750977.019531,1.299805.125977,1.645508.317383v3.494141c-.307617-.134766-.629883-.240234-.966797-.317383s-.688477-.116211-1.053711-.116211c-.770508,0-1.472656.198242-2.107422.591797-.635742.395508-1.145508.948242-1.530273,1.660156v9.758789h-3.984375Z"/><path class="l" d="m303.38547,136.658895v-20.209961l3.956055-.664062v20.874023h-3.956055Z"/><path class="l" d="m317.323947,136.861043c-1.423828,0-2.713867-.34668-3.868164-1.039062-1.155273-.693359-2.074219-1.62207-2.757812-2.786133-.682617-1.165039-1.024414-2.46875-1.024414-3.912109,0-1.424805.341797-2.723633,1.024414-3.897461.683594-1.173828,1.612305-2.103516,2.786133-2.786133,1.173828-.683594,2.493164-1.025391,3.956055-1.025391.75,0,1.466797.101562,2.150391.303711.683594.201172,1.333008.495117,1.949219.879883v-6.149414l3.955078-.664062v20.874023h-3.897461v-1.241211c-1.232422.962891-2.65625,1.443359-4.273438,1.443359Zm.635742-3.37793c.711914,0,1.375977-.125,1.992188-.375.615234-.25,1.144531-.606445,1.587891-1.068359v-5.861328c-.443359-.442383-.972656-.78418-1.587891-1.024414-.616211-.241211-1.280273-.361328-1.992188-.361328-.828125,0-1.573242.1875-2.237305.563477-.664062.375-1.189453.889648-1.574219,1.543945-.384766.655273-.577148,1.385742-.577148,2.194336,0,.847656.197266,1.597656.591797,2.251953s.918945,1.174805,1.573242,1.55957,1.395508.577148,2.223633.577148Z"/><path class="l" d="m334.647189,136.658895v-20.209961h5.398438l5.514648,10.913086,5.542969-10.913086h5.341797v20.209961h-3.926758v-14.869141l-7.015625,13.425781-6.987305-13.483398v14.926758h-3.868164Z"/><path class="l" d="m367.163791,136.947957c-1.500977,0-2.863281-.351562-4.084961-1.053711-1.222656-.703125-2.189453-1.635742-2.901367-2.800781-.712891-1.164062-1.068359-2.478516-1.068359-3.941406,0-1.443359.341797-2.756836,1.024414-3.94043.683594-1.183594,1.612305-2.12207,2.786133-2.81543,1.173828-.692383,2.473633-1.039062,3.898438-1.039062,1.443359,0,2.727539.351562,3.853516,1.053711,1.125977.703125,2.011719,1.660156,2.65625,2.873047.644531,1.211914.967773,2.597656.967773,4.157227v1.039062h-11.144531c.172852.59668.461914,1.135742.866211,1.617188s.894531.851562,1.472656,1.111328c.577148.259766,1.202148.389648,1.875977.389648.654297,0,1.270508-.100586,1.847656-.302734.578125-.202148,1.068359-.495117,1.472656-.880859l2.598633,2.367188c-.923828.750977-1.87207,1.299805-2.84375,1.645508-.972656.34668-2.064453.520508-3.277344.520508Zm-4.070312-9.296875h7.333008c-.154297-.59668-.40918-1.121094-.764648-1.573242-.356445-.452148-.785156-.803711-1.285156-1.053711-.500977-.25-1.039062-.375977-1.617188-.375977-.616211,0-1.173828.121094-1.673828.361328-.500977.241211-.919922.586914-1.255859,1.039062-.336914.452148-.583008.986328-.736328,1.602539Z"/><path class="l" d="m376.54172,136.658895v-15.041992h3.956055v1.241211c1.154297-1.019531,2.569336-1.530273,4.244141-1.530273,1.154297,0,2.179688.255859,3.074219.765625.895508.509766,1.592773,1.212891,2.09375,2.107422.5.895508.75,1.929688.75,3.103516v9.354492h-3.925781v-8.748047c0-.981445-.28418-1.755859-.852539-2.324219-.567383-.567383-1.333008-.851562-2.294922-.851562-.673828,0-1.270508.129883-1.790039.389648s-.952148.630859-1.298828,1.111328v10.422852h-3.956055Z"/><path class="l" d="m400.085666,136.89034c-1.655273,0-2.911133-.379883-3.767578-1.140625s-1.28418-1.862305-1.28418-3.305664v-7.536133h-3.089844v-3.291016h3.089844v-3.839844l3.925781-.894531v4.734375h4.331055v3.291016h-4.331055v6.698242c0,.693359.15918,1.188477.476562,1.487305s.851562.447266,1.602539.447266c.404297,0,.764648-.023438,1.083008-.072266.317383-.047852.667969-.129883,1.053711-.245117v3.233398c-.404297.134766-.905273.240234-1.501953.317383s-1.125977.116211-1.587891.116211Z"/><path class="l" d="m410.067111,136.91866c-1.05957,0-2.00293-.197266-2.830078-.591797s-1.472656-.938477-1.93457-1.630859c-.461914-.693359-.692383-1.492188-.692383-2.396484,0-1.443359.538086-2.564453,1.617188-3.363281,1.077148-.798828,2.578125-1.198242,4.503906-1.198242,1.308594,0,2.540039.202148,3.695312.606445v-1.097656c0-.866211-.269531-1.520508-.808594-1.962891s-1.328125-.664062-2.367188-.664062c-.616211,0-1.299805.100586-2.049805.302734-.750977.202148-1.598633.515625-2.541016.938477l-1.415039-2.945312c1.193359-.519531,2.329102-.913086,3.407227-1.183594,1.077148-.268555,2.155273-.404297,3.233398-.404297,2.05957,0,3.647461.486328,4.763672,1.458008,1.116211.972656,1.674805,2.34375,1.674805,4.114258v9.758789h-3.897461v-1.068359c-.616211.461914-1.280273.798828-1.992188,1.010742-.712891.211914-1.501953.317383-2.367188.317383Zm-1.704102-4.706055c0,.577148.25,1.035156.750977,1.371094.5.336914,1.164062.505859,1.992188.505859.654297,0,1.255859-.077148,1.804688-.231445.547852-.15332,1.053711-.404297,1.515625-.75v-2.194336c-.481445-.211914-.981445-.361328-1.501953-.448242-.519531-.085938-1.078125-.129883-1.673828-.129883-.905273,0-1.612305.164062-2.12207.491211-.510742.327148-.765625.789062-.765625,1.385742Z"/><path class="l" d="m421.296603,136.658895v-20.209961l3.956055-.664062v20.874023h-3.956055Z"/><path class="l" d="m248.180392,168.333699v-20.209961h4.185547v8.113281h9.296875v-8.113281h4.186523v20.209961h-4.186523v-8.256836h-9.296875v8.256836h-4.185547Z"/><path class="l" d="m276.583713,168.622762c-1.500977,0-2.863281-.351562-4.084961-1.053711-1.222656-.703125-2.189453-1.635742-2.901367-2.800781-.712891-1.164062-1.068359-2.478516-1.068359-3.941406,0-1.443359.341797-2.756836,1.024414-3.94043.683594-1.183594,1.612305-2.12207,2.786133-2.81543,1.173828-.692383,2.473633-1.039062,3.898438-1.039062,1.443359,0,2.727539.351562,3.853516,1.053711,1.125977.703125,2.011719,1.660156,2.65625,2.873047.644531,1.211914.967773,2.597656.967773,4.157227v1.039062h-11.144531c.172852.59668.461914,1.135742.866211,1.617188s.894531.851562,1.472656,1.111328c.577148.259766,1.202148.389648,1.875977.389648.654297,0,1.270508-.100586,1.847656-.302734.578125-.202148,1.068359-.495117,1.472656-.880859l2.598633,2.367188c-.923828.750977-1.87207,1.299805-2.84375,1.645508-.972656.34668-2.064453.520508-3.277344.520508Zm-4.070312-9.296875h7.333008c-.154297-.59668-.40918-1.121094-.764648-1.573242-.356445-.452148-.785156-.803711-1.285156-1.053711-.500977-.25-1.039062-.375977-1.617188-.375977-.616211,0-1.173828.121094-1.673828.361328-.500977.241211-.919922.586914-1.255859,1.039062-.336914.452148-.583008.986328-.736328,1.602539Z"/><path class="l" d="m290.61008,168.593465c-1.05957,0-2.00293-.197266-2.830078-.591797s-1.472656-.938477-1.93457-1.630859c-.461914-.693359-.692383-1.492188-.692383-2.396484,0-1.443359.538086-2.564453,1.617188-3.363281,1.077148-.798828,2.578125-1.198242,4.503906-1.198242,1.308594,0,2.540039.202148,3.695312.606445v-1.097656c0-.866211-.269531-1.520508-.808594-1.962891s-1.328125-.664062-2.367188-.664062c-.616211,0-1.299805.100586-2.049805.302734-.750977.202148-1.598633.515625-2.541016.938477l-1.415039-2.945312c1.193359-.519531,2.329102-.913086,3.407227-1.183594,1.077148-.268555,2.155273-.404297,3.233398-.404297,2.05957,0,3.647461.486328,4.763672,1.458008,1.116211.972656,1.674805,2.34375,1.674805,4.114258v9.758789h-3.897461v-1.068359c-.616211.461914-1.280273.798828-1.992188,1.010742-.712891.211914-1.501953.317383-2.367188.317383Zm-1.704102-4.706055c0,.577148.25,1.035156.750977,1.371094.5.336914,1.164062.505859,1.992188.505859.654297,0,1.255859-.077148,1.804688-.231445.547852-.15332,1.053711-.404297,1.515625-.75v-2.194336c-.481445-.211914-.981445-.361328-1.501953-.448242-.519531-.085938-1.078125-.129883-1.673828-.129883-.905273,0-1.612305.164062-2.12207.491211-.510742.327148-.765625.789062-.765625,1.385742Z"/><path class="l" d="m301.839572,168.333699v-20.209961l3.956055-.664062v20.874023h-3.956055Z"/><path class="l" d="m315.903049,168.565145c-1.655273,0-2.911133-.379883-3.767578-1.140625s-1.28418-1.862305-1.28418-3.305664v-7.536133h-3.089844v-3.291016h3.089844v-3.839844l3.925781-.894531v4.734375h4.331055v3.291016h-4.331055v6.698242c0,.693359.15918,1.188477.476562,1.487305s.851562.447266,1.602539.447266c.404297,0,.764648-.023438,1.083008-.072266.317383-.047852.667969-.129883,1.053711-.245117v3.233398c-.404297.134766-.905273.240234-1.501953.317383s-1.125977.116211-1.587891.116211Z"/><path class="l" d="m320.957736,168.333699v-20.209961l3.956055-.866211v7.275391c1.154297-1.019531,2.569336-1.530273,4.244141-1.530273,1.154297,0,2.179688.255859,3.074219.765625.895508.509766,1.592773,1.212891,2.09375,2.107422.5.895508.75,1.929688.75,3.103516v9.354492h-3.925781v-8.748047c0-.981445-.28418-1.755859-.852539-2.324219-.567383-.567383-1.333008-.851562-2.294922-.851562-.673828,0-1.270508.129883-1.790039.389648s-.952148.630859-1.298828,1.111328v10.422852h-3.956055Z"/><path class="l" d="m344.14133,168.333699v-20.209961h7.765625c1.520508,0,2.925781.259766,4.21582.779297,1.289062.519531,2.415039,1.237305,3.37793,2.151367.961914.914062,1.717773,1.987305,2.265625,3.21875.548828,1.232422.823242,2.560547.823242,3.984375,0,1.424805-.269531,2.748047-.808594,3.969727-.539062,1.222656-1.293945,2.286133-2.266602,3.19043-.97168.905273-2.102539,1.617188-3.391602,2.136719-1.290039.519531-2.695312.779297-4.21582.779297h-7.765625Zm4.185547-3.724609h3.522461c.904297,0,1.74707-.163086,2.526367-.490234s1.462891-.780273,2.049805-1.357422,1.039062-1.246094,1.357422-2.006836c.317383-.759766.475586-1.591797.475586-2.49707,0-.884766-.158203-1.717773-.475586-2.49707-.318359-.779297-.770508-1.462891-1.357422-2.049805s-1.270508-1.043945-2.049805-1.37207c-.779297-.326172-1.612305-.490234-2.49707-.490234h-3.551758v12.760742Z"/><path class="l" d="m369.625705,168.593465c-1.05957,0-2.00293-.197266-2.830078-.591797s-1.472656-.938477-1.93457-1.630859c-.461914-.693359-.692383-1.492188-.692383-2.396484,0-1.443359.538086-2.564453,1.617188-3.363281,1.077148-.798828,2.578125-1.198242,4.503906-1.198242,1.308594,0,2.540039.202148,3.695312.606445v-1.097656c0-.866211-.269531-1.520508-.808594-1.962891s-1.328125-.664062-2.367188-.664062c-.616211,0-1.299805.100586-2.049805.302734-.750977.202148-1.598633.515625-2.541016.938477l-1.415039-2.945312c1.193359-.519531,2.329102-.913086,3.407227-1.183594,1.077148-.268555,2.155273-.404297,3.233398-.404297,2.05957,0,3.647461.486328,4.763672,1.458008,1.116211.972656,1.674805,2.34375,1.674805,4.114258v9.758789h-3.897461v-1.068359c-.616211.461914-1.280273.798828-1.992188,1.010742-.712891.211914-1.501953.317383-2.367188.317383Zm-1.704102-4.706055c0,.577148.25,1.035156.750977,1.371094.5.336914,1.164062.505859,1.992188.505859.654297,0,1.255859-.077148,1.804688-.231445.547852-.15332,1.053711-.404297,1.515625-.75v-2.194336c-.481445-.211914-.981445-.361328-1.501953-.448242-.519531-.085938-1.078125-.129883-1.673828-.129883-.905273,0-1.612305.164062-2.12207.491211-.510742.327148-.765625.789062-.765625,1.385742Z"/><path class="l" d="m381.889377,174.570027c-.34668,0-.678711-.014648-.996094-.042969-.317383-.029297-.572266-.083008-.764648-.15918v-3.37793c.34668.076172.797852.115234,1.356445.115234,1.444336,0,2.444336-.683594,3.00293-2.049805l.231445-.606445-5.861328-15.157227h4.388672l3.724609,10.249023,4.243164-10.249023h4.273438l-6.928711,16.254883c-.520508,1.193359-1.087891,2.160156-1.704102,2.901367-.616211.740234-1.323242,1.279297-2.12207,1.616211s-1.746094.505859-2.84375.505859Z"/><g class="t"><g class="u"><g class="s"><circle class="j" cx="224.797864" cy="39.934388" r="8.580906"/><circle class="j" cx="224.797864" cy="21.129423" r="2.92116"/><line class="j" x1="224.797864" y1="24.050583" x2="224.797864" y2="31.353482"/><circle class="j" cx="224.797864" cy="115.271804" r="8.580906"/><circle class="j" cx="224.797864" cy="96.46684" r="2.92116"/><line class="j" x1="224.797864" y1="99.387999" x2="224.797864" y2="106.690898"/><circle class="j" cx="183.867294" cy="39.934388" r="8.580906"/><circle class="j" cx="204.315412" cy="21.311996" r="8.580906"/><circle class="j" cx="183.867294" cy="21.129423" r="2.92116"/><line class="j" x1="183.867294" y1="24.050583" x2="183.867294" y2="31.353482"/><line class="j" x1="204.315412" y1="35.079094" x2="204.315412" y2="30.988337"/><circle class="i" cx="204.315412" cy="41.212396" r="2.92116"/><line class="i" x1="188.534808" y1="25.73477" x2="202.306449" y2="39.09238"/><circle class="j" cx="183.867294" cy="115.271804" r="8.580906"/><circle class="j" cx="204.315412" cy="96.649412" r="8.580906"/><circle class="j" cx="183.867294" cy="96.46684" r="2.92116"/><line class="j" x1="183.867294" y1="99.387999" x2="183.867294" y2="106.690898"/><line class="j" x1="204.315412" y1="110.41651" x2="204.315412" y2="106.325753"/><circle class="i" cx="204.315412" cy="116.549812" r="2.92116"/><line class="i" x1="188.534808" y1="101.072186" x2="202.306449" y2="114.429796"/><circle class="i" cx="204.323185" cy="58.980704" r="8.580906"/><circle class="i" cx="224.771302" cy="77.603096" r="8.580906"/><circle class="i" cx="204.323185" cy="77.785669" r="2.92116"/><line class="i" x1="204.323185" y1="74.864509" x2="204.323185" y2="67.56161"/><line class="i" x1="224.771302" y1="63.835998" x2="224.771302" y2="67.926755"/><circle class="j" cx="224.771302" cy="57.702697" r="2.92116"/><line class="j" x1="208.990698" y1="73.180322" x2="222.762339" y2="59.822712"/><circle class="i" cx="204.323185" cy="134.31812" r="8.580906"/><circle class="i" cx="224.771302" cy="152.940513" r="8.580906"/><circle class="i" cx="204.323185" cy="153.123085" r="2.92116"/><line class="i" x1="204.323185" y1="150.201925" x2="204.323185" y2="142.899026"/><line class="i" x1="224.771302" y1="139.173414" x2="224.771302" y2="143.264171"/><circle class="j" cx="224.771302" cy="133.040113" r="2.92116"/><line class="j" x1="208.990698" y1="148.517738" x2="222.762339" y2="135.160129"/><circle class="j" cx="142.936725" cy="39.934388" r="8.580906"/><circle class="j" cx="163.384842" cy="21.311996" r="8.580906"/><circle class="j" cx="142.936725" cy="21.129423" r="2.92116"/><line class="j" x1="142.936725" y1="24.050583" x2="142.936725" y2="31.353482"/><line class="j" x1="163.384842" y1="35.079094" x2="163.384842" y2="30.988337"/><circle class="i" cx="163.384842" cy="41.212396" r="2.92116"/><line class="i" x1="147.604238" y1="25.73477" x2="161.375879" y2="39.09238"/><circle class="j" cx="142.936725" cy="115.271804" r="8.580906"/><circle class="j" cx="163.384842" cy="96.649412" r="8.580906"/><circle class="j" cx="142.936725" cy="96.46684" r="2.92116"/><line class="j" x1="142.936725" y1="99.387999" x2="142.936725" y2="106.690898"/><line class="j" x1="163.384842" y1="110.41651" x2="163.384842" y2="106.325753"/><circle class="i" cx="163.384842" cy="116.549812" r="2.92116"/><line class="i" x1="147.604238" y1="101.072186" x2="161.375879" y2="114.429796"/><circle class="i" cx="163.392615" cy="58.980704" r="8.580906"/><circle class="i" cx="183.840733" cy="77.603096" r="8.580906"/><circle class="i" cx="163.392615" cy="77.785669" r="2.92116"/><line class="i" x1="163.392615" y1="74.864509" x2="163.392615" y2="67.56161"/><line class="i" x1="183.840733" y1="63.835998" x2="183.840733" y2="67.926755"/><circle class="j" cx="183.840733" cy="57.702697" r="2.92116"/><line class="j" x1="168.060129" y1="73.180322" x2="181.83177" y2="59.822712"/><circle class="i" cx="163.392615" cy="134.31812" r="8.580906"/><circle class="i" cx="183.840733" cy="152.940513" r="8.580906"/><circle class="i" cx="163.392615" cy="153.123085" r="2.92116"/><line class="i" x1="163.392615" y1="150.201925" x2="163.392615" y2="142.899026"/><line class="i" x1="183.840733" y1="139.173414" x2="183.840733" y2="143.264171"/><circle class="j" cx="183.840733" cy="133.040113" r="2.92116"/><line class="j" x1="168.060129" y1="148.517738" x2="181.83177" y2="135.160129"/><circle class="j" cx="102.006156" cy="39.934388" r="8.580906"/><circle class="j" cx="122.454273" cy="21.311996" r="8.580906"/><circle class="j" cx="102.006156" cy="21.129423" r="2.92116"/><line class="j" x1="102.006156" y1="24.050583" x2="102.006156" y2="31.353482"/><line class="j" x1="122.454273" y1="35.079094" x2="122.454273" y2="30.988337"/><circle class="i" cx="122.454273" cy="41.212396" r="2.92116"/><line class="i" x1="106.673669" y1="25.73477" x2="120.44531" y2="39.09238"/><circle class="j" cx="102.006156" cy="115.271804" r="8.580906"/><circle class="j" cx="122.454273" cy="96.649412" r="8.580906"/><circle class="j" cx="102.006156" cy="96.46684" r="2.92116"/><line class="j" x1="102.006156" y1="99.387999" x2="102.006156" y2="106.690898"/><line class="j" x1="122.454273" y1="110.41651" x2="122.454273" y2="106.325753"/><circle class="i" cx="122.454273" cy="116.549812" r="2.92116"/><line class="i" x1="106.673669" y1="101.072186" x2="120.44531" y2="114.429796"/><circle class="i" cx="122.462046" cy="58.980704" r="8.580906"/><circle class="i" cx="142.910163" cy="77.603096" r="8.580906"/><circle class="i" cx="122.462046" cy="77.785669" r="2.92116"/><line class="i" x1="122.462046" y1="74.864509" x2="122.462046" y2="67.56161"/><line class="i" x1="142.910163" y1="63.835998" x2="142.910163" y2="67.926755"/><circle class="j" cx="142.910163" cy="57.702697" r="2.92116"/><line class="j" x1="127.129559" y1="73.180322" x2="140.9012" y2="59.822712"/><circle class="i" cx="122.462046" cy="134.31812" r="8.580906"/><circle class="i" cx="142.910163" cy="152.940513" r="8.580906"/><circle class="i" cx="122.462046" cy="153.123085" r="2.92116"/><line class="i" x1="122.462046" y1="150.201925" x2="122.462046" y2="142.899026"/><line class="i" x1="142.910163" y1="139.173414" x2="142.910163" y2="143.264171"/><circle class="j" cx="142.910163" cy="133.040113" r="2.92116"/><line class="j" x1="127.129559" y1="148.517738" x2="140.9012" y2="135.160129"/><circle class="i" cx="101.979594" cy="77.603096" r="8.580906"/><line class="i" x1="101.979594" y1="63.835998" x2="101.979594" y2="67.926755"/><circle class="j" cx="101.979594" cy="57.702697" r="2.92116"/><circle class="i" cx="101.979594" cy="152.940513" r="8.580906"/><line class="i" x1="101.979594" y1="139.173414" x2="101.979594" y2="143.264171"/><circle class="j" cx="101.979594" cy="133.040113" r="2.92116"/></g><g class="q"><circle class="j" cx="224.797864" cy="190.552412" r="8.580906"/><circle class="j" cx="224.797864" cy="171.747447" r="2.92116"/><line class="j" x1="224.797864" y1="174.668607" x2="224.797864" y2="181.971506"/><circle class="j" cx="224.797864" cy="265.889828" r="8.580906"/><circle class="j" cx="224.797864" cy="247.084863" r="2.92116"/><line class="j" x1="224.797864" y1="250.006023" x2="224.797864" y2="257.308922"/><circle class="j" cx="183.867294" cy="190.552412" r="8.580906"/><circle class="j" cx="204.315412" cy="171.930019" r="8.580906"/><circle class="j" cx="183.867294" cy="171.747447" r="2.92116"/><line class="j" x1="183.867294" y1="174.668607" x2="183.867294" y2="181.971506"/><line class="j" x1="204.315412" y1="185.697118" x2="204.315412" y2="181.606361"/><circle class="i" cx="204.315412" cy="191.830419" r="2.92116"/><line class="i" x1="188.534808" y1="176.352794" x2="202.306449" y2="189.710404"/><circle class="j" cx="183.867294" cy="265.889828" r="8.580906"/><circle class="j" cx="204.315412" cy="247.267436" r="8.580906"/><circle class="j" cx="183.867294" cy="247.084863" r="2.92116"/><line class="j" x1="183.867294" y1="250.006023" x2="183.867294" y2="257.308922"/><line class="j" x1="204.315412" y1="261.034534" x2="204.315412" y2="256.943777"/><circle class="i" cx="204.315412" cy="267.167835" r="2.92116"/><line class="i" x1="188.534808" y1="251.69021" x2="202.306449" y2="265.04782"/><circle class="i" cx="204.323185" cy="209.598728" r="8.580906"/><circle class="i" cx="224.771302" cy="228.22112" r="8.580906"/><circle class="i" cx="204.323185" cy="228.403692" r="2.92116"/><line class="i" x1="204.323185" y1="225.482533" x2="204.323185" y2="218.179634"/><line class="i" x1="224.771302" y1="214.454022" x2="224.771302" y2="218.544779"/><circle class="j" cx="224.771302" cy="208.32072" r="2.92116"/><line class="j" x1="208.990698" y1="223.798346" x2="222.762339" y2="210.440736"/><circle class="i" cx="204.323185" cy="284.936144" r="8.580906"/><circle class="i" cx="224.771302" cy="303.558536" r="8.580906"/><circle class="i" cx="204.323185" cy="303.741109" r="2.92116"/><line class="i" x1="204.323185" y1="300.819949" x2="204.323185" y2="293.51705"/><line class="i" x1="224.771302" y1="289.791438" x2="224.771302" y2="293.882195"/><circle class="j" cx="224.771302" cy="283.658137" r="2.92116"/><line class="j" x1="208.990698" y1="299.135762" x2="222.762339" y2="285.778152"/><circle class="j" cx="142.936725" cy="190.552412" r="8.580906"/><circle class="j" cx="163.384842" cy="171.930019" r="8.580906"/><circle class="j" cx="142.936725" cy="171.747447" r="2.92116"/><line class="j" x1="142.936725" y1="174.668607" x2="142.936725" y2="181.971506"/><line class="j" x1="163.384842" y1="185.697118" x2="163.384842" y2="181.606361"/><circle class="i" cx="163.384842" cy="191.830419" r="2.92116"/><line class="i" x1="147.604238" y1="176.352794" x2="161.375879" y2="189.710404"/><circle class="j" cx="142.936725" cy="265.889828" r="8.580906"/><circle class="j" cx="163.384842" cy="247.267436" r="8.580906"/><circle class="j" cx="142.936725" cy="247.084863" r="2.92116"/><line class="j" x1="142.936725" y1="250.006023" x2="142.936725" y2="257.308922"/><line class="j" x1="163.384842" y1="261.034534" x2="163.384842" y2="256.943777"/><circle class="i" cx="163.384842" cy="267.167835" r="2.92116"/><line class="i" x1="147.604238" y1="251.69021" x2="161.375879" y2="265.04782"/><circle class="i" cx="163.392615" cy="209.598728" r="8.580906"/><circle class="i" cx="183.840733" cy="228.22112" r="8.580906"/><circle class="i" cx="163.392615" cy="228.403692" r="2.92116"/><line class="i" x1="163.392615" y1="225.482533" x2="163.392615" y2="218.179634"/><line class="i" x1="183.840733" y1="214.454022" x2="183.840733" y2="218.544779"/><circle class="j" cx="183.840733" cy="208.32072" r="2.92116"/><line class="j" x1="168.060129" y1="223.798346" x2="181.83177" y2="210.440736"/><circle class="i" cx="163.392615" cy="284.936144" r="8.580906"/><circle class="i" cx="183.840733" cy="303.558536" r="8.580906"/><circle class="i" cx="163.392615" cy="303.741109" r="2.92116"/><line class="i" x1="163.392615" y1="300.819949" x2="163.392615" y2="293.51705"/><line class="i" x1="183.840733" y1="289.791438" x2="183.840733" y2="293.882195"/><circle class="j" cx="183.840733" cy="283.658137" r="2.92116"/><line class="j" x1="168.060129" y1="299.135762" x2="181.83177" y2="285.778152"/><circle class="j" cx="102.006156" cy="190.552412" r="8.580906"/><circle class="j" cx="122.454273" cy="171.930019" r="8.580906"/><circle class="j" cx="102.006156" cy="171.747447" r="2.92116"/><line class="j" x1="102.006156" y1="174.668607" x2="102.006156" y2="181.971506"/><line class="j" x1="122.454273" y1="185.697118" x2="122.454273" y2="181.606361"/><circle class="i" cx="122.454273" cy="191.830419" r="2.92116"/><line class="i" x1="106.673669" y1="176.352794" x2="120.44531" y2="189.710404"/><circle class="j" cx="102.006156" cy="265.889828" r="8.580906"/><circle class="j" cx="122.454273" cy="247.267436" r="8.580906"/><circle class="j" cx="102.006156" cy="247.084863" r="2.92116"/><line class="j" x1="102.006156" y1="250.006023" x2="102.006156" y2="257.308922"/><line class="j" x1="122.454273" y1="261.034534" x2="122.454273" y2="256.943777"/><circle class="i" cx="122.454273" cy="267.167835" r="2.92116"/><line class="i" x1="106.673669" y1="251.69021" x2="120.44531" y2="265.04782"/><circle class="i" cx="122.462046" cy="209.598728" r="8.580906"/><circle class="i" cx="142.910163" cy="228.22112" r="8.580906"/><circle class="i" cx="122.462046" cy="228.403692" r="2.92116"/><line class="i" x1="122.462046" y1="225.482533" x2="122.462046" y2="218.179634"/><line class="i" x1="142.910163" y1="214.454022" x2="142.910163" y2="218.544779"/><circle class="j" cx="142.910163" cy="208.32072" r="2.92116"/><line class="j" x1="127.129559" y1="223.798346" x2="140.9012" y2="210.440736"/><circle class="i" cx="122.462046" cy="284.936144" r="8.580906"/><circle class="i" cx="142.910163" cy="303.558536" r="8.580906"/><circle class="i" cx="122.462046" cy="303.741109" r="2.92116"/><line class="i" x1="122.462046" y1="300.819949" x2="122.462046" y2="293.51705"/><line class="i" x1="142.910163" y1="289.791438" x2="142.910163" y2="293.882195"/><circle class="j" cx="142.910163" cy="283.658137" r="2.92116"/><line class="j" x1="127.129559" y1="299.135762" x2="140.9012" y2="285.778152"/><circle class="i" cx="101.979594" cy="228.22112" r="8.580906"/><line class="i" x1="101.979594" y1="214.454022" x2="101.979594" y2="218.544779"/><circle class="j" cx="101.979594" cy="208.32072" r="2.92116"/><circle class="i" cx="101.979594" cy="303.558536" r="8.580906"/><line class="i" x1="101.979594" y1="289.791438" x2="101.979594" y2="293.882195"/><circle class="j" cx="101.979594" cy="283.658137" r="2.92116"/></g><g class="r"><circle class="j" cx="102.006156" cy="39.934388" r="8.580906"/><circle class="j" cx="102.006156" cy="21.129423" r="2.92116"/><line class="j" x1="102.006156" y1="24.050583" x2="102.006156" y2="31.353482"/><circle class="j" cx="102.006156" cy="115.271804" r="8.580906"/><circle class="j" cx="102.006156" cy="96.46684" r="2.92116"/><line class="j" x1="102.006156" y1="99.387999" x2="102.006156" y2="106.690898"/><circle class="j" cx="61.075587" cy="39.934388" r="8.580906"/><circle class="j" cx="81.523704" cy="21.311996" r="8.580906"/><circle class="j" cx="61.075587" cy="21.129423" r="2.92116"/><line class="j" x1="61.075587" y1="24.050583" x2="61.075587" y2="31.353482"/><line class="j" x1="81.523704" y1="35.079094" x2="81.523704" y2="30.988337"/><circle class="i" cx="81.523704" cy="41.212396" r="2.92116"/><line class="i" x1="65.7431" y1="25.73477" x2="79.514741" y2="39.09238"/><circle class="j" cx="61.075587" cy="115.271804" r="8.580906"/><circle class="j" cx="81.523704" cy="96.649412" r="8.580906"/><circle class="j" cx="61.075587" cy="96.46684" r="2.92116"/><line class="j" x1="61.075587" y1="99.387999" x2="61.075587" y2="106.690898"/><line class="j" x1="81.523704" y1="110.41651" x2="81.523704" y2="106.325753"/><circle class="i" cx="81.523704" cy="116.549812" r="2.92116"/><line class="i" x1="65.7431" y1="101.072186" x2="79.514741" y2="114.429796"/><circle class="i" cx="81.531477" cy="58.980704" r="8.580906"/><circle class="i" cx="101.979594" cy="77.603096" r="8.580906"/><circle class="i" cx="81.531477" cy="77.785669" r="2.92116"/><line class="i" x1="81.531477" y1="74.864509" x2="81.531477" y2="67.56161"/><line class="i" x1="101.979594" y1="63.835998" x2="101.979594" y2="67.926755"/><circle class="j" cx="101.979594" cy="57.702697" r="2.92116"/><line class="j" x1="86.19899" y1="73.180322" x2="99.970631" y2="59.822712"/><circle class="i" cx="81.531477" cy="134.31812" r="8.580906"/><circle class="i" cx="101.979594" cy="152.940513" r="8.580906"/><circle class="i" cx="81.531477" cy="153.123085" r="2.92116"/><line class="i" x1="81.531477" y1="150.201925" x2="81.531477" y2="142.899026"/><line class="i" x1="101.979594" y1="139.173414" x2="101.979594" y2="143.264171"/><circle class="j" cx="101.979594" cy="133.040113" r="2.92116"/><line class="j" x1="86.19899" y1="148.517738" x2="99.970631" y2="135.160129"/><circle class="j" cx="20.145017" cy="39.934388" r="8.580906"/><circle class="j" cx="40.593135" cy="21.311996" r="8.580906"/><circle class="j" cx="20.145017" cy="21.129423" r="2.92116"/><line class="j" x1="20.145017" y1="24.050583" x2="20.145017" y2="31.353482"/><line class="j" x1="40.593135" y1="35.079094" x2="40.593135" y2="30.988337"/><circle class="i" cx="40.593135" cy="41.212396" r="2.92116"/><line class="i" x1="24.812531" y1="25.73477" x2="38.584172" y2="39.09238"/><circle class="j" cx="20.145017" cy="115.271804" r="8.580906"/><circle class="j" cx="40.593135" cy="96.649412" r="8.580906"/><circle class="j" cx="20.145017" cy="96.46684" r="2.92116"/><line class="j" x1="20.145017" y1="99.387999" x2="20.145017" y2="106.690898"/><line class="j" x1="40.593135" y1="110.41651" x2="40.593135" y2="106.325753"/><circle class="i" cx="40.593135" cy="116.549812" r="2.92116"/><line class="i" x1="24.812531" y1="101.072186" x2="38.584172" y2="114.429796"/><circle class="i" cx="40.600908" cy="58.980704" r="8.580906"/><circle class="i" cx="61.049025" cy="77.603096" r="8.580906"/><circle class="i" cx="40.600908" cy="77.785669" r="2.92116"/><line class="i" x1="40.600908" y1="74.864509" x2="40.600908" y2="67.56161"/><line class="i" x1="61.049025" y1="63.835998" x2="61.049025" y2="67.926755"/><circle class="j" cx="61.049025" cy="57.702697" r="2.92116"/><line class="j" x1="45.268421" y1="73.180322" x2="59.040062" y2="59.822712"/><circle class="i" cx="40.600908" cy="134.31812" r="8.580906"/><circle class="i" cx="61.049025" cy="152.940513" r="8.580906"/><circle class="i" cx="40.600908" cy="153.123085" r="2.92116"/><line class="i" x1="40.600908" y1="150.201925" x2="40.600908" y2="142.899026"/><line class="i" x1="61.049025" y1="139.173414" x2="61.049025" y2="143.264171"/><circle class="j" cx="61.049025" cy="133.040113" r="2.92116"/><line class="j" x1="45.268421" y1="148.517738" x2="59.040062" y2="135.160129"/><circle class="j" cx="-.337435" cy="21.311996" r="8.580906"/><line class="j" x1="-.337435" y1="35.079094" x2="-.337435" y2="30.988337"/><circle class="i" cx="-.337435" cy="41.212396" r="2.92116"/><circle class="j" cx="-.337435" cy="96.649412" r="8.580906"/><line class="j" x1="-.337435" y1="110.41651" x2="-.337435" y2="106.325753"/><circle class="i" cx="-.337435" cy="116.549812" r="2.92116"/><circle class="i" cx="-.329662" cy="58.980704" r="8.580906"/><circle class="i" cx="20.118456" cy="77.603096" r="8.580906"/><circle class="i" cx="-.329662" cy="77.785669" r="2.92116"/><line class="i" x1="-.329662" y1="74.864509" x2="-.329662" y2="67.56161"/><line class="i" x1="20.118456" y1="63.835998" x2="20.118456" y2="67.926755"/><circle class="j" cx="20.118456" cy="57.702697" r="2.92116"/><line class="j" x1="4.337852" y1="73.180322" x2="18.109493" y2="59.822712"/><circle class="i" cx="-.329662" cy="134.31812" r="8.580906"/><circle class="i" cx="20.118456" cy="152.940513" r="8.580906"/><circle class="i" cx="-.329662" cy="153.123085" r="2.92116"/><line class="i" x1="-.329662" y1="150.201925" x2="-.329662" y2="142.899026"/><line class="i" x1="20.118456" y1="139.173414" x2="20.118456" y2="143.264171"/><circle class="j" cx="20.118456" cy="133.040113" r="2.92116"/><line class="j" x1="4.337852" y1="148.517738" x2="18.109493" y2="135.160129"/></g><g class="p"><circle class="j" cx="102.006156" cy="190.552412" r="8.580906"/><circle class="j" cx="102.006156" cy="171.747447" r="2.92116"/><line class="j" x1="102.006156" y1="174.668607" x2="102.006156" y2="181.971506"/><circle class="j" cx="102.006156" cy="265.889828" r="8.580906"/><circle class="j" cx="102.006156" cy="247.084863" r="2.92116"/><line class="j" x1="102.006156" y1="250.006023" x2="102.006156" y2="257.308922"/><circle class="j" cx="61.075587" cy="190.552412" r="8.580906"/><circle class="j" cx="81.523704" cy="171.930019" r="8.580906"/><circle class="j" cx="61.075587" cy="171.747447" r="2.92116"/><line class="j" x1="61.075587" y1="174.668607" x2="61.075587" y2="181.971506"/><line class="j" x1="81.523704" y1="185.697118" x2="81.523704" y2="181.606361"/><circle class="i" cx="81.523704" cy="191.830419" r="2.92116"/><line class="i" x1="65.7431" y1="176.352794" x2="79.514741" y2="189.710404"/><circle class="j" cx="61.075587" cy="265.889828" r="8.580906"/><circle class="j" cx="81.523704" cy="247.267436" r="8.580906"/><circle class="j" cx="61.075587" cy="247.084863" r="2.92116"/><line class="j" x1="61.075587" y1="250.006023" x2="61.075587" y2="257.308922"/><line class="j" x1="81.523704" y1="261.034534" x2="81.523704" y2="256.943777"/><circle class="i" cx="81.523704" cy="267.167835" r="2.92116"/><line class="i" x1="65.7431" y1="251.69021" x2="79.514741" y2="265.04782"/><circle class="i" cx="81.531477" cy="209.598728" r="8.580906"/><circle class="i" cx="101.979594" cy="228.22112" r="8.580906"/><circle class="i" cx="81.531477" cy="228.403692" r="2.92116"/><line class="i" x1="81.531477" y1="225.482533" x2="81.531477" y2="218.179634"/><line class="i" x1="101.979594" y1="214.454022" x2="101.979594" y2="218.544779"/><circle class="j" cx="101.979594" cy="208.32072" r="2.92116"/><line class="j" x1="86.19899" y1="223.798346" x2="99.970631" y2="210.440736"/><circle class="i" cx="81.531477" cy="284.936144" r="8.580906"/><circle class="i" cx="101.979594" cy="303.558536" r="8.580906"/><circle class="i" cx="81.531477" cy="303.741109" r="2.92116"/><line class="i" x1="81.531477" y1="300.819949" x2="81.531477" y2="293.51705"/><line class="i" x1="101.979594" y1="289.791438" x2="101.979594" y2="293.882195"/><circle class="j" cx="101.979594" cy="283.658137" r="2.92116"/><line class="j" x1="86.19899" y1="299.135762" x2="99.970631" y2="285.778152"/><circle class="j" cx="20.145017" cy="190.552412" r="8.580906"/><circle class="j" cx="40.593135" cy="171.930019" r="8.580906"/><circle class="j" cx="20.145017" cy="171.747447" r="2.92116"/><line class="j" x1="20.145017" y1="174.668607" x2="20.145017" y2="181.971506"/><line class="j" x1="40.593135" y1="185.697118" x2="40.593135" y2="181.606361"/><circle class="i" cx="40.593135" cy="191.830419" r="2.92116"/><line class="i" x1="24.812531" y1="176.352794" x2="38.584172" y2="189.710404"/><circle class="j" cx="20.145017" cy="265.889828" r="8.580906"/><circle class="j" cx="40.593135" cy="247.267436" r="8.580906"/><circle class="j" cx="20.145017" cy="247.084863" r="2.92116"/><line class="j" x1="20.145017" y1="250.006023" x2="20.145017" y2="257.308922"/><line class="j" x1="40.593135" y1="261.034534" x2="40.593135" y2="256.943777"/><circle class="i" cx="40.593135" cy="267.167835" r="2.92116"/><line class="i" x1="24.812531" y1="251.69021" x2="38.584172" y2="265.04782"/><circle class="i" cx="40.600908" cy="209.598728" r="8.580906"/><circle class="i" cx="61.049025" cy="228.22112" r="8.580906"/><circle class="i" cx="40.600908" cy="228.403692" r="2.92116"/><line class="i" x1="40.600908" y1="225.482533" x2="40.600908" y2="218.179634"/><line class="i" x1="61.049025" y1="214.454022" x2="61.049025" y2="218.544779"/><circle class="j" cx="61.049025" cy="208.32072" r="2.92116"/><line class="j" x1="45.268421" y1="223.798346" x2="59.040062" y2="210.440736"/><circle class="i" cx="40.600908" cy="284.936144" r="8.580906"/><circle class="i" cx="61.049025" cy="303.558536" r="8.580906"/><circle class="i" cx="40.600908" cy="303.741109" r="2.92116"/><line class="i" x1="40.600908" y1="300.819949" x2="40.600908" y2="293.51705"/><line class="i" x1="61.049025" y1="289.791438" x2="61.049025" y2="293.882195"/><circle class="j" cx="61.049025" cy="283.658137" r="2.92116"/><line class="j" x1="45.268421" y1="299.135762" x2="59.040062" y2="285.778152"/><circle class="j" cx="-.337435" cy="171.930019" r="8.580906"/><line class="j" x1="-.337435" y1="185.697118" x2="-.337435" y2="181.606361"/><circle class="i" cx="-.337435" cy="191.830419" r="2.92116"/><circle class="j" cx="-.337435" cy="247.267436" r="8.580906"/><line class="j" x1="-.337435" y1="261.034534" x2="-.337435" y2="256.943777"/><circle class="i" cx="-.337435" cy="267.167835" r="2.92116"/><circle class="i" cx="-.329662" cy="209.598728" r="8.580906"/><circle class="i" cx="20.118456" cy="228.22112" r="8.580906"/><circle class="i" cx="-.329662" cy="228.403692" r="2.92116"/><line class="i" x1="-.329662" y1="225.482533" x2="-.329662" y2="218.179634"/><line class="i" x1="20.118456" y1="214.454022" x2="20.118456" y2="218.544779"/><circle class="j" cx="20.118456" cy="208.32072" r="2.92116"/><line class="j" x1="4.337852" y1="223.798346" x2="18.109493" y2="210.440736"/><circle class="i" cx="-.329662" cy="284.936144" r="8.580906"/><circle class="i" cx="20.118456" cy="303.558536" r="8.580906"/><circle class="i" cx="-.329662" cy="303.741109" r="2.92116"/><line class="i" x1="-.329662" y1="300.819949" x2="-.329662" y2="293.51705"/><line class="i" x1="20.118456" y1="289.791438" x2="20.118456" y2="293.882195"/><circle class="j" cx="20.118456" cy="283.658137" r="2.92116"/><line class="j" x1="4.337852" y1="299.135762" x2="18.109493" y2="285.778152"/></g></g></g><path d="m271.475169,62.773623h3.247619c1.434411,0,2.397349.860644,2.397349,2.120716,0,.932306-.57364,1.659756-1.475299,1.956775l1.598236,3.094039h-1.188424l-1.485429-2.940343h-2.018294v2.940343h-1.075745v-7.171531h-.000014Zm3.165701,3.329654c.840129,0,1.403524-.471217,1.403524-1.198681,0-.717077-.563381-1.188423-1.403524-1.188423h-2.089956v2.387091h2.089956v.000013Z"/><path d="m277.560454,67.332705c0-1.50606,1.147522-2.694483,2.612576-2.694483,1.434282,0,2.520155,1.198681,2.520155,2.745629v.286877h-4.108137c.143437.860644.850257,1.495815,1.751803,1.495815.512235,0,.993827-.163954,1.321606-.461088l.655672.645416c-.614657.471346-1.239568.686445-2.018179.686445-1.536833,0-2.7355-1.178165-2.7355-2.704613h.000004Zm4.118509-.430329c-.143437-.799112-.768352-1.393266-1.526446-1.393266-.788865,0-1.413894.563381-1.557218,1.393266h3.083667-.000004Z"/><path d="m283.440896,67.332705c0-1.50606,1.157652-2.684225,2.653466-2.684225.573638,0,1.116633.184456,1.567464.522492v-2.397349l1.02447-.194585v7.366128h-1.014211v-.501977c-.43033.379054-.98358.583897-1.598236.583897-1.475301,0-2.632949-1.178165-2.632949-2.694355l-.000004-.000026Zm4.220931,1.167908v-2.346073c-.338151-.389299-.870903-.625042-1.4548-.625042-.993827,0-1.762179.76848-1.762179,1.79295s.768352,1.813336,1.762179,1.813336c.594139,0,1.116633-.225358,1.4548-.635171Z"/><path d="m292.159016,62.773623h1.075743v3.073537h3.811118v-3.073537h1.075743v7.171542h-1.075743v-3.124683h-3.811118v3.124683h-1.075743v-7.171542Z"/><path d="m299.094703,68.449351c0-.983452.799112-1.587979,2.110471-1.587979.501976,0,.993709.102421,1.424024.297135v-.553252c0-.737592-.440573-1.116633-1.270457-1.116633-.481475,0-.973196.133181-1.618609.440458l-.379053-.768352c.788865-.368796,1.4548-.53275,2.141102-.53275,1.362621,0,2.130973.665931,2.130973,1.854354v3.462835h-1.003956v-.450831c-.461086.368796-.98358.542995-1.618738.542995-1.126891,0-1.915757-.645416-1.915757-1.58798Zm2.151361.819627c.553254,0,1.004081-.153696,1.383138-.49172v-.881159c-.3893-.225358-.819626-.327779-1.342119-.327779-.747839,0-1.208925.338024-1.208925.860516,0,.501977.471345.840129,1.167906.840129v.000013Z"/><path d="m305.333684,68.654308v-3.063279h-1.106503v-.860516h1.106503v-1.331862l1.014211-.24586v1.577722h1.536833v.860516h-1.536833v2.827549c0,.53275.215228.737708.768352.737708.286878,0,.491847-.03076.747964-.122936v.860516c-.276631.092164-.676189.143439-.973321.143439-1.014211,0-1.557218-.471218-1.557218-1.383008l.000012.000013Z"/><path d="m271.393249,73.530554h1.9055l1.967032,3.86239,1.967032-3.862391h1.905629v7.171543h-1.403639v-5.276172l-2.489512,4.763937-2.479267-4.784439v5.296674h-1.37275v-7.171543h-.000025Z"/><path d="m280.090868,78.038361c0-1.546962,1.208925-2.766145,2.745629-2.766145,1.516191,0,2.643208,1.22944,2.643208,2.868567v.368796h-3.954566c.184456.655674.758094,1.116762,1.495814,1.116762.471216,0,.901534-.153695,1.178165-.430328l.922048.840129c-.655672.53275-1.311347.768352-2.171992.768352-1.608479,0-2.85831-1.208925-2.85831-2.766145l.000004.000012Zm4.005715-.53275c-.153566-.635171-.66593-1.075744-1.290846-1.075744-.645417,0-1.147405.42007-1.3011,1.075744h2.591946Z"/><path d="m286.340107,75.364392h1.403522v.430328c.399554-.348282.911789-.53275,1.495814-.53275,1.239568,0,2.110471.870901,2.110471,2.130974v3.30914h-1.403522v-3.104296c0-.686317-.43033-1.126891-1.106503-1.126891-.471216,0-.850386.194713-1.096245.53275v3.69845h-1.403522v-5.337691l-.000016-.000015Z"/><path d="m292.988772,79.196024v-2.663596h-1.096245v-1.168036h1.096245v-1.362494l1.403522-.317649v1.680143h1.526575v1.168036h-1.526575v2.376718c0,.502105.194714.686445.737709.686445.266376,0,.471216-.03076.747839-.122937v1.157779c-.297136.092163-.778611.153568-1.086002.153568-1.188424,0-1.80308-.54288-1.80308-1.58798l.000012.000002Z"/><path d="m296.359199,79.155121c0-1.01434.809371-1.618738,2.171992-1.618738.460961,0,.901534.071662,1.311347.215101v-.389299c0-.614656-.379053-.932305-1.12702-.932305-.450703,0-.952694.133181-1.628868.440573l-.512235-1.034727c.840014-.389299,1.598236-.573767,2.376832-.573767,1.444541,0,2.274296.717206,2.274296,1.977277v3.462836h-1.383009v-.379055c-.440573.327779-.942565.471218-1.536704.471218-1.157777,0-1.946646-.66593-1.946646-1.639126l.000016.000012Zm2.305185.635172c.460961,0,.860515-.112679,1.178165-.34841v-.778609c-.348281-.143439-.717204-.204842-1.12702-.204842-.645417,0-1.02447.256117-1.02447.66593s.379053.66593.973321.66593h.000004Z"/><path d="m302.290918,73.530554l1.403522-.235602v7.407146h-1.403522v-7.171544Z"/><path d="m306.941678,73.530554h1.485556v2.889068h3.298883v-2.889068h1.485556v7.171542h-1.485556v-2.940344h-3.298883v2.940344h-1.485556s0-7.171543,0-7.171542Z"/><path d="m314.174364,78.038361c0-1.546962,1.208929-2.766145,2.745633-2.766145,1.51632,0,2.643211,1.22944,2.643211,2.868567v.368796h-3.95457c.18446.655674.758223,1.116762,1.495818,1.116762.471216,0,.90153-.153695,1.178165-.430328l.922048.840129c-.655676.53275-1.311343.768352-2.171878.768352-1.608479,0-2.858435-1.208925-2.858435-2.766145l.000008.000012Zm4.005828-.53275c-.153695-.635171-.66593-1.075744-1.290842-1.075744-.645413,0-1.147518.42007-1.301104,1.075744h2.591946Z"/><path d="m320.147102,79.155121c0-1.01434.809371-1.618738,2.171988-1.618738.460961,0,.90153.071662,1.311343.215101v-.389299c0-.614656-.379057-.932305-1.127017-.932305-.450699,0-.952694.133181-1.628872.440573l-.512235-1.034727c.84001-.389299,1.59824-.573767,2.376832-.573767,1.444537,0,2.2743.717206,2.2743,1.977277v3.462836h-1.383009v-.379055c-.440577.327779-.942565.471218-1.536704.471218-1.157781,0-1.946642-.66593-1.946642-1.639126l.000016.000012Zm2.305182.635172c.460961,0,.860519-.112679,1.178165-.34841v-.778609c-.348285-.143439-.717204-.204842-1.127017-.204842-.645413,0-1.02447.256117-1.02447.66593s.379057.66593.973321.66593Z"/><path d="m326.07882,73.530554l1.403526-.235602v7.407146h-1.403526v-7.171544Z"/><path d="m329.305799,79.196024v-2.663596h-1.096245v-1.168036h1.096245v-1.362494l1.403526-.317649v1.680143h1.526575v1.168036h-1.526575v2.376718c0,.502105.194714.686445.737705.686445.266372,0,.471216-.03076.747835-.122937v1.157779c-.297136.092163-.778607.153568-1.086006.153568-1.18842,0-1.803076-.54288-1.803076-1.58798l.000016.000002Z"/><path d="m332.922082,73.530554l1.403526-.307264v2.571431c.399558-.348282.911793-.53275,1.495818-.53275,1.239568,0,2.110467.870901,2.110467,2.130973v3.30914h-1.403526v-3.104296c0-.686317-.43033-1.126891-1.106507-1.126891-.471216,0-.85039.194713-1.096245.53275v3.69845h-1.403526v-7.171543h-.000008Z"/><path d="m340.810189,79.155121c0-1.01434.809371-1.618738,2.171988-1.618738.460961,0,.90153.071662,1.311343.215101v-.389299c0-.614656-.379057-.932305-1.127017-.932305-.450699,0-.952694.133181-1.628872.440573l-.512235-1.034727c.84001-.389299,1.59824-.573767,2.376832-.573767,1.444537,0,2.2743.717206,2.2743,1.977277v3.462836h-1.383009v-.379055c-.440577.327779-.942565.471218-1.536704.471218-1.157781,0-1.946642-.66593-1.946642-1.639126l.000016.000012Zm2.305182.635172c.460961,0,.860519-.112679,1.178165-.34841v-.778609c-.348285-.143439-.717204-.204842-1.127017-.204842-.645413,0-1.02447.256117-1.02447.66593s.379057.66593.973321.66593Z"/><path d="m346.741908,75.364392h1.403526v.430328c.399558-.348282.911793-.53275,1.495686-.53275,1.239701,0,2.110467.870901,2.110467,2.130974v3.30914h-1.403526v-3.104296c0-.686317-.43033-1.126891-1.106507-1.126891-.471216,0-.850257.194713-1.096127.53275v3.69845h-1.403526v-5.337691l.000008-.000015Z"/><path d="m352.571087,78.028116c0-1.536704,1.208812-2.735385,2.755888-2.735385.522489,0,1.02447.143439,1.4548.42007v-2.182248l1.403526-.235602v7.407146h-1.383134v-.440573c-.430197.338151-.952694.512235-1.516187.512235-1.516187,0-2.714869-1.208925-2.714869-2.745629l-.000023-.000014Zm4.210688,1.034726v-2.079699c-.307391-.317522-.768477-.501977-1.270457-.501977-.881029,0-1.557222.665931-1.557222,1.546962,0,.870901.676185,1.546961,1.557222,1.546961.512235,0,.952812-.174084,1.270457-.512235v-.000012Z"/><path d="m271.393249,84.287598h1.413767l3.565257,4.630628v-4.630628h1.393266v7.171416h-1.311347l-3.65742-4.794569v4.794569h-1.403524v-7.171416h.000002Z"/><path d="m278.728361,88.795291c0-1.546961,1.208925-2.766145,2.745629-2.766145,1.516191,0,2.643208,1.22944,2.643208,2.868694v.368796h-3.954566c.184456.655674.758094,1.116633,1.495814,1.116633.471216,0,.901534-.153695,1.178165-.430328l.922048.840129c-.655672.53275-1.311347.768352-2.171992.768352-1.608479,0-2.85831-1.208925-2.85831-2.766145l.000004.000014Zm4.005715-.53275c-.153566-.635172-.66593-1.075616-1.290846-1.075616-.645417,0-1.147405.419942-1.3011,1.075616h2.591946Z"/><path d="m284.936585,89.430461v-3.309011h1.403639v3.104169c0,.686445.44046,1.126891,1.106374,1.126891.481592,0,.850386-.194585,1.106503-.53275v-3.698322h1.403522v5.337575h-1.403522v-.430328c-.399554.34841-.911789.53275-1.506061.53275-1.239568,0-2.110471-.870774-2.110471-2.130973l.000016-.000002Z"/><path d="m291.052642,86.12145h1.403522v.594141c.338022-.460959.829884-.717077,1.424024-.717077.286878.010257.440573.04089.58401.122937v1.229311c-.204969-.092163-.461086-.143439-.717204-.143439-.553254,0-1.02447.286878-1.290846.788867v3.462835h-1.403522v-5.337575l.000016-.000002Z"/><path d="m294.77135,88.795291c0-1.55722,1.249827-2.776401,2.848051-2.776401s2.848051,1.219182,2.848051,2.776401-1.249827,2.766145-2.848051,2.766145-2.848051-1.208925-2.848051-2.766145Zm4.333607,0c0-.870774-.655672-1.55722-1.485556-1.55722-.819626,0-1.475301.686445-1.475301,1.55722s.645542,1.54709,1.475301,1.54709,1.485556-.676189,1.485556-1.54709Z"/><path d="m301.081993,88.785046c0-1.536704,1.208925-2.735385,2.755888-2.735385.522493,0,1.024599.143439,1.4548.420071v-2.182119l1.403639-.235731v7.407145h-1.383138v-.440573c-.43033.338151-.952808.512235-1.516191.512235-1.516316,0-2.714998-1.20881-2.714998-2.745629v-.000014Zm4.210684,1.034726v-2.079699c-.307266-.317522-.768352-.501978-1.270328-.501978-.881033,0-1.557218.66593-1.557218,1.546961,0,.870901.676189,1.54709,1.557218,1.54709.512235,0,.952808-.174211,1.270328-.512364v-.00001Z"/><path d="m307.700014,84.687168c0-.440573.358539-.799112.799112-.799112s.799112.358539.799112.799112c0,.430201-.358668.799112-.799112.799112s-.799112-.368925-.799112-.799112Zm.102422,1.434282h1.403522v5.337575h-1.403522v-5.337575Z"/><path d="m309.74884,86.12145h1.526446l1.465046,3.554998,1.4548-3.554998h1.495686l-2.294802,5.337575h-1.362625l-2.284543-5.337575h-.000008Z"/><path d="m315.844255,88.795291c0-1.546961,1.208929-2.766145,2.745633-2.766145,1.51632,0,2.643211,1.22944,2.643211,2.868694v.368796h-3.95457c.18446.655674.758223,1.116633,1.495818,1.116633.471216,0,.90153-.153695,1.178165-.430328l.922048.840129c-.655676.53275-1.311343.768352-2.171878.768352-1.608479,0-2.858435-1.208925-2.858435-2.766145l.000008.000014Zm4.005828-.53275c-.153695-.635172-.66593-1.075616-1.290842-1.075616-.645413,0-1.147518.419942-1.301104,1.075616h2.591946Z"/><path d="m322.093619,86.12145h1.403526v.594141c.338022-.460959.829888-.717077,1.424028-.717077.286874.010257.440577.04089.58401.122937v1.229311c-.204969-.092163-.461086-.143439-.717204-.143439-.553254,0-1.02447.286878-1.290842.788867v3.462835h-1.403526v-5.337575l.000008-.000002Z"/><path d="m325.883848,90.823855l.696694-.932306c.624911.420071,1.16791.614657,1.731419.614657.624911,0,1.034724-.225357,1.034724-.573638,0-.276633-.204844-.430328-.66593-.502105l-1.02447-.153568c-1.055226-.153695-1.618742-.69669-1.618742-1.55722,0-1.024599.860644-1.690529,2.223152-1.690529.778607,0,1.526575.225472,2.192505.66593l-.676185.911791c-.58401-.358539-1.106507-.522491-1.649514-.522491-.50198,0-.84001.215228-.84001.522491,0,.297134.204844.440573.727333.512235l1.02447.153695c1.044987.153695,1.628997.69669,1.628997,1.526575,0,1.014213-.993713,1.762061-2.335813,1.762061-.973321,0-1.844095-.256117-2.448622-.737592l-.000008.000014Z"/><path d="m331.262313,84.687168c0-.440573.358664-.799112.799108-.799112s.799108.358539.799108.799112c0,.430201-.358539.799112-.799108.799112s-.799108-.368925-.799108-.799112Zm.102547,1.434282h1.403526v5.337575h-1.403526v-5.337575Z"/><path d="m334.591722,89.952954v-2.663596h-1.096127v-1.167908h1.096127v-1.362621l1.403636-.317522v1.680143h1.52645v1.167908h-1.52645v2.376833c0,.501978.194581.686318.737596.686318.266372,0,.471349-.030645.747835-.122937v1.157779c-.297003.092163-.778607.153568-1.085873.153568-1.18842,0-1.803209-.54288-1.803209-1.58798l.000016.000014Z"/><path d="m338.197742,93.610502v-1.208925c.153695.03076.286874.04089.49185.04089.50198,0,.860519-.245861,1.065488-.727335l.081905-.204842-2.079695-5.388851h1.546959l1.33186,3.636919,1.505948-3.636919h1.51632l-2.458752,5.757635c-.563508,1.301102-1.208929,1.782565-2.366585,1.782565-.245988,0-.481588-.020515-.635283-.051146l-.000016.00001Z"/><path class="o" d="m259.881593,68.602074c-.572012,0-1.128454.1612-1.608993.466082-.190027.120554-.370794.268744-.568888.466402-.225294.224794-.225665.589711-.000871.815003.224858.225357.589774.225729.815004.000871.136869-.136626.255182-.23486.372164-.309082.2957-.18758.638539-.286762.991584-.286762,1.0231,0,1.855481.832381,1.855481,1.855481s-.832381,1.855532-1.855481,1.855532c-.6997,0-1.139901-.391053-1.731674-.98764-.593334-.598214-1.184735-1.198489-1.776123-1.798636l-.786357-.797806c-.587764-.595716-1.404765-1.27946-2.514842-1.27946-1.658629,0-3.008009,1.349367-3.008009,3.008009s1.349367,3.00806,3.008009,3.00806c.995835,0,1.658578-.486534,2.124788-.910357.235487-.214101.2528-.578582.038699-.814057-.214101-.235359-.578518-.2528-.814057-.038699-.476968.433697-.867956.610596-1.349431.610596-1.023099,0-1.855481-.832381-1.855481-1.855532s.832381-1.85548,1.855481-1.85548c.547246,0,1.038159.271318,1.694396.936365l.785858.797242c.592271.601082,1.184543,1.20224,1.778812,1.801389.587085.5919,1.317724,1.328545,2.549918,1.328545,1.658629,0,3.008009-1.349431,3.008009-3.00806s-1.349367-3.008009-3.008009-3.008009l.000011.000002Z"/><path d="m266.749931,69.995826c0-2.180878-1.297722-4.142455-3.271503-5.012051-.000436-.015854-.001856-.031451-.002472-.047254-.001229-.031003-.002894-.061878-.004854-.092676-.002151-.033833-.004688-.067564-.007709-.101166-.002779-.030721-.005928-.061302-.009413-.091818-.003816-.033372-.008043-.066603-.012703-.099707-.004252-.030158-.008836-.060175-.013791-.090102-.005442-.032937-.011333-.065707-.017621-.098362-.005712-.029646-.011679-.059163-.018069-.088553-.007042-.032412-.014534-.064644-.022385-.096748-.007107-.029082-.014458-.058049-.022231-.086862-.008592-.031874-.017672-.06353-.027059-.095071-.008451-.028429-.017109-.056756-.026213-.084903-.01013-.031323-.020746-.062377-.031655-.093342-.009797-.027827-.019747-.05559-.030158-.083123-.011538-.030516-.023614-.060764-.035921-.090922-.011142-.027315-.022397-.054553-.034141-.081561-.012947-.029761-.026444-.059214-.040108-.088578-.012396-.026623-.024869-.053183-.037853-.079473-.014356-.029057-.029261-.057754-.044321-.086401-.013586-.025855-.027225-.051646-.041388-.077155-.015712-.028301-.031989-.056218-.048393-.084083-.014753-.025061-.029504-.050084-.044808-.074774-.017084-.027558-.034729-.054694-.052491-.081778-.015816-.024165-.031618-.048317-.047958-.072084-.018376-.026726-.037341-.052991-.056372-.07923-.016904-.023307-.033744-.046626-.05116-.069536-.019632-.025829-.039864-.051134-.060112-.076451-.017954-.022436-.035817-.044897-.054246-.066923-.020822-.024869-.042246-.049162-.063683-.073493-.018915-.021475-.037726-.043015-.057102-.064055-.02209-.023985-.044782-.047343-.067474-.070765-.019824-.020464-.039506-.04103-.059777-.061046-.023179-.022897-.046973-.045128-.070714-.067436-.020771-.019503-.041388-.039148-.06257-.05819-.024292-.021834-.0492-.042951-.074044-.064157-.021616-.018466-.043079-.037099-.065105-.055091-.02533-.020681-.051262-.040595-.077117-.060636-.022474-.017429-.04477-.035075-.067653-.052017-.026342-.019503-.053298-.038187-.080152-.057037-.023281-.01634-.04637-.032937-.070022-.048778-.027225-.018223-.055065-.035575-.082777-.053106-.024126-.015277-.048047-.030849-.072545-.045602-.028173-.016968-.056948-.033001-.085581-.049264-.024818-.014099-.049418-.028531-.074568-.04208-.029056-.015662-.058689-.030311-.088194-.04523-.025535-.012921-.05084-.026226-.076694-.038584-.02994-.014317-.060469-.027571-.090832-.041132-.026098-.011653-.051941-.023742-.078346-.034819-.031157-.013088-.062889-.025023-.094469-.037316-.026252-.010219-.052274-.020912-.078808-.030555-.032296-.011743-.065143-.022269-.097824-.033167-.026534-.008849-.052824-.018236-.079601-.026508-.033334-.010296-.067206-.019311-.100911-.028711-.026713-.007453-.05317-.015508-.080101-.022397-.034614-.008862-.069754-.016327-.104739-.024242-.026624-.006019-.053004-.012691-.079844-.018146-.03601-.007338-.072545-.013203-.108914-.019503-.026316-.004559-.052376-.009861-.078871-.013882-.037777-.00575-.076042-.009925-.114177-.014547-.025586-.003112-.050941-.007005-.076682-.009604-.043296-.004367-.08708-.007056-.130787-.009976-.020887-.001396-.041555-.003624-.062531-.004687-.064964-.003278-.130338-.004981-.196097-.004981-.075081,0-.149509.002728-.223552.006992-.027519.001562-.054809.004136-.082226.006275-.04418.003496-.088233.007389-.131977.01237-.038264.004264-.076298.009207-.114305.014573-.024843.003586-.049559.00753-.074249.011602-1.075001.172418-2.036748.777073-2.643759,1.636347-.723019-1.023343-1.948515-1.688147-3.270055-1.688147-2.085205,0-3.788117,1.66776-3.844949,3.739404-1.973819.869557-3.271476,2.831147-3.271476,5.012013,0,1.077806.308647,2.1054.896718,2.998494-.581015.797306-.896718,1.748923-.896718,2.724128,0,2.305184,1.66621,4.225334,3.923027,4.584014.562357.84146,1.447448,1.449111,2.476847,1.645758.010283.001985.02063.003625.030926.005532.058305.010642.116995.020003.176171.027982.02314.003164.046306.006134.069536.008861.048227.005608.096774.010053.145539.013856.026598.002101.053106.004559.079806.006083.062557.00356.125536.005467.188848.005993.008618.000064.017134.000807.025753.000807.000935,0,.001844-.00009.002779-.00009.001216,0,.002395.00009.003598.00009.079678,0,.158588-.003228.237075-.008029.012601-.000793.025099-.00196.037675-.002869.072008-.00511.143413-.01223.214281-.021271.007632-.000987.015252-.001895.022859-.002919,1.161697-.15527,2.160734-.83041,2.754619-1.783741.316023.507432.747811.93479,1.256896,1.248367.021258.013153.042438.026407.063927.03911.034832.020527.070035.04039.105559.059856.030721.016865.061737.033091.092868.049085.031323.016058.062493.032284.094289.047496.048752.023358.098145.045282.147831.06654.032744.013997.065784.027352.09899.040454.046728.01844.093649.036368.141095.052952.029607.010347.059547.019888.089475.029543.040543.013049.081292.025432.122296.037124.031054.008875.062083.017723.093457.02583.046588.012011.093585.022678.140711.032937.038354.008363.076797.016353.11556.023564.053823.010001.107851.019235.162263.026956.031503.004469.063274.007965.095019.011666.045089.005264.090294.009784.135716.013471.029953.002421.05988.004879.090026.006595.067436.003918.135153.006274.203191.006698.006057.000025.011986.000588.018056.000588.000935,0,.001844-.00009.002779-.00009.001204,0,.002395.00009.003598.00009.077258,0,.154003-.003009.230492-.007503.001434-.00009.002856-.000217.00429-.000307.939042-.056205,1.814157-.447949,2.485031-1.118759.181689-.181689.342647-.380168.482934-.591119,2.248775-.365109,3.907263-2.281391,3.907263-4.581197,0-.975193-.315703-1.926758-.896718-2.724128.588084-.893094.896718-1.920688.896718-2.998494l.000014-.000003Zm-2.050809,3.40106c.579262.65155.898281,1.476055.898281,2.321563,0,1.46161-.892851,2.717137-2.192108,3.236363.037021-.178091.061993-.359397.073442-.542944.019824-.317649-.221605-.591208-.539243-.611032-.315141-.018761-.591144.221541-.611032.539243-.022872.366324-.122527.719472-.285071,1.041925-.027968.031067-.053195.064926-.074146.102101-.405652.719203-1.107349,1.206903-1.894078,1.341632-.047766.007773-.095532.015482-.143579.02067-.019285.002216-.038609.004187-.057972.005968-.765496.066091-1.554005-.192074-2.138491-.776625-.005699-.005686-.012434-.00954-.018299-.014944-.461421-.467953-.751026-1.103609-.772808-1.805947.000602-.027982.002126-.055731.002126-.083853,0-.938056-.341468-1.841599-.961567-2.544168-.210721-.238548-.574702-.261188-.813441-.050712-.238611.210656-.261303.574765-.050712.813441.424476.480847.660821,1.096566.671207,1.737821-.001114.014649-.004405.028673-.004405.043618,0,1.48429-1.206723,2.691884-2.690603,2.693637-.082547-.000102-.163954-.004981-.244617-.012383-.018594-.001729-.03715-.003625-.055667-.005737-.072648-.008195-.144463-.019067-.215254-.032937-.024703-.00493-.049098-.010886-.073608-.016519-.050289-.011345-.099937-.024318-.149124-.038443-.040633-.011859-.081087-.024228-.121054-.037996-.016814-.005712-.033206-.012267-.049866-.018288-.593501-.217713-1.105953-.64425-1.429699-1.218236-.012742-.022602-.027174-.043885-.042592-.064285-.196493-.373689-.309121-.798114-.309121-1.248817,0-.318277-.257987-.576264-.576264-.576264s-.576264.257987-.576264.576264c0,.270575.028429.534581.081829.78952-1.306737-.515834-2.205811-1.775303-2.205811-3.242075,0-.845508.31902-1.670013.898281-2.321563.185019-.208095.194713-.51874.023076-.738028-.602772-.77017-.921357-1.691028-.921357-2.663032,0-1.839345,1.169663-3.48134,2.910518-4.085815.248741-.08635.407316-.33034.385239-.592707-.003816-.044898-.00963-.089231-.015636-.133501-.004943-.036266-.010066-.073787-.010066-.093112,0-1.485366,1.208426-2.693792,2.693856-2.693792,1.247817,0,2.413791.868776,2.712181,2.020805.007094.027379.016942.053413.027661.078884-.030171.193702-.046049.39209-.046049.594116v2.452567c0,.318277.257987.576264.576264.576264s.576264-.257987.576264-.576264v-2.452567c0-1.206697.797549-2.230603,1.893194-2.572328.000371-.000115.00073-.00023.001114-.000333.070957-.02209.143797-.039724.217124-.055962.023114-.005007.046127-.010398.069382-.014816.057741-.01118.116469-.019427.175453-.026854.027391-.003419.054566-.007952.082111-.010565.084173-.007965.169217-.012947.255426-.012947,1.485365,0,2.693791,1.208426,2.693791,2.693791,0,.019504-.005121.057153-.01013.093611-.005942.043963-.011691.087976-.015507.132617-.003316.039071-.001421.077424.002984.115227-.082585.64498-.396086,1.243642-.889636,1.679221-.238611.210593-.261368.574766-.050775.813378.113921.129058.272688.194969.432263.194969.135499,0,.271561-.047523.381116-.144194.545979-.481834.937107-1.103879,1.140914-1.787853,1.386145.745519,2.278843,2.201431,2.278843,3.808158,0,.972004-.318584,1.892862-.921356,2.663032-.171637.219288-.161943.529932.023077.738028l-.000006.000003Z"/></svg>