<svg id="adb4fef8-0e9e-4e47-9242-66363897036b" data-name="Layer 1" xmlns="http://www.w3.org/2000/svg" viewBox="0 0 360 203"><defs><style>.a9abf89a-d4af-4852-a01e-eef21100252b{fill:#f0f0f0;}.af99b6f7-320e-4daa-9028-44c73cab5aaf{fill:#ccbb56;}.bd4ebdce-4435-43c3-ae5b-47874e73c015{fill:#0499c5;}</style></defs><rect class="a9abf89a-d4af-4852-a01e-eef21100252b" x="0.12657" width="360" height="203"/><path class="af99b6f7-320e-4daa-9028-44c73cab5aaf" d="M88.63645,87.08794a1.50315,1.50315,0,0,1-1.06637-.44167c-.142-.1387-3.70461-3.53848-10.87369-3.53848s-10.73183,3.39978-10.88,3.54462a1.50808,1.50808,0,0,1-2.12655-2.13882c.18055-.18052,4.51937-4.42182,13.00651-4.42182s12.82583,4.2413,13.00637,4.42182a1.508,1.508,0,0,1-1.06637,2.57435Z"/><path class="bd4ebdce-4435-43c3-ae5b-47874e73c015" d="M52.81156,106.98637a1.4961,1.4961,0,0,1-1.06167-.44009c-.18052-.18051-4.42168-4.51927-4.42168-13.00637s4.24116-12.826,4.42168-13.00647a1.50808,1.50808,0,0,1,2.13275,2.13275c-.13856.142-3.53834,3.70465-3.53834,10.87383s3.39957,10.73161,3.54441,10.87972a1.50966,1.50966,0,0,1-1.07715,2.56663Z"/><path class="af99b6f7-320e-4daa-9028-44c73cab5aaf" d="M60.77625,122.90813c-8.48711,0-12.82586-4.24117-13.00637-4.42168a1.50809,1.50809,0,0,1,2.13275-2.13276h0c.142.1387,3.70461,3.53834,10.87369,3.53834s10.73182-3.39964,10.88-3.54448a1.508,1.508,0,0,1,2.12651,2.13883C73.60221,118.667,69.26349,122.90813,60.77625,122.90813Z"/><path class="bd4ebdce-4435-43c3-ae5b-47874e73c015" d="M84.6564,122.90813A1.508,1.508,0,0,1,83.59,120.33377c.13866-.142,3.53834-3.70461,3.53834-10.87368s-3.39968-10.73183-3.54448-10.88a1.50808,1.50808,0,0,1,2.13882-2.12655c.18051.18055,4.42168,4.51927,4.42168,13.00651s-4.24117,12.82586-4.42168,13.00637A1.50338,1.50338,0,0,1,84.6564,122.90813Z"/><path d="M94.06508,105.82223a1.50808,1.50808,0,0,1-1.508-1.508c-.00063-.0421-.11793-5.12184-5.18687-10.19089a18.53427,18.53427,0,0,0-7.01564-4.5152,11.3739,11.3739,0,0,0-3.184-.67167,1.50805,1.50805,0,0,1,.0087-3.016c.25537,0,6.32229.069,12.32368,6.07025s6.07018,12.0681,6.07018,12.32354A1.50808,1.50808,0,0,1,94.06508,105.82223Z"/><path d="M54.66492,94.56058h-.009a1.50414,1.50414,0,0,1-1.49917-1.50348c0-.25537.069-6.32215,6.07035-12.32354s12.06817-6.07032,12.32354-6.07032a1.508,1.508,0,1,1,.00043,3.016h-.00043c-.04209.00063-5.12194.11794-10.19085,5.18688a18.53354,18.53354,0,0,0-4.51534,7.01564,11.37266,11.37266,0,0,0-.67157,3.18394A1.512,1.512,0,0,1,54.66492,94.56058Z"/><path d="M60.29346,117.07956c-.2554,0-6.32228-.069-12.32367-6.07035s-6.07022-12.06816-6.07022-12.32354a1.508,1.508,0,0,1,3.016,0c.00059.0421.11793,5.12181,5.18687,10.19086a18.534,18.534,0,0,0,7.01564,4.51533,11.37211,11.37211,0,0,0,3.18391.67168,1.50805,1.50805,0,0,1-.0087,3.016Z"/><path d="M65.922,128.33676a1.508,1.508,0,0,1,0-3.016c.04209-.00063,5.12194-.11793,10.19085-5.187a18.53307,18.53307,0,0,0,4.51534-7.01565,11.36979,11.36979,0,0,0,.67164-3.18391,1.51209,1.51209,0,0,1,1.50791-1.49489h.00894a1.50413,1.50413,0,0,1,1.49918,1.50346c0,.2554-.069,6.32228-6.07032,12.32353S66.17738,128.33676,65.922,128.33676Z"/><path d="M105.26135,77.09163h8.88882c3.92553,0,6.56141,2.35536,6.56141,5.80433a5.5357,5.5357,0,0,1-4.03786,5.35574l4.37426,8.46809h-3.25277l-4.06556-8.0475h-5.52412v8.0475h-2.94418Zm8.66431,9.11308c2.29938,0,3.84156-1.28976,3.84156-3.28076,0-1.96277-1.54218-3.25252-3.84156-3.25252h-5.72013v6.53328Z"/><path d="M121.91627,89.56944a7.19574,7.19574,0,0,1,7.15021-7.37445c3.92577,0,6.89792,3.28076,6.89792,7.51466v.78523H124.72035a4.80975,4.80975,0,0,0,4.7947,4.09394,5.40492,5.40492,0,0,0,3.61741-1.26176l1.79453,1.76633a8.56561,8.56561,0,0,1-5.52394,1.87879,7.34437,7.34437,0,0,1-7.48564-7.20032Q121.91546,89.67067,121.91627,89.56944Zm11.27214-1.17754a4.39183,4.39183,0,0,0-4.17781-3.81356,4.33411,4.33411,0,0,0-4.262,3.81356Z"/><path d="M138.01016,89.56944a7.21257,7.21257,0,0,1,7.07721-7.34543q.09264-.00173.18531-.00107a7.11008,7.11008,0,0,1,4.29007,1.43025V77.09163l2.80394-.5328v20.161h-2.77595v-1.374a6.51142,6.51142,0,0,1-4.37425,1.59837A7.20723,7.20723,0,0,1,138.01016,89.56944Zm11.55265,3.19682V86.34491a5.2572,5.2572,0,0,0-3.98176-1.71034,4.77243,4.77243,0,0,0-4.82456,4.71972q-.001.09358.00161.18716A4.82,4.82,0,0,0,145.581,94.5046,5.04955,5.04955,0,0,0,149.56281,92.76626Z"/><path d="M161.871,77.09163h2.9444v8.41211H175.2462V77.09163h2.94439V96.71979H175.2462V88.16747H164.81538v8.55232H161.871Z"/><path d="M180.85338,92.62605c0-2.692,2.18717-4.34636,5.77634-4.34636a9.51124,9.51124,0,0,1,3.89753.81318V87.57869c0-2.019-1.20578-3.05633-3.47694-3.05633a10.1466,10.1466,0,0,0-4.43059,1.20577L181.58235,83.625a13.45031,13.45031,0,0,1,5.8603-1.458c3.72938,0,5.83256,1.82256,5.83256,5.07533v9.47747h-2.748V95.486a6.77011,6.77011,0,0,1-4.43038,1.4862C183.0122,96.97218,180.85338,95.2056,180.85338,92.62605Zm5.8883,2.24319a5.4062,5.4062,0,0,0,3.78557-1.346V91.11187a7.06625,7.06625,0,0,0-3.67335-.89741c-2.047,0-3.30878.9254-3.30878,2.35536C183.54511,93.9438,184.83515,94.86924,186.74168,94.86924Z"/><path d="M197.929,93.18685V84.80274h-3.02837V82.44737H197.929V78.802l2.77595-.67273v4.31812h4.2062v2.35537h-4.20621v7.73909c0,1.4582.589,2.019,2.10322,2.019a5.51028,5.51028,0,0,0,2.047-.33675v2.35536a9.42049,9.42049,0,0,1-2.664.3926C199.41519,96.97218,197.929,95.68242,197.929,93.18685Z"/><path d="M105.03685,106.53264h7.54279c5.86045,0,10.375,4.29006,10.375,9.84207,0,5.5239-4.51456,9.78608-10.375,9.78608h-7.54279Zm7.5147,16.011a6.197,6.197,0,0,0,.02929-12.39387q-.01465,0-.02929,0h-3.449v12.39387Z"/><path d="M125.19668,107.626a2.1872,2.1872,0,1,1,2.18716,2.18745A2.1872,2.1872,0,0,1,125.19668,107.626Zm.28038,3.92578h3.84156v14.60906h-3.8417Z"/><path d="M130.80383,111.55173h4.17781l4.00976,9.73013,3.98173-9.73013h4.094l-6.281,14.60906h-3.72934Z"/><path d="M147.48685,118.87024a7.47475,7.47475,0,0,1,7.37787-7.57039q.06854-.00088.13708-.00051c4.14993,0,7.23428,3.365,7.23428,7.85131v1.00962H151.41263a4.15007,4.15007,0,0,0,4.09363,3.05637,4.55092,4.55092,0,0,0,3.22478-1.17782l2.52356,2.29937a8.78,8.78,0,0,1-5.94453,2.103A7.5984,7.5984,0,0,1,147.48685,118.87024Zm10.96391-1.458a3.66689,3.66689,0,0,0-3.53318-2.94439,3.59567,3.59567,0,0,0-3.56117,2.94439Z"/><path d="M164.59046,111.55173H168.432v1.6264a4.67107,4.67107,0,0,1,3.89753-1.96276,3.23238,3.23238,0,0,1,1.59841.33636v3.365a4.90371,4.90371,0,0,0-1.963-.39263,3.9088,3.9088,0,0,0-3.53293,2.159v9.47771h-3.84155Z"/><path d="M174.96435,124.42217l1.90678-2.55155a8.34783,8.34783,0,0,0,4.73871,1.68238c1.71062,0,2.83222-.61678,2.83222-1.57017,0-.75719-.56079-1.17782-1.82284-1.374l-2.804-.42058c-2.88816-.42059-4.43038-1.90679-4.43038-4.262,0-2.80394,2.35537-4.62681,6.08474-4.62681a10.77706,10.77706,0,0,1,6.00072,1.8228l-1.8508,2.49557a8.42674,8.42674,0,0,0-4.51432-1.43021c-1.374,0-2.29938.589-2.29938,1.43021,0,.81318.5608,1.20557,1.99076,1.402l2.80419.42059c2.85993.42062,4.45844,1.90678,4.45844,4.17781,0,2.77595-2.72,4.82294-6.39311,4.82294A10.76541,10.76541,0,0,1,174.96435,124.42217Z"/><path d="M189.43218,118.87024a7.47475,7.47475,0,0,1,7.37787-7.57039q.06853-.00088.13708-.00051c4.14993,0,7.23428,3.365,7.23428,7.85131v1.00962H193.358a4.15007,4.15007,0,0,0,4.09363,3.05637,4.55092,4.55092,0,0,0,3.22478-1.17782l2.52356,2.29937a8.78,8.78,0,0,1-5.94453,2.103A7.5984,7.5984,0,0,1,189.43218,118.87024Zm10.96391-1.458a3.66686,3.66686,0,0,0-3.53318-2.94439,3.59569,3.59569,0,0,0-3.56117,2.94439Z"/><path d="M218.62054,106.53264h4.68273l7.99128,19.62815h-4.4021l-1.991-5.13117H216.7977L214.779,126.161h-4.23414Zm5.04709,11.216-2.80394-7.23428-2.80395,7.23428Z"/><path d="M232.69554,106.53264l3.84156-.645v6.84193a6.38861,6.38861,0,0,1,4.09362-1.374,7.50092,7.50092,0,0,1-.112,15.00138,7.13473,7.13473,0,0,1-4.0379-1.20564v1.00937h-3.78531Zm11.58075,12.3376a4.18411,4.18411,0,0,0-4.13327-4.23437q-.0644-.00078-.12874.00043a4.58209,4.58209,0,0,0-3.477,1.402v5.69214a4.8227,4.8227,0,0,0,3.477,1.374,4.1673,4.1673,0,0,0,4.26148-4.07093Q244.27762,118.95186,244.27629,118.87024Z"/><path d="M250.13551,107.626a2.1872,2.1872,0,1,1,2.18721,2.18745A2.1872,2.1872,0,0,1,250.13551,107.626Zm.28041,3.92578h3.84156v14.60906h-3.84156Z"/><path d="M257.25688,106.53264l3.84156-.645v20.27317h-3.84156Z"/><path d="M263.81767,107.626a2.1872,2.1872,0,1,1,2.1872,2.18745A2.18719,2.18719,0,0,1,263.81767,107.626Zm.2804,3.92578h3.84156v14.60906h-3.84156Z"/><path d="M272.93,122.03882V114.7483h-3.0001v-3.19657H272.93v-3.72934l3.84159-.86917v4.59851h4.1778v3.19657h-4.1778v6.50533c0,1.374.53281,1.87879,2.019,1.87879a5.91473,5.91473,0,0,0,2.047-.3364v3.16858a11.89421,11.89421,0,0,1-2.97237.42059C274.61263,126.38518,272.93,124.899,272.93,122.03882Z"/><path d="M282.54719,107.626a2.1872,2.1872,0,1,1,2.18716,2.18745A2.1872,2.1872,0,0,1,282.54719,107.626Zm.28039,3.92578h3.84156v14.60906h-3.84158Z"/><path d="M288.99579,118.87024a7.47475,7.47475,0,0,1,7.37786-7.57039q.06852-.00088.137-.00051c4.15,0,7.23428,3.365,7.23428,7.85131v1.00962H292.92158a4.15,4.15,0,0,0,4.09362,3.05637,4.551,4.551,0,0,0,3.2248-1.17782l2.52351,2.29937a8.78,8.78,0,0,1-5.94449,2.103A7.5984,7.5984,0,0,1,288.99579,118.87024Zm10.96387-1.458a3.66688,3.66688,0,0,0-3.5332-2.94439,3.59562,3.59562,0,0,0-3.56113,2.94439Z"/><path d="M305.00555,124.42217l1.90678-2.55155A8.34768,8.34768,0,0,0,311.651,123.553c1.71062,0,2.83218-.61678,2.83218-1.57017,0-.75719-.56075-1.17782-1.82281-1.374l-2.80394-.42058c-2.88817-.42059-4.43038-1.90679-4.43038-4.262,0-2.80394,2.35536-4.62681,6.08473-4.62681a10.77711,10.77711,0,0,1,6.00072,1.8228l-1.85079,2.49557a8.42669,8.42669,0,0,0-4.51433-1.43021c-1.374,0-2.29937.589-2.29937,1.43021,0,.81318.56079,1.20557,1.99075,1.402l2.80418.42059c2.85993.42062,4.45845,1.90678,4.45845,4.17781,0,2.77595-2.72,4.82294-6.39311,4.82294A10.76532,10.76532,0,0,1,305.00555,124.42217Z"/></svg>