<svg id="e08444a1-1538-4c8d-9229-cd0ce3eba56f" data-name="Layer 1" xmlns="http://www.w3.org/2000/svg" viewBox="0 0 360 190"><defs><style>.e218d951-cb38-474a-815a-f5e21e88867f{fill:#e00;}</style></defs><rect width="360" height="190" rx="3"/><path class="e218d951-cb38-474a-815a-f5e21e88867f" d="M145.84581,63.96111h11.35837c4.96523,0,8.32247,3.00037,8.32247,7.39356a7.06186,7.06186,0,0,1-5.14355,6.85793l5.57215,10.75145h-4.14336L156.633,78.71269h-7.03669V88.96405h-3.75052Zm3.75052,3.28617v8.358h7.28652c2.92908,0,4.85753-1.67862,4.85753-4.17911,0-2.5358-1.92845-4.17889-4.85753-4.17889Z"/><path class="e218d951-cb38-474a-815a-f5e21e88867f" d="M176.599,89.28539a9.35558,9.35558,0,0,1-9.53718-9.42949,9.13573,9.13573,0,0,1,9.10859-9.35842c5.00054,0,8.78638,4.14336,8.78638,9.501v1.03595H170.59827a6.1325,6.1325,0,0,0,6.14331,5.21506,7.07086,7.07086,0,0,0,4.60771-1.60755l2.286,2.25023A10.84133,10.84133,0,0,1,176.599,89.28539Zm-5.965-10.92978h10.78677a5.42289,5.42289,0,0,0-10.78677,0Z"/><path class="e218d951-cb38-474a-815a-f5e21e88867f" d="M202.35123,87.24968a8.588,8.588,0,0,1-5.57215,2,9.37615,9.37615,0,1,1,5.5364-16.96628V63.96111l3.57176-.78569V88.96405h-3.536Zm-5.072-1.10745a6.55216,6.55216,0,0,0,5.0363-2.17872v-8.251a6.648,6.648,0,0,0-5.0363-2.1434,6.28747,6.28747,0,0,0,0,12.57309Z"/><path class="e218d951-cb38-474a-815a-f5e21e88867f" d="M217.99511,63.96111h3.75051V74.67659h13.28683V63.96111H238.783V88.96405h-3.75052V78.07H221.74562v10.894h-3.75051Z"/><path class="e218d951-cb38-474a-815a-f5e21e88867f" d="M242.17553,83.749c0-3.42874,2.78607-5.53639,7.358-5.53639a12.832,12.832,0,0,1,4.9648,1.00019V77.2839c0-2.57155-1.53561-3.85733-4.42894-3.85733a12.92722,12.92722,0,0,0-5.64366,1.53561l-1.32153-2.67882A17.01719,17.01719,0,0,1,250.5695,70.426c4.715,0,7.42954,2.32173,7.42954,6.50084V88.96405h-3.50069v-1.5718a8.62424,8.62424,0,0,1-5.64322,1.89314C244.8901,89.28539,242.17553,87.03517,242.17553,83.749Zm7.501,2.89333a6.99125,6.99125,0,0,0,4.82179-1.71437v-3.1436a9.44489,9.44489,0,0,0-4.67921-1.107c-2.60731,0-4.21443,1.17853-4.21443,3.00016C245.60471,85.42761,247.24758,86.64232,249.67656,86.64232Z"/><path class="e218d951-cb38-474a-815a-f5e21e88867f" d="M263.74951,73.78365h-3.85778V70.7835h3.85778V66.14l3.536-.85718V70.7835h5.35807v3.00015h-5.35807v9.85809c0,1.85738.75037,2.53624,2.67882,2.53624a7.02141,7.02141,0,0,0,2.60775-.42859v3.00015a11.82017,11.82017,0,0,1-3.39343.53585c-3.536,0-5.42914-1.67862-5.42914-4.82178Z"/><path class="e218d951-cb38-474a-815a-f5e21e88867f" d="M157.31144,101.46433c5.0363,0,8.46548,2.78607,8.46548,6.85793a6.16692,6.16692,0,0,1-3.07209,5.25081,6.30183,6.30183,0,0,1,3.92928,5.64365c0,4.35744-3.50069,7.25077-8.75107,7.25077H145.56022V101.46433Zm-6.57191,4.28637v5.92923h6.25057c2.21448,0,3.64327-1.14277,3.64327-2.9644s-1.42879-2.96483-3.64327-2.96483Zm10.67952,13.18c0-1.92888-1.53561-3.21466-3.92885-3.21466h-6.75067v6.46508h6.75067C159.88344,122.18112,161.41905,120.9311,161.41905,118.9307Z"/><path class="e218d951-cb38-474a-815a-f5e21e88867f" d="M174.313,123.93168a2.911,2.911,0,1,1-2.92908-2.92908A2.93485,2.93485,0,0,1,174.313,123.93168Z"/><path class="e218d951-cb38-474a-815a-f5e21e88867f" d="M187.74287,126.82458c-6.75067,0-11.07235-4.32212-11.07235-11.18v-14.1802h5.17887v14.1802c0,3.89353,2.32173,6.39358,5.92923,6.39358,3.5722,0,5.85817-2.50005,5.85817-6.39358v-14.1802h5.17887v14.1802C198.81566,122.46714,194.45823,126.82458,187.74287,126.82458Z"/><path class="e218d951-cb38-474a-815a-f5e21e88867f" d="M207.03,123.93168a2.911,2.911,0,1,1-2.92865-2.92908A2.93477,2.93477,0,0,1,207.03,123.93168Z"/><path class="e218d951-cb38-474a-815a-f5e21e88867f" d="M210.67327,101.46433h5.17931v25.00316h-5.17931Z"/><path class="e218d951-cb38-474a-815a-f5e21e88867f" d="M225.3527,123.93168a2.911,2.911,0,1,1-2.92909-2.92908A2.93486,2.93486,0,0,1,225.3527,123.93168Z"/><path class="e218d951-cb38-474a-815a-f5e21e88867f" d="M228.996,101.46433h5.17931v20.43121h13.6801v4.572H228.996Z"/><path class="e218d951-cb38-474a-815a-f5e21e88867f" d="M256.39105,123.93168a2.911,2.911,0,1,1-2.92909-2.92908A2.93486,2.93486,0,0,1,256.39105,123.93168Z"/><path class="e218d951-cb38-474a-815a-f5e21e88867f" d="M260.03387,101.46433h9.60825c7.46485,0,13.21576,5.46489,13.21576,12.57308,0,7.00094-5.75091,12.43008-13.21576,12.43008h-9.60825Zm5.17931,4.6077v15.78776h4.39319a7.89388,7.89388,0,1,0,0-15.78776Z"/><path class="e218d951-cb38-474a-815a-f5e21e88867f" d="M289.858,123.93168a2.911,2.911,0,1,1-2.92865-2.92908A2.93476,2.93476,0,0,1,289.858,123.93168Z"/><path class="e218d951-cb38-474a-815a-f5e21e88867f" d="M75.58309,86.00547a2.00911,2.00911,0,0,1-1.42072-3.42983l12.613-12.61277a2.00921,2.00921,0,1,1,2.84145,2.84145l-12.613,12.61276A2.00379,2.00379,0,0,1,75.58309,86.00547Z"/><path class="e218d951-cb38-474a-815a-f5e21e88867f" d="M87.15707,88.67492a2.00912,2.00912,0,0,1-1.42072-3.42984L98.5185,72.46315A2.00921,2.00921,0,0,1,101.36,75.30459L88.5778,88.08653A2.00382,2.00382,0,0,1,87.15707,88.67492Z"/><path class="e218d951-cb38-474a-815a-f5e21e88867f" d="M95.81854,94.33514a2.00912,2.00912,0,0,1-1.42072-3.42984l10.8356-10.8356a2.00921,2.00921,0,0,1,2.84145,2.84144L97.23926,93.74675A2.00338,2.00338,0,0,1,95.81854,94.33514Z"/><path class="e218d951-cb38-474a-815a-f5e21e88867f" d="M99.10646,105.34318a2.00911,2.00911,0,0,1-1.42073-3.42983l13.99861-13.99861a2.00921,2.00921,0,0,1,2.84145,2.84145L100.52718,104.7548A2.00345,2.00345,0,0,1,99.10646,105.34318Z"/><path class="e218d951-cb38-474a-815a-f5e21e88867f" d="M100.58539,118.15128a2.00912,2.00912,0,0,1-1.42073-3.42984l8.22917-8.22916a2.00921,2.00921,0,0,1,2.84145,2.84144l-8.22917,8.22917A2.0034,2.0034,0,0,1,100.58539,118.15128Z"/><path class="e218d951-cb38-474a-815a-f5e21e88867f" d="M103.86873,129.155H96.72521a2.00907,2.00907,0,0,1-2.00911-2.00911v-3.93037l-4.17388-4.17366a2.00986,2.00986,0,0,1-.58839-1.42072V99.40392l-3.58549-3.58549H75.29468A2.00987,2.00987,0,0,1,73.87395,95.23l-7.14351-7.14351a2.00987,2.00987,0,0,1-.58839-1.42073V77.14127a2.00987,2.00987,0,0,1,.58839-1.42073l14.287-14.287a2.00946,2.00946,0,0,1,1.83908-.54435l22.16,4.71823h5.99573a2.00889,2.00889,0,0,1,1.96551,1.59316l2.43313,11.4979,5.95823,5.95823h8.69264a2.00924,2.00924,0,0,1,1.42072,3.42984l-13.69863,13.69841v13.45491a2.00987,2.00987,0,0,1-.58839,1.42073l-11.906,11.906A2.00989,2.00989,0,0,1,103.86873,129.155Zm-5.1344-4.01822h4.30228l10.729-10.729V100.95283a2.00987,2.00987,0,0,1,.58839-1.42073l10.85741-10.85718H120.537a2.00984,2.00984,0,0,1-1.42072-.58839L112.148,81.11829a2.00812,2.00812,0,0,1-.54479-1.00477l-2.21948-10.4879h-4.57871a2.01386,2.01386,0,0,1-.41835-.044L83.08718,65.04648l-12.9269,12.9269v7.86031l5.96651,5.96651H87.20068a2.00986,2.00986,0,0,1,1.42072.58839l4.76227,4.76249a2.00984,2.00984,0,0,1,.58839,1.42072V116.789l4.17388,4.17366a2.00986,2.00986,0,0,1,.58839,1.42072Zm17.04039-9.89689h0Z"/><path class="e218d951-cb38-474a-815a-f5e21e88867f" d="M119.1045,122.91355a2.00912,2.00912,0,0,1-1.42073-3.42984l4.76249-4.76227a2.00921,2.00921,0,0,1,2.84145,2.84145l-4.76249,4.76227A2.0038,2.0038,0,0,1,119.1045,122.91355Z"/></svg>