<svg id="ff4044a9-c06b-4205-ad31-e5906b0bd33a" data-name="Layer 1" xmlns="http://www.w3.org/2000/svg" viewBox="0 0 360 203"><defs><style>.a02ff1c2-322f-4abf-b23a-3c6f15acebe5{fill:#f0f0f0;}.fd4ff134-509c-46a0-9c31-0367bf43eb4f{fill:#ed1c24;}</style></defs><rect class="a02ff1c2-322f-4abf-b23a-3c6f15acebe5" x="0.12657" width="360" height="203"/><path d="M105.50026,78.60411v6.56671h5.72511c2.30113,0,3.81616-1.31884,3.81616-3.28325,0-1.99251-1.515-3.28346-3.81616-3.28346Zm-2.94657-2.58186h8.9239c3.901,0,6.53893,2.35732,6.53893,5.80912a5.54873,5.54873,0,0,1-4.04136,5.38817l4.3781,8.447H115.098l-4.06907-8.05411h-5.52868v8.05411h-2.94657V76.02225Z"/><path d="M122.02911,87.3317h8.47524a4.26081,4.26081,0,0,0-8.47524,0Zm4.68646,8.58732a7.35049,7.35049,0,0,1-7.49306-7.40858,7.17771,7.17771,0,0,1,7.1563-7.35254c3.92877,0,6.90339,3.25537,6.90339,7.46475v.81392H122.00105a4.81812,4.81812,0,0,0,4.82677,4.09721,5.5553,5.5553,0,0,0,3.62006-1.26286l1.796,1.76778a8.5182,8.5182,0,0,1-5.52832,1.88032Z"/><path d="M142.96379,93.44949a5.147,5.147,0,0,0,3.95682-1.71178v-6.4826a5.22219,5.22219,0,0,0-3.95682-1.68386,4.93984,4.93984,0,0,0,0,9.87824Zm3.98488.87011a6.74667,6.74667,0,0,1-4.37811,1.57132A7.36656,7.36656,0,1,1,146.92061,82.561V76.02225l2.80626-.61731v20.2616h-2.7782V94.3196Z"/><polygon points="159.24 76.022 162.186 76.022 162.186 84.441 172.626 84.441 172.626 76.022 175.572 76.022 175.572 95.667 172.626 95.667 172.626 87.107 162.186 87.107 162.186 95.667 159.24 95.667 159.24 76.022 159.24 76.022"/><path d="M184.13122,93.8424a5.49242,5.49242,0,0,0,3.78846-1.34694V90.02578a7.42,7.42,0,0,0-3.67621-.86993c-2.04856,0-3.31138.92609-3.31138,2.35732,0,1.375,1.29088,2.32923,3.19913,2.32923Zm-5.89314-2.273c0-2.69408,2.18888-4.34983,5.7809-4.34983a10.08244,10.08244,0,0,1,3.9007.78581V86.48987c0-2.02061-1.2067-3.0308-3.47977-3.0308a10.15348,10.15348,0,0,0-4.43387,1.20666L178.96771,82.561a13.36922,13.36922,0,0,1,5.86508-1.45933c3.7046,0,5.83737,1.82414,5.83737,5.1076v9.45723h-2.75048V94.4316a6.77645,6.77645,0,0,1-4.4339,1.48742c-3.11494,0-5.2477-1.768-5.2477-4.34965Z"/><path d="M195.18788,83.73962h-3.03077V81.38244h3.03077V77.73417l2.77854-.67347v4.32174h4.20938v2.35718h-4.20938v7.74545c0,1.45933.58931,1.99252,2.10469,1.99252a5.51127,5.51127,0,0,0,2.04858-.33675V95.498a9.2863,9.2863,0,0,1-2.666.421c-2.77818,0-4.26585-1.31887-4.26585-3.78837v-8.391Z"/><polygon points="106.09 110.68 106.09 125.132 102.329 125.132 102.329 105.488 107.549 105.488 112.937 116.04 118.325 105.488 123.545 105.488 123.545 125.132 119.7 125.132 119.7 110.708 112.881 123.729 106.09 110.68 106.09 110.68"/><path d="M130.672,125.13223h-3.84457V110.51094H130.672v14.62129Zm-4.12519-18.55006a2.18888,2.18888,0,1,1,2.18887,2.18888,2.19184,2.19184,0,0,1-2.18887-2.18888Z"/><polygon points="137.519 125.132 133.674 125.132 133.674 105.488 137.519 104.646 137.519 125.132 137.519 125.132"/><path d="M144.36586,125.13223h-3.84457V110.51094h3.84457v14.62129Zm-4.12519-18.55006a2.18888,2.18888,0,1,1,2.18888,2.18888,2.19185,2.19185,0,0,1-2.18888-2.18888Z"/><path d="M149.36065,113.73847h-3.0027v-3.22753h3.0027v-3.732l3.84457-.87018v4.60216h4.15361v3.22753h-4.15361v6.48246c0,1.37541.5332,1.8802,2.02086,1.8802a5.91111,5.91111,0,0,0,2.04821-.33676v3.14337a11.92549,11.92549,0,0,1-2.97463.449c-3.25526,0-4.939-1.48733-4.939-4.35v-7.26822Z"/><path d="M164.90731,122.63467a5.53306,5.53306,0,0,0,3.2272-.92643v-2.18887a8.49366,8.49366,0,0,0-3.08689-.53284c-1.76793,0-2.80625.70157-2.80625,1.82407s1.03832,1.82407,2.66594,1.82407Zm-6.34214-1.73988c0-2.77855,2.245-4.43425,6.00539-4.43425a11.82261,11.82261,0,0,1,3.564.56127v-1.03833c0-1.68375-1.03832-2.55369-3.08689-2.55369a11.33046,11.33046,0,0,0-4.46194,1.20668l-1.40313-2.8343a15.24493,15.24493,0,0,1,6.51051-1.57151c3.95718,0,6.23024,1.96438,6.23024,5.41608v9.48549h-3.78879V124.122a6.94907,6.94907,0,0,1-4.23744,1.26282c-3.143,0-5.3319-1.82406-5.3319-4.49Z"/><path d="M174.84146,110.51094H178.686v1.59991a4.651,4.651,0,0,1,3.90069-1.93668,3.32136,3.32136,0,0,1,1.59957.33677v3.36785a4.90784,4.90784,0,0,0-1.96439-.39288,3.8696,3.8696,0,0,0-3.53587,2.18889v9.45743h-3.84458V110.51094Z"/><path d="M190.72453,125.27255l-5.69671-14.76161h4.23745l3.62008,9.96291,4.15325-9.96291h4.15362l-6.73538,15.77187c-1.51537,3.53588-3.28331,4.88288-6.48243,4.88288a7.03558,7.03558,0,0,1-1.71183-.168v-3.31173a6.0069,6.0069,0,0,0,1.347.1126,2.94408,2.94408,0,0,0,2.89043-1.9928l.22451-.53318Z"/><polygon points="206.719 105.488 211.125 105.488 217.131 121.007 223.277 105.488 227.486 105.488 219.404 125.132 214.689 125.132 206.719 105.488 206.719 105.488"/><path d="M229.92757,116.37636h7.156a3.77181,3.77181,0,0,0-3.564-2.94657,3.67193,3.67193,0,0,0-3.592,2.94657Zm4.01295,9.0365a7.61189,7.61189,0,0,1-7.85787-7.57724,7.46345,7.46345,0,0,1,7.52114-7.5769c4.15324,0,7.24012,3.36751,7.24012,7.85752v1.01026H229.95564a4.213,4.213,0,0,0,4.15327,3.05916,4.60306,4.60306,0,0,0,3.22718-1.179l2.52564,2.30148a8.76439,8.76439,0,0,1-5.92121,2.10469Z"/><path d="M244.63238,113.73847h-3.0027v-3.22753h3.0027v-3.732l3.84455-.87018v4.60216h4.15327v3.22753h-4.15327v6.48246c0,1.37541.5332,1.8802,2.02051,1.8802a5.91313,5.91313,0,0,0,2.04858-.33676v3.14337a11.9252,11.9252,0,0,1-2.97428.449c-3.25561,0-4.93936-1.48733-4.93936-4.35v-7.26822Z"/><path d="M257.56924,116.37636h7.15631a3.77188,3.77188,0,0,0-3.564-2.94657,3.67282,3.67282,0,0,0-3.59235,2.94657Zm4.01327,9.0365a7.61189,7.61189,0,0,1-7.85787-7.57724,7.46344,7.46344,0,0,1,7.52113-7.5769c4.15325,0,7.24013,3.36751,7.24013,7.85752v1.01026H257.59727a4.21367,4.21367,0,0,0,4.15361,3.05916,4.60311,4.60311,0,0,0,3.2272-1.179l2.526,2.30148a8.76523,8.76523,0,0,1-5.92155,2.10469Z"/><path d="M270.84283,110.51094h3.84455v1.59991a4.652,4.652,0,0,1,3.9007-1.93668,3.32314,3.32314,0,0,1,1.59993.33677v3.36785a4.90841,4.90841,0,0,0-1.96476-.39288,3.87,3.87,0,0,0-3.53587,2.18889v9.45743h-3.84455V110.51094Z"/><path d="M287.48425,122.63467a5.53286,5.53286,0,0,0,3.22718-.92643v-2.18887a8.49455,8.49455,0,0,0-3.08686-.53284c-1.76795,0-2.80625.70157-2.80625,1.82407s1.0383,1.82407,2.66593,1.82407Zm-6.34212-1.73988c0-2.77855,2.245-4.43425,6.00538-4.43425a11.82222,11.82222,0,0,1,3.56392.56127v-1.03833c0-1.68375-1.03826-2.55369-3.08686-2.55369a11.33307,11.33307,0,0,0-4.46228,1.20668l-1.40315-2.8343a15.24771,15.24771,0,0,1,6.51088-1.57151c3.95681,0,6.23024,1.96438,6.23024,5.41608v9.48549h-3.78883V124.122a6.94888,6.94888,0,0,1-4.23741,1.26282c-3.143,0-5.33189-1.82406-5.33189-4.49Z"/><path d="M297.418,110.51094h3.8446v1.15091a6.27612,6.27612,0,0,1,4.0975-1.43119,5.54719,5.54719,0,0,1,5.78086,5.80895v9.09262h-3.84456v-8.531a2.85086,2.85086,0,0,0-3.03074-3.05917,3.5029,3.5029,0,0,0-3.00306,1.45925v10.13093H297.418V110.51094Z"/><path d="M314.732,120.83866a8.51472,8.51472,0,0,0,4.74293,1.65569c1.71182,0,2.83434-.61738,2.83434-1.5438,0-.75733-.56128-1.17827-1.82409-1.37506l-2.80626-.42093c-2.89044-.44865-4.43423-1.87984-4.43423-4.23744,0-2.83433,2.35761-4.63033,6.09-4.63033a10.7861,10.7861,0,0,1,6.00536,1.82406l-1.85216,2.46951a8.63148,8.63148,0,0,0-4.51839-1.40313c-1.40313,0-2.30079.56124-2.30079,1.43119,0,.78574.56129,1.17863,1.99246,1.37506l2.80626.421c2.86239.42093,4.46194,1.9086,4.46194,4.18132,0,2.75048-2.72208,4.82711-6.39827,4.82711a10.77575,10.77575,0,0,1-6.70729-2.02051l1.90823-2.55369Z"/><path d="M84.52384,94.2271a1.57857,1.57857,0,0,0-1.57852,1.57851v17.915a11.85866,11.85866,0,0,1-23.551,1.97807,1.58707,1.58707,0,0,0-.09388-.32728c.13256-.12348.26583-.24626.395-.37534l12.6679-12.668a15.02807,15.02807,0,0,0,3.38329-16.0507A1.57837,1.57837,0,1,0,72.80316,87.418a11.8716,11.8716,0,0,1-2.67226,12.67783l-12.668,12.66778A11.85776,11.85776,0,0,1,40.69372,95.994L53.36158,83.32647a11.87059,11.87059,0,0,1,12.67733-2.67229A1.57852,1.57852,0,0,0,67.18,77.71056,15.02957,15.02957,0,0,0,51.12914,81.094L38.46123,93.76189a15.01513,15.01513,0,0,0,18.07058,23.64858,15.01558,15.01558,0,0,0,29.57055-3.68989v-17.915a1.57835,1.57835,0,0,0-1.57852-1.57851Z"/><path class="fd4ff134-509c-46a0-9c31-0367bf43eb4f" d="M61.27887,85.84446a1.579,1.579,0,0,0-2.23247,0L46.37867,98.51253a1.57848,1.57848,0,1,0,2.23248,2.23213L61.27887,88.07694a1.5787,1.5787,0,0,0,0-2.23248Z"/><path class="fd4ff134-509c-46a0-9c31-0367bf43eb4f" d="M58.57914,102.79043a1.5735,1.5735,0,0,0,1.11624-.46244l7.91743-7.91725a1.57861,1.57861,0,0,0-2.23248-2.23249l-7.91743,7.91762a1.5785,1.5785,0,0,0,1.11624,2.69456Z"/><path d="M71.08854,83.9496a1.58079,1.58079,0,0,0,1.57852-1.57852,1.51184,1.51184,0,0,0-.03157-.30865,1.60786,1.60786,0,0,0-.235-.5683,1.44684,1.44684,0,0,0-.19644-.242,1.58366,1.58366,0,0,0-2.231,0,1.44689,1.44689,0,0,0-.19645.242,1.45257,1.45257,0,0,0-.235.5683,1.51114,1.51114,0,0,0-.03157.30865,1.58077,1.58077,0,0,0,1.57852,1.57852Z"/><path d="M75.568,79.47012a1.55969,1.55969,0,0,0,.30869-.03154,1.7764,1.7764,0,0,0,.29466-.09127,1.53685,1.53685,0,0,0,.27011-.14372,1.64477,1.64477,0,0,0,.242-.19647,1.57876,1.57876,0,0,0-2.2345-2.2309,1.57845,1.57845,0,0,0,1.119,2.6939Z"/><path d="M78.58826,74.01551a1.69837,1.69837,0,0,0,.14381.27354,1.81425,1.81425,0,0,0,.19645.23859,1.58942,1.58942,0,0,0,1.11548.463,1.50873,1.50873,0,0,0,.30868-.03153,1.61213,1.61213,0,0,0,.56828-.235,1.45093,1.45093,0,0,0,.242-.19647,1.78776,1.78776,0,0,0,.19294-.23859,1.477,1.477,0,0,0,.14733-.27354,1.69118,1.69118,0,0,0,.09119-.2946,1.83714,1.83714,0,0,0,.02807-.30882,1.588,1.588,0,0,0-.45953-1.11537,1.44094,1.44094,0,0,0-.242-.19646,1.80443,1.80443,0,0,0-.2701-.1473,1.785,1.785,0,0,0-.29818-.0877,1.57889,1.57889,0,0,0-1.8872,1.54683,1.53927,1.53927,0,0,0,.03156.30882,1.69127,1.69127,0,0,0,.09122.2946Z"/></svg>