<svg id="e61e7ba3-8fc9-4b43-a621-1c82516edb51" data-name="Layer 1" xmlns="http://www.w3.org/2000/svg" viewBox="0 0 360 203"><defs><style>.f6b910c8-b52a-46a5-8f20-ce5011d5a051{fill:#f0f0f0;}.b433b42a-e021-4e7e-9b5e-edcb17843d94{fill:#e00;}.e96a5879-770d-45e7-8042-71df7d82922e{fill:#93d3e6;}.afde08c7-f637-4061-8c44-b462dbb61ea7{fill:#037a9e;}.b837b682-391e-48e6-aae3-3448897dfc8a{fill:#f7823c;}.a69483c0-6fff-4e35-b3fe-c92a64d68e5c{fill:#be0000;}</style></defs><rect class="f6b910c8-b52a-46a5-8f20-ce5011d5a051" x="0.12657" width="360" height="203"/><g id="b87197d2-f76b-488b-a383-ecb56ba5143e" data-name="b2763930-0984-4099-a1e1-12d71ffd903e"><path d="M118.322,80.10094h8.9239c3.90069,0,6.53858,2.35725,6.53858,5.809a5.561,5.561,0,0,1-4.041,5.388l4.37776,8.44683H130.866l-4.06907-8.068h-5.52833v8.068H118.322Zm2.94657,2.58175v6.56664h5.72476c2.30113,0,3.81651-1.31894,3.81651-3.28332s-1.51538-3.28332-3.81651-3.28332Z"/><path d="M142.48385,99.9973a7.36642,7.36642,0,0,1-7.49174-7.23894q-.00145-.08478-.001-.16958a7.19814,7.19814,0,0,1,7.15595-7.36642c3.92877,0,6.90339,3.25525,6.90339,7.46464v.81381H137.76934A4.81975,4.81975,0,0,0,142.5961,97.598a5.55642,5.55642,0,0,0,3.62008-1.26282l1.796,1.75391A8.52054,8.52054,0,0,1,142.48385,99.9973Zm-4.68644-8.60118h8.47489a4.26062,4.26062,0,0,0-8.47489,0Z"/><path d="M162.717,98.41176a6.74562,6.74562,0,0,1-4.37777,1.57151,7.372,7.372,0,1,1,4.36374-13.32972V80.10094l2.80625-.61738V99.74473H162.731Zm-3.98488-.86994A5.146,5.146,0,0,0,162.68891,95.83V89.33352a5.2231,5.2231,0,0,0-3.95682-1.68375,4.78116,4.78116,0,0,0-4.856,4.70512q-.00162.10292.00119.20583a4.83025,4.83025,0,0,0,4.69145,4.9652q.08166.00232.16336.00187Z"/><path d="M175.00837,80.10094h2.94656v8.41877h10.43928V80.10094h2.94657V99.74473h-2.94657V91.18565H177.955v8.55908h-2.94657Z"/><path d="M194.00673,95.6476c0-2.694,2.18887-4.3497,5.78089-4.3497a10.08508,10.08508,0,0,1,3.9007.79978V90.56827c0-2.0205-1.2067-3.03075-3.47977-3.03075a9.963,9.963,0,0,0-4.43389,1.20669l-1.05235-2.1047a13.36874,13.36874,0,0,1,5.86508-1.45925c3.70426,0,5.837,1.82407,5.837,5.10739v9.47111h-2.75013V98.51a6.77711,6.77711,0,0,1-4.43389,1.48732C196.136,99.9973,194.00673,98.22936,194.00673,95.6476Zm5.89313,2.27307a5.49324,5.49324,0,0,0,3.78844-1.347V94.11819a7.41911,7.41911,0,0,0-3.6762-.86994c-2.04856,0-3.31138.92607-3.31138,2.35726,0,1.361,1.2909,2.31516,3.19915,2.31516Z"/><path d="M210.95652,87.81814h-3.03076V85.46089h3.03076V81.81275l2.7782-.6735v4.32164h4.20939v2.35725h-4.20939v7.74527c0,1.45926.58931,1.99244,2.10469,1.99244a5.51432,5.51432,0,0,0,2.04857-.35078v2.35726a9.29575,9.29575,0,0,1-2.666.42093c-2.7782,0-4.26551-1.31894-4.26551-3.78844Z"/><path d="M124.29931,109.56663h4.71451l7.96977,19.6438h-4.40582l-1.99244-5.16351h-8.1136l-2.0205,5.16351h-4.23394Zm5.05126,11.225-2.77819-7.24014-2.83432,7.24014Z"/><path d="M139.62148,124.91686a8.51366,8.51366,0,0,0,4.74257,1.65569c1.71182,0,2.83431-.61738,2.83431-1.54344,0-.75769-.56125-1.17863-1.82407-1.37507l-2.80626-.42093c-2.89395-.449-4.43389-1.8802-4.43389-4.23745,0-2.83432,2.35726-4.63032,6.08957-4.63032a10.78654,10.78654,0,0,1,6.00539,1.82406l-1.85213,2.45548a8.63146,8.63146,0,0,0-4.51807-1.40313c-1.40313,0-2.30113.56125-2.30113,1.43119,0,.78575.56125,1.17863,1.99244,1.37507l2.80626.42093c2.86238.42094,4.46194,1.90826,4.46194,4.18132,0,2.75014-2.72207,4.82676-6.39826,4.82676a10.77478,10.77478,0,0,1-6.707-2.0205Z"/><path d="M152.44607,110.66107A2.18888,2.18888,0,1,1,154.635,112.85h0A2.19238,2.19238,0,0,1,152.44607,110.66107Zm4.1252,18.54936h-3.8586v-14.6206h3.8586Z"/><path d="M158.86889,124.973c0-2.77819,2.245-4.43388,6.00539-4.43388a11.80742,11.80742,0,0,1,3.56394.56125V120.048c0-1.68376-1.05234-2.5537-3.08687-2.5537a11.33029,11.33029,0,0,0-4.462,1.20669l-1.40313-2.83432a15.24508,15.24508,0,0,1,6.51051-1.5715c3.96034,0,6.2334,1.96438,6.2334,5.41607v9.47112h-3.806v-1.01026a6.9419,6.9419,0,0,1-4.23744,1.26282C161.05777,129.463,158.86889,127.63893,158.86889,124.973Zm6.34214,1.75391a5.52832,5.52832,0,0,0,3.21316-.95412v-2.17485a8.48186,8.48186,0,0,0-3.08688-.53319c-1.75391,0-2.80625.70156-2.80625,1.82406s1.05584,1.82407,2.68,1.82407Z"/><path d="M175.14518,114.58983h3.8586v1.15057a6.27545,6.27545,0,0,1,4.09713-1.43119,5.54981,5.54981,0,0,1,5.7844,5.809v9.09227H185.0267v-8.531a2.85077,2.85077,0,0,0-3.03076-3.05882,3.50781,3.50781,0,0,0-3.00269,1.45925v10.13059h-3.85861Z"/><path d="M201.55205,109.56663l9.76578,12.69832V109.56663h3.81651v19.6438h-3.592L201.524,116.07715v13.13328h-3.85861v-19.6438Z"/><path d="M225.62973,129.49106a7.61152,7.61152,0,0,1-7.85752-7.5769,7.46465,7.46465,0,0,1,7.35134-7.57626q.08471-.00128.16943-.00063c4.15327,0,7.24015,3.36751,7.24015,7.85752V123.205H221.65889a4.20937,4.20937,0,0,0,4.15326,3.05882,4.60219,4.60219,0,0,0,3.22718-1.17862l2.52564,2.30113A8.76959,8.76959,0,0,1,225.62973,129.49106Zm-4.01295-9.03615h7.14193a3.7564,3.7564,0,0,0-3.56394-2.94657,3.66854,3.66854,0,0,0-3.578,2.94657Z"/><path d="M236.32157,117.817h-3.00269v-3.2272h3.00269v-3.73232l3.85861-.86994v4.60226h4.15327v3.2272h-4.1673v6.48245c0,1.37507.5332,1.88019,2.02051,1.88019a5.9141,5.9141,0,0,0,2.04858-.35078v3.157a11.9263,11.9263,0,0,1-2.97463.449c-3.25526,0-4.939-1.48732-4.939-4.34969Z"/><path d="M249.28649,129.21043l-4.01295-14.6206h3.64814l2.41339,9.47112,2.91851-9.47112h3.2272l2.89044,9.47112,2.41338-9.47112h3.592l-4.041,14.6206h-3.67619l-2.83433-9.34483-2.83432,9.34483Z"/><path d="M275.01986,114.30921a7.59376,7.59376,0,1,1-7.80139,7.605A7.62048,7.62048,0,0,1,275.01986,114.30921Zm4.041,7.605a4.04557,4.04557,0,1,0-4.041,4.23745A4.08744,4.08744,0,0,0,279.06088,121.91416Z"/><path d="M285.17852,114.58983h3.8586v1.59957a4.65136,4.65136,0,0,1,3.9007-1.93632,3.31131,3.31131,0,0,1,1.59956.35079v3.3675a4.91116,4.91116,0,0,0-1.96437-.39287,3.85857,3.85857,0,0,0-3.53589,2.18888v9.47112h-3.8586Z"/><path d="M296.6,109.56663l3.8586-.84187V120.7636l6.31408-6.17377h4.34971l-6.84727,6.707,7.26819,7.91364h-4.911l-6.17376-6.66486v6.66486H296.6Z"/><path class="b433b42a-e021-4e7e-9b5e-edcb17843d94" d="M76.91566,98.061a1.57153,1.57153,0,0,1-1.09795-.46654l-4.77063-4.7531a9.99028,9.99028,0,0,1,0-14.119l4.77063-4.7531a1.57854,1.57854,0,0,1,2.23237-.00212l.00212.00212,4.73556,4.7531a10.0008,10.0008,0,0,1,0,14.119l-4.7531,4.7531A1.575,1.575,0,0,1,76.91566,98.061Zm0-20.74175-3.6341,3.63411a6.83674,6.83674,0,0,0,0,9.657l3.6341,3.63761,3.63761-3.63761a6.83674,6.83674,0,0,0,0-9.657Z"/><path class="e96a5879-770d-45e7-8042-71df7d82922e" d="M104.55729,111.27845a1.57852,1.57852,0,0,0-2.031-.92256,18.2541,18.2541,0,0,1-12.02481-.03157.21322.21322,0,0,1-.0456,0,.73749.73749,0,0,1-.14733-.03156l-.15785-.02807H89.849l-.13681.02456a1.25365,1.25365,0,0,0-.16486.03858h-.04561a18.24374,18.24374,0,0,1-12.0213.03157l-.08769-.02455a.94777.94777,0,0,1-.16487-.0421.64889.64889,0,0,1-.14733-.021h-.31219a.35829.35829,0,0,0-.14733.021,1.13138,1.13138,0,0,1-.16487.0421l-.0877.02455a18.25416,18.25416,0,0,1-12.02481-.03157.21322.21322,0,0,1-.0456,0,.73683.73683,0,0,1-.14733-.03157l-.15785-.02806h-.30869a.25789.25789,0,0,0-.13329.02456,1.30439,1.30439,0,0,0-.16838.03858H63.3404a18.2541,18.2541,0,0,1-12.02481.03157,1.57852,1.57852,0,1,0-1.105,2.95008,19.67563,19.67563,0,0,0,6.89638,1.19967,22.92,22.92,0,0,0,6.742-1.05235,22.91642,22.91642,0,0,0,6.73852,1.05235,19.91735,19.91735,0,0,0,6.32811-1.01727,19.94882,19.94882,0,0,0,6.34214,1.00675,22.93751,22.93751,0,0,0,6.742-1.05235,22.899,22.899,0,0,0,6.73853,1.05235,19.67872,19.67872,0,0,0,6.89988-1.19968A1.57851,1.57851,0,0,0,104.55729,111.27845Z"/><path class="afde08c7-f637-4061-8c44-b462dbb61ea7" d="M98.131,118.56419a1.57852,1.57852,0,0,0-1.99945-.99271,18.26614,18.26614,0,0,1-12.02131.03157l-.09471-.02456-.15785-.04209a1.053,1.053,0,0,0-.15083-.02105,1.10738,1.10738,0,0,0-.15435,0,1.14215,1.14215,0,0,0-.15434,0l-.15084.02105a1.31342,1.31342,0,0,0-.15785.04209l-.09121.02456a18.27649,18.27649,0,0,1-12.02481-.03157h-.0456l-.15083-.03508a1.17518,1.17518,0,0,0-.15435-.02455.93612.93612,0,0,0-.14031,0,1.34756,1.34756,0,0,0-.16838,0,.28856.28856,0,0,0-.13329.021l-.17189.03859h-.04209a18.26611,18.26611,0,0,1-12.0213.03157,1.57852,1.57852,0,0,0-1.18879,2.92467q.038.01545.07681.02891a19.64391,19.64391,0,0,0,6.89637,1.19968,22.82209,22.82209,0,0,0,6.742-1.05235,22.801,22.801,0,0,0,6.73852,1.05235,19.81914,19.81914,0,0,0,6.34214-1.00675,19.83306,19.83306,0,0,0,6.34214,1.00675,22.801,22.801,0,0,0,7.24365-1.19266A1.57851,1.57851,0,0,0,98.131,118.56419Z"/><path d="M91.3293,126.25685a1.57852,1.57852,0,0,0-1.99946-.99272,18.28835,18.28835,0,0,1-12.0213.03157.43835.43835,0,0,0-.09121-.02455l-.16136-.04561-.14732-.01754H76.7508a1.10431,1.10431,0,0,0-.15435,0l-.14733.01754-.16487.04561a.41018.41018,0,0,0-.08769.02455,18.29874,18.29874,0,0,1-12.02481-.03157A1.57852,1.57852,0,0,0,63.165,128.2563a22.82868,22.82868,0,0,0,7.24365,1.19266,19.81924,19.81924,0,0,0,6.34215-1.00674,19.83333,19.83333,0,0,0,6.34214,1.00674,22.8007,22.8007,0,0,0,7.24365-1.19266A1.57852,1.57852,0,0,0,91.3293,126.25685Z"/><path class="b837b682-391e-48e6-aae3-3448897dfc8a" d="M73.07811,107.476H65.396A16.95682,16.95682,0,0,1,48.45671,90.5367a1.57852,1.57852,0,0,1,1.57852-1.57852h7.68213a16.96033,16.96033,0,0,1,16.93927,16.93927A1.57852,1.57852,0,0,1,73.07811,107.476ZM51.70495,92.11522a13.79977,13.79977,0,0,0,13.6805,12.20371h6.02293a13.80327,13.80327,0,0,0-13.6805-12.20371Z"/><path class="b837b682-391e-48e6-aae3-3448897dfc8a" d="M88.44587,107.476H80.75673a1.57852,1.57852,0,0,1-1.57852-1.57852A16.96031,16.96031,0,0,1,96.11747,88.95818h7.68213a1.582,1.582,0,0,1,1.57852,1.57852A16.9568,16.9568,0,0,1,88.44587,107.476Zm-6.01241-3.157h6.01241a13.79976,13.79976,0,0,0,13.6805-12.20371h-6.0089a13.80327,13.80327,0,0,0-13.691,12.20371Z"/><path class="a69483c0-6fff-4e35-b3fe-c92a64d68e5c" d="M95.11073,87.22532a1.582,1.582,0,0,1-1.54344-1.24878l-.656-3.08338-4.041.85591a1.57852,1.57852,0,0,1-.656-3.08688l5.57042-1.19266a1.57852,1.57852,0,0,1,1.87272,1.21506l.00046.00215.98219,4.62331a1.575,1.575,0,0,1-1.20324,1.87444l-.01047.00224A1.52966,1.52966,0,0,1,95.11073,87.22532Z"/><path class="a69483c0-6fff-4e35-b3fe-c92a64d68e5c" d="M58.72059,87.22532a1.50442,1.50442,0,0,1-.32973-.03508,1.57851,1.57851,0,0,1-1.21767-1.871l.00046-.00215,1.00323-4.7075a1.57851,1.57851,0,0,1,1.85564-1.21721l5.69319,1.21019a1.57852,1.57852,0,1,1-.64544,3.07636L60.934,82.809l-.67,3.157A1.582,1.582,0,0,1,58.72059,87.22532Z"/></g></svg>