<svg id="fcaa83c0-e04b-464c-a599-a83cfe0c8431" data-name="Layer 1" xmlns="http://www.w3.org/2000/svg" viewBox="0 0 360 203"><defs><style>.b5e3ac68-a5c0-4e3f-a362-8d980bc4556d{fill:#f0f0f0;}.a4ff693f-774f-4d38-af16-9a7b3dbc3d2f{fill:#378b8d;}</style></defs><rect class="b5e3ac68-a5c0-4e3f-a362-8d980bc4556d" x="0.12657" width="360" height="203"/><path d="M160.969,79.81974v6.56657h5.72511c2.30113,0,3.81652-1.31888,3.81652-3.28311,0-1.99269-1.51539-3.28346-3.81652-3.28346Zm-2.94656-2.58186h8.92389c3.90139,0,6.53892,2.35715,6.53892,5.80912a5.54851,5.54851,0,0,1-4.041,5.38816L173.822,96.882h-3.25527l-4.06906-8.054H160.969v8.054h-2.94656V77.23788Z"/><path d="M177.49823,88.54715h8.4749a4.26063,4.26063,0,0,0-8.4749,0Zm4.68645,8.58769a7.35048,7.35048,0,0,1-7.49306-7.40891,7.17745,7.17745,0,0,1,7.15631-7.35239c3.92876,0,6.90339,3.25536,6.90339,7.46475v.81391h-11.2815a4.81823,4.81823,0,0,0,4.82676,4.097,5.55624,5.55624,0,0,0,3.62042-1.26267l1.796,1.76794a8.52009,8.52009,0,0,1-5.52833,1.88034Z"/><path d="M198.43256,94.66494a5.14711,5.14711,0,0,0,3.95683-1.71174V86.47056a5.22224,5.22224,0,0,0-3.95683-1.68368,4.93975,4.93975,0,0,0,0,9.87806Zm3.98524.87012a6.74843,6.74843,0,0,1-4.37811,1.57168,7.36665,7.36665,0,1,1,4.3497-13.33008V77.23788l2.80625-.61731V96.882H202.4178v-1.347Z"/><polygon points="214.709 77.238 217.655 77.238 217.655 85.657 228.095 85.657 228.095 77.238 231.041 77.238 231.041 96.882 228.095 96.882 228.095 88.323 217.655 88.323 217.655 96.882 214.709 96.882 214.709 77.238 214.709 77.238"/><path d="M239.60034,95.05789a5.4901,5.4901,0,0,0,3.78811-1.347V91.24141a7.42009,7.42009,0,0,0-3.6762-.87011c-2.04858,0-3.31139.92627-3.31139,2.35749,0,1.375,1.29089,2.3291,3.19948,2.3291ZM233.70685,92.785c0-2.69426,2.18889-4.34984,5.78089-4.34984a10.08115,10.08115,0,0,1,3.90071.78582V87.70549c0-2.02074-1.20634-3.031-3.47978-3.031a10.153,10.153,0,0,0-4.43387,1.20683l-1.03832-2.1047a13.36948,13.36948,0,0,1,5.86542-1.45928c3.70427,0,5.837,1.82409,5.837,5.10755V96.882h-2.75047V95.64741a6.77481,6.77481,0,0,1-4.43354,1.48743c-3.11529,0-5.24806-1.76833-5.24806-4.34984Z"/><path d="M250.657,84.95508h-3.03112V82.59793H250.657V78.94966l2.77817-.6735v4.32177h4.20974v2.35715h-4.20974V92.7007c0,1.45933.58968,1.99234,2.1047,1.99234a5.51013,5.51013,0,0,0,2.04892-.33671v2.3575a9.29861,9.29861,0,0,1-2.66628.421c-2.7782,0-4.26551-1.31922-4.26551-3.78873v-8.391Z"/><path d="M166.18867,126.62835c-5.30383,0-8.6994-3.39557-8.6994-8.78358v-11.1412h4.06907v11.1412c0,3.05846,1.82407,5.02319,4.6584,5.02319,2.8066,0,4.6026-1.96473,4.6026-5.02319v-11.1412h4.06907v11.1412c0,5.35995-3.42363,8.78358-8.69974,8.78358Z"/><path d="M177.89076,111.72678h3.84457v1.15091a6.274,6.274,0,0,1,4.09678-1.43154,5.5472,5.5472,0,0,1,5.78125,5.80931v9.09227h-3.84458v-8.531a2.85087,2.85087,0,0,0-3.03111-3.05882,3.50184,3.50184,0,0,0-3.00234,1.4589v10.13095h-3.84457V111.72678Z"/><path d="M198.37607,126.34773h-3.84455V111.72678h3.84455v14.62095ZM194.25054,107.798a2.18905,2.18905,0,1,1,2.18923,2.18889,2.192,2.192,0,0,1-2.18923-2.18889Z"/><path d="M208.75888,123.26084a4.69013,4.69013,0,0,0,3.47977-1.40313V116.161a4.82518,4.82518,0,0,0-3.47977-1.37541,4.23771,4.23771,0,1,0,0,8.47524Zm3.53588,1.88019a6.63144,6.63144,0,0,1-4.15325,1.40313,7.50713,7.50713,0,0,1,.11189-15.01382,7.2679,7.2679,0,0,1,3.98525,1.15056v-5.97733l3.84491-.842v20.48618h-3.7888V125.141Z"/><path d="M230.28252,119.05145a4.04556,4.04556,0,1,0-4.04066,4.23745,4.09608,4.09608,0,0,0,4.04066-4.23745Zm-4.04066-7.6053a7.594,7.594,0,1,1-7.80209,7.6053,7.62056,7.62056,0,0,1,7.80209-7.6053Z"/><path d="M237.07332,122.05416a8.51457,8.51457,0,0,0,4.74257,1.65568c1.71216,0,2.83467-.61738,2.83467-1.54344,0-.75769-.56161-1.17864-1.82407-1.37506l-2.80661-.42094c-2.8901-.449-4.43388-1.88019-4.43388-4.23745,0-2.83432,2.35725-4.63033,6.08993-4.63033a10.785,10.785,0,0,1,6.00539,1.82372l-1.85248,2.46985a8.62623,8.62623,0,0,0-4.51773-1.40311c-1.40312,0-2.30148.56089-2.30148,1.43118,0,.7854.56161,1.17828,1.9928,1.37506l2.80624.42094c2.86239.42059,4.46161,1.90826,4.46161,4.18133,0,2.75013-2.72173,4.82676-6.39827,4.82676a10.77546,10.77546,0,0,1-6.707-2.02051l1.90827-2.55368Z"/><path d="M105.883,120.76748h10.319l-.00035-27.80026h-4.40943L105.883,120.76748Zm11.89747,3.157h-13.847a1.57891,1.57891,0,0,1-1.54392-1.90685l6.58024-30.95712a1.57867,1.57867,0,0,1,1.54427-1.25037h7.266a1.57849,1.57849,0,0,1,1.57852,1.57852l.00034,30.9573a1.57873,1.57873,0,0,1-1.57851,1.57852Z"/><path class="a4ff693f-774f-4d38-af16-9a7b3dbc3d2f" d="M114.58234,76.20608a3.36669,3.36669,0,1,0,3.3667,3.36667,3.37034,3.37034,0,0,0-3.3667-3.36667Zm0,9.89042a6.52373,6.52373,0,1,1,6.52373-6.52375,6.53085,6.53085,0,0,1-6.52373,6.52375Z"/><path d="M131.23285,110.03285h4.40943l5.9092-27.80043h-10.3193l.00067,27.80043Zm5.688,3.157h-7.26649a1.57834,1.57834,0,0,1-1.57852-1.57851l-.00066-30.95747a1.57885,1.57885,0,0,1,1.57852-1.57852h13.84712a1.5782,1.5782,0,0,1,1.54379,1.90667l-6.58,30.95765a1.57792,1.57792,0,0,1-1.54379,1.25018Z"/><path class="a4ff693f-774f-4d38-af16-9a7b3dbc3d2f" d="M132.85247,120.06066a3.36663,3.36663,0,1,0,3.36636,3.36681,3.37066,3.37066,0,0,0-3.36636-3.36681Zm0,9.8903a6.52367,6.52367,0,1,1,6.52347-6.52349,6.53083,6.53083,0,0,1-6.52347,6.52349Z"/></svg>