<svg id="a9ae9770-0095-451a-b94e-e209546caf45" data-name="Layer 1" xmlns="http://www.w3.org/2000/svg" viewBox="0 0 555 320"><defs><style>.e4083495-77d7-493e-adf5-4d458035fb79{fill:#a7c0e4;}.e4083495-77d7-493e-adf5-4d458035fb79,.f0536122-4556-4cf5-8cf1-b544920899f9{isolation:isolate;opacity:0.5;}.a2c67be6-ea3b-4cde-8a3c-181eb5af8c3c{fill:#fff;}.f0536122-4556-4cf5-8cf1-b544920899f9{fill:#6197d8;}.a63d0382-b2fd-4ed6-8551-7866b2fb64b9,.ac88d116-d166-460d-8fdd-e8b4792550aa,.eeb17920-1d90-494e-a40b-414e9803dfda,.f08fd4bc-ee9d-4862-84d9-fff7cb0dd9fd{fill:none;stroke:#6c97d3;stroke-linecap:round;stroke-linejoin:round;stroke-width:0.5px;}.a63d0382-b2fd-4ed6-8551-7866b2fb64b9{stroke-dasharray:2.00677 2.00677;}.eeb17920-1d90-494e-a40b-414e9803dfda{stroke-dasharray:2.00677 2.00677;}.f08fd4bc-ee9d-4862-84d9-fff7cb0dd9fd{stroke-dasharray:1.99249 1.99249;}.aa2d858e-4d3c-4bdb-8d1c-ed2060d423f8{fill:#ccbb56;}.b4d7acfd-95b2-49a6-bd4e-8b4f4c20fff7{fill:#0499c5;}</style></defs><rect class="e4083495-77d7-493e-adf5-4d458035fb79" x="60.31511" y="81.73966" width="434.36979" height="156.52097"/><rect class="a2c67be6-ea3b-4cde-8a3c-181eb5af8c3c" x="80.2223" y="102.51845" width="394.55362" height="114.83688"/><path class="f0536122-4556-4cf5-8cf1-b544920899f9" d="M198.84955,90.4001h11.99984a6.03276,6.03276,0,0,0-11.99984,0Zm6.6354,12.15873A10.40749,10.40749,0,0,1,194.87577,92.069a10.16269,10.16269,0,0,1,10.13238-10.41024c5.5631,0,9.77481,4.60917,9.77481,10.56911v1.15241H198.80982a6.82208,6.82208,0,0,0,6.83407,5.80121,7.8663,7.8663,0,0,0,5.12555-1.788l2.54339,2.50316a12.06456,12.06456,0,0,1-7.82788,2.66212Z"/><path class="f0536122-4556-4cf5-8cf1-b544920899f9" d="M64.28889,128.19031H76.28873a6.03276,6.03276,0,0,0-11.99984,0Zm6.6354,12.15873a10.40749,10.40749,0,0,1-10.60918-10.4898A10.16269,10.16269,0,0,1,70.44749,119.449c5.5631,0,9.77481,4.60917,9.77481,10.56911v1.15241H64.24916a6.82208,6.82208,0,0,0,6.83407,5.80121,7.8663,7.8663,0,0,0,5.12555-1.788l2.54339,2.50316a12.06456,12.06456,0,0,1-7.82788,2.66212Z"/><path class="f0536122-4556-4cf5-8cf1-b544920899f9" d="M199.0109,226.09663h11.99985a6.03277,6.03277,0,0,0-11.99985,0Zm6.63541,12.15873a10.40749,10.40749,0,0,1-10.60919-10.4898,10.16269,10.16269,0,0,1,10.13239-10.41023c5.5631,0,9.77481,4.60917,9.77481,10.56911v1.15241H198.97118a6.82207,6.82207,0,0,0,6.83407,5.8012,7.86624,7.86624,0,0,0,5.12555-1.788l2.54339,2.50316a12.06456,12.06456,0,0,1-7.82788,2.66212Z"/><line class="ac88d116-d166-460d-8fdd-e8b4792550aa" x1="195.04181" y1="81.82027" x2="195.04205" y2="82.82027"/><line class="a63d0382-b2fd-4ed6-8551-7866b2fb64b9" x1="195.04229" y1="84.82699" x2="195.05792" y2="236.33785"/><line class="ac88d116-d166-460d-8fdd-e8b4792550aa" x1="195.05816" y1="237.34127" x2="195.05816" y2="238.34127"/><line class="ac88d116-d166-460d-8fdd-e8b4792550aa" x1="214.9693" y1="81.82015" x2="214.9693" y2="82.82015"/><line class="eeb17920-1d90-494e-a40b-414e9803dfda" x1="214.96954" y1="84.82686" x2="214.98516" y2="236.33785"/><line class="ac88d116-d166-460d-8fdd-e8b4792550aa" x1="214.98541" y1="237.34127" x2="214.98541" y2="238.34127"/><line class="ac88d116-d166-460d-8fdd-e8b4792550aa" x1="60.315" y1="119.44906" x2="61.315" y2="119.44906"/><line class="f08fd4bc-ee9d-4862-84d9-fff7cb0dd9fd" x1="63.30767" y1="119.44906" x2="492.68853" y2="119.44906"/><line class="ac88d116-d166-460d-8fdd-e8b4792550aa" x1="493.68487" y1="119.44906" x2="494.68487" y2="119.44906"/><line class="ac88d116-d166-460d-8fdd-e8b4792550aa" x1="60.315" y1="140.34908" x2="61.315" y2="140.34908"/><line class="f08fd4bc-ee9d-4862-84d9-fff7cb0dd9fd" x1="63.30767" y1="140.34908" x2="492.68853" y2="140.34908"/><line class="ac88d116-d166-460d-8fdd-e8b4792550aa" x1="493.68487" y1="140.34908" x2="494.68487" y2="140.34908"/><path d="M170.12213,203.54464a8.90383,8.90383,0,0,1,9.09961-8.95118,9.37558,9.37558,0,0,1,6.99316,3.001l-1.73633,1.78516a6.89454,6.89454,0,0,0-5.25683-2.38086,6.54631,6.54631,0,0,0,.07519,13.0918,6.73675,6.73675,0,0,0,5.15723-2.33008l1.71094,1.73535a9.55427,9.55427,0,0,1-6.94336,3A8.91882,8.91882,0,0,1,170.12213,203.54464Z"/><path d="M188.42291,194.8669l2.47949-.5459v6.57032a5.08167,5.08167,0,0,1,3.79395-1.53711,4.7123,4.7123,0,0,1,4.93457,4.93457v7.93457h-2.4795v-7.5127a2.95687,2.95687,0,0,0-3.14941-3.19922,3.58089,3.58089,0,0,0-3.09961,1.63672v9.0752h-2.47949Z"/><path d="M201.83892,208.60323c0-2.38086,1.9336-3.84375,5.10743-3.84375a8.40468,8.40468,0,0,1,3.44726.71973v-1.33887c0-1.78516-1.0664-2.70313-3.07519-2.70313a8.9716,8.9716,0,0,0-3.918,1.06641l-.917-1.85937a11.89693,11.89693,0,0,1,5.18261-1.29c3.29785,0,5.15723,1.6123,5.15723,4.48828v8.38086h-2.42969v-1.09082a5.98972,5.98972,0,0,1-3.918,1.31445C203.7481,212.447,201.83892,210.88448,201.83892,208.60323Zm5.207,1.9834a4.78175,4.78175,0,0,0,3.34765-1.19043v-2.13184a6.24885,6.24885,0,0,0-3.249-.79394c-1.80957,0-2.92578.81836-2.92578,2.083C204.21881,209.76827,205.35943,210.58663,207.046,210.58663Z"/><path d="M215.67584,199.60225h2.45508v1.21485a5.75912,5.75912,0,0,1,3.86816-1.41309,6.50922,6.50922,0,1,1-3.84375,11.72852v6.14941h-2.47949Zm10.26562,6.32325a4.24188,4.24188,0,0,0-4.26464-4.36426,4.52853,4.52853,0,0,0-3.52149,1.51269v5.70313a4.62965,4.62965,0,0,0,3.52149,1.4873A4.20524,4.20524,0,0,0,225.94146,205.9255Z"/><path d="M232.36529,209.09932v-7.41406h-2.67773v-2.083h2.67773v-3.22363l2.45508-.59473v3.81836h3.71875v2.083h-3.71875V208.529c0,1.28906.52051,1.78516,1.85938,1.78516a4.85672,4.85672,0,0,0,1.80957-.29785v2.083a8.307,8.307,0,0,1-2.35547.34766C233.67975,212.447,232.36529,211.30636,232.36529,209.09932Z"/><path d="M239.80475,205.90011a6.363,6.363,0,0,1,6.32324-6.52051c3.4707,0,6.09961,2.90039,6.09961,6.64453v.69433h-9.94336a4.25413,4.25413,0,0,0,4.24023,3.62012,4.77942,4.77942,0,0,0,3.19824-1.11523l1.58692,1.56152a7.57376,7.57376,0,0,1-4.88477,1.66211A6.49487,6.49487,0,0,1,239.80475,205.90011Zm9.96777-1.041a3.88334,3.88334,0,0,0-3.69434-3.37207,3.83182,3.83182,0,0,0-3.76855,3.37207Z"/><path d="M254.585,199.60225h2.47949v1.61231a4.001,4.001,0,0,1,3.47168-1.91016,3.63582,3.63582,0,0,1,1.26465.22364v2.23144a4.246,4.246,0,0,0-1.46289-.27246,3.4557,3.4557,0,0,0-3.27344,2.28125v8.45508H254.585Z"/><path d="M268.96783,199.60225h2.47949v1.28907a5.08167,5.08167,0,0,1,3.79395-1.53711,4.7123,4.7123,0,0,1,4.93457,4.93457v7.93457h-2.47949v-7.5127a2.95688,2.95688,0,0,0-3.14942-3.19922,3.5809,3.5809,0,0,0-3.09961,1.63672v9.0752h-2.47949Z"/><path d="M282.38385,208.60323c0-2.38086,1.93359-3.84375,5.10742-3.84375a8.40468,8.40468,0,0,1,3.44726.71973v-1.33887c0-1.78516-1.0664-2.70313-3.07519-2.70313a8.9716,8.9716,0,0,0-3.918,1.06641l-.917-1.85937a11.89693,11.89693,0,0,1,5.18262-1.29c3.29785,0,5.15722,1.6123,5.15722,4.48828v8.38086h-2.42969v-1.09082a5.98971,5.98971,0,0,1-3.918,1.31445C284.293,212.447,282.38385,210.88448,282.38385,208.60323Zm5.207,1.9834a4.78172,4.78172,0,0,0,3.34765-1.19043v-2.13184a6.24885,6.24885,0,0,0-3.249-.79394c-1.80957,0-2.92578.81836-2.92578,2.083C284.76373,209.76827,285.90435,210.58663,287.59088,210.58663Z"/><path d="M296.22076,199.60225h2.47949v1.21485a4.77032,4.77032,0,0,1,3.5459-1.46289,4.39734,4.39734,0,0,1,3.89258,2.10742,5.0889,5.0889,0,0,1,4.26465-2.10742,4.61041,4.61041,0,0,1,4.73633,4.93457v7.93457h-2.4795v-7.5127c0-1.959-1.11621-3.19922-2.90136-3.19922a3.36679,3.36679,0,0,0-2.9502,1.71094,7.3824,7.3824,0,0,1,.09863,1.06641v7.93457h-2.4541v-7.5127c0-1.959-1.14062-3.19922-2.90136-3.19922a3.30652,3.30652,0,0,0-2.85157,1.53711v9.17481h-2.47949Z"/><path d="M317.42291,205.90011a6.363,6.363,0,0,1,6.32324-6.52051c3.4707,0,6.09961,2.90039,6.09961,6.64453v.69433H319.9024a4.25414,4.25414,0,0,0,4.24024,3.62012,4.77945,4.77945,0,0,0,3.19824-1.11523l1.58691,1.56152A7.57373,7.57373,0,0,1,324.043,212.447,6.49488,6.49488,0,0,1,317.42291,205.90011Zm9.96777-1.041a3.88333,3.88333,0,0,0-3.69433-3.37207,3.83183,3.83183,0,0,0-3.76856,3.37207Z"/><path d="M171.04876,111.84724h12.73449c5.56627,0,9.33053,3.36417,9.33053,8.28944a7.91839,7.91839,0,0,1-5.76649,7.68912l6.24724,12.05335h-4.64545l-5.80647-11.493h-7.889v11.493h-4.20486Zm4.20486,3.68431v9.37051h8.16916c3.28387,0,5.44635-1.882,5.44635-4.68508,0-2.84345-2.16248-4.68543-5.44635-4.68543Z"/><path d="M205.5269,140.23962a10.489,10.489,0,0,1-10.69246-10.57219,10.242,10.242,0,0,1,10.21172-10.49154c5.60659,0,9.85125,4.6451,9.85125,10.65214v1.16136H198.79892a6.87557,6.87557,0,0,0,6.88788,5.84644,7.928,7.928,0,0,0,5.16617-1.802l2.56293,2.5226A12.15646,12.15646,0,0,1,205.5269,140.23962Zm-6.68765-12.25392h12.09367c-.60067-3.12362-3.00334-5.44635-5.96671-5.44635A6.25942,6.25942,0,0,0,198.83925,127.9857Z"/><path d="M234.39828,137.95722a9.62792,9.62792,0,0,1-6.24689,2.24243,10.512,10.512,0,1,1,6.20692-19.02153v-9.33088l4.00445-.88084v28.91275h-3.96448Zm-5.68654-1.24166a7.3451,7.3451,0,0,0,5.64657-2.44265v-9.25058a7.45316,7.45316,0,0,0-5.64657-2.40268,7.049,7.049,0,0,0,0,14.09591Z"/><path d="M251.9362,111.84724h4.205V123.861H271.038V111.84724h4.205v28.03191h-4.205v-12.214h-14.8968v12.214h-4.205Z"/><path d="M279.04589,134.03271c0-3.84421,3.12362-6.20691,8.24947-6.20691a14.39662,14.39662,0,0,1,5.56626,1.121v-2.16248c0-2.88307-1.72205-4.325-4.96559-4.325a14.48811,14.48811,0,0,0-6.32719,1.722l-1.48186-3.00334a19.07385,19.07385,0,0,1,8.36939-2.08253c5.2861,0,8.32976,2.6029,8.32976,7.28833v13.49523h-3.92451v-1.76168a9.67022,9.67022,0,0,1-6.32718,2.12215C282.08921,140.23962,279.04589,137.717,279.04589,134.03271Zm8.40936,3.24389a7.83985,7.83985,0,0,0,5.40637-1.92228v-3.52406a10.58772,10.58772,0,0,0-5.24612-1.24131c-2.92339,0-4.7254,1.32126-4.7254,3.36346C282.8901,135.91467,284.73243,137.2766,287.45525,137.2766Z"/><path d="M303.23254,122.85985h-4.32495V119.496h4.32495v-5.20615l3.96484-.96079V119.496h6.00668v3.36381h-6.00668v11.05259c0,2.08253.84086,2.84309,3.00334,2.84309a7.86858,7.86858,0,0,0,2.9234-.48039v3.36416a13.27564,13.27564,0,0,1-3.80459.60032c-3.96449,0-6.087-1.88195-6.087-5.406Z"/><path d="M170.72844,153.89335H181.5005c8.36974,0,14.8172,6.127,14.8172,14.09591,0,7.849-6.44746,13.936-14.8172,13.936H170.72844Zm5.80646,5.16583v17.70027h4.92563a8.85014,8.85014,0,1,0,0-17.70027Z"/><path d="M199.51951,155.45516a3.12362,3.12362,0,1,1,3.12362,3.12362A3.12755,3.12755,0,0,1,199.51951,155.45516Zm5.88677,26.47011H199.92V161.06141h5.48632Z"/><path d="M207.52738,161.06141h5.96671l5.72652,13.896,5.68654-13.896h5.84679l-8.97041,20.86386h-5.28609Z"/><path d="M242.36617,182.32571a10.86182,10.86182,0,0,1-11.21283-10.81239,10.6503,10.6503,0,0,1,10.73244-10.81239c5.92674,0,10.33164,4.80571,10.33164,11.21284v1.44189H236.67963a6.01176,6.01176,0,0,0,5.92674,4.36493,6.568,6.568,0,0,0,4.60548-1.68209l3.604,3.28387A12.50786,12.50786,0,0,1,242.36617,182.32571Zm-5.72652-12.89456h10.21173a5.38283,5.38283,0,0,0-5.08588-4.205A5.2403,5.2403,0,0,0,236.63965,169.43115Z"/><path d="M255.57983,161.06141h5.48632v2.28275a6.63623,6.63623,0,0,1,5.56627-2.76315,4.7301,4.7301,0,0,1,2.28275.4804v4.8057a7.00376,7.00376,0,0,0-2.80347-.5607,5.52154,5.52154,0,0,0-5.04555,3.12362v13.49524h-5.48632Z"/><path d="M273.07883,175.79831a12.14893,12.14893,0,0,0,6.7676,2.3627c2.443,0,4.04479-.8812,4.04479-2.20246,0-1.08141-.8009-1.68208-2.60325-1.96225l-4.00446-.60067c-4.12473-.641-6.32719-2.6832-6.32719-6.047,0-4.04444,3.36382-6.60736,8.68989-6.60736a15.39079,15.39079,0,0,1,8.57,2.6029l-2.64322,3.52406a12.31694,12.31694,0,0,0-6.44711-2.00258c-2.00258,0-3.28387.80124-3.28387,2.04256,0,1.12139.8009,1.68173,2.8431,1.96225l4.00481.60067c4.08441.60067,6.36716,2.72317,6.36716,5.96671,0,3.92451-3.88454,6.88788-9.13031,6.88788a15.37484,15.37484,0,0,1-9.57108-2.88342Z"/><path d="M302.23037,182.32571a10.86182,10.86182,0,0,1-11.21283-10.81239A10.6503,10.6503,0,0,1,301.75,160.70093c5.92674,0,10.33164,4.80571,10.33164,11.21284v1.44189H296.54383a6.01176,6.01176,0,0,0,5.92674,4.36493,6.568,6.568,0,0,0,4.60548-1.68209l3.604,3.28387A12.50784,12.50784,0,0,1,302.23037,182.32571Zm-5.72651-12.89456h10.21172a5.38283,5.38283,0,0,0-5.08587-4.205A5.2403,5.2403,0,0,0,296.50386,169.43115Z"/><path d="M332.70318,153.89335h6.72763l11.37309,28.03192h-6.28721l-2.84345-7.36828H330.09993l-2.88307,7.36828h-6.047Zm7.208,16.01819-3.96448-10.33164-4.04444,10.33164Z"/><path d="M363.97724,182.20544a10.67449,10.67449,0,0,1-5.76685-1.68173v1.40156h-5.406V153.89335l5.48632-1.20133v10.01149a9.65674,9.65674,0,0,1,5.84644-1.92228,10.71242,10.71242,0,0,1-.15989,21.42421Zm-5.68655-14.77687v8.20949a7.02679,7.02679,0,0,0,4.9656,1.92228,6.047,6.047,0,1,0,0-12.09368A6.7278,6.7278,0,0,0,358.29069,167.42857Z"/><path d="M377.71127,155.45516a3.12362,3.12362,0,1,1,3.12361,3.12362A3.12755,3.12755,0,0,1,377.71127,155.45516Zm5.88676,26.47011h-5.48632V161.06141H383.598Z"/><path d="M393.36793,181.92527h-5.48632V153.89335l5.48632-1.20133Z"/><path d="M397.25141,155.45516a3.12362,3.12362,0,1,1,3.12362,3.12362A3.12755,3.12755,0,0,1,397.25141,155.45516Zm5.88677,26.47011h-5.48632V161.06141h5.48632Z"/><path d="M410.2652,165.66688h-4.28463v-4.60547h4.28463v-5.32607l5.48632-1.24132v6.56739h5.92674v4.60547h-5.92674v9.25023c0,1.96226.76092,2.6832,2.88342,2.6832a8.4478,8.4478,0,0,0,2.9234-.48039v4.48485a17.02067,17.02067,0,0,1-4.245.641c-4.6451,0-7.04813-2.1225-7.04813-6.20726Z"/><path d="M423.99993,155.45516a3.12362,3.12362,0,1,1,3.12362,3.12362A3.12755,3.12755,0,0,1,423.99993,155.45516Zm5.88677,26.47011h-5.48632V161.06141h5.48632Z"/><path d="M444.42232,182.32571a10.86182,10.86182,0,0,1-11.21283-10.81239,10.6503,10.6503,0,0,1,10.73244-10.81239c5.92674,0,10.33164,4.80571,10.33164,11.21284v1.44189H438.73578a6.01176,6.01176,0,0,0,5.92674,4.36493,6.568,6.568,0,0,0,4.60548-1.68209l3.604,3.28387A12.50786,12.50786,0,0,1,444.42232,182.32571Zm-5.72651-12.89456h10.21172a5.38283,5.38283,0,0,0-5.08588-4.205A5.24028,5.24028,0,0,0,438.69581,169.43115Z"/><path d="M458.797,175.79831a12.14893,12.14893,0,0,0,6.7676,2.3627c2.443,0,4.04479-.8812,4.04479-2.20246,0-1.08141-.80089-1.68208-2.60325-1.96225l-4.00446-.60067c-4.12473-.641-6.32719-2.6832-6.32719-6.047,0-4.04444,3.36382-6.60736,8.68989-6.60736a15.39079,15.39079,0,0,1,8.57,2.6029l-2.64322,3.52406a12.31694,12.31694,0,0,0-6.44711-2.00258c-2.00258,0-3.28387.80124-3.28387,2.04256,0,1.12139.8009,1.68173,2.8431,1.96225l4.00481.60067c4.08441.60067,6.36716,2.72317,6.36716,5.96671,0,3.92451-3.88454,6.88788-9.13031,6.88788a15.37479,15.37479,0,0,1-9.57107-2.88342Z"/><path class="aa2d858e-4d3c-4bdb-8d1c-ed2060d423f8" d="M147.27115,125.7068a2.14865,2.14865,0,0,1-1.52342-.63082c-.20285-.19812-5.2924-5.055-15.53481-5.055-10.24222,0-15.33178,4.8569-15.5434,5.06343a2.15448,2.15448,0,0,1-3.03806-3.05559c.25791-.25773,6.4564-6.31666,18.58146-6.31666,12.12524,0,18.32373,6.05893,18.58164,6.31666a2.15459,2.15459,0,0,1-1.52341,3.678Z"/><path class="b4d7acfd-95b2-49a6-bd4e-8b4f4c20fff7" d="M96.09,154.1346a2.136,2.136,0,0,1-1.51675-.62872c-.25791-.25773-6.317-6.45657-6.317-18.58146s6.05911-18.32338,6.317-18.58146a2.15456,2.15456,0,0,1,3.04683,3.04718c-.19812.20268-5.055,5.29206-5.055,15.53428s4.85707,15.332,5.06378,15.54375A2.15648,2.15648,0,0,1,96.09,154.1346Z"/><path class="aa2d858e-4d3c-4bdb-8d1c-ed2060d423f8" d="M107.46886,176.88112c-12.12523,0-18.32373-6.05893-18.58164-6.31666a2.15456,2.15456,0,0,1,3.04683-3.04718c.20285.19812,5.29241,5.055,15.53481,5.055,10.24223,0,15.33178-4.8569,15.5434-5.06343a2.15448,2.15448,0,0,1,3.03806,3.05559C125.79241,170.82219,119.59392,176.88112,107.46886,176.88112Z"/><path class="b4d7acfd-95b2-49a6-bd4e-8b4f4c20fff7" d="M141.58513,176.88112a2.15459,2.15459,0,0,1-1.52341-3.678c.19812-.20268,5.055-5.29206,5.055-15.53428,0-10.24258-4.85689-15.332-5.06378-15.54376a2.15447,2.15447,0,0,1,3.05559-3.038c.25791.25808,6.317,6.45657,6.317,18.58181,0,12.12488-6.05911,18.32338-6.317,18.58146A2.14863,2.14863,0,0,1,141.58513,176.88112Z"/><path d="M155.02672,152.47181a2.15453,2.15453,0,0,1-2.15442-2.15442c-.00087-.06-.16849-7.31743-7.41035-14.55911a26.48044,26.48044,0,0,0-10.02289-6.451,16.24086,16.24086,0,0,0-4.54868-.95939,2.15446,2.15446,0,0,1,.01245-4.30882c.36486,0,9.0323.09853,17.606,8.67235,8.57382,8.57347,8.67235,17.24126,8.67235,17.60594A2.15452,2.15452,0,0,1,155.02672,152.47181Z"/><path d="M98.73777,136.3891a2.15452,2.15452,0,0,1-2.15441-2.15441c0-.36468.09853-9.03213,8.67218-17.60594,8.57382-8.57382,17.24109-8.67236,17.60594-8.67236a2.15442,2.15442,0,0,1,0,4.30883c-.06014.0007-7.31725.16831-14.55912,7.41035-7.32549,7.32549-7.41018,14.48759-7.41018,14.55912A2.15452,2.15452,0,0,1,98.73777,136.3891Z"/><path d="M106.779,168.55416c-.36485,0-9.03212-.09853-17.60594-8.672-8.57382-8.57382-8.67236-17.24161-8.67236-17.60629a2.15442,2.15442,0,1,1,4.30883,0c.00088.06.16849,7.31743,7.41035,14.55911a26.48046,26.48046,0,0,0,10.0229,6.451,16.24083,16.24083,0,0,0,4.54867.95939,2.15446,2.15446,0,0,1-.01245,4.30882Z"/><path d="M114.8203,184.63687a2.15442,2.15442,0,0,1,0-4.30883c.06014-.0007,7.31726-.16831,14.55912-7.41035,7.32567-7.32549,7.41035-14.48759,7.41035-14.55912a2.15442,2.15442,0,0,1,4.30883,0c0,.36468-.09853,9.03213-8.67235,17.60594S115.18516,184.63687,114.8203,184.63687Z"/></svg>