<svg id="f31f5d47-4a57-4fd9-9277-ed93fe83a77f" data-name="Layer 1" xmlns="http://www.w3.org/2000/svg" viewBox="0 0 555 200"><defs><style>.bec8e80c-f77b-4146-8a66-ffe5ca92f965{fill:#fff;}.b308808b-900e-407b-a2ac-eba5ea13888f{fill:#e00;}.fcff78e3-456d-4bc1-adee-0929668ad586{fill:#faaa4f;}.ae67af10-91c8-49ed-8d7e-025c9898bbcd{fill:#689b7a;}</style></defs><rect width="555" height="200" rx="3"/><path class="bec8e80c-f77b-4146-8a66-ffe5ca92f965" d="M239.163,67.81937h11.77619c5.14787,0,8.6286,3.11073,8.6286,7.66552a7.32163,7.32163,0,0,1-5.33276,7.1102L260.01219,93.742h-4.29577l-5.36937-10.62845h-7.29553V93.742H239.163Zm3.88848,3.407v8.66545h7.55455c3.03683,0,5.03622-1.74037,5.03622-4.33284,0-2.62909-1.99939-4.33261-5.03622-4.33261Z"/><path class="bec8e80c-f77b-4146-8a66-ffe5ca92f965" d="M271.04748,94.07518a9.69971,9.69971,0,0,1-9.888-9.77634,9.47178,9.47178,0,0,1,9.44364-9.70266c5.18448,0,9.10958,4.29576,9.10958,9.85048v1.074H264.826a6.35809,6.35809,0,0,0,6.36929,5.40689,7.331,7.331,0,0,0,4.7772-1.66668l2.37006,2.333A11.24,11.24,0,0,1,271.04748,94.07518Zm-6.18441-11.33182h11.18356a5.62237,5.62237,0,0,0-11.18356,0Z"/><path class="bec8e80c-f77b-4146-8a66-ffe5ca92f965" d="M297.747,91.96459a8.90387,8.90387,0,0,1-5.77711,2.07352,9.721,9.721,0,1,1,5.74-17.59036V67.81937l3.70314-.81459V93.742H297.747Zm-5.25862-1.14819a6.79317,6.79317,0,0,0,5.22156-2.25886V80.00307a6.8926,6.8926,0,0,0-5.22156-2.22225,6.51875,6.51875,0,0,0,0,13.03558Z"/><path class="bec8e80c-f77b-4146-8a66-ffe5ca92f965" d="M313.96629,67.81937h3.88848V78.929h13.77557V67.81937h3.88848V93.742h-3.88848V82.44727H317.85477V93.742h-3.88848Z"/><path class="bec8e80c-f77b-4146-8a66-ffe5ca92f965" d="M339.03617,88.33513c0-3.55487,2.88856-5.74,7.62869-5.74a13.30412,13.30412,0,0,1,5.14742,1.037V81.63223c0-2.66615-1.5921-3.99923-4.59186-3.99923a13.40281,13.40281,0,0,0-5.85125,1.5921L339.999,76.44775a17.6431,17.6431,0,0,1,7.73988-1.92571c4.8884,0,7.70283,2.40714,7.70283,6.74v12.48h-3.62946V92.11241a8.94148,8.94148,0,0,1-5.8508,1.96277C341.8506,94.07518,339.03617,91.74219,339.03617,88.33513Zm7.777,2.99976a7.24844,7.24844,0,0,0,4.99915-1.77743V86.29823a9.79225,9.79225,0,0,0-4.85133-1.14774c-2.70322,0-4.36945,1.22187-4.36945,3.11051C342.5915,90.0755,344.29479,91.33489,346.81313,91.33489Z"/><path class="bec8e80c-f77b-4146-8a66-ffe5ca92f965" d="M361.40374,78.00323h-3.99968V74.89272h3.99968V70.07845l3.66607-.88871v5.703H370.625v3.11051h-5.55516v10.2207c0,1.92571.778,2.62954,2.77735,2.62954a7.27974,7.27974,0,0,0,2.70368-.44436v3.11051a12.25484,12.25484,0,0,1-3.51826.55556c-3.66607,0-5.62884-1.74037-5.62884-4.99915Z"/><path class="bec8e80c-f77b-4146-8a66-ffe5ca92f965" d="M251.05043,106.70211c5.22155,0,8.77687,2.88856,8.77687,7.11019a6.39374,6.39374,0,0,1-3.18509,5.444,6.53365,6.53365,0,0,1,4.07381,5.85125c0,4.51773-3.62945,7.51749-9.073,7.51749H238.867V106.70211Zm-6.81365,4.444v6.14734h6.48049c2.29593,0,3.77728-1.1848,3.77728-3.07344s-1.48135-3.0739-3.77728-3.0739ZM255.30913,124.811c0-1.99984-1.5921-3.33291-4.07336-3.33291h-6.999v6.7029h6.999C253.717,128.181,255.30913,126.885,255.30913,124.811Z"/><path class="bec8e80c-f77b-4146-8a66-ffe5ca92f965" d="M268.67741,129.99591a3.01812,3.01812,0,1,1-3.03683-3.03682A3.04281,3.04281,0,0,1,268.67741,129.99591Z"/><path class="bec8e80c-f77b-4146-8a66-ffe5ca92f965" d="M282.60126,132.99522c-6.999,0-11.47965-4.48111-11.47965-11.5913V106.70211H276.491v14.70181c0,4.03675,2.40714,6.62877,6.14734,6.62877,3.7036,0,6.07366-2.592,6.07366-6.62877V106.70211h5.36937v14.70181C294.08135,128.4775,289.56363,132.99522,282.60126,132.99522Z"/><path class="bec8e80c-f77b-4146-8a66-ffe5ca92f965" d="M302.59785,129.99591a3.01813,3.01813,0,1,1-3.03637-3.03682A3.04271,3.04271,0,0,1,302.59785,129.99591Z"/><path class="bec8e80c-f77b-4146-8a66-ffe5ca92f965" d="M306.37513,106.70211H311.745V132.625h-5.36982Z"/><path class="bec8e80c-f77b-4146-8a66-ffe5ca92f965" d="M321.59453,129.99591a3.01813,3.01813,0,1,1-3.03683-3.03682A3.04281,3.04281,0,0,1,321.59453,129.99591Z"/><path class="bec8e80c-f77b-4146-8a66-ffe5ca92f965" d="M325.3718,106.70211h5.36983v21.18276h14.18331V132.625H325.3718Z"/><path class="bec8e80c-f77b-4146-8a66-ffe5ca92f965" d="M353.7746,129.99591a3.01813,3.01813,0,1,1-3.03683-3.03682A3.04281,3.04281,0,0,1,353.7746,129.99591Z"/><path class="bec8e80c-f77b-4146-8a66-ffe5ca92f965" d="M357.55142,106.70211h9.96168c7.73944,0,13.70189,5.66592,13.70189,13.03558,0,7.25846-5.96245,12.88731-13.70189,12.88731h-9.96168Zm5.36983,4.7772V127.8478H367.476a8.18425,8.18425,0,1,0,0-16.36849Z"/><path class="bec8e80c-f77b-4146-8a66-ffe5ca92f965" d="M388.47255,129.99591a3.01812,3.01812,0,1,1-3.03637-3.03682A3.04271,3.04271,0,0,1,388.47255,129.99591Z"/><path class="b308808b-900e-407b-a2ac-eba5ea13888f" d="M166.31577,90.67462a2.083,2.083,0,0,1-1.473-3.556L177.91973,74.0419a2.08311,2.08311,0,1,1,2.946,2.946L167.78875,90.06458A2.07744,2.07744,0,0,1,166.31577,90.67462Z"/><path class="b308808b-900e-407b-a2ac-eba5ea13888f" d="M178.31549,93.44225a2.083,2.083,0,0,1-1.473-3.556l13.25233-13.2521a2.08311,2.08311,0,0,1,2.946,2.946L179.78847,92.83222A2.07748,2.07748,0,0,1,178.31549,93.44225Z"/><path class="fcff78e3-456d-4bc1-adee-0929668ad586" d="M187.29556,99.31068a2.083,2.083,0,0,1-1.473-3.556L197.05676,84.5205a2.08311,2.08311,0,0,1,2.946,2.946L188.76854,98.70065A2.07708,2.07708,0,0,1,187.29556,99.31068Z"/><path class="ae67af10-91c8-49ed-8d7e-025c9898bbcd" d="M190.70442,110.72365a2.083,2.083,0,0,1-1.473-3.556L203.745,92.65412a2.08311,2.08311,0,1,1,2.946,2.946L192.1774,110.11362A2.07708,2.07708,0,0,1,190.70442,110.72365Z"/><path class="ae67af10-91c8-49ed-8d7e-025c9898bbcd" d="M192.23775,124.00288a2.083,2.083,0,0,1-1.473-3.556l8.53187-8.53187a2.08311,2.08311,0,1,1,2.946,2.946l-8.53186,8.53187A2.07712,2.07712,0,0,1,192.23775,124.00288Z"/><path class="bec8e80c-f77b-4146-8a66-ffe5ca92f965" d="M195.64187,135.41133h-7.40628a2.083,2.083,0,0,1-2.083-2.083v-4.075l-4.32741-4.32718a2.08378,2.08378,0,0,1-.61-1.473V104.56591l-3.71738-3.71738h-11.481a2.08376,2.08376,0,0,1-1.473-.61l-7.40628-7.40628a2.08376,2.08376,0,0,1-.61-1.473V81.48435a2.08379,2.08379,0,0,1,.61-1.473L171.95,65.1988a2.08338,2.08338,0,0,1,1.90672-.56437l22.97511,4.89178h6.21628A2.0828,2.0828,0,0,1,205.086,71.178l2.52263,11.92084,6.1774,6.1774h9.01239a2.08314,2.08314,0,0,1,1.473,3.556l-14.20253,14.2023v13.94984a2.08375,2.08375,0,0,1-.61,1.473l-12.344,12.34395A2.08377,2.08377,0,0,1,195.64187,135.41133Zm-5.32327-4.166h4.46054l11.12366-11.12366V106.1718a2.08383,2.08383,0,0,1,.61-1.473l11.25679-11.25656h-4.84636a2.08376,2.08376,0,0,1-1.473-.61l-7.22456-7.22456a2.08192,2.08192,0,0,1-.56483-1.04173l-2.30113-10.87368h-4.74713a2.08768,2.08768,0,0,1-.43374-.04566l-22.083-4.70193L160.69348,82.34707v8.14944l6.186,6.186H178.3607a2.0838,2.0838,0,0,1,1.473.61l4.93744,4.93768a2.08376,2.08376,0,0,1,.61,1.473v18.88728l4.32741,4.32719a2.08379,2.08379,0,0,1,.61,1.473Zm17.66722-10.26093h0Z"/><path class="bec8e80c-f77b-4146-8a66-ffe5ca92f965" d="M211.43807,128.94032a2.083,2.083,0,0,1-1.473-3.556l4.93767-4.93744a2.08312,2.08312,0,1,1,2.946,2.946l-4.93767,4.93744A2.07747,2.07747,0,0,1,211.43807,128.94032Z"/></svg>