<?xml version="1.0" encoding="UTF-8"?><svg id="a" xmlns="http://www.w3.org/2000/svg" width="360" height="203" viewBox="0 0 360 203"><defs><style>.b{fill:#f0f0f0;}.c{fill:#81c39a;}</style></defs><rect class="b" x=".12657" width="359.999986" height="203"/><path d="m96.387425,61.336591h8.885616c3.924607,0,6.559242,2.354756,6.559242,5.802363,0,2.550826-1.569502,4.541159-4.036477,5.353816l4.372838,8.465414h-3.251574l-4.064192-8.044895h-5.522133v8.044895h-2.943281v-19.621593h-.000037Zm8.661484,9.110066c2.298627,0,3.840098-1.28927,3.840098-3.279638,0-1.961952-1.541434-3.251573-3.840098-3.251573h-5.718203v6.531175h5.718203v.000036Z"/><path d="m113.037007,73.81042c0-4.12064,3.139666-7.372213,7.148113-7.372213,3.924254,0,6.895245,3.279638,6.895245,7.512152v.784907h-11.240026c.392449,2.354756,2.326337,4.092611,4.793002,4.092611,1.401495,0,2.719149-.448583,3.615966-1.261556l1.793944,1.765884c-1.681725,1.289621-3.391508,1.878142-5.521818,1.878142-4.204837,0-7.484436-3.223508-7.484436-7.399928h.000011Zm11.268404-1.177396c-.392449-2.186402-2.102242-3.81203-4.176416-3.81203-2.158367,0-3.868471,1.541434-4.260609,3.81203h8.437036-.000011Z"/><path d="m129.126128,73.81042c0-4.12064,3.167381-7.344147,7.259989-7.344147,1.569496,0,3.055152.504678,4.288645,1.42956v-6.559242l2.802989-.532393v20.154021h-2.774921v-1.373429c-1.1774,1.037106-2.691113,1.597564-4.372838,1.597564-4.036483,0-7.203853-3.223508-7.203853-7.371863l-.000011-.000071Zm11.548634,3.195442v-6.41895c-.925195-1.065136-2.382825-1.710139-3.98039-1.710139-2.719149,0-4.821391,2.102592-4.821391,4.905582s2.102242,4.961361,4.821391,4.961361c1.625589,0,3.055152-.616588,3.98039-1.737853Z"/><path d="m152.979254,61.336591h2.943276v8.409319h10.42737v-8.409319h2.943276v19.621625h-2.943276v-8.549257h-10.42737v8.549257h-2.943276v-19.621625Z"/><path d="m171.955568,76.865608c0-2.690764,2.186403-4.344773,5.774333-4.344773,1.373427,0,2.718828.280229,3.896186.812972v-1.51372c0-2.018082-1.205425-3.055153-3.476022-3.055153-1.317334,0-2.662703.364389-4.428579,1.20511l-1.037103-2.102242c2.158367-1.009041,3.98039-1.457625,5.858141-1.457625,3.728184,0,5.830426,1.822014,5.830426,5.073587v9.474455h-2.746864v-1.233491c-1.261551,1.00904-2.691113,1.485656-4.428932,1.485656-3.08322,0-5.241587-1.765884-5.241587-4.344776Zm5.886209,2.242531c1.513724,0,2.747206-.420518,3.78432-1.345364v-2.410887c-1.065139-.616588-2.242528-.896817-3.672091-.896817-2.046117,0-3.307667.924846-3.307667,2.354406,0,1.373429,1.289619,2.298627,3.195438,2.298627v.000035Z"/><path d="m189.025668,77.426381v-8.381255h-3.027437v-2.354406h3.027437v-3.644026l2.774921-.672683v4.316709h4.204837v2.354406h-4.204837v7.736286c0,1.457625.588871,2.018398,2.102242,2.018398.784908,0,1.345712-.08416,2.046459-.336358v2.354406c-.756873.252165-1.85008.392454-2.663045.392454-2.774921,0-4.260609-1.289271-4.260609-3.783966l.000032.000035Z"/><path d="m96.163287,90.767982h5.213525l5.381879,10.567654,5.381879-10.567656h5.213878v19.621627h-3.840413v-14.435817l-6.811404,13.034322-6.783374-13.090415v14.49191h-3.755899v-19.621627l-.00007.000003Z"/><path d="m119.960319,103.101522c0-4.232549,3.307667-7.568282,7.512152-7.568282,4.148359,0,7.231921,3.363798,7.231921,7.848513v1.00904h-10.819851c.504678,1.793949,2.074174,3.055505,4.092608,3.055505,1.289266,0,2.466634-.420517,3.223506-1.177395l2.522759,2.298627c-1.793944,1.457625-3.587898,2.102242-5.942655,2.102242-4.400864,0-7.82045-3.307667-7.82045-7.568282l.000011.000032Zm10.959795-1.457625c-.420164-1.737853-1.822012-2.943278-3.531805-2.943278-1.765886,0-3.139345,1.149329-3.559862,2.943278h7.091667Z"/><path d="m137.058487,95.785437h3.840093v1.177395c1.093196-.952913,2.494691-1.457625,4.092608-1.457625,3.391508,0,5.774333,2.38282,5.774333,5.830429v9.053938h-3.840093v-8.493477c0-1.877792-1.1774-3.083217-3.027437-3.083217-1.289266,0-2.32669.532743-2.999369,1.457625v10.119106h-3.840093v-14.604134l-.000043-.00004Z"/><path d="m155.249497,106.268935v-7.287704h-2.999369v-3.195794h2.999369v-3.727837l3.840093-.869102v4.596938h4.176769v3.195794h-4.176769v6.502796c0,1.37378.532746,1.878142,2.018402,1.878142.728815,0,1.289266-.084161,2.046117-.336361v3.167729c-.812976.252163-2.13031.420169-2.971344.420169-3.251574,0-4.933299-1.48534-4.933299-4.344776l.000032.000005Z"/><path d="m164.471121,106.157021c0-2.775274,2.214471-4.428932,5.942655-4.428932,1.261208,0,2.466634.196069,3.587898.588524v-1.065136c0-1.681723-1.037103-2.550824-3.083573-2.550824-1.23314,0-2.60661.364389-4.456647,1.205425l-1.401495-2.831055c2.298311-1.065136,4.372838-1.569849,6.503106-1.569849,3.952322,0,6.222565,1.962303,6.222565,5.409909v9.474458h-3.783967v-1.037108c-1.205425.896817-2.578895,1.289271-4.204484,1.289271-3.167723,0-5.326101-1.822012-5.326101-4.484715l.000043.000032Zm6.307079,1.737856c1.261208,0,2.354405-.308293,3.223506-.953263v-2.130305c-.95291-.392454-1.962298-.560456-3.083573-.560456-1.765886,0-2.802989.700747-2.802989,1.822012s1.037103,1.822012,2.663045,1.822012h.000011Z"/><path d="m180.70054,90.767982l3.840093-.644617v20.266246h-3.840093v-19.621629Z"/><path d="m193.425205,90.767982h4.06454v7.904606h9.025875v-7.904606h4.06454v19.621624h-4.06454v-8.044898h-9.025875v8.044898h-4.06454s0-19.621627,0-19.621624Z"/><path d="m213.214122,103.101522c0-4.232549,3.307678-7.568282,7.512162-7.568282,4.148712,0,7.231932,3.363798,7.231932,7.848513v1.00904h-10.819862c.504689,1.793949,2.074527,3.055505,4.092619,3.055505,1.289266,0,2.466623-.420517,3.223506-1.177395l2.522759,2.298627c-1.793954,1.457625-3.587887,2.102242-5.942345,2.102242-4.400864,0-7.820792-3.307667-7.820792-7.568282l.000021.000032Zm10.960105-1.457625c-.420517-1.737853-1.822012-2.943278-3.531794-2.943278-1.765876,0-3.139655,1.149329-3.559873,2.943278h7.091667Z"/><path d="m229.55577,106.157021c0-2.775274,2.214471-4.428932,5.942645-4.428932,1.261208,0,2.466623.196069,3.587887.588524v-1.065136c0-1.681723-1.037114-2.550824-3.083562-2.550824-1.23313,0-2.60661.364389-4.456657,1.205425l-1.401495-2.831055c2.298301-1.065136,4.372849-1.569849,6.503106-1.569849,3.952311,0,6.222576,1.962303,6.222576,5.409909v9.474458h-3.783967v-1.037108c-1.205436.896817-2.578895,1.289271-4.204484,1.289271-3.167734,0-5.326091-1.822012-5.326091-4.484715l.000043.000032Zm6.307068,1.737856c1.261208,0,2.354415-.308293,3.223506-.953263v-2.130305c-.952921-.392454-1.962298-.560456-3.083562-.560456-1.765876,0-2.802989.700747-2.802989,1.822012s1.037114,1.822012,2.663045,1.822012Z"/><path d="m245.785188,90.767982l3.840103-.644617v20.266246h-3.840103v-19.621629Z"/><path d="m254.614331,106.268935v-7.287704h-2.999369v-3.195794h2.999369v-3.727837l3.840103-.869102v4.596938h4.176769v3.195794h-4.176769v6.502796c0,1.37378.532746,1.878142,2.018391,1.878142.728805,0,1.289266-.084161,2.046106-.336361v3.167729c-.812976.252163-2.130299.420169-2.971354.420169-3.251564,0-4.933289-1.48534-4.933289-4.344776l.000043.000005Z"/><path d="m264.508624,90.767982l3.840103-.840686v7.035539c1.093207-.952913,2.494702-1.457625,4.092619-1.457625,3.391508,0,5.774323,2.38282,5.774323,5.830426v9.053938h-3.840103v-8.493477c0-1.877792-1.1774-3.083217-3.027448-3.083217-1.289266,0-2.3267.532743-2.999369,1.457625v10.119106h-3.840103v-19.621627l-.000021-.000003Z"/><path d="m286.0908,106.157021c0-2.775274,2.214471-4.428932,5.942645-4.428932,1.261208,0,2.466623.196069,3.587887.588524v-1.065136c0-1.681723-1.037114-2.550824-3.083562-2.550824-1.23313,0-2.60661.364389-4.456657,1.205425l-1.401495-2.831055c2.298301-1.065136,4.372849-1.569849,6.503106-1.569849,3.952311,0,6.222576,1.962303,6.222576,5.409909v9.474458h-3.783967v-1.037108c-1.205436.896817-2.578895,1.289271-4.204484,1.289271-3.167734,0-5.326091-1.822012-5.326091-4.484715l.000043.000032Zm6.307068,1.737856c1.261208,0,2.354415-.308293,3.223506-.953263v-2.130305c-.952921-.392454-1.962298-.560456-3.083562-.560456-1.765876,0-2.802989.700747-2.802989,1.822012s1.037114,1.822012,2.663045,1.822012Z"/><path d="m302.320219,95.785437h3.840103v1.177395c1.093207-.952913,2.494702-1.457625,4.092255-1.457625,3.391871,0,5.774323,2.38282,5.774323,5.830429v9.053938h-3.840103v-8.493477c0-1.877792-1.1774-3.083217-3.027448-3.083217-1.289266,0-2.326337.532743-2.999048,1.457625v10.119106h-3.840103v-14.604134l.000021-.00004Z"/><path d="m318.269086,103.073491c0-4.204484,3.307357-7.484121,7.54022-7.484121,1.429552,0,2.802989.392454,3.98039,1.149329v-5.970718l3.840103-.644617v20.266246h-3.784309v-1.205425c-1.177037.925195-2.60661,1.401495-4.148348,1.401495-4.148348,0-7.42799-3.307667-7.42799-7.512152l-.000064-.000037Zm11.520609,2.831052v-5.69014c-.841034-.868751-2.102584-1.373429-3.476022-1.373429-2.41053,0-4.26062,1.822014-4.26062,4.232549,0,2.38282,1.850069,4.232547,4.26062,4.232547,1.401495,0,2.606931-.4763,3.476022-1.401495v-.000032Z"/><path d="m96.163287,120.199684h3.868123l9.754685,12.669583v-12.669583h3.81203v19.621279h-3.587898l-10.006848-13.11813v13.11813h-3.840098v-19.621279h.000005Z"/><path d="m116.232445,132.532911c0-4.232547,3.307667-7.568282,7.512152-7.568282,4.148359,0,7.231921,3.363798,7.231921,7.84886v1.00904h-10.819851c.504678,1.793949,2.074174,3.055152,4.092608,3.055152,1.289266,0,2.466634-.420517,3.223506-1.177395l2.522759,2.298627c-1.793944,1.457625-3.587898,2.102242-5.942655,2.102242-4.400864,0-7.82045-3.307667-7.82045-7.568282l.000011.000037Zm10.959795-1.457625c-.420164-1.737856-1.822012-2.942928-3.531805-2.942928-1.765886,0-3.139345,1.148979-3.559862,2.942928h7.091667Z"/><path d="m133.218394,134.270762v-9.053585h3.840413v8.493129c0,1.878142,1.205115,3.08322,3.027084,3.08322,1.317654,0,2.32669-.532393,3.027437-1.457625v-10.118756h3.840093v14.603818h-3.840093v-1.177395c-1.093196.953263-2.494691,1.457625-4.120644,1.457625-3.391508,0-5.774333-2.382473-5.774333-5.830426l.000043-.000005Z"/><path d="m149.95217,125.217176h3.840093v1.625595c.924842-1.261203,2.270596-1.96195,3.896186-1.96195.784908.028063,1.205425.111876,1.597874.336361v3.363445c-.560803-.252163-1.261551-.392454-1.962298-.392454-1.513724,0-2.802989.784908-3.531805,2.158373v9.474455h-3.840093v-14.603818l.000043-.000005Z"/><path d="m160.126704,132.532911c0-4.260615,3.419576-7.596345,7.792382-7.596345s7.792382,3.33573,7.792382,7.596345-3.419576,7.568282-7.792382,7.568282-7.792382-3.307667-7.792382-7.568282Zm11.856922,0c0-2.382473-1.793944-4.260615-4.06454-4.260615-2.242528,0-4.036483,1.878142-4.036483,4.260615s1.766229,4.2329,4.036483,4.2329,4.06454-1.85008,4.06454-4.2329Z"/><path d="m177.392872,132.504881c0-4.204484,3.307667-7.484121,7.54022-7.484121,1.429563,0,2.803342.392454,3.98039,1.149332v-5.970365l3.840413-.64497v20.266243h-3.78432v-1.205425c-1.1774.925195-2.60692,1.401495-4.148359,1.401495-4.148701,0-7.428343-3.307352-7.428343-7.512152v-.000037Zm11.520598,2.831052v-5.69014c-.840692-.868754-2.102242-1.373432-3.475669-1.373432-2.410541,0-4.260609,1.822012-4.260609,4.232547,0,2.38282,1.85008,4.2329,4.260609,4.2329,1.401495,0,2.60692-.476647,3.475669-1.401848v-.000027Z"/><path d="m195.500043,121.292923c0-1.205425.980978-2.186403,2.186403-2.186403s2.186403.980978,2.186403,2.186403c0,1.177047-.981331,2.186403-2.186403,2.186403s-2.186403-1.009393-2.186403-2.186403Zm.280231,3.924254h3.840093v14.603818h-3.840093v-14.603818Z"/><path d="m201.105711,125.217176h4.176416l4.008425,9.726617,3.98039-9.726617h4.092255l-6.278669,14.603818h-3.728195l-6.250601-14.603818h-.000021Z"/><path d="m217.783009,132.532911c0-4.232547,3.307678-7.568282,7.512162-7.568282,4.148712,0,7.231932,3.363798,7.231932,7.84886v1.00904h-10.819862c.504689,1.793949,2.074527,3.055152,4.092619,3.055152,1.289266,0,2.466623-.420517,3.223506-1.177395l2.522759,2.298627c-1.793954,1.457625-3.587887,2.102242-5.942345,2.102242-4.400864,0-7.820792-3.307667-7.820792-7.568282l.000021.000037Zm10.960105-1.457625c-.420517-1.737856-1.822012-2.942928-3.531794-2.942928-1.765876,0-3.139655,1.148979-3.559873,2.942928h7.091667Z"/><path d="m234.881518,125.217176h3.840103v1.625595c.924842-1.261203,2.270607-1.96195,3.896196-1.96195.784898.028063,1.205436.111876,1.597874.336361v3.363445c-.560803-.252163-1.261551-.392454-1.962298-.392454-1.513724,0-2.802989.784908-3.531794,2.158373v9.474455h-3.840103v-14.603818l.000021-.000005Z"/><path d="m245.251737,138.083144l1.906183-2.550827c1.709783,1.149332,3.195449,1.681725,4.73723,1.681725,1.709783,0,2.831047-.616586,2.831047-1.569496,0-.756878-.560461-1.177395-1.822012-1.37378l-2.802989-.420169c-2.88714-.420517-4.428942-1.906173-4.428942-4.260615,0-2.803342,2.354757-4.625354,6.082632-4.625354,2.130299,0,4.176769.616902,5.998781,1.822012l-1.850069,2.494696c-1.597874-.980978-3.027448-1.429557-4.513136-1.429557-1.373437,0-2.298301.588871-2.298301,1.429557,0,.812971.560461,1.205425,1.990013,1.401495l2.802989.420517c2.859125.420517,4.457,1.906173,4.457,4.176769,0,2.774927-2.718839,4.82107-6.390877,4.82107-2.663045,0-5.045518-.700747-6.699528-2.018081l-.000021.000037Z"/><path d="m259.967431,121.292923c0-1.205425.98132-2.186403,2.186393-2.186403s2.186393.980978,2.186393,2.186403c0,1.177047-.980978,2.186403-2.186393,2.186403s-2.186393-1.009393-2.186393-2.186403Zm.280573,3.924254h3.840103v14.603818h-3.840103v-14.603818Z"/><path d="m269.076826,135.700324v-7.287704h-2.999048v-3.195444h2.999048v-3.728184l3.840403-.868754v4.596938h4.176427v3.195444h-4.176427v6.503111c0,1.373432.532382,1.877795,2.018092,1.877795.728805,0,1.289629-.083846,2.046106-.336361v3.167729c-.812613.252163-2.130299.420169-2.970991.420169-3.251564,0-4.933652-1.48534-4.933652-4.344776l.000043.000037Z"/><path d="m278.94304,145.70752v-3.307667c.420517.084161.784898.111876,1.345722.111876,1.373437,0,2.354415-.672685,2.915219-1.990018l.224095-.560456-5.690129-14.74411h4.232541l3.644023,9.950755,4.120334-9.950755h4.148712l-6.727243,15.753118c-1.541781,3.559867-3.307678,4.877169-6.47507,4.877169-.673032,0-1.317644-.056131-1.738161-.139939l-.000043.000027Z"/><path class="c" d="m64.666938,77.283464c-1.565048,0-3.087494.441051-4.40227,1.27522-.51992.329841-1.014507.735295-1.556499,1.276095-.616412.615047-.617428,1.613472-.002382,2.229882.61522.616586,1.613646.617605,2.229884.002382.37448-.373814.698189-.642585,1.018255-.845661.809047-.513227,1.747067-.784593,2.713014-.784593,2.799242,0,5.076671,2.277429,5.076671,5.076671s-2.277429,5.07681-5.076671,5.07681c-1.914406,0-3.118815-1.069937-4.737928-2.702223-1.623387-1.636736-3.241483-3.279113-4.859542-4.921139l-2.151505-2.182829c-1.608144-1.629904-3.843493-3.500653-6.880708-3.500653-4.538075,0-8.230032,3.691922-8.230032,8.230032s3.691922,8.230173,8.230032,8.230173c2.724645,0,4.537934-1.331175,5.813505-2.490772.644301-.585789.691672-1.583022.105883-2.227292-.585789-.643951-1.582848-.691672-2.227292-.105883-1.305002,1.186612-2.374763,1.670616-3.692097,1.670616-2.79924,0-5.076669-2.277429-5.076669-5.07681s2.277429-5.076668,5.076669-5.076668c1.497287,0,2.840445.742336,4.635934,2.561931l2.150139,2.181287c1.620478,1.644585,3.240957,3.289378,4.866901,4.928672,1.606289,1.619462,3.605345,3.634953,6.976676,3.634953,4.538076,0,8.230034-3.692097,8.230034-8.230173s-3.691923-8.230032-8.230034-8.230032l.000029.000005Z"/><path d="m83.458985,81.096827c0-5.966969-3.550618-11.333922-8.950963-13.71317-.001192-.043376-.005079-.086052-.006763-.129288-.003363-.084825-.007918-.169301-.01328-.253565-.005886-.092569-.012826-.184857-.021091-.276796-.007602-.084055-.016221-.167724-.025753-.251218-.010441-.091307-.022005-.182229-.034756-.272801-.011634-.082513-.024176-.164641-.037734-.246523-.014889-.090116-.031008-.179777-.048213-.269122-.015627-.081112-.031955-.161873-.049437-.242283-.019268-.088679-.039766-.176869-.061247-.264708-.019444-.07957-.039557-.158825-.060825-.237659-.023508-.087208-.048352-.17382-.074035-.260117-.023123-.077783-.046812-.155285-.07172-.232298-.027715-.085702-.056761-.170667-.08661-.255388-.026806-.076136-.054029-.152097-.082514-.227427-.03157-.083494-.06461-.166253-.098281-.248765-.030484-.074735-.061279-.149259-.09341-.223153-.035424-.081427-.072351-.162013-.109738-.242353-.033917-.072842-.068042-.14551-.103568-.217442-.039279-.0795-.080061-.158019-.121264-.236397-.037173-.070741-.07449-.141305-.11324-.2111-.042989-.077433-.087524-.153814-.132406-.230056-.040364-.068568-.080723-.137031-.122596-.204583-.046743-.075401-.095019-.149645-.143617-.223749-.043273-.066115-.086508-.132196-.131214-.197225-.050276-.073123-.102167-.144985-.154235-.216776-.046251-.063768-.092325-.127571-.139976-.190253-.053714-.07067-.109069-.139904-.164468-.209173-.049122-.061386-.097997-.122841-.148418-.183105-.05697-.068042-.115587-.134508-.174241-.20108-.051752-.058758-.103221-.117691-.156234-.175257-.06044-.065625-.122526-.129533-.184612-.193616-.054238-.05599-.108091-.11226-.163553-.167023-.063418-.062647-.128519-.123472-.193476-.184507-.056831-.053362-.11324-.107109-.171193-.15921-.066465-.059739-.134614-.117515-.202587-.175537-.059143-.050524-.117867-.101503-.17813-.150731-.069304-.056585-.140254-.111069-.210996-.165902-.06149-.047686-.122491-.095967-.185102-.142322-.072073-.053362-.145825-.104481-.219299-.156056-.063698-.044708-.12687-.090116-.191584-.133457-.07449-.049858-.150661-.097334-.226482-.1453-.06601-.0418-.13146-.084405-.198486-.124768-.077083-.046425-.155812-.090291-.234154-.134789-.067903-.038576-.13521-.078063-.204022-.115133-.079499-.042851-.160575-.082933-.241302-.123752-.069865-.035353-.139099-.071757-.209839-.105568-.081918-.039172-.165446-.075435-.248519-.11254-.071405-.031884-.142112-.064959-.214359-.095267-.085246-.035808-.172067-.068463-.258471-.102099-.071827-.02796-.143024-.057216-.215621-.083599-.088363-.032129-.178234-.06093-.267651-.090747-.072597-.024211-.144529-.049893-.217791-.072527-.091202-.02817-.183877-.052836-.276095-.078554-.073089-.020392-.145475-.04243-.21916-.06128-.094707-.024246-.190849-.044673-.286571-.066326-.072843-.016468-.14502-.034722-.218457-.049648-.098524-.020076-.198486-.036124-.297994-.053362-.072001-.012473-.143302-.026979-.215794-.037981-.10336-.015732-.208053-.027154-.312394-.039802-.070004-.008514-.139377-.019165-.209804-.026278-.11846-.011948-.238254-.019306-.357837-.027294-.057146-.003819-.113697-.009916-.171086-.012824-.177745-.00897-.35661-.01363-.536528-.01363-.205425,0-.409062.007463-.611646.01913-.075294.004275-.14996.011317-.224974.017168-.120879.009565-.241409.020217-.361096.033846-.104691.011667-.208753.025192-.312744.039873-.067973.009811-.135595.020602-.203148.031744-2.941247.471743-5.572623,2.126102-7.233429,4.47711-1.978208-2.799906-5.331215-4.618836-8.947002-4.618836-5.705204,0-10.364439,4.563057-10.519935,10.231157-5.400448,2.379143-8.950889,7.746132-8.950889,13.713066,0,2.948919.844471,5.76046,2.453456,8.204-1.58968,2.181461-2.453457,4.785122-2.453457,7.453324,0,6.307076,4.558817,11.560682,10.733557,12.542045,1.538631,2.302268,3.960274,3.964827,6.776752,4.50286.028135.005432.056445.009917.084616.015135.159525.029116.320102.05473.48201.076559.063312.008656.126695.016782.190253.024245.13195.015344.264777.027507.3982.03791.072772.005747.1453.012473.218353.016643.171157.009741.343472.014959.516696.016397.02358.000176.04688.002208.07046.002208.002558,0,.005046-.000246.007604-.000246.003328,0,.006552.000246.009845.000246.218003,0,.433903-.008832.648647-.021968.034477-.002171.068673-.005362.10308-.007848.197016-.013981.392383-.033462.586281-.0582.020883-.0027.041729-.005186.062542-.007987,3.178451-.424826,5.911856-2.272035,7.536747-4.880387.864651,1.388354,2.046042,2.557622,3.438919,3.415582.058162.035986.116113.07225.174906.107006.095303.056163.191619.110508.288814.163767.084054.046144.168916.090539.25409.134299.085701.043936.170982.088331.257979.129952.133387.063909.268528.123895.404473.182057.08959.038295.179988.074837.27084.110684.127851.050453.256228.099505.386041.144879.081007.028309.162922.054414.244806.08083.110927.035702.222419.069582.334608.101574.084966.024283.169862.048491.255702.070672.127466.032864.256052.062049.384991.090117.104937.022882.210119.044743.316176.064471.147263.027362.295085.052629.443958.073752.086193.012227.173121.021791.259976.031917.123365.014403.247049.026769.371326.036857.081953.006624.163834.01335.246314.018044.184508.010719.369783.017167.555938.018327.016573.00007.032794.001609.049402.001609.002558,0,.005044-.000246.007602-.000246.003293,0,.006552.000246.009845.000246.211381,0,.421359-.008233.630636-.02053.003924-.000246.007814-.000593.011738-.000839,2.569256-.15378,4.963605-1.225608,6.799143-3.060969.497108-.497108.937497-1.040156,1.321327-1.617324,6.152737-.998952,10.690428-6.241977,10.690428-12.534338,0-2.668167-.863777-5.271687-2.453455-7.453324,1.609021-2.44354,2.453455-5.255079,2.453455-8.204l.000037-.000008Zm-5.611095,9.305435c1.584883,1.782666,2.457732,4.038546,2.457732,6.351889,0,3.999024-2.442875,7.434195-5.997695,8.854819.101291-.487265.169616-.983325.20094-1.485517.054238-.869102-.606321-1.61757-1.475391-1.671808-.862237-.05133-1.617393.606145-1.671808,1.475391-.062578,1.002277-.335238,1.968505-.779966,2.850748-.076521.085-.145544.177641-.202867.279354-1.109879,1.967767-3.029752,3.302134-5.182273,3.67076-.13069.021267-.26138.042359-.392839.056553-.052765.006063-.105637.011457-.158613.016328-2.094429.180827-4.25182-.525523-5.850996-2.124878-.015592-.015558-.034021-.026101-.050068-.040888-1.262467-1.280337-2.054837-3.019519-2.114434-4.941142.001647-.076559.005817-.152481.005817-.229425,0-2.566558-.93427-5.038688-2.630885-6.960945-.57654-.652676-1.572407-.714621-2.225607-.138749-.65285.576364-.714936,1.572581-.138749,2.225607,1.161383,1.315617,1.808034,3.000248,1.836449,4.754747-.003047.040081-.012053.078451-.012053.11934,0,4.061076-3.301642,7.365102-7.361596,7.369898-.225851-.000278-.448583-.013628-.669283-.033879-.050874-.004731-.101643-.009917-.152307-.015697-.198767-.022422-.395257-.052169-.588943-.090117-.067588-.013489-.134333-.029784-.201394-.045197-.137592-.03104-.273431-.066534-.408011-.105183-.111173-.032447-.221857-.066289-.331209-.103958-.046005-.015627-.090852-.033564-.136436-.050036-1.623842-.595672-3.025932-1.762695-3.911713-3.333142-.034862-.06184-.074349-.120072-.116534-.175887-.537614-1.022428-.845766-2.183671-.845766-3.416812,0-.870818-.705862-1.576682-1.576682-1.576682s-1.576682.705864-1.576682,1.576682c0,.740304.077783,1.462635.223889,2.160158-3.575283-1.411343-6.035187-4.857299-6.035187-8.870446,0-2.313343.872851-4.569223,2.457731-6.351889.50622-.569357.532743-1.419292.063138-2.019273-1.649209-2.107217-2.520868-4.62672-2.520868-7.286162,0-5.032522,3.200243-9.525084,7.963293-11.178953.680566-.236257,1.114433-.903824,1.054029-1.621669-.010441-.122841-.026348-.24414-.042781-.365264-.013525-.099226-.02754-.201885-.02754-.254757,0-4.064019,3.306301-7.370321,7.370497-7.370321,3.414077,0,6.604228,2.377005,7.420634,5.529002.01941.07491.046355.146141.075682.21583-.082549.529975-.125993,1.072774-.125993,1.625524v6.710321c0,.870819.705864,1.576682,1.576682,1.576682s1.576682-.705862,1.576682-1.576682v-6.710322c0-3.301571,2.182126-6.103019,5.179854-7.037991.001016-.000315.001997-.000631.003047-.000911.194142-.060439.393435-.108686.59406-.153113.063241-.0137.126204-.02845.189833-.040538.157983-.030588.318665-.053152.480048-.073473.074944-.009355.149295-.021758.224659-.028906.230302-.021793.462985-.035423.698855-.035423,4.064019,0,7.37032,3.306301,7.37032,7.370321,0,.053363-.014013.156372-.027715.256123-.016258.120283-.031987.240707-.042428.362847-.009073.106899-.003887.211836.008164.315266-.225955,1.764691-1.083707,3.402655-2.43408,4.594415-.65285.57619-.715113,1.572582-.138923,2.225434.311693.353107.746086.533444,1.182688.533444.37073,0,.743002-.130024,1.042749-.394521,1.49382-1.318316,2.563963-3.020257,3.121585-4.891637,3.792548,2.039771,6.235006,6.023204,6.235006,10.419272,0,2.659442-.871657,5.178945-2.520866,7.286162-.469606.599981-.443083,1.449916.06314,2.019273l-.000016.000008Z"/></svg>