<?xml version="1.0" encoding="UTF-8"?>
<svg id="uuid-7ae93e81-2e29-4d1b-9821-0d120eff63dd" data-name="Layer 1" xmlns="http://www.w3.org/2000/svg" xmlns:xlink="http://www.w3.org/1999/xlink" viewBox="0 0 555 230">
  <defs>
    <style>
      .uuid-ddd58a0f-61a0-4575-b9a3-de7944585652, .uuid-c4d22e49-d4c8-4c77-a360-fd7258692506 {
        fill: none;
      }

      .uuid-151f6c64-8f40-4928-81d7-863c1b204a0c {
        fill: #e00;
      }

      .uuid-f3b7cef3-3e59-4552-a460-9415dadac299 {
        fill: #fff;
      }

      .uuid-139ce472-fc5a-445b-9206-f11db2df3746 {
        fill: #e2eaf6;
      }

      .uuid-6a99651a-eb52-4152-81f5-583e22d65641 {
        fill: #316dc1;
      }

      .uuid-f03b6a5b-0b79-4772-bb8c-d837e5eca5cd {
        fill: #a7c0e4;
      }

      .uuid-1ae5e8fe-ce5f-451a-97a5-19c3729ac168 {
        fill: #261a4c;
      }

      .uuid-0d59080a-929a-443a-82f7-2db2941d580c {
        clip-path: url(#uuid-2f803018-04ba-44e1-a7b2-fced8ba26c5d);
      }

      .uuid-c4d22e49-d4c8-4c77-a360-fd7258692506 {
        stroke: #aaa;
        stroke-miterlimit: 10;
        stroke-width: .4407px;
      }
    </style>
    <clipPath id="uuid-2f803018-04ba-44e1-a7b2-fced8ba26c5d">
      <rect class="uuid-ddd58a0f-61a0-4575-b9a3-de7944585652" width="555" height="230"/>
    </clipPath>
  </defs>
  <rect class="uuid-6a99651a-eb52-4152-81f5-583e22d65641" width="555" height="230"/>
  <g class="uuid-0d59080a-929a-443a-82f7-2db2941d580c">
    <rect class="uuid-1ae5e8fe-ce5f-451a-97a5-19c3729ac168" x="132.1661" y="-60.9814" width="302.6679" height="275.2287" rx="7.687" ry="7.687"/>
    <rect class="uuid-f3b7cef3-3e59-4552-a460-9415dadac299" x="126.1661" y="-66.9814" width="302.6679" height="275.2287" rx="3" ry="3"/>
  </g>
  <g>
    <circle class="uuid-f03b6a5b-0b79-4772-bb8c-d837e5eca5cd" cx="392.1691" cy="194.7085" r="3.5778"/>
    <circle class="uuid-f03b6a5b-0b79-4772-bb8c-d837e5eca5cd" cx="401.807" cy="194.7085" r="3.5778"/>
    <circle class="uuid-f03b6a5b-0b79-4772-bb8c-d837e5eca5cd" cx="411.4449" cy="194.7085" r="3.5778"/>
  </g>
  <rect class="uuid-139ce472-fc5a-445b-9206-f11db2df3746" x="139.9774" y="150.2376" width="275.0453" height="35.8531"/>
  <g>
    <rect class="uuid-c4d22e49-d4c8-4c77-a360-fd7258692506" x="211.7327" y="17.4224" width="131.5346" height="119.2091" rx="4.4065" ry="4.4065"/>
    <rect x="213.936" y="19.6257" width="127.1281" height="114.8026" rx="2.2033" ry="2.2033"/>
    <path class="uuid-151f6c64-8f40-4928-81d7-863c1b204a0c" d="M338.8608,134.4283h-122.7216c-1.2168,0-2.2033-.9864-2.2033-2.2033v-23.0883h127.1281v23.0883c0,1.2168-.9864,2.2033-2.2033,2.2033Z"/>
    <g>
      <path class="uuid-f3b7cef3-3e59-4552-a460-9415dadac299" d="M225.4937,84.6631v-7.249h3.5312c.4971,0,.9336,.0957,1.3101,.2852,.376,.1895,.6694,.4541,.8799,.792,.2104,.3389,.3159,.7285,.3159,1.1699,0,.4561-.1279,.8613-.3833,1.2168s-.5972,.6201-1.0249,.792l1.605,2.9932h-1.6777l-1.4185-2.7754h-1.6362v2.7754h-1.5015Zm1.5015-4.0078h1.9053c.3384,0,.6094-.0889,.813-.2686s.3057-.415,.3057-.7041c0-.2969-.1021-.5352-.3057-.7148s-.4746-.2695-.813-.2695h-1.9053v1.957Z"/>
      <path class="uuid-f3b7cef3-3e59-4552-a460-9415dadac299" d="M234.7612,84.7666c-.5386,0-1.0269-.126-1.4653-.3779s-.7852-.5869-1.0405-1.0049c-.2554-.417-.3833-.8887-.3833-1.4131,0-.5176,.1226-.9893,.3677-1.4131,.2451-.4248,.5781-.7617,.9995-1.0098,.4209-.249,.8867-.373,1.3979-.373,.5176,0,.9785,.126,1.3823,.3779s.7212,.5957,.9526,1.0303,.3467,.9316,.3467,1.4912v.373h-3.9971c.0625,.2139,.166,.4072,.311,.5801,.1445,.1719,.3208,.3047,.5278,.3984,.207,.0928,.4316,.1396,.6733,.1396,.2344,0,.4556-.0361,.6626-.1084,.207-.0732,.3833-.1777,.5283-.3164l.9316,.8496c-.3311,.2686-.6714,.4658-1.02,.5898s-.7402,.1865-1.1753,.1865Zm-1.46-3.334h2.6304c-.0557-.2139-.147-.4023-.2744-.5645-.1279-.1621-.2817-.2881-.4609-.3779-.1797-.0898-.373-.1348-.5801-.1348-.2207,0-.4209,.043-.6006,.1289-.1797,.0869-.3296,.2109-.4502,.373-.1211,.1621-.209,.3535-.2642,.5752Z"/>
      <path class="uuid-f3b7cef3-3e59-4552-a460-9415dadac299" d="M240.7261,84.7354c-.5107,0-.9731-.124-1.3877-.373-.4141-.248-.7437-.5811-.9888-.999-.2451-.417-.3677-.8848-.3677-1.4033,0-.5107,.1226-.9766,.3677-1.3975s.5781-.7539,.9995-.999c.4209-.2451,.8936-.3682,1.4185-.3682,.2695,0,.5264,.0361,.7715,.1094,.2451,.0723,.478,.1777,.6992,.3154v-2.2061l1.4185-.2383v7.4873h-1.3979v-.4453c-.4419,.3457-.9526,.5176-1.5327,.5176Zm.228-1.2109c.2554,0,.4937-.0449,.7144-.1348s.4106-.2178,.5698-.3838v-2.1016c-.1592-.1592-.3491-.2812-.5698-.3682-.2207-.0859-.459-.1289-.7144-.1289-.2969,0-.5645,.0674-.8027,.2021-.2383,.1338-.4263,.3193-.5645,.5537s-.207,.4971-.207,.7871c0,.3037,.0708,.5732,.2124,.8076s.3296,.4209,.5645,.5586c.2344,.1387,.5005,.208,.7974,.208Z"/>
      <path class="uuid-f3b7cef3-3e59-4552-a460-9415dadac299" d="M246.939,84.6631v-7.249h1.5015v2.9102h3.3345v-2.9102h1.5015v7.249h-1.5015v-2.9619h-3.3345v2.9619h-1.5015Z"/>
      <path class="uuid-f3b7cef3-3e59-4552-a460-9415dadac299" d="M256.1035,84.7559c-.3794,0-.7178-.0703-1.0146-.2119s-.5278-.3369-.6938-.585c-.1655-.249-.2485-.5352-.2485-.8594,0-.5176,.1934-.9199,.5801-1.207,.3867-.2861,.9248-.4297,1.6152-.4297,.4697,0,.9116,.0732,1.3257,.2178v-.3936c0-.3105-.0967-.5449-.29-.7041-.1934-.1582-.4766-.2383-.8491-.2383-.2212,0-.4658,.0361-.7354,.1094-.269,.0723-.5728,.1846-.9111,.3359l-.5073-1.0557c.4277-.1865,.835-.3281,1.2217-.4248s.7734-.1455,1.1602-.1455c.7383,0,1.3081,.1748,1.7085,.5234s.6006,.8408,.6006,1.4756v3.5h-1.3979v-.3828c-.2212,.165-.4595,.2861-.7144,.3623-.2559,.0752-.5386,.1133-.8496,.1133Zm-.6108-1.6875c0,.207,.0898,.3711,.2695,.4922,.1792,.1201,.4175,.1807,.7144,.1807,.2344,0,.4502-.0273,.647-.083,.1968-.0547,.3784-.1445,.5439-.2686v-.7871c-.1729-.0762-.3521-.1299-.5386-.1611-.1865-.0303-.3867-.0459-.6006-.0459-.3247,0-.5781,.0586-.7612,.1758s-.2744,.2832-.2744,.4971Z"/>
      <path class="uuid-f3b7cef3-3e59-4552-a460-9415dadac299" d="M262.5342,84.7461c-.5938,0-1.0439-.1367-1.3511-.4092-.3076-.2725-.4609-.668-.4609-1.1855v-2.7031h-1.1079v-1.1807h1.1079v-1.377l1.4082-.3213v1.6982h1.5532v1.1807h-1.5532v2.4023c0,.249,.0571,.4268,.1709,.5332,.1138,.1074,.3057,.1611,.5747,.1611,.145,0,.2744-.0088,.3882-.0264,.1143-.0166,.2402-.0459,.3784-.0879v1.1602c-.145,.0479-.3247,.0859-.5386,.1133-.2144,.0283-.4038,.042-.5698,.042Z"/>
      <path class="uuid-f3b7cef3-3e59-4552-a460-9415dadac299" d="M270.1245,84.7666c-.5386,0-1.0425-.0947-1.5122-.2852-.4692-.1895-.8784-.4531-1.2271-.792-.3486-.3379-.6211-.7334-.8179-1.1855s-.2954-.9404-.2954-1.4648,.0986-1.0137,.2954-1.4658,.4712-.8486,.8232-1.1904,.7612-.6074,1.2271-.7979c.4658-.1895,.9683-.2842,1.5068-.2842,.4004,0,.7871,.0547,1.1597,.165s.7197,.2666,1.0405,.4658c.3213,.2012,.5957,.4424,.8232,.7256l-1.0146,.9941c-.2554-.3242-.5557-.5684-.9009-.7305s-.7144-.2432-1.1079-.2432c-.3247,0-.6284,.0605-.9116,.1816-.2827,.1201-.5278,.2861-.7349,.4971-.207,.21-.3696,.457-.4868,.7402-.1177,.2832-.1763,.5967-.1763,.9424,0,.3311,.0605,.6396,.1816,.9268,.1206,.2861,.2861,.5352,.4971,.7451,.2104,.2109,.459,.375,.7451,.4922,.2866,.1172,.6025,.1758,.9478,.1758,.3794,0,.7354-.0791,1.0664-.2383,.3315-.1582,.6216-.3867,.8701-.6836l.9731,.9736c-.2275,.2764-.4985,.5146-.8125,.7148-.3145,.2002-.6577,.3535-1.0308,.4609-.3726,.1064-.749,.1602-1.1284,.1602Z"/>
      <path class="uuid-f3b7cef3-3e59-4552-a460-9415dadac299" d="M276.3789,84.7666c-.5386,0-1.0269-.126-1.4653-.3779s-.7852-.5869-1.0405-1.0049c-.2554-.417-.3833-.8887-.3833-1.4131,0-.5176,.1226-.9893,.3677-1.4131,.2451-.4248,.5781-.7617,.9995-1.0098,.4209-.249,.8867-.373,1.3979-.373,.5176,0,.9785,.126,1.3823,.3779s.7212,.5957,.9526,1.0303,.3467,.9316,.3467,1.4912v.373h-3.9971c.0625,.2139,.166,.4072,.311,.5801,.1445,.1719,.3208,.3047,.5278,.3984,.207,.0928,.4316,.1396,.6733,.1396,.2344,0,.4556-.0361,.6626-.1084,.207-.0732,.3833-.1777,.5283-.3164l.9316,.8496c-.3311,.2686-.6714,.4658-1.02,.5898s-.7402,.1865-1.1753,.1865Zm-1.46-3.334h2.6304c-.0557-.2139-.147-.4023-.2744-.5645-.1279-.1621-.2817-.2881-.4609-.3779-.1797-.0898-.373-.1348-.5801-.1348-.2207,0-.4209,.043-.6006,.1289-.1797,.0869-.3296,.2109-.4502,.373-.1211,.1621-.209,.3535-.2642,.5752Z"/>
      <path class="uuid-f3b7cef3-3e59-4552-a460-9415dadac299" d="M279.7969,84.6631v-5.3955h1.4287v.6006c.166-.2344,.3711-.4141,.6162-.5381s.5195-.1865,.8232-.1865c.2695,.0068,.4658,.0449,.5898,.1143v1.2529c-.1104-.0488-.2256-.0859-.3467-.1143-.1211-.0273-.2471-.041-.3779-.041-.2764,0-.5283,.0703-.7559,.2119s-.4111,.3398-.5488,.5957v3.5h-1.4287Z"/>
      <path class="uuid-f3b7cef3-3e59-4552-a460-9415dadac299" d="M286.5791,84.7461c-.5938,0-1.0439-.1367-1.3516-.4092s-.4609-.668-.4609-1.1855v-2.7031h-1.1074v-1.1807h1.1074v-1.377l1.4082-.3213v1.6982h1.5537v1.1807h-1.5537v2.4023c0,.249,.0576,.4268,.1709,.5332,.1143,.1074,.3057,.1611,.5752,.1611,.1445,0,.2744-.0088,.3877-.0264,.1143-.0166,.2402-.0459,.3789-.0879v1.1602c-.1455,.0479-.3252,.0859-.5391,.1133-.2139,.0283-.4033,.042-.5693,.042Z"/>
      <path class="uuid-f3b7cef3-3e59-4552-a460-9415dadac299" d="M289.126,78.626c-.2207,0-.4102-.0791-.5693-.2383-.1582-.1582-.2383-.3516-.2383-.5801,0-.2207,.0801-.4092,.2383-.5645,.1592-.1553,.3486-.2324,.5693-.2324,.2285,0,.4199,.0771,.5752,.2324s.2334,.3438,.2334,.5645c0,.2285-.0781,.4219-.2334,.5801-.1553,.1592-.3467,.2383-.5752,.2383Zm-.7041,6.0371v-5.3955h1.4189v5.3955h-1.4189Z"/>
      <path class="uuid-f3b7cef3-3e59-4552-a460-9415dadac299" d="M291.7773,84.6631v-4.2148h-1.2012v-1.1807h1.2012v-.5176c0-.6143,.1777-1.0801,.5332-1.3975s.8613-.4766,1.5176-.4766c.1445,0,.293,.0088,.4453,.0254,.1514,.0176,.2793,.0439,.3828,.0781v1.1807c-.124-.0273-.2344-.0488-.3311-.0625s-.2041-.0205-.3213-.0205c-.2627,0-.4629,.0566-.6006,.1709-.1387,.1143-.207,.292-.207,.5332v.4863h1.46v1.1807h-1.46v4.2148h-1.4189Z"/>
      <path class="uuid-f3b7cef3-3e59-4552-a460-9415dadac299" d="M296.1162,78.626c-.2207,0-.4111-.0791-.5693-.2383-.1592-.1582-.2383-.3516-.2383-.5801,0-.2207,.0791-.4092,.2383-.5645,.1582-.1553,.3486-.2324,.5693-.2324,.2275,0,.4189,.0771,.5742,.2324s.2334,.3438,.2334,.5645c0,.2285-.0781,.4219-.2334,.5801-.1553,.1592-.3467,.2383-.5742,.2383Zm-.7041,6.0371v-5.3955h1.4189v5.3955h-1.4189Z"/>
      <path class="uuid-f3b7cef3-3e59-4552-a460-9415dadac299" d="M300.5791,84.7666c-.5381,0-1.0264-.126-1.4648-.3779s-.7852-.5869-1.041-1.0049c-.2549-.417-.3828-.8887-.3828-1.4131,0-.5176,.1221-.9893,.3672-1.4131,.2451-.4248,.5781-.7617,1-1.0098,.4209-.249,.8867-.373,1.3975-.373,.5176,0,.9785,.126,1.3828,.3779,.4033,.252,.7207,.5957,.9521,1.0303s.3467,.9316,.3467,1.4912v.373h-3.9971c.0625,.2139,.166,.4072,.3115,.5801,.1445,.1719,.3203,.3047,.5273,.3984,.207,.0928,.4316,.1396,.6738,.1396,.2344,0,.4551-.0361,.6621-.1084,.207-.0732,.3838-.1777,.5283-.3164l.9316,.8496c-.3311,.2686-.6709,.4658-1.0195,.5898s-.7402,.1865-1.1758,.1865Zm-1.46-3.334h2.6309c-.0557-.2139-.1475-.4023-.2744-.5645-.1279-.1621-.2822-.2881-.4609-.3779-.1797-.0898-.373-.1348-.5801-.1348-.2207,0-.4209,.043-.6006,.1289-.1797,.0869-.3301,.2109-.4502,.373-.1211,.1621-.209,.3535-.2646,.5752Z"/>
      <path class="uuid-f3b7cef3-3e59-4552-a460-9415dadac299" d="M306.5439,84.7354c-.5107,0-.9736-.124-1.3877-.373-.4141-.248-.7441-.5811-.9893-.999-.2451-.417-.3672-.8848-.3672-1.4033,0-.5107,.1221-.9766,.3672-1.3975s.5781-.7539,1-.999c.4209-.2451,.8936-.3682,1.418-.3682,.2695,0,.5264,.0361,.7715,.1094,.2451,.0723,.4785,.1777,.6992,.3154v-2.2061l1.4189-.2383v7.4873h-1.3984v-.4453c-.4414,.3457-.9521,.5176-1.5322,.5176Zm.2275-1.2109c.2559,0,.4941-.0449,.7148-.1348s.4102-.2178,.5693-.3838v-2.1016c-.1592-.1592-.3486-.2812-.5693-.3682-.2207-.0859-.459-.1289-.7148-.1289-.2969,0-.5645,.0674-.8027,.2021-.2383,.1338-.4258,.3193-.5645,.5537-.1377,.2344-.207,.4971-.207,.7871,0,.3037,.0713,.5732,.2129,.8076s.3291,.4209,.5645,.5586c.2344,.1387,.5,.208,.7969,.208Z"/>
      <path class="uuid-f3b7cef3-3e59-4552-a460-9415dadac299" d="M228.0308,97.1934c-.5801,0-1.1392-.1123-1.6777-.3369-.5381-.2236-1.0146-.5469-1.4287-.9678l.6626-.7666c.3936,.3867,.7954,.6738,1.2065,.8594,.4106,.1865,.8438,.2803,1.2993,.2803,.3452,0,.6489-.0518,.9111-.1553,.2627-.1035,.4678-.2471,.6162-.4297,.1484-.1836,.2227-.3926,.2227-.627,0-.3242-.1138-.5742-.3418-.751-.2275-.1758-.604-.3057-1.1284-.3877l-1.2012-.207c-.6699-.1104-1.1685-.3213-1.4966-.6318-.3276-.3105-.4917-.7256-.4917-1.2432,0-.4141,.1104-.7803,.3315-1.0977,.2207-.3174,.5332-.5625,.937-.7354,.4038-.1719,.8716-.2588,1.4028-.2588,.5249,0,1.041,.0869,1.5483,.2588,.5073,.1729,.9648,.415,1.3721,.7256l-.6006,.8389c-.7803-.5938-1.5708-.8906-2.3716-.8906-.3174,0-.5952,.0449-.8335,.1338-.2383,.0898-.4209,.2158-.5488,.3789-.1279,.1621-.1914,.3535-.1914,.5742,0,.2832,.1001,.5039,.3003,.6631,.2002,.1582,.5278,.2754,.9839,.3516l1.1802,.1865c.7666,.124,1.3291,.3486,1.688,.6729,.3589,.3252,.5386,.7705,.5386,1.3359,0,.4424-.1191,.832-.3574,1.1699-.2383,.3389-.5762,.5996-1.0146,.7822s-.9443,.2744-1.5171,.2744Z"/>
      <path class="uuid-f3b7cef3-3e59-4552-a460-9415dadac299" d="M231.7998,99.2021v-7.3828h1.0254v.5068c.4487-.3936,.9873-.5898,1.6152-.5898,.4971,0,.9478,.1211,1.3516,.3623s.7231,.5684,.958,.9785c.2344,.4111,.3521,.8682,.3521,1.3721,0,.5107-.1177,.9717-.3521,1.3828-.2349,.4102-.5562,.7363-.9634,.9785-.4072,.2412-.8662,.3623-1.377,.3623-.29,0-.5684-.0449-.834-.1348s-.5122-.2207-.7402-.3936v2.5576h-1.0356Zm2.5063-2.9307c.3379,0,.6401-.0771,.9058-.2324s.478-.3711,.6367-.6475c.1592-.2764,.2383-.5869,.2383-.9316,0-.3457-.0791-.6562-.2383-.9326-.1587-.2754-.3711-.4951-.6367-.6572s-.5679-.2432-.9058-.2432c-.2974,0-.5732,.0566-.8286,.1709-.2554,.1133-.4697,.2705-.6421,.4707v2.3818c.1724,.1865,.3882,.3369,.6475,.4502,.2588,.1143,.5332,.1709,.8232,.1709Z"/>
      <path class="uuid-f3b7cef3-3e59-4552-a460-9415dadac299" d="M240.6123,97.1826c-.5176,0-.9854-.1191-1.4033-.3564-.4175-.2383-.7505-.5664-.999-.9844-.2485-.417-.373-.8818-.373-1.3926s.1191-.9697,.3574-1.377,.5576-.7334,.958-.9785c.3999-.2451,.8491-.3682,1.3462-.3682,.4829,0,.9165,.123,1.2993,.3682,.3833,.2451,.687,.5762,.9111,.9941,.2246,.417,.3369,.8887,.3369,1.4131v.2793h-4.1631c.0483,.2969,.1538,.5576,.3159,.7822s.3691,.4033,.6216,.5381c.2515,.1348,.5293,.2021,.8335,.2021,.2622,0,.5107-.041,.7456-.124,.2344-.083,.4312-.1934,.5903-.3311l.6523,.6416c-.3042,.2344-.6201,.4092-.9478,.5225-.3281,.1143-.6885,.1709-1.082,.1709Zm-1.7192-3.1787h3.1274c-.0483-.2695-.1465-.5088-.2949-.7197-.1484-.21-.3301-.376-.5439-.4971-.2139-.1201-.4521-.1807-.7144-.1807s-.5039,.0605-.7251,.1807c-.2207,.1211-.4053,.2852-.5537,.4922s-.2471,.4482-.2954,.7246Z"/>
      <path class="uuid-f3b7cef3-3e59-4552-a460-9415dadac299" d="M246.5146,97.1826c-.5107,0-.9731-.1201-1.3877-.3623-.4141-.2412-.7422-.5693-.9834-.9834-.2422-.4141-.3628-.873-.3628-1.377,0-.5186,.1226-.9824,.3677-1.3936,.2451-.4102,.5732-.7383,.9839-.9834s.8716-.3672,1.3823-.3672c.3936,0,.7749,.0742,1.1445,.2227,.3691,.1484,.6885,.3643,.9575,.6465l-.6421,.7148c-.2002-.2207-.4243-.3867-.6729-.4971s-.5073-.166-.7769-.166c-.3242,0-.6162,.0801-.875,.2383-.2588,.1592-.4624,.377-.6108,.6523-.1484,.2764-.2227,.584-.2227,.9219s.0757,.6475,.228,.9268c.1514,.2793,.3589,.499,.6211,.6572,.2622,.1592,.5557,.2383,.8804,.2383,.269,0,.521-.0527,.7559-.1602,.2344-.1074,.4556-.2637,.6626-.4717l.6318,.6738c-.2764,.2764-.5957,.4902-.958,.6416-.3623,.1523-.7368,.2275-1.1235,.2275Z"/>
      <path class="uuid-f3b7cef3-3e59-4552-a460-9415dadac299" d="M249.9424,90.96c-.1729,0-.3213-.0625-.4453-.1865-.1245-.125-.1865-.2764-.1865-.4561,0-.1729,.062-.3213,.1865-.4453,.124-.124,.2725-.1865,.4453-.1865,.1792,0,.3311,.0625,.4556,.1865,.124,.124,.1865,.2764,.1865,.4561,0,.1719-.0625,.3203-.1865,.4453-.1245,.124-.2764,.1865-.4556,.1865Zm-.5181,6.1299v-5.2705h1.0356v5.2705h-1.0356Z"/>
      <path class="uuid-f3b7cef3-3e59-4552-a460-9415dadac299" d="M253.3594,97.1826c-.3867,0-.7251-.0664-1.0146-.2012-.29-.1348-.5181-.3232-.6836-.5645-.1655-.2422-.2485-.5215-.2485-.8389,0-.4971,.1914-.8867,.5747-1.1699s.9023-.4248,1.5586-.4248c.5176,0,.9941,.0928,1.4287,.2793v-.5488c0-.3799-.1069-.6631-.3208-.8486-.2144-.1865-.5317-.2803-.9526-.2803-.2417,0-.4922,.0361-.751,.1094-.2588,.0723-.5503,.1846-.875,.3359l-.3936-.7764c.3936-.1865,.7646-.3223,1.1133-.4092,.3486-.0859,.6992-.1289,1.0513-.1289,.6831,0,1.2129,.1621,1.5894,.4863,.376,.3242,.5645,.7871,.5645,1.3877v3.5h-1.0254v-.4561c-.2275,.1865-.4761,.3252-.7456,.415-.269,.0889-.5591,.1338-.8696,.1338Zm-.9629-1.6357c0,.2627,.1104,.4727,.3311,.6318,.2212,.1592,.5073,.2383,.8594,.2383,.2764,0,.5317-.042,.7666-.124,.2344-.083,.4414-.2109,.6211-.3838v-.8906c-.1934-.1104-.4004-.1934-.6211-.248-.2212-.0557-.4595-.083-.7144-.083-.3867,0-.6904,.0791-.9116,.2383-.2207,.1582-.3311,.3662-.3311,.6211Z"/>
      <path class="uuid-f3b7cef3-3e59-4552-a460-9415dadac299" d="M257.1909,97.0898v-7.249l1.0356-.1963v7.4453h-1.0356Z"/>
      <path class="uuid-f3b7cef3-3e59-4552-a460-9415dadac299" d="M259.9663,90.96c-.1729,0-.3213-.0625-.4453-.1865-.1245-.125-.1865-.2764-.1865-.4561,0-.1729,.062-.3213,.1865-.4453,.124-.124,.2725-.1865,.4453-.1865,.1792,0,.3311,.0625,.4556,.1865,.124,.124,.1865,.2764,.1865,.4561,0,.1719-.0625,.3203-.1865,.4453-.1245,.124-.2764,.1865-.4556,.1865Zm-.5181,6.1299v-5.2705h1.0356v5.2705h-1.0356Z"/>
      <path class="uuid-f3b7cef3-3e59-4552-a460-9415dadac299" d="M263.5181,97.1934c-.4561,0-.8823-.0674-1.2793-.2021s-.7402-.3291-1.0303-.585l.5596-.6836c.2759,.2217,.5571,.3867,.8438,.4971,.2861,.1104,.5781,.166,.875,.166,.3726,0,.6763-.0703,.9111-.2119s.3521-.3301,.3521-.5645c0-.1934-.0688-.3457-.207-.4561s-.3521-.1865-.6421-.2275l-.9526-.1348c-.5317-.0762-.9268-.2383-1.1855-.4863-.2588-.249-.3882-.5801-.3882-.9941,0-.3115,.0859-.5869,.2588-.8291,.1724-.2412,.4141-.4277,.7246-.5586,.311-.1318,.6699-.1973,1.0771-.1973,.3867,0,.7559,.0537,1.1079,.1611,.3521,.1064,.6904,.2773,1.0151,.5117l-.5181,.6836c-.2969-.1934-.5796-.334-.8491-.4238-.269-.0898-.5454-.1348-.8286-.1348-.3174,0-.5728,.0674-.7661,.2012-.1934,.1348-.29,.3096-.29,.5234,0,.2002,.0688,.3506,.207,.4502,.1382,.1006,.3555,.1748,.6528,.2227l.9629,.1455c.5244,.0684,.9214,.2275,1.1909,.4756,.269,.249,.4038,.5801,.4038,.9941,0,.3115-.0986,.5928-.2954,.8447s-.459,.4502-.7866,.5947c-.3281,.1455-.7026,.2178-1.1235,.2178Z"/>
      <path class="uuid-f3b7cef3-3e59-4552-a460-9415dadac299" d="M268.6641,97.1826c-.5039,0-.8906-.1172-1.1597-.3516s-.4038-.583-.4038-1.0459v-3.0967h-1.1182v-.8691h1.1182v-1.3359l1.0254-.2588v1.5947h1.5635v.8691h-1.5635v2.8691c0,.2617,.0601,.4502,.1812,.5645,.1206,.1133,.3188,.1709,.5952,.1709,.145,0,.2744-.0107,.3882-.0312,.1143-.0215,.2368-.0557,.3677-.1035v.8799c-.1382,.0488-.2983,.084-.4814,.1084s-.354,.0361-.5127,.0361Z"/>
    </g>
    <g>
      <path class="uuid-f3b7cef3-3e59-4552-a460-9415dadac299" d="M229.0664,125.2988c-.5386,0-1.0376-.0957-1.4966-.2852s-.8628-.4561-1.2114-.7969c-.3486-.3418-.6182-.7393-.8076-1.1914-.1899-.4521-.2847-.9404-.2847-1.4648,0-.5322,.0947-1.0234,.2847-1.4756,.1895-.4521,.459-.8477,.8076-1.1865,.3486-.3379,.7539-.6016,1.2168-.792,.4624-.1895,.9595-.2842,1.4912-.2842,.3794,0,.7505,.0498,1.1133,.1494,.3623,.1006,.6968,.2441,1.0044,.4297,.3071,.1865,.5781,.415,.813,.6836l-.7354,.7354c-.2695-.3242-.5972-.5713-.9839-.7402s-.7905-.2539-1.2114-.2539c-.3867,0-.7422,.0693-1.0669,.207-.3242,.1387-.6094,.332-.854,.5801-.2451,.249-.4351,.5391-.5698,.8701-.1343,.3311-.2017,.6904-.2017,1.0771s.0674,.7451,.2017,1.0762c.1348,.332,.3247,.6221,.5698,.8701,.2446,.249,.5347,.4424,.8696,.5801s.6919,.207,1.0718,.207c.4209,0,.8218-.0859,1.2012-.2588,.3799-.1729,.7007-.4111,.9634-.7148l.7144,.7256c-.2349,.2549-.5059,.4775-.813,.668-.3071,.1895-.6387,.334-.9941,.4346-.3555,.0996-.7197,.1504-1.0923,.1504Z"/>
      <path class="uuid-f3b7cef3-3e59-4552-a460-9415dadac299" d="M232.9077,125.1846v-7.249l1.0356-.1963v7.4453h-1.0356Z"/>
      <path class="uuid-f3b7cef3-3e59-4552-a460-9415dadac299" d="M237.6714,125.2881c-.5112,0-.9756-.1191-1.3931-.3574-.418-.2383-.749-.5654-.9941-.9834s-.3677-.8818-.3677-1.3926c0-.5186,.1206-.9824,.3628-1.3936,.2412-.4102,.5728-.7383,.9937-.9834,.4214-.2451,.8872-.3672,1.3984-.3672,.5107,0,.9746,.1221,1.3926,.3672,.4175,.2451,.7471,.5732,.9888,.9834,.2417,.4111,.3628,.875,.3628,1.3936,0,.5107-.1211,.9746-.3628,1.3926s-.5713,.7451-.9888,.9834c-.418,.2383-.8818,.3574-1.3926,.3574Zm0-.9111c.3242,0,.6177-.0811,.8799-.2432s.4692-.3818,.6216-.6582c.1514-.2754,.2275-.5859,.2275-.9316,0-.3379-.0762-.6436-.2275-.916-.1523-.2734-.3594-.4922-.6216-.6582-.2622-.165-.5557-.248-.8799-.248-.3179,0-.6094,.083-.8755,.248-.2656,.166-.4746,.3848-.6265,.6582-.1519,.2725-.2275,.5781-.2275,.916,0,.3457,.0757,.6562,.2275,.9316,.1519,.2764,.3608,.4961,.6265,.6582,.2661,.1621,.5576,.2432,.8755,.2432Z"/>
      <path class="uuid-f3b7cef3-3e59-4552-a460-9415dadac299" d="M243.439,125.2881c-.4072,0-.7661-.0859-1.0767-.2588-.311-.1729-.5542-.416-.7305-.7305-.1758-.3135-.2637-.6709-.2637-1.0713v-3.3135h1.0352v3.1377c0,.4072,.1191,.7314,.3574,.9727,.2383,.2422,.5576,.3633,.958,.3633,.2759,0,.5264-.0605,.7505-.1816,.2246-.1211,.4058-.292,.5439-.5127v-3.7793h1.0356v5.2705h-1.0356v-.5381c-.4077,.4277-.9321,.6416-1.5742,.6416Z"/>
      <path class="uuid-f3b7cef3-3e59-4552-a460-9415dadac299" d="M249.6934,125.2676c-.4902,0-.9409-.1211-1.3516-.3623-.4106-.2422-.7334-.5684-.9683-.9785-.2344-.4111-.3521-.875-.3521-1.3936,0-.5039,.1191-.9609,.3574-1.3721,.2383-.4102,.5625-.7344,.9731-.9727s.8647-.3574,1.3618-.3574c.29,0,.5698,.043,.8389,.1289,.269,.0869,.5176,.2158,.7456,.3887v-2.4131l1.0356-.1963v7.4453h-1.0254v-.5078c-.4487,.3936-.9873,.5908-1.6152,.5908Zm.1348-.9014c.3037,0,.5811-.0547,.8335-.165,.252-.1104,.4639-.2656,.6367-.4668v-2.3809c-.1655-.2002-.3779-.3555-.6367-.4668-.2588-.1104-.5371-.165-.8335-.165-.3315,0-.6338,.0771-.9062,.2324-.2729,.1553-.4868,.3711-.6421,.6475s-.2329,.5869-.2329,.9316c0,.3457,.0776,.6562,.2329,.9326s.3691,.4951,.6421,.6572c.2725,.1621,.5747,.2432,.9062,.2432Z"/>
      <path class="uuid-f3b7cef3-3e59-4552-a460-9415dadac299" d="M256.2383,119.0547c-.1729,0-.3213-.0625-.4453-.1865-.1245-.125-.1865-.2764-.1865-.4561,0-.1729,.062-.3213,.1865-.4453,.124-.124,.2725-.1865,.4453-.1865,.1792,0,.3311,.0625,.4556,.1865,.124,.124,.1865,.2764,.1865,.4561,0,.1719-.0625,.3203-.1865,.4453-.1245,.124-.2764,.1865-.4556,.1865Zm-.5181,6.1299v-5.2705h1.0356v5.2705h-1.0356Z"/>
      <path class="uuid-f3b7cef3-3e59-4552-a460-9415dadac299" d="M257.9775,125.1846v-5.2705h1.0356v.5381c.4072-.4277,.9355-.6416,1.5845-.6416,.4072,0,.7646,.0859,1.0718,.2588,.3071,.1719,.5488,.4141,.7246,.7246,.1763,.3105,.2642,.6699,.2642,1.0771v3.3135h-1.0356v-3.1377c0-.4141-.1172-.7402-.3521-.9785s-.5557-.3574-.9629-.3574c-.2764,0-.5229,.0605-.7402,.1816-.2178,.1201-.4023,.291-.5542,.5127v3.7793h-1.0356Z"/>
      <path class="uuid-f3b7cef3-3e59-4552-a460-9415dadac299" d="M264.4805,125.1846v-4.4014h-1.2217v-.8691h1.2217v-.7871c0-.5527,.1538-.9756,.4609-1.2686,.3071-.2939,.7471-.4404,1.3203-.4404,.145,0,.2812,.0068,.4087,.0205,.1279,.0146,.2437,.0381,.3472,.0732v.9004c-.1245-.0342-.2349-.0586-.3315-.0723s-.2002-.0205-.3105-.0205c-.2969,0-.5176,.0654-.6626,.1963s-.2178,.3389-.2178,.6211v.7773h1.5225v.8691h-1.5225v4.4014h-1.0146Z"/>
      <path class="uuid-f3b7cef3-3e59-4552-a460-9415dadac299" d="M267.8042,125.1846v-5.2812h1.0356v.6836c.1655-.249,.3711-.4414,.6162-.5801,.2451-.1377,.5229-.207,.8335-.207,.2139,0,.3901,.0273,.5283,.083v.9316c-.0967-.041-.1968-.0703-.3003-.0879s-.2109-.0254-.3213-.0254c-.2969,0-.5625,.0811-.7974,.2432s-.4209,.3984-.5591,.709v3.5312h-1.0356Z"/>
      <path class="uuid-f3b7cef3-3e59-4552-a460-9415dadac299" d="M273.1064,125.2773c-.3867,0-.7251-.0664-1.0146-.2012-.29-.1348-.5181-.3232-.6836-.5645-.1655-.2422-.2485-.5215-.2485-.8389,0-.4971,.1914-.8867,.5747-1.1699s.9023-.4248,1.5586-.4248c.5176,0,.9941,.0928,1.4287,.2793v-.5488c0-.3799-.1069-.6631-.3208-.8486-.2144-.1865-.5317-.2803-.9526-.2803-.2417,0-.4922,.0361-.751,.1094-.2588,.0723-.5503,.1846-.875,.3359l-.3936-.7764c.3936-.1865,.7646-.3223,1.1133-.4092,.3486-.0859,.6992-.1289,1.0513-.1289,.6831,0,1.2129,.1621,1.5894,.4863,.376,.3242,.5645,.7871,.5645,1.3877v3.5h-1.0254v-.4561c-.2275,.1865-.4761,.3252-.7456,.415-.269,.0889-.5591,.1338-.8696,.1338Zm-.9629-1.6357c0,.2627,.1104,.4727,.3311,.6318,.2212,.1592,.5073,.2383,.8594,.2383,.2764,0,.5317-.042,.7666-.124,.2344-.083,.4414-.2109,.6211-.3838v-.8906c-.1934-.1104-.4004-.1934-.6211-.248-.2212-.0557-.4595-.083-.7144-.083-.3867,0-.6904,.0791-.9116,.2383-.2207,.1582-.3311,.3662-.3311,.6211Z"/>
      <path class="uuid-f3b7cef3-3e59-4552-a460-9415dadac299" d="M278.75,125.2881c-.4561,0-.8823-.0674-1.2793-.2021s-.7402-.3291-1.0303-.585l.5596-.6836c.2759,.2217,.5571,.3867,.8438,.4971,.2861,.1104,.5781,.166,.875,.166,.373,0,.6768-.0703,.9111-.2119,.2354-.1416,.3525-.3301,.3525-.5645,0-.1934-.0693-.3457-.207-.4561-.1387-.1104-.3525-.1865-.6426-.2275l-.9521-.1348c-.5322-.0762-.9272-.2383-1.186-.4863-.2588-.249-.3882-.5801-.3882-.9941,0-.3115,.0859-.5869,.2588-.8291,.1724-.2412,.4141-.4277,.7246-.5586,.311-.1318,.6699-.1973,1.0771-.1973,.3867,0,.7559,.0537,1.1084,.1611,.3516,.1064,.6904,.2773,1.0146,.5117l-.5176,.6836c-.2969-.1934-.5801-.334-.8496-.4238-.2686-.0898-.5449-.1348-.8281-.1348-.3174,0-.5732,.0674-.7666,.2012-.1934,.1348-.29,.3096-.29,.5234,0,.2002,.0688,.3506,.207,.4502,.1382,.1006,.3555,.1748,.6533,.2227l.9629,.1455c.5244,.0684,.9209,.2275,1.1904,.4756,.2695,.249,.4043,.5801,.4043,.9941,0,.3115-.0986,.5928-.2959,.8447-.1963,.252-.459,.4502-.7861,.5947-.3281,.1455-.7031,.2178-1.124,.2178Z"/>
      <path class="uuid-f3b7cef3-3e59-4552-a460-9415dadac299" d="M283.8965,125.2773c-.5039,0-.8906-.1172-1.1592-.3516-.2695-.2344-.4043-.583-.4043-1.0459v-3.0967h-1.1182v-.8691h1.1182v-1.3359l1.0254-.2588v1.5947h1.5635v.8691h-1.5635v2.8691c0,.2617,.0605,.4502,.1816,.5645,.1201,.1133,.3184,.1709,.5947,.1709,.1455,0,.2744-.0107,.3887-.0312,.1143-.0215,.2363-.0557,.3672-.1035v.8799c-.1377,.0488-.2979,.084-.4814,.1084-.1826,.0244-.3535,.0361-.5127,.0361Z"/>
      <path class="uuid-f3b7cef3-3e59-4552-a460-9415dadac299" d="M285.6777,125.1846v-5.2812h1.0352v.6836c.166-.249,.3711-.4414,.6162-.5801,.2451-.1377,.5234-.207,.834-.207,.2139,0,.3896,.0273,.5283,.083v.9316c-.0967-.041-.1973-.0703-.3008-.0879s-.2109-.0254-.3213-.0254c-.2969,0-.5625,.0811-.7969,.2432-.2354,.1621-.4209,.3984-.5596,.709v3.5312h-1.0352Z"/>
      <path class="uuid-f3b7cef3-3e59-4552-a460-9415dadac299" d="M291.4873,125.2881c-.4072,0-.7666-.0859-1.0771-.2588s-.5537-.416-.7305-.7305c-.1758-.3135-.2637-.6709-.2637-1.0713v-3.3135h1.0352v3.1377c0,.4072,.1191,.7314,.3574,.9727,.2383,.2422,.5576,.3633,.958,.3633,.2764,0,.5264-.0605,.751-.1816s.4053-.292,.5439-.5127v-3.7793h1.0352v5.2705h-1.0352v-.5381c-.4082,.4277-.9326,.6416-1.5742,.6416Z"/>
      <path class="uuid-f3b7cef3-3e59-4552-a460-9415dadac299" d="M297.8037,125.2773c-.5107,0-.9736-.1201-1.3877-.3623-.4141-.2412-.7422-.5693-.9834-.9834-.2422-.4141-.3633-.873-.3633-1.377,0-.5186,.123-.9824,.3682-1.3936,.2451-.4102,.5732-.7383,.9834-.9834,.4111-.2451,.8721-.3672,1.3828-.3672,.3936,0,.7744,.0742,1.1445,.2227,.3691,.1484,.6885,.3643,.957,.6465l-.6416,.7148c-.2002-.2207-.4248-.3867-.6729-.4971-.249-.1104-.5078-.166-.7773-.166-.3242,0-.6162,.0801-.875,.2383-.2588,.1592-.4619,.377-.6104,.6523-.1484,.2764-.2227,.584-.2227,.9219s.0752,.6475,.2275,.9268c.1514,.2793,.3594,.499,.6211,.6572,.2627,.1592,.5557,.2383,.8809,.2383,.2686,0,.5205-.0527,.7559-.1602,.2344-.1074,.4551-.2637,.6621-.4717l.6318,.6738c-.2764,.2764-.5957,.4902-.958,.6416-.3623,.1523-.7363,.2275-1.123,.2275Z"/>
      <path class="uuid-f3b7cef3-3e59-4552-a460-9415dadac299" d="M303.0635,125.2773c-.5039,0-.8906-.1172-1.1592-.3516-.2695-.2344-.4043-.583-.4043-1.0459v-3.0967h-1.1182v-.8691h1.1182v-1.3359l1.0254-.2588v1.5947h1.5635v.8691h-1.5635v2.8691c0,.2617,.0605,.4502,.1816,.5645,.1201,.1133,.3184,.1709,.5947,.1709,.1455,0,.2744-.0107,.3887-.0312,.1143-.0215,.2363-.0557,.3672-.1035v.8799c-.1377,.0488-.2979,.084-.4814,.1084-.1826,.0244-.3535,.0361-.5127,.0361Z"/>
      <path class="uuid-f3b7cef3-3e59-4552-a460-9415dadac299" d="M306.8848,125.2881c-.4072,0-.7656-.0859-1.0762-.2588-.3115-.1729-.5547-.416-.7305-.7305-.1758-.3135-.2637-.6709-.2637-1.0713v-3.3135h1.0352v3.1377c0,.4072,.1191,.7314,.3574,.9727,.2383,.2422,.5576,.3633,.958,.3633,.2754,0,.5264-.0605,.75-.1816,.2246-.1211,.4062-.292,.5439-.5127v-3.7793h1.0361v5.2705h-1.0361v-.5381c-.4072,.4277-.9316,.6416-1.5742,.6416Z"/>
      <path class="uuid-f3b7cef3-3e59-4552-a460-9415dadac299" d="M310.7158,125.1846v-5.2812h1.0361v.6836c.165-.249,.3711-.4414,.6162-.5801,.2451-.1377,.5225-.207,.833-.207,.2139,0,.3906,.0273,.5283,.083v.9316c-.0967-.041-.1963-.0703-.2998-.0879s-.2109-.0254-.3213-.0254c-.2969,0-.5625,.0811-.7979,.2432-.2344,.1621-.4209,.3984-.5586,.709v3.5312h-1.0361Z"/>
      <path class="uuid-f3b7cef3-3e59-4552-a460-9415dadac299" d="M316.7842,125.2773c-.5176,0-.9854-.1191-1.4033-.3564-.417-.2383-.75-.5664-.999-.9844-.248-.417-.373-.8818-.373-1.3926s.1191-.9697,.3574-1.377,.5576-.7334,.958-.9785,.8496-.3682,1.3467-.3682c.4824,0,.916,.123,1.2988,.3682,.3838,.2451,.6875,.5762,.9111,.9941,.2246,.417,.3369,.8887,.3369,1.4131v.2793h-4.1631c.0488,.2969,.1543,.5576,.3164,.7822s.3691,.4033,.6211,.5381,.5293,.2021,.834,.2021c.2617,0,.5107-.041,.7451-.124s.4316-.1934,.5908-.3311l.6523,.6416c-.3047,.2344-.6201,.4092-.9482,.5225-.3281,.1143-.6885,.1709-1.082,.1709Zm-1.7188-3.1787h3.127c-.0479-.2695-.1465-.5088-.2949-.7197-.1484-.21-.3301-.376-.5439-.4971-.2139-.1201-.4521-.1807-.7139-.1807-.2627,0-.5039,.0605-.7256,.1807-.2207,.1211-.4053,.2852-.5537,.4922s-.2471,.4482-.2949,.7246Z"/>
    </g>
    <g>
      <path class="uuid-f3b7cef3-3e59-4552-a460-9415dadac299" d="M326.6653,42.6817h-11.9576c-.229,0-.4152-.1859-.4152-.4152v-9.3003c0-.2293,.1862-.4152,.4152-.4152s.4152,.1859,.4152,.4152v8.8851h11.5424c.229,0,.4152,.1859,.4152,.4152s-.1862,.4152-.4152,.4152Z"/>
      <path class="uuid-f3b7cef3-3e59-4552-a460-9415dadac299" d="M330.6512,35.3743c-.229,0-.4152-.1859-.4152-.4152v-4.235h-12.871c-.229,0-.4152-.1859-.4152-.4152s.1862-.4152,.4152-.4152h13.2862c.229,0,.4152,.1859,.4152,.4152v4.6502c0,.2293-.1862,.4152-.4152,.4152Z"/>
      <path class="uuid-f3b7cef3-3e59-4552-a460-9415dadac299" d="M317.365,33.3813h-2.6572c-.168,0-.3192-.1012-.3834-.2563s-.0292-.3338,.0895-.4525l2.6572-2.6572c.1194-.1194,.2984-.1538,.4528-.0902,.155,.0645,.2563,.2157,.2563,.3837v2.6572c0,.2293-.1862,.4152-.4152,.4152Zm-1.6549-.8304h1.2397v-1.2397l-1.2397,1.2397Z"/>
      <path class="uuid-f3b7cef3-3e59-4552-a460-9415dadac299" d="M329.9869,41.4257c-1.328,0-2.4081-1.0801-2.4081-2.4081s1.0801-2.4081,2.4081-2.4081,2.4081,1.0801,2.4081,2.4081-1.0801,2.4081-2.4081,2.4081Zm0-3.9859c-.87,0-1.5777,.7078-1.5777,1.5777s.7078,1.5777,1.5777,1.5777,1.5777-.7078,1.5777-1.5777-.7078-1.5777-1.5777-1.5777Z"/>
      <path class="uuid-f3b7cef3-3e59-4552-a460-9415dadac299" d="M324.0081,38.0315h-6.6431c-.229,0-.4152-.1859-.4152-.4152s.1862-.4152,.4152-.4152h6.6431c.229,0,.4152,.1859,.4152,.4152s-.1862,.4152-.4152,.4152Z"/>
      <path class="uuid-f3b7cef3-3e59-4552-a460-9415dadac299" d="M321.3509,40.0244h-3.9859c-.229,0-.4152-.1859-.4152-.4152s.1862-.4152,.4152-.4152h3.9859c.229,0,.4152,.1859,.4152,.4152s-.1862,.4152-.4152,.4152Z"/>
      <path class="uuid-f3b7cef3-3e59-4552-a460-9415dadac299" d="M331.3155,45.3389c-.1077,0-.2141-.0422-.2939-.1216l-1.0347-1.0351-1.0347,1.0351c-.12,.119-.2997,.1531-.4528,.0902-.155-.0645-.2563-.2157-.2563-.3837v-4.4189c0-.2293,.1862-.4152,.4152-.4152s.4152,.1859,.4152,.4152v3.4166l.6195-.6199c.1622-.1622,.4256-.1622,.5878,0l.6195,.6199v-3.4166c0-.2293,.1862-.4152,.4152-.4152s.4152,.1859,.4152,.4152v4.4189c0,.168-.1012,.3192-.2563,.3837-.0513,.0211-.1051,.0315-.1589,.0315Z"/>
    </g>
    <g>
      <path class="uuid-151f6c64-8f40-4928-81d7-863c1b204a0c" d="M240.5385,37.5739c.1697,.806,.1697,.8908,.1697,.9969,0,1.3788-1.5486,2.1423-3.5846,2.1423-4.6031,0-8.6331-2.6937-8.6331-4.4755,0-.276,.0636-.5303,.1485-.7212-1.6545,.0848-3.7969,.3817-3.7969,2.2695,0,3.0968,7.3392,6.9149,13.151,6.9149,4.4546,0,5.5785-2.0149,5.5785-3.6058,0-1.2517-1.0818-2.6726-3.0331-3.5211m-3.203,1.1242c1.2304,0,3.0121-.2546,3.0121-1.7182,0-.1142-.0032-.2254-.0305-.3367l-.7329-3.1843c-.1699-.7-.3182-1.0182-1.5486-1.6333-.9545-.4877-3.0332-1.2937-3.6484-1.2937-.5727,0-.7423,.7422-1.4211,.7422-.6574,0-1.1453-.5514-1.7605-.5514-.5938,0-.9758,.403-1.2727,1.2303,0,0-.8274,2.3332-.9334,2.6724-.0212,.0637-.0218,.1352-.0218,.1911,0,.9068,3.5712,3.8817,8.3578,3.8817"/>
      <path d="M240.5385,37.5739c.1697,.806,.1697,.8908,.1697,.9969,0,1.3788-1.5486,2.1423-3.5846,2.1423-4.6031,0-8.6331-2.6937-8.6331-4.4755,0-.276,.0636-.5303,.1485-.7212l.3606-.8911c-.0212,.0637-.0218,.1352-.0218,.1911,0,.9068,3.5712,3.8817,8.3578,3.8817,1.2304,0,3.0121-.2546,3.0121-1.7182,0-.1142-.0032-.2254-.0305-.3367l.2214,.9307h0Z"/>
      <path class="uuid-f3b7cef3-3e59-4552-a460-9415dadac299" d="M247.0812,41.2569h1.7711v-2.6567h1.3648l1.3752,2.6567h2.0109l-1.6019-2.9125c.8634-.3744,1.373-1.1546,1.373-2.0491,0-1.3107-1.0298-2.3196-2.5693-2.3196h-3.7238v7.2813h0Zm3.5709-5.7069c.6034,0,.9422,.3811,.9422,.8364s-.3388,.8363-.9422,.8363h-1.7998v-1.6727h1.7998Zm2.8143,2.9731c0,1.5936,1.3038,2.8354,2.9803,2.8354,.921,0,1.5936-.2484,2.2869-.8279l-1.1072-.983c-.2587,.2691-.6415,.4139-1.0969,.4139-.6209,0-1.1279-.3415-1.3453-.8692h3.9013v-.4139c0-1.7385-1.1693-2.9906-2.763-2.9906-1.6039,0-2.8561,1.2418-2.8561,2.8354m2.8167-1.4808c.5278,0,.9727,.3415,1.1487,.8692h-2.2869c.1655-.5484,.5794-.8692,1.1382-.8692m7.6238,4.2147h1.6727v-7.6058l-1.7711,.3622v2.0825s-.8407-.3622-1.3477-.3622c-1.5936,0-2.8457,1.2314-2.8457,2.8043s1.2314,2.8147,2.7939,2.8147c.5381,0,1.0453-.1655,1.4979-.4759v.3803Zm-2.5974-2.719c0-.7864,.6209-1.3866,1.4383-1.3866,.4554,0,.8692,.1552,1.159,.4243v1.9144c-.3001,.2897-.6933,.4346-1.159,.4346-.8071,0-1.4383-.6002-1.4383-1.3867m6.73,2.719h1.7711v-2.8535h2.9519v2.8535h1.7711v-7.2813h-1.7711v2.8535h-2.9519v-2.8535h-1.7711v7.2813h0Zm9.1004,.0932c.5958,0,1.0768-.1242,1.5263-.4243v.3311h1.6727v-3.508c0-1.3349-.9096-2.0696-2.4254-2.0696-.8468,0-1.6832,.1966-2.5822,.6002l.6063,1.2314c.6482-.2691,1.1919-.4346,1.6727-.4346,.7005,0,1.0559,.2691,1.0559,.8175v.2691c-.3972-.1035-.8154-.1552-1.2545-.1552-1.4218,0-2.2791,.5898-2.2791,1.6454,0,.9624,.7737,1.6971,2.0073,1.6971m-.4762-1.7049c0-.3622,.3622-.5381,.9107-.5381,.3622,0,.6934,.0517,.9934,.1242v.7037c-.3104,.1759-.6726,.2588-1.0452,.2588-.538,0-.8589-.207-.8589-.5485m5.1511-.0114c0,1.1693,.702,1.7385,1.982,1.7385,.3098,0,.8465-.0724,1.1666-.1655v-1.3759c-.2786,.0826-.485,.1136-.7535,.1136-.5264,0-.7224-.1652-.7224-.6606v-2.0612h1.5743v-1.3775h-1.5743v-1.7695l-1.6727,.3622v1.4074h-1.0824v1.3775h1.0824v2.4111h0Z"/>
    </g>
  </g>
  <g>
    <path d="M150.5679,172.8232v-9.7998h1.0771v9.7998h-1.0771Z"/>
    <path d="M156.0415,172.9629c-.5605,0-1.0781-.0859-1.5537-.2588-.4766-.1729-.8828-.4219-1.2188-.749l.5469-.6719c.4102,.2988,.7881,.5156,1.1338,.6514,.3447,.1348,.7002,.2031,1.0635,.2031,.4951,0,.9053-.1172,1.2324-.3506,.3262-.2334,.4902-.5322,.4902-.8955,0-.2803-.0967-.5-.2871-.6582-.1914-.1592-.5068-.2803-.9453-.3643l-1.1201-.1963c-.6631-.1211-1.1504-.3262-1.4629-.6152-.3125-.29-.4688-.6816-.4688-1.1768,0-.3916,.1045-.7363,.3145-1.0352s.502-.5342,.875-.707,.7979-.2598,1.2744-.2598c.4668,0,.9102,.0684,1.3301,.2031,.4199,.1357,.8447,.3525,1.2734,.6514l-.5039,.7139c-.3545-.252-.709-.4365-1.0635-.5527-.3555-.1172-.7139-.1748-1.0781-.1748-.4482,0-.8076,.0977-1.0781,.2939-.2705,.1953-.4062,.4619-.4062,.7979,0,.2793,.0869,.4941,.2598,.6436,.1719,.1494,.4775,.2617,.917,.3359l1.1475,.21c.6904,.1221,1.1943,.332,1.5117,.6299,.3174,.2988,.4766,.7002,.4766,1.2041,0,.4014-.1172,.7637-.3506,1.085-.2334,.3223-.5508,.5771-.9512,.7637-.4023,.1865-.8545,.2793-1.3584,.2793Z"/>
    <path d="M162.3696,172.9629c-.5605,0-1.0781-.0859-1.5537-.2588-.4766-.1729-.8828-.4219-1.2188-.749l.5469-.6719c.4102,.2988,.7881,.5156,1.1338,.6514,.3447,.1348,.7002,.2031,1.0635,.2031,.4951,0,.9053-.1172,1.2324-.3506,.3262-.2334,.4902-.5322,.4902-.8955,0-.2803-.0967-.5-.2871-.6582-.1914-.1592-.5068-.2803-.9453-.3643l-1.1201-.1963c-.6631-.1211-1.1504-.3262-1.4629-.6152-.3125-.29-.4688-.6816-.4688-1.1768,0-.3916,.1045-.7363,.3145-1.0352s.502-.5342,.875-.707,.7979-.2598,1.2744-.2598c.4668,0,.9102,.0684,1.3301,.2031,.4199,.1357,.8447,.3525,1.2734,.6514l-.5039,.7139c-.3545-.252-.709-.4365-1.0635-.5527-.3555-.1172-.7139-.1748-1.0781-.1748-.4482,0-.8076,.0977-1.0781,.2939-.2705,.1953-.4062,.4619-.4062,.7979,0,.2793,.0869,.4941,.2598,.6436,.1719,.1494,.4775,.2617,.917,.3359l1.1475,.21c.6904,.1221,1.1943,.332,1.5117,.6299,.3174,.2988,.4766,.7002,.4766,1.2041,0,.4014-.1172,.7637-.3506,1.085-.2334,.3223-.5508,.5771-.9512,.7637-.4023,.1865-.8545,.2793-1.3584,.2793Z"/>
    <path d="M169.02,172.9355c-.4854,0-.915-.1074-1.2881-.3223-.374-.2148-.665-.5137-.875-.8965-.21-.3818-.3154-.8203-.3154-1.3154v-4.4102h1.0361v4.1162c0,.6064,.1631,1.0869,.4902,1.4414,.3262,.3555,.7695,.5322,1.3301,.5322,.3828,0,.7256-.0889,1.0283-.2656,.3037-.1777,.5576-.4346,.7637-.7705v-5.0537h1.0215v6.832h-1.0215v-1.1064c-.2617,.4014-.5723,.7051-.9316,.9102s-.7725,.3086-1.2383,.3086Z"/>
    <path d="M177.3911,172.9629c-.6348,0-1.209-.1562-1.7217-.4688-.5137-.3125-.9199-.7373-1.2178-1.2734-.2988-.5371-.4482-1.1416-.4482-1.8135s.1416-1.2744,.4268-1.8057c.2842-.5322,.6699-.9521,1.1553-1.2607,.4854-.3076,1.0264-.4619,1.624-.4619,.6064,0,1.1455,.1523,1.6172,.4551,.4707,.3037,.8438,.7139,1.1191,1.2324,.2754,.5176,.4131,1.1035,.4131,1.7568v.3076h-5.3613c.0371,.4668,.165,.8848,.3848,1.2529,.2188,.3691,.5088,.6582,.8682,.8682s.7529,.3154,1.1826,.3154c.3545,0,.6973-.0635,1.0293-.1895,.3311-.126,.6133-.2959,.8467-.5107l.6445,.6865c-.3926,.3076-.7988,.5361-1.2188,.6855s-.8672,.2236-1.3438,.2236Zm-2.3662-4.0596h4.3262c-.0469-.4111-.1699-.7773-.3711-1.0986-.2002-.3223-.4521-.5762-.7559-.7637-.3037-.1865-.6416-.2793-1.0146-.2793-.374,0-.7139,.0908-1.0225,.2725-.3076,.1816-.5625,.4336-.7627,.7559-.2012,.3223-.334,.6934-.3994,1.1133Z"/>
    <path d="M184.9507,172.9209c-.5879,0-1.1191-.1562-1.5957-.4688-.4756-.3125-.8535-.7324-1.1338-1.2598s-.4199-1.1182-.4199-1.7715c0-.6621,.1416-1.2568,.4268-1.7842,.2842-.5273,.6699-.9473,1.1553-1.2607,.4854-.3125,1.0264-.4688,1.624-.4688,.4199,0,.8115,.082,1.1758,.2451s.6816,.3984,.9521,.707v-4.1445l1.0215-.21v10.3184h-1.0215v-.9102c-.2617,.3271-.5791,.5762-.9521,.749s-.7842,.2588-1.2324,.2588Zm.252-.8955c.4014,0,.7705-.0791,1.1064-.2383,.3359-.1582,.6113-.3828,.8262-.6719v-3.3877c-.2246-.2891-.5068-.5156-.8477-.6797-.3398-.1631-.7021-.2441-1.085-.2441-.457,0-.8652,.1113-1.2246,.3359-.3594,.2236-.6436,.5312-.8535,.9238-.21,.3916-.3154,.8398-.3154,1.3438,0,.4951,.1055,.9404,.3154,1.3369s.4941,.71,.8535,.9385,.7676,.3428,1.2246,.3428Z"/>
    <path d="M193.5181,172.8232v-10.0098l1.0225-.21v4.3262c.2607-.3271,.5781-.5791,.9521-.7568,.373-.1768,.7881-.2656,1.2451-.2656,.5977,0,1.1318,.1562,1.6035,.4688,.4707,.3135,.8467,.7334,1.127,1.2607s.4199,1.1172,.4199,1.7705-.1426,1.2461-.4268,1.7783c-.2852,.5312-.668,.9541-1.1484,1.2666s-1.0244,.4688-1.6309,.4688c-.4297,0-.8281-.0859-1.1973-.2588-.3682-.1729-.6885-.417-.959-.7354v.8965h-1.0078Zm2.9678-.7842c.458,0,.8662-.1143,1.2256-.3428s.6436-.541,.8535-.9385c.21-.3965,.3154-.8418,.3154-1.3369,0-.5039-.1055-.9512-.3154-1.3438-.21-.3916-.4941-.7021-.8535-.9307s-.7676-.3428-1.2256-.3428c-.4014,0-.7725,.0811-1.1123,.2441-.3408,.1641-.6191,.3945-.833,.6934v3.3457c.2236,.2988,.5059,.5322,.8467,.7002s.707,.252,1.0986,.252Z"/>
    <path d="M201.7642,175.8896c-.2148,0-.4336-.0332-.6582-.0986v-.9102c.0938,.0186,.1914,.0332,.2949,.042,.1025,.0098,.1904,.0146,.2656,.0146,.2607,0,.4785-.0703,.6514-.21,.1719-.1406,.3193-.3594,.4404-.6582l.5039-1.2461-2.6318-6.832h1.1338l2.0723,5.6143,2.1982-5.6143h1.1338l-3.4443,8.3857c-.1494,.3643-.3125,.6582-.4893,.8818-.1777,.2246-.3828,.3857-.6162,.4834s-.5186,.1475-.8545,.1475Z"/>
    <path d="M211.8999,172.8232v-9.7998h4.0176c.626,0,1.1719,.1191,1.6387,.3564,.4658,.2383,.8301,.5674,1.0918,.9873,.2607,.4199,.3916,.915,.3916,1.4844,0,.6533-.1816,1.2109-.5459,1.6729s-.8633,.7861-1.498,.9727l2.0859,4.3262h-1.1895l-1.9883-4.1855h-2.9258v4.1855h-1.0781Zm1.0781-5.082h2.8555c.6445,0,1.1602-.1699,1.5469-.5107,.3877-.3408,.5811-.7959,.5811-1.3652,0-.5781-.1934-1.0381-.5811-1.3789-.3867-.3408-.9023-.5107-1.5469-.5107h-2.8555v3.7656Z"/>
    <path d="M223.4917,172.9629c-.6348,0-1.209-.1562-1.7217-.4688-.5137-.3125-.9199-.7373-1.2178-1.2734-.2988-.5371-.4482-1.1416-.4482-1.8135s.1416-1.2744,.4268-1.8057c.2842-.5322,.6699-.9521,1.1553-1.2607,.4854-.3076,1.0264-.4619,1.624-.4619,.6064,0,1.1455,.1523,1.6172,.4551,.4707,.3037,.8438,.7139,1.1191,1.2324,.2754,.5176,.4131,1.1035,.4131,1.7568v.3076h-5.3613c.0371,.4668,.165,.8848,.3848,1.2529,.2188,.3691,.5088,.6582,.8682,.8682s.7529,.3154,1.1826,.3154c.3545,0,.6973-.0635,1.0293-.1895,.3311-.126,.6133-.2959,.8467-.5107l.6445,.6865c-.3926,.3076-.7988,.5361-1.2188,.6855s-.8672,.2236-1.3438,.2236Zm-2.3662-4.0596h4.3262c-.0469-.4111-.1699-.7773-.3711-1.0986-.2002-.3223-.4521-.5762-.7559-.7637-.3037-.1865-.6416-.2793-1.0146-.2793-.374,0-.7139,.0908-1.0225,.2725-.3076,.1816-.5625,.4336-.7627,.7559-.2012,.3223-.334,.6934-.3994,1.1133Z"/>
    <path d="M231.0513,172.9209c-.5879,0-1.1191-.1562-1.5957-.4688-.4756-.3125-.8535-.7324-1.1338-1.2598s-.4199-1.1182-.4199-1.7715c0-.6621,.1416-1.2568,.4268-1.7842,.2842-.5273,.6699-.9473,1.1553-1.2607,.4854-.3125,1.0264-.4688,1.624-.4688,.4199,0,.8115,.082,1.1758,.2451s.6816,.3984,.9521,.707v-4.1445l1.0215-.21v10.3184h-1.0215v-.9102c-.2617,.3271-.5791,.5762-.9521,.749s-.7842,.2588-1.2324,.2588Zm.252-.8955c.4014,0,.7705-.0791,1.1064-.2383,.3359-.1582,.6113-.3828,.8262-.6719v-3.3877c-.2246-.2891-.5068-.5156-.8477-.6797-.3398-.1631-.7021-.2441-1.085-.2441-.457,0-.8652,.1113-1.2246,.3359-.3594,.2236-.6436,.5312-.8535,.9238-.21,.3916-.3154,.8398-.3154,1.3438,0,.4951,.1055,.9404,.3154,1.3369s.4941,.71,.8535,.9385,.7676,.3428,1.2246,.3428Z"/>
    <path d="M239.8022,172.8232v-9.7998h1.0771v4.3818h5.6289v-4.3818h1.0771v9.7998h-1.0771v-4.4521h-5.6289v4.4521h-1.0771Z"/>
    <path d="M251.8413,172.9492c-.4854,0-.915-.0889-1.2881-.2656-.373-.1777-.665-.4229-.875-.7354s-.3154-.6738-.3154-1.085c0-.4102,.1074-.7676,.3223-1.0713,.2148-.3027,.5137-.5391,.8965-.707,.3818-.168,.8301-.252,1.3438-.252,.3916,0,.7627,.042,1.1133,.126,.3496,.084,.6738,.2197,.9727,.4062v-.9385c0-.5596-.1494-.9814-.4482-1.2666-.2988-.2842-.7373-.4268-1.3154-.4268-.3174,0-.6426,.0469-.9736,.1396-.3311,.0938-.6973,.2432-1.0986,.4482l-.3779-.7842c.9141-.4385,1.7734-.6582,2.5762-.6582,.8486,0,1.502,.208,1.96,.623,.457,.416,.6855,1.0107,.6855,1.7852v4.5361h-1.0078v-.7979c-.2988,.3076-.6299,.5391-.9941,.6924-.3643,.1543-.7559,.2314-1.1758,.2314Zm-1.498-2.1143c0,.4014,.1562,.7236,.4688,.9658,.3125,.2432,.7256,.3643,1.2393,.3643,.3828,0,.7354-.0654,1.0566-.1953,.3223-.1309,.623-.3271,.9033-.5889v-1.3154c-.2891-.168-.5879-.292-.8955-.3711-.3086-.0791-.6543-.1191-1.0361-.1191-.5234,0-.9434,.1143-1.2607,.3428-.3174,.2295-.4756,.5352-.4756,.917Z"/>
    <path d="M259.4858,172.9629c-.5879,0-1.0342-.1416-1.3369-.4268-.3037-.2842-.4551-.6973-.4551-1.2393v-4.4658h-1.4141v-.8398h1.4141v-1.876l1.0215-.2383v2.1143h1.96v.8398h-1.96v4.2002c0,.3643,.0771,.625,.2314,.7842,.1533,.1582,.4082,.2383,.7627,.2383,.1777,0,.3359-.0146,.4756-.042,.1406-.0283,.3037-.0752,.4902-.1406v.9102c-.1865,.0654-.3828,.1123-.5879,.1396-.2051,.0283-.4062,.042-.6016,.042Z"/>
  </g>
</svg>