<svg id="b27c7066-40dc-4274-9dfe-b79539050fb4" data-name="Layer 1" xmlns="http://www.w3.org/2000/svg" viewBox="0 0 262 180"><defs><style>.b41bd8a1-5eb3-4b50-9101-cc6cc8054eef{fill:#e00;}</style></defs><path d="M188.73,119.44c.19,0,.31-.09.31-.27V119c0-.18-.12-.27-.31-.27h-.48v.73Zm-.48,1.37h-.63v-2.6h1.18a.78.78,0,0,1,.88.82.76.76,0,0,1-.47.78l.58,1h-.69l-.49-.9h-.36v.9Zm2.28-1.16v-.32a1.9,1.9,0,0,0-3.8,0v.32a1.9,1.9,0,0,0,3.8,0Zm-4.39-.16a2.49,2.49,0,1,1,2.49,2.56,2.5,2.5,0,0,1-2.49-2.56Zm-35.78-41-1.13-3.25H130.6v3.25Zm2.16,6.21-1.14-3.25H130.6v3.25Zm13.86,37.26h16.26v-3.26H166.38v3.26Zm0-6.21h16.26v-3.25H166.38v3.25Zm0-6.21h9.75v-3.25h-9.75v3.25Zm9.75-9.46h-9.75v3.25h9.75V100Zm-9.75-3h9.75V93.83h-18.6l-.91,2.63-.92-2.63H137.1v3.25h9.76v-3l1,3h17.42l1-3v3Zm9.75-9.46H159.69l-1.13,3.25h17.57V87.62Zm-39,15.67h9.76V100H137.1v3.25Zm0,6.21h9.76v-3.25H137.1v3.25Zm-6.5,6.21h16.26v-3.25H130.6v3.25Zm0,6.21h16.26v-3.26H130.6v3.26ZM164,75.2l-1.13,3.25h19.76V75.2Zm-3.29,9.46h21.92V81.41H161.85l-1.13,3.25ZM137.1,90.87h17.57l-1.12-3.25H137.1v3.25Zm13,12.42h13.06l1.14-3.25H149l1.14,3.25Zm2.18,6.21H161l1.14-3.25h-11l1.14,3.25Zm2.18,6.21h4.34l1.14-3.25h-6.62l1.14,3.25Zm2.16,6.21,1.14-3.26h-2.26l1.12,3.26Zm-65,0h24a12.3,12.3,0,0,0,8.37-3.26H91.57v3.26ZM117,106.25v3.25h10.94a12.38,12.38,0,0,0-.44-3.25ZM98.07,109.5h9.76v-3.25H98.07v3.25ZM117,90.87h10.5a12.49,12.49,0,0,0,.44-3.25H117v3.25Zm-18.93,0h9.76V87.62H98.07v3.25ZM115.52,75.2h-24v3.25h32.32a12.33,12.33,0,0,0-8.37-3.25Zm10.75,6.21H91.57v3.25h36a12.17,12.17,0,0,0-1.31-3.25ZM98.07,93.83v3.25h25.48a12.69,12.69,0,0,0,2.72-3.25ZM123.55,100H98.07v3.25h28.2a12.36,12.36,0,0,0-2.72-3.25Zm-32,15.67h34.7a12.44,12.44,0,0,0,1.31-3.25h-36v3.25Zm-26-37.26H88.31V75.2H65.54v3.25Zm0,6.21H88.31V81.41H65.54v3.25Zm16.27,3H72.05v3.25h9.76V87.62Zm-9.76,9.46h9.76V93.83H72.05v3.25Zm0,6.21h9.76V100H72.05v3.25Zm0,6.21h9.76v-3.25H72.05v3.25Zm-6.51,6.21H88.31v-3.25H65.54v3.25Zm0,3H88.31v3.26H65.54v-3.26Z"/><path class="b41bd8a1-5eb3-4b50-9101-cc6cc8054eef" d="M191.79,80.15a11.71,11.71,0,0,1-.31,2.39c-1,3.12-5,3.77-9.63,2.34-10.45-3.22-17.7-12.16-16.45-16.2a4.21,4.21,0,0,1,.84-1.53c-3.81-1-8.88-1.79-10.2,2.49-2.17,7,11.8,20.83,25,24.9,10.1,3.12,14.06-.66,15.18-4.27.88-2.84-.58-6.82-4.42-10.12m-8,.31c2.79.86,7,1.53,8-1.79a3,3,0,0,0,.16-.78l.57-7.74c.11-1.71,0-2.53-2.37-4.79-1.82-1.78-6-5.06-7.37-5.49s-2.2,1.16-3.74.69-2.21-2.06-3.61-2.49-2.49.23-3.75,1.9c0,0-3.51,4.72-4,5.41a1.52,1.52,0,0,0-.18.42c-.64,2.06,5.38,11.31,16.24,14.66"/><path d="M191.79,80.15a11.71,11.71,0,0,1-.31,2.39c-1,3.12-5,3.77-9.63,2.34-10.45-3.22-17.7-12.16-16.45-16.2a4.21,4.21,0,0,1,.84-1.53l1.44-1.77a1.52,1.52,0,0,0-.18.42c-.64,2.06,5.38,11.31,16.24,14.66,2.79.86,7,1.53,8-1.79a3,3,0,0,0,.16-.78l-.15,2.26Z"/></svg>