<svg id="e507a65c-745f-4d23-bb72-91fcabb4cffc" data-name="Layer 1" xmlns="http://www.w3.org/2000/svg" viewBox="0 0 262 180"><defs><style>.a0c1194b-fa24-4245-9e7e-c8dac892593c{fill:#316dc1;}.fd39c6e9-55aa-4156-a9b9-b3a64f9d86f4{fill:#5f0000;}</style></defs><path class="a0c1194b-fa24-4245-9e7e-c8dac892593c" d="M91.12,89.88a13.63,13.63,0,0,1,.47,2.76c0,3.82-4.29,5.93-9.93,5.93-12.75,0-23.9-7.45-23.9-12.39a4.88,4.88,0,0,1,.41-2c-4.58.23-10.52,1-10.52,6.28,0,8.57,20.33,19.15,36.42,19.15,12.33,0,15.44-5.58,15.44-10,0-3.46-3-7.4-8.39-9.75M82.25,93c3.4,0,8.34-.71,8.34-4.76a3.58,3.58,0,0,0-.09-.93l-2-8.82c-.47-1.94-.88-2.82-4.28-4.52-2.65-1.35-8.4-3.59-10.11-3.59s-2,2.06-3.93,2.06S67,70.91,65.27,70.91s-2.7,1.12-3.52,3.41c0,0-2.29,6.46-2.58,7.4a1.63,1.63,0,0,0-.06.53C59.11,84.76,69,93,82.25,93"/><path d="M91.12,89.88a13.63,13.63,0,0,1,.47,2.76c0,3.82-4.29,5.93-9.93,5.93-12.75,0-23.9-7.45-23.9-12.39a4.88,4.88,0,0,1,.41-2l1-2.47a1.63,1.63,0,0,0-.06.53C59.11,84.76,69,93,82.25,93c3.4,0,8.34-.71,8.34-4.76a3.58,3.58,0,0,0-.09-.93l.62,2.57Z"/><path class="fd39c6e9-55aa-4156-a9b9-b3a64f9d86f4" d="M109.09,100.14H114v-7.3h3.76l3.78,7.3h5.5l-4.41-8a6.06,6.06,0,0,0,3.78-5.64c0-3.61-2.84-6.39-7.08-6.39H109.09v20Zm9.8-15.84a2.28,2.28,0,1,1,0,4.53H114V84.3Zm8,8.28a8,8,0,0,0,8.25,7.85,9.11,9.11,0,0,0,6.33-2.29l-3.06-2.72a4.14,4.14,0,0,1-3,1.14,3.93,3.93,0,0,1-3.73-2.4h10.81V93c0-4.81-3.24-8.28-7.65-8.28a7.78,7.78,0,0,0-7.91,7.85m7.82-4.07a3.36,3.36,0,0,1,3.18,2.41h-6.33a3.16,3.16,0,0,1,3.15-2.41m21,11.63h4.58v-21l-4.64,1v5.7a7.81,7.81,0,1,0-4,14.56A6.83,6.83,0,0,0,155.74,99v1.11Zm-7.25-7.59a3.84,3.84,0,0,1,4-3.84,4.68,4.68,0,0,1,3.21,1.18v5.3a4.47,4.47,0,0,1-3.21,1.2,3.85,3.85,0,0,1-4-3.84m18.78,7.59h4.93V92.29h8.25v7.85h4.93v-20h-4.93V87.8H172.2V80.09h-4.93v20Zm25.19.26a7.09,7.09,0,0,0,4.18-1.17v.91h4.58V90.43c0-3.69-2.49-5.73-6.64-5.73a16.94,16.94,0,0,0-7.08,1.66l1.66,3.41a12.51,12.51,0,0,1,4.58-1.2c1.92,0,2.9.74,2.9,2.26v.75a13.34,13.34,0,0,0-3.44-.43c-3.9,0-6.25,1.63-6.25,4.55,0,2.67,2.12,4.7,5.51,4.7M191,95.62c0-1,1-1.49,2.52-1.49a11.69,11.69,0,0,1,2.75.34v2a5.82,5.82,0,0,1-2.89.72c-1.49,0-2.38-.58-2.38-1.52m14.42-.09c0,3.24,1.95,4.82,5.5,4.82a14.71,14.71,0,0,0,3.24-.46V96.13a6.68,6.68,0,0,1-2.09.32c-1.46,0-2-.46-2-1.84V88.86h4.24V85h-4.24v-4.9l-4.65,1V85H202.4v3.87h3.06v6.67Z"/></svg>