<svg xmlns="http://www.w3.org/2000/svg" xmlns:xlink="http://www.w3.org/1999/xlink" width="555" height="443.73696" viewBox="0 0 555 443.73696"><defs><style>.a{fill:none;stroke:#000;stroke-linecap:round;stroke-linejoin:round;stroke-width:2.18115px;}.b{fill:#f3f3f3;}.c{fill:#e2eaf6;}.d{fill:#e00;}.e{fill:#8f0000;isolation:isolate;}.f{fill:#316dc1;}.g{fill:#261a4c;}.h{fill:#fff;}.i{clip-path:url(#a);}.j{fill:#aaa;}</style><clipPath id="a"><rect x="242.92776" y="207.20857" width="59.11989" height="59.11989"/></clipPath></defs><path class="a" d="M296.23658,129.37009h10.5468a9.98163,9.98163,0,0,1,9.98163,9.98163v21.09361a9.98162,9.98162,0,0,0,9.98162,9.98162h.63378a9.98162,9.98162,0,0,0,9.98163-9.98162V112.23384a9.98162,9.98162,0,0,1,9.98162-9.98162h.56518a9.98162,9.98162,0,0,1,9.98163,9.98162v53.67678a9.98162,9.98162,0,0,0,9.98163,9.98162h0a9.98162,9.98162,0,0,0,9.98162-9.98162V133.14775a9.98163,9.98163,0,0,1,9.98163-9.98163h.56518a9.98162,9.98162,0,0,1,9.98162,9.98163v38.18373"/><path class="b" d="M294.48791,128.02554l-31.05792-9.208v21.09883l31.05792-9.208A1.39911,1.39911,0,0,0,294.48791,128.02554Z"/><circle class="c" cx="113.19758" cy="178.72973" r="86.30144"/><circle class="c" cx="389.52781" cy="328.37587" r="86.30144"/><path class="d" d="M76.28512,118.82068v21.09883H65.882a2.84669,2.84669,0,0,1-2.84669-2.84669V121.66737a2.84668,2.84668,0,0,1,2.84669-2.84669Z"/><path class="e" d="M76.28512,133.14182v6.77436H65.8863a2.84521,2.84521,0,0,1-2.85348-2.84321v-3.93115Z"/><rect class="f" x="85.74931" y="118.82068" width="177.68068" height="21.09883"/><rect class="f" x="120.85784" y="175.88801" width="279.66117" height="213.37522"/><path class="g" d="M199.49558,178.72518a86.30432,86.30432,0,0,1-78.63415,85.9628V175.89224h78.58284C199.4853,176.83653,199.49558,177.78089,199.49558,178.72518Z"/><path d="M199.49558,178.72518a86.30432,86.30432,0,0,1-78.63415,85.9628V175.89224h78.58284C199.4853,176.83653,199.49558,177.78089,199.49558,178.72518Z"/><path class="h" d="M410.89741,378.1435H131.97757V162.97678H410.89741Z"/><path class="d" d="M343.44711,321.7891c0-4.12228,3.36877-6.95892,8.28851-6.95892a12.23287,12.23287,0,0,1,7.13565,2.08378l.57673-2.61523c.88623-3.98895-.79814-6.028-4.91981-6.028a14.86626,14.86626,0,0,0-6.20538,1.63967l-.88622-2.52592a19.6467,19.6467,0,0,1,7.66777-1.773c5.806,0,8.68729,3.19135,7.53438,8.42122l-3.014,13.51838h-3.14665l.44341-2.0391a9.9374,9.9374,0,0,1-6.29406,2.34923C346.32843,327.86115,343.44711,325.46789,343.44711,321.7891Zm8.11122,3.63479a9.14737,9.14737,0,0,0,5.89469-2.21647l.93083-4.12228a9.89117,9.89117,0,0,0-6.33825-1.86113c-3.23541,0-5.54,1.773-5.54,4.21032.00015,2.52656,1.86128,3.98929,5.05266,3.98929Z"/><path class="f" d="M191.54027,95.08132c-21.04013-18.40254-50.89363-29.83461-77.90777-29.83461-.07481-.00031-.1469-.00031-.22141-.00031a113.72475,113.72475,0,0,0-81.66088,34.7958A4.27491,4.27491,0,1,0,33.6056,101.677,111.2374,111.2374,0,0,1,113.63,67.71777c26.444,0,55.67406,11.19781,76.28313,29.22339a1.2356,1.2356,0,0,0,1.627-1.86h0Z"/><path class="f" d="M49.32093,267.93465a4.23724,4.23724,0,0,0-1.84093.42249A111.53706,111.53706,0,0,1,10.406,137.5373a4.26662,4.26662,0,1,0-2.23958-1.05309A114.01181,114.01181,0,0,0,45.63554,270.06192a4.26009,4.26009,0,1,0,3.68539-2.12727Z"/><path class="f" d="M498.63884,291.03122a114.36375,114.36375,0,0,0-54.68591-64.02442c.00057-.02762.00415-.05443.00415-.08222a4.33007,4.33007,0,1,0-.77771,2.47019,112.63046,112.63046,0,0,1,47.91481,148.5238,116.21226,116.21226,0,0,1-7.12709,12.54013,4.32823,4.32823,0,1,0,2.21232,1.13477,118.73949,118.73949,0,0,0,7.13545-12.59087A114.3673,114.3673,0,0,0,498.63884,291.03122Z"/><path class="f" d="M458.04206,415.46572A4.31565,4.31565,0,0,0,453.95753,421.2a112.81766,112.81766,0,0,1-154.39512-25.1629c-.10674-.13332-.19912-.26661-.29255-.4-.12307-.17552-.24675-.35107-.38735-.52663a1.23564,1.23564,0,0,0-1.92926,1.54441c.10674.13332.199.26661.29255.4.12307.17552.24674.35108.36258.49466a114.45382,114.45382,0,0,0,75.78632,44.9851,116.84154,116.84154,0,0,0,16.688,1.20235,114.06917,114.06917,0,0,0,65.32146-20.52583,4.32255,4.32255,0,1,0,2.63786-7.74541Z"/><rect x="242.92776" y="207.20857" width="59.11989" height="59.11989"/><rect x="242.92776" y="207.20857" width="59.11989" height="59.11989"/><rect x="242.92776" y="207.20857" width="59.11989" height="59.11989"/><g class="i"><rect x="242.92776" y="204.30509" width="76.97321" height="76.97323"/></g><rect class="d" x="171.94682" y="207.20857" width="59.11989" height="59.11989"/><rect class="b" x="311.06698" y="206.83793" width="59.49054" height="59.49054"/><path class="d" d="M185.16626,295.8123h4.12195L202.00875,326.838h-3.72318l-3.90018-9.7509H179.75874L175.814,326.838h-3.546Zm8.0222,18.34952-6.072-15.15811-6.16075,15.15811Z"/><path class="d" d="M203.7818,320.54389c0-4.16626,3.41278-6.78088,8.86434-6.78088a14.38192,14.38192,0,0,1,6.51548,1.507v-2.92529c0-3.546-2.03861-5.36323-5.895-5.36323a14.72384,14.72384,0,0,0-6.95854,1.95046l-1.24095-2.52665a18.86477,18.86477,0,0,1,8.50992-2.21647c5.62892,0,8.77593,2.74855,8.77593,7.7124v14.93671h-3.19135v-2.17182a10.57773,10.57773,0,0,1-7.18024,2.57055C207.10592,327.23672,203.7818,324.53336,203.7818,320.54389Zm8.77569,4.12227a8.848,8.848,0,0,0,6.60389-2.57055v-4.16632a10.84982,10.84982,0,0,0-6.42677-1.773c-3.546,0-5.80628,1.68439-5.80628,4.299.00022,2.4824,2.305,4.2108,5.62916,4.2108Z"/><path class="d" d="M255.3182,296.75216h6.16137l12.01134,31.0257h-5.71732l-3.14733-8.68729H251.86142L248.67,327.77786h-5.54Zm7.75706,18.17217-4.7871-13.20831L253.413,314.92433Z"/><path class="d" d="M275.75146,321.39516c0-3.98895,3.236-6.51487,8.46588-6.51487a13.72385,13.72385,0,0,1,5.984,1.37366v-2.43807c0-2.92529-1.68433-4.43233-5.09771-4.43233a15.3619,15.3619,0,0,0-6.47082,1.729l-1.77249-3.63478a21.32,21.32,0,0,1,9.21882-2.26045c5.76193,0,9.08606,2.92528,9.08606,8.06711v14.49325h-4.96386v-2.2605a9.27259,9.27259,0,0,1-6.60475,2.61523C278.94283,328.13259,275.75146,325.38467,275.75146,321.39516Zm9.21938,3.236a7.92057,7.92057,0,0,0,5.23047-1.81709v-3.63475a11.49338,11.49338,0,0,0-5.14175-1.0636c-2.83664,0-4.60969,1.241-4.60969,3.19135,0,2.0385,1.773,3.32406,4.52093,3.32406Z"/><path class="d" d="M330.01808,296.52538h4.033l5.40723,31.02565h-3.41278l-1.59568-9.7509H320.97588l-5.62924,9.7509h-3.76747Zm3.98888,18.57087-2.5712-15.51282-8.90869,15.51282Z"/><rect x="85.74931" y="133.14182" width="177.68068" height="6.77768"/><path d="M288.6232,132.52158V126.2123l8.11925,2.40787a.78061.78061,0,0,1-.00028,1.49686Z"/><rect class="b" x="76.28512" y="118.82068" width="9.46419" height="21.09883"/><rect class="j" x="76.28512" y="133.14182" width="9.46419" height="6.77769"/></svg>