<?xml version="1.0" encoding="UTF-8"?>
<svg id="Layer_1" data-name="Layer 1" xmlns="http://www.w3.org/2000/svg" viewBox="0 0 1920 1080">
  <defs>
    <style>
      .cls-1 {
        fill: #e00;
      }

      .cls-2 {
        fill: #fff;
      }
    </style>
  </defs>
  <rect width="1920" height="1080"/>
  <g id="Logo_A_-_Reverse" data-name="Logo A - Reverse">
    <path class="cls-1" d="m641.78,559.54c22.24,0,54.42-4.59,54.42-31.04.07-2.04-.12-4.08-.55-6.08l-13.24-57.53c-3.06-12.66-5.74-18.4-27.96-29.51-17.24-8.82-54.81-23.38-65.92-23.38-10.35,0-13.35,13.33-25.69,13.33s-20.69-9.96-31.8-9.96-17.62,7.27-22.99,22.22c0,0-14.95,42.17-16.87,48.28-.31,1.12-.44,2.29-.39,3.45,0,16.39,64.53,70.13,151,70.13m57.83-20.23c3.08,14.56,3.08,16.09,3.08,18.01,0,24.89-27.98,38.7-64.76,38.7-83.13.05-155.95-48.66-155.95-80.85,0-4.48.91-8.92,2.68-13.03-29.9,1.49-68.6,6.83-68.6,41,0,55.96,132.6,124.94,237.6,124.94,80.5,0,100.8-36.41,100.8-65.16,0-22.61-19.56-48.28-54.81-63.61"/>
    <path d="m699.61,539.24c3.08,14.56,3.08,16.09,3.08,18.01,0,24.89-27.98,38.7-64.76,38.7-83.13.05-155.95-48.66-155.95-80.85,0-4.48.91-8.92,2.68-13.03l6.51-16.11c-.3,1.1-.43,2.24-.39,3.38,0,16.39,64.53,70.13,151,70.13,22.24,0,54.42-4.59,54.42-31.04.07-2.04-.12-4.08-.55-6.08l3.96,16.89Z"/>
    <path class="cls-2" d="m1445.28,575.29c0,21.14,12.68,31.41,35.8,31.41,7.12-.18,14.19-1.18,21.09-2.99v-23.73c-4.4,1.4-9,2.09-13.62,2.06-9.52,0-13.05-2.98-13.05-11.93v-38.38h28.44v-24.89h-28.44v-32l-30.22,6.54v25.46h-19.56v24.89h19.56v43.56Zm-93.08,1.36c0-6.54,6.56-9.72,16.46-9.72,6.05.04,12.08.79,17.96,2.24v12.71c-5.79,3.16-12.3,4.77-18.9,4.68-9.71,0-15.52-3.73-15.52-9.9m8.89,31.22c10.67,0,19.27-2.24,27.31-7.66v6.19h30.22v-63.4c0-24.11-16.4-37.33-43.77-37.33-15.29,0-30.4,3.56-46.66,10.84l10.95,22.26c11.7-4.87,21.54-7.86,30.2-7.86,12.56,0,19.06,4.85,19.06,14.77v4.65c-7.33-1.9-14.87-2.84-22.44-2.81-25.44,0-40.76,10.67-40.76,29.74,0,17.39,13.83,30.65,35.89,30.65m-164.82-1.52h32.12v-51.56h53.33v51.56h32v-131.56h-32v49.78h-53.33v-49.78h-32l-.12,131.56Zm-121.44-49.75c0-14.22,11.22-25.07,25.99-25.07,7.69-.16,15.15,2.59,20.91,7.68v34.58c-5.63,5.32-13.16,8.18-20.91,7.93-14.58,0-25.99-10.84-25.99-25.05m46.9,49.68h30.22v-137.49l-32,6.54v37.08s-15.3-6.62-24.14-6.54c-28.78,0-51.41,22.24-51.41,50.67-.34,27.73,21.86,50.5,49.6,50.84.3,0,.6,0,.89,0,9.54.05,18.84-2.96,26.85-8.59v7.49Zm-137.67-76.14c9.53,0,17.56,6.17,20.75,15.7h-41.24c2.99-9.83,10.47-15.7,20.5-15.7m-50.95,26.76c0,28.8,23.56,51.24,53.83,51.24,16.64,0,28.8-4.5,41.33-14.97l-20.02-17.78c-4.68,4.87-11.59,7.48-19.8,7.48-10.57.3-20.24-5.94-24.32-15.7h70.49v-7.52c0-31.41-21.12-54.03-49.92-54.03-28.05-.42-51.13,21.97-51.55,50.02,0,.4,0,.8,0,1.2m-50.88-53.67c10.91,0,17.02,6.87,17.02,15.11s-6.11,15.11-17.02,15.11h-32.53v-30.22h32.53Zm-64.53,103.11h32v-48h24.64l24.86,48h36.44s-28.95-52.63-28.95-52.63c15.05-6.12,24.87-20.78,24.8-37.03,0-23.68-18.6-41.9-46.46-41.9h-67.33v131.56Z"/>
  </g>
</svg>