<svg id="a16d9624-b775-4a08-8ee7-d45967e94c4b" data-name="Layer 1" xmlns="http://www.w3.org/2000/svg" viewBox="0 0 360 244.02"><defs><style>.e1007fe7-ffe8-4c72-a2d0-8cdd5ac30ea9{fill:none;}.a4886122-fb29-4181-9253-6a0bccb9e5da{fill:#fff;}.a3b7e846-08c0-485a-9c04-97767e6cf7a0{fill:red;}</style></defs><rect class="e1007fe7-ffe8-4c72-a2d0-8cdd5ac30ea9" width="360" height="244.02"/><path class="a4886122-fb29-4181-9253-6a0bccb9e5da" d="M217.87,75.63a23.19,23.19,0,0,0-23.19,23.19V145.2a23.19,23.19,0,0,0,23.19,23.19h46.37a23.19,23.19,0,0,0,23.19-23.19V98.82a23.19,23.19,0,0,0-23.19-23.19Z"/><path d="M264.24,75.63H217.87a23.19,23.19,0,0,0-23.19,23.19V145.2a23.19,23.19,0,0,0,23.19,23.19h46.37a23.19,23.19,0,0,0,23.19-23.19V98.82a23.19,23.19,0,0,0-23.19-23.19Zm0,3.22a20,20,0,0,1,20,20V145.2a20,20,0,0,1-20,20H217.87a20,20,0,0,1-20-20V98.82a20,20,0,0,1,20-20h46.37"/><path d="M264.24,139.08h-43.8a1.61,1.61,0,0,1-1.61-1.61V127.16a1.61,1.61,0,0,1,3.22,0v8.7h40.58v-27.7H235.9a1.61,1.61,0,0,1,0-3.22h28.34a1.61,1.61,0,0,1,1.61,1.61v30.92a1.61,1.61,0,0,1-1.61,1.61Z"/><path d="M256.51,115.89h-2.57a1.61,1.61,0,1,1,0-3.22h2.57a1.61,1.61,0,1,1,0,3.22Z"/><path class="a3b7e846-08c0-485a-9c04-97767e6cf7a0" d="M246.21,115.89h-7.73a1.61,1.61,0,1,1,0-3.22h7.73a1.61,1.61,0,0,1,0,3.22Z"/><path class="a3b7e846-08c0-485a-9c04-97767e6cf7a0" d="M256.51,123.62h-10.3a1.61,1.61,0,0,1,0-3.22h10.3a1.61,1.61,0,1,1,0,3.22Z"/><path d="M238.48,123.62H235.9a1.61,1.61,0,0,1,0-3.22h2.58a1.61,1.61,0,1,1,0,3.22Z"/><path d="M256.51,131.35h-2.57a1.61,1.61,0,1,1,0-3.22h2.57a1.61,1.61,0,1,1,0,3.22Z"/><path class="a3b7e846-08c0-485a-9c04-97767e6cf7a0" d="M246.21,131.35h-7.73a1.61,1.61,0,1,1,0-3.22h7.73a1.61,1.61,0,0,1,0,3.22Z"/><path d="M230.75,131.35h-2.58a1.61,1.61,0,1,1,0-3.22h2.58a1.61,1.61,0,1,1,0,3.22Z"/><path class="a3b7e846-08c0-485a-9c04-97767e6cf7a0" d="M223,117a5.26,5.26,0,1,1,5.26-5.26A5.27,5.27,0,0,1,223,117Zm10.3-6.87h-2A8.59,8.59,0,0,0,230,107l1.4-1.41a1.61,1.61,0,1,0-2.27-2.27l-1.41,1.4a8.41,8.41,0,0,0-3.13-1.29v-2a1.61,1.61,0,1,0-3.22,0v2a8.45,8.45,0,0,0-3.14,1.29l-1.4-1.4a1.61,1.61,0,0,0-2.28,2.27L216,107a8.41,8.41,0,0,0-1.29,3.13h-2a1.61,1.61,0,0,0,0,3.22h2a8.39,8.39,0,0,0,1.29,3.14l-1.4,1.4a1.61,1.61,0,0,0,0,2.28,1.62,1.62,0,0,0,2.28,0l1.4-1.4a8.45,8.45,0,0,0,3.14,1.29v2a1.61,1.61,0,1,0,3.22,0v-2a8.41,8.41,0,0,0,3.13-1.29l1.41,1.4a1.61,1.61,0,1,0,2.27-2.28l-1.4-1.4a8.57,8.57,0,0,0,1.3-3.14h2a1.61,1.61,0,1,0,0-3.22Z"/><path d="M95.76,166.78A21.6,21.6,0,0,1,74.18,145.2V98.82A21.6,21.6,0,0,1,95.76,77.24h46.37a21.6,21.6,0,0,1,21.58,21.58V145.2a21.6,21.6,0,0,1-21.58,21.58Z"/><path d="M142.13,75.63H95.76A23.19,23.19,0,0,0,72.57,98.82V145.2a23.19,23.19,0,0,0,23.19,23.19h46.37a23.19,23.19,0,0,0,23.19-23.19V98.82a23.19,23.19,0,0,0-23.19-23.19Zm0,3.22a20,20,0,0,1,20,20V145.2a20,20,0,0,1-20,20H95.76a20,20,0,0,1-20-20V98.82a20,20,0,0,1,20-20h46.37"/><path class="a4886122-fb29-4181-9253-6a0bccb9e5da" d="M115.86,120.23l9.35,7L119,113.38l-3.09,6.85Zm-7.22,13.7-.66-.15a1.62,1.62,0,0,1-.81-2.13l5.21-11.54,0,0,5.08-11.26a1.68,1.68,0,0,1,2.93,0l10.31,22.85a1.61,1.61,0,0,1-2.44,1.95L114.5,123.24,110.11,133a1.63,1.63,0,0,1-1.47,1Z"/><path class="a3b7e846-08c0-485a-9c04-97767e6cf7a0" d="M119,96.57A25.44,25.44,0,1,0,144.39,122,25.47,25.47,0,0,0,119,96.57Zm0,54.1A28.66,28.66,0,1,1,147.61,122,28.69,28.69,0,0,1,119,150.67Z"/></svg>