<svg id="b7b7cb74-efb7-459e-a69a-0a3937c1e96e" data-name="Layer 1" xmlns="http://www.w3.org/2000/svg" viewBox="0 0 555 320"><defs><style>.ac68c8fd-32bf-4c8f-bed9-21cb83c3b68f{fill:#e00;}</style></defs><path d="M236.79748,76.71743v7.072h6.16568c2.4782,0,4.10983-1.42036,4.10983-3.53594,0-2.14581-1.63163-3.5361-4.10983-3.5361Zm-3.17332-2.78059h9.61062c4.20125,0,7.04212,2.53877,7.04212,6.2562a5.97563,5.97563,0,0,1-4.35235,5.80275l4.715,9.09708h-3.50575L242.7516,86.419h-5.95412v8.67389h-3.17332v-21.156Z"/><path d="M254.59828,86.11665h9.12745a4.5887,4.5887,0,0,0-9.12745,0Zm5.04747,9.24828a7.91637,7.91637,0,0,1-8.07005-7.97884,7.73013,7.73013,0,0,1,7.70738-7.91834c4.23109,0,7.43426,3.50583,7.43426,8.03914v.87656H254.56805a5.18888,5.18888,0,0,0,5.1982,4.4125,5.98191,5.98191,0,0,0,3.89865-1.36l1.93459,1.904a9.17489,9.17489,0,0,1-5.95374,2.025Z"/><path d="M277.144,92.7052a5.54315,5.54315,0,0,0,4.26131-1.84351V83.88021a5.62423,5.62423,0,0,0-4.26131-1.81344,5.32,5.32,0,0,0,0,10.63843Zm4.29153.93708a7.266,7.266,0,0,1-4.71464,1.6924,7.93352,7.93352,0,1,1,4.68442-14.35582v-7.042l3.02221-.66477v21.8208h-2.992V93.64228Z"/><polygon points="294.673 73.937 297.846 73.937 297.846 83.004 309.089 83.004 309.089 73.937 312.262 73.937 312.262 95.093 309.089 95.093 309.089 85.875 297.846 85.875 297.846 95.093 294.673 95.093 294.673 73.937 294.673 73.937"/><path d="M321.47935,93.12835a5.91461,5.91461,0,0,0,4.08-1.45058V89.018a7.99089,7.99089,0,0,0-3.95908-.93684c-2.20621,0-3.56621.99736-3.56621,2.53872,0,1.48085,1.39021,2.50847,3.44531,2.50847Zm-6.34663-2.448c0-2.90139,2.35732-4.68457,6.22576-4.68457a10.85626,10.85626,0,0,1,4.20085.84633V85.21c0-2.17611-1.29916-3.26406-3.74753-3.26406a10.93636,10.93636,0,0,0-4.77509,1.29955l-1.11822-2.26665a14.398,14.398,0,0,1,6.31642-1.57163c3.98969,0,6.28657,1.96451,6.28657,5.50064v10.185h-2.96215V93.76309a7.29607,7.29607,0,0,1-4.7747,1.60184c-3.35505,0-5.65191-1.90418-5.65191-4.68457Z"/><path d="M333.38723,82.2481h-3.26436V79.70956h3.26436v-3.929l2.992-.7253v4.65431h4.53369V82.2481h-4.53369v8.34152c0,1.57159.635,2.14585,2.26667,2.14585a5.938,5.938,0,0,0,2.20656-.36267v2.53873a10.00741,10.00741,0,0,1-2.87145.4534c-2.992,0-4.59377-1.42051-4.59377-4.08009V82.2481Z"/><path d="M243.74893,109.35726a6.89328,6.89328,0,1,0,6.70931,6.891,6.65635,6.65635,0,0,0-6.70931-6.891Zm0,17.80118a10.91442,10.91442,0,1,1,11.21239-10.91017,10.94817,10.94817,0,0,1-11.21239,10.91017Z"/><path d="M261.82136,115.88561v6.19552a5.302,5.302,0,0,0,3.74715,1.45066,4.56382,4.56382,0,1,0,0-9.12744,5.07608,5.07608,0,0,0-3.74715,1.48126Zm-4.14043-4.80569h4.07961v1.29956a7.14172,7.14172,0,0,1,4.47286-1.5111,8.08483,8.08483,0,0,1-.12051,16.16918,7.82262,7.82262,0,0,1-4.29153-1.23911v7.34435h-4.14043V111.07992Z"/><path d="M280.31689,117.39671h7.70663a4.062,4.062,0,0,0-3.83821-3.17368,3.95481,3.95481,0,0,0-3.86842,3.17368Zm4.32176,9.73152a8.19734,8.19734,0,0,1-8.46256-8.16,8.03755,8.03755,0,0,1,8.09951-8.16035c4.47324,0,7.79768,3.62665,7.79768,8.46256v1.08764H280.34711a4.53627,4.53627,0,0,0,4.47249,3.29457,4.95865,4.95865,0,0,0,3.47592-1.26933l2.72,2.47821a9.43881,9.43881,0,0,1-6.37685,2.26666Z"/><path d="M294.61155,111.07992H298.752V112.319a6.75955,6.75955,0,0,1,4.41242-1.54133,5.974,5.974,0,0,1,6.22612,6.25634v9.792H305.2501v-9.1875a3.07046,3.07046,0,0,0-3.26436-3.29423,3.77242,3.77242,0,0,0-3.23376,1.57118V126.826h-4.14043V111.07992Z"/><path d="M319.57461,120.32826c2.47783,2.14576,4.624,3.08264,7.16226,3.08264,2.62932,0,4.32213-1.02754,4.32213-2.65953,0-1.45066-.96749-2.176-3.47553-2.5991l-4.20087-.72534c-3.627-.60443-5.531-2.56924-5.531-5.65189,0-3.9591,3.20356-6.40709,8.34131-6.40709a14.6993,14.6993,0,0,1,8.73456,2.96177l-2.35732,3.264a10.76627,10.76627,0,0,0-6.67946-2.53866c-2.35732,0-3.86843.93688-3.86843,2.38754,0,1.29955.84622,1.96444,3.02221,2.29688l3.98969.66488c4.23109.6955,6.31643,2.68977,6.31643,5.95377,0,4.14078-3.47555,6.77011-8.91554,6.77011a14.0268,14.0268,0,0,1-9.36921-3.65687l2.50881-3.1431Z"/><path d="M339.2488,114.55547H336.015v-3.47555h3.23375v-4.01953l4.1408-.93688v4.95641h4.47251v3.47555H343.3896v6.98167c0,1.48088.57386,2.02488,2.17562,2.02488a6.36789,6.36789,0,0,0,2.2062-.36266v3.38487a12.8425,12.8425,0,0,1-3.20314.48355c-3.50614,0-5.31948-1.60177-5.31948-4.68442v-7.82789Z"/><path d="M353.93636,120.2376a3.0942,3.0942,0,0,0,3.26436,3.32442,3.78986,3.78986,0,0,0,3.264-1.57154V111.07992h4.1408V126.826h-4.1408v-1.26933a6.70356,6.70356,0,0,1-4.44265,1.57155,5.998,5.998,0,0,1-6.22574-6.28619v-9.76212h4.14v9.15768Z"/><path d="M375.78691,123.50159a5.05044,5.05044,0,0,0,3.74755-1.51111v-6.13509a5.19743,5.19743,0,0,0-3.74755-1.48126,4.56383,4.56383,0,1,0,0,9.12746Zm3.808,2.02487a7.13992,7.13992,0,0,1-4.47248,1.5111,8.08483,8.08483,0,0,1,.12052-16.16918,7.825,7.825,0,0,1,4.29153,1.2391v-6.43731l4.14078-.90666V126.826h-4.08035v-1.29955Z"/><path d="M391.0789,126.826h-4.14041V111.07992h4.14041V126.826Zm-4.443-19.97717a2.35752,2.35752,0,1,1,2.35732,2.35731,2.36061,2.36061,0,0,1-2.35732-2.35731Z"/><path d="M406.34069,118.96827a4.35689,4.35689,0,1,0-4.35162,4.56352,4.41131,4.41131,0,0,0,4.35162-4.56352Zm-4.35162-8.19056a8.17832,8.17832,0,1,1-8.4021,8.19056,8.207,8.207,0,0,1,8.4021-8.19056Z"/><path d="M249.64224,152.12188l2.8711,2.84087a11.62644,11.62644,0,0,1-8.67374,3.89866,10.90159,10.90159,0,1,1,0-21.7905,11.59156,11.59156,0,0,1,8.79463,3.9591l-2.96177,2.93154a7.36944,7.36944,0,0,0-5.83286-2.87111,6.86094,6.86094,0,0,0,.12052,13.72121,7.26268,7.26268,0,0,0,5.68212-2.68977Z"/><path d="M266.23378,150.70106a4.3569,4.3569,0,1,0-4.3516,4.56392,4.41118,4.41118,0,0,0,4.3516-4.56392Zm-4.3516-8.19017a8.17833,8.17833,0,1,1-8.4025,8.19017,8.2069,8.2069,0,0,1,8.4025-8.19017Z"/><path d="M272.8222,142.8131h4.14042v1.179a6.12233,6.12233,0,0,1,4.1102-1.48125,5.65226,5.65226,0,0,1,4.74487,2.35732,6.47948,6.47948,0,0,1,5.19857-2.35732c3.536,0,6.0142,2.56886,6.0142,6.256v9.79233H292.89v-9.18751c0-1.99466-1.14844-3.29459-2.96176-3.29459a3.54562,3.54562,0,0,0-3.0222,1.57155,6.745,6.745,0,0,1,.09028,1.11822v9.79233h-4.14042v-9.18751c0-1.99466-1.14845-3.29459-2.96177-3.29459a3.51353,3.51353,0,0,0-2.93154,1.42082v11.06128H272.8222V142.8131Z"/><path d="M300.203,142.8131h4.14042v1.179a6.12234,6.12234,0,0,1,4.11021-1.48125,5.653,5.653,0,0,1,4.74524,2.35732,6.47874,6.47874,0,0,1,5.19819-2.35732c3.536,0,6.0142,2.56886,6.0142,6.256v9.79233h-4.14042v-9.18751c0-1.99466-1.14845-3.29459-2.96214-3.29459a3.54609,3.54609,0,0,0-3.02221,1.57155,6.66315,6.66315,0,0,1,.091,1.11822v9.79233h-4.14043v-9.18751c0-1.99466-1.14843-3.29459-2.96213-3.29459a3.51354,3.51354,0,0,0-2.93155,1.42082v11.06128H300.203V142.8131Z"/><path d="M331.45265,151.97076a3.09374,3.09374,0,0,0,3.26436,3.32407,3.7887,3.7887,0,0,0,3.2636-1.57155V142.8131h4.1408v15.74609h-4.1408v-1.26933a6.7035,6.7035,0,0,1-4.44263,1.57155,5.99835,5.99835,0,0,1-6.22576-6.28657V142.8131h4.14043v9.15766Z"/><path d="M345.3548,142.8131h4.14043v1.2395a6.75669,6.75669,0,0,1,4.412-1.54171,5.974,5.974,0,0,1,6.22613,6.256v9.79233H355.993v-9.18751a3.07054,3.07054,0,0,0-3.26436-3.29459,3.77249,3.77249,0,0,0-3.23337,1.57155v10.91055H345.3548V142.8131Z"/><path d="M367.41616,158.55919h-4.14043V142.8131h4.14043v15.74609Zm-4.443-19.97717a2.3575,2.3575,0,1,1,2.35768,2.35731,2.36063,2.36063,0,0,1-2.35768-2.35731Z"/><path d="M372.79532,146.289h-3.23376V142.8131h3.23376v-4.01953l4.14041-.93689v4.95642H381.409V146.289h-4.47325v6.98131c0,1.48087.5746,2.0245,2.17636,2.0245a6.36862,6.36862,0,0,0,2.2062-.36229v3.38487a12.84571,12.84571,0,0,1-3.2039.48355c-3.50577,0-5.31907-1.60177-5.31907-4.68479V146.289Z"/><path d="M388.26864,158.7103l-6.13508-15.8972h4.56352l3.899,10.72923,4.47249-10.72923h4.47322l-7.25328,16.98519c-1.632,3.808-3.536,5.25864-6.98129,5.25864a7.57829,7.57829,0,0,1-1.844-.181v-3.56658a6.46934,6.46934,0,0,0,1.4507.12127,3.17142,3.17142,0,0,0,3.11324-2.14616l.24141-.5742Z"/><path class="ac68c8fd-32bf-4c8f-bed9-21cb83c3b68f" d="M182.76759,67.55821a1.71387,1.71387,0,0,0,.32866.17374,1.91906,1.91906,0,0,0,.35171.10959,2.01367,2.01367,0,0,0,.37022.03782,1.90229,1.90229,0,0,0,1.33317-.55541,1.9324,1.9324,0,0,0,.23838-.287,2.12113,2.12113,0,0,0,.17378-.325,1.94953,1.94953,0,0,0,.1054-.35508,1.72384,1.72384,0,0,0,.03815-.36634,1.89,1.89,0,0,0-.55571-1.33734,1.86352,1.86352,0,0,0-2.0551-.408,1.7034,1.7034,0,0,0-.32866.17376,1.88478,1.88478,0,0,0,0,3.13935Z"/><path class="ac68c8fd-32bf-4c8f-bed9-21cb83c3b68f" d="M197.27455,71.76648a1.88949,1.88949,0,0,0,2.561-.7668,1.88874,1.88874,0,1,0-2.561.7668Z"/><path class="ac68c8fd-32bf-4c8f-bed9-21cb83c3b68f" d="M190.69748,69.08442a1.92689,1.92689,0,0,0,.521.07178,1.885,1.885,0,1,0-.521-.07178Z"/><path class="ac68c8fd-32bf-4c8f-bed9-21cb83c3b68f" d="M213.375,88.15066a1.84685,1.84685,0,0,0,.78955-.17743,1.87821,1.87821,0,1,0-.78955.17743Z"/><path class="ac68c8fd-32bf-4c8f-bed9-21cb83c3b68f" d="M204.36126,76.24706a1.88918,1.88918,0,1,0-1.23117-.45711,1.879,1.879,0,0,0,1.23117.45711Z"/><path class="ac68c8fd-32bf-4c8f-bed9-21cb83c3b68f" d="M209.50694,81.71336a1.887,1.887,0,1,0-1.5077-.748,1.88522,1.88522,0,0,0,1.5077.748Z"/><path class="ac68c8fd-32bf-4c8f-bed9-21cb83c3b68f" d="M213.92654,93.78338a1.89411,1.89411,0,0,0,1.84355,1.48084,1.93456,1.93456,0,0,0,.41216-.04537,1.88812,1.88812,0,1,0-2.25571-1.43547Z"/><path class="ac68c8fd-32bf-4c8f-bed9-21cb83c3b68f" d="M202.70642,127.81817A1.89411,1.89411,0,0,0,204.55,129.299a1.93454,1.93454,0,0,0,.41216-.04536,1.88812,1.88812,0,1,0-2.25571-1.43548Z"/><path class="ac68c8fd-32bf-4c8f-bed9-21cb83c3b68f" d="M196.5502,132.1165a1.89412,1.89412,0,0,0,1.84355,1.48085,1.93456,1.93456,0,0,0,.41216-.04537,1.88812,1.88812,0,1,0-2.25571-1.43548Z"/><path class="ac68c8fd-32bf-4c8f-bed9-21cb83c3b68f" d="M189.61988,135.00185a1.89412,1.89412,0,0,0,1.84355,1.48084,1.93456,1.93456,0,0,0,.41216-.04537,1.88812,1.88812,0,1,0-2.25571-1.43547Z"/><path class="ac68c8fd-32bf-4c8f-bed9-21cb83c3b68f" d="M182.20626,136.33689a1.89409,1.89409,0,0,0,1.84354,1.48084,1.93454,1.93454,0,0,0,.41216-.04536,1.88812,1.88812,0,1,0-2.2557-1.43548Z"/><path class="ac68c8fd-32bf-4c8f-bed9-21cb83c3b68f" d="M210.7876,120.39021a1.889,1.889,0,1,0,.38534,2.64444,1.89227,1.89227,0,0,0-.38534-2.64444Z"/><path class="ac68c8fd-32bf-4c8f-bed9-21cb83c3b68f" d="M214.259,113.72248a1.88819,1.88819,0,1,0,.94067,2.49709,1.88669,1.88669,0,0,0-.94067-2.49709Z"/><path class="ac68c8fd-32bf-4c8f-bed9-21cb83c3b68f" d="M216.58987,98.94753a1.88895,1.88895,0,0,0,.00793,3.77788h.00718a1.889,1.889,0,1,0-.01511-3.77788Z"/><path class="ac68c8fd-32bf-4c8f-bed9-21cb83c3b68f" d="M216.22342,106.45784a1.889,1.889,0,1,0-.78917,3.69464,1.76591,1.76591,0,0,0,.39629.04157,1.88922,1.88922,0,0,0,.39288-3.73621Z"/><path class="ac68c8fd-32bf-4c8f-bed9-21cb83c3b68f" d="M176.80852,133.79144a33.16641,33.16641,0,0,1,0-65.65017,1.88891,1.88891,0,0,0-.53494-3.73975,36.94437,36.94437,0,0,0,0,73.1299,1.92258,1.92258,0,0,0,.26985.01888,1.88895,1.88895,0,0,0,.26509-3.75886Z"/><path class="ac68c8fd-32bf-4c8f-bed9-21cb83c3b68f" d="M176.931,123.5779a23.07929,23.07929,0,0,1,.00018-45.223,1.88882,1.88882,0,1,0-.75147-3.70214,26.85693,26.85693,0,0,0-.00018,52.62734,1.88885,1.88885,0,0,0,.75147-3.7022Z"/><path class="ac68c8fd-32bf-4c8f-bed9-21cb83c3b68f" d="M198.54388,116.57164a23.01313,23.01313,0,0,1-12.83757,7.09427v-6.35344a16.86711,16.86711,0,0,0,0-32.69239V78.26691a23.07686,23.07686,0,0,1,12.83757,38.30473Zm-30.08425-15.60515a13.08828,13.08828,0,1,1,13.08842,13.08805,13.10315,13.10315,0,0,1-13.08842-13.08805Zm32.86582-18.16113A26.76826,26.76826,0,0,0,183.98666,74.225a1.889,1.889,0,0,0-2.05812,1.88132v8.00356c-.12693-.00276-.2531-.00956-.38049-.00956a16.866,16.866,0,1,0,0,33.732c.12739,0,.25356-.00681.38049-.00946v8.004a1.8888,1.8888,0,0,0,1.88889,1.88886c.05628,0,.11257-.00264.16923-.00755a26.85224,26.85224,0,0,0,17.33879-44.90275Z"/><path class="ac68c8fd-32bf-4c8f-bed9-21cb83c3b68f" d="M233.28784,235.102c3.08947,0,7.56313-.64037,7.56313-4.32121a3.50672,3.50672,0,0,0-.07666-.84695l-1.84034-8.00849c-.42665-1.76042-.79908-2.56079-3.88823-4.10787-2.3969-1.22673-7.61639-3.25383-9.161-3.25383-1.43807,0-1.86375,1.86677-3.5684,1.86677-1.65076,0-2.87584-1.38674-4.42041-1.38674-1.491,0-2.45016,1.01338-3.19566,3.09415,0,0-2.0774,5.868-2.34365,6.721a1.5474,1.5474,0,0,0-.05485.48067c0,2.28061,8.9672,9.76248,20.986,9.76248m8.04239-2.82748a12.374,12.374,0,0,1,.42631,2.50713c0,3.46783-3.88854,5.38794-9.00088,5.38794-11.55819,0-21.67733-6.77467-21.67733-11.2559a4.56724,4.56724,0,0,1,.37275-1.81375c-4.15448.21335-9.53372.96006-9.53372,5.708,0,7.78839,18.42843,17.39086,33.02155,17.39086,11.18512,0,14.00738-5.0676,14.00738-9.06847,0-3.14813-2.71608-6.72165-7.61606-8.85576"/><path d="M241.33023,232.2745a12.374,12.374,0,0,1,.42631,2.50713c0,3.46783-3.88854,5.38794-9.00088,5.38794-11.55819,0-21.67733-6.77467-21.67733-11.2559a4.56724,4.56724,0,0,1,.37275-1.81375l.90557-2.24109a1.5474,1.5474,0,0,0-.05485.48067c0,2.28061,8.9672,9.76248,20.986,9.76248,3.08947,0,7.56313-.64037,7.56313-4.32121a3.50672,3.50672,0,0,0-.07666-.84695Z"/><path d="M345.02772,237.40585c0,2.94089,1.76722,4.3723,4.98885,4.3723a12.88547,12.88547,0,0,0,2.93645-.41641v-3.40936a6.10763,6.10763,0,0,1-1.89712.28629c-1.32515,0-1.81851-.41641-1.81851-1.66564V231.3419h3.84525v-3.51346h-3.84525v-4.45036l-4.20967.91089v3.53947h-2.78023v3.51346h2.78023Zm-13.08054.07808c0-.9109.90943-1.35333,2.28657-1.35333a10.5475,10.5475,0,0,1,2.49442.3123v1.76974a5.30541,5.30541,0,0,1-2.62435.65065c-1.35114,0-2.15664-.52052-2.15664-1.37936m1.28433,4.34626a6.42459,6.42459,0,0,0,3.79362-1.067v.83281h4.15735V232.7733c0-3.3573-2.26057-5.20511-6.02818-5.20511a15.27519,15.27519,0,0,0-6.41794,1.50948l1.507,3.097a11.21792,11.21792,0,0,1,4.15738-1.09307c1.7409,0,2.62435.67667,2.62435,2.056v.67666a12.1868,12.1868,0,0,0-3.118-.39038c-3.53376,0-5.66442,1.48346-5.66442,4.13806,0,2.42039,1.92279,4.26819,4.98884,4.26819M310.392,241.596h4.46917v-7.131h7.48326v7.131h4.46917V223.37808h-4.46917V230.379h-7.48326v-7.00087H310.392Zm-17.03-6.89677a3.48312,3.48312,0,0,1,3.61171-3.48743,4.25456,4.25456,0,0,1,2.91016,1.06706v4.81473a4.04039,4.04039,0,0,1-2.91016,1.09307,3.49869,3.49869,0,0,1-3.61171-3.48743m6.57384,6.89677h4.15736V222.46718l-4.20933.9109v5.17908a7.09067,7.09067,0,1,0-3.6377,13.221,6.19221,6.19221,0,0,0,3.68967-1.19718Zm-19.0716-10.56637a3.04088,3.04088,0,0,1,2.88417,2.18614H278.006a2.86334,2.86334,0,0,1,2.85819-2.18614m-7.09351,3.69563a7.22185,7.22185,0,0,0,7.48326,7.131,8.23994,8.23994,0,0,0,5.74236-2.08205l-2.78023-2.47243a3.71963,3.71963,0,0,1-2.75426,1.041,3.55191,3.55191,0,0,1-3.37787-2.18615h9.7958v-1.041c0-4.37229-2.93614-7.52138-6.93761-7.52138a7.0658,7.0658,0,0,0-7.17145,7.131m-7.24909-7.52139a2.07025,2.07025,0,1,1,0,4.112h-4.41721v-4.112ZM257.63522,241.596h4.46916v-6.63652h3.40385l3.42983,6.63652h4.98884l-4.00147-7.28715a5.51189,5.51189,0,0,0,3.42983-5.127c0-3.27922-2.57237-5.80369-6.41794-5.80369h-9.3021Z"/></svg>