<svg id="f83fc8a4-5228-4bf9-b441-e1b0799d39f9" data-name="Layer 1" xmlns="http://www.w3.org/2000/svg" viewBox="0 0 555 320"><defs><style>.be33f46f-5cfd-40eb-b81c-ac16647dcc47{fill:#fab6b6;}.b2c39a8a-f5f8-4f24-8905-cb8c91057688{fill:#aaa;}.bfb6bd70-5338-4840-a1db-65c9ddca7fd9{fill:#e00;}.a7de0b18-47f1-49ce-8fa4-b6e76bf67cd9{fill:#f56d6d;}.a0051288-ec64-407d-9ec4-621f65c0ca38{fill:#8b8b8b;}</style></defs><rect class="be33f46f-5cfd-40eb-b81c-ac16647dcc47" x="175.7753" y="137.00175" width="156.75" height="2"/><rect class="b2c39a8a-f5f8-4f24-8905-cb8c91057688" x="340.89542" y="137.00175" width="147.3457" height="2"/><path d="M68.61221,132.19707V112.70976h8.79688a7.59782,7.59782,0,0,1,3.41015.72363,5.3914,5.3914,0,0,1,3.1045,5.06641,5.20379,5.20379,0,0,1-1.09961,3.29981,5.9064,5.9064,0,0,1-2.88184,1.99023l4.31543,8.40723H81.00088l-4.00976-7.99024H71.53506v7.99024Zm2.92285-10.43946h5.65137a4.11211,4.11211,0,0,0,2.75586-.87695,2.96471,2.96471,0,0,0,1.03027-2.38086,2.93051,2.93051,0,0,0-1.03027-2.35156,4.107,4.107,0,0,0-2.75586-.877H71.53506Z"/><path d="M92.55362,132.448a7.47829,7.47829,0,0,1-3.77246-.96093,7.2686,7.2686,0,0,1-2.68653-2.64454,7.55527,7.55527,0,0,1-.041-7.44726,7.43945,7.43945,0,0,1,2.57422-2.63086,6.80045,6.80045,0,0,1,3.61914-.98828,6.35248,6.35248,0,0,1,3.49414.98828,7.09505,7.09505,0,0,1,2.45019,2.67285,7.909,7.909,0,0,1,.9043,3.79981v.75195H87.9042a4.78531,4.78531,0,0,0,2.51954,3.5498,4.68564,4.68564,0,0,0,2.24121.542,5.9864,5.9864,0,0,0,2.00488-.334,4.83483,4.83483,0,0,0,1.58594-.89062l1.7539,1.72656a8.98231,8.98231,0,0,1-2.54687,1.40527A8.80689,8.80689,0,0,1,92.55362,132.448Zm-4.62109-8.54687h8.40722a4.77338,4.77338,0,0,0-.79394-1.93457,4.45254,4.45254,0,0,0-1.46094-1.33692,3.84513,3.84513,0,0,0-1.9209-.4873,4.00079,4.00079,0,0,0-1.94922.4873,4.43309,4.43309,0,0,0-1.48926,1.32227A4.663,4.663,0,0,0,87.93253,123.90117Z"/><path d="M108.25479,132.41972a7.14284,7.14284,0,0,1-6.23633-3.60547,7.41081,7.41081,0,0,1-.94629-3.74414,7.21721,7.21721,0,0,1,.96094-3.68847,7.07412,7.07412,0,0,1,2.61621-2.61719,7.17485,7.17485,0,0,1,3.66113-.96,7.35865,7.35865,0,0,1,2.25489.34765,6.69452,6.69452,0,0,1,2.00488,1.04395v-6.48633l2.7832-.5293v20.01661h-2.75586v-1.36426A6.36645,6.36645,0,0,1,108.25479,132.41972Zm.36133-2.42187a5.52225,5.52225,0,0,0,2.24121-.44532,4.74558,4.74558,0,0,0,1.71289-1.25292v-6.40333a4.45833,4.45833,0,0,0-1.71289-1.25292,5.66761,5.66761,0,0,0-2.24121-.44532,4.83111,4.83111,0,0,0-2.43555.627,4.50215,4.50215,0,0,0-1.72558,1.73925,5.32124,5.32124,0,0,0,0,5.01172,4.7219,4.7219,0,0,0,4.16113,2.42188Z"/><path d="M124.81827,132.19707V112.70976h2.92383v8.35156h10.32812v-8.35156h2.92285v19.48731h-2.92285v-8.49121H127.7421v8.49121Z"/><path d="M148.872,132.448a6.42632,6.42632,0,0,1-2.72852-.543,4.43888,4.43888,0,0,1-1.83691-1.51757,3.8915,3.8915,0,0,1-.66895-2.25489,3.69535,3.69535,0,0,1,1.5459-3.1455,6.90357,6.90357,0,0,1,4.18945-1.14161,9.63662,9.63662,0,0,1,3.8418.752v-1.47559a2.86824,2.86824,0,0,0-.86328-2.2832,3.80066,3.80066,0,0,0-2.56055-.752,7.45787,7.45787,0,0,0-2.01855.293,15.45259,15.45259,0,0,0-2.35254.9043l-1.05762-2.08789a16.08358,16.08358,0,0,1,2.99219-1.09961,11.74758,11.74758,0,0,1,2.82617-.34766,6.34105,6.34105,0,0,1,4.27344,1.3086,4.65942,4.65942,0,0,1,1.5166,3.73047v9.40918h-2.75586v-1.22461a6.27693,6.27693,0,0,1-2.00488,1.11328A7.34849,7.34849,0,0,1,148.872,132.448Zm-2.58887-4.39941a1.99022,1.99022,0,0,0,.89063,1.69824,3.86141,3.86141,0,0,0,2.31054.64063,6.15736,6.15736,0,0,0,2.06055-.334,4.59236,4.59236,0,0,0,1.66992-1.03027v-2.39356a6.5887,6.5887,0,0,0-1.66992-.66894,7.9169,7.9169,0,0,0-1.9209-.22266,4.12926,4.12926,0,0,0-2.45019.64063A1.9672,1.9672,0,0,0,146.28311,128.04863Z"/><path d="M164.79581,132.448a4.5997,4.5997,0,0,1-3.11817-.94726,3.52912,3.52912,0,0,1-1.08594-2.81153V120.365h-3.00683v-2.33789h3.00683v-3.59179l2.75586-.69532v4.28711h4.20411V120.365h-4.20411V128.077a2.01631,2.01631,0,0,0,.48731,1.51758,2.29466,2.29466,0,0,0,1.60058.459,5.3473,5.3473,0,0,0,2.03223-.3623v2.36621a6.48952,6.48952,0,0,1-1.29394.293A10.65706,10.65706,0,0,1,164.79581,132.448Z"/><path d="M185.00674,132.50371a10.21634,10.21634,0,0,1-3.93945-.76563,9.99588,9.99588,0,0,1-3.24316-2.14355,9.79452,9.79452,0,0,1-2.15821-3.20215,10.52791,10.52791,0,0,1,0-7.87793,9.79452,9.79452,0,0,1,2.15821-3.20215,9.99588,9.99588,0,0,1,3.24316-2.14355,10.21634,10.21634,0,0,1,3.93945-.76563,10.35954,10.35954,0,0,1,3.99414.76563,10.03392,10.03392,0,0,1,0,18.56933A10.35954,10.35954,0,0,1,185.00674,132.50371Zm.05567-2.70118a6.99194,6.99194,0,0,0,2.79785-.55664,7.2498,7.2498,0,0,0,2.28223-1.54492,6.89283,6.89283,0,0,0,1.53125-2.33886,7.71253,7.71253,0,0,0,.543-2.90918,7.559,7.559,0,0,0-.55664-2.90918,7.21039,7.21039,0,0,0-1.53125-2.33789,7.11447,7.11447,0,0,0-11.706,2.33789,8.065,8.065,0,0,0,0,5.81836,6.93275,6.93275,0,0,0,3.81348,3.88378A7.19146,7.19146,0,0,0,185.06241,129.80253Z"/><path d="M197.95206,137.87578V118.02714h2.75586v1.36426a6.35833,6.35833,0,0,1,4.34277-1.58691,6.94215,6.94215,0,0,1,3.63281.97363,7.15534,7.15534,0,0,1,2.5752,2.63086,7.71688,7.71688,0,0,1,0,7.40527,7.09869,7.09869,0,0,1-6.291,3.60547,6.92916,6.92916,0,0,1-4.23242-1.41992v6.876Zm6.73632-7.87793a4.74663,4.74663,0,0,0,2.43653-.626,4.67824,4.67824,0,0,0,1.71191-1.74023,5.0252,5.0252,0,0,0-1.71191-6.7793,4.59019,4.59019,0,0,0-2.43653-.6543,5.39675,5.39675,0,0,0-2.22656.46,4.84867,4.84867,0,0,0-1.72656,1.26661V128.327a5.16551,5.16551,0,0,0,1.74023,1.21191A5.44412,5.44412,0,0,0,204.68838,129.99785Z"/><path d="M221.64249,132.448a7.47826,7.47826,0,0,1-3.77246-.96093,7.2686,7.2686,0,0,1-2.68653-2.64454,7.55527,7.55527,0,0,1-.041-7.44726,7.43934,7.43934,0,0,1,2.57421-2.63086,6.80051,6.80051,0,0,1,3.61915-.98828,6.35253,6.35253,0,0,1,3.49414.98828,7.09505,7.09505,0,0,1,2.45019,2.67285,7.909,7.909,0,0,1,.9043,3.79981v.75195H216.99307a4.78533,4.78533,0,0,0,2.51953,3.5498,4.6857,4.6857,0,0,0,2.24121.542,5.98646,5.98646,0,0,0,2.00489-.334,4.83468,4.83468,0,0,0,1.58593-.89062l1.75391,1.72656a8.98244,8.98244,0,0,1-2.54687,1.40527A8.80693,8.80693,0,0,1,221.64249,132.448Zm-4.6211-8.54687h8.40723a4.77326,4.77326,0,0,0-.79395-1.93457,4.45241,4.45241,0,0,0-1.46093-1.33692,3.84513,3.84513,0,0,0-1.9209-.4873,4.00076,4.00076,0,0,0-1.94922.4873,4.43309,4.43309,0,0,0-1.48926,1.32227A4.66317,4.66317,0,0,0,217.02139,123.90117Z"/><path d="M230.80167,132.19707V118.02714h2.78418v1.44727a5.615,5.615,0,0,1,4.25976-1.72559,5.795,5.795,0,0,1,2.88086.69532,5.05913,5.05913,0,0,1,1.94922,1.94922,5.77779,5.77779,0,0,1,.709,2.8955v8.90821h-2.7832v-8.43555a3.58712,3.58712,0,0,0-.94727-2.63086,3.47173,3.47173,0,0,0-2.58886-.96,4.02509,4.02509,0,0,0-1.99024.4873,4.37462,4.37462,0,0,0-1.48925,1.37793v10.16114Z"/><path d="M259.33585,132.47539a11.69441,11.69441,0,0,1-8.35157-3.50782l1.78223-2.05957a11.41355,11.41355,0,0,0,3.24316,2.31055,8.35677,8.35677,0,0,0,3.49414.751,6.64065,6.64065,0,0,0,2.44922-.417,3.93761,3.93761,0,0,0,1.65625-1.15527,2.59912,2.59912,0,0,0,.59864-1.68457,2.40188,2.40188,0,0,0-.918-2.01855,6.85568,6.85568,0,0,0-3.03516-1.044l-3.22949-.55664a7.52653,7.52653,0,0,1-4.02246-1.69824,4.38347,4.38347,0,0,1-1.32227-3.34082,5.03852,5.03852,0,0,1,.89063-2.9502,5.70855,5.70855,0,0,1,2.51953-1.97656,9.53415,9.53415,0,0,1,3.77246-.69629,13.15978,13.15978,0,0,1,7.85059,2.64453l-1.61426,2.25489a10.47032,10.47032,0,0,0-6.376-2.39454,6.34541,6.34541,0,0,0-2.24121.36231,3.29914,3.29914,0,0,0-1.47461,1.0166,2.42041,2.42041,0,0,0-.51562,1.54492,2.14634,2.14634,0,0,0,.80761,1.78125,5.88794,5.88794,0,0,0,2.64453.94629l3.17383.502a8.817,8.817,0,0,1,4.53809,1.80957,4.59623,4.59623,0,0,1,1.44726,3.59082,5.33045,5.33045,0,0,1-.96,3.14551,6.1181,6.1181,0,0,1-2.72851,2.10254A10.5336,10.5336,0,0,1,259.33585,132.47539Z"/><path d="M275.09268,132.448a4.60311,4.60311,0,0,1-3.11816-.94726,3.5286,3.5286,0,0,1-1.085-2.81153V120.365h-3.00684v-2.33789h3.00684v-3.59179l2.75586-.69532v4.28711h4.20312V120.365h-4.20312V128.077a2.01242,2.01242,0,0,0,.4873,1.51758,2.293,2.293,0,0,0,1.60059.459,5.34729,5.34729,0,0,0,2.03222-.3623v2.36621a6.48423,6.48423,0,0,1-1.29492.293A10.645,10.645,0,0,1,275.09268,132.448Z"/><path d="M285.36612,132.47539a5.86288,5.86288,0,0,1-2.89551-.69629,4.984,4.984,0,0,1-1.96289-1.96192,5.78853,5.78853,0,0,1-.71-2.88183v-8.90821h2.78418v8.43457a3.56694,3.56694,0,0,0,.96,2.61719,3.45042,3.45042,0,0,0,2.5752.97461,4.18618,4.18618,0,0,0,2.01855-.4873,3.86421,3.86421,0,0,0,1.46191-1.37793V118.02714h2.78321v14.16993h-2.78321V130.7498A5.58335,5.58335,0,0,1,285.36612,132.47539Z"/><path d="M302.1796,132.41972a7.1397,7.1397,0,0,1-6.23536-3.60547,7.401,7.401,0,0,1-.94629-3.74414,7.21639,7.21639,0,0,1,.96-3.68847,7.08384,7.08384,0,0,1,2.61718-2.61719,7.16875,7.16875,0,0,1,3.66016-.96,7.354,7.354,0,0,1,2.25488.34765,6.67148,6.67148,0,0,1,2.00489,1.04395v-6.48633l2.78417-.5293v20.01661h-2.75585v-1.36426A6.36722,6.36722,0,0,1,302.1796,132.41972Zm.3623-2.42187a5.52555,5.52555,0,0,0,2.24121-.44532,4.742,4.742,0,0,0,1.71192-1.25292v-6.40333a4.44759,4.44759,0,0,0-1.71192-1.25292,5.67108,5.67108,0,0,0-2.24121-.44532,4.82856,4.82856,0,0,0-2.43555.627,4.51129,4.51129,0,0,0-1.72656,1.73925,5.32859,5.32859,0,0,0,0,5.01172,4.725,4.725,0,0,0,4.16211,2.42188Z"/><path d="M313.956,115.7166a1.63444,1.63444,0,0,1-1.19726-.501,1.668,1.668,0,0,1-.501-1.22559,1.7106,1.7106,0,0,1,1.69824-1.69824,1.71069,1.71069,0,0,1,1.72559,1.72657,1.636,1.636,0,0,1-.501,1.19726A1.66578,1.66578,0,0,1,313.956,115.7166Zm-1.3916,16.48047V118.02714h2.7832v14.16993Z"/><path d="M325.36905,132.47539a7.43139,7.43139,0,0,1-3.74414-.96,7.16071,7.16071,0,0,1-2.67188-2.64551,7.35405,7.35405,0,0,1,2.65821-10.13281,7.44357,7.44357,0,0,1,10.16113,2.64453,7.2478,7.2478,0,0,1,.97461,3.74414,7.339,7.339,0,0,1-.97461,3.74414,7.06864,7.06864,0,0,1-2.6582,2.64551A7.43248,7.43248,0,0,1,325.36905,132.47539Zm0-2.4502a4.41585,4.41585,0,0,0,2.36719-.65332,4.70524,4.70524,0,0,0,1.66992-1.76855,5.11048,5.11048,0,0,0,.6123-2.50489,4.97922,4.97922,0,0,0-.6123-2.46386,4.84263,4.84263,0,0,0-1.66992-1.76758,4.49517,4.49517,0,0,0-4.71875,0,4.80241,4.80241,0,0,0-1.68457,1.76758,4.97912,4.97912,0,0,0-.61231,2.46386,5.11038,5.11038,0,0,0,.61231,2.50489,4.668,4.668,0,0,0,1.68457,1.76855A4.42994,4.42994,0,0,0,325.36905,130.02519Z"/><path d="M350.92569,132.50371a10.4368,10.4368,0,0,1-4.02344-.76563,10.1607,10.1607,0,0,1-3.25683-2.14355,9.69737,9.69737,0,0,1-2.17188-3.20215,10.60074,10.60074,0,0,1,0-7.90625,9.54794,9.54794,0,0,1,2.17188-3.1875,10.22811,10.22811,0,0,1,3.27148-2.12988,10.462,10.462,0,0,1,4.00879-.76563,11.16722,11.16722,0,0,1,2.99219.4043,10.60216,10.60216,0,0,1,2.70019,1.15527,9.23086,9.23086,0,0,1,2.18555,1.83692l-1.97656,1.97656a7.082,7.082,0,0,0-2.64453-1.99024,8.03359,8.03359,0,0,0-3.25684-.68164,7.25359,7.25359,0,0,0-2.86816.55664,7.10216,7.10216,0,0,0-3.82715,3.89746,7.98935,7.98935,0,0,0,0,5.79,7.08782,7.08782,0,0,0,1.53125,2.33887,6.9715,6.9715,0,0,0,2.33789,1.55859,7.46734,7.46734,0,0,0,2.88183.55664,7.72029,7.72029,0,0,0,3.2295-.69531,7.45,7.45,0,0,0,2.58886-1.9209l1.9209,1.94825a10.45914,10.45914,0,0,1-4.8584,2.96484A10.807,10.807,0,0,1,350.92569,132.50371Z"/><path d="M367.57315,132.47539a7.42624,7.42624,0,0,1-3.74414-.96,7.1632,7.1632,0,0,1-2.67285-2.64551,7.35634,7.35634,0,0,1,2.6582-10.13281,7.33221,7.33221,0,0,1,3.75879-.98829,7.25894,7.25894,0,0,1,3.74414.98829,7.34471,7.34471,0,0,1,2.65918,2.64453,7.24716,7.24716,0,0,1,.97363,3.74414,7.33824,7.33824,0,0,1-.97363,3.74414,7.07113,7.07113,0,0,1-2.65918,2.64551A7.43142,7.43142,0,0,1,367.57315,132.47539Zm0-2.4502a4.41248,4.41248,0,0,0,2.36621-.65332,4.71519,4.71519,0,0,0,1.6709-1.76855,5.12107,5.12107,0,0,0,.6123-2.50489,4.98957,4.98957,0,0,0-.6123-2.46386,4.85317,4.85317,0,0,0-1.6709-1.76758,4.49518,4.49518,0,0,0-4.71875,0,4.80249,4.80249,0,0,0-1.68457,1.76758,4.97922,4.97922,0,0,0-.6123,2.46386,5.11048,5.11048,0,0,0,.6123,2.50489,4.66808,4.66808,0,0,0,1.68457,1.76855A4.43335,4.43335,0,0,0,367.57315,130.02519Z"/><path d="M377.59463,132.19707V118.02714h2.78418v1.33594a5.35077,5.35077,0,0,1,3.98047-1.61426,5.20656,5.20656,0,0,1,2.58985.63965,4.63,4.63,0,0,1,1.78125,1.75391,5.61391,5.61391,0,0,1,2.07422-1.79492,6.03716,6.03716,0,0,1,2.71386-.59864,5.37407,5.37407,0,0,1,2.77051.69532,4.90718,4.90718,0,0,1,1.85156,1.93554,6.03916,6.03916,0,0,1,.668,2.90918v8.90821h-2.75586v-8.43555a3.75868,3.75868,0,0,0-.877-2.63086,3.03279,3.03279,0,0,0-2.35254-.96,3.68251,3.68251,0,0,0-1.89355.4873,4.34509,4.34509,0,0,0-1.44727,1.4336,5.54944,5.54944,0,0,1,.083.585q.02783.30615.02832.6123v8.90821H386.8378v-8.43555a3.72,3.72,0,0,0-.8916-2.63086,3.041,3.041,0,0,0-2.33789-.96,3.83146,3.83146,0,0,0-1.83789.43164,3.92,3.92,0,0,0-1.39161,1.29394v10.30079Z"/><path d="M402.037,132.19707V118.02714h2.78418v1.33594a5.35074,5.35074,0,0,1,3.98047-1.61426,5.20655,5.20655,0,0,1,2.58984.63965,4.63,4.63,0,0,1,1.78125,1.75391,5.61391,5.61391,0,0,1,2.07422-1.79492,6.0372,6.0372,0,0,1,2.71387-.59864,5.37406,5.37406,0,0,1,2.7705.69532,4.9072,4.9072,0,0,1,1.85157,1.93554,6.03927,6.03927,0,0,1,.668,2.90918v8.90821H420.495v-8.43555a3.75863,3.75863,0,0,0-.877-2.63086,3.03279,3.03279,0,0,0-2.35254-.96,3.68251,3.68251,0,0,0-1.89355.4873,4.34527,4.34527,0,0,0-1.44727,1.4336,5.54683,5.54683,0,0,1,.083.585q.02784.30615.02832.6123v8.90821h-2.75586v-8.43555a3.72,3.72,0,0,0-.8916-2.63086,3.041,3.041,0,0,0-2.33789-.96,3.83146,3.83146,0,0,0-1.83789.43164,3.92,3.92,0,0,0-1.3916,1.29394v10.30079Z"/><path d="M431.8251,132.47539a5.86809,5.86809,0,0,1-2.8955-.69629,4.97529,4.97529,0,0,1-1.96192-1.96192,5.78853,5.78853,0,0,1-.71-2.88183v-8.90821h2.7832v8.43457a3.56358,3.56358,0,0,0,.96094,2.61719,3.44892,3.44892,0,0,0,2.5752.97461,4.18615,4.18615,0,0,0,2.01855-.4873,3.85462,3.85462,0,0,0,1.46094-1.37793V118.02714h2.78418v14.16993h-2.78418V130.7498A5.58041,5.58041,0,0,1,431.8251,132.47539Z"/><path d="M442.12588,132.19707V118.02714h2.78321v1.44727a5.61651,5.61651,0,0,1,4.25976-1.72559,5.79883,5.79883,0,0,1,2.88184.69532,5.05674,5.05674,0,0,1,1.94824,1.94922,5.76816,5.76816,0,0,1,.71,2.8955v8.90821h-2.78418v-8.43555a3.5866,3.5866,0,0,0-.94629-2.63086,3.47174,3.47174,0,0,0-2.58886-.96,4.01984,4.01984,0,0,0-1.99024.4873,4.37746,4.37746,0,0,0-1.49023,1.37793v10.16114Z"/><path d="M459.30167,115.7166a1.63444,1.63444,0,0,1-1.19727-.501,1.668,1.668,0,0,1-.501-1.22559,1.7106,1.7106,0,0,1,1.69825-1.69824,1.71067,1.71067,0,0,1,1.72558,1.72657,1.636,1.636,0,0,1-.501,1.19726A1.66579,1.66579,0,0,1,459.30167,115.7166Zm-1.39161,16.48047V118.02714h2.78321v14.16993Z"/><path d="M470.01944,132.448a4.59965,4.59965,0,0,1-3.11816-.94726,3.52908,3.52908,0,0,1-1.08594-2.81153V120.365H462.8085v-2.33789h3.00684v-3.59179l2.75586-.69532v4.28711h4.2041V120.365h-4.2041V128.077a2.01631,2.01631,0,0,0,.4873,1.51758,2.29468,2.29468,0,0,0,1.60059.459,5.34729,5.34729,0,0,0,2.03222-.3623v2.36621a6.48952,6.48952,0,0,1-1.29394.293A10.65694,10.65694,0,0,1,470.01944,132.448Z"/><path d="M476.00381,138.15507a7.69423,7.69423,0,0,1-.80664-.042c-.26074-.02832-.47363-.05176-.64062-.06933v-2.47852a5.74372,5.74372,0,0,0,1.22461.11133,3.00422,3.00422,0,0,0,2.83984-2.08789l.585-1.33594-5.67968-14.22559h3.0625l4.14843,10.77344,4.56543-10.77344h3.00684L481.46085,133.951a10.25769,10.25769,0,0,1-1.4336,2.4502,4.68209,4.68209,0,0,1-1.72656,1.33594A5.73369,5.73369,0,0,1,476.00381,138.15507Z"/><rect class="bfb6bd70-5338-4840-a1db-65c9ddca7fd9" x="68.49307" y="137.00175" width="98.98242" height="2"/><rect class="b2c39a8a-f5f8-4f24-8905-cb8c91057688" x="173.87588" y="196.35527" width="184.37695" height="2"/><path d="M68.61221,191.49687v-19.4873h8.79688a7.59782,7.59782,0,0,1,3.41015.72363,5.39137,5.39137,0,0,1,3.1045,5.06641,5.20378,5.20378,0,0,1-1.09961,3.2998,5.90634,5.90634,0,0,1-2.88184,1.99023l4.31543,8.40723H81.00088l-4.00976-7.99023H71.53506v7.99023Zm2.92285-10.43945h5.65137a4.11207,4.11207,0,0,0,2.75586-.877,2.9647,2.9647,0,0,0,1.03027-2.38085,2.93054,2.93054,0,0,0-1.03027-2.35157,4.107,4.107,0,0,0-2.75586-.87695H71.53506Z"/><path d="M92.55362,191.74785a7.47829,7.47829,0,0,1-3.77246-.96094,7.26858,7.26858,0,0,1-2.68653-2.64453,7.55529,7.55529,0,0,1-.041-7.44727,7.43953,7.43953,0,0,1,2.57422-2.63086A6.80045,6.80045,0,0,1,92.247,177.076a6.35248,6.35248,0,0,1,3.49414.98828,7.09508,7.09508,0,0,1,2.45019,2.67286,7.909,7.909,0,0,1,.9043,3.7998v.75195H87.9042a4.78531,4.78531,0,0,0,2.51954,3.54981,4.68563,4.68563,0,0,0,2.24121.542,5.98665,5.98665,0,0,0,2.00488-.334,4.83485,4.83485,0,0,0,1.58594-.89063l1.7539,1.72656a8.98259,8.98259,0,0,1-2.54687,1.40528A8.80689,8.80689,0,0,1,92.55362,191.74785ZM87.93253,183.201h8.40722a4.7735,4.7735,0,0,0-.79394-1.93457,4.45251,4.45251,0,0,0-1.46094-1.33691,3.84514,3.84514,0,0,0-1.9209-.48731,4.0008,4.0008,0,0,0-1.94922.48731,4.433,4.433,0,0,0-1.48926,1.32226A4.663,4.663,0,0,0,87.93253,183.201Z"/><path d="M108.25479,191.71953a7.14284,7.14284,0,0,1-6.23633-3.60547,7.41084,7.41084,0,0,1-.94629-3.74414,7.21724,7.21724,0,0,1,.96094-3.68848,7.07427,7.07427,0,0,1,2.61621-2.61719,7.175,7.175,0,0,1,3.66113-.96,7.35835,7.35835,0,0,1,2.25489.34766,6.69449,6.69449,0,0,1,2.00488,1.04394v-6.48632l2.7832-.5293v20.0166h-2.75586v-1.36426A6.36646,6.36646,0,0,1,108.25479,191.71953Zm.36133-2.42188a5.52242,5.52242,0,0,0,2.24121-.44531,4.7456,4.7456,0,0,0,1.71289-1.25293v-6.40332a4.45825,4.45825,0,0,0-1.71289-1.25293,5.6676,5.6676,0,0,0-2.24121-.44531,4.8311,4.8311,0,0,0-2.43555.62695,4.50218,4.50218,0,0,0-1.72558,1.73926,5.32124,5.32124,0,0,0,0,5.01172,4.72187,4.72187,0,0,0,4.16113,2.42187Z"/><path d="M124.81827,191.49687v-19.4873h2.92383v8.35156h10.32812v-8.35156h2.92285v19.4873h-2.92285v-8.49121H127.7421v8.49121Z"/><path d="M148.872,191.74785a6.42632,6.42632,0,0,1-2.72852-.543,4.439,4.439,0,0,1-1.83691-1.51758,3.89147,3.89147,0,0,1-.66895-2.25488,3.69535,3.69535,0,0,1,1.5459-3.14551,6.90363,6.90363,0,0,1,4.18945-1.1416,9.63679,9.63679,0,0,1,3.8418.75195v-1.47558a2.86828,2.86828,0,0,0-.86328-2.28321,3.80071,3.80071,0,0,0-2.56055-.752,7.45787,7.45787,0,0,0-2.01855.293,15.45139,15.45139,0,0,0-2.35254.90429l-1.05762-2.08789a16.085,16.085,0,0,1,2.99219-1.09961,11.74807,11.74807,0,0,1,2.82617-.34765,6.3411,6.3411,0,0,1,4.27344,1.30859,4.65943,4.65943,0,0,1,1.5166,3.73047v9.40918h-2.75586v-1.22461a6.27674,6.27674,0,0,1-2.00488,1.11328A7.34849,7.34849,0,0,1,148.872,191.74785Zm-2.58887-4.39942a1.99023,1.99023,0,0,0,.89063,1.69825,3.86148,3.86148,0,0,0,2.31054.64062,6.15762,6.15762,0,0,0,2.06055-.334,4.59252,4.59252,0,0,0,1.66992-1.03028v-2.39355a6.58872,6.58872,0,0,0-1.66992-.66895,7.91741,7.91741,0,0,0-1.9209-.22265,4.12926,4.12926,0,0,0-2.45019.64062A1.96723,1.96723,0,0,0,146.28311,187.34843Z"/><path d="M164.79581,191.74785a4.59965,4.59965,0,0,1-3.11817-.94727,3.52909,3.52909,0,0,1-1.08594-2.81152v-8.32422h-3.00683V177.327h3.00683v-3.5918l2.75586-.69531V177.327h4.20411v2.33789h-4.20411v7.71191a2.01631,2.01631,0,0,0,.48731,1.51758,2.2946,2.2946,0,0,0,1.60058.459,5.34756,5.34756,0,0,0,2.03223-.36231v2.36621a6.48952,6.48952,0,0,1-1.29394.293A10.65717,10.65717,0,0,1,164.79581,191.74785Z"/><path d="M173.787,191.49687l8.0459-19.4873h3.42382l7.99024,19.4873h-3.17383l-2.25488-5.707h-8.74121l-2.25489,5.707Zm6.26367-8.12891H186.872l-3.39649-8.57421Z"/><path d="M200.206,191.77519a10.61983,10.61983,0,0,1-3.4375-.543A8.04411,8.04411,0,0,1,193.998,189.66l1.50391-1.83789a8.5641,8.5641,0,0,0,2.26856,1.33593,6.47052,6.47052,0,0,0,2.35253.44629,4.69321,4.69321,0,0,0,2.4502-.57129,1.71833,1.71833,0,0,0,.94629-1.51757,1.48379,1.48379,0,0,0-.55664-1.22461,3.595,3.595,0,0,0-1.72656-.61231l-2.56055-.3623a5.66458,5.66458,0,0,1-3.18848-1.30762,3.53759,3.53759,0,0,1-1.04394-2.67285,3.74,3.74,0,0,1,.69629-2.22754,4.44983,4.44983,0,0,1,1.94922-1.50293,7.39081,7.39081,0,0,1,2.89453-.5293,10.21144,10.21144,0,0,1,2.97949.43164,9.23032,9.23032,0,0,1,2.72754,1.37793l-1.3916,1.83789a10.05717,10.05717,0,0,0-2.28321-1.1416,6.9966,6.9966,0,0,0-2.22656-.3623,3.54082,3.54082,0,0,0-2.06055.543,1.64846,1.64846,0,0,0-.77929,1.40625,1.39779,1.39779,0,0,0,.55664,1.21093,4.20345,4.20345,0,0,0,1.7539.59864l2.58887.38964a5.7189,5.7189,0,0,1,3.20215,1.28028,3.46384,3.46384,0,0,1,1.08594,2.67285,3.59255,3.59255,0,0,1-.79395,2.26855,5.38238,5.38238,0,0,1-2.11621,1.60059A7.38516,7.38516,0,0,1,200.206,191.77519Z"/><path d="M209.67178,175.0164a1.63447,1.63447,0,0,1-1.19726-.501,1.668,1.668,0,0,1-.501-1.22559,1.71059,1.71059,0,0,1,1.69824-1.69824,1.71067,1.71067,0,0,1,1.72559,1.72656,1.636,1.636,0,0,1-.501,1.19727A1.66581,1.66581,0,0,1,209.67178,175.0164Zm-1.3916,16.48047V177.327h2.7832v14.16992Z"/><path d="M218.85831,191.74785a6.42632,6.42632,0,0,1-2.72852-.543,4.43892,4.43892,0,0,1-1.83691-1.51758,3.8914,3.8914,0,0,1-.66895-2.25488,3.69535,3.69535,0,0,1,1.5459-3.14551,6.90363,6.90363,0,0,1,4.18945-1.1416,9.63686,9.63686,0,0,1,3.8418.75195v-1.47558a2.86831,2.86831,0,0,0-.86328-2.28321,3.80073,3.80073,0,0,0-2.56055-.752,7.45787,7.45787,0,0,0-2.01855.293,15.45139,15.45139,0,0,0-2.35254.90429l-1.05762-2.08789a16.085,16.085,0,0,1,2.99219-1.09961,11.748,11.748,0,0,1,2.82617-.34765,6.34112,6.34112,0,0,1,4.27344,1.30859,4.65943,4.65943,0,0,1,1.5166,3.73047v9.40918h-2.75586v-1.22461a6.27674,6.27674,0,0,1-2.00488,1.11328A7.34854,7.34854,0,0,1,218.85831,191.74785Zm-2.58887-4.39942a1.99024,1.99024,0,0,0,.89062,1.69825,3.86151,3.86151,0,0,0,2.31055.64062,6.15762,6.15762,0,0,0,2.06055-.334,4.59252,4.59252,0,0,0,1.66992-1.03028v-2.39355a6.58872,6.58872,0,0,0-1.66992-.66895,7.91741,7.91741,0,0,0-1.9209-.22265,4.1293,4.1293,0,0,0-2.4502.64062A1.96724,1.96724,0,0,0,216.26944,187.34843Z"/><path d="M229.15909,191.49687V177.327h2.7832v1.44726a5.61651,5.61651,0,0,1,4.25977-1.72558,5.79882,5.79882,0,0,1,2.88183.69531,5.05674,5.05674,0,0,1,1.94824,1.94922,5.76808,5.76808,0,0,1,.71,2.89551v8.9082h-2.78418v-8.43555a3.58662,3.58662,0,0,0-.94629-2.63086,3.47179,3.47179,0,0,0-2.58887-.96,4.0197,4.0197,0,0,0-1.99023.48731,4.37739,4.37739,0,0,0-1.49024,1.37793v10.16113Z"/><path d="M251.123,191.49687v-19.4873h2.83985l10.85742,14.47656V172.00957h2.75586v19.4873h-2.58887l-11.1084-14.89355v14.89355Z"/><path d="M278.01553,191.74785a7.47832,7.47832,0,0,1-3.77246-.96094,7.26862,7.26862,0,0,1-2.68652-2.64453,7.55533,7.55533,0,0,1-.041-7.44727,7.43953,7.43953,0,0,1,2.57422-2.63086,6.80045,6.80045,0,0,1,3.61914-.98828,6.35248,6.35248,0,0,1,3.49414.98828,7.0951,7.0951,0,0,1,2.4502,2.67286,7.909,7.909,0,0,1,.9043,3.7998v.75195H273.36612a4.78533,4.78533,0,0,0,2.51953,3.54981,4.68566,4.68566,0,0,0,2.24121.542,5.9866,5.9866,0,0,0,2.00488-.334,4.83474,4.83474,0,0,0,1.58594-.89063l1.75391,1.72656a8.98277,8.98277,0,0,1-2.54688,1.40528A8.80684,8.80684,0,0,1,278.01553,191.74785Zm-4.62109-8.54688h8.40723a4.77365,4.77365,0,0,0-.79395-1.93457,4.45241,4.45241,0,0,0-1.46094-1.33691,3.84511,3.84511,0,0,0-1.9209-.48731,4.00076,4.00076,0,0,0-1.94921.48731,4.43286,4.43286,0,0,0-1.48926,1.32226A4.663,4.663,0,0,0,273.39444,183.201Z"/><path d="M292.79776,191.74785a4.603,4.603,0,0,1-3.11816-.94727,3.52858,3.52858,0,0,1-1.085-2.81152v-8.32422H285.5878V177.327h3.00683v-3.5918l2.75586-.69531V177.327h4.20313v2.33789h-4.20313v7.71191a2.01238,2.01238,0,0,0,.48731,1.51758,2.293,2.293,0,0,0,1.60058.459,5.34756,5.34756,0,0,0,2.03223-.36231v2.36621a6.48423,6.48423,0,0,1-1.29492.293A10.64513,10.64513,0,0,1,292.79776,191.74785Z"/><path d="M300.5087,191.49687,296.58389,177.327h2.67285l2.75586,10.38379,3.25684-10.38379h2.36621l3.22949,10.41211,2.78418-10.41211h2.58887l-3.95313,14.16992h-2.67285L306.411,181.11308l-3.20117,10.38379Z"/><path d="M324.67276,191.77519a7.43131,7.43131,0,0,1-3.74414-.96,7.16056,7.16056,0,0,1-2.67188-2.64551,7.35408,7.35408,0,0,1,2.65821-10.13281,7.44357,7.44357,0,0,1,10.16113,2.64453,7.2478,7.2478,0,0,1,.97461,3.74414,7.33894,7.33894,0,0,1-.97461,3.74414,7.06842,7.06842,0,0,1-2.6582,2.64551A7.43238,7.43238,0,0,1,324.67276,191.77519Zm0-2.45019a4.41594,4.41594,0,0,0,2.36719-.65332,4.70519,4.70519,0,0,0,1.66992-1.76856,5.11047,5.11047,0,0,0,.6123-2.50488,4.97929,4.97929,0,0,0-.6123-2.46387,4.84255,4.84255,0,0,0-1.66992-1.76758,4.49523,4.49523,0,0,0-4.71875,0,4.80249,4.80249,0,0,0-1.68457,1.76758,4.97919,4.97919,0,0,0-.61231,2.46387,5.11037,5.11037,0,0,0,.61231,2.50488,4.6681,4.6681,0,0,0,1.68457,1.76856A4.43,4.43,0,0,0,324.67276,189.325Z"/><path d="M334.69522,191.49687V177.29863h2.7832v1.83789a4.84331,4.84331,0,0,1,1.65723-1.55957,4.48242,4.48242,0,0,1,2.24023-.55664,3.86338,3.86338,0,0,1,1.41993.22265v2.50586a3.47575,3.47575,0,0,0-.80664-.23632,5.193,5.193,0,0,0-.86329-.07032,3.685,3.685,0,0,0-2.14355.6543,4.43125,4.43125,0,0,0-1.50391,1.90723v9.49316Z"/><path d="M345.02335,191.49687v-19.4873l2.7832-.5293V183.535l6.87695-6.208h3.25684l-7.32129,6.626,7.71094,7.54394h-3.67481l-6.84863-6.68164v6.68164Z"/><rect class="bfb6bd70-5338-4840-a1db-65c9ddca7fd9" x="68.49307" y="196.35527" width="98.98242" height="2"/><path class="bfb6bd70-5338-4840-a1db-65c9ddca7fd9" d="M68.50186,150.66319V143.722h3.39042a2.67714,2.67714,0,0,1,1.29384.29806,2.16174,2.16174,0,0,1,.85353.81289,2.29612,2.29612,0,0,1,.30145,1.17981,2.13852,2.13852,0,0,1-1.155,1.934,2.68976,2.68976,0,0,1-1.29384.29693H70.20666v2.41946Zm1.7048-3.77766h1.37853a1.06048,1.06048,0,0,0,.77788-.2529.851.851,0,0,0,.2529-.63.83653.83653,0,0,0-.2529-.62434,1.05831,1.05831,0,0,0-.76772-.24725H70.20666Z"/><path class="bfb6bd70-5338-4840-a1db-65c9ddca7fd9" d="M76.83959,150.74222a2.0454,2.0454,0,0,1-.91675-.19757,1.527,1.527,0,0,1-.62434-.54531,1.45111,1.45111,0,0,1-.22355-.80386,1.35817,1.35817,0,0,1,.23822-.80837,1.4701,1.4701,0,0,1,.68418-.50467,2.94132,2.94132,0,0,1,1.0703-.17386,3.05334,3.05334,0,0,1,.56564.05419,3.67517,3.67517,0,0,1,.62434.184v-.41661a.65051.65051,0,0,0-.24725-.56,1.28211,1.28211,0,0,0-.76321-.184,2.76126,2.76126,0,0,0-.64015.08467,5.273,5.273,0,0,0-.79821.27209l-.55547-1.12a5.7569,5.7569,0,0,1,2.35059-.55548,2.45611,2.45611,0,0,1,1.65061.5058,1.76784,1.76784,0,0,1,.58935,1.418v3.27187H78.25763v-.446a2.3318,2.3318,0,0,1-.674.4008A2.1214,2.1214,0,0,1,76.83959,150.74222Zm-.28676-1.57609a.42756.42756,0,0,0,.20773.3816,1.0597,1.0597,0,0,0,.5758.13435,1.7393,1.7393,0,0,0,.48547-.06548,1.7017,1.7017,0,0,0,.4358-.19306v-.6537c-.14564-.03387-.29016-.05983-.4358-.08015a3.41269,3.41269,0,0,0-.446-.02936,1.18345,1.18345,0,0,0-.60966.12871A.415.415,0,0,0,76.55283,149.16613Z"/><path class="bfb6bd70-5338-4840-a1db-65c9ddca7fd9" d="M81.12418,150.66319v-5.11667h1.60545v1.16063a2.43928,2.43928,0,0,1,.59048-.95176,1.15268,1.15268,0,0,1,.79821-.30709,2.16672,2.16672,0,0,1,.27773.02935.93054.93054,0,0,1,.25742.09936v1.37739a1.31546,1.31546,0,0,0-.34661-.11855,2.11956,2.11956,0,0,0-.40644-.03951,1.32649,1.32649,0,0,0-.665.17386,1.4998,1.4998,0,0,0-.5058.46064v3.23235Z"/><path class="bfb6bd70-5338-4840-a1db-65c9ddca7fd9" d="M87.89485,150.76255a2.68225,2.68225,0,0,1-2.33479-1.304,2.5462,2.5462,0,0,1-.36128-1.34352,2.68453,2.68453,0,0,1,.33644-1.348,2.55175,2.55175,0,0,1,.9224-.94724,2.50572,2.50572,0,0,1,1.31869-.35225,2.39258,2.39258,0,0,1,2.19592,1.304,2.96136,2.96136,0,0,1,.32289,1.40336v.3466H86.77487a1.45913,1.45913,0,0,0,.24726.5058,1.16248,1.16248,0,0,0,.4166.33757,1.23017,1.23017,0,0,0,.53628.11855,1.48289,1.48289,0,0,0,.57918-.10952,1.06531,1.06531,0,0,0,.43128-.31725l1.06127.88289a3.34441,3.34441,0,0,1-1.00143.63A3.20921,3.20921,0,0,1,87.89485,150.76255Zm-1.12-3.15333h2.03222a1.30693,1.30693,0,0,0-.2179-.47531,1.0677,1.0677,0,0,0-.35676-.30822.996.996,0,0,0-.46629-.10838.96281.96281,0,0,0-.45047.10386.88478.88478,0,0,0-.33757.30258A1.48015,1.48015,0,0,0,86.77487,147.60922Z"/><path class="bfb6bd70-5338-4840-a1db-65c9ddca7fd9" d="M91.36543,150.66319v-5.11667H92.972v.83321a2.08677,2.08677,0,0,1,.709-.67853,1.80179,1.80179,0,0,1,.9066-.23371,1.70117,1.70117,0,0,1,.87724.22355,1.594,1.594,0,0,1,.60063.61418,1.84577,1.84577,0,0,1,.2179.90772v3.45025H94.67681v-2.984a.99852.99852,0,0,0-.23258-.69434.79758.79758,0,0,0-.61982-.25854,1.0517,1.0517,0,0,0-.4708.105,1.07322,1.07322,0,0,0-.3816.32176v3.51009Z"/><path class="bfb6bd70-5338-4840-a1db-65c9ddca7fd9" d="M99.92219,150.76255a1.99172,1.99172,0,0,1-1.36836-.41661,1.56466,1.56466,0,0,1-.46628-1.22949v-2.33027h-.99127v-1.23966h.99127v-1.4169l1.60658-.32742v1.74432h1.36835v1.23966H99.69413v2.013a.61433.61433,0,0,0,.15354.47531.76644.76644,0,0,0,.52047.13887,1.91519,1.91519,0,0,0,.27774-.01919,2.97359,2.97359,0,0,0,.37709-.08919v1.29836a3.277,3.277,0,0,1-.53628.114A3.99349,3.99349,0,0,1,99.92219,150.76255Z"/><path class="bfb6bd70-5338-4840-a1db-65c9ddca7fd9" d="M104.226,150.66319V143.6035l1.60545-.24725v2.8451a1.81261,1.81261,0,0,1,.64918-.50015,2.04225,2.04225,0,0,1,1.99383.16822,2.52646,2.52646,0,0,1,.81289.93708,2.81416,2.81416,0,0,1,.30257,1.30852,2.67943,2.67943,0,0,1-.31725,1.29836,2.5114,2.5114,0,0,1-.858.93256,2.18178,2.18178,0,0,1-1.20465.34661,1.77885,1.77885,0,0,1-.77789-.17274,1.845,1.845,0,0,1-.61982-.481v.62434Zm2.56737-1.28933a1.19647,1.19647,0,0,0,.63-.1637,1.17416,1.17416,0,0,0,.43128-.45048,1.34114,1.34114,0,0,0,.15807-.65482,1.313,1.313,0,0,0-.15807-.64918,1.17541,1.17541,0,0,0-.43692-.446,1.20179,1.20179,0,0,0-.62434-.16371,1.29739,1.29739,0,0,0-.53064.10387,1.3825,1.3825,0,0,0-.43128.31274v1.7048a1.40967,1.40967,0,0,0,.43693.29806A1.29321,1.29321,0,0,0,106.79334,149.37386Z"/><path class="bfb6bd70-5338-4840-a1db-65c9ddca7fd9" d="M110.68051,150.66319v-5.11667H112.286v1.16063a2.43928,2.43928,0,0,1,.59048-.95176,1.15268,1.15268,0,0,1,.79821-.30709,2.16672,2.16672,0,0,1,.27773.02935.93054.93054,0,0,1,.25742.09936v1.37739a1.31546,1.31546,0,0,0-.34661-.11855,2.11956,2.11956,0,0,0-.40644-.03951,1.32649,1.32649,0,0,0-.665.17386,1.4998,1.4998,0,0,0-.5058.46064v3.23235Z"/><path class="bfb6bd70-5338-4840-a1db-65c9ddca7fd9" d="M116.55926,150.74222a2.04543,2.04543,0,0,1-.91675-.19757,1.527,1.527,0,0,1-.62434-.54531,1.45111,1.45111,0,0,1-.22355-.80386,1.35817,1.35817,0,0,1,.23822-.80837,1.4701,1.4701,0,0,1,.68418-.50467,2.94132,2.94132,0,0,1,1.0703-.17386,3.05334,3.05334,0,0,1,.56564.05419,3.67517,3.67517,0,0,1,.62434.184v-.41661a.65051.65051,0,0,0-.24725-.56,1.28209,1.28209,0,0,0-.76321-.184,2.76132,2.76132,0,0,0-.64015.08467,5.273,5.273,0,0,0-.79821.27209l-.55547-1.12a5.7569,5.7569,0,0,1,2.35059-.55548,2.45616,2.45616,0,0,1,1.65062.5058,1.76787,1.76787,0,0,1,.58934,1.418v3.27187H117.9773v-.446a2.3318,2.3318,0,0,1-.674.4008A2.1214,2.1214,0,0,1,116.55926,150.74222Zm-.28676-1.57609a.42758.42758,0,0,0,.20773.3816,1.0597,1.0597,0,0,0,.5758.13435,1.7393,1.7393,0,0,0,.48547-.06548,1.7017,1.7017,0,0,0,.4358-.19306v-.6537c-.14564-.03387-.29016-.05983-.4358-.08015a3.41269,3.41269,0,0,0-.446-.02936,1.18347,1.18347,0,0,0-.60966.12871A.415.415,0,0,0,116.2725,149.16613Z"/><path class="bfb6bd70-5338-4840-a1db-65c9ddca7fd9" d="M120.84273,150.66319v-5.11667h1.60658v.83321a2.08677,2.08677,0,0,1,.709-.67853,1.80179,1.80179,0,0,1,.9066-.23371,1.70117,1.70117,0,0,1,.87724.22355,1.594,1.594,0,0,1,.60063.61418,1.84577,1.84577,0,0,1,.2179.90772v3.45025h-1.60658v-2.984a.99852.99852,0,0,0-.23258-.69434.79758.79758,0,0,0-.61982-.25854,1.0517,1.0517,0,0,0-.4708.105,1.07322,1.07322,0,0,0-.3816.32176v3.51009Z"/><path class="bfb6bd70-5338-4840-a1db-65c9ddca7fd9" d="M129.07207,150.69255a1.98833,1.98833,0,0,1-1.1403-.35112,2.48968,2.48968,0,0,1-.8174-.94273,2.808,2.808,0,0,1-.30257-1.304,2.67192,2.67192,0,0,1,.31725-1.30288,2.51456,2.51456,0,0,1,.858-.928,2.18836,2.18836,0,0,1,1.20465-.34661,1.82056,1.82056,0,0,1,.75869.15919,1.75308,1.75308,0,0,1,.60967.45612v-2.529l1.60545-.24725v7.30694H130.5793v-.66385a1.74656,1.74656,0,0,1-.64918.50466A1.98094,1.98094,0,0,1,129.07207,150.69255Zm.53628-1.32772a1.27148,1.27148,0,0,0,.95176-.40757v-1.72513a1.25255,1.25255,0,0,0-.43128-.29693,1.36041,1.36041,0,0,0-.52048-.09935,1.20576,1.20576,0,0,0-.62547.16371,1.164,1.164,0,0,0-.4358.4516,1.32514,1.32514,0,0,0-.15919.6537,1.30867,1.30867,0,0,0,.15919.64466,1.1641,1.1641,0,0,0,.4358.45161A1.21673,1.21673,0,0,0,129.60835,149.36483Z"/><path class="a7de0b18-47f1-49ce-8fa4-b6e76bf67cd9" d="M175.82315,150.6648v-6.89337h1.69419v6.89337Z"/><path class="a7de0b18-47f1-49ce-8fa4-b6e76bf67cd9" d="M178.87628,150.6648v-5.08145h1.59552v.82747a2.07264,2.07264,0,0,1,.70414-.67386,1.78944,1.78944,0,0,1,.90036-.2321,1.6895,1.6895,0,0,1,.8712.222,1.583,1.583,0,0,1,.5965.60995,1.833,1.833,0,0,1,.2164.90148v3.4265h-1.59553v-2.96343a.99166.99166,0,0,0-.231-.68956.7921.7921,0,0,0-.61556-.25676,1.04443,1.04443,0,0,0-.46756.10427,1.066,1.066,0,0,0-.379.31955v3.48593Z"/><path class="a7de0b18-47f1-49ce-8fa4-b6e76bf67cd9" d="M185.828,144.80633a.89513.89513,0,0,1-.63014-1.53161.89432.89432,0,0,1,1.26476,1.26476A.85292.85292,0,0,1,185.828,144.80633Zm-.7972,5.85847v-5.08145h1.5944v5.08145Z"/><path class="a7de0b18-47f1-49ce-8fa4-b6e76bf67cd9" d="M190.42616,150.76347a1.982,1.982,0,0,1-1.35894-.41373,1.55338,1.55338,0,0,1-.462-1.221v-2.31424h-.98557v-1.23112h.98557V144.1762l1.5944-.32516v1.73231h1.35894v1.23112h-1.35894v1.99917a.61019.61019,0,0,0,.15361.472.75923.75923,0,0,0,.51689.13791,1.911,1.911,0,0,0,.27582-.01906,2.94258,2.94258,0,0,0,.37338-.08858v1.28943a3.2638,3.2638,0,0,1-.53147.11324A3.96672,3.96672,0,0,1,190.42616,150.76347Z"/><path class="a7de0b18-47f1-49ce-8fa4-b6e76bf67cd9" d="M193.31111,144.80633a.89513.89513,0,0,1-.63014-1.53161.89472.89472,0,0,1,1.26588,1.26476A.85363.85363,0,0,1,193.31111,144.80633Zm-.7972,5.85847v-5.08145h1.59552v5.08145Z"/><path class="a7de0b18-47f1-49ce-8fa4-b6e76bf67cd9" d="M196.93495,150.74329a2.02791,2.02791,0,0,1-.91045-.19622,1.51962,1.51962,0,0,1-.62116-.54155,1.44961,1.44961,0,0,1-.22089-.79833,1.34111,1.34111,0,0,1,.23658-.8028,1.451,1.451,0,0,1,.67835-.5012,2.9274,2.9274,0,0,1,1.06406-.17267,3.03242,3.03242,0,0,1,.56174.05382,3.6804,3.6804,0,0,1,.62.18276v-.41373a.64388.64388,0,0,0-.24667-.55614,1.27094,1.27094,0,0,0-.758-.18276,2.726,2.726,0,0,0-.63462.08409,5.19622,5.19622,0,0,0-.79271.27022l-.55165-1.11227a5.71262,5.71262,0,0,1,2.3333-.55165,2.43721,2.43721,0,0,1,1.63925.50232,1.75294,1.75294,0,0,1,.5864,1.40827v3.24935h-1.57534v-.44289a2.31567,2.31567,0,0,1-.66938.398A2.10663,2.10663,0,0,1,196.93495,150.74329ZM196.649,149.178a.42563.42563,0,0,0,.20743.379,1.04816,1.04816,0,0,0,.57071.13343,1.72189,1.72189,0,0,0,.48213-.065,1.69724,1.69724,0,0,0,.43392-.19174v-.64919c-.14464-.03364-.28928-.05943-.43392-.07961a3.36471,3.36471,0,0,0-.44288-.02915,1.18089,1.18089,0,0,0-.60547.12782A.41218.41218,0,0,0,196.649,149.178Z"/><path class="a7de0b18-47f1-49ce-8fa4-b6e76bf67cd9" d="M203.53232,150.76347a1.97812,1.97812,0,0,1-1.35895-.41373,1.55392,1.55392,0,0,1-.46307-1.221v-2.31424h-.98444v-1.23112h.98444V144.1762l1.59553-.32516v1.73231h1.35894v1.23112h-1.35894v1.99917a.61011.61011,0,0,0,.15248.472.76122.76122,0,0,0,.51689.13791,1.90008,1.90008,0,0,0,.27583-.01906,2.95049,2.95049,0,0,0,.37449-.08858v1.28943a3.25358,3.25358,0,0,1-.53259.11324A3.96448,3.96448,0,0,1,203.53232,150.76347Z"/><path class="a7de0b18-47f1-49ce-8fa4-b6e76bf67cd9" d="M206.41726,144.80633a.89512.89512,0,0,1-.63013-1.53161.89471.89471,0,0,1,1.26587,1.26476A.85362.85362,0,0,1,206.41726,144.80633Zm-.7972,5.85847v-5.08145h1.59552v5.08145Z"/><path class="a7de0b18-47f1-49ce-8fa4-b6e76bf67cd9" d="M210.031,150.6648l-2.05747-5.08145h1.73231l1.15264,3.19105,1.1616-3.19105H213.665l-2.07766,5.08145Z"/><path class="a7de0b18-47f1-49ce-8fa4-b6e76bf67cd9" d="M216.72705,150.76347a2.66373,2.66373,0,0,1-2.31872-1.295,2.52864,2.52864,0,0,1-.3588-1.33427,2.666,2.666,0,0,1,.33413-1.33876,2.5341,2.5341,0,0,1,.91605-.94072,2.48842,2.48842,0,0,1,1.30961-.34983,2.37616,2.37616,0,0,1,2.18081,1.295,2.94106,2.94106,0,0,1,.32067,1.3937v.34422h-3.496a1.449,1.449,0,0,0,.24555.50232,1.15452,1.15452,0,0,0,.41374.33525,1.22163,1.22163,0,0,0,.53259.11773,1.47279,1.47279,0,0,0,.57519-.10876,1.05822,1.05822,0,0,0,.42832-.31507l1.054.87681a3.3212,3.3212,0,0,1-.99454.62565A3.187,3.187,0,0,1,216.72705,150.76347Zm-1.11227-3.13162H217.633a1.29789,1.29789,0,0,0-.2164-.472,1.06031,1.06031,0,0,0-.35431-.3061.98908.98908,0,0,0-.46307-.10763.95608.95608,0,0,0-.44738.10315.87866.87866,0,0,0-.33525.30049A1.47035,1.47035,0,0,0,215.61478,147.63185Z"/><path class="a7de0b18-47f1-49ce-8fa4-b6e76bf67cd9" d="M222.36015,150.6648v-5.08145h1.5944v.82747a2.08269,2.08269,0,0,1,.70414-.67386,1.7936,1.7936,0,0,1,.90148-.2321,1.69525,1.69525,0,0,1,.8712.222,1.588,1.588,0,0,1,.59538.60995,1.821,1.821,0,0,1,.21639.90148v3.4265h-1.5944v-2.96343a.9869.9869,0,0,0-.23209-.68956.78808.78808,0,0,0-.61444-.25676,1.04582,1.04582,0,0,0-.46868.10427,1.07549,1.07549,0,0,0-.379.31955v3.48593Z"/><path class="a7de0b18-47f1-49ce-8fa4-b6e76bf67cd9" d="M230.02942,150.74329a2.03123,2.03123,0,0,1-.91044-.19622,1.51633,1.51633,0,0,1-.62-.54155,1.44115,1.44115,0,0,1-.222-.79833,1.34874,1.34874,0,0,1,.23658-.8028,1.45994,1.45994,0,0,1,.67947-.5012,2.921,2.921,0,0,1,1.06293-.17267,3.03234,3.03234,0,0,1,.56174.05382,3.65079,3.65079,0,0,1,.62005.18276v-.41373a.646.646,0,0,0-.24555-.55614,1.27329,1.27329,0,0,0-.758-.18276,2.74235,2.74235,0,0,0-.63574.08409,5.23767,5.23767,0,0,0-.79272.27022l-.55165-1.11227a5.71752,5.71752,0,0,1,2.33442-.55165,2.43919,2.43919,0,0,1,1.63925.50232,1.7557,1.7557,0,0,1,.58529,1.40827v3.24935H231.4377v-.44289a2.31593,2.31593,0,0,1-.66938.398A2.10673,2.10673,0,0,1,230.02942,150.74329Zm-.28479-1.56525a.42463.42463,0,0,0,.20631.379,1.05234,1.05234,0,0,0,.57183.13343,1.72763,1.72763,0,0,0,.48213-.065,1.69013,1.69013,0,0,0,.4328-.19174v-.64919c-.14464-.03364-.28816-.05943-.4328-.07961a3.39057,3.39057,0,0,0-.44289-.02915,1.17534,1.17534,0,0,0-.60547.12782A.41219.41219,0,0,0,229.74463,149.178Z"/><path class="a7de0b18-47f1-49ce-8fa4-b6e76bf67cd9" d="M234.28452,150.6648v-5.08145h1.5944v.80841a2.09451,2.09451,0,0,1,.6649-.66041,1.61726,1.61726,0,0,1,.84205-.22649,1.5,1.5,0,0,1,.86671.25565,1.57908,1.57908,0,0,1,.56062.68956,2.08927,2.08927,0,0,1,.71872-.70414,1.88284,1.88284,0,0,1,.94632-.24107,1.49644,1.49644,0,0,1,1.39258.85663,2.0428,2.0428,0,0,1,.20182.92614v3.37717h-1.5944v-3.0621a.88711.88711,0,0,0-.20743-.61556.70255.70255,0,0,0-.55165-.23209.85061.85061,0,0,0-.398.09418,1.05528,1.05528,0,0,0-.33973.2904v3.52517h-1.59552v-3.0621a.88715.88715,0,0,0-.20743-.61556.69861.69861,0,0,0-.55053-.23209.9194.9194,0,0,0-.749.39467v3.51508Z"/><path class="a7de0b18-47f1-49ce-8fa4-b6e76bf67cd9" d="M245.79516,150.76347a2.66016,2.66016,0,0,1-2.31873-1.295,2.52956,2.52956,0,0,1-.35991-1.33427,2.66663,2.66663,0,0,1,.33525-1.33876,2.5396,2.5396,0,0,1,.91493-.94072,2.49123,2.49123,0,0,1,1.3096-.34983,2.37623,2.37623,0,0,1,2.18193,1.295,2.94057,2.94057,0,0,1,.31956,1.3937v.34422h-3.496a1.43126,1.43126,0,0,0,.24667.50232,1.13559,1.13559,0,0,0,.41374.33525,1.21317,1.21317,0,0,0,.53146.11773,1.47848,1.47848,0,0,0,.57632-.10876,1.06572,1.06572,0,0,0,.42831-.31507l1.054.87681a3.33517,3.33517,0,0,1-.99454.62565A3.19131,3.19131,0,0,1,245.79516,150.76347Zm-1.11339-3.13162h2.01935a1.3168,1.3168,0,0,0-.2164-.472,1.06386,1.06386,0,0,0-.35544-.3061.98451.98451,0,0,0-.462-.10763.96062.96062,0,0,0-.44849.10315.88683.88683,0,0,0-.33525.30049A1.47014,1.47014,0,0,0,244.68177,147.63185Z"/><path class="bfb6bd70-5338-4840-a1db-65c9ddca7fd9" d="M68.50186,210.94933v-6.94115h3.39042a2.677,2.677,0,0,1,1.29384.29806,2.16165,2.16165,0,0,1,.85353.81288,2.29616,2.29616,0,0,1,.30145,1.17982,2.13849,2.13849,0,0,1-1.155,1.934,2.68965,2.68965,0,0,1-1.29384.29693H70.20666v2.41947Zm1.7048-3.77767h1.37853a1.06044,1.06044,0,0,0,.77788-.2529.851.851,0,0,0,.2529-.63.83655.83655,0,0,0-.2529-.62435,1.05831,1.05831,0,0,0-.76772-.24725H70.20666Z"/><path class="bfb6bd70-5338-4840-a1db-65c9ddca7fd9" d="M76.83959,211.02836a2.04541,2.04541,0,0,1-.91675-.19758,1.52683,1.52683,0,0,1-.62434-.54531,1.45108,1.45108,0,0,1-.22355-.80386,1.35817,1.35817,0,0,1,.23822-.80837,1.47015,1.47015,0,0,1,.68418-.50466,2.94109,2.94109,0,0,1,1.0703-.17387,3.05334,3.05334,0,0,1,.56564.05419,3.67609,3.67609,0,0,1,.62434.184v-.4166a.6505.6505,0,0,0-.24725-.56,1.2821,1.2821,0,0,0-.76321-.184,2.76126,2.76126,0,0,0-.64015.08467,5.27318,5.27318,0,0,0-.79821.2721l-.55547-1.12a5.75688,5.75688,0,0,1,2.35059-.55547,2.45611,2.45611,0,0,1,1.65061.50579,1.76786,1.76786,0,0,1,.58935,1.418v3.27187H78.25763v-.446a2.33225,2.33225,0,0,1-.674.4008A2.12162,2.12162,0,0,1,76.83959,211.02836Zm-.28676-1.5761a.42755.42755,0,0,0,.20773.3816,1.05961,1.05961,0,0,0,.5758.13436,1.73893,1.73893,0,0,0,.48547-.06549,1.7017,1.7017,0,0,0,.4358-.19306V209.056c-.14564-.03387-.29016-.05984-.4358-.08016a3.41269,3.41269,0,0,0-.446-.02936,1.18355,1.18355,0,0,0-.60966.12871A.415.415,0,0,0,76.55283,209.45226Z"/><path class="bfb6bd70-5338-4840-a1db-65c9ddca7fd9" d="M81.12418,210.94933v-5.11667h1.60545v1.16062a2.43936,2.43936,0,0,1,.59048-.95176,1.15268,1.15268,0,0,1,.79821-.30709,2.1665,2.1665,0,0,1,.27773.02936.93079.93079,0,0,1,.25742.09935v1.37739a1.31582,1.31582,0,0,0-.34661-.11855,2.12036,2.12036,0,0,0-.40644-.03951,1.3264,1.3264,0,0,0-.665.17387,1.49977,1.49977,0,0,0-.5058.46063v3.23236Z"/><path class="bfb6bd70-5338-4840-a1db-65c9ddca7fd9" d="M87.89485,211.04868a2.68225,2.68225,0,0,1-2.33479-1.304,2.54618,2.54618,0,0,1-.36128-1.34352,2.68449,2.68449,0,0,1,.33644-1.348,2.5516,2.5516,0,0,1,.9224-.94724,2.50563,2.50563,0,0,1,1.31869-.35225,2.39255,2.39255,0,0,1,2.19592,1.304,2.96136,2.96136,0,0,1,.32289,1.40336v.34661H86.77487a1.45908,1.45908,0,0,0,.24726.50579,1.1625,1.1625,0,0,0,.4166.33758,1.23017,1.23017,0,0,0,.53628.11854,1.48307,1.48307,0,0,0,.57918-.10951,1.06549,1.06549,0,0,0,.43128-.31725l1.06127.88288a3.34421,3.34421,0,0,1-1.00143.63A3.209,3.209,0,0,1,87.89485,211.04868Zm-1.12-3.15332h2.03222a1.307,1.307,0,0,0-.2179-.47532,1.0677,1.0677,0,0,0-.35676-.30822.99608.99608,0,0,0-.46629-.10838.96269.96269,0,0,0-.45047.10387.88475.88475,0,0,0-.33757.30257A1.48021,1.48021,0,0,0,86.77487,207.89536Z"/><path class="bfb6bd70-5338-4840-a1db-65c9ddca7fd9" d="M91.36543,210.94933v-5.11667H92.972v.83321a2.0868,2.0868,0,0,1,.709-.67854,1.80188,1.80188,0,0,1,.9066-.2337,1.70116,1.70116,0,0,1,.87724.22354,1.594,1.594,0,0,1,.60063.61418,1.84579,1.84579,0,0,1,.2179.90772v3.45026H94.67681v-2.984a.99852.99852,0,0,0-.23258-.69434.79758.79758,0,0,0-.61982-.25854,1.0517,1.0517,0,0,0-.4708.105,1.07315,1.07315,0,0,0-.3816.32177v3.51009Z"/><path class="bfb6bd70-5338-4840-a1db-65c9ddca7fd9" d="M99.92219,211.04868a1.99172,1.99172,0,0,1-1.36836-.41661,1.56465,1.56465,0,0,1-.46628-1.22949v-2.33027h-.99127v-1.23965h.99127v-1.41691l1.60658-.32741v1.74432h1.36835v1.23965H99.69413v2.013a.61433.61433,0,0,0,.15354.47531.76644.76644,0,0,0,.52047.13887,1.91378,1.91378,0,0,0,.27774-.01919,2.97184,2.97184,0,0,0,.37709-.08919v1.29836a3.277,3.277,0,0,1-.53628.114A3.99349,3.99349,0,0,1,99.92219,211.04868Z"/><path class="bfb6bd70-5338-4840-a1db-65c9ddca7fd9" d="M104.226,210.94933v-7.0597l1.60545-.24725v2.8451a1.81272,1.81272,0,0,1,.64918-.50015,2.04225,2.04225,0,0,1,1.99383.16822,2.52654,2.52654,0,0,1,.81289.93708,2.81419,2.81419,0,0,1,.30257,1.30852,2.67943,2.67943,0,0,1-.31725,1.29836,2.51133,2.51133,0,0,1-.858.93256,2.18178,2.18178,0,0,1-1.20465.34661,1.77885,1.77885,0,0,1-.77789-.17274,1.845,1.845,0,0,1-.61982-.481v.62435Zm2.56737-1.28933a1.19638,1.19638,0,0,0,.63-.16371,1.17414,1.17414,0,0,0,.43128-.45047,1.34118,1.34118,0,0,0,.15807-.65483,1.31307,1.31307,0,0,0-.15807-.64918,1.17555,1.17555,0,0,0-.43692-.446,1.20178,1.20178,0,0,0-.62434-.1637,1.29755,1.29755,0,0,0-.53064.10386,1.3825,1.3825,0,0,0-.43128.31274v1.7048a1.4095,1.4095,0,0,0,.43693.29806A1.29322,1.29322,0,0,0,106.79334,209.66Z"/><path class="bfb6bd70-5338-4840-a1db-65c9ddca7fd9" d="M110.68051,210.94933v-5.11667H112.286v1.16062a2.43936,2.43936,0,0,1,.59048-.95176,1.15268,1.15268,0,0,1,.79821-.30709,2.1665,2.1665,0,0,1,.27773.02936.93079.93079,0,0,1,.25742.09935v1.37739a1.31582,1.31582,0,0,0-.34661-.11855,2.12036,2.12036,0,0,0-.40644-.03951,1.3264,1.3264,0,0,0-.665.17387,1.49977,1.49977,0,0,0-.5058.46063v3.23236Z"/><path class="bfb6bd70-5338-4840-a1db-65c9ddca7fd9" d="M116.55926,211.02836a2.04544,2.04544,0,0,1-.91675-.19758,1.52683,1.52683,0,0,1-.62434-.54531,1.45108,1.45108,0,0,1-.22355-.80386,1.35817,1.35817,0,0,1,.23822-.80837,1.47015,1.47015,0,0,1,.68418-.50466,2.94109,2.94109,0,0,1,1.0703-.17387,3.05334,3.05334,0,0,1,.56564.05419,3.67609,3.67609,0,0,1,.62434.184v-.4166a.6505.6505,0,0,0-.24725-.56,1.28208,1.28208,0,0,0-.76321-.184,2.76132,2.76132,0,0,0-.64015.08467,5.27318,5.27318,0,0,0-.79821.2721l-.55547-1.12a5.75688,5.75688,0,0,1,2.35059-.55547,2.45616,2.45616,0,0,1,1.65062.50579,1.76789,1.76789,0,0,1,.58934,1.418v3.27187H117.9773v-.446a2.33225,2.33225,0,0,1-.674.4008A2.12162,2.12162,0,0,1,116.55926,211.02836Zm-.28676-1.5761a.42757.42757,0,0,0,.20773.3816,1.05961,1.05961,0,0,0,.5758.13436,1.73893,1.73893,0,0,0,.48547-.06549,1.7017,1.7017,0,0,0,.4358-.19306V209.056c-.14564-.03387-.29016-.05984-.4358-.08016a3.41269,3.41269,0,0,0-.446-.02936,1.18357,1.18357,0,0,0-.60966.12871A.415.415,0,0,0,116.2725,209.45226Z"/><path class="bfb6bd70-5338-4840-a1db-65c9ddca7fd9" d="M120.84273,210.94933v-5.11667h1.60658v.83321a2.0868,2.0868,0,0,1,.709-.67854,1.80188,1.80188,0,0,1,.9066-.2337,1.70116,1.70116,0,0,1,.87724.22354,1.594,1.594,0,0,1,.60063.61418,1.84579,1.84579,0,0,1,.2179.90772v3.45026h-1.60658v-2.984a.99852.99852,0,0,0-.23258-.69434.79758.79758,0,0,0-.61982-.25854,1.0517,1.0517,0,0,0-.4708.105,1.07315,1.07315,0,0,0-.3816.32177v3.51009Z"/><path class="bfb6bd70-5338-4840-a1db-65c9ddca7fd9" d="M129.07207,210.97868a1.98833,1.98833,0,0,1-1.1403-.35112,2.48972,2.48972,0,0,1-.8174-.94272,2.8081,2.8081,0,0,1-.30257-1.304,2.67192,2.67192,0,0,1,.31725-1.30288,2.51456,2.51456,0,0,1,.858-.928,2.18836,2.18836,0,0,1,1.20465-.34661,1.82072,1.82072,0,0,1,.75869.15919,1.7532,1.7532,0,0,1,.60967.45612v-2.529l1.60545-.24725v7.307H130.5793v-.66386a1.74658,1.74658,0,0,1-.64918.50467A1.98107,1.98107,0,0,1,129.07207,210.97868Zm.53628-1.32771a1.27144,1.27144,0,0,0,.95176-.40758v-1.72512a1.25228,1.25228,0,0,0-.43128-.29693,1.36041,1.36041,0,0,0-.52048-.09936,1.20586,1.20586,0,0,0-.62547.16371,1.16408,1.16408,0,0,0-.4358.4516,1.32519,1.32519,0,0,0-.15919.6537,1.30874,1.30874,0,0,0,.15919.64467,1.164,1.164,0,0,0,.4358.4516A1.21674,1.21674,0,0,0,129.60835,209.651Z"/><path class="a0051288-ec64-407d-9ec4-621f65c0ca38" d="M174.02237,210.74983v-6.714h2.73341a3.33587,3.33587,0,0,1,1.31811.25991,3.405,3.405,0,0,1,1.07458.71857,3.35117,3.35117,0,0,1,0,4.757,3.40828,3.40828,0,0,1-1.07458.71967,3.33527,3.33527,0,0,1-1.31811.25881Zm1.649-1.40984h1.08441a1.45261,1.45261,0,0,0,.84416-.25882,1.84507,1.84507,0,0,0,.59845-.70546,2.25921,2.25921,0,0,0,0-1.97007,1.852,1.852,0,0,0-.59845-.7,1.45364,1.45364,0,0,0-.84416-.25991h-1.08441Z"/><path class="a0051288-ec64-407d-9ec4-621f65c0ca38" d="M183.62262,210.84593a2.59095,2.59095,0,0,1-2.25837-1.26132,2.46367,2.46367,0,0,1-.35055-1.29954,2.59726,2.59726,0,0,1,.32653-1.30392,2.47359,2.47359,0,0,1,.89111-.91623,2.42638,2.42638,0,0,1,1.27552-.34072,2.31433,2.31433,0,0,1,2.12514,1.26132,2.86407,2.86407,0,0,1,.31124,1.35742v.33526h-3.405a1.39445,1.39445,0,0,0,.24025.48925,1.10625,1.10625,0,0,0,.403.32652,1.18171,1.18171,0,0,0,.51763.11467,1.44,1.44,0,0,0,.56132-.10593,1.038,1.038,0,0,0,.41716-.30687l1.02654.854a3.24823,3.24823,0,0,1-.96866.60936A3.10807,3.10807,0,0,1,183.62262,210.84593Zm-1.08441-3.05011H184.505a1.2823,1.2823,0,0,0-.21077-.45975,1.036,1.036,0,0,0-.34618-.29813.9589.9589,0,0,0-.44992-.10484.93566.93566,0,0,0-.43683.10047.86382.86382,0,0,0-.32652.29267A1.43192,1.43192,0,0,0,182.53821,207.79582Z"/><path class="a0051288-ec64-407d-9ec4-621f65c0ca38" d="M188.89724,210.84593a4.92393,4.92393,0,0,1-1.257-.154,3.21462,3.21462,0,0,1-1.0167-.44992l.68144-1.03636a5.81352,5.81352,0,0,0,.88675.38877,2.348,2.348,0,0,0,.70546.1103,1.0367,1.0367,0,0,0,.522-.1103.33084.33084,0,0,0,.18674-.29267.27623.27623,0,0,0-.1103-.23043.76328.76328,0,0,0-.34946-.12449l-.95009-.17254a2.03874,2.03874,0,0,1-1.08768-.49907,1.25864,1.25864,0,0,1-.36912-.93917,1.48473,1.48473,0,0,1,.249-.86818,1.5633,1.5633,0,0,1,.71421-.55149,2.90083,2.90083,0,0,1,1.10843-.1922,3.73826,3.73826,0,0,1,1.02544.14415,4.35664,4.35664,0,0,1,.98831.42153l-.70984.98831a3.11578,3.11578,0,0,0-.724-.32106,2.48832,2.48832,0,0,0-.69564-.10156.92259.92259,0,0,0-.43573.08627.27139.27139,0,0,0-.15834.25008.26036.26036,0,0,0,.11029.23042,1.03537,1.03537,0,0,0,.39751.1245l.93043.17254a2.09463,2.09463,0,0,1,1.11281.49907,1.24162,1.24162,0,0,1,.37348.92934,1.46075,1.46075,0,0,1-.27738.86818,1.88188,1.88188,0,0,1-.75789.60937A2.60221,2.60221,0,0,1,188.89724,210.84593Z"/><path class="a0051288-ec64-407d-9ec4-621f65c0ca38" d="M194.38263,210.84593a2.518,2.518,0,0,1-1.29954-.34072,2.548,2.548,0,0,1-.9206-.9206,2.657,2.657,0,0,1,0-2.60346,2.55309,2.55309,0,0,1,.9206-.91623,2.518,2.518,0,0,1,1.29954-.34072,2.85145,2.85145,0,0,1,1.151.23479,2.48733,2.48733,0,0,1,.91077.676l-.949.95009a1.69846,1.69846,0,0,0-.48924-.40734,1.213,1.213,0,0,0-.56569-.12995.97372.97372,0,0,0-.55149.16271,1.12725,1.12725,0,0,0-.3844.44119,1.5157,1.5157,0,0,0,0,1.26679,1.12725,1.12725,0,0,0,.3844.44119.97372.97372,0,0,0,.55149.16271,1.213,1.213,0,0,0,.56569-.12995,1.69846,1.69846,0,0,0,.48924-.40734l.949.95009a2.48733,2.48733,0,0,1-.91077.676A2.85128,2.85128,0,0,1,194.38263,210.84593Z"/><path class="a0051288-ec64-407d-9ec4-621f65c0ca38" d="M197.27876,210.74983v-4.94919h1.554v1.12263a2.34605,2.34605,0,0,1,.57-.9206,1.11688,1.11688,0,0,1,.77208-.297,2.05091,2.05091,0,0,1,.26865.0284.88712.88712,0,0,1,.249.0961v1.3323a1.25876,1.25876,0,0,0-.33526-.11466,2.03327,2.03327,0,0,0-.39314-.03822,1.276,1.276,0,0,0-.64212.16817,1.44043,1.44043,0,0,0-.48924.44556v3.12655Z"/><path class="a0051288-ec64-407d-9ec4-621f65c0ca38" d="M202.36118,205.04385a.87183.87183,0,0,1-.61373-1.49175.87143.87143,0,0,1,1.23293,1.23184A.83139.83139,0,0,1,202.36118,205.04385Zm-.77645,5.706v-4.94919h1.554v4.94919Z"/><path class="a0051288-ec64-407d-9ec4-621f65c0ca38" d="M204.41425,212.75375v-6.95311h1.53433v.69127a1.73879,1.73879,0,0,1,.63776-.52746,1.848,1.848,0,0,1,.82887-.1922,1.90847,1.90847,0,0,1,1.10844.34072,2.44374,2.44374,0,0,1,.78628.9064,2.72212,2.72212,0,0,1,.29267,1.2657,2.59173,2.59173,0,0,1-.30687,1.25586,2.42932,2.42932,0,0,1-.83.902,2.11035,2.11035,0,0,1-1.16522.33527,1.83488,1.83488,0,0,1-.74369-.14852,1.67712,1.67712,0,0,1-.58971-.427v2.551Zm2.48333-3.251a1.15728,1.15728,0,0,0,.60936-.15835,1.13572,1.13572,0,0,0,.41717-.43573,1.29729,1.29729,0,0,0,.15289-.63339,1.27006,1.27006,0,0,0-.15289-.62793,1.137,1.137,0,0,0-.42263-.43137,1.16235,1.16235,0,0,0-.6039-.15834,1.25506,1.25506,0,0,0-.51327.10046,1.33732,1.33732,0,0,0-.41716.3025v1.649a1.36348,1.36348,0,0,0,.42262.2883A1.251,1.251,0,0,0,206.89758,209.50271Z"/><path class="a0051288-ec64-407d-9ec4-621f65c0ca38" d="M212.93992,210.84593a1.92653,1.92653,0,0,1-1.32357-.403,1.51343,1.51343,0,0,1-.451-1.18924v-2.254h-.95883v-1.19908h.95883v-1.37053l1.554-.31669v1.68722h1.32357v1.19908h-1.32357v1.94713a.59423.59423,0,0,0,.14852.45976.74138.74138,0,0,0,.50344.13432,1.85053,1.85053,0,0,0,.26864-.01857,2.87428,2.87428,0,0,0,.36475-.08627V210.692a3.16823,3.16823,0,0,1-.51873.1103A3.86151,3.86151,0,0,1,212.93992,210.84593Z"/><path class="a0051288-ec64-407d-9ec4-621f65c0ca38" d="M215.74977,205.04385a.87183.87183,0,0,1-.61373-1.49175.871.871,0,0,1,1.23183,1.23184A.83067.83067,0,0,1,215.74977,205.04385Zm-.77645,5.706v-4.94919h1.5529v4.94919Z"/><path class="a0051288-ec64-407d-9ec4-621f65c0ca38" d="M219.26946,210.74983l-2.00392-4.94919h1.68723l1.12263,3.108,1.13137-3.108h1.602l-2.02357,4.94919Z"/><path class="a0051288-ec64-407d-9ec4-621f65c0ca38" d="M225.79121,210.84593a2.59095,2.59095,0,0,1-2.25837-1.26132,2.46367,2.46367,0,0,1-.35055-1.29954,2.59726,2.59726,0,0,1,.32653-1.30392,2.47362,2.47362,0,0,1,.89112-.91623,2.42638,2.42638,0,0,1,1.27552-.34072,2.31433,2.31433,0,0,1,2.12513,1.26132,2.86407,2.86407,0,0,1,.31124,1.35742v.33526h-3.405a1.39445,1.39445,0,0,0,.24025.48925,1.10625,1.10625,0,0,0,.403.32652,1.18175,1.18175,0,0,0,.51764.11467,1.44,1.44,0,0,0,.56131-.10593,1.03812,1.03812,0,0,0,.41717-.30687l1.02653.854a3.24819,3.24819,0,0,1-.96865.60936A3.10817,3.10817,0,0,1,225.79121,210.84593Zm-1.08441-3.05011h1.96679a1.28228,1.28228,0,0,0-.21076-.45975,1.03613,1.03613,0,0,0-.34618-.29813.959.959,0,0,0-.44993-.10484.93562.93562,0,0,0-.43682.10047.86384.86384,0,0,0-.32653.29267A1.43213,1.43213,0,0,0,224.7068,207.79582Z"/><path class="a0051288-ec64-407d-9ec4-621f65c0ca38" d="M231.2766,210.74983v-4.94919h1.554v.80594a2.01861,2.01861,0,0,1,.68581-.65633,1.74287,1.74287,0,0,1,.87692-.22605,1.64547,1.64547,0,0,1,.84852.21622,1.54184,1.54184,0,0,1,.581.59408,1.78539,1.78539,0,0,1,.21076.878v3.33732h-1.554v-2.8863a.96585.96585,0,0,0-.225-.67161.77151.77151,0,0,0-.59954-.25008,1.01726,1.01726,0,0,0-.45539.10156,1.038,1.038,0,0,0-.36911.31123v3.3952Z"/><path class="a0051288-ec64-407d-9ec4-621f65c0ca38" d="M238.74735,210.82628a1.97845,1.97845,0,0,1-.88675-.19111,1.47687,1.47687,0,0,1-.60391-.52747,1.40356,1.40356,0,0,1-.21622-.77754,1.31366,1.31366,0,0,1,.23042-.78191,1.422,1.422,0,0,1,.66179-.48815,2.84487,2.84487,0,0,1,1.03526-.16817,2.954,2.954,0,0,1,.54712.05241,3.55536,3.55536,0,0,1,.60391.178v-.403a.62919.62919,0,0,0-.23916-.54166,1.24014,1.24014,0,0,0-.73823-.178,2.67113,2.67113,0,0,0-.6192.0819,5.10038,5.10038,0,0,0-.77208.26319l-.53729-1.08332a5.5685,5.5685,0,0,1,2.27366-.53729,2.37567,2.37567,0,0,1,1.59658.48924,1.71,1.71,0,0,1,.57005,1.37162v3.16477H240.119v-.43136a2.25563,2.25563,0,0,1-.652.38768A2.0521,2.0521,0,0,1,238.74735,210.82628Zm-.27738-1.52451a.41357.41357,0,0,0,.20093.36911,1.025,1.025,0,0,0,.557.13,1.68245,1.68245,0,0,0,.46959-.06334,1.6466,1.6466,0,0,0,.42153-.18674v-.6323c-.14088-.03276-.28066-.05788-.42153-.07754a3.30317,3.30317,0,0,0-.43137-.02839,1.14486,1.14486,0,0,0-.58971.12449A.40149.40149,0,0,0,238.47,209.30177Z"/><path class="a0051288-ec64-407d-9ec4-621f65c0ca38" d="M242.89169,210.74983v-4.94919h1.55291v.78737a2.04,2.04,0,0,1,.64758-.64322,1.57518,1.57518,0,0,1,.82014-.22059,1.461,1.461,0,0,1,.84416.249,1.53807,1.53807,0,0,1,.546.67161,2.03469,2.03469,0,0,1,.7-.68581,1.8339,1.8339,0,0,1,.92169-.23479,1.45748,1.45748,0,0,1,1.35634.83433,1.98971,1.98971,0,0,1,.19657.902v3.28927H248.9242v-2.9824a.864.864,0,0,0-.202-.59954.68428.68428,0,0,0-.53729-.226.82856.82856,0,0,0-.38768.09173,1.028,1.028,0,0,0-.33089.28284v3.43342h-1.554v-2.9824a.86406.86406,0,0,0-.202-.59954.68043.68043,0,0,0-.5362-.226.89547.89547,0,0,0-.72949.3844v3.42359Z"/><path class="a0051288-ec64-407d-9ec4-621f65c0ca38" d="M254.10273,210.84593a2.59091,2.59091,0,0,1-2.25837-1.26132,2.46367,2.46367,0,0,1-.35055-1.29954,2.59725,2.59725,0,0,1,.32652-1.30392,2.47362,2.47362,0,0,1,.89112-.91623,2.42638,2.42638,0,0,1,1.27552-.34072,2.31436,2.31436,0,0,1,2.12514,1.26132,2.86406,2.86406,0,0,1,.31123,1.35742v.33526h-3.405a1.39411,1.39411,0,0,0,.24025.48925,1.10609,1.10609,0,0,0,.403.32652,1.18171,1.18171,0,0,0,.51763.11467,1.44007,1.44007,0,0,0,.56132-.10593,1.03809,1.03809,0,0,0,.41716-.30687l1.02653.854a3.24819,3.24819,0,0,1-.96865.60936A3.10807,3.10807,0,0,1,254.10273,210.84593Zm-1.08441-3.05011h1.96679a1.28247,1.28247,0,0,0-.21077-.45975,1.03613,1.03613,0,0,0-.34618-.29813.95894.95894,0,0,0-.44993-.10484.93565.93565,0,0,0-.43682.10047.86374.86374,0,0,0-.32652.29267A1.43171,1.43171,0,0,0,253.01832,207.79582Z"/><path class="a0051288-ec64-407d-9ec4-621f65c0ca38" d="M341.03506,150.46565v-6.714h2.73342a3.3359,3.3359,0,0,1,1.31811.25991,3.40522,3.40522,0,0,1,1.07458.71857,3.3512,3.3512,0,0,1,0,4.757,3.40851,3.40851,0,0,1-1.07458.71967,3.33531,3.33531,0,0,1-1.31811.25881Zm1.649-1.40984h1.08441a1.4526,1.4526,0,0,0,.84415-.25882,1.845,1.845,0,0,0,.59845-.70546,2.25912,2.25912,0,0,0,0-1.97007,1.85192,1.85192,0,0,0-.59845-.7,1.45363,1.45363,0,0,0-.84415-.25991h-1.08441Z"/><path class="a0051288-ec64-407d-9ec4-621f65c0ca38" d="M350.63532,150.56175a2.59091,2.59091,0,0,1-2.25837-1.26132,2.46367,2.46367,0,0,1-.35055-1.29954,2.59725,2.59725,0,0,1,.32652-1.30392,2.47362,2.47362,0,0,1,.89112-.91623,2.42638,2.42638,0,0,1,1.27552-.34072,2.31436,2.31436,0,0,1,2.12514,1.26132,2.86406,2.86406,0,0,1,.31123,1.35742v.33527h-3.405a1.39414,1.39414,0,0,0,.24025.48924,1.10609,1.10609,0,0,0,.403.32652,1.18171,1.18171,0,0,0,.51763.11467,1.44007,1.44007,0,0,0,.56132-.10593,1.03816,1.03816,0,0,0,.41716-.30687l1.02653.854a3.24819,3.24819,0,0,1-.96865.60936A3.10811,3.10811,0,0,1,350.63532,150.56175Zm-1.08441-3.0501h1.96679a1.28244,1.28244,0,0,0-.21077-.45976,1.03613,1.03613,0,0,0-.34618-.29813.95894.95894,0,0,0-.44993-.10484.93565.93565,0,0,0-.43682.10047.86374.86374,0,0,0-.32652.29267A1.43167,1.43167,0,0,0,349.55091,147.51165Z"/><path class="a0051288-ec64-407d-9ec4-621f65c0ca38" d="M355.90994,150.56175a4.92406,4.92406,0,0,1-1.257-.154,3.21462,3.21462,0,0,1-1.0167-.44992l.68144-1.03636a5.814,5.814,0,0,0,.88675.38877,2.348,2.348,0,0,0,.70547.1103,1.03664,1.03664,0,0,0,.522-.1103.33082.33082,0,0,0,.18674-.29267.27623.27623,0,0,0-.1103-.23043.76319.76319,0,0,0-.34945-.12449l-.95009-.17254a2.03874,2.03874,0,0,1-1.08769-.49907,1.25867,1.25867,0,0,1-.36911-.93917,1.48473,1.48473,0,0,1,.249-.86818,1.56333,1.56333,0,0,1,.7142-.55149,2.90088,2.90088,0,0,1,1.10844-.1922,3.73826,3.73826,0,0,1,1.02544.14415,4.35675,4.35675,0,0,1,.9883.42153l-.70983.98831a3.116,3.116,0,0,0-.724-.32106,2.48838,2.48838,0,0,0-.69564-.10156.92259.92259,0,0,0-.43573.08627.2714.2714,0,0,0-.15835.25008.26037.26037,0,0,0,.1103.23042,1.0353,1.0353,0,0,0,.39751.1245l.93043.17254a2.0946,2.0946,0,0,1,1.1128.49907,1.24158,1.24158,0,0,1,.37348.92934,1.46068,1.46068,0,0,1-.27738.86818,1.88184,1.88184,0,0,1-.75788.60937A2.60224,2.60224,0,0,1,355.90994,150.56175Z"/><path class="a0051288-ec64-407d-9ec4-621f65c0ca38" d="M361.39533,150.56175a2.518,2.518,0,0,1-1.29955-.34072,2.54811,2.54811,0,0,1-.9206-.9206,2.657,2.657,0,0,1,0-2.60346,2.55324,2.55324,0,0,1,.9206-.91623,2.518,2.518,0,0,1,1.29955-.34072,2.85136,2.85136,0,0,1,1.151.23479,2.48739,2.48739,0,0,1,.91078.676l-.949.95009a1.69832,1.69832,0,0,0-.48924-.40734,1.213,1.213,0,0,0-.56568-.13.97369.97369,0,0,0-.55149.16271,1.12709,1.12709,0,0,0-.3844.44119,1.5157,1.5157,0,0,0,0,1.26679,1.12709,1.12709,0,0,0,.3844.44119.97369.97369,0,0,0,.55149.16271,1.213,1.213,0,0,0,.56568-.13,1.69832,1.69832,0,0,0,.48924-.40734l.949.95009a2.48728,2.48728,0,0,1-.91078.676A2.8512,2.8512,0,0,1,361.39533,150.56175Z"/><path class="a0051288-ec64-407d-9ec4-621f65c0ca38" d="M364.29146,150.46565v-4.94919h1.554v1.12263a2.34617,2.34617,0,0,1,.57-.9206,1.11691,1.11691,0,0,1,.77209-.297,2.05073,2.05073,0,0,1,.26864.0284.88728.88728,0,0,1,.249.0961v1.3323a1.25888,1.25888,0,0,0-.33526-.11466,2.03335,2.03335,0,0,0-.39314-.03822,1.27607,1.27607,0,0,0-.64213.16817,1.44052,1.44052,0,0,0-.48924.44556v3.12655Z"/><path class="a0051288-ec64-407d-9ec4-621f65c0ca38" d="M369.37388,144.75967a.87183.87183,0,0,1-.61374-1.49175.87143.87143,0,0,1,1.23293,1.23184A.83135.83135,0,0,1,369.37388,144.75967Zm-.77645,5.706v-4.94919h1.554v4.94919Z"/><path class="a0051288-ec64-407d-9ec4-621f65c0ca38" d="M371.42694,152.46957v-6.95311h1.53434v.69127a1.73871,1.73871,0,0,1,.63776-.52746,1.84794,1.84794,0,0,1,.82887-.1922,1.90844,1.90844,0,0,1,1.10843.34072,2.44374,2.44374,0,0,1,.78628.9064,2.722,2.722,0,0,1,.29267,1.2657,2.59161,2.59161,0,0,1-.30687,1.25586,2.42926,2.42926,0,0,1-.83.902,2.11038,2.11038,0,0,1-1.16522.33526,1.835,1.835,0,0,1-.74369-.14852,1.67721,1.67721,0,0,1-.58971-.427v2.551Zm2.48333-3.251a1.15729,1.15729,0,0,0,.60937-.15835,1.13577,1.13577,0,0,0,.41716-.43573,1.29718,1.29718,0,0,0,.15289-.63339,1.27,1.27,0,0,0-.15289-.62793,1.137,1.137,0,0,0-.42262-.43137,1.16241,1.16241,0,0,0-.60391-.15834,1.25481,1.25481,0,0,0-.51326.10047,1.33716,1.33716,0,0,0-.41717.30249v1.649a1.36352,1.36352,0,0,0,.42263.2883A1.251,1.251,0,0,0,373.91027,149.21853Z"/><path class="a0051288-ec64-407d-9ec4-621f65c0ca38" d="M379.95261,150.56175a1.92661,1.92661,0,0,1-1.32357-.403,1.5135,1.5135,0,0,1-.451-1.18925v-2.254h-.95882v-1.19908h.95882v-1.37053l1.554-.31669v1.68722h1.32357v1.19908H379.732v1.94713a.59423.59423,0,0,0,.14852.45976.74135.74135,0,0,0,.50343.13432,1.85067,1.85067,0,0,0,.26865-.01857,2.87246,2.87246,0,0,0,.36474-.08627v1.25586a3.16808,3.16808,0,0,1-.51872.1103A3.86176,3.86176,0,0,1,379.95261,150.56175Z"/><path class="a0051288-ec64-407d-9ec4-621f65c0ca38" d="M384.30663,150.56175a2.61009,2.61009,0,0,1-1.32357-.33635,2.48758,2.48758,0,0,1-.925-.91514,2.6863,2.6863,0,0,1,0-2.61875,2.49566,2.49566,0,0,1,.925-.91514,2.74451,2.74451,0,0,1,2.63295,0,2.5083,2.5083,0,0,1,.9206.91514,2.6863,2.6863,0,0,1,0,2.61875,2.5001,2.5001,0,0,1-.9206.91514A2.56605,2.56605,0,0,1,384.30663,150.56175Zm-.00983-1.29517a.96313.96313,0,0,0,.55695-.16272,1.08989,1.08989,0,0,0,.37348-.451,1.66251,1.66251,0,0,0,0-1.30937,1.1017,1.1017,0,0,0-.37348-.44556,1.02515,1.02515,0,0,0-1.10843,0,1.07825,1.07825,0,0,0-.37785.44556,1.66251,1.66251,0,0,0,0,1.30937,1.0671,1.0671,0,0,0,.37785.451A.97023.97023,0,0,0,384.2968,149.26658Z"/><path class="a0051288-ec64-407d-9ec4-621f65c0ca38" d="M387.93225,150.46565v-4.94919h1.5529v1.12263a2.35944,2.35944,0,0,1,.57115-.9206,1.115,1.115,0,0,1,.77208-.297,2.09427,2.09427,0,0,1,.26865.0284.9.9,0,0,1,.249.0961v1.3323a1.27255,1.27255,0,0,0-.33527-.11466,2.05013,2.05013,0,0,0-.39313-.03822,1.283,1.283,0,0,0-.64322.16817,1.45065,1.45065,0,0,0-.48925.44556v3.12655Z"/></svg>