<svg id="a3b33eac-6c64-4739-a22f-ae10b1ecc64d" data-name="Layer 1" xmlns="http://www.w3.org/2000/svg" viewBox="0 0 262 142"><defs><style>.a8c75504-138a-4df3-be14-d1c7fe5e9e9d{fill:#e00;}</style></defs><path class="a8c75504-138a-4df3-be14-d1c7fe5e9e9d" d="M110.49,52.62h12.79c9.33,9.11,6.13,9.07,15.44,0h12.79a2.13,2.13,0,0,0,2.14-2.13V30a2.14,2.14,0,0,0-2.14-2.13h-41A2.14,2.14,0,0,0,108.35,30V50.49A2.13,2.13,0,0,0,110.49,52.62Zm2.13-20.51h36.76V48.35H137.84a2.13,2.13,0,0,0-1.51.62L131,54.3,125.67,49a2.13,2.13,0,0,0-1.51-.62H112.62Z"/><path class="a8c75504-138a-4df3-be14-d1c7fe5e9e9d" d="M167.2,96.06c7.61-6.23,2.8-19.35-7.14-19.14-9.94-.21-14.75,12.92-7.14,19.14a17.59,17.59,0,0,0-3.52,2.16,18.8,18.8,0,0,0-11.15-13.73c7.47-6.29,2.61-19.26-7.25-19-9.86-.21-14.72,12.77-7.25,19A18.8,18.8,0,0,0,112.6,98.22a17.59,17.59,0,0,0-3.52-2.16c7.61-6.23,2.8-19.35-7.14-19.14C92,76.71,87.19,89.84,94.8,96.06a17.52,17.52,0,0,0-10.38,16,2.14,2.14,0,0,0,2.14,2.13h88.88a2.14,2.14,0,0,0,2.14-2.13A17.52,17.52,0,0,0,167.2,96.06Zm-13.79-8.21c.15-8.74,13.15-8.74,13.3,0C166.56,96.59,153.56,96.59,153.41,87.85Zm6.65,10.93a13.23,13.23,0,0,1,13,11.11H147A13.23,13.23,0,0,1,160.06,98.78ZM124.35,76.37c.15-8.74,13.15-8.74,13.3,0C137.5,85.12,124.5,85.12,124.35,76.37ZM131,87.3a14.52,14.52,0,0,1,14.47,15.06,17.33,17.33,0,0,0-2.72,7.53h-23.5a17.33,17.33,0,0,0-2.72-7.53A14.52,14.52,0,0,1,131,87.3Zm-35.71.55c.15-8.74,13.15-8.74,13.3,0C108.44,96.59,95.44,96.59,95.29,87.85Zm6.65,10.93a13.23,13.23,0,0,1,13,11.11H88.91A13.23,13.23,0,0,1,101.94,98.78Z"/></svg>