<svg id="bfd294ed-2c62-496e-8c85-9aa921173130" data-name="Layer 1" xmlns="http://www.w3.org/2000/svg" viewBox="0 0 262 142"><defs><style>.a6580f50-38eb-4693-a2c2-1c0921cf9309{fill:#e00;}</style></defs><path class="a6580f50-38eb-4693-a2c2-1c0921cf9309" d="M171.29,47.36a2.27,2.27,0,0,0,2.35-2.13v-11a2.14,2.14,0,0,0-4.27,0v4.74A50,50,0,1,0,131,121a2.28,2.28,0,0,0,.52-.1c.1,0,.2,0,.3-.06s.15-.11.23-.15a2.13,2.13,0,0,0,.77-.78,1.19,1.19,0,0,0,.16-.23,2.36,2.36,0,0,0,.17-.82,2.18,2.18,0,0,0-.26-1,2.14,2.14,0,0,0-1.89-1.18,45.73,45.73,0,1,1,36.13-73.64h-6.68a2.14,2.14,0,0,0,0,4.27Z"/><path class="a6580f50-38eb-4693-a2c2-1c0921cf9309" d="M175.26,50.65a2.15,2.15,0,0,0-2.11,2.15,2.14,2.14,0,0,0,4.27,0A2.17,2.17,0,0,0,175.26,50.65Z"/><path class="a6580f50-38eb-4693-a2c2-1c0921cf9309" d="M177.79,58.79a2.16,2.16,0,0,0-2.12,2.15,2.14,2.14,0,0,0,4.27,0A2.16,2.16,0,0,0,177.79,58.79Z"/><path class="a6580f50-38eb-4693-a2c2-1c0921cf9309" d="M178.84,67.24a2.15,2.15,0,0,0-2.12,2.15,2.14,2.14,0,0,0,4.27,0A2.17,2.17,0,0,0,178.84,67.24Z"/><path class="a6580f50-38eb-4693-a2c2-1c0921cf9309" d="M178.37,75.69a2.16,2.16,0,0,0-2.12,2.15,2.14,2.14,0,0,0,4.28,0A2.17,2.17,0,0,0,178.37,75.69Z"/><path class="a6580f50-38eb-4693-a2c2-1c0921cf9309" d="M176.41,84a2.16,2.16,0,0,0-2.12,2.16,2.14,2.14,0,0,0,4.27,0A2.16,2.16,0,0,0,176.41,84Z"/><path class="a6580f50-38eb-4693-a2c2-1c0921cf9309" d="M173,91.82A2.16,2.16,0,0,0,170.87,94a2.14,2.14,0,0,0,4.28,0A2.17,2.17,0,0,0,173,91.82Z"/><path class="a6580f50-38eb-4693-a2c2-1c0921cf9309" d="M168.25,98.9a2.16,2.16,0,0,0-2.12,2.15,2.14,2.14,0,0,0,4.27,0A2.17,2.17,0,0,0,168.25,98.9Z"/><path class="a6580f50-38eb-4693-a2c2-1c0921cf9309" d="M162.34,105a2.16,2.16,0,0,0-2.12,2.16,2.14,2.14,0,0,0,4.28,0A2.17,2.17,0,0,0,162.34,105Z"/><path class="a6580f50-38eb-4693-a2c2-1c0921cf9309" d="M155.43,110a2.16,2.16,0,0,0-2.12,2.15,2.14,2.14,0,0,0,4.27,0A2.16,2.16,0,0,0,155.43,110Z"/><path class="a6580f50-38eb-4693-a2c2-1c0921cf9309" d="M147.76,113.7a2.16,2.16,0,0,0-2.12,2.16,2.14,2.14,0,0,0,4.27,0A2.16,2.16,0,0,0,147.76,113.7Z"/><path class="a6580f50-38eb-4693-a2c2-1c0921cf9309" d="M139.55,116a2.16,2.16,0,0,0-2.12,2.15,2.14,2.14,0,0,0,4.27,0A2.16,2.16,0,0,0,139.55,116Z"/></svg>