<svg id="b3bc6e7f-d80f-4cb7-bf81-9dc59d1f1470" data-name="Layer 1" xmlns="http://www.w3.org/2000/svg" viewBox="0 0 262 142"><defs><style>.b884060d-8678-4934-b1b1-ce3db053525f{fill:#e00;}</style></defs><path class="b884060d-8678-4934-b1b1-ce3db053525f" d="M178.86,68.86A2.13,2.13,0,0,0,176.73,71a45.73,45.73,0,1,1-47.87-45.62V60.53A10.68,10.68,0,1,0,137,79.86l6.18,6.31a2.14,2.14,0,0,0,3-3L140,76.8a10.66,10.66,0,0,0-6.81-16.27V23.14A2.14,2.14,0,0,0,131,21a50,50,0,1,0,50,50A2.14,2.14,0,0,0,178.86,68.86ZM137.41,71A6.41,6.41,0,1,1,131,64.59,6.41,6.41,0,0,1,137.41,71Z"/><circle class="b884060d-8678-4934-b1b1-ce3db053525f" cx="158.35" cy="43.66" r="2.13"/><circle class="b884060d-8678-4934-b1b1-ce3db053525f" cx="168.61" cy="70.99" r="2.13"/><circle class="b884060d-8678-4934-b1b1-ce3db053525f" cx="158.35" cy="98.36" r="2.13"/><circle class="b884060d-8678-4934-b1b1-ce3db053525f" cx="131" cy="108.6" r="2.13"/><circle class="b884060d-8678-4934-b1b1-ce3db053525f" cx="103.63" cy="98.38" r="2.13"/><circle class="b884060d-8678-4934-b1b1-ce3db053525f" cx="93.38" cy="71.3" r="2.13"/><circle class="b884060d-8678-4934-b1b1-ce3db053525f" cx="103.63" cy="43.65" r="2.13"/></svg>