<svg id="a48b8915-06a9-4e42-91e4-354e5c8389fe" data-name="Layer 1" xmlns="http://www.w3.org/2000/svg" viewBox="0 0 262 142"><defs><style>.ad8b86ef-d6b4-4014-a86b-3c5bf55ac5c3{fill:#e00;}</style></defs><path class="ad8b86ef-d6b4-4014-a86b-3c5bf55ac5c3" d="M131,45.06a17.27,17.27,0,0,0-17.25,17.25,2.14,2.14,0,1,0,4.27,0,13,13,0,0,1,13-13c12.86-.1,17.85,17.2,6.76,24.07-4.57,3-11.24,5.21-11.42,12.46a2.14,2.14,0,0,0,4.28,0c-.38-3.94,5.81-6.55,9.52-8.92C154.68,67.62,148.11,45.05,131,45.06Z"/><path class="ad8b86ef-d6b4-4014-a86b-3c5bf55ac5c3" d="M129.29,93.08c-2.57-1-4.18,2.84-1.64,4S131.87,94.14,129.29,93.08Z"/><path class="ad8b86ef-d6b4-4014-a86b-3c5bf55ac5c3" d="M131,21.13a50.06,50.06,0,0,0-50,50c2.75,66.33,97.26,66.31,100,0A50.06,50.06,0,0,0,131,21.13Zm0,95.73A45.79,45.79,0,0,1,85.27,71.13c2.52-60.66,89-60.65,91.46,0A45.79,45.79,0,0,1,131,116.86Z"/></svg>