<svg id="ed8afe4e-0591-438f-ac4e-9747d70530c4" data-name="Layer 1" xmlns="http://www.w3.org/2000/svg" viewBox="0 0 262 142"><defs><style>.b52ed484-b9bb-4c91-a623-03ac83f6f450{fill:#e00;}</style></defs><path class="b52ed484-b9bb-4c91-a623-03ac83f6f450" d="M166.9,45.87c14.08-.38,14.08-21,0-21.37C152.81,24.87,152.81,45.5,166.9,45.87Zm0-17.1c8.42.15,8.42,12.67,0,12.82C158.47,41.44,158.47,28.92,166.9,28.77Z"/><path class="b52ed484-b9bb-4c91-a623-03ac83f6f450" d="M156.64,75.78A21,21,0,0,0,135.7,96.72c1,27.71,40.9,27.7,41.88,0A21,21,0,0,0,156.64,75.78Zm0,37.6c-22-.69-22-32.63,0-33.33C178.67,80.75,178.66,112.69,156.64,113.38Z"/><path class="b52ed484-b9bb-4c91-a623-03ac83f6f450" d="M127.28,96a33.69,33.69,0,0,1-4.83.34h-.79a2.22,2.22,0,0,0-2.19,2.09,2.14,2.14,0,0,0,2.09,2.18h.89a39.21,39.21,0,0,0,5.43-.38,2.13,2.13,0,0,0,1.81-2.42A2.09,2.09,0,0,0,127.28,96Z"/><path class="b52ed484-b9bb-4c91-a623-03ac83f6f450" d="M111.16,30.59a2.29,2.29,0,0,0,.67-.11,33.65,33.65,0,0,1,10.31-1.7,2.14,2.14,0,1,0,0-4.28,38.07,38.07,0,0,0-11.61,1.92,2.14,2.14,0,0,0,.67,4.17Z"/><path class="b52ed484-b9bb-4c91-a623-03ac83f6f450" d="M143.09,35.3a2.14,2.14,0,0,0,1.23-3.89,37.78,37.78,0,0,0-10.56-5.2,2.14,2.14,0,1,0-1.27,4.08,33.73,33.73,0,0,1,9.38,4.62A2.13,2.13,0,0,0,143.09,35.3Z"/><path class="b52ed484-b9bb-4c91-a623-03ac83f6f450" d="M154.33,51.37a2.13,2.13,0,1,0,4-1.4,37.57,37.57,0,0,0-5.57-10.38,2.13,2.13,0,1,0-3.4,2.58A34.08,34.08,0,0,1,154.33,51.37Z"/><path class="b52ed484-b9bb-4c91-a623-03ac83f6f450" d="M111.35,94.42a33.25,33.25,0,0,1-9.21-4.92,2.14,2.14,0,0,0-2.58,3.41A37.57,37.57,0,0,0,110,98.46a2.14,2.14,0,1,0,1.4-4Z"/><path class="b52ed484-b9bb-4c91-a623-03ac83f6f450" d="M103,32.29a2.12,2.12,0,0,0-3-.47,38,38,0,0,0-8.32,8.33,2.14,2.14,0,1,0,3.45,2.52,33.9,33.9,0,0,1,7.39-7.4A2.13,2.13,0,0,0,103,32.29Z"/><path class="b52ed484-b9bb-4c91-a623-03ac83f6f450" d="M86.56,64.4a2.13,2.13,0,0,0,2.13-2.12A33.54,33.54,0,0,1,90.38,52a2.14,2.14,0,1,0-4.06-1.34,38.06,38.06,0,0,0-1.9,11.62,2.13,2.13,0,0,0,2.12,2.15Z"/><path class="b52ed484-b9bb-4c91-a623-03ac83f6f450" d="M90.23,72.62a2.14,2.14,0,1,0-4.08,1.28,37.78,37.78,0,0,0,5.22,10.55A2.13,2.13,0,0,0,94.86,82,33.57,33.57,0,0,1,90.23,72.62Z"/><path class="b52ed484-b9bb-4c91-a623-03ac83f6f450" d="M157.69,69.78A2.15,2.15,0,0,0,160.1,68a37.92,37.92,0,0,0,.38-5.43v-.89a2.14,2.14,0,1,0-4.28.1v.79a33.79,33.79,0,0,1-.34,4.83A2.15,2.15,0,0,0,157.69,69.78Z"/></svg>