<svg id="b049ca60-b227-49ab-8343-987ec402d861" data-name="Layer 1" xmlns="http://www.w3.org/2000/svg" viewBox="0 0 262 142"><defs><style>.b8dc93b3-16fc-4d7a-aaaf-beb1af849523{fill:#e00;}</style></defs><path class="b8dc93b3-16fc-4d7a-aaaf-beb1af849523" d="M165.19,24.42h-54.7a2.74,2.74,0,0,0-.28,0l-.27.06a2.15,2.15,0,0,0-1,.52L95.3,38.72a2,2,0,0,0-.51,1,1.4,1.4,0,0,0-.06.28,2.16,2.16,0,0,0,0,.27v75.21a2.13,2.13,0,0,0,2.13,2.14h68.38a2.13,2.13,0,0,0,2.13-2.14V26.56A2.13,2.13,0,0,0,165.19,24.42Zm-56.84,7.29v6.38H102Zm54.7,81.6H99V42.37h11.54a2.13,2.13,0,0,0,2.13-2.14V28.69h50.43Z"/></svg>