<svg id="ba2516e6-0ab9-423a-811f-106d28bbc6da" data-name="Layer 1" xmlns="http://www.w3.org/2000/svg" viewBox="0 0 262 142"><defs><style>.e81311e8-b019-477a-bffc-d8ba89884a6f{fill:#e00;}</style></defs><path class="e81311e8-b019-477a-bffc-d8ba89884a6f" d="M168.61,113.31a2.16,2.16,0,0,0-2.12,2.16,2.14,2.14,0,0,0,4.27,0A2.17,2.17,0,0,0,168.61,113.31Z"/><path class="e81311e8-b019-477a-bffc-d8ba89884a6f" d="M113.89,113.31a2.16,2.16,0,0,0-2.12,2.16,2.14,2.14,0,0,0,4.27,0A2.17,2.17,0,0,0,113.89,113.31Z"/><path class="e81311e8-b019-477a-bffc-d8ba89884a6f" d="M175.44,103.05H109.21V36.81a12.4,12.4,0,1,0-24.79,0,2.14,2.14,0,0,0,4.27,0,8.12,8.12,0,0,1,16.24,0v68.37a2.14,2.14,0,0,0,2.14,2.14h68.37a2.14,2.14,0,1,0,0-4.27Z"/><path class="e81311e8-b019-477a-bffc-d8ba89884a6f" d="M117.32,97.06H172a2.13,2.13,0,0,0,2.13-2.13V40.22A2.13,2.13,0,0,0,172,38.09H117.32a2.13,2.13,0,0,0-2.13,2.13V94.93A2.13,2.13,0,0,0,117.32,97.06ZM140,42.36h9.41V58.6H140Zm-20.51,0H135.7V60.74a2.13,2.13,0,0,0,2.14,2.13h13.67a2.13,2.13,0,0,0,2.14-2.13V42.36h16.24V92.79H119.46Z"/></svg>