<svg id="a8e69f7a-a3b0-454f-a1c7-b65be3d34a29" data-name="Layer 1" xmlns="http://www.w3.org/2000/svg" viewBox="0 0 262 142"><defs><style>.b02930e5-89b8-43d5-a3e6-d9c8d7dcd980{fill:#e00;}</style></defs><path class="b02930e5-89b8-43d5-a3e6-d9c8d7dcd980" d="M119,24.41A34.62,34.62,0,1,0,153.64,59,34.66,34.66,0,0,0,119,24.41Zm0,65A30.35,30.35,0,1,1,149.37,59,30.38,30.38,0,0,1,119,89.37Z"/><path class="b02930e5-89b8-43d5-a3e6-d9c8d7dcd980" d="M177,113.92,156.43,93.41c-1.93-2-5,1.1-3,3L173.93,117C175.91,118.92,178.91,115.91,177,113.92Z"/><path class="b02930e5-89b8-43d5-a3e6-d9c8d7dcd980" d="M119,34.67A24.38,24.38,0,0,0,94.67,59a2.14,2.14,0,0,0,4.27,0A20.11,20.11,0,0,1,119,38.94a2.14,2.14,0,0,0,0-4.27Z"/><path class="b02930e5-89b8-43d5-a3e6-d9c8d7dcd980" d="M148.09,86a2.13,2.13,0,1,0,2.13,2.13A2.13,2.13,0,0,0,148.09,86Z"/></svg>