<svg id="b971c04e-e9da-4d69-ab3f-723dcabfe614" data-name="Layer 1" xmlns="http://www.w3.org/2000/svg" width="262" height="140" viewBox="0 0 262 140"><defs><style>.a264f48c-f462-43a8-ba90-886b4f2ceb99{fill:#f3f3f3;}</style></defs><rect class="a264f48c-f462-43a8-ba90-886b4f2ceb99" width="262" height="140"/><path d="M237.27,81.65c.11,0,.17-.05.17-.15v-.1c0-.11-.06-.16-.17-.16H237v.41Zm-.26.77h-.36V81h.66a.43.43,0,0,1,.49.45.43.43,0,0,1-.26.44l.33.56h-.39l-.27-.5H237v.5Zm1.27-.65v-.18a1,1,0,0,0-1.07-1,1,1,0,0,0-1.05,1v.18a1,1,0,0,0,1.05,1,1,1,0,0,0,1.07-1Zm-2.45-.09a1.39,1.39,0,1,1,1.38,1.43,1.39,1.39,0,0,1-1.38-1.43Zm-20-22.9L215.23,57H204.84v1.81Zm1.21,3.47-.64-1.82H204.84v1.82ZM224.8,83h9.07V81.22H224.8V83Zm0-3.46h9.07V77.75H224.8v1.82Zm0-3.47h5.44V74.29H224.8V76.1Zm5.44-5.28H224.8v1.82h5.44V70.82Zm-5.44-1.64h5.44V67.36H219.86l-.51,1.47-.5-1.47H208.47v1.82h5.44V67.51l.59,1.67h9.71l.59-1.67v1.67Zm5.44-5.28h-9.17l-.63,1.81h9.8V63.9Zm-21.77,8.74h5.44V70.82h-5.44v1.82Zm0,3.46h5.44V74.29h-5.44V76.1Zm-3.63,3.47h9.07V77.75h-9.07v1.82Zm0,3.46h9.07V81.22h-9.07V83ZM223.48,57l-.63,1.81h11V57Zm-1.84,5.28h12.23V60.43H222.28l-.64,1.82Zm-13.17,3.46h9.8l-.63-1.81h-9.17v1.81Zm7.24,6.93H223l.63-1.82h-8.55l.63,1.82Zm1.22,3.46h4.85l.64-1.81h-6.13l.64,1.81Zm1.22,3.47h2.41l.64-1.82h-3.69l.64,1.82Zm1.2,3.46.64-1.81h-1.27l.63,1.81Zm-36.29,0h13.36a6.88,6.88,0,0,0,4.68-1.81h-18V83Zm14.19-8.74V76.1h6.1a6.81,6.81,0,0,0-.24-1.81ZM186.69,76.1h5.44V74.29h-5.44V76.1Zm10.56-10.39h5.86a6.81,6.81,0,0,0,.24-1.81h-6.1v1.81Zm-10.56,0h5.44V63.9h-5.44v1.81ZM196.42,57H183.06v1.81h18A6.92,6.92,0,0,0,196.42,57Zm6,3.46H183.06v1.82h20.09a6.74,6.74,0,0,0-.73-1.82Zm-15.73,6.93v1.82h14.22a7.15,7.15,0,0,0,1.51-1.82Zm14.22,3.46H186.69v1.82h15.73a7.15,7.15,0,0,0-1.51-1.82Zm-17.85,8.75h19.36a6.74,6.74,0,0,0,.73-1.82H183.06v1.82ZM168.54,58.78h12.7V57h-12.7v1.81Zm0,3.47h12.7V60.43h-12.7v1.82Zm9.07,1.65h-5.44v1.81h5.44V63.9Zm-5.44,5.28h5.44V67.36h-5.44v1.82Zm0,3.46h5.44V70.82h-5.44v1.82Zm0,3.46h5.44V74.29h-5.44V76.1Zm-3.63,3.47h12.7V77.75h-12.7v1.82Zm0,1.65h12.7V83h-12.7V81.22Z"/><polygon points="151.64 86.29 152.25 86.29 152.25 53.71 151.64 53.71 151.64 86.29 151.64 86.29"/><path d="M53.47,69.92a9,9,0,0,1,.31,1.84c0,2.53-2.85,3.94-6.59,3.94-8.47,0-15.89-5-15.89-8.24a3.26,3.26,0,0,1,.28-1.32c-3,.15-7,.7-7,4.17C24.59,76,38.09,83,48.79,83c8.19,0,10.26-3.7,10.26-6.63,0-2.3-2-4.92-5.58-6.48M47.58,72c2.26,0,5.54-.47,5.54-3.16a2.56,2.56,0,0,0-.06-.62l-1.35-5.86c-.31-1.29-.58-1.87-2.85-3-1.75-.9-5.58-2.38-6.71-2.38s-1.36,1.36-2.61,1.36-2.11-1-3.24-1-1.8.74-2.34,2.26c0,0-1.52,4.29-1.72,4.92a1.08,1.08,0,0,0,0,.35c0,1.67,6.57,7.14,15.38,7.14"/><path d="M65.42,76.74h3.27V71.89h2.49l2.52,4.85h3.65l-2.93-5.33a4,4,0,0,0,2.51-3.75c0-2.4-1.88-4.25-4.7-4.25H65.42V76.74Zm6.51-10.53a1.52,1.52,0,1,1,0,3H68.69v-3Zm5.31,5.5a5.29,5.29,0,0,0,5.48,5.22,6.09,6.09,0,0,0,4.21-1.52l-2-1.81a2.75,2.75,0,0,1-2,.76,2.6,2.6,0,0,1-2.47-1.6h7.18V72c0-3.2-2.16-5.5-5.09-5.5a5.17,5.17,0,0,0-5.25,5.21m5.2-2.7a2.23,2.23,0,0,1,2.11,1.6H80.34a2.11,2.11,0,0,1,2.1-1.6m14,7.73h3v-14l-3.08.66V67.2a5.19,5.19,0,1,0-2.66,9.67,4.53,4.53,0,0,0,2.7-.87v.74Zm-4.82-5a2.56,2.56,0,0,1,2.65-2.56,3.13,3.13,0,0,1,2.13.78v3.53a3,3,0,0,1-2.13.8,2.57,2.57,0,0,1-2.65-2.55m12.48,5h3.27V71.52h5.49v5.22h3.27V63.41h-3.27v5.12h-5.49V63.41h-3.27V76.74Zm16.73.17a4.72,4.72,0,0,0,2.78-.78v.61h3V70.29c0-2.46-1.66-3.81-4.42-3.81a11.24,11.24,0,0,0-4.7,1.1l1.1,2.27a8.18,8.18,0,0,1,3-.8c1.28,0,1.92.49,1.92,1.5v.5a8.9,8.9,0,0,0-2.28-.29c-2.59,0-4.15,1.09-4.15,3,0,1.77,1.41,3.12,3.65,3.12m-.94-3.18c0-.66.67-1,1.68-1a8,8,0,0,1,1.83.23v1.3a4,4,0,0,1-1.93.47c-1,0-1.58-.38-1.58-1m9.59,0c0,2.15,1.29,3.19,3.65,3.19a9.51,9.51,0,0,0,2.15-.3V74.08a4.5,4.5,0,0,1-1.39.2c-1,0-1.33-.3-1.33-1.21V69.24h2.82V66.67h-2.82V63.41l-3.08.67v2.59h-2v2.57h2v4.44Z"/></svg>