<svg id="b660f2ec-82ba-4d1b-ae6e-57ca090f89eb" data-name="Layer 1" xmlns="http://www.w3.org/2000/svg" width="360" height="175" viewBox="0 0 360 175"><defs><style>.a471298e-ae3c-44a3-9486-b2323d28cd40{fill:#e00;}</style></defs><path class="a471298e-ae3c-44a3-9486-b2323d28cd40" d="M124.75,87.35a16.92,16.92,0,0,1,.6,3.48c0,4.81-5.41,7.47-12.51,7.47-16.06,0-30.11-9.39-30.11-15.61a6.39,6.39,0,0,1,.51-2.51C77.47,80.47,70,81.51,70,88.09c0,10.8,25.6,24.12,45.87,24.12,15.54,0,19.46-7,19.46-12.58,0-4.36-3.77-9.32-10.58-12.28m-11.17,3.92c4.29,0,10.51-.88,10.51-6a4.56,4.56,0,0,0-.11-1.17L121.42,73c-.59-2.44-1.11-3.55-5.4-5.7-3.33-1.7-10.58-4.51-12.72-4.51s-2.59,2.59-5,2.59-4-1.93-6.14-1.93-3.41,1.41-4.44,4.3c0,0-2.89,8.13-3.26,9.32a2.22,2.22,0,0,0-.07.66c0,3.17,12.45,13.54,29.15,13.54"/><path d="M124.75,87.35a16.92,16.92,0,0,1,.6,3.48c0,4.81-5.41,7.47-12.51,7.47-16.06,0-30.11-9.39-30.11-15.61a6.39,6.39,0,0,1,.51-2.51l1.26-3.11a2.22,2.22,0,0,0-.07.66c0,3.17,12.45,13.54,29.15,13.54,4.29,0,10.51-.88,10.51-6a4.56,4.56,0,0,0-.11-1.17l.77,3.24Z"/><path d="M147.4,100.28h6.21v-9.2h4.73l4.77,9.2H170l-5.56-10.11a7.64,7.64,0,0,0,4.76-7.11c0-4.55-3.57-8-8.91-8H147.4v25.27Zm12.35-20a2.87,2.87,0,1,1,0,5.7h-6.14v-5.7Zm10.07,10.43c0,5.56,4.55,9.89,10.39,9.89a11.42,11.42,0,0,0,8-2.89l-3.86-3.43a5.17,5.17,0,0,1-3.83,1.45,4.94,4.94,0,0,1-4.69-3h13.61V91.29c0-6.06-4.08-10.43-9.64-10.43a9.81,9.81,0,0,0-10,9.89m9.85-5.12a4.22,4.22,0,0,1,4,3h-8a4,4,0,0,1,4-3m26.5,14.65h5.77V73.75L206.1,75V82.2A9.84,9.84,0,1,0,201,100.53a8.57,8.57,0,0,0,5.13-1.66v1.41ZM197,90.72a4.83,4.83,0,0,1,5-4.84,5.92,5.92,0,0,1,4,1.48V94a5.63,5.63,0,0,1-4,1.51,4.85,4.85,0,0,1-5-4.83m23.65,9.56h6.21V90.39h10.4v9.89h6.21V75H237.3v9.71H226.9V75h-6.21v25.27Zm31.73.33a9,9,0,0,0,5.27-1.48v1.15h5.78V88c0-4.65-3.14-7.22-8.38-7.22a21.2,21.2,0,0,0-8.91,2.1l2.09,4.29a15.78,15.78,0,0,1,5.78-1.51c2.42,0,3.64.94,3.64,2.85v.94a17,17,0,0,0-4.33-.54c-4.91,0-7.87,2-7.87,5.74,0,3.35,2.67,5.92,6.93,5.92m-1.78-6c0-1.27,1.26-1.88,3.18-1.88a14.82,14.82,0,0,1,3.46.43v2.46a7.42,7.42,0,0,1-3.65.9c-1.87,0-3-.72-3-1.91m18.17-.11c0,4.08,2.46,6.06,6.93,6.06a18.22,18.22,0,0,0,4.08-.57V95.23a8.45,8.45,0,0,1-2.64.39c-1.84,0-2.52-.57-2.52-2.31V86.06H280V81.19h-5.34V75l-5.85,1.27v4.91H265v4.87h3.86v8.41Z"/></svg>