<svg id="b8a6fed1-6f73-4229-8dac-a6b525c49681" data-name="Layer 1" xmlns="http://www.w3.org/2000/svg" width="360" height="180" viewBox="0 0 360 180"><defs><style>.b82fd690-dac2-4be2-a948-6270f4e15f64{fill:#174fd1;}.b44af6b8-e986-49b3-94dd-a710cd3609d8{fill:#121212;}</style></defs><path d="M136,89.87a15.43,15.43,0,0,1,.54,3.16c0,4.38-4.94,6.81-11.44,6.81-14.68,0-27.54-8.56-27.54-14.22a5.75,5.75,0,0,1,.47-2.29L99.2,80.5a2.18,2.18,0,0,0-.06.61c0,2.88,11.39,12.33,26.66,12.33,3.93,0,9.61-.81,9.61-5.46a4.27,4.27,0,0,0-.1-1.07Z"/><path class="b82fd690-dac2-4be2-a948-6270f4e15f64" d="M136,89.87a15.43,15.43,0,0,1,.54,3.16c0,4.38-4.94,6.81-11.44,6.81-14.68,0-27.54-8.56-27.54-14.22a5.75,5.75,0,0,1,.47-2.29c-5.27.27-12.11,1.21-12.11,7.21,0,9.83,23.42,22,42,22,14.21,0,17.8-6.4,17.8-11.45,0-4-3.45-8.49-9.68-11.18M125.8,93.44c3.93,0,9.61-.81,9.61-5.46a4.27,4.27,0,0,0-.1-1.07L133,76.8c-.54-2.23-1-3.24-4.94-5.19-3-1.55-9.67-4.11-11.64-4.11s-2.36,2.36-4.53,2.36-3.65-1.75-5.62-1.75-3.11,1.28-4.06,3.9c0,0-2.64,7.41-3,8.49a1.88,1.88,0,0,0-.07.61c0,2.88,11.39,12.33,26.66,12.33"/><path class="b44af6b8-e986-49b3-94dd-a710cd3609d8" d="M163.93,100.36h-4.78V78.45h10.4a7.25,7.25,0,0,1,2.73.5,5.86,5.86,0,0,1,2.08,1.43,6.33,6.33,0,0,1,1.34,2.21,8.37,8.37,0,0,1,.47,2.86,7.48,7.48,0,0,1-1,3.89,5.66,5.66,0,0,1-3,2.42l4.3,8.6h-5.3l-3.83-8h-3.42Zm5-12a2.46,2.46,0,0,0,1.68-.55,2.07,2.07,0,0,0,.61-1.62V84.76a2.07,2.07,0,0,0-.61-1.62,2.46,2.46,0,0,0-1.68-.55h-5v5.72Z"/><path class="b44af6b8-e986-49b3-94dd-a710cd3609d8" d="M186.5,100.74a8.83,8.83,0,0,1-3.36-.61,7.05,7.05,0,0,1-2.5-1.73,7.17,7.17,0,0,1-1.53-2.72,11.42,11.42,0,0,1-.52-3.58,11.54,11.54,0,0,1,.5-3.53,7.43,7.43,0,0,1,1.49-2.71A6.59,6.59,0,0,1,183,84.11a8.59,8.59,0,0,1,3.3-.61,8.12,8.12,0,0,1,3.5.69,6.62,6.62,0,0,1,2.39,1.86,7.61,7.61,0,0,1,1.35,2.68,12,12,0,0,1,.42,3.19V93.3H183.39v.25A3.2,3.2,0,0,0,187,97.06a4.39,4.39,0,0,0,2.36-.57,9.61,9.61,0,0,0,1.69-1.39l2.33,2.9a7.32,7.32,0,0,1-2.88,2A10.42,10.42,0,0,1,186.5,100.74Zm-.1-13.82a2.77,2.77,0,0,0-2.21.93,3.66,3.66,0,0,0-.8,2.46v.26h5.78v-.29a4,4,0,0,0-.68-2.43A2.4,2.4,0,0,0,186.4,86.92Z"/><path class="b44af6b8-e986-49b3-94dd-a710cd3609d8" d="M207.38,97.6h-.16a4.31,4.31,0,0,1-.6,1.24,4.09,4.09,0,0,1-1,1,4.14,4.14,0,0,1-1.31.66,4.94,4.94,0,0,1-1.53.24,5.48,5.48,0,0,1-4.74-2.22q-1.61-2.2-1.6-6.42t1.6-6.4a5.51,5.51,0,0,1,4.74-2.2,4.81,4.81,0,0,1,2.84.88,3.87,3.87,0,0,1,1.59,2.26h.16V77.13H212v23.23h-4.64Zm-3-.63a3.52,3.52,0,0,0,2.18-.64,2.09,2.09,0,0,0,.87-1.78V89.69a2.09,2.09,0,0,0-.87-1.78,3.52,3.52,0,0,0-2.18-.64,2.84,2.84,0,0,0-2.18.93,3.48,3.48,0,0,0-.86,2.49v2.86a3.5,3.5,0,0,0,.86,2.5A2.86,2.86,0,0,0,204.33,97Z"/><path class="b44af6b8-e986-49b3-94dd-a710cd3609d8" d="M237.14,91.38h-8.35v9H224V78.45h4.77v8.69h8.35V78.45h4.77v21.91h-4.77Z"/><path class="b44af6b8-e986-49b3-94dd-a710cd3609d8" d="M258.68,100.36a2.93,2.93,0,0,1-2.09-.78,3.58,3.58,0,0,1-1-2.11h-.19a3.83,3.83,0,0,1-1.67,2.44,5.73,5.73,0,0,1-3.17.83,5.15,5.15,0,0,1-3.8-1.32A4.7,4.7,0,0,1,245.4,96a4.31,4.31,0,0,1,1.9-3.86,9.12,9.12,0,0,1,5.16-1.27h2.61v-1a2.76,2.76,0,0,0-.63-1.9,2.71,2.71,0,0,0-2.11-.71,3.6,3.6,0,0,0-2.19.6,5.76,5.76,0,0,0-1.35,1.35L246,86.66a7.29,7.29,0,0,1,2.53-2.32,8.59,8.59,0,0,1,4.13-.84A7.84,7.84,0,0,1,258,85a5.62,5.62,0,0,1,1.76,4.49v7.22h1.54v3.61Zm-6.44-2.86a3.81,3.81,0,0,0,2-.49,1.75,1.75,0,0,0,.84-1.62V93.45h-2.26c-1.83,0-2.74.62-2.74,1.84v.47a1.53,1.53,0,0,0,.57,1.32A2.65,2.65,0,0,0,252.24,97.5Z"/><path class="b44af6b8-e986-49b3-94dd-a710cd3609d8" d="M270,100.36a5,5,0,0,1-3.66-1.22,4.81,4.81,0,0,1-1.24-3.58V87.49h-2.32V83.88h1.16a1.52,1.52,0,0,0,1.29-.46,2.1,2.1,0,0,0,.34-1.3v-2.7h4.18v4.46H273v3.61h-3.26v9.26h3v3.61Z"/></svg>