<svg id="a293d601-5723-43de-a879-99e6a5c358f1" data-name="Layer 1" xmlns="http://www.w3.org/2000/svg" width="262" height="140" viewBox="0 0 262 140"><defs><style>.bb06ad4b-4b8b-4776-ab94-e7ec81f8b15f{fill:#e00;}</style></defs><path d="M236.67,81.65c.11,0,.18-.05.18-.15v-.1c0-.11-.07-.16-.18-.16h-.26v.41Zm-.26.77h-.35V81h.66a.47.47,0,0,1,.22.89l.33.56h-.39l-.27-.5h-.2v.5Zm1.27-.65v-.18a1.06,1.06,0,0,0-2.12,0v.18a1.06,1.06,0,0,0,2.12,0Zm-2.45-.09a1.39,1.39,0,1,1,1.39,1.43,1.4,1.4,0,0,1-1.39-1.43Zm-20-22.9L214.63,57H204.24v1.81Zm1.2,3.47-.63-1.82h-11.6v1.82ZM224.2,83h9.08V81.22H224.2V83Zm0-3.46h9.08V77.75H224.2v1.82Zm0-3.47h5.45V74.29H224.2V76.1Zm5.45-5.28H224.2v1.82h5.45V70.82Zm-5.45-1.64h5.45V67.36H219.27l-.51,1.47-.51-1.47H207.87v1.82h5.44V67.51l.59,1.67h9.72l.58-1.67v1.67Zm5.45-5.28h-9.18l-.63,1.81h9.81V63.9Zm-21.78,8.74h5.44V70.82h-5.44v1.82Zm0,3.46h5.44V74.29h-5.44V76.1Zm-3.63,3.47h9.07V77.75h-9.07v1.82Zm0,3.46h9.07V81.22h-9.07V83ZM222.88,57l-.63,1.81h11V57Zm-1.83,5.28h12.23V60.43h-11.6l-.63,1.82Zm-13.18,3.46h9.8L217,63.9h-9.17v1.81Zm7.25,6.93h7.28l.64-1.82h-8.56l.64,1.82Zm1.21,3.46h4.86l.63-1.81h-6.13l.64,1.81Zm1.22,3.47H220l.64-1.82h-3.7l.64,1.82Zm1.2,3.46.64-1.81h-1.26l.62,1.81Zm-36.29,0h13.36a6.86,6.86,0,0,0,4.68-1.81h-18V83Zm14.19-8.74V76.1h6.1a6.81,6.81,0,0,0-.24-1.81ZM186.09,76.1h5.44V74.29h-5.44V76.1Zm10.56-10.39h5.86a6.81,6.81,0,0,0,.24-1.81h-6.1v1.81Zm-10.56,0h5.44V63.9h-5.44v1.81ZM195.82,57H182.46v1.81h18A6.88,6.88,0,0,0,195.82,57Zm6,3.46H182.46v1.82h20.09a6.71,6.71,0,0,0-.72-1.82Zm-15.74,6.93v1.82h14.22a7.15,7.15,0,0,0,1.51-1.82Zm14.22,3.46H186.09v1.82h15.73a7.15,7.15,0,0,0-1.51-1.82Zm-17.85,8.75h19.37a6.71,6.71,0,0,0,.72-1.82H182.46v1.82ZM167.94,58.78h12.71V57H167.94v1.81Zm0,3.47h12.71V60.43H167.94v1.82ZM177,63.9h-5.45v1.81H177V63.9Zm-5.45,5.28H177V67.36h-5.45v1.82Zm0,3.46H177V70.82h-5.45v1.82Zm0,3.46H177V74.29h-5.45V76.1Zm-3.63,3.47h12.71V77.75H167.94v1.82Zm0,1.65h12.71V83H167.94V81.22Z"/><polygon points="151.04 86.29 151.65 86.29 151.65 53.71 151.04 53.71 151.04 86.29 151.04 86.29"/><path class="bb06ad4b-4b8b-4776-ab94-e7ec81f8b15f" d="M52.87,69.92a9,9,0,0,1,.31,1.84c0,2.53-2.84,3.94-6.59,3.94-8.47,0-15.88-5-15.88-8.24A3.26,3.26,0,0,1,31,66.14c-3,.15-7,.7-7,4.17C24,76,37.5,83,48.19,83c8.19,0,10.26-3.7,10.26-6.63,0-2.3-2-4.92-5.58-6.48M47,72c2.26,0,5.54-.47,5.54-3.16a2.56,2.56,0,0,0-.06-.62l-1.34-5.86c-.32-1.29-.59-1.87-2.85-3-1.76-.9-5.58-2.38-6.71-2.38s-1.37,1.36-2.62,1.36-2.11-1-3.24-1-1.79.74-2.34,2.26c0,0-1.52,4.29-1.72,4.92a1.08,1.08,0,0,0,0,.35C31.6,66.52,38.17,72,47,72"/><path d="M52.87,69.92a9,9,0,0,1,.31,1.84c0,2.53-2.84,3.94-6.59,3.94-8.47,0-15.88-5-15.88-8.24A3.26,3.26,0,0,1,31,66.14l.66-1.64a1.08,1.08,0,0,0,0,.35C31.6,66.52,38.17,72,47,72c2.26,0,5.54-.47,5.54-3.16a2.56,2.56,0,0,0-.06-.62l.41,1.71Z"/><path d="M64.82,76.74h3.27V71.89h2.5l2.51,4.85h3.66l-2.94-5.33a4,4,0,0,0,2.52-3.75c0-2.4-1.89-4.25-4.71-4.25H64.82V76.74Zm6.51-10.53a1.52,1.52,0,1,1,0,3H68.09v-3Zm5.31,5.5a5.29,5.29,0,0,0,5.48,5.22,6.06,6.06,0,0,0,4.21-1.52l-2-1.81a2.73,2.73,0,0,1-2,.76,2.6,2.6,0,0,1-2.48-1.6H87V72c0-3.2-2.15-5.5-5.08-5.5a5.17,5.17,0,0,0-5.26,5.21m5.2-2.7A2.22,2.22,0,0,1,84,70.61H79.74a2.11,2.11,0,0,1,2.1-1.6m14,7.73h3v-14l-3.09.66V67.2a5.07,5.07,0,0,0-2.57-.66,5.17,5.17,0,1,0-.09,10.33,4.53,4.53,0,0,0,2.7-.87v.74ZM91,71.7a2.55,2.55,0,0,1,2.64-2.56,3.13,3.13,0,0,1,2.13.78v3.53a3,3,0,0,1-2.13.8A2.56,2.56,0,0,1,91,71.7m12.47,5h3.28V71.52h5.48v5.22h3.27V63.41h-3.27v5.12h-5.48V63.41h-3.28V76.74Zm16.74.17a4.74,4.74,0,0,0,2.78-.78v.61h3V70.29c0-2.46-1.65-3.81-4.41-3.81a11.25,11.25,0,0,0-4.71,1.1L118,69.85a8.13,8.13,0,0,1,3-.8c1.28,0,1.93.49,1.93,1.5v.5a9,9,0,0,0-2.29-.29c-2.59,0-4.15,1.09-4.15,3,0,1.77,1.41,3.12,3.66,3.12m-.94-3.18c0-.66.66-1,1.67-1a7.89,7.89,0,0,1,1.83.23v1.3a3.93,3.93,0,0,1-1.92.47c-1,0-1.58-.38-1.58-1m9.58,0c0,2.15,1.29,3.19,3.66,3.19a9.51,9.51,0,0,0,2.15-.3V74.08a4.58,4.58,0,0,1-1.39.2c-1,0-1.34-.3-1.34-1.21V69.24h2.82V66.67h-2.82V63.41l-3.08.67v2.59h-2v2.57h2v4.44Z"/></svg>