<?xml version="1.0" encoding="UTF-8"?><svg id="uuid-92aeaffe-a02e-4104-99e4-6f9149cdf9c0" xmlns="http://www.w3.org/2000/svg" viewBox="0 0 555 205.64325"><defs><style>.uuid-63a38405-8ed6-4c0c-bc44-597ad47bd20f{fill:#f2f2f2;}.uuid-e66cb7c9-3b7e-4987-b946-725357e20156{fill:#e00;}.uuid-cf75a9ad-86c9-40f2-b295-a3ec078e5c20{fill:#fff;}.uuid-b566b410-ae7b-48d6-a57a-82a8d029666f{fill:#316dc1;opacity:.25;}</style></defs><rect class="uuid-63a38405-8ed6-4c0c-bc44-597ad47bd20f" width="555" height="205.64325"/><path class="uuid-cf75a9ad-86c9-40f2-b295-a3ec078e5c20" d="m44.37262,45.43843v114.76636h466.25474V45.43843H44.37262Zm440.43628,88.94791H70.19112v-63.12937h414.61778v63.12937Z"/><path class="uuid-b566b410-ae7b-48d6-a57a-82a8d029666f" d="m44.37262,45.43843v114.76636h466.25474V45.43843H44.37262Zm440.43628,88.94791H70.19112v-63.12937h414.61778v63.12937Z"/><path class="uuid-b566b410-ae7b-48d6-a57a-82a8d029666f" d="m166.72794,60.92929c3.06152-1.3275,4.86846-4.09401,4.86846-7.26578,0-4.64761-3.65127-8.22506-9.11012-8.22506h-13.20411v25.8185h6.34394v-9.40549h4.83172l4.86848,9.40549h7.08167l-5.68003-10.32766Zm-4.83172-4.24166h-6.27011v-5.82739h6.27011c2.1023,0,3.28273,1.32781,3.28273,2.91354,0,1.58604-1.18044,2.91385-3.28273,2.91385Z"/><path class="uuid-b566b410-ae7b-48d6-a57a-82a8d029666f" d="m166.72794,149.87715c3.06152-1.3275,4.86846-4.09401,4.86846-7.26578,0-4.64761-3.65127-8.22506-9.11012-8.22506h-13.20411v25.8185h6.34394v-9.40549h4.83172l4.86848,9.40549h7.08167l-5.68003-10.32766Zm-4.83172-4.24166h-6.27011v-5.82739h6.27011c2.1023,0,3.28273,1.32781,3.28273,2.91354,0,1.58604-1.18044,2.91385-3.28273,2.91385Z"/><path class="uuid-b566b410-ae7b-48d6-a57a-82a8d029666f" d="m59.86346,96.93877c-1.3275-3.06152-4.09401-4.86846-7.26578-4.86846-4.64761,0-8.22506,3.65127-8.22506,9.11012v13.20411h25.8185v-6.34394h-9.40549v-4.83172l9.40549-4.86848v-7.08167l-10.32766,5.68003Zm-4.24166,4.83172v6.27011h-5.82739v-6.27011c0-2.1023,1.32781-3.28273,2.91354-3.28273,1.58604,0,2.91385,1.18044,2.91385,3.28273Z"/><path class="uuid-b566b410-ae7b-48d6-a57a-82a8d029666f" d="m495.13655,108.70451c1.3275,3.06152,4.09401,4.86846,7.26578,4.86846,4.64761,0,8.22506-3.65127,8.22506-9.11012v-13.20411h-25.8185v6.34394h9.40549v4.83172l-9.40549,4.86848v7.08167l10.32766-5.68003Zm4.24166-4.83172v-6.27011h5.82739v6.27011c0,2.1023-1.32781,3.28273-2.91354,3.28273-1.58604,0-2.91385-1.18044-2.91385-3.28273Z"/><path d="m482.22935,125.39702c.21414,0,.33564-.09397.33564-.29536v-.20138c0-.20137-.1215-.29567-.33564-.29567h-.51146v.7924h.51146Zm-.51146,1.47705h-.684v-2.80613h1.27537c.63289,0,.95253.3759.95253.88605,0,.44303-.20134.72528-.50826.84609l.62976,1.07399h-.75123l-.52414-.96659h-.39003v.96659h0Zm2.45807-1.24852v-.34937c0-1.12769-.88538-2.01406-2.05532-2.01406-1.1667,0-2.05208.88637-2.05208,2.01406v.34937c0,1.1277.88538,2.01406,2.05208,2.01406,1.16994,0,2.05532-.88637,2.05532-2.01406h0Zm-4.74032-.17484c0-1.57072,1.1955-2.76554,2.685-2.76554,1.49274,0,2.68824,1.19482,2.68824,2.76554,0,1.57104-1.1955,2.76619-2.68824,2.76619-1.48951,0-2.685-1.19515-2.685-2.76619h0Zm-38.68309-44.36476l-1.22426-3.51607h-20.13747v3.51607h21.36173Zm2.3334,6.71249l-1.22426-3.51607h-22.47087v3.51607h23.69513Zm14.9816,40.27494h17.58033v-3.51607h-17.58033v3.51607h0Zm0-6.71249h17.58033v-3.51607h-17.58033v3.51607h0Zm0-6.71249h10.5482v-3.51607h-10.5482v3.51607h0Zm10.5482-10.22856h-10.5482v3.51607h10.5482v-3.51607h0Zm-10.5482-3.19642h10.5482v-3.51607h-20.10867l-.98772,2.84226-.98768-2.84226h-20.10871v3.51607h10.5482v-3.23095l1.13475,3.23095h18.82694l1.13471-3.23063v3.23063h0Zm10.5482-10.22856h-17.77207l-1.22426,3.51607h18.99632v-3.51607h0Zm-42.19279,16.94105h10.5482v-3.51607h-10.5482v3.51607h0Zm0,6.71249h10.5482v-3.51607h-10.5482v3.51607h0Zm-7.03213,6.71249h17.58033v-3.51607h-17.58033v3.51607h0Zm0,6.71249h17.58033v-3.51607h-17.58033v3.51607h0Zm36.11959-50.5035l-1.22102,3.51607h21.35849v-3.51607h-20.13747Zm-3.55762,10.22856h23.69509v-3.51607h-22.4708l-1.22429,3.51607h0Zm-25.52984,6.71249h18.99636l-1.22102-3.51607h-17.77535v3.51607h0Zm14.03871,13.42498h14.11542l1.23381-3.51607h-16.58305l1.23381,3.51607h0Zm2.35576,6.71249h9.40389l1.23381-3.51607h-11.87152l1.23381,3.51607h0Zm2.35896,6.71249h4.68597l1.23705-3.51607h-7.16004l1.23701,3.51607h0Zm2.33657,6.71249l1.22745-3.51607h-2.44207l1.21462,3.51607h0Zm-70.31492,0h25.89103c3.51607,0,6.67093-1.33259,9.05549-3.51607h-34.94653v3.51607h0Zm27.48924-16.94105v3.51607h11.82677c0-1.21752-.16622-2.39476-.46986-3.51607h-11.3569Zm-20.45711,3.51607h10.5482v-3.51607h-10.5482v3.51607h0Zm20.45711-20.13747h11.3569c.30364-1.1213.46986-2.29854.46986-3.51607h-11.82677v3.51607h0Zm-20.45711,0h10.5482v-3.51607h-10.5482v3.51607h0Zm18.8589-16.94105h-25.89103v3.51607h34.94653c-2.38456-2.18348-5.56498-3.51607-9.05549-3.51607h0Zm11.62539,6.71249h-37.51642v3.51607h38.92926c-.30364-1.25012-.78631-2.43056-1.41283-3.51607h0Zm-30.48429,13.42498v3.51607h27.5468c1.1667-.99249,2.16082-2.18188,2.93433-3.51607h-30.48113Zm27.5468,6.71249h-27.5468v3.51607h30.48113c-.77351-1.33419-1.76763-2.52358-2.93433-3.51607h0Zm-34.57893,16.94105h37.51642c.62653-1.08551,1.10919-2.26594,1.41283-3.51607h-38.92926v3.51607h0Zm-28.12853-40.27494h24.61246v-3.51607h-24.61246v3.51607h0Zm0,6.71249h24.61246v-3.51607h-24.61246v3.51607h0Zm17.58033,3.19642h-10.5482v3.51607h10.5482v-3.51607h0Zm-10.5482,10.22856h10.5482v-3.51607h-10.5482v3.51607h0Zm0,6.71249h10.5482v-3.51607h-10.5482v3.51607h0Zm0,6.71249h10.5482v-3.51607h-10.5482v3.51607h0Zm-7.03213,6.71249h24.61246v-3.51607h-24.61246v3.51607h0Zm0,3.19642h24.61246v3.51607h-24.61246v-3.51607h0Z"/><polygon points="316.33366 134.38632 317.50548 134.38632 317.50548 71.25695 316.33366 71.25695 316.33366 134.38632 316.33366 134.38632"/><path class="uuid-e66cb7c9-3b7e-4987-b946-725357e20156" d="m126.1375,102.66949c.60507,2.87326.60507,3.17532.60507,3.55347,0,4.91449-5.5199,7.63561-12.77674,7.63561-16.40694,0-30.77071-9.60109-30.77071-15.95175,0-.98354.22664-1.89036.52904-2.57056-5.89741.30239-13.53304,1.36071-13.53304,8.0895,0,11.03757,26.1589,24.64603,46.87365,24.64603,15.87728,0,19.88335-7.18172,19.88335-12.85187,0-4.46125-3.85521-9.52597-10.81062-12.55043m-11.41635,4.00736c4.38549,0,10.73582-.90747,10.73582-6.12403,0-.40723-.01118-.80326-.10868-1.20058l-2.61244-11.34922c-.60572-2.49514-1.1344-3.62922-5.51926-5.82165-3.40258-1.73886-10.81126-4.61148-13.00401-4.61148-2.04123,0-2.64569,2.64536-5.06537,2.64536-2.34298,0-4.08215-1.96516-6.27458-1.96516-2.11636,0-3.47804,1.43616-4.53637,4.38517,0,0-2.94869,8.31582-3.32651,9.52503-.07576.22695-.078.48202-.078.68115,0,3.23222,12.72879,13.83541,29.7894,13.83541"/><path d="m126.1375,102.66949c.60507,2.87326.60507,3.17532.60507,3.55347,0,4.91449-5.5199,7.63561-12.77674,7.63561-16.40694,0-30.77071-9.60109-30.77071-15.95175,0-.98354.22664-1.89036.52904-2.57056l1.28559-3.17597c-.07576.22695-.078.48202-.078.68115,0,3.23222,12.72879,13.83541,29.7894,13.83541,4.38549,0,10.73582-.90747,10.73582-6.12403,0-.40723-.01118-.80326-.10868-1.20058l.7892,3.31725h0Z"/><path d="m149.28216,115.88031h6.34394v-9.40547h4.83171l4.86848,9.40547h7.08168l-5.68004-10.32764c3.06153-1.32747,4.86847-4.09398,4.86847-7.2658,0-4.64759-3.65128-8.22504-9.11013-8.22504h-13.2041v25.81848h0Zm12.61404-20.3967c2.1023,0,3.28273,1.3278,3.28273,2.91354,0,1.58606-1.18044,2.91385-3.28273,2.91385h-6.2701v-5.8274h6.2701Zm10.28993,10.65943c0,5.67972,4.64728,10.10581,10.62235,10.10581,3.28272,0,5.68035-.88507,8.15118-2.95061l-3.94627-3.50392c-.92219.95893-2.28707,1.47546-3.90988,1.47546-2.21289,0-4.02015-1.21719-4.79464-3.09829h13.90509v-1.47546c0-6.19627-4.16784-10.65943-9.84787-10.65943-5.71712,0-10.17997,4.42608-10.17997,10.10645m10.06938-5.23766c1.88078,0,3.46683,1.21719,4.09396,3.09829h-8.15118c.59005-1.95493,2.06551-3.09829,4.05722-3.09829m27.07179,14.97493h5.90123v-27.10951l-5.97507,1.29104v7.33963c-1.47515-.84834-3.1718-1.29071-4.97908-1.29071-5.68005,0-10.14287,4.38901-10.14287,9.99521s4.38902,10.03231,9.95843,10.03231c1.91785,0,3.72513-.59038,5.23736-1.69634v1.43839h0Zm-9.33132-9.77435c0-2.80294,2.2129-4.94231,5.12674-4.94231,1.62283,0,3.09796.55331,4.13073,1.51223v6.8234c-1.06951,1.03277-2.47116,1.54898-4.13073,1.54898-2.87678,0-5.12674-2.13904-5.12674-4.94231m24.17389,9.77435h6.34394v-10.10646h10.62239v10.10646h6.34394v-25.81848h-6.34394v9.92138h-10.62239v-9.92138h-6.34394v25.81848h0Zm32.42037.33178c2.10263,0,3.79897-.44271,5.38501-1.51222v1.18044h5.90125v-12.50377c0-4.75788-3.20889-7.3767-8.55681-7.3767-2.98769,0-5.93799.70097-9.11012,2.13936l2.13903,4.38901c2.28672-.95893,4.20457-1.54899,5.90154-1.54899,2.47116,0,3.72511.95893,3.72511,2.91386v.95893c-1.4013-.36887-2.87709-.5533-4.42573-.5533-5.0165,0-8.04093,2.10229-8.04093,5.86447,0,3.43009,2.72943,6.04891,7.08165,6.04891m-1.8229-6.15951c0-1.29104,1.29102-1.91817,3.24565-1.91817,1.29102,0,2.47114.18443,3.54069.4427v2.50824c-1.10661.62682-2.39732.92184-3.72511.92184-1.91785,0-3.06122-.73742-3.06122-1.95461m18.56739-.11092c0,4.16782,2.50854,6.1966,7.082,6.1966,1.10693,0,3.02443-.25795,4.16813-.59038v-4.83139c-.9957.29503-1.73341.40562-2.693.40562-1.88108,0-2.58143-.59006-2.58143-2.36056v-7.41346h5.45821v-4.97907h-5.45821v-6.30718l-5.9757,1.29071v5.01647h-3.94633v4.97907h3.94633v8.59358h0Z"/></svg>