<svg id="bcc9be25-27d9-445a-a91b-9886ce68b984" data-name="Layer 1" xmlns="http://www.w3.org/2000/svg" width="360" height="180" viewBox="0 0 360 180"><defs><style>.a6731b73-b77b-4238-a287-48302a62eefb{fill:#e00;}.b8f5926a-e7f1-4d53-82c4-0f60abb03898{fill:none;stroke:#000;stroke-linecap:round;stroke-linejoin:round;stroke-width:0.5px;}</style></defs><path d="M190.19,51.09v2.27h12.08c-.27-.79-.42-1.26-.76-2.27Z"/><polygon points="217.36 53.36 217.36 51.09 206.04 51.09 205.28 53.36 217.36 53.36"/><path d="M203,55.63h-6l.76,2.27h6L203,55.63"/><polygon points="209.81 57.9 210.57 55.63 204.53 55.63 203.78 57.9 209.81 57.9"/><path d="M199.25,62.45h9.05l.76-2.27H198.49l.76,2.27"/><rect x="190.19" y="64.72" width="6.79" height="2.27"/><rect x="210.57" y="64.72" width="6.79" height="2.27"/><rect x="190.19" y="60.17" width="6.79" height="2.27"/><rect x="210.57" y="60.17" width="6.79" height="2.27"/><rect x="190.19" y="55.63" width="6.79" height="2.27"/><rect x="210.57" y="55.63" width="6.79" height="2.27"/><rect x="185.66" y="69.26" width="11.32" height="2.27"/><rect x="185.66" y="73.81" width="11.32" height="2.27"/><rect x="160.75" y="64.72" width="6.79" height="2.27"/><rect x="160.75" y="51.09" width="6.79" height="2.27"/><rect x="142.64" y="64.72" width="6.79" height="2.27"/><rect x="142.64" y="60.17" width="6.79" height="2.27"/><rect x="142.64" y="55.63" width="6.79" height="2.27"/><rect x="142.64" y="51.09" width="6.79" height="2.27"/><rect x="138.11" y="69.26" width="15.85" height="2.27"/><rect x="138.11" y="73.81" width="15.85" height="2.27"/><rect x="138.11" y="42" width="15.85" height="2.27"/><rect x="138.11" y="46.54" width="15.85" height="2.27"/><path d="M185.66,42v2.27h13.59c-.34-1-.5-1.48-.76-2.27Z"/><path d="M185.66,46.54v2.28h15.1c-.38-1.13-.39-1.15-.76-2.28Z"/><polygon points="221.89 42 209.06 42 208.3 44.27 221.89 44.27 221.89 42"/><polygon points="221.89 48.82 221.89 46.54 207.55 46.54 206.79 48.82 221.89 48.82"/><rect x="210.57" y="69.26" width="11.32" height="2.27"/><rect x="210.57" y="73.81" width="11.32" height="2.27"/><path d="M203.78,76.08l.75-2.27H203l.76,2.27"/><path d="M202.27,71.53h3l.75-2.27h-4.53l.76,2.27"/><path d="M200.76,67h6l.76-2.27H200c.37,1.12.38,1.15.76,2.27"/><path d="M180.33,60.18H160.75v2.27h21.43a8.86,8.86,0,0,0-1.85-2.27"/><path d="M174.34,67h9.06a8.94,8.94,0,0,0-.29-2.27h-8.77Z"/><path d="M156.23,71.53h26a8.54,8.54,0,0,0,.93-2.27H156.23Z"/><path d="M156.23,76.08h18.11a9,9,0,0,0,6-2.27h-24.1Z"/><path d="M160.75,57.9h19.58a8.86,8.86,0,0,0,1.85-2.27H160.75Z"/><path d="M174.34,53.36h8.77a8.94,8.94,0,0,0,.29-2.27h-9.06Z"/><path d="M156.23,42v2.27h24.1a9,9,0,0,0-6-2.27Z"/><path d="M156.23,48.82h26.88a8.75,8.75,0,0,0-.93-2.28h-26Z"/><path d="M151.25,127.67a9.81,9.81,0,0,1,.34,2c0,2.75-3.09,4.28-7.16,4.28-9.19,0-17.23-5.38-17.23-8.94a3.65,3.65,0,0,1,.3-1.44l.72-1.78a1.35,1.35,0,0,0-.05.39c0,1.81,7.13,7.74,16.69,7.74,2.45,0,6-.5,6-3.42a3.07,3.07,0,0,0-.06-.68Z"/><path class="a6731b73-b77b-4238-a287-48302a62eefb" d="M151.25,127.78a9.68,9.68,0,0,1,.34,2c0,2.76-3.09,4.28-7.16,4.28-9.18,0-17.23-5.38-17.23-8.93a3.61,3.61,0,0,1,.3-1.44c-3.3.17-7.58.76-7.58,4.53,0,6.18,14.65,13.8,26.25,13.8,8.89,0,11.13-4,11.13-7.2,0-2.5-2.16-5.33-6.05-7M144.86,130c2.45,0,6-.51,6-3.43a3,3,0,0,0-.06-.67l-1.47-6.36c-.33-1.39-.63-2-3.09-3.26-1.9-1-6.05-2.58-7.28-2.58s-1.48,1.48-2.84,1.48-2.28-1.1-3.51-1.1-2,.8-2.54,2.46c0,0-1.65,4.65-1.86,5.33a1,1,0,0,0-.05.38c0,1.81,7.13,7.75,16.69,7.75"/><path d="M164.21,135.17h3.55v-5.26h2.71l2.72,5.26h4L174,129.39a4.37,4.37,0,0,0,2.72-4.07c0-2.6-2-4.6-5.1-4.6h-7.39Zm7.06-11.42a1.65,1.65,0,1,1,0,3.27h-3.51v-3.27Zm5.76,6a5.74,5.74,0,0,0,5.95,5.66,6.61,6.61,0,0,0,4.57-1.65l-2.21-2a3,3,0,0,1-2.19.83,2.84,2.84,0,0,1-2.69-1.73h7.79V130c0-3.47-2.33-6-5.51-6a5.62,5.62,0,0,0-5.71,5.66m5.64-2.93a2.42,2.42,0,0,1,2.3,1.73H180.4a2.28,2.28,0,0,1,2.27-1.73m15.16,8.38h3.31V120l-3.35.73v4.11a5.48,5.48,0,0,0-2.79-.73,5.61,5.61,0,1,0-.1,11.22,4.91,4.91,0,0,0,2.93-.95Zm-5.22-5.47a2.77,2.77,0,0,1,2.87-2.77,3.37,3.37,0,0,1,2.31.85v3.82a3.2,3.2,0,0,1-2.31.87,2.78,2.78,0,0,1-2.87-2.77m13.54,5.47h3.55v-5.66h6v5.66h3.55V120.72h-3.55v5.55h-6v-5.55h-3.55Zm18.15.19a5.12,5.12,0,0,0,3-.85v.66h3.3v-7c0-2.66-1.8-4.13-4.79-4.13a12,12,0,0,0-5.1,1.2l1.2,2.46a8.86,8.86,0,0,1,3.3-.87c1.38,0,2.09.54,2.09,1.63V129a9.63,9.63,0,0,0-2.48-.31c-2.81,0-4.5,1.18-4.5,3.28,0,1.92,1.52,3.39,4,3.39m-1-3.45c0-.72.72-1.07,1.82-1.07a8.66,8.66,0,0,1,2,.24v1.41A4.24,4.24,0,0,1,225,133c-1.07,0-1.71-.42-1.71-1.1m10.4-.06c0,2.33,1.4,3.47,4,3.47A10.64,10.64,0,0,0,240,135v-2.71a4.74,4.74,0,0,1-1.51.23c-1.06,0-1.45-.33-1.45-1.32V127h3.06v-2.79H237v-3.53l-3.34.72v2.81h-2.21V127h2.21Z"/><line class="b8f5926a-e7f1-4d53-82c4-0f60abb03898" x1="119.92" y1="95.39" x2="240.08" y2="95.39"/></svg>