<svg id="e7b40f73-6bec-4850-9f4d-1251115745b9" data-name="Layer 1" xmlns="http://www.w3.org/2000/svg" xmlns:xlink="http://www.w3.org/1999/xlink" width="360" height="180" viewBox="0 0 360 180"><defs><style>.b1929cc3-8cff-436c-9793-e04e051baa15{fill:url(#a37119bc-ece8-4208-b74f-21733b82b712);}.e8891133-a1d7-4112-9dfc-9bc9ec52a7c0{fill:url(#f2629ac5-a77f-45ca-948d-8444bbca05ec);}.b58a47db-dc43-4098-9fa5-b5566b1033a5{fill:url(#eb0671ae-043c-4227-a670-4b43b2b193da);}.f66b11d6-7801-4dda-964d-4e80f43776ab{fill:url(#ae2bd620-9598-4ba7-bf6f-835ec818c961);}</style><linearGradient id="a37119bc-ece8-4208-b74f-21733b82b712" x1="219.68" y1="90.04" x2="294.94" y2="90.04" gradientTransform="translate(0 1)" gradientUnits="userSpaceOnUse"><stop offset="0" stop-color="#2067f5"/><stop offset="0.11" stop-color="#2873eb"/><stop offset="0.49" stop-color="#3f97cd"/><stop offset="0.79" stop-color="#4daebb"/><stop offset="0.99" stop-color="#52b6b4"/><stop offset="1" stop-color="#52b6b4"/></linearGradient><linearGradient id="f2629ac5-a77f-45ca-948d-8444bbca05ec" x1="65.06" y1="91" x2="102.08" y2="91" gradientUnits="userSpaceOnUse"><stop offset="0" stop-color="#c00"/><stop offset="1" stop-color="#e00"/></linearGradient><linearGradient id="eb0671ae-043c-4227-a670-4b43b2b193da" x1="72.27" y1="91.1" x2="96.42" y2="91.1" gradientUnits="userSpaceOnUse"><stop offset="0"/><stop offset="1" stop-color="#666"/></linearGradient><linearGradient id="ae2bd620-9598-4ba7-bf6f-835ec818c961" x1="108.91" y1="90.83" x2="184.03" y2="90.83" xlink:href="#eb0671ae-043c-4227-a670-4b43b2b193da"/></defs><path class="b1929cc3-8cff-436c-9793-e04e051baa15" d="M223.58,90.11h5.85v-2h-5.85Zm-3.9,11.17h13.64v-2H219.68Zm9.75-16.84h-5.85v2h5.85ZM219.68,105h13.64v-2H219.68Zm19.49-18.61H245v-2h-5.85Zm-15.59,7.45h5.85v-2h-5.85ZM219.68,79h13.64V77H219.68Zm0,3.72h13.64v-2H219.68Zm3.9,14.89h5.85v-2h-5.85Zm47.54-16.84H258.67v2H271.8ZM269.83,77H258.67v2h11.84Zm-34.56,28h14.36a7.38,7.38,0,0,0,5-2H235.27Zm27.3-18.61H273.1l-.68-2h-9.85Zm23.39-2H276.1l-.67,2H286Zm-29.89-3.72h-20.8v2h21.59A7.39,7.39,0,0,0,256.07,80.72Zm-16.9,16.84H245v-2h-5.85Zm15.28-5.67H239.17v2h16.9A7.62,7.62,0,0,0,254.45,91.89ZM249.63,77H235.27v2h19.38A7.42,7.42,0,0,0,249.63,77ZM239.17,88.16v2h15.28a7.62,7.62,0,0,0,1.62-2Zm11.34,7.45v2h6.56a7.34,7.34,0,0,0-.26-2Zm29.6-5.5H286v-2H274.81l-.55,1.58-.55-1.58H262.57v2h5.84V88.32l.63,1.79h10.44l.63-1.79Zm0,11.17h9.75v-2h-9.75Zm0-3.72H286v-2h-5.85ZM286,91.89h-5.85v2H286ZM280.11,105h9.75v-2h-9.75Zm-3.39-22.33h13.14v-2H277.4Zm17.36,20.6a.47.47,0,0,0-.53-.49h-.71v1.56h.38v-.54h.22l.29.54h.42l-.35-.6A.46.46,0,0,0,294.08,103.27Zm-.39.08a.16.16,0,0,1-.18.17h-.29v-.44h.29c.11,0,.18,0,.18.16Zm-.24-1.34a1.54,1.54,0,1,0,1.49,1.54A1.5,1.5,0,0,0,293.45,102Zm0,2.75a1.11,1.11,0,0,1-1.14-1.12v-.19a1.14,1.14,0,0,1,2.27,0v.19A1.11,1.11,0,0,1,293.45,104.76ZM278,79h11.84V77H278.69ZM273,101.28h2.6l.69-2h-4Zm-2.61-7.44h7.82l.69-2h-9.2ZM258.67,105h9.74v-2h-9.74Zm-8.16-18.61h6.3a7.34,7.34,0,0,0,.26-2h-6.56Zm12.06,11.17h5.84v-2h-5.84Zm-3.9,3.72h9.74v-2h-9.74Zm13-3.72h5.22l.68-2H271Zm-9.08-3.72h5.84v-2h-5.84Zm-27.3,7.44h20.8a7.39,7.39,0,0,0,.79-2H235.27Zm39,3.72.68-2h-1.36Z"/><polygon points="201.53 108.5 202.18 108.5 202.18 73.5 201.53 73.5 201.53 108.5 201.53 108.5"/><path class="e8891133-a1d7-4112-9dfc-9bc9ec52a7c0" d="M96.08,90.92a9.55,9.55,0,0,1,.34,2c0,2.72-3.06,4.23-7.09,4.23-9.09,0-17.06-5.32-17.06-8.84a3.56,3.56,0,0,1,.3-1.43c-3.27.17-7.51.75-7.51,4.48,0,6.12,14.51,13.67,26,13.67,8.8,0,11-4,11-7.13,0-2.47-2.14-5.28-6-7m-6.33,2.22c2.43,0,6-.51,6-3.4a2.46,2.46,0,0,0-.06-.66l-1.44-6.3c-.34-1.38-.63-2-3.06-3.22-1.89-1-6-2.56-7.21-2.56s-1.47,1.47-2.81,1.47-2.27-1.09-3.48-1.09-1.93.79-2.52,2.43c0,0-1.63,4.61-1.84,5.28a1.26,1.26,0,0,0,0,.38c0,1.79,7.05,7.67,16.51,7.67"/><path class="b58a47db-dc43-4098-9fa5-b5566b1033a5" d="M96.08,90.92a9.55,9.55,0,0,1,.34,2c0,2.72-3.06,4.23-7.09,4.23-9.09,0-17.06-5.32-17.06-8.84a3.56,3.56,0,0,1,.3-1.43l.71-1.76a1.26,1.26,0,0,0,0,.38c0,1.79,7.05,7.67,16.51,7.67,2.43,0,6-.51,6-3.4a2.46,2.46,0,0,0-.06-.66l.44,1.84Z"/><path class="f66b11d6-7801-4dda-964d-4e80f43776ab" d="M108.91,98.24h3.52V93h2.68l2.7,5.21h3.93l-3.15-5.73a4.33,4.33,0,0,0,2.7-4c0-2.58-2-4.56-5.06-4.56h-7.32V98.24Zm7-11.31a1.63,1.63,0,1,1,0,3.23h-3.48V86.93Zm5.7,5.91a5.68,5.68,0,0,0,5.89,5.6A6.51,6.51,0,0,0,132,96.81l-2.19-1.94a2.94,2.94,0,0,1-2.17.81A2.79,2.79,0,0,1,125,94h7.71v-.82c0-3.44-2.31-5.91-5.46-5.91a5.56,5.56,0,0,0-5.65,5.6m5.58-2.9a2.37,2.37,0,0,1,2.27,1.72H125a2.24,2.24,0,0,1,2.24-1.72m15,8.3h3.28v-15l-3.32.72V88a5.57,5.57,0,1,0-2.86,10.39,4.81,4.81,0,0,0,2.9-.94v.8ZM137,92.82a2.74,2.74,0,0,1,2.84-2.74,3.35,3.35,0,0,1,2.29.84V94.7a3.19,3.19,0,0,1-2.29.86A2.75,2.75,0,0,1,137,92.82m13.4,5.42H154v-5.6h5.89v5.6h3.52V83.93h-3.52v5.5H154v-5.5h-3.52V98.24Zm18,.18a5.07,5.07,0,0,0,3-.83v.65h3.27V91.31c0-2.64-1.77-4.09-4.74-4.09a12.13,12.13,0,0,0-5,1.18l1.19,2.44a8.83,8.83,0,0,1,3.27-.86c1.37,0,2.06.53,2.06,1.61v.54a9.29,9.29,0,0,0-2.45-.31c-2.78,0-4.46,1.16-4.46,3.25,0,1.9,1.51,3.35,3.93,3.35m-1-3.41c0-.72.71-1.06,1.8-1.06a8.48,8.48,0,0,1,2,.24v1.39a4.15,4.15,0,0,1-2.07.51c-1.06,0-1.69-.41-1.69-1.08M177.69,95c0,2.31,1.39,3.43,3.93,3.43a10.44,10.44,0,0,0,2.31-.32V95.38a4.91,4.91,0,0,1-1.5.22c-1,0-1.43-.33-1.43-1.31V90.18h3V87.42h-3V83.93l-3.31.71v2.78H175.5v2.76h2.19V95Z"/></svg>