<svg id="fbb4086a-4bfa-4cd8-8509-364bcf904e36" data-name="Layer 1" xmlns="http://www.w3.org/2000/svg" width="360" height="180" viewBox="0 0 360 180"><defs><style>.ac8db80d-7898-4c59-b477-0c2c201c5f29{fill:#e00;}</style></defs><path class="ac8db80d-7898-4c59-b477-0c2c201c5f29" d="M255.58,89.5a15.4,15.4,0,0,1,.53,3.12c0,4.31-4.84,6.69-11.2,6.69-14.38,0-27-8.41-27-14a5.63,5.63,0,0,1,.47-2.26c-5.17.27-11.86,1.2-11.86,7.1,0,9.67,22.93,21.6,41.08,21.6,13.92,0,17.44-6.29,17.44-11.26,0-3.92-3.38-8.36-9.48-11m-10,3.52c3.85,0,9.41-.8,9.41-5.37a4.7,4.7,0,0,0-.09-1.06l-2.29-9.94c-.53-2.19-1-3.18-4.84-5.11-3-1.52-9.48-4-11.4-4s-2.32,2.32-4.44,2.32-3.58-1.72-5.5-1.72-3,1.26-4,3.84c0,0-2.58,7.29-2.91,8.35a1.82,1.82,0,0,0-.07.6c0,2.83,11.16,12.13,26.11,12.13"/><path d="M255.58,89.5a15.4,15.4,0,0,1,.53,3.12c0,4.31-4.84,6.69-11.2,6.69-14.38,0-27-8.42-27-14a5.64,5.64,0,0,1,.46-2.26l1.13-2.78a1.82,1.82,0,0,0-.07.6c0,2.83,11.16,12.13,26.11,12.13,3.85,0,9.41-.8,9.41-5.37a4.56,4.56,0,0,0-.09-1.05Z"/><path d="M162.36,80.15v2.94H178c-.34-1-.54-1.63-1-2.94Z"/><polygon points="197.53 83.09 197.53 80.15 182.88 80.15 181.9 83.09 197.53 83.09"/><path d="M179,86h-7.82s.79,2.36,1,2.94H180s-.79-2.36-1-2.94"/><polygon points="187.76 88.97 188.74 86.03 180.92 86.03 179.95 88.97 187.76 88.97"/><path d="M174.08,94.85h11.73l1-2.94H173.11c.33,1,.54,1.64,1,2.94"/><rect x="162.36" y="97.8" width="8.79" height="2.94"/><rect x="188.74" y="97.8" width="8.79" height="2.94"/><rect x="162.36" y="91.91" width="8.79" height="2.94"/><rect x="188.74" y="91.91" width="8.79" height="2.94"/><rect x="162.36" y="86.03" width="8.79" height="2.94"/><rect x="188.74" y="86.03" width="8.79" height="2.94"/><rect x="156.5" y="103.67" width="14.65" height="2.94"/><rect x="156.5" y="109.56" width="14.65" height="2.94"/><rect x="124.26" y="97.8" width="8.79" height="2.94"/><rect x="124.26" y="80.15" width="8.79" height="2.94"/><rect x="100.81" y="97.8" width="8.79" height="2.94"/><rect x="100.81" y="91.91" width="8.79" height="2.94"/><rect x="100.81" y="86.03" width="8.79" height="2.94"/><rect x="100.81" y="80.15" width="8.79" height="2.94"/><rect x="94.94" y="103.67" width="20.52" height="2.94"/><rect x="94.94" y="109.56" width="20.52" height="2.94"/><rect x="94.94" y="68.39" width="20.52" height="2.94"/><rect x="94.94" y="74.27" width="20.52" height="2.94"/><path d="M156.5,68.39v2.94h17.58l-1-2.94Z"/><path d="M156.5,74.27v2.94H176c-.48-1.45-.5-1.49-1-2.94Z"/><polygon points="203.4 68.39 186.78 68.39 185.81 71.33 203.4 71.33 203.4 68.39"/><polygon points="203.4 77.21 203.4 74.27 184.83 74.27 183.85 77.21 203.4 77.21"/><rect x="188.74" y="103.67" width="14.65" height="2.94"/><rect x="188.74" y="109.56" width="14.65" height="2.94"/><path d="M180,112.5l1-2.94H179c.19.58,1,2.94,1,2.94"/><path d="M178,106.62h3.91l1-2.94H177c.43,1.3.63,1.92,1,2.94"/><path d="M176,100.74h7.81l1-2.94h-9.77c.48,1.45.49,1.48,1,2.94"/><path d="M149.59,91.91H124.26v2.94H152a11.94,11.94,0,0,0-2.4-2.94"/><path d="M141.84,100.74h11.73a11.78,11.78,0,0,0-.37-2.94H141.84Z"/><path d="M118.39,106.62H152a11.68,11.68,0,0,0,1.21-2.94H118.39Z"/><path d="M118.39,112.5h23.45a11.64,11.64,0,0,0,7.75-2.94h-31.2Z"/><path d="M124.26,89h25.33A11.76,11.76,0,0,0,152,86H124.26Z"/><path d="M141.84,83.09H153.2a11.84,11.84,0,0,0,.37-2.94H141.84Z"/><path d="M118.39,68.39v2.94h31.2a11.64,11.64,0,0,0-7.75-2.94Z"/><path d="M118.39,77.21H153.2A11.68,11.68,0,0,0,152,74.27h-33.6Z"/></svg>