<svg id="af555929-9166-4a7a-aca9-f73aad69594e" data-name="Layer 1" xmlns="http://www.w3.org/2000/svg" width="360" height="180" viewBox="0 0 360 180"><defs><style>.a12a0fb7-50e6-4749-882a-61a926390811{fill:#e00;}.a44587da-7568-4d7d-a02f-adf706ee38d3{fill:#fff;}.a2c347b8-0585-4206-8224-e84af3c0eef6{fill:#174fd1;}</style></defs><circle class="a12a0fb7-50e6-4749-882a-61a926390811" cx="239.41" cy="90" r="47.55"/><path class="a44587da-7568-4d7d-a02f-adf706ee38d3" d="M254.5,84a11.7,11.7,0,0,1,.41,2.38c0,3.29-3.7,5.11-8.55,5.11-11,0-20.58-6.42-20.58-10.67a4.34,4.34,0,0,1,.35-1.72c-3.94.2-9,.91-9,5.41,0,7.38,17.5,16.49,31.35,16.49,10.62,0,13.3-4.81,13.3-8.6,0-3-2.58-6.37-7.23-8.4m-7.64,2.68c2.94,0,7.19-.6,7.19-4.09a3.18,3.18,0,0,0-.08-.81l-1.74-7.59c-.41-1.67-.76-2.42-3.7-3.89-2.27-1.16-7.23-3.09-8.69-3.09S238.07,69,236.45,69s-2.73-1.31-4.2-1.31-2.33,1-3,2.93c0,0-2,5.57-2.23,6.37a1.54,1.54,0,0,0-.05.46c0,2.16,8.51,9.25,19.92,9.25"/><path class="a44587da-7568-4d7d-a02f-adf706ee38d3" d="M219.74,112.65h1.84v-2.73H223l1.42,2.73h2l-1.65-3a2.27,2.27,0,0,0,1.42-2.11,2.44,2.44,0,0,0-2.65-2.39h-3.83v7.5Zm3.66-5.92a.85.85,0,1,1,0,1.69h-1.82v-1.69Zm3,3.09a3,3,0,0,0,3.08,2.94,3.4,3.4,0,0,0,2.37-.86l-1.15-1a1.51,1.51,0,0,1-1.13.43,1.45,1.45,0,0,1-1.39-.9h4V110a2.91,2.91,0,1,0-5.81-.16m2.92-1.52a1.26,1.26,0,0,1,1.19.9h-2.37a1.19,1.19,0,0,1,1.18-.9m7.86,4.35h1.71v-7.87l-1.73.37v2.13a3,3,0,0,0-1.45-.37,2.91,2.91,0,1,0,0,5.81,2.55,2.55,0,0,0,1.52-.49v.42Zm-2.71-2.84a1.43,1.43,0,0,1,1.49-1.43,1.75,1.75,0,0,1,1.2.44v2a1.67,1.67,0,0,1-1.2.45,1.44,1.44,0,0,1-1.49-1.44m7,2.84h1.84v-2.93h3.08v2.93h1.85v-7.5H246.4V108h-3.08v-2.88h-1.84v7.5Zm9.41.1a2.64,2.64,0,0,0,1.56-.44v.34h1.72V109c0-1.38-.94-2.14-2.49-2.14a6.27,6.27,0,0,0-2.64.62l.62,1.27a4.58,4.58,0,0,1,1.71-.45c.72,0,1.08.28,1.08.85v.28a4.83,4.83,0,0,0-1.28-.16c-1.46,0-2.34.61-2.34,1.7a1.84,1.84,0,0,0,2.06,1.76m-.53-1.79c0-.38.38-.56.94-.56a4.09,4.09,0,0,1,1,.13v.73a2.18,2.18,0,0,1-1.08.26c-.56,0-.89-.21-.89-.56m5.39,0c0,1.21.73,1.79,2.06,1.79a5.19,5.19,0,0,0,1.21-.17v-1.4a2.45,2.45,0,0,1-.79.12c-.54,0-.74-.17-.74-.69v-2.15h1.58V107h-1.58v-1.84l-1.74.38V107h-1.14v1.44h1.14v2.5Z"/><circle class="a2c347b8-0585-4206-8224-e84af3c0eef6" cx="120.59" cy="90" r="47.55"/><path class="a44587da-7568-4d7d-a02f-adf706ee38d3" d="M147.94,99.43c.09,0,.14,0,.14-.13v-.08c0-.09-.05-.13-.14-.13h-.21v.34Zm-.21.61h-.29V98.87H148a.36.36,0,0,1,.4.37.33.33,0,0,1-.21.35l.26.45h-.31l-.22-.4h-.16v.4Zm1-.52v-.15a.86.86,0,0,0-1.72,0v.15a.86.86,0,0,0,1.72,0Zm-2-.07a1.13,1.13,0,1,1,1.13,1.16,1.13,1.13,0,0,1-1.13-1.16Zm-16.2-18.58-.51-1.48h-8.44v1.48Zm1,2.81L131,82.2h-9.41v1.48Zm6.27,16.87h7.36V99.07h-7.36v1.48Zm0-2.81h7.36V96.26h-7.36v1.48Zm0-2.82h4.42V93.45h-4.42v1.47Zm4.42-4.28h-4.42v1.47h4.42V90.64Zm-4.42-1.34h4.42V87.83h-8.42L133.4,89,133,87.83h-8.42V89.3H129V88l.47,1.35h7.89l.47-1.35V89.3ZM142.24,85H134.8l-.52,1.47h8V85Zm-17.67,7.09H129V90.64h-4.42v1.47Zm0,2.81H129V93.45h-4.42v1.47Zm-2.95,2.82H129V96.26h-7.37v1.48Zm0,2.81H129V99.07h-7.37v1.48Zm15.13-21.16-.51,1.48h8.94V79.39Zm-1.49,4.29h9.92V82.2h-9.41l-.51,1.48Zm-10.69,2.81h8L132,85h-7.44v1.47Zm5.88,5.62h5.91l.52-1.47h-6.95l.52,1.47Zm1,2.81h3.94l.52-1.47h-5l.51,1.47Zm1,2.82h2l.52-1.48h-3l.52,1.48Zm1,2.81.51-1.48h-1l.51,1.48Zm-29.45,0h10.84a5.57,5.57,0,0,0,3.8-1.48H104v1.48Zm11.51-7.1v1.47h5a5.49,5.49,0,0,0-.2-1.47Zm-8.57,1.47h4.42V93.45h-4.42v1.47Zm8.57-8.43h4.76a5.49,5.49,0,0,0,.2-1.47h-5v1.47Zm-8.57,0h4.42V85h-4.42v1.47Zm7.9-7.1H104v1.48h14.64a5.58,5.58,0,0,0-3.8-1.48Zm4.87,2.81H104v1.48h16.3a5.15,5.15,0,0,0-.59-1.48Zm-12.77,5.63V89.3h11.54a5.6,5.6,0,0,0,1.23-1.47Zm11.54,2.81H106.89v1.47h12.77a5.6,5.6,0,0,0-1.23-1.47ZM104,97.74h15.71a5.15,5.15,0,0,0,.59-1.48H104v1.48ZM92.17,80.87h10.31V79.39H92.17v1.48Zm0,2.81h10.31V82.2H92.17v1.48ZM99.53,85H95.11v1.47h4.42V85ZM95.11,89.3h4.42V87.83H95.11V89.3Zm0,2.81h4.42V90.64H95.11v1.47Zm0,2.81h4.42V93.45H95.11v1.47Zm-2.94,2.82h10.31V96.26H92.17v1.48Zm0,1.33h10.31v1.48H92.17V99.07Z"/></svg>