<svg id="b610c217-5001-4fc7-b63a-24c343cb136a" data-name="Layer 1" xmlns="http://www.w3.org/2000/svg" width="360" height="180" viewBox="0 0 360 180"><defs><style>.fa3c2b7d-3d3f-40b8-a1ee-d995cba64f76{fill:#e00;}</style></defs><path d="M185,83.4v3.15h16.72c-.37-1.09-.58-1.75-1.05-3.15Z"/><polygon points="222.59 86.55 222.59 83.4 206.91 83.4 205.87 86.55 222.59 86.55"/><path d="M202.73,89.69h-8.36l1,3.15h8.36s-.84-2.53-1.05-3.15"/><polygon points="212.13 92.84 213.18 89.69 204.82 89.69 203.78 92.84 212.13 92.84"/><path d="M197.51,99.13h12.54l1-3.15H196.46c.36,1.09.58,1.75,1,3.15"/><rect x="184.97" y="102.27" width="9.4" height="3.14"/><rect x="213.18" y="102.27" width="9.4" height="3.14"/><rect x="184.97" y="95.98" width="9.4" height="3.14"/><rect x="213.18" y="95.98" width="9.4" height="3.14"/><rect x="184.97" y="89.69" width="9.4" height="3.15"/><rect x="213.18" y="89.69" width="9.4" height="3.15"/><rect x="178.7" y="108.56" width="15.67" height="3.15"/><rect x="178.7" y="114.85" width="15.67" height="3.15"/><rect x="144.21" y="102.27" width="9.4" height="3.14"/><rect x="144.21" y="83.4" width="9.4" height="3.14"/><rect x="119.13" y="102.27" width="9.4" height="3.14"/><rect x="119.13" y="95.98" width="9.4" height="3.14"/><rect x="119.13" y="89.69" width="9.4" height="3.15"/><rect x="119.13" y="83.4" width="9.4" height="3.14"/><rect x="112.86" y="108.56" width="21.94" height="3.15"/><rect x="112.86" y="114.85" width="21.94" height="3.15"/><rect x="112.86" y="70.82" width="21.94" height="3.15"/><rect x="112.86" y="77.11" width="21.94" height="3.14"/><path d="M178.7,70.82V74h18.81c-.47-1.4-.69-2.06-1-3.15Z"/><path d="M178.7,77.11v3.15h20.9l-1-3.15Z"/><polygon points="228.85 70.82 211.09 70.82 210.04 73.97 228.85 73.97 228.85 70.82"/><polygon points="228.85 80.25 228.85 77.11 209 77.11 207.96 80.25 228.85 80.25"/><rect x="213.18" y="108.56" width="15.67" height="3.15"/><rect x="213.18" y="114.85" width="15.67" height="3.15"/><path d="M203.78,118l1-3.15h-2.09c.21.62,1.05,3.15,1.05,3.15"/><path d="M201.69,111.71h4.18l1-3.15h-6.27c.46,1.4.69,2.06,1.05,3.15"/><path d="M199.6,105.42H208l1.05-3.15H198.55l1,3.15"/><path d="M171.31,96h-27.1v3.15h29.67A12.41,12.41,0,0,0,171.31,96"/><path d="M163,105.42h12.54a13.07,13.07,0,0,0-.39-3.15H163Z"/><path d="M137.94,111.71h35.94a12.81,12.81,0,0,0,1.29-3.15H137.94Z"/><path d="M137.94,118H163a12.45,12.45,0,0,0,8.29-3.15H137.94Z"/><path d="M144.21,92.84h27.1a12.59,12.59,0,0,0,2.57-3.15H144.21Z"/><path d="M163,86.55h12.15a13.07,13.07,0,0,0,.39-3.15H163Z"/><path d="M137.94,70.82V74h33.37A12.45,12.45,0,0,0,163,70.82Z"/><path d="M137.94,80.25h37.23a12.74,12.74,0,0,0-1.29-3.14H137.94Z"/><path class="fa3c2b7d-3d3f-40b8-a1ee-d995cba64f76" d="M239.51,70.71a12.55,12.55,0,0,1,.42,2.51c0,3.47-3.89,5.39-9,5.39-11.58,0-21.72-6.78-21.72-11.26a4.44,4.44,0,0,1,.38-1.81c-4.17.21-9.55,1-9.55,5.71,0,7.78,18.46,17.39,33.07,17.39,11.21,0,14-5.07,14-9.07,0-3.15-2.72-6.72-7.63-8.86m-8.06,2.83c3.09,0,7.58-.64,7.58-4.32a3.45,3.45,0,0,0-.08-.85l-1.84-8c-.43-1.76-.8-2.56-3.9-4.11C230.81,55,225.58,53,224,53s-1.86,1.87-3.57,1.87-2.88-1.39-4.43-1.39-2.45,1-3.2,3.09c0,0-2.08,5.87-2.35,6.73a1.64,1.64,0,0,0,0,.48c0,2.28,9,9.76,21,9.76"/><path d="M239.51,70.71a12.55,12.55,0,0,1,.42,2.51c0,3.47-3.89,5.39-9,5.39-11.58,0-21.72-6.78-21.72-11.26a4.44,4.44,0,0,1,.38-1.81l.9-2.24a1.64,1.64,0,0,0,0,.48c0,2.28,9,9.76,21,9.76,3.09,0,7.58-.64,7.58-4.32a3.45,3.45,0,0,0-.08-.85Z"/></svg>