<svg xmlns="http://www.w3.org/2000/svg" viewBox="0 0 360 196">
  <defs>
    <style>
      .a056f20c-e8bf-4dec-b662-3b735d801913 {
        fill: #e00;
      }
    </style>
  </defs>
  <g id="abbc22fe-4eee-4d4e-9d7b-f6c41d5c94d2" data-name="Section: Using the correct logo">
    <g id="e52842db-84f7-4b25-a6fc-8df1a3cceffa" data-name="Group 35705">
      <path id="bd47485a-d56e-4c8e-b0d0-f7ef290aef63" data-name="Path 20017" d="M161.29,78.45v5.43H166c1.9,0,3.16-1.1,3.16-2.72s-1.26-2.71-3.16-2.71Zm-2.44-2.14h7.38c3.23,0,5.41,2,5.41,4.8a4.61,4.61,0,0,1-3.34,4.46l3.61,7h-2.69l-3.36-6.66h-4.57v6.66h-2.44V76.31Z"/>
      <path id="becf8697-96d9-46ed-b5a4-00bbc17f102c" data-name="Path 20018" d="M175,85.66h7a3.52,3.52,0,0,0-7,0Zm3.88,7.1a6.08,6.08,0,0,1-6.2-6v-.16a5.94,5.94,0,0,1,5.79-6.08h.13a5.85,5.85,0,0,1,5.71,6.17v.67h-9.33a4,4,0,0,0,4,3.39,4.58,4.58,0,0,0,3-1l1.49,1.46a7,7,0,0,1-4.57,1.55Z"/>
      <path id="b2bc5b54-b213-47e1-b2c7-87b82d478110" data-name="Path 20019" d="M192.26,90.72a4.24,4.24,0,0,0,3.27-1.42V83.94a4.31,4.31,0,0,0-3.27-1.39,4.09,4.09,0,0,0,0,8.17Zm3.29.72a5.54,5.54,0,0,1-3.61,1.3,6.09,6.09,0,1,1,3.6-11V76.31l2.31-.51V92.55h-2.3V91.44Z"/>
      <path id="abde02d7-313e-452d-bbfd-57b35a532419" data-name="Path 20020" d="M205.72,76.31h2.43v7h8.63v-7h2.44V92.55h-2.44V85.48h-8.63v7.07h-2.43Z"/>
      <path id="e77e5183-ee40-4749-a3bd-f23f400db69a" data-name="Path 20021" d="M226.29,91a4.57,4.57,0,0,0,3.14-1.11v-2a6.33,6.33,0,0,0-3-.72c-1.7,0-2.74.77-2.74,2s1.07,1.93,2.64,1.93Zm-4.87-1.87c0-2.23,1.81-3.6,4.78-3.6a8.5,8.5,0,0,1,3.23.64V85c0-1.67-1-2.5-2.88-2.5a8.29,8.29,0,0,0-3.67,1L222,81.72a11,11,0,0,1,4.85-1.21c3.06,0,4.82,1.51,4.82,4.22v7.82h-2.28v-1a5.57,5.57,0,0,1-3.66,1.23c-2.58,0-4.34-1.46-4.34-3.6Z"/>
      <path id="b573f019-5680-4d5e-823b-9e8cd46fb0ab" data-name="Path 20022" d="M235.44,82.69h-2.51v-2h2.51v-3l2.3-.56v3.57h3.48v2h-3.48v6.4c0,1.21.48,1.65,1.74,1.65a4.65,4.65,0,0,0,1.69-.28v2a7.78,7.78,0,0,1-2.2.35c-2.3,0-3.53-1.09-3.53-3.13V82.69Z"/>
      <path id="e244a3ad-178d-4540-9eeb-429d1c2197a2" data-name="Path 20023" d="M161.78,105v12h-3.11V100.67H163l4.46,8.73,4.45-8.73h4.32v16.24H173V105l-5.64,10.76L161.78,105Z"/>
      <path id="a235725f-d3ff-4880-921d-055bd35cd192" data-name="Path 20024" d="M183.35,114.85a4.6,4.6,0,0,0,2.67-.77v-1.81a7.17,7.17,0,0,0-2.55-.44c-1.46,0-2.32.58-2.32,1.51s.86,1.51,2.2,1.51Zm-5.24-1.44c0-2.3,1.86-3.67,5-3.67a9.84,9.84,0,0,1,3,.47v-.86c0-1.39-.86-2.11-2.55-2.11a9.15,9.15,0,0,0-3.69,1l-1.16-2.35a12.76,12.76,0,0,1,5.38-1.3c3.27,0,5.15,1.63,5.15,4.48v7.84H186v-.83a5.75,5.75,0,0,1-3.5,1c-2.6,0-4.41-1.51-4.41-3.71Z"/>
      <path id="a84f4d8d-d7d7-4f9d-82c5-673bb38fca56" data-name="Path 20025" d="M191.57,104.83h3.17v1.32a3.84,3.84,0,0,1,3.23-1.6,2.62,2.62,0,0,1,1.32.28v2.78a3.91,3.91,0,0,0-1.62-.32,3.2,3.2,0,0,0-2.93,1.81v7.81h-3.17Z"/>
      <path id="fbc6551e-827b-4d16-ba54-0f79c64f6515" data-name="Path 20026" d="M201,100.67l3.18-.7v10l5.22-5.1H213l-5.67,5.55,6,6.54h-4.06l-5.1-5.52v5.52H201V100.67Z"/>
      <path id="bbd9dfc8-ab4e-4d50-9e4f-fe1a199515bb" data-name="Path 20027" d="M215.9,109.67h5.92a3.13,3.13,0,0,0-2.95-2.44,3.06,3.06,0,0,0-3,2.44Zm3.32,7.47a6.29,6.29,0,0,1-6.5-6.08v-.18a6.18,6.18,0,0,1,6.07-6.27h.15c3.43,0,6,2.79,6,6.5V112h-9a3.49,3.49,0,0,0,3.44,2.53,3.79,3.79,0,0,0,2.66-1l2.09,1.9a7.21,7.21,0,0,1-4.9,1.74Z"/>
      <path id="bfb575ed-777d-4f9c-974a-d6e66c3bfad8" data-name="Path 20028" d="M228.06,107.49h-2.48v-2.66h2.48v-3.09l3.18-.72v3.8h3.43v2.67h-3.43v5.35c0,1.14.44,1.56,1.67,1.56a4.88,4.88,0,0,0,1.69-.28v2.6a9.76,9.76,0,0,1-2.46.37c-2.69,0-4.08-1.23-4.08-3.6v-6Z"/>
      <path id="bafd9185-f25a-41ac-8895-ad0932d071c4" data-name="Path 20029" d="M239.43,108.51v4.76a4.08,4.08,0,0,0,2.87,1.11,3.5,3.5,0,1,0,0-7A3.86,3.86,0,0,0,239.43,108.51Zm-3.18-3.69h3.13v1a5.53,5.53,0,0,1,3.43-1.16,6.21,6.21,0,0,1-.09,12.42,6,6,0,0,1-3.29-1v5.63h-3.18V104.83Z"/>
      <path id="b6b6cd25-b29a-4015-ae52-44f0af776d3b" data-name="Path 20030" d="M254.09,116.91h-3.18V100.67l3.18-.7v16.94Z"/>
      <path id="a034cc35-f061-43b3-8489-7b9f5ad6d4e5" data-name="Path 20031" d="M261.24,114.85a4.59,4.59,0,0,0,2.66-.77v-1.81a7.13,7.13,0,0,0-2.55-.44c-1.46,0-2.32.58-2.32,1.51s.86,1.51,2.2,1.51ZM256,113.41c0-2.3,1.86-3.67,5-3.67a9.77,9.77,0,0,1,2.94.47v-.86c0-1.39-.85-2.11-2.55-2.11a9.19,9.19,0,0,0-3.69,1l-1.16-2.35a12.76,12.76,0,0,1,5.39-1.3c3.27,0,5.15,1.63,5.15,4.48v7.84H263.9v-.83a5.75,5.75,0,0,1-3.5,1c-2.6,0-4.4-1.51-4.4-3.71Z"/>
      <path id="a261074a-1a83-45b5-a91e-6cea57e735b1" data-name="Path 20032" d="M278.24,113l1.9,2a6.71,6.71,0,0,1-4.92,2.15,6.28,6.28,0,0,1,0-12.55,6.78,6.78,0,0,1,5,2.16l-1.94,2.06a4,4,0,0,0-3-1.46,3.51,3.51,0,0,0,.07,7,3.73,3.73,0,0,0,2.88-1.35Z"/>
      <path id="eb94dba9-13d3-41ac-89b4-ebd17a59c49b" data-name="Path 20033" d="M284,109.67h5.91a3.12,3.12,0,0,0-2.94-2.44,3,3,0,0,0-3,2.44Zm3.32,7.47a6.29,6.29,0,0,1-6.5-6.08v-.18a6.17,6.17,0,0,1,6.07-6.27H287c3.44,0,6,2.79,6,6.5V112h-9a3.48,3.48,0,0,0,3.43,2.53,3.8,3.8,0,0,0,2.67-1l2.09,1.9a7.21,7.21,0,0,1-4.9,1.74Z"/>
      <path id="e00f77fd-039b-4ad2-bb7c-28f2f3b5ebce" data-name="Path 20034" class="a056f20c-e8bf-4dec-b662-3b735d801913" d="M113.29,97.07a13.91,13.91,0,0,1,.5,2.94c0,4.06-4.56,6.31-10.56,6.31-13.57,0-25.45-7.94-25.45-13.19A5.38,5.38,0,0,1,78.22,91C73.34,91.25,67,92.13,67,97.69c0,9.13,21.63,20.38,38.76,20.38,13.13,0,16.44-5.94,16.44-10.63,0-3.68-3.19-7.87-8.94-10.37Zm-9.44,3.31c3.63,0,8.88-.75,8.88-5.06a4.19,4.19,0,0,0-.09-1l-2.16-9.38c-.5-2.06-.94-3-4.57-4.81-2.81-1.44-8.93-3.82-10.75-3.82S93,78.5,91,78.5s-3.37-1.62-5.19-1.62S82.91,78.06,82,80.5c0,0-2.43,6.88-2.75,7.88a1.75,1.75,0,0,0-.06.56c0,2.67,10.52,11.44,24.63,11.44Z"/>
      <path id="f8753577-05b1-46bb-ad39-54729c7e78a7" data-name="Path 20035" d="M113.29,97.07a13.91,13.91,0,0,1,.5,2.94c0,4.06-4.56,6.31-10.56,6.31-13.57,0-25.45-7.94-25.45-13.19A5.38,5.38,0,0,1,78.22,91l1.06-2.62a1.75,1.75,0,0,0-.06.56c0,2.67,10.52,11.44,24.63,11.44,3.63,0,8.88-.75,8.88-5.06a4.19,4.19,0,0,0-.09-1l.65,2.75Z"/>
      <path id="a28ef3dc-14bc-4312-9078-18e214b89edb" data-name="Path 20036" d="M140.54,120.17a.67.67,0,0,1-.66-.66h0V74.86a.66.66,0,0,1,1.31,0v44.65a.66.66,0,0,1-.65.66Z"/>
    </g>
  </g>
</svg>
