<svg xmlns="http://www.w3.org/2000/svg" viewBox="0 0 600 400">
  <defs>
    <style>
      .b3549d94-1c4d-4181-a288-8aa703a71b48 {
        fill: #e00;
      }

      .aae4fea7-970d-4938-8082-9d044206977a {
        isolation: isolate;
      }

      .a08a1e7c-b979-4cdf-8577-8fc8ca4c6799 {
        fill: none;
        stroke: #000;
        stroke-miterlimit: 10;
        stroke-width: 0.5px;
      }
    </style>
  </defs>
  <g id="e93200f4-9888-43c5-aabf-8f3656ae1c09" data-name="Section: Typography">
    <g id="bcaca2d5-2554-4f0a-a17f-88345e1b2879" data-name="Group 5396">
      <g id="a32843e3-85a5-403b-a034-8f5e75d07f23" data-name="Group 5392">
        <path id="b3921355-ce50-42bd-8e14-e1c9ceebc274" data-name="Path 6285" class="b3549d94-1c4d-4181-a288-8aa703a71b48" d="M28.54,6.1c10.91,0,18.54,6.18,18.54,15a13.23,13.23,0,0,1-6.18,11c4.73,2.52,7.86,6.72,7.86,11.68,0,9.23-7.4,15.72-18.92,15.72H2.06V6.1ZM15.19,16.86V27.39H27.7c4,0,6.26-2.29,6.26-5.27s-2.22-5.26-6.26-5.26ZM35.49,43.1c0-3.2-2.37-5.64-6.64-5.64H15.19V48.75H28.84c4.28,0,6.64-2.44,6.64-5.65Z"/>
        <path id="a221ffaa-df8d-4084-8d2f-8fa5b9b2bf73" data-name="Path 6286" class="b3549d94-1c4d-4181-a288-8aa703a71b48" d="M67.46,59.51H55.1V6.1L67.46,3.43Z"/>
        <path id="bb01f018-cc23-440f-9e86-1de28ac412b2" data-name="Path 6287" class="b3549d94-1c4d-4181-a288-8aa703a71b48" d="M73.18,47.68c0-7.78,6.26-12.13,16.64-12.13A35.8,35.8,0,0,1,99,36.7v-2c0-4-2.59-6-7.7-6-3.52,0-7.48,1.22-12.21,3.21l-4.43-9.08a45,45,0,0,1,18.85-4.43c11.06,0,17.7,5.42,17.7,15.26V59.51H99V57.07A18.88,18.88,0,0,1,87.83,60.2C78.83,60.2,73.18,54.78,73.18,47.68ZM91.27,51.5A15.57,15.57,0,0,0,99,49.59V44.4a31.15,31.15,0,0,0-7.32-.91c-4.05,0-6.72,1.3-6.72,4S87.3,51.5,91.27,51.5Z"/>
        <path id="f7024e9d-1156-4a63-970f-f12abc40af7b" data-name="Path 6288" class="b3549d94-1c4d-4181-a288-8aa703a71b48" d="M147.58,45.24l7.33,7.63a22.32,22.32,0,0,1-16.71,7.4c-12.06,0-21.37-9.08-21.37-20.91s9.31-21,21.37-21a22.86,22.86,0,0,1,17.09,7.48l-7.56,7.86c-2.9-3.28-5.72-4.66-9.23-4.66-5.34,0-9.39,4.43-9.39,10.3s4.13,10.23,9.7,10.23C142.16,49.59,144.91,48.21,147.58,45.24Z"/>
        <path id="f1a7a8d7-ca3d-4765-b700-daf4c22371fb" data-name="Path 6289" class="b3549d94-1c4d-4181-a288-8aa703a71b48" d="M159.64,6.1,172,3.43v32.2l16.1-16.49h13.81L184,37.38l19.15,22.13H187.49L172,41.43V59.51H159.64Z"/>
      </g>
      <g id="a7760f87-f31a-432f-b859-9fc6d71085d1" data-name="Group 5393">
        <path id="b538bdb8-a552-44f5-b2ae-c1ba75b91fc2" data-name="Path 6290" class="b3549d94-1c4d-4181-a288-8aa703a71b48" d="M27.17,113.16c10.83,0,18.08,6,18.08,14.65A13.07,13.07,0,0,1,38.69,139c5.11,2.44,8.39,6.79,8.39,12.05,0,9.08-7.25,15.49-18.7,15.49H2.06V113.16Zm-14,9.15V135H26.48c5,0,7.78-2.67,7.78-6.33s-2.82-6.34-7.78-6.34Zm22.81,28.16c0-4-3.12-6.87-8.39-6.87H13.13v13.81H27.55c5.26,0,8.39-2.9,8.39-6.94Z"/>
        <path id="e60518b1-d517-4e84-aaaa-fe98e237f88f" data-name="Path 6291" class="b3549d94-1c4d-4181-a288-8aa703a71b48" d="M73.49,126.06c11.9,0,21.21,9.08,21.21,20.67s-9.31,20.6-21.21,20.6-21.22-9-21.22-20.6S61.58,126.06,73.49,126.06Zm0,9.08c-6.11,0-11,5-11,11.6,0,6.4,4.8,11.52,11,11.52s11-5.12,11-11.52C84.47,140.17,79.67,135.14,73.49,135.14Z"/>
        <path id="b9f63ac2-66a0-4dce-b0ca-bd7dd62ce0fa" data-name="Path 6292" class="b3549d94-1c4d-4181-a288-8aa703a71b48" d="M111.41,166.57H101V113.16l10.45-2.29Z"/>
        <path id="aea99b0f-cec7-4134-84c8-f3407790f6d9" data-name="Path 6293" class="b3549d94-1c4d-4181-a288-8aa703a71b48" d="M149.18,163.29a18,18,0,0,1-11.29,3.82A20.41,20.41,0,1,1,149,129.41V113.16l10.45-2.29v55.7h-10.3Zm-9.61-5.11a12.71,12.71,0,0,0,9.46-3.82V138.87a13.43,13.43,0,0,0-9.46-3.73,11.52,11.52,0,0,0-.22,23Z"/>
      </g>
      <g id="bfffc0d0-7f88-4e32-9424-5201f5d72d22" data-name="Group 5394">
        <path id="add62958-6e3a-47a7-ac0e-fc04fb17543b" data-name="Path 6294" class="b3549d94-1c4d-4181-a288-8aa703a71b48" d="M9.54,230.14v43.5H2.06V220.22H12.74l16.79,34.11,16.71-34.11H56.93v53.42H49.37V230.07L29.46,269.82Z"/>
        <path id="b841b5c1-1119-4b1d-afe2-39fa515b28c7" data-name="Path 6295" class="b3549d94-1c4d-4181-a288-8aa703a71b48" d="M84.55,234.19c10.68,0,18.77,8.85,18.77,20.3v2.21H72.65a13.09,13.09,0,0,0,13.12,11.14,15.14,15.14,0,0,0,9.85-3.43l4.88,4.8a22.81,22.81,0,0,1-15,5.11A20,20,0,0,1,65.1,254.73c0-.18,0-.37,0-.55C65.09,243,73.56,234.19,84.55,234.19ZM72.72,251h23C94.7,245,90,240.6,84.4,240.6,78.45,240.6,73.87,244.87,72.72,251Z"/>
        <path id="fbc8a032-969f-498b-8bde-372c933d7ff4" data-name="Path 6296" class="b3549d94-1c4d-4181-a288-8aa703a71b48" d="M140.48,270a18.34,18.34,0,0,1-11.9,4.28c-11.06,0-19.61-8.93-19.61-20.07A19.77,19.77,0,0,1,140.41,238V220.22l7.63-1.68v55.1h-7.55Zm-10.83-2.36A13.91,13.91,0,0,0,140.41,263V245.33a14.51,14.51,0,0,0-10.76-4.58,13.43,13.43,0,0,0,0,26.86Z"/>
        <path id="f017de4d-c639-43b4-a3be-740882b6ca01" data-name="Path 6297" class="b3549d94-1c4d-4181-a288-8aa703a71b48" d="M156,223.81a4.68,4.68,0,1,1,4.73,4.73A4.75,4.75,0,0,1,156,223.81Zm8.54,49.83h-7.63V234.8h7.63Z"/>
        <path id="a75c3902-4c71-4cc3-afdb-0f44494319ba" data-name="Path 6298" class="b3549d94-1c4d-4181-a288-8aa703a71b48" d="M180.93,257.92c0,6,3.66,9.84,9.69,9.84a10.94,10.94,0,0,0,9.54-5V234.8h7.63v38.84h-7.63v-3.89a15.89,15.89,0,0,1-11.68,4.65c-8.92,0-15.11-6.26-15.11-15.18V234.8h7.56Z"/>
        <path id="a4390200-8390-4807-bde1-6edf07483627" data-name="Path 6299" class="b3549d94-1c4d-4181-a288-8aa703a71b48" d="M216.64,234.8h7.63v3.58A14.85,14.85,0,0,1,235.11,234a13.86,13.86,0,0,1,12,6.41A15.6,15.6,0,0,1,260.29,234c8.54,0,14.5,6.26,14.5,15.19v24.42h-7.56V250.51c0-6-3.36-9.84-8.93-9.84a10.33,10.33,0,0,0-9.08,5.19,15.7,15.7,0,0,1,.3,3.35v24.42h-7.63V250.51c0-6-3.36-9.84-8.85-9.84a10.12,10.12,0,0,0-8.78,4.65v28.31h-7.63Z"/>
      </g>
      <g id="aac78652-645d-4fac-aafe-2ef559ce1601" data-name="Red Hat Display Black Aa Bb Cc Dd Ee Ff Gg Hh Ii Jj Kk Ll Mm Nn Oo Pp Qq Rr Ss Tt Uu Vv Ww Xx Yy Zz" class="aae4fea7-970d-4938-8082-9d044206977a">
        <g class="aae4fea7-970d-4938-8082-9d044206977a">
          <path d="M315.9,7h3.81a2.39,2.39,0,0,1,2.62,2.38,2.87,2.87,0,0,1-2.23,2.75l1.28,3.42h-1.83l-1.14-3.3h-1.9l-.7,3.3h-1.73Zm1.4,1.53-.47,2.28h2.29a1.32,1.32,0,0,0,1.44-1.27c0-.62-.45-1-1.16-1Z"/>
          <path d="M325.63,15.67a3,3,0,0,1-3.22-3,3.52,3.52,0,0,1,3.44-3.55,2.87,2.87,0,0,1,2.88,3.06,6.15,6.15,0,0,1-.06.77H324a1.66,1.66,0,0,0,1.72,1.37,2.18,2.18,0,0,0,1.38-.46l.92,1.06A3.92,3.92,0,0,1,325.63,15.67Zm-1.49-3.94h3.05a1.43,1.43,0,0,0-1.42-1.26A1.77,1.77,0,0,0,324.14,11.73Z"/>
          <path d="M333.84,15.22a3,3,0,0,1-1.49.4,2.84,2.84,0,0,1-2.84-2.94,3.56,3.56,0,0,1,3.54-3.59,2.89,2.89,0,0,1,1.92.66L335.56,7l1.72-.37-1.89,8.92h-1.63Zm-1-1a2.1,2.1,0,0,0,1.34-.49l.54-2.53a2,2,0,0,0-1.55-.67,2,2,0,0,0-2,2A1.62,1.62,0,0,0,332.79,14.21Z"/>
          <path d="M341.06,7h1.74l-.73,3.43h3.85L346.66,7h1.72l-1.82,8.55h-1.72l.74-3.5h-3.86l-.74,3.5h-1.74Z"/>
          <path d="M348,13.84c0-1.29,1-2.1,2.67-2.1a4.92,4.92,0,0,1,1.73.32l.08-.32c.18-.87-.26-1.29-1.3-1.29a5.24,5.24,0,0,0-1.79.41L349,9.6a7.14,7.14,0,0,1,2.55-.53c1.94,0,2.89,1,2.55,2.65l-.81,3.82h-1.61l.09-.39a3,3,0,0,1-1.6.46C348.82,15.61,348,14.91,348,13.84Zm2.72.59a2.25,2.25,0,0,0,1.26-.36l.2-1a3.48,3.48,0,0,0-1.39-.28c-.77,0-1.24.33-1.24.85S350,14.43,350.71,14.43Z"/>
          <path d="M356.17,10.58h-1.28l.29-1.4h1.28l.34-1.63,1.72-.37-.42,2h1.77l-.3,1.4H357.8l-.59,2.78c-.14.63.09.87.79.87a2.74,2.74,0,0,0,.78-.1l-.29,1.36a5.79,5.79,0,0,1-1.16.13c-1.43,0-2.08-.71-1.81-2Z"/>
          <path d="M363.73,7h2.79a3.76,3.76,0,0,1,4,3.81,4.89,4.89,0,0,1-4.94,4.74h-3.63Zm1.4,1.58L364,14h1.72a3,3,0,0,0,3-3,2.26,2.26,0,0,0-2.34-2.35Z"/>
          <path d="M372.28,15.54h-1.63L372,9.18h1.64Zm0-8a1.07,1.07,0,0,1,1.05-1.06.82.82,0,0,1,.83.83,1.09,1.09,0,0,1-1.05,1.07A.82.82,0,0,1,372.24,7.58Z"/>
          <path d="M374.31,13.52a3.18,3.18,0,0,0,2.09.88c.67,0,1.12-.28,1.12-.7q0-.4-.69-.57l-1.17-.26c-1.05-.23-1.62-.83-1.62-1.72,0-1.28,1-2.07,2.53-2.07a4.21,4.21,0,0,1,2.75,1l-.92,1a3.3,3.3,0,0,0-1.94-.75c-.59,0-.95.25-.95.64s.21.48.76.6l1.15.25c1.08.23,1.66.85,1.66,1.7,0,1.23-1.15,2.16-2.69,2.16a4.44,4.44,0,0,1-3-1.09Z"/>
          <path d="M380.84,9.18h1.63l-.06.31a2.92,2.92,0,0,1,1.47-.4A2.84,2.84,0,0,1,386.72,12a3.56,3.56,0,0,1-3.54,3.59,2.76,2.76,0,0,1-1.91-.69l-.68,3.16H379Zm1.27,1.8-.53,2.51a1.87,1.87,0,0,0,1.53.7,2,2,0,0,0,2-2,1.62,1.62,0,0,0-1.66-1.67A2.13,2.13,0,0,0,382.11,11Z"/>
          <path d="M388.7,15.54h-1.64L388.88,7l1.71-.37Z"/>
          <path d="M390.12,13.84c0-1.29,1-2.1,2.68-2.1a4.92,4.92,0,0,1,1.73.32l.07-.32c.19-.87-.25-1.29-1.29-1.29a5.24,5.24,0,0,0-1.79.41l-.41-1.26a7.14,7.14,0,0,1,2.55-.53c1.94,0,2.9,1,2.55,2.65l-.8,3.82H393.8l.08-.39a3,3,0,0,1-1.6.46C391,15.61,390.12,14.91,390.12,13.84Zm2.73.59a2.22,2.22,0,0,0,1.25-.36l.21-1a3.48,3.48,0,0,0-1.39-.28c-.77,0-1.25.33-1.25.85S392.11,14.43,392.85,14.43Z"/>
          <path d="M398.28,15.53l-1.1-6.35h1.75l.66,4.48,2.73-4.48h1.8l-4.49,7.11a3.15,3.15,0,0,1-2.84,1.83,3.6,3.6,0,0,1-1-.12l.29-1.43a2.08,2.08,0,0,0,.6.08,1.52,1.52,0,0,0,1.35-.81Z"/>
          <path d="M411.44,7C413,7,414,7.8,414,9a2.49,2.49,0,0,1-1.38,2.17,1.85,1.85,0,0,1,1,1.61c0,1.57-1.4,2.73-3.26,2.73H406L407.77,7Zm.4,5.81c0-.58-.44-.94-1.17-.94h-2.21L408,14.07h2.37A1.32,1.32,0,0,0,411.84,12.8Zm-2.66-4.34-.42,2h2.11a1.23,1.23,0,0,0,1.35-1.16c0-.53-.4-.86-1.06-.86Z"/>
          <path d="M415.75,15.54h-1.63L415.94,7l1.7-.37Z"/>
          <path d="M417.18,13.84c0-1.29,1-2.1,2.67-2.1a5,5,0,0,1,1.74.32l.07-.32c.18-.87-.26-1.29-1.29-1.29a5.23,5.23,0,0,0-1.8.41l-.4-1.26a7.14,7.14,0,0,1,2.55-.53c1.94,0,2.89,1,2.55,2.65l-.8,3.82h-1.61l.08-.39a3,3,0,0,1-1.6.46C418,15.61,417.18,14.91,417.18,13.84Zm2.72.59a2.25,2.25,0,0,0,1.26-.36l.21-1a3.56,3.56,0,0,0-1.39-.28c-.77,0-1.25.33-1.25.85S419.17,14.43,419.9,14.43Z"/>
          <path d="M428.72,13.58l.84,1.1a3.66,3.66,0,0,1-2.49,1,2.93,2.93,0,0,1-3-3,3.56,3.56,0,0,1,3.52-3.61,3.18,3.18,0,0,1,2.61,1.28l-1.13,1a1.72,1.72,0,0,0-1.5-.84,2,2,0,0,0-1.86,2.07,1.53,1.53,0,0,0,1.56,1.62A2.14,2.14,0,0,0,428.72,13.58Z"/>
          <path d="M431.87,7l1.71-.37-1.13,5.3,3.14-2.74h2l-3.74,3.17,2.54,3.19h-2l-2.15-2.82-.59,2.82h-1.64Z"/>
        </g>
        <g class="aae4fea7-970d-4938-8082-9d044206977a">
          <path d="M317.46,36.29h2.05L323,44.84h-1.92l-.86-2.25h-3.53l-.88,2.25H314Zm2.2,4.89L318.45,38l-1.23,3.15Z"/>
          <path d="M323.29,43c0-1.21,1-1.93,2.61-1.93a5.12,5.12,0,0,1,1.55.24v-.45c0-.73-.45-1.11-1.34-1.11a4.94,4.94,0,0,0-1.94.52L323.56,39a6.65,6.65,0,0,1,2.83-.68c1.72,0,2.71.85,2.71,2.35v4.13h-1.65V44.4a3,3,0,0,1-1.84.55A2.06,2.06,0,0,1,323.29,43Zm2.76.75a2.38,2.38,0,0,0,1.4-.4v-1a3.66,3.66,0,0,0-1.34-.23c-.77,0-1.22.3-1.22.79S325.34,43.75,326.05,43.75Z"/>
          <path d="M337,36.29c1.72,0,2.89,1,2.89,2.35a2.1,2.1,0,0,1-1,1.79,2.15,2.15,0,0,1,1.34,1.93c0,1.49-1.19,2.48-3,2.48h-4.21V36.29Zm-2.25,1.47v2h2.14c.76,0,1.24-.39,1.24-1s-.48-1-1.24-1Zm3.65,4.5c0-.65-.52-1.09-1.34-1.09H334.7v2.2H337C337.83,43.37,338.35,43,338.35,42.26Z"/>
          <path d="M344.67,44.93a3.24,3.24,0,0,1-1.76-.52v.43h-1.65V36.29l1.67-.36v3a3,3,0,0,1,1.78-.59,3.27,3.27,0,0,1,0,6.54Zm-1.74-4.51v2.5a2.15,2.15,0,0,0,1.52.59,1.81,1.81,0,0,0,1.85-1.84,1.83,1.83,0,0,0-1.85-1.85A2.07,2.07,0,0,0,342.93,40.42Z"/>
          <path d="M358.11,42.24l1.16,1.15A4.71,4.71,0,0,1,355.76,45a4.4,4.4,0,1,1,0-8.8,4.7,4.7,0,0,1,3.56,1.6l-1.2,1.18a3,3,0,0,0-2.36-1.16,2.78,2.78,0,0,0,.05,5.55A2.93,2.93,0,0,0,358.11,42.24Z"/>
          <path d="M364.58,42.79l1,1A3.53,3.53,0,0,1,363,45a3.3,3.3,0,1,1,0-6.6,3.57,3.57,0,0,1,2.64,1.13l-1,1.09a2.06,2.06,0,0,0-1.57-.77,1.85,1.85,0,0,0,0,3.69A2,2,0,0,0,364.58,42.79Z"/>
          <path d="M369,36.29h3.29a4.28,4.28,0,1,1,0,8.55H369Zm1.77,1.58v5.4h1.5a2.7,2.7,0,1,0,0-5.4Z"/>
          <path d="M382.66,44.31a2.83,2.83,0,0,1-1.8.62,3.27,3.27,0,1,1,1.78-6v-2.6l1.67-.36v8.91h-1.65Zm-1.54-.81a2,2,0,0,0,1.52-.61V40.41a2.11,2.11,0,0,0-1.52-.6,1.8,1.8,0,0,0-1.85,1.84A1.82,1.82,0,0,0,381.12,43.5Z"/>
          <path d="M388.19,36.29h6.57v1.54H390v2h3.17v1.49H390v2h4.85v1.54h-6.62Z"/>
          <path d="M398.73,45a3.31,3.31,0,0,1-3.42-3.29,3.25,3.25,0,0,1,3.27-3.3,3.21,3.21,0,0,1,3.15,3.42v.44H397a1.83,1.83,0,0,0,1.8,1.33,2,2,0,0,0,1.41-.52l1.1,1A3.85,3.85,0,0,1,398.73,45ZM397,41h3.11a1.64,1.64,0,0,0-1.55-1.28A1.59,1.59,0,0,0,397,41Z"/>
          <path d="M405.32,36.29h6.61v1.54h-4.84v2h3.22v1.49h-3.22v3.5h-1.77Z"/>
          <path d="M413.75,38.48v-.61c0-1.43.85-2.21,2.42-2.21a4.28,4.28,0,0,1,1,.11v1.4a3.83,3.83,0,0,0-.79-.09c-.63,0-.95.26-.95.83v.57h1.74v1.4h-1.74v5h-1.67v-5h-1.42v-1.4Z"/>
          <path d="M424.8,45a4.41,4.41,0,1,1,0-8.81,4.6,4.6,0,0,1,3.56,1.6l-1.24,1.13a2.93,2.93,0,0,0-2.32-1.11,2.68,2.68,0,0,0-2.68,2.79,2.71,2.71,0,0,0,2.73,2.79,2.3,2.3,0,0,0,2.37-1.78h-2.53V40h4.42v.54A4.21,4.21,0,0,1,424.8,45Z"/>
          <path d="M429.89,41.62a3.23,3.23,0,0,1,3.27-3.24,3.16,3.16,0,0,1,1.72.51v-.41h1.65v6.36c0,1.68-1.11,2.62-3.15,2.62a5.93,5.93,0,0,1-2.65-.57l.59-1.31a4.44,4.44,0,0,0,2,.52c1,0,1.51-.44,1.51-1.27V44.3a2.87,2.87,0,0,1-1.75.58A3.22,3.22,0,0,1,429.89,41.62Zm3.48,1.84a2.12,2.12,0,0,0,1.49-.57V40.38a2.16,2.16,0,0,0-1.48-.57,1.83,1.83,0,1,0,0,3.65Z"/>
          <path d="M440.42,36.29h1.77v3.43h3.93V36.29h1.77v8.55h-1.77V41.35h-3.93v3.49h-1.77Z"/>
          <path d="M449.33,36.29l1.67-.36v3a2.75,2.75,0,0,1,1.78-.62,2.42,2.42,0,0,1,2.52,2.52v4h-1.67V41.13a1.24,1.24,0,0,0-1.32-1.33,1.54,1.54,0,0,0-1.31.63v4.41h-1.67Z"/>
          <path d="M459.13,36.29h1.77v8.55h-1.77Z"/>
          <path d="M462.22,36.77a1,1,0,1,1,.95.95A1,1,0,0,1,462.22,36.77Zm1.8,8.07h-1.68V38.48H464Z"/>
          <path d="M470.78,45a3.39,3.39,0,0,1-3.45-2.5l1.63-.62c.36,1,.94,1.52,1.83,1.52a1.72,1.72,0,0,0,1.75-1.89V36.29h1.77v5.23A3.28,3.28,0,0,1,470.78,45Z"/>
          <path d="M474.35,47.35V46.07a2.34,2.34,0,0,0,.55,0c.5,0,.72-.19.72-.65v-7h1.67v7.09a1.8,1.8,0,0,1-2.06,1.89A2.74,2.74,0,0,1,474.35,47.35Zm1.14-10.58a1,1,0,1,1,1,.95A1,1,0,0,1,475.49,36.77Z"/>
          <path d="M481.16,36.29h1.77v3.84l3.73-3.84h2.17l-4.13,4.07L489,44.84h-2.37l-3.72-4v4h-1.77Z"/>
          <path d="M489.56,36.29l1.67-.36v5.24L494,38.48h1.89l-3,2.92,3.16,3.44h-2.13l-2.69-2.91v2.91h-1.67Z"/>
          <path d="M499.06,36.29h1.77v7h4.67v1.56h-6.44Z"/>
          <path d="M508.29,44.84h-1.67V36.29l1.67-.36Z"/>
          <path d="M513.8,38.55v6.29h-1.64V36.29h2.27l2.34,4.59,2.35-4.59h2.27v8.55h-1.67V38.57l-3,5.66Z"/>
          <path d="M522.82,38.48h1.67V39a2.47,2.47,0,0,1,1.66-.6,2.28,2.28,0,0,1,1.92,1,2.62,2.62,0,0,1,2.1-1,2.37,2.37,0,0,1,2.43,2.52v4h-1.68V41.13a1.18,1.18,0,0,0-1.19-1.33,1.44,1.44,0,0,0-1.22.63,3.4,3.4,0,0,1,0,.45v4h-1.67V41.13a1.18,1.18,0,0,0-1.19-1.33,1.42,1.42,0,0,0-1.19.57v4.47h-1.67Z"/>
          <path d="M538.13,36.29l4.25,5.53V36.29H544v8.55h-1.56l-4.36-5.71v5.71h-1.67V36.29Z"/>
          <path d="M545.48,38.48h1.67V39a2.76,2.76,0,0,1,1.79-.62,2.41,2.41,0,0,1,2.51,2.52v4h-1.67V41.13a1.24,1.24,0,0,0-1.32-1.33,1.55,1.55,0,0,0-1.31.63v4.41h-1.67Z"/>
        </g>
        <g class="aae4fea7-970d-4938-8082-9d044206977a">
          <path d="M319,59.62a4.41,4.41,0,1,1,4.53-4.4A4.41,4.41,0,0,1,319,59.62Zm0-7.19a2.79,2.79,0,1,0,2.71,2.79A2.7,2.7,0,0,0,319,52.43Z"/>
          <path d="M327.68,53a3.3,3.3,0,1,1-3.39,3.31A3.32,3.32,0,0,1,327.68,53Zm1.76,3.31a1.76,1.76,0,1,0-1.76,1.84A1.79,1.79,0,0,0,329.44,56.32Z"/>
          <path d="M334.67,51H339a2.67,2.67,0,1,1,0,5.32h-2.51v3.22h-1.77Zm1.77,1.52V54.8h2.32a1.17,1.17,0,1,0,0-2.33Z"/>
          <path d="M342.87,53.13h1.65v.53a2.86,2.86,0,0,1,1.81-.62,3.27,3.27,0,0,1-.05,6.54,3.19,3.19,0,0,1-1.74-.51v3h-1.67Zm1.67,1.94v2.5a2.15,2.15,0,0,0,1.52.59,1.85,1.85,0,1,0,0-3.69A2.07,2.07,0,0,0,344.54,55.07Z"/>
          <path d="M360.56,58.33l.86,1.06-1.55.52-.57-.71a4.53,4.53,0,0,1-2,.42,4.41,4.41,0,1,1,4.53-4.4A4.27,4.27,0,0,1,360.56,58.33ZM359.48,57a2.88,2.88,0,0,0,.57-1.74A2.71,2.71,0,1,0,357.34,58a2.5,2.5,0,0,0,.88-.15l-.94-1.17,1.55-.51Z"/>
          <path d="M362.68,56.3A3.23,3.23,0,0,1,366,53a3.16,3.16,0,0,1,1.76.52v-.43h1.65V62h-1.68V59a2.93,2.93,0,0,1-1.78.59A3.23,3.23,0,0,1,362.68,56.3Zm3.5,1.85a2,2,0,0,0,1.51-.61V55.06a2.07,2.07,0,0,0-1.51-.6,1.81,1.81,0,0,0-1.86,1.84A1.83,1.83,0,0,0,366.18,58.15Z"/>
          <path d="M373.25,51h4.17a2.69,2.69,0,0,1,3,2.64A2.53,2.53,0,0,1,378.71,56l1.89,3.52h-2L377,56.22H375v3.27h-1.77ZM375,52.47v2.3h2.25a1.16,1.16,0,1,0,0-2.3Z"/>
          <path d="M381.43,53.13h1.67v.7a2,2,0,0,1,1.7-.85,1.47,1.47,0,0,1,.69.15V54.6a2.08,2.08,0,0,0-.85-.18,1.68,1.68,0,0,0-1.54,1v4.11h-1.67Z"/>
          <path d="M389.24,56.87a4.26,4.26,0,0,0,2.9,1.24c1.06,0,1.74-.41,1.74-1.07s-.39-.88-1.4-1l-1.7-.3c-1.46-.24-2.23-1-2.23-2.28,0-1.6,1.29-2.59,3.37-2.59a6,6,0,0,1,3.53,1.2l-1,1.32a4.32,4.32,0,0,0-2.69-1c-1,0-1.57.38-1.57,1s.34.79,1.22.92l1.62.27c1.7.28,2.55,1.09,2.55,2.41,0,1.67-1.41,2.73-3.6,2.73a5.69,5.69,0,0,1-3.79-1.48Z"/>
          <path d="M397,57.62a3.67,3.67,0,0,0,2.06.72c.74,0,1.23-.27,1.23-.67s-.24-.51-.79-.6l-1.22-.18c-1.26-.19-1.93-.82-1.93-1.84,0-1.24,1-2,2.65-2a4.66,4.66,0,0,1,2.61.8l-.81,1.07a3.76,3.76,0,0,0-2-.61c-.61,0-1,.24-1,.62s.24.52.86.6l1.22.18c1.25.19,1.95.83,1.95,1.82,0,1.2-1.19,2.1-2.79,2.1a4.63,4.63,0,0,1-2.91-.88Z"/>
          <path d="M404.7,51h7.52v1.56h-2.87v7h-1.77v-7H404.7Z"/>
          <path d="M413.72,54.53h-1.3v-1.4h1.3V51.51l1.68-.38v2h1.8v1.4h-1.8v2.82c0,.6.23.82.88.82a2.84,2.84,0,0,0,.89-.14v1.36a5.25,5.25,0,0,1-1.3.2c-1.41,0-2.15-.65-2.15-1.89Z"/>
          <path d="M424.25,59.61a3.55,3.55,0,0,1-3.79-3.82V51h1.78v4.84a2,2,0,1,0,4,0V51H428v4.84A3.56,3.56,0,0,1,424.25,59.61Z"/>
          <path d="M431,56.83a1.25,1.25,0,0,0,1.32,1.34,1.53,1.53,0,0,0,1.32-.63V53.13h1.67v6.36H433.6V59a2.73,2.73,0,0,1-1.79.63,2.43,2.43,0,0,1-2.52-2.54V53.13H431Z"/>
          <path d="M438.33,51h1.91l2.62,6.75L445.53,51h1.83l-3.51,8.54h-2.06Z"/>
          <path d="M447.07,53.13h1.82l1.74,4.24,1.74-4.24h1.78l-2.73,6.36H449.8Z"/>
          <path d="M458.82,59.49,456.92,51h1.82l1.16,5.79L461.57,51h1.66l1.66,5.77L466.05,51h1.76l-1.89,8.54h-1.86l-1.69-6-1.7,6Z"/>
          <path d="M469.76,59.49,468,53.13h1.59l1,4.11,1.27-4.11h1.4l1.26,4.11,1.05-4.11h1.56l-1.76,6.36h-1.6l-1.23-4.06-1.23,4.06Z"/>
          <path d="M479.73,59.49,483,55.07,479.9,51H482l2,2.8,2-2.8h2l-3,4.12,3.3,4.42h-2.11L484,56.38l-2.23,3.11Z"/>
          <path d="M491,56.26l-2.38-3.13h1.94L491.93,55l1.39-1.89h1.88l-2.34,3.1,2.49,3.26h-2l-1.5-2-1.5,2h-1.87Z"/>
          <path d="M501.2,56.22,497.7,51h2l2.4,3.71,2.4-3.71h1.93L503,56.23v3.26H501.2Z"/>
          <path d="M508,59.55l-2.47-6.42h1.84L509,57.46l1.81-4.33h1.81L509.66,60c-.66,1.54-1.43,2.13-2.82,2.13a3,3,0,0,1-.75-.08V60.6a2.44,2.44,0,0,0,.59,0,1.28,1.28,0,0,0,1.26-.87Z"/>
          <path d="M515.3,58.28l4.71-5.8h-4.68V51h7v1.2L517.61,58h4.76v1.54H515.3Z"/>
          <path d="M523,58.31l3.2-3.78h-3.18v-1.4h5.32v1.18l-3.22,3.78h3.3v1.4H523Z"/>
        </g>
      </g>
      <g id="f0d2a4cd-60f8-4d98-8366-adf2844619e6" data-name="Red Hat Display Bold Aa Bb Cc Dd Ee Ff Gg Hh Ii Jj Kk Ll Mm Nn Oo Pp Qq Rr Ss Tt Uu Vv Ww Xx Yy Zz" class="aae4fea7-970d-4938-8082-9d044206977a">
        <g class="aae4fea7-970d-4938-8082-9d044206977a">
          <path d="M315.9,113.84h3.81a2.39,2.39,0,0,1,2.62,2.38A2.88,2.88,0,0,1,320.1,119l1.28,3.42h-1.83l-1.14-3.3h-1.9l-.7,3.3h-1.73Zm1.4,1.53-.47,2.28h2.29a1.32,1.32,0,0,0,1.44-1.27c0-.62-.45-1-1.16-1Z"/>
          <path d="M325.63,122.52a3,3,0,0,1-3.22-3,3.52,3.52,0,0,1,3.44-3.55,2.87,2.87,0,0,1,2.88,3.06,6.27,6.27,0,0,1-.06.77H324a1.66,1.66,0,0,0,1.72,1.37,2.13,2.13,0,0,0,1.38-.47l.92,1.07A3.92,3.92,0,0,1,325.63,122.52Zm-1.49-3.94h3.05a1.43,1.43,0,0,0-1.42-1.26A1.77,1.77,0,0,0,324.14,118.58Z"/>
          <path d="M333.84,122.07a3,3,0,0,1-1.49.4,2.84,2.84,0,0,1-2.84-2.94,3.56,3.56,0,0,1,3.54-3.59,2.89,2.89,0,0,1,1.92.66l.59-2.76,1.72-.37-1.89,8.92h-1.63Zm-1-1a2.1,2.1,0,0,0,1.34-.49l.54-2.53a2,2,0,0,0-1.55-.67,2,2,0,0,0-2,2A1.62,1.62,0,0,0,332.79,121.06Z"/>
          <path d="M341.06,113.84h1.74l-.73,3.43h3.85l.74-3.43h1.72l-1.82,8.55h-1.72l.74-3.5h-3.86l-.74,3.5h-1.74Z"/>
          <path d="M348,120.69c0-1.29,1-2.1,2.67-2.1a4.92,4.92,0,0,1,1.73.32l.08-.32c.18-.87-.26-1.29-1.3-1.29a5.24,5.24,0,0,0-1.79.41l-.4-1.26a7.14,7.14,0,0,1,2.55-.53c1.94,0,2.89,1,2.55,2.65l-.81,3.82h-1.61l.09-.4a3,3,0,0,1-1.6.47C348.82,122.46,348,121.76,348,120.69Zm2.72.58a2.33,2.33,0,0,0,1.26-.35l.2-1a3.48,3.48,0,0,0-1.39-.28c-.77,0-1.24.33-1.24.85S350,121.27,350.71,121.27Z"/>
          <path d="M356.17,117.43h-1.28l.29-1.4h1.28l.34-1.63,1.72-.38-.42,2h1.77l-.3,1.4H357.8l-.59,2.78c-.14.62.09.87.79.87a2.74,2.74,0,0,0,.78-.1l-.29,1.36a5.79,5.79,0,0,1-1.16.13c-1.43,0-2.08-.71-1.81-2Z"/>
          <path d="M363.73,113.84h2.79a3.76,3.76,0,0,1,4,3.81,4.89,4.89,0,0,1-4.94,4.74h-3.63Zm1.4,1.57-1.16,5.4h1.72a3,3,0,0,0,3-3,2.26,2.26,0,0,0-2.34-2.36Z"/>
          <path d="M372.28,122.39h-1.63L372,116h1.64Zm0-8a1.07,1.07,0,0,1,1.05-1.07.83.83,0,0,1,.83.83,1.09,1.09,0,0,1-1.05,1.08A.82.82,0,0,1,372.24,114.43Z"/>
          <path d="M374.31,120.37a3.18,3.18,0,0,0,2.09.88c.67,0,1.12-.28,1.12-.7s-.23-.46-.69-.57l-1.17-.26c-1.05-.23-1.62-.83-1.62-1.72,0-1.28,1-2.07,2.53-2.07a4.21,4.21,0,0,1,2.75,1l-.92,1a3.3,3.3,0,0,0-1.94-.75c-.59,0-.95.25-.95.64s.21.47.76.6l1.15.25c1.08.23,1.66.84,1.66,1.7,0,1.23-1.15,2.16-2.69,2.16a4.49,4.49,0,0,1-3-1.09Z"/>
          <path d="M380.84,116h1.63l-.06.31a2.85,2.85,0,0,1,4.31,2.54,3.56,3.56,0,0,1-3.54,3.59,2.76,2.76,0,0,1-1.91-.69l-.68,3.16H379Zm1.27,1.8-.53,2.5a1.87,1.87,0,0,0,1.53.71,2,2,0,0,0,2-2,1.62,1.62,0,0,0-1.66-1.67A2.13,2.13,0,0,0,382.11,117.83Z"/>
          <path d="M388.7,122.39h-1.64l1.82-8.55,1.71-.37Z"/>
          <path d="M390.12,120.69c0-1.29,1-2.1,2.68-2.1a4.92,4.92,0,0,1,1.73.32l.07-.32c.19-.87-.25-1.29-1.29-1.29a5.24,5.24,0,0,0-1.79.41l-.41-1.26a7.14,7.14,0,0,1,2.55-.53c1.94,0,2.9,1,2.55,2.65l-.8,3.82H393.8l.08-.4a2.92,2.92,0,0,1-1.6.47C391,122.46,390.12,121.76,390.12,120.69Zm2.73.58a2.29,2.29,0,0,0,1.25-.35l.21-1a3.48,3.48,0,0,0-1.39-.28c-.77,0-1.25.33-1.25.85S392.11,121.27,392.85,121.27Z"/>
          <path d="M398.28,122.37l-1.1-6.34h1.75l.66,4.48,2.73-4.48h1.8l-4.49,7.11a3.15,3.15,0,0,1-2.84,1.83,4.07,4.07,0,0,1-1-.12l.29-1.43a2.08,2.08,0,0,0,.6.08,1.52,1.52,0,0,0,1.35-.81Z"/>
          <path d="M411.44,113.84c1.55,0,2.55.81,2.55,2a2.5,2.5,0,0,1-1.38,2.17,1.85,1.85,0,0,1,1,1.61c0,1.57-1.4,2.73-3.26,2.73H406l1.82-8.55Zm.4,5.81c0-.58-.44-.94-1.17-.94h-2.21l-.46,2.21h2.37A1.32,1.32,0,0,0,411.84,119.65Zm-2.66-4.34-.42,2h2.11a1.23,1.23,0,0,0,1.35-1.16c0-.53-.4-.86-1.06-.86Z"/>
          <path d="M418.06,115.9a3,3,0,0,1,3.12,3.06,3.6,3.6,0,0,1-3.55,3.55,3,3,0,0,1-3.12-3.07A3.57,3.57,0,0,1,418.06,115.9Zm1.51,3.13a1.58,1.58,0,0,0-1.6-1.67,1.94,1.94,0,0,0-1.85,2,1.59,1.59,0,0,0,1.58,1.69A2,2,0,0,0,419.57,119Z"/>
          <path d="M423.16,122.39h-1.63l1.82-8.55,1.71-.37Z"/>
          <path d="M429.17,122.07a2.92,2.92,0,0,1-1.49.4,2.83,2.83,0,0,1-2.83-2.94,3.56,3.56,0,0,1,3.54-3.59,2.86,2.86,0,0,1,1.91.66l.59-2.76,1.72-.37-1.89,8.92H429.1Zm-1.05-1a2.1,2.1,0,0,0,1.34-.49L430,118a2,2,0,0,0-3.54,1.34A1.62,1.62,0,0,0,428.12,121.06Z"/>
        </g>
        <g class="aae4fea7-970d-4938-8082-9d044206977a">
          <path d="M317.46,143.14h2.05l3.47,8.55h-1.92l-.86-2.25h-3.53l-.88,2.25H314Zm2.2,4.89-1.21-3.15L317.22,148Z"/>
          <path d="M323.29,149.84c0-1.2,1-1.92,2.61-1.92a5.12,5.12,0,0,1,1.55.24v-.45c0-.73-.45-1.11-1.34-1.11a4.94,4.94,0,0,0-1.94.52l-.61-1.23a6.65,6.65,0,0,1,2.83-.68c1.72,0,2.71.85,2.71,2.35v4.13h-1.65v-.44a3,3,0,0,1-1.84.55A2.06,2.06,0,0,1,323.29,149.84Zm2.76.76a2.38,2.38,0,0,0,1.4-.4v-.95a3.67,3.67,0,0,0-1.34-.24c-.77,0-1.22.31-1.22.8S325.34,150.6,326.05,150.6Z"/>
          <path d="M337,143.14c1.72,0,2.89,1,2.89,2.35a2.1,2.1,0,0,1-1,1.79,2.15,2.15,0,0,1,1.34,1.93c0,1.49-1.19,2.48-3,2.48h-4.21v-8.55Zm-2.25,1.47v2h2.14c.76,0,1.24-.39,1.24-1s-.48-1-1.24-1Zm3.65,4.5c0-.66-.52-1.1-1.34-1.1H334.7v2.21H337C337.83,150.22,338.35,149.8,338.35,149.11Z"/>
          <path d="M344.67,151.77a3.24,3.24,0,0,1-1.76-.51v.43h-1.65v-8.55l1.67-.36v3.05a3,3,0,0,1,1.78-.59,3.27,3.27,0,0,1,0,6.53Zm-1.74-4.5v2.5a2.15,2.15,0,0,0,1.52.59,1.85,1.85,0,1,0,0-3.69A2.07,2.07,0,0,0,342.93,147.27Z"/>
          <path d="M358.11,149.09l1.16,1.15a4.71,4.71,0,0,1-3.51,1.57,4.4,4.4,0,1,1,0-8.8,4.7,4.7,0,0,1,3.56,1.6l-1.2,1.18a3,3,0,0,0-2.36-1.16,2.77,2.77,0,0,0,.05,5.54A2.92,2.92,0,0,0,358.11,149.09Z"/>
          <path d="M364.58,149.64l1,1a3.5,3.5,0,0,1-2.59,1.14,3.3,3.3,0,1,1,0-6.6,3.57,3.57,0,0,1,2.64,1.13l-1,1.09a2,2,0,0,0-1.57-.77,1.85,1.85,0,0,0,0,3.69A2,2,0,0,0,364.58,149.64Z"/>
          <path d="M369,143.14h3.29a4.28,4.28,0,1,1,0,8.55H369Zm1.77,1.58v5.39h1.5a2.7,2.7,0,1,0,0-5.39Z"/>
          <path d="M382.66,151.16a2.82,2.82,0,0,1-1.8.61,3.27,3.27,0,0,1,.05-6.53,3.15,3.15,0,0,1,1.73.5v-2.6l1.67-.36v8.91h-1.65Zm-1.54-.81a2,2,0,0,0,1.52-.61v-2.48a2.11,2.11,0,0,0-1.52-.6,1.8,1.8,0,0,0-1.85,1.84A1.82,1.82,0,0,0,381.12,150.35Z"/>
          <path d="M388.19,143.14h6.57v1.54H390v1.95h3.17v1.49H390v2h4.85v1.54h-6.62Z"/>
          <path d="M398.73,151.81a3.31,3.31,0,0,1-3.42-3.3,3.24,3.24,0,0,1,3.27-3.29,3.21,3.21,0,0,1,3.15,3.42v.44H397a1.83,1.83,0,0,0,1.8,1.33,2,2,0,0,0,1.41-.52l1.1,1A3.85,3.85,0,0,1,398.73,151.81ZM397,147.88h3.11a1.64,1.64,0,0,0-1.55-1.28A1.59,1.59,0,0,0,397,147.88Z"/>
          <path d="M405.32,143.14h6.61v1.54h-4.84v2h3.22v1.48h-3.22v3.51h-1.77Z"/>
          <path d="M413.75,145.33v-.61c0-1.43.85-2.21,2.42-2.21a4.28,4.28,0,0,1,1,.11V144a3.88,3.88,0,0,0-.79-.1c-.63,0-.95.27-.95.83v.58h1.74v1.4h-1.74v5h-1.67v-5h-1.42v-1.4Z"/>
          <path d="M424.8,151.82a4.41,4.41,0,1,1,0-8.81,4.6,4.6,0,0,1,3.56,1.6l-1.24,1.13a2.93,2.93,0,0,0-2.32-1.11,2.68,2.68,0,0,0-2.68,2.79,2.71,2.71,0,0,0,2.73,2.79,2.3,2.3,0,0,0,2.37-1.78h-2.53v-1.54h4.42v.54A4.22,4.22,0,0,1,424.8,151.82Z"/>
          <path d="M429.89,148.47a3.23,3.23,0,0,1,3.27-3.24,3.08,3.08,0,0,1,1.72.51v-.41h1.65v6.36c0,1.68-1.11,2.62-3.15,2.62a5.93,5.93,0,0,1-2.65-.57l.59-1.31a4.57,4.57,0,0,0,2,.52c1,0,1.51-.44,1.51-1.27v-.53a2.87,2.87,0,0,1-1.75.58A3.23,3.23,0,0,1,429.89,148.47Zm3.48,1.84a2.12,2.12,0,0,0,1.49-.57v-2.51a2.16,2.16,0,0,0-1.48-.57,1.83,1.83,0,1,0,0,3.65Z"/>
          <path d="M440.42,143.14h1.77v3.43h3.93v-3.43h1.77v8.55h-1.77V148.2h-3.93v3.49h-1.77Z"/>
          <path d="M449.33,143.14l1.67-.36v3.05a2.75,2.75,0,0,1,1.78-.62,2.41,2.41,0,0,1,2.52,2.52v4h-1.67V148a1.24,1.24,0,0,0-1.32-1.33,1.54,1.54,0,0,0-1.31.63v4.41h-1.67Z"/>
          <path d="M459.13,143.14h1.77v8.55h-1.77Z"/>
          <path d="M462.22,143.62a1,1,0,1,1,.95.95A.95.95,0,0,1,462.22,143.62Zm1.8,8.07h-1.68v-6.36H464Z"/>
          <path d="M470.78,151.81a3.39,3.39,0,0,1-3.45-2.5l1.63-.62c.36,1,.94,1.52,1.83,1.52a1.73,1.73,0,0,0,1.75-1.89v-5.18h1.77v5.23A3.28,3.28,0,0,1,470.78,151.81Z"/>
          <path d="M474.35,154.2v-1.28a2.34,2.34,0,0,0,.55.05c.5,0,.72-.2.72-.65v-7h1.67v7.09a1.8,1.8,0,0,1-2.06,1.89A2.74,2.74,0,0,1,474.35,154.2Zm1.14-10.58a1,1,0,1,1,1,.95A1,1,0,0,1,475.49,143.62Z"/>
          <path d="M481.16,143.14h1.77V147l3.73-3.84h2.17l-4.13,4.07,4.32,4.48h-2.37l-3.72-4v4h-1.77Z"/>
          <path d="M489.56,143.14l1.67-.36V148l2.75-2.68h1.89l-3,2.92,3.16,3.44h-2.13l-2.69-2.91v2.91h-1.67Z"/>
          <path d="M499.06,143.14h1.77v7h4.67v1.56h-6.44Z"/>
          <path d="M508.29,151.69h-1.67v-8.55l1.67-.36Z"/>
          <path d="M513.8,145.4v6.29h-1.64v-8.55h2.27l2.34,4.59,2.35-4.59h2.27v8.55h-1.67v-6.28l-3,5.67Z"/>
          <path d="M522.82,145.33h1.67v.47a2.46,2.46,0,0,1,1.66-.59,2.28,2.28,0,0,1,1.92.95,2.62,2.62,0,0,1,2.1-.95,2.37,2.37,0,0,1,2.43,2.52v4h-1.68V148a1.18,1.18,0,0,0-1.19-1.33,1.44,1.44,0,0,0-1.22.63,3.29,3.29,0,0,1,0,.45v4h-1.67V148a1.18,1.18,0,0,0-1.19-1.33,1.42,1.42,0,0,0-1.19.57v4.47h-1.67Z"/>
          <path d="M538.13,143.14l4.25,5.53v-5.53H544v8.55h-1.56L538.12,146v5.71h-1.67v-8.55Z"/>
          <path d="M545.48,145.33h1.67v.5a2.76,2.76,0,0,1,1.79-.62,2.41,2.41,0,0,1,2.51,2.52v4h-1.67V148a1.24,1.24,0,0,0-1.32-1.33,1.55,1.55,0,0,0-1.31.63v4.41h-1.67Z"/>
        </g>
        <g class="aae4fea7-970d-4938-8082-9d044206977a">
          <path d="M319,166.47a4.41,4.41,0,1,1,4.53-4.4A4.41,4.41,0,0,1,319,166.47Zm0-7.19a2.79,2.79,0,1,0,2.71,2.79A2.7,2.7,0,0,0,319,159.28Z"/>
          <path d="M327.68,159.86a3.3,3.3,0,1,1-3.39,3.31A3.32,3.32,0,0,1,327.68,159.86Zm1.76,3.31a1.76,1.76,0,1,0-1.76,1.84A1.79,1.79,0,0,0,329.44,163.17Z"/>
          <path d="M334.67,157.79H339a2.67,2.67,0,1,1,0,5.33h-2.51v3.22h-1.77Zm1.77,1.53v2.33h2.32a1.17,1.17,0,1,0,0-2.33Z"/>
          <path d="M342.87,160h1.65v.52a2.91,2.91,0,0,1,1.81-.61,3.27,3.27,0,0,1-.05,6.54,3.19,3.19,0,0,1-1.74-.51v3h-1.67Zm1.67,1.94v2.5a2.15,2.15,0,0,0,1.52.59,1.85,1.85,0,1,0,0-3.69A2.07,2.07,0,0,0,344.54,161.92Z"/>
          <path d="M360.56,165.18l.86,1.06-1.55.51-.57-.7a4.53,4.53,0,0,1-2,.42,4.41,4.41,0,1,1,4.53-4.4A4.27,4.27,0,0,1,360.56,165.18Zm-1.08-1.37a2.88,2.88,0,0,0,.57-1.74,2.71,2.71,0,1,0-2.71,2.78,2.5,2.5,0,0,0,.88-.15l-.94-1.17,1.55-.51Z"/>
          <path d="M362.68,163.15a3.23,3.23,0,0,1,3.28-3.26,3.16,3.16,0,0,1,1.76.52V160h1.65v8.91h-1.68v-3a2.93,2.93,0,0,1-1.78.59A3.23,3.23,0,0,1,362.68,163.15Zm3.5,1.85a2,2,0,0,0,1.51-.61v-2.48a2.07,2.07,0,0,0-1.51-.6,1.81,1.81,0,0,0-1.86,1.84A1.83,1.83,0,0,0,366.18,165Z"/>
          <path d="M373.25,157.79h4.17a2.7,2.7,0,0,1,3,2.65,2.53,2.53,0,0,1-1.67,2.38l1.89,3.52h-2L377,163.07H375v3.27h-1.77Zm1.77,1.53v2.3h2.25a1.16,1.16,0,1,0,0-2.3Z"/>
          <path d="M381.43,160h1.67v.7a2,2,0,0,1,1.7-.85,1.47,1.47,0,0,1,.69.15v1.47a1.93,1.93,0,0,0-.85-.18,1.68,1.68,0,0,0-1.54,1v4.11h-1.67Z"/>
          <path d="M389.24,163.71a4.23,4.23,0,0,0,2.9,1.25c1.06,0,1.74-.42,1.74-1.07s-.39-.88-1.4-1l-1.7-.3c-1.46-.24-2.23-1-2.23-2.28,0-1.6,1.29-2.59,3.37-2.59a5.94,5.94,0,0,1,3.53,1.2l-1,1.32a4.32,4.32,0,0,0-2.69-1c-1,0-1.57.38-1.57,1s.34.79,1.22.92l1.62.27c1.7.28,2.55,1.09,2.55,2.41,0,1.67-1.41,2.73-3.6,2.73a5.69,5.69,0,0,1-3.79-1.48Z"/>
          <path d="M397,164.47a3.67,3.67,0,0,0,2.06.72c.74,0,1.23-.27,1.23-.67s-.24-.51-.79-.6l-1.22-.18c-1.26-.2-1.93-.82-1.93-1.84,0-1.24,1-2,2.65-2a4.66,4.66,0,0,1,2.61.8l-.81,1.07a3.67,3.67,0,0,0-2-.61c-.61,0-1,.24-1,.62s.24.52.86.6l1.22.18c1.25.19,1.95.83,1.95,1.82,0,1.2-1.19,2.1-2.79,2.1a4.63,4.63,0,0,1-2.91-.88Z"/>
          <path d="M404.7,157.79h7.52v1.57h-2.87v7h-1.77v-7H404.7Z"/>
          <path d="M413.72,161.38h-1.3V160h1.3v-1.62l1.68-.38v2h1.8v1.4h-1.8v2.82c0,.6.23.82.88.82a2.6,2.6,0,0,0,.89-.15v1.37a5.25,5.25,0,0,1-1.3.2c-1.41,0-2.15-.65-2.15-1.9Z"/>
          <path d="M424.25,166.46a3.55,3.55,0,0,1-3.79-3.82v-4.85h1.78v4.85a2,2,0,1,0,4,0v-4.85H428v4.85A3.56,3.56,0,0,1,424.25,166.46Z"/>
          <path d="M431,163.68a1.25,1.25,0,0,0,1.32,1.34,1.53,1.53,0,0,0,1.32-.63V160h1.67v6.36H433.6v-.51a2.73,2.73,0,0,1-1.79.63,2.43,2.43,0,0,1-2.52-2.54V160H431Z"/>
          <path d="M438.33,157.79h1.91l2.62,6.75,2.67-6.75h1.83l-3.51,8.55h-2.06Z"/>
          <path d="M447.07,160h1.82l1.74,4.24,1.74-4.24h1.78l-2.73,6.36H449.8Z"/>
          <path d="M458.82,166.34l-1.9-8.55h1.82l1.16,5.8,1.67-5.8h1.66l1.66,5.78,1.16-5.78h1.76l-1.89,8.55h-1.86l-1.69-6-1.7,6Z"/>
          <path d="M469.76,166.34,468,160h1.59l1,4.11,1.27-4.11h1.4l1.26,4.11,1.05-4.11h1.56l-1.76,6.36h-1.6l-1.23-4.06-1.23,4.06Z"/>
          <path d="M479.73,166.34l3.25-4.42-3.08-4.13H482l2,2.81,2-2.81h2l-3,4.13,3.3,4.42h-2.11L484,163.23l-2.23,3.11Z"/>
          <path d="M491,163.11,488.58,160h1.94l1.41,1.89,1.39-1.89h1.88l-2.34,3.1,2.49,3.26h-2l-1.5-2-1.5,2h-1.87Z"/>
          <path d="M501.2,163.07l-3.5-5.28h2l2.4,3.72,2.4-3.72h1.93l-3.5,5.29v3.26H501.2Z"/>
          <path d="M508,166.4,505.56,160h1.84l1.57,4.33,1.81-4.33h1.81l-2.93,6.86c-.66,1.54-1.43,2.12-2.82,2.12a3,3,0,0,1-.75-.07v-1.44a2.44,2.44,0,0,0,.59.05,1.28,1.28,0,0,0,1.26-.87Z"/>
          <path d="M515.3,165.13l4.71-5.8h-4.68v-1.54h7V159l-4.71,5.8h4.76v1.54H515.3Z"/>
          <path d="M523,165.16l3.2-3.78h-3.18V160h5.32v1.18l-3.22,3.78h3.3v1.4H523Z"/>
        </g>
      </g>
      <g id="a749024e-4edb-426e-9707-c792bc3606c0" data-name="Red Hat Display Medium Aa Bb Cc Dd Ee Ff Gg Hh Ii Jj Kk Ll Mm Nn Oo Pp Qq Rr Ss Tt Uu Vv Ww Xx Yy Zz" class="aae4fea7-970d-4938-8082-9d044206977a">
        <g class="aae4fea7-970d-4938-8082-9d044206977a">
          <path d="M316,220.38h3.55a2.23,2.23,0,0,1,2.5,2.24,2.78,2.78,0,0,1-2.29,2.71l1.23,3.6h-1.32l-1.16-3.52h-2.34l-.75,3.52h-1.24Zm1,1.13-.6,2.84h2.55a1.67,1.67,0,0,0,1.83-1.62c0-.76-.55-1.22-1.44-1.22Z"/>
          <path d="M325.16,229.05a2.9,2.9,0,0,1-3.06-2.94,3.42,3.42,0,0,1,3.31-3.49,2.75,2.75,0,0,1,2.71,2.95,4.23,4.23,0,0,1,0,.63h-4.81a1.91,1.91,0,0,0,2,1.81,2.55,2.55,0,0,0,1.54-.49l.64.81A3.73,3.73,0,0,1,325.16,229.05Zm-1.79-3.75H327a1.69,1.69,0,0,0-1.67-1.65A2.12,2.12,0,0,0,323.37,225.3Z"/>
          <path d="M333.36,228.55a2.93,2.93,0,0,1-1.62.48,2.75,2.75,0,0,1-2.74-2.87,3.48,3.48,0,0,1,3.43-3.53,2.85,2.85,0,0,1,2,.77l.64-3,1.24-.27-1.87,8.82h-1.18ZM332,228a2.32,2.32,0,0,0,1.55-.59l.61-2.87a2.05,2.05,0,0,0-1.72-.84,2.34,2.34,0,0,0-2.31,2.38A1.83,1.83,0,0,0,332,228Z"/>
          <path d="M340.4,220.38h1.25l-.78,3.66h4.45l.78-3.66h1.26l-1.82,8.55h-1.26l.8-3.73h-4.46l-.79,3.73h-1.25Z"/>
          <path d="M347.09,227.28c0-1.25,1-2,2.57-2a4.25,4.25,0,0,1,1.87.43l.12-.55c.2-1-.26-1.5-1.39-1.5a4.75,4.75,0,0,0-1.81.44l-.32-.93a6.13,6.13,0,0,1,2.36-.53c1.78,0,2.66.93,2.33,2.48l-.82,3.85h-1.17l.1-.45a3,3,0,0,1-1.71.53C347.92,229,347.09,228.33,347.09,227.28Zm2.48.83a2.6,2.6,0,0,0,1.54-.5l.23-1.08a2.85,2.85,0,0,0-1.63-.46c-.88,0-1.48.45-1.48,1.1S348.73,228.11,349.57,228.11Z"/>
          <path d="M355,223.74h-1.3l.22-1h1.28l.34-1.58,1.26-.3-.4,1.88h1.78l-.22,1h-1.78l-.71,3.32c-.15.67.1.94.86.94a3.08,3.08,0,0,0,.74-.11l-.22,1a4,4,0,0,1-1,.13c-1.27,0-1.84-.63-1.61-1.74Z"/>
          <path d="M362.28,220.38h2.57a3.67,3.67,0,0,1,3.91,3.79,4.89,4.89,0,0,1-5,4.76h-3.34Zm1,1.15L362,227.78h2a3.53,3.53,0,0,0,3.53-3.54,2.58,2.58,0,0,0-2.71-2.71Z"/>
          <path d="M370.29,228.93h-1.18l1.32-6.22h1.18Zm.36-7.89a.86.86,0,0,1,.83-.84.66.66,0,0,1,.66.67.86.86,0,0,1-.83.84A.65.65,0,0,1,370.65,221Z"/>
          <path d="M372.22,227.18a2.84,2.84,0,0,0,2,.92c.81,0,1.38-.39,1.38-.94,0-.39-.27-.61-.87-.75l-1.07-.24c-1-.23-1.55-.77-1.55-1.61,0-1.19.93-1.94,2.36-1.94a3.89,3.89,0,0,1,2.57,1l-.69.77a3.07,3.07,0,0,0-2-.79c-.73,0-1.2.34-1.2.88,0,.37.24.59.89.74l1.07.24c1.06.24,1.59.77,1.59,1.6a2.27,2.27,0,0,1-2.54,2,3.82,3.82,0,0,1-2.76-1.11Z"/>
          <path d="M378.63,222.71h1.19l-.09.38a3,3,0,0,1,1.6-.46,2.75,2.75,0,0,1,2.76,2.86,3.49,3.49,0,0,1-3.44,3.54,2.78,2.78,0,0,1-2-.81l-.68,3.23h-1.18Zm.86,1.55-.6,2.84a2,2,0,0,0,1.72.86,2.32,2.32,0,0,0,2.31-2.36,1.83,1.83,0,0,0-1.87-1.92A2.35,2.35,0,0,0,379.49,224.26Z"/>
          <path d="M385.76,228.93h-1.18l1.82-8.55,1.24-.27Z"/>
          <path d="M387.3,227.28c0-1.25,1-2,2.56-2a4.19,4.19,0,0,1,1.87.43l.12-.55c.21-1-.25-1.5-1.39-1.5a4.7,4.7,0,0,0-1.8.44l-.32-.93a6.12,6.12,0,0,1,2.35-.53c1.79,0,2.67.93,2.34,2.48l-.82,3.85H391l.09-.45a2.93,2.93,0,0,1-1.71.53C388.13,229,387.3,228.33,387.3,227.28Zm2.48.83a2.62,2.62,0,0,0,1.54-.5l.23-1.08a2.86,2.86,0,0,0-1.64-.46c-.88,0-1.47.45-1.47,1.1S388.94,228.11,389.78,228.11Z"/>
          <path d="M395.13,228.93,394,222.71h1.27l.79,4.83,3-4.83h1.31l-4.48,7.12a2.81,2.81,0,0,1-2.49,1.66,3.27,3.27,0,0,1-.79-.11l.23-1.06a1.75,1.75,0,0,0,.55.07,1.61,1.61,0,0,0,1.36-.85Z"/>
          <path d="M405.14,222l-1.48,7h-1.18l1.82-8.55h1.62l1.48,5.47,3.77-5.47h1.72l-1.82,8.55h-1.16l1.47-7-4.46,6.34Z"/>
          <path d="M416.07,229.05a2.9,2.9,0,0,1-3.07-2.94,3.42,3.42,0,0,1,3.31-3.49,2.75,2.75,0,0,1,2.71,2.95,4.23,4.23,0,0,1,0,.63h-4.81a1.91,1.91,0,0,0,2,1.81,2.55,2.55,0,0,0,1.54-.49l.64.81A3.72,3.72,0,0,1,416.07,229.05Zm-1.8-3.75h3.63a1.71,1.71,0,0,0-1.67-1.65A2.12,2.12,0,0,0,414.27,225.3Z"/>
          <path d="M424.26,228.55a2.92,2.92,0,0,1-1.61.48,2.75,2.75,0,0,1-2.75-2.87,3.48,3.48,0,0,1,3.43-3.53,2.9,2.9,0,0,1,2,.77l.63-3,1.25-.27-1.87,8.82h-1.19Zm-1.32-.57a2.3,2.3,0,0,0,1.55-.59l.61-2.87a2.05,2.05,0,0,0-1.72-.84,2.34,2.34,0,0,0-2.31,2.38A1.83,1.83,0,0,0,422.94,228Z"/>
          <path d="M428,228.93H426.8l1.32-6.22h1.18Zm.36-7.89a.86.86,0,0,1,.83-.84.66.66,0,0,1,.66.67.86.86,0,0,1-.83.84A.65.65,0,0,1,428.34,221Z"/>
          <path d="M431.11,226.32c-.22,1,.28,1.67,1.24,1.67a2.06,2.06,0,0,0,1.58-.75l1-4.53h1.2l-1.32,6.22h-1.2l.12-.54a2.79,2.79,0,0,1-1.8.65,2,2,0,0,1-2-2.6l.79-3.73h1.2Z"/>
          <path d="M437.53,222.71h1.19l-.13.58a2.59,2.59,0,0,1,1.73-.69,1.81,1.81,0,0,1,1.75,1.1,2.9,2.9,0,0,1,2.21-1.1,1.89,1.89,0,0,1,1.85,2.53l-.81,3.8h-1.18l.78-3.7c.19-.93-.26-1.58-1.1-1.58a2.09,2.09,0,0,0-1.59.87,2.73,2.73,0,0,1-.06.61l-.8,3.8h-1.2l.77-3.64c.22-1-.22-1.64-1.09-1.64a2,2,0,0,0-1.5.77l-1,4.51h-1.19Z"/>
        </g>
        <g class="aae4fea7-970d-4938-8082-9d044206977a">
          <path d="M317.48,249.69H319l3.49,8.54h-1.4l-1-2.5h-3.82l-1,2.5h-1.33Zm2.2,5-1.49-3.75-1.49,3.75Z"/>
          <path d="M322.89,256.45c0-1.17,1-1.89,2.52-1.89a4.41,4.41,0,0,1,1.7.34v-.66c0-.88-.53-1.32-1.52-1.32a4.4,4.4,0,0,0-1.93.53l-.45-.92a5.81,5.81,0,0,1,2.55-.64c1.61,0,2.54.8,2.54,2.23v4.11h-1.19v-.54a3,3,0,0,1-1.93.65C323.82,258.34,322.89,257.57,322.89,256.45Zm2.57,1a2.4,2.4,0,0,0,1.65-.59v-1.07a3.21,3.21,0,0,0-1.6-.38c-.89,0-1.44.4-1.44,1S324.63,257.44,325.46,257.44Z"/>
          <path d="M336.1,249.69c1.68,0,2.77.89,2.77,2.25a2,2,0,0,1-1.18,1.85,2.13,2.13,0,0,1,1.51,2c0,1.47-1.16,2.43-2.94,2.43h-3.85v-8.54Zm-2.41,1.08v2.54H336c1,0,1.58-.49,1.58-1.27s-.62-1.27-1.58-1.27Zm4.22,5c0-.84-.68-1.4-1.75-1.4h-2.47v2.8h2.47C337.23,257.14,337.91,256.59,337.91,255.74Z"/>
          <path d="M343.54,258.33a3.06,3.06,0,0,1-1.88-.63v.53h-1.21v-8.54l1.22-.27v3.18a2.86,2.86,0,0,1,1.89-.68,3.21,3.21,0,0,1,0,6.41Zm-1.87-4.6v2.8a2.29,2.29,0,0,0,1.74.74,2.15,2.15,0,0,0,0-4.29A2.23,2.23,0,0,0,341.67,253.73Z"/>
          <path d="M357.25,256l.84.86a4.72,4.72,0,0,1-3.42,1.48,4.41,4.41,0,1,1,0-8.82,4.63,4.63,0,0,1,3.45,1.48l-.86.88a3.37,3.37,0,0,0-2.59-1.17,3.22,3.22,0,0,0,0,6.44A3.29,3.29,0,0,0,357.25,256Z"/>
          <path d="M363.6,256.51l.73.79a3.41,3.41,0,0,1-2.45,1,3.23,3.23,0,0,1,0-6.45,3.53,3.53,0,0,1,2.5,1l-.77.83a2.3,2.3,0,0,0-1.71-.78,2.15,2.15,0,0,0,0,4.29A2.28,2.28,0,0,0,363.6,256.51Z"/>
          <path d="M368,249.69h3a4.28,4.28,0,1,1,0,8.54h-3Zm1.28,1.14v6.25h1.76a3.13,3.13,0,1,0,0-6.25Z"/>
          <path d="M381.52,257.64a2.92,2.92,0,0,1-1.9.69,3.21,3.21,0,1,1,1.89-5.8v-2.84l1.22-.27v8.81h-1.21Zm-1.73-.37a2.21,2.21,0,0,0,1.72-.75V253.7a2.28,2.28,0,0,0-1.72-.73,2.07,2.07,0,0,0-2.11,2.14A2.1,2.1,0,0,0,379.79,257.27Z"/>
          <path d="M386.87,249.69h6.3v1.12h-5v2.56h3.29v1.1h-3.29v2.64h5.06v1.12h-6.35Z"/>
          <path d="M397,258.34a3.2,3.2,0,0,1-3.26-3.22,3.12,3.12,0,0,1,3.12-3.2,3.08,3.08,0,0,1,3,3.25v.35H395a2.09,2.09,0,0,0,2.1,1.78,2.39,2.39,0,0,0,1.58-.55l.78.77A3.73,3.73,0,0,1,397,258.34Zm-2-3.73h3.69a1.86,1.86,0,0,0-3.69,0Z"/>
          <path d="M403.76,249.69h6.31v1.12h-5v2.62h3.32v1.1H405v3.7h-1.28Z"/>
          <path d="M411.87,252v-.94a1.85,1.85,0,0,1,2.11-2,3,3,0,0,1,.88.12v1.06a2.32,2.32,0,0,0-.77-.11c-.67,0-1,.3-1,1V252h1.77v1h-1.77v5.19h-1.22V253h-1.44v-1Z"/>
          <path d="M422.57,258.37a4.41,4.41,0,1,1,0-8.82A4.59,4.59,0,0,1,426,251l-.87.85a3.41,3.41,0,0,0-2.57-1.14,3.23,3.23,0,0,0,0,6.45,2.77,2.77,0,0,0,2.85-2.44H422.6v-1.12h4.19v.44A4.18,4.18,0,0,1,422.57,258.37Z"/>
          <path d="M427.7,255.09a3.13,3.13,0,0,1,3.15-3.18,3.1,3.1,0,0,1,1.85.62V252h1.21v6.3c0,1.61-1,2.51-2.85,2.51a5.28,5.28,0,0,1-2.5-.61l.47-1a4.3,4.3,0,0,0,2,.53c1.09,0,1.66-.51,1.66-1.48v-.7a2.89,2.89,0,0,1-1.85.66A3.14,3.14,0,0,1,427.7,255.09Zm3.28,2.13a2.2,2.2,0,0,0,1.7-.72v-2.81A2.23,2.23,0,0,0,431,253a2.13,2.13,0,0,0,0,4.25Z"/>
          <path d="M438.05,249.69h1.28v3.66h4.54v-3.66h1.28v8.54h-1.28v-3.72h-4.54v3.72h-1.28Z"/>
          <path d="M446.75,249.69l1.22-.27v3.22a2.56,2.56,0,0,1,1.87-.75,2.32,2.32,0,0,1,2.43,2.43v3.91h-1.22v-3.7a1.44,1.44,0,0,0-1.54-1.57,1.76,1.76,0,0,0-1.54.8v4.47h-1.22Z"/>
          <path d="M456.37,249.69h1.28v8.54h-1.28Z"/>
          <path d="M459.12,250.26a.75.75,0,0,1,.74-.76.76.76,0,1,1-.74.76Zm1.35,8h-1.22V252h1.22Z"/>
          <path d="M467.2,258.37A3.27,3.27,0,0,1,464,256l1.18-.46a2.12,2.12,0,0,0,2.08,1.61,2,2,0,0,0,2.08-2.24v-5.26h1.28V255A3.18,3.18,0,0,1,467.2,258.37Z"/>
          <path d="M470.76,260.72v-1a1.77,1.77,0,0,0,.48.05c.54,0,.76-.22.76-.75v-7h1.22v7.1a1.58,1.58,0,0,1-1.77,1.69A2.46,2.46,0,0,1,470.76,260.72Zm1.11-10.46a.75.75,0,0,1,.74-.76.76.76,0,1,1-.74.76Z"/>
          <path d="M477.36,249.69h1.28v4l4.14-4h1.61l-4.4,4.12,4.55,4.42h-1.76l-4.14-4.06v4.06h-1.28Z"/>
          <path d="M485.15,249.69l1.22-.27v5.33l3-2.73h1.42l-3.19,2.91,3.37,3.3h-1.62l-3-2.93v2.93h-1.22Z"/>
          <path d="M494.25,249.69h1.28v7.41h4.92v1.13h-6.2Z"/>
          <path d="M502.82,258.23H501.6v-8.54l1.22-.27Z"/>
          <path d="M508.15,251.27v7H507v-8.54h1.71l2.68,5.45,2.68-5.45h1.7v8.54h-1.2v-7l-3.19,6.36Z"/>
          <path d="M517.32,252h1.22v.58a2.41,2.41,0,0,1,1.75-.71,2.17,2.17,0,0,1,1.92,1,2.5,2.5,0,0,1,2.1-1,2.28,2.28,0,0,1,2.33,2.43v3.91h-1.22v-3.7A1.39,1.39,0,0,0,524,253a1.65,1.65,0,0,0-1.45.83,3.08,3.08,0,0,1,0,.53v3.91h-1.2v-3.7A1.39,1.39,0,0,0,520,253a1.64,1.64,0,0,0-1.41.75v4.52h-1.22Z"/>
          <path d="M532,249.69l4.76,6.33v-6.33H538v8.54h-1.12l-4.9-6.54v6.54h-1.21v-8.54Z"/>
          <path d="M539.57,252h1.22v.62a2.56,2.56,0,0,1,1.87-.75,2.32,2.32,0,0,1,2.43,2.43v3.91h-1.22v-3.7a1.44,1.44,0,0,0-1.54-1.57,1.76,1.76,0,0,0-1.54.8v4.47h-1.22Z"/>
        </g>
        <g class="aae4fea7-970d-4938-8082-9d044206977a">
          <path d="M318.88,273a4.41,4.41,0,1,1,4.45-4.41A4.39,4.39,0,0,1,318.88,273Zm0-7.63a3.22,3.22,0,1,0,3.15,3.22A3.13,3.13,0,0,0,318.88,265.39Z"/>
          <path d="M327.51,266.55a3.23,3.23,0,1,1-3.24,3.22A3.18,3.18,0,0,1,327.51,266.55Zm2,3.22a2,2,0,1,0-2,2.16A2.07,2.07,0,0,0,329.53,269.77Z"/>
          <path d="M334.59,264.34h4a2.56,2.56,0,1,1,0,5.1h-2.68v3.44h-1.28Zm1.28,1.12v2.89h2.54a1.46,1.46,0,1,0,0-2.89Z"/>
          <path d="M342.51,266.67h1.21v.6a2.88,2.88,0,0,1,1.91-.7,3.21,3.21,0,1,1-1.89,5.8v3h-1.23Zm1.23,1.71v2.8a2.26,2.26,0,0,0,1.73.74,2.15,2.15,0,0,0,0-4.29A2.21,2.21,0,0,0,343.74,268.38Z"/>
          <path d="M359.79,271.81l.88,1.07-1.2.29-.58-.7a4.62,4.62,0,0,1-2.19.55,4.4,4.4,0,1,1,3.09-1.21Zm-.79-1a3.25,3.25,0,0,0,.85-2.23,3.12,3.12,0,1,0-1.74,2.9L357,270.16l1.2-.29Z"/>
          <path d="M362.1,269.77a3.17,3.17,0,0,1,5-2.59v-.51h1.21v8.74h-1.22v-3.1a2.89,2.89,0,0,1-1.89.67A3.14,3.14,0,0,1,362.1,269.77Zm3.31,2.15a2.24,2.24,0,0,0,1.72-.75v-2.82a2.28,2.28,0,0,0-1.72-.73,2.15,2.15,0,0,0,0,4.3Z"/>
          <path d="M372.49,264.34h3.88a2.56,2.56,0,0,1,2.85,2.52,2.43,2.43,0,0,1-1.76,2.35l1.9,3.67H378l-1.77-3.5h-2.41v3.5h-1.28Zm1.28,1.12v2.86h2.49a1.45,1.45,0,1,0,0-2.86Z"/>
          <path d="M380.39,266.67h1.22v.79a2,2,0,0,1,1.71-.93,1.58,1.58,0,0,1,.62.1v1.1a2.18,2.18,0,0,0-.72-.13,1.7,1.7,0,0,0-1.61,1.13v4.15h-1.22Z"/>
          <path d="M387.63,270.56a4.11,4.11,0,0,0,2.94,1.35c1.24,0,2.08-.59,2.08-1.43s-.49-1.14-1.74-1.35l-1.42-.23c-1.57-.25-2.34-1-2.34-2.22,0-1.49,1.25-2.45,3.15-2.45a5.73,5.73,0,0,1,3.45,1.16l-.71,1a4.59,4.59,0,0,0-2.8-1.05c-1.11,0-1.85.52-1.85,1.27s.42,1,1.52,1.21l1.38.22c1.81.29,2.63,1,2.63,2.37,0,1.57-1.37,2.62-3.41,2.62a5.17,5.17,0,0,1-3.66-1.53Z"/>
          <path d="M395.15,271.27a3.28,3.28,0,0,0,2,.78c.88,0,1.49-.38,1.49-.93s-.32-.69-1-.79l-1.13-.16c-1.23-.18-1.85-.76-1.85-1.72,0-1.12,1-1.88,2.43-1.88a4.31,4.31,0,0,1,2.5.79l-.62.81a3.5,3.5,0,0,0-2-.65c-.74,0-1.24.34-1.24.85s.29.67,1,.78l1.12.16c1.24.18,1.88.76,1.88,1.73s-1.12,1.95-2.6,1.95a4.15,4.15,0,0,1-2.72-.91Z"/>
          <path d="M402.79,264.34h7.29v1.13h-3v7.41H405.8v-7.41h-3Z"/>
          <path d="M411.57,267.69h-1.31v-1h1.31v-1.59l1.21-.29v1.88h1.83v1h-1.83v3.37c0,.64.26.87.92.87a2.41,2.41,0,0,0,.89-.15v1a4,4,0,0,1-1.16.18c-1.21,0-1.86-.57-1.86-1.65Z"/>
          <path d="M421.7,273a3.46,3.46,0,0,1-3.63-3.79v-4.89h1.28v4.89a2.36,2.36,0,1,0,4.7,0v-4.89h1.28v4.89A3.47,3.47,0,0,1,421.7,273Z"/>
          <path d="M428,270.35a1.46,1.46,0,0,0,1.54,1.59,1.72,1.72,0,0,0,1.52-.82v-4.45h1.22v6.21H431v-.62a2.52,2.52,0,0,1-1.86.74,2.32,2.32,0,0,1-2.42-2.44v-3.89H428Z"/>
          <path d="M435.53,264.34h1.38l2.89,7.27,2.94-7.27h1.32l-3.54,8.54H439Z"/>
          <path d="M443.87,266.67h1.34l1.94,4.65,1.94-4.65h1.31l-2.69,6.21h-1.16Z"/>
          <path d="M455.24,272.88l-1.87-8.54h1.32l1.33,6.53,1.93-6.53h1.22l1.93,6.53,1.33-6.53h1.27l-1.87,8.54h-1.32l-2-6.71-2,6.71Z"/>
          <path d="M465.71,272.88,464,266.67h1.18l1.2,4.56,1.43-4.56h1l1.41,4.56,1.21-4.56h1.15l-1.75,6.21h-1.17l-1.39-4.55-1.4,4.55Z"/>
          <path d="M475.32,272.88l3.27-4.42-3.09-4.12h1.56l2.3,3.16,2.3-3.16h1.49l-3.06,4.11,3.31,4.43h-1.53l-2.53-3.47-2.54,3.47Z"/>
          <path d="M486.09,269.7l-2.32-3h1.43l1.6,2.13,1.6-2.13h1.38l-2.3,3,2.46,3.2h-1.45l-1.7-2.29-1.74,2.29h-1.38Z"/>
          <path d="M495.94,269.51l-3.44-5.17H494l2.63,4,2.63-4h1.42l-3.44,5.16v3.38h-1.29Z"/>
          <path d="M502.35,272.91l-2.47-6.24h1.34l1.82,4.75,2-4.75h1.32l-3,7c-.58,1.33-1.24,1.85-2.39,1.85a2.31,2.31,0,0,1-.64-.07v-1.08a2.24,2.24,0,0,0,.55.05,1.28,1.28,0,0,0,1.23-.91Z"/>
          <path d="M509.23,272l5.13-6.53h-5.09v-1.12H516v.89l-5.14,6.53h5.22v1.12h-6.88Z"/>
          <path d="M516.86,272l3.48-4.26H516.9v-1.05h5v.89l-3.49,4.27h3.55v1.05h-5.08Z"/>
        </g>
      </g>
      <g id="a2faeead-4a0c-4e17-828a-97ddb104de59" data-name="Red Hat Display Regular Aa Bb Cc Dd Ee Ff Gg Hh Ii Jj Kk Ll Mm Nn Oo Pp Qq Rr Ss Tt Uu Vv Ww Xx Yy Zz" class="aae4fea7-970d-4938-8082-9d044206977a">
        <g class="aae4fea7-970d-4938-8082-9d044206977a">
          <path d="M316,327.77h3.38a2.13,2.13,0,0,1,2.42,2.14,2.7,2.7,0,0,1-2.35,2.67l1.21,3.74h-1l-1.17-3.68H315.9l-.78,3.68h-.92Zm.73.85-.68,3.23h2.72A1.93,1.93,0,0,0,320.9,330c0-.84-.63-1.36-1.65-1.36Z"/>
          <path d="M324.87,336.43a2.81,2.81,0,0,1-2.95-2.87,3.35,3.35,0,0,1,3.21-3.45,2.68,2.68,0,0,1,2.6,2.88,3.78,3.78,0,0,1,0,.54h-4.9a2.07,2.07,0,0,0,2.11,2.12,3,3,0,0,0,1.65-.5l.46.62A3.64,3.64,0,0,1,324.87,336.43Zm-2-3.62h4A1.9,1.9,0,0,0,325,330.9,2.34,2.34,0,0,0,322.88,332.81Z"/>
          <path d="M333.05,335.89a3,3,0,0,1-1.68.53,2.69,2.69,0,0,1-2.7-2.81,3.43,3.43,0,0,1,3.37-3.49,2.68,2.68,0,0,1,2.06.88l.68-3.23.92-.2-1.86,8.75H333Zm-1.49-.26a2.49,2.49,0,0,0,1.69-.67l.66-3.07a2.11,2.11,0,0,0-1.85-1,2.56,2.56,0,0,0-2.52,2.62A2,2,0,0,0,331.56,335.63Z"/>
          <path d="M340,327.77h.91l-.82,3.82H345l.82-3.82h.93l-1.82,8.55H344l.83-3.88h-4.87l-.83,3.88h-.91Z"/>
          <path d="M346.53,334.7c0-1.2,1-2,2.49-2a3.85,3.85,0,0,1,2,.53l.15-.72c.24-1.11-.25-1.66-1.45-1.66a4.6,4.6,0,0,0-1.83.48l-.24-.72a5.62,5.62,0,0,1,2.22-.52c1.66,0,2.48.89,2.17,2.36l-.82,3.87h-.86l.11-.5a3,3,0,0,1-1.81.58C347.36,336.4,346.53,335.73,346.53,334.7Zm2.32,1a2.66,2.66,0,0,0,1.73-.62l.25-1.15a2.78,2.78,0,0,0-1.82-.58c-.95,0-1.64.53-1.64,1.25S347.92,335.71,348.85,335.71Z"/>
          <path d="M354.25,331H353l.17-.77h1.29l.33-1.55.94-.23-.38,1.78h1.78l-.17.77h-1.78l-.8,3.7c-.14.71.1,1,.91,1a2.62,2.62,0,0,0,.71-.12l-.16.79a3.74,3.74,0,0,1-.89.11c-1.15,0-1.69-.56-1.47-1.56Z"/>
          <path d="M361.34,327.77h2.42a3.62,3.62,0,0,1,3.87,3.77,4.88,4.88,0,0,1-5,4.78h-3.13Zm.73.86-1.45,6.83h2.15a3.89,3.89,0,0,0,3.92-3.89,2.8,2.8,0,0,0-3-2.94Z"/>
          <path d="M369,336.32h-.88l1.3-6.12h.88Zm.63-7.84a.69.69,0,0,1,.67-.67.52.52,0,0,1,.53.54.69.69,0,0,1-.67.68A.53.53,0,0,1,369.6,328.48Z"/>
          <path d="M370.82,334.76a2.66,2.66,0,0,0,2,.95c.91,0,1.58-.48,1.58-1.13,0-.45-.29-.7-1-.86l-1-.23c-1-.24-1.52-.72-1.52-1.54,0-1.11.9-1.84,2.24-1.84a3.56,3.56,0,0,1,2.45,1l-.53.59a3,3,0,0,0-2-.84c-.83,0-1.38.43-1.38,1.05,0,.46.27.7,1,.86l1,.23c1.07.24,1.56.73,1.56,1.54a2.18,2.18,0,0,1-2.44,1.94,3.45,3.45,0,0,1-2.59-1.14Z"/>
          <path d="M377.15,330.2H378l-.09.44a3,3,0,0,1,1.68-.52,2.68,2.68,0,0,1,2.7,2.8,3.44,3.44,0,0,1-3.36,3.51,2.69,2.69,0,0,1-2.06-.89l-.7,3.28h-.88Zm.6,1.36-.66,3.07a2.08,2.08,0,0,0,1.85,1,2.56,2.56,0,0,0,2.51-2.62,2,2,0,0,0-2-2.09A2.46,2.46,0,0,0,377.75,331.56Z"/>
          <path d="M383.8,336.32h-.88l1.82-8.55.91-.2Z"/>
          <path d="M385.41,334.7c0-1.2,1-2,2.49-2a3.81,3.81,0,0,1,2,.53l.16-.72c.23-1.11-.26-1.66-1.45-1.66a4.52,4.52,0,0,0-1.83.48l-.25-.72a5.62,5.62,0,0,1,2.22-.52c1.66,0,2.48.89,2.18,2.36l-.82,3.87h-.87l.11-.5a3,3,0,0,1-1.8.58C386.24,336.4,385.41,335.73,385.41,334.7Zm2.32,1a2.68,2.68,0,0,0,1.73-.62l.24-1.15a2.73,2.73,0,0,0-1.81-.58c-1,0-1.64.53-1.64,1.25S386.8,335.71,387.73,335.71Z"/>
          <path d="M393,336.31l-1.17-6.11h.94l.92,5.07,3.15-5.07h1l-4.48,7.12c-.68,1.09-1.34,1.54-2.24,1.54a2.41,2.41,0,0,1-.67-.1l.17-.81a1.52,1.52,0,0,0,1.87-.81Z"/>
          <path d="M402,327.77h3.38a2.13,2.13,0,0,1,2.42,2.14,2.69,2.69,0,0,1-2.34,2.67l1.21,3.74h-1l-1.17-3.68h-2.65l-.78,3.68h-.92Zm.73.85-.68,3.23h2.72a1.92,1.92,0,0,0,2.11-1.87c0-.84-.63-1.36-1.64-1.36Z"/>
          <path d="M410.8,336.43a2.81,2.81,0,0,1-2.95-2.87,3.35,3.35,0,0,1,3.21-3.45,2.68,2.68,0,0,1,2.6,2.88c0,.17,0,.29,0,.54h-4.91a2.07,2.07,0,0,0,2.11,2.12,3,3,0,0,0,1.65-.5l.46.62A3.62,3.62,0,0,1,410.8,336.43Zm-2-3.62h4A1.9,1.9,0,0,0,411,330.9,2.34,2.34,0,0,0,408.81,332.81Z"/>
          <path d="M414.61,333.61a3.43,3.43,0,0,1,3.36-3.49,2.68,2.68,0,0,1,2,.86l.17-.78h.88l-1.35,6.52a2.48,2.48,0,0,1-2.59,2.16,4.41,4.41,0,0,1-2.6-.89l.46-.67a3.56,3.56,0,0,0,2.1.77,1.65,1.65,0,0,0,1.75-1.45l.16-.76a3,3,0,0,1-1.7.52A2.66,2.66,0,0,1,414.61,333.61Zm2.88,2a2.48,2.48,0,0,0,1.7-.67l.65-3.06a2.08,2.08,0,0,0-1.85-1,2.56,2.56,0,0,0-2.51,2.62A2,2,0,0,0,417.49,335.62Z"/>
          <path d="M422.7,333.78c-.25,1.12.3,1.87,1.35,1.87a2.22,2.22,0,0,0,1.76-.88l1-4.57h.87l-1.3,6.12h-.88l.13-.61a2.74,2.74,0,0,1-1.84.72,2,2,0,0,1-2-2.55l.78-3.68h.88Z"/>
          <path d="M428.79,336.32h-.88l1.82-8.55.92-.2Z"/>
          <path d="M430.4,334.7c0-1.2,1-2,2.49-2a3.79,3.79,0,0,1,1.95.53l.16-.72c.24-1.11-.25-1.66-1.45-1.66a4.6,4.6,0,0,0-1.83.48l-.24-.72a5.62,5.62,0,0,1,2.22-.52c1.66,0,2.48.89,2.17,2.36l-.82,3.87h-.86l.11-.5a3,3,0,0,1-1.81.58C431.23,336.4,430.4,335.73,430.4,334.7Zm2.32,1a2.66,2.66,0,0,0,1.73-.62l.25-1.15a2.78,2.78,0,0,0-1.82-.58c-.95,0-1.64.53-1.64,1.25S431.79,335.71,432.72,335.71Z"/>
          <path d="M437.79,330.2h.87l-.16.77a2.22,2.22,0,0,1,1.75-.9,2,2,0,0,1,.65.11l-.17.83a1.65,1.65,0,0,0-.7-.14,2.11,2.11,0,0,0-1.77,1.18l-.9,4.27h-.88Z"/>
        </g>
        <g class="aae4fea7-970d-4938-8082-9d044206977a">
          <path d="M317.53,357.08h1.14l3.5,8.54h-1l-1.08-2.68h-4L315,365.62h-1Zm2.21,5.05L318.07,358l-1.7,4.17Z"/>
          <path d="M322.66,363.89c0-1.15.94-1.87,2.44-1.87a4,4,0,0,1,1.8.42v-.81c0-1-.56-1.48-1.63-1.48a4,4,0,0,0-1.91.54L323,360a5.26,5.26,0,0,1,2.34-.61c1.55,0,2.42.76,2.42,2.13v4.11h-.88V365a2.9,2.9,0,0,1-2,.71C323.58,365.73,322.66,365,322.66,363.89Zm2.42,1.13a2.47,2.47,0,0,0,1.82-.7v-1.15a3,3,0,0,0-1.77-.49c-1,0-1.6.46-1.6,1.18S324.16,365,325.08,365Z"/>
          <path d="M335.55,357.08c1.65,0,2.7.85,2.7,2.19a2,2,0,0,1-1.3,1.9,2.13,2.13,0,0,1,1.66,2.05c0,1.46-1.15,2.4-2.91,2.4h-3.61v-8.54Zm-2.52.82v2.9h2.48c1.11,0,1.81-.56,1.81-1.45s-.7-1.45-1.81-1.45Zm4.62,5.29c0-1-.79-1.61-2-1.61H333v3.22h2.6C336.86,364.8,337.65,364.17,337.65,363.19Z"/>
          <path d="M342.79,365.72a3.1,3.1,0,0,1-2-.71v.61h-.89v-8.54l.9-.21v3.28a2.78,2.78,0,0,1,2-.74,3.16,3.16,0,0,1,0,6.31Zm-2-4.66v3a2.41,2.41,0,0,0,1.88.85,2.37,2.37,0,0,0,0-4.73A2.37,2.37,0,0,0,340.84,361.06Z"/>
          <path d="M356.71,363.72l.61.63a4.63,4.63,0,0,1-3.35,1.41,4.41,4.41,0,1,1,0-8.82,4.6,4.6,0,0,1,3.38,1.41l-.62.66a3.73,3.73,0,0,0-2.76-1.2,3.54,3.54,0,0,0,0,7.08A3.65,3.65,0,0,0,356.71,363.72Z"/>
          <path d="M363,364.15l.56.6a3.4,3.4,0,0,1-2.37,1,3.18,3.18,0,0,1,0-6.35,3.47,3.47,0,0,1,2.39,1L363,361a2.5,2.5,0,0,0-1.81-.8,2.35,2.35,0,0,0,0,4.7A2.51,2.51,0,0,0,363,364.15Z"/>
          <path d="M367.4,357.08h2.82a4.28,4.28,0,1,1,0,8.54H367.4Zm.94.85v6.84h1.93a3.42,3.42,0,1,0,0-6.84Z"/>
          <path d="M380.79,365a2.87,2.87,0,0,1-2,.74,3.16,3.16,0,1,1,2-5.62v-3l.9-.21v8.75h-.89Zm-1.89-.05a2.37,2.37,0,0,0,1.88-.86v-3a2.43,2.43,0,0,0-1.88-.84,2.26,2.26,0,0,0-2.27,2.35A2.29,2.29,0,0,0,378.9,364.93Z"/>
          <path d="M386,357.08h6.11v.83H387v3h3.38v.82H387v3.07h5.22v.83H386Z"/>
          <path d="M395.92,365.73a3.12,3.12,0,0,1-3.15-3.17,3.06,3.06,0,0,1,3-3.15,3,3,0,0,1,2.89,3.15v.28h-5a2.3,2.3,0,0,0,2.3,2.1,2.67,2.67,0,0,0,1.68-.56l.56.6A3.61,3.61,0,0,1,395.92,365.73Zm-2.23-3.61h4.09a2,2,0,0,0-4.09,0Z"/>
          <path d="M402.73,357.08h6.12v.83h-5.18v3h3.4v.82h-3.4v3.84h-.94Z"/>
          <path d="M410.61,359.51v-1.16a1.69,1.69,0,0,1,1.89-1.86,2.54,2.54,0,0,1,.82.11v.81a2.25,2.25,0,0,0-.76-.13c-.72,0-1.06.35-1.06,1.09v1.14h1.82v.77H411.5v5.34h-.89v-5.34h-1.44v-.77Z"/>
          <path d="M421.11,365.76a4.41,4.41,0,1,1,0-8.82,4.61,4.61,0,0,1,3.37,1.41l-.64.64a3.69,3.69,0,0,0-2.73-1.18,3.54,3.54,0,0,0,0,7.08,3.15,3.15,0,0,0,3.21-2.91h-3.07v-.83h4v.38A4.13,4.13,0,0,1,421.11,365.76Z"/>
          <path d="M426.26,362.53a3.07,3.07,0,0,1,3.08-3.13,3,3,0,0,1,1.93.72v-.61h.89v6.26c0,1.56-.94,2.43-2.64,2.43a4.72,4.72,0,0,1-2.39-.64l.39-.71a4.06,4.06,0,0,0,2,.57c1.16,0,1.77-.57,1.77-1.64V365a3,3,0,0,1-1.95.71A3.07,3.07,0,0,1,426.26,362.53Zm3.13,2.35a2.31,2.31,0,0,0,1.87-.85v-3a2.37,2.37,0,0,0-1.87-.83,2.34,2.34,0,0,0,0,4.68Z"/>
          <path d="M436.49,357.08h.94v3.82h5v-3.82h.94v8.54h-.94v-3.88h-5v3.88h-.94Z"/>
          <path d="M445.05,357.08l.91-.21v3.36a2.39,2.39,0,0,1,1.93-.85,2.25,2.25,0,0,1,2.35,2.37v3.87h-.89v-3.68a1.61,1.61,0,0,0-1.71-1.76,1.89,1.89,0,0,0-1.68.94v4.5h-.91Z"/>
          <path d="M454.55,357.08h.94v8.54h-.94Z"/>
          <path d="M457,357.72a.61.61,0,0,1,.61-.61.6.6,0,0,1,.61.61.61.61,0,0,1-.61.61A.62.62,0,0,1,457,357.72Zm1.07,7.9h-.91v-6.11h.91Z"/>
          <path d="M464.81,365.76a3.15,3.15,0,0,1-3.1-2.19l.85-.35a2.31,2.31,0,0,0,2.26,1.67,2.26,2.26,0,0,0,2.3-2.5v-5.31h.94v5.32A3.09,3.09,0,0,1,464.81,365.76Z"/>
          <path d="M468.36,368.09v-.76a1.59,1.59,0,0,0,.45.05c.57,0,.79-.24.79-.83v-7h.9v7.11a1.42,1.42,0,0,1-1.58,1.54A2.57,2.57,0,0,1,468.36,368.09Zm1.08-10.37a.61.61,0,0,1,.61-.61.61.61,0,0,1,.61.61.61.61,0,0,1-.61.61A.62.62,0,0,1,469.44,357.72Z"/>
          <path d="M474.83,357.08h.94v4.05l4.42-4.05h1.23l-4.63,4.18,4.73,4.36H480.2l-4.43-4.1v4.1h-.94Z"/>
          <path d="M482.2,357.08l.9-.21v5.39l3.2-2.75h1.1l-3.36,2.9,3.51,3.21h-1.23l-3.22-2.93v2.93h-.9Z"/>
          <path d="M491,357.08H492v7.7h5.09v.84h-6Z"/>
          <path d="M499.13,365.62h-.9v-8.54l.9-.21Z"/>
          <path d="M504.34,358.16v7.46h-.88v-8.54h1.32l2.92,6.06,2.91-6.06h1.31v8.54H511v-7.47L507.69,365Z"/>
          <path d="M513.64,359.51h.9v.67a2.27,2.27,0,0,1,1.79-.8,2.15,2.15,0,0,1,1.93,1.11,2.41,2.41,0,0,1,2.1-1.11,2.21,2.21,0,0,1,2.25,2.37v3.87h-.89v-3.68a1.56,1.56,0,0,0-1.59-1.76,1.83,1.83,0,0,0-1.62,1,3.32,3.32,0,0,1,.06.57v3.87h-.89v-3.68a1.56,1.56,0,0,0-1.58-1.76,1.77,1.77,0,0,0-1.56.89v4.55h-.9Z"/>
          <path d="M527.86,357.08,533,364v-6.93h.89v8.54h-.83l-5.25-7.12v7.12h-.89v-8.54Z"/>
          <path d="M535.6,359.51h.9v.72a2.41,2.41,0,0,1,1.93-.85,2.26,2.26,0,0,1,2.36,2.37v3.87h-.89v-3.68a1.61,1.61,0,0,0-1.71-1.76,1.91,1.91,0,0,0-1.69.94v4.5h-.9Z"/>
        </g>
        <g class="aae4fea7-970d-4938-8082-9d044206977a">
          <path d="M318.88,380.41a4.41,4.41,0,1,1,4.39-4.41A4.37,4.37,0,0,1,318.88,380.41Zm0-8a3.54,3.54,0,1,0,3.44,3.54A3.44,3.44,0,0,0,318.88,372.46Z"/>
          <path d="M327.42,374a3.18,3.18,0,1,1-3.12,3.18A3.12,3.12,0,0,1,327.42,374Zm2.22,3.18a2.23,2.23,0,1,0-2.22,2.38A2.27,2.27,0,0,0,329.64,377.21Z"/>
          <path d="M334.59,371.73h3.71a2.49,2.49,0,1,1,0,4.94h-2.77v3.6h-.94Zm.94.84v3.28h2.7c1.16,0,1.89-.63,1.89-1.64s-.73-1.64-1.89-1.64Z"/>
          <path d="M342.32,374.16h.89v.66a2.82,2.82,0,0,1,2-.76,3.16,3.16,0,0,1,0,6.31,3.1,3.1,0,0,1-2-.71v3.11h-.9Zm.9,1.55v3a2.42,2.42,0,0,0,1.88.85,2.37,2.37,0,0,0,0-4.73A2.37,2.37,0,0,0,343.22,375.71Z"/>
          <path d="M359.31,379.25l.91,1.08-1,.14-.59-.72a4.52,4.52,0,0,1-2.34.66,4.38,4.38,0,1,1,3-1.16Zm-.58-.69a3.61,3.61,0,0,0,1-2.56,3.45,3.45,0,1,0-3.45,3.54,3.3,3.3,0,0,0,1.75-.48l-1.22-1.45,1-.15Z"/>
          <path d="M361.74,377.21a3.08,3.08,0,0,1,3.09-3.15,3.17,3.17,0,0,1,2,.69v-.59h.89v8.61h-.9v-3.13a2.92,2.92,0,0,1-2,.73A3.09,3.09,0,0,1,361.74,377.21Zm3.17,2.37a2.37,2.37,0,0,0,1.88-.86v-3a2.45,2.45,0,0,0-1.88-.84,2.26,2.26,0,0,0-2.27,2.35A2.29,2.29,0,0,0,364.91,379.58Z"/>
          <path d="M372,371.73h3.66a2.48,2.48,0,0,1,2.78,2.45,2.35,2.35,0,0,1-1.82,2.3l1.92,3.79h-1l-1.83-3.67H373v3.67H372Zm.94.84v3.23h2.66c1.14,0,1.9-.63,1.9-1.62s-.76-1.61-1.9-1.61Z"/>
          <path d="M379.73,374.16h.9V375a1.93,1.93,0,0,1,1.71-1,1.76,1.76,0,0,1,.58.09v.83a1.84,1.84,0,0,0-.64-.11,1.74,1.74,0,0,0-1.65,1.25v4.19h-.9Z"/>
          <path d="M386.57,378.16a4,4,0,0,0,3,1.42c1.34,0,2.29-.7,2.29-1.69s-.56-1.3-2-1.54l-1.23-.19c-1.65-.27-2.41-1-2.41-2.16,0-1.42,1.21-2.38,3-2.38a5.62,5.62,0,0,1,3.37,1.13l-.53.74a4.74,4.74,0,0,0-2.87-1.07c-1.22,0-2.05.61-2.05,1.5s.48,1.19,1.73,1.38l1.22.2c1.87.3,2.67,1,2.67,2.34,0,1.5-1.34,2.55-3.27,2.55a4.83,4.83,0,0,1-3.57-1.58Z"/>
          <path d="M394,378.84a2.92,2.92,0,0,0,2,.82c1,0,1.66-.45,1.66-1.1s-.35-.82-1.13-.92l-1.06-.15c-1.22-.18-1.81-.72-1.81-1.65s.95-1.78,2.3-1.78a4,4,0,0,1,2.4.8l-.48.62a3.37,3.37,0,0,0-2-.69c-.85,0-1.42.42-1.42,1s.33.79,1.14.91l1.06.14c1.22.18,1.83.72,1.83,1.66s-1.08,1.87-2.48,1.87a3.7,3.7,0,0,1-2.57-.95Z"/>
          <path d="M401.54,371.73h7.11v.84h-3.08v7.7h-.94v-7.7h-3.09Z"/>
          <path d="M410.15,374.93h-1.32v-.77h1.32v-1.55l.89-.24v1.79h1.84v.77H411v3.74c0,.66.26.92.94.92a2.23,2.23,0,0,0,.89-.16v.79a3.49,3.49,0,0,1-1.08.16c-1.06,0-1.64-.51-1.64-1.47Z"/>
          <path d="M420,380.41c-2.18,0-3.53-1.44-3.53-3.75v-4.93h.94v4.93a2.6,2.6,0,1,0,5.18,0v-4.93h.94v4.93A3.4,3.4,0,0,1,420,380.41Z"/>
          <path d="M425.93,377.84a1.61,1.61,0,0,0,1.71,1.76,1.9,1.9,0,0,0,1.69-1v-4.49h.9v6.11h-.9v-.71a2.44,2.44,0,0,1-1.92.83A2.25,2.25,0,0,1,425,378v-3.87h.89Z"/>
          <path d="M433.67,371.73h1l3.09,7.66,3.13-7.66h.95l-3.55,8.54h-1.13Z"/>
          <path d="M441.73,374.16h1l2.09,4.94,2.09-4.94h1l-2.63,6.11h-.86Z"/>
          <path d="M452.83,380.27,451,371.73h.95l1.45,7,2.11-7h.92l2.11,7,1.47-7h.91l-1.84,8.54h-.95L456,373l-2.17,7.24Z"/>
          <path d="M463,380.27l-1.72-6.11h.89l1.31,4.88,1.53-4.88h.81l1.51,4.88,1.33-4.88h.85l-1.73,6.11h-.86l-1.52-4.89-1.52,4.89Z"/>
          <path d="M472.33,380.27l3.3-4.43-3.09-4.11h1.15l2.5,3.39,2.5-3.39h1.1l-3.05,4.1,3.3,4.44h-1.13l-2.73-3.72-2.75,3.72Z"/>
          <path d="M482.79,377.12l-2.28-3h1.07l1.74,2.29,1.73-2.29h1l-2.26,2.95,2.42,3.16h-1.08l-1.86-2.49-1.9,2.49h-1Z"/>
          <path d="M492.38,376.79l-3.4-5.06h1.1l2.8,4.23,2.78-4.23h1.06l-3.4,5.1v3.44h-.94Z"/>
          <path d="M498.49,380.26l-2.49-6.1h1l2,5,2.14-5h1l-3,7c-.53,1.18-1.1,1.66-2.08,1.66a2.68,2.68,0,0,1-.57-.06V382a1.91,1.91,0,0,0,.51,0c.55,0,.93-.31,1.22-.95Z"/>
          <path d="M505.09,379.6l5.43-7h-5.38v-.83h6.61v.67l-5.45,7h5.55v.83h-6.76Z"/>
          <path d="M512.67,379.56l3.69-4.6h-3.65v-.8h4.75v.69l-3.7,4.62h3.73v.8h-4.82Z"/>
        </g>
      </g>
      <line id="e340f071-c2e3-45dc-80f7-93e79e652a2b" data-name="Line 264" class="a08a1e7c-b979-4cdf-8577-8fc8ca4c6799" x1="1.72" y1="76.79" x2="598.28" y2="76.79"/>
      <line id="bd4c1820-08f3-400b-9b77-a1533986d603" data-name="Line 265" class="a08a1e7c-b979-4cdf-8577-8fc8ca4c6799" x1="1.72" y1="183.63" x2="598.28" y2="183.63"/>
      <line id="be48faad-31d3-4838-a7fd-379e812d756e" data-name="Line 266" class="a08a1e7c-b979-4cdf-8577-8fc8ca4c6799" x1="1.72" y1="290.77" x2="598.28" y2="290.77"/>
      <g id="ad2b324b-b216-497e-ad46-b25bd6d6dc4b" data-name="Group 5395">
        <path id="b054297f-3e44-4b30-a44a-e3894c6dbc4e" data-name="Path 6300" class="b3549d94-1c4d-4181-a288-8aa703a71b48" d="M2.06,327.29H25c11,0,17.4,6.63,17.4,15.33,0,6.87-4.27,12.36-11.37,14.27L43,380.7H36.48L25,357.73H7.94v23H2.06Zm5.88,5.26v20.22H24.57c7.71,0,11.9-4.42,11.9-10.15s-4.2-10.07-11.9-10.07Z"/>
        <path id="eaa6e5a3-07bf-4d21-96ae-af58f587df6a" data-name="Path 6301" class="b3549d94-1c4d-4181-a288-8aa703a71b48" d="M64.94,341.86c10.15,0,18.08,8.78,18.08,19.69v1.75H51.66A14.37,14.37,0,0,0,66,376.43a16.72,16.72,0,0,0,10.53-3.52l3.51,3.74a22.44,22.44,0,0,1-14.27,4.73,19.47,19.47,0,0,1-19.69-19.27v-.57C46.09,350.71,54.26,341.86,64.94,341.86ZM51.81,358.8H77.38c-1-6.79-6.26-12-12.59-12C58,346.82,52.88,351.93,51.81,358.8Z"/>
        <path id="ac289d33-0f1a-4e35-9263-3000681abf3c" data-name="Path 6302" class="b3549d94-1c4d-4181-a288-8aa703a71b48" d="M89.21,361.39c0-11,8.31-19.61,19.22-19.61a18.29,18.29,0,0,1,12.06,4.5v-3.81h5.57v38.84c0,9.92-6,15.26-16.48,15.26a29.92,29.92,0,0,1-15-4l2.44-4.42c4.43,2.36,8.17,3.51,12.29,3.51,7.24,0,11.06-3.51,11.06-10.23v-4.88A18.58,18.58,0,0,1,108.29,381C97.6,381,89.21,372.38,89.21,361.39Zm19.53,14.66a14.62,14.62,0,0,0,11.67-5.27V352a14.91,14.91,0,0,0-11.67-5.19c-7.94,0-14,6.34-14,14.58S100.88,376.05,108.74,376.05Z"/>
        <path id="a6154b55-8120-4a50-bdd9-9ac2cc2c28f4" data-name="Path 6303" class="b3549d94-1c4d-4181-a288-8aa703a71b48" d="M141.1,365.51c0,6.72,4,11,10.68,11a11.82,11.82,0,0,0,10.53-5.88V342.47H168V380.7h-5.65v-4.43a15.15,15.15,0,0,1-12,5.19c-8.78,0-14.8-6-14.8-14.8V342.47h5.57Z"/>
        <path id="efb1ef60-f4a4-4c3d-86a6-d50ee1a65b3e" data-name="Path 6304" class="b3549d94-1c4d-4181-a288-8aa703a71b48" d="M183.07,380.7h-5.65V327.29l5.65-1.3Z"/>
        <path id="e60d592e-20f0-4ad8-a9d2-c31657d393ad" data-name="Path 6305" class="b3549d94-1c4d-4181-a288-8aa703a71b48" d="M190.54,369.86c0-7.78,6.72-11.67,15.27-11.67a24.64,24.64,0,0,1,11.21,2.6v-5c0-6.18-3.51-9.23-10.15-9.23-3.89,0-7.63,1.14-12,3.36l-2.13-4.35c5-2.44,9.61-3.82,14.65-3.82,9.61,0,15.11,4.66,15.11,13.28v25.72H217V377a18.46,18.46,0,0,1-12.36,4.42C196.34,381.39,190.54,376.73,190.54,369.86Zm15.11,7.1A15.57,15.57,0,0,0,217,372.54v-7.25a19.45,19.45,0,0,0-11.06-3c-5.88,0-10,2.83-10,7.4s4.12,7.25,9.69,7.25Z"/>
        <path id="becc5a37-118f-444c-a46a-c69d04df4fce" data-name="Path 6306" class="b3549d94-1c4d-4181-a288-8aa703a71b48" d="M232,342.47h5.65v5.27a12.08,12.08,0,0,1,10.61-6.1,11.67,11.67,0,0,1,3.66.53v5.19a13.73,13.73,0,0,0-4-.69c-4.12,0-8.09,2.06-10.3,7.78V380.7H232Z"/>
      </g>
    </g>
  </g>
</svg>
