<svg xmlns="http://www.w3.org/2000/svg" viewBox="0 0 1140 140">
  <defs>
    <style>
      .ad6d99c7-4b8e-4408-aaf2-0c0019f46483 {
        fill: #fff;
      }

      .f4bda82d-2530-4b87-8e8a-80f75dd9b3ba {
        fill: #e00;
      }

      .a11d47aa-f606-4ebc-b9c9-f3dc5560294b, .b33cf8d9-1fc6-408f-ac56-be8b1d3ea816 {
        fill: #06c;
      }

      .b33cf8d9-1fc6-408f-ac56-be8b1d3ea816 {
        opacity: 0.75;
      }

      .e4891f6f-a8fe-4254-8383-fe089efa0b0e {
        fill: #f3f3f3;
      }

      .fefc9a03-7ada-46f8-9122-25d8589e79d0 {
        fill: #231f20;
      }
    </style>
  </defs>
  <g id="b883ff77-4cc8-4124-bd91-1276a580db84" data-name="Section: Red Hat Marketplace partner buttons">
    <g>
      <g>
        <rect y="1" width="420.93" height="99.16" rx="11.1"/>
        <g>
          <path class="ad6d99c7-4b8e-4408-aaf2-0c0019f46483" d="M123,24.26h3.55l8.27,20.22h-3.3l-2.34-5.92h-9l-2.37,5.92h-3.15ZM128.22,36l-3.52-8.87L121.17,36Z"/>
          <path class="ad6d99c7-4b8e-4408-aaf2-0c0019f46483" d="M132,29.77h3.18l4.59,11,4.59-11h3.1l-6.36,14.71h-2.74Z"/>
          <path class="ad6d99c7-4b8e-4408-aaf2-0c0019f46483" d="M148.16,40.26c0-2.77,2.25-4.48,6-4.48a10.42,10.42,0,0,1,4,.81V35c0-2.08-1.25-3.12-3.59-3.12A10.55,10.55,0,0,0,150,33.15L148.91,31a13.79,13.79,0,0,1,6-1.51c3.81,0,6,1.88,6,5.26v9.74h-2.83V43.21a7,7,0,0,1-4.57,1.53C150.35,44.74,148.16,42.92,148.16,40.26Zm6.07,2.34a5.63,5.63,0,0,0,3.9-1.39V38.67a7.64,7.64,0,0,0-3.79-.89c-2.11,0-3.41.95-3.41,2.42S152.26,42.6,154.23,42.6Z"/>
          <path class="ad6d99c7-4b8e-4408-aaf2-0c0019f46483" d="M163.68,25.61a1.78,1.78,0,0,1,1.76-1.79,1.79,1.79,0,0,1,0,3.58A1.77,1.77,0,0,1,163.68,25.61Zm3.2,18.87H164V29.77h2.89Z"/>
          <path class="ad6d99c7-4b8e-4408-aaf2-0c0019f46483" d="M172.89,44.48H170V24.26l2.89-.64Z"/>
          <path class="ad6d99c7-4b8e-4408-aaf2-0c0019f46483" d="M175.26,40.26c0-2.77,2.25-4.48,6-4.48a10.38,10.38,0,0,1,4,.81V35c0-2.08-1.24-3.12-3.58-3.12a10.55,10.55,0,0,0-4.57,1.24L176,31a13.79,13.79,0,0,1,6-1.51c3.81,0,6,1.88,6,5.26v9.74h-2.83V43.21a7,7,0,0,1-4.57,1.53C177.46,44.74,175.26,42.92,175.26,40.26Zm6.07,2.34a5.63,5.63,0,0,0,3.9-1.39V38.67a7.61,7.61,0,0,0-3.79-.89c-2.11,0-3.41.95-3.41,2.42S179.36,42.6,181.33,42.6Z"/>
          <path class="ad6d99c7-4b8e-4408-aaf2-0c0019f46483" d="M198.41,44.71A7.36,7.36,0,0,1,194,43.24v1.24H191.1V24.26l2.89-.64v7.54a6.8,6.8,0,0,1,4.47-1.62,7.59,7.59,0,0,1-.05,15.17ZM194,33.82v6.64a5.44,5.44,0,0,0,4.1,1.74,5.07,5.07,0,0,0,0-10.14A5.25,5.25,0,0,0,194,33.82Z"/>
          <path class="ad6d99c7-4b8e-4408-aaf2-0c0019f46483" d="M211.23,44.48h-2.88V24.26l2.88-.64Z"/>
          <path class="ad6d99c7-4b8e-4408-aaf2-0c0019f46483" d="M221.4,44.74a7.57,7.57,0,0,1-7.71-7.63,7.39,7.39,0,0,1,7.37-7.57c4,0,7.1,3.35,7.1,7.69v.83H216.55a5,5,0,0,0,5,4.22,5.74,5.74,0,0,0,3.73-1.3l1.85,1.82A8.79,8.79,0,0,1,221.4,44.74Zm-4.82-8.84h8.72a4.38,4.38,0,0,0-8.72,0Z"/>
          <path class="ad6d99c7-4b8e-4408-aaf2-0c0019f46483" d="M243.36,29.48a7.65,7.65,0,1,1-7.65,7.63A7.55,7.55,0,0,1,243.36,29.48Zm4.8,7.63a4.82,4.82,0,1,0-4.8,5.12A4.91,4.91,0,0,0,248.16,37.11Z"/>
          <path class="ad6d99c7-4b8e-4408-aaf2-0c0019f46483" d="M253.45,29.77h2.89v1.48a6,6,0,0,1,4.42-1.77,5.49,5.49,0,0,1,5.75,5.75v9.25h-2.89V35.72A3.42,3.42,0,0,0,260,32a4.16,4.16,0,0,0-3.64,1.9V44.48h-2.89Z"/>
          <path class="ad6d99c7-4b8e-4408-aaf2-0c0019f46483" d="M116.43,57.28h9.88c4.11,0,7,2.57,7,6.27a6,6,0,0,1-4,5.63l4.47,8.32h-4.68l-3.95-7.74h-4.57V77.5h-4.19Zm4.19,3.61v5.43h5.32c1.88,0,3.12-1.1,3.12-2.71s-1.24-2.72-3.12-2.72Z"/>
          <path class="ad6d99c7-4b8e-4408-aaf2-0c0019f46483" d="M142,77.79a7.84,7.84,0,0,1-8.09-7.8,7.69,7.69,0,0,1,7.75-7.8c4.27,0,7.45,3.47,7.45,8.09v1H137.93a4.34,4.34,0,0,0,4.28,3.15,4.75,4.75,0,0,0,3.32-1.22l2.6,2.37A9,9,0,0,1,142,77.79Zm-4.13-9.3h7.37a3.89,3.89,0,0,0-3.67-3A3.79,3.79,0,0,0,137.9,68.49Z"/>
          <path class="ad6d99c7-4b8e-4408-aaf2-0c0019f46483" d="M162.63,76.26a6.82,6.82,0,0,1-4.27,1.44,7.73,7.73,0,0,1,.11-15.45,7.5,7.5,0,0,1,4.11,1.18V57.28l3.95-.87V77.5h-3.9ZM159,74.32a4.86,4.86,0,0,0,3.59-1.44V67A5,5,0,0,0,159,65.6a4.36,4.36,0,1,0,0,8.72Z"/>
          <path class="ad6d99c7-4b8e-4408-aaf2-0c0019f46483" d="M175.15,57.28h4.19V65.4h9.3V57.28h4.19V77.5h-4.19V69.24h-9.3V77.5h-4.19Z"/>
          <path class="ad6d99c7-4b8e-4408-aaf2-0c0019f46483" d="M194.94,73.14c0-2.86,2.31-4.57,6.18-4.57a12.35,12.35,0,0,1,3.67.58V68.08c0-1.73-1.07-2.63-3.18-2.63A11.66,11.66,0,0,0,197,66.7l-1.45-2.92a15.69,15.69,0,0,1,6.71-1.62c4.07,0,6.41,2,6.41,5.58V77.5h-3.9v-1a7.12,7.12,0,0,1-4.36,1.3C197.19,77.76,194.94,75.88,194.94,73.14Zm6.53,1.79a5.72,5.72,0,0,0,3.32-1V71.72a8.85,8.85,0,0,0-3.18-.55c-1.82,0-2.89.73-2.89,1.88S199.79,74.93,201.47,74.93Z"/>
          <path class="ad6d99c7-4b8e-4408-aaf2-0c0019f46483" d="M212.88,65.77h-3.09V62.45h3.09V58.61l4-.9v4.74h4.28v3.32h-4.28v6.68c0,1.41.55,1.93,2.08,1.93A6.1,6.1,0,0,0,221,74v3.24a12.32,12.32,0,0,1-3.06.46c-3.35,0-5.09-1.53-5.09-4.48Z"/>
          <path class="ad6d99c7-4b8e-4408-aaf2-0c0019f46483" d="M232.44,62.62V77.5h-3.87V57.28H234l5.54,10.86L245,57.28h5.37V77.5h-4V62.65l-7,13.41Z"/>
          <path class="ad6d99c7-4b8e-4408-aaf2-0c0019f46483" d="M252.5,73.14c0-2.86,2.31-4.57,6.18-4.57a12.4,12.4,0,0,1,3.67.58V68.08c0-1.73-1.07-2.63-3.18-2.63a11.62,11.62,0,0,0-4.59,1.25l-1.45-2.92a15.69,15.69,0,0,1,6.71-1.62c4.07,0,6.41,2,6.41,5.58V77.5h-3.9v-1a7.12,7.12,0,0,1-4.36,1.3C254.75,77.76,252.5,75.88,252.5,73.14ZM259,74.93a5.74,5.74,0,0,0,3.32-1V71.72a8.85,8.85,0,0,0-3.18-.55c-1.82,0-2.89.73-2.89,1.88S257.35,74.93,259,74.93Z"/>
          <path class="ad6d99c7-4b8e-4408-aaf2-0c0019f46483" d="M269,62.45h3.95V64.1a4.82,4.82,0,0,1,4-2,3.46,3.46,0,0,1,1.65.35v3.47a5.07,5.07,0,0,0-2-.41,4,4,0,0,0-3.64,2.26V77.5H269Z"/>
          <path class="ad6d99c7-4b8e-4408-aaf2-0c0019f46483" d="M280.44,57.28l4-.87v12.4l6.5-6.36h4.47l-7.05,6.9,7.49,8.15h-5.06l-6.35-6.87V77.5h-4Z"/>
          <path class="ad6d99c7-4b8e-4408-aaf2-0c0019f46483" d="M302.83,77.79a7.84,7.84,0,0,1-8.09-7.8,7.68,7.68,0,0,1,7.74-7.8c4.28,0,7.46,3.47,7.46,8.09v1H298.73A4.33,4.33,0,0,0,303,74.47a4.76,4.76,0,0,0,3.33-1.22l2.6,2.37A9,9,0,0,1,302.83,77.79Zm-4.13-9.3h7.37a3.9,3.9,0,0,0-3.67-3A3.79,3.79,0,0,0,298.7,68.49Z"/>
          <path class="ad6d99c7-4b8e-4408-aaf2-0c0019f46483" d="M313.55,65.77h-3.09V62.45h3.09V58.61l4-.9v4.74h4.28v3.32h-4.28v6.68c0,1.41.55,1.93,2.08,1.93A6.1,6.1,0,0,0,321.7,74v3.24a12.32,12.32,0,0,1-3.06.46c-3.36,0-5.09-1.53-5.09-4.48Z"/>
          <path class="ad6d99c7-4b8e-4408-aaf2-0c0019f46483" d="M323.46,62.45h3.9v1.24a6.87,6.87,0,0,1,4.28-1.44,7.73,7.73,0,0,1-.12,15.45,7.47,7.47,0,0,1-4.1-1.18v7h-4Zm4,4.59V73A5.1,5.1,0,0,0,331,74.35a4.36,4.36,0,1,0,0-8.72A4.88,4.88,0,0,0,327.42,67Z"/>
          <path class="ad6d99c7-4b8e-4408-aaf2-0c0019f46483" d="M345.39,77.5h-3.95V57.28l3.95-.87Z"/>
          <path class="ad6d99c7-4b8e-4408-aaf2-0c0019f46483" d="M347.47,73.14c0-2.86,2.31-4.57,6.19-4.57a12.28,12.28,0,0,1,3.66.58V68.08c0-1.73-1.06-2.63-3.17-2.63a11.7,11.7,0,0,0-4.6,1.25l-1.44-2.92a15.65,15.65,0,0,1,6.7-1.62c4.07,0,6.42,2,6.42,5.58V77.5h-3.91v-1a7.1,7.1,0,0,1-4.36,1.3C349.73,77.76,347.47,75.88,347.47,73.14ZM354,74.93a5.72,5.72,0,0,0,3.32-1V71.72a8.83,8.83,0,0,0-3.17-.55c-1.82,0-2.89.73-2.89,1.88S352.33,74.93,354,74.93Z"/>
          <path class="ad6d99c7-4b8e-4408-aaf2-0c0019f46483" d="M374.89,72.65l2.37,2.45a8.33,8.33,0,0,1-6.12,2.69,7.82,7.82,0,1,1,0-15.63,8.46,8.46,0,0,1,6.24,2.69L375,67.42a4.9,4.9,0,0,0-3.73-1.82,4.37,4.37,0,0,0,.09,8.72A4.68,4.68,0,0,0,374.89,72.65Z"/>
          <path class="ad6d99c7-4b8e-4408-aaf2-0c0019f46483" d="M385.84,77.79a7.83,7.83,0,0,1-8.08-7.8,7.68,7.68,0,0,1,7.74-7.8c4.27,0,7.45,3.47,7.45,8.09v1H381.74A4.34,4.34,0,0,0,386,74.47a4.74,4.74,0,0,0,3.32-1.22l2.6,2.37A9,9,0,0,1,385.84,77.79Zm-4.13-9.3h7.37a3.89,3.89,0,0,0-3.67-3A3.79,3.79,0,0,0,381.71,68.49Z"/>
        </g>
        <g id="b36ea31c-01dd-4c52-8758-47977c87e7ca" data-name="Hat icon">
          <g>
            <path id="ea6cf5ce-73a7-4075-878d-e5fb985e63f1" data-name="Red hat" class="f4bda82d-2530-4b87-8e8a-80f75dd9b3ba" d="M68,54.09c4,0,9.79-.82,9.79-5.58a4.43,4.43,0,0,0-.1-1.09L75.3,37.07c-.55-2.28-1-3.31-5-5.31-3.11-1.59-9.86-4.2-11.86-4.2S56,30,53.79,30s-3.72-1.79-5.72-1.79-3.17,1.31-4.14,4c0,0-2.68,7.59-3,8.69a2,2,0,0,0-.07.62C40.83,44.43,52.44,54.09,68,54.09ZM78.4,50.44A16.07,16.07,0,0,1,79,53.68c0,4.48-5,7-11.65,7-15,0-28-8.75-28-14.54a5.88,5.88,0,0,1,.48-2.35C34.35,44,27.39,45,27.39,51.13c0,10.07,23.85,22.47,42.74,22.47,14.47,0,18.13-6.55,18.13-11.72C88.26,57.82,84.74,53.2,78.4,50.44Z"/>
            <path id="a2fad725-7e49-4821-b232-4a1f03fe8bfa" data-name="Black band" d="M78.4,50.44A16.07,16.07,0,0,1,79,53.68c0,4.48-5,7-11.65,7-15,0-28-8.75-28-14.54a5.88,5.88,0,0,1,.48-2.35l1.17-2.89a2,2,0,0,0-.07.62c0,3,11.61,12.61,27.16,12.61,4,0,9.79-.82,9.79-5.58a4.43,4.43,0,0,0-.1-1.09Z"/>
          </g>
        </g>
      </g>
      <path class="b33cf8d9-1fc6-408f-ac56-be8b1d3ea816" d="M88.46,106.18a.86.86,0,0,0-.87.86v6H28v-6a.87.87,0,0,0-1.73,0v6.89a.87.87,0,0,0,.87.87H57v6a.87.87,0,0,0,1.74,0v-6H88.46a.87.87,0,0,0,.87-.87V107A.86.86,0,0,0,88.46,106.18Z"/>
      <path class="b33cf8d9-1fc6-408f-ac56-be8b1d3ea816" d="M441.59,50h-6V8.19a.87.87,0,0,0-.87-.87h-6.89a.87.87,0,0,0,0,1.74h6V50.88h0V92.4h-6a.87.87,0,0,0,0,1.74h6.89a.87.87,0,0,0,.87-.87V51.75h6a.87.87,0,0,0,0-1.73Z"/>
      <path class="b33cf8d9-1fc6-408f-ac56-be8b1d3ea816" d="M392.82,106.18a.85.85,0,0,0-.86.86v6H117.56v-6a.87.87,0,0,0-1.73,0v6.89a.86.86,0,0,0,.86.87h137.2v6a.87.87,0,0,0,1.74,0v-6H392.82a.87.87,0,0,0,.87-.87V107A.86.86,0,0,0,392.82,106.18Z"/>
      <g>
        <path class="a11d47aa-f606-4ebc-b9c9-f3dc5560294b" d="M31.12,130.28H34a2,2,0,0,1,2.19,1.92,1.83,1.83,0,0,1-1.43,1.8l1.5,3h-.81L34,134.1H31.86V137h-.74Zm.74.66v2.54h2.08c.9,0,1.5-.5,1.5-1.28s-.6-1.26-1.5-1.26Z"/>
        <path class="a11d47aa-f606-4ebc-b9c9-f3dc5560294b" d="M39.12,137.07a2.45,2.45,0,0,1-2.47-2.49A2.4,2.4,0,0,1,39,132.11a2.36,2.36,0,0,1,2.27,2.47v.22H37.35a1.8,1.8,0,0,0,1.8,1.64,2.06,2.06,0,0,0,1.32-.44l.44.47A2.78,2.78,0,0,1,39.12,137.07Zm-1.75-2.84h3.21a1.61,1.61,0,0,0-3.21,0Z"/>
        <path class="a11d47aa-f606-4ebc-b9c9-f3dc5560294b" d="M46,136.47a2.19,2.19,0,0,1-1.55.59,2.48,2.48,0,0,1,0-4.95,2.45,2.45,0,0,1,1.54.54v-2.37l.7-.16V137H46Zm-1.48,0a1.89,1.89,0,0,0,1.48-.67v-2.38a1.91,1.91,0,0,0-1.48-.66,1.78,1.78,0,0,0-1.78,1.84A1.81,1.81,0,0,0,44.54,136.44Z"/>
        <path class="a11d47aa-f606-4ebc-b9c9-f3dc5560294b" d="M50.12,130.28h.74v3h3.9v-3h.73V137h-.73v-3h-3.9v3h-.74Z"/>
        <path class="a11d47aa-f606-4ebc-b9c9-f3dc5560294b" d="M56.48,135.62c0-.9.74-1.46,1.91-1.46a3.11,3.11,0,0,1,1.41.32v-.63c0-.76-.44-1.16-1.27-1.16a3.23,3.23,0,0,0-1.5.42l-.27-.54a4,4,0,0,1,1.83-.48c1.22,0,1.9.59,1.9,1.66V137H59.8v-.47a2.26,2.26,0,0,1-1.55.56C57.2,137.07,56.48,136.48,56.48,135.62Zm1.89.89A1.91,1.91,0,0,0,59.8,136v-.9a2.32,2.32,0,0,0-1.39-.39c-.76,0-1.25.37-1.25.93S57.66,136.51,58.37,136.51Z"/>
        <path class="a11d47aa-f606-4ebc-b9c9-f3dc5560294b" d="M62.08,132.79h-1v-.6h1V131l.7-.18v1.4h1.44v.6H62.78v2.94c0,.51.21.71.73.71a1.64,1.64,0,0,0,.7-.12v.62a2.59,2.59,0,0,1-.84.13c-.83,0-1.29-.4-1.29-1.16Z"/>
        <path class="a11d47aa-f606-4ebc-b9c9-f3dc5560294b" d="M66.91,130.79a.48.48,0,0,1,.48-.48.47.47,0,0,1,.48.48.48.48,0,0,1-.48.48A.49.49,0,0,1,66.91,130.79Zm.84,6.19H67v-4.79h.71Z"/>
        <path class="a11d47aa-f606-4ebc-b9c9-f3dc5560294b" d="M72.59,135.82l.44.48a2.69,2.69,0,0,1-1.86.77,2.49,2.49,0,0,1,0-5,2.73,2.73,0,0,1,1.88.76l-.45.51a2,2,0,0,0-1.42-.62,1.85,1.85,0,0,0,0,3.69A2,2,0,0,0,72.59,135.82Z"/>
        <path class="a11d47aa-f606-4ebc-b9c9-f3dc5560294b" d="M75.9,132.09a2.5,2.5,0,1,1-2.45,2.49A2.44,2.44,0,0,1,75.9,132.09Zm1.74,2.49a1.75,1.75,0,1,0-1.74,1.86A1.78,1.78,0,0,0,77.64,134.58Z"/>
        <path class="a11d47aa-f606-4ebc-b9c9-f3dc5560294b" d="M79.33,132.19H80v.56a1.89,1.89,0,0,1,1.51-.66A1.77,1.77,0,0,1,83.4,134v3h-.7v-2.89a1.27,1.27,0,0,0-1.34-1.38,1.48,1.48,0,0,0-1.32.74V137h-.71Z"/>
      </g>
      <g>
        <path class="a11d47aa-f606-4ebc-b9c9-f3dc5560294b" d="M451.93,41.16c1.29,0,2.11.67,2.11,1.73a1.55,1.55,0,0,1-1,1.48,1.67,1.67,0,0,1,1.3,1.61c0,1.15-.9,1.89-2.28,1.89h-2.83V41.16Zm-2,.65v2.27h1.94c.87,0,1.43-.44,1.43-1.13s-.56-1.14-1.43-1.14ZM453.57,46c0-.77-.62-1.26-1.58-1.26h-2v2.52h2C453,47.22,453.57,46.73,453.57,46Z"/>
        <path class="a11d47aa-f606-4ebc-b9c9-f3dc5560294b" d="M456.07,47.87h-.7V41.16l.7-.16Z"/>
        <path class="a11d47aa-f606-4ebc-b9c9-f3dc5560294b" d="M457,46.51c0-.9.74-1.47,1.92-1.47a3.11,3.11,0,0,1,1.4.33v-.64c0-.76-.44-1.15-1.27-1.15a3.12,3.12,0,0,0-1.5.42l-.27-.55a4.13,4.13,0,0,1,1.84-.48c1.21,0,1.89.6,1.89,1.67v3.23h-.69V47.4a2.28,2.28,0,0,1-1.55.55C457.74,48,457,47.37,457,46.51Zm1.9.89a1.91,1.91,0,0,0,1.42-.56v-.9a2.32,2.32,0,0,0-1.39-.38c-.76,0-1.25.36-1.25.93S458.2,47.4,458.92,47.4Z"/>
        <path class="a11d47aa-f606-4ebc-b9c9-f3dc5560294b" d="M465.86,46.71l.44.48a2.72,2.72,0,0,1-1.86.76,2.49,2.49,0,0,1,0-5,2.73,2.73,0,0,1,1.88.76l-.45.52a2,2,0,0,0-1.42-.63,1.85,1.85,0,0,0,0,3.69A2,2,0,0,0,465.86,46.71Z"/>
        <path class="a11d47aa-f606-4ebc-b9c9-f3dc5560294b" d="M467.13,41.16l.71-.16v4.23l2.51-2.16h.86l-2.64,2.28,2.76,2.52h-1l-2.52-2.3v2.3h-.71Z"/>
        <path class="a11d47aa-f606-4ebc-b9c9-f3dc5560294b" d="M476.15,43a2.5,2.5,0,1,1-2.45,2.49A2.45,2.45,0,0,1,476.15,43Zm1.74,2.49a1.75,1.75,0,1,0-1.74,1.87A1.78,1.78,0,0,0,477.89,45.46Z"/>
        <path class="a11d47aa-f606-4ebc-b9c9-f3dc5560294b" d="M479.57,43.07h.71v.68a1.5,1.5,0,0,1,1.34-.79,1.25,1.25,0,0,1,.45.07v.65a1.45,1.45,0,0,0-.5-.08,1.35,1.35,0,0,0-1.29,1v3.29h-.71Z"/>
        <path class="a11d47aa-f606-4ebc-b9c9-f3dc5560294b" d="M484.72,45.44A2.42,2.42,0,0,1,487.14,43a2.35,2.35,0,0,1,1.51.57v-.48h.7V48c0,1.23-.74,1.9-2.07,1.9a3.84,3.84,0,0,1-1.88-.49l.31-.56a3.1,3.1,0,0,0,1.54.44c.91,0,1.39-.44,1.39-1.28v-.64a2.35,2.35,0,0,1-1.52.55A2.41,2.41,0,0,1,484.72,45.44Zm2.45,1.84a1.82,1.82,0,0,0,1.47-.66V44.27a1.82,1.82,0,0,0-1.47-.65,1.83,1.83,0,0,0,0,3.66Z"/>
        <path class="a11d47aa-f606-4ebc-b9c9-f3dc5560294b" d="M490.55,43.07h.71v.68A1.5,1.5,0,0,1,492.6,43a1.25,1.25,0,0,1,.45.07v.65a1.45,1.45,0,0,0-.5-.08,1.35,1.35,0,0,0-1.29,1v3.29h-.71Z"/>
        <path class="a11d47aa-f606-4ebc-b9c9-f3dc5560294b" d="M493.36,46.51c0-.9.73-1.47,1.91-1.47a3.12,3.12,0,0,1,1.41.33v-.64c0-.76-.44-1.15-1.27-1.15a3.18,3.18,0,0,0-1.51.42l-.26-.55a4.1,4.1,0,0,1,1.83-.48c1.22,0,1.9.6,1.9,1.67v3.23h-.69V47.4a2.3,2.3,0,0,1-1.55.55C494.08,48,493.36,47.37,493.36,46.51Zm1.89.89a1.92,1.92,0,0,0,1.43-.56v-.9a2.32,2.32,0,0,0-1.39-.38c-.76,0-1.25.36-1.25.93S494.54,47.4,495.25,47.4Z"/>
        <path class="a11d47aa-f606-4ebc-b9c9-f3dc5560294b" d="M499.86,47.86l-1.95-4.79h.78L500.24,47l1.68-3.93h.76l-2.38,5.51c-.41.93-.86,1.3-1.63,1.3a1.87,1.87,0,0,1-.45,0V49.2a2.33,2.33,0,0,0,.4,0,1,1,0,0,0,1-.74Z"/>
        <path class="a11d47aa-f606-4ebc-b9c9-f3dc5560294b" d="M451.32,59.43a2.42,2.42,0,0,1-1.55-.56v.48h-.69v-6.7l.7-.16v2.57a2.21,2.21,0,0,1,1.54-.58,2.48,2.48,0,0,1,0,5Zm-1.54-3.66v2.38a1.91,1.91,0,0,0,1.48.66,1.86,1.86,0,0,0,0-3.71A1.87,1.87,0,0,0,449.78,55.77Z"/>
        <path class="a11d47aa-f606-4ebc-b9c9-f3dc5560294b" d="M457,54.46A2.5,2.5,0,1,1,454.51,57,2.44,2.44,0,0,1,457,54.46ZM458.71,57A1.75,1.75,0,1,0,457,58.82,1.79,1.79,0,0,0,458.71,57Z"/>
        <path class="a11d47aa-f606-4ebc-b9c9-f3dc5560294b" d="M461.07,57.45a1.27,1.27,0,0,0,1.34,1.38,1.49,1.49,0,0,0,1.32-.75V54.56h.71v4.79h-.71V58.8a1.89,1.89,0,0,1-1.5.65,1.77,1.77,0,0,1-1.86-1.86v-3h.7Z"/>
        <path class="a11d47aa-f606-4ebc-b9c9-f3dc5560294b" d="M465.65,54.56h.7v.56a1.91,1.91,0,0,1,1.52-.66,1.76,1.76,0,0,1,1.84,1.86v3H469V56.46a1.26,1.26,0,0,0-1.34-1.38,1.5,1.5,0,0,0-1.32.74v3.53h-.7Z"/>
        <path class="a11d47aa-f606-4ebc-b9c9-f3dc5560294b" d="M474.64,58.85a2.22,2.22,0,0,1-1.55.58,2.48,2.48,0,0,1,0-5,2.37,2.37,0,0,1,1.53.55V52.65l.71-.16v6.86h-.7Zm-1.48,0a1.85,1.85,0,0,0,1.47-.67V55.76a1.89,1.89,0,0,0-1.47-.66,1.77,1.77,0,0,0-1.78,1.84A1.8,1.8,0,0,0,473.16,58.81Z"/>
        <path class="a11d47aa-f606-4ebc-b9c9-f3dc5560294b" d="M476.42,53.16a.48.48,0,0,1,.48-.48.47.47,0,0,1,.48.48.48.48,0,0,1-.48.48A.49.49,0,0,1,476.42,53.16Zm.84,6.19h-.71V54.56h.71Z"/>
        <path class="a11d47aa-f606-4ebc-b9c9-f3dc5560294b" d="M478.46,54.56h.71v.56a1.89,1.89,0,0,1,1.51-.66,1.77,1.77,0,0,1,1.85,1.86v3h-.7V56.46a1.26,1.26,0,0,0-1.34-1.38,1.5,1.5,0,0,0-1.32.74v3.53h-.71Z"/>
        <path class="a11d47aa-f606-4ebc-b9c9-f3dc5560294b" d="M483.5,56.93a2.4,2.4,0,0,1,2.41-2.46,2.37,2.37,0,0,1,1.51.56v-.47h.7v4.91c0,1.22-.73,1.9-2.07,1.9a3.68,3.68,0,0,1-1.87-.5l.3-.55a3.17,3.17,0,0,0,1.55.44c.91,0,1.38-.44,1.38-1.28v-.64a2.33,2.33,0,0,1-1.52.55A2.4,2.4,0,0,1,483.5,56.93ZM486,58.77a1.8,1.8,0,0,0,1.46-.66V55.75A1.83,1.83,0,0,0,486,55.1a1.84,1.84,0,0,0,0,3.67Z"/>
        <path class="a11d47aa-f606-4ebc-b9c9-f3dc5560294b" d="M491.33,58.23a2.31,2.31,0,0,0,1.56.64c.77,0,1.3-.35,1.3-.86s-.28-.64-.89-.73l-.83-.11c-1-.14-1.42-.56-1.42-1.29s.75-1.4,1.8-1.4a3.09,3.09,0,0,1,1.89.63l-.38.48a2.7,2.7,0,0,0-1.55-.54c-.66,0-1.11.33-1.11.8s.26.61.89.71l.84.11c.95.14,1.43.57,1.43,1.3s-.84,1.47-1.94,1.47a2.91,2.91,0,0,1-2-.75Z"/>
        <path class="a11d47aa-f606-4ebc-b9c9-f3dc5560294b" d="M495.66,52.65l.7-.16v2.63a1.91,1.91,0,0,1,1.52-.66,1.76,1.76,0,0,1,1.84,1.86v3H499V56.46a1.26,1.26,0,0,0-1.34-1.38,1.5,1.5,0,0,0-1.32.74v3.53h-.7Z"/>
        <path class="a11d47aa-f606-4ebc-b9c9-f3dc5560294b" d="M500.65,58c0-.9.74-1.46,1.92-1.46a3.07,3.07,0,0,1,1.4.32v-.63c0-.76-.44-1.16-1.27-1.16a3.23,3.23,0,0,0-1.5.42l-.27-.54a4,4,0,0,1,1.84-.48c1.21,0,1.89.59,1.89,1.67v3.22H504v-.47a2.24,2.24,0,0,1-1.55.56C501.37,59.44,500.65,58.85,500.65,58Zm1.9.89a1.91,1.91,0,0,0,1.42-.55v-.9a2.31,2.31,0,0,0-1.38-.38c-.77,0-1.26.36-1.26.92S501.83,58.88,502.55,58.88Z"/>
        <path class="a11d47aa-f606-4ebc-b9c9-f3dc5560294b" d="M505.85,54.56h.7v.51a2.2,2.2,0,0,1,1.55-.59,2.48,2.48,0,1,1-1.54,4.39v2.44h-.71Zm.71,1.21v2.38a1.89,1.89,0,0,0,1.47.66,1.86,1.86,0,0,0,0-3.71A1.85,1.85,0,0,0,506.56,55.77Z"/>
        <path class="a11d47aa-f606-4ebc-b9c9-f3dc5560294b" d="M513.76,59.44A2.44,2.44,0,0,1,511.29,57a2.4,2.4,0,0,1,2.36-2.47A2.35,2.35,0,0,1,515.92,57v.22H512a1.8,1.8,0,0,0,1.8,1.65,2.16,2.16,0,0,0,1.32-.44l.44.47A2.85,2.85,0,0,1,513.76,59.44ZM512,56.61h3.2a1.6,1.6,0,0,0-3.2,0Z"/>
      </g>
      <g>
        <path class="a11d47aa-f606-4ebc-b9c9-f3dc5560294b" d="M200.72,130.28h2.87a2,2,0,0,1,2.19,1.92,1.83,1.83,0,0,1-1.43,1.8l1.5,3H205l-1.44-2.88h-2.14V137h-.74Zm.74.66v2.54h2.09c.9,0,1.49-.5,1.49-1.28s-.59-1.26-1.49-1.26Z"/>
        <path class="a11d47aa-f606-4ebc-b9c9-f3dc5560294b" d="M208.72,137.07a2.45,2.45,0,0,1-2.47-2.49,2.4,2.4,0,0,1,2.37-2.47,2.36,2.36,0,0,1,2.27,2.47v.22H207a1.8,1.8,0,0,0,1.8,1.64,2.06,2.06,0,0,0,1.32-.44l.44.47A2.78,2.78,0,0,1,208.72,137.07ZM207,134.23h3.21a1.61,1.61,0,0,0-3.21,0Z"/>
        <path class="a11d47aa-f606-4ebc-b9c9-f3dc5560294b" d="M215.63,136.47a2.23,2.23,0,0,1-1.56.59,2.48,2.48,0,0,1,0-4.95,2.45,2.45,0,0,1,1.54.54v-2.37l.7-.16V137h-.69Zm-1.49,0a1.87,1.87,0,0,0,1.48-.67v-2.38a1.91,1.91,0,0,0-1.48-.66,1.78,1.78,0,0,0-1.78,1.84A1.81,1.81,0,0,0,214.14,136.44Z"/>
        <path class="a11d47aa-f606-4ebc-b9c9-f3dc5560294b" d="M219.72,130.28h.74v3h3.9v-3h.73V137h-.73v-3h-3.9v3h-.74Z"/>
        <path class="a11d47aa-f606-4ebc-b9c9-f3dc5560294b" d="M226.08,135.62c0-.9.74-1.46,1.91-1.46a3.11,3.11,0,0,1,1.41.32v-.63c0-.76-.44-1.16-1.27-1.16a3.23,3.23,0,0,0-1.5.42l-.27-.54a4,4,0,0,1,1.84-.48c1.21,0,1.89.59,1.89,1.66V137h-.69v-.47a2.26,2.26,0,0,1-1.55.56C226.8,137.07,226.08,136.48,226.08,135.62Zm1.9.89a1.91,1.91,0,0,0,1.42-.55v-.9a2.32,2.32,0,0,0-1.39-.39c-.76,0-1.25.37-1.25.93S227.26,136.51,228,136.51Z"/>
        <path class="a11d47aa-f606-4ebc-b9c9-f3dc5560294b" d="M231.68,132.79h-1v-.6h1V131l.7-.18v1.4h1.44v.6h-1.44v2.94c0,.51.21.71.73.71a1.64,1.64,0,0,0,.7-.12v.62a2.59,2.59,0,0,1-.84.13c-.83,0-1.29-.4-1.29-1.16Z"/>
        <path class="a11d47aa-f606-4ebc-b9c9-f3dc5560294b" d="M236.77,130.28H239a3.35,3.35,0,1,1,0,6.7h-2.21Zm.74.67v5.36H239a2.68,2.68,0,1,0,0-5.36Z"/>
        <path class="a11d47aa-f606-4ebc-b9c9-f3dc5560294b" d="M243.41,130.79a.48.48,0,1,1,.47.48A.48.48,0,0,1,243.41,130.79Zm.83,6.19h-.71v-4.79h.71Z"/>
        <path class="a11d47aa-f606-4ebc-b9c9-f3dc5560294b" d="M245.39,135.86a2.29,2.29,0,0,0,1.56.64c.76,0,1.3-.35,1.3-.86s-.28-.64-.89-.73l-.83-.11c-1-.15-1.42-.57-1.42-1.29s.75-1.4,1.8-1.4a3.09,3.09,0,0,1,1.89.63l-.38.48a2.7,2.7,0,0,0-1.55-.54c-.66,0-1.11.33-1.11.8s.26.61.89.71l.83.11c1,.14,1.44.57,1.44,1.3s-.84,1.47-1.94,1.47a2.89,2.89,0,0,1-2-.75Z"/>
        <path class="a11d47aa-f606-4ebc-b9c9-f3dc5560294b" d="M249.71,132.19h.7v.51a2.2,2.2,0,0,1,1.55-.59,2.48,2.48,0,0,1,0,4.95,2.38,2.38,0,0,1-1.53-.56v2.44h-.71Zm.71,1.21v2.37a1.89,1.89,0,0,0,1.48.67,1.86,1.86,0,0,0,0-3.71A1.87,1.87,0,0,0,250.42,133.4Z"/>
        <path class="a11d47aa-f606-4ebc-b9c9-f3dc5560294b" d="M256.07,137h-.71v-6.7l.71-.16Z"/>
        <path class="a11d47aa-f606-4ebc-b9c9-f3dc5560294b" d="M257,135.62c0-.9.74-1.46,1.91-1.46a3.11,3.11,0,0,1,1.41.32v-.63c0-.76-.44-1.16-1.27-1.16a3.3,3.3,0,0,0-1.51.42l-.26-.54a4,4,0,0,1,1.83-.48c1.22,0,1.9.59,1.9,1.66V137h-.69v-.47a2.26,2.26,0,0,1-1.55.56C257.74,137.07,257,136.48,257,135.62Zm1.89.89a1.91,1.91,0,0,0,1.43-.55v-.9a2.32,2.32,0,0,0-1.39-.39c-.76,0-1.25.37-1.25.93S258.2,136.51,258.91,136.51Z"/>
        <path class="a11d47aa-f606-4ebc-b9c9-f3dc5560294b" d="M263.52,137l-1.95-4.78h.78l1.55,3.93,1.68-3.93h.76L264,137.7c-.41.93-.86,1.3-1.63,1.3a1.81,1.81,0,0,1-.45-.05v-.64a1.59,1.59,0,0,0,.4,0c.43,0,.73-.24,1-.75Z"/>
        <path class="a11d47aa-f606-4ebc-b9c9-f3dc5560294b" d="M269.65,132.79h-1v-.6h1V131l.7-.18v1.4h1.45v.6h-1.45v2.94c0,.51.21.71.74.71a1.64,1.64,0,0,0,.7-.12v.62a2.63,2.63,0,0,1-.84.13c-.84,0-1.3-.4-1.3-1.16Z"/>
        <path class="a11d47aa-f606-4ebc-b9c9-f3dc5560294b" d="M274.05,137l-2-4.78h.79l1.55,3.93,1.68-3.93h.76l-2.38,5.51c-.41.93-.86,1.3-1.63,1.3a1.81,1.81,0,0,1-.45-.05v-.64a1.59,1.59,0,0,0,.4,0c.43,0,.73-.24,1-.75Z"/>
        <path class="a11d47aa-f606-4ebc-b9c9-f3dc5560294b" d="M277.53,132.19h.7v.51a2.2,2.2,0,0,1,1.55-.59,2.48,2.48,0,1,1-1.54,4.39v2.44h-.71Zm.71,1.21v2.37a1.88,1.88,0,0,0,1.47.67,1.86,1.86,0,0,0,0-3.71A1.87,1.87,0,0,0,278.24,133.4Z"/>
        <path class="a11d47aa-f606-4ebc-b9c9-f3dc5560294b" d="M285.44,137.07a2.44,2.44,0,0,1-2.47-2.49,2.4,2.4,0,0,1,2.36-2.47,2.35,2.35,0,0,1,2.27,2.47v.22h-3.93a1.79,1.79,0,0,0,1.8,1.64,2.08,2.08,0,0,0,1.32-.44l.44.47A2.8,2.8,0,0,1,285.44,137.07Zm-1.75-2.84h3.2a1.6,1.6,0,0,0-3.2,0Z"/>
        <path class="a11d47aa-f606-4ebc-b9c9-f3dc5560294b" d="M289.09,132.19v-.91a1.32,1.32,0,0,1,1.48-1.46,1.77,1.77,0,0,1,.64.09v.63a1.74,1.74,0,0,0-.59-.1c-.57,0-.83.27-.83.85v.9h1.42v.6h-1.42V137h-.7v-4.19H288v-.6Z"/>
        <path class="a11d47aa-f606-4ebc-b9c9-f3dc5560294b" d="M291.64,135.62c0-.9.74-1.46,1.92-1.46a3.1,3.1,0,0,1,1.4.32v-.63c0-.76-.44-1.16-1.27-1.16a3.23,3.23,0,0,0-1.5.42l-.27-.54a4,4,0,0,1,1.84-.48c1.21,0,1.89.59,1.89,1.66V137H295v-.47a2.24,2.24,0,0,1-1.55.56C292.36,137.07,291.64,136.48,291.64,135.62Zm1.9.89A1.91,1.91,0,0,0,295,136v-.9a2.31,2.31,0,0,0-1.38-.39c-.77,0-1.26.37-1.26.93S292.82,136.51,293.54,136.51Z"/>
        <path class="a11d47aa-f606-4ebc-b9c9-f3dc5560294b" d="M300.48,135.82l.44.48a2.69,2.69,0,0,1-1.86.77,2.49,2.49,0,0,1,0-5,2.73,2.73,0,0,1,1.88.76l-.45.51a2,2,0,0,0-1.42-.62,1.85,1.85,0,0,0,0,3.69A2,2,0,0,0,300.48,135.82Z"/>
        <path class="a11d47aa-f606-4ebc-b9c9-f3dc5560294b" d="M303.81,137.07a2.44,2.44,0,0,1-2.47-2.49,2.4,2.4,0,0,1,2.36-2.47,2.35,2.35,0,0,1,2.27,2.47v.22H302a1.79,1.79,0,0,0,1.8,1.64,2.08,2.08,0,0,0,1.32-.44l.44.47A2.8,2.8,0,0,1,303.81,137.07Zm-1.75-2.84h3.2a1.6,1.6,0,0,0-3.2,0Z"/>
      </g>
    </g>
    <g>
      <rect class="e4891f6f-a8fe-4254-8383-fe089efa0b0e" x="586.16" y="1" width="420.93" height="99.16" rx="11.1"/>
      <g>
        <path class="fefc9a03-7ada-46f8-9122-25d8589e79d0" d="M709.18,24.26h3.55L721,44.48h-3.3l-2.34-5.92h-9L704,44.48H700.8ZM714.38,36l-3.52-8.87L707.33,36Z"/>
        <path class="fefc9a03-7ada-46f8-9122-25d8589e79d0" d="M718.11,29.77h3.18l4.59,11,4.59-11h3.1l-6.36,14.71h-2.74Z"/>
        <path class="fefc9a03-7ada-46f8-9122-25d8589e79d0" d="M734.32,40.26c0-2.77,2.25-4.48,5.95-4.48a10.42,10.42,0,0,1,4,.81V35c0-2.08-1.25-3.12-3.59-3.12a10.55,10.55,0,0,0-4.56,1.24L735.07,31a13.79,13.79,0,0,1,6-1.51c3.81,0,6,1.88,6,5.26v9.74h-2.83V43.21a7,7,0,0,1-4.57,1.53C736.51,44.74,734.32,42.92,734.32,40.26Zm6.07,2.34a5.63,5.63,0,0,0,3.9-1.39V38.67a7.64,7.64,0,0,0-3.79-.89c-2.11,0-3.41.95-3.41,2.42S738.42,42.6,740.39,42.6Z"/>
        <path class="fefc9a03-7ada-46f8-9122-25d8589e79d0" d="M749.84,25.61a1.78,1.78,0,0,1,1.76-1.79,1.79,1.79,0,0,1,0,3.58A1.77,1.77,0,0,1,749.84,25.61ZM753,44.48h-2.89V29.77H753Z"/>
        <path class="fefc9a03-7ada-46f8-9122-25d8589e79d0" d="M759.05,44.48h-2.89V24.26l2.89-.64Z"/>
        <path class="fefc9a03-7ada-46f8-9122-25d8589e79d0" d="M761.42,40.26c0-2.77,2.25-4.48,6-4.48a10.38,10.38,0,0,1,4,.81V35c0-2.08-1.24-3.12-3.58-3.12a10.55,10.55,0,0,0-4.57,1.24L762.17,31a13.79,13.79,0,0,1,6-1.51c3.81,0,6,1.88,6,5.26v9.74h-2.83V43.21a7,7,0,0,1-4.57,1.53C763.62,44.74,761.42,42.92,761.42,40.26Zm6.07,2.34a5.63,5.63,0,0,0,3.9-1.39V38.67a7.61,7.61,0,0,0-3.79-.89c-2.11,0-3.41.95-3.41,2.42S765.52,42.6,767.49,42.6Z"/>
        <path class="fefc9a03-7ada-46f8-9122-25d8589e79d0" d="M784.57,44.71a7.36,7.36,0,0,1-4.45-1.47v1.24h-2.86V24.26l2.89-.64v7.54a6.8,6.8,0,0,1,4.47-1.62,7.59,7.59,0,0,1,0,15.17Zm-4.42-10.89v6.64a5.44,5.44,0,0,0,4.1,1.74,5.07,5.07,0,0,0,0-10.14A5.25,5.25,0,0,0,780.15,33.82Z"/>
        <path class="fefc9a03-7ada-46f8-9122-25d8589e79d0" d="M797.39,44.48h-2.88V24.26l2.88-.64Z"/>
        <path class="fefc9a03-7ada-46f8-9122-25d8589e79d0" d="M807.56,44.74a7.57,7.57,0,0,1-7.71-7.63,7.39,7.39,0,0,1,7.37-7.57c4,0,7.1,3.35,7.1,7.69v.83H802.71a5,5,0,0,0,5,4.22,5.74,5.74,0,0,0,3.73-1.3l1.85,1.82A8.79,8.79,0,0,1,807.56,44.74Zm-4.82-8.84h8.72a4.38,4.38,0,0,0-8.72,0Z"/>
        <path class="fefc9a03-7ada-46f8-9122-25d8589e79d0" d="M829.52,29.48a7.65,7.65,0,1,1-7.65,7.63A7.55,7.55,0,0,1,829.52,29.48Zm4.8,7.63a4.82,4.82,0,1,0-4.8,5.12A4.91,4.91,0,0,0,834.32,37.11Z"/>
        <path class="fefc9a03-7ada-46f8-9122-25d8589e79d0" d="M839.61,29.77h2.89v1.48a6,6,0,0,1,4.42-1.77,5.49,5.49,0,0,1,5.75,5.75v9.25h-2.89V35.72A3.42,3.42,0,0,0,846.14,32a4.16,4.16,0,0,0-3.64,1.9V44.48h-2.89Z"/>
        <path class="fefc9a03-7ada-46f8-9122-25d8589e79d0" d="M702.59,57.28h9.88c4.11,0,7,2.57,7,6.27a6,6,0,0,1-4,5.63L720,77.5H715.3l-3.95-7.74h-4.57V77.5h-4.19Zm4.19,3.61v5.43h5.32c1.88,0,3.12-1.1,3.12-2.71s-1.24-2.72-3.12-2.72Z"/>
        <path class="fefc9a03-7ada-46f8-9122-25d8589e79d0" d="M728.19,77.79A7.84,7.84,0,0,1,720.1,70a7.69,7.69,0,0,1,7.75-7.8c4.27,0,7.45,3.47,7.45,8.09v1H724.09a4.34,4.34,0,0,0,4.28,3.15,4.75,4.75,0,0,0,3.32-1.22l2.6,2.37A9,9,0,0,1,728.19,77.79Zm-4.13-9.3h7.37a3.89,3.89,0,0,0-3.67-3A3.79,3.79,0,0,0,724.06,68.49Z"/>
        <path class="fefc9a03-7ada-46f8-9122-25d8589e79d0" d="M748.79,76.26a6.82,6.82,0,0,1-4.27,1.44,7.73,7.73,0,0,1,.11-15.45,7.5,7.5,0,0,1,4.11,1.18V57.28l4-.87V77.5h-3.9Zm-3.64-1.94a4.86,4.86,0,0,0,3.59-1.44V67a5,5,0,0,0-3.59-1.41,4.36,4.36,0,1,0,0,8.72Z"/>
        <path class="fefc9a03-7ada-46f8-9122-25d8589e79d0" d="M761.31,57.28h4.19V65.4h9.3V57.28H779V77.5H774.8V69.24h-9.3V77.5h-4.19Z"/>
        <path class="fefc9a03-7ada-46f8-9122-25d8589e79d0" d="M781.1,73.14c0-2.86,2.31-4.57,6.18-4.57a12.35,12.35,0,0,1,3.67.58V68.08c0-1.73-1.07-2.63-3.18-2.63a11.66,11.66,0,0,0-4.59,1.25l-1.45-2.92a15.69,15.69,0,0,1,6.71-1.62c4.07,0,6.41,2,6.41,5.58V77.5H791v-1a7.12,7.12,0,0,1-4.36,1.3C783.35,77.76,781.1,75.88,781.1,73.14Zm6.53,1.79A5.72,5.72,0,0,0,791,74V71.72a8.85,8.85,0,0,0-3.18-.55c-1.82,0-2.89.73-2.89,1.88S786,74.93,787.63,74.93Z"/>
        <path class="fefc9a03-7ada-46f8-9122-25d8589e79d0" d="M799,65.77H796V62.45H799V58.61l4-.9v4.74h4.28v3.32H803v6.68c0,1.41.55,1.93,2.08,1.93a6.1,6.1,0,0,0,2.11-.35v3.24a12.32,12.32,0,0,1-3.06.46c-3.35,0-5.09-1.53-5.09-4.48Z"/>
        <path class="fefc9a03-7ada-46f8-9122-25d8589e79d0" d="M818.6,62.62V77.5h-3.87V57.28h5.38l5.54,10.86,5.55-10.86h5.37V77.5h-4V62.65l-7,13.41Z"/>
        <path class="fefc9a03-7ada-46f8-9122-25d8589e79d0" d="M838.66,73.14c0-2.86,2.31-4.57,6.18-4.57a12.4,12.4,0,0,1,3.67.58V68.08c0-1.73-1.07-2.63-3.18-2.63a11.62,11.62,0,0,0-4.59,1.25l-1.45-2.92A15.69,15.69,0,0,1,846,62.16c4.07,0,6.41,2,6.41,5.58V77.5h-3.9v-1a7.12,7.12,0,0,1-4.36,1.3C840.91,77.76,838.66,75.88,838.66,73.14Zm6.53,1.79a5.74,5.74,0,0,0,3.32-1V71.72a8.85,8.85,0,0,0-3.18-.55c-1.82,0-2.89.73-2.89,1.88S843.51,74.93,845.19,74.93Z"/>
        <path class="fefc9a03-7ada-46f8-9122-25d8589e79d0" d="M855.13,62.45h4V64.1a4.82,4.82,0,0,1,4-2,3.46,3.46,0,0,1,1.65.35v3.47a5.07,5.07,0,0,0-2-.41,4,4,0,0,0-3.64,2.26V77.5h-4Z"/>
        <path class="fefc9a03-7ada-46f8-9122-25d8589e79d0" d="M866.6,57.28l4-.87v12.4l6.5-6.36h4.47l-7,6.9L882,77.5h-5.06l-6.35-6.87V77.5h-4Z"/>
        <path class="fefc9a03-7ada-46f8-9122-25d8589e79d0" d="M889,77.79A7.84,7.84,0,0,1,880.9,70a7.68,7.68,0,0,1,7.74-7.8c4.28,0,7.46,3.47,7.46,8.09v1H884.89a4.33,4.33,0,0,0,4.27,3.15,4.76,4.76,0,0,0,3.33-1.22l2.6,2.37A9,9,0,0,1,889,77.79Zm-4.13-9.3h7.37a3.9,3.9,0,0,0-3.67-3A3.79,3.79,0,0,0,884.86,68.49Z"/>
        <path class="fefc9a03-7ada-46f8-9122-25d8589e79d0" d="M899.71,65.77h-3.09V62.45h3.09V58.61l4-.9v4.74H908v3.32h-4.28v6.68c0,1.41.55,1.93,2.08,1.93a6.1,6.1,0,0,0,2.11-.35v3.24a12.32,12.32,0,0,1-3.06.46c-3.36,0-5.09-1.53-5.09-4.48Z"/>
        <path class="fefc9a03-7ada-46f8-9122-25d8589e79d0" d="M909.62,62.45h3.9v1.24a6.87,6.87,0,0,1,4.28-1.44,7.73,7.73,0,0,1-.12,15.45,7.47,7.47,0,0,1-4.1-1.18v7h-4Zm4,4.59V73a5.1,5.1,0,0,0,3.58,1.38,4.36,4.36,0,1,0,0-8.72A4.88,4.88,0,0,0,913.58,67Z"/>
        <path class="fefc9a03-7ada-46f8-9122-25d8589e79d0" d="M931.55,77.5H927.6V57.28l3.95-.87Z"/>
        <path class="fefc9a03-7ada-46f8-9122-25d8589e79d0" d="M933.63,73.14c0-2.86,2.31-4.57,6.19-4.57a12.28,12.28,0,0,1,3.66.58V68.08c0-1.73-1.06-2.63-3.17-2.63a11.7,11.7,0,0,0-4.6,1.25l-1.44-2.92a15.65,15.65,0,0,1,6.7-1.62c4.07,0,6.42,2,6.42,5.58V77.5h-3.91v-1a7.1,7.1,0,0,1-4.36,1.3C935.89,77.76,933.63,75.88,933.63,73.14Zm6.53,1.79a5.72,5.72,0,0,0,3.32-1V71.72a8.83,8.83,0,0,0-3.17-.55c-1.82,0-2.89.73-2.89,1.88S938.49,74.93,940.16,74.93Z"/>
        <path class="fefc9a03-7ada-46f8-9122-25d8589e79d0" d="M961.05,72.65l2.37,2.45a8.33,8.33,0,0,1-6.12,2.69,7.82,7.82,0,1,1,0-15.63,8.46,8.46,0,0,1,6.24,2.69l-2.43,2.57a4.9,4.9,0,0,0-3.73-1.82,4.37,4.37,0,0,0,.09,8.72A4.68,4.68,0,0,0,961.05,72.65Z"/>
        <path class="fefc9a03-7ada-46f8-9122-25d8589e79d0" d="M972,77.79a7.83,7.83,0,0,1-8.08-7.8,7.68,7.68,0,0,1,7.74-7.8c4.27,0,7.45,3.47,7.45,8.09v1H967.9a4.34,4.34,0,0,0,4.28,3.15,4.74,4.74,0,0,0,3.32-1.22l2.6,2.37A9,9,0,0,1,972,77.79Zm-4.13-9.3h7.37a3.89,3.89,0,0,0-3.67-3A3.79,3.79,0,0,0,967.87,68.49Z"/>
      </g>
      <g id="a7ca90bd-60c1-4887-b6dc-638842a918fd" data-name="Hat icon">
        <g>
          <path id="a88c0184-0b4e-43f2-be8c-0655f909a12d" data-name="Red hat" class="f4bda82d-2530-4b87-8e8a-80f75dd9b3ba" d="M654.15,54.09c4,0,9.79-.82,9.79-5.58a4.43,4.43,0,0,0-.1-1.09l-2.38-10.35c-.55-2.28-1-3.31-5-5.31-3.11-1.59-9.86-4.2-11.86-4.2S642.16,30,640,30s-3.72-1.79-5.72-1.79-3.17,1.31-4.14,4c0,0-2.68,7.59-3,8.69a2,2,0,0,0-.07.62C627,44.43,638.6,54.09,654.15,54.09Zm10.41-3.65a16.07,16.07,0,0,1,.55,3.24c0,4.48-5,7-11.65,7-15,0-28.05-8.75-28.05-14.54a5.88,5.88,0,0,1,.48-2.35c-5.38.28-12.34,1.25-12.34,7.38,0,10.07,23.85,22.47,42.74,22.47,14.47,0,18.13-6.55,18.13-11.72C674.42,57.82,670.9,53.2,664.56,50.44Z"/>
          <path id="aef05e7a-bafd-427b-86c7-f8dc8462f7ad" data-name="Black band" d="M664.56,50.44a16.07,16.07,0,0,1,.55,3.24c0,4.48-5,7-11.65,7-15,0-28.05-8.75-28.05-14.54a5.88,5.88,0,0,1,.48-2.35l1.17-2.89a2,2,0,0,0-.07.62c0,3,11.61,12.61,27.16,12.61,4,0,9.79-.82,9.79-5.58a4.43,4.43,0,0,0-.1-1.09Z"/>
        </g>
      </g>
    </g>
  </g>
</svg>
