<svg xmlns="http://www.w3.org/2000/svg" viewBox="0 0 555 189.34">
  <defs>
    <style>
      .b601a69f-e755-4531-8c47-e66f7c02323a, .b6b32444-ee9f-47a9-9302-5d7184c5eafa {
        fill: #06c;
      }

      .b6b32444-ee9f-47a9-9302-5d7184c5eafa {
        opacity: 0.25;
      }

      .bbeba957-299d-4d8b-a7f5-4a8c0cf4dcd9 {
        fill: #fff;
      }

      .f481db8d-ab21-4f96-8e27-9ca55e9f2fdf {
        opacity: 0.5;
      }

      .fe9f2219-d6da-49af-9a24-fae0a2f0548b {
        fill: #e00;
      }
    </style>
  </defs>
  <g id="b824262b-da27-4cfd-ab70-9700c7b7ae0c" data-name="Section: Logo and clear space">
    <g>
      <rect class="b6b32444-ee9f-47a9-9302-5d7184c5eafa" x="0.41" y="0.41" width="554.18" height="188.49"/>
      <rect class="bbeba957-299d-4d8b-a7f5-4a8c0cf4dcd9" x="26.26" y="27.55" width="502.48" height="134.21"/>
      <g class="f481db8d-ab21-4f96-8e27-9ca55e9f2fdf">
        <path class="b601a69f-e755-4531-8c47-e66f7c02323a" d="M2.88,42H.41a.42.42,0,0,1,0-.83H2.88a.42.42,0,0,1,0,.83Z"/>
        <path class="b601a69f-e755-4531-8c47-e66f7c02323a" d="M547.18,42h-4.95a.42.42,0,0,1,0-.83h4.95a.42.42,0,0,1,0,.83Zm-9.9,0h-4.95a.42.42,0,0,1,0-.83h4.95a.42.42,0,0,1,0,.83Zm-9.9,0h-5a.42.42,0,0,1,0-.83h5a.42.42,0,0,1,0,.83Zm-9.89,0h-5a.42.42,0,0,1,0-.83h5a.42.42,0,0,1,0,.83Zm-9.9,0h-4.95a.42.42,0,0,1,0-.83h4.95a.42.42,0,0,1,0,.83Zm-9.9,0h-4.94a.42.42,0,1,1,0-.83h4.94a.42.42,0,0,1,0,.83Zm-9.89,0h-4.95a.42.42,0,0,1,0-.83h4.95a.42.42,0,0,1,0,.83Zm-9.9,0H473a.42.42,0,0,1,0-.83h4.95a.42.42,0,0,1,0,.83ZM468,42h-4.94a.42.42,0,0,1,0-.83H468a.42.42,0,1,1,0,.83Zm-9.89,0h-4.95a.42.42,0,0,1,0-.83h4.95a.42.42,0,0,1,0,.83Zm-9.9,0h-4.95a.42.42,0,0,1,0-.83h4.95a.42.42,0,0,1,0,.83Zm-9.89,0h-4.95a.42.42,0,0,1,0-.83h4.95a.42.42,0,0,1,0,.83Zm-9.9,0h-4.95a.42.42,0,0,1,0-.83h4.95a.42.42,0,0,1,0,.83Zm-9.9,0h-4.95a.42.42,0,0,1,0-.83h4.95a.42.42,0,0,1,0,.83Zm-9.89,0h-4.95a.42.42,0,0,1,0-.83h4.95a.42.42,0,0,1,0,.83Zm-9.9,0h-5a.42.42,0,0,1,0-.83h5a.42.42,0,0,1,0,.83Zm-9.9,0h-4.94a.42.42,0,1,1,0-.83h4.94a.42.42,0,0,1,0,.83Zm-9.89,0H374a.42.42,0,0,1,0-.83h4.95a.42.42,0,0,1,0,.83ZM369,42h-5a.42.42,0,0,1,0-.83h5a.42.42,0,0,1,0,.83Zm-9.89,0H354.2a.42.42,0,0,1,0-.83h4.95a.42.42,0,0,1,0,.83Zm-9.9,0H344.3a.42.42,0,0,1,0-.83h4.95a.42.42,0,0,1,0,.83Zm-9.9,0h-5a.42.42,0,0,1,0-.83h5a.42.42,0,0,1,0,.83Zm-9.89,0h-4.95a.42.42,0,0,1,0-.83h4.95a.42.42,0,0,1,0,.83Zm-9.9,0h-4.95a.42.42,0,0,1,0-.83h4.95a.42.42,0,0,1,0,.83Zm-9.9,0h-5a.42.42,0,0,1,0-.83h5a.42.42,0,0,1,0,.83Zm-9.89,0h-4.95a.42.42,0,0,1,0-.83h4.95a.42.42,0,0,1,0,.83Zm-9.9,0h-4.95a.42.42,0,0,1,0-.83h4.95a.42.42,0,0,1,0,.83ZM280,42H275a.42.42,0,0,1,0-.83H280a.42.42,0,1,1,0,.83Zm-9.89,0h-4.95a.42.42,0,0,1,0-.83h4.95a.42.42,0,0,1,0,.83Zm-9.9,0h-5a.42.42,0,0,1,0-.83h5a.42.42,0,0,1,0,.83Zm-9.89,0h-4.95a.42.42,0,0,1,0-.83h4.95a.42.42,0,0,1,0,.83Zm-9.9,0h-4.95a.42.42,0,0,1,0-.83h4.95a.42.42,0,0,1,0,.83Zm-9.9,0h-5a.42.42,0,0,1,0-.83h5a.42.42,0,0,1,0,.83Zm-9.89,0h-4.95a.42.42,0,0,1,0-.83h4.95a.42.42,0,0,1,0,.83Zm-9.9,0h-4.95a.42.42,0,0,1,0-.83h4.95a.42.42,0,0,1,0,.83Zm-9.9,0h-4.94a.42.42,0,1,1,0-.83h4.94a.42.42,0,0,1,0,.83Zm-9.89,0H186a.42.42,0,0,1,0-.83h4.95a.42.42,0,0,1,0,.83ZM181,42h-4.95a.42.42,0,0,1,0-.83H181a.42.42,0,0,1,0,.83Zm-9.9,0h-4.94a.42.42,0,0,1,0-.83h4.94a.42.42,0,1,1,0,.83Zm-9.89,0h-4.95a.42.42,0,0,1,0-.83h4.95a.42.42,0,0,1,0,.83Zm-9.9,0h-4.95a.42.42,0,0,1,0-.83h4.95a.42.42,0,0,1,0,.83Zm-9.89,0h-5a.42.42,0,0,1,0-.83h5a.42.42,0,0,1,0,.83Zm-9.9,0h-5a.42.42,0,0,1,0-.83h5a.42.42,0,0,1,0,.83Zm-9.9,0h-4.95a.42.42,0,0,1,0-.83h4.95a.42.42,0,0,1,0,.83Zm-9.89,0h-4.95a.42.42,0,0,1,0-.83h4.95a.42.42,0,0,1,0,.83Zm-9.9,0h-5a.42.42,0,0,1,0-.83h5a.42.42,0,0,1,0,.83Zm-9.9,0H87a.42.42,0,1,1,0-.83h4.94a.42.42,0,0,1,0,.83Zm-9.89,0h-5a.42.42,0,0,1,0-.83h5a.42.42,0,0,1,0,.83Zm-9.9,0h-5a.42.42,0,0,1,0-.83h5a.42.42,0,0,1,0,.83Zm-9.9,0H57.31a.42.42,0,0,1,0-.83h4.94a.42.42,0,1,1,0,.83Zm-9.89,0h-5a.42.42,0,0,1,0-.83h5a.42.42,0,0,1,0,.83Zm-9.9,0h-5a.42.42,0,0,1,0-.83h5a.42.42,0,0,1,0,.83Zm-9.89,0H27.62a.42.42,0,0,1,0-.83h4.95a.42.42,0,0,1,0,.83Zm-9.9,0h-5a.42.42,0,0,1,0-.83h5a.42.42,0,0,1,0,.83Zm-9.9,0H7.83a.42.42,0,1,1,0-.83h4.94a.42.42,0,0,1,0,.83Z"/>
        <path class="b601a69f-e755-4531-8c47-e66f7c02323a" d="M554.59,42h-2.47a.42.42,0,0,1,0-.83h2.47a.42.42,0,0,1,0,.83Z"/>
      </g>
      <g class="f481db8d-ab21-4f96-8e27-9ca55e9f2fdf">
        <path class="b601a69f-e755-4531-8c47-e66f7c02323a" d="M287,3.29a.42.42,0,0,1-.41-.41V.41A.41.41,0,0,1,287,0a.41.41,0,0,1,.41.41V2.88A.41.41,0,0,1,287,3.29Z"/>
        <path class="b601a69f-e755-4531-8c47-e66f7c02323a" d="M287,181.92a.42.42,0,0,1-.41-.42v-5a.42.42,0,0,1,.41-.41.41.41,0,0,1,.41.41v5A.41.41,0,0,1,287,181.92Zm0-9.93a.41.41,0,0,1-.41-.41v-5a.41.41,0,0,1,.41-.41.41.41,0,0,1,.41.41v5A.41.41,0,0,1,287,172Zm0-9.92a.42.42,0,0,1-.41-.41v-5a.42.42,0,0,1,.41-.42.41.41,0,0,1,.41.42v5A.41.41,0,0,1,287,162.07Zm0-9.93a.41.41,0,0,1-.41-.41v-5a.41.41,0,0,1,.41-.41.41.41,0,0,1,.41.41v5A.41.41,0,0,1,287,152.14Zm0-9.92a.41.41,0,0,1-.41-.41v-5a.41.41,0,0,1,.41-.41.41.41,0,0,1,.41.41v5A.41.41,0,0,1,287,142.22Zm0-9.92a.42.42,0,0,1-.41-.41v-5a.42.42,0,0,1,.41-.41.41.41,0,0,1,.41.41v5A.41.41,0,0,1,287,132.3Zm0-9.93a.41.41,0,0,1-.41-.41v-5a.41.41,0,0,1,.41-.41.41.41,0,0,1,.41.41v5A.41.41,0,0,1,287,122.37Zm0-9.92a.41.41,0,0,1-.41-.41v-5a.41.41,0,0,1,.41-.41.41.41,0,0,1,.41.41v5A.41.41,0,0,1,287,112.45Zm0-9.92a.42.42,0,0,1-.41-.42v-5a.42.42,0,0,1,.41-.41.41.41,0,0,1,.41.41v5A.41.41,0,0,1,287,102.53Zm0-9.93a.41.41,0,0,1-.41-.41v-5a.41.41,0,0,1,.41-.41.41.41,0,0,1,.41.41v5A.41.41,0,0,1,287,92.6Zm0-9.92a.42.42,0,0,1-.41-.41v-5a.42.42,0,0,1,.41-.42.41.41,0,0,1,.41.42v5A.41.41,0,0,1,287,82.68Zm0-9.93a.41.41,0,0,1-.41-.41v-5A.41.41,0,0,1,287,67a.41.41,0,0,1,.41.41v5A.41.41,0,0,1,287,72.75Zm0-9.92a.41.41,0,0,1-.41-.41v-5a.41.41,0,0,1,.41-.41.41.41,0,0,1,.41.41v5A.41.41,0,0,1,287,62.83Zm0-9.92a.42.42,0,0,1-.41-.41v-5a.42.42,0,0,1,.41-.41.41.41,0,0,1,.41.41v5A.41.41,0,0,1,287,52.91ZM287,43a.41.41,0,0,1-.41-.41v-5a.41.41,0,0,1,.41-.41.41.41,0,0,1,.41.41v5A.41.41,0,0,1,287,43Zm0-9.92a.41.41,0,0,1-.41-.41v-5a.41.41,0,0,1,.41-.41.41.41,0,0,1,.41.41v5A.41.41,0,0,1,287,33.06Zm0-9.92a.42.42,0,0,1-.41-.42v-5a.42.42,0,0,1,.41-.41.41.41,0,0,1,.41.41v5A.41.41,0,0,1,287,23.14Zm0-9.93a.41.41,0,0,1-.41-.41v-5a.41.41,0,0,1,.41-.41.41.41,0,0,1,.41.41v5A.41.41,0,0,1,287,13.21Z"/>
        <path class="b601a69f-e755-4531-8c47-e66f7c02323a" d="M287,189.34a.41.41,0,0,1-.41-.41v-2.46a.41.41,0,0,1,.41-.41.41.41,0,0,1,.41.41v2.46A.41.41,0,0,1,287,189.34Z"/>
      </g>
      <g class="f481db8d-ab21-4f96-8e27-9ca55e9f2fdf">
        <path class="b601a69f-e755-4531-8c47-e66f7c02323a" d="M261.11,3.29a.42.42,0,0,1-.41-.41V.41a.41.41,0,0,1,.41-.41.41.41,0,0,1,.41.41V2.88A.41.41,0,0,1,261.11,3.29Z"/>
        <path class="b601a69f-e755-4531-8c47-e66f7c02323a" d="M261.11,181.92a.42.42,0,0,1-.41-.42v-5a.42.42,0,0,1,.41-.41.41.41,0,0,1,.41.41v5A.41.41,0,0,1,261.11,181.92Zm0-9.93a.41.41,0,0,1-.41-.41v-5a.41.41,0,0,1,.41-.41.41.41,0,0,1,.41.41v5A.41.41,0,0,1,261.11,172Zm0-9.92a.42.42,0,0,1-.41-.41v-5a.42.42,0,0,1,.41-.42.41.41,0,0,1,.41.42v5A.41.41,0,0,1,261.11,162.07Zm0-9.93a.41.41,0,0,1-.41-.41v-5a.41.41,0,0,1,.41-.41.41.41,0,0,1,.41.41v5A.41.41,0,0,1,261.11,152.14Zm0-9.92a.41.41,0,0,1-.41-.41v-5a.41.41,0,0,1,.41-.41.41.41,0,0,1,.41.41v5A.41.41,0,0,1,261.11,142.22Zm0-9.92a.42.42,0,0,1-.41-.41v-5a.42.42,0,0,1,.41-.41.41.41,0,0,1,.41.41v5A.41.41,0,0,1,261.11,132.3Zm0-9.93a.41.41,0,0,1-.41-.41v-5a.41.41,0,0,1,.41-.41.41.41,0,0,1,.41.41v5A.41.41,0,0,1,261.11,122.37Zm0-9.92a.41.41,0,0,1-.41-.41v-5a.41.41,0,0,1,.41-.41.41.41,0,0,1,.41.41v5A.41.41,0,0,1,261.11,112.45Zm0-9.92a.42.42,0,0,1-.41-.42v-5a.42.42,0,0,1,.41-.41.41.41,0,0,1,.41.41v5A.41.41,0,0,1,261.11,102.53Zm0-9.93a.41.41,0,0,1-.41-.41v-5a.41.41,0,0,1,.41-.41.41.41,0,0,1,.41.41v5A.41.41,0,0,1,261.11,92.6Zm0-9.92a.42.42,0,0,1-.41-.41v-5a.42.42,0,0,1,.41-.42.41.41,0,0,1,.41.42v5A.41.41,0,0,1,261.11,82.68Zm0-9.93a.41.41,0,0,1-.41-.41v-5a.41.41,0,0,1,.41-.41.41.41,0,0,1,.41.41v5A.41.41,0,0,1,261.11,72.75Zm0-9.92a.41.41,0,0,1-.41-.41v-5a.41.41,0,0,1,.41-.41.41.41,0,0,1,.41.41v5A.41.41,0,0,1,261.11,62.83Zm0-9.92a.42.42,0,0,1-.41-.41v-5a.42.42,0,0,1,.41-.41.41.41,0,0,1,.41.41v5A.41.41,0,0,1,261.11,52.91Zm0-9.93a.41.41,0,0,1-.41-.41v-5a.41.41,0,0,1,.41-.41.41.41,0,0,1,.41.41v5A.41.41,0,0,1,261.11,43Zm0-9.92a.41.41,0,0,1-.41-.41v-5a.41.41,0,0,1,.41-.41.41.41,0,0,1,.41.41v5A.41.41,0,0,1,261.11,33.06Zm0-9.92a.42.42,0,0,1-.41-.42v-5a.42.42,0,0,1,.41-.41.41.41,0,0,1,.41.41v5A.41.41,0,0,1,261.11,23.14Zm0-9.93a.41.41,0,0,1-.41-.41v-5a.41.41,0,0,1,.41-.41.41.41,0,0,1,.41.41v5A.41.41,0,0,1,261.11,13.21Z"/>
        <path class="b601a69f-e755-4531-8c47-e66f7c02323a" d="M261.11,189.34a.41.41,0,0,1-.41-.41v-2.46a.41.41,0,0,1,.41-.41.41.41,0,0,1,.41.41v2.46A.41.41,0,0,1,261.11,189.34Z"/>
      </g>
      <g class="f481db8d-ab21-4f96-8e27-9ca55e9f2fdf">
        <path class="b601a69f-e755-4531-8c47-e66f7c02323a" d="M2.88,69.22H.41a.41.41,0,1,1,0-.82H2.88a.41.41,0,0,1,0,.82Z"/>
        <path class="b601a69f-e755-4531-8c47-e66f7c02323a" d="M547.18,69.22h-4.95a.41.41,0,0,1,0-.82h4.95a.41.41,0,0,1,0,.82Zm-9.9,0h-4.95a.41.41,0,1,1,0-.82h4.95a.41.41,0,0,1,0,.82Zm-9.9,0h-5a.41.41,0,0,1,0-.82h5a.41.41,0,1,1,0,.82Zm-9.89,0h-5a.41.41,0,0,1,0-.82h5a.41.41,0,1,1,0,.82Zm-9.9,0h-4.95a.41.41,0,0,1,0-.82h4.95a.41.41,0,0,1,0,.82Zm-9.9,0h-4.94a.41.41,0,1,1,0-.82h4.94a.41.41,0,0,1,0,.82Zm-9.89,0h-4.95a.41.41,0,1,1,0-.82h4.95a.41.41,0,1,1,0,.82Zm-9.9,0H473a.41.41,0,0,1,0-.82h4.95a.41.41,0,0,1,0,.82Zm-9.9,0h-4.94a.41.41,0,1,1,0-.82H468a.41.41,0,1,1,0,.82Zm-9.89,0h-4.95a.41.41,0,1,1,0-.82h4.95a.41.41,0,1,1,0,.82Zm-9.9,0h-4.95a.41.41,0,1,1,0-.82h4.95a.41.41,0,0,1,0,.82Zm-9.89,0h-4.95a.41.41,0,0,1,0-.82h4.95a.41.41,0,1,1,0,.82Zm-9.9,0h-4.95a.41.41,0,0,1,0-.82h4.95a.41.41,0,0,1,0,.82Zm-9.9,0h-4.95a.41.41,0,1,1,0-.82h4.95a.41.41,0,1,1,0,.82Zm-9.89,0h-4.95a.41.41,0,0,1,0-.82h4.95a.41.41,0,1,1,0,.82Zm-9.9,0h-5a.41.41,0,1,1,0-.82h5a.41.41,0,0,1,0,.82Zm-9.9,0h-4.94a.41.41,0,1,1,0-.82h4.94a.41.41,0,1,1,0,.82Zm-9.89,0H374a.41.41,0,0,1,0-.82h4.95a.41.41,0,1,1,0,.82Zm-9.9,0h-5a.41.41,0,1,1,0-.82h5a.41.41,0,0,1,0,.82Zm-9.89,0H354.2a.41.41,0,1,1,0-.82h4.95a.41.41,0,1,1,0,.82Zm-9.9,0H344.3a.41.41,0,0,1,0-.82h4.95a.41.41,0,1,1,0,.82Zm-9.9,0h-5a.41.41,0,1,1,0-.82h5a.41.41,0,0,1,0,.82Zm-9.89,0h-4.95a.41.41,0,1,1,0-.82h4.95a.41.41,0,1,1,0,.82Zm-9.9,0h-4.95a.41.41,0,0,1,0-.82h4.95a.41.41,0,1,1,0,.82Zm-9.9,0h-5a.41.41,0,1,1,0-.82h5a.41.41,0,0,1,0,.82Zm-9.89,0h-4.95a.41.41,0,1,1,0-.82h4.95a.41.41,0,1,1,0,.82Zm-9.9,0h-4.95a.41.41,0,0,1,0-.82h4.95a.41.41,0,0,1,0,.82Zm-9.9,0H275a.41.41,0,1,1,0-.82H280a.41.41,0,1,1,0,.82Zm-9.89,0h-4.95a.41.41,0,1,1,0-.82h4.95a.41.41,0,1,1,0,.82Zm-9.9,0h-5a.41.41,0,1,1,0-.82h5a.41.41,0,0,1,0,.82Zm-9.89,0h-4.95a.41.41,0,1,1,0-.82h4.95a.41.41,0,1,1,0,.82Zm-9.9,0h-4.95a.41.41,0,0,1,0-.82h4.95a.41.41,0,1,1,0,.82Zm-9.9,0h-5a.41.41,0,1,1,0-.82h5a.41.41,0,0,1,0,.82Zm-9.89,0h-4.95a.41.41,0,1,1,0-.82h4.95a.41.41,0,1,1,0,.82Zm-9.9,0h-4.95a.41.41,0,0,1,0-.82h4.95a.41.41,0,1,1,0,.82Zm-9.9,0h-4.94a.41.41,0,1,1,0-.82h4.94a.41.41,0,0,1,0,.82Zm-9.89,0H186a.41.41,0,1,1,0-.82h4.95a.41.41,0,1,1,0,.82Zm-9.9,0h-4.95a.41.41,0,0,1,0-.82H181a.41.41,0,0,1,0,.82Zm-9.9,0h-4.94a.41.41,0,1,1,0-.82h4.94a.41.41,0,1,1,0,.82Zm-9.89,0h-4.95a.41.41,0,1,1,0-.82h4.95a.41.41,0,1,1,0,.82Zm-9.9,0h-4.95a.41.41,0,0,1,0-.82h4.95a.41.41,0,0,1,0,.82Zm-9.89,0h-5a.41.41,0,1,1,0-.82h5a.41.41,0,0,1,0,.82Zm-9.9,0h-5a.41.41,0,1,1,0-.82h5a.41.41,0,1,1,0,.82Zm-9.9,0h-4.95a.41.41,0,0,1,0-.82h4.95a.41.41,0,1,1,0,.82Zm-9.89,0h-4.95a.41.41,0,0,1,0-.82h4.95a.41.41,0,1,1,0,.82Zm-9.9,0h-5a.41.41,0,1,1,0-.82h5a.41.41,0,0,1,0,.82Zm-9.9,0H87a.41.41,0,1,1,0-.82h4.94a.41.41,0,0,1,0,.82Zm-9.89,0h-5a.41.41,0,0,1,0-.82h5a.41.41,0,1,1,0,.82Zm-9.9,0h-5a.41.41,0,1,1,0-.82h5a.41.41,0,0,1,0,.82Zm-9.9,0H57.31a.41.41,0,0,1,0-.82h4.94a.41.41,0,1,1,0,.82Zm-9.89,0h-5a.41.41,0,0,1,0-.82h5a.41.41,0,1,1,0,.82Zm-9.9,0h-5a.41.41,0,1,1,0-.82h5a.41.41,0,1,1,0,.82Zm-9.89,0H27.62a.41.41,0,1,1,0-.82h4.95a.41.41,0,0,1,0,.82Zm-9.9,0h-5a.41.41,0,1,1,0-.82h5a.41.41,0,0,1,0,.82Zm-9.9,0H7.83a.41.41,0,1,1,0-.82h4.94a.41.41,0,0,1,0,.82Z"/>
        <path class="b601a69f-e755-4531-8c47-e66f7c02323a" d="M554.59,69.22h-2.47a.41.41,0,0,1,0-.82h2.47a.41.41,0,1,1,0,.82Z"/>
      </g>
      <path d="M235.88,37V49.05h10.53c4.23,0,7-2.43,7-6s-2.79-6-7-6Zm-5.41-4.74h16.4c7.18,0,12,4.33,12,10.68a10.2,10.2,0,0,1-7.43,9.9l8,15.53h-6l-7.48-14.8H235.88v14.8h-5.41V32.23Z"/>
      <path d="M266.27,53h15.59c-.78-4-3.87-7-7.69-7-4,0-7.12,2.84-7.9,7Zm8.62,15.79a13.52,13.52,0,0,1-13.78-13.62,13.2,13.2,0,0,1,13.16-13.52c7.22,0,12.69,6,12.69,13.72v1.5H266.22a8.86,8.86,0,0,0,8.88,7.53,10.17,10.17,0,0,0,6.65-2.32l3.3,3.25a15.67,15.67,0,0,1-10.16,3.46Z"/>
      <path class="b6b32444-ee9f-47a9-9302-5d7184c5eafa" d="M5.57,53H21.15c-.77-4-3.87-7-7.69-7-4,0-7.12,2.84-7.89,7Zm8.62,15.79A13.52,13.52,0,0,1,.41,55.19,13.2,13.2,0,0,1,13.57,41.67c7.22,0,12.69,6,12.69,13.72v1.5H5.52a8.85,8.85,0,0,0,8.87,7.53,10.19,10.19,0,0,0,6.66-2.32l3.3,3.25a15.67,15.67,0,0,1-10.16,3.46Z"/>
      <path class="b6b32444-ee9f-47a9-9302-5d7184c5eafa" d="M533.9,53h15.58c-.77-4-3.87-7-7.69-7s-7.12,2.84-7.89,7Zm8.62,15.79a13.52,13.52,0,0,1-13.78-13.62A13.2,13.2,0,0,1,541.9,41.67c7.22,0,12.69,6,12.69,13.72v1.5H533.85a8.85,8.85,0,0,0,8.87,7.53,10.19,10.19,0,0,0,6.66-2.32l3.3,3.25a15.67,15.67,0,0,1-10.16,3.46Z"/>
      <path d="M304.76,64.27A9.49,9.49,0,0,0,312,61.12V49.2a9.61,9.61,0,0,0-7.28-3.09,8.79,8.79,0,0,0-8.92,9,8.88,8.88,0,0,0,8.92,9.13Zm7.33,1.6a12.44,12.44,0,0,1-8,2.89,13.27,13.27,0,0,1-13.26-13.57,13.27,13.27,0,0,1,13.36-13.52,13.4,13.4,0,0,1,7.9,2.58v-12l5.16-1.14V68.34h-5.11V65.87Z"/>
      <polygon points="334.69 32.23 340.11 32.23 340.11 47.7 359.3 47.7 359.3 32.23 364.72 32.23 364.72 68.34 359.3 68.34 359.3 52.61 340.11 52.61 340.11 68.34 334.69 68.34 334.69 32.23 334.69 32.23"/>
      <path d="M380.45,65a10.12,10.12,0,0,0,7-2.48V58a13.68,13.68,0,0,0-6.76-1.6c-3.77,0-6.09,1.71-6.09,4.34S377,65,380.45,65Zm-10.83-4.18c0-5,4-8,10.63-8a18.51,18.51,0,0,1,7.17,1.45V51.47c0-3.71-2.22-5.57-6.4-5.57a18.65,18.65,0,0,0-8.15,2.22L371,44.25a24.56,24.56,0,0,1,10.78-2.69c6.81,0,10.74,3.36,10.74,9.4V68.34h-5.06V66.07a12.44,12.44,0,0,1-8.15,2.74c-5.73,0-9.65-3.25-9.65-8Z"/>
      <path d="M400.78,46.42h-5.57V42.08h5.57V35.37l5.11-1.23v7.94h7.74v4.34h-7.74V60.66c0,2.68,1.08,3.66,3.87,3.66a10.23,10.23,0,0,0,3.77-.62V68a17,17,0,0,1-4.9.78c-5.11,0-7.85-2.43-7.85-7V46.42Z"/>
      <polygon points="236.97 95.95 236.97 122.52 230.05 122.52 230.05 86.4 239.65 86.4 249.56 105.8 259.46 86.4 269.06 86.4 269.06 122.52 261.99 122.52 261.99 96 249.45 119.94 236.97 95.95 236.97 95.95"/>
      <path d="M285,117.93a10.14,10.14,0,0,0,5.93-1.71v-4a15.6,15.6,0,0,0-5.67-1c-3.25,0-5.16,1.29-5.16,3.35s1.91,3.36,4.9,3.36Zm-11.66-3.2c0-5.11,4.13-8.15,11-8.15a21.71,21.71,0,0,1,6.55,1V105.7c0-3.1-1.9-4.7-5.67-4.7-2.27,0-4.8.73-8.21,2.22L274.42,98a28.11,28.11,0,0,1,12-2.89c7.27,0,11.45,3.61,11.45,10v17.44h-7v-1.86a12.76,12.76,0,0,1-7.79,2.32c-5.78,0-9.8-3.35-9.8-8.25Z"/>
      <path d="M303.22,95.64h7.06v2.94A8.57,8.57,0,0,1,317.46,95a6,6,0,0,1,2.94.62v6.19a8.91,8.91,0,0,0-3.61-.72,7.13,7.13,0,0,0-6.51,4v17.39h-7.06V95.64Z"/>
      <polygon points="324.21 86.4 331.28 84.85 331.28 106.99 342.89 95.64 350.89 95.64 338.3 107.97 351.66 122.52 342.63 122.52 331.28 110.24 331.28 122.52 324.21 122.52 324.21 86.4 324.21 86.4"/>
      <path d="M357.34,106.42H370.5a6.94,6.94,0,0,0-6.56-5.42c-3.25,0-5.72,2.12-6.6,5.42ZM364.72,123c-8.15,0-14.45-6.09-14.45-13.94A13.72,13.72,0,0,1,364.1,95.17c7.63,0,13.31,6.19,13.31,14.45v1.86h-20A7.75,7.75,0,0,0,365,117.1a8.42,8.42,0,0,0,5.93-2.17l4.64,4.24A16.11,16.11,0,0,1,364.72,123Z"/>
      <path d="M384.38,101.57h-5.52V95.64h5.52V88.77l7.06-1.59v8.46h7.64v5.93h-7.64v11.92c0,2.53,1,3.46,3.72,3.46a11,11,0,0,0,3.77-.62v5.78a22.21,22.21,0,0,1-5.47.82c-6,0-9.08-2.73-9.08-8V101.57Z"/>
      <path d="M409.66,103.84v10.58a9,9,0,0,0,6.4,2.48,7.8,7.8,0,1,0,0-15.59,8.68,8.68,0,0,0-6.4,2.53Zm-7.07-8.2h7v2.22a12.16,12.16,0,0,1,7.64-2.58,13.8,13.8,0,0,1-.21,27.6,13.28,13.28,0,0,1-7.32-2.12V133.3h-7.07V95.64Z"/>
      <polygon points="442.27 122.52 435.2 122.52 435.2 86.4 442.27 84.85 442.27 122.52 442.27 122.52"/>
      <path d="M458.16,117.93a10.14,10.14,0,0,0,5.93-1.71v-4a15.62,15.62,0,0,0-5.68-1c-3.25,0-5.16,1.29-5.16,3.35s1.91,3.36,4.91,3.36Zm-11.66-3.2c0-5.11,4.12-8.15,11-8.15a21.76,21.76,0,0,1,6.55,1V105.7c0-3.1-1.91-4.7-5.68-4.7-2.27,0-4.79.73-8.2,2.22L447.63,98a28,28,0,0,1,12-2.89c7.28,0,11.46,3.61,11.46,10v17.44h-7v-1.86A12.78,12.78,0,0,1,456.3,123c-5.78,0-9.8-3.35-9.8-8.25Z"/>
      <path d="M496,113.85l4.23,4.39a14.94,14.94,0,0,1-10.94,4.8,14,14,0,1,1,0-27.92,15.12,15.12,0,0,1,11.14,4.8l-4.33,4.59a8.72,8.72,0,0,0-6.66-3.25c-4.07,0-7.22,3.41-7.22,7.84a7.4,7.4,0,0,0,7.38,7.74,8.36,8.36,0,0,0,6.4-3Z"/>
      <path d="M508.67,106.42h13.16a6.94,6.94,0,0,0-6.56-5.42,6.75,6.75,0,0,0-6.6,5.42ZM516.05,123c-8.16,0-14.45-6.09-14.45-13.94a13.72,13.72,0,0,1,13.83-13.93c7.63,0,13.31,6.19,13.31,14.45v1.86h-20a7.75,7.75,0,0,0,7.64,5.62,8.42,8.42,0,0,0,5.93-2.17l4.64,4.24A16.11,16.11,0,0,1,516.05,123Z"/>
      <path class="fe9f2219-d6da-49af-9a24-fae0a2f0548b" d="M129.14,78.38c1.11,5.29,1.11,5.84,1.11,6.54,0,9-10.14,14-23.49,14C76.59,99,50.17,81.3,50.17,69.63a11.82,11.82,0,0,1,1-4.73c-10.85.55-24.89,2.5-24.89,14.87,0,20.3,48.1,45.33,86.2,45.33,29.2,0,36.56-13.21,36.56-23.64,0-8.2-7.09-17.51-19.88-23.08Zm-21,7.37c8.06,0,19.74-1.67,19.74-11.26a9,9,0,0,0-.2-2.2l-4.8-20.88c-1.12-4.59-2.09-6.67-10.15-10.7-6.26-3.2-19.88-8.48-23.92-8.48-3.75,0-4.86,4.86-9.31,4.86S72,33.48,68,33.48s-6.4,2.64-8.34,8.06c0,0-5.42,15.29-6.12,17.52a4,4,0,0,0-.14,1.25c0,5.94,23.4,25.44,54.78,25.44Z"/>
      <path d="M129.14,78.38c1.11,5.29,1.11,5.84,1.11,6.54,0,9-10.14,14-23.49,14C76.59,99,50.17,81.3,50.17,69.63a11.82,11.82,0,0,1,1-4.73l2.36-5.84a4,4,0,0,0-.14,1.25c0,5.94,23.4,25.44,54.78,25.44,8.06,0,19.74-1.67,19.74-11.26a9,9,0,0,0-.2-2.2l1.45,6.09Z"/>
      <path d="M189.73,161.79a1.45,1.45,0,0,1-1.45-1.45V29a1.46,1.46,0,0,1,2.91,0V160.34a1.46,1.46,0,0,1-1.46,1.45Z"/>
      <path d="M241.15,142a8.52,8.52,0,1,0,8.32,8.51,8.26,8.26,0,0,0-8.32-8.51Zm0,20.15a11.64,11.64,0,1,1,11.77-11.64,11.57,11.57,0,0,1-11.77,11.64Z"/>
      <path d="M259.37,149.86v7.42a6.09,6.09,0,0,0,4.58,1.93,5.66,5.66,0,0,0,0-11.32,5.88,5.88,0,0,0-4.58,2Zm-3.22-4.51h3.19v1.58a7.44,7.44,0,0,1,5-1.84,8.47,8.47,0,1,1-5,15.32v8h-3.22V145.35Z"/>
      <path d="M278.2,152.18h9.74a4.9,4.9,0,0,0-9.74,0Zm5.39,9.87a8.44,8.44,0,0,1-8.61-8.51,8.25,8.25,0,0,1,8.22-8.45c4.52,0,7.93,3.74,7.93,8.58v.93h-13a5.54,5.54,0,0,0,5.55,4.71,6.4,6.4,0,0,0,4.16-1.45l2.06,2a9.8,9.8,0,0,1-6.35,2.16Z"/>
      <path d="M294.2,145.35h3.22v2.09a5.14,5.14,0,0,1,4.52-2.45,4,4,0,0,1,1.64.26v2.9a5.41,5.41,0,0,0-1.9-.35,4.49,4.49,0,0,0-4.26,3v11H294.2V145.35Z"/>
      <path d="M312.09,159.66a6.32,6.32,0,0,0,4.36-1.54v-2.84a8.51,8.51,0,0,0-4.23-1c-2.35,0-3.8,1.06-3.8,2.71s1.48,2.67,3.67,2.67Zm-6.77-2.61c0-3.09,2.52-5,6.65-5a11.6,11.6,0,0,1,4.48.91v-1.75c0-2.32-1.39-3.48-4-3.48a11.67,11.67,0,0,0-5.1,1.39l-1.19-2.42A15.38,15.38,0,0,1,312.9,145c4.26,0,6.71,2.1,6.71,5.87v10.87h-3.16v-1.42a7.8,7.8,0,0,1-5.1,1.71c-3.58,0-6-2-6-5Z"/>
      <path d="M325.44,148.05H322v-2.7h3.48v-4.2l3.2-.77v5h4.83v2.7h-4.83V157c0,1.68.67,2.29,2.42,2.29a6.34,6.34,0,0,0,2.35-.38v2.71a10.7,10.7,0,0,1-3.06.48c-3.2,0-4.91-1.52-4.91-4.35v-9.65Z"/>
      <path d="M338.34,152.18h9.74a4.9,4.9,0,0,0-9.74,0Zm5.39,9.87a8.44,8.44,0,0,1-8.61-8.51,8.25,8.25,0,0,1,8.22-8.45c4.52,0,7.94,3.74,7.94,8.58v.93h-13a5.54,5.54,0,0,0,5.55,4.71,6.4,6.4,0,0,0,4.16-1.45l2.06,2a9.8,9.8,0,0,1-6.35,2.16Z"/>
      <path d="M362.34,159.21a5.9,5.9,0,0,0,4.54-2V149.8a6,6,0,0,0-4.54-1.94,5.68,5.68,0,0,0,0,11.35Zm4.57,1a7.73,7.73,0,0,1-5,1.81,8.47,8.47,0,0,1,.07-16.93,8.38,8.38,0,0,1,4.93,1.61v-7.51l3.23-.71v23.28h-3.2v-1.55Z"/>
      <path d="M383.88,149.86v7.42a6.09,6.09,0,0,0,4.58,1.93,5.66,5.66,0,0,0,0-11.32,5.88,5.88,0,0,0-4.58,2ZM388.81,162a8.18,8.18,0,0,1-5-1.65v1.39h-3.19V139.19l3.23-.71v8.41a7.58,7.58,0,0,1,5-1.8,8.47,8.47,0,0,1-.06,16.93Z"/>
      <path d="M405,161.82l-6.55-16.47H402l4.8,12.54,5.29-12.54h3.48l-7.93,18.38c-1.52,3.51-3.26,4.9-6.29,4.9a6.62,6.62,0,0,1-1.71-.19V165.6a6.78,6.78,0,0,0,1.45.13,3.41,3.41,0,0,0,3.26-2.42l.65-1.49Z"/>
      <polygon points="424.67 139.19 428.05 139.19 428.05 161.76 424.67 161.76 424.67 139.19 424.67 139.19"/>
      <path d="M447.21,155.18c0-2.22-1.81-3.71-4.61-3.71h-6.55v7.42h6.55c2.8,0,4.61-1.45,4.61-3.71Zm-11.16-13.12v6.7h6.19c2.55,0,4.16-1.29,4.16-3.35s-1.61-3.35-4.16-3.35Zm6.39-2.87c4.41,0,7.32,2.35,7.32,6a5.35,5.35,0,0,1-3.13,4.87,5.68,5.68,0,0,1,4,5.32c0,3.87-3.07,6.42-7.77,6.42h-10.2V139.19Z"/>
      <polygon points="457.46 143.38 457.46 161.76 454.3 161.76 454.3 139.19 458.82 139.19 465.91 153.6 472.98 139.19 477.49 139.19 477.49 161.76 474.3 161.76 474.3 143.35 465.88 160.15 457.46 143.38 457.46 143.38"/>
      <path class="b6b32444-ee9f-47a9-9302-5d7184c5eafa" d="M266.27,11.76h15.59c-.78-4-3.87-7-7.69-7-4,0-7.12,2.83-7.9,7Zm8.62,15.79a13.51,13.51,0,0,1-13.78-13.62A13.2,13.2,0,0,1,274.27.41c7.22,0,12.69,6,12.69,13.73v1.49H266.22a8.86,8.86,0,0,0,8.88,7.54,10.17,10.17,0,0,0,6.65-2.33l3.3,3.25a15.61,15.61,0,0,1-10.16,3.46Z"/>
      <path class="b6b32444-ee9f-47a9-9302-5d7184c5eafa" d="M266.27,173.14h15.59c-.78-4-3.87-7-7.69-7-4,0-7.12,2.83-7.9,7Zm8.62,15.79a13.51,13.51,0,0,1-13.78-13.62,13.2,13.2,0,0,1,13.16-13.52c7.22,0,12.69,6,12.69,13.73V177H266.22a8.86,8.86,0,0,0,8.88,7.54,10.17,10.17,0,0,0,6.65-2.33l3.3,3.26a15.66,15.66,0,0,1-10.16,3.45Z"/>
    </g>
  </g>
</svg>
