<?xml version="1.0" encoding="UTF-8"?><svg id="uuid-45670bd2-9a0e-4aeb-8d31-c6aa803a8de9" xmlns="http://www.w3.org/2000/svg" viewBox="0 0 1140 140"><defs><style>.uuid-07ffe56b-a3b5-4dba-8efe-a894860a3f9a{fill:#f3f3f3;}.uuid-13505fd5-351f-49d7-9ba1-4c39f0c736a3{fill:#e00;}.uuid-da2dec97-40db-439f-94ba-b781bdaaaa0d{fill:#fff;}.uuid-72b6523c-15c6-4011-aae9-464d33f7e891{fill:#316dc1;}.uuid-bc91a9fc-a20f-42f6-a351-f5b40614c7ef{fill:#231f20;}</style></defs><rect x="1" y="1" width="420.9284" height="99.1587" rx="11.0951" ry="11.0951"/><path class="uuid-da2dec97-40db-439f-94ba-b781bdaaaa0d" d="m124.02,24.2558h3.5534l8.2624,20.2226h-3.2934l-2.34-5.9223h-9.0424l-2.3689,5.9223h-3.1489l8.3779-20.2226Zm5.2001,11.7869l-3.5245-8.869-3.5245,8.869h7.049Z"/><path class="uuid-da2dec97-40db-439f-94ba-b781bdaaaa0d" d="m132.9502,29.7737h3.1778l4.5934,11.0069,4.5934-11.0069h3.0912l-6.3557,14.7047h-2.7445l-6.3557-14.7047Z"/><path class="uuid-da2dec97-40db-439f-94ba-b781bdaaaa0d" d="m149.1592,40.2605c0-2.7734,2.2534-4.4779,5.9512-4.4779,1.4156,0,2.7734.2889,4.0156.8089v-1.56c0-2.08-1.2422-3.1201-3.5823-3.1201-1.3578,0-2.7445.3756-4.5645,1.2422l-1.0689-2.1667c2.1956-1.04,4.1023-1.5022,6.0379-1.5022,3.8134,0,6.009,1.8778,6.009,5.2579v9.7357h-2.8312v-1.2711c-1.3,1.04-2.7734,1.5311-4.5645,1.5311-3.2067,0-5.4023-1.82-5.4023-4.4779Zm6.0668,2.34c1.56,0,2.86-.4622,3.9001-1.3867v-2.5423c-1.1267-.6067-2.3112-.8956-3.7845-.8956-2.1089,0-3.4089.9533-3.4089,2.4267,0,1.4156,1.3289,2.3978,3.2934,2.3978Z"/><path class="uuid-da2dec97-40db-439f-94ba-b781bdaaaa0d" d="m164.6755,25.6136c0-.9822.78-1.7911,1.7623-1.7911s1.7911.8089,1.7911,1.7911-.8089,1.7911-1.7911,1.7911-1.7623-.8089-1.7623-1.7911Zm3.2067,18.8648h-2.8889v-14.7047h2.8889v14.7047Z"/><path class="uuid-da2dec97-40db-439f-94ba-b781bdaaaa0d" d="m173.8919,44.4784h-2.8889v-20.2226l2.8889-.6356v20.8581Z"/><path class="uuid-da2dec97-40db-439f-94ba-b781bdaaaa0d" d="m176.2615,40.2605c0-2.7734,2.2534-4.4779,5.9512-4.4779,1.4156,0,2.7734.2889,4.0156.8089v-1.56c0-2.08-1.2422-3.1201-3.5823-3.1201-1.3578,0-2.7445.3756-4.5645,1.2422l-1.0689-2.1667c2.1956-1.04,4.1023-1.5022,6.0379-1.5022,3.8134,0,6.009,1.8778,6.009,5.2579v9.7357h-2.8312v-1.2711c-1.3,1.04-2.7734,1.5311-4.5645,1.5311-3.2067,0-5.4023-1.82-5.4023-4.4779Zm6.0668,2.34c1.56,0,2.86-.4622,3.9001-1.3867v-2.5423c-1.1267-.6067-2.3112-.8956-3.7845-.8956-2.1089,0-3.4089.9533-3.4089,2.4267,0,1.4156,1.3289,2.3978,3.2934,2.3978Z"/><path class="uuid-da2dec97-40db-439f-94ba-b781bdaaaa0d" d="m199.4052,44.7095c-1.6467,0-3.1778-.52-4.449-1.4734v1.2422h-2.86v-20.2226l2.8889-.6356v7.5401c1.2134-1.04,2.7734-1.6178,4.4779-1.6178,4.1601,0,7.4246,3.3223,7.4246,7.569,0,4.2756-3.2645,7.5979-7.4824,7.5979Zm-4.4201-10.8913v6.6446c.9245,1.0689,2.4556,1.7334,4.1023,1.7334,2.8311,0,4.969-2.1667,4.969-5.0556s-2.1667-5.0845-4.969-5.0845c-1.6756,0-3.1489.6356-4.1023,1.7623Z"/><path class="uuid-da2dec97-40db-439f-94ba-b781bdaaaa0d" d="m212.2348,44.4784h-2.8889v-20.2226l2.8889-.6356v20.8581Z"/><path class="uuid-da2dec97-40db-439f-94ba-b781bdaaaa0d" d="m222.4045,44.7384c-4.3334,0-7.7141-3.3223-7.7141-7.6268,0-4.2467,3.2356-7.569,7.3675-7.569,4.0445,0,7.1068,3.3512,7.1068,7.6846v.8378h-11.6135c.4045,2.4556,2.4267,4.2179,4.969,4.2179,1.4445,0,2.8016-.4911,3.7261-1.3l1.8489,1.82c-1.7038,1.3289-3.4949,1.9356-5.6905,1.9356Zm-4.8252-8.8402h8.7246c-.4327-2.2534-2.166-3.929-4.3038-3.929-2.2252,0-3.9867,1.5889-4.4207,3.929Z"/><path class="uuid-da2dec97-40db-439f-94ba-b781bdaaaa0d" d="m244.3645,29.4848c4.2756,0,7.6268,3.3512,7.6268,7.6268,0,4.3045-3.3512,7.6557-7.6268,7.6557s-7.6564-3.3512-7.6564-7.6557c0-4.2756,3.3807-7.6268,7.6564-7.6268Zm4.7956,7.6268c0-2.86-2.1378-5.0845-4.7956-5.0845-2.6874,0-4.8252,2.2245-4.8252,5.0845s2.1096,5.1134,4.8252,5.1134c2.6578,0,4.7956-2.2534,4.7956-5.1134Z"/><path class="uuid-da2dec97-40db-439f-94ba-b781bdaaaa0d" d="m254.4503,29.7737h2.8889v1.4734c1.1556-1.1556,2.6578-1.7623,4.4194-1.7623,3.3807,0,5.7497,2.34,5.7497,5.749v9.2446h-2.8889v-8.7535c0-2.3112-1.4163-3.7267-3.6401-3.7267-1.56,0-2.8312.6645-3.6401,1.9067v10.5735h-2.8889v-14.7047Z"/><path class="uuid-da2dec97-40db-439f-94ba-b781bdaaaa0d" d="m117.4333,57.2784h9.8802c4.1023,0,6.9912,2.5712,6.9912,6.269,0,2.5712-1.56,4.6801-3.9578,5.6334l4.4779,8.3201h-4.6801l-3.9578-7.7424h-4.5645v7.7424h-4.189v-20.2226Zm4.189,3.6112v5.4312h5.3156c1.8778,0,3.1201-1.0978,3.1201-2.7156s-1.2422-2.7156-3.1201-2.7156h-5.3156Z"/><path class="uuid-da2dec97-40db-439f-94ba-b781bdaaaa0d" d="m143.0326,77.7899c-4.5645,0-8.089-3.4089-8.089-7.8001,0-4.3623,3.3801-7.8001,7.7424-7.8001,4.2756,0,7.4535,3.4667,7.4535,8.089v1.04h-11.2091c.5489,1.8778,2.1956,3.1489,4.2756,3.1489,1.3289,0,2.5134-.4333,3.3223-1.2134l2.6,2.3689c-1.8489,1.5022-3.6978,2.1667-6.0957,2.1667Zm-4.1312-9.3024h7.3668c-.4911-1.7911-1.9356-3.0334-3.669-3.0334-1.82,0-3.2067,1.1845-3.6978,3.0334Z"/><path class="uuid-da2dec97-40db-439f-94ba-b781bdaaaa0d" d="m163.6334,76.2587c-1.2134.9533-2.6867,1.4445-4.2756,1.4445-4.2756,0-7.6557-3.4089-7.6557-7.7424s3.4089-7.7135,7.7712-7.7135c1.4734,0,2.9178.4045,4.1023,1.1845v-6.1534l3.9578-.8667v21.0893h-3.9001v-1.2422Zm-3.6401-1.9356c1.4734,0,2.6867-.52,3.5823-1.4445v-5.8645c-.8667-.8956-2.1667-1.4156-3.5823-1.4156-2.5134,0-4.3912,1.8778-4.3912,4.3623,0,2.4556,1.9067,4.3623,4.3912,4.3623Z"/><path class="uuid-da2dec97-40db-439f-94ba-b781bdaaaa0d" d="m176.1466,57.2784h4.189v8.1179h9.3024v-8.1179h4.189v20.2226h-4.189v-8.2624h-9.3024v8.2624h-4.189v-20.2226Z"/><path class="uuid-da2dec97-40db-439f-94ba-b781bdaaaa0d" d="m195.9392,73.1387c0-2.86,2.3112-4.5645,6.1823-4.5645,1.2422,0,2.4845.2022,3.669.5778v-1.0689c0-1.7334-1.0689-2.6289-3.1778-2.6289-1.2711,0-2.6867.4045-4.5934,1.2422l-1.4445-2.9178c2.3689-1.0978,4.5356-1.6178,6.7023-1.6178,4.0734,0,6.4134,2.0223,6.4134,5.5757v9.7646h-3.9001v-1.04c-1.2711.8956-2.6289,1.3-4.3623,1.3-3.2356,0-5.489-1.8778-5.489-4.6223Zm6.529,1.7911c1.3,0,2.3978-.3178,3.3223-.9533v-2.2534c-.9822-.3756-2.0223-.5489-3.1778-.5489-1.82,0-2.8889.7222-2.8889,1.8778s1.0689,1.8778,2.7445,1.8778Z"/><path class="uuid-da2dec97-40db-439f-94ba-b781bdaaaa0d" d="m213.8828,65.7719h-3.0912v-3.3223h3.0912v-3.8423l3.9572-.8956v4.7379h4.2756v3.3223h-4.2756v6.6734c0,1.4156.5496,1.9356,2.08,1.9356.7511,0,1.3289-.0867,2.1096-.3467v3.2356c-.8385.26-2.1956.4622-3.0623.4622-3.3512,0-5.0845-1.5311-5.0845-4.4779v-7.4824Z"/><path class="uuid-da2dec97-40db-439f-94ba-b781bdaaaa0d" d="m233.443,62.623v14.878h-3.8712v-20.2226h5.3734l5.5468,10.8624,5.5468-10.8624h5.3734v20.2226h-3.9572v-14.8491l-7.0208,13.4047-6.9912-13.4336Z"/><path class="uuid-da2dec97-40db-439f-94ba-b781bdaaaa0d" d="m253.4976,73.1387c0-2.86,2.3112-4.5645,6.1823-4.5645,1.2416,0,2.4845.2022,3.6683.5778v-1.0689c0-1.7334-1.0682-2.6289-3.1778-2.6289-1.2711,0-2.686.4045-4.5927,1.2422l-1.4445-2.9178c2.3689-1.0978,4.535-1.6178,6.7023-1.6178,4.0727,0,6.4134,2.0223,6.4134,5.5757v9.7646h-3.9007v-1.04c-1.2711.8956-2.6283,1.3-4.3616,1.3-3.2356,0-5.489-1.8778-5.489-4.6223Zm6.529,1.7911c1.2994,0,2.3971-.3178,3.3216-.9533v-2.2534c-.9822-.3756-2.0223-.5489-3.1778-.5489-1.8194,0-2.8889.7222-2.8889,1.8778s1.0696,1.8778,2.7452,1.8778Z"/><path class="uuid-da2dec97-40db-439f-94ba-b781bdaaaa0d" d="m269.9672,62.4496h3.9572v1.6467c.954-1.3,2.3407-1.9934,4.0163-1.9934.7793.0289,1.2416.1156,1.646.3467v3.4667c-.5778-.26-1.2994-.4045-2.0223-.4045-1.5305,0-2.8889.78-3.6401,2.2534v9.7357h-3.9572v-15.0514Z"/><path class="uuid-da2dec97-40db-439f-94ba-b781bdaaaa0d" d="m281.4383,57.2784l3.9572-.8667v12.3935l6.5008-6.3557h4.4772l-7.049,6.9046,7.483,8.1468h-5.0563l-6.3557-6.8757v6.8757h-3.9572v-20.2226Z"/><path class="uuid-da2dec97-40db-439f-94ba-b781bdaaaa0d" d="m303.8296,77.7899c-4.5645,0-8.089-3.4089-8.089-7.8001,0-4.3623,3.3807-7.8001,7.7424-7.8001,4.2756,0,7.4535,3.4667,7.4535,8.089v1.04h-11.2091c.5496,1.8778,2.1956,3.1489,4.2756,3.1489,1.3289,0,2.514-.4333,3.323-1.2134l2.6,2.3689c-1.8489,1.5022-3.6978,2.1667-6.0963,2.1667Zm-4.1305-9.3024h7.3661c-.4904-1.7911-1.9349-3.0334-3.6683-3.0334-1.8207,0-3.2074,1.1845-3.6978,3.0334Z"/><path class="uuid-da2dec97-40db-439f-94ba-b781bdaaaa0d" d="m314.5509,65.7719h-3.0905v-3.3223h3.0905v-3.8423l3.9585-.8956v4.7379h4.2756v3.3223h-4.2756v6.6734c0,1.4156.5482,1.9356,2.08,1.9356.7511,0,1.3289-.0867,2.1083-.3467v3.2356c-.8371.26-2.1956.4622-3.0623.4622-3.3512,0-5.0845-1.5311-5.0845-4.4779v-7.4824Z"/><path class="uuid-da2dec97-40db-439f-94ba-b781bdaaaa0d" d="m324.462,62.4496h3.9007v1.2422c1.2134-.9533,2.686-1.4445,4.2756-1.4445,4.2756,0,7.655,3.4089,7.655,7.7424s-3.4089,7.7135-7.7706,7.7135c-1.474,0-2.9185-.4045-4.1023-1.1845v7.0201h-3.9585v-21.0893Zm3.9585,4.5934v5.9223c.8667.8667,2.166,1.3867,3.5823,1.3867,2.4845,0,4.3912-1.8778,4.3912-4.3623s-1.9363-4.3623-4.3912-4.3623c-1.4445,0-2.6874.4911-3.5823,1.4156Z"/><path class="uuid-da2dec97-40db-439f-94ba-b781bdaaaa0d" d="m346.3924,77.501h-3.9572v-20.2226l3.9572-.8667v21.0893Z"/><path class="uuid-da2dec97-40db-439f-94ba-b781bdaaaa0d" d="m348.4738,73.1387c0-2.86,2.3112-4.5645,6.1823-4.5645,1.2416,0,2.4845.2022,3.6683.5778v-1.0689c0-1.7334-1.0682-2.6289-3.1778-2.6289-1.2711,0-2.686.4045-4.5927,1.2422l-1.4445-2.9178c2.3689-1.0978,4.535-1.6178,6.7023-1.6178,4.0727,0,6.4134,2.0223,6.4134,5.5757v9.7646h-3.9007v-1.04c-1.2711.8956-2.6283,1.3-4.3616,1.3-3.2356,0-5.489-1.8778-5.489-4.6223Zm6.529,1.7911c1.2994,0,2.3971-.3178,3.3216-.9533v-2.2534c-.9822-.3756-2.0223-.5489-3.1778-.5489-1.8194,0-2.8889.7222-2.8889,1.8778s1.0696,1.8778,2.7452,1.8778Z"/><path class="uuid-da2dec97-40db-439f-94ba-b781bdaaaa0d" d="m375.8919,72.6476l2.3689,2.4556c-1.56,1.7045-3.8134,2.6867-6.1246,2.6867-4.449,0-7.8861-3.4089-7.8861-7.8001s3.4372-7.829,7.8861-7.829c2.3985,0,4.6801.9822,6.2401,2.6867l-2.4267,2.5712c-1.0978-1.2134-2.3112-1.82-3.7261-1.82-2.2829,0-4.0445,1.9067-4.0445,4.3912s1.7911,4.3334,4.1305,4.3334c1.3585,0,2.514-.52,3.5823-1.6756Z"/><path class="uuid-da2dec97-40db-439f-94ba-b781bdaaaa0d" d="m386.8443,77.7899c-4.5645,0-8.089-3.4089-8.089-7.8001,0-4.3623,3.3794-7.8001,7.7424-7.8001,4.2756,0,7.4535,3.4667,7.4535,8.089v1.04h-11.2091c.5482,1.8778,2.1956,3.1489,4.2756,3.1489,1.3289,0,2.5127-.4333,3.3216-1.2134l2.6,2.3689c-1.8489,1.5022-3.6978,2.1667-6.095,2.1667Zm-4.1319-9.3024h7.3675c-.4918-1.7911-1.9363-3.0334-3.6696-3.0334-1.8194,0-3.2061,1.1845-3.6978,3.0334Z"/><g id="uuid-ecb220ad-9c80-49a6-a41f-3d292ba4a972"><path id="uuid-9eecab50-2baf-4ecb-a3c9-a8c547b654b1" class="uuid-13505fd5-351f-49d7-9ba1-4c39f0c736a3" d="m68.9918,54.095c3.9982,0,9.7887-.8272,9.7887-5.5837,0-.3712-.0105-.7326-.0993-1.094l-2.3823-10.349c-.5515-2.2748-1.034-3.3088-5.0322-5.3079-3.102-1.5855-9.8576-4.205-11.8567-4.205-1.8612,0-2.4127,2.4127-4.6186,2.4127-2.137,0-3.7224-1.7923-5.7215-1.7923-1.9302,0-3.171,1.3097-4.1361,3.9982,0,0-2.6884,7.5828-3.0331,8.6857-.0689.2068-.0705.4391-.0705.6204,0,2.9466,11.6052,12.615,27.1617,12.615Zm10.4091-3.6535c.5515,2.6195.5515,2.8952.5515,3.2399,0,4.4807-5.0322,6.9624-11.6499,6.9624-14.9587,0-28.0562-8.7546-28.0562-14.5451,0-.8961.2068-1.7234.4825-2.3438-5.3769.2757-12.3392,1.2408-12.3392,7.376,0,10.0644,23.8512,22.4725,42.7392,22.4725,14.4762,0,18.1297-6.5487,18.1297-11.7188,0-4.0671-3.5156-8.6857-9.8576-11.4431Z"/><path id="uuid-767bfeef-dfaa-4b12-96e6-faf5e41ce0a8" d="m79.4008,50.4415c.5515,2.6195.5515,2.8952.5515,3.2399,0,4.4807-5.0322,6.9624-11.6499,6.9624-14.9587,0-28.0562-8.7546-28.0562-14.5451,0-.8961.2068-1.7234.4825-2.3438l1.1719-2.8952c-.0689.2068-.0705.4391-.0705.6204,0,2.9466,11.6052,12.615,27.1617,12.615,3.9982,0,9.7887-.8272,9.7887-5.5837,0-.3712-.0105-.7326-.0993-1.094l.7197,3.0242Z"/></g><path class="uuid-72b6523c-15c6-4011-aae9-464d33f7e891" d="m89.4616,106.1764c-.4797,0-.8679.3882-.8679.8679v6.0187H29.0442v-6.0187c0-.4797-.3882-.8679-.8679-.8679s-.8679.3882-.8679.8679v6.8866c0,.4797.3882.8679.8679.8679h29.7747v6.0178c0,.4797.3882.8679.8679.8679s.8679-.3882.8679-.8679v-6.0178h29.7747c.4797,0,.8679-.3882.8679-.8679v-6.8866c0-.4797-.3882-.8679-.8679-.8679Z"/><path class="uuid-72b6523c-15c6-4011-aae9-464d33f7e891" d="m442.5865,50.0172h-6.0178V8.1924c0-.4797-.3882-.8679-.8679-.8679h-6.8866c-.4797,0-.8679.3882-.8679.8679s.3882.8679.8679.8679h6.0187v41.8206c0,.0015-.0008.0028-.0008.0042s.0008.0028.0008.0042v41.5154h-6.0187c-.4797,0-.8679.3882-.8679.8679s.3882.8679.8679.8679h6.8866c.4797,0,.8679-.3882.8679-.8679v-41.5197h6.0178c.4797,0,.8679-.3882.8679-.8679s-.3882-.8679-.8679-.8679Z"/><path class="uuid-72b6523c-15c6-4011-aae9-464d33f7e891" d="m393.8243,106.1764c-.4797,0-.8679.3882-.8679.8679v6.0187H118.5625v-6.0187c0-.4797-.3882-.8679-.8679-.8679s-.8679.3882-.8679.8679v6.8866c0,.4797.3882.8679.8679.8679h137.1965v6.0178c0,.4797.3882.8679.8679.8679s.8679-.3882.8679-.8679v-6.0178h137.1973c.4797,0,.8679-.3882.8679-.8679v-6.8866c0-.4797-.3882-.8679-.8679-.8679Z"/><path class="uuid-72b6523c-15c6-4011-aae9-464d33f7e891" d="m197.9117,128.4509h3.73c1.667,0,2.8066,1.0312,2.8066,2.543,0,1.0908-.6479,1.9424-1.667,2.3027l1.7749,3.5498h-1.5952l-1.6191-3.3584h-1.9907v3.3584h-1.4395v-8.3955Zm3.5981,3.8857c.8994,0,1.4873-.5273,1.4873-1.3311,0-.8154-.5879-1.3428-1.4873-1.3428h-2.1587v2.6738h2.1587Z"/><path class="uuid-72b6523c-15c6-4011-aae9-464d33f7e891" d="m205.232,133.8484c0-1.7637,1.2715-3.1064,2.9268-3.1064,1.6431,0,2.8423,1.3066,2.8423,3.1064v.3232h-4.4375c.1318.9717.8633,1.6797,1.7988,1.6797.564,0,1.0913-.2158,1.4272-.5645l.8877.8037c-.7314.6123-1.4634.876-2.375.876-1.7271,0-3.0703-1.3555-3.0703-3.1182Zm4.4858-.5156c-.144-.876-.7676-1.4873-1.5713-1.4873-.8154,0-1.415.5879-1.5713,1.4873h3.1426Z"/><path class="uuid-72b6523c-15c6-4011-aae9-464d33f7e891" d="m212.1319,133.8484c0-1.7158,1.2354-3.0586,2.8066-3.0586.6836,0,1.3071.2754,1.7515.7793v-3.3223l1.3545-.2393v8.8389h-1.3428v-.792c-.4316.54-1.1035.8516-1.8589.8516-1.5234,0-2.7109-1.3545-2.7109-3.0576Zm4.5581,1.2588v-2.5303c-.3486-.4082-.8638-.6475-1.4277-.6475-1.0312,0-1.7988.8154-1.7988,1.9189,0,1.0908.7676,1.9189,1.7988,1.9189.5879,0,1.0791-.2285,1.4277-.6602Z"/><path class="uuid-72b6523c-15c6-4011-aae9-464d33f7e891" d="m222.5358,128.4509h1.4395v3.5264h4.1738v-3.5264h1.4395v8.3955h-1.4395v-3.5859h-4.1738v3.5859h-1.4395v-8.3955Z"/><path class="uuid-72b6523c-15c6-4011-aae9-464d33f7e891" d="m230.9479,135.1189c0-1.0791.8877-1.7627,2.3027-1.7627.5645,0,1.0918.1201,1.6191.3838v-.6719c0-.791-.4551-1.1992-1.3789-1.1992-.5039,0-1.0557.1445-1.751.4678l-.4795-.9834c.8994-.4072,1.6904-.6113,2.4941-.6113,1.5713,0,2.459.791,2.459,2.1826v3.9219h-1.3438v-.624c-.5156.5039-1.0908.7324-1.7871.7324-1.2588,0-2.1348-.7559-2.1348-1.8359Zm2.5068.876c.54,0,1.0078-.1562,1.415-.5039v-.9717c-.4316-.2031-.8633-.2871-1.3789-.2871-.7793,0-1.2715.3232-1.2715.8633,0,.5518.4795.8994,1.2354.8994Z"/><path class="uuid-72b6523c-15c6-4011-aae9-464d33f7e891" d="m238.4225,135.2869v-3.3701h-1.1992v-1.0791h1.1992v-1.6553l1.3555-.2871v1.9424h1.667v1.0791h-1.667v3.0703c0,.5879.2275.8164.8398.8164.2637,0,.4551-.0361.8154-.1445v1.1396c-.3477.1074-.8037.168-1.1641.168-1.2109,0-1.8467-.5762-1.8467-1.6797Z"/><path class="uuid-72b6523c-15c6-4011-aae9-464d33f7e891" d="m245.5152,128.4509h3.0703c2.4102,0,4.209,1.835,4.209,4.1982s-1.7988,4.1973-4.209,4.1973h-3.0703v-8.3955Zm3.1055,7.1484c1.5117,0,2.6992-1.2832,2.6992-2.9502,0-1.668-1.1875-2.9512-2.6992-2.9512h-1.667v5.9014h1.667Z"/><path class="uuid-72b6523c-15c6-4011-aae9-464d33f7e891" d="m254.0836,128.7869c0-.4561.3711-.8398.8389-.8398.4561,0,.8398.3838.8398.8398s-.3838.8271-.8398.8271c-.4678,0-.8389-.3711-.8389-.8271Zm.1553,2.0508h1.3555v6.0088h-1.3555v-6.0088Z"/><path class="uuid-72b6523c-15c6-4011-aae9-464d33f7e891" d="m256.735,136.1511l.6357-.8994c.792.4912,1.3193.6836,1.9307.6836.7197,0,1.2119-.3359,1.2119-.8164,0-.3711-.252-.5635-.8398-.6836l-1.0557-.1797c-1.1748-.2158-1.7393-.7549-1.7393-1.6553,0-1.127.9238-1.8584,2.3271-1.8584.8398,0,1.5947.2393,2.3623.7197l-.6357.8994c-.6113-.3955-1.1992-.5762-1.8105-.5762-.624,0-1.0312.2637-1.0312.6963,0,.3838.2158.5518.8398.6592l1.0674.2041c1.1992.2158,1.7744.7676,1.7744,1.667,0,1.1035-1.0557,1.9551-2.459,1.9551-1.0312,0-1.9424-.2881-2.5781-.8154Z"/><path class="uuid-72b6523c-15c6-4011-aae9-464d33f7e891" d="m263.0231,130.8376h1.3311v.8516c.4316-.5635,1.1035-.8994,1.8711-.8994,1.5234,0,2.71,1.3555,2.71,3.0586,0,1.7148-1.2227,3.0576-2.7939,3.0576-.708,0-1.3311-.2637-1.7637-.7676v3.2148h-1.3545v-8.5156Zm4.5811,3.0107c0-1.0918-.7676-1.9189-1.7871-1.9189-.5996,0-1.0908.2393-1.4395.6709v2.5068c.3486.4199.8643.6719,1.4395.6719,1.0312,0,1.7871-.8271,1.7871-1.9307Z"/><path class="uuid-72b6523c-15c6-4011-aae9-464d33f7e891" d="m270.3551,128.2468l1.3545-.2393v8.8389h-1.3545v-8.5996Z"/><path class="uuid-72b6523c-15c6-4011-aae9-464d33f7e891" d="m273.067,135.1189c0-1.0791.8877-1.7627,2.3027-1.7627.5645,0,1.0918.1201,1.6191.3838v-.6719c0-.791-.4551-1.1992-1.3789-1.1992-.5039,0-1.0557.1445-1.751.4678l-.4795-.9834c.8994-.4072,1.6904-.6113,2.4941-.6113,1.5713,0,2.459.791,2.459,2.1826v3.9219h-1.3438v-.624c-.5156.5039-1.0908.7324-1.7871.7324-1.2588,0-2.1348-.7559-2.1348-1.8359Zm2.5068.876c.54,0,1.0078-.1562,1.415-.5039v-.9717c-.4316-.2031-.8633-.2871-1.3789-.2871-.7793,0-1.2715.3232-1.2715.8633,0,.5518.4795.8994,1.2354.8994Z"/><path class="uuid-72b6523c-15c6-4011-aae9-464d33f7e891" d="m279.6188,139.3894v-1.1758c.1562.0361.3477.0479.5273.0479.4805,0,.7676-.2158.9717-.6836l.2764-.6719-2.2666-6.0684h1.499l1.5352,4.4492,1.667-4.4492h1.4873l-2.8789,7.0518c-.4678,1.1641-1.0195,1.584-2.1465,1.584-.1924,0-.4316-.0244-.6719-.084Z"/><path class="uuid-72b6523c-15c6-4011-aae9-464d33f7e891" d="m289.818,131.9167h-1.2959v-1.0791h1.2959v-1.0312c0-1.3076.7314-2.0146,2.0742-2.0146.3359,0,.6719.0361.9004.1074v1.1514c-.2998-.0596-.4805-.084-.7197-.084-.624,0-.8994.2764-.8994.8633v1.0078h1.6191v1.0791h-1.6191v4.9297h-1.3555v-4.9297Z"/><path class="uuid-72b6523c-15c6-4011-aae9-464d33f7e891" d="m293.4186,133.8484c0-1.7754,1.2959-3.1064,3.0225-3.1064,1.7148,0,3.0107,1.3311,3.0107,3.1064,0,1.7744-1.2959,3.1064-3.0107,3.1064-1.7266,0-3.0225-1.332-3.0225-3.1064Zm4.7012,0c0-1.1152-.707-1.9551-1.6787-1.9551-.9834,0-1.6914.8398-1.6914,1.9551,0,1.127.708,1.9551,1.6914,1.9551.9717,0,1.6787-.8281,1.6787-1.9551Z"/><path class="uuid-72b6523c-15c6-4011-aae9-464d33f7e891" d="m300.859,130.8376h1.3545v.9834c.4561-.707,1.1162-1.0791,1.8955-1.0791,1.2354,0,2.0986.875,2.0986,2.1465v3.958h-1.3672v-3.5742c0-.875-.5156-1.4395-1.3193-1.4395-.5518,0-.9951.252-1.3076.7324v4.2812h-1.3545v-6.0088Z"/><path class="uuid-72b6523c-15c6-4011-aae9-464d33f7e891" d="m308.4059,135.2869v-3.3701h-1.1992v-1.0791h1.1992v-1.6553l1.3555-.2871v1.9424h1.667v1.0791h-1.667v3.0703c0,.5879.2275.8164.8398.8164.2637,0,.4551-.0361.8154-.1445v1.1396c-.3477.1074-.8037.168-1.1641.168-1.2109,0-1.8467-.5762-1.8467-1.6797Z"/><path class="uuid-72b6523c-15c6-4011-aae9-464d33f7e891" d="m451.0831,39.8718h3.7412c1.5713,0,2.6387.8994,2.6387,2.207,0,.8516-.5273,1.5352-1.3672,1.8584,1.0078.2998,1.6553,1.0322,1.6553,1.9912,0,1.3916-1.1152,2.3389-2.7705,2.3389h-3.8975v-8.3955Zm3.5859,3.5381c.8154,0,1.3545-.4678,1.3545-1.1875,0-.707-.5273-1.1748-1.3545-1.1748h-2.1475v2.3623h2.1475Zm.1318,3.6816c.9111,0,1.499-.5156,1.499-1.2949s-.5762-1.2832-1.499-1.2832h-2.2793v2.5781h2.2793Z"/><path class="uuid-72b6523c-15c6-4011-aae9-464d33f7e891" d="m459.2667,39.6677l1.3545-.2393v8.8389h-1.3545v-8.5996Z"/><path class="uuid-72b6523c-15c6-4011-aae9-464d33f7e891" d="m461.9786,46.5398c0-1.0791.8877-1.7627,2.3027-1.7627.5645,0,1.0918.1201,1.6191.3838v-.6719c0-.791-.4551-1.1992-1.3789-1.1992-.5039,0-1.0557.1445-1.751.4678l-.4795-.9834c.8994-.4072,1.6904-.6113,2.4941-.6113,1.5713,0,2.459.791,2.459,2.1826v3.9219h-1.3438v-.624c-.5156.5039-1.0908.7324-1.7871.7324-1.2588,0-2.1348-.7559-2.1348-1.8359Zm2.5068.876c.54,0,1.0078-.1562,1.415-.5039v-.9717c-.4316-.2031-.8633-.2871-1.3789-.2871-.7793,0-1.2715.3232-1.2715.8633,0,.5518.4795.8994,1.2354.8994Z"/><path class="uuid-72b6523c-15c6-4011-aae9-464d33f7e891" d="m468.6144,45.2693c0-1.7393,1.3193-3.1064,3.0342-3.1064.9355,0,1.7998.3721,2.3994,1.0195l-.8398.875c-.4199-.4678-.9355-.707-1.5107-.707-.9717,0-1.7275.8389-1.7275,1.9189,0,1.0908.7559,1.9189,1.7275,1.9189.5752,0,1.0908-.2402,1.5107-.6963l.8398.8643c-.5996.6475-1.4639,1.0195-2.3994,1.0195-1.7148,0-3.0342-1.3555-3.0342-3.1064Z"/><path class="uuid-72b6523c-15c6-4011-aae9-464d33f7e891" d="m475.1671,39.6443l1.3545-.2285v5.3975l2.4951-2.5547h1.5596l-2.7705,2.7822,2.9141,3.2266h-1.7275l-2.4707-2.7705v2.7705h-1.3545v-8.623Z"/><path class="uuid-72b6523c-15c6-4011-aae9-464d33f7e891" d="m484.0821,45.2693c0-1.7754,1.2959-3.1064,3.0225-3.1064,1.7148,0,3.0107,1.3311,3.0107,3.1064,0,1.7744-1.2959,3.1064-3.0107,3.1064-1.7266,0-3.0225-1.332-3.0225-3.1064Zm4.7012,0c0-1.1152-.707-1.9551-1.6787-1.9551-.9834,0-1.6914.8398-1.6914,1.9551,0,1.127.708,1.9551,1.6914,1.9551.9717,0,1.6787-.8281,1.6787-1.9551Z"/><path class="uuid-72b6523c-15c6-4011-aae9-464d33f7e891" d="m491.5226,42.2585h1.3545v1.2949c.3359-.9111.9121-1.4023,1.6553-1.4023.2285.0117.3838.0352.5879.1191v1.1875c-.2158-.084-.4912-.1436-.7432-.1436-.6602,0-1.1992.3721-1.5.9951v3.958h-1.3545v-6.0088Z"/><path class="uuid-72b6523c-15c6-4011-aae9-464d33f7e891" d="m499.3341,50.3064l.4678-.9961c.708.3486,1.2832.5039,1.8828.5039,1.0078,0,1.5352-.4551,1.5352-1.3311v-1.0195c-.4316.5283-1.0908.8398-1.8467.8398-1.5234,0-2.7109-1.3555-2.7109-3.0586s1.2354-3.0342,2.8066-3.0342c.6953,0,1.3193.2754,1.7627.8037v-.7559h1.3438v6.2246c0,1.5469-1.0078,2.4111-2.8311,2.4111-.8633,0-1.7021-.2158-2.4102-.5879Zm3.8857-3.79v-2.5186c-.3477-.4082-.8633-.6475-1.4268-.6475-1.0322,0-1.7998.8037-1.7998,1.9062,0,1.0918.7676,1.9189,1.7998,1.9189.5869,0,1.0791-.2393,1.4268-.6592Z"/><path class="uuid-72b6523c-15c6-4011-aae9-464d33f7e891" d="m506.2462,42.2585h1.3545v1.2949c.3359-.9111.9121-1.4023,1.6553-1.4023.2285.0117.3838.0352.5879.1191v1.1875c-.2158-.084-.4912-.1436-.7432-.1436-.6602,0-1.2002.3721-1.5.9951v3.958h-1.3545v-6.0088Z"/><path class="uuid-72b6523c-15c6-4011-aae9-464d33f7e891" d="m510.4698,46.5398c0-1.0791.8877-1.7627,2.3027-1.7627.5645,0,1.0918.1201,1.6191.3838v-.6719c0-.791-.4551-1.1992-1.3789-1.1992-.5039,0-1.0557.1445-1.751.4678l-.4795-.9834c.8994-.4072,1.6904-.6113,2.4941-.6113,1.5713,0,2.459.791,2.459,2.1826v3.9219h-1.3438v-.624c-.5156.5039-1.0908.7324-1.7871.7324-1.2588,0-2.1348-.7559-2.1348-1.8359Zm2.5068.876c.54,0,1.0078-.1562,1.415-.5039v-.9717c-.4316-.2031-.8633-.2871-1.3789-.2871-.7793,0-1.2715.3232-1.2715.8633,0,.5518.4795.8994,1.2354.8994Z"/><path class="uuid-72b6523c-15c6-4011-aae9-464d33f7e891" d="m517.0216,50.8103v-1.1758c.1562.0361.3477.0479.5273.0479.4805,0,.7676-.2158.9717-.6836l.2764-.6719-2.2666-6.0684h1.499l1.5352,4.4492,1.667-4.4492h1.4873l-2.8789,7.0518c-.4678,1.1641-1.0195,1.584-2.1465,1.584-.1924,0-.4316-.0244-.6719-.084Z"/><path class="uuid-72b6523c-15c6-4011-aae9-464d33f7e891" d="m450.9151,54.1042l1.3545-.2275v3.5859c.4199-.5273,1.0918-.8516,1.8477-.8516,1.5234,0,2.71,1.3555,2.71,3.0586,0,1.7148-1.2227,3.0576-2.7939,3.0576-.708,0-1.3311-.2871-1.7871-.8271v.7676h-1.3311v-8.5635Zm4.5811,5.5654c0-1.0918-.7676-1.9189-1.7871-1.9189-.5996,0-1.0908.2393-1.4395.6709v2.5068c.3486.4199.8643.6719,1.4395.6719,1.0312,0,1.7871-.8271,1.7871-1.9307Z"/><path class="uuid-72b6523c-15c6-4011-aae9-464d33f7e891" d="m457.9708,59.6697c0-1.7754,1.2959-3.1064,3.0225-3.1064,1.7148,0,3.0107,1.3311,3.0107,3.1064,0,1.7744-1.2959,3.1064-3.0107,3.1064-1.7266,0-3.0225-1.332-3.0225-3.1064Zm4.7012,0c0-1.1152-.707-1.9551-1.6787-1.9551-.9834,0-1.6914.8398-1.6914,1.9551,0,1.127.708,1.9551,1.6914,1.9551.9717,0,1.6787-.8281,1.6787-1.9551Z"/><path class="uuid-72b6523c-15c6-4011-aae9-464d33f7e891" d="m465.3634,60.6169v-3.958h1.3672v3.5625c0,.8867.5156,1.4512,1.3193,1.4512.5391,0,.9951-.2402,1.3066-.7197v-4.2939h1.3555v6.0088h-1.3555v-.9717c-.4551.708-1.1035,1.0674-1.9072,1.0674-1.2227,0-2.0859-.8877-2.0859-2.1465Z"/><path class="uuid-72b6523c-15c6-4011-aae9-464d33f7e891" d="m472.3946,56.6589h1.3545v.9834c.4561-.707,1.1162-1.0791,1.8955-1.0791,1.2354,0,2.0986.875,2.0986,2.1465v3.958h-1.3672v-3.5742c0-.875-.5156-1.4395-1.3193-1.4395-.5518,0-.9951.252-1.3076.7324v4.2812h-1.3545v-6.0088Z"/><path class="uuid-72b6523c-15c6-4011-aae9-464d33f7e891" d="m479.1026,59.6697c0-1.7158,1.2354-3.0586,2.8066-3.0586.6836,0,1.3076.2754,1.751.7793v-3.3223l1.3555-.2393v8.8389h-1.3438v-.792c-.4316.54-1.1035.8516-1.8584.8516-1.5234,0-2.7109-1.3545-2.7109-3.0576Zm4.5576,1.2588v-2.5303c-.3477-.4082-.8633-.6475-1.4268-.6475-1.0322,0-1.7998.8154-1.7998,1.9189,0,1.0908.7676,1.9189,1.7998,1.9189.5869,0,1.0791-.2285,1.4268-.6602Z"/><path class="uuid-72b6523c-15c6-4011-aae9-464d33f7e891" d="m486.5304,54.6081c0-.4561.3711-.8398.8389-.8398.4561,0,.8398.3838.8398.8398s-.3838.8271-.8398.8271c-.4678,0-.8389-.3711-.8389-.8271Zm.1553,2.0508h1.3555v6.0088h-1.3555v-6.0088Z"/><path class="uuid-72b6523c-15c6-4011-aae9-464d33f7e891" d="m489.7228,56.6589h1.3545v.9834c.4561-.707,1.1162-1.0791,1.8955-1.0791,1.2354,0,2.0986.875,2.0986,2.1465v3.958h-1.3672v-3.5742c0-.875-.5156-1.4395-1.3193-1.4395-.5518,0-.9951.252-1.3076.7324v4.2812h-1.3545v-6.0088Z"/><path class="uuid-72b6523c-15c6-4011-aae9-464d33f7e891" d="m497.1017,64.7068l.4678-.9961c.708.3486,1.2832.5039,1.8828.5039,1.0078,0,1.5352-.4551,1.5352-1.3311v-1.0195c-.4316.5283-1.0908.8398-1.8467.8398-1.5234,0-2.7109-1.3555-2.7109-3.0586s1.2354-3.0342,2.8066-3.0342c.6953,0,1.3193.2754,1.7627.8037v-.7559h1.3438v6.2246c0,1.5469-1.0078,2.4111-2.8311,2.4111-.8633,0-1.7021-.2158-2.4102-.5879Zm3.8857-3.79v-2.5186c-.3477-.4082-.8633-.6475-1.4268-.6475-1.0322,0-1.7998.8037-1.7998,1.9062,0,1.0918.7676,1.9189,1.7998,1.9189.5869,0,1.0791-.2393,1.4268-.6592Z"/><path class="uuid-72b6523c-15c6-4011-aae9-464d33f7e891" d="m506.1739,61.9724l.6357-.8994c.792.4912,1.3193.6836,1.9307.6836.7197,0,1.2119-.3359,1.2119-.8164,0-.3711-.252-.5635-.8398-.6836l-1.0557-.1797c-1.1748-.2158-1.7393-.7549-1.7393-1.6553,0-1.127.9238-1.8584,2.3271-1.8584.8398,0,1.5947.2393,2.3623.7197l-.6357.8994c-.6113-.3955-1.1992-.5762-1.8105-.5762-.624,0-1.0312.2637-1.0312.6963,0,.3838.2158.5518.8398.6592l1.0674.2041c1.1992.2158,1.7744.7676,1.7744,1.667,0,1.1035-1.0557,1.9551-2.459,1.9551-1.0312,0-1.9424-.2881-2.5781-.8154Z"/><path class="uuid-72b6523c-15c6-4011-aae9-464d33f7e891" d="m512.462,54.0681l1.3545-.2393v3.8135c.4561-.707,1.1162-1.0791,1.8955-1.0791,1.2354,0,2.0986.875,2.0986,2.1465v3.958h-1.3672v-3.5742c0-.875-.5156-1.4395-1.3193-1.4395-.5518,0-.9951.252-1.3076.7324v4.2812h-1.3545v-8.5996Z"/><path class="uuid-72b6523c-15c6-4011-aae9-464d33f7e891" d="m519.1329,60.9402c0-1.0791.8877-1.7627,2.3027-1.7627.5645,0,1.0918.1201,1.6191.3838v-.6719c0-.791-.4551-1.1992-1.3789-1.1992-.5039,0-1.0557.1445-1.751.4678l-.4795-.9834c.8994-.4072,1.6904-.6113,2.4941-.6113,1.5713,0,2.459.791,2.459,2.1826v3.9219h-1.3438v-.624c-.5156.5039-1.0908.7324-1.7871.7324-1.2588,0-2.1348-.7559-2.1348-1.8359Zm2.5068.876c.54,0,1.0078-.1562,1.415-.5039v-.9717c-.4316-.2031-.8633-.2871-1.3789-.2871-.7793,0-1.2715.3232-1.2715.8633,0,.5518.4795.8994,1.2354.8994Z"/><path class="uuid-72b6523c-15c6-4011-aae9-464d33f7e891" d="m526.045,56.6589h1.3311v.8516c.4316-.5635,1.1035-.8994,1.8711-.8994,1.5225,0,2.71,1.3555,2.71,3.0586,0,1.7148-1.2227,3.0576-2.7939,3.0576-.708,0-1.3311-.2637-1.7637-.7676v3.2148h-1.3545v-8.5156Zm4.5811,3.0107c0-1.0918-.7676-1.9189-1.7871-1.9189-.5996,0-1.0908.2393-1.4395.6709v2.5068c.3486.4199.8643.6719,1.4395.6719,1.0312,0,1.7871-.8271,1.7871-1.9307Z"/><path class="uuid-72b6523c-15c6-4011-aae9-464d33f7e891" d="m533.1007,59.6697c0-1.7637,1.2715-3.1064,2.9268-3.1064,1.6426,0,2.8418,1.3066,2.8418,3.1064v.3232h-4.4375c.1328.9717.8643,1.6797,1.7998,1.6797.5635,0,1.0908-.2158,1.4268-.5645l.8877.8037c-.7314.6123-1.4629.876-2.375.876-1.7266,0-3.0703-1.3555-3.0703-3.1182Zm4.4854-.5156c-.1436-.876-.7676-1.4873-1.5703-1.4873-.8164,0-1.416.5879-1.5713,1.4873h3.1416Z"/><path class="uuid-72b6523c-15c6-4011-aae9-464d33f7e891" d="m40.6319,129.698h-2.8066v-1.2471h7.0518v1.2471h-2.8057v7.1484h-1.4395v-7.1484Z"/><path class="uuid-72b6523c-15c6-4011-aae9-464d33f7e891" d="m46.0216,128.2468l1.3545-.2393v3.8135c.4561-.707,1.1162-1.0791,1.8955-1.0791,1.2354,0,2.0986.875,2.0986,2.1465v3.958h-1.3672v-3.5742c0-.875-.5156-1.4395-1.3193-1.4395-.5518,0-.9951.252-1.3076.7324v4.2812h-1.3545v-8.5996Z"/><path class="uuid-72b6523c-15c6-4011-aae9-464d33f7e891" d="m52.7286,133.8484c0-1.7637,1.2715-3.1064,2.9268-3.1064,1.6426,0,2.8428,1.3066,2.8428,3.1064v.3232h-4.4385c.1328.9717.8643,1.6797,1.7998,1.6797.5635,0,1.0908-.2158,1.4268-.5645l.8877.8037c-.7314.6123-1.4629.876-2.375.876-1.7266,0-3.0703-1.3555-3.0703-3.1182Zm4.4854-.5156c-.1436-.876-.7676-1.4873-1.5703-1.4873-.8164,0-1.416.5879-1.5713,1.4873h3.1416Z"/><path class="uuid-72b6523c-15c6-4011-aae9-464d33f7e891" d="m62.5812,128.2468l1.3545-.2393v3.8135c.4561-.707,1.1162-1.0791,1.8955-1.0791,1.2354,0,2.0986.875,2.0986,2.1465v3.958h-1.3672v-3.5742c0-.875-.5156-1.4395-1.3193-1.4395-.5518,0-.9951.252-1.3076.7324v4.2812h-1.3545v-8.5996Z"/><path class="uuid-72b6523c-15c6-4011-aae9-464d33f7e891" d="m69.2521,135.1189c0-1.0791.8877-1.7627,2.3027-1.7627.5645,0,1.0918.1201,1.6191.3838v-.6719c0-.791-.4551-1.1992-1.3789-1.1992-.5039,0-1.0557.1445-1.751.4678l-.4795-.9834c.8994-.4072,1.6904-.6113,2.4941-.6113,1.5713,0,2.459.791,2.459,2.1826v3.9219h-1.3438v-.624c-.5156.5039-1.0908.7324-1.7871.7324-1.2588,0-2.1348-.7559-2.1348-1.8359Zm2.5068.876c.54,0,1.0078-.1562,1.415-.5039v-.9717c-.4316-.2031-.8633-.2871-1.3789-.2871-.7793,0-1.2715.3232-1.2715.8633,0,.5518.4795.8994,1.2354.8994Z"/><path class="uuid-72b6523c-15c6-4011-aae9-464d33f7e891" d="m76.7276,135.2869v-3.3701h-1.1992v-1.0791h1.1992v-1.6553l1.3555-.2871v1.9424h1.667v1.0791h-1.667v3.0703c0,.5879.2275.8164.8398.8164.2637,0,.4551-.0361.8154-.1445v1.1396c-.3477.1074-.8037.168-1.1641.168-1.2109,0-1.8467-.5762-1.8467-1.6797Z"/><rect class="uuid-07ffe56b-a3b5-4dba-8efe-a894860a3f9a" x="587.16" y="1" width="420.9284" height="99.1587" rx="11.0951" ry="11.0951"/><path class="uuid-bc91a9fc-a20f-42f6-a351-f5b40614c7ef" d="m710.18,24.2558h3.5534l8.2624,20.2226h-3.2934l-2.34-5.9223h-9.0424l-2.3689,5.9223h-3.1489l8.3779-20.2226Zm5.2001,11.7869l-3.5245-8.869-3.5245,8.869h7.049Z"/><path class="uuid-bc91a9fc-a20f-42f6-a351-f5b40614c7ef" d="m719.1102,29.7737h3.1778l4.5934,11.0069,4.5934-11.0069h3.0912l-6.3557,14.7047h-2.7445l-6.3557-14.7047Z"/><path class="uuid-bc91a9fc-a20f-42f6-a351-f5b40614c7ef" d="m735.3192,40.2605c0-2.7734,2.2534-4.4779,5.9512-4.4779,1.4156,0,2.7734.2889,4.0156.8089v-1.56c0-2.08-1.2422-3.1201-3.5823-3.1201-1.3578,0-2.7445.3756-4.5645,1.2422l-1.0689-2.1667c2.1956-1.04,4.1023-1.5022,6.0379-1.5022,3.8134,0,6.009,1.8778,6.009,5.2579v9.7357h-2.8312v-1.2711c-1.3,1.04-2.7734,1.5311-4.5645,1.5311-3.2067,0-5.4023-1.82-5.4023-4.4779Zm6.0668,2.34c1.56,0,2.86-.4622,3.9001-1.3867v-2.5423c-1.1267-.6067-2.3112-.8956-3.7845-.8956-2.1089,0-3.4089.9533-3.4089,2.4267,0,1.4156,1.3289,2.3978,3.2934,2.3978Z"/><path class="uuid-bc91a9fc-a20f-42f6-a351-f5b40614c7ef" d="m750.8355,25.6136c0-.9822.78-1.7911,1.7623-1.7911s1.7911.8089,1.7911,1.7911-.8089,1.7911-1.7911,1.7911-1.7623-.8089-1.7623-1.7911Zm3.2067,18.8648h-2.8889v-14.7047h2.8889v14.7047Z"/><path class="uuid-bc91a9fc-a20f-42f6-a351-f5b40614c7ef" d="m760.0518,44.4784h-2.8889v-20.2226l2.8889-.6356v20.8581Z"/><path class="uuid-bc91a9fc-a20f-42f6-a351-f5b40614c7ef" d="m762.4214,40.2605c0-2.7734,2.2534-4.4779,5.9512-4.4779,1.4156,0,2.7734.2889,4.0156.8089v-1.56c0-2.08-1.2422-3.1201-3.5823-3.1201-1.3578,0-2.7445.3756-4.5645,1.2422l-1.0689-2.1667c2.1956-1.04,4.1023-1.5022,6.0379-1.5022,3.8134,0,6.009,1.8778,6.009,5.2579v9.7357h-2.8312v-1.2711c-1.3,1.04-2.7734,1.5311-4.5645,1.5311-3.2067,0-5.4023-1.82-5.4023-4.4779Zm6.0668,2.34c1.56,0,2.86-.4622,3.9001-1.3867v-2.5423c-1.1267-.6067-2.3112-.8956-3.7845-.8956-2.1089,0-3.4089.9533-3.4089,2.4267,0,1.4156,1.3289,2.3978,3.2934,2.3978Z"/><path class="uuid-bc91a9fc-a20f-42f6-a351-f5b40614c7ef" d="m785.5652,44.7095c-1.6467,0-3.1778-.52-4.449-1.4734v1.2422h-2.86v-20.2226l2.8889-.6356v7.5401c1.2134-1.04,2.7734-1.6178,4.4779-1.6178,4.1601,0,7.4246,3.3223,7.4246,7.569,0,4.2756-3.2645,7.5979-7.4824,7.5979Zm-4.4201-10.8913v6.6446c.9245,1.0689,2.4556,1.7334,4.1023,1.7334,2.8311,0,4.969-2.1667,4.969-5.0556s-2.1667-5.0845-4.969-5.0845c-1.6756,0-3.1489.6356-4.1023,1.7623Z"/><path class="uuid-bc91a9fc-a20f-42f6-a351-f5b40614c7ef" d="m798.3948,44.4784h-2.8889v-20.2226l2.8889-.6356v20.8581Z"/><path class="uuid-bc91a9fc-a20f-42f6-a351-f5b40614c7ef" d="m808.5645,44.7384c-4.3334,0-7.7141-3.3223-7.7141-7.6268,0-4.2467,3.2356-7.569,7.3675-7.569,4.0445,0,7.1068,3.3512,7.1068,7.6846v.8378h-11.6135c.4045,2.4556,2.4267,4.2179,4.969,4.2179,1.4445,0,2.8016-.4911,3.7261-1.3l1.8489,1.82c-1.7038,1.3289-3.4949,1.9356-5.6905,1.9356Zm-4.8252-8.8402h8.7246c-.4327-2.2534-2.166-3.929-4.3038-3.929-2.2252,0-3.9867,1.5889-4.4207,3.929Z"/><path class="uuid-bc91a9fc-a20f-42f6-a351-f5b40614c7ef" d="m830.5245,29.4848c4.2756,0,7.6268,3.3512,7.6268,7.6268,0,4.3045-3.3512,7.6557-7.6268,7.6557s-7.6564-3.3512-7.6564-7.6557c0-4.2756,3.3807-7.6268,7.6564-7.6268Zm4.7956,7.6268c0-2.86-2.1378-5.0845-4.7956-5.0845-2.6874,0-4.8252,2.2245-4.8252,5.0845s2.1096,5.1134,4.8252,5.1134c2.6578,0,4.7956-2.2534,4.7956-5.1134Z"/><path class="uuid-bc91a9fc-a20f-42f6-a351-f5b40614c7ef" d="m840.6103,29.7737h2.8889v1.4734c1.1556-1.1556,2.6578-1.7623,4.4194-1.7623,3.3807,0,5.7497,2.34,5.7497,5.749v9.2446h-2.8889v-8.7535c0-2.3112-1.4163-3.7267-3.6401-3.7267-1.56,0-2.8312.6645-3.6401,1.9067v10.5735h-2.8889v-14.7047Z"/><path class="uuid-bc91a9fc-a20f-42f6-a351-f5b40614c7ef" d="m703.5932,57.2784h9.8802c4.1023,0,6.9912,2.5712,6.9912,6.269,0,2.5712-1.56,4.6801-3.9578,5.6334l4.4779,8.3201h-4.6801l-3.9578-7.7424h-4.5645v7.7424h-4.189v-20.2226Zm4.189,3.6112v5.4312h5.3156c1.8778,0,3.1201-1.0978,3.1201-2.7156s-1.2422-2.7156-3.1201-2.7156h-5.3156Z"/><path class="uuid-bc91a9fc-a20f-42f6-a351-f5b40614c7ef" d="m729.1926,77.7899c-4.5645,0-8.089-3.4089-8.089-7.8001,0-4.3623,3.3801-7.8001,7.7424-7.8001,4.2756,0,7.4535,3.4667,7.4535,8.089v1.04h-11.2091c.5489,1.8778,2.1956,3.1489,4.2756,3.1489,1.3289,0,2.5134-.4333,3.3223-1.2134l2.6,2.3689c-1.8489,1.5022-3.6978,2.1667-6.0957,2.1667Zm-4.1312-9.3024h7.3668c-.4911-1.7911-1.9356-3.0334-3.669-3.0334-1.82,0-3.2067,1.1845-3.6978,3.0334Z"/><path class="uuid-bc91a9fc-a20f-42f6-a351-f5b40614c7ef" d="m749.7934,76.2587c-1.2134.9533-2.6867,1.4445-4.2756,1.4445-4.2756,0-7.6557-3.4089-7.6557-7.7424s3.4089-7.7135,7.7712-7.7135c1.4734,0,2.9178.4045,4.1023,1.1845v-6.1534l3.9578-.8667v21.0893h-3.9001v-1.2422Zm-3.6401-1.9356c1.4734,0,2.6867-.52,3.5823-1.4445v-5.8645c-.8667-.8956-2.1667-1.4156-3.5823-1.4156-2.5134,0-4.3912,1.8778-4.3912,4.3623,0,2.4556,1.9067,4.3623,4.3912,4.3623Z"/><path class="uuid-bc91a9fc-a20f-42f6-a351-f5b40614c7ef" d="m762.3066,57.2784h4.189v8.1179h9.3024v-8.1179h4.189v20.2226h-4.189v-8.2624h-9.3024v8.2624h-4.189v-20.2226Z"/><path class="uuid-bc91a9fc-a20f-42f6-a351-f5b40614c7ef" d="m782.0992,73.1387c0-2.86,2.3112-4.5645,6.1823-4.5645,1.2422,0,2.4845.2022,3.669.5778v-1.0689c0-1.7334-1.0689-2.6289-3.1778-2.6289-1.2711,0-2.6867.4045-4.5934,1.2422l-1.4445-2.9178c2.3689-1.0978,4.5356-1.6178,6.7023-1.6178,4.0734,0,6.4134,2.0223,6.4134,5.5757v9.7646h-3.9001v-1.04c-1.2711.8956-2.6289,1.3-4.3623,1.3-3.2356,0-5.489-1.8778-5.489-4.6223Zm6.529,1.7911c1.3,0,2.3978-.3178,3.3223-.9533v-2.2534c-.9822-.3756-2.0223-.5489-3.1778-.5489-1.82,0-2.8889.7222-2.8889,1.8778s1.0689,1.8778,2.7445,1.8778Z"/><path class="uuid-bc91a9fc-a20f-42f6-a351-f5b40614c7ef" d="m800.0428,65.7719h-3.0912v-3.3223h3.0912v-3.8423l3.9572-.8956v4.7379h4.2756v3.3223h-4.2756v6.6734c0,1.4156.5496,1.9356,2.08,1.9356.7511,0,1.3289-.0867,2.1096-.3467v3.2356c-.8385.26-2.1956.4622-3.0623.4622-3.3512,0-5.0845-1.5311-5.0845-4.4779v-7.4824Z"/><path class="uuid-bc91a9fc-a20f-42f6-a351-f5b40614c7ef" d="m819.603,62.623v14.878h-3.8712v-20.2226h5.3734l5.5468,10.8624,5.5468-10.8624h5.3734v20.2226h-3.9572v-14.8491l-7.0208,13.4047-6.9912-13.4336Z"/><path class="uuid-bc91a9fc-a20f-42f6-a351-f5b40614c7ef" d="m839.6576,73.1387c0-2.86,2.3112-4.5645,6.1823-4.5645,1.2416,0,2.4845.2022,3.6683.5778v-1.0689c0-1.7334-1.0682-2.6289-3.1778-2.6289-1.2711,0-2.686.4045-4.5927,1.2422l-1.4445-2.9178c2.3689-1.0978,4.535-1.6178,6.7023-1.6178,4.0727,0,6.4134,2.0223,6.4134,5.5757v9.7646h-3.9007v-1.04c-1.2711.8956-2.6283,1.3-4.3616,1.3-3.2356,0-5.489-1.8778-5.489-4.6223Zm6.529,1.7911c1.2994,0,2.3971-.3178,3.3216-.9533v-2.2534c-.9822-.3756-2.0223-.5489-3.1778-.5489-1.8194,0-2.8889.7222-2.8889,1.8778s1.0696,1.8778,2.7452,1.8778Z"/><path class="uuid-bc91a9fc-a20f-42f6-a351-f5b40614c7ef" d="m856.1272,62.4496h3.9572v1.6467c.954-1.3,2.3407-1.9934,4.0163-1.9934.7793.0289,1.2416.1156,1.646.3467v3.4667c-.5778-.26-1.2994-.4045-2.0223-.4045-1.5305,0-2.8889.78-3.6401,2.2534v9.7357h-3.9572v-15.0514Z"/><path class="uuid-bc91a9fc-a20f-42f6-a351-f5b40614c7ef" d="m867.5983,57.2784l3.9572-.8667v12.3935l6.5008-6.3557h4.4772l-7.049,6.9046,7.483,8.1468h-5.0563l-6.3557-6.8757v6.8757h-3.9572v-20.2226Z"/><path class="uuid-bc91a9fc-a20f-42f6-a351-f5b40614c7ef" d="m889.9896,77.7899c-4.5645,0-8.089-3.4089-8.089-7.8001,0-4.3623,3.3807-7.8001,7.7424-7.8001,4.2756,0,7.4535,3.4667,7.4535,8.089v1.04h-11.2091c.5496,1.8778,2.1956,3.1489,4.2756,3.1489,1.3289,0,2.514-.4333,3.323-1.2134l2.6,2.3689c-1.8489,1.5022-3.6978,2.1667-6.0963,2.1667Zm-4.1305-9.3024h7.3661c-.4904-1.7911-1.9349-3.0334-3.6683-3.0334-1.8207,0-3.2074,1.1845-3.6978,3.0334Z"/><path class="uuid-bc91a9fc-a20f-42f6-a351-f5b40614c7ef" d="m900.7109,65.7719h-3.0905v-3.3223h3.0905v-3.8423l3.9585-.8956v4.7379h4.2756v3.3223h-4.2756v6.6734c0,1.4156.5482,1.9356,2.08,1.9356.7511,0,1.3289-.0867,2.1083-.3467v3.2356c-.8371.26-2.1956.4622-3.0623.4622-3.3512,0-5.0845-1.5311-5.0845-4.4779v-7.4824Z"/><path class="uuid-bc91a9fc-a20f-42f6-a351-f5b40614c7ef" d="m910.622,62.4496h3.9007v1.2422c1.2134-.9533,2.686-1.4445,4.2756-1.4445,4.2756,0,7.655,3.4089,7.655,7.7424s-3.4089,7.7135-7.7706,7.7135c-1.474,0-2.9185-.4045-4.1023-1.1845v7.0201h-3.9585v-21.0893Zm3.9585,4.5934v5.9223c.8667.8667,2.166,1.3867,3.5823,1.3867,2.4845,0,4.3912-1.8778,4.3912-4.3623s-1.9363-4.3623-4.3912-4.3623c-1.4445,0-2.6874.4911-3.5823,1.4156Z"/><path class="uuid-bc91a9fc-a20f-42f6-a351-f5b40614c7ef" d="m932.5524,77.501h-3.9572v-20.2226l3.9572-.8667v21.0893Z"/><path class="uuid-bc91a9fc-a20f-42f6-a351-f5b40614c7ef" d="m934.6338,73.1387c0-2.86,2.3112-4.5645,6.1823-4.5645,1.2416,0,2.4845.2022,3.6683.5778v-1.0689c0-1.7334-1.0682-2.6289-3.1778-2.6289-1.2711,0-2.686.4045-4.5927,1.2422l-1.4445-2.9178c2.3689-1.0978,4.535-1.6178,6.7023-1.6178,4.0727,0,6.4134,2.0223,6.4134,5.5757v9.7646h-3.9007v-1.04c-1.2711.8956-2.6283,1.3-4.3616,1.3-3.2356,0-5.489-1.8778-5.489-4.6223Zm6.529,1.7911c1.2994,0,2.3971-.3178,3.3216-.9533v-2.2534c-.9822-.3756-2.0223-.5489-3.1778-.5489-1.8194,0-2.8889.7222-2.8889,1.8778s1.0696,1.8778,2.7452,1.8778Z"/><path class="uuid-bc91a9fc-a20f-42f6-a351-f5b40614c7ef" d="m962.0518,72.6476l2.3689,2.4556c-1.56,1.7045-3.8134,2.6867-6.1246,2.6867-4.449,0-7.8861-3.4089-7.8861-7.8001s3.4372-7.829,7.8861-7.829c2.3985,0,4.6801.9822,6.2401,2.6867l-2.4267,2.5712c-1.0978-1.2134-2.3112-1.82-3.7261-1.82-2.2829,0-4.0445,1.9067-4.0445,4.3912s1.7911,4.3334,4.1305,4.3334c1.3585,0,2.514-.52,3.5823-1.6756Z"/><path class="uuid-bc91a9fc-a20f-42f6-a351-f5b40614c7ef" d="m973.0043,77.7899c-4.5645,0-8.089-3.4089-8.089-7.8001,0-4.3623,3.3794-7.8001,7.7424-7.8001,4.2756,0,7.4535,3.4667,7.4535,8.089v1.04h-11.2091c.5482,1.8778,2.1956,3.1489,4.2756,3.1489,1.3289,0,2.5127-.4333,3.3216-1.2134l2.6,2.3689c-1.8489,1.5022-3.6978,2.1667-6.095,2.1667Zm-4.1319-9.3024h7.3675c-.4918-1.7911-1.9363-3.0334-3.6696-3.0334-1.8194,0-3.2061,1.1845-3.6978,3.0334Z"/><g id="uuid-2b38f2ab-6df3-4fa3-83e6-aca6d6616a1d"><path id="uuid-1b858a97-e855-4c84-8a17-2adccf455cce" class="uuid-13505fd5-351f-49d7-9ba1-4c39f0c736a3" d="m655.1518,54.095c3.9982,0,9.7887-.8272,9.7887-5.5837,0-.3712-.0105-.7326-.0993-1.094l-2.3823-10.349c-.5515-2.2748-1.034-3.3088-5.0322-5.3079-3.102-1.5855-9.8576-4.205-11.8567-4.205-1.8612,0-2.4127,2.4127-4.6186,2.4127-2.137,0-3.7224-1.7923-5.7215-1.7923-1.9302,0-3.171,1.3097-4.1361,3.9982,0,0-2.6884,7.5828-3.0331,8.6857-.0689.2068-.0705.4391-.0705.6204,0,2.9466,11.6052,12.615,27.1617,12.615Zm10.4091-3.6535c.5515,2.6195.5515,2.8952.5515,3.2399,0,4.4807-5.0322,6.9624-11.6499,6.9624-14.9587,0-28.0562-8.7546-28.0562-14.5451,0-.8961.2068-1.7234.4825-2.3438-5.3769.2757-12.3392,1.2408-12.3392,7.376,0,10.0644,23.8512,22.4725,42.7392,22.4725,14.4762,0,18.1297-6.5487,18.1297-11.7188,0-4.0671-3.5156-8.6857-9.8576-11.4431Z"/><path id="uuid-7c74aaa8-40fc-4fb6-b71f-b2bb37854e03" d="m665.5608,50.4415c.5515,2.6195.5515,2.8952.5515,3.2399,0,4.4807-5.0322,6.9624-11.6499,6.9624-14.9587,0-28.0562-8.7546-28.0562-14.5451,0-.8961.2068-1.7234.4825-2.3438l1.1719-2.8952c-.0689.2068-.0705.4391-.0705.6204,0,2.9466,11.6052,12.615,27.1617,12.615,3.9982,0,9.7887-.8272,9.7887-5.5837,0-.3712-.0105-.7326-.0993-1.094l.7197,3.0242Z"/></g></svg>