<?xml version="1.0" encoding="UTF-8"?><svg id="uuid-7f21a8f7-d1b3-4b83-bfe9-85190e0390f8" xmlns="http://www.w3.org/2000/svg" viewBox="0 0 555 385"><defs><style>.uuid-fd428e9e-5f33-4f7f-87b0-27c43d52f178{fill:#f3f3f3;}.uuid-dc574497-4639-4e53-8ad5-e9511b899f24{fill:#e00;}.uuid-9a66f891-47ea-4ae0-99ad-451d82414e78{isolation:isolate;}.uuid-f2a15c46-c24e-46f7-9141-296d7630a51f{fill:none;stroke:#000;stroke-miterlimit:10;stroke-width:.5px;}</style></defs><rect class="uuid-fd428e9e-5f33-4f7f-87b0-27c43d52f178" width="555" height="385"/><g id="uuid-bec4e595-900c-4d95-aa60-ba302a8d1514"><g id="uuid-103baed1-ab54-459a-96de-e864a1608ff4"><path id="uuid-1268ef17-2178-45e5-bb56-53e2d9a3e28c" class="uuid-dc574497-4639-4e53-8ad5-e9511b899f24" d="m97.0184,65.5825c7.2549,0,12.3277,4.1095,12.3277,9.9941-.0478,2.9723-1.5936,5.7193-4.1095,7.3028,3.1454,1.6741,5.2258,4.4645,5.2258,7.7622,0,6.1386-4.9199,10.4508-12.5817,10.4508h-18.467v-35.5099h17.6047Zm-8.8785,7.1532v7.0009h8.32c2.6893,0,4.16-1.5219,4.16-3.5005s-1.4707-3.5005-4.16-3.5005h-8.32Zm13.4965,17.4517c0-2.1275-1.573-3.7538-4.414-3.7538h-9.0826v7.5082h9.0812c2.8409,0,4.414-1.6216,4.414-3.7544h.0013Z"/><path id="uuid-1dc76511-f70e-459c-ac83-0c04d8ced7ba" class="uuid-dc574497-4639-4e53-8ad5-e9511b899f24" d="m122.8925,101.0963h-8.2183v-35.5138l8.2183-1.7758v37.2897Z"/><path id="uuid-f7bc4804-1df1-4423-bdfc-a598ef3301fe" class="uuid-dc574497-4639-4e53-8ad5-e9511b899f24" d="m126.6982,93.2317c0-5.1746,4.16-8.0667,11.0598-8.0667,2.0535-.0096,4.0996.2462,6.0874.7613v-1.3184c0-2.6893-1.7246-4.0084-5.1234-4.0084-2.3343,0-4.9724.8118-8.1179,2.1308l-2.942-6.0369c3.9133-1.88,8.1894-2.8842,12.5305-2.9426,7.3566,0,11.7679,3.6022,11.7679,10.1463v17.1991h-8.1152v-1.6236c-2.1904,1.4512-4.7808,2.1789-7.4065,2.0803-5.9857-.0013-9.7408-3.6035-9.7408-8.3213Zm12.0239,2.5364c1.7885.0262,3.5535-.4105,5.1234-1.2679v-3.4499c-1.5933-.3961-3.2282-.6006-4.8701-.609-2.6887,0-4.4645.8643-4.4645,2.6381-.002,1.6741,1.573,2.6887,4.2112,2.6887Z"/><path id="uuid-18d90d4e-cb6c-4df9-b220-3d7a9fcae440" class="uuid-dc574497-4639-4e53-8ad5-e9511b899f24" d="m176.1633,91.6082l4.8707,5.0735c-2.8322,3.1496-6.8747,4.9397-11.1104,4.9199-8.0161,0-14.2053-6.0369-14.2053-13.9008s6.1891-13.9513,14.2053-13.9513c4.3231-.0367,8.4567,1.7718,11.3637,4.9718l-5.0223,5.2257c-1.9281-2.1814-3.805-3.0949-6.1386-3.0949-3.5516,0-6.2403,2.9426-6.2403,6.848s2.7399,6.7988,6.4431,6.7988c2.2326.0013,4.0589-.9155,5.8341-2.8908Z"/><path id="uuid-b843423b-0226-4c2a-82c8-9c79fa4aceca" class="uuid-dc574497-4639-4e53-8ad5-e9511b899f24" d="m184.1794,65.5825l8.2189-1.7758v21.4083l10.7042-10.9581h9.1823l-11.9222,12.1249,12.7319,14.7145h-10.3977l-10.2986-12.0232v12.0232h-8.2189v-35.5138Z"/></g><g id="uuid-d4d9ea63-b0a0-480a-baa2-b0c4a5cedffe"><path id="uuid-4bfa9b10-4462-4c03-ba73-7b4af0ac1496" class="uuid-dc574497-4639-4e53-8ad5-e9511b899f24" d="m96.1049,136.7637c7.2044,0,12.0239,4.0077,12.0239,9.7408-.0291,3.0836-1.6891,5.9211-4.3628,7.4577,3.3987,1.6229,5.5801,4.515,5.5801,8.0155,0,6.0375-4.8195,10.2986-12.4328,10.2986h-17.4996v-35.5125h16.6912Zm-9.3326,6.0854v8.4237h8.8765c3.297,0,5.1746-1.7751,5.1746-4.2105s-1.8775-4.2132-5.1746-4.2132h-8.8765Zm15.1686,18.7203c0-2.6382-2.0797-4.5662-5.5801-4.5662h-9.5885v9.183h9.5865c3.5005.0026,5.5801-1.9288,5.5801-4.6141l.002-.0026Z"/><path id="uuid-c85f4cc5-7c30-41e6-a242-4a8c0b2ac9ee" class="uuid-dc574497-4639-4e53-8ad5-e9511b899f24" d="m126.9009,145.3377c7.9118,0,14.1035,6.0369,14.1035,13.7485s-6.1891,13.696-14.1035,13.696-14.1035-5.987-14.1035-13.696,6.1891-13.7485,14.1035-13.7485Zm0,6.0369c-4.0589,0-7.3054,3.3482-7.3054,7.7123,0,4.261,3.196,7.6604,7.3054,7.6604s7.3054-3.3994,7.3054-7.6604c0-4.3641-3.196-7.7123-7.3054-7.7123Z"/><path id="uuid-9e0693f0-4327-4e20-8eae-939f8af9c0b5" class="uuid-dc574497-4639-4e53-8ad5-e9511b899f24" d="m152.1162,172.2762h-6.9504v-35.5125l6.9504-1.5219v37.0344Z"/><path id="uuid-d102a01c-8473-4c37-8760-7ee13c3ace7e" class="uuid-dc574497-4639-4e53-8ad5-e9511b899f24" d="m177.229,170.0949c-2.1427,1.6724-4.7903,2.5668-7.5082,2.5364-7.4943-.1031-13.4862-6.262-13.3831-13.7564.1031-7.4943,6.262-13.4861,13.7563-13.3831,2.4902.0342,4.923.7531,7.0319,2.0777v-10.8059l6.9504-1.5219v37.0324h-6.848l.0007-2.1794Zm-6.3926-3.3987c2.3588.0665,4.6387-.8529,6.2915-2.5371v-10.2986c-1.6907-1.6206-3.9497-2.5132-6.2915-2.4859-4.2309-.0397-7.693,3.3579-7.7327,7.5888-.0397,4.2309,3.3579,7.693,7.5888,7.7327.048.0004.096.0004.1439,0Z"/></g><g id="uuid-6bde41cb-5aa0-4c1d-b818-cb078154c058"><path id="uuid-86467dec-ec6e-4f26-9a45-69d1acd30242" class="uuid-dc574497-4639-4e53-8ad5-e9511b899f24" d="m84.3862,214.5403v28.9178h-4.9724v-35.5132h7.1033l11.1589,22.6775,11.1124-22.6775h7.1046v35.5132h-5.0243v-28.969l-13.2412,26.4319-13.2412-26.3807Z"/><path id="uuid-04d5e84a-87bb-48c6-99ec-e525c9921e2d" class="uuid-dc574497-4639-4e53-8ad5-e9511b899f24" d="m134.2575,217.229c7.1026,0,12.4806,5.8853,12.4806,13.4965v1.4706h-20.3951c.6503,4.3021,4.3756,7.4643,8.7262,7.4071,2.3834.0397,4.7033-.7695,6.5448-2.2831l3.2465,3.196c-2.8192,2.2888-6.3639,3.4943-9.9941,3.3987-7.3372.1427-13.4009-5.6896-13.5437-13.0269-.0024-.1222-.0031-.2444-.0021-.3666,0-7.4071,5.6313-13.2924,12.9367-13.2924Zm-7.8639,11.1609h15.3216c-.7101-3.9565-3.805-6.8992-7.5594-6.8992-3.9565,0-7.0009,2.8409-7.7622,6.8992Z"/><path id="uuid-2d378e8c-6499-4804-87bd-9a7304b571fc" class="uuid-dc574497-4639-4e53-8ad5-e9511b899f24" d="m171.4455,241.0228c-2.2172,1.8548-5.0212,2.8616-7.9118,2.8409-7.3566,0-13.0385-5.9358-13.0385-13.343-.083-7.2574,5.7329-13.208,12.9903-13.291,2.8419-.0325,5.6179.8572,7.9114,2.5357v-11.8204l5.0735-1.1163v36.6295h-5.023l-.002-2.4353Zm-7.2037-1.5704c2.7238.073,5.3412-1.0592,7.1532-3.0942v-11.7221c-1.8518-1.9733-4.4473-3.0779-7.1532-3.0444-4.9313.0853-8.8599,4.152-8.7746,9.0834.0832,4.8112,3.9634,8.6914,8.7746,8.7746v.0027Z"/><path id="uuid-e8e116a1-d736-4106-914d-1ad03f449353" class="uuid-dc574497-4639-4e53-8ad5-e9511b899f24" d="m181.7454,210.3318c.0087-1.7336,1.4119-3.1367,3.1454-3.1454,1.7372.036,3.1163,1.4733,3.0803,3.2105-.0349,1.6866-1.3938,3.0454-3.0803,3.0803-1.7337-.0084-3.137-1.4117-3.1454-3.1454Zm5.6818,33.129h-5.0735v-25.8229h5.0735v25.8229Z"/><path id="uuid-a37d5807-e2f0-4a0c-9d4c-2f610cf41e1d" class="uuid-dc574497-4639-4e53-8ad5-e9511b899f24" d="m198.3348,233.0067c0,4.0084,2.4354,6.5448,6.4431,6.5448,2.5556.0764,4.9636-1.1949,6.342-3.3482v-18.568h5.0728v25.8229h-5.0728v-2.5876c-2.0514,2.0557-4.8592,3.1752-7.7622,3.0949-5.9358,0-10.0453-4.1607-10.0453-10.0958v-16.2344h5.0223v15.3714Z"/><path id="uuid-e0921855-2239-4ef7-b79e-7358f0639571" class="uuid-dc574497-4639-4e53-8ad5-e9511b899f24" d="m222.0774,217.6352h5.0735v2.3842c1.9054-1.9079,4.5086-2.9529,7.2044-2.8921,3.235-.0863,6.2779,1.5316,8.0155,4.2617,2.0221-2.7796,5.2908-4.3759,8.7262-4.2617,5.6818,0,9.6404,4.1607,9.6404,10.0958v16.2351h-5.0256v-15.3748c0-4.0084-2.2326-6.5448-5.9358-6.5448-2.4886-.0275-4.7978,1.292-6.0375,3.4499.1441.735.2109,1.483.1995,2.2319v16.2351h-5.0728v-15.3721c0-4.0084-2.2319-6.5448-5.8853-6.5448-2.3527-.062-4.5661,1.1122-5.8341,3.0949v18.822h-5.0735l.0053-25.8203Z"/></g><g id="uuid-4c11bfe2-9ff7-4514-b0f7-2c1507b3e5c3" class="uuid-9a66f891-47ea-4ae0-99ad-451d82414e78"><g class="uuid-9a66f891-47ea-4ae0-99ad-451d82414e78"><path d="m288.0713,66.1779h2.5322c1.0388,0,1.7446.6415,1.7446,1.5829,0,.8765-.6168,1.5907-1.4849,1.8258l.8518,2.2724h-1.2174l-.7545-2.1919h-1.2661l-.4629,2.1919h-1.1525l1.2096-5.6811Zm.933,1.0142l-.3162,1.518h1.5258c.5519,0,.9577-.3571.9577-.8441,0-.4142-.3006-.6739-.7713-.6739h-1.3959Z"/><path d="m294.5406,71.9486c-1.2498,0-2.1426-.8441-2.1426-2.0218,0-1.2895,1.031-2.3608,2.2887-2.3608,1.12,0,1.9154.8518,1.9154,2.0361,0,.1221-.0078.2195-.0403.5116h-3.084c.0974.5441.5434.909,1.144.909.3571,0,.6739-.113.9174-.3078l.6084.7051c-.5194.3662-.9979.5285-1.6069.5285Zm-.9901-2.6218h2.029c-.0974-.5038-.4623-.8363-.9492-.8363s-.9012.3415-1.0797.8363Z"/><path d="m299.9958,71.6473c-.3084.1792-.6415.2688-.9901.2688-1.0635,0-1.8829-.8441-1.8829-1.9569,0-1.3219,1.0551-2.3854,2.3536-2.3854.5032,0,.9414.1545,1.2739.4376l.3896-1.8335,1.1447-.2441-1.2583,5.9253h-1.0791l.0487-.2117Zm-.698-.6726c.3324,0,.6408-.1143.8927-.3246l.3571-1.6803c-.2272-.2766-.609-.4467-1.031-.4467-.7382,0-1.3226.5921-1.3226,1.3388,0,.6415.4707,1.1129,1.1038,1.1129Z"/><path d="m304.8017,66.1779h1.1525l-.487,2.2802h2.5646l.487-2.2802h1.144l-1.2089,5.6811h-1.1447l.4954-2.3218h-2.5646l-.4954,2.3218h-1.1525l1.2096-5.6811Z"/><path d="m309.4051,70.7306c0-.8596.6733-1.3959,1.7771-1.3959.398,0,.8038.0818,1.1525.2117l.0487-.2117c.1221-.5766-.1701-.8596-.8603-.8596-.3084,0-.6733.0805-1.1927.2753l-.2681-.8363c.6252-.2428,1.1849-.3571,1.6965-.3571,1.2901,0,1.9231.6584,1.6959,1.7621l-.5356,2.5399h-1.0713l.0571-.2597c-.3493.2104-.6817.3078-1.0635.3078-.8843,0-1.4362-.4623-1.4362-1.1765Zm1.8095.3896c.3006,0,.5843-.0727.8363-.235l.1376-.6337c-.2675-.1208-.6006-.1857-.9252-.1857-.511,0-.8278.2182-.8278.5675,0,.3091.2922.487.7791.487Z"/><path d="m314.8434,68.5633h-.8518l.1948-.9324h.8518l.2272-1.0804,1.1447-.2506-.2844,1.331h1.1771l-.1948.9324h-1.1771l-.3974,1.8504c-.0896.4142.0649.5766.5272.5766.1708,0,.3246-.0156.5194-.0649l-.1948.9012c-.1948.048-.5194.0896-.7707.0896-.9499,0-1.3797-.4714-1.2012-1.3232l.4298-2.0296Z"/><path d="m319.8681,66.1779h1.8589c1.5258,0,2.6295,1.0635,2.6295,2.5322,0,1.7128-1.4933,3.149-3.2788,3.149h-2.4185l1.2089-5.6811Zm.9337,1.0466l-.7713,3.5879h1.1447c1.0953,0,1.9803-.8934,1.9803-2.0218,0-.9168-.6493-1.566-1.5583-1.566h-.7954Z"/><path d="m325.5589,71.859h-1.0875l.8927-4.2281h1.0875l-.8927,4.2281Zm-.0325-5.2916c0-.3818.3246-.7064.698-.7064.3084,0,.5519.2441.5519.5519,0,.3818-.3246.7142-.698.7142-.3084,0-.5519-.2428-.5519-.5597Z"/><path d="m326.9068,70.5202c.4545.3896.909.5843,1.3875.5843.4467,0,.7467-.187.7467-.4636,0-.1857-.1539-.3078-.4623-.3805l-.7791-.1714c-.698-.1532-1.0713-.5519-1.0713-1.144,0-.8518.6493-1.3791,1.6797-1.3791.6817,0,1.331.2272,1.8264.6493l-.609.6726c-.4298-.3246-.8765-.4947-1.2901-.4947-.3896,0-.633.1623-.633.422,0,.2026.1376.3168.5032.3974l.7707.1714c.7142.1532,1.1038.5597,1.1038,1.1271,0,.8207-.7707,1.4375-1.7933,1.4375-.7791,0-1.542-.2766-2.005-.7233l.6252-.7051Z"/><path d="m331.2491,67.6309h1.0797l-.0409.2104c.3006-.1779.633-.2675.9823-.2675,1.0713,0,1.8829.8441,1.8829,1.9556,0,1.3232-1.0473,2.3867-2.3536,2.3867-.5032,0-.9414-.1623-1.2661-.4636l-.4545,2.1023h-1.0875l1.2576-5.924Zm.8441,1.2012l-.3571,1.6634c.211.2922.6006.4701,1.0226.4701.7467,0,1.331-.5921,1.331-1.3388,0-.6324-.4623-1.1116-1.1038-1.1116-.3409,0-.6408.113-.8927.3168Z"/><path d="m336.4693,71.859h-1.0875l1.2089-5.6811,1.1362-.2441-1.2576,5.9253Z"/><path d="m337.4192,70.7306c0-.8596.6733-1.3959,1.7771-1.3959.398,0,.8038.0818,1.1525.2117l.0487-.2117c.1221-.5766-.1701-.8596-.8603-.8596-.3084,0-.6733.0805-1.1927.2753l-.2681-.8363c.6252-.2428,1.1849-.3571,1.6965-.3571,1.2901,0,1.9231.6584,1.6959,1.7621l-.5356,2.5399h-1.0713l.0571-.2597c-.3493.2104-.6817.3078-1.0635.3078-.8843,0-1.4362-.4623-1.4362-1.1765Zm1.8095.3896c.3006,0,.5843-.0727.8363-.235l.1376-.6337c-.2675-.1208-.6006-.1857-.9252-.1857-.511,0-.8278.2182-.8278.5675,0,.3091.2922.487.7791.487Z"/><path d="m342.8419,71.8512l-.7304-4.2203h1.1602l.4383,2.9776,1.818-2.9776h1.1934l-2.9789,4.7306c-.5434.8609-1.0953,1.218-1.8907,1.218-.2357,0-.4467-.0325-.6415-.0818l.1948-.9492c.1058.0325.2435.0493.398.0493.3811,0,.6655-.1714.9005-.5363l.1383-.2104Z"/><path d="m351.5921,66.1779c1.0304,0,1.6959.535,1.6959,1.3557,0,.6077-.3649,1.144-.9168,1.444.4058.235.6493.6168.6493,1.0713,0,1.0388-.9337,1.8102-2.1673,1.8102h-2.9133l1.2089-5.6811h2.4432Zm.2675,3.8632c0-.3896-.2922-.6246-.7791-.6246h-1.4687l-.3084,1.4687h1.5745c.5759,0,.9817-.3493.9817-.8441Zm-1.7693-2.8893l-.2837,1.3466h1.4037c.5194,0,.9012-.3246.9012-.77,0-.3571-.2681-.5766-.7064-.5766h-1.3148Z"/><path d="m354.458,71.859h-1.0875l1.2096-5.6811,1.1362-.2441-1.2583,5.9253Z"/><path d="m355.4079,70.7306c0-.8596.6739-1.3959,1.7777-1.3959.3974,0,.8031.0818,1.1525.2117l.0487-.2117c.1214-.5766-.1708-.8596-.8603-.8596-.3084,0-.6739.0805-1.1934.2753l-.2675-.8363c.6246-.2428,1.1849-.3571,1.6959-.3571,1.2908,0,1.9238.6584,1.6965,1.7621l-.5356,2.5399h-1.0713l.0565-.2597c-.3487.2104-.6817.3078-1.0629.3078-.885,0-1.4368-.4623-1.4368-1.1765Zm1.8102.3896c.3,0,.5843-.0727.8356-.235l.1383-.6337c-.2681-.1208-.6006-.1857-.9252-.1857-.5116,0-.8278.2182-.8278.5675,0,.3091.2922.487.7791.487Z"/><path d="m363.0784,70.5604l.5603.7298c-.4792.4311-1.0473.6584-1.6556.6584-1.1447,0-2.005-.8441-2.005-1.9894,0-1.331,1.0473-2.4023,2.3374-2.4023.7064,0,1.3635.3246,1.7368.8531l-.7545.6817c-.2519-.3818-.5843-.561-.9986-.561-.6733,0-1.2336.6168-1.2336,1.3726,0,.6324.4305,1.0791,1.0388,1.0791.3493,0,.6577-.1376.9739-.422Z"/><path d="m365.1736,66.1779l1.1362-.2441-.7467,3.5229,2.0855-1.8258h1.3472l-2.4835,2.1101,1.6881,2.1179h-1.3226l-1.4284-1.8751-.398,1.8751h-1.0875l1.2096-5.6811Z"/></g><g class="uuid-9a66f891-47ea-4ae0-99ad-451d82414e78"><path d="m289.1101,85.6599h1.3635l2.3049,5.6811h-1.2745l-.5759-1.4933h-2.3458l-.5843,1.4933h-1.2252l2.3374-5.6811Zm1.4609,3.2464l-.8038-2.0939-.8194,2.0939h1.6232Z"/><path d="m292.9824,90.1152c0-.8031.6493-1.2817,1.7368-1.2817.3493,0,.698.0565,1.031.1623v-.3006c0-.487-.3006-.7382-.8927-.7382-.3571,0-.7551.113-1.2908.3487l-.4058-.82c.6655-.3078,1.2745-.4545,1.8829-.4545,1.1447,0,1.8017.5688,1.8017,1.5667v2.7432h-1.0953v-.2922c-.3571.2519-.7389.3649-1.2258.3649-.909,0-1.542-.5272-1.542-1.2985Zm1.8342.5038c.3655,0,.6739-.0896.9337-.2681v-.633c-.2759-.1052-.5681-.1545-.8927-.1545-.5116,0-.8116.2032-.8116.5279s.3.5279.7707.5279Z"/><path d="m302.0657,85.6599c1.144,0,1.9231.633,1.9231,1.5583,0,.4947-.2675.9252-.698,1.1934.5441.2597.8927.722.8927,1.2817,0,.9908-.7954,1.6479-1.9881,1.6479h-2.8003v-5.6811h2.6705Zm-1.4933.9739v1.3472h1.42c.5032,0,.8278-.2597.8278-.6733,0-.4142-.3246-.6739-.8278-.6739h-1.42Zm2.4263,2.9944c0-.4376-.3487-.7298-.8927-.7298h-1.5336v1.4687h1.5336c.5441,0,.8927-.2844.8927-.7389Z"/><path d="m307.1962,91.3982c-.422,0-.8278-.1221-1.1687-.3415v.2844h-1.0953v-5.6811l1.1116-.2435v2.029c.3331-.2519.7467-.3896,1.1849-.3896,1.2012,0,2.151.9577,2.151,2.1751s-.9577,2.1673-2.1835,2.1673Zm-1.1525-2.9951v1.6641c.2435.2428.609.3896,1.0064.3896.698,0,1.2336-.5279,1.2336-1.2258s-.5434-1.2258-1.2336-1.2258c-.4058,0-.7545.1383-1.0064.398Z"/><path d="m316.1335,89.6127l.7707.7622c-.5434.6415-1.4362,1.0473-2.3289,1.0473-1.7128,0-3.0276-1.2745-3.0276-2.9217,0-1.6556,1.3232-2.9302,3.0276-2.9302.9168,0,1.8342.4142,2.3614,1.0635l-.7954.7869c-.4058-.5025-.9577-.7707-1.566-.7707-1.031,0-1.818.7954-1.818,1.8504,0,1.0388.7954,1.8342,1.8504,1.8342.6006,0,1.1278-.2519,1.5258-.722Z"/><path d="m320.4362,89.9776l.6655.6895c-.4383.4792-1.0713.7551-1.7206.7551-1.2498,0-2.216-.9577-2.216-2.1913s.9661-2.1997,2.216-2.1997c.6733,0,1.3148.2766,1.753.7551l-.6817.7226c-.3084-.3415-.6493-.5116-1.0473-.5116-.6408,0-1.1362.5356-1.1362,1.2336s.5032,1.2174,1.1609,1.2174c.3811,0,.7058-.1461,1.0064-.4707Z"/><path d="m323.3832,85.6599h2.1835c1.6959,0,3.0029,1.2414,3.0029,2.8568,0,1.5907-1.307,2.8243-3.0029,2.8243h-2.1835v-5.6811Zm1.1771,1.0466v3.5879h.9979c1.0064,0,1.7939-.7791,1.7939-1.7777,0-1.0226-.7876-1.8102-1.7939-1.8102h-.9979Z"/><path d="m332.4587,90.9917c-.3409.2681-.7551.4064-1.2012.4064-1.2012,0-2.151-.9583-2.151-2.1751,0-1.218.9577-2.1673,2.1835-2.1673.4136,0,.8194.1136,1.1525.3324v-1.7284l1.1116-.2435v5.9246h-1.0953v-.3493Zm-1.0226-.5434c.4136,0,.7545-.1461,1.0064-.4058v-1.6479c-.2435-.2513-.609-.3974-1.0064-.3974-.7064,0-1.2336.5272-1.2336,1.2258,0,.6895.5356,1.2252,1.2336,1.2252Z"/><path d="m336.1362,85.6599h4.3664v1.0226h-3.1892v1.2985h2.1017v.9901h-2.1017v1.3472h3.2217v1.0226h-4.3988v-5.6811Z"/><path d="m343.1418,91.4222c-1.2823,0-2.2724-.9577-2.2724-2.1913,0-1.2258.9492-2.1913,2.1751-2.1913,1.2012,0,2.0939.9739,2.0939,2.2724v.2922h-3.149c.1539.5279.6168.885,1.2012.885.3733,0,.7058-.1221.933-.3415l.7304.6662c-.5194.422-1.0388.6084-1.7121.6084Zm-1.1609-2.6133h2.0699c-.1383-.5032-.5441-.8518-1.031-.8518-.511,0-.9005.3324-1.0388.8518Z"/><path d="m347.5257,85.6599h4.3904v1.0226h-3.2139v1.3394h2.1348v.9895h-2.1348v2.3296h-1.1765v-5.6811Z"/><path d="m353.127,87.113v-.4064c0-.9492.5681-1.4687,1.6069-1.4687.2272,0,.4785.0247.6571.0727v.9337c-.2026-.0403-.3409-.0649-.5194-.0649-.422,0-.633.1785-.633.5519v.3818h1.1525v.933h-1.1525v3.2951h-1.1116v-3.2951h-.9414v-.933h.9414Z"/><path d="m360.4728,91.4306c-1.6881,0-3.0107-1.283-3.0107-2.9302s1.3148-2.9302,2.9944-2.9302c.9414,0,1.818.398,2.362,1.0635l-.82.7545c-.3974-.4785-.933-.7382-1.542-.7382-1.0226,0-1.7855.7954-1.7855,1.8504s.7876,1.8589,1.818,1.8589c.8038,0,1.4368-.487,1.5745-1.1856h-1.6797v-1.022h2.938v.3571c0,1.6797-1.2096,2.9217-2.849,2.9217Z"/><path d="m363.8588,89.1984c0-1.2012.9577-2.1504,2.1751-2.1504.422,0,.8116.1214,1.144.3402v-.2753h1.096v4.2281c0,1.12-.7389,1.7452-2.0939,1.7452-.6493,0-1.2661-.1299-1.7615-.3818l.3896-.8687c.4629.2272.9012.3415,1.3472.3415.6655,0,1.0064-.2922,1.0064-.8441v-.3493c-.3324.2519-.7382.3818-1.1602.3818-1.1934,0-2.1426-.9583-2.1426-2.1673Zm2.3127,1.2258c.398,0,.7389-.1383.9901-.3818v-1.6634c-.2435-.2357-.6006-.3818-.9817-.3818-.6902,0-1.2258.5272-1.2258,1.2012,0,.6895.5279,1.2258,1.2174,1.2258Z"/><path d="m370.856,85.6599h1.1771v2.2802h2.6133v-2.2802h1.1765v5.6811h-1.1765v-2.3211h-2.6133v2.3211h-1.1771v-5.6811Z"/><path d="m376.7819,85.6599l1.1122-.2435v2.029c.3246-.2675.722-.4142,1.1849-.4142.9817,0,1.6719.6902,1.6719,1.6803v2.6295h-1.1122v-2.4672c0-.5356-.3409-.8843-.8765-.8843-.3733,0-.6733.1454-.8681.422v2.9295h-1.1122v-5.6811Z"/><path d="m383.3006,85.6599h1.1765v5.6811h-1.1765v-5.6811Z"/><path d="m385.3542,85.9767c0-.3493.2844-.6337.633-.6337.3493,0,.633.2844.633.6337,0,.3487-.2837.6324-.633.6324-.3487,0-.633-.2837-.633-.6324Zm1.1934,5.3643h-1.1122v-4.2281h1.1122v4.2281Z"/><path d="m391.0444,91.4222c-1.1362,0-1.9563-.5928-2.2971-1.6641l1.0875-.4136c.2357.6902.6252,1.0148,1.2174,1.0148.698,0,1.1609-.5038,1.1609-1.2583v-3.4411h1.1765v3.4736c0,1.3797-.933,2.2887-2.3452,2.2887Z"/><path d="m393.4156,93.0129v-.8525c.1214.0247.2188.0325.3649.0325.3331,0,.4792-.1299.4792-.4298v-4.6501h1.1116v4.715c0,.8038-.5032,1.2583-1.3713,1.2583-.211,0-.4545-.0247-.5843-.0734Zm.7629-7.0362c0-.3493.2837-.6337.633-.6337.3487,0,.633.2844.633.6337,0,.3487-.2844.6324-.633.6324-.3493,0-.633-.2837-.633-.6324Z"/><path d="m397.9449,85.6599h1.1765v2.5484l2.4835-2.5484h1.4368l-2.7432,2.7023,2.873,2.9789h-1.5745l-2.4757-2.662v2.662h-1.1765v-5.6811Z"/><path d="m403.5299,85.6599l1.1116-.2435v3.482l1.8264-1.7855h1.2576l-1.9803,1.9394,2.1023,2.2887h-1.4206l-1.7855-1.9316v1.9316h-1.1116v-5.6811Z"/><path d="m409.8454,85.6599h1.1765v4.6423h3.1087v1.0388h-4.2852v-5.6811Z"/><path d="m415.9823,91.341h-1.1122v-5.6811l1.1122-.2435v5.9246Z"/><path d="m419.6429,87.161v4.18h-1.0875v-5.6811h1.5096l1.5583,3.0516,1.5583-3.0516h1.5096v5.6811h-1.1116v-4.1716l-1.9725,3.7658-1.964-3.7742Z"/><path d="m425.6422,87.113h1.1122v.3162c.3-.2597.6733-.398,1.1038-.398.5434,0,.9901.2357,1.2739.6337.3409-.4142.82-.6337,1.3959-.6337.9499,0,1.6154.6902,1.6154,1.6803v2.6295h-1.1122v-2.4672c0-.5356-.3084-.8843-.7954-.8843-.3409,0-.6168.1454-.8116.422.0162.0974.0247.1948.0247.3v2.6295h-1.1122v-2.4672c0-.5356-.3084-.8843-.7954-.8843-.3324,0-.5921.1299-.7869.3811v2.9704h-1.1122v-4.2281Z"/><path d="m435.8214,85.6599l2.8243,3.6762v-3.6762h1.1038v5.6811h-1.0388l-2.897-3.7982v3.7982h-1.1122v-5.6811h1.12Z"/><path d="m440.7085,87.113h1.1122v.3324c.3246-.2675.722-.4142,1.1849-.4142.9817,0,1.6719.6902,1.6719,1.6803v2.6295h-1.1122v-2.4672c0-.5356-.3409-.8843-.8765-.8843-.3733,0-.6733.1454-.8681.422v2.9295h-1.1122v-4.2281Z"/></g><g class="uuid-9a66f891-47ea-4ae0-99ad-451d82414e78"><path d="m290.1003,101.171c-1.6803,0-3.0029-1.2908-3.0029-2.9302s1.3226-2.9302,3.0029-2.9302c1.6881,0,3.0107,1.2908,3.0107,2.9302s-1.3226,2.9302-3.0107,2.9302Zm0-4.7806c-1.0148,0-1.7939.7954-1.7939,1.8504,0,1.0473.7791,1.8504,1.7939,1.8504,1.0226,0,1.8017-.8031,1.8017-1.8504,0-1.0551-.7791-1.8504-1.8017-1.8504Z"/><path d="m295.9048,96.7715c1.2661,0,2.2562.9661,2.2562,2.1997s-.9901,2.1913-2.2562,2.1913-2.2562-.9577-2.2562-2.1913.9901-2.1997,2.2562-2.1997Zm1.1687,2.1997c0-.698-.5116-1.2336-1.1687-1.2336-.6493,0-1.1687.5356-1.1687,1.2336,0,.6817.511,1.2258,1.1687,1.2258.6571,0,1.1687-.5441,1.1687-1.2258Z"/><path d="m300.5483,95.4003h2.8484c1.12,0,1.9076.7389,1.9076,1.7855,0,1.0142-.8038,1.753-1.9076,1.753h-1.6719v2.1426h-1.1765v-5.6811Zm1.1765,1.0142v1.5505h1.542c.5116,0,.8441-.3084.8441-.7713,0-.4701-.3324-.7791-.8441-.7791h-1.542Z"/><path d="m306.0035,96.8533h1.0953v.3487c.3409-.2681.7551-.4058,1.2012-.4058,1.2012,0,2.151.9577,2.151,2.1751s-.9577,2.1673-2.1835,2.1673c-.4136,0-.8194-.1143-1.1525-.3331v1.9718h-1.1116v-5.924Zm1.1116,1.2901v1.6641c.2435.2428.609.3896,1.0064.3896.698,0,1.2336-.5279,1.2336-1.2258s-.5434-1.2258-1.2336-1.2258c-.4058,0-.7545.1383-1.0064.398Z"/><path d="m317.7651,100.3101l.5681.7064-1.031.3409-.3733-.4707c-.3974.187-.8356.2844-1.3063.2844-1.6803,0-3.0029-1.2908-3.0029-2.9302s1.3226-2.9302,3.0029-2.9302c1.6881,0,3.0107,1.2908,3.0107,2.9302,0,.82-.3246,1.542-.8681,2.0692Zm-.7226-.909c.2357-.3078.3818-.7142.3818-1.1602,0-1.0551-.7791-1.8504-1.8017-1.8504-1.0148,0-1.7939.7954-1.7939,1.8504,0,1.0473.7791,1.8504,1.7939,1.8504.211,0,.4058-.0325.5843-.0974l-.6252-.7791,1.031-.3409.4298.5272Z"/><path d="m319.1707,98.9635c0-1.218.9577-2.1673,2.1829-2.1673.422,0,.8363.1136,1.1687.3409v-.2837h1.096v5.924h-1.1122v-2.0283c-.3324.2513-.7467.3896-1.1849.3896-1.2012,0-2.1504-.9583-2.1504-2.1751Zm2.3289,1.2252c.4142,0,.7551-.1461,1.0064-.4058v-1.6479c-.2435-.2513-.6084-.3974-1.0064-.3974-.7058,0-1.2336.5272-1.2336,1.2258,0,.6895.5356,1.2252,1.2336,1.2252Z"/><path d="m326.2004,95.4003h2.7756c1.1525,0,1.964.722,1.964,1.7608,0,.7226-.4383,1.3154-1.1122,1.5829l1.2583,2.3374h-1.3148l-1.1122-2.1751h-1.2823v2.1751h-1.1765v-5.6811Zm1.1765,1.0142v1.5258h1.4933c.5279,0,.8765-.3078.8765-.7622s-.3487-.7635-.8765-.7635h-1.4933Z"/><path d="m331.6394,96.8533h1.1116v.4623c.2681-.3649.6577-.5597,1.1284-.5597.2188.0078.3487.0325.4623.0974v.9739c-.1623-.0734-.3649-.1143-.5681-.1143-.4298,0-.8116.2195-1.0226.6337v2.7347h-1.1116v-4.2281Z"/><path d="m336.8342,99.3362c.6655.5766,1.2421.8285,1.9238.8285.7058,0,1.1602-.2766,1.1602-.7142,0-.3896-.2597-.5843-.933-.6986l-1.1284-.1948c-.9739-.1623-1.4849-.6895-1.4849-1.5173,0-1.0629.8603-1.7206,2.24-1.7206.8278,0,1.7121.3006,2.3452.7954l-.633.8765c-.6084-.4623-1.1765-.6817-1.7933-.6817-.633,0-1.0388.2519-1.0388.6415,0,.3487.2272.5272.8116.6168l1.0713.1779c1.1362.187,1.6959.7226,1.6959,1.5992,0,1.1122-.933,1.818-2.3939,1.818-.9174,0-1.8342-.3571-2.5159-.9823l.6733-.8441Z"/><path d="m341.9809,99.84c.4954.3246.9252.4785,1.3719.4785.4947,0,.8194-.1785.8194-.446,0-.2195-.1623-.3415-.5272-.398l-.8116-.1214c-.8363-.1299-1.2823-.5441-1.2823-1.2258,0-.8194.6817-1.3388,1.7608-1.3388.6168,0,1.2096.1779,1.7368.5272l-.5356.7142c-.4623-.2759-.8765-.4058-1.3063-.4058-.4058,0-.6655.1623-.6655.4136,0,.2272.1623.3415.5759.398l.8116.1214c.8278.1221,1.2908.5519,1.2908,1.2096,0,.7954-.7876,1.3959-1.8504,1.3959-.7713,0-1.4609-.2032-1.94-.5843l.5519-.7382Z"/><path d="m347.1115,95.4003h4.9994v1.0388h-1.9076v4.6423h-1.1765v-4.6423h-1.9154v-1.0388Z"/><path d="m353.1101,97.7863h-.8681v-.933h.8681v-1.0797l1.1122-.2513v1.331h1.2012v.933h-1.2012v1.8744c0,.398.1539.5441.5843.5441.211,0,.3733-.0247.5921-.0974v.909c-.235.0727-.6168.1299-.8603.1299-.9414,0-1.4284-.4298-1.4284-1.2583v-2.1017Z"/><path d="m360.1073,101.1626c-1.5336,0-2.5159-.9823-2.5159-2.5406v-3.2217h1.1771v3.2217c0,.885.5272,1.4531,1.3472,1.4531.8116,0,1.331-.5681,1.331-1.4531v-3.2217h1.1765v3.2217c0,1.5505-.9901,2.5406-2.5159,2.5406Z"/><path d="m364.5723,99.3121c0,.5434.3493.8927.8765.8927.3818,0,.6817-.1461.8765-.422v-2.9295h1.1122v4.2281h-1.1122v-.3409c-.3246.2759-.7304.422-1.1927.422-.9823,0-1.6719-.698-1.6719-1.6881v-2.6211h1.1116v2.4588Z"/><path d="m369.4679,95.4003h1.2739l1.7368,4.4878,1.7777-4.4878h1.2174l-2.3374,5.6811h-1.3635l-2.3049-5.6811Z"/><path d="m375.2801,96.8533h1.2096l1.1602,2.8159,1.1525-2.8159h1.1849l-1.818,4.2281h-1.0713l-1.818-4.2281Z"/><path d="m383.0889,101.0814l-1.2576-5.6811h1.2089l.7713,3.8554,1.1116-3.8554h1.1038l1.1038,3.8385.7713-3.8385h1.1687l-1.2583,5.6811h-1.2336l-1.1278-3.9683-1.1284,3.9683h-1.2336Z"/><path d="m390.3627,101.0814l-1.1609-4.2281h1.0551l.698,2.7347.8441-2.7347h.9337l.8356,2.7347.698-2.7347h1.0388l-1.1687,4.2281h-1.0629l-.82-2.7023-.8194,2.7023h-1.0713Z"/><path d="m396.995,101.0814l2.1588-2.938-2.0452-2.7432h1.4044l1.3472,1.8667,1.3388-1.8667h1.3557l-2.0212,2.7432,2.1913,2.938h-1.4037l-1.4855-2.0699-1.4849,2.0699h-1.3557Z"/><path d="m404.4629,98.931l-1.5829-2.0777h1.2908l.933,1.2576.9252-1.2576h1.2498l-1.5583,2.0608,1.6556,2.1673h-1.2985l-.9979-1.3472-.9986,1.3472h-1.2414l1.6232-2.1504Z"/><path d="m411.2654,98.9063l-2.3211-3.5061h1.3557l1.5907,2.4672,1.5985-2.4672h1.2823l-2.3289,3.5139v2.1673h-1.1771v-2.1751Z"/><path d="m415.8115,101.1217l-1.6472-4.2683h1.2252l1.0473,2.8808,1.2012-2.8808h1.2012l-1.9478,4.5605c-.4383,1.0233-.9499,1.4128-1.8751,1.4128-.1948,0-.3811-.0169-.4947-.0493v-.957c.1136.024.2188.0325.3896.0325.3974,0,.6733-.1948.8356-.5766l.0649-.1545Z"/><path d="m420.6421,100.2776l3.1327-3.8547h-3.1087v-1.0226h4.6423v.8038l-3.1327,3.8547h3.1652v1.0226h-4.6988v-.8038Z"/><path d="m425.7805,100.2945l2.1264-2.5081h-2.1101v-.933h3.5385v.7869l-2.1426,2.5075h2.1913v.9337h-3.6035v-.7869Z"/></g></g><g id="uuid-d72143dd-9391-4ce4-ba42-f824840932a3" class="uuid-9a66f891-47ea-4ae0-99ad-451d82414e78"><g class="uuid-9a66f891-47ea-4ae0-99ad-451d82414e78"><path d="m288.0713,137.2166h2.5322c1.0388,0,1.7446.6415,1.7446,1.5829,0,.8765-.6168,1.5907-1.4849,1.8258l.8518,2.2724h-1.2174l-.7545-2.1913h-1.2661l-.4629,2.1913h-1.1525l1.2096-5.6811Zm.933,1.0142l-.3162,1.518h1.5258c.5519,0,.9577-.3571.9577-.8441,0-.4142-.3006-.6739-.7713-.6739h-1.3959Z"/><path d="m294.5406,142.9873c-1.2498,0-2.1426-.8441-2.1426-2.0212,0-1.2901,1.031-2.3614,2.2887-2.3614,1.12,0,1.9154.8518,1.9154,2.0368,0,.1214-.0078.2188-.0403.511h-3.084c.0974.5441.5434.909,1.144.909.3571,0,.6739-.113.9174-.3078l.6084.7058c-.5194.3655-.9979.5279-1.6069.5279Zm-.9901-2.6218h2.029c-.0974-.5032-.4623-.8363-.9492-.8363s-.9012.3415-1.0797.8363Z"/><path d="m299.9958,142.6867c-.3084.1785-.6415.2681-.9901.2681-1.0635,0-1.8829-.8441-1.8829-1.9563,0-1.3226,1.0551-2.3861,2.3536-2.3861.5032,0,.9414.1545,1.2739.4383l.3896-1.8342,1.1447-.2435-1.2583,5.9246h-1.0791l.0487-.211Zm-.698-.6733c.3324,0,.6408-.1143.8927-.3246l.3571-1.6803c-.2272-.2759-.609-.4467-1.031-.4467-.7382,0-1.3226.5928-1.3226,1.3394,0,.6408.4707,1.1122,1.1038,1.1122Z"/><path d="m304.8017,137.2166h1.1525l-.487,2.2802h2.5646l.487-2.2802h1.144l-1.2089,5.6811h-1.1447l.4954-2.3211h-2.5646l-.4954,2.3211h-1.1525l1.2096-5.6811Z"/><path d="m309.4051,141.7693c0-.8596.6733-1.3959,1.7771-1.3959.398,0,.8038.0818,1.1525.2117l.0487-.2117c.1221-.5759-.1701-.8596-.8603-.8596-.3084,0-.6733.0805-1.1927.2753l-.2681-.8356c.6252-.2435,1.1849-.3571,1.6965-.3571,1.2901,0,1.9231.6577,1.6959,1.7615l-.5356,2.5399h-1.0713l.0571-.2597c-.3493.211-.6817.3084-1.0635.3084-.8843,0-1.4362-.4629-1.4362-1.1771Zm1.8095.3896c.3006,0,.5843-.0727.8363-.235l.1376-.633c-.2675-.1214-.6006-.1863-.9252-.1863-.511,0-.8278.2188-.8278.5675,0,.3091.2922.487.7791.487Z"/><path d="m314.8434,139.6027h-.8518l.1948-.933h.8518l.2272-1.0797,1.1447-.2513-.2844,1.331h1.1771l-.1948.933h-1.1771l-.3974,1.8504c-.0896.4136.0649.5759.5272.5759.1708,0,.3246-.0156.5194-.0649l-.1948.9012c-.1948.0487-.5194.0896-.7707.0896-.9499,0-1.3797-.4714-1.2012-1.3232l.4298-2.029Z"/><path d="m319.8681,137.2166h1.8589c1.5258,0,2.6295,1.0635,2.6295,2.5322,0,1.7128-1.4933,3.149-3.2788,3.149h-2.4185l1.2089-5.6811Zm.9337,1.0466l-.7713,3.5879h1.1447c1.0953,0,1.9803-.8934,1.9803-2.0212,0-.9174-.6493-1.5667-1.5583-1.5667h-.7954Z"/><path d="m325.5589,142.8977h-1.0875l.8927-4.2281h1.0875l-.8927,4.2281Zm-.0325-5.2916c0-.3818.3246-.7064.698-.7064.3084,0,.5519.2441.5519.5519,0,.3818-.3246.7142-.698.7142-.3084,0-.5519-.2428-.5519-.5597Z"/><path d="m326.9068,141.5589c.4545.3896.909.5843,1.3875.5843.4467,0,.7467-.187.7467-.4629,0-.1863-.1539-.3084-.4623-.3811l-.7791-.1708c-.698-.1539-1.0713-.5519-1.0713-1.1447,0-.8518.6493-1.3791,1.6797-1.3791.6817,0,1.331.2272,1.8264.6493l-.609.6733c-.4298-.3246-.8765-.4954-1.2901-.4954-.3896,0-.633.1623-.633.422,0,.2032.1376.3168.5032.398l.7707.1708c.7142.1539,1.1038.5597,1.1038,1.1278,0,.82-.7707,1.4368-1.7933,1.4368-.7791,0-1.542-.2766-2.005-.7226l.6252-.7058Z"/><path d="m331.2491,138.6697h1.0797l-.0409.2104c.3006-.1779.633-.2675.9823-.2675,1.0713,0,1.8829.8441,1.8829,1.9556,0,1.3232-1.0473,2.3867-2.3536,2.3867-.5032,0-.9414-.1623-1.2661-.4629l-.4545,2.1017h-1.0875l1.2576-5.924Zm.8441,1.2012l-.3571,1.6634c.211.2922.6006.4707,1.0226.4707.7467,0,1.331-.5928,1.331-1.3394,0-.6324-.4623-1.1116-1.1038-1.1116-.3409,0-.6408.1136-.8927.3168Z"/><path d="m336.4693,142.8977h-1.0875l1.2089-5.6811,1.1362-.2435-1.2576,5.9246Z"/><path d="m337.4192,141.7693c0-.8596.6733-1.3959,1.7771-1.3959.398,0,.8038.0818,1.1525.2117l.0487-.2117c.1221-.5759-.1701-.8596-.8603-.8596-.3084,0-.6733.0805-1.1927.2753l-.2681-.8356c.6252-.2435,1.1849-.3571,1.6965-.3571,1.2901,0,1.9231.6577,1.6959,1.7615l-.5356,2.5399h-1.0713l.0571-.2597c-.3493.211-.6817.3084-1.0635.3084-.8843,0-1.4362-.4629-1.4362-1.1771Zm1.8095.3896c.3006,0,.5843-.0727.8363-.235l.1376-.633c-.2675-.1214-.6006-.1863-.9252-.1863-.511,0-.8278.2188-.8278.5675,0,.3091.2922.487.7791.487Z"/><path d="m342.8419,142.8899l-.7304-4.2203h1.1602l.4383,2.9782,1.818-2.9782h1.1934l-2.9789,4.7312c-.5434.8603-1.0953,1.2174-1.8907,1.2174-.2357,0-.4467-.0325-.6415-.0812l.1948-.9499c.1058.0325.2435.0493.398.0493.3811,0,.6655-.1708.9005-.5363l.1383-.2104Z"/><path d="m351.5921,137.2166c1.0304,0,1.6959.5356,1.6959,1.3557,0,.6084-.3649,1.144-.9168,1.444.4058.2357.6493.6168.6493,1.0713,0,1.0388-.9337,1.8102-2.1673,1.8102h-2.9133l1.2089-5.6811h2.4432Zm.2675,3.8632c0-.3896-.2922-.6246-.7791-.6246h-1.4687l-.3084,1.4687h1.5745c.5759,0,.9817-.3493.9817-.8441Zm-1.7693-2.8893l-.2837,1.3472h1.4037c.5194,0,.9012-.3246.9012-.7707,0-.3571-.2681-.5766-.7064-.5766h-1.3148Z"/><path d="m355.9922,138.5879c1.1849,0,2.0777.8765,2.0777,2.0296,0,1.2817-1.0797,2.3614-2.362,2.3614-1.1849,0-2.0777-.8765-2.0777-2.0368,0-1.283,1.0713-2.3543,2.362-2.3543Zm1.0064,2.0777c0-.6408-.4467-1.1116-1.0635-1.1116-.6817,0-1.2336.609-1.2336,1.3388,0,.6493.4467,1.1206,1.0551,1.1206.6817,0,1.2421-.609,1.2421-1.3479Z"/><path d="m359.3853,142.8977h-1.0875l1.2096-5.6811,1.1362-.2435-1.2583,5.9246Z"/><path d="m363.379,142.6867c-.3084.1785-.6415.2681-.9901.2681-1.0635,0-1.8829-.8441-1.8829-1.9563,0-1.3226,1.0551-2.3861,2.3536-2.3861.5032,0,.9414.1545,1.2739.4383l.3896-1.8342,1.1447-.2435-1.2583,5.9246h-1.0791l.0487-.211Zm-.698-.6733c.3324,0,.6408-.1143.8927-.3246l.3571-1.6803c-.2272-.2759-.609-.4467-1.031-.4467-.7382,0-1.3226.5928-1.3226,1.3394,0,.6408.4707,1.1122,1.1038,1.1122Z"/></g><g class="uuid-9a66f891-47ea-4ae0-99ad-451d82414e78"><path d="m289.1101,156.6986h1.3635l2.3049,5.6811h-1.2745l-.5759-1.4933h-2.3458l-.5843,1.4933h-1.2252l2.3374-5.6811Zm1.4609,3.2464l-.8038-2.0939-.8194,2.0939h1.6232Z"/><path d="m292.9824,161.1539c0-.8031.6493-1.2817,1.7368-1.2817.3493,0,.698.0565,1.031.1623v-.3006c0-.487-.3006-.7382-.8927-.7382-.3571,0-.7551.113-1.2908.3487l-.4058-.82c.6655-.3078,1.2745-.4545,1.8829-.4545,1.1447,0,1.8017.5688,1.8017,1.5667v2.7432h-1.0953v-.2922c-.3571.2519-.7389.3649-1.2258.3649-.909,0-1.542-.5272-1.542-1.2985Zm1.8342.5038c.3655,0,.6739-.0896.9337-.2681v-.633c-.2759-.1052-.5681-.1545-.8927-.1545-.5116,0-.8116.2032-.8116.5279s.3.5279.7707.5279Z"/><path d="m302.0657,156.6986c1.144,0,1.9231.633,1.9231,1.5583,0,.4947-.2675.9252-.698,1.1934.5441.2597.8927.722.8927,1.2817,0,.9908-.7954,1.6479-1.9881,1.6479h-2.8003v-5.6811h2.6705Zm-1.4933.9739v1.3472h1.42c.5032,0,.8278-.2597.8278-.6733,0-.4142-.3246-.6739-.8278-.6739h-1.42Zm2.4263,2.9944c0-.4376-.3487-.7298-.8927-.7298h-1.5336v1.4687h1.5336c.5441,0,.8927-.2844.8927-.7389Z"/><path d="m307.1962,162.4369c-.422,0-.8278-.1221-1.1687-.3415v.2844h-1.0953v-5.6811l1.1116-.2435v2.029c.3331-.2519.7467-.3896,1.1849-.3896,1.2012,0,2.151.9577,2.151,2.1751s-.9577,2.1673-2.1835,2.1673Zm-1.1525-2.9951v1.6641c.2435.2428.609.3896,1.0064.3896.698,0,1.2336-.5279,1.2336-1.2258s-.5434-1.2258-1.2336-1.2258c-.4058,0-.7545.1383-1.0064.398Z"/><path d="m316.1335,160.6514l.7707.7622c-.5434.6415-1.4362,1.0473-2.3289,1.0473-1.7128,0-3.0276-1.2745-3.0276-2.9217,0-1.6556,1.3232-2.9302,3.0276-2.9302.9168,0,1.8342.4142,2.3614,1.0635l-.7954.7869c-.4058-.5025-.9577-.7707-1.566-.7707-1.031,0-1.818.7954-1.818,1.8504,0,1.0388.7954,1.8342,1.8504,1.8342.6006,0,1.1278-.2519,1.5258-.722Z"/><path d="m320.4362,161.0163l.6655.6895c-.4383.4792-1.0713.7551-1.7206.7551-1.2498,0-2.216-.9577-2.216-2.1913s.9661-2.1997,2.216-2.1997c.6733,0,1.3148.2766,1.753.7551l-.6817.7226c-.3084-.3415-.6493-.5116-1.0473-.5116-.6408,0-1.1362.5356-1.1362,1.2336s.5032,1.2174,1.1609,1.2174c.3811,0,.7058-.1461,1.0064-.4707Z"/><path d="m323.3832,156.6986h2.1835c1.6959,0,3.0029,1.2414,3.0029,2.8568,0,1.5907-1.307,2.8243-3.0029,2.8243h-2.1835v-5.6811Zm1.1771,1.0466v3.5879h.9979c1.0064,0,1.7939-.7791,1.7939-1.7777,0-1.0226-.7876-1.8102-1.7939-1.8102h-.9979Z"/><path d="m332.4587,162.0305c-.3409.2681-.7551.4064-1.2012.4064-1.2012,0-2.151-.9583-2.151-2.1751,0-1.218.9577-2.1673,2.1835-2.1673.4136,0,.8194.1136,1.1525.3324v-1.7284l1.1116-.2435v5.9246h-1.0953v-.3493Zm-1.0226-.5434c.4136,0,.7545-.1461,1.0064-.4058v-1.6479c-.2435-.2513-.609-.3974-1.0064-.3974-.7064,0-1.2336.5272-1.2336,1.2258,0,.6895.5356,1.2252,1.2336,1.2252Z"/><path d="m336.1362,156.6986h4.3664v1.0226h-3.1892v1.2985h2.1017v.9901h-2.1017v1.3472h3.2217v1.0226h-4.3988v-5.6811Z"/><path d="m343.1418,162.4609c-1.2823,0-2.2724-.9577-2.2724-2.1913,0-1.2258.9492-2.1913,2.1751-2.1913,1.2012,0,2.0939.9739,2.0939,2.2724v.2922h-3.149c.1539.5279.6168.885,1.2012.885.3733,0,.7058-.1221.933-.3415l.7304.6662c-.5194.422-1.0388.6084-1.7121.6084Zm-1.1609-2.6133h2.0699c-.1383-.5032-.5441-.8518-1.031-.8518-.511,0-.9005.3324-1.0388.8518Z"/><path d="m347.5257,156.6986h4.3904v1.0226h-3.2139v1.3394h2.1348v.9895h-2.1348v2.3296h-1.1765v-5.6811Z"/><path d="m353.127,158.1517v-.4064c0-.9492.5681-1.4687,1.6069-1.4687.2272,0,.4785.0247.6571.0727v.9337c-.2026-.0403-.3409-.0649-.5194-.0649-.422,0-.633.1785-.633.5519v.3818h1.1525v.933h-1.1525v3.2951h-1.1116v-3.2951h-.9414v-.933h.9414Z"/><path d="m360.4728,162.4694c-1.6881,0-3.0107-1.283-3.0107-2.9302s1.3148-2.9302,2.9944-2.9302c.9414,0,1.818.398,2.362,1.0635l-.82.7545c-.3974-.4785-.933-.7382-1.542-.7382-1.0226,0-1.7855.7954-1.7855,1.8504s.7876,1.8589,1.818,1.8589c.8038,0,1.4368-.487,1.5745-1.1856h-1.6797v-1.022h2.938v.3571c0,1.6797-1.2096,2.9217-2.849,2.9217Z"/><path d="m363.8588,160.2372c0-1.2012.9577-2.1504,2.1751-2.1504.422,0,.8116.1214,1.144.3402v-.2753h1.096v4.2281c0,1.12-.7389,1.7452-2.0939,1.7452-.6493,0-1.2661-.1299-1.7615-.3818l.3896-.8687c.4629.2272.9012.3415,1.3472.3415.6655,0,1.0064-.2922,1.0064-.8441v-.3493c-.3324.2519-.7382.3818-1.1602.3818-1.1934,0-2.1426-.9583-2.1426-2.1673Zm2.3127,1.2258c.398,0,.7389-.1383.9901-.3818v-1.6634c-.2435-.2357-.6006-.3818-.9817-.3818-.6902,0-1.2258.5272-1.2258,1.2012,0,.6895.5279,1.2258,1.2174,1.2258Z"/><path d="m370.856,156.6986h1.1771v2.2802h2.6133v-2.2802h1.1765v5.6811h-1.1765v-2.3211h-2.6133v2.3211h-1.1771v-5.6811Z"/><path d="m376.7819,156.6986l1.1122-.2435v2.029c.3246-.2675.722-.4142,1.1849-.4142.9817,0,1.6719.6902,1.6719,1.6803v2.6295h-1.1122v-2.4672c0-.5356-.3409-.8843-.8765-.8843-.3733,0-.6733.1454-.8681.422v2.9295h-1.1122v-5.6811Z"/><path d="m383.3006,156.6986h1.1765v5.6811h-1.1765v-5.6811Z"/><path d="m385.3542,157.0155c0-.3493.2844-.6337.633-.6337.3493,0,.633.2844.633.6337,0,.3487-.2837.6324-.633.6324-.3487,0-.633-.2837-.633-.6324Zm1.1934,5.3643h-1.1122v-4.2281h1.1122v4.2281Z"/><path d="m391.0444,162.4609c-1.1362,0-1.9563-.5928-2.2971-1.6641l1.0875-.4136c.2357.6902.6252,1.0148,1.2174,1.0148.698,0,1.1609-.5038,1.1609-1.2583v-3.4411h1.1765v3.4736c0,1.3797-.933,2.2887-2.3452,2.2887Z"/><path d="m393.4156,164.0516v-.8525c.1214.0247.2188.0325.3649.0325.3331,0,.4792-.1299.4792-.4298v-4.6501h1.1116v4.715c0,.8038-.5032,1.2583-1.3713,1.2583-.211,0-.4545-.0247-.5843-.0734Zm.7629-7.0362c0-.3493.2837-.6337.633-.6337.3487,0,.633.2844.633.6337,0,.3487-.2844.6324-.633.6324-.3493,0-.633-.2837-.633-.6324Z"/><path d="m397.9449,156.6986h1.1765v2.5484l2.4835-2.5484h1.4368l-2.7432,2.7023,2.873,2.9789h-1.5745l-2.4757-2.662v2.662h-1.1765v-5.6811Z"/><path d="m403.5299,156.6986l1.1116-.2435v3.482l1.8264-1.7855h1.2576l-1.9803,1.9394,2.1023,2.2887h-1.4206l-1.7855-1.9316v1.9316h-1.1116v-5.6811Z"/><path d="m409.8454,156.6986h1.1765v4.6423h3.1087v1.0388h-4.2852v-5.6811Z"/><path d="m415.9823,162.3798h-1.1122v-5.6811l1.1122-.2435v5.9246Z"/><path d="m419.6429,158.1997v4.18h-1.0875v-5.6811h1.5096l1.5583,3.0516,1.5583-3.0516h1.5096v5.6811h-1.1116v-4.1716l-1.9725,3.7658-1.964-3.7742Z"/><path d="m425.6422,158.1517h1.1122v.3162c.3-.2597.6733-.398,1.1038-.398.5434,0,.9901.2357,1.2739.6337.3409-.4142.82-.6337,1.3959-.6337.9499,0,1.6154.6902,1.6154,1.6803v2.6295h-1.1122v-2.4672c0-.5356-.3084-.8843-.7954-.8843-.3409,0-.6168.1454-.8116.422.0162.0974.0247.1948.0247.3v2.6295h-1.1122v-2.4672c0-.5356-.3084-.8843-.7954-.8843-.3324,0-.5921.1299-.7869.3811v2.9704h-1.1122v-4.2281Z"/><path d="m435.8214,156.6986l2.8243,3.6762v-3.6762h1.1038v5.6811h-1.0388l-2.897-3.7982v3.7982h-1.1122v-5.6811h1.12Z"/><path d="m440.7085,158.1517h1.1122v.3324c.3246-.2675.722-.4142,1.1849-.4142.9817,0,1.6719.6902,1.6719,1.6803v2.6295h-1.1122v-2.4672c0-.5356-.3409-.8843-.8765-.8843-.3733,0-.6733.1454-.8681.422v2.9295h-1.1122v-4.2281Z"/></g><g class="uuid-9a66f891-47ea-4ae0-99ad-451d82414e78"><path d="m290.1003,172.2104c-1.6803,0-3.0029-1.2908-3.0029-2.9302s1.3226-2.9302,3.0029-2.9302c1.6881,0,3.0107,1.2908,3.0107,2.9302s-1.3226,2.9302-3.0107,2.9302Zm0-4.7806c-1.0148,0-1.7939.7954-1.7939,1.8504,0,1.0473.7791,1.8504,1.7939,1.8504,1.0226,0,1.8017-.8031,1.8017-1.8504,0-1.0551-.7791-1.8504-1.8017-1.8504Z"/><path d="m295.9048,167.8109c1.2661,0,2.2562.9661,2.2562,2.1997s-.9901,2.1913-2.2562,2.1913-2.2562-.9577-2.2562-2.1913.9901-2.1997,2.2562-2.1997Zm1.1687,2.1997c0-.698-.5116-1.2336-1.1687-1.2336-.6493,0-1.1687.5356-1.1687,1.2336,0,.6817.511,1.2258,1.1687,1.2258.6571,0,1.1687-.5441,1.1687-1.2258Z"/><path d="m300.5483,166.4397h2.8484c1.12,0,1.9076.7389,1.9076,1.7855,0,1.0142-.8038,1.753-1.9076,1.753h-1.6719v2.1426h-1.1765v-5.6811Zm1.1765,1.0142v1.5505h1.542c.5116,0,.8441-.3084.8441-.7713,0-.4701-.3324-.7791-.8441-.7791h-1.542Z"/><path d="m306.0035,167.8927h1.0953v.3487c.3409-.2681.7551-.4058,1.2012-.4058,1.2012,0,2.151.9577,2.151,2.1751s-.9577,2.1673-2.1835,2.1673c-.4136,0-.8194-.1143-1.1525-.3331v1.9718h-1.1116v-5.924Zm1.1116,1.2901v1.6641c.2435.2428.609.3896,1.0064.3896.698,0,1.2336-.5279,1.2336-1.2258s-.5434-1.2258-1.2336-1.2258c-.4058,0-.7545.1383-1.0064.398Z"/><path d="m317.7651,171.3494l.5681.7064-1.031.3409-.3733-.4707c-.3974.187-.8356.2844-1.3063.2844-1.6803,0-3.0029-1.2908-3.0029-2.9302s1.3226-2.9302,3.0029-2.9302c1.6881,0,3.0107,1.2908,3.0107,2.9302,0,.82-.3246,1.542-.8681,2.0692Zm-.7226-.909c.2357-.3078.3818-.7142.3818-1.1602,0-1.0551-.7791-1.8504-1.8017-1.8504-1.0148,0-1.7939.7954-1.7939,1.8504,0,1.0473.7791,1.8504,1.7939,1.8504.211,0,.4058-.0325.5843-.0974l-.6252-.7791,1.031-.3409.4298.5272Z"/><path d="m319.1707,170.0029c0-1.218.9577-2.1673,2.1829-2.1673.422,0,.8363.1136,1.1687.3409v-.2837h1.096v5.924h-1.1122v-2.0283c-.3324.2513-.7467.3896-1.1849.3896-1.2012,0-2.1504-.9583-2.1504-2.1751Zm2.3289,1.2252c.4142,0,.7551-.1461,1.0064-.4058v-1.6479c-.2435-.2513-.6084-.3974-1.0064-.3974-.7058,0-1.2336.5272-1.2336,1.2258,0,.6895.5356,1.2252,1.2336,1.2252Z"/><path d="m326.2004,166.4397h2.7756c1.1525,0,1.964.722,1.964,1.7608,0,.7226-.4383,1.3154-1.1122,1.5829l1.2583,2.3374h-1.3148l-1.1122-2.1751h-1.2823v2.1751h-1.1765v-5.6811Zm1.1765,1.0142v1.5258h1.4933c.5279,0,.8765-.3078.8765-.7622s-.3487-.7635-.8765-.7635h-1.4933Z"/><path d="m331.6394,167.8927h1.1116v.4623c.2681-.3649.6577-.5597,1.1284-.5597.2188.0078.3487.0325.4623.0974v.9739c-.1623-.0734-.3649-.1143-.5681-.1143-.4298,0-.8116.2195-1.0226.6337v2.7347h-1.1116v-4.2281Z"/><path d="m336.8342,170.3755c.6655.5766,1.2421.8285,1.9238.8285.7058,0,1.1602-.2766,1.1602-.7142,0-.3896-.2597-.5843-.933-.6986l-1.1284-.1948c-.9739-.1623-1.4849-.6895-1.4849-1.5173,0-1.0629.8603-1.7206,2.24-1.7206.8278,0,1.7121.3006,2.3452.7954l-.633.8765c-.6084-.4623-1.1765-.6817-1.7933-.6817-.633,0-1.0388.2519-1.0388.6415,0,.3487.2272.5272.8116.6168l1.0713.1779c1.1362.187,1.6959.7226,1.6959,1.5992,0,1.1122-.933,1.818-2.3939,1.818-.9174,0-1.8342-.3571-2.5159-.9823l.6733-.8441Z"/><path d="m341.9809,170.8794c.4954.3246.9252.4785,1.3719.4785.4947,0,.8194-.1785.8194-.446,0-.2195-.1623-.3415-.5272-.398l-.8116-.1214c-.8363-.1299-1.2823-.5441-1.2823-1.2258,0-.8194.6817-1.3388,1.7608-1.3388.6168,0,1.2096.1779,1.7368.5272l-.5356.7142c-.4623-.2759-.8765-.4058-1.3063-.4058-.4058,0-.6655.1623-.6655.4136,0,.2272.1623.3415.5759.398l.8116.1214c.8278.1221,1.2908.5519,1.2908,1.2096,0,.7954-.7876,1.3959-1.8504,1.3959-.7713,0-1.4609-.2032-1.94-.5843l.5519-.7382Z"/><path d="m347.1115,166.4397h4.9994v1.0388h-1.9076v4.6423h-1.1765v-4.6423h-1.9154v-1.0388Z"/><path d="m353.1101,168.8257h-.8681v-.933h.8681v-1.0797l1.1122-.2513v1.331h1.2012v.933h-1.2012v1.8744c0,.398.1539.5441.5843.5441.211,0,.3733-.0247.5921-.0974v.909c-.235.0727-.6168.1299-.8603.1299-.9414,0-1.4284-.4298-1.4284-1.2583v-2.1017Z"/><path d="m360.1073,172.2019c-1.5336,0-2.5159-.9823-2.5159-2.5406v-3.2217h1.1771v3.2217c0,.885.5272,1.4531,1.3472,1.4531.8116,0,1.331-.5681,1.331-1.4531v-3.2217h1.1765v3.2217c0,1.5505-.9901,2.5406-2.5159,2.5406Z"/><path d="m364.5723,170.3515c0,.5434.3493.8927.8765.8927.3818,0,.6817-.1461.8765-.422v-2.9295h1.1122v4.2281h-1.1122v-.3409c-.3246.2759-.7304.422-1.1927.422-.9823,0-1.6719-.698-1.6719-1.6881v-2.6211h1.1116v2.4588Z"/><path d="m369.4679,166.4397h1.2739l1.7368,4.4878,1.7777-4.4878h1.2174l-2.3374,5.6811h-1.3635l-2.3049-5.6811Z"/><path d="m375.2801,167.8927h1.2096l1.1602,2.8159,1.1525-2.8159h1.1849l-1.818,4.2281h-1.0713l-1.818-4.2281Z"/><path d="m383.0889,172.1208l-1.2576-5.6811h1.2089l.7713,3.8554,1.1116-3.8554h1.1038l1.1038,3.8385.7713-3.8385h1.1687l-1.2583,5.6811h-1.2336l-1.1278-3.9683-1.1284,3.9683h-1.2336Z"/><path d="m390.3627,172.1208l-1.1609-4.2281h1.0551l.698,2.7347.8441-2.7347h.9337l.8356,2.7347.698-2.7347h1.0388l-1.1687,4.2281h-1.0629l-.82-2.7023-.8194,2.7023h-1.0713Z"/><path d="m396.995,172.1208l2.1588-2.938-2.0452-2.7432h1.4044l1.3472,1.8667,1.3388-1.8667h1.3557l-2.0212,2.7432,2.1913,2.938h-1.4037l-1.4855-2.0699-1.4849,2.0699h-1.3557Z"/><path d="m404.4629,169.9704l-1.5829-2.0777h1.2908l.933,1.2576.9252-1.2576h1.2498l-1.5583,2.0608,1.6556,2.1673h-1.2985l-.9979-1.3472-.9986,1.3472h-1.2414l1.6232-2.1504Z"/><path d="m411.2654,169.9457l-2.3211-3.5061h1.3557l1.5907,2.4672,1.5985-2.4672h1.2823l-2.3289,3.5139v2.1673h-1.1771v-2.1751Z"/><path d="m415.8115,172.161l-1.6472-4.2683h1.2252l1.0473,2.8808,1.2012-2.8808h1.2012l-1.9478,4.5605c-.4383,1.0233-.9499,1.4128-1.8751,1.4128-.1948,0-.3811-.0169-.4947-.0493v-.957c.1136.024.2188.0325.3896.0325.3974,0,.6733-.1948.8356-.5766l.0649-.1545Z"/><path d="m420.6421,171.317l3.1327-3.8547h-3.1087v-1.0226h4.6423v.8038l-3.1327,3.8547h3.1652v1.0226h-4.6988v-.8038Z"/><path d="m425.7805,171.3339l2.1264-2.5081h-2.1101v-.933h3.5385v.7869l-2.1426,2.5075h2.1913v.9337h-3.6035v-.7869Z"/></g></g><g id="uuid-09d9932a-3c76-4367-b408-0a105b79a944" class="uuid-9a66f891-47ea-4ae0-99ad-451d82414e78"><g class="uuid-9a66f891-47ea-4ae0-99ad-451d82414e78"><path d="m288.1018,208.0515h2.3614c1.0148,0,1.6641.5843,1.6641,1.4855,0,.9005-.6252,1.6063-1.5258,1.8011l.8194,2.3945h-.8765l-.7707-2.3374h-1.5583l-.4954,2.3374h-.8278l1.2096-5.6811Zm.6655.7467l-.398,1.8907h1.6965c.7142,0,1.2174-.4545,1.2174-1.0791,0-.5032-.3655-.8116-.9577-.8116h-1.5583Z"/><path d="m294.2303,213.8137c-1.1849,0-2.0368-.82-2.0368-1.9563,0-1.2661.9901-2.3205,2.1991-2.3205,1.0388,0,1.8017.8272,1.8017,1.9634,0,.1143,0,.2032-.024.422h-3.1977c.0565.6986.5843,1.2012,1.3063,1.2012.3818,0,.7467-.113,1.0226-.3246l.4305.5363c-.4792.3324-.9414.4785-1.5018.4785Zm-1.1927-2.4913h2.4101c-.0649-.6415-.511-1.096-1.1116-1.096-.609,0-1.12.4623-1.2985,1.096Z"/><path d="m299.677,213.4807c-.3246.2117-.6895.3168-1.0713.3168-1.0388,0-1.8258-.8194-1.8258-1.9076,0-1.2985,1.0226-2.3452,2.2802-2.3452.5279,0,1.0064.187,1.3394.5116l.422-2.005.8278-.1785-1.2421,5.8597h-.7869l.0565-.2519Zm-.8765-.3811c.3896,0,.7467-.1383,1.031-.3896l.4058-1.9069c-.2195-.3415-.6655-.5603-1.1447-.5603-.8518,0-1.5336.7058-1.5336,1.5823,0,.7389.5194,1.2745,1.2414,1.2745Z"/><path d="m304.3615,208.0515h.8278l-.5194,2.4348h2.9626l.5194-2.4348h.8356l-1.2089,5.6811h-.8363l.5279-2.475h-2.9626l-.5272,2.475h-.8278l1.2089-5.6811Z"/><path d="m308.8103,212.6366c0-.8272.6577-1.355,1.7043-1.355.4467,0,.885.1058,1.2421.2837l.0812-.3649c.1376-.6655-.1708-.9986-.9252-.9986-.3331,0-.698.0896-1.2012.2922l-.211-.6168c.5921-.2428,1.1038-.3487,1.566-.3487,1.1849,0,1.7693.6168,1.5505,1.6472l-.5441,2.5568h-.7791l.0649-.3c-.3571.2428-.722.3571-1.1362.3571-.8603,0-1.4122-.4545-1.4122-1.1531Zm1.6479.5519c.3733,0,.7142-.113,1.0226-.3324l.1539-.7142c-.2922-.2026-.6571-.3084-1.0875-.3084-.5843,0-.9817.3006-.9817.7304,0,.3896.3324.6246.8927.6246Z"/><path d="m314.0707,210.2837h-.8603l.1461-.6817h.8518l.2272-1.0557.8363-.1948-.2681,1.2505h1.1849l-.1461.6817h-1.1849l-.4707,2.2075c-.0974.446.0649.6246.5681.6246.1545,0,.3006-.0247.4954-.0727l-.1461.6733c-.187.0487-.4467.0812-.6655.0812-.8441,0-1.2258-.4142-1.0713-1.1525l.5032-2.3614Z"/><path d="m318.9091,208.0515h1.7043c1.542,0,2.6049,1.031,2.6049,2.5159,0,1.7368-1.4933,3.1652-3.3028,3.1652h-2.216l1.2096-5.6811Zm.6655.7629l-.885,4.1553h1.3148c1.2985,0,2.3458-1.0473,2.3458-2.3536,0-1.0713-.7304-1.8017-1.8017-1.8017h-.9739Z"/><path d="m324.2344,213.7326h-.7876l.8765-4.1307h.7876l-.8765,4.1307Zm.235-5.2429c0-.3006.2597-.5603.5519-.5603.2435,0,.4383.1948.4383.4467,0,.3-.2597.5597-.5519.5597-.2513,0-.4383-.1948-.4383-.446Z"/><path d="m325.5167,212.5717c.398.4064.8603.609,1.3635.609.5356,0,.9174-.2597.9174-.6246,0-.2597-.1785-.4064-.5766-.4954l-.7142-.1623c-.6895-.1539-1.0304-.511-1.0304-1.0713,0-.7876.6168-1.2901,1.566-1.2901.633,0,1.2258.2188,1.7128.6408l-.4629.511c-.4136-.3487-.8681-.5272-1.2985-.5272-.487,0-.8031.2272-.8031.5843,0,.2519.1623.3974.5921.4947l.7142.1623c.7064.1545,1.0551.5116,1.0551,1.0635,0,.7713-.722,1.3472-1.6881,1.3472-.7142,0-1.42-.2837-1.8342-.7382l.487-.5038Z"/><path d="m329.7785,209.6019h.7869l-.0565.2513c.3246-.2032.6817-.3084,1.0629-.3084,1.0473,0,1.8342.8116,1.8342,1.8991,0,1.2985-1.0226,2.3536-2.2887,2.3536-.5272,0-.9901-.187-1.331-.5356l-.4545,2.151h-.7869l1.2336-5.811Zm.5681,1.0304l-.398,1.8829c.2195.3487.6577.5759,1.1447.5759.8603,0,1.5336-.6973,1.5336-1.5738,0-.7389-.5194-1.2745-1.2414-1.2745-.3896,0-.7551.1383-1.0388.3896Z"/><path d="m334.5195,213.7326h-.7876l1.2096-5.6811.8278-.1785-1.2498,5.8597Z"/><path d="m335.5421,212.6366c0-.8272.6577-1.355,1.7043-1.355.4467,0,.885.1058,1.2421.2837l.0812-.3649c.1376-.6655-.1708-.9986-.9252-.9986-.3331,0-.698.0896-1.2012.2922l-.211-.6168c.5921-.2428,1.1038-.3487,1.566-.3487,1.1849,0,1.7693.6168,1.5505,1.6472l-.5441,2.5568h-.7791l.0649-.3c-.3571.2428-.722.3571-1.1362.3571-.8603,0-1.4122-.4545-1.4122-1.1531Zm1.6479.5519c.3733,0,.7142-.113,1.0226-.3324l.1539-.7142c-.2922-.2026-.6571-.3084-1.0875-.3084-.5843,0-.9817.3006-.9817.7304,0,.3896.3324.6246.8927.6246Z"/><path d="m340.7454,213.7326l-.7545-4.1307h.8441l.5272,3.2055,1.9887-3.2055h.8765l-2.9789,4.7312c-.487.7791-.9739,1.1038-1.6556,1.1038-.1863,0-.3649-.0325-.5272-.0734l.1539-.7058c.0896.0325.2272.0487.3655.0487.3571,0,.6493-.187.9005-.5681l.2597-.4058Z"/><path d="m347.4017,209.0903l-.9817,4.6423h-.7876l1.2096-5.6811h1.0791l.9823,3.6359,2.5075-3.6359h1.1447l-1.2096,5.6811h-.7707l.9739-4.6176-2.9626,4.2118-1.1849-4.2365Z"/><path d="m354.6671,213.8137c-1.1849,0-2.0368-.82-2.0368-1.9563,0-1.2661.9901-2.3205,2.1991-2.3205,1.0388,0,1.8017.8272,1.8017,1.9634,0,.1143,0,.2032-.024.422h-3.1977c.0565.6986.5843,1.2012,1.3063,1.2012.3818,0,.7467-.113,1.0226-.3246l.4305.5363c-.4792.3324-.9414.4785-1.5018.4785Zm-1.1927-2.4913h2.4101c-.0649-.6415-.511-1.096-1.1116-1.096-.609,0-1.12.4623-1.2985,1.096Z"/><path d="m360.1138,213.4807c-.3246.2117-.6895.3168-1.0713.3168-1.0388,0-1.8258-.8194-1.8258-1.9076,0-1.2985,1.0226-2.3452,2.2802-2.3452.5279,0,1.0064.187,1.3394.5116l.422-2.005.8278-.1785-1.2421,5.8597h-.7869l.0565-.2519Zm-.8765-.3811c.3896,0,.7467-.1383,1.031-.3896l.4058-1.9069c-.2195-.3415-.6655-.5603-1.1447-.5603-.8518,0-1.5336.7058-1.5336,1.5823,0,.7389.5194,1.2745,1.2414,1.2745Z"/><path d="m362.5908,213.7326h-.7876l.8765-4.1307h.7876l-.8765,4.1307Zm.235-5.2429c0-.3006.2597-.5603.5519-.5603.2435,0,.4383.1948.4383.4467,0,.3-.2597.5597-.5519.5597-.2513,0-.4383-.1948-.4383-.446Z"/><path d="m364.6684,211.9958c-.1461.6655.187,1.1122.8278,1.1122.4058,0,.7629-.1708,1.0473-.4954l.6408-3.0107h.7954l-.8765,4.1307h-.7954l.0734-.3571c-.3493.2844-.7467.4298-1.1934.4298-.9817,0-1.5336-.7382-1.331-1.7284l.5279-2.475h.7954l-.5116,2.3939Z"/><path d="m368.9387,209.6019h.7869l-.0812.3811c.3409-.3006.7226-.4545,1.1447-.4545.5597,0,.9817.2837,1.1687.7304.4298-.487.9168-.7304,1.4687-.7304.9174,0,1.4368.7142,1.2258,1.6797l-.5356,2.5244h-.7876l.5194-2.4594c.1299-.6168-.1701-1.0466-.7304-1.0466-.3811,0-.722.187-1.0551.5766,0,.1214-.0078.2597-.0403.4051l-.5356,2.5244h-.7954l.511-2.4185c.1461-.6493-.1461-1.0875-.722-1.0875-.3655,0-.7064.1701-.9986.5116l-.633,2.9944h-.7869l.8765-4.1307Z"/></g><g class="uuid-9a66f891-47ea-4ae0-99ad-451d82414e78"><path d="m289.1244,227.5335h.9979l2.3211,5.6811h-.9252l-.6571-1.6634h-2.5406l-.6655,1.6634h-.8843l2.3536-5.6811Zm1.4609,3.3113l-.9901-2.4919-.9901,2.4919h1.9803Z"/><path d="m292.7207,232.0297c0-.7791.633-1.2576,1.6719-1.2576.398,0,.7791.0805,1.1284.2272v-.4389c0-.5843-.3493-.8765-1.0064-.8765-.3818,0-.7713.1058-1.2823.3493l-.3006-.609c.6168-.2922,1.1525-.422,1.6965-.422,1.0713,0,1.6881.5279,1.6881,1.4777v2.7347h-.7954v-.3571c-.3655.2922-.7791.4298-1.2823.4298-.9012,0-1.518-.511-1.518-1.2576Zm1.7043.6577c.4383,0,.8038-.1299,1.096-.3896v-.7142c-.3168-.1708-.6493-.2519-1.0635-.2519-.5921,0-.9577.2675-.9577.6817,0,.3974.3733.6739.9252.6739Z"/><path d="m301.5034,227.5335c1.1122,0,1.8426.5921,1.8426,1.5011,0,.5441-.3006.9823-.7876,1.2258.6252.2435,1.0064.722,1.0064,1.3388,0,.9739-.7707,1.6154-1.9556,1.6154h-2.5646v-5.6811h2.4588Zm-1.6069.722v1.6881h1.5583c.6415,0,1.0473-.3246,1.0473-.8441s-.4058-.8441-1.0473-.8441h-1.5583Zm2.8081,3.3035c0-.5597-.4545-.9337-1.1602-.9337h-1.6479v1.8673h1.6479c.7058,0,1.1602-.3655,1.1602-.9337Z"/><path d="m306.4476,233.2795c-.4629,0-.8927-.1461-1.2498-.4142v.3493h-.8038v-5.6811l.8116-.1785v2.1186c.3409-.2922.7791-.4545,1.2583-.4545,1.1687,0,2.0855.933,2.0855,2.1257,0,1.2012-.9168,2.1348-2.1017,2.1348Zm-1.2421-3.0594v1.866c.2597.3006.6902.487,1.1525.487.7954,0,1.3959-.6084,1.3959-1.42s-.6084-1.4284-1.3959-1.4284c-.4707,0-.8843.1785-1.1525.4954Z"/><path d="m315.5634,231.7538l.5597.5681c-.5597.6084-1.4037.9823-2.2724.9823-1.6797,0-2.9782-1.2908-2.9782-2.9302,0-1.6472,1.2985-2.9302,2.9782-2.9302.8927,0,1.753.374,2.2887.9823l-.5681.5843c-.4298-.5032-1.0629-.7791-1.7206-.7791-1.2012,0-2.1101.9252-2.1101,2.1426,0,1.2096.9174,2.1426,2.1348,2.1426.6571,0,1.2739-.2759,1.6881-.7629Z"/><path d="m319.785,232.0706l.487.5272c-.4305.4383-1.0148.6895-1.6316.6895-1.1927,0-2.1264-.933-2.1264-2.1426,0-1.2012.9337-2.1426,2.1264-2.1426.6252,0,1.2336.2519,1.6641.6902l-.5116.5519c-.3162-.3409-.7142-.5194-1.1362-.5194-.7545,0-1.3388.6252-1.3388,1.42,0,.8116.5921,1.4284,1.355,1.4284.4142,0,.7791-.1623,1.1122-.5025Z"/><path d="m322.7242,227.5335h2.0043c1.7128,0,2.9951,1.2089,2.9951,2.849,0,1.6232-1.2745,2.8321-2.9951,2.8321h-2.0043v-5.6811Zm.8518.7629v4.1553h1.1687c1.1849,0,2.1023-.9005,2.1023-2.0692,0-1.1856-.9174-2.0861-2.1023-2.0861h-1.1687Z"/><path d="m331.7017,232.8251c-.3487.2922-.7869.4545-1.2661.4545-1.1687,0-2.0855-.9337-2.0855-2.1348,0-1.1927.9168-2.1257,2.1017-2.1257.4545,0,.885.1454,1.2421.4051v-1.8907l.8116-.1785v5.8597h-.8038v-.3896Zm-1.1525-.2519c.4629,0,.8687-.1779,1.1447-.4947v-1.8751c-.2681-.3078-.6902-.487-1.1447-.487-.7954,0-1.4037.609-1.4037,1.4206s.6084,1.4362,1.4037,1.4362Z"/><path d="m335.2584,227.5335h4.1878v.7467h-3.336v1.7043h2.1913v.7304h-2.1913v1.753h3.3684v.7467h-4.2203v-5.6811Z"/><path d="m342.0199,233.2873c-1.2174,0-2.1673-.933-2.1673-2.1426,0-1.1927.909-2.1257,2.0699-2.1257,1.1362,0,1.9965.9414,1.9965,2.1582v.2357h-3.2626c.1136.6902.6817,1.1849,1.3959,1.1849.4058,0,.7869-.1376,1.0466-.3649l.5194.511c-.4785.3733-.9817.5434-1.5985.5434Zm-1.3557-2.4828h2.451c-.1214-.6337-.6084-1.1038-1.2089-1.1038-.6252,0-1.12.446-1.2421,1.1038Z"/><path d="m346.4849,227.5335h4.1962v.7467h-3.3437v1.7452h2.2075v.7298h-2.2075v2.4594h-.8525v-5.6811Z"/><path d="m351.8752,229.084v-.6252c0-.8603.4954-1.331,1.4044-1.331.2188,0,.4136.024.5843.0734v.7058c-.1948-.0565-.3246-.0734-.5116-.0734-.446,0-.6655.2032-.6655.6415v.609h1.1771v.6817h-1.1771v3.4489h-.8116v-3.4489h-.9577v-.6817h.9577Z"/><path d="m358.9938,233.3042c-1.6556,0-2.962-1.2908-2.962-2.9302s1.2985-2.9302,2.9542-2.9302c.9005,0,1.7368.3655,2.2887.9823l-.5843.5681c-.422-.487-1.0473-.7629-1.7043-.7629-1.1849,0-2.0861.9252-2.0861,2.1426s.909,2.151,2.1023,2.151c1.0064,0,1.7855-.6817,1.8991-1.6232h-1.8913v-.7467h2.7841v.2922c0,1.6232-1.2096,2.8568-2.8003,2.8568Z"/><path d="m362.4044,231.1292c0-1.1856.9168-2.1186,2.0939-2.1186.446,0,.8681.1461,1.2252.4136v-.3402h.8038v4.1878c0,1.0713-.6739,1.6712-1.8913,1.6712-.6006,0-1.1927-.1454-1.6634-.4051l.3162-.6337c.4707.2441.885.3571,1.3232.3571.722,0,1.1038-.3402,1.1038-.9895v-.4629c-.3493.2837-.7791.4383-1.2336.4383-1.1609,0-2.0777-.9337-2.0777-2.1179Zm2.1751,1.4115c.4707,0,.8681-.1701,1.1362-.4785v-1.8667c-.2597-.3-.6739-.4792-1.1362-.4792-.7791,0-1.3797.6168-1.3797,1.4128,0,.7947.6006,1.4115,1.3797,1.4115Z"/><path d="m369.2802,227.5335h.8518v2.4348h3.0191v-2.4348h.8525v5.6811h-.8525v-2.475h-3.0191v2.475h-.8518v-5.6811Z"/><path d="m375.0678,227.5335l.8116-.1785v2.1426c.3246-.3246.7467-.4954,1.2421-.4954.9492,0,1.6147.6577,1.6147,1.6154v2.5971h-.8116v-2.4594c0-.6493-.3974-1.0466-1.0226-1.0466-.4383,0-.7954.187-1.0226.5356v2.9704h-.8116v-5.6811Z"/><path d="m381.4644,227.5335h.8525v5.6811h-.8525v-5.6811Z"/><path d="m383.2908,227.9153c0-.2766.2195-.5038.4954-.5038s.5032.2272.5032.5038c0,.2753-.2272.5025-.5032.5025s-.4954-.2272-.4954-.5025Zm.9012,5.2994h-.8116v-4.1307h.8116v4.1307Z"/><path d="m388.6649,233.3042c-1.0388,0-1.8264-.5603-2.1588-1.5427l.7791-.3078c.2675.722.7304,1.0713,1.3875,1.0713.8278,0,1.3797-.5928,1.3797-1.4933v-3.4983h.8525v3.5139c0,1.3719-.885,2.2569-2.24,2.2569Z"/><path d="m391.0276,234.8703v-.6493c.1052.0247.1948.0325.3246.0325.3571,0,.5032-.1461.5032-.5032v-4.6663h.8116v4.7228c0,.7142-.4305,1.1206-1.1771,1.1206-.1785,0-.3571-.0247-.4623-.0571Zm.7382-6.955c0-.2766.2195-.5038.4954-.5038s.5032.2272.5032.5038c0,.2753-.2272.5025-.5032.5025s-.4954-.2272-.4954-.5025Z"/><path d="m395.4186,227.5335h.8525v2.6458l2.751-2.6458h1.0713l-2.9295,2.7432,3.0269,2.938h-1.1687l-2.751-2.7023v2.7023h-.8525v-5.6811Z"/><path d="m400.5978,227.5335l.8116-.1785v3.547l2.005-1.818h.9492l-2.1264,1.9394,2.24,2.1913h-1.0713l-1.9965-1.9478v1.9478h-.8116v-5.6811Z"/><path d="m406.6458,227.5335h.8518v4.9267h3.271v.7545h-4.1229v-5.6811Z"/><path d="m412.3444,233.2146h-.8116v-5.6811l.8116-.1785v5.8597Z"/><path d="m415.8914,228.5886v4.6261h-.7954v-5.6811h1.1362l1.7855,3.6281,1.7777-3.6281h1.1362v5.6811h-.8038v-4.6345l-2.1179,4.2287-2.1186-4.2203Z"/><path d="m421.9881,229.084h.8116v.3896c.3084-.3091.698-.4714,1.1609-.4714.5597,0,1.0142.2597,1.2739.6902.3331-.4545.8116-.6902,1.3959-.6902.909,0,1.5505.6577,1.5505,1.6154v2.5971h-.8116v-2.4594c0-.6493-.3655-1.0466-.9499-1.0466-.4058,0-.7304.187-.9655.5519.024.1136.0325.235.0325.3571v2.5971h-.8038v-2.4594c0-.6493-.3649-1.0466-.9492-1.0466-.3896,0-.7064.1701-.9337.5032v3.0029h-.8116v-4.1307Z"/><path d="m431.7453,227.5335l3.1652,4.2125v-4.2125h.8038v5.6811h-.7467l-3.2548-4.3501v4.3501h-.8031v-5.6811h.8356Z"/><path d="m436.7791,229.084h.8116v.4136c.3246-.3246.7467-.4954,1.2414-.4954.9499,0,1.6154.6577,1.6154,1.6154v2.5971h-.8116v-2.4594c0-.6493-.398-1.0466-1.0226-1.0466-.4383,0-.7954.187-1.0226.5356v2.9704h-.8116v-4.1307Z"/></g><g class="uuid-9a66f891-47ea-4ae0-99ad-451d82414e78"><path d="m290.0496,243.0452c-1.6556,0-2.9542-1.2908-2.9542-2.9302s1.2985-2.9302,2.9542-2.9302,2.962,1.2908,2.962,2.9302-1.3063,2.9302-2.962,2.9302Zm0-5.0728c-1.1771,0-2.0861.9252-2.0861,2.1426,0,1.2096.909,2.1426,2.0861,2.1426,1.1849,0,2.0939-.933,2.0939-2.1426,0-1.2174-.909-2.1426-2.0939-2.1426Z"/><path d="m295.7892,238.7432c1.2012,0,2.1426.9414,2.1426,2.1426,0,1.2096-.9414,2.151-2.1426,2.151s-2.151-.9414-2.151-2.151c0-1.2012.9499-2.1426,2.151-2.1426Zm1.3472,2.1426c0-.8031-.6006-1.4284-1.3472-1.4284-.7551,0-1.3557.6252-1.3557,1.4284,0,.8038.5928,1.4368,1.3557,1.4368.7467,0,1.3472-.633,1.3472-1.4368Z"/><path d="m300.4977,237.2745h2.6295c1.1116,0,1.8582.6895,1.8582,1.7043,0,.9979-.7545,1.6881-1.8582,1.6881h-1.7777v2.2887h-.8518v-5.6811Zm.8518.7467v1.9231h1.6881c.6655,0,1.0875-.3727,1.0875-.9655,0-.5843-.422-.9577-1.0875-.9577h-1.6881Z"/><path d="m305.7659,238.825h.8038v.3974c.3409-.3.7791-.4623,1.2661-.4623,1.1687,0,2.0855.933,2.0855,2.1257,0,1.2012-.9168,2.1348-2.1017,2.1348-.4545,0-.8927-.1461-1.2421-.4058v2.0212h-.8116v-5.811Zm.8116,1.1362v1.866c.2597.3006.6902.487,1.1525.487.7954,0,1.3959-.6084,1.3959-1.42s-.6084-1.4284-1.3959-1.4284c-.4707,0-.8843.1785-1.1525.4954Z"/><path d="m317.2515,242.2414l.5843.7142-.7954.1948-.3896-.4707c-.4298.2357-.9252.3655-1.4524.3655-1.6556,0-2.9542-1.2908-2.9542-2.9302s1.2985-2.9302,2.9542-2.9302,2.962,1.2908,2.962,2.9302c0,.8441-.3487,1.5992-.909,2.1264Zm-.5272-.6415c.3571-.3811.5681-.9005.5681-1.4849,0-1.2174-.909-2.1426-2.0939-2.1426-1.1771,0-2.0861.9252-2.0861,2.1426,0,1.2096.909,2.1426,2.0861,2.1426.3409,0,.6571-.0734.933-.211l-.7382-.9012.7954-.1948.5356.6493Z"/><path d="m318.787,240.8858c0-1.1927.9174-2.1257,2.1023-2.1257.4623,0,.9005.1454,1.2498.4051v-.3402h.8031v5.811h-.8116v-2.0621c-.3487.2922-.7791.4467-1.2576.4467-1.1687,0-2.0861-.9337-2.0861-2.1348Zm2.1997,1.4284c.4623,0,.8681-.1779,1.144-.4947v-1.8751c-.2675-.3078-.6895-.487-1.144-.487-.7954,0-1.4044.609-1.4044,1.4206s.609,1.4362,1.4044,1.4362Z"/><path d="m325.6953,237.2745h2.5809c1.1284,0,1.8913.6817,1.8913,1.6803,0,.7467-.4545,1.3226-1.1687,1.5583l1.2661,2.4426h-.9414l-1.1771-2.3296h-1.5985v2.3296h-.8525v-5.6811Zm.8525.7467v1.8991h1.6556c.6655,0,1.1038-.3811,1.1038-.9499,0-.5759-.4383-.9492-1.1038-.9492h-1.6556Z"/><path d="m330.9479,238.825h.8116v.5272c.2513-.3974.6493-.6168,1.1362-.6168.1785,0,.2922.0162.4136.0649v.7304c-.1539-.0565-.3162-.089-.4785-.089-.4792,0-.8603.2597-1.0713.7545v2.7594h-.8116v-4.1307Z"/><path d="m335.7616,241.4136c.6168.6006,1.2498.8927,1.9556.8927.82,0,1.3797-.3896,1.3797-.9492,0-.5038-.3246-.7551-1.1525-.8934l-.9492-.1539c-1.0388-.1708-1.5505-.6577-1.5505-1.4771,0-.9901.8278-1.631,2.0939-1.631.8116,0,1.6479.2753,2.2887.7707l-.4707.6493c-.6168-.4707-1.2252-.698-1.8582-.698-.7389,0-1.2336.3409-1.2336.8441,0,.4623.2837.6817,1.0142.8038l.9174.1454c1.2012.1948,1.7446.6902,1.7446,1.5751,0,1.0466-.909,1.7446-2.264,1.7446-.909,0-1.7855-.3655-2.4348-1.0226l.5194-.6006Z"/><path d="m340.7616,241.8843c.4305.3409.885.5194,1.3472.5194.5843,0,.9901-.2519.9901-.6168,0-.2922-.211-.4623-.6655-.5272l-.7467-.1058c-.8194-.1214-1.2336-.5032-1.2336-1.1447,0-.7467.6493-1.2492,1.6154-1.2492.6084,0,1.144.1701,1.6634.5272l-.4136.5356c-.4545-.3006-.8687-.4305-1.307-.4305-.4947,0-.8278.2272-.8278.5603,0,.3006.1948.446.6817.5194l.7467.1058c.82.1214,1.2498.511,1.2498,1.1518,0,.7389-.7467,1.2985-1.7284,1.2985-.7142,0-1.3557-.2104-1.8102-.6084l.4383-.5356Z"/><path d="m345.8435,237.2745h4.8455v.7545h-1.9965v4.9267h-.8525v-4.9267h-1.9965v-.7545Z"/><path d="m351.6804,239.5067h-.8765v-.6817h.8765v-1.0557l.8031-.1948v1.2505h1.2174v.6817h-1.2174v2.24c0,.422.1708.5759.609.5759.2272,0,.3896-.024.5921-.0974v.6817c-.2188.0734-.5272.1214-.7707.1214-.8038,0-1.2336-.3811-1.2336-1.0953v-2.4263Z"/><path d="m358.4095,243.0452c-1.4771,0-2.4107-.9739-2.4107-2.5166v-3.2541h.8525v3.2541c0,1.0557.6084,1.729,1.5583,1.729.9577,0,1.566-.6733,1.566-1.729v-3.2541h.8525v3.2541c0,1.5342-.9414,2.5166-2.4185,2.5166Z"/><path d="m362.5745,241.2753c0,.6493.3974,1.0557,1.0226,1.0557.4383,0,.7869-.1948,1.0142-.5441v-2.962h.8116v4.1307h-.8116v-.4142c-.3246.3246-.7382.4954-1.2414.4954-.9499,0-1.6069-.6655-1.6069-1.6232v-2.5886h.8116v2.4504Z"/><path d="m367.6077,237.2745h.9168l1.9238,4.8371,1.9556-4.8371h.8765l-2.3536,5.6811h-.9979l-2.3211-5.6811Z"/><path d="m373.1518,238.825h.8927l1.2908,3.0918,1.2901-3.0918h.8687l-1.7855,4.1307h-.7713l-1.7855-4.1307Z"/><path d="m380.7093,242.9556l-1.2421-5.6811h.8765l.885,4.3423,1.2823-4.3423h.8116l1.2823,4.3423.8843-4.3423h.8441l-1.2414,5.6811h-.8765l-1.3148-4.4637-1.3148,4.4637h-.8765Z"/><path d="m387.6747,242.9556l-1.1525-4.1307h.7869l.7954,3.0347.9499-3.0347h.698l.9414,3.0347.8031-3.0347h.7629l-1.1602,4.1307h-.7791l-.9252-3.0269-.9337,3.0269h-.7869Z"/><path d="m394.0636,242.9556l2.1751-2.938-2.0536-2.7432h1.031l1.5336,2.1023,1.5258-2.1023h.9901l-2.029,2.7347,2.1997,2.9464h-1.0226l-1.6803-2.3049-1.6881,2.3049h-.9817Z"/><path d="m401.2231,240.8377l-1.542-2.0127h.9492l1.0635,1.42,1.0629-1.42h.9174l-1.5258,2.0043,1.631,2.1264h-.9577l-1.1362-1.5258-1.1525,1.5258h-.9168l1.6069-2.1179Z"/><path d="m407.7736,240.7157l-2.2887-3.4411h.9901l1.7452,2.6782,1.753-2.6782h.9414l-2.2887,3.4333v2.2478h-.8525v-2.24Z"/><path d="m412.036,242.9719l-1.6479-4.1469h.8927l1.2096,3.1568,1.331-3.1568h.8765l-1.9965,4.6254c-.3818.885-.82,1.2336-1.5829,1.2336-.1701,0-.3246-.0156-.4298-.048v-.7142c.1136.024.211.0325.3649.0325.3733,0,.6415-.1948.82-.609l.1623-.3733Z"/><path d="m416.6063,242.3635l3.4087-4.3423h-3.384v-.7467h4.4962v.5921l-3.4171,4.3423h3.4736v.7467h-4.5774v-.5921Z"/><path d="m421.6797,242.3551l2.3134-2.8328h-2.2887v-.6973h3.3113v.5921l-2.3211,2.8406h2.3614v.698h-3.3762v-.6006Z"/></g></g><g id="uuid-93422a83-e012-49ce-8ff8-6f4250e3a688" class="uuid-9a66f891-47ea-4ae0-99ad-451d82414e78"><g class="uuid-9a66f891-47ea-4ae0-99ad-451d82414e78"><path d="m288.1505,279.4505h2.2478c.9901,0,1.6069.5519,1.6069,1.4206,0,.909-.6408,1.6147-1.5583,1.7771l.8038,2.4835h-.6415l-.7791-2.4426h-1.7608l-.5194,2.4426h-.609l1.2096-5.6811Zm.487.5597l-.4545,2.151h1.8095c.82,0,1.4044-.5194,1.4044-1.2421,0-.5597-.422-.909-1.096-.909h-1.6634Z"/><path d="m294.0355,285.2044c-1.144,0-1.964-.7947-1.964-1.9069,0-1.2576.9661-2.2965,2.1348-2.2965.9901,0,1.7284.8194,1.7284,1.9154,0,.113,0,.1948-.0162.3649h-3.2626c.0162.8116.609,1.4037,1.4044,1.4037.3974,0,.7954-.1214,1.0953-.3324l.3084.4142c-.446.3078-.9005.4376-1.4284.4376Zm-1.3226-2.4023h2.662c-.0487-.7382-.5519-1.2739-1.2258-1.2739-.6817,0-1.2661.5441-1.4362,1.2739Z"/><path d="m299.4744,284.8473c-.3331.2272-.7142.3493-1.12.3493-1.031,0-1.7939-.7954-1.7939-1.8667,0-1.2745.9986-2.3211,2.24-2.3211.5519,0,1.0388.211,1.3719.5843l.4545-2.1426.6084-.1376-1.2336,5.8188h-.5843l.0571-.2844Zm-.9901-.1701c.4136,0,.8194-.1623,1.12-.4467l.4383-2.0452c-.2195-.3896-.698-.6493-1.2258-.6493-.933,0-1.6797.7791-1.6797,1.7452,0,.8116.5597,1.3959,1.3472,1.3959Z"/><path d="m304.0856,279.4505h.6084l-.5434,2.5399h3.2379l.5441-2.5399h.6168l-1.2096,5.6811h-.6168l.5519-2.5809h-3.2379l-.5519,2.5809h-.609l1.2096-5.6811Z"/><path d="m308.437,284.0526c0-.796.6493-1.3232,1.6556-1.3232.4707,0,.9414.1299,1.2985.3493l.1052-.4792c.1545-.7389-.1701-1.1038-.9655-1.1038-.3493,0-.7142.0974-1.2174.3168l-.1623-.4792c.5597-.235,1.0388-.3409,1.4771-.3409,1.1038,0,1.6472.5928,1.4446,1.5667l-.5441,2.5724h-.5759l.0727-.3324c-.3649.2597-.7629.3896-1.2012.3896-.8356,0-1.3875-.4467-1.3875-1.1362Zm1.542.6733c.422,0,.8031-.1299,1.1525-.4136l.1623-.7635c-.3168-.2597-.7142-.3811-1.2096-.3811-.633,0-1.0875.3487-1.0875.8278,0,.4545.3655.7304.9823.7304Z"/><path d="m313.5669,281.5769h-.8603l.1136-.511h.8525l.2188-1.031.6252-.1545-.2519,1.1856h1.1849l-.1136.511h-1.1849l-.5272,2.4588c-.0974.4714.0649.6493.6006.6493.1461,0,.2759-.024.4707-.0805l-.1058.5272c-.1785.0487-.3974.0727-.5921.0727-.7629,0-1.12-.3727-.9739-1.0388l.5434-2.5886Z"/><path d="m318.2838,279.4505h1.6069c1.542,0,2.5724,1.0064,2.5724,2.5075,0,1.753-1.4849,3.1736-3.3113,3.1736h-2.0777l1.2096-5.6811Zm.487.5681l-.9661,4.5449h1.4284c1.4446,0,2.6055-1.1525,2.6055-2.5886,0-1.1687-.7954-1.9563-1.9803-1.9563h-1.0875Z"/><path d="m323.3572,285.1317h-.5843l.8603-4.0657h.5843l-.8603,4.0657Zm.4142-5.2104c0-.2357.211-.446.446-.446.2032,0,.3571.1539.3571.3571,0,.2428-.211.4545-.446.4545-.2032,0-.3571-.1623-.3571-.3655Z"/><path d="m324.5831,284.0928c.3655.4142.8363.633,1.3472.633.6006,0,1.0473-.3162,1.0473-.7467,0-.3006-.1948-.4707-.6577-.5759l-.6655-.1545c-.6895-.1545-1.0064-.4792-1.0064-1.0226,0-.7382.5928-1.2252,1.4855-1.2252.6006,0,1.1525.2104,1.631.6408l-.3571.3896c-.3974-.3571-.8681-.5519-1.3063-.5519-.5519,0-.9174.2837-.9174.698,0,.3.1785.4623.6493.5681l.6655.1539c.7142.1623,1.0388.487,1.0388,1.0233,0,.7382-.698,1.2901-1.6232,1.2901-.6655,0-1.3388-.2922-1.7206-.7551l.3896-.3649Z"/><path d="m328.7962,281.0659h.5843l-.0649.2922c.3409-.2272.722-.3493,1.12-.3493,1.0304,0,1.7933.7954,1.7933,1.8667,0,1.2823-.9979,2.3289-2.2315,2.3289-.5519,0-1.0388-.2104-1.3719-.5921l-.4623,2.1829h-.5843l1.2174-5.7292Zm.3974.9005l-.4383,2.0452c.2195.398.6902.6577,1.2258.6577.933,0,1.6719-.7791,1.6719-1.7452,0-.8116-.5603-1.3881-1.3394-1.3881-.422,0-.8194.1545-1.12.4305Z"/><path d="m333.2119,285.1317h-.5843l1.2096-5.6811.6084-.1376-1.2336,5.8188Z"/><path d="m334.2838,284.0526c0-.796.6493-1.3232,1.6556-1.3232.4707,0,.9414.1299,1.2985.3493l.1058-.4792c.1539-.7389-.1708-1.1038-.9661-1.1038-.3487,0-.7142.0974-1.2174.3168l-.1623-.4792c.5603-.235,1.0388-.3409,1.4771-.3409,1.1038,0,1.6479.5928,1.4446,1.5667l-.5434,2.5724h-.5766l.0734-.3324c-.3655.2597-.7629.3896-1.2012.3896-.8363,0-1.3881-.4467-1.3881-1.1362Zm1.542.6733c.422,0,.8038-.1299,1.1525-.4136l.1623-.7635c-.3162-.2597-.7142-.3811-1.2089-.3811-.633,0-1.0875.3487-1.0875.8278,0,.4545.3649.7304.9817.7304Z"/><path d="m339.3332,285.1239l-.7791-4.0579h.6246l.609,3.3678,2.0939-3.3678h.6571l-2.9782,4.7312c-.4545.7226-.8927,1.0226-1.4933,1.0226-.1545,0-.3084-.0247-.4467-.0649l.1136-.5356c.0896.0325.2195.0487.3493.0487.3487,0,.6408-.187.8927-.5921l.3571-.5519Z"/><path d="m345.2831,279.4505h2.2484c.9901,0,1.6069.5519,1.6069,1.4206,0,.909-.6415,1.6147-1.5583,1.7771l.8031,2.4835h-.6408l-.7791-2.4426h-1.7615l-.5194,2.4426h-.6084l1.2089-5.6811Zm.487.5597l-.4545,2.151h1.8102c.8194,0,1.4037-.5194,1.4037-1.2421,0-.5597-.422-.909-1.0953-.909h-1.6641Z"/><path d="m351.1681,285.2044c-1.144,0-1.964-.7947-1.964-1.9069,0-1.2576.9661-2.2965,2.1348-2.2965.9901,0,1.7284.8194,1.7284,1.9154,0,.113,0,.1948-.0162.3649h-3.2626c.0162.8116.609,1.4037,1.4044,1.4037.3974,0,.7954-.1214,1.0953-.3324l.3084.4142c-.446.3078-.9005.4376-1.4284.4376Zm-1.3226-2.4023h2.662c-.0487-.7382-.5519-1.2739-1.2258-1.2739-.6817,0-1.2661.5441-1.4362,1.2739Z"/><path d="m353.7016,283.3299c0-1.2823.9979-2.3211,2.2315-2.3211.5441,0,1.0388.2026,1.3635.5766l.1136-.5194h.5843l-.9005,4.3332c-.1948.9337-.8038,1.4368-1.7206,1.4368-.5928,0-1.2661-.2272-1.729-.5928l.3084-.446c.4707.3409.9252.511,1.3959.511.6252,0,1.0226-.3246,1.1609-.9655l.1052-.5032c-.3409.2272-.7142.3493-1.1278.3493-1.031,0-1.7855-.7876-1.7855-1.8589Zm1.9154,1.3394c.422,0,.8194-.1623,1.1278-.4467l.4305-2.0374c-.2195-.3974-.698-.6493-1.2258-.6493-.933,0-1.6719.7791-1.6719,1.7452,0,.8116.5519,1.3881,1.3394,1.3881Z"/><path d="m359.075,283.4436c-.1623.7467.2032,1.2414.9012,1.2414.4545,0,.8603-.2026,1.1687-.5843l.6493-3.0347h.5843l-.8687,4.0657h-.5843l.0896-.4058c-.3571.3162-.7713.4785-1.2258.4785-.9655,0-1.5173-.722-1.3148-1.6959l.5194-2.4426h.5843l-.5032,2.3776Z"/><path d="m363.1264,285.1317h-.5843l1.2089-5.6811.609-.1376-1.2336,5.8188Z"/><path d="m364.1977,284.0526c0-.796.6493-1.3232,1.6556-1.3232.4707,0,.9414.1299,1.2985.3493l.1058-.4792c.1539-.7389-.1708-1.1038-.9661-1.1038-.3487,0-.7142.0974-1.2174.3168l-.1623-.4792c.5603-.235,1.0388-.3409,1.4771-.3409,1.1038,0,1.6479.5928,1.4446,1.5667l-.5434,2.5724h-.5766l.0734-.3324c-.3655.2597-.7629.3896-1.2012.3896-.8363,0-1.3881-.4467-1.3881-1.1362Zm1.542.6733c.422,0,.8038-.1299,1.1525-.4136l.1623-.7635c-.3162-.2597-.7142-.3811-1.2089-.3811-.633,0-1.0875.3487-1.0875.8278,0,.4545.3649.7304.9817.7304Z"/><path d="m369.1088,281.0659h.5766l-.1058.511c.3006-.3811.7142-.6006,1.1687-.6006.1545,0,.3331.0325.4305.0727l-.1136.5519c-.1136-.0565-.3006-.089-.4629-.089-.4623,0-.8681.2681-1.1765.7791l-.6006,2.8406h-.5843l.8681-4.0657Z"/></g><g class="uuid-9a66f891-47ea-4ae0-99ad-451d82414e78"><path d="m289.1569,298.9332h.7545l2.3296,5.6811h-.6817l-.7142-1.7855h-2.6782l-.7226,1.7855h-.6493l2.362-5.6811Zm1.4687,3.36l-1.1116-2.7756-1.1284,2.7756h2.24Z"/><path d="m292.5668,303.4619c0-.7629.6246-1.2421,1.6232-1.2421.4298,0,.8441.0974,1.1927.2766v-.5363c0-.6493-.3733-.9817-1.0791-.9817-.398,0-.7876.1052-1.2745.3571l-.2272-.4623c.5843-.2844,1.0635-.4064,1.5583-.4064,1.031,0,1.6069.5038,1.6069,1.4128v2.7347h-.5843v-.3974c-.3649.3162-.8031.4701-1.3148.4701-.8927,0-1.5011-.4947-1.5011-1.2252Zm1.6069.7551c.487,0,.8843-.1467,1.2089-.4714v-.7622c-.3324-.2272-.7058-.3246-1.1765-.3246-.6493,0-1.0635.3078-1.0635.7869,0,.4545.422.7713,1.031.7713Z"/><path d="m301.1385,298.9332c1.0953,0,1.7933.5681,1.7933,1.4609,0,.5843-.3246,1.031-.8681,1.2583.6817.2104,1.1038.7058,1.1038,1.3635,0,.9739-.7629,1.5985-1.9316,1.5985h-2.4023v-5.6811h2.3049Zm-1.6803.5441v1.9309h1.6479c.7382,0,1.2089-.3727,1.2089-.9655s-.4707-.9655-1.2089-.9655h-1.6479Zm3.0762,3.5216c0-.6493-.5279-1.0713-1.3472-1.0713h-1.729v2.1426h1.729c.8194,0,1.3472-.422,1.3472-1.0713Z"/><path d="m305.9522,304.6793c-.4785,0-.9414-.1701-1.3063-.4707v.4058h-.5928v-5.6811l.6006-.1376v2.1829c.3409-.3246.7954-.4947,1.307-.4947,1.1525,0,2.0452.9168,2.0452,2.0933,0,1.1856-.8927,2.1023-2.0536,2.1023Zm-1.2985-3.1003v2.0127c.2844.3487.7467.5603,1.2498.5603.8603,0,1.5096-.6739,1.5096-1.5667s-.6571-1.5745-1.5096-1.5745c-.511,0-.9655.211-1.2498.5681Z"/><path d="m315.2063,303.3483l.4058.422c-.5681.5921-1.3719.9337-2.2322.9337-1.6556,0-2.9457-1.2908-2.9457-2.9302s1.2901-2.9302,2.9457-2.9302c.885,0,1.6965.3415,2.2484.9337l-.4142.4383c-.446-.5032-1.1362-.7954-1.8342-.7954-1.3148,0-2.3127,1.0226-2.3127,2.3536s1.0064,2.3536,2.3289,2.3536c.7064,0,1.3797-.2922,1.8102-.7791Z"/><path d="m319.3707,303.6327l.3733.4051c-.4298.4142-.9901.6493-1.5745.6493-1.1602,0-2.0692-.9246-2.0692-2.1101,0-1.1765.909-2.1101,2.0692-2.1101.5928,0,1.1687.2357,1.5907.6415l-.3811.4383c-.3246-.3409-.7629-.5279-1.2012-.5279-.8363,0-1.4855.6902-1.4855,1.5583,0,.885.6577,1.5667,1.4933,1.5667.4383,0,.8363-.1708,1.1849-.511Z"/><path d="m322.31,298.9332h1.8751c1.7284,0,2.9866,1.1934,2.9866,2.8406s-1.2498,2.8406-2.9866,2.8406h-1.8751v-5.6811Zm.6252.5681v4.5449h1.2823c1.3148,0,2.3211-.9823,2.3211-2.2724s-1.0064-2.2724-2.3211-2.2724h-1.2823Z"/><path d="m331.2147,304.1845c-.3493.3246-.8038.4947-1.3148.4947-1.1447,0-2.0452-.9168-2.0452-2.1023,0-1.1765.8927-2.0933,2.053-2.0933.4707,0,.9337.1623,1.2985.4623v-2.0127l.6006-.1376v5.8188h-.5921v-.4298Zm-1.2583-.0325c.5116,0,.9661-.2117,1.2498-.5688v-2.0127c-.2837-.3487-.7467-.5597-1.2498-.5597-.8518,0-1.5096.6655-1.5096,1.5583s.6577,1.5829,1.5096,1.5829Z"/><path d="m334.6896,298.9332h4.0657v.5519h-3.4411v1.9881h2.2484v.5441h-2.2484v2.0452h3.4736v.5519h-4.0982v-5.6811Z"/><path d="m341.2726,304.6871c-1.1765,0-2.0939-.9168-2.0939-2.1101,0-1.1687.885-2.0933,2.005-2.0933,1.0791,0,1.9231.9246,1.9231,2.0933v.187h-3.3353c.089.8038.722,1.3959,1.5258,1.3959.422,0,.8441-.1376,1.12-.3733l.3733.398c-.4545.3402-.9337.5025-1.518.5025Zm-1.4849-2.4023h2.7185c-.1052-.722-.6655-1.2739-1.3388-1.2739-.7064,0-1.2661.5272-1.3797,1.2739Z"/><path d="m345.8032,298.9332h4.0657v.5519h-3.4411v2.029h2.2562v.5434h-2.2562v2.5568h-.6246v-5.6811Z"/><path d="m351.0389,300.5486v-.7713c0-.7954.4467-1.2336,1.2583-1.2336.2188,0,.3811.0162.5434.0727v.5363c-.1863-.0571-.3162-.0818-.5032-.0818-.4785,0-.7058.2272-.7058.7226v.7551h1.2089v.511h-1.2089v3.5548h-.5928v-3.5548h-.9577v-.511h.9577Z"/><path d="m358.0199,304.7039c-1.6394,0-2.938-1.2985-2.938-2.9302s1.2901-2.9302,2.9295-2.9302c.8765,0,1.6881.3415,2.24.9337l-.422.4298c-.4383-.4947-1.12-.7869-1.818-.7869-1.2985,0-2.2965,1.0226-2.2965,2.3536s.9979,2.3536,2.2965,2.3536c1.1525,0,2.0374-.8194,2.1348-1.9316h-2.0374v-.5519h2.6705v.2513c0,1.5829-1.2012,2.8087-2.7594,2.8087Z"/><path d="m361.4461,302.5614c0-1.1687.8927-2.0861,2.0452-2.0861.4629,0,.909.1708,1.2823.4785v-.4051h.5928v4.1631c0,1.0388-.6252,1.6154-1.753,1.6154-.5681,0-1.1362-.1545-1.5907-.422l.2597-.4714c.487.2597.8843.374,1.3063.374.7713,0,1.1771-.374,1.1771-1.0882v-.5434c-.3655.3084-.8116.4707-1.2908.4707-1.1278,0-2.029-.909-2.029-2.0855Zm2.0777,1.5583c.5194,0,.9661-.2032,1.2421-.5603v-1.9965c-.2759-.3493-.7304-.5519-1.2421-.5519-.8441,0-1.4849.6739-1.4849,1.5505s.6493,1.5583,1.4849,1.5583Z"/><path d="m368.2485,298.9332h.6252v2.5399h3.3028v-2.5399h.6252v5.6811h-.6252v-2.5809h-3.3028v2.5809h-.6252v-5.6811Z"/><path d="m373.9394,298.9332l.6006-.1376v2.2315c.3162-.3733.7545-.5603,1.2823-.5603.9252,0,1.566.6415,1.566,1.5751v2.5724h-.5921v-2.451c0-.7226-.4383-1.1687-1.1362-1.1687-.487,0-.8765.2272-1.12.6252v2.9944h-.6006v-5.6811Z"/><path d="m380.2548,298.9332h.6252v5.6811h-.6252v-5.6811Z"/><path d="m381.9111,299.363c0-.2272.1863-.4051.4058-.4051.2272,0,.4058.1779.4058.4051,0,.2195-.1785.4064-.4058.4064-.2195,0-.4058-.187-.4058-.4064Zm.7058,5.2513h-.6006v-4.0657h.6006v4.0657Z"/><path d="m387.0735,304.7039c-.9739,0-1.729-.5279-2.0614-1.4531l.5681-.235c.2922.7467.7954,1.1116,1.5011,1.1116.9252,0,1.5258-.6493,1.5258-1.6634v-3.5307h.6252v3.5385c0,1.3635-.8363,2.2322-2.1588,2.2322Z"/><path d="m389.4362,306.2538v-.5032c.0974.0247.1785.0325.3006.0325.3733,0,.5194-.1623.5194-.5519v-4.6825h.6006v4.7312c0,.6577-.3818,1.0226-1.0473,1.0226-.1539,0-.2837-.0247-.3733-.0487Zm.7142-6.8907c0-.2272.187-.4051.4058-.4051.2272,0,.4058.1779.4058.4051,0,.2195-.1785.4064-.4058.4064-.2188,0-.4058-.187-.4058-.4064Z"/><path d="m393.7383,298.9332h.6252v2.6945l2.938-2.6945h.8194l-3.084,2.7841,3.149,2.897h-.8765l-2.9457-2.7269v2.7269h-.6252v-5.6811Z"/><path d="m398.6338,298.9332l.6006-.1376v3.5866l2.1264-1.8335h.7304l-2.2322,1.9309,2.3374,2.1348h-.8194l-2.1426-1.9478v1.9478h-.6006v-5.6811Z"/><path d="m404.5025,298.9332h.6246v5.1215h3.3847v.5597h-4.0093v-5.6811Z"/><path d="m409.8928,304.6143h-.6006v-5.6811l.6006-.1376v5.8188Z"/><path d="m413.3586,299.6552v4.9591h-.5843v-5.6811h.8765l1.94,4.0333,1.9316-4.0333h.8765v5.6811h-.5928v-4.9669l-2.2238,4.5611-2.2238-4.5533Z"/><path d="m419.5364,300.5486h.6006v.446c.3084-.3487.7064-.5279,1.1934-.5279.5681,0,1.0304.2844,1.2823.7389.3324-.4947.8031-.7389,1.3959-.7389.8843,0,1.4933.6415,1.4933,1.5751v2.5724h-.5928v-2.451c0-.7226-.4058-1.1687-1.0551-1.1687-.446,0-.8194.2272-1.0791.6655.024.1221.0403.2435.0403.3818v2.5724h-.5921v-2.451c0-.7226-.4058-1.1687-1.0473-1.1687-.4383,0-.7869.2032-1.0388.5928v3.0269h-.6006v-4.0657Z"/><path d="m428.9937,298.9332l3.4165,4.6098v-4.6098h.5928v5.6811h-.5519l-3.4898-4.7319v4.7319h-.5928v-5.6811h.6252Z"/><path d="m434.1405,300.5486h.6006v.4785c.3162-.3733.7545-.5603,1.2823-.5603.9252,0,1.566.6415,1.566,1.5751v2.5724h-.5921v-2.451c0-.7226-.4383-1.1687-1.1362-1.1687-.487,0-.8765.2272-1.12.6252v2.9944h-.6006v-4.0657Z"/></g><g class="uuid-9a66f891-47ea-4ae0-99ad-451d82414e78"><path d="m290.0496,314.4443c-1.6394,0-2.9302-1.2908-2.9302-2.9302s1.2908-2.9302,2.9302-2.9302c1.631,0,2.9217,1.2908,2.9217,2.9302s-1.2908,2.9302-2.9217,2.9302Zm0-5.2838c-1.2985,0-2.2971,1.0226-2.2971,2.3536,0,1.3226.9986,2.3536,2.2971,2.3536,1.2901,0,2.2887-1.031,2.2887-2.3536,0-1.331-.9986-2.3536-2.2887-2.3536Z"/><path d="m295.732,310.2072c1.1525,0,2.0699.9259,2.0699,2.1101,0,1.1934-.9174,2.1186-2.0699,2.1186-1.1602,0-2.0777-.9252-2.0777-2.1186,0-1.1843.9174-2.1101,2.0777-2.1101Zm1.4771,2.1101c0-.8843-.6493-1.5738-1.4771-1.5738s-1.4849.6895-1.4849,1.5738c0,.885.6493,1.5829,1.4849,1.5829.8278,0,1.4771-.698,1.4771-1.5829Z"/><path d="m300.4977,308.6736h2.4672c1.1116,0,1.8342.6493,1.8342,1.6394s-.7304,1.6472-1.8342,1.6472h-1.8426v2.3945h-.6246v-5.6811Zm.6246.5597v2.1835h1.7939c.7707,0,1.2576-.422,1.2576-1.0953,0-.6739-.487-1.0882-1.2576-1.0882h-1.7939Z"/><path d="m305.636,310.289h.5928v.4376c.3487-.3324.8031-.5025,1.3148-.5025,1.1525,0,2.0452.9168,2.0452,2.0933,0,1.1856-.8927,2.1023-2.0536,2.1023-.4785,0-.933-.1701-1.2985-.4707v2.0692h-.6006v-5.7292Zm.6006,1.0304v2.0127c.2844.3487.7467.5603,1.2498.5603.8603,0,1.5096-.6739,1.5096-1.5667s-.6571-1.5745-1.5096-1.5745c-.511,0-.9655.211-1.2498.5681Z"/><path d="m316.9353,313.673l.6006.722-.6415.0896-.3974-.4792c-.4467.2766-.9823.4389-1.5505.4389-1.6394,0-2.9295-1.2908-2.9295-2.9302s1.2901-2.9302,2.9295-2.9302c1.6316,0,2.9217,1.2908,2.9217,2.9302,0,.8603-.3571,1.6316-.933,2.1588Zm-.3896-.4545c.4298-.4298.6895-1.031.6895-1.7043,0-1.331-.9979-2.3536-2.2887-2.3536-1.2985,0-2.2965,1.0226-2.2965,2.3536,0,1.3226.9979,2.3536,2.2965,2.3536.4305,0,.8278-.1136,1.1609-.3168l-.8116-.9655.6408-.0974.609.7304Z"/><path d="m318.5513,312.3173c0-1.1765.8927-2.0933,2.0536-2.0933.487,0,.9492.1701,1.3063.4623v-.3974h.5928v5.7292h-.6006v-2.0855c-.3493.3168-.8038.487-1.307.487-1.144,0-2.0452-.9168-2.0452-2.1023Zm2.1023,1.5751c.511,0,.9655-.2117,1.2498-.5688v-2.0127c-.2844-.3487-.7467-.5597-1.2498-.5597-.8525,0-1.5096.6655-1.5096,1.5583s.6571,1.5829,1.5096,1.5829Z"/><path d="m325.3869,308.6736h2.4348c1.1116,0,1.8504.6493,1.8504,1.631,0,.7467-.4707,1.3154-1.2096,1.5258l1.2745,2.5244h-.6902l-1.2174-2.4426h-1.818v2.4426h-.6246v-5.6811Zm.6246.5597v2.151h1.7693c.7629,0,1.2661-.422,1.2661-1.0797,0-.6493-.5032-1.0713-1.2661-1.0713h-1.7693Z"/><path d="m330.509,310.289h.6006v.5759c.2435-.422.6415-.6655,1.1362-.6655.1545,0,.2597.0162.3818.0571v.5519c-.1461-.0493-.2844-.0734-.422-.0734-.5032,0-.885.2922-1.096.8356v2.7841h-.6006v-4.0657Z"/><path d="m335.0552,312.951c.5843.6246,1.2498.9414,1.9881.9414.8927,0,1.5258-.4629,1.5258-1.1206,0-.5843-.3733-.8681-1.3063-1.022l-.82-.1299c-1.0953-.1792-1.5985-.6337-1.5985-1.4368,0-.9414.8031-1.5823,1.9965-1.5823.7954,0,1.5985.2675,2.24.7545l-.3571.487c-.6252-.4707-1.2583-.7064-1.9076-.7064-.8116,0-1.3635.4064-1.3635.9986,0,.5272.3246.7869,1.1525.9168l.8116.1299c1.2421.2032,1.7777.6739,1.7777,1.5583,0,.9986-.8927,1.6965-2.1751,1.6965-.9012,0-1.753-.3733-2.3783-1.0551l.4142-.4298Z"/><path d="m339.9663,313.4055c.3733.3487.8441.5434,1.3226.5434.6493,0,1.1038-.3006,1.1038-.7304,0-.3493-.235-.5441-.7545-.6168l-.7064-.0974c-.8116-.1221-1.2012-.4792-1.2012-1.096,0-.6817.633-1.1843,1.5258-1.1843.5928,0,1.096.1701,1.5992.535l-.3168.4064c-.4545-.3091-.8681-.4545-1.3148-.4545-.5597,0-.9414.2753-.9414.6733,0,.3487.2195.5194.7551.6006l.7058.0974c.8116.1136,1.2174.4792,1.2174,1.1038,0,.7064-.7142,1.2414-1.6472,1.2414-.6739,0-1.2823-.2272-1.7128-.6324l.3655-.3896Z"/><path d="m345.0072,308.6736h4.7319v.5597h-2.0536v5.1215h-.6246v-5.1215h-2.0536v-.5597Z"/><path d="m350.7305,310.8h-.8765v-.511h.8765v-1.031l.5921-.1545v1.1856h1.2258v.511h-1.2258v2.4913c0,.4389.1785.609.6252.609.2272,0,.3896-.0247.5921-.1052v.5272c-.211.0727-.4785.1052-.7142.1052-.7058,0-1.0953-.3402-1.0953-.9817v-2.6458Z"/><path d="m357.281,314.4443c-1.4446,0-2.3458-.9583-2.3458-2.4919v-3.2788h.6252v3.2788c0,1.1687.6733,1.9154,1.7206,1.9154,1.0466,0,1.7206-.7467,1.7206-1.9154v-3.2788h.6246v3.2788c0,1.5258-.909,2.4919-2.3452,2.4919Z"/><path d="m361.2267,312.7393c0,.7226.4383,1.1687,1.1362,1.1687.487,0,.8765-.2272,1.12-.6324v-2.9866h.6006v4.0657h-.6006v-.4707c-.3168.3655-.7467.5519-1.2745.5519-.933,0-1.5745-.6408-1.5745-1.5745v-2.5724h.5928v2.4504Z"/><path d="m366.3734,308.6736h.6733l2.0536,5.0968,2.0855-5.0968h.633l-2.3614,5.6811h-.7551l-2.3289-5.6811Z"/><path d="m371.7312,310.289h.6655l1.3875,3.2866,1.3881-3.2866h.6408l-1.753,4.0657h-.5681l-1.7608-4.0657Z"/><path d="m379.1095,314.3547l-1.2252-5.6811h.633l.9655,4.691,1.4044-4.691h.6084l1.4044,4.6748.9739-4.6748h.6084l-1.2252,5.6811h-.633l-1.4368-4.8124-1.4446,4.8124h-.633Z"/><path d="m385.8555,314.3547l-1.144-4.0657h.5921l.8765,3.2464,1.0148-3.2464h.5356l1.0064,3.2464.8843-3.2464h.5681l-1.1525,4.0657h-.5759l-1.0064-3.2541-1.0148,3.2541h-.5843Z"/><path d="m392.0742,314.3547l2.1913-2.9464-2.053-2.7347h.7629l1.6634,2.2562,1.6641-2.2562h.7304l-2.029,2.7269,2.1991,2.9542h-.7545l-1.818-2.475-1.8264,2.475h-.7304Z"/><path d="m399.0305,312.2608l-1.5173-1.9718h.7142l1.1525,1.5258,1.1525-1.5258h.6895l-1.5011,1.9634,1.6069,2.1023h-.7142l-1.2421-1.6556-1.2576,1.6556h-.6817l1.5985-2.0939Z"/><path d="m405.4031,312.042l-2.2562-3.3684h.7304l1.8582,2.8165,1.8504-2.8165h.7064l-2.2647,3.3924v2.2887h-.6246v-2.3127Z"/><path d="m409.4701,314.3469l-1.6556-4.0579h.6655l1.3148,3.3353,1.42-3.3353h.6493l-2.0205,4.6748c-.3493.7869-.7304,1.1038-1.3797,1.1038-.1545,0-.2922-.0169-.3818-.0409v-.5434c.1058.024.1948.0325.3409.0325.3655,0,.6168-.2032.8116-.6337l.2357-.535Z"/><path d="m413.854,313.908l3.6119-4.6825h-3.5794v-.5519h4.3988v.4467l-3.6275,4.6825h3.6924v.5519h-4.4962v-.4467Z"/><path d="m418.8949,313.884l2.451-3.06h-2.4263v-.535h3.1568v.4623l-2.4588,3.0678h2.4835v.5356h-3.2061v-.4707Z"/></g></g><line id="uuid-47daeb9e-8510-4c19-aa84-ac2f78df4357" class="uuid-f2a15c46-c24e-46f7-9141-296d7630a51f" x1="79.1877" y1="112.5863" x2="475.8123" y2="112.5863"/><line id="uuid-c4a943e7-18aa-4bdf-8502-35fec9ffe0d9" class="uuid-f2a15c46-c24e-46f7-9141-296d7630a51f" x1="79.1877" y1="183.6153" x2="475.8123" y2="183.6153"/><line id="uuid-24bb4225-2358-4baa-825c-777fa12e93f0" class="uuid-f2a15c46-c24e-46f7-9141-296d7630a51f" x1="79.1877" y1="254.8478" x2="475.8123" y2="254.8478"/><g id="uuid-479eb7fa-83a2-4935-9294-da98840d052c"><path id="uuid-0d3040c5-cd7a-4759-b433-2c8fe3adb8ca" class="uuid-dc574497-4639-4e53-8ad5-e9511b899f24" d="m79.4137,279.1262h15.2205c7.3054,0,11.5685,4.4139,11.5685,10.1975,0,4.5656-2.8409,8.2183-7.5587,9.4868l7.9649,15.8288h-4.3142l-7.6106-15.271h-11.3637v15.271h-3.9067v-35.5132Zm3.9067,3.5005v13.4447h11.0598c5.124,0,7.9118-2.9427,7.9118-6.7476,0-3.7544-2.7924-6.6971-7.9118-6.6971h-11.0598Z"/><path id="uuid-11da4f72-c860-42ac-bac3-8b65d413e61f" class="uuid-dc574497-4639-4e53-8ad5-e9511b899f24" d="m121.2191,288.8165c6.7476,0,12.0239,5.8341,12.0239,13.089v1.1668h-20.8512c.4282,4.9453,4.5735,8.7381,9.5373,8.7262,2.5324.0443,5.0035-.7805,7.0016-2.337l2.3336,2.4865c-2.7077,2.1058-6.0574,3.2162-9.4868,3.1447-7.1532.0769-13.0142-5.6596-13.0911-12.8128-.0014-.1257-.0009-.2515.0014-.3772,0-7.201,5.4285-13.0863,12.5312-13.0863Zm-8.7262,11.2626h16.9957c-.6595-4.515-4.16-7.9649-8.3712-7.9649-4.515,0-7.9138,3.3987-8.6245,7.9649Z"/><path id="uuid-f430587d-5524-4bf0-a8ec-fd7b21e832c8" class="uuid-dc574497-4639-4e53-8ad5-e9511b899f24" d="m137.3524,301.8037c0-7.3054,5.5303-13.0385,12.7845-13.0385,2.9462-.0062,5.7945,1.0569,8.0161,2.9918v-2.5364h3.7032v25.8256c0,6.5953-3.9572,10.147-10.9581,10.147-3.4873.0052-6.9149-.905-9.9402-2.6395l1.6236-2.9427c2.9426,1.5724,5.4285,2.3336,8.1677,2.3336,4.8195,0,7.3559-2.3336,7.3559-6.7981v-3.2471c-2.2486,1.9168-5.1114,2.9612-8.066,2.9427-7.106,0-12.6867-5.7331-12.6867-13.0385Zm12.9879,9.7408c2.9878.0889,5.8504-1.2021,7.7615-3.5005v-12.478c-1.9384-2.2564-4.7877-3.5229-7.7615-3.4499-5.2763,0-9.2847,4.2105-9.2847,9.6896s4.0589,9.7388,9.2847,9.7388Z"/><path id="uuid-06b709d0-fe12-49df-8c65-a47c6a92f515" class="uuid-dc574497-4639-4e53-8ad5-e9511b899f24" d="m171.8517,304.5416c0,4.4645,2.6887,7.3054,7.1026,7.3054,2.8724.0759,5.5572-1.4223,7.0009-3.9067v-18.7183h3.7544v25.4174h-3.7544v-2.9427c-1.9979,2.2936-4.9253,3.5615-7.9649,3.4499-5.8348,0-9.8398-4.0084-9.8398-9.8398v-16.0848h3.7039l-.0027,15.3196Z"/><path id="uuid-1515b116-b643-4630-a2d1-6ef9f898476a" class="uuid-dc574497-4639-4e53-8ad5-e9511b899f24" d="m199.7556,314.6394h-3.7544v-35.5132l3.7544-.8643v36.3775Z"/><path id="uuid-5e02bde4-6441-48e7-b6bf-b5c148f204aa" class="uuid-dc574497-4639-4e53-8ad5-e9511b899f24" d="m204.7274,307.4351c0-5.1746,4.4652-7.7622,10.147-7.7622,2.5872-.0177,5.1421.5745,7.4577,1.7286v-3.3489c0-4.1088-2.3336-6.1386-6.7476-6.1386-2.5876,0-5.0735.7613-7.9649,2.2326l-1.4208-2.8921c3.3489-1.6229,6.3926-2.5364,9.7408-2.5364,6.3926,0,10.0453,3.0949,10.0453,8.8273v17.0974h-3.6527v-2.4859c-2.2863,1.9552-5.2112,3.0021-8.2189,2.942-5.5303-.0033-9.3857-3.0976-9.3857-7.6638Zm10.0453,4.7204c2.8148.086,5.5436-.9762,7.5594-2.9427v-4.8195c-2.198-1.3829-4.7614-2.0724-7.3566-1.9786-3.906,0-6.6485,1.8769-6.6485,4.9199.0027,2.9413,2.7425,4.8189,6.4458,4.8189v.002Z"/><path id="uuid-695ffd1c-5dd7-4b62-92da-02d99dcfa605" class="uuid-dc574497-4639-4e53-8ad5-e9511b899f24" d="m232.2763,289.222h3.7558v3.5005c1.4414-2.5306,4.1399-4.0824,7.0521-4.0556.8253-.0123,1.6473.1075,2.4347.355v3.4499c-.8521-.2811-1.7411-.435-2.6381-.4568-2.7392,0-5.3773,1.3696-6.848,5.1746v17.4524h-3.7544l-.002-25.4201Z"/></g></g></svg>