<svg id="Layer_1" data-name="Layer 1" xmlns="http://www.w3.org/2000/svg" viewBox="0 0 555 180"><defs><style>.cls-1{fill:#a7c0e4;}.cls-1,.cls-4{opacity:0.5;isolation:isolate;}.cls-2{fill:#fff;}.cls-3{fill:#e00;}.cls-4{fill:#6c97d3;}.cls-10,.cls-11,.cls-12,.cls-5,.cls-6,.cls-7,.cls-8,.cls-9{fill:none;stroke:#6c97d3;stroke-linecap:round;stroke-linejoin:round;stroke-width:0.5px;}.cls-5{stroke-dasharray:2;}.cls-7{stroke-dasharray:1.99 1.99;}.cls-8{stroke-dasharray:2.03 2.03;}.cls-9{stroke-dasharray:2.07 2.07;}.cls-10{stroke-dasharray:1.97 1.97;}.cls-11{stroke-dasharray:2.05 2.05;}.cls-12{stroke-dasharray:2 2;}</style></defs><title>Brand_Standards-Red_Hat-Clearspace_standard-RGB</title><rect id="Rectangle_55" data-name="Rectangle 55" class="cls-1" x="0.01" width="554.97" height="177.83"/><rect id="Rectangle_56" data-name="Rectangle 56" class="cls-2" x="28.61" y="28.88" width="497.76" height="120.07"/><path id="Path_323" data-name="Path 323" d="M142.45,101.57h27v4.8H147.94v11H162v4.71h-14.1v11.28h21.67v4.81H142.45Z"/><path id="Path_324" data-name="Path 324" d="M174.63,111.55h5.22v2.66a10.94,10.94,0,0,1,8-3.18c6.11,0,10.4,4.23,10.4,10.39v16.72H193V122.31c0-4.18-2.56-6.74-6.58-6.74a7.51,7.51,0,0,0-6.58,3.45v19.12h-5.22Z"/><path id="Path_325" data-name="Path 325" d="M206.65,115.94H201v-4.39h5.65v-6.79l5.17-1.25v8h7.83v4.39h-7.83v14.41c0,2.72,1.1,3.71,3.92,3.71a10.34,10.34,0,0,0,3.81-.63v4.39a17.43,17.43,0,0,1-5,.78c-5.17,0-7.94-2.45-7.94-7Z"/><path id="Path_326" data-name="Path 326" d="M235.69,138.61a13.68,13.68,0,0,1-13.95-13.42v-.37a13.36,13.36,0,0,1,13-13.68h.29c7.32,0,12.85,6.06,12.85,13.9v1.51h-21a9,9,0,0,0,9,7.63,10.36,10.36,0,0,0,6.74-2.35l3.34,3.29A15.89,15.89,0,0,1,235.69,138.61Zm-8.72-16h15.77c-.78-4.07-3.91-7.1-7.78-7.1C230.94,115.52,227.75,118.39,227,122.62Z"/><path id="Path_327" data-name="Path 327" d="M252.87,111.55h5.23V115a8.3,8.3,0,0,1,7.31-4,6.51,6.51,0,0,1,2.66.41v4.71a9,9,0,0,0-3.08-.58c-3.08,0-5.53,1.68-6.89,4.86v17.76h-5.23Z"/><path id="Path_328" data-name="Path 328" d="M272.25,111.55h5.17v2.56a12.19,12.19,0,0,1,8.15-3A13.43,13.43,0,0,1,299,124.53v.29a13.45,13.45,0,0,1-13.16,13.73h-.37a13.47,13.47,0,0,1-8-2.61v13h-5.23Zm5.22,7.31v12a9.88,9.88,0,0,0,7.42,3.13,8.86,8.86,0,0,0,9-8.73v-.41a8.94,8.94,0,0,0-8.68-9.19c-.1,0-.2,0-.31,0a9.53,9.53,0,0,0-7.42,3.18Z"/><path id="Path_329" data-name="Path 329" d="M304,111.55h5.22V115a8.32,8.32,0,0,1,7.32-4,6.54,6.54,0,0,1,2.66.41v4.71a9,9,0,0,0-3.08-.58c-3.08,0-5.54,1.68-6.9,4.86v17.76H304Z"/><path id="Path_330" data-name="Path 330" d="M322.76,104a3.21,3.21,0,0,1,3.19-3.24h0a3.24,3.24,0,1,1,0,6.48,3.22,3.22,0,0,1-3.19-3.24Zm5.8,34.11h-5.22V111.55h5.22Z"/><path id="Path_331" data-name="Path 331" d="M335,131.24a13.9,13.9,0,0,0,8.67,3.35c3.76,0,6.37-1.62,6.37-4,0-1.88-1.36-3-4.28-3.4l-4.81-.68c-5.27-.78-7.94-3.24-7.94-7.36,0-4.81,4.18-8.05,10.4-8.05a18.28,18.28,0,0,1,10.71,3.4L351.49,118a14.73,14.73,0,0,0-8.4-2.77c-3.19,0-5.33,1.46-5.33,3.6,0,1.93,1.25,2.87,4.39,3.34l4.8.68c5.28.79,8,3.29,8,7.42,0,4.75-4.8,8.36-11.12,8.36a17.53,17.53,0,0,1-11.65-3.92Z"/><path id="Path_332" data-name="Path 332" d="M372,138.61a13.68,13.68,0,0,1-13.95-13.41v-.38a13.36,13.36,0,0,1,13-13.68h.29c7.31,0,12.85,6.06,12.85,13.9v1.51h-21a9,9,0,0,0,9,7.63,10.36,10.36,0,0,0,6.74-2.35l3.34,3.29A15.89,15.89,0,0,1,372,138.61Zm-8.72-16h15.77c-.78-4.07-3.92-7.1-7.78-7.1-4,0-7.21,2.87-8,7.1Z"/><path id="Path_333" data-name="Path 333" d="M400.75,101.57h5.48v31.71h21v4.85H400.75Z"/><path id="Path_334" data-name="Path 334" d="M431.62,104a3.2,3.2,0,0,1,3.18-3.24h0a3.24,3.24,0,0,1,0,6.48,3.22,3.22,0,0,1-3.19-3.24Zm5.8,34.11h-5.23V111.55h5.23Z"/><path id="Path_335" data-name="Path 335" d="M443.58,111.55h5.22v2.66a11,11,0,0,1,8-3.18c6.11,0,10.4,4.23,10.4,10.39v16.72H462V122.31c0-4.18-2.56-6.74-6.59-6.74A7.51,7.51,0,0,0,448.8,119v19.12h-5.22Z"/><path id="Path_336" data-name="Path 336" d="M478.05,127.33c0,4.17,2.56,6.79,6.59,6.79a7.46,7.46,0,0,0,6.52-3.51V111.55h5.23v26.58h-5.23v-2.66a10.86,10.86,0,0,1-8,3.19c-6.11,0-10.34-4.29-10.34-10.45V111.55h5.22Z"/><path id="Path_337" data-name="Path 337" d="M509.92,124.5l-9.93-13h6.11l6.84,9.14,6.85-9.14h5.9l-9.82,12.9,10.5,13.69h-6.16l-7.32-9.82-7.41,9.82h-5.91Z"/><path id="Path_338" data-name="Path 338" class="cls-3" d="M92.38,70.56c6.28,0,15.38-1.3,15.38-8.77a7.16,7.16,0,0,0-.16-1.72l-3.74-16.25c-.87-3.57-1.62-5.2-7.91-8.34-4.87-2.49-15.48-6.6-18.62-6.6-2.92,0-3.78,3.78-7.25,3.78s-5.85-2.81-9-2.81-5,2.06-6.49,6.28c0,0-4.23,11.91-4.77,13.64a3.24,3.24,0,0,0-.11,1c0,4.62,18.23,19.81,42.66,19.81m16.35-5.74c.87,4.12.87,4.55.87,5.09,0,7-7.91,10.94-18.3,10.94C67.81,80.85,47.24,67.1,47.24,58A9.11,9.11,0,0,1,48,54.32c-8.44.43-19.38,2-19.38,11.58,0,15.81,37.47,35.3,67.13,35.3,22.74,0,28.48-10.28,28.48-18.4,0-6.39-5.52-13.65-15.49-18"/><path id="Path_339" data-name="Path 339" d="M108.73,64.82c.87,4.12.87,4.55.87,5.09,0,7-7.91,10.94-18.3,10.94C67.81,80.85,47.24,67.1,47.24,58A9.14,9.14,0,0,1,48,54.32l1.84-4.55a3.6,3.6,0,0,0-.11,1c0,4.63,18.23,19.81,42.67,19.81,6.28,0,15.37-1.3,15.37-8.77a7.11,7.11,0,0,0-.15-1.72Z"/><path id="Path_340" data-name="Path 340" d="M319.54,75.24c0,6,3.59,8.87,10.14,8.87a26.13,26.13,0,0,0,6-.84V76.35a12.63,12.63,0,0,1-3.86.58c-2.69,0-3.69-.85-3.69-3.38V62.93h7.81V55.8H328.1v-9l-8.56,1.85V55.8h-5.65v7.13h5.65ZM293,75.4c0-1.85,1.85-2.75,4.65-2.75a21.66,21.66,0,0,1,5.07.63v3.6a11,11,0,0,1-5.34,1.32c-2.74,0-4.38-1.06-4.38-2.81m2.61,8.83a13.11,13.11,0,0,0,7.71-2.17v1.69h8.45V65.83c0-6.81-4.6-10.56-12.26-10.56a31.15,31.15,0,0,0-13,3.06l3.06,6.29c3.27-1.37,6-2.22,8.45-2.22,3.54,0,5.34,1.37,5.34,4.17V68a24.65,24.65,0,0,0-6.34-.79c-7.19,0-11.51,3-11.51,8.39,0,4.92,3.9,8.67,10.14,8.67m-46.43-.48h9.08V69.27h15.22V83.74h9.08v-37h-9.08V61H258.21V46.77h-9.08Zm-34.62-14a7.08,7.08,0,0,1,7.06-7.08h.28a8.61,8.61,0,0,1,5.91,2.16V74.6a8.18,8.18,0,0,1-5.91,2.22A7.11,7.11,0,0,1,214.51,70v-.21m13.36,14h8.45V44.92l-8.55,1.85V57.28a14.57,14.57,0,0,0-21.66,12.17v.29a14.2,14.2,0,0,0,14,14.37h.24a12.54,12.54,0,0,0,7.5-2.43ZM189.1,62.3A6.17,6.17,0,0,1,195,66.73H183.29a5.81,5.81,0,0,1,5.81-4.43m-14.42,7.5c0,8.13,6.65,14.47,15.21,14.47A16.73,16.73,0,0,0,201.57,80l-5.66-5a7.58,7.58,0,0,1-5.59,2.11,7.23,7.23,0,0,1-6.87-4.44h19.91V70.59c0-8.88-6-15.27-14.1-15.27a14.36,14.36,0,0,0-14.58,14.13v.35M159.94,54.53c3,0,4.71,1.9,4.71,4.17s-1.69,4.18-4.71,4.18h-9V54.53ZM141.88,83.74H151V70.27h6.92l7,13.47H175L166.86,69a11.19,11.19,0,0,0,7-10.4c0-6.66-5.23-11.78-13.05-11.78H141.88Z"/><path id="Path_341" data-name="Path 341" class="cls-4" d="M189.89,28.88c-8.53,0-15.17-6.32-15.17-14.44A14.31,14.31,0,0,1,188.91,0h.35c8.11,0,14.07,6.38,14.07,15v2.32H183.46a7.21,7.21,0,0,0,6.85,4.42,7.52,7.52,0,0,0,5.59-2.1l5.64,5A16.79,16.79,0,0,1,189.89,28.88Zm-6.48-17.5H195A6.23,6.23,0,0,0,189.16,7a5.8,5.8,0,0,0-5.75,4.37Z"/><path id="Path_342" data-name="Path 342" class="cls-4" d="M189.89,177.83c-8.53,0-15.17-6.33-15.17-14.44A14.31,14.31,0,0,1,188.91,149h.35c8.11,0,14.07,6.38,14.07,15v2.32H183.46a7.2,7.2,0,0,0,6.85,4.42,7.53,7.53,0,0,0,5.59-2.11l5.64,5A16.79,16.79,0,0,1,189.89,177.83Zm-6.48-17.5H195a6.23,6.23,0,0,0-5.84-4.37A5.8,5.8,0,0,0,183.41,160.33Z"/><path id="Path_343" data-name="Path 343" class="cls-4" d="M15.18,84.18C6.64,84.18,0,77.86,0,69.75A14.31,14.31,0,0,1,14.19,55.31h.35c8.12,0,14.07,6.37,14.07,15v2.32H8.75a7.21,7.21,0,0,0,6.85,4.43A7.56,7.56,0,0,0,21.18,75l5.64,5A16.72,16.72,0,0,1,15.18,84.18ZM8.69,66.69h11.6a6.22,6.22,0,0,0-5.85-4.37,5.8,5.8,0,0,0-5.75,4.37Z"/><path id="Path_344" data-name="Path 344" class="cls-4" d="M541.55,84.18c-8.54,0-15.18-6.32-15.18-14.43a14.31,14.31,0,0,1,14.19-14.44h.35c8.12,0,14.07,6.37,14.07,15v2.32H535.12A7.21,7.21,0,0,0,542,77.07,7.56,7.56,0,0,0,547.55,75l5.64,5A16.71,16.71,0,0,1,541.55,84.18Zm-6.48-17.49h11.59a6.22,6.22,0,0,0-5.85-4.37,5.78,5.78,0,0,0-5.74,4.37Z"/><line id="Line_56" data-name="Line 56" class="cls-5" x1="174.72" y1="55.31" x2="174.72" y2="84.27"/><g id="Line_58" data-name="Line 58"><line class="cls-6" x1="174.72" y1="55.31" x2="173.72" y2="55.31"/><line class="cls-7" x1="171.73" y1="55.31" x2="1.99" y2="55.31"/><line class="cls-6" x1="1" y1="55.31" y2="55.31"/></g><g id="Line_52" data-name="Line 52"><line class="cls-6" x1="203.33" y1="84.27" x2="203.33" y2="85.27"/><line class="cls-8" x1="203.33" y1="87.31" x2="203.33" y2="175.81"/><line class="cls-6" x1="203.33" y1="176.83" x2="203.33" y2="177.83"/></g><g id="Line_53" data-name="Line 53"><line class="cls-6" x1="203.33" y1="55.31" x2="203.33" y2="56.31"/><line class="cls-9" x1="203.33" y1="58.38" x2="203.33" y2="82.24"/><line class="cls-6" x1="203.33" y1="83.27" x2="203.33" y2="84.27"/></g><g id="Line_54" data-name="Line 54"><line class="cls-6" x1="203.33" x2="203.33" y2="1"/><line class="cls-10" x1="203.33" y1="2.98" x2="203.33" y2="53.32"/><line class="cls-6" x1="203.33" y1="54.31" x2="203.33" y2="55.31"/></g><g id="Line_55" data-name="Line 55"><line class="cls-6" x1="174.72" y1="84.27" x2="174.72" y2="85.27"/><line class="cls-8" x1="174.72" y1="87.31" x2="174.72" y2="175.81"/><line class="cls-6" x1="174.72" y1="176.83" x2="174.72" y2="177.83"/></g><g id="Line_57" data-name="Line 57"><line class="cls-6" x1="174.72" x2="174.72" y2="1"/><line class="cls-10" x1="174.72" y1="2.98" x2="174.72" y2="53.32"/><line class="cls-6" x1="174.72" y1="54.31" x2="174.72" y2="55.31"/></g><g id="Line_59" data-name="Line 59"><line class="cls-6" x1="203.33" y1="55.31" x2="202.33" y2="55.31"/><line class="cls-11" x1="200.28" y1="55.31" x2="176.74" y2="55.31"/><line class="cls-6" x1="175.72" y1="55.31" x2="174.72" y2="55.31"/></g><g id="Line_60" data-name="Line 60"><line class="cls-6" x1="555" y1="55.31" x2="554" y2="55.31"/><line class="cls-12" x1="552" y1="55.31" x2="205.33" y2="55.31"/><line class="cls-6" x1="204.33" y1="55.31" x2="203.33" y2="55.31"/></g><g id="Line_62" data-name="Line 62"><line class="cls-6" x1="174.72" y1="84.27" x2="173.72" y2="84.27"/><line class="cls-7" x1="171.73" y1="84.27" x2="1.99" y2="84.27"/><line class="cls-6" x1="1" y1="84.27" y2="84.27"/></g><g id="Line_63" data-name="Line 63"><line class="cls-6" x1="203.33" y1="84.27" x2="202.33" y2="84.27"/><line class="cls-11" x1="200.28" y1="84.27" x2="176.74" y2="84.27"/><line class="cls-6" x1="175.72" y1="84.27" x2="174.72" y2="84.27"/></g><g id="Line_64" data-name="Line 64"><line class="cls-6" x1="555" y1="84.27" x2="554" y2="84.27"/><line class="cls-12" x1="552" y1="84.27" x2="205.33" y2="84.27"/><line class="cls-6" x1="204.33" y1="84.27" x2="203.33" y2="84.27"/></g></svg>