<svg id="Layer_1" data-name="Layer 1" xmlns="http://www.w3.org/2000/svg" viewBox="0 0 262 180"><defs><style>.cls-1{fill:#53a3da;}.cls-2{fill:#f1606d;}.cls-3{fill:#fff;}.cls-4{fill:#231f20;}.cls-5{fill:#53a4d9;}</style></defs><title>Brand_Standards-Red_Hat-NotThis2-RGB</title><path id="Path_502" data-name="Path 502" class="cls-1" d="M87.48,72a18,18,0,1,0,18,18A18,18,0,0,0,87.48,72Z"/><path id="Path_503" data-name="Path 503" class="cls-2" d="M87.48,73.65c-2.89,0-5.35,4.63-6.23,11.07,0,.2-.06.41-.08.62-.12,1-.2,2.07-.25,3.15,0,.5,0,1,0,1.51s0,1,0,1.5c0,1.08.13,2.14.25,3.15,1.35.18,2.81.29,4.32.35.65,0,1.32,0,2,0s1.34,0,2,0c1.52-.06,3-.17,4.33-.35l.44-.06c5.66-.8,9.59-2.55,9.59-4.6A16.35,16.35,0,0,0,87.48,73.65Z"/><path id="Path_504" data-name="Path 504" class="cls-3" d="M94.24,85.41a6.92,6.92,0,0,0-.52-.69,8.11,8.11,0,0,0-6.24-2.89c-.81,0-1.53,1.24-2,3.16a19.28,19.28,0,0,0-.42,2.6C85,88.35,85,89.17,85,90s0,1.65.11,2.42c.76.07,1.57.11,2.41.11s1.65,0,2.41-.11A15.11,15.11,0,0,0,94,91.51c1-.42,1.62-.94,1.62-1.5A8.11,8.11,0,0,0,94.24,85.41Z"/><path id="Path_505" data-name="Path 505" class="cls-4" d="M122.44,81.13a6.76,6.76,0,0,1,4.9,2.19l-1.69,1.9a4.38,4.38,0,0,0-3.18-1.42c-2.82,0-4.85,2.37-4.85,6.24s1.87,6.3,4.74,6.3A4.66,4.66,0,0,0,126,94.63l1.68,1.87a6.89,6.89,0,0,1-5.37,2.5c-4.38,0-7.83-3.16-7.83-8.88S118,81.13,122.44,81.13Z"/><path id="Path_506" data-name="Path 506" class="cls-4" d="M134.51,85.43c3.24,0,6.17,2.48,6.17,6.8S137.75,99,134.51,99s-6.14-2.48-6.14-6.77S131.3,85.43,134.51,85.43Zm0,11.09c1.9,0,3.06-1.71,3.06-4.3s-1.16-4.32-3.06-4.32-3,1.71-3,4.32S132.61,96.52,134.51,96.52Z"/><path id="Path_507" data-name="Path 507" class="cls-4" d="M141.68,85.74h2.5l.21,2.3h.11a4.38,4.38,0,0,1,3.66-2.61,3.27,3.27,0,0,1,1.48.26l-.53,2.64a3.84,3.84,0,0,0-1.34-.21c-1,0-2.27.71-3.06,2.66v7.9h-3Z"/><path id="Path_508" data-name="Path 508" class="cls-4" d="M155.3,85.43c3.51,0,5.35,2.53,5.35,6.14a6.16,6.16,0,0,1-.13,1.42H152.3a3.72,3.72,0,0,0,3.76,3.67h.06a5.43,5.43,0,0,0,3-.94l1,1.9a8.23,8.23,0,0,1-4.43,1.4c-3.58,0-6.38-2.5-6.38-6.78S152.27,85.43,155.3,85.43ZM158,91.07c0-2.06-.87-3.3-2.64-3.3-1.52,0-2.84,1.14-3.11,3.3Z"/><path id="Path_509" data-name="Path 509" class="cls-2" d="M165.26,89.93c0-5.48,3-8.93,7.17-8.93s7.14,3.45,7.14,8.93-3,9.07-7.14,9.07S165.26,95.44,165.26,89.93Zm13.05,0c0-4.8-2.37-7.82-5.88-7.82s-5.9,3-5.9,7.82,2.37,8,5.9,8,5.88-3.13,5.88-8Z"/><path id="Path_510" data-name="Path 510" class="cls-5" d="M181.87,95.55A6.84,6.84,0,0,0,187,97.89c2.63,0,4.32-1.42,4.32-3.47s-1.42-2.88-3.14-3.64l-2.63-1.19c-1.5-.66-3.51-1.74-3.51-4.32s2.16-4.27,5-4.27a6.61,6.61,0,0,1,4.84,2.08l-.71.82a5.49,5.49,0,0,0-4.13-1.79c-2.3,0-3.83,1.21-3.83,3.11s1.74,2.77,3,3.35l2.64,1.15c1.92.87,3.64,2,3.64,4.62S190.33,99,187,99a7.61,7.61,0,0,1-5.85-2.61Z"/></svg>