<svg id="Layer_1" data-name="Layer 1" xmlns="http://www.w3.org/2000/svg" viewBox="0 0 262 180"><defs><style>.cls-1{isolation:isolate;}.cls-2{fill:#e00;}</style></defs><title>Brand_Standards-Red_Hat-NotThis1-RGB</title><g class="cls-1"><path d="M71.26,95.14h9.88V96.9H73.27v4h5.17v1.72H73.27v4.14h8v1.76h-10Z"/><path d="M83.05,98.79H85v1a4.06,4.06,0,0,1,2.93-1.17,3.64,3.64,0,0,1,3.81,3.81v6.13H89.79v-5.8a2.27,2.27,0,0,0-2.41-2.47A2.77,2.77,0,0,0,85,101.53v7H83.05Z"/><path d="M94.78,100.4H92.71V98.79h2.07V96.31l1.9-.46v2.94h2.87v1.61H96.68v5.29c0,1,.4,1.35,1.43,1.35a3.81,3.81,0,0,0,1.4-.22v1.6a6.47,6.47,0,0,1-1.82.29c-1.9,0-2.91-.9-2.91-2.58Z"/><path d="M105.42,108.71a5,5,0,0,1-5.11-5,4.89,4.89,0,0,1,4.88-5,4.82,4.82,0,0,1,4.71,5.09v.56h-7.7a3.28,3.28,0,0,0,3.3,2.79,3.8,3.8,0,0,0,2.47-.86l1.22,1.21A5.8,5.8,0,0,1,105.42,108.71Zm-3.2-5.86H108a2.91,2.91,0,0,0-5.78,0Z"/><path d="M111.71,98.79h1.92V100a3,3,0,0,1,2.68-1.46,2.29,2.29,0,0,1,1,.16v1.72a3.32,3.32,0,0,0-1.12-.21,2.66,2.66,0,0,0-2.53,1.78v6.51h-1.92Z"/><path d="M118.81,98.79h1.9v.94a4.48,4.48,0,0,1,3-1.09,5,5,0,0,1,0,10,4.85,4.85,0,0,1-2.93-1v4.77h-1.92Zm1.92,2.69v4.4a3.62,3.62,0,0,0,2.71,1.14,3.36,3.36,0,0,0,0-6.71A3.48,3.48,0,0,0,120.73,101.48Z"/><path d="M130.43,98.79h1.91V100A3,3,0,0,1,135,98.58a2.37,2.37,0,0,1,1,.16v1.72a3.42,3.42,0,0,0-1.13-.21,2.66,2.66,0,0,0-2.53,1.78v6.51h-1.91Z"/><path d="M137.32,96a1.17,1.17,0,0,1,1.16-1.19,1.19,1.19,0,0,1,0,2.38A1.17,1.17,0,0,1,137.32,96Zm2.12,12.5h-1.91V98.79h1.91Z"/><path d="M141.81,106a5.1,5.1,0,0,0,3.18,1.23c1.38,0,2.33-.6,2.33-1.46,0-.69-.49-1.09-1.56-1.24l-1.77-.25c-1.93-.29-2.9-1.19-2.9-2.7,0-1.76,1.53-3,3.8-3a6.65,6.65,0,0,1,3.93,1.25l-1,1.26a5.41,5.41,0,0,0-3.08-1c-1.17,0-1.95.54-1.95,1.33s.46,1.05,1.61,1.22l1.76.25c1.93.29,2.94,1.2,2.94,2.72,0,1.74-1.76,3.06-4.07,3.06a6.41,6.41,0,0,1-4.27-1.44Z"/><path d="M155.36,108.71a5,5,0,0,1-5.11-5,4.89,4.89,0,0,1,4.88-5,4.82,4.82,0,0,1,4.71,5.09v.56h-7.7a3.28,3.28,0,0,0,3.3,2.79,3.8,3.8,0,0,0,2.47-.86l1.22,1.21A5.8,5.8,0,0,1,155.36,108.71Zm-3.2-5.86h5.78a2.91,2.91,0,0,0-5.78,0Z"/><path d="M165.88,95.14h2v11.62h7.72v1.78h-9.73Z"/><path d="M177.19,96a1.18,1.18,0,0,1,1.17-1.19,1.19,1.19,0,0,1,0,2.38A1.18,1.18,0,0,1,177.19,96Zm2.13,12.5H177.4V98.79h1.92Z"/><path d="M181.57,98.79h1.92v1a4,4,0,0,1,2.93-1.17,3.63,3.63,0,0,1,3.8,3.81v6.13h-1.91v-5.8a2.27,2.27,0,0,0-2.41-2.47,2.75,2.75,0,0,0-2.41,1.26v7h-1.92Z"/><path d="M194.2,104.57a2.28,2.28,0,0,0,2.42,2.49,2.75,2.75,0,0,0,2.39-1.28v-7h1.91v9.75H199v-1a4,4,0,0,1-2.93,1.17,3.64,3.64,0,0,1-3.79-3.83V98.79h1.91Z"/><path d="M205.88,103.54l-3.64-4.75h2.24l2.51,3.35,2.5-3.35h2.17l-3.6,4.73,3.84,5h-2.25l-2.68-3.6-2.72,3.6h-2.16Z"/><path d="M216.74,104.86a3.63,3.63,0,0,1,2.63-3.31,3.34,3.34,0,0,1-2.13-3c0-2,2-3.6,4.65-3.6s4.65,1.55,4.65,3.6a3.35,3.35,0,0,1-2.12,3,3.62,3.62,0,0,1,2.62,3.31c0,2.26-2.14,3.87-5.15,3.87S216.74,107.12,216.74,104.86Zm8.41-.11c0-1.38-1.4-2.41-3.26-2.41s-3.25,1-3.25,2.41,1.39,2.43,3.25,2.43S225.15,106.14,225.15,104.75Zm-.46-6.11c0-1.22-1.21-2.18-2.8-2.18s-2.77,1-2.77,2.18,1.2,2.16,2.77,2.16S224.69,99.85,224.69,98.64Z"/><path d="M230.71,107.47a1.21,1.21,0,0,1-1.2,1.22,1.22,1.22,0,1,1,0-2.43A1.2,1.2,0,0,1,230.71,107.47Z"/><path d="M235.15,108.54h-1.89V97.11l-2.41,1V96.44l3.1-1.3h1.2Z"/></g><g id="Group_95-5" data-name="Group 95-5"><path id="Path_447-5" data-name="Path 447-5" class="cls-2" d="M51.78,83.8c2.46,0,6-.51,6-3.43a2.5,2.5,0,0,0-.06-.67l-1.46-6.35c-.34-1.4-.64-2-3.09-3.26-1.91-1-6.06-2.59-7.28-2.59S44.41,69,43.06,69s-2.29-1.1-3.51-1.1-1.95.81-2.54,2.46c0,0-1.65,4.65-1.86,5.33a1.2,1.2,0,0,0,0,.38c0,1.81,7.12,7.75,16.68,7.75m6.39-2.25a9.64,9.64,0,0,1,.34,2c0,2.76-3.09,4.28-7.15,4.28-9.19,0-17.23-5.38-17.23-8.93a3.54,3.54,0,0,1,.3-1.44c-3.31.17-7.58.76-7.58,4.53,0,6.18,14.64,13.8,26.24,13.8,8.89,0,11.14-4,11.14-7.2,0-2.5-2.16-5.33-6.06-7"/><path id="Path_448-5" data-name="Path 448-5" d="M58.18,81.55a9.62,9.62,0,0,1,.33,2c0,2.76-3.09,4.28-7.15,4.28-9.19,0-17.23-5.38-17.23-8.93a3.54,3.54,0,0,1,.3-1.44l.72-1.78a1.24,1.24,0,0,0,0,.38c0,1.81,7.13,7.75,16.68,7.75,2.46,0,6-.51,6-3.43a3,3,0,0,0-.07-.67Z"/></g><path id="Path_449-6" data-name="Path 449-6" d="M140.59,85.63c0,2.33,1.41,3.47,4,3.47a10.32,10.32,0,0,0,2.34-.33V86.06a4.85,4.85,0,0,1-1.51.23c-1.06,0-1.45-.33-1.45-1.32V80.82H147V78h-3.06V74.49l-3.34.73V78h-2.21v2.78h2.21Zm-10.4.06c0-.73.73-1.08,1.82-1.08a8.89,8.89,0,0,1,2,.25v1.41a4.23,4.23,0,0,1-2.09.51c-1.07,0-1.71-.41-1.71-1.09m1,3.45a5.1,5.1,0,0,0,3-.85V89h3.31V82c0-2.66-1.8-4.13-4.8-4.13a12,12,0,0,0-5.1,1.2l1.2,2.46a8.83,8.83,0,0,1,3.3-.87c1.39,0,2.09.54,2.09,1.63v.54a9.42,9.42,0,0,0-2.48-.31c-2.81,0-4.5,1.17-4.5,3.28,0,1.92,1.53,3.39,4,3.39M113.06,89h3.55V83.29h6V89h3.56V74.49h-3.56v5.56h-6V74.49h-3.55ZM99.53,83.48a2.75,2.75,0,0,1,2.76-2.77h.11a3.34,3.34,0,0,1,2.31.85v3.82a3.24,3.24,0,0,1-2.31.86,2.77,2.77,0,0,1-2.87-2.68v-.08M104.75,89h3.3V73.77l-3.34.72V78.6A5.64,5.64,0,0,0,99,88.32a5.7,5.7,0,0,0,2.82.78,5,5,0,0,0,2.93-.95ZM89.59,80.58a2.39,2.39,0,0,1,2.29,1.73H87.32a2.27,2.27,0,0,1,2.27-1.73M84,83.51a5.73,5.73,0,0,0,5.82,5.66h.13a6.59,6.59,0,0,0,4.56-1.65l-2.21-2a3,3,0,0,1-2.19.82,2.81,2.81,0,0,1-2.68-1.73h7.78v-.84c0-3.47-2.34-6-5.51-6A5.62,5.62,0,0,0,84,83.36v.14m-5.76-6a1.64,1.64,0,0,1,.4,3.26,1.34,1.34,0,0,1-.4,0H74.69V77.53ZM71.13,89h3.55V83.68h2.71L80.11,89h4L80.9,83.17a4.36,4.36,0,0,0,2.72-4.07c0-2.6-2-4.61-5.1-4.61h-7.4Z"/></svg>