<svg id="b353158d-c057-4b50-8991-dd4650698c89" data-name="Layer 1" xmlns="http://www.w3.org/2000/svg" xmlns:xlink="http://www.w3.org/1999/xlink" width="262" height="180" viewBox="0 0 262 180"><defs><style>.bb0ae1c0-e28b-4fe4-be08-6090fe9ea072{fill:none;}.e4443275-fe40-4273-b9a9-feb640713d7b{fill:#f3f3f3;}.a7a6e570-ccc1-4122-9c14-a07266081e64{isolation:isolate;}.ebd083d1-5f99-4f7b-a27f-f545bd791d52{fill:#fff;}.b027f968-6255-4bf7-b3b2-c27b3baba888{fill:#e00;}.f7253488-5d6e-497e-93bf-dad05d6b807c{clip-path:url(#bc1e70fc-725d-4ce8-a6dd-e51e77ef25b9);}</style><clipPath id="bc1e70fc-725d-4ce8-a6dd-e51e77ef25b9"><rect class="bb0ae1c0-e28b-4fe4-be08-6090fe9ea072" x="296" y="240" width="555" height="308.4"/></clipPath></defs><title>Brand_Standars-Product_logos-ASSETS-NotThis3</title><rect class="e4443275-fe40-4273-b9a9-feb640713d7b" width="262" height="180"/><g class="a7a6e570-ccc1-4122-9c14-a07266081e64"><path class="ebd083d1-5f99-4f7b-a27f-f545bd791d52" d="M95.18,97.16h2.21L102,108.78l4.7-11.62h2.1l-5.65,13.65h-2.4Z"/><path class="ebd083d1-5f99-4f7b-a27f-f545bd791d52" d="M109.76,98.07A1.2,1.2,0,1,1,111,99.28,1.2,1.2,0,0,1,109.76,98.07Zm2.17,12.74h-2v-9.93h2Z"/><path class="ebd083d1-5f99-4f7b-a27f-f545bd791d52" d="M114.23,100.88h2v1.27a3.09,3.09,0,0,1,2.73-1.48,2.4,2.4,0,0,1,1,.15v1.76a3.26,3.26,0,0,0-1.15-.22,2.7,2.7,0,0,0-2.57,1.82v6.63h-2Z"/><path class="ebd083d1-5f99-4f7b-a27f-f545bd791d52" d="M122.82,102.52h-2.1v-1.64h2.1V98.35l1.93-.47v3h2.93v1.64h-2.93v5.38c0,1,.41,1.38,1.47,1.38a3.75,3.75,0,0,0,1.42-.23v1.64a6.69,6.69,0,0,1-1.85.29c-1.93,0-3-.92-3-2.63Z"/><path class="ebd083d1-5f99-4f7b-a27f-f545bd791d52" d="M131,106.77a2.32,2.32,0,0,0,2.46,2.53,2.76,2.76,0,0,0,2.43-1.3v-7.12h2v9.93h-2v-1a4,4,0,0,1-3,1.19,3.71,3.71,0,0,1-3.86-3.9v-6.22H131Z"/><path class="ebd083d1-5f99-4f7b-a27f-f545bd791d52" d="M139.66,108c0-1.87,1.53-3,4-3a7,7,0,0,1,2.71.54v-1c0-1.4-.84-2.11-2.42-2.11a7.15,7.15,0,0,0-3.08.84l-.72-1.46a9.31,9.31,0,0,1,4.08-1c2.57,0,4.05,1.26,4.05,3.54v6.58h-1.91V110a4.72,4.72,0,0,1-3.08,1C141.15,111,139.66,109.75,139.66,108Zm4.1,1.58a3.79,3.79,0,0,0,2.63-.94v-1.71a5.15,5.15,0,0,0-2.55-.61c-1.43,0-2.3.65-2.3,1.64S142.43,109.54,143.76,109.54Z"/><path class="ebd083d1-5f99-4f7b-a27f-f545bd791d52" d="M152.49,110.81h-2V97.16l2-.43Z"/><path class="ebd083d1-5f99-4f7b-a27f-f545bd791d52" d="M154.58,98.07a1.2,1.2,0,0,1,1.19-1.21,1.21,1.21,0,0,1,0,2.42A1.19,1.19,0,0,1,154.58,98.07Zm2.16,12.74h-2v-9.93h2Z"/><path class="ebd083d1-5f99-4f7b-a27f-f545bd791d52" d="M158.45,109.36l5.56-6.8h-5.5v-1.68h8v1.42l-5.58,6.83h5.68v1.68h-8.12Z"/><path class="ebd083d1-5f99-4f7b-a27f-f545bd791d52" d="M167.85,108c0-1.87,1.52-3,4-3a7,7,0,0,1,2.71.54v-1c0-1.4-.84-2.11-2.42-2.11a7.12,7.12,0,0,0-3.08.84l-.72-1.46a9.3,9.3,0,0,1,4.07-1c2.58,0,4.06,1.26,4.06,3.54v6.58h-1.91V110a4.72,4.72,0,0,1-3.08,1C169.33,111,167.85,109.75,167.85,108Zm4.1,1.58a3.79,3.79,0,0,0,2.63-.94v-1.71a5.16,5.16,0,0,0-2.56-.61c-1.42,0-2.3.65-2.3,1.64S170.62,109.54,172,109.54Z"/><path class="ebd083d1-5f99-4f7b-a27f-f545bd791d52" d="M179.62,102.52h-2.1v-1.64h2.1V98.35l1.94-.47v3h2.92v1.64h-2.92v5.38c0,1,.4,1.38,1.46,1.38a3.75,3.75,0,0,0,1.42-.23v1.64a6.69,6.69,0,0,1-1.85.29c-1.93,0-3-.92-3-2.63Z"/><path class="ebd083d1-5f99-4f7b-a27f-f545bd791d52" d="M185.71,98.07a1.2,1.2,0,0,1,1.18-1.21,1.21,1.21,0,1,1,0,2.42A1.19,1.19,0,0,1,185.71,98.07Zm2.16,12.74h-2v-9.93h2Z"/><path class="ebd083d1-5f99-4f7b-a27f-f545bd791d52" d="M194.89,100.69a5.16,5.16,0,1,1-5.17,5.14A5.1,5.1,0,0,1,194.89,100.69Zm3.23,5.14a3.25,3.25,0,1,0-3.23,3.45A3.31,3.31,0,0,0,198.12,105.83Z"/><path class="ebd083d1-5f99-4f7b-a27f-f545bd791d52" d="M201.89,100.88h1.94v1a4.1,4.1,0,0,1,3-1.19,3.7,3.7,0,0,1,3.88,3.88v6.24h-1.95V104.9a2.32,2.32,0,0,0-2.46-2.52,2.82,2.82,0,0,0-2.46,1.29v7.14h-1.94Z"/></g><g id="ad8c4a6f-1602-4a17-8a88-fc685eac320f" data-name="Group 95-2"><path id="fa4d12af-5dd2-485c-8f32-68b1ab01d511" data-name="Path 447-2" class="b027f968-6255-4bf7-b3b2-c27b3baba888" d="M76.7,85.6c2.5,0,6.12-.52,6.12-3.49a2.69,2.69,0,0,0-.06-.69L81.27,75c-.34-1.43-.65-2.07-3.15-3.32C76.18,70.64,72,69,70.71,69s-1.51,1.51-2.89,1.51-2.33-1.12-3.58-1.12-2,.82-2.59,2.5c0,0-1.68,4.74-1.9,5.43a1.29,1.29,0,0,0,0,.39c0,1.84,7.26,7.89,17,7.89m6.51-2.28a9.94,9.94,0,0,1,.35,2c0,2.81-3.15,4.36-7.29,4.36-9.36,0-17.55-5.48-17.55-9.1a3.67,3.67,0,0,1,.3-1.46c-3.36.17-7.72.77-7.72,4.61C51.3,90,66.22,97.81,78,97.81c9,0,11.34-4.1,11.34-7.33,0-2.55-2.2-5.44-6.17-7.16"/><path id="a80245ee-80a3-48fd-bbaf-55a54f9cac9a" data-name="Path 448-2" d="M83.22,83.32a9.92,9.92,0,0,1,.34,2c0,2.81-3.15,4.36-7.29,4.36-9.36,0-17.55-5.48-17.55-9.1a3.67,3.67,0,0,1,.3-1.46l.74-1.82a1.31,1.31,0,0,0,0,.39c0,1.84,7.26,7.89,17,7.89,2.51,0,6.13-.51,6.13-3.49a3.07,3.07,0,0,0-.06-.68Z"/></g><path id="a2e593e8-658e-47c6-b39f-63b63dc058fe" data-name="Path 449-2" class="ebd083d1-5f99-4f7b-a27f-f545bd791d52" d="M167.17,87.47c0,2.38,1.43,3.53,4,3.53a10,10,0,0,0,2.38-.34V87.91a4.66,4.66,0,0,1-1.53.23c-1.07,0-1.47-.33-1.47-1.34V82.57h3.11V79.72h-3.11V76.13l-3.41.73v2.86h-2.25v2.84h2.25Zm-10.59.06c0-.74.74-1.1,1.85-1.1a8.61,8.61,0,0,1,2,.26v1.43a4.35,4.35,0,0,1-2.12.52c-1.1,0-1.75-.42-1.75-1.11m1,3.51a5.14,5.14,0,0,0,3.07-.87v.68h3.37V83.72c0-2.71-1.83-4.21-4.88-4.21a12.47,12.47,0,0,0-5.2,1.22l1.22,2.51a9.21,9.21,0,0,1,3.37-.89c1.4,0,2.12.55,2.12,1.67v.54a9.72,9.72,0,0,0-2.52-.31c-2.86,0-4.59,1.2-4.59,3.34,0,2,1.56,3.45,4,3.45m-18.49-.19h3.61V85.09h6.07v5.76h3.62V76.12h-3.62v5.66h-6.07V76.13h-3.61Zm-13.79-5.57a2.81,2.81,0,0,1,2.81-2.82h.11a3.47,3.47,0,0,1,2.36.87v3.89a3.27,3.27,0,0,1-2.36.89,2.84,2.84,0,0,1-2.92-2.74v-.08m5.32,5.57H134V75.39l-3.41.74v4.18a5.74,5.74,0,1,0-3,10.69,5,5,0,0,0,3-1Zm-15.44-8.54a2.48,2.48,0,0,1,2.34,1.77h-4.65a2.32,2.32,0,0,1,2.31-1.77m-5.74,3a5.86,5.86,0,0,0,5.93,5.77h.13a6.69,6.69,0,0,0,4.65-1.69l-2.25-2a3,3,0,0,1-2.23.84A2.87,2.87,0,0,1,113,86.47h7.93v-.86c0-3.53-2.38-6.08-5.61-6.08a5.72,5.72,0,0,0-5.81,5.63v.14m-5.87-6.08a1.67,1.67,0,1,1,.41,3.32,1.41,1.41,0,0,1-.41,0H100V79.22ZM96.42,90.85H100V85.49h2.75l2.78,5.36h4L106.36,85a4.46,4.46,0,0,0,2.78-4.14c0-2.65-2.09-4.69-5.2-4.69H96.41Z"/><g class="f7253488-5d6e-497e-93bf-dad05d6b807c"><image width="1194" height="786" transform="translate(217.73 134.3) scale(0.54)" xlink:href="Brand%20Standards/Screen%20Shot%202020-01-30%20at%2011.52.59%20AM.png"/></g></svg>