<svg id="Layer_1" data-name="Layer 1" xmlns="http://www.w3.org/2000/svg" viewBox="0 0 262 180"><defs><style>.cls-1{isolation:isolate;}.cls-2{fill:#e00;}</style></defs><title>Brand_Standards-Red_Hat-This1-RGB</title><g class="cls-1"><path d="M75.32,95.14H85.2V96.9H77.33v4H82.5v1.72H77.33v4.14h7.94v1.76h-10Z"/><path d="M87.11,98.79H89v1A4,4,0,0,1,92,98.6a3.64,3.64,0,0,1,3.81,3.81v6.13H93.84v-5.8a2.26,2.26,0,0,0-2.41-2.47A2.76,2.76,0,0,0,89,101.53v7H87.11Z"/><path d="M98.84,100.4H96.77V98.79h2.07V96.31l1.89-.46v2.94h2.87v1.61h-2.87v5.29c0,1,.4,1.35,1.44,1.35a3.76,3.76,0,0,0,1.39-.22v1.6a6.35,6.35,0,0,1-1.81.29c-1.9,0-2.91-.9-2.91-2.58Z"/><path d="M109.48,108.71a5,5,0,0,1-5.11-5,4.89,4.89,0,0,1,4.88-5,4.82,4.82,0,0,1,4.71,5.09v.56h-7.7a3.28,3.28,0,0,0,3.29,2.79,3.76,3.76,0,0,0,2.47-.86l1.23,1.21A5.82,5.82,0,0,1,109.48,108.71Zm-3.2-5.86h5.78a3,3,0,0,0-2.85-2.6A3,3,0,0,0,106.28,102.85Z"/><path d="M115.77,98.79h1.91V100a3.07,3.07,0,0,1,2.68-1.46,2.34,2.34,0,0,1,1,.16v1.72a3.37,3.37,0,0,0-1.13-.21,2.66,2.66,0,0,0-2.53,1.78v6.51h-1.91Z"/><path d="M122.87,98.79h1.89v.94a4.5,4.5,0,0,1,3-1.09,5,5,0,1,1-3,9.09v4.77h-1.91Zm1.91,2.69v4.4A3.65,3.65,0,0,0,127.5,107a3.36,3.36,0,0,0,0-6.71A3.49,3.49,0,0,0,124.78,101.48Z"/><path d="M134.48,98.79h1.92V100a3,3,0,0,1,2.68-1.46,2.29,2.29,0,0,1,1,.16v1.72a3.33,3.33,0,0,0-1.13-.21A2.65,2.65,0,0,0,136.4,102v6.51h-1.92Z"/><path d="M141.37,96a1.18,1.18,0,0,1,1.17-1.19,1.19,1.19,0,0,1,0,2.38A1.18,1.18,0,0,1,141.37,96Zm2.13,12.5h-1.92V98.79h1.92Z"/><path d="M145.87,106a5.06,5.06,0,0,0,3.18,1.23c1.37,0,2.33-.6,2.33-1.46,0-.69-.5-1.09-1.57-1.24l-1.76-.25c-1.93-.29-2.91-1.19-2.91-2.7,0-1.76,1.53-3,3.81-3a6.62,6.62,0,0,1,3.92,1.25l-1,1.26a5.41,5.41,0,0,0-3.08-1c-1.17,0-2,.54-2,1.33s.46,1.05,1.61,1.22l1.76.25c1.94.29,3,1.2,3,2.72,0,1.74-1.76,3.06-4.08,3.06a6.44,6.44,0,0,1-4.27-1.44Z"/><path d="M159.42,108.71a5,5,0,0,1-5.11-5,4.89,4.89,0,0,1,4.88-5,4.82,4.82,0,0,1,4.7,5.09v.56H156.2a3.28,3.28,0,0,0,3.29,2.79,3.76,3.76,0,0,0,2.47-.86l1.23,1.21A5.82,5.82,0,0,1,159.42,108.71Zm-3.2-5.86H162a3,3,0,0,0-2.85-2.6A3,3,0,0,0,156.22,102.85Z"/><path d="M169.94,95.14h2v11.62h7.71v1.78h-9.72Z"/><path d="M181.25,96a1.17,1.17,0,0,1,1.16-1.19,1.19,1.19,0,0,1,0,2.38A1.17,1.17,0,0,1,181.25,96Zm2.12,12.5h-1.91V98.79h1.91Z"/><path d="M185.63,98.79h1.91v1a4,4,0,0,1,2.93-1.17,3.64,3.64,0,0,1,3.81,3.81v6.13h-1.91v-5.8a2.27,2.27,0,0,0-2.42-2.47,2.76,2.76,0,0,0-2.41,1.26v7h-1.91Z"/><path d="M198.26,104.58a2.28,2.28,0,0,0,2.41,2.48,2.73,2.73,0,0,0,2.39-1.28v-7H205v9.75h-1.92v-1a4,4,0,0,1-2.93,1.17,3.64,3.64,0,0,1-3.79-3.83V98.79h1.92Z"/><path d="M209.93,103.54l-3.64-4.75h2.24l2.51,3.35,2.51-3.35h2.16l-3.6,4.73,3.85,5H213.7l-2.68-3.6-2.72,3.6h-2.16Z"/><path d="M220.8,104.86a3.62,3.62,0,0,1,2.62-3.31,3.35,3.35,0,0,1-2.12-3c0-2,2-3.6,4.65-3.6s4.65,1.55,4.65,3.6a3.34,3.34,0,0,1-2.13,3,3.63,3.63,0,0,1,2.63,3.31c0,2.26-2.15,3.87-5.15,3.87S220.8,107.12,220.8,104.86Zm8.4-.11c0-1.38-1.4-2.41-3.25-2.41s-3.26,1-3.26,2.41,1.4,2.43,3.26,2.43S229.2,106.14,229.2,104.75Zm-.46-6.11c0-1.22-1.2-2.18-2.79-2.18s-2.78,1-2.78,2.18,1.21,2.16,2.78,2.16S228.74,99.85,228.74,98.64Z"/></g><g id="Group_95" data-name="Group 95"><path id="Path_447" data-name="Path 447" class="cls-2" d="M55.84,83.8c2.45,0,6-.51,6-3.43a2.5,2.5,0,0,0-.06-.67l-1.46-6.35c-.34-1.4-.64-2-3.1-3.26-1.9-1-6-2.59-7.28-2.59S48.47,69,47.12,69s-2.29-1.1-3.52-1.1-1.94.81-2.54,2.46c0,0-1.65,4.65-1.86,5.33a1.2,1.2,0,0,0,0,.38c0,1.81,7.12,7.75,16.68,7.75m6.39-2.25a10.36,10.36,0,0,1,.34,2c0,2.76-3.09,4.28-7.16,4.28-9.18,0-17.22-5.38-17.22-8.93a3.53,3.53,0,0,1,.29-1.44c-3.3.17-7.58.76-7.58,4.53,0,6.18,14.65,13.8,26.25,13.8,8.89,0,11.13-4,11.13-7.2,0-2.5-2.16-5.33-6.05-7"/><path id="Path_448" data-name="Path 448" d="M62.23,81.55a9.64,9.64,0,0,1,.34,2c0,2.76-3.09,4.28-7.15,4.28-9.19,0-17.23-5.38-17.23-8.93a3.54,3.54,0,0,1,.3-1.44l.71-1.78a1.64,1.64,0,0,0,0,.38c0,1.81,7.12,7.75,16.68,7.75,2.46,0,6-.51,6-3.43a2.5,2.5,0,0,0-.06-.67Z"/></g><path id="Path_449" data-name="Path 449" d="M144.65,85.63c0,2.33,1.4,3.47,4,3.47a10.25,10.25,0,0,0,2.34-.34v-2.7a4.85,4.85,0,0,1-1.51.23C148.39,86.29,148,86,148,85V80.82h3.05V78H148V74.49l-3.35.73V78h-2.21v2.78h2.21Zm-10.4.06c0-.73.72-1.08,1.82-1.08a8.8,8.8,0,0,1,2,.25v1.41a4.33,4.33,0,0,1-2.08.51c-1.08,0-1.72-.41-1.72-1.09m1,3.45a5.2,5.2,0,0,0,3-.85V89h3.3V82c0-2.66-1.8-4.13-4.79-4.13a12,12,0,0,0-5.1,1.2l1.2,2.46a8.78,8.78,0,0,1,3.3-.87c1.38,0,2.08.54,2.08,1.63v.54a9.35,9.35,0,0,0-2.47-.31c-2.81,0-4.51,1.17-4.51,3.28,0,1.92,1.53,3.39,4,3.39M117.12,89h3.55V83.29h6V89h3.55V74.49h-3.55v5.56h-6V74.49h-3.55Zm-13.54-5.47a2.77,2.77,0,0,1,2.76-2.77h.11a3.37,3.37,0,0,1,2.32.85v3.82a3.25,3.25,0,0,1-2.32.86,2.78,2.78,0,0,1-2.87-2.68v-.08M108.81,89h3.3V73.77l-3.34.72V78.6a5.64,5.64,0,1,0-2.9,10.5,5,5,0,0,0,2.94-.95ZM93.65,80.58a2.41,2.41,0,0,1,2.29,1.73H91.38a2.27,2.27,0,0,1,2.27-1.73M88,83.51a5.73,5.73,0,0,0,5.81,5.66H94a6.61,6.61,0,0,0,4.57-1.65l-2.21-2a3,3,0,0,1-2.19.82,2.84,2.84,0,0,1-2.69-1.73h7.79v-.84c0-3.47-2.34-6-5.52-6A5.61,5.61,0,0,0,88,83.36v.14m-5.76-6a1.64,1.64,0,0,1,.4,3.26,1.34,1.34,0,0,1-.4,0H78.74V77.53ZM75.19,89h3.55V83.68h2.7L84.17,89h4L85,83.17a4.37,4.37,0,0,0,2.73-4.07c0-2.6-2.05-4.61-5.11-4.61H75.18Z"/></svg>