<svg id="ab265187-d9e6-4e17-a527-f77d898db3ea" data-name="Layer 1" xmlns="http://www.w3.org/2000/svg" xmlns:xlink="http://www.w3.org/1999/xlink" viewBox="0 0 262 180">
  <defs>
    <style>
      .ab121e10-f84c-40c6-afa6-dfadb1f3de46 {
        fill: none;
      }

      .aee5ae2a-67e0-492d-b899-55b7264cdfe5 {
        fill: #fc0000;
      }

      .f64dd941-2094-4ffa-b114-020748f3e28b {
        fill: #fff;
      }

      .b91b6627-5b64-48eb-9d54-c1b36e7b1dd2 {
        fill: #d0d2d3;
      }

      .e836bc41-8d7e-49e8-900a-d7d6aa8f246e {
        fill: url(#afaba594-eeb1-4706-a0d0-1a943cc6ccb8);
      }

      .faa9625c-e903-4107-bc33-0cdd5354b441 {
        fill: red;
      }
    </style>
    <pattern id="afaba594-eeb1-4706-a0d0-1a943cc6ccb8" data-name="10 dpi 20%" width="28.8" height="28.801" patternTransform="translate(25.797 89.738) scale(0.162)" patternUnits="userSpaceOnUse" viewBox="0 0 28.8 28.801">
      <rect class="ab121e10-f84c-40c6-afa6-dfadb1f3de46" width="28.8" height="28.801"/>
      <g>
        <path class="aee5ae2a-67e0-492d-b899-55b7264cdfe5" d="M28.8,30.24A1.44,1.44,0,1,0,27.359,28.8,1.439,1.439,0,0,0,28.8,30.24Z"/>
        <path class="aee5ae2a-67e0-492d-b899-55b7264cdfe5" d="M14.4,30.24A1.44,1.44,0,1,0,12.96,28.8,1.44,1.44,0,0,0,14.4,30.24Z"/>
        <path class="aee5ae2a-67e0-492d-b899-55b7264cdfe5" d="M28.8,15.842A1.441,1.441,0,1,0,27.359,14.4,1.441,1.441,0,0,0,28.8,15.842Z"/>
        <path class="aee5ae2a-67e0-492d-b899-55b7264cdfe5" d="M14.4,15.842A1.441,1.441,0,1,0,12.96,14.4,1.443,1.443,0,0,0,14.4,15.842Z"/>
        <path class="aee5ae2a-67e0-492d-b899-55b7264cdfe5" d="M7.2,23.041A1.441,1.441,0,1,0,5.76,21.6,1.44,1.44,0,0,0,7.2,23.041Z"/>
        <path class="aee5ae2a-67e0-492d-b899-55b7264cdfe5" d="M21.6,23.041a1.441,1.441,0,1,0-1.44-1.439A1.44,1.44,0,0,0,21.6,23.041Z"/>
        <path class="aee5ae2a-67e0-492d-b899-55b7264cdfe5" d="M7.2,8.641A1.441,1.441,0,1,0,5.76,7.2,1.44,1.44,0,0,0,7.2,8.641Z"/>
        <path class="aee5ae2a-67e0-492d-b899-55b7264cdfe5" d="M21.6,8.641a1.441,1.441,0,1,0-1.44-1.44A1.441,1.441,0,0,0,21.6,8.641Z"/>
      </g>
      <g>
        <path class="aee5ae2a-67e0-492d-b899-55b7264cdfe5" d="M0,30.24A1.439,1.439,0,0,0,1.439,28.8,1.44,1.44,0,0,0,0,27.361,1.441,1.441,0,0,0-1.441,28.8,1.44,1.44,0,0,0,0,30.24Z"/>
        <path class="aee5ae2a-67e0-492d-b899-55b7264cdfe5" d="M0,15.842A1.441,1.441,0,0,0,1.439,14.4,1.44,1.44,0,0,0,0,12.961,1.441,1.441,0,0,0-1.441,14.4,1.442,1.442,0,0,0,0,15.842Z"/>
      </g>
      <g>
        <path class="aee5ae2a-67e0-492d-b899-55b7264cdfe5" d="M28.8,1.44A1.44,1.44,0,0,0,30.239,0,1.439,1.439,0,0,0,28.8-1.439,1.44,1.44,0,0,0,27.359,0,1.441,1.441,0,0,0,28.8,1.44Z"/>
        <path class="aee5ae2a-67e0-492d-b899-55b7264cdfe5" d="M14.4,1.44A1.441,1.441,0,0,0,15.84,0,1.44,1.44,0,0,0,14.4-1.439,1.438,1.438,0,0,0,12.96,0,1.439,1.439,0,0,0,14.4,1.44Z"/>
      </g>
      <path class="aee5ae2a-67e0-492d-b899-55b7264cdfe5" d="M0,1.44A1.44,1.44,0,0,0,1.439,0,1.439,1.439,0,0,0,0-1.439,1.44,1.44,0,0,0-1.441,0,1.441,1.441,0,0,0,0,1.44Z"/>
    </pattern>
  </defs>
  <g>
    <g>
      <rect class="f64dd941-2094-4ffa-b114-020748f3e28b" x="28.341" y="27.73" width="206.841" height="124.54"/>
      <path class="b91b6627-5b64-48eb-9d54-c1b36e7b1dd2" d="M235.181,27.73V152.27H28.341V27.73h206.84m.519-.518H27.822V152.788H235.7V27.212Z"/>
    </g>
    <g>
      <polygon class="aee5ae2a-67e0-492d-b899-55b7264cdfe5" points="50.82 71.289 53.983 71.289 53.983 74.22 57.437 71.289 67.848 71.289 67.848 61.001 50.82 61.001 50.82 71.289"/>
      <g>
        <polygon class="f64dd941-2094-4ffa-b114-020748f3e28b" points="80.322 65.478 75.688 65.478 75.688 69.773 70.628 65.478 55.374 65.478 55.374 50.406 80.322 50.406 80.322 65.478"/>
        <path class="aee5ae2a-67e0-492d-b899-55b7264cdfe5" d="M75.688,70.148a.377.377,0,0,1-.242-.089L70.49,65.853H55.374A.375.375,0,0,1,55,65.478V50.405a.375.375,0,0,1,.375-.375H80.322a.375.375,0,0,1,.375.375V65.478a.375.375,0,0,1-.375.375H76.063v3.92a.375.375,0,0,1-.375.375ZM55.749,65.1H70.628a.374.374,0,0,1,.242.089l4.443,3.771V65.478a.375.375,0,0,1,.375-.375h4.259V50.78h-24.2Z"/>
      </g>
      <polygon class="e836bc41-8d7e-49e8-900a-d7d6aa8f246e" points="80.322 65.478 75.688 65.478 75.688 69.773 70.628 65.478 63.096 65.478 72.601 56.321 74.433 56.321 80.322 50.406 80.322 65.478"/>
    </g>
    <g>
      <path d="M90.435,50.136h2.771a4.2,4.2,0,1,1,0,8.395H90.435Zm.923.84v6.716h1.9a3.359,3.359,0,1,0,0-6.716Z"/>
      <path d="M98.751,50.772a.6.6,0,0,1,.6-.6.594.594,0,0,1,.6.6.6.6,0,0,1-.6.6A.609.609,0,0,1,98.751,50.772ZM99.8,58.531h-.888V52.523H99.8Z"/>
      <path d="M101.031,55.5a3.016,3.016,0,0,1,3.023-3.082,2.977,2.977,0,0,1,1.895.707v-.6h.875v6.152c0,1.536-.924,2.387-2.591,2.387a4.709,4.709,0,0,1-2.35-.624l.383-.7a3.968,3.968,0,0,0,1.931.552c1.14,0,1.739-.552,1.739-1.608v-.8a2.914,2.914,0,0,1-1.906.7A3.011,3.011,0,0,1,101.031,55.5Zm3.07,2.3a2.26,2.26,0,0,0,1.835-.828v-2.95a2.3,2.3,0,0,0-1.835-.816,2.3,2.3,0,0,0,0,4.594Z"/>
      <path d="M108.183,50.772a.6.6,0,0,1,.6-.6.594.594,0,0,1,.6.6.6.6,0,0,1-.6.6A.61.61,0,0,1,108.183,50.772Zm1.044,7.759h-.887V52.523h.887Z"/>
      <path d="M111.483,53.279h-1.3v-.756h1.3V51l.876-.228v1.751h1.811v.756h-1.811V56.96c0,.648.264.9.923.9a2.144,2.144,0,0,0,.876-.156v.78a3.4,3.4,0,0,1-1.056.155c-1.043,0-1.619-.5-1.619-1.451Z"/>
      <path d="M114.8,56.828c0-1.127.924-1.835,2.4-1.835a3.9,3.9,0,0,1,1.764.408V54.61c0-.96-.552-1.452-1.6-1.452a3.987,3.987,0,0,0-1.883.528L115.143,53a5.109,5.109,0,0,1,2.3-.6c1.524,0,2.375.743,2.375,2.086v4.042h-.863v-.587a2.867,2.867,0,0,1-1.943.7C115.7,58.639,114.8,57.908,114.8,56.828Zm2.375,1.116a2.4,2.4,0,0,0,1.787-.7V56.121a2.936,2.936,0,0,0-1.739-.48c-.96,0-1.572.456-1.572,1.163C115.647,57.476,116.271,57.944,117.171,57.944Z"/>
      <path d="M122.2,58.531h-.888V50.136l.888-.2Z"/>
      <path d="M127.036,53.279h-1.3v-.756h1.3V51l.876-.228v1.751h1.811v.756h-1.811V56.96c0,.648.264.9.923.9a2.144,2.144,0,0,0,.876-.156v.78a3.408,3.408,0,0,1-1.056.155c-1.043,0-1.619-.5-1.619-1.451Z"/>
      <path d="M130.673,52.523h.887v.851a1.876,1.876,0,0,1,1.679-.983,1.64,1.64,0,0,1,.564.084v.815a1.95,1.95,0,0,0-.623-.108,1.7,1.7,0,0,0-1.62,1.236v4.113h-.887Z"/>
      <path d="M134.189,56.828c0-1.127.924-1.835,2.4-1.835a3.888,3.888,0,0,1,1.763.408V54.61c0-.96-.551-1.452-1.595-1.452a3.987,3.987,0,0,0-1.883.528L134.537,53a5.1,5.1,0,0,1,2.3-.6c1.523,0,2.375.743,2.375,2.086v4.042h-.864v-.587a2.865,2.865,0,0,1-1.943.7C135.089,58.639,134.189,57.908,134.189,56.828Zm2.375,1.116a2.394,2.394,0,0,0,1.787-.7V56.121a2.936,2.936,0,0,0-1.739-.48c-.96,0-1.571.456-1.571,1.163C135.041,57.476,135.665,57.944,136.564,57.944Z"/>
      <path d="M140.706,52.523h.888v.707a2.373,2.373,0,0,1,1.894-.827A2.213,2.213,0,0,1,145.8,54.73v3.8h-.875V54.909a1.582,1.582,0,0,0-1.68-1.727,1.865,1.865,0,0,0-1.654.924v4.425h-.888Z"/>
      <path d="M147.222,57.128a2.874,2.874,0,0,0,1.955.8c.959,0,1.63-.444,1.63-1.08,0-.515-.347-.8-1.115-.911l-1.044-.144c-1.2-.18-1.774-.707-1.774-1.619,0-1.007.935-1.751,2.255-1.751a3.837,3.837,0,0,1,2.362.791l-.468.6a3.375,3.375,0,0,0-1.942-.672c-.828,0-1.392.408-1.392,1,0,.515.325.767,1.116.888l1.044.144c1.2.167,1.8.707,1.8,1.63,0,1.044-1.055,1.835-2.434,1.835a3.657,3.657,0,0,1-2.531-.935Z"/>
      <path d="M153.389,52.523V51.384a1.661,1.661,0,0,1,1.859-1.824,2.328,2.328,0,0,1,.8.108v.792a2.3,2.3,0,0,0-.744-.12c-.708,0-1.043.336-1.043,1.067v1.116h1.787v.756h-1.787v5.252h-.875V53.279h-1.415v-.756Z"/>
      <path d="M159.5,52.4a3.125,3.125,0,1,1-3.07,3.118A3.062,3.062,0,0,1,159.5,52.4Zm2.183,3.118A2.193,2.193,0,1,0,159.5,57.86,2.232,2.232,0,0,0,161.679,55.521Z"/>
      <path d="M163.794,52.523h.888v.851a1.873,1.873,0,0,1,1.678-.983,1.64,1.64,0,0,1,.564.084v.815a1.95,1.95,0,0,0-.623-.108,1.7,1.7,0,0,0-1.619,1.236v4.113h-.888Z"/>
      <path d="M167.946,52.523h.888v.659A2.25,2.25,0,0,1,170.6,52.4a2.1,2.1,0,0,1,1.894,1.091,2.353,2.353,0,0,1,2.064-1.091,2.161,2.161,0,0,1,2.206,2.327v3.8h-.875V54.909a1.53,1.53,0,0,0-1.56-1.727,1.81,1.81,0,0,0-1.595.984,2.8,2.8,0,0,1,.06.564v3.8h-.875V54.909a1.528,1.528,0,0,0-1.547-1.727,1.752,1.752,0,0,0-1.535.876v4.473h-.888Z"/>
      <path d="M177.93,56.828c0-1.127.923-1.835,2.4-1.835a3.9,3.9,0,0,1,1.764.408V54.61c0-.96-.552-1.452-1.6-1.452a3.987,3.987,0,0,0-1.883.528L178.277,53a5.106,5.106,0,0,1,2.3-.6c1.523,0,2.375.743,2.375,2.086v4.042h-.863v-.587a2.868,2.868,0,0,1-1.944.7C178.829,58.639,177.93,57.908,177.93,56.828Zm2.375,1.116a2.4,2.4,0,0,0,1.787-.7V56.121a2.939,2.939,0,0,0-1.74-.48c-.96,0-1.571.456-1.571,1.163C178.781,57.476,179.405,57.944,180.305,57.944Z"/>
      <path d="M184.949,53.279h-1.3v-.756h1.3V51l.876-.228v1.751h1.811v.756h-1.811V56.96c0,.648.264.9.923.9a2.144,2.144,0,0,0,.876-.156v.78a3.408,3.408,0,0,1-1.056.155c-1.043,0-1.619-.5-1.619-1.451Z"/>
      <path d="M188.43,50.772a.6.6,0,0,1,.6-.6.594.594,0,0,1,.6.6.6.6,0,0,1-.6.6A.609.609,0,0,1,188.43,50.772Zm1.044,7.759h-.888V52.523h.888Z"/>
      <path d="M193.78,52.4a3.125,3.125,0,1,1-3.07,3.118A3.062,3.062,0,0,1,193.78,52.4Zm2.183,3.118a2.193,2.193,0,1,0-2.183,2.339A2.232,2.232,0,0,0,195.963,55.521Z"/>
      <path d="M198.078,52.523h.888v.707a2.374,2.374,0,0,1,1.894-.827,2.213,2.213,0,0,1,2.315,2.327v3.8H202.3V54.909a1.582,1.582,0,0,0-1.68-1.727,1.865,1.865,0,0,0-1.654.924v4.425h-.888Z"/>
      <path d="M207.09,50.772a.6.6,0,0,1,.6-.6.594.594,0,0,1,.6.6.6.6,0,0,1-.6.6A.609.609,0,0,1,207.09,50.772Zm1.044,7.759h-.888V52.523h.888Z"/>
      <path d="M209.574,57.128a2.876,2.876,0,0,0,1.955.8c.959,0,1.631-.444,1.631-1.08,0-.515-.348-.8-1.115-.911L211,55.8c-1.2-.18-1.776-.707-1.776-1.619,0-1.007.936-1.751,2.255-1.751a3.842,3.842,0,0,1,2.363.791l-.468.6a3.376,3.376,0,0,0-1.943-.672c-.828,0-1.391.408-1.391,1,0,.515.324.767,1.115.888l1.044.144c1.2.167,1.8.707,1.8,1.63,0,1.044-1.056,1.835-2.435,1.835a3.659,3.659,0,0,1-2.531-.935Z"/>
      <path d="M90.267,67.523h.888v.851a1.875,1.875,0,0,1,1.679-.983,1.634,1.634,0,0,1,.563.084v.815a1.947,1.947,0,0,0-.624-.108,1.7,1.7,0,0,0-1.618,1.236v4.113h-.888Z"/>
      <path d="M96.807,73.639a3.062,3.062,0,0,1-3.095-3.118,3.007,3.007,0,0,1,2.963-3.094,2.948,2.948,0,0,1,2.841,3.094V70.8H94.588a2.258,2.258,0,0,0,2.255,2.063,2.614,2.614,0,0,0,1.654-.552l.552.588A3.552,3.552,0,0,1,96.807,73.639Zm-2.2-3.549H98.63a2.014,2.014,0,0,0-4.019,0Z"/>
      <path d="M100.335,71.828c0-1.127.924-1.835,2.4-1.835a3.9,3.9,0,0,1,1.764.408V69.61c0-.96-.552-1.452-1.6-1.452a3.987,3.987,0,0,0-1.883.528L100.682,68a5.109,5.109,0,0,1,2.3-.6c1.524,0,2.375.743,2.375,2.086v4.042H104.5v-.587a2.867,2.867,0,0,1-1.943.695C101.234,73.639,100.335,72.908,100.335,71.828Zm2.375,1.116a2.4,2.4,0,0,0,1.787-.7V71.121a2.936,2.936,0,0,0-1.739-.48c-.96,0-1.572.456-1.572,1.163C101.186,72.476,101.81,72.944,102.71,72.944Z"/>
      <path d="M107.738,73.531h-.888v-8.4l.888-.2Z"/>
      <path d="M110.139,73.531h-.888v-8.4l.888-.2Z"/>
      <path d="M113.4,73.519l-2.447-6h.983l1.944,4.929,2.1-4.929h.96l-2.986,6.908c-.516,1.163-1.08,1.631-2.039,1.631a2.308,2.308,0,0,1-.564-.06v-.8a2,2,0,0,0,.5.048c.539,0,.911-.3,1.2-.935Z"/>
      <path d="M124.909,72.08l.552.6a3.359,3.359,0,0,1-2.327.959,3.119,3.119,0,0,1,0-6.236,3.415,3.415,0,0,1,2.35.947l-.563.648a2.469,2.469,0,0,0-1.776-.78,2.312,2.312,0,0,0,.013,4.618A2.45,2.45,0,0,0,124.909,72.08Z"/>
      <path d="M126.508,65.136l.887-.2v3.3a2.378,2.378,0,0,1,1.895-.827A2.212,2.212,0,0,1,131.6,69.73v3.8h-.875V69.909a1.581,1.581,0,0,0-1.679-1.727,1.867,1.867,0,0,0-1.655.924v4.425h-.887Z"/>
      <path d="M132.771,71.828c0-1.127.924-1.835,2.4-1.835a3.888,3.888,0,0,1,1.763.408V69.61c0-.96-.551-1.452-1.595-1.452a3.987,3.987,0,0,0-1.883.528L133.119,68a5.1,5.1,0,0,1,2.3-.6c1.523,0,2.375.743,2.375,2.086v4.042h-.864v-.587a2.865,2.865,0,0,1-1.943.695C133.671,73.639,132.771,72.908,132.771,71.828Zm2.375,1.116a2.394,2.394,0,0,0,1.787-.7V71.121a2.934,2.934,0,0,0-1.739-.48c-.96,0-1.571.456-1.571,1.163C133.623,72.476,134.247,72.944,135.146,72.944Z"/>
      <path d="M139.288,67.523h.888v.707a2.373,2.373,0,0,1,1.894-.827,2.213,2.213,0,0,1,2.315,2.327v3.8h-.875V69.909a1.582,1.582,0,0,0-1.68-1.727,1.865,1.865,0,0,0-1.654.924v4.425h-.888Z"/>
      <path d="M145.6,70.5a3.016,3.016,0,0,1,3.023-3.082,2.972,2.972,0,0,1,1.895.707v-.6h.875v6.152c0,1.536-.923,2.387-2.59,2.387a4.712,4.712,0,0,1-2.351-.624l.384-.7a3.965,3.965,0,0,0,1.931.552c1.139,0,1.739-.552,1.739-1.608v-.8a2.914,2.914,0,0,1-1.906.695A3.012,3.012,0,0,1,145.6,70.5Zm3.071,2.3a2.261,2.261,0,0,0,1.835-.828v-2.95a2.3,2.3,0,0,0-1.835-.816,2.3,2.3,0,0,0,0,4.594Z"/>
      <path d="M152.752,65.772a.6.6,0,0,1,.6-.6.594.594,0,0,1,.6.6.6.6,0,0,1-.6.6A.609.609,0,0,1,152.752,65.772Zm1.044,7.759h-.888V67.523h.888Z"/>
      <path d="M155.308,67.523h.888v.707a2.376,2.376,0,0,1,1.9-.827,2.212,2.212,0,0,1,2.314,2.327v3.8h-.875V69.909a1.582,1.582,0,0,0-1.68-1.727,1.867,1.867,0,0,0-1.654.924v4.425h-.888Z"/>
      <path d="M161.62,70.5a3.016,3.016,0,0,1,3.022-3.082,2.977,2.977,0,0,1,1.9.707v-.6h.875v6.152c0,1.536-.924,2.387-2.591,2.387a4.706,4.706,0,0,1-2.35-.624l.383-.7a3.969,3.969,0,0,0,1.932.552c1.139,0,1.738-.552,1.738-1.608v-.8a2.914,2.914,0,0,1-1.906.695A3.011,3.011,0,0,1,161.62,70.5Zm3.07,2.3a2.26,2.26,0,0,0,1.835-.828v-2.95a2.3,2.3,0,0,0-1.835-.816,2.3,2.3,0,0,0,0,4.594Z"/>
      <path d="M172.252,68.279h-1.3v-.756h1.3V66l.876-.228v1.751h1.81v.756h-1.81V71.96c0,.648.263.9.923.9a2.144,2.144,0,0,0,.876-.156v.78a3.408,3.408,0,0,1-1.056.155c-1.043,0-1.619-.5-1.619-1.451Z"/>
      <path d="M175.889,65.136l.887-.2v3.3a2.376,2.376,0,0,1,1.895-.827,2.212,2.212,0,0,1,2.314,2.327v3.8h-.875V69.909a1.581,1.581,0,0,0-1.679-1.727,1.867,1.867,0,0,0-1.655.924v4.425h-.887Z"/>
      <path d="M185.3,73.639a3.062,3.062,0,0,1-3.095-3.118,3.007,3.007,0,0,1,2.963-3.094,2.948,2.948,0,0,1,2.842,3.094V70.8h-4.929a2.258,2.258,0,0,0,2.255,2.063,2.614,2.614,0,0,0,1.654-.552l.552.588A3.552,3.552,0,0,1,185.3,73.639Zm-2.2-3.549h4.019a2.014,2.014,0,0,0-4.019,0Z"/>
      <path d="M192.928,73.531l-1.692-6.008h.875l1.3,4.8,1.5-4.8h.792l1.486,4.8,1.308-4.8h.84l-1.7,6.008h-.852l-1.487-4.809-1.5,4.809Z"/>
      <path d="M199.912,71.828c0-1.127.924-1.835,2.4-1.835a3.9,3.9,0,0,1,1.764.408V69.61c0-.96-.552-1.452-1.6-1.452a3.98,3.98,0,0,0-1.882.528L200.26,68a5.1,5.1,0,0,1,2.3-.6c1.524,0,2.375.743,2.375,2.086v4.042h-.863v-.587a2.865,2.865,0,0,1-1.943.695C200.811,73.639,199.912,72.908,199.912,71.828Zm2.375,1.116a2.394,2.394,0,0,0,1.787-.7V71.121a2.936,2.936,0,0,0-1.739-.48c-.96,0-1.571.456-1.571,1.163C200.764,72.476,201.388,72.944,202.287,72.944Z"/>
      <path d="M208.059,73.519l-2.447-6h.984l1.943,4.929,2.1-4.929h.96l-2.987,6.908c-.515,1.163-1.08,1.631-2.039,1.631a2.305,2.305,0,0,1-.563-.06v-.8a1.99,1.99,0,0,0,.5.048c.54,0,.912-.3,1.2-.935Z"/>
      <path d="M91.011,83.279h-1.3v-.756h1.3V81l.876-.228v1.751H93.7v.756h-1.81V86.96c0,.648.263.9.922.9a2.141,2.141,0,0,0,.876-.156v.78a3.4,3.4,0,0,1-1.055.155c-1.043,0-1.619-.5-1.619-1.451Z"/>
      <path d="M94.647,80.136l.888-.2v3.3a2.375,2.375,0,0,1,1.9-.827,2.212,2.212,0,0,1,2.314,2.327v3.8h-.875V84.909a1.582,1.582,0,0,0-1.68-1.727,1.866,1.866,0,0,0-1.654.924v4.425h-.888Z"/>
      <path d="M100.911,86.828c0-1.127.924-1.835,2.4-1.835a3.9,3.9,0,0,1,1.764.408V84.61c0-.96-.552-1.452-1.6-1.452a3.983,3.983,0,0,0-1.882.528L101.259,83a5.1,5.1,0,0,1,2.3-.6c1.524,0,2.375.743,2.375,2.086v4.042h-.863v-.587a2.865,2.865,0,0,1-1.943.695C101.81,88.639,100.911,87.908,100.911,86.828Zm2.375,1.116a2.394,2.394,0,0,0,1.787-.7V86.121a2.936,2.936,0,0,0-1.739-.48c-.96,0-1.571.456-1.571,1.163C101.763,87.476,102.387,87.944,103.286,87.944Z"/>
      <path d="M107.931,83.279h-1.3v-.756h1.3V81l.876-.228v1.751h1.81v.756h-1.81V86.96c0,.648.263.9.922.9a2.141,2.141,0,0,0,.876-.156v.78a3.4,3.4,0,0,1-1.055.155c-1.043,0-1.619-.5-1.619-1.451Z"/>
      <path d="M115.251,88.531l-1.692-6.008h.875l1.3,4.8,1.5-4.8h.792l1.487,4.8,1.307-4.8h.84l-1.7,6.008H119.1l-1.487-4.809-1.5,4.809Z"/>
      <path d="M125.282,88.639a3.062,3.062,0,0,1-3.095-3.118,3.007,3.007,0,0,1,2.963-3.094,2.948,2.948,0,0,1,2.842,3.094V85.8h-4.929a2.259,2.259,0,0,0,2.255,2.063,2.619,2.619,0,0,0,1.655-.552l.551.588A3.552,3.552,0,0,1,125.282,88.639Zm-2.195-3.549h4.018a2.013,2.013,0,0,0-4.018,0Z"/>
      <path d="M132.555,83.279h-1.3v-.756h1.3V81l.876-.228v1.751h1.81v.756h-1.81V86.96c0,.648.263.9.922.9a2.141,2.141,0,0,0,.876-.156v.78a3.4,3.4,0,0,1-1.055.155c-1.043,0-1.619-.5-1.619-1.451Z"/>
      <path d="M136.191,80.136l.888-.2v3.3a2.376,2.376,0,0,1,1.895-.827,2.212,2.212,0,0,1,2.314,2.327v3.8h-.875V84.909a1.582,1.582,0,0,0-1.68-1.727,1.866,1.866,0,0,0-1.654.924v4.425h-.888Z"/>
      <path d="M142.623,80.772a.6.6,0,0,1,.6-.6.594.594,0,0,1,.6.6.6.6,0,0,1-.6.6A.61.61,0,0,1,142.623,80.772Zm1.044,7.759h-.888V82.523h.888Z"/>
      <path d="M145.18,82.523h.887v.707a2.376,2.376,0,0,1,1.895-.827,2.212,2.212,0,0,1,2.314,2.327v3.8H149.4V84.909a1.581,1.581,0,0,0-1.679-1.727,1.867,1.867,0,0,0-1.655.924v4.425h-.887Z"/>
      <path d="M151.767,80.136l.888-.2v5.3l3.142-2.71h1.08l-3.3,2.854,3.454,3.154h-1.211l-3.166-2.878v2.878h-.888Z"/>
      <path d="M159.951,86.828c0-1.127.924-1.835,2.4-1.835a3.892,3.892,0,0,1,1.764.408V84.61c0-.96-.552-1.452-1.6-1.452a3.983,3.983,0,0,0-1.882.528L160.3,83a5.1,5.1,0,0,1,2.3-.6c1.524,0,2.375.743,2.375,2.086v4.042h-.863v-.587a2.865,2.865,0,0,1-1.943.695C160.85,88.639,159.951,87.908,159.951,86.828Zm2.375,1.116a2.394,2.394,0,0,0,1.787-.7V86.121a2.936,2.936,0,0,0-1.739-.48c-.96,0-1.571.456-1.571,1.163C160.8,87.476,161.427,87.944,162.326,87.944Z"/>
      <path d="M169.273,88.628a3.048,3.048,0,0,1-1.931-.7v.6h-.875v-8.4l.887-.2v3.226a2.739,2.739,0,0,1,1.931-.731,3.1,3.1,0,0,1-.012,6.2Zm-1.919-4.582V87.02a2.373,2.373,0,0,0,1.847.828,2.323,2.323,0,0,0,0-4.642A2.327,2.327,0,0,0,167.354,84.046Z"/>
      <path d="M176.352,82.4a3.125,3.125,0,1,1-3.07,3.118A3.061,3.061,0,0,1,176.352,82.4Zm2.183,3.118a2.193,2.193,0,1,0-2.183,2.339A2.232,2.232,0,0,0,178.535,85.521Z"/>
      <path d="M181.5,86.145a1.581,1.581,0,0,0,1.679,1.727,1.856,1.856,0,0,0,1.655-.936V82.523h.888v6.008h-.888v-.7a2.382,2.382,0,0,1-1.883.816,2.216,2.216,0,0,1-2.327-2.327v-3.8h.876Z"/>
      <path d="M187.981,83.279h-1.295v-.756h1.295V81l.876-.228v1.751h1.811v.756h-1.811V86.96c0,.648.264.9.923.9a2.144,2.144,0,0,0,.876-.156v.78a3.4,3.4,0,0,1-1.056.155c-1.043,0-1.619-.5-1.619-1.451Z"/>
      <path d="M194.2,80.136l.888-.2v3.3a2.374,2.374,0,0,1,1.894-.827A2.213,2.213,0,0,1,199.3,84.73v3.8h-.875V84.909a1.582,1.582,0,0,0-1.68-1.727,1.865,1.865,0,0,0-1.654.924v4.425H194.2Z"/>
      <path d="M203.58,82.4a3.125,3.125,0,1,1-3.07,3.118A3.062,3.062,0,0,1,203.58,82.4Zm2.183,3.118a2.193,2.193,0,1,0-2.183,2.339A2.232,2.232,0,0,0,205.763,85.521Z"/>
      <path d="M208.861,88.531l-1.691-6.008h.875l1.3,4.8,1.5-4.8h.792l1.486,4.8,1.308-4.8h.84l-1.7,6.008h-.851l-1.487-4.809-1.5,4.809Z"/>
      <path d="M91.371,103.531,89.68,97.523h.875l1.295,4.8,1.5-4.8h.792l1.487,4.8,1.307-4.8h.84l-1.7,6.008h-.851l-1.488-4.809-1.5,4.809Z"/>
      <path d="M101.4,103.639a3.062,3.062,0,0,1-3.094-3.118,3.007,3.007,0,0,1,2.962-3.094,2.948,2.948,0,0,1,2.842,3.094v.276H99.182a2.259,2.259,0,0,0,2.255,2.063,2.619,2.619,0,0,0,1.655-.552l.551.588A3.548,3.548,0,0,1,101.4,103.639Zm-2.195-3.549h4.018a2.013,2.013,0,0,0-4.018,0Z"/>
      <path d="M107.858,102.128a2.876,2.876,0,0,0,1.955.8c.959,0,1.631-.444,1.631-1.08,0-.515-.347-.8-1.115-.911l-1.044-.144c-1.2-.18-1.774-.707-1.774-1.619,0-1.007.935-1.751,2.255-1.751a3.837,3.837,0,0,1,2.362.791l-.468.6a3.375,3.375,0,0,0-1.942-.672c-.828,0-1.392.408-1.392,1,0,.515.324.767,1.115.888l1.044.144c1.2.167,1.8.707,1.8,1.63,0,1.044-1.056,1.835-2.435,1.835a3.659,3.659,0,0,1-2.531-.935Z"/>
      <path d="M116.136,97.4a3.125,3.125,0,1,1-3.071,3.118A3.061,3.061,0,0,1,116.136,97.4Zm2.182,3.118a2.193,2.193,0,1,0-2.182,2.339A2.232,2.232,0,0,0,118.318,100.521Z"/>
      <path d="M121.321,103.531h-.888v-8.4l.888-.2Z"/>
      <path d="M122.138,97.523h.983l2.052,4.857,2.051-4.857h.947l-2.591,6.008h-.84Z"/>
      <path d="M131.569,103.639a3.062,3.062,0,0,1-3.095-3.118,3.007,3.007,0,0,1,2.963-3.094,2.948,2.948,0,0,1,2.842,3.094v.276H129.35a2.259,2.259,0,0,0,2.255,2.063,2.619,2.619,0,0,0,1.655-.552l.551.588A3.55,3.55,0,0,1,131.569,103.639Zm-2.195-3.549h4.018a2.013,2.013,0,0,0-4.018,0Z"/>
      <path d="M138.1,97.523h.875v.648a2.742,2.742,0,0,1,1.943-.744,3.1,3.1,0,1,1-1.931,5.5v3.058H138.1Zm.887,1.523v2.974a2.373,2.373,0,0,0,1.847.828,2.323,2.323,0,0,0,0-4.642A2.327,2.327,0,0,0,138.986,99.046Z"/>
      <path d="M145.179,97.523h.887v.851a1.876,1.876,0,0,1,1.679-.983,1.631,1.631,0,0,1,.563.084v.815a1.941,1.941,0,0,0-.623-.108,1.7,1.7,0,0,0-1.619,1.236v4.113h-.887Z"/>
      <path d="M151.693,97.4a3.125,3.125,0,1,1-3.07,3.118A3.062,3.062,0,0,1,151.693,97.4Zm2.183,3.118a2.193,2.193,0,1,0-2.183,2.339A2.232,2.232,0,0,0,153.876,100.521Z"/>
      <path d="M158.8,103.628a3.05,3.05,0,0,1-1.932-.7v.6h-.875v-8.4l.888-.2v3.226a2.738,2.738,0,0,1,1.93-.731,3.1,3.1,0,0,1-.011,6.2Zm-1.919-4.582v2.974a2.371,2.371,0,0,0,1.846.828,2.323,2.323,0,0,0,0-4.642A2.326,2.326,0,0,0,156.879,99.046Z"/>
      <path d="M163.959,103.531h-.888v-8.4l.888-.2Z"/>
      <path d="M168.29,103.639a3.062,3.062,0,0,1-3.095-3.118,3.007,3.007,0,0,1,2.963-3.094A2.948,2.948,0,0,1,171,100.521v.276h-4.929a2.259,2.259,0,0,0,2.255,2.063,2.614,2.614,0,0,0,1.654-.552l.552.588A3.552,3.552,0,0,1,168.29,103.639ZM166.1,100.09h4.018a2.013,2.013,0,0,0-4.018,0Z"/>
      <path d="M172.239,97.523h.888v.659a2.25,2.25,0,0,1,1.763-.779,2.1,2.1,0,0,1,1.894,1.091,2.353,2.353,0,0,1,2.064-1.091,2.161,2.161,0,0,1,2.206,2.327v3.8h-.875V99.909a1.53,1.53,0,0,0-1.56-1.727,1.81,1.81,0,0,0-1.595.984,2.8,2.8,0,0,1,.06.564v3.8h-.875V99.909a1.528,1.528,0,0,0-1.547-1.727,1.752,1.752,0,0,0-1.535.876v4.473h-.888Z"/>
      <path d="M182.474,102.128a2.878,2.878,0,0,0,1.956.8c.959,0,1.63-.444,1.63-1.08,0-.515-.347-.8-1.115-.911L183.9,100.8c-1.2-.18-1.775-.707-1.775-1.619,0-1.007.935-1.751,2.255-1.751a3.837,3.837,0,0,1,2.362.791l-.468.6a3.375,3.375,0,0,0-1.942-.672c-.828,0-1.392.408-1.392,1,0,.515.324.767,1.115.888l1.044.144c1.2.167,1.8.707,1.8,1.63,0,1.044-1.055,1.835-2.434,1.835a3.661,3.661,0,0,1-2.532-.935Z"/>
      <path d="M188.749,102.992a.612.612,0,1,1-.611-.612A.614.614,0,0,1,188.749,102.992Z"/>
    </g>
    <g>
      <path class="faa9625c-e903-4107-bc33-0cdd5354b441" d="M91.006,116.384a2.428,2.428,0,0,0,1.66.714c.608,0,1-.238,1-.616,0-.337-.224-.5-.806-.6l-.973-.168c-.84-.14-1.282-.595-1.282-1.309,0-.918.743-1.485,1.933-1.485a3.405,3.405,0,0,1,2.024.686l-.546.757a2.489,2.489,0,0,0-1.547-.589c-.547,0-.9.217-.9.553,0,.3.2.456.7.533l.925.154c.981.161,1.463.623,1.463,1.379,0,.96-.805,1.569-2.065,1.569a3.249,3.249,0,0,1-2.171-.847Z"/>
      <path class="faa9625c-e903-4107-bc33-0cdd5354b441" d="M96.137,116.363a.717.717,0,0,0,.756.77.877.877,0,0,0,.756-.364V114.24h.96v3.649h-.96V117.6a1.553,1.553,0,0,1-1.029.364,1.389,1.389,0,0,1-1.442-1.456V114.24h.959Z"/>
      <path class="faa9625c-e903-4107-bc33-0cdd5354b441" d="M101.149,117.959a1.9,1.9,0,0,1-1.961-1.89,1.864,1.864,0,0,1,1.877-1.892,1.843,1.843,0,0,1,1.808,1.961v.252h-2.718a1.051,1.051,0,0,0,1.036.764,1.149,1.149,0,0,0,.806-.294l.631.574A2.185,2.185,0,0,1,101.149,117.959Zm-1-2.255h1.786a.941.941,0,0,0-.889-.735A.916.916,0,0,0,100.148,115.7Z"/>
      <path class="faa9625c-e903-4107-bc33-0cdd5354b441" d="M104.929,112.987h1.883a2.455,2.455,0,1,1,0,4.9h-1.883Zm1.015.9v3.1h.862a1.548,1.548,0,0,0,0-3.1Z"/>
      <path class="faa9625c-e903-4107-bc33-0cdd5354b441" d="M111.81,114.17a1.9,1.9,0,1,1-1.947,1.9A1.9,1.9,0,0,1,111.81,114.17Zm1.009,1.9a1.01,1.01,0,1,0-1.009,1.057A1.022,1.022,0,0,0,112.819,116.069Z"/>
      <path class="faa9625c-e903-4107-bc33-0cdd5354b441" d="M116.164,117.959a1.9,1.9,0,0,1-1.961-1.89,1.863,1.863,0,0,1,1.877-1.892,1.843,1.843,0,0,1,1.808,1.961v.252H115.17a1.051,1.051,0,0,0,1.036.764,1.152,1.152,0,0,0,.806-.294l.63.574A2.182,2.182,0,0,1,116.164,117.959Zm-1-2.255h1.786a.942.942,0,0,0-.89-.735A.916.916,0,0,0,115.163,115.7Z"/>
      <path class="faa9625c-e903-4107-bc33-0cdd5354b441" d="M90.838,124.678a2.3,2.3,0,0,0,1.716.812c.77,0,1.316-.4,1.316-.966,0-.5-.322-.75-1.128-.883l-.707-.112c-.945-.154-1.38-.546-1.38-1.24,0-.812.694-1.365,1.723-1.365a3.231,3.231,0,0,1,1.933.651L94,122a2.71,2.71,0,0,0-1.646-.609c-.7,0-1.176.35-1.176.861,0,.456.28.68.994.792l.7.112c1.071.175,1.533.581,1.533,1.345,0,.861-.77,1.463-1.877,1.463a2.768,2.768,0,0,1-2.052-.91Z"/>
      <path class="faa9625c-e903-4107-bc33-0cdd5354b441" d="M96.747,122.31a1.825,1.825,0,1,1-1.793,1.822A1.789,1.789,0,0,1,96.747,122.31Zm1.274,1.822a1.281,1.281,0,1,0-1.274,1.365A1.3,1.3,0,0,0,98.021,124.132Z"/>
      <path class="faa9625c-e903-4107-bc33-0cdd5354b441" d="M99.5,122.381v-.666a.97.97,0,0,1,1.086-1.064,1.353,1.353,0,0,1,.468.063v.462a1.335,1.335,0,0,0-.433-.07c-.413,0-.609.2-.609.623v.652h1.042v.44h-1.042v3.068H99.5v-3.068h-.826v-.44Z"/>
      <path class="faa9625c-e903-4107-bc33-0cdd5354b441" d="M102.121,122.821h-.756v-.44h.756v-.89l.512-.133v1.023h1.057v.44h-1.057v2.151c0,.378.154.525.539.525a1.247,1.247,0,0,0,.511-.091v.456a1.988,1.988,0,0,1-.616.09c-.609,0-.946-.294-.946-.847Z"/>
      <path class="faa9625c-e903-4107-bc33-0cdd5354b441" d="M104.957,125.889l-.988-3.508h.511l.757,2.8.875-2.8h.462l.869,2.8.763-2.8h.49l-.994,3.508h-.5l-.868-2.808-.876,2.808Z"/>
      <path class="faa9625c-e903-4107-bc33-0cdd5354b441" d="M109.03,124.9c0-.658.539-1.072,1.4-1.072a2.275,2.275,0,0,1,1.029.238V123.6c0-.56-.322-.847-.932-.847a2.311,2.311,0,0,0-1.1.308l-.2-.4a2.975,2.975,0,0,1,1.345-.351c.89,0,1.387.435,1.387,1.219v2.36h-.5v-.343a1.67,1.67,0,0,1-1.135.406C109.556,125.952,109.03,125.525,109.03,124.9Zm1.387.651a1.4,1.4,0,0,0,1.044-.406v-.658a1.71,1.71,0,0,0-1.016-.281c-.56,0-.918.266-.918.68C109.527,125.273,109.891,125.546,110.417,125.546Z"/>
      <path class="faa9625c-e903-4107-bc33-0cdd5354b441" d="M112.832,122.381h.518v.5a1.094,1.094,0,0,1,.981-.575.981.981,0,0,1,.329.049v.477a1.138,1.138,0,0,0-.364-.063.993.993,0,0,0-.946.721v2.4h-.518Z"/>
      <path class="faa9625c-e903-4107-bc33-0cdd5354b441" d="M116.647,125.952a1.787,1.787,0,0,1-1.806-1.82,1.756,1.756,0,0,1,1.729-1.808,1.722,1.722,0,0,1,1.66,1.808v.161h-2.879a1.32,1.32,0,0,0,1.318,1.2,1.528,1.528,0,0,0,.966-.322l.322.343A2.077,2.077,0,0,1,116.647,125.952Zm-1.281-2.073h2.346a1.175,1.175,0,0,0-2.346,0Z"/>
      <path class="faa9625c-e903-4107-bc33-0cdd5354b441" d="M120.553,120.987h3.508v.476h-2.969v1.716h1.94v.469h-1.94v1.765h3v.476h-3.537Z"/>
      <path class="faa9625c-e903-4107-bc33-0cdd5354b441" d="M124.766,122.381h.519v.413a1.384,1.384,0,0,1,1.106-.484,1.293,1.293,0,0,1,1.352,1.359v2.22h-.512v-2.115a.923.923,0,0,0-.98-1.008,1.09,1.09,0,0,0-.966.539v2.584h-.519Z"/>
      <path class="faa9625c-e903-4107-bc33-0cdd5354b441" d="M128.448,124.117a1.761,1.761,0,0,1,1.765-1.8,1.734,1.734,0,0,1,1.106.413v-.35h.512v3.592c0,.9-.539,1.394-1.513,1.394a2.756,2.756,0,0,1-1.373-.364l.225-.406a2.312,2.312,0,0,0,1.127.322c.666,0,1.015-.322,1.015-.939v-.469a1.7,1.7,0,0,1-1.113.406A1.758,1.758,0,0,1,128.448,124.117Zm1.793,1.345a1.32,1.32,0,0,0,1.071-.483v-1.723a1.346,1.346,0,0,0-1.071-.476,1.342,1.342,0,0,0,0,2.682Z"/>
      <path class="faa9625c-e903-4107-bc33-0cdd5354b441" d="M132.62,121.358a.351.351,0,0,1,.35-.35.347.347,0,0,1,.35.35.351.351,0,0,1-.35.35A.356.356,0,0,1,132.62,121.358Zm.609,4.531h-.518v-3.508h.518Z"/>
      <path class="faa9625c-e903-4107-bc33-0cdd5354b441" d="M134.111,122.381h.519v.413a1.384,1.384,0,0,1,1.106-.484,1.293,1.293,0,0,1,1.352,1.359v2.22h-.512v-2.115a.923.923,0,0,0-.98-1.008,1.09,1.09,0,0,0-.966.539v2.584h-.519Z"/>
      <path class="faa9625c-e903-4107-bc33-0cdd5354b441" d="M139.6,125.952a1.787,1.787,0,0,1-1.806-1.82,1.757,1.757,0,0,1,1.729-1.808,1.722,1.722,0,0,1,1.66,1.808v.161H138.3a1.319,1.319,0,0,0,1.317,1.2,1.528,1.528,0,0,0,.966-.322l.322.343A2.077,2.077,0,0,1,139.6,125.952Zm-1.281-2.073h2.346a1.175,1.175,0,0,0-2.346,0Z"/>
      <path class="faa9625c-e903-4107-bc33-0cdd5354b441" d="M143.555,125.952a1.787,1.787,0,0,1-1.807-1.82,1.757,1.757,0,0,1,1.729-1.808,1.723,1.723,0,0,1,1.661,1.808v.161h-2.879a1.319,1.319,0,0,0,1.317,1.2,1.526,1.526,0,0,0,.966-.322l.322.343A2.074,2.074,0,0,1,143.555,125.952Zm-1.282-2.073h2.346a1.175,1.175,0,0,0-2.346,0Z"/>
      <path class="faa9625c-e903-4107-bc33-0cdd5354b441" d="M145.857,122.381h.519v.5a1.093,1.093,0,0,1,.98-.575.981.981,0,0,1,.329.049v.477a1.138,1.138,0,0,0-.364-.063.991.991,0,0,0-.945.721v2.4h-.519Z"/>
      <path class="faa9625c-e903-4107-bc33-0cdd5354b441" d="M148.188,121.358a.351.351,0,0,1,.35-.35.347.347,0,0,1,.351.35.352.352,0,0,1-.351.35A.356.356,0,0,1,148.188,121.358Zm.61,4.531h-.519v-3.508h.519Z"/>
      <path class="faa9625c-e903-4107-bc33-0cdd5354b441" d="M149.68,122.381h.518v.413a1.386,1.386,0,0,1,1.107-.484,1.292,1.292,0,0,1,1.351,1.359v2.22h-.512v-2.115a.923.923,0,0,0-.98-1.008,1.09,1.09,0,0,0-.966.539v2.584h-.518Z"/>
      <path class="faa9625c-e903-4107-bc33-0cdd5354b441" d="M153.361,124.117a1.761,1.761,0,0,1,1.765-1.8,1.734,1.734,0,0,1,1.106.413v-.35h.512v3.592c0,.9-.539,1.394-1.513,1.394a2.756,2.756,0,0,1-1.373-.364l.225-.406a2.315,2.315,0,0,0,1.127.322c.666,0,1.015-.322,1.015-.939v-.469a1.7,1.7,0,0,1-1.113.406A1.759,1.759,0,0,1,153.361,124.117Zm1.793,1.345a1.32,1.32,0,0,0,1.071-.483v-1.723a1.344,1.344,0,0,0-1.071-.476,1.342,1.342,0,0,0,0,2.682Z"/>
      <path class="faa9625c-e903-4107-bc33-0cdd5354b441" d="M159.731,121.61v4.279h-.5v-4.9h.757l1.674,3.48,1.667-3.48h.756v4.9h-.511V121.6l-1.919,3.936Z"/>
      <path class="faa9625c-e903-4107-bc33-0cdd5354b441" d="M164.8,124.9c0-.658.539-1.072,1.4-1.072a2.272,2.272,0,0,1,1.029.238V123.6c0-.56-.322-.847-.931-.847a2.318,2.318,0,0,0-1.1.308l-.2-.4a2.975,2.975,0,0,1,1.345-.351c.889,0,1.386.435,1.386,1.219v2.36h-.5v-.343a1.666,1.666,0,0,1-1.134.406C165.323,125.952,164.8,125.525,164.8,124.9Zm1.386.651a1.4,1.4,0,0,0,1.044-.406v-.658a1.707,1.707,0,0,0-1.015-.281c-.561,0-.918.266-.918.68C165.3,125.273,165.659,125.546,166.184,125.546Z"/>
      <path class="faa9625c-e903-4107-bc33-0cdd5354b441" d="M168.6,122.381h.519v.413a1.386,1.386,0,0,1,1.106-.484,1.293,1.293,0,0,1,1.352,1.359v2.22h-.512v-2.115a.923.923,0,0,0-.98-1.008,1.09,1.09,0,0,0-.966.539v2.584H168.6Z"/>
      <path class="faa9625c-e903-4107-bc33-0cdd5354b441" d="M172.253,124.9c0-.658.539-1.072,1.4-1.072a2.272,2.272,0,0,1,1.029.238V123.6c0-.56-.322-.847-.931-.847a2.318,2.318,0,0,0-1.1.308l-.2-.4a2.975,2.975,0,0,1,1.345-.351c.889,0,1.386.435,1.386,1.219v2.36h-.5v-.343a1.666,1.666,0,0,1-1.134.406C172.778,125.952,172.253,125.525,172.253,124.9Zm1.387.651a1.4,1.4,0,0,0,1.043-.406v-.658a1.707,1.707,0,0,0-1.015-.281c-.561,0-.918.266-.918.68C172.75,125.273,173.114,125.546,173.64,125.546Z"/>
      <path class="faa9625c-e903-4107-bc33-0cdd5354b441" d="M175.893,124.117a1.761,1.761,0,0,1,1.765-1.8,1.739,1.739,0,0,1,1.107.413v-.35h.511v3.592c0,.9-.539,1.394-1.512,1.394a2.75,2.75,0,0,1-1.373-.364l.224-.406a2.315,2.315,0,0,0,1.127.322c.666,0,1.016-.322,1.016-.939v-.469a1.7,1.7,0,0,1-1.114.406A1.759,1.759,0,0,1,175.893,124.117Zm1.793,1.345a1.322,1.322,0,0,0,1.072-.483v-1.723a1.348,1.348,0,0,0-1.072-.476,1.342,1.342,0,0,0,0,2.682Z"/>
      <path class="faa9625c-e903-4107-bc33-0cdd5354b441" d="M181.8,125.952a1.787,1.787,0,0,1-1.807-1.82,1.757,1.757,0,0,1,1.729-1.808,1.723,1.723,0,0,1,1.661,1.808v.161h-2.879a1.319,1.319,0,0,0,1.317,1.2,1.526,1.526,0,0,0,.966-.322l.322.343A2.072,2.072,0,0,1,181.8,125.952Zm-1.282-2.073h2.346a1.175,1.175,0,0,0-2.346,0Z"/>
      <path class="faa9625c-e903-4107-bc33-0cdd5354b441" d="M184.1,122.381h.519v.5a1.093,1.093,0,0,1,.98-.575.981.981,0,0,1,.329.049v.477a1.134,1.134,0,0,0-.364-.063.992.992,0,0,0-.945.721v2.4H184.1Z"/>
    </g>
  </g>
</svg>
