<svg xmlns="http://www.w3.org/2000/svg" xmlns:xlink="http://www.w3.org/1999/xlink" width="555" height="440" viewBox="0 0 555 440"><defs><style>.a,.av{fill:none;}.b{fill:#e2eaf6;}.c{fill:#fff;}.d{fill:#316dc1;}.e{clip-path:url(#a);}.f{fill:#6c97d3;}.g{fill:#5f0000;}.h{fill:#8f0000;}.i{fill:#e00;}.j{fill:#be0000;}.k{clip-path:url(#b);}.l{fill:#dedede;}.m{clip-path:url(#c);}.n{clip-path:url(#d);}.o{clip-path:url(#e);}.p{clip-path:url(#f);}.q{clip-path:url(#g);}.r{fill:#fab6b6;}.s{fill:#261a4c;}.t{clip-path:url(#h);}.u{fill:#5e40be;}.v{fill:#fddbdb;}.w{clip-path:url(#i);}.x{clip-path:url(#j);}.y{clip-path:url(#k);}.z{clip-path:url(#l);}.aa{fill:#382672;}.ab{clip-path:url(#m);}.ac{clip-path:url(#n);}.ad{fill:#f56d6d;}.ae{clip-path:url(#o);}.af{clip-path:url(#p);}.ag{fill:#4b3398;}.ah{clip-path:url(#q);}.ai{clip-path:url(#r);}.aj{clip-path:url(#s);}.ak{clip-path:url(#t);}.al{clip-path:url(#u);}.am{fill:#f3f3f3;}.an{fill:#4cb6d6;}.ao{fill:#037a9e;}.ap{fill:#fab890;}.aq{clip-path:url(#v);}.ar{fill:#93d3e6;}.as{fill:#f7823c;}.at{fill:#dbf0f7;}.au{clip-path:url(#w);}.av{stroke:#e00;}</style><clipPath id="a"><path class="a" d="M407.847,381.28c2.5,2.049,9.343,2.544,12.871.723,0,0,1.127-31.659-5.47-42.926,0,0,3.528-23.557,3.755-28.337a23.37,23.37,0,0,0,1.139-11.039c-.91-5.918-14.681-4.668-20.713-3.869s-16.388.228-15.477,7.853,4.836,24.579,5.178,27.256,2.722,6.828,3.007,7.8,4.887,15.3,5.34,16.556,2.028,24.9,2.028,24.9,5.33.4,8.232-.626Z"/></clipPath><clipPath id="b"><path class="a" d="M378.296,267.9521c-.19,2.314-1.021,8.725-1.138,11.646-2.163,1.214-11.987,12.8-12.936,13.367s-4.741-.834-5.235-.834a18.3411,18.3411,0,0,0-3.793,1.859c-.53.379-1.631,3.452-1.631,3.793s-.161.607.3.834.91-.265,1.176-.607a22.0742,22.0742,0,0,1,1.783-2.58,8.2087,8.2087,0,0,1,5.311.341s-2.077.91-2.874,1.138-.835.759-.8,1.021a1.2761,1.2761,0,0,0,1.365.7c.759-.1,2-.286,2.494-.286a15.0744,15.0744,0,0,0,3.186-.038c.8-.228,1.29-1.138,1.594-1.252s12.708-3.846,20.106-13.455c0,0,2.087-4.73,2.125-7.992s.455-5.387-.228-6.487S382.09,264.8461,378.296,267.9521Z"/></clipPath><clipPath id="c"><path class="a" d="M421.901,301.0121c-7-24.427-2.959-47.57-5.689-54.171s-10.47-7.17-16.842-5.406-12.045,5.349-12.936,7.056-7.378,9.846-8,11.949-.8,8.934-1.764,14a20.3261,20.3261,0,0,1,7.226,1.707,15.9652,15.9652,0,0,0,.968,3.13s-2.731,6.942-2.334,26.573a62.4016,62.4016,0,0,0,21.281.32C417.114,304.2651,421.901,301.0121,421.901,301.0121Z"/></clipPath><clipPath id="d"><path class="a" d="M385.824,294.9511c-.13.453-6.126,1.795-6.544,2.489-.511.853-.967,4.595-1.167,6.644a1.5821,1.5821,0,0,0,2.134.569s.711,1.052,2.589.54a3.5744,3.5744,0,0,0,2.475-.284s1.707-.37,1.992-.91a10.5441,10.5441,0,0,0,.313-2.049c.0851-.114,2.532-.768,2.731-1.365s.1711-2.5891.4-2.844a108.9407,108.9407,0,0,0,8.337-8.023c3.355-3.784,9.588-11.58,10.7-14.709,0,0,2.6451-2.3,4.7511-12.319s-12.86-7.568-13.4-3.442-.967,6.145-1.507,13.087C396.011,275.9751,386.479,292.6751,385.824,294.9511Z"/></clipPath><clipPath id="e"><path class="a" d="M386.627,247.04s1.933,6.266,5.633,10.049c0,0,7.7-15.559,7.4-16.328-2.249-2.216-5.17-4.32-5.72-6.223C393.926,233.1091,386.627,247.04,386.627,247.04Z"/></clipPath><clipPath id="f"><path class="a" d="M394.93,259.7011a23.6379,23.6379,0,0,1-2.959.853s-.395-11.278,2.959-16.217,6.2-3.322,6.2-3.322Z"/></clipPath><clipPath id="g"><path class="a" d="M399.282,264.4621a103.1492,103.1492,0,0,0,2.95-16.654,7.6,7.6,0,0,1,2.125-4.894c3.949-3.193,9.819-1.1,11.855,3.926,2.144,5.292-1.475,13.41-2.143,21.111a10.81,10.81,0,0,0-6.336-3.831C403.484,263.2471,401.037,263.7411,399.282,264.4621Z"/></clipPath><clipPath id="h"><path class="a" d="M200.872,191.261a132.0159,132.0159,0,0,0-1.085-30.079c1.508-17.085,0-33.455,0-42.639s-6.606-13.822-8.757-13.822-10.726,4.3-10.8,15.129c-.059,9.286,4.7651,25.608,7.884,40.365,2.816,13.309,4.669,22.935,4.467,31.565C193.882,191.997,198.77,192.596,200.872,191.261Z"/></clipPath><clipPath id="i"><path class="a" d="M206.1031,190.901c-.861-2.8-1.794-13.567-3.3-17.013s-5.886-8.47-6.173-9.547,14.7171-35.246,14.214-42.712-3.724-16.008-7.1-16.869-14.073,12.2-15.366,25.124-5.384,31.011-4.881,33.81,16.4391,26.778,16.367,29.073-5.312,7.25-8.04,9.188-5.4551,4.379-.933,5.527,14.539-4.9,17.107-8.632C210.216,195.621,206.965,193.7,206.1031,190.901Z"/></clipPath><clipPath id="j"><path class="a" d="M205.704,186.778c-.1949,2.617-4.6219,3.99-6.916,3.276-4.959-9.274-14.9-24.128-15.3-26.359-.5-2.8,3.589-20.889,4.881-33.81s11.988-25.986,15.366-25.124,6.6,9.4,7.1,16.869-14.5,41.635-14.214,42.712,4.666,6.1,6.173,9.547C203.79,176.147,205.704,186.778,205.704,186.778Z"/></clipPath><clipPath id="k"><path class="a" d="M194.69,83.547s-2.745,14.976-4.9,18.1-13.836,11.294-16.151,12.374-3.068,2.423-5.061.43-.323-3.551-.323-3.551,12.576-9.283,13.274-10.736,4.435-18.645,5.417-20.871c.808-1.83,4.359-3.409,5.2-3.841a35.348,35.348,0,0,0,3.235-2.247"/></clipPath><clipPath id="l"><path class="a" d="M194.991,73.781a27.0286,27.0286,0,0,1-3.235,1.279c-.837.426-4.389,2.01-5.2,3.841-.981,2.226-4.525,19.61-5.223,21.064a16.5233,16.5233,0,0,1-2.8,2.716l-4.475,3.669c1.927-.374,4.475,2.928,3.936,5.01l2.234-1.492c3.943-2.715,8.32-6.047,9.557-7.839,2.154-3.125,4.9-18.485,4.9-18.485"/></clipPath><clipPath id="m"><path class="a" d="M193.828,67.018c.093,1.046.464,5.414-.116,6.407s-3.222,2.225-3.222,2.225-2.154,4.343-1.112,6.1,8.721,1.687,10.7,0,4.6839-8.2,7.322-9.691,2.189-2.512,1.634-2.684-6.051-1.207-6.23-5.015a24.69,24.69,0,0,1,1-7.538s-5.3421-2.724-8.789,2.308C193.3979,61.491,193.74,65.973,193.828,67.018Z"/></clipPath><clipPath id="n"><path class="a" d="M215.291,76.333c0-2.943.718-4.953-7.4659-7.322-4.252.269-5.437,8.129-9.3941,10.983s-6.758.808-7.473,0c-.551-.622.548-3.494.714-4.684-.209.129-.391.2-.6.32a5.3151,5.3151,0,0,0-2.557,3.025c-1.666,5.268-4.746,9.484-5.379,11.89-.717,2.727,1.217,4.953,1.575,9.045s-6.173,19.884-6.173,19.884c16.726,9.619,33.81,3.087,33.81,3.087s-3.446-9.619-3.374-14.931S215.291,79.276,215.291,76.333Z"/></clipPath><clipPath id="o"><path class="a" d="M209.808,69.637h0c-.595-.207-1.2519-.415-1.982-.626-4.2531.269-5.438,8.129-9.3941,10.983s-6.758.808-7.473,0c-.55-.622.549-3.494.71-4.684-.2069.129-.479.246-.692.37a5.0711,5.0711,0,0,0-2.466,2.975c-1.666,5.268-4.746,9.484-5.38,11.89-.717,2.728,1.216,4.953,1.575,9.045.163,1.862,5.286,2.912,10.88,3.23l-7.68,4.447c1.421-.409,4.669,2.1,3.142,4.913,10.494-3.772,19.2-8.913,20.1639-10.383,1.131-1.723,5.7071-21.535,5.7071-26S212.883,70.518,209.808,69.637Z"/></clipPath><clipPath id="p"><path class="a" d="M107.216,200.747c-2.153-.754-3.983-2.176-3.876-5.907s4.092-8.524,6.568-11.214,3.5511-3.823,3.5-5.061-.516-8.281,1.3141-8.291c1.0549-.006,4.275,9.368,4.262,10.095-.034,1.522-1.776,1.373-2.8,2.423s-2.207,6.353-3.876,8.83S107.216,200.747,107.216,200.747Z"/></clipPath><clipPath id="q"><path class="a" d="M113.732,190.86a3.8182,3.8182,0,0,0-3.1581-.825c-8.86,1.45-5.671,11.091-3.3,12.167h14.642s6.18-2.692,6.18-8.722-3.808-7.918-9.623-7.05a8.6861,8.6861,0,0,0-7.214,5.564"/></clipPath><clipPath id="r"><path class="a" d="M146.325,196.89c2.441,2.477,6.606,6.606,6.961,6.748a14.6279,14.6279,0,0,0,4.558.969,39.4955,39.4955,0,0,1,4.845.213c.8259.142,4.2349.79,4.7739.79a5,5,0,0,0,3.3-1.328c.237-.284.151-.467.151-.467s1.144-.269,1.211-.841a.71.71,0,0,0-.355-.761.9159.9159,0,0,0,.43-.734c-.0139-.465-.573-.71-.573-.71s.539-.37.505-.747a1.4,1.4,0,0,0-.895-1.023,6.7441,6.7441,0,0,0-1.9879.229c-.444.155-1.2281.462-1.371.48s-.682-.245-.915-.269c-1.041-.108-2.513,1.4-3.051,1.492s-6.766-2.423-8.737-3a42.459,42.459,0,0,0-4.576-5.6C148.442,190.286,146.325,196.89,146.325,196.89Z"/></clipPath><clipPath id="s"><path class="a" d="M138.259,189.685c.328-1.671,1.248-4.644.672-4.926-1.9-.933-1.543,1.005-5.993,1.472a5.6122,5.6122,0,0,0-3.686,2.023c-1.648-.083-3.05-.294-3.05-.294-10.6841.186-13.274,11.444-10.37,14.673,1.185-.862,15.129,0,20.62,0s9.708-1.176,9.2059-5.438C145.297,194.111,142.648,191.357,138.259,189.685Z"/></clipPath><clipPath id="t"><path class="a" d="M153.012,180.336a.5541.5541,0,0,1,.35.94,3.34,3.34,0,0,0-.961,1.515c-.4261,1.712.491,2.524.474,2.9a1.344,1.344,0,0,1-1.652.79,6.2834,6.2834,0,0,0,.2,1.472s-.5.467-.771.467c0,0,.089.7-.142.862a1.0248,1.0248,0,0,1-.826.146s-.305,1.2-.969,1.379-2.512.06-4.612-2.223,2.817-6.948,2.817-6.948l4.738-1.421Z"/></clipPath><clipPath id="u"><path class="a" d="M154.704,202.747a.9148.9148,0,0,0-.832-.544h-1.4459a5.3262,5.3262,0,0,0-1.9.18c-1.651.5-1.651,2.692-3.8759,2.907a27.8343,27.8343,0,0,1-7.269-.718,13.7989,13.7989,0,0,0-3.823-.538c-.316-.773-.3061-2.009-.173-5.682a7.734,7.734,0,0,0-5.726-3.956,1.175,1.175,0,0,0-1.286,1.052v.01c-.31,3.5-.322,6.2.819,13.1a1.5768,1.5768,0,0,0,1.142,1.263,29.1791,29.1791,0,0,0,7.344.781c6.138.036,11.737-1.543,12.886-1.579s3.948-.43,4.307-.79C155.2051,207.894,155.987,205.585,154.704,202.747Z"/></clipPath><clipPath id="v"><path class="a" d="M392.665,125.056c0-2.994,5.534-6.545,5.2541-11.288,0,0,2.38-1.3,3.291-1.752,3.812-1.877,4.242-4.928,1.185-7.173a29.0079,29.0079,0,0,1-4.678-4.179,10.6976,10.6976,0,0,0,1-1.747,49.7915,49.7915,0,0,1,3.011-4.525,27.5806,27.5806,0,0,1-6.8-.188,10.6817,10.6817,0,0,1-7.848-5.778c-1.209-2.4-2.5511-5.339-2.759-6.9a59.987,59.987,0,0,0,9.674-15.758c3.5709-8.82,9.5519-15.41,14.3759-16.56a.217.217,0,0,0,.089-.381c-.484-.393-1.452-1.206-2.883-2.539-2.145-2-9.445-4.081-11.6-4.631a19.55,19.55,0,0,0-19.7,6.045c-2.3549,2.587-3.307,5.94-3.947,6.29-1.706.926-4.437,3.106-4.582,10.742-.135,7.016-4.534,4.99-1.934,12.218a22.53,22.53,0,0,1,.468,5.491c0,1.248-3.221,1.787-3.221,1.787-5.9229,5.377-15.077,4.9-17.219,5.963s-2.141,1.067-2.6859,1.72c-1.2751,1.53-.7651,2.329-.7651,2.329l6.779-1.874a9.5571,9.5571,0,0,1,11.2881,5.273,24.654,24.654,0,0,1,1.081,2.963c2.994,10.043,4.179,17.84,9.544,22.393a11.1638,11.1638,0,0,0,2.3709,9.052c3.1,3.63,1.311,5.233,3.15,5.731s3.4-.187,5.956,2.994,6.177,2.557,6.4249,1.372-.544-6.514.811-8.546,4.866-5.551,4.866-8.546"/></clipPath><clipPath id="w"><path class="a" d="M369.231,162.003c5.313-.092,3.96,1.076,7.37,1.853,3.136.713,13.82-.865,15.847-1.2,1.36-.225,9.944,2.435,12.174,2.049.472-.081.594-1.082-.312-1.629a7.9,7.9,0,0,0,4.387,1.123s1.482-.46.648-1.548c1.1191-.371.847-.668.67-1.169-.325-.92-16.211-10.389-18.1-10.084-.61.1-13.518,2.3-14.16,2.2-.674-.1-2.987-.674-7.123-1.629C370.633,151.975,367.72,155.664,369.231,162.003Z"/></clipPath></defs><ellipse class="b" cx="419.362" cy="385.4701" rx="35.146" ry="3.058"/><ellipse class="b" cx="423.8427" cy="389.9983" rx="19.7149" ry="4.8947" transform="translate(-62.9559 82.1535) rotate(-10.31)"/><path d="M372.705,385.7171a.2.2,0,0,1-.2-.2h0v-81.7a.2035.2035,0,0,1,.407,0v81.7a.2.2,0,0,1-.2.2Z"/><rect x="334.675" y="298.4331" width="15.401" height="1.745"/><path class="c" d="M328.402,302.7731h59.215v-2.594H322.285"/><path d="M387.822,302.9761H328.403a.2.2,0,0,1-.2-.2h0a.2.2,0,0,1,.2-.2h59.015v-2.188H322.286a.2.2,0,0,1-.2-.2h0a.2.2,0,0,1,.2-.2h65.537Z"/><path d="M414.922,383.25a2.042,2.042,0,0,1-1.848,2.815c-5.256.1-14.222-.057-14.929,0-.776.068-7.792.3-13.391.106a2.0422,2.0422,0,0,1-1.965-2.085h0a2.0421,2.0421,0,0,1,1.323-1.861c3.581-1.34,13.4-5.032,13.957-5.488a2.088,2.088,0,0,0,.469-1.3081,2.0489,2.0489,0,0,1,1.969-1.8l8.883-.33a2.0419,2.0419,0,0,1,1.963,1.264Z"/><path d="M421.2,388.5741c-.875,1.1-1.9,3.983-3.6,4.78s-7.094,2.2761-11.873.645l-.3-1.823.456-.5239a2.39,2.39,0,0,1,.417-2.586c1.1-1.214,4.325-3,4.817-10.091s6.107-2.5,6.828-1.365S421.427,383.9071,421.2,388.5741Z"/><path class="d" d="M408.863,381.2811c2.5,2.049,8.085,1.823,11.612,0,0,0,1.366-30.935-5.235-42.2,0,0,3.528-23.557,3.755-28.337a23.37,23.37,0,0,0,1.138-11.039c-.91-5.918-14.681-4.668-20.713-3.869s-16.388.228-15.477,7.853,6.145,35.052,6.145,35.052,5.6,28.1,3.889,34.587l.6261,4.827s11.1779.391,14.076-.633Z"/><g class="e"><path d="M382.926,307.6431c12.063,2,34.445-.209,41.8-5.285l-1.442-5.083s-44.517,6.221-45.825,4.324S382.926,307.6431,382.926,307.6431Z"/><path d="M411.299,300.24c1.67,3.484,1.9,7.2.607,14.409,0,0,2.188,15.932.828,25.871,0,0,6.219,7.963,5.324,34.191a3.6639,3.6639,0,0,1-2.15,3.224,13.3114,13.3114,0,0,1-8.931.583v3.92s8.5,4.157,14.795,0c0,0,1.442-35.5481-4.173-43.2871,0,0,6.828-24.278,4.78-40.2859Z"/><path d="M401.422,373.6721c0-13.809-3.249-27.235-6.738-33.608,0,0-1.366-18.436-.455-27.465,0,0,1.9,18.675,4.1,26.939,0,0,10.357,28.858,10.566,40.833l-6.194-.571-.454-1.081-2.136-.341-.114-3.651Z"/></g><path class="f" d="M411.375,310.7721a.202.202,0,0,1-.073-.012c-2.87-1.049-4.515-3.731-4.515-7.361a.204.204,0,0,1,.408,0h0c0,3.5,1.508,5.981,4.248,6.978a.2029.2029,0,0,1-.068.4h0Z"/><path class="g" d="M353.535,295.7151s3.953,2.02,6.627,1.85l3.414-1.677-.853-1.677-4.58-.74-4.21.825Z"/><path class="h" d="M351.572,298.2811c.569.2,1.138-.6,1.308-.858s1.622-2.3,2.02-2.39,5.548-.8,5.548-.8l-1.917-1.979s-4.315.755-4.628.954a14.876,14.876,0,0,0-2.334,2.5,14.5023,14.5023,0,0,0-.37,1.5939C351.174,297.6781,351.003,298.0811,351.572,298.2811Z"/><path class="g" d="M351.754,298.5131a.761.761,0,0,1-.251-.043h0a.7822.7822,0,0,1-.54-.965l0-.001a.1559.1559,0,0,1,.014-.045c.008-.057.016-.113.021-.169a9.9,9.9,0,0,1,.3-1.333c.031-.117.059-.219.077-.292a13.8712,13.8712,0,0,1,2.421-2.626,45.0794,45.0794,0,0,1,4.7-.983l.106-.019,2.272,2.345-.4.055c-1.778.246-5.224.729-5.533.794a12.5312,12.5312,0,0,0-1.9,2.3C352.622,298.1771,352.17,298.5131,351.754,298.5131Zm-.116-.427c.28.1.681-.193,1.072-.779.015-.023,1.61-2.361,2.147-2.48.34-.073,3.938-.574,5.164-.744l-1.562-1.612c-2.011.354-4.225.786-4.449.908a15.7438,15.7438,0,0,0-2.243,2.383c-.018.073-.047.178-.078.3a10.0636,10.0636,0,0,0-.285,1.258c-.005.064-.014.129-.023.193-.047.341-.047.464.257.57Z"/><path class="i" d="M353.907,293.4081a.2041.2041,0,0,1-.115-.373,45.157,45.157,0,0,1,4.7-.983.2031.2031,0,0,1,.071.4c-2.042.357-4.329.8-4.556.927A.2106.2106,0,0,1,353.907,293.4081Z"/><path class="j" d="M378.296,267.9511c-.19,2.314-1.021,8.725-1.138,11.646-2.163,1.214-11.987,12.8-12.936,13.367s-4.741-.834-5.235-.834a18.3411,18.3411,0,0,0-3.793,1.859c-.53.379-1.631,3.452-1.631,3.793s-.161.607.3.834.91-.265,1.176-.607a22.0742,22.0742,0,0,1,1.783-2.58,8.2087,8.2087,0,0,1,5.311.341s-2.077.91-2.874,1.138-.835.758-.8,1.021a1.2761,1.2761,0,0,0,1.365.7c.759-.1,2-.286,2.494-.286a15.0744,15.0744,0,0,0,3.186-.038c.8-.228,1.29-1.138,1.594-1.252s12.708-3.846,20.106-13.455c0,0,2.087-4.73,2.125-7.992s.455-5.387-.228-6.487S382.09,264.8451,378.296,267.9511Z"/><g class="k"><path class="g" d="M366.909,297.1081a11.4376,11.4376,0,0,1,1.96-3.157c1.793-2.173,10.728-5.622,11.722-7.336,1.139-1.963,1.507-5.008.683-8.679a8.8441,8.8441,0,0,1,.768-6.231l6.089,2.844.341,9.19-1.021,4.353S367.82,299.382,366.0271,299.24,366.909,297.1081,366.909,297.1081Z"/><path class="g" d="M384.318,277.6541a11.782,11.782,0,0,0-6.973-2.712v-1.21s5.579-.146,6.973,1.3a1.7058,1.7058,0,0,1,.215,2.4A1.729,1.729,0,0,1,384.318,277.6541Z"/></g><path class="i" d="M353.865,298.8211a.2006.2006,0,0,1-.09-.02.7.7,0,0,1-.431-.83,1.6482,1.6482,0,0,0,.014-.187,10.9119,10.9119,0,0,1,.631-1.958,6.1123,6.1123,0,0,1,1.086-2,18.0414,18.0414,0,0,1,3.912-1.9,6.6724,6.6724,0,0,1,1.163.278c1.177.33,3.369.948,3.968.583.344-.206,2.181-2.232,4.126-4.376,3.249-3.583,7.272-8.023,8.716-8.933.082-1.889.446-5.152.74-7.783.175-1.57.326-2.925.395-3.761a.2.2,0,0,1,.2118-.1875l.0062,0h0a.2.2,0,0,1,.1876.2117l-.0006.0073c-.069.841-.219,2.2-.4,3.773-.3,2.677-.67,6.009-.742,7.864v.114l-.1.056c-1.291.725-5.58,5.4559-8.712,8.91a53.8093,53.8093,0,0,1-4.218,4.454c-.691.4149-2.423-.02-4.287-.543a8.849,8.849,0,0,0-1.052-.263,18.8589,18.8589,0,0,0-3.675,1.823,12.8672,12.8672,0,0,0-1.546,3.628,2.1076,2.1076,0,0,1-.015.23c-.025.2339-.032.3.2.421a.2.2,0,0,1-.09.386Z"/><path class="g" d="M359.649,298.8531a1.4242,1.4242,0,0,1-1.386-.89,1.109,1.109,0,0,1,.942-1.249c.948-.271,3.251-1.189,3.5-1.686a.2039.2039,0,1,1,.366.18c-.386.783-3.32,1.776-3.75,1.9-.608.174-.689.53-.651.8a1.1161,1.1161,0,0,0,1.138.53c.181-.023.389-.051.608-.081a18.7685,18.7685,0,0,1,1.912-.206c.124,0,.322.011.575.025a10.4966,10.4966,0,0,0,2.553-.055,3.268,3.268,0,0,0,1.755-2.211.2.2,0,0,1,.2295-.1654l.0075.0014h0a.2.2,0,0,1,.1645.23l-.0015.0079a3.6279,3.6279,0,0,1-2.042,2.529,10.4473,10.4473,0,0,1-2.691.073c-.236-.013-.438-.024-.552-.024-.365,0-1.191.112-1.857.2l-.611.082A1.696,1.696,0,0,1,359.649,298.8531Z"/><path class="h" d="M380.021,300.0431c-1.195.256-5.159.446-5.272-.8s4.121-1.147,5.743-1.944c.635-.312,3.989-.073,3.812.656C384.097,298.7751,380.021,300.0431,380.021,300.0431Z"/><path class="b" d="M421.902,301.0121c-7-24.427-2.959-47.57-5.689-54.171s-10.47-7.17-16.842-5.406-12.045,5.349-12.936,7.056-7.378,9.846-8,11.949-.8,8.934-1.764,14a20.3261,20.3261,0,0,1,7.226,1.707,15.9652,15.9652,0,0,0,.968,3.13s-2.731,6.942-2.334,26.573a62.4016,62.4016,0,0,0,21.281.32C417.115,304.2651,421.902,301.0121,421.902,301.0121Z"/><path class="l" d="M414.069,267.9511c-.38.379-2.949.313-2.949.313l2.334-2.76Z"/><path class="l" d="M411.647,268.4741c-.219,0-.406,0-.533-.007a.2.2,0,0,1-.15-.336l2.334-2.76a.2036.2036,0,0,1,.352.079l.616,2.447a.2.2,0,0,1-.053.194A5.5255,5.5255,0,0,1,411.647,268.4741Zm-.094-.408a8.6524,8.6524,0,0,0,2.283-.206l-.485-1.921Z"/><g class="m"><path class="f" d="M383.75,306.0521c14.889,1.038,31.083-1.176,31.69-6.229s-3.109-40.835-.7-49.46-10.794-9.635-14.892-7.585l1.063-4.73,14.87-2.389,10.01,12.227-.456,39.45.759,15.738S387.939,311.1111,383.75,306.0521Z"/><path class="f" d="M380.458,267.7421a23.8314,23.8314,0,0,1,3.433,8.4l-1.517,1.479-1.916-.948a19.2112,19.2112,0,0,0,.438-4.157A26.4884,26.4884,0,0,0,380.458,267.7421Z"/></g><path class="l" d="M399.281,264.4951c.3-.444,2.837-.866,2.837-.866s2.495,3.865,0,2.771S399.281,264.4951,399.281,264.4951Z"/><path class="l" d="M402.829,266.7991a2.1325,2.1325,0,0,1-.791-.212c-2.5-1.094-2.9-1.923-2.943-2.014a.2.2,0,0,1,.019-.193c.324-.48,2.356-.851,2.972-.954a.2.2,0,0,1,.2.09c.365.57,1.527,2.48,1,3.095A.5841.5841,0,0,1,402.829,266.7991Zm-3.282-2.272a6.9325,6.9325,0,0,0,2.653,1.687c.481.211.721.2.78.133.213-.249-.317-1.467-.962-2.5a9.9663,9.9663,0,0,0-2.471.675Z"/><path class="j" d="M385.826,294.9511c-.13.453-6.126,1.795-6.544,2.489-.511.853-.967,4.595-1.167,6.643a1.5821,1.5821,0,0,0,2.134.569s.711,1.052,2.589.54a3.5744,3.5744,0,0,0,2.475-.284s1.707-.37,1.992-.91a10.5441,10.5441,0,0,0,.313-2.049c.085-.114,2.532-.768,2.731-1.365s.171-2.589.4-2.844a108.9407,108.9407,0,0,0,8.337-8.023c3.355-3.784,9.588-11.58,10.7-14.709,0,0,2.645-2.3,4.751-12.319s-12.86-7.568-13.4-3.442-.9669,6.145-1.507,13.087C396.012,275.9751,386.48,292.6751,385.826,294.9511Z"/><g class="n"><path class="g" d="M378.656,298.5531a1.2819,1.2819,0,0,1,1.109-.357.8565.8565,0,0,1,.471.228.49.49,0,0,0,.576.066,1.1364,1.1364,0,0,1,.688-.15,1.3,1.3,0,0,1,.781.365.4841.4841,0,0,0,.593.063,1.8177,1.8177,0,0,1,1.016-.372,1.5454,1.5454,0,0,1,.92.4.5111.5111,0,0,0,.579.087,1.3332,1.3332,0,0,1,.7-.146c.578.047.683.37.875.36s1.859-.559,2.125-1.252a3.37,3.37,0,0,1,1.033-1.783c.626-.455,7.877-6.064,10.55-9.877s6.577-9.554,6.691-10.351-.228-1.365,0-1.935,3.585-5.835,4.695-10.84c1.352-6.1,3.813-5,3.813-5s-1.313,14.733-3.785,19.113-18.152,19.09-19.4,20.513-.74,3.812-2.133,4.5-1.337,2.248-2.588,2.674-8.393,2.76-10.186,0S378.656,298.5531,378.656,298.5531Z"/><path class="g" d="M399.672,266.5281c.565-.656,2.028-1.85,5.955-1.224a12.8765,12.8765,0,0,1,6.515,3.243l1.309-3.044s-4.438-4.752-8.194-4.382a25.2737,25.2737,0,0,0-6.259,1.366Z"/></g><path class="j" d="M386.626,247.04s1.933,6.266,5.633,10.049c0,0,7.7-15.355,7.4-16.123s-5.777-4.785-5.72-6.428C393.925,233.1091,386.626,247.04,386.626,247.04Z"/><path class="j" d="M399.664,241.1111s-1.111-1.259-3.615-3.7c0,0-.569-9.446-.834-10.812s-3.3-6.335-7.207-6.449-6.018.645-9.165,2.917-4.642,7.36-4.642,7.36-.3,5.311.038,5.766,1.858,1.1,2.01,1.4c0,0-1.115,4.254-.223,4.974a1.9,1.9,0,0,0,2.157.185,5.4727,5.4727,0,0,0-.073,2.011c.23.38,1.442.493,1.442.493a3.67,3.67,0,0,0-.265,1.4,3.733,3.733,0,0,1,.569,1.327c.152.759.189,2.162,1.062,2.352s9.863-1.593,12.519-4.438Z"/><g class="o"><path class="g" d="M389.752,246.2151c1.442,1.669,1.442,4.1-.379,7.322,0,0-3-4.668-3.3-6.335S389.752,246.2151,389.752,246.2151Z"/><path class="g" d="M394.872,233.2021c-.066.777-.953-1.8-1.478-.656s.612,3.874,1.677,5.56a21.2257,21.2257,0,0,1,3.642,5.377,8.061,8.061,0,0,0,1.47-3.661C400.221,238.1341,394.872,233.2021,394.872,233.2021Z"/></g><path class="f" d="M392.194,257.2971s-4.435-6.113-5.762-6.833c0,0-1.146,2.874-1.507,3.917l-.3-.114s.237-3.879.921-4.9a5.04,5.04,0,0,1,1.782-1.555,41.2169,41.2169,0,0,0,4.935,9.282Z"/><path class="b" d="M394.93,259.7011a23.6379,23.6379,0,0,1-2.959.853s-.395-11.278,2.959-16.217,6.2-3.322,6.2-3.322Z"/><g class="p"><path class="f" d="M400.401,241.6391s-.656-.748-1.459-1.561c.219-.3.344-.464.344-.464L397.38,237.3a55.1435,55.1435,0,0,0-3.318,6.9,22.7937,22.7937,0,0,0-1.37,2.956l.3.187q-.1089.387-.2.772a61.6572,61.6572,0,0,0-1.176,12.442l.691-.073s-.121-7.512,1.889-12.18c.025-.057.05-.114.073-.17l3.328,2.067S399.263,243.0541,400.401,241.6391Z"/></g><path class="g" d="M392.687,230.2541c1.582,0,1.354,2.273,1.176,3.815s-.379,2.065-.91,2.216-1.1-.583-1.328-1.152.066-1.92-.275-2.375S390.829,230.2541,392.687,230.2541Z"/><path class="b" d="M398.894,249.1361s1.67-7.141,2.807-8.559a30.0371,30.0371,0,0,0-3-2.974s-3.615,5.376-4.715,8.487a36.9453,36.9453,0,0,1,4.9,3.046Z"/><path d="M382.363,244.6781a3.3584,3.3584,0,0,0-2.326-.8c-1.92-.064-2,.694-2,.694a2.9236,2.9236,0,0,1,.072-1.539c1.3-.849,2.957-.4,4.078.1a1.7721,1.7721,0,0,0,2.2-.624,55.1,55.1,0,0,0,3.848-6.491,9.8593,9.8593,0,0,0-1.1-3.72c-.683-.948-4.362-.8-4.78-1.518s.341-3.509,0-3.964c-.645.455-8.156,3.623-8.156,3.623a3.04,3.04,0,0,1-.608-1.214c-.073-.569,1.9-3.869,5.046-6.145a13.2566,13.2566,0,0,1,9.37-2.917c3.907.117,6.943,5.083,7.208,6.449s.834,10.807.834,10.807c-1.7-1.66-2.086-2.214-2.807-5.387-.41-1.8-1.527-2.869-2.626-1.655-2.2,2.428,1.43,8.1,1.906,9.811s.986,4.779-1.021,6.98c-2.626,2.873-9.711,3.376-10.584,3.186s-.91-1.593-1.063-2.352a3.6679,3.6679,0,0,0-.569-1.327C381.274,247.0121,382.363,244.6781,382.363,244.6781Z"/><path class="i" d="M392.051,283.6241a.206.206,0,0,1-.178-.308h0c1.561-2.607,5.4-8.869,7.549-11.073.409-5.23.76-7.7,1.13-10.321.12-.842.243-1.714.373-2.7a.2017.2017,0,1,1,.4.052h0c-.13.992-.254,1.864-.374,2.708-.372,2.626-.723,5.1-1.133,10.369l-.006.073-.052.053c-1.483,1.494-4.23,5.521-7.5419,11.049a.2.2,0,0,1-.171.1Z"/><path class="b" d="M399.282,264.4621a103.1492,103.1492,0,0,0,2.95-16.654,7.6,7.6,0,0,1,2.125-4.894c3.949-3.193,9.819-1.1,11.855,3.926,2.144,5.292-1.475,13.41-2.143,21.111a10.81,10.81,0,0,0-6.336-3.831C403.484,263.2471,401.038,263.7411,399.282,264.4621Z"/><circle cx="379.5" cy="236.6271" r="0.882"/><path class="j" d="M380.989,235.2531a5.6884,5.6884,0,0,0-3.034,1.7,1.88,1.88,0,0,1,3.034-1.7Z"/><path d="M377.954,237.1561a.2.2,0,0,1-.171-.313,4.823,4.823,0,0,1,3.379-1.792.2.2,0,0,1,.2319.1619l.0011.0071h0a.2.2,0,0,1-.1621.2317l-.0079.0013a4.53,4.53,0,0,0-3.1,1.6A.2051.2051,0,0,1,377.954,237.1561Z"/><path d="M376.74,235.3931a8.15,8.15,0,0,1,1.084-.812,9.7859,9.7859,0,0,1,1.185-.652,5.6983,5.6983,0,0,1,.65-.261c.029-.009.065-.018.1-.026a.4675.4675,0,0,0,.052-.012l.073-.009a.6816.6816,0,0,1,.105,0h.086c.115,0,.228.008.34.018a6.3691,6.3691,0,0,1,1.336.234.2036.2036,0,1,1-.076.4h0c-.429-.035-.86-.06-1.29-.077l-.321-.009h-.081a.3007.3007,0,0,0-.06,0h-.01a.059.059,0,0,0-.028.007.4549.4549,0,0,1-.063.015,5.3062,5.3062,0,0,0-.583.223c-.2.088-.39.181-.5829.281s-.3841.2-.5721.3a12.6268,12.6268,0,0,0-1.0939.691h0a.2.2,0,0,1-.28-.04l-.004-.0056h0A.2.2,0,0,1,376.74,235.3931Z"/><path class="h" d="M377.166,243.2691a1.7735,1.7735,0,0,1-1.285-.547c-.691-.691-.325-2.507,0-4.111a6.0273,6.0273,0,0,0,.233-1.88.2037.2037,0,0,1,.351-.207h0c.181.3.061.952-.183,2.169-.272,1.353-.645,3.209-.109,3.742a1.51,1.51,0,0,0,1.9.16.2036.2036,0,0,1,.227.338A2.1155,2.1155,0,0,1,377.166,243.2691Z"/><path class="h" d="M379.983,241.4491a.2.2,0,0,1-.177-.307h0a.6927.6927,0,0,0,.073-.574.4646.4646,0,0,0-.3-.284.8166.8166,0,0,0-.694.124.5471.5471,0,0,0-.265.409.2042.2042,0,0,1-.408-.016h0a.948.948,0,0,1,.438-.729,1.2217,1.2217,0,0,1,1.056-.174.8747.8747,0,0,1,.557.528,1.1,1.1,0,0,1-.1.923.2.2,0,0,1-.17.1Z"/><path class="h" d="M379.547,245.4711a.2008.2008,0,0,1-.036-.4h0c.115-.02.248-.042.39-.066a4.8654,4.8654,0,0,0,1.386-.343.2041.2041,0,1,1,.269.307h0a3.9337,3.9337,0,0,1-1.588.438c-.139.023-.27.044-.382.064A.2117.2117,0,0,1,379.547,245.4711Z"/><path class="h" d="M381.861,305.5391a2.2346,2.2346,0,0,1-1.673-.643,1.7771,1.7771,0,0,1-2.252-.717l-.029-.054.006-.061c.1-.978.6-5.9,1.2-6.742a.2.2,0,0,1,.2782-.0512l.0058.0042h0a.2.2,0,0,1,.0512.2781l-.0042.0059c-.391.546-.845,3.634-1.123,6.4779a1.391,1.391,0,0,0,1.846.4271l.154-.064.093.138c.026.036.668.921,2.366.4579l.056-.015.056.015a3.3939,3.3939,0,0,0,2.321-.268l.055-.02c.671-.146,1.689-.492,1.855-.806a4.6012,4.6012,0,0,0,.23-1.449c.026-.416.036-.541.1-.626s.134-.107.636-.285c.535-.189,1.954-.69,2.065-1.021a8.0678,8.0678,0,0,0,.168-1.365c.073-.948.119-1.381.271-1.552a.2.2,0,0,1,.2817-.0255l.0063.0055h0a.2.2,0,0,1,.0216.282l-.0026.003a6.25,6.25,0,0,0-.172,1.313,7.6917,7.6917,0,0,1-.188,1.462c-.161.482-1.187.88-2.315,1.279-.163.058-.344.122-.438.16-.011.088-.021.253-.03.392a4.6829,4.6829,0,0,1-.276,1.615c-.3.578-1.743.929-2.1,1.009a3.7565,3.7565,0,0,1-2.546.3,3.8779,3.8779,0,0,1-.979.133Z"/><path class="h" d="M380.249,304.8571a.2.2,0,0,1-.2-.188,37.9675,37.9675,0,0,1,.209-3.962.2009.2009,0,0,1,.4.039h0a38.93,38.93,0,0,0-.209,3.891.2.2,0,0,1-.18.2184l-.0073.0006h0Z"/><path class="h" d="M382.839,305.3981a.2.2,0,0,1-.2-.191c-.085-1.353.078-4.146.085-4.264a.2.2,0,0,1,.2076-.1921l.0025,0h.009a.2.2,0,0,1,.1914.2081l0,.0079h0c0,.028-.168,2.886-.085,4.214a.2.2,0,0,1-.18.2184l-.0073.0006h0Z"/><path class="h" d="M385.313,305.1131a.2.2,0,0,1-.2-.157,25.8631,25.8631,0,0,1-.271-4,.2035.2035,0,1,1,.407,0,26.2285,26.2285,0,0,0,.26,3.907.2.2,0,0,1-.1426.2442l-.0074.0018h0A.2145.2145,0,0,1,385.313,305.1131Z"/><g class="q"><path class="f" d="M410.951,266.6241c3-7.132,5.409-13.249,3.23-20.039s-14.338-4.216-14.338-4.216.3-3.538,1.29-4.322,14.05-1.012,15.749,5.324,3.078,13.76-2.391,26.891Z"/></g><path class="f" d="M403.807,306.3731a.2036.2036,0,0,1-.03-.406h0a69.6011,69.6011,0,0,0,14-3.282,22.9023,22.9023,0,0,0,3.89-1.763c-4.267-14.98-4.4-29.4-4.5-39.932-.06-6.458-.106-11.56-1.145-14.069a.2042.2042,0,0,1,.377-.157h0c1.068,2.583,1.114,7.465,1.176,14.222.1,10.548.23,24.992,4.522,39.971l.041.141-.123.083c-.2.133-4.978,3.3-18.18,5.19Z"/><path class="f" d="M391.971,260.7581a.2059.2059,0,0,1-.205-.194c0-.082-.389-8.2,2.032-14.547a.2.2,0,0,1,.2554-.1217.19.19,0,0,1,.0266.0117,35.4581,35.4581,0,0,1,4.938,3.063.2038.2038,0,1,1-.246.325,35.37,35.37,0,0,0-4.668-2.925c-2.068,5.6-1.978,12.516-1.935,13.916l2.144-.583a.2.2,0,0,1,.2472.1374l.0018.0066h0a.2.2,0,0,1-.1374.2472l-.0066.0018h0l-2.391.648A.2037.2037,0,0,1,391.971,260.7581Z"/><path class="f" d="M393.793,258.2641a.8485.8485,0,1,1,.001,0Zm0-1.289a.438.438,0,1,0-.0418.875c.0139.0006.0279.0006.0418,0h0a.437.437,0,0,0,.438-.436v-.002h0a.438.438,0,0,0-.438-.438h0Z"/><path class="f" d="M414.069,268.1551a.205.205,0,0,1-.167-.086,10.7,10.7,0,0,0-6.21-3.749c-4.449-.913-6.789-.3-8.332.33a.205.205,0,0,1-.274-.252,64.121,64.121,0,0,0,2.657-13.579.2049.2049,0,0,1,.218-.191h0a.2.2,0,0,1,.1915.2081l0,.0079h0a63.8207,63.8207,0,0,1-2.553,13.274,14.9333,14.9333,0,0,1,8.169-.2,10.91,10.91,0,0,1,6.46,3.914.2.2,0,0,1-.161.319Z"/><rect x="334.675" y="298.4331" width="38.381" height="1.745"/><path d="M350.077,298.4521h-15.4l-9.336-18.284h15.4Z"/><path d="M350.077,298.4521h-15.4s-1.88-5.083,2.569-7.738,3.5-10.546,3.5-10.546Z"/><path class="j" d="M391.957,229.6c1.582,0,1.805,2.273,1.626,3.814s-.379,2.065-.91,2.216-1.1-.379-1.327-.948a17.0025,17.0025,0,0,0-.683-2.58C390.322,231.6481,390.098,229.6011,391.957,229.6Z"/><path class="j" d="M375.138,230.4761a.2.2,0,0,1-.083-.39c.054-.024,5.4-2.413,7.867-3.869a.2042.2042,0,0,1,.207.352h0c-2.485,1.468-7.856,3.865-7.91,3.891A.2009.2009,0,0,1,375.138,230.4761Z"/><path class="f" d="M408.89,380.5771a.2.2,0,0,1-.2-.2h0c-.207-11.8049-10.451-40.478-10.554-40.77-2.184-8.2-4.089-26.8-4.107-26.985a.2.2,0,0,1,.1738-.2231l.0083-.0009a.2.2,0,0,1,.2227.1744l0,.0026v.005c.019.187,1.92,18.754,4.091,26.907.1.273,10.365,29.011,10.575,40.882a.2.2,0,0,1-.1929.2069l-.0071,0Z"/><path class="i" d="M379.281,297.6451a.2.2,0,0,1-.165-.323c.3-.423,1.532-.812,3.521-1.4a21.53,21.53,0,0,0,2.824-.958.204.204,0,0,1,.1841.364,21.2177,21.2177,0,0,1-2.892.985,11.7981,11.7981,0,0,0-3.305,1.247A.2062.2062,0,0,1,379.281,297.6451Z"/><path class="r" d="M200.425,195.652a131.1534,131.1534,0,0,0-.6391-34.47c1.5081-17.085,0-33.455,0-42.639s-6.6059-13.822-8.7579-13.822-10.726,4.3-10.8,15.129c-.059,9.286,4.766,25.608,7.884,40.365,3.757,17.757,6.25,33.5,5.231,35.425-1.9,3.581-11.943,5.135-11.943,7.322,0,1.077,12.849,0,18.808,0C202.443,202.96,200.425,195.652,200.425,195.652Z"/><path class="s" d="M200.8719,191.261a132.01,132.01,0,0,0-1.0849-30.079c1.508-17.085,0-33.455,0-42.639s-6.606-13.822-8.758-13.822-10.725,4.3-10.8,15.129c-.059,9.286,4.765,25.608,7.8839,40.365,2.816,13.309,4.67,22.576,4.467,31.565C193.882,191.997,198.77,192.596,200.8719,191.261Z"/><g class="t"><path d="M195.122,204.252c1.184-2.853,1.721-11.342.426-14.859s-4.9539-5.671-5.8859-7.825-5.026-27.514-5.6-32.3c-1.005-8.4,5.384-16.271,4.666-18.688,0,0,11.733,13.448,12.543,22.278s2.245,28.355,2.245,28.355l-3.438,22.612Z"/></g><path class="u" d="M196.571,192.298a26.6373,26.6373,0,0,1-4.015-.33l-.164-.028v-.167c.194-7.847-1.421-17.131-4.463-31.52-.914-4.321-1.983-8.808-3.016-13.152-2.529-10.628-4.918-20.666-4.875-27.255a.1919.1919,0,0,1,.192-.192h.001a.193.193,0,0,1,.192.193h0c-.042,6.542,2.344,16.558,4.865,27.162,1.034,4.344,2.1,8.836,3.018,13.161,3.029,14.315,4.643,23.592,4.475,31.442,2.074.332,6.192.621,7.983-.516a.1934.1934,0,1,1,.208.326h0A8.8068,8.8068,0,0,1,196.571,192.298Z"/><path class="b" d="M227.102,202.458c0,1.358-10.2,2.46-22.792,2.46s-22.9-.373-22.9-1.731,10.314-3.188,22.9-3.188S227.102,201.102,227.102,202.458Z"/><ellipse class="b" cx="200.5072" cy="204.359" rx="11.907" ry="2.645" transform="translate(-30.9585 35.8676) rotate(-9.493)"/><path d="M189.602,200.484a2.8,2.8,0,0,0-1.555-1.337c-3.183,1.421-6.637,2.505-6.637,3.813,0,1.077,12.85,0,18.808,0,1.18,0,1.166-2.06.8929-3.99C198.174,200.352,189.988,201.149,189.602,200.484Z"/><path class="c" d="M191.222,200.919c-.975,0-1.652-.1-1.788-.339a2.4733,2.4733,0,0,0-1.563-1.279.193.193,0,0,1,.062-.381,2.841,2.841,0,0,1,1.832,1.467c.516.483,8.58-.221,11.406-1.663a.193.193,0,0,1,.175.344C199.427,200.049,194.061,200.919,191.222,200.919Z"/><path class="v" d="M206.1029,190.901c-.862-2.8-2.759-13.567-4.2669-17.013s-5.886-8.47-6.172-9.547,14.9079-35.246,14.405-42.712-2.953-16.008-6.3311-16.869-13.109,12.2-14.4,25.124-6.348,31.011-5.8449,33.81,16.4389,26.778,16.3669,29.073-5.119,7.25-7.847,9.188-5.457,4.186-.933,5.334,14.348-4.711,16.914-8.439C210.216,195.621,206.965,193.7,206.1029,190.901Z"/><g class="w"><path class="r" d="M204.54,202.745a7.2247,7.2247,0,0,0,2.1-6.5c-.377-2.221-1.755-3.329-2.293-5.106s-1.53-8.714-4.006-14.936c-2.081-5.231-8.452-8.937-8.4-11.36s14.231-23.258,14.231-41.347,6.5-15.129,7.3-2.369-11.145,34.08-10.82,40.379,10.659,26.65,9.043,33.433S204.54,202.745,204.54,202.745Z"/></g><path d="M207.455,193.357a3.2359,3.2359,0,0,1-.8129,2.887c-2.8,3.607-7.5811,6.207-8.912,6.2s-2.1391-1.407-2.7851-1.623a5.3911,5.3911,0,0,0-1.576-.18c-.346.276-1.254,1.1-1.552,1.314-2.727,1.938-5.456,4.379-.933,5.527s14.5389-4.9,17.1071-8.632C209.577,196.555,208.583,195.115,207.455,193.357Z"/><path class="c" d="M197.735,202.636h-.006a3.29,3.29,0,0,1-2.1429-1.106,2.6118,2.6118,0,0,0-.7-.527,5.2061,5.2061,0,0,0-1.5059-.17.1931.1931,0,1,1-.0151-.386,5.5168,5.5168,0,0,1,1.643.189,2.73,2.73,0,0,1,.84.607,2.9467,2.9467,0,0,0,1.885,1.006h0c1.1579,0,5.8879-2.432,8.753-6.124a4.3289,4.3289,0,0,0,.778-3.3.1931.1931,0,1,1,.3759-.089,4.69,4.69,0,0,1-.848,3.63C203.97,199.995,199.17,202.636,197.735,202.636Z"/><path class="s" d="M205.704,186.778c-.1949,2.617-4.6219,3.99-6.916,3.276-4.959-9.274-14.9-24.128-15.3-26.359-.5-2.8,3.589-20.889,4.881-33.81s11.988-25.986,15.366-25.124,6.6,9.4,7.1,16.869-14.5,41.635-14.214,42.712,4.666,6.1,6.173,9.547C203.79,176.147,205.704,186.778,205.704,186.778Z"/><g class="x"><path d="M204.54,202.745a7.2247,7.2247,0,0,0,2.1-6.5c-.3769-2.221-1.755-3.329-2.2929-5.106s-1.53-8.714-4.006-14.936c-2.0811-5.231-8.4521-8.937-8.4-11.36s14.231-23.258,14.231-41.347,6.5-15.129,7.3-2.369-11.1451,34.08-10.82,40.379,10.6591,26.65,9.043,33.433S204.54,202.745,204.54,202.745Z"/><path d="M187.995,122.741s6.8781,5.114,19.7,3.338,2.035-9.529,2.035-9.529Z"/></g><path class="u" d="M199.843,190.321a10.7194,10.7194,0,0,1-1.126-.053l-.1-.012-.047-.09c-1.5629-2.975-4.557-7.893-7.4539-12.648-3.8921-6.393-7.57-12.426-7.813-13.791-.26-1.45.6519-6.724,1.806-13.4,1.041-6.023,2.221-12.848,2.9-18.882.0771-.678.006-1.936-.7459-2.352a.1931.1931,0,0,1-.0751-.262h0a.1931.1931,0,0,1,.261-.076h0c1.145.634.967,2.52.943,2.733-.684,6.046-1.865,12.878-2.907,18.905-1.1,6.377-2.055,11.885-1.807,13.267.233,1.294,4.061,7.58,7.765,13.658,2.87,4.711,5.837,9.582,7.4171,12.577.792.071,6.049.408,6.651-3.15a.192.192,0,0,1,.22-.159h0a.193.193,0,0,1,.1579.222C205.369,189.912,201.729,190.321,199.843,190.321Z"/><path class="v" d="M194.69,83.547s-2.745,14.976-4.9,18.1-13.8359,11.294-16.151,12.374-3.0679,2.423-5.0609.43-.323-3.551-.323-3.551,12.576-9.283,13.274-10.736,4.435-18.645,5.417-20.871c.8079-1.83,4.359-3.409,5.2-3.841a35.3755,35.3755,0,0,0,3.235-2.247"/><g class="y"><path class="r" d="M170.003,112.087s12.728-10.523,13.447-11.743,4.355-14.393,5.644-16.621,6.485-1.867,5.9,3.374-4.034,16-6.33,17.615-11.485,8.224-11.485,8.224Z"/></g><path class="d" d="M194.991,74.552c-.761.557-2.4.08-3.235.511s-4.389,2.01-5.2,3.841c-.981,2.226-4.525,19.61-5.223,21.064a16.5383,16.5383,0,0,1-2.8,2.716l-4.475,3.669c1.927-.374,4.475,2.929,3.936,5.01l2.234-1.492c3.943-2.715,8.32-6.047,9.557-7.839,2.154-3.125,4.9-18.485,4.9-18.485"/><path class="f" d="M178,111.555a.1919.1919,0,0,1-.1934-.1906.1945.1945,0,0,1,.0063-.05,4.368,4.368,0,0,0-1.349-3.656,2.8278,2.8278,0,0,0-2.364-1.117.193.193,0,0,1-.161-.339l4.475-3.669a14.6048,14.6048,0,0,0,2.745-2.651c.318-.661,1.271-4.846,2.281-9.276,1.185-5.2,2.411-10.583,2.941-11.782.752-1.7,3.688-3.148,4.943-3.765.142-.071.255-.125.341-.17a3.7485,3.7485,0,0,1,1.614-.229,2.9832,2.9832,0,0,0,1.595-.266.1932.1932,0,1,1,.228.312,3.2,3.2,0,0,1-1.82.34,3.5326,3.5326,0,0,0-1.44.185c-.088.045-.205.1-.346.173-1.112.547-4.066,2-4.759,3.574-.516,1.168-1.792,6.77-2.918,11.712-1.0591,4.646-1.9731,8.658-2.3091,9.357a15.46,15.46,0,0,1-2.8469,2.779l-4.0431,3.316a3.6928,3.6928,0,0,1,2.125,1.249,5.1539,5.1539,0,0,1,1.515,3.562l1.8661-1.247c4.93-3.4,8.4829-6.308,9.505-7.788,2.105-3.054,4.841-18.254,4.868-18.409a.1919.1919,0,0,1,.2215-.1571l0,0h0a.1928.1928,0,0,1,.156.2239v0c-.1129.629-2.7789,15.439-4.93,18.56-1.508,2.187-7.22,6.245-9.607,7.888l-2.235,1.492a.19.19,0,0,1-.106.035Z"/><g class="z"><path class="aa" d="M170.003,112.087s12.728-10.523,13.447-11.743,4.355-14.393,5.644-16.621,6.485-1.867,5.9,3.374-4.034,16-6.33,17.615-11.485,8.224-11.485,8.224Z"/></g><path class="r" d="M158.057,114.917l4.454-3.338s3.594-1.164,9.687-.213,6.9861,1.355,8.0171,2.835,0,1.472,0,1.472l-23.271.221Z"/><path d="M185.232,50.048a1.6777,1.6777,0,0,1-.042-.516c.042-.487.346-.918.4-1.4.05-.443-.1111-.889-.05-1.33a1.3571,1.3571,0,0,1,.7589-1.028c.2471-.115.527-.153.7671-.284.573-.31.756-1.025,1.1-1.578a2.7819,2.7819,0,0,1,1.394-1.123,5.71,5.71,0,0,1,.8921-.171,2.0491,2.0491,0,0,0,.8859-.477,16.84,16.84,0,0,1,11.185,1.688c5.361,3.1,4.1451,3.629,4.4841,8.252s-1.2081,7.161-1.0361,8.523c.142,1.131,1.2221,1.368,2.2,1.136a4.255,4.255,0,0,1,.8669-.173.837.837,0,0,1,.76.364c.1491.268.0711.6.136.9.142.617.8571.91,1.4881.954a5.6248,5.6248,0,0,1,1.874.2,2.1146,2.1146,0,0,1,1.125,1.417,4.3617,4.3617,0,0,1,.012,1.857,1.5149,1.5149,0,0,0-.023.677c.209.725,1.453.877,1.443,1.634-.007.568-.765.852-.906,1.406-.148.581.44,1.074.609,1.649a2.053,2.053,0,0,1-.449,1.69,6.9886,6.9886,0,0,1-2.454,2.1c-.706.378-1.5689.8-1.644,1.6a7.2181,7.2181,0,0,0-2.756-.974c-1.318-.179-2.662.01-3.988-.093a2.57,2.57,0,0,1-2.0711-.957c-.5329-.863-.062-1.969-.0479-2.983a1.0348,1.0348,0,0,0-.085-.487c-.16-.315-.542-.426-.869-.565a3.0629,3.0629,0,0,1-1.9091-2.562,2.46,2.46,0,0,1,1.823-2.5c.293-.062.6-.063.886-.147a.8587.8587,0,0,0,.634-.575c.06-.267-.076-.549-.0159-.816.087-.384.524-.568.9129-.631a2.0322,2.0322,0,0,0,1.106-.355c.53-.5.275-1.47-.075-2-.6-.9-1.526-.979-4.126-.7a5.8654,5.8654,0,0,1-1.4-.146,19.6857,19.6857,0,0,1-3.467-.852,15,15,0,0,1-7.914-6.268,9.6926,9.6926,0,0,1-1.54-2.309C185.938,51.428,185.397,50.759,185.232,50.048Z"/><g class="ab"><path class="v" d="M193.828,67.018c.093,1.046.123,5.292-.458,6.286a3.776,3.776,0,0,1-1.3831,1.4s-1.945,6.009-.9,7.768,7.017.969,8.99-.718,4.6851-8.2,7.323-9.691,2.188-2.512,1.6331-2.684-6-.766-6.23-5.015a23.7011,23.7011,0,0,1,1-7.538s-5.3421-2.724-8.789,2.308C193.397,61.491,193.735,65.973,193.828,67.018Z"/><path class="r" d="M199.413,61.664c1.974,2.01-2.3951,11.9-7.846,9.906V66.988Z"/></g><path class="d" d="M215.291,76.333c0-2.943.718-4.953-7.466-7.322-4.253.269-5.437,8.129-9.394,10.983s-6.722,1.813-7.473,0c-.317-.768.548-3.494.714-4.684-.209.129-.583.308-.8.431a4.793,4.793,0,0,0-2.362,2.912c-1.666,5.268-4.746,9.484-5.379,11.89-.717,2.728,1.2169,4.953,1.575,9.045s-6.173,19.884-6.173,19.884c16.726,9.619,33.81,3.087,33.81,3.087s-3.4461-9.619-3.374-14.931S215.291,79.276,215.291,76.333Z"/><g class="ac"><path class="aa" d="M213.413,124.729a23.6713,23.6713,0,0,0,.071-3.6c-.808-12.76,2.745-32.465,2.745-32.465s-4.2-8.722-6.771-2.423-5.7149,18.52-4.629,37.256q.063,1.071.056,2.154Z"/><path d="M181.015,114.61c4.737,3.877,29.557-6.563,30.6851-8.286,0,0,.7-5.388-3.339-5.172S178.707,112.722,181.015,114.61Z"/></g><path class="v" d="M163.153,110.43a15.27,15.27,0,0,0-2.9,0c-.587.18-2.621,2.621-2.621,2.621v1.868l2.415-.754Z"/><path class="r" d="M157.635,115.11a.193.193,0,0,1-.193-.193v-1.865a.2.2,0,0,1,.045-.124c.346-.415,2.1-2.5,2.713-2.682a14.4067,14.4067,0,0,1,2.969-.008.193.193,0,0,1,.133.315l-3.1,3.733a.1938.1938,0,0,1-.091.06l-2.415.754A.1862.1862,0,0,1,157.635,115.11Zm.192-1.989v1.533l2.11-.658,2.826-3.4a11.8114,11.8114,0,0,0-2.451.018,14.0266,14.0266,0,0,0-2.485,2.508Z"/><path class="v" d="M159.6,114.611c.69.45,3.518-2.888,4.83-3.318a5.6933,5.6933,0,0,1,2.862,0s-1.7-1.914-3.4479-1.759C162.224,109.677,158.907,114.161,159.6,114.611Z"/><path class="r" d="M159.749,114.845a.4555.4555,0,0,1-.255-.071h0c-.174-.114-.222-.33-.142-.639.316-1.269,2.948-4.654,4.475-4.79,1.831-.163,3.538,1.742,3.61,1.823a.193.193,0,0,1-.1939.314,5.5353,5.5353,0,0,0-2.751,0,9.7759,9.7759,0,0,0-2.3,1.7C161.043,114.182,160.254,114.845,159.749,114.845Zm-.043-.394c.262.157,1.492-.916,2.226-1.558a9.8006,9.8006,0,0,1,2.434-1.784,5.2812,5.2812,0,0,1,2.323-.133,4.2,4.2,0,0,0-2.831-1.251c-1.114.1-3.25,2.579-3.951,4.027-.256.527-.209.686-.2.699Z"/><path class="v" d="M163.721,111.041c-.156.323.413,1.445,1.421,1.593s2.791-.234,4.035.579c0,0,2.018-1.212,1.19-1.75a10.8036,10.8036,0,0,0-3.225-.943C166.644,110.44,163.8759,110.718,163.721,111.041Z"/><path class="r" d="M169.18,113.406a.1938.1938,0,0,1-.105-.031,5.0435,5.0435,0,0,0-2.827-.511,7.7678,7.7678,0,0,1-1.13-.038,2.0339,2.0339,0,0,1-1.439-1.065,1.0137,1.0137,0,0,1-.13-.8h0c.238-.5,3.263-.686,3.626-.627a10.48,10.48,0,0,1,3.3.971.5627.5627,0,0,1,.284.5c-.012.664-1.237,1.433-1.482,1.581a.201.201,0,0,1-.1.024Zm-2.544-.931a4.9768,4.9768,0,0,1,2.544.511c.524-.332,1.191-.883,1.2-1.2,0-.028,0-.092-.112-.166a7.9488,7.9488,0,0,0-6.372-.487.8061.8061,0,0,0,.127.439,1.6442,1.6442,0,0,0,1.154.866,7.57,7.57,0,0,0,1.07.034Z"/><circle class="v" cx="196.679" cy="53.14" r="9.675"/><path class="v" d="M201.57,61.846c-2.7,7.2-9.753,7.21-10.888,6.432s-.8-2.1-1.5889-3.338c-.6061-.954,1.124-1.319-.639-4.369,0,0,.015-4.245-.213-7.583,0,0,7.629-5.016,8.9589.579"/><path class="v" d="M187.17,54.394c.5,1.628.018,2.181.233,3.365s1.563,4.576,1.374,6.415c0,0,2.969.646,3.471-1.359"/><circle cx="187.707" cy="55.701" r="0.798"/><path class="v" d="M188.622,55.799a2.7071,2.7071,0,0,0-1.8-.1,3.1909,3.1909,0,0,1,.344-1.309c.316-.519.71-.771,1.25-.316S188.622,55.799,188.622,55.799Z"/><path d="M186.753,55.938a.122.122,0,0,1-.0331-.239,3.1354,3.1354,0,0,1,1.9391-.015.121.121,0,0,1,.0771.1528l0,0h0a.1219.1219,0,0,1-.1539.078h0a2.9,2.9,0,0,0-1.8.017A.1109.1109,0,0,1,186.753,55.938Z"/><path class="i" d="M186.772,59.143a2.809,2.809,0,1,1,2.5172-3.0732c.0092.0924.0138.1853.0138.2782A2.6759,2.6759,0,0,1,186.772,59.143Zm0-5.227a2.4489,2.4489,0,1,0,2.174,2.433A2.315,2.315,0,0,0,186.772,53.916Z"/><path d="M206.454,61.269c-.322-.739.2791-1.146.573-1.747.355-.72.267-1.315.938-1.913a3.4721,3.4721,0,0,0,1.156-1.509,7.4984,7.4984,0,0,0-.0489-2.257,21.4847,21.4847,0,0,1,.37-2.245c.1121-1.065-.441-1.583-1.008-2.394-.839-1.2.232-3.01-1.371-3.8a3.51,3.51,0,0,1-1.514-.994,5.4076,5.4076,0,0,0-1.208-1.568,5.2617,5.2617,0,0,0-1.673-.381,3.7083,3.7083,0,0,1-1.33-.891,2.4194,2.4194,0,0,0-1.593-.523c-.676,0-1.33.195-2,.256-.957.089-1.863-.394-2.805-.294-1.0511.112-1.8471,1.082-2.9,1.165-.255.02-.512-.014-.767,0a1.8379,1.8379,0,0,0-1.408.884c-.31.518-.839,1.517-.6,2.086a3.0311,3.0311,0,0,0,1.8511,1.566,11.2346,11.2346,0,0,0,2.538.133,3,3,0,0,1,2.3.891c.643.8.526,2.023,1.167,2.826.795,1,2.512,1.043,3.054,2.2.426.9.332,1.33,1.3709,1.75,1.375.555,2.344.913,2.9831,2.3a5.9431,5.9431,0,0,1-.148,4.721"/><path class="i" d="M204.567,62.963a.577.577,0,1,1-.0109-1.154,2.1828,2.1828,0,0,0,1.7-1.146.579.579,0,0,1,1,.583h0a3.3332,3.3332,0,0,1-2.678,1.721Z"/><path class="v" d="M189.444,60.9c-.646.06-2.493.242-2.547-.781-.044-.852,2.188-2.871,1.656-6.165,0,0,.493-2.836,1.682-2.046s2.8,6.246.83,8.578"/><path d="M187.992,52.883a.71.71,0,0,1-.328-.045,1.5374,1.5374,0,0,0-.276-.085.6612.6612,0,0,0-.248-.009.5382.5382,0,0,0-.2249.121l-.013.011a.1061.1061,0,0,1-.1681-.114.5932.5932,0,0,1,.2751-.33.7694.7694,0,0,1,.426-.079,1.2653,1.2653,0,0,1,.384.092.5348.5348,0,0,1,.284.265.121.121,0,0,1-.058.161h0a.1171.1171,0,0,1-.037.011Z"/><path class="f" d="M178.539,119.668a.193.193,0,0,1-.175-.265h0c.065-.158,6.51-15.8,6.159-19.794a19.58,19.58,0,0,0-1.008-4.438c-.526-1.652-.98-3.078-.561-4.672a22.9931,22.9931,0,0,1,1.885-4.093,47.0071,47.0071,0,0,0,3.5-7.806.1921.1921,0,0,1,.24-.1262l.0006,0h0a.1929.1929,0,0,1,.1272.2415l0,0h0a47.3852,47.3852,0,0,1-3.524,7.871,22.7632,22.7632,0,0,0-1.852,4.011c-.391,1.485.027,2.8.556,4.457a19.9467,19.9467,0,0,1,1.025,4.522c.355,4.091-5.92,19.328-6.1879,19.975a.1911.1911,0,0,1-.1811.119Z"/><path class="i" d="M195.2831,55.466a.193.193,0,1,1-.0081-.386h0l8.0439-.395a.2.2,0,0,1,.2.183.193.193,0,0,1-.183.2h0l-8.0439.395Z"/><path class="ad" d="M188.701,63.79c.082-.117.1421-.2.182-.261.018-.033.033-.058.045-.084a.2742.2742,0,0,1,.071-.087c.013-.009.026-.021.048-.035a.628.628,0,0,1,.31-.107h.14l.077.006.284.023a9.5466,9.5466,0,0,0,1.1.032,8.0055,8.0055,0,0,0,1.1-.111,11.0232,11.0232,0,0,0,1.1159-.259h0a.1209.1209,0,0,1,.1489.0844l0,.0006h0a.121.121,0,0,1-.036.122,4.12,4.12,0,0,1-1.042.663,4.9681,4.9681,0,0,1-1.2.36,6.0342,6.0342,0,0,1-1.2471.075l-.3-.016h-.079a.2663.2663,0,0,0,.094-.026c.007,0,.0139-.011.01-.009h-.014a1.72,1.72,0,0,1-.175.067.7453.7453,0,0,1-.227.031.6114.6114,0,0,1-.4-.157.222.222,0,0,1-.035-.293Z"/><path class="r" d="M193.279,63.222a.7472.7472,0,0,1-.1789.284,2.2435,2.2435,0,0,1-.234.218,3.9736,3.9736,0,0,1-.517.359,5.6664,5.6664,0,0,1-1.141.522,4.7025,4.7025,0,0,1-1.266.247,1.77,1.77,0,0,1-.679-.109,1.0651,1.0651,0,0,1-.568-.46.158.158,0,0,1,.142-.232h.024c.206.006.369,0,.539-.011l.516-.021a6.57,6.57,0,0,0,1.1-.125c.374-.071.75-.164,1.124-.27.186-.056.3731-.114.5551-.182a1.6008,1.6008,0,0,0,.5-.257l.008-.009a.0421.0421,0,0,1,.059,0h0a.04.04,0,0,1,.015.044Z"/><path class="v" d="M209.4149,71.435l-.6149,7.7-5.591,19.777-20.65,11.45c-1.634.835-3.226.359-5.4.251s-5.552-.359-7.07.43-5.449,3.661-5.449,4.092.276.79,1.552.538a2.806,2.806,0,0,0,2.517-.2,4.0321,4.0321,0,0,1,2.657-1.274s-1.405.808-1.335,1.092.419.568,1.972.388,1.989-.331,3.2249-.475c2.453-.284,3.829.844,5.449.467a9.7684,9.7684,0,0,0,2.457-1.2,6.8064,6.8064,0,0,1,1.589-.729c12.029-3.782,24.3-11.035,25.357-12.714,1.086-1.723,5.114-20.378,5.114-24.847S212.368,72.316,209.4149,71.435Z"/><path class="r" d="M167.292,116.085h-.023c-.265-.031-.9-.149-1.04-.568-.055-.161-.052-.419.272-.737a26.229,26.229,0,0,1,4.471-3.108c.594-.139,2.435-.279,2.512-.284a.2.2,0,0,1,.207.178.192.192,0,0,1-.1758.2069l-.0012,0h0c-.019,0-1.89.142-2.454.276a26.7893,26.7893,0,0,0-4.29,3.007c-.1421.136-.2.259-.1761.336.0381.112.279.257.72.309a.193.193,0,0,1-.023.384Z"/><path class="r" d="M169.842,115.292a.193.193,0,0,1-.147-.319h0c.683-.786,3.623-1.64,3.75-1.676l2.391-.541a.192.192,0,0,1,.1115.3675l-.0235.0055-2.3809.538c-.81.234-3.049.975-3.5511,1.556A.1918.1918,0,0,1,169.842,115.292Z"/><path d="M191.283,112.253l-.339-.185a3,3,0,0,0-.266-3.12,3.1,3.1,0,0,0-2.664-1.536l-.038-.384a3.4409,3.4409,0,0,1,3.024,1.7,3.3813,3.3813,0,0,1,.282,3.52Z"/><path class="d" d="M209.808,69.637s-1.1661,1.994-2.8841,8.58-3.437,19.533-3.437,19.533l-15.493,9.469c2.0641-.2,4.351,2.685,3.1191,4.939,10.466-3.77,19.142-8.894,20.1-10.361,1.1319-1.723,5.708-21.535,5.708-26S212.8879,70.518,209.808,69.637Z"/><g class="ae"><path class="aa" d="M203.3249,66.237c2.174,3.83,8.215,4.658,10.709,6.865,3.125,2.763-1.149,21.042-4,27.081-1.249,2.643-4.746,4.184-8.381,6.18-6.363,3.49-16.248,7.354-17.128,8.014-1.3809,1.036.972,1.989,3.036,1.518s24.2-9.7,25.6461-13.178,8.4-23.937,4.953-29.9S203.3249,66.237,203.3249,66.237Z"/></g><path class="f" d="M191.111,112.547a.193.193,0,0,1-.168-.286,3.1811,3.1811,0,0,0-.3171-3.292,3.0416,3.0416,0,0,0-2.6129-1.555.193.193,0,0,1-.119-.357l15.4129-9.419a115.1529,115.1529,0,0,1,2.8621-16.006.2.2,0,0,1,.237-.136.192.192,0,0,1,.135.235h0a114.8876,114.8876,0,0,0-2.86,16.039.19.19,0,0,1-.091.146l-14.962,9.145a3.7708,3.7708,0,0,1,2.323,1.694,3.5567,3.5567,0,0,1,.334,3.693A.1928.1928,0,0,1,191.111,112.547Z"/><path class="f" d="M193.858,82a3.8993,3.8993,0,0,1-1.1121-.154,2.9491,2.9491,0,0,1-1.965-1.781c-.2-.519.114-1.8.58-3.551.195-.732.3791-1.424.4351-1.833a.1939.1939,0,0,1,.218-.165.1918.1918,0,0,1,.165.2156v0h0c-.06.433-.2469,1.136-.4439,1.879a10.4606,10.4606,0,0,0-.594,3.316,2.5708,2.5708,0,0,0,1.714,1.551c1.461.433,3.4-.149,5.464-1.638,1.677-1.207,2.8559-3.356,4-5.433,1.5329-2.791,2.983-5.427,5.5-5.586a.192.192,0,0,1,.2.18h0a.192.192,0,0,1-.18.2h0c-2.308.146-3.705,2.692-5.1851,5.387-1.16,2.114-2.361,4.3-4.108,5.56a8.4074,8.4074,0,0,1-4.687,1.847Z"/><path class="i" d="M192.644,59.046a3.141,3.141,0,1,1,2.8145-3.4366q.0155.1552.0154.3116A2.9939,2.9939,0,0,1,192.644,59.046Zm0-5.868a2.7593,2.7593,0,1,0,2.4449,2.741A2.608,2.608,0,0,0,192.644,53.178Z"/><path d="M190.485,52.35a2.1332,2.1332,0,0,1,.5109-.4,2.6944,2.6944,0,0,1,.5941-.258,3.17,3.17,0,0,1,1.3-.119c.1081.018.2131.036.324.057a3.1732,3.1732,0,0,1,.314.094,4.4669,4.4669,0,0,1,.583.276,3.5515,3.5515,0,0,1,.526.361,3.1094,3.1094,0,0,1,.453.448.1036.1036,0,1,1-.151.142h0a4.1663,4.1663,0,0,0-1.5291-.868c-.0939-.022-.1879-.042-.28-.067l-.284-.04a3.0476,3.0476,0,0,0-1.137.123,7.96,7.96,0,0,0-1.094.417h-.009a.1061.1061,0,0,1-.141-.05h0A.1069.1069,0,0,1,190.485,52.35Z"/><path class="r" d="M188.54,61.145c-1.183,0-1.8-.342-1.836-1.016a2.7545,2.7545,0,0,1,.568-1.3,6.8563,6.8563,0,0,0,1.283-4.848.193.193,0,0,1,.159-.221h0a.192.192,0,0,1,.221.1578v0h0a7.19,7.19,0,0,1-1.334,5.111,2.879,2.879,0,0,0-.512,1.075q.033.663,1.521.649h0a.193.193,0,1,1,0,.386h-.073Z"/><path class="i" d="M190.009,56.113a.1933.1933,0,0,1-.094-.024c-.278-.155-1.065-.482-1.393-.142a.1931.1931,0,0,1-.28-.266c.6-.627,1.81.04,1.861.071a.194.194,0,0,1-.095.361Z"/><path class="r" d="M189.88,61.145a.193.193,0,0,1,0-.386h0a.4891.4891,0,0,0,.432-.219.4748.4748,0,0,0-.043-.487.1933.1933,0,0,1,.335-.193.8515.8515,0,0,1,.044.872A.878.878,0,0,1,189.88,61.145Z"/><circle cx="192.365" cy="55.509" r="0.798"/><path class="v" d="M191.23,55.606a6.6621,6.6621,0,0,1,2.7-.1s.517-.795.2-1.313a2.6742,2.6742,0,0,0-2.7-.305C190.891,54.338,191.23,55.606,191.23,55.606Z"/><path d="M191.2309,55.729a.122.122,0,0,1-.0389-.237h0a6.7121,6.7121,0,0,1,2.764-.107.12.12,0,0,1,.1.1369l0,.0021h0a.122.122,0,0,1-.1405.1l-.0005,0h0a6.5749,6.5749,0,0,0-2.645.1.1208.1208,0,0,1-.037,0Z"/><path class="r" d="M202.852,62.139a29.9682,29.9682,0,0,1,.95-5.28,8.2337,8.2337,0,0,0-1.25-.462l-.9,3.651S201.57,61.846,202.852,62.139Z"/><path class="v" d="M202.872,54.862a1.9541,1.9541,0,0,1,2.638-.3c1.384,1.085-.3,4.587-1.318,5.7-1.7,1.864-2.621-.472-2.621-.472"/><path d="M145.9359,98.546h-14.7l14.024,18.058,15.4.646Z"/><rect x="145.212" y="115.671" width="37.019" height="2.225"/><rect x="159.515" y="115.671" width="22.717" height="2.225"/><path class="j" d="M160.094,116.442a.1911.1911,0,0,1-.151-.071l-14.1-17.632H131.629a.193.193,0,0,1,0-.386h14.312a.1911.1911,0,0,1,.151.071l14.156,17.7a.192.192,0,0,1-.0279.27l-.0011.0009h0A.193.193,0,0,1,160.094,116.442Z"/><path d="M176.331,201.703a.1921.1921,0,0,1-.193-.191V121.397a.1921.1921,0,0,1,.191-.193h.001a.194.194,0,0,1,.193.193v80.114a.1939.1939,0,0,1-.193.19Z"/><path class="c" d="M139.089,121.368h42.4v-3.42H133.063"/><path d="M181.681,121.561H139.088a.193.193,0,0,1,0-.386h42.207v-3.033H133.059a.1925.1925,0,0,1,0-.385h48.614Z"/><path class="b" d="M156.455,202.384c-1.085-.142-2.143-.261-3.163-.362-1.033-.71-12.44-1.274-26.357-1.274-14.6,0-26.435.617-26.435,1.379s11.836,1.379,26.435,1.379c2.531,0,4.981-.018,7.3-.053-1.745.426-2.77.937-2.77,1.492,0,1.095,3.9829,2.031,9.633,2.42-7.8271.006-14.16.825-14.16,1.834s6.376,1.835,14.24,1.835,14.239-.821,14.239-1.835c0-.721-3.227-1.344-7.92-1.644a57.9436,57.9436,0,0,0,12.175-1.132c5.977.553,10.457.419,10.607-.407C170.453,205.019,164.267,203.393,156.455,202.384Z"/><path class="v" d="M118.627,178.263c.742,3.589-.6611,9.188-.194,12.06h5.531a13.0007,13.0007,0,0,0-.575-5.814c-1.041-2.512-2.907-6.246-3.014-7.251S118.627,178.263,118.627,178.263Z"/><path class="r" d="M118.627,178.262c.742,3.589-.6611,9.188-.194,12.06l3.445.507a8.6543,8.6543,0,0,0,.39-5.317c-.579-2.658-3.029-7.178-3.136-8.183S118.627,178.262,118.627,178.262Z"/><path class="aa" d="M117.575,169.718c2.261-.5,3.84,3.733,3.769,6.712s-.614,4.623-1.883,4.809c-1.7.251-2.792-2.656-3.186-4.092S115.314,170.226,117.575,169.718Z"/><path class="v" d="M107.216,200.747c-2.153-.754-3.983-2.176-3.876-5.907s4.092-8.523,6.568-11.214,3.551-3.823,3.5-5.061-.516-8.281,1.314-8.291c1.055-.006,4.274,9.368,4.2621,10.095-.034,1.522-1.776,1.373-2.8,2.423s-2.207,6.353-3.876,8.83S107.216,200.747,107.216,200.747Z"/><g class="af"><path class="r" d="M107.974,191.73c1.8-.835,3.551-1.563,4.333-3.338s1.858-5.814,2.719-6.89,2.423-1.911,2.531-2.719a36.0972,36.0972,0,0,0-2.612-8.506c-.7-.942,1.124-.8,1.776.825s3.22,7.951,2.958,9.324-.612,1.292-1.689,1.938-1.736,2.826-2.08,3.688-1.007,4.727-2.524,5.491S107.974,191.73,107.974,191.73Z"/><path class="ag" d="M113.107,173.937c.718-.269,1.831.825,2.405,2.243a7.461,7.461,0,0,1,.682,2.046,12.9007,12.9007,0,0,0,0,2.208c.1421.467.844,1.722.844,1.884,0,0,2.62-.521,2.638-1.526a37.5634,37.5634,0,0,0-2.0819-8.417c-.771-1.418-2.352-3.007-3.0151-2.7a2.88,2.88,0,0,0-1.364,2.195C113.1429,172.771,113.107,173.937,113.107,173.937Z"/></g><path class="d" d="M113.733,190.86a3.8179,3.8179,0,0,0-3.158-.825c-8.86,1.45-5.671,11.09-3.3,12.167h14.644s6.18-2.692,6.18-8.722-3.809-7.918-9.623-7.05a8.6861,8.6861,0,0,0-7.214,5.564"/><g class="ah"><path d="M102.931,199.043a22.03,22.03,0,0,1,4.7-.5c1.9.108,3.733.754,5.491.5s3.912-.754,3.912-.754l.43,4.666h-11.7Z"/></g><path class="f" d="M128.096,193.674a.193.193,0,0,1-.192-.193c0-2.528-.686-4.4-2.04-5.568-1.568-1.35-4.049-1.786-7.361-1.291a8.5551,8.5551,0,0,0-7.058,5.429.1941.1941,0,0,1-.375-.1v-.015a8.9571,8.9571,0,0,1,7.371-5.7c3.433-.513,6.014-.048,7.671,1.381,1.442,1.243,2.175,3.215,2.175,5.86a.193.193,0,0,1-.193.193Z"/><path class="b" d="M173.316,209.848l9.4-3.159-16.224-2.3-15.2,2.876Z"/><path class="v" d="M146.326,196.89c2.441,2.477,6.6061,6.606,6.961,6.748a14.63,14.63,0,0,0,4.5591.969,39.493,39.493,0,0,1,4.8449.213c.8251.142,4.235.79,4.774.79a5,5,0,0,0,3.3-1.328c.237-.284.151-.467.151-.467s1.143-.269,1.211-.841a.71.71,0,0,0-.355-.761.9159.9159,0,0,0,.43-.734c-.013-.465-.573-.71-.573-.71s.539-.37.505-.747a1.4,1.4,0,0,0-.895-1.023,6.7415,6.7415,0,0,0-1.989.229c-.444.155-1.227.462-1.371.48s-.683-.245-.9149-.269c-1.0411-.108-2.5131,1.4-3.0511,1.492s-6.766-2.423-8.736-3a42.496,42.496,0,0,0-4.576-5.6C148.443,190.286,146.326,196.89,146.326,196.89Z"/><g class="ai"><path class="r" d="M147.116,193.911c1.9,2.117,5.546,6.8,6.535,7.412a16.7008,16.7008,0,0,0,6.0659,1.776c2.6.269,3.875.61,4.432.284s1.2151-1.624,1.9341-1.965a16.3414,16.3414,0,0,1,2.418-.494c.412-.153,1.256-.457,1.166-.87s1.661-.655,1.732-.135-.018,3.141-.619,3.823c0,0,.245.137.117.338s-.763,1.327-3.2,1.518a24.0927,24.0927,0,0,1-5.16-.284l-7.564.135-3.742-1.875-4.836-5.312-.979-2.046Z"/></g><path d="M155.37,180.432c.646-1.666,1.179-3.389.3-5.469a12.1623,12.1623,0,0,0-2.867-4.085,14.99,14.99,0,0,0-4.74-2.931,14.48,14.48,0,0,0-5.757-1.191,9.9368,9.9368,0,0,0-5.5,1.929,13.7078,13.7078,0,0,0-1.2151.97,12.527,12.527,0,0,0-4.0689,6.792,6.4292,6.4292,0,0,0-.109,1.154c0,3.715.2,4.907-.071,6.037s-2.263,2.582-2.7,3.9a6.5413,6.5413,0,0,0-.337,2.4s5.855-2.912,10.731-1.1c3.428,1.271,6.128,7.2,6.381,8.049.614,2.046-1.171,3.944-1.171,3.944a5.9409,5.9409,0,0,0,3.591-1.468c.9229-.987.9229-3.284,1.716-4.1449s2.083-1.292,2.441-2.6561-.1421-3.9.9329-4.75,2.682-1.2789,2.7411-3.289S154.723,182.099,155.37,180.432Z"/><path class="aa" d="M139.041,188.819c-4.876-1.809-10.731,1.1-10.731,1.1a6.5476,6.5476,0,0,1,.337-2.4c.435-1.314,2.428-2.765,2.7-3.9s.071-2.323.071-6.037a6.4283,6.4283,0,0,1,.109-1.154,12.5267,12.5267,0,0,1,4.0689-6.792,13.69,13.69,0,0,1,1.2151-.97,9.9368,9.9368,0,0,1,5.5-1.929Z"/><path d="M137.747,179.518c-2.591.9-1.978,3.6-3.714,4.738-1.954,1.279-3.632.776-5.736,4.881l3.215-.385,5.123-1.912Z"/><path class="ag" d="M138.259,189.685c.328-1.671,1.248-4.644.672-4.926-1.9-.933-1.5431,1.005-5.994,1.472a5.6119,5.6119,0,0,0-3.686,2.023c-1.648-.083-3.05-.294-3.05-.294-10.684.186-13.274,11.444-10.37,14.673,1.185-.862,15.129,0,20.62,0s9.708-1.176,9.206-5.438C145.298,194.111,142.648,191.357,138.259,189.685Z"/><g class="aj"><path d="M112.303,198.326a26.6257,26.6257,0,0,1,5.635-.718c2.117.108,6.173,2.225,8.722,2.189s9.261-.969,9.224-2.979-.539-4.953,1.507-5.671a17.8659,17.8659,0,0,1,5.67-.43l3.841,6.464-.933,4.738-5.887,1.615-12.167.682-11.507-.61-2.921-.395Z"/></g><path class="i" d="M168.201,206.689l-.251-1.274,3.015-10.228a.8852.8852,0,0,1,1.112.269l-2.92,10.35Z"/><path class="v" d="M153.012,180.336a.554.554,0,0,1,.35.94,3.34,3.34,0,0,0-.961,1.515c-.426,1.712.491,2.524.474,2.9a1.344,1.344,0,0,1-1.652.79,6.2729,6.2729,0,0,0,.2,1.472s-.5.467-.771.467c0,0,.089.7-.142.862a1.0247,1.0247,0,0,1-.826.146s-.306,1.2-.969,1.379-2.512.06-4.612-2.223,2.817-6.948,2.817-6.948l4.738-1.421Z"/><g class="ak"><path d="M147.716,191.614a3.8878,3.8878,0,0,1-.386-4.049c1.222-3.054,7.1-6.074,7.677-8.389s-7.046-2.068-9.589,1.254-3,6.307-2.191,8.153S147.716,191.614,147.716,191.614Z"/></g><path class="s" d="M126.993,192.88c.441-1.356,3.3121-1.4,5.91.568,2.933,2.226,3.631,3.978,3.357,4.642-.445,1.082-4.287.26-6.342-.658S126.653,193.916,126.993,192.88Z"/><path class="v" d="M154.704,202.742a.9161.9161,0,0,0-.832-.544h-1.445a5.3259,5.3259,0,0,0-1.9.18c-1.651.5-1.651,2.692-3.876,2.907a27.83,27.83,0,0,1-7.269-.718,13.7983,13.7983,0,0,0-3.823-.538c-.316-.773-.306-2.009-.173-5.682a7.7627,7.7627,0,0,0-5.611-3.944,1.2791,1.2791,0,0,0-1.411,1.131v.034c-.3,3.448-.3,6.16.83,12.986a1.5771,1.5771,0,0,0,1.141,1.263,29.1842,29.1842,0,0,0,7.344.781c6.138.036,11.737-1.543,12.885-1.579s3.949-.43,4.307-.79C155.205,207.895,155.987,205.588,154.704,202.742Z"/><g class="al"><path class="r" d="M136.167,199.325a8.72,8.72,0,0,0-5.954-5.2c-1.7,4.075-.829,13.211.391,14.074s5.061,1.722,8.4,1.651,9.08-1.413,10.5171-1.377,4.2509.256,5.9-.913l-.26,1.286-4.7,1.006s-9.117,2.006-14.7151,1.359a42.4111,42.4111,0,0,1-6.8189-1.077s-2.326-4.647-2.01-7.5-.1711-10.337,1.189-11.485,5.522-2.01,6.6-.574a30.3953,30.3953,0,0,1,2.512,5.6Z"/></g><path class="u" d="M115.834,202.826a.1939.1939,0,0,1-.142-.064c-1.462-1.624-1.55-5.043-.209-8.122a11.36,11.36,0,0,1,10.716-6.873h0a.193.193,0,0,1,0,.386,10.9849,10.9849,0,0,0-10.37,6.641c-1.284,2.951-1.224,6.193.142,7.711a.1919.1919,0,0,1-.0141.2711l-.0009.0009h0A.1891.1891,0,0,1,115.834,202.826Z"/><path class="v" d="M170.494,200.156a.7749.7749,0,0,0,.8845.6472l.0015,0h0a.8789.8789,0,0,0,.754-.781c0-.323-.284-.548-.74-.538S170.466,199.769,170.494,200.156Z"/><path class="v" d="M170.337,201.625a.8.8,0,0,0,.91.6721l.0009,0h0c.4-.068.969-.256.956-.814a.685.685,0,0,0-.82-.68C171.073,200.87,170.3,201.074,170.337,201.625Z"/><path class="v" d="M172.1349,202.829c.06.555-.781.934-1.359.84s-.744-.418-.762-.767.553-.639,1.233-.606S172.081,202.322,172.1349,202.829Z"/><path class="v" d="M170.014,203.575c-.086.284.279.511.639.579s.284-.148.263-.337-.2361-.148-.3741-.205S170.058,203.428,170.014,203.575Z"/><path class="r" d="M167.303,201.744c1.1-.06,2.2411-.584,2.459-1.319.16-.538-.325-.585-.507-.612a8.0287,8.0287,0,0,0-2.443.451C166.361,200.547,167.303,201.744,167.303,201.744Z"/><path class="v" d="M166.782,199.736c.409,0,.6-.04,1.1-.028s1.734.018,1.715.24a1.1088,1.1088,0,0,1-.916.9419,17.6732,17.6732,0,0,0-2.5.5531,5.5626,5.5626,0,0,0-.743.526Z"/><path class="aa" d="M155.267,177.073c-.538-6.945-9.4619-11-13.717-10.267-4.7589,3.531-2.44,7.114-2.44,7.114a5.9538,5.9538,0,0,1-1.471,5.671c-3.775,4.131-1.427,9.422-.619,11.522s-.269,5.6-.269,5.6c1.83.538,2.77-1.7,2.77-1.7,1.48.727,1.776,4.333,1.776,4.333,4.83-1.005,3.8129-5.937,2.922-8.505a3.0119,3.0119,0,0,0,2.353,1.075,6.9747,6.9747,0,0,1-1.077-2.384C144.1,183.166,155.806,184.018,155.267,177.073Z"/><path class="ag" d="M136.75,196.71a4.474,4.474,0,0,0,2.8-4.576s.889,2.826-.376,4.091a1.9,1.9,0,0,1-2.423.485Z"/><path class="ag" d="M143.933,194.799c0-1.938-1.1-4.966-.134-5.814-.31,1.4,1.669,3.149,1.31,6.271a4.172,4.172,0,0,1-3.809,4.095A5.2,5.2,0,0,0,143.933,194.799Z"/><circle class="am" cx="183.426" cy="326.262" r="72.5"/><path d="M140.144,383.773,250.706,353.05s-13.776,39.362-59,44.847C191.705,397.898,162.092,401.898,140.144,383.773Z"/><path d="M261.901,375.901l-33.674-2.928h.011l-41.68,18.921,33.674,2.928Z"/><path class="v" d="M173.007,305.038s2.421,1.212,6.05-1.452,6.535-4.6,8.229-7.745,9.2-20.573,2.9-28.8-22.751-8.713-28.56,8.955-4.6,19.363-9.923,24.93a20.0114,20.0114,0,0,1-5.809,1.936c-3.147.484,21.541,17.91,21.541,17.91l4.115-6.05A11.8,11.8,0,0,1,173.007,305.038Z"/><path class="an" d="M216.997,366.887c.9-2.8.57-1.484,1.218-3.652-.363-3.956-4.687-4.344-8-4.739a65.43,65.43,0,0,1-9.369-1.541s-8.597-46.23-29.291-42.23c-13.148,2.538-16.458-14.522-16.458-14.522s-16.579-2.542-24.082,22.146,2.421,49.617,6.05,54.458,20.45,10.177,32.19,12.827c15.006,3.388,17.183-5.083,17.183-5.083a91.3871,91.3871,0,0,0,.967-9.318,13.0264,13.0264,0,0,0,5.688.484c2.3-.726,18.516.242,25.118-3.167C213.616,368.504,214.885,373.409,216.997,366.887Z"/><path d="M172.479,366.176c.185.232.285.339.285.339S172.669,366.401,172.479,366.176Z"/><path d="M219.478,358.527c-10.166-4.84-18.153-14.522-22.267-34.853s4.356-39.21-4.6-54.458-20.333-7.745-20.333-7.745c-20.088.726-17.426,29.044-21.057,35.821-1.537,2.871-3.872,7.986,0,7.745a8.5887,8.5887,0,0,0,6.05-3.388c-3.819,39.77,12.8,61.6,15.2,64.526-1.555-1.953-9.029-12.78-12.058-43.711-3.388-34.611,20.089-50.585,20.089-50.585s7.019-4.356,9.682,2.178,0,15.971-2.424,20.92-4.84,5.462-8.712,8.609-6.051,1.452-6.051,1.452c-2.478,5.555-3.873,7.5,2.9,22.025,5.217,11.18,2.4,31.538.829,40.318a24.4205,24.4205,0,0,0,3.752,1.046,151.8765,151.8765,0,0,1,17.7-8.443c0-7.986-4.841-23.477-4.841-23.477C202.051,356.834,219.478,358.527,219.478,358.527Z"/><path class="r" d="M186.848,285.808a4.026,4.026,0,0,0-1.2.713,3.8752,3.8752,0,0,0-1.386,2.642c-.1,1.015-.078,1.815-.165,2.4a1.9923,1.9923,0,0,1-.222.72,1.2741,1.2741,0,0,1-.509.483,1.8846,1.8846,0,0,1-.919.235,2.0358,2.0358,0,0,1-.725-.135,2.5435,2.5435,0,0,1-.893-.575,1.673,1.673,0,0,1-.327-.47,1.4284,1.4284,0,0,1-.128-.6,1.5738,1.5738,0,0,1,.012-.194.243.243,0,0,0-.213-.269h0a.2421.2421,0,0,0-.268.212h0a2.0849,2.0849,0,0,0-.015.251,1.9183,1.9183,0,0,0,.17.8,2.2826,2.2826,0,0,0,.681.841,3.1266,3.1266,0,0,0,.807.456,2.52,2.52,0,0,0,.9.166,2.3669,2.3669,0,0,0,1.155-.3,1.7656,1.7656,0,0,0,.693-.664,2.2148,2.2148,0,0,0,.238-.652,7.498,7.498,0,0,0,.118-1.18c.021-.439.038-.927.093-1.482a3.4533,3.4533,0,0,1,.448-1.4149,3.5988,3.5988,0,0,1,1.16-1.1951,3.7483,3.7483,0,0,1,.469-.257c.058-.026.1-.046.135-.058l.034-.013h.008l-.025-.071.024.071h0l-.025-.071.024.071a.2421.2421,0,0,0-.151-.46h.002Z"/><path class="r" d="M177.984,289.827a1.1128,1.1128,0,0,0-.061.372,1.0812,1.0812,0,0,0,.048.323,1.0364,1.0364,0,0,0,.357.51,1.8,1.8,0,0,0,.8.328.242.242,0,0,0,.284-.191h0a.243.243,0,0,0-.195-.282,1.6158,1.6158,0,0,1-.454-.143.66.66,0,0,1-.3-.27.5616.5616,0,0,1-.065-.27.6933.6933,0,0,1,.016-.154.1226.1226,0,0,1,.011-.041V290h0l-.133-.047.132.049h0l-.133-.047.132.049a.242.242,0,1,0-.446-.172Z"/><path d="M188.134,285.548a6.6662,6.6662,0,0,1,.706.1,5.9609,5.9609,0,0,1,.688.17,3.4685,3.4685,0,0,1,.679.285,1.549,1.549,0,0,1,.6.565.29.29,0,0,1-.1042.3967l-.0058.0033h0a.2909.2909,0,0,1-.369-.071l-.014-.017a.97.97,0,0,0-.4-.26,2.8043,2.8043,0,0,0-.561-.143,5.1841,5.1841,0,0,0-.607-.053,5.802,5.802,0,0,0-.6.01h0a.492.492,0,0,1-.529-.452h0a.4931.4931,0,0,1,.453-.529A.5482.5482,0,0,1,188.134,285.548Z"/><path d="M182.426,282.526a.6078.6078,0,0,0-.02-.083c-.008-.031-.018-.065-.029-.1a2.0049,2.0049,0,0,0-.071-.2c-.045-.136-.108-.27-.165-.4a5.8554,5.8554,0,0,0-.439-.771,6.4138,6.4138,0,0,0-1.2-1.33c-.118-.1-.242-.182-.363-.274-.061-.044-.12-.093-.185-.134l-.2-.119c-.131-.078-.258-.164-.394-.235l-.414-.2c-.0711-.033-.137-.071-.2081-.1l-.2139-.083-.434-.166c-.295-.1-.6-.172-.9-.26l-.026-.008a.2579.2579,0,0,1-.176-.319h0a.2589.2589,0,0,1,.3-.179c.321.071.642.128.965.21l.475.143.237.071c.078.027.155.061.232.092l.462.19c.152.068.3.152.448.227l.223.117c.071.04.143.089.2139.134.1431.093.285.18.4241.277a7.2487,7.2487,0,0,1,1.465,1.414,6.6222,6.6222,0,0,1,.57.861c.08.155.163.307.232.47a2.4739,2.4739,0,0,1,.1.247c.016.042.033.083.047.129s.0289.086.0459.148l.0061.023a.519.519,0,0,1-1,.267h0A.377.377,0,0,1,182.426,282.526Z"/><path d="M185.45,288.651a4.748,4.748,0,0,0,.5.617,5.5329,5.5329,0,0,0,1.426,1.1,4.5171,4.5171,0,0,0,.595.268,2.0144,2.0144,0,0,0,.661.129,1.1078,1.1078,0,0,0,.412-.071.9516.9516,0,0,0,.364-.257.2419.2419,0,0,0-.021-.341h0a.242.242,0,0,0-.341.02h0a.4648.4648,0,0,1-.18.128.6352.6352,0,0,1-.234.04,1.545,1.545,0,0,1-.5-.1,3.9883,3.9883,0,0,1-.53-.24,5.2,5.2,0,0,1-1.634-1.4c-.037-.049-.065-.088-.084-.115l-.02-.029v-.007h0l-.034.023.032-.025h0l-.034.023.034-.023a.242.242,0,0,0-.334-.072h0a.242.242,0,0,0-.071.334Z"/><path d="M175.79,281.078h0a1.8126,1.8126,0,0,1,.653.193,4.7722,4.7722,0,0,1,1.585,1.295,7.87,7.87,0,0,0,1.122,1.119,3.7467,3.7467,0,0,0,.777.48,2.2112,2.2112,0,0,0,.9.2,1.8111,1.8111,0,0,0,.756-.165.2421.2421,0,0,0-.2-.441h0a1.3257,1.3257,0,0,1-.557.122,1.7233,1.7233,0,0,1-.7-.163,3.79,3.79,0,0,1-.986-.682,8.6175,8.6175,0,0,1-.741-.784,5.1821,5.1821,0,0,0-1.8-1.441,2.1446,2.1446,0,0,0-.809-.217.2421.2421,0,0,0-.242.241h0a.242.242,0,0,0,.242.242h0Z"/><path d="M178.574,283.965a.968.968,0,0,0,.9517.984h0a.968.968,0,0,0,.974-.838,4.7982,4.7982,0,0,1-1.569-.881A.961.961,0,0,0,178.574,283.965Z"/><path d="M186.561,290.379a.968.968,0,0,0,1.927.145,4.7992,4.7992,0,0,1-1.569-.881A.9663.9663,0,0,0,186.561,290.379Z"/><path class="ad" d="M173.432,293.481a10.8271,10.8271,0,0,0,1.694,3.509c1.043,1.355,3.752,3.631,4.961,1.452S173.432,293.481,173.432,293.481Z"/><path class="ao" d="M148.815,331.269s2.642,23.035,6.165,27.017c5.567,6.293,17,8.38,19.121,8.592,0,0-10.753-1.124-13.433-1.694-5.688-1.212-10.045-2.421-10.045-2.421C150.495,359.012,148.815,331.269,148.815,331.269Z"/><path d="M214.334,379.601l-8.741-4.977h-.033s-1.97,0-4.421.106a49.1332,49.1332,0,0,0-7.344.744,16.0312,16.0312,0,0,1-3.422.382,12.4744,12.4744,0,0,1-2.139-.175c-.248-.043-.439-.087-.57-.12-.064-.016-.112-.03-.143-.039l-.036-.011h-.009l-.071.23a10.5309,10.5309,0,0,0,2.974.357,16.2723,16.2723,0,0,0,3.474-.388,48.9438,48.9438,0,0,1,7.3-.739c1.224-.053,2.3269-.079,3.1239-.093.4-.006.72-.01.943-.011h.345v-.121l-.06.106,8.706,4.959Z"/><path class="ao" d="M201.808,366.175c-7.218-.793-6.449-2.95-7.26-4.743-1.795.817-6.942,3.221-9.147,4.311l.312,2.709a10.954,10.954,0,0,0,1.452,5.325s5.567.605,14.522-1.331c2.781-.6,7.513,1.589,7.513,1.589s2.694,1.489,9.013-1.488c-5.666-.4-2.709-7.094-2.709-7.094C211.445,364.722,207.882,366.846,201.808,366.175Z"/><path d="M176.699,342.814a.4685.4685,0,0,0,0,.053c.023.25.116,1.37.116,3.042,0,4.108-.565,11.55-4.091,17.611a.182.182,0,0,0,.314.183h0c3.578-6.162,4.135-13.652,4.14-17.793,0-1.925-.123-3.126-.123-3.131a.182.182,0,0,0-.3639.0087.1786.1786,0,0,0,.0029.0283Z"/><path class="ad" d="M165.747,294.99s1.574,7.382,7.261,10.045c0,0-2.709,5.407-1.738,9.764a7.78,7.78,0,0,1-3.88.048,12.2522,12.2522,0,0,0,1.988-8.36C168.844,302.118,166.11,298.99,165.747,294.99Z"/><path class="i" d="M151.087,297.551s-2.7,4.307.137,7.366c0,0-2.036,2.9-3.389,2.9a8.063,8.063,0,0,1-1.2-6.644,5.2109,5.2109,0,0,1,4.455-3.626Z"/><path class="j" d="M153.04,304.312s5.567,3.509,7.053,12.214c0,0,.087,1.219-2.21.976,0,0-2.541-7.986-7.261-11.86C150.619,305.643,151.83,303.222,153.04,304.312Z"/><path class="j" d="M150.621,305.643l-1.373,1.368s3.786,5.9,6.456,11.217a7.4161,7.4161,0,0,0,2.178-.726S155.947,310.121,150.621,305.643Z"/><path class="h" d="M149.291,306.974l-1.936,1.212s1.372,7.725,6.456,10.992l1.9-.948S153.564,313.845,149.291,306.974Z"/><path class="j" d="M178.936,314.84s-1.574-2.178-5.567,1.089-4.021,6.957-2.541,7.5c1.149.424,2.6.3,5.384-1.755S180.328,316.595,178.936,314.84Z"/><path class="j" d="M179.495,316.551a2.6679,2.6679,0,0,1,.478,3.305c-2.9,4.592-6.3,4.968-6.3,4.968a1.9,1.9,0,0,1-1.668-1.194"/><path class="h" d="M173.673,324.825l1.089.968s4.719-1.212,6.417-5.566l-.827-1.744S179.845,322.649,173.673,324.825Z"/><path class="i" d="M177.002,314.13a4.8268,4.8268,0,0,0,2.118-2.374c.847-1.815,1.91,4.229,1.015,5.685a6.9714,6.9714,0,0,0-.652-.844,2.2768,2.2768,0,0,0-2.481-2.467Z"/><path class="v" d="M214.033,375.712a21.393,21.393,0,0,0-5.758-3.62,23.294,23.294,0,0,0-7.037.406c-8.12,1.489-11.775,1.624-14.075,1.218a62.4143,62.4143,0,0,1-.48,9.257l19.7-3.032s5.414,1.624,7.308,2.165a2.4418,2.4418,0,0,0,2.709-.541l-.79-.408c.253.0841,1.455-.086,1.331-.726,1.212.121.967-.484.967-.484C219.478,380.19,214.574,376.251,214.033,375.712Z"/><path class="ad" d="M217.141,380.297l-7.075-5.253-.055-.01a24.3616,24.3616,0,0,0-3.983-.232c-.912,0-1.991.026-3.247.093a.242.242,0,1,0,.009.4839l.017-.0009c1.248-.068,2.317-.093,3.221-.093,1.355,0,2.332.057,2.969.113.319.029.552.056.7.077l.17.025.04.006h.009l.045-.238-.143.194,7.03,5.22a.2423.2423,0,0,0,.289-.389Z"/><path class="ad" d="M216.251,381.24l-8.264-3.775-5.739.137a.2421.2421,0,1,0,.012.484l5.628-.134,8.163,3.729a.242.242,0,0,0,.2232-.4295l-.0232-.0105Z"/><path class="ad" d="M218.124,379.826l-7.79-6.82-4.82-.275a.242.242,0,0,0-.255.227h0a.2419.2419,0,0,0,.227.255l4.654.266,7.664,6.711a.242.242,0,0,0,.319-.364h.001Z"/><path d="M171.449,319.297a9.3413,9.3413,0,0,1,4.463-3.986.42.42,0,0,1,.529.57,8.9294,8.9294,0,0,1-1.74,2.468,6.5054,6.5054,0,0,1-2.676,1.685.5.5,0,0,1-.576-.737Z"/><path class="i" d="M172.947,292.331a1.2991,1.2991,0,0,0,.3.441,2.6052,2.6052,0,0,0,.424.344,2.5142,2.5142,0,0,0,.233.147c.08.046.162.088.242.132s.165.083.249.123.167.078.255.112.169.071.257.107l.263.1.553.2c.371.136.744.273,1.114.424a18.0858,18.0858,0,0,1,2.2,1.037,9.611,9.611,0,0,1,1.057.692,6.0653,6.0653,0,0,1,.971.908.7933.7933,0,0,1-1.211,1.025l-.016-.021a7.5816,7.5816,0,0,0-1.561-1.405c-.605-.428-1.2609-.826-1.931-1.209-.337-.19-.674-.382-1.017-.57-.173-.1-.341-.182-.519-.285l-.268-.154c-.089-.051-.175-.111-.262-.166a3.0943,3.0943,0,0,1-.254-.181c-.082-.064-.167-.123-.246-.194s-.16-.136-.233-.214a2.85,2.85,0,0,1-.214-.231,2.4931,2.4931,0,0,1-.3559-.531,1.4192,1.4192,0,0,1-.1141-.3.9322.9322,0,0,1-.032-.329.06.06,0,0,1,.065-.054h0a.0608.0608,0,0,1,.05.039Z"/><path d="M150.585,305.805l.009-.019-.009.019h0l.009-.019-.009.019a9.6912,9.6912,0,0,1,2.555,2.341,26.8828,26.8828,0,0,1,4.687,9.412.1811.1811,0,0,0,.2255.1212l0,0h0a.1819.1819,0,0,0,.121-.226,27.1544,27.1544,0,0,0-4.79-9.578,9.8573,9.8573,0,0,0-2.633-2.39.181.181,0,0,0-.167.321h0Z"/><path class="ao" d="M133.585,315.567s-5.96,32.675,5.295,52.4c0,0,3.146,7.5,15.49,7.986s32.476,7.323,31.283,10.2c-1.392,3.355-7.2,5.589-16.519,3.476-6.371-1.445-26.26-6.535-32.07-12.827S122.965,340.13,133.585,315.567Z"/><path d="M150.619,362.698a3.89,3.89,0,0,0-1.372.334,6.0172,6.0172,0,0,0-2.653,2.292.182.182,0,0,0,.2722.2417.1849.1849,0,0,0,.0278-.0417,5.6432,5.6432,0,0,1,2.491-2.16,4.1539,4.1539,0,0,1,.895-.268c.109-.019.2-.029.253-.033h.083a.181.181,0,0,0,.181-.181h0a.1821.1821,0,0,0-.182-.181Z"/><path d="M148.381,330.592s.008.071.023.214c.226,2.094,2.033,19.267,2.033,31.958h.181l-.09-.158a.1892.1892,0,0,0-.056.049.1833.1833,0,0,0-.036.111.2.2,0,0,0,.028.1.22.22,0,0,0,.068.067.7388.7388,0,0,0,.134.064c.11.043.3.1.642.2,1.037.293,3.488.9,9.315,2.163.622.135,1.488.255,2.538.379a116.03,116.03,0,0,1,14.563,2.2,21.7751,21.7751,0,0,1,6.453,2.555,7.2606,7.2606,0,0,1,1.992,1.844,4.3684,4.3684,0,0,1,.814,2.294q.078,1.3849.077,2.594c0,4.682-.816,7.462-1.617,9.066a6.5323,6.5323,0,0,1-1.093,1.615,3.1959,3.1959,0,0,1-.351.318c-.041.031-.071.053-.093.067l-.022.014h0l.051.09-.05-.091h0l.051.09-.05-.091a.182.182,0,0,0-.0719.247h0a.1819.1819,0,0,0,.247.072h0a5.1009,5.1009,0,0,0,1.711-2.171c.833-1.666,1.655-4.505,1.655-9.228q0-1.221-.077-2.615a4.8192,4.8192,0,0,0-1.112-2.791,12.02,12.02,0,0,0-5.32-3.3,56.3,56.3,0,0,0-11.475-2.424c-1.9-.242-3.693-.428-5.2-.6s-2.749-.322-3.534-.492c-4.8859-1.057-7.4-1.656-8.681-1.991-.642-.168-.978-.27-1.148-.33a1.2005,1.2005,0,0,1-.143-.056h0l-.006.009.006-.009h0l-.006.009.006-.009-.066.1.091-.081a.13.13,0,0,0-.024-.021l-.066.1.091-.081-.125.112.15-.071a.1723.1723,0,0,0-.026-.039l-.125.112.15-.071-.16.077h.177a.1831.1831,0,0,0-.017-.077l-.16.077h0l.143.108a.1806.1806,0,0,0,.036-.108h-.179l.1431.108-.1431-.108.089.156a.1725.1725,0,0,0,.055-.048l-.143-.108.089.156.091-.052v-.106c0-13.57-2.058-32.207-2.059-32.21a.181.181,0,0,0-.2-.16h0a.1809.1809,0,0,0-.1611.1989l0,.0011h0Z"/><path d="M200.753,356.796a2.5788,2.5788,0,0,0-.727.765,11.09,11.09,0,0,0-1.417,3.214.181.181,0,1,0,.348.1,10.7226,10.7226,0,0,1,1.366-3.109,3.3269,3.3269,0,0,1,.455-.536,1.3643,1.3643,0,0,1,.12-.1l.027-.019h0l-.061-.1.059.106h0l-.061-.1.059.106a.1809.1809,0,0,0,.0722-.2456l0,0h0a.181.181,0,0,0-.2456-.0722l0,0h0Z"/><path class="i" d="M186.568,391.909l33.637,2.923v2.516l-33.643-3.025Z"/><path d="M220.205,394.832v2.516l41.7-19.274v-2.149Z"/><path d="M172.067,323.8a16.0371,16.0371,0,0,0,3.228-1.711,13.2115,13.2115,0,0,0,2.537-2.222,8.8081,8.8081,0,0,0,1.825-3.218.181.181,0,0,0-.34-.1244l-.007.0244a8.4467,8.4467,0,0,1-1.751,3.086,13.9285,13.9285,0,0,1-3.662,2.9,15.1131,15.1131,0,0,1-1.4.7c-.174.077-.3129.134-.409.172l-.108.042-.028.01h-.009a.181.181,0,0,0-.1092.2315l0,0h0a.1811.1811,0,0,0,.2316.1092l0,0h.001Z"/><path class="c" d="M173.218,262.77l.013.011c.133.109,1.293,1.069,2.649,2.394a24.0322,24.0322,0,0,1,3.813,4.578l.418-.244a24.9291,24.9291,0,0,0-4.025-4.809c-1.4-1.358-2.558-2.3-2.563-2.305l-.306.375Z"/><path d="M146.539,304.88s-4.92-.373-6.393,1.174a26.172,26.172,0,0,1,6.346-4.326,7.743,7.743,0,0,0,.047,3.151Z"/><path class="ao" d="M138.722,378.276v4.389l1.426,1.1,5.833-1.388a65.8165,65.8165,0,0,1-7.259-4.109Z"/><path class="i" d="M200.799,256.143a72,72,0,0,1,54.864,69.952,70.7251,70.7251,0,0,1-14.12,42.715.242.242,0,0,0,.049.338h0a.243.243,0,0,0,.339-.049h0a71.2166,71.2166,0,0,0,14.212-43,72.5169,72.5169,0,0,0-55.227-70.421.242.242,0,1,0-.1444.462l.0234.006Z"/><path class="v" d="M222.431,364.018c.911.009,1.663.019,2.792.058,1.306.045,2.907-.093,3.4.031.824.209,1.052.851,1.621,1.288s5.053,2.353,5.372,3.017a22.9287,22.9287,0,0,1,.816,2.544l5.087,5.673a5.48,5.48,0,0,1-4.6709-.016c-2.4241-1.2-8-5.339-9.918-5.826s-1.3081.545-1.3081.545,1.322.525,2.1741.927c1.444.684,2.5109,1.331,2.234,2.429s-3.319-.356-3.319-.356-4.115-1.057-5.537-1.212a26.6064,26.6064,0,0,1-4.293-.873c-3.717-1.183-2.04-6.631-.89-7.528a4.1928,4.1928,0,0,1,1.64-1.024A40.74,40.74,0,0,0,222.431,364.018Z"/><path class="ad" d="M230.524,366.572c.233.186.558.415.932.667.561.378,1.231.806,1.842,1.2s1.166.747,1.487.975a3.0319,3.0319,0,0,1,.423.4c.24.263.5.587.7.843.1.128.181.24.239.319l.067.093.0239.033.008.011,5.062,5.626a.242.242,0,0,0,.3723-.3093l-.0132-.0147L236.614,370.8l-.18.162.2-.143s-.246-.347-.56-.741c-.157-.2-.331-.407-.5-.595a3.5034,3.5034,0,0,0-.5-.467c-.226-.16-.548-.37-.918-.61-.556-.357-1.224-.784-1.835-1.181s-1.166-.775-1.485-1.031a.2421.2421,0,0,0-.34.037h0a.242.242,0,0,0,.038.34h0Z"/><path class="ad" d="M241.162,376.646l-.046-.033c-.234-.163-1.3-.907-2.476-1.79-.588-.441-1.2-.918-1.755-1.371a16.0818,16.0818,0,0,1-1.37-1.234,14.35,14.35,0,0,0-1.514-1.32c-1.787-1.391-4.1-2.852-4.105-2.858a.243.243,0,0,0-.335.075h0a.242.242,0,0,0,.075.333h0l.046.029c.226.143,1.263.81,2.412,1.617.574.4,1.176.843,1.718,1.269a13.2815,13.2815,0,0,1,1.351,1.186,17.4,17.4,0,0,0,1.527,1.368c1.816,1.48,4.194,3.124,4.2,3.126a.242.242,0,0,0,.336-.061h0a.242.242,0,0,0-.0607-.3368l0,0Z"/><path class="ad" d="M227.514,371.807h-.015c-.078-.026-.448-.148-.915-.327a13.5984,13.5984,0,0,1-1.5-.667,8.524,8.524,0,0,1-1.328-.917c-.178-.146-.324-.276-.428-.369-.051-.046-.091-.083-.117-.108l-.03-.028-.007-.007h0a.2419.2419,0,0,0-.342,0h0a.2419.2419,0,0,0,0,.342h0s.242.237.612.543a9.0326,9.0326,0,0,0,1.408.97,14.4441,14.4441,0,0,0,1.65.729c.4939.187.8559.3.8609.3a.242.242,0,0,0,.3-.156h0a.242.242,0,0,0-.156-.3h0Z"/><path class="i" d="M220.235,394.832l18.81-30.971,41.669-18.921-18.807,30.971"/><path class="h" d="M239.044,363.862s-3.066,10.594,4.368,11.924,17.083-4.952,18.494.143l-41.7,18.9Z"/><path d="M197.373,344.197l3.321,12.912.108.025s3.585.824,10.1,1.634a13.848,13.848,0,0,1,4.579,1.12,4.7257,4.7257,0,0,1,1.569,1.276,5.6,5.6,0,0,1,.993,2.118.1278.1278,0,0,1,0,.029h0a.0975.0975,0,0,1-.021.019.8307.8307,0,0,1-.191.086c-.164.058-.4.123-.674.241a3.4053,3.4053,0,0,0-1.342,1.033,6.5252,6.5252,0,0,0-1.154,2.612,6.6227,6.6227,0,0,0-.192,1.52,4.0266,4.0266,0,0,0,.619,2.241,4.3578,4.3578,0,0,0,2.075,1.621,5.3125,5.3125,0,0,0,1.241.337.182.182,0,0,0,.041-.361h0a5.1613,5.1613,0,0,1-1.854-.664,3.4889,3.4889,0,0,1-1.756-3.174,6.2435,6.2435,0,0,1,.181-1.437,6.6071,6.6071,0,0,1,.92-2.249,3.3016,3.3016,0,0,1,.8-.828,3.6144,3.6144,0,0,1,1.063-.5,2.0745,2.0745,0,0,0,.388-.153.4878.4878,0,0,0,.153-.135.3707.3707,0,0,0,.068-.214.4893.4893,0,0,0-.015-.118,5.9533,5.9533,0,0,0-1.059-2.252,5.6056,5.6056,0,0,0-2.721-1.809,18.9641,18.9641,0,0,0-3.67-.724c-3.247-.4-5.764-.811-7.467-1.118-.852-.153-1.5-.281-1.935-.37l-.492-.1-.123-.027-.041-.009-.041.177.176-.046-3.293-12.8a.181.181,0,0,0-.22-.131h0a.181.181,0,0,0-.1322.2192l0,.0008h0Z"/><path class="ap" d="M407.832,79.958a3.6325,3.6325,0,0,0-.4,1.565l-.183,2.483c-.044,1.078-.225,1.685-1.171,2.158,0,0,.431,2.285-1.509,3.06s1.035,4.353-2.844,5.172-10.1859-.33-12.28-2.415c-1.685-1.674-4.8-8.474-4.8-9.73,0,0,6.225-8.852,8.052-13.706s8.343-15.97,14.433-18.63c0,0,4.253,5.755,4.17,15.275a5,5,0,0,1-.594,2.678,9.6836,9.6836,0,0,0-.876,2.949c-.3.991-.786.627-.916,1.877,0,0,1.027,3.819,1.159,5.088a1.8231,1.8231,0,0,1-.883,1.7,4.2151,4.2151,0,0,1-1.366.48Z"/><path class="an" d="M392.665,125.055c0-2.994,4.49-6.612,4.2119-11.352,0,0,3.4261-1.235,4.336-1.685,3.8121-1.877,4.2421-4.928,1.185-7.173a29.0072,29.0072,0,0,1-4.6779-4.179,10.7132,10.7132,0,0,0,1-1.747,49.7358,49.7358,0,0,1,3.011-4.525,27.5806,27.5806,0,0,1-6.8-.188,10.682,10.682,0,0,1-7.8481-5.778c-1.2089-2.4-2.551-5.339-2.7589-6.9a59.9929,59.9929,0,0,0,9.674-15.758c3.57-8.817,9.553-15.408,14.377-16.558a.217.217,0,0,0,.089-.381c-.484-.393-1.452-1.206-2.883-2.539-2.145-2-9.445-4.081-11.6-4.631a19.55,19.55,0,0,0-19.7,6.045c-2.355,2.587-3.307,5.94-3.947,6.29-1.706.926-4.436,3.106-4.582,10.742-.135,7.016-4.534,4.99-1.934,12.218a22.5346,22.5346,0,0,1,.468,5.491c0,1.248-3.221,1.787-3.221,1.787-5.923,5.377-15.077,4.9-17.219,5.963s-2.141,1.067-2.686,1.72c-1.275,1.53-.765,2.329-.765,2.329l6.779-1.874a9.5569,9.5569,0,0,1,11.288,5.273,24.6979,24.6979,0,0,1,1.083,2.961c2.994,10.043,4.179,17.84,9.544,22.393a11.1639,11.1639,0,0,0,2.371,9.052c3.1,3.63,1.3109,5.233,3.15,5.731s3.4-.187,5.956,2.994,6.177,2.557,6.425,1.373-.544-6.514.8109-8.546,4.8661-5.551,4.8661-8.546"/><g class="aq"><path class="ar" d="M396.598,128.202c0-2.994,4.493-6.612,4.212-11.352,0,0,3.426-1.235,4.336-1.685,3.812-1.877,4.242-4.928,1.1859-7.173a28.9831,28.9831,0,0,1-4.679-4.179,10.6976,10.6976,0,0,0,1-1.747,49.8822,49.8822,0,0,1,3.011-4.525,3.421,3.421,0,0,0-2.841-3.916q-.121-.019-.244-.03c-3.393-.535-10.018,1.049-11.561-2.019-1.21-2.4-2.551-5.339-2.758-6.9a59.9619,59.9619,0,0,0,9.673-15.758c3.571-8.817,9.554-15.408,14.377-16.558a.217.217,0,0,0,.089-.38c-.484-.393-1.452-1.206-2.882-2.539-2.1451-2-9.446-4.081-11.6-4.631a19.5481,19.5481,0,0,0-19.7,6.045c-2.355,2.587-3.307,5.94-3.947,6.29-1.706.926-4.436,3.106-4.582,10.742-.135,7.016-4.535,4.991-1.933,12.218a22.53,22.53,0,0,1,.468,5.491c0,1.249-3.221,1.787-3.221,1.787-5.924,5.377-15.077,4.9-17.218,5.963s-2.141,1.067-2.686,1.72c-1.275,1.53-.765,2.329-.765,2.329l6.779-1.874a9.558,9.558,0,0,1,11.288,5.273,24.5663,24.5663,0,0,1,1.0741,2.954c2.994,10.043,4.179,17.84,9.544,22.393a11.163,11.163,0,0,0,2.3709,9.052c3.1,3.63,1.311,5.233,3.15,5.731s3.4-.187,5.956,2.994,6.177,2.557,6.424,1.372-.544-6.514.81-8.546,4.866-5.551,4.866-8.546"/></g><path class="an" d="M374.009,90.624c-3.239.618-6.453-2.408-8.263-1.089s-1.681,4.282.4261,7.425c-.717,0-4.5231-4.9-4.9421-9.728-.3-3.449,4.9421-1.936,4.9421-1.936S369.857,89.223,374.009,90.624Z"/><path class="an" d="M392.504,112.06c-3.681,4.645-13.093-2.347-16.463-6.845-4.055-5.411-9.243-6.531-11.784-10.393a22.537,22.537,0,0,1-3.4-10.393l-7.314,7.816s4.4329-1.835,8.11,3.819,7.4329,4.6,13.3389,10.7C380.245,112.202,386.852,119.602,392.504,112.06Z"/><path class="an" d="M368.173,100.569a13.442,13.442,0,0,0-4.0171-5.928,24.8084,24.8084,0,0,1-2.241-1.913c-.55-.592-.987-1.292-1.592-1.826a7.2755,7.2755,0,0,0-3.523-1.47,4.8722,4.8722,0,0,0-3.068.141,4.207,4.207,0,0,0-1.1649.922,2.2222,2.2222,0,0,0-.7861,1.87,2.1442,2.1442,0,0,0,.505.883c2.058,2.436,5.417,3.635,7.076,6.358,1.1581,1.9,1.357,4.354,2.88,5.973.225.24.63.455.852.211.1-.112,1.093.5,1.071.347-.189-1.275-1.011-4.066.3-4.955s3.3.34,4.14.7Z"/><path class="aa" d="M340.393,94.242s-2.086.235-4.535,4.822-13.3,36.459-10.7639,57.586c0,0-.842,7.357,14.143,6.953l30.534.426s-2.058-7.581.976-12.055l7.563,1.629,14.193-2.078,14.8319,7.967s2.331-36.652-1.253-46.508l-1.9409-4.123s-.149,3.122-6.2161,4.179a7.3511,7.3511,0,0,1-.41,4.374c-.6681,1.5-2.816,3.01-3.331,3.782-2.808,4.212.5,5.313-6.387,12.4-1.8871,1.943.3,7.058-.81,8.546-1.5931,2.14-5.375-.312-6.4241-1.372,0,0-6.6-6.191-8.065-7.311-4.369-3.342-3.4119-10.554-3.4119-10.554-4.79-1.685-8.362-16.7-9.544-22.3C357.011,88.576,345.665,91.761,340.393,94.242Z"/><rect class="aa" x="335.841" y="147.628" width="68.845" height="17.703"/><path d="M354.486,120.364c1.9,3.109-2.13,17.409.928,22.744,3.273,5.715,8.433,7.741,13.381,8.116,0,0-11.744-2.022-23.488-3.768C349.578,144.745,354.109,119.745,354.486,120.364Z"/><path d="M409.079,64.803c.2.032.3851.067.574.1s.377.077.562.118c.375.084.7491.179,1.123.292a.509.509,0,0,1-.155,1h-.011c-.353-.006-.712.005-1.07.025-.18.01-.359.023-.538.038s-.363.031-.529.052a.823.823,0,1,1,.024-1.63Z"/><path d="M404.931,66.128l-2.3-1.037c-.38-.168-.762-.337-1.135-.488a7.1757,7.1757,0,0,0-1.1-.364,5.4971,5.4971,0,0,0-.5771-.1c-.202-.024-.422-.062-.583-.074a5.3051,5.3051,0,0,0-1.146.067,13.1565,13.1565,0,0,0-2.359.621h-.012a.323.323,0,0,1-.4126-.196l-.0014-.004h0a.3231.3231,0,0,1,.161-.4,13.92,13.92,0,0,1,2.422-.96,6.3135,6.3135,0,0,1,1.352-.24c.117-.007.255,0,.353,0h.323c.216,0,.444.013.674.034a8.4589,8.4589,0,0,1,1.348.257c.425.112.8331.232,1.2411.353l2.423.737a.959.959,0,0,1,.6415,1.1949l-.0015.0051h0a.96.96,0,0,1-1.1975.64l-.0025-.0008a.9432.9432,0,0,1-.112-.041Z"/><path d="M403.798,68.374a.3935.3935,0,0,1-.294-.131c-.03-.031-.961-.929-4.256-.741a17.188,17.188,0,0,1-3.408-.006.3929.3929,0,0,1-.315-.4579v0h0a.3931.3931,0,0,1,.4571-.3162l.0009,0a17.4836,17.4836,0,0,0,3.22-.006c3.739-.215,4.787.883,4.895,1.011a.393.393,0,0,1-.044.554h0a.3924.3924,0,0,1-.255.092Z"/><path class="as" d="M407.433,81.916a.3929.3929,0,0,1-.393-.393h0a3.1293,3.1293,0,0,1,.415-1.6.393.393,0,0,1,.5434-.1164l.0006,0h0a.393.393,0,0,1,.117.542,2.3764,2.3764,0,0,0-.29,1.172.3931.3931,0,0,1-.393.393h0Z"/><path class="i" d="M397.768,83.907a.184.184,0,0,1,.209-.281,6.0881,6.0881,0,0,0,3.3.248c2.517-.654,4.781-1.039,6.135-.174,0,0,.072,1.875-1.337,2.463,0,0,.4,2.5-1.508,3.061,0,0-1.746-.267-3.771-3C399.572,84.564,398.103,84.381,397.768,83.907Z"/><path class="as" d="M409.097,53.733a4.4392,4.4392,0,0,0-1.554-.717c-2.27-.6-4.1841.805-5.872,2.437a44.492,44.492,0,0,0-3.9551,5.19c-1.268,1.675-4.508,9.669-5.155,11.335-1.43,3.693-4.668,7.148-3.565,12.668s3.463,9.018,4.685,9.328a14.49,14.49,0,0,1-5.248-3.477c-1.912-2.231-4.017-7.875-4.114-8.972,0,0,6.761-9.154,7.7-11.387s3.239-7.158,4.263-8.845,5.62-9.06,8.69-10.619c1.534-.779,1.308-1.092,2.009-.562A11.6653,11.6653,0,0,1,409.097,53.733Z"/><path class="at" d="M392.669,125.449a.393.393,0,0,1-.393-.393h0c0-1.428,1.053-2.848,2.272-4.493,1.469-1.981,3.133-4.226,2.9829-6.77a.3932.3932,0,0,1,.2-.368c.1-.053,2.4-1.312,3.307-1.759,1.807-.89,2.864-2.072,2.976-3.328a3.7311,3.7311,0,0,0-1.848-3.175,29.1282,29.1282,0,0,1-4.7471-4.243.3932.3932,0,0,1,0-.505,11.23,11.23,0,0,0,.948-1.671.393.393,0,0,1,.527-.176h0a.3929.3929,0,0,1,.176.527h0a16.81,16.81,0,0,1-.851,1.541,30.6988,30.6988,0,0,0,4.412,3.892,4.4627,4.4627,0,0,1,2.166,3.878c-.136,1.541-1.348,2.949-3.411,3.965-.734.362-2.458,1.3-3.063,1.629.053,2.718-1.643,5.006-3.145,7.033-1.089,1.469-2.118,2.856-2.118,4.024a.393.393,0,0,1-.393.393h-.0009Z"/><path class="at" d="M387.798,133.993a.3931.3931,0,0,1-.326-.613h0c.31-.458.73-.988,1.211-1.6,1.513-1.922,3.586-4.556,3.586-6.722a.393.393,0,0,1,.393-.393h0a.393.393,0,0,1,.3931.393h0c0,2.439-2.17,5.2-3.7551,7.208-.4749.6-.8839,1.123-1.179,1.558A.3929.3929,0,0,1,387.798,133.993Z"/><path class="an" d="M406.699,49.917c3.885,3.947,5.11,15.574,3.594,18.064a8.8932,8.8932,0,0,0-1.375,4.717,4.9372,4.9372,0,0,0,.518,1.748c4.1061-5.352,2.844-14.59,2.527-17.205-.375-3.08-2.54-8.027-3.426-8.3-.367-.112-1.6.549-1.6.549"/><path d="M410.292,70.065a.3991.3991,0,0,1-.138-.025,3.6713,3.6713,0,0,0-1.875-.329.3934.3934,0,1,1-.2-.761h0a4.1254,4.1254,0,0,1,2.352.353.394.394,0,0,1-.14.762Z"/><path d="M409.64,69.438s.242,2.963-.722,3.257a29,29,0,0,1-.735-3.366,4.3,4.3,0,0,1,1.457.108Z"/><path class="an" d="M384.319,81.916a.388.388,0,0,1-.3-.139c-.1179-.14-2.854-3.563.9-14.532,3.624-10.6,2.728-14.845,2.718-14.887a.3933.3933,0,1,1,.766-.179c.042.177.976,4.454-2.74,15.321-3.577,10.458-1.064,13.742-1.038,13.773a.395.395,0,0,1-.305.642Z"/><path class="an" d="M383.579,74.509h-.038a.3929.3929,0,0,1-.354-.4284V74.08h0a101.595,101.595,0,0,0,.27-10.869.393.393,0,0,1,.383-.4h0a.3931.3931,0,0,1,.4.384h0a102.3242,102.3242,0,0,1-.274,10.964.3931.3931,0,0,1-.391.354Z"/><path class="ar" d="M371.073,65.405a.393.393,0,0,1-.37-.259,17.0159,17.0159,0,0,1,.831-14.1,17.8242,17.8242,0,0,1,4.065-5.2.394.394,0,0,1,.5.609h0a17.3882,17.3882,0,0,0-3.878,4.987,16.0749,16.0749,0,0,0-.774,13.435.393.393,0,0,1-.2329.5h0a.3885.3885,0,0,1-.1351.023Z"/><path class="ar" d="M369.369,77.547a.393.393,0,0,1-.337-.191,27.7813,27.7813,0,0,1-2.876-8.031c-.562-2.527-.8-4.526-.8-4.545a.3931.3931,0,0,1,.3447-.436h0a.393.393,0,0,1,.435.346h0c.009.078.923,7.842,3.567,12.262a.393.393,0,0,1-.135.539h0A.3934.3934,0,0,1,369.369,77.547Z"/><path class="ar" d="M374.012,91.016a.3933.3933,0,0,1-.148-.029c-7.9-3.224-9.869-8.195-9.948-8.4l-.027-.072v-.077a22.4012,22.4012,0,0,0-.445-5.348c-1.528-4.245-.6859-5.528.289-7.012a8.6424,8.6424,0,0,0,1.622-5.346c.164-8.57,3.6451-10.459,4.7881-11.08a.3933.3933,0,1,1,.3759.691h0c-1.044.567-4.221,2.291-4.3759,10.4a9.4342,9.4342,0,0,1-1.751,5.763c-.929,1.416-1.6,2.439-.206,6.314a21.6234,21.6234,0,0,1,.493,5.55,10.9915,10.9915,0,0,0,1.856,2.74,20.3053,20.3053,0,0,0,7.627,5.15.394.394,0,0,1,.216.512h0a.3931.3931,0,0,1-.363.245Z"/><path class="at" d="M393.184,101.567a.3931.3931,0,1,1-.021-.786h0c2.5089-.129,5.289-2.158,5.317-2.178a.393.393,0,0,1,.55.0825l0,.0005h0a.393.393,0,0,1-.0826.55l0,0h0a12.627,12.627,0,0,1-5.743,2.331Z"/><path class="ar" d="M384.954,143.509a6.1,6.1,0,0,1-4.7-2.484,31.0554,31.0554,0,0,0-4.31-4.151,39.5821,39.5821,0,0,1-4.789-4.566,11.4565,11.4565,0,0,1-2.5-9.158c-4.3061-3.772-5.9131-9.6-7.942-16.963-.482-1.752-.982-3.562-1.5491-5.466a24.3594,24.3594,0,0,0-1.064-2.916,9.0571,9.0571,0,0,0-4.465-4.528,9.2547,9.2547,0,0,0-6.361-.526l-6.779,1.874a.3921.3921,0,0,1-.5-.378c-.01-4.268,5.143-4.98,9.283-5.552a26.19,26.19,0,0,0,4.125-.774,22.6241,22.6241,0,0,0,7.188-3.783.3929.3929,0,0,1,.651.282,22.3222,22.3222,0,0,0,3.336,10.19,16.4148,16.4148,0,0,0,4.868,4.268,26.2842,26.2842,0,0,1,6.9,6.1c2.56,3.417,9.17,8.46,13.3,8.267a2.8851,2.8851,0,0,0,2.513-1.392.3929.3929,0,0,1,.5405-.1293l0,0h0a.393.393,0,0,1,.1293.54l0,.0005h0a3.6651,3.6651,0,0,1-3.145,1.766c-1.994.092-4.711-.933-7.655-2.888a27.1307,27.1307,0,0,1-6.311-5.693,25.6,25.6,0,0,0-6.713-5.923,17.2134,17.2134,0,0,1-5.085-4.489,22.7643,22.7643,0,0,1-3.409-9.843,24.3625,24.3625,0,0,1-6.868,3.468,26.6148,26.6148,0,0,1-4.261.805c-3.831.529-8.147,1.123-8.571,4.245l6.246-1.727a10.04,10.04,0,0,1,6.9.571,9.8417,9.8417,0,0,1,4.852,4.922,25.2522,25.2522,0,0,1,1.1,3.011c.57,1.909,1.07,3.727,1.554,5.482,2.022,7.326,3.614,13.113,7.866,16.723a.3929.3929,0,0,1,.129.387,10.8591,10.8591,0,0,0,2.2861,8.71,39.0006,39.0006,0,0,0,4.7,4.476,31.62,31.62,0,0,1,4.414,4.258c1.1,1.364,3.025,2.543,4.859,2.1.549-.131.834-.379.874-.567a13.2391,13.2391,0,0,0,.026-2.022c-.056-2.207-.128-5.229.842-6.664a.3929.3929,0,0,1,.5457-.1052l0,0h0a.393.393,0,0,1,.1052.5457l0,0h0c-.831,1.227-.757,4.222-.708,6.2a12.76,12.76,0,0,1-.0431,2.2,1.773,1.773,0,0,1-1.46,1.17A4.1321,4.1321,0,0,1,384.954,143.509Z"/><path class="ar" d="M383.586,133.982a7.2305,7.2305,0,0,1-2.2-.385,9.9531,9.9531,0,0,1-3.707-2.253c-2.326-2.21-8.794-8.087-8.859-8.143a.3931.3931,0,0,1-.027-.555h0a.3931.3931,0,0,1,.555-.028h0c.066.059,6.54,5.94,8.873,8.156a7.652,7.652,0,0,0,5.947,2.372.3931.3931,0,0,1,.46.3121l0,.0009h0a.393.393,0,0,1-.313.459h0a3.9467,3.9467,0,0,1-.7311.062Z"/><path class="ap" d="M369.231,162.002c5.313-.092,3.96,1.076,7.37,1.853,3.136.713,13.82-.865,15.847-1.2,1.36-.225,9.944,2.435,12.174,2.049.472-.081.594-1.082-.312-1.629a7.9,7.9,0,0,0,4.387,1.123s1.482-.46.648-1.548c1.1191-.371.847-.668.67-1.169-.325-.92-16.211-10.389-18.1-10.084-.61.1-13.518,2.3-14.16,2.2-.674-.1-2.987-.674-7.123-1.629C370.633,151.974,367.72,155.663,369.231,162.002Z"/><g class="au"><path class="as" d="M368.015,159.259c2.151-.028,4.3921-.035,6.328.963.633.327,1.22.755,1.87,1.044a8.4576,8.4576,0,0,0,4.24.421c3.832-.358,7.726-1.367,11.47-.433a37.1105,37.1105,0,0,1,4.467,1.665,30.36,30.36,0,0,0,8.214,1.961,9.11,9.11,0,0,1-6.1321,3.043,34.0372,34.0372,0,0,1-6.9149-.253,101.8151,101.8151,0,0,0-10.838-.317c-4.341.076-8.745.322-12.966-.759a.5239.5239,0,0,1-.2811-.14.6.6,0,0,1-.1-.323q-.168-1.4151-.337-2.83c-.143-1.2-.211-2.61.658-3.385Z"/></g><path class="as" d="M404.31,163.374a.2943.2943,0,0,1-.206-.083,8.5656,8.5656,0,0,0-2.087-.915c-1.914-.687-9.164-3.977-9.4719-4.117a.295.295,0,0,1,.244-.536c.075.034,7.536,3.419,9.427,4.1a7.2583,7.2583,0,0,1,2.31,1.059.294.294,0,0,1-.216.4939Z"/><path class="as" d="M409.345,162.951a.2936.2936,0,0,1-.138-.034c-.107-.056-10.729-5.684-13.8791-6.982a.295.295,0,1,1,.2055-.553l.02.008h0c3.1761,1.307,13.823,6.948,13.931,7.006a.295.295,0,0,1-.139.555Z"/><path class="as" d="M404.093,165.037a40.8769,40.8769,0,0,1-6.943-1.235,25.6158,25.6158,0,0,0-4.655-.855,134.03,134.03,0,0,1-14.039,1.2,12.8447,12.8447,0,0,1-4.623-.955,11.6738,11.6738,0,0,0-4.59-.9h-.008a.295.295,0,0,1-.008-.589h0a12.3013,12.3013,0,0,1,4.8.932,12.19,12.19,0,0,0,4.427.919,133.1192,133.1192,0,0,0,13.947-1.193,21.566,21.566,0,0,1,4.881.8631c2.711.626,6.086,1.4,7.288,1.1879.046-.008.091-.081.112-.1789a.8708.8708,0,0,0-.368-.8.7113.7113,0,0,1-.3-.275l-.0659-.195.161-.13a.3.3,0,0,1,.355-.013,2.1706,2.1706,0,0,1,.182.122,8.6668,8.6668,0,0,0,4.008.959c.176-.065.554-.253.637-.514a.6374.6374,0,0,0-.177-.559l-.252-.329.393-.13c.521-.173.612-.293.627-.326a.8246.8246,0,0,0-.078-.3c-.02-.049-.039-.1-.056-.154-.2861-.436-3.8221-2.767-8.483-5.442-5.6-3.216-8.709-4.558-9.3-4.463l-.773.129c-11.411,1.917-13.2,2.115-13.478,2.073-.4681-.07-1.69-.357-3.7151-.833l-3.431-.8a.295.295,0,0,1,.132-.574h0q2,.463,3.433.8c2.01.472,3.222.758,3.667.824.293.024,2.843-.315,13.292-2.071l.777-.13c1.268-.2,7.3,3.162,9.828,4.618.083.048,8.282,4.773,8.5919,5.658.0181.052.0381.1.0561.149a.9291.9291,0,0,1,.063.763,1.1277,1.1277,0,0,1-.631.505,1.028,1.028,0,0,1,.067.767,1.6815,1.6815,0,0,1-1.067.912l-.046.015h-.045a10.6534,10.6534,0,0,1-3.385-.6l-.0511-.0191a1.2459,1.2459,0,0,1,.0071.4671.7582.7582,0,0,1-.588.65A3.4747,3.4747,0,0,1,404.093,165.037Z"/><path class="u" d="M370.748,151.974a.3908.3908,0,0,1-.07-.006c-8.512-1.55-19.0171-3.385-24.746-3.813a.8382.8382,0,0,1-.73-.521.7212.7212,0,0,1,.171-.774c2.576-2.635,4.243-9.251,6.173-16.912.87-3.453,1.77-7.024,2.854-10.694a.393.393,0,0,1,.488-.266h0a.393.393,0,0,1,.266.488h0c-1.079,3.654-1.977,7.217-2.845,10.663-1.949,7.732-3.632,14.416-6.334,17.228h.013c5.733.429,15.768,2.174,24.828,3.824a.3929.3929,0,0,1,.316.457h0A.393.393,0,0,1,370.748,151.974Z"/><path class="u" d="M399.329,151.251a.394.394,0,0,1-.345-.583h0c2.625-4.761,3.494-10.67,2.583-17.562-1.473-11.137.979-17.6,1.084-17.867a.393.393,0,0,1,.508-.225h0a.3931.3931,0,0,1,.225.508h0c-.029.075-2.48,6.57-1.0381,17.478.935,7.062.035,13.134-2.6719,18.045A.3933.3933,0,0,1,399.329,151.251Z"/><path class="j" d="M345.307,147.459s-3.268,1.549-5.675,1.348"/><path class="u" d="M345.516,147.898c-.484.194-.951.35-1.434.5s-.965.274-1.457.377a12.9574,12.9574,0,0,1-1.491.227,7.6724,7.6724,0,0,1-1.516-.017.176.176,0,0,1,.029-.35,7.2794,7.2794,0,0,0,1.425-.089,12.4518,12.4518,0,0,0,1.408-.322c.464-.134.922-.293,1.373-.466s.9-.364,1.326-.571l.018-.008a.394.394,0,1,1,.3681.6967l-.0232.0113h0Z"/><path class="at" d="M397.717,100.667s-1.67,3.656,0,6.518a13.962,13.962,0,0,1,1.846,5.516l-2.3.609a14.44,14.44,0,0,1-1.9291-5.433C394.572,103.993,396.047,101.636,397.717,100.667Z"/><path d="M369.771,164.029a16.1582,16.1582,0,0,1-.962-5.493c-22.359-.994-45.51,1.481-41.744-12.878,3.432-13.085,7.493-24.788,7.232-35.011-.356-14,8.559-16.594,8.559-16.594-7.479.207-12.059,17.3-12.059,17.3s-8.23,31.755-7.444,42.487c.582,7.942,7.211,9.47,10.621,9.729h.008C336.241,163.9,369.771,164.029,369.771,164.029Z"/><path class="at" d="M399.521,112.333s-.387-1.038-3.278-1.148c0,0,3.086,5.027-2.71,10.684C393.533,121.869,399.546,118.554,399.521,112.333Z"/><path class="as" d="M406.993,80.542a.393.393,0,0,1-.151-.757h0a.8567.8567,0,0,1,.172-.044,7.07,7.07,0,0,0,1.97-.593,1.4779,1.4779,0,0,0,.7-1.335,17.0808,17.0808,0,0,0-.8091-3.325c-.6339-2.067-1.353-4.41-1.107-6.551a.393.393,0,0,1,.435-.346h0a.393.393,0,0,1,.3461.4349v0h0c-.227,1.978.466,4.237,1.078,6.23a17.5306,17.5306,0,0,1,.8419,3.5,2.246,2.246,0,0,1-1.067,2.059,7.8812,7.8812,0,0,1-2.225.7l-.0789.017A.3864.3864,0,0,1,406.993,80.542Z"/><path class="an" d="M394.927,94.604a.4019.4019,0,0,1-.062-.005,11.09,11.09,0,0,1-8.139-5.99c-1.68-3.339-2.621-5.7-2.8-7.029l-.024-.18.121-.135a60.1127,60.1127,0,0,0,9.6-15.642c3.511-8.667,9.534-15.573,14.648-16.791a.393.393,0,0,1,.4739.29l0,.0006h0a.3929.3929,0,0,1-.2905.4738l0,0h0c-2.291.546-4.937,2.422-7.452,5.279a39.0549,39.0549,0,0,0-6.649,11.041,61.1875,61.1875,0,0,1-9.621,15.732,29.82,29.82,0,0,0,2.7,6.606,10.3,10.3,0,0,0,7.558,5.566.394.394,0,0,1-.065.783Z"/><path class="at" d="M388.512,123.862a12.6417,12.6417,0,0,1-1.485-.09.393.393,0,0,1-.3441-.4365l0-.0005h0a.393.393,0,0,1,.436-.344,7.9508,7.9508,0,0,0,6.61-1.8,10.4987,10.4987,0,0,0,2.5831-4.224c.434-1.2.8-3.3-.9911-7.669-1.1469-2.8-.056-7.312,2.161-8.948a.3931.3931,0,0,1,.55.0825l0,.0005h0a.3929.3929,0,0,1-.0825.55l-.0005,0h0c-1.936,1.428-2.913,5.549-1.9,8.016,1.9,4.625,1.481,6.915,1,8.236a11.2493,11.2493,0,0,1-2.793,4.535A8.1914,8.1914,0,0,1,388.512,123.862Z"/><path class="u" d="M369.855,163.966a.3928.3928,0,0,1-.37-.26c-2.871-7.959.81-12.211.969-12.388a.3931.3931,0,0,1,.587.523h0c-.035.04-3.52,4.1-.8171,11.6a.3929.3929,0,0,1-.37.527Z"/><path class="av" d="M304.401,165.249H444.438"/><path class="as" d="M404.516,80.025a.3931.3931,0,0,1-.117-.018,2.147,2.147,0,0,1-1.67-2.446.3929.3929,0,0,1,.4675-.3005l.0025.0005h0a.3929.3929,0,0,1,.3.4675l0,.0025h0a1.3759,1.3759,0,0,0,1.1389,1.522.393.393,0,0,1,.2571.4928v0h0A.3931.3931,0,0,1,404.516,80.025Z"/><path class="ad" d="M404.854,87.394c-.337.7-2.7-.555-2.28-1.182C402.763,85.92,405.563,85.911,404.854,87.394Z"/><circle cx="400.112" cy="68.483" r="1.516"/></svg>