<svg id="b263d42d-ba4c-4420-afe2-cc92d352e304" data-name="Layer 1" xmlns="http://www.w3.org/2000/svg" xmlns:xlink="http://www.w3.org/1999/xlink" viewBox="0 0 262 180">
  <defs>
    <style>
      .f6bd0b05-55ba-4c3e-819d-b6380b8bb3ae {
        fill: none;
      }

      .be5a7ab1-a9e0-43fd-85b7-731b18850d5a {
        fill: #fc0000;
      }

      .ec1e337b-f209-4e00-96bb-871437372210 {
        fill: #f3f3f3;
      }

      .ad833d2f-ed3e-43b8-96b4-d81c82a08372 {
        fill: #fff;
      }

      .f23b61fa-1f49-4b67-9bd1-490e1c9d3ae8 {
        fill: #ed1c24;
      }

      .b0cb5f35-069f-4fb1-8a6e-89bc150d0bc1 {
        fill: #e00;
      }

      .fd7f3380-d96c-4013-8484-ee2ad7fee43b {
        fill: #4d4d4d;
      }

      .b653a64d-b969-4761-9fdc-016ef87c8f0b {
        fill: url(#b3ffb8e5-97f5-4009-9c1c-60a4951ac9d1);
      }

      .b51d9387-2944-405e-99fe-7453623c08cb {
        fill: url(#a9f4e2e4-1ac7-4016-9fe9-f714221d7065);
      }

      .a89c13f0-bf69-4cac-a49c-ccdb0fbc3a40 {
        fill: url(#a11ec1f9-68b7-4352-8306-4f090dca546c);
      }

      .ff338f17-262d-46e4-950c-6993a06ca4ce {
        fill: url(#bdb20be6-21ea-4d83-8075-cca650ae5f94);
      }

      .b811d319-8605-4c32-ac6b-cbfc2525f4f8 {
        fill: url(#ab3e5457-c13a-4219-907c-c4589c33a25a);
      }

      .aca01ed3-9bc0-4d1c-970a-eed1a6f1870f {
        fill: url(#a32a86f4-7e4d-493c-b1a8-ef5f062449b3);
      }
    </style>
    <pattern id="b3ffb8e5-97f5-4009-9c1c-60a4951ac9d1" data-name="10 dpi 20%" width="28.8" height="28.801" patternTransform="translate(38.471 58.15) scale(0.154)" patternUnits="userSpaceOnUse" viewBox="0 0 28.8 28.801">
      <rect class="f6bd0b05-55ba-4c3e-819d-b6380b8bb3ae" width="28.8" height="28.801"/>
      <g>
        <path class="be5a7ab1-a9e0-43fd-85b7-731b18850d5a" d="M28.8,30.24A1.44,1.44,0,1,0,27.359,28.8,1.439,1.439,0,0,0,28.8,30.24Z"/>
        <path class="be5a7ab1-a9e0-43fd-85b7-731b18850d5a" d="M14.4,30.24A1.44,1.44,0,1,0,12.96,28.8,1.44,1.44,0,0,0,14.4,30.24Z"/>
        <path class="be5a7ab1-a9e0-43fd-85b7-731b18850d5a" d="M28.8,15.842A1.441,1.441,0,1,0,27.359,14.4,1.441,1.441,0,0,0,28.8,15.842Z"/>
        <path class="be5a7ab1-a9e0-43fd-85b7-731b18850d5a" d="M14.4,15.842A1.441,1.441,0,1,0,12.96,14.4,1.443,1.443,0,0,0,14.4,15.842Z"/>
        <path class="be5a7ab1-a9e0-43fd-85b7-731b18850d5a" d="M7.2,23.041A1.441,1.441,0,1,0,5.76,21.6,1.44,1.44,0,0,0,7.2,23.041Z"/>
        <path class="be5a7ab1-a9e0-43fd-85b7-731b18850d5a" d="M21.6,23.041a1.441,1.441,0,1,0-1.44-1.439A1.44,1.44,0,0,0,21.6,23.041Z"/>
        <path class="be5a7ab1-a9e0-43fd-85b7-731b18850d5a" d="M7.2,8.641A1.441,1.441,0,1,0,5.76,7.2,1.44,1.44,0,0,0,7.2,8.641Z"/>
        <path class="be5a7ab1-a9e0-43fd-85b7-731b18850d5a" d="M21.6,8.641a1.441,1.441,0,1,0-1.44-1.44A1.441,1.441,0,0,0,21.6,8.641Z"/>
      </g>
      <g>
        <path class="be5a7ab1-a9e0-43fd-85b7-731b18850d5a" d="M0,30.24A1.439,1.439,0,0,0,1.439,28.8,1.44,1.44,0,0,0,0,27.361,1.441,1.441,0,0,0-1.441,28.8,1.44,1.44,0,0,0,0,30.24Z"/>
        <path class="be5a7ab1-a9e0-43fd-85b7-731b18850d5a" d="M0,15.842A1.441,1.441,0,0,0,1.439,14.4,1.44,1.44,0,0,0,0,12.961,1.441,1.441,0,0,0-1.441,14.4,1.442,1.442,0,0,0,0,15.842Z"/>
      </g>
      <g>
        <path class="be5a7ab1-a9e0-43fd-85b7-731b18850d5a" d="M28.8,1.44A1.44,1.44,0,0,0,30.239,0,1.439,1.439,0,0,0,28.8-1.439,1.44,1.44,0,0,0,27.359,0,1.441,1.441,0,0,0,28.8,1.44Z"/>
        <path class="be5a7ab1-a9e0-43fd-85b7-731b18850d5a" d="M14.4,1.44A1.441,1.441,0,0,0,15.84,0,1.44,1.44,0,0,0,14.4-1.439,1.438,1.438,0,0,0,12.96,0,1.439,1.439,0,0,0,14.4,1.44Z"/>
      </g>
      <path class="be5a7ab1-a9e0-43fd-85b7-731b18850d5a" d="M0,1.44A1.44,1.44,0,0,0,1.439,0,1.439,1.439,0,0,0,0-1.439,1.44,1.44,0,0,0-1.441,0,1.441,1.441,0,0,0,0,1.44Z"/>
    </pattern>
    <pattern id="a9f4e2e4-1ac7-4016-9fe9-f714221d7065" data-name="10 dpi 20%" width="28.8" height="28.801" patternTransform="translate(37.185 58.472) scale(0.154)" patternUnits="userSpaceOnUse" viewBox="0 0 28.8 28.801">
      <rect class="f6bd0b05-55ba-4c3e-819d-b6380b8bb3ae" width="28.8" height="28.801"/>
      <g>
        <path class="be5a7ab1-a9e0-43fd-85b7-731b18850d5a" d="M28.8,30.24A1.44,1.44,0,1,0,27.359,28.8,1.439,1.439,0,0,0,28.8,30.24Z"/>
        <path class="be5a7ab1-a9e0-43fd-85b7-731b18850d5a" d="M14.4,30.24A1.44,1.44,0,1,0,12.96,28.8,1.44,1.44,0,0,0,14.4,30.24Z"/>
        <path class="be5a7ab1-a9e0-43fd-85b7-731b18850d5a" d="M28.8,15.842A1.441,1.441,0,1,0,27.359,14.4,1.441,1.441,0,0,0,28.8,15.842Z"/>
        <path class="be5a7ab1-a9e0-43fd-85b7-731b18850d5a" d="M14.4,15.842A1.441,1.441,0,1,0,12.96,14.4,1.443,1.443,0,0,0,14.4,15.842Z"/>
        <path class="be5a7ab1-a9e0-43fd-85b7-731b18850d5a" d="M7.2,23.041A1.441,1.441,0,1,0,5.76,21.6,1.44,1.44,0,0,0,7.2,23.041Z"/>
        <path class="be5a7ab1-a9e0-43fd-85b7-731b18850d5a" d="M21.6,23.041a1.441,1.441,0,1,0-1.44-1.439A1.44,1.44,0,0,0,21.6,23.041Z"/>
        <path class="be5a7ab1-a9e0-43fd-85b7-731b18850d5a" d="M7.2,8.641A1.441,1.441,0,1,0,5.76,7.2,1.44,1.44,0,0,0,7.2,8.641Z"/>
        <path class="be5a7ab1-a9e0-43fd-85b7-731b18850d5a" d="M21.6,8.641a1.441,1.441,0,1,0-1.44-1.44A1.441,1.441,0,0,0,21.6,8.641Z"/>
      </g>
      <g>
        <path class="be5a7ab1-a9e0-43fd-85b7-731b18850d5a" d="M0,30.24A1.439,1.439,0,0,0,1.439,28.8,1.44,1.44,0,0,0,0,27.361,1.441,1.441,0,0,0-1.441,28.8,1.44,1.44,0,0,0,0,30.24Z"/>
        <path class="be5a7ab1-a9e0-43fd-85b7-731b18850d5a" d="M0,15.842A1.441,1.441,0,0,0,1.439,14.4,1.44,1.44,0,0,0,0,12.961,1.441,1.441,0,0,0-1.441,14.4,1.442,1.442,0,0,0,0,15.842Z"/>
      </g>
      <g>
        <path class="be5a7ab1-a9e0-43fd-85b7-731b18850d5a" d="M28.8,1.44A1.44,1.44,0,0,0,30.239,0,1.439,1.439,0,0,0,28.8-1.439,1.44,1.44,0,0,0,27.359,0,1.441,1.441,0,0,0,28.8,1.44Z"/>
        <path class="be5a7ab1-a9e0-43fd-85b7-731b18850d5a" d="M14.4,1.44A1.441,1.441,0,0,0,15.84,0,1.44,1.44,0,0,0,14.4-1.439,1.438,1.438,0,0,0,12.96,0,1.439,1.439,0,0,0,14.4,1.44Z"/>
      </g>
      <path class="be5a7ab1-a9e0-43fd-85b7-731b18850d5a" d="M0,1.44A1.44,1.44,0,0,0,1.439,0,1.439,1.439,0,0,0,0-1.439,1.44,1.44,0,0,0-1.441,0,1.441,1.441,0,0,0,0,1.44Z"/>
    </pattern>
    <pattern id="a11ec1f9-68b7-4352-8306-4f090dca546c" data-name="10 dpi 20%" width="28.8" height="28.801" patternTransform="translate(35.907 60.383) scale(0.154)" patternUnits="userSpaceOnUse" viewBox="0 0 28.8 28.801">
      <rect class="f6bd0b05-55ba-4c3e-819d-b6380b8bb3ae" width="28.8" height="28.801"/>
      <g>
        <path class="be5a7ab1-a9e0-43fd-85b7-731b18850d5a" d="M28.8,30.24A1.44,1.44,0,1,0,27.359,28.8,1.439,1.439,0,0,0,28.8,30.24Z"/>
        <path class="be5a7ab1-a9e0-43fd-85b7-731b18850d5a" d="M14.4,30.24A1.44,1.44,0,1,0,12.96,28.8,1.44,1.44,0,0,0,14.4,30.24Z"/>
        <path class="be5a7ab1-a9e0-43fd-85b7-731b18850d5a" d="M28.8,15.842A1.441,1.441,0,1,0,27.359,14.4,1.441,1.441,0,0,0,28.8,15.842Z"/>
        <path class="be5a7ab1-a9e0-43fd-85b7-731b18850d5a" d="M14.4,15.842A1.441,1.441,0,1,0,12.96,14.4,1.443,1.443,0,0,0,14.4,15.842Z"/>
        <path class="be5a7ab1-a9e0-43fd-85b7-731b18850d5a" d="M7.2,23.041A1.441,1.441,0,1,0,5.76,21.6,1.44,1.44,0,0,0,7.2,23.041Z"/>
        <path class="be5a7ab1-a9e0-43fd-85b7-731b18850d5a" d="M21.6,23.041a1.441,1.441,0,1,0-1.44-1.439A1.44,1.44,0,0,0,21.6,23.041Z"/>
        <path class="be5a7ab1-a9e0-43fd-85b7-731b18850d5a" d="M7.2,8.641A1.441,1.441,0,1,0,5.76,7.2,1.44,1.44,0,0,0,7.2,8.641Z"/>
        <path class="be5a7ab1-a9e0-43fd-85b7-731b18850d5a" d="M21.6,8.641a1.441,1.441,0,1,0-1.44-1.44A1.441,1.441,0,0,0,21.6,8.641Z"/>
      </g>
      <g>
        <path class="be5a7ab1-a9e0-43fd-85b7-731b18850d5a" d="M0,30.24A1.439,1.439,0,0,0,1.439,28.8,1.44,1.44,0,0,0,0,27.361,1.441,1.441,0,0,0-1.441,28.8,1.44,1.44,0,0,0,0,30.24Z"/>
        <path class="be5a7ab1-a9e0-43fd-85b7-731b18850d5a" d="M0,15.842A1.441,1.441,0,0,0,1.439,14.4,1.44,1.44,0,0,0,0,12.961,1.441,1.441,0,0,0-1.441,14.4,1.442,1.442,0,0,0,0,15.842Z"/>
      </g>
      <g>
        <path class="be5a7ab1-a9e0-43fd-85b7-731b18850d5a" d="M28.8,1.44A1.44,1.44,0,0,0,30.239,0,1.439,1.439,0,0,0,28.8-1.439,1.44,1.44,0,0,0,27.359,0,1.441,1.441,0,0,0,28.8,1.44Z"/>
        <path class="be5a7ab1-a9e0-43fd-85b7-731b18850d5a" d="M14.4,1.44A1.441,1.441,0,0,0,15.84,0,1.44,1.44,0,0,0,14.4-1.439,1.438,1.438,0,0,0,12.96,0,1.439,1.439,0,0,0,14.4,1.44Z"/>
      </g>
      <path class="be5a7ab1-a9e0-43fd-85b7-731b18850d5a" d="M0,1.44A1.44,1.44,0,0,0,1.439,0,1.439,1.439,0,0,0,0-1.439,1.44,1.44,0,0,0-1.441,0,1.441,1.441,0,0,0,0,1.44Z"/>
    </pattern>
    <pattern id="bdb20be6-21ea-4d83-8075-cca650ae5f94" data-name="10 dpi 20%" width="28.8" height="28.801" patternTransform="translate(36.267 60.383) scale(0.154)" patternUnits="userSpaceOnUse" viewBox="0 0 28.8 28.801">
      <rect class="f6bd0b05-55ba-4c3e-819d-b6380b8bb3ae" width="28.8" height="28.801"/>
      <g>
        <path class="be5a7ab1-a9e0-43fd-85b7-731b18850d5a" d="M28.8,30.24A1.44,1.44,0,1,0,27.359,28.8,1.439,1.439,0,0,0,28.8,30.24Z"/>
        <path class="be5a7ab1-a9e0-43fd-85b7-731b18850d5a" d="M14.4,30.24A1.44,1.44,0,1,0,12.96,28.8,1.44,1.44,0,0,0,14.4,30.24Z"/>
        <path class="be5a7ab1-a9e0-43fd-85b7-731b18850d5a" d="M28.8,15.842A1.441,1.441,0,1,0,27.359,14.4,1.441,1.441,0,0,0,28.8,15.842Z"/>
        <path class="be5a7ab1-a9e0-43fd-85b7-731b18850d5a" d="M14.4,15.842A1.441,1.441,0,1,0,12.96,14.4,1.443,1.443,0,0,0,14.4,15.842Z"/>
        <path class="be5a7ab1-a9e0-43fd-85b7-731b18850d5a" d="M7.2,23.041A1.441,1.441,0,1,0,5.76,21.6,1.44,1.44,0,0,0,7.2,23.041Z"/>
        <path class="be5a7ab1-a9e0-43fd-85b7-731b18850d5a" d="M21.6,23.041a1.441,1.441,0,1,0-1.44-1.439A1.44,1.44,0,0,0,21.6,23.041Z"/>
        <path class="be5a7ab1-a9e0-43fd-85b7-731b18850d5a" d="M7.2,8.641A1.441,1.441,0,1,0,5.76,7.2,1.44,1.44,0,0,0,7.2,8.641Z"/>
        <path class="be5a7ab1-a9e0-43fd-85b7-731b18850d5a" d="M21.6,8.641a1.441,1.441,0,1,0-1.44-1.44A1.441,1.441,0,0,0,21.6,8.641Z"/>
      </g>
      <g>
        <path class="be5a7ab1-a9e0-43fd-85b7-731b18850d5a" d="M0,30.24A1.439,1.439,0,0,0,1.439,28.8,1.44,1.44,0,0,0,0,27.361,1.441,1.441,0,0,0-1.441,28.8,1.44,1.44,0,0,0,0,30.24Z"/>
        <path class="be5a7ab1-a9e0-43fd-85b7-731b18850d5a" d="M0,15.842A1.441,1.441,0,0,0,1.439,14.4,1.44,1.44,0,0,0,0,12.961,1.441,1.441,0,0,0-1.441,14.4,1.442,1.442,0,0,0,0,15.842Z"/>
      </g>
      <g>
        <path class="be5a7ab1-a9e0-43fd-85b7-731b18850d5a" d="M28.8,1.44A1.44,1.44,0,0,0,30.239,0,1.439,1.439,0,0,0,28.8-1.439,1.44,1.44,0,0,0,27.359,0,1.441,1.441,0,0,0,28.8,1.44Z"/>
        <path class="be5a7ab1-a9e0-43fd-85b7-731b18850d5a" d="M14.4,1.44A1.441,1.441,0,0,0,15.84,0,1.44,1.44,0,0,0,14.4-1.439,1.438,1.438,0,0,0,12.96,0,1.439,1.439,0,0,0,14.4,1.44Z"/>
      </g>
      <path class="be5a7ab1-a9e0-43fd-85b7-731b18850d5a" d="M0,1.44A1.44,1.44,0,0,0,1.439,0,1.439,1.439,0,0,0,0-1.439,1.44,1.44,0,0,0-1.441,0,1.441,1.441,0,0,0,0,1.44Z"/>
    </pattern>
    <pattern id="ab3e5457-c13a-4219-907c-c4589c33a25a" data-name="10 dpi 20%" width="28.8" height="28.801" patternTransform="translate(39.184 58.472) scale(0.154)" patternUnits="userSpaceOnUse" viewBox="0 0 28.8 28.801">
      <rect class="f6bd0b05-55ba-4c3e-819d-b6380b8bb3ae" width="28.8" height="28.801"/>
      <g>
        <path class="be5a7ab1-a9e0-43fd-85b7-731b18850d5a" d="M28.8,30.24A1.44,1.44,0,1,0,27.359,28.8,1.439,1.439,0,0,0,28.8,30.24Z"/>
        <path class="be5a7ab1-a9e0-43fd-85b7-731b18850d5a" d="M14.4,30.24A1.44,1.44,0,1,0,12.96,28.8,1.44,1.44,0,0,0,14.4,30.24Z"/>
        <path class="be5a7ab1-a9e0-43fd-85b7-731b18850d5a" d="M28.8,15.842A1.441,1.441,0,1,0,27.359,14.4,1.441,1.441,0,0,0,28.8,15.842Z"/>
        <path class="be5a7ab1-a9e0-43fd-85b7-731b18850d5a" d="M14.4,15.842A1.441,1.441,0,1,0,12.96,14.4,1.443,1.443,0,0,0,14.4,15.842Z"/>
        <path class="be5a7ab1-a9e0-43fd-85b7-731b18850d5a" d="M7.2,23.041A1.441,1.441,0,1,0,5.76,21.6,1.44,1.44,0,0,0,7.2,23.041Z"/>
        <path class="be5a7ab1-a9e0-43fd-85b7-731b18850d5a" d="M21.6,23.041a1.441,1.441,0,1,0-1.44-1.439A1.44,1.44,0,0,0,21.6,23.041Z"/>
        <path class="be5a7ab1-a9e0-43fd-85b7-731b18850d5a" d="M7.2,8.641A1.441,1.441,0,1,0,5.76,7.2,1.44,1.44,0,0,0,7.2,8.641Z"/>
        <path class="be5a7ab1-a9e0-43fd-85b7-731b18850d5a" d="M21.6,8.641a1.441,1.441,0,1,0-1.44-1.44A1.441,1.441,0,0,0,21.6,8.641Z"/>
      </g>
      <g>
        <path class="be5a7ab1-a9e0-43fd-85b7-731b18850d5a" d="M0,30.24A1.439,1.439,0,0,0,1.439,28.8,1.44,1.44,0,0,0,0,27.361,1.441,1.441,0,0,0-1.441,28.8,1.44,1.44,0,0,0,0,30.24Z"/>
        <path class="be5a7ab1-a9e0-43fd-85b7-731b18850d5a" d="M0,15.842A1.441,1.441,0,0,0,1.439,14.4,1.44,1.44,0,0,0,0,12.961,1.441,1.441,0,0,0-1.441,14.4,1.442,1.442,0,0,0,0,15.842Z"/>
      </g>
      <g>
        <path class="be5a7ab1-a9e0-43fd-85b7-731b18850d5a" d="M28.8,1.44A1.44,1.44,0,0,0,30.239,0,1.439,1.439,0,0,0,28.8-1.439,1.44,1.44,0,0,0,27.359,0,1.441,1.441,0,0,0,28.8,1.44Z"/>
        <path class="be5a7ab1-a9e0-43fd-85b7-731b18850d5a" d="M14.4,1.44A1.441,1.441,0,0,0,15.84,0,1.44,1.44,0,0,0,14.4-1.439,1.438,1.438,0,0,0,12.96,0,1.439,1.439,0,0,0,14.4,1.44Z"/>
      </g>
      <path class="be5a7ab1-a9e0-43fd-85b7-731b18850d5a" d="M0,1.44A1.44,1.44,0,0,0,1.439,0,1.439,1.439,0,0,0,0-1.439,1.44,1.44,0,0,0-1.441,0,1.441,1.441,0,0,0,0,1.44Z"/>
    </pattern>
    <pattern id="a32a86f4-7e4d-493c-b1a8-ef5f062449b3" data-name="10 dpi 20%" width="28.8" height="28.801" patternTransform="translate(37.614 55.072) scale(0.154)" patternUnits="userSpaceOnUse" viewBox="0 0 28.8 28.801">
      <rect class="f6bd0b05-55ba-4c3e-819d-b6380b8bb3ae" width="28.8" height="28.801"/>
      <g>
        <path class="be5a7ab1-a9e0-43fd-85b7-731b18850d5a" d="M28.8,30.24A1.44,1.44,0,1,0,27.359,28.8,1.439,1.439,0,0,0,28.8,30.24Z"/>
        <path class="be5a7ab1-a9e0-43fd-85b7-731b18850d5a" d="M14.4,30.24A1.44,1.44,0,1,0,12.96,28.8,1.44,1.44,0,0,0,14.4,30.24Z"/>
        <path class="be5a7ab1-a9e0-43fd-85b7-731b18850d5a" d="M28.8,15.842A1.441,1.441,0,1,0,27.359,14.4,1.441,1.441,0,0,0,28.8,15.842Z"/>
        <path class="be5a7ab1-a9e0-43fd-85b7-731b18850d5a" d="M14.4,15.842A1.441,1.441,0,1,0,12.96,14.4,1.443,1.443,0,0,0,14.4,15.842Z"/>
        <path class="be5a7ab1-a9e0-43fd-85b7-731b18850d5a" d="M7.2,23.041A1.441,1.441,0,1,0,5.76,21.6,1.44,1.44,0,0,0,7.2,23.041Z"/>
        <path class="be5a7ab1-a9e0-43fd-85b7-731b18850d5a" d="M21.6,23.041a1.441,1.441,0,1,0-1.44-1.439A1.44,1.44,0,0,0,21.6,23.041Z"/>
        <path class="be5a7ab1-a9e0-43fd-85b7-731b18850d5a" d="M7.2,8.641A1.441,1.441,0,1,0,5.76,7.2,1.44,1.44,0,0,0,7.2,8.641Z"/>
        <path class="be5a7ab1-a9e0-43fd-85b7-731b18850d5a" d="M21.6,8.641a1.441,1.441,0,1,0-1.44-1.44A1.441,1.441,0,0,0,21.6,8.641Z"/>
      </g>
      <g>
        <path class="be5a7ab1-a9e0-43fd-85b7-731b18850d5a" d="M0,30.24A1.439,1.439,0,0,0,1.439,28.8,1.44,1.44,0,0,0,0,27.361,1.441,1.441,0,0,0-1.441,28.8,1.44,1.44,0,0,0,0,30.24Z"/>
        <path class="be5a7ab1-a9e0-43fd-85b7-731b18850d5a" d="M0,15.842A1.441,1.441,0,0,0,1.439,14.4,1.44,1.44,0,0,0,0,12.961,1.441,1.441,0,0,0-1.441,14.4,1.442,1.442,0,0,0,0,15.842Z"/>
      </g>
      <g>
        <path class="be5a7ab1-a9e0-43fd-85b7-731b18850d5a" d="M28.8,1.44A1.44,1.44,0,0,0,30.239,0,1.439,1.439,0,0,0,28.8-1.439,1.44,1.44,0,0,0,27.359,0,1.441,1.441,0,0,0,28.8,1.44Z"/>
        <path class="be5a7ab1-a9e0-43fd-85b7-731b18850d5a" d="M14.4,1.44A1.441,1.441,0,0,0,15.84,0,1.44,1.44,0,0,0,14.4-1.439,1.438,1.438,0,0,0,12.96,0,1.439,1.439,0,0,0,14.4,1.44Z"/>
      </g>
      <path class="be5a7ab1-a9e0-43fd-85b7-731b18850d5a" d="M0,1.44A1.44,1.44,0,0,0,1.439,0,1.439,1.439,0,0,0,0-1.439,1.44,1.44,0,0,0-1.441,0,1.441,1.441,0,0,0,0,1.44Z"/>
    </pattern>
  </defs>
  <g>
    <g>
      <path class="ec1e337b-f209-4e00-96bb-871437372210" d="M212.46,52.8c7.271,1.426,7.051,6.827,10.493,8.743,2.759,1.537,6.074,4.939,6.074,7.824,0,6.213-6.17,8.889-7.249,12.352-.9,2.9-1.13,5.618-3.553,7.966a10.047,10.047,0,0,1-8.036,2.76c-4.308-.549-6.723-3.393-11.213-3.75a45.076,45.076,0,0,1-6.373-.663,31,31,0,0,1-6.3-2.127c-4.057-2.05-7.316-6.638-6.537-11.326.765-4.6,4.831-8,8.9-9.77a28.628,28.628,0,0,0,4.583-2.159,34.161,34.161,0,0,0,4.072-3.779C201.7,54.8,206.8,51.69,212.46,52.8Z"/>
      <path class="ad833d2f-ed3e-43b8-96b4-d81c82a08372" d="M216.874,68.841a12.316,12.316,0,1,0-21.364,8.353h0a39.249,39.249,0,0,1,4.8,7.793,43.842,43.842,0,0,0,9.052,0,23.691,23.691,0,0,1,3.508-7.056C215.111,74.935,216.874,72.266,216.874,68.841Z"/>
      <path class="f23b61fa-1f49-4b67-9bd1-490e1c9d3ae8" d="M204.746,85.094a.108.108,0,0,1-.107-.108V72.037a.108.108,0,0,1,.215,0V84.986A.108.108,0,0,1,204.746,85.094Z"/>
      <path class="f23b61fa-1f49-4b67-9bd1-490e1c9d3ae8" d="M207.756,72.145c-.448,0-.654-.468-.854-.92-.179-.407-.348-.791-.656-.791s-.476.384-.654.791c-.2.453-.406.92-.852.92s-.652-.468-.851-.921c-.179-.406-.347-.79-.652-.79s-.476.384-.655.791c-.2.453-.405.92-.851.92s-.652-.468-.851-.921c-.179-.406-.347-.79-.652-.79a.108.108,0,1,1,0-.216c.446,0,.651.468.85.92.179.407.347.792.653.792s.475-.384.654-.791c.2-.453.405-.921.852-.921s.651.468.85.92c.179.407.347.792.653.792s.475-.384.654-.791c.2-.453.405-.921.852-.921s.654.468.854.92c.179.407.348.792.656.792s.478-.385.657-.792c.2-.453.406-.92.853-.92a.108.108,0,0,1,0,.216c-.306,0-.477.384-.656.791C208.41,71.677,208.2,72.145,207.756,72.145Z"/>
      <path class="f23b61fa-1f49-4b67-9bd1-490e1c9d3ae8" d="M195.12,67.241a.113.113,0,0,1-.03,0,.108.108,0,0,1-.074-.133c.021-.07,2.042-6.965,8.62-7.883a.1.1,0,0,1,.122.092.107.107,0,0,1-.091.121c-6.439.9-8.424,7.66-8.443,7.728A.108.108,0,0,1,195.12,67.241Z"/>
      <path class="b0cb5f35-069f-4fb1-8a6e-89bc150d0bc1" d="M200.178,84.909l.06,5.51s3.928,4.392,9.187,0l.06-5.51A29.3,29.3,0,0,1,200.178,84.909Z"/>
      <g>
        <path class="f23b61fa-1f49-4b67-9bd1-490e1c9d3ae8" d="M200.907,86.2a10.9,10.9,0,0,0,7.68,0"/>
        <path class="ad833d2f-ed3e-43b8-96b4-d81c82a08372" d="M204.652,86.976a9.867,9.867,0,0,1-3.791-.683.108.108,0,0,1-.053-.143.111.111,0,0,1,.143-.052,10.914,10.914,0,0,0,7.6,0,.106.106,0,0,1,.137.067.107.107,0,0,1-.066.137A12.106,12.106,0,0,1,204.652,86.976Z"/>
      </g>
      <g>
        <path class="f23b61fa-1f49-4b67-9bd1-490e1c9d3ae8" d="M200.907,87.655a10.9,10.9,0,0,0,7.68,0"/>
        <path class="ad833d2f-ed3e-43b8-96b4-d81c82a08372" d="M204.652,88.436a9.832,9.832,0,0,1-3.791-.684.108.108,0,0,1-.053-.143.112.112,0,0,1,.143-.052,10.9,10.9,0,0,0,7.6,0,.106.106,0,0,1,.137.066.108.108,0,0,1-.066.138A12.106,12.106,0,0,1,204.652,88.436Z"/>
      </g>
      <g>
        <path class="f23b61fa-1f49-4b67-9bd1-490e1c9d3ae8" d="M200.907,89.115a10.9,10.9,0,0,0,7.68,0"/>
        <path class="ad833d2f-ed3e-43b8-96b4-d81c82a08372" d="M204.652,89.9a9.855,9.855,0,0,1-3.791-.684.108.108,0,0,1-.053-.143.111.111,0,0,1,.143-.052,10.9,10.9,0,0,0,7.6,0,.106.106,0,0,1,.137.066.109.109,0,0,1-.066.138A12.106,12.106,0,0,1,204.652,89.9Z"/>
      </g>
      <path class="fd7f3380-d96c-4013-8484-ee2ad7fee43b" d="M210.45,58.1V75.634a1.163,1.163,0,0,0,1.164,1.163H213.6l1.2-1.575-1.7-.01a1.226,1.226,0,0,1-1.218-1.219L211.8,59.012Z"/>
      <path class="b0cb5f35-069f-4fb1-8a6e-89bc150d0bc1" d="M204.893,85.327a42.163,42.163,0,0,1-4.6-.233.108.108,0,0,1-.085-.062,39.359,39.359,0,0,0-4.783-7.766l-.007-.009A12.424,12.424,0,1,1,215.958,63.9a.108.108,0,0,1-.2.086,12.209,12.209,0,1,0-20.171,13.139l.01.013a39.149,39.149,0,0,1,4.781,7.753,44.265,44.265,0,0,0,8.9,0,24.055,24.055,0,0,1,3.505-7.021c2.18-2.911,3.985-5.6,3.985-9.024,0-.093,0-.186,0-.279a.108.108,0,0,1,.106-.109h0a.108.108,0,0,1,.107.107c0,.092,0,.186,0,.281,0,3.491-1.823,6.211-4.027,9.153a23.81,23.81,0,0,0-3.49,7.021.107.107,0,0,1-.092.078A41.644,41.644,0,0,1,204.893,85.327Z"/>
      <path class="b0cb5f35-069f-4fb1-8a6e-89bc150d0bc1" d="M192.812,72.888H189.9a1.272,1.272,0,0,1-1.271-1.271V68.446a.107.107,0,1,1,.214,0v3.171a1.058,1.058,0,0,0,1.057,1.055h2.91a.108.108,0,0,1,0,.216Z"/>
      <path class="b0cb5f35-069f-4fb1-8a6e-89bc150d0bc1" d="M217.98,96.076H205.606a1.272,1.272,0,0,1-1.271-1.271v-3.15a.108.108,0,1,1,.215,0v3.15a1.057,1.057,0,0,0,1.056,1.055H217.98a1.058,1.058,0,0,0,1.057-1.055V76.368a1.058,1.058,0,0,0-1.057-1.055h-4.927a1.273,1.273,0,0,1-1.271-1.272V52.394a1.058,1.058,0,0,0-1.057-1.056H189.9a1.058,1.058,0,0,0-1.057,1.056V63.9a.107.107,0,1,1-.214,0v-11.5a1.273,1.273,0,0,1,1.271-1.272h20.823A1.272,1.272,0,0,1,212,52.394V74.041a1.058,1.058,0,0,0,1.057,1.056h4.927a1.272,1.272,0,0,1,1.271,1.271V94.805A1.272,1.272,0,0,1,217.98,96.076Z"/>
      <path class="b0cb5f35-069f-4fb1-8a6e-89bc150d0bc1" d="M192.926,94.465a.107.107,0,0,1-.107-.108V80.492a1.273,1.273,0,0,1,1.271-1.271h2.943a.108.108,0,0,1,0,.216H194.09a1.057,1.057,0,0,0-1.056,1.055V94.357A.108.108,0,0,1,192.926,94.465Z"/>
      <path class="b0cb5f35-069f-4fb1-8a6e-89bc150d0bc1" d="M192.91,96.036a.905.905,0,1,1,.905-.905A.905.905,0,0,1,192.91,96.036Zm0-1.594a.689.689,0,1,0,.69.689A.688.688,0,0,0,192.91,94.442Z"/>
      <rect class="ec1e337b-f209-4e00-96bb-871437372210" x="188.425" y="81.958" width="8.661" height="4.593"/>
      <path class="b0cb5f35-069f-4fb1-8a6e-89bc150d0bc1" d="M193.564,85.58h-3.99a.108.108,0,0,1,0-.216h3.99a.108.108,0,1,1,0,.216Z"/>
      <path class="b0cb5f35-069f-4fb1-8a6e-89bc150d0bc1" d="M195.98,85.58h-1.405a.108.108,0,0,1,0-.216h1.405a.108.108,0,0,1,0,.216Z"/>
      <path class="b0cb5f35-069f-4fb1-8a6e-89bc150d0bc1" d="M195.98,84.456h-3.2a.108.108,0,0,1,0-.216h3.2a.108.108,0,0,1,0,.216Z"/>
      <path class="b0cb5f35-069f-4fb1-8a6e-89bc150d0bc1" d="M191.765,84.456h-2.191a.108.108,0,0,1,0-.216h2.191a.108.108,0,0,1,0,.216Z"/>
      <path class="b0cb5f35-069f-4fb1-8a6e-89bc150d0bc1" d="M193.564,83.332h-2.023a.108.108,0,0,1,0-.216h2.023a.108.108,0,1,1,0,.216Z"/>
      <path class="b0cb5f35-069f-4fb1-8a6e-89bc150d0bc1" d="M190.53,83.332h-.956a.108.108,0,0,1,0-.216h.956a.108.108,0,0,1,0,.216Z"/>
      <path class="b0cb5f35-069f-4fb1-8a6e-89bc150d0bc1" d="M195.98,83.332h-1.405a.108.108,0,0,1,0-.216h1.405a.108.108,0,0,1,0,.216Z"/>
      <path class="b0cb5f35-069f-4fb1-8a6e-89bc150d0bc1" d="M217.823,67.5h-3.989a.108.108,0,1,1,0-.215h3.989a.108.108,0,0,1,0,.215Z"/>
      <path class="b0cb5f35-069f-4fb1-8a6e-89bc150d0bc1" d="M220.238,67.5h-1.4a.108.108,0,0,1,0-.215h1.4a.108.108,0,1,1,0,.215Z"/>
      <path class="b0cb5f35-069f-4fb1-8a6e-89bc150d0bc1" d="M220.238,66.377h-3.2a.108.108,0,0,1,0-.216h3.2a.108.108,0,0,1,0,.216Z"/>
      <path class="b0cb5f35-069f-4fb1-8a6e-89bc150d0bc1" d="M216.025,66.377h-2.191a.108.108,0,0,1,0-.216h2.191a.108.108,0,0,1,0,.216Z"/>
      <path class="b0cb5f35-069f-4fb1-8a6e-89bc150d0bc1" d="M217.823,65.252H215.8a.108.108,0,1,1,0-.215h2.023a.108.108,0,0,1,0,.215Z"/>
      <path class="b0cb5f35-069f-4fb1-8a6e-89bc150d0bc1" d="M214.789,65.252h-.955a.108.108,0,1,1,0-.215h.955a.108.108,0,0,1,0,.215Z"/>
      <path class="b0cb5f35-069f-4fb1-8a6e-89bc150d0bc1" d="M220.238,65.252h-1.4a.108.108,0,0,1,0-.215h1.4a.108.108,0,1,1,0,.215Z"/>
      <path class="b0cb5f35-069f-4fb1-8a6e-89bc150d0bc1" d="M187.69,67.317H183.7a.108.108,0,0,1,0-.216h3.989a.108.108,0,0,1,0,.216Z"/>
      <path class="b0cb5f35-069f-4fb1-8a6e-89bc150d0bc1" d="M190.106,67.317H188.7a.108.108,0,0,1,0-.216h1.405a.108.108,0,0,1,0,.216Z"/>
      <path class="b0cb5f35-069f-4fb1-8a6e-89bc150d0bc1" d="M190.106,66.193h-3.2a.108.108,0,0,1,0-.216h3.2a.108.108,0,0,1,0,.216Z"/>
      <path class="b0cb5f35-069f-4fb1-8a6e-89bc150d0bc1" d="M185.892,66.193H183.7a.108.108,0,0,1,0-.216h2.191a.108.108,0,0,1,0,.216Z"/>
      <path class="b0cb5f35-069f-4fb1-8a6e-89bc150d0bc1" d="M187.69,65.069h-2.023a.108.108,0,0,1,0-.215h2.023a.108.108,0,0,1,0,.215Z"/>
      <path class="b0cb5f35-069f-4fb1-8a6e-89bc150d0bc1" d="M184.656,65.069H183.7a.108.108,0,0,1,0-.215h.955a.108.108,0,0,1,0,.215Z"/>
      <path class="b0cb5f35-069f-4fb1-8a6e-89bc150d0bc1" d="M190.106,65.069H188.7a.108.108,0,0,1,0-.215h1.405a.108.108,0,0,1,0,.215Z"/>
      <path class="b0cb5f35-069f-4fb1-8a6e-89bc150d0bc1" d="M217.964,95.544a.694.694,0,1,1,.692-.694A.694.694,0,0,1,217.964,95.544Zm0-1.172a.478.478,0,1,0,.478.478A.478.478,0,0,0,217.964,94.372Z"/>
      <path class="b0cb5f35-069f-4fb1-8a6e-89bc150d0bc1" d="M205.629,95.459a.694.694,0,1,1,.692-.694A.7.7,0,0,1,205.629,95.459Zm0-1.172a.478.478,0,1,0,.478.478A.48.48,0,0,0,205.629,94.287Z"/>
      <path class="b0cb5f35-069f-4fb1-8a6e-89bc150d0bc1" d="M194.019,81.2a.694.694,0,1,1,.692-.693A.693.693,0,0,1,194.019,81.2Zm0-1.172a.479.479,0,1,0,.478.479A.48.48,0,0,0,194.019,80.031Z"/>
      <path class="b0cb5f35-069f-4fb1-8a6e-89bc150d0bc1" d="M217.964,77.113a.694.694,0,1,1,.692-.693A.693.693,0,0,1,217.964,77.113Zm0-1.172a.479.479,0,1,0,.478.479A.479.479,0,0,0,217.964,75.941Z"/>
      <path class="b0cb5f35-069f-4fb1-8a6e-89bc150d0bc1" d="M190.014,72.178a.694.694,0,1,1,.694-.694A.694.694,0,0,1,190.014,72.178Zm0-1.171a.478.478,0,1,0,.479.477A.478.478,0,0,0,190.014,71.007Z"/>
      <path class="b0cb5f35-069f-4fb1-8a6e-89bc150d0bc1" d="M190.054,53.112a.694.694,0,1,1,.694-.694A.693.693,0,0,1,190.054,53.112Zm0-1.172a.478.478,0,1,0,.48.478A.479.479,0,0,0,190.054,51.94Z"/>
      <path class="b0cb5f35-069f-4fb1-8a6e-89bc150d0bc1" d="M210.694,53.112a.694.694,0,1,1,.693-.694A.694.694,0,0,1,210.694,53.112Zm0-1.172a.478.478,0,1,0,.479.478A.48.48,0,0,0,210.694,51.94Z"/>
    </g>
    <g>
      <g>
        <path class="b0cb5f35-069f-4fb1-8a6e-89bc150d0bc1" d="M194.3,110.387h.6v1.49h1.758v-1.49h.606v3.535h-.606v-1.515H194.9v1.515h-.6Z"/>
        <path class="b0cb5f35-069f-4fb1-8a6e-89bc150d0bc1" d="M199.192,113.973a1.287,1.287,0,0,1-1.288-1.313,1.247,1.247,0,0,1,1.233-1.309,1.215,1.215,0,0,1,1.2,1.3v.141h-1.869a.773.773,0,0,0,.758.692.818.818,0,0,0,.6-.238l.374.349A1.459,1.459,0,0,1,199.192,113.973Zm-.718-1.525h1.319a.693.693,0,0,0-.661-.632A.682.682,0,0,0,198.474,112.448Z"/>
        <path class="b0cb5f35-069f-4fb1-8a6e-89bc150d0bc1" d="M200.768,113.2c0-.454.369-.742.965-.742a1.565,1.565,0,0,1,.682.156v-.278c0-.333-.192-.505-.581-.505a1.755,1.755,0,0,0-.737.2l-.2-.414a2.442,2.442,0,0,1,1.051-.258c.656,0,1.035.334,1.035.92v1.651h-.565v-.258a1.056,1.056,0,0,1-.753.3A.8.8,0,0,1,200.768,113.2Zm1.05.369a.906.906,0,0,0,.6-.207v-.415a1.309,1.309,0,0,0-.586-.121c-.323,0-.525.142-.525.364S201.506,113.564,201.818,113.564Z"/>
        <path class="b0cb5f35-069f-4fb1-8a6e-89bc150d0bc1" d="M205.481,113.584a.974.974,0,0,1-.778.364,1.295,1.295,0,0,1,.035-2.576.963.963,0,0,1,.737.333v-1.394l.572-.1v3.707h-.566Zm-.606-.116a.755.755,0,0,0,.6-.278v-1.066a.785.785,0,0,0-.6-.273.811.811,0,0,0,0,1.617Z"/>
        <path class="b0cb5f35-069f-4fb1-8a6e-89bc150d0bc1" d="M207.324,113.922h-.57v-3.611l.57-.1Z"/>
        <path class="b0cb5f35-069f-4fb1-8a6e-89bc150d0bc1" d="M207.957,110.528a.356.356,0,0,1,.712,0,.356.356,0,0,1-.712,0Zm.641,3.394h-.571v-2.53h.571Z"/>
        <path class="b0cb5f35-069f-4fb1-8a6e-89bc150d0bc1" d="M209.3,111.392h.57v.414a.92.92,0,0,1,.8-.455.853.853,0,0,1,.874.905v1.666h-.572v-1.5a.544.544,0,0,0-.555-.606.649.649,0,0,0-.551.3v1.808h-.57Z"/>
        <path class="b0cb5f35-069f-4fb1-8a6e-89bc150d0bc1" d="M213.412,113.973a1.286,1.286,0,0,1-1.288-1.313,1.246,1.246,0,0,1,1.232-1.309,1.215,1.215,0,0,1,1.2,1.3v.141h-1.87a.774.774,0,0,0,.758.692.819.819,0,0,0,.6-.238l.374.349A1.461,1.461,0,0,1,213.412,113.973Zm-.717-1.525h1.318a.694.694,0,0,0-.662-.632A.68.68,0,0,0,212.7,112.448Z"/>
      </g>
      <g>
        <path d="M183.755,118.4h.389v3.193h2v.343h-2.384Z"/>
        <path d="M187.721,119.429a1.28,1.28,0,1,1-1.2,1.273A1.211,1.211,0,0,1,187.721,119.429Zm.837,1.277a.843.843,0,1,0-1.671,0,.842.842,0,1,0,1.671,0Z"/>
        <path d="M189.569,119.469h.368v.5a.737.737,0,0,1,.688-.545.7.7,0,0,1,.232.035v.333a.926.926,0,0,0-.258-.045.7.7,0,0,0-.662.5v1.687h-.368Z"/>
        <path d="M192.3,121.979a1.23,1.23,0,0,1-1.223-1.277,1.2,1.2,0,0,1,1.162-1.273,1.163,1.163,0,0,1,1.131,1.242v.112h-1.935a.9.9,0,0,0,.879.873,1.008,1.008,0,0,0,.677-.252l.232.247A1.438,1.438,0,0,1,192.3,121.979Zm-.854-1.459h1.561a.781.781,0,0,0-1.561,0Z"/>
        <path d="M194.005,119.469h.368v.384a.844.844,0,0,1,.732-.424.811.811,0,0,1,.758.48.911.911,0,0,1,.823-.48.839.839,0,0,1,.839.914v1.591h-.369v-1.5c0-.429-.232-.7-.605-.7a.686.686,0,0,0-.617.389,1.031,1.031,0,0,1,.02.217v1.591h-.368v-1.5a.612.612,0,0,0-.612-.7.675.675,0,0,0-.6.364v1.833h-.368Z"/>
        <path d="M199.369,118.6a.265.265,0,0,1,.53,0,.265.265,0,1,1-.53,0Zm.449,3.338h-.368v-2.465h.368Z"/>
        <path d="M200.576,119.469h.363v.354a.973.973,0,0,1,.8-.384,1.271,1.271,0,0,1-.019,2.53,1,1,0,0,1-.774-.343v1.364h-.368Zm.368.632v1.207a.868.868,0,0,0,.7.343.948.948,0,0,0,0-1.889A.84.84,0,0,0,200.944,120.1Z"/>
        <path d="M203.481,121.373a1.281,1.281,0,0,0,.792.309c.36,0,.622-.187.622-.445,0-.2-.131-.308-.444-.369l-.4-.07c-.481-.086-.7-.288-.7-.647,0-.424.37-.722.889-.722a1.594,1.594,0,0,1,.94.308L205,120a1.307,1.307,0,0,0-.772-.263c-.324,0-.536.151-.536.394,0,.2.106.3.424.353l.414.076c.495.091.718.3.718.662a.864.864,0,0,1-.96.762,1.406,1.406,0,0,1-1-.363Z"/>
        <path d="M206.163,120.954a.637.637,0,0,0,.656.712.731.731,0,0,0,.647-.374v-1.823h.369v2.465h-.369v-.4a.884.884,0,0,1-.783.44.862.862,0,0,1-.894-.915v-1.591h.374Z"/>
        <path d="M208.593,119.469h.368v.384a.844.844,0,0,1,.732-.424.811.811,0,0,1,.758.48.91.91,0,0,1,.823-.48.839.839,0,0,1,.839.914v1.591h-.369v-1.5c0-.429-.232-.7-.6-.7a.686.686,0,0,0-.617.389,1.031,1.031,0,0,1,.02.217v1.591h-.368v-1.5a.613.613,0,0,0-.612-.7.674.674,0,0,0-.6.364v1.833h-.368Z"/>
        <path d="M215.851,121.606a.971.971,0,0,1-.788.363,1.271,1.271,0,0,1,.02-2.53,1,1,0,0,1,.768.344v-1.46l.369-.076v3.687h-.369Zm-.7.04a.845.845,0,0,0,.7-.328V120.1a.912.912,0,1,0-.7,1.55Z"/>
        <path d="M218.063,119.429a1.28,1.28,0,1,1-1.2,1.273A1.211,1.211,0,0,1,218.063,119.429Zm.838,1.277a.843.843,0,1,0-1.672,0,.843.843,0,1,0,1.672,0Z"/>
        <path d="M220.28,121.934h-.368v-3.611l.368-.076Z"/>
        <path d="M222.124,119.429a1.28,1.28,0,1,1-1.2,1.273A1.211,1.211,0,0,1,222.124,119.429Zm.838,1.277a.843.843,0,1,0-1.672,0,.843.843,0,1,0,1.672,0Z"/>
        <path d="M223.973,119.469h.368v.5a.737.737,0,0,1,.687-.545.715.715,0,0,1,.233.035v.333a.933.933,0,0,0-.258-.045.7.7,0,0,0-.662.5v1.687h-.368Z"/>
        <path d="M195.644,127.435a1.281,1.281,0,0,0,.793.309c.359,0,.621-.187.621-.445,0-.2-.131-.308-.444-.369l-.4-.07c-.481-.086-.7-.288-.7-.647,0-.424.369-.722.888-.722a1.594,1.594,0,0,1,.94.308l-.182.258a1.307,1.307,0,0,0-.772-.263c-.324,0-.536.151-.536.394,0,.2.106.3.424.353l.414.076c.5.091.717.3.717.662a.863.863,0,0,1-.959.762,1.406,1.406,0,0,1-1-.363Z"/>
        <path d="M197.887,124.658a.265.265,0,0,1,.53,0,.265.265,0,1,1-.53,0Zm.449,3.338h-.368v-2.465h.368Z"/>
        <path d="M199.387,125.834h-.51v-.3h.51v-.677l.368-.086v.763h.707v.3h-.707v1.511c0,.262.1.368.359.368a.874.874,0,0,0,.348-.066v.329a1.391,1.391,0,0,1-.429.065c-.425,0-.646-.207-.646-.6Z"/>
        <path d="M202.048,127.289c0-.439.369-.732.925-.732a1.421,1.421,0,0,1,.751.191v-.338a.554.554,0,0,0-.635-.611,1.633,1.633,0,0,0-.748.212l-.136-.283a2.117,2.117,0,0,1,.929-.237c.611,0,.955.308.955.869V128h-.365v-.288a1.051,1.051,0,0,1-.782.333A.8.8,0,0,1,202.048,127.289Zm.969.47a.972.972,0,0,0,.707-.283V127a1.3,1.3,0,0,0-.7-.177c-.379,0-.627.182-.627.455C202.4,127.567,202.649,127.759,203.017,127.759Z"/>
        <path d="M204.837,125.531h.368v.384a.844.844,0,0,1,.732-.424.811.811,0,0,1,.758.48.913.913,0,0,1,.823-.48.839.839,0,0,1,.839.914V128h-.369v-1.5c0-.429-.232-.7-.6-.7a.686.686,0,0,0-.617.389,1.037,1.037,0,0,1,.02.217V128h-.368v-1.5a.612.612,0,0,0-.611-.7.675.675,0,0,0-.6.364V128h-.368Z"/>
        <path d="M210.217,128.041a1.23,1.23,0,0,1-1.223-1.277,1.2,1.2,0,0,1,1.162-1.273,1.163,1.163,0,0,1,1.131,1.242v.112h-1.935a.9.9,0,0,0,.879.873,1.008,1.008,0,0,0,.677-.252l.233.247A1.442,1.442,0,0,1,210.217,128.041Zm-.854-1.459h1.561a.815.815,0,0,0-.774-.773A.823.823,0,0,0,209.363,126.582Z"/>
        <path d="M212.136,125.834h-.511v-.3h.511v-.677l.368-.086v.763h.707v.3H212.5v1.511c0,.262.1.368.359.368a.874.874,0,0,0,.348-.066v.329a1.391,1.391,0,0,1-.429.065c-.425,0-.646-.207-.646-.6Z"/>
      </g>
    </g>
    <g>
      <g>
        <path class="b0cb5f35-069f-4fb1-8a6e-89bc150d0bc1" d="M120.959,110.387h.6v1.49h1.758v-1.49h.607v3.535h-.607v-1.515h-1.758v1.515h-.6Z"/>
        <path class="b0cb5f35-069f-4fb1-8a6e-89bc150d0bc1" d="M125.853,113.973a1.287,1.287,0,0,1-1.288-1.313,1.247,1.247,0,0,1,1.233-1.309,1.215,1.215,0,0,1,1.2,1.3v.141h-1.869a.774.774,0,0,0,.758.692.816.816,0,0,0,.6-.238l.374.349A1.459,1.459,0,0,1,125.853,113.973Zm-.716-1.525h1.317a.692.692,0,0,0-.661-.632A.679.679,0,0,0,125.137,112.448Z"/>
        <path class="b0cb5f35-069f-4fb1-8a6e-89bc150d0bc1" d="M127.43,113.2c0-.454.368-.742.964-.742a1.562,1.562,0,0,1,.682.156v-.278c0-.333-.192-.505-.581-.505a1.755,1.755,0,0,0-.737.2l-.2-.414a2.434,2.434,0,0,1,1.05-.258c.657,0,1.035.334,1.035.92v1.651h-.565v-.258a1.054,1.054,0,0,1-.753.3A.8.8,0,0,1,127.43,113.2Zm1.049.369a.906.906,0,0,0,.6-.207v-.415a1.309,1.309,0,0,0-.586-.121c-.323,0-.525.142-.525.364S128.167,113.564,128.479,113.564Z"/>
        <path class="b0cb5f35-069f-4fb1-8a6e-89bc150d0bc1" d="M132.142,113.584a.974.974,0,0,1-.778.364,1.295,1.295,0,0,1,.035-2.576.967.967,0,0,1,.738.333v-1.394l.571-.1v3.707h-.566Zm-.606-.116a.758.758,0,0,0,.6-.278v-1.066a.789.789,0,0,0-.6-.273.811.811,0,0,0,0,1.617Z"/>
        <path class="b0cb5f35-069f-4fb1-8a6e-89bc150d0bc1" d="M133.985,113.922h-.57v-3.611l.57-.1Z"/>
        <path class="b0cb5f35-069f-4fb1-8a6e-89bc150d0bc1" d="M134.618,110.528a.356.356,0,0,1,.712,0,.356.356,0,0,1-.712,0Zm.641,3.394h-.571v-2.53h.571Z"/>
        <path class="b0cb5f35-069f-4fb1-8a6e-89bc150d0bc1" d="M135.962,111.392h.57v.414a.92.92,0,0,1,.8-.455.853.853,0,0,1,.874.905v1.666h-.571v-1.5a.545.545,0,0,0-.556-.606.649.649,0,0,0-.551.3v1.808h-.57Z"/>
        <path class="b0cb5f35-069f-4fb1-8a6e-89bc150d0bc1" d="M140.073,113.973a1.286,1.286,0,0,1-1.288-1.313,1.246,1.246,0,0,1,1.232-1.309,1.215,1.215,0,0,1,1.2,1.3v.141h-1.869a.773.773,0,0,0,.757.692.819.819,0,0,0,.6-.238l.374.349A1.461,1.461,0,0,1,140.073,113.973Zm-.718-1.525h1.319a.694.694,0,0,0-.661-.632A.682.682,0,0,0,139.355,112.448Z"/>
      </g>
      <g>
        <path d="M110.416,118.4h.39v3.193H112.8v.343h-2.384Z"/>
        <path d="M114.382,119.429a1.28,1.28,0,1,1-1.2,1.273A1.211,1.211,0,0,1,114.382,119.429Zm.838,1.277a.843.843,0,1,0-1.672,0,.843.843,0,1,0,1.672,0Z"/>
        <path d="M116.23,119.469h.369v.5a.736.736,0,0,1,.687-.545.7.7,0,0,1,.232.035v.333a.926.926,0,0,0-.257-.045.7.7,0,0,0-.662.5v1.687h-.369Z"/>
        <path d="M118.964,121.979a1.23,1.23,0,0,1-1.223-1.277,1.2,1.2,0,0,1,1.162-1.273,1.163,1.163,0,0,1,1.131,1.242v.112H118.1a.9.9,0,0,0,.879.873,1.008,1.008,0,0,0,.677-.252l.233.247A1.44,1.44,0,0,1,118.964,121.979Zm-.854-1.459h1.561a.781.781,0,0,0-1.561,0Z"/>
        <path d="M120.666,119.469h.368v.384a.845.845,0,0,1,.732-.424.809.809,0,0,1,.758.48.911.911,0,0,1,.824-.48.838.838,0,0,1,.838.914v1.591h-.369v-1.5c0-.429-.232-.7-.6-.7a.684.684,0,0,0-.616.389,1.1,1.1,0,0,1,.019.217v1.591h-.368v-1.5a.612.612,0,0,0-.611-.7.676.676,0,0,0-.6.364v1.833h-.368Z"/>
        <path d="M126.03,118.6a.265.265,0,0,1,.53,0,.265.265,0,1,1-.53,0Zm.449,3.338h-.368v-2.465h.368Z"/>
        <path d="M127.237,119.469h.363v.354a.973.973,0,0,1,.8-.384,1.271,1.271,0,0,1-.019,2.53,1,1,0,0,1-.774-.343v1.364h-.368Zm.368.632v1.207a.868.868,0,0,0,.7.343.948.948,0,0,0,0-1.889A.843.843,0,0,0,127.605,120.1Z"/>
        <path d="M130.142,121.373a1.281,1.281,0,0,0,.793.309c.359,0,.622-.187.622-.445,0-.2-.132-.308-.445-.369l-.4-.07c-.481-.086-.7-.288-.7-.647,0-.424.369-.722.888-.722a1.594,1.594,0,0,1,.94.308l-.182.258a1.307,1.307,0,0,0-.772-.263c-.324,0-.536.151-.536.394,0,.2.106.3.424.353l.414.076c.495.091.717.3.717.662a.863.863,0,0,1-.959.762,1.406,1.406,0,0,1-1-.363Z"/>
        <path d="M132.824,120.954a.637.637,0,0,0,.656.712.731.731,0,0,0,.647-.374v-1.823h.369v2.465h-.369v-.4a.882.882,0,0,1-.782.44.863.863,0,0,1-.9-.915v-1.591h.374Z"/>
        <path d="M135.254,119.469h.368v.384a.844.844,0,0,1,.732-.424.81.81,0,0,1,.758.48.911.911,0,0,1,.823-.48.839.839,0,0,1,.839.914v1.591h-.369v-1.5c0-.429-.232-.7-.6-.7a.686.686,0,0,0-.617.389,1.031,1.031,0,0,1,.02.217v1.591h-.368v-1.5a.612.612,0,0,0-.611-.7.675.675,0,0,0-.6.364v1.833h-.368Z"/>
        <path d="M142.513,121.606a.975.975,0,0,1-.789.363,1.271,1.271,0,0,1,.02-2.53,1,1,0,0,1,.769.344v-1.46l.368-.076v3.687h-.368Zm-.7.04a.848.848,0,0,0,.7-.328V120.1a.912.912,0,1,0-.7,1.55Z"/>
        <path d="M144.724,119.429a1.28,1.28,0,1,1-1.2,1.273A1.211,1.211,0,0,1,144.724,119.429Zm.838,1.277a.843.843,0,1,0-1.671,0,.842.842,0,1,0,1.671,0Z"/>
        <path d="M146.941,121.934h-.368v-3.611l.368-.076Z"/>
        <path d="M148.785,119.429a1.28,1.28,0,1,1-1.2,1.273A1.21,1.21,0,0,1,148.785,119.429Zm.838,1.277a.843.843,0,1,0-1.672,0,.843.843,0,1,0,1.672,0Z"/>
        <path d="M150.634,119.469H151v.5a.737.737,0,0,1,.687-.545.711.711,0,0,1,.233.035v.333a.933.933,0,0,0-.258-.045.7.7,0,0,0-.662.5v1.687h-.368Z"/>
        <path d="M122.306,127.435a1.279,1.279,0,0,0,.792.309c.359,0,.622-.187.622-.445,0-.2-.132-.308-.445-.369l-.4-.07c-.48-.086-.7-.288-.7-.647,0-.424.369-.722.888-.722a1.594,1.594,0,0,1,.94.308l-.182.258a1.307,1.307,0,0,0-.772-.263c-.324,0-.535.151-.535.394,0,.2.1.3.423.353l.414.076c.5.091.718.3.718.662a.864.864,0,0,1-.96.762,1.406,1.406,0,0,1-1-.363Z"/>
        <path d="M124.548,124.658a.265.265,0,0,1,.53,0,.265.265,0,1,1-.53,0ZM125,128h-.368v-2.465H125Z"/>
        <path d="M126.048,125.834h-.511v-.3h.511v-.677l.368-.086v.763h.707v.3h-.707v1.511c0,.262.1.368.359.368a.874.874,0,0,0,.348-.066v.329a1.391,1.391,0,0,1-.429.065c-.425,0-.646-.207-.646-.6Z"/>
        <path d="M128.709,127.289c0-.439.369-.732.925-.732a1.429,1.429,0,0,1,.752.191v-.338a.555.555,0,0,0-.636-.611,1.633,1.633,0,0,0-.748.212l-.136-.283a2.117,2.117,0,0,1,.929-.237c.611,0,.955.308.955.869V128h-.364v-.288a1.055,1.055,0,0,1-.783.333A.8.8,0,0,1,128.709,127.289Zm.97.47a.975.975,0,0,0,.707-.283V127a1.3,1.3,0,0,0-.7-.177c-.379,0-.627.182-.627.455C129.062,127.567,129.31,127.759,129.679,127.759Z"/>
        <path d="M131.5,125.531h.368v.384a.846.846,0,0,1,.733-.424.808.808,0,0,1,.757.48.913.913,0,0,1,.824-.48.838.838,0,0,1,.838.914V128h-.369v-1.5c0-.429-.232-.7-.6-.7a.684.684,0,0,0-.616.389,1.109,1.109,0,0,1,.019.217V128h-.368v-1.5a.612.612,0,0,0-.611-.7.676.676,0,0,0-.6.364V128H131.5Z"/>
        <path d="M136.878,128.041a1.23,1.23,0,0,1-1.223-1.277,1.2,1.2,0,0,1,1.162-1.273,1.163,1.163,0,0,1,1.131,1.242v.112h-1.934a.9.9,0,0,0,.878.873,1.008,1.008,0,0,0,.677-.252l.233.247A1.44,1.44,0,0,1,136.878,128.041Zm-.854-1.459h1.561a.815.815,0,0,0-.774-.773A.823.823,0,0,0,136.024,126.582Z"/>
        <path d="M138.8,125.834h-.51v-.3h.51v-.677l.368-.086v.763h.707v.3h-.707v1.511c0,.262.1.368.359.368a.874.874,0,0,0,.348-.066v.329a1.391,1.391,0,0,1-.429.065c-.425,0-.646-.207-.646-.6Z"/>
      </g>
    </g>
    <g>
      <g>
        <path class="b0cb5f35-069f-4fb1-8a6e-89bc150d0bc1" d="M47.619,110.387h.6v1.49h1.758v-1.49h.607v3.535h-.607v-1.515H48.224v1.515h-.6Z"/>
        <path class="b0cb5f35-069f-4fb1-8a6e-89bc150d0bc1" d="M52.514,113.973a1.287,1.287,0,0,1-1.289-1.313,1.247,1.247,0,0,1,1.233-1.309,1.215,1.215,0,0,1,1.2,1.3v.141H51.786a.774.774,0,0,0,.758.692.816.816,0,0,0,.6-.238l.374.349A1.459,1.459,0,0,1,52.514,113.973Zm-.717-1.525h1.317a.692.692,0,0,0-.661-.632A.679.679,0,0,0,51.8,112.448Z"/>
        <path class="b0cb5f35-069f-4fb1-8a6e-89bc150d0bc1" d="M54.09,113.2c0-.454.368-.742.965-.742a1.561,1.561,0,0,1,.681.156v-.278c0-.333-.192-.505-.581-.505a1.755,1.755,0,0,0-.737.2l-.2-.414a2.441,2.441,0,0,1,1.05-.258c.657,0,1.036.334,1.036.92v1.651h-.566v-.258a1.054,1.054,0,0,1-.753.3A.8.8,0,0,1,54.09,113.2Zm1.05.369a.906.906,0,0,0,.6-.207v-.415a1.306,1.306,0,0,0-.586-.121c-.323,0-.525.142-.525.364S54.827,113.564,55.14,113.564Z"/>
        <path class="b0cb5f35-069f-4fb1-8a6e-89bc150d0bc1" d="M58.8,113.584a.976.976,0,0,1-.779.364,1.295,1.295,0,0,1,.035-2.576.967.967,0,0,1,.738.333v-1.394l.571-.1v3.707H58.8Zm-.607-.116a.758.758,0,0,0,.6-.278v-1.066a.789.789,0,0,0-.6-.273.811.811,0,0,0,0,1.617Z"/>
        <path class="b0cb5f35-069f-4fb1-8a6e-89bc150d0bc1" d="M60.645,113.922h-.57v-3.611l.57-.1Z"/>
        <path class="b0cb5f35-069f-4fb1-8a6e-89bc150d0bc1" d="M61.278,110.528a.356.356,0,0,1,.712,0,.356.356,0,0,1-.712,0Zm.641,3.394h-.57v-2.53h.57Z"/>
        <path class="b0cb5f35-069f-4fb1-8a6e-89bc150d0bc1" d="M62.622,111.392h.57v.414a.921.921,0,0,1,.8-.455.852.852,0,0,1,.874.905v1.666H64.3v-1.5a.545.545,0,0,0-.556-.606.651.651,0,0,0-.551.3v1.808h-.57Z"/>
        <path class="b0cb5f35-069f-4fb1-8a6e-89bc150d0bc1" d="M66.733,113.973a1.287,1.287,0,0,1-1.288-1.313,1.247,1.247,0,0,1,1.233-1.309,1.215,1.215,0,0,1,1.2,1.3v.141H66.006a.773.773,0,0,0,.758.692.816.816,0,0,0,.6-.238l.374.349A1.459,1.459,0,0,1,66.733,113.973Zm-.717-1.525h1.318a.693.693,0,0,0-.661-.632A.68.68,0,0,0,66.016,112.448Z"/>
      </g>
      <g>
        <path d="M37.076,118.4h.39v3.193H39.46v.343H37.076Z"/>
        <path d="M41.042,119.429a1.28,1.28,0,1,1-1.2,1.273A1.211,1.211,0,0,1,41.042,119.429Zm.838,1.277a.843.843,0,1,0-1.672,0,.843.843,0,1,0,1.672,0Z"/>
        <path d="M42.891,119.469h.368v.5a.737.737,0,0,1,.687-.545.715.715,0,0,1,.233.035v.333a.933.933,0,0,0-.258-.045.7.7,0,0,0-.662.5v1.687h-.368Z"/>
        <path d="M45.624,121.979A1.23,1.23,0,0,1,44.4,120.7a1.2,1.2,0,0,1,1.162-1.273,1.163,1.163,0,0,1,1.131,1.242v.112H44.76a.9.9,0,0,0,.879.873,1.007,1.007,0,0,0,.676-.252l.233.247A1.438,1.438,0,0,1,45.624,121.979Zm-.854-1.459h1.561a.781.781,0,0,0-1.561,0Z"/>
        <path d="M47.326,119.469h.368v.384a.846.846,0,0,1,.733-.424.808.808,0,0,1,.757.48.911.911,0,0,1,.824-.48.839.839,0,0,1,.839.914v1.591h-.37v-1.5c0-.429-.232-.7-.6-.7a.684.684,0,0,0-.616.389,1.1,1.1,0,0,1,.019.217v1.591h-.368v-1.5a.612.612,0,0,0-.611-.7.676.676,0,0,0-.6.364v1.833h-.368Z"/>
        <path d="M52.69,118.6a.266.266,0,0,1,.531,0,.266.266,0,1,1-.531,0Zm.45,3.338h-.369v-2.465h.369Z"/>
        <path d="M53.9,119.469h.364v.354a.97.97,0,0,1,.8-.384,1.271,1.271,0,0,1-.019,2.53,1,1,0,0,1-.773-.343v1.364H53.9Zm.369.632v1.207a.867.867,0,0,0,.7.343.948.948,0,0,0,0-1.889A.84.84,0,0,0,54.266,120.1Z"/>
        <path d="M56.8,121.373a1.279,1.279,0,0,0,.793.309c.358,0,.621-.187.621-.445,0-.2-.132-.308-.445-.369l-.4-.07c-.48-.086-.7-.288-.7-.647,0-.424.369-.722.888-.722a1.594,1.594,0,0,1,.94.308l-.182.258a1.307,1.307,0,0,0-.772-.263c-.323,0-.535.151-.535.394,0,.2.105.3.423.353l.415.076c.5.091.716.3.716.662a.863.863,0,0,1-.959.762,1.407,1.407,0,0,1-1-.363Z"/>
        <path d="M59.484,120.954a.637.637,0,0,0,.657.712.729.729,0,0,0,.646-.374v-1.823h.369v2.465h-.369v-.4a.882.882,0,0,1-.782.44.863.863,0,0,1-.9-.915v-1.591h.374Z"/>
        <path d="M61.914,119.469h.368v.384a.846.846,0,0,1,.733-.424.808.808,0,0,1,.757.48.911.911,0,0,1,.824-.48.838.838,0,0,1,.838.914v1.591h-.369v-1.5c0-.429-.232-.7-.605-.7a.684.684,0,0,0-.616.389,1.1,1.1,0,0,1,.019.217v1.591H63.5v-1.5a.612.612,0,0,0-.611-.7.676.676,0,0,0-.6.364v1.833h-.368Z"/>
        <path d="M69.173,121.606a.974.974,0,0,1-.788.363,1.271,1.271,0,0,1,.019-2.53,1,1,0,0,1,.769.344v-1.46l.368-.076v3.687h-.368Zm-.7.04a.845.845,0,0,0,.7-.328V120.1a.912.912,0,1,0-.7,1.55Z"/>
        <path d="M71.385,119.429a1.28,1.28,0,1,1-1.2,1.273A1.211,1.211,0,0,1,71.385,119.429Zm.838,1.277a.843.843,0,1,0-1.672,0,.843.843,0,1,0,1.672,0Z"/>
        <path d="M73.6,121.934h-.368v-3.611l.368-.076Z"/>
        <path d="M75.445,119.429a1.28,1.28,0,1,1-1.2,1.273A1.21,1.21,0,0,1,75.445,119.429Zm.838,1.277a.843.843,0,1,0-1.672,0,.843.843,0,1,0,1.672,0Z"/>
        <path d="M77.294,119.469h.368v.5a.737.737,0,0,1,.687-.545.711.711,0,0,1,.233.035v.333a.933.933,0,0,0-.258-.045.7.7,0,0,0-.662.5v1.687h-.368Z"/>
        <path d="M48.966,127.435a1.279,1.279,0,0,0,.792.309c.359,0,.622-.187.622-.445,0-.2-.132-.308-.445-.369l-.4-.07c-.48-.086-.7-.288-.7-.647,0-.424.369-.722.889-.722a1.594,1.594,0,0,1,.939.308l-.182.258a1.3,1.3,0,0,0-.772-.263c-.323,0-.535.151-.535.394,0,.2.1.3.424.353l.414.076c.495.091.717.3.717.662a.864.864,0,0,1-.96.762,1.407,1.407,0,0,1-1-.363Z"/>
        <path d="M51.208,124.658a.265.265,0,0,1,.53,0,.265.265,0,1,1-.53,0ZM51.657,128h-.368v-2.465h.368Z"/>
        <path d="M52.708,125.834H52.2v-.3h.511v-.677l.368-.086v.763h.707v.3h-.707v1.511c0,.262.1.368.359.368a.874.874,0,0,0,.348-.066v.329a1.391,1.391,0,0,1-.429.065c-.424,0-.646-.207-.646-.6Z"/>
        <path d="M55.369,127.289c0-.439.369-.732.925-.732a1.429,1.429,0,0,1,.752.191v-.338a.555.555,0,0,0-.636-.611,1.633,1.633,0,0,0-.748.212l-.136-.283a2.117,2.117,0,0,1,.929-.237c.611,0,.955.308.955.869V128h-.364v-.288a1.054,1.054,0,0,1-.782.333A.8.8,0,0,1,55.369,127.289Zm.97.47a.973.973,0,0,0,.707-.283V127a1.3,1.3,0,0,0-.7-.177c-.378,0-.626.182-.626.455C55.723,127.567,55.971,127.759,56.339,127.759Z"/>
        <path d="M58.158,125.531h.368v.384a.846.846,0,0,1,.733-.424.808.808,0,0,1,.757.48.913.913,0,0,1,.824-.48.839.839,0,0,1,.839.914V128h-.37v-1.5c0-.429-.232-.7-.6-.7a.684.684,0,0,0-.616.389,1.109,1.109,0,0,1,.019.217V128h-.368v-1.5a.612.612,0,0,0-.611-.7.676.676,0,0,0-.6.364V128h-.368Z"/>
        <path d="M63.538,128.041a1.23,1.23,0,0,1-1.223-1.277,1.2,1.2,0,0,1,1.162-1.273,1.163,1.163,0,0,1,1.131,1.242v.112H62.674a.9.9,0,0,0,.879.873,1.007,1.007,0,0,0,.676-.252l.233.247A1.438,1.438,0,0,1,63.538,128.041Zm-.854-1.459h1.561a.814.814,0,0,0-.773-.773A.823.823,0,0,0,62.684,126.582Z"/>
        <path d="M65.457,125.834h-.51v-.3h.51v-.677l.368-.086v.763h.707v.3h-.707v1.511c0,.262.1.368.359.368a.874.874,0,0,0,.348-.066v.329a1.391,1.391,0,0,1-.429.065c-.424,0-.646-.207-.646-.6Z"/>
      </g>
    </g>
    <g>
      <path class="be5a7ab1-a9e0-43fd-85b7-731b18850d5a" d="M155.62,77.883a.184.184,0,0,1-.184-.184,24.436,24.436,0,0,0-48.872,0,.184.184,0,1,1-.368,0,24.8,24.8,0,0,1,49.608,0A.184.184,0,0,1,155.62,77.883Z"/>
      <g>
        <circle class="ad833d2f-ed3e-43b8-96b4-d81c82a08372" cx="131.161" cy="53.079" r="4.276"/>
        <path class="be5a7ab1-a9e0-43fd-85b7-731b18850d5a" d="M131.161,57.539a4.46,4.46,0,1,1,4.46-4.459A4.464,4.464,0,0,1,131.161,57.539Zm0-8.551a4.092,4.092,0,1,0,4.092,4.092A4.1,4.1,0,0,0,131.161,48.988Z"/>
      </g>
      <path class="b653a64d-b969-4761-9fdc-016ef87c8f0b" d="M134.185,50.056a4.276,4.276,0,0,1-6.047,6.047Z"/>
      <g>
        <circle class="ad833d2f-ed3e-43b8-96b4-d81c82a08372" cx="112.102" cy="62.289" r="4.276"/>
        <path class="be5a7ab1-a9e0-43fd-85b7-731b18850d5a" d="M112.1,66.748a4.46,4.46,0,1,1,4.46-4.459A4.465,4.465,0,0,1,112.1,66.748Zm0-8.551a4.092,4.092,0,1,0,4.092,4.092A4.1,4.1,0,0,0,112.1,58.2Z"/>
      </g>
      <path class="b51d9387-2944-405e-99fe-7453623c08cb" d="M115.125,59.265a4.276,4.276,0,1,1-6.046,6.047Z"/>
      <g>
        <circle class="ad833d2f-ed3e-43b8-96b4-d81c82a08372" cx="106.38" cy="81.975" r="4.276"/>
        <path class="be5a7ab1-a9e0-43fd-85b7-731b18850d5a" d="M106.38,86.435a4.46,4.46,0,1,1,4.46-4.46A4.465,4.465,0,0,1,106.38,86.435Zm0-8.552a4.092,4.092,0,1,0,4.092,4.092A4.1,4.1,0,0,0,106.38,77.883Z"/>
      </g>
      <path class="a89c13f0-bf69-4cac-a49c-ccdb0fbc3a40" d="M109.4,78.952A4.275,4.275,0,0,1,103.357,85Z"/>
      <g>
        <circle class="ad833d2f-ed3e-43b8-96b4-d81c82a08372" cx="155.62" cy="81.975" r="4.276"/>
        <path class="be5a7ab1-a9e0-43fd-85b7-731b18850d5a" d="M155.62,86.435a4.46,4.46,0,1,1,4.459-4.46A4.465,4.465,0,0,1,155.62,86.435Zm0-8.552a4.092,4.092,0,1,0,4.091,4.092A4.1,4.1,0,0,0,155.62,77.883Z"/>
      </g>
      <path class="ff338f17-262d-46e4-950c-6993a06ca4ce" d="M158.643,78.952A4.276,4.276,0,1,1,152.6,85Z"/>
      <g>
        <circle class="ad833d2f-ed3e-43b8-96b4-d81c82a08372" cx="149.649" cy="62.289" r="4.276"/>
        <path class="be5a7ab1-a9e0-43fd-85b7-731b18850d5a" d="M149.649,66.748a4.46,4.46,0,1,1,4.46-4.459A4.464,4.464,0,0,1,149.649,66.748Zm0-8.551a4.092,4.092,0,1,0,4.091,4.092A4.1,4.1,0,0,0,149.649,58.2Z"/>
      </g>
      <path class="b811d319-8605-4c32-ac6b-cbfc2525f4f8" d="M152.673,59.265a4.276,4.276,0,0,1-6.047,6.047Z"/>
      <rect class="be5a7ab1-a9e0-43fd-85b7-731b18850d5a" x="120.271" y="67.329" width="25.001" height="25.25"/>
      <g>
        <rect class="ad833d2f-ed3e-43b8-96b4-d81c82a08372" x="118.667" y="65.324" width="24.19" height="24.861"/>
        <path class="be5a7ab1-a9e0-43fd-85b7-731b18850d5a" d="M142.856,90.369H118.667a.184.184,0,0,1-.184-.184V65.325a.184.184,0,0,1,.184-.185h24.189a.184.184,0,0,1,.184.185v24.86A.184.184,0,0,1,142.856,90.369Zm-24-.368h23.821V65.509H118.851Z"/>
      </g>
      <path class="be5a7ab1-a9e0-43fd-85b7-731b18850d5a" d="M142.856,84.047H118.667a.184.184,0,0,1,0-.368h24.189a.184.184,0,0,1,0,.368Z"/>
      <path class="be5a7ab1-a9e0-43fd-85b7-731b18850d5a" d="M142.856,77.868H118.667a.184.184,0,0,1,0-.368h24.189a.184.184,0,0,1,0,.368Z"/>
      <path class="be5a7ab1-a9e0-43fd-85b7-731b18850d5a" d="M142.856,71.688H118.667a.184.184,0,0,1,0-.368h24.189a.184.184,0,1,1,0,.368Z"/>
      <path class="be5a7ab1-a9e0-43fd-85b7-731b18850d5a" d="M125.865,80.942h-4.518a.184.184,0,0,1,0-.368h4.518a.184.184,0,0,1,0,.368Z"/>
      <circle class="be5a7ab1-a9e0-43fd-85b7-731b18850d5a" cx="139.446" cy="80.774" r="0.5"/>
      <circle class="be5a7ab1-a9e0-43fd-85b7-731b18850d5a" cx="137.368" cy="80.774" r="0.5"/>
      <circle class="be5a7ab1-a9e0-43fd-85b7-731b18850d5a" cx="139.446" cy="68.553" r="0.5"/>
      <circle class="be5a7ab1-a9e0-43fd-85b7-731b18850d5a" cx="137.368" cy="68.553" r="0.5"/>
      <g>
        <line class="ad833d2f-ed3e-43b8-96b4-d81c82a08372" x1="139.94" y1="74.609" x2="135.422" y2="74.609"/>
        <path class="be5a7ab1-a9e0-43fd-85b7-731b18850d5a" d="M139.94,74.793h-4.519a.184.184,0,0,1,0-.368h4.519a.184.184,0,0,1,0,.368Z"/>
      </g>
      <circle class="be5a7ab1-a9e0-43fd-85b7-731b18850d5a" cx="121.841" cy="74.594" r="0.5"/>
      <circle class="be5a7ab1-a9e0-43fd-85b7-731b18850d5a" cx="123.918" cy="74.594" r="0.5"/>
      <g>
        <rect class="ad833d2f-ed3e-43b8-96b4-d81c82a08372" x="120.608" y="85.619" width="20.196" height="2.8"/>
        <path class="be5a7ab1-a9e0-43fd-85b7-731b18850d5a" d="M140.8,88.6h-20.2a.184.184,0,0,1-.184-.184v-2.8a.184.184,0,0,1,.184-.184h20.2a.184.184,0,0,1,.184.184v2.8A.184.184,0,0,1,140.8,88.6Zm-20.012-.368H140.62V85.8H120.792Z"/>
      </g>
      <g>
        <rect class="ad833d2f-ed3e-43b8-96b4-d81c82a08372" x="120.608" y="67.401" width="8.621" height="2.302"/>
        <path class="be5a7ab1-a9e0-43fd-85b7-731b18850d5a" d="M129.228,69.888h-8.62a.184.184,0,0,1-.184-.184V67.4a.184.184,0,0,1,.184-.184h8.62a.184.184,0,0,1,.184.184v2.3A.184.184,0,0,1,129.228,69.888Zm-8.436-.369h8.252V67.585h-8.252Z"/>
      </g>
      <path class="be5a7ab1-a9e0-43fd-85b7-731b18850d5a" d="M130.114,69.888a.184.184,0,0,1-.184-.184V67.4a.185.185,0,0,1,.369,0v2.3A.184.184,0,0,1,130.114,69.888Z"/>
    </g>
    <g>
      <g>
        <polyline class="ad833d2f-ed3e-43b8-96b4-d81c82a08372" points="32.603 67.024 43.764 67.024 43.764 61.998 59.804 52.738 75.843 61.998 75.843 80.519 59.804 89.78 43.764 80.519 43.764 80.149"/>
        <path class="be5a7ab1-a9e0-43fd-85b7-731b18850d5a" d="M59.8,89.964a.186.186,0,0,1-.093-.025l-16.04-9.26a.185.185,0,0,1-.091-.16v-.37a.184.184,0,1,1,.368,0v.263L59.8,89.567l15.855-9.155V62.105L59.8,52.951,43.948,62.105v4.919a.184.184,0,0,1-.184.184H32.6a.185.185,0,0,1,0-.369H43.58V62a.185.185,0,0,1,.091-.16l16.04-9.26a.187.187,0,0,1,.186,0l16.039,9.26a.185.185,0,0,1,.091.16V80.519a.185.185,0,0,1-.091.16L59.9,89.939A.183.183,0,0,1,59.8,89.964Z"/>
      </g>
      <polygon class="be5a7ab1-a9e0-43fd-85b7-731b18850d5a" points="46.478 80.697 46.495 82.096 57.987 88.731 57.987 82.643 50.675 78.422 46.478 80.697"/>
      <path class="be5a7ab1-a9e0-43fd-85b7-731b18850d5a" d="M43.764,76.875a.184.184,0,0,1-.184-.185V73.826a.184.184,0,1,1,.368,0V76.69A.184.184,0,0,1,43.764,76.875Z"/>
      <path class="be5a7ab1-a9e0-43fd-85b7-731b18850d5a" d="M43.764,72.041a.184.184,0,0,1-.184-.184V68.438a.184.184,0,0,1,.368,0v3.419A.184.184,0,0,1,43.764,72.041Z"/>
      <polygon class="be5a7ab1-a9e0-43fd-85b7-731b18850d5a" points="59.802 71.425 75.841 62.165 75.843 80.519 59.804 89.78 59.804 85.793 59.802 71.425"/>
      <path class="be5a7ab1-a9e0-43fd-85b7-731b18850d5a" d="M59.8,89.964a.184.184,0,0,1-.184-.184V71.425a.187.187,0,0,1,.092-.16l16.04-9.26a.184.184,0,1,1,.185.319L59.986,71.532V89.78A.184.184,0,0,1,59.8,89.964Z"/>
      <path class="be5a7ab1-a9e0-43fd-85b7-731b18850d5a" d="M59.8,71.609a.2.2,0,0,1-.093-.024l-16.04-9.261a.185.185,0,1,1,.186-.319l16.04,9.26a.185.185,0,0,1,.067.252A.182.182,0,0,1,59.8,71.609Z"/>
      <path class="be5a7ab1-a9e0-43fd-85b7-731b18850d5a" d="M43.8,85.348a.18.18,0,0,1-.156-.087.183.183,0,0,1,.06-.254l3.762-2.322a.184.184,0,0,1,.193.314L43.9,85.321A.18.18,0,0,1,43.8,85.348Z"/>
      <path class="be5a7ab1-a9e0-43fd-85b7-731b18850d5a" d="M50.957,72.041H29.479a.184.184,0,0,1,0-.368H50.957a.184.184,0,0,1,0,.368Z"/>
      <path class="be5a7ab1-a9e0-43fd-85b7-731b18850d5a" d="M44.9,76.875H35.08a.185.185,0,0,1,0-.369H44.9a.185.185,0,1,1,0,.369Z"/>
      <g>
        <polygon class="ad833d2f-ed3e-43b8-96b4-d81c82a08372" points="39.696 82.046 39.696 90.754 47.238 95.109 54.78 90.754 54.78 82.046 47.238 77.691 39.696 82.046"/>
        <path class="be5a7ab1-a9e0-43fd-85b7-731b18850d5a" d="M47.237,95.293a.182.182,0,0,1-.092-.025L39.6,90.914a.185.185,0,0,1-.092-.16V82.046a.185.185,0,0,1,.092-.16l7.542-4.354a.185.185,0,0,1,.185,0l7.542,4.354a.184.184,0,0,1,.091.16v8.708a.184.184,0,0,1-.091.16L47.33,95.268A.183.183,0,0,1,47.237,95.293ZM39.88,90.647,47.237,94.9,54.6,90.647v-8.5l-7.358-4.247L39.88,82.152Z"/>
      </g>
      <path class="be5a7ab1-a9e0-43fd-85b7-731b18850d5a" d="M47.134,92.7a.184.184,0,0,1-.184-.185V86.573l-7.449-4.3a.185.185,0,1,1,.185-.32l7.541,4.354a.184.184,0,0,1,.091.16v6.049A.184.184,0,0,1,47.134,92.7Z"/>
      <path class="be5a7ab1-a9e0-43fd-85b7-731b18850d5a" d="M47.134,86.65a.182.182,0,0,1-.16-.092.185.185,0,0,1,.067-.252l7.646-4.42a.184.184,0,1,1,.185.319l-7.645,4.42A.183.183,0,0,1,47.134,86.65Z"/>
      <polygon class="aca01ed3-9bc0-4d1c-970a-eed1a6f1870f" points="47.135 86.466 54.78 82.046 54.78 90.754 47.238 95.109 47.135 86.466"/>
    </g>
  </g>
</svg>
