<svg id="f525eb2d-20ca-4017-a712-f3fc102379ae" data-name="Layer 1" xmlns="http://www.w3.org/2000/svg" viewBox="0 0 262 180">
  <defs>
    <style>
      .e5011f91-74aa-446d-b1bc-3d2f1e56311f {
        fill: red;
      }

      .e1d52c2d-a45b-492d-a159-66f936bd1136 {
        fill: #fadfdf;
      }

      .a5989d32-f594-412c-b7c8-6d15d0de7af7 {
        fill: #fff;
      }

      .f39c966e-fd22-454b-9cf3-b6406578b810 {
        fill: #fddbdb;
      }

      .ab81db00-3fc4-4f6f-9e1f-d70288d64bd7 {
        fill: #f56d6d;
      }

      .aa50e46b-129b-4868-99e2-5bc278eb13bd {
        fill: #fab6b6;
      }
    </style>
  </defs>
  <g>
    <g>
      <path class="e5011f91-74aa-446d-b1bc-3d2f1e56311f" d="M103.744,102.881A38.508,38.508,0,0,1,94.71,101.8,38.221,38.221,0,0,1,66.392,56.232a.4.4,0,0,1,.78.176A37.42,37.42,0,0,0,123.19,96.575a.4.4,0,1,1,.416.682A37.983,37.983,0,0,1,103.744,102.881Z"/>
      <path class="e5011f91-74aa-446d-b1bc-3d2f1e56311f" d="M71.082,45.846a.389.389,0,0,1-.2-.055.4.4,0,0,1-.143-.547,38.227,38.227,0,0,1,65.547-.53.4.4,0,1,1-.682.417,37.431,37.431,0,0,0-64.175.518A.4.4,0,0,1,71.082,45.846Z"/>
      <circle class="e5011f91-74aa-446d-b1bc-3d2f1e56311f" cx="71.019" cy="45.59" r="1.148"/>
      <circle class="e5011f91-74aa-446d-b1bc-3d2f1e56311f" cx="66.93" cy="56.084" r="1.148"/>
      <path class="e5011f91-74aa-446d-b1bc-3d2f1e56311f" d="M154.52,153.56A38.1,38.1,0,0,1,127.5,142.384a.4.4,0,1,1,.564-.565,37.421,37.421,0,1,0,0-52.921.4.4,0,1,1-.564-.564A38.219,38.219,0,1,1,154.52,153.56Z"/>
      <path class="e1d52c2d-a45b-492d-a159-66f936bd1136" d="M152.453,31.156c19.624,4.128,19.029,19.753,28.318,25.3,7.448,4.447,16.394,14.29,16.394,22.636,0,17.975-16.652,25.719-19.564,35.738-2.436,8.381-3.049,16.255-9.588,23.049-5.439,5.651-13.7,9.076-21.688,7.984-11.626-1.589-18.144-9.817-30.262-10.849-4.847-.413-12.5-.639-17.2-1.92-5.7-1.554-11.727-3.3-17-6.154-10.95-5.929-19.745-19.2-17.642-32.767C66.285,80.863,77.259,71.011,88.241,65.9c4.2-1.955,8.637-3.57,12.369-6.247,4.242-3.043,7.327-7.277,10.99-10.934C123.414,36.93,137.171,27.942,152.453,31.156Z"/>
      <path class="a5989d32-f594-412c-b7c8-6d15d0de7af7" d="M103.744,102.9a38.541,38.541,0,0,1-9.038-1.081A37.983,37.983,0,0,1,71.05,84.587c-.648-1.06-1.251-2.163-1.792-3.277a.416.416,0,0,1,.748-.363c.53,1.09,1.12,2.169,1.755,3.207a37.4,37.4,0,0,0,51.42,12.407.416.416,0,1,1,.434.71A37.995,37.995,0,0,1,103.744,102.9Z"/>
      <path class="a5989d32-f594-412c-b7c8-6d15d0de7af7" d="M188.583,99.315a.416.416,0,0,1-.375-.235,37.431,37.431,0,0,0-60.136-10.169.416.416,0,1,1-.588-.589,38.266,38.266,0,0,1,61.474,10.4.416.416,0,0,1-.375.6Z"/>
      <g>
        <g>
          <rect class="a5989d32-f594-412c-b7c8-6d15d0de7af7" x="154.09" y="112.303" width="39.694" height="36.339"/>
          <circle cx="184.382" cy="116.11" r="1.264"/>
          <circle cx="189.283" cy="116.11" r="1.264"/>
        </g>
        <path d="M188.66,122.723H159.406a.306.306,0,1,1,0-.612H188.66a.306.306,0,1,1,0,.612Z"/>
      </g>
      <g>
        <path class="a5989d32-f594-412c-b7c8-6d15d0de7af7" d="M126.673,54.625a9.454,9.454,0,0,1,3.334.6,13.567,13.567,0,0,1,11.277-7.122,20.442,20.442,0,0,1,37.5-2.7,15.466,15.466,0,1,1,4.477,30.271H127.5c-7.21,0-10.307-6.338-10.307-11.574A9.481,9.481,0,0,1,126.673,54.625Z"/>
        <path class="f39c966e-fd22-454b-9cf3-b6406578b810" d="M183.264,75.935H127.5c-6.934,0-10.562-5.951-10.562-11.829a9.742,9.742,0,0,1,12.952-9.191,13.906,13.906,0,0,1,11.21-7.054,20.7,20.7,0,0,1,37.817-2.755,15.721,15.721,0,1,1,4.348,30.829ZM126.673,54.88a9.237,9.237,0,0,0-9.226,9.226c0,4.55,2.677,11.319,10.052,11.319h55.765a15.21,15.21,0,1,0-4.4-29.772l-.2.061-.1-.188a20.187,20.187,0,0,0-37.035,2.663l-.056.163-.172.009a13.384,13.384,0,0,0-11.065,6.989l-.1.2-.209-.078A9.187,9.187,0,0,0,126.673,54.88Z"/>
      </g>
      <g>
        <rect class="ab81db00-3fc4-4f6f-9e1f-d70288d64bd7" x="91.53" y="52.904" width="70.199" height="66.93"/>
        <g>
          <g>
            <g>
              <rect class="a5989d32-f594-412c-b7c8-6d15d0de7af7" x="78.698" y="33.739" width="37.747" height="34.557"/>
              <circle cx="107.505" cy="37.36" r="1.202"/>
              <circle cx="112.166" cy="37.36" r="1.202"/>
            </g>
            <path d="M111.573,43.663H83.754a.306.306,0,1,1,0-.612h27.819a.306.306,0,1,1,0,.612Z"/>
            <g>
              <path d="M109.159,64.483a.307.307,0,0,1-.307-.306V57.49a.307.307,0,0,1,.614,0v6.687A.307.307,0,0,1,109.159,64.483Z"/>
              <path d="M95.783,64.483a.307.307,0,0,1-.307-.306V57.49a.307.307,0,0,1,.614,0v6.687A.307.307,0,0,1,95.783,64.483Z"/>
              <path d="M102.472,64.483a3.65,3.65,0,1,1,3.65-3.65A3.654,3.654,0,0,1,102.472,64.483Zm0-6.687a3.038,3.038,0,1,0,3.037,3.037A3.041,3.041,0,0,0,102.472,57.8Z"/>
              <path d="M89.1,64.483a3.65,3.65,0,1,1,3.65-3.65A3.654,3.654,0,0,1,89.1,64.483Zm0-6.687a3.038,3.038,0,1,0,3.037,3.037A3.041,3.041,0,0,0,89.1,57.8Z"/>
              <path d="M109.159,54.452a.308.308,0,0,1-.307-.307V47.458a.307.307,0,0,1,.614,0v6.687A.308.308,0,0,1,109.159,54.452Z"/>
              <path d="M104.7,54.452a.308.308,0,0,1-.307-.307V47.458a.307.307,0,0,1,.614,0v6.687A.308.308,0,0,1,104.7,54.452Z"/>
              <path d="M91.325,54.452a.308.308,0,0,1-.307-.307V47.458a.307.307,0,0,1,.614,0v6.687A.308.308,0,0,1,91.325,54.452Z"/>
              <path d="M86.866,54.452a.308.308,0,0,1-.307-.307V47.458a.307.307,0,0,1,.614,0v6.687A.308.308,0,0,1,86.866,54.452Z"/>
              <path d="M98.013,54.452a3.65,3.65,0,1,1,3.65-3.65A3.655,3.655,0,0,1,98.013,54.452Zm0-6.688A3.038,3.038,0,1,0,101.05,50.8,3.042,3.042,0,0,0,98.013,47.764Z"/>
            </g>
          </g>
          <polygon class="aa50e46b-129b-4868-99e2-5bc278eb13bd" points="91.537 68.591 78.403 68.591 78.403 33.739 78.993 33.739 78.993 68.002 91.537 68.002 91.537 68.591"/>
          <rect x="91.53" y="56.687" width="15.031" height="11.609"/>
          <rect class="f39c966e-fd22-454b-9cf3-b6406578b810" x="91.532" y="68.007" width="6.686" height="0.532"/>
        </g>
        <rect x="154.055" y="109.844" width="11.031" height="9.993"/>
        <rect class="f39c966e-fd22-454b-9cf3-b6406578b810" x="153.821" y="109.844" width="0.533" height="9.994"/>
        <rect class="a5989d32-f594-412c-b7c8-6d15d0de7af7" x="98.301" y="49.749" width="70.199" height="64.267"/>
        <rect class="e5011f91-74aa-446d-b1bc-3d2f1e56311f" x="98.301" y="49.749" width="70.199" height="13.637"/>
        <circle class="a5989d32-f594-412c-b7c8-6d15d0de7af7" cx="151.874" cy="56.482" r="2.236"/>
        <circle class="a5989d32-f594-412c-b7c8-6d15d0de7af7" cx="160.541" cy="56.482" r="2.236"/>
        <rect class="e1d52c2d-a45b-492d-a159-66f936bd1136" x="136.679" y="83.944" width="28.476" height="25.714"/>
        <rect class="e1d52c2d-a45b-492d-a159-66f936bd1136" x="103.011" y="67.718" width="30.389" height="41.659"/>
        <rect class="e1d52c2d-a45b-492d-a159-66f936bd1136" x="136.679" y="67.718" width="28.476" height="12.658"/>
        <polygon class="e5011f91-74aa-446d-b1bc-3d2f1e56311f" points="168.5 114.282 98.034 114.282 98.034 49.483 168.5 49.483 168.5 50.015 98.567 50.015 98.567 113.75 168.5 113.75 168.5 114.282"/>
      </g>
      <g>
        <path class="a5989d32-f594-412c-b7c8-6d15d0de7af7" d="M137.185,113.449a9.725,9.725,0,0,0-3.421.619,13.919,13.919,0,0,0-11.568-7.306A20.968,20.968,0,0,0,83.727,104a15.865,15.865,0,1,0-4.592,31.051h57.2c7.4,0,10.572-6.5,10.572-11.873A9.725,9.725,0,0,0,137.185,113.449Z"/>
        <path class="f39c966e-fd22-454b-9cf3-b6406578b810" d="M136.337,135.3h-57.2A16.118,16.118,0,1,1,83.6,103.692a21.223,21.223,0,0,1,38.783,2.825,14.256,14.256,0,0,1,11.5,7.237,9.985,9.985,0,0,1,13.282,9.42C147.164,129.2,143.445,135.3,136.337,135.3Zm-57.2-31.726a15.608,15.608,0,1,0,0,31.216h57.2c7.57,0,10.317-6.947,10.317-11.617a9.475,9.475,0,0,0-12.8-8.867l-.209.078-.105-.2a13.736,13.736,0,0,0-11.356-7.172l-.171-.009-.057-.163a20.713,20.713,0,0,0-38-2.733l-.1.189-.2-.062A15.633,15.633,0,0,0,79.135,103.575Z"/>
      </g>
      <circle class="a5989d32-f594-412c-b7c8-6d15d0de7af7" cx="136.032" cy="44.941" r="1.148"/>
      <circle class="e5011f91-74aa-446d-b1bc-3d2f1e56311f" cx="127.512" cy="141.949" r="1.148"/>
      <polygon class="aa50e46b-129b-4868-99e2-5bc278eb13bd" points="193.783 148.936 153.795 148.936 153.795 119.838 154.385 119.838 154.385 148.348 193.783 148.348 193.783 148.936"/>
    </g>
    <path class="a5989d32-f594-412c-b7c8-6d15d0de7af7" d="M135.943,45.339a.418.418,0,0,1-.355-.2,37.307,37.307,0,0,0-7.832-9.127.416.416,0,1,1,.535-.637,38.18,38.18,0,0,1,8.008,9.33.417.417,0,0,1-.356.633Z"/>
    <g>
      <path d="M162.65,133.91a.307.307,0,0,1-.306-.307v-6.687a.307.307,0,0,1,.613,0V133.6A.308.308,0,0,1,162.65,133.91Z"/>
      <path d="M176.026,133.91a.307.307,0,0,1-.306-.307v-6.687a.307.307,0,0,1,.613,0V133.6A.308.308,0,0,1,176.026,133.91Z"/>
      <path d="M169.339,133.91a3.65,3.65,0,1,1,3.65-3.65A3.655,3.655,0,0,1,169.339,133.91Zm0-6.688a3.038,3.038,0,1,0,3.037,3.038A3.041,3.041,0,0,0,169.339,127.222Z"/>
      <path d="M182.714,133.91a3.65,3.65,0,1,1,3.651-3.65A3.655,3.655,0,0,1,182.714,133.91Zm0-6.688a3.038,3.038,0,1,0,3.038,3.038A3.041,3.041,0,0,0,182.714,127.222Z"/>
      <path d="M162.65,143.941a.306.306,0,0,1-.306-.306v-6.687a.307.307,0,0,1,.613,0v6.687A.307.307,0,0,1,162.65,143.941Z"/>
      <path d="M167.109,143.941a.306.306,0,0,1-.306-.306v-6.687a.307.307,0,0,1,.613,0v6.687A.307.307,0,0,1,167.109,143.941Z"/>
      <path d="M180.485,143.941a.306.306,0,0,1-.306-.306v-6.687a.307.307,0,0,1,.613,0v6.687A.307.307,0,0,1,180.485,143.941Z"/>
      <path d="M184.943,143.941a.306.306,0,0,1-.306-.306v-6.687a.307.307,0,0,1,.613,0v6.687A.307.307,0,0,1,184.943,143.941Z"/>
      <path d="M173.8,143.941a3.65,3.65,0,1,1,3.65-3.65A3.654,3.654,0,0,1,173.8,143.941Zm0-6.687a3.038,3.038,0,1,0,3.037,3.037A3.041,3.041,0,0,0,173.8,137.254Z"/>
    </g>
  </g>
</svg>
