<svg id="fea01298-5ecd-42bc-98f9-df8b6a20e389" data-name="Layer 1" xmlns="http://www.w3.org/2000/svg" xmlns:xlink="http://www.w3.org/1999/xlink" viewBox="0 0 553 318">
  <defs>
    <style>
      .e4feb3f1-a564-4d25-ac81-c7f88b774374 {
        fill: none;
      }

      .af65e054-97b4-4431-94ed-ed1f0382d028 {
        fill: #fddbc7;
      }

      .bcaaca54-4a39-41aa-b4b2-ff33c94d9293 {
        fill: #f7823c;
      }

      .a2844283-7a53-4f5d-91a6-82e8bcc1d119 {
        fill: #e00;
      }

      .f34c45d2-6a49-45f0-b6d0-1b488ad234ab {
        fill: #fab890;
      }

      .bcb75453-2fe5-4d88-9f0e-539ebce21791 {
        fill: #261a4c;
      }

      .bbfce2da-632a-47f5-821a-f77a837d9239 {
        clip-path: url(#a9adb8ad-25f8-46da-a248-05a7045d8498);
      }

      .b7f8e36a-8cb3-496b-b861-0e01b1b2509f {
        clip-path: url(#bda41505-0563-4014-8872-6616ae6f3f36);
      }

      .a91b4816-dce4-4f86-887f-ebb449c24410 {
        clip-path: url(#bbc05231-e38d-44c8-abe9-20253b4d6c10);
      }

      .f611d289-90d1-4345-a4fe-3aaa01448d34 {
        fill: #fff;
      }

      .b844b0e6-c61f-453a-859a-ba781669ab84 {
        fill: #be0000;
      }

      .acf8fb7e-4cc4-4cd7-afa9-7dedace5f499 {
        fill: #8f0000;
      }

      .b30713b5-5363-404e-a3fa-cc265af5bb4b {
        clip-path: url(#bcef9b78-d51b-4d85-8c78-300b16443df1);
      }

      .a652d159-45f2-41d0-91b3-3fcffaaaa132 {
        clip-path: url(#b02934a0-991e-4930-9771-e2af1d4f7bb1);
      }

      .a5d35c82-133d-4a90-9f93-f63563637b46 {
        clip-path: url(#aa6c1d43-13b8-4252-9fee-267a06af3688);
      }

      .a66bcf61-b63d-453e-b985-80f60df194cc {
        clip-path: url(#bfbd4c17-5888-4ec6-a782-b13962660277);
      }

      .a8d7bb1f-09ea-4f88-9b6b-40ae830473ed {
        clip-path: url(#be16bddb-0c1e-44a1-b909-2138d7ae6e47);
      }

      .f0f4bb71-5e08-480b-a04a-b1a4f098d2cc {
        clip-path: url(#eaae0b7a-f4e1-48e8-9d67-14a44319fb0f);
      }
    </style>
    <clipPath id="a9adb8ad-25f8-46da-a248-05a7045d8498">
      <path class="e4feb3f1-a564-4d25-ac81-c7f88b774374" d="M276.181,3.306c70.027,0,65.437,62.408,96.4,89.071s48.637,82.332,33.987,131.849c-12.941,43.741-66.931,74.421-127.161,74.421-73.835,0-135.187-32.407-139.173-77.058-5.86-65.632,59.771-74.128,48.637-116.613S198.244,3.306,276.181,3.306Z"/>
    </clipPath>
    <clipPath id="bda41505-0563-4014-8872-6616ae6f3f36">
      <path class="e4feb3f1-a564-4d25-ac81-c7f88b774374" d="M219.047,218.659c-4.1,12.892-7.911,43.363,4.4,45.414s27.542-25.783,27.542-25.783Z"/>
    </clipPath>
    <clipPath id="bbc05231-e38d-44c8-abe9-20253b4d6c10">
      <path class="e4feb3f1-a564-4d25-ac81-c7f88b774374" d="M352.654,239.755a34.638,34.638,0,0,0,10.841-2.637c5.274-2.344,9.083,2.344,9.083,2.344-2.051.879-7.325,25.2-19.924,26.662-9.139,1.063-24.319-17.872-32.816-32.522l21.975-9.376s8.79,10.841,14.064,20.8"/>
    </clipPath>
    <clipPath id="bcef9b78-d51b-4d85-8c78-300b16443df1">
      <path class="e4feb3f1-a564-4d25-ac81-c7f88b774374" d="M315.437,183.142c-.768-5.252,2.643-8.9,2.643-11.656,0-3.516-2.93-3.223-3.809-6.446s1.172-4.1.879-8.5-6.365-.738-10.255-19.923c-2.193-10.819-14.65-21.682-21.682-21.682a13.223,13.223,0,0,0-5.026.815s-1.42-1.4-6.107-1.4c-4.981,0-13.441,4.347-20.491,14.333s-11.739,13.209-11.739,17.6a17.388,17.388,0,0,0,1.8,7.2c-1.953,3.606-4.438,7.364-4.438,9.5,0,3.516,2.637,4.688,2.637,7.032,0,4.1-9.669,9.083-6.446,20.217,0,0,1.465,5.86,10.548,5.86s59.771,5.274,67.1,3.809,7.2,4.031,8.5-2.344C320.644,192.16,318.651,187.472,315.437,183.142Z"/>
    </clipPath>
    <clipPath id="b02934a0-991e-4930-9771-e2af1d4f7bb1">
      <path class="e4feb3f1-a564-4d25-ac81-c7f88b774374" d="M351.482,233.6c-6.739-7.032-20.51-27.249-25.891-31.058s-67.282-19.924-79.3-19.338a20.988,20.988,0,0,0-16.994,9.376c-5.86,14.65-19.338,37.8-19.338,37.8s4.4,17.58,29.007,13.771l.253.019c-2.708,26.32-13.214,57.427-11.68,63.561.879,3.516,26.406,8.167,51.4,8.149s49.461-4.706,52.9-8.149c.484-10.881-7.812-31.739-10.726-57.305l2.229.171C347.966,250.3,351.482,233.6,351.482,233.6Z"/>
    </clipPath>
    <clipPath id="aa6c1d43-13b8-4252-9fee-267a06af3688">
      <path class="e4feb3f1-a564-4d25-ac81-c7f88b774374" d="M251.02,161.665c0,7.624-5.75,10.261-5.75,25.2s17.58,15.822,21.682,28.713c0,0,10.841-2.344,6.446-21.388Z"/>
    </clipPath>
    <clipPath id="bfbd4c17-5888-4ec6-a782-b13962660277">
      <path class="e4feb3f1-a564-4d25-ac81-c7f88b774374" d="M256.844,140.722c-4.688,8.79,4.688,12.6,2.93,19.337-1.077,4.128-5.509,12.737-4.4,18.752,1.465,7.911,7.618,23.147,32.522,25.784,0,0-4.688-9.669-.879-16.115,0,0,7.032-14.064-4.688-28.421s-19.923-21.681-19.923-21.681Z"/>
    </clipPath>
    <clipPath id="be16bddb-0c1e-44a1-b909-2138d7ae6e47">
      <path class="e4feb3f1-a564-4d25-ac81-c7f88b774374" d="M361.378,239.229c-.328-1.311-4.915-1.966-4.915-4.588s4.259-2.621,4.259-2.621,4.587-7.208,6.553-7.208a7.105,7.105,0,0,1,4.588,1.638,9.037,9.037,0,0,1,5.242,3.6,3.558,3.558,0,0,1,2.949,3.277s.983,0,1.311.655-2.294,5.243-3.932,5.9c-3.291,1.316-4.587.328-5.9,1.311S361.378,239.229,361.378,239.229Z"/>
    </clipPath>
    <clipPath id="eaae0b7a-f4e1-48e8-9d67-14a44319fb0f">
      <circle class="e4feb3f1-a564-4d25-ac81-c7f88b774374" cx="181.296" cy="222.2" r="6.481"/>
    </clipPath>
  </defs>
  <g>
    <rect class="af65e054-97b4-4431-94ed-ed1f0382d028" width="553" height="318"/>
    <g>
      <path class="af65e054-97b4-4431-94ed-ed1f0382d028" d="M276.181,3.306c70.027,0,65.437,62.408,96.4,89.071s48.637,82.332,33.987,131.849c-12.941,43.741-66.931,74.421-127.161,74.421-73.835,0-135.187-32.407-139.173-77.058-5.86-65.632,66.51-65.925,55.376-108.409S198.244,3.306,276.181,3.306Z"/>
      <path class="bcaaca54-4a39-41aa-b4b2-ff33c94d9293" d="M151.219,163.722h-1.172V128.416a3.519,3.519,0,0,1,3.515-3.516h26.369a2.347,2.347,0,0,0,2.345-2.344V40.37a3.52,3.52,0,0,1,3.516-3.516h65.485v1.172H185.792a2.347,2.347,0,0,0-2.344,2.344v82.186a3.52,3.52,0,0,1-3.517,3.516H153.562a2.346,2.346,0,0,0-2.343,2.344Z"/>
      <path class="bcaaca54-4a39-41aa-b4b2-ff33c94d9293" d="M387.374,178.079H366.718v-1.172h20.656a2.347,2.347,0,0,0,2.344-2.344V84.32a2.347,2.347,0,0,0-2.344-2.344H334.488V80.8h52.886a3.519,3.519,0,0,1,3.515,3.516v90.243A3.52,3.52,0,0,1,387.374,178.079Z"/>
      <g>
        <rect class="a2844283-7a53-4f5d-91a6-82e8bcc1d119" x="138.022" y="149.409" width="61.236" height="34.445"/>
        <path class="f34c45d2-6a49-45f0-b6d0-1b488ad234ab" d="M190.249,164.5h-8.2a.586.586,0,0,1-.586-.585v-8.205a.587.587,0,0,1,.586-.586h8.2a.587.587,0,0,1,.586.586v8.205A.586.586,0,0,1,190.249,164.5Zm-7.618-1.171h7.032v-7.033h-7.032Z"/>
        <path class="f34c45d2-6a49-45f0-b6d0-1b488ad234ab" d="M172.889,164.5h-8.205a.586.586,0,0,1-.586-.585v-8.205a.587.587,0,0,1,.586-.586h8.205a.586.586,0,0,1,.585.586v8.205A.585.585,0,0,1,172.889,164.5Zm-7.619-1.171H172.3v-7.033H165.27Z"/>
        <path class="f34c45d2-6a49-45f0-b6d0-1b488ad234ab" d="M155.748,178.855h-8.2a.586.586,0,0,1-.586-.586v-8.2a.587.587,0,0,1,.586-.586h8.2a.587.587,0,0,1,.586.586v8.2A.586.586,0,0,1,155.748,178.855Zm-7.617-1.171h7.031v-7.033h-7.031Z"/>
        <g>
          <path class="f34c45d2-6a49-45f0-b6d0-1b488ad234ab" d="M170.984,178.855a.584.584,0,0,1-.414-.171l-4.1-4.1a.585.585,0,0,1,0-.829l4.1-4.1a.586.586,0,0,1,.828.829l-3.687,3.687,3.687,3.688a.586.586,0,0,1-.414,1Z"/>
          <path class="f34c45d2-6a49-45f0-b6d0-1b488ad234ab" d="M183.217,174.753H167.176a.586.586,0,0,1,0-1.172h16.041a2.346,2.346,0,0,0,2.343-2.344v-7.324a.586.586,0,1,1,1.172,0v7.324A3.519,3.519,0,0,1,183.217,174.753Z"/>
        </g>
      </g>
      <rect class="bcb75453-2fe5-4d88-9f0e-539ebce21791" x="187.696" y="149.512" width="20.51" height="34.445"/>
      <g>
        <rect class="a2844283-7a53-4f5d-91a6-82e8bcc1d119" x="352.203" y="120.109" width="61.236" height="34.445"/>
        <path class="f34c45d2-6a49-45f0-b6d0-1b488ad234ab" d="M404.43,135.2h-8.2a.587.587,0,0,1-.586-.586v-8.2a.586.586,0,0,1,.586-.586h8.2a.585.585,0,0,1,.585.586v8.2A.586.586,0,0,1,404.43,135.2Zm-7.619-1.172h7.033V127h-7.033Z"/>
        <path class="f34c45d2-6a49-45f0-b6d0-1b488ad234ab" d="M387.069,135.2h-8.2a.587.587,0,0,1-.586-.586v-8.2a.586.586,0,0,1,.586-.586h8.2a.586.586,0,0,1,.586.586v8.2A.587.587,0,0,1,387.069,135.2Zm-7.617-1.172h7.031V127h-7.031Z"/>
        <path class="f34c45d2-6a49-45f0-b6d0-1b488ad234ab" d="M369.794,135.3h-8.2a.586.586,0,0,1-.586-.586v-8.2a.586.586,0,0,1,.586-.586h8.2a.586.586,0,0,1,.586.586v8.2A.586.586,0,0,1,369.794,135.3Zm-7.617-1.172h7.031V127.1h-7.031Z"/>
        <g>
          <path class="f34c45d2-6a49-45f0-b6d0-1b488ad234ab" d="M397.984,149.556a.587.587,0,0,1-.414-1l3.687-3.687-3.687-3.688a.586.586,0,0,1,.828-.829l4.1,4.1a.586.586,0,0,1,0,.829l-4.1,4.1A.583.583,0,0,1,397.984,149.556Z"/>
          <path class="f34c45d2-6a49-45f0-b6d0-1b488ad234ab" d="M401.793,145.454H385.751a3.52,3.52,0,0,1-3.516-3.516v-7.325a.586.586,0,0,1,1.172,0v7.325a2.347,2.347,0,0,0,2.344,2.344h16.042a.586.586,0,1,1,0,1.172Z"/>
        </g>
        <rect class="bcb75453-2fe5-4d88-9f0e-539ebce21791" x="355.749" y="120.144" width="17.58" height="34.445"/>
      </g>
      <g class="bbfce2da-632a-47f5-821a-f77a837d9239">
        <path class="f34c45d2-6a49-45f0-b6d0-1b488ad234ab" d="M355.877,223.054H204.69a.586.586,0,0,1,0-1.172H355.877a.586.586,0,1,1,0,1.172Z"/>
        <rect class="e4feb3f1-a564-4d25-ac81-c7f88b774374" x="142.07" y="132.962" width="100.921" height="54.204" transform="translate(352.595 -32.466) rotate(90)"/>
        <path class="bcaaca54-4a39-41aa-b4b2-ff33c94d9293" d="M329.653,81.829h-60.8a3.519,3.519,0,0,1-3.515-3.516V39.638h1.172V78.313a2.346,2.346,0,0,0,2.343,2.344h60.8Z"/>
        <path class="f34c45d2-6a49-45f0-b6d0-1b488ad234ab" d="M412.719,264.367H154.588a.586.586,0,0,1,0-1.172H412.719a.586.586,0,0,1,0,1.172Z"/>
        <path class="f34c45d2-6a49-45f0-b6d0-1b488ad234ab" d="M219.047,218.659c-4.1,12.892-7.911,43.363,4.4,45.414s27.542-25.783,27.542-25.783Z"/>
        <g class="b7f8e36a-8cb3-496b-b861-0e01b1b2509f">
          <path class="bcaaca54-4a39-41aa-b4b2-ff33c94d9293" d="M227.251,218.073c-4.1,12.892-14.357,44.535-2.051,46.586s25.784-26.369,25.784-26.369Z"/>
        </g>
        <path class="bcaaca54-4a39-41aa-b4b2-ff33c94d9293" d="M380.865,235.952a1.82,1.82,0,0,0-1.381-.614,4.011,4.011,0,0,0-3.3-3.072,10.512,10.512,0,0,0-5.626-3.379,8.162,8.162,0,0,0-4.762-1.536c-1.966,0-5.785,6.758-5.785,6.758s-1.33-.879-1.05,1.579c.2,1.807,2.777,2.618,4.31,3.409a90.977,90.977,0,0,1-10.333,2.253c-6.036-7.463-12.667-14.549-12.667-14.549L319.3,235.592c10.059,13.735,26.132,31.85,35.11,30.492,15.241-2.3,16.706-22.227,17.982-23.373,1.206-.922,2.022,0,5.172-1.229C379.13,240.867,381.262,236.567,380.865,235.952Z"/>
        <path class="f34c45d2-6a49-45f0-b6d0-1b488ad234ab" d="M352.654,239.755a34.638,34.638,0,0,0,10.841-2.637c5.274-2.344,9.083,2.344,9.083,2.344-2.051.879-7.325,25.2-19.924,26.662-9.139,1.063-24.319-17.872-32.816-32.522l21.975-9.376s10.841,14.064,16.115,24.026"/>
        <path class="af65e054-97b4-4431-94ed-ed1f0382d028" d="M357.929,248.837a.584.584,0,0,1-.519-.312c-5.19-9.8-15.953-23.8-16.061-23.941a.586.586,0,0,1,.928-.716c.11.141,10.932,14.218,16.168,24.109a.585.585,0,0,1-.516.86Z"/>
        <g class="a91b4816-dce4-4f86-887f-ebb449c24410">
          <path class="bcaaca54-4a39-41aa-b4b2-ff33c94d9293" d="M327.163,223.347c11.427,28.421,31.644,38.089,27.249,43.07s-32.523-9.375-37.5-17.579S327.163,223.347,327.163,223.347Z"/>
        </g>
        <g>
          <rect class="bcb75453-2fe5-4d88-9f0e-539ebce21791" x="193.947" y="102.046" width="173.454" height="97.568"/>
          <rect class="af65e054-97b4-4431-94ed-ed1f0382d028" x="235.586" y="67.799" width="90.177" height="166.063" transform="translate(431.504 -129.844) rotate(90)"/>
          <polygon class="f611d289-90d1-4345-a4fe-3aaa01448d34" points="341.038 106.111 197.415 106.111 196.828 196.18 252.917 196.18 341.038 106.111"/>
        </g>
        <circle class="a2844283-7a53-4f5d-91a6-82e8bcc1d119" cx="276.181" cy="145.41" r="29.739"/>
        <path class="b844b0e6-c61f-453a-859a-ba781669ab84" d="M243.366,168.849c4.688-9.376-3.516-14.064-3.516-22.56,0-4.395,4.688-7.618,11.739-17.6s15.51-14.333,20.491-14.333c4.687,0,6.107,1.4,6.107,1.4a13.223,13.223,0,0,1,5.026-.815c7.032,0,19.489,10.864,21.682,21.682,3.89,19.185,9.962,15.528,10.255,19.923s-1.758,5.274-.879,8.5,3.809,2.93,3.809,6.446-5.567,8.5-.879,16.408"/>
        <path class="b844b0e6-c61f-453a-859a-ba781669ab84" d="M243.952,147.168c0,4.394-6.739,12.305-6.739,15.821s2.637,4.688,2.637,7.032c0,4.1-9.669,9.083-6.446,20.217,0,0,1.465,5.86,10.548,5.86s59.771,5.274,67.1,3.809,7.2,4.031,8.5-2.344c3.516-17.287-24.612-27.249-23.147-41.606"/>
        <path class="acf8fb7e-4cc4-4cd7-afa9-7dedace5f499" d="M290.045,178.488s29.886,9.088,29.094,23.851c-.766,14.269-13.072,9.581-13.072,9.581S283.692,201.02,290.045,178.488Z"/>
        <g class="b30713b5-5363-404e-a3fa-cc265af5bb4b">
          <path class="acf8fb7e-4cc4-4cd7-afa9-7dedace5f499" d="M268.271,216.9c2.344-4.981-2.051-14.357-6.153-18.459s-14.357-10.841-13.771-18.459,6.153-15.529,1.758-24.319-4.981-15.235.879-22.56,14.943-20.51,27.248-17.287c0,0-.293-5.86-9.082-5.274S236.627,134.569,237.8,145.41s-4.1,16.993-4.4,21.974-5.274,15.822-2.637,20.51,5.274,14.064,15.236,19.338,19.338,14.357,20.8,12.013Z"/>
          <path class="acf8fb7e-4cc4-4cd7-afa9-7dedace5f499" d="M320.424,175.3c-18.459-2.637-24.026-19.338-24.026-19.338-1.153,11.3,16.032,19.88,21.683,31.452C322.182,184.085,320.424,175.3,320.424,175.3Z"/>
        </g>
        <g>
          <path class="f611d289-90d1-4345-a4fe-3aaa01448d34" d="M323.354,250.6c24.612-.293,28.128-16.994,28.128-16.994-6.739-7.032-20.51-27.249-25.891-31.058s-67.282-19.924-79.3-19.338a20.988,20.988,0,0,0-16.994,9.376c-5.86,14.65-19.338,37.8-19.338,37.8s4.4,17.58,29.007,13.771"/>
          <path class="f611d289-90d1-4345-a4fe-3aaa01448d34" d="M239.85,233.016c0,27.834-14.064,67.682-12.306,74.714.879,3.516,26.406,8.167,51.4,8.149s49.461-4.706,52.9-8.149c.586-13.185-11.72-41.02-11.72-74.128,0,0-19.049-12.021-41.168-12.021S239.85,233.016,239.85,233.016Z"/>
        </g>
        <path class="f34c45d2-6a49-45f0-b6d0-1b488ad234ab" d="M361.378,239.229c-.328-1.311-4.915-1.966-4.915-4.588s4.259-2.621,4.259-2.621,4.587-7.208,6.553-7.208a7.105,7.105,0,0,1,4.588,1.638,9.037,9.037,0,0,1,5.242,3.6,3.558,3.558,0,0,1,2.949,3.277s.983,0,1.311.655-2.294,5.243-3.932,5.9c-3.291,1.316-4.587.328-5.9,1.311S361.378,239.229,361.378,239.229Z"/>
        <path class="b844b0e6-c61f-453a-859a-ba781669ab84" d="M256.844,140.722c-4.688,8.79,4.688,12.6,2.93,19.337-1.077,4.128-5.509,12.737-4.4,18.752,1.465,7.911,7.618,23.147,32.522,25.784,0,0-4.688-9.669-.879-16.115,0,0,7.032-14.064-4.688-28.421s-19.923-21.681-19.923-21.681Z"/>
        <path class="b844b0e6-c61f-453a-859a-ba781669ab84" d="M301.086,189.652c-9.962,6.153-21.389,1.758-24.905-1.758,0,0-6.4-5.924-7.009-13.949-.336-4.436,16.015-15.116,17.85-4.51C289.659,184.671,301.086,189.652,301.086,189.652Z"/>
        <g class="a652d159-45f2-41d0-91b3-3fcffaaaa132">
          <g>
            <path class="af65e054-97b4-4431-94ed-ed1f0382d028" d="M263.29,186.722c-11.72,1.758-19.338-.879-26.37,3.809s-15.11,25.516-15.529,29.007c-.992,8.269,5.714,24.431,21.1,23.44,0,0,4.981,1.172,4.4,4.395s-35.746,7.325-39.848-16.7,18.017-44.59,26-47.64,27.616-1.584,27.616-1.584Z"/>
            <path class="af65e054-97b4-4431-94ed-ed1f0382d028" d="M321.889,218.952c.943-3.584,8.5,21.975,15.236,23.147s12.6-3.516,14.357-6.153c0,0-7.325,20.217-28.714,16.115C322.768,252.061,318.959,230.086,321.889,218.952Z"/>
            <path class="af65e054-97b4-4431-94ed-ed1f0382d028" d="M326.583,312.418c3.859-10.39,15.112-66.236-2.894-78.185S272.2,223.064,272.2,223.064s-32.8-.779-50.8,11.169-6.752,67.8-2.893,78.185"/>
          </g>
        </g>
        <path class="b844b0e6-c61f-453a-859a-ba781669ab84" d="M251.02,161.665c0,7.624-5.75,10.261-5.75,25.2s17.58,15.822,21.682,28.713c0,0,10.841-2.344,6.446-21.388Z"/>
        <path class="bcaaca54-4a39-41aa-b4b2-ff33c94d9293" d="M232.383,245.269c-8.9,0-14.369-3.168-17.546-6.149a19.44,19.44,0,0,1-5.442-8.6l-.057-.231.119-.206c.135-.231,13.524-23.278,19.3-37.72.244-.441,5.314-9.148,17.509-9.743l.057,1.17a20.594,20.594,0,0,0-16.513,9.081c-5.476,13.7-17.842,35.211-19.217,37.588.614,2.085,5.747,16.6,28.287,13.111l.179,1.158A43.758,43.758,0,0,1,232.383,245.269Z"/>
        <g class="a5d35c82-133d-4a90-9f93-f63563637b46">
          <path class="acf8fb7e-4cc4-4cd7-afa9-7dedace5f499" d="M268.271,216.9c2.344-4.981-2.051-14.357-6.153-18.459s-14.357-10.841-13.771-18.459,6.153-15.529,1.758-24.319-4.981-15.235.879-22.56,14.943-20.51,27.248-17.287c0,0-.293-5.86-9.082-5.274S236.627,134.569,237.8,145.41s-4.1,16.993-4.4,21.974-5.274,15.822-2.637,20.51,5.274,14.064,15.236,19.338,19.338,14.357,20.8,12.013Z"/>
        </g>
        <g class="a66bcf61-b63d-453e-b985-80f60df194cc">
          <path class="acf8fb7e-4cc4-4cd7-afa9-7dedace5f499" d="M287.315,200.786c-16.7-4.4-21.974-15.529-23.921-21.569s.7-9.859,2.24-16.228c2.051-8.5-11.427-11.719-8.79-22.267-5.567,9.376,4.688,12.6,2.93,19.337-1.077,4.128-5.509,12.737-4.4,18.752,1.465,7.911,7.618,23.147,32.522,25.784Z"/>
        </g>
        <path class="bcaaca54-4a39-41aa-b4b2-ff33c94d9293" d="M323.361,251.182l-.014-1.172c23.866-.284,27.528-16.367,27.562-16.529l1.146.242C352.019,233.894,348.155,250.887,323.361,251.182Z"/>
        <path class="bcb75453-2fe5-4d88-9f0e-539ebce21791" d="M328.525,308.609c3.516-10.39,13.771-66.236-2.637-78.185s-46.923-11.169-46.923-11.169-29.886-.779-46.294,11.169-6.153,67.795-2.637,78.185"/>
        <path class="a2844283-7a53-4f5d-91a6-82e8bcc1d119" d="M328.525,309.2a.577.577,0,0,1-.187-.031.585.585,0,0,1-.367-.743c4.069-12.028,13.17-66.164-2.427-77.523-16.059-11.693-46.255-11.064-46.565-11.057a.614.614,0,0,1-.6-.571.587.587,0,0,1,.571-.6,123.145,123.145,0,0,1,17.4,1.109c8.9,1.194,21.307,3.928,29.882,10.173,17.158,12.5,5.94,69.708,2.847,78.846A.586.586,0,0,1,328.525,309.2Z"/>
        <g class="a8d7bb1f-09ea-4f88-9b6b-40ae830473ed">
          <path class="bcaaca54-4a39-41aa-b4b2-ff33c94d9293" d="M369.062,224.519s-.293-.293-1.758.293-2.93,4.1-3.809,6.739.685,6.2-4.053,7.056-7.96-5-5.909-7.056S365.546,221,367.89,222.468,369.062,224.519,369.062,224.519Z"/>
        </g>
        <path class="bcaaca54-4a39-41aa-b4b2-ff33c94d9293" d="M271.933,78.753a3.516,3.516,0,1,1,3.516-3.516A3.52,3.52,0,0,1,271.933,78.753Zm0-5.861a2.345,2.345,0,1,0,2.344,2.345A2.347,2.347,0,0,0,271.933,72.892Z"/>
      </g>
      <g>
        <g>
          <rect class="bcb75453-2fe5-4d88-9f0e-539ebce21791" x="166.725" y="68.42" width="32.152" height="26.448"/>
          <path class="a2844283-7a53-4f5d-91a6-82e8bcc1d119" d="M198.877,68.42V94.868H166.725V68.42h32.152m1.172-1.172h-34.5V96.04h34.5V67.248Z"/>
        </g>
        <g>
          <path class="f611d289-90d1-4345-a4fe-3aaa01448d34" d="M185.66,84.691h-4.315a.586.586,0,0,1,0-1.172h4.315a.586.586,0,1,1,0,1.172Z"/>
          <path class="f611d289-90d1-4345-a4fe-3aaa01448d34" d="M177.464,84.691h-3.273a.586.586,0,0,1,0-1.172h3.273a.586.586,0,1,1,0,1.172Z"/>
          <path class="f611d289-90d1-4345-a4fe-3aaa01448d34" d="M188.866,79.81h-5.072a.586.586,0,0,1,0-1.172h5.072a.586.586,0,0,1,0,1.172Z"/>
          <path class="f611d289-90d1-4345-a4fe-3aaa01448d34" d="M180.785,79.81h-6.594a.586.586,0,1,1,0-1.172h6.594a.586.586,0,1,1,0,1.172Z"/>
          <path class="f611d289-90d1-4345-a4fe-3aaa01448d34" d="M193.984,89.53h-3.752a.586.586,0,0,1,0-1.172h3.752a.586.586,0,0,1,0,1.172Z"/>
          <path class="f611d289-90d1-4345-a4fe-3aaa01448d34" d="M186.351,89.53h-12.16a.586.586,0,0,1,0-1.172h12.16a.586.586,0,1,1,0,1.172Z"/>
          <path class="f611d289-90d1-4345-a4fe-3aaa01448d34" d="M194.139,74.929h-6.315a.586.586,0,0,1,0-1.172h6.315a.586.586,0,0,1,0,1.172Z"/>
          <path class="f611d289-90d1-4345-a4fe-3aaa01448d34" d="M184.878,74.929H174.191a.586.586,0,1,1,0-1.172h10.687a.586.586,0,1,1,0,1.172Z"/>
          <path class="f611d289-90d1-4345-a4fe-3aaa01448d34" d="M171.262,89.515a.586.586,0,0,1-.586-.586V74.447a.586.586,0,1,1,1.171,0V88.929A.585.585,0,0,1,171.262,89.515Z"/>
        </g>
      </g>
      <g>
        <g>
          <rect class="bcb75453-2fe5-4d88-9f0e-539ebce21791" x="315.86" y="68.42" width="32.152" height="26.448"/>
          <path class="a2844283-7a53-4f5d-91a6-82e8bcc1d119" d="M348.013,68.42V94.868H315.86V68.42h32.153m1.172-1.172h-34.5V96.04h34.5V67.248Z"/>
        </g>
        <g>
          <path class="f611d289-90d1-4345-a4fe-3aaa01448d34" d="M334.8,84.691H330.48a.586.586,0,0,1,0-1.172H334.8a.586.586,0,1,1,0,1.172Z"/>
          <path class="f611d289-90d1-4345-a4fe-3aaa01448d34" d="M326.6,84.691h-3.271a.586.586,0,0,1,0-1.172H326.6a.586.586,0,1,1,0,1.172Z"/>
          <path class="f611d289-90d1-4345-a4fe-3aaa01448d34" d="M338,79.81H332.93a.586.586,0,0,1,0-1.172H338a.586.586,0,1,1,0,1.172Z"/>
          <path class="f611d289-90d1-4345-a4fe-3aaa01448d34" d="M329.921,79.81h-6.594a.586.586,0,0,1,0-1.172h6.594a.586.586,0,1,1,0,1.172Z"/>
          <path class="f611d289-90d1-4345-a4fe-3aaa01448d34" d="M343.12,89.53h-3.752a.586.586,0,0,1,0-1.172h3.752a.586.586,0,1,1,0,1.172Z"/>
          <path class="f611d289-90d1-4345-a4fe-3aaa01448d34" d="M335.486,89.53H323.327a.586.586,0,0,1,0-1.172h12.159a.586.586,0,1,1,0,1.172Z"/>
          <path class="f611d289-90d1-4345-a4fe-3aaa01448d34" d="M343.274,74.929H336.96a.586.586,0,1,1,0-1.172h6.314a.586.586,0,1,1,0,1.172Z"/>
          <path class="f611d289-90d1-4345-a4fe-3aaa01448d34" d="M334.014,74.929H323.327a.586.586,0,0,1,0-1.172h10.687a.586.586,0,0,1,0,1.172Z"/>
          <path class="f611d289-90d1-4345-a4fe-3aaa01448d34" d="M320.4,89.515a.586.586,0,0,1-.586-.586V74.447a.586.586,0,0,1,1.172,0V88.929A.586.586,0,0,1,320.4,89.515Z"/>
        </g>
      </g>
      <g>
        <path class="bcb75453-2fe5-4d88-9f0e-539ebce21791" d="M199.377,224.793c0-.72-6.594-1.3-14.728-1.3s-14.728.584-14.728,1.3c0,.061.052.121.144.18l5.461,20.543c0,.452,4.143.819,9.253.819s9.254-.367,9.254-.819l5.2-20.544C199.326,224.914,199.377,224.854,199.377,224.793Z"/>
        <path class="a2844283-7a53-4f5d-91a6-82e8bcc1d119" d="M189.862,212.7a.292.292,0,0,1-.27-.406l1.3-3.128a.3.3,0,0,1,.383-.157.292.292,0,0,1,.158.383l-1.3,3.128A.3.3,0,0,1,189.862,212.7Z"/>
        <path class="a2844283-7a53-4f5d-91a6-82e8bcc1d119" d="M175.526,222.87a.279.279,0,0,1-.1-.019l-2.086-.782a.293.293,0,0,1,.205-.549l2.086.783a.293.293,0,0,1-.1.567Z"/>
        <g>
          <circle class="bcaaca54-4a39-41aa-b4b2-ff33c94d9293" cx="188.168" cy="219.058" r="8.732"/>
          <path class="a2844283-7a53-4f5d-91a6-82e8bcc1d119" d="M190.644,225.966a9.863,9.863,0,0,1-1.613-.132,2.356,2.356,0,0,1-1.974-2.168,6.071,6.071,0,0,0-1.585-3.6,5.407,5.407,0,0,0-3.075-1.788,2.056,2.056,0,0,1-1.655-1.966c0-.084,0-.168,0-.253a9.938,9.938,0,0,1,.179-1.87,8.688,8.688,0,0,0-1.482,4.868,8.731,8.731,0,0,0,14.877,6.2A9.874,9.874,0,0,1,190.644,225.966Z"/>
        </g>
        <ellipse class="bcb75453-2fe5-4d88-9f0e-539ebce21791" cx="176.308" cy="245.646" rx="17.725" ry="1.434"/>
        <g>
          <circle class="a2844283-7a53-4f5d-91a6-82e8bcc1d119" cx="179.676" cy="224.162" r="5.714"/>
          <g class="f0f4bb71-5e08-480b-a04a-b1a4f098d2cc">
            <circle class="bcaaca54-4a39-41aa-b4b2-ff33c94d9293" cx="179.676" cy="224.162" r="5.714"/>
          </g>
        </g>
        <path class="a2844283-7a53-4f5d-91a6-82e8bcc1d119" d="M170.064,224.972h0l5.461,20.543c0,.452,4.143.819,9.253.819s9.254-.367,9.254-.819l5.2-20.544c-.99.635-7.141,1.124-14.585,1.124S171.054,225.607,170.064,224.972Z"/>
        <path class="a2844283-7a53-4f5d-91a6-82e8bcc1d119" d="M194.294,215.31a.293.293,0,0,1-.156-.541l1.972-1.24a.293.293,0,0,1,.313.5l-1.973,1.241A.3.3,0,0,1,194.294,215.31Z"/>
        <path class="a2844283-7a53-4f5d-91a6-82e8bcc1d119" d="M183.346,214.789a.293.293,0,0,1-.229-.109l-2.085-2.607a.293.293,0,0,1,.457-.367l2.085,2.607a.292.292,0,0,1-.228.476Z"/>
        <path class="a2844283-7a53-4f5d-91a6-82e8bcc1d119" d="M192.729,221.306a.293.293,0,0,1-.131-.031l-1.563-.782a.293.293,0,0,1,.262-.524l1.563.782a.293.293,0,0,1-.131.555Z"/>
        <path class="a2844283-7a53-4f5d-91a6-82e8bcc1d119" d="M197.943,218.7h-3.649a.293.293,0,0,1,0-.586h3.649a.293.293,0,1,1,0,.586Z"/>
        <path class="a2844283-7a53-4f5d-91a6-82e8bcc1d119" d="M191.948,225.216a.292.292,0,0,1-.207-.086l-1.434-1.434a.293.293,0,0,1,.415-.414l1.433,1.434a.293.293,0,0,1-.207.5Z"/>
        <path class="a2844283-7a53-4f5d-91a6-82e8bcc1d119" d="M187.777,216.614a.294.294,0,0,1-.274-.19l-.782-2.085a.293.293,0,1,1,.548-.206l.783,2.085a.293.293,0,0,1-.172.377A.284.284,0,0,1,187.777,216.614Z"/>
        <path class="a2844283-7a53-4f5d-91a6-82e8bcc1d119" d="M177.35,221.306a.293.293,0,0,1-.252-.144l-1.461-2.477a.292.292,0,1,1,.5-.3l1.462,2.476a.293.293,0,0,1-.1.4A.3.3,0,0,1,177.35,221.306Z"/>
        <path class="a2844283-7a53-4f5d-91a6-82e8bcc1d119" d="M185.953,224.7h-.021l-3.649-.26a.293.293,0,0,1-.271-.314.3.3,0,0,1,.312-.271l3.649.26a.293.293,0,0,1-.02.586Z"/>
        <path class="a2844283-7a53-4f5d-91a6-82e8bcc1d119" d="M175.526,227.04a.293.293,0,0,1-.193-.513l2.085-1.825a.293.293,0,0,1,.387.441l-2.085,1.825A.292.292,0,0,1,175.526,227.04Z"/>
        <path class="a2844283-7a53-4f5d-91a6-82e8bcc1d119" d="M182.3,220.524a.294.294,0,0,1-.232-.473l1.824-2.346a.293.293,0,0,1,.463.36l-1.824,2.346A.294.294,0,0,1,182.3,220.524Z"/>
        <path class="a2844283-7a53-4f5d-91a6-82e8bcc1d119" d="M179.7,222.87a.276.276,0,0,1-.08-.011.292.292,0,0,1-.2-.362l.521-1.825a.293.293,0,0,1,.563.161l-.522,1.825A.292.292,0,0,1,179.7,222.87Z"/>
      </g>
      <g>
        <path class="bcaaca54-4a39-41aa-b4b2-ff33c94d9293" d="M188.722,46.816a3.516,3.516,0,1,1,3.516-3.516A3.52,3.52,0,0,1,188.722,46.816Zm0-5.86a2.344,2.344,0,1,0,2.344,2.344A2.347,2.347,0,0,0,188.722,40.956Z"/>
        <path class="bcaaca54-4a39-41aa-b4b2-ff33c94d9293" d="M156.492,135.008a3.516,3.516,0,1,1,3.516-3.516A3.52,3.52,0,0,1,156.492,135.008Zm0-5.86a2.344,2.344,0,1,0,2.344,2.344A2.347,2.347,0,0,0,156.492,129.148Z"/>
        <path class="bcaaca54-4a39-41aa-b4b2-ff33c94d9293" d="M384.444,90.766a3.516,3.516,0,1,1,3.516-3.517A3.52,3.52,0,0,1,384.444,90.766Zm0-5.86a2.344,2.344,0,1,0,2.344,2.343A2.346,2.346,0,0,0,384.444,84.906Z"/>
      </g>
      <g>
        <rect class="a2844283-7a53-4f5d-91a6-82e8bcc1d119" x="235.162" y="26.16" width="61.236" height="34.445"/>
        <path class="f34c45d2-6a49-45f0-b6d0-1b488ad234ab" d="M252.669,55.313h-8.2a.586.586,0,0,1-.586-.586v-8.2a.586.586,0,0,1,.586-.586h8.2a.586.586,0,0,1,.586.586v8.2A.586.586,0,0,1,252.669,55.313Zm-7.618-1.172h7.032V47.109h-7.032Z"/>
        <path class="f34c45d2-6a49-45f0-b6d0-1b488ad234ab" d="M270.028,55.313h-8.2a.586.586,0,0,1-.586-.586v-8.2a.586.586,0,0,1,.586-.586h8.2a.586.586,0,0,1,.586.586v8.2A.586.586,0,0,1,270.028,55.313Zm-7.617-1.172h7.031V47.109h-7.031Z"/>
        <path class="f34c45d2-6a49-45f0-b6d0-1b488ad234ab" d="M287.389,55.313h-8.2a.586.586,0,0,1-.586-.586v-8.2a.586.586,0,0,1,.586-.586h8.2a.585.585,0,0,1,.585.586v8.2A.585.585,0,0,1,287.389,55.313Zm-7.619-1.172H286.8V47.109H279.77Z"/>
        <path class="f34c45d2-6a49-45f0-b6d0-1b488ad234ab" d="M287.169,40.956h-8.2a.586.586,0,0,1-.586-.586v-8.2a.586.586,0,0,1,.586-.586h8.2a.586.586,0,0,1,.586.586v8.2A.586.586,0,0,1,287.169,40.956Zm-7.618-1.172h7.032V32.752h-7.032Z"/>
        <g>
          <path class="f34c45d2-6a49-45f0-b6d0-1b488ad234ab" d="M263.729,40.956a.586.586,0,0,1-.414-1L267,36.268l-3.687-3.688a.586.586,0,0,1,.828-.829l4.1,4.1a.587.587,0,0,1,0,.83l-4.1,4.1A.582.582,0,0,1,263.729,40.956Z"/>
          <path class="f34c45d2-6a49-45f0-b6d0-1b488ad234ab" d="M248.566,47.109a.586.586,0,0,1-.586-.586V39.2a3.52,3.52,0,0,1,3.517-3.516h16.041a.586.586,0,1,1,0,1.172H251.5a2.347,2.347,0,0,0-2.345,2.344v7.325A.586.586,0,0,1,248.566,47.109Z"/>
        </g>
      </g>
      <path class="a2844283-7a53-4f5d-91a6-82e8bcc1d119" d="M301.086,190.238a.58.58,0,0,1-.235-.049c-.117-.05-11.747-5.284-14.406-20.653a.586.586,0,1,1,1.154-.2c2.549,14.724,13.61,19.731,13.721,19.78a.586.586,0,0,1-.234,1.123Z"/>
      <path class="a2844283-7a53-4f5d-91a6-82e8bcc1d119" d="M319.546,198.149a.6.6,0,0,1-.118-.012.585.585,0,0,1-.457-.691c1.815-8.925-5.187-15.921-11.958-22.686-6.124-6.118-11.909-11.9-11.2-18.862a.586.586,0,1,1,1.166.119c-.654,6.411,4.939,12,10.86,17.914,6.99,6.984,14.219,14.206,12.278,23.749A.587.587,0,0,1,319.546,198.149Z"/>
      <path class="a2844283-7a53-4f5d-91a6-82e8bcc1d119" d="M315.436,183.727a.586.586,0,0,1-.579-.5c-.5-3.4.667-6.146,1.6-8.357a9.868,9.868,0,0,0,1.034-3.383,3.642,3.642,0,0,0-1.614-3.108,6.19,6.19,0,0,1-2.174-3.183,6.665,6.665,0,0,1,.26-4.247,10.684,10.684,0,0,0,.6-4.366c-.08-1.21-.663-1.65-1.721-2.448-2.206-1.664-5.9-4.448-8.523-17.4-2.076-10.241-14.165-21.212-21.107-21.212a12.875,12.875,0,0,0-4.786.764.586.586,0,0,1-.482-1.069,13.733,13.733,0,0,1,5.268-.867c7.428,0,20.028,11.162,22.256,22.151,2.537,12.515,6.006,15.132,8.079,16.7,1.156.872,2.07,1.561,2.186,3.306a11.835,11.835,0,0,1-.651,4.794,5.559,5.559,0,0,0-.247,3.588,5.071,5.071,0,0,0,1.826,2.62,4.745,4.745,0,0,1,2,3.98,10.531,10.531,0,0,1-1.127,3.84c-.924,2.184-1.972,4.659-1.522,7.731a.585.585,0,0,1-.5.664A.5.5,0,0,1,315.436,183.727Z"/>
    </g>
  </g>
</svg>
