<svg id="f24ab615-5865-48c2-9fc8-2b70d949f4e4" data-name="Layer 1" xmlns="http://www.w3.org/2000/svg" xmlns:xlink="http://www.w3.org/1999/xlink" viewBox="0 0 262 180">
  <defs>
    <style>
      .f1eb3ea7-2734-4e72-9c7d-25fe19c97e18 {
        fill: none;
      }

      .fc973e14-6b7e-4f3c-8ec0-ff97ac190e18 {
        fill: #fc0000;
      }

      .ea6a667b-ff82-4185-a691-cf3a585fc6f1 {
        fill: #e00;
      }

      .bfadd6ce-9ad0-4a0e-895d-842a9018d8af {
        fill: #fff;
      }

      .b300cd3b-2c4a-4d52-ab9e-eb526c2ac17c {
        fill: url(#e3b34d9e-2c75-48d7-811a-c923e9785d30);
      }

      .a4b0ac47-8a54-47dc-bed0-4a88d8c604ed {
        fill: url(#ade5a89e-c885-4f7b-84f2-d8fcde179271);
      }

      .aea86e8d-87e0-466c-be78-e3b22c5615ed {
        fill: url(#fcb96316-7b88-4f95-b0bf-61dd30039f41);
      }

      .b742b144-aca8-457b-ac02-fc3e0b1e3303 {
        fill: url(#ba9f90aa-2593-4b57-a5d4-4c95f4b6fe62);
      }

      .bbf68a42-eeb0-4397-a8e7-30f342f74fef {
        fill: url(#abc56c62-7e04-4c38-bbef-fc18f5541010);
      }

      .e08f336b-3608-43ea-95e8-a3e9dbe74a2a {
        fill: url(#b8b7b709-b5cd-4ea0-8a68-514b13c96cf9);
      }

      .b10ef675-d05a-444a-967c-b48672f3e150 {
        fill: url(#eada34d4-524f-46a4-899c-77dbe00f5b8d);
      }
    </style>
    <pattern id="e3b34d9e-2c75-48d7-811a-c923e9785d30" data-name="10 dpi 20%" width="28.8" height="28.801" patternTransform="translate(36.304 58.15) scale(0.154)" patternUnits="userSpaceOnUse" viewBox="0 0 28.8 28.801">
      <rect class="f1eb3ea7-2734-4e72-9c7d-25fe19c97e18" width="28.8" height="28.801"/>
      <g>
        <path class="fc973e14-6b7e-4f3c-8ec0-ff97ac190e18" d="M28.8,30.24A1.44,1.44,0,1,0,27.359,28.8,1.439,1.439,0,0,0,28.8,30.24Z"/>
        <path class="fc973e14-6b7e-4f3c-8ec0-ff97ac190e18" d="M14.4,30.24A1.44,1.44,0,1,0,12.96,28.8,1.44,1.44,0,0,0,14.4,30.24Z"/>
        <path class="fc973e14-6b7e-4f3c-8ec0-ff97ac190e18" d="M28.8,15.842A1.441,1.441,0,1,0,27.359,14.4,1.441,1.441,0,0,0,28.8,15.842Z"/>
        <path class="fc973e14-6b7e-4f3c-8ec0-ff97ac190e18" d="M14.4,15.842A1.441,1.441,0,1,0,12.96,14.4,1.443,1.443,0,0,0,14.4,15.842Z"/>
        <path class="fc973e14-6b7e-4f3c-8ec0-ff97ac190e18" d="M7.2,23.041A1.441,1.441,0,1,0,5.76,21.6,1.44,1.44,0,0,0,7.2,23.041Z"/>
        <path class="fc973e14-6b7e-4f3c-8ec0-ff97ac190e18" d="M21.6,23.041a1.441,1.441,0,1,0-1.44-1.439A1.44,1.44,0,0,0,21.6,23.041Z"/>
        <path class="fc973e14-6b7e-4f3c-8ec0-ff97ac190e18" d="M7.2,8.641A1.441,1.441,0,1,0,5.76,7.2,1.44,1.44,0,0,0,7.2,8.641Z"/>
        <path class="fc973e14-6b7e-4f3c-8ec0-ff97ac190e18" d="M21.6,8.641a1.441,1.441,0,1,0-1.44-1.44A1.441,1.441,0,0,0,21.6,8.641Z"/>
      </g>
      <g>
        <path class="fc973e14-6b7e-4f3c-8ec0-ff97ac190e18" d="M0,30.24A1.439,1.439,0,0,0,1.439,28.8,1.44,1.44,0,0,0,0,27.361,1.441,1.441,0,0,0-1.441,28.8,1.44,1.44,0,0,0,0,30.24Z"/>
        <path class="fc973e14-6b7e-4f3c-8ec0-ff97ac190e18" d="M0,15.842A1.441,1.441,0,0,0,1.439,14.4,1.44,1.44,0,0,0,0,12.961,1.441,1.441,0,0,0-1.441,14.4,1.442,1.442,0,0,0,0,15.842Z"/>
      </g>
      <g>
        <path class="fc973e14-6b7e-4f3c-8ec0-ff97ac190e18" d="M28.8,1.44A1.44,1.44,0,0,0,30.239,0,1.439,1.439,0,0,0,28.8-1.439,1.44,1.44,0,0,0,27.359,0,1.441,1.441,0,0,0,28.8,1.44Z"/>
        <path class="fc973e14-6b7e-4f3c-8ec0-ff97ac190e18" d="M14.4,1.44A1.441,1.441,0,0,0,15.84,0,1.44,1.44,0,0,0,14.4-1.439,1.438,1.438,0,0,0,12.96,0,1.439,1.439,0,0,0,14.4,1.44Z"/>
      </g>
      <path class="fc973e14-6b7e-4f3c-8ec0-ff97ac190e18" d="M0,1.44A1.44,1.44,0,0,0,1.439,0,1.439,1.439,0,0,0,0-1.439,1.44,1.44,0,0,0-1.441,0,1.441,1.441,0,0,0,0,1.44Z"/>
    </pattern>
    <pattern id="ade5a89e-c885-4f7b-84f2-d8fcde179271" data-name="10 dpi 20%" width="28.8" height="28.801" patternTransform="translate(35.019 58.472) scale(0.154)" patternUnits="userSpaceOnUse" viewBox="0 0 28.8 28.801">
      <rect class="f1eb3ea7-2734-4e72-9c7d-25fe19c97e18" width="28.8" height="28.801"/>
      <g>
        <path class="fc973e14-6b7e-4f3c-8ec0-ff97ac190e18" d="M28.8,30.24A1.44,1.44,0,1,0,27.359,28.8,1.439,1.439,0,0,0,28.8,30.24Z"/>
        <path class="fc973e14-6b7e-4f3c-8ec0-ff97ac190e18" d="M14.4,30.24A1.44,1.44,0,1,0,12.96,28.8,1.44,1.44,0,0,0,14.4,30.24Z"/>
        <path class="fc973e14-6b7e-4f3c-8ec0-ff97ac190e18" d="M28.8,15.842A1.441,1.441,0,1,0,27.359,14.4,1.441,1.441,0,0,0,28.8,15.842Z"/>
        <path class="fc973e14-6b7e-4f3c-8ec0-ff97ac190e18" d="M14.4,15.842A1.441,1.441,0,1,0,12.96,14.4,1.443,1.443,0,0,0,14.4,15.842Z"/>
        <path class="fc973e14-6b7e-4f3c-8ec0-ff97ac190e18" d="M7.2,23.041A1.441,1.441,0,1,0,5.76,21.6,1.44,1.44,0,0,0,7.2,23.041Z"/>
        <path class="fc973e14-6b7e-4f3c-8ec0-ff97ac190e18" d="M21.6,23.041a1.441,1.441,0,1,0-1.44-1.439A1.44,1.44,0,0,0,21.6,23.041Z"/>
        <path class="fc973e14-6b7e-4f3c-8ec0-ff97ac190e18" d="M7.2,8.641A1.441,1.441,0,1,0,5.76,7.2,1.44,1.44,0,0,0,7.2,8.641Z"/>
        <path class="fc973e14-6b7e-4f3c-8ec0-ff97ac190e18" d="M21.6,8.641a1.441,1.441,0,1,0-1.44-1.44A1.441,1.441,0,0,0,21.6,8.641Z"/>
      </g>
      <g>
        <path class="fc973e14-6b7e-4f3c-8ec0-ff97ac190e18" d="M0,30.24A1.439,1.439,0,0,0,1.439,28.8,1.44,1.44,0,0,0,0,27.361,1.441,1.441,0,0,0-1.441,28.8,1.44,1.44,0,0,0,0,30.24Z"/>
        <path class="fc973e14-6b7e-4f3c-8ec0-ff97ac190e18" d="M0,15.842A1.441,1.441,0,0,0,1.439,14.4,1.44,1.44,0,0,0,0,12.961,1.441,1.441,0,0,0-1.441,14.4,1.442,1.442,0,0,0,0,15.842Z"/>
      </g>
      <g>
        <path class="fc973e14-6b7e-4f3c-8ec0-ff97ac190e18" d="M28.8,1.44A1.44,1.44,0,0,0,30.239,0,1.439,1.439,0,0,0,28.8-1.439,1.44,1.44,0,0,0,27.359,0,1.441,1.441,0,0,0,28.8,1.44Z"/>
        <path class="fc973e14-6b7e-4f3c-8ec0-ff97ac190e18" d="M14.4,1.44A1.441,1.441,0,0,0,15.84,0,1.44,1.44,0,0,0,14.4-1.439,1.438,1.438,0,0,0,12.96,0,1.439,1.439,0,0,0,14.4,1.44Z"/>
      </g>
      <path class="fc973e14-6b7e-4f3c-8ec0-ff97ac190e18" d="M0,1.44A1.44,1.44,0,0,0,1.439,0,1.439,1.439,0,0,0,0-1.439,1.44,1.44,0,0,0-1.441,0,1.441,1.441,0,0,0,0,1.44Z"/>
    </pattern>
    <pattern id="fcb96316-7b88-4f95-b0bf-61dd30039f41" data-name="10 dpi 20%" width="28.8" height="28.801" patternTransform="translate(33.741 60.383) scale(0.154)" patternUnits="userSpaceOnUse" viewBox="0 0 28.8 28.801">
      <rect class="f1eb3ea7-2734-4e72-9c7d-25fe19c97e18" width="28.8" height="28.801"/>
      <g>
        <path class="fc973e14-6b7e-4f3c-8ec0-ff97ac190e18" d="M28.8,30.24A1.44,1.44,0,1,0,27.359,28.8,1.439,1.439,0,0,0,28.8,30.24Z"/>
        <path class="fc973e14-6b7e-4f3c-8ec0-ff97ac190e18" d="M14.4,30.24A1.44,1.44,0,1,0,12.96,28.8,1.44,1.44,0,0,0,14.4,30.24Z"/>
        <path class="fc973e14-6b7e-4f3c-8ec0-ff97ac190e18" d="M28.8,15.842A1.441,1.441,0,1,0,27.359,14.4,1.441,1.441,0,0,0,28.8,15.842Z"/>
        <path class="fc973e14-6b7e-4f3c-8ec0-ff97ac190e18" d="M14.4,15.842A1.441,1.441,0,1,0,12.96,14.4,1.443,1.443,0,0,0,14.4,15.842Z"/>
        <path class="fc973e14-6b7e-4f3c-8ec0-ff97ac190e18" d="M7.2,23.041A1.441,1.441,0,1,0,5.76,21.6,1.44,1.44,0,0,0,7.2,23.041Z"/>
        <path class="fc973e14-6b7e-4f3c-8ec0-ff97ac190e18" d="M21.6,23.041a1.441,1.441,0,1,0-1.44-1.439A1.44,1.44,0,0,0,21.6,23.041Z"/>
        <path class="fc973e14-6b7e-4f3c-8ec0-ff97ac190e18" d="M7.2,8.641A1.441,1.441,0,1,0,5.76,7.2,1.44,1.44,0,0,0,7.2,8.641Z"/>
        <path class="fc973e14-6b7e-4f3c-8ec0-ff97ac190e18" d="M21.6,8.641a1.441,1.441,0,1,0-1.44-1.44A1.441,1.441,0,0,0,21.6,8.641Z"/>
      </g>
      <g>
        <path class="fc973e14-6b7e-4f3c-8ec0-ff97ac190e18" d="M0,30.24A1.439,1.439,0,0,0,1.439,28.8,1.44,1.44,0,0,0,0,27.361,1.441,1.441,0,0,0-1.441,28.8,1.44,1.44,0,0,0,0,30.24Z"/>
        <path class="fc973e14-6b7e-4f3c-8ec0-ff97ac190e18" d="M0,15.842A1.441,1.441,0,0,0,1.439,14.4,1.44,1.44,0,0,0,0,12.961,1.441,1.441,0,0,0-1.441,14.4,1.442,1.442,0,0,0,0,15.842Z"/>
      </g>
      <g>
        <path class="fc973e14-6b7e-4f3c-8ec0-ff97ac190e18" d="M28.8,1.44A1.44,1.44,0,0,0,30.239,0,1.439,1.439,0,0,0,28.8-1.439,1.44,1.44,0,0,0,27.359,0,1.441,1.441,0,0,0,28.8,1.44Z"/>
        <path class="fc973e14-6b7e-4f3c-8ec0-ff97ac190e18" d="M14.4,1.44A1.441,1.441,0,0,0,15.84,0,1.44,1.44,0,0,0,14.4-1.439,1.438,1.438,0,0,0,12.96,0,1.439,1.439,0,0,0,14.4,1.44Z"/>
      </g>
      <path class="fc973e14-6b7e-4f3c-8ec0-ff97ac190e18" d="M0,1.44A1.44,1.44,0,0,0,1.439,0,1.439,1.439,0,0,0,0-1.439,1.44,1.44,0,0,0-1.441,0,1.441,1.441,0,0,0,0,1.44Z"/>
    </pattern>
    <pattern id="ba9f90aa-2593-4b57-a5d4-4c95f4b6fe62" data-name="10 dpi 20%" width="28.8" height="28.801" patternTransform="translate(34.101 60.383) scale(0.154)" patternUnits="userSpaceOnUse" viewBox="0 0 28.8 28.801">
      <rect class="f1eb3ea7-2734-4e72-9c7d-25fe19c97e18" width="28.8" height="28.801"/>
      <g>
        <path class="fc973e14-6b7e-4f3c-8ec0-ff97ac190e18" d="M28.8,30.24A1.44,1.44,0,1,0,27.359,28.8,1.439,1.439,0,0,0,28.8,30.24Z"/>
        <path class="fc973e14-6b7e-4f3c-8ec0-ff97ac190e18" d="M14.4,30.24A1.44,1.44,0,1,0,12.96,28.8,1.44,1.44,0,0,0,14.4,30.24Z"/>
        <path class="fc973e14-6b7e-4f3c-8ec0-ff97ac190e18" d="M28.8,15.842A1.441,1.441,0,1,0,27.359,14.4,1.441,1.441,0,0,0,28.8,15.842Z"/>
        <path class="fc973e14-6b7e-4f3c-8ec0-ff97ac190e18" d="M14.4,15.842A1.441,1.441,0,1,0,12.96,14.4,1.443,1.443,0,0,0,14.4,15.842Z"/>
        <path class="fc973e14-6b7e-4f3c-8ec0-ff97ac190e18" d="M7.2,23.041A1.441,1.441,0,1,0,5.76,21.6,1.44,1.44,0,0,0,7.2,23.041Z"/>
        <path class="fc973e14-6b7e-4f3c-8ec0-ff97ac190e18" d="M21.6,23.041a1.441,1.441,0,1,0-1.44-1.439A1.44,1.44,0,0,0,21.6,23.041Z"/>
        <path class="fc973e14-6b7e-4f3c-8ec0-ff97ac190e18" d="M7.2,8.641A1.441,1.441,0,1,0,5.76,7.2,1.44,1.44,0,0,0,7.2,8.641Z"/>
        <path class="fc973e14-6b7e-4f3c-8ec0-ff97ac190e18" d="M21.6,8.641a1.441,1.441,0,1,0-1.44-1.44A1.441,1.441,0,0,0,21.6,8.641Z"/>
      </g>
      <g>
        <path class="fc973e14-6b7e-4f3c-8ec0-ff97ac190e18" d="M0,30.24A1.439,1.439,0,0,0,1.439,28.8,1.44,1.44,0,0,0,0,27.361,1.441,1.441,0,0,0-1.441,28.8,1.44,1.44,0,0,0,0,30.24Z"/>
        <path class="fc973e14-6b7e-4f3c-8ec0-ff97ac190e18" d="M0,15.842A1.441,1.441,0,0,0,1.439,14.4,1.44,1.44,0,0,0,0,12.961,1.441,1.441,0,0,0-1.441,14.4,1.442,1.442,0,0,0,0,15.842Z"/>
      </g>
      <g>
        <path class="fc973e14-6b7e-4f3c-8ec0-ff97ac190e18" d="M28.8,1.44A1.44,1.44,0,0,0,30.239,0,1.439,1.439,0,0,0,28.8-1.439,1.44,1.44,0,0,0,27.359,0,1.441,1.441,0,0,0,28.8,1.44Z"/>
        <path class="fc973e14-6b7e-4f3c-8ec0-ff97ac190e18" d="M14.4,1.44A1.441,1.441,0,0,0,15.84,0,1.44,1.44,0,0,0,14.4-1.439,1.438,1.438,0,0,0,12.96,0,1.439,1.439,0,0,0,14.4,1.44Z"/>
      </g>
      <path class="fc973e14-6b7e-4f3c-8ec0-ff97ac190e18" d="M0,1.44A1.44,1.44,0,0,0,1.439,0,1.439,1.439,0,0,0,0-1.439,1.44,1.44,0,0,0-1.441,0,1.441,1.441,0,0,0,0,1.44Z"/>
    </pattern>
    <pattern id="abc56c62-7e04-4c38-bbef-fc18f5541010" data-name="10 dpi 20%" width="28.8" height="28.801" patternTransform="translate(37.018 58.472) scale(0.154)" patternUnits="userSpaceOnUse" viewBox="0 0 28.8 28.801">
      <rect class="f1eb3ea7-2734-4e72-9c7d-25fe19c97e18" width="28.8" height="28.801"/>
      <g>
        <path class="fc973e14-6b7e-4f3c-8ec0-ff97ac190e18" d="M28.8,30.24A1.44,1.44,0,1,0,27.359,28.8,1.439,1.439,0,0,0,28.8,30.24Z"/>
        <path class="fc973e14-6b7e-4f3c-8ec0-ff97ac190e18" d="M14.4,30.24A1.44,1.44,0,1,0,12.96,28.8,1.44,1.44,0,0,0,14.4,30.24Z"/>
        <path class="fc973e14-6b7e-4f3c-8ec0-ff97ac190e18" d="M28.8,15.842A1.441,1.441,0,1,0,27.359,14.4,1.441,1.441,0,0,0,28.8,15.842Z"/>
        <path class="fc973e14-6b7e-4f3c-8ec0-ff97ac190e18" d="M14.4,15.842A1.441,1.441,0,1,0,12.96,14.4,1.443,1.443,0,0,0,14.4,15.842Z"/>
        <path class="fc973e14-6b7e-4f3c-8ec0-ff97ac190e18" d="M7.2,23.041A1.441,1.441,0,1,0,5.76,21.6,1.44,1.44,0,0,0,7.2,23.041Z"/>
        <path class="fc973e14-6b7e-4f3c-8ec0-ff97ac190e18" d="M21.6,23.041a1.441,1.441,0,1,0-1.44-1.439A1.44,1.44,0,0,0,21.6,23.041Z"/>
        <path class="fc973e14-6b7e-4f3c-8ec0-ff97ac190e18" d="M7.2,8.641A1.441,1.441,0,1,0,5.76,7.2,1.44,1.44,0,0,0,7.2,8.641Z"/>
        <path class="fc973e14-6b7e-4f3c-8ec0-ff97ac190e18" d="M21.6,8.641a1.441,1.441,0,1,0-1.44-1.44A1.441,1.441,0,0,0,21.6,8.641Z"/>
      </g>
      <g>
        <path class="fc973e14-6b7e-4f3c-8ec0-ff97ac190e18" d="M0,30.24A1.439,1.439,0,0,0,1.439,28.8,1.44,1.44,0,0,0,0,27.361,1.441,1.441,0,0,0-1.441,28.8,1.44,1.44,0,0,0,0,30.24Z"/>
        <path class="fc973e14-6b7e-4f3c-8ec0-ff97ac190e18" d="M0,15.842A1.441,1.441,0,0,0,1.439,14.4,1.44,1.44,0,0,0,0,12.961,1.441,1.441,0,0,0-1.441,14.4,1.442,1.442,0,0,0,0,15.842Z"/>
      </g>
      <g>
        <path class="fc973e14-6b7e-4f3c-8ec0-ff97ac190e18" d="M28.8,1.44A1.44,1.44,0,0,0,30.239,0,1.439,1.439,0,0,0,28.8-1.439,1.44,1.44,0,0,0,27.359,0,1.441,1.441,0,0,0,28.8,1.44Z"/>
        <path class="fc973e14-6b7e-4f3c-8ec0-ff97ac190e18" d="M14.4,1.44A1.441,1.441,0,0,0,15.84,0,1.44,1.44,0,0,0,14.4-1.439,1.438,1.438,0,0,0,12.96,0,1.439,1.439,0,0,0,14.4,1.44Z"/>
      </g>
      <path class="fc973e14-6b7e-4f3c-8ec0-ff97ac190e18" d="M0,1.44A1.44,1.44,0,0,0,1.439,0,1.439,1.439,0,0,0,0-1.439,1.44,1.44,0,0,0-1.441,0,1.441,1.441,0,0,0,0,1.44Z"/>
    </pattern>
    <pattern id="b8b7b709-b5cd-4ea0-8a68-514b13c96cf9" data-name="10 dpi 20%" width="28.8" height="28.801" patternTransform="translate(35.447 55.072) scale(0.154)" patternUnits="userSpaceOnUse" viewBox="0 0 28.8 28.801">
      <rect class="f1eb3ea7-2734-4e72-9c7d-25fe19c97e18" width="28.8" height="28.801"/>
      <g>
        <path class="fc973e14-6b7e-4f3c-8ec0-ff97ac190e18" d="M28.8,30.24A1.44,1.44,0,1,0,27.359,28.8,1.439,1.439,0,0,0,28.8,30.24Z"/>
        <path class="fc973e14-6b7e-4f3c-8ec0-ff97ac190e18" d="M14.4,30.24A1.44,1.44,0,1,0,12.96,28.8,1.44,1.44,0,0,0,14.4,30.24Z"/>
        <path class="fc973e14-6b7e-4f3c-8ec0-ff97ac190e18" d="M28.8,15.842A1.441,1.441,0,1,0,27.359,14.4,1.441,1.441,0,0,0,28.8,15.842Z"/>
        <path class="fc973e14-6b7e-4f3c-8ec0-ff97ac190e18" d="M14.4,15.842A1.441,1.441,0,1,0,12.96,14.4,1.443,1.443,0,0,0,14.4,15.842Z"/>
        <path class="fc973e14-6b7e-4f3c-8ec0-ff97ac190e18" d="M7.2,23.041A1.441,1.441,0,1,0,5.76,21.6,1.44,1.44,0,0,0,7.2,23.041Z"/>
        <path class="fc973e14-6b7e-4f3c-8ec0-ff97ac190e18" d="M21.6,23.041a1.441,1.441,0,1,0-1.44-1.439A1.44,1.44,0,0,0,21.6,23.041Z"/>
        <path class="fc973e14-6b7e-4f3c-8ec0-ff97ac190e18" d="M7.2,8.641A1.441,1.441,0,1,0,5.76,7.2,1.44,1.44,0,0,0,7.2,8.641Z"/>
        <path class="fc973e14-6b7e-4f3c-8ec0-ff97ac190e18" d="M21.6,8.641a1.441,1.441,0,1,0-1.44-1.44A1.441,1.441,0,0,0,21.6,8.641Z"/>
      </g>
      <g>
        <path class="fc973e14-6b7e-4f3c-8ec0-ff97ac190e18" d="M0,30.24A1.439,1.439,0,0,0,1.439,28.8,1.44,1.44,0,0,0,0,27.361,1.441,1.441,0,0,0-1.441,28.8,1.44,1.44,0,0,0,0,30.24Z"/>
        <path class="fc973e14-6b7e-4f3c-8ec0-ff97ac190e18" d="M0,15.842A1.441,1.441,0,0,0,1.439,14.4,1.44,1.44,0,0,0,0,12.961,1.441,1.441,0,0,0-1.441,14.4,1.442,1.442,0,0,0,0,15.842Z"/>
      </g>
      <g>
        <path class="fc973e14-6b7e-4f3c-8ec0-ff97ac190e18" d="M28.8,1.44A1.44,1.44,0,0,0,30.239,0,1.439,1.439,0,0,0,28.8-1.439,1.44,1.44,0,0,0,27.359,0,1.441,1.441,0,0,0,28.8,1.44Z"/>
        <path class="fc973e14-6b7e-4f3c-8ec0-ff97ac190e18" d="M14.4,1.44A1.441,1.441,0,0,0,15.84,0,1.44,1.44,0,0,0,14.4-1.439,1.438,1.438,0,0,0,12.96,0,1.439,1.439,0,0,0,14.4,1.44Z"/>
      </g>
      <path class="fc973e14-6b7e-4f3c-8ec0-ff97ac190e18" d="M0,1.44A1.44,1.44,0,0,0,1.439,0,1.439,1.439,0,0,0,0-1.439,1.44,1.44,0,0,0-1.441,0,1.441,1.441,0,0,0,0,1.44Z"/>
    </pattern>
    <pattern id="eada34d4-524f-46a4-899c-77dbe00f5b8d" data-name="10 dpi 20%" width="28.8" height="28.801" patternTransform="translate(36.116 55.072) scale(0.154)" patternUnits="userSpaceOnUse" viewBox="0 0 28.8 28.801">
      <rect class="f1eb3ea7-2734-4e72-9c7d-25fe19c97e18" width="28.8" height="28.801"/>
      <g>
        <path class="fc973e14-6b7e-4f3c-8ec0-ff97ac190e18" d="M28.8,30.24A1.44,1.44,0,1,0,27.359,28.8,1.439,1.439,0,0,0,28.8,30.24Z"/>
        <path class="fc973e14-6b7e-4f3c-8ec0-ff97ac190e18" d="M14.4,30.24A1.44,1.44,0,1,0,12.96,28.8,1.44,1.44,0,0,0,14.4,30.24Z"/>
        <path class="fc973e14-6b7e-4f3c-8ec0-ff97ac190e18" d="M28.8,15.842A1.441,1.441,0,1,0,27.359,14.4,1.441,1.441,0,0,0,28.8,15.842Z"/>
        <path class="fc973e14-6b7e-4f3c-8ec0-ff97ac190e18" d="M14.4,15.842A1.441,1.441,0,1,0,12.96,14.4,1.443,1.443,0,0,0,14.4,15.842Z"/>
        <path class="fc973e14-6b7e-4f3c-8ec0-ff97ac190e18" d="M7.2,23.041A1.441,1.441,0,1,0,5.76,21.6,1.44,1.44,0,0,0,7.2,23.041Z"/>
        <path class="fc973e14-6b7e-4f3c-8ec0-ff97ac190e18" d="M21.6,23.041a1.441,1.441,0,1,0-1.44-1.439A1.44,1.44,0,0,0,21.6,23.041Z"/>
        <path class="fc973e14-6b7e-4f3c-8ec0-ff97ac190e18" d="M7.2,8.641A1.441,1.441,0,1,0,5.76,7.2,1.44,1.44,0,0,0,7.2,8.641Z"/>
        <path class="fc973e14-6b7e-4f3c-8ec0-ff97ac190e18" d="M21.6,8.641a1.441,1.441,0,1,0-1.44-1.44A1.441,1.441,0,0,0,21.6,8.641Z"/>
      </g>
      <g>
        <path class="fc973e14-6b7e-4f3c-8ec0-ff97ac190e18" d="M0,30.24A1.439,1.439,0,0,0,1.439,28.8,1.44,1.44,0,0,0,0,27.361,1.441,1.441,0,0,0-1.441,28.8,1.44,1.44,0,0,0,0,30.24Z"/>
        <path class="fc973e14-6b7e-4f3c-8ec0-ff97ac190e18" d="M0,15.842A1.441,1.441,0,0,0,1.439,14.4,1.44,1.44,0,0,0,0,12.961,1.441,1.441,0,0,0-1.441,14.4,1.442,1.442,0,0,0,0,15.842Z"/>
      </g>
      <g>
        <path class="fc973e14-6b7e-4f3c-8ec0-ff97ac190e18" d="M28.8,1.44A1.44,1.44,0,0,0,30.239,0,1.439,1.439,0,0,0,28.8-1.439,1.44,1.44,0,0,0,27.359,0,1.441,1.441,0,0,0,28.8,1.44Z"/>
        <path class="fc973e14-6b7e-4f3c-8ec0-ff97ac190e18" d="M14.4,1.44A1.441,1.441,0,0,0,15.84,0,1.44,1.44,0,0,0,14.4-1.439,1.438,1.438,0,0,0,12.96,0,1.439,1.439,0,0,0,14.4,1.44Z"/>
      </g>
      <path class="fc973e14-6b7e-4f3c-8ec0-ff97ac190e18" d="M0,1.44A1.44,1.44,0,0,0,1.439,0,1.439,1.439,0,0,0,0-1.439,1.44,1.44,0,0,0-1.441,0,1.441,1.441,0,0,0,0,1.44Z"/>
    </pattern>
  </defs>
  <g>
    <g>
      <g>
        <g>
          <path class="ea6a667b-ff82-4185-a691-cf3a585fc6f1" d="M194.3,110.387h.6v1.49h1.758v-1.49h.606v3.535h-.606v-1.515H194.9v1.515h-.6Z"/>
          <path class="ea6a667b-ff82-4185-a691-cf3a585fc6f1" d="M199.191,113.973a1.287,1.287,0,0,1-1.288-1.313,1.247,1.247,0,0,1,1.233-1.309,1.215,1.215,0,0,1,1.2,1.3v.141h-1.869a.773.773,0,0,0,.758.692.818.818,0,0,0,.6-.238l.374.349A1.459,1.459,0,0,1,199.191,113.973Zm-.718-1.525h1.319a.693.693,0,0,0-.661-.632A.682.682,0,0,0,198.473,112.448Z"/>
          <path class="ea6a667b-ff82-4185-a691-cf3a585fc6f1" d="M200.767,113.2c0-.454.369-.742.965-.742a1.565,1.565,0,0,1,.682.156v-.278c0-.333-.192-.505-.581-.505a1.755,1.755,0,0,0-.737.2l-.2-.414a2.442,2.442,0,0,1,1.051-.258c.656,0,1.035.334,1.035.92v1.651h-.565v-.258a1.056,1.056,0,0,1-.753.3A.8.8,0,0,1,200.767,113.2Zm1.05.369a.906.906,0,0,0,.6-.207v-.415a1.309,1.309,0,0,0-.586-.121c-.323,0-.525.142-.525.364S201.505,113.564,201.817,113.564Z"/>
          <path class="ea6a667b-ff82-4185-a691-cf3a585fc6f1" d="M205.48,113.584a.974.974,0,0,1-.778.364,1.295,1.295,0,0,1,.035-2.576.963.963,0,0,1,.737.333v-1.394l.572-.1v3.707h-.566Zm-.606-.116a.755.755,0,0,0,.6-.278v-1.066a.785.785,0,0,0-.6-.273.811.811,0,0,0,0,1.617Z"/>
          <path class="ea6a667b-ff82-4185-a691-cf3a585fc6f1" d="M207.323,113.922h-.57v-3.611l.57-.1Z"/>
          <path class="ea6a667b-ff82-4185-a691-cf3a585fc6f1" d="M207.956,110.528a.356.356,0,0,1,.712,0,.356.356,0,0,1-.712,0Zm.641,3.394h-.571v-2.53h.571Z"/>
          <path class="ea6a667b-ff82-4185-a691-cf3a585fc6f1" d="M209.3,111.392h.57v.414a.92.92,0,0,1,.8-.455.853.853,0,0,1,.874.905v1.666h-.572v-1.5a.544.544,0,0,0-.555-.606.649.649,0,0,0-.551.3v1.808h-.57Z"/>
          <path class="ea6a667b-ff82-4185-a691-cf3a585fc6f1" d="M213.411,113.973a1.286,1.286,0,0,1-1.288-1.313,1.246,1.246,0,0,1,1.232-1.309,1.215,1.215,0,0,1,1.2,1.3v.141h-1.87a.774.774,0,0,0,.758.692.819.819,0,0,0,.6-.238l.374.349A1.461,1.461,0,0,1,213.411,113.973Zm-.717-1.525h1.318a.694.694,0,0,0-.662-.632A.68.68,0,0,0,212.694,112.448Z"/>
        </g>
        <g>
          <path d="M183.754,118.4h.389v3.193h2v.343h-2.384Z"/>
          <path d="M187.72,119.429a1.28,1.28,0,1,1-1.2,1.273A1.211,1.211,0,0,1,187.72,119.429Zm.837,1.277a.843.843,0,1,0-1.671,0,.842.842,0,1,0,1.671,0Z"/>
          <path d="M189.568,119.469h.368v.5a.737.737,0,0,1,.688-.545.7.7,0,0,1,.232.035v.333a.926.926,0,0,0-.258-.045.7.7,0,0,0-.662.5v1.687h-.368Z"/>
          <path d="M192.3,121.979a1.23,1.23,0,0,1-1.223-1.277,1.2,1.2,0,0,1,1.162-1.273,1.163,1.163,0,0,1,1.131,1.242v.112h-1.935a.9.9,0,0,0,.879.873,1.008,1.008,0,0,0,.677-.252l.232.247A1.438,1.438,0,0,1,192.3,121.979Zm-.854-1.459h1.561a.781.781,0,0,0-1.561,0Z"/>
          <path d="M194,119.469h.368v.384a.844.844,0,0,1,.732-.424.811.811,0,0,1,.758.48.911.911,0,0,1,.823-.48.839.839,0,0,1,.839.914v1.591h-.369v-1.5c0-.429-.232-.7-.6-.7a.686.686,0,0,0-.617.389,1.031,1.031,0,0,1,.02.217v1.591h-.368v-1.5a.612.612,0,0,0-.612-.7.675.675,0,0,0-.6.364v1.833H194Z"/>
          <path d="M199.368,118.6a.265.265,0,0,1,.53,0,.265.265,0,1,1-.53,0Zm.449,3.338h-.368v-2.465h.368Z"/>
          <path d="M200.575,119.469h.363v.354a.973.973,0,0,1,.8-.384,1.271,1.271,0,0,1-.019,2.53,1,1,0,0,1-.774-.343v1.364h-.368Zm.368.632v1.207a.868.868,0,0,0,.7.343.948.948,0,0,0,0-1.889A.84.84,0,0,0,200.943,120.1Z"/>
          <path d="M203.48,121.373a1.281,1.281,0,0,0,.792.309c.36,0,.622-.187.622-.445,0-.2-.131-.308-.444-.369l-.4-.07c-.481-.086-.7-.288-.7-.647,0-.424.37-.722.889-.722a1.594,1.594,0,0,1,.94.308L205,120a1.307,1.307,0,0,0-.772-.263c-.324,0-.536.151-.536.394,0,.2.106.3.424.353l.414.076c.5.091.718.3.718.662a.864.864,0,0,1-.96.762,1.406,1.406,0,0,1-1-.363Z"/>
          <path d="M206.162,120.954a.637.637,0,0,0,.656.712.731.731,0,0,0,.647-.374v-1.823h.369v2.465h-.369v-.4a.884.884,0,0,1-.783.44.862.862,0,0,1-.894-.915v-1.591h.374Z"/>
          <path d="M208.592,119.469h.368v.384a.843.843,0,0,1,.732-.424.811.811,0,0,1,.758.48.91.91,0,0,1,.823-.48.839.839,0,0,1,.839.914v1.591h-.369v-1.5c0-.429-.232-.7-.6-.7a.686.686,0,0,0-.617.389,1.031,1.031,0,0,1,.02.217v1.591h-.368v-1.5a.613.613,0,0,0-.612-.7.674.674,0,0,0-.6.364v1.833h-.368Z"/>
          <path d="M215.85,121.606a.971.971,0,0,1-.788.363,1.271,1.271,0,0,1,.02-2.53,1,1,0,0,1,.768.344v-1.46l.369-.076v3.687h-.369Zm-.7.04a.845.845,0,0,0,.7-.328V120.1a.912.912,0,1,0-.7,1.55Z"/>
          <path d="M218.062,119.429a1.28,1.28,0,1,1-1.2,1.273A1.21,1.21,0,0,1,218.062,119.429Zm.838,1.277a.843.843,0,1,0-1.672,0,.843.843,0,1,0,1.672,0Z"/>
          <path d="M220.279,121.934h-.368v-3.611l.368-.076Z"/>
          <path d="M222.123,119.429a1.28,1.28,0,1,1-1.2,1.273A1.211,1.211,0,0,1,222.123,119.429Zm.838,1.277a.843.843,0,1,0-1.672,0,.843.843,0,1,0,1.672,0Z"/>
          <path d="M223.972,119.469h.368v.5a.737.737,0,0,1,.687-.545.715.715,0,0,1,.233.035v.333a.933.933,0,0,0-.258-.045.7.7,0,0,0-.662.5v1.687h-.368Z"/>
          <path d="M195.643,127.435a1.281,1.281,0,0,0,.793.309c.359,0,.621-.187.621-.445,0-.2-.131-.308-.444-.369l-.4-.07c-.481-.086-.7-.288-.7-.647,0-.424.369-.722.888-.722a1.594,1.594,0,0,1,.94.308l-.182.258a1.307,1.307,0,0,0-.772-.263c-.324,0-.536.151-.536.394,0,.2.106.3.424.353l.414.076c.5.091.717.3.717.662a.863.863,0,0,1-.959.762,1.406,1.406,0,0,1-1-.363Z"/>
          <path d="M197.886,124.658a.265.265,0,0,1,.53,0,.265.265,0,1,1-.53,0Zm.449,3.338h-.368v-2.465h.368Z"/>
          <path d="M199.386,125.834h-.51v-.3h.51v-.677l.368-.086v.763h.707v.3h-.707v1.511c0,.262.1.368.359.368a.874.874,0,0,0,.348-.066v.329a1.391,1.391,0,0,1-.429.065c-.425,0-.646-.207-.646-.6Z"/>
          <path d="M202.047,127.289c0-.439.369-.732.925-.732a1.421,1.421,0,0,1,.751.191v-.338a.554.554,0,0,0-.635-.611,1.633,1.633,0,0,0-.748.212l-.136-.283a2.117,2.117,0,0,1,.929-.237c.611,0,.955.308.955.869V128h-.365v-.288a1.051,1.051,0,0,1-.782.333A.8.8,0,0,1,202.047,127.289Zm.969.47a.972.972,0,0,0,.707-.283V127a1.3,1.3,0,0,0-.7-.177c-.379,0-.627.182-.627.455C202.4,127.567,202.648,127.759,203.016,127.759Z"/>
          <path d="M204.836,125.531h.368v.384a.844.844,0,0,1,.732-.424.811.811,0,0,1,.758.48.913.913,0,0,1,.823-.48.839.839,0,0,1,.839.914V128h-.369v-1.5c0-.429-.232-.7-.6-.7a.686.686,0,0,0-.617.389,1.037,1.037,0,0,1,.02.217V128h-.368v-1.5a.612.612,0,0,0-.611-.7.675.675,0,0,0-.6.364V128h-.368Z"/>
          <path d="M210.216,128.041a1.23,1.23,0,0,1-1.223-1.277,1.2,1.2,0,0,1,1.162-1.273,1.163,1.163,0,0,1,1.131,1.242v.112h-1.935a.9.9,0,0,0,.879.873,1.008,1.008,0,0,0,.677-.252l.232.247A1.438,1.438,0,0,1,210.216,128.041Zm-.854-1.459h1.561a.815.815,0,0,0-.774-.773A.823.823,0,0,0,209.362,126.582Z"/>
          <path d="M212.135,125.834h-.511v-.3h.511v-.677l.368-.086v.763h.707v.3H212.5v1.511c0,.262.1.368.359.368a.874.874,0,0,0,.348-.066v.329a1.391,1.391,0,0,1-.429.065c-.425,0-.646-.207-.646-.6Z"/>
        </g>
      </g>
      <g>
        <g>
          <path class="ea6a667b-ff82-4185-a691-cf3a585fc6f1" d="M120.958,110.387h.605v1.49h1.758v-1.49h.607v3.535h-.607v-1.515h-1.758v1.515h-.605Z"/>
          <path class="ea6a667b-ff82-4185-a691-cf3a585fc6f1" d="M125.852,113.973a1.287,1.287,0,0,1-1.288-1.313,1.247,1.247,0,0,1,1.233-1.309,1.215,1.215,0,0,1,1.2,1.3v.141h-1.869a.774.774,0,0,0,.758.692.816.816,0,0,0,.6-.238l.374.349A1.459,1.459,0,0,1,125.852,113.973Zm-.716-1.525h1.317a.692.692,0,0,0-.661-.632A.679.679,0,0,0,125.136,112.448Z"/>
          <path class="ea6a667b-ff82-4185-a691-cf3a585fc6f1" d="M127.429,113.2c0-.454.368-.742.964-.742a1.562,1.562,0,0,1,.682.156v-.278c0-.333-.192-.505-.581-.505a1.755,1.755,0,0,0-.737.2l-.2-.414a2.434,2.434,0,0,1,1.05-.258c.657,0,1.035.334,1.035.92v1.651h-.565v-.258a1.054,1.054,0,0,1-.753.3A.8.8,0,0,1,127.429,113.2Zm1.049.369a.906.906,0,0,0,.6-.207v-.415a1.309,1.309,0,0,0-.586-.121c-.323,0-.525.142-.525.364S128.166,113.564,128.478,113.564Z"/>
          <path class="ea6a667b-ff82-4185-a691-cf3a585fc6f1" d="M132.141,113.584a.974.974,0,0,1-.778.364,1.295,1.295,0,0,1,.035-2.576.967.967,0,0,1,.738.333v-1.394l.571-.1v3.707h-.566Zm-.606-.116a.758.758,0,0,0,.6-.278v-1.066a.789.789,0,0,0-.6-.273.811.811,0,0,0,0,1.617Z"/>
          <path class="ea6a667b-ff82-4185-a691-cf3a585fc6f1" d="M133.984,113.922h-.57v-3.611l.57-.1Z"/>
          <path class="ea6a667b-ff82-4185-a691-cf3a585fc6f1" d="M134.617,110.528a.356.356,0,0,1,.712,0,.356.356,0,0,1-.712,0Zm.641,3.394h-.571v-2.53h.571Z"/>
          <path class="ea6a667b-ff82-4185-a691-cf3a585fc6f1" d="M135.961,111.392h.57v.414a.92.92,0,0,1,.8-.455.853.853,0,0,1,.874.905v1.666h-.571v-1.5a.545.545,0,0,0-.556-.606.649.649,0,0,0-.551.3v1.808h-.57Z"/>
          <path class="ea6a667b-ff82-4185-a691-cf3a585fc6f1" d="M140.072,113.973a1.286,1.286,0,0,1-1.288-1.313,1.246,1.246,0,0,1,1.232-1.309,1.215,1.215,0,0,1,1.2,1.3v.141h-1.869a.773.773,0,0,0,.757.692.819.819,0,0,0,.6-.238l.374.349A1.461,1.461,0,0,1,140.072,113.973Zm-.718-1.525h1.319a.694.694,0,0,0-.661-.632A.682.682,0,0,0,139.354,112.448Z"/>
        </g>
        <g>
          <path d="M110.415,118.4h.39v3.193H112.8v.343h-2.384Z"/>
          <path d="M114.381,119.429a1.28,1.28,0,1,1-1.2,1.273A1.211,1.211,0,0,1,114.381,119.429Zm.838,1.277a.843.843,0,1,0-1.672,0,.843.843,0,1,0,1.672,0Z"/>
          <path d="M116.229,119.469h.369v.5a.736.736,0,0,1,.687-.545.7.7,0,0,1,.232.035v.333a.926.926,0,0,0-.257-.045.7.7,0,0,0-.662.5v1.687h-.369Z"/>
          <path d="M118.963,121.979a1.23,1.23,0,0,1-1.223-1.277,1.2,1.2,0,0,1,1.162-1.273,1.163,1.163,0,0,1,1.131,1.242v.112H118.1a.9.9,0,0,0,.879.873,1.008,1.008,0,0,0,.677-.252l.233.247A1.44,1.44,0,0,1,118.963,121.979Zm-.854-1.459h1.561a.781.781,0,0,0-1.561,0Z"/>
          <path d="M120.665,119.469h.368v.384a.845.845,0,0,1,.732-.424.809.809,0,0,1,.758.48.911.911,0,0,1,.824-.48.838.838,0,0,1,.838.914v1.591h-.369v-1.5c0-.429-.232-.7-.605-.7a.684.684,0,0,0-.616.389,1.1,1.1,0,0,1,.019.217v1.591h-.368v-1.5a.612.612,0,0,0-.611-.7.676.676,0,0,0-.6.364v1.833h-.368Z"/>
          <path d="M126.029,118.6a.265.265,0,0,1,.53,0,.265.265,0,1,1-.53,0Zm.449,3.338h-.368v-2.465h.368Z"/>
          <path d="M127.236,119.469h.363v.354a.973.973,0,0,1,.8-.384,1.271,1.271,0,0,1-.019,2.53,1,1,0,0,1-.774-.343v1.364h-.368Zm.368.632v1.207a.868.868,0,0,0,.7.343.948.948,0,0,0,0-1.889A.843.843,0,0,0,127.6,120.1Z"/>
          <path d="M130.141,121.373a1.281,1.281,0,0,0,.793.309c.359,0,.622-.187.622-.445,0-.2-.132-.308-.445-.369l-.4-.07c-.481-.086-.7-.288-.7-.647,0-.424.369-.722.888-.722a1.594,1.594,0,0,1,.94.308l-.182.258a1.307,1.307,0,0,0-.772-.263c-.324,0-.536.151-.536.394,0,.2.106.3.424.353l.414.076c.5.091.717.3.717.662a.863.863,0,0,1-.959.762,1.406,1.406,0,0,1-1-.363Z"/>
          <path d="M132.823,120.954a.637.637,0,0,0,.656.712.731.731,0,0,0,.647-.374v-1.823h.369v2.465h-.369v-.4a.882.882,0,0,1-.782.44.863.863,0,0,1-.895-.915v-1.591h.374Z"/>
          <path d="M135.253,119.469h.368v.384a.844.844,0,0,1,.732-.424.81.81,0,0,1,.758.48.911.911,0,0,1,.823-.48.839.839,0,0,1,.839.914v1.591H138.4v-1.5c0-.429-.232-.7-.6-.7a.686.686,0,0,0-.617.389,1.031,1.031,0,0,1,.02.217v1.591h-.368v-1.5a.612.612,0,0,0-.611-.7.675.675,0,0,0-.6.364v1.833h-.368Z"/>
          <path d="M142.512,121.606a.975.975,0,0,1-.789.363,1.271,1.271,0,0,1,.02-2.53,1,1,0,0,1,.769.344v-1.46l.368-.076v3.687h-.368Zm-.7.04a.848.848,0,0,0,.7-.328V120.1a.912.912,0,1,0-.7,1.55Z"/>
          <path d="M144.723,119.429a1.28,1.28,0,1,1-1.2,1.273A1.211,1.211,0,0,1,144.723,119.429Zm.838,1.277a.843.843,0,1,0-1.672,0,.843.843,0,1,0,1.672,0Z"/>
          <path d="M146.94,121.934h-.368v-3.611l.368-.076Z"/>
          <path d="M148.784,119.429a1.28,1.28,0,1,1-1.2,1.273A1.21,1.21,0,0,1,148.784,119.429Zm.838,1.277a.843.843,0,1,0-1.672,0,.843.843,0,1,0,1.672,0Z"/>
          <path d="M150.633,119.469H151v.5a.737.737,0,0,1,.687-.545.711.711,0,0,1,.233.035v.333a.933.933,0,0,0-.258-.045.7.7,0,0,0-.662.5v1.687h-.368Z"/>
          <path d="M122.305,127.435a1.279,1.279,0,0,0,.792.309c.359,0,.622-.187.622-.445,0-.2-.132-.308-.445-.369l-.4-.07c-.481-.086-.7-.288-.7-.647,0-.424.369-.722.888-.722a1.594,1.594,0,0,1,.94.308l-.182.258a1.307,1.307,0,0,0-.772-.263c-.324,0-.535.151-.535.394,0,.2.105.3.423.353l.414.076c.5.091.718.3.718.662a.864.864,0,0,1-.96.762,1.406,1.406,0,0,1-1-.363Z"/>
          <path d="M124.547,124.658a.265.265,0,0,1,.53,0,.265.265,0,1,1-.53,0ZM125,128h-.368v-2.465H125Z"/>
          <path d="M126.047,125.834h-.511v-.3h.511v-.677l.368-.086v.763h.707v.3h-.707v1.511c0,.262.1.368.359.368a.874.874,0,0,0,.348-.066v.329a1.391,1.391,0,0,1-.429.065c-.425,0-.646-.207-.646-.6Z"/>
          <path d="M128.708,127.289c0-.439.369-.732.925-.732a1.429,1.429,0,0,1,.752.191v-.338a.555.555,0,0,0-.636-.611,1.633,1.633,0,0,0-.748.212l-.136-.283a2.117,2.117,0,0,1,.929-.237c.611,0,.955.308.955.869V128h-.364v-.288a1.055,1.055,0,0,1-.783.333A.8.8,0,0,1,128.708,127.289Zm.97.47a.975.975,0,0,0,.707-.283V127a1.3,1.3,0,0,0-.7-.177c-.379,0-.627.182-.627.455C129.061,127.567,129.309,127.759,129.678,127.759Z"/>
          <path d="M131.5,125.531h.368v.384a.846.846,0,0,1,.733-.424.808.808,0,0,1,.757.48.913.913,0,0,1,.824-.48.838.838,0,0,1,.838.914V128h-.369v-1.5c0-.429-.232-.7-.6-.7a.684.684,0,0,0-.616.389,1.109,1.109,0,0,1,.019.217V128h-.368v-1.5a.612.612,0,0,0-.611-.7.676.676,0,0,0-.6.364V128H131.5Z"/>
          <path d="M136.877,128.041a1.23,1.23,0,0,1-1.223-1.277,1.2,1.2,0,0,1,1.162-1.273,1.163,1.163,0,0,1,1.131,1.242v.112h-1.934a.9.9,0,0,0,.878.873,1.008,1.008,0,0,0,.677-.252l.233.247A1.44,1.44,0,0,1,136.877,128.041Zm-.854-1.459h1.561a.815.815,0,0,0-.774-.773A.823.823,0,0,0,136.023,126.582Z"/>
          <path d="M138.8,125.834h-.51v-.3h.51v-.677l.368-.086v.763h.707v.3h-.707v1.511c0,.262.1.368.359.368a.874.874,0,0,0,.348-.066v.329a1.391,1.391,0,0,1-.429.065c-.425,0-.646-.207-.646-.6Z"/>
        </g>
      </g>
      <g>
        <g>
          <path class="ea6a667b-ff82-4185-a691-cf3a585fc6f1" d="M47.618,110.387h.6v1.49h1.758v-1.49h.607v3.535h-.607v-1.515H48.223v1.515h-.6Z"/>
          <path class="ea6a667b-ff82-4185-a691-cf3a585fc6f1" d="M52.513,113.973a1.287,1.287,0,0,1-1.289-1.313,1.247,1.247,0,0,1,1.233-1.309,1.215,1.215,0,0,1,1.2,1.3v.141H51.785a.774.774,0,0,0,.758.692.816.816,0,0,0,.6-.238l.374.349A1.459,1.459,0,0,1,52.513,113.973Zm-.717-1.525h1.317a.692.692,0,0,0-.661-.632A.679.679,0,0,0,51.8,112.448Z"/>
          <path class="ea6a667b-ff82-4185-a691-cf3a585fc6f1" d="M54.089,113.2c0-.454.368-.742.965-.742a1.561,1.561,0,0,1,.681.156v-.278c0-.333-.192-.505-.581-.505a1.755,1.755,0,0,0-.737.2l-.2-.414a2.441,2.441,0,0,1,1.05-.258c.657,0,1.036.334,1.036.92v1.651h-.566v-.258a1.054,1.054,0,0,1-.753.3A.8.8,0,0,1,54.089,113.2Zm1.05.369a.906.906,0,0,0,.6-.207v-.415a1.306,1.306,0,0,0-.586-.121c-.323,0-.525.142-.525.364S54.826,113.564,55.139,113.564Z"/>
          <path class="ea6a667b-ff82-4185-a691-cf3a585fc6f1" d="M58.8,113.584a.976.976,0,0,1-.779.364,1.295,1.295,0,0,1,.035-2.576.967.967,0,0,1,.738.333v-1.394l.571-.1v3.707H58.8Zm-.607-.116a.758.758,0,0,0,.6-.278v-1.066a.789.789,0,0,0-.6-.273.811.811,0,0,0,0,1.617Z"/>
          <path class="ea6a667b-ff82-4185-a691-cf3a585fc6f1" d="M60.644,113.922h-.57v-3.611l.57-.1Z"/>
          <path class="ea6a667b-ff82-4185-a691-cf3a585fc6f1" d="M61.277,110.528a.356.356,0,0,1,.712,0,.356.356,0,0,1-.712,0Zm.641,3.394h-.57v-2.53h.57Z"/>
          <path class="ea6a667b-ff82-4185-a691-cf3a585fc6f1" d="M62.621,111.392h.57v.414a.921.921,0,0,1,.8-.455.852.852,0,0,1,.874.905v1.666H64.3v-1.5a.545.545,0,0,0-.556-.606.649.649,0,0,0-.551.3v1.808h-.57Z"/>
          <path class="ea6a667b-ff82-4185-a691-cf3a585fc6f1" d="M66.732,113.973a1.287,1.287,0,0,1-1.288-1.313,1.247,1.247,0,0,1,1.233-1.309,1.215,1.215,0,0,1,1.2,1.3v.141H66.005a.773.773,0,0,0,.758.692.816.816,0,0,0,.6-.238l.374.349A1.459,1.459,0,0,1,66.732,113.973Zm-.718-1.525h1.319a.693.693,0,0,0-.661-.632A.682.682,0,0,0,66.014,112.448Z"/>
        </g>
        <g>
          <path d="M37.075,118.4h.39v3.193h1.994v.343H37.075Z"/>
          <path d="M41.041,119.429a1.28,1.28,0,1,1-1.2,1.273A1.211,1.211,0,0,1,41.041,119.429Zm.838,1.277a.843.843,0,1,0-1.672,0,.843.843,0,1,0,1.672,0Z"/>
          <path d="M42.889,119.469h.369v.5a.737.737,0,0,1,.687-.545.715.715,0,0,1,.233.035v.333a.933.933,0,0,0-.258-.045.7.7,0,0,0-.662.5v1.687h-.369Z"/>
          <path d="M45.623,121.979A1.23,1.23,0,0,1,44.4,120.7a1.2,1.2,0,0,1,1.162-1.273,1.163,1.163,0,0,1,1.131,1.242v.112H44.759a.9.9,0,0,0,.879.873,1.007,1.007,0,0,0,.676-.252l.233.247A1.44,1.44,0,0,1,45.623,121.979Zm-.854-1.459H46.33a.781.781,0,0,0-1.561,0Z"/>
          <path d="M47.325,119.469h.368v.384a.846.846,0,0,1,.733-.424.808.808,0,0,1,.757.48.911.911,0,0,1,.824-.48.839.839,0,0,1,.839.914v1.591h-.37v-1.5c0-.429-.232-.7-.6-.7a.684.684,0,0,0-.616.389,1.1,1.1,0,0,1,.019.217v1.591h-.368v-1.5a.612.612,0,0,0-.611-.7.676.676,0,0,0-.6.364v1.833h-.368Z"/>
          <path d="M52.689,118.6a.266.266,0,0,1,.531,0,.266.266,0,1,1-.531,0Zm.45,3.338H52.77v-2.465h.369Z"/>
          <path d="M53.9,119.469h.364v.354a.97.97,0,0,1,.8-.384,1.271,1.271,0,0,1-.019,2.53,1,1,0,0,1-.774-.343v1.364H53.9Zm.368.632v1.207a.87.87,0,0,0,.7.343.948.948,0,0,0,0-1.889A.844.844,0,0,0,54.264,120.1Z"/>
          <path d="M56.8,121.373a1.279,1.279,0,0,0,.793.309c.358,0,.621-.187.621-.445,0-.2-.132-.308-.445-.369l-.4-.07c-.48-.086-.7-.288-.7-.647,0-.424.369-.722.888-.722a1.594,1.594,0,0,1,.94.308l-.182.258a1.307,1.307,0,0,0-.772-.263c-.323,0-.535.151-.535.394,0,.2.1.3.423.353l.415.076c.495.091.716.3.716.662a.863.863,0,0,1-.959.762,1.407,1.407,0,0,1-1-.363Z"/>
          <path d="M59.483,120.954a.637.637,0,0,0,.656.712.731.731,0,0,0,.647-.374v-1.823h.369v2.465h-.369v-.4a.882.882,0,0,1-.782.44.863.863,0,0,1-.895-.915v-1.591h.374Z"/>
          <path d="M61.913,119.469h.368v.384a.846.846,0,0,1,.733-.424.808.808,0,0,1,.757.48.911.911,0,0,1,.824-.48.838.838,0,0,1,.838.914v1.591h-.369v-1.5c0-.429-.232-.7-.6-.7a.684.684,0,0,0-.616.389,1.1,1.1,0,0,1,.019.217v1.591h-.368v-1.5a.612.612,0,0,0-.611-.7.676.676,0,0,0-.6.364v1.833h-.368Z"/>
          <path d="M69.172,121.606a.974.974,0,0,1-.788.363,1.271,1.271,0,0,1,.019-2.53,1,1,0,0,1,.769.344v-1.46l.368-.076v3.687h-.368Zm-.7.04a.847.847,0,0,0,.7-.328V120.1a.912.912,0,1,0-.7,1.55Z"/>
          <path d="M71.384,119.429a1.28,1.28,0,1,1-1.2,1.273A1.211,1.211,0,0,1,71.384,119.429Zm.838,1.277a.843.843,0,1,0-1.672,0,.843.843,0,1,0,1.672,0Z"/>
          <path d="M73.6,121.934h-.368v-3.611l.368-.076Z"/>
          <path d="M75.444,119.429a1.28,1.28,0,1,1-1.2,1.273A1.21,1.21,0,0,1,75.444,119.429Zm.838,1.277a.843.843,0,1,0-1.672,0,.843.843,0,1,0,1.672,0Z"/>
          <path d="M77.293,119.469h.368v.5a.737.737,0,0,1,.687-.545.711.711,0,0,1,.233.035v.333a.933.933,0,0,0-.258-.045.7.7,0,0,0-.662.5v1.687h-.368Z"/>
          <path d="M48.965,127.435a1.279,1.279,0,0,0,.792.309c.359,0,.622-.187.622-.445,0-.2-.132-.308-.445-.369l-.4-.07c-.48-.086-.7-.288-.7-.647,0-.424.369-.722.889-.722a1.594,1.594,0,0,1,.939.308l-.182.258a1.3,1.3,0,0,0-.772-.263c-.323,0-.535.151-.535.394,0,.2.105.3.424.353l.414.076c.5.091.717.3.717.662a.864.864,0,0,1-.96.762,1.407,1.407,0,0,1-1-.363Z"/>
          <path d="M51.207,124.658a.265.265,0,0,1,.53,0,.265.265,0,1,1-.53,0ZM51.656,128h-.368v-2.465h.368Z"/>
          <path d="M52.707,125.834H52.2v-.3h.511v-.677l.368-.086v.763h.707v.3h-.707v1.511c0,.262.1.368.359.368a.874.874,0,0,0,.348-.066v.329a1.391,1.391,0,0,1-.429.065c-.424,0-.646-.207-.646-.6Z"/>
          <path d="M55.368,127.289c0-.439.369-.732.925-.732a1.429,1.429,0,0,1,.752.191v-.338a.555.555,0,0,0-.636-.611,1.633,1.633,0,0,0-.748.212l-.136-.283a2.117,2.117,0,0,1,.929-.237c.611,0,.955.308.955.869V128h-.364v-.288a1.054,1.054,0,0,1-.782.333A.8.8,0,0,1,55.368,127.289Zm.97.47a.973.973,0,0,0,.707-.283V127a1.3,1.3,0,0,0-.7-.177c-.378,0-.626.182-.626.455C55.722,127.567,55.97,127.759,56.338,127.759Z"/>
          <path d="M58.157,125.531h.368v.384a.846.846,0,0,1,.733-.424.808.808,0,0,1,.757.48.913.913,0,0,1,.824-.48.839.839,0,0,1,.839.914V128h-.37v-1.5c0-.429-.232-.7-.6-.7a.684.684,0,0,0-.616.389,1.109,1.109,0,0,1,.019.217V128h-.368v-1.5a.612.612,0,0,0-.611-.7.676.676,0,0,0-.6.364V128h-.368Z"/>
          <path d="M63.537,128.041a1.23,1.23,0,0,1-1.223-1.277,1.2,1.2,0,0,1,1.162-1.273,1.163,1.163,0,0,1,1.131,1.242v.112H62.673a.9.9,0,0,0,.879.873,1.007,1.007,0,0,0,.676-.252l.233.247A1.438,1.438,0,0,1,63.537,128.041Zm-.854-1.459h1.561a.814.814,0,0,0-.773-.773A.823.823,0,0,0,62.683,126.582Z"/>
          <path d="M65.456,125.834h-.51v-.3h.51v-.677l.368-.086v.763h.707v.3h-.707v1.511c0,.262.1.368.359.368a.874.874,0,0,0,.348-.066v.329a1.391,1.391,0,0,1-.429.065c-.424,0-.646-.207-.646-.6Z"/>
        </g>
      </g>
    </g>
    <g>
      <path class="fc973e14-6b7e-4f3c-8ec0-ff97ac190e18" d="M155.62,77.883a.184.184,0,0,1-.184-.184,24.436,24.436,0,0,0-48.872,0,.184.184,0,1,1-.368,0,24.8,24.8,0,0,1,49.608,0A.184.184,0,0,1,155.62,77.883Z"/>
      <g>
        <circle class="bfadd6ce-9ad0-4a0e-895d-842a9018d8af" cx="131.161" cy="53.079" r="4.276"/>
        <path class="fc973e14-6b7e-4f3c-8ec0-ff97ac190e18" d="M131.161,57.539a4.46,4.46,0,1,1,4.46-4.459A4.464,4.464,0,0,1,131.161,57.539Zm0-8.551a4.092,4.092,0,1,0,4.092,4.092A4.1,4.1,0,0,0,131.161,48.988Z"/>
      </g>
      <path class="b300cd3b-2c4a-4d52-ab9e-eb526c2ac17c" d="M134.185,50.056a4.276,4.276,0,0,1-6.047,6.047Z"/>
      <g>
        <circle class="bfadd6ce-9ad0-4a0e-895d-842a9018d8af" cx="112.102" cy="62.289" r="4.276"/>
        <path class="fc973e14-6b7e-4f3c-8ec0-ff97ac190e18" d="M112.1,66.748a4.46,4.46,0,1,1,4.46-4.459A4.465,4.465,0,0,1,112.1,66.748Zm0-8.551a4.092,4.092,0,1,0,4.092,4.092A4.1,4.1,0,0,0,112.1,58.2Z"/>
      </g>
      <path class="a4b0ac47-8a54-47dc-bed0-4a88d8c604ed" d="M115.125,59.265a4.276,4.276,0,1,1-6.046,6.047Z"/>
      <g>
        <circle class="bfadd6ce-9ad0-4a0e-895d-842a9018d8af" cx="106.38" cy="81.975" r="4.276"/>
        <path class="fc973e14-6b7e-4f3c-8ec0-ff97ac190e18" d="M106.38,86.435a4.46,4.46,0,1,1,4.46-4.46A4.465,4.465,0,0,1,106.38,86.435Zm0-8.552a4.092,4.092,0,1,0,4.092,4.092A4.1,4.1,0,0,0,106.38,77.883Z"/>
      </g>
      <path class="aea86e8d-87e0-466c-be78-e3b22c5615ed" d="M109.4,78.952A4.275,4.275,0,0,1,103.357,85Z"/>
      <g>
        <circle class="bfadd6ce-9ad0-4a0e-895d-842a9018d8af" cx="155.62" cy="81.975" r="4.276"/>
        <path class="fc973e14-6b7e-4f3c-8ec0-ff97ac190e18" d="M155.62,86.435a4.46,4.46,0,1,1,4.459-4.46A4.465,4.465,0,0,1,155.62,86.435Zm0-8.552a4.092,4.092,0,1,0,4.091,4.092A4.1,4.1,0,0,0,155.62,77.883Z"/>
      </g>
      <path class="b742b144-aca8-457b-ac02-fc3e0b1e3303" d="M158.643,78.952A4.276,4.276,0,1,1,152.6,85Z"/>
      <g>
        <circle class="bfadd6ce-9ad0-4a0e-895d-842a9018d8af" cx="149.649" cy="62.289" r="4.276"/>
        <path class="fc973e14-6b7e-4f3c-8ec0-ff97ac190e18" d="M149.649,66.748a4.46,4.46,0,1,1,4.46-4.459A4.464,4.464,0,0,1,149.649,66.748Zm0-8.551a4.092,4.092,0,1,0,4.091,4.092A4.1,4.1,0,0,0,149.649,58.2Z"/>
      </g>
      <path class="bbf68a42-eeb0-4397-a8e7-30f342f74fef" d="M152.673,59.265a4.276,4.276,0,0,1-6.047,6.047Z"/>
      <rect class="fc973e14-6b7e-4f3c-8ec0-ff97ac190e18" x="120.271" y="67.329" width="25.001" height="25.25"/>
      <g>
        <rect class="bfadd6ce-9ad0-4a0e-895d-842a9018d8af" x="118.667" y="65.324" width="24.19" height="24.861"/>
        <path class="fc973e14-6b7e-4f3c-8ec0-ff97ac190e18" d="M142.856,90.369H118.667a.184.184,0,0,1-.184-.184V65.325a.184.184,0,0,1,.184-.185h24.189a.184.184,0,0,1,.184.185v24.86A.184.184,0,0,1,142.856,90.369Zm-24-.368h23.821V65.509H118.851Z"/>
      </g>
      <path class="fc973e14-6b7e-4f3c-8ec0-ff97ac190e18" d="M142.856,84.047H118.667a.184.184,0,0,1,0-.368h24.189a.184.184,0,0,1,0,.368Z"/>
      <path class="fc973e14-6b7e-4f3c-8ec0-ff97ac190e18" d="M142.856,77.868H118.667a.184.184,0,0,1,0-.368h24.189a.184.184,0,0,1,0,.368Z"/>
      <path class="fc973e14-6b7e-4f3c-8ec0-ff97ac190e18" d="M142.856,71.688H118.667a.184.184,0,0,1,0-.368h24.189a.184.184,0,1,1,0,.368Z"/>
      <path class="fc973e14-6b7e-4f3c-8ec0-ff97ac190e18" d="M125.865,80.942h-4.518a.184.184,0,0,1,0-.368h4.518a.184.184,0,0,1,0,.368Z"/>
      <circle class="fc973e14-6b7e-4f3c-8ec0-ff97ac190e18" cx="139.446" cy="80.774" r="0.5"/>
      <circle class="fc973e14-6b7e-4f3c-8ec0-ff97ac190e18" cx="137.368" cy="80.774" r="0.5"/>
      <circle class="fc973e14-6b7e-4f3c-8ec0-ff97ac190e18" cx="139.446" cy="68.553" r="0.5"/>
      <circle class="fc973e14-6b7e-4f3c-8ec0-ff97ac190e18" cx="137.368" cy="68.553" r="0.5"/>
      <g>
        <line class="bfadd6ce-9ad0-4a0e-895d-842a9018d8af" x1="139.94" y1="74.609" x2="135.422" y2="74.609"/>
        <path class="fc973e14-6b7e-4f3c-8ec0-ff97ac190e18" d="M139.94,74.793h-4.519a.184.184,0,0,1,0-.368h4.519a.184.184,0,0,1,0,.368Z"/>
      </g>
      <circle class="fc973e14-6b7e-4f3c-8ec0-ff97ac190e18" cx="121.841" cy="74.594" r="0.5"/>
      <circle class="fc973e14-6b7e-4f3c-8ec0-ff97ac190e18" cx="123.918" cy="74.594" r="0.5"/>
      <g>
        <rect class="bfadd6ce-9ad0-4a0e-895d-842a9018d8af" x="120.608" y="85.619" width="20.196" height="2.8"/>
        <path class="fc973e14-6b7e-4f3c-8ec0-ff97ac190e18" d="M140.8,88.6h-20.2a.184.184,0,0,1-.184-.184v-2.8a.184.184,0,0,1,.184-.184h20.2a.184.184,0,0,1,.184.184v2.8A.184.184,0,0,1,140.8,88.6Zm-20.012-.368H140.62V85.8H120.792Z"/>
      </g>
      <g>
        <rect class="bfadd6ce-9ad0-4a0e-895d-842a9018d8af" x="120.608" y="67.401" width="8.621" height="2.302"/>
        <path class="fc973e14-6b7e-4f3c-8ec0-ff97ac190e18" d="M129.228,69.888h-8.62a.184.184,0,0,1-.184-.184V67.4a.184.184,0,0,1,.184-.184h8.62a.184.184,0,0,1,.184.184v2.3A.184.184,0,0,1,129.228,69.888Zm-8.436-.369h8.252V67.585h-8.252Z"/>
      </g>
      <path class="fc973e14-6b7e-4f3c-8ec0-ff97ac190e18" d="M130.114,69.888a.184.184,0,0,1-.184-.184V67.4a.185.185,0,0,1,.369,0v2.3A.184.184,0,0,1,130.114,69.888Z"/>
    </g>
    <g>
      <g>
        <polyline class="bfadd6ce-9ad0-4a0e-895d-842a9018d8af" points="32.603 67.024 43.764 67.024 43.764 61.998 59.804 52.738 75.843 61.998 75.843 80.519 59.804 89.78 43.764 80.519 43.764 80.149"/>
        <path class="fc973e14-6b7e-4f3c-8ec0-ff97ac190e18" d="M59.8,89.964a.186.186,0,0,1-.093-.025l-16.04-9.26a.185.185,0,0,1-.091-.16v-.37a.184.184,0,1,1,.368,0v.263L59.8,89.567l15.855-9.155V62.105L59.8,52.951,43.948,62.105v4.919a.184.184,0,0,1-.184.184H32.6a.185.185,0,0,1,0-.369H43.58V62a.185.185,0,0,1,.091-.16l16.04-9.26a.187.187,0,0,1,.186,0l16.039,9.26a.185.185,0,0,1,.091.16V80.519a.185.185,0,0,1-.091.16L59.9,89.939A.183.183,0,0,1,59.8,89.964Z"/>
      </g>
      <polygon class="fc973e14-6b7e-4f3c-8ec0-ff97ac190e18" points="46.478 80.697 46.495 82.096 57.987 88.731 57.987 82.643 50.675 78.422 46.478 80.697"/>
      <path class="fc973e14-6b7e-4f3c-8ec0-ff97ac190e18" d="M43.764,76.875a.184.184,0,0,1-.184-.185V73.826a.184.184,0,1,1,.368,0V76.69A.184.184,0,0,1,43.764,76.875Z"/>
      <path class="fc973e14-6b7e-4f3c-8ec0-ff97ac190e18" d="M43.764,72.041a.184.184,0,0,1-.184-.184V68.438a.184.184,0,0,1,.368,0v3.419A.184.184,0,0,1,43.764,72.041Z"/>
      <polygon class="fc973e14-6b7e-4f3c-8ec0-ff97ac190e18" points="59.802 71.425 75.841 62.165 75.843 80.519 59.804 89.78 59.804 85.793 59.802 71.425"/>
      <path class="fc973e14-6b7e-4f3c-8ec0-ff97ac190e18" d="M59.8,89.964a.184.184,0,0,1-.184-.184V71.425a.187.187,0,0,1,.092-.16l16.04-9.26a.184.184,0,1,1,.185.319L59.986,71.532V89.78A.184.184,0,0,1,59.8,89.964Z"/>
      <path class="fc973e14-6b7e-4f3c-8ec0-ff97ac190e18" d="M59.8,71.609a.2.2,0,0,1-.093-.024l-16.04-9.261a.185.185,0,1,1,.186-.319l16.04,9.26a.185.185,0,0,1,.067.252A.182.182,0,0,1,59.8,71.609Z"/>
      <path class="fc973e14-6b7e-4f3c-8ec0-ff97ac190e18" d="M43.8,85.348a.18.18,0,0,1-.156-.087.183.183,0,0,1,.06-.254l3.762-2.322a.184.184,0,0,1,.193.314L43.9,85.321A.18.18,0,0,1,43.8,85.348Z"/>
      <path class="fc973e14-6b7e-4f3c-8ec0-ff97ac190e18" d="M50.957,72.041H29.479a.184.184,0,0,1,0-.368H50.957a.184.184,0,0,1,0,.368Z"/>
      <path class="fc973e14-6b7e-4f3c-8ec0-ff97ac190e18" d="M44.9,76.875H35.08a.185.185,0,0,1,0-.369H44.9a.185.185,0,1,1,0,.369Z"/>
      <g>
        <polygon class="bfadd6ce-9ad0-4a0e-895d-842a9018d8af" points="39.696 82.046 39.696 90.754 47.238 95.109 54.78 90.754 54.78 82.046 47.238 77.691 39.696 82.046"/>
        <path class="fc973e14-6b7e-4f3c-8ec0-ff97ac190e18" d="M47.237,95.293a.182.182,0,0,1-.092-.025L39.6,90.914a.185.185,0,0,1-.092-.16V82.046a.185.185,0,0,1,.092-.16l7.542-4.354a.185.185,0,0,1,.185,0l7.542,4.354a.184.184,0,0,1,.091.16v8.708a.184.184,0,0,1-.091.16L47.33,95.268A.183.183,0,0,1,47.237,95.293ZM39.88,90.647,47.237,94.9,54.6,90.647v-8.5l-7.358-4.247L39.88,82.152Z"/>
      </g>
      <path class="fc973e14-6b7e-4f3c-8ec0-ff97ac190e18" d="M47.134,92.7a.184.184,0,0,1-.184-.185V86.573l-7.449-4.3a.185.185,0,1,1,.185-.32l7.541,4.354a.184.184,0,0,1,.091.16v6.049A.184.184,0,0,1,47.134,92.7Z"/>
      <path class="fc973e14-6b7e-4f3c-8ec0-ff97ac190e18" d="M47.134,86.65a.182.182,0,0,1-.16-.092.185.185,0,0,1,.067-.252l7.646-4.42a.184.184,0,1,1,.185.319l-7.645,4.42A.183.183,0,0,1,47.134,86.65Z"/>
      <polygon class="e08f336b-3608-43ea-95e8-a3e9dbe74a2a" points="47.135 86.466 54.78 82.046 54.78 90.754 47.238 95.109 47.135 86.466"/>
    </g>
    <g>
      <rect class="fc973e14-6b7e-4f3c-8ec0-ff97ac190e18" x="197.795" y="62.289" width="27.643" height="24.636"/>
      <path class="fc973e14-6b7e-4f3c-8ec0-ff97ac190e18" d="M197.794,92.269H190.35a3.041,3.041,0,0,1-3.037-3.038V71.415a3.041,3.041,0,0,1,3.037-3.038h34.733a.184.184,0,0,1,0,.368H190.35a2.673,2.673,0,0,0-2.669,2.67V89.231a2.674,2.674,0,0,0,2.669,2.67h7.444a.184.184,0,0,1,0,.368Z"/>
      <path class="fc973e14-6b7e-4f3c-8ec0-ff97ac190e18" d="M220.649,92.269h-9.033a.184.184,0,0,1,0-.368h9.033a.184.184,0,0,1,0,.368Z"/>
      <g>
        <rect class="bfadd6ce-9ad0-4a0e-895d-842a9018d8af" x="195.518" y="60.013" width="27.643" height="24.636"/>
        <path class="fc973e14-6b7e-4f3c-8ec0-ff97ac190e18" d="M223.161,84.833H195.518a.184.184,0,0,1-.184-.184V60.012a.184.184,0,0,1,.184-.184h27.643a.184.184,0,0,1,.184.184V84.649A.184.184,0,0,1,223.161,84.833ZM195.7,84.465h27.274V60.2H195.7Z"/>
      </g>
      <polygon class="b10ef675-d05a-444a-967c-b48672f3e150" points="223.161 84.649 197.795 84.21 222.163 60.013 223.161 60.013 223.161 84.649"/>
      <g>
        <circle class="bfadd6ce-9ad0-4a0e-895d-842a9018d8af" cx="190.176" cy="71.212" r="1.244"/>
        <path class="fc973e14-6b7e-4f3c-8ec0-ff97ac190e18" d="M190.177,72.64a1.428,1.428,0,1,1,1.427-1.428A1.429,1.429,0,0,1,190.177,72.64Zm0-2.487a1.06,1.06,0,1,0,1.058,1.059A1.061,1.061,0,0,0,190.177,70.153Z"/>
      </g>
      <g>
        <circle class="bfadd6ce-9ad0-4a0e-895d-842a9018d8af" cx="190.168" cy="89.527" r="1.244"/>
        <path class="fc973e14-6b7e-4f3c-8ec0-ff97ac190e18" d="M190.168,90.955a1.428,1.428,0,1,1,1.428-1.428A1.429,1.429,0,0,1,190.168,90.955Zm0-2.487a1.06,1.06,0,1,0,1.059,1.059A1.06,1.06,0,0,0,190.168,88.468Z"/>
      </g>
      <path class="fc973e14-6b7e-4f3c-8ec0-ff97ac190e18" d="M208.305,54.549h-8.023a.184.184,0,1,1,0-.368h8.023a.184.184,0,1,1,0,.368Z"/>
      <path class="fc973e14-6b7e-4f3c-8ec0-ff97ac190e18" d="M228.329,68.745h-3.606a.184.184,0,1,1,0-.368h3.606A2.672,2.672,0,0,0,231,65.707V57.218a2.672,2.672,0,0,0-2.669-2.669h-6.8a.184.184,0,1,1,0-.368h6.8a3.041,3.041,0,0,1,3.038,3.037v8.489A3.042,3.042,0,0,1,228.329,68.745Z"/>
      <g>
        <circle class="bfadd6ce-9ad0-4a0e-895d-842a9018d8af" cx="228.603" cy="57.059" r="1.244"/>
        <path class="fc973e14-6b7e-4f3c-8ec0-ff97ac190e18" d="M228.6,58.486a1.428,1.428,0,1,1,1.428-1.427A1.429,1.429,0,0,1,228.6,58.486Zm0-2.487a1.06,1.06,0,1,0,1.06,1.06A1.061,1.061,0,0,0,228.6,56Z"/>
      </g>
      <g>
        <circle class="bfadd6ce-9ad0-4a0e-895d-842a9018d8af" cx="228.541" cy="65.89" r="1.244"/>
        <path class="fc973e14-6b7e-4f3c-8ec0-ff97ac190e18" d="M228.541,67.318a1.428,1.428,0,1,1,1.428-1.428A1.429,1.429,0,0,1,228.541,67.318Zm0-2.488a1.06,1.06,0,1,0,1.06,1.06A1.062,1.062,0,0,0,228.541,64.83Z"/>
      </g>
      <g>
        <circle class="bfadd6ce-9ad0-4a0e-895d-842a9018d8af" cx="221.533" cy="92.085" r="1.244"/>
        <path class="fc973e14-6b7e-4f3c-8ec0-ff97ac190e18" d="M221.533,93.512a1.428,1.428,0,1,1,1.428-1.427A1.429,1.429,0,0,1,221.533,93.512Zm0-2.487a1.06,1.06,0,1,0,1.06,1.06A1.062,1.062,0,0,0,221.533,91.025Z"/>
      </g>
      <g>
        <circle class="bfadd6ce-9ad0-4a0e-895d-842a9018d8af" cx="199.038" cy="54.365" r="1.244"/>
        <path class="fc973e14-6b7e-4f3c-8ec0-ff97ac190e18" d="M199.038,55.792a1.428,1.428,0,1,1,1.428-1.427A1.429,1.429,0,0,1,199.038,55.792Zm0-2.487a1.06,1.06,0,1,0,1.06,1.06A1.062,1.062,0,0,0,199.038,53.305Z"/>
      </g>
      <path class="fc973e14-6b7e-4f3c-8ec0-ff97ac190e18" d="M203.083,90.169h-3.234a.184.184,0,0,1,0-.368h3.234a.184.184,0,0,1,0,.368Z"/>
      <path class="fc973e14-6b7e-4f3c-8ec0-ff97ac190e18" d="M205.78,92.269h-5.931a.184.184,0,1,1,0-.368h5.931a.184.184,0,0,1,0,.368Z"/>
      <path class="fc973e14-6b7e-4f3c-8ec0-ff97ac190e18" d="M209.88,92.269h-3.234a.184.184,0,1,1,0-.368h3.234a.184.184,0,0,1,0,.368Z"/>
      <path class="fc973e14-6b7e-4f3c-8ec0-ff97ac190e18" d="M209.88,94.369h-5.932a.185.185,0,0,1,0-.369h5.932a.185.185,0,0,1,0,.369Z"/>
      <path class="fc973e14-6b7e-4f3c-8ec0-ff97ac190e18" d="M203.083,94.369h-3.234a.185.185,0,0,1,0-.369h3.234a.185.185,0,0,1,0,.369Z"/>
      <path class="fc973e14-6b7e-4f3c-8ec0-ff97ac190e18" d="M209.88,90.169h-3.234a.184.184,0,1,1,0-.368h3.234a.184.184,0,0,1,0,.368Z"/>
      <path class="fc973e14-6b7e-4f3c-8ec0-ff97ac190e18" d="M205.78,90.169h-1.616a.184.184,0,0,1,0-.368h1.616a.184.184,0,0,1,0,.368Z"/>
      <path class="fc973e14-6b7e-4f3c-8ec0-ff97ac190e18" d="M219.864,56.648h-3.233a.184.184,0,0,1,0-.368h3.233a.184.184,0,0,1,0,.368Z"/>
      <path class="fc973e14-6b7e-4f3c-8ec0-ff97ac190e18" d="M219.864,54.549h-5.931a.184.184,0,1,1,0-.368h5.931a.184.184,0,1,1,0,.368Z"/>
      <path class="fc973e14-6b7e-4f3c-8ec0-ff97ac190e18" d="M213.066,54.549h-3.232a.184.184,0,1,1,0-.368h3.232a.184.184,0,1,1,0,.368Z"/>
      <path class="fc973e14-6b7e-4f3c-8ec0-ff97ac190e18" d="M215.765,52.449h-5.931a.184.184,0,0,1,0-.368h5.931a.184.184,0,0,1,0,.368Z"/>
      <path class="fc973e14-6b7e-4f3c-8ec0-ff97ac190e18" d="M219.864,52.449h-3.233a.184.184,0,1,1,0-.368h3.233a.184.184,0,1,1,0,.368Z"/>
      <path class="fc973e14-6b7e-4f3c-8ec0-ff97ac190e18" d="M213.066,56.648h-3.232a.184.184,0,0,1,0-.368h3.232a.184.184,0,0,1,0,.368Z"/>
      <path class="fc973e14-6b7e-4f3c-8ec0-ff97ac190e18" d="M215.549,56.648h-1.616a.184.184,0,0,1,0-.368h1.616a.184.184,0,0,1,0,.368Z"/>
      <rect class="fc973e14-6b7e-4f3c-8ec0-ff97ac190e18" x="195.518" y="60.013" width="27.643" height="5.877"/>
      <path class="bfadd6ce-9ad0-4a0e-895d-842a9018d8af" d="M208.305,63.362H198.139a.184.184,0,0,1,0-.368h10.166a.184.184,0,0,1,0,.368Z"/>
      <circle class="bfadd6ce-9ad0-4a0e-895d-842a9018d8af" cx="218.116" cy="63.178" r="0.456"/>
      <circle class="bfadd6ce-9ad0-4a0e-895d-842a9018d8af" cx="219.975" cy="63.178" r="0.456"/>
    </g>
  </g>
</svg>
