<svg id="e49acac5-fc22-463b-867e-9096163af8e8" data-name="Layer 1" xmlns="http://www.w3.org/2000/svg" xmlns:xlink="http://www.w3.org/1999/xlink" width="555" height="250" viewBox="0 0 555 250"><defs><style>.e29b27c8-0d45-4296-afb6-872ecac28736{fill:none;}.a75853c7-1c2f-4008-b561-7f959b921fac{fill:#a7c0e4;}.af1ce906-87e8-4ec6-aec3-2d503ce68fba{clip-path:url(#bcd3bc12-0503-43c8-9a38-4fca2fdf0951);}.e4e1b371-4083-4ec5-aa99-77d3b51645a1{fill:#e2eaf6;}.a5c21e34-eb69-42ed-8cb5-a30ce1cc8e2f{fill:#316dc1;}.fda83bc1-f0d0-4a18-97f3-6d5db811beba{fill:#5f0000;}.a18e864c-3b9b-4ad9-b956-75a7752b3d4d{fill:#261a4c;}.bc0c32df-efb2-48d0-b6f2-746a60b80b28{clip-path:url(#b2cb857d-5e6a-4fc2-8454-27c8cb2694e7);}.a6afaad4-56cb-49c6-a002-ff2975d01e60{fill:#8f0000;}.fc48d96e-eb6c-4b47-9d23-63d1b575ad93{fill:#fff;}.a3cb19df-07a9-454b-8b73-8bc000050097{fill:#e00;}.bfb00b90-b55b-450d-9981-39185af0925d{fill:#27579a;}</style><clipPath id="bcd3bc12-0503-43c8-9a38-4fca2fdf0951"><rect class="e29b27c8-0d45-4296-afb6-872ecac28736" x="142.10699" y="0.05" width="249.95" height="249.95"/></clipPath><clipPath id="b2cb857d-5e6a-4fc2-8454-27c8cb2694e7"><path class="e29b27c8-0d45-4296-afb6-872ecac28736" d="M298.268,172.79108A21.04543,21.04543,0,0,0,289.719,179.507a45.0798,45.0798,0,0,0-4.962,8.66s-4.119-3.609-8.845-8.34595-12.443-1.6-12.443-1.6l-.214-16.689,28.09094-.24a22.24042,22.24042,0,0,0,5.6,9.72Z"/></clipPath></defs><path id="a40164a1-f025-43fb-9df8-cf119a0624a2" data-name="Rectangle 27876" class="a75853c7-1c2f-4008-b561-7f959b921fac" d="M.01,0H554.99a.01.01,0,0,1,.01.01V249.99a.01.01,0,0,1-.01.01H.01a.01.01,0,0,1-.01-.01V.01A.01.01,0,0,1,.01,0Z"/><g id="a686ae31-0d99-4aa0-93ec-c411d8cb029e" data-name="Group 35732"><g class="af1ce906-87e8-4ec6-aec3-2d503ce68fba"><g id="beed2908-ecbe-4e77-94b6-6529ee1927b1" data-name="Group 35731"><g id="bf44d13a-f575-48ff-b8a9-aa049932b061" data-name="Group 35730"><g id="bea7d533-8e1c-4b37-9a31-169fb1da46d5" data-name="Group 35725"><g id="baa5e286-2e20-468a-ad46-eba420a7eee1" data-name="Group 35710"><rect id="a523fb58-8ff9-4ce2-a489-7bc7a63ee9b7" data-name="Rectangle 27866" class="e4e1b371-4083-4ec5-aa99-77d3b51645a1" x="182.72899" y="151.16899" width="48.298" height="27.168"/></g><path id="f3e2825f-931c-4453-a22f-5dce0dc68d92" data-name="Path 20006" class="a75853c7-1c2f-4008-b561-7f959b921fac" d="M215.617,159.158H200.751V151.19H317.046v11.152"/><g id="ebe5d77c-7486-4211-b25f-fcc40a1426c1" data-name="Group 35711"><rect id="a5adcb45-326d-4df9-b63e-93db38ac14a9" data-name="Rectangle 27867" class="e4e1b371-4083-4ec5-aa99-77d3b51645a1" x="294.652" y="35.133" width="58.96" height="33.165"/></g><g id="e89cce6d-2fd2-4e9c-a2a7-ae58d8f40c82" data-name="Group 35712"><rect id="a26a1527-a866-4a9b-8c07-03c3aa5e0c94" data-name="Rectangle 27868" class="a75853c7-1c2f-4008-b561-7f959b921fac" x="289.559" y="41.602" width="32.823" height="26.696"/></g><path id="b7643111-c4a0-484e-ba30-d73946b51d36" data-name="Path 20007" class="a5c21e34-eb69-42ed-8cb5-a30ce1cc8e2f" d="M261.434,249.59706c10,12.62806,27.395,9.486,27.395,9.486,31.2-9.486,72.443-5.341,72.443-5.341L359.8321,239.51c-.2-8.18994,1.993-22.564,2.795-26.17005.386-1.736,1.072-4.345,1.8-7.107,1.21106-4.6,2.583-9.817,3.061-12.84705a18.11476,18.11476,0,0,0-10.061-19.499,11.79917,11.79917,0,0,0,.085-5.364l-7.66,3c-20.30506,5.142-46.03406-2.037-46.03406-2.037a10.09378,10.09378,0,0,0-2.313,3.563,41.67318,41.67318,0,0,0-4.556,1.821l-2.3,1.907a32.48727,32.48727,0,0,0-7.52905,9.521,54.18053,54.18053,0,0,0-5.066,12.655c-2.779,10.86206-6.88794,22.92-6.9,23.06494-.137,2.62805-4.9,11.486-6.25306,14.785l-7.46594,12.793"/><path id="a8b9f91b-8eb0-4dee-95a9-e1ba69724e69" data-name="Path 20008" class="fda83bc1-f0d0-4a18-97f3-6d5db811beba" d="M312.811,146.70107a7.14536,7.14536,0,0,1-4.142,2.488,10.16564,10.16564,0,0,1-4.98706-.558c-.827-.358-2.592-1.047-2.807-2.037.558,2.576,2.323,3.99194,4.986,4.712a22.07432,22.07432,0,0,0,3.719.712c.47.043,4.76294.251,4.753.184A55.96531,55.96531,0,0,0,312.811,146.70107Z"/><path id="a880b1ef-6825-456d-9f8d-97afd9a9f5a7" data-name="Path 20009" class="e4e1b371-4083-4ec5-aa99-77d3b51645a1" d="M219.128,194.711a.482.482,0,0,1-.482-.48206h0v-27.848a.482.482,0,0,1,.48194-.48206h.00006a.482.482,0,0,1,.482.48206h0v27.848a.482.482,0,0,1-.48193.48206Z"/><path id="b8eb78a2-0f7c-4ffa-b053-424d661f4cd3" data-name="Path 20010" class="e4e1b371-4083-4ec5-aa99-77d3b51645a1" d="M370.529,81.985a.48194.48194,0,0,1-.48206-.48193V64.909a5.053,5.053,0,0,0-5.047-5.048H335.488a.482.482,0,0,1-.48205-.48193v-.00012a.48194.48194,0,0,1,.48193-.48206h29.51208a6.01813,6.01813,0,0,1,6.011,6.011v16.594a.48194.48194,0,0,1-.48083.48315Z"/><path id="f50a204a-eedd-4d08-a15a-8a562f87c624" data-name="Path 20011" class="e4e1b371-4083-4ec5-aa99-77d3b51645a1" d="M204.15,110.815h-33.782a7.3,7.3,0,0,1-7.292-7.292V28.976a7.3,7.3,0,0,1,7.292-7.292H260.26a7.3,7.3,0,0,1,7.292,7.292V43.418a.482.482,0,0,1-.48194.482H267.07a.482.482,0,0,1-.482-.482h0V28.976a6.336,6.336,0,0,0-6.329-6.329h-89.891a6.336,6.336,0,0,0-6.329,6.329v74.547a6.336,6.336,0,0,0,6.329,6.329H204.15a.482.482,0,0,1,.482.48205h0A.482.482,0,0,1,204.15,110.815Z"/><path id="ad2639c3-b0e5-459c-a46f-76cf13ad73e3" data-name="Path 20012" class="e4e1b371-4083-4ec5-aa99-77d3b51645a1" d="M219.128,155.647H204.263V43.417H320.558v10.8"/><rect id="e133e29c-0749-4a19-96c2-462c5c9a4864" data-name="Rectangle 27869" class="a18e864c-3b9b-4ad9-b956-75a7752b3d4d" x="211.517" y="57.426" width="113.035" height="112.386"/><g id="a85b05f1-74e2-4734-9fac-9d4330312fb0" data-name="Group 35715"><g class="bc0c32df-efb2-48d0-b6f2-746a60b80b28"><g id="fda3a8e2-9a07-475e-82c2-158b7e4f14a9" data-name="Group 35714"><path id="b29e6aed-fe8b-49a0-bdf8-211d10897127" data-name="Path 20013" class="a6afaad4-56cb-49c6-a002-ff2975d01e60" d="M296.947,174.86908c-1.092-1.261-3.057-3.555-3.973-4.765-1.307-1.72705-3.1-3.615-3.115-3.634l-.043-.04505h-3.9a14.41763,14.41763,0,0,1-2.5-2.025,54.52922,54.52922,0,0,0-8.066-6.463c-.717-.493-1.158-.454-1.4-.333a1.035,1.035,0,0,0-.5.973c-.09094,1.61206,1.426,4.933,5.077,7.265.00806.005.318.228.738.583q-1.41888,0-2.838-.009-1.48994-.007-2.981-.01h-.658c-.822,0-1.672,0-2.50806.017-.192,0-.385.005-.579.005a6.48193,6.48193,0,0,0-2.2.256,2.66391,2.66391,0,0,0-1.713,1.969,1.51709,1.51709,0,0,0,.584,1.4,1.7,1.7,0,0,0-.58105,2.231,1.47,1.47,0,0,0,.976.77295,1.71288,1.71288,0,0,0-.813.9,1.04209,1.04209,0,0,0,.221.938c.86694,1.156,4.432.417,4.781.342.251.02295,2.55505.235,3.222.3a5.9313,5.9313,0,0,1,1.447.543,16.89883,16.89883,0,0,0,2.053.824,72.58927,72.58927,0,0,0,5.584,6.65906,14.75148,14.75148,0,0,0,3.859,2.74"/><path id="bf6fdf1a-e8c6-4eff-97ed-d3c7e56f2a1e" data-name="Path 20014" class="fda83bc1-f0d0-4a18-97f3-6d5db811beba" d="M282.417,173.656a.481.481,0,0,1-.411-.229,6.19649,6.19649,0,0,1-.5-1.575,11.86508,11.86508,0,0,0-.963-2.9,8.48092,8.48092,0,0,0-1.714-1.689c-.145-.121-.281-.233-.4-.334h-4.837a.482.482,0,0,1-.48205-.48193V166.447a.48194.48194,0,0,1,.48193-.482h5.01807a.48107.48107,0,0,1,.321.12305c.137.123.31494.27.512.433a8.77206,8.77206,0,0,1,1.938,1.958,12.5639,12.5639,0,0,1,1.06006,3.146,6.90411,6.90411,0,0,0,.379,1.29505.4844.4844,0,0,1-.40295.736Z"/><g id="f869cddc-8dbf-4577-aaf1-b38a2d5fb869" data-name="Group 35713"><path id="f037567d-ffe8-4349-83a0-5d49db90d250" data-name="Path 20015" class="fda83bc1-f0d0-4a18-97f3-6d5db811beba" d="M287.482,186.683a.47751.47751,0,0,1-.213-.05,15.11959,15.11959,0,0,1-4.005-2.83606,72.20178,72.20178,0,0,1-5.644-6.734.48177.48177,0,0,1,.77393-.574,72.75124,72.75124,0,0,0,5.55,6.625,14.16368,14.16368,0,0,0,3.751,2.65405.48215.48215,0,0,1,.21814.64587l-.00012.00013A.48219.48219,0,0,1,287.482,186.683Z"/><path id="a0592e70-8ab1-460a-bf82-6ff9433ebd6c" data-name="Path 20016" class="fda83bc1-f0d0-4a18-97f3-6d5db811beba" d="M266.8569,170.537a.48083.48083,0,0,1-.27-.083,1.88092,1.88092,0,0,1-.89294-1.845,2.981,2.981,0,0,1,1.934-2.244,6.74359,6.74359,0,0,1,2.316-.276c.191,0,.382,0,.571-.005.83606-.021,1.684-.019,2.5-.017h.672q1.48994,0,2.981.01,1.61408.00805,3.22705.01a.482.482,0,0,1,.48205.48193v.00013a.482.482,0,0,1-.48193.482H279.895q-1.6159,0-3.231-.01-1.489-.007-2.97705-.01h-.673c-.813,0-1.65406,0-2.476.016-.2.005-.4.005-.594.006a5.93165,5.93165,0,0,0-1.993.22,2.03129,2.03129,0,0,0-1.30005,1.458.86988.86988,0,0,0,.31494.8c.866-.223,3.916-1,5.39294-1.243.318-.053.615-.106.9-.156a10.90248,10.90248,0,0,1,3.238-.271c.342.041.781.12,1.306.233a.48193.48193,0,0,1-.204.942c-.495-.10706-.9-.181-1.216-.218a10.07631,10.07631,0,0,0-2.954.262c-.285.051-.58606.1-.907.158-1.652.275-5.5,1.274-5.537,1.28406A.47746.47746,0,0,1,266.8569,170.537Z"/><path id="ea91bb0f-0368-4c59-a32c-6ff3f8cc3540" data-name="Path 20017" class="fda83bc1-f0d0-4a18-97f3-6d5db811beba" d="M267.671,173.471a1.98886,1.98886,0,0,1-1.93994-1.037,2.06909,2.06909,0,0,1,.87353-2.79261l.01441-.00744a.48178.48178,0,0,1,.479.83606,1.124,1.124,0,0,0-.51868,1.50256l.00965.01941c.386.75305,1.516.546,2.842.222.22705-.05506.439-.10706.62805-.145,1.175-.235,5.031-1.02,5.031-1.02a.4799.4799,0,0,1,.233.01s.82605.244,1.713.493a.48187.48187,0,0,1-.2583.92847l-.00171-.00049c-.695-.2-1.35205-.387-1.611-.463-.655.13305-3.863.786-4.917,1-.177.035-.376.084-.588.136A8.66581,8.66581,0,0,1,267.671,173.471Z"/><path id="ac092c7b-5cf5-4462-8373-7a4b459ad26a" data-name="Path 20018" class="fda83bc1-f0d0-4a18-97f3-6d5db811beba" d="M278.00705,177.259a.47741.47741,0,0,1-.14-.021,16.85917,16.85917,0,0,1-2.14294-.856,6.044,6.044,0,0,0-1.34094-.514c-.634-.064-2.748-.259-3.168-.3a15.588,15.588,0,0,1-2.007.277c-1.6.10595-2.6-.141-3.063-.756a1.36614,1.36614,0,0,1-.275-1.234,2.47079,2.47079,0,0,1,1.427-1.323.482.482,0,0,1,.348.89905c-.24.094-.762.387-.849.692-.01294.04505-.047.166.12.389.449.6,2.752.41394,4.167.1a.47432.47432,0,0,1,.148-.01s2.543.234,3.25.305a6.0239,6.0239,0,0,1,1.644.6,16.10008,16.10008,0,0,0,2.022.811.48055.48055,0,0,1-.14013.94092Z"/><path id="ecb5394c-86ef-4834-86da-70c20816a188" data-name="Path 20019" class="fda83bc1-f0d0-4a18-97f3-6d5db811beba" d="M278.006,177.098a.321.321,0,0,1-.321-.317c0-.34-.016-3.264.98706-4.369a10.47072,10.47072,0,0,1,.621-3.72,4.31916,4.31916,0,0,1,.712-2.04.321.321,0,0,1,.454,0h0a.321.321,0,0,1,0,.454h0a3.9002,3.9002,0,0,0-.533,1.709.32445.32445,0,0,1-.028.1,10.27676,10.27676,0,0,0-.58106,3.621.32116.32116,0,0,1-.105.244c-.76.691-.895,3.115-.883,3.991a.32107.32107,0,0,1-.31592.32605h-.0011Z"/></g><path id="aee4c048-6521-4e87-b9c4-72e54f1867bf" data-name="Path 20020" class="a18e864c-3b9b-4ad9-b956-75a7752b3d4d" d="M265.689,168.604a1.78388,1.78388,0,0,0,.264,1.2l21.17395-.311a27.424,27.424,0,0,0-2.70606-2.953h0l-16.989-.1A2.95517,2.95517,0,0,0,265.689,168.604Z"/></g></g></g><g id="ab5025ef-467a-427b-b13e-115596a1fcdf" data-name="Group 35717"><rect id="b204949f-6133-458e-ae38-8ac4e002b016" data-name="Rectangle 27870" class="fc48d96e-eb6c-4b47-9d23-63d1b575ad93" x="215.064" y="54.219" width="120.427" height="112.23"/><path id="bd8622fc-dfc1-4eda-99aa-629c3f2f2f9e" data-name="Path 20023" class="a3cb19df-07a9-454b-8b73-8bc000050097" d="M335.49,166.931H215.064a.482.482,0,0,1-.482-.48205h0v-112.23a.48194.48194,0,0,1,.48193-.48206H335.49a.482.482,0,0,1,.48206.48193V166.44892a.482.482,0,0,1-.48193.48205Zm-119.945-.963h119.463V54.701H215.55Z"/></g><path id="b6d2db97-b5b2-43f9-b343-c64f2c0ac94f" data-name="Path 20024" class="a18e864c-3b9b-4ad9-b956-75a7752b3d4d" d="M298.116,118.47292a14.28313,14.28313,0,0,0,.068,2.64905,3.518,3.518,0,0,0,2.084,2.74l.84.36,1.012-2.36206-.84-.36a.9209.9209,0,0,1-.551-.729,12.15787,12.15787,0,0,1-.04-2.3"/><g id="e60041e6-7f1a-4d61-b4fe-bc5210278938" data-name="Group 35718"><rect id="a2629030-34e9-45b8-ace2-fd7e9d6992b1" data-name="Rectangle 27871" class="a3cb19df-07a9-454b-8b73-8bc000050097" x="214.996" y="54.218" width="120.494" height="20.975"/><path id="a6e5f422-6d6a-4ddb-ad16-54a5dd221515" data-name="Path 20025" class="a3cb19df-07a9-454b-8b73-8bc000050097" d="M335.98894,75.693H214.497V53.719H335.98894Zm-120.494-1h119.5V54.716h-119.5Z"/></g><g id="a0150196-635a-4ef4-9c06-8e4eb3e11ccc" data-name="Group 35719"><circle id="ed2774dc-cf28-4e26-86b9-05cfb4fbe9a7" data-name="Ellipse 231" class="fc48d96e-eb6c-4b47-9d23-63d1b575ad93" cx="310.58899" cy="64.842" r="2.86"/><circle id="fed155b3-6124-4feb-8d63-f53b107df7c0" data-name="Ellipse 232" class="fc48d96e-eb6c-4b47-9d23-63d1b575ad93" cx="321.69199" cy="64.842" r="2.86"/></g><g id="f6774f8f-6c8f-49ef-8bec-9958613494a0" data-name="Group 35722"><g id="b9cfdbfd-9eb7-4db6-a9d3-b28178ee8fba" data-name="Group 35721"><path id="b100f20a-2bca-45cb-bc71-b0304c2c62fe" data-name="Path 20026" class="a3cb19df-07a9-454b-8b73-8bc000050097" d="M321.863,112.651H298.089a.482.482,0,0,1-.48206-.48193V88.39494a.482.482,0,0,1,.48193-.48206H321.863a.482.482,0,0,1,.48206.48194V112.169a.482.482,0,0,1-.48193.48205Zm-23.292-.964h22.811V88.876H298.571Z"/><path id="b5c17063-8d92-4a48-9205-3dfceb46cb82" data-name="Path 20027" class="a3cb19df-07a9-454b-8b73-8bc000050097" d="M287.05905,112.651H263.284a.482.482,0,0,1-.48206-.48193V88.39494a.482.482,0,0,1,.48193-.48206h23.77515a.482.482,0,0,1,.48206.48194V112.169a.482.482,0,0,1-.48194.48205Zm-23.293-.964h22.811V88.876h-22.811Z"/><path id="be02bbf1-62f9-4ff2-a95a-9413ba63fcdf" data-name="Path 20028" class="a3cb19df-07a9-454b-8b73-8bc000050097" d="M287.05905,153.298H263.284a.482.482,0,0,1-.48206-.48194V129.04191a.482.482,0,0,1,.48193-.48205h23.77515a.482.482,0,0,1,.48206.48193V152.816a.482.482,0,0,1-.48194.48206Zm-23.293-.964h22.811V129.527h-22.811Z"/><path id="ad05a4ae-376e-4954-9286-42dc792f8f62" data-name="Path 20029" class="a3cb19df-07a9-454b-8b73-8bc000050097" d="M252.25491,153.298h-23.774a.482.482,0,0,1-.482-.48206h0v-23.774a.482.482,0,0,1,.48193-.48205h23.774a.48194.48194,0,0,1,.48206.48193V152.816a.482.482,0,0,1-.48194.48206Zm-23.293-.964h22.811V129.527h-22.811Z"/><g id="a6a49168-45af-4f2c-844f-2633547e9c56" data-name="Group 35720"><path id="ac62d27c-4bf4-4e65-87b4-c56ffd9b6e49" data-name="Path 20030" class="a3cb19df-07a9-454b-8b73-8bc000050097" d="M249.71494,109.413a.48151.48151,0,0,1-.34094-.822l8.292-8.292-8.292-8.292a.48156.48156,0,0,1,.681-.681l8.63306,8.63306a.48191.48191,0,0,1,0,.681l-8.63306,8.63306A.48093.48093,0,0,1,249.71494,109.413Z"/><path id="b0456618-864c-4e3f-aca8-4ac5639ae8db" data-name="Path 20031" class="a3cb19df-07a9-454b-8b73-8bc000050097" d="M240.66892,129.01506a.482.482,0,0,1-.48205-.48193V106.464a6.656,6.656,0,0,1,6.648-6.64795h11.426a.48194.48194,0,0,1,.48206.48193v.00012a.482.482,0,0,1-.48193.48206H246.83482a5.691,5.691,0,0,0-5.684,5.684v22.069A.482.482,0,0,1,240.66892,129.01506Z"/></g></g></g><path id="b45e2735-5874-44f3-a896-cdfbf51508f8" data-name="Path 20032" class="a6afaad4-56cb-49c6-a002-ff2975d01e60" d="M344.70905,162.376a21.98552,21.98552,0,0,1-.76-3.278c0-.762-.37-8.01-.385-8.31494l-.68994-21.1c-.462-7.1-3.151-12.661-7.994-16.536-10.93-8.744-29.385-5.957-29.56994-5.929a.15985.15985,0,0,0-.111.073c-.1.161-2.489,3.979-2.23,6.31006a13.67484,13.67484,0,0,1-.245,5.8l-.09094.226c-.56006,1.408-2.266,5.692-3.454,6.88s-2.181,2.35095-1.285,3.544l2.046,2.3a.15784.15784,0,0,0,.136.05c.129,2.009.624,9.548.848,11.118.03.208.056.436.084.679.215,1.87.53894,4.7,3.328,6.09,3.1,1.551,7.788,1.551,9.78894,1.551a.15746.15746,0,0,0,.059-.012,55.23536,55.23536,0,0,1,.1,6.907c-.029,1.03894-.059,2.113-.061,3.172a.17068.17068,0,0,0,0,.037c.02295.1,2.439,9.636,14.39,9.636,11.93006,0,16.047-9.006,16.088-9.1A.15977.15977,0,0,0,344.70905,162.376Z"/><path id="b00eaa17-4303-4356-ae30-8b1c0265915e" data-name="Path 20033" class="fda83bc1-f0d0-4a18-97f3-6d5db811beba" d="M343.59,160.4529a13.70953,13.70953,0,0,0,1.125,4.047l-12.372-.239c-5.447-.826-18.077-.755-18.077-.755.135-1.688.162-4.34.162-4.34a44.05411,44.05411,0,0,1,4.558-.327c8.04394.151,16,2.24694,24.05395,1.054q.462-.06794.9-.141Z"/><path id="bdff0336-2bf5-4933-9961-b8b2c0473211" data-name="Path 20034" class="e4e1b371-4083-4ec5-aa99-77d3b51645a1" d="M171.301,33.838a3,3,0,1,1,3-3A3,3,0,0,1,171.301,33.838Zm0-5.03894a1.73813,1.73813,0,1,0,.001-.005h-.001Z"/><path id="a59aa17e-98e2-40e7-a75c-be3a448df8df" data-name="Path 20035" class="e4e1b371-4083-4ec5-aa99-77d3b51645a1" d="M259.19294,33.838a3,3,0,1,1,3-3A3,3,0,0,1,259.19294,33.838Zm0-5.03894a1.74038,1.74038,0,1,0,.001-.005h-.001Z"/><path id="fe7c3fd0-034b-4464-9967-a413b155849e" data-name="Path 20036" class="e4e1b371-4083-4ec5-aa99-77d3b51645a1" d="M171.301,104.846a3,3,0,1,1,3-3A3.005,3.005,0,0,1,171.301,104.846Zm0-5.04a2.03741,2.03741,0,1,1,0,.0011Z"/><path id="b840422a-84db-4b67-af59-ff23612ea2fd" data-name="Path 20037" class="e4e1b371-4083-4ec5-aa99-77d3b51645a1" d="M363.828,69.69594a3,3,0,1,1,3-3A3,3,0,0,1,363.828,69.69594Zm0-5.04a2.038,2.038,0,1,0,2.038,2.038A2.03991,2.03991,0,0,0,363.828,64.6559Z"/><path id="a2c150b8-c494-464c-83cf-f434a7b22b88" data-name="Path 20038" class="e4e1b371-4083-4ec5-aa99-77d3b51645a1" d="M363.828,118.414a3,3,0,1,1,3-3A3,3,0,0,1,363.828,118.414Zm0-5.03894a2.038,2.038,0,1,0,2.038,2.038A2.03991,2.03991,0,0,0,363.828,113.375Z"/><path id="b105b5b9-0173-421a-a35e-54d3ef43121e" data-name="Path 20039" class="e4e1b371-4083-4ec5-aa99-77d3b51645a1" d="M365.0019,123.21193h-33.152a.482.482,0,0,1-.48206-.48193v-.00012a.482.482,0,0,1,.48194-.48206h33.1521a5.053,5.053,0,0,0,5.047-5.048V81.4999a.482.482,0,0,1,.48194-.48206h.00012a.482.482,0,0,1,.48206.48193v35.70008A6.01808,6.01808,0,0,1,365.0019,123.21193Z"/><path id="b3f5ad9b-5e1b-424d-b419-b49db84b9b5a" data-name="Path 20040" class="e4e1b371-4083-4ec5-aa99-77d3b51645a1" d="M226.344,212.78194a3,3,0,0,1-3-3h0a3,3,0,1,1,3,3Zm0-5.039a2.03851,2.03851,0,1,0,0-.001Z"/><path id="f0b77bf9-47f3-4538-8a51-de8cad9e1de2" data-name="Path 20041" class="e4e1b371-4083-4ec5-aa99-77d3b51645a1" d="M249.00806,212.78194a3,3,0,0,1-3-3h0a3,3,0,1,1,3,3Zm0-5.039a2.03851,2.03851,0,1,0,0-.001Z"/><path id="b2661b1a-eece-4be9-8738-5f7da50bdeb8" data-name="Path 20042" class="e4e1b371-4083-4ec5-aa99-77d3b51645a1" d="M249.228,217.235h-23.3a7.29306,7.29306,0,0,1-7.284-7.28405v-15.717a.482.482,0,0,1,.48193-.48206h.00006a.482.482,0,0,1,.482.48206h0v15.717a6.328,6.328,0,0,0,6.321,6.321h23.3a6.328,6.328,0,0,0,6.321-6.321v-43.5a.482.482,0,0,1,.48194-.48206h.00006a.482.482,0,0,1,.482.48206h0v43.5A7.293,7.293,0,0,1,249.228,217.235Z"/><path id="b37f901e-c51e-442b-98d8-3653f3495a4d" data-name="Path 20043" class="bfb00b90-b55b-450d-9981-39185af0925d" d="M300.181,173.74794s17.207.31006,17.528,26.906,0,47.42395,20.50806,47.42395,23.114,5.56494,23.114,5.56494-2.259-21.629-.066-32.672,5.93005-25.718,5.93005-25.718,2.3-12.447-3.7-16.86194c-1.043-.768-2.221-2.033-3.31494-2.75305a72.137,72.137,0,0,0-10.335-5.582l-43.348,1.468Z"/><path id="ae53696c-aa5a-43be-9c27-2fb1f39a6f24" data-name="Path 20044" class="a18e864c-3b9b-4ad9-b956-75a7752b3d4d" d="M301.295,173.041c1.43.695,3.28406.9,4.807,1.63306a45.9205,45.9205,0,0,1,9.6,6.48206c4.45105,3.767,8.338,8.152,12.835,11.868,5.067,4.187,10.353,7.4,17.11206,6.548,4.849-.61,10.151-3.368,10.33106-8.857.068-2.06006-3.572-3.6-3.551-5.634a23.98073,23.98073,0,0,1,.97205-5.53c.767-3.068,1.02295-5.114.511-7.16,0,0-48.85705-1.953-50.173-1.537A5.90082,5.90082,0,0,0,301.295,173.041Z"/><g id="b8dc4617-900e-4270-8f86-4e669e5bc92f" data-name="Group 35723"><path id="b7716dc1-5128-41ad-9a1c-4cd6bfc24e29" data-name="Path 20045" class="a6afaad4-56cb-49c6-a002-ff2975d01e60" d="M288.967,168.122A18.57279,18.57279,0,0,1,283.55791,164.5a53.62062,53.62062,0,0,0-8.043-6.444c-2.869-1.975-2.25805,4.09205,3.34,7.667a11.03508,11.03508,0,0,1,2.775,2.869c.84705,1.505,1.693,4.092,2.069,4.7"/><path id="be82d4df-e49d-4b4a-957d-f7ec57dd352e" data-name="Path 20046" class="a6afaad4-56cb-49c6-a002-ff2975d01e60" d="M283.425,173.4639a14.28782,14.28782,0,0,1-.719-1.653,27.92526,27.92526,0,0,0-1.35705-3.061,10.77068,10.77068,0,0,0-2.681-2.764c-3.7-2.365-5.245-5.764-5.151-7.41894a1.19988,1.19988,0,0,1,.6-1.121c.286-.141.79395-.195,1.58.347a54.67356,54.67356,0,0,1,8.093,6.486,18.3459,18.3459,0,0,0,5.3,3.548l-.249.592a18.68582,18.68582,0,0,1-5.517-3.7,54.07611,54.07611,0,0,0-7.993-6.4c-.4-.277-.751-.389-.933-.3-.136.067-.223.278-.24.58105-.082,1.45605,1.40906,4.64,4.869,6.85a11.2289,11.2289,0,0,1,2.882,2.983,28.33348,28.33348,0,0,1,1.394,3.139,14.84892,14.84892,0,0,0,.66894,1.554Z"/></g><path id="aa788e66-e8d7-4e6d-9e42-b216d135df6a" data-name="Path 20047" class="fda83bc1-f0d0-4a18-97f3-6d5db811beba" d="M314.153,133.538q-.128,0-.257-.011a4.147,4.147,0,0,1-2.85-1.928.48175.48175,0,0,1,.82605-.496,3.21781,3.21781,0,0,0,2.113,1.465,3.462,3.462,0,0,0,2.736-1.532,5.963,5.963,0,0,0,.57605-.816.48157.48157,0,0,1,.825.49707,6.89146,6.89146,0,0,1-.673.95A4.51518,4.51518,0,0,1,314.153,133.538Z"/><path id="e354f6bf-fa77-4fc7-8eb1-bc5d406b54e5" data-name="Path 20048" class="a18e864c-3b9b-4ad9-b956-75a7752b3d4d" d="M335.321,152.746a14.16145,14.16145,0,0,1-5.774-1.136c-7.116-3.163-11.522-15.129-12.3-20.833a2.50606,2.50606,0,0,1,.04505-.55909c1.746-2.9,3.316-8.991,1.8-11.935a2.97088,2.97088,0,0,0-2.6-1.68006c-2.562-.2-4.088,3.269-5.20605,5.8-.239.542-.465,1.054-.681,1.48706a.48339.48339,0,0,1-.719.172,7.13194,7.13194,0,0,1-2.36206-6.99194,7.30577,7.30577,0,0,0-1.151-6.11207c-.28-.467-.569-.95-.85095-1.516-1.156-2.312-2.467-4.933-.77405-8.6,1.375-2.979,1.26-3.97,1.032-5.94495l-.051-.448a2.84878,2.84878,0,0,1,.927-2.358,6.99979,6.99979,0,0,1,5.231-1.755l.409.047c2.168.25,4.865.561,6.869-1.443,2.64905-2.65,6.20606-2.069,8.651-1.4.764.208,1.494.45495,2.2.693a14.42827,14.42827,0,0,0,6.07605,1.082c4.267-.328,7.262,1.047,8.9,4.088.415.771.719,1.429.988,2.009.891,1.924,1.3,2.8,3.892,3.91394.38794.166.782.323,1.16394.475a9.98424,9.98424,0,0,1,4.276,2.579c1.24,1.477,1.716,3.583,1.5,6.629-.075,1.046-.144,1.939-.2,2.71106-.347,4.471-.36694,4.739.673,7.028,1.255,2.762.291,7.325-2.58106,12.207-.575.978-1.3,2.144-2.062,3.38-2.672,4.316-6,9.688-6.575,12.58105a17.02123,17.02123,0,0,0-.318,2.48,1.288,1.288,0,0,1-.77,1.18994A25.61747,25.61747,0,0,1,335.321,152.746Zm-17.129-22.147a.44045.44045,0,0,1,.009.04895,38.04694,38.04694,0,0,0,3.66,11.03406c1.63306,3.21594,4.361,7.4,8.077,9.048,5.672,2.521,12.65295-.147,14.657-1.025a.32085.32085,0,0,0,.193-.3,17.5937,17.5937,0,0,1,.33606-2.675c.61206-3.062,3.988-8.516,6.7-12.9.762-1.231,1.481-2.39294,2.051-3.361,2.672-4.542,3.64294-8.88,2.534-11.319-1.14294-2.515-1.107-2.98706-.75695-7.5.06-.77.129-1.662.2-2.70495.43-6.02-2.041-7-5.17005-8.244-.38794-.15406-.78894-.313-1.188-.484a6.94825,6.94825,0,0,1-4.386-4.395c-.26294-.568-.561-1.21106-.962-1.957-1.43994-2.674-4.124-3.881-7.978-3.584a15.41408,15.41408,0,0,1-6.458-1.129c-.692-.234-1.407-.475-2.144-.676-3.56494-.972-5.94494-.616-7.715,1.155-2.333,2.333-5.413,1.978-7.661,1.719l-.4-.046a6.03489,6.03489,0,0,0-4.443,1.478,1.89992,1.89992,0,0,0-.651,1.57l.051.444c.233,2.017.37305,3.235-1.115,6.459-1.394,3.021-.6,5.036.76,7.766.267.533.546,1,.817,1.452a8.18191,8.18191,0,0,1,1.273,6.775,6.385,6.385,0,0,0,1.545,5.639c.124-.271.252-.562.384-.86206,1.234-2.8,2.922-6.632,6.16394-6.375a3.965,3.965,0,0,1,3.382,2.2c1.788,3.47327-.14209,9.95728-1.764,12.74927Z"/><path id="e12680cb-e2a0-4bf3-aff2-cda957d67414" data-name="Path 20050" class="fda83bc1-f0d0-4a18-97f3-6d5db811beba" d="M299.824,132.729a.48091.48091,0,0,1-.36-.162l-2.046-2.3-.025-.031c-1.127-1.5.34705-2.978,1.323-3.954,1.141-1.141,2.828-5.37695,3.382-6.769l.09094-.229a13.61066,13.61066,0,0,0,.224-5.649c-.271-2.441,2.173-6.351,2.277-6.516a.48111.48111,0,0,1,.66345-.1504l.00049.00037a.482.482,0,0,1,.151.66394c-.02405.037-2.369,3.79-2.135,5.9.175,1.577.371,4.468-.287,6.114l-.09094.228c-.994,2.5-2.447,5.946-3.6,7.094-1.379,1.38-1.7,2.06006-1.245,2.68005l2.031,2.285a.47445.47445,0,0,1-.35388.795Z"/><path id="bf442480-44b0-4691-9705-1ea51abd7879" data-name="Path 20051" class="fda83bc1-f0d0-4a18-97f3-6d5db811beba" d="M313.8891,152.16506c-2.024,0-6.762,0-9.933-1.585-2.94494-1.472-3.281-4.4-3.5-6.342-.02795-.24-.053-.465-.083-.67005-.115-.8-.34-3.64795-.66894-8.44995a.48213.48213,0,0,1,.96191-.06726l.00012.00232c.323,4.712.551,7.609.661,8.38.03.213.057.446.08605.7.21106,1.83606.5,4.35095,2.97706,5.59,2.967,1.484,7.546,1.484,9.5,1.484a.482.482,0,0,1,.48205.48193v.00013A.482.482,0,0,1,313.8891,152.16506Z"/><path id="b380ad70-0456-4124-92d9-05900eb97f26" data-name="Path 20052" class="fda83bc1-f0d0-4a18-97f3-6d5db811beba" d="M300.18207,135.565a.482.482,0,0,1-.48-.449c-.2-2.892-.358-5.4-.358-5.4a.481.481,0,0,1,.4491-.511h.00085a.481.481,0,0,1,.51184.448l.00012.002s.16,2.5.358,5.391a.482.482,0,0,1-.44776.514H300.216Z"/><g id="b7a17dcf-773f-4d98-aa3a-5ffa772248fb" data-name="Group 35724"><path id="b7713374-6670-49a8-860a-7301efea906d" data-name="Path 20053" class="a5c21e34-eb69-42ed-8cb5-a30ce1cc8e2f" d="M354.6619,164.779c.5.375,2.50806,1.989,2.95606,3.779.511,2.046.256,4.09205-.511,7.16a23.97433,23.97433,0,0,0-.972,5.53c-.021,2.038.46595,4.06006.4,6.119-.12695,3.861-1.709,7.1-5.54895,8.33606-4.53406,1.457-9.375-.339-13.287-2.637-8.282-4.864-14.715-12.327-23.184-16.969-2.666-1.46106-10.135-6.74-12.641-2.937,0,0,.256-1.27906,2.3-3.58a31.35148,31.35148,0,0,1,6.259-5.741c2.708-1.741,5.38794-2.021,8.556-1.96106,8.04395.151,16,2.24695,24.05506,1.054q.69286-.1,1.331-.215l-.052-.30005a21.91688,21.91688,0,0,1-.767-3.324c0-.394-.1-2.574-.2-4.6,4,.287,9.025.181,11.834,3.6a4.72616,4.72616,0,0,1,1.135,3.5,5.217,5.217,0,0,1-1.45105,2.9"/><path id="ead52860-5235-4468-88cb-218b7babf8b2" data-name="Path 20054" class="bfb00b90-b55b-450d-9981-39185af0925d" d="M347.538,196.391a19.97019,19.97019,0,0,1-9.922-3.18506,86.96624,86.96624,0,0,1-11.058-8.183,79.72568,79.72568,0,0,0-12.122-8.78406c-.361-.2-.805-.463-1.319-.77-3.155-1.881-9.026-5.382-11.111-2.22a.16533.16533,0,0,1-.29993-.12c.011-.054.288-1.348,2.339-3.655a31.61492,31.61492,0,0,1,6.292-5.77c2.7-1.733,5.4-2.047,8.646-1.98706,3,.056,6.033.387,8.96594.707,4.928.538,10.025,1.095,15.062.348.4-.059.793-.12195,1.168-.187l-.024-.137a21.2196,21.2196,0,0,1-.77-3.352c0-.317-.069-1.906-.2-4.6a.16.16,0,0,1,.172-.16809c.441.032.895.058,1.356.08606,3.772.224,8.047.477,10.59,3.572a4.86469,4.86469,0,0,1,1.17005,3.62,5.36539,5.36539,0,0,1-1.493,2.989.16012.16012,0,0,1-.22608.01l-.001-.001a.16092.16092,0,0,1-.009-.227,5.05309,5.05309,0,0,0,1.41-2.81006,4.54432,4.54432,0,0,0-1.1-3.376c-2.45495-2.98706-6.655-3.236-10.361-3.45495-.4-.024-.795-.047-1.18-.073.12695,2.621.192,4.111.192,4.43a22.01537,22.01537,0,0,0,.76,3.278l.057.314a.16247.16247,0,0,1-.127.186c-.425.075-.875.148-1.335.21594-5.079.75195-10.2.194-15.144-.347-2.926-.319-5.95105-.65-8.937-.70605-3.271-.062-5.83.241-8.46594,1.936a31.32518,31.32518,0,0,0-6.225,5.713,13.36681,13.36681,0,0,0-1.923,2.676c2.6-2.126,7.932,1.054,10.91,2.83.511.30505.953.568,1.309.764a79.93828,79.93828,0,0,1,12.172,8.818,86.70924,86.70924,0,0,0,11.016,8.153c5,2.938,9.429,3.82,13.156,2.62195,4.317-1.387,5.34-5.219,5.437-8.189a22.6492,22.6492,0,0,0-.2-3.18506,24.8359,24.8359,0,0,1-.2-2.93,22.17921,22.17921,0,0,1,.871-5.149l.1-.418c.723-2.89,1.038-4.976.511-7.082-.439-1.75806-2.49-3.382-2.9-3.68994a.16058.16058,0,1,1,.194-.256c.592.448,2.561,2.052,3.015,3.868.543,2.172.223,4.3-.511,7.238l-.105.41895a21.93669,21.93669,0,0,0-.86206,5.074,24.6126,24.6126,0,0,0,.2,2.892,22.9307,22.9307,0,0,1,.19995,3.231c-.145,4.407-2.1,7.34094-5.66,8.484A11.35522,11.35522,0,0,1,347.538,196.391Z"/></g><path id="b567839d-5fbf-43ee-8c58-527a5306ad0c" data-name="Path 20055" class="a18e864c-3b9b-4ad9-b956-75a7752b3d4d" d="M343.352,154.49392s5.387-.463,9.1,1.62805c3.535,1.99-3.235,6.437-7.75305,6.364l-1.35-2.726Z"/><path id="b8f24eb4-8d31-45b9-a0bd-7bab0dd8088c" data-name="Path 20056" class="fda83bc1-f0d0-4a18-97f3-6d5db811beba" d="M314.145,162.392h0a.482.482,0,0,1-.481-.483c0-1.064.032-2.14.062-3.181.111-3.988.21594-7.755-1.059-11.495a.48182.48182,0,0,1,.91211-.31091c1.33105,3.9,1.218,7.934,1.109,11.832-.02906,1.035-.059,2.1-.061,3.156a.482.482,0,0,1-.48205.48194Z"/><path id="a93d571a-e3da-4ee4-8fca-214d53a9062d" data-name="Path 20057" class="bfb00b90-b55b-450d-9981-39185af0925d" d="M301.86994,173.641a.46639.46639,0,0,1-.1-.01.479.479,0,0,1-.373-.563c.012-.058.306-1.434,2.41394-3.806a31.87919,31.87919,0,0,1,6.358-5.827,12.13634,12.13634,0,0,1,4.161-1.7.48211.48211,0,0,1,.57.37391v.00012a.481.481,0,0,1-.37171.5697l-.00134.00024a11.19337,11.19337,0,0,0-3.83606,1.568,31.04837,31.04837,0,0,0-6.15906,5.656,9.169,9.169,0,0,0-2.18994,3.359A.48509.48509,0,0,1,301.86994,173.641Z"/><path id="b98d5783-17fe-423b-a8b6-27378fd9ae49" data-name="Path 20058" class="bfb00b90-b55b-450d-9981-39185af0925d" d="M361.27094,254.223a.482.482,0,0,1-.475-.406,103.246,103.246,0,0,1,0-32.92395c.738-4.543,1.92-9.057,3.062-13.422,1.05-4.011,2.136-8.15906,2.869-12.3a26.06211,26.06211,0,0,0,.413-7.938,16.95915,16.95915,0,0,0-9.813-12.81006.48182.48182,0,0,1,.36707-.891,17.97794,17.97794,0,0,1,10.4,13.58,26.96378,26.96378,0,0,1-.42,8.227c-.74,4.182-1.83106,8.349-2.885,12.379-1.137,4.343-2.312,8.834-3.043,13.332a102.28337,102.28337,0,0,0,.005,32.61694.482.482,0,0,1-.3999.552H361.351A.48716.48716,0,0,1,361.27094,254.223Z"/><path id="fc435749-2ecb-459f-b315-793ffb068430" data-name="Path 20059" class="bfb00b90-b55b-450d-9981-39185af0925d" d="M347.53693,196.71206a20.2841,20.2841,0,0,1-10.085-3.229,87.215,87.215,0,0,1-11.1-8.212,79.4836,79.4836,0,0,0-12.072-8.75c-.36694-.2-.813-.46705-1.32995-.775-3.062-1.82605-8.762-5.225-10.678-2.319a.48148.48148,0,0,1-.804-.53c2.423-3.675,8.637.031,11.976,2.022.509.3.948.565,1.30005.75806a80.18769,80.18769,0,0,1,12.222,8.852,86.48678,86.48678,0,0,0,10.975,8.124c4.92,2.89,9.259,3.762,12.895,2.594,4.139-1.33,5.12-5.027,5.215-7.894a22.43291,22.43291,0,0,0-.194-3.14,25.05826,25.05826,0,0,1-.2-2.968,22.43063,22.43063,0,0,1,.881-5.224l.1-.418c.71-2.84095,1.022-4.885.511-6.926-.413-1.653-2.38793-3.215-2.779-3.511a.48223.48223,0,0,1,.582-.769c.614.464,2.653,2.129,3.132,4.046.559,2.23706.236,4.4-.511,7.39405l-.105.42a21.70933,21.70933,0,0,0-.852,5,24.07552,24.07552,0,0,0,.2,2.854,23.20175,23.20175,0,0,1,.2,3.276c-.15,4.55506-2.184,7.59095-5.88306,8.77906A11.67849,11.67849,0,0,1,347.53693,196.71206Z"/><path id="bd691ca6-f1e3-4281-b67b-2c0559f8cb3c" data-name="Path 20060" class="bfb00b90-b55b-450d-9981-39185af0925d" d="M338.80207,170.349a35.05276,35.05276,0,0,1-8.552-1.458l-.171-.045c-.98706-.26-1.985-.55506-3.042-.869-5.228-1.54895-11.155-3.30506-15.96-.29a.48162.48162,0,0,1-.512-.81592c5.17395-3.24695,11.322-1.425,16.746.182,1.05.311,2.041.6,3.01294.86l.171.04505c3.642.958,9.73706,2.562,13.03406.207a.48174.48174,0,1,1,.55994.78406A8.99973,8.99973,0,0,1,338.80207,170.349Z"/><path id="b5013a52-262f-4fe7-9a3d-ed388902bcad" data-name="Path 20061" class="bfb00b90-b55b-450d-9981-39185af0925d" d="M336.216,179.97194a16.98586,16.98586,0,0,1-4.6-.663,44.28584,44.28584,0,0,1-10.16-4.84c-1.235-.724-2.51294-1.472-3.782-2.15-2.126-1.136-4.376-2.18994-6.443-1.535a.47882.47882,0,0,1-.286-.91394c2.426-.76794,4.881.371,7.189,1.6,1.286.687,2.571,1.43994,3.81494,2.168a43.56843,43.56843,0,0,0,9.934,4.745,13.23662,13.23662,0,0,0,9.16394-.37695.48177.48177,0,1,1,.41.87195A12.27271,12.27271,0,0,1,336.216,179.97194Z"/><path id="ab93d06a-bb3b-4245-87e6-41db0e9fb1a0" data-name="Path 20062" class="a18e864c-3b9b-4ad9-b956-75a7752b3d4d" d="M357.148,118.81594c-1.058-2.327-1.037-2.6-.687-7.108.06006-.771.13-1.66394.2-2.71.47094-6.60705-2.514-7.792-5.7-9.056-.379-.15-.76294-.3-1.147-.468-2.65-1.136-3.093-2.091-3.974-3.994-.267-.578-.571-1.233-.984-2-1.606-2.981-4.547-4.325-8.746-4a14.576,14.576,0,0,1-6.149-1.093c-.7-.236-1.42395-.48-2.18-.687-2.406-.655-5.9-1.228-8.495,1.361-2.059,2.06006-4.8,1.743-7,1.489l-.407-.047a6.813,6.813,0,0,0-5.1,1.708,2.69423,2.69423,0,0,0-.881,2.22706l.051.449c.224,1.941.347,3.01-1.047,6.029-1.541,3.34-.652,5.614.772,8.462.281.562.568,1.042.84594,1.505a7.44023,7.44023,0,0,1,1.171,6.223,7.056,7.056,0,0,0,2.3,6.83606.32238.32238,0,0,0,.478-.116c.217-.434.45105-.96594.687-1.5,1.13306-2.569,2.688-6.083,5.35706-5.879a3.15789,3.15789,0,0,1,2.72705,1.76c1.557,3.01294.01,9.059-1.785,12.067a2.208,2.208,0,0,1-.047.48706c.773,5.672,5.148,17.571,12.20605,20.708a13.99033,13.99033,0,0,0,5.712,1.123,25.37568,25.37568,0,0,0,9.593-2.147,1.12785,1.12785,0,0,0,.67395-1.042,17.08006,17.08006,0,0,1,.321-2.51294c.584-2.92005,3.917-8.3,6.609-12.654.759-1.226,1.476-2.385,2.047-3.356C357.42,126.039,358.382,121.5309,357.148,118.81594Z"/><path id="e6616535-be76-45dd-827b-ac9f1723f189" data-name="Path 20063" class="fc48d96e-eb6c-4b47-9d23-63d1b575ad93" d="M313.931,117.219c-3.147-.87195-10.336-2.833-14.209-3.126a.48185.48185,0,0,1,.07129-.96106l.00171.00012c4.144.314,11.884,2.462,14.80005,3.271l.425.118.583.162a3.18153,3.18153,0,0,0-1.214.683Z"/><path id="e3fd7af1-ed87-42b3-8df1-ae1f7576d991" data-name="Path 20064" class="bfb00b90-b55b-450d-9981-39185af0925d" d="M350.201,168.018a.48216.48216,0,0,1-.19506-.923c3.615-1.594,5.578-3.465,5.837-5.562a4.223,4.223,0,0,0-1.029-3.13306c-2.365-2.87805-6.491-3.12305-10.132-3.338-.464-.028-.921-.054-1.365-.08606a.48177.48177,0,0,1,.06738-.96118l.00159.00012c.43994.032.892.058,1.353.08606,3.837.227,8.187.485,10.819,3.688a5.187,5.187,0,0,1,1.241,3.863c-.3,2.457-2.457,4.58606-6.4,6.32605A.47965.47965,0,0,1,350.201,168.018Z"/><path id="b7349285-ad0a-4e18-ad6d-b9e669b55f0a" data-name="Path 20065" class="fc48d96e-eb6c-4b47-9d23-63d1b575ad93" d="M286.11493,65.70693h-60.3a.482.482,0,0,1-.482-.48206h0a.482.482,0,0,1,.48194-.48205h60.3a.482.482,0,0,1,.48206.48193v.00012a.482.482,0,0,1-.48193.48206Z"/><path id="b7904104-6404-4c6e-9782-83f16cab02f5" data-name="Path 20066" class="a18e864c-3b9b-4ad9-b956-75a7752b3d4d" d="M300.689,118.476c.038-.618.108-1.288.209-1.98706a79.17725,79.17725,0,0,1,11.563,2.472l.473.16a7.31829,7.31829,0,0,1,1.95495-2.132l-1.222-.353a81.0174,81.0174,0,0,0-12.938-2.744,2.16193,2.16193,0,0,0-2.311,1.812,27.66741,27.66741,0,0,0-.3,2.772"/><path id="e8bce645-b139-4988-99ea-59d8a5f2d7f7" data-name="Path 20067" class="fda83bc1-f0d0-4a18-97f3-6d5db811beba" d="M343.858,162.56008a20.859,20.859,0,0,1-.788-3.463c0-.746-.349-7.55395-.35205-7.63l.863-.317c.016.308.452,7.176.452,7.947a19.92751,19.92751,0,0,0,.74694,3.186Z"/><path id="b7e16bda-823b-4232-b5fc-87187c2b9741" data-name="Path 20068" class="bfb00b90-b55b-450d-9981-39185af0925d" d="M337.749,163.778a90.98329,90.98329,0,0,1-9.864-.714c-2.91894-.319-5.937-.64795-8.908-.69995a19.776,19.776,0,0,0-4.45.317.48208.48208,0,0,1-.56994-.3739V162.307a.48209.48209,0,0,1,.3739-.57h.00012a20.655,20.655,0,0,1,4.665-.338c3.014.057,6.05505.389,8.995.71,4.908.536,9.983,1.09,14.98.35,4.483-.66394,7.385-1.681,8.625-3.023a.48194.48194,0,1,1,.708.65406c-1.413,1.528-4.42,2.615-9.192,3.322A36.51284,36.51284,0,0,1,337.749,163.778Z"/><path id="ecf2e3f4-c732-4485-be0f-9936ca46d822" data-name="Path 20070" class="bfb00b90-b55b-450d-9981-39185af0925d" d="M261.43305,250.079a.48145.48145,0,0,1-.38892-.765c8.9-12.244,13.72705-26.568,18.679-42.668.418-1.361.827-2.751,1.223-4.1a109.27069,109.27069,0,0,1,4.423-12.99,45.83814,45.83814,0,0,1,5.25-9.37805,20.784,20.784,0,0,1,11.121-7.46594.48186.48186,0,0,1,.59985.32373l.00012.00024a.48186.48186,0,0,1-.32373.59985l-.00024.00013a19.853,19.853,0,0,0-10.627,7.12194,44.92193,44.92193,0,0,0-5.137,9.18506,108.52473,108.52473,0,0,0-4.381,12.875c-.4,1.34705-.806,2.741-1.22595,4.10706-4.97705,16.184-9.829,30.587-18.82105,42.952A.48122.48122,0,0,1,261.43305,250.079Z"/><path id="ff9550c2-866d-4cd8-a4b9-0db7e618168b" data-name="Path 20071" class="bfb00b90-b55b-450d-9981-39185af0925d" d="M288.82807,259.56411a.48132.48132,0,0,1-.423-.71094l.16894-.31006c4.594-8.471,9.345-17.23,12.85-26.4a140.60066,140.60066,0,0,0,7.594-28.624c1.09094-7.04394.666-12.29394-1.377-17.022-1.752-4.054-5.2-7.163-8.79505-7.92a8.235,8.235,0,0,0-7.516,2.253.48191.48191,0,0,1-.655-.707,9.16206,9.16206,0,0,1,8.369-2.489c3.887.82,7.608,4.149,9.48,8.481,2.74695,6.356,2.14,13.061,1.44495,17.551a141.58324,141.58324,0,0,1-7.646,28.821c-3.528,9.233-8.29394,18.021-12.9,26.519l-.168.31006A.48187.48187,0,0,1,288.82807,259.56411Z"/></g><g id="b6c7e26a-ec0b-4676-a916-c326b5318e5e" data-name="Group 35727"><rect id="aea3a977-d22e-48b8-8cdc-7884d3b93679" data-name="Rectangle 27872" class="a75853c7-1c2f-4008-b561-7f959b921fac" x="152.45499" y="52.954" width="22.137" height="18.21"/><g id="b9e6fbd1-b6fc-44cb-9b46-3291fa719866" data-name="Group 35726"><path id="b3dbd627-4787-4244-ae8f-73cfe32f4334" data-name="Path 20072" class="e4e1b371-4083-4ec5-aa99-77d3b51645a1" d="M165.492,64.23506h-2.971a.482.482,0,0,1-.482-.48205h0a.482.482,0,0,1,.48193-.48206H165.492a.482.482,0,0,1,.482.48206h0a.482.482,0,0,1-.48194.48205Z"/><path id="b80a598b-83e1-4ca9-b8f2-659968756c16" data-name="Path 20073" class="e4e1b371-4083-4ec5-aa99-77d3b51645a1" d="M159.849,64.23506h-2.255a.482.482,0,0,1-.482-.48205h0a.482.482,0,0,1,.48193-.48206H159.847a.482.482,0,0,1,.482.48206h0A.482.482,0,0,1,159.849,64.23506Z"/><path id="b93ef2f3-2fde-4c79-ad35-fc9ed45af372" data-name="Path 20074" class="e4e1b371-4083-4ec5-aa99-77d3b51645a1" d="M167.7,60.873h-3.492a.482.482,0,0,1-.482-.48206h0a.482.482,0,0,1,.48194-.48205h3.493a.482.482,0,0,1,.482.48205h0a.481.481,0,0,1-.47992.48206Z"/><path id="a40de56f-ac52-49b7-826e-5fc76fd64cb6" data-name="Path 20075" class="e4e1b371-4083-4ec5-aa99-77d3b51645a1" d="M162.136,60.873h-4.542a.482.482,0,0,1-.482-.48206h0a.482.482,0,0,1,.48193-.48205h4.54a.482.482,0,0,1,.482.48205h0A.482.482,0,0,1,162.136,60.873Z"/><path id="b4cec4cd-73fd-4de9-821a-200bd21b3d23" data-name="Path 20076" class="e4e1b371-4083-4ec5-aa99-77d3b51645a1" d="M171.224,67.567h-2.583a.482.482,0,0,1-.482-.48206h0a.48194.48194,0,0,1,.48193-.482H171.224a.482.482,0,0,1,.482.482h0a.482.482,0,0,1-.48193.48206Z"/><path id="b2a0171f-c14d-436e-86de-132915bafade" data-name="Path 20077" class="e4e1b371-4083-4ec5-aa99-77d3b51645a1" d="M165.968,67.567h-8.374a.482.482,0,0,1-.482-.48206h0a.482.482,0,0,1,.48193-.482H165.966a.482.482,0,0,1,.482.482h0A.482.482,0,0,1,165.968,67.567Z"/><path id="a8813511-e7a0-4157-b19d-3fb21d79b747" data-name="Path 20078" class="e4e1b371-4083-4ec5-aa99-77d3b51645a1" d="M171.329,57.513h-4.347a.482.482,0,0,1-.482-.48206h0a.482.482,0,0,1,.48193-.48206H171.33a.482.482,0,0,1,.482.48206h0a.482.482,0,0,1-.48193.48206Z"/><path id="e9dd2b49-7120-4396-b02e-a9c0c2d7b17a" data-name="Path 20079" class="e4e1b371-4083-4ec5-aa99-77d3b51645a1" d="M164.954,57.513h-7.36a.482.482,0,0,1-.482-.48206h0a.482.482,0,0,1,.48193-.48206h7.358a.482.482,0,0,1,.482.48206h0A.482.482,0,0,1,164.954,57.513Z"/><path id="be3f7bfe-b3b0-4b24-91d0-6dcba48fb3aa" data-name="Path 20080" class="e4e1b371-4083-4ec5-aa99-77d3b51645a1" d="M155.579,67.556a.482.482,0,0,1-.482-.48205h0V57.103a.482.482,0,0,1,.48194-.48205h.00006a.482.482,0,0,1,.482.48205h0v9.971a.482.482,0,0,1-.48193.48205Z"/></g></g><g id="eca3c5b8-2ede-4471-9b2d-8b911e9e6dbf" data-name="Group 35729"><rect id="b663893f-423f-402e-a674-843f8bd8bba0" data-name="Rectangle 27873" class="a75853c7-1c2f-4008-b561-7f959b921fac" x="359.4" y="81.389" width="22.137" height="18.21"/><g id="a2b8d1e7-bc20-4fa9-981a-bb179f6258e2" data-name="Group 35728"><path id="fbb99a95-c61e-4ba0-81dc-f046691eb474" data-name="Path 20081" class="e4e1b371-4083-4ec5-aa99-77d3b51645a1" d="M372.437,92.67006h-2.971a.482.482,0,0,1-.48205-.48193V92.188a.482.482,0,0,1,.48193-.48206H372.437a.482.482,0,0,1,.48206.48193V92.188a.482.482,0,0,1-.48194.48205Z"/><path id="ab81b72d-fa34-41fd-addf-7b50bc98b552" data-name="Path 20082" class="e4e1b371-4083-4ec5-aa99-77d3b51645a1" d="M366.794,92.67006h-2.253a.482.482,0,0,1-.48205-.48193V92.188a.482.482,0,0,1,.48193-.48206H366.794a.482.482,0,0,1,.48206.48193V92.188a.482.482,0,0,1-.48193.48205Z"/><path id="fbb32d0d-66b9-4c89-8036-9ac06b0c09c9" data-name="Path 20083" class="e4e1b371-4083-4ec5-aa99-77d3b51645a1" d="M374.645,89.309h-3.493a.482.482,0,0,1-.48206-.48194v-.00012a.481.481,0,0,1,.48-.48205H374.645a.481.481,0,0,1,.482.48v.00207a.48194.48194,0,0,1-.48193.48206Z"/><path id="e6531814-a396-41fc-8b31-98ff77033abd" data-name="Path 20084" class="e4e1b371-4083-4ec5-aa99-77d3b51645a1" d="M369.08094,89.309h-4.54a.482.482,0,0,1-.48205-.48194v-.00012a.482.482,0,0,1,.48193-.48205h4.54016a.482.482,0,0,1,.48206.48193v.00012a.482.482,0,0,1-.48194.48206Z"/><path id="e81d8fb1-90b0-4427-aac2-82ceb63b5b03" data-name="Path 20085" class="e4e1b371-4083-4ec5-aa99-77d3b51645a1" d="M378.168,96.001H375.58a.48194.48194,0,0,1-.48206-.48193v-.00012a.482.482,0,0,1,.48193-.48206H378.163a.482.482,0,0,1,.48206.48194v.00012A.482.482,0,0,1,378.168,96.001Z"/><path id="f8912793-5505-4d5f-9aeb-5f791ef66adb" data-name="Path 20086" class="e4e1b371-4083-4ec5-aa99-77d3b51645a1" d="M372.913,96.001H364.541a.48194.48194,0,0,1-.48205-.48193v-.00012a.482.482,0,0,1,.48193-.48206H372.913a.482.482,0,0,1,.48206.48194v.00012a.482.482,0,0,1-.48193.48205Z"/><path id="a599351a-c631-418e-ad56-057aff619d3c" data-name="Path 20087" class="e4e1b371-4083-4ec5-aa99-77d3b51645a1" d="M378.27394,85.949h-4.348a.482.482,0,0,1-.48205-.48193v-.00012a.482.482,0,0,1,.48193-.48206h4.34815a.482.482,0,0,1,.48205.48194v.00012a.482.482,0,0,1-.48193.48205Z"/><path id="ea218ae8-a2b4-4987-8de4-12339ac7d9c8" data-name="Path 20088" class="e4e1b371-4083-4ec5-aa99-77d3b51645a1" d="M371.89894,85.949h-7.358a.482.482,0,0,1-.48205-.48193v-.00012a.482.482,0,0,1,.48193-.48206h7.35816a.482.482,0,0,1,.48205.48194v.00012a.482.482,0,0,1-.48193.48205Z"/><path id="b5f3e022-faba-4996-8ae7-341c29067e73" data-name="Path 20089" class="e4e1b371-4083-4ec5-aa99-77d3b51645a1" d="M362.52394,95.99611a.482.482,0,0,1-.48206-.48193V85.54311a.482.482,0,0,1,.48193-.48206h.00013a.482.482,0,0,1,.48205.48194v9.97107a.482.482,0,0,1-.48193.48205Z"/></g></g></g></g></g></g></svg>