<svg id="a44051fe-105d-46f6-aacd-53747d564661" data-name="Layer 1" xmlns="http://www.w3.org/2000/svg" xmlns:xlink="http://www.w3.org/1999/xlink" width="555" height="250" viewBox="0 0 555 250"><defs><style>.aec8064d-2a6c-4b84-8f79-eddd2d7091d9{fill:none;}.f19670d3-fe56-4b6c-94d1-4a82ef55c656{fill:#fc0000;}.bc86aa66-3e22-41a6-b8a9-9b656a5766a7{fill:#fff;}.e7e2aa20-9ef3-47e1-a763-fdedc797497c{fill:url(#b637d154-549b-4292-b1db-4d52fe69ace8);}</style><pattern id="b637d154-549b-4292-b1db-4d52fe69ace8" data-name="10 dpi 20%" width="28.7998" height="28.8008" patternTransform="translate(348.1954 362.73858) scale(0.70045)" patternUnits="userSpaceOnUse" viewBox="0 0 28.8 28.801"><rect class="aec8064d-2a6c-4b84-8f79-eddd2d7091d9" width="28.7998" height="28.8008"/><path class="f19670d3-fe56-4b6c-94d1-4a82ef55c656" d="M28.79956,30.24037a1.43946,1.43946,0,1,0-1.4404-1.43945A1.43953,1.43953,0,0,0,28.79956,30.24037Z"/><path class="f19670d3-fe56-4b6c-94d1-4a82ef55c656" d="M14.39916,30.24037a1.43946,1.43946,0,1,0-1.4394-1.43945A1.44038,1.44038,0,0,0,14.39916,30.24037Z"/><path class="f19670d3-fe56-4b6c-94d1-4a82ef55c656" d="M28.79956,15.842a1.44045,1.44045,0,1,0-1.4404-1.4414A1.4412,1.4412,0,0,0,28.79956,15.842Z"/><path class="f19670d3-fe56-4b6c-94d1-4a82ef55c656" d="M14.39916,15.842a1.44045,1.44045,0,1,0-1.4394-1.4414A1.44206,1.44206,0,0,0,14.39916,15.842Z"/><path class="f19670d3-fe56-4b6c-94d1-4a82ef55c656" d="M7.199,23.04115A1.44044,1.44044,0,1,0,5.75956,21.6017,1.44039,1.44039,0,0,0,7.199,23.04115Z"/><path class="f19670d3-fe56-4b6c-94d1-4a82ef55c656" d="M21.59936,23.04115A1.44044,1.44044,0,1,0,20.159,21.6017,1.44038,1.44038,0,0,0,21.59936,23.04115Z"/><path class="f19670d3-fe56-4b6c-94d1-4a82ef55c656" d="M7.199,8.64077a1.44045,1.44045,0,1,0-1.43945-1.4395A1.44038,1.44038,0,0,0,7.199,8.64077Z"/><path class="f19670d3-fe56-4b6c-94d1-4a82ef55c656" d="M21.59936,8.64077a1.44045,1.44045,0,1,0-1.4404-1.4395A1.44037,1.44037,0,0,0,21.59936,8.64077Z"/><path class="f19670d3-fe56-4b6c-94d1-4a82ef55c656" d="M-.00024,30.24037a1.43953,1.43953,0,0,0,1.4395-1.43945,1.43953,1.43953,0,0,0-1.4395-1.43946,1.43972,1.43972,0,0,0-1.4404,1.43946A1.43972,1.43972,0,0,0-.00024,30.24037Z"/><path class="f19670d3-fe56-4b6c-94d1-4a82ef55c656" d="M-.00024,15.842a1.4412,1.4412,0,0,0,1.4395-1.4414,1.43952,1.43952,0,0,0-1.4395-1.4395,1.43971,1.43971,0,0,0-1.4404,1.4395A1.4414,1.4414,0,0,0-.00024,15.842Z"/><path class="f19670d3-fe56-4b6c-94d1-4a82ef55c656" d="M28.79956,1.43957A1.43953,1.43953,0,0,0,30.23906.00012a1.43953,1.43953,0,0,0-1.4395-1.43946A1.43972,1.43972,0,0,0,27.35916.00012,1.43972,1.43972,0,0,0,28.79956,1.43957Z"/><path class="f19670d3-fe56-4b6c-94d1-4a82ef55c656" d="M14.39916,1.43957A1.44038,1.44038,0,0,0,15.83966.00012a1.44038,1.44038,0,0,0-1.4405-1.43946A1.43887,1.43887,0,0,0,12.95976.00012,1.43887,1.43887,0,0,0,14.39916,1.43957Z"/><path class="f19670d3-fe56-4b6c-94d1-4a82ef55c656" d="M-.00024,1.43957A1.43953,1.43953,0,0,0,1.43926.00012,1.43953,1.43953,0,0,0-.00024-1.43934,1.43972,1.43972,0,0,0-1.44064.00012,1.43972,1.43972,0,0,0-.00024,1.43957Z"/></pattern></defs><rect class="f19670d3-fe56-4b6c-94d1-4a82ef55c656" x="225.08701" y="75.35289" width="125.49121" height="111.84193"/><path class="f19670d3-fe56-4b6c-94d1-4a82ef55c656" d="M225.087,211.45737H191.294A13.80959,13.80959,0,0,1,177.5,197.66341v-80.8791a13.80959,13.80959,0,0,1,13.79395-13.794H348.97139a.83724.83724,0,1,1,0,1.67448H191.294a12.13316,12.13316,0,0,0-12.11947,12.11948v80.8791A12.13316,12.13316,0,0,0,191.294,209.78289h33.793a.83724.83724,0,0,1,0,1.67448Z"/><path class="f19670d3-fe56-4b6c-94d1-4a82ef55c656" d="M328.8428,211.45737H287.83259a.83724.83724,0,0,1,0-1.67448H328.8428a.83724.83724,0,1,1,0,1.67448Z"/><rect class="bc86aa66-3e22-41a6-b8a9-9b656a5766a7" x="214.75439" y="65.02027" width="125.49121" height="111.84193"/><path class="f19670d3-fe56-4b6c-94d1-4a82ef55c656" d="M340.2456,177.69943H214.7544a.83726.83726,0,0,1-.83724-.83724V65.0203a.83726.83726,0,0,1,.83724-.83724H340.2456a.83726.83726,0,0,1,.83724.83724V176.86219A.83726.83726,0,0,1,340.2456,177.69943Zm-124.654-1.67448H339.40836V65.85754H215.59164Z"/><polygon class="e7e2aa20-9ef3-47e1-a763-fdedc797497c" points="340.246 176.862 225.087 174.872 335.713 65.02 340.246 65.02 340.246 176.862"/><path class="f19670d3-fe56-4b6c-94d1-4a82ef55c656" d="M190.50237,122.34754a6.48312,6.48312,0,1,1,6.48312-6.48317A6.4905,6.4905,0,0,1,190.50237,122.34754Zm0-11.29176a4.80865,4.80865,0,1,0,4.80864,4.80859A4.81409,4.81409,0,0,0,190.50237,111.05578Z"/><path class="f19670d3-fe56-4b6c-94d1-4a82ef55c656" d="M190.46268,205.49243a6.48318,6.48318,0,1,1,6.48318-6.48317A6.4905,6.4905,0,0,1,190.46268,205.49243Zm0-11.29187a4.8087,4.8087,0,1,0,4.8087,4.8087A4.81412,4.81412,0,0,0,190.46268,194.20056Z"/><path class="f19670d3-fe56-4b6c-94d1-4a82ef55c656" d="M272.8,40.217H236.37886a.83724.83724,0,0,1,0-1.67447H272.8a.83724.83724,0,1,1,0,1.67447Z"/><path class="f19670d3-fe56-4b6c-94d1-4a82ef55c656" d="M363.70605,104.66483H347.33534a.83724.83724,0,0,1,0-1.67448h16.37071A12.13309,12.13309,0,0,0,375.82552,90.871V52.33647A12.13313,12.13313,0,0,0,363.70605,40.217H332.82229a.83724.83724,0,0,1,0-1.67447h30.88376A13.80955,13.80955,0,0,1,377.5,52.33647V90.871A13.80952,13.80952,0,0,1,363.70605,104.66483Z"/><path class="f19670d3-fe56-4b6c-94d1-4a82ef55c656" d="M364.95187,58.09333a6.48318,6.48318,0,1,1,6.48317-6.48318A6.49046,6.49046,0,0,1,364.95187,58.09333Zm0-11.29187a4.8087,4.8087,0,1,0,4.8087,4.80869A4.8141,4.8141,0,0,0,364.95187,46.80146Z"/><path class="f19670d3-fe56-4b6c-94d1-4a82ef55c656" d="M364.67026,98.185a6.48312,6.48312,0,1,1,6.48318-6.48306A6.49036,6.49036,0,0,1,364.67026,98.185Zm0-11.29176a4.80864,4.80864,0,1,0,4.8087,4.8087A4.8141,4.8141,0,0,0,364.67026,86.89322Z"/><circle class="bc86aa66-3e22-41a6-b8a9-9b656a5766a7" cx="332.85263" cy="210.62014" r="5.6459"/><path class="f19670d3-fe56-4b6c-94d1-4a82ef55c656" d="M332.85258,217.1033a6.48318,6.48318,0,1,1,6.48317-6.48317A6.49045,6.49045,0,0,1,332.85258,217.1033Zm0-11.29187a4.8087,4.8087,0,1,0,4.8087,4.8087A4.81411,4.81411,0,0,0,332.85258,205.81143Z"/><circle class="bc86aa66-3e22-41a6-b8a9-9b656a5766a7" cx="230.73291" cy="39.37979" r="5.6459"/><path class="f19670d3-fe56-4b6c-94d1-4a82ef55c656" d="M230.73293,45.86293a6.48312,6.48312,0,1,1,6.48317-6.48317A6.49055,6.49055,0,0,1,230.73293,45.86293Zm0-11.29176a4.80865,4.80865,0,1,0,4.8087,4.80859A4.81411,4.81411,0,0,0,230.73293,34.57117Z"/><path class="f19670d3-fe56-4b6c-94d1-4a82ef55c656" d="M249.09355,201.92577H234.4151a.83724.83724,0,1,1,0-1.67448h14.67845a.83724.83724,0,0,1,0,1.67448Z"/><path class="f19670d3-fe56-4b6c-94d1-4a82ef55c656" d="M261.342,211.45737H234.4151a.83724.83724,0,1,1,0-1.67448H261.342a.83724.83724,0,0,1,0,1.67448Z"/><path class="f19670d3-fe56-4b6c-94d1-4a82ef55c656" d="M279.95092,211.45737H265.27247a.83724.83724,0,1,1,0-1.67448h14.67845a.83724.83724,0,0,1,0,1.67448Z"/><path class="f19670d3-fe56-4b6c-94d1-4a82ef55c656" d="M279.95092,220.98908H253.02406a.83724.83724,0,0,1,0-1.67448h26.92686a.83724.83724,0,0,1,0,1.67448Z"/><path class="f19670d3-fe56-4b6c-94d1-4a82ef55c656" d="M249.09355,220.98908H234.4151a.83724.83724,0,0,1,0-1.67448h14.67845a.83724.83724,0,0,1,0,1.67448Z"/><path class="f19670d3-fe56-4b6c-94d1-4a82ef55c656" d="M279.95092,201.92577H265.27247a.83724.83724,0,1,1,0-1.67448h14.67845a.83724.83724,0,0,1,0,1.67448Z"/><path class="f19670d3-fe56-4b6c-94d1-4a82ef55c656" d="M261.342,201.92577h-7.33923a.83724.83724,0,1,1,0-1.67448H261.342a.83724.83724,0,0,1,0,1.67448Z"/><path class="f19670d3-fe56-4b6c-94d1-4a82ef55c656" d="M325.2766,49.74871H310.59815a.83724.83724,0,1,1,0-1.67448H325.2766a.83724.83724,0,1,1,0,1.67448Z"/><path class="f19670d3-fe56-4b6c-94d1-4a82ef55c656" d="M325.2766,40.217H298.34974a.83724.83724,0,1,1,0-1.67447H325.2766a.83724.83724,0,1,1,0,1.67447Z"/><path class="f19670d3-fe56-4b6c-94d1-4a82ef55c656" d="M294.41923,40.217H279.74078a.83724.83724,0,1,1,0-1.67447h14.67845a.83724.83724,0,1,1,0,1.67447Z"/><path class="f19670d3-fe56-4b6c-94d1-4a82ef55c656" d="M306.66764,30.6854H279.74078a.83724.83724,0,1,1,0-1.67448h26.92686a.83724.83724,0,0,1,0,1.67448Z"/><path class="f19670d3-fe56-4b6c-94d1-4a82ef55c656" d="M325.2766,30.6854H310.59815a.83724.83724,0,1,1,0-1.67448H325.2766a.83724.83724,0,1,1,0,1.67448Z"/><path class="f19670d3-fe56-4b6c-94d1-4a82ef55c656" d="M294.41923,49.74871H279.74078a.83724.83724,0,1,1,0-1.67448h14.67845a.83724.83724,0,0,1,0,1.67448Z"/><path class="f19670d3-fe56-4b6c-94d1-4a82ef55c656" d="M305.689,49.74871h-7.33923a.83724.83724,0,0,1,0-1.67448H305.689a.83724.83724,0,0,1,0,1.67448Z"/><rect class="f19670d3-fe56-4b6c-94d1-4a82ef55c656" x="214.75439" y="65.02027" width="125.49121" height="26.68161"/><path class="bc86aa66-3e22-41a6-b8a9-9b656a5766a7" d="M272.8,80.227h-46.1503a.83724.83724,0,1,1,0-1.67447H272.8a.83724.83724,0,1,1,0,1.67447Z"/><circle class="bc86aa66-3e22-41a6-b8a9-9b656a5766a7" cx="317.33981" cy="79.38972" r="2.06791"/><circle class="bc86aa66-3e22-41a6-b8a9-9b656a5766a7" cx="325.78254" cy="79.38972" r="2.06791"/></svg>