<svg id="ba93ef44-8cbf-42d0-8569-2f5d962f7f3e" data-name="Layer 1" xmlns="http://www.w3.org/2000/svg" viewBox="0 0 360 203"><defs><style>.ebeb98a8-21c4-48ba-a356-2f5788b0bc18{fill:#f0f0f0;}.ecd4542d-1f7b-4cb7-aa2c-543258f93da2{fill:#5e40be;}</style></defs><rect class="ebeb98a8-21c4-48ba-a356-2f5788b0bc18" x="0.12657" width="360" height="203"/><path d="M143.89139,62.95255h8.9239c3.9007,0,6.53859,2.35726,6.53859,5.80895a5.561,5.561,0,0,1-4.041,5.388l4.37776,8.44683H156.4494l-4.06908-8.04694H146.852v8.068h-2.96061Zm2.94657,2.58176v6.55962h5.72477c2.30113,0,3.81651-1.31894,3.81651-3.28332s-1.51538-3.28332-3.81651-3.28332Z"/><path d="M168.0673,82.84892A7.36642,7.36642,0,0,1,160.57555,75.61q-.00145-.08479-.001-.16959a7.19815,7.19815,0,0,1,7.15595-7.36643c3.92877,0,6.90339,3.25526,6.90339,7.46465v.81381H163.35279a4.81974,4.81974,0,0,0,4.82677,4.09713,5.55639,5.55639,0,0,0,3.62007-1.26281l1.796,1.75391A8.52052,8.52052,0,0,1,168.0673,82.84892Zm-4.68645-8.58715h8.47489a4.26062,4.26062,0,0,0-8.47489,0Z"/><path d="M188.30041,81.24935a6.74553,6.74553,0,0,1-4.37776,1.5715,7.372,7.372,0,1,1,4.36373-13.32972V62.95255l2.80625-.61737V82.59635h-2.79222Zm-3.98488-.86994a5.146,5.146,0,0,0,3.95682-1.71182V72.18514a5.22314,5.22314,0,0,0-3.95682-1.68376,4.78118,4.78118,0,0,0-4.856,4.70513q-.00162.10292.00119.20582a4.83025,4.83025,0,0,0,4.69145,4.96521q.08166.00233.16336.00187Z"/><path d="M200.59182,62.95255h2.93253v8.41877h10.45331V62.95255h2.94656v19.6438h-2.94656V74.03727H203.52435v8.55908h-2.94656Z"/><path d="M219.59017,78.49922c0-2.694,2.18888-4.3497,5.78089-4.3497a10.085,10.085,0,0,1,3.9007.78575V73.41989c0-2.0205-1.20669-3.03076-3.47977-3.03076a9.96318,9.96318,0,0,0-4.43389,1.20669l-1.05234-2.10469a13.3687,13.3687,0,0,1,5.86507-1.45925c3.70426,0,5.837,1.82406,5.837,5.10739v9.47111h-2.73608V81.3616a6.77712,6.77712,0,0,1-4.43389,1.48731C221.72293,82.84892,219.59017,81.081,219.59017,78.49922Zm5.89313,2.27307a5.49324,5.49324,0,0,0,3.78845-1.347V76.96981a7.41905,7.41905,0,0,0-3.6762-.86994c-2.04857,0-3.31139.92606-3.31139,2.35725,0,1.354,1.2909,2.31516,3.19916,2.31516Z"/><path d="M236.54,70.66976H233.5092V68.3125H236.54V64.66437l2.76417-.6735V68.3125h4.20938v2.35726h-4.20938V78.408c0,1.45926.58931,1.99245,2.10469,1.99245a5.51433,5.51433,0,0,0,2.04857-.35079v2.35726a9.29576,9.29576,0,0,1-2.666.42094c-2.7782,0-4.26551-1.31894-4.26551-3.78845Z"/><path d="M146.99231,112.06205l-4.3497-19.6438h4.18132l2.666,13.32972,3.8586-13.32972H157.151l3.81651,13.27359,2.66594-13.27359h4.041l-4.3497,19.6438h-4.26551l-3.9007-13.7226-3.90069,13.7226Z"/><path d="M175.67226,97.16082a7.59377,7.59377,0,1,1-7.80139,7.605A7.62048,7.62048,0,0,1,175.67226,97.16082Zm4.041,7.605a4.04556,4.04556,0,1,0-4.041,4.23745A4.08744,4.08744,0,0,0,179.71326,104.76578Z"/><path d="M185.8309,97.44145h3.85861v1.09444a5.68615,5.68615,0,0,1,3.81651-1.37506,5.26173,5.26173,0,0,1,4.40582,2.18887,6.01594,6.01594,0,0,1,4.82676-2.18888,5.45414,5.45414,0,0,1,5.58446,5.809v9.09227h-3.8586v-8.531c0-1.85213-1.05235-3.05882-2.75013-3.05882a3.29032,3.29032,0,0,0-2.80626,1.45925,6.22256,6.22256,0,0,1,.08418,1.05235v9.09227h-3.8586V103.531c0-1.85213-1.05235-3.05882-2.75013-3.05882a3.26227,3.26227,0,0,0-2.72207,1.31893V112.062h-3.8586Z"/><path d="M218.4396,112.34268a7.61151,7.61151,0,0,1-7.85751-7.5769,7.46464,7.46464,0,0,1,7.35133-7.57626q.08472-.00128.16944-.00063c4.15326,0,7.24014,3.3675,7.24014,7.85752v1.01025H214.46876a4.20939,4.20939,0,0,0,4.13922,3.05882,4.60229,4.60229,0,0,0,3.2272-1.17863l2.52564,2.30113A8.7696,8.7696,0,0,1,218.4396,112.34268Zm-4.01294-9.02914h7.15595a3.75641,3.75641,0,0,0-3.56395-2.94657A3.65813,3.65813,0,0,0,214.42666,103.31354Z"/><path d="M227.70026,97.44145h3.8586V98.592a6.27554,6.27554,0,0,1,4.09714-1.4312,5.547,5.547,0,0,1,5.78089,5.809v9.09227h-3.8586v-8.531a2.85078,2.85078,0,0,0-3.03077-3.05882,3.50781,3.50781,0,0,0-3.00269,1.45925v10.13059h-3.8586Z"/><path d="M249.2523,91.26769l-3.03076,7.36642H243.3311l1.93631-7.36642Z"/><path d="M250.17837,107.76847a8.51361,8.51361,0,0,0,4.74258,1.6557c1.71182,0,2.83433-.61738,2.83433-1.54344,0-.75769-.56124-1.17863-1.82407-1.37507l-2.80626-.42094c-2.89044-.449-4.43389-1.88019-4.43389-4.23744,0-2.83432,2.35725-4.63033,6.08957-4.63033A10.78653,10.78653,0,0,1,260.786,99.041l-1.85214,2.45547a8.63154,8.63154,0,0,0-4.51807-1.40312c-1.40313,0-2.30113.56125-2.30113,1.43119,0,.78575.56124,1.17863,1.99244,1.37506l2.80625.42094c2.86238.42094,4.46194,1.90826,4.46194,4.18132,0,2.75013-2.72207,4.82676-6.39826,4.82676a10.77476,10.77476,0,0,1-6.70695-2.0205Z"/><path d="M143.68092,121.884H147.75v16.05179h10.748v3.592H143.68092Z"/><path d="M167.6183,141.80837a7.61151,7.61151,0,0,1-7.85752-7.57689,7.46466,7.46466,0,0,1,7.35133-7.57627q.0847-.00128.16944-.00063c4.15326,0,7.24014,3.36751,7.24014,7.85752v1.01025H163.64745a4.20937,4.20937,0,0,0,4.15325,3.05882,4.60222,4.60222,0,0,0,3.2272-1.17862l2.52564,2.30112A8.76947,8.76947,0,0,1,167.6183,141.80837Zm-4.013-9.02913h7.156a3.75641,3.75641,0,0,0-3.564-2.94657A3.65811,3.65811,0,0,0,163.60535,132.77924Z"/><path d="M176.12126,137.2903c0-2.7782,2.245-4.43389,6.00538-4.43389a11.8248,11.8248,0,0,1,3.56395.56126v-1.05235c0-1.68376-1.05234-2.55369-3.08688-2.55369a11.33,11.33,0,0,0-4.46194,1.20669l-1.40313-2.83432a15.24491,15.24491,0,0,1,6.51051-1.57151c3.95682,0,6.2299,1.96439,6.2299,5.41608v9.47112H185.6906v-1.01026a6.949,6.949,0,0,1-4.23744,1.26282C178.31013,141.78031,176.12126,139.95624,176.12126,137.2903Zm6.34213,1.75391a5.53533,5.53533,0,0,0,3.2272-.92607v-2.18888a8.496,8.496,0,0,0-3.08688-.53319c-1.75391,0-2.80625.70157-2.80625,1.82407s1.03831,1.81,2.68,1.81Z"/><path d="M203.31388,140.32105a6.62976,6.62976,0,0,1-4.15326,1.40313,7.50694,7.50694,0,1,1,.11226-15.01347h0a7.26815,7.26815,0,0,1,3.98488,1.15758V121.905l3.8586-.84187v20.48567h-3.80248Zm-3.53588-1.88019a4.69,4.69,0,0,0,3.47977-1.40313V131.341A4.82677,4.82677,0,0,0,199.778,129.966a4.23745,4.23745,0,1,0,0,8.47489Z"/><path d="M217.31711,141.80837a7.61151,7.61151,0,0,1-7.85752-7.57689,7.46466,7.46466,0,0,1,7.35133-7.57627q.0847-.00128.16944-.00063c4.15326,0,7.24014,3.36751,7.24014,7.85752v1.01025H213.34625a4.20938,4.20938,0,0,0,4.15326,3.05882,4.60224,4.60224,0,0,0,3.2272-1.17862l2.52564,2.30112A8.76949,8.76949,0,0,1,217.31711,141.80837Zm-4.013-9.02913h7.15595a3.7564,3.7564,0,0,0-3.56394-2.94657A3.65811,3.65811,0,0,0,213.30416,132.77924Z"/><path d="M226.57775,126.90715h3.85861v1.59956a4.65136,4.65136,0,0,1,3.90069-1.93632,3.31157,3.31157,0,0,1,1.59957.35078v3.36751a4.911,4.911,0,0,0-1.96438-.39287,3.85862,3.85862,0,0,0-3.54992,2.18187v9.47111h-3.8586Z"/><path d="M238.84109,137.23417a8.51366,8.51366,0,0,0,4.74257,1.65569c1.71182,0,2.83432-.61737,2.83432-1.54344,0-.75769-.56126-1.17862-1.82407-1.37506l-2.80626-.42094c-2.89044-.449-4.43389-1.88019-4.43389-4.23745,0-2.83432,2.35726-4.63032,6.08957-4.63032a10.78647,10.78647,0,0,1,6.00539,1.82407l-1.85213,2.45547a8.63149,8.63149,0,0,0-4.51807-1.40313c-1.40313,0-2.30113.56126-2.30113,1.43119,0,.78576.56125,1.17863,1.99244,1.37507l2.80625.42094c2.86239.42093,4.462,1.90825,4.462,4.18132,0,2.75013-2.72207,4.82676-6.39826,4.82676a10.77482,10.77482,0,0,1-6.707-2.0205Z"/><path d="M251.93228,121.884l3.85861-.84188v7.01565a6.27552,6.27552,0,0,1,4.09713-1.4312,5.547,5.547,0,0,1,5.78088,5.809v9.09228h-3.8586v-8.531a2.85077,2.85077,0,0,0-3.03076-3.05882,3.50782,3.50782,0,0,0-3.0027,1.45926v10.13059h-3.84456Z"/><path d="M268.30679,122.97839a2.18888,2.18888,0,1,1,2.18888,2.18888h0A2.19238,2.19238,0,0,1,268.30679,122.97839Zm4.1252,18.54936h-3.8586v-14.6206h3.8586Z"/><path d="M275.43469,126.90715h3.78493v1.20669a6.64375,6.64375,0,0,1,4.15327-1.40313,7.50693,7.50693,0,0,1-.10875,15.01347,7.26822,7.26822,0,0,1-3.97085-1.15056v6.8192h-3.8586Zm3.8586,4.469v5.75283a4.911,4.911,0,0,0,3.47624,1.347,4.23745,4.23745,0,1,0,0-8.4749A4.70749,4.70749,0,0,0,279.29329,131.37611Z"/><path class="ecd4542d-1f7b-4cb7-aa2c-543258f93da2" d="M129.38305,112.50754a1.582,1.582,0,0,1-1.11549-.45952L100.06819,83.84864,71.86881,112.048a1.57878,1.57878,0,0,1-2.231-2.23448L98.9527,80.51271a1.575,1.575,0,0,1,2.2274-.00358l.00357.00358,29.31487,29.31486a1.57852,1.57852,0,0,1-1.11549,2.694Z"/><path d="M84.60922,90.524a1.57852,1.57852,0,0,1-1.40313-.891,18.67914,18.67914,0,1,1,35.54125-8.01888,18.47568,18.47568,0,0,1-1.79952,8.01888,1.57924,1.57924,0,1,1-2.85186-1.35753,15.33961,15.33961,0,0,0,1.49433-6.66486,15.52211,15.52211,0,1,0-31.04421,0,15.36758,15.36758,0,0,0,1.49433,6.66486,1.57853,1.57853,0,0,1-.74787,2.10337l-.00281.00133A1.547,1.547,0,0,1,84.60922,90.524Z"/><path d="M124.49665,83.19268a1.53676,1.53676,0,0,1-.30869-.03157,1.5127,1.5127,0,0,1-.56826-.235,1.57909,1.57909,0,0,1-.23853-.19644,1.2943,1.2943,0,0,1-.19644-.23853,1.56457,1.56457,0,0,1-.14382-.27361,1.43467,1.43467,0,0,1-.0912-.29466,1.51214,1.51214,0,0,1-.03157-.30868,1.53676,1.53676,0,0,1,.03157-.30869,1.50538,1.50538,0,0,1,.0912-.29466,1.698,1.698,0,0,1,.14382-.27361,1.57909,1.57909,0,0,1,.19644-.23853,1.82161,1.82161,0,0,1,.23853-.19644,1.69837,1.69837,0,0,1,.27711-.14032,1.7858,1.7858,0,0,1,.29466-.0912,1.61006,1.61006,0,0,1,1.42417.442,1.79263,1.79263,0,0,1,.19294.23853,1.47713,1.47713,0,0,1,.14732.27361,1.78543,1.78543,0,0,1,.09121.29465,1.83952,1.83952,0,0,1,.02806.30869,1.575,1.575,0,0,1-1.5715,1.57852h-.007Z"/><path d="M75.63972,83.19268a1.57852,1.57852,0,1,1,1.31193-2.45547,1.69838,1.69838,0,0,1,.14382.27361,1.50507,1.50507,0,0,1,.0912.29465,1.53676,1.53676,0,0,1,.03157.30869,1.58553,1.58553,0,0,1-.70156,1.31192,1.47658,1.47658,0,0,1-.27361.14733,1.7858,1.7858,0,0,1-.29466.0912A1.83839,1.83839,0,0,1,75.63972,83.19268Z"/><path d="M100.06819,58.76421a1.57852,1.57852,0,1,1,1.11548-2.694,1.42024,1.42024,0,0,1,.19644.23853,2.05675,2.05675,0,0,1,.14733.27361,1.67648,1.67648,0,0,1,.08769.29466,1.53523,1.53523,0,0,1,.03157.30869A1.582,1.582,0,0,1,100.06819,58.76421Z"/><path d="M82.96756,66.09205a1.589,1.589,0,0,1-1.11549-.463,1.2943,1.2943,0,0,1-.19644-.23853,1.68369,1.68369,0,0,1-.235-.56827,1.51217,1.51217,0,0,1-.03157-.30869,1.57852,1.57852,0,1,1,3.157,0,1.51217,1.51217,0,0,1-.03157.30869,1.67736,1.67736,0,0,1-.0877.29466,1.698,1.698,0,0,1-.14733.27361,1.29465,1.29465,0,0,1-.19643.23853,1.57868,1.57868,0,0,1-.23854.19644,1.47685,1.47685,0,0,1-.27361.14733,1.68743,1.68743,0,0,1-.29465.0912A1.83743,1.83743,0,0,1,82.96756,66.09205Z"/><path d="M117.16882,66.09205a1.582,1.582,0,0,1-1.57852-1.57852,1.53593,1.53593,0,0,1,.03157-.30868,1.50428,1.50428,0,0,1,.0912-.29466,1.53254,1.53254,0,0,1,.14382-.2701,1.44467,1.44467,0,0,1,.19644-.242,1.59957,1.59957,0,0,1,1.42417-.42445,1.68753,1.68753,0,0,1,.29466.0912,1.56493,1.56493,0,0,1,.27361.14382,1.6136,1.6136,0,0,1,.23853.19644,1.44551,1.44551,0,0,1,.19643.242,1.821,1.821,0,0,1,.14733.2701,1.7726,1.7726,0,0,1,.0877.29466,1.53749,1.53749,0,0,1,.03157.30869,1.51217,1.51217,0,0,1-.03157.30869,1.6764,1.6764,0,0,1-.0877.29465,1.858,1.858,0,0,1-.14733.27361,1.295,1.295,0,0,1-.19643.23854,1.579,1.579,0,0,1-.23853.19643,1.37116,1.37116,0,0,1-.27361.14733,1.42463,1.42463,0,0,1-.29466.0877A1.53641,1.53641,0,0,1,117.16882,66.09205Z"/></svg>