<svg id="b79778d4-fa8a-4c1b-beb2-8f1456092ff7" data-name="Layer 1" xmlns="http://www.w3.org/2000/svg" viewBox="0 0 360 203"><defs><style>.a31ca44c-1291-42da-9a03-ee988d86ae8b{fill:#f0f0f0;}.e22f5bb3-f95c-4bfc-886d-142d5e5e5795{fill:#f7823c;}</style></defs><rect class="a31ca44c-1291-42da-9a03-ee988d86ae8b" x="0.12657" width="360" height="203"/><path d="M142.47861,61.28525h8.9239c3.9042,0,6.54208,2.35726,6.54208,5.809a5.561,5.561,0,0,1-4.041,5.388l4.37776,8.44683h-3.25526l-4.06907-8.068h-5.53183v8.068h-2.94657Zm2.94657,2.58176v6.55962h5.72827c2.30113,0,3.81651-1.31894,3.81651-3.28332S153.45458,63.86,151.15345,63.86Z"/><path d="M166.644,81.18162a7.36644,7.36644,0,0,1-7.4952-7.23537q-.00151-.08656-.001-.17315a7.19885,7.19885,0,0,1,7.15946-7.36643c3.92876,0,6.90339,3.25526,6.90339,7.46464v.81382H161.926a4.81975,4.81975,0,0,0,4.82677,4.09713,5.56688,5.56688,0,0,0,3.62357-1.26281l1.796,1.75391A8.52056,8.52056,0,0,1,166.644,81.18162Zm-4.68645-8.58715h8.47489a4.26062,4.26062,0,0,0-8.47489,0Z"/><path d="M186.8771,79.58205a6.76311,6.76311,0,0,1-4.38127,1.5715,7.36965,7.36965,0,0,1-.142-14.73152q.099-.002.19812-.00133a7.2963,7.2963,0,0,1,4.29708,1.40313V61.28525l2.80626-.61737V80.92905h-2.7782Zm-3.98839-.86994a5.16,5.16,0,0,0,3.96033-1.71182V70.51784a5.23368,5.23368,0,0,0-3.96033-1.68376,4.78117,4.78117,0,0,0-4.856,4.70513q-.00163.10292.00118.20582a4.83028,4.83028,0,0,0,4.69146,4.96521Q182.807,78.71255,182.88871,78.71211Z"/><path d="M199.165,61.28525h2.94657V69.704h10.43928V61.28525h2.94657v19.6438h-2.94657V72.37H202.11156v8.55908H199.165Z"/><path d="M218.16335,76.83192c0-2.694,2.18888-4.3497,5.7809-4.3497a10.08493,10.08493,0,0,1,3.90069.78575V71.75259c0-2.02051-1.20669-3.03076-3.47976-3.03076a9.96314,9.96314,0,0,0-4.43389,1.20669l-1.05235-2.10469a13.36871,13.36871,0,0,1,5.86508-1.45925c3.70426,0,5.837,1.82406,5.837,5.10739v9.47111H227.8309V79.6943a6.77712,6.77712,0,0,1-4.43389,1.48731C220.31365,81.18162,218.16335,79.41367,218.16335,76.83192Zm5.89314,2.27306a5.49326,5.49326,0,0,0,3.78844-1.347V75.30251a7.41886,7.41886,0,0,0-3.67268-.884c-2.04856,0-3.31138.92606-3.31138,2.35725-.00351,1.368,1.28738,2.32919,3.19563,2.32919Z"/><path d="M235.11315,69.00246h-3.03076V66.6452h3.03076V62.99707l2.7782-.6735V66.6452h4.20938v2.35726h-4.20938v7.73825c0,1.45926.59282,1.99245,2.10469,1.99245a5.53193,5.53193,0,0,0,2.05208-.35079v2.35726a9.29912,9.29912,0,0,1-2.66945.42094c-2.7782,0-4.26551-1.31894-4.26551-3.78845Z"/><path d="M146.12674,90.751,155.896,103.4633V90.751h3.81652v19.6438h-3.592L146.09868,97.26147v13.13328h-3.85861V90.751Z"/><path d="M162.03822,106.1573c0-2.77819,2.245-4.43389,6.0089-4.43389a11.84272,11.84272,0,0,1,3.56394.56126v-1.05235c0-1.68375-1.05234-2.55369-3.09039-2.55369a11.331,11.331,0,0,0-4.45843,1.20669L162.65911,97.051a15.23446,15.23446,0,0,1,6.51051-1.57151c3.95683,0,6.2299,1.96438,6.2299,5.41608v9.47112h-3.78844v-1.01025a6.949,6.949,0,0,1-4.23745,1.26281C164.22709,110.64731,162.03822,108.82325,162.03822,106.1573Zm6.34564,1.75391a5.54234,5.54234,0,0,0,3.2272-.92606v-2.18889a8.51354,8.51354,0,0,0-3.09039-.53319c-1.75391,0-2.80625.70157-2.80625,1.82407s1.03831,1.81,2.68348,1.81Z"/><path d="M179.7457,99.00134H176.743V95.77415h3.00269V92.04183l3.85861-.86994v4.60226h4.15677v3.22719h-4.17081v6.48246c0,1.37506.5367,1.88019,2.024,1.88019a5.914,5.914,0,0,0,2.04857-.35078v3.157a11.9268,11.9268,0,0,1-2.97814.449c-3.25526,0-4.939-1.48732-4.939-4.3497Z"/><path d="M189.37116,91.84539A2.18889,2.18889,0,1,1,191.56,94.0343l-.0105,0A2.19239,2.19239,0,0,1,189.37116,91.84539Zm4.12521,18.54936H189.6553V95.77415h3.84107Z"/><path d="M194.98368,95.77415H199.165l4.01293,9.7307,3.98488-9.73772H211.26l-6.286,14.6206h-3.70424Z"/><path d="M219.39811,110.67538a7.61151,7.61151,0,0,1-7.85751-7.5769,7.46464,7.46464,0,0,1,7.35133-7.57626q.08472-.00129.16944-.00063c4.15326,0,7.24013,3.3675,7.24013,7.85752v1.01025H215.4027a4.20938,4.20938,0,0,0,4.15326,3.05882,4.60225,4.60225,0,0,0,3.2272-1.17863l2.52564,2.30113A8.76962,8.76962,0,0,1,219.39811,110.67538Zm-3.99541-9.02914h7.15595a3.75639,3.75639,0,0,0-3.56394-2.94657A3.63059,3.63059,0,0,0,215.4027,101.64624Z"/><path d="M233.59777,106.1573c0-2.77819,2.245-4.43389,6.00539-4.43389a11.825,11.825,0,0,1,3.56394.56126v-1.05235c0-1.68375-1.05234-2.55369-3.08688-2.55369a11.33029,11.33029,0,0,0-4.46194,1.20669L234.21515,97.051a15.24506,15.24506,0,0,1,6.51051-1.57151c3.95682,0,6.2299,1.96438,6.2299,5.41608v9.47112h-3.78845v-1.01025a6.949,6.949,0,0,1-4.23744,1.26281C235.78664,110.64731,233.59777,108.82325,233.59777,106.1573Zm6.34213,1.75391a5.5353,5.5353,0,0,0,3.2272-.92606v-2.18889a8.496,8.496,0,0,0-3.08688-.53319c-1.75391,0-2.80625.70157-2.80625,1.82407s1.03831,1.81,2.68348,1.81Z"/><path d="M249.87406,95.77415h3.85861v1.15057a6.27552,6.27552,0,0,1,4.09713-1.4312,5.547,5.547,0,0,1,5.78088,5.809v9.09227h-3.8586v-8.531a2.85078,2.85078,0,0,0-3.03076-3.05883,3.50785,3.50785,0,0,0-3.0027,1.45926v10.13059H249.86Z"/><path d="M277.43151,109.18806a6.62979,6.62979,0,0,1-4.15327,1.40313,7.50695,7.50695,0,0,1,.11225-15.01348,7.26816,7.26816,0,0,1,3.98488,1.15758V90.772l3.8586-.84188v20.48567h-3.78844Zm-3.53589-1.88019a4.68995,4.68995,0,0,0,3.47975-1.40313V100.208a4.82677,4.82677,0,0,0-3.47975-1.37507,4.23745,4.23745,0,1,0-.00441,8.4749Z"/><path d="M142.25411,120.21665h4.07258v19.6438h-4.07258Z"/><path d="M149.63456,125.23984h3.85861v1.15057a6.27545,6.27545,0,0,1,4.09713-1.43119,5.547,5.547,0,0,1,5.7809,5.80895v9.09227h-3.85861v-8.531a2.85077,2.85077,0,0,0-3.03075-3.05882,3.50783,3.50783,0,0,0-3.0027,1.45926v10.13059h-3.8586Z"/><path d="M177.192,138.65375a6.62976,6.62976,0,0,1-4.15326,1.40313,7.50694,7.50694,0,0,1,.11225-15.01347,7.26812,7.26812,0,0,1,3.98488,1.15758v-5.9633l3.85861-.84187v20.48567H177.206Zm-3.53238-1.88019a4.68993,4.68993,0,0,0,3.47976-1.40313v-5.6967a4.82679,4.82679,0,0,0-3.47976-1.36805,4.23745,4.23745,0,0,0,0,8.4749Z"/><path d="M183.73058,121.31109a2.19194,2.19194,0,1,1,0,.01057Zm4.1252,18.54936h-3.8586V125.23984h3.8586Z"/><path d="M190.185,132.45193a7.41554,7.41554,0,0,1,7.39371-7.4373q.06352-.00018.12706.00072a7.12789,7.12789,0,0,1,3.95682,1.18564v-.95413H205.451v14.6206c0,3.8586-2.55369,6.03345-7.24013,6.03345a13.59638,13.59638,0,0,1-6.08958-1.31894l1.347-3.00269a10.41464,10.41464,0,0,0,4.65838,1.17862c2.30113,0,3.47977-1.01025,3.47977-2.9185v-1.20669a6.61935,6.61935,0,0,1-4.01295,1.31894,7.40151,7.40151,0,0,1-7.40918-7.39383Q190.18428,132.50487,190.185,132.45193Zm7.99783,4.23745a4.81627,4.81627,0,0,0,3.42364-1.31894v-5.75283a4.911,4.911,0,0,0-3.39206-1.31193,4.20938,4.20938,0,1,0-.02806,8.39071Z"/><path d="M215.66579,140.14107a7.61151,7.61151,0,0,1-7.85752-7.57689,7.46466,7.46466,0,0,1,7.35133-7.57627q.0847-.00127.16944-.00063c4.15326,0,7.24014,3.36751,7.24014,7.85752v1.01025H211.69493a4.20938,4.20938,0,0,0,4.15326,3.05882,4.60225,4.60225,0,0,0,3.2272-1.17863l2.52564,2.30113A8.76949,8.76949,0,0,1,215.66579,140.14107Zm-4.01295-9.02913h7.15595a3.7564,3.7564,0,0,0-3.56394-2.94657A3.65812,3.65812,0,0,0,211.65284,131.11194Z"/><path d="M224.92643,125.23984H228.785v1.15057a6.27545,6.27545,0,0,1,4.09713-1.43119,5.547,5.547,0,0,1,5.78089,5.80895v9.09227h-3.8586v-8.531a2.85077,2.85077,0,0,0-3.03076-3.05882,3.50783,3.50783,0,0,0-3.0027,1.45926v10.13059h-3.8586Z"/><path d="M248.69543,124.95922a7.59377,7.59377,0,1,1-7.80138,7.605A7.62048,7.62048,0,0,1,248.69543,124.95922Zm4.041,7.605a4.04556,4.04556,0,1,0-4.041,4.23745,4.08744,4.08744,0,0,0,4.041-4.23745Z"/><path d="M262.58641,133.74281a2.87286,2.87286,0,0,0,3.03076,3.08688,3.50783,3.50783,0,0,0,3.03076-1.45926V125.23984h3.8586v14.62061h-3.8586v-1.17863a6.22286,6.22286,0,0,1-4.13573,1.45925,5.56965,5.56965,0,0,1-5.78089-5.837v-9.06422h3.85861Z"/><path d="M276.16868,135.56687a8.51367,8.51367,0,0,0,4.74258,1.65569c1.71182,0,2.83433-.61737,2.83433-1.54344,0-.75769-.56125-1.17862-1.82408-1.37506l-2.80625-.42094c-2.89044-.449-4.43389-1.88019-4.43389-4.23745,0-2.83432,2.35724-4.63032,6.08957-4.63032a10.78647,10.78647,0,0,1,6.00539,1.82407l-1.85214,2.45547a8.63152,8.63152,0,0,0-4.51808-1.40313c-1.40313,0-2.30113.56126-2.30113,1.43119,0,.78576.56124,1.17863,1.99244,1.37507l2.80626.42094c2.86237.42093,4.46194,1.90825,4.46194,4.18132,0,2.75013-2.72208,4.82676-6.39827,4.82676a10.77484,10.77484,0,0,1-6.707-2.0205Z"/><path d="M127.95974,87.12737H116.44356a1.57852,1.57852,0,0,1,0-3.157h11.51618a1.57852,1.57852,0,1,1,0,3.157Z"/><path d="M120.28112,81.36753h-3.83756a1.57852,1.57852,0,0,1,0-3.157h3.83756a1.57852,1.57852,0,0,1,0,3.157Z"/><path d="M120.28112,92.87669h-3.83756a1.57852,1.57852,0,0,1,0-3.157h3.83756a1.57852,1.57852,0,1,1,0,3.157Z"/><path d="M85.72908,87.12737H74.2129a1.57852,1.57852,0,0,1,0-3.157H85.72908a1.57852,1.57852,0,0,1,0,3.157Z"/><path d="M85.72908,92.87669H81.89152a1.57852,1.57852,0,1,1,0-3.157h3.83756a1.57852,1.57852,0,0,1,0,3.157Z"/><path d="M85.72908,81.36753H81.89152a1.57852,1.57852,0,0,1,0-3.157h3.83756a1.57852,1.57852,0,0,1,0,3.157Z"/><path d="M101.08632,71.77013a1.575,1.575,0,0,1-1.57852-1.57149V58.67543a1.57852,1.57852,0,0,1,3.157,0V70.19161A1.57852,1.57852,0,0,1,101.08632,71.77013Z"/><path d="M95.32648,71.77013A1.57852,1.57852,0,0,1,93.748,70.19161V66.35405a1.57852,1.57852,0,0,1,3.157,0v3.83756a1.575,1.575,0,0,1-1.5715,1.57852Z"/><path d="M106.84265,71.77013a1.57852,1.57852,0,0,1-1.57852-1.57852V66.35405a1.57852,1.57852,0,1,1,3.157,0v3.83756a1.575,1.575,0,0,1-1.57149,1.57852Z"/><path d="M101.08632,113.99728a1.575,1.575,0,0,1-1.57852-1.57149V100.90258a1.57852,1.57852,0,0,1,3.157,0h0v11.51618a1.57851,1.57851,0,0,1-1.57851,1.57852Z"/><path d="M106.84265,106.32217a1.582,1.582,0,0,1-1.57852-1.57852v-3.8586a1.57852,1.57852,0,1,1,3.157,0h0v3.8586A1.57852,1.57852,0,0,1,106.84265,106.32217Z"/><path d="M95.32648,106.32217a1.582,1.582,0,0,1-1.57852-1.57852v-3.8586a1.57852,1.57852,0,1,1,3.157,0h0v3.8586A1.57852,1.57852,0,0,1,95.32648,106.32217Z"/><path class="e22f5bb3-f95c-4bfc-886d-142d5e5e5795" d="M101.10752,74.38336A11.176,11.176,0,1,0,112.2728,85.54889,11.1761,11.1761,0,0,0,101.10752,74.38336Zm0,19.19483a8.01887,8.01887,0,1,1-.02124-16.03772V77.53a8.02412,8.02412,0,0,1,.02124,16.04822Z"/></svg>