<svg id="a599454f-6e09-45e8-b774-8a42215bb3f5" data-name="Layer 1" xmlns="http://www.w3.org/2000/svg" viewBox="0 0 360 203"><defs><style>.a6e5e6f3-984b-41c2-b2fa-169ddaa2160f{fill:#f0f0f0;}.b4772297-c256-430b-874e-87c5ec5e2f64{fill:#e00;}.b91849bc-0fe7-43aa-b7d3-efc9e6d7116a{fill:#faaa4f;}.a86517b0-f595-463b-963f-e7cfdd844ebf{fill:#689b7a;}</style></defs><rect class="a6e5e6f3-984b-41c2-b2fa-169ddaa2160f" x="0.12657" width="360" height="203"/><path d="M154.7371,77.11337h8.924c3.90108,0,6.53879,2.35733,6.53879,5.809a5.54834,5.54834,0,0,1-4.04118,5.38813l4.37792,8.44721h-3.25535l-4.06894-8.05429H157.6838v8.05429h-2.9467Zm2.9467,2.58188V86.262h5.72488c2.30132,0,3.81647-1.31886,3.81647-3.28344,0-1.99233-1.51515-3.28327-3.81647-3.28327Z"/><path d="M178.89927,97.01015a7.35049,7.35049,0,0,1-7.49317-7.40856,7.17777,7.17777,0,0,1,7.15643-7.35273c3.92883,0,6.90329,3.25536,6.90329,7.46474v.81393H174.18461a4.81819,4.81819,0,0,0,4.82668,4.09737,5.5554,5.5554,0,0,0,3.62018-1.263l1.796,1.768A8.51777,8.51777,0,0,1,178.89927,97.01015Zm-4.68657-8.58732h8.47495a4.26065,4.26065,0,0,0-8.47495,0Z"/><path d="M199.13227,95.41073a6.74742,6.74742,0,0,1-4.37792,1.57133A7.36665,7.36665,0,1,1,199.10418,83.652V77.11337l2.80626-.6173V96.75768h-2.77817Zm-3.985-.8701a5.14787,5.14787,0,0,0,3.95691-1.71178V86.34623a5.22321,5.22321,0,0,0-3.95691-1.684,4.93994,4.93994,0,0,0,0,9.87843Z"/><path d="M211.42335,77.11337h2.94671v8.41894h10.43919V77.11337H227.756V96.75768h-2.94671V88.19846H214.37006v8.55922h-2.94671Z"/><path d="M230.42142,92.66031c0-2.6939,2.189-4.34984,5.781-4.34984a10.08181,10.08181,0,0,1,3.90074.78584V87.58082c0-2.02042-1.2065-3.03063-3.47973-3.03063a10.15654,10.15654,0,0,0-4.4341,1.2065l-1.03831-2.1047a13.37013,13.37013,0,0,1,5.86533-1.45931c3.70445,0,5.83723,1.82414,5.83723,5.10758v9.45742h-2.75042V95.52275a6.77587,6.77587,0,0,1-4.43376,1.4874C232.5542,97.01015,230.42142,95.24219,230.42142,92.66031Zm5.89341,2.27323a5.49284,5.49284,0,0,0,3.78838-1.34695V91.11673a7.42069,7.42069,0,0,0-3.67636-.86976c-2.04851,0-3.31119.92594-3.31119,2.35716C233.11566,93.97917,234.40643,94.93354,236.31483,94.93354Z"/><path d="M247.37166,84.83074h-3.031V82.47358h3.031V78.82531l2.77817-.67347v4.32174h4.20973v2.35716h-4.20973V92.576c0,1.45931.58955,1.99268,2.10469,1.99268a5.51646,5.51646,0,0,0,2.04886-.33674v2.35716a9.28688,9.28688,0,0,1-2.66615.421c-2.77817,0-4.26557-1.31886-4.26557-3.78838Z"/><path d="M163.74542,106.57889c3.95691,0,6.65115,2.189,6.65115,5.38814a4.84522,4.84522,0,0,1-2.41368,4.12546,4.95122,4.95122,0,0,1,3.08716,4.4341c0,3.42355-2.75042,5.69678-6.87554,5.69678h-9.68179V106.57889Zm-5.16342,3.36772v4.65848h4.911c1.73986,0,2.86243-.89785,2.86243-2.32907s-1.12257-2.32941-2.86243-2.32941Zm8.39068,10.35526c0-1.51549-1.2065-2.5257-3.08681-2.5257H158.582v5.07949h5.30387C165.76618,122.85566,166.97268,121.87354,166.97268,120.30187Z"/><path d="M177.10323,124.231a2.28715,2.28715,0,1,1-2.30133-2.30132A2.30586,2.30586,0,0,1,177.10323,124.231Z"/><path d="M187.65478,126.50393c-5.30387,0-8.69933-3.3958-8.69933-8.78394v-11.1411h4.06894V117.72c0,3.05907,1.82413,5.02331,4.65848,5.02331,2.8066,0,4.60264-1.96424,4.60264-5.02331v-11.1411h4.06894V117.72C196.35445,123.08038,192.9309,126.50393,187.65478,126.50393Z"/><path d="M202.80829,124.231a2.28715,2.28715,0,1,1-2.301-2.30132A2.30578,2.30578,0,0,1,202.80829,124.231Z"/><path d="M205.67073,106.57889H209.74v19.64448h-4.06928Z"/><path d="M217.20406,124.231a2.28715,2.28715,0,1,1-2.30132-2.30132A2.30586,2.30586,0,0,1,217.20406,124.231Z"/><path d="M220.0665,106.57889h4.06928v16.05239H234.884v3.59209H220.0665Z"/><path d="M241.59027,124.231a2.28715,2.28715,0,1,1-2.30132-2.30132A2.30586,2.30586,0,0,1,241.59027,124.231Z"/><path d="M244.45236,106.57889h7.549c5.865,0,10.38336,4.29366,10.38336,9.87842,0,5.5005-4.51838,9.76606-10.38336,9.76606h-7.549Zm4.06928,3.62018v12.40412h3.45164a6.20206,6.20206,0,1,0,0-12.40412Z"/><path d="M267.88454,124.231a2.28715,2.28715,0,1,1-2.301-2.30132A2.30578,2.30578,0,0,1,267.88454,124.231Z"/><path class="b4772297-c256-430b-874e-87c5ec5e2f64" d="M99.5331,94.43318a1.57852,1.57852,0,0,1-1.11624-2.69475l9.90977-9.9096a1.57859,1.57859,0,0,1,2.23247,2.23247l-9.90977,9.9096A1.57432,1.57432,0,0,1,99.5331,94.43318Z"/><path class="b4772297-c256-430b-874e-87c5ec5e2f64" d="M108.62654,96.53051a1.57852,1.57852,0,0,1-1.11623-2.69475L117.553,83.79325a1.57859,1.57859,0,0,1,2.23247,2.23247l-10.04268,10.0425A1.57433,1.57433,0,0,1,108.62654,96.53051Z"/><path class="b91849bc-0fe7-43aa-b7d3-efc9e6d7116a" d="M115.43168,100.97763a1.57852,1.57852,0,0,1-1.11623-2.69475l8.51331-8.51332a1.57859,1.57859,0,1,1,2.23247,2.23247l-8.51332,8.51332A1.574,1.574,0,0,1,115.43168,100.97763Z"/><path class="a86517b0-f595-463b-963f-e7cfdd844ebf" d="M118.01493,109.62643a1.57852,1.57852,0,0,1-1.11623-2.69475l10.99842-10.99843a1.57859,1.57859,0,0,1,2.23247,2.23247l-10.99843,10.99843A1.574,1.574,0,0,1,118.01493,109.62643Z"/><path class="a86517b0-f595-463b-963f-e7cfdd844ebf" d="M119.1769,119.68949a1.57852,1.57852,0,0,1-1.11624-2.69475l6.46549-6.46549a1.57859,1.57859,0,0,1,2.23247,2.23247l-6.46549,6.46549A1.574,1.574,0,0,1,119.1769,119.68949Z"/><path d="M121.75655,128.33487H116.144a1.57848,1.57848,0,0,1-1.57852-1.57852v-3.088l-3.27934-3.27917a1.57909,1.57909,0,0,1-.46228-1.11623V104.96007l-2.817-2.817H99.30649a1.57911,1.57911,0,0,1-1.11623-.46228l-5.61251-5.61252a1.57906,1.57906,0,0,1-.46229-1.11623V87.46875a1.57906,1.57906,0,0,1,.46229-1.11623l11.225-11.225a1.57883,1.57883,0,0,1,1.44493-.42769l17.41064,3.707h4.71072a1.57836,1.57836,0,0,1,1.54427,1.25172l1.91166,9.03367,4.68126,4.68126h6.82963a1.57861,1.57861,0,0,1,1.11623,2.69475l-10.76274,10.76257V117.402a1.57913,1.57913,0,0,1-.46228,1.11624l-9.35431,9.3543A1.5791,1.5791,0,0,1,121.75655,128.33487Zm-4.034-3.157h3.38021l8.42956-8.42956V106.177a1.57914,1.57914,0,0,1,.46229-1.11624l8.53044-8.53027h-3.67259a1.57906,1.57906,0,0,1-1.11623-.46229l-5.47481-5.4748a1.57784,1.57784,0,0,1-.428-.78943l-1.7438-8.24013h-3.5974a1.5816,1.5816,0,0,1-.32869-.0346l-16.7346-3.56314L95.2725,88.12253v6.17568L99.96027,98.986h8.70053a1.5791,1.5791,0,0,1,1.11623.46229l3.74162,3.74179a1.5791,1.5791,0,0,1,.46229,1.11623v14.31287l3.27933,3.27916a1.57914,1.57914,0,0,1,.46229,1.11624Zm13.38829-7.77579h0Z"/><path d="M133.727,123.43111a1.57852,1.57852,0,0,1-1.11623-2.69475l3.74179-3.74162a1.57859,1.57859,0,1,1,2.23246,2.23247l-3.74179,3.74162A1.57432,1.57432,0,0,1,133.727,123.43111Z"/></svg>