<svg id="ef9bcc58-2e17-458e-ba34-ddb808de7132" data-name="Layer 1" xmlns="http://www.w3.org/2000/svg" viewBox="0 0 360 203"><defs><style>.f0176322-0b4b-4cf9-9ea5-417f9ca61337{fill:#f0f0f0;}.b2b16df0-0be0-4edc-8a20-76488a406304{fill:#f5823d;}.ec84bc88-d589-407f-b58a-aba89cb84485{fill:#fee96b;}.b8a62831-61af-4528-9769-29520709f2f8{fill:#ed1c24;}.ea643599-d013-4dd7-897e-ed1a7a7e7c2c{fill:#c0d681;}.e1d40e83-6f87-4755-a284-4ade1129e460{fill:#5d4ea0;}.f80ee235-d24c-400b-87ba-f5508bc27f86{fill:#4cb6d6;}</style></defs><rect class="f0176322-0b4b-4cf9-9ea5-417f9ca61337" x="0.12657" width="360" height="203"/><path d="M168.38034,79.71424V86.281h5.72475c2.30148,0,3.81651-1.31884,3.81651-3.28325,0-1.99251-1.515-3.28347-3.81651-3.28347Zm-2.94658-2.58185h8.92389c3.901,0,6.53893,2.35732,6.53893,5.80913a5.54871,5.54871,0,0,1-4.04136,5.38815l4.37811,8.447h-3.2556L173.909,88.72257h-5.52867v8.05411h-2.94658V77.13239Z"/><path d="M184.90918,88.44184h8.4749a4.26063,4.26063,0,0,0-8.4749,0Zm4.68644,8.58748a7.35044,7.35044,0,0,1-7.49305-7.40875,7.1777,7.1777,0,0,1,7.1563-7.35252c3.92913,0,6.90339,3.25535,6.90339,7.46473v.81393H184.88113a4.81805,4.81805,0,0,0,4.82674,4.09717,5.55539,5.55539,0,0,0,3.62008-1.26281l1.796,1.76794a8.51916,8.51916,0,0,1-5.52834,1.88031Z"/><path d="M205.84385,94.55962a5.14813,5.14813,0,0,0,3.95682-1.71177v-6.4826a5.22325,5.22325,0,0,0-3.95682-1.68385,4.93983,4.93983,0,0,0,0,9.87822Zm3.9849.87013a6.74738,6.74738,0,0,1-4.37777,1.5715,7.36665,7.36665,0,1,1,4.34969-13.33008V77.13239l2.80627-.61731v20.2616h-2.77819V95.42975Z"/><polygon points="222.12 77.132 225.067 77.132 225.067 85.551 235.506 85.551 235.506 77.132 238.453 77.132 238.453 96.777 235.506 96.777 235.506 88.217 225.067 88.217 225.067 96.777 222.12 96.777 222.12 77.132 222.12 77.132"/><path d="M247.01129,94.95254a5.4925,5.4925,0,0,0,3.78844-1.34694V91.13592a7.42036,7.42036,0,0,0-3.67653-.86994c-2.04821,0-3.311.92611-3.311,2.35733,0,1.375,1.29088,2.32923,3.19912,2.32923Zm-5.89349-2.273c0-2.69408,2.18923-4.34983,5.78124-4.34983a10.08229,10.08229,0,0,1,3.90069.78582V87.6c0-2.0206-1.20669-3.03081-3.47975-3.03081a10.15492,10.15492,0,0,0-4.43423,1.20668l-1.03833-2.1047a13.371,13.371,0,0,1,5.86543-1.45932c3.70463,0,5.83738,1.82414,5.83738,5.10761v9.45722h-2.7505V95.54193a6.77636,6.77636,0,0,1-4.43387,1.48739c-3.1153,0-5.24806-1.76812-5.24806-4.34982Z"/><path d="M258.06829,84.84976h-3.0311V82.49258h3.0311V78.8443l2.7782-.67346v4.32174h4.20974v2.35718h-4.20974v7.74545c0,1.45933.58932,1.99252,2.10469,1.99252a5.51192,5.51192,0,0,0,2.04857-.33675V96.6083a9.29068,9.29068,0,0,1-2.666.421c-2.7782,0-4.26551-1.319-4.26551-3.78855v-8.391Z"/><path d="M169.27833,110.10611v5.36h5.33224a2.68973,2.68973,0,1,0,0-5.36Zm-4.06907-3.5082h9.85c3.873,0,6.595,2.55408,6.595,6.17415,0,3.50783-2.77819,6.06152-6.595,6.06152h-5.78089v7.40887h-4.06907V106.59791Z"/><path d="M184.06731,111.62115h3.84457v1.5999a4.65075,4.65075,0,0,1,3.90069-1.93631,3.32186,3.32186,0,0,1,1.59957.33641v3.3682a4.89941,4.89941,0,0,0-1.96438-.39322,3.8696,3.8696,0,0,0-3.53588,2.18887v9.45745h-3.84457v-14.6213Z"/><path d="M199.33335,126.24245h-3.84457v-14.6213h3.84457v14.6213Zm-4.12556-18.54971a2.18906,2.18906,0,1,1,2.18923,2.18887,2.192,2.192,0,0,1-2.18923-2.18887Z"/><path d="M209.71613,123.15521a4.68876,4.68876,0,0,0,3.47977-1.40313v-5.6967a4.82635,4.82635,0,0,0-3.47977-1.37507,4.23754,4.23754,0,1,0,0,8.4749Zm3.5359,1.88019a6.62867,6.62867,0,0,1-4.15328,1.40313,7.507,7.507,0,0,1,.11191-15.01347,7.268,7.268,0,0,1,3.98524,1.15056v-5.97771l3.84493-.84167v20.48621H213.252V125.0354Z"/><path d="M223.242,117.48658h7.1563a3.77277,3.77277,0,0,0-3.56393-2.94692,3.67323,3.67323,0,0,0-3.59237,2.94692Zm4.0133,9.03648a7.61219,7.61219,0,0,1-7.85822-7.57724,7.46345,7.46345,0,0,1,7.52112-7.57689c4.15361,0,7.24014,3.36751,7.24014,7.85787v1.00991H223.27a4.21256,4.21256,0,0,0,4.15327,3.05882,4.60268,4.60268,0,0,0,3.2272-1.17828l2.526,2.30112a8.765,8.765,0,0,1-5.9212,2.10469Z"/><path class="b2b16df0-0be0-4edc-8a20-76488a406304" d="M108.86962,95.4424a1.57879,1.57879,0,0,1-.732-2.978,44.65287,44.65287,0,0,1,15.764-4.77291,1.57854,1.57854,0,0,1,.33534,3.13922,41.46779,41.46779,0,0,0-14.638,4.43207,1.57193,1.57193,0,0,1-.72931.17966Z"/><path class="ec84bc88-d589-407f-b58a-aba89cb84485" d="M110.66668,102.025a1.57865,1.57865,0,0,1-.73409-2.97683,44.64912,44.64912,0,0,1,15.68793-4.7885,1.57855,1.57855,0,0,1,.345,3.1382,41.46241,41.46241,0,0,0-14.56707,4.44627,1.57266,1.57266,0,0,1-.73173.18086Z"/><path class="b8a62831-61af-4528-9769-29520709f2f8" d="M107.10406,88.87467a1.57876,1.57876,0,0,1-.7492-2.969,44.60533,44.60533,0,0,1,15.67354-4.95378,1.57858,1.57858,0,0,1,.37513,3.13479,41.41752,41.41752,0,0,0-14.553,4.59921,1.57161,1.57161,0,0,1-.74643.18875Z"/><path class="ea643599-d013-4dd7-897e-ed1a7a7e7c2c" d="M140.2448,90.47425c-.04139,0-.08279-.00155-.12488-.00478a34.97434,34.97434,0,0,0-4.764-.03189,1.57854,1.57854,0,1,1-.181-3.15188,38.08151,38.08151,0,0,1,5.19087.03631,1.57852,1.57852,0,0,1-.121,3.15224Z"/><path class="e1d40e83-6f87-4755-a284-4ade1129e460" d="M143.54671,103.7906c-.04981,0-.09963-.002-.15014-.00683a45.62167,45.62167,0,0,0-5.14-.19288l-.03086.00036a1.57849,1.57849,0,0,1-.02982-3.15669,48.78015,48.78015,0,0,1,5.4971.20588,1.57856,1.57856,0,0,1-.14627,3.15016Z"/><path class="f80ee235-d24c-400b-87ba-f5508bc27f86" d="M141.858,96.99953c-.02981,0-.06-.00088-.09015-.00257-1.64867-.09284-3.3205-.12848-4.97093-.106l-.0221.00018a1.5785,1.5785,0,0,1-.02069-3.15686c1.72374-.0228,3.46923.01385,5.19122.11081a1.5785,1.5785,0,0,1-.08735,3.15448Z"/><path d="M102.83371,83.62441a58.77265,58.77265,0,0,1,21.89442-7.51614l5.15035,24.2314a61.85328,61.85328,0,0,0-21.83579,7.73752l-5.209-24.45278Zm-4.689-3.84986a1.92419,1.92419,0,1,1,.83413,1.214,1.91272,1.91272,0,0,1-.83413-1.214ZM108.73706,111.337a58.82276,58.82276,0,0,1,23.23665-8.10442,1.57862,1.57862,0,0,0,1.34489-1.894l-5.80306-27.30089a1.5769,1.5769,0,0,0-1.7176-1.24076,61.93384,61.93384,0,0,0-20.72115,6.04381,5.08307,5.08307,0,1,0-5.29566,5.6055l5.5954,26.26673a1.5692,1.5692,0,0,0,.085.3999l3.8024,17.85025a1.57856,1.57856,0,1,0,3.08784-.65772L108.73706,111.337Z"/><path d="M152.41027,109.48979l-6.31408-27.113-.01648-.06437-.16873-.60636a1.57833,1.57833,0,0,0-1.33788-1.14552,62.59609,62.59609,0,0,0-10.55609-.33176,1.57853,1.57853,0,1,0,.168,3.15258,59.46422,59.46422,0,0,1,8.94985.19987l5.66689,24.33389a63.01905,63.01905,0,0,0-26.93161,1.55994,1.57858,1.57858,0,1,0,.855,3.03917,59.7604,59.7604,0,0,1,27.70631-1.09969,1.57965,1.57965,0,0,0,.52477.01507l.1333-.01824a1.5786,1.5786,0,0,0,1.32069-1.92158Z"/></svg>