<?xml version="1.0" encoding="utf-8"?>
<!-- Generator: Adobe Illustrator 27.4.1, SVG Export Plug-In . SVG Version: 6.00 Build 0)  -->
<svg version="1.1" id="a" xmlns="http://www.w3.org/2000/svg" xmlns:xlink="http://www.w3.org/1999/xlink" x="0px" y="0px"
	 viewBox="0 0 555 320" style="enable-background:new 0 0 555 320;" xml:space="preserve">
<style type="text/css">
	.st0{opacity:0.5;fill:#A2C0E8;enable-background:new    ;}
	.st1{fill:#82C299;}
	.st2{opacity:0.5;fill:#6197D8;enable-background:new    ;}
	.st3{fill:none;stroke:#6C97D3;stroke-width:0.5;stroke-linecap:round;stroke-linejoin:round;}
	.st4{fill:none;stroke:#6C97D3;stroke-width:0.5;stroke-linecap:round;stroke-linejoin:round;stroke-dasharray:0,0,1.9988,1.9988;}
	
		.st5{fill:none;stroke:#6C97D3;stroke-width:0.5;stroke-linecap:round;stroke-linejoin:round;stroke-dasharray:0,0,1.98928,1.98928;}
</style>
<path class="st0" d="M63.62828,88.38071v143.23859h427.74344V88.38071H63.62828z M473.44553,212.76236H81.5545V107.23723h391.89102
	V212.76236z"/>
<path d="M170.60774,112.57814h11.34239c5.0097,0,8.37282,3.00583,8.37282,7.40668c0,3.2561-2.00345,5.79677-5.15254,6.83408
	l5.58188,10.80605h-4.15059l-5.18791-10.26926h-7.04898v10.26926h-3.75706V112.57814z M181.66405,124.20705
	c2.9342,0,4.90182-1.64574,4.90182-4.18641c0-2.50442-1.96764-4.15059-4.90182-4.15059h-7.29924v8.337H181.66405z"/>
<path d="M191.86081,128.5009c0-5.25998,4.00777-9.41057,9.1245-9.41057c5.00928,0,8.80171,4.18641,8.80171,9.5892v1.00194h-14.34778
	c0.50098,3.00583,2.96957,5.22417,6.11823,5.22417c1.789,0,3.47098-0.5726,4.61575-1.61035l2.28996,2.25415
	c-2.14671,1.64618-4.32922,2.39742-7.04854,2.39742C196.04721,137.94685,191.86081,133.83208,191.86081,128.5009z
	 M206.24484,126.99799c-0.50098-2.79094-2.68349-4.86601-5.33118-4.86601c-2.75513,0-4.93808,1.96764-5.43861,4.86601H206.24484z"/>
<path d="M212.39844,128.5009c0-5.25998,4.04315-9.37476,9.26732-9.37476c2.00345,0,3.89989,0.64423,5.47443,1.82481v-8.37282
	l3.57799-0.67961v25.72643h-3.54218v-1.75317c-1.50291,1.32384-3.43517,2.03926-5.58188,2.03926
	C216.44157,137.91104,212.39844,133.79626,212.39844,128.5009z M227.14018,132.57986v-8.19374
	c-1.18102-1.35966-3.04164-2.18296-5.0809-2.18296c-3.47098,0-6.15448,2.68393-6.15448,6.26192
	c0,3.578,2.68349,6.33311,6.15448,6.33311C224.13435,134.7982,225.95917,134.01115,227.14018,132.57986z"/>
<path d="M242.84674,112.57814h3.75706v10.73441h13.31047v-10.73441h3.75708v25.04681h-3.75708v-10.91305h-13.31046v10.91305
	h-3.75706v-25.04681H242.84674z"/>
<path d="M267.06982,132.40079c0-3.43474,2.79092-5.54606,7.37088-5.54606c1.75317,0,3.47055,0.35771,4.97345,1.03776v-1.93226
	c0-2.57605-1.53873-3.89989-4.4371-3.89989c-1.68155,0-3.39893,0.46516-5.65308,1.53829l-1.32385-2.68349
	c2.75513-1.28802,5.0809-1.86063,7.47787-1.86063c4.759,0,7.4425,2.32578,7.4425,6.47637v12.09407h-3.50635v-1.57454
	c-1.61035,1.28802-3.43518,1.89644-5.6535,1.89644C269.82495,137.94685,267.06982,135.6927,267.06982,132.40079z
	 M274.58353,135.26335c1.93225,0,3.50681-0.53679,4.83063-1.71736v-3.07745c-1.35965-0.78705-2.86258-1.14476-4.68738-1.14476
	c-2.61188,0-4.22223,1.18057-4.22223,3.00539c0,1.75317,1.64618,2.9342,4.07895,2.9342L274.58353,135.26335z"/>
<path d="M288.85968,133.11665v-10.69859h-3.8645v-3.00539h3.8645v-4.65157l3.54218-0.85868v5.51025h5.36743v3.00539h-5.36743
	v9.87529c0,1.86063,0.75168,2.57649,2.6835,2.57649c1.00195,0,1.7178-0.10745,2.6123-0.42934v3.00539
	c-0.96613,0.3219-2.3616,0.50098-3.39935,0.50098c-3.54218,0-5.43863-1.64574-5.43863-4.8302V133.11665z"/>
<path d="M170.32167,150.14705h6.65501l6.8699,13.48953l6.8699-13.48953h6.65544v25.04681h-4.90227v-18.42719l-8.69472,16.63818
	l-8.65889-16.70981v18.49881h-4.79439V150.14705z"/>
<path d="M200.69833,165.89073c0-5.4028,4.22223-9.66084,9.5892-9.66084c5.29536,0,9.23149,4.29385,9.23149,10.01855v1.28802
	H205.7076c0.64423,2.28996,2.64767,3.90033,5.22417,3.90033c1.64574,0,3.14865-0.53679,4.11478-1.50291l3.22028,2.9342
	c-2.28996,1.86063-4.57994,2.68349-7.58575,2.68349c-5.61769,0-9.98274-4.22223-9.98274-9.66084H200.69833z M214.6884,164.03011
	c-0.53635-2.21834-2.32578-3.75706-4.5083-3.75706c-2.25415,0-4.00734,1.4671-4.54411,3.75706h9.05243H214.6884z"/>
<path d="M222.524,156.55179h4.90182v1.50291c1.39546-1.2164,3.18446-1.86063,5.22417-1.86063
	c4.32922,0,7.37086,3.04164,7.37086,7.4425v11.55728h-4.90182v-10.84186c0-2.39697-1.50291-3.9357-3.86452-3.9357
	c-1.64574,0-2.97002,0.68004-3.82869,1.86063v12.91693H222.524V156.55179z"/>
<path d="M245.74469,169.93388v-9.30269H241.916v-4.07941h3.82869v-4.75858l4.90182-1.10939v5.86797h5.3316v4.07941h-5.3316v8.30075
	c0,1.75362,0.68004,2.39742,2.57649,2.39742c0.93031,0,1.64574-0.10745,2.61186-0.42934v4.04358
	c-1.03775,0.3219-2.71931,0.53635-3.79288,0.53635C247.8914,175.47995,245.74469,173.58394,245.74469,169.93388z"/>
<path d="M257.51599,169.79106c0-3.54262,2.82675-5.6535,7.58575-5.6535c1.60992,0,3.14865,0.25026,4.57993,0.75124v-1.35965
	c0-2.14671-1.32385-3.25609-3.93613-3.25609c-1.5741,0-3.3273,0.46515-5.68887,1.53873l-1.789-3.6138
	c2.93375-1.35965,5.58188-2.00389,8.30118-2.00389c5.0451,0,7.94302,2.50485,7.94302,6.90572v12.09407h-4.8302v-1.32384
	c-1.53873,1.14476-3.2919,1.64574-5.36697,1.64574c-4.04358,0-6.79871-2.32578-6.79871-5.7247V169.79106z M265.56689,172.0094
	c1.60992,0,3.0054-0.39352,4.11478-1.21683v-2.71931c-1.2164-0.50098-2.50485-0.71542-3.93613-0.71542
	c-2.25415,0-3.578,0.8945-3.578,2.32578s1.32385,2.32578,3.39935,2.32578V172.0094z"/>
<path d="M278.2327,150.14705l4.90182-0.82286v25.86969h-4.90182v-25.04681V150.14705z"/>
<path d="M294.47562,150.14705h5.18835v10.09018h11.52145v-10.09018h5.18835v25.04681h-5.18835v-10.26926h-11.52145v10.26926
	h-5.18835V150.14705z"/>
<path d="M319.73599,165.89073c0-5.4028,4.22223-9.66084,9.5892-9.66084c5.29581,0,9.23151,4.29385,9.23151,10.01855v1.28802
	h-13.81143c0.64423,2.28996,2.6481,3.90033,5.22415,3.90033c1.64572,0,3.14865-0.53679,4.11478-1.50291l3.22028,2.9342
	c-2.28998,1.86063-4.57993,2.68349-7.58533,2.68349c-5.61771,0-9.98318-4.22223-9.98318-9.66084H319.73599z M333.7265,164.03011
	c-0.53677-2.21834-2.32578-3.75706-4.5083-3.75706c-2.25415,0-4.00778,1.4671-4.54413,3.75706H333.7265z"/>
<path d="M340.59598,169.79106c0-3.54262,2.82675-5.6535,7.58575-5.6535c1.60992,0,3.14865,0.25026,4.57993,0.75124v-1.35965
	c0-2.14671-1.32385-3.25609-3.93613-3.25609c-1.5741,0-3.3273,0.46515-5.68887,1.53873l-1.789-3.6138
	c2.93375-1.35965,5.58188-2.00389,8.30118-2.00389c5.0451,0,7.94302,2.50485,7.94302,6.90572v12.09407h-4.8302v-1.32384
	c-1.53873,1.14476-3.2919,1.64574-5.36697,1.64574c-4.04358,0-6.79871-2.32578-6.79871-5.7247V169.79106z M348.64688,172.0094
	c1.60992,0,3.0054-0.39352,4.11478-1.21683v-2.71931c-1.2164-0.50098-2.50485-0.71542-3.93613-0.71542
	c-2.25415,0-3.578,0.8945-3.578,2.32578s1.32385,2.32578,3.39935,2.32578V172.0094z"/>
<path d="M361.31268,150.14705l4.90182-0.82286v25.86969h-4.90182v-25.04681V150.14705z"/>
<path d="M372.58301,169.93388v-9.30269h-3.8287v-4.07941h3.8287v-4.75858l4.90182-1.10939v5.86797h5.3316v4.07941h-5.3316v8.30075
	c0,1.75362,0.68005,2.39742,2.57648,2.39742c0.9303,0,1.64572-0.10745,2.61188-0.42934v4.04358
	c-1.03775,0.3219-2.7193,0.53635-3.79288,0.53635C374.72971,175.47995,372.58301,173.58394,372.58301,169.93388z"/>
<path d="M385.21298,150.14705l4.90182-1.07314v8.98079c1.39548-1.2164,3.18448-1.86063,5.22415-1.86063
	c4.32922,0,7.37088,3.04164,7.37088,7.4425v11.55728h-4.90182v-10.84186c0-2.39697-1.5029-3.9357-3.8645-3.9357
	c-1.64572,0-2.97,0.68004-3.8287,1.86063v12.91693h-4.90182V150.14705z"/>
<path d="M412.76248,169.79106c0-3.54262,2.82675-5.6535,7.58575-5.6535c1.60992,0,3.14865,0.25026,4.57993,0.75124v-1.35965
	c0-2.14671-1.32385-3.25609-3.93613-3.25609c-1.5741,0-3.3273,0.46515-5.68887,1.53873l-1.789-3.6138
	c2.93375-1.35965,5.58188-2.00389,8.30118-2.00389c5.0451,0,7.94302,2.50485,7.94302,6.90572v12.09407h-4.8302v-1.32384
	c-1.53873,1.14476-3.2919,1.64574-5.36697,1.64574c-4.04358,0-6.79871-2.32578-6.79871-5.7247V169.79106z M420.81339,172.0094
	c1.60992,0,3.0054-0.39352,4.11478-1.21683v-2.71931c-1.2164-0.50098-2.50485-0.71542-3.93613-0.71542
	c-2.25415,0-3.578,0.8945-3.578,2.32578s1.32385,2.32578,3.39935,2.32578V172.0094z"/>
<path d="M433.47919,156.55179h4.90182v1.50291c1.39548-1.2164,3.18448-1.86063,5.22372-1.86063
	c4.32968,0,7.37088,3.04164,7.37088,7.4425v11.55728h-4.90182v-10.84186c0-2.39697-1.5029-3.9357-3.8645-3.9357
	c-1.64572,0-2.96957,0.68004-3.82825,1.86063v12.91693h-4.90182v-18.64207H433.47919z"/>
<path d="M453.83774,165.85492c0-5.36699,4.22177-9.55339,9.62503-9.55339c1.8248,0,3.578,0.50098,5.0809,1.4671v-7.62158
	l4.90182-0.82286v25.86969h-4.83063v-1.53873c-1.50247,1.18102-3.3273,1.789-5.29535,1.789
	c-5.29535,0-9.48175-4.22223-9.48175-9.5892L453.83774,165.85492z M468.54367,169.46872v-7.26343
	c-1.07358-1.10895-2.68393-1.75317-4.4371-1.75317c-3.07703,0-5.43863,2.32578-5.43863,5.4028
	c0,3.04164,2.3616,5.4028,5.43863,5.4028C465.89557,171.25772,467.4343,170.64973,468.54367,169.46872z"/>
<path d="M170.32167,187.7164h4.93765l12.45178,16.17259V187.7164h4.86601v25.04637h-4.57994l-12.77367-16.74519v16.74519h-4.90182
	V187.7164H170.32167z"/>
<path d="M195.93977,203.45964c0-5.4028,4.22223-9.66084,9.5892-9.66084c5.29536,0,9.23149,4.29385,9.23149,10.01898v1.28802
	h-13.81143c0.64423,2.28996,2.64767,3.89989,5.22417,3.89989c1.64574,0,3.14865-0.53679,4.11478-1.50291l3.22028,2.9342
	c-2.28996,1.86063-4.57994,2.68349-7.58575,2.68349c-5.61769,0-9.98274-4.22223-9.98274-9.66084L195.93977,203.45964z
	 M209.92984,201.59901c-0.53635-2.21834-2.32578-3.75662-4.5083-3.75662c-2.25415,0-4.00734,1.46666-4.54411,3.75662h9.05243
	H209.92984z"/>
<path d="M217.62218,205.67798v-11.55684h4.90227v10.84142c0,2.39742,1.5383,3.9357,3.86407,3.9357
	c1.68199,0,2.97002-0.67961,3.86452-1.86063v-12.9165h4.90182v18.64163h-4.90182v-1.50291
	c-1.39546,1.21683-3.18446,1.86063-5.25998,1.86063c-4.32922,0-7.37086-3.0412-7.37086-7.4425L217.62218,205.67798z"/>
<path d="M238.98268,194.12114h4.90182v2.07507c1.18057-1.60992,2.89838-2.50443,4.97346-2.50443
	c1.00194,0.03581,1.53873,0.14282,2.0397,0.42934v4.29341c-0.71587-0.3219-1.61035-0.50098-2.50485-0.50098
	c-1.93225,0-3.57799,1.00194-4.5083,2.75513v12.09407h-4.90182v-18.64163L238.98268,194.12114z"/>
<path d="M251.97037,203.45964c0-5.43861,4.36505-9.69666,9.94693-9.69666s9.94693,4.25804,9.94693,9.69666
	s-4.36505,9.66084-9.94693,9.66084s-9.94691-4.22223-9.94691-9.66084H251.97037z M267.10565,203.45964
	c0-3.0412-2.28998-5.43861-5.18835-5.43861c-2.86258,0-5.15253,2.39742-5.15253,5.43861c0,3.04164,2.25458,5.40324,5.15253,5.40324
	C264.81567,208.86288,267.10565,206.50128,267.10565,203.45964z"/>
<path d="M274.01047,203.42383c0-5.36699,4.22223-9.55339,9.62503-9.55339c1.8248,0,3.57843,0.50098,5.0809,1.4671v-7.62114
	l4.90228-0.8233v25.86969h-4.83063v-1.53873c-1.5029,1.18102-3.32773,1.789-5.29535,1.789
	c-5.29581,0-9.48221-4.22179-9.48221-9.5892L274.01047,203.42383z M288.7164,207.03763v-7.26343
	c-1.07312-1.10895-2.6835-1.75317-4.43668-1.75317c-3.07703,0-5.43863,2.32578-5.43863,5.4028
	c0,3.04164,2.3616,5.40324,5.43863,5.40324c1.789,0,3.32773-0.60841,4.43668-1.78943V207.03763z"/>
<path d="M297.12418,189.11186c0-1.53873,1.2522-2.79094,2.79092-2.79094c1.5383,0,2.79092,1.25221,2.79092,2.79094
	c0,1.50247-1.25266,2.79094-2.79092,2.79094C298.37637,191.9028,297.12418,190.61433,297.12418,189.11186z M297.4819,194.12114
	h4.90182v18.64163h-4.90182V194.12114z"/>
<path d="M304.27969,194.12114h5.33118l5.11673,12.41597l5.0809-12.41595h5.22372l-8.01468,18.64163h-4.759l-7.97885-18.64163
	V194.12114z"/>
<path d="M325.56815,203.45964c0-5.4028,4.22223-9.66084,9.5892-9.66084c5.29581,0,9.23151,4.29385,9.23151,10.01898v1.28802
	h-13.81143c0.64423,2.28996,2.6481,3.89989,5.22415,3.89989c1.64572,0,3.14865-0.53679,4.11478-1.50291l3.22028,2.9342
	c-2.28998,1.86063-4.57993,2.68349-7.58533,2.68349c-5.61771,0-9.98318-4.22223-9.98318-9.66084L325.56815,203.45964z
	 M339.55865,201.59901c-0.53677-2.21834-2.32578-3.75662-4.5083-3.75662c-2.25415,0-4.00778,1.46666-4.54413,3.75662H339.55865z"/>
<path d="M347.39426,194.12114h4.90182v2.07507c1.18057-1.60992,2.89838-2.50443,4.97345-2.50443
	c1.00195,0.03581,1.53873,0.14282,2.0397,0.42934v4.29341c-0.71585-0.3219-1.61035-0.50098-2.50485-0.50098
	c-1.93225,0-3.578,1.00194-4.5083,2.75513v12.09407h-4.90182v-18.64163V194.12114z"/>
<path d="M360.63177,210.54443l2.43323-3.25609c2.18253,1.4671,4.07895,2.14671,6.04703,2.14671
	c2.18253,0,3.6138-0.78705,3.6138-2.00345c0-0.96613-0.71542-1.50291-2.32578-1.75362l-3.578-0.53635
	c-3.68542-0.53679-5.6535-2.43323-5.6535-5.43861c0-3.57843,3.00583-5.90421,7.7644-5.90421
	c2.7193,0,5.3316,0.78749,7.65738,2.32578l-2.3616,3.18446c-2.0397-1.25221-3.8645-1.82481-5.76096-1.82481
	c-1.75317,0-2.93375,0.75168-2.93375,1.82481c0,1.03775,0.71542,1.53873,2.54022,1.789l3.578,0.53679
	c3.64963,0.53679,5.68933,2.43323,5.68933,5.3316c0,3.54218-3.47055,6.15404-8.15793,6.15404
	c-3.39935,0-6.44055-0.8945-8.55188-2.57605V210.54443z"/>
<path d="M379.41623,189.11186c0-1.53873,1.25266-2.79094,2.79092-2.79094c1.53873,0,2.79092,1.25221,2.79092,2.79094
	c0,1.50247-1.2522,2.79094-2.79092,2.79094C380.66885,191.9028,379.41623,190.61433,379.41623,189.11186z M379.77438,194.12114
	h4.90182v18.64163h-4.90182V194.12114z"/>
<path d="M391.04425,207.50279v-9.30269H387.216v-4.07896h3.82825v-4.759l4.90228-1.10895v5.86797h5.33118v4.07896h-5.33118v8.30118
	c0,1.75317,0.6796,2.39697,2.57605,2.39697c0.9303,0,1.64618-0.10701,2.61188-0.42934v4.04358
	c-1.03732,0.3219-2.7193,0.53635-3.79245,0.53635c-4.1506,0-6.29773-1.89601-6.29773-5.54607H391.04425z"/>
<path d="M403.63843,220.2769v-4.22223c0.53677,0.10745,1.00195,0.14282,1.7178,0.14282c1.75317,0,3.0054-0.85869,3.72125-2.54024
	l0.28607-0.71542l-7.26343-18.82071h5.4028l4.65155,12.70204l5.25955-12.70204h5.29581l-8.58728,20.10873
	c-1.96808,4.54411-4.22223,6.22568-8.26538,6.22568c-0.85913,0-1.68198-0.07162-2.21878-0.17863H403.63843z"/>
<path class="st1" d="M130.11682,132.93417c-1.99777,0-3.94116,0.56299-5.61944,1.62782
	c-0.66367,0.42104-1.29501,0.93861-1.98685,1.62892c-0.78683,0.7851-0.78815,2.05957-0.00306,2.84641
	c0.78531,0.78705,2.05979,0.78836,2.84641,0.00305c0.47804-0.47717,0.89122-0.82025,1.29982-1.07947
	c1.03274-0.65515,2.23013-1.00151,3.46313-1.00151c3.57318,0,6.4803,2.90712,6.4803,6.4803
	c0,3.57341-2.90712,6.48053-6.4803,6.48053c-2.44371,0-3.98112-1.36577-6.0479-3.44937
	c-2.07224-2.08928-4.13771-4.18575-6.20318-6.2818l-2.74639-2.78635c-2.0528-2.08054-4.9062-4.46855-8.78316-4.46855
	c-5.79284,0-10.50555,4.71271-10.50555,10.50554s4.71271,10.50577,10.50555,10.50577c3.47797,0,5.79262-1.69923,7.42088-3.17944
	c0.82243-0.74774,0.88293-2.02071,0.13518-2.84314c-0.74774-0.82199-2.02048-0.88292-2.84313-0.13518
	c-1.66582,1.51471-3.03138,2.13251-4.71293,2.13251c-3.57319,0-6.48031-2.90712-6.48031-6.48053
	c0-3.57318,2.90712-6.4803,6.48031-6.4803c1.91129,0,3.62582,0.94757,5.91775,3.27029l2.74464,2.78439
	c2.06853,2.09932,4.13705,4.19885,6.21257,6.2914c2.0504,2.06721,4.60221,4.63998,8.90567,4.63998
	c5.79283,0,10.50554-4.71294,10.50554-10.50577s-4.71271-10.50554-10.50554-10.50554V132.93417z"/>
<path d="M154.10469,137.80194c0-7.61678-4.53233-14.46767-11.42581-17.50473c-0.00153-0.05536-0.00647-0.10985-0.00865-0.16505
	c-0.00429-0.10826-0.0101-0.21609-0.01695-0.32367c-0.00754-0.11817-0.01637-0.23596-0.02695-0.35332
	c-0.00969-0.10728-0.02069-0.2141-0.0329-0.32067c-0.01332-0.11653-0.02809-0.2326-0.04439-0.34821
	c-0.01485-0.10532-0.03087-0.21017-0.04816-0.31469c-0.01903-0.11504-0.03958-0.22947-0.06152-0.34354
	c-0.01993-0.10354-0.04082-0.20662-0.06311-0.30929c-0.0246-0.1132-0.05075-0.22575-0.07819-0.33789
	c-0.02484-0.10158-0.05051-0.20274-0.07767-0.30339c-0.03-0.11132-0.06172-0.22188-0.0945-0.33202
	c-0.02954-0.09928-0.05975-0.19821-0.09154-0.29651c-0.03539-0.10938-0.07248-0.21786-0.11055-0.32602
	c-0.03421-0.09721-0.06895-0.19415-0.10535-0.29031c-0.04031-0.1066-0.08249-0.21221-0.12543-0.31753
	c-0.03889-0.09541-0.07822-0.19054-0.11923-0.28485c-0.04523-0.10395-0.09235-0.20681-0.14009-0.30936
	c-0.04329-0.09298-0.08684-0.18576-0.1322-0.27757c-0.05013-0.10149-0.1022-0.20173-0.15479-0.30178
	c-0.04747-0.0903-0.09508-0.18038-0.14455-0.26945c-0.0549-0.09885-0.11172-0.19636-0.16902-0.29367
	c-0.05154-0.08752-0.10304-0.1749-0.15648-0.26113c-0.05965-0.09625-0.12131-0.191-0.1833-0.28562
	c-0.05525-0.08438-0.11041-0.16873-0.1675-0.25177c-0.06418-0.09336-0.13043-0.18505-0.1969-0.2767
	c-0.05902-0.08141-0.11787-0.16286-0.17867-0.24287c-0.06854-0.09019-0.13922-0.17858-0.20995-0.267
	c-0.0627-0.07835-0.12508-0.15682-0.18947-0.23373c-0.07272-0.08684-0.14755-0.17171-0.2224-0.25665
	c-0.06606-0.07499-0.13174-0.15025-0.19942-0.22373c-0.07715-0.08375-0.15642-0.16534-0.23564-0.24713
	c-0.06923-0.07146-0.13799-0.14331-0.20877-0.21323c-0.08093-0.07996-0.16403-0.15759-0.24699-0.2355
	c-0.07253-0.06811-0.14455-0.13671-0.21855-0.20323c-0.08484-0.07624-0.17181-0.15-0.25859-0.22409
	c-0.0755-0.06448-0.15044-0.12959-0.22739-0.19242c-0.08844-0.07223-0.17905-0.14178-0.26932-0.21178
	c-0.07851-0.06087-0.15636-0.12248-0.23627-0.18167c-0.092-0.06814-0.18614-0.13338-0.27991-0.1992
	c-0.08131-0.05708-0.16193-0.11504-0.24457-0.17034c-0.09508-0.06363-0.19231-0.12423-0.28908-0.18549
	c-0.08427-0.05334-0.16783-0.10774-0.25336-0.15929c-0.09839-0.05927-0.1989-0.11525-0.29889-0.17206
	c-0.08667-0.04925-0.17261-0.09964-0.26045-0.14697c-0.10147-0.05468-0.20499-0.10586-0.308-0.15797
	c-0.08919-0.04512-0.17755-0.09158-0.26785-0.13474c-0.10458-0.04998-0.21118-0.09631-0.31723-0.14364
	c-0.09114-0.0407-0.18143-0.0829-0.27361-0.12161c-0.10884-0.0457-0.21964-0.08741-0.32993-0.13032
	c-0.09169-0.03568-0.18257-0.07302-0.27524-0.10674c-0.11279-0.04103-0.22752-0.07777-0.34166-0.11582
	c-0.09268-0.0309-0.18448-0.06368-0.27803-0.0926c-0.11639-0.03595-0.23471-0.06743-0.35242-0.1003
	c-0.09328-0.02604-0.18568-0.05416-0.27975-0.07824c-0.1209-0.03093-0.24361-0.05702-0.3658-0.08465
	c-0.093-0.02102-0.18513-0.0443-0.27885-0.06339c-0.12579-0.0256-0.25336-0.0461-0.3804-0.06814
	c-0.09192-0.01595-0.18292-0.03442-0.27547-0.04848c-0.13196-0.02007-0.26558-0.03467-0.39877-0.05083
	c-0.08937-0.01086-0.1779-0.02446-0.26779-0.03355c-0.15123-0.01526-0.30412-0.02462-0.45677-0.03483
	c-0.07297-0.00486-0.14511-0.01266-0.21841-0.01638c-0.22687-0.01144-0.4552-0.01739-0.68488-0.01739
	c-0.26222,0-0.52219,0.00953-0.78075,0.02443c-0.09612,0.00546-0.19144,0.01444-0.28717,0.0219
	c-0.15431,0.0122-0.30814,0.02579-0.46095,0.04321c-0.13362,0.01491-0.26648,0.03216-0.39921,0.05088
	c-0.08675,0.01253-0.17307,0.02631-0.2593,0.04051c-3.75447,0.60217-7.1134,2.71393-9.23341,5.71498
	c-2.52517-3.57406-6.80526-5.89591-11.42079-5.89591c-7.28265,0-13.23009,5.82471-13.4286,13.05997
	c-6.89371,3.03706-11.42581,9.88796-11.42581,17.50472c0,3.76427,1.07794,7.35318,3.13184,10.47235
	c-2.02922,2.78461-3.13184,6.10818-3.13184,9.51408c0,8.05092,5.81928,14.75711,13.70129,16.00981
	c1.96406,2.93881,5.05527,5.06107,8.65046,5.74788c0.0359,0.00693,0.07204,0.01266,0.10802,0.01933
	c0.20361,0.03719,0.40859,0.06989,0.61526,0.09773c0.08083,0.01103,0.16171,0.02141,0.24287,0.03096
	c0.16846,0.01958,0.33801,0.03511,0.50829,0.04837c0.0929,0.00731,0.18549,0.01591,0.27874,0.02124
	c0.21847,0.01245,0.43843,0.01907,0.65955,0.0209c0.03008,0.00021,0.05984,0.00284,0.08995,0.00284
	c0.00325,0,0.00644-0.00032,0.00969-0.00032c0.00423,0,0.00835,0.00032,0.01258,0.00032c0.27827,0,0.55388-0.01128,0.828-0.02803
	c0.04403-0.00276,0.08765-0.00685,0.13158-0.01003c0.25146-0.01785,0.50089-0.04272,0.74837-0.07431
	c0.02664-0.00343,0.05326-0.00661,0.07985-0.01018c4.05726-0.54227,7.54642-2.90024,9.6206-6.22977
	c1.10371,1.77223,2.61176,3.26477,4.38975,4.35994c0.07425,0.04591,0.14823,0.09221,0.22327,0.1366
	c0.12167,0.07172,0.24459,0.14108,0.36866,0.20905c0.10728,0.05891,0.2156,0.11559,0.32436,0.17143
	c0.10938,0.05608,0.21825,0.11276,0.32932,0.16589c0.17028,0.08159,0.34278,0.15816,0.51631,0.23239
	c0.11438,0.04886,0.22974,0.09555,0.34573,0.1413c0.16319,0.06439,0.32709,0.12701,0.49278,0.18494
	c0.1034,0.03615,0.20795,0.06947,0.31251,0.10316c0.14159,0.04559,0.28393,0.08882,0.42713,0.12967
	c0.10845,0.03099,0.21683,0.0619,0.3264,0.09019c0.16272,0.04196,0.32687,0.07919,0.49145,0.11504
	c0.13395,0.02921,0.2682,0.05711,0.4036,0.08228c0.188,0.03494,0.37669,0.06718,0.5667,0.09415
	c0.11004,0.01559,0.22098,0.02782,0.33186,0.04073c0.15746,0.01837,0.31535,0.03418,0.47398,0.04706
	c0.10463,0.00844,0.20912,0.01703,0.31442,0.02304c0.23552,0.01367,0.47202,0.02193,0.70964,0.02339
	c0.02115,0.00011,0.04187,0.00208,0.06306,0.00208c0.00325,0,0.00644-0.00031,0.00969-0.00031
	c0.00421,0,0.00838,0.00031,0.01259,0.00031c0.26981,0,0.53787-0.01051,0.80499-0.0262
	c0.00499-0.00031,0.00999-0.00076,0.01498-0.0011c3.27963-0.1963,6.33601-1.56447,8.67905-3.90732
	c0.63457-0.63457,1.19669-1.32774,1.68666-2.06448c7.85394-1.27516,13.64626-7.96785,13.64626-15.99995
	c0-3.4059-1.10262-6.72926-3.13184-9.51408c2.05389-3.11917,3.13184-6.70808,3.13184-10.47235H154.10469z M146.94215,149.68024
	c2.0231,2.27556,3.1373,5.15515,3.1373,8.10814c0,5.10474-3.1183,9.48969-7.65601,11.30312
	c0.12929-0.62198,0.21651-1.25522,0.25652-1.89626c0.06923-1.10939-0.77396-2.06482-1.88333-2.13405
	c-1.10065-0.06552-2.06459,0.77373-2.13405,1.88333c-0.0799,1.2794-0.42792,2.5128-0.99564,3.63895
	c-0.09767,0.10847-0.18579,0.22676-0.25897,0.3566c-1.41673,2.51184-3.86746,4.21512-6.61513,4.68571
	c-0.16682,0.02713-0.33366,0.05408-0.50146,0.0722c-0.06734,0.00772-0.13483,0.0146-0.20247,0.02083
	c-2.67353,0.2308-5.42742-0.67082-7.46877-2.7124c-0.0199-0.01987-0.04343-0.03331-0.06393-0.0522
	c-1.61153-1.63432-2.62297-3.85439-2.69905-6.30734c0.00211-0.09773,0.00742-0.19464,0.00742-0.29285
	c0-3.27618-1.19259-6.43182-3.3583-8.88557c-0.73595-0.83313-2.00716-0.91219-2.84095-0.17711
	c-0.83335,0.73573-0.91262,2.00739-0.17711,2.84094c1.4825,1.67937,2.30793,3.82979,2.34421,6.0694
	c-0.00391,0.05118-0.01537,0.10016-0.01537,0.15234c0,5.18393-4.21452,9.40147-9.39703,9.40759
	c-0.28829-0.00035-0.5726-0.01741-0.85434-0.04327c-0.06494-0.00603-0.12975-0.01263-0.19441-0.02003
	c-0.25371-0.02861-0.50455-0.06657-0.75179-0.11504c-0.08626-0.01723-0.17149-0.03802-0.2571-0.05768
	c-0.17564-0.03961-0.34903-0.08495-0.52082-0.13425c-0.14189-0.04141-0.28319-0.08463-0.42276-0.13269
	c-0.05872-0.01993-0.11596-0.04283-0.17416-0.06387c-2.07284-0.76036-3.86257-2.25006-4.99325-4.2547
	c-0.04449-0.07895-0.09492-0.15327-0.14877-0.22452c-0.68627-1.30511-1.07964-2.78741-1.07964-4.36153
	c0-1.11157-0.90105-2.01262-2.01262-2.01262s-2.01262,0.90105-2.01262,2.01262c0,0.94498,0.09928,1.86703,0.28581,2.75742
	c-4.56383-1.80157-7.70385-6.20032-7.70385-11.32306c0-2.95297,1.11419-5.83258,3.13729-8.10814
	c0.64619-0.72678,0.68005-1.81171,0.08058-2.57758c-2.10522-2.68983-3.21788-5.90596-3.21788-9.30072
	c0-6.42397,4.08508-12.15871,10.16508-14.26982c0.86873-0.30159,1.42255-1.15372,1.34546-2.07005
	c-0.01332-0.1568-0.03363-0.31163-0.0546-0.46625c-0.01725-0.12666-0.03516-0.25769-0.03516-0.32517
	c0-5.18769,4.22047-9.40816,9.40839-9.40816c4.35806,0,8.43025,3.03422,9.47237,7.05771
	c0.02476,0.09563,0.05916,0.18652,0.0966,0.27549c-0.10537,0.67652-0.16081,1.36937-0.16081,2.07497v8.56565
	c0,1.11157,0.90105,2.01262,2.01262,2.01262s2.01262-0.90105,2.01262-2.01262v-8.56564c0-4.21444,2.78545-7.79044,6.61205-8.98393
	c0.00128-0.00038,0.00256-0.00079,0.00388-0.00117c0.24784-0.07717,0.50223-0.13876,0.75831-0.19545
	c0.08072-0.01747,0.16109-0.03631,0.24232-0.05176c0.20168-0.03906,0.40677-0.06783,0.61275-0.09377
	c0.09567-0.01196,0.1906-0.02779,0.28676-0.03688c0.29398-0.02782,0.59097-0.0452,0.89209-0.0452
	c5.1877,0,9.40817,4.22047,9.40817,9.40816c0,0.06814-0.01791,0.1996-0.03539,0.32692
	c-0.02075,0.15353-0.04083,0.30727-0.05415,0.46319c-0.01158,0.13646-0.00497,0.27042,0.01041,0.40243
	c-0.28844,2.25259-1.38335,4.34345-3.10707,5.86474c-0.83334,0.73551-0.91284,2.00738-0.17732,2.84074
	c0.39789,0.45074,0.95236,0.68092,1.50969,0.68092c0.47324,0,0.94844-0.16597,1.33104-0.50359
	c1.90686-1.68283,3.27289-3.85531,3.98468-6.24415c4.84114,2.60375,7.95892,7.68856,7.95892,13.30012
	c0,3.39478-1.11266,6.6109-3.21788,9.30072c-0.59946,0.76587-0.56561,1.8508,0.08058,2.57758L146.94215,149.68024z"/>
<path class="st2" d="M63.62829,128.5009c0-5.25998,4.00777-9.41057,9.12449-9.41057c5.00928,0,8.80172,4.18641,8.80172,9.5892
	v1.00194H67.20672c0.50097,3.00583,2.96957,5.22417,6.11823,5.22417c1.78899,0,3.47099-0.5726,4.61575-1.61035l2.28997,2.25415
	c-2.14671,1.64618-4.32923,2.39742-7.04854,2.39742C67.8147,137.94685,63.62829,133.83208,63.62829,128.5009z M78.01232,126.99799
	c-0.50097-2.79094-2.68349-4.86601-5.33117-4.86601c-2.75512,0-4.93808,1.96764-5.43861,4.86601
	C67.24254,126.99799,78.01233,126.99799,78.01232,126.99799z"/>
<path class="st2" d="M473.4455,128.5009c0-5.25998,4.00778-9.41057,9.12448-9.41057c5.00928,0,8.80173,4.18641,8.80173,9.5892
	v1.00194h-14.34778c0.50098,3.00583,2.96957,5.22417,6.11823,5.22417c1.789,0,3.47098-0.5726,4.61575-1.61035l2.28998,2.25415
	c-2.1467,1.64618-4.32922,2.39742-7.04855,2.39742C477.6319,137.94685,473.4455,133.83208,473.4455,128.5009z M487.82953,126.99799
	c-0.50098-2.79094-2.6835-4.86601-5.33118-4.86601c-2.75513,0-4.93808,1.96764-5.43863,4.86601h10.76978H487.82953z"/>
<path class="st2" d="M191.86081,97.79129c0-5.25998,4.00777-9.41057,9.1245-9.41057c5.00928,0,8.80171,4.18641,8.80171,9.58921
	v1.00195h-14.34778c0.50098,3.00583,2.96957,5.22417,6.11823,5.22417c1.789,0,3.47098-0.5726,4.61575-1.61036l2.28996,2.25415
	c-2.14671,1.64617-4.32922,2.39741-7.04854,2.39741C196.04721,107.23724,191.86081,103.12247,191.86081,97.79129z
	 M206.24484,96.28838c-0.50098-2.79094-2.68349-4.86601-5.33118-4.86601c-2.75513,0-4.93808,1.96764-5.43861,4.86601H206.24484z"/>
<path class="st2" d="M191.86081,222.17334c0-5.25998,4.00777-9.41057,9.1245-9.41057c5.00928,0,8.80171,4.1864,8.80171,9.5892
	v1.00194h-14.34778c0.50098,3.00583,2.96957,5.22417,6.11823,5.22417c1.789,0,3.47098-0.5726,4.61575-1.61035l2.28996,2.25415
	c-2.14671,1.64618-4.32922,2.39742-7.04854,2.39742C196.04721,231.61929,191.86081,227.50452,191.86081,222.17334z
	 M206.24484,220.67043c-0.50098-2.79094-2.68349-4.86601-5.33118-4.86601c-2.75513,0-4.93808,1.96764-5.43861,4.86601H206.24484z"/>
<line class="st3" x1="63.62839" y1="119.0545" x2="64.62839" y2="119.0545"/>
<line class="st4" x1="66.62717" y1="119.0545" x2="489.37228" y2="119.0545"/>
<line class="st3" x1="490.3718" y1="119.0545" x2="491.3718" y2="119.0545"/>
<line class="st3" x1="63.62839" y1="137.94685" x2="64.62839" y2="137.94685"/>
<line class="st4" x1="66.62717" y1="137.94685" x2="489.37228" y2="137.94685"/>
<line class="st3" x1="490.3718" y1="137.94685" x2="491.3718" y2="137.94685"/>
<line class="st3" x1="192.17331" y1="88.38071" x2="192.17331" y2="89.38071"/>
<line class="st5" x1="192.17331" y1="91.36998" x2="192.17331" y2="229.62465"/>
<line class="st3" x1="192.17331" y1="230.61929" x2="192.17331" y2="231.61929"/>
<line class="st3" x1="209.78708" y1="88.38071" x2="209.78708" y2="89.38071"/>
<line class="st5" x1="209.78708" y1="91.36998" x2="209.78708" y2="229.62465"/>
<line class="st3" x1="209.78708" y1="230.61929" x2="209.78708" y2="231.61929"/>
</svg>
