<svg id="a42eeafe-e9f6-427a-8de9-d65bd2fdb8a2" data-name="Layer 1" xmlns="http://www.w3.org/2000/svg" viewBox="0 0 555 250">
  <defs>
    <style>
      .aa4d635b-08cd-43c9-98ff-229ac7c01c6e {
        fill: #fff;
        isolation: isolate;
      }

      .ab2c3715-7218-4d25-877e-72489b6dfcc0 {
        fill: #e00;
      }
    </style>
  </defs>
  <g>
    <rect class="aa4d635b-08cd-43c9-98ff-229ac7c01c6e" width="555" height="250"/>
    <g>
      <g>
        <path d="M229.6878,91.38531h11.40585c4.986,0,8.35726,3.01291,8.35726,7.42468a7.09156,7.09156,0,0,1-5.165,6.8866l5.59544,10.79618h-4.16068l-5.20052-10.294H233.454v10.294H229.6878Zm3.76619,3.2999v8.39295h7.317c2.94133,0,4.87784-1.68564,4.87784-4.19636,0-2.54663-1.93651-4.19659-4.87784-4.19659Z"/>
        <path d="M260.56955,116.81567a9.39474,9.39474,0,0,1-9.577-9.46913,9.17387,9.17387,0,0,1,9.14667-9.39732c5.02145,0,8.82311,4.16068,8.82311,9.54071v1.04028H254.54373a6.15795,6.15795,0,0,0,6.169,5.23664,7.10027,7.10027,0,0,0,4.627-1.61405l2.29553,2.25963A10.88783,10.88783,0,0,1,260.56955,116.81567ZM254.57963,105.84h10.83186a5.44555,5.44555,0,0,0-10.83186,0Z"/>
        <path d="M286.42943,114.77123a8.62412,8.62412,0,0,1-5.59545,2.00854,9.41534,9.41534,0,1,1,5.55954-17.0372V91.38531l3.58669-.789v25.89643h-3.55078Zm-5.09326-1.11208a6.57952,6.57952,0,0,0,5.05735-2.18783v-8.28546a6.67566,6.67566,0,0,0-5.05735-2.15214,6.31364,6.31364,0,0,0,0,12.62543Z"/>
        <path d="M302.13869,91.38531h3.7662v10.76027h13.34237V91.38531h3.7662v25.10746h-3.7662V105.5532H305.90489v10.93957h-3.7662Z"/>
        <path d="M326.4202,111.25613c0-3.4433,2.79772-5.55954,7.38878-5.55954a12.8856,12.8856,0,0,1,4.98555,1.00438v-1.937c0-2.58252-1.542-3.87368-4.44746-3.87368a12.979,12.979,0,0,0-5.66724,1.54225l-1.32706-2.69a17.08827,17.08827,0,0,1,7.49649-1.86515c4.73467,0,7.46059,2.33143,7.46059,6.528v12.08734h-3.51532v-1.57815a8.66031,8.66031,0,0,1-5.66681,1.901C329.14611,116.81567,326.4202,114.55582,326.4202,111.25613Zm7.53239,2.90521a7.01947,7.01947,0,0,0,4.84194-1.72154v-3.15652a9.4844,9.4844,0,0,0-4.69877-1.11187c-2.61821,0-4.232,1.18367-4.232,3.01291C329.86371,112.94177,331.51345,114.16134,333.95259,114.16134Z"/>
        <path d="M348.08436,101.24891h-3.8739V98.23622h3.8739V93.57335l3.55079-.86077v5.52364h5.38046v3.01269h-5.38046v9.89951c0,1.86515.7535,2.54663,2.69,2.54663a7.04615,7.04615,0,0,0,2.61865-.43039v3.01292a11.877,11.877,0,0,1-3.40761.53809c-3.55079,0-5.45184-1.68586-5.45184-4.84216Z"/>
        <path d="M240.12518,154.51156c-6.77889,0-11.11865-4.34-11.11865-11.22656V129.04552h5.20053V143.285c0,3.90958,2.33143,6.42031,5.954,6.42031,3.58712,0,5.88265-2.51073,5.88265-6.42031V129.04552h5.20053V143.285C251.24426,150.13591,246.8686,154.51156,240.12518,154.51156Z"/>
        <path d="M255.08138,135.46583h4.91374v1.47066a8.02111,8.02111,0,0,1,5.23643-1.82924,7.08979,7.08979,0,0,1,7.38878,7.42468V154.153h-4.91374V143.24931a3.64375,3.64375,0,0,0-3.8739-3.90958,4.47627,4.47627,0,0,0-3.83757,1.86493V154.153h-4.91374Z"/>
        <path d="M275.99117,130.44438a2.79772,2.79772,0,1,1,2.79772,2.79772A2.80157,2.80157,0,0,1,275.99117,130.44438Zm5.27276,23.7086h-4.91374V135.46583h4.91374Z"/>
        <path d="M283.1641,135.46583h5.34413l5.12916,12.44613,5.09325-12.44613h5.23642L295.93292,154.153h-4.73467Z"/>
        <path d="M314.36854,154.51156a9.72865,9.72865,0,0,1-10.04333-9.6841,9.53887,9.53887,0,0,1,9.61251-9.68431c5.30866,0,9.25393,4.30407,9.25393,10.0429v1.29115H309.27529a5.384,5.384,0,0,0,5.30823,3.90958,5.8832,5.8832,0,0,0,4.12477-1.50634l3.22811,2.94111A11.20174,11.20174,0,0,1,314.36854,154.51156Zm-5.12915-11.54924h9.14622a4.821,4.821,0,0,0-4.55516-3.7662A4.6934,4.6934,0,0,0,309.23939,142.96232Z"/>
        <path d="M326.20435,135.46583h4.91374v2.04443a5.9447,5.9447,0,0,1,4.98555-2.47482,4.23775,4.23775,0,0,1,2.04465.43039v4.30428a6.27329,6.27329,0,0,0-2.51094-.50219,4.94577,4.94577,0,0,0-4.51926,2.79773V154.153h-4.91374Z"/>
        <path d="M341.87815,148.66525a10.88078,10.88078,0,0,0,6.06129,2.11624c2.18826,0,3.623-.78919,3.623-1.97286,0-.96825-.7176-1.50634-2.33144-1.75744l-3.58712-.53809c-3.694-.57377-5.66681-2.403-5.66681-5.41593,0-3.62259,3.0127-5.91812,7.78327-5.91812a13.7852,13.7852,0,0,1,7.67556,2.33121l-2.36733,3.15652a11.03022,11.03022,0,0,0-5.77452-1.79334c-1.79334,0-2.94133.71716-2.94133,1.82925,0,1.00416.7176,1.50634,2.54685,1.75744l3.58669.53809c3.65849.53787,5.70271,2.43892,5.70271,5.34413,0,3.5151-3.479,6.16921-8.17776,6.16921a13.77216,13.77216,0,0,1-8.57223-2.58231Z"/>
        <path d="M357.90966,148.73705c0-3.551,2.86952-5.66725,7.676-5.66725a15.11483,15.11483,0,0,1,4.55516.71738v-1.32705c0-2.15215-1.32705-3.264-3.9457-3.264a14.48327,14.48327,0,0,0-5.70271,1.54225l-1.79335-3.62259a19.48492,19.48492,0,0,1,8.32136-2.00853c5.05735,0,7.96234,2.51072,7.96234,6.92249V154.153h-4.84194v-1.29115a8.88368,8.88368,0,0,1-5.41593,1.61383C360.70738,154.47566,357.90966,152.14423,357.90966,148.73705Zm8.10638,2.22373a7.07545,7.07545,0,0,0,4.12478-1.18367v-2.79772a10.85808,10.85808,0,0,0-3.9457-.68148c-2.25963,0-3.58669.89667-3.58669,2.33143S363.93549,150.96078,366.016,150.96078Z"/>
        <path d="M383.62636,154.153h-4.91374V129.04552l4.91374-1.076Z"/>
        <path d="M399.58607,154.153h-4.91375V129.04552l4.91375-1.076Z"/>
        <path d="M412.534,135.10725a9.70579,9.70579,0,1,1-9.97153,9.72021A9.73978,9.73978,0,0,1,412.534,135.10725Zm5.16462,9.72021a5.17066,5.17066,0,1,0-5.16462,5.41594A5.2353,5.2353,0,0,0,417.69857,144.82746Z"/>
        <path d="M424.7997,144.68386a9.477,9.477,0,0,1,9.61252-9.50481,9.11051,9.11051,0,0,1,5.05735,1.50635v-1.21957H444.312V154.153c0,4.94965-3.264,7.71147-9.25394,7.71147a17.38,17.38,0,0,1-7.78326-1.68564l1.72154-3.838a13.31253,13.31253,0,0,0,5.954,1.50656c2.94133,0,4.44789-1.29115,4.44789-3.73029v-1.54247a8.45823,8.45823,0,0,1-5.12915,1.68608A9.4614,9.4614,0,0,1,424.7997,144.68386ZM435.02211,150.1a6.15613,6.15613,0,0,0,4.37609-1.68586v-7.35288a6.28962,6.28962,0,0,0-4.34019-1.68586,5.36245,5.36245,0,1,0-.0359,10.7246Z"/>
        <path d="M457.2953,135.10725a9.70579,9.70579,0,1,1-9.97154,9.72021A9.73978,9.73978,0,0,1,457.2953,135.10725Zm5.16462,9.72021a5.17066,5.17066,0,1,0-5.16462,5.41594A5.2353,5.2353,0,0,0,462.45992,144.82746Z"/>
      </g>
      <g id="f2a7a49b-58be-461b-b060-955ed1e2037b" data-name="Hat icon">
        <g>
          <path id="adee8d57-35c7-4be6-b4c2-b4f25bd3c540" data-name="Red hat" class="ab2c3715-7218-4d25-877e-72489b6dfcc0" d="M144.65884,128.59508c5.60554,0,13.72391-1.15976,13.72391-7.82842a6.33988,6.33988,0,0,0-.13921-1.53388l-3.34009-14.50957c-.77318-3.18936-1.44971-4.63906-7.05525-7.44183-4.34913-2.22289-13.82056-5.89549-16.62333-5.89549-2.60948,0-3.38265,3.38266-6.47537,3.38266-2.99606,0-5.21895-2.51283-8.02172-2.51283-2.70612,0-4.44577,1.8363-5.79883,5.60554,0,0-3.76924,10.6312-4.25248,12.17755a2.78967,2.78967,0,0,0-.0989.86983C106.57757,115.03988,122.84838,128.59508,144.65884,128.59508Zm14.59373-5.1223c.77318,3.6726.77318,4.05918.77318,4.54242,0,6.28207-7.05525,9.76137-16.33338,9.76137-20.97246,0-39.33543-12.2742-39.33543-20.39257a8.266,8.266,0,0,1,.67653-3.286c-7.53849.38659-17.29986,1.73965-17.29986,10.34125,0,14.1105,33.43995,31.507,59.92129,31.507,20.29593,0,25.41823-9.18149,25.41823-16.43C173.07313,133.814,168.14412,127.33867,159.25257,123.47278Z"/>
          <path id="aae1755a-dda8-4fad-a2be-a0f29d01674e" data-name="Black band" d="M159.25257,123.47278c.77318,3.6726.77318,4.05918.77318,4.54242,0,6.28207-7.05525,9.76137-16.33338,9.76137-20.97246,0-39.33543-12.2742-39.33543-20.39257a8.266,8.266,0,0,1,.67653-3.286l1.643-4.05919a2.78967,2.78967,0,0,0-.0989.86983c0,4.13124,16.27081,17.68644,38.08127,17.68644,5.60554,0,13.72391-1.15976,13.72391-7.82842a6.33988,6.33988,0,0,0-.13921-1.53388Z"/>
        </g>
      </g>
      <path id="b620e0b9-aed0-43a8-8a19-8b24285968ed" data-name="Dividing line" d="M201.37271,159.30877A1.00874,1.00874,0,0,1,200.364,158.3V89.14431a1.00876,1.00876,0,1,1,2.01751,0V158.3A1.00873,1.00873,0,0,1,201.37271,159.30877Z"/>
    </g>
  </g>
</svg>
