<svg id="ff818ae3-631b-4895-8a20-9d4051ed6787" data-name="Layer 1" xmlns="http://www.w3.org/2000/svg" viewBox="0 0 360 150">
  <defs>
    <style>
      .a18fa442-c802-4ead-b4a1-7a2f3c744f52 {
        fill: #e6e6e6;
      }

      .a18fa442-c802-4ead-b4a1-7a2f3c744f52, .a2537061-d547-4e1b-944a-a3158b2e8407 {
        isolation: isolate;
      }
    </style>
  </defs>
  <g>
    <rect class="a18fa442-c802-4ead-b4a1-7a2f3c744f52" width="360" height="150"/>
    <g class="a2537061-d547-4e1b-944a-a3158b2e8407">
      <g>
        <path d="M147.85882,52.40292h7.66745c3.35177,0,5.61807,2.0254,5.61807,4.99116a4.76723,4.76723,0,0,1-3.47215,4.62943l3.76147,7.25761h-2.797l-3.496-6.92h-4.7501v6.92h-2.53178Zm2.53178,2.21833v5.642h4.91875c1.97727,0,3.27907-1.13315,3.27907-2.821,0-1.71194-1.3018-2.8211-3.27907-2.8211Z"/>
        <path d="M168.61871,69.49818a6.3155,6.3155,0,0,1-6.43806-6.36551,6.167,6.167,0,0,1,6.14874-6.31723c3.37561,0,5.93123,2.797,5.93123,6.41363v.69931h-9.6927a4.13962,4.13962,0,0,0,4.147,3.52027,4.77311,4.77311,0,0,0,3.11043-1.085l1.54314,1.519A7.31922,7.31922,0,0,1,168.61871,69.49818Zm-4.02666-7.37828h7.2816a3.66072,3.66072,0,0,0-7.2816,0Z"/>
        <path d="M186.0027,68.12383a5.79747,5.79747,0,0,1-3.76147,1.35022A6.32935,6.32935,0,1,1,185.97857,58.021V52.40292l2.4111-.53037V69.28112h-2.387Zm-3.42388-.74758a4.423,4.423,0,0,0,3.39975-1.47074v-5.5698a4.48762,4.48762,0,0,0-3.39975-1.44676,4.24427,4.24427,0,0,0,0,8.4873Z"/>
        <path d="M196.56307,52.40292h2.53178v7.23347h8.96925V52.40292h2.53178v16.8782H208.0641v-7.354h-8.96925v7.354h-2.53178Z"/>
        <path d="M212.886,65.76085c0-2.31472,1.88073-3.73734,4.967-3.73734a8.66217,8.66217,0,0,1,3.35147.67518V61.3966c0-1.73607-1.03661-2.604-2.98974-2.604a8.725,8.725,0,0,0-3.80974,1.03676l-.8921-1.80833a11.48746,11.48746,0,0,1,5.03943-1.25382c3.18282,0,5.01529,1.56728,5.01529,4.38838v8.12557h-2.36314v-1.0609a5.82171,5.82171,0,0,1-3.80944,1.278C214.71848,69.49818,212.886,67.979,212.886,65.76085Zm5.06356,1.953a4.71872,4.71872,0,0,0,3.25493-1.15729V64.43462a6.37576,6.37576,0,0,0-3.15869-.74744c-1.76006,0-2.84494.79571-2.84494,2.0254C215.20088,66.894,216.3099,67.71384,217.94958,67.71384Z"/>
        <path d="M227.4495,59.03362h-2.60419V57.00837h2.60419V53.87381l2.387-.57864v3.7132h3.617v2.02525h-3.617v6.65482c0,1.25383.50653,1.71194,1.80833,1.71194a4.73676,4.73676,0,0,0,1.76035-.28932v2.0254a7.98429,7.98429,0,0,1-2.29072.36172c-2.387,0-3.66493-1.1333-3.66493-3.25508Z"/>
        <path d="M154.87522,94.8388c-4.557,0-7.47437-2.9175-7.47437-7.54693V77.71955h3.496v9.57232c0,2.62817,1.56728,4.316,4.00253,4.316,2.4114,0,3.95454-1.68781,3.95454-4.316V77.71955h3.496v9.57232C162.34989,91.89732,159.40841,94.8388,154.87522,94.8388Z"/>
        <path d="M164.92935,82.03553h3.30321v.98863a5.39211,5.39211,0,0,1,3.52012-1.22968,4.766,4.766,0,0,1,4.967,4.99115v7.81211h-3.3032V87.26788a2.44947,2.44947,0,0,0-2.60419-2.62817,3.0091,3.0091,0,0,0-2.57975,1.25368v8.70435h-3.30321Z"/>
        <path d="M178.98571,78.65992a1.88074,1.88074,0,1,1,1.88073,1.88073A1.88332,1.88332,0,0,1,178.98571,78.65992Zm3.54455,15.93782h-3.30321V82.03553h3.30321Z"/>
        <path d="M183.80763,82.03553h3.59252l3.448,8.36676,3.42387-8.36676h3.52013l-5.40086,12.56221h-3.18283Z"/>
        <path d="M204.78444,94.8388a6.54,6.54,0,0,1-6.75151-6.51,6.41239,6.41239,0,0,1,6.46189-6.51017c3.56869,0,6.22085,2.89336,6.22085,6.75122v.868h-9.35511a3.61933,3.61933,0,0,0,3.56839,2.62817,3.95488,3.95488,0,0,0,2.77283-1.01262l2.17006,1.97713A7.53022,7.53022,0,0,1,204.78444,94.8388Zm-3.448-7.76385h6.14845a3.24089,3.24089,0,0,0-3.06216-2.53178A3.1551,3.1551,0,0,0,201.33642,87.075Z"/>
        <path d="M212.74092,82.03553h3.3032v1.37435a3.99625,3.99625,0,0,1,3.35148-1.66367,2.84867,2.84867,0,0,1,1.37449.28932V84.929a4.21712,4.21712,0,0,0-1.688-.33759,3.32474,3.32474,0,0,0-3.038,1.88074v8.12556h-3.3032Z"/>
        <path d="M223.27744,90.90868a7.31447,7.31447,0,0,0,4.07463,1.42262c1.471,0,2.43554-.53052,2.43554-1.32623,0-.6509-.4824-1.01262-1.56728-1.18142l-2.4114-.36172c-2.48322-.38572-3.80944-1.6154-3.80944-3.6408,0-2.43524,2.02524-3.97839,5.2322-3.97839a9.26691,9.26691,0,0,1,5.15981,1.56714l-1.59141,2.12193a7.41486,7.41486,0,0,0-3.88185-1.20555c-1.20555,0-1.97727.4821-1.97727,1.22968,0,.675.48239,1.01263,1.71208,1.18142l2.41111.36173c2.45938.36158,3.83358,1.63953,3.83358,3.59252,0,2.363-2.33871,4.14719-5.4974,4.14719a9.25818,9.25818,0,0,1-5.76258-1.73593Z"/>
        <path d="M234.05443,90.957c0-2.38712,1.929-3.80974,5.1601-3.80974a10.16084,10.16084,0,0,1,3.06216.48225v-.8921c0-1.44675-.8921-2.19419-2.65246-2.19419a9.73619,9.73619,0,0,0-3.83357,1.03676l-1.20556-2.43524a13.09857,13.09857,0,0,1,5.59394-1.35021c3.39974,0,5.35258,1.6878,5.35258,4.65356v8.1497h-3.25493v-.868a5.97193,5.97193,0,0,1-3.6408,1.08488C235.93517,94.81466,234.05443,93.24738,234.05443,90.957Zm5.44942,1.49487a4.75638,4.75638,0,0,0,2.77284-.7957V89.77538a7.29942,7.29942,0,0,0-2.65246-.45811c-1.519,0-2.4111.60277-2.4111,1.56727S238.10522,92.45182,239.50385,92.45182Z"/>
        <path d="M251.34218,94.59774H248.039V77.71955l3.3032-.7233Z"/>
        <path d="M262.0709,94.59774h-3.3032V77.71955l3.3032-.7233Z"/>
        <path d="M270.775,81.79448a6.52461,6.52461,0,1,1-6.70324,6.5343A6.54745,6.54745,0,0,1,270.775,81.79448Zm3.47186,6.5343a3.47591,3.47591,0,1,0-3.47186,3.64079A3.51937,3.51937,0,0,0,274.24682,88.32878Z"/>
        <path d="M279.02047,88.23224a6.37078,6.37078,0,0,1,6.4619-6.3895,6.1244,6.1244,0,0,1,3.39974,1.01263v-.81984h3.25523V94.59774c0,3.32734-2.19419,5.18394-6.22084,5.18394a11.68343,11.68343,0,0,1-5.23221-1.13315l1.15728-2.58a8.9493,8.9493,0,0,0,4.00252,1.01278c1.97727,0,2.99-.868,2.99-2.50765V93.5367a5.68593,5.68593,0,0,1-3.448,1.13345A6.36031,6.36031,0,0,1,279.02047,88.23224Zm6.87189,3.64094a4.13837,4.13837,0,0,0,2.94178-1.1333V85.797a4.22811,4.22811,0,0,0-2.91764-1.1333,3.60484,3.60484,0,1,0-.02414,7.20948Z"/>
        <path d="M300.86524,81.79448a6.52461,6.52461,0,1,1-6.70324,6.5343A6.54745,6.54745,0,0,1,300.86524,81.79448Zm3.47186,6.5343a3.47591,3.47591,0,1,0-3.47186,3.64079A3.51937,3.51937,0,0,0,304.3371,88.32878Z"/>
      </g>
      <g id="a5bd67bd-9a00-4f94-8b52-35fdd3004526" data-name="Hat icon">
        <path id="ec393e84-3808-4b01-a567-5a6c4549a16f" data-name="Red hat" d="M90.69911,77.41675c3.76826,0,9.22574-.77964,9.22574-5.26256a4.262,4.262,0,0,0-.09358-1.03114l-2.24534-9.75388c-.51976-2.144-.97455-3.11856-4.74281-5.00268-2.92365-1.49431-9.2907-3.96317-11.17483-3.96317-1.75419,0-2.27395,2.27395-4.353,2.27395-2.01407,0-3.50838-1.68922-5.3925-1.68922-1.81916,0-2.98862,1.23443-3.8982,3.76826,0,0-2.53383,7.14669-2.85868,8.18621a1.87536,1.87536,0,0,0-.06648.58473C65.09944,68.30443,76.03729,77.41675,90.69911,77.41675Zm9.81047-3.44341a15.0552,15.0552,0,0,1,.51976,3.05359c0,4.22305-4.74281,6.562-10.97993,6.562-14.09848,0-26.44277-8.25119-26.44277-13.70866a5.55679,5.55679,0,0,1,.45479-2.209c-5.06766.25988-11.62962,1.16946-11.62962,6.95178,0,9.48562,22.4796,21.18021,40.28137,21.18021,13.64369,0,17.0871-6.17215,17.0871-11.04489C109.80028,80.92513,106.48681,76.57214,100.50958,73.97334Z"/>
      </g>
      <path id="afc319ad-52bc-4dcd-9d8c-eff648127657" data-name="Dividing line" d="M128.82434,98.06366a.67811.67811,0,0,1-.67813-.67812V50.89644a.67813.67813,0,0,1,1.35625,0v46.4891A.67811.67811,0,0,1,128.82434,98.06366Z"/>
    </g>
  </g>
</svg>
