<svg id="a66bcdc1-a57e-4e84-b9e5-df186776e886" data-name="Layer 1" xmlns="http://www.w3.org/2000/svg" xmlns:xlink="http://www.w3.org/1999/xlink" width="262" height="180" viewBox="0 0 262 180"><defs><style>.e36baddd-e2ff-4102-9d4d-32f590bfec95,.e3b2bcfd-8d1e-40f0-b8b3-115d8a2dbc7d{fill:none;}.b86a84ce-936e-4fb3-b6f6-03c8ee912ca3{clip-path:url(#b4ebe7e6-0a08-45b0-81fe-37df16e2c8f5);}.e3b2bcfd-8d1e-40f0-b8b3-115d8a2dbc7d{stroke:#e00;stroke-linecap:round;stroke-linejoin:round;stroke-width:1.5px;}</style><clipPath id="b4ebe7e6-0a08-45b0-81fe-37df16e2c8f5"><rect class="e36baddd-e2ff-4102-9d4d-32f590bfec95" x="32.66" y="71.51" width="38.78" height="35.63"/></clipPath></defs><path d="M101.05,84.63v4.7h4.09c1.65,0,2.73-1,2.73-2.35s-1.08-2.35-2.73-2.35Zm-2.11-1.85h6.38c2.79,0,4.68,1.69,4.68,4.16a4,4,0,0,1-2.89,3.85l3.13,6h-2.33L105,91.07h-4v5.76H98.94v-14Z"/><path d="M112.87,90.87h6.06a3,3,0,0,0-6.06,0ZM116.22,97a5.25,5.25,0,0,1-5.36-5.29A5.14,5.14,0,0,1,116,86.46a5.06,5.06,0,0,1,4.94,5.34v.58h-8.07a3.45,3.45,0,0,0,3.45,2.93,4,4,0,0,0,2.59-.9l1.29,1.26a6.13,6.13,0,0,1-4,1.34Z"/><path d="M127.84,95.25A3.65,3.65,0,0,0,130.67,94V89.39a3.74,3.74,0,0,0-2.83-1.21,3.54,3.54,0,0,0,0,7.07Zm2.85.62A4.82,4.82,0,0,1,127.56,97a5.27,5.27,0,1,1,3.11-9.53V82.78l2-.44V96.83h-2v-1Z"/><polygon points="139.48 82.78 141.59 82.78 141.59 88.81 149.06 88.81 149.06 82.78 151.16 82.78 151.16 96.83 149.06 96.83 149.06 90.71 141.59 90.71 141.59 96.83 139.48 96.83 139.48 82.78 139.48 82.78"/><path d="M157.29,95.53a4,4,0,0,0,2.71-1V92.8a5.35,5.35,0,0,0-2.63-.62c-1.47,0-2.37.66-2.37,1.68s.92,1.67,2.29,1.67Zm-4.22-1.63c0-1.92,1.57-3.11,4.14-3.11a7.28,7.28,0,0,1,2.79.56V90.27c0-1.44-.87-2.17-2.49-2.17a7.13,7.13,0,0,0-3.17.87l-.75-1.51a9.61,9.61,0,0,1,4.2-1c2.65,0,4.17,1.3,4.17,3.65v6.76h-2V96A4.88,4.88,0,0,1,156.82,97c-2.22,0-3.75-1.26-3.75-3.11Z"/><path d="M165.19,88.3H163V86.62h2.16V84l2-.48v3.09h3V88.3h-3v5.54c0,1,.42,1.43,1.51,1.43a3.93,3.93,0,0,0,1.46-.24v1.68a6.64,6.64,0,0,1-1.91.3c-2,0-3.05-.94-3.05-2.7v-6Z"/><path d="M186.75,92.56l1.91,1.89A7.75,7.75,0,0,1,182.9,97a7.24,7.24,0,1,1,0-14.47,7.74,7.74,0,0,1,5.84,2.63l-2,2a4.91,4.91,0,0,0-3.87-1.91,4.56,4.56,0,0,0,.08,9.12,4.84,4.84,0,0,0,3.77-1.79Z"/><path d="M194.22,95.05a4,4,0,0,0,2.3-.66V92.82a6.05,6.05,0,0,0-2.2-.38c-1.27,0-2,.5-2,1.3s.74,1.31,1.91,1.31Zm-4.54-1.25c0-2,1.6-3.17,4.29-3.17a8.44,8.44,0,0,1,2.55.4v-.74c0-1.2-.74-1.83-2.2-1.83a8.2,8.2,0,0,0-3.2.87l-1-2a11,11,0,0,1,4.66-1.12c2.83,0,4.45,1.4,4.45,3.87v6.78h-2.71v-.72a5,5,0,0,1-3,.9c-2.25,0-3.81-1.3-3.81-3.21Z"/><path d="M201.32,86.38h2.75v1.14a3.33,3.33,0,0,1,2.79-1.38,2.36,2.36,0,0,1,1.14.24v2.41a3.34,3.34,0,0,0-1.4-.29,2.77,2.77,0,0,0-2.53,1.57v6.76h-2.75V86.38Z"/><path d="M211.25,90.57h5.12a2.7,2.7,0,0,0-2.55-2.11,2.65,2.65,0,0,0-2.57,2.11ZM214.12,97a5.44,5.44,0,0,1-5.62-5.41,5.33,5.33,0,0,1,5.38-5.42c3,0,5.18,2.4,5.18,5.62v.72h-7.79a3,3,0,0,0,3,2.19,3.24,3.24,0,0,0,2.3-.85l1.81,1.65a6.28,6.28,0,0,1-4.24,1.5Z"/><path d="M221.33,93.76A6,6,0,0,0,224.72,95c1.23,0,2-.44,2-1.11s-.4-.84-1.31-1l-2-.3c-2.07-.32-3.17-1.35-3.17-3,0-2,1.68-3.31,4.35-3.31a7.75,7.75,0,0,1,4.3,1.3l-1.33,1.77a6.11,6.11,0,0,0-3.23-1c-1,0-1.65.41-1.65,1s.41.84,1.43,1l2,.3c2,.3,3.19,1.37,3.19,3,0,2-2,3.45-4.58,3.45a7.76,7.76,0,0,1-4.8-1.44l1.37-1.83Z"/><path d="M83.1,109.94a.57.57,0,0,1-.57-.56V70.62a.57.57,0,0,1,.57-.56.56.56,0,0,1,.56.56v38.76a.56.56,0,0,1-.56.56Z"/><g id="e4c59486-0c6f-4619-a8fe-c50cfd5615b6" data-name="Heart"><g class="b86a84ce-936e-4fb3-b6f6-03c8ee912ca3"><g class="b86a84ce-936e-4fb3-b6f6-03c8ee912ca3"><path class="e3b2bcfd-8d1e-40f0-b8b3-115d8a2dbc7d" d="M67.25,75.71a10.74,10.74,0,0,0-15.2,0A10.74,10.74,0,0,0,36.86,90.9l15.19,15.2,15.2-15.2A10.75,10.75,0,0,0,67.25,75.71Z"/></g></g></g></svg>