<svg id="aa1a9425-88a5-4d78-b118-e506c6fbe987" data-name="Layer 1" xmlns="http://www.w3.org/2000/svg" width="262" height="180" viewBox="0 0 262 180"><defs><style>.a1ecad11-ad99-477e-9d75-0c4f2f4658e9{fill:#e00;}</style></defs><path d="M107.63,84.63v4.7h4.09c1.65,0,2.73-1,2.73-2.35s-1.08-2.35-2.73-2.35Zm-2.11-1.85h6.38c2.79,0,4.68,1.69,4.68,4.16a4,4,0,0,1-2.89,3.85l3.13,6h-2.33l-2.91-5.76h-4v5.76h-2.11v-14Z"/><path d="M119.45,90.87h6.06a3,3,0,0,0-6.06,0ZM122.8,97a5.25,5.25,0,0,1-5.36-5.29,5.14,5.14,0,0,1,5.12-5.26,5.06,5.06,0,0,1,4.94,5.34v.58h-8.07a3.45,3.45,0,0,0,3.45,2.93,4,4,0,0,0,2.59-.9l1.28,1.26a6.08,6.08,0,0,1-4,1.34Z"/><path d="M134.42,95.25A3.66,3.66,0,0,0,137.25,94V89.39a3.75,3.75,0,0,0-2.83-1.21,3.54,3.54,0,0,0,0,7.07Zm2.85.62A4.83,4.83,0,0,1,134.14,97a5.27,5.27,0,0,1,0-10.53,5.22,5.22,0,0,1,3.07,1V82.78l2-.44V96.83h-2v-1Z"/><polygon points="146.06 82.78 148.17 82.78 148.17 88.81 155.63 88.81 155.63 82.78 157.74 82.78 157.74 96.83 155.63 96.83 155.63 90.71 148.17 90.71 148.17 96.83 146.06 96.83 146.06 82.78 146.06 82.78"/><path d="M163.86,95.53a3.92,3.92,0,0,0,2.71-1V92.8a5.3,5.3,0,0,0-2.63-.62c-1.46,0-2.36.66-2.36,1.68s.92,1.67,2.28,1.67Zm-4.21-1.63c0-1.92,1.56-3.11,4.13-3.11a7.2,7.2,0,0,1,2.79.56V90.27c0-1.44-.86-2.17-2.49-2.17a7.2,7.2,0,0,0-3.17.87l-.74-1.51a9.61,9.61,0,0,1,4.2-1c2.64,0,4.17,1.3,4.17,3.65v6.76h-2V96A4.84,4.84,0,0,1,163.4,97c-2.23,0-3.75-1.26-3.75-3.11Z"/><path d="M171.77,88.3H169.6V86.62h2.17V84l2-.48v3.09h3V88.3h-3v5.54c0,1,.42,1.43,1.5,1.43a4,4,0,0,0,1.47-.24v1.68a6.69,6.69,0,0,1-1.91.3c-2,0-3-.94-3-2.7v-6Z"/><path d="M193.33,92.56l1.9,1.89A7.72,7.72,0,0,1,189.47,97a7.24,7.24,0,1,1,0-14.47,7.71,7.71,0,0,1,5.84,2.63l-2,2a4.92,4.92,0,0,0-3.88-1.91,4.56,4.56,0,0,0,.08,9.12,4.86,4.86,0,0,0,3.78-1.79Z"/><path d="M200.79,95.05a4,4,0,0,0,2.31-.66V92.82a6.07,6.07,0,0,0-2.21-.38c-1.26,0-2,.5-2,1.3s.74,1.31,1.9,1.31Zm-4.53-1.25c0-2,1.6-3.17,4.29-3.17a8.44,8.44,0,0,1,2.55.4v-.74c0-1.2-.74-1.83-2.21-1.83a8.2,8.2,0,0,0-3.19.87l-1-2a10.91,10.91,0,0,1,4.65-1.12c2.83,0,4.46,1.4,4.46,3.87v6.78H203.1v-.72a5,5,0,0,1-3,.9c-2.25,0-3.81-1.3-3.81-3.21Z"/><path d="M207.9,86.38h2.75v1.14a3.32,3.32,0,0,1,2.79-1.38,2.36,2.36,0,0,1,1.14.24v2.41a3.34,3.34,0,0,0-1.4-.29,2.77,2.77,0,0,0-2.53,1.57v6.76H207.9V86.38Z"/><path d="M217.83,90.57H223a2.7,2.7,0,0,0-2.55-2.11,2.64,2.64,0,0,0-2.57,2.11ZM220.7,97a5.44,5.44,0,0,1-5.62-5.41,5.33,5.33,0,0,1,5.38-5.42c3,0,5.18,2.4,5.18,5.62v.72h-7.79a3,3,0,0,0,3,2.19,3.25,3.25,0,0,0,2.31-.85l1.81,1.65A6.3,6.3,0,0,1,220.7,97Z"/><path d="M227.91,93.76A6,6,0,0,0,231.3,95c1.22,0,2-.44,2-1.11s-.4-.84-1.31-1l-2-.3c-2.07-.32-3.18-1.35-3.18-3,0-2,1.69-3.31,4.36-3.31a7.72,7.72,0,0,1,4.29,1.3l-1.32,1.77a6.11,6.11,0,0,0-3.23-1c-1,0-1.65.41-1.65,1s.4.84,1.43,1l2,.3c2.05.3,3.2,1.37,3.2,3,0,2-1.95,3.45-4.58,3.45a7.74,7.74,0,0,1-4.8-1.44l1.37-1.83Z"/><path d="M89.67,109.94a.56.56,0,0,1-.56-.56V70.62a.57.57,0,0,1,1.13,0v38.76a.56.56,0,0,1-.57.56Z"/><path class="a1ecad11-ad99-477e-9d75-0c4f2f4658e9" d="M66.1,89.89a12.39,12.39,0,0,1,.44,2.54c0,3.52-4,5.47-9.14,5.47-11.74,0-22-6.87-22-11.42a4.68,4.68,0,0,1,.37-1.83c-4.21.21-9.68,1-9.68,5.78,0,7.9,18.72,17.63,33.54,17.63,11.35,0,14.22-5.13,14.22-9.19,0-3.19-2.76-6.81-7.74-9Zm-8.16,2.87c3.14,0,7.68-.65,7.68-4.38a3.53,3.53,0,0,0-.08-.86L63.67,79.4c-.43-1.78-.81-2.6-4-4.16-2.43-1.25-7.73-3.3-9.3-3.3s-1.89,1.89-3.62,1.89-2.92-1.41-4.49-1.41-2.49,1-3.25,3.14c0,0-2.11,6-2.38,6.81a1.74,1.74,0,0,0,0,.49c0,2.31,9.1,9.9,21.31,9.9Z"/><path d="M66.1,89.89a12.39,12.39,0,0,1,.44,2.54c0,3.52-4,5.47-9.14,5.47-11.74,0-22-6.87-22-11.42a4.68,4.68,0,0,1,.37-1.83l.92-2.28a1.74,1.74,0,0,0,0,.49c0,2.31,9.1,9.9,21.31,9.9,3.14,0,7.68-.65,7.68-4.38a3.53,3.53,0,0,0-.08-.86l.56,2.37Z"/></svg>