<svg id="ed3e911f-9d9c-499b-90eb-144c69070bd8" data-name="Layer 1" xmlns="http://www.w3.org/2000/svg" viewBox="0 0 555 234.0532">
  <defs>
    <style>
      .fe05526c-c1be-4505-b0be-5165f1fa93b1 {
        fill: none;
      }

      .bced4d8e-e2ee-4ab3-a865-a5d9973121fe {
        fill: #e00;
      }
    </style>
  </defs>
  <rect id="e871f2a5-7236-4b09-bb0e-a12f8c841c9b" data-name="Rectangle 143" class="fe05526c-c1be-4505-b0be-5165f1fa93b1" y="-87.86565" width="555" height="408.237"/>
  <g id="b766629e-d3e6-4983-b6a8-b9c669119cc3" data-name="Group 314">
    <g id="f6186212-2388-4bdc-81ec-8241673be3e9" data-name="Group 234">
      <path id="ef6212b6-d00c-49d6-a54e-ac57c65e52da" data-name="Path 542" d="M216.16141,7.93729h-6.12v7.02h6.12a4.175,4.175,0,0,0,3.03-1.02,3.478,3.478,0,0,0,.06171-4.91828q-.03041-.03121-.06171-.0617A4.1761,4.1761,0,0,0,216.16141,7.93729Zm-9.27,18.24v-21h9.54a8.43991,8.43991,0,0,1,2.925.48,6.58946,6.58946,0,0,1,2.2,1.305,5.56459,5.56459,0,0,1,1.38,1.965,6.27691,6.27691,0,0,1,.479,2.46,5.71325,5.71325,0,0,1-1.169,3.57,6.39955,6.39955,0,0,1-3.15,2.19l4.679,9.03h-3.48l-4.35-8.61h-5.909v8.61Z"/>
      <path id="f089f934-d401-41e7-b7b8-2d4f8dca1320" data-name="Path 543" d="M232.26941,13.18625a4.3179,4.3179,0,0,0-3,1.14,5.06991,5.06991,0,0,0-1.59,2.94h9.06a5.02385,5.02385,0,0,0-1.56-2.91,4.14886,4.14886,0,0,0-2.91-1.17Zm-7.59,5.34a8.05246,8.05246,0,0,1,.585-3.06,7.62185,7.62185,0,0,1,4.05-4.185,7.39966,7.39966,0,0,1,3.015-.615,7.11311,7.11311,0,0,1,5.265,2.294,8.00085,8.00085,0,0,1,1.545,2.535,8.63572,8.63572,0,0,1,.57,3.15v.87h-12.06a5.161,5.161,0,0,0,5.159,4.38,6.35515,6.35515,0,0,0,2.13-.36,5.27689,5.27689,0,0,0,1.74-.99l1.92,1.89a9.428,9.428,0,0,1-2.775,1.53,9.78375,9.78375,0,0,1-3.135.48,8.16092,8.16092,0,0,1-5.7-2.28,7.55308,7.55308,0,0,1-1.7-2.505,7.97505,7.97505,0,0,1-.615-3.135Z"/>
      <path id="a8b4d4f3-fbbb-484f-86d8-fccd6139cd05" data-name="Path 544" d="M244.86838,18.49728a5.15791,5.15791,0,0,0,1.515,3.78,4.981,4.981,0,0,0,3.675,1.53,5.70012,5.70012,0,0,0,2.4-.5,5.47641,5.47641,0,0,0,1.83-1.335v-6.93a5.3,5.3,0,0,0-1.83-1.3,5.82772,5.82772,0,0,0-2.4-.495,4.975,4.975,0,0,0-3.7,1.515,5.12694,5.12694,0,0,0-1.485,3.735Zm9.449,7.68v-1.44a7.04086,7.04086,0,0,1-2.159,1.245,7.349,7.349,0,0,1-2.52.435,7.50627,7.50627,0,0,1-3.03-.615,7.61672,7.61672,0,0,1-2.445-1.68,7.88676,7.88676,0,0,1-1.635-2.52,8.08973,8.08973,0,0,1,1.635-8.64,7.58671,7.58671,0,0,1,2.46-1.68,7.979,7.979,0,0,1,5.535-.225,7.44785,7.44785,0,0,1,2.13,1.11v-6.99l3-.66v21.659Z"/>
      <path id="f6862705-3560-4c7b-94f5-637e002919b8" data-name="Path 545" d="M267.4274,26.17624v-21h3.15v9h11.16v-9h3.15v21h-3.15v-9.15h-11.16v9.15Z"/>
      <path id="b98569dd-16fa-4c0b-984a-afc7b5736de7" data-name="Path 546" d="M290.61741,21.7363a2.11915,2.11915,0,0,0,.96,1.8,4.109,4.109,0,0,0,2.46.69,6.626,6.626,0,0,0,2.22-.36,5.47024,5.47024,0,0,0,1.83-1.08v-2.668a7.34235,7.34235,0,0,0-1.8-.675,9.34574,9.34574,0,0,0-2.13-.225,4.51194,4.51194,0,0,0-2.55.66,2.10889,2.10889,0,0,0-.99,1.86Zm2.73,4.71a6.09988,6.09988,0,0,1-4.05-1.3,4.166,4.166,0,0,1-1.56-3.345,3.917,3.917,0,0,1,1.755-3.464,7.73618,7.73618,0,0,1,4.425-1.185,10.51045,10.51045,0,0,1,2.175.225,11.07772,11.07772,0,0,1,1.995.615v-1.62a3,3,0,0,0-.96-2.43,4.16918,4.16918,0,0,0-2.76-.81,8.21624,8.21624,0,0,0-2.265.33,16.01675,16.01675,0,0,0-2.475.96l-1.11-2.25a19.20688,19.20688,0,0,1,3.15-1.155,12.13884,12.13884,0,0,1,3.12-.405,6.84911,6.84911,0,0,1,4.59,1.41,5.034,5.034,0,0,1,1.65,4.05v10.11h-2.94v-1.32a6.73325,6.73325,0,0,1-2.175,1.2,8.17884,8.17884,0,0,1-2.565.39Z"/>
      <path id="af3940c9-bd05-44bb-a7fe-7633028ab265" data-name="Path 547" d="M305.88541,22.39627v-8.97h-3.24v-2.52h3.24v-3.9l2.97-.72v4.62h4.504v2.52h-4.5v8.28a2.16105,2.16105,0,0,0,.525,1.65,2.51968,2.51968,0,0,0,1.725.48,7.46647,7.46647,0,0,0,1.14-.075,5.48015,5.48015,0,0,0,1.05-.285v2.52a8.63329,8.63329,0,0,1-1.41.33,9.587,9.587,0,0,1-1.44.12,4.96705,4.96705,0,0,1-3.391-1.035,3.813,3.813,0,0,1-1.17-3.015Z"/>
      <path id="a06db7a3-b0f8-4aef-8b68-cbf34a9491d9" data-name="Path 548" d="M205.29941,36.67526h18.48v3.84h-7.049v17.16h-4.351v-17.16h-7.08v-3.84Z"/>
      <path id="b450790b-e350-485a-bbcb-d21e7cee44dd" data-name="Path 549" d="M225.51941,48.31528h7.649a3.97305,3.97305,0,0,0-3.81-3.15A3.925,3.925,0,0,0,225.51941,48.31528Zm3.93-6.54c4.44,0,7.74,3.6,7.74,8.4v1.08h-11.64a4.5,4.5,0,0,0,4.44,3.27,4.92,4.92,0,0,0,3.45-1.26l2.7,2.46a9.36892,9.36892,0,0,1-6.33,2.25,8.13693,8.13693,0,0,1-8.39581-7.86963q-.00375-.11517-.00421-.23034a7.978,7.978,0,0,1,7.85486-8.09931q.09255-.00137.18512-.00067Z"/>
      <path id="b54b3a64-2b82-4b66-af27-f846b1ce219b" data-name="Path 550" d="M251.19837,52.63528l2.46,2.55a8.624,8.624,0,0,1-6.36,2.79,8.115,8.115,0,0,1-.17975-16.229q.0899-.001.17975,0a8.78993,8.78993,0,0,1,6.48,2.79l-2.52,2.67a5.06306,5.06306,0,0,0-3.87-1.89,4.54,4.54,0,0,0,.09,9.06,4.95012,4.95012,0,0,0,3.719-1.74Z"/>
      <path id="a754e58a-fa3a-4953-9876-2bc3b8830222" data-name="Path 551" d="M266.31742,48.55527a3.071,3.071,0,0,0-3.27-3.27,3.672,3.672,0,0,0-3.21,1.56v10.83h-4.109v-21l4.109-.9v7.53a6.51994,6.51994,0,0,1,4.38-1.56,5.93,5.93,0,0,1,6.18036,5.66858q.01171.27063-.00134.54144v9.72h-4.08v-9.12Z"/>
      <path id="aa064b52-4ca5-4533-85a5-589abc4254b5" data-name="Path 552" d="M273.51743,42.04526h4.11v1.26a6.51986,6.51986,0,0,1,4.381-1.56,5.93,5.93,0,0,1,6.18133,5.66754q.01172.27119-.00134.54248v9.72h-4.077v-9.12a3.071,3.071,0,0,0-3.27-3.27,3.67291,3.67291,0,0,0-3.21,1.56v10.83h-4.11v-15.63Z"/>
      <path id="b406dc4a-1baf-491b-93b6-46b77376f9b7" data-name="Path 553" d="M295.41538,57.67526h-4.11v-15.63h4.11Zm-4.409-19.83a2.34,2.34,0,1,1,2.34,2.34A2.34,2.34,0,0,1,291.00638,37.84525Z"/>
      <path id="a8ba05a6-b460-4f71-95e9-16e54688f0fd" data-name="Path 554" d="M309.96537,52.63528l2.46,2.55a8.62511,8.62511,0,0,1-6.36,2.79,8.115,8.115,0,0,1-.17974-16.229q.0899-.001.17974,0a8.792,8.792,0,0,1,6.48,2.79l-2.52,2.67a5.06515,5.06515,0,0,0-3.87-1.89,4.54,4.54,0,0,0,.09,9.06,4.95185,4.95185,0,0,0,3.72-1.74Z"/>
      <path id="ad778673-78ac-4846-8147-34b9cad2a7f4" data-name="Path 555" d="M320.58439,55.00528a5.985,5.985,0,0,0,3.451-.99v-2.34a9.27232,9.27232,0,0,0-3.3-.57c-1.8,0-3,.69-3,1.95,0,1.2,1.11,1.95,2.85,1.95Zm-6.78-1.86c0-3.06,2.52-4.74,6.42-4.74a12.07911,12.07911,0,0,1,3.81.6v-1.11c0-1.83-1.11-2.73-3.3-2.73a12.13193,12.13193,0,0,0-4.77,1.29l-1.5-3.03a16.43742,16.43742,0,0,1,6.961-1.68c4.17,0,6.66,2.04,6.66,5.79v10.14h-4.05v-1.11a7.32,7.32,0,0,1-4.53,1.38c-3.451,0-5.7-2.04-5.7-4.8Z"/>
      <path id="a294ddc4-dbe8-4c39-b83f-69841e8bb73b" data-name="Path 556" d="M335.31443,57.67526h-4.109v-21l4.109-.9Z"/>
      <path id="ed72a5d6-9702-488d-9c1d-637091e28d86" data-name="Path 557" d="M218.67942,80.17526l-2.968-7.74-3.03,7.74Zm-5.4-12h5.041l8.52,21h-4.71l-2.13-5.52h-8.67l-2.161,5.52h-4.529l8.639-21Z"/>
      <path id="e9837239-c6d5-4d14-b6b1-3182954fd05a" data-name="Path 558" d="M238.83942,84.13431l2.46,2.55a8.6241,8.6241,0,0,1-6.359,2.79,8.115,8.115,0,1,1-.02459-16.23h.02459a8.79283,8.79283,0,0,1,6.48,2.79l-2.52,2.67a5.065,5.065,0,0,0-3.871-1.89,4.54,4.54,0,0,0,.091,9.06,4.9532,4.9532,0,0,0,3.72-1.74Z"/>
      <path id="af16daed-e941-4c6e-adf9-537ccb6196e8" data-name="Path 559" d="M254.1984,84.13431l2.46,2.55a8.624,8.624,0,0,1-6.36,2.79,8.115,8.115,0,1,1-.0246-16.23h.0246a8.79286,8.79286,0,0,1,6.48,2.79l-2.52,2.67a5.067,5.067,0,0,0-3.871-1.89,4.54,4.54,0,0,0,.091,9.06,4.951,4.951,0,0,0,3.719-1.74Z"/>
      <path id="f6e0a6f7-01c0-473e-828f-f7a34bd2db11" data-name="Path 560" d="M265.80838,76.81827a4.551,4.551,0,1,0,4.31415,4.77612q.00549-.108.00586-.21612a4.4,4.4,0,0,0-4.23639-4.55774Q265.85016,76.819,265.80838,76.81827Zm0-3.57a8.14651,8.14651,0,1,1-.17724-.00226Q265.71976,73.24618,265.80838,73.24826Z"/>
      <path id="b44a119f-5e89-4899-ba05-36dc0800ff4f" data-name="Path 561" d="M280.68842,82.66525a3.071,3.071,0,0,0,3.27,3.27,3.671,3.671,0,0,0,3.209-1.56v-10.83h4.11v15.63h-4.11v-1.257a6.51785,6.51785,0,0,1-4.38,1.56,5.93006,5.93006,0,0,1-6.18134-5.66754q-.01171-.27119.00135-.54248v-9.72h4.08v9.12Z"/>
      <path id="b7a7162e-3274-4933-a1ce-e9a7e38b5e5c" data-name="Path 562" d="M294.39743,73.54428h4.11v1.26a6.521,6.521,0,0,1,4.38-1.56A5.93092,5.93092,0,0,1,309.0687,78.914q.01172.27007-.00128.54034v9.72h-4.08v-9.12a3.071,3.071,0,0,0-3.27-3.27,3.67292,3.67292,0,0,0-3.21,1.56v10.83h-4.11v-15.63Z"/>
      <path id="b0181fe2-b941-4c3b-95a0-0381a2c1a151" data-name="Path 563" d="M313.7764,76.99527h-3.21v-3.45h3.21v-3.99l4.11-.93v4.92h4.44v3.45h-4.44v6.93c0,1.47.57,2.01,2.16,2.01a6.83078,6.83078,0,0,0,2.19-.36v3.36a13.17739,13.17739,0,0,1-3.181.48c-3.419,0-5.28-1.56-5.28-4.65v-7.77Z"/>
      <path id="fdc5e0f5-486e-4840-9caf-ac00a32f32c9" data-name="Path 564" d="M334.6854,73.72427v15.45h-4.02v-21h5.58l5.76,11.28,5.76-11.28h5.58v21h-4.11v-15.42l-7.29,13.92-7.26-13.95Z"/>
      <path id="af47ad04-9e31-4eea-8abd-5d76f5495cfd" data-name="Path 565" d="M362.58439,86.5043a5.98435,5.98435,0,0,0,3.45-.99v-2.34a9.2611,9.2611,0,0,0-3.3-.57c-1.8,0-3,.69-3,1.95C359.73441,85.7543,360.8444,86.5043,362.58439,86.5043Zm-6.78-1.86c0-3.06,2.521-4.74,6.421-4.74a12.06935,12.06935,0,0,1,3.809.6v-1.11c0-1.829-1.11-2.729-3.3-2.729a12.12293,12.12293,0,0,0-4.77,1.29l-1.5-3.03a16.43862,16.43862,0,0,1,6.96-1.68c4.171,0,6.66,2.04,6.66,5.79v10.14h-4.05v-1.11a7.318,7.318,0,0,1-4.529,1.38c-3.451,0-5.7-2.039-5.7-4.8Z"/>
      <path id="a7caa5fd-9d1c-4da2-a81a-a0a023832338" data-name="Path 566" d="M373.20438,73.54428h4.11v1.26a6.52308,6.52308,0,0,1,4.38-1.56,5.93,5.93,0,0,1,6.18036,5.66858q.01171.27063-.00134.54144v9.72h-4.08v-9.12a3.071,3.071,0,0,0-3.27-3.27,3.67393,3.67393,0,0,0-3.21,1.56v10.83h-4.11v-15.63Z"/>
      <path id="a67ec7db-f1e0-40ca-a320-9a0f7f045b8a" data-name="Path 567" d="M397.08237,86.5043a5.988,5.988,0,0,0,3.451-.99v-2.34a9.26813,9.26813,0,0,0-3.3-.57c-1.8,0-3,.69-3,1.95,0,1.2,1.11,1.95,2.85,1.95Zm-6.78-1.86c0-3.06,2.52-4.74,6.421-4.74a12.07564,12.07564,0,0,1,3.81.6v-1.11c0-1.829-1.111-2.729-3.3-2.729a12.1254,12.1254,0,0,0-4.77,1.29l-1.5-3.03a16.44112,16.44112,0,0,1,6.961-1.68c4.17,0,6.66,2.04,6.66,5.79v10.14h-4.05v-1.11a7.31926,7.31926,0,0,1-4.53,1.38c-3.451,0-5.7-2.039-5.7-4.8Z"/>
      <path id="e00b6747-8dd0-4607-a92a-e9fe111b72b1" data-name="Path 568" d="M415.59342,85.78433a5.148,5.148,0,0,0,3.66-1.41v-6.15a5.26108,5.26108,0,0,0-3.63-1.41,4.485,4.485,0,1,0-.03,8.97Zm-8.551-4.53a8.006,8.006,0,0,1,12.271-6.72v-.99h4.046v15.6c0,4.17-2.76,6.45-7.74,6.45a14.81259,14.81259,0,0,1-6.51-1.41l1.43994-3.21a11.33152,11.33152,0,0,0,4.981,1.26c2.459,0,3.72-1.05,3.72-3.12v-1.26a7.21111,7.21111,0,0,1-4.291,1.41,7.9,7.9,0,0,1-7.92077-7.87915q-.0002-.06546.00073-.13086Z"/>
      <path id="f5e11605-bd17-4b24-a9e1-5d9a76b5809e" data-name="Path 569" d="M429.93143,79.8143h7.65a3.974,3.974,0,0,0-3.81006-3.15A3.926,3.926,0,0,0,429.93143,79.8143Zm3.93006-6.54c4.43994,0,7.74,3.6,7.74,8.4v1.08H429.95841a4.50007,4.50007,0,0,0,4.43994,3.27,4.919,4.919,0,0,0,3.45-1.26l2.7,2.46a9.37174,9.37174,0,0,1-6.32995,2.25,8.13708,8.13708,0,0,1-8.39588-7.86963q-.00366-.11518-.00415-.23035a7.978,7.978,0,0,1,7.85486-8.0993q.09265-.00138.18518-.00068Z"/>
      <path id="e74b6c88-c805-4e7f-a6d6-9f0c53410157" data-name="Path 570" d="M444.05741,73.54428h4.109v1.71a5.08894,5.08894,0,0,1,4.17-2.07,3.5372,3.5372,0,0,1,1.71.36v3.6a4.948,4.948,0,0,0-2.1-.42,4.149,4.149,0,0,0-3.78,2.31v10.14h-4.109Z"/>
      <path id="e39f1275-c054-43a0-92d2-b1d38e96c0ea" data-name="Path 571" class="bced4d8e-e2ee-4ab3-a865-a5d9973121fe" d="M147.9784,32.01425a18.738,18.738,0,0,1,.646,3.8c0,5.254-5.9,8.164-13.661,8.164-17.541,0-32.9-10.266-32.9-17.056a6.91579,6.91579,0,0,1,.566-2.748c-6.305.323-14.47,1.455-14.47,8.65,0,11.8,27.969,26.352,50.119,26.352,16.975,0,21.259-7.679,21.259-13.742,0-4.77-4.122-10.185-11.559-13.419Zm-12.206,4.284c4.688,0,11.478-.97,11.478-6.548a5.29015,5.29015,0,0,0-.116-1.281l-2.794-12.136c-.647-2.668-1.212-3.88-5.9-6.224-3.638-1.859-11.56-4.931-13.9-4.931-2.182,0-2.829,2.829-5.416,2.829-2.506,0-4.365-2.1-6.709-2.1-2.263,0-3.718,1.536-4.85,4.689,0,0-3.153,8.892-3.557,10.185a2.329,2.329,0,0,0-.083.727c0,3.456,13.609,14.793,31.852,14.793Z"/>
      <path id="b4148bbb-b6e9-4d58-b091-e835ae4a82c1" data-name="Path 572" d="M147.98038,32.01425a18.73727,18.73727,0,0,1,.646,3.8c0,5.254-5.9,8.164-13.661,8.164-17.541,0-32.9-10.266-32.9-17.057a6.91463,6.91463,0,0,1,.566-2.748l1.374-3.4a2.32889,2.32889,0,0,0-.083.728c0,3.455,13.609,14.793,31.852,14.793,4.688,0,11.478-.97,11.478-6.548a5.29183,5.29183,0,0,0-.116-1.283l.844,3.546Z"/>
      <path id="a9936e66-22e1-46c9-886b-ad2d132280a2" data-name="Path 573" d="M183.20841,91.99429a.844.844,0,0,1-.844-.844v-87.85a.844.844,0,0,1,1.688,0v87.85A.844.844,0,0,1,183.20841,91.99429Z"/>
    </g>
  </g>
  <g>
    <path d="M216.449,177.81754h-6.13975v7.04316H216.449a4.18767,4.18767,0,0,0,3.04-1.02343,3.48788,3.48788,0,0,0,0-4.9963,4.19,4.19,0,0,0-3.04-1.02343Zm-9.3001,18.30005V175.04852h9.57137a8.46135,8.46135,0,0,1,2.93425.48149,6.60276,6.60276,0,0,1,2.21223,1.30928,5.58119,5.58119,0,0,1,1.38455,1.97157,6.29156,6.29156,0,0,1,.48157,2.46809,5.72962,5.72962,0,0,1-1.17383,3.58175,6.41832,6.41832,0,0,1-3.16,2.19716l4.695,9.05973H220.603l-4.36469-8.63831h-5.92906v8.63831Z"/>
    <path d="M232.61231,183.0848a4.33452,4.33452,0,0,0-3.00986,1.14379,5.09072,5.09072,0,0,0-1.59523,2.94978H237.097a5.043,5.043,0,0,0-1.56512-2.91969,4.16339,4.16339,0,0,0-2.91958-1.17388Zm-7.615,5.35767a8.07185,8.07185,0,0,1,.58692-3.07013,7.64993,7.64993,0,0,1,4.06331-4.19884,7.41989,7.41989,0,0,1,3.02492-.61687,7.13637,7.13637,0,0,1,5.28194,2.30239,8.01108,8.01108,0,0,1,1.55045,2.54346,8.67638,8.67638,0,0,1,.57188,3.16031v.873H227.97712a5.17874,5.17874,0,0,0,5.17658,4.39429,6.37376,6.37376,0,0,0,2.13739-.36119,5.29328,5.29328,0,0,0,1.74573-.99328l1.9263,1.89621a9.45653,9.45653,0,0,1-2.78411,1.53507,9.8128,9.8128,0,0,1-3.14532.48169A8.18825,8.18825,0,0,1,227.315,194.101a7.56149,7.56149,0,0,1-1.7006-2.51331,7.996,7.996,0,0,1-.617-3.14524Z"/>
    <path d="M245.25375,188.41233a5.17766,5.17766,0,0,0,1.52,3.79248,4.9952,4.9952,0,0,0,3.6867,1.535,5.71081,5.71081,0,0,0,2.40827-.49674,5.492,5.492,0,0,0,1.836-1.33939v-6.95279a5.31423,5.31423,0,0,0-1.836-1.30929,5.84777,5.84777,0,0,0-2.40827-.49655,4.99255,4.99255,0,0,0-3.71682,1.52,5.146,5.146,0,0,0-1.48987,3.74727Zm9.48107,7.70526v-1.4447a7.07066,7.07066,0,0,1-2.16709,1.249,7.37064,7.37064,0,0,1-2.52829.43651,7.52488,7.52488,0,0,1-3.04-.61706,7.62865,7.62865,0,0,1-2.45305-1.68553,7.90828,7.90828,0,0,1-1.64075-2.52835,8.0158,8.0158,0,0,1-.6016-3.085,8.01344,8.01344,0,0,1,2.24235-5.58345,7.60829,7.60829,0,0,1,2.46771-1.68552,8.00507,8.00507,0,0,1,5.55359-.2256,7.4793,7.4793,0,0,1,2.137,1.11366v-7.013l3.00986-.66208v21.73115Z"/>
    <polygon points="267.888 196.118 267.888 175.049 271.048 175.049 271.048 184.078 282.245 184.078 282.245 175.049 285.405 175.049 285.405 196.118 282.245 196.118 282.245 186.938 271.048 186.938 271.048 196.118 267.888 196.118 267.888 196.118"/>
    <path d="M291.15345,191.663a2.12783,2.12783,0,0,0,.96314,1.80584,4.12493,4.12493,0,0,0,2.46845.69224,6.65335,6.65335,0,0,0,2.22732-.36118,5.48608,5.48608,0,0,0,1.83563-1.08352V190.0376a7.36949,7.36949,0,0,0-1.80555-.67716,9.38353,9.38353,0,0,0-2.13735-.22577,4.52868,4.52868,0,0,0-2.55838.66228,2.11661,2.11661,0,0,0-.99326,1.86608Zm2.73936,4.72553a6.11975,6.11975,0,0,1-4.06371-1.30929,4.17952,4.17952,0,0,1-1.56512-3.35616,3.93032,3.93032,0,0,1,1.76077-3.47631,7.76545,7.76545,0,0,1,4.43955-1.18894,10.53085,10.53085,0,0,1,2.18215.22577,11.10265,11.10265,0,0,1,2.00154.61707v-1.62545a3.0125,3.0125,0,0,0-.96277-2.438,4.18394,4.18394,0,0,0-2.76946-.81252,8.25211,8.25211,0,0,0-2.27244.331,16.05851,16.05851,0,0,0-2.48276.9632l-1.114-2.2574a19.32675,19.32675,0,0,1,3.16037-1.15884,12.17591,12.17591,0,0,1,3.13063-.40636,6.87221,6.87221,0,0,1,4.60509,1.41474,5.05386,5.05386,0,0,1,1.65507,4.06324v10.14325H298.648v-1.32438a6.75937,6.75937,0,0,1-2.18176,1.204,8.20037,8.20037,0,0,1-2.57342.39132Z"/>
    <path d="M306.47366,192.32513v-8.99946H303.223v-2.52841h3.25066v-3.91278l2.97978-.72233v4.63511h4.5148v2.52841h-4.5148v8.30723a2.16685,2.16685,0,0,0,.52708,1.65538,2.52647,2.52647,0,0,0,1.73032.48151,7.505,7.505,0,0,0,1.14374-.07514,5.52071,5.52071,0,0,0,1.05342-.286V195.937a8.6379,8.6379,0,0,1-1.41461.331,9.603,9.603,0,0,1-1.44473.12051A4.97911,4.97911,0,0,1,307.6475,195.35a3.82532,3.82532,0,0,1-1.17384-3.02491Z"/>
    <path d="M223.10152,221.30987l2.859,2.82964a11.47289,11.47289,0,0,1-8.63831,3.88273,10.85717,10.85717,0,1,1,0-21.70173,11.48946,11.48946,0,0,1,8.75909,3.94316l-2.94968,2.91957a7.339,7.339,0,0,0-5.80941-2.85939,6.83273,6.83273,0,0,0,.12039,13.66479,7.18421,7.18421,0,0,0,5.65893-2.67877Z"/>
    <path d="M231.04718,218.33011h7.67517a3.98668,3.98668,0,0,0-3.82253-3.16036,3.93831,3.93831,0,0,0-3.85264,3.16036Zm3.94292-6.56152c4.45461,0,7.76584,3.61184,7.76584,8.42763v1.08355H231.07729a4.518,4.518,0,0,0,4.4546,3.28076,4.93669,4.93669,0,0,0,3.46171-1.26415l2.70851,2.46846a9.39958,9.39958,0,0,1-6.35083,2.2574,8.16417,8.16417,0,0,1-8.428-8.127,8.005,8.005,0,0,1,8.06682-8.12664Z"/>
    <path d="M245.22327,212.03947h4.12352v1.71563a5.1053,5.1053,0,0,1,4.18409-2.07681,3.55371,3.55371,0,0,1,1.71562.36118v3.61185a4.95545,4.95545,0,0,0-2.1069-.42138,4.164,4.164,0,0,0-3.79281,2.31759v10.17373h-4.12352V212.03947Z"/>
    <path d="M259.97161,215.50082h-3.22092v-3.46135h3.22092v-4.00331l4.12389-.93305v4.93636h4.45424v3.46135H264.0955v6.9528c0,1.4752.57151,2.017,2.16673,2.017a6.85984,6.85984,0,0,0,2.19721-.36118v3.371a13.222,13.222,0,0,1-3.19046.4812c-3.43088,0-5.29737-1.56514-5.29737-4.66529v-7.79556Z"/>
    <path d="M274.65976,227.72126h-4.12351V212.03947h4.12351v15.68179Zm-4.42487-19.89582a2.34769,2.34769,0,1,1,2.34769,2.34792,2.37063,2.37063,0,0,1-2.34769-2.34792Z"/>
    <path d="M280.25808,212.03947v-1.50492c0-3.43144,2.01626-5.448,5.9592-5.448a10.43254,10.43254,0,0,1,2.43835.27081v3.46139a7.66912,7.66912,0,0,0-1.92668-.24083c-1.56478,0-2.34735.66239-2.34735,2.04694v1.41462h4.274v3.46135h-4.274v12.22044h-4.12352V215.50082h-3.49217v-3.46135Z"/>
    <path d="M294.88568,227.72126h-4.12352V212.03947h4.12352v15.68179Zm-4.42451-19.89582a2.3477,2.3477,0,1,1,2.34767,2.34792,2.37061,2.37061,0,0,1-2.34767-2.34792Z"/>
    <path d="M309.48352,222.66431l2.46848,2.55876a8.6555,8.6555,0,0,1-6.38129,2.79917,8.14222,8.14222,0,1,1,0-16.28375,8.82139,8.82139,0,0,1,6.50169,2.79918l-2.52869,2.67878a5.08163,5.08163,0,0,0-3.88271-1.89622,4.55473,4.55473,0,0,0,.0903,9.08979,4.96826,4.96826,0,0,0,3.73222-1.74571Z"/>
    <path d="M320.13882,225.04247a6.00063,6.00063,0,0,0,3.461-.99363v-2.3477a9.2937,9.2937,0,0,0-3.31087-.57186c-1.80589,0-3.00984.69264-3.00984,1.9564,0,1.20434,1.11363,1.95679,2.85973,1.95679Zm-6.803-1.86611c0-3.07007,2.52827-4.756,6.44148-4.756a12.10861,12.10861,0,0,1,3.82254.602v-1.11366c0-1.836-1.11327-2.739-3.31087-2.739a12.16883,12.16883,0,0,0-4.78568,1.29423l-1.50493-3.04a16.48891,16.48891,0,0,1,6.98328-1.68553c4.18332,0,6.68188,2.04671,6.68188,5.809v10.17373H323.5998V226.6076a7.34192,7.34192,0,0,1-4.5449,1.38417c-3.46135,0-5.71912-2.04634-5.71912-4.81541Z"/>
    <path d="M332.3886,215.50082h-3.22019v-3.46135h3.22019v-4.00331l4.12352-.93305v4.93636h4.455v3.46135h-4.455v6.9528c0,1.4752.57225,2.017,2.16748,2.017a6.86169,6.86169,0,0,0,2.19721-.36118v3.371a13.22226,13.22226,0,0,1-3.19047.4812c-3.43162,0-5.29774-1.56514-5.29774-4.66529v-7.79556Z"/>
    <path d="M347.07673,227.72126h-4.12389V212.03947h4.12389v15.68179Zm-4.42487-19.89582a2.34789,2.34789,0,1,1,2.34808,2.34792,2.37046,2.37046,0,0,1-2.34808-2.34792Z"/>
    <path d="M357.91227,215.32023a4.566,4.566,0,1,0,4.33417,4.575,4.4122,4.4122,0,0,0-4.33417-4.575Zm0-3.58174a8.14493,8.14493,0,1,1-8.36781,8.15674,8.17339,8.17339,0,0,1,8.36781-8.15674Z"/>
    <path d="M368.74778,212.03947h4.12313v1.26415a6.54275,6.54275,0,0,1,4.39477-1.56513,5.94944,5.94944,0,0,1,6.20034,6.23044v9.75233h-4.09344v-9.15037a3.08091,3.08091,0,0,0-3.28111-3.28075,3.68562,3.68562,0,0,0-3.22056,1.56513v10.866h-4.12313V212.03947Z"/>
    <polygon points="391.622 206.652 410.163 206.652 410.163 210.504 403.09 210.504 403.09 227.721 398.725 227.721 398.725 210.504 391.622 210.504 391.622 206.652 391.622 206.652"/>
    <path d="M411.90811,218.33011h7.67517a3.98635,3.98635,0,0,0-3.82254-3.16036,3.93891,3.93891,0,0,0-3.85263,3.16036Zm3.943-6.56152c4.45454,0,7.76578,3.61184,7.76578,8.42763v1.08355H411.93822a4.5183,4.5183,0,0,0,4.45461,3.28076,4.93675,4.93675,0,0,0,3.46172-1.26415l2.70888,2.46846a9.40036,9.40036,0,0,1-6.35082,2.2574,8.16393,8.16393,0,0,1-8.428-8.127,8.00464,8.00464,0,0,1,8.06647-8.12664Z"/>
    <path d="M432.13441,225.04247a6.00015,6.00015,0,0,0,3.46135-.99363v-2.3477a9.29212,9.29212,0,0,0-3.31084-.57186c-1.80557,0-3.00987.69264-3.00987,1.9564,0,1.20434,1.114,1.95679,2.85936,1.95679Zm-6.80267-1.86611c0-3.07007,2.52867-4.756,6.44148-4.756a12.11026,12.11026,0,0,1,3.82254.602v-1.11366c0-1.836-1.11327-2.739-3.31084-2.739a12.16874,12.16874,0,0,0-4.7857,1.29423l-1.505-3.04a16.48628,16.48628,0,0,1,6.98328-1.68553c4.18371,0,6.6819,2.04671,6.6819,5.809v10.17373h-4.06368V226.6076a7.34041,7.34041,0,0,1-4.5449,1.38417c-3.46135,0-5.71912-2.04634-5.71912-4.81541Z"/>
    <path d="M442.78932,212.03947h4.12354v1.17385a6.098,6.098,0,0,1,4.093-1.47483,5.64281,5.64281,0,0,1,4.72588,2.3176,6.60514,6.60514,0,0,1,5.177-2.3176,5.87311,5.87311,0,0,1,6.01973,6.23044v9.75233H462.805v-9.15037c0-1.95641-1.14379-3.28075-2.97978-3.28075a3.53079,3.53079,0,0,0-3.00987,1.56513,6.41711,6.41711,0,0,1,.09032,1.11366v9.75233h-4.1239v-9.15037c0-1.95641-1.11365-3.28075-2.9497-3.28075a3.48541,3.48541,0,0,0-2.91916,1.44473v10.98639h-4.12354V212.03947Z"/>
    <path class="bced4d8e-e2ee-4ab3-a865-a5d9973121fe" d="M148.04112,201.97509a18.79911,18.79911,0,0,1,.64862,3.81177c0,5.27178-5.9204,8.19135-13.70656,8.19135-17.59965,0-33.00941-10.29995-33.00941-17.11278a6.94284,6.94284,0,0,1,.56762-2.75745c-6.32576.32428-14.51728,1.45974-14.51728,8.678,0,11.8412,28.06171,26.44018,50.2846,26.44018,17.0317,0,21.33017-7.70526,21.33017-13.7878,0-4.78532-4.13631-10.21918-11.59776-13.46329Zm-12.24677,4.29839c4.704,0,11.51649-.97327,11.51649-6.56936a5.31217,5.31217,0,0,0-.11663-1.28725l-2.80256-12.17614c-.649-2.67646-1.21712-3.893-5.92116-6.245-3.64945-1.86536-11.59776-4.94725-13.94956-4.94725-2.18978,0-2.83863,2.83865-5.43408,2.83865-2.51423,0-4.37958-2.10878-6.7318-2.10878-2.2706,0-3.73072,1.54094-4.866,4.704,0,0-3.16307,8.92139-3.56868,10.2191a2.33949,2.33949,0,0,0-.083.73008c0,3.46673,13.65426,14.84191,31.95706,14.84191Z"/>
    <path d="M148.04112,201.97509a18.79911,18.79911,0,0,1,.64862,3.81177c0,5.27178-5.9204,8.19135-13.70656,8.19135-17.59965,0-33.00941-10.29995-33.00941-17.11278a6.94284,6.94284,0,0,1,.56762-2.75745l1.37894-3.40649a2.33949,2.33949,0,0,0-.083.73008c0,3.46673,13.65426,14.84191,31.95706,14.84191,4.704,0,11.51649-.97327,11.51649-6.56936a5.31217,5.31217,0,0,0-.11663-1.28725l.84691,3.55822Z"/>
    <path d="M183.38746,232.04793a.84659.84659,0,0,1-.84652-.84652V173.16735a.84653.84653,0,0,1,1.69306,0v58.03406a.84684.84684,0,0,1-.84654.84652Z"/>
  </g>
</svg>
