<svg id="a88bfe71-6982-4423-866c-a7d08af3ba2f" data-name="Layer 1" xmlns="http://www.w3.org/2000/svg" viewBox="0 0 555 277.661">
  <defs>
    <style>
      .b75e7eaf-98d1-4ac8-b6c7-37ec0e3e0d5c {
        fill: #efefef;
      }

      .e941a3c9-624f-48ed-85fd-be91d4f8c3e3 {
        fill: none;
        stroke: #efefef;
      }

      .b0816035-2f13-40c3-85ed-6ec332d01b21 {
        fill: #e00;
      }
    </style>
  </defs>
  <g id="b83203b1-10dc-424c-be92-772e0b26a2f2" data-name="Rectangle 146">
    <rect class="b75e7eaf-98d1-4ac8-b6c7-37ec0e3e0d5c" width="555" height="277.661"/>
    <rect class="e941a3c9-624f-48ed-85fd-be91d4f8c3e3" x="0.5" y="0.5" width="554" height="276.661"/>
  </g>
  <g id="f4839b11-ab5d-4aac-ac7c-2d868f262e1d" data-name="Group 316">
    <path id="ea26719c-3bce-4477-9fdb-65806b17b2cc" data-name="Path 597" d="M220.036,106.061v6.41h5.589c2.247,0,3.726-1.287,3.726-3.2,0-1.945-1.479-3.2-3.726-3.2Zm-2.876-2.521h8.712c3.808,0,6.384,2.3,6.384,5.671a5.418,5.418,0,0,1-3.945,5.26l4.274,8.246h-3.178l-3.972-7.863h-5.4v7.863h-2.876V103.539Z"/>
    <path id="fd0c450b-9b9a-44f0-96b0-33139db9aa75" data-name="Path 598" d="M236.172,114.581h8.274a4.159,4.159,0,0,0-8.274,0Zm4.575,8.383a7.176,7.176,0,0,1-7.314-7.035c0-.066,0-.132,0-.2a7.007,7.007,0,0,1,6.834-7.176l.152,0c3.836,0,6.74,3.178,6.74,7.287v.794H236.145a4.7,4.7,0,0,0,4.712,4,5.427,5.427,0,0,0,3.534-1.233l1.753,1.726a8.316,8.316,0,0,1-5.4,1.835Z"/>
    <path id="e77896df-721d-40dd-94b9-5dc9dc52e95b" data-name="Path 599" d="M256.609,120.553a5.025,5.025,0,0,0,3.862-1.671v-6.329a5.1,5.1,0,0,0-3.862-1.644,4.822,4.822,0,0,0,0,9.643Zm3.89.85a6.584,6.584,0,0,1-4.274,1.534,7.192,7.192,0,1,1,4.246-13.013V103.54l2.74-.6v19.78H260.5V121.4Z"/>
    <path id="b20d4c0a-15c7-48f4-a32f-2fa50ed485a2" data-name="Path 600" d="M272.5,103.54h2.872v8.219h10.2V103.54h2.877v19.178H285.57v-8.356h-10.2v8.356h-2.876V103.54Z"/>
    <path id="f78523cc-b598-4dfd-b4ac-c3a6623ea472" data-name="Path 601" d="M296.8,120.937a5.366,5.366,0,0,0,3.7-1.315v-2.411a7.248,7.248,0,0,0-3.589-.849c-2,0-3.232.9-3.232,2.3,0,1.342,1.26,2.274,3.123,2.274Zm-5.754-2.219c0-2.63,2.137-4.247,5.644-4.247a9.841,9.841,0,0,1,3.808.767v-1.479c0-1.972-1.179-2.959-3.4-2.959a9.922,9.922,0,0,0-4.328,1.178l-1.012-2.054a13.057,13.057,0,0,1,5.726-1.425c3.617,0,5.7,1.781,5.7,4.986v9.233H300.5v-1.2a6.62,6.62,0,0,1-4.329,1.452c-3.042,0-5.124-1.726-5.124-4.246Z"/>
    <path id="f163dc38-d8d5-4e8e-b19e-eabd84207a0a" data-name="Path 602" d="M307.593,111.074h-2.959v-2.3h2.959v-3.561l2.712-.658v4.219h4.11v2.3h-4.11v7.561c0,1.425.576,1.946,2.054,1.946a5.391,5.391,0,0,0,2-.329v2.3a9.065,9.065,0,0,1-2.6.411c-2.712,0-4.165-1.287-4.165-3.7v-8.189Z"/>
    <path id="fcadd33c-205d-4e17-900e-7e69f8c5f4a1" data-name="Path 603" d="M216.94,132.306h3.972v15.671h10.493v3.507H216.94Z"/>
    <path id="ea3f087e-7086-45db-895e-96fcd9854c64" data-name="Path 604" d="M236.391,142.936h6.986a3.682,3.682,0,0,0-3.479-2.877A3.586,3.586,0,0,0,236.391,142.936Zm3.917,8.822a7.43,7.43,0,0,1-7.667-7.187c0-.071,0-.142,0-.213a7.286,7.286,0,0,1,7.171-7.4c.057,0,.114,0,.171,0,4.055,0,7.068,3.287,7.068,7.671v.989H236.418a4.111,4.111,0,0,0,4.055,2.987,4.494,4.494,0,0,0,3.15-1.151l2.466,2.246a8.558,8.558,0,0,1-5.781,2.055Z"/>
    <path id="a9a9555f-31cb-4edb-a81d-a8a4d4ea2e57" data-name="Path 605" d="M247.322,137.21H251.4l3.918,9.507,3.891-9.507h4l-6.137,14.274H253.46l-6.136-14.274Z"/>
    <path id="a088f160-c495-4347-b8b1-115d9eddd137" data-name="Path 606" d="M267.239,142.936h6.986a3.682,3.682,0,0,0-3.479-2.877,3.584,3.584,0,0,0-3.506,2.877Zm3.917,8.822a7.43,7.43,0,0,1-7.667-7.187c0-.071,0-.142,0-.213a7.286,7.286,0,0,1,7.171-7.4c.057,0,.114,0,.171,0,4.055,0,7.069,3.287,7.069,7.671v.989h-10.63a4.113,4.113,0,0,0,4.054,2.987,4.5,4.5,0,0,0,3.151-1.151l2.466,2.246a8.558,8.558,0,0,1-5.781,2.055Z"/>
    <path id="ae0a2ee2-0465-42c4-b57b-faefd66ddd48" data-name="Path 607" d="M283.95,151.484H280.2V132.306l3.753-.822Z"/>
    <path id="a0b27d67-b7d4-4032-b20b-bc70dad63e83" data-name="Path 608" d="M300.825,151.762c-5.177,0-8.493-3.315-8.493-8.575V132.311h3.973v10.876c0,2.986,1.781,4.9,4.547,4.9,2.74,0,4.493-1.918,4.493-4.9V132.311h3.972v10.876c0,5.233-3.342,8.575-8.493,8.575Z"/>
    <path id="b4db9e01-360a-4e66-b457-e8dd32e38725" data-name="Path 609" d="M316,141.566v5.616a4.807,4.807,0,0,0,3.4,1.315,4.137,4.137,0,1,0,0-8.274,4.6,4.6,0,0,0-3.4,1.343Zm-3.753-4.356h3.7v1.178a6.476,6.476,0,0,1,4.055-1.37,7.329,7.329,0,0,1-.109,14.657A7.1,7.1,0,0,1,316,150.552v6.657h-3.753v-20Z"/>
    <path id="a10ba52d-43ae-4d15-8149-f79b46f6254b" data-name="Path 610" d="M339.288,135.731v5.233h5.206a2.626,2.626,0,1,0,.446-5.233,2.555,2.555,0,0,0-.446,0Zm-3.972-3.425h9.616c3.781,0,6.438,2.493,6.438,6.027,0,3.424-2.712,5.917-6.438,5.917h-5.644v7.233h-3.972V132.305Z"/>
    <path id="e73e8f1f-57b4-4471-a70d-cc8c99f7049f" data-name="Path 611" d="M353.725,137.21h3.753v1.566a4.541,4.541,0,0,1,3.808-1.89,3.223,3.223,0,0,1,1.562.329V140.5a4.786,4.786,0,0,0-1.918-.383,3.778,3.778,0,0,0-3.452,2.137v9.232h-3.753V137.21Z"/>
    <path id="f7a99e83-0945-41ca-b246-7872159ba408" data-name="Path 612" d="M375.1,144.361a3.949,3.949,0,1,0-3.945,4.137,4,4,0,0,0,3.947-4.052C375.1,144.417,375.1,144.389,375.1,144.361Zm-3.945-7.425a7.443,7.443,0,1,1-.163,0Z"/>
    <path id="b15b5e9a-b997-47d5-a3c3-ac9bf8bef388" data-name="Path 613" d="M388.327,148.388a4.7,4.7,0,0,0,3.342-1.288v-5.616a4.8,4.8,0,0,0-3.314-1.288,4.1,4.1,0,0,0-.389,8.191c.12.006.241.006.361,0Zm-7.808-4.137a7.239,7.239,0,0,1,7.217-7.261h.125a6.957,6.957,0,0,1,3.862,1.151v-.932h3.7v14.274c0,3.781-2.493,5.89-7.068,5.89a13.264,13.264,0,0,1-5.945-1.288l1.315-2.931a10.166,10.166,0,0,0,4.548,1.151c2.247,0,3.4-.986,3.4-2.849v-1.178a6.461,6.461,0,0,1-3.92,1.287,7.226,7.226,0,0,1-7.233-7.221v-.094Z"/>
    <path id="b4c93d44-2a35-4b7c-94a2-1cb578a46568" data-name="Path 614" d="M398.381,137.21h3.753v1.566a4.542,4.542,0,0,1,3.809-1.89,3.223,3.223,0,0,1,1.562.329V140.5a4.786,4.786,0,0,0-1.918-.383,3.778,3.778,0,0,0-3.452,2.137v9.232h-3.753V137.21Z"/>
    <path id="bd12944b-c9e5-4c9c-895b-c7cab012bb6d" data-name="Path 615" d="M414.627,149.045a5.4,5.4,0,0,0,3.15-.9v-2.137a8.285,8.285,0,0,0-3.013-.521c-1.726,0-2.74.685-2.74,1.781s1.014,1.781,2.6,1.781Zm-6.192-1.7c0-2.712,2.192-4.329,5.863-4.329a11.572,11.572,0,0,1,3.479.548v-1.013c0-1.644-1.013-2.493-3.013-2.493a11.055,11.055,0,0,0-4.356,1.178l-1.37-2.767a14.889,14.889,0,0,1,6.356-1.534c3.863,0,6.082,1.918,6.082,5.287v9.26h-3.7V150.5a6.776,6.776,0,0,1-4.137,1.233c-3.068,0-5.2-1.781-5.2-4.383Z"/>
    <path id="e2382b73-462e-484c-b501-eea41e3e1057" data-name="Path 616" d="M424.325,137.21h3.753v1.068a5.546,5.546,0,0,1,3.726-1.343,5.122,5.122,0,0,1,4.3,2.137,5.876,5.876,0,0,1,4.713-2.137,5.325,5.325,0,0,1,5.461,5.185q.006.243-.009.486v8.876h-3.754v-8.328c0-1.809-1.041-2.986-2.685-2.986a3.211,3.211,0,0,0-2.74,1.425,6.147,6.147,0,0,1,.082,1.014v8.876h-3.754v-8.328c0-1.809-1.041-2.986-2.685-2.986a3.184,3.184,0,0,0-2.657,1.288v10.027h-3.753V137.211Z"/>
    <path id="b3d2a5eb-09b7-460a-a59a-c889a66d69ac" data-name="Path 617" d="M225.816,169.975l1.182,1.2a6.6,6.6,0,0,1-4.794,2.072,6.182,6.182,0,1,1-.154-12.363h.154a6.5,6.5,0,0,1,4.829,2.072l-1.2,1.233a4.764,4.764,0,0,0-3.63-1.644,4.521,4.521,0,0,0,.051,9.041,4.649,4.649,0,0,0,3.562-1.61Z"/>
    <path id="eae875f4-203e-477c-aec6-e3a91a0844ff" data-name="Path 618" d="M235.2,168.691a2.856,2.856,0,1,0-2.842,3.031,2.91,2.91,0,0,0,2.844-2.973Zm-2.842-4.52a4.529,4.529,0,1,1-4.537,4.521h0a4.473,4.473,0,0,1,4.425-4.52C232.279,164.17,232.317,164.17,232.354,164.171Z"/>
    <path id="efeb53de-951d-4e93-a7ef-5861d4b5f954" data-name="Path 619" d="M238.5,164.342h1.713v.822a3.343,3.343,0,0,1,2.448-.993,3.037,3.037,0,0,1,2.689,1.455,3.489,3.489,0,0,1,2.945-1.455,3.193,3.193,0,0,1,3.277,3.107q0,.15-.006.3v5.479h-1.715v-5.188a1.959,1.959,0,0,0-1.69-2.194,2.006,2.006,0,0,0-.31-.015,2.325,2.325,0,0,0-2.038,1.165,3.658,3.658,0,0,1,.069.753v5.479h-1.7v-5.188a1.959,1.959,0,0,0-1.692-2.194,1.98,1.98,0,0,0-.308-.015,2.283,2.283,0,0,0-1.969,1.062v6.336H238.5v-8.716Z"/>
    <path id="e3899fd6-95c3-4593-ba10-ae6f34cb616e" data-name="Path 620" d="M255.246,166.74v3.938a3.234,3.234,0,0,0,2.431,1.027,3.006,3.006,0,0,0,0-6.01A3.126,3.126,0,0,0,255.246,166.74Zm-1.712-2.4h1.7v.839a3.975,3.975,0,0,1,2.671-.976,4.5,4.5,0,1,1-2.654,8.133V176.6h-1.712V164.34Z"/>
    <path id="b814d2f3-88a9-4008-ae25-cfd54379c13d" data-name="Path 621" d="M267.163,171.945a3.354,3.354,0,0,0,2.312-.822v-1.507a4.516,4.516,0,0,0-2.243-.531c-1.25,0-2.021.565-2.021,1.438,0,.839.788,1.421,1.952,1.421Zm-3.6-1.387c0-1.644,1.335-2.654,3.528-2.654a6.14,6.14,0,0,1,2.38.48v-.925c0-1.233-.736-1.849-2.123-1.849a6.189,6.189,0,0,0-2.706.736l-.634-1.284a8.146,8.146,0,0,1,3.579-.89c2.261,0,3.561,1.113,3.561,3.116v5.771h-1.677v-.753a4.143,4.143,0,0,1-2.706.907c-1.9,0-3.2-1.079-3.2-2.654Z"/>
    <path id="ada7be2f-0868-430e-81fa-b27f23c4ab09" data-name="Path 622" d="M273.223,170.8a4.568,4.568,0,0,0,2.843,1.1c1.233,0,2.089-.531,2.089-1.3,0-.617-.445-.976-1.4-1.113l-1.575-.223c-1.729-.257-2.6-1.062-2.6-2.414,0-1.575,1.37-2.637,3.408-2.637a5.976,5.976,0,0,1,3.51,1.113l-.873,1.13a4.85,4.85,0,0,0-2.757-.908c-1.044,0-1.746.479-1.746,1.182,0,.634.411.942,1.438,1.1l1.575.222c1.729.257,2.637,1.079,2.637,2.431,0,1.559-1.575,2.74-3.647,2.74a5.743,5.743,0,0,1-3.818-1.284l.924-1.13Z"/>
    <path id="e36f4975-79d3-4ff0-887f-c7eca0f79a45" data-name="Path 623" d="M281.289,170.8a4.568,4.568,0,0,0,2.843,1.1c1.232,0,2.088-.531,2.088-1.3,0-.617-.445-.976-1.4-1.113l-1.575-.223c-1.729-.257-2.6-1.062-2.6-2.414,0-1.575,1.369-2.637,3.407-2.637a5.976,5.976,0,0,1,3.51,1.113l-.874,1.13a4.85,4.85,0,0,0-2.757-.908c-1.044,0-1.746.479-1.746,1.182,0,.634.411.942,1.439,1.1l1.575.222c1.73.257,2.637,1.079,2.637,2.431,0,1.559-1.576,2.74-3.647,2.74a5.748,5.748,0,0,1-3.82-1.284l.926-1.13Z"/>
    <path id="b0f3e15a-2de2-4b2d-bc29-26be2bcf5f9e" data-name="Path 624" class="b0816035-2f13-40c3-85ed-6ec332d01b21" d="M163.36,128.049a17.077,17.077,0,0,1,.591,3.47c0,4.8-5.389,7.456-12.476,7.456-16.019,0-30.045-9.376-30.045-15.576a6.319,6.319,0,0,1,.517-2.51c-5.757.3-13.214,1.329-13.214,7.9,0,10.778,25.542,24.066,45.769,24.066,15.5,0,19.415-7.013,19.415-12.55,0-4.355-3.765-9.3-10.556-12.254Zm-11.147,3.912c4.282,0,10.482-.886,10.482-5.979a4.8,4.8,0,0,0-.106-1.171l-2.551-11.083c-.591-2.436-1.108-3.543-5.389-5.684-3.322-1.7-10.556-4.5-12.7-4.5-1.993,0-2.584,2.584-4.946,2.584-2.289,0-3.987-1.919-6.127-1.919-2.067,0-3.4,1.4-4.429,4.282,0,0-2.879,8.12-3.248,9.3a2.126,2.126,0,0,0-.075.664c0,3.156,12.428,13.509,29.087,13.509Z"/>
    <path id="aeed35f7-c1df-4222-be1a-bb62117f7be0" data-name="Path 625" d="M163.36,128.049a17.077,17.077,0,0,1,.591,3.47c0,4.8-5.389,7.456-12.476,7.456-16.019,0-30.046-9.376-30.046-15.576a6.319,6.319,0,0,1,.517-2.51l1.255-3.1a2.126,2.126,0,0,0-.075.664c0,3.156,12.428,13.509,29.087,13.509,4.282,0,10.482-.886,10.482-5.979a4.806,4.806,0,0,0-.106-1.172l.771,3.238Z"/>
    <path id="f64368f1-3fa6-44c8-94c6-2d38cb4b2180" data-name="Path 626" d="M195.536,175.625a.739.739,0,0,1-.771-.7V101.762a.774.774,0,0,1,1.541,0v73.161a.739.739,0,0,1-.771.7Z"/>
  </g>
</svg>
