<svg id="ea9452ed-62cb-4988-8c8b-c511725e844b" data-name="Layer 1" xmlns="http://www.w3.org/2000/svg" width="262" height="180" viewBox="0 0 262 180"><defs><style>.f35d7425-fa88-48c2-a568-8d97d4716b3c{fill:#ec0000;}</style></defs><path d="M97,76.43H93.59v3.92H97a2.32,2.32,0,0,0,1.69-.57,1.93,1.93,0,0,0,0-2.78A2.32,2.32,0,0,0,97,76.43ZM91.83,86.62V74.89h5.33a4.65,4.65,0,0,1,1.63.26,3.87,3.87,0,0,1,1.24.73,3.27,3.27,0,0,1,.77,1.1,3.5,3.5,0,0,1,.26,1.38,3.15,3.15,0,0,1-.65,2,3.54,3.54,0,0,1-1.76,1.22l2.62,5.05h-2l-2.43-4.81h-3.3v4.81Z"/><path d="M106,79.36a2.4,2.4,0,0,0-1.68.64,2.79,2.79,0,0,0-.88,1.64h5.06a2.75,2.75,0,0,0-.87-1.62,2.31,2.31,0,0,0-1.63-.66Zm-4.24,3a4.42,4.42,0,0,1,.33-1.71,4.16,4.16,0,0,1,.9-1.4,4.3,4.3,0,0,1,1.36-.94A4.11,4.11,0,0,1,106,78a3.92,3.92,0,0,1,1.64.35,4,4,0,0,1,1.31.94,4.34,4.34,0,0,1,.86,1.41,4.91,4.91,0,0,1,.32,1.76v.49h-6.74a2.8,2.8,0,0,0,1,1.75,2.85,2.85,0,0,0,1.91.7,3.62,3.62,0,0,0,1.19-.2,2.88,2.88,0,0,0,1-.56l1.08,1.06a5.1,5.1,0,0,1-3.3,1.12,4.54,4.54,0,0,1-1.77-.34,4.6,4.6,0,0,1-1.42-.93,4.28,4.28,0,0,1-1-1.4,4.44,4.44,0,0,1-.34-1.75Z"/><path d="M113.05,82.33a2.86,2.86,0,0,0,.85,2.11,2.78,2.78,0,0,0,2,.86,3.24,3.24,0,0,0,1.34-.28,2.89,2.89,0,0,0,1-.75V80.4a3,3,0,0,0-1-.73,3.31,3.31,0,0,0-1.34-.28,2.79,2.79,0,0,0-2.07.85,2.89,2.89,0,0,0-.83,2.09Zm5.28,4.29v-.8a4,4,0,0,1-1.2.69,4.23,4.23,0,0,1-4.47-1,4.31,4.31,0,0,1-.92-1.41,4.49,4.49,0,0,1-.33-1.71,4.42,4.42,0,0,1,.33-1.71,4.37,4.37,0,0,1,.92-1.4A4.13,4.13,0,0,1,114,78.3a4.3,4.3,0,0,1,1.72-.35,4.53,4.53,0,0,1,1.38.22,4.35,4.35,0,0,1,1.19.62v-3.9l1.67-.37v12.1Z"/><polygon points="125.66 86.62 125.66 74.89 127.42 74.89 127.42 79.92 133.66 79.92 133.66 74.89 135.42 74.89 135.42 86.62 133.66 86.62 133.66 81.51 127.42 81.51 127.42 86.62 125.66 86.62 125.66 86.62"/><path d="M138.62,84.14a1.21,1.21,0,0,0,.53,1,2.37,2.37,0,0,0,1.38.38,3.79,3.79,0,0,0,1.24-.2,3.09,3.09,0,0,0,1-.6v-1.5a4.28,4.28,0,0,0-1-.37,4.93,4.93,0,0,0-1.19-.13,2.51,2.51,0,0,0-1.43.37,1.18,1.18,0,0,0-.55,1Zm1.52,2.63a3.39,3.39,0,0,1-2.26-.73,2.32,2.32,0,0,1-.87-1.87,2.18,2.18,0,0,1,1-1.93,4.33,4.33,0,0,1,2.47-.67,6.16,6.16,0,0,1,1.22.13,6.25,6.25,0,0,1,1.11.34v-.9a1.69,1.69,0,0,0-.53-1.36,2.37,2.37,0,0,0-1.55-.45,4.68,4.68,0,0,0-1.26.18,9.08,9.08,0,0,0-1.38.54l-.63-1.26a10.88,10.88,0,0,1,1.77-.64,6.81,6.81,0,0,1,1.74-.23,3.79,3.79,0,0,1,2.56.79,2.79,2.79,0,0,1,.93,2.26v5.65h-1.65v-.74a3.7,3.7,0,0,1-1.21.67,4.44,4.44,0,0,1-1.44.22Z"/><path d="M147.15,84.51v-5h-1.81V78.09h1.81V75.91l1.66-.4v2.58h2.52V79.5h-2.52v4.62a1.17,1.17,0,0,0,.3.92,1.38,1.38,0,0,0,1,.27,4.06,4.06,0,0,0,.64,0,3.21,3.21,0,0,0,.58-.16v1.41a4,4,0,0,1-.79.18,4.64,4.64,0,0,1-.8.07,2.72,2.72,0,0,1-1.89-.58,2.1,2.1,0,0,1-.66-1.68Z"/><path d="M100.71,100.65l1.6,1.58a6.41,6.41,0,0,1-4.82,2.16,6,6,0,1,1,0-12.09,6.38,6.38,0,0,1,4.88,2.2l-1.64,1.63a4.1,4.1,0,0,0-3.24-1.6,3.81,3.81,0,0,0,.07,7.62,4,4,0,0,0,3.15-1.5Z"/><path d="M105.14,99h4.27a2.22,2.22,0,0,0-2.13-1.76A2.19,2.19,0,0,0,105.14,99Zm2.19-3.65a4.4,4.4,0,0,1,4.33,4.69v.61h-6.5a2.5,2.5,0,0,0,2.48,1.82,2.72,2.72,0,0,0,1.92-.7l1.51,1.37a5.18,5.18,0,0,1-3.53,1.26,4.55,4.55,0,0,1-4.7-4.52,4.45,4.45,0,0,1,4.49-4.53Z"/><path d="M113,95.49h2.3v1a2.85,2.85,0,0,1,2.33-1.15,2,2,0,0,1,1,.2v2a2.79,2.79,0,0,0-1.18-.23,2.32,2.32,0,0,0-2.11,1.29v5.66H113V95.49Z"/><path d="M121.25,97.42h-1.79V95.49h1.79V93.26l2.3-.52v2.75H126v1.93h-2.48v3.87c0,.82.32,1.12,1.2,1.12a3.69,3.69,0,0,0,1.23-.2v1.88a7.46,7.46,0,0,1-1.78.27c-1.91,0-3-.87-3-2.6V97.42Z"/><path d="M129.43,104.22h-2.3V95.49h2.3v8.73ZM127,93.14a1.31,1.31,0,1,1,1.3,1.31,1.32,1.32,0,0,1-1.3-1.31Z"/><path d="M132.55,95.49v-.84c0-1.91,1.12-3,3.32-3a5.9,5.9,0,0,1,1.36.15V93.7a4.09,4.09,0,0,0-1.08-.14c-.87,0-1.3.37-1.3,1.14v.79h2.38v1.93h-2.38v6.8h-2.3v-6.8h-2V95.49Z"/><path d="M140.7,104.22h-2.3V95.49h2.3v8.73Zm-2.47-11.08a1.31,1.31,0,1,1,1.31,1.31,1.33,1.33,0,0,1-1.31-1.31Z"/><path d="M148.83,101.41l1.37,1.42a4.8,4.8,0,0,1-3.55,1.56,4.54,4.54,0,1,1,0-9.07,4.92,4.92,0,0,1,3.62,1.56l-1.41,1.49a2.82,2.82,0,0,0-2.16-1.05,2.54,2.54,0,0,0,.05,5.06,2.78,2.78,0,0,0,2.08-1Z"/><path d="M154.76,102.73a3.34,3.34,0,0,0,1.93-.55v-1.31a5.21,5.21,0,0,0-1.84-.32c-1,0-1.68.39-1.68,1.09s.62,1.09,1.59,1.09Zm-3.79-1c0-1.71,1.41-2.65,3.59-2.65a6.65,6.65,0,0,1,2.13.34v-.62c0-1-.62-1.53-1.84-1.53a6.82,6.82,0,0,0-2.67.72l-.84-1.69a9.2,9.2,0,0,1,3.89-.94c2.33,0,3.72,1.14,3.72,3.24v5.66h-2.26v-.62a4.06,4.06,0,0,1-2.53.77c-1.93,0-3.19-1.13-3.19-2.68Z"/><path d="M161.59,97.42h-1.8V95.49h1.8V93.26l2.29-.52v2.75h2.48v1.93h-2.48v3.87c0,.82.32,1.12,1.21,1.12a3.63,3.63,0,0,0,1.22-.2v1.88a7.38,7.38,0,0,1-1.77.27c-1.91,0-2.95-.87-2.95-2.6V97.42Z"/><path d="M169.77,104.22h-2.3V95.49h2.3v8.73ZM167.3,93.14a1.31,1.31,0,1,1,1.31,1.31,1.33,1.33,0,0,1-1.31-1.31Z"/><path d="M175.8,97.32a2.54,2.54,0,1,0,2.42,2.55,2.45,2.45,0,0,0-2.42-2.55Zm0-2a4.54,4.54,0,1,1-4.66,4.55,4.55,4.55,0,0,1,4.66-4.55Z"/><path d="M181.84,95.49h2.3v.7a3.63,3.63,0,0,1,2.44-.87A3.32,3.32,0,0,1,190,98.79v5.43h-2.28V99.13a1.72,1.72,0,0,0-1.83-1.83,2.06,2.06,0,0,0-1.79.87v6h-2.3V95.49Z"/><polygon points="194.58 92.49 204.91 92.49 204.91 94.63 200.97 94.63 200.97 104.22 198.54 104.22 198.54 94.63 194.58 94.63 194.58 92.49 194.58 92.49"/><path d="M205.88,99h4.27a2.17,2.17,0,0,0-4.27,0Zm2.2-3.65A4.4,4.4,0,0,1,212.4,100v.61h-6.5a2.5,2.5,0,0,0,2.48,1.82,2.77,2.77,0,0,0,1.93-.7l1.5,1.37a5.18,5.18,0,0,1-3.53,1.26,4.55,4.55,0,0,1-4.7-4.52,4.46,4.46,0,0,1,4.5-4.53Z"/><path d="M217.15,102.73a3.31,3.31,0,0,0,1.92-.55v-1.31a5.17,5.17,0,0,0-1.84-.32c-1,0-1.68.39-1.68,1.09s.62,1.09,1.6,1.09Zm-3.79-1c0-1.71,1.41-2.65,3.58-2.65a6.65,6.65,0,0,1,2.13.34v-.62c0-1-.62-1.53-1.84-1.53a6.86,6.86,0,0,0-2.67.72l-.83-1.69a9.13,9.13,0,0,1,3.89-.94c2.33,0,3.72,1.14,3.72,3.24v5.66h-2.27v-.62a4,4,0,0,1-2.53.77c-1.93,0-3.18-1.13-3.18-2.68Z"/><path d="M223.08,95.49h2.3v.65a3.43,3.43,0,0,1,2.28-.82,3.15,3.15,0,0,1,2.63,1.29,3.67,3.67,0,0,1,2.88-1.29,3.27,3.27,0,0,1,3.36,3.47v5.43h-2.3V99.13a1.65,1.65,0,0,0-1.66-1.83,2,2,0,0,0-1.68.87,3.05,3.05,0,0,1,.05.62v5.43h-2.29V99.13A1.63,1.63,0,0,0,227,97.3a2,2,0,0,0-1.62.8v6.12h-2.3V95.49Z"/><path class="f35d7425-fa88-48c2-a568-8d97d4716b3c" d="M58.9,89.88A10.25,10.25,0,0,1,59.27,92c0,2.93-3.3,4.56-7.64,4.56-9.8,0-18.39-5.74-18.39-9.53a3.9,3.9,0,0,1,.32-1.54c-3.52.18-8.09.81-8.09,4.84,0,6.59,15.63,14.72,28,14.72,9.49,0,11.88-4.29,11.88-7.68,0-2.66-2.3-5.69-6.46-7.5Zm-6.82,2.4c2.62,0,6.42-.54,6.42-3.66a2.93,2.93,0,0,0-.07-.72l-1.56-6.78c-.36-1.49-.68-2.17-3.3-3.48-2-1-6.46-2.75-7.77-2.75s-1.58,1.58-3,1.58S40.34,75.29,39,75.29s-2.08.86-2.71,2.62c0,0-1.77,5-2,5.69a1.21,1.21,0,0,0,0,.41c0,1.93,7.61,8.27,17.8,8.27Z"/><path d="M58.9,89.88A10.25,10.25,0,0,1,59.27,92c0,2.93-3.3,4.56-7.64,4.56-9.8,0-18.39-5.74-18.39-9.53a3.9,3.9,0,0,1,.32-1.54l.77-1.9a1.21,1.21,0,0,0,0,.41c0,1.93,7.61,8.27,17.8,8.27,2.62,0,6.42-.54,6.42-3.66a2.93,2.93,0,0,0-.07-.72l.47,2Z"/><path d="M78.59,106.63a.47.47,0,0,1-.47-.47V73.84a.47.47,0,0,1,.94,0v32.32a.47.47,0,0,1-.47.47Z"/></svg>