<svg id="a604b267-e835-40cf-a936-bb3799c32f8e" data-name="Layer 1" xmlns="http://www.w3.org/2000/svg" width="262" height="180" viewBox="0 0 262 180"><defs><style>.faa5775d-4f46-491a-8bf2-31b6cca851d1{fill:#e00;}</style></defs><path d="M112.28,76.42H109v3.77h3.29a2.24,2.24,0,0,0,1.62-.55,1.79,1.79,0,0,0,.57-1.34A1.77,1.77,0,0,0,113.9,77a2.19,2.19,0,0,0-1.62-.55Zm-5,9.79V74.94h5.12a4.31,4.31,0,0,1,1.57.26,3.5,3.5,0,0,1,1.19.7,3,3,0,0,1,.74,1,3.41,3.41,0,0,1,.25,1.32,3.13,3.13,0,0,1-.62,1.92,3.48,3.48,0,0,1-1.69,1.17l2.51,4.85H114.5l-2.33-4.62H109v4.62Z"/><path d="M120.92,79.24a2.31,2.31,0,0,0-1.61.61,2.73,2.73,0,0,0-.85,1.58h4.86a2.72,2.72,0,0,0-.84-1.57,2.25,2.25,0,0,0-1.56-.62Zm-4.07,2.86a4.27,4.27,0,0,1,.31-1.64,4.08,4.08,0,0,1,.87-1.34,4,4,0,0,1,1.31-.91,3.93,3.93,0,0,1,1.61-.33,3.74,3.74,0,0,1,1.57.33,3.7,3.7,0,0,1,1.26.91,4.32,4.32,0,0,1,.83,1.36,4.66,4.66,0,0,1,.3,1.69v.46h-6.47A2.79,2.79,0,0,0,121.21,85a3.43,3.43,0,0,0,1.15-.19,3,3,0,0,0,.93-.53l1,1a4.89,4.89,0,0,1-1.49.82,5.28,5.28,0,0,1-1.68.26,4.32,4.32,0,0,1-1.69-.33,4.44,4.44,0,0,1-1.37-.89,4.07,4.07,0,0,1-.91-1.35,4.27,4.27,0,0,1-.33-1.68Z"/><path d="M127.68,82.09a2.72,2.72,0,0,0,.82,2,2.66,2.66,0,0,0,2,.82,3,3,0,0,0,1.29-.26,3.08,3.08,0,0,0,1-.72V80.23a3,3,0,0,0-1-.7,3.27,3.27,0,0,0-1.29-.26,2.67,2.67,0,0,0-2,.81,2.76,2.76,0,0,0-.8,2Zm5.07,4.12v-.78a3.63,3.63,0,0,1-1.16.67,3.79,3.79,0,0,1-1.35.23,4,4,0,0,1-1.62-.33,4,4,0,0,1-1.32-.9,4.13,4.13,0,0,1-.87-1.35,4.18,4.18,0,0,1-.32-1.65,4.29,4.29,0,0,1,1.19-3,4,4,0,0,1,1.32-.91,4.12,4.12,0,0,1,1.65-.33,4.09,4.09,0,0,1,2.47.81V74.94l1.61-.36V86.21Z"/><polygon points="139.79 86.21 139.79 74.94 141.48 74.94 141.48 79.77 147.47 79.77 147.47 74.94 149.16 74.94 149.16 86.21 147.47 86.21 147.47 81.3 141.48 81.3 141.48 86.21 139.79 86.21 139.79 86.21"/><path d="M152.23,83.82a1.14,1.14,0,0,0,.52,1,2.17,2.17,0,0,0,1.32.37,3.58,3.58,0,0,0,1.19-.19,3.14,3.14,0,0,0,1-.58V83a3.88,3.88,0,0,0-1-.36,5,5,0,0,0-1.14-.12,2.41,2.41,0,0,0-1.37.36,1.12,1.12,0,0,0-.53,1Zm1.47,2.53a3.26,3.26,0,0,1-2.18-.7,2.22,2.22,0,0,1-.83-1.79,2.09,2.09,0,0,1,.94-1.86,4.09,4.09,0,0,1,2.37-.64,5.66,5.66,0,0,1,1.17.12,5.81,5.81,0,0,1,1.07.33v-.87a1.58,1.58,0,0,0-.52-1.3,2.22,2.22,0,0,0-1.48-.44,4.33,4.33,0,0,0-1.21.18,8.07,8.07,0,0,0-1.33.52l-.6-1.21a10,10,0,0,1,1.69-.62,6.35,6.35,0,0,1,1.68-.22,3.64,3.64,0,0,1,2.46.76,2.7,2.7,0,0,1,.89,2.17v5.43h-1.58V85.5a3.62,3.62,0,0,1-1.17.64,4.32,4.32,0,0,1-1.37.21Z"/><path d="M160.42,84.18V79.36h-1.73V78h1.73V75.92l1.6-.39V78h2.41v1.35H162v4.45a1.13,1.13,0,0,0,.28.88,1.37,1.37,0,0,0,.92.26,3.79,3.79,0,0,0,.62,0,3.62,3.62,0,0,0,.56-.15v1.35a6.56,6.56,0,0,1-.76.18,5.4,5.4,0,0,1-.77.06,2.68,2.68,0,0,1-1.82-.55,2,2,0,0,1-.63-1.62Z"/><path d="M107.55,99.65a5.53,5.53,0,0,0,3.81,1.64c1.43,0,2.3-.56,2.3-1.42s-.45-1.14-1.85-1.38l-2.24-.39c-2-.34-2.94-1.41-2.94-3,0-2.09,1.67-3.41,4.44-3.41a7.76,7.76,0,0,1,4.65,1.58L114.47,95a5.7,5.7,0,0,0-3.56-1.35c-1.24,0-2.06.5-2.06,1.27s.42,1,1.61,1.23l2.12.35c2.31.39,3.37,1.47,3.37,3.17,0,2.19-1.84,3.61-4.75,3.61a7.46,7.46,0,0,1-5-2l1.34-1.67Z"/><path d="M120.76,101.68a3.15,3.15,0,0,0,1.85-.54V99.89a5,5,0,0,0-1.77-.31c-1,0-1.61.37-1.61,1s.6,1.05,1.53,1.05Zm-3.64-1c0-1.64,1.36-2.55,3.45-2.55a6.46,6.46,0,0,1,2,.33v-.6c0-1-.59-1.46-1.77-1.46a6.39,6.39,0,0,0-2.56.69l-.8-1.63a8.86,8.86,0,0,1,3.73-.9c2.24,0,3.58,1.09,3.58,3.11v5.44h-2.18v-.6a3.9,3.9,0,0,1-2.43.74c-1.85,0-3.06-1.09-3.06-2.57Z"/><path d="M127.46,94.72v-.8c0-1.84,1.08-2.92,3.18-2.92a5.41,5.41,0,0,1,1.31.15V93a4.15,4.15,0,0,0-1-.13c-.84,0-1.26.35-1.26,1.09v.76H132v1.85h-2.29v6.54h-2.2V96.57h-1.87V94.72Z"/><path d="M134.68,98.09h4.11a2.09,2.09,0,0,0-4.11,0Zm2.11-3.51a4.23,4.23,0,0,1,4.16,4.5v.58H134.7a2.42,2.42,0,0,0,2.38,1.76,2.62,2.62,0,0,0,1.85-.68l1.45,1.32a5,5,0,0,1-3.39,1.21,4.37,4.37,0,0,1-4.51-4.35,4.27,4.27,0,0,1,4.31-4.34Z"/><path d="M143.12,96.57H141.4V94.72h1.72V92.58l2.21-.5v2.64h2.38v1.85h-2.38v3.72c0,.79.3,1.08,1.15,1.08a3.64,3.64,0,0,0,1.18-.19V103a7.31,7.31,0,0,1-1.71.26c-1.83,0-2.83-.84-2.83-2.5V96.57Z"/><path d="M151.36,103.19l-3.27-8.47h2.43l2.08,5.72L155,94.72h2.39l-3.85,9c-.82,1.9-1.76,2.8-3.72,2.8a5.4,5.4,0,0,1-1-.08v-1.9a3.61,3.61,0,0,0,.75.06,1.68,1.68,0,0,0,1.68-1.14l.11-.27Z"/><polygon points="163.51 103.11 161.02 91.84 163.42 91.84 164.95 99.49 167.15 91.84 169.34 91.84 171.53 99.45 173.06 91.84 175.38 91.84 172.88 103.11 170.44 103.11 168.2 95.24 165.96 103.11 163.51 103.11 163.51 103.11"/><path d="M179.11,101.68a3.15,3.15,0,0,0,1.85-.54V99.89a5,5,0,0,0-1.77-.31c-1,0-1.61.37-1.61,1s.6,1.05,1.53,1.05Zm-3.64-1c0-1.64,1.36-2.55,3.45-2.55a6.41,6.41,0,0,1,2,.33v-.6c0-1-.59-1.46-1.77-1.46a6.43,6.43,0,0,0-2.56.69l-.8-1.63a8.86,8.86,0,0,1,3.73-.9c2.24,0,3.58,1.09,3.58,3.11v5.44H181v-.6a3.9,3.9,0,0,1-2.43.74c-1.85,0-3.06-1.09-3.06-2.57Z"/><path d="M184.81,94.72H187v.92a2.72,2.72,0,0,1,2.23-1.11,1.83,1.83,0,0,1,.92.19v1.93a2.74,2.74,0,0,0-1.13-.22,2.21,2.21,0,0,0-2,1.24v5.44h-2.21V94.72Z"/><path d="M195.22,101.34a2.67,2.67,0,0,0,2-.81V97.26a2.84,2.84,0,0,0-2-.78,2.43,2.43,0,1,0,0,4.86Zm2,1.08a3.78,3.78,0,0,1-2.38.8,4.31,4.31,0,1,1,2.35-8V91.84l2.21-.48v11.75h-2.18v-.69Z"/><path d="M203,98.09h4.11A2.14,2.14,0,0,0,205,96.4,2.11,2.11,0,0,0,203,98.09Zm2.11-3.51a4.23,4.23,0,0,1,4.15,4.5v.58H203a2.41,2.41,0,0,0,2.38,1.76,2.62,2.62,0,0,0,1.85-.68l1.45,1.32a5,5,0,0,1-3.4,1.21,4.36,4.36,0,0,1-4.5-4.35,4.27,4.27,0,0,1,4.31-4.34Z"/><path d="M210.53,94.72h2.21v.68a3.49,3.49,0,0,1,2.35-.84,3.18,3.18,0,0,1,3.31,3.33v5.22h-2.18v-4.9a1.65,1.65,0,0,0-1.76-1.75,2,2,0,0,0-1.72.84v5.81h-2.21V94.72Z"/><path class="faa5775d-4f46-491a-8bf2-31b6cca851d1" d="M75.69,89.34a10,10,0,0,1,.35,2c0,2.82-3.17,4.38-7.33,4.38-9.41,0-17.65-5.51-17.65-9.15a3.78,3.78,0,0,1,.3-1.48c-3.38.17-7.76.78-7.76,4.64,0,6.34,15,14.14,26.89,14.14,9.11,0,11.41-4.12,11.41-7.37,0-2.56-2.22-5.47-6.21-7.2Zm-6.55,2.3c2.52,0,6.16-.52,6.16-3.52a2.57,2.57,0,0,0-.06-.68l-1.5-6.52c-.35-1.43-.65-2.08-3.17-3.34-1.95-1-6.2-2.64-7.46-2.64s-1.51,1.52-2.9,1.52-2.34-1.13-3.6-1.13-2,.82-2.6,2.51c0,0-1.7,4.78-1.91,5.47a1.1,1.1,0,0,0-.05.39c0,1.85,7.31,7.94,17.09,7.94Z"/><path d="M75.69,89.34a10,10,0,0,1,.35,2c0,2.82-3.17,4.38-7.33,4.38-9.41,0-17.65-5.51-17.65-9.15a3.78,3.78,0,0,1,.3-1.48l.74-1.82a1.1,1.1,0,0,0-.05.39c0,1.85,7.31,7.94,17.09,7.94,2.52,0,6.16-.52,6.16-3.52a2.57,2.57,0,0,0-.06-.68l.45,1.9Z"/><path d="M94.6,105.42a.46.46,0,0,1-.46-.45v-31a.46.46,0,0,1,.46-.45.45.45,0,0,1,.45.45v31a.45.45,0,0,1-.45.45Z"/></svg>