<svg id="b2e74c4f-40d9-49ad-9303-54b0d0df1658" data-name="Layer 1" xmlns="http://www.w3.org/2000/svg" width="555.02" height="148.89" viewBox="0 0 555.02 148.89"><defs><style>.fd881e8b-43d1-4a60-a0ae-ae8a6ed6d8fa{fill:#a7c0e4;}.aef57504-3964-422c-a596-6197016e399d,.fd881e8b-43d1-4a60-a0ae-ae8a6ed6d8fa{opacity:0.5;isolation:isolate;}.a8fdd708-b278-488e-a539-ac15d8c74892{fill:#fff;}.ba92e5a8-1f38-4b16-b72f-9bcd782aa25d{fill:#e00;}.aef57504-3964-422c-a596-6197016e399d{fill:#6c97d3;}.a3081d34-66e4-44c1-b210-aa9d0e6b184f,.a687e139-3005-4174-94af-487c30346288,.aa0c0acd-0c4e-4a9a-946e-4715be442e3e,.aa6c2f37-1f72-4e15-ab07-dd459092515f,.aa9bae64-d00c-4c2c-9013-32b0ba65a86f,.bdd535fc-0775-434c-8d2d-78cade76c387,.f7f9bb0f-2618-43bf-8d6f-9155622a3f2f,.fed139db-b9e0-494e-beac-72ef313fcbbc{fill:none;stroke:#6c97d3;stroke-linecap:round;stroke-linejoin:round;stroke-width:0.5px;}.aa6c2f37-1f72-4e15-ab07-dd459092515f{stroke-dasharray:1.98 1.98;}.aa0c0acd-0c4e-4a9a-946e-4715be442e3e{stroke-dasharray:2 2;}.a687e139-3005-4174-94af-487c30346288{stroke-dasharray:2.01 2.01;}.f7f9bb0f-2618-43bf-8d6f-9155622a3f2f{stroke-dasharray:2.03 2.03;}.bdd535fc-0775-434c-8d2d-78cade76c387{stroke-dasharray:2.11 2.11;}.fed139db-b9e0-494e-beac-72ef313fcbbc{stroke-dasharray:1.91 1.91;}.a3081d34-66e4-44c1-b210-aa9d0e6b184f{stroke-dasharray:2 2;}</style></defs><rect id="f71cfecd-d392-45c9-ad5c-5dea0af595e7" data-name="Rectangle 55" class="fd881e8b-43d1-4a60-a0ae-ae8a6ed6d8fa" width="555" height="148.89"/><rect id="b8086b6d-543c-4d46-82e9-8b82045cf3bd" data-name="Rectangle 56" class="a8fdd708-b278-488e-a539-ac15d8c74892" x="24" y="25.2" width="506.99" height="98.49"/><path d="M213.63,29.54h15.24c6.66,0,11.16,4,11.16,9.92a9.47,9.47,0,0,1-6.9,9.2l7.48,14.42h-5.56l-7-13.75h-9.44V63.08h-5Zm5,4.41V45.16h9.78c3.93,0,6.51-2.25,6.51-5.6S232.37,34,228.44,34Z"/><path d="M254.88,63.51a12.55,12.55,0,0,1-12.79-12.64,12.26,12.26,0,0,1,12.22-12.56c6.71,0,11.79,5.56,11.79,12.75v1.39H246.83a8.24,8.24,0,0,0,8.25,7,9.51,9.51,0,0,0,6.18-2.15l3.06,3A14.49,14.49,0,0,1,254.88,63.51Zm-8-14.66h14.47c-.72-3.73-3.59-6.51-7.14-6.51S247.6,45,246.88,48.85Z"/><path d="M289.43,60.78A11.51,11.51,0,0,1,282,63.47a12.31,12.31,0,0,1-12.31-12.6,12.41,12.41,0,0,1,19.74-10.16V29.54l4.79-1.05V63.08h-4.74Zm-6.81-1.48a8.81,8.81,0,0,0,6.76-2.92V45.31a8.92,8.92,0,0,0-6.76-2.88,8.44,8.44,0,0,0,0,16.87Z"/><path d="M310.41,29.54h5V43.92h17.83V29.54h5V63.08h-5V48.47H315.44V63.08h-5Z"/><path d="M342.85,56.09c0-4.6,3.74-7.43,9.87-7.43A17.25,17.25,0,0,1,359.38,50V47.42c0-3.45-2.06-5.18-5.94-5.18a17.31,17.31,0,0,0-7.57,2.06l-1.78-3.59a22.8,22.8,0,0,1,10-2.49c6.32,0,10,3.11,10,8.72V63.08h-4.69V61a11.55,11.55,0,0,1-7.57,2.54C346.49,63.51,342.85,60.5,342.85,56.09ZM352.91,60a9.4,9.4,0,0,0,6.47-2.3V53.45A12.73,12.73,0,0,0,353.1,52c-3.5,0-5.65,1.58-5.65,4S349.65,60,352.91,60Z"/><path d="M371.79,42.72h-5.18v-4h5.18V32.47l4.74-1.15V38.7h7.19v4h-7.19V55.94c0,2.5,1,3.41,3.6,3.41a9.38,9.38,0,0,0,3.49-.58v4a15.86,15.86,0,0,1-4.55.71c-4.74,0-7.28-2.25-7.28-6.46Z"/><path d="M227.57,113.87c-9,0-14.85-5.8-14.85-15v-19h6.95v19c0,5.23,3.11,8.58,8,8.58s7.86-3.35,7.86-8.58v-19h7v19C242.43,108,236.58,113.87,227.57,113.87Z"/><path d="M247.55,88.43h6.57v2a10.69,10.69,0,0,1,7-2.44A9.47,9.47,0,0,1,271,97.87v15.52h-6.56V98.83a4.87,4.87,0,0,0-5.18-5.23,6,6,0,0,0-5.12,2.49v17.3h-6.57Z"/><path d="M275.48,81.72a3.74,3.74,0,1,1,3.74,3.74A3.75,3.75,0,0,1,275.48,81.72Zm7,31.67H276v-25h6.57Z"/><path d="M285.07,88.43h7.14l6.85,16.62,6.8-16.62h7l-10.74,25H295.8Z"/><path d="M326.75,113.87c-7.57,0-13.42-5.65-13.42-12.94A12.74,12.74,0,0,1,326.17,88c7.1,0,12.37,5.75,12.37,13.41v1.73H320a7.19,7.19,0,0,0,7.09,5.22,7.88,7.88,0,0,0,5.51-2l4.31,3.93A15,15,0,0,1,326.75,113.87ZM319.9,98.44h12.22a6.45,6.45,0,0,0-6.09-5A6.27,6.27,0,0,0,319.9,98.44Z"/><path d="M342.56,88.43h6.56v2.73a8,8,0,0,1,6.66-3.31,5.64,5.64,0,0,1,2.74.58v5.75a8.43,8.43,0,0,0-3.36-.67,6.61,6.61,0,0,0-6,3.73v16.15h-6.56Z"/><path d="M363.5,106.06a14.5,14.5,0,0,0,8.1,2.83c2.92,0,4.83-1.06,4.83-2.64,0-1.29-.95-2-3.11-2.35l-4.79-.72C363.59,102.42,361,100,361,96c0-4.84,4-7.91,10.4-7.91a18.4,18.4,0,0,1,10.25,3.12l-3.16,4.22a14.75,14.75,0,0,0-7.72-2.4c-2.39,0-3.93,1-3.93,2.44s1,2,3.41,2.35l4.79.72c4.88.72,7.62,3.26,7.62,7.14,0,4.69-4.65,8.24-10.93,8.24-4.55,0-8.62-1.2-11.45-3.45Z"/><path d="M384.91,106.16c0-4.75,3.84-7.57,10.26-7.57a20.22,20.22,0,0,1,6.08,1V97.77c0-2.87-1.77-4.36-5.27-4.36-2.11,0-4.45.67-7.62,2.06L386,90.63A26,26,0,0,1,397.08,88c6.76,0,10.64,3.35,10.64,9.25v16.19h-6.47v-1.72a11.89,11.89,0,0,1-7.23,2.15C388.65,113.82,384.91,110.71,384.91,106.16Zm10.83,3a9.46,9.46,0,0,0,5.51-1.58v-3.74a14.34,14.34,0,0,0-5.27-.91c-3,0-4.79,1.2-4.79,3.11S393,109.13,395.74,109.13Z"/><path d="M419.27,113.39H412.7V79.85l6.57-1.44Z"/><path d="M440.59,113.39H434V79.85l6.57-1.44Z"/><path d="M457.88,88a13,13,0,1,1-13.32,13A13,13,0,0,1,457.88,88Zm6.9,13a6.91,6.91,0,1,0-6.9,7.24A7,7,0,0,0,464.78,100.93Z"/><path d="M474.27,100.74A12.66,12.66,0,0,1,487.11,88a12.1,12.1,0,0,1,6.75,2V88.43h6.47v25c0,6.61-4.36,10.3-12.36,10.3a23.33,23.33,0,0,1-10.4-2.25l2.3-5.13a17.82,17.82,0,0,0,8,2c3.93,0,5.94-1.73,5.94-5v-2.06a11.28,11.28,0,0,1-6.85,2.25A12.63,12.63,0,0,1,474.27,100.74ZM487.92,108a8.23,8.23,0,0,0,5.85-2.26V95.9a8.41,8.41,0,0,0-5.8-2.25,7.17,7.17,0,1,0-.05,14.33Z"/><path d="M517.68,88a13,13,0,1,1-13.32,13A13,13,0,0,1,517.68,88Zm6.9,13a6.91,6.91,0,1,0-6.9,7.24A7,7,0,0,0,524.58,100.93Z"/><g id="b891e6e2-a031-47a7-97cd-1127be9f8d01" data-name="Hat icon"><path id="fee174b7-6ab0-4670-b41b-162f34ac595f" data-name="Red hat" class="ba92e5a8-1f38-4b16-b72f-9bcd782aa25d" d="M100.05,79.25c7.49,0,18.33-1.55,18.33-10.46a8.33,8.33,0,0,0-.19-2.05l-4.46-19.38c-1-4.26-1.93-6.2-9.42-9.94-5.81-3-18.46-7.88-22.21-7.88-3.48,0-4.52,4.52-8.65,4.52s-7-3.35-10.71-3.35S56.8,33.16,55,38.19c0,0-5,14.21-5.68,16.27a3.69,3.69,0,0,0-.13,1.16C49.18,61.14,70.91,79.25,100.05,79.25Zm19.49-6.84c1,4.9,1,5.42,1,6.06,0,8.4-9.42,13-21.81,13-28,0-52.55-16.39-52.55-27.24a11.18,11.18,0,0,1,.9-4.39C37,60.4,24,62.21,24,73.7c0,18.85,44.67,42.09,80.05,42.09,27.11,0,34-12.27,34-22C138,86.22,131.42,77.57,119.54,72.41Z"/><path id="adf47c9d-a618-4939-85db-fe890e7d7d0a" data-name="Black band" d="M119.54,72.41c1,4.9,1,5.42,1,6.06,0,8.4-9.42,13-21.81,13-28,0-52.55-16.39-52.55-27.24a11.18,11.18,0,0,1,.9-4.39l2.2-5.42a3.69,3.69,0,0,0-.13,1.16c0,5.52,21.73,23.63,50.87,23.63,7.49,0,18.33-1.55,18.33-10.46a8.33,8.33,0,0,0-.19-2.05Z"/></g><path id="b813e261-4bd9-4b4a-94ae-a4535d2ae732" data-name="Dividing line" d="M175.81,120.28a1.35,1.35,0,0,1-1.35-1.35V26.55a1.35,1.35,0,1,1,2.69,0v92.38A1.35,1.35,0,0,1,175.81,120.28Z"/><path class="aef57504-3964-422c-a596-6197016e399d" d="M12.79,63.51A12.55,12.55,0,0,1,0,50.87,12.26,12.26,0,0,1,12.22,38.31C18.93,38.31,24,43.87,24,51.06v1.39H4.74a8.23,8.23,0,0,0,8.24,7,9.52,9.52,0,0,0,6.19-2.15l3.06,3A14.52,14.52,0,0,1,12.79,63.51Zm-8-14.66H19.26c-.72-3.73-3.59-6.51-7.14-6.51S5.51,45,4.79,48.85Z"/><path class="aef57504-3964-422c-a596-6197016e399d" d="M254.88,25.2a12.55,12.55,0,0,1-12.79-12.65A12.26,12.26,0,0,1,254.31,0C261,0,266.1,5.56,266.1,12.74v1.39H246.83a8.24,8.24,0,0,0,8.25,7A9.47,9.47,0,0,0,261.26,19l3.06,3A14.49,14.49,0,0,1,254.88,25.2Zm-8-14.66h14.47C260.63,6.8,257.76,4,254.21,4S247.6,6.66,246.88,10.54Z"/><path class="aef57504-3964-422c-a596-6197016e399d" d="M254.88,148.89a12.55,12.55,0,0,1-12.79-12.65,12.26,12.26,0,0,1,12.22-12.55c6.71,0,11.79,5.56,11.79,12.75v1.39H246.83a8.24,8.24,0,0,0,8.25,7,9.51,9.51,0,0,0,6.18-2.15l3.06,3A14.49,14.49,0,0,1,254.88,148.89Zm-8-14.66h14.47c-.72-3.73-3.59-6.51-7.14-6.51S247.6,130.35,246.88,134.23Z"/><g id="b7f5568f-bcc4-43dc-8837-972a9b194435" data-name="Line 58"><line class="aa9bae64-d00c-4c2c-9013-32b0ba65a86f" x1="242.09" y1="38.31" x2="241.09" y2="38.31"/><line class="aa6c2f37-1f72-4e15-ab07-dd459092515f" x1="239.11" y1="38.31" x2="1.99" y2="38.31"/><line class="aa9bae64-d00c-4c2c-9013-32b0ba65a86f" x1="1" y1="38.31" y2="38.31"/></g><g id="b132b1b9-f046-4757-a314-af70590a2590" data-name="Line 58"><line class="aa9bae64-d00c-4c2c-9013-32b0ba65a86f" x1="266.1" y1="38.31" x2="265.1" y2="38.31"/><line class="aa0c0acd-0c4e-4a9a-946e-4715be442e3e" x1="263.09" y1="38.31" x2="244.09" y2="38.31"/><line class="aa9bae64-d00c-4c2c-9013-32b0ba65a86f" x1="243.09" y1="38.31" x2="242.09" y2="38.31"/></g><g id="eebec6e0-cbf9-47da-96e0-b3724d3f8863" data-name="Line 58"><line class="aa9bae64-d00c-4c2c-9013-32b0ba65a86f" x1="555" y1="38.31" x2="554" y2="38.31"/><line class="a687e139-3005-4174-94af-487c30346288" x1="551.99" y1="38.31" x2="268.1" y2="38.31"/><line class="aa9bae64-d00c-4c2c-9013-32b0ba65a86f" x1="267.1" y1="38.31" x2="266.1" y2="38.31"/></g><g id="b1c215c9-d097-4cf0-b8ea-11ada4368608" data-name="Line 57"><line class="aa9bae64-d00c-4c2c-9013-32b0ba65a86f" x1="242.09" y1="63.51" x2="242.09" y2="64.51"/><line class="f7f9bb0f-2618-43bf-8d6f-9155622a3f2f" x1="242.09" y1="66.55" x2="242.09" y2="146.88"/><line class="aa9bae64-d00c-4c2c-9013-32b0ba65a86f" x1="242.09" y1="147.89" x2="242.09" y2="148.89"/></g><g id="b40baba7-2b53-4325-b0a0-60a932ce7302" data-name="Line 57"><line class="aa9bae64-d00c-4c2c-9013-32b0ba65a86f" x1="242.09" y1="38.31" x2="242.09" y2="39.31"/><line class="bdd535fc-0775-434c-8d2d-78cade76c387" x1="242.09" y1="41.42" x2="242.09" y2="61.46"/><line class="aa9bae64-d00c-4c2c-9013-32b0ba65a86f" x1="242.09" y1="62.51" x2="242.09" y2="63.51"/></g><g id="bf753316-72a6-4984-b919-9ca631fe6d53" data-name="Line 57"><line class="aa9bae64-d00c-4c2c-9013-32b0ba65a86f" x1="242.09" x2="242.09" y2="1"/><line class="fed139db-b9e0-494e-beac-72ef313fcbbc" x1="242.09" y1="2.91" x2="242.09" y2="36.36"/><line class="aa9bae64-d00c-4c2c-9013-32b0ba65a86f" x1="242.09" y1="37.31" x2="242.09" y2="38.31"/></g><g id="ade589cd-c38f-4e05-9ba5-95ef3e8e875a" data-name="Line 57"><line class="aa9bae64-d00c-4c2c-9013-32b0ba65a86f" x1="266.1" y1="63.51" x2="266.1" y2="64.51"/><line class="f7f9bb0f-2618-43bf-8d6f-9155622a3f2f" x1="266.1" y1="66.55" x2="266.1" y2="146.88"/><line class="aa9bae64-d00c-4c2c-9013-32b0ba65a86f" x1="266.1" y1="147.89" x2="266.1" y2="148.89"/></g><g id="a159b9ad-3ebc-41f6-a291-7108cd464eb0" data-name="Line 57"><line class="aa9bae64-d00c-4c2c-9013-32b0ba65a86f" x1="266.1" y1="38.31" x2="266.1" y2="39.31"/><line class="bdd535fc-0775-434c-8d2d-78cade76c387" x1="266.1" y1="41.42" x2="266.1" y2="61.46"/><line class="aa9bae64-d00c-4c2c-9013-32b0ba65a86f" x1="266.1" y1="62.51" x2="266.1" y2="63.51"/></g><g id="fbf708ad-4d5a-4e0e-be09-bf34b0bf69af" data-name="Line 57"><line class="aa9bae64-d00c-4c2c-9013-32b0ba65a86f" x1="266.1" x2="266.1" y2="1"/><line class="fed139db-b9e0-494e-beac-72ef313fcbbc" x1="266.1" y1="2.91" x2="266.1" y2="36.36"/><line class="aa9bae64-d00c-4c2c-9013-32b0ba65a86f" x1="266.1" y1="37.31" x2="266.1" y2="38.31"/></g><g id="b7683f55-6880-45b1-988d-974fa5943d53" data-name="Line 58"><line class="aa9bae64-d00c-4c2c-9013-32b0ba65a86f" x1="242.09" y1="63.51" x2="241.09" y2="63.51"/><line class="aa6c2f37-1f72-4e15-ab07-dd459092515f" x1="239.11" y1="63.51" x2="1.99" y2="63.51"/><line class="aa9bae64-d00c-4c2c-9013-32b0ba65a86f" x1="1" y1="63.51" y2="63.51"/></g><g id="b6f9786f-691a-4142-a12f-1ba007c0d98c" data-name="Line 58"><line class="aa9bae64-d00c-4c2c-9013-32b0ba65a86f" x1="555" y1="63.51" x2="554" y2="63.51"/><line class="a687e139-3005-4174-94af-487c30346288" x1="551.99" y1="63.51" x2="268.1" y2="63.51"/><line class="aa9bae64-d00c-4c2c-9013-32b0ba65a86f" x1="267.1" y1="63.51" x2="266.1" y2="63.51"/></g><path d="M254.88,63.51a12.55,12.55,0,0,1-12.79-12.64,12.26,12.26,0,0,1,12.22-12.56c6.71,0,11.79,5.56,11.79,12.75v1.39H246.83a8.24,8.24,0,0,0,8.25,7,9.51,9.51,0,0,0,6.18-2.15l3.06,3A14.49,14.49,0,0,1,254.88,63.51Zm-8-14.66h14.47c-.72-3.73-3.59-6.51-7.14-6.51S247.6,45,246.88,48.85Z"/><g id="a58c4416-7950-4fff-b5e4-dec6e6bd9861" data-name="Line 58"><line class="aa9bae64-d00c-4c2c-9013-32b0ba65a86f" x1="266.1" y1="63.51" x2="265.1" y2="63.51"/><line class="a3081d34-66e4-44c1-b210-aa9d0e6b184f" x1="263.09" y1="63.51" x2="244.09" y2="63.51"/><line class="aa9bae64-d00c-4c2c-9013-32b0ba65a86f" x1="243.09" y1="63.51" x2="242.09" y2="63.51"/></g></svg>