<svg id="beeb0101-4020-4ace-bd8b-202591dc7682" data-name="Layer 1" xmlns="http://www.w3.org/2000/svg" width="262" height="180" viewBox="0 0 262 180"><defs><style>.b8e549bf-1bb8-40c8-9d37-4abcba9f7c8a{fill:#e00;}</style></defs><path d="M115.4,72.63v4.63h4c1.62,0,2.69-.93,2.69-2.32s-1.07-2.31-2.69-2.31Zm-2.08-1.82h6.29c2.75,0,4.61,1.66,4.61,4.09a3.91,3.91,0,0,1-2.85,3.8l3.08,6h-2.29L119.29,79H115.4v5.67h-2.08V70.81Z"/><path d="M127,78.78h6a3,3,0,0,0-6,0Zm3.3,6a5.18,5.18,0,0,1-5.27-5.22,5.05,5.05,0,0,1,5-5.18A5,5,0,0,1,135,79.69v.57h-8a3.4,3.4,0,0,0,3.4,2.89,3.92,3.92,0,0,0,2.55-.89l1.27,1.24a6,6,0,0,1-3.9,1.33Z"/><path d="M141.79,83.09a3.63,3.63,0,0,0,2.79-1.21V77.32a3.65,3.65,0,0,0-2.79-1.19,3.48,3.48,0,0,0,0,7Zm2.81.61a4.77,4.77,0,0,1-3.09,1.11,5.19,5.19,0,1,1,3.07-9.39V70.81l2-.43V84.65h-2v-1Z"/><polygon points="153.26 70.81 155.33 70.81 155.33 76.74 162.69 76.74 162.69 70.81 164.76 70.81 164.76 84.65 162.69 84.65 162.69 78.62 155.33 78.62 155.33 84.65 153.26 84.65 153.26 70.81 153.26 70.81"/><path d="M170.79,83.37a3.88,3.88,0,0,0,2.67-1V80.68a5.17,5.17,0,0,0-2.59-.62c-1.44,0-2.33.66-2.33,1.66s.91,1.65,2.25,1.65Zm-4.15-1.61c0-1.89,1.54-3.06,4.07-3.06a7.22,7.22,0,0,1,2.75.55V78.19c0-1.43-.85-2.14-2.45-2.14a7.16,7.16,0,0,0-3.12.85l-.74-1.48a9.49,9.49,0,0,1,4.14-1c2.61,0,4.11,1.28,4.11,3.6v6.66h-1.94v-.87a4.79,4.79,0,0,1-3.12,1c-2.2,0-3.7-1.25-3.7-3.07Z"/><path d="M178.58,76.25h-2.13V74.59h2.13V72l2-.48v3h3v1.66h-3V81.7c0,1,.41,1.41,1.48,1.41a3.88,3.88,0,0,0,1.45-.24v1.66a6.54,6.54,0,0,1-1.88.3c-2,0-3-.93-3-2.67V76.25Z"/><path class="b8e549bf-1bb8-40c8-9d37-4abcba9f7c8a" d="M74.5,88.5a12.42,12.42,0,0,1,.42,2.5c0,3.46-3.88,5.38-9,5.38-11.56,0-21.68-6.76-21.68-11.24a4.62,4.62,0,0,1,.37-1.81c-4.15.21-9.53,1-9.53,5.7,0,7.78,18.43,17.37,33,17.37,11.18,0,14-5.06,14-9.06,0-3.14-2.72-6.71-7.62-8.84Zm-8,2.82c3.09,0,7.57-.64,7.57-4.31a3.45,3.45,0,0,0-.08-.85l-1.84-8c-.43-1.76-.8-2.55-3.89-4.1-2.4-1.22-7.62-3.25-9.16-3.25s-1.87,1.87-3.57,1.87-2.88-1.39-4.42-1.39-2.45,1-3.2,3.09c0,0-2.08,5.86-2.34,6.71a1.38,1.38,0,0,0-.06.48c0,2.28,9,9.75,21,9.75Z"/><path d="M74.5,88.5a12.42,12.42,0,0,1,.42,2.5c0,3.46-3.88,5.38-9,5.38-11.56,0-21.68-6.76-21.68-11.24a4.62,4.62,0,0,1,.37-1.81l.91-2.24a1.38,1.38,0,0,0-.06.48c0,2.28,9,9.75,21,9.75,3.09,0,7.57-.64,7.57-4.31a3.45,3.45,0,0,0-.08-.85l.56,2.34Z"/><path d="M97.71,108.25a.56.56,0,0,1-.55-.56V69.58a.56.56,0,1,1,1.11,0v38.11a.56.56,0,0,1-.56.56Z"/><path d="M113.38,91.78h6.83a4.26,4.26,0,1,1,0,8.49h-4v5.14h-2.82Zm2.82,2.43v3.72h3.7a1.87,1.87,0,1,0,0-3.72Z"/><path d="M125.55,102.47c0-1.93,1.56-3.08,4.17-3.08a8.33,8.33,0,0,1,2.47.39v-.72c0-1.17-.72-1.77-2.14-1.77a7.8,7.8,0,0,0-3.1.84l-1-2a10.52,10.52,0,0,1,4.51-1.09c2.75,0,4.33,1.36,4.33,3.76v6.58h-2.63v-.7a4.85,4.85,0,0,1-2.94.88C127.07,105.59,125.55,104.32,125.55,102.47Zm4.4,1.21a3.89,3.89,0,0,0,2.24-.64v-1.52a5.73,5.73,0,0,0-2.14-.37c-1.23,0-2,.48-2,1.26S128.82,103.68,130,103.68Z"/><path d="M136.84,95.27h2.67v1.11A3.23,3.23,0,0,1,142.22,95a2.29,2.29,0,0,1,1.11.24V97.6a3.52,3.52,0,0,0-1.37-.27,2.69,2.69,0,0,0-2.45,1.52v6.56h-2.67Z"/><path d="M146.31,97.5h-2.09V95.27h2.09V92.68l2.66-.61v3.2h2.89V97.5H149V102c0,1,.37,1.31,1.41,1.31a4,4,0,0,0,1.42-.24v2.18a8.12,8.12,0,0,1-2.07.32c-2.26,0-3.42-1-3.42-3Z"/><path d="M156.28,105.51l-4-10.24h2.94l2.52,6.91,2.88-6.91h2.88l-4.67,10.94c-1.06,2.45-2.28,3.39-4.5,3.39a4.74,4.74,0,0,1-1.19-.12v-2.3a4.11,4.11,0,0,0,.94.08,2,2,0,0,0,2-1.38Z"/><path d="M169.13,101.22a6.73,6.73,0,0,0,4.61,2c1.7,0,2.79-.66,2.79-1.71s-.63-1.41-2.24-1.68l-2.71-.47C169.25,99,168,97.7,168,95.71c0-2.55,2.06-4.12,5.37-4.12a9.52,9.52,0,0,1,5.63,1.9L177.5,95.6A6.93,6.93,0,0,0,173.2,94c-1.52,0-2.49.61-2.49,1.54s.54,1.27,1.94,1.48l2.57.43c2.73.45,4.07,1.73,4.07,3.83,0,2.67-2.24,4.36-5.74,4.36a9,9,0,0,1-6-2.35Z"/><path d="M180.54,100.33a5.16,5.16,0,0,1,5.24-5.2,4.94,4.94,0,0,1,2.8.82v-.68h2.63v14.21h-2.67v-4.87a4.66,4.66,0,0,1-2.84.94A5.15,5.15,0,0,1,180.54,100.33Zm5.59,2.94a3.22,3.22,0,0,0,2.41-1v-4a3.35,3.35,0,0,0-2.41-1,2.88,2.88,0,0,0-3,2.94A2.91,2.91,0,0,0,186.13,103.27Z"/><path d="M195.9,101.17a2,2,0,0,0,2.11,2.14,2.43,2.43,0,0,0,2.1-1v-7h2.67v10.14h-2.67v-.82a4.32,4.32,0,0,1-2.86,1,3.86,3.86,0,0,1-4-4V95.27h2.66Z"/><path d="M204.37,102.47c0-1.93,1.56-3.08,4.17-3.08a8.28,8.28,0,0,1,2.47.39v-.72c0-1.17-.72-1.77-2.14-1.77a7.72,7.72,0,0,0-3.09.84l-1-2a10.6,10.6,0,0,1,4.52-1.09c2.75,0,4.32,1.36,4.32,3.76v6.58H211v-.7a4.83,4.83,0,0,1-2.94.88C205.89,105.59,204.37,104.32,204.37,102.47Zm4.4,1.21A3.89,3.89,0,0,0,211,103v-1.52a5.73,5.73,0,0,0-2.14-.37c-1.22,0-2,.48-2,1.26S207.65,103.68,208.77,103.68Z"/><path d="M223.24,104.57a4.56,4.56,0,0,1-2.88,1,5.21,5.21,0,0,1,.08-10.42,5,5,0,0,1,2.76.8V91.78l2.67-.58v14.21h-2.63Zm-2.45-1.3a3.22,3.22,0,0,0,2.41-1v-4a3.35,3.35,0,0,0-2.41-1,2.88,2.88,0,0,0-3,2.94A2.91,2.91,0,0,0,220.79,103.27Z"/></svg>