<svg id="bca0adc8-6aae-4eac-ab01-684ffbda02d3" data-name="Layer 1" xmlns="http://www.w3.org/2000/svg" width="262" height="180" viewBox="0 0 262 180"><defs><style>.a3fbf680-1146-4f43-ae16-da18b3fc458b{fill:#e00;}</style></defs><path d="M98.75,77.76H97.07v1.93h1.68a1.13,1.13,0,0,0,.83-.28.94.94,0,0,0,0-1.36,1.13,1.13,0,0,0-.83-.29Zm-2.55,5V77h2.62a2.3,2.3,0,0,1,.81.13,1.78,1.78,0,0,1,.6.36,1.47,1.47,0,0,1,.38.54,1.67,1.67,0,0,1,.13.67,1.52,1.52,0,0,1-.32,1,1.81,1.81,0,0,1-.86.61l1.28,2.48h-1l-1.2-2.37H97.07v2.37Z"/><path d="M103.18,79.21a1.19,1.19,0,0,0-.83.31,1.47,1.47,0,0,0-.44.81h2.49a1.33,1.33,0,0,0-.42-.8,1.13,1.13,0,0,0-.8-.32Zm-2.09,1.46a2.2,2.2,0,0,1,.16-.84,2.12,2.12,0,0,1,.45-.68,2.21,2.21,0,0,1,.66-.47,2.12,2.12,0,0,1,.83-.16,2,2,0,0,1,1.87,1.32,2.28,2.28,0,0,1,.16.87V81h-3.31a1.4,1.4,0,0,0,1.41,1.2,1.66,1.66,0,0,0,.59-.1,1.4,1.4,0,0,0,.48-.27l.53.52a2.78,2.78,0,0,1-.77.42,2.63,2.63,0,0,1-.86.13,2.24,2.24,0,0,1-.86-.17,2,2,0,0,1-.7-.46,2,2,0,0,1-.47-.68,2.29,2.29,0,0,1-.17-.87Z"/><path d="M106.64,80.67a1.43,1.43,0,0,0,.41,1,1.35,1.35,0,0,0,1,.43,1.53,1.53,0,0,0,.66-.14,1.46,1.46,0,0,0,.51-.37v-1.9a1.47,1.47,0,0,0-.51-.36,1.59,1.59,0,0,0-.66-.14,1.35,1.35,0,0,0-1,.42,1.39,1.39,0,0,0-.41,1Zm2.59,2.11v-.4a1.82,1.82,0,0,1-.59.34,2,2,0,0,1-.69.12,1.9,1.9,0,0,1-.83-.17,2,2,0,0,1-.68-.46,2.06,2.06,0,0,1-.45-.69,2.31,2.31,0,0,1,0-1.69,2.12,2.12,0,0,1,.45-.68,2.18,2.18,0,0,1,.68-.47,2.32,2.32,0,0,1,1.52-.06,2.08,2.08,0,0,1,.59.31V77l.82-.18v6Z"/><polygon points="112.84 82.78 112.84 77.01 113.7 77.01 113.7 79.48 116.77 79.48 116.77 77.01 117.63 77.01 117.63 82.78 116.77 82.78 116.77 80.26 113.7 80.26 113.7 82.78 112.84 82.78 112.84 82.78"/><path d="M119.21,81.56a.59.59,0,0,0,.26.49,1.12,1.12,0,0,0,.68.19,1.74,1.74,0,0,0,.61-.1,1.49,1.49,0,0,0,.5-.29v-.74a2.05,2.05,0,0,0-.49-.18,2.22,2.22,0,0,0-.59-.07,1.16,1.16,0,0,0-.7.19.58.58,0,0,0-.27.51Zm.75,1.29a1.69,1.69,0,0,1-1.12-.36,1.15,1.15,0,0,1-.42-.92,1.09,1.09,0,0,1,.48-.95,2.08,2.08,0,0,1,1.21-.32,2.91,2.91,0,0,1,.6.06,2.35,2.35,0,0,1,.55.17v-.45a.84.84,0,0,0-.26-.67,1.21,1.21,0,0,0-.76-.22,2.21,2.21,0,0,0-.62.09,3.69,3.69,0,0,0-.68.27l-.31-.62a4.88,4.88,0,0,1,.87-.32,3.48,3.48,0,0,1,.85-.11,1.86,1.86,0,0,1,1.26.39,1.35,1.35,0,0,1,.46,1.11v2.78h-.81v-.37a1.77,1.77,0,0,1-.6.33,2.23,2.23,0,0,1-.7.11Z"/><path d="M123.4,81.74V79.27h-.89v-.69h.89V77.51l.82-.2v1.27h1.24v.69h-1.24v2.28a.62.62,0,0,0,.14.45.71.71,0,0,0,.48.13,1.47,1.47,0,0,0,.31,0,1.28,1.28,0,0,0,.29-.08v.7a2.23,2.23,0,0,1-.39.09l-.39,0a1.39,1.39,0,0,1-.94-.28,1.07,1.07,0,0,1-.32-.83Z"/><path d="M108.71,99.34l2.33,2.3a9.32,9.32,0,0,1-7,3.17,8.84,8.84,0,1,1,0-17.68,9.35,9.35,0,0,1,7.13,3.22l-2.4,2.37A6,6,0,0,0,104,90.39a5.57,5.57,0,0,0,.1,11.13,5.82,5.82,0,0,0,4.6-2.18Z"/><path d="M115.18,96.91h6.25a3.18,3.18,0,0,0-6.25,0Zm3.22-5.34c3.62,0,6.32,2.94,6.32,6.86v.89h-9.51a3.68,3.68,0,0,0,3.63,2.67,4.05,4.05,0,0,0,2.82-1l2.2,2a7.68,7.68,0,0,1-5.17,1.84,6.65,6.65,0,0,1-6.86-6.62,6.52,6.52,0,0,1,6.57-6.62Z"/><path d="M126.73,91.79h3.36v1.4a4.12,4.12,0,0,1,3.4-1.69,2.93,2.93,0,0,1,1.4.29v2.94a4.06,4.06,0,0,0-1.72-.34,3.37,3.37,0,0,0-3.08,1.89v8.28h-3.36V91.79Z"/><path d="M138.74,94.61h-2.63V91.79h2.63V88.53l3.36-.76v4h3.62v2.82H142.1v5.66c0,1.2.46,1.64,1.76,1.64a5.5,5.5,0,0,0,1.79-.29v2.75a10.85,10.85,0,0,1-2.6.39c-2.79,0-4.31-1.28-4.31-3.8V94.61Z"/><path d="M150.7,104.56h-3.36V91.79h3.36v12.77Zm-3.61-16.2A1.94,1.94,0,0,1,149,86.45a1.91,1.91,0,0,1,0,3.82,1.94,1.94,0,0,1-1.92-1.91Z"/><path d="M155.26,91.79V90.57c0-2.8,1.64-4.44,4.85-4.44a8.28,8.28,0,0,1,2,.22v2.82a6.27,6.27,0,0,0-1.56-.2c-1.28,0-1.92.54-1.92,1.67v1.15h3.48v2.82h-3.48v10h-3.35v-10h-2.85V91.79Z"/><path d="M167.17,104.56h-3.36V91.79h3.36v12.77Zm-3.6-16.2a1.91,1.91,0,1,1,1.91,1.91,1.93,1.93,0,0,1-1.91-1.91Z"/><path d="M179.05,100.44l2,2.09a7.06,7.06,0,0,1-5.19,2.28,6.63,6.63,0,1,1,0-13.26,7.16,7.16,0,0,1,5.29,2.28L179.1,96a4.11,4.11,0,0,0-3.16-1.55,3.71,3.71,0,0,0,.08,7.4,4,4,0,0,0,3-1.42Z"/><path d="M187.73,102.38a4.87,4.87,0,0,0,2.82-.81V99.66a7.44,7.44,0,0,0-2.7-.47c-1.47,0-2.45.57-2.45,1.6s.91,1.59,2.33,1.59Zm-5.54-1.52c0-2.5,2.06-3.87,5.25-3.87a9.84,9.84,0,0,1,3.11.49v-.91c0-1.49-.91-2.23-2.7-2.23a9.88,9.88,0,0,0-3.89,1l-1.23-2.47a13.4,13.4,0,0,1,5.69-1.37c3.4,0,5.44,1.66,5.44,4.73v8.28h-3.31v-.91a6,6,0,0,1-3.7,1.13c-2.82,0-4.66-1.66-4.66-3.92Z"/><path d="M197.71,94.61h-2.63V91.79h2.63V88.53l3.35-.76v4h3.63v2.82h-3.63v5.66c0,1.2.47,1.64,1.77,1.64a5.5,5.5,0,0,0,1.79-.29v2.75a10.85,10.85,0,0,1-2.6.39c-2.79,0-4.31-1.28-4.31-3.8V94.61Z"/><path d="M209.67,104.56h-3.36V91.79h3.36v12.77Zm-3.61-16.2A1.94,1.94,0,0,1,208,86.45a1.91,1.91,0,1,1,0,3.82,1.94,1.94,0,0,1-1.92-1.91Z"/><path d="M218.49,94.46A3.72,3.72,0,1,0,222,98.19a3.6,3.6,0,0,0-3.53-3.73Zm0-2.91a6.63,6.63,0,1,1-6.81,6.64,6.65,6.65,0,0,1,6.81-6.64Z"/><path d="M227.31,91.79h3.36v1a5.35,5.35,0,0,1,3.58-1.27,4.84,4.84,0,0,1,5.05,5.07v7.94H236V97.11a2.51,2.51,0,0,0-2.68-2.67,3,3,0,0,0-2.62,1.27v8.85h-3.36V91.79Z"/><polygon points="96.66 109.04 104.99 109.04 104.99 110.77 101.81 110.77 101.81 118.51 99.85 118.51 99.85 110.77 96.66 110.77 96.66 109.04 96.66 109.04"/><path d="M105.77,114.29h3.45a1.79,1.79,0,0,0-1.72-1.42,1.77,1.77,0,0,0-1.73,1.42Zm1.78-3a3.56,3.56,0,0,1,3.49,3.79v.48h-5.25a2,2,0,0,0,2,1.48,2.22,2.22,0,0,0,1.55-.57l1.22,1.11a4.22,4.22,0,0,1-2.85,1,3.67,3.67,0,0,1-3.79-3.65,3.6,3.6,0,0,1,3.63-3.65Z"/><path d="M114.86,117.3a2.67,2.67,0,0,0,1.56-.44V115.8a4.23,4.23,0,0,0-1.49-.25c-.81,0-1.35.31-1.35.87s.5.88,1.28.88Zm-3-.83c0-1.38,1.13-2.14,2.89-2.14a5.34,5.34,0,0,1,1.72.27v-.5c0-.83-.5-1.23-1.49-1.23a5.34,5.34,0,0,0-2.15.58l-.68-1.37a7.43,7.43,0,0,1,3.14-.75c1.88,0,3,.92,3,2.61v4.57h-1.82V118a3.33,3.33,0,0,1-2,.62,2.28,2.28,0,0,1-2.57-2.16Z"/><path d="M119.65,111.46h1.85V112a2.77,2.77,0,0,1,1.84-.66,2.54,2.54,0,0,1,2.13,1,3,3,0,0,1,2.32-1,2.64,2.64,0,0,1,2.71,2.8v4.38h-1.85V114.4a1.33,1.33,0,0,0-1.34-1.48,1.6,1.6,0,0,0-1.36.7,2.71,2.71,0,0,1,0,.51v4.38h-1.85V114.4a1.32,1.32,0,0,0-1.32-1.48,1.57,1.57,0,0,0-1.32.65v4.94h-1.85v-7.05Z"/><path class="a3fbf680-1146-4f43-ae16-da18b3fc458b" d="M81.66,87.81a18.51,18.51,0,0,1,.64,3.74c0,5.18-5.82,8-13.47,8-17.29,0-32.42-10.12-32.42-16.81A6.8,6.8,0,0,1,37,80.08c-6.21.32-14.26,1.43-14.26,8.53,0,11.63,27.57,26,49.4,26,16.73,0,21-7.57,21-13.55,0-4.7-4.06-10-11.39-13.22ZM69.63,92c4.62,0,11.31-1,11.31-6.45a5.41,5.41,0,0,0-.11-1.27l-2.75-12c-.64-2.63-1.2-3.82-5.82-6.13-3.59-1.84-11.39-4.86-13.71-4.86-2.15,0-2.78,2.79-5.33,2.79s-4.31-2.08-6.62-2.08-3.66,1.52-4.78,4.62c0,0-3.1,8.77-3.5,10a2.31,2.31,0,0,0-.08.72C38.24,80.86,51.65,92,69.63,92Z"/><path d="M81.66,87.81a18.51,18.51,0,0,1,.64,3.74c0,5.18-5.82,8-13.47,8-17.29,0-32.42-10.12-32.42-16.81A6.8,6.8,0,0,1,37,80.08l1.36-3.35a2.31,2.31,0,0,0-.08.72C38.24,80.86,51.65,92,69.63,92c4.62,0,11.31-1,11.31-6.45a5.41,5.41,0,0,0-.11-1.27l.83,3.5Z"/></svg>