<svg id="b4980d09-eb50-4b3e-ae8c-759d83666e18" data-name="Layer 1" xmlns="http://www.w3.org/2000/svg" width="262" height="180" viewBox="0 0 262 180"><defs><style>.ab5b67a5-6854-4042-a1bc-187d344ba82c{fill:#00c8fb;}.abaa2140-747d-43bd-9974-d2aafae60766{fill:#333;}.a9f5b90b-d52a-41c5-8e1d-2e444e0fef37{fill:#e00;}</style></defs><path class="ab5b67a5-6854-4042-a1bc-187d344ba82c" d="M177.26,100.16l10-10.65-5-9.78h5.54l3,6.16,5.57-6.16h5.95l-9.42,10,5.34,10.42h-5.55l-3.35-6.83-6.19,6.83Z"/><path class="ab5b67a5-6854-4042-a1bc-187d344ba82c" d="M208,92.51l-5.54-12.78h5.22l3.53,8.38,7-8.38H224l-11,12.84-1.6,7.59h-4.93Z"/><polygon class="ab5b67a5-6854-4042-a1bc-187d344ba82c" points="230.73 87 236.67 87 240.57 83.12 241.3 79.73 224.64 79.73 223.71 84.08 233.66 84.08 230.73 87"/><polygon class="ab5b67a5-6854-4042-a1bc-187d344ba82c" points="230.75 92.89 224.83 92.89 220.94 96.77 220.21 100.16 237.04 100.16 237.98 95.81 227.82 95.81 230.75 92.89"/><path class="abaa2140-747d-43bd-9974-d2aafae60766" d="M223.37,90.37l.35.43a1.61,1.61,0,0,1-1.09.46A1.25,1.25,0,0,1,221.35,90a1.46,1.46,0,0,1,1.47-1.45,1.23,1.23,0,0,1,1.1.56l-.5.41a.69.69,0,0,0-.64-.38A.81.81,0,0,0,222,90a.68.68,0,0,0,.71.69A1,1,0,0,0,223.37,90.37Z"/><path class="abaa2140-747d-43bd-9974-d2aafae60766" d="M225.22,91.26A1.23,1.23,0,0,1,223.94,90a1.47,1.47,0,0,1,1.47-1.47,1.23,1.23,0,0,1,1.28,1.24A1.47,1.47,0,0,1,225.22,91.26Zm.15-2.12a.81.81,0,0,0-.78.83.67.67,0,0,0,.67.7.81.81,0,0,0,.78-.84A.66.66,0,0,0,225.37,89.14Z"/><path class="abaa2140-747d-43bd-9974-d2aafae60766" d="M227.72,89.42l-.38,1.8h-.59l.56-2.63h.78l.37,1.23.9-1.23h.81l-.56,2.63H229l.38-1.79L228.23,91Z"/><path class="abaa2140-747d-43bd-9974-d2aafae60766" d="M230.6,88.59h1.23a.77.77,0,0,1,.83.78,1,1,0,0,1-1,.9h-.79l-.19,1H230Zm.52.55-.13.6h.66a.33.33,0,0,0,.36-.32.27.27,0,0,0-.3-.28Z"/><path class="abaa2140-747d-43bd-9974-d2aafae60766" d="M233.67,88.59h.72l.49,2.63h-.65l-.1-.64h-1l-.37.64h-.69Zm.37,1.48-.13-.84-.49.84Z"/><path class="abaa2140-747d-43bd-9974-d2aafae60766" d="M236.23,88.59l.83,1.58.34-1.58h.6l-.56,2.63h-.56L236,89.58l-.35,1.64h-.59l.55-2.63Z"/><path class="abaa2140-747d-43bd-9974-d2aafae60766" d="M238.89,90.23l-.72-1.64h.68l.45,1.08.9-1.08h.74l-1.42,1.65-.2,1h-.64Z"/><path id="b69f5770-9e69-4c23-b1a4-5d97f2499c8f" data-name="Divider" d="M160.49,103.52a.42.42,0,0,1-.43-.42V76.9a.43.43,0,0,1,.85,0v26.2A.42.42,0,0,1,160.49,103.52Z"/><path d="M68.2,80.61H65.93v2.6H68.2a1.53,1.53,0,0,0,1.13-.38,1.28,1.28,0,0,0,0-1.84,1.53,1.53,0,0,0-1.13-.38Zm-3.44,6.77v-7.8H68.3a3.16,3.16,0,0,1,1.09.18,2.49,2.49,0,0,1,.82.49,2.05,2.05,0,0,1,.51.72,2.36,2.36,0,0,1,.18.92,2.12,2.12,0,0,1-.44,1.32,2.34,2.34,0,0,1-1.17.81L71,87.38H69.74l-1.62-3.2H65.93v3.2Z"/><path d="M74.18,82.56a1.6,1.6,0,0,0-1.11.42,1.86,1.86,0,0,0-.59,1.09h3.36A1.91,1.91,0,0,0,75.26,83a1.53,1.53,0,0,0-1.08-.43Zm-2.82,2a3.12,3.12,0,0,1,.22-1.14,3.23,3.23,0,0,1,.6-.93,3,3,0,0,1,.9-.62,2.8,2.8,0,0,1,1.12-.23,2.66,2.66,0,0,1,1.09.23,2.6,2.6,0,0,1,.87.62,3.07,3.07,0,0,1,.57.94,3.28,3.28,0,0,1,.21,1.17v.32H72.47a1.9,1.9,0,0,0,.64,1.17,1.87,1.87,0,0,0,1.27.46,2.34,2.34,0,0,0,.79-.13,2.16,2.16,0,0,0,.65-.37l.71.7a3.52,3.52,0,0,1-1,.57,3.57,3.57,0,0,1-1.16.18,3,3,0,0,1-1.17-.23,3,3,0,0,1-1-.62,2.73,2.73,0,0,1-.63-.93,3,3,0,0,1-.23-1.16Z"/><path d="M78.86,84.53a1.9,1.9,0,0,0,.56,1.4,1.84,1.84,0,0,0,1.36.57,2,2,0,0,0,.89-.19,1.89,1.89,0,0,0,.68-.49V83.25a1.92,1.92,0,0,0-.68-.49,2.18,2.18,0,0,0-.89-.18,1.84,1.84,0,0,0-1.37.56,1.89,1.89,0,0,0-.55,1.39Zm3.5,2.85v-.54a2.36,2.36,0,0,1-.8.46,2.69,2.69,0,0,1-.93.17,2.85,2.85,0,0,1-1.13-.23,2.91,2.91,0,0,1-.91-.63,3,3,0,0,1-.6-.93,3.06,3.06,0,0,1,0-2.28,3.23,3.23,0,0,1,.6-.93,2.82,2.82,0,0,1,.92-.62,2.87,2.87,0,0,1,1.14-.23,3,3,0,0,1,.91.14,2.85,2.85,0,0,1,.79.42v-2.6l1.12-.24v8Z"/><polygon points="87.23 87.38 87.23 79.58 88.4 79.58 88.4 82.92 92.54 82.92 92.54 79.58 93.71 79.58 93.71 87.38 92.54 87.38 92.54 83.98 88.4 83.98 88.4 87.38 87.23 87.38 87.23 87.38"/><path d="M95.83,85.73a.79.79,0,0,0,.36.67,1.53,1.53,0,0,0,.91.25,2.49,2.49,0,0,0,.83-.13,2,2,0,0,0,.68-.4v-1a2.57,2.57,0,0,0-.67-.25,3.24,3.24,0,0,0-.79-.09,1.64,1.64,0,0,0-1,.25.79.79,0,0,0-.37.69Zm1,1.75A2.3,2.3,0,0,1,95.34,87a1.54,1.54,0,0,1-.57-1.24,1.46,1.46,0,0,1,.65-1.29A2.88,2.88,0,0,1,97.06,84a3.72,3.72,0,0,1,.81.09,3.54,3.54,0,0,1,.74.23v-.6a1.11,1.11,0,0,0-.36-.91,1.55,1.55,0,0,0-1-.3,2.72,2.72,0,0,0-.84.13,5.9,5.9,0,0,0-.92.35l-.42-.83a7.33,7.33,0,0,1,1.17-.43,4.56,4.56,0,0,1,1.16-.15,2.55,2.55,0,0,1,1.71.52,1.89,1.89,0,0,1,.61,1.5v3.76H98.61v-.49a2.47,2.47,0,0,1-.81.44,2.91,2.91,0,0,1-1,.15Z"/><path d="M101.5,86V82.64h-1.2v-.93h1.2V80.26l1.1-.27v1.72h1.67v.93H102.6v3.08a.8.8,0,0,0,.2.61.92.92,0,0,0,.64.18,2.58,2.58,0,0,0,.42,0,1.66,1.66,0,0,0,.39-.11v.94a3.33,3.33,0,0,1-.52.12,3.61,3.61,0,0,1-.54,0,1.78,1.78,0,0,1-1.25-.39A1.41,1.41,0,0,1,101.5,86Z"/><path d="M64.93,96.67a3.81,3.81,0,0,0,2.64,1.14c1,0,1.59-.39,1.59-1s-.31-.79-1.28-1l-1.55-.27c-1.36-.23-2-1-2-2.08,0-1.45,1.16-2.36,3.08-2.36a5.38,5.38,0,0,1,3.21,1.09l-.86,1.2a4,4,0,0,0-2.46-.93c-.86,0-1.43.34-1.43.88s.29.72,1.11.85l1.47.24c1.6.27,2.33,1,2.33,2.19,0,1.52-1.27,2.5-3.28,2.5A5.18,5.18,0,0,1,64,97.83l.93-1.16Z"/><path d="M74.07,98.08a2.27,2.27,0,0,0,1.28-.37v-.87a3.56,3.56,0,0,0-1.23-.21c-.66,0-1.11.25-1.11.72s.41.73,1.06.73Zm-2.52-.7c0-1.13.94-1.75,2.38-1.75a4.36,4.36,0,0,1,1.42.22v-.41q0-1-1.23-1a4.53,4.53,0,0,0-1.77.48l-.55-1.12a6.11,6.11,0,0,1,2.58-.63c1.55,0,2.47.76,2.47,2.15v3.77h-1.5v-.42a2.71,2.71,0,0,1-1.68.52,1.89,1.89,0,0,1-2.12-1.79Z"/><path d="M78.7,93.27v-.56c0-1.27.75-2,2.2-2a4.37,4.37,0,0,1,.91.1v1.28a3.24,3.24,0,0,0-.72-.08c-.58,0-.86.24-.86.75v.53h1.58v1.28H80.23v4.52H78.7V94.55H77.41V93.27Z"/><path d="M83.7,95.59h2.84a1.48,1.48,0,0,0-1.42-1.17,1.46,1.46,0,0,0-1.42,1.17Zm1.46-2.42A2.92,2.92,0,0,1,88,96.28v.4H83.71a1.67,1.67,0,0,0,1.65,1.22,1.83,1.83,0,0,0,1.28-.47l1,.91a3.48,3.48,0,0,1-2.35.84,3,3,0,0,1-3.12-3,3,3,0,0,1,3-3Z"/><path d="M89.53,94.55H88.34V93.27h1.19V91.78l1.53-.34v1.83h1.65v1.28H91.06v2.57c0,.54.21.74.8.74a2.5,2.5,0,0,0,.81-.13V99a4.8,4.8,0,0,1-1.18.17c-1.27,0-2-.57-2-1.72V94.55Z"/><path d="M95.23,99.12,93,93.27h1.68l1.44,4,1.65-4h1.65l-2.67,6.22c-.56,1.31-1.21,1.94-2.57,1.94a3.13,3.13,0,0,1-.68-.06v-1.31a2.7,2.7,0,0,0,.53,0,1.17,1.17,0,0,0,1.16-.79l.07-.19Z"/><polygon points="103.64 99.07 101.91 91.27 103.57 91.27 104.63 96.56 106.16 91.27 107.67 91.27 109.18 96.54 110.24 91.27 111.84 91.27 110.12 99.07 108.43 99.07 106.88 93.62 105.33 99.07 103.64 99.07 103.64 99.07"/><path d="M114.43,98.08a2.27,2.27,0,0,0,1.28-.37v-.87a3.56,3.56,0,0,0-1.23-.21c-.67,0-1.11.25-1.11.72s.41.73,1.06.73Zm-2.52-.7c0-1.13.94-1.75,2.38-1.75a4.4,4.4,0,0,1,1.42.22v-.41c0-.68-.42-1-1.23-1a4.53,4.53,0,0,0-1.77.48l-.55-1.12a6.11,6.11,0,0,1,2.58-.63c1.55,0,2.47.76,2.47,2.15v3.77h-1.5v-.42a2.71,2.71,0,0,1-1.68.52,1.89,1.89,0,0,1-2.12-1.79Z"/><path d="M118.37,93.27h1.52v.63a1.9,1.9,0,0,1,1.55-.77,1.25,1.25,0,0,1,.63.14V94.6a1.79,1.79,0,0,0-.77-.15,1.54,1.54,0,0,0-1.41.85v3.77h-1.52v-5.8Z"/><path d="M125.57,97.84a1.84,1.84,0,0,0,1.38-.56V95a2,2,0,0,0-1.38-.54,1.68,1.68,0,1,0,0,3.36Zm1.4.75a2.64,2.64,0,0,1-1.64.55,3,3,0,1,1,1.62-5.5V91.27l1.53-.33v8.13H127v-.48Z"/><path d="M130.91,95.59h2.84a1.45,1.45,0,0,0-2.84,0Zm1.46-2.42a2.93,2.93,0,0,1,2.88,3.11v.4h-4.32a1.66,1.66,0,0,0,1.64,1.22,1.81,1.81,0,0,0,1.28-.47l1,.91a3.5,3.5,0,0,1-2.35.84,3,3,0,0,1-3.12-3,3,3,0,0,1,3-3Z"/><path d="M136.16,93.27h1.52v.46a2.43,2.43,0,0,1,1.63-.58,2.2,2.2,0,0,1,2.29,2.31v3.61h-1.51V95.68a1.14,1.14,0,0,0-1.21-1.21,1.37,1.37,0,0,0-1.2.58v4h-1.52v-5.8Z"/><path class="a9f5b90b-d52a-41c5-8e1d-2e444e0fef37" d="M42.9,89.54A7,7,0,0,1,43.14,91c0,2-2.19,3-5.07,3-6.51,0-12.21-3.81-12.21-6.33a2.57,2.57,0,0,1,.21-1c-2.34.12-5.37.54-5.37,3.21,0,4.38,10.38,9.78,18.6,9.78,6.3,0,7.89-2.85,7.89-5.1,0-1.77-1.53-3.78-4.29-5Zm-4.53,1.59c1.74,0,4.26-.36,4.26-2.43a1.83,1.83,0,0,0-.05-.47l-1-4.51c-.24-1-.45-1.44-2.19-2.31a20.31,20.31,0,0,0-5.16-1.83c-.81,0-1.05,1-2,1s-1.62-.78-2.49-.78-1.38.57-1.8,1.74c0,0-1.17,3.3-1.32,3.78a.86.86,0,0,0,0,.27c0,1.28,5.05,5.49,11.82,5.49Z"/><path d="M42.9,89.54A7,7,0,0,1,43.14,91c0,2-2.19,3-5.07,3-6.51,0-12.21-3.81-12.21-6.33a2.57,2.57,0,0,1,.21-1l.51-1.26a.86.86,0,0,0,0,.27c0,1.28,5.05,5.49,11.82,5.49,1.74,0,4.26-.36,4.26-2.43a1.83,1.83,0,0,0-.05-.47l.32,1.31Z"/><path d="M56,100.67a.31.31,0,0,1-.31-.32V78.89a.31.31,0,0,1,.31-.32.32.32,0,0,1,.32.32v21.46a.32.32,0,0,1-.32.32Z"/></svg>