<svg id="e9985be9-f807-4016-b20b-25991fbc19f1" data-name="Layer 1" xmlns="http://www.w3.org/2000/svg" width="262" height="180" viewBox="0 0 262 180"><defs><style>.f5a46653-3ad3-436b-a125-3c3b33309d90{fill:#e00;}</style></defs><path d="M113.55,74v4.63h4c1.63,0,2.69-.93,2.69-2.31S119.21,74,117.58,74Zm-2.07-1.81h6.28c2.75,0,4.61,1.66,4.61,4.09a3.9,3.9,0,0,1-2.85,3.79l3.09,6h-2.3l-2.86-5.68h-3.9V86h-2.07V72.18Z"/><path d="M125.2,80.14h6a3.13,3.13,0,0,0-2.95-2.69,3.08,3.08,0,0,0-3,2.69Zm3.3,6A5.17,5.17,0,0,1,123.22,81a5.06,5.06,0,0,1,5-5.18,5,5,0,0,1,4.86,5.26v.58h-7.94a3.38,3.38,0,0,0,3.4,2.88,3.89,3.89,0,0,0,2.55-.89l1.26,1.25a6,6,0,0,1-3.89,1.32Z"/><path d="M139.94,84.45a3.62,3.62,0,0,0,2.79-1.2V78.68a3.68,3.68,0,0,0-2.79-1.19,3.48,3.48,0,0,0,0,7Zm2.81.62a4.76,4.76,0,0,1-3.08,1.1,5.19,5.19,0,0,1,0-10.38,5.15,5.15,0,0,1,3,1v-4.6l2-.44V86h-2v-1Z"/><polygon points="151.41 72.18 153.49 72.18 153.49 78.11 160.84 78.11 160.84 72.18 162.92 72.18 162.92 86.02 160.84 86.02 160.84 79.98 153.49 79.98 153.49 86.02 151.41 86.02 151.41 72.18 151.41 72.18"/><path d="M169,84.73a3.91,3.91,0,0,0,2.67-1V82a5.33,5.33,0,0,0-2.59-.61c-1.45,0-2.34.65-2.34,1.66s.91,1.64,2.26,1.64Zm-4.16-1.6c0-1.9,1.55-3.07,4.08-3.07a7,7,0,0,1,2.75.56V79.55c0-1.42-.85-2.13-2.46-2.13a7.06,7.06,0,0,0-3.12.85l-.73-1.49a9.45,9.45,0,0,1,4.13-1c2.61,0,4.11,1.29,4.11,3.6V86h-1.93v-.87a4.79,4.79,0,0,1-3.13,1c-2.19,0-3.7-1.24-3.7-3.06Z"/><path d="M176.74,77.61H174.6V76h2.14V73.38l1.95-.47v3h3v1.66h-3v5.46c0,1,.42,1.4,1.49,1.4a4,4,0,0,0,1.44-.23V85.9a6.84,6.84,0,0,1-1.88.29c-2,0-3-.93-3-2.67V77.61Z"/><polygon points="111.32 92.93 121.95 92.93 121.95 95.42 114.18 95.42 114.18 98.59 119.31 98.59 119.31 101 114.18 101 114.18 104.28 122.03 104.28 122.03 106.77 111.32 106.77 111.32 92.93 111.32 92.93"/><polygon points="122.72 96.47 125.67 96.47 128.5 103.33 131.31 96.47 134.19 96.47 129.76 106.77 127.15 106.77 122.72 96.47 122.72 96.47"/><path d="M137.1,100.61h5a2.66,2.66,0,0,0-2.51-2.08,2.58,2.58,0,0,0-2.53,2.08Zm2.82,6.36a5.36,5.36,0,0,1-5.53-5.34,5.25,5.25,0,0,1,5.3-5.33c2.92,0,5.1,2.37,5.1,5.53v.71h-7.67A3,3,0,0,0,140,104.7a3.29,3.29,0,0,0,2.28-.83l1.78,1.62a6.18,6.18,0,0,1-4.18,1.48Z"/><path d="M146.45,96.47h2.71v.81a4.42,4.42,0,0,1,2.88-1,3.91,3.91,0,0,1,4.08,4.09v6.4h-2.71v-6a2,2,0,0,0-2.14-2.15,2.43,2.43,0,0,0-2.11,1v7.13h-2.71V96.47Z"/><path d="M159.18,98.75h-2.12V96.47h2.12V93.84l2.71-.61v3.24h2.92v2.28h-2.92v4.56c0,1,.37,1.33,1.42,1.33a4.16,4.16,0,0,0,1.45-.24v2.22a8.89,8.89,0,0,1-2.1.31c-2.29,0-3.48-1.05-3.48-3.06V98.75Z"/><path d="M166.83,103.75a6,6,0,0,0,3.34,1.17c1.21,0,2-.44,2-1.09s-.4-.83-1.29-1l-2-.3c-2-.31-3.13-1.32-3.13-3,0-2,1.66-3.27,4.29-3.27a7.57,7.57,0,0,1,4.23,1.29L173,99.34a6.12,6.12,0,0,0-3.18-1c-1,0-1.62.4-1.62,1s.39.83,1.4,1l2,.3c2,.29,3.14,1.34,3.14,2.94,0,1.94-1.92,3.4-4.51,3.4a7.55,7.55,0,0,1-4.72-1.42l1.34-1.8Z"/><polygon points="179.32 92.93 191.5 92.93 191.5 95.47 186.86 95.47 186.86 106.77 183.99 106.77 183.99 95.47 179.32 95.47 179.32 92.93 179.32 92.93"/><path d="M192.65,100.61h5a2.65,2.65,0,0,0-2.51-2.08,2.59,2.59,0,0,0-2.53,2.08Zm2.83,6.36a5.36,5.36,0,0,1-5.54-5.34,5.25,5.25,0,0,1,5.3-5.33c2.93,0,5.1,2.37,5.1,5.53v.71h-7.67a3,3,0,0,0,2.93,2.16,3.24,3.24,0,0,0,2.27-.83l1.78,1.62a6.17,6.17,0,0,1-4.17,1.48Z"/><path d="M205.94,105a3.84,3.84,0,0,0,2.27-.65v-1.54a5.91,5.91,0,0,0-2.18-.38c-1.24,0-2,.5-2,1.29s.73,1.28,1.88,1.28Zm-4.47-1.22c0-2,1.58-3.13,4.23-3.13a8.24,8.24,0,0,1,2.51.4v-.73c0-1.19-.73-1.8-2.18-1.8a8,8,0,0,0-3.14.85l-1-2a10.76,10.76,0,0,1,4.59-1.1c2.79,0,4.39,1.38,4.39,3.81v6.68h-2.67v-.71a4.92,4.92,0,0,1-3,.89c-2.21,0-3.75-1.28-3.75-3.16Z"/><path d="M212.93,96.47h2.71v.77a4,4,0,0,1,2.69-1,3.71,3.71,0,0,1,3.11,1.54,4.22,4.22,0,0,1,3.4-1.54,3.84,3.84,0,0,1,3.93,4.09v6.4h-2.71v-6a1.92,1.92,0,0,0-1.94-2.15,2.29,2.29,0,0,0-2,1,4.23,4.23,0,0,1,.06.73v6.4H219.5v-6a1.92,1.92,0,0,0-1.94-2.15,2.29,2.29,0,0,0-1.92.93v7.23h-2.71V96.47Z"/><path class="f5a46653-3ad3-436b-a125-3c3b33309d90" d="M72.65,89.86a12.28,12.28,0,0,1,.43,2.51c0,3.46-3.89,5.38-9,5.38-11.56,0-21.68-6.77-21.68-11.24a4.37,4.37,0,0,1,.38-1.81c-4.16.21-9.54,1-9.54,5.7,0,7.77,18.43,17.36,33,17.36,11.19,0,14-5.06,14-9.05,0-3.15-2.72-6.72-7.62-8.85Zm-8,2.83c3.09,0,7.56-.64,7.56-4.32a3.86,3.86,0,0,0-.07-.84l-1.85-8c-.42-1.76-.8-2.56-3.88-4.1-2.4-1.23-7.62-3.25-9.17-3.25S55.34,74,53.63,74s-2.87-1.38-4.42-1.38-2.45,1-3.19,3.09c0,0-2.08,5.86-2.35,6.71a1.64,1.64,0,0,0-.05.48c0,2.27,9,9.75,21,9.75Z"/><path d="M72.65,89.86a12.28,12.28,0,0,1,.43,2.51c0,3.46-3.89,5.38-9,5.38-11.56,0-21.68-6.77-21.68-11.24a4.37,4.37,0,0,1,.38-1.81l.9-2.24a1.64,1.64,0,0,0-.05.48c0,2.27,9,9.75,21,9.75,3.09,0,7.56-.64,7.56-4.32a3.86,3.86,0,0,0-.07-.84l.55,2.33Z"/><path d="M95.87,109.62a.56.56,0,0,1-.56-.56V70.94a.56.56,0,0,1,.56-.56.55.55,0,0,1,.55.56v38.12a.55.55,0,0,1-.55.56Z"/></svg>