<svg xmlns="http://www.w3.org/2000/svg" viewBox="0 0 262 180">
  <defs>
    <style>
      .a0d47de8-e8ab-4950-9ad0-d79e3f1f627a {
        fill: #e00;
      }

      .b5b76112-32b1-4190-80d8-4a33c0c418e1 {
        fill: #595a5a;
      }

      .ecfb0730-c67f-4d96-b031-6b1134baeb46 {
        fill: #ea2837;
      }

      .a42d1be6-fe0b-458a-9918-8ebf82098a3a {
        fill: #fff;
      }
    </style>
  </defs>
  <g id="ac7832c6-3d2d-45e3-b125-fcd4251085e5" data-name="Section: Red Hat Marketplace logo in use">
    <g id="ad599cd1-d45e-41a1-8b59-e32064ddd241" data-name="Group 35733">
      <g id="b6940658-6ab5-4898-a747-944eaa622be2" data-name="Group 35728">
        <path id="abc39a81-147a-4d9d-9cea-69b1bead2fe9" data-name="Path 20262" d="M121.1,112.47v2.87h2.5a1.45,1.45,0,0,0,.43-2.87,1.55,1.55,0,0,0-.43,0Zm-1.29-1.13h3.9a2.58,2.58,0,0,1,2.85,2.28,2.17,2.17,0,0,1,0,.26,2.41,2.41,0,0,1-1.77,2.35l1.92,3.7H125.3l-1.78-3.52H121.1v3.52h-1.29v-8.59Z"/>
        <path id="f61585ed-f95b-471b-8838-ef8692fe4373" data-name="Path 20263" d="M128.33,116.28H132a1.86,1.86,0,0,0-3.7,0Zm2,3.76a3.22,3.22,0,0,1-3.28-3.15v-.09a3.15,3.15,0,0,1,3.06-3.22h.07a3.09,3.09,0,0,1,3,3.16v.46h-4.93a2.09,2.09,0,0,0,2.11,1.79,2.42,2.42,0,0,0,1.58-.55l.78.77a3.66,3.66,0,0,1-2.41.83Z"/>
        <path id="f4b87a3a-4d3b-42a0-899d-e8be83eb7833" data-name="Path 20264" d="M137.48,119a2.27,2.27,0,0,0,1.73-.75v-2.83a2.29,2.29,0,0,0-1.73-.74,2.16,2.16,0,1,0,0,4.32Zm1.74.38a3,3,0,0,1-1.91.69,3.22,3.22,0,1,1,1.9-5.83v-2.86l1.22-.27v8.86h-1.21v-.59Z"/>
        <path id="eb593484-bc48-4fc3-a321-b49cb448e6ff" data-name="Path 20265" d="M144.59,111.34h1.29V115h4.56v-3.68h1.29v8.59h-1.28v-3.74h-4.57v3.74H144.6v-8.59Z"/>
        <path id="a2128c26-b708-44e9-afe3-ffef9a058937" data-name="Path 20266" d="M155.47,119.13a2.4,2.4,0,0,0,1.66-.59v-1.08a3.32,3.32,0,0,0-1.61-.38c-.9,0-1.44.41-1.44,1s.56,1,1.39,1Zm-2.57-1c0-1.18.95-1.9,2.52-1.9a4.35,4.35,0,0,1,1.71.34v-.66c0-.89-.53-1.33-1.52-1.33a4.54,4.54,0,0,0-1.94.53l-.45-.92a6,6,0,0,1,2.56-.64c1.62,0,2.55.8,2.55,2.24v4.13h-1.2v-.54a3,3,0,0,1-1.94.65c-1.36,0-2.29-.77-2.29-1.9Z"/>
        <path id="a2f78002-c491-4c41-a9dd-1d311f0b4dd3" data-name="Path 20267" d="M160.31,114.71H159v-1h1.33v-1.59l1.21-.3v1.89h1.84v1h-1.84v3.39c0,.64.26.87.92.87a2.3,2.3,0,0,0,.9-.15v1a4.2,4.2,0,0,1-1.16.19c-1.22,0-1.87-.58-1.87-1.66v-3.67Z"/>
        <path id="be439ee8-c18f-41a1-8943-d4c061339e67" data-name="Path 20268" d="M121.36,126.49v6.32h-1.65v-8.59H122l2.35,4.61,2.36-4.61H129v8.59h-1.68V126.5l-3,5.69-3-5.7Z"/>
        <path id="f68c074e-9e25-4419-b7e7-c29d58cf693e" data-name="Path 20269" d="M132.77,131.72a2.45,2.45,0,0,0,1.41-.41v-1a3.65,3.65,0,0,0-1.35-.23c-.77,0-1.23.31-1.23.8s.46.8,1.17.8ZM130,131c0-1.22,1-1.94,2.62-1.94a5.13,5.13,0,0,1,1.56.24v-.45c0-.74-.46-1.12-1.35-1.12a4.93,4.93,0,0,0-2,.53l-.61-1.24a6.64,6.64,0,0,1,2.84-.69c1.73,0,2.72.86,2.72,2.37v4.15h-1.65v-.44a3.05,3.05,0,0,1-1.85.55,2.08,2.08,0,0,1-2.32-1.79c0-.06,0-.12,0-.17Z"/>
        <path id="bbf0cde7-7914-429f-9469-2ef893e4a0a0" data-name="Path 20270" d="M137.11,126.42h1.68v.7a2,2,0,0,1,1.71-.85,1.43,1.43,0,0,1,.7.15v1.47a2,2,0,0,0-.86-.17,1.7,1.7,0,0,0-1.55.95v4.14h-1.68v-6.39Z"/>
        <path id="abd8e2b4-b88a-444e-a64d-62a84e14fae4" data-name="Path 20271" d="M142.1,124.22l1.68-.37v5.27l2.76-2.7h1.9l-3,2.93,3.18,3.46h-2.15l-2.7-2.92v2.92H142.1v-8.59Z"/>
        <path id="b83b4a80-49a8-4ece-9697-021d53409572" data-name="Path 20272" d="M150,129h3.13a1.65,1.65,0,0,0-1.56-1.29A1.6,1.6,0,0,0,150,129Zm1.75,4a3.32,3.32,0,0,1-3.43-3.22v-.09a3.25,3.25,0,0,1,3.21-3.31s.05,0,.07,0a3.21,3.21,0,0,1,3.18,3.27c0,.06,0,.11,0,.16v.44H150a1.85,1.85,0,0,0,1.82,1.34,2,2,0,0,0,1.41-.52l1.1,1a3.83,3.83,0,0,1-2.59.92Z"/>
        <path id="b00b6a2b-db47-47a3-a174-a312e5d562f2" data-name="Path 20273" d="M156.41,127.83h-1.32v-1.41h1.32v-1.63l1.68-.38v2h1.81v1.41h-1.81v2.84c0,.6.23.82.88.82a2.79,2.79,0,0,0,.9-.15v1.38a5.76,5.76,0,0,1-1.3.2c-1.43,0-2.16-.65-2.16-1.9v-3.18Z"/>
        <path id="a2795327-ef0e-420a-aea3-100f6adeaa4d" data-name="Path 20274" d="M162.42,128.37v2.51a2.14,2.14,0,0,0,1.52.59,1.85,1.85,0,0,0,.17-3.7h-.17a2,2,0,0,0-1.52.6Zm-1.68-2h1.65v.52a2.92,2.92,0,0,1,1.82-.61,3.28,3.28,0,0,1-.05,6.56,3.15,3.15,0,0,1-1.74-.5v3h-1.68v-9Z"/>
        <path id="b04ffba5-7b68-4287-9dcc-356f8068c7a1" data-name="Path 20275" d="M170.17,132.81h-1.68v-8.59l1.68-.37v9Z"/>
        <path id="e3ee915f-272a-460e-84da-233004542895" data-name="Path 20276" d="M174,131.72a2.45,2.45,0,0,0,1.41-.41v-1a3.65,3.65,0,0,0-1.35-.23c-.77,0-1.23.31-1.23.8s.46.8,1.17.8Zm-2.77-.76c0-1.22,1-1.94,2.62-1.94a5.18,5.18,0,0,1,1.56.24v-.45c0-.74-.46-1.12-1.35-1.12a4.89,4.89,0,0,0-1.95.53l-.62-1.24a6.72,6.72,0,0,1,2.85-.69c1.73,0,2.72.86,2.72,2.37v4.15h-1.65v-.44a3.08,3.08,0,0,1-1.86.55,2.07,2.07,0,0,1-2.31-1.79c0-.06,0-.12,0-.17Z"/>
        <path id="a9668f4e-e9bf-4d94-8498-ae8c7b9d323c" data-name="Path 20277" d="M182.94,130.75l1,1a3.57,3.57,0,0,1-2.6,1.14,3.32,3.32,0,0,1-.12-6.64h.12a3.61,3.61,0,0,1,2.64,1.14l-1,1.1a2.06,2.06,0,0,0-1.58-.78,1.87,1.87,0,0,0-1.68,2,1.84,1.84,0,0,0,1.72,1.68,2,2,0,0,0,1.52-.71Z"/>
        <path id="e5580884-0c45-42df-b12a-65ed21007b1e" data-name="Path 20278" d="M186,129h3.13a1.65,1.65,0,0,0-1.56-1.29A1.6,1.6,0,0,0,186,129Zm1.75,4a3.32,3.32,0,0,1-3.43-3.22v-.09a3.25,3.25,0,0,1,3.21-3.31s0,0,.07,0a3.21,3.21,0,0,1,3.18,3.27.92.92,0,0,0,0,.16v.44H186a1.85,1.85,0,0,0,1.82,1.34,2,2,0,0,0,1.4-.52l1.11,1a3.85,3.85,0,0,1-2.59.92Z"/>
        <path id="acf22b8b-1fd6-4e35-84a4-c2f23d34a29b" data-name="Path 20279" class="a0d47de8-e8ab-4950-9ad0-d79e3f1f627a" d="M95.72,122.31a7.49,7.49,0,0,1,.27,1.56c0,2.15-2.41,3.34-5.59,3.34-7.17,0-13.45-4.2-13.45-7a2.84,2.84,0,0,1,.23-1.12c-2.58.13-5.92.59-5.92,3.53,0,4.83,11.44,10.78,20.5,10.78,6.94,0,8.69-3.14,8.69-5.62,0-2-1.68-4.16-4.73-5.49Zm-5,1.76c1.92,0,4.7-.4,4.7-2.68a2.38,2.38,0,0,0-.05-.53l-1.14-5c-.27-1.09-.5-1.58-2.42-2.54a22,22,0,0,0-5.68-2c-.89,0-1.16,1.16-2.22,1.16s-1.78-.86-2.74-.86-1.52.63-2,1.92c0,0-1.29,3.63-1.46,4.16a1.53,1.53,0,0,0,0,.3c0,1.41,5.56,6,13,6Z"/>
        <path id="b5647ac7-1601-42a1-a15a-0967f088d5c3" data-name="Path 20280" d="M95.72,122.31a7.49,7.49,0,0,1,.27,1.56c0,2.15-2.42,3.34-5.59,3.34-7.17,0-13.45-4.2-13.45-7a2.88,2.88,0,0,1,.23-1.12l.56-1.39a.77.77,0,0,0,0,.3c0,1.41,5.56,6,13,6,1.92,0,4.7-.4,4.7-2.68a2.29,2.29,0,0,0-.05-.52l.34,1.45Z"/>
        <path id="ffb2124a-e398-4112-8f68-a549af072a9f" data-name="Path 20281" d="M110.13,142.14a.34.34,0,0,1-.34-.34V110.58a.34.34,0,0,1,.34-.35.35.35,0,0,1,.35.34h0V141.8a.35.35,0,0,1-.35.35Z"/>
        <path id="bf1e29f1-de58-4e06-bb14-99a134e4aaeb" data-name="Path 20282" d="M122.35,137.43a2,2,0,1,0,2,2.07v-.05a2,2,0,0,0-1.9-2Zm0,4.79a2.77,2.77,0,1,1,.07,0Z"/>
        <path id="a8000010-6d96-4e10-b42c-fa99b27a491e" data-name="Path 20283" d="M126.69,139.31v1.76a1.43,1.43,0,0,0,1.08.46,1.35,1.35,0,0,0,0-2.69A1.39,1.39,0,0,0,126.69,139.31Zm-.77-1.08h.76v.38a1.81,1.81,0,0,1,1.2-.44,2,2,0,0,1,0,4,2,2,0,0,1-1.18-.38v1.9h-.77v-5.49Z"/>
        <path id="b7b0c9c8-ceae-478e-afae-ccaef5b0846c" data-name="Path 20284" d="M131.16,139.86h2.32a1.17,1.17,0,0,0-2.32,0Zm1.28,2.35a2,2,0,0,1-2-2v-.06a2,2,0,0,1,1.91-2h0a1.93,1.93,0,0,1,1.89,2v.28h-3.08a1.31,1.31,0,0,0,1.32,1.12,1.45,1.45,0,0,0,1-.34l.5.48a2.34,2.34,0,0,1-1.52.52Z"/>
        <path id="aaa03f66-77e3-40a3-8a69-cb54e17e6c93" data-name="Path 20285" d="M135,138.24h.76v.5a1.22,1.22,0,0,1,1.08-.59,1.32,1.32,0,0,1,.39.06v.69a1.42,1.42,0,0,0-.45-.08,1.07,1.07,0,0,0-1,.71v2.61H135v-3.9Z"/>
        <path id="bf744fe4-7c55-4a67-ace6-5c9ad00a845a" data-name="Path 20286" d="M139.22,141.64a1.53,1.53,0,0,0,1-.37v-.67a2,2,0,0,0-1-.24c-.56,0-.91.25-.91.64s.35.64.88.64Zm-1.61-.62c0-.74.6-1.19,1.58-1.19a2.8,2.8,0,0,1,1.07.21v-.41c0-.55-.33-.83-.95-.83a2.89,2.89,0,0,0-1.22.33l-.28-.57a3.57,3.57,0,0,1,1.6-.4c1,0,1.6.5,1.6,1.4v2.58h-.76v-.34a1.83,1.83,0,0,1-1.21.41c-.85,0-1.43-.48-1.43-1.19Z"/>
        <path id="a8aef134-55cd-4a90-9cf8-95f789f833cf" data-name="Path 20287" d="M142.39,138.88h-.82v-.65h.82v-1l.76-.18v1.18h1.15v.64h-1.15V141c0,.4.16.54.58.54a1.35,1.35,0,0,0,.56-.09v.65a2.58,2.58,0,0,1-.73.11c-.76,0-1.17-.36-1.17-1v-2.3Z"/>
        <path id="a0bb493f-448b-4153-b6fd-1f1b2656f7e2" data-name="Path 20288" d="M145.46,139.86h2.32a1.17,1.17,0,0,0-2.32,0Zm1.28,2.35a2,2,0,0,1-2-2,.13.13,0,0,1,0-.06,2,2,0,0,1,1.92-2h0a1.94,1.94,0,0,1,1.89,2v.28h-3.09a1.32,1.32,0,0,0,1.32,1.12,1.49,1.49,0,0,0,1-.34l.49.48a2.29,2.29,0,0,1-1.51.52Z"/>
        <path id="ad0e464f-6772-4d58-a34a-2356ee84c21a" data-name="Path 20289" d="M151.17,141.53a1.4,1.4,0,0,0,1.08-.47v-1.77a1.43,1.43,0,0,0-1.08-.46,1.35,1.35,0,1,0,0,2.7Zm1.09.24a1.9,1.9,0,0,1-1.2.43,2,2,0,0,1,0-4,2,2,0,0,1,1.17.39v-1.79l.77-.17v5.54h-.76v-.37Z"/>
        <path id="a9a9acda-367d-4dc6-9986-81c47fa4f90d" data-name="Path 20290" d="M156.29,139.31v1.76a1.44,1.44,0,0,0,1.09.46,1.35,1.35,0,0,0,0-2.69A1.4,1.4,0,0,0,156.29,139.31Zm1.17,2.89a2,2,0,0,1-1.18-.39v.33h-.76v-5.37l.77-.17v2a1.83,1.83,0,0,1,1.19-.43,2,2,0,0,1,0,4Z"/>
        <path id="f436ed0c-c6c3-4d9e-94c4-0b5be3c0e49f" data-name="Path 20291" d="M161.3,142.15l-1.56-3.92h.85l1.14,3,1.26-3h.83l-1.89,4.37c-.36.84-.77,1.17-1.5,1.17a1.44,1.44,0,0,1-.41-.05v-.67a2.07,2.07,0,0,0,.35,0,.81.81,0,0,0,.77-.58l.16-.35Z"/>
        <path id="a7c1905d-1432-42e4-b73a-accbe5bd7934" data-name="Path 20292" d="M166,136.77h.8v5.37H166Z"/>
        <path id="a352489d-51fa-4156-8ae4-e6ffe54859b6" data-name="Path 20293" d="M171.35,140.57c0-.53-.43-.88-1.1-.88h-1.56v1.76h1.56c.66,0,1.1-.34,1.1-.88Zm-2.66-3.12v1.6h1.47c.61,0,1-.31,1-.8s-.38-.8-1-.8Zm1.52-.68c1,0,1.74.56,1.74,1.42a1.28,1.28,0,0,1-.74,1.16,1.35,1.35,0,0,1,.95,1.26c0,.92-.73,1.53-1.85,1.53h-2.42v-5.37Z"/>
        <path id="f89dbda6-3735-411a-9c29-87d6d6443977" data-name="Path 20294" d="M173.78,137.77v4.37H173v-5.37h1.07l1.69,3.43,1.68-3.43h1.07v5.37h-.76v-4.38l-2,4-2-4Z"/>
      </g>
      <g id="efc5b4e1-b08c-41f0-8e43-ad86aa2fdc85" data-name="Group 35732">
        <path id="b9afa88a-b2e8-4fb3-a744-81642f08a1ec" data-name="Path 20330" class="a0d47de8-e8ab-4950-9ad0-d79e3f1f627a" d="M91.28,62.17h79.43V74.08H91.28Z"/>
        <path id="e4aea1a8-aea5-49f6-b9ec-ac7aed58abd6" data-name="Path 20331" class="b5b76112-32b1-4190-80d8-4a33c0c418e1" d="M91.28,74.91h79.43v11.9H91.28Z"/>
        <path id="b5d2176b-b537-4fb8-a087-74e46d0de180" data-name="Path 20332" d="M120.55,50.41h2.35V46.93h1.79l1.8,3.48h2.62L127,46.59a2.89,2.89,0,0,0,1.8-2.69,3.1,3.1,0,0,0-3.14-3.06h-5.11v9.56Zm4.68-7.55a1.09,1.09,0,0,1,.26,2.16h-2.58V42.86ZM129,46.8a3.79,3.79,0,0,0,3.84,3.75H133a4.36,4.36,0,0,0,3-1.1l-1.47-1.3a1.92,1.92,0,0,1-1.44.55,1.87,1.87,0,0,1-1.78-1.15h5.15V47a3.71,3.71,0,0,0-7.4-.48,1.15,1.15,0,0,0,0,.19v.08m3.72-1.94A1.6,1.6,0,0,1,134.28,46h-3a1.5,1.5,0,0,1,1.5-1.15m10,5.54H145v-10l-2.2.48v2.72a3.72,3.72,0,1,0-2,6.94h.06a3.28,3.28,0,0,0,1.94-.63v.52Zm-3.46-3.61A1.83,1.83,0,0,1,141.15,45h.07a2.24,2.24,0,0,1,1.53.56V48a2.1,2.1,0,0,1-1.53.57,1.83,1.83,0,0,1-1.89-1.77v-.06m9,3.63h2.35V46.67h3.93v3.74h2.35V40.85h-2.34v3.67h-3.93V40.85h-2.35v9.56Zm12,.12a3.34,3.34,0,0,0,2-.56v.44h2.19V45.78c0-1.76-1.19-2.73-3.17-2.73a8.25,8.25,0,0,0-3.38.79l.8,1.63a5.88,5.88,0,0,1,2.18-.58c.91,0,1.38.36,1.38,1.08v.36a6.09,6.09,0,0,0-1.64-.2c-1.86,0-3,.78-3,2.17a2.34,2.34,0,0,0,2.42,2.25h.21m-.68-2.29c0-.48.48-.71,1.2-.71a5.81,5.81,0,0,1,1.31.17v.92a2.89,2.89,0,0,1-1.38.35c-.71,0-1.13-.28-1.13-.73m6.88,0c0,1.54.93,2.29,2.62,2.29a6.64,6.64,0,0,0,1.54-.21V48.5a3.37,3.37,0,0,1-1,.15c-.7,0-.95-.22-.95-.88V45h2V43.19h-2V40.85l-2.21.48v1.86H165V45h1.46v3.19Z"/>
        <path id="e9de1275-818e-40b9-a0d7-a99ffff9e879" data-name="Path 20333" class="ecfb0730-c67f-4d96-b031-6b1134baeb46" d="M112,45.52a6.52,6.52,0,0,1,.23,1.32c0,1.81-2,2.82-4.73,2.82-6.09,0-11.4-3.55-11.4-5.9a2.38,2.38,0,0,1,.2-.95c-2.19.11-5,.5-5,3,0,4.09,9.68,9.13,17.35,9.13,5.88,0,7.36-2.66,7.36-4.76,0-1.65-1.43-3.53-4-4.65M107.77,47c1.62,0,4-.34,4-2.27a1.71,1.71,0,0,0,0-.45l-1-4.2c-.22-.92-.42-1.34-2-2.15a19.09,19.09,0,0,0-4.82-1.71c-.75,0-1,1-1.87,1s-1.51-.73-2.33-.73S98.39,37,98,38.11c0,0-1.1,3.07-1.24,3.52a1.07,1.07,0,0,0,0,.25c0,1.2,4.72,5.13,11,5.13"/>
        <path id="e467b13c-97cc-42e5-a66e-29107aafcf4b" data-name="Path 20334" d="M112,45.52a6.54,6.54,0,0,1,.23,1.31c0,1.82-2,2.83-4.73,2.83-6.08,0-11.39-3.55-11.39-5.9a2.38,2.38,0,0,1,.2-.95l.47-1.18a1.07,1.07,0,0,0,0,.25c0,1.2,4.72,5.13,11,5.13,1.62,0,4-.34,4-2.27a2.28,2.28,0,0,0,0-.45l.29,1.23Z"/>
        <path id="f09c3bb8-9f8f-460b-85a1-298340a1d57f" data-name="Path 20335" class="a0d47de8-e8ab-4950-9ad0-d79e3f1f627a" d="M112,45.52a6.52,6.52,0,0,1,.23,1.32c0,1.81-2,2.82-4.73,2.82-6.09,0-11.4-3.55-11.4-5.9a2.38,2.38,0,0,1,.2-.95c-2.19.11-5,.5-5,3,0,4.09,9.68,9.13,17.35,9.13,5.88,0,7.36-2.66,7.36-4.76,0-1.65-1.43-3.53-4-4.65M107.77,47c1.62,0,4-.34,4-2.27a1.71,1.71,0,0,0,0-.45l-1-4.2c-.22-.92-.42-1.34-2-2.15a19.09,19.09,0,0,0-4.82-1.71c-.75,0-1,1-1.87,1s-1.51-.73-2.33-.73S98.39,37,98,38.11c0,0-1.1,3.07-1.24,3.52a1.07,1.07,0,0,0,0,.25c0,1.2,4.72,5.13,11,5.13"/>
        <path id="b5eb35c2-9dd9-422f-a6d7-bb24d1ee411b" data-name="Path 20336" d="M112,45.52a6.54,6.54,0,0,1,.23,1.31c0,1.82-2,2.83-4.73,2.83-6.08,0-11.39-3.55-11.39-5.9a2.38,2.38,0,0,1,.2-.95l.47-1.18a1.07,1.07,0,0,0,0,.25c0,1.2,4.72,5.13,11,5.13,1.62,0,4-.34,4-2.27a2.28,2.28,0,0,0,0-.45l.29,1.23Z"/>
        <path id="e47187a9-b721-413f-96c2-a884a544e729" data-name="Path 20337" class="a42d1be6-fe0b-458a-9918-8ebf82098a3a" d="M97.85,66.64H96.57v1.29h1.28a.76.76,0,0,0,.51-.18.66.66,0,0,0,0-.93.74.74,0,0,0-.51-.18ZM95.6,70.51v-4.7H98a1.53,1.53,0,0,1,.63.11,1.48,1.48,0,0,1,.5.3,1.43,1.43,0,0,1,.33.47,1.64,1.64,0,0,1,0,1.18,1.5,1.5,0,0,1-.33.46,1.71,1.71,0,0,1-.5.3,1.75,1.75,0,0,1-.64.1H96.57v1.78Z"/>
        <path id="fb44f537-d7a0-4e9c-aba9-b38f05564c80" data-name="Path 20338" class="a42d1be6-fe0b-458a-9918-8ebf82098a3a" d="M100.05,70.51V67H101v.38a1,1,0,0,1,.4-.35,1.24,1.24,0,0,1,.53-.12,1.66,1.66,0,0,1,.22,0l.16,0v.81a.81.81,0,0,0-.22-.07,1.06,1.06,0,0,0-.25,0,.86.86,0,0,0-.49.13.9.9,0,0,0-.36.39V70.5Z"/>
        <path id="ffed1da1-ed2d-4f98-9875-05f12cd75615" data-name="Path 20339" class="a42d1be6-fe0b-458a-9918-8ebf82098a3a" d="M104.16,67.7a.84.84,0,0,0-.54.2,1,1,0,0,0-.32.51H105a1.14,1.14,0,0,0-.32-.51.82.82,0,0,0-.54-.2Zm1.52,2.37a2.09,2.09,0,0,1-1.41.5,1.95,1.95,0,0,1-1.35-.52,1.8,1.8,0,0,1-.54-1.29,1.87,1.87,0,0,1,.14-.71,1.77,1.77,0,0,1,.38-.58,1.7,1.7,0,0,1,.57-.39,2,2,0,0,1,.71-.14,1.65,1.65,0,0,1,.69.15,1.53,1.53,0,0,1,.55.39,1.71,1.71,0,0,1,.36.59,2.17,2.17,0,0,1,.14.75v.24h-2.61a1,1,0,0,0,.36.54,1.1,1.1,0,0,0,.63.2,1.22,1.22,0,0,0,.43-.08.84.84,0,0,0,.35-.21l.6.55Z"/>
        <path id="ffa24829-1975-4359-8718-d72f9f723f97" data-name="Path 20340" class="a42d1be6-fe0b-458a-9918-8ebf82098a3a" d="M106.42,70.51V67h.91v.26a1.51,1.51,0,0,1,.42-.25,1.69,1.69,0,0,1,.5-.08,1.3,1.3,0,0,1,.61.14,1.27,1.27,0,0,1,.45.38,1.38,1.38,0,0,1,.5-.39,1.57,1.57,0,0,1,.65-.13,1.28,1.28,0,0,1,1,.39,1.42,1.42,0,0,1,.38,1v2.18h-.92V68.46a.79.79,0,0,0-.18-.53.62.62,0,0,0-.48-.2.85.85,0,0,0-.38.09.81.81,0,0,0-.29.26s0,.08,0,.12,0,.09,0,.13v2.18h-.92v-2a.76.76,0,0,0-.18-.53.59.59,0,0,0-.48-.2.79.79,0,0,0-.65.31v2.46Z"/>
        <path id="a1745f99-0bc1-4223-86ce-18d657688f35" data-name="Path 20341" class="a42d1be6-fe0b-458a-9918-8ebf82098a3a" d="M113.35,67v3.5h-.92V67Zm-.46-.42a.52.52,0,0,1-.53-.52.53.53,0,0,1,.52-.54.53.53,0,0,1,.53.53.48.48,0,0,1-.15.37A.52.52,0,0,1,112.89,66.59Z"/>
        <path id="ec81ffaf-36ea-49c9-a7de-1234517fdca0" data-name="Path 20342" class="a42d1be6-fe0b-458a-9918-8ebf82098a3a" d="M115.63,67.7a.85.85,0,0,0-.55.2.88.88,0,0,0-.31.51h1.71a1.06,1.06,0,0,0-.32-.51.81.81,0,0,0-.53-.2Zm1.51,2.37a2.09,2.09,0,0,1-1.41.5,2,2,0,0,1-.74-.14,1.86,1.86,0,0,1-.6-.38,1.81,1.81,0,0,1-.55-1.29,1.87,1.87,0,0,1,.14-.71,1.77,1.77,0,0,1,.38-.58,1.7,1.7,0,0,1,.57-.39,2,2,0,0,1,.71-.14,1.62,1.62,0,0,1,.69.15,1.53,1.53,0,0,1,.55.39,1.73,1.73,0,0,1,.37.59,2.15,2.15,0,0,1,.13.75v.24h-2.61a1,1,0,0,0,.36.54,1.1,1.1,0,0,0,.63.2,1.26,1.26,0,0,0,.43-.08.84.84,0,0,0,.35-.21l.6.55Z"/>
        <path id="b997899b-3c96-4265-95b0-4e885b13c34a" data-name="Path 20343" class="a42d1be6-fe0b-458a-9918-8ebf82098a3a" d="M117.88,70.51V67h.92v.38a1,1,0,0,1,.4-.35,1.24,1.24,0,0,1,.53-.12l.23,0,.15,0v.81a.81.81,0,0,0-.22-.07,1,1,0,0,0-.25,0,.86.86,0,0,0-.49.13.88.88,0,0,0-.35.39V70.5Z"/>
        <path id="ace3b508-8861-4407-9ee9-3d230f6f2ce4" data-name="Path 20344" class="a42d1be6-fe0b-458a-9918-8ebf82098a3a" d="M97.83,82.41a.83.83,0,0,0,.54-.17.57.57,0,0,0,0-.82l0-.06a.83.83,0,0,0-.54-.17H96.56v1.22Zm-.1-3.09H96.56v1.11h1.17a.74.74,0,0,0,.5-.15.52.52,0,0,0,.06-.75.17.17,0,0,0-.06-.06.74.74,0,0,0-.5-.15Zm-2.15-.81h2.21a1.75,1.75,0,0,1,1.15.36,1.17,1.17,0,0,1,.45.93,1.1,1.1,0,0,1-.16.56,1.24,1.24,0,0,1-.42.43,1.44,1.44,0,0,1,.54.44,1.07,1.07,0,0,1,.2.62,1.23,1.23,0,0,1-.46,1,1.82,1.82,0,0,1-1.19.37H95.58v-4.7Z"/>
        <path id="aef64d3a-217e-48ef-8249-a2653bd261df" data-name="Path 20345" class="a42d1be6-fe0b-458a-9918-8ebf82098a3a" d="M100.93,79.71v2a.73.73,0,0,0,.2.54.77.77,0,0,0,.52.2.87.87,0,0,0,.42-.1.84.84,0,0,0,.31-.25V79.71h.92v3.5h-.92v-.28a1.7,1.7,0,0,1-.45.26,1.65,1.65,0,0,1-.54.09,1.35,1.35,0,0,1-1.38-1.4V79.71Z"/>
        <path id="b7d8114d-b109-4be4-abda-b7f0a6551e2e" data-name="Path 20346" class="a42d1be6-fe0b-458a-9918-8ebf82098a3a" d="M103.65,82.8l.46-.61a3.19,3.19,0,0,0,.58.3,2.13,2.13,0,0,0,.55.1,1.24,1.24,0,0,0,.5-.1.29.29,0,0,0,.18-.27.23.23,0,0,0-.1-.22.76.76,0,0,0-.33-.11l-.67-.1a1.44,1.44,0,0,1-.79-.34.82.82,0,0,1-.27-.68,1,1,0,0,1,.4-.8,1.67,1.67,0,0,1,1.06-.3,2.65,2.65,0,0,1,.74.11,2.42,2.42,0,0,1,.69.32l-.44.6a2.77,2.77,0,0,0-.55-.26,1.89,1.89,0,0,0-.53-.08.78.78,0,0,0-.4.09.29.29,0,0,0-.15.25.24.24,0,0,0,.11.22.8.8,0,0,0,.37.11l.67.1a1.48,1.48,0,0,1,.79.34.91.91,0,0,1,.28.66.93.93,0,0,1-.12.46,1.14,1.14,0,0,1-.32.37,1.54,1.54,0,0,1-.48.24,2.16,2.16,0,0,1-.62.09,3,3,0,0,1-.89-.13,1.91,1.91,0,0,1-.71-.36Z"/>
        <path id="ae73b2d6-ad42-4af2-9607-a5c6e251ddae" data-name="Path 20347" class="a42d1be6-fe0b-458a-9918-8ebf82098a3a" d="M108.1,79.71v3.5h-.92v-3.5Zm-.46-.41a.55.55,0,0,1-.54-.53.53.53,0,0,1,.53-.53.52.52,0,0,1,.53.52.54.54,0,0,1-.15.38A.52.52,0,0,1,107.64,79.3Z"/>
        <path id="b977e667-625d-41ea-a542-11cad06c74f4" data-name="Path 20348" class="a42d1be6-fe0b-458a-9918-8ebf82098a3a" d="M108.75,83.21v-3.5h.92V80a1.43,1.43,0,0,1,.45-.26,1.37,1.37,0,0,1,.53-.08A1.33,1.33,0,0,1,112,80.93v2.28h-.92v-2a.78.78,0,0,0-.2-.53.71.71,0,0,0-.53-.2,1,1,0,0,0-.42.09.83.83,0,0,0-.3.26v2.43Z"/>
        <path id="e58ab6b0-768f-4822-8f9e-7702dc8ba5b7" data-name="Path 20349" class="a42d1be6-fe0b-458a-9918-8ebf82098a3a" d="M114.29,80.41a.92.92,0,0,0-.55.19,1.07,1.07,0,0,0-.31.52h1.71a1,1,0,0,0-.32-.51.81.81,0,0,0-.53-.2Zm1.52,2.37a2.16,2.16,0,0,1-1.42.5,2.07,2.07,0,0,1-.74-.14,1.8,1.8,0,0,1-1.14-1.68,1.75,1.75,0,0,1,.13-.71,1.77,1.77,0,0,1,1-1,1.7,1.7,0,0,1,.71-.14,1.85,1.85,0,0,1,.69.14,1.94,1.94,0,0,1,.55.4,1.87,1.87,0,0,1,.36.59,2.11,2.11,0,0,1,.13.75v.24h-2.61a1,1,0,0,0,.37.53,1,1,0,0,0,.63.2,1.29,1.29,0,0,0,.43-.07,1.08,1.08,0,0,0,.34-.21l.6.55Z"/>
        <path id="a7b10164-e26e-4bfd-ae73-60798cad1fc5" data-name="Path 20350" class="a42d1be6-fe0b-458a-9918-8ebf82098a3a" d="M116.28,82.8l.45-.61a3.27,3.27,0,0,0,.59.3,2.05,2.05,0,0,0,.55.1,1.16,1.16,0,0,0,.49-.1.3.3,0,0,0,.19-.27.26.26,0,0,0-.1-.22.76.76,0,0,0-.33-.11l-.68-.1a1.41,1.41,0,0,1-.78-.34.86.86,0,0,1-.28-.68,1,1,0,0,1,.4-.8,1.69,1.69,0,0,1,1.07-.3,2.65,2.65,0,0,1,.74.11,2.42,2.42,0,0,1,.69.32l-.44.6a2.77,2.77,0,0,0-.55-.26,1.89,1.89,0,0,0-.53-.08.78.78,0,0,0-.4.09.29.29,0,0,0-.15.25.27.27,0,0,0,.11.22.8.8,0,0,0,.37.11l.67.1a1.44,1.44,0,0,1,.79.34.91.91,0,0,1,.28.66.93.93,0,0,1-.12.46A1.14,1.14,0,0,1,119,83a1.54,1.54,0,0,1-.48.24,2.16,2.16,0,0,1-.62.09,3,3,0,0,1-.89-.13,1.91,1.91,0,0,1-.71-.36Z"/>
        <path id="ee0fe2d8-57b5-43a2-bb5c-b3734b8aea31" data-name="Path 20351" class="a42d1be6-fe0b-458a-9918-8ebf82098a3a" d="M119.52,82.8l.46-.61a3.19,3.19,0,0,0,.58.3,2.13,2.13,0,0,0,.56.1,1.16,1.16,0,0,0,.49-.1.29.29,0,0,0,.18-.27.23.23,0,0,0-.1-.22.76.76,0,0,0-.33-.11l-.67-.1a1.44,1.44,0,0,1-.79-.34.89.89,0,0,1-.27-.68,1,1,0,0,1,.4-.8,1.67,1.67,0,0,1,1.06-.3,2.65,2.65,0,0,1,.74.11,2.61,2.61,0,0,1,.7.32l-.45.6a2.77,2.77,0,0,0-.55-.26,1.89,1.89,0,0,0-.53-.08.78.78,0,0,0-.4.09.29.29,0,0,0-.15.25.27.27,0,0,0,.11.22.8.8,0,0,0,.37.11l.67.1a1.44,1.44,0,0,1,.79.34.87.87,0,0,1,.28.66.93.93,0,0,1-.12.46,1.14,1.14,0,0,1-.32.37,1.44,1.44,0,0,1-.48.24,2.15,2.15,0,0,1-.61.09,3,3,0,0,1-.9-.13,1.91,1.91,0,0,1-.71-.36Z"/>
        <path id="ab7a9b3d-4a0b-4e14-a0c1-1cea755af20c" data-name="Path 20352" class="a42d1be6-fe0b-458a-9918-8ebf82098a3a" d="M126.64,79.35h-1.27v1.28h1.27a.72.72,0,0,0,.51-.17.58.58,0,0,0,.19-.46.59.59,0,0,0-.19-.47A.73.73,0,0,0,126.64,79.35Zm-2.25,3.86v-4.7h2.36a2,2,0,0,1,.64.11,1.74,1.74,0,0,1,.5.31,1.27,1.27,0,0,1,.32.47,1.48,1.48,0,0,1,.12.59,1.43,1.43,0,0,1-.12.58,1.26,1.26,0,0,1-.33.46,1.34,1.34,0,0,1-.5.3,1.67,1.67,0,0,1-.63.11h-1.38v1.77Z"/>
        <path id="a18ee3a3-0bb9-4831-a4dc-81c4c311eae1" data-name="Path 20353" class="a42d1be6-fe0b-458a-9918-8ebf82098a3a" d="M129.4,82.18a.38.38,0,0,0,.18.32.76.76,0,0,0,.46.12,1.52,1.52,0,0,0,.42-.06,1,1,0,0,0,.35-.16v-.53a2,2,0,0,0-.35-.1,2.56,2.56,0,0,0-.39,0,.85.85,0,0,0-.49.12.38.38,0,0,0-.18.32Zm.4,1.1a1.34,1.34,0,0,1-.92-.3,1,1,0,0,1-.35-.77.89.89,0,0,1,.38-.78,1.71,1.71,0,0,1,1.05-.29,3,3,0,0,1,.43,0,2.07,2.07,0,0,1,.43.1V81a.57.57,0,0,0-.19-.46.84.84,0,0,0-.55-.15,1.59,1.59,0,0,0-.48.07,4.19,4.19,0,0,0-.59.22l-.33-.68a3.61,3.61,0,0,1,.8-.28,2.73,2.73,0,0,1,.76-.1,1.69,1.69,0,0,1,1.1.34,1.2,1.2,0,0,1,.39,1v2.27h-.91V83a1.65,1.65,0,0,1-.46.23,2.08,2.08,0,0,1-.55.07Z"/>
        <path id="b4c6d755-88ee-4460-8162-9fe315f5b25c" data-name="Path 20354" class="a42d1be6-fe0b-458a-9918-8ebf82098a3a" d="M132.36,83.21v-3.5h.92v.38a1.1,1.1,0,0,1,.4-.34,1.24,1.24,0,0,1,.53-.12l.23,0a.47.47,0,0,1,.15.06v.81a.57.57,0,0,0-.22-.07,1,1,0,0,0-.25,0,1,1,0,0,0-.49.14.83.83,0,0,0-.35.39v2.26Z"/>
        <path id="f1d42abd-ce82-4ab7-a837-6059c966c837" data-name="Path 20355" class="a42d1be6-fe0b-458a-9918-8ebf82098a3a" d="M135.55,82.23V80.49h-.71v-.78h.71v-.89l.92-.21v1.1h1v.77h-1V82a.51.51,0,0,0,.11.35.62.62,0,0,0,.38.1l.24,0a1.14,1.14,0,0,0,.25-.06v.75l-.36.08-.35,0a1.34,1.34,0,0,1-.89-.27,1,1,0,0,1-.3-.78Z"/>
        <path id="b76c6c9c-1343-4699-a253-0b75408c5b79" data-name="Path 20356" class="a42d1be6-fe0b-458a-9918-8ebf82098a3a" d="M137.86,83.21v-3.5h.92V80a1.43,1.43,0,0,1,.45-.26,1.37,1.37,0,0,1,.53-.08,1.32,1.32,0,0,1,1.38,1.28v2.28h-.92v-2a.69.69,0,0,0-.2-.53.68.68,0,0,0-.52-.2,1,1,0,0,0-.42.09.83.83,0,0,0-.3.26v2.43Z"/>
        <path id="b0f762f7-7896-42d8-b644-bd96139308b2" data-name="Path 20357" class="a42d1be6-fe0b-458a-9918-8ebf82098a3a" d="M143.39,80.41a.89.89,0,0,0-.54.19.94.94,0,0,0-.31.52h1.71a1,1,0,0,0-.32-.51.81.81,0,0,0-.53-.2Zm1.52,2.37a2.18,2.18,0,0,1-2.16.36,1.94,1.94,0,0,1-.6-.39,1.78,1.78,0,0,1-.54-1.29,2,2,0,0,1,.14-.71,1.84,1.84,0,0,1,.38-.57,1.7,1.7,0,0,1,.57-.39,1.76,1.76,0,0,1,.71-.14,1.81,1.81,0,0,1,.69.14,1.75,1.75,0,0,1,.91,1,2.12,2.12,0,0,1,.14.75v.24h-2.61a1,1,0,0,0,.36.53,1,1,0,0,0,.64.2,1.29,1.29,0,0,0,.43-.07,1.2,1.2,0,0,0,.34-.21l.6.55Z"/>
        <path id="e6db5f49-a2d2-47ff-ab87-24034c454b61" data-name="Path 20358" class="a42d1be6-fe0b-458a-9918-8ebf82098a3a" d="M145.65,83.21v-3.5h.91v.38a1.23,1.23,0,0,1,.41-.34,1.24,1.24,0,0,1,.53-.12l.22,0a.44.44,0,0,1,.16.06v.81a.57.57,0,0,0-.22-.07,1.07,1.07,0,0,0-.25,0,1,1,0,0,0-.49.14.85.85,0,0,0-.36.39v2.26Z"/>
      </g>
    </g>
  </g>
</svg>
