<svg xmlns="http://www.w3.org/2000/svg" viewBox="0 0 262 180">
  <defs>
    <style>
      .a9a53759-ed06-4079-9580-17be773517f6 {
        fill: #e00;
      }
    </style>
  </defs>
  <g id="ee7334e2-0c2d-4f61-ae96-eabb72e7d0ec" data-name="Section: Red Hat Marketplace logo in use">
    <g id="b99dd221-441f-4e86-b6d3-d16589137ed9" data-name="Group 35719">
      <path id="fc2e32a1-2582-4de0-8fa4-9b689aa86ae8" data-name="Path 20096" d="M64.79,89.37v4.75h4.15c1.67,0,2.76-1,2.76-2.37s-1.1-2.38-2.76-2.38ZM62.66,87.5h6.46c2.83,0,4.73,1.71,4.73,4.21a4,4,0,0,1-2.92,3.9l3.17,6.11H71.74L68.8,95.89h-4v5.83H62.66V87.5Z"/>
      <path id="b2cdf3c1-00d1-46f9-8911-5149fb6ea4b9" data-name="Path 20097" d="M76.76,95.69h6.13a3.08,3.08,0,0,0-6.13,0Zm3.39,6.21a5.32,5.32,0,0,1-5.42-5.21v-.15a5.2,5.2,0,0,1,5.07-5.32h.11a5.1,5.1,0,0,1,5,5.23v.76H76.74a3.48,3.48,0,0,0,3.5,3,4,4,0,0,0,2.62-.91l1.3,1.28a6.2,6.2,0,0,1-4,1.36Z"/>
      <path id="b9eabffa-aab8-4fbf-a3e4-0aa891245225" data-name="Path 20098" d="M91.91,100.12a3.77,3.77,0,0,0,2.87-1.24v-4.7A3.79,3.79,0,0,0,91.91,93a3.45,3.45,0,0,0-3.51,3.4v.15a3.51,3.51,0,0,0,3.4,3.6Zm2.89.63a4.89,4.89,0,0,1-3.17,1.13,5.22,5.22,0,0,1-5.22-5.22v-.12a5.22,5.22,0,0,1,5.13-5.32h.13a5.32,5.32,0,0,1,3.11,1V87.5l2-.45v14.67h-2v-1Z"/>
      <path id="ba8e827b-4642-4e6b-9ac1-caf85a0d4330" data-name="Path 20099" d="M103.7,87.5h2.13v6.09h7.56V87.5h2.13v14.22h-2.13v-6.2h-7.56v6.2H103.7Z"/>
      <path id="ab7796db-5e17-4fee-91f8-f5c2d0e7eeb2" data-name="Path 20100" d="M121.72,100.4a4,4,0,0,0,2.74-1V97.64A5.28,5.28,0,0,0,121.8,97c-1.49,0-2.4.67-2.4,1.7s.93,1.69,2.31,1.69Zm-4.27-1.65c0-2,1.58-3.14,4.18-3.14a7.44,7.44,0,0,1,2.83.56v-1.1c0-1.46-.88-2.19-2.52-2.19a7.37,7.37,0,0,0-3.21.87L118,92.23a9.78,9.78,0,0,1,4.24-1.06c2.68,0,4.23,1.32,4.23,3.7v6.85h-2v-.89a4.87,4.87,0,0,1-3.21,1.07c-2.26,0-3.8-1.28-3.8-3.15Z"/>
      <path id="ad578f8e-b694-46d0-a76e-9b795f2269e7" data-name="Path 20101" d="M129.72,93.09h-2.19V91.38h2.19V88.74l2-.49v3.13h3.05v1.71h-3.05v5.6c0,1.06.43,1.45,1.52,1.45a4,4,0,0,0,1.49-.25v1.71a7.06,7.06,0,0,1-1.93.3c-2,0-3.09-1-3.09-2.74V93.09Z"/>
      <path id="a959686f-54dd-4f93-9c30-fa0598f3b043" data-name="Path 20102" d="M65.22,112.59v10.46H62.5V108.83h3.78l3.9,7.64,3.9-7.64h3.78v14.22H75.07V112.61L70.14,122l-4.92-9.45Z"/>
      <path id="e8bf136a-f7a0-4919-b5df-fcfcab314d19" data-name="Path 20103" d="M84.11,121.24a4,4,0,0,0,2.34-.67V119a6.11,6.11,0,0,0-2.24-.39c-1.27,0-2,.51-2,1.32s.76,1.32,1.93,1.32ZM79.52,120c0-2,1.63-3.21,4.35-3.21a8.65,8.65,0,0,1,2.58.41v-.75c0-1.22-.75-1.85-2.23-1.85a8.05,8.05,0,0,0-3.23.87l-1-2a11.18,11.18,0,0,1,4.71-1.14c2.87,0,4.51,1.42,4.51,3.92v6.87H86.45v-.73a5,5,0,0,1-3.07.91c-2.27,0-3.86-1.32-3.86-3.25Z"/>
      <path id="a70da0a7-6b82-49b1-8b74-40492143efd0" data-name="Path 20104" d="M91.3,112.47h2.79v1.16a3.35,3.35,0,0,1,2.82-1.4,2.33,2.33,0,0,1,1.16.24v2.44a3.64,3.64,0,0,0-1.42-.29,2.81,2.81,0,0,0-2.56,1.59v6.84H91.3Z"/>
      <path id="f17ff42b-8234-433f-b086-6a2d090585f8" data-name="Path 20105" d="M99.57,108.83l2.79-.61v8.72l4.57-4.47h3.15l-5,4.85,5.26,5.73h-3.56l-4.46-4.83v4.83H99.57V108.83Z"/>
      <path id="a6388320-da41-4ebb-aadb-f139a556ac10" data-name="Path 20106" d="M112.61,116.71h5.18a2.73,2.73,0,0,0-2.58-2.13A2.66,2.66,0,0,0,112.61,116.71Zm2.91,6.54a5.51,5.51,0,0,1-5.69-5.32v-.16a5.39,5.39,0,0,1,5.32-5.48h.13c3,0,5.24,2.44,5.24,5.69v.73h-7.88a3,3,0,0,0,3,2.22,3.32,3.32,0,0,0,2.34-.86l1.83,1.67a6.36,6.36,0,0,1-4.29,1.52Z"/>
      <path id="bb076ec0-2b3b-4f81-b920-feba20c73b07" data-name="Path 20107" d="M123.26,114.8h-2.17v-2.33h2.17v-2.7l2.78-.63v3.33h3v2.34h-3v4.69c0,1,.38,1.36,1.46,1.36a4.33,4.33,0,0,0,1.48-.24v2.27a8.68,8.68,0,0,1-2.15.33c-2.36,0-3.57-1.08-3.57-3.15v-5.26Z"/>
      <path id="bdbb3a4a-dda4-47f7-8892-ed9c3cfd6fef" data-name="Path 20108" d="M133.21,115.7v4.16a3.63,3.63,0,0,0,2.52,1,3,3,0,0,0,3.09-3v-.12a3,3,0,0,0-3-3.07h-.09a3.41,3.41,0,0,0-2.52,1Zm-2.78-3.23h2.74v.87a4.82,4.82,0,0,1,3-1,5.38,5.38,0,0,1,5.38,5.36v.09a5.37,5.37,0,0,1-5.34,5.42h-.12a5.26,5.26,0,0,1-2.89-.83v4.94h-2.78V112.47Z"/>
      <path id="bca8d16c-b872-4bc5-bd88-a0594519ee48" data-name="Path 20109" d="M146.05,123.05h-2.78V108.83l2.78-.61v14.83Z"/>
      <path id="a79079fc-7169-4b21-a12d-05cfacdb085e" data-name="Path 20110" d="M152.31,121.24a3.94,3.94,0,0,0,2.33-.67V119a6.06,6.06,0,0,0-2.23-.39c-1.28,0-2,.51-2,1.32s.75,1.32,1.93,1.32ZM147.72,120c0-2,1.62-3.21,4.35-3.21a8.75,8.75,0,0,1,2.58.41v-.75c0-1.22-.76-1.85-2.24-1.85a8.14,8.14,0,0,0-3.23.87l-1-2a11.11,11.11,0,0,1,4.71-1.14c2.86,0,4.51,1.42,4.51,3.92v6.87h-2.74v-.73a5,5,0,0,1-3.07.91c-2.28,0-3.86-1.32-3.86-3.25Z"/>
      <path id="b6479995-acaf-4509-8992-465253794931" data-name="Path 20111" d="M167.2,119.64l1.67,1.72a5.85,5.85,0,0,1-4.31,1.89,5.44,5.44,0,0,1-5.55-5.33v-.15a5.46,5.46,0,0,1,5.41-5.51h.14a6,6,0,0,1,4.39,1.89L167.24,116a3.43,3.43,0,0,0-2.62-1.28,2.93,2.93,0,0,0-2.85,3,.28.28,0,0,0,0,.09,2.9,2.9,0,0,0,2.77,3h.13a3.3,3.3,0,0,0,2.52-1.17Z"/>
      <path id="bf992dc6-67ee-4dee-9ef1-67dee6714a85" data-name="Path 20112" d="M172.2,116.71h5.18a2.75,2.75,0,0,0-2.58-2.13A2.66,2.66,0,0,0,172.2,116.71Zm2.9,6.54a5.49,5.49,0,0,1-5.68-5.32.92.92,0,0,1,0-.16,5.4,5.4,0,0,1,5.32-5.48h.13c3,0,5.24,2.44,5.24,5.69v.73h-7.88a3,3,0,0,0,3,2.22,3.32,3.32,0,0,0,2.34-.86l1.83,1.67a6.34,6.34,0,0,1-4.29,1.52Z"/>
      <path id="fa4b886a-0c4f-4500-bda7-998dc058671d" data-name="Path 20113" class="a9a53759-ed06-4079-9580-17be773517f6" d="M188.16,65.7a18.19,18.19,0,0,1,.65,3.81c0,5.26-5.91,8.18-13.69,8.18-17.59,0-33-10.29-33-17.1a6.88,6.88,0,0,1,.56-2.76c-6.32.33-14.5,1.46-14.5,8.67,0,11.84,28,26.42,50.24,26.42,17,0,21.31-7.7,21.31-13.77,0-4.78-4.13-10.21-11.58-13.45ZM175.93,70c4.7,0,11.5-1,11.5-6.56a5.08,5.08,0,0,0-.11-1.29L184.52,50c-.65-2.68-1.22-3.89-5.92-6.24-3.64-1.87-11.59-5-13.94-5-2.18,0-2.83,2.84-5.43,2.84s-4.37-2.11-6.72-2.11-3.73,1.54-4.86,4.7c0,0-3.16,8.92-3.57,10.21a2.6,2.6,0,0,0-.08.73C144,58.63,157.64,70,175.93,70Z"/>
      <path id="a20c8e0e-1402-4184-85c0-21dc99b0c4d2" data-name="Path 20114" d="M188.17,65.7a19.59,19.59,0,0,1,.65,3.81c0,5.26-5.92,8.18-13.7,8.18-17.58,0-33-10.29-33-17.1a6.84,6.84,0,0,1,.57-2.75l1.37-3.4a2.52,2.52,0,0,0-.08.73C144,58.63,157.64,70,175.93,70c4.7,0,11.51-1,11.51-6.56a5.64,5.64,0,0,0-.12-1.29l.84,3.56Z"/>
      <path id="e03ca4f5-9587-4aa9-9b45-8e1cac8395de" data-name="Path 20115" d="M66.87,130.7a3.26,3.26,0,0,0-3.27,3.24v.12a3.26,3.26,0,0,0,3.17,3.35h.1a3.27,3.27,0,0,0,3.28-3.25.34.34,0,0,0,0-.1A3.24,3.24,0,0,0,67,130.71Zm0,7.94a4.55,4.55,0,0,1-4.62-4.49v-.09a4.56,4.56,0,0,1,4.53-4.59h.09A4.58,4.58,0,0,1,71.5,134v.08A4.57,4.57,0,0,1,67,138.64Z"/>
      <path id="fca7f28e-4c09-412f-aad9-d1accf6d9283" data-name="Path 20116" d="M74,133.82v2.92a2.45,2.45,0,0,0,1.8.76A2.17,2.17,0,0,0,78,135.37v-.09A2.18,2.18,0,0,0,75.92,133h-.08A2.31,2.31,0,0,0,74,133.82ZM72.77,132H74v.62a2.93,2.93,0,0,1,2-.72,3.25,3.25,0,0,1,3.26,3.25v.07a3.26,3.26,0,0,1-3.19,3.34H76A3.31,3.31,0,0,1,74,138v3.16H72.77V132Z"/>
      <path id="ae8cc16b-b78a-48f4-a093-da5d73aa47c7" data-name="Path 20117" d="M81.46,134.73h3.83A2,2,0,0,0,83.4,133a2,2,0,0,0-1.94,1.73Zm2.12,3.88a3.31,3.31,0,0,1-3.39-3.26v-.09a3.23,3.23,0,0,1,3.16-3.32h.07a3.2,3.2,0,0,1,3.13,3.27v.47h-5.1a2.18,2.18,0,0,0,2.18,1.86,2.51,2.51,0,0,0,1.64-.58l.81.8a3.86,3.86,0,0,1-2.5.86Z"/>
      <path id="edcd42b6-032e-4b1d-8a8e-f7f5d954de06" data-name="Path 20118" d="M87.75,132H89v.82a2,2,0,0,1,1.78-1,1.61,1.61,0,0,1,.65.1v1.14a2.12,2.12,0,0,0-.75-.14A1.76,1.76,0,0,0,89,134.18v4.32H87.76V132Z"/>
      <path id="e2a9e8b2-a502-4a15-9123-7cce6eb3f857" data-name="Path 20119" d="M94.8,137.68a2.48,2.48,0,0,0,1.71-.61V136a3.3,3.3,0,0,0-1.66-.39c-.93,0-1.5.41-1.5,1.06s.58,1.06,1.45,1.06Zm-2.67-1c0-1.22,1-2,2.62-2a4.4,4.4,0,0,1,1.76.36v-.69c0-.91-.54-1.37-1.57-1.37a4.71,4.71,0,0,0-2,.54l-.47-1a6.15,6.15,0,0,1,2.66-.66c1.67,0,2.64.83,2.64,2.31v4.28H96.51v-.56a3,3,0,0,1-2,.68c-1.41,0-2.38-.8-2.38-2Z"/>
      <path id="b1d2c7cf-eb62-4748-9aee-09b2eb5f8811" data-name="Path 20120" d="M100.06,133.1H98.69V132h1.37v-1.65l1.25-.3V132h1.9v1.07h-1.9v3.5c0,.66.27.9,1,.9a2.4,2.4,0,0,0,.92-.15v1.06a3.77,3.77,0,0,1-1.2.19c-1.26,0-1.93-.6-1.93-1.71v-3.8Z"/>
      <path id="ad21c18c-0302-485e-b921-e76224807d2f" data-name="Path 20121" d="M105.14,134.73H109a2,2,0,0,0-1.89-1.73A2,2,0,0,0,105.14,134.73Zm2.12,3.88a3.31,3.31,0,0,1-3.39-3.26.14.14,0,0,1,0-.09,3.23,3.23,0,0,1,3.16-3.32h.07a3.2,3.2,0,0,1,3.13,3.27v.47h-5.1a2.18,2.18,0,0,0,2.18,1.86A2.51,2.51,0,0,0,109,137l.81.8a3.86,3.86,0,0,1-2.5.86Z"/>
      <path id="a33d2e4b-7ade-4521-bcde-a9cf3c75094c" data-name="Path 20122" d="M114.58,137.5a2.34,2.34,0,0,0,1.79-.78v-2.93a2.34,2.34,0,0,0-1.79-.76,2.16,2.16,0,0,0-2.2,2.12v.1a2.19,2.19,0,0,0,2.12,2.25Zm1.8.39a3,3,0,0,1-2,.71,3.26,3.26,0,0,1-3.26-3.26v-.08a3.25,3.25,0,0,1,3.2-3.32h.09a3.31,3.31,0,0,1,1.94.63v-2.95l1.27-.28v9.16h-1.26v-.61Z"/>
      <path id="ef167093-9ae9-4ef3-9a09-6480b97b9ef5" data-name="Path 20123" d="M123.06,133.82v2.92a2.45,2.45,0,0,0,1.8.76,2.17,2.17,0,0,0,2.19-2.13v-.09a2.18,2.18,0,0,0-2.11-2.24h-.08A2.31,2.31,0,0,0,123.06,133.82ZM125,138.6a3.14,3.14,0,0,1-2-.65v.55h-1.26v-8.88l1.27-.28v3.31a3,3,0,0,1,2-.71,3.26,3.26,0,0,1,3.26,3.26v.07a3.26,3.26,0,0,1-3.19,3.33H125Z"/>
      <path id="e2f55b89-3d4e-43e8-9709-15fa4529846c" data-name="Path 20124" d="M131.37,138.53,128.79,132h1.4l1.89,4.94,2.08-4.94h1.37l-3.12,7.24c-.6,1.38-1.28,1.93-2.48,1.93a2.56,2.56,0,0,1-.67-.08V140a2.2,2.2,0,0,0,.57.05,1.35,1.35,0,0,0,1.29-.95l.25-.58Z"/>
      <path id="b97fd7b0-3b80-491b-9885-a29bc24c2aba" data-name="Path 20125" d="M139.12,129.61h1.34v8.89h-1.34Z"/>
      <path id="a6e7a711-6428-4c68-963d-b90deb7c2793" data-name="Path 20126" d="M148,135.91c0-.88-.71-1.46-1.82-1.46h-2.57v2.92h2.57c1.1,0,1.82-.57,1.82-1.46Zm-4.39-5.17v2.64H146c1,0,1.64-.5,1.64-1.32s-.63-1.32-1.64-1.32Zm2.51-1.13c1.74,0,2.88.93,2.88,2.35a2.1,2.1,0,0,1-1.23,1.92,2.24,2.24,0,0,1,1.58,2.1c0,1.52-1.21,2.53-3.06,2.53h-4v-8.89Z"/>
      <path id="e25f08e8-8994-4bb4-b9a1-1ddf9d0e67cd" data-name="Path 20127" d="M152,131.26v7.24h-1.25v-8.89h1.78l2.79,5.68,2.78-5.68h1.78v8.89h-1.26v-7.25l-3.31,6.62-3.32-6.6Z"/>
    </g>
  </g>
</svg>
