<svg xmlns="http://www.w3.org/2000/svg" xmlns:xlink="http://www.w3.org/1999/xlink" viewBox="0 0 360 360">
  <defs>
    <style>
      .bf4c2021-692a-4476-aaa5-34efcd2cb411 {
        fill: none;
      }

      .e56c78e9-1571-48f5-a167-be254bd4dc37 {
        fill: #93d3e6;
      }

      .aa3774f1-b188-4064-8c69-8d76146a69e7 {
        isolation: isolate;
      }

      .bad7fb05-94ce-4a56-a12b-f8e3c88709fa {
        clip-path: url(#b0150808-aeac-4b72-92bb-916ffa218d18);
      }

      .a2eb7bc8-4c8a-433b-b242-accb1b741484 {
        clip-path: url(#b6d97dfb-9aa7-48bc-89c1-08778d1bc044);
      }

      .b0f95cb1-4116-40b4-a2b0-96f33b9979d1 {
        opacity: 0.5;
      }

      .e19b7ed7-d2c2-4d2e-b443-14cac4859976 {
        fill: #dbf0f7;
      }

      .af9a4e7e-563c-40a2-8fca-d559565107be {
        fill: #fff;
      }

      .f739ce85-7a2d-46d1-a800-a1199a45630a {
        fill: #4cb6d6;
      }

      .be411fb5-1a59-4b78-b489-823451b58600 {
        fill: #fab6b6;
      }

      .be988614-0784-438e-8163-51dae1667a94 {
        clip-path: url(#ee26cc31-49c7-4cad-890f-a404098ce62b);
      }

      .e1c2b589-1d44-4a4e-bfea-4cf249910469 {
        clip-path: url(#e907c14c-0abe-4589-849e-a74287803df1);
      }

      .b886a02f-a356-4696-8a6e-6af3ecd65492 {
        clip-path: url(#a0c53ea6-54fb-442f-910e-1540b0e56f0f);
      }

      .b2d7ae42-dfd3-4044-8416-af50b0398bb7 {
        clip-path: url(#a822d523-8871-4920-84f6-73d328321bf4);
      }

      .e612efba-e095-4ad7-9a88-2580d1bcabf2 {
        mix-blend-mode: multiply;
      }

      .b6f2d2bf-4435-4d83-8320-e0c658d9c62a {
        clip-path: url(#fbbbcba9-0035-45e4-9359-f469668e3646);
      }

      .add507cc-e6ea-429e-863c-6d3332cef8f5 {
        fill: #e00;
      }

      .ab2408ed-ff59-4923-988a-d74f25a88cb6 {
        clip-path: url(#b5d3e499-7647-4358-a755-969f11f9f4eb);
      }
    </style>
    <clipPath id="b0150808-aeac-4b72-92bb-916ffa218d18">
      <circle class="bf4c2021-692a-4476-aaa5-34efcd2cb411" cx="176.03" cy="180" r="146.03"/>
    </clipPath>
    <clipPath id="b6d97dfb-9aa7-48bc-89c1-08778d1bc044">
      <rect class="bf4c2021-692a-4476-aaa5-34efcd2cb411" x="-22.54" y="30.29" width="393.92" height="364.21"/>
    </clipPath>
    <clipPath id="ee26cc31-49c7-4cad-890f-a404098ce62b">
      <path class="bf4c2021-692a-4476-aaa5-34efcd2cb411" d="M210.76,55.7a10.32,10.32,0,0,1,3.57.64,14.51,14.51,0,0,1,12.06-7.62,21.86,21.86,0,0,1,40.12-2.88,16.55,16.55,0,1,1,4.79,32.38H211.64c-7.71,0-10.81-5.14-11.14-10.74C200.16,61.59,205.16,55.7,210.76,55.7Z"/>
    </clipPath>
    <clipPath id="e907c14c-0abe-4589-849e-a74287803df1">
      <path class="e56c78e9-1571-48f5-a167-be254bd4dc37" d="M164.79,288.34H107.35c16.49,0,13.2-11.47,14-31,.3-7.62,29.48-7.85,29.52-.21C150.92,277.74,150.06,288.34,164.79,288.34Z"/>
    </clipPath>
    <clipPath id="a0c53ea6-54fb-442f-910e-1540b0e56f0f">
      <path class="bf4c2021-692a-4476-aaa5-34efcd2cb411" d="M55.75,154.86H224.24a0,0,0,0,1,0,0V256.78a5.06,5.06,0,0,1-5.06,5.06H60.81a5.06,5.06,0,0,1-5.06-5.06V154.86A0,0,0,0,1,55.75,154.86Z"/>
    </clipPath>
    <clipPath id="a822d523-8871-4920-84f6-73d328321bf4">
      <path class="e56c78e9-1571-48f5-a167-be254bd4dc37" d="M266.58,294.79H209.13c16.5,0,13.21-11.48,14-31,.29-7.63,29.47-7.85,29.51-.22C252.71,284.19,251.85,294.79,266.58,294.79Z"/>
    </clipPath>
    <clipPath id="fbbbcba9-0035-45e4-9359-f469668e3646">
      <rect class="bf4c2021-692a-4476-aaa5-34efcd2cb411" x="188.3" y="96.41" width="106.97" height="168.49" rx="4.79"/>
    </clipPath>
    <clipPath id="b5d3e499-7647-4358-a755-969f11f9f4eb">
      <path class="bf4c2021-692a-4476-aaa5-34efcd2cb411" d="M106.81,104.66a9.11,9.11,0,0,0-3.22.59c-2.11-4-8.57-24.61-29.27-23.73-7.64.32-14.52,7.68-17.8,14.12a15.16,15.16,0,1,0-4.32,29.77H106c7,0,9.94-6.36,9.94-11.48A9.21,9.21,0,0,0,106.81,104.66Z"/>
    </clipPath>
  </defs>
  <g class="aa3774f1-b188-4064-8c69-8d76146a69e7">
    <g id="ba838c16-b6b8-43ed-8ea5-03c857b17ae4" data-name="Section: Illustration">
      <g>
        <g class="bad7fb05-94ce-4a56-a12b-f8e3c88709fa">
          <g class="a2eb7bc8-4c8a-433b-b242-accb1b741484">
            <g class="b0f95cb1-4116-40b4-a2b0-96f33b9979d1">
              <path class="e19b7ed7-d2c2-4d2e-b443-14cac4859976" d="M320.31,174a143.72,143.72,0,1,0-250,96.77H282.84A143.22,143.22,0,0,0,320.31,174Z"/>
            </g>
            <polygon class="af9a4e7e-563c-40a2-8fca-d559565107be" points="282.84 270.78 70.33 270.78 3.17 270.78 3.17 391.67 393.83 391.67 393.83 270.78 282.84 270.78"/>
            <g>
              <polygon class="f739ce85-7a2d-46d1-a800-a1199a45630a" points="118.14 119.9 118.14 122.95 115.32 125.33 -1 125.31 -1.36 119.94 118.14 119.9"/>
              <rect class="e56c78e9-1571-48f5-a167-be254bd4dc37" x="1.62" y="119.9" width="116.52" height="3.04"/>
            </g>
          </g>
        </g>
        <path class="e56c78e9-1571-48f5-a167-be254bd4dc37" d="M329.67,272.9H243.74a.32.32,0,0,1-.33-.32.33.33,0,0,1,.33-.33h85.93a.33.33,0,0,1,.33.33A.32.32,0,0,1,329.67,272.9Z"/>
        <path class="e56c78e9-1571-48f5-a167-be254bd4dc37" d="M214.06,272.54h-62.7a.32.32,0,0,1-.32-.33.32.32,0,0,1,.32-.32h62.7a.32.32,0,0,1,.33.32A.33.33,0,0,1,214.06,272.54Z"/>
        <path class="e56c78e9-1571-48f5-a167-be254bd4dc37" d="M121,272.9H31.18a.32.32,0,0,1-.33-.32.33.33,0,0,1,.33-.33H121a.32.32,0,0,1,.32.33A.32.32,0,0,1,121,272.9Z"/>
        <g>
          <g>
            <path class="be411fb5-1a59-4b78-b489-823451b58600" d="M266.51,45.84s-8.95,4.64-10.07,11.27c0,0,10.29-14.63,25-8.52C281.42,48.59,273.92,43.2,266.51,45.84Z"/>
            <path class="be411fb5-1a59-4b78-b489-823451b58600" d="M226.39,48.72s-1.31,5-.87,8.39c0,0,4.61-25.34,31.28-20.85C256.8,36.26,236.44,26.49,226.39,48.72Z"/>
            <path class="be411fb5-1a59-4b78-b489-823451b58600" d="M214.33,56.34a28.6,28.6,0,0,0-1.12,7.73s.93-10.32,13.18-15.35C226.39,48.72,217.69,49.48,214.33,56.34Z"/>
            <path class="af9a4e7e-563c-40a2-8fca-d559565107be" d="M210.76,55.7a10.32,10.32,0,0,1,3.57.64,14.51,14.51,0,0,1,12.06-7.62A21.88,21.88,0,0,1,247.07,34a21.58,21.58,0,0,1,19.47,11.49,16.76,16.76,0,0,1,4.79-.7c9.14,0,16.52,7.78,16.52,16.92A16.54,16.54,0,0,1,271.3,78.22H211.64c-7.71,0-10.81-5.14-11.14-10.74C200.16,61.59,205.16,55.7,210.76,55.7Z"/>
          </g>
          <g>
            <path class="e19b7ed7-d2c2-4d2e-b443-14cac4859976" d="M259.83,51.11s-6.56,7.81-6.56,15.84,3.47,11.27,9,11.27H248.61S242.43,64.67,259.83,51.11Z"/>
            <g class="be988614-0784-438e-8163-51dae1667a94">
              <path class="e19b7ed7-d2c2-4d2e-b443-14cac4859976" d="M244.17,32.46c-25,16.26-13.55,46.05,3,45.76H197.13l-1.52-29.95Z"/>
              <path class="e56c78e9-1571-48f5-a167-be254bd4dc37" d="M211.4,54.75l7,3s-2.06-5,7-10.27C225.43,47.48,211.67,52.39,211.4,54.75Z"/>
              <path class="e56c78e9-1571-48f5-a167-be254bd4dc37" d="M206.88,54.48s-6.76,8.61-2.29,16.54c2.52,4.49,6.52,6.48,15.27,7.21h-22l-3.21-16.06Z"/>
            </g>
          </g>
          <path class="e56c78e9-1571-48f5-a167-be254bd4dc37" d="M271.3,78.81H211.64a.59.59,0,0,1,0-1.17H271.3a16,16,0,0,0,16-16,.58.58,0,1,1,1.16,0A17.15,17.15,0,0,1,271.3,78.81Z"/>
        </g>
        <g>
          <polyline class="e56c78e9-1571-48f5-a167-be254bd4dc37" points="219.96 320.77 118.51 320.77 124.52 313.5 180.82 313.5 217.13 320.77"/>
          <g>
            <g>
              <polygon class="af9a4e7e-563c-40a2-8fca-d559565107be" points="220.61 318.13 127.99 318.13 134.45 304.85 214.14 304.85 220.61 318.13"/>
              <rect class="e56c78e9-1571-48f5-a167-be254bd4dc37" x="127.99" y="318.13" width="92.62" height="2.6"/>
              <g>
                <g>
                  <circle class="f739ce85-7a2d-46d1-a800-a1199a45630a" cx="138.21" cy="308.66" r="1.3"/>
                  <circle class="f739ce85-7a2d-46d1-a800-a1199a45630a" cx="136.48" cy="313.45" r="1.3"/>
                </g>
                <g>
                  <circle class="f739ce85-7a2d-46d1-a800-a1199a45630a" cx="144.14" cy="308.66" r="1.3"/>
                  <circle class="f739ce85-7a2d-46d1-a800-a1199a45630a" cx="142.69" cy="313.45" r="1.3"/>
                </g>
                <g>
                  <circle class="f739ce85-7a2d-46d1-a800-a1199a45630a" cx="150.06" cy="308.66" r="1.3"/>
                  <circle class="f739ce85-7a2d-46d1-a800-a1199a45630a" cx="148.91" cy="313.45" r="1.3"/>
                </g>
                <g>
                  <circle class="f739ce85-7a2d-46d1-a800-a1199a45630a" cx="155.98" cy="308.66" r="1.3"/>
                  <circle class="f739ce85-7a2d-46d1-a800-a1199a45630a" cx="155.12" cy="313.45" r="1.3"/>
                </g>
                <g>
                  <circle class="f739ce85-7a2d-46d1-a800-a1199a45630a" cx="161.91" cy="308.66" r="1.3"/>
                  <circle class="f739ce85-7a2d-46d1-a800-a1199a45630a" cx="161.33" cy="313.45" r="1.3"/>
                </g>
                <g>
                  <circle class="f739ce85-7a2d-46d1-a800-a1199a45630a" cx="167.83" cy="308.66" r="1.3"/>
                  <circle class="f739ce85-7a2d-46d1-a800-a1199a45630a" cx="167.54" cy="313.45" r="1.3"/>
                </g>
                <g>
                  <circle class="f739ce85-7a2d-46d1-a800-a1199a45630a" cx="173.75" cy="308.66" r="1.3"/>
                  <circle class="f739ce85-7a2d-46d1-a800-a1199a45630a" cx="173.75" cy="313.45" r="1.3"/>
                </g>
                <g>
                  <circle class="f739ce85-7a2d-46d1-a800-a1199a45630a" cx="179.67" cy="308.66" r="1.3"/>
                  <circle class="f739ce85-7a2d-46d1-a800-a1199a45630a" cx="179.96" cy="313.45" r="1.3"/>
                </g>
                <g>
                  <circle class="f739ce85-7a2d-46d1-a800-a1199a45630a" cx="185.6" cy="308.66" r="1.3"/>
                  <circle class="f739ce85-7a2d-46d1-a800-a1199a45630a" cx="186.17" cy="313.45" r="1.3"/>
                </g>
                <g>
                  <circle class="f739ce85-7a2d-46d1-a800-a1199a45630a" cx="191.52" cy="308.66" r="1.3"/>
                  <circle class="f739ce85-7a2d-46d1-a800-a1199a45630a" cx="192.39" cy="313.45" r="1.3"/>
                </g>
                <g>
                  <circle class="f739ce85-7a2d-46d1-a800-a1199a45630a" cx="197.44" cy="308.66" r="1.3"/>
                  <circle class="f739ce85-7a2d-46d1-a800-a1199a45630a" cx="198.6" cy="313.45" r="1.3"/>
                </g>
                <g>
                  <circle class="f739ce85-7a2d-46d1-a800-a1199a45630a" cx="203.37" cy="308.66" r="1.3"/>
                  <circle class="f739ce85-7a2d-46d1-a800-a1199a45630a" cx="204.81" cy="313.45" r="1.3"/>
                </g>
                <g>
                  <circle class="f739ce85-7a2d-46d1-a800-a1199a45630a" cx="209.29" cy="308.66" r="1.3"/>
                  <circle class="f739ce85-7a2d-46d1-a800-a1199a45630a" cx="211.02" cy="313.45" r="1.3"/>
                </g>
              </g>
            </g>
            <path class="e56c78e9-1571-48f5-a167-be254bd4dc37" d="M128.12,320.52a.32.32,0,0,1-.32-.32v-2a.4.4,0,0,1,0-.15l6.3-12.94a.33.33,0,0,1,.29-.18h79.64a.32.32,0,0,1,.33.32.33.33,0,0,1-.33.33H134.63l-6.18,12.69v1.9A.32.32,0,0,1,128.12,320.52Z"/>
          </g>
        </g>
        <path class="e56c78e9-1571-48f5-a167-be254bd4dc37" d="M261.34,297H204.63a.49.49,0,0,1-.09-1l22-2.47L261.34,297"/>
        <g>
          <path class="e56c78e9-1571-48f5-a167-be254bd4dc37" d="M157.08,290.63H102.3a.36.36,0,0,1-.06-.72l19-3.33,35.84,4.05"/>
          <g>
            <g>
              <path class="e56c78e9-1571-48f5-a167-be254bd4dc37" d="M164.79,288.34H107.35c16.49,0,13.2-11.47,14-31,.3-7.62,29.48-7.85,29.52-.21C150.92,277.74,150.06,288.34,164.79,288.34Z"/>
              <g class="e1c2b589-1d44-4a4e-bfea-4cf249910469">
                <polygon points="193.57 254.42 107.35 279.55 103.25 231.3 193.57 254.42"/>
              </g>
            </g>
            <g>
              <g>
                <path class="af9a4e7e-563c-40a2-8fca-d559565107be" d="M63.18,154.86H216.81a7.43,7.43,0,0,1,7.43,7.43v92.12a7.43,7.43,0,0,1-7.43,7.43H63.18a7.42,7.42,0,0,1-7.42-7.42V162.29A7.43,7.43,0,0,1,63.18,154.86Z"/>
                <path class="e56c78e9-1571-48f5-a167-be254bd4dc37" d="M219.23,262.16H60.76a5.33,5.33,0,0,1-5.33-5.33v-97a5.33,5.33,0,0,1,5.33-5.34H219.23a5.34,5.34,0,0,1,5.34,5.34v97A5.34,5.34,0,0,1,219.23,262.16ZM56.08,159.85v97a4.66,4.66,0,0,0,4.66,4.66H219.25a4.67,4.67,0,0,0,4.67-4.67v-97a4.67,4.67,0,0,0-4.67-4.66H60.74A4.66,4.66,0,0,0,56.08,159.85Z"/>
              </g>
              <g class="b886a02f-a356-4696-8a6e-6af3ecd65492">
                <rect x="25" y="115.96" width="224.35" height="128.69"/>
                <rect class="e19b7ed7-d2c2-4d2e-b443-14cac4859976" x="62.01" y="161.37" width="155.82" height="76.45" rx="4.2"/>
              </g>
            </g>
            <polyline class="f739ce85-7a2d-46d1-a800-a1199a45630a" points="111.03 288.34 164.79 288.34 164.79 290.6 107.35 290.6 107.35 288.34 111.03 288.34"/>
          </g>
        </g>
        <g>
          <g>
            <path class="e56c78e9-1571-48f5-a167-be254bd4dc37" d="M266.58,294.79H209.13c16.5,0,13.21-11.48,14-31,.29-7.63,29.47-7.85,29.51-.22C252.71,284.19,251.85,294.79,266.58,294.79Z"/>
            <g class="b2d7ae42-dfd3-4044-8416-af50b0398bb7">
              <polygon points="295.35 260.86 209.13 286 205.03 237.75 295.35 260.86"/>
            </g>
          </g>
          <g>
            <g class="e612efba-e095-4ad7-9a88-2580d1bcabf2">
              <rect class="e19b7ed7-d2c2-4d2e-b443-14cac4859976" x="181.89" y="154.8" width="69.8" height="107.04" rx="4.2"/>
            </g>
            <g class="b6f2d2bf-4435-4d83-8320-e0c658d9c62a">
              <rect x="188.3" y="65.65" width="145.87" height="224.35"/>
              <rect class="e19b7ed7-d2c2-4d2e-b443-14cac4859976" x="195.65" y="102.74" width="92.43" height="138.89" rx="4.2"/>
              <rect class="af9a4e7e-563c-40a2-8fca-d559565107be" x="185.4" y="253.82" width="118.66" height="28.37"/>
            </g>
            <path class="e56c78e9-1571-48f5-a167-be254bd4dc37" d="M290.26,265.22H193.31a5.34,5.34,0,0,1-5.34-5.33V101.41a5.33,5.33,0,0,1,5.33-5.33h97a5.34,5.34,0,0,1,5.34,5.33V259.89A5.34,5.34,0,0,1,290.26,265.22ZM188.62,100.37V260.93a3.64,3.64,0,0,0,3.65,3.64h99a3.64,3.64,0,0,0,3.64-3.64V100.38a3.64,3.64,0,0,0-3.64-3.65h-99A3.64,3.64,0,0,0,188.62,100.37Z"/>
          </g>
          <polyline class="f739ce85-7a2d-46d1-a800-a1199a45630a" points="212.81 294.79 266.58 294.79 266.58 297.05 209.13 297.05 209.13 294.79 212.81 294.79"/>
        </g>
        <g>
          <g>
            <g class="e612efba-e095-4ad7-9a88-2580d1bcabf2">
              <polygon class="e19b7ed7-d2c2-4d2e-b443-14cac4859976" points="293.47 184.77 227.59 184.77 227.59 97 293.47 97.53 293.47 184.77"/>
            </g>
            <g>
              <rect class="af9a4e7e-563c-40a2-8fca-d559565107be" x="232.75" y="90.33" width="70.76" height="89.67"/>
              <rect class="e19b7ed7-d2c2-4d2e-b443-14cac4859976" x="233.31" y="106.82" width="69.68" height="0.65"/>
              <rect class="e19b7ed7-d2c2-4d2e-b443-14cac4859976" x="233.31" y="121.27" width="69.68" height="0.65"/>
              <rect class="e19b7ed7-d2c2-4d2e-b443-14cac4859976" x="233.31" y="135.73" width="69.68" height="0.65"/>
              <rect class="e19b7ed7-d2c2-4d2e-b443-14cac4859976" x="233.31" y="150.18" width="69.68" height="0.65"/>
              <rect class="e19b7ed7-d2c2-4d2e-b443-14cac4859976" x="233.31" y="164.63" width="69.68" height="0.65"/>
            </g>
          </g>
          <g>
            <circle class="add507cc-e6ea-429e-863c-6d3332cef8f5" cx="247.62" cy="99.29" r="2.85"/>
            <circle class="add507cc-e6ea-429e-863c-6d3332cef8f5" cx="247.62" cy="113.57" r="2.85"/>
            <circle class="add507cc-e6ea-429e-863c-6d3332cef8f5" cx="247.62" cy="127.86" r="2.85"/>
            <circle class="add507cc-e6ea-429e-863c-6d3332cef8f5" cx="247.62" cy="143.22" r="2.85"/>
            <circle class="add507cc-e6ea-429e-863c-6d3332cef8f5" cx="247.62" cy="157.66" r="2.85"/>
            <circle class="add507cc-e6ea-429e-863c-6d3332cef8f5" cx="247.62" cy="172.11" r="2.85"/>
            <path class="e56c78e9-1571-48f5-a167-be254bd4dc37" d="M291.76,99.61H257.48a.33.33,0,1,1,0-.65h34.28a.33.33,0,0,1,0,.65Z"/>
            <path class="e56c78e9-1571-48f5-a167-be254bd4dc37" d="M291.76,113.9H257.48a.33.33,0,0,1-.33-.33.32.32,0,0,1,.33-.32h34.28a.32.32,0,0,1,.32.32A.32.32,0,0,1,291.76,113.9Z"/>
            <path class="e56c78e9-1571-48f5-a167-be254bd4dc37" d="M291.76,128.19H257.48a.33.33,0,0,1,0-.66h34.28a.33.33,0,0,1,0,.66Z"/>
            <path class="e56c78e9-1571-48f5-a167-be254bd4dc37" d="M291.76,143.55H257.48a.33.33,0,0,1-.33-.33.32.32,0,0,1,.33-.32h34.28a.32.32,0,0,1,.32.32A.32.32,0,0,1,291.76,143.55Z"/>
            <path class="e56c78e9-1571-48f5-a167-be254bd4dc37" d="M291.76,158H257.48a.33.33,0,1,1,0-.65h34.28a.33.33,0,0,1,0,.65Z"/>
            <path class="e56c78e9-1571-48f5-a167-be254bd4dc37" d="M291.76,172.43H257.48a.32.32,0,0,1-.33-.32.33.33,0,0,1,.33-.33h34.28a.32.32,0,0,1,.32.33A.32.32,0,0,1,291.76,172.43Z"/>
          </g>
        </g>
        <g>
          <g>
            <g class="e612efba-e095-4ad7-9a88-2580d1bcabf2">
              <rect class="e19b7ed7-d2c2-4d2e-b443-14cac4859976" x="143.11" y="175.82" width="73.57" height="62"/>
            </g>
            <rect class="af9a4e7e-563c-40a2-8fca-d559565107be" x="147.16" y="170.39" width="75.34" height="63.09"/>
            <g>
              <rect class="e56c78e9-1571-48f5-a167-be254bd4dc37" x="151.82" y="179.8" width="12.84" height="12.84"/>
              <rect class="e56c78e9-1571-48f5-a167-be254bd4dc37" x="169.16" y="179.8" width="12.84" height="12.84"/>
              <rect class="e56c78e9-1571-48f5-a167-be254bd4dc37" x="186.5" y="179.8" width="12.84" height="12.84"/>
              <rect class="e56c78e9-1571-48f5-a167-be254bd4dc37" x="203.84" y="179.8" width="12.84" height="12.84"/>
            </g>
            <g>
              <rect class="e56c78e9-1571-48f5-a167-be254bd4dc37" x="151.82" y="197.42" width="12.84" height="12.84"/>
              <rect class="e56c78e9-1571-48f5-a167-be254bd4dc37" x="169.16" y="197.42" width="12.84" height="12.84"/>
              <rect class="e56c78e9-1571-48f5-a167-be254bd4dc37" x="186.5" y="197.42" width="12.84" height="12.84"/>
              <rect class="e56c78e9-1571-48f5-a167-be254bd4dc37" x="203.84" y="197.42" width="12.84" height="12.84"/>
            </g>
            <g>
              <rect class="e56c78e9-1571-48f5-a167-be254bd4dc37" x="151.82" y="215.04" width="12.84" height="12.84"/>
              <rect class="e56c78e9-1571-48f5-a167-be254bd4dc37" x="169.16" y="215.04" width="12.84" height="12.84"/>
              <rect class="e56c78e9-1571-48f5-a167-be254bd4dc37" x="186.5" y="215.04" width="12.84" height="12.84"/>
              <rect class="e56c78e9-1571-48f5-a167-be254bd4dc37" x="203.84" y="215.04" width="12.84" height="12.84"/>
            </g>
            <g>
              <rect class="af9a4e7e-563c-40a2-8fca-d559565107be" x="152.7" y="178.92" width="12.84" height="12.84"/>
              <rect class="af9a4e7e-563c-40a2-8fca-d559565107be" x="170.04" y="178.92" width="12.84" height="12.84"/>
              <rect class="af9a4e7e-563c-40a2-8fca-d559565107be" x="187.38" y="178.92" width="12.84" height="12.84"/>
              <rect class="af9a4e7e-563c-40a2-8fca-d559565107be" x="204.72" y="178.92" width="12.84" height="12.84"/>
            </g>
            <g>
              <rect class="af9a4e7e-563c-40a2-8fca-d559565107be" x="152.7" y="196.54" width="12.84" height="12.84"/>
              <rect class="af9a4e7e-563c-40a2-8fca-d559565107be" x="170.04" y="196.54" width="12.84" height="12.84"/>
              <rect class="af9a4e7e-563c-40a2-8fca-d559565107be" x="187.38" y="196.54" width="12.84" height="12.84"/>
              <rect class="af9a4e7e-563c-40a2-8fca-d559565107be" x="204.72" y="196.54" width="12.84" height="12.84"/>
            </g>
            <g>
              <rect class="af9a4e7e-563c-40a2-8fca-d559565107be" x="152.7" y="214.17" width="12.84" height="12.84"/>
              <rect class="af9a4e7e-563c-40a2-8fca-d559565107be" x="170.04" y="214.17" width="12.84" height="12.84"/>
              <rect class="af9a4e7e-563c-40a2-8fca-d559565107be" x="187.38" y="214.17" width="12.84" height="12.84"/>
              <rect class="af9a4e7e-563c-40a2-8fca-d559565107be" x="204.72" y="214.17" width="12.84" height="12.84"/>
            </g>
          </g>
          <path class="add507cc-e6ea-429e-863c-6d3332cef8f5" d="M217.6,175.11H151.86a.36.36,0,1,1,0-.71H217.6a.36.36,0,1,1,0,.71Z"/>
        </g>
        <path class="af9a4e7e-563c-40a2-8fca-d559565107be" d="M169.2,169.64h0a.65.65,0,0,1-.65-.65l0-35.65a3.44,3.44,0,0,1,3.43-3.43h56.72a.65.65,0,1,1,0,1.3H172a2.13,2.13,0,0,0-2.12,2.13l0,35.65A.66.66,0,0,1,169.2,169.64Z"/>
        <g>
          <path class="af9a4e7e-563c-40a2-8fca-d559565107be" d="M134.69,88.46l-68.08-.27a2.64,2.64,0,0,0-2.07.81c-1.45,1.6-1.09,5.23-.9,7.18.06.54.1,1,.1,1.27a.66.66,0,0,1-1.31,0c0-.24,0-.66-.09-1.14-.22-2.3-.6-6.16,1.23-8.18a3.91,3.91,0,0,1,3-1.25l68.08.27Z"/>
          <path class="af9a4e7e-563c-40a2-8fca-d559565107be" d="M137.56,101.46v86.16a3,3,0,0,1-3.16,2.77H119.54a.65.65,0,0,0-.65.65.66.66,0,0,0,.65.66H134.4a4.29,4.29,0,0,0,4.47-4.08v-86Z"/>
        </g>
        <g>
          <g class="e612efba-e095-4ad7-9a88-2580d1bcabf2">
            <polygon class="e19b7ed7-d2c2-4d2e-b443-14cac4859976" points="114.05 207.88 43.48 207.88 43.48 154.8 114.05 155.12 114.05 207.88"/>
          </g>
          <rect class="af9a4e7e-563c-40a2-8fca-d559565107be" x="30.4" y="146.71" width="87.01" height="56.1"/>
          <g>
            <polygon class="e56c78e9-1571-48f5-a167-be254bd4dc37" points="40 188.57 39.51 188.13 54.6 171.16 66.65 183.21 83.81 166.06 94.22 178.57 106.83 161.47 107.35 161.86 94.25 179.63 83.76 167.03 66.65 184.14 54.63 172.11 40 188.57"/>
            <g>
              <circle class="af9a4e7e-563c-40a2-8fca-d559565107be" cx="40.67" cy="187.66" r="2.81"/>
              <path class="add507cc-e6ea-429e-863c-6d3332cef8f5" d="M40.67,190.8a3.14,3.14,0,1,1,3.14-3.14A3.15,3.15,0,0,1,40.67,190.8Zm0-5.63a2.49,2.49,0,1,0,2.49,2.49A2.48,2.48,0,0,0,40.67,185.17Z"/>
            </g>
            <g>
              <circle class="af9a4e7e-563c-40a2-8fca-d559565107be" cx="54.28" cy="171.96" r="2.81"/>
              <path class="add507cc-e6ea-429e-863c-6d3332cef8f5" d="M54.28,175.1A3.14,3.14,0,1,1,57.42,172,3.15,3.15,0,0,1,54.28,175.1Zm0-5.63A2.49,2.49,0,1,0,56.77,172,2.49,2.49,0,0,0,54.28,169.47Z"/>
            </g>
            <g>
              <circle class="af9a4e7e-563c-40a2-8fca-d559565107be" cx="66.63" cy="184.06" r="2.81"/>
              <path class="add507cc-e6ea-429e-863c-6d3332cef8f5" d="M66.63,187.2a3.14,3.14,0,1,1,3.14-3.14A3.15,3.15,0,0,1,66.63,187.2Zm0-5.62a2.49,2.49,0,1,0,2.49,2.48A2.49,2.49,0,0,0,66.63,181.58Z"/>
            </g>
            <g>
              <circle class="af9a4e7e-563c-40a2-8fca-d559565107be" cx="84.12" cy="167.67" r="2.81"/>
              <path class="add507cc-e6ea-429e-863c-6d3332cef8f5" d="M84.12,170.81a3.14,3.14,0,1,1,3.15-3.14A3.15,3.15,0,0,1,84.12,170.81Zm0-5.63a2.49,2.49,0,1,0,2.49,2.49A2.49,2.49,0,0,0,84.12,165.18Z"/>
            </g>
            <g>
              <circle class="af9a4e7e-563c-40a2-8fca-d559565107be" cx="107.09" cy="161.67" r="2.81"/>
              <path class="add507cc-e6ea-429e-863c-6d3332cef8f5" d="M107.09,164.81a3.14,3.14,0,1,1,3.14-3.14A3.15,3.15,0,0,1,107.09,164.81Zm0-5.63a2.49,2.49,0,1,0,2.49,2.49A2.5,2.5,0,0,0,107.09,159.18Z"/>
            </g>
            <g>
              <circle class="af9a4e7e-563c-40a2-8fca-d559565107be" cx="94.64" cy="179.1" r="2.81"/>
              <path class="add507cc-e6ea-429e-863c-6d3332cef8f5" d="M94.64,182.24a3.14,3.14,0,1,1,3.14-3.14A3.15,3.15,0,0,1,94.64,182.24Zm0-5.63a2.49,2.49,0,1,0,2.49,2.49A2.48,2.48,0,0,0,94.64,176.61Z"/>
            </g>
          </g>
        </g>
        <g>
          <polygon class="af9a4e7e-563c-40a2-8fca-d559565107be" points="156.79 68.92 168.4 62.49 156.79 55.76 145.12 62.5 156.79 68.92"/>
          <polygon class="e56c78e9-1571-48f5-a167-be254bd4dc37" points="157.12 69.5 157.12 83.35 168.72 76.65 168.72 63.07 157.12 69.5"/>
          <polygon class="f739ce85-7a2d-46d1-a800-a1199a45630a" points="156.46 69.5 144.81 63.08 144.8 76.65 156.46 83.35 156.46 69.5"/>
        </g>
        <g>
          <polygon class="af9a4e7e-563c-40a2-8fca-d559565107be" points="117.11 48.74 128.72 42.31 117.11 35.57 105.44 42.31 117.11 48.74"/>
          <polygon class="e56c78e9-1571-48f5-a167-be254bd4dc37" points="117.44 49.31 117.44 63.16 129.04 56.47 129.04 42.88 117.44 49.31"/>
          <polygon class="f739ce85-7a2d-46d1-a800-a1199a45630a" points="116.78 49.31 105.13 42.89 105.12 56.46 116.78 63.16 116.78 49.31"/>
        </g>
        <g>
          <polygon class="af9a4e7e-563c-40a2-8fca-d559565107be" points="140.91 94.64 152.52 88.2 140.91 81.47 129.24 88.21 140.91 94.64"/>
          <polygon class="e56c78e9-1571-48f5-a167-be254bd4dc37" points="141.24 95.21 141.24 109.06 152.84 102.36 152.84 88.78 141.24 95.21"/>
          <polygon class="f739ce85-7a2d-46d1-a800-a1199a45630a" points="140.58 95.21 128.93 88.79 128.92 102.36 140.58 109.06 140.58 95.21"/>
        </g>
        <g>
          <path class="af9a4e7e-563c-40a2-8fca-d559565107be" d="M106.81,104.94a9.1,9.1,0,0,0-3.22.58c-2.11-3.92-2.49-24.15-26.45-24.15C64.61,81.37,59.8,89.69,56.52,96a14.92,14.92,0,1,0-4.32,29.21H106c7,0,9.95-6.11,9.95-11.17A9.14,9.14,0,0,0,106.81,104.94Z"/>
          <g class="ab2408ed-ff59-4923-988a-d74f25a88cb6">
            <path class="e19b7ed7-d2c2-4d2e-b443-14cac4859976" d="M82.55,73.1c-33.65,21-14.92,52.86,6,52.36l-53.5,1.27-1.5-29.5Z"/>
            <path class="e56c78e9-1571-48f5-a167-be254bd4dc37" d="M71.54,77.72c3.1,4.83-10.33,5.17-11.05,20.11l-4-2.19-6.38-10.3S68.48,72.93,71.54,77.72Z"/>
            <path class="e56c78e9-1571-48f5-a167-be254bd4dc37" d="M42.17,92s-6.15,13.91.29,24c2.92,4.58,7.54,7.74,21.53,9.41l-29.78.36-.39-23.48Z"/>
          </g>
          <path class="e19b7ed7-d2c2-4d2e-b443-14cac4859976" d="M105.41,125.35s-12.69-3.2-3.84-18.71c0,0-12.59,6.94-6.66,18.61Z"/>
        </g>
      </g>
    </g>
  </g>
</svg>
