<svg xmlns="http://www.w3.org/2000/svg" viewBox="0 0 262 180">
  <defs>
    <style>
      .a5b4ccf6-acd8-4806-bba0-a380ebc3505c {
        fill: #e00;
      }

      .e9055826-5784-4d92-aa5f-7ad8e788d167 {
        fill: #0499c5;
      }

      .abb79e42-7ced-44aa-bb19-4b59ec32ce64 {
        fill: #fff;
      }
    </style>
  </defs>
  <g id="b5aee9ef-4957-4240-89a2-2111302e7bf0" data-name="Section: Red Hat Marketplace logo in use">
    <g id="a22d996b-a792-497b-b91a-6005d8ba197b" data-name="Group 35738">
      <g id="bd3fd697-d552-4982-b182-7aa88311e347" data-name="Group 35736">
        <g id="a2c15e55-1ed9-46f4-a240-c965d91d1ee8" data-name="Group 35734">
          <path id="a110a128-3a7d-4e80-92f2-ebee3a604166" data-name="Path 20359" d="M84,75v2.93h2.55A1.48,1.48,0,0,0,87,75a1.62,1.62,0,0,0-.44,0Zm-1.31-1.15h4a2.63,2.63,0,0,1,2.9,2.32,2.44,2.44,0,0,1-1.78,2.67l2,3.76H88.3L86.48,79H84v3.59H82.71V73.83Z"/>
          <path id="b9e5a9ea-3c90-40b2-85e5-e60f551ef0c5" data-name="Path 20360" d="M91.38,78.87h3.78a1.9,1.9,0,0,0-3.78,0Zm2.09,3.82a3.27,3.27,0,0,1-3.34-3.21v-.09a3.2,3.2,0,0,1,3.13-3.27h.06a3.15,3.15,0,0,1,3.08,3.22v.47h-5a2.14,2.14,0,0,0,2.14,1.82,2.51,2.51,0,0,0,1.62-.56l.8.79a3.8,3.8,0,0,1-2.46.83Z"/>
          <path id="a5cfd025-ff95-4394-8e97-f7691464fe51" data-name="Path 20361" d="M100.71,81.59a2.28,2.28,0,0,0,1.76-.76V77.94a2.34,2.34,0,0,0-1.76-.75,2.2,2.2,0,0,0,0,4.4Zm1.77.39a2.94,2.94,0,0,1-2,.7,3.28,3.28,0,1,1,1.94-5.94V73.83l1.25-.28v9h-1.24V82Z"/>
          <path id="a21d606a-c640-4e0b-a753-c693b30961be" data-name="Path 20362" d="M108,73.83h1.31v3.75h4.65V73.83h1.32v8.75h-1.32V78.77h-4.65v3.81H108V73.83Z"/>
          <path id="b3863261-846f-401b-9a9c-9c3d35ff7d41" data-name="Path 20363" d="M119.05,81.77a2.49,2.49,0,0,0,1.69-.6v-1.1a3.36,3.36,0,0,0-1.64-.39c-.91,0-1.48.41-1.48,1S118.2,81.77,119.05,81.77Zm-2.63-1c0-1.2,1-1.94,2.58-1.94a4.54,4.54,0,0,1,1.74.35v-.68c0-.9-.54-1.35-1.55-1.35a4.58,4.58,0,0,0-2,.54l-.46-.94a6.07,6.07,0,0,1,2.61-.65c1.65,0,2.6.82,2.6,2.28v4.21h-1.22V82a3,3,0,0,1-2,.66c-1.39,0-2.34-.79-2.34-1.94Z"/>
          <path id="e9c91661-9a05-49b6-9bd8-72d0e2ab8957" data-name="Path 20364" d="M124,77.27h-1.35v-1H124V74.59l1.24-.3v1.93h1.88v1h-1.88v3.45c0,.65.27.89.94.89a2.8,2.8,0,0,0,.91-.15v1.05a3.93,3.93,0,0,1-1.18.18c-1.24,0-1.9-.58-1.9-1.68V77.27Z"/>
          <path id="a7a8621b-19d9-4b62-9fad-c158e578922b" data-name="Path 20365" d="M84.28,89.27v6.44H82.61V87h2.32l2.4,4.7,2.4-4.7h2.33v8.75H90.34V89.28l-3,5.8-3-5.81Z"/>
          <path id="a97e69e8-8bb4-49f4-8b20-c5d614952220" data-name="Path 20366" d="M95.91,94.6a2.47,2.47,0,0,0,1.44-.42v-1A3.62,3.62,0,0,0,96,93c-.79,0-1.25.31-1.25.81s.46.82,1.19.82Zm-2.83-.78c0-1.24,1-2,2.68-2a5.08,5.08,0,0,1,1.59.25v-.47c0-.75-.47-1.14-1.38-1.14A5.31,5.31,0,0,0,94,91l-.62-1.26a6.77,6.77,0,0,1,2.9-.7C98,89.07,99,90,99,91.48v4.23H97.35v-.45a3.11,3.11,0,0,1-1.89.56A2.11,2.11,0,0,1,93.1,94c0-.06,0-.12,0-.18Z"/>
          <path id="ad6f940c-4061-4b5f-8fb1-a456b6fa1feb" data-name="Path 20367" d="M100.33,89.19h1.72v.72a2.09,2.09,0,0,1,1.73-.87,1.61,1.61,0,0,1,.72.15v1.5a2.42,2.42,0,0,0-.88-.17,1.71,1.71,0,0,0-1.57,1v4.22h-1.71V89.19Z"/>
          <path id="b4548995-1d40-4875-b351-718def36017c" data-name="Path 20368" d="M105.42,87l1.71-.38v5.36L110,89.19h1.94l-3,3,3.23,3.53h-2.18l-2.75-3v3h-1.72V87Z"/>
          <path id="f3c4fc28-1576-4c58-abc4-0a05d3aa984d" data-name="Path 20369" d="M113.45,91.81h3.19a1.69,1.69,0,0,0-1.59-1.32A1.64,1.64,0,0,0,113.45,91.81Zm1.79,4a3.39,3.39,0,0,1-3.5-3.28v-.09A3.32,3.32,0,0,1,115,89.08h.08a3.29,3.29,0,0,1,3.23,3.34.81.81,0,0,1,0,.16V93h-4.85a1.88,1.88,0,0,0,1.85,1.36,2,2,0,0,0,1.44-.52l1.13,1a3.89,3.89,0,0,1-2.64.94Z"/>
          <path id="a5caba5c-a380-4756-8c99-b63d45ee8189" data-name="Path 20370" d="M120,90.63h-1.34V89.19H120V87.53l1.71-.39v2h1.85v1.44h-1.85v2.89c0,.61.24.83.9.83a2.35,2.35,0,0,0,.91-.15v1.4a4.91,4.91,0,0,1-1.32.2c-1.45,0-2.2-.66-2.2-1.93Z"/>
          <path id="a2b066e3-a5ac-4791-be67-e170a0817d3c" data-name="Path 20371" d="M126.12,91.18v2.56a2.15,2.15,0,0,0,1.55.6,1.89,1.89,0,1,0,0-3.77h0a2.1,2.1,0,0,0-1.55.61Zm-1.71-2h1.69v.54a3,3,0,0,1,1.85-.62,3.34,3.34,0,1,1,0,6.68,3.21,3.21,0,0,1-1.78-.51v3h-1.71V89.19Z"/>
          <path id="ed45a657-b7e9-4cda-9eee-7ceec116fa40" data-name="Path 20372" d="M134,95.71h-1.71V87l1.71-.38Z"/>
          <path id="ff87c76c-e816-46da-a2d8-eeffaa1af78d" data-name="Path 20373" d="M137.87,94.6a2.45,2.45,0,0,0,1.44-.42v-1a3.57,3.57,0,0,0-1.37-.24c-.79,0-1.25.31-1.25.81s.46.82,1.19.82Zm-2.82-.78c0-1.24,1-2,2.67-2a5,5,0,0,1,1.59.25v-.47c0-.75-.46-1.14-1.37-1.14a5.26,5.26,0,0,0-2,.54l-.63-1.26a6.84,6.84,0,0,1,2.9-.7c1.77,0,2.78.88,2.78,2.41v4.23h-1.69v-.45a3.09,3.09,0,0,1-1.89.56A2.11,2.11,0,0,1,135.06,94c0-.06,0-.12,0-.18Z"/>
          <path id="a2b1474d-b0f0-4cec-a862-64774e9494bd" data-name="Path 20374" d="M147,93.61l1,1.06a3.59,3.59,0,0,1-2.65,1.16,3.38,3.38,0,1,1,0-6.76h0a3.67,3.67,0,0,1,2.7,1.16l-1.05,1.12a2.1,2.1,0,0,0-1.61-.79,1.89,1.89,0,0,0,0,3.77,2,2,0,0,0,1.55-.72Z"/>
          <path id="f13a45a8-6cf7-4c40-b33f-2b97bef83ede" data-name="Path 20375" d="M150.11,91.81h3.19a1.69,1.69,0,0,0-1.59-1.32,1.65,1.65,0,0,0-1.6,1.32Zm1.79,4a3.39,3.39,0,0,1-3.5-3.28v-.09a3.33,3.33,0,0,1,3.28-3.38h.07A3.28,3.28,0,0,1,155,92.42V93h-4.85A1.86,1.86,0,0,0,152,94.39a2,2,0,0,0,1.43-.52l1.13,1a3.86,3.86,0,0,1-2.64.94Z"/>
          <path id="af030c09-78e8-4b78-9e45-c8523b2fda48" data-name="Path 20376" class="a5b4ccf6-acd8-4806-bba0-a380ebc3505c" d="M58.16,85a8.52,8.52,0,0,1,.27,1.59c0,2.19-2.46,3.4-5.7,3.4C45.42,90,39,85.72,39,82.89a2.81,2.81,0,0,1,.24-1.14c-2.63.13-6,.6-6,3.6,0,4.91,11.66,11,20.89,11,7.07,0,8.85-3.2,8.85-5.73,0-2-1.71-4.24-4.81-5.59ZM53.07,86.8c2,0,4.78-.4,4.78-2.73a2.32,2.32,0,0,0,0-.53l-1.17-5.06c-.27-1.11-.5-1.62-2.46-2.59a22.6,22.6,0,0,0-5.79-2.06c-.91,0-1.18,1.18-2.26,1.18s-1.82-.88-2.8-.88-1.55.64-2,2c0,0-1.31,3.7-1.48,4.24a1,1,0,0,0,0,.3c0,1.44,5.67,6.17,13.28,6.17Z"/>
          <path id="fb55afe6-310f-4a5f-8466-7fcaf71a0650" data-name="Path 20377" d="M58.16,85a7.16,7.16,0,0,1,.27,1.58c0,2.19-2.46,3.4-5.69,3.4C45.43,90,39,85.71,39,82.88a2.81,2.81,0,0,1,.24-1.14l.57-1.42a1,1,0,0,0,0,.3c0,1.44,5.67,6.17,13.28,6.17,2,0,4.78-.4,4.78-2.73a2.32,2.32,0,0,0,0-.53L58.16,85Z"/>
          <path id="f81be309-5309-46dc-8d64-b7883e0eb844" data-name="Path 20378" d="M72.84,105.22a.34.34,0,0,1-.35-.35h0V73.05a.35.35,0,0,1,.38-.31.36.36,0,0,1,.32.31v31.82a.35.35,0,0,1-.35.35Z"/>
          <path id="ee058ef0-8fec-494a-9f7b-05c418b4d65c" data-name="Path 20379" d="M85.3,100.42a2.06,2.06,0,1,0,2,2.11v0a2,2,0,0,0-1.93-2.06Zm0,4.88a2.82,2.82,0,1,1,.07,0Z"/>
          <path id="f4a7db6a-ce3f-408c-9f54-f8acac56e905" data-name="Path 20380" d="M89.71,102.33v1.8a1.47,1.47,0,0,0,1.11.47,1.37,1.37,0,0,0,0-2.74,1.42,1.42,0,0,0-1.11.47Zm-.78-1.09h.77v.38a1.81,1.81,0,0,1,1.22-.44,2.05,2.05,0,0,1,0,4.1,2.07,2.07,0,0,1-1.2-.39v1.94h-.78v-5.59Z"/>
          <path id="af421327-809d-4580-962e-96a411b7b4ea" data-name="Path 20381" d="M94.27,102.89h2.36a1.19,1.19,0,0,0-2.36,0Zm1.3,2.4a2,2,0,0,1-2.08-2v-.06a2,2,0,0,1,2-2h0a2,2,0,0,1,1.92,2v.29H94.26a1.34,1.34,0,0,0,1.35,1.14,1.53,1.53,0,0,0,1-.35l.5.49a2.32,2.32,0,0,1-1.54.52Z"/>
          <path id="ed7d78d3-cba1-4a93-b93e-d49ba2c8510d" data-name="Path 20382" d="M98.15,101.24h.78v.51a1.25,1.25,0,0,1,1.09-.6,1.29,1.29,0,0,1,.4.06v.7a1.39,1.39,0,0,0-.46-.08,1.1,1.1,0,0,0-1,.73v2.65h-.78v-4Z"/>
          <path id="f1e6651d-033f-4c7c-bf73-ef177d22017d" data-name="Path 20383" d="M102.49,104.7a1.51,1.51,0,0,0,1.05-.37v-.69a2,2,0,0,0-1-.24c-.57,0-.93.26-.93.66S102,104.7,102.49,104.7Zm-1.64-.63c0-.75.6-1.21,1.6-1.21a2.87,2.87,0,0,1,1.09.22v-.42c0-.57-.34-.85-1-.85a2.8,2.8,0,0,0-1.23.34l-.29-.59a3.81,3.81,0,0,1,1.63-.4c1,0,1.63.51,1.63,1.42v2.63h-.77v-.34a1.85,1.85,0,0,1-1.23.41c-.87,0-1.46-.49-1.46-1.21Z"/>
          <path id="b4456216-bb8f-46ec-97c2-7140d443b345" data-name="Path 20384" d="M105.72,101.89h-.84v-.65h.84v-1l.77-.18v1.2h1.18v.65h-1.18v2.16c0,.4.17.55.59.55a1.39,1.39,0,0,0,.57-.09v.66a2.65,2.65,0,0,1-.74.11c-.77,0-1.19-.36-1.19-1v-2.34Z"/>
          <path id="a752bddf-c091-4fde-b4d3-38fd2aeb23f4" data-name="Path 20385" d="M108.85,102.89h2.36a1.19,1.19,0,0,0-1.3-1.06A1.18,1.18,0,0,0,108.85,102.89Zm1.3,2.4a2.05,2.05,0,0,1-2.09-2v-.06a2,2,0,0,1,2-2h0a2,2,0,0,1,1.93,2s0,0,0,.06v.23h-3.14a1.35,1.35,0,0,0,1.35,1.14,1.53,1.53,0,0,0,1-.35l.5.49a2.31,2.31,0,0,1-1.53.52Z"/>
          <path id="b03dd3bc-ba52-4769-b366-8348571286a4" data-name="Path 20386" d="M114.66,104.6a1.44,1.44,0,0,0,1.1-.48v-1.8a1.43,1.43,0,0,0-1.1-.47,1.38,1.38,0,0,0,0,2.75Zm1.11.24a1.89,1.89,0,0,1-1.22.44,2.05,2.05,0,1,1,0-4.1,2,2,0,0,1,1.2.39V99.75l.78-.18v5.65h-.77v-.38Z"/>
          <path id="a1040a77-a47b-4dc8-9b42-26d44702b1b4" data-name="Path 20387" d="M119.88,102.33v1.8a1.45,1.45,0,0,0,1.11.47,1.37,1.37,0,0,0,0-2.74,1.4,1.4,0,0,0-1.11.47Zm1.2,3a2,2,0,0,1-1.2-.4v.33h-.78V99.74l.78-.17v2a1.92,1.92,0,0,1,1.22-.44,2.05,2.05,0,0,1,0,4.1Z"/>
          <path id="fac3ea6b-84f4-4477-a2e0-8bd211ed6555" data-name="Path 20388" d="M125,105.23l-1.59-4h.86l1.16,3,1.29-3h.84l-1.92,4.45c-.37.85-.79,1.19-1.53,1.19a1.4,1.4,0,0,1-.41,0v-.69a1.39,1.39,0,0,0,.35,0,.82.82,0,0,0,.79-.59Z"/>
          <path id="e5554db2-b55a-4187-86c6-7b1bbbaffdbb" data-name="Path 20389" d="M129.76,99.75h.82v5.46h-.82Z"/>
          <path id="ffeb9f2d-3279-4f37-a63f-2b760329611b" data-name="Path 20390" d="M135.22,103.62c0-.54-.43-.9-1.11-.9h-1.59v1.8h1.59c.68,0,1.11-.35,1.11-.9Zm-2.7-3.18v1.63H134c.62,0,1-.32,1-.82s-.39-.81-1-.81Zm1.55-.7c1.07,0,1.77.57,1.77,1.45a1.28,1.28,0,0,1-.75,1.18,1.36,1.36,0,0,1,1,1.28c0,.94-.74,1.56-1.88,1.56H131.7V99.74Z"/>
          <path id="a1f5d12c-5f14-45cc-acb9-22815d263849" data-name="Path 20391" d="M137.71,100.76v4.46h-.77V99.75H138l1.72,3.49,1.71-3.49h1.1v5.47h-.77v-4.47l-2,4.08-2-4.07Z"/>
        </g>
        <g id="ae5930d0-8b9f-4258-b419-8d1b47a55ef0" data-name="Group 35735">
          <path id="ab810966-9271-4b53-b0e8-9298b2df2685" data-name="Path 20392" d="M168.27,123.22h.49V56.78h-.49Z"/>
        </g>
      </g>
      <circle id="bb6d1391-530a-4231-8636-caa51999db1e" data-name="Ellipse 227" class="e9055826-5784-4d92-aa5f-7ad8e788d167" cx="205.13" cy="90" r="23.64"/>
      <g id="fd665b93-51ac-4938-8251-e2b68bb84c27" data-name="Group 35737">
        <path id="a83e6fdb-6d6b-48b6-907d-04d7cf89fd34" data-name="Path 20393" class="abb79e42-7ced-44aa-bb19-4b59ec32ce64" d="M194,88.36l-1.51,3.16h-2L196,80.45h2.4l1.4,11.07h-2l-.32-3.16Zm3.37-1.48-.31-2.75c0-.59-.12-1.45-.17-2.11h0c-.29.67-.58,1.45-.9,2.1l-1.34,2.76Z"/>
        <path id="bb203fff-0af4-471e-aa89-c6ab6e7ae989" data-name="Path 20394" class="abb79e42-7ced-44aa-bb19-4b59ec32ce64" d="M203.2,80.62a14,14,0,0,1,2.67-.25,4.38,4.38,0,0,1,2.66.66,2.17,2.17,0,0,1,1.06,1.89,2.87,2.87,0,0,1-2.3,2.69v0a2.42,2.42,0,0,1,1.78,2.43,3.14,3.14,0,0,1-1.43,2.6,6.77,6.77,0,0,1-3.91.9,13.83,13.83,0,0,1-2.57-.18Zm.09,9.4a6.84,6.84,0,0,0,1,0c1.43,0,2.75-.58,2.75-2,0-1.18-1-1.62-2.17-1.62H204Zm1-5h.89c1.43,0,2.47-.68,2.47-1.8,0-.92-.72-1.31-1.76-1.31a4.39,4.39,0,0,0-1,.08Z"/>
        <path id="ac821c94-2021-4dbf-85fc-5533d920810f" data-name="Path 20395" class="abb79e42-7ced-44aa-bb19-4b59ec32ce64" d="M218.24,91.19a7.36,7.36,0,0,1-2.9.5,4.36,4.36,0,0,1-4.71-4,3.64,3.64,0,0,1,0-.66,6.54,6.54,0,0,1,6.3-6.77h.41a5,5,0,0,1,2.42.49l-.55,1.56a4.7,4.7,0,0,0-2.09-.4,4.25,4.25,0,0,0-2.82,1,5.08,5.08,0,0,0-1.6,3.85A2.91,2.91,0,0,0,215.24,90a3,3,0,0,0,.6,0,5.48,5.48,0,0,0,2.22-.42Z"/>
        <path id="ef47f63a-822f-45b5-bad4-5cab13ebb007" data-name="Path 20396" class="abb79e42-7ced-44aa-bb19-4b59ec32ce64" d="M194.67,99.45a2.82,2.82,0,0,1-1.18.2,2.14,2.14,0,0,1-2.31-2,1.82,1.82,0,0,1,0-.33A2.28,2.28,0,0,1,193.35,95h.26a2.62,2.62,0,0,1,1.1.2l-.18.66a2.25,2.25,0,0,0-.89-.18,1.51,1.51,0,0,0-1.59,1.42,2.09,2.09,0,0,0,0,.25A1.47,1.47,0,0,0,193.37,99h.26a2.47,2.47,0,0,0,.9-.16Z"/>
        <path id="f9f83e2b-0175-40ef-aed3-67fd39b45d51" data-name="Path 20397" class="abb79e42-7ced-44aa-bb19-4b59ec32ce64" d="M198.34,97.92a1.61,1.61,0,0,1-1.49,1.73h-.19A1.59,1.59,0,0,1,195,98.14a1,1,0,0,1,0-.17,1.61,1.61,0,0,1,1.49-1.73h.2a1.56,1.56,0,0,1,1.62,1.51A.48.48,0,0,1,198.34,97.92Zm-2.46,0c0,.63.31,1.1.81,1.1s.8-.45.8-1.11-.23-1.1-.8-1.1-.81.57-.81,1.11Z"/>
        <path id="a2e17f6f-4db7-4ae3-98ab-1f9e2a578e2f" data-name="Path 20398" class="abb79e42-7ced-44aa-bb19-4b59ec32ce64" d="M199,97.29c0-.38,0-.69,0-1h.7l0,.48h0a1.15,1.15,0,0,1,1-.55.93.93,0,0,1,.9.6h0a1.42,1.42,0,0,1,.4-.41,1.11,1.11,0,0,1,.66-.19c.54,0,1.09.37,1.09,1.42v1.92H203V97.77c0-.54-.19-.86-.59-.86a.62.62,0,0,0-.57.43.9.9,0,0,0,0,.28v2H201V97.69c0-.46-.18-.78-.56-.78a.65.65,0,0,0-.6.47.8.8,0,0,0,0,.27v1.93H199Z"/>
        <path id="ae33d0b1-3b4b-4bc7-92fc-810de45f5821" data-name="Path 20399" class="abb79e42-7ced-44aa-bb19-4b59ec32ce64" d="M204.72,97.4c0-.43,0-.78,0-1.09h.73l0,.5h0a1.28,1.28,0,0,1,1.12-.57A1.49,1.49,0,0,1,208,97.81a.28.28,0,0,0,0,.09,1.55,1.55,0,0,1-1.34,1.74l-.15,0a1.07,1.07,0,0,1-.92-.44h0v1.69h-.83Zm.83.81a.86.86,0,0,0,0,.23.75.75,0,0,0,.73.58c.52,0,.83-.44.83-1.08s-.28-1-.81-1a.77.77,0,0,0-.74.61.76.76,0,0,0,0,.21Z"/>
        <path id="f6c09792-e88e-452b-a3b3-4654a6daed50" data-name="Path 20400" class="abb79e42-7ced-44aa-bb19-4b59ec32ce64" d="M210.49,99.58l-.06-.36h0a1.18,1.18,0,0,1-1,.44,1,1,0,0,1-1-.91v-.06c0-.83.73-1.25,1.94-1.24v-.06c0-.21-.09-.57-.67-.57a1.83,1.83,0,0,0-.88.25l-.16-.54a2.33,2.33,0,0,1,1.19-.29,1.22,1.22,0,0,1,1.35,1.08,1,1,0,0,1,0,.3V98.8a5.12,5.12,0,0,0,.06.78Zm-.11-1.6c-.58,0-1.14.12-1.14.62a.44.44,0,0,0,.4.47h.07a.69.69,0,0,0,.65-.45,1.1,1.1,0,0,0,0-.18Z"/>
        <path id="e2325a77-f6e2-41bd-844a-cb453dc0b3bb" data-name="Path 20401" class="abb79e42-7ced-44aa-bb19-4b59ec32ce64" d="M212.06,97.29c0-.38,0-.69,0-1h.72l0,.5h0a1.19,1.19,0,0,1,1-.57c.57,0,1.17.37,1.17,1.4v1.94h-.83V97.74c0-.47-.17-.83-.62-.83a.7.7,0,0,0-.65.49,1.09,1.09,0,0,0,0,.26v1.93h-.82Z"/>
        <path id="be4cf96c-c8ea-4f3f-b4ff-cb48d74f9731" data-name="Path 20402" class="abb79e42-7ced-44aa-bb19-4b59ec32ce64" d="M216.32,96.31l.59,1.76c.06.2.13.45.18.63h0c0-.18.11-.43.17-.64l.51-1.75h.89l-.82,2.23a5,5,0,0,1-1.14,2.1,1.65,1.65,0,0,1-.87.42l-.18-.7a1.35,1.35,0,0,0,.47-.22,1.52,1.52,0,0,0,.46-.52.44.44,0,0,0,.05-.15.42.42,0,0,0,0-.16l-1.2-3Z"/>
      </g>
    </g>
  </g>
</svg>
