<?xml version="1.0" encoding="UTF-8"?><svg id="uuid-1afd7ae2-7948-459c-a683-2b129832e3e6" xmlns="http://www.w3.org/2000/svg" viewBox="0 0 555 385"><defs><style>.uuid-821f7f68-18ef-4e06-98d9-4078bf7f2670{fill:#f3f3f3;}.uuid-e89e4237-e6dd-43f1-b5ca-5afd59e12c33{fill:#e00;}.uuid-7dc6e9aa-38e4-41b8-856b-14e8ef1a1dbd{fill:#fff;}.uuid-83f8a689-5b9e-4732-a54f-2e8fbc0d1a26{fill:#fafafa;}.uuid-42b88bed-22c4-46fd-80da-32bdfb79bde1{fill:#aaa;}.uuid-29f2df79-0d34-475d-8d0f-98d247d96efd{fill:#d40000;}.uuid-99b5d6ca-6a9c-45fb-8ed3-d8cdc00febd9{fill:#151515;}</style></defs><rect class="uuid-821f7f68-18ef-4e06-98d9-4078bf7f2670" width="555" height="385"/><g id="uuid-8208e033-7a89-4fbb-a2fd-b7c8625d6c03"><rect class="uuid-7dc6e9aa-38e4-41b8-856b-14e8ef1a1dbd" x="79.4376" y="40.6881" width="191.1577" height="92.002" rx="1.7466" ry="1.7466"/><path class="uuid-42b88bed-22c4-46fd-80da-32bdfb79bde1" d="m268.8488,40.9384c.8251,0,1.4964.6713,1.4964,1.4965v88.5085c0,.8251-.6713,1.4963-1.4964,1.4963H81.1841c-.8251,0-1.4965-.6713-1.4965-1.4963V42.4348c0-.8252.6713-1.4965,1.4965-1.4965h187.6647m0-.5H81.1841c-1.1026,0-1.9965.8938-1.9965,1.9965v88.5085c0,1.1025.8939,1.9963,1.9965,1.9963h187.6647c1.1026,0,1.9964-.8938,1.9964-1.9963V42.4348c0-1.1027-.8938-1.9965-1.9964-1.9965h0Z"/></g><g id="uuid-ecd2eaed-42d0-4636-89ae-1533d38c4127"><path class="uuid-83f8a689-5b9e-4732-a54f-2e8fbc0d1a26" d="m286.151,40.6881h187.6641c.9642,0,1.7471.7828,1.7471,1.7471v88.5088c0,.9637-.7824,1.7461-1.7461,1.7461h-187.6641c-.9642,0-1.7471-.7828-1.7471-1.7471V42.4342c0-.9637.7824-1.7461,1.7461-1.7461Z"/><path class="uuid-42b88bed-22c4-46fd-80da-32bdfb79bde1" d="m473.8159,40.9384c.8251,0,1.4964.6713,1.4964,1.4965v88.5085c0,.8251-.6713,1.4963-1.4964,1.4963h-187.6647c-.8251,0-1.4964-.6713-1.4964-1.4963V42.4348c0-.8252.6713-1.4965,1.4964-1.4965h187.6647m0-.5h-187.6647c-1.1026,0-1.9964.8938-1.9964,1.9965v88.5085c0,1.1025.8938,1.9963,1.9964,1.9963h187.6647c1.1026,0,1.9964-.8938,1.9964-1.9963V42.4348c0-1.1027-.8938-1.9965-1.9964-1.9965h0Z"/></g><rect id="uuid-36e9f391-0956-4e1d-a217-b86e22293d6e" class="uuid-29f2df79-0d34-475d-8d0f-98d247d96efd" x="79.1877" y="146.2493" width="191.6575" height="92.5014" rx="1.9964" ry="1.9964"/><rect id="uuid-7c68ebe0-063a-4881-95a1-ba2d38566693" class="uuid-99b5d6ca-6a9c-45fb-8ed3-d8cdc00febd9" x="284.1548" y="146.2493" width="191.6575" height="92.5014" rx="1.9964" ry="1.9964"/><rect id="uuid-0c0f93d4-33f3-4584-8d88-c9495a0d3358" class="uuid-e89e4237-e6dd-43f1-b5ca-5afd59e12c33" x="79.1877" y="252.0602" width="396.6246" height="92.5014" rx="1.9964" ry="1.9964"/><path d="m93.6349,61.0641l.6035-1.7627h-.7085v-1.0918h1.082l.3447-.9961h-.9766v-1.0918h1.3506l.603-1.7627h1.3223l-.6035,1.7627h1.2065l.6035-1.7627h1.3125l-.6035,1.7627h.7183v1.0918h-1.0918l-.3447.9961h.9771v1.0918h-1.3506l-.6035,1.7627h-1.3125l.6035-1.7627h-1.207l-.6035,1.7627h-1.3218Zm2.2988-2.8545h1.207l.3447-.9961h-1.2065l-.3452.9961Z"/><path d="m101.1066,61.0641v-6.7051h4.8179v.9775h-3.6685v1.915h2.5288v.9482h-2.5288v2.8643h-1.1494Z"/><path d="m107.1788,61.0641v-6.7051h4.8179v.9775h-3.6685v1.915h2.5288v.9482h-2.5288v2.8643h-1.1494Z"/><path d="m113.2516,61.0641v-6.7051h4.8179v.9775h-3.6685v1.915h2.5288v.9482h-2.5288v2.8643h-1.1494Z"/><path d="m119.3243,61.0641v-6.7051h4.8179v.9775h-3.6685v1.915h2.5288v.9482h-2.5288v2.8643h-1.1494Z"/><path d="m125.3971,61.0641v-6.7051h4.8179v.9775h-3.6685v1.915h2.5288v.9482h-2.5288v2.8643h-1.1494Z"/><path d="m131.4698,61.0641v-6.7051h4.8179v.9775h-3.6685v1.915h2.5288v.9482h-2.5288v2.8643h-1.1494Z"/><path d="m93.8649,72.5583v-6.7051h3.2568c.4595,0,.8682.0908,1.2261.2734.3574.1816.6367.4336.8379.7559.2012.3232.3018.6914.3018,1.1064,0,.4287-.1133.8066-.3398,1.1357-.2271.3291-.5283.5762-.9053.7422l1.4082,2.6914h-1.8394l-1.2163-2.4619h-1.0825v2.4619h-1.6475Zm1.6475-3.7549h1.4561c.2554,0,.4614-.0732.6177-.2207.1567-.1465.2349-.3379.2349-.5742,0-.2422-.0781-.4355-.2349-.5791-.1562-.1445-.3623-.2158-.6177-.2158h-1.4561v1.5898Z"/><path d="m103.8072,72.6637c-.498,0-.9595-.0879-1.3843-.2637s-.7983-.4209-1.1206-.7373c-.3228-.3164-.5732-.6836-.752-1.1016s-.2681-.8701-.2681-1.3555.0894-.9375.2681-1.3555.4263-.7852.7422-1.1016c.3164-.3164.6865-.5615,1.1113-.7373.4243-.1758.8828-.2637,1.3745-.2637.562,0,1.0933.1133,1.5947.3398.5015.2275.9082.5479,1.2212.9629l-1.1587,1.0059c-.2109-.2812-.457-.4912-.7378-.6318s-.5874-.2109-.9194-.2109c-.2554,0-.4932.0498-.7139.1484-.2202.0986-.4102.2393-.5698.4209-.1597.1826-.2842.3936-.3735.6328s-.1338.5029-.1338.79.0459.5537.1387.7998c.0923.2461.2217.458.3882.6367.1655.1787.3604.3193.584.4219s.4692.1533.7378.1533c.2554,0,.4868-.0479.6943-.1436s.3848-.2285.5317-.3975c.1465-.1699.249-.3623.3062-.5801h-1.6763v-1.3887h3.4482v.4697c0,.5039-.0811.9688-.2441,1.3936-.1626.4248-.394.793-.6943,1.1064-.3003.3125-.6528.5557-1.0586.7275-.4053.1729-.8506.2588-1.3359.2588Z"/><path d="m108.319,72.5583v-6.7051h3.3145c.4341,0,.8188.0781,1.1538.2344.3354.1572.5986.3721.7905.6465.1914.2754.2871.5908.2871.9482,0,.3135-.0894.5957-.2681.8486-.1787.252-.415.4541-.709.6074.3511.1406.6338.3467.8477.6182s.3213.5791.3213.9248c0,.3633-.0977.6875-.2925.9717s-.4614.5059-.7998.666c-.3384.1592-.731.2393-1.1782.2393h-3.4673Zm1.6475-4.0137h1.4751c.23,0,.415-.0635.5557-.1914s.2109-.2939.2109-.498c0-.2109-.0688-.3779-.2061-.5029-.1377-.124-.3242-.1865-.5605-.1865h-1.4751v1.3789Zm0,2.7012h1.6094c.249,0,.4468-.0664.5938-.2012.147-.1338.2202-.3125.2202-.5361s-.0732-.4023-.2202-.5361c-.147-.1348-.3447-.2012-.5938-.2012h-1.6094v1.4746Z"/><path d="m117.1979,72.5583v-.7568l2.7495-2.873c.1592-.1729.2871-.3291.3828-.4697s.1646-.2744.2061-.4023.062-.2646.062-.4121c0-.2803-.1147-.5156-.3447-.7041-.23-.1875-.5234-.2822-.8809-.2822-.3003,0-.5845.0625-.8525.1865-.2686.125-.562.3369-.8813.6377l-.5845-.7188c.3643-.332.7407-.584,1.1304-.7568s.7949-.2588,1.2163-.2588c.4409,0,.8252.0781,1.1543.2344.3291.1572.5874.3721.7759.6475.1885.2744.2827.5938.2827.957,0,.2178-.0288.4219-.0864.6133-.0571.1914-.1548.3877-.292.5889s-.3271.4268-.5698.6758l-2.1362,2.2129,3.209-.0195v.9004h-4.5405Z"/><path d="m124.8605,72.6637c-.9067,0-1.6919-.3037-2.356-.9102l.6318-.7188c.2876.2559.5703.4414.8477.5557.2778.1152.583.1729.915.1729.2871,0,.5376-.0547.752-.1631.2139-.1084.3799-.2637.498-.4648s.1772-.4287.1772-.6846c0-.377-.1343-.6816-.4023-.915-.2681-.2324-.6196-.3496-1.0537-.3496-.2236,0-.4438.0293-.6611.0869-.2168.0576-.4404.1465-.6704.2676l-.728-.2197.1533-3.4678h4.0708v.9004h-3.1797l-.0962,1.9443c.23-.1152.46-.1992.6899-.2539.23-.0537.4692-.0811.7183-.0811.4468,0,.8384.085,1.1733.2539.3354.1689.5938.4072.7759.7139.1821.3057.2729.6602.2729,1.0625,0,.4473-.1055.8418-.3159,1.1836-.2109.3418-.5063.6074-.8862.7998-.3799.1914-.8223.2871-1.3267.2871Z"/><path d="m130.3775,72.6637c-.9067,0-1.6919-.3037-2.356-.9102l.6318-.7188c.2876.2559.5703.4414.8477.5557.2778.1152.583.1729.915.1729.2871,0,.5376-.0547.752-.1631.2139-.1084.3799-.2637.498-.4648s.1772-.4287.1772-.6846c0-.377-.1343-.6816-.4023-.915-.2681-.2324-.6196-.3496-1.0537-.3496-.2236,0-.4438.0293-.6611.0869-.2168.0576-.4404.1465-.6704.2676l-.728-.2197.1533-3.4678h4.0708v.9004h-3.1797l-.0962,1.9443c.23-.1152.46-.1992.6899-.2539.23-.0537.4692-.0811.7183-.0811.4468,0,.8384.085,1.1733.2539.3354.1689.5938.4072.7759.7139.1821.3057.2729.6602.2729,1.0625,0,.4473-.1055.8418-.3159,1.1836-.2109.3418-.5063.6074-.8862.7998-.3799.1914-.8223.2871-1.3267.2871Z"/><path d="m133.462,74.1481l.6323-2.5283h1.1016l-.9292,2.5283h-.8047Z"/><path d="m138.2799,72.5583v-.7568l2.7495-2.873c.1592-.1729.2871-.3291.3828-.4697s.1646-.2744.2061-.4023.062-.2646.062-.4121c0-.2803-.1147-.5156-.3447-.7041-.23-.1875-.5234-.2822-.8809-.2822-.3003,0-.5845.0625-.8525.1865-.2686.125-.562.3369-.8813.6377l-.5845-.7188c.3643-.332.7407-.584,1.1304-.7568s.7949-.2588,1.2163-.2588c.4409,0,.8252.0781,1.1543.2344.3291.1572.5874.3721.7759.6475.1885.2744.2827.5938.2827.957,0,.2178-.0288.4219-.0864.6133-.0571.1914-.1548.3877-.292.5889s-.3271.4268-.5698.6758l-2.1362,2.2129,3.209-.0195v.9004h-4.5405Z"/><path d="m145.9425,72.6637c-.9067,0-1.6919-.3037-2.356-.9102l.6318-.7188c.2876.2559.5703.4414.8477.5557.2778.1152.583.1729.915.1729.2871,0,.5376-.0547.752-.1631.2139-.1084.3799-.2637.498-.4648s.1772-.4287.1772-.6846c0-.377-.1343-.6816-.4023-.915-.2681-.2324-.6196-.3496-1.0537-.3496-.2236,0-.4438.0293-.6611.0869-.2168.0576-.4404.1465-.6704.2676l-.728-.2197.1533-3.4678h4.0708v.9004h-3.1797l-.0962,1.9443c.23-.1152.46-.1992.6899-.2539.23-.0537.4692-.0811.7183-.0811.4468,0,.8384.085,1.1733.2539.3354.1689.5938.4072.7759.7139.1821.3057.2729.6602.2729,1.0625,0,.4473-.1055.8418-.3159,1.1836-.2109.3418-.5063.6074-.8862.7998-.3799.1914-.8223.2871-1.3267.2871Z"/><path d="m151.4601,72.6637c-.9067,0-1.6919-.3037-2.356-.9102l.6318-.7188c.2876.2559.5703.4414.8477.5557.2778.1152.583.1729.915.1729.2871,0,.5376-.0547.752-.1631.2139-.1084.3799-.2637.498-.4648s.1772-.4287.1772-.6846c0-.377-.1343-.6816-.4023-.915-.2681-.2324-.6196-.3496-1.0537-.3496-.2236,0-.4438.0293-.6611.0869-.2168.0576-.4404.1465-.6704.2676l-.728-.2197.1533-3.4678h4.0708v.9004h-3.1797l-.0962,1.9443c.23-.1152.46-.1992.6899-.2539.23-.0537.4692-.0811.7183-.0811.4468,0,.8384.085,1.1733.2539.3354.1689.5938.4072.7759.7139.1821.3057.2729.6602.2729,1.0625,0,.4473-.1055.8418-.3159,1.1836-.2109.3418-.5063.6074-.8862.7998-.3799.1914-.8223.2871-1.3267.2871Z"/><path d="m154.5441,74.1481l.6323-2.5283h1.1016l-.9292,2.5283h-.8047Z"/><path d="m159.3619,72.5583v-.7568l2.7495-2.873c.1592-.1729.2871-.3291.3828-.4697s.1646-.2744.2061-.4023.062-.2646.062-.4121c0-.2803-.1147-.5156-.3447-.7041-.23-.1875-.5234-.2822-.8809-.2822-.3003,0-.5845.0625-.8525.1865-.2686.125-.562.3369-.8813.6377l-.5845-.7188c.3643-.332.7407-.584,1.1304-.7568s.7949-.2588,1.2163-.2588c.4409,0,.8252.0781,1.1543.2344.3291.1572.5874.3721.7759.6475.1885.2744.2827.5938.2827.957,0,.2178-.0288.4219-.0864.6133-.0571.1914-.1548.3877-.292.5889s-.3271.4268-.5698.6758l-2.1362,2.2129,3.209-.0195v.9004h-4.5405Z"/><path d="m167.025,72.6637c-.9067,0-1.6919-.3037-2.356-.9102l.6318-.7188c.2876.2559.5703.4414.8477.5557.2778.1152.583.1729.915.1729.2871,0,.5376-.0547.752-.1631.2139-.1084.3799-.2637.498-.4648s.1772-.4287.1772-.6846c0-.377-.1343-.6816-.4023-.915-.2681-.2324-.6196-.3496-1.0537-.3496-.2236,0-.4438.0293-.6611.0869-.2168.0576-.4404.1465-.6704.2676l-.728-.2197.1533-3.4678h4.0708v.9004h-3.1797l-.0962,1.9443c.23-.1152.46-.1992.6899-.2539.23-.0537.4692-.0811.7183-.0811.4468,0,.8384.085,1.1733.2539.3354.1689.5938.4072.7759.7139.1821.3057.2729.6602.2729,1.0625,0,.4473-.1055.8418-.3159,1.1836-.2109.3418-.5063.6074-.8862.7998-.3799.1914-.8223.2871-1.3267.2871Z"/><path d="m172.5421,72.6637c-.9067,0-1.6919-.3037-2.356-.9102l.6318-.7188c.2876.2559.5703.4414.8477.5557.2778.1152.583.1729.915.1729.2871,0,.5376-.0547.752-.1631.2139-.1084.3799-.2637.498-.4648s.1772-.4287.1772-.6846c0-.377-.1343-.6816-.4023-.915-.2681-.2324-.6196-.3496-1.0537-.3496-.2236,0-.4438.0293-.6611.0869-.2168.0576-.4404.1465-.6704.2676l-.728-.2197.1533-3.4678h4.0708v.9004h-3.1797l-.0962,1.9443c.23-.1152.46-.1992.6899-.2539.23-.0537.4692-.0811.7183-.0811.4468,0,.8384.085,1.1733.2539.3354.1689.5938.4072.7759.7139.1821.3057.2729.6602.2729,1.0625,0,.4473-.1055.8418-.3159,1.1836-.2109.3418-.5063.6074-.8862.7998-.3799.1914-.8223.2871-1.3267.2871Z"/><path d="m94.8995,84.0524l-1.4941-6.7051h1.6953l.814,4.1572,1.1685-4.1572h1.5425l1.1685,4.1572.814-4.1572h1.6382l-1.4941,6.7051h-1.7437l-1.1777-4.3203-1.188,4.3203h-1.7432Z"/><path d="m103.1368,84.0524v-6.8203l1.5518-.2393v2.9219c.1914-.2881.4199-.5059.6846-.6562.2651-.1504.5571-.2256.8765-.2256s.6021.0723.8477.2158c.2461.1436.439.3418.5796.5938.1406.2529.2109.5449.2109.877v3.333h-1.5518v-2.8828c0-.2812-.0752-.5049-.2251-.6709-.1504-.166-.3496-.249-.5986-.249-.166,0-.3179.0332-.4551.1006s-.2603.1709-.3687.3115v3.3906h-1.5518Z"/><path d="m109.8321,78.3532c-.2363,0-.4409-.0859-.6133-.2588-.1724-.1719-.2583-.377-.2583-.6133,0-.2422.0859-.4482.2583-.6172s.377-.2539.6133-.2539c.2427,0,.4482.085.6177.2539.1689.1689.2539.375.2539.6172,0,.2363-.085.4414-.2539.6133-.1694.1729-.375.2588-.6177.2588Zm-.7759,5.6992v-4.9424h1.5518v4.9424h-1.5518Z"/><path d="m114.2384,84.1481c-.5811,0-1.022-.1338-1.3218-.4023-.3003-.2686-.4502-.6641-.4502-1.1875v-2.251h-.958v-1.1973h.958v-1.3701l1.5518-.3154v1.6855h1.3218v1.1973h-1.3218v1.9443c0,.2168.0493.3701.1484.46.0986.0889.2666.1338.5029.1338.0894,0,.1787-.0059.2681-.0186.0894-.0137.2109-.042.3638-.0869v1.2549c-.1401.0449-.3125.082-.5171.1104s-.3862.043-.5459.043Z"/><path d="m118.5387,84.1481c-.4854,0-.9243-.1133-1.3169-.3398s-.7056-.5332-.9385-.9199c-.2334-.3857-.3496-.8184-.3496-1.2979,0-.4854.1084-.9189.3257-1.3027.2168-.3828.5137-.6875.8906-.9141s.8013-.3408,1.2739-.3408c.479,0,.9004.1123,1.2646.3359.3638.2236.6494.5312.8569.9238s.3115.8447.3115,1.3555v.335h-3.4004c.0508.1855.1309.3486.2393.4893s.2427.249.4023.3252c.1597.0771.332.1152.5171.1152.2046,0,.3911-.0352.5605-.1055.1689-.0703.3081-.1729.4165-.3066l1.0249.8525c-.3193.2812-.6416.4834-.9673.6084-.3257.124-.6963.1865-1.1113.1865Zm-1.082-3.0459h1.9634c-.0444-.1787-.1147-.332-.2104-.46-.0962-.1279-.2109-.2266-.3452-.2969-.1338-.0703-.2842-.1055-.4502-.1055-.1597,0-.3047.0342-.4355.1006-.1309.0674-.2397.165-.3257.292-.0864.1279-.1519.2842-.1963.4697Z"/><path class="uuid-7dc6e9aa-38e4-41b8-856b-14e8ef1a1dbd" d="m93.6349,166.9088l.6035-1.7627h-.7085v-1.0918h1.082l.3447-.9961h-.9766v-1.0918h1.3506l.603-1.7627h1.3223l-.6035,1.7627h1.2065l.6035-1.7627h1.3125l-.6035,1.7627h.7183v1.0918h-1.0918l-.3447.9961h.9771v1.0918h-1.3506l-.6035,1.7627h-1.3125l.6035-1.7627h-1.207l-.6035,1.7627h-1.3218Zm2.2988-2.8545h1.207l.3447-.9961h-1.2065l-.3452.9961Z"/><path class="uuid-7dc6e9aa-38e4-41b8-856b-14e8ef1a1dbd" d="m101.1066,166.9088v-6.7051h2.4521c.479,0,.9224.085,1.3315.2539.4082.1689.7642.4072,1.0679.7139.3032.3066.5396.6621.7085,1.0674.1694.4062.2539.8447.2539,1.3174s-.0845.9121-.2539,1.3174c-.1689.4053-.4053.7607-.7085,1.0674-.3037.3066-.6597.5449-1.0679.7139-.4092.1689-.8525.2539-1.3315.2539h-2.4521Zm1.1494-.9961h1.3218c.4087,0,.7744-.1035,1.0967-.3115.3223-.207.5811-.4902.7759-.8477s.292-.7568.292-1.1973-.0972-.8398-.292-1.1973-.4536-.6396-.7759-.8477c-.3223-.207-.688-.3115-1.0967-.3115h-1.3218v4.7129Z"/><path class="uuid-7dc6e9aa-38e4-41b8-856b-14e8ef1a1dbd" d="m111.4029,166.9088v-1.667h-3.6108v-.8428l3.4863-4.1953h1.1304v4.1475h.9004v.8906h-.9004v1.667h-1.0059Zm-2.4712-2.5576h2.4712v-2.998l-2.4712,2.998Z"/><path class="uuid-7dc6e9aa-38e4-41b8-856b-14e8ef1a1dbd" d="m116.8727,167.0045c-.543,0-1.02-.1455-1.4321-.4355-.4116-.291-.7344-.6943-.9673-1.2119-.2334-.5176-.3496-1.1172-.3496-1.8008s.1162-1.2852.3496-1.8057c.2329-.5205.5557-.9258.9673-1.2168.4121-.29.8892-.4355,1.4321-.4355.5425,0,1.02.1455,1.4321.4355.4116.291.7339.6963.9673,1.2168.2329.5205.3496,1.1221.3496,1.8057s-.1167,1.2832-.3496,1.8008c-.2334.5176-.5557.9209-.9673,1.2119-.4121.29-.8896.4355-1.4321.4355Zm0-.9287c.3447,0,.6431-.1045.8955-.3115.2524-.208.4487-.501.5894-.8809.1401-.3799.2104-.8223.2104-1.3271,0-.5176-.0703-.9639-.2104-1.3408-.1406-.377-.3369-.6689-.5894-.877-.2524-.207-.5508-.3105-.8955-.3105s-.645.1035-.9004.3105c-.2554.208-.4536.5-.5938.877-.1406.377-.2109.8232-.2109,1.3408,0,.5049.0703.9473.2109,1.3271.1401.3799.3384.6729.5938.8809.2554.207.5557.3115.9004.3115Z"/><path class="uuid-7dc6e9aa-38e4-41b8-856b-14e8ef1a1dbd" d="m123.3282,167.0045c-.543,0-1.02-.1455-1.4321-.4355-.4116-.291-.7344-.6943-.9673-1.2119-.2334-.5176-.3496-1.1172-.3496-1.8008s.1162-1.2852.3496-1.8057c.2329-.5205.5557-.9258.9673-1.2168.4121-.29.8892-.4355,1.4321-.4355.5425,0,1.02.1455,1.4321.4355.4116.291.7339.6963.9673,1.2168.2329.5205.3496,1.1221.3496,1.8057s-.1167,1.2832-.3496,1.8008c-.2334.5176-.5557.9209-.9673,1.2119-.4121.29-.8896.4355-1.4321.4355Zm0-.9287c.3447,0,.6431-.1045.8955-.3115.2524-.208.4487-.501.5894-.8809.1401-.3799.2104-.8223.2104-1.3271,0-.5176-.0703-.9639-.2104-1.3408-.1406-.377-.3369-.6689-.5894-.877-.2524-.207-.5508-.3105-.8955-.3105s-.645.1035-.9004.3105c-.2554.208-.4536.5-.5938.877-.1406.377-.2109.8232-.2109,1.3408,0,.5049.0703.9473.2109,1.3271.1401.3799.3384.6729.5938.8809.2554.207.5557.3115.9004.3115Z"/><path class="uuid-7dc6e9aa-38e4-41b8-856b-14e8ef1a1dbd" d="m129.7843,167.0045c-.543,0-1.02-.1455-1.4321-.4355-.4116-.291-.7344-.6943-.9673-1.2119-.2334-.5176-.3496-1.1172-.3496-1.8008s.1162-1.2852.3496-1.8057c.2329-.5205.5557-.9258.9673-1.2168.4121-.29.8892-.4355,1.4321-.4355.5425,0,1.02.1455,1.4321.4355.4116.291.7339.6963.9673,1.2168.2329.5205.3496,1.1221.3496,1.8057s-.1167,1.2832-.3496,1.8008c-.2334.5176-.5557.9209-.9673,1.2119-.4121.29-.8896.4355-1.4321.4355Zm0-.9287c.3447,0,.6431-.1045.8955-.3115.2524-.208.4487-.501.5894-.8809.1401-.3799.2104-.8223.2104-1.3271,0-.5176-.0703-.9639-.2104-1.3408-.1406-.377-.3369-.6689-.5894-.877-.2524-.207-.5508-.3105-.8955-.3105s-.645.1035-.9004.3105c-.2554.208-.4536.5-.5938.877-.1406.377-.2109.8232-.2109,1.3408,0,.5049.0703.9473.2109,1.3271.1401.3799.3384.6729.5938.8809.2554.207.5557.3115.9004.3115Z"/><path class="uuid-7dc6e9aa-38e4-41b8-856b-14e8ef1a1dbd" d="m136.2403,167.0045c-.543,0-1.02-.1455-1.4321-.4355-.4116-.291-.7344-.6943-.9673-1.2119-.2334-.5176-.3496-1.1172-.3496-1.8008s.1162-1.2852.3496-1.8057c.2329-.5205.5557-.9258.9673-1.2168.4121-.29.8892-.4355,1.4321-.4355.5425,0,1.02.1455,1.4321.4355.4116.291.7339.6963.9673,1.2168.2329.5205.3496,1.1221.3496,1.8057s-.1167,1.2832-.3496,1.8008c-.2334.5176-.5557.9209-.9673,1.2119-.4121.29-.8896.4355-1.4321.4355Zm0-.9287c.3447,0,.6431-.1045.8955-.3115.2524-.208.4487-.501.5894-.8809.1401-.3799.2104-.8223.2104-1.3271,0-.5176-.0703-.9639-.2104-1.3408-.1406-.377-.3369-.6689-.5894-.877-.2524-.207-.5508-.3105-.8955-.3105s-.645.1035-.9004.3105c-.2554.208-.4536.5-.5938.877-.1406.377-.2109.8232-.2109,1.3408,0,.5049.0703.9473.2109,1.3271.1401.3799.3384.6729.5938.8809.2554.207.5557.3115.9004.3115Z"/><path class="uuid-7dc6e9aa-38e4-41b8-856b-14e8ef1a1dbd" d="m93.8649,178.403v-6.7051h3.2568c.4595,0,.8682.0908,1.2261.2734.3574.1816.6367.4336.8379.7559.2012.3232.3018.6914.3018,1.1064,0,.4287-.1133.8066-.3398,1.1357-.2271.3291-.5283.5762-.9053.7422l1.4082,2.6914h-1.8394l-1.2163-2.4619h-1.0825v2.4619h-1.6475Zm1.6475-3.7549h1.4561c.2554,0,.4614-.0732.6177-.2207.1567-.1465.2349-.3379.2349-.5742,0-.2422-.0781-.4355-.2349-.5791-.1562-.1445-.3623-.2158-.6177-.2158h-1.4561v1.5898Z"/><path class="uuid-7dc6e9aa-38e4-41b8-856b-14e8ef1a1dbd" d="m103.8072,178.5084c-.498,0-.9595-.0879-1.3843-.2637s-.7983-.4209-1.1206-.7373c-.3228-.3164-.5732-.6836-.752-1.1016s-.2681-.8701-.2681-1.3555.0894-.9375.2681-1.3555.4263-.7852.7422-1.1016c.3164-.3164.6865-.5615,1.1113-.7373.4243-.1758.8828-.2637,1.3745-.2637.562,0,1.0933.1133,1.5947.3398.5015.2275.9082.5479,1.2212.9629l-1.1587,1.0059c-.2109-.2812-.457-.4912-.7378-.6318s-.5874-.2109-.9194-.2109c-.2554,0-.4932.0498-.7139.1484-.2202.0986-.4102.2393-.5698.4209-.1597.1826-.2842.3936-.3735.6328s-.1338.5029-.1338.79.0459.5537.1387.7998c.0923.2461.2217.458.3882.6367.1655.1787.3604.3193.584.4219s.4692.1533.7378.1533c.2554,0,.4868-.0479.6943-.1436s.3848-.2285.5317-.3975c.1465-.1699.249-.3623.3062-.5801h-1.6763v-1.3887h3.4482v.4697c0,.5039-.0811.9688-.2441,1.3936-.1626.4248-.394.793-.6943,1.1064-.3003.3125-.6528.5557-1.0586.7275-.4053.1729-.8506.2588-1.3359.2588Z"/><path class="uuid-7dc6e9aa-38e4-41b8-856b-14e8ef1a1dbd" d="m108.319,178.403v-6.7051h3.3145c.4341,0,.8188.0781,1.1538.2344.3354.1572.5986.3721.7905.6465.1914.2754.2871.5908.2871.9482,0,.3135-.0894.5957-.2681.8486-.1787.252-.415.4541-.709.6074.3511.1406.6338.3467.8477.6182s.3213.5791.3213.9248c0,.3633-.0977.6875-.2925.9717s-.4614.5059-.7998.666c-.3384.1592-.731.2393-1.1782.2393h-3.4673Zm1.6475-4.0137h1.4751c.23,0,.415-.0635.5557-.1914s.2109-.2939.2109-.498c0-.2109-.0688-.3779-.2061-.5029-.1377-.124-.3242-.1865-.5605-.1865h-1.4751v1.3789Zm0,2.7012h1.6094c.249,0,.4468-.0664.5938-.2012.147-.1338.2202-.3125.2202-.5361s-.0732-.4023-.2202-.5361c-.147-.1348-.3447-.2012-.5938-.2012h-1.6094v1.4746Z"/><path class="uuid-7dc6e9aa-38e4-41b8-856b-14e8ef1a1dbd" d="m117.1979,178.403v-.7568l2.7495-2.873c.1592-.1729.2871-.3291.3828-.4697s.1646-.2744.2061-.4023.062-.2646.062-.4121c0-.2803-.1147-.5156-.3447-.7041-.23-.1875-.5234-.2822-.8809-.2822-.3003,0-.5845.0625-.8525.1865-.2686.125-.562.3369-.8813.6377l-.5845-.7188c.3643-.332.7407-.584,1.1304-.7568s.7949-.2588,1.2163-.2588c.4409,0,.8252.0781,1.1543.2344.3291.1572.5874.3721.7759.6475.1885.2744.2827.5938.2827.957,0,.2178-.0288.4219-.0864.6133-.0571.1914-.1548.3877-.292.5889s-.3271.4268-.5698.6758l-2.1362,2.2129,3.209-.0195v.9004h-4.5405Z"/><path class="uuid-7dc6e9aa-38e4-41b8-856b-14e8ef1a1dbd" d="m124.8605,178.5084c-.9067,0-1.6919-.3037-2.356-.9102l.6318-.7188c.2876.2559.5703.4414.8477.5557.2778.1152.583.1729.915.1729.2871,0,.5376-.0547.752-.1631.2139-.1084.3799-.2637.498-.4648s.1772-.4287.1772-.6846c0-.377-.1343-.6816-.4023-.915-.2681-.2324-.6196-.3496-1.0537-.3496-.2236,0-.4438.0293-.6611.0869-.2168.0576-.4404.1465-.6704.2676l-.728-.2197.1533-3.4678h4.0708v.9004h-3.1797l-.0962,1.9443c.23-.1152.46-.1992.6899-.2539.23-.0537.4692-.0811.7183-.0811.4468,0,.8384.085,1.1733.2539.3354.1689.5938.4072.7759.7139.1821.3057.2729.6602.2729,1.0625,0,.4473-.1055.8418-.3159,1.1836-.2109.3418-.5063.6074-.8862.7998-.3799.1914-.8223.2871-1.3267.2871Z"/><path class="uuid-7dc6e9aa-38e4-41b8-856b-14e8ef1a1dbd" d="m131.0582,178.4987c-.543,0-1.02-.1455-1.4321-.4355-.4116-.291-.7344-.6943-.9673-1.2119-.2334-.5176-.3496-1.1172-.3496-1.8008s.1162-1.2852.3496-1.8057c.2329-.5205.5557-.9258.9673-1.2168.4121-.29.8892-.4355,1.4321-.4355.5425,0,1.02.1455,1.4321.4355.4116.291.7339.6963.9673,1.2168.2329.5205.3496,1.1221.3496,1.8057s-.1167,1.2832-.3496,1.8008c-.2334.5176-.5557.9209-.9673,1.2119-.4121.29-.8896.4355-1.4321.4355Zm0-.9287c.3447,0,.6431-.1045.8955-.3115.2524-.208.4487-.501.5894-.8809.1401-.3799.2104-.8223.2104-1.3271,0-.5176-.0703-.9639-.2104-1.3408-.1406-.377-.3369-.6689-.5894-.877-.2524-.207-.5508-.3105-.8955-.3105s-.645.1035-.9004.3105c-.2554.208-.4536.5-.5938.877-.1406.377-.2109.8232-.2109,1.3408,0,.5049.0703.9473.2109,1.3271.1401.3799.3384.6729.5938.8809.2554.207.5557.3115.9004.3115Z"/><path class="uuid-7dc6e9aa-38e4-41b8-856b-14e8ef1a1dbd" d="m134.3146,179.9928l.6323-2.5283h1.1016l-.9292,2.5283h-.8047Z"/><path class="uuid-7dc6e9aa-38e4-41b8-856b-14e8ef1a1dbd" d="m140.1861,178.403v-5.6035l-1.1875.5078v-.9297l1.5708-.6797h.6611v6.7051h-1.0444Z"/><path class="uuid-7dc6e9aa-38e4-41b8-856b-14e8ef1a1dbd" d="m144.9181,178.5084c-.4854,0-.9146-.083-1.2881-.249s-.6675-.3975-.8813-.6943-.3208-.6338-.3208-1.0107c0-.2549.0605-.4932.1816-.7139.1216-.2197.2905-.4102.5078-.5693.2173-.1602.4663-.2783.7471-.3545-.3511-.1211-.6401-.3164-.8667-.585-.2266-.2676-.3398-.5713-.3398-.9092,0-.3457.0986-.6562.2969-.9346.1978-.2773.4673-.4961.8091-.6562.3418-.1592.7266-.2393,1.1543-.2393.4341,0,.8223.0801,1.1641.2393.3413.1602.6094.3789.8042.6562.1948.2783.2925.5889.2925.9346,0,.3379-.1118.6416-.3354.9092-.2236.2686-.5142.4639-.8716.585.4277.1084.7744.3105,1.0391.6084.2651.2969.3975.6396.3975,1.0293,0,.377-.105.7119-.3159,1.0059-.2104.2939-.5029.5254-.8765.6943s-.8062.2539-1.2979.2539Zm0-.8623c.2808,0,.5283-.0488.7422-.1484.2139-.0986.3833-.2363.5078-.4121.1245-.1748.187-.3721.187-.5889,0-.2236-.0625-.4229-.187-.5986s-.2939-.3125-.5078-.4121c-.2139-.0986-.4614-.1484-.7422-.1484-.2744,0-.5205.0498-.7373.1484-.2173.0996-.3882.2363-.5127.4121s-.1865.375-.1865.5986c0,.2168.062.4141.1865.5889.1245.1758.2954.3135.5127.4121.2168.0996.4629.1484.7373.1484Zm0-3.1133c.23,0,.439-.0459.6274-.1387s.3369-.2168.4453-.373c.1084-.1572.1631-.334.1631-.5322,0-.1973-.0547-.375-.1631-.5312s-.2568-.2793-.4453-.3691c-.1885-.0889-.3975-.1338-.6274-.1338-.2363,0-.4487.0449-.6367.1338-.1885.0898-.3354.2129-.4409.3691s-.1577.334-.1577.5312c0,.1982.0537.375.1626.5322.1084.1562.2554.2803.4404.373.1855.0928.396.1387.6323.1387Z"/><path class="uuid-7dc6e9aa-38e4-41b8-856b-14e8ef1a1dbd" d="m148.3473,178.403v-.7568l2.7495-2.873c.1592-.1729.2871-.3291.3828-.4697s.1646-.2744.2061-.4023.062-.2646.062-.4121c0-.2803-.1147-.5156-.3447-.7041-.23-.1875-.5234-.2822-.8809-.2822-.3003,0-.5845.0625-.8525.1865-.2686.125-.562.3369-.8813.6377l-.5845-.7188c.3643-.332.7407-.584,1.1304-.7568s.7949-.2588,1.2163-.2588c.4409,0,.8252.0781,1.1543.2344.3291.1572.5874.3721.7759.6475.1885.2744.2827.5938.2827.957,0,.2178-.0288.4219-.0864.6133-.0571.1914-.1548.3877-.292.5889s-.3271.4268-.5698.6758l-2.1362,2.2129,3.209-.0195v.9004h-4.5405Z"/><path class="uuid-7dc6e9aa-38e4-41b8-856b-14e8ef1a1dbd" d="m153.5387,179.9928l.6323-2.5283h1.1016l-.9292,2.5283h-.8047Z"/><path class="uuid-7dc6e9aa-38e4-41b8-856b-14e8ef1a1dbd" d="m159.4103,178.403v-5.6035l-1.1875.5078v-.9297l1.5708-.6797h.6611v6.7051h-1.0444Z"/><path class="uuid-7dc6e9aa-38e4-41b8-856b-14e8ef1a1dbd" d="m164.1422,178.5084c-.4854,0-.9146-.083-1.2881-.249s-.6675-.3975-.8813-.6943-.3208-.6338-.3208-1.0107c0-.2549.0605-.4932.1816-.7139.1216-.2197.2905-.4102.5078-.5693.2173-.1602.4663-.2783.7471-.3545-.3511-.1211-.6401-.3164-.8667-.585-.2266-.2676-.3398-.5713-.3398-.9092,0-.3457.0986-.6562.2969-.9346.1978-.2773.4673-.4961.8091-.6562.3418-.1592.7266-.2393,1.1543-.2393.4341,0,.8223.0801,1.1641.2393.3413.1602.6094.3789.8042.6562.1948.2783.2925.5889.2925.9346,0,.3379-.1118.6416-.3354.9092-.2236.2686-.5142.4639-.8716.585.4277.1084.7744.3105,1.0391.6084.2651.2969.3975.6396.3975,1.0293,0,.377-.105.7119-.3159,1.0059-.2104.2939-.5029.5254-.8765.6943s-.8062.2539-1.2979.2539Zm0-.8623c.2808,0,.5283-.0488.7422-.1484.2139-.0986.3833-.2363.5078-.4121.1245-.1748.187-.3721.187-.5889,0-.2236-.0625-.4229-.187-.5986s-.2939-.3125-.5078-.4121c-.2139-.0986-.4614-.1484-.7422-.1484-.2744,0-.5205.0498-.7373.1484-.2173.0996-.3882.2363-.5127.4121s-.1865.375-.1865.5986c0,.2168.062.4141.1865.5889.1245.1758.2954.3135.5127.4121.2168.0996.4629.1484.7373.1484Zm0-3.1133c.23,0,.439-.0459.6274-.1387s.3369-.2168.4453-.373c.1084-.1572.1631-.334.1631-.5322,0-.1973-.0547-.375-.1631-.5312s-.2568-.2793-.4453-.3691c-.1885-.0889-.3975-.1338-.6274-.1338-.2363,0-.4487.0449-.6367.1338-.1885.0898-.3354.2129-.4409.3691s-.1577.334-.1577.5312c0,.1982.0537.375.1626.5322.1084.1562.2554.2803.4404.373.1855.0928.396.1387.6323.1387Z"/><path class="uuid-7dc6e9aa-38e4-41b8-856b-14e8ef1a1dbd" d="m167.5709,178.403v-.7568l2.7495-2.873c.1592-.1729.2871-.3291.3828-.4697s.1646-.2744.2061-.4023.062-.2646.062-.4121c0-.2803-.1147-.5156-.3447-.7041-.23-.1875-.5234-.2822-.8809-.2822-.3003,0-.5845.0625-.8525.1865-.2686.125-.562.3369-.8813.6377l-.5845-.7188c.3643-.332.7407-.584,1.1304-.7568s.7949-.2588,1.2163-.2588c.4409,0,.8252.0781,1.1543.2344.3291.1572.5874.3721.7759.6475.1885.2744.2827.5938.2827.957,0,.2178-.0288.4219-.0864.6133-.0571.1914-.1548.3877-.292.5889s-.3271.4268-.5698.6758l-2.1362,2.2129,3.209-.0195v.9004h-4.5405Z"/><path class="uuid-7dc6e9aa-38e4-41b8-856b-14e8ef1a1dbd" d="m97.0831,190.0026c-.498,0-.9609-.0879-1.3887-.2637s-.8032-.4199-1.1255-.7324c-.3228-.3125-.5732-.6807-.752-1.1016-.1787-.4219-.2681-.875-.2681-1.3604,0-.4912.0894-.9463.2681-1.3652.1787-.418.4292-.7832.752-1.0967.3223-.3125.6978-.5566,1.1255-.7324s.8906-.2637,1.3887-.2637c.3579,0,.7075.0527,1.0488.1582.3418.1055.6577.2559.9487.4502.29.1953.5312.4258.7231.6943l-1.1113,1.0537c-.2173-.2998-.46-.5234-.728-.6709-.2681-.1465-.562-.2197-.8813-.2197-.2617,0-.5024.0498-.7231.1484-.2202.0986-.4136.2393-.5791.4209-.1665.1826-.2959.3936-.3882.6328-.0928.2393-.1387.5029-.1387.79s.0459.5508.1387.79c.0923.2393.2217.4502.3882.6328.1655.1816.3589.3223.5791.4209.2207.0996.4614.1484.7231.1484.3193,0,.6133-.0752.8813-.2246.2681-.1504.5107-.3721.728-.666l1.1113,1.0537c-.1919.2617-.4331.4922-.7231.6895-.291.1982-.6069.3496-.9487.4551-.3413.1055-.6909.1582-1.0488.1582Z"/><path class="uuid-7dc6e9aa-38e4-41b8-856b-14e8ef1a1dbd" d="m100.6178,189.8971v-4.9424h1.5518v1.1201c.1597-.415.3496-.7207.5698-.9189s.4771-.2969.771-.2969c.1084.0059.1978.0156.2681.0283s.1533.0449.249.0957v1.332c-.0957-.0518-.2075-.0898-.335-.1152-.1279-.0254-.2588-.0381-.3926-.0381-.23,0-.4443.0557-.6421.167-.1978.1123-.3608.2607-.4883.4453v3.123h-1.5518Z"/><path class="uuid-7dc6e9aa-38e4-41b8-856b-14e8ef1a1dbd" d="m105.6271,184.1979c-.2363,0-.4409-.0859-.6133-.2588-.1724-.1719-.2583-.377-.2583-.6133,0-.2422.0859-.4482.2583-.6172s.377-.2539.6133-.2539c.2427,0,.4482.085.6177.2539.1689.1689.2539.375.2539.6172,0,.2363-.085.4414-.2539.6133-.1694.1729-.375.2588-.6177.2588Zm-.7759,5.6992v-4.9424h1.5518v4.9424h-1.5518Z"/><path class="uuid-7dc6e9aa-38e4-41b8-856b-14e8ef1a1dbd" d="m107.61,189.8971v-4.9424h1.5518v.7852c.1851-.2812.4004-.4951.6465-.6416.2456-.1465.5186-.2207.8188-.2207.3193,0,.6001.083.8428.249.2427.167.4248.3896.5464.6709.1914-.2998.4243-.5283.6992-.6846.2744-.1562.5811-.2354.9194-.2354.3066,0,.5762.0742.8096.2207.2329.1465.415.3516.5459.6133s.1963.5615.1963.9004v3.2852h-1.5518v-2.9785c0-.249-.0669-.4492-.2012-.5986-.1343-.1504-.313-.2256-.5366-.2256-.1401,0-.2695.0303-.3877.0908s-.2285.1553-.3306.2832v3.4287h-1.5518v-2.9785c0-.249-.0669-.4492-.2012-.5986-.1338-.1504-.313-.2256-.5361-.2256-.2876,0-.5303.1279-.728.3828v3.4199h-1.5518Z"/><path class="uuid-7dc6e9aa-38e4-41b8-856b-14e8ef1a1dbd" d="m118.2228,189.9928c-.4468,0-.8652-.0508-1.2549-.1533-.3896-.1016-.728-.252-1.0151-.4502l.6802-1.0342c.3574.1855.6528.3145.8857.3877.2334.0732.4678.1104.7041.1104.2236,0,.3975-.0371.522-.1104s.187-.1709.187-.292c0-.0957-.0371-.1729-.1104-.2295-.0732-.0576-.1899-.0996-.3496-.125l-.9482-.1729c-.479-.0889-.8413-.2549-1.0869-.498-.2461-.2422-.3691-.5547-.3691-.9385,0-.3379.083-.627.249-.8662.166-.2402.4038-.4238.7139-.5508.3096-.1279.6782-.1924,1.1064-.1924.3447,0,.686.0479,1.0249.1436.3384.0967.667.2363.9863.4219l-.7085.9863c-.2495-.1465-.4902-.2539-.7236-.3203-.2329-.0674-.4644-.1006-.6943-.1006-.1851,0-.3306.0283-.4355.0859-.1055.0576-.1582.1406-.1582.249,0,.1025.0366.1787.1104.2295.0732.0518.2056.0928.3975.125l.9287.1729c.4917.0889.8623.2549,1.1113.498.249.2422.3735.5518.3735.9287,0,.3193-.0928.6084-.2778.8672-.1851.2578-.4375.4609-.7568.6074-.3193.1475-.6831.2207-1.0918.2207Z"/><path class="uuid-7dc6e9aa-38e4-41b8-856b-14e8ef1a1dbd" d="m123.6632,189.9928c-.4917,0-.9321-.1113-1.3218-.335s-.6978-.5283-.9243-.915c-.2266-.3857-.3398-.8223-.3398-1.3076s.1133-.9209.3398-1.3076c.2266-.3857.5347-.6904.9243-.9141s.8271-.3359,1.3125-.3359c.4917,0,.9307.1123,1.3169.3359s.6929.5283.9194.9141c.2266.3867.3403.8223.3403,1.3076s-.1138.9219-.3403,1.3076c-.2266.3867-.5332.6914-.9194.915s-.8223.335-1.3076.335Zm-.0093-1.293c.2104,0,.3955-.0547.5552-.1631s.2842-.2588.3735-.4502.1343-.4082.1343-.6514c0-.249-.0449-.4678-.1343-.6562-.0894-.1875-.2139-.3359-.3735-.4453-.1597-.1084-.3447-.1621-.5552-.1621-.2046,0-.3882.0537-.5508.1621-.1631.1094-.2891.2578-.3784.4453-.0898.1885-.1343.4072-.1343.6562,0,.2432.0444.46.1343.6514.0894.1914.2153.3418.3784.4502.1626.1084.3462.1631.5508.1631Z"/><path class="uuid-7dc6e9aa-38e4-41b8-856b-14e8ef1a1dbd" d="m127.2169,189.8971v-4.9424h1.5518v.8047c.1914-.2881.4199-.5059.6846-.6562.2651-.1504.5571-.2256.8765-.2256s.6021.0723.8477.2158c.2461.1436.439.3418.5796.5938.1406.2529.2109.5449.2109.877v3.333h-1.5518v-2.8828c0-.2812-.0752-.5049-.2251-.6709-.1504-.166-.3496-.249-.5986-.249-.166,0-.3179.0332-.4551.1006s-.2603.1709-.3687.3115v3.3906h-1.5518Z"/><path class="uuid-7dc6e9aa-38e4-41b8-856b-14e8ef1a1dbd" d="m93.6354,272.5065l.6035-1.7627h-.7085v-1.0918h1.082l.3447-.9961h-.9766v-1.0918h1.3506l.603-1.7627h1.3223l-.6035,1.7627h1.2065l.6035-1.7627h1.3125l-.6035,1.7627h.7183v1.0918h-1.0918l-.3447.9961h.9771v1.0918h-1.3506l-.6035,1.7627h-1.3125l.6035-1.7627h-1.207l-.6035,1.7627h-1.3218Zm2.2988-2.8545h1.207l.3447-.9961h-1.2065l-.3452.9961Z"/><path class="uuid-7dc6e9aa-38e4-41b8-856b-14e8ef1a1dbd" d="m101.107,272.5065v-6.7051h4.7988v.9775h-3.6494v1.8672h2.5479v.9482h-2.5479v1.9355h3.6875v.9766h-4.8369Z"/><path class="uuid-7dc6e9aa-38e4-41b8-856b-14e8ef1a1dbd" d="m107.2467,272.5065v-6.7051h4.7988v.9775h-3.6494v1.8672h2.5479v.9482h-2.5479v1.9355h3.6875v.9766h-4.8369Z"/><path class="uuid-7dc6e9aa-38e4-41b8-856b-14e8ef1a1dbd" d="m115.8097,272.6022c-.543,0-1.02-.1455-1.4321-.4355-.4116-.291-.7344-.6943-.9673-1.2119-.2334-.5176-.3496-1.1172-.3496-1.8008s.1162-1.2852.3496-1.8057c.2329-.5205.5557-.9258.9673-1.2168.4121-.29.8892-.4355,1.4321-.4355.5425,0,1.02.1455,1.4321.4355.4116.291.7339.6963.9673,1.2168.2329.5205.3496,1.1221.3496,1.8057s-.1167,1.2832-.3496,1.8008c-.2334.5176-.5557.9209-.9673,1.2119-.4121.29-.8896.4355-1.4321.4355Zm0-.9287c.3447,0,.6431-.1045.8955-.3115.2524-.208.4487-.501.5894-.8809.1401-.3799.2104-.8223.2104-1.3271,0-.5176-.0703-.9639-.2104-1.3408-.1406-.377-.3369-.6689-.5894-.877-.2524-.207-.5508-.3105-.8955-.3105s-.645.1035-.9004.3105c-.2554.208-.4536.5-.5938.877-.1406.377-.2109.8232-.2109,1.3408,0,.5049.0703.9473.2109,1.3271.1401.3799.3384.6729.5938.8809.2554.207.5557.3115.9004.3115Z"/><path class="uuid-7dc6e9aa-38e4-41b8-856b-14e8ef1a1dbd" d="m122.2657,272.6022c-.543,0-1.02-.1455-1.4321-.4355-.4116-.291-.7344-.6943-.9673-1.2119-.2334-.5176-.3496-1.1172-.3496-1.8008s.1162-1.2852.3496-1.8057c.2329-.5205.5557-.9258.9673-1.2168.4121-.29.8892-.4355,1.4321-.4355.5425,0,1.02.1455,1.4321.4355.4116.291.7339.6963.9673,1.2168.2329.5205.3496,1.1221.3496,1.8057s-.1167,1.2832-.3496,1.8008c-.2334.5176-.5557.9209-.9673,1.2119-.4121.29-.8896.4355-1.4321.4355Zm0-.9287c.3447,0,.6431-.1045.8955-.3115.2524-.208.4487-.501.5894-.8809.1401-.3799.2104-.8223.2104-1.3271,0-.5176-.0703-.9639-.2104-1.3408-.1406-.377-.3369-.6689-.5894-.877-.2524-.207-.5508-.3105-.8955-.3105s-.645.1035-.9004.3105c-.2554.208-.4536.5-.5938.877-.1406.377-.2109.8232-.2109,1.3408,0,.5049.0703.9473.2109,1.3271.1401.3799.3384.6729.5938.8809.2554.207.5557.3115.9004.3115Z"/><path class="uuid-7dc6e9aa-38e4-41b8-856b-14e8ef1a1dbd" d="m128.7218,272.6022c-.543,0-1.02-.1455-1.4321-.4355-.4116-.291-.7344-.6943-.9673-1.2119-.2334-.5176-.3496-1.1172-.3496-1.8008s.1162-1.2852.3496-1.8057c.2329-.5205.5557-.9258.9673-1.2168.4121-.29.8892-.4355,1.4321-.4355.5425,0,1.02.1455,1.4321.4355.4116.291.7339.6963.9673,1.2168.2329.5205.3496,1.1221.3496,1.8057s-.1167,1.2832-.3496,1.8008c-.2334.5176-.5557.9209-.9673,1.2119-.4121.29-.8896.4355-1.4321.4355Zm0-.9287c.3447,0,.6431-.1045.8955-.3115.2524-.208.4487-.501.5894-.8809.1401-.3799.2104-.8223.2104-1.3271,0-.5176-.0703-.9639-.2104-1.3408-.1406-.377-.3369-.6689-.5894-.877-.2524-.207-.5508-.3105-.8955-.3105s-.645.1035-.9004.3105c-.2554.208-.4536.5-.5938.877-.1406.377-.2109.8232-.2109,1.3408,0,.5049.0703.9473.2109,1.3271.1401.3799.3384.6729.5938.8809.2554.207.5557.3115.9004.3115Z"/><path class="uuid-7dc6e9aa-38e4-41b8-856b-14e8ef1a1dbd" d="m135.1774,272.6022c-.543,0-1.02-.1455-1.4321-.4355-.4116-.291-.7344-.6943-.9673-1.2119-.2334-.5176-.3496-1.1172-.3496-1.8008s.1162-1.2852.3496-1.8057c.2329-.5205.5557-.9258.9673-1.2168.4121-.29.8892-.4355,1.4321-.4355.5425,0,1.02.1455,1.4321.4355.4116.291.7339.6963.9673,1.2168.2329.5205.3496,1.1221.3496,1.8057s-.1167,1.2832-.3496,1.8008c-.2334.5176-.5557.9209-.9673,1.2119-.4121.29-.8896.4355-1.4321.4355Zm0-.9287c.3447,0,.6431-.1045.8955-.3115.2524-.208.4487-.501.5894-.8809.1401-.3799.2104-.8223.2104-1.3271,0-.5176-.0703-.9639-.2104-1.3408-.1406-.377-.3369-.6689-.5894-.877-.2524-.207-.5508-.3105-.8955-.3105s-.645.1035-.9004.3105c-.2554.208-.4536.5-.5938.877-.1406.377-.2109.8232-.2109,1.3408,0,.5049.0703.9473.2109,1.3271.1401.3799.3384.6729.5938.8809.2554.207.5557.3115.9004.3115Z"/><path class="uuid-7dc6e9aa-38e4-41b8-856b-14e8ef1a1dbd" d="m93.8653,284.0006v-6.7051h3.2568c.4595,0,.8682.0908,1.2261.2734.3574.1816.6367.4336.8379.7559.2012.3232.3018.6914.3018,1.1064,0,.4287-.1133.8066-.3398,1.1357-.2271.3291-.5283.5762-.9053.7422l1.4082,2.6914h-1.8394l-1.2163-2.4619h-1.0825v2.4619h-1.6475Zm1.6475-3.7549h1.4561c.2554,0,.4614-.0732.6177-.2207.1567-.1465.2349-.3379.2349-.5742,0-.2422-.0781-.4355-.2349-.5791-.1562-.1445-.3623-.2158-.6177-.2158h-1.4561v1.5898Z"/><path class="uuid-7dc6e9aa-38e4-41b8-856b-14e8ef1a1dbd" d="m103.8077,284.1061c-.498,0-.9595-.0879-1.3843-.2637s-.7983-.4209-1.1206-.7373c-.3228-.3164-.5732-.6836-.752-1.1016s-.2681-.8701-.2681-1.3555.0894-.9375.2681-1.3555.4263-.7852.7422-1.1016c.3164-.3164.6865-.5615,1.1113-.7373.4243-.1758.8828-.2637,1.3745-.2637.562,0,1.0933.1133,1.5947.3398.5015.2275.9082.5479,1.2212.9629l-1.1587,1.0059c-.2109-.2812-.457-.4912-.7378-.6318s-.5874-.2109-.9194-.2109c-.2554,0-.4932.0498-.7139.1484-.2202.0986-.4102.2393-.5698.4209-.1597.1826-.2842.3936-.3735.6328s-.1338.5029-.1338.79.0459.5537.1387.7998c.0923.2461.2217.458.3882.6367.1655.1787.3604.3193.584.4219s.4692.1533.7378.1533c.2554,0,.4868-.0479.6943-.1436s.3848-.2285.5317-.3975c.1465-.1699.249-.3623.3062-.5801h-1.6763v-1.3887h3.4482v.4697c0,.5039-.0811.9688-.2441,1.3936-.1626.4248-.394.793-.6943,1.1064-.3003.3125-.6528.5557-1.0586.7275-.4053.1729-.8506.2588-1.3359.2588Z"/><path class="uuid-7dc6e9aa-38e4-41b8-856b-14e8ef1a1dbd" d="m108.3194,284.0006v-6.7051h3.3145c.4341,0,.8188.0781,1.1538.2344.3354.1572.5986.3721.7905.6465.1914.2754.2871.5908.2871.9482,0,.3135-.0894.5957-.2681.8486-.1787.252-.415.4541-.709.6074.3511.1406.6338.3467.8477.6182s.3213.5791.3213.9248c0,.3633-.0977.6875-.2925.9717s-.4614.5059-.7998.666c-.3384.1592-.731.2393-1.1782.2393h-3.4673Zm1.6475-4.0137h1.4751c.23,0,.415-.0635.5557-.1914s.2109-.2939.2109-.498c0-.2109-.0688-.3779-.2061-.5029-.1377-.124-.3242-.1865-.5605-.1865h-1.4751v1.3789Zm0,2.7012h1.6094c.249,0,.4468-.0664.5938-.2012.147-.1338.2202-.3125.2202-.5361s-.0732-.4023-.2202-.5361c-.147-.1348-.3447-.2012-.5938-.2012h-1.6094v1.4746Z"/><path class="uuid-7dc6e9aa-38e4-41b8-856b-14e8ef1a1dbd" d="m117.1984,284.0006v-.7568l2.7495-2.873c.1592-.1729.2871-.3291.3828-.4697s.1646-.2744.2061-.4023.062-.2646.062-.4121c0-.2803-.1147-.5156-.3447-.7041-.23-.1875-.5234-.2822-.8809-.2822-.3003,0-.5845.0625-.8525.1865-.2686.125-.562.3369-.8813.6377l-.5845-.7188c.3643-.332.7407-.584,1.1304-.7568s.7949-.2588,1.2163-.2588c.4409,0,.8252.0781,1.1543.2344.3291.1572.5874.3721.7759.6475.1885.2744.2827.5938.2827.957,0,.2178-.0288.4219-.0864.6133-.0571.1914-.1548.3877-.292.5889s-.3271.4268-.5698.6758l-2.1362,2.2129,3.209-.0195v.9004h-4.5405Z"/><path class="uuid-7dc6e9aa-38e4-41b8-856b-14e8ef1a1dbd" d="m124.9762,284.1061c-.498,0-.9595-.0879-1.3843-.2637s-.79-.4258-1.0967-.752l.6992-.6611c.2681.2754.5366.4697.8047.585.2681.1143.5903.1719.9673.1719.2876,0,.541-.0459.7617-.1387.2202-.0928.3911-.2217.5122-.3877s.1821-.3613.1821-.585c0-.1973-.0513-.375-.1533-.5312s-.2427-.2764-.4214-.3594-.3867-.124-.6226-.124h-.8237v-.8721h.7373c.3257,0,.5859-.0908.7808-.2725.1948-.1826.292-.4268.292-.7334,0-.2041-.0571-.3857-.1724-.5459-.1147-.1592-.2681-.2852-.4595-.3779-.1919-.0928-.4058-.1387-.6421-.1387-.3384,0-.6338.0586-.8857.1768-.2524.1182-.5161.3242-.7905.6182l-.6992-.6611c.313-.3447.6768-.6084,1.0923-.79.415-.1826.8491-.2734,1.3027-.2734.4531,0,.8506.0801,1.1924.2393.3413.1602.6128.3818.814.666s.3018.6084.3018.9727c0,.3574-.1167.6748-.3496.9531-.2329.2773-.541.4707-.9243.5791.4468.1025.8047.2891,1.0728.5605.2686.2715.4023.5986.4023.9814,0,.377-.1069.7139-.3208,1.0107s-.5078.5303-.8813.6992-.8032.2539-1.2881.2539Z"/><path class="uuid-7dc6e9aa-38e4-41b8-856b-14e8ef1a1dbd" d="m130.9342,284.1061c-.4854,0-.9146-.083-1.2881-.249s-.6675-.3975-.8813-.6943-.3208-.6338-.3208-1.0107c0-.2549.0605-.4932.1816-.7139.1216-.2197.2905-.4102.5078-.5693.2173-.1602.4663-.2783.7471-.3545-.3511-.1211-.6401-.3164-.8667-.585-.2266-.2676-.3398-.5713-.3398-.9092,0-.3457.0986-.6562.2969-.9346.1978-.2773.4673-.4961.8091-.6562.3418-.1592.7266-.2393,1.1543-.2393.4341,0,.8223.0801,1.1641.2393.3413.1602.6094.3789.8042.6562.1948.2783.2925.5889.2925.9346,0,.3379-.1118.6416-.3354.9092-.2236.2686-.5142.4639-.8716.585.4277.1084.7744.3105,1.0391.6084.2651.2969.3975.6396.3975,1.0293,0,.377-.105.7119-.3159,1.0059-.2104.2939-.5029.5254-.8765.6943s-.8062.2539-1.2979.2539Zm0-.8623c.2808,0,.5283-.0488.7422-.1484.2139-.0986.3833-.2363.5078-.4121.1245-.1748.187-.3721.187-.5889,0-.2236-.0625-.4229-.187-.5986s-.2939-.3125-.5078-.4121c-.2139-.0986-.4614-.1484-.7422-.1484-.2744,0-.5205.0498-.7373.1484-.2173.0996-.3882.2363-.5127.4121s-.1865.375-.1865.5986c0,.2168.062.4141.1865.5889.1245.1758.2954.3135.5127.4121.2168.0996.4629.1484.7373.1484Zm0-3.1133c.23,0,.439-.0459.6274-.1387s.3369-.2168.4453-.373c.1084-.1572.1631-.334.1631-.5322,0-.1973-.0547-.375-.1631-.5312s-.2568-.2793-.4453-.3691c-.1885-.0889-.3975-.1338-.6274-.1338-.2363,0-.4487.0449-.6367.1338-.1885.0898-.3354.2129-.4409.3691s-.1577.334-.1577.5312c0,.1982.0537.375.1626.5322.1084.1562.2554.2803.4404.373.1855.0928.396.1387.6323.1387Z"/><path class="uuid-7dc6e9aa-38e4-41b8-856b-14e8ef1a1dbd" d="m133.9991,285.5905l.6323-2.5283h1.1016l-.9292,2.5283h-.8047Z"/><path class="uuid-7dc6e9aa-38e4-41b8-856b-14e8ef1a1dbd" d="m141.5567,284.0963c-.543,0-1.02-.1455-1.4321-.4355-.4116-.291-.7344-.6943-.9673-1.2119-.2334-.5176-.3496-1.1172-.3496-1.8008s.1162-1.2852.3496-1.8057c.2329-.5205.5557-.9258.9673-1.2168.4121-.29.8892-.4355,1.4321-.4355.5425,0,1.02.1455,1.4321.4355.4116.291.7339.6963.9673,1.2168.2329.5205.3496,1.1221.3496,1.8057s-.1167,1.2832-.3496,1.8008c-.2334.5176-.5557.9209-.9673,1.2119-.4121.29-.8896.4355-1.4321.4355Zm0-.9287c.3447,0,.6431-.1045.8955-.3115.2524-.208.4487-.501.5894-.8809.1401-.3799.2104-.8223.2104-1.3271,0-.5176-.0703-.9639-.2104-1.3408-.1406-.377-.3369-.6689-.5894-.877-.2524-.207-.5508-.3105-.8955-.3105s-.645.1035-.9004.3105c-.2554.208-.4536.5-.5938.877-.1406.377-.2109.8232-.2109,1.3408,0,.5049.0703.9473.2109,1.3271.1401.3799.3384.6729.5938.8809.2554.207.5557.3115.9004.3115Z"/><path class="uuid-7dc6e9aa-38e4-41b8-856b-14e8ef1a1dbd" d="m144.8131,285.5905l.6323-2.5283h1.1016l-.9292,2.5283h-.8047Z"/><path class="uuid-7dc6e9aa-38e4-41b8-856b-14e8ef1a1dbd" d="m152.3707,284.0963c-.543,0-1.02-.1455-1.4321-.4355-.4116-.291-.7344-.6943-.9673-1.2119-.2334-.5176-.3496-1.1172-.3496-1.8008s.1162-1.2852.3496-1.8057c.2329-.5205.5557-.9258.9673-1.2168.4121-.29.8892-.4355,1.4321-.4355.5425,0,1.02.1455,1.4321.4355.4116.291.7339.6963.9673,1.2168.2329.5205.3496,1.1221.3496,1.8057s-.1167,1.2832-.3496,1.8008c-.2334.5176-.5557.9209-.9673,1.2119-.4121.29-.8896.4355-1.4321.4355Zm0-.9287c.3447,0,.6431-.1045.8955-.3115.2524-.208.4487-.501.5894-.8809.1401-.3799.2104-.8223.2104-1.3271,0-.5176-.0703-.9639-.2104-1.3408-.1406-.377-.3369-.6689-.5894-.877-.2524-.207-.5508-.3105-.8955-.3105s-.645.1035-.9004.3105c-.2554.208-.4536.5-.5938.877-.1406.377-.2109.8232-.2109,1.3408,0,.5049.0703.9473.2109,1.3271.1401.3799.3384.6729.5938.8809.2554.207.5557.3115.9004.3115Z"/><path class="uuid-7dc6e9aa-38e4-41b8-856b-14e8ef1a1dbd" d="m93.8653,295.4948v-6.7051h3.2568c.4595,0,.8682.0908,1.2261.2734.3574.1816.6367.4336.8379.7559.2012.3232.3018.6914.3018,1.1064,0,.4287-.1133.8066-.3398,1.1357-.2271.3291-.5283.5762-.9053.7422l1.4082,2.6914h-1.8394l-1.2163-2.4619h-1.0825v2.4619h-1.6475Zm1.6475-3.7549h1.4561c.2554,0,.4614-.0732.6177-.2207.1567-.1465.2349-.3379.2349-.5742,0-.2422-.0781-.4355-.2349-.5791-.1562-.1445-.3623-.2158-.6177-.2158h-1.4561v1.5898Z"/><path class="uuid-7dc6e9aa-38e4-41b8-856b-14e8ef1a1dbd" d="m102.6007,295.5905c-.4854,0-.9243-.1133-1.3169-.3398s-.7056-.5332-.9385-.9199c-.2334-.3857-.3496-.8184-.3496-1.2979,0-.4854.1084-.9189.3257-1.3027.2168-.3828.5137-.6875.8906-.9141s.8013-.3408,1.2739-.3408c.479,0,.9004.1123,1.2646.3359.3638.2236.6494.5312.8569.9238s.3115.8447.3115,1.3555v.335h-3.4004c.0508.1855.1309.3486.2393.4893s.2427.249.4023.3252c.1597.0771.332.1152.5171.1152.2046,0,.3911-.0352.5605-.1055.1689-.0703.3081-.1729.4165-.3066l1.0249.8525c-.3193.2812-.6416.4834-.9673.6084-.3257.124-.6963.1865-1.1113.1865Zm-1.082-3.0459h1.9634c-.0444-.1787-.1147-.332-.2104-.46-.0962-.1279-.2109-.2266-.3452-.2969-.1338-.0703-.2842-.1055-.4502-.1055-.1597,0-.3047.0342-.4355.1006-.1309.0674-.2397.165-.3257.292-.0864.1279-.1519.2842-.1963.4697Z"/><path class="uuid-7dc6e9aa-38e4-41b8-856b-14e8ef1a1dbd" d="m107.8976,295.5231c-.4023,0-.7695-.1133-1.1016-.3398s-.5952-.5293-.79-.9102c-.1948-.3799-.292-.7998-.292-1.2588,0-.4668.1021-.8867.3062-1.2598.2046-.374.4805-.6719.8286-.8955s.7358-.3359,1.1641-.3359c.2617,0,.5059.0518.7324.1533.2266.1025.4233.249.5894.4414v-2.4434l1.5518-.2393v7.0596h-1.5327v-.6416c-.1597.2041-.3687.3672-.6274.4883-.2583.1211-.5347.1816-.8286.1816Zm.5176-1.2832c.1851,0,.354-.0332.5073-.1006s.2905-.1641.4121-.292v-1.667c-.1216-.127-.2603-.2236-.4165-.2871-.1567-.0635-.3242-.0957-.5029-.0957-.2236,0-.4248.0527-.6035.1582-.1792.1055-.3193.25-.4214.4355-.1025.1855-.1533.3965-.1533.6318,0,.2305.0508.4375.1533.623.1021.1855.2422.3301.4214.4355.1787.1055.3799.1582.6035.1582Z"/><path class="uuid-7dc6e9aa-38e4-41b8-856b-14e8ef1a1dbd" d="m114.2003,295.4948v-6.7051h1.6475v2.6055h2.7109v-2.6055h1.6475v6.7051h-1.6475v-2.6533h-2.7109v2.6533h-1.6475Z"/><path class="uuid-7dc6e9aa-38e4-41b8-856b-14e8ef1a1dbd" d="m122.8404,295.5709c-.332,0-.6274-.0635-.8862-.1914-.2583-.127-.4595-.3027-.6035-.5264-.1436-.2236-.2153-.4824-.2153-.7764,0-.3066.0767-.5664.23-.7803s.3735-.377.6606-.4883c.2876-.1123.6323-.168,1.0347-.168.1787,0,.3608.0176.5459.0527s.3862.0947.6035.1768v-.4014c0-.2432-.0801-.4238-.2393-.542-.1597-.1182-.4058-.1768-.7378-.1768-.1851,0-.3911.0273-.6177.0811-.2266.0547-.4839.1426-.771.2637l-.5366-1.082c.7983-.3574,1.5552-.5371,2.27-.5371.6836,0,1.2148.1631,1.5952.4893.3799.3252.5698.7822.5698,1.3691v3.1611h-1.5327v-.4307c-.2173.1787-.4341.3076-.6514.3877s-.4565.1191-.7183.1191Zm-.2778-1.5225c0,.1592.0669.2822.2012.3691.1343.0859.3193.1289.5557.1289.166,0,.3223-.0205.4692-.0625.147-.041.2871-.1035.4214-.1865v-.6318c-.1406-.0322-.2812-.0576-.4214-.0771-.1406-.0195-.2842-.0283-.4312-.0283-.2554,0-.4517.041-.5889.124-.1377.083-.2061.2051-.2061.3643Z"/><path class="uuid-7dc6e9aa-38e4-41b8-856b-14e8ef1a1dbd" d="m129.1905,295.5905c-.5811,0-1.022-.1338-1.3218-.4023-.3003-.2686-.4502-.6641-.4502-1.1875v-2.251h-.958v-1.1973h.958v-1.3701l1.5518-.3154v1.6855h1.3218v1.1973h-1.3218v1.9443c0,.2168.0493.3701.1484.46.0986.0889.2666.1338.5029.1338.0894,0,.1787-.0059.2681-.0186.0894-.0137.2109-.042.3638-.0869v1.2549c-.1401.0449-.3125.082-.5171.1104s-.3862.043-.5459.043Z"/><path class="uuid-7dc6e9aa-38e4-41b8-856b-14e8ef1a1dbd" d="m133.2135,295.4948v-4.9424h1.5518v1.1201c.1597-.415.3496-.7207.5698-.9189s.4771-.2969.771-.2969c.1084.0059.1978.0156.2681.0283s.1533.0449.249.0957v1.332c-.0957-.0518-.2075-.0898-.335-.1152-.1279-.0254-.2588-.0381-.3926-.0381-.23,0-.4443.0557-.6421.167-.1978.1123-.3608.2607-.4883.4453v3.123h-1.5518Z"/><path class="uuid-7dc6e9aa-38e4-41b8-856b-14e8ef1a1dbd" d="m139.6881,295.5905c-.4854,0-.9243-.1133-1.3169-.3398s-.7056-.5332-.9385-.9199c-.2334-.3857-.3496-.8184-.3496-1.2979,0-.4854.1084-.9189.3257-1.3027.2168-.3828.5137-.6875.8906-.9141s.8013-.3408,1.2739-.3408c.479,0,.9004.1123,1.2646.3359.3638.2236.6494.5312.8569.9238s.3115.8447.3115,1.3555v.335h-3.4004c.0508.1855.1309.3486.2393.4893s.2427.249.4023.3252c.1597.0771.332.1152.5171.1152.2046,0,.3911-.0352.5605-.1055.1689-.0703.3081-.1729.4165-.3066l1.0249.8525c-.3193.2812-.6416.4834-.9673.6084-.3257.124-.6963.1865-1.1113.1865Zm-1.082-3.0459h1.9634c-.0444-.1787-.1147-.332-.2104-.46-.0962-.1279-.2109-.2266-.3452-.2969-.1338-.0703-.2842-.1055-.4502-.1055-.1597,0-.3047.0342-.4355.1006-.1309.0674-.2397.165-.3257.292-.0864.1279-.1519.2842-.1963.4697Z"/><path class="uuid-7dc6e9aa-38e4-41b8-856b-14e8ef1a1dbd" d="m144.985,295.5231c-.4023,0-.7695-.1133-1.1016-.3398s-.5952-.5293-.79-.9102c-.1948-.3799-.292-.7998-.292-1.2588,0-.4668.1021-.8867.3062-1.2598.2046-.374.4805-.6719.8286-.8955s.7358-.3359,1.1641-.3359c.2617,0,.5059.0518.7324.1533.2266.1025.4233.249.5894.4414v-2.4434l1.5518-.2393v7.0596h-1.5327v-.6416c-.1597.2041-.3687.3672-.6274.4883-.2583.1211-.5347.1816-.8286.1816Zm.5176-1.2832c.1851,0,.354-.0332.5073-.1006s.2905-.1641.4121-.292v-1.667c-.1216-.127-.2603-.2236-.4165-.2871-.1567-.0635-.3242-.0957-.5029-.0957-.2236,0-.4248.0527-.6035.1582-.1792.1055-.3193.25-.4214.4355-.1025.1855-.1533.3965-.1533.6318,0,.2305.0508.4375.1533.623.1021.1855.2422.3301.4214.4355.1787.1055.3799.1582.6035.1582Z"/><path class="uuid-7dc6e9aa-38e4-41b8-856b-14e8ef1a1dbd" d="m298.6022,166.9088l.6035-1.7627h-.7085v-1.0918h1.082l.3447-.9961h-.9766v-1.0918h1.3506l.603-1.7627h1.3223l-.6035,1.7627h1.2065l.6035-1.7627h1.3125l-.6035,1.7627h.7183v1.0918h-1.0918l-.3447.9961h.9771v1.0918h-1.3506l-.6035,1.7627h-1.3125l.6035-1.7627h-1.207l-.6035,1.7627h-1.3218Zm2.2988-2.8545h1.207l.3447-.9961h-1.2065l-.3452.9961Z"/><path class="uuid-7dc6e9aa-38e4-41b8-856b-14e8ef1a1dbd" d="m306.8111,166.9088v-5.6035l-1.1875.5078v-.9297l1.5708-.6797h.6611v6.7051h-1.0444Z"/><path class="uuid-7dc6e9aa-38e4-41b8-856b-14e8ef1a1dbd" d="m311.2364,167.0143c-.9067,0-1.6919-.3037-2.356-.9102l.6318-.7188c.2876.2559.5703.4414.8477.5557.2778.1152.583.1729.915.1729.2871,0,.5376-.0547.752-.1631.2139-.1084.3799-.2637.498-.4648s.1772-.4287.1772-.6846c0-.377-.1343-.6816-.4023-.915-.2681-.2324-.6196-.3496-1.0537-.3496-.2236,0-.4438.0293-.6611.0869-.2168.0576-.4404.1465-.6704.2676l-.728-.2197.1533-3.4678h4.0708v.9004h-3.1797l-.0962,1.9443c.23-.1152.46-.1992.6899-.2539.23-.0537.4692-.0811.7183-.0811.4468,0,.8384.085,1.1733.2539.3354.1689.5938.4072.7759.7139.1821.3057.2729.6602.2729,1.0625,0,.4473-.1055.8418-.3159,1.1836-.2109.3418-.5063.6074-.8862.7998-.3799.1914-.8223.2871-1.3267.2871Z"/><path class="uuid-7dc6e9aa-38e4-41b8-856b-14e8ef1a1dbd" d="m315.6041,166.9088v-5.6035l-1.1875.5078v-.9297l1.5708-.6797h.6611v6.7051h-1.0444Z"/><path class="uuid-7dc6e9aa-38e4-41b8-856b-14e8ef1a1dbd" d="m320.0294,167.0143c-.9067,0-1.6919-.3037-2.356-.9102l.6318-.7188c.2876.2559.5703.4414.8477.5557.2778.1152.583.1729.915.1729.2871,0,.5376-.0547.752-.1631.2139-.1084.3799-.2637.498-.4648s.1772-.4287.1772-.6846c0-.377-.1343-.6816-.4023-.915-.2681-.2324-.6196-.3496-1.0537-.3496-.2236,0-.4438.0293-.6611.0869-.2168.0576-.4404.1465-.6704.2676l-.728-.2197.1533-3.4678h4.0708v.9004h-3.1797l-.0962,1.9443c.23-.1152.46-.1992.6899-.2539.23-.0537.4692-.0811.7183-.0811.4468,0,.8384.085,1.1733.2539.3354.1689.5938.4072.7759.7139.1821.3057.2729.6602.2729,1.0625,0,.4473-.1055.8418-.3159,1.1836-.2109.3418-.5063.6074-.8862.7998-.3799.1914-.8223.2871-1.3267.2871Z"/><path class="uuid-7dc6e9aa-38e4-41b8-856b-14e8ef1a1dbd" d="m324.3971,166.9088v-5.6035l-1.1875.5078v-.9297l1.5708-.6797h.6611v6.7051h-1.0444Z"/><path class="uuid-7dc6e9aa-38e4-41b8-856b-14e8ef1a1dbd" d="m328.8224,167.0143c-.9067,0-1.6919-.3037-2.356-.9102l.6318-.7188c.2876.2559.5703.4414.8477.5557.2778.1152.583.1729.915.1729.2871,0,.5376-.0547.752-.1631.2139-.1084.3799-.2637.498-.4648s.1772-.4287.1772-.6846c0-.377-.1343-.6816-.4023-.915-.2681-.2324-.6196-.3496-1.0537-.3496-.2236,0-.4438.0293-.6611.0869-.2168.0576-.4404.1465-.6704.2676l-.728-.2197.1533-3.4678h4.0708v.9004h-3.1797l-.0962,1.9443c.23-.1152.46-.1992.6899-.2539.23-.0537.4692-.0811.7183-.0811.4468,0,.8384.085,1.1733.2539.3354.1689.5938.4072.7759.7139.1821.3057.2729.6602.2729,1.0625,0,.4473-.1055.8418-.3159,1.1836-.2109.3418-.5063.6074-.8862.7998-.3799.1914-.8223.2871-1.3267.2871Z"/><path class="uuid-7dc6e9aa-38e4-41b8-856b-14e8ef1a1dbd" d="m298.8321,178.403v-6.7051h3.2568c.4595,0,.8682.0908,1.2261.2734.3574.1816.6367.4336.8379.7559.2012.3232.3018.6914.3018,1.1064,0,.4287-.1133.8066-.3398,1.1357-.2271.3291-.5283.5762-.9053.7422l1.4082,2.6914h-1.8394l-1.2163-2.4619h-1.0825v2.4619h-1.6475Zm1.6475-3.7549h1.4561c.2554,0,.4614-.0732.6177-.2207.1567-.1465.2349-.3379.2349-.5742,0-.2422-.0781-.4355-.2349-.5791-.1562-.1445-.3623-.2158-.6177-.2158h-1.4561v1.5898Z"/><path class="uuid-7dc6e9aa-38e4-41b8-856b-14e8ef1a1dbd" d="m308.7745,178.5084c-.498,0-.9595-.0879-1.3843-.2637s-.7983-.4209-1.1206-.7373c-.3228-.3164-.5732-.6836-.752-1.1016s-.2681-.8701-.2681-1.3555.0894-.9375.2681-1.3555.4263-.7852.7422-1.1016c.3164-.3164.6865-.5615,1.1113-.7373.4243-.1758.8828-.2637,1.3745-.2637.562,0,1.0933.1133,1.5947.3398.5015.2275.9082.5479,1.2212.9629l-1.1587,1.0059c-.2109-.2812-.457-.4912-.7378-.6318s-.5874-.2109-.9194-.2109c-.2554,0-.4932.0498-.7139.1484-.2202.0986-.4102.2393-.5698.4209-.1597.1826-.2842.3936-.3735.6328s-.1338.5029-.1338.79.0459.5537.1387.7998c.0923.2461.2217.458.3882.6367.1655.1787.3604.3193.584.4219s.4692.1533.7378.1533c.2554,0,.4868-.0479.6943-.1436s.3848-.2285.5317-.3975c.1465-.1699.249-.3623.3062-.5801h-1.6763v-1.3887h3.4482v.4697c0,.5039-.0811.9688-.2441,1.3936-.1626.4248-.394.793-.6943,1.1064-.3003.3125-.6528.5557-1.0586.7275-.4053.1729-.8506.2588-1.3359.2588Z"/><path class="uuid-7dc6e9aa-38e4-41b8-856b-14e8ef1a1dbd" d="m313.2862,178.403v-6.7051h3.3145c.4341,0,.8188.0781,1.1538.2344.3354.1572.5986.3721.7905.6465.1914.2754.2871.5908.2871.9482,0,.3135-.0894.5957-.2681.8486-.1787.252-.415.4541-.709.6074.3511.1406.6338.3467.8477.6182s.3213.5791.3213.9248c0,.3633-.0977.6875-.2925.9717s-.4614.5059-.7998.666c-.3384.1592-.731.2393-1.1782.2393h-3.4673Zm1.6475-4.0137h1.4751c.23,0,.415-.0635.5557-.1914s.2109-.2939.2109-.498c0-.2109-.0688-.3779-.2061-.5029-.1377-.124-.3242-.1865-.5605-.1865h-1.4751v1.3789Zm0,2.7012h1.6094c.249,0,.4468-.0664.5938-.2012.147-.1338.2202-.3125.2202-.5361s-.0732-.4023-.2202-.5361c-.147-.1348-.3447-.2012-.5938-.2012h-1.6094v1.4746Z"/><path class="uuid-7dc6e9aa-38e4-41b8-856b-14e8ef1a1dbd" d="m322.1651,178.403v-.7568l2.7495-2.873c.1592-.1729.2871-.3291.3828-.4697s.1646-.2744.2061-.4023.062-.2646.062-.4121c0-.2803-.1147-.5156-.3447-.7041-.23-.1875-.5234-.2822-.8809-.2822-.3003,0-.5845.0625-.8525.1865-.2686.125-.562.3369-.8813.6377l-.5845-.7188c.3643-.332.7407-.584,1.1304-.7568s.7949-.2588,1.2163-.2588c.4409,0,.8252.0781,1.1543.2344.3291.1572.5874.3721.7759.6475.1885.2744.2827.5938.2827.957,0,.2178-.0288.4219-.0864.6133-.0571.1914-.1548.3877-.292.5889s-.3271.4268-.5698.6758l-2.1362,2.2129,3.209-.0195v.9004h-4.5405Z"/><path class="uuid-7dc6e9aa-38e4-41b8-856b-14e8ef1a1dbd" d="m328.6783,178.403v-5.6035l-1.1875.5078v-.9297l1.5708-.6797h.6611v6.7051h-1.0444Z"/><path class="uuid-7dc6e9aa-38e4-41b8-856b-14e8ef1a1dbd" d="m330.6324,179.9928l.6323-2.5283h1.1016l-.9292,2.5283h-.8047Z"/><path class="uuid-7dc6e9aa-38e4-41b8-856b-14e8ef1a1dbd" d="m335.4503,178.403v-.7568l2.7495-2.873c.1592-.1729.2871-.3291.3828-.4697s.1646-.2744.2061-.4023.062-.2646.062-.4121c0-.2803-.1147-.5156-.3447-.7041-.23-.1875-.5234-.2822-.8809-.2822-.3003,0-.5845.0625-.8525.1865-.2686.125-.562.3369-.8813.6377l-.5845-.7188c.3643-.332.7407-.584,1.1304-.7568s.7949-.2588,1.2163-.2588c.4409,0,.8252.0781,1.1543.2344.3291.1572.5874.3721.7759.6475.1885.2744.2827.5938.2827.957,0,.2178-.0288.4219-.0864.6133-.0571.1914-.1548.3877-.292.5889s-.3271.4268-.5698.6758l-2.1362,2.2129,3.209-.0195v.9004h-4.5405Z"/><path class="uuid-7dc6e9aa-38e4-41b8-856b-14e8ef1a1dbd" d="m341.9635,178.403v-5.6035l-1.1875.5078v-.9297l1.5708-.6797h.6611v6.7051h-1.0444Z"/><path class="uuid-7dc6e9aa-38e4-41b8-856b-14e8ef1a1dbd" d="m343.9176,179.9928l.6323-2.5283h1.1016l-.9292,2.5283h-.8047Z"/><path class="uuid-7dc6e9aa-38e4-41b8-856b-14e8ef1a1dbd" d="m348.7355,178.403v-.7568l2.7495-2.873c.1592-.1729.2871-.3291.3828-.4697s.1646-.2744.2061-.4023.062-.2646.062-.4121c0-.2803-.1147-.5156-.3447-.7041-.23-.1875-.5234-.2822-.8809-.2822-.3003,0-.5845.0625-.8525.1865-.2686.125-.562.3369-.8813.6377l-.5845-.7188c.3643-.332.7407-.584,1.1304-.7568s.7949-.2588,1.2163-.2588c.4409,0,.8252.0781,1.1543.2344.3291.1572.5874.3721.7759.6475.1885.2744.2827.5938.2827.957,0,.2178-.0288.4219-.0864.6133-.0571.1914-.1548.3877-.292.5889s-.3271.4268-.5698.6758l-2.1362,2.2129,3.209-.0195v.9004h-4.5405Z"/><path class="uuid-7dc6e9aa-38e4-41b8-856b-14e8ef1a1dbd" d="m355.2491,178.403v-5.6035l-1.1875.5078v-.9297l1.5708-.6797h.6611v6.7051h-1.0444Z"/><path class="uuid-7dc6e9aa-38e4-41b8-856b-14e8ef1a1dbd" d="m298.7364,189.8971v-6.7051h1.6475v6.7051h-1.6475Z"/><path class="uuid-7dc6e9aa-38e4-41b8-856b-14e8ef1a1dbd" d="m301.6388,189.8971v-4.9424h1.5518v.8047c.1914-.2881.4199-.5059.6846-.6562.2651-.1504.5571-.2256.8765-.2256s.6021.0723.8477.2158c.2461.1436.439.3418.5796.5938.1406.2529.2109.5449.2109.877v3.333h-1.5518v-2.8828c0-.2812-.0752-.5049-.2251-.6709-.1504-.166-.3496-.249-.5986-.249-.166,0-.3179.0332-.4551.1006s-.2603.1709-.3687.3115v3.3906h-1.5518Z"/><path class="uuid-7dc6e9aa-38e4-41b8-856b-14e8ef1a1dbd" d="m309.838,189.9928c-.5811,0-1.022-.1338-1.3218-.4023-.3003-.2686-.4502-.6641-.4502-1.1875v-2.251h-.958v-1.1973h.958v-1.3701l1.5518-.3154v1.6855h1.3218v1.1973h-1.3218v1.9443c0,.2168.0493.3701.1484.46.0986.0889.2666.1338.5029.1338.0894,0,.1787-.0059.2681-.0186.0894-.0137.2109-.042.3638-.0869v1.2549c-.1401.0449-.3125.082-.5171.1104s-.3862.043-.5459.043Z"/><path class="uuid-7dc6e9aa-38e4-41b8-856b-14e8ef1a1dbd" d="m314.1383,189.9928c-.4854,0-.9243-.1133-1.3169-.3398s-.7056-.5332-.9385-.9199c-.2334-.3857-.3496-.8184-.3496-1.2979,0-.4854.1084-.9189.3257-1.3027.2168-.3828.5137-.6875.8906-.9141s.8013-.3408,1.2739-.3408c.479,0,.9004.1123,1.2646.3359.3638.2236.6494.5312.8569.9238s.3115.8447.3115,1.3555v.335h-3.4004c.0508.1855.1309.3486.2393.4893s.2427.249.4023.3252c.1597.0771.332.1152.5171.1152.2046,0,.3911-.0352.5605-.1055.1689-.0703.3081-.1729.4165-.3066l1.0249.8525c-.3193.2812-.6416.4834-.9673.6084-.3257.124-.6963.1865-1.1113.1865Zm-1.082-3.0459h1.9634c-.0444-.1787-.1147-.332-.2104-.46-.0962-.1279-.2109-.2266-.3452-.2969-.1338-.0703-.2842-.1055-.4502-.1055-.1597,0-.3047.0342-.4355.1006-.1309.0674-.2397.165-.3257.292-.0864.1279-.1519.2842-.1963.4697Z"/><path class="uuid-7dc6e9aa-38e4-41b8-856b-14e8ef1a1dbd" d="m317.4239,189.8971v-4.9424h1.5518v1.1201c.1597-.415.3496-.7207.5698-.9189s.4771-.2969.771-.2969c.1084.0059.1978.0156.2681.0283s.1533.0449.249.0957v1.332c-.0957-.0518-.2075-.0898-.335-.1152-.1279-.0254-.2588-.0381-.3926-.0381-.23,0-.4443.0557-.6421.167-.1978.1123-.3608.2607-.4883.4453v3.123h-1.5518Z"/><path class="uuid-7dc6e9aa-38e4-41b8-856b-14e8ef1a1dbd" d="m322.3859,189.8971v-3.7451h-1.0249v-1.1973h1.0249v-.6514c0-.5879.1689-1.0381.5073-1.3506s.8271-.4697,1.4658-.4697c.1338,0,.2793.0088.4355.0244.1567.0156.2861.04.3882.0713v1.2744c-.1406-.0254-.2524-.042-.3354-.0479-.083-.0068-.1689-.0098-.2583-.0098-.2173,0-.3804.043-.4888.1289-.1084.0869-.1626.2227-.1626.4072v.623h1.2451v1.1973h-1.2451v3.7451h-1.5518Z"/><path class="uuid-7dc6e9aa-38e4-41b8-856b-14e8ef1a1dbd" d="m327.3473,189.9733c-.332,0-.6274-.0635-.8862-.1914-.2583-.127-.4595-.3027-.6035-.5264-.1436-.2236-.2153-.4824-.2153-.7764,0-.3066.0767-.5664.23-.7803s.3735-.377.6606-.4883c.2876-.1123.6323-.168,1.0347-.168.1787,0,.3608.0176.5459.0527s.3862.0947.6035.1768v-.4014c0-.2432-.0801-.4238-.2393-.542-.1597-.1182-.4058-.1768-.7378-.1768-.1851,0-.3911.0273-.6177.0811-.2266.0547-.4839.1426-.771.2637l-.5366-1.082c.7983-.3574,1.5552-.5371,2.27-.5371.6836,0,1.2148.1631,1.5952.4893.3799.3252.5698.7822.5698,1.3691v3.1611h-1.5327v-.4307c-.2173.1787-.4341.3076-.6514.3877s-.4565.1191-.7183.1191Zm-.2778-1.5225c0,.1592.0669.2822.2012.3691.1343.0859.3193.1289.5557.1289.166,0,.3223-.0205.4692-.0625.147-.041.2871-.1035.4214-.1865v-.6318c-.1406-.0322-.2812-.0576-.4214-.0771-.1406-.0195-.2842-.0283-.4312-.0283-.2554,0-.4517.041-.5889.124-.1377.083-.2061.2051-.2061.3643Z"/><path class="uuid-7dc6e9aa-38e4-41b8-856b-14e8ef1a1dbd" d="m333.755,189.9928c-.4785,0-.9116-.1133-1.2979-.3398s-.6929-.5332-.9194-.9199c-.2266-.3857-.3398-.8184-.3398-1.2979,0-.4854.1133-.9189.3398-1.3027.2266-.3828.5332-.6875.9194-.9141s.8193-.3408,1.2979-.3408c.4087,0,.792.0791,1.1494.2354.3579.1562.6611.3809.9102.6748l-.9482.9482c-.1597-.1846-.3228-.3203-.4888-.4072-.166-.0859-.354-.1289-.5649-.1289-.2046,0-.3877.0547-.5508.1631-.1626.1084-.2905.2549-.3833.4404-.0923.1855-.1387.3955-.1387.6318s.0464.4473.1387.6328c.0928.1846.2207.332.3833.4404.1631.1084.3462.1631.5508.1631.2109,0,.3989-.0439.5649-.1299s.3291-.2217.4888-.4072l.9482.9482c-.249.2939-.5522.5195-.9102.6758-.3574.1562-.7407.2344-1.1494.2344Z"/><path class="uuid-7dc6e9aa-38e4-41b8-856b-14e8ef1a1dbd" d="m338.8219,189.9928c-.4854,0-.9243-.1133-1.3169-.3398s-.7056-.5332-.9385-.9199c-.2334-.3857-.3496-.8184-.3496-1.2979,0-.4854.1084-.9189.3257-1.3027.2168-.3828.5137-.6875.8906-.9141s.8013-.3408,1.2739-.3408c.479,0,.9004.1123,1.2646.3359.3638.2236.6494.5312.8569.9238s.3115.8447.3115,1.3555v.335h-3.4004c.0508.1855.1309.3486.2393.4893s.2427.249.4023.3252c.1597.0771.332.1152.5171.1152.2046,0,.3911-.0352.5605-.1055.1689-.0703.3081-.1729.4165-.3066l1.0249.8525c-.3193.2812-.6416.4834-.9673.6084-.3257.124-.6963.1865-1.1113.1865Zm-1.082-3.0459h1.9634c-.0444-.1787-.1147-.332-.2104-.46-.0962-.1279-.2109-.2266-.3452-.2969-.1338-.0703-.2842-.1055-.4502-.1055-.1597,0-.3047.0342-.4355.1006-.1309.0674-.2397.165-.3257.292-.0864.1279-.1519.2842-.1963.4697Z"/><path class="uuid-7dc6e9aa-38e4-41b8-856b-14e8ef1a1dbd" d="m344.1671,189.8971v-6.8203l1.5518-.2393v2.749c.166-.2041.375-.3652.6274-.4834.252-.1182.5249-.1777.8188-.1777.4087,0,.7773.1143,1.1064.3408.3286.2266.5903.5283.7852.9053.1948.376.2925.7979.2925,1.2637,0,.46-.1025.8779-.3066,1.2549-.2046.377-.4805.6768-.8286.9004s-.7358.335-1.1636.335c-.2686,0-.519-.0557-.752-.167-.2334-.1123-.4331-.2666-.5986-.4648v.6035h-1.5327Zm2.481-1.2451c.2295,0,.4321-.0527.6079-.1582s.3145-.25.417-.4355c.1021-.1855.1533-.3965.1533-.6328,0-.2354-.0513-.4453-.1533-.627-.1025-.1816-.2432-.3262-.4214-.4307-.1792-.1055-.3804-.1582-.6035-.1582-.1919,0-.3628.0332-.5127.1006-.1499.0664-.2891.167-.4165.3018v1.6475c.1211.1211.2617.2168.4214.2871s.3286.1055.5078.1055Z"/><path class="uuid-7dc6e9aa-38e4-41b8-856b-14e8ef1a1dbd" d="m350.3356,189.8971v-6.8203l1.5518-.2393v7.0596h-1.5518Z"/><path class="uuid-7dc6e9aa-38e4-41b8-856b-14e8ef1a1dbd" d="m354.5694,189.9733c-.332,0-.6274-.0635-.8862-.1914-.2583-.127-.4595-.3027-.6035-.5264-.1436-.2236-.2153-.4824-.2153-.7764,0-.3066.0767-.5664.23-.7803s.3735-.377.6606-.4883c.2876-.1123.6323-.168,1.0347-.168.1787,0,.3608.0176.5459.0527s.3862.0947.6035.1768v-.4014c0-.2432-.0801-.4238-.2393-.542-.1597-.1182-.4058-.1768-.7378-.1768-.1851,0-.3911.0273-.6177.0811-.2266.0547-.4839.1426-.771.2637l-.5366-1.082c.7983-.3574,1.5552-.5371,2.27-.5371.6836,0,1.2148.1631,1.5952.4893.3799.3252.5698.7822.5698,1.3691v3.1611h-1.5327v-.4307c-.2173.1787-.4341.3076-.6514.3877s-.4565.1191-.7183.1191Zm-.2778-1.5225c0,.1592.0669.2822.2012.3691.1343.0859.3193.1289.5557.1289.166,0,.3223-.0205.4692-.0625.147-.041.2871-.1035.4214-.1865v-.6318c-.1406-.0322-.2812-.0576-.4214-.0771-.1406-.0195-.2842-.0283-.4312-.0283-.2554,0-.4517.041-.5889.124-.1377.083-.2061.2051-.2061.3643Z"/><path class="uuid-7dc6e9aa-38e4-41b8-856b-14e8ef1a1dbd" d="m360.9772,189.9928c-.4785,0-.9116-.1133-1.2979-.3398s-.6929-.5332-.9194-.9199c-.2266-.3857-.3398-.8184-.3398-1.2979,0-.4854.1133-.9189.3398-1.3027.2266-.3828.5332-.6875.9194-.9141s.8193-.3408,1.2979-.3408c.4087,0,.792.0791,1.1494.2354.3579.1562.6611.3809.9102.6748l-.9482.9482c-.1597-.1846-.3228-.3203-.4888-.4072-.166-.0859-.354-.1289-.5649-.1289-.2046,0-.3877.0547-.5508.1631-.1626.1084-.2905.2549-.3833.4404-.0923.1855-.1387.3955-.1387.6318s.0464.4473.1387.6328c.0928.1846.2207.332.3833.4404.1631.1084.3462.1631.5508.1631.2109,0,.3989-.0439.5649-.1299s.3291-.2217.4888-.4072l.9482.9482c-.249.2939-.5522.5195-.9102.6758-.3574.1562-.7407.2344-1.1494.2344Z"/><path class="uuid-7dc6e9aa-38e4-41b8-856b-14e8ef1a1dbd" d="m363.8028,189.8971v-6.8486l1.5518-.2393v4.1094l1.7241-1.9639h1.7144l-2.0112,2.2129,2.1553,2.7295h-1.9351l-1.6475-2.1836v2.1836h-1.5518Z"/><path class="uuid-7dc6e9aa-38e4-41b8-856b-14e8ef1a1dbd" d="m374.0231,192.0524c-.5171-.3135-.9546-.6943-1.3125-1.1445-.3574-.4502-.6274-.957-.8091-1.5186-.1821-.5615-.2729-1.168-.2729-1.8193s.0908-1.2588.2729-1.8203c.1816-.5615.4517-1.0684.8091-1.5186.3579-.4502.7954-.8311,1.3125-1.1445l.8237.9482c-.6069.4023-1.0679.9023-1.3843,1.499-.3159.5977-.4741,1.2754-.4741,2.0361,0,.7529.1582,1.4297.4741,2.0303.3164.5996.7773,1.1016,1.3843,1.5039l-.8237.9482Z"/><path class="uuid-7dc6e9aa-38e4-41b8-856b-14e8ef1a1dbd" d="m375.9098,189.8971v-6.7051h3.3145c.4341,0,.8188.0781,1.1538.2344.3354.1572.5986.3721.7905.6465.1914.2754.2871.5908.2871.9482,0,.3135-.0894.5957-.2681.8486-.1787.252-.415.4541-.709.6074.3511.1406.6338.3467.8477.6182s.3213.5791.3213.9248c0,.3633-.0977.6875-.2925.9717s-.4614.5059-.7998.666c-.3384.1592-.731.2393-1.1782.2393h-3.4673Zm1.6475-4.0137h1.4751c.23,0,.415-.0635.5557-.1914s.2109-.2939.2109-.498c0-.2109-.0688-.3779-.2061-.5029-.1377-.124-.3242-.1865-.5605-.1865h-1.4751v1.3789Zm0,2.7012h1.6094c.249,0,.4468-.0664.5938-.2012.147-.1338.2202-.3125.2202-.5361s-.0732-.4023-.2202-.5361c-.147-.1348-.3447-.2012-.5938-.2012h-1.6094v1.4746Z"/><path class="uuid-7dc6e9aa-38e4-41b8-856b-14e8ef1a1dbd" d="m382.7491,189.8971v-6.8203l1.5518-.2393v7.0596h-1.5518Z"/><path class="uuid-7dc6e9aa-38e4-41b8-856b-14e8ef1a1dbd" d="m386.9825,189.9733c-.332,0-.6274-.0635-.8862-.1914-.2583-.127-.4595-.3027-.6035-.5264-.1436-.2236-.2153-.4824-.2153-.7764,0-.3066.0767-.5664.23-.7803s.3735-.377.6606-.4883c.2876-.1123.6323-.168,1.0347-.168.1787,0,.3608.0176.5459.0527s.3862.0947.6035.1768v-.4014c0-.2432-.0801-.4238-.2393-.542-.1597-.1182-.4058-.1768-.7378-.1768-.1851,0-.3911.0273-.6177.0811-.2266.0547-.4839.1426-.771.2637l-.5366-1.082c.7983-.3574,1.5552-.5371,2.27-.5371.6836,0,1.2148.1631,1.5952.4893.3799.3252.5698.7822.5698,1.3691v3.1611h-1.5327v-.4307c-.2173.1787-.4341.3076-.6514.3877s-.4565.1191-.7183.1191Zm-.2778-1.5225c0,.1592.0669.2822.2012.3691.1343.0859.3193.1289.5557.1289.166,0,.3223-.0205.4692-.0625.147-.041.2871-.1035.4214-.1865v-.6318c-.1406-.0322-.2812-.0576-.4214-.0771-.1406-.0195-.2842-.0283-.4312-.0283-.2554,0-.4517.041-.5889.124-.1377.083-.2061.2051-.2061.3643Z"/><path class="uuid-7dc6e9aa-38e4-41b8-856b-14e8ef1a1dbd" d="m393.3902,189.9928c-.4785,0-.9116-.1133-1.2979-.3398s-.6929-.5332-.9194-.9199c-.2266-.3857-.3398-.8184-.3398-1.2979,0-.4854.1133-.9189.3398-1.3027.2266-.3828.5332-.6875.9194-.9141s.8193-.3408,1.2979-.3408c.4087,0,.792.0791,1.1494.2354.3579.1562.6611.3809.9102.6748l-.9482.9482c-.1597-.1846-.3228-.3203-.4888-.4072-.166-.0859-.354-.1289-.5649-.1289-.2046,0-.3877.0547-.5508.1631-.1626.1084-.2905.2549-.3833.4404-.0923.1855-.1387.3955-.1387.6318s.0464.4473.1387.6328c.0928.1846.2207.332.3833.4404.1631.1084.3462.1631.5508.1631.2109,0,.3989-.0439.5649-.1299s.3291-.2217.4888-.4072l.9482.9482c-.249.2939-.5522.5195-.9102.6758-.3574.1562-.7407.2344-1.1494.2344Z"/><path class="uuid-7dc6e9aa-38e4-41b8-856b-14e8ef1a1dbd" d="m396.2159,189.8971v-6.8486l1.5518-.2393v4.1094l1.7241-1.9639h1.7144l-2.0112,2.2129,2.1553,2.7295h-1.9351l-1.6475-2.1836v2.1836h-1.5518Z"/><path class="uuid-7dc6e9aa-38e4-41b8-856b-14e8ef1a1dbd" d="m401.5514,187.7995v-1.293h3.5249v1.293h-3.5249Z"/><path class="uuid-7dc6e9aa-38e4-41b8-856b-14e8ef1a1dbd" d="m408.2467,183.0866c.5874,0,1.103.1406,1.5469.4219s.7886.6719,1.0347,1.1729c.2456.502.3687,1.0879.3687,1.7578,0,.709-.1357,1.332-.4072,1.8682s-.6514.9531-1.1396,1.25c-.4888.2969-1.0586.4453-1.71.4453-.3701,0-.7437-.0674-1.1206-.2012s-.6831-.3096-.9194-.5273l.8525-1.0527c.1851.1592.3813.2754.5889.3496.2075.0732.4453.1094.7139.1094.3638,0,.6704-.0889.9194-.2676s.4375-.4395.5649-.7812c.1279-.3408.1919-.7549.1919-1.2402-.2109.3008-.4648.5332-.7617.6992s-.6147.249-.9531.249c-.4404,0-.8301-.0859-1.1685-.2588-.3384-.1719-.6035-.4111-.7949-.7178-.1919-.3066-.2876-.6582-.2876-1.0537,0-.4277.1069-.8076.3208-1.1396s.5093-.5957.8862-.791c.3765-.1943.8013-.292,1.2739-.292Zm.019,3.1035c.2744,0,.5283-.0508.7617-.1533.2329-.1016.439-.2451.6177-.4307-.064-.2559-.1582-.4775-.2827-.666s-.2744-.333-.4502-.4355c-.1753-.1025-.3721-.1533-.5889-.1533-.2109,0-.4009.04-.5698.1201-.1694.0791-.3018.1895-.3975.3301-.0962.1406-.144.2998-.144.4785s.0449.3369.1343.4746.2139.2441.3735.3203c.1597.0771.3418.1152.5459.1152Z"/><path class="uuid-7dc6e9aa-38e4-41b8-856b-14e8ef1a1dbd" d="m414.961,189.9831c-.5811,0-1.0889-.1436-1.5229-.4307-.4346-.2871-.7729-.6895-1.0156-1.207s-.3638-1.1211-.3638-1.8105.1211-1.293.3638-1.8105c.2427-.5166.5811-.9189,1.0156-1.2061.4341-.2881.9419-.4316,1.5229-.4316s1.0884.1436,1.5229.4316c.4341.2871.7725.6895,1.0151,1.2061.2427.5176.3643,1.1211.3643,1.8105s-.1216,1.293-.3643,1.8105-.5811.9199-1.0151,1.207c-.4346.2871-.9419.4307-1.5229.4307Zm0-1.3027c.2935,0,.5474-.0869.7612-.2627s.3799-.4248.498-.7471c.1182-.3232.1772-.7012.1772-1.1357,0-.4404-.0591-.8203-.1772-1.1396s-.2842-.5664-.498-.7422-.4678-.2637-.7612-.2637c-.2939,0-.5479.0879-.7617.2637s-.3799.4229-.498.7422-.1772.6992-.1772,1.1396c0,.4346.0591.8125.1772,1.1357.1182.3223.2842.5713.498.7471s.4678.2627.7617.2627Z"/><path class="uuid-7dc6e9aa-38e4-41b8-856b-14e8ef1a1dbd" d="m421.5704,189.9831c-.5811,0-1.0889-.1436-1.5229-.4307-.4346-.2871-.7729-.6895-1.0156-1.207s-.3638-1.1211-.3638-1.8105.1211-1.293.3638-1.8105c.2427-.5166.5811-.9189,1.0156-1.2061.4341-.2881.9419-.4316,1.5229-.4316s1.0884.1436,1.5229.4316c.4341.2871.7725.6895,1.0151,1.2061.2427.5176.3643,1.1211.3643,1.8105s-.1216,1.293-.3643,1.8105-.5811.9199-1.0151,1.207c-.4346.2871-.9419.4307-1.5229.4307Zm0-1.3027c.2935,0,.5474-.0869.7612-.2627s.3799-.4248.498-.7471c.1182-.3232.1772-.7012.1772-1.1357,0-.4404-.0591-.8203-.1772-1.1396s-.2842-.5664-.498-.7422-.4678-.2637-.7612-.2637c-.2939,0-.5479.0879-.7617.2637s-.3799.4229-.498.7422-.1772.6992-.1772,1.1396c0,.4346.0591.8125.1772,1.1357.1182.3223.2842.5713.498.7471s.4678.2627.7617.2627Z"/><path class="uuid-7dc6e9aa-38e4-41b8-856b-14e8ef1a1dbd" d="m425.9186,183.0866c.5176.3135.9546.6943,1.3125,1.1445.3574.4502.6274.957.8096,1.5186.1816.5615.2729,1.1689.2729,1.8203s-.0913,1.2578-.2729,1.8193c-.1821.5615-.4521,1.0684-.8096,1.5186-.3579.4502-.7949.8311-1.3125,1.1445l-.8237-.9482c.6069-.4023,1.0684-.9023,1.3843-1.499.3159-.5977.4741-1.2754.4741-2.0352,0-.7539-.1582-1.4307-.4741-2.0312-.3159-.5996-.7773-1.1016-1.3843-1.5039l.8237-.9482Z"/><path d="m298.6022,61.0641l.6035-1.7627h-.7085v-1.0918h1.082l.3447-.9961h-.9766v-1.0918h1.3506l.603-1.7627h1.3223l-.6035,1.7627h1.2065l.6035-1.7627h1.3125l-.6035,1.7627h.7183v1.0918h-1.0918l-.3447.9961h.9771v1.0918h-1.3506l-.6035,1.7627h-1.3125l.6035-1.7627h-1.207l-.6035,1.7627h-1.3218Zm2.2988-2.8545h1.207l.3447-.9961h-1.2065l-.3452.9961Z"/><path d="m306.0738,61.0641v-6.7051h4.8179v.9775h-3.6685v1.915h2.5288v.9482h-2.5288v2.8643h-1.1494Z"/><path d="m310.298,61.0641l2.6338-6.7051h1.3315l2.6055,6.7051h-1.2451l-.6899-1.877h-2.749l-.6802,1.877h-1.2065Zm2.2222-2.7773h2.0879l-1.0439-2.8359-1.0439,2.8359Z"/><path d="m317.7213,61.0641v-6.7051h4.8179v.9775h-3.6685v1.915h2.5288v.9482h-2.5288v2.8643h-1.1494Z"/><path d="m321.9454,61.0641l2.6338-6.7051h1.3315l2.6055,6.7051h-1.2451l-.6899-1.877h-2.749l-.6802,1.877h-1.2065Zm2.2222-2.7773h2.0879l-1.0439-2.8359-1.0439,2.8359Z"/><path d="m329.3683,61.0641v-6.7051h4.8179v.9775h-3.6685v1.915h2.5288v.9482h-2.5288v2.8643h-1.1494Z"/><path d="m333.5929,61.0641l2.6338-6.7051h1.3315l2.6055,6.7051h-1.2451l-.6899-1.877h-2.749l-.6802,1.877h-1.2065Zm2.2222-2.7773h2.0879l-1.0439-2.8359-1.0439,2.8359Z"/><path d="m298.8321,72.5583v-6.7051h3.2568c.4595,0,.8682.0908,1.2261.2734.3574.1816.6367.4336.8379.7559.2012.3232.3018.6914.3018,1.1064,0,.4287-.1133.8066-.3398,1.1357-.2271.3291-.5283.5762-.9053.7422l1.4082,2.6914h-1.8394l-1.2163-2.4619h-1.0825v2.4619h-1.6475Zm1.6475-3.7549h1.4561c.2554,0,.4614-.0732.6177-.2207.1567-.1465.2349-.3379.2349-.5742,0-.2422-.0781-.4355-.2349-.5791-.1562-.1445-.3623-.2158-.6177-.2158h-1.4561v1.5898Z"/><path d="m308.7745,72.6637c-.498,0-.9595-.0879-1.3843-.2637s-.7983-.4209-1.1206-.7373c-.3228-.3164-.5732-.6836-.752-1.1016s-.2681-.8701-.2681-1.3555.0894-.9375.2681-1.3555.4263-.7852.7422-1.1016c.3164-.3164.6865-.5615,1.1113-.7373.4243-.1758.8828-.2637,1.3745-.2637.562,0,1.0933.1133,1.5947.3398.5015.2275.9082.5479,1.2212.9629l-1.1587,1.0059c-.2109-.2812-.457-.4912-.7378-.6318s-.5874-.2109-.9194-.2109c-.2554,0-.4932.0498-.7139.1484-.2202.0986-.4102.2393-.5698.4209-.1597.1826-.2842.3936-.3735.6328s-.1338.5029-.1338.79.0459.5537.1387.7998c.0923.2461.2217.458.3882.6367.1655.1787.3604.3193.584.4219s.4692.1533.7378.1533c.2554,0,.4868-.0479.6943-.1436s.3848-.2285.5317-.3975c.1465-.1699.249-.3623.3062-.5801h-1.6763v-1.3887h3.4482v.4697c0,.5039-.0811.9688-.2441,1.3936-.1626.4248-.394.793-.6943,1.1064-.3003.3125-.6528.5557-1.0586.7275-.4053.1729-.8506.2588-1.3359.2588Z"/><path d="m313.2862,72.5583v-6.7051h3.3145c.4341,0,.8188.0781,1.1538.2344.3354.1572.5986.3721.7905.6465.1914.2754.2871.5908.2871.9482,0,.3135-.0894.5957-.2681.8486-.1787.252-.415.4541-.709.6074.3511.1406.6338.3467.8477.6182s.3213.5791.3213.9248c0,.3633-.0977.6875-.2925.9717s-.4614.5059-.7998.666c-.3384.1592-.731.2393-1.1782.2393h-3.4673Zm1.6475-4.0137h1.4751c.23,0,.415-.0635.5557-.1914s.2109-.2939.2109-.498c0-.2109-.0688-.3779-.2061-.5029-.1377-.124-.3242-.1865-.5605-.1865h-1.4751v1.3789Zm0,2.7012h1.6094c.249,0,.4468-.0664.5938-.2012.147-.1338.2202-.3125.2202-.5361s-.0732-.4023-.2202-.5361c-.147-.1348-.3447-.2012-.5938-.2012h-1.6094v1.4746Z"/><path d="m322.1651,72.5583v-.7568l2.7495-2.873c.1592-.1729.2871-.3291.3828-.4697s.1646-.2744.2061-.4023.062-.2646.062-.4121c0-.2803-.1147-.5156-.3447-.7041-.23-.1875-.5234-.2822-.8809-.2822-.3003,0-.5845.0625-.8525.1865-.2686.125-.562.3369-.8813.6377l-.5845-.7188c.3643-.332.7407-.584,1.1304-.7568s.7949-.2588,1.2163-.2588c.4409,0,.8252.0781,1.1543.2344.3291.1572.5874.3721.7759.6475.1885.2744.2827.5938.2827.957,0,.2178-.0288.4219-.0864.6133-.0571.1914-.1548.3877-.292.5889s-.3271.4268-.5698.6758l-2.1362,2.2129,3.209-.0195v.9004h-4.5405Z"/><path d="m329.8277,72.6637c-.9067,0-1.6919-.3037-2.356-.9102l.6318-.7188c.2876.2559.5703.4414.8477.5557.2778.1152.583.1729.915.1729.2871,0,.5376-.0547.752-.1631.2139-.1084.3799-.2637.498-.4648s.1772-.4287.1772-.6846c0-.377-.1343-.6816-.4023-.915-.2681-.2324-.6196-.3496-1.0537-.3496-.2236,0-.4438.0293-.6611.0869-.2168.0576-.4404.1465-.6704.2676l-.728-.2197.1533-3.4678h4.0708v.9004h-3.1797l-.0962,1.9443c.23-.1152.46-.1992.6899-.2539.23-.0537.4692-.0811.7183-.0811.4468,0,.8384.085,1.1733.2539.3354.1689.5938.4072.7759.7139.1821.3057.2729.6602.2729,1.0625,0,.4473-.1055.8418-.3159,1.1836-.2109.3418-.5063.6074-.8862.7998-.3799.1914-.8223.2871-1.3267.2871Z"/><path d="m336.0255,72.654c-.543,0-1.02-.1455-1.4321-.4355-.4116-.291-.7344-.6943-.9673-1.2119-.2334-.5176-.3496-1.1172-.3496-1.8008s.1162-1.2852.3496-1.8057c.2329-.5205.5557-.9258.9673-1.2168.4121-.29.8892-.4355,1.4321-.4355.5425,0,1.02.1455,1.4321.4355.4116.291.7339.6963.9673,1.2168.2329.5205.3496,1.1221.3496,1.8057s-.1167,1.2832-.3496,1.8008c-.2334.5176-.5557.9209-.9673,1.2119-.4121.29-.8896.4355-1.4321.4355Zm0-.9287c.3447,0,.6431-.1045.8955-.3115.2524-.208.4487-.501.5894-.8809.1401-.3799.2104-.8223.2104-1.3271,0-.5176-.0703-.9639-.2104-1.3408-.1406-.377-.3369-.6689-.5894-.877-.2524-.207-.5508-.3105-.8955-.3105s-.645.1035-.9004.3105c-.2554.208-.4536.5-.5938.877-.1406.377-.2109.8232-.2109,1.3408,0,.5049.0703.9473.2109,1.3271.1401.3799.3384.6729.5938.8809.2554.207.5557.3115.9004.3115Z"/><path d="m339.2818,74.1481l.6323-2.5283h1.1016l-.9292,2.5283h-.8047Z"/><path d="m344.0997,72.5583v-.7568l2.7495-2.873c.1592-.1729.2871-.3291.3828-.4697s.1646-.2744.2061-.4023.062-.2646.062-.4121c0-.2803-.1147-.5156-.3447-.7041-.23-.1875-.5234-.2822-.8809-.2822-.3003,0-.5845.0625-.8525.1865-.2686.125-.562.3369-.8813.6377l-.5845-.7188c.3643-.332.7407-.584,1.1304-.7568s.7949-.2588,1.2163-.2588c.4409,0,.8252.0781,1.1543.2344.3291.1572.5874.3721.7759.6475.1885.2744.2827.5938.2827.957,0,.2178-.0288.4219-.0864.6133-.0571.1914-.1548.3877-.292.5889s-.3271.4268-.5698.6758l-2.1362,2.2129,3.209-.0195v.9004h-4.5405Z"/><path d="m351.7623,72.6637c-.9067,0-1.6919-.3037-2.356-.9102l.6318-.7188c.2876.2559.5703.4414.8477.5557.2778.1152.583.1729.915.1729.2871,0,.5376-.0547.752-.1631.2139-.1084.3799-.2637.498-.4648s.1772-.4287.1772-.6846c0-.377-.1343-.6816-.4023-.915-.2681-.2324-.6196-.3496-1.0537-.3496-.2236,0-.4438.0293-.6611.0869-.2168.0576-.4404.1465-.6704.2676l-.728-.2197.1533-3.4678h4.0708v.9004h-3.1797l-.0962,1.9443c.23-.1152.46-.1992.6899-.2539.23-.0537.4692-.0811.7183-.0811.4468,0,.8384.085,1.1733.2539.3354.1689.5938.4072.7759.7139.1821.3057.2729.6602.2729,1.0625,0,.4473-.1055.8418-.3159,1.1836-.2109.3418-.5063.6074-.8862.7998-.3799.1914-.8223.2871-1.3267.2871Z"/><path d="m357.9601,72.654c-.543,0-1.02-.1455-1.4321-.4355-.4116-.291-.7344-.6943-.9673-1.2119-.2334-.5176-.3496-1.1172-.3496-1.8008s.1162-1.2852.3496-1.8057c.2329-.5205.5557-.9258.9673-1.2168.4121-.29.8892-.4355,1.4321-.4355.5425,0,1.02.1455,1.4321.4355.4116.291.7339.6963.9673,1.2168.2329.5205.3496,1.1221.3496,1.8057s-.1167,1.2832-.3496,1.8008c-.2334.5176-.5557.9209-.9673,1.2119-.4121.29-.8896.4355-1.4321.4355Zm0-.9287c.3447,0,.6431-.1045.8955-.3115.2524-.208.4487-.501.5894-.8809.1401-.3799.2104-.8223.2104-1.3271,0-.5176-.0703-.9639-.2104-1.3408-.1406-.377-.3369-.6689-.5894-.877-.2524-.207-.5508-.3105-.8955-.3105s-.645.1035-.9004.3105c-.2554.208-.4536.5-.5938.877-.1406.377-.2109.8232-.2109,1.3408,0,.5049.0703.9473.2109,1.3271.1401.3799.3384.6729.5938.8809.2554.207.5557.3115.9004.3115Z"/><path d="m361.2164,74.1481l.6323-2.5283h1.1016l-.9292,2.5283h-.8047Z"/><path d="m366.0343,72.5583v-.7568l2.7495-2.873c.1592-.1729.2871-.3291.3828-.4697s.1646-.2744.2061-.4023.062-.2646.062-.4121c0-.2803-.1147-.5156-.3447-.7041-.23-.1875-.5234-.2822-.8809-.2822-.3003,0-.5845.0625-.8525.1865-.2686.125-.562.3369-.8813.6377l-.5845-.7188c.3643-.332.7407-.584,1.1304-.7568s.7949-.2588,1.2163-.2588c.4409,0,.8252.0781,1.1543.2344.3291.1572.5874.3721.7759.6475.1885.2744.2827.5938.2827.957,0,.2178-.0288.4219-.0864.6133-.0571.1914-.1548.3877-.292.5889s-.3271.4268-.5698.6758l-2.1362,2.2129,3.209-.0195v.9004h-4.5405Z"/><path d="m373.6974,72.6637c-.9067,0-1.6919-.3037-2.356-.9102l.6318-.7188c.2876.2559.5703.4414.8477.5557.2778.1152.583.1729.915.1729.2871,0,.5376-.0547.752-.1631.2139-.1084.3799-.2637.498-.4648s.1772-.4287.1772-.6846c0-.377-.1343-.6816-.4023-.915-.2681-.2324-.6196-.3496-1.0537-.3496-.2236,0-.4438.0293-.6611.0869-.2168.0576-.4404.1465-.6704.2676l-.728-.2197.1533-3.4678h4.0708v.9004h-3.1797l-.0962,1.9443c.23-.1152.46-.1992.6899-.2539.23-.0537.4692-.0811.7183-.0811.4468,0,.8384.085,1.1733.2539.3354.1689.5938.4072.7759.7139.1821.3057.2729.6602.2729,1.0625,0,.4473-.1055.8418-.3159,1.1836-.2109.3418-.5063.6074-.8862.7998-.3799.1914-.8223.2871-1.3267.2871Z"/><path d="m379.8946,72.654c-.543,0-1.02-.1455-1.4321-.4355-.4116-.291-.7344-.6943-.9673-1.2119-.2334-.5176-.3496-1.1172-.3496-1.8008s.1162-1.2852.3496-1.8057c.2329-.5205.5557-.9258.9673-1.2168.4121-.29.8892-.4355,1.4321-.4355.5425,0,1.02.1455,1.4321.4355.4116.291.7339.6963.9673,1.2168.2329.5205.3496,1.1221.3496,1.8057s-.1167,1.2832-.3496,1.8008c-.2334.5176-.5557.9209-.9673,1.2119-.4121.29-.8896.4355-1.4321.4355Zm0-.9287c.3447,0,.6431-.1045.8955-.3115.2524-.208.4487-.501.5894-.8809.1401-.3799.2104-.8223.2104-1.3271,0-.5176-.0703-.9639-.2104-1.3408-.1406-.377-.3369-.6689-.5894-.877-.2524-.207-.5508-.3105-.8955-.3105s-.645.1035-.9004.3105c-.2554.208-.4536.5-.5938.877-.1406.377-.2109.8232-.2109,1.3408,0,.5049.0703.9473.2109,1.3271.1401.3799.3384.6729.5938.8809.2554.207.5557.3115.9004.3115Z"/><path d="m298.8321,84.0524v-6.7051h1.6475v5.2969h3.3237v1.4082h-4.9712Z"/><path d="m305.6715,78.3532c-.2363,0-.4409-.0859-.6133-.2588-.1724-.1719-.2583-.377-.2583-.6133,0-.2422.0859-.4482.2583-.6172s.377-.2539.6133-.2539c.2427,0,.4482.085.6177.2539.1689.1689.2539.375.2539.6172,0,.2363-.085.4414-.2539.6133-.1694.1729-.375.2588-.6177.2588Zm-.7759,5.6992v-4.9424h1.5518v4.9424h-1.5518Z"/><path d="m309.9908,86.15c-.3701,0-.7295-.0381-1.0776-.1152-.3477-.0762-.6719-.1846-.9722-.3252l.479-1.1211c.2744.1279.5366.2236.7856.2881.249.0635.4917.0957.728.0957.3701,0,.6494-.0771.8379-.2305s.2827-.3799.2827-.6797v-.6709c-.1597.1982-.3672.3564-.6226.4746s-.5269.1768-.8145.1768c-.4023,0-.7695-.1113-1.1016-.335s-.5952-.5234-.79-.9004-.292-.7949-.292-1.2549.1021-.876.3062-1.25c.2046-.374.4805-.6709.8286-.8906.3481-.2207.7358-.3311,1.1641-.3311.2617,0,.5088.0527.7422.1582.2329.1055.4326.2607.5986.4648v-.5938h1.5229v4.9707c0,.6641-.2236,1.1748-.6704,1.5332-.4473.3574-1.0918.5361-1.9351.5361Zm.144-3.3721c.1851,0,.354-.0332.5073-.1006.1533-.0664.2905-.1641.4121-.292v-1.6475c-.1216-.127-.2603-.2236-.4165-.2871-.1567-.0635-.3242-.0957-.5029-.0957-.2236,0-.4248.0527-.6035.1582-.1792.1055-.3193.2471-.4214.4258-.1025.1787-.1533.3867-.1533.623,0,.2295.0508.4375.1533.6221.1021.1855.2422.3311.4214.4365.1787.1055.3799.1572.6035.1572Z"/><path d="m313.8033,84.0524v-6.8203l1.5518-.2393v2.9219c.1914-.2881.4199-.5059.6846-.6562.2651-.1504.5571-.2256.8765-.2256s.6021.0723.8477.2158c.2461.1436.439.3418.5796.5938.1406.2529.2109.5449.2109.877v3.333h-1.5518v-2.8828c0-.2812-.0752-.5049-.2251-.6709-.1504-.166-.3496-.249-.5986-.249-.166,0-.3179.0332-.4551.1006s-.2603.1709-.3687.3115v3.3906h-1.5518Z"/><path d="m322.0025,84.1481c-.5811,0-1.022-.1338-1.3218-.4023-.3003-.2686-.4502-.6641-.4502-1.1875v-2.251h-.958v-1.1973h.958v-1.3701l1.5518-.3154v1.6855h1.3218v1.1973h-1.3218v1.9443c0,.2168.0493.3701.1484.46.0986.0889.2666.1338.5029.1338.0894,0,.1787-.0059.2681-.0186.0894-.0137.2109-.042.3638-.0869v1.2549c-.1401.0449-.3125.082-.5171.1104s-.3862.043-.5459.043Z"/><path d="m328.3624,86.15c-.3701,0-.7295-.0381-1.0776-.1152-.3477-.0762-.6719-.1846-.9722-.3252l.479-1.1211c.2744.1279.5366.2236.7856.2881.249.0635.4917.0957.728.0957.3701,0,.6494-.0771.8379-.2305s.2827-.3799.2827-.6797v-.6709c-.1597.1982-.3672.3564-.6226.4746s-.5269.1768-.8145.1768c-.4023,0-.7695-.1113-1.1016-.335s-.5952-.5234-.79-.9004-.292-.7949-.292-1.2549.1021-.876.3062-1.25c.2046-.374.4805-.6709.8286-.8906.3481-.2207.7358-.3311,1.1641-.3311.2617,0,.5088.0527.7422.1582.2329.1055.4326.2607.5986.4648v-.5938h1.5229v4.9707c0,.6641-.2236,1.1748-.6704,1.5332-.4473.3574-1.0918.5361-1.9351.5361Zm.144-3.3721c.1851,0,.354-.0332.5073-.1006.1533-.0664.2905-.1641.4121-.292v-1.6475c-.1216-.127-.2603-.2236-.4165-.2871-.1567-.0635-.3242-.0957-.5029-.0957-.2236,0-.4248.0527-.6035.1582-.1792.1055-.3193.2471-.4214.4258-.1025.1787-.1533.3867-.1533.623,0,.2295.0508.4375.1533.6221.1021.1855.2422.3311.4214.4365.1787.1055.3799.1572.6035.1572Z"/><path d="m332.1749,84.0524v-4.9424h1.5518v1.1201c.1597-.415.3496-.7207.5698-.9189s.4771-.2969.771-.2969c.1084.0059.1978.0156.2681.0283s.1533.0449.249.0957v1.332c-.0957-.0518-.2075-.0898-.335-.1152-.1279-.0254-.2588-.0381-.3926-.0381-.23,0-.4443.0557-.6421.167-.1978.1123-.3608.2607-.4883.4453v3.123h-1.5518Z"/><path d="m337.7877,84.1286c-.332,0-.6274-.0635-.8862-.1914-.2583-.127-.4595-.3027-.6035-.5264-.1436-.2236-.2153-.4824-.2153-.7764,0-.3066.0767-.5664.23-.7803s.3735-.377.6606-.4883c.2876-.1123.6323-.168,1.0347-.168.1787,0,.3608.0176.5459.0527s.3862.0947.6035.1768v-.4014c0-.2432-.0801-.4238-.2393-.542-.1597-.1182-.4058-.1768-.7378-.1768-.1851,0-.3911.0273-.6177.0811-.2266.0547-.4839.1426-.771.2637l-.5366-1.082c.7983-.3574,1.5552-.5371,2.27-.5371.6836,0,1.2148.1631,1.5952.4893.3799.3252.5698.7822.5698,1.3691v3.1611h-1.5327v-.4307c-.2173.1787-.4341.3076-.6514.3877s-.4565.1191-.7183.1191Zm-.2778-1.5225c0,.1592.0669.2822.2012.3691.1343.0859.3193.1289.5557.1289.166,0,.3223-.0205.4692-.0625.147-.041.2871-.1035.4214-.1865v-.6318c-.1406-.0322-.2812-.0576-.4214-.0771-.1406-.0195-.2842-.0283-.4312-.0283-.2554,0-.4517.041-.5889.124-.1377.083-.2061.2051-.2061.3643Z"/><path d="m342.2989,86.15c-.2041,0-.418-.0254-.6416-.0762v-1.3027c.0576.0059.126.0137.2061.0234.0796.0098.1641.0146.2539.0146.2104,0,.3784-.043.5029-.1299.1245-.0859.2251-.209.3018-.3682l.0762-.1631-1.8198-5.0381h1.7148l.9863,3.1895,1.1304-3.1895h1.6763l-2.2222,5.498c-.1533.377-.3242.6787-.5127.9053s-.415.3896-.6797.4883c-.2651.0986-.5894.1484-.9727.1484Z"/><path d="m351.7916,86.2077c-.5171-.3135-.9546-.6943-1.3125-1.1445-.3574-.4502-.6274-.957-.8091-1.5186-.1821-.5615-.2729-1.168-.2729-1.8193s.0908-1.2588.2729-1.8203c.1816-.5615.4517-1.0684.8091-1.5186.3579-.4502.7954-.8311,1.3125-1.1445l.8237.9482c-.6069.4023-1.0679.9023-1.3843,1.499-.3159.5977-.4741,1.2754-.4741,2.0361,0,.7529.1582,1.4297.4741,2.0303.3164.5996.7773,1.1016,1.3843,1.5039l-.8237.9482Z"/><path d="m353.6783,84.0524v-6.7051h3.3145c.4341,0,.8188.0781,1.1538.2344.3354.1572.5986.3721.7905.6465.1914.2754.2871.5908.2871.9482,0,.3135-.0894.5957-.2681.8486-.1787.252-.415.4541-.709.6074.3511.1406.6338.3467.8477.6182s.3213.5791.3213.9248c0,.3633-.0977.6875-.2925.9717s-.4614.5059-.7998.666c-.3384.1592-.731.2393-1.1782.2393h-3.4673Zm1.6475-4.0137h1.4751c.23,0,.415-.0635.5557-.1914s.2109-.2939.2109-.498c0-.2109-.0688-.3779-.2061-.5029-.1377-.124-.3242-.1865-.5605-.1865h-1.4751v1.3789Zm0,2.7012h1.6094c.249,0,.4468-.0664.5938-.2012.147-.1338.2202-.3125.2202-.5361s-.0732-.4023-.2202-.5361c-.147-.1348-.3447-.2012-.5938-.2012h-1.6094v1.4746Z"/><path d="m360.5177,84.0524v-6.8203l1.5518-.2393v7.0596h-1.5518Z"/><path d="m364.7511,84.1286c-.332,0-.6274-.0635-.8862-.1914-.2583-.127-.4595-.3027-.6035-.5264-.1436-.2236-.2153-.4824-.2153-.7764,0-.3066.0767-.5664.23-.7803s.3735-.377.6606-.4883c.2876-.1123.6323-.168,1.0347-.168.1787,0,.3608.0176.5459.0527s.3862.0947.6035.1768v-.4014c0-.2432-.0801-.4238-.2393-.542-.1597-.1182-.4058-.1768-.7378-.1768-.1851,0-.3911.0273-.6177.0811-.2266.0547-.4839.1426-.771.2637l-.5366-1.082c.7983-.3574,1.5552-.5371,2.27-.5371.6836,0,1.2148.1631,1.5952.4893.3799.3252.5698.7822.5698,1.3691v3.1611h-1.5327v-.4307c-.2173.1787-.4341.3076-.6514.3877s-.4565.1191-.7183.1191Zm-.2778-1.5225c0,.1592.0669.2822.2012.3691.1343.0859.3193.1289.5557.1289.166,0,.3223-.0205.4692-.0625.147-.041.2871-.1035.4214-.1865v-.6318c-.1406-.0322-.2812-.0576-.4214-.0771-.1406-.0195-.2842-.0283-.4312-.0283-.2554,0-.4517.041-.5889.124-.1377.083-.2061.2051-.2061.3643Z"/><path d="m371.1588,84.1481c-.4785,0-.9116-.1133-1.2979-.3398s-.6929-.5332-.9194-.9199c-.2266-.3857-.3398-.8184-.3398-1.2979,0-.4854.1133-.9189.3398-1.3027.2266-.3828.5332-.6875.9194-.9141s.8193-.3408,1.2979-.3408c.4087,0,.792.0791,1.1494.2354.3579.1562.6611.3809.9102.6748l-.9482.9482c-.1597-.1846-.3228-.3203-.4888-.4072-.166-.0859-.354-.1289-.5649-.1289-.2046,0-.3877.0547-.5508.1631-.1626.1084-.2905.2549-.3833.4404-.0923.1855-.1387.3955-.1387.6318s.0464.4473.1387.6328c.0928.1846.2207.332.3833.4404.1631.1084.3462.1631.5508.1631.2109,0,.3989-.0439.5649-.1299s.3291-.2217.4888-.4072l.9482.9482c-.249.2939-.5522.5195-.9102.6758-.3574.1562-.7407.2344-1.1494.2344Z"/><path d="m373.985,84.0524v-6.8486l1.5518-.2393v4.1094l1.7241-1.9639h1.7144l-2.0112,2.2129,2.1553,2.7295h-1.9351l-1.6475-2.1836v2.1836h-1.5518Z"/><path d="m379.3199,81.9547v-1.293h3.5249v1.293h-3.5249Z"/><path d="m384.7223,84.0524v-5.1729l-1.3218.5469v-1.3027l1.8677-.7764h.9292v6.7051h-1.4751Z"/><path d="m390.086,84.1383c-.5811,0-1.0889-.1436-1.5229-.4307-.4346-.2871-.7729-.6895-1.0156-1.207s-.3638-1.1211-.3638-1.8105.1211-1.293.3638-1.8105c.2427-.5166.5811-.9189,1.0156-1.2061.4341-.2881.9419-.4316,1.5229-.4316s1.0884.1436,1.5229.4316c.4341.2871.7725.6895,1.0151,1.2061.2427.5176.3643,1.1211.3643,1.8105s-.1216,1.293-.3643,1.8105-.5811.9199-1.0151,1.207c-.4346.2871-.9419.4307-1.5229.4307Zm0-1.3027c.2935,0,.5474-.0869.7612-.2627s.3799-.4248.498-.7471c.1182-.3232.1772-.7012.1772-1.1357,0-.4404-.0591-.8203-.1772-1.1396s-.2842-.5664-.498-.7422-.4678-.2637-.7612-.2637c-.2939,0-.5479.0879-.7617.2637s-.3799.4229-.498.7422-.1772.6992-.1772,1.1396c0,.4346.0591.8125.1772,1.1357.1182.3223.2842.5713.498.7471s.4678.2627.7617.2627Z"/><path d="m396.6954,84.1383c-.5811,0-1.0889-.1436-1.5229-.4307-.4346-.2871-.7729-.6895-1.0156-1.207s-.3638-1.1211-.3638-1.8105.1211-1.293.3638-1.8105c.2427-.5166.5811-.9189,1.0156-1.2061.4341-.2881.9419-.4316,1.5229-.4316s1.0884.1436,1.5229.4316c.4341.2871.7725.6895,1.0151,1.2061.2427.5176.3643,1.1211.3643,1.8105s-.1216,1.293-.3643,1.8105-.5811.9199-1.0151,1.207c-.4346.2871-.9419.4307-1.5229.4307Zm0-1.3027c.2935,0,.5474-.0869.7612-.2627s.3799-.4248.498-.7471c.1182-.3232.1772-.7012.1772-1.1357,0-.4404-.0591-.8203-.1772-1.1396s-.2842-.5664-.498-.7422-.4678-.2637-.7612-.2637c-.2939,0-.5479.0879-.7617.2637s-.3799.4229-.498.7422-.1772.6992-.1772,1.1396c0,.4346.0591.8125.1772,1.1357.1182.3223.2842.5713.498.7471s.4678.2627.7617.2627Z"/><path d="m401.0436,77.2418c.5176.3135.9546.6943,1.3125,1.1445.3574.4502.6274.957.8096,1.5186.1816.5615.2729,1.1689.2729,1.8203s-.0913,1.2578-.2729,1.8193c-.1821.5615-.4521,1.0684-.8096,1.5186-.3579.4502-.7949.8311-1.3125,1.1445l-.8237-.9482c.6069-.4023,1.0684-.9023,1.3843-1.499.3159-.5977.4741-1.2754.4741-2.0352,0-.7539-.1582-1.4307-.4741-2.0312-.3159-.5996-.7773-1.1016-1.3843-1.5039l.8237-.9482Z"/></svg>