<svg id="e37c50b5-045b-47d4-b65a-e93741c2bc6e" data-name="Layer 1" xmlns="http://www.w3.org/2000/svg" viewBox="0 0 360 211"><defs><style>.abcf8ad3-686b-4e0f-ae34-15e6029a3010{fill:#ed0000;}.a0f0a972-36f3-40c1-a30d-c5d1dc3df70e,.a1274131-c274-441d-92bb-c94c66988903,.af45ecfc-3c8f-457e-84ae-4515ca5a9c97,.f62d1e92-8a3d-4a5e-8d61-c54cb828cbe4{fill:none;}.a0f0a972-36f3-40c1-a30d-c5d1dc3df70e,.a1274131-c274-441d-92bb-c94c66988903,.f62d1e92-8a3d-4a5e-8d61-c54cb828cbe4{stroke:#316dc1;stroke-linecap:round;stroke-linejoin:round;stroke-width:0.58335px;}.f62d1e92-8a3d-4a5e-8d61-c54cb828cbe4{stroke-dasharray:3.10299 3.10299;}.a5f294fb-6514-40f1-bf24-f2a82fd65c3a{fill:#316dc1;opacity:0.2;}.a0f0a972-36f3-40c1-a30d-c5d1dc3df70e{stroke-dasharray:3.10282 3.10282;}</style></defs><path d="M238.22118,96.228a13.2978,13.2978,0,0,1,.29064,3.2081c0,13.94525-16.97623,16.37145-28.70032,16.37145-45.60823,0-79.63621-28.34539-79.63621-36.98568a5.86652,5.86652,0,0,1,.20786-1.822L126.947,85.491a17.27694,17.27694,0,0,0-1.41457,6.87139c0,16.97756,38.39929,42.64521,82.25955,42.64521,19.39983,0,34.156-7.2755,34.156-20.41312,0-1.01077,0-1.81923-1.6173-9.4991L238.22118,96.228Z"/><path class="abcf8ad3-686b-4e0f-ae34-15e6029a3010" d="M240.33067,105.09536c1.6173,7.67987,1.6173,8.48833,1.6173,9.4991,0,13.13762-14.75614,20.41312-34.156,20.41312-43.86026,0-82.25955-25.66671-82.25955-42.64427A17.28175,17.28175,0,0,1,126.947,85.491c-15.76531.80844-36.17771,3.63761-36.17771,21.625,0,29.507,69.931,65.88772,125.30785,65.88772,42.44391,0,53.15354-19.20009,53.15354-34.35751,0-11.92678-10.30649-25.4654-28.9-33.55084M209.8115,115.80757c11.72409,0,28.70032-2.42537,28.70032-16.37145a13.2978,13.2978,0,0,0-.29064-3.2081l-6.98381-30.34143c-1.61914-6.669-3.032-9.70142-14.7552-15.563-9.09519-4.64743-28.9019-12.32731-34.763-12.32731-5.45731,0-7.07279,7.07285-13.54144,7.07285-6.26387,0-10.91271-5.25452-16.7743-5.25452-5.65775,0-9.29769,3.83994-12.12628,11.7231,0,0-7.88311,22.23114-8.89354,25.46307a5.84585,5.84585,0,0,0-.20832,1.8211c0,8.64029,34.028,36.98568,79.63621,36.98568"/><line class="a1274131-c274-441d-92bb-c94c66988903" x1="52.7732" y1="173.00378" x2="54.32886" y2="173.00378"/><line class="f62d1e92-8a3d-4a5e-8d61-c54cb828cbe4" x1="57.43164" y1="173.00378" x2="304.11963" y2="173.00378"/><line class="a1274131-c274-441d-92bb-c94c66988903" x1="305.67115" y1="173.00378" x2="307.22681" y2="173.00378"/><line class="a1274131-c274-441d-92bb-c94c66988903" x1="52.7732" y1="135.00768" x2="54.32886" y2="135.00768"/><line class="f62d1e92-8a3d-4a5e-8d61-c54cb828cbe4" x1="57.43164" y1="135.00768" x2="304.11963" y2="135.00768"/><line class="a1274131-c274-441d-92bb-c94c66988903" x1="305.67115" y1="135.00768" x2="307.22681" y2="135.00768"/><path class="a5f294fb-6514-40f1-bf24-f2a82fd65c3a" d="M52.77315.00015V210.99991h254.4537V.00015ZM269.23072,173.00368H90.76937V37.99628H269.23072Z"/><circle class="a5f294fb-6514-40f1-bf24-f2a82fd65c3a" cx="71.77121" cy="154.00574" r="18.99816"/><circle class="a5f294fb-6514-40f1-bf24-f2a82fd65c3a" cx="219.51366" cy="154.00574" r="18.99816"/><circle class="a5f294fb-6514-40f1-bf24-f2a82fd65c3a" cx="219.51366" cy="18.99816" r="18.99816"/><circle class="a5f294fb-6514-40f1-bf24-f2a82fd65c3a" cx="219.51366" cy="192.00184" r="18.99816"/><circle class="a5f294fb-6514-40f1-bf24-f2a82fd65c3a" cx="288.22879" cy="154.00574" r="18.99816"/><line class="a1274131-c274-441d-92bb-c94c66988903" x1="200.51538" y1="0.00011" x2="200.51538" y2="1.55553"/><line class="a0f0a972-36f3-40c1-a30d-c5d1dc3df70e" x1="200.51538" y1="4.65832" x2="200.51538" y2="207.89294"/><line class="a1274131-c274-441d-92bb-c94c66988903" x1="200.51538" y1="209.44421" x2="200.51538" y2="210.99987"/><line class="a1274131-c274-441d-92bb-c94c66988903" x1="238.51172" y1="0.00011" x2="238.51172" y2="1.55553"/><line class="a0f0a972-36f3-40c1-a30d-c5d1dc3df70e" x1="238.51172" y1="4.65832" x2="238.51172" y2="207.89294"/><line class="a1274131-c274-441d-92bb-c94c66988903" x1="238.51172" y1="209.44421" x2="238.51172" y2="210.99987"/><rect class="af45ecfc-3c8f-457e-84ae-4515ca5a9c97" y="0.00015" width="360" height="210.99975"/></svg>