<svg xmlns="http://www.w3.org/2000/svg" xmlns:xlink="http://www.w3.org/1999/xlink" viewBox="0 0 262 180"><defs><style>.ed1f58ef-2386-42df-aa58-4a98431a6ab4{fill:none;}.b67b0569-bd89-40af-baf6-196a2c308a95{clip-path:url(#ae09a446-a6e0-4308-84d7-b4b1dffe4653);}.ab24eedb-5de8-4721-b30a-589102f79804{fill:#f3f3f3;}.f8e567ac-e624-482f-9870-c7e1dcbbb78a{fill:#c9c9c9;}</style><clipPath id="ae09a446-a6e0-4308-84d7-b4b1dffe4653"><rect class="ed1f58ef-2386-42df-aa58-4a98431a6ab4" width="262" height="180"/></clipPath></defs><g id="edcbf7d0-5173-48a4-b7a9-e092de942a6a" data-name="Layer 3"><g class="b67b0569-bd89-40af-baf6-196a2c308a95"><rect class="ab24eedb-5de8-4721-b30a-589102f79804" width="262" height="180"/><path class="f8e567ac-e624-482f-9870-c7e1dcbbb78a" d="M19.5317,7.58362a11.21426,11.21426,0,0,1,.38777,2.2762c0,3.1483-3.536,4.89163-8.18484,4.89163-10.51035,0-19.712-6.15067-19.712-10.219a4.1401,4.1401,0,0,1,.339-1.6466c-3.77786.19373-8.66943.87157-8.66943,5.182,0,7.07092,16.75766,15.78868,30.02787,15.78868,10.1709,0,12.73727-4.60074,12.73727-8.23315,0-2.85792-2.46976-6.10221-6.92558-8.03976m-7.31314,2.567c2.80946,0,6.87728-.58142,6.87728-3.92312a3.177,3.177,0,0,0-.06964-.76888L17.35288-1.812c-.388-1.59821-.7268-2.32487-3.53581-3.7295-2.17972-1.11366-6.92581-2.954-8.33048-2.954-1.30762,0-1.69475,1.69476-3.24484,1.69476-1.50113,0-2.61515-1.25892-4.01965-1.25892-1.35578,0-2.228.92-2.906,2.809,0,0-1.889,5.32739-2.13117,6.10187a1.40441,1.40441,0,0,0-.0499.43639c0,2.07048,8.15427,8.86305,19.08349,8.86305"/><path class="f8e567ac-e624-482f-9870-c7e1dcbbb78a" d="M83.79989,7.58362a11.21426,11.21426,0,0,1,.38777,2.2762c0,3.1483-3.536,4.89163-8.18484,4.89163-10.51035,0-19.712-6.15067-19.712-10.219a4.1401,4.1401,0,0,1,.339-1.6466c-3.77786.19373-8.66943.87157-8.66943,5.182,0,7.07092,16.75767,15.78868,30.02787,15.78868,10.1709,0,12.73728-4.60074,12.73728-8.23315,0-2.85792-2.46977-6.10221-6.92559-8.03976m-7.31314,2.567c2.80947,0,6.87728-.58142,6.87728-3.92312a3.17654,3.17654,0,0,0-.06964-.76888L81.62107-1.812c-.388-1.59821-.7268-2.32487-3.53581-3.7295-2.17972-1.11366-6.92581-2.954-8.33047-2.954-1.30763,0-1.69476,1.69476-3.24484,1.69476-1.50114,0-2.61516-1.25892-4.01966-1.25892-1.35577,0-2.228.92-2.906,2.809,0,0-1.889,5.32739-2.13116,6.10187a1.40411,1.40411,0,0,0-.0499.43639c0,2.07048,8.15426,8.86305,19.08348,8.86305"/><path class="f8e567ac-e624-482f-9870-c7e1dcbbb78a" d="M148.06808,7.58362a11.214,11.214,0,0,1,.38778,2.2762c0,3.1483-3.536,4.89163-8.18485,4.89163-10.51035,0-19.712-6.15067-19.712-10.219a4.1401,4.1401,0,0,1,.339-1.6466c-3.77786.19373-8.66943.87157-8.66943,5.182,0,7.07092,16.75767,15.78868,30.02788,15.78868,10.17089,0,12.73727-4.60074,12.73727-8.23315,0-2.85792-2.46977-6.10221-6.92559-8.03976m-7.31313,2.567c2.80946,0,6.87728-.58142,6.87728-3.92312a3.17654,3.17654,0,0,0-.06965-.76888L145.88926-1.812c-.388-1.59821-.7268-2.32487-3.53581-3.7295-2.17972-1.11366-6.92581-2.954-8.33047-2.954-1.30763,0-1.69475,1.69476-3.24484,1.69476-1.50114,0-2.61515-1.25892-4.01966-1.25892-1.35577,0-2.228.92-2.906,2.809,0,0-1.889,5.32739-2.13116,6.10187a1.40441,1.40441,0,0,0-.0499.43639c0,2.07048,8.15427,8.86305,19.08349,8.86305"/><path class="f8e567ac-e624-482f-9870-c7e1dcbbb78a" d="M212.33627,7.58362a11.214,11.214,0,0,1,.38778,2.2762c0,3.1483-3.536,4.89163-8.18484,4.89163-10.51035,0-19.712-6.15067-19.712-10.219a4.1401,4.1401,0,0,1,.339-1.6466c-3.77786.19373-8.66942.87157-8.66942,5.182,0,7.07092,16.75766,15.78868,30.02787,15.78868,10.1709,0,12.73727-4.60074,12.73727-8.23315,0-2.85792-2.46977-6.10221-6.92559-8.03976m-7.31313,2.567c2.80946,0,6.87728-.58142,6.87728-3.92312a3.17654,3.17654,0,0,0-.06965-.76888L210.15745-1.812c-.388-1.59821-.7268-2.32487-3.53581-3.7295-2.17972-1.11366-6.92581-2.954-8.33047-2.954-1.30763,0-1.69475,1.69476-3.24484,1.69476-1.50114,0-2.61515-1.25892-4.01965-1.25892-1.35578,0-2.228.92-2.906,2.809,0,0-1.889,5.32739-2.13117,6.10187a1.40441,1.40441,0,0,0-.0499.43639c0,2.07048,8.15427,8.86305,19.08349,8.86305"/><path class="f8e567ac-e624-482f-9870-c7e1dcbbb78a" d="M276.60446,7.58362a11.214,11.214,0,0,1,.38778,2.2762c0,3.1483-3.536,4.89163-8.18484,4.89163-10.51035,0-19.712-6.15067-19.712-10.219a4.1401,4.1401,0,0,1,.339-1.6466c-3.77785.19373-8.66942.87157-8.66942,5.182,0,7.07092,16.75766,15.78868,30.02787,15.78868,10.1709,0,12.73727-4.60074,12.73727-8.23315,0-2.85792-2.46977-6.10221-6.92559-8.03976m-7.31313,2.567c2.80946,0,6.87728-.58142,6.87728-3.92312a3.17654,3.17654,0,0,0-.06965-.76888L274.42564-1.812c-.388-1.59821-.72679-2.32487-3.5358-3.7295-2.17973-1.11366-6.92582-2.954-8.33048-2.954-1.30763,0-1.69475,1.69476-3.24484,1.69476-1.50114,0-2.61515-1.25892-4.01965-1.25892-1.35578,0-2.228.92-2.906,2.809,0,0-1.889,5.32739-2.13117,6.10187a1.40441,1.40441,0,0,0-.0499.43639c0,2.07048,8.15427,8.86305,19.08349,8.86305"/><path class="f8e567ac-e624-482f-9870-c7e1dcbbb78a" d="M49.14838,50.824a11.21437,11.21437,0,0,1,.38777,2.2762c0,3.1483-3.536,4.89163-8.18484,4.89163-10.51035,0-19.712-6.15067-19.712-10.219a4.13992,4.13992,0,0,1,.339-1.6466c-3.77786.19373-8.66943.87157-8.66943,5.182,0,7.07092,16.75766,15.78868,30.02787,15.78868,10.1709,0,12.73727-4.60074,12.73727-8.23315,0-2.85792-2.46977-6.10221-6.92558-8.03976m-7.31314,2.567c2.80946,0,6.87728-.58142,6.87728-3.92312a3.17654,3.17654,0,0,0-.06965-.76888l-1.67331-7.27065c-.388-1.59821-.7268-2.32487-3.53581-3.7295-2.17972-1.11366-6.92582-2.954-8.33048-2.954-1.30763,0-1.69475,1.69476-3.24484,1.69476-1.50114,0-2.61515-1.25892-4.01965-1.25892-1.35578,0-2.228.92-2.906,2.809,0,0-1.889,5.32739-2.13117,6.10187a1.40441,1.40441,0,0,0-.0499.43639c0,2.07048,8.15427,8.86305,19.08349,8.86305"/><path class="f8e567ac-e624-482f-9870-c7e1dcbbb78a" d="M113.41657,50.824a11.21437,11.21437,0,0,1,.38777,2.2762c0,3.1483-3.536,4.89163-8.18484,4.89163-10.51035,0-19.712-6.15067-19.712-10.219a4.1401,4.1401,0,0,1,.339-1.6466c-3.77786.19373-8.66943.87157-8.66943,5.182,0,7.07092,16.75766,15.78868,30.02787,15.78868,10.1709,0,12.73727-4.60074,12.73727-8.23315,0-2.85792-2.46976-6.10221-6.92558-8.03976m-7.31314,2.567c2.80946,0,6.87728-.58142,6.87728-3.92312a3.177,3.177,0,0,0-.06964-.76888l-1.67332-7.27065c-.388-1.59821-.7268-2.32487-3.53581-3.7295-2.17972-1.11366-6.92581-2.954-8.33048-2.954-1.30762,0-1.69475,1.69476-3.24484,1.69476-1.50113,0-2.61515-1.25892-4.01965-1.25892-1.35578,0-2.228.92-2.906,2.809,0,0-1.889,5.32739-2.13117,6.10187a1.40441,1.40441,0,0,0-.0499.43639c0,2.07048,8.15427,8.86305,19.08349,8.86305"/><path class="f8e567ac-e624-482f-9870-c7e1dcbbb78a" d="M177.68476,50.824a11.21437,11.21437,0,0,1,.38777,2.2762c0,3.1483-3.536,4.89163-8.18484,4.89163-10.51035,0-19.712-6.15067-19.712-10.219a4.1401,4.1401,0,0,1,.339-1.6466c-3.77786.19373-8.66943.87157-8.66943,5.182,0,7.07092,16.75767,15.78868,30.02787,15.78868,10.1709,0,12.73728-4.60074,12.73728-8.23315,0-2.85792-2.46977-6.10221-6.92559-8.03976m-7.31314,2.567c2.80947,0,6.87728-.58142,6.87728-3.92312a3.17654,3.17654,0,0,0-.06964-.76888l-1.67332-7.27065c-.388-1.59821-.7268-2.32487-3.53581-3.7295-2.17972-1.11366-6.92581-2.954-8.33047-2.954-1.30763,0-1.69476,1.69476-3.24484,1.69476-1.50114,0-2.61516-1.25892-4.01966-1.25892-1.35577,0-2.228.92-2.906,2.809,0,0-1.889,5.32739-2.13116,6.10187a1.40411,1.40411,0,0,0-.0499.43639c0,2.07048,8.15426,8.86305,19.08348,8.86305"/><path class="f8e567ac-e624-482f-9870-c7e1dcbbb78a" d="M241.953,50.824a11.2141,11.2141,0,0,1,.38778,2.2762c0,3.1483-3.536,4.89163-8.18485,4.89163-10.51035,0-19.712-6.15067-19.712-10.219a4.1401,4.1401,0,0,1,.339-1.6466c-3.77786.19373-8.66943.87157-8.66943,5.182,0,7.07092,16.75767,15.78868,30.02788,15.78868,10.17089,0,12.73727-4.60074,12.73727-8.23315,0-2.85792-2.46977-6.10221-6.92559-8.03976m-7.31313,2.567c2.80946,0,6.87728-.58142,6.87728-3.92312a3.17654,3.17654,0,0,0-.06965-.76888l-1.67332-7.27065c-.388-1.59821-.7268-2.32487-3.53581-3.7295-2.17972-1.11366-6.92581-2.954-8.33047-2.954-1.30763,0-1.69475,1.69476-3.24484,1.69476-1.50114,0-2.61515-1.25892-4.01966-1.25892-1.35577,0-2.228.92-2.906,2.809,0,0-1.889,5.32739-2.13116,6.10187a1.40441,1.40441,0,0,0-.0499.43639c0,2.07048,8.15427,8.86305,19.08349,8.86305"/><path class="f8e567ac-e624-482f-9870-c7e1dcbbb78a" d="M19.5317,94.06432a11.21437,11.21437,0,0,1,.38777,2.2762c0,3.1483-3.536,4.89163-8.18484,4.89163-10.51035,0-19.712-6.15067-19.712-10.219a4.1401,4.1401,0,0,1,.339-1.6466c-3.77786.19373-8.66943.87157-8.66943,5.182,0,7.07092,16.75766,15.78868,30.02787,15.78868,10.1709,0,12.73727-4.60074,12.73727-8.23315,0-2.85792-2.46976-6.10221-6.92558-8.03976m-7.31314,2.567c2.80946,0,6.87728-.58142,6.87728-3.92312a3.177,3.177,0,0,0-.06964-.76888l-1.67332-7.27065c-.388-1.59821-.7268-2.32487-3.53581-3.7295-2.17972-1.11366-6.92581-2.954-8.33048-2.954-1.30762,0-1.69475,1.69476-3.24484,1.69476C.74062,79.67994-.3734,78.421-1.7779,78.421c-1.35578,0-2.228.92-2.906,2.809,0,0-1.889,5.32739-2.13117,6.10187a1.40441,1.40441,0,0,0-.0499.43639c0,2.07048,8.15427,8.86305,19.08349,8.86305"/><path class="f8e567ac-e624-482f-9870-c7e1dcbbb78a" d="M83.79989,94.06432a11.21437,11.21437,0,0,1,.38777,2.2762c0,3.1483-3.536,4.89163-8.18484,4.89163-10.51035,0-19.712-6.15067-19.712-10.219a4.1401,4.1401,0,0,1,.339-1.6466c-3.77786.19373-8.66943.87157-8.66943,5.182,0,7.07092,16.75767,15.78868,30.02787,15.78868,10.1709,0,12.73728-4.60074,12.73728-8.23315,0-2.85792-2.46977-6.10221-6.92559-8.03976m-7.31314,2.567c2.80947,0,6.87728-.58142,6.87728-3.92312a3.17654,3.17654,0,0,0-.06964-.76888l-1.67332-7.27065c-.388-1.59821-.7268-2.32487-3.53581-3.7295-2.17972-1.11366-6.92581-2.954-8.33047-2.954-1.30763,0-1.69476,1.69476-3.24484,1.69476-1.50114,0-2.61516-1.25892-4.01966-1.25892-1.35577,0-2.228.92-2.906,2.809,0,0-1.889,5.32739-2.13116,6.10187a1.40411,1.40411,0,0,0-.0499.43639c0,2.07048,8.15426,8.86305,19.08348,8.86305"/><path class="f8e567ac-e624-482f-9870-c7e1dcbbb78a" d="M148.06808,94.06432a11.2141,11.2141,0,0,1,.38778,2.2762c0,3.1483-3.536,4.89163-8.18485,4.89163-10.51035,0-19.712-6.15067-19.712-10.219a4.1401,4.1401,0,0,1,.339-1.6466c-3.77786.19373-8.66943.87157-8.66943,5.182,0,7.07092,16.75767,15.78868,30.02788,15.78868,10.17089,0,12.73727-4.60074,12.73727-8.23315,0-2.85792-2.46977-6.10221-6.92559-8.03976m-7.31313,2.567c2.80946,0,6.87728-.58142,6.87728-3.92312a3.17654,3.17654,0,0,0-.06965-.76888l-1.67332-7.27065c-.388-1.59821-.7268-2.32487-3.53581-3.7295-2.17972-1.11366-6.92581-2.954-8.33047-2.954-1.30763,0-1.69475,1.69476-3.24484,1.69476-1.50114,0-2.61515-1.25892-4.01966-1.25892-1.35577,0-2.228.92-2.906,2.809,0,0-1.889,5.32739-2.13116,6.10187a1.40441,1.40441,0,0,0-.0499.43639c0,2.07048,8.15427,8.86305,19.08349,8.86305"/><path class="f8e567ac-e624-482f-9870-c7e1dcbbb78a" d="M212.33627,94.06432a11.2141,11.2141,0,0,1,.38778,2.2762c0,3.1483-3.536,4.89163-8.18484,4.89163-10.51035,0-19.712-6.15067-19.712-10.219a4.1401,4.1401,0,0,1,.339-1.6466c-3.77786.19373-8.66942.87157-8.66942,5.182,0,7.07092,16.75766,15.78868,30.02787,15.78868,10.1709,0,12.73727-4.60074,12.73727-8.23315,0-2.85792-2.46977-6.10221-6.92559-8.03976m-7.31313,2.567c2.80946,0,6.87728-.58142,6.87728-3.92312a3.17654,3.17654,0,0,0-.06965-.76888l-1.67332-7.27065c-.388-1.59821-.7268-2.32487-3.53581-3.7295-2.17972-1.11366-6.92581-2.954-8.33047-2.954-1.30763,0-1.69475,1.69476-3.24484,1.69476-1.50114,0-2.61515-1.25892-4.01965-1.25892-1.35578,0-2.228.92-2.906,2.809,0,0-1.889,5.32739-2.13117,6.10187a1.40441,1.40441,0,0,0-.0499.43639c0,2.07048,8.15427,8.86305,19.08349,8.86305"/><path class="f8e567ac-e624-482f-9870-c7e1dcbbb78a" d="M276.60446,94.06432a11.2141,11.2141,0,0,1,.38778,2.2762c0,3.1483-3.536,4.89163-8.18484,4.89163-10.51035,0-19.712-6.15067-19.712-10.219a4.1401,4.1401,0,0,1,.339-1.6466c-3.77785.19373-8.66942.87157-8.66942,5.182,0,7.07092,16.75766,15.78868,30.02787,15.78868,10.1709,0,12.73727-4.60074,12.73727-8.23315,0-2.85792-2.46977-6.10221-6.92559-8.03976m-7.31313,2.567c2.80946,0,6.87728-.58142,6.87728-3.92312a3.17654,3.17654,0,0,0-.06965-.76888l-1.67332-7.27065c-.388-1.59821-.72679-2.32487-3.5358-3.7295-2.17973-1.11366-6.92582-2.954-8.33048-2.954-1.30763,0-1.69475,1.69476-3.24484,1.69476-1.50114,0-2.61515-1.25892-4.01965-1.25892-1.35578,0-2.228.92-2.906,2.809,0,0-1.889,5.32739-2.13117,6.10187a1.40441,1.40441,0,0,0-.0499.43639c0,2.07048,8.15427,8.86305,19.08349,8.86305"/><path class="f8e567ac-e624-482f-9870-c7e1dcbbb78a" d="M49.14838,137.30467a11.21437,11.21437,0,0,1,.38777,2.2762c0,3.1483-3.536,4.89163-8.18484,4.89163-10.51035,0-19.712-6.15067-19.712-10.219a4.13992,4.13992,0,0,1,.339-1.6466c-3.77786.19373-8.66943.87157-8.66943,5.182,0,7.07092,16.75766,15.78868,30.02787,15.78868,10.1709,0,12.73727-4.60074,12.73727-8.23315,0-2.85792-2.46977-6.10221-6.92558-8.03976m-7.31314,2.567c2.80946,0,6.87728-.58142,6.87728-3.92312a3.17654,3.17654,0,0,0-.06965-.76888L46.96956,127.909c-.388-1.59821-.7268-2.32487-3.53581-3.72949-2.17972-1.11367-6.92582-2.954-8.33048-2.954-1.30763,0-1.69475,1.69476-3.24484,1.69476-1.50114,0-2.61515-1.25892-4.01965-1.25892-1.35578,0-2.228.92-2.906,2.809,0,0-1.889,5.32739-2.13117,6.10187a1.40441,1.40441,0,0,0-.0499.43639c0,2.07048,8.15427,8.863,19.08349,8.863"/><path class="f8e567ac-e624-482f-9870-c7e1dcbbb78a" d="M113.41657,137.30467a11.21437,11.21437,0,0,1,.38777,2.2762c0,3.1483-3.536,4.89163-8.18484,4.89163-10.51035,0-19.712-6.15067-19.712-10.219a4.1401,4.1401,0,0,1,.339-1.6466c-3.77786.19373-8.66943.87157-8.66943,5.182,0,7.07092,16.75766,15.78868,30.02787,15.78868,10.1709,0,12.73727-4.60074,12.73727-8.23315,0-2.85792-2.46976-6.10221-6.92558-8.03976m-7.31314,2.567c2.80946,0,6.87728-.58142,6.87728-3.92312a3.177,3.177,0,0,0-.06964-.76888l-1.67332-7.27065c-.388-1.59821-.7268-2.32487-3.53581-3.72949-2.17972-1.11367-6.92581-2.954-8.33048-2.954-1.30762,0-1.69475,1.69476-3.24484,1.69476-1.50113,0-2.61515-1.25892-4.01965-1.25892-1.35578,0-2.228.92-2.906,2.809,0,0-1.889,5.32739-2.13117,6.10187a1.40441,1.40441,0,0,0-.0499.43639c0,2.07048,8.15427,8.863,19.08349,8.863"/><path class="f8e567ac-e624-482f-9870-c7e1dcbbb78a" d="M177.68476,137.30467a11.21437,11.21437,0,0,1,.38777,2.2762c0,3.1483-3.536,4.89163-8.18484,4.89163-10.51035,0-19.712-6.15067-19.712-10.219a4.1401,4.1401,0,0,1,.339-1.6466c-3.77786.19373-8.66943.87157-8.66943,5.182,0,7.07092,16.75767,15.78868,30.02787,15.78868,10.1709,0,12.73728-4.60074,12.73728-8.23315,0-2.85792-2.46977-6.10221-6.92559-8.03976m-7.31314,2.567c2.80947,0,6.87728-.58142,6.87728-3.92312a3.17654,3.17654,0,0,0-.06964-.76888l-1.67332-7.27065c-.388-1.59821-.7268-2.32487-3.53581-3.72949-2.17972-1.11367-6.92581-2.954-8.33047-2.954-1.30763,0-1.69476,1.69476-3.24484,1.69476-1.50114,0-2.61516-1.25892-4.01966-1.25892-1.35577,0-2.228.92-2.906,2.809,0,0-1.889,5.32739-2.13116,6.10187a1.40411,1.40411,0,0,0-.0499.43639c0,2.07048,8.15426,8.863,19.08348,8.863"/><path class="f8e567ac-e624-482f-9870-c7e1dcbbb78a" d="M241.953,137.30467a11.2141,11.2141,0,0,1,.38778,2.2762c0,3.1483-3.536,4.89163-8.18485,4.89163-10.51035,0-19.712-6.15067-19.712-10.219a4.1401,4.1401,0,0,1,.339-1.6466c-3.77786.19373-8.66943.87157-8.66943,5.182,0,7.07092,16.75767,15.78868,30.02788,15.78868,10.17089,0,12.73727-4.60074,12.73727-8.23315,0-2.85792-2.46977-6.10221-6.92559-8.03976m-7.31313,2.567c2.80946,0,6.87728-.58142,6.87728-3.92312a3.17654,3.17654,0,0,0-.06965-.76888l-1.67332-7.27065c-.388-1.59821-.7268-2.32487-3.53581-3.72949-2.17972-1.11367-6.92581-2.954-8.33047-2.954-1.30763,0-1.69475,1.69476-3.24484,1.69476-1.50114,0-2.61515-1.25892-4.01966-1.25892-1.35577,0-2.228.92-2.906,2.809,0,0-1.889,5.32739-2.13116,6.10187a1.40441,1.40441,0,0,0-.0499.43639c0,2.07048,8.15427,8.863,19.08349,8.863"/><path class="f8e567ac-e624-482f-9870-c7e1dcbbb78a" d="M19.5317,180.545a11.21437,11.21437,0,0,1,.38777,2.2762c0,3.1483-3.536,4.89163-8.18484,4.89163-10.51035,0-19.712-6.15067-19.712-10.219a4.1401,4.1401,0,0,1,.339-1.6466c-3.77786.19373-8.66943.87157-8.66943,5.182,0,7.07092,16.75766,15.78868,30.02787,15.78868,10.1709,0,12.73727-4.60074,12.73727-8.23315,0-2.85792-2.46976-6.10221-6.92558-8.03976m-7.31314,2.567c2.80946,0,6.87728-.58142,6.87728-3.92312a3.177,3.177,0,0,0-.06964-.76888l-1.67332-7.27065c-.388-1.59821-.7268-2.32487-3.53581-3.72949-2.17972-1.11367-6.92581-2.954-8.33048-2.954-1.30762,0-1.69475,1.69476-3.24484,1.69476-1.50113,0-2.61515-1.25892-4.01965-1.25892-1.35578,0-2.228.92-2.906,2.809,0,0-1.889,5.32739-2.13117,6.10187a1.40441,1.40441,0,0,0-.0499.43639c0,2.07048,8.15427,8.86305,19.08349,8.86305"/><path class="f8e567ac-e624-482f-9870-c7e1dcbbb78a" d="M83.79989,180.545a11.21437,11.21437,0,0,1,.38777,2.2762c0,3.1483-3.536,4.89163-8.18484,4.89163-10.51035,0-19.712-6.15067-19.712-10.219a4.1401,4.1401,0,0,1,.339-1.6466c-3.77786.19373-8.66943.87157-8.66943,5.182,0,7.07092,16.75767,15.78868,30.02787,15.78868,10.1709,0,12.73728-4.60074,12.73728-8.23315,0-2.85792-2.46977-6.10221-6.92559-8.03976m-7.31314,2.567c2.80947,0,6.87728-.58142,6.87728-3.92312a3.17654,3.17654,0,0,0-.06964-.76888l-1.67332-7.27065c-.388-1.59821-.7268-2.32487-3.53581-3.72949-2.17972-1.11367-6.92581-2.954-8.33047-2.954-1.30763,0-1.69476,1.69476-3.24484,1.69476-1.50114,0-2.61516-1.25892-4.01966-1.25892-1.35577,0-2.228.92-2.906,2.809,0,0-1.889,5.32739-2.13116,6.10187a1.40411,1.40411,0,0,0-.0499.43639c0,2.07048,8.15426,8.86305,19.08348,8.86305"/><path class="f8e567ac-e624-482f-9870-c7e1dcbbb78a" d="M148.06808,180.545a11.2141,11.2141,0,0,1,.38778,2.2762c0,3.1483-3.536,4.89163-8.18485,4.89163-10.51035,0-19.712-6.15067-19.712-10.219a4.1401,4.1401,0,0,1,.339-1.6466c-3.77786.19373-8.66943.87157-8.66943,5.182,0,7.07092,16.75767,15.78868,30.02788,15.78868,10.17089,0,12.73727-4.60074,12.73727-8.23315,0-2.85792-2.46977-6.10221-6.92559-8.03976m-7.31313,2.567c2.80946,0,6.87728-.58142,6.87728-3.92312a3.17654,3.17654,0,0,0-.06965-.76888l-1.67332-7.27065c-.388-1.59821-.7268-2.32487-3.53581-3.72949-2.17972-1.11367-6.92581-2.954-8.33047-2.954-1.30763,0-1.69475,1.69476-3.24484,1.69476-1.50114,0-2.61515-1.25892-4.01966-1.25892-1.35577,0-2.228.92-2.906,2.809,0,0-1.889,5.32739-2.13116,6.10187a1.40441,1.40441,0,0,0-.0499.43639c0,2.07048,8.15427,8.86305,19.08349,8.86305"/><path class="f8e567ac-e624-482f-9870-c7e1dcbbb78a" d="M212.33627,180.545a11.2141,11.2141,0,0,1,.38778,2.2762c0,3.1483-3.536,4.89163-8.18484,4.89163-10.51035,0-19.712-6.15067-19.712-10.219a4.1401,4.1401,0,0,1,.339-1.6466c-3.77786.19373-8.66942.87157-8.66942,5.182,0,7.07092,16.75766,15.78868,30.02787,15.78868,10.1709,0,12.73727-4.60074,12.73727-8.23315,0-2.85792-2.46977-6.10221-6.92559-8.03976m-7.31313,2.567c2.80946,0,6.87728-.58142,6.87728-3.92312a3.17654,3.17654,0,0,0-.06965-.76888l-1.67332-7.27065c-.388-1.59821-.7268-2.32487-3.53581-3.72949-2.17972-1.11367-6.92581-2.954-8.33047-2.954-1.30763,0-1.69475,1.69476-3.24484,1.69476-1.50114,0-2.61515-1.25892-4.01965-1.25892-1.35578,0-2.228.92-2.906,2.809,0,0-1.889,5.32739-2.13117,6.10187a1.40441,1.40441,0,0,0-.0499.43639c0,2.07048,8.15427,8.86305,19.08349,8.86305"/><path class="f8e567ac-e624-482f-9870-c7e1dcbbb78a" d="M276.60446,180.545a11.2141,11.2141,0,0,1,.38778,2.2762c0,3.1483-3.536,4.89163-8.18484,4.89163-10.51035,0-19.712-6.15067-19.712-10.219a4.1401,4.1401,0,0,1,.339-1.6466c-3.77785.19373-8.66942.87157-8.66942,5.182,0,7.07092,16.75766,15.78868,30.02787,15.78868,10.1709,0,12.73727-4.60074,12.73727-8.23315,0-2.85792-2.46977-6.10221-6.92559-8.03976m-7.31313,2.567c2.80946,0,6.87728-.58142,6.87728-3.92312a3.17654,3.17654,0,0,0-.06965-.76888l-1.67332-7.27065c-.388-1.59821-.72679-2.32487-3.5358-3.72949-2.17973-1.11367-6.92582-2.954-8.33048-2.954-1.30763,0-1.69475,1.69476-3.24484,1.69476-1.50114,0-2.61515-1.25892-4.01965-1.25892-1.35578,0-2.228.92-2.906,2.809,0,0-1.889,5.32739-2.13117,6.10187a1.40441,1.40441,0,0,0-.0499.43639c0,2.07048,8.15427,8.86305,19.08349,8.86305"/></g></g></svg>