<svg xmlns="http://www.w3.org/2000/svg" xmlns:xlink="http://www.w3.org/1999/xlink" viewBox="0 0 262 180"><defs><style>.fedda974-db87-4203-9e8d-8fb49a30f5a4{fill:none;}.bd08ce4d-21e6-4b95-af5c-82efe9e620d6{clip-path:url(#bfb77808-dbda-4547-995b-70851b98b2a5);}.fed71483-dbe1-4a17-8f02-8a100b3af29c{fill:#aedcdd;}.a259f03c-aa5f-4d80-8cf1-29e2cc54d884{fill:#f3f3f3;}.a08c802c-c92b-46c2-9c38-ca779ba9b85c{clip-path:url(#adb5732f-1bf1-47c5-980e-dc399203fd53);}.ee0a1516-43a1-43dd-8b8d-e9d5a5d0b9cd{fill:#dedede;}.a040c42a-2642-4ccc-870f-788dad185f10{clip-path:url(#ea887806-4ecf-4c40-ab77-9207be7d11e7);}.f49984ae-7669-4592-8c65-4033556d4a0e{fill:#c9c9c9;}.f212d94e-a879-4f7a-b3df-28befd00ba9b{fill:#ed0000;}</style><clipPath id="bfb77808-dbda-4547-995b-70851b98b2a5"><rect class="fedda974-db87-4203-9e8d-8fb49a30f5a4" x="-288.96668" width="261.88085" height="180"/></clipPath><clipPath id="adb5732f-1bf1-47c5-980e-dc399203fd53"><rect class="fedda974-db87-4203-9e8d-8fb49a30f5a4" x="0.11915" width="261.88085" height="180"/></clipPath><clipPath id="ea887806-4ecf-4c40-ab77-9207be7d11e7"><rect class="fedda974-db87-4203-9e8d-8fb49a30f5a4" x="0.05958" width="261.88085" height="180"/></clipPath></defs><g id="abf725b1-2144-48ed-9642-52c7c29c82c2" data-name="Layer 3"><g class="bd08ce4d-21e6-4b95-af5c-82efe9e620d6"><path class="fed71483-dbe1-4a17-8f02-8a100b3af29c" d="M-51.0086,89.28245c2.8721,13.63082,2.8721,15.06572,2.8721,16.85888,0,23.31823-26.19,36.23038-60.62192,36.23038-77.84606,0-145.99936-45.55561-145.99936-75.68836a30.66417,30.66417,0,0,1,2.51066-12.19573c-27.98113,1.43489-64.21106,6.45539-64.21106,38.3813,0,52.37156,124.11745,116.94058,222.4047,116.94058,75.33188,0,94.34-34.07587,94.34-60.97975,0-21.16747-18.2926-45.19664-51.29512-59.5473m-54.16553,19.01279c20.80859,0,50.93733-4.30635,50.93733-29.057a23.52834,23.52834,0,0,0-.51584-5.69478L-67.14627,19.69258C-70.02,7.85527-72.52937,2.47316-93.33461-7.93033-109.479-16.17883-144.6314-29.8095-155.03519-29.8095c-9.68509,0-12.55236,12.55247-24.03326,12.55247-11.11834,0-19.3694-9.32439-29.772-9.32439-10.04171,0-16.50208,6.81374-21.52331,20.80521,0,0-13.9914,39.45788-15.78471,45.19415a10.40154,10.40154,0,0,0-.3696,3.23217c0,15.33526,60.39548,65.64513,141.34394,65.64513"/></g><rect class="a259f03c-aa5f-4d80-8cf1-29e2cc54d884" x="0.05958" width="261.88085" height="180"/><g class="a08c802c-c92b-46c2-9c38-ca779ba9b85c"><path class="ee0a1516-43a1-43dd-8b8d-e9d5a5d0b9cd" d="M238.07723,89.28245c2.8721,13.63082,2.8721,15.06572,2.8721,16.85888,0,23.31823-26.19,36.23038-60.62191,36.23038-77.84607,0-145.99937-45.55561-145.99937-75.68836a30.66417,30.66417,0,0,1,2.51066-12.19573C8.85758,55.92251-27.37235,60.943-27.37235,92.86892c0,52.37156,124.11746,116.94058,222.4047,116.94058,75.33188,0,94.34-34.07587,94.34-60.97975,0-21.16747-18.2926-45.19664-51.29512-59.5473M183.9117,108.29524c20.80859,0,50.93733-4.30635,50.93733-29.057a23.52784,23.52784,0,0,0-.51584-5.69478L221.93956,19.69258c-2.87374-11.83731-5.3831-17.21942-26.18834-27.62291-16.14435-8.2485-51.29679-21.87917-61.70057-21.87917-9.6851,0-12.55237,12.55247-24.03327,12.55247-11.11834,0-19.3694-9.32439-29.772-9.32439-10.04172,0-16.50209,6.81374-21.52332,20.80521,0,0-13.9914,39.45788-15.78471,45.19415a10.40151,10.40151,0,0,0-.36959,3.23217c0,15.33526,60.39548,65.64513,141.34393,65.64513"/></g><g class="a040c42a-2642-4ccc-870f-788dad185f10"><path class="f49984ae-7669-4592-8c65-4033556d4a0e" d="M212.87571,138.60813a.75143.75143,0,0,1-.75057-.75057V133.808l-2.84983.01055H209.273a.75075.75075,0,0,1-.75057-.75057V119.84382a.75127.75127,0,0,1,.75057-.75057h21.61649a.75127.75127,0,0,1,.75057.75057V133.0539a.75126.75126,0,0,1-.75057.75057H217.99016l-4.58318,4.58436A.75521.75521,0,0,1,212.87571,138.60813Zm0-6.3048a.75075.75075,0,0,1,.75057.75057v2.99173l3.52183-3.523a.75082.75082,0,0,1,.53127-.2193h12.4595V120.5944H210.02354v11.71948l2.84983-.01055Z"/><path class="f49984ae-7669-4592-8c65-4033556d4a0e" d="M236.894,149.41638a.75518.75518,0,0,1-.53127-.21931l-4.58318-4.58436H218.88029a.75126.75126,0,0,1-.75057-.75057v-7.20549a.75057.75057,0,1,1,1.50114,0v6.45492h12.4595a.75079.75079,0,0,1,.53127.21931l3.52183,3.523v-2.99173a.75077.75077,0,0,1,.75057-.75057h.00234l2.84983.01055V131.40264h-5.254a.75058.75058,0,1,1,0-1.50115h6.00457a.75128.75128,0,0,1,.75058.75058v13.22414a.75077.75077,0,0,1-.75058.75058h-.00234l-2.84983-.01056v4.04957a.75146.75146,0,0,1-.75057.75058Z"/><path class="f49984ae-7669-4592-8c65-4033556d4a0e" d="M84.33933,137.59367a.75146.75146,0,0,1-.75057-.75057v-4.04957l-2.84983.01055h-.00235a.75077.75077,0,0,1-.75057-.75057V118.82936a.75126.75126,0,0,1,.75057-.75057h21.61649a.75127.75127,0,0,1,.75057.75057v13.21007a.75128.75128,0,0,1-.75057.75058H89.45378l-4.58319,4.58435A.75515.75515,0,0,1,84.33933,137.59367Zm0-6.30481a.75077.75077,0,0,1,.75057.75057v2.99174l3.52183-3.523a.75083.75083,0,0,1,.53126-.21931h12.4595V119.57993H81.48715v11.71949l2.84983-.01056Z"/><path class="f49984ae-7669-4592-8c65-4033556d4a0e" d="M108.35764,148.40191a.75515.75515,0,0,1-.53126-.21931l-4.58318-4.58435H90.34391a.75127.75127,0,0,1-.75057-.75057v-7.2055a.75057.75057,0,1,1,1.50114,0v6.45492H103.554a.75087.75087,0,0,1,.53127.21931l3.52182,3.523v-2.99173a.75077.75077,0,0,1,.75057-.75058H108.36l2.84983.01056V130.38818h-5.254a.75058.75058,0,0,1,0-1.50115h6.00458a.75127.75127,0,0,1,.75057.75057v13.22415a.75077.75077,0,0,1-.75057.75057h-.00234l-2.84983-.01055v4.04957a.75144.75144,0,0,1-.75058.75057Z"/><path class="f49984ae-7669-4592-8c65-4033556d4a0e" d="M-9.54554,180.834a.74341.74341,0,0,1-.28733-.05747.75.75,0,0,1-.46324-.6931v-4.04957l-2.84983.01055h-.00235a.75014.75014,0,0,1-.53009-.21931.752.752,0,0,1-.22048-.53126V162.06971a.75126.75126,0,0,1,.75057-.75057H8.4682a.75127.75127,0,0,1,.75057.75057v13.21007a.75128.75128,0,0,1-.75057.75058H-4.43109l-4.58319,4.58435A.75515.75515,0,0,1-9.54554,180.834Zm0-6.30481a.75014.75014,0,0,1,.53009.21931.752.752,0,0,1,.22048.53126v2.99174l3.52183-3.523a.75083.75083,0,0,1,.53126-.21931H7.71762V162.82028H-12.39772v11.71949l2.84983-.01056Z"/><path class="f49984ae-7669-4592-8c65-4033556d4a0e" d="M14.47277,191.64226a.75515.75515,0,0,1-.53126-.21931L9.35833,186.8386H-3.541a.75127.75127,0,0,1-.75057-.75057v-7.2055A.75126.75126,0,0,1-3.541,178.132a.75126.75126,0,0,1,.75057.75057v6.45492H9.66911a.75087.75087,0,0,1,.53127.21931l3.52182,3.523V186.088a.75077.75077,0,0,1,.75057-.75058h.00235l2.84983.01056V173.62853h-5.254a.75058.75058,0,0,1,0-1.50115h6.00458a.75127.75127,0,0,1,.75057.75057V186.1021a.75077.75077,0,0,1-.75057.75057h-.00234l-2.84983-.01055v4.04957a.75144.75144,0,0,1-.75058.75057Z"/><path class="f49984ae-7669-4592-8c65-4033556d4a0e" d="M-9.54554,94.35332a.74341.74341,0,0,1-.28733-.05747.75.75,0,0,1-.46324-.6931V89.55317l-2.84983.01056h-.00235a.75014.75014,0,0,1-.53009-.21931.752.752,0,0,1-.22048-.53126V75.589a.75126.75126,0,0,1,.75057-.75057H8.4682a.75127.75127,0,0,1,.75057.75057V88.79908a.75128.75128,0,0,1-.75057.75058H-4.43109L-9.01428,94.134A.75515.75515,0,0,1-9.54554,94.35332Zm0-6.30481a.75014.75014,0,0,1,.53009.21931.752.752,0,0,1,.22048.53126v2.99174l3.52183-3.523a.75083.75083,0,0,1,.53126-.21931H7.71762V76.33958H-12.39772V88.05907l2.84983-.01056Z"/><path class="f49984ae-7669-4592-8c65-4033556d4a0e" d="M14.47277,105.16156a.75515.75515,0,0,1-.53126-.21931L9.35833,100.3579H-3.541a.75127.75127,0,0,1-.75057-.75057v-7.2055a.75126.75126,0,0,1,.75057-.75057.75126.75126,0,0,1,.75057.75057v6.45492H9.66911a.75087.75087,0,0,1,.53127.21931l3.52182,3.523V99.60733a.75077.75077,0,0,1,.75057-.75058h.00235l2.84983.01056V87.14783h-5.254a.75058.75058,0,0,1,0-1.50115h6.00458a.75127.75127,0,0,1,.75057.75057V99.6214a.75077.75077,0,0,1-.75057.75057h-.00234l-2.84983-.01055V104.411a.75144.75144,0,0,1-.75058.75057Z"/><path class="f49984ae-7669-4592-8c65-4033556d4a0e" d="M-9.54554,7.87262a.74359.74359,0,0,1-.28733-.05747.75.75,0,0,1-.46324-.6931V3.07247l-2.84983.01056h-.00235a.75014.75014,0,0,1-.53009-.21931.752.752,0,0,1-.22048-.53126V-10.89169a.75126.75126,0,0,1,.75057-.75057H8.4682a.75127.75127,0,0,1,.75057.75057V2.31838A.75128.75128,0,0,1,8.4682,3.069H-4.43109L-9.01428,7.65331A.75515.75515,0,0,1-9.54554,7.87262Zm0-6.30481a.75014.75014,0,0,1,.53009.21931.752.752,0,0,1,.22048.53126V5.31012l3.52183-3.523a.75083.75083,0,0,1,.53126-.21931H7.71762V-10.14112H-12.39772V1.57837l2.84983-.01056Z"/><path class="f49984ae-7669-4592-8c65-4033556d4a0e" d="M14.47277,18.68086a.75515.75515,0,0,1-.53126-.21931L9.35833,13.8772H-3.541a.75127.75127,0,0,1-.75057-.75057V5.92113A.75126.75126,0,0,1-3.541,5.17056a.75126.75126,0,0,1,.75057.75057v6.45492H9.66911a.75087.75087,0,0,1,.53127.21931l3.52182,3.523V13.12663a.75077.75077,0,0,1,.75057-.75058h.00235l2.84983.01056V.66712h-5.254a.75127.75127,0,0,1-.75057-.75057A.75127.75127,0,0,1,12.07094-.834h6.00458a.75126.75126,0,0,1,.75057.75057V13.1407a.75077.75077,0,0,1-.75057.75057h-.00234l-2.84983-.01055v4.04957a.75144.75144,0,0,1-.75058.75057Z"/><path class="f49984ae-7669-4592-8c65-4033556d4a0e" d="M118.99084,180.834a.75146.75146,0,0,1-.75057-.75057v-4.04957l-2.84983.01055h-.00234a.75077.75077,0,0,1-.75058-.75057V162.06971a.75127.75127,0,0,1,.75058-.75057h21.61648a.75126.75126,0,0,1,.75057.75057v13.21007a.75127.75127,0,0,1-.75057.75058H124.10529l-4.58318,4.58435A.75518.75518,0,0,1,118.99084,180.834Zm0-6.30481a.75077.75077,0,0,1,.75057.75057v2.99174l3.52183-3.523a.75083.75083,0,0,1,.53127-.21931H136.254V162.82028H116.13867v11.71949l2.84983-.01056Z"/><path class="f49984ae-7669-4592-8c65-4033556d4a0e" d="M143.00916,191.64226a.75518.75518,0,0,1-.53127-.21931l-4.58318-4.58435H124.99542a.75127.75127,0,0,1-.75057-.75057v-7.2055a.75057.75057,0,1,1,1.50114,0v6.45492h12.4595a.75083.75083,0,0,1,.53127.21931l3.52183,3.523V186.088a.75077.75077,0,0,1,.75057-.75058h.00234l2.84983.01056V173.62853h-5.254a.75058.75058,0,1,1,0-1.50115h6.00457a.75128.75128,0,0,1,.75058.75057V186.1021a.75077.75077,0,0,1-.75058.75057h-.00234l-2.84983-.01055v4.04957a.75143.75143,0,0,1-.75057.75057Z"/><path class="f49984ae-7669-4592-8c65-4033556d4a0e" d="M118.99084,94.35332a.75146.75146,0,0,1-.75057-.75057V89.55317l-2.84983.01056h-.00234a.75077.75077,0,0,1-.75058-.75057V75.589a.75127.75127,0,0,1,.75058-.75057h21.61648a.75126.75126,0,0,1,.75057.75057V88.79908a.75127.75127,0,0,1-.75057.75058H124.10529L119.52211,94.134A.75518.75518,0,0,1,118.99084,94.35332Zm0-6.30481a.75077.75077,0,0,1,.75057.75057v2.99174l3.52183-3.523a.75083.75083,0,0,1,.53127-.21931H136.254V76.33958H116.13867V88.05907l2.84983-.01056Z"/><path class="f49984ae-7669-4592-8c65-4033556d4a0e" d="M143.00916,105.16156a.75518.75518,0,0,1-.53127-.21931l-4.58318-4.58435H124.99542a.75127.75127,0,0,1-.75057-.75057v-7.2055a.75057.75057,0,0,1,1.50114,0v6.45492h12.4595a.75083.75083,0,0,1,.53127.21931l3.52183,3.523V99.60733a.75077.75077,0,0,1,.75057-.75058h.00234l2.84983.01056V87.14783h-5.254a.75058.75058,0,1,1,0-1.50115h6.00457a.75128.75128,0,0,1,.75058.75057V99.6214a.75077.75077,0,0,1-.75058.75057h-.00234l-2.84983-.01055V104.411a.75143.75143,0,0,1-.75057.75057Z"/><path class="f49984ae-7669-4592-8c65-4033556d4a0e" d="M118.99084,7.87262a.75146.75146,0,0,1-.75057-.75057V3.07247l-2.84983.01056h-.00234a.75077.75077,0,0,1-.75058-.75057V-10.89169a.75127.75127,0,0,1,.75058-.75057h21.61648a.75126.75126,0,0,1,.75057.75057V2.31838a.75127.75127,0,0,1-.75057.75058H124.10529l-4.58318,4.58435A.75518.75518,0,0,1,118.99084,7.87262Zm0-6.30481a.75077.75077,0,0,1,.75057.75057V5.31012l3.52183-3.523a.75083.75083,0,0,1,.53127-.21931H136.254V-10.14112H116.13867V1.57837l2.84983-.01056Z"/><path class="f49984ae-7669-4592-8c65-4033556d4a0e" d="M143.00916,18.68086a.75518.75518,0,0,1-.53127-.21931l-4.58318-4.58435H124.99542a.75127.75127,0,0,1-.75057-.75057V5.92113a.75057.75057,0,0,1,1.50114,0v6.45492h12.4595a.75083.75083,0,0,1,.53127.21931l3.52183,3.523V13.12663a.75077.75077,0,0,1,.75057-.75058h.00234l2.84983.01056V.66712h-5.254a.75127.75127,0,0,1-.75058-.75057.75127.75127,0,0,1,.75058-.75057h6.00457a.75127.75127,0,0,1,.75058.75057V13.1407a.75077.75077,0,0,1-.75058.75057h-.00234l-2.84983-.01055v4.04957a.75143.75143,0,0,1-.75057.75057Z"/><path class="f49984ae-7669-4592-8c65-4033556d4a0e" d="M247.52723,180.834a.75147.75147,0,0,1-.75058-.75057v-4.04957l-2.84983.01055h-.00234a.75077.75077,0,0,1-.75057-.75057V162.06971a.75126.75126,0,0,1,.75057-.75057H265.541a.75126.75126,0,0,1,.75057.75057v13.21007a.75127.75127,0,0,1-.75057.75058H252.64167l-4.58318,4.58435A.75515.75515,0,0,1,247.52723,180.834Zm0-6.30481a.75077.75077,0,0,1,.75057.75057v2.99174l3.52182-3.523a.75087.75087,0,0,1,.53127-.21931h12.4595V162.82028H244.67505v11.71949l2.84983-.01056Z"/><path class="f49984ae-7669-4592-8c65-4033556d4a0e" d="M271.54554,191.64226a.75515.75515,0,0,1-.53126-.21931l-4.58319-4.58435H253.5318a.75127.75127,0,0,1-.75057-.75057v-7.2055a.75058.75058,0,0,1,1.50115,0v6.45492h12.4595a.75083.75083,0,0,1,.53126.21931l3.52183,3.523V186.088a.75077.75077,0,0,1,.75057-.75058h.00235l2.84983.01056V173.62853h-5.254a.75058.75058,0,0,1,0-1.50115h6.00458a.75127.75127,0,0,1,.75057.75057V186.1021a.75077.75077,0,0,1-.75057.75057h-.00235l-2.84983-.01055v4.04957a.75143.75143,0,0,1-.75057.75057Z"/><path class="f49984ae-7669-4592-8c65-4033556d4a0e" d="M247.52723,94.35332a.75147.75147,0,0,1-.75058-.75057V89.55317l-2.84983.01056h-.00234a.75077.75077,0,0,1-.75057-.75057V75.589a.75126.75126,0,0,1,.75057-.75057H265.541a.75126.75126,0,0,1,.75057.75057V88.79908a.75127.75127,0,0,1-.75057.75058H252.64167L248.05849,94.134A.75515.75515,0,0,1,247.52723,94.35332Zm0-6.30481a.75077.75077,0,0,1,.75057.75057v2.99174l3.52182-3.523a.75087.75087,0,0,1,.53127-.21931h12.4595V76.33958H244.67505V88.05907l2.84983-.01056Z"/><path class="f49984ae-7669-4592-8c65-4033556d4a0e" d="M271.54554,105.16156a.75515.75515,0,0,1-.53126-.21931l-4.58319-4.58435H253.5318a.75127.75127,0,0,1-.75057-.75057v-7.2055a.75058.75058,0,0,1,1.50115,0v6.45492h12.4595a.75083.75083,0,0,1,.53126.21931l3.52183,3.523V99.60733a.75077.75077,0,0,1,.75057-.75058h.00235l2.84983.01056V87.14783h-5.254a.75058.75058,0,0,1,0-1.50115h6.00458a.75127.75127,0,0,1,.75057.75057V99.6214a.75077.75077,0,0,1-.75057.75057h-.00235l-2.84983-.01055V104.411a.75143.75143,0,0,1-.75057.75057Z"/><path class="f49984ae-7669-4592-8c65-4033556d4a0e" d="M247.52723,7.87262a.75147.75147,0,0,1-.75058-.75057V3.07247l-2.84983.01056h-.00234a.75077.75077,0,0,1-.75057-.75057V-10.89169a.75126.75126,0,0,1,.75057-.75057H265.541a.75126.75126,0,0,1,.75057.75057V2.31838a.75127.75127,0,0,1-.75057.75058H252.64167l-4.58318,4.58435A.75515.75515,0,0,1,247.52723,7.87262Zm0-6.30481a.75077.75077,0,0,1,.75057.75057V5.31012l3.52182-3.523a.75087.75087,0,0,1,.53127-.21931h12.4595V-10.14112H244.67505V1.57837l2.84983-.01056Z"/><path class="f49984ae-7669-4592-8c65-4033556d4a0e" d="M271.54554,18.68086a.75515.75515,0,0,1-.53126-.21931l-4.58319-4.58435H253.5318a.75127.75127,0,0,1-.75057-.75057V5.92113a.75058.75058,0,0,1,1.50115,0v6.45492h12.4595a.75083.75083,0,0,1,.53126.21931l3.52183,3.523V13.12663a.75077.75077,0,0,1,.75057-.75058h.00235l2.84983.01056V.66712h-5.254a.75126.75126,0,0,1-.75057-.75057.75126.75126,0,0,1,.75057-.75057h6.00458a.75126.75126,0,0,1,.75057.75057V13.1407a.75077.75077,0,0,1-.75057.75057h-.00235l-2.84983-.01055v4.04957a.75143.75143,0,0,1-.75057.75057Z"/><path class="f49984ae-7669-4592-8c65-4033556d4a0e" d="M212.87571,51.113a.75146.75146,0,0,1-.75057-.75057V46.31282l-2.84983.01056H209.273a.75077.75077,0,0,1-.75057-.75057V32.34866a.75127.75127,0,0,1,.75057-.75057h21.61649a.75126.75126,0,0,1,.75057.75057V45.55873a.75127.75127,0,0,1-.75057.75058H217.99016L213.407,50.89366A.75518.75518,0,0,1,212.87571,51.113Zm0-6.30481a.75077.75077,0,0,1,.75057.75057v2.99174l3.52183-3.523a.75083.75083,0,0,1,.53127-.21931h12.4595V33.09923H210.02354V44.81872l2.84983-.01056Z"/><path class="f49984ae-7669-4592-8c65-4033556d4a0e" d="M236.894,61.92121a.75518.75518,0,0,1-.53127-.21931l-4.58318-4.58435H218.88029a.75127.75127,0,0,1-.75057-.75057v-7.2055a.75057.75057,0,0,1,1.50114,0V55.6164h12.4595a.75083.75083,0,0,1,.53127.21931l3.52183,3.523V56.367a.75077.75077,0,0,1,.75057-.75058h.00234l2.84983.01056V43.90747h-5.254a.75057.75057,0,1,1,0-1.50114h6.00457a.75127.75127,0,0,1,.75058.75057V56.38105a.75077.75077,0,0,1-.75058.75057h-.00234l-2.84983-.01055v4.04957a.75143.75143,0,0,1-.75057.75057Z"/><path class="f49984ae-7669-4592-8c65-4033556d4a0e" d="M84.33933,51.113a.75146.75146,0,0,1-.75057-.75057V46.31282l-2.84983.01056h-.00235a.75077.75077,0,0,1-.75057-.75057V32.34866a.75126.75126,0,0,1,.75057-.75057h21.61649a.75127.75127,0,0,1,.75057.75057V45.55873a.75128.75128,0,0,1-.75057.75058H89.45378l-4.58319,4.58435A.75515.75515,0,0,1,84.33933,51.113Zm0-6.30481a.75077.75077,0,0,1,.75057.75057v2.99174l3.52183-3.523a.75083.75083,0,0,1,.53126-.21931h12.4595V33.09923H81.48715V44.81872l2.84983-.01056Z"/><path class="f49984ae-7669-4592-8c65-4033556d4a0e" d="M108.35764,61.92121a.75515.75515,0,0,1-.53126-.21931l-4.58318-4.58435H90.34391a.75127.75127,0,0,1-.75057-.75057v-7.2055a.75057.75057,0,1,1,1.50114,0V55.6164H103.554a.75087.75087,0,0,1,.53127.21931l3.52182,3.523V56.367a.75077.75077,0,0,1,.75057-.75058H108.36l2.84983.01056V43.90747h-5.254a.75057.75057,0,1,1,0-1.50114h6.00458a.75126.75126,0,0,1,.75057.75057V56.38105a.75077.75077,0,0,1-.75057.75057h-.00234l-2.84983-.01055v4.04957a.75144.75144,0,0,1-.75058.75057Z"/><path class="f49984ae-7669-4592-8c65-4033556d4a0e" d="M66.73181,106.36218A13.97628,13.97628,0,0,1,52.77116,92.40154v-15.205a.75047.75047,0,0,1,.5946-.73415l13.21007-2.80878a.77626.77626,0,0,1,.312,0l13.21007,2.80878a.75046.75046,0,0,1,.59459.73415v15.205A13.97628,13.97628,0,0,1,66.73181,106.36218Zm-12.4595-28.5581V92.40154a12.4595,12.4595,0,0,0,24.919,0V77.80408l-12.4595-2.64929Z"/><path class="f49984ae-7669-4592-8c65-4033556d4a0e" d="M65.03129,93.457A.74833.74833,0,0,1,64.5,93.23772L61.94926,90.687a.75132.75132,0,0,1,1.06252-1.06253l2.55078,2.55077a.75058.75058,0,0,1-.53127,1.28184Z"/><path class="f49984ae-7669-4592-8c65-4033556d4a0e" d="M65.03129,93.457A.75058.75058,0,0,1,64.5,92.17519l5.95063-5.95063a.75091.75091,0,1,1,1.06253,1.06136l-5.95063,5.9518A.74836.74836,0,0,1,65.03129,93.457Z"/><path class="f49984ae-7669-4592-8c65-4033556d4a0e" d="M66.73181,192.84288a13.97628,13.97628,0,0,1-13.96065-13.96064v-15.205a.75047.75047,0,0,1,.5946-.73415l13.21007-2.80878a.77626.77626,0,0,1,.312,0l13.21007,2.80878a.75046.75046,0,0,1,.59459.73415v15.205A13.97628,13.97628,0,0,1,66.73181,192.84288Zm-12.4595-28.5581v14.59746a12.4595,12.4595,0,0,0,24.919,0V164.28478l-12.4595-2.64929Z"/><path class="f49984ae-7669-4592-8c65-4033556d4a0e" d="M65.03129,179.93773a.74833.74833,0,0,1-.53126-.21931l-2.55077-2.55077a.75132.75132,0,0,1,1.06252-1.06253l2.55078,2.55077a.75058.75058,0,0,1-.53127,1.28184Z"/><path class="f49984ae-7669-4592-8c65-4033556d4a0e" d="M65.03129,179.93773A.75058.75058,0,0,1,64.5,178.65589l5.95063-5.95063a.75091.75091,0,1,1,1.06253,1.06136l-5.95063,5.9518A.74836.74836,0,0,1,65.03129,179.93773Z"/><path class="f49984ae-7669-4592-8c65-4033556d4a0e" d="M66.73181,19.88148A13.97628,13.97628,0,0,1,52.77116,5.92084v-15.205a.75046.75046,0,0,1,.5946-.73415L66.57583-12.827a.77626.77626,0,0,1,.312,0l13.21007,2.80878a.75045.75045,0,0,1,.59459.73415v15.205A13.97628,13.97628,0,0,1,66.73181,19.88148ZM54.27231-8.67662V5.92084a12.4595,12.4595,0,0,0,24.919,0V-8.67662l-12.4595-2.64929Z"/><path class="f49984ae-7669-4592-8c65-4033556d4a0e" d="M65.03129,6.97633A.74833.74833,0,0,1,64.5,6.757L61.94926,4.20625a.75132.75132,0,1,1,1.06252-1.06253l2.55078,2.55077a.75058.75058,0,0,1-.53127,1.28184Z"/><path class="f49984ae-7669-4592-8c65-4033556d4a0e" d="M65.03129,6.97633A.75058.75058,0,0,1,64.5,5.69449L70.45066-.25614A.75091.75091,0,1,1,71.51319.80522L65.56256,6.757A.74836.74836,0,0,1,65.03129,6.97633Z"/><path class="f49984ae-7669-4592-8c65-4033556d4a0e" d="M195.26819,106.36218a13.97628,13.97628,0,0,1-13.96064-13.96064v-15.205a.75046.75046,0,0,1,.59459-.73415l13.21007-2.80878a.77626.77626,0,0,1,.312,0l13.21007,2.80878a.75047.75047,0,0,1,.5946.73415v15.205A13.97628,13.97628,0,0,1,195.26819,106.36218Zm-12.4595-28.5581V92.40154a12.4595,12.4595,0,1,0,24.919,0V77.80408l-12.4595-2.64929Z"/><path class="f49984ae-7669-4592-8c65-4033556d4a0e" d="M193.56768,93.457a.74836.74836,0,0,1-.53127-.21931L190.48564,90.687a.75132.75132,0,0,1,1.06253-1.06253l2.55077,2.55077a.75058.75058,0,0,1-.53126,1.28184Z"/><path class="f49984ae-7669-4592-8c65-4033556d4a0e" d="M193.56768,93.457a.75058.75058,0,0,1-.53127-1.28184l5.95063-5.95063a.75091.75091,0,1,1,1.06253,1.06136l-5.95063,5.9518A.74835.74835,0,0,1,193.56768,93.457Z"/><path class="f49984ae-7669-4592-8c65-4033556d4a0e" d="M195.26819,192.84288a13.97628,13.97628,0,0,1-13.96064-13.96064v-15.205a.75046.75046,0,0,1,.59459-.73415l13.21007-2.80878a.77626.77626,0,0,1,.312,0l13.21007,2.80878a.75047.75047,0,0,1,.5946.73415v15.205A13.97628,13.97628,0,0,1,195.26819,192.84288Zm-12.4595-28.5581v14.59746a12.4595,12.4595,0,1,0,24.919,0V164.28478l-12.4595-2.64929Z"/><path class="f49984ae-7669-4592-8c65-4033556d4a0e" d="M193.56768,179.93773a.74836.74836,0,0,1-.53127-.21931l-2.55077-2.55077a.75132.75132,0,0,1,1.06253-1.06253l2.55077,2.55077a.75058.75058,0,0,1-.53126,1.28184Z"/><path class="f49984ae-7669-4592-8c65-4033556d4a0e" d="M193.56768,179.93773a.75058.75058,0,0,1-.53127-1.28184l5.95063-5.95063a.75091.75091,0,1,1,1.06253,1.06136l-5.95063,5.9518A.74835.74835,0,0,1,193.56768,179.93773Z"/><path class="f49984ae-7669-4592-8c65-4033556d4a0e" d="M195.26819,19.88148A13.97628,13.97628,0,0,1,181.30755,5.92084v-15.205a.75045.75045,0,0,1,.59459-.73415L195.11221-12.827a.77626.77626,0,0,1,.312,0l13.21007,2.80878a.75046.75046,0,0,1,.5946.73415v15.205A13.97628,13.97628,0,0,1,195.26819,19.88148Zm-12.4595-28.5581V5.92084a12.4595,12.4595,0,1,0,24.919,0V-8.67662l-12.4595-2.64929Z"/><path class="f49984ae-7669-4592-8c65-4033556d4a0e" d="M193.56768,6.97633a.74836.74836,0,0,1-.53127-.21931l-2.55077-2.55077a.75132.75132,0,0,1,1.06253-1.06253l2.55077,2.55077a.75058.75058,0,0,1-.53126,1.28184Z"/><path class="f49984ae-7669-4592-8c65-4033556d4a0e" d="M193.56768,6.97633a.75058.75058,0,0,1-.53127-1.28184L198.987-.25614A.75091.75091,0,1,1,200.04957.80522L194.09894,6.757A.74835.74835,0,0,1,193.56768,6.97633Z"/><path class="f49984ae-7669-4592-8c65-4033556d4a0e" d="M38.32288,56.84715H22.71642A8.89418,8.89418,0,1,1,23.7601,39.12041a11.39166,11.39166,0,0,1,21.58569,5.08551v.028a6.43341,6.43341,0,0,1,4.62585,4.07963.78055.78055,0,1,1-1.47042.52428,4.8623,4.8623,0,0,0-4.054-3.17372.78.78,0,0,1-.6962-.82544l.011-.15972c.011-.15606.02317-.31335.02317-.47307a9.83124,9.83124,0,0,0-18.84968-3.915.7796.7796,0,0,1-.85957.456,7.33351,7.33351,0,1,0-1.35947,14.53962H38.32288a.78032.78032,0,0,1,0,1.56064Z"/><path class="f49984ae-7669-4592-8c65-4033556d4a0e" d="M42.06786,51.86842l3.74555-.79614,3.74555.79614v4.31143a3.74555,3.74555,0,0,1-7.4911,0Z"/><path class="f49984ae-7669-4592-8c65-4033556d4a0e" d="M45.814,60.7061a4.53069,4.53069,0,0,1-4.52587-4.52588V51.86894a.78021.78021,0,0,1,.61816-.76326l3.74555-.79617a.80689.80689,0,0,1,.32432,0l3.74555.79617a.78021.78021,0,0,1,.61816.76326v4.31128A4.53069,4.53069,0,0,1,45.814,60.7061Zm-2.96523-8.20559v3.67971a2.96523,2.96523,0,1,0,5.93046,0V52.50051L45.814,51.87016Z"/><path class="f49984ae-7669-4592-8c65-4033556d4a0e" d="M38.32288,143.32785H22.71642a8.89418,8.89418,0,1,1,1.04368-17.72674,11.39166,11.39166,0,0,1,21.58569,5.08551v.028a6.43341,6.43341,0,0,1,4.62585,4.07963.78055.78055,0,1,1-1.47042.52428,4.8623,4.8623,0,0,0-4.054-3.17372.78.78,0,0,1-.6962-.82544l.011-.15972c.011-.15606.02317-.31335.02317-.47307a9.83124,9.83124,0,0,0-18.84968-3.915.77962.77962,0,0,1-.85957.456,7.3335,7.3335,0,1,0-1.35947,14.53961H38.32288a.78032.78032,0,0,1,0,1.56064Z"/><path class="f49984ae-7669-4592-8c65-4033556d4a0e" d="M42.06786,138.34912l3.74555-.79614,3.74555.79614v4.31143a3.74555,3.74555,0,0,1-7.4911,0Z"/><path class="f49984ae-7669-4592-8c65-4033556d4a0e" d="M45.814,147.1868a4.53069,4.53069,0,0,1-4.52587-4.52588v-4.31128a.78021.78021,0,0,1,.61816-.76326l3.74555-.79617a.80689.80689,0,0,1,.32432,0l3.74555.79617a.78021.78021,0,0,1,.61816.76326v4.31128A4.53069,4.53069,0,0,1,45.814,147.1868Zm-2.96523-8.20559v3.67971a2.96523,2.96523,0,0,0,5.93046,0v-3.67971l-2.96523-.63035Z"/><path class="f49984ae-7669-4592-8c65-4033556d4a0e" d="M166.85926,56.84715H151.2528a8.89418,8.89418,0,1,1,1.04368-17.72674,11.39166,11.39166,0,0,1,21.58569,5.08551v.028a6.43341,6.43341,0,0,1,4.62585,4.07963.78055.78055,0,1,1-1.47042.52428,4.86228,4.86228,0,0,0-4.054-3.17372.78.78,0,0,1-.6962-.82544l.011-.15972c.011-.15606.02316-.31335.02316-.47307a9.83123,9.83123,0,0,0-18.84967-3.915.77962.77962,0,0,1-.85958.456,7.33351,7.33351,0,1,0-1.35947,14.53962h15.60646a.78032.78032,0,1,1,0,1.56064Z"/><path class="f49984ae-7669-4592-8c65-4033556d4a0e" d="M170.60424,51.86842l3.74555-.79614,3.74555.79614v4.31143a3.74555,3.74555,0,1,1-7.4911,0Z"/><path class="f49984ae-7669-4592-8c65-4033556d4a0e" d="M174.35036,60.7061a4.53069,4.53069,0,0,1-4.52587-4.52588V51.86894a.78021.78021,0,0,1,.61816-.76326l3.74555-.79617a.80689.80689,0,0,1,.32432,0l3.74556.79617a.78022.78022,0,0,1,.61816.76326v4.31128A4.5307,4.5307,0,0,1,174.35036,60.7061Zm-2.96522-8.20559v3.67971a2.96523,2.96523,0,1,0,5.93045,0V52.50051l-2.96523-.63035Z"/><path class="f49984ae-7669-4592-8c65-4033556d4a0e" d="M166.85926,143.32785H151.2528a8.89418,8.89418,0,1,1,1.04368-17.72674,11.39166,11.39166,0,0,1,21.58569,5.08551v.028a6.43341,6.43341,0,0,1,4.62585,4.07963.78055.78055,0,0,1-1.47042.52428,4.86228,4.86228,0,0,0-4.054-3.17372.78.78,0,0,1-.6962-.82544l.011-.15972c.011-.15606.02316-.31335.02316-.47307a9.83123,9.83123,0,0,0-18.84967-3.915.77964.77964,0,0,1-.85958.456,7.3335,7.3335,0,1,0-1.35947,14.53961h15.60646a.78032.78032,0,1,1,0,1.56064Z"/><path class="f49984ae-7669-4592-8c65-4033556d4a0e" d="M170.60424,138.34912l3.74555-.79614,3.74555.79614v4.31143a3.74555,3.74555,0,1,1-7.4911,0Z"/><path class="f49984ae-7669-4592-8c65-4033556d4a0e" d="M174.35036,147.1868a4.53069,4.53069,0,0,1-4.52587-4.52588v-4.31128a.78021.78021,0,0,1,.61816-.76326l3.74555-.79617a.80689.80689,0,0,1,.32432,0l3.74556.79617a.78022.78022,0,0,1,.61816.76326v4.31128A4.5307,4.5307,0,0,1,174.35036,147.1868Zm-2.96522-8.20559v3.67971a2.96523,2.96523,0,1,0,5.93045,0v-3.67971l-2.96523-.63035Z"/></g><path class="f212d94e-a879-4f7a-b3df-28befd00ba9b" d="M100.56648,89.91036a10.37633,10.37633,0,0,1,.35881,2.10614c0,2.9131-3.27187,4.52619-7.57338,4.52619-9.72515,0-18.23941-5.69117-18.23941-9.45559a3.83082,3.83082,0,0,1,.31365-1.52359c-3.49563.17926-8.02176.80646-8.02176,4.7949,0,6.54267,15.50575,14.60915,27.78458,14.60915,9.41106,0,11.78571-4.257,11.78571-7.61808,0-2.64441-2.28526-5.64632-6.4082-7.43912m-6.76679,2.37523c2.59957,0,6.3635-.538,6.3635-3.63a2.93887,2.93887,0,0,0-.06445-.71144l-1.54831-6.72749c-.359-1.47881-.6725-2.15118-3.27165-3.45087-2.01689-1.03047-6.40841-2.73332-7.70813-2.73332-1.20994,0-1.56815,1.56815-3.00243,1.56815-1.389,0-2.41978-1.16488-3.71936-1.16488-1.25449,0-2.06157.85123-2.68886,2.59916,0,0-1.74792,4.92939-1.972,5.646a1.29972,1.29972,0,0,0-.04617.40379c0,1.91581,7.54509,8.20092,17.65782,8.20092"/><path d="M100.56648,89.91036a10.37633,10.37633,0,0,1,.35881,2.10614c0,2.9131-3.27187,4.52619-7.57338,4.52619-9.72515,0-18.23941-5.69117-18.23941-9.45559a3.83082,3.83082,0,0,1,.31365-1.52359l.76189-1.88263a1.29972,1.29972,0,0,0-.04617.40379c0,1.91581,7.54509,8.20092,17.65782,8.20092,2.59957,0,6.3635-.538,6.3635-3.63a2.93887,2.93887,0,0,0-.06445-.71144l.46774,1.96624Z"/><path d="M114.28571,97.74072h3.76018v-5.5749h2.86421l2.88583,5.5749h4.19757l-3.36687-6.1214a4.63036,4.63036,0,0,0,2.886-4.307c0-2.75465-2.16448-4.87539-5.40017-4.87539h-7.82679V97.74072Zm7.47692-12.08992a1.73944,1.73944,0,1,1,0,3.45432h-3.71674V85.6508Zm6.09949,6.3183a6.072,6.072,0,0,0,6.29636,5.99032,6.9399,6.9399,0,0,0,4.8316-1.74892l-2.33909-2.077a3.13292,3.13292,0,0,1-2.31748.87446,2.9886,2.9886,0,0,1-2.84217-1.83644h8.24214v-.87446c0-3.673-2.47048-6.31828-5.83715-6.31828a5.94042,5.94042,0,0,0-6.03421,5.99032m5.96852-3.10454a2.55783,2.55783,0,0,1,2.42662,1.83654h-4.83162a2.40879,2.40879,0,0,1,2.405-1.83654m16.04689,8.87616h3.49805V81.6718l-3.5417.76515v4.35072A5.95956,5.95956,0,1,0,146.773,97.89393a5.216,5.216,0,0,0,3.10452-1.00573v.85252Zm-5.53113-5.79344a2.92845,2.92845,0,0,1,3.03882-2.92965,3.58358,3.58358,0,0,1,2.44866.89639v4.04459a3.40259,3.40259,0,0,1-2.44866.91821,2.94151,2.94151,0,0,1-3.03882-2.92954m14.32894,5.79344h3.7606V91.75045h6.29636v5.99027h3.76039V82.437H168.7323v5.88111h-6.29636V82.437h-3.7606V97.74072Zm19.21732.19687a5.41194,5.41194,0,0,0,3.192-.89639v.69952h3.498V90.32939c0-2.82023-1.90212-4.37254-5.07213-4.37254a12.87031,12.87031,0,0,0-5.40017,1.2681l1.26808,2.60156a9.4506,9.4506,0,0,1,3.49805-.91821c1.46474,0,2.20814.56844,2.20814,1.72721V91.204a10.2677,10.2677,0,0,0-2.62348-.328c-2.97337,0-4.76613,1.24617-4.76613,3.47613,0,2.0332,1.61774,3.58546,4.19757,3.58546m-1.08059-3.651c0-.76523.76523-1.13685,1.924-1.13685a8.89214,8.89214,0,0,1,2.09879.26229v1.48673a4.47024,4.47024,0,0,1-2.20814.54651c-1.13689,0-1.81461-.43728-1.81461-1.15868M187.818,94.221c0,2.47034,1.487,3.67293,4.1978,3.67293a10.86322,10.86322,0,0,0,2.47068-.34987v-2.864a5.14651,5.14651,0,0,1-1.59613.24046c-1.11507,0-1.53022-.34978-1.53022-1.39923V89.12695h3.23548V86.17548h-3.23548V82.437l-3.54213.76524v2.97329h-2.33929v2.95147H187.818V94.221Z"/></g></svg>