<svg xmlns="http://www.w3.org/2000/svg" xmlns:xlink="http://www.w3.org/1999/xlink" viewBox="0 0 262 180"><defs><style>.bb078b99-25c7-45ed-9298-11224ae13acb{fill:none;}.bd9358aa-911e-4d1d-92fe-81ac3862b361{clip-path:url(#a6268359-ffb8-484d-aedf-50aeee620d3c);}.a0c00e8f-a9c8-4295-9f5d-c580b1abe1de{fill:#dedede;}.a89a223c-d1ee-4dec-8541-c0187c3d0669{fill:#f3f3f3;}.a1cbc6e6-066d-4e9a-9a94-2fe10f02e09d{clip-path:url(#b14ec902-3069-4958-b1d0-38945a918502);}.e0e340df-cbfe-4a79-9bc5-7e186ae975fa{fill:#ed0000;}</style><clipPath id="a6268359-ffb8-484d-aedf-50aeee620d3c"><rect class="bb078b99-25c7-45ed-9298-11224ae13acb" x="-288.96668" width="261.88085" height="180"/></clipPath><clipPath id="b14ec902-3069-4958-b1d0-38945a918502"><rect class="bb078b99-25c7-45ed-9298-11224ae13acb" x="0.11915" width="261.88085" height="180"/></clipPath></defs><g id="b6d97840-e9ac-46a4-ab1c-ffd91b8a69cb" data-name="Layer 3"><g class="bd9358aa-911e-4d1d-92fe-81ac3862b361"><path class="a0c00e8f-a9c8-4295-9f5d-c580b1abe1de" d="M-51.0086,89.28245c2.8721,13.63082,2.8721,15.06572,2.8721,16.85888,0,23.31823-26.19,36.23038-60.62192,36.23038-77.84606,0-145.99936-45.55561-145.99936-75.68836a30.66417,30.66417,0,0,1,2.51066-12.19573c-27.98113,1.43489-64.21106,6.45539-64.21106,38.3813,0,52.37156,124.11745,116.94058,222.4047,116.94058,75.33188,0,94.34-34.07587,94.34-60.97975,0-21.16747-18.2926-45.19664-51.29512-59.5473m-54.16553,19.01279c20.80859,0,50.93733-4.30635,50.93733-29.057a23.52834,23.52834,0,0,0-.51584-5.69478L-67.14627,19.69258C-70.02,7.85527-72.52937,2.47316-93.33461-7.93033-109.479-16.17883-144.6314-29.8095-155.03519-29.8095c-9.68509,0-12.55236,12.55247-24.03326,12.55247-11.11834,0-19.3694-9.32439-29.772-9.32439-10.04171,0-16.50208,6.81374-21.52331,20.80521,0,0-13.9914,39.45788-15.78471,45.19415a10.40154,10.40154,0,0,0-.3696,3.23217c0,15.33526,60.39548,65.64513,141.34394,65.64513"/></g><rect class="a89a223c-d1ee-4dec-8541-c0187c3d0669" x="0.05958" width="261.88085" height="180"/><g class="a1cbc6e6-066d-4e9a-9a94-2fe10f02e09d"><path class="a0c00e8f-a9c8-4295-9f5d-c580b1abe1de" d="M252.22011,110.80483c3.25144,15.4312,3.25144,17.05561,3.25144,19.08561,0,26.39813-29.64922,41.01574-68.62892,41.01574-88.12805,0-165.28311-51.57265-165.28311-85.68537a34.71457,34.71457,0,0,1,2.84226-13.80655c-31.6769,1.62441-72.69211,7.308-72.69211,43.45074,0,59.28886,140.511,132.38621,251.78014,132.38621,85.28179,0,106.80052-38.57664,106.80052-69.034,0-23.96328-20.7087-51.16626-58.07022-67.41236m-68.30841-46.303c20.80859,0,50.93733-4.30635,50.93733-29.057a23.52784,23.52784,0,0,0-.51584-5.69478L221.93956-24.10084c-2.87374-11.8373-5.3831-17.21942-26.18834-27.6229-16.14435-8.2485-51.29679-21.87917-61.70057-21.87917-9.6851,0-12.55237,12.55246-24.03327,12.55246-11.11834,0-19.3694-9.32439-29.772-9.32439-10.04172,0-16.50209,6.81374-21.52332,20.80521,0,0-13.9914,39.45788-15.78471,45.19415a10.40154,10.40154,0,0,0-.36959,3.23217c0,15.33527,60.39548,65.64513,141.34393,65.64513"/></g><path class="e0e340df-cbfe-4a79-9bc5-7e186ae975fa" d="M100.56648,89.91036a10.37633,10.37633,0,0,1,.35881,2.10614c0,2.9131-3.27187,4.52619-7.57338,4.52619-9.72515,0-18.23941-5.69117-18.23941-9.45559a3.83082,3.83082,0,0,1,.31365-1.52359c-3.49563.17926-8.02176.80646-8.02176,4.7949,0,6.54267,15.50575,14.60915,27.78458,14.60915,9.41106,0,11.78571-4.257,11.78571-7.61808,0-2.64441-2.28526-5.64632-6.4082-7.43912m-6.76679,2.37523c2.59957,0,6.3635-.538,6.3635-3.63a2.93887,2.93887,0,0,0-.06445-.71144l-1.54831-6.72749c-.359-1.47881-.6725-2.15118-3.27165-3.45087-2.01689-1.03047-6.40841-2.73332-7.70813-2.73332-1.20994,0-1.56815,1.56815-3.00243,1.56815-1.389,0-2.41978-1.16488-3.71936-1.16488-1.25449,0-2.06157.85123-2.68886,2.59916,0,0-1.74792,4.92939-1.972,5.646a1.29972,1.29972,0,0,0-.04617.40379c0,1.91581,7.54509,8.20092,17.65782,8.20092"/><path d="M100.56648,89.91036a10.37633,10.37633,0,0,1,.35881,2.10614c0,2.9131-3.27187,4.52619-7.57338,4.52619-9.72515,0-18.23941-5.69117-18.23941-9.45559a3.83082,3.83082,0,0,1,.31365-1.52359l.76189-1.88263a1.29972,1.29972,0,0,0-.04617.40379c0,1.91581,7.54509,8.20092,17.65782,8.20092,2.59957,0,6.3635-.538,6.3635-3.63a2.93887,2.93887,0,0,0-.06445-.71144l.46774,1.96624Z"/><path d="M114.28571,97.74072h3.76018v-5.5749h2.86421l2.88583,5.5749h4.19757l-3.36687-6.1214a4.63036,4.63036,0,0,0,2.886-4.307c0-2.75465-2.16448-4.87539-5.40017-4.87539h-7.82679V97.74072Zm7.47692-12.08992a1.73944,1.73944,0,1,1,0,3.45432h-3.71674V85.6508Zm6.09949,6.3183a6.072,6.072,0,0,0,6.29636,5.99032,6.9399,6.9399,0,0,0,4.8316-1.74892l-2.33909-2.077a3.13292,3.13292,0,0,1-2.31748.87446,2.9886,2.9886,0,0,1-2.84217-1.83644h8.24214v-.87446c0-3.673-2.47048-6.31828-5.83715-6.31828a5.94042,5.94042,0,0,0-6.03421,5.99032m5.96852-3.10454a2.55783,2.55783,0,0,1,2.42662,1.83654h-4.83162a2.40879,2.40879,0,0,1,2.405-1.83654m16.04689,8.87616h3.49805V81.6718l-3.5417.76515v4.35072A5.95956,5.95956,0,1,0,146.773,97.89393a5.216,5.216,0,0,0,3.10452-1.00573v.85252Zm-5.53113-5.79344a2.92845,2.92845,0,0,1,3.03882-2.92965,3.58358,3.58358,0,0,1,2.44866.89639v4.04459a3.40259,3.40259,0,0,1-2.44866.91821,2.94151,2.94151,0,0,1-3.03882-2.92954m14.32894,5.79344h3.7606V91.75045h6.29636v5.99027h3.76039V82.437H168.7323v5.88111h-6.29636V82.437h-3.7606V97.74072Zm19.21732.19687a5.41194,5.41194,0,0,0,3.192-.89639v.69952h3.498V90.32939c0-2.82023-1.90212-4.37254-5.07213-4.37254a12.87031,12.87031,0,0,0-5.40017,1.2681l1.26808,2.60156a9.4506,9.4506,0,0,1,3.49805-.91821c1.46474,0,2.20814.56844,2.20814,1.72721V91.204a10.2677,10.2677,0,0,0-2.62348-.328c-2.97337,0-4.76613,1.24617-4.76613,3.47613,0,2.0332,1.61774,3.58546,4.19757,3.58546m-1.08059-3.651c0-.76523.76523-1.13685,1.924-1.13685a8.89214,8.89214,0,0,1,2.09879.26229v1.48673a4.47024,4.47024,0,0,1-2.20814.54651c-1.13689,0-1.81461-.43728-1.81461-1.15868M187.818,94.221c0,2.47034,1.487,3.67293,4.1978,3.67293a10.86322,10.86322,0,0,0,2.47068-.34987v-2.864a5.14651,5.14651,0,0,1-1.59613.24046c-1.11507,0-1.53022-.34978-1.53022-1.39923V89.12695h3.23548V86.17548h-3.23548V82.437l-3.54213.76524v2.97329h-2.33929v2.95147H187.818V94.221Z"/></g></svg>