<svg xmlns="http://www.w3.org/2000/svg" xmlns:xlink="http://www.w3.org/1999/xlink" viewBox="0 0 262 180"><defs><style>.b39a483f-99a4-4435-8429-2858a72d642c{fill:none;}.b3042f81-4595-47f0-8d59-566fcf6e662d{clip-path:url(#a4694c72-687d-4554-a391-f1427a9b38eb);}.b3bdf339-f9a5-4d4b-b8ea-65d00fe4d47b{fill:#c9c9c9;}.b35b9f61-13cc-4065-a0b4-e8757ced02b5{clip-path:url(#bcbad8e8-602d-44e8-9f77-8873ee2a4176);}.f31ee9af-69c9-4bfc-84e2-ee64527be8e0{fill:#f3f3f3;}</style><clipPath id="a4694c72-687d-4554-a391-f1427a9b38eb"><rect class="b39a483f-99a4-4435-8429-2858a72d642c" x="-289.08583" width="262" height="180"/></clipPath><clipPath id="bcbad8e8-602d-44e8-9f77-8873ee2a4176"><rect class="b39a483f-99a4-4435-8429-2858a72d642c" width="262" height="180"/></clipPath></defs><g id="a3f5be11-bd5a-4f41-9d78-5801e0612ccb" data-name="Layer 3"><g class="b3042f81-4595-47f0-8d59-566fcf6e662d"><path class="b3bdf339-f9a5-4d4b-b8ea-65d00fe4d47b" d="M51.78683,7.58362a11.21426,11.21426,0,0,1,.38777,2.2762c0,3.1483-3.536,4.89163-8.18484,4.89163-10.51035,0-19.712-6.15067-19.712-10.219a4.13992,4.13992,0,0,1,.339-1.6466c-3.77786.19373-8.66943.87157-8.66943,5.182,0,7.07092,16.75766,15.78868,30.02787,15.78868,10.1709,0,12.73727-4.60074,12.73727-8.23315,0-2.85792-2.46977-6.10221-6.92558-8.03976m-7.31314,2.567c2.80946,0,6.87728-.58142,6.87728-3.92312a3.17654,3.17654,0,0,0-.06965-.76888L49.608-1.812c-.388-1.59821-.72679-2.32487-3.5358-3.7295-2.17972-1.11366-6.92582-2.954-8.33048-2.954-1.30763,0-1.69475,1.69476-3.24484,1.69476-1.50114,0-2.61515-1.25892-4.01965-1.25892-1.35578,0-2.228.92-2.906,2.809,0,0-1.889,5.32739-2.13117,6.10187a1.40441,1.40441,0,0,0-.0499.43639c0,2.07048,8.15427,8.86305,19.08349,8.86305"/><path class="b3bdf339-f9a5-4d4b-b8ea-65d00fe4d47b" d="M17.13531,50.824a11.2141,11.2141,0,0,1,.38778,2.2762c0,3.1483-3.536,4.89163-8.18484,4.89163-10.51036,0-19.712-6.15067-19.712-10.219a4.1401,4.1401,0,0,1,.339-1.6466c-3.77786.19373-8.66942.87157-8.66942,5.182,0,7.07092,16.75766,15.78868,30.02787,15.78868,10.1709,0,12.73727-4.60074,12.73727-8.23315,0-2.85792-2.46977-6.10221-6.92559-8.03976M9.82218,53.391c2.80946,0,6.87728-.58142,6.87728-3.92312a3.17654,3.17654,0,0,0-.06965-.76888l-1.67332-7.27065c-.388-1.59821-.7268-2.32487-3.53581-3.7295-2.17972-1.11366-6.92581-2.954-8.33047-2.954-1.30763,0-1.69475,1.69476-3.24484,1.69476-1.50114,0-2.61515-1.25892-4.01965-1.25892-1.35578,0-2.228.92-2.906,2.809,0,0-1.889,5.32739-2.13116,6.10187a1.40441,1.40441,0,0,0-.0499.43639c0,2.07048,8.15427,8.86305,19.08349,8.86305"/><path class="b3bdf339-f9a5-4d4b-b8ea-65d00fe4d47b" d="M51.78683,94.06432a11.21437,11.21437,0,0,1,.38777,2.2762c0,3.1483-3.536,4.89163-8.18484,4.89163-10.51035,0-19.712-6.15067-19.712-10.219a4.13992,4.13992,0,0,1,.339-1.6466c-3.77786.19373-8.66943.87157-8.66943,5.182,0,7.07092,16.75766,15.78868,30.02787,15.78868,10.1709,0,12.73727-4.60074,12.73727-8.23315,0-2.85792-2.46977-6.10221-6.92558-8.03976m-7.31314,2.567c2.80946,0,6.87728-.58142,6.87728-3.92312a3.17654,3.17654,0,0,0-.06965-.76888L49.608,84.66868c-.388-1.59821-.72679-2.32487-3.5358-3.7295-2.17972-1.11366-6.92582-2.954-8.33048-2.954-1.30763,0-1.69475,1.69476-3.24484,1.69476-1.50114,0-2.61515-1.25892-4.01965-1.25892-1.35578,0-2.228.92-2.906,2.809,0,0-1.889,5.32739-2.13117,6.10187a1.40441,1.40441,0,0,0-.0499.43639c0,2.07048,8.15427,8.86305,19.08349,8.86305"/><path class="b3bdf339-f9a5-4d4b-b8ea-65d00fe4d47b" d="M17.13531,137.30467a11.2141,11.2141,0,0,1,.38778,2.2762c0,3.1483-3.536,4.89163-8.18484,4.89163-10.51036,0-19.712-6.15067-19.712-10.219a4.1401,4.1401,0,0,1,.339-1.6466c-3.77786.19373-8.66942.87157-8.66942,5.182,0,7.07092,16.75766,15.78868,30.02787,15.78868,10.1709,0,12.73727-4.60074,12.73727-8.23315,0-2.85792-2.46977-6.10221-6.92559-8.03976m-7.31313,2.567c2.80946,0,6.87728-.58142,6.87728-3.92312a3.17654,3.17654,0,0,0-.06965-.76888L14.95649,127.909c-.388-1.59821-.7268-2.32487-3.53581-3.72949-2.17972-1.11367-6.92581-2.954-8.33047-2.954-1.30763,0-1.69475,1.69476-3.24484,1.69476-1.50114,0-2.61515-1.25892-4.01965-1.25892-1.35578,0-2.228.92-2.906,2.809,0,0-1.889,5.32739-2.13116,6.10187a1.40441,1.40441,0,0,0-.0499.43639c0,2.07048,8.15427,8.863,19.08349,8.863"/><path class="b3bdf339-f9a5-4d4b-b8ea-65d00fe4d47b" d="M51.78683,180.545a11.21437,11.21437,0,0,1,.38777,2.2762c0,3.1483-3.536,4.89163-8.18484,4.89163-10.51035,0-19.712-6.15067-19.712-10.219a4.13992,4.13992,0,0,1,.339-1.6466c-3.77786.19373-8.66943.87157-8.66943,5.182,0,7.07092,16.75766,15.78868,30.02787,15.78868,10.1709,0,12.73727-4.60074,12.73727-8.23315,0-2.85792-2.46977-6.10221-6.92558-8.03976m-7.31314,2.567c2.80946,0,6.87728-.58142,6.87728-3.92312a3.17654,3.17654,0,0,0-.06965-.76888L49.608,171.14938c-.388-1.59821-.72679-2.32487-3.5358-3.72949-2.17972-1.11367-6.92582-2.954-8.33048-2.954-1.30763,0-1.69475,1.69476-3.24484,1.69476-1.50114,0-2.61515-1.25892-4.01965-1.25892-1.35578,0-2.228.92-2.906,2.809,0,0-1.889,5.32739-2.13117,6.10187a1.40441,1.40441,0,0,0-.0499.43639c0,2.07048,8.15427,8.86305,19.08349,8.86305"/></g><g class="b35b9f61-13cc-4065-a0b4-e8757ced02b5"><rect class="f31ee9af-69c9-4bfc-84e2-ee64527be8e0" width="262" height="180"/><path class="b3bdf339-f9a5-4d4b-b8ea-65d00fe4d47b" d="M19.5317,7.58362a11.21426,11.21426,0,0,1,.38777,2.2762c0,3.1483-3.536,4.89163-8.18484,4.89163-10.51035,0-19.712-6.15067-19.712-10.219a4.1401,4.1401,0,0,1,.339-1.6466c-3.77786.19373-8.66943.87157-8.66943,5.182,0,7.07092,16.75766,15.78868,30.02787,15.78868,10.1709,0,12.73727-4.60074,12.73727-8.23315,0-2.85792-2.46976-6.10221-6.92558-8.03976m-7.31314,2.567c2.80946,0,6.87728-.58142,6.87728-3.92312a3.177,3.177,0,0,0-.06964-.76888L17.35288-1.812c-.388-1.59821-.7268-2.32487-3.53581-3.7295-2.17972-1.11366-6.92581-2.954-8.33048-2.954-1.30762,0-1.69475,1.69476-3.24484,1.69476-1.50113,0-2.61515-1.25892-4.01965-1.25892-1.35578,0-2.228.92-2.906,2.809,0,0-1.889,5.32739-2.13117,6.10187a1.40441,1.40441,0,0,0-.0499.43639c0,2.07048,8.15427,8.86305,19.08349,8.86305"/><path class="b3bdf339-f9a5-4d4b-b8ea-65d00fe4d47b" d="M148.06808,7.58362a11.214,11.214,0,0,1,.38778,2.2762c0,3.1483-3.536,4.89163-8.18485,4.89163-10.51035,0-19.712-6.15067-19.712-10.219a4.1401,4.1401,0,0,1,.339-1.6466c-3.77786.19373-8.66943.87157-8.66943,5.182,0,7.07092,16.75767,15.78868,30.02788,15.78868,10.17089,0,12.73727-4.60074,12.73727-8.23315,0-2.85792-2.46977-6.10221-6.92559-8.03976m-7.31313,2.567c2.80946,0,6.87728-.58142,6.87728-3.92312a3.17654,3.17654,0,0,0-.06965-.76888L145.88926-1.812c-.388-1.59821-.7268-2.32487-3.53581-3.7295-2.17972-1.11366-6.92581-2.954-8.33047-2.954-1.30763,0-1.69475,1.69476-3.24484,1.69476-1.50114,0-2.61515-1.25892-4.01966-1.25892-1.35577,0-2.228.92-2.906,2.809,0,0-1.889,5.32739-2.13116,6.10187a1.40441,1.40441,0,0,0-.0499.43639c0,2.07048,8.15427,8.86305,19.08349,8.86305"/><path class="b3bdf339-f9a5-4d4b-b8ea-65d00fe4d47b" d="M276.60446,7.58362a11.214,11.214,0,0,1,.38778,2.2762c0,3.1483-3.536,4.89163-8.18484,4.89163-10.51035,0-19.712-6.15067-19.712-10.219a4.1401,4.1401,0,0,1,.339-1.6466c-3.77785.19373-8.66942.87157-8.66942,5.182,0,7.07092,16.75766,15.78868,30.02787,15.78868,10.1709,0,12.73727-4.60074,12.73727-8.23315,0-2.85792-2.46977-6.10221-6.92559-8.03976m-7.31313,2.567c2.80946,0,6.87728-.58142,6.87728-3.92312a3.17654,3.17654,0,0,0-.06965-.76888L274.42564-1.812c-.388-1.59821-.72679-2.32487-3.5358-3.7295-2.17973-1.11366-6.92582-2.954-8.33048-2.954-1.30763,0-1.69475,1.69476-3.24484,1.69476-1.50114,0-2.61515-1.25892-4.01965-1.25892-1.35578,0-2.228.92-2.906,2.809,0,0-1.889,5.32739-2.13117,6.10187a1.40441,1.40441,0,0,0-.0499.43639c0,2.07048,8.15427,8.86305,19.08349,8.86305"/><path class="b3bdf339-f9a5-4d4b-b8ea-65d00fe4d47b" d="M19.5317,94.06432a11.21437,11.21437,0,0,1,.38777,2.2762c0,3.1483-3.536,4.89163-8.18484,4.89163-10.51035,0-19.712-6.15067-19.712-10.219a4.1401,4.1401,0,0,1,.339-1.6466c-3.77786.19373-8.66943.87157-8.66943,5.182,0,7.07092,16.75766,15.78868,30.02787,15.78868,10.1709,0,12.73727-4.60074,12.73727-8.23315,0-2.85792-2.46976-6.10221-6.92558-8.03976m-7.31314,2.567c2.80946,0,6.87728-.58142,6.87728-3.92312a3.177,3.177,0,0,0-.06964-.76888l-1.67332-7.27065c-.388-1.59821-.7268-2.32487-3.53581-3.7295-2.17972-1.11366-6.92581-2.954-8.33048-2.954-1.30762,0-1.69475,1.69476-3.24484,1.69476C.74062,79.67994-.3734,78.421-1.7779,78.421c-1.35578,0-2.228.92-2.906,2.809,0,0-1.889,5.32739-2.13117,6.10187a1.40441,1.40441,0,0,0-.0499.43639c0,2.07048,8.15427,8.86305,19.08349,8.86305"/><path class="b3bdf339-f9a5-4d4b-b8ea-65d00fe4d47b" d="M148.06808,94.06432a11.2141,11.2141,0,0,1,.38778,2.2762c0,3.1483-3.536,4.89163-8.18485,4.89163-10.51035,0-19.712-6.15067-19.712-10.219a4.1401,4.1401,0,0,1,.339-1.6466c-3.77786.19373-8.66943.87157-8.66943,5.182,0,7.07092,16.75767,15.78868,30.02788,15.78868,10.17089,0,12.73727-4.60074,12.73727-8.23315,0-2.85792-2.46977-6.10221-6.92559-8.03976m-7.31313,2.567c2.80946,0,6.87728-.58142,6.87728-3.92312a3.17654,3.17654,0,0,0-.06965-.76888l-1.67332-7.27065c-.388-1.59821-.7268-2.32487-3.53581-3.7295-2.17972-1.11366-6.92581-2.954-8.33047-2.954-1.30763,0-1.69475,1.69476-3.24484,1.69476-1.50114,0-2.61515-1.25892-4.01966-1.25892-1.35577,0-2.228.92-2.906,2.809,0,0-1.889,5.32739-2.13116,6.10187a1.40441,1.40441,0,0,0-.0499.43639c0,2.07048,8.15427,8.86305,19.08349,8.86305"/><path class="b3bdf339-f9a5-4d4b-b8ea-65d00fe4d47b" d="M276.60446,94.06432a11.2141,11.2141,0,0,1,.38778,2.2762c0,3.1483-3.536,4.89163-8.18484,4.89163-10.51035,0-19.712-6.15067-19.712-10.219a4.1401,4.1401,0,0,1,.339-1.6466c-3.77785.19373-8.66942.87157-8.66942,5.182,0,7.07092,16.75766,15.78868,30.02787,15.78868,10.1709,0,12.73727-4.60074,12.73727-8.23315,0-2.85792-2.46977-6.10221-6.92559-8.03976m-7.31313,2.567c2.80946,0,6.87728-.58142,6.87728-3.92312a3.17654,3.17654,0,0,0-.06965-.76888l-1.67332-7.27065c-.388-1.59821-.72679-2.32487-3.5358-3.7295-2.17973-1.11366-6.92582-2.954-8.33048-2.954-1.30763,0-1.69475,1.69476-3.24484,1.69476-1.50114,0-2.61515-1.25892-4.01965-1.25892-1.35578,0-2.228.92-2.906,2.809,0,0-1.889,5.32739-2.13117,6.10187a1.40441,1.40441,0,0,0-.0499.43639c0,2.07048,8.15427,8.86305,19.08349,8.86305"/><path class="b3bdf339-f9a5-4d4b-b8ea-65d00fe4d47b" d="M19.5317,180.545a11.21437,11.21437,0,0,1,.38777,2.2762c0,3.1483-3.536,4.89163-8.18484,4.89163-10.51035,0-19.712-6.15067-19.712-10.219a4.1401,4.1401,0,0,1,.339-1.6466c-3.77786.19373-8.66943.87157-8.66943,5.182,0,7.07092,16.75766,15.78868,30.02787,15.78868,10.1709,0,12.73727-4.60074,12.73727-8.23315,0-2.85792-2.46976-6.10221-6.92558-8.03976m-7.31314,2.567c2.80946,0,6.87728-.58142,6.87728-3.92312a3.177,3.177,0,0,0-.06964-.76888l-1.67332-7.27065c-.388-1.59821-.7268-2.32487-3.53581-3.72949-2.17972-1.11367-6.92581-2.954-8.33048-2.954-1.30762,0-1.69475,1.69476-3.24484,1.69476-1.50113,0-2.61515-1.25892-4.01965-1.25892-1.35578,0-2.228.92-2.906,2.809,0,0-1.889,5.32739-2.13117,6.10187a1.40441,1.40441,0,0,0-.0499.43639c0,2.07048,8.15427,8.86305,19.08349,8.86305"/><path class="b3bdf339-f9a5-4d4b-b8ea-65d00fe4d47b" d="M148.06808,180.545a11.2141,11.2141,0,0,1,.38778,2.2762c0,3.1483-3.536,4.89163-8.18485,4.89163-10.51035,0-19.712-6.15067-19.712-10.219a4.1401,4.1401,0,0,1,.339-1.6466c-3.77786.19373-8.66943.87157-8.66943,5.182,0,7.07092,16.75767,15.78868,30.02788,15.78868,10.17089,0,12.73727-4.60074,12.73727-8.23315,0-2.85792-2.46977-6.10221-6.92559-8.03976m-7.31313,2.567c2.80946,0,6.87728-.58142,6.87728-3.92312a3.17654,3.17654,0,0,0-.06965-.76888l-1.67332-7.27065c-.388-1.59821-.7268-2.32487-3.53581-3.72949-2.17972-1.11367-6.92581-2.954-8.33047-2.954-1.30763,0-1.69475,1.69476-3.24484,1.69476-1.50114,0-2.61515-1.25892-4.01966-1.25892-1.35577,0-2.228.92-2.906,2.809,0,0-1.889,5.32739-2.13116,6.10187a1.40441,1.40441,0,0,0-.0499.43639c0,2.07048,8.15427,8.86305,19.08349,8.86305"/><path class="b3bdf339-f9a5-4d4b-b8ea-65d00fe4d47b" d="M276.60446,180.545a11.2141,11.2141,0,0,1,.38778,2.2762c0,3.1483-3.536,4.89163-8.18484,4.89163-10.51035,0-19.712-6.15067-19.712-10.219a4.1401,4.1401,0,0,1,.339-1.6466c-3.77785.19373-8.66942.87157-8.66942,5.182,0,7.07092,16.75766,15.78868,30.02787,15.78868,10.1709,0,12.73727-4.60074,12.73727-8.23315,0-2.85792-2.46977-6.10221-6.92559-8.03976m-7.31313,2.567c2.80946,0,6.87728-.58142,6.87728-3.92312a3.17654,3.17654,0,0,0-.06965-.76888l-1.67332-7.27065c-.388-1.59821-.72679-2.32487-3.5358-3.72949-2.17973-1.11367-6.92582-2.954-8.33048-2.954-1.30763,0-1.69475,1.69476-3.24484,1.69476-1.50114,0-2.61515-1.25892-4.01965-1.25892-1.35578,0-2.228.92-2.906,2.809,0,0-1.889,5.32739-2.13117,6.10187a1.40441,1.40441,0,0,0-.0499.43639c0,2.07048,8.15427,8.86305,19.08349,8.86305"/><path class="b3bdf339-f9a5-4d4b-b8ea-65d00fe4d47b" d="M215.48681,142.76934a.75146.75146,0,0,1-.75057-.75057v-4.04958l-2.84983.01056h-.00235a.75077.75077,0,0,1-.75057-.75057V124.005a.75126.75126,0,0,1,.75057-.75057h21.61648a.75127.75127,0,0,1,.75058.75057V137.2151a.75127.75127,0,0,1-.75058.75057H220.60126L216.01807,142.55A.75515.75515,0,0,1,215.48681,142.76934Zm0-6.30481a.75077.75077,0,0,1,.75057.75057v2.99174l3.52183-3.523a.75083.75083,0,0,1,.53126-.21931H232.75V124.7556H212.63463v11.71948l2.84983-.01055Z"/><path class="b3bdf339-f9a5-4d4b-b8ea-65d00fe4d47b" d="M239.50512,153.57758a.75515.75515,0,0,1-.53126-.21931l-4.58318-4.58435H221.49139a.75128.75128,0,0,1-.75058-.75058v-7.20549a.75058.75058,0,0,1,1.50115,0v6.45492h12.4595a.75087.75087,0,0,1,.53127.21931l3.52182,3.523v-2.99174a.75077.75077,0,0,1,.75057-.75057h.00235l2.84983.01056V135.56384h-5.254a.75057.75057,0,0,1,0-1.50114h6.00458a.75126.75126,0,0,1,.75057.75057v13.22415a.75077.75077,0,0,1-.75057.75057h-.00234l-2.84983-.01056V152.827a.75147.75147,0,0,1-.75058.75057Z"/><path class="b3bdf339-f9a5-4d4b-b8ea-65d00fe4d47b" d="M86.95042,141.75487a.75144.75144,0,0,1-.75057-.75057v-4.04957l-2.84983.01055h-.00234a.75075.75075,0,0,1-.75057-.75057V122.99056a.75127.75127,0,0,1,.75057-.75057h21.61648a.75127.75127,0,0,1,.75057.75057v13.21008a.75126.75126,0,0,1-.75057.75057H92.06487l-4.58318,4.58436A.75521.75521,0,0,1,86.95042,141.75487Zm0-6.3048a.75075.75075,0,0,1,.75058.75057v2.99173l3.52182-3.523a.75086.75086,0,0,1,.53127-.2193h12.4595V123.74114H84.09825v11.71948l2.84983-.01055Z"/><path class="b3bdf339-f9a5-4d4b-b8ea-65d00fe4d47b" d="M110.96874,152.56312a.75515.75515,0,0,1-.53126-.21931l-4.58319-4.58436H92.955a.75127.75127,0,0,1-.75057-.75057v-7.20549a.75058.75058,0,1,1,1.50115,0v6.45492h12.4595a.75079.75079,0,0,1,.53126.21931l3.52183,3.523v-2.99173a.75077.75077,0,0,1,.75057-.75057h.00235l2.84983.01055V134.54938h-5.254a.75058.75058,0,0,1,0-1.50115h6.00458a.75127.75127,0,0,1,.75057.75058V147.023a.75077.75077,0,0,1-.75057.75058h-.00235l-2.84983-.01056v4.04957a.75146.75146,0,0,1-.75057.75058Z"/><path class="b3bdf339-f9a5-4d4b-b8ea-65d00fe4d47b" d="M215.48681,55.27417a.75143.75143,0,0,1-.75057-.75057V50.474l-2.84983.01055h-.00235a.75075.75075,0,0,1-.75057-.75057V36.50986a.75127.75127,0,0,1,.75057-.75057h21.61648a.75128.75128,0,0,1,.75058.75057V49.71994a.75127.75127,0,0,1-.75058.75057H220.60126l-4.58319,4.58436A.75519.75519,0,0,1,215.48681,55.27417Zm0-6.3048a.75075.75075,0,0,1,.75057.75057v2.99173l3.52183-3.523a.75082.75082,0,0,1,.53126-.2193H232.75V37.26044H212.63463V48.97992l2.84983-.01055Z"/><path class="b3bdf339-f9a5-4d4b-b8ea-65d00fe4d47b" d="M239.50512,66.08242a.75515.75515,0,0,1-.53126-.21931l-4.58318-4.58436H221.49139a.75127.75127,0,0,1-.75058-.75057V53.32269a.75058.75058,0,1,1,1.50115,0v6.45492h12.4595a.75083.75083,0,0,1,.53127.21931l3.52182,3.523V60.52818a.75077.75077,0,0,1,.75057-.75057h.00235l2.84983.01055V48.06868h-5.254a.75058.75058,0,0,1,0-1.50115h6.00458a.75127.75127,0,0,1,.75057.75058V60.54225a.75077.75077,0,0,1-.75057.75058h-.00234l-2.84983-.01056v4.04957a.75147.75147,0,0,1-.75058.75058Z"/><path class="b3bdf339-f9a5-4d4b-b8ea-65d00fe4d47b" d="M86.95042,55.27417a.75144.75144,0,0,1-.75057-.75057V50.474L83.35,50.48458h-.00234a.75075.75075,0,0,1-.75057-.75057V36.50986a.75127.75127,0,0,1,.75057-.75057h21.61648a.75127.75127,0,0,1,.75057.75057V49.71994a.75126.75126,0,0,1-.75057.75057H92.06487l-4.58318,4.58436A.75521.75521,0,0,1,86.95042,55.27417Zm0-6.3048a.75075.75075,0,0,1,.75058.75057v2.99173l3.52182-3.523a.75086.75086,0,0,1,.53127-.2193h12.4595V37.26044H84.09825V48.97992l2.84983-.01055Z"/><path class="b3bdf339-f9a5-4d4b-b8ea-65d00fe4d47b" d="M110.96874,66.08242a.75515.75515,0,0,1-.53126-.21931l-4.58319-4.58436H92.955a.75127.75127,0,0,1-.75057-.75057V53.32269a.75058.75058,0,1,1,1.50115,0v6.45492h12.4595a.75079.75079,0,0,1,.53126.21931l3.52183,3.523V60.52818a.75077.75077,0,0,1,.75057-.75057h.00235l2.84983.01055V48.06868h-5.254a.75058.75058,0,0,1,0-1.50115h6.00458a.75127.75127,0,0,1,.75057.75058V60.54225a.75077.75077,0,0,1-.75057.75058h-.00235l-2.84983-.01056v4.04957a.75146.75146,0,0,1-.75057.75058Z"/><path class="b3bdf339-f9a5-4d4b-b8ea-65d00fe4d47b" d="M69.3429,110.52339A13.97629,13.97629,0,0,1,55.38226,96.56274v-15.205a.75046.75046,0,0,1,.59459-.73416l13.21008-2.80878a.77622.77622,0,0,1,.31195,0L82.709,80.62363a.75046.75046,0,0,1,.59459.73416v15.205A13.97629,13.97629,0,0,1,69.3429,110.52339ZM56.8834,81.96528V96.56274a12.45951,12.45951,0,0,0,24.919,0V81.96528L69.3429,79.316Z"/><path class="b3bdf339-f9a5-4d4b-b8ea-65d00fe4d47b" d="M67.64239,97.61823a.74839.74839,0,0,1-.53127-.2193l-2.55077-2.55078a.75132.75132,0,1,1,1.06253-1.06253l2.55077,2.55078a.75057.75057,0,0,1-.53126,1.28183Z"/><path class="b3bdf339-f9a5-4d4b-b8ea-65d00fe4d47b" d="M67.64239,97.61823a.75057.75057,0,0,1-.53127-1.28183l5.95064-5.95063a.7509.7509,0,1,1,1.06252,1.06135l-5.95063,5.95181A.74837.74837,0,0,1,67.64239,97.61823Z"/><path class="b3bdf339-f9a5-4d4b-b8ea-65d00fe4d47b" d="M69.3429,197.00409a13.97629,13.97629,0,0,1-13.96064-13.96065V167.83849a.75046.75046,0,0,1,.59459-.73416l13.21008-2.80878a.77622.77622,0,0,1,.31195,0L82.709,167.10433a.75046.75046,0,0,1,.59459.73416v15.20495A13.97629,13.97629,0,0,1,69.3429,197.00409ZM56.8834,168.446v14.59746a12.45951,12.45951,0,0,0,24.919,0V168.446L69.3429,165.7967Z"/><path class="b3bdf339-f9a5-4d4b-b8ea-65d00fe4d47b" d="M67.64239,184.09893a.75057.75057,0,0,1-.53127-1.28183l5.95064-5.95063a.7509.7509,0,1,1,1.06252,1.06135l-5.95063,5.95181A.74837.74837,0,0,1,67.64239,184.09893Z"/><path class="b3bdf339-f9a5-4d4b-b8ea-65d00fe4d47b" d="M69.3429,24.04269A13.97629,13.97629,0,0,1,55.38226,10.082V-5.12291a.75046.75046,0,0,1,.59459-.73416L69.18693-8.66585a.77622.77622,0,0,1,.31195,0L82.709-5.85707a.75046.75046,0,0,1,.59459.73416V10.082A13.97629,13.97629,0,0,1,69.3429,24.04269ZM56.8834-4.51542V10.082a12.45951,12.45951,0,0,0,24.919,0V-4.51542L69.3429-7.1647Z"/><path class="b3bdf339-f9a5-4d4b-b8ea-65d00fe4d47b" d="M67.64239,11.13753a.74839.74839,0,0,1-.53127-.2193L64.56035,8.36745a.75132.75132,0,1,1,1.06253-1.06253L68.17365,9.8557a.75057.75057,0,0,1-.53126,1.28183Z"/><path class="b3bdf339-f9a5-4d4b-b8ea-65d00fe4d47b" d="M67.64239,11.13753a.75057.75057,0,0,1-.53127-1.28183l5.95064-5.95063a.7509.7509,0,1,1,1.06252,1.06135l-5.95063,5.95181A.74837.74837,0,0,1,67.64239,11.13753Z"/><path class="b3bdf339-f9a5-4d4b-b8ea-65d00fe4d47b" d="M197.87929,110.52339a13.97629,13.97629,0,0,1-13.96065-13.96065v-15.205a.75047.75047,0,0,1,.5946-.73416l13.21007-2.80878a.77626.77626,0,0,1,.312,0l13.21007,2.80878a.75046.75046,0,0,1,.59459.73416v15.205A13.97628,13.97628,0,0,1,197.87929,110.52339Zm-12.4595-28.55811V96.56274a12.4595,12.4595,0,0,0,24.919,0V81.96528L197.87929,79.316Z"/><path class="b3bdf339-f9a5-4d4b-b8ea-65d00fe4d47b" d="M196.17877,97.61823a.74837.74837,0,0,1-.53126-.2193l-2.55078-2.55078a.75132.75132,0,1,1,1.06253-1.06253L196.71,96.3364a.75057.75057,0,0,1-.53127,1.28183Z"/><path class="b3bdf339-f9a5-4d4b-b8ea-65d00fe4d47b" d="M196.17877,97.61823a.75057.75057,0,0,1-.53126-1.28183l5.95063-5.95063a.75091.75091,0,1,1,1.06253,1.06135L196.71,97.39893A.74839.74839,0,0,1,196.17877,97.61823Z"/><path class="b3bdf339-f9a5-4d4b-b8ea-65d00fe4d47b" d="M197.87929,197.00409a13.97629,13.97629,0,0,1-13.96065-13.96065V167.83849a.75047.75047,0,0,1,.5946-.73416l13.21007-2.80878a.77626.77626,0,0,1,.312,0l13.21007,2.80878a.75046.75046,0,0,1,.59459.73416v15.20495A13.97628,13.97628,0,0,1,197.87929,197.00409ZM185.41979,168.446v14.59746a12.4595,12.4595,0,0,0,24.919,0V168.446l-12.4595-2.64928Z"/><path class="b3bdf339-f9a5-4d4b-b8ea-65d00fe4d47b" d="M196.17877,184.09893a.75057.75057,0,0,1-.53126-1.28183l5.95063-5.95063a.75091.75091,0,1,1,1.06253,1.06135L196.71,183.87963A.74839.74839,0,0,1,196.17877,184.09893Z"/><path class="b3bdf339-f9a5-4d4b-b8ea-65d00fe4d47b" d="M197.87929,24.04269A13.97629,13.97629,0,0,1,183.91864,10.082V-5.12291a.75047.75047,0,0,1,.5946-.73416l13.21007-2.80878a.77626.77626,0,0,1,.312,0l13.21007,2.80878a.75046.75046,0,0,1,.59459.73416V10.082A13.97628,13.97628,0,0,1,197.87929,24.04269ZM185.41979-4.51542V10.082a12.4595,12.4595,0,1,0,24.919,0V-4.51542L197.87929-7.1647Z"/><path class="b3bdf339-f9a5-4d4b-b8ea-65d00fe4d47b" d="M196.17877,11.13753a.74837.74837,0,0,1-.53126-.2193l-2.55078-2.55078a.75132.75132,0,0,1,1.06253-1.06253L196.71,9.8557a.75057.75057,0,0,1-.53127,1.28183Z"/><path class="b3bdf339-f9a5-4d4b-b8ea-65d00fe4d47b" d="M196.17877,11.13753a.75057.75057,0,0,1-.53126-1.28183l5.95063-5.95063a.75091.75091,0,1,1,1.06253,1.06135L196.71,10.91823A.74839.74839,0,0,1,196.17877,11.13753Z"/><path class="b3bdf339-f9a5-4d4b-b8ea-65d00fe4d47b" d="M40.934,61.00836H25.32751A8.89419,8.89419,0,1,1,26.3712,43.28161a11.39166,11.39166,0,0,1,21.58568,5.08551v.02805a6.43339,6.43339,0,0,1,4.62586,4.07962.78055.78055,0,0,1-1.47043.52428,4.86228,4.86228,0,0,0-4.054-3.17372.78.78,0,0,1-.69619-.82543l.011-.15972c.011-.15607.02317-.31335.02317-.47308a9.83124,9.83124,0,0,0-18.84968-3.915.77963.77963,0,0,1-.85958.456,7.3335,7.3335,0,1,0-1.35947,14.53961H40.934a.78033.78033,0,0,1,0,1.56065Z"/><path class="b3bdf339-f9a5-4d4b-b8ea-65d00fe4d47b" d="M44.679,56.02962l3.74555-.79614,3.74555.79614v4.31143a3.74555,3.74555,0,0,1-7.4911,0Z"/><path class="b3bdf339-f9a5-4d4b-b8ea-65d00fe4d47b" d="M48.42508,64.8673a4.53069,4.53069,0,0,1-4.52588-4.52587V56.03014a.78021.78021,0,0,1,.61816-.76325l3.74556-.79618a.80725.80725,0,0,1,.32432,0l3.74555.79618a.7802.7802,0,0,1,.61816.76325v4.31129A4.53069,4.53069,0,0,1,48.42508,64.8673Zm-2.96523-8.20559v3.67972a2.96523,2.96523,0,0,0,5.93045,0V56.66171l-2.96522-.63035Z"/><path class="b3bdf339-f9a5-4d4b-b8ea-65d00fe4d47b" d="M40.934,147.48906H25.32751a8.89419,8.89419,0,1,1,1.04369-17.72675,11.39166,11.39166,0,0,1,21.58568,5.08551v.028a6.43339,6.43339,0,0,1,4.62586,4.07962.78055.78055,0,0,1-1.47043.52428,4.86228,4.86228,0,0,0-4.054-3.17372.78.78,0,0,1-.69619-.82543l.011-.15972c.011-.15607.02317-.31335.02317-.47308a9.83124,9.83124,0,0,0-18.84968-3.915.77963.77963,0,0,1-.85958.456,7.3335,7.3335,0,1,0-1.35947,14.53961H40.934a.78033.78033,0,0,1,0,1.56065Z"/><path class="b3bdf339-f9a5-4d4b-b8ea-65d00fe4d47b" d="M44.679,142.51033l3.74555-.79615,3.74555.79615v4.31142a3.74555,3.74555,0,0,1-7.4911,0Z"/><path class="b3bdf339-f9a5-4d4b-b8ea-65d00fe4d47b" d="M48.42508,151.348a4.53069,4.53069,0,0,1-4.52588-4.52587v-4.31129a.78021.78021,0,0,1,.61816-.76325l3.74556-.79618a.80725.80725,0,0,1,.32432,0l3.74555.79618a.7802.7802,0,0,1,.61816.76325v4.31129A4.53069,4.53069,0,0,1,48.42508,151.348Zm-2.96523-8.20558v3.67971a2.96523,2.96523,0,0,0,5.93045,0v-3.67971l-2.96522-.63036Z"/><path class="b3bdf339-f9a5-4d4b-b8ea-65d00fe4d47b" d="M169.47036,61.00836H153.8639a8.89419,8.89419,0,1,1,1.04368-17.72675,11.39166,11.39166,0,0,1,21.58569,5.08551v.02805a6.43337,6.43337,0,0,1,4.62585,4.07962.78055.78055,0,1,1-1.47042.52428,4.8623,4.8623,0,0,0-4.054-3.17372.78.78,0,0,1-.6962-.82543l.011-.15972c.011-.15607.02317-.31335.02317-.47308a9.83124,9.83124,0,0,0-18.84968-3.915.77963.77963,0,0,1-.85957.456,7.3335,7.3335,0,1,0-1.35947,14.53961h15.60646a.78033.78033,0,0,1,0,1.56065Z"/><path class="b3bdf339-f9a5-4d4b-b8ea-65d00fe4d47b" d="M173.21534,56.02962l3.74555-.79614,3.74555.79614v4.31143a3.74555,3.74555,0,1,1-7.4911,0Z"/><path class="b3bdf339-f9a5-4d4b-b8ea-65d00fe4d47b" d="M176.96146,64.8673a4.53069,4.53069,0,0,1-4.52587-4.52587V56.03014a.7802.7802,0,0,1,.61816-.76325l3.74555-.79618a.80725.80725,0,0,1,.32432,0l3.74555.79618a.7802.7802,0,0,1,.61816.76325v4.31129A4.53069,4.53069,0,0,1,176.96146,64.8673Zm-2.96523-8.20559v3.67972a2.96523,2.96523,0,0,0,5.93046,0V56.66171l-2.96523-.63035Z"/><path class="b3bdf339-f9a5-4d4b-b8ea-65d00fe4d47b" d="M169.47036,147.48906H153.8639a8.89419,8.89419,0,1,1,1.04368-17.72675,11.39166,11.39166,0,0,1,21.58569,5.08551v.028a6.43337,6.43337,0,0,1,4.62585,4.07962.78055.78055,0,0,1-1.47042.52428,4.8623,4.8623,0,0,0-4.054-3.17372.78.78,0,0,1-.6962-.82543l.011-.15972c.011-.15607.02317-.31335.02317-.47308a9.83124,9.83124,0,0,0-18.84968-3.915.77963.77963,0,0,1-.85957.456,7.3335,7.3335,0,1,0-1.35947,14.53961h15.60646a.78033.78033,0,0,1,0,1.56065Z"/><path class="b3bdf339-f9a5-4d4b-b8ea-65d00fe4d47b" d="M173.21534,142.51033l3.74555-.79615,3.74555.79615v4.31142a3.74555,3.74555,0,1,1-7.4911,0Z"/><path class="b3bdf339-f9a5-4d4b-b8ea-65d00fe4d47b" d="M176.96146,151.348a4.53069,4.53069,0,0,1-4.52587-4.52587v-4.31129a.7802.7802,0,0,1,.61816-.76325l3.74555-.79618a.80725.80725,0,0,1,.32432,0l3.74555.79618a.7802.7802,0,0,1,.61816.76325v4.31129A4.53069,4.53069,0,0,1,176.96146,151.348Zm-2.96523-8.20558v3.67971a2.96523,2.96523,0,0,0,5.93046,0v-3.67971l-2.96523-.63036Z"/></g></g></svg>