<svg xmlns="http://www.w3.org/2000/svg" xmlns:xlink="http://www.w3.org/1999/xlink" viewBox="0 0 555 320"><defs><style>.bfa813b9-a2ce-40b7-95c1-e5f06cf903db,.fef81f2b-8220-4aab-9fd8-b0294866a4cb{fill:none;}.af612977-6dd9-482b-8f89-aa6ab2e238c9{fill:#dedede;}.baaebeb7-8b3a-4693-a780-f1e37f9a72c7{fill:#f3f3f3;}.a9491cd8-9b38-412f-8190-7e00c3755056{fill:#151515;}.aaa44359-535a-4042-949c-e469aaff7e4d{fill:#ed0000;}.e1486a76-2d66-4366-b130-f19acfee03cf{fill:#c9c9c9;}.b205fadc-802f-49ff-af6a-2230b8c7803c{fill:#fff;}.bfa813b9-a2ce-40b7-95c1-e5f06cf903db{stroke:#4d4d4d;stroke-miterlimit:10;}.ae1f7e45-39f1-4c5a-a915-4826a83a7905{fill:#aaa;}.bde2195f-eac8-490b-b7f4-40e118392d12{clip-path:url(#a345f739-68f6-4598-8215-cf537eed366b);}</style><clipPath id="a345f739-68f6-4598-8215-cf537eed366b"><rect class="fef81f2b-8220-4aab-9fd8-b0294866a4cb" y="95.81104" width="555" height="150.11018"/></clipPath></defs><g id="bb69e605-7be6-47ee-b8fc-c8fd65b98d63" data-name="Layer 1"><rect class="af612977-6dd9-482b-8f89-aa6ab2e238c9" width="555" height="95.81104"/><path class="baaebeb7-8b3a-4693-a780-f1e37f9a72c7" d="M406.1372,44.65693V13.92012a4.25,4.25,0,0,0-4.25-4.25H116.14245a4.25,4.25,0,0,0-4.25,4.25V44.65693a4.25,4.25,0,0,1-4.25,4.25H0V95.811H555V48.90693H410.3872A4.25,4.25,0,0,1,406.1372,44.65693Z"/><rect class="a9491cd8-9b38-412f-8190-7e00c3755056" y="95.81104" width="555" height="150.11018"/><rect class="af612977-6dd9-482b-8f89-aa6ab2e238c9" y="245.92127" width="555" height="74.07873"/><path class="aaa44359-535a-4042-949c-e469aaff7e4d" d="M142.01833,29.28022a5.22186,5.22186,0,0,1,.18058,1.06c0,1.46606-1.64662,2.27787-3.81142,2.27787-4.89434,0-9.17928-2.86417-9.17928-4.75868a1.92805,1.92805,0,0,1,.15785-.76677c-1.75923.09022-4.03707.40587-4.03707,2.41311,0,3.29271,7.80351,7.35229,13.983,7.35229,4.73626,0,5.93134-2.14241,5.93134-3.83392,0-1.33084-1.15009-2.8416-3.225-3.74385m-3.40549,1.19537c1.30828,0,3.20253-.27075,3.20253-1.82687a1.47956,1.47956,0,0,0-.03243-.35805l-.77921-3.38571c-.18068-.74424-.33845-1.08262-1.64652-1.73671a15.27423,15.27423,0,0,0-3.87924-1.37559c-.60892,0-.78919.7892-1.511.7892-.699,0-1.21779-.58624-1.87182-.58624-.63134,0-1.03752.42839-1.35322,1.30807,0,0-.87966,2.48079-.99241,2.84144a.65387.65387,0,0,0-.02324.20322c0,.96416,3.79719,4.12724,8.88658,4.12724"/><path d="M142.01833,29.28022a5.22186,5.22186,0,0,1,.18058,1.06c0,1.46606-1.64662,2.27787-3.81142,2.27787-4.89434,0-9.17928-2.86417-9.17928-4.75868a1.92805,1.92805,0,0,1,.15785-.76677l.38344-.94746a.65387.65387,0,0,0-.02324.20322c0,.96416,3.79719,4.12724,8.88658,4.12724,1.30828,0,3.20253-.27075,3.20253-1.82687a1.47956,1.47956,0,0,0-.03243-.35805l.23539.98955Z"/><circle class="e1486a76-2d66-4366-b130-f19acfee03cf" cx="28.42466" cy="26.14513" r="7.10309"/><circle class="e1486a76-2d66-4366-b130-f19acfee03cf" cx="52.78535" cy="26.14513" r="7.10309"/><circle class="e1486a76-2d66-4366-b130-f19acfee03cf" cx="77.14604" cy="26.14513" r="7.10309"/><rect class="a9491cd8-9b38-412f-8190-7e00c3755056" y="95.81104" width="555" height="150.11018"/></g><g id="f1cbc7fd-a161-4236-a7c7-7fe2f751b267" data-name="Layer 3"><path class="b205fadc-802f-49ff-af6a-2230b8c7803c" d="M301.44488,210.55537V197.5417h6.00488a4.85132,4.85132,0,0,1,2.23047.4834,3.64924,3.64924,0,0,1,1.4873,1.36621,3.86433,3.86433,0,0,1,.53907,2.05469,3.69626,3.69626,0,0,1-.53907,1.998,3.79938,3.79938,0,0,1-1.49707,1.36719,4.72186,4.72186,0,0,1-2.2207.50195H303.397v5.24219Zm1.95215-6.89746h3.86621a2.61749,2.61749,0,0,0,1.80371-.59473,2.053,2.053,0,0,0,.66894-1.61718,2.03159,2.03159,0,0,0-.66894-1.59864,2.61754,2.61754,0,0,0-1.80371-.59472H303.397Z"/><path class="b205fadc-802f-49ff-af6a-2230b8c7803c" d="M313.60211,210.55537v-9.48144h1.85937v1.22754a3.214,3.214,0,0,1,1.10645-1.041,2.991,2.991,0,0,1,1.49609-.37207,2.59266,2.59266,0,0,1,.94824.14844v1.67285a2.32029,2.32029,0,0,0-.53906-.15723,3.4759,3.4759,0,0,0-.57617-.04687,2.45808,2.45808,0,0,0-1.43164.43652,2.96263,2.96263,0,0,0-1.00391,1.27344v6.33984Z"/><path class="b205fadc-802f-49ff-af6a-2230b8c7803c" d="M324.64507,210.74092a4.96244,4.96244,0,0,1-2.5-.64063,4.78223,4.78223,0,0,1-1.78515-1.7666,4.91247,4.91247,0,0,1,1.77539-6.7666,4.972,4.972,0,0,1,6.78613,1.76563,4.84123,4.84123,0,0,1,.65039,2.501,4.90355,4.90355,0,0,1-.65039,2.5,4.7285,4.7285,0,0,1-1.77539,1.7666A4.97125,4.97125,0,0,1,324.64507,210.74092Zm0-1.63574a2.94561,2.94561,0,0,0,1.58008-.43653,3.139,3.139,0,0,0,1.11524-1.18066,3.41711,3.41711,0,0,0,.40918-1.67285,3.32523,3.32523,0,0,0-.40918-1.64551,3.24243,3.24243,0,0,0-1.11524-1.18066,3.00471,3.00471,0,0,0-3.15137,0,3.21822,3.21822,0,0,0-1.124,1.18066,3.31484,3.31484,0,0,0-.40918,1.64551,3.40645,3.40645,0,0,0,.40918,1.67285,3.11679,3.11679,0,0,0,1.124,1.18066A2.96151,2.96151,0,0,0,324.64507,209.10518Z"/><path class="b205fadc-802f-49ff-af6a-2230b8c7803c" d="M335.87457,210.70381a4.76421,4.76421,0,0,1-4.16407-2.40723,4.94489,4.94489,0,0,1-.63281-2.5,4.82021,4.82021,0,0,1,.6416-2.46386,4.72536,4.72536,0,0,1,1.748-1.74707,4.77958,4.77958,0,0,1,2.44434-.64161,4.893,4.893,0,0,1,1.50585.23243,4.454,4.454,0,0,1,1.3379.69726v-4.332l1.85937-.35254v13.36621H338.775v-.91113A4.25064,4.25064,0,0,1,335.87457,210.70381Zm.24121-1.61719a3.69138,3.69138,0,0,0,1.49707-.29687,3.1608,3.1608,0,0,0,1.14258-.83692v-4.27636a2.95627,2.95627,0,0,0-1.14258-.83594,3.77631,3.77631,0,0,0-1.49707-.29785,3.23069,3.23069,0,0,0-1.626.418,3.01783,3.01783,0,0,0-1.15332,1.1621,3.55859,3.55859,0,0,0,0,3.34668,3.15437,3.15437,0,0,0,2.7793,1.61719Z"/><path class="b205fadc-802f-49ff-af6a-2230b8c7803c" d="M346.65582,210.74092a3.90366,3.90366,0,0,1-1.93262-.46485,3.32594,3.32594,0,0,1-1.31152-1.31054,3.87174,3.87174,0,0,1-.47364-1.92383v-5.94922h1.85938v5.63281a2.38094,2.38094,0,0,0,.6416,1.74805,2.30275,2.30275,0,0,0,1.71875.65039,2.80164,2.80164,0,0,0,1.34863-.32519,2.57753,2.57753,0,0,0,.97559-.91993v-6.78613h1.85937v9.46289H349.482v-.9668A3.72642,3.72642,0,0,1,346.65582,210.74092Z"/><path class="b205fadc-802f-49ff-af6a-2230b8c7803c" d="M358.18218,210.72236a4.84262,4.84262,0,0,1-4.9082-4.88867,4.78273,4.78273,0,0,1,.66016-2.501,5.00759,5.00759,0,0,1,1.7666-1.76563,4.74514,4.74514,0,0,1,2.48144-.66016,5.46521,5.46521,0,0,1,2.05469.39942,4.83165,4.83165,0,0,1,1.71875,1.16211l-1.15234,1.2832a3.60009,3.60009,0,0,0-1.208-.89258,3.39962,3.39962,0,0,0-1.39453-.29785,2.94355,2.94355,0,0,0-1.57129.42774,3.03761,3.03761,0,0,0-1.09668,1.17089,3.60683,3.60683,0,0,0,.00976,3.31836,3.05572,3.05572,0,0,0,1.11524,1.18067,2.98891,2.98891,0,0,0,1.58008.42773,3.23127,3.23127,0,0,0,1.35742-.28808,4.09175,4.09175,0,0,0,1.18945-.84571l1.13379,1.208a5.29094,5.29094,0,0,1-1.71973,1.15332A5.16869,5.16869,0,0,1,358.18218,210.72236Z"/><path class="b205fadc-802f-49ff-af6a-2230b8c7803c" d="M367.81207,210.72236a3.073,3.073,0,0,1-2.082-.63183,2.356,2.356,0,0,1-.7246-1.87793V202.654h-2.00782v-1.56152h2.00782V198.695l1.83984-.46484v2.8623h2.80762V202.654h-2.80762v5.1504a1.34265,1.34265,0,0,0,.32519,1.01269,1.5324,1.5324,0,0,0,1.06934.30664,3.93278,3.93278,0,0,0,.69727-.05566,3.99429,3.99429,0,0,0,.66015-.18555v1.58008a4.38427,4.38427,0,0,1-.86523.19531A7.109,7.109,0,0,1,367.81207,210.72236Z"/><path class="b205fadc-802f-49ff-af6a-2230b8c7803c" d="M374.63531,210.74092a7.084,7.084,0,0,1-2.2959-.36231,5.37337,5.37337,0,0,1-1.85059-1.0498l1.00391-1.22754a5.74821,5.74821,0,0,0,1.51563.89258,4.33137,4.33137,0,0,0,1.57031.29687,3.12861,3.12861,0,0,0,1.63672-.38086,1.14722,1.14722,0,0,0,.63183-1.01269.99106.99106,0,0,0-.37207-.81836,2.39444,2.39444,0,0,0-1.15234-.40918l-1.71-.24121a3.78178,3.78178,0,0,1-2.12891-.874,2.35866,2.35866,0,0,1-.69726-1.78418,2.49431,2.49431,0,0,1,.46484-1.48731,2.97191,2.97191,0,0,1,1.30078-1.00391,4.94231,4.94231,0,0,1,1.93359-.35351,6.79172,6.79172,0,0,1,1.98926.28808,6.18553,6.18553,0,0,1,1.82227.91993l-.92969,1.22754a6.74793,6.74793,0,0,0-1.52441-.7627,4.67439,4.67439,0,0,0-1.48731-.24121,2.36513,2.36513,0,0,0-1.376.3623,1.10007,1.10007,0,0,0-.5205.93848.931.931,0,0,0,.37207.80859,2.80166,2.80166,0,0,0,1.1709.4004l1.72949.25976a3.81749,3.81749,0,0,1,2.13769.85547,2.31129,2.31129,0,0,1,.72461,1.78418,2.39818,2.39818,0,0,1-.52929,1.51562,3.60461,3.60461,0,0,1-1.41309,1.06934A4.94946,4.94946,0,0,1,374.63531,210.74092Z"/><path class="b205fadc-802f-49ff-af6a-2230b8c7803c" d="M414.63336,210.74092a7.80814,7.80814,0,0,1-5.57715-2.3418l1.19043-1.376a7.619,7.619,0,0,0,2.165,1.543,5.579,5.579,0,0,0,2.334.502,4.44691,4.44691,0,0,0,1.63574-.27832,2.63145,2.63145,0,0,0,1.10547-.77246,1.73423,1.73423,0,0,0,.40039-1.124,1.60346,1.60346,0,0,0-.61328-1.34765,4.56244,4.56244,0,0,0-2.02637-.69727l-2.15722-.37207a5.02612,5.02612,0,0,1-2.68653-1.13379,2.93223,2.93223,0,0,1-.88281-2.23144,3.36793,3.36793,0,0,1,.59473-1.97071,3.81745,3.81745,0,0,1,1.68261-1.31933,6.37222,6.37222,0,0,1,2.51954-.46485,8.78718,8.78718,0,0,1,5.24218,1.76563l-1.07812,1.50586a6.99,6.99,0,0,0-4.25684-1.59864,4.23683,4.23683,0,0,0-1.49707.24219,2.20165,2.20165,0,0,0-.98535.67871,1.6154,1.6154,0,0,0-.34375,1.03125,1.43086,1.43086,0,0,0,.53906,1.18946,3.93849,3.93849,0,0,0,1.76563.63281l2.12011.334a5.89438,5.89438,0,0,1,3.03028,1.209,3.07121,3.07121,0,0,1,.9668,2.39746,3.55764,3.55764,0,0,1-.64161,2.10156,4.0797,4.0797,0,0,1-1.82226,1.40332A7.02967,7.02967,0,0,1,414.63336,210.74092Z"/><path class="b205fadc-802f-49ff-af6a-2230b8c7803c" d="M426.27105,210.74092a4.96241,4.96241,0,0,1-2.5-.64063,4.78233,4.78233,0,0,1-1.78516-1.7666,4.9125,4.9125,0,0,1,1.77539-6.7666,4.972,4.972,0,0,1,6.78614,1.76563,4.84123,4.84123,0,0,1,.65039,2.501,4.90355,4.90355,0,0,1-.65039,2.5,4.7285,4.7285,0,0,1-1.77539,1.7666A4.97127,4.97127,0,0,1,426.27105,210.74092Zm0-1.63574a2.94564,2.94564,0,0,0,1.58008-.43653,3.139,3.139,0,0,0,1.11523-1.18066,3.41711,3.41711,0,0,0,.40918-1.67285,3.32523,3.32523,0,0,0-.40918-1.64551,3.24249,3.24249,0,0,0-1.11523-1.18066,3.00471,3.00471,0,0,0-3.15137,0,3.21822,3.21822,0,0,0-1.124,1.18066,3.31484,3.31484,0,0,0-.40918,1.64551,3.40645,3.40645,0,0,0,.40918,1.67285,3.11679,3.11679,0,0,0,1.124,1.18066A2.96151,2.96151,0,0,0,426.27105,209.10518Z"/><path class="b205fadc-802f-49ff-af6a-2230b8c7803c" d="M433.149,210.55537V197.5417l1.85938-.35254v13.36621Z"/><path class="b205fadc-802f-49ff-af6a-2230b8c7803c" d="M441.04937,210.74092a3.90369,3.90369,0,0,1-1.93262-.46485,3.326,3.326,0,0,1-1.31152-1.31054,3.87174,3.87174,0,0,1-.47363-1.92383v-5.94922H439.191v5.63281a2.381,2.381,0,0,0,.6416,1.74805,2.30275,2.30275,0,0,0,1.71875.65039,2.80166,2.80166,0,0,0,1.34864-.32519,2.5775,2.5775,0,0,0,.97558-.91993v-6.78613h1.85938v9.46289h-1.85938v-.9668A3.72641,3.72641,0,0,1,441.04937,210.74092Z"/><path class="b205fadc-802f-49ff-af6a-2230b8c7803c" d="M452.148,210.72236a3.07294,3.07294,0,0,1-2.082-.63183,2.356,2.356,0,0,1-.72461-1.87793V202.654h-2.00781v-1.56152h2.00781V198.695l1.83985-.46484v2.8623h2.80761V202.654h-2.80761v5.1504a1.34265,1.34265,0,0,0,.32519,1.01269,1.53238,1.53238,0,0,0,1.06934.30664,3.93258,3.93258,0,0,0,.69726-.05566,3.99411,3.99411,0,0,0,.66016-.18555v1.58008a4.38444,4.38444,0,0,1-.86523.19531A7.109,7.109,0,0,1,452.148,210.72236Z"/><path class="b205fadc-802f-49ff-af6a-2230b8c7803c" d="M456.46148,199.54951a1.09431,1.09431,0,0,1-.7998-.334,1.11544,1.11544,0,0,1-.334-.81836,1.14036,1.14036,0,0,1,1.13379-1.13379,1.14049,1.14049,0,0,1,1.15234,1.15234,1.0943,1.0943,0,0,1-.334.79981A1.11546,1.11546,0,0,1,456.46148,199.54951Zm-.92969,11.00586v-9.46289h1.85938v9.46289Z"/><path class="b205fadc-802f-49ff-af6a-2230b8c7803c" d="M464.2691,210.74092a4.96241,4.96241,0,0,1-2.5-.64063,4.78226,4.78226,0,0,1-1.78516-1.7666,4.91247,4.91247,0,0,1,1.77539-6.7666,4.972,4.972,0,0,1,6.78613,1.76563,4.84114,4.84114,0,0,1,.6504,2.501,4.90345,4.90345,0,0,1-.6504,2.5,4.72843,4.72843,0,0,1-1.77539,1.7666A4.97121,4.97121,0,0,1,464.2691,210.74092Zm0-1.63574a2.94566,2.94566,0,0,0,1.58008-.43653,3.139,3.139,0,0,0,1.11523-1.18066,3.41711,3.41711,0,0,0,.40918-1.67285,3.32523,3.32523,0,0,0-.40918-1.64551,3.24249,3.24249,0,0,0-1.11523-1.18066,3.00471,3.00471,0,0,0-3.15137,0,3.21833,3.21833,0,0,0-1.124,1.18066,3.31494,3.31494,0,0,0-.40917,1.64551,3.40655,3.40655,0,0,0,.40917,1.67285,3.11689,3.11689,0,0,0,1.124,1.18066A2.96148,2.96148,0,0,0,464.2691,209.10518Z"/><path class="b205fadc-802f-49ff-af6a-2230b8c7803c" d="M471.147,210.55537v-9.46289h1.85937v.9668a3.74761,3.74761,0,0,1,2.84375-1.15235,3.86818,3.86818,0,0,1,1.92481.46485,3.36413,3.36413,0,0,1,1.30078,1.30078,3.85516,3.85516,0,0,1,.47461,1.93359v5.94922H477.691v-5.63281a2.39539,2.39539,0,0,0-.63183-1.75684,2.31838,2.31838,0,0,0-1.7295-.6416,2.69318,2.69318,0,0,0-1.3291.3252,2.93315,2.93315,0,0,0-.99414.9209v6.78515Z"/><path class="b205fadc-802f-49ff-af6a-2230b8c7803c" d="M485.1275,210.74092a7.084,7.084,0,0,1-2.2959-.36231,5.37337,5.37337,0,0,1-1.85059-1.0498l1.00391-1.22754a5.74816,5.74816,0,0,0,1.51562.89258,4.33143,4.33143,0,0,0,1.57032.29687,3.12855,3.12855,0,0,0,1.63671-.38086,1.14722,1.14722,0,0,0,.63184-1.01269.99106.99106,0,0,0-.37207-.81836,2.39452,2.39452,0,0,0-1.15234-.40918l-1.71-.24121a3.78178,3.78178,0,0,1-2.1289-.874,2.35863,2.35863,0,0,1-.69727-1.78418,2.49431,2.49431,0,0,1,.46485-1.48731,2.97191,2.97191,0,0,1,1.30078-1.00391,4.94231,4.94231,0,0,1,1.93359-.35351,6.79176,6.79176,0,0,1,1.98926.28808,6.18553,6.18553,0,0,1,1.82227.91993l-.92969,1.22754a6.748,6.748,0,0,0-1.52442-.7627,4.67428,4.67428,0,0,0-1.4873-.24121,2.36513,2.36513,0,0,0-1.376.3623,1.10005,1.10005,0,0,0-.52051.93848.931.931,0,0,0,.37207.80859,2.80176,2.80176,0,0,0,1.1709.4004l1.7295.25976a3.81749,3.81749,0,0,1,2.13769.85547,2.31129,2.31129,0,0,1,.72461,1.78418,2.39813,2.39813,0,0,1-.5293,1.51562,3.60458,3.60458,0,0,1-1.41308,1.06934A4.94946,4.94946,0,0,1,485.1275,210.74092Z"/><polyline class="bfa813b9-a2ce-40b7-95c1-e5f06cf903db" points="22.073 63.61 13.877 71.807 22.022 79.952"/><line class="bfa813b9-a2ce-40b7-95c1-e5f06cf903db" x1="13.87716" y1="71.80665" x2="32.18152" y2="71.80665"/><polyline class="bfa813b9-a2ce-40b7-95c1-e5f06cf903db" points="58.435 79.952 66.631 71.756 58.485 63.61"/><line class="bfa813b9-a2ce-40b7-95c1-e5f06cf903db" x1="66.63066" y1="71.75574" x2="48.32629" y2="71.75574"/><path class="bfa813b9-a2ce-40b7-95c1-e5f06cf903db" d="M101.643,71.75574a9.4287,9.4287,0,1,1-1.13861-4.4967"/><polyline class="bfa813b9-a2ce-40b7-95c1-e5f06cf903db" points="95.541 67.194 100.541 67.194 100.541 62.194"/><line class="bfa813b9-a2ce-40b7-95c1-e5f06cf903db" x1="427.85133" y1="21.11789" x2="427.85133" y2="36.92482"/><line class="bfa813b9-a2ce-40b7-95c1-e5f06cf903db" x1="435.7548" y1="29.02136" x2="419.94787" y2="29.02136"/><line class="bfa813b9-a2ce-40b7-95c1-e5f06cf903db" x1="390.68068" y1="25.41477" x2="381.64359" y2="34.45185"/><line class="bfa813b9-a2ce-40b7-95c1-e5f06cf903db" x1="390.68068" y1="34.45185" x2="381.64359" y2="25.41477"/><path class="af612977-6dd9-482b-8f89-aa6ab2e238c9" d="M130.56,53.95167H555a0,0,0,0,1,0,0V89.97374a0,0,0,0,1,0,0H130.56a4.5,4.5,0,0,1-4.5-4.5V58.45167A4.5,4.5,0,0,1,130.56,53.95167Z"/><path d="M158.52154,23.33565h4.12305a3.9765,3.9765,0,0,1,1.84765.40722,2.97474,2.97474,0,0,1,1.22266,1.14356,3.32584,3.32584,0,0,1,.43457,1.72558v.01465a3.33289,3.33289,0,0,1-.59082,1.97754,3.0546,3.0546,0,0,1-1.61914,1.16211l2.54492,4.56445H164.877l-2.35449-4.35058h-2.62891v4.35058h-1.37207Zm4.001,5.43261a2.2704,2.2704,0,0,0,1.63378-.54883,2.05346,2.05346,0,0,0,.57618-1.56152v-.01562a1.97138,1.97138,0,0,0-.60645-1.53516,2.3785,2.3785,0,0,0-1.665-.55273h-2.56738v4.21386Z"/><path d="M169.36236,33.98018a3.27929,3.27929,0,0,1-1.25781-1.4209,4.96982,4.96982,0,0,1-.4375-2.16016v-.00781a5.00542,5.00542,0,0,1,.4414-2.16016,3.46081,3.46081,0,0,1,1.24219-1.45508,3.68851,3.68851,0,0,1,3.74512-.02343,3.2397,3.2397,0,0,1,1.20019,1.39843,4.89459,4.89459,0,0,1,.41895,2.0879v.4873h-6.38477V29.69014h5.72949l-.66992.96v-.50977a3.63821,3.63821,0,0,0-.27832-1.52441,1.975,1.975,0,0,0-.76562-.89551,2.2656,2.2656,0,0,0-2.25586.01563,2.09444,2.09444,0,0,0-.792.91406,3.43609,3.43609,0,0,0-.29,1.49023v.50977a3.28166,3.28166,0,0,0,.28613,1.43262,2.087,2.087,0,0,0,.81152.91113,2.35973,2.35973,0,0,0,1.24121.31543,2.46754,2.46754,0,0,0,.89942-.15235,1.86939,1.86939,0,0,0,.66308-.41894,1.54371,1.54371,0,0,0,.38086-.60938l.02344-.06836h1.30274l-.01563.07618a2.59615,2.59615,0,0,1-.37695.91406,2.91584,2.91584,0,0,1-.71289.751,3.35557,3.35557,0,0,1-.99024.50293,3.91839,3.91839,0,0,1-1.2041.17871A3.6639,3.6639,0,0,1,169.36236,33.98018Z"/><path d="M177.64654,33.97627a3.32188,3.32188,0,0,1-1.17676-1.43262,5.23374,5.23374,0,0,1-.41894-2.1748V30.361a5.16346,5.16346,0,0,1,.42285-2.17188,3.362,3.362,0,0,1,1.17676-1.42871,3.056,3.056,0,0,1,1.74511-.50684,2.86323,2.86323,0,0,1,1.501.39649,2.78085,2.78085,0,0,1,1.03613,1.082h.03125V23.33565h1.3252V34.33076h-1.3252V32.98994h-.03125a2.84833,2.84833,0,0,1-1.0166,1.09278,2.77254,2.77254,0,0,1-1.49707.40039A3.11593,3.11593,0,0,1,177.64654,33.97627Zm3.21973-1.03223a2.42291,2.42291,0,0,0,.81152-1.02832,3.80134,3.80134,0,0,0,.293-1.54687V30.361a3.72084,3.72084,0,0,0-.29688-1.543,2.4711,2.4711,0,0,0-.81152-1.02539,1.99514,1.99514,0,0,0-1.18457-.36524,2.0599,2.0599,0,0,0-1.21192.35742,2.27737,2.27737,0,0,0-.78417,1.01368,4.024,4.024,0,0,0-.27442,1.5625v.00781a4.077,4.077,0,0,0,.27442,1.56933,2.2414,2.2414,0,0,0,.78417,1.01758,2.07855,2.07855,0,0,0,1.21192.35352A2.00673,2.00673,0,0,0,180.86627,32.944Z"/><path d="M189.26519,23.33565h1.37207v4.75488h6.03516V23.33565h1.37109V34.33076h-1.37109V29.3249h-6.03516v5.00586h-1.37207Z"/><path d="M201.06988,34.18623a2.23411,2.23411,0,0,1-.92578-.83887,2.3577,2.3577,0,0,1-.33106-1.25683V32.0749a1.97171,1.97171,0,0,1,.75391-1.61914,3.64444,3.64444,0,0,1,2.11914-.68164l2.93359-.168v1.0293l-2.78125.167a2.21542,2.21542,0,0,0-1.23047.38086,1.0661,1.0661,0,0,0-.43847.8916v.01563a1.08978,1.08978,0,0,0,.43066.90722,1.82069,1.82069,0,0,0,1.14649.335,2.38253,2.38253,0,0,0,1.124-.2627,2.068,2.068,0,0,0,.792-.7207,1.85752,1.85752,0,0,0,.29395-1.02832V28.98213a1.47,1.47,0,0,0-.45313-1.13965,1.83646,1.83646,0,0,0-1.28418-.415,2.08886,2.08886,0,0,0-1.23047.33106,1.388,1.388,0,0,0-.583.86523l-.01563.06836h-1.28027l.00781-.084a2.37349,2.37349,0,0,1,.44629-1.18848,2.66106,2.66106,0,0,1,1.0625-.84961,4.24678,4.24678,0,0,1,3.22656.00391,2.45873,2.45873,0,0,1,1.05567.90234,2.49561,2.49561,0,0,1,.373,1.376v5.47851H204.9566V33.04268h-.03028a2.539,2.539,0,0,1-.61035.75879,2.85171,2.85171,0,0,1-1.86621.68164A3.04725,3.04725,0,0,1,201.06988,34.18623Z"/><path d="M209.30132,33.96455a2.20286,2.20286,0,0,1-.541-1.65332V27.50361h-1.1582V26.406h1.1582V24.26533h1.37207V26.406h1.50879v1.09765h-1.50879v4.79981a1.06848,1.06848,0,0,0,.27441.85742,1.24616,1.24616,0,0,0,.80762.22461,2.22366,2.22366,0,0,0,.23242-.01074c.07324-.00781.1377-.01465.19434-.01953V34.4294q-.123.01611-.31641.03515c-.12988.01172-.26074.01856-.39258.01856A2.27718,2.27718,0,0,1,209.30132,33.96455Z"/><path d="M217.08453,29.25557h4.876v1.23437h-4.876Z"/><path d="M227.191,23.33565h1.43262l2.21777,9.02929h.03028l2.49121-9.02929h1.38672l2.49218,9.02929h.03028l2.21777-9.02929h1.43262L237.9273,34.33076h-1.29492l-2.56055-8.80859h-.03027L231.481,34.33076h-1.29492Z"/><path d="M242.98492,33.98018a3.27929,3.27929,0,0,1-1.25781-1.4209,4.96982,4.96982,0,0,1-.4375-2.16016v-.00781a5.00542,5.00542,0,0,1,.4414-2.16016,3.46081,3.46081,0,0,1,1.24219-1.45508,3.68851,3.68851,0,0,1,3.74512-.02343,3.23983,3.23983,0,0,1,1.20019,1.39843,4.89459,4.89459,0,0,1,.41895,2.0879v.4873h-6.38477V29.69014h5.72949l-.66992.96v-.50977a3.63821,3.63821,0,0,0-.27832-1.52441,1.97516,1.97516,0,0,0-.76562-.89551,2.2656,2.2656,0,0,0-2.25586.01563,2.09452,2.09452,0,0,0-.792.91406,3.43624,3.43624,0,0,0-.29,1.49023v.50977a3.28166,3.28166,0,0,0,.28613,1.43262,2.087,2.087,0,0,0,.81152.91113,2.3597,2.3597,0,0,0,1.24121.31543,2.46758,2.46758,0,0,0,.89942-.15235,1.86939,1.86939,0,0,0,.66308-.41894,1.54371,1.54371,0,0,0,.38086-.60938l.02344-.06836h1.30273l-.01562.07618a2.59615,2.59615,0,0,1-.37695.91406,2.916,2.916,0,0,1-.71289.751,3.3557,3.3557,0,0,1-.99024.50293,3.91839,3.91839,0,0,1-1.2041.17871A3.6639,3.6639,0,0,1,242.98492,33.98018Z"/><path d="M253.65191,26.406h1.3252v1.1582h.03125a2.1719,2.1719,0,0,1,.83789-.94824,2.43813,2.43813,0,0,1,1.333-.36231,2.55149,2.55149,0,0,1,.9795.17969,2.1432,2.1432,0,0,1,.75781.51758,2.25926,2.25926,0,0,1,.48828.82715h.03027a2.52243,2.52243,0,0,1,.59082-.81934,2.62059,2.62059,0,0,1,.85352-.52246,2.93316,2.93316,0,0,1,1.04-.18262,2.74939,2.74939,0,0,1,1.36328.32422,2.26269,2.26269,0,0,1,.89941.90625,2.82258,2.82258,0,0,1,.32032,1.376v5.4707h-1.32618v-5.166a1.79657,1.79657,0,0,0-.43066-1.27637,1.58039,1.58039,0,0,0-1.21484-.46094,1.78167,1.78167,0,0,0-.92969.24024,1.68556,1.68556,0,0,0-.63281.66211,1.99659,1.99659,0,0,0-.22852.96386v5.03711h-1.32617V29.02022a1.55066,1.55066,0,0,0-.44141-1.15821,1.61123,1.61123,0,0,0-1.18164-.43457,1.72009,1.72009,0,0,0-.93262.25488,1.82473,1.82473,0,0,0-.64453.68946,2.04576,2.04576,0,0,0-.23632.99121v4.96777h-1.3252Z"/><path d="M267.51324,34.18623a2.23411,2.23411,0,0,1-.92578-.83887,2.3577,2.3577,0,0,1-.33106-1.25683V32.0749a1.97171,1.97171,0,0,1,.75391-1.61914,3.64444,3.64444,0,0,1,2.11914-.68164l2.93359-.168v1.0293l-2.78125.167a2.21542,2.21542,0,0,0-1.23047.38086,1.0661,1.0661,0,0,0-.43847.8916v.01563a1.08978,1.08978,0,0,0,.43066.90722,1.82069,1.82069,0,0,0,1.14649.335,2.38253,2.38253,0,0,0,1.124-.2627,2.068,2.068,0,0,0,.792-.7207A1.85752,1.85752,0,0,0,271.4,31.321V28.98213a1.47,1.47,0,0,0-.45313-1.13965,1.83646,1.83646,0,0,0-1.28418-.415,2.08886,2.08886,0,0,0-1.23047.33106,1.388,1.388,0,0,0-.583.86523l-.01563.06836h-1.28027l.00781-.084a2.37349,2.37349,0,0,1,.44629-1.18848,2.66106,2.66106,0,0,1,1.0625-.84961,4.24678,4.24678,0,0,1,3.22656.00391,2.45873,2.45873,0,0,1,1.05567.90234,2.49561,2.49561,0,0,1,.373,1.376v5.47851H271.4V33.04268h-.03028a2.539,2.539,0,0,1-.61035.75879,2.85171,2.85171,0,0,1-1.86621.68164A3.04725,3.04725,0,0,1,267.51324,34.18623Z"/><path d="M274.90679,23.33565H276.233V34.33076h-1.32617Zm1.02832,6.56835h.32813l3.47461-3.498h1.60742l-3.75684,3.74121H277.482l-1.54688,1.47851Zm.96.63965.88477-.88379,3.67187,4.6709h-1.53906Z"/><path d="M283.69,33.98018a3.27938,3.27938,0,0,1-1.25782-1.4209,4.97,4.97,0,0,1-.4375-2.16016v-.00781a5.00527,5.00527,0,0,1,.44141-2.16016,3.46074,3.46074,0,0,1,1.24219-1.45508,3.68849,3.68849,0,0,1,3.74511-.02343,3.23978,3.23978,0,0,1,1.2002,1.39843,4.89459,4.89459,0,0,1,.41894,2.0879v.4873h-6.38476V29.69014h5.72949l-.66992.96v-.50977a3.63821,3.63821,0,0,0-.27832-1.52441,1.97512,1.97512,0,0,0-.76563-.89551,2.2656,2.2656,0,0,0-2.25586.01563,2.0945,2.0945,0,0,0-.792.91406,3.43609,3.43609,0,0,0-.29,1.49023v.50977a3.28166,3.28166,0,0,0,.28614,1.43262,2.08692,2.08692,0,0,0,.81152.91113,2.3597,2.3597,0,0,0,1.24121.31543,2.46748,2.46748,0,0,0,.89941-.15235,1.86943,1.86943,0,0,0,.66309-.41894,1.54371,1.54371,0,0,0,.38086-.60938l.02344-.06836h1.30273l-.01562.07618a2.596,2.596,0,0,1-.377.91406,2.91567,2.91567,0,0,1-.71289.751,3.35552,3.35552,0,0,1-.99023.50293,3.91839,3.91839,0,0,1-1.2041.17871A3.66388,3.66388,0,0,1,283.69,33.98018Z"/><path d="M295.71636,33.98018a3.39723,3.39723,0,0,1-1.28711-1.42871,4.83893,4.83893,0,0,1-.46093-2.18262v-.01563a4.80717,4.80717,0,0,1,.46093-2.18261,3.38557,3.38557,0,0,1,1.28711-1.418,3.94465,3.94465,0,0,1,3.84082,0,3.3941,3.3941,0,0,1,1.28809,1.418,4.81989,4.81989,0,0,1,.46094,2.18261v.01563a4.84575,4.84575,0,0,1-.46094,2.18652,3.41693,3.41693,0,0,1-1.28418,1.42481,3.92542,3.92542,0,0,1-3.84473,0Zm3.14746-1.01758a2.25135,2.25135,0,0,0,.79981-1.00586,3.978,3.978,0,0,0,.28613-1.58789v-.01563a3.95325,3.95325,0,0,0-.28613-1.585,2.21574,2.21574,0,0,0-.80762-.998,2.17638,2.17638,0,0,0-1.22265-.34278,2.13016,2.13016,0,0,0-1.208.34668,2.26911,2.26911,0,0,0-.81153.998,3.87546,3.87546,0,0,0-.28906,1.58105v.01563a3.92583,3.92583,0,0,0,.28906,1.58789,2.25953,2.25953,0,0,0,.81153,1.00586,2.15582,2.15582,0,0,0,1.22265.34668A2.1203,2.1203,0,0,0,298.86382,32.9626Z"/><path d="M303.02984,26.406H304.355v1.34082h.03125a2.92129,2.92129,0,0,1,.62012-.7959,2.723,2.723,0,0,1,.84961-.51465A2.92768,2.92768,0,0,1,306.9,26.25361a3.11593,3.11593,0,0,1,1.77246.50684,3.32188,3.32188,0,0,1,1.17676,1.43262,5.23862,5.23862,0,0,1,.41894,2.17578v.00683a5.16032,5.16032,0,0,1-.42285,2.17188,3.36249,3.36249,0,0,1-1.17285,1.42871,3.05322,3.05322,0,0,1-1.749.50684,3.00965,3.00965,0,0,1-1.04394-.17871,2.7219,2.7219,0,0,1-.86524-.51075,2.89439,2.89439,0,0,1-.62793-.78906H304.355v3.99316h-1.32519Zm4.82324,6.5459a2.273,2.273,0,0,0,.78418-1.01758,4.0275,4.0275,0,0,0,.27442-1.5586v-.00683a4.07191,4.07191,0,0,0-.27442-1.57422,2.23742,2.23742,0,0,0-.78418-1.0127,2.07207,2.07207,0,0,0-1.21191-.35449,2.01342,2.01342,0,0,0-1.18848.36524,2.42567,2.42567,0,0,0-.81152,1.02539,3.79135,3.79135,0,0,0-.293,1.55078v.00683a3.71765,3.71765,0,0,0,.29687,1.543,2.47112,2.47112,0,0,0,.81153,1.02539,1.98847,1.98847,0,0,0,1.18457.36524A2.05984,2.05984,0,0,0,307.85308,32.95186Z"/><path d="M313.29839,33.98018a3.27935,3.27935,0,0,1-1.25781-1.4209,4.97,4.97,0,0,1-.4375-2.16016v-.00781a5.00527,5.00527,0,0,1,.44141-2.16016,3.46074,3.46074,0,0,1,1.24219-1.45508,3.68849,3.68849,0,0,1,3.74511-.02343,3.23978,3.23978,0,0,1,1.2002,1.39843,4.89474,4.89474,0,0,1,.41894,2.0879v.4873h-6.38476V29.69014h5.72949l-.66992.96v-.50977a3.63837,3.63837,0,0,0-.27832-1.52441,1.97512,1.97512,0,0,0-.76563-.89551,2.2656,2.2656,0,0,0-2.25586.01563,2.09444,2.09444,0,0,0-.792.91406,3.43609,3.43609,0,0,0-.29,1.49023v.50977a3.28181,3.28181,0,0,0,.28613,1.43262,2.08694,2.08694,0,0,0,.81153.91113,2.35968,2.35968,0,0,0,1.24121.31543,2.46748,2.46748,0,0,0,.89941-.15235,1.86952,1.86952,0,0,0,.66309-.41894,1.54382,1.54382,0,0,0,.38086-.60938l.02344-.06836h1.30273l-.01562.07618a2.596,2.596,0,0,1-.377.91406,2.91567,2.91567,0,0,1-.71289.751,3.35552,3.35552,0,0,1-.99023.50293,3.91843,3.91843,0,0,1-1.2041.17871A3.66394,3.66394,0,0,1,313.29839,33.98018Z"/><path d="M320.37554,26.406h1.3252v1.12793h.03125a2.5262,2.5262,0,0,1,.92969-.918,2.90948,2.90948,0,0,1,1.50781-.36231,2.59992,2.59992,0,0,1,2.02344.78907,3.0561,3.0561,0,0,1,.71972,2.14453v5.14355h-1.32519V29.42354a2.17469,2.17469,0,0,0-.4541-1.48243,1.72651,1.72651,0,0,0-1.36719-.51367,2.07956,2.07956,0,0,0-1.08985.27832,1.87965,1.87965,0,0,0-.71972.78028,2.57294,2.57294,0,0,0-.25586,1.18164v4.66308h-1.3252Z"/><path d="M333.78179,34.18623a2.49326,2.49326,0,0,1-1.54687-2.07324l-.00781-.06836h1.32519l.01563.07617a1.468,1.468,0,0,0,.57128.92578,2.08021,2.08021,0,0,0,1.25782.332,2.64773,2.64773,0,0,0,.92187-.1416,1.29614,1.29614,0,0,0,.58692-.40332.98211.98211,0,0,0,.20507-.62109v-.00781a.92643.92643,0,0,0-.25878-.68555,2.03675,2.03675,0,0,0-.9375-.42676l-1.25684-.30469a3.51872,3.51872,0,0,1-1.669-.80371,1.864,1.864,0,0,1-.54882-1.39062v-.00781a2.0513,2.0513,0,0,1,.37011-1.21192,2.455,2.455,0,0,1,1.02832-.82324,3.6581,3.6581,0,0,1,1.5127-.29688,3.46266,3.46266,0,0,1,1.51269.3086,2.55286,2.55286,0,0,1,1.0127.83789,2.31917,2.31917,0,0,1,.416,1.19336l.00782.09863h-1.26563l-.00781-.05371a1.3901,1.3901,0,0,0-.50586-.92969,1.8026,1.8026,0,0,0-1.16992-.34961,2.1696,2.1696,0,0,0-.83106.14453,1.20736,1.20736,0,0,0-.53711.40723,1.03634,1.03634,0,0,0-.18652.61328v.00781a.91872.91872,0,0,0,.29.68555,2.036,2.036,0,0,0,.94434.44238l1.25781.30469a3.48789,3.48789,0,0,1,1.6914.7959,1.86856,1.86856,0,0,1,.48731,1.35254v.00781a1.98774,1.98774,0,0,1-.39941,1.22656,2.65154,2.65154,0,0,1-1.09766.835,4.40146,4.40146,0,0,1-3.18848.00391Z"/><path d="M341.58941,33.98018a3.39723,3.39723,0,0,1-1.28711-1.42871,4.8388,4.8388,0,0,1-.46094-2.18262v-.01563a4.807,4.807,0,0,1,.46094-2.18261,3.38557,3.38557,0,0,1,1.28711-1.418,3.94465,3.94465,0,0,1,3.84082,0,3.3941,3.3941,0,0,1,1.28809,1.418,4.81989,4.81989,0,0,1,.46093,2.18261v.01563a4.84575,4.84575,0,0,1-.46093,2.18652,3.417,3.417,0,0,1-1.28418,1.42481,3.92542,3.92542,0,0,1-3.84473,0Zm3.14746-1.01758a2.25142,2.25142,0,0,0,.79981-1.00586,3.978,3.978,0,0,0,.28613-1.58789v-.01563a3.95325,3.95325,0,0,0-.28613-1.585,2.21581,2.21581,0,0,0-.80762-.998,2.17641,2.17641,0,0,0-1.22266-.34278,2.1302,2.1302,0,0,0-1.208.34668,2.26916,2.26916,0,0,0-.81152.998,3.87546,3.87546,0,0,0-.28906,1.58105v.01563a3.92583,3.92583,0,0,0,.28906,1.58789,2.25957,2.25957,0,0,0,.81152,1.00586,2.15586,2.15586,0,0,0,1.22266.34668A2.12032,2.12032,0,0,0,344.73687,32.9626Z"/><path d="M348.6441,34.18623a.88435.88435,0,1,1,.61718.251A.83983.83983,0,0,1,348.6441,34.18623Z"/><path d="M352.38628,34.18623a.88436.88436,0,1,1,.61719.251A.83986.83986,0,0,1,352.38628,34.18623Z"/><path d="M356.12945,34.18623a.88435.88435,0,1,1,.61719.251A.83982.83982,0,0,1,356.12945,34.18623Z"/><path class="ae1f7e45-39f1-4c5a-a915-4826a83a7905" d="M136.70074,65.73115h1.32617v4.335h.03027a2.36982,2.36982,0,0,1,.95215-1.04394,2.93939,2.93939,0,0,1,1.5166-.37305,2.67961,2.67961,0,0,1,1.48145.4082,2.766,2.766,0,0,1,.99512,1.13086,3.76242,3.76242,0,0,1,.35742,1.68457v4.85352h-1.3252v-4.625a2.48774,2.48774,0,0,0-.51855-1.67676,1.80751,1.80751,0,0,0-1.44727-.60156,1.91618,1.91618,0,0,0-1.78711,1.08984,2.62652,2.62652,0,0,0-.25488,1.18848v4.625h-1.32617Z"/><path class="ae1f7e45-39f1-4c5a-a915-4826a83a7905" d="M146.37945,76.36006a2.20288,2.20288,0,0,1-.541-1.65332V69.89912h-1.1582V68.80147h1.1582V66.66084h1.37207v2.14063h1.50879v1.09765H147.2105v4.79981a1.06846,1.06846,0,0,0,.27442.85742,1.24613,1.24613,0,0,0,.80761.22461,2.22373,2.22373,0,0,0,.23243-.01074c.07324-.00782.13769-.01465.19433-.01954V76.8249q-.123.01613-.3164.03516c-.12989.01172-.26075.01855-.39258.01855A2.27718,2.27718,0,0,1,146.37945,76.36006Z"/><path class="ae1f7e45-39f1-4c5a-a915-4826a83a7905" d="M151.47027,76.36006a2.20288,2.20288,0,0,1-.541-1.65332V69.89912h-1.1582V68.80147h1.1582V66.66084h1.37207v2.14063h1.50879v1.09765h-1.50879v4.79981a1.06846,1.06846,0,0,0,.27442.85742,1.24616,1.24616,0,0,0,.80762.22461,2.22366,2.22366,0,0,0,.23242-.01074c.07324-.00782.13769-.01465.19433-.01954V76.8249q-.123.01613-.3164.03516c-.12989.01172-.26075.01855-.39258.01855A2.27718,2.27718,0,0,1,151.47027,76.36006Z"/><path class="ae1f7e45-39f1-4c5a-a915-4826a83a7905" d="M155.61773,68.80147h1.3252v1.34082h.03125a2.92106,2.92106,0,0,1,.62011-.7959,2.72285,2.72285,0,0,1,.84961-.51465,2.92768,2.92768,0,0,1,1.04395-.18262,3.11593,3.11593,0,0,1,1.77246.50684,3.32191,3.32191,0,0,1,1.17676,1.43261,5.2387,5.2387,0,0,1,.41894,2.17579v.00683a5.16032,5.16032,0,0,1-.42285,2.17188,3.36249,3.36249,0,0,1-1.17285,1.42871,3.05321,3.05321,0,0,1-1.749.50683,3.00965,3.00965,0,0,1-1.04394-.17871,2.72171,2.72171,0,0,1-.86523-.51074,2.894,2.894,0,0,1-.62793-.78906h-.03125v3.99316h-1.3252Zm4.82324,6.54589a2.273,2.273,0,0,0,.78418-1.01757,4.0275,4.0275,0,0,0,.27442-1.5586v-.00683a4.07187,4.07187,0,0,0-.27442-1.57422,2.23731,2.23731,0,0,0-.78418-1.0127,2.072,2.072,0,0,0-1.21191-.35449,2.01348,2.01348,0,0,0-1.18848.36523,2.42573,2.42573,0,0,0-.81152,1.02539,3.79143,3.79143,0,0,0-.293,1.55079v.00683a3.71769,3.71769,0,0,0,.29687,1.543,2.47118,2.47118,0,0,0,.81153,1.02539,1.98847,1.98847,0,0,0,1.18457.36524A2.05978,2.05978,0,0,0,160.441,75.34736Z"/><path class="ae1f7e45-39f1-4c5a-a915-4826a83a7905" d="M165.78472,76.58174a2.4933,2.4933,0,0,1-1.54687-2.07324l-.00782-.06836h1.3252l.01563.07617a1.468,1.468,0,0,0,.57128.92578,2.08021,2.08021,0,0,0,1.25782.332,2.64773,2.64773,0,0,0,.92187-.1416,1.29621,1.29621,0,0,0,.58692-.40332.98211.98211,0,0,0,.20507-.62109v-.00782a.92637.92637,0,0,0-.25879-.68554,2.03665,2.03665,0,0,0-.9375-.42676l-1.25683-.30469a3.51872,3.51872,0,0,1-1.66895-.80371,1.864,1.864,0,0,1-.54882-1.39062v-.00782a2.05127,2.05127,0,0,1,.37011-1.21191,2.45489,2.45489,0,0,1,1.02832-.82324,3.6581,3.6581,0,0,1,1.5127-.29688,3.46266,3.46266,0,0,1,1.51269.3086,2.55286,2.55286,0,0,1,1.0127.83789,2.31917,2.31917,0,0,1,.416,1.19336l.00782.09863h-1.26563l-.00781-.05371a1.39008,1.39008,0,0,0-.50586-.92969,1.8026,1.8026,0,0,0-1.16992-.34961,2.1696,2.1696,0,0,0-.83106.14453,1.20729,1.20729,0,0,0-.53711.40723,1.03634,1.03634,0,0,0-.18652.61328v.00781a.91874.91874,0,0,0,.29.68555,2.036,2.036,0,0,0,.94434.44238l1.25781.30469a3.4878,3.4878,0,0,1,1.6914.7959,1.86856,1.86856,0,0,1,.48731,1.35254v.00781a1.98776,1.98776,0,0,1-.39941,1.22656,2.65154,2.65154,0,0,1-1.09766.835,4.4016,4.4016,0,0,1-3.18848.00391Z"/><path class="ae1f7e45-39f1-4c5a-a915-4826a83a7905" d="M172.43023,70.6833a.88193.88193,0,1,1,.61719.25195A.83672.83672,0,0,1,172.43023,70.6833Zm0,5.89844a.88436.88436,0,1,1,.61719.251A.83982.83982,0,0,1,172.43023,76.58174Z"/><path class="ae1f7e45-39f1-4c5a-a915-4826a83a7905" d="M176.37847,79.39326h-1.26465l3.10157-13.66211H179.48Z"/><path class="ae1f7e45-39f1-4c5a-a915-4826a83a7905" d="M181.12652,79.39326h-1.26465l3.10156-13.66211h1.26465Z"/><path d="M184.82378,68.80147h1.31836l1.585,6.44628h.03125l1.79-6.44628h1.28028l1.79785,6.44628h.03125l1.585-6.44628h1.31055l-2.21,7.9248h-1.34864l-1.791-6.13379h-.03028l-1.7832,6.13379h-1.34863Z"/><path d="M196.37652,68.80147h1.31836l1.585,6.44628h.03125l1.79-6.44628h1.28027l1.79785,6.44628h.03125l1.585-6.44628H207.106l-2.21,7.9248h-1.34863l-1.791-6.13379h-.03027l-1.7832,6.13379h-1.34864Z"/><path d="M207.93023,68.80147h1.31836l1.585,6.44628h.03125l1.79-6.44628h1.28027l1.79785,6.44628h.03125l1.585-6.44628h1.31054l-2.21,7.9248h-1.34863l-1.791-6.13379h-.03027l-1.7832,6.13379H210.148Z"/><path d="M219.41558,76.58174a.88436.88436,0,1,1,.61719.251A.83982.83982,0,0,1,219.41558,76.58174Z"/><path d="M222.9605,68.80147h1.3252v1.34082h.03125a2.13726,2.13726,0,0,1,.68555-1.08887,1.757,1.757,0,0,1,1.1582-.4043,2.39154,2.39154,0,0,1,.31641.01953c.09375.0127.166.02344.21679.03418v1.28711a1.21935,1.21935,0,0,0-.27051-.05273,3.68985,3.68985,0,0,0-.43847-.02344,1.71681,1.71681,0,0,0-.89453.22852,1.52557,1.52557,0,0,0-.59473.65918,2.34329,2.34329,0,0,0-.21,1.0332v4.8916h-1.3252Z"/><path d="M229.08453,76.37568a3.27935,3.27935,0,0,1-1.25782-1.42089,4.97,4.97,0,0,1-.4375-2.16016v-.00781a5.00539,5.00539,0,0,1,.44141-2.16016,3.46081,3.46081,0,0,1,1.24219-1.45508,3.68851,3.68851,0,0,1,3.74512-.02343,3.23972,3.23972,0,0,1,1.20019,1.39843,4.89455,4.89455,0,0,1,.41895,2.08789v.48731H228.0523V72.08565h5.72949l-.66992.96v-.50977a3.63818,3.63818,0,0,0-.27832-1.52441,1.97516,1.97516,0,0,0-.76562-.89551,2.26563,2.26563,0,0,0-2.25586.01562,2.09461,2.09461,0,0,0-.792.91407,3.43606,3.43606,0,0,0-.29,1.49023v.50977a3.28158,3.28158,0,0,0,.28614,1.43261,2.087,2.087,0,0,0,.81152.91114,2.3598,2.3598,0,0,0,1.24121.31543,2.46758,2.46758,0,0,0,.89942-.15235,1.86948,1.86948,0,0,0,.66308-.41894,1.54371,1.54371,0,0,0,.38086-.60938l.02344-.06836h1.30273l-.01562.07617a2.59612,2.59612,0,0,1-.37695.91407,2.916,2.916,0,0,1-.7129.751,3.35528,3.35528,0,0,1-.99023.50293,3.91839,3.91839,0,0,1-1.2041.17871A3.66381,3.66381,0,0,1,229.08453,76.37568Z"/><path d="M237.36773,76.37178a3.32188,3.32188,0,0,1-1.17676-1.43262,5.234,5.234,0,0,1-.41894-2.1748v-.00782a5.16345,5.16345,0,0,1,.42285-2.17187,3.36209,3.36209,0,0,1,1.17676-1.42871,3.056,3.056,0,0,1,1.74511-.50684,2.86323,2.86323,0,0,1,1.501.39649,2.78078,2.78078,0,0,1,1.03613,1.082h.03125V65.73115h1.3252V76.72627h-1.3252V75.38545h-.03125a2.84823,2.84823,0,0,1-1.0166,1.09277,2.77245,2.77245,0,0,1-1.49707.40039A3.11592,3.11592,0,0,1,237.36773,76.37178Zm3.21973-1.03223a2.42291,2.42291,0,0,0,.81152-1.02832,3.80137,3.80137,0,0,0,.293-1.54687v-.00782a3.72075,3.72075,0,0,0-.29688-1.543,2.47116,2.47116,0,0,0-.81152-1.02539A1.99518,1.99518,0,0,0,239.399,69.823a2.05984,2.05984,0,0,0-1.21191.35742,2.27734,2.27734,0,0,0-.78418,1.01367,4.024,4.024,0,0,0-.27442,1.5625v.00782a4.077,4.077,0,0,0,.27442,1.56933,2.2414,2.2414,0,0,0,.78418,1.01758,2.0785,2.0785,0,0,0,1.21191.35352A2.0067,2.0067,0,0,0,240.58746,75.33955Z"/><path d="M245.26031,65.73115h1.32617v4.335h.03027a2.36982,2.36982,0,0,1,.95215-1.04394,2.93939,2.93939,0,0,1,1.5166-.37305,2.67961,2.67961,0,0,1,1.48145.4082,2.766,2.766,0,0,1,.99512,1.13086,3.76242,3.76242,0,0,1,.35742,1.68457v4.85352h-1.3252v-4.625a2.48774,2.48774,0,0,0-.51855-1.67676,1.80751,1.80751,0,0,0-1.44727-.60156,1.91618,1.91618,0,0,0-1.78711,1.08984,2.62652,2.62652,0,0,0-.25488,1.18848v4.625h-1.32617Z"/><path d="M254.93023,76.58174a2.23411,2.23411,0,0,1-.92578-.83887,2.35782,2.35782,0,0,1-.33106-1.25683v-.01563a1.97171,1.97171,0,0,1,.75391-1.61914,3.64444,3.64444,0,0,1,2.11914-.68164l2.93359-.168V73.031l-2.78125.167a2.21528,2.21528,0,0,0-1.23046.38086,1.06607,1.06607,0,0,0-.43848.8916V74.486a1.08978,1.08978,0,0,0,.43066.90722,1.82069,1.82069,0,0,0,1.14649.335,2.38253,2.38253,0,0,0,1.124-.26269,2.06792,2.06792,0,0,0,.792-.72071,1.8575,1.8575,0,0,0,.29395-1.02832V71.37764a1.47,1.47,0,0,0-.45313-1.13965,1.83645,1.83645,0,0,0-1.28418-.415,2.0889,2.0889,0,0,0-1.23046.331,1.38808,1.38808,0,0,0-.583.86524l-.01563.06836h-1.28027l.00781-.084a2.37349,2.37349,0,0,1,.44629-1.18847,2.66106,2.66106,0,0,1,1.0625-.84961,4.24684,4.24684,0,0,1,3.22656.0039,2.45875,2.45875,0,0,1,1.05567.90235,2.49557,2.49557,0,0,1,.373,1.376v5.47852H258.817V75.43818h-.03027a2.53914,2.53914,0,0,1-.61036.75879,2.85171,2.85171,0,0,1-1.86621.68164A3.04727,3.04727,0,0,1,254.93023,76.58174Z"/><path d="M263.16168,76.36006a2.20284,2.20284,0,0,1-.541-1.65332V69.89912h-1.1582V68.80147h1.1582V66.66084h1.37207v2.14063h1.50879v1.09765h-1.50879v4.79981a1.0685,1.0685,0,0,0,.27441.85742,1.24616,1.24616,0,0,0,.80762.22461,2.22353,2.22353,0,0,0,.23242-.01074c.07325-.00782.1377-.01465.19434-.01954V76.8249q-.123.01613-.31641.03516c-.12988.01172-.26074.01855-.39258.01855A2.27713,2.27713,0,0,1,263.16168,76.36006Z"/><path d="M267.50738,76.58174a.88435.88435,0,1,1,.61719.251A.83982.83982,0,0,1,267.50738,76.58174Z"/><path d="M271.93121,76.37178a3.35748,3.35748,0,0,1-1.27637-1.43262,4.94525,4.94525,0,0,1-.44922-2.18262v-.00781a4.83927,4.83927,0,0,1,.457-2.17187,3.38916,3.38916,0,0,1,1.28028-1.42481,3.61107,3.61107,0,0,1,1.91992-.50293,3.52216,3.52216,0,0,1,1.69922.38477,3.07927,3.07927,0,0,1,1.11621.99414,2.95032,2.95032,0,0,1,.49121,1.28808l.00781.06153h-1.29492l-.01563-.06153a2.06045,2.06045,0,0,0-.63574-1.04394,1.95317,1.95317,0,0,0-1.36816-.44922,2.0512,2.0512,0,0,0-1.2041.36133,2.37971,2.37971,0,0,0-.80762,1.02148,3.84766,3.84766,0,0,0-.28906,1.5586v.00683a3.85206,3.85206,0,0,0,.293,1.57813,2.3187,2.3187,0,0,0,.81543,1.00586,2.115,2.115,0,0,0,1.208.34961,2.01519,2.01519,0,0,0,1.32129-.415,1.98285,1.98285,0,0,0,.67481-1.07813l.01562-.06055h1.30274l-.00782.05274a2.95141,2.95141,0,0,1-.55273,1.36035,3.16626,3.16626,0,0,1-1.15039.96,3.52107,3.52107,0,0,1-1.60352.35449A3.65041,3.65041,0,0,1,271.93121,76.37178Z"/><path d="M280.16168,76.37568a3.3971,3.3971,0,0,1-1.28711-1.42871,4.83872,4.83872,0,0,1-.46094-2.18261v-.01563a4.80711,4.80711,0,0,1,.46094-2.18262,3.38548,3.38548,0,0,1,1.28711-1.418,3.94465,3.94465,0,0,1,3.84082,0,3.394,3.394,0,0,1,1.28808,1.418,4.82,4.82,0,0,1,.46094,2.18262v.01563a4.84575,4.84575,0,0,1-.46094,2.18652,3.4169,3.4169,0,0,1-1.28418,1.4248,3.9254,3.9254,0,0,1-3.84472,0Zm3.14746-1.01757a2.2514,2.2514,0,0,0,.7998-1.00586,3.978,3.978,0,0,0,.28613-1.58789v-.01563a3.95319,3.95319,0,0,0-.28613-1.585,2.21582,2.21582,0,0,0-.80762-.99805,2.17645,2.17645,0,0,0-1.22265-.34277,2.13013,2.13013,0,0,0-1.208.34668,2.269,2.269,0,0,0-.81152.99805,3.87542,3.87542,0,0,0-.28907,1.581v.01563a3.92583,3.92583,0,0,0,.28907,1.58789,2.25951,2.25951,0,0,0,.81152,1.00586,2.15586,2.15586,0,0,0,1.22266.34668A2.12035,2.12035,0,0,0,283.30914,75.35811Z"/><path d="M287.47515,68.80147h1.3252v1.1582h.03125a2.17184,2.17184,0,0,1,.83789-.94824,2.43814,2.43814,0,0,1,1.333-.36231,2.55143,2.55143,0,0,1,.97949.17969,2.1432,2.1432,0,0,1,.75781.51758,2.25912,2.25912,0,0,1,.48828.82715h.03028a2.52232,2.52232,0,0,1,.59082-.81934,2.62027,2.62027,0,0,1,.85351-.52246,2.93324,2.93324,0,0,1,1.04-.18262,2.74939,2.74939,0,0,1,1.36328.32422,2.26278,2.26278,0,0,1,.89942.90625,2.82258,2.82258,0,0,1,.32031,1.376v5.4707h-1.32617v-5.166a1.79654,1.79654,0,0,0-.43067-1.27636,1.58039,1.58039,0,0,0-1.21484-.46094,1.78179,1.78179,0,0,0-.92969.24023,1.68556,1.68556,0,0,0-.63281.66211,1.99666,1.99666,0,0,0-.22852.96387v5.03711h-1.32617V71.41572a1.55064,1.55064,0,0,0-.44141-1.1582,1.61123,1.61123,0,0,0-1.18164-.43457,1.72,1.72,0,0,0-.93261.25488,1.82451,1.82451,0,0,0-.64453.68946,2.04559,2.04559,0,0,0-.23633.99121v4.96777h-1.3252Z"/><g class="bde2195f-eac8-490b-b7f4-40e118392d12"><path class="b205fadc-802f-49ff-af6a-2230b8c7803c" d="M523.62554,210.74092a7.80814,7.80814,0,0,1-5.57715-2.3418l1.19043-1.376a7.61927,7.61927,0,0,0,2.165,1.543,5.57907,5.57907,0,0,0,2.334.502,4.44691,4.44691,0,0,0,1.63574-.27832,2.63151,2.63151,0,0,0,1.10547-.77246,1.73423,1.73423,0,0,0,.40039-1.124,1.60346,1.60346,0,0,0-.61328-1.34765,4.56244,4.56244,0,0,0-2.02637-.69727l-2.15723-.37207a5.02611,5.02611,0,0,1-2.68652-1.13379,2.93223,2.93223,0,0,1-.88281-2.23144,3.368,3.368,0,0,1,.59472-1.97071,3.81753,3.81753,0,0,1,1.68262-1.31933,6.37217,6.37217,0,0,1,2.51953-.46485,8.78718,8.78718,0,0,1,5.24219,1.76563l-1.07812,1.50586a6.99,6.99,0,0,0-4.25684-1.59864,4.23679,4.23679,0,0,0-1.49707.24219,2.20159,2.20159,0,0,0-.98535.67871,1.6154,1.6154,0,0,0-.34375,1.03125,1.43086,1.43086,0,0,0,.53906,1.18946,3.93849,3.93849,0,0,0,1.76563.63281l2.12011.334a5.89441,5.89441,0,0,1,3.03028,1.209,3.07121,3.07121,0,0,1,.96679,2.39746,3.55763,3.55763,0,0,1-.6416,2.10156,4.07976,4.07976,0,0,1-1.82226,1.40332A7.02969,7.02969,0,0,1,523.62554,210.74092Z"/><path class="b205fadc-802f-49ff-af6a-2230b8c7803c" d="M535.30035,210.72236a4.99787,4.99787,0,0,1-2.51856-.64062,4.84859,4.84859,0,0,1-1.79394-1.7666,5.04191,5.04191,0,0,1-.02832-4.97266,4.96455,4.96455,0,0,1,1.71972-1.75683,4.53318,4.53318,0,0,1,2.417-.66016,4.23524,4.23524,0,0,1,2.333.66016,4.73485,4.73485,0,0,1,1.63575,1.78417,5.28286,5.28286,0,0,1,.60449,2.53809v.502h-7.47363a3.19426,3.19426,0,0,0,1.68261,2.37012,3.12939,3.12939,0,0,0,1.4961.36231,4.00421,4.00421,0,0,0,1.33886-.22266,3.25056,3.25056,0,0,0,1.05957-.59473l1.1709,1.15235a5.99724,5.99724,0,0,1-1.70117.93847A5.86376,5.86376,0,0,1,535.30035,210.72236Zm-3.08594-5.707h5.61426a3.202,3.202,0,0,0-.5293-1.292,2.98344,2.98344,0,0,0-.97656-.89258,2.56223,2.56223,0,0,0-1.28223-.32519,2.66825,2.66825,0,0,0-1.30176.32519,2.95121,2.95121,0,0,0-.99414.88281A3.13257,3.13257,0,0,0,532.21441,205.01533Z"/><path class="b205fadc-802f-49ff-af6a-2230b8c7803c" d="M541.60211,210.55537v-9.48144h1.85937v1.22754a3.214,3.214,0,0,1,1.10645-1.041,2.991,2.991,0,0,1,1.49609-.37207,2.59266,2.59266,0,0,1,.94824.14844v1.67285a2.32029,2.32029,0,0,0-.53906-.15723,3.4759,3.4759,0,0,0-.57617-.04687,2.45808,2.45808,0,0,0-1.43164.43652,2.96263,2.96263,0,0,0-1.00391,1.27344v6.33984Z"/><path class="b205fadc-802f-49ff-af6a-2230b8c7803c" d="M552.01324,210.55537l-4.08985-9.46289h2.04493l2.95605,7.083,2.95606-7.083h1.98925l-4.08984,9.46289Z"/></g><line class="bfa813b9-a2ce-40b7-95c1-e5f06cf903db" x1="69.29678" y1="157.69352" x2="555" y2="157.69352"/><path class="aaa44359-535a-4042-949c-e469aaff7e4d" d="M112.24855,200.85909a13.43947,13.43947,0,0,1,.46473,2.72789c0,3.77307-4.23775,5.86236-9.80909,5.86236-12.59609,0-23.62381-7.37125-23.62381-12.247a4.96162,4.96162,0,0,1,.40624-1.97336c-4.52756.23217-10.38984,1.04453-10.38984,6.21039,0,8.47411,20.08315,18.92187,35.98678,18.92187,12.18927,0,15.26493-5.51373,15.26493-9.867,0-3.425-2.95988-7.31316-8.29994-9.6352m-8.7644,3.07641c3.367,0,8.24205-.6968,8.24205-4.70164a3.8066,3.8066,0,0,0-.08347-.92146l-2.00538-8.71349c-.465-1.91536-.871-2.78623-4.23747-4.46959-2.61228-1.33467-8.30021-3.54022-9.98363-3.54022-1.56712,0-2.03107,2.03109-3.88876,2.03109-1.799,0-3.13412-1.50876-4.81734-1.50876-1.62482,0-2.67016,1.10251-3.48264,3.36644,0,0-2.26391,6.38459-2.55408,7.31276a1.68308,1.68308,0,0,0-.05981.523c0,2.48136,9.77245,10.62188,22.87053,10.62188"/><path d="M112.24855,200.85909a13.43947,13.43947,0,0,1,.46473,2.72789c0,3.77307-4.23775,5.86236-9.80909,5.86236-12.59609,0-23.62381-7.37125-23.62381-12.247a4.96162,4.96162,0,0,1,.40624-1.97336l.98681-2.43839a1.68308,1.68308,0,0,0-.05981.523c0,2.48136,9.77245,10.62188,22.87053,10.62188,3.367,0,8.24205-.6968,8.24205-4.70164a3.8066,3.8066,0,0,0-.08347-.92146l.60582,2.54669Z"/><path class="b205fadc-802f-49ff-af6a-2230b8c7803c" d="M130.01779,211.001H134.888v-7.22065h3.70975l3.73774,7.22065h5.43673l-4.3608-7.92848a5.99728,5.99728,0,0,0,3.738-5.57843c0-3.56785-2.80344-6.31464-6.99434-6.31464H130.01779V211.001Zm9.68416-15.659a2.25294,2.25294,0,1,1,0,4.47407h-4.814v-4.47407Zm7.9001,8.18352a7.86448,7.86448,0,0,0,8.15509,7.75869,8.98861,8.98861,0,0,0,6.25793-2.26521l-3.02961-2.69014a4.05778,4.05778,0,0,1-3.00162,1.13261,3.87087,3.87087,0,0,1-3.6812-2.37857h10.67528v-1.13261c0-4.75727-3.19979-8.18348-7.56031-8.18348a7.69408,7.69408,0,0,0-7.81556,7.75871m7.73047-4.021a3.31292,3.31292,0,0,1,3.143,2.37871h-6.25794a3.11988,3.11988,0,0,1,3.115-2.37871M176.11657,211.001h4.53069V190.18844l-4.58723.991v5.63508a7.71886,7.71886,0,1,0-3.96446,14.3849,6.75581,6.75581,0,0,0,4.021-1.30262V211.001Zm-7.164-7.5037a3.793,3.793,0,0,1,3.93591-3.79452,4.6415,4.6415,0,0,1,3.17152,1.161v5.23858a4.40707,4.40707,0,0,1-3.17152,1.18927,3.80986,3.80986,0,0,1-3.93591-3.79435m18.559,7.5037h4.87076v-7.75864h8.15508V211.001h4.87049V191.17948h-4.87049v7.61726h-8.15508v-7.61726h-4.87076V211.001Zm24.89041.255a7.00952,7.00952,0,0,0,4.13435-1.161v.906H221.067v-9.59921c0-3.65278-2.46364-5.66335-6.56946-5.66335a16.66969,16.66969,0,0,0-6.99434,1.64245l1.64243,3.36957a12.24048,12.24048,0,0,1,4.5307-1.18928c1.89713,0,2.86.73625,2.86,2.2371v.73625a13.29861,13.29861,0,0,0-3.39795-.42477c-3.85113,0-6.17313,1.614-6.17313,4.50231,0,2.63341,2.09531,4.64391,5.43673,4.64391m-1.39958-4.72883c0-.99114.99112-1.47246,2.49192-1.47246a11.51664,11.51664,0,0,1,2.71836.33972v1.92563a5.78987,5.78987,0,0,1-2.86.70783c-1.47252,0-2.35029-.56636-2.35029-1.50072m14.255-.08493c0,3.19961,1.926,4.75721,5.437,4.75721a14.06986,14.06986,0,0,0,3.2-.45315V207.0369a6.666,6.666,0,0,1-2.06733.31144c-1.44423,0-1.98194-.45305-1.98194-1.8123v-5.69162h4.19061v-3.82278h-4.19061v-4.84216l-4.58779.99114v3.851h-3.02987v3.82278h3.02987v6.59783Z"/></g></svg>