<svg xmlns="http://www.w3.org/2000/svg" xmlns:xlink="http://www.w3.org/1999/xlink" viewBox="0 0 555 320"><defs><style>.a18dd064-a484-49db-9202-796d5df27d78{fill:none;}.ac395293-f07d-4bc8-816c-7522131cda79{fill:#ed0000;}.f714eb10-b6ff-42fc-a348-ac8d2203fb41{clip-path:url(#f4ab610e-9483-439e-ac09-a8d23d514ae3);}</style><clipPath id="f4ab610e-9483-439e-ac09-a8d23d514ae3"><path class="a18dd064-a484-49db-9202-796d5df27d78" d="M80.94505,103.30828v-45.788h10.5966l20.80054,26.55679V57.52026h10.5966v45.788h-9.94231L91.54165,75.705v27.60331Zm66.32647.65429a19.33862,19.33862,0,0,1-9.58262-2.38763,18.13024,18.13024,0,0,1-6.76979-6.44264,17.04449,17.04449,0,0,1-2.48569-9.09236,17.59366,17.59366,0,0,1,8.8958-15.535,17.93551,17.93551,0,0,1,9.15742-2.38764,16.67657,16.67657,0,0,1,9.02684,2.4527,17.31572,17.31572,0,0,1,6.18146,6.70472,20.47522,20.47522,0,0,1,2.2566,9.74575v2.61718H139.29165a9.63956,9.63956,0,0,0,1.92945,2.87745,8.3749,8.3749,0,0,0,2.91089,1.93036,9.69811,9.69811,0,0,0,3.66279.68683,10.76064,10.76064,0,0,0,3.92487-.68683,8.59393,8.59393,0,0,0,3.00894-1.93036l6.99888,6.214a22.23686,22.23686,0,0,1-6.70472,3.99084A22.68705,22.68705,0,0,1,147.27152,103.96257Zm-8.17643-21.71646h14.456a7.72869,7.72869,0,0,0-1.6023-2.91089,7.93682,7.93682,0,0,0-2.51867-1.89691,7.19073,7.19073,0,0,0-3.13954-.68683,7.66085,7.66085,0,0,0-3.205.65429,6.86459,6.86459,0,0,0-2.45316,1.86438A8.18436,8.18436,0,0,0,139.09509,82.24611Zm35.84436,21.06217-9.4186-34.60265h10.00783l5.10151,20.3428,6.2149-20.3428h8.76521l6.214,20.40878,5.03645-20.40878h9.87678L207.253,103.30828H197.1141l-6.01789-20.01566-5.95192,20.01566Zm58.34615,0v-45.788l10.59615-2.28913V71.06074a14.82893,14.82893,0,0,1,9.28846-3.0094,14.23968,14.23968,0,0,1,7.16291,1.76678,12.69678,12.69678,0,0,1,4.87287,4.9054,14.55486,14.55486,0,0,1,1.76588,7.26051v21.32425H256.37572V83.42366a5.8618,5.8618,0,0,0-6.27907-6.28,8.33066,8.33066,0,0,0-3.56518.71937,7.77073,7.77073,0,0,0-2.64972,2.02795v23.41727Zm51.02058.58832a14.78081,14.78081,0,0,1-6.50862-1.37366,10.84151,10.84151,0,0,1-4.44722-3.79383,9.83041,9.83041,0,0,1-1.6032-5.5597,8.91858,8.91858,0,0,1,3.76129-7.68526q3.7604-2.71388,10.49855-2.71478a31.22848,31.22848,0,0,1,7.84974.98144V82.05a4.59109,4.59109,0,0,0-1.66827-3.89233,8.04955,8.04955,0,0,0-4.93885-1.27515,18.315,18.315,0,0,0-4.54572.65339,44.0871,44.0871,0,0,0-5.92029,2.09392l-3.79383-7.78466a47.28472,47.28472,0,0,1,8.20942-2.84492,34.01582,34.01582,0,0,1,7.94733-.94891q7.19546,0,11.18538,3.43415,3.98949,3.435,3.98994,9.64814v22.17465H293.85672v-2.093a14.2732,14.2732,0,0,1-4.41559,2.06049A19.8671,19.8671,0,0,1,284.30618,103.8966Zm-2.48524-10.9233a2.86771,2.86771,0,0,0,1.43872,2.55121,7.39791,7.39791,0,0,0,3.98994.91547,15.56686,15.56686,0,0,0,3.56519-.39221,10.18151,10.18151,0,0,0,3.04193-1.24262V90.357a23.92219,23.92219,0,0,0-3.07447-.58922,25.96045,25.96045,0,0,0-3.2055-.19611,8.46649,8.46649,0,0,0-4.252.88294A2.77432,2.77432,0,0,0,281.82094,92.9733Zm45.26386,10.79316q-6.214,0-9.38607-2.77985-3.17342-2.78029-3.173-8.20942V77.53591h-6.99843V68.70563h6.99843V59.81029l10.59706-2.29V68.70563h9.68067v8.83028h-9.68067V90.68417a4.293,4.293,0,0,0,1.014,3.238,5.21092,5.21092,0,0,0,3.56519.948,15.9576,15.9576,0,0,0,2.38673-.16358,17.5176,17.5176,0,0,0,2.38764-.55579V102.72a21.79615,21.79615,0,0,1-3.66279.7519A29.31148,29.31148,0,0,1,327.0848,103.76646Zm16.74417.26118a6.14268,6.14268,0,1,1,4.28455-1.79841A5.84955,5.84955,0,0,1,343.829,104.02764ZM97.82117,173.08742a31.18728,31.18728,0,0,1-10.98927-2.028,32.35582,32.35582,0,0,1-9.68068-5.62567l6.27952-8.176a32.37661,32.37661,0,0,0,7.71824,4.87287,19.3564,19.3564,0,0,0,7.52259,1.47216,16.34514,16.34514,0,0,0,4.44767-.52325,6.19884,6.19884,0,0,0,2.81284-1.53723,3.32052,3.32052,0,0,0,.981-2.38764,3.43067,3.43067,0,0,0-1.43872-2.94343,12.23433,12.23433,0,0,0-4.90586-1.63573l-10.07335-1.76588a14.69632,14.69632,0,0,1-8.5691-4.252,11.78932,11.78932,0,0,1-3.00895-8.307,12.95022,12.95022,0,0,1,2.257-7.65273,14.128,14.128,0,0,1,6.47563-4.90631,26.81148,26.81148,0,0,1,10.04036-1.6999,32.15764,32.15764,0,0,1,10.2699,1.73334,28.48564,28.48564,0,0,1,8.96132,4.8069l-5.95282,8.30792q-7.06395-5.42911-14.06328-5.42956a14.11064,14.11064,0,0,0-3.95741.49072,5.89883,5.89883,0,0,0-2.55075,1.37366,2.8978,2.8978,0,0,0-.88339,2.12555,3.02718,3.02718,0,0,0,1.2756,2.61718,10.63023,10.63023,0,0,0,4.15351,1.43873l9.485,1.56977q6.60578,1.04651,10.04036,4.38215a11.50439,11.50439,0,0,1,3.43415,8.63417,13.37238,13.37238,0,0,1-2.42017,8.01331,15.384,15.384,0,0,1-6.93381,5.2A28.48278,28.48278,0,0,1,97.82117,173.08742Zm36.76073-.066a14.7788,14.7788,0,0,1-6.50816-1.37366,10.85,10.85,0,0,1-4.44812-3.79382,9.83,9.83,0,0,1-1.60275-5.55971,8.91861,8.91861,0,0,1,3.76129-7.68526q3.7604-2.71388,10.49855-2.71478a31.21706,31.21706,0,0,1,7.84928.98144v-1.7008a4.58961,4.58961,0,0,0-1.66782-3.89234,8.04769,8.04769,0,0,0-4.93884-1.27515,18.31507,18.31507,0,0,0-4.54573.65339,44.03877,44.03877,0,0,0-5.91984,2.09393L123.26594,140.97a47.25534,47.25534,0,0,1,8.209-2.84492,34.01881,34.01881,0,0,1,7.94734-.94891q7.19477,0,11.18538,3.43415,3.98947,3.435,3.99039,9.64814v22.17465H144.132v-2.093a14.27127,14.27127,0,0,1-4.41514,2.06049A19.87,19.87,0,0,1,134.5819,173.02145Zm-2.48569-10.92329a2.86813,2.86813,0,0,0,1.43918,2.5512,7.399,7.399,0,0,0,3.98994.91548,15.56338,15.56338,0,0,0,3.56518-.39222A10.16882,10.16882,0,0,0,144.132,163.93v-4.44812a23.89214,23.89214,0,0,0-3.07446-.58923,25.95871,25.95871,0,0,0-3.20506-.19611,8.46472,8.46472,0,0,0-4.25156.88294A2.77439,2.77439,0,0,0,132.09621,162.09816Zm28.78086,10.335V137.83049h10.5966v2.22406a14.45548,14.45548,0,0,1,14.52192-1.63484,11.92992,11.92992,0,0,1,4.38125,3.53175,14.38919,14.38919,0,0,1,4.97229-3.53175,15.67531,15.67531,0,0,1,6.27906-1.24352,13.43784,13.43784,0,0,1,6.93336,1.76678,12.67141,12.67141,0,0,1,4.74274,4.90541,14.78331,14.78331,0,0,1,1.73334,7.26051v21.32424h-10.597V152.54852a6.58086,6.58086,0,0,0-1.53633-4.57917,5.24491,5.24491,0,0,0-4.08844-1.7008,7.65426,7.65426,0,0,0-3.2046.65429,6.735,6.735,0,0,0-2.48705,1.962q.06507.52461.09941,1.07995c.01988.37053.03253.7519.03253,1.14412v21.32424h-10.597V152.54852a6.577,6.577,0,0,0-1.53723-4.57917,5.24623,5.24623,0,0,0-4.08844-1.7008,7.77321,7.77321,0,0,0-3.17207.62176,6.20263,6.20263,0,0,0-2.38764,1.86438v23.67844Zm77.708.65429a19.33569,19.33569,0,0,1-9.58217-2.38763,18.1394,18.1394,0,0,1-6.77069-6.44264,17.04814,17.04814,0,0,1-2.48524-9.09236,17.5969,17.5969,0,0,1,8.89534-15.535,17.93646,17.93646,0,0,1,9.15833-2.38764,16.67705,16.67705,0,0,1,9.02638,2.45271,17.3156,17.3156,0,0,1,6.18147,6.70472,20.46989,20.46989,0,0,1,2.25659,9.74574v2.61718H230.60516a9.63942,9.63942,0,0,0,1.92945,2.87746,8.37488,8.37488,0,0,0,2.91089,1.93035,9.69978,9.69978,0,0,0,3.66279.68683,10.759,10.759,0,0,0,3.92487-.68683,8.59209,8.59209,0,0,0,3.00849-1.93035l6.99933,6.214a22.23718,22.23718,0,0,1-6.70472,3.99084A22.6871,22.6871,0,0,1,238.585,173.08742Zm-8.176-21.71645h14.456a7.73664,7.73664,0,0,0-1.6032-2.9109,7.92857,7.92857,0,0,0-2.51777-1.89691,7.19326,7.19326,0,0,0-3.14044-.68683,7.663,7.663,0,0,0-3.2046.6543,6.85871,6.85871,0,0,0-2.45271,1.86438A8.16335,8.16335,0,0,0,230.40905,151.371Zm56.25132,21.71645a34.38444,34.38444,0,0,1-9.09145-1.145,22.27322,22.27322,0,0,1-7.26141-3.36818l5.03735-7.13037a30.13147,30.13147,0,0,0,5.95192,2.84582,16.87649,16.87649,0,0,0,5.29853.88294,9.55976,9.55976,0,0,0,4.15351-.7519,2.26124,2.26124,0,0,0,1.53723-1.99542,1.90406,1.90406,0,0,0-.85041-1.6023,6.111,6.111,0,0,0-2.68224-.88293l-6.86739-1.04742a13.97913,13.97913,0,0,1-7.88227-3.43324,9.21237,9.21237,0,0,1-2.71479-6.90173,10.13065,10.13065,0,0,1,1.79931-6.05043,11.28055,11.28055,0,0,1,5.13405-3.85889,21.39468,21.39468,0,0,1,7.98078-1.34113,27.74587,27.74587,0,0,1,7.52168,1.04651,24.97645,24.97645,0,0,1,6.93427,3.13954l-5.03735,6.80322a24.651,24.651,0,0,0-5.3636-2.38763,17.99025,17.99025,0,0,0-5.10151-.7519,6.7386,6.7386,0,0,0-3.27057.68683,2.03614,2.03614,0,0,0-1.24353,1.79841,1.91936,1.91936,0,0,0,.91638,1.66827,7.96035,7.96035,0,0,0,3.13953.948l6.86829,1.04651a13.937,13.937,0,0,1,7.88227,3.36908,8.86817,8.86817,0,0,1,2.77986,6.70472,9.55809,9.55809,0,0,1-2.028,6.01789,13.87774,13.87774,0,0,1-5.52717,4.15351A19.76454,19.76454,0,0,1,286.66037,173.08742Zm37.15295,0a19.15718,19.15718,0,0,1-9.55054-2.38763,18.20641,18.20641,0,0,1-6.73725-6.44264,17.93453,17.93453,0,0,1,0-18.21725,18.13816,18.13816,0,0,1,6.73725-6.47607,20.29306,20.29306,0,0,1,19.10018,0,18.14494,18.14494,0,0,1,6.73725,6.47607,17.92888,17.92888,0,0,1,0,18.21725,18.21327,18.21327,0,0,1-6.73725,6.44264A19.15862,19.15862,0,0,1,323.81332,173.08742Zm0-9.15742a8.02561,8.02561,0,0,0,4.31709-1.17755,8.58642,8.58642,0,0,0,3.00849-3.173,8.91188,8.91188,0,0,0,1.11248-4.41469,9.05021,9.05021,0,0,0-1.11248-4.48065,8.51463,8.51463,0,0,0-3.041-3.173,8.389,8.389,0,0,0-8.5691,0,8.49612,8.49612,0,0,0-3.04193,3.173,9.04,9.04,0,0,0-1.11158,4.48065,8.9016,8.9016,0,0,0,1.11158,4.41469,8.48949,8.48949,0,0,0,3.04193,3.173A8.06919,8.06919,0,0,0,323.81332,163.93Zm37.284,9.15742a14.24378,14.24378,0,0,1-7.16291-1.76587,12.63244,12.63244,0,0,1-4.87287-4.93884,14.60416,14.60416,0,0,1-1.76678-7.228V137.83049h10.597V157.716a5.95077,5.95077,0,0,0,6.27907,6.27907,8.54674,8.54674,0,0,0,3.59772-.71936,7.06285,7.06285,0,0,0,2.61628-2.028V137.83049h10.59705v34.60264H370.38487V170.078A14.821,14.821,0,0,1,361.09731,173.08742Zm26.42485-.65429v-45.788l10.59615-1.63483v47.42285Zm22.04271.71936a6.14266,6.14266,0,1,1,4.28455-1.79841A5.84957,5.84957,0,0,1,409.56487,173.15249Z"/></clipPath></defs><g id="bf5a38ce-de64-4cb8-80ae-e10f7709803f" data-name="Layer 3"><path class="ac395293-f07d-4bc8-816c-7522131cda79" d="M115.66822,249.57027a12.05184,12.05184,0,0,1,.41675,2.44624c0,3.3835-3.8002,5.25707-8.79631,5.25707-11.29554,0-21.18465-6.61017-21.18465-10.98246a4.44929,4.44929,0,0,1,.3643-1.76961c-4.06009.2082-9.31709.93668-9.31709,5.56916,0,7.59917,18.00957,16.9682,32.27115,16.9682,10.93073,0,13.68882-4.94444,13.68882-8.84822,0-3.07142-2.65427-6.55808-7.443-8.64038m-7.85947,2.75878c3.01935,0,7.39106-.62486,7.39106-4.2162a3.41413,3.41413,0,0,0-.07485-.82632l-1.79833-7.81382c-.417-1.7176-.7811-2.49855-3.8-4.00811-2.34256-1.19686-7.44321-3.17469-8.95281-3.17469-1.40532,0-1.82136,1.82138-3.48725,1.82138-1.61328,0-2.81052-1.353-4.31995-1.353-1.45706,0-2.39447.98868-3.12305,3.01886,0,0-2.03017,5.72537-2.29038,6.55771a1.50915,1.50915,0,0,0-.05363.469c0,2.22517,8.76345,9.52518,20.50915,9.52518"/><path d="M115.66822,249.57027a12.05184,12.05184,0,0,1,.41675,2.44624c0,3.3835-3.8002,5.25707-8.79631,5.25707-11.29554,0-21.18465-6.61017-21.18465-10.98246a4.44929,4.44929,0,0,1,.3643-1.76961l.88492-2.18663a1.50915,1.50915,0,0,0-.05363.469c0,2.22517,8.76345,9.52518,20.50915,9.52518,3.01935,0,7.39106-.62486,7.39106-4.2162a3.41413,3.41413,0,0,0-.07485-.82632l.54326,2.28374Z"/><path d="M131.60279,258.66506h4.36736V252.19h3.32672l3.35182,6.47511h4.87538l-3.91054-7.10987a5.378,5.378,0,0,0,3.35206-5.00245c0-3.19947-2.514-5.66266-6.27217-5.66266h-9.09063v17.775Zm8.68427-14.04217a2.02032,2.02032,0,1,1,0,4.01212h-4.31691v-4.01212Zm7.08441,7.33857a7.05247,7.05247,0,0,0,7.31308,6.95761,8.06056,8.06056,0,0,0,5.6118-2.03133l-2.7168-2.41239a3.6388,3.6388,0,0,1-2.6917,1.01567,3.4712,3.4712,0,0,1-3.30112-2.133h9.57305v-1.01567c0-4.26608-2.8694-7.33853-6.7797-7.33853a6.89966,6.89966,0,0,0-7.00861,6.95762m6.9323-3.60585a2.97084,2.97084,0,0,1,2.81846,2.1331h-5.6118a2.79772,2.79772,0,0,1,2.79334-2.1331m18.6381,10.30945h4.0629V240.00137l-4.1136.88871v5.05326A6.92189,6.92189,0,1,0,169.336,258.843a6.05816,6.05816,0,0,0,3.60583-1.16813v.99019Zm-6.42429-6.72894a3.40134,3.40134,0,0,1,3.52953-3.40273,4.16228,4.16228,0,0,1,2.84406,1.04113v4.69771a3.95206,3.95206,0,0,1-2.84406,1.06648,3.4165,3.4165,0,0,1-3.52953-3.40259m16.64274,6.72894h4.36786V251.7075h7.31306v6.95756h4.36761v-17.775h-4.36761v6.83078h-7.31306v-6.83078h-4.36786v17.775Zm22.32047.22865a6.28582,6.28582,0,0,0,3.70748-1.04113v.81248h4.06289V250.057c0-3.27563-2.20927-5.07861-5.89116-5.07861a14.94858,14.94858,0,0,0-6.27217,1.47287l1.47284,3.02166a10.97681,10.97681,0,0,1,4.06291-1.06649c1.70125,0,2.56469.66024,2.56469,2.00612v.66024a11.925,11.925,0,0,0-3.04711-.38092c-3.4535,0-5.53575,1.4474-5.53575,4.03745,0,2.36151,1.879,4.16442,4.87538,4.16442m-1.25507-4.24058c0-.8888.88879-1.32043,2.23463-1.32043a10.327,10.327,0,0,1,2.43769.30466v1.7268a5.19211,5.19211,0,0,1-2.56469.63475c-1.32048,0-2.10763-.50789-2.10763-1.34578m12.78313-.07615c0,2.86924,1.72711,4.266,4.87565,4.266a12.61764,12.61764,0,0,0,2.86963-.40635v-3.32643a5.97759,5.97759,0,0,1-1.85387.27929c-1.29512,0-1.77731-.40627-1.77731-1.62518v-5.104h3.75793V245.2323H221.123v-4.34222l-4.1141.88881v3.45341h-2.717v3.42807h2.717V254.577Z"/><g class="f714eb10-b6ff-42fc-a348-ac8d2203fb41"><path class="ac395293-f07d-4bc8-816c-7522131cda79" d="M360.31714,95.54977c3.56322,16.91085,3.56322,18.691,3.56322,20.91568,0,28.92936-32.49221,44.94861-75.20956,44.94861-96.5784,0-181.13164-56.5178-181.13164-93.90149A38.043,38.043,0,0,1,110.654,52.38215c-34.71431,1.78017-79.66236,8.00877-79.66236,47.61711,0,64.97389,153.98422,145.08035,275.92262,145.08035,93.45922,0,117.04132-42.27565,117.04132-75.6535,0-26.261-22.6944-56.07244-63.63841-73.87634m-67.19955,23.58789c25.81582,0,63.19453-5.3426,63.19453-36.04906a29.18972,29.18972,0,0,0-.64-7.06513L340.29621,9.21428c-3.56526-14.68576-6.67846-21.363-32.49012-34.2699-20.02922-10.23336-63.6405-27.144-76.54778-27.144-12.01565,0-15.57288,15.573-29.81646,15.573-13.79378,0-24.03032-11.56815-36.93612-11.56815-12.45808,0-20.473,8.45334-26.70254,25.81163,0,0-17.3582,48.95275-19.583,56.06936a12.90475,12.90475,0,0,0-.45852,4.00993c0,19.02544,74.92863,81.44152,175.356,81.44152"/><path d="M360.31714,95.54977c3.56322,16.91085,3.56322,18.691,3.56322,20.91568,0,28.92936-32.49221,44.94861-75.20956,44.94861-96.5784,0-181.13164-56.5178-181.13164-93.90149A38.043,38.043,0,0,1,110.654,52.38215l7.56618-18.69594a12.90475,12.90475,0,0,0-.45852,4.00993c0,19.02544,74.92863,81.44152,175.356,81.44152,25.81582,0,63.19453-5.3426,63.19453-36.04906a29.18972,29.18972,0,0,0-.64-7.06513l4.645,19.5263Z"/></g></g></svg>