<svg xmlns="http://www.w3.org/2000/svg" xmlns:xlink="http://www.w3.org/1999/xlink" viewBox="0 0 262 180"><defs><style>.ab5fc3e6-a427-4d58-a0ae-3bab056d8133{fill:none;}.a55e8357-508d-4987-b424-e86c4c6f3851{fill:#fff;}.fb0e26cb-2a3e-425c-8fa1-3f8d329ad428{fill:#6c6c6c;}.b8b992f1-7f87-4e72-8c06-51729e8c9aa0{clip-path:url(#a5008e21-d737-4aad-a6e7-875f905714a2);}.ada5390f-9b1f-4906-9b61-599ae26f6cc7{fill:#ed0000;}</style><clipPath id="a5008e21-d737-4aad-a6e7-875f905714a2"><circle class="ab5fc3e6-a427-4d58-a0ae-3bab056d8133" cx="55.62804" cy="87.03544" r="25.65823"/></clipPath></defs><g id="ae13c9a2-9cf5-4388-a037-e4ddf288bd65" data-name="Layer 3"><rect width="262" height="180"/><circle class="a55e8357-508d-4987-b424-e86c4c6f3851" cx="55.62804" cy="87.03544" r="25.65823"/><path class="a55e8357-508d-4987-b424-e86c4c6f3851" d="M91.40913,69.04626h5.83008a6.026,6.026,0,0,1,2.68261.55176,4.01085,4.01085,0,0,1,1.73047,1.57324,4.66674,4.66674,0,0,1,.60742,2.42969v.02051a4.56071,4.56071,0,0,1-.74316,2.59082,4.03319,4.03319,0,0,1-2.00977,1.5791l3.18848,5.86035H99.71968l-2.875-5.46582H94.02046v5.46582H91.40913Zm5.55762,7.0752a2.69692,2.69692,0,0,0,1.93261-.65332,2.39706,2.39706,0,0,0,.68848-1.82715v-.01953a2.33815,2.33815,0,0,0-.71875-1.80762,2.77091,2.77091,0,0,0-1.95313-.66211h-2.8955v4.96973Z"/><path class="a55e8357-508d-4987-b424-e86c4c6f3851" d="M105.7685,83.18591a4.48054,4.48054,0,0,1-1.77636-1.92285,6.56525,6.56525,0,0,1-.61719-2.94531V78.307a6.587,6.587,0,0,1,.62305-2.95019,4.68436,4.68436,0,0,1,1.751-1.959,4.96949,4.96949,0,0,1,2.667-.69824,5.03,5.03,0,0,1,2.64649.67383,4.45271,4.45271,0,0,1,1.7207,1.8877,6.30488,6.30488,0,0,1,.60254,2.834v.80957h-8.76562V77.224h7.56152l-1.21484,1.56933v-.97168a4.1623,4.1623,0,0,0-.32422-1.751,2.34319,2.34319,0,0,0-.89063-1.04786,2.44284,2.44284,0,0,0-1.30566-.34961,2.4819,2.4819,0,0,0-1.33106.35938,2.408,2.408,0,0,0-.91113,1.06836,4.06077,4.06077,0,0,0-.3291,1.7207v.97168a3.87475,3.87475,0,0,0,.3291,1.67481,2.42646,2.42646,0,0,0,.93652,1.06347,2.73036,2.73036,0,0,0,1.44727.36914,2.861,2.861,0,0,0,1.10352-.19726,2.3445,2.3445,0,0,0,.78417-.51172,1.75673,1.75673,0,0,0,.43067-.67773l.01953-.07129h2.34863l-.0205.11132a3.96046,3.96046,0,0,1-1.4375,2.27735,4.63493,4.63493,0,0,1-1.417.75488,5.774,5.774,0,0,1-1.8623.27832A5.3916,5.3916,0,0,1,105.7685,83.18591Z"/><path class="a55e8357-508d-4987-b424-e86c4c6f3851" d="M116.57124,83.19079a4.30372,4.30372,0,0,1-1.53809-1.92773,7.47138,7.47138,0,0,1-.542-2.97559v-.01074a7.40684,7.40684,0,0,1,.54687-2.98047,4.36375,4.36375,0,0,1,1.53809-1.92285,4.05993,4.05993,0,0,1,2.33887-.67383,3.70987,3.70987,0,0,1,2.01855.55176A3.53643,3.53643,0,0,1,122.2646,74.765h.06054V69.04626h2.51075V83.65173h-2.51075V81.82946h-.06054a3.51218,3.51218,0,0,1-1.31543,1.49317,3.721,3.721,0,0,1-2.02442.542A4.10292,4.10292,0,0,1,116.57124,83.19079Zm4.48926-1.86718a2.77135,2.77135,0,0,0,.93066-1.20411,4.62708,4.62708,0,0,0,.334-1.832v-.01074a4.52318,4.52318,0,0,0-.33886-1.82715,2.831,2.831,0,0,0-.93067-1.19922,2.29534,2.29534,0,0,0-1.37207-.4248,2.3556,2.3556,0,0,0-1.40136.41992,2.67081,2.67081,0,0,0-.91114,1.18945,4.79363,4.79363,0,0,0-.31933,1.8418v.01074a4.84217,4.84217,0,0,0,.31933,1.8418,2.65777,2.65777,0,0,0,.91114,1.19922,2.3556,2.3556,0,0,0,1.40136.41992A2.31648,2.31648,0,0,0,121.0605,81.32361Z"/><path class="a55e8357-508d-4987-b424-e86c4c6f3851" d="M131.374,69.04626h2.61133v6.07227h7.10645V69.04626h2.60058V83.65173h-2.60058V77.31579H133.9853v6.33594H131.374Z"/><path class="a55e8357-508d-4987-b424-e86c4c6f3851" d="M147.206,83.42419a3.0551,3.0551,0,0,1-1.26562-1.14355,3.16233,3.16233,0,0,1-.4502-1.68555v-.02051a2.71867,2.71867,0,0,1,1.06739-2.26172,5.30756,5.30756,0,0,1,3.01171-.94726l4.09961-.25293v1.6709l-3.74511.23242a2.56922,2.56922,0,0,0-1.42774.44531A1.232,1.232,0,0,0,148,80.48376v.00977a1.23358,1.23358,0,0,0,.501,1.03808,2.15108,2.15108,0,0,0,1.331.37891,2.81,2.81,0,0,0,1.30078-.293,2.34947,2.34947,0,0,0,.90625-.7998,2.03127,2.03127,0,0,0,.334-1.14356V76.45544a1.65672,1.65672,0,0,0-.51075-1.28027,2.09692,2.09692,0,0,0-1.47363-.47071,2.42231,2.42231,0,0,0-1.42676.37891,1.591,1.591,0,0,0-.668.97656l-.0205.0918h-2.32813l.01074-.12207a3.28379,3.28379,0,0,1,.6377-1.70508,3.74475,3.74475,0,0,1,1.543-1.18945,5.7802,5.7802,0,0,1,2.34375-.43555,5.63434,5.63434,0,0,1,2.333.44531A3.56746,3.56746,0,0,1,154.34175,74.39a3.2827,3.2827,0,0,1,.541,1.88281v7.37891H152.373V82.00232h-.06055a3.44351,3.44351,0,0,1-.79.97168,3.50842,3.50842,0,0,1-1.1084.63769,3.94592,3.94592,0,0,1-1.331.22266A4.11951,4.11951,0,0,1,147.206,83.42419Z"/><path class="a55e8357-508d-4987-b424-e86c4c6f3851" d="M158.22846,83.13513a3.06372,3.06372,0,0,1-.81445-2.38867V74.8656h-1.51855V72.92224H157.414V70.19958h2.56055v2.72266h1.99414V74.8656h-1.99414v5.67871a1.366,1.366,0,0,0,.34961,1.07812,1.54079,1.54079,0,0,0,1.02734.29883c.12793,0,.24121-.00586.33887-.01562s.19043-.01856.27832-.02539v1.89257q-.22266.03077-.542.06153c-.21192.01953-.4502.03027-.71289.03027A3.63416,3.63416,0,0,1,158.22846,83.13513Z"/><path class="a55e8357-508d-4987-b424-e86c4c6f3851" d="M163.73432,81.27282h2.43946l-1.47754,5.36524H162.9355Z"/><path class="a55e8357-508d-4987-b424-e86c4c6f3851" d="M172.77339,69.04626h2.61132V83.65173h-2.61132Z"/><path class="a55e8357-508d-4987-b424-e86c4c6f3851" d="M177.65913,72.92224h2.51074V74.6029h.06055a3.25412,3.25412,0,0,1,1.24023-1.38672,3.77663,3.77663,0,0,1,2.03906-.5166,3.49837,3.49837,0,0,1,2.73829,1.07324,4.22739,4.22739,0,0,1,.96679,2.93555v6.94336h-2.52051v-6.4375a2.6221,2.6221,0,0,0-.5371-1.7666,2.00754,2.00754,0,0,0-1.60938-.62207,2.349,2.349,0,0,0-1.25488.3291,2.21187,2.21187,0,0,0-.83008.91113,2.99034,2.99034,0,0,0-.293,1.36133v6.22461h-2.51074Z"/><path class="a55e8357-508d-4987-b424-e86c4c6f3851" d="M191.121,83.18591a4.553,4.553,0,0,1-1.79687-1.93262,6.53969,6.53969,0,0,1-.63281-2.97656V78.267a6.446,6.446,0,0,1,.63769-2.96093,4.59964,4.59964,0,0,1,1.79688-1.92774,5.28364,5.28364,0,0,1,2.71777-.67871,5.20341,5.20341,0,0,1,2.44922.542,4.25966,4.25966,0,0,1,1.61914,1.43164,4.07863,4.07863,0,0,1,.66894,1.96387v.07129h-2.36914l-.0205-.08105a2.43329,2.43329,0,0,0-.7334-1.33106,2.20641,2.20641,0,0,0-1.584-.55176,2.28648,2.28648,0,0,0-1.38183.43067,2.74718,2.74718,0,0,0-.916,1.21875,4.98585,4.98585,0,0,0-.32422,1.89355v.00977a4.95367,4.95367,0,0,0,.3291,1.90332,2.71513,2.71513,0,0,0,.9209,1.209,2.3268,2.3268,0,0,0,1.38184.41992,2.26285,2.26285,0,0,0,1.55371-.5205,2.39784,2.39784,0,0,0,.76465-1.36231l.02051-.09082h2.37792l-.00976.07129a4.16065,4.16065,0,0,1-.709,2.00391,4.289,4.289,0,0,1-1.6289,1.41211,5.16816,5.16816,0,0,1-2.37891.52148A5.37024,5.37024,0,0,1,191.121,83.18591Z"/><path class="a55e8357-508d-4987-b424-e86c4c6f3851" d="M200.249,83.389a1.47958,1.47958,0,1,1,1.042.4248A1.40847,1.40847,0,0,1,200.249,83.389Z"/><path class="fb0e26cb-2a3e-425c-8fa1-3f8d329ad428" d="M96.24311,108.25232a7.66284,7.66284,0,0,1-2.70312-1.625,7.27771,7.27771,0,0,1-1.78125-2.64649,9.61242,9.61242,0,0,1-.63281-3.6084v-.00976a9.3144,9.3144,0,0,1,.60742-3.43164,7.65712,7.65712,0,0,1,4.37793-4.40821,9.68846,9.68846,0,0,1,7.55566.32911,7.09551,7.09551,0,0,1,2.88477,2.67675,7.78132,7.78132,0,0,1,1.05273,4.11524v.00976a7.80465,7.80465,0,0,1-.44043,2.81348,3.81418,3.81418,0,0,1-1.19922,1.71094,2.74029,2.74029,0,0,1-1.70019.57715,2.34281,2.34281,0,0,1-1.57422-.53125,2.86515,2.86515,0,0,1-.876-1.291l-.03027-.09082h-.09082a2.64844,2.64844,0,0,1-1.09863,1.37109,3.46456,3.46456,0,0,1-3.5625-.08593,3.52668,3.52668,0,0,1-1.23536-1.498,5.35759,5.35759,0,0,1-.43945-2.24707v-.00977a5.00581,5.00581,0,0,1,.4502-2.18652,3.58072,3.58072,0,0,1,1.24511-1.47266,3.207,3.207,0,0,1,1.82715-.53125,2.93415,2.93415,0,0,1,1.48731.38965,2.21154,2.21154,0,0,1,.96191,1.03711h.08106V96.37439h1.52832v4.92871a2.6635,2.6635,0,0,0,.374,1.55957,1.15149,1.15149,0,0,0,.97168.51562,1.47166,1.47166,0,0,0,1.2959-.93066,6.11593,6.11593,0,0,0,.49609-2.78418v-.00977a6.53436,6.53436,0,0,0-.8457-3.39062,5.6937,5.6937,0,0,0-2.3584-2.20215,7.62448,7.62448,0,0,0-3.5166-.77344,6.845,6.845,0,0,0-2.68262.51563,6.26684,6.26684,0,0,0-2.126,1.46289,6.66157,6.66157,0,0,0-1.39648,2.24707,7.95554,7.95554,0,0,0-.49609,2.85937v.00977a7.49722,7.49722,0,0,0,.92089,3.8418,6.046,6.046,0,0,0,2.50586,2.38379,7.778,7.778,0,0,0,3.58789.80957,14.15843,14.15843,0,0,0,1.96387-.13184,5.5545,5.5545,0,0,0,1.4375-.35449V108.308a10.37208,10.37208,0,0,1-3.42187.49609A10.12492,10.12492,0,0,1,96.24311,108.25232Zm4.5293-5.78516a3.20465,3.20465,0,0,0,.61719-2.06445v-.00977a3.16306,3.16306,0,0,0-.61719-2.05469,2.00764,2.00764,0,0,0-1.63965-.75976,1.9808,1.9808,0,0,0-1.15918.334,2.11386,2.11386,0,0,0-.73926.96192,3.96114,3.96114,0,0,0-.25781,1.50781v.01074a4.02619,4.02619,0,0,0,.25781,1.52246,2.17658,2.17658,0,0,0,.73926.97754,1.90379,1.90379,0,0,0,1.13867.34375A2.01664,2.01664,0,0,0,100.77241,102.46716Z"/><path class="fb0e26cb-2a3e-425c-8fa1-3f8d329ad428" d="M109.66889,91.8197h5.47559a5.28424,5.28424,0,0,1,2.45508.541,3.94208,3.94208,0,0,1,1.624,1.51856,4.42234,4.42234,0,0,1,.57715,2.292v.02051a4.4327,4.4327,0,0,1-.78418,2.62695,4.07,4.07,0,0,1-2.15137,1.54395l3.38086,6.0625H118.1103l-3.12695-5.7793h-3.49219v5.7793h-1.82227Zm5.31446,7.2168a3.02106,3.02106,0,0,0,2.1709-.7295,2.73125,2.73125,0,0,0,.76367-2.07421v-.02051a2.62191,2.62191,0,0,0-.80469-2.04,3.16189,3.16189,0,0,0-2.21094-.7334h-3.41113V99.0365Z"/><path class="fb0e26cb-2a3e-425c-8fa1-3f8d329ad428" d="M123.25971,105.95935a4.35238,4.35238,0,0,1-1.66992-1.8877,6.58748,6.58748,0,0,1-.582-2.86914v-.01074a6.63279,6.63279,0,0,1,.58692-2.86914,4.59925,4.59925,0,0,1,1.64941-1.93359,4.90242,4.90242,0,0,1,4.97559-.03028,4.30619,4.30619,0,0,1,1.59375,1.85742,6.50357,6.50357,0,0,1,.55664,2.77344v.64746h-8.48243v-1.376H129.5l-.89063,1.27539v-.67871a4.83869,4.83869,0,0,0-.37011-2.02442,2.61854,2.61854,0,0,0-1.0166-1.18848,3.00947,3.00947,0,0,0-2.9961.01954,2.78859,2.78859,0,0,0-1.05273,1.21484,4.561,4.561,0,0,0-.38477,1.97852v.67871a4.35932,4.35932,0,0,0,.37891,1.90234,2.78464,2.78464,0,0,0,1.07812,1.21,3.13941,3.13941,0,0,0,1.65039.41992,3.31481,3.31481,0,0,0,1.19434-.20215,2.489,2.489,0,0,0,.88086-.55664,2.06409,2.06409,0,0,0,.50586-.80957l.03027-.09179h1.73047l-.01953.10156a3.4833,3.4833,0,0,1-.501,1.21484,3.91233,3.91233,0,0,1-.94726.99707,4.49952,4.49952,0,0,1-1.31543.668,5.20037,5.20037,0,0,1-1.59961.23731A4.86335,4.86335,0,0,1,123.25971,105.95935Z"/><path class="fb0e26cb-2a3e-425c-8fa1-3f8d329ad428" d="M133.68745,105.95446a4.40008,4.40008,0,0,1-1.56348-1.90332,6.95,6.95,0,0,1-.55664-2.88964v-.00977a6.858,6.858,0,0,1,.56153-2.88477,4.4538,4.4538,0,0,1,1.56347-1.89746,4.05526,4.05526,0,0,1,2.31836-.67382,3.81678,3.81678,0,0,1,1.99414.52636,3.70951,3.70951,0,0,1,1.376,1.4375h.041V91.8197h1.76075v14.60547h-1.76075v-1.78125h-.041a3.78881,3.78881,0,0,1-1.35059,1.45215,3.68968,3.68968,0,0,1-1.98926.53125A4.13307,4.13307,0,0,1,133.68745,105.95446Zm4.27637-1.37109a3.21683,3.21683,0,0,0,1.07812-1.36719,5.03774,5.03774,0,0,0,.38965-2.05468v-.00977a4.95562,4.95562,0,0,0-.39453-2.0498,3.28291,3.28291,0,0,0-1.07813-1.36133,2.6445,2.6445,0,0,0-1.57422-.48535,2.72846,2.72846,0,0,0-1.60937.47558,3.012,3.012,0,0,0-1.042,1.34571,5.35737,5.35737,0,0,0-.36426,2.07519v.00977a5.426,5.426,0,0,0,.36426,2.085,2.96641,2.96641,0,0,0,1.042,1.35156,2.7533,2.7533,0,0,0,1.60937.4707A2.67465,2.67465,0,0,0,137.96382,104.58337Z"/><path class="fb0e26cb-2a3e-425c-8fa1-3f8d329ad428" d="M143.747,91.8197h1.82226v6.31543h8.01661V91.8197h1.82129v14.60547h-1.82129V99.77478h-8.01661v6.65039H143.747Z"/><path class="fb0e26cb-2a3e-425c-8fa1-3f8d329ad428" d="M159.11811,106.23279a2.9486,2.9486,0,0,1-1.22949-1.11329,3.1302,3.1302,0,0,1-.44043-1.66992v-.02051a2.61644,2.61644,0,0,1,1.00195-2.15039,4.82844,4.82844,0,0,1,2.81348-.90625l3.89746-.22265V101.516l-3.69433.22265a2.92972,2.92972,0,0,0-1.63477.50586,1.41651,1.41651,0,0,0-.582,1.18457v.02051a1.4463,1.4463,0,0,0,.57129,1.2041,2.41528,2.41528,0,0,0,1.52344.44532,3.1591,3.1591,0,0,0,1.49316-.34864,2.7452,2.7452,0,0,0,1.05273-.957,2.47461,2.47461,0,0,0,.38965-1.36621V99.3197a1.95269,1.95269,0,0,0-.60254-1.51367,2.43587,2.43587,0,0,0-1.70507-.55078,2.77643,2.77643,0,0,0-1.63477.43945,1.84651,1.84651,0,0,0-.77441,1.14941l-.02051.09082h-1.7002l.00977-.11132a3.16015,3.16015,0,0,1,.59277-1.57911,3.54955,3.54955,0,0,1,1.41211-1.1289,5.64218,5.64218,0,0,1,4.28613.00586,3.26095,3.26095,0,0,1,1.40235,1.19922,3.31661,3.31661,0,0,1,.49609,1.82714v7.27735h-1.76172v-1.71094h-.04a3.3853,3.3853,0,0,1-.81054,1.00781,3.83792,3.83792,0,0,1-1.13868.668,3.78049,3.78049,0,0,1-1.34082.23731A4.03851,4.03851,0,0,1,159.11811,106.23279Z"/><path class="fb0e26cb-2a3e-425c-8fa1-3f8d329ad428" d="M169.35053,105.93884a2.92629,2.92629,0,0,1-.71777-2.19629V97.35583H167.0937v-1.457h1.53906V93.05407h1.82129V95.8988H172.458v1.457h-2.00391v6.377a1.42537,1.42537,0,0,0,.36426,1.13867,1.66007,1.66007,0,0,0,1.07324.29883,2.83694,2.83694,0,0,0,.30859-.01563c.09766-.00977.1836-.01855.25782-.02539V106.557c-.10743.01368-.24805.02832-.41993.04493a5.11983,5.11983,0,0,1-.5205.02539A3.02568,3.02568,0,0,1,169.35053,105.93884Z"/><path class="a55e8357-508d-4987-b424-e86c4c6f3851" d="M232.03018,76.52507a3.69338,3.69338,0,0,0-1.97093-3.305,3.827,3.827,0,0,0,.21873-1.284,3.58857,3.58857,0,0,0-3.5039-3.67,3.31,3.31,0,0,0-1.22624.22842,3.441,3.441,0,0,0-6.30808,0,3.31119,3.31119,0,0,0-1.22557-.22842,3.58808,3.58808,0,0,0-3.50384,3.67,3.842,3.842,0,0,0,.21806,1.284,3.75869,3.75869,0,0,0-.18854,6.50279,3.98,3.98,0,0,0-.02952.47213,3.5883,3.5883,0,0,0,3.50384,3.67,3.33734,3.33734,0,0,0,1.22557-.2278,3.4416,3.4416,0,0,0,6.30808,0,3.33611,3.33611,0,0,0,1.22624.2278,3.58878,3.58878,0,0,0,3.5039-3.67,3.9687,3.9687,0,0,0-.03086-.47213A3.70824,3.70824,0,0,0,232.03018,76.52507Zm-6.07176-3.06034L221.981,79.4299a.68823.68823,0,0,1-.95446.1909l-.10441-.086-2.21633-2.21633a.68822.68822,0,1,1,.97329-.97328l1.62241,1.62248,3.51152-5.26647a.68827.68827,0,0,1,1.14536.76357Z"/><g class="b8b992f1-7f87-4e72-8c06-51729e8c9aa0"><path class="ada5390f-9b1f-4906-9b61-599ae26f6cc7" d="M61.19539,75.92064a16.78339,16.78339,0,0,1,.58036,3.40662c0,4.71185-5.29215,7.321-12.2497,7.321-15.73013,0-29.50167-9.20529-29.50167-15.29413a6.19622,6.19622,0,0,1,.50732-2.46436c-5.65407.28995-12.97494,1.30443-12.97494,7.7556,0,10.58258,25.08,23.62985,44.94067,23.62985,15.2221,0,19.063-6.88561,19.063-12.322,0-4.27725-3.69634-9.13276-10.36506-12.03255M50.25032,79.7625c4.20473,0,10.29276-.87018,10.29276-5.87147a4.75392,4.75392,0,0,0-.10424-1.15072L57.9345,61.85881c-.58069-2.39193-1.08775-3.47948-5.29181-5.58168C49.38045,54.61038,42.2773,51.85607,40.175,51.85607c-1.957,0-2.53642,2.53644-4.85634,2.53644-2.24665,0-3.91392-1.88415-6.01594-1.88415-2.0291,0-3.33453,1.37683-4.34915,4.204,0,0-2.8272,7.97314-3.18957,9.13225a2.10163,2.10163,0,0,0-.07469.65311c0,3.09876,12.20394,13.26473,28.561,13.26473"/><path d="M61.19539,75.92064a16.78339,16.78339,0,0,1,.58036,3.40662c0,4.71185-5.29215,7.321-12.2497,7.321-15.73013,0-29.50167-9.20529-29.50167-15.29413a6.19622,6.19622,0,0,1,.50732-2.46436L21.764,65.84466a2.10163,2.10163,0,0,0-.07469.65311c0,3.09876,12.20394,13.26473,28.561,13.26473,4.20473,0,10.29276-.87018,10.29276-5.87147a4.75392,4.75392,0,0,0-.10424-1.15072l.75655,3.18033Z"/></g></g></svg>