<svg xmlns="http://www.w3.org/2000/svg" viewBox="0 0 262 180"><defs><style>.e61d7987-5244-442c-a3cb-ca9dc20245d1{fill:#fff;}.f7cfd083-ff14-4bff-acc8-50d98634cba1{fill:#6c6c6c;}.a5ce8036-1acc-49f4-ac25-2ab365f0ab30{fill:#ed0000;}</style></defs><g id="ebe19025-3bce-490c-a7c6-e575e109a8ba" data-name="Layer 3"><rect width="262" height="180"/><circle class="e61d7987-5244-442c-a3cb-ca9dc20245d1" cx="55.62804" cy="87.03544" r="25.65823"/><path class="e61d7987-5244-442c-a3cb-ca9dc20245d1" d="M91.40939,69.04626h5.83008a6.02607,6.02607,0,0,1,2.68262.55176,4.01088,4.01088,0,0,1,1.73046,1.57324A4.66674,4.66674,0,0,1,102.26,73.601v.02051a4.56072,4.56072,0,0,1-.74317,2.59082,4.03317,4.03317,0,0,1-2.00976,1.5791l3.18847,5.86035H99.71994l-2.875-5.46582H94.02072v5.46582H91.40939Zm5.55762,7.0752a2.69692,2.69692,0,0,0,1.93261-.65332A2.39706,2.39706,0,0,0,99.5881,73.641v-.01953a2.33815,2.33815,0,0,0-.71875-1.80762,2.7709,2.7709,0,0,0-1.95312-.66211H94.02072v4.96973Z"/><path class="e61d7987-5244-442c-a3cb-ca9dc20245d1" d="M105.76876,83.18591a4.48054,4.48054,0,0,1-1.77636-1.92285,6.56525,6.56525,0,0,1-.61719-2.94531V78.307a6.587,6.587,0,0,1,.62305-2.95019,4.68443,4.68443,0,0,1,1.751-1.959,4.9695,4.9695,0,0,1,2.667-.69824,5.03,5.03,0,0,1,2.64648.67383,4.45264,4.45264,0,0,1,1.7207,1.8877,6.30488,6.30488,0,0,1,.60254,2.834v.80957h-8.76562V77.224h7.56152L110.967,78.79333v-.97168a4.1623,4.1623,0,0,0-.32422-1.751,2.34319,2.34319,0,0,0-.89063-1.04786,2.44284,2.44284,0,0,0-1.30566-.34961,2.4819,2.4819,0,0,0-1.33106.35938,2.408,2.408,0,0,0-.91113,1.06836,4.06092,4.06092,0,0,0-.3291,1.7207v.97168a3.8749,3.8749,0,0,0,.3291,1.67481,2.42642,2.42642,0,0,0,.93653,1.06347,2.7303,2.7303,0,0,0,1.44726.36914,2.861,2.861,0,0,0,1.10352-.19726,2.34464,2.34464,0,0,0,.78418-.51172,1.7567,1.7567,0,0,0,.43066-.67773l.01953-.07129h2.34863l-.0205.11132a3.96046,3.96046,0,0,1-1.4375,2.27735,4.63482,4.63482,0,0,1-1.417.75488,5.774,5.774,0,0,1-1.8623.27832A5.3916,5.3916,0,0,1,105.76876,83.18591Z"/><path class="e61d7987-5244-442c-a3cb-ca9dc20245d1" d="M116.5715,83.19079a4.30372,4.30372,0,0,1-1.53809-1.92773,7.47155,7.47155,0,0,1-.542-2.97559v-.01074a7.40666,7.40666,0,0,1,.54688-2.98047,4.36366,4.36366,0,0,1,1.53808-1.92285,4.05993,4.05993,0,0,1,2.33887-.67383,3.70984,3.70984,0,0,1,2.01855.55176,3.53643,3.53643,0,0,1,1.33106,1.51367h.06055V69.04626h2.51074V83.65173h-2.51074V81.82946h-.06055a3.51218,3.51218,0,0,1-1.31543,1.49317,3.72093,3.72093,0,0,1-2.02442.542A4.10292,4.10292,0,0,1,116.5715,83.19079Zm4.48926-1.86718a2.77135,2.77135,0,0,0,.93066-1.20411,4.62708,4.62708,0,0,0,.334-1.832v-.01074a4.52318,4.52318,0,0,0-.33887-1.82715,2.83088,2.83088,0,0,0-.93067-1.19922,2.29532,2.29532,0,0,0-1.37207-.4248,2.3556,2.3556,0,0,0-1.40136.41992,2.67088,2.67088,0,0,0-.91114,1.18945,4.79363,4.79363,0,0,0-.31933,1.8418v.01074a4.84217,4.84217,0,0,0,.31933,1.8418,2.65784,2.65784,0,0,0,.91114,1.19922,2.3556,2.3556,0,0,0,1.40136.41992A2.31646,2.31646,0,0,0,121.06076,81.32361Z"/><path class="e61d7987-5244-442c-a3cb-ca9dc20245d1" d="M131.37423,69.04626h2.61133v6.07227H141.092V69.04626h2.60058V83.65173H141.092V77.31579h-7.10645v6.33594h-2.61133Z"/><path class="e61d7987-5244-442c-a3cb-ca9dc20245d1" d="M147.20626,83.42419a3.0551,3.0551,0,0,1-1.26562-1.14355,3.16242,3.16242,0,0,1-.4502-1.68555v-.02051a2.71867,2.71867,0,0,1,1.06739-2.26172,5.30757,5.30757,0,0,1,3.01172-.94726l4.09961-.25293v1.6709L149.924,79.016a2.56922,2.56922,0,0,0-1.42774.44531,1.23207,1.23207,0,0,0-.49609,1.02246v.00977a1.23358,1.23358,0,0,0,.501,1.03808,2.15108,2.15108,0,0,0,1.33105.37891,2.81,2.81,0,0,0,1.30078-.293,2.34947,2.34947,0,0,0,.90625-.7998,2.03127,2.03127,0,0,0,.334-1.14356V76.45544a1.65672,1.65672,0,0,0-.51075-1.28027,2.09692,2.09692,0,0,0-1.47363-.47071,2.42233,2.42233,0,0,0-1.42676.37891,1.591,1.591,0,0,0-.668.97656l-.02051.0918h-2.32813l.01074-.12207a3.28388,3.28388,0,0,1,.6377-1.70508,3.74475,3.74475,0,0,1,1.543-1.18945,5.7802,5.7802,0,0,1,2.34375-.43555,5.63434,5.63434,0,0,1,2.333.44531A3.56746,3.56746,0,0,1,154.342,74.39a3.2827,3.2827,0,0,1,.541,1.88281v7.37891h-2.50976V82.00232h-.06055a3.44333,3.44333,0,0,1-.79.97168,3.50842,3.50842,0,0,1-1.1084.63769,3.94592,3.94592,0,0,1-1.331.22266A4.11951,4.11951,0,0,1,147.20626,83.42419Z"/><path class="e61d7987-5244-442c-a3cb-ca9dc20245d1" d="M158.22873,83.13513a3.06368,3.06368,0,0,1-.81446-2.38867V74.8656h-1.51855V72.92224h1.51855V70.19958h2.56055v2.72266H161.969V74.8656h-1.99414v5.67871a1.366,1.366,0,0,0,.34961,1.07812,1.54079,1.54079,0,0,0,1.02734.29883c.12793,0,.24121-.00586.33887-.01562s.19043-.01856.27832-.02539v1.89257q-.22266.03077-.542.06153c-.21192.01953-.4502.03027-.71289.03027A3.63412,3.63412,0,0,1,158.22873,83.13513Z"/><path class="e61d7987-5244-442c-a3cb-ca9dc20245d1" d="M163.73459,81.27282H166.174l-1.47754,5.36524h-1.76074Z"/><path class="e61d7987-5244-442c-a3cb-ca9dc20245d1" d="M172.77365,69.04626H175.385V83.65173h-2.61133Z"/><path class="e61d7987-5244-442c-a3cb-ca9dc20245d1" d="M177.65939,72.92224h2.51074V74.6029h.06055a3.25418,3.25418,0,0,1,1.24023-1.38672,3.77667,3.77667,0,0,1,2.03907-.5166,3.49835,3.49835,0,0,1,2.73828,1.07324,4.22739,4.22739,0,0,1,.96679,2.93555v6.94336h-2.5205v-6.4375a2.622,2.622,0,0,0-.53711-1.7666,2.00754,2.00754,0,0,0-1.60938-.62207,2.349,2.349,0,0,0-1.25488.3291,2.21187,2.21187,0,0,0-.83008.91113,2.99034,2.99034,0,0,0-.293,1.36133v6.22461h-2.51074Z"/><path class="e61d7987-5244-442c-a3cb-ca9dc20245d1" d="M191.1213,83.18591a4.553,4.553,0,0,1-1.79687-1.93262,6.53969,6.53969,0,0,1-.63281-2.97656V78.267a6.446,6.446,0,0,1,.63769-2.96093,4.5997,4.5997,0,0,1,1.79688-1.92774,5.28364,5.28364,0,0,1,2.71777-.67871,5.20338,5.20338,0,0,1,2.44922.542,4.25959,4.25959,0,0,1,1.61914,1.43164,4.07863,4.07863,0,0,1,.66894,1.96387v.07129h-2.36914l-.0205-.08105a2.43329,2.43329,0,0,0-.7334-1.33106,2.20641,2.20641,0,0,0-1.584-.55176,2.28648,2.28648,0,0,0-1.38183.43067,2.74718,2.74718,0,0,0-.916,1.21875,4.98585,4.98585,0,0,0-.32422,1.89355v.00977a4.95367,4.95367,0,0,0,.3291,1.90332,2.71513,2.71513,0,0,0,.9209,1.209,2.3268,2.3268,0,0,0,1.38184.41992,2.26285,2.26285,0,0,0,1.55371-.5205,2.39784,2.39784,0,0,0,.76465-1.36231l.02051-.09082h2.37793l-.00977.07129a4.16074,4.16074,0,0,1-.709,2.00391,4.2891,4.2891,0,0,1-1.62891,1.41211,5.16816,5.16816,0,0,1-2.37891.52148A5.37024,5.37024,0,0,1,191.1213,83.18591Z"/><path class="e61d7987-5244-442c-a3cb-ca9dc20245d1" d="M200.24923,83.389a1.47958,1.47958,0,1,1,1.042.4248A1.40847,1.40847,0,0,1,200.24923,83.389Z"/><path class="f7cfd083-ff14-4bff-acc8-50d98634cba1" d="M96.24337,108.25232a7.66284,7.66284,0,0,1-2.70312-1.625,7.27771,7.27771,0,0,1-1.78125-2.64649,9.61242,9.61242,0,0,1-.63281-3.6084v-.00976a9.3146,9.3146,0,0,1,.60742-3.43164,7.65712,7.65712,0,0,1,4.37793-4.40821,9.68846,9.68846,0,0,1,7.55566.32911,7.09551,7.09551,0,0,1,2.88477,2.67675,7.78132,7.78132,0,0,1,1.05273,4.11524v.00976a7.80465,7.80465,0,0,1-.44043,2.81348,3.81418,3.81418,0,0,1-1.19922,1.71094,2.74029,2.74029,0,0,1-1.70019.57715,2.34281,2.34281,0,0,1-1.57422-.53125,2.86515,2.86515,0,0,1-.876-1.291l-.03027-.09082h-.09082a2.64844,2.64844,0,0,1-1.09863,1.37109,3.46456,3.46456,0,0,1-3.5625-.08593,3.52658,3.52658,0,0,1-1.23535-1.498,5.35744,5.35744,0,0,1-.43946-2.24707v-.00977a5.006,5.006,0,0,1,.4502-2.18652,3.58072,3.58072,0,0,1,1.24511-1.47266,3.207,3.207,0,0,1,1.82715-.53125,2.93412,2.93412,0,0,1,1.48731.38965,2.21149,2.21149,0,0,1,.96191,1.03711h.08106V96.37439h1.52832v4.92871a2.6635,2.6635,0,0,0,.374,1.55957,1.15149,1.15149,0,0,0,.97168.51562,1.47166,1.47166,0,0,0,1.2959-.93066,6.11593,6.11593,0,0,0,.49609-2.78418v-.00977a6.53427,6.53427,0,0,0-.8457-3.39062,5.6937,5.6937,0,0,0-2.3584-2.20215,7.62448,7.62448,0,0,0-3.5166-.77344,6.845,6.845,0,0,0-2.68262.51563,6.2668,6.2668,0,0,0-2.126,1.46289,6.66159,6.66159,0,0,0-1.39649,2.24707,7.95576,7.95576,0,0,0-.49609,2.85937v.00977a7.49712,7.49712,0,0,0,.9209,3.8418,6.04588,6.04588,0,0,0,2.50585,2.38379,7.77806,7.77806,0,0,0,3.5879.80957,14.15828,14.15828,0,0,0,1.96386-.13184,5.55439,5.55439,0,0,0,1.4375-.35449V108.308a10.372,10.372,0,0,1-3.42187.49609A10.12492,10.12492,0,0,1,96.24337,108.25232Zm4.5293-5.78516a3.20465,3.20465,0,0,0,.61719-2.06445v-.00977a3.16306,3.16306,0,0,0-.61719-2.05469,2.00764,2.00764,0,0,0-1.63965-.75976,1.98082,1.98082,0,0,0-1.15918.334,2.11378,2.11378,0,0,0-.73925.96192,3.96094,3.96094,0,0,0-.25782,1.50781v.01074a4.026,4.026,0,0,0,.25782,1.52246,2.1765,2.1765,0,0,0,.73925.97754,1.90381,1.90381,0,0,0,1.13867.34375A2.01664,2.01664,0,0,0,100.77267,102.46716Z"/><path class="f7cfd083-ff14-4bff-acc8-50d98634cba1" d="M109.66916,91.8197h5.47558a5.28424,5.28424,0,0,1,2.45508.541,3.94208,3.94208,0,0,1,1.624,1.51856,4.42234,4.42234,0,0,1,.57715,2.292v.02051a4.4327,4.4327,0,0,1-.78418,2.62695,4.07,4.07,0,0,1-2.15137,1.54395l3.38086,6.0625h-2.13574l-3.127-5.7793h-3.49219v5.7793h-1.82226Zm5.31445,7.2168a3.02106,3.02106,0,0,0,2.1709-.7295,2.73121,2.73121,0,0,0,.76367-2.07421v-.02051a2.62191,2.62191,0,0,0-.80469-2.04,3.16189,3.16189,0,0,0-2.21094-.7334h-3.41113V99.0365Z"/><path class="f7cfd083-ff14-4bff-acc8-50d98634cba1" d="M123.26,105.95935a4.35234,4.35234,0,0,1-1.66993-1.8877,6.58748,6.58748,0,0,1-.582-2.86914v-.01074a6.63293,6.63293,0,0,1,.58692-2.86914,4.59925,4.59925,0,0,1,1.64941-1.93359,4.90242,4.90242,0,0,1,4.97559-.03028,4.30619,4.30619,0,0,1,1.59375,1.85742,6.50357,6.50357,0,0,1,.55664,2.77344v.64746h-8.48242v-1.376h7.6123l-.89062,1.27539v-.67871a4.83868,4.83868,0,0,0-.37012-2.02442,2.61854,2.61854,0,0,0-1.0166-1.18848,3.00947,3.00947,0,0,0-2.9961.01954,2.78859,2.78859,0,0,0-1.05273,1.21484,4.561,4.561,0,0,0-.38477,1.97852v.67871a4.35932,4.35932,0,0,0,.37891,1.90234,2.7847,2.7847,0,0,0,1.07812,1.21,3.13941,3.13941,0,0,0,1.65039.41992,3.31481,3.31481,0,0,0,1.19434-.20215,2.489,2.489,0,0,0,.88086-.55664,2.06409,2.06409,0,0,0,.50586-.80957l.03027-.09179h1.73047l-.01953.10156a3.4833,3.4833,0,0,1-.501,1.21484,3.91233,3.91233,0,0,1-.94726.99707,4.4994,4.4994,0,0,1-1.31543.668,5.20037,5.20037,0,0,1-1.59961.23731A4.86334,4.86334,0,0,1,123.26,105.95935Z"/><path class="f7cfd083-ff14-4bff-acc8-50d98634cba1" d="M133.68771,105.95446a4.40015,4.40015,0,0,1-1.56348-1.90332,6.95,6.95,0,0,1-.55664-2.88964v-.00977a6.858,6.858,0,0,1,.56153-2.88477,4.4538,4.4538,0,0,1,1.56347-1.89746,4.05526,4.05526,0,0,1,2.31836-.67382,3.81678,3.81678,0,0,1,1.99414.52636,3.70951,3.70951,0,0,1,1.376,1.4375h.041V91.8197h1.76074v14.60547h-1.76074v-1.78125h-.041a3.78881,3.78881,0,0,1-1.35059,1.45215,3.68964,3.68964,0,0,1-1.98925.53125A4.1331,4.1331,0,0,1,133.68771,105.95446Zm4.27637-1.37109a3.21683,3.21683,0,0,0,1.07812-1.36719,5.03774,5.03774,0,0,0,.38965-2.05468v-.00977a4.95562,4.95562,0,0,0-.39453-2.0498,3.28291,3.28291,0,0,0-1.07813-1.36133,2.64447,2.64447,0,0,0-1.57421-.48535,2.72847,2.72847,0,0,0-1.60938.47558,3.012,3.012,0,0,0-1.042,1.34571,5.35737,5.35737,0,0,0-.36426,2.07519v.00977a5.426,5.426,0,0,0,.36426,2.085,2.96647,2.96647,0,0,0,1.042,1.35156,2.75331,2.75331,0,0,0,1.60938.4707A2.67462,2.67462,0,0,0,137.96408,104.58337Z"/><path class="f7cfd083-ff14-4bff-acc8-50d98634cba1" d="M143.74728,91.8197h1.82227v6.31543h8.0166V91.8197h1.82129v14.60547h-1.82129V99.77478h-8.0166v6.65039h-1.82227Z"/><path class="f7cfd083-ff14-4bff-acc8-50d98634cba1" d="M159.11837,106.23279a2.9486,2.9486,0,0,1-1.22949-1.11329,3.1302,3.1302,0,0,1-.44043-1.66992v-.02051a2.61642,2.61642,0,0,1,1.002-2.15039,4.82838,4.82838,0,0,1,2.81347-.90625l3.89746-.22265V101.516l-3.69433.22265a2.92972,2.92972,0,0,0-1.63477.50586,1.41651,1.41651,0,0,0-.582,1.18457v.02051a1.4463,1.4463,0,0,0,.57129,1.2041,2.4153,2.4153,0,0,0,1.52344.44532,3.1591,3.1591,0,0,0,1.49316-.34864,2.7453,2.7453,0,0,0,1.05274-.957,2.47469,2.47469,0,0,0,.38964-1.36621V99.3197a1.95269,1.95269,0,0,0-.60254-1.51367,2.43587,2.43587,0,0,0-1.70507-.55078,2.77643,2.77643,0,0,0-1.63477.43945,1.84651,1.84651,0,0,0-.77441,1.14941l-.02051.09082H157.843l.00977-.11132a3.16015,3.16015,0,0,1,.59277-1.57911,3.54962,3.54962,0,0,1,1.41211-1.1289,5.64218,5.64218,0,0,1,4.28613.00586,3.26095,3.26095,0,0,1,1.40235,1.19922,3.31661,3.31661,0,0,1,.49609,1.82714v7.27735h-1.76172v-1.71094h-.04a3.3853,3.3853,0,0,1-.81054,1.00781,3.838,3.838,0,0,1-1.13867.668,3.78057,3.78057,0,0,1-1.34082.23731A4.03852,4.03852,0,0,1,159.11837,106.23279Z"/><path class="f7cfd083-ff14-4bff-acc8-50d98634cba1" d="M169.3508,105.93884a2.92625,2.92625,0,0,1-.71778-2.19629V97.35583H167.094v-1.457H168.633V93.05407h1.82129V95.8988h2.00391v1.457h-2.00391v6.377a1.42537,1.42537,0,0,0,.36426,1.13867,1.66009,1.66009,0,0,0,1.07324.29883,2.83725,2.83725,0,0,0,.3086-.01563c.09765-.00977.18359-.01855.25781-.02539V106.557c-.10742.01368-.24805.02832-.41992.04493a5.12017,5.12017,0,0,1-.52051.02539A3.02564,3.02564,0,0,1,169.3508,105.93884Z"/><path class="e61d7987-5244-442c-a3cb-ca9dc20245d1" d="M232.03018,76.52507a3.69338,3.69338,0,0,0-1.97093-3.305,3.827,3.827,0,0,0,.21873-1.284,3.58857,3.58857,0,0,0-3.5039-3.67,3.31,3.31,0,0,0-1.22624.22842,3.441,3.441,0,0,0-6.30808,0,3.31119,3.31119,0,0,0-1.22557-.22842,3.58808,3.58808,0,0,0-3.50384,3.67,3.842,3.842,0,0,0,.21806,1.284,3.75869,3.75869,0,0,0-.18854,6.50279,3.98,3.98,0,0,0-.02952.47213,3.5883,3.5883,0,0,0,3.50384,3.67,3.33734,3.33734,0,0,0,1.22557-.2278,3.4416,3.4416,0,0,0,6.30808,0,3.33611,3.33611,0,0,0,1.22624.2278,3.58878,3.58878,0,0,0,3.5039-3.67,3.9687,3.9687,0,0,0-.03086-.47213A3.70824,3.70824,0,0,0,232.03018,76.52507Zm-6.07176-3.06034L221.981,79.4299a.68823.68823,0,0,1-.95446.1909l-.10441-.086-2.21633-2.21633a.68822.68822,0,1,1,.97329-.97328l1.62241,1.62248,3.51152-5.26647a.68827.68827,0,0,1,1.14536.76357Z"/><path class="a5ce8036-1acc-49f4-ac25-2ab365f0ab30" d="M43.13516,85.94487c-3.68854,1.60391-5.733,4.28954-5.733,6.65532,0,3.00693,2.12445,6.81543,10.54394,6.81543,10.98511,0,24.85713-7.21658,24.85713-13.0699,0-3.56821-4.04924-4.12933-7.17656-4.2897a3.42723,3.42723,0,0,1,.2806,1.36306c0,3.36779-7.61717,8.45933-16.31766,8.45933-3.8483,0-6.77543-1.44313-6.77543-4.0493a9.28327,9.28327,0,0,1,.321-1.88424m6.05383,2.125c9.04723,0,15.79735-5.6229,15.79735-7.33685a1.16259,1.16259,0,0,0-.04131-.36124c-.20043-.64112-1.76418-5.05114-1.76418-5.05114-.5612-1.56376-1.28325-2.3253-2.40557-2.3253-1.16264,0-2.08483,1.04214-3.32747,1.04214-1.28317,0-1.60363-1.40293-2.68609-1.40293-1.16278,0-5.0916,1.52344-6.896,2.44534-2.3253,1.16274-2.60576,1.76428-2.927,3.08728L43.55361,84.1858a2.62971,2.62971,0,0,0-.05765.63648c0,2.76626,3.36735,3.24756,5.693,3.24756"/><path d="M43.13516,85.94487a9.28327,9.28327,0,0,0-.321,1.88424c0,2.60617,2.92713,4.0493,6.77543,4.0493,8.70049,0,16.31766-5.09154,16.31766-8.45933a3.42723,3.42723,0,0,0-.2806-1.36306L64.945,80.37175a1.16259,1.16259,0,0,1,.04131.36124c0,1.71395-6.75012,7.33685-15.79735,7.33685-2.32568,0-5.693-.4813-5.693-3.24756a2.62971,2.62971,0,0,1,.05765-.63648l-.41845,1.75907Z"/></g></svg>