<svg xmlns="http://www.w3.org/2000/svg" width="560" height="290" viewBox="0 0 560 290"><defs><style>.a{fill:#f3f3f3;}.b,.e,.f,.g{fill:none;stroke:#06c;}.b{stroke-miterlimit:10;stroke-width:34.075px;}.b,.c{opacity:0.15;}.c{fill:#06c;}.d{fill:#e00;}.e,.f,.g{stroke-linecap:round;stroke-linejoin:round;stroke-width:0.65909px;}.f{stroke-dasharray:3.51805 3.51805;}.g{stroke-dasharray:3.48246 3.48246;}</style></defs><rect class="a" width="560" height="290"/><polyline class="b" points="82.314 68.369 82.314 204.596 477.756 204.596 477.756 85.404 99.193 85.404"/><path class="c" d="M99.158,151.532c0-10.44454-7.0251-17.9668-16.59863-17.9668a16.89234,16.89234,0,0,0-17.159,17.03421c0,9.574,7.83322,17.03421,17.9045,17.03421a19.73451,19.73451,0,0,0,13.73927-4.97327l-6.65152-5.9062a8.90873,8.90873,0,0,1-6.59,2.48663,8.49846,8.49846,0,0,1-8.08207-5.22212H99.158ZM75.5337,146.99369a6.84967,6.84967,0,0,1,6.8389-5.22244,7.27348,7.27348,0,0,1,6.90039,5.22244Z"/><path class="c" d="M304.83472,205.52892c0-10.44454-7.0251-17.9668-16.59862-17.9668A16.89234,16.89234,0,0,0,271.077,204.59633c0,9.574,7.83323,17.03422,17.9045,17.03422a19.7345,19.7345,0,0,0,13.73927-4.97328l-6.65152-5.9062a8.90871,8.90871,0,0,1-6.59,2.48663,8.49846,8.49846,0,0,1-8.08207-5.22212h23.43752Zm-23.62434-4.53828a6.84967,6.84967,0,0,1,6.8389-5.22244,7.27348,7.27348,0,0,1,6.90039,5.22244Z"/><path class="c" d="M304.83472,86.33627c0-10.44454-7.0251-17.9668-16.59862-17.9668A16.89234,16.89234,0,0,0,271.077,85.40368c0,9.574,7.83323,17.03422,17.9045,17.03422a19.7345,19.7345,0,0,0,13.73927-4.97328l-6.65152-5.9062a8.90871,8.90871,0,0,1-6.59,2.48663,8.49846,8.49846,0,0,1-8.08207-5.22212h23.43752ZM281.21038,81.798a6.84967,6.84967,0,0,1,6.8389-5.22244,7.27348,7.27348,0,0,1,6.90039,5.22244Z"/><path class="d" d="M193.45853,144.7451c1.02031,4.84233,1.02031,5.35207,1.02031,5.98909,0,8.28376-9.304,12.87078-21.53583,12.87078-27.65467,0-51.866-16.18355-51.866-26.88816a10.89348,10.89348,0,0,1,.8919-4.33251c-9.94024.50974-22.81086,2.29327-22.81086,13.63489,0,18.6049,44.0925,41.54293,79.00888,41.54293,26.76151,0,33.51411-12.10539,33.51411-21.66295,0-7.5197-6.49841-16.056-18.2225-21.15407m-19.24221,6.75426c7.39222,0,18.0954-1.52982,18.0954-10.32244a8.35808,8.35808,0,0,0-.18325-2.02306l-4.40281-19.13044c-1.0209-4.20518-1.91234-6.11717-9.30337-9.813-5.73525-2.93026-18.22309-7.77253-21.919-7.77253-3.44061,0-4.4592,4.45924-8.53777,4.45924-3.94977,0-6.88095-3.31247-10.57645-3.31247-3.5673,0-5.86234,2.42056-7.64612,7.391,0,0-4.97042,14.01734-5.60749,16.05514a3.695,3.695,0,0,0-.1313,1.14822c0,5.44783,21.45539,23.32032,50.21218,23.32032"/><path d="M193.45853,144.7451c1.02031,4.84233,1.02031,5.35207,1.02031,5.98909,0,8.28376-9.304,12.87078-21.53583,12.87078-27.65467,0-51.866-16.18355-51.866-26.88816a10.89348,10.89348,0,0,1,.8919-4.33251l2.16654-5.35348a3.695,3.695,0,0,0-.1313,1.14822c0,5.44783,21.45539,23.32032,50.21218,23.32032,7.39222,0,18.0954-1.52982,18.0954-10.32244a8.35808,8.35808,0,0,0-.18325-2.02306l1.33006,5.59124Z"/><path d="M232.47085,167.01171h10.69254V151.1588h8.14474l8.20621,15.85291h11.93632l-9.57412-17.407a13.167,13.167,0,0,0,8.2068-12.24742c0-7.83321-6.155-13.86379-15.35605-13.86379H232.47085v43.51817Zm21.26154-34.3792c3.5439,0,5.53308,2.23812,5.53308,4.91126,0,2.67345-1.98918,4.91155-5.53308,4.91155h-10.569v-9.82281ZM271.077,150.59939c0,9.574,7.83321,17.0342,17.90448,17.0342a19.73455,19.73455,0,0,0,13.73927-4.97326l-6.6515-5.90621a8.9088,8.9088,0,0,1-6.59,2.48664,8.49848,8.49848,0,0,1-8.08207-5.22214h23.43754V151.532c0-10.44456-7.02511-17.96681-16.59864-17.96681a16.89233,16.89233,0,0,0-17.159,17.03422m16.97224-8.82814a7.27348,7.27348,0,0,1,6.90038,5.22243H281.21037a6.84966,6.84966,0,0,1,6.83891-5.22243m45.63132,25.24046h9.94712v-45.694l-10.07125,2.17581v12.37181a16.94673,16.94673,0,1,0-8.704,31.582,14.83225,14.83225,0,0,0,8.82809-2.85991v2.42426Zm-15.72847-16.47436a8.32743,8.32743,0,0,1,8.64128-8.33084,10.19041,10.19041,0,0,1,6.96306,2.549v11.5013a9.6757,9.6757,0,0,1-6.96306,2.611,8.36456,8.36456,0,0,1-8.64128-8.3305m40.74612,16.47436H369.392V149.97764h17.90446v17.03407h10.69313V123.49354H387.29645v16.72368H369.392V123.49354H358.69825v43.51817Zm54.64682.55981a15.38942,15.38942,0,0,0,9.07695-2.549v1.98918h9.9471v-21.075c0-8.01967-5.40891-12.43386-14.42322-12.43386a36.59832,36.59832,0,0,0-15.356,3.606l3.60594,7.39788c3.85425-1.61634,7.08719-2.61106,9.94714-2.61106,4.16515,0,6.27909,1.61644,6.27909,4.91155v1.61643a29.19668,29.19668,0,0,0-7.46018-.93259c-8.45515,0-13.55308,3.54365-13.55308,9.88481,0,5.78166,4.60024,10.1957,11.93631,10.1957m-3.07278-10.38214c0-2.17605,2.176-3.23278,5.471-3.23278a25.2847,25.2847,0,0,1,5.96816.74587v4.22769a12.71163,12.71163,0,0,1-6.2791,1.55406c-3.23291,0-5.16007-1.24346-5.16007-3.29484m31.29671-.18645c0,7.02472,4.22847,10.44443,11.937,10.44443a30.89055,30.89055,0,0,0,7.02567-.99488v-8.144a14.63476,14.63476,0,0,1-4.5388.68378c-3.17081,0-4.35136-.99466-4.35136-3.97891V142.51739H460.842v-8.39288h-9.20049v-10.631L441.569,125.6696v8.45491h-6.65206v8.39288H441.569v14.48554Z"/><line class="e" x1="65.40035" y1="133.56517" x2="67.15797" y2="133.56517"/><line class="f" x1="70.67598" y1="133.56517" x2="491.08304" y2="133.56517"/><line class="e" x1="492.84206" y1="133.56517" x2="494.59964" y2="133.56517"/><line class="e" x1="271.45067" y1="68.36943" x2="271.45067" y2="70.12706"/><line class="g" x1="271.45067" y1="73.60948" x2="271.45067" y2="218.13176"/><line class="e" x1="271.45067" y1="219.87297" x2="271.45067" y2="221.63054"/><line class="e" x1="65.40035" y1="167.63359" x2="67.15797" y2="167.63359"/><line class="f" x1="70.67598" y1="167.63359" x2="491.08304" y2="167.63359"/><line class="e" x1="492.84206" y1="167.63359" x2="494.59964" y2="167.63359"/><line class="e" x1="304.83473" y1="68.36943" x2="304.83473" y2="70.12706"/><line class="g" x1="304.83473" y1="73.60948" x2="304.83473" y2="218.13176"/><line class="e" x1="304.83473" y1="219.87297" x2="304.83473" y2="221.63054"/></svg>