<svg id="ba6d3d3e-9d1c-42a6-a68e-37f93f068045" data-name="Layer 1" xmlns="http://www.w3.org/2000/svg" viewBox="0 0 262 180"><defs><style>.b583f1c1-3248-4486-9d5f-fe9db205f744{fill:#e00;}.af28f5f6-7de4-45c5-8542-01a072bb2552{fill:none;}</style></defs><path class="b583f1c1-3248-4486-9d5f-fe9db205f744" d="M160.51,88.67v-.06a25.34,25.34,0,0,0-48-11.31,19.79,19.79,0,1,0-2.32,39.44h48.61a1.73,1.73,0,0,0,.72-.16,14.2,14.2,0,0,0,1-27.91Zm-3.12,24.59H110.17a16.32,16.32,0,0,1,0-32.64,15.93,15.93,0,0,1,3,.3,1.72,1.72,0,0,0,1.91-1A21.88,21.88,0,0,1,157,88.61c0,.37,0,.73,0,1.1l0,.31a1.74,1.74,0,0,0,1.55,1.84,10.73,10.73,0,0,1-1.13,21.4Z"/><rect class="af28f5f6-7de4-45c5-8542-01a072bb2552" x="81" y="40" width="100" height="100"/></svg>