<svg id="e0b6a8f8-30a7-4389-a590-b9b3ad20e9c0" data-name="Layer 1" xmlns="http://www.w3.org/2000/svg" xmlns:xlink="http://www.w3.org/1999/xlink" viewBox="0 0 262 180"><defs><style>.a8cafefe-67f8-4afc-84b2-d70ca1ba27ba,.aa8d7de4-7f76-46e4-81c1-97d762faea37,.b8071ed0-4d7b-40e6-82ec-e57ffa65d0f5,.ba601382-57d7-449b-badc-4407dee7e58a{fill:none;}.b3d72ab6-314b-4da0-b36b-ab9518b286b6{clip-path:url(#f8d88929-428b-4ce2-93ce-adc70819db75);}.b19ab85e-4a36-4aa1-8fe3-c316c72f1ba1{fill:#4d4d4d;}.a8cafefe-67f8-4afc-84b2-d70ca1ba27ba,.aa8d7de4-7f76-46e4-81c1-97d762faea37,.ba601382-57d7-449b-badc-4407dee7e58a{stroke:#000;stroke-linecap:round;stroke-linejoin:round;stroke-width:1.6px;}.aa8d7de4-7f76-46e4-81c1-97d762faea37{stroke-dasharray:0 4.09;}.ba601382-57d7-449b-badc-4407dee7e58a{stroke-dasharray:0 4.07;}</style><clipPath id="f8d88929-428b-4ce2-93ce-adc70819db75"><rect class="b8071ed0-4d7b-40e6-82ec-e57ffa65d0f5" width="262" height="180"/></clipPath></defs><g class="b3d72ab6-314b-4da0-b36b-ab9518b286b6"><path class="b19ab85e-4a36-4aa1-8fe3-c316c72f1ba1" d="M241.39,13.3H-95a.83.83,0,0,1-.83-.83.83.83,0,0,1,.83-.83H241.39a.83.83,0,0,1,0,1.66Z"/><path class="b19ab85e-4a36-4aa1-8fe3-c316c72f1ba1" d="M6.25,6.66H-28.28a.83.83,0,0,1-.83-.83V-16.75a.83.83,0,0,1,.83-.83H6.25a.84.84,0,0,1,.83.83V5.83A.83.83,0,0,1,6.25,6.66ZM-27.45,5H5.42V-15.92H-27.45Z"/><path class="b19ab85e-4a36-4aa1-8fe3-c316c72f1ba1" d="M.93,13.3H-23a.83.83,0,0,1-.83-.83.83.83,0,0,1,.83-.83H.93a.83.83,0,0,1,0,1.66Z"/><path class="b19ab85e-4a36-4aa1-8fe3-c316c72f1ba1" d="M70.31,9.32H38.44a.83.83,0,0,1-.83-.83V-11.43a.83.83,0,0,1,.83-.83h12a.83.83,0,0,1,.83.83.83.83,0,0,1-.83.83H39.27V7.66H69.48V-10.6H58.36a.83.83,0,0,1-.83-.83.83.83,0,0,1,.83-.83h12a.83.83,0,0,1,.83.83V8.49A.83.83,0,0,1,70.31,9.32Z"/><path class="b19ab85e-4a36-4aa1-8fe3-c316c72f1ba1" d="M73,13.3H35.78a.83.83,0,1,1,0-1.66H73a.83.83,0,0,1,0,1.66Z"/><path class="b19ab85e-4a36-4aa1-8fe3-c316c72f1ba1" d="M137,6.66H102.5a.83.83,0,0,1-.83-.83V-16.75a.83.83,0,0,1,.83-.83H137a.83.83,0,0,1,.83.83V5.83A.83.83,0,0,1,137,6.66ZM103.33,5H136.2V-15.92H103.33Z"/><path class="b19ab85e-4a36-4aa1-8fe3-c316c72f1ba1" d="M131.72,13.3H107.81a.83.83,0,1,1,0-1.66h23.91a.83.83,0,0,1,0,1.66Z"/><path class="b19ab85e-4a36-4aa1-8fe3-c316c72f1ba1" d="M117.11,13.3a.83.83,0,0,1-.83-.83V5.83a.83.83,0,0,1,1.66,0v6.64A.83.83,0,0,1,117.11,13.3Z"/><path class="b19ab85e-4a36-4aa1-8fe3-c316c72f1ba1" d="M122.42,13.3a.83.83,0,0,1-.83-.83V5.83a.83.83,0,0,1,1.66,0v6.64A.83.83,0,0,1,122.42,13.3Z"/><path class="b19ab85e-4a36-4aa1-8fe3-c316c72f1ba1" d="M201.09,9.32H169.22a.83.83,0,0,1-.83-.83V-11.43a.83.83,0,0,1,.83-.83h11.95a.83.83,0,0,1,.83.83.83.83,0,0,1-.83.83H170.05V7.66h30.21V-10.6H189.14a.83.83,0,0,1-.83-.83.83.83,0,0,1,.83-.83h12a.83.83,0,0,1,.83.83V8.49A.83.83,0,0,1,201.09,9.32Z"/><path class="b19ab85e-4a36-4aa1-8fe3-c316c72f1ba1" d="M203.75,13.3H166.56a.83.83,0,1,1,0-1.66h37.19a.83.83,0,0,1,0,1.66Z"/><path class="b19ab85e-4a36-4aa1-8fe3-c316c72f1ba1" d="M267.81,6.66H233.28a.83.83,0,0,1-.83-.83V-16.75a.83.83,0,0,1,.83-.83h34.53a.83.83,0,0,1,.83.83V5.83A.83.83,0,0,1,267.81,6.66ZM234.11,5H267V-15.92H234.11Z"/><path class="b19ab85e-4a36-4aa1-8fe3-c316c72f1ba1" d="M262.5,13.3H238.59a.83.83,0,1,1,0-1.66H262.5a.83.83,0,0,1,0,1.66Z"/><path class="b19ab85e-4a36-4aa1-8fe3-c316c72f1ba1" d="M247.89,13.3a.83.83,0,0,1-.83-.83V5.83a.83.83,0,1,1,1.66,0v6.64A.83.83,0,0,1,247.89,13.3Z"/><path class="b19ab85e-4a36-4aa1-8fe3-c316c72f1ba1" d="M253.2,13.3a.83.83,0,0,1-.83-.83V5.83a.83.83,0,0,1,1.66,0v6.64A.83.83,0,0,1,253.2,13.3Z"/><line class="a8cafefe-67f8-4afc-84b2-d70ca1ba27ba" x1="54.37" y1="18.3" x2="54.37" y2="39.68"/><line class="a8cafefe-67f8-4afc-84b2-d70ca1ba27ba" x1="119.76" y1="18.3" x2="119.76" y2="18.3"/><line class="aa8d7de4-7f76-46e4-81c1-97d762faea37" x1="119.76" y1="22.39" x2="119.76" y2="48.95"/><line class="a8cafefe-67f8-4afc-84b2-d70ca1ba27ba" x1="119.76" y1="50.99" x2="119.76" y2="50.99"/><line class="a8cafefe-67f8-4afc-84b2-d70ca1ba27ba" x1="185.15" y1="18.3" x2="185.15" y2="39.68"/><line class="a8cafefe-67f8-4afc-84b2-d70ca1ba27ba" x1="250.55" y1="18.3" x2="250.55" y2="18.3"/><line class="aa8d7de4-7f76-46e4-81c1-97d762faea37" x1="250.55" y1="22.39" x2="250.55" y2="48.95"/><line class="a8cafefe-67f8-4afc-84b2-d70ca1ba27ba" x1="250.55" y1="50.99" x2="250.55" y2="50.99"/><line class="a8cafefe-67f8-4afc-84b2-d70ca1ba27ba" x1="54.37" y1="80.72" x2="54.37" y2="80.72"/><line class="ba601382-57d7-449b-badc-4407dee7e58a" x1="54.37" y1="84.79" x2="54.37" y2="111.21"/><line class="a8cafefe-67f8-4afc-84b2-d70ca1ba27ba" x1="54.37" y1="113.25" x2="54.37" y2="113.25"/><line class="a8cafefe-67f8-4afc-84b2-d70ca1ba27ba" x1="119.76" y1="80.72" x2="119.76" y2="102.1"/><line class="a8cafefe-67f8-4afc-84b2-d70ca1ba27ba" x1="185.15" y1="80.72" x2="185.15" y2="80.72"/><line class="ba601382-57d7-449b-badc-4407dee7e58a" x1="185.15" y1="84.79" x2="185.15" y2="111.21"/><line class="a8cafefe-67f8-4afc-84b2-d70ca1ba27ba" x1="185.15" y1="113.25" x2="185.15" y2="113.25"/><line class="a8cafefe-67f8-4afc-84b2-d70ca1ba27ba" x1="250.55" y1="80.72" x2="250.55" y2="102.1"/><path class="b19ab85e-4a36-4aa1-8fe3-c316c72f1ba1" d="M241.39,138H-95a.83.83,0,0,1-.83-.83.83.83,0,0,1,.83-.83H241.39a.83.83,0,1,1,0,1.66Z"/><path class="b19ab85e-4a36-4aa1-8fe3-c316c72f1ba1" d="M6.25,131.34H-28.28a.83.83,0,0,1-.83-.83V107.93a.83.83,0,0,1,.83-.83H6.25a.83.83,0,0,1,.83.83v22.58A.83.83,0,0,1,6.25,131.34Zm-33.7-1.66H5.42V108.76H-27.45Z"/><path class="b19ab85e-4a36-4aa1-8fe3-c316c72f1ba1" d="M.93,138H-23a.83.83,0,0,1-.83-.83.83.83,0,0,1,.83-.83H.93a.83.83,0,1,1,0,1.66Z"/><path class="b19ab85e-4a36-4aa1-8fe3-c316c72f1ba1" d="M70.31,134H38.44a.83.83,0,0,1-.83-.83V113.24a.83.83,0,0,1,.83-.83h12a.83.83,0,0,1,0,1.66H39.27v18.26H69.48V114.07H58.36a.83.83,0,0,1,0-1.66h12a.83.83,0,0,1,.83.83v19.92A.83.83,0,0,1,70.31,134Z"/><path class="b19ab85e-4a36-4aa1-8fe3-c316c72f1ba1" d="M73,138H35.78a.83.83,0,1,1,0-1.66H73A.83.83,0,1,1,73,138Z"/><path class="b19ab85e-4a36-4aa1-8fe3-c316c72f1ba1" d="M137,131.34H102.5a.83.83,0,0,1-.83-.83V107.93a.83.83,0,0,1,.83-.83H137a.83.83,0,0,1,.83.83v22.58A.83.83,0,0,1,137,131.34Zm-33.7-1.66H136.2V108.76H103.33Z"/><path class="b19ab85e-4a36-4aa1-8fe3-c316c72f1ba1" d="M131.72,138H107.81a.83.83,0,1,1,0-1.66h23.91a.83.83,0,1,1,0,1.66Z"/><path class="b19ab85e-4a36-4aa1-8fe3-c316c72f1ba1" d="M117.11,138a.83.83,0,0,1-.83-.83v-6.64a.83.83,0,1,1,1.66,0v6.64A.83.83,0,0,1,117.11,138Z"/><path class="b19ab85e-4a36-4aa1-8fe3-c316c72f1ba1" d="M122.42,138a.83.83,0,0,1-.83-.83v-6.64a.83.83,0,1,1,1.66,0v6.64A.83.83,0,0,1,122.42,138Z"/><path class="b19ab85e-4a36-4aa1-8fe3-c316c72f1ba1" d="M201.09,134H169.22a.83.83,0,0,1-.83-.83V113.24a.83.83,0,0,1,.83-.83h11.95a.83.83,0,1,1,0,1.66H170.05v18.26h30.21V114.07H189.14a.83.83,0,1,1,0-1.66h12a.83.83,0,0,1,.83.83v19.92A.83.83,0,0,1,201.09,134Z"/><path class="b19ab85e-4a36-4aa1-8fe3-c316c72f1ba1" d="M203.75,138H166.56a.83.83,0,1,1,0-1.66h37.19a.83.83,0,1,1,0,1.66Z"/><path class="b19ab85e-4a36-4aa1-8fe3-c316c72f1ba1" d="M267.81,131.34H233.28a.83.83,0,0,1-.83-.83V107.93a.83.83,0,0,1,.83-.83h34.53a.83.83,0,0,1,.83.83v22.58A.83.83,0,0,1,267.81,131.34Zm-33.7-1.66H267V108.76H234.11Z"/><path class="b19ab85e-4a36-4aa1-8fe3-c316c72f1ba1" d="M262.5,138H238.59a.83.83,0,1,1,0-1.66H262.5a.83.83,0,1,1,0,1.66Z"/><path class="b19ab85e-4a36-4aa1-8fe3-c316c72f1ba1" d="M247.89,138a.83.83,0,0,1-.83-.83v-6.64a.83.83,0,1,1,1.66,0v6.64A.83.83,0,0,1,247.89,138Z"/><path class="b19ab85e-4a36-4aa1-8fe3-c316c72f1ba1" d="M253.2,138a.83.83,0,0,1-.83-.83v-6.64a.83.83,0,1,1,1.66,0v6.64A.83.83,0,0,1,253.2,138Z"/><path class="b19ab85e-4a36-4aa1-8fe3-c316c72f1ba1" d="M266.48,71.74H234.61a.83.83,0,0,1-.83-.83V51a.84.84,0,0,1,.83-.84h11.95a.84.84,0,0,1,0,1.67H235.44V70.08h30.21V51.82H254.53a.84.84,0,0,1,0-1.67h12a.84.84,0,0,1,.83.84V70.91A.83.83,0,0,1,266.48,71.74Z"/><path class="b19ab85e-4a36-4aa1-8fe3-c316c72f1ba1" d="M269.14,75.72H232a.83.83,0,1,1,0-1.66h37.19a.83.83,0,0,1,0,1.66Z"/><path class="b19ab85e-4a36-4aa1-8fe3-c316c72f1ba1" d="M241.39,75.72H-88a.83.83,0,0,1-.83-.83.83.83,0,0,1,.83-.83H241.39a.83.83,0,1,1,0,1.66Z"/><path class="b19ab85e-4a36-4aa1-8fe3-c316c72f1ba1" d="M5.25,71.74H-26.63a.83.83,0,0,1-.83-.83V51a.84.84,0,0,1,.83-.84h12a.84.84,0,0,1,.83.84.84.84,0,0,1-.83.83H-25.8V70.08H4.42V51.82H-6.71A.84.84,0,0,1-7.54,51a.84.84,0,0,1,.83-.84h12a.84.84,0,0,1,.83.84V70.91A.84.84,0,0,1,5.25,71.74Z"/><path class="b19ab85e-4a36-4aa1-8fe3-c316c72f1ba1" d="M7.9,75.72H-29.28a.83.83,0,0,1-.83-.83.83.83,0,0,1,.83-.83H7.9a.83.83,0,1,1,0,1.66Z"/><path class="b19ab85e-4a36-4aa1-8fe3-c316c72f1ba1" d="M72,69.08H37.44a.83.83,0,0,1-.83-.83V45.67a.83.83,0,0,1,.83-.83H72a.83.83,0,0,1,.83.83V68.25A.83.83,0,0,1,72,69.08Zm-33.7-1.66H71.14V46.5H38.27Z"/><path class="b19ab85e-4a36-4aa1-8fe3-c316c72f1ba1" d="M66.65,75.72H42.75a.83.83,0,0,1,0-1.66h23.9a.83.83,0,0,1,0,1.66Z"/><path class="b19ab85e-4a36-4aa1-8fe3-c316c72f1ba1" d="M52,75.72a.83.83,0,0,1-.83-.83V68.25a.83.83,0,0,1,1.66,0v6.64A.83.83,0,0,1,52,75.72Z"/><path class="b19ab85e-4a36-4aa1-8fe3-c316c72f1ba1" d="M57.36,75.72a.83.83,0,0,1-.83-.83V68.25a.83.83,0,0,1,1.66,0v6.64A.83.83,0,0,1,57.36,75.72Z"/><path class="b19ab85e-4a36-4aa1-8fe3-c316c72f1ba1" d="M136,71.74H104.15a.84.84,0,0,1-.83-.83V51a.84.84,0,0,1,.83-.84h12a.84.84,0,0,1,0,1.67H105V70.08H135.2V51.82H124.08a.84.84,0,0,1,0-1.67h12a.84.84,0,0,1,.83.84V70.91A.83.83,0,0,1,136,71.74Z"/><path class="b19ab85e-4a36-4aa1-8fe3-c316c72f1ba1" d="M138.68,75.72H101.5a.83.83,0,0,1,0-1.66h37.18a.83.83,0,1,1,0,1.66Z"/><path class="b19ab85e-4a36-4aa1-8fe3-c316c72f1ba1" d="M202.75,69.08H168.22a.83.83,0,0,1-.83-.83V45.67a.83.83,0,0,1,.83-.83h34.53a.83.83,0,0,1,.83.83V68.25A.83.83,0,0,1,202.75,69.08Zm-33.7-1.66h32.87V46.5H169.05Z"/><path class="b19ab85e-4a36-4aa1-8fe3-c316c72f1ba1" d="M197.44,75.72H173.53a.83.83,0,1,1,0-1.66h23.91a.83.83,0,1,1,0,1.66Z"/><path class="b19ab85e-4a36-4aa1-8fe3-c316c72f1ba1" d="M182.83,75.72a.83.83,0,0,1-.83-.83V68.25a.83.83,0,0,1,1.66,0v6.64A.83.83,0,0,1,182.83,75.72Z"/><path class="b19ab85e-4a36-4aa1-8fe3-c316c72f1ba1" d="M188.14,75.72a.83.83,0,0,1-.83-.83V68.25a.83.83,0,1,1,1.66,0v6.64A.83.83,0,0,1,188.14,75.72Z"/><line class="a8cafefe-67f8-4afc-84b2-d70ca1ba27ba" x1="54.37" y1="143.11" x2="54.37" y2="164.5"/><line class="a8cafefe-67f8-4afc-84b2-d70ca1ba27ba" x1="119.76" y1="143.11" x2="119.76" y2="143.11"/><line class="aa8d7de4-7f76-46e4-81c1-97d762faea37" x1="119.76" y1="147.2" x2="119.76" y2="173.76"/><line class="a8cafefe-67f8-4afc-84b2-d70ca1ba27ba" x1="119.76" y1="175.8" x2="119.76" y2="175.8"/><line class="a8cafefe-67f8-4afc-84b2-d70ca1ba27ba" x1="185.15" y1="143.11" x2="185.15" y2="164.5"/><line class="a8cafefe-67f8-4afc-84b2-d70ca1ba27ba" x1="250.55" y1="143.11" x2="250.55" y2="143.11"/><line class="aa8d7de4-7f76-46e4-81c1-97d762faea37" x1="250.55" y1="147.2" x2="250.55" y2="173.76"/><line class="a8cafefe-67f8-4afc-84b2-d70ca1ba27ba" x1="250.55" y1="175.8" x2="250.55" y2="175.8"/><path class="b19ab85e-4a36-4aa1-8fe3-c316c72f1ba1" d="M266.48,196.55H234.61a.83.83,0,0,1-.83-.83V175.8a.83.83,0,0,1,.83-.83h11.95a.83.83,0,1,1,0,1.66H235.44v18.26h30.21V176.63H254.53a.83.83,0,1,1,0-1.66h12a.83.83,0,0,1,.83.83v19.92A.83.83,0,0,1,266.48,196.55Z"/><path class="b19ab85e-4a36-4aa1-8fe3-c316c72f1ba1" d="M5.25,196.55H-26.63a.83.83,0,0,1-.83-.83V175.8a.83.83,0,0,1,.83-.83h12a.83.83,0,0,1,.83.83.83.83,0,0,1-.83.83H-25.8v18.26H4.42V176.63H-6.71a.83.83,0,0,1-.83-.83.83.83,0,0,1,.83-.83h12a.83.83,0,0,1,.83.83v19.92A.83.83,0,0,1,5.25,196.55Z"/><path class="b19ab85e-4a36-4aa1-8fe3-c316c72f1ba1" d="M72,193.89H37.44a.83.83,0,0,1-.83-.83V170.49a.83.83,0,0,1,.83-.83H72a.83.83,0,0,1,.83.83v22.57A.83.83,0,0,1,72,193.89Zm-33.7-1.66H71.14V171.32H38.27Z"/><path class="b19ab85e-4a36-4aa1-8fe3-c316c72f1ba1" d="M136,196.55H104.15a.83.83,0,0,1-.83-.83V175.8a.83.83,0,0,1,.83-.83h12a.83.83,0,0,1,0,1.66H105v18.26H135.2V176.63H124.08a.83.83,0,0,1,0-1.66h12a.83.83,0,0,1,.83.83v19.92A.83.83,0,0,1,136,196.55Z"/><path class="b19ab85e-4a36-4aa1-8fe3-c316c72f1ba1" d="M202.75,193.89H168.22a.83.83,0,0,1-.83-.83V170.49a.83.83,0,0,1,.83-.83h34.53a.83.83,0,0,1,.83.83v22.57A.83.83,0,0,1,202.75,193.89Zm-33.7-1.66h32.87V171.32H169.05Z"/></g></svg>