<svg id="b3d2669e-c6d7-433e-b304-f2a502f90f89" data-name="Layer 1" xmlns="http://www.w3.org/2000/svg" xmlns:xlink="http://www.w3.org/1999/xlink" viewBox="0 0 262 180"><defs><style>.ad801955-fb08-45fc-b131-e7c5a3de661c,.b4e927cf-459c-4d51-be90-11206ba69f5b,.bc9f9ac1-1932-4742-8fa2-e1f04f9945d1,.bf13edf5-b42e-4400-b731-350ca5e2e446,.bf2448d5-cde1-45a5-84c1-ee7a182fd6dd,.f958ad3a-a5d2-43ae-b51c-39de630890a0{fill:none;}.f13eb65a-0569-441f-94b0-44dabe56eacb{clip-path:url(#f1fadb11-0d4f-4051-adc7-74360b4e0c65);}.a7ad2424-1cb5-40c8-8603-ca01c693f5e6{fill:#e00;}.b4e927cf-459c-4d51-be90-11206ba69f5b,.bc9f9ac1-1932-4742-8fa2-e1f04f9945d1,.bf13edf5-b42e-4400-b731-350ca5e2e446,.bf2448d5-cde1-45a5-84c1-ee7a182fd6dd,.f958ad3a-a5d2-43ae-b51c-39de630890a0{stroke:#000;stroke-linecap:round;stroke-linejoin:round;stroke-width:1.6px;}.f958ad3a-a5d2-43ae-b51c-39de630890a0{stroke-dasharray:0 3.84;}.b4e927cf-459c-4d51-be90-11206ba69f5b{stroke-dasharray:0 3.81;}.bc9f9ac1-1932-4742-8fa2-e1f04f9945d1{stroke-dasharray:0 4.28;}.b10a0d21-0262-403b-beb2-42ae48c73e63{clip-path:url(#e4588759-169a-436c-8637-0e6f4db522e6);}.a18d805d-6bfe-46ca-90fa-e05bb613654f{fill:#4d4d4d;}.bf13edf5-b42e-4400-b731-350ca5e2e446{stroke-dasharray:0 4.07;}</style><clipPath id="f1fadb11-0d4f-4051-adc7-74360b4e0c65"><rect class="ad801955-fb08-45fc-b131-e7c5a3de661c" width="262" height="180"/></clipPath><clipPath id="e4588759-169a-436c-8637-0e6f4db522e6"><rect class="ad801955-fb08-45fc-b131-e7c5a3de661c" x="283" width="262" height="180"/></clipPath></defs><g class="f13eb65a-0569-441f-94b0-44dabe56eacb"><rect class="ad801955-fb08-45fc-b131-e7c5a3de661c" width="262" height="180" rx="3"/><path class="a7ad2424-1cb5-40c8-8603-ca01c693f5e6" d="M6.87,5.66H-27.65a.83.83,0,0,1-.83-.83V-17.75a.83.83,0,0,1,.83-.83H6.87a.83.83,0,0,1,.83.83V4.83A.83.83,0,0,1,6.87,5.66ZM-26.82,4H6V-16.92H-26.82Z"/><path class="a7ad2424-1cb5-40c8-8603-ca01c693f5e6" d="M1.56,12.3h-23.9a.83.83,0,0,1-.83-.83.83.83,0,0,1,.83-.83H1.56a.83.83,0,0,1,0,1.66Z"/><path class="a7ad2424-1cb5-40c8-8603-ca01c693f5e6" d="M70.94,8.32H39.06a.83.83,0,0,1-.83-.83V-12.43a.83.83,0,0,1,.83-.83H51a.83.83,0,0,1,.83.83.84.84,0,0,1-.83.83H39.89V6.66H70.11V-11.6H59a.83.83,0,0,1-.83-.83.83.83,0,0,1,.83-.83H70.94a.83.83,0,0,1,.83.83V7.49A.83.83,0,0,1,70.94,8.32Z"/><path class="a7ad2424-1cb5-40c8-8603-ca01c693f5e6" d="M73.59,12.3H36.41a.83.83,0,1,1,0-1.66H73.59a.83.83,0,0,1,0,1.66Z"/><path class="a7ad2424-1cb5-40c8-8603-ca01c693f5e6" d="M137.66,5.66H103.13a.83.83,0,0,1-.83-.83V-17.75a.83.83,0,0,1,.83-.83h34.53a.84.84,0,0,1,.83.83V4.83A.83.83,0,0,1,137.66,5.66ZM104,4h32.87V-16.92H104Z"/><path class="a7ad2424-1cb5-40c8-8603-ca01c693f5e6" d="M132.34,12.3h-23.9a.83.83,0,1,1,0-1.66h23.9a.83.83,0,1,1,0,1.66Z"/><path class="a7ad2424-1cb5-40c8-8603-ca01c693f5e6" d="M117.74,12.3a.83.83,0,0,1-.83-.83V4.83a.83.83,0,0,1,1.66,0v6.64A.83.83,0,0,1,117.74,12.3Z"/><path class="a7ad2424-1cb5-40c8-8603-ca01c693f5e6" d="M123.05,12.3a.83.83,0,0,1-.83-.83V4.83a.83.83,0,0,1,1.66,0v6.64A.83.83,0,0,1,123.05,12.3Z"/><path class="a7ad2424-1cb5-40c8-8603-ca01c693f5e6" d="M201.72,8.32H169.85a.83.83,0,0,1-.83-.83V-12.43a.83.83,0,0,1,.83-.83h12a.83.83,0,0,1,.83.83.83.83,0,0,1-.83.83H170.68V6.66h30.21V-11.6H189.77a.83.83,0,0,1-.83-.83.83.83,0,0,1,.83-.83h11.95a.83.83,0,0,1,.83.83V7.49A.83.83,0,0,1,201.72,8.32Z"/><path class="a7ad2424-1cb5-40c8-8603-ca01c693f5e6" d="M204.38,12.3H167.19a.83.83,0,0,1,0-1.66h37.19a.83.83,0,0,1,0,1.66Z"/><path class="a7ad2424-1cb5-40c8-8603-ca01c693f5e6" d="M268.44,5.66H233.91a.83.83,0,0,1-.83-.83V-17.75a.83.83,0,0,1,.83-.83h34.53a.83.83,0,0,1,.83.83V4.83A.83.83,0,0,1,268.44,5.66ZM234.74,4h32.87V-16.92H234.74Z"/><path class="a7ad2424-1cb5-40c8-8603-ca01c693f5e6" d="M263.13,12.3H239.22a.83.83,0,1,1,0-1.66h23.91a.83.83,0,0,1,0,1.66Z"/><path class="a7ad2424-1cb5-40c8-8603-ca01c693f5e6" d="M248.52,12.3a.83.83,0,0,1-.83-.83V4.83a.83.83,0,0,1,1.66,0v6.64A.83.83,0,0,1,248.52,12.3Z"/><path class="a7ad2424-1cb5-40c8-8603-ca01c693f5e6" d="M253.83,12.3a.83.83,0,0,1-.83-.83V4.83a.83.83,0,1,1,1.66,0v6.64A.83.83,0,0,1,253.83,12.3Z"/><line class="bf2448d5-cde1-45a5-84c1-ee7a182fd6dd" x1="55" y1="17.3" x2="55" y2="38.68"/><line class="bf2448d5-cde1-45a5-84c1-ee7a182fd6dd" x1="120.39" y1="17.3" x2="120.39" y2="17.3"/><line class="f958ad3a-a5d2-43ae-b51c-39de630890a0" x1="120.39" y1="21.14" x2="120.39" y2="42.24"/><line class="bf2448d5-cde1-45a5-84c1-ee7a182fd6dd" x1="120.39" y1="44.15" x2="120.39" y2="44.15"/><line class="bf2448d5-cde1-45a5-84c1-ee7a182fd6dd" x1="185.78" y1="17.3" x2="185.78" y2="38.68"/><line class="bf2448d5-cde1-45a5-84c1-ee7a182fd6dd" x1="251.17" y1="17.3" x2="251.17" y2="17.3"/><line class="f958ad3a-a5d2-43ae-b51c-39de630890a0" x1="251.17" y1="21.14" x2="251.17" y2="42.24"/><line class="bf2448d5-cde1-45a5-84c1-ee7a182fd6dd" x1="251.17" y1="44.15" x2="251.17" y2="44.15"/><line class="bf2448d5-cde1-45a5-84c1-ee7a182fd6dd" x1="55" y1="79.72" x2="55" y2="79.72"/><line class="b4e927cf-459c-4d51-be90-11206ba69f5b" x1="55" y1="83.53" x2="55" y2="104.51"/><line class="bf2448d5-cde1-45a5-84c1-ee7a182fd6dd" x1="55" y1="106.41" x2="55" y2="106.41"/><line class="bf2448d5-cde1-45a5-84c1-ee7a182fd6dd" x1="120.39" y1="79.72" x2="120.39" y2="101.1"/><line class="bf2448d5-cde1-45a5-84c1-ee7a182fd6dd" x1="185.78" y1="79.72" x2="185.78" y2="79.72"/><line class="b4e927cf-459c-4d51-be90-11206ba69f5b" x1="185.78" y1="83.53" x2="185.78" y2="104.51"/><line class="bf2448d5-cde1-45a5-84c1-ee7a182fd6dd" x1="185.78" y1="106.41" x2="185.78" y2="106.41"/><line class="bf2448d5-cde1-45a5-84c1-ee7a182fd6dd" x1="251.17" y1="79.72" x2="251.17" y2="101.1"/><line class="bf2448d5-cde1-45a5-84c1-ee7a182fd6dd" x1="8.29" y1="11.47" x2="8.29" y2="11.47"/><line class="bc9f9ac1-1932-4742-8fa2-e1f04f9945d1" x1="12.57" y1="11.47" x2="27.54" y2="11.47"/><line class="bf2448d5-cde1-45a5-84c1-ee7a182fd6dd" x1="29.68" y1="11.47" x2="29.68" y2="11.47"/><line class="bf2448d5-cde1-45a5-84c1-ee7a182fd6dd" x1="80.58" y1="11.47" x2="80.58" y2="11.47"/><line class="bc9f9ac1-1932-4742-8fa2-e1f04f9945d1" x1="84.85" y1="11.47" x2="99.82" y2="11.47"/><line class="bf2448d5-cde1-45a5-84c1-ee7a182fd6dd" x1="101.96" y1="11.47" x2="101.96" y2="11.47"/><line class="bf2448d5-cde1-45a5-84c1-ee7a182fd6dd" x1="138.83" y1="11.47" x2="138.83" y2="11.47"/><line class="bc9f9ac1-1932-4742-8fa2-e1f04f9945d1" x1="143.1" y1="11.47" x2="158.07" y2="11.47"/><line class="bf2448d5-cde1-45a5-84c1-ee7a182fd6dd" x1="160.21" y1="11.47" x2="160.21" y2="11.47"/><line class="bf2448d5-cde1-45a5-84c1-ee7a182fd6dd" x1="211.36" y1="11.47" x2="211.36" y2="11.47"/><line class="bc9f9ac1-1932-4742-8fa2-e1f04f9945d1" x1="215.63" y1="11.47" x2="230.6" y2="11.47"/><line class="bf2448d5-cde1-45a5-84c1-ee7a182fd6dd" x1="232.74" y1="11.47" x2="232.74" y2="11.47"/><path class="a7ad2424-1cb5-40c8-8603-ca01c693f5e6" d="M6.87,130.34H-27.65a.83.83,0,0,1-.83-.83V106.93a.83.83,0,0,1,.83-.83H6.87a.83.83,0,0,1,.83.83v22.58A.83.83,0,0,1,6.87,130.34Zm-33.69-1.66H6V107.76H-26.82Z"/><path class="a7ad2424-1cb5-40c8-8603-ca01c693f5e6" d="M1.56,137h-23.9a.83.83,0,0,1-.83-.83.83.83,0,0,1,.83-.83H1.56a.83.83,0,1,1,0,1.66Z"/><path class="a7ad2424-1cb5-40c8-8603-ca01c693f5e6" d="M70.94,133H39.06a.83.83,0,0,1-.83-.83V112.24a.84.84,0,0,1,.83-.83H51a.83.83,0,0,1,0,1.66H39.89v18.26H70.11V113.07H59a.83.83,0,0,1,0-1.66H70.94a.83.83,0,0,1,.83.83v19.92A.83.83,0,0,1,70.94,133Z"/><path class="a7ad2424-1cb5-40c8-8603-ca01c693f5e6" d="M73.59,137H36.41a.83.83,0,1,1,0-1.66H73.59a.83.83,0,1,1,0,1.66Z"/><path class="a7ad2424-1cb5-40c8-8603-ca01c693f5e6" d="M55,113.07a.81.81,0,0,1-.58-.24.82.82,0,0,1,0-1.18.87.87,0,0,1,1.17,0,.85.85,0,0,1,0,1.18A.85.85,0,0,1,55,113.07Z"/><path class="a7ad2424-1cb5-40c8-8603-ca01c693f5e6" d="M137.66,130.34H103.13a.83.83,0,0,1-.83-.83V106.93a.83.83,0,0,1,.83-.83h34.53a.83.83,0,0,1,.83.83v22.58A.83.83,0,0,1,137.66,130.34ZM104,128.68h32.87V107.76H104Z"/><path class="a7ad2424-1cb5-40c8-8603-ca01c693f5e6" d="M132.34,137h-23.9a.83.83,0,1,1,0-1.66h23.9a.83.83,0,1,1,0,1.66Z"/><path class="a7ad2424-1cb5-40c8-8603-ca01c693f5e6" d="M117.74,137a.83.83,0,0,1-.83-.83v-6.64a.83.83,0,1,1,1.66,0v6.64A.83.83,0,0,1,117.74,137Z"/><path class="a7ad2424-1cb5-40c8-8603-ca01c693f5e6" d="M123.05,137a.83.83,0,0,1-.83-.83v-6.64a.83.83,0,1,1,1.66,0v6.64A.83.83,0,0,1,123.05,137Z"/><path class="a7ad2424-1cb5-40c8-8603-ca01c693f5e6" d="M201.72,133H169.85a.83.83,0,0,1-.83-.83V112.24a.83.83,0,0,1,.83-.83h12a.83.83,0,0,1,0,1.66H170.68v18.26h30.21V113.07H189.77a.83.83,0,0,1,0-1.66h11.95a.83.83,0,0,1,.83.83v19.92A.83.83,0,0,1,201.72,133Z"/><path class="a7ad2424-1cb5-40c8-8603-ca01c693f5e6" d="M204.38,137H167.19a.83.83,0,0,1,0-1.66h37.19a.83.83,0,1,1,0,1.66Z"/><path class="a7ad2424-1cb5-40c8-8603-ca01c693f5e6" d="M185.78,113.07a.83.83,0,0,1-.58-.24.82.82,0,0,1,0-1.18.87.87,0,0,1,1.17,0,.85.85,0,0,1,0,1.18A.85.85,0,0,1,185.78,113.07Z"/><path class="a7ad2424-1cb5-40c8-8603-ca01c693f5e6" d="M268.44,130.34H233.91a.83.83,0,0,1-.83-.83V106.93a.83.83,0,0,1,.83-.83h34.53a.83.83,0,0,1,.83.83v22.58A.83.83,0,0,1,268.44,130.34Zm-33.7-1.66h32.87V107.76H234.74Z"/><path class="a7ad2424-1cb5-40c8-8603-ca01c693f5e6" d="M263.13,137H239.22a.83.83,0,1,1,0-1.66h23.91a.83.83,0,1,1,0,1.66Z"/><path class="a7ad2424-1cb5-40c8-8603-ca01c693f5e6" d="M248.52,137a.83.83,0,0,1-.83-.83v-6.64a.83.83,0,1,1,1.66,0v6.64A.83.83,0,0,1,248.52,137Z"/><path class="a7ad2424-1cb5-40c8-8603-ca01c693f5e6" d="M253.83,137a.83.83,0,0,1-.83-.83v-6.64a.83.83,0,1,1,1.66,0v6.64A.83.83,0,0,1,253.83,137Z"/><line class="bf2448d5-cde1-45a5-84c1-ee7a182fd6dd" x1="8.29" y1="136.15" x2="8.29" y2="136.15"/><line class="bc9f9ac1-1932-4742-8fa2-e1f04f9945d1" x1="12.57" y1="136.15" x2="27.54" y2="136.15"/><line class="bf2448d5-cde1-45a5-84c1-ee7a182fd6dd" x1="29.68" y1="136.15" x2="29.68" y2="136.15"/><line class="bf2448d5-cde1-45a5-84c1-ee7a182fd6dd" x1="80.58" y1="136.15" x2="80.58" y2="136.15"/><line class="bc9f9ac1-1932-4742-8fa2-e1f04f9945d1" x1="84.85" y1="136.15" x2="99.82" y2="136.15"/><line class="bf2448d5-cde1-45a5-84c1-ee7a182fd6dd" x1="101.96" y1="136.15" x2="101.96" y2="136.15"/><line class="bf2448d5-cde1-45a5-84c1-ee7a182fd6dd" x1="138.83" y1="136.15" x2="138.83" y2="136.15"/><line class="bc9f9ac1-1932-4742-8fa2-e1f04f9945d1" x1="143.1" y1="136.15" x2="158.07" y2="136.15"/><line class="bf2448d5-cde1-45a5-84c1-ee7a182fd6dd" x1="160.21" y1="136.15" x2="160.21" y2="136.15"/><line class="bf2448d5-cde1-45a5-84c1-ee7a182fd6dd" x1="211.36" y1="136.15" x2="211.36" y2="136.15"/><line class="bc9f9ac1-1932-4742-8fa2-e1f04f9945d1" x1="215.63" y1="136.15" x2="230.6" y2="136.15"/><line class="bf2448d5-cde1-45a5-84c1-ee7a182fd6dd" x1="232.74" y1="136.15" x2="232.74" y2="136.15"/><path class="a7ad2424-1cb5-40c8-8603-ca01c693f5e6" d="M267.11,70.74H235.24a.83.83,0,0,1-.83-.83V50a.84.84,0,0,1,.83-.84h11.95a.84.84,0,0,1,0,1.67H236.07V69.08h30.21V50.82H255.16a.84.84,0,0,1,0-1.67h12a.84.84,0,0,1,.83.84V69.91A.83.83,0,0,1,267.11,70.74Z"/><path class="a7ad2424-1cb5-40c8-8603-ca01c693f5e6" d="M269.77,74.72H232.58a.83.83,0,0,1,0-1.66h37.19a.83.83,0,0,1,0,1.66Z"/><path class="a7ad2424-1cb5-40c8-8603-ca01c693f5e6" d="M251.18,50.81a.87.87,0,0,1-.59-.23.86.86,0,0,1-.25-.6.83.83,0,0,1,.25-.59.87.87,0,0,1,1.17,0A.82.82,0,0,1,252,50a.85.85,0,0,1-.24.6A.88.88,0,0,1,251.18,50.81Z"/><path class="a7ad2424-1cb5-40c8-8603-ca01c693f5e6" d="M5.87,70.74H-26a.83.83,0,0,1-.83-.83V50a.84.84,0,0,1,.83-.84h12a.84.84,0,0,1,.83.84.83.83,0,0,1-.83.83H-25.17V69.08H5V50.82H-6.08A.83.83,0,0,1-6.91,50a.84.84,0,0,1,.83-.84h12A.84.84,0,0,1,6.7,50V69.91A.83.83,0,0,1,5.87,70.74Z"/><path class="a7ad2424-1cb5-40c8-8603-ca01c693f5e6" d="M8.53,74.72H-28.65a.83.83,0,0,1-.83-.83.83.83,0,0,1,.83-.83H8.53a.83.83,0,1,1,0,1.66Z"/><path class="a7ad2424-1cb5-40c8-8603-ca01c693f5e6" d="M72.59,68.08H38.06a.83.83,0,0,1-.83-.83V44.67a.83.83,0,0,1,.83-.83H72.59a.83.83,0,0,1,.83.83V67.25A.83.83,0,0,1,72.59,68.08Zm-33.7-1.66H71.76V45.5H38.89Z"/><path class="a7ad2424-1cb5-40c8-8603-ca01c693f5e6" d="M67.28,74.72H43.38a.83.83,0,1,1,0-1.66h23.9a.83.83,0,0,1,0,1.66Z"/><path class="a7ad2424-1cb5-40c8-8603-ca01c693f5e6" d="M52.67,74.72a.83.83,0,0,1-.83-.83V67.25a.83.83,0,0,1,1.66,0v6.64A.83.83,0,0,1,52.67,74.72Z"/><path class="a7ad2424-1cb5-40c8-8603-ca01c693f5e6" d="M58,74.72a.83.83,0,0,1-.83-.83V67.25a.83.83,0,0,1,1.66,0v6.64A.83.83,0,0,1,58,74.72Z"/><path class="a7ad2424-1cb5-40c8-8603-ca01c693f5e6" d="M136.66,70.74H104.78a.84.84,0,0,1-.83-.83V50a.84.84,0,0,1,.83-.84h12a.84.84,0,0,1,0,1.67H105.61V69.08h30.22V50.82H124.7a.84.84,0,0,1,0-1.67h12a.84.84,0,0,1,.83.84V69.91A.84.84,0,0,1,136.66,70.74Z"/><path class="a7ad2424-1cb5-40c8-8603-ca01c693f5e6" d="M139.31,74.72H102.13a.83.83,0,0,1,0-1.66h37.18a.83.83,0,1,1,0,1.66Z"/><path class="a7ad2424-1cb5-40c8-8603-ca01c693f5e6" d="M120.72,50.81a.84.84,0,0,1-.58-.23.87.87,0,0,1-.26-.6.84.84,0,0,1,.26-.59.86.86,0,0,1,1.16,0,.82.82,0,0,1,.24.59.8.8,0,0,1-.82.83Z"/><path class="a7ad2424-1cb5-40c8-8603-ca01c693f5e6" d="M203.38,68.08H168.85a.83.83,0,0,1-.83-.83V44.67a.83.83,0,0,1,.83-.83h34.53a.83.83,0,0,1,.83.83V67.25A.83.83,0,0,1,203.38,68.08Zm-33.7-1.66h32.87V45.5H169.68Z"/><path class="a7ad2424-1cb5-40c8-8603-ca01c693f5e6" d="M198.06,74.72h-23.9a.83.83,0,0,1,0-1.66h23.9a.83.83,0,0,1,0,1.66Z"/><path class="a7ad2424-1cb5-40c8-8603-ca01c693f5e6" d="M183.45,74.72a.83.83,0,0,1-.83-.83V67.25a.83.83,0,1,1,1.66,0v6.64A.83.83,0,0,1,183.45,74.72Z"/><path class="a7ad2424-1cb5-40c8-8603-ca01c693f5e6" d="M188.77,74.72a.83.83,0,0,1-.83-.83V67.25a.83.83,0,0,1,1.66,0v6.64A.83.83,0,0,1,188.77,74.72Z"/><line class="bf2448d5-cde1-45a5-84c1-ee7a182fd6dd" x1="204.21" y1="73.89" x2="204.21" y2="73.89"/><line class="bc9f9ac1-1932-4742-8fa2-e1f04f9945d1" x1="208.48" y1="73.89" x2="223.45" y2="73.89"/><line class="bf2448d5-cde1-45a5-84c1-ee7a182fd6dd" x1="225.59" y1="73.89" x2="225.59" y2="73.89"/><line class="bf2448d5-cde1-45a5-84c1-ee7a182fd6dd" x1="15.51" y1="73.89" x2="15.51" y2="73.89"/><line class="bc9f9ac1-1932-4742-8fa2-e1f04f9945d1" x1="19.79" y1="73.89" x2="34.76" y2="73.89"/><line class="bf2448d5-cde1-45a5-84c1-ee7a182fd6dd" x1="36.89" y1="73.89" x2="36.89" y2="73.89"/><line class="bf2448d5-cde1-45a5-84c1-ee7a182fd6dd" x1="73.76" y1="73.89" x2="73.76" y2="73.89"/><line class="bc9f9ac1-1932-4742-8fa2-e1f04f9945d1" x1="78.04" y1="73.89" x2="93.01" y2="73.89"/><line class="bf2448d5-cde1-45a5-84c1-ee7a182fd6dd" x1="95.14" y1="73.89" x2="95.14" y2="73.89"/><line class="bf2448d5-cde1-45a5-84c1-ee7a182fd6dd" x1="146.29" y1="73.89" x2="146.29" y2="73.89"/><line class="bc9f9ac1-1932-4742-8fa2-e1f04f9945d1" x1="150.57" y1="73.89" x2="165.54" y2="73.89"/><line class="bf2448d5-cde1-45a5-84c1-ee7a182fd6dd" x1="167.68" y1="73.89" x2="167.68" y2="73.89"/><line class="bf2448d5-cde1-45a5-84c1-ee7a182fd6dd" x1="55" y1="142.11" x2="55" y2="163.5"/><line class="bf2448d5-cde1-45a5-84c1-ee7a182fd6dd" x1="120.39" y1="142.11" x2="120.39" y2="142.11"/><line class="f958ad3a-a5d2-43ae-b51c-39de630890a0" x1="120.39" y1="145.95" x2="120.39" y2="167.05"/><line class="bf2448d5-cde1-45a5-84c1-ee7a182fd6dd" x1="120.39" y1="168.97" x2="120.39" y2="168.97"/><line class="bf2448d5-cde1-45a5-84c1-ee7a182fd6dd" x1="185.78" y1="142.11" x2="185.78" y2="163.5"/><line class="bf2448d5-cde1-45a5-84c1-ee7a182fd6dd" x1="251.17" y1="142.11" x2="251.17" y2="142.11"/><line class="f958ad3a-a5d2-43ae-b51c-39de630890a0" x1="251.17" y1="145.95" x2="251.17" y2="167.05"/><line class="bf2448d5-cde1-45a5-84c1-ee7a182fd6dd" x1="251.17" y1="168.97" x2="251.17" y2="168.97"/><path class="a7ad2424-1cb5-40c8-8603-ca01c693f5e6" d="M267.11,195.55H235.24a.83.83,0,0,1-.83-.83V174.8a.83.83,0,0,1,.83-.83h11.95a.83.83,0,1,1,0,1.66H236.07v18.26h30.21V175.63H255.16a.83.83,0,1,1,0-1.66h12a.83.83,0,0,1,.83.83v19.92A.83.83,0,0,1,267.11,195.55Z"/><path class="a7ad2424-1cb5-40c8-8603-ca01c693f5e6" d="M251.18,175.63a.88.88,0,0,1-.59-.24.84.84,0,0,1-.25-.6.83.83,0,0,1,.25-.58.85.85,0,0,1,1.17,0,.82.82,0,0,1,.24.58.83.83,0,0,1-.24.6A.89.89,0,0,1,251.18,175.63Z"/><path class="a7ad2424-1cb5-40c8-8603-ca01c693f5e6" d="M5.87,195.55H-26a.83.83,0,0,1-.83-.83V174.8A.83.83,0,0,1-26,174h12a.83.83,0,0,1,.83.83.83.83,0,0,1-.83.83H-25.17v18.26H5V175.63H-6.08a.83.83,0,0,1-.83-.83.83.83,0,0,1,.83-.83h12a.83.83,0,0,1,.83.83v19.92A.83.83,0,0,1,5.87,195.55Z"/><path class="a7ad2424-1cb5-40c8-8603-ca01c693f5e6" d="M72.59,192.89H38.06a.83.83,0,0,1-.83-.83V169.49a.83.83,0,0,1,.83-.83H72.59a.83.83,0,0,1,.83.83v22.57A.83.83,0,0,1,72.59,192.89Zm-33.7-1.66H71.76V170.32H38.89Z"/><path class="a7ad2424-1cb5-40c8-8603-ca01c693f5e6" d="M136.66,195.55H104.78a.83.83,0,0,1-.83-.83V174.8a.83.83,0,0,1,.83-.83h12a.83.83,0,0,1,0,1.66H105.61v18.26h30.22V175.63H124.7a.83.83,0,0,1,0-1.66h12a.83.83,0,0,1,.83.83v19.92A.83.83,0,0,1,136.66,195.55Z"/><path class="a7ad2424-1cb5-40c8-8603-ca01c693f5e6" d="M120.72,175.63a.85.85,0,0,1-.84-.84.84.84,0,0,1,1.42-.58.82.82,0,0,1,.24.58.83.83,0,0,1-.24.6A.85.85,0,0,1,120.72,175.63Z"/><path class="a7ad2424-1cb5-40c8-8603-ca01c693f5e6" d="M203.38,192.89H168.85a.83.83,0,0,1-.83-.83V169.49a.83.83,0,0,1,.83-.83h34.53a.83.83,0,0,1,.83.83v22.57A.83.83,0,0,1,203.38,192.89Zm-33.7-1.66h32.87V170.32H169.68Z"/></g><g class="b10a0d21-0262-403b-beb2-42ae48c73e63"><path class="a18d805d-6bfe-46ca-90fa-e05bb613654f" d="M222.53,9.32H190.65a.83.83,0,0,1-.83-.83V-11.43a.83.83,0,0,1,.83-.83h12a.83.83,0,0,1,.83.83.84.84,0,0,1-.83.83H191.48V7.66H221.7V-10.6H210.57a.84.84,0,0,1-.83-.83.83.83,0,0,1,.83-.83h12a.83.83,0,0,1,.83.83V8.49A.83.83,0,0,1,222.53,9.32Z"/><path class="a18d805d-6bfe-46ca-90fa-e05bb613654f" d="M524.39,13.3H188a.83.83,0,1,1,0-1.66H524.39a.83.83,0,1,1,0,1.66Z"/><path class="a18d805d-6bfe-46ca-90fa-e05bb613654f" d="M289.25,6.66H254.72a.83.83,0,0,1-.83-.83V-16.75a.83.83,0,0,1,.83-.83h34.53a.84.84,0,0,1,.83.83V5.83A.83.83,0,0,1,289.25,6.66ZM255.55,5h32.87V-15.92H255.55Z"/><path class="a18d805d-6bfe-46ca-90fa-e05bb613654f" d="M283.93,13.3H260a.83.83,0,1,1,0-1.66h23.9a.83.83,0,0,1,0,1.66Z"/><line class="bf2448d5-cde1-45a5-84c1-ee7a182fd6dd" x1="206.59" y1="18.3" x2="206.59" y2="39.68"/><line class="bf2448d5-cde1-45a5-84c1-ee7a182fd6dd" x1="206.59" y1="80.72" x2="206.59" y2="80.72"/><line class="bf13edf5-b42e-4400-b731-350ca5e2e446" x1="206.59" y1="84.79" x2="206.59" y2="111.21"/><line class="bf2448d5-cde1-45a5-84c1-ee7a182fd6dd" x1="206.59" y1="113.25" x2="206.59" y2="113.25"/><path class="a18d805d-6bfe-46ca-90fa-e05bb613654f" d="M222.53,134H190.65a.83.83,0,0,1-.83-.83V113.24a.84.84,0,0,1,.83-.83h12a.83.83,0,0,1,0,1.66H191.48v18.26H221.7V114.07H210.57a.83.83,0,1,1,0-1.66h12a.83.83,0,0,1,.83.83v19.92A.83.83,0,0,1,222.53,134Z"/><path class="a18d805d-6bfe-46ca-90fa-e05bb613654f" d="M524.39,138H188a.83.83,0,1,1,0-1.66H524.39a.83.83,0,1,1,0,1.66Z"/><path class="a18d805d-6bfe-46ca-90fa-e05bb613654f" d="M289.25,131.34H254.72a.83.83,0,0,1-.83-.83V107.93a.83.83,0,0,1,.83-.83h34.53a.83.83,0,0,1,.83.83v22.58A.83.83,0,0,1,289.25,131.34Zm-33.7-1.66h32.87V108.76H255.55Z"/><path class="a18d805d-6bfe-46ca-90fa-e05bb613654f" d="M283.93,138H260a.83.83,0,1,1,0-1.66h23.9a.83.83,0,1,1,0,1.66Z"/><path class="a18d805d-6bfe-46ca-90fa-e05bb613654f" d="M224.18,69.08H189.65a.83.83,0,0,1-.83-.83V45.67a.83.83,0,0,1,.83-.83h34.53a.83.83,0,0,1,.83.83V68.25A.83.83,0,0,1,224.18,69.08Zm-33.7-1.66h32.87V46.5H190.48Z"/><path class="a18d805d-6bfe-46ca-90fa-e05bb613654f" d="M524.39,75.72H195a.83.83,0,0,1,0-1.66H524.39a.83.83,0,1,1,0,1.66Z"/><path class="a18d805d-6bfe-46ca-90fa-e05bb613654f" d="M204.26,75.72a.83.83,0,0,1-.83-.83V68.25a.83.83,0,0,1,1.66,0v6.64A.83.83,0,0,1,204.26,75.72Z"/><path class="a18d805d-6bfe-46ca-90fa-e05bb613654f" d="M209.57,75.72a.83.83,0,0,1-.83-.83V68.25a.83.83,0,0,1,1.66,0v6.64A.83.83,0,0,1,209.57,75.72Z"/><path class="a18d805d-6bfe-46ca-90fa-e05bb613654f" d="M288.25,71.74H256.37a.83.83,0,0,1-.83-.83V51a.84.84,0,0,1,.83-.84h12a.84.84,0,0,1,0,1.67H257.2V70.08h30.22V51.82H276.29a.84.84,0,0,1,0-1.67h12a.84.84,0,0,1,.83.84V70.91A.84.84,0,0,1,288.25,71.74Z"/><path class="a18d805d-6bfe-46ca-90fa-e05bb613654f" d="M290.9,75.72H253.72a.83.83,0,0,1,0-1.66H290.9a.83.83,0,0,1,0,1.66Z"/><line class="bf2448d5-cde1-45a5-84c1-ee7a182fd6dd" x1="206.59" y1="143.11" x2="206.59" y2="164.5"/><path class="a18d805d-6bfe-46ca-90fa-e05bb613654f" d="M224.18,193.89H189.65a.83.83,0,0,1-.83-.83V170.49a.83.83,0,0,1,.83-.83h34.53a.83.83,0,0,1,.83.83v22.57A.83.83,0,0,1,224.18,193.89Zm-33.7-1.66h32.87V171.32H190.48Z"/><path class="a18d805d-6bfe-46ca-90fa-e05bb613654f" d="M288.25,196.55H256.37a.83.83,0,0,1-.83-.83V175.8a.83.83,0,0,1,.83-.83h12a.83.83,0,0,1,0,1.66H257.2v18.26h30.22V176.63H276.29a.83.83,0,0,1,0-1.66h12a.83.83,0,0,1,.83.83v19.92A.83.83,0,0,1,288.25,196.55Z"/></g></svg>