<?xml version="1.0" encoding="utf-8"?>
<!-- Generator: Adobe Illustrator 26.0.1, SVG Export Plug-In . SVG Version: 6.00 Build 0)  -->
<svg version="1.1" id="b46e1982-84c4-4e25-a8a3-d58b3b959aab"
	 xmlns="http://www.w3.org/2000/svg" xmlns:xlink="http://www.w3.org/1999/xlink" x="0px" y="0px" viewBox="0 0 262 180"
	 style="enable-background:new 0 0 262 180;" xml:space="preserve">
<style type="text/css">
	.st0{fill:#F3F3F3;}
	.st1{enable-background:new    ;}
	.st2{fill:#EE0000;}
</style>
<rect x="32" y="26.5" class="st0" width="198" height="127"/>
<g class="st1">
	<path d="M90,60.2h-0.8l0.9-2.5h0.6L90,60.2z M91.7,60.2h-0.8l0.9-2.5h0.6L91.7,60.2z"/>
</g>
<g class="st1">
	<path d="M93.7,62.6v-4.3h0.8v4.3c0,1.5,0.9,2.5,2.2,2.5c1.3,0,2.2-1,2.2-2.5v-4.3h0.8v4.3c0,2-1.2,3.3-3,3.3
		C94.8,65.9,93.7,64.6,93.7,62.6z"/>
</g>
<g class="st1">
	<path d="M100.9,65.1l0.4-0.5c0.6,0.5,1.1,0.7,1.7,0.7c0.8,0,1.3-0.4,1.3-1c0-0.4-0.3-0.7-0.9-0.8l-0.9-0.1c-1-0.2-1.5-0.6-1.5-1.4
		c0-0.9,0.8-1.5,1.9-1.5c0.7,0,1.3,0.2,2,0.7l-0.4,0.5c-0.5-0.4-1.1-0.6-1.6-0.6c-0.7,0-1.1,0.3-1.1,0.8c0,0.4,0.2,0.6,0.9,0.7
		l0.9,0.2c1,0.2,1.5,0.6,1.5,1.4c0,0.9-0.9,1.6-2,1.6C102.1,65.9,101.4,65.6,100.9,65.1z"/>
	<path d="M106,58.7c0-0.3,0.3-0.6,0.6-0.6c0.3,0,0.6,0.3,0.6,0.6s-0.3,0.6-0.6,0.6C106.3,59.3,106,59,106,58.7z M106.2,60.6h0.8v5.2
		h-0.8V60.6z"/>
	<path d="M108.6,60.6h0.8v0.8c0.4-0.6,1-0.9,1.7-0.9c1.1,0,1.9,0.8,1.9,1.9v3.4h-0.8v-3.2c0-0.9-0.5-1.5-1.4-1.5
		c-0.6,0-1.1,0.3-1.4,0.8v3.9h-0.8V60.6z"/>
	<path d="M114.9,67.6l0.3-0.6c0.6,0.3,1.1,0.5,1.7,0.5c1,0,1.5-0.5,1.5-1.3v-1c-0.4,0.5-1,0.8-1.7,0.8c-1.4,0-2.4-1.2-2.4-2.7
		c0-1.5,1.1-2.7,2.4-2.7c0.7,0,1.2,0.3,1.6,0.7v-0.7h0.8v5.6c0,1.3-0.8,2-2.2,2C116.2,68.1,115.5,67.9,114.9,67.6z M118.3,64.5v-2.6
		c-0.3-0.4-0.9-0.7-1.5-0.7c-1,0-1.8,0.8-1.8,2s0.8,2,1.8,2C117.5,65.2,118,64.9,118.3,64.5z"/>
</g>
<g class="st1">
	<path d="M123.4,58.3h3.1c1.4,0,2.4,0.9,2.4,2.2c0,1-0.6,1.7-1.6,2l1.6,3.3h-0.9l-1.5-3.2h-2.2v3.2h-0.8V58.3z M126.4,61.9
		c1,0,1.6-0.6,1.6-1.4c0-0.9-0.6-1.4-1.6-1.4h-2.2v2.9H126.4z"/>
</g>
<g class="st1">
	<path d="M129.6,63.2c0-1.5,1.1-2.7,2.5-2.7c1.4,0,2.4,1.1,2.4,2.6v0.2h-4.1c0.1,1.1,0.9,1.9,1.9,1.9c0.5,0,1.1-0.2,1.4-0.5l0.5,0.5
		c-0.6,0.5-1.2,0.7-2,0.7C130.8,65.9,129.6,64.7,129.6,63.2z M133.7,62.8c-0.1-0.9-0.8-1.6-1.6-1.6c-0.9,0-1.5,0.7-1.7,1.6H133.7z"
		/>
	<path d="M135.6,63.2c0-1.5,1.1-2.7,2.5-2.7c0.6,0,1.2,0.3,1.6,0.7V58l0.8-0.2v7.9h-0.8v-0.7c-0.4,0.5-1,0.8-1.7,0.8
		C136.6,65.8,135.6,64.7,135.6,63.2z M139.7,64.5v-2.6c-0.3-0.4-0.9-0.7-1.5-0.7c-1,0-1.8,0.8-1.8,2s0.8,2,1.8,2
		C138.8,65.2,139.3,64.9,139.7,64.5z"/>
</g>
<g class="st1">
	<path d="M144.7,58.3h0.8v3.3h4.3v-3.3h0.8v7.5h-0.8v-3.4h-4.3v3.4h-0.8V58.3z"/>
</g>
<g class="st1">
	<path d="M152,64.3c0-0.9,0.8-1.6,2-1.6c0.6,0,1.1,0.1,1.6,0.4v-0.7c0-0.9-0.5-1.3-1.3-1.3c-0.5,0-1,0.1-1.6,0.4l-0.3-0.6
		c0.7-0.3,1.3-0.5,2-0.5c1.3,0,2,0.7,2,1.8v3.5h-0.8v-0.6c-0.5,0.5-1,0.7-1.7,0.7C152.8,65.9,152,65.2,152,64.3z M154.1,65.3
		c0.6,0,1.1-0.2,1.5-0.6v-1c-0.4-0.3-0.9-0.4-1.5-0.4c-0.8,0-1.3,0.4-1.3,1C152.8,64.9,153.3,65.3,154.1,65.3z"/>
</g>
<g class="st1">
	<path d="M158.4,64.6v-3.4h-1.1v-0.6h1.1v-1.4l0.8-0.2v1.6h1.5v0.6h-1.5v3.2c0,0.6,0.2,0.8,0.8,0.8c0.3,0,0.4,0,0.7-0.1v0.7
		c-0.3,0.1-0.6,0.1-0.9,0.1C158.8,65.9,158.4,65.4,158.4,64.6z"/>
</g>
<g class="st1">
	<path d="M93.9,77.5V74h-1.1v-0.6h1.1V72l0.8-0.2v1.6h1.5V74h-1.5v3.2c0,0.6,0.2,0.8,0.8,0.8c0.3,0,0.4,0,0.7-0.1v0.7
		c-0.3,0.1-0.6,0.1-0.9,0.1C94.4,78.7,93.9,78.3,93.9,77.5z"/>
</g>
<g class="st1">
	<path d="M97,76c0-1.5,1.1-2.7,2.5-2.7c1.4,0,2.4,1.1,2.4,2.6v0.2h-4.1c0.1,1.1,0.9,1.9,1.9,1.9c0.5,0,1.1-0.2,1.4-0.5l0.5,0.5
		c-0.6,0.5-1.2,0.7-2,0.7C98.1,78.7,97,77.6,97,76z M101.1,75.6c-0.1-0.9-0.8-1.6-1.6-1.6c-0.9,0-1.5,0.7-1.7,1.6H101.1z"/>
	<path d="M103,76c0-1.5,1.1-2.7,2.6-2.7c0.8,0,1.5,0.3,2,0.8l-0.5,0.5c-0.4-0.4-0.9-0.7-1.5-0.7c-1,0-1.8,0.9-1.8,2
		c0,1.1,0.8,2,1.8,2c0.5,0,1.1-0.2,1.5-0.7l0.5,0.5c-0.5,0.5-1.2,0.8-2,0.8C104.1,78.7,103,77.5,103,76z"/>
	<path d="M108.6,70.9l0.8-0.2v3.5c0.4-0.6,1-0.9,1.7-0.9c1.1,0,1.9,0.8,1.9,1.9v3.4h-0.8v-3.2c0-0.9-0.5-1.5-1.4-1.5
		c-0.6,0-1.1,0.3-1.4,0.8v3.9h-0.8V70.9z"/>
	<path d="M114.6,73.4h0.8v0.8c0.4-0.6,1-0.9,1.7-0.9c1.1,0,1.9,0.8,1.9,1.9v3.4h-0.8v-3.2c0-0.9-0.5-1.5-1.4-1.5
		c-0.6,0-1.1,0.3-1.4,0.8v3.9h-0.8V73.4z"/>
	<path d="M120.2,76c0-1.5,1.1-2.7,2.5-2.7c1.4,0,2.5,1.2,2.5,2.7c0,1.5-1.1,2.7-2.5,2.7C121.3,78.7,120.2,77.6,120.2,76z M124.5,76
		c0-1.1-0.7-2-1.8-2s-1.8,0.9-1.8,2s0.7,2,1.8,2S124.5,77.2,124.5,76z"/>
	<path d="M126.7,70.9l0.8-0.2v7.9h-0.8V70.9z"/>
	<path d="M128.8,76c0-1.5,1.1-2.7,2.5-2.7s2.5,1.2,2.5,2.7c0,1.5-1.1,2.7-2.5,2.7S128.8,77.6,128.8,76z M133.1,76c0-1.1-0.7-2-1.8-2
		c-1,0-1.8,0.9-1.8,2s0.7,2,1.8,2C132.4,78,133.1,77.2,133.1,76z"/>
	<path d="M135.6,80.4l0.3-0.6c0.6,0.3,1.1,0.5,1.7,0.5c1,0,1.5-0.5,1.5-1.3v-1c-0.4,0.5-1,0.8-1.7,0.8c-1.4,0-2.4-1.2-2.4-2.7
		c0-1.5,1.1-2.7,2.4-2.7c0.7,0,1.2,0.3,1.6,0.7v-0.7h0.8V79c0,1.3-0.8,2-2.2,2C137,81,136.2,80.8,135.6,80.4z M139.1,77.3v-2.6
		c-0.3-0.4-0.9-0.7-1.5-0.7c-1,0-1.8,0.8-1.8,2s0.8,2,1.8,2C138.2,78,138.8,77.8,139.1,77.3z"/>
	<path d="M141.2,80.9v-0.7c0.1,0,0.3,0,0.4,0c0.4,0,0.6-0.2,0.8-0.7l0.4-1l-2-5.2h0.9l1.6,4.3l1.7-4.3h0.9l-2.6,6.4
		c-0.4,0.8-0.7,1.2-1.5,1.2C141.6,81,141.4,80.9,141.2,80.9z"/>
	<path d="M149.3,70.9l0.8-0.2v3.5c0.4-0.6,1-0.9,1.7-0.9c1.1,0,1.9,0.8,1.9,1.9v3.4h-0.8v-3.2c0-0.9-0.5-1.5-1.4-1.5
		c-0.6,0-1.1,0.3-1.4,0.8v3.9h-0.8V70.9z"/>
	<path d="M154.9,77.1c0-0.9,0.8-1.6,2-1.6c0.6,0,1.1,0.1,1.6,0.4v-0.7c0-0.9-0.5-1.3-1.3-1.3c-0.5,0-1,0.1-1.6,0.4l-0.3-0.6
		c0.7-0.3,1.3-0.5,2-0.5c1.3,0,2,0.7,2,1.8v3.5h-0.8V78c-0.5,0.5-1,0.7-1.7,0.7C155.7,78.7,154.9,78.1,154.9,77.1z M157,78.1
		c0.6,0,1.1-0.2,1.5-0.6v-1c-0.4-0.3-0.9-0.4-1.5-0.4c-0.8,0-1.3,0.4-1.3,1C155.7,77.7,156.2,78.1,157,78.1z"/>
	<path d="M160.3,78l0.4-0.5c0.6,0.5,1.1,0.7,1.7,0.7c0.8,0,1.3-0.4,1.3-1c0-0.4-0.3-0.7-0.9-0.8l-0.9-0.1c-1-0.2-1.5-0.6-1.5-1.4
		c0-0.9,0.8-1.5,1.9-1.5c0.7,0,1.3,0.2,2,0.7l-0.4,0.5c-0.5-0.4-1.1-0.6-1.6-0.6c-0.7,0-1.1,0.3-1.1,0.8c0,0.4,0.2,0.6,0.9,0.7
		l0.9,0.2c1,0.2,1.5,0.6,1.5,1.4c0,0.9-0.9,1.6-2,1.6C161.6,78.7,160.9,78.5,160.3,78z"/>
	<path d="M168.2,70.9l0.8-0.2v3.5c0.4-0.6,1-0.9,1.7-0.9c1.1,0,1.9,0.8,1.9,1.9v3.4h-0.8v-3.2c0-0.9-0.5-1.5-1.4-1.5
		c-0.6,0-1.1,0.3-1.4,0.8v3.9h-0.8V70.9z"/>
	<path d="M173.8,76c0-1.5,1.1-2.7,2.5-2.7c1.4,0,2.4,1.1,2.4,2.6v0.2h-4.1c0.1,1.1,0.9,1.9,1.9,1.9c0.5,0,1.1-0.2,1.4-0.5l0.5,0.5
		c-0.6,0.5-1.2,0.7-2,0.7C175,78.7,173.8,77.6,173.8,76z M177.9,75.6c-0.1-0.9-0.8-1.6-1.6-1.6c-0.9,0-1.5,0.7-1.7,1.6H177.9z"/>
	<path d="M180,70.9l0.8-0.2v7.9H180V70.9z"/>
	<path d="M182.4,73.4h0.8v0.7c0.4-0.5,1-0.8,1.7-0.8c1.4,0,2.4,1.2,2.4,2.7c0,1.5-1.1,2.7-2.4,2.7c-0.7,0-1.2-0.3-1.6-0.7v2.9h-0.8
		V73.4z M186.5,76c0-1.1-0.8-2-1.8-2c-0.6,0-1.2,0.3-1.5,0.7v2.6c0.3,0.5,0.9,0.7,1.5,0.7C185.7,78,186.5,77.2,186.5,76z"/>
	<path d="M188.4,76c0-1.5,1.1-2.7,2.5-2.7c1.4,0,2.4,1.1,2.4,2.6v0.2h-4.1c0.1,1.1,0.9,1.9,1.9,1.9c0.5,0,1.1-0.2,1.4-0.5L193,78
		c-0.6,0.5-1.2,0.7-2,0.7C189.5,78.7,188.4,77.6,188.4,76z M192.5,75.6c-0.1-0.9-0.8-1.6-1.6-1.6c-0.9,0-1.5,0.7-1.7,1.6H192.5z"/>
	<path d="M194.4,76c0-1.5,1.1-2.7,2.4-2.7c0.6,0,1.2,0.3,1.6,0.7v-3.2l0.8-0.2v7.9h-0.8v-0.7c-0.4,0.5-1,0.8-1.7,0.8
		C195.4,78.7,194.4,77.5,194.4,76z M198.5,77.3v-2.6c-0.3-0.4-0.9-0.7-1.5-0.7c-1,0-1.8,0.8-1.8,2s0.8,2,1.8,2
		C197.6,78,198.1,77.8,198.5,77.3z"/>
</g>
<g class="st1">
	<path d="M93.3,86.2h0.8v0.8c0.4-0.6,0.9-0.9,1.6-0.9c0.7,0,1.3,0.4,1.6,1c0.4-0.7,1-1,1.7-1c1,0,1.8,0.8,1.8,1.9v3.4H100v-3.2
		c0-0.9-0.5-1.5-1.3-1.5c-0.5,0-1,0.3-1.3,0.8c0,0.1,0,0.3,0,0.5v3.4h-0.8v-3.2c0-0.9-0.5-1.5-1.3-1.5c-0.5,0-1,0.3-1.3,0.8v3.9
		h-0.8V86.2z"/>
	<path d="M102.1,88.8c0-1.5,1.1-2.7,2.5-2.7c1.4,0,2.4,1.1,2.4,2.6V89h-4.1c0.1,1.1,0.9,1.9,1.9,1.9c0.5,0,1.1-0.2,1.4-0.5l0.5,0.5
		c-0.6,0.5-1.2,0.7-2,0.7C103.2,91.6,102.1,90.4,102.1,88.8z M106.2,88.5c-0.1-0.9-0.8-1.6-1.6-1.6c-0.9,0-1.5,0.7-1.7,1.6H106.2z"
		/>
	<path d="M111.2,93.3l0.3-0.6c0.6,0.3,1.1,0.5,1.7,0.5c1,0,1.5-0.5,1.5-1.3v-1c-0.4,0.5-1,0.8-1.7,0.8c-1.4,0-2.4-1.2-2.4-2.7
		c0-1.5,1.1-2.7,2.4-2.7c0.7,0,1.2,0.3,1.6,0.7v-0.7h0.8v5.6c0,1.3-0.8,2-2.2,2C112.5,93.8,111.8,93.6,111.2,93.3z M114.6,90.1v-2.6
		c-0.3-0.4-0.9-0.7-1.5-0.7c-1,0-1.8,0.8-1.8,2s0.8,2,1.8,2C113.8,90.9,114.3,90.6,114.6,90.1z"/>
</g>
<g class="st1">
	<path d="M117,86.2h0.8v1.1c0.3-0.7,0.8-1.2,1.5-1.2c0.2,0,0.3,0,0.5,0.1v0.7c-0.2-0.1-0.4-0.1-0.5-0.1c-0.6,0-1.1,0.4-1.4,1.1v3.6
		H117V86.2z"/>
</g>
<g class="st1">
	<path d="M120.2,88.8c0-1.5,1.1-2.7,2.5-2.7c1.4,0,2.5,1.2,2.5,2.7c0,1.5-1.1,2.7-2.5,2.7C121.3,91.5,120.2,90.4,120.2,88.8z
		 M124.5,88.8c0-1.1-0.7-2-1.8-2s-1.8,0.9-1.8,2s0.7,2,1.8,2S124.5,90,124.5,88.8z"/>
</g>
<g class="st1">
	<path d="M126.1,86.2h0.8l1.1,4.2l1.3-4.2h0.7l1.3,4.2l1.1-4.2h0.7l-1.4,5.2h-0.8l-1.2-4.2l-1.2,4.2h-0.8L126.1,86.2z"/>
</g>
<g class="st1">
	<path d="M136.6,86.2h0.8v0.8c0.4-0.6,0.9-0.9,1.6-0.9c0.7,0,1.3,0.4,1.6,1c0.4-0.7,1-1,1.7-1c1,0,1.8,0.8,1.8,1.9v3.4h-0.8v-3.2
		c0-0.9-0.5-1.5-1.3-1.5c-0.5,0-1,0.3-1.3,0.8c0,0.1,0,0.3,0,0.5v3.4h-0.8v-3.2c0-0.9-0.5-1.5-1.3-1.5c-0.5,0-1,0.3-1.3,0.8v3.9
		h-0.8V86.2z"/>
</g>
<g class="st1">
	<path d="M145.2,93.7V93c0.1,0,0.3,0,0.4,0c0.4,0,0.6-0.2,0.8-0.7l0.4-1l-2-5.2h0.9l1.6,4.3l1.7-4.3h0.9l-2.6,6.4
		c-0.4,0.8-0.7,1.2-1.5,1.2C145.6,93.8,145.4,93.8,145.2,93.7z"/>
	<path d="M153.4,84h0.8v7.5h-0.8V84z"/>
	<path d="M158.1,84.7h-2.6V84h6v0.7h-2.6v6.8h-0.8V84.7z"/>
</g>
<g class="st1">
	<path d="M164.6,90.8l0.4-0.5c0.6,0.5,1.1,0.7,1.7,0.7c0.8,0,1.3-0.4,1.3-1c0-0.4-0.3-0.7-0.9-0.8l-0.9-0.1c-1-0.2-1.5-0.6-1.5-1.4
		c0-0.9,0.8-1.5,1.9-1.5c0.7,0,1.3,0.2,2,0.7l-0.4,0.5c-0.5-0.4-1.1-0.6-1.6-0.6c-0.7,0-1.1,0.3-1.1,0.8c0,0.4,0.2,0.6,0.9,0.7
		l0.9,0.2c1,0.2,1.5,0.6,1.5,1.4c0,0.9-0.9,1.6-2,1.6C165.9,91.6,165.1,91.3,164.6,90.8z"/>
</g>
<g class="st1">
	<path d="M169.8,88.8c0-1.5,1.1-2.7,2.5-2.7c1.4,0,2.4,1.1,2.4,2.6V89h-4.1c0.1,1.1,0.9,1.9,1.9,1.9c0.5,0,1.1-0.2,1.4-0.5l0.5,0.5
		c-0.6,0.5-1.2,0.7-2,0.7C170.9,91.6,169.8,90.4,169.8,88.8z M173.9,88.5c-0.1-0.9-0.8-1.6-1.6-1.6c-0.9,0-1.5,0.7-1.7,1.6H173.9z"
		/>
</g>
<g class="st1">
	<path d="M176,86.2h0.8v1.1c0.3-0.7,0.8-1.2,1.5-1.2c0.2,0,0.3,0,0.5,0.1v0.7c-0.2-0.1-0.4-0.1-0.5-0.1c-0.6,0-1.1,0.4-1.4,1.1v3.6
		H176V86.2z"/>
</g>
<g class="st1">
	<path d="M179.3,86.2h0.8l1.7,4.2l1.7-4.2h0.8l-2.1,5.2h-0.7L179.3,86.2z"/>
	<path d="M185.1,84.4c0-0.3,0.3-0.6,0.6-0.6c0.3,0,0.6,0.3,0.6,0.6s-0.3,0.6-0.6,0.6C185.3,84.9,185.1,84.7,185.1,84.4z M185.3,86.2
		h0.8v5.2h-0.8V86.2z"/>
</g>
<g class="st1">
	<path d="M187.4,88.8c0-1.5,1.1-2.7,2.6-2.7c0.8,0,1.5,0.3,2,0.8l-0.5,0.5c-0.4-0.4-0.9-0.7-1.5-0.7c-1,0-1.8,0.9-1.8,2
		c0,1.1,0.8,2,1.8,2c0.5,0,1.1-0.2,1.5-0.7l0.5,0.5c-0.5,0.5-1.2,0.8-2,0.8C188.5,91.5,187.4,90.4,187.4,88.8z"/>
</g>
<g class="st1">
	<path d="M192.7,88.8c0-1.5,1.1-2.7,2.5-2.7c1.4,0,2.4,1.1,2.4,2.6V89h-4.1c0.1,1.1,0.9,1.9,1.9,1.9c0.5,0,1.1-0.2,1.4-0.5l0.5,0.5
		c-0.6,0.5-1.2,0.7-2,0.7C193.8,91.6,192.7,90.4,192.7,88.8z M196.8,88.5c-0.1-0.9-0.8-1.6-1.6-1.6c-0.9,0-1.5,0.7-1.7,1.6H196.8z"
		/>
</g>
<g class="st1">
	<path d="M198.4,90.8l0.4-0.5c0.6,0.5,1.1,0.7,1.7,0.7c0.8,0,1.3-0.4,1.3-1c0-0.4-0.3-0.7-0.9-0.8l-0.9-0.1c-1-0.2-1.5-0.6-1.5-1.4
		c0-0.9,0.8-1.5,1.9-1.5c0.7,0,1.3,0.2,2,0.7l-0.4,0.5c-0.5-0.4-1.1-0.6-1.6-0.6c-0.7,0-1.1,0.3-1.1,0.8c0,0.4,0.2,0.6,0.9,0.7
		l0.9,0.2c1,0.2,1.5,0.6,1.5,1.4c0,0.9-0.9,1.6-2,1.6C199.7,91.6,199,91.3,198.4,90.8z"/>
</g>
<g class="st1">
	<path d="M203.6,91c0-0.3,0.3-0.6,0.6-0.6s0.6,0.3,0.6,0.6c0,0.3-0.3,0.6-0.6,0.6S203.6,91.3,203.6,91z"/>
</g>
<g class="st1">
	<path d="M206.3,83.4h0.8l-0.9,2.5h-0.6L206.3,83.4z M208,83.4h0.8l-0.9,2.5h-0.6L208,83.4z"/>
</g>
<g class="st1">
	<path class="st2" d="M93.2,108.1h6.1v0.7h-6.1V108.1z"/>
</g>
<g class="st1">
	<path d="M92.8,123.2l0.5-0.6c0.9,0.8,1.6,1.2,2.6,1.2c1.2,0,2-0.6,2-1.5c0-0.7-0.4-1.1-1.7-1.3l-1.2-0.2c-1.4-0.2-2-0.8-2-1.8
		c0-1.3,1-2.2,2.6-2.2c1.1,0,2,0.3,3,1l-0.4,0.6c-0.8-0.6-1.6-0.9-2.5-0.9c-1,0-1.8,0.6-1.8,1.4c0,0.7,0.4,1,1.4,1.2l1.2,0.2
		c1.6,0.3,2.3,0.9,2.3,2c0,1.3-1.2,2.3-2.8,2.3C94.7,124.4,93.7,124,92.8,123.2z"/>
	<path d="M100,116.6l0.8-0.2v3.5c0.4-0.6,1-0.9,1.7-0.9c1.1,0,1.9,0.8,1.9,1.9v3.4h-0.8v-3.2c0-0.9-0.5-1.5-1.4-1.5
		c-0.6,0-1.1,0.3-1.4,0.8v3.9H100V116.6z"/>
	<path d="M105.6,122.8c0-0.9,0.8-1.6,2-1.6c0.6,0,1.1,0.1,1.6,0.4V121c0-0.9-0.5-1.3-1.3-1.3c-0.5,0-1,0.1-1.6,0.4l-0.3-0.6
		c0.7-0.3,1.3-0.5,2-0.5c1.3,0,2,0.7,2,1.8v3.5h-0.8v-0.6c-0.5,0.5-1,0.7-1.7,0.7C106.4,124.4,105.6,123.8,105.6,122.8z
		 M107.6,123.8c0.6,0,1.1-0.2,1.5-0.6v-1c-0.4-0.3-0.9-0.4-1.5-0.4c-0.8,0-1.3,0.4-1.3,1C106.3,123.4,106.9,123.8,107.6,123.8z"/>
	<path d="M111.3,121.7c0-1.5,1.1-2.7,2.4-2.7c0.6,0,1.2,0.3,1.6,0.7v-3.2l0.8-0.2v7.9h-0.8v-0.7c-0.4,0.5-1,0.8-1.7,0.8
		C112.3,124.4,111.3,123.2,111.3,121.7z M115.3,123v-2.6c-0.3-0.4-0.9-0.7-1.5-0.7c-1,0-1.8,0.8-1.8,2s0.8,2,1.8,2
		C114.5,123.7,115,123.5,115.3,123z"/>
</g>
<g class="st1">
	<path d="M117.5,121.7c0-1.5,1.1-2.7,2.5-2.7c1.4,0,2.5,1.2,2.5,2.7c0,1.5-1.1,2.7-2.5,2.7C118.6,124.4,117.5,123.2,117.5,121.7z
		 M121.8,121.7c0-1.1-0.7-2-1.8-2s-1.8,0.9-1.8,2s0.7,2,1.8,2S121.8,122.8,121.8,121.7z"/>
</g>
<g class="st1">
	<path d="M123.3,119.1h0.8l1.1,4.2l1.3-4.2h0.7l1.3,4.2l1.1-4.2h0.7l-1.4,5.2H128l-1.2-4.2l-1.2,4.2h-0.8L123.3,119.1z"/>
	<path d="M131.3,119.1h0.8v0.8c0.4-0.6,0.9-0.9,1.6-0.9c0.7,0,1.3,0.4,1.6,1c0.4-0.7,1-1,1.7-1c1,0,1.8,0.8,1.8,1.9v3.4H138v-3.2
		c0-0.9-0.5-1.5-1.3-1.5c-0.5,0-1,0.3-1.3,0.8c0,0.1,0,0.3,0,0.5v3.4h-0.8v-3.2c0-0.9-0.5-1.5-1.3-1.5c-0.5,0-1,0.3-1.3,0.8v3.9
		h-0.8V119.1z"/>
	<path d="M140.1,122.8c0-0.9,0.8-1.6,2-1.6c0.6,0,1.1,0.1,1.6,0.4V121c0-0.9-0.5-1.3-1.3-1.3c-0.5,0-1,0.1-1.6,0.4l-0.3-0.6
		c0.7-0.3,1.3-0.5,2-0.5c1.3,0,2,0.7,2,1.8v3.5h-0.8v-0.6c-0.5,0.5-1,0.7-1.7,0.7C140.9,124.4,140.1,123.8,140.1,122.8z
		 M142.1,123.8c0.6,0,1.1-0.2,1.5-0.6v-1c-0.4-0.3-0.9-0.4-1.5-0.4c-0.8,0-1.3,0.4-1.3,1C140.8,123.4,141.3,123.8,142.1,123.8z"/>
	<path d="M146,119.1h0.8v0.8c0.4-0.6,1-0.9,1.7-0.9c1.1,0,1.9,0.8,1.9,1.9v3.4h-0.8v-3.2c0-0.9-0.5-1.5-1.4-1.5
		c-0.6,0-1.1,0.3-1.4,0.8v3.9H146V119.1z"/>
</g>
<path class="st2" d="M77.4,79.9c-0.2,0-0.3-0.1-0.4-0.2l-5.3-5.3H57c-0.3,0-0.6-0.3-0.6-0.6V58.6c0-0.3,0.3-0.6,0.6-0.6c0,0,0,0,0,0
	h24.5c0.3,0,0.6,0.3,0.6,0.6v0v15.3c0,0.2-0.1,0.3-0.2,0.4c-0.1,0.1-0.3,0.2-0.4,0.2H78v4.8c0,0.2-0.1,0.5-0.4,0.5
	C77.6,79.9,77.5,79.9,77.4,79.9z M57.6,73.3H72c0.2,0,0.3,0.1,0.4,0.2l4.4,4.4v-4c0-0.2,0.1-0.3,0.2-0.4c0.1-0.1,0.3-0.2,0.4-0.2
	h3.5V59.2H57.6V73.3z"/>
</svg>
