<svg id="bd1a17e2-6ea0-4819-93f4-67ccb32c8e31" data-name="Layer 1" xmlns="http://www.w3.org/2000/svg" xmlns:xlink="http://www.w3.org/1999/xlink" viewBox="0 0 262 180"><defs><style>.afd40ec1-c4b0-4cb5-a6ac-2458ab60a5c8{fill:none;}.bd585108-9626-4183-8353-b31a1b4412e6{clip-path:url(#a40376cb-9923-4e61-9eff-8c0a88ea08bb);}.b331af71-2421-4e86-8d89-07f40f7d1ade{fill:#4d4d4d;}.a65d05dc-705a-4315-8620-d61fdfc97305{clip-path:url(#f6cc47c0-68ff-4d36-a788-589dafd55ba7);}.b5b7b488-160a-4cf9-a436-114e12b16154{fill:#fab6b6;}.b9230dec-20f1-493a-bce9-a1fb58da6e5e{fill:#e00;}</style><clipPath id="a40376cb-9923-4e61-9eff-8c0a88ea08bb"><rect class="afd40ec1-c4b0-4cb5-a6ac-2458ab60a5c8" x="283" width="262" height="180" rx="3"/></clipPath><clipPath id="f6cc47c0-68ff-4d36-a788-589dafd55ba7"><rect class="afd40ec1-c4b0-4cb5-a6ac-2458ab60a5c8" width="262" height="180" rx="3"/></clipPath></defs><g class="bd585108-9626-4183-8353-b31a1b4412e6"><path class="b331af71-2421-4e86-8d89-07f40f7d1ade" d="M225.8,27.81H201.9a.84.84,0,0,1-.83-.83V12.37a.84.84,0,0,1,.83-.83h14.26l5.07-5.06a.82.82,0,0,1,.9-.18.84.84,0,0,1,.52.76v4.48h3.15a.79.79,0,0,1,.58.24.83.83,0,0,1,.25.59V27A.83.83,0,0,1,225.8,27.81Zm-23.07-1.66H225v-13h-3.15a.82.82,0,0,1-.59-.24.81.81,0,0,1-.24-.59V9.07L217.09,13a.78.78,0,0,1-.58.24H202.73Z"/><path class="b331af71-2421-4e86-8d89-07f40f7d1ade" d="M197.92,15.86h-6.64a.83.83,0,0,1-.83-.83V.41a.83.83,0,0,1,.25-.59.79.79,0,0,1,.59-.24h3.15V-4.88a.83.83,0,0,1,.51-.77.82.82,0,0,1,.9.18L200.92-.4h14.26a.83.83,0,0,1,.83.83v8a.83.83,0,0,1-1.66,0V1.26H200.58A.82.82,0,0,1,200,1L196.1-2.88V.43a.79.79,0,0,1-.25.58.79.79,0,0,1-.58.25h0l-3.15,0v13h5.81a.83.83,0,0,1,0,1.66Z"/><path class="b331af71-2421-4e86-8d89-07f40f7d1ade" d="M158.62,54.36a.71.71,0,0,1-.32-.07.83.83,0,0,1-.51-.76V49.05h-3.15a.73.73,0,0,1-.59-.24.82.82,0,0,1-.24-.59V33.61a.83.83,0,0,1,.83-.83h23.89a.83.83,0,0,1,.83.83V48.22a.83.83,0,0,1-.83.83H164.27l-5.07,5.06A.81.81,0,0,1,158.62,54.36Zm0-7a.78.78,0,0,1,.58.24.82.82,0,0,1,.25.59v3.3l3.89-3.89a.82.82,0,0,1,.59-.24H177.7v-13H155.47v13h3.15Z"/><path class="b331af71-2421-4e86-8d89-07f40f7d1ade" d="M185.17,66.3a.82.82,0,0,1-.59-.24L179.51,61H165.26a.83.83,0,0,1-.83-.83v-8a.83.83,0,0,1,1.66,0v7.13h13.77a.79.79,0,0,1,.58.25l3.9,3.89V60.16a.83.83,0,0,1,.24-.58.63.63,0,0,1,.59-.25l3.15,0v-13h-5.81a.83.83,0,0,1,0-1.66h6.64a.83.83,0,0,1,.83.83V60.18a.87.87,0,0,1-.24.59.78.78,0,0,1-.59.24H186v4.47a.83.83,0,0,1-.51.77A.91.91,0,0,1,185.17,66.3Z"/><path class="b331af71-2421-4e86-8d89-07f40f7d1ade" d="M251.46,26.48a.7.7,0,0,1-.31-.07.83.83,0,0,1-.52-.76V18.81l-4.92,0a.87.87,0,0,1-.58-.24.83.83,0,0,1-.25-.59V-3.56a.83.83,0,0,1,.83-.83h34.52a.84.84,0,0,1,.83.83V18a.83.83,0,0,1-.83.83H259.48l-7.43,7.43A.87.87,0,0,1,251.46,26.48Zm0-9.33a.87.87,0,0,1,.59.24.82.82,0,0,1,.24.59v5.67l6.26-6.26a.83.83,0,0,1,.58-.24H279.4V-2.73H246.54v19.9l4.92,0Z"/><path class="b331af71-2421-4e86-8d89-07f40f7d1ade" d="M243.58,65H209.06a.84.84,0,0,1-.83-.83V42.61a.83.83,0,0,1,.83-.83h20.75l7.43-7.43a.83.83,0,0,1,1.42.59v6.84l4.92,0a1,1,0,0,1,.58.24.83.83,0,0,1,.25.59V64.15A.83.83,0,0,1,243.58,65Zm-33.69-1.66h32.86V43.42l-4.92,0h0a.87.87,0,0,1-.59-.24.82.82,0,0,1-.24-.59V36.94l-6.26,6.26a.83.83,0,0,1-.58.24H209.89Z"/><path class="b331af71-2421-4e86-8d89-07f40f7d1ade" d="M225.8,106.13H201.9a.83.83,0,0,1-.83-.83V90.7a.83.83,0,0,1,.83-.83h14.26l5.07-5.07a.82.82,0,0,1,.9-.18.84.84,0,0,1,.52.77v4.47h3.15a.85.85,0,0,1,.83.83V105.3A.83.83,0,0,1,225.8,106.13Zm-23.07-1.66H225v-13l-3.15,0a.83.83,0,0,1-.59-.25.78.78,0,0,1-.24-.58V87.39l-3.9,3.89a.79.79,0,0,1-.58.25H202.73Z"/><path class="b331af71-2421-4e86-8d89-07f40f7d1ade" d="M197.92,94.18h-6.64a.83.83,0,0,1-.83-.83V78.73a.79.79,0,0,1,.25-.58.78.78,0,0,1,.58-.24h3.16V73.44a.83.83,0,0,1,.51-.77.82.82,0,0,1,.9.18l5.07,5.07h14.26a.83.83,0,0,1,.83.83v8a.83.83,0,1,1-1.66,0V79.58H200.58a.85.85,0,0,1-.59-.24l-3.89-3.9v3.31a.83.83,0,0,1-.25.59.82.82,0,0,1-.59.24h-3.15v13h5.81a.83.83,0,1,1,0,1.66Z"/><path class="b331af71-2421-4e86-8d89-07f40f7d1ade" d="M158.62,132.68a.87.87,0,0,1-.32-.06.83.83,0,0,1-.51-.77v-4.48h-3.15a1,1,0,0,1-.59-.24.81.81,0,0,1-.24-.59V111.94a.83.83,0,0,1,.83-.83h23.89a.83.83,0,0,1,.83.83v14.6a.83.83,0,0,1-.83.83H164.27l-5.07,5.07A.84.84,0,0,1,158.62,132.68Zm0-7a.83.83,0,0,1,.58.24.83.83,0,0,1,.25.59v3.31l3.89-3.9a.87.87,0,0,1,.59-.24H177.7V112.77H155.47v13h3.15Z"/><path class="b331af71-2421-4e86-8d89-07f40f7d1ade" d="M185.17,144.63a.83.83,0,0,1-.59-.25l-5.07-5.06H165.26a.83.83,0,0,1-.83-.83v-8a.83.83,0,1,1,1.66,0v7.14h13.77a.78.78,0,0,1,.58.24l3.9,3.89v-3.3a.87.87,0,0,1,.24-.59.82.82,0,0,1,.59-.24h3.15v-13h-5.81a.83.83,0,1,1,0-1.66h6.64a.83.83,0,0,1,.83.83V138.5a.87.87,0,0,1-.24.59,1.09,1.09,0,0,1-.59.24H186v4.48a.83.83,0,0,1-.51.76A.74.74,0,0,1,185.17,144.63Z"/><path class="b331af71-2421-4e86-8d89-07f40f7d1ade" d="M251.46,104.8a.85.85,0,0,1-.31-.06.84.84,0,0,1-.52-.77V97.13l-4.92,0h0a.78.78,0,0,1-.58-.24.83.83,0,0,1-.25-.59V74.77a.83.83,0,0,1,.83-.83h34.52a.83.83,0,0,1,.83.83V96.3a.83.83,0,0,1-.83.83H259.48l-7.43,7.43A.82.82,0,0,1,251.46,104.8Zm0-9.33a.87.87,0,0,1,.59.24.82.82,0,0,1,.24.59V102l6.26-6.26a.83.83,0,0,1,.58-.24H279.4V75.6H246.54V95.49l4.92,0Z"/><path class="b331af71-2421-4e86-8d89-07f40f7d1ade" d="M243.58,143.3H209.06a.83.83,0,0,1-.83-.83V120.94a.83.83,0,0,1,.83-.83h20.75l7.43-7.43a.82.82,0,0,1,.9-.18.84.84,0,0,1,.52.76v6.84l4.92,0a.65.65,0,0,1,.58.25.79.79,0,0,1,.25.58v21.56A.83.83,0,0,1,243.58,143.3Zm-33.69-1.66h32.86V121.75h-4.92a.82.82,0,0,1-.59-.24.78.78,0,0,1-.24-.58v-5.67l-6.26,6.25a.78.78,0,0,1-.58.24H209.89Z"/><path class="b331af71-2421-4e86-8d89-07f40f7d1ade" d="M225.8,184.45H201.9a.83.83,0,0,1-.83-.83V169a.83.83,0,0,1,.83-.83h14.26l5.07-5.07a.85.85,0,0,1,.9-.18.84.84,0,0,1,.52.77v4.48h3.15a.78.78,0,0,1,.58.24.82.82,0,0,1,.25.59v14.61A.83.83,0,0,1,225.8,184.45Zm-23.07-1.66H225V169.84h-3.15a.87.87,0,0,1-.59-.24A.82.82,0,0,1,221,169v-3.31l-3.9,3.9a.83.83,0,0,1-.58.24H202.73Z"/><path class="b331af71-2421-4e86-8d89-07f40f7d1ade" d="M197.92,172.5h-6.64a.83.83,0,0,1-.83-.83V157.06a.83.83,0,0,1,.25-.59.83.83,0,0,1,.58-.24h3.16v-4.48A.82.82,0,0,1,195,151a.83.83,0,0,1,.9.17l5.07,5.07h14.26a.83.83,0,0,1,.83.83v8a.83.83,0,0,1-1.66,0V157.9H200.58a.85.85,0,0,1-.59-.24l-3.89-3.89v3.3a.83.83,0,0,1-.25.59.83.83,0,0,1-.58.24h-3.16v13h5.81a.83.83,0,1,1,0,1.65Z"/><path class="b331af71-2421-4e86-8d89-07f40f7d1ade" d="M251.46,183.12a.85.85,0,0,1-.31-.06.84.84,0,0,1-.52-.77v-6.83l-4.92,0a.64.64,0,0,1-.58-.25.79.79,0,0,1-.25-.58V153.09a.83.83,0,0,1,.83-.83h34.52a.83.83,0,0,1,.83.83v21.54a.84.84,0,0,1-.83.83H259.48l-7.43,7.42A.82.82,0,0,1,251.46,183.12Zm0-9.32a.82.82,0,0,1,.59.24.79.79,0,0,1,.24.59v5.66l6.26-6.25a.78.78,0,0,1,.58-.24H279.4V153.92H246.54v19.89Z"/></g><g class="a65d05dc-705a-4315-8620-d61fdfc97305"><path class="b5b7b488-160a-4cf9-a436-114e12b16154" d="M186.33,10.46a.82.82,0,0,1-.59-.24l-5.07-5.07H166.41a.83.83,0,0,1-.83-.83v-8a.84.84,0,0,1,.83-.83.83.83,0,0,1,.83.83V3.49H181a.83.83,0,0,1,.58.24l3.9,3.9V4.32a.82.82,0,0,1,.24-.59.65.65,0,0,1,.59-.24h3.15V-9.45h-5.81a.83.83,0,0,1-.83-.83.83.83,0,0,1,.83-.83h6.64a.83.83,0,0,1,.83.83V4.33a.82.82,0,0,1-.25.59.67.67,0,0,1-.58.24h-3.15V9.63a.84.84,0,0,1-.52.77A.85.85,0,0,1,186.33,10.46Z"/><path class="b5b7b488-160a-4cf9-a436-114e12b16154" d="M244.74,9.13H210.22a.83.83,0,0,1-.83-.83V-13.23a.83.83,0,0,1,.83-.83H231l7.43-7.43a.82.82,0,0,1,.9-.18.83.83,0,0,1,.51.77v6.84l4.92,0h0a.78.78,0,0,1,.58.24.83.83,0,0,1,.25.59V8.3A.83.83,0,0,1,244.74,9.13ZM211.05,7.47h32.86V-12.42l-4.92,0h0a.83.83,0,0,1-.58-.24.83.83,0,0,1-.25-.59V-18.9l-6.25,6.26a.85.85,0,0,1-.59.24H211.05Z"/><path class="b5b7b488-160a-4cf9-a436-114e12b16154" d="M27,9.13H-7.49a.83.83,0,0,1-.83-.83V-13.23a.83.83,0,0,1,.83-.83H13.26l7.43-7.43a.81.81,0,0,1,.9-.18.83.83,0,0,1,.51.77v6.84l4.92,0a.93.93,0,0,1,.59.24.82.82,0,0,1,.24.59V8.3A.83.83,0,0,1,27,9.13ZM-6.66,7.47H26.2V-12.42l-4.92,0h0a.83.83,0,0,1-.58-.24.83.83,0,0,1-.25-.59V-18.9l-6.25,6.26a.87.87,0,0,1-.59.24H-6.66Z"/><path class="b5b7b488-160a-4cf9-a436-114e12b16154" d="M77.47,10.46a.82.82,0,0,1-.59-.24L71.82,5.15H57.56a.83.83,0,0,1-.83-.83v-8a.83.83,0,0,1,.83-.83.83.83,0,0,1,.83.83V3.49H72.16a.87.87,0,0,1,.59.24l3.89,3.9V4.32a.87.87,0,0,1,.24-.59.65.65,0,0,1,.59-.24h3.15V-9.45h-5.8a.83.83,0,0,1-.83-.83.83.83,0,0,1,.83-.83h6.63a.83.83,0,0,1,.83.83V4.33a.81.81,0,0,1-.24.59.7.7,0,0,1-.59.24H78.3V9.63a.83.83,0,0,1-.51.77A.91.91,0,0,1,77.47,10.46Z"/><path class="b5b7b488-160a-4cf9-a436-114e12b16154" d="M135.88,9.13H101.37a.83.83,0,0,1-.83-.83V-13.23a.83.83,0,0,1,.83-.83h20.75l7.42-7.43a.83.83,0,0,1,.91-.18.83.83,0,0,1,.51.77v6.84l4.92,0a.93.93,0,0,1,.59.24.87.87,0,0,1,.24.59V8.3A.83.83,0,0,1,135.88,9.13ZM102.2,7.47h32.85V-12.42l-4.92,0h0a.87.87,0,0,1-.59-.24.87.87,0,0,1-.24-.59V-18.9l-6.25,6.26a.87.87,0,0,1-.59.24H102.2Z"/><path class="b5b7b488-160a-4cf9-a436-114e12b16154" d="M227,50.28h-23.9a.83.83,0,0,1-.83-.82V34.85a.83.83,0,0,1,.83-.83h14.26L222.39,29a.83.83,0,0,1,1.41.58V34H227a.83.83,0,0,1,.58.24.83.83,0,0,1,.25.59V49.46A.83.83,0,0,1,227,50.28Zm-23.07-1.65h22.24v-13H223a.78.78,0,0,1-.59-.24.83.83,0,0,1-.25-.59v-3.3l-3.89,3.89a.81.81,0,0,1-.59.24H203.89Z"/><path class="b5b7b488-160a-4cf9-a436-114e12b16154" d="M199.08,38.34h-6.64a.83.83,0,0,1-.83-.83V22.89a.83.83,0,0,1,.25-.59.83.83,0,0,1,.58-.24h3.15V17.59a.84.84,0,0,1,.52-.76.82.82,0,0,1,.9.18l5.07,5.07h14.26a.83.83,0,0,1,.83.82v8a.83.83,0,0,1-1.66,0V23.73H201.73a.78.78,0,0,1-.58-.24l-3.9-3.89v3.3a.79.79,0,0,1-.24.59.77.77,0,0,1-.59.24h-3.15v13h5.81a.83.83,0,1,1,0,1.66Z"/><path class="b5b7b488-160a-4cf9-a436-114e12b16154" d="M159.78,76.83a.87.87,0,0,1-.32-.06A.83.83,0,0,1,159,76V71.53H155.8a1.11,1.11,0,0,1-.59-.24.83.83,0,0,1-.25-.59V56.09a.83.83,0,0,1,.83-.83h23.9a.83.83,0,0,1,.83.83V70.7a.83.83,0,0,1-.83.82H165.43l-5.07,5.07A.82.82,0,0,1,159.78,76.83Zm0-7a.78.78,0,0,1,.58.24.8.8,0,0,1,.25.59V74l3.89-3.89a.81.81,0,0,1,.59-.24h13.77v-13H156.62v13h3.16Z"/><path class="b5b7b488-160a-4cf9-a436-114e12b16154" d="M186.33,88.78a.82.82,0,0,1-.59-.24l-5.07-5.07H166.41a.83.83,0,0,1-.83-.83v-8a.83.83,0,0,1,1.66,0v7.13H181a.79.79,0,0,1,.58.25L185.5,86V82.64a.78.78,0,0,1,.24-.58.83.83,0,0,1,.59-.25h3.15V68.87h-5.81a.83.83,0,0,1,0-1.66h6.64a.83.83,0,0,1,.83.83V82.66a.79.79,0,0,1-.25.58,1.09,1.09,0,0,1-.58.25h-3.15V88a.84.84,0,0,1-.52.77A.85.85,0,0,1,186.33,88.78Z"/><path class="b5b7b488-160a-4cf9-a436-114e12b16154" d="M252.62,49a.74.74,0,0,1-.32-.07.82.82,0,0,1-.51-.76V41.29l-4.92,0h0a.82.82,0,0,1-.83-.83V18.92a.83.83,0,0,1,.83-.83h34.51a.83.83,0,0,1,.83.83V40.46a.83.83,0,0,1-.83.83H260.64l-7.43,7.42A.83.83,0,0,1,252.62,49Zm0-9.33a.82.82,0,0,1,.83.83v5.66l6.25-6.25a.87.87,0,0,1,.59-.24h20.26V19.75H247.7v19.9l4.92,0Z"/><path class="b5b7b488-160a-4cf9-a436-114e12b16154" d="M244.74,87.46H210.22a.83.83,0,0,1-.83-.83V65.09a.83.83,0,0,1,.83-.83H231l7.43-7.43a.83.83,0,0,1,1.41.59v6.84l4.92,0h0a.83.83,0,0,1,.58.24.83.83,0,0,1,.25.59V86.63A.84.84,0,0,1,244.74,87.46ZM211.05,85.8h32.86V65.9l-4.92,0h0a.83.83,0,0,1-.58-.24.83.83,0,0,1-.25-.59V59.42l-6.25,6.26a.85.85,0,0,1-.59.24H211.05Z"/><path class="b5b7b488-160a-4cf9-a436-114e12b16154" d="M227,128.61h-23.9a.83.83,0,0,1-.83-.83v-14.6a.83.83,0,0,1,.83-.83h14.26l5.07-5.07a.81.81,0,0,1,.9-.18.83.83,0,0,1,.51.77v4.47H227a.83.83,0,0,1,.58.24.83.83,0,0,1,.25.59v14.62A.83.83,0,0,1,227,128.61ZM203.89,127h22.24V114L223,114h0a.85.85,0,0,1-.83-.83v-3.31l-3.89,3.89a.82.82,0,0,1-.59.25H203.89Z"/><path class="b5b7b488-160a-4cf9-a436-114e12b16154" d="M199.08,116.66h-6.64a.83.83,0,0,1-.83-.83V101.21a.85.85,0,0,1,.83-.83h0l3.15,0V95.92a.84.84,0,0,1,.52-.77.82.82,0,0,1,.9.18l5.07,5.07h14.26a.83.83,0,0,1,.83.83v8a.83.83,0,1,1-1.66,0v-7.13H201.73a.83.83,0,0,1-.58-.24l-3.9-3.9v3.31a.82.82,0,0,1-.24.59,1.37,1.37,0,0,1-.59.24h-3.15v13h5.81a.83.83,0,0,1,0,1.66Z"/><path class="b5b7b488-160a-4cf9-a436-114e12b16154" d="M252.62,127.28a.91.91,0,0,1-.32-.06.83.83,0,0,1-.51-.77v-6.84l-4.92,0a.67.67,0,0,1-.59-.24.87.87,0,0,1-.24-.59V97.25a.83.83,0,0,1,.83-.83h34.51a.83.83,0,0,1,.83.83v21.53a.83.83,0,0,1-.83.83H260.64L253.21,127A.82.82,0,0,1,252.62,127.28Zm0-9.33a.82.82,0,0,1,.83.83v5.67l6.25-6.26a.87.87,0,0,1,.59-.24h20.26V98.08H247.7V118l4.92,0Z"/><path class="b5b7b488-160a-4cf9-a436-114e12b16154" d="M244.74,165.78H210.22a.83.83,0,0,1-.83-.83V143.41a.83.83,0,0,1,.83-.83H231l7.43-7.42a.82.82,0,0,1,.9-.18.83.83,0,0,1,.51.76v6.84l4.92,0h0a.85.85,0,0,1,.83.83V165A.83.83,0,0,1,244.74,165.78Zm-33.69-1.66h32.86V144.23H239a.79.79,0,0,1-.59-.24.82.82,0,0,1-.25-.59v-5.66L231.9,144a.81.81,0,0,1-.59.24H211.05Z"/><path class="b5b7b488-160a-4cf9-a436-114e12b16154" d="M9.24,50.28H-14.65a.83.83,0,0,1-.83-.82V34.85a.83.83,0,0,1,.83-.83H-.39L4.68,29a.83.83,0,0,1,1.41.58V34H9.24a.85.85,0,0,1,.59.24.82.82,0,0,1,.24.59V49.46A.83.83,0,0,1,9.24,50.28Zm-23.06-1.65H8.42v-13H5.27a.76.76,0,0,1-.59-.24.83.83,0,0,1-.25-.59v-3.3L.54,35.44a.82.82,0,0,1-.59.24H-13.82Z"/><path class="b5b7b488-160a-4cf9-a436-114e12b16154" d="M34.91,49a.74.74,0,0,1-.32-.07.82.82,0,0,1-.51-.76V41.29l-4.92,0h0a.82.82,0,0,1-.83-.83V18.92a.83.83,0,0,1,.83-.83H63.67a.83.83,0,0,1,.83.83V40.46a.83.83,0,0,1-.83.83H42.92L35.5,48.71A.83.83,0,0,1,34.91,49Zm0-9.33a.83.83,0,0,1,.58.24.83.83,0,0,1,.25.59v5.66L42,39.87a.87.87,0,0,1,.59-.24H62.84V19.75H30v19.9l4.92,0Z"/><path class="b5b7b488-160a-4cf9-a436-114e12b16154" d="M27,87.46H-7.49a.83.83,0,0,1-.83-.83V65.09a.83.83,0,0,1,.83-.83H13.26l7.43-7.43a.83.83,0,0,1,1.41.59v6.84l4.92,0a.7.7,0,0,1,.59.24.82.82,0,0,1,.24.59V86.63A.83.83,0,0,1,27,87.46ZM-6.66,85.8H26.2V65.9l-4.92,0h0a.83.83,0,0,1-.58-.24.83.83,0,0,1-.25-.59V59.42l-6.25,6.26a.87.87,0,0,1-.59.24H-6.66Z"/><path class="b5b7b488-160a-4cf9-a436-114e12b16154" d="M118.1,50.28H94.21a.83.83,0,0,1-.83-.82V34.85a.83.83,0,0,1,.83-.83h14.25L113.53,29a.83.83,0,0,1,.91-.18.82.82,0,0,1,.51.76V34h3.15a.82.82,0,0,1,.83.83V49.46A.83.83,0,0,1,118.1,50.28ZM95,48.63h22.23v-13h-3.15a.79.79,0,0,1-.59-.24.87.87,0,0,1-.24-.59v-3.3l-3.9,3.89a.78.78,0,0,1-.58.24H95Z"/><path class="b5b7b488-160a-4cf9-a436-114e12b16154" d="M90.22,38.34H83.59a.83.83,0,0,1-.83-.83V22.89A.82.82,0,0,1,83,22.3a.87.87,0,0,1,.59-.24h3.15V17.59a.83.83,0,0,1,.51-.76.81.81,0,0,1,.9.18l5.07,5.07h14.26a.83.83,0,0,1,.83.82v8a.83.83,0,0,1-1.66,0V23.73H92.88a.82.82,0,0,1-.59-.24L88.4,19.6v3.3a.8.8,0,0,1-.25.59.76.76,0,0,1-.59.24H84.42v13h5.8a.83.83,0,0,1,0,1.66Z"/><path class="b5b7b488-160a-4cf9-a436-114e12b16154" d="M50.92,76.83a.91.91,0,0,1-.32-.06.83.83,0,0,1-.51-.76V71.53H46.94a1.14,1.14,0,0,1-.59-.24.87.87,0,0,1-.24-.59V56.09a.83.83,0,0,1,.83-.83H70.83a.83.83,0,0,1,.83.83V70.7a.83.83,0,0,1-.83.82H56.57l-5.06,5.07A.82.82,0,0,1,50.92,76.83Zm0-7a.82.82,0,0,1,.83.83V74l3.89-3.89a.82.82,0,0,1,.59-.24H70v-13H47.77v13Z"/><path class="b5b7b488-160a-4cf9-a436-114e12b16154" d="M77.47,88.78a.82.82,0,0,1-.59-.24l-5.06-5.07H57.56a.83.83,0,0,1-.83-.83v-8a.83.83,0,0,1,1.66,0v7.13H72.16a.83.83,0,0,1,.59.25L76.64,86V82.64a.83.83,0,0,1,.24-.58.83.83,0,0,1,.59-.25h3.15V68.87h-5.8a.83.83,0,0,1,0-1.66h6.63a.83.83,0,0,1,.83.83V82.66a.78.78,0,0,1-.24.58,1.16,1.16,0,0,1-.59.25H78.3V88a.83.83,0,0,1-.51.77A.91.91,0,0,1,77.47,88.78Z"/><path class="b5b7b488-160a-4cf9-a436-114e12b16154" d="M143.77,49a.71.71,0,0,1-.32-.07.82.82,0,0,1-.51-.76V41.29l-4.92,0h0a.83.83,0,0,1-.58-.24.83.83,0,0,1-.25-.59V18.92a.83.83,0,0,1,.83-.83h34.52a.83.83,0,0,1,.83.83V40.46a.83.83,0,0,1-.83.83H151.78l-7.43,7.42A.83.83,0,0,1,143.77,49Zm0-9.33a.83.83,0,0,1,.58.24.83.83,0,0,1,.25.59v5.66l6.25-6.25a.85.85,0,0,1,.59-.24H171.7V19.75H138.84v19.9l4.92,0Z"/><path class="b5b7b488-160a-4cf9-a436-114e12b16154" d="M135.88,87.46H101.37a.83.83,0,0,1-.83-.83V65.09a.83.83,0,0,1,.83-.83h20.75l7.42-7.43a.85.85,0,0,1,.91-.18.83.83,0,0,1,.51.77v6.84l4.92,0a.7.7,0,0,1,.59.24.87.87,0,0,1,.24.59V86.63A.83.83,0,0,1,135.88,87.46ZM102.2,85.8h32.85V65.9l-4.92,0h0a.82.82,0,0,1-.83-.83V59.42l-6.25,6.26a.87.87,0,0,1-.59.24H102.2Z"/><path class="b9230dec-20f1-493a-bce9-a1fb58da6e5e" d="M143.77,127.28a.87.87,0,0,1-.32-.06.83.83,0,0,1-.51-.77v-6.84l-4.92,0a.65.65,0,0,1-.59-.24.83.83,0,0,1-.25-.59V97.25a.83.83,0,0,1,.83-.83h34.52a.83.83,0,0,1,.83.83v21.53a.83.83,0,0,1-.83.83H151.78L144.35,127A.82.82,0,0,1,143.77,127.28Zm0-9.33a.83.83,0,0,1,.58.24.83.83,0,0,1,.25.59v5.67l6.25-6.26a.85.85,0,0,1,.59-.24H171.7V98.08H138.84V118l4.92,0Z"/></g><path class="b9230dec-20f1-493a-bce9-a1fb58da6e5e" d="M16.47,124.46,20,123.12c.77,2.24,2,3.27,4,3.27,2.27,0,3.77-1.61,3.77-4.06V111.14h3.83v11.29c0,4.49-3,7.44-7.63,7.44A7.34,7.34,0,0,1,16.47,124.46Z"/><path class="b9230dec-20f1-493a-bce9-a1fb58da6e5e" d="M33.75,122.75a7.34,7.34,0,1,1,7.33,7.12A7.16,7.16,0,0,1,33.75,122.75Zm11.16,0a3.81,3.81,0,1,0-7.62,0,3.81,3.81,0,1,0,7.62,0Z"/><path class="b9230dec-20f1-493a-bce9-a1fb58da6e5e" d="M50.37,112.17a2.06,2.06,0,1,1,2.06,2.06A2.06,2.06,0,0,1,50.37,112.17Zm.26,3.69h3.62v13.75H50.63Z"/><path class="b9230dec-20f1-493a-bce9-a1fb58da6e5e" d="M57.07,115.86h3.62V117a5.7,5.7,0,0,1,3.85-1.37A5.22,5.22,0,0,1,70,121.09v8.52H66.36v-8a2.69,2.69,0,0,0-2.85-2.9,3.35,3.35,0,0,0-2.82,1.37v9.53H57.07Z"/><path class="b9230dec-20f1-493a-bce9-a1fb58da6e5e" d="M79.89,125.73v-6.86H77.07v-3h2.82v-3.51l3.62-.81v4.32h3.93v3H83.51V125c0,1.29.5,1.77,1.9,1.77a5.49,5.49,0,0,0,1.92-.32v3a11,11,0,0,1-2.79.4C81.48,129.82,79.89,128.42,79.89,125.73Z"/><path class="b9230dec-20f1-493a-bce9-a1fb58da6e5e" d="M89.21,111.14l3.61-.79V117a5.72,5.72,0,0,1,3.85-1.37,5.23,5.23,0,0,1,5.44,5.49v8.52H98.49v-8a2.69,2.69,0,0,0-2.85-2.9,3.35,3.35,0,0,0-2.82,1.37v9.53H89.21Z"/><path class="b9230dec-20f1-493a-bce9-a1fb58da6e5e" d="M104.22,122.75a7,7,0,0,1,7.07-7.13c3.9,0,6.81,3.17,6.81,7.39V124H107.91a3.91,3.91,0,0,0,3.85,2.88,4.31,4.31,0,0,0,3-1.11l2.37,2.16a8.23,8.23,0,0,1-5.59,2A7.15,7.15,0,0,1,104.22,122.75Zm10.31-1.37a3.44,3.44,0,0,0-3.32-2.77,3.38,3.38,0,0,0-3.35,2.77Z"/><path class="b9230dec-20f1-493a-bce9-a1fb58da6e5e" d="M16.81,154.41a7.08,7.08,0,0,1,7.2-7.15,7.75,7.75,0,0,1,5.7,2.45l-2.21,2.35a4.47,4.47,0,0,0-3.41-1.66,4,4,0,0,0,.08,8,4.27,4.27,0,0,0,3.27-1.53l2.17,2.27a7.76,7.76,0,0,1-5.6,2.42A7.06,7.06,0,0,1,16.81,154.41Z"/><path class="b9230dec-20f1-493a-bce9-a1fb58da6e5e" d="M30.45,154.41a7.34,7.34,0,1,1,7.34,7.12A7.17,7.17,0,0,1,30.45,154.41Zm11.16,0a3.81,3.81,0,1,0-7.62,0,3.81,3.81,0,1,0,7.62,0Z"/><path class="b9230dec-20f1-493a-bce9-a1fb58da6e5e" d="M47.34,147.52H51v1.11a5.72,5.72,0,0,1,3.85-1.37,5.22,5.22,0,0,1,5.44,5.49v8.52H56.62v-8a2.69,2.69,0,0,0-2.85-2.9A3.35,3.35,0,0,0,51,151.74v9.53H47.34Z"/><path class="b9230dec-20f1-493a-bce9-a1fb58da6e5e" d="M60.79,147.52h3.93l3.78,9.16,3.74-9.16h3.85l-5.91,13.75H66.67Z"/><path class="b9230dec-20f1-493a-bce9-a1fb58da6e5e" d="M76.49,154.41a7,7,0,0,1,7.07-7.12c3.9,0,6.81,3.16,6.81,7.38v1H80.18A3.92,3.92,0,0,0,84,158.5a4.29,4.29,0,0,0,3-1.11l2.37,2.16a8.21,8.21,0,0,1-5.59,2A7.15,7.15,0,0,1,76.49,154.41ZM86.81,153a3.45,3.45,0,0,0-3.33-2.77A3.39,3.39,0,0,0,80.13,153Z"/><path class="b9230dec-20f1-493a-bce9-a1fb58da6e5e" d="M92.58,147.52H96.2v1.53a4.4,4.4,0,0,1,3.67-1.84,3,3,0,0,1,1.5.31v3.17a4.59,4.59,0,0,0-1.85-.37,3.67,3.67,0,0,0-3.32,2v8.92H92.58Z"/><path class="b9230dec-20f1-493a-bce9-a1fb58da6e5e" d="M102.35,159.63l1.79-2.4a7.87,7.87,0,0,0,4.46,1.58c1.61,0,2.66-.58,2.66-1.47,0-.72-.52-1.11-1.71-1.3l-2.64-.39c-2.72-.4-4.17-1.79-4.17-4,0-2.64,2.22-4.35,5.73-4.35a10.15,10.15,0,0,1,5.64,1.71l-1.74,2.35a8,8,0,0,0-4.25-1.35c-1.29,0-2.16.56-2.16,1.35s.53,1.13,1.87,1.32l2.64.39c2.69.4,4.2,1.8,4.2,3.93,0,2.62-2.56,4.54-6,4.54A10.09,10.09,0,0,1,102.35,159.63Z"/><path class="b9230dec-20f1-493a-bce9-a1fb58da6e5e" d="M116,157.29c0-2.62,2.08-4.17,5.59-4.17a10.19,10.19,0,0,1,3.38.55v-1c0-1.59-1-2.4-2.9-2.4a10.24,10.24,0,0,0-4.2,1.13l-1.32-2.66a14.18,14.18,0,0,1,6.12-1.48c3.72,0,5.86,1.85,5.86,5.09v8.92h-3.56v-1a6.34,6.34,0,0,1-4,1.22C118,161.51,116,159.79,116,157.29Zm5.94,1.63a5,5,0,0,0,3-.9v-2a7.48,7.48,0,0,0-2.9-.53c-1.66,0-2.64.66-2.64,1.72S120.37,158.92,121.9,158.92Z"/><path class="b9230dec-20f1-493a-bce9-a1fb58da6e5e" d="M132.71,157.39v-6.86h-2.82v-3h2.82V144l3.62-.81v4.32h3.93v3h-3.93v6.12c0,1.29.5,1.77,1.9,1.77a5.49,5.49,0,0,0,1.92-.32v3a11,11,0,0,1-2.79.4C134.29,161.48,132.71,160.08,132.71,157.39Z"/><path class="b9230dec-20f1-493a-bce9-a1fb58da6e5e" d="M141.76,143.83a2.06,2.06,0,1,1,2.06,2.06A2.06,2.06,0,0,1,141.76,143.83Zm.27,3.69h3.61v13.75H142Z"/><path class="b9230dec-20f1-493a-bce9-a1fb58da6e5e" d="M147.83,154.41a7.34,7.34,0,1,1,7.33,7.12A7.16,7.16,0,0,1,147.83,154.41Zm11.16,0a3.81,3.81,0,1,0-7.62,0,3.81,3.81,0,1,0,7.62,0Z"/><path class="b9230dec-20f1-493a-bce9-a1fb58da6e5e" d="M164.71,147.52h3.62v1.11a5.72,5.72,0,0,1,3.85-1.37,5.23,5.23,0,0,1,5.44,5.49v8.52H174v-8a2.69,2.69,0,0,0-2.85-2.9,3.35,3.35,0,0,0-2.82,1.37v9.53h-3.62Z"/></svg>