<svg id="f0f5740e-1f5c-4399-80a6-51a896bb1d60" data-name="Layer 1" xmlns="http://www.w3.org/2000/svg" xmlns:xlink="http://www.w3.org/1999/xlink" viewBox="0 0 555 240"><defs><style>.fd4b9fab-5e6e-489e-bd8d-9dd4a2cc1fc9{fill:none;}.b09f3de9-ced0-4888-b80b-cfd08a48fadf{fill:#f3f3f3;}.eada02b6-5c0c-4946-a3a6-dfe3a1d796a5{clip-path:url(#a20abd7b-4d0f-4ad3-b432-0a0cfe01d4fe);}.b128e332-ddcd-48b7-8829-38cbdca5339d{fill:#e00;}</style><clipPath id="a20abd7b-4d0f-4ad3-b432-0a0cfe01d4fe"><rect class="fd4b9fab-5e6e-489e-bd8d-9dd4a2cc1fc9" width="555" height="240"/></clipPath></defs><rect class="b09f3de9-ced0-4888-b80b-cfd08a48fadf" width="555" height="240"/><g class="eada02b6-5c0c-4946-a3a6-dfe3a1d796a5"><path class="b128e332-ddcd-48b7-8829-38cbdca5339d" d="M529,11.72H509.81a7.14,7.14,0,1,1,0-14.28,7.2,7.2,0,0,1,1.32.13A9.34,9.34,0,0,1,529,1.29c0,.2,0,.4,0,.6a4.93,4.93,0,0,1-.52,9.83"/><path class="b128e332-ddcd-48b7-8829-38cbdca5339d" d="M529,12.72H509.81a8.14,8.14,0,1,1,.73-16.25A10.34,10.34,0,0,1,530,1.06a5.93,5.93,0,0,1-.63,11.59A.94.94,0,0,1,529,12.72ZM509.81-1.55a6.14,6.14,0,1,0,0,12.27h18.67a3.92,3.92,0,0,0,.41-7.83A1,1,0,0,1,528,1.83c0-.27,0-.41,0-.54A8.33,8.33,0,0,0,519.69-7a8.31,8.31,0,0,0-7.64,5,1,1,0,0,1-1.1.59A5.78,5.78,0,0,0,509.81-1.55Z"/><path class="b128e332-ddcd-48b7-8829-38cbdca5339d" d="M461.32,11.72H442.1a7.14,7.14,0,0,1,0-14.28,7.2,7.2,0,0,1,1.32.13A9.35,9.35,0,0,1,452-8a9.34,9.34,0,0,1,9.33,9.34c0,.2,0,.4,0,.6a4.93,4.93,0,0,1-.52,9.83"/><path class="b128e332-ddcd-48b7-8829-38cbdca5339d" d="M461.32,12.72H442.1a8.14,8.14,0,1,1,.74-16.25A10.32,10.32,0,0,1,452-9,10.35,10.35,0,0,1,462.32,1.06a5.93,5.93,0,0,1-.62,11.59A1,1,0,0,1,461.32,12.72ZM442.1-1.55a6.14,6.14,0,0,0,0,12.27h18.67a3.92,3.92,0,0,0,.41-7.83,1,1,0,0,1-.89-1.06c0-.29,0-.41,0-.54a8.34,8.34,0,0,0-16-3.32,1,1,0,0,1-1.1.59A5.71,5.71,0,0,0,442.1-1.55Z"/><path class="b128e332-ddcd-48b7-8829-38cbdca5339d" d="M393.62,11.72H374.4a7.14,7.14,0,1,1,0-14.28,7.2,7.2,0,0,1,1.32.13,9.34,9.34,0,0,1,17.9,3.72c0,.2,0,.4,0,.6a4.93,4.93,0,0,1-.52,9.83"/><path class="b128e332-ddcd-48b7-8829-38cbdca5339d" d="M393.62,12.72H374.39a8.14,8.14,0,1,1,.74-16.25,10.34,10.34,0,0,1,19.49,4.59A5.93,5.93,0,0,1,394,12.65.94.94,0,0,1,393.62,12.72ZM374.39-1.55a6.14,6.14,0,0,0,0,12.27h18.68a3.92,3.92,0,0,0,.41-7.83,1,1,0,0,1-.9-1.06c0-.27,0-.41,0-.54A8.34,8.34,0,0,0,384.28-7a8.31,8.31,0,0,0-7.64,5,1,1,0,0,1-1.11.59A5.64,5.64,0,0,0,374.39-1.55Z"/><path class="b128e332-ddcd-48b7-8829-38cbdca5339d" d="M325.91,11.72H306.69a7.14,7.14,0,1,1,0-14.28,7.2,7.2,0,0,1,1.32.13,9.34,9.34,0,0,1,17.9,3.72c0,.2,0,.4,0,.6a4.93,4.93,0,0,1-.52,9.83"/><path class="b128e332-ddcd-48b7-8829-38cbdca5339d" d="M325.91,12.72H306.69a8.14,8.14,0,1,1,.74-16.25A10.32,10.32,0,0,1,316.57-9,10.35,10.35,0,0,1,326.91,1.06a5.93,5.93,0,0,1-.63,11.59A.9.9,0,0,1,325.91,12.72ZM306.69-1.55a6.14,6.14,0,1,0,0,12.27h18.67a3.92,3.92,0,0,0,.41-7.83,1,1,0,0,1-.89-1.06c0-.29,0-.41,0-.54a8.34,8.34,0,0,0-16-3.32,1,1,0,0,1-1.1.59A5.71,5.71,0,0,0,306.69-1.55Z"/><path class="b128e332-ddcd-48b7-8829-38cbdca5339d" d="M258.2,11.72H239a7.14,7.14,0,1,1,0-14.28,7.23,7.23,0,0,1,1.33.13A9.33,9.33,0,0,1,258.2,1.29q0,.3,0,.6a4.93,4.93,0,0,1-.52,9.83"/><path class="b128e332-ddcd-48b7-8829-38cbdca5339d" d="M258.2,12.72H239a8.15,8.15,0,0,1-8.14-8.14,8.09,8.09,0,0,1,8.88-8.1A10.33,10.33,0,0,1,248.87-9,10.36,10.36,0,0,1,259.21,1.06a5.93,5.93,0,0,1-.63,11.59A1,1,0,0,1,258.2,12.72ZM239-1.55a6.14,6.14,0,0,0,0,12.27h18.68a3.93,3.93,0,0,0,.41-7.83,1,1,0,0,1-.9-1.07c0-.25,0-.39,0-.53A8.34,8.34,0,0,0,248.87-7a8.31,8.31,0,0,0-7.64,5,1,1,0,0,1-1.11.59A5.64,5.64,0,0,0,239-1.55Z"/><path class="b128e332-ddcd-48b7-8829-38cbdca5339d" d="M190.5,11.72H171.28a7.14,7.14,0,0,1,0-14.28,7.2,7.2,0,0,1,1.32.13,9.34,9.34,0,0,1,17.9,3.72c0,.2,0,.4,0,.6a4.93,4.93,0,0,1-.52,9.83"/><path class="b128e332-ddcd-48b7-8829-38cbdca5339d" d="M190.5,12.72H171.28a8.15,8.15,0,0,1-8.14-8.14A8.08,8.08,0,0,1,172-3.52,10.33,10.33,0,0,1,181.16-9,10.35,10.35,0,0,1,191.5,1.06a5.93,5.93,0,0,1-.63,11.59A.9.9,0,0,1,190.5,12.72ZM171.28-1.55a6.14,6.14,0,1,0,0,12.27H190a3.92,3.92,0,0,0,.41-7.83,1,1,0,0,1-.89-1.07c0-.25,0-.39,0-.53a8.33,8.33,0,0,0-16-3.32,1,1,0,0,1-1.1.59A5.71,5.71,0,0,0,171.28-1.55Z"/><path class="b128e332-ddcd-48b7-8829-38cbdca5339d" d="M122.79,11.72H103.57a7.14,7.14,0,1,1,0-14.28,7.31,7.31,0,0,1,1.33.13,9.33,9.33,0,0,1,17.89,3.72c0,.2,0,.4,0,.6a4.93,4.93,0,0,1-.52,9.83"/><path class="b128e332-ddcd-48b7-8829-38cbdca5339d" d="M122.79,12.72H103.57a8.14,8.14,0,1,1,.74-16.24A10.33,10.33,0,0,1,113.46-9,10.34,10.34,0,0,1,123.79,1.06a5.93,5.93,0,0,1-.63,11.59A.9.9,0,0,1,122.79,12.72ZM103.57-1.55a6.14,6.14,0,0,0,0,12.27h18.67a3.93,3.93,0,0,0,.42-7.83,1,1,0,0,1-.9-1.06c0-.28,0-.41,0-.54A8.34,8.34,0,0,0,113.46-7a8.31,8.31,0,0,0-7.64,5,1,1,0,0,1-1.11.59A5.64,5.64,0,0,0,103.57-1.55Z"/><path class="b128e332-ddcd-48b7-8829-38cbdca5339d" d="M55.09,11.72H35.87a7.14,7.14,0,1,1,0-14.28,7.2,7.2,0,0,1,1.32.13,9.34,9.34,0,0,1,17.9,3.72c0,.2,0,.4,0,.6a4.93,4.93,0,0,1-.52,9.83"/><path class="b128e332-ddcd-48b7-8829-38cbdca5339d" d="M55.09,12.72H35.87A8.14,8.14,0,1,1,36.6-3.52,10.33,10.33,0,0,1,45.75-9,10.35,10.35,0,0,1,56.09,1.06a5.93,5.93,0,0,1-.63,11.59A.94.94,0,0,1,55.09,12.72ZM35.87-1.55a6.14,6.14,0,1,0,0,12.27H54.54A3.92,3.92,0,0,0,55,2.89a1,1,0,0,1-.89-1.06c0-.28,0-.41,0-.54A8.33,8.33,0,0,0,45.75-7a8.31,8.31,0,0,0-7.64,5A1,1,0,0,1,37-1.44,5.61,5.61,0,0,0,35.87-1.55Z"/><path class="b128e332-ddcd-48b7-8829-38cbdca5339d" d="M549.49,54.29a14.66,14.66,0,0,1-14.65-14.65v0a8.21,8.21,0,0,1,.59-16.13,1.07,1.07,0,0,1,.41-.09h28.1a11.44,11.44,0,0,1,0,22.88,12.19,12.19,0,0,1-1.34-.08A14.67,14.67,0,0,1,549.49,54.29Zm-12.85-28.9A6.2,6.2,0,0,0,536,37.76a1,1,0,0,1,.9,1.06l0,.21c0,.2,0,.4,0,.61a12.64,12.64,0,0,0,24.24,5,1,1,0,0,1,1.11-.59,8.93,8.93,0,0,0,1.75.17,9.43,9.43,0,0,0,0-18.86Z"/><path class="b128e332-ddcd-48b7-8829-38cbdca5339d" d="M481.78,54.29a14.67,14.67,0,0,1-14.65-14.65v0a8.21,8.21,0,0,1,.59-16.13,1.17,1.17,0,0,1,.42-.09h28.09a11.44,11.44,0,0,1,0,22.88,12.49,12.49,0,0,1-1.34-.08A14.65,14.65,0,0,1,481.78,54.29Zm-12.84-28.9a6.2,6.2,0,0,0-.65,12.37,1,1,0,0,1,.89,1.06V39c0,.22,0,.43,0,.64a12.64,12.64,0,0,0,24.24,5,1,1,0,0,1,1.1-.59,8.93,8.93,0,0,0,1.75.17,9.43,9.43,0,1,0,0-18.86Z"/><path class="b128e332-ddcd-48b7-8829-38cbdca5339d" d="M414.08,54.29a14.66,14.66,0,0,1-14.65-14.65v0A8.21,8.21,0,0,1,400,23.47a1.17,1.17,0,0,1,.42-.09h28.1a11.44,11.44,0,1,1,0,22.88,12.52,12.52,0,0,1-1.35-.08A14.64,14.64,0,0,1,414.08,54.29Zm-12.85-28.9a6.2,6.2,0,0,0-.65,12.37,1,1,0,0,1,.9,1.06l0,.21c0,.2,0,.4,0,.61a12.64,12.64,0,0,0,24.24,5,1,1,0,0,1,1.11-.59,8.93,8.93,0,0,0,1.75.17,9.43,9.43,0,1,0,0-18.86Z"/><path class="b128e332-ddcd-48b7-8829-38cbdca5339d" d="M346.37,54.29a14.66,14.66,0,0,1-14.65-14.65v0a8.21,8.21,0,0,1,.59-16.13,1.12,1.12,0,0,1,.41-.09h28.1a11.44,11.44,0,0,1,0,22.88,12.19,12.19,0,0,1-1.34-.08A14.66,14.66,0,0,1,346.37,54.29Zm-12.84-28.9a6.2,6.2,0,0,0-.66,12.37,1,1,0,0,1,.9,1.06V39c0,.22,0,.43,0,.64a12.64,12.64,0,0,0,24.24,5,1,1,0,0,1,1.1-.59,8.93,8.93,0,0,0,1.75.17,9.43,9.43,0,1,0,0-18.86Z"/><path class="b128e332-ddcd-48b7-8829-38cbdca5339d" d="M278.67,54.29A14.66,14.66,0,0,1,264,39.64v0a8.21,8.21,0,0,1,.58-16.13,1.17,1.17,0,0,1,.42-.09h28.09a11.44,11.44,0,0,1,0,22.88,12.49,12.49,0,0,1-1.34-.08A14.64,14.64,0,0,1,278.67,54.29Zm-12.85-28.9a6.2,6.2,0,0,0-.65,12.37,1,1,0,0,1,.89,1.06V39c0,.2,0,.4,0,.61a12.64,12.64,0,0,0,24.24,5,1,1,0,0,1,1.11-.59,8.84,8.84,0,0,0,1.74.17,9.43,9.43,0,1,0,0-18.86Z"/><path class="b128e332-ddcd-48b7-8829-38cbdca5339d" d="M211,54.29a14.66,14.66,0,0,1-14.65-14.65v0a8.21,8.21,0,0,1,.59-16.13,1.07,1.07,0,0,1,.41-.09h28.1a11.44,11.44,0,0,1,0,22.88,12.19,12.19,0,0,1-1.34-.08A14.66,14.66,0,0,1,211,54.29Zm-12.84-28.9a6.2,6.2,0,0,0-.66,12.37,1,1,0,0,1,.9,1.06l0,.21c0,.2,0,.4,0,.61a12.64,12.64,0,0,0,24.24,5,1,1,0,0,1,1.1-.59,8.93,8.93,0,0,0,1.75.17,9.43,9.43,0,1,0,0-18.86Z"/><path class="b128e332-ddcd-48b7-8829-38cbdca5339d" d="M143.25,54.29A14.67,14.67,0,0,1,128.6,39.64v0a8.21,8.21,0,0,1,.59-16.13,1.17,1.17,0,0,1,.42-.09H157.7a11.44,11.44,0,0,1,0,22.88,12.49,12.49,0,0,1-1.34-.08A14.65,14.65,0,0,1,143.25,54.29Zm-12.84-28.9a6.2,6.2,0,0,0-.65,12.37,1,1,0,0,1,.89,1.06V39a6.08,6.08,0,0,0,0,.61,12.64,12.64,0,0,0,24.24,5,1,1,0,0,1,1.11-.59,8.76,8.76,0,0,0,1.74.17,9.43,9.43,0,1,0,0-18.86Z"/><path class="b128e332-ddcd-48b7-8829-38cbdca5339d" d="M75.55,54.29A14.66,14.66,0,0,1,60.9,39.64v0a8.21,8.21,0,0,1,.59-16.13,1.07,1.07,0,0,1,.41-.09H90a11.44,11.44,0,0,1,0,22.88,12.19,12.19,0,0,1-1.34-.08A14.67,14.67,0,0,1,75.55,54.29ZM62.7,25.39a6.2,6.2,0,0,0-.65,12.37,1,1,0,0,1,.9,1.06l0,.21c0,.2,0,.4,0,.61a12.64,12.64,0,0,0,24.23,5,1,1,0,0,1,1.11-.59,8.93,8.93,0,0,0,1.75.17,9.43,9.43,0,1,0,0-18.86Z"/><path class="b128e332-ddcd-48b7-8829-38cbdca5339d" d="M7.84,54.29A14.66,14.66,0,0,1-6.81,39.64v0a8.17,8.17,0,0,1-6.42-8,8.25,8.25,0,0,1,7-8.14,1.17,1.17,0,0,1,.42-.09H22.29a11.44,11.44,0,0,1,0,22.88A12.34,12.34,0,0,1,21,46.18,14.65,14.65,0,0,1,7.84,54.29ZM-5,25.39a6.23,6.23,0,0,0-6.22,6.22,6.18,6.18,0,0,0,5.56,6.15,1,1,0,0,1,.9,1.06V39a6.08,6.08,0,0,0,0,.61,12.64,12.64,0,0,0,24.24,5,1,1,0,0,1,1.1-.59,8.93,8.93,0,0,0,1.75.17,9.43,9.43,0,1,0,0-18.86Z"/><path class="b128e332-ddcd-48b7-8829-38cbdca5339d" d="M337.8,98.77H357a7.14,7.14,0,1,1,0,14.28,7.23,7.23,0,0,1-1.33-.13,9.33,9.33,0,0,1-17.89-3.71,6.08,6.08,0,0,1,0-.61,4.93,4.93,0,0,1,.52-9.83"/><path class="b128e332-ddcd-48b7-8829-38cbdca5339d" d="M347.13,119.54a10.34,10.34,0,0,1-10.33-10.11,5.93,5.93,0,0,1,.63-11.59.9.9,0,0,1,.37-.07H357a8.14,8.14,0,1,1-.74,16.25A10.34,10.34,0,0,1,347.13,119.54Zm-8.78-19.77a3.93,3.93,0,0,0-.42,7.84,1,1,0,0,1,.9,1.06c0,.26,0,.4,0,.54a8.33,8.33,0,0,0,16,3.31,1,1,0,0,1,1.11-.58,6.55,6.55,0,0,0,1.14.11,6.14,6.14,0,0,0,0-12.28Z"/><path class="b128e332-ddcd-48b7-8829-38cbdca5339d" d="M405.5,98.77h19.22a7.14,7.14,0,1,1-1.32,14.15,9.34,9.34,0,0,1-17.9-3.71c0-.21,0-.41,0-.61a4.93,4.93,0,0,1,.52-9.83"/><path class="b128e332-ddcd-48b7-8829-38cbdca5339d" d="M414.84,119.54a10.35,10.35,0,0,1-10.34-10.11,5.93,5.93,0,0,1,.63-11.59.9.9,0,0,1,.37-.07h19.22A8.14,8.14,0,1,1,424,114,10.34,10.34,0,0,1,414.84,119.54Zm-8.79-19.77a3.93,3.93,0,0,0-.41,7.84,1,1,0,0,1,.9,1.06,4.31,4.31,0,0,0,0,.54,8.33,8.33,0,0,0,16,3.31,1,1,0,0,1,1.1-.58,6.55,6.55,0,0,0,1.14.11,6.14,6.14,0,0,0,0-12.28Z"/><path class="b128e332-ddcd-48b7-8829-38cbdca5339d" d="M473.21,98.77h19.22a7.14,7.14,0,1,1-1.32,14.15,9.34,9.34,0,0,1-17.9-3.71c0-.21,0-.41,0-.61a4.93,4.93,0,0,1,.52-9.83"/><path class="b128e332-ddcd-48b7-8829-38cbdca5339d" d="M482.54,119.54a10.34,10.34,0,0,1-10.33-10.11,5.93,5.93,0,0,1,.63-11.59.9.9,0,0,1,.37-.07h19.22a8.14,8.14,0,1,1-.74,16.25A10.34,10.34,0,0,1,482.54,119.54Zm-8.78-19.77a3.93,3.93,0,0,0-.42,7.84,1,1,0,0,1,.9,1.06c0,.26,0,.4,0,.54a8.33,8.33,0,0,0,16,3.31,1,1,0,0,1,1.1-.58,6.55,6.55,0,0,0,1.14.11,6.14,6.14,0,0,0,0-12.28Z"/><path class="b128e332-ddcd-48b7-8829-38cbdca5339d" d="M540.91,98.77h19.22a7.14,7.14,0,1,1-1.32,14.15,9.34,9.34,0,0,1-17.9-3.71c0-.21,0-.41,0-.61a4.93,4.93,0,0,1,.52-9.83"/><path class="b128e332-ddcd-48b7-8829-38cbdca5339d" d="M550.25,119.54a10.35,10.35,0,0,1-10.34-10.11,5.93,5.93,0,0,1,.63-11.59.94.94,0,0,1,.37-.07h19.22A8.14,8.14,0,1,1,559.4,114,10.34,10.34,0,0,1,550.25,119.54Zm-8.79-19.77a3.93,3.93,0,0,0-.41,7.84,1,1,0,0,1,.9,1.06c0,.26,0,.4,0,.54a8.33,8.33,0,0,0,16,3.31,1,1,0,0,1,1.1-.58,6.65,6.65,0,0,0,1.14.11,6.14,6.14,0,0,0,0-12.28Z"/><path class="b128e332-ddcd-48b7-8829-38cbdca5339d" d="M-.73,98.77H18.49a7.14,7.14,0,1,1-1.32,14.15,9.34,9.34,0,0,1-17.9-3.71c0-.21,0-.41,0-.61a4.92,4.92,0,0,1-4.43-4.89,5,5,0,0,1,5-4.94"/><path class="b128e332-ddcd-48b7-8829-38cbdca5339d" d="M8.6,119.54A10.34,10.34,0,0,1-1.73,109.43a5.92,5.92,0,0,1-4.4-5.72,6,6,0,0,1,5-5.87.9.9,0,0,1,.37-.07H18.49A8.14,8.14,0,1,1,17.75,114,10.34,10.34,0,0,1,8.6,119.54ZM-.18,99.77a4,4,0,0,0-3.94,3.94,3.92,3.92,0,0,0,3.52,3.9,1,1,0,0,1,.9,1.06c0,.25,0,.39,0,.54a8.33,8.33,0,0,0,16,3.31,1,1,0,0,1,1.1-.58,6.46,6.46,0,0,0,1.14.11,6.14,6.14,0,0,0,0-12.28Z"/><path class="b128e332-ddcd-48b7-8829-38cbdca5339d" d="M67,98.77H86.19a7.14,7.14,0,1,1-1.32,14.15A9.34,9.34,0,0,1,67,109.21c0-.21,0-.41,0-.61a4.93,4.93,0,0,1,.52-9.83"/><path class="b128e332-ddcd-48b7-8829-38cbdca5339d" d="M76.31,119.54A10.35,10.35,0,0,1,66,109.43a5.93,5.93,0,0,1,.63-11.59.94.94,0,0,1,.37-.07H86.19A8.14,8.14,0,1,1,85.46,114,10.34,10.34,0,0,1,76.31,119.54ZM67.52,99.77a3.93,3.93,0,0,0-.41,7.84,1,1,0,0,1,.9,1.06c0,.25,0,.39,0,.54a8.33,8.33,0,0,0,16,3.31,1,1,0,0,1,1.11-.58,6.44,6.44,0,0,0,1.13.11,6.14,6.14,0,0,0,0-12.28Z"/><path class="b128e332-ddcd-48b7-8829-38cbdca5339d" d="M134.68,98.77H153.9a7.14,7.14,0,1,1-1.32,14.15,9.34,9.34,0,0,1-17.9-3.71c0-.21,0-.41,0-.61a4.93,4.93,0,0,1,.52-9.83"/><path class="b128e332-ddcd-48b7-8829-38cbdca5339d" d="M144,119.54a10.34,10.34,0,0,1-10.33-10.11,5.93,5.93,0,0,1,.63-11.59.9.9,0,0,1,.37-.07H153.9a8.14,8.14,0,1,1-.74,16.25A10.32,10.32,0,0,1,144,119.54Zm-8.78-19.77a3.93,3.93,0,0,0-.41,7.84,1,1,0,0,1,.89,1.06c0,.25,0,.39,0,.54a8.33,8.33,0,0,0,16,3.31,1,1,0,0,1,1.1-.58,6.55,6.55,0,0,0,1.14.11,6.14,6.14,0,0,0,0-12.28Z"/><path class="b128e332-ddcd-48b7-8829-38cbdca5339d" d="M202.39,98.77h19.22a7.14,7.14,0,0,1,0,14.28,7.23,7.23,0,0,1-1.33-.13,9.33,9.33,0,0,1-17.89-3.71,6.08,6.08,0,0,1,0-.61,4.93,4.93,0,0,1,.51-9.83"/><path class="b128e332-ddcd-48b7-8829-38cbdca5339d" d="M211.72,119.54a10.35,10.35,0,0,1-10.34-10.11A5.93,5.93,0,0,1,202,97.84a1,1,0,0,1,.38-.07h19.22a8.14,8.14,0,1,1-.74,16.25A10.34,10.34,0,0,1,211.72,119.54Zm-8.79-19.77a3.93,3.93,0,0,0-.41,7.84,1,1,0,0,1,.9,1.06c0,.25,0,.39,0,.54a8.33,8.33,0,0,0,16,3.31,1,1,0,0,1,1.11-.58,6.46,6.46,0,0,0,1.14.11,6.14,6.14,0,0,0,0-12.28Z"/><path class="b128e332-ddcd-48b7-8829-38cbdca5339d" d="M270.09,98.77h19.22A7.14,7.14,0,1,1,288,112.92a9.34,9.34,0,0,1-17.9-3.71c0-.21,0-.41,0-.61a4.93,4.93,0,0,1,.52-9.83"/><path class="b128e332-ddcd-48b7-8829-38cbdca5339d" d="M279.43,119.54a10.35,10.35,0,0,1-10.34-10.11,5.93,5.93,0,0,1,.63-11.59.9.9,0,0,1,.37-.07h19.22a8.14,8.14,0,1,1-.74,16.25A10.31,10.31,0,0,1,279.43,119.54Zm-8.79-19.77a3.93,3.93,0,0,0-.41,7.84,1,1,0,0,1,.89,1.06c0,.25,0,.39,0,.54a8.33,8.33,0,0,0,16,3.31,1,1,0,0,1,1.1-.58,6.55,6.55,0,0,0,1.14.11,6.14,6.14,0,0,0,0-12.28Z"/><path class="b128e332-ddcd-48b7-8829-38cbdca5339d" d="M529,143.26H509.81a7.14,7.14,0,1,1,1.32-14.15,9.34,9.34,0,0,1,17.9,3.72c0,.2,0,.4,0,.6a4.93,4.93,0,0,1-.52,9.83"/><path class="b128e332-ddcd-48b7-8829-38cbdca5339d" d="M529,144.26H509.81a8.14,8.14,0,1,1,.73-16.25A10.34,10.34,0,0,1,530,132.6a5.93,5.93,0,0,1-.63,11.59A.94.94,0,0,1,529,144.26ZM509.81,130a6.14,6.14,0,1,0,0,12.28h18.67a3.93,3.93,0,0,0,.41-7.84,1,1,0,0,1-.89-1.06c0-.26,0-.4,0-.53a8.33,8.33,0,0,0-16-3.32,1,1,0,0,1-1.11.59A5.57,5.57,0,0,0,509.81,130Z"/><path class="b128e332-ddcd-48b7-8829-38cbdca5339d" d="M461.32,143.26H442.1a7.14,7.14,0,1,1,1.32-14.15,9.34,9.34,0,0,1,17.9,3.72c0,.2,0,.4,0,.6a4.93,4.93,0,0,1-.52,9.83"/><path class="b128e332-ddcd-48b7-8829-38cbdca5339d" d="M461.32,144.26H442.1a8.14,8.14,0,1,1,.74-16.25,10.34,10.34,0,0,1,19.48,4.59,5.93,5.93,0,0,1-.62,11.59A1,1,0,0,1,461.32,144.26ZM442.1,130a6.14,6.14,0,0,0,0,12.28h18.67a3.93,3.93,0,0,0,.42-7.84,1,1,0,0,1-.9-1.06c0-.28,0-.41,0-.53a8.33,8.33,0,0,0-16-3.32,1,1,0,0,1-1.1.59A5.74,5.74,0,0,0,442.1,130Z"/><path class="b128e332-ddcd-48b7-8829-38cbdca5339d" d="M393.62,143.26H374.4a7.14,7.14,0,1,1,1.32-14.15,9.34,9.34,0,0,1,17.9,3.72c0,.2,0,.4,0,.6a4.93,4.93,0,0,1-.52,9.83"/><path class="b128e332-ddcd-48b7-8829-38cbdca5339d" d="M393.62,144.26H374.39a8.14,8.14,0,1,1,.74-16.25,10.34,10.34,0,0,1,19.49,4.59,5.93,5.93,0,0,1-.63,11.59A.94.94,0,0,1,393.62,144.26ZM374.39,130a6.14,6.14,0,0,0,0,12.28h18.68a3.93,3.93,0,0,0,.41-7.84,1,1,0,0,1-.9-1.06c0-.26,0-.4,0-.53a8.33,8.33,0,0,0-16-3.32,1,1,0,0,1-1.11.59A5.59,5.59,0,0,0,374.39,130Z"/><path class="b128e332-ddcd-48b7-8829-38cbdca5339d" d="M325.91,143.26H306.69A7.14,7.14,0,1,1,308,129.11a9.34,9.34,0,0,1,17.9,3.72c0,.2,0,.4,0,.6a4.93,4.93,0,0,1-.52,9.83"/><path class="b128e332-ddcd-48b7-8829-38cbdca5339d" d="M325.91,144.26H306.69a8.14,8.14,0,1,1,.74-16.25,10.34,10.34,0,0,1,19.48,4.59,5.93,5.93,0,0,1-.63,11.59A.9.9,0,0,1,325.91,144.26ZM306.69,130a6.14,6.14,0,1,0,0,12.28h18.67a3.93,3.93,0,0,0,.41-7.84,1,1,0,0,1-.89-1.06c0-.28,0-.41,0-.53a8.33,8.33,0,0,0-16-3.32,1,1,0,0,1-1.1.59A5.74,5.74,0,0,0,306.69,130Z"/><path class="b128e332-ddcd-48b7-8829-38cbdca5339d" d="M258.2,143.26H239A7.14,7.14,0,1,1,239,129a7.23,7.23,0,0,1,1.33.13,9.33,9.33,0,0,1,17.89,3.72q0,.3,0,.6a4.93,4.93,0,0,1-.52,9.83"/><path class="b128e332-ddcd-48b7-8829-38cbdca5339d" d="M258.2,144.26H239a8.14,8.14,0,1,1,.74-16.25,10.34,10.34,0,0,1,19.49,4.59,5.93,5.93,0,0,1-.63,11.59A1,1,0,0,1,258.2,144.26ZM239,130a6.14,6.14,0,0,0,0,12.28h18.68a3.93,3.93,0,0,0,.41-7.84,1,1,0,0,1-.9-1.06c0-.26,0-.39,0-.53a8.33,8.33,0,0,0-16-3.32,1,1,0,0,1-1.11.59A5.67,5.67,0,0,0,239,130Z"/><path class="b128e332-ddcd-48b7-8829-38cbdca5339d" d="M190.5,143.26H171.28a7.14,7.14,0,1,1,1.32-14.15,9.34,9.34,0,0,1,17.9,3.72c0,.2,0,.4,0,.6a4.93,4.93,0,0,1-.52,9.83"/><path class="b128e332-ddcd-48b7-8829-38cbdca5339d" d="M190.5,144.26H171.28A8.14,8.14,0,1,1,172,128a10.34,10.34,0,0,1,19.49,4.59,5.93,5.93,0,0,1-.63,11.59A.9.9,0,0,1,190.5,144.26ZM171.28,130a6.14,6.14,0,0,0,0,12.28H190a3.93,3.93,0,0,0,.41-7.84,1,1,0,0,1-.89-1.06c0-.26,0-.39,0-.53a8.33,8.33,0,0,0-16-3.32,1,1,0,0,1-1.11.59A5.57,5.57,0,0,0,171.28,130Z"/><path class="b128e332-ddcd-48b7-8829-38cbdca5339d" d="M122.79,143.26H103.57a7.14,7.14,0,0,1,0-14.28,7.31,7.31,0,0,1,1.33.13,9.33,9.33,0,0,1,17.89,3.72c0,.2,0,.4,0,.6a4.93,4.93,0,0,1-.52,9.83"/><path class="b128e332-ddcd-48b7-8829-38cbdca5339d" d="M122.79,144.26H103.57a8.14,8.14,0,1,1,.74-16.25,10.34,10.34,0,0,1,19.48,4.59,5.93,5.93,0,0,1-.63,11.59A.9.9,0,0,1,122.79,144.26ZM103.57,130a6.14,6.14,0,0,0,0,12.28h18.67a3.93,3.93,0,0,0,.42-7.84,1,1,0,0,1-.9-1.06c0-.27,0-.4,0-.53a8.33,8.33,0,0,0-16-3.32,1,1,0,0,1-1.11.59A5.67,5.67,0,0,0,103.57,130Z"/><path class="b128e332-ddcd-48b7-8829-38cbdca5339d" d="M55.09,143.26H35.87a7.14,7.14,0,1,1,1.32-14.15,9.34,9.34,0,0,1,17.9,3.72c0,.2,0,.4,0,.6a4.93,4.93,0,0,1-.52,9.83"/><path class="b128e332-ddcd-48b7-8829-38cbdca5339d" d="M55.09,144.26H35.87A8.14,8.14,0,1,1,36.6,128a10.34,10.34,0,0,1,19.49,4.59,5.93,5.93,0,0,1-.63,11.59A.94.94,0,0,1,55.09,144.26ZM35.87,130a6.14,6.14,0,1,0,0,12.28H54.54a3.93,3.93,0,0,0,.41-7.84,1,1,0,0,1-.89-1.06c0-.27,0-.4,0-.53a8.33,8.33,0,0,0-16-3.32,1,1,0,0,1-1.11.59A5.65,5.65,0,0,0,35.87,130Z"/><path class="b128e332-ddcd-48b7-8829-38cbdca5339d" d="M331,88.41H302.89a11.44,11.44,0,1,1,0-22.87,10.34,10.34,0,0,1,1.34.08A14.65,14.65,0,0,1,332,72.16v0a8.21,8.21,0,0,1-.59,16.13A1,1,0,0,1,331,88.41ZM302.89,67.54a9.44,9.44,0,1,0,0,18.87h27.29A6.21,6.21,0,0,0,330.83,74a1,1,0,0,1-.89-1.06v-.2c0-.2,0-.41,0-.61a12.64,12.64,0,0,0-24.24-5,1,1,0,0,1-1.11.59A9.58,9.58,0,0,0,302.89,67.54Z"/><path class="b128e332-ddcd-48b7-8829-38cbdca5339d" d="M398.69,88.41h-28.1a11.44,11.44,0,1,1,0-22.87,10.14,10.14,0,0,1,1.34.08,14.65,14.65,0,0,1,27.76,6.54v0a8.21,8.21,0,0,1-.59,16.13A.91.91,0,0,1,398.69,88.41Zm-28.1-20.87a9.44,9.44,0,0,0,0,18.87h27.29A6.21,6.21,0,0,0,398.54,74a1,1,0,0,1-.9-1.06v-.18q0-.32,0-.63a12.64,12.64,0,0,0-24.24-5,1,1,0,0,1-1.1.59A9.77,9.77,0,0,0,370.59,67.54Z"/><path class="b128e332-ddcd-48b7-8829-38cbdca5339d" d="M466.39,88.41H438.3a11.44,11.44,0,1,1,0-22.87,10.34,10.34,0,0,1,1.34.08,14.65,14.65,0,0,1,27.76,6.54v0a8.21,8.21,0,0,1-.59,16.13A1,1,0,0,1,466.39,88.41ZM438.3,67.54a9.44,9.44,0,0,0,0,18.87h27.29A6.21,6.21,0,0,0,466.24,74a1,1,0,0,1-.89-1.06v-.2c0-.2,0-.41,0-.61a12.64,12.64,0,0,0-24.24-5,1,1,0,0,1-1.1.59A9.77,9.77,0,0,0,438.3,67.54Z"/><path class="b128e332-ddcd-48b7-8829-38cbdca5339d" d="M534.1,88.41H506a11.44,11.44,0,1,1,0-22.87,10.14,10.14,0,0,1,1.34.08,14.65,14.65,0,0,1,27.76,6.54v0a8.21,8.21,0,0,1-.59,16.13A.91.91,0,0,1,534.1,88.41ZM506,67.54a9.44,9.44,0,0,0,0,18.87h27.3A6.21,6.21,0,0,0,534,74a1,1,0,0,1-.9-1.06l0-.18c0-.21,0-.42,0-.63a12.64,12.64,0,0,0-24.24-5,1,1,0,0,1-1.11.59A9.77,9.77,0,0,0,506,67.54Z"/><path class="b128e332-ddcd-48b7-8829-38cbdca5339d" d="M60.16,88.41H32.06a11.44,11.44,0,1,1,1.35-22.79,14.64,14.64,0,0,1,27.75,6.54v0a8.21,8.21,0,0,1-.58,16.13A1,1,0,0,1,60.16,88.41ZM32.06,67.54a9.44,9.44,0,0,0,0,18.87h27.3A6.21,6.21,0,0,0,60,74a1,1,0,0,1-.9-1l0-.21c0-.2,0-.41,0-.61a12.64,12.64,0,0,0-24.24-5,1,1,0,0,1-1.11.59A9.77,9.77,0,0,0,32.06,67.54Z"/><path class="b128e332-ddcd-48b7-8829-38cbdca5339d" d="M127.86,88.41H99.77a11.43,11.43,0,1,1,1.34-22.79,14.65,14.65,0,0,1,27.76,6.54v0a8.21,8.21,0,0,1-.59,16.13A1,1,0,0,1,127.86,88.41ZM99.77,67.54a9.44,9.44,0,0,0,0,18.87h27.29A6.21,6.21,0,0,0,127.71,74a1,1,0,0,1-.89-1v-.21c0-.2,0-.41,0-.61a12.64,12.64,0,0,0-24.24-5,1,1,0,0,1-1.1.59A9.77,9.77,0,0,0,99.77,67.54Z"/><path class="b128e332-ddcd-48b7-8829-38cbdca5339d" d="M195.57,88.41h-28.1a11.44,11.44,0,1,1,1.35-22.79,14.64,14.64,0,0,1,27.75,6.54v0A8.21,8.21,0,0,1,196,88.32,1,1,0,0,1,195.57,88.41Zm-28.1-20.87a9.44,9.44,0,0,0,0,18.87h27.3A6.21,6.21,0,0,0,195.42,74a1,1,0,0,1-.9-1l0-.21c0-.2,0-.41,0-.61a12.64,12.64,0,0,0-24.24-5,1,1,0,0,1-1.11.59A9.77,9.77,0,0,0,167.47,67.54Z"/><path class="b128e332-ddcd-48b7-8829-38cbdca5339d" d="M263.28,88.41h-28.1a11.43,11.43,0,1,1,1.34-22.79,14.65,14.65,0,0,1,27.76,6.54v0a8.21,8.21,0,0,1-.59,16.13A1,1,0,0,1,263.28,88.41Zm-28.1-20.87a9.44,9.44,0,0,0,0,18.87h27.29A6.21,6.21,0,0,0,263.13,74a1,1,0,0,1-.9-1v-.21c0-.2,0-.41,0-.61a12.64,12.64,0,0,0-24.24-5,1,1,0,0,1-1.1.59A9.77,9.77,0,0,0,235.18,67.54Z"/><path class="b128e332-ddcd-48b7-8829-38cbdca5339d" d="M549.49,185.83a14.67,14.67,0,0,1-14.65-14.65v0a8.21,8.21,0,0,1,.59-16.13.91.91,0,0,1,.41-.09h28.1a11.44,11.44,0,1,1-1.34,22.8A14.67,14.67,0,0,1,549.49,185.83Zm-12.85-28.9A6.2,6.2,0,0,0,536,169.3a1,1,0,0,1,.9,1.06l0,.21c0,.2,0,.4,0,.61a12.64,12.64,0,0,0,24.24,5,1,1,0,0,1,1.11-.59,9.43,9.43,0,1,0,1.75-18.69Z"/><path class="b128e332-ddcd-48b7-8829-38cbdca5339d" d="M481.78,185.83a14.68,14.68,0,0,1-14.65-14.65v0a8.21,8.21,0,0,1,.59-16.13,1,1,0,0,1,.42-.09h28.09a11.44,11.44,0,1,1-1.34,22.8A14.65,14.65,0,0,1,481.78,185.83Zm-12.84-28.9a6.2,6.2,0,0,0-.65,12.37,1,1,0,0,1,.89,1.06v.18c0,.21,0,.42,0,.64a12.64,12.64,0,0,0,24.24,5,1,1,0,0,1,1.1-.59,9.43,9.43,0,1,0,1.75-18.69Z"/><path class="b128e332-ddcd-48b7-8829-38cbdca5339d" d="M414.08,185.83a14.67,14.67,0,0,1-14.65-14.65v0A8.21,8.21,0,0,1,400,155a1,1,0,0,1,.42-.09h28.1a11.44,11.44,0,1,1-1.35,22.8A14.64,14.64,0,0,1,414.08,185.83Zm-12.85-28.9a6.2,6.2,0,0,0-.65,12.37,1,1,0,0,1,.9,1.06l0,.21c0,.2,0,.4,0,.61a12.64,12.64,0,0,0,24.24,5,1,1,0,0,1,1.11-.59,9.43,9.43,0,1,0,1.75-18.69Z"/><path class="b128e332-ddcd-48b7-8829-38cbdca5339d" d="M346.37,185.83a14.67,14.67,0,0,1-14.65-14.65v0a8.21,8.21,0,0,1,.59-16.13,1,1,0,0,1,.41-.09h28.1a11.44,11.44,0,1,1-1.34,22.8A14.66,14.66,0,0,1,346.37,185.83Zm-12.84-28.9a6.2,6.2,0,0,0-.66,12.37,1,1,0,0,1,.9,1.06v.18c0,.21,0,.42,0,.64a12.64,12.64,0,0,0,24.24,5,1,1,0,0,1,1.1-.59,9.43,9.43,0,1,0,1.75-18.69Z"/><path class="b128e332-ddcd-48b7-8829-38cbdca5339d" d="M278.67,185.83A14.67,14.67,0,0,1,264,171.18v0A8.21,8.21,0,0,1,264.6,155a1,1,0,0,1,.42-.09h28.09a11.44,11.44,0,1,1-1.34,22.8A14.64,14.64,0,0,1,278.67,185.83Zm-12.85-28.9a6.2,6.2,0,0,0-.65,12.37,1,1,0,0,1,.89,1.06v.21c0,.2,0,.4,0,.61a12.64,12.64,0,0,0,24.24,5,1,1,0,0,1,1.11-.59,9.43,9.43,0,1,0,1.74-18.69Z"/><path class="b128e332-ddcd-48b7-8829-38cbdca5339d" d="M211,185.83a14.67,14.67,0,0,1-14.65-14.65v0A8.21,8.21,0,0,1,196.9,155a.91.91,0,0,1,.41-.09h28.1a11.44,11.44,0,1,1-1.34,22.8A14.66,14.66,0,0,1,211,185.83Zm-12.84-28.9a6.2,6.2,0,0,0-.66,12.37,1,1,0,0,1,.9,1.06l0,.21c0,.2,0,.4,0,.61a12.64,12.64,0,0,0,24.24,5,1,1,0,0,1,1.1-.59,9.43,9.43,0,1,0,1.75-18.69Z"/><path class="b128e332-ddcd-48b7-8829-38cbdca5339d" d="M143.25,185.83a14.68,14.68,0,0,1-14.65-14.65v0a8.21,8.21,0,0,1,.59-16.13,1,1,0,0,1,.42-.09H157.7a11.44,11.44,0,1,1-1.34,22.8A14.65,14.65,0,0,1,143.25,185.83Zm-12.84-28.9a6.2,6.2,0,0,0-.65,12.37,1,1,0,0,1,.89,1.06v.21a6.08,6.08,0,0,0,0,.61,12.64,12.64,0,0,0,24.24,5,1,1,0,0,1,1.11-.59,9.43,9.43,0,1,0,1.74-18.69Z"/><path class="b128e332-ddcd-48b7-8829-38cbdca5339d" d="M75.55,185.83A14.67,14.67,0,0,1,60.9,171.18v0A8.21,8.21,0,0,1,61.49,155a.91.91,0,0,1,.41-.09H90a11.44,11.44,0,1,1-1.34,22.8A14.67,14.67,0,0,1,75.55,185.83ZM62.7,156.93a6.2,6.2,0,0,0-.65,12.37,1,1,0,0,1,.9,1.06l0,.21c0,.2,0,.4,0,.61a12.64,12.64,0,0,0,24.23,5,1,1,0,0,1,1.11-.59A9.43,9.43,0,1,0,90,156.93Z"/><path class="b128e332-ddcd-48b7-8829-38cbdca5339d" d="M7.84,185.83A14.67,14.67,0,0,1-6.81,171.18v0a8.18,8.18,0,0,1-6.42-8,8.24,8.24,0,0,1,7-8.14,1,1,0,0,1,.42-.09H22.29A11.44,11.44,0,1,1,21,177.72,14.65,14.65,0,0,1,7.84,185.83ZM-5,156.93a6.23,6.23,0,0,0-6.22,6.22,6.19,6.19,0,0,0,5.57,6.15,1,1,0,0,1,.89,1.06v.21a6.08,6.08,0,0,0,0,.61,12.64,12.64,0,0,0,24.24,5,1,1,0,0,1,1.1-.59,9.43,9.43,0,1,0,1.75-18.69Z"/><path class="b128e332-ddcd-48b7-8829-38cbdca5339d" d="M337.8,230.31H357a7.14,7.14,0,1,1,0,14.28,7.23,7.23,0,0,1-1.33-.13,9.33,9.33,0,0,1-17.89-3.72q0-.3,0-.6a4.93,4.93,0,0,1,.52-9.83"/><path class="b128e332-ddcd-48b7-8829-38cbdca5339d" d="M347.13,251.08A10.34,10.34,0,0,1,336.8,241a5.93,5.93,0,0,1,.63-11.59.9.9,0,0,1,.37-.07H357a8.14,8.14,0,1,1-.74,16.25A10.34,10.34,0,0,1,347.13,251.08Zm-8.78-19.77a3.93,3.93,0,0,0-.42,7.84,1,1,0,0,1,.9,1.06c0,.26,0,.4,0,.53a8.33,8.33,0,0,0,16,3.32,1,1,0,0,1,1.11-.59,5.71,5.71,0,0,0,1.14.11,6.14,6.14,0,0,0,0-12.27Z"/><path class="b128e332-ddcd-48b7-8829-38cbdca5339d" d="M405.5,230.31h19.22a7.14,7.14,0,1,1-1.32,14.15,9.34,9.34,0,0,1-17.9-3.72c0-.2,0-.4,0-.6a4.93,4.93,0,0,1,.52-9.83"/><path class="b128e332-ddcd-48b7-8829-38cbdca5339d" d="M414.84,251.08A10.35,10.35,0,0,1,404.5,241a5.93,5.93,0,0,1,.63-11.59.9.9,0,0,1,.37-.07h19.22a8.14,8.14,0,1,1-.73,16.25A10.34,10.34,0,0,1,414.84,251.08Zm-8.79-19.77a3.93,3.93,0,0,0-.41,7.84,1,1,0,0,1,.9,1.06,4.18,4.18,0,0,0,0,.53,8.33,8.33,0,0,0,16,3.32,1,1,0,0,1,1.1-.59,5.71,5.71,0,0,0,1.14.11,6.14,6.14,0,1,0,0-12.27Z"/><path class="b128e332-ddcd-48b7-8829-38cbdca5339d" d="M473.21,230.31h19.22a7.14,7.14,0,1,1-1.32,14.15,9.34,9.34,0,0,1-17.9-3.72c0-.2,0-.4,0-.6a4.93,4.93,0,0,1,.52-9.83"/><path class="b128e332-ddcd-48b7-8829-38cbdca5339d" d="M482.54,251.08A10.34,10.34,0,0,1,472.21,241a5.93,5.93,0,0,1,.63-11.59.9.9,0,0,1,.37-.07h19.22a8.14,8.14,0,1,1-.74,16.25A10.34,10.34,0,0,1,482.54,251.08Zm-8.78-19.77a3.93,3.93,0,0,0-.42,7.84,1,1,0,0,1,.9,1.06c0,.26,0,.4,0,.53a8.34,8.34,0,0,0,16,3.32,1,1,0,0,1,1.1-.59,5.71,5.71,0,0,0,1.14.11,6.14,6.14,0,0,0,0-12.27Z"/><path class="b128e332-ddcd-48b7-8829-38cbdca5339d" d="M540.91,230.31h19.22a7.14,7.14,0,1,1-1.32,14.15,9.34,9.34,0,0,1-17.9-3.72c0-.2,0-.4,0-.6a4.93,4.93,0,0,1,.52-9.83"/><path class="b128e332-ddcd-48b7-8829-38cbdca5339d" d="M550.25,251.08A10.35,10.35,0,0,1,539.91,241a5.93,5.93,0,0,1,.63-11.59.94.94,0,0,1,.37-.07h19.22a8.14,8.14,0,1,1-.73,16.25A10.34,10.34,0,0,1,550.25,251.08Zm-8.79-19.77a3.93,3.93,0,0,0-.41,7.84,1,1,0,0,1,.9,1.06c0,.26,0,.4,0,.53a8.33,8.33,0,0,0,16,3.32,1,1,0,0,1,1.1-.59,5.78,5.78,0,0,0,1.14.11,6.14,6.14,0,1,0,0-12.27Z"/><path class="b128e332-ddcd-48b7-8829-38cbdca5339d" d="M-.73,230.31H18.49a7.14,7.14,0,1,1-1.32,14.15,9.34,9.34,0,0,1-17.9-3.72c0-.2,0-.4,0-.6a4.93,4.93,0,0,1-4.43-4.89,5,5,0,0,1,5-4.94"/><path class="b128e332-ddcd-48b7-8829-38cbdca5339d" d="M8.6,251.08A10.34,10.34,0,0,1-1.73,241a5.93,5.93,0,0,1-4.4-5.72,6,6,0,0,1,5-5.87.9.9,0,0,1,.37-.07H18.49a8.14,8.14,0,1,1-.74,16.24A10.33,10.33,0,0,1,8.6,251.08ZM-.18,231.31a4,4,0,0,0-3.94,3.94,3.92,3.92,0,0,0,3.52,3.9,1,1,0,0,1,.9,1.06c0,.25,0,.39,0,.53a8.34,8.34,0,0,0,16,3.32,1,1,0,0,1,1.1-.59,5.64,5.64,0,0,0,1.14.11,6.14,6.14,0,0,0,0-12.27Z"/><path class="b128e332-ddcd-48b7-8829-38cbdca5339d" d="M67,230.31H86.19a7.14,7.14,0,1,1-1.32,14.15A9.34,9.34,0,0,1,67,240.74c0-.2,0-.4,0-.6a4.93,4.93,0,0,1,.52-9.83"/><path class="b128e332-ddcd-48b7-8829-38cbdca5339d" d="M76.31,251.08A10.35,10.35,0,0,1,66,241a5.93,5.93,0,0,1,.63-11.59.94.94,0,0,1,.37-.07H86.19a8.14,8.14,0,1,1-.73,16.24A10.33,10.33,0,0,1,76.31,251.08Zm-8.79-19.77a3.93,3.93,0,0,0-.41,7.84,1,1,0,0,1,.9,1.06c0,.25,0,.39,0,.53a8.33,8.33,0,0,0,16,3.32,1,1,0,0,1,1.11-.59,5.61,5.61,0,0,0,1.13.11,6.14,6.14,0,1,0,0-12.27Z"/><path class="b128e332-ddcd-48b7-8829-38cbdca5339d" d="M134.68,230.31H153.9a7.14,7.14,0,1,1-1.32,14.15,9.34,9.34,0,0,1-17.9-3.72c0-.2,0-.4,0-.6a4.93,4.93,0,0,1,.52-9.83"/><path class="b128e332-ddcd-48b7-8829-38cbdca5339d" d="M144,251.08A10.34,10.34,0,0,1,133.68,241a5.93,5.93,0,0,1,.63-11.59.9.9,0,0,1,.37-.07H153.9a8.14,8.14,0,1,1-.74,16.24A10.31,10.31,0,0,1,144,251.08Zm-8.78-19.77a3.93,3.93,0,0,0-.41,7.84,1,1,0,0,1,.89,1.06c0,.25,0,.39,0,.53a8.34,8.34,0,0,0,16,3.32,1,1,0,0,1,1.1-.59,5.71,5.71,0,0,0,1.14.11,6.14,6.14,0,0,0,0-12.27Z"/><path class="b128e332-ddcd-48b7-8829-38cbdca5339d" d="M202.39,230.31h19.22a7.14,7.14,0,0,1,0,14.28,7.23,7.23,0,0,1-1.33-.13,9.33,9.33,0,0,1-17.89-3.72q0-.3,0-.6a4.93,4.93,0,0,1,.51-9.83"/><path class="b128e332-ddcd-48b7-8829-38cbdca5339d" d="M211.72,251.08A10.35,10.35,0,0,1,201.38,241a5.93,5.93,0,0,1,.63-11.59,1,1,0,0,1,.38-.07h19.22a8.14,8.14,0,1,1-.74,16.24A10.33,10.33,0,0,1,211.72,251.08Zm-8.79-19.77a3.93,3.93,0,0,0-.41,7.84,1,1,0,0,1,.9,1.06c0,.25,0,.39,0,.53a8.33,8.33,0,0,0,16,3.32,1,1,0,0,1,1.11-.59,5.64,5.64,0,0,0,1.14.11,6.14,6.14,0,0,0,0-12.27Z"/><path class="b128e332-ddcd-48b7-8829-38cbdca5339d" d="M270.09,230.31h19.22A7.14,7.14,0,1,1,288,244.46a9.34,9.34,0,0,1-17.9-3.72c0-.2,0-.4,0-.6a4.93,4.93,0,0,1,.52-9.83"/><path class="b128e332-ddcd-48b7-8829-38cbdca5339d" d="M279.43,251.08A10.35,10.35,0,0,1,269.09,241a5.93,5.93,0,0,1,.63-11.59.9.9,0,0,1,.37-.07h19.22a8.14,8.14,0,1,1-.74,16.25A10.31,10.31,0,0,1,279.43,251.08Zm-8.79-19.77a3.93,3.93,0,0,0-.41,7.84,1,1,0,0,1,.89,1.06c0,.25,0,.39,0,.53a8.34,8.34,0,0,0,16,3.32,1,1,0,0,1,1.1-.59,5.71,5.71,0,0,0,1.14.11,6.14,6.14,0,1,0,0-12.27Z"/><path class="b128e332-ddcd-48b7-8829-38cbdca5339d" d="M331,220H302.89a11.43,11.43,0,1,1,1.34-22.79A14.65,14.65,0,0,1,332,203.7v0a8.21,8.21,0,0,1-.59,16.13A1,1,0,0,1,331,220Zm-28.09-20.87a9.44,9.44,0,1,0,0,18.87h27.29a6.21,6.21,0,0,0,.65-12.38,1,1,0,0,1-.89-1.06v-.2c0-.21,0-.41,0-.61a12.64,12.64,0,0,0-24.24-5,1,1,0,0,1-1.11.59A9.58,9.58,0,0,0,302.89,199.08Z"/><path class="b128e332-ddcd-48b7-8829-38cbdca5339d" d="M398.69,220h-28.1a11.43,11.43,0,1,1,1.34-22.79,14.65,14.65,0,0,1,27.76,6.54v0a8.21,8.21,0,0,1-.59,16.13A.91.91,0,0,1,398.69,220Zm-28.1-20.87a9.44,9.44,0,0,0,0,18.87h27.29a6.21,6.21,0,0,0,.66-12.38,1,1,0,0,1-.9-1.06v-.18q0-.32,0-.63a12.64,12.64,0,0,0-24.24-5,1,1,0,0,1-1.1.59A9.69,9.69,0,0,0,370.59,199.08Z"/><path class="b128e332-ddcd-48b7-8829-38cbdca5339d" d="M466.39,220H438.3a11.43,11.43,0,1,1,1.34-22.79,14.65,14.65,0,0,1,27.76,6.54v0a8.21,8.21,0,0,1-.59,16.13A1,1,0,0,1,466.39,220ZM438.3,199.08a9.44,9.44,0,0,0,0,18.87h27.29a6.21,6.21,0,0,0,.65-12.38,1,1,0,0,1-.89-1.06v-.2c0-.21,0-.41,0-.61a12.64,12.64,0,0,0-24.24-5,1,1,0,0,1-1.1.59A9.77,9.77,0,0,0,438.3,199.08Z"/><path class="b128e332-ddcd-48b7-8829-38cbdca5339d" d="M534.1,220H506a11.43,11.43,0,1,1,1.34-22.79,14.65,14.65,0,0,1,27.76,6.54v0a8.21,8.21,0,0,1-.59,16.13A.91.91,0,0,1,534.1,220ZM506,199.08A9.44,9.44,0,0,0,506,218h27.3a6.21,6.21,0,0,0,.65-12.38,1,1,0,0,1-.9-1.06l0-.18c0-.21,0-.42,0-.63a12.64,12.64,0,0,0-24.24-5,1,1,0,0,1-1.11.59A9.6,9.6,0,0,0,506,199.08Z"/><path class="b128e332-ddcd-48b7-8829-38cbdca5339d" d="M60.16,220H32.06a11.44,11.44,0,1,1,1.35-22.79,14.64,14.64,0,0,1,27.75,6.54v0a8.21,8.21,0,0,1-.58,16.13A1,1,0,0,1,60.16,220Zm-28.1-20.87a9.44,9.44,0,0,0,0,18.87h27.3A6.21,6.21,0,0,0,60,205.57a1,1,0,0,1-.9-1.06l0-.21c0-.2,0-.4,0-.6a12.64,12.64,0,0,0-24.24-5,1,1,0,0,1-1.11.59A9.6,9.6,0,0,0,32.06,199.08Z"/><path class="b128e332-ddcd-48b7-8829-38cbdca5339d" d="M127.86,220H99.77a11.43,11.43,0,1,1,1.34-22.79,14.65,14.65,0,0,1,27.76,6.54v0a8.21,8.21,0,0,1-.59,16.13A1,1,0,0,1,127.86,220ZM99.77,199.08a9.44,9.44,0,0,0,0,18.87h27.29a6.21,6.21,0,0,0,.65-12.38,1,1,0,0,1-.89-1.06v-.21q0-.3,0-.6a12.64,12.64,0,0,0-24.24-5,1,1,0,0,1-1.1.59A9.77,9.77,0,0,0,99.77,199.08Z"/><path class="b128e332-ddcd-48b7-8829-38cbdca5339d" d="M195.57,220h-28.1a11.44,11.44,0,1,1,1.35-22.79,14.64,14.64,0,0,1,27.75,6.54v0a8.21,8.21,0,0,1-.58,16.13A1,1,0,0,1,195.57,220Zm-28.1-20.87a9.44,9.44,0,0,0,0,18.87h27.3a6.21,6.21,0,0,0,.65-12.38,1,1,0,0,1-.9-1.06l0-.21c0-.2,0-.4,0-.6a12.64,12.64,0,0,0-24.24-5,1,1,0,0,1-1.11.59A9.6,9.6,0,0,0,167.47,199.08Z"/><path class="b128e332-ddcd-48b7-8829-38cbdca5339d" d="M263.28,220h-28.1a11.43,11.43,0,1,1,1.34-22.79,14.65,14.65,0,0,1,27.76,6.54v0a8.21,8.21,0,0,1-.59,16.13A1,1,0,0,1,263.28,220Zm-28.1-20.87a9.44,9.44,0,0,0,0,18.87h27.29a6.21,6.21,0,0,0,.66-12.38,1,1,0,0,1-.9-1.06v-.21q0-.3,0-.6a12.64,12.64,0,0,0-24.24-5,1,1,0,0,1-1.1.59A9.69,9.69,0,0,0,235.18,199.08Z"/></g></svg>