<svg id="a7c65323-e66b-43a6-b87e-eb2cac641370" data-name="Layer 1" xmlns="http://www.w3.org/2000/svg" xmlns:xlink="http://www.w3.org/1999/xlink" viewBox="0 0 555 240"><defs><style>.a916ade1-2dd9-4c00-b09d-f8904569a50f{fill:none;}.f68b7c82-88e3-4d63-b0ff-4ebe975dedc5{fill:#e4f3f4;}.ba86cb47-515b-4827-b815-2d67bfe82fa2{clip-path:url(#aa2e8f96-c430-480c-a4d0-f5f4bb095599);}.aad19331-d9fb-4897-8223-796a7b67301c{fill:#e00;}</style><clipPath id="aa2e8f96-c430-480c-a4d0-f5f4bb095599"><rect class="a916ade1-2dd9-4c00-b09d-f8904569a50f" width="555" height="240"/></clipPath></defs><rect class="f68b7c82-88e3-4d63-b0ff-4ebe975dedc5" width="555" height="240"/><g class="ba86cb47-515b-4827-b815-2d67bfe82fa2"><path class="aad19331-d9fb-4897-8223-796a7b67301c" d="M83.91,33.29H55.82a11.44,11.44,0,1,1,0-22.88,12.49,12.49,0,0,1,1.34.08A14.65,14.65,0,0,1,84.92,17v0a8.21,8.21,0,0,1-.59,16.13A1.17,1.17,0,0,1,83.91,33.29ZM55.82,12.42a9.43,9.43,0,1,0,0,18.86H83.11a6.2,6.2,0,0,0,.65-12.37,1,1,0,0,1-.89-1.06v-.21c0-.2,0-.4,0-.61a12.64,12.64,0,0,0-24.24-5,1,1,0,0,1-1.11.58A9.55,9.55,0,0,0,55.82,12.42Z"/><path class="aad19331-d9fb-4897-8223-796a7b67301c" d="M88.73,108.07H47a1,1,0,0,1-1-1V65.32a1,1,0,0,1,1-1H88.73a1,1,0,0,1,1,1v41.75A1,1,0,0,1,88.73,108.07Zm-40.74-2H87.73V66.33H48Z"/><path class="aad19331-d9fb-4897-8223-796a7b67301c" d="M82.31,72.74a1.09,1.09,0,0,1-.39-.08.83.83,0,0,1-.32-.2.87.87,0,0,1-.22-.33,1,1,0,0,1-.08-.38,1,1,0,0,1,.08-.39A.8.8,0,0,1,81.6,71a1.18,1.18,0,0,1,.32-.21A1,1,0,0,1,83,71a.94.94,0,0,1,.23.33,1,1,0,0,1,.08.39,1,1,0,0,1-.08.38,1,1,0,0,1-.23.33A1,1,0,0,1,82.31,72.74Z"/><path class="aad19331-d9fb-4897-8223-796a7b67301c" d="M79.1,72.74a1,1,0,0,1-.71-.28,1,1,0,0,1-.31-.71,1.18,1.18,0,0,1,.08-.39.94.94,0,0,1,.23-.33,1,1,0,0,1,1.41,0,.94.94,0,0,1,.23.33,1,1,0,0,1,.06.39,1,1,0,0,1-.29.71.91.91,0,0,1-.32.2A.77.77,0,0,1,79.1,72.74Z"/><path class="aad19331-d9fb-4897-8223-796a7b67301c" d="M83.91,170H55.82a11.44,11.44,0,1,1,1.34-22.8,14.65,14.65,0,0,1,27.76,6.54v0a8.21,8.21,0,0,1-.59,16.14A1.17,1.17,0,0,1,83.91,170ZM55.82,149.13a9.44,9.44,0,1,0,0,18.87H83.11a6.2,6.2,0,0,0,.65-12.37,1,1,0,0,1-.89-1.07v-.2c0-.2,0-.4,0-.61a12.64,12.64,0,0,0-24.24-5,1,1,0,0,1-1.11.58A9.58,9.58,0,0,0,55.82,149.13Z"/><path class="aad19331-d9fb-4897-8223-796a7b67301c" d="M88.73,244.79H47a1,1,0,0,1-1-1V202a1,1,0,0,1,1-1H88.73a1,1,0,0,1,1,1v41.74A1,1,0,0,1,88.73,244.79Zm-40.74-2H87.73V203H48Z"/><path class="aad19331-d9fb-4897-8223-796a7b67301c" d="M82.31,209.48a1,1,0,0,1-.71-.31.92.92,0,0,1-.22-.32,1,1,0,0,1,0-.77.71.71,0,0,1,.22-.32.9.9,0,0,1,.32-.23,1,1,0,0,1,1.09.23.82.82,0,0,1,.23.32,1,1,0,0,1,0,.77,1.12,1.12,0,0,1-.23.32A1,1,0,0,1,82.31,209.48Z"/><path class="aad19331-d9fb-4897-8223-796a7b67301c" d="M79.1,209.46a1,1,0,0,1-.71-.29,1.12,1.12,0,0,1-.23-.32,1,1,0,0,1,0-.77,1.22,1.22,0,0,1,.55-.55,1,1,0,0,1,1.09.23.75.75,0,0,1,.23.32,1,1,0,0,1,.06.38,1.06,1.06,0,0,1-.06.39,1.12,1.12,0,0,1-.23.32A1,1,0,0,1,79.1,209.46Z"/><path class="aad19331-d9fb-4897-8223-796a7b67301c" d="M223.77,33.29h-28.1a11.44,11.44,0,1,1,0-22.88,12.19,12.19,0,0,1,1.34.08A14.65,14.65,0,0,1,224.77,17v0a8.21,8.21,0,0,1-.59,16.13A1.07,1.07,0,0,1,223.77,33.29Zm-28.1-20.87a9.43,9.43,0,1,0,0,18.86H223a6.2,6.2,0,0,0,.65-12.37,1,1,0,0,1-.9-1.06l0-.21c0-.2,0-.4,0-.61a12.64,12.64,0,0,0-24.24-5,1,1,0,0,1-1.11.58A9.74,9.74,0,0,0,195.67,12.42Z"/><path class="aad19331-d9fb-4897-8223-796a7b67301c" d="M228.59,108.07H186.84a1,1,0,0,1-1-1V65.32a1,1,0,0,1,1-1h41.75a1,1,0,0,1,1,1v41.75A1,1,0,0,1,228.59,108.07Zm-40.74-2h39.73V66.33H187.85Z"/><path class="aad19331-d9fb-4897-8223-796a7b67301c" d="M222.16,72.74a1,1,0,0,1-.7-.28,1,1,0,0,1-.29-.71,1,1,0,0,1,.06-.39.94.94,0,0,1,.23-.33,1,1,0,0,1,1.09-.21.94.94,0,0,1,.32.21,1.06,1.06,0,0,1,.22.33,1,1,0,0,1,.08.39,1,1,0,0,1-.3.71A1,1,0,0,1,222.16,72.74Z"/><path class="aad19331-d9fb-4897-8223-796a7b67301c" d="M219,72.74a1,1,0,0,1-.7-.28,1,1,0,0,1-.23-.33,1.09,1.09,0,0,1,.23-1.1,1,1,0,0,1,1.41,0,1.06,1.06,0,0,1,.22.33,1,1,0,0,1,.08.39,1,1,0,0,1-.08.38,1.19,1.19,0,0,1-.22.33.91.91,0,0,1-.32.2A.78.78,0,0,1,219,72.74Z"/><path class="aad19331-d9fb-4897-8223-796a7b67301c" d="M223.77,170h-28.1a11.44,11.44,0,1,1,1.34-22.8,14.65,14.65,0,0,1,27.76,6.54v0a8.21,8.21,0,0,1-.59,16.14A1.07,1.07,0,0,1,223.77,170Zm-28.1-20.88a9.44,9.44,0,0,0,0,18.87H223a6.2,6.2,0,0,0,.65-12.37,1,1,0,0,1-.9-1.07l0-.2c0-.2,0-.4,0-.61a12.64,12.64,0,0,0-24.24-5,1,1,0,0,1-1.11.58A9.6,9.6,0,0,0,195.67,149.13Z"/><path class="aad19331-d9fb-4897-8223-796a7b67301c" d="M228.59,244.79H186.84a1,1,0,0,1-1-1V202a1,1,0,0,1,1-1h41.75a1,1,0,0,1,1,1v41.74A1,1,0,0,1,228.59,244.79Zm-40.74-2h39.73V203H187.85Z"/><path class="aad19331-d9fb-4897-8223-796a7b67301c" d="M222.16,209.46a.93.93,0,0,1-.7-.29,1,1,0,0,1-.29-.71,1,1,0,0,1,.06-.38.75.75,0,0,1,.23-.32,1,1,0,0,1,1.09-.23.75.75,0,0,1,.32.23.83.83,0,0,1,.22.32,1.08,1.08,0,0,1,.08.38,1,1,0,0,1-.3.71A1,1,0,0,1,222.16,209.46Z"/><path class="aad19331-d9fb-4897-8223-796a7b67301c" d="M219,209.46a1,1,0,0,1-1-1,1,1,0,0,1,.06-.38.75.75,0,0,1,.23-.32,1,1,0,0,1,1.09-.23.82.82,0,0,1,.32.23.83.83,0,0,1,.22.32,1.08,1.08,0,0,1,.08.38,1,1,0,0,1-.3.71,1,1,0,0,1-.32.23A1.32,1.32,0,0,1,219,209.46Z"/><path class="aad19331-d9fb-4897-8223-796a7b67301c" d="M363.62,33.29H335.53a11.44,11.44,0,1,1,0-22.88,12.19,12.19,0,0,1,1.34.08A14.65,14.65,0,0,1,364.63,17v0A8.21,8.21,0,0,1,364,33.2,1.12,1.12,0,0,1,363.62,33.29ZM335.53,12.42a9.43,9.43,0,1,0,0,18.86h27.29a6.2,6.2,0,0,0,.65-12.37,1,1,0,0,1-.89-1.06v-.21a6.08,6.08,0,0,0,0-.61,12.64,12.64,0,0,0-24.24-5,1,1,0,0,1-1.1.58A9.74,9.74,0,0,0,335.53,12.42Z"/><path class="aad19331-d9fb-4897-8223-796a7b67301c" d="M368.44,108.07H326.7a1,1,0,0,1-1-1V65.32a1,1,0,0,1,1-1h41.74a1,1,0,0,1,1,1v41.75A1,1,0,0,1,368.44,108.07Zm-40.74-2h39.74V66.33H327.7Z"/><path class="aad19331-d9fb-4897-8223-796a7b67301c" d="M362,72.74a1.09,1.09,0,0,1-.39-.08,1,1,0,0,1-.32-.2.87.87,0,0,1-.22-.33,1,1,0,0,1-.07-.38,1,1,0,0,1,.29-.72,1,1,0,0,1,1.09-.21.94.94,0,0,1,.32.21,1,1,0,0,1,.23,1.1,1,1,0,0,1-.23.33.76.76,0,0,1-.32.2A1.08,1.08,0,0,1,362,72.74Z"/><path class="aad19331-d9fb-4897-8223-796a7b67301c" d="M358.81,72.74a1,1,0,0,1-.71-.28,1,1,0,0,1-.29-.71,1,1,0,0,1,.07-.39.8.8,0,0,1,.22-.33,1,1,0,0,1,.32-.21,1,1,0,0,1,.77,0,.72.72,0,0,1,.32.21.94.94,0,0,1,.23.33,1.27,1.27,0,0,1,0,.77,1,1,0,0,1-.23.33.7.7,0,0,1-.32.2A.77.77,0,0,1,358.81,72.74Z"/><path class="aad19331-d9fb-4897-8223-796a7b67301c" d="M363.62,170H335.53a11.44,11.44,0,1,1,1.34-22.8,14.65,14.65,0,0,1,27.76,6.54v0a8.21,8.21,0,0,1-.59,16.14A1.12,1.12,0,0,1,363.62,170Zm-28.09-20.88a9.44,9.44,0,0,0,0,18.87h27.29a6.2,6.2,0,0,0,.65-12.37,1,1,0,0,1-.89-1.07v-.2a6.08,6.08,0,0,0,0-.61,12.64,12.64,0,0,0-24.24-5,1,1,0,0,1-1.1.58A9.77,9.77,0,0,0,335.53,149.13Z"/><path class="aad19331-d9fb-4897-8223-796a7b67301c" d="M368.44,244.79H326.7a1,1,0,0,1-1-1V202a1,1,0,0,1,1-1h41.74a1,1,0,0,1,1,1v41.74A1,1,0,0,1,368.44,244.79Zm-40.74-2h39.74V203H327.7Z"/><path class="aad19331-d9fb-4897-8223-796a7b67301c" d="M362,209.46a1.32,1.32,0,0,1-.39-.06,1.12,1.12,0,0,1-.32-.23.92.92,0,0,1-.22-.32,1.07,1.07,0,0,1-.07-.39,1.06,1.06,0,0,1,.07-.38.83.83,0,0,1,.22-.32,1,1,0,0,1,1.09-.23.82.82,0,0,1,.32.23.75.75,0,0,1,.23.32,1.08,1.08,0,0,1,.08.38,1,1,0,0,1-.31.71.82.82,0,0,1-.32.23A1.31,1.31,0,0,1,362,209.46Z"/><path class="aad19331-d9fb-4897-8223-796a7b67301c" d="M358.81,209.46a1.32,1.32,0,0,1-.39-.06,1.72,1.72,0,0,1-.32-.23.92.92,0,0,1-.22-.32,1.07,1.07,0,0,1-.07-.39.93.93,0,0,1,.29-.7,1,1,0,0,1,1.09-.23.75.75,0,0,1,.32.23.9.9,0,0,1,.29.7,1.06,1.06,0,0,1-.06.39,1.12,1.12,0,0,1-.23.32A.93.93,0,0,1,358.81,209.46Z"/><path class="aad19331-d9fb-4897-8223-796a7b67301c" d="M503.48,33.29h-28.1a11.44,11.44,0,0,1,0-22.88,12.52,12.52,0,0,1,1.35.08A14.64,14.64,0,0,1,504.48,17v0a8.21,8.21,0,0,1-.58,16.13A1.17,1.17,0,0,1,503.48,33.29Zm-28.1-20.87a9.43,9.43,0,0,0,0,18.86h27.3a6.2,6.2,0,0,0,.65-12.37,1,1,0,0,1-.9-1.06l0-.21c0-.2,0-.4,0-.61a12.64,12.64,0,0,0-24.24-5,1,1,0,0,1-1.11.58A9.74,9.74,0,0,0,475.38,12.42Z"/><path class="aad19331-d9fb-4897-8223-796a7b67301c" d="M508.3,108.07H466.55a1,1,0,0,1-1-1V65.32a1,1,0,0,1,1-1H508.3a1,1,0,0,1,1,1v41.75A1,1,0,0,1,508.3,108.07Zm-40.74-2h39.73V66.33H467.56Z"/><path class="aad19331-d9fb-4897-8223-796a7b67301c" d="M501.87,72.74a1,1,0,0,1-.7-.28,1,1,0,0,1-.29-.71,1,1,0,0,1,.06-.39,1.3,1.3,0,0,1,.23-.33,1.18,1.18,0,0,1,.32-.21,1,1,0,0,1,.77,0,.94.94,0,0,1,.32.21.8.8,0,0,1,.22.33,1,1,0,0,1,.08.39,1,1,0,0,1-.3.71A1,1,0,0,1,501.87,72.74Z"/><path class="aad19331-d9fb-4897-8223-796a7b67301c" d="M498.66,72.74a1,1,0,0,1-1-1,1,1,0,0,1,.06-.39A1.27,1.27,0,0,1,498,71a1.42,1.42,0,0,1,.33-.21.94.94,0,0,1,.77,0,1,1,0,0,1,.32.21,1.06,1.06,0,0,1,.22.33,1,1,0,0,1,.08.39,1,1,0,0,1-.3.71A1,1,0,0,1,498.66,72.74Z"/><path class="aad19331-d9fb-4897-8223-796a7b67301c" d="M503.48,170h-28.1a11.44,11.44,0,1,1,1.35-22.8,14.64,14.64,0,0,1,27.75,6.54v0a8.21,8.21,0,0,1-.58,16.14A1.17,1.17,0,0,1,503.48,170Zm-28.1-20.88a9.44,9.44,0,0,0,0,18.87h27.3a6.2,6.2,0,0,0,.65-12.37,1,1,0,0,1-.9-1.07l0-.2c0-.2,0-.4,0-.61a12.64,12.64,0,0,0-24.24-5,1,1,0,0,1-1.11.58A9.6,9.6,0,0,0,475.38,149.13Z"/><path class="aad19331-d9fb-4897-8223-796a7b67301c" d="M508.3,244.79H466.55a1,1,0,0,1-1-1V202a1,1,0,0,1,1-1H508.3a1,1,0,0,1,1,1v41.74A1,1,0,0,1,508.3,244.79Zm-40.74-2h39.73V203H467.56Z"/><path class="aad19331-d9fb-4897-8223-796a7b67301c" d="M501.87,209.46a1,1,0,0,1-.7-.29,1.72,1.72,0,0,1-.23-.32,1.06,1.06,0,0,1-.06-.39,1,1,0,0,1,.06-.38,1,1,0,0,1,.23-.32.9.9,0,0,1,.32-.23,1.13,1.13,0,0,1,.77,0,.75.75,0,0,1,.32.23.66.66,0,0,1,.22.32,1,1,0,0,1,0,.77.92.92,0,0,1-.22.32A1,1,0,0,1,501.87,209.46Z"/><path class="aad19331-d9fb-4897-8223-796a7b67301c" d="M498.66,209.46a1,1,0,0,1-1-1,1,1,0,0,1,.06-.38,1,1,0,0,1,.22-.32,1,1,0,0,1,.33-.23,1.13,1.13,0,0,1,.77,0,.82.82,0,0,1,.32.23.83.83,0,0,1,.22.32,1.08,1.08,0,0,1,.08.38,1,1,0,0,1-1,1Z"/><path class="aad19331-d9fb-4897-8223-796a7b67301c" d="M-2.07,41.31a1,1,0,0,1-.5-.13L-22,29.94a1,1,0,0,1-.5-.87V6.6a1,1,0,0,1,.5-.87L-2.57-5.51a1,1,0,0,1,1,0L17.9,5.73a1,1,0,0,1,.5.87V29.07a1,1,0,0,1-.5.87L-1.57,41.18A1,1,0,0,1-2.07,41.31ZM-20.53,28.49-2.07,39.15,16.39,28.49V7.18L-2.07-3.48-20.53,7.17Zm37.93.58h0Z"/><path class="aad19331-d9fb-4897-8223-796a7b67301c" d="M14,101.65H-14.11A11.45,11.45,0,0,1-25.55,90.21,11.41,11.41,0,0,1-12.77,78.85,14.65,14.65,0,0,1,.34,70.74,14.66,14.66,0,0,1,15,85.39v0a8.21,8.21,0,0,1-.59,16.13A1.17,1.17,0,0,1,14,101.65ZM-14.11,80.77a9.45,9.45,0,0,0-9.43,9.44,9.44,9.44,0,0,0,9.43,9.43H13.18a6.2,6.2,0,0,0,.66-12.37,1,1,0,0,1-.9-1.06V86c0-.21,0-.42,0-.64A12.65,12.65,0,0,0,.34,72.75a12.63,12.63,0,0,0-11.6,7.61,1,1,0,0,1-1.1.58A9.77,9.77,0,0,0-14.11,80.77Z"/><path class="aad19331-d9fb-4897-8223-796a7b67301c" d="M-2.07,178a1,1,0,0,1-.5-.13L-22,166.66a1,1,0,0,1-.5-.87V143.31a1,1,0,0,1,.5-.86l19.47-11.24a1,1,0,0,1,1,0L17.9,142.45a1,1,0,0,1,.5.86v22.48a1,1,0,0,1-.5.87L-1.57,177.9A1,1,0,0,1-2.07,178Zm-18.46-12.82,18.46,10.66,18.46-10.66V143.89L-2.07,133.23l-18.46,10.66Zm37.93.58h0Z"/><path class="aad19331-d9fb-4897-8223-796a7b67301c" d="M14,238.37H-14.11a11.46,11.46,0,0,1-11.44-11.44,11.42,11.42,0,0,1,12.78-11.36A14.65,14.65,0,0,1,.34,207.46,14.66,14.66,0,0,1,15,222.11v0a8.21,8.21,0,0,1-.59,16.13A1.17,1.17,0,0,1,14,238.37Zm-28.09-20.88a9.45,9.45,0,0,0-9.43,9.44,9.44,9.44,0,0,0,9.43,9.43H13.18A6.2,6.2,0,0,0,13.84,224a1,1,0,0,1-.9-1.06v-.19q0-.31,0-.63A12.65,12.65,0,0,0,.34,209.47a12.63,12.63,0,0,0-11.6,7.61,1,1,0,0,1-1.1.58A9.69,9.69,0,0,0-14.11,217.49Z"/><path class="aad19331-d9fb-4897-8223-796a7b67301c" d="M137.79,41.31a1,1,0,0,1-.51-.13L117.82,29.94a1,1,0,0,1-.5-.87V6.6a1,1,0,0,1,.5-.87L137.28-5.51a1,1,0,0,1,1,0L157.75,5.73a1,1,0,0,1,.51.87V29.07a1,1,0,0,1-.51.87L138.29,41.18A1,1,0,0,1,137.79,41.31ZM119.32,28.49l18.47,10.66,18.46-10.66V7.18L137.79-3.48,119.32,7.17Zm37.93.58h0Z"/><path class="aad19331-d9fb-4897-8223-796a7b67301c" d="M153.84,101.65h-28.1a11.44,11.44,0,1,1,1.35-22.8,14.64,14.64,0,0,1,27.75,6.54v0a8.21,8.21,0,0,1-.58,16.13A1.17,1.17,0,0,1,153.84,101.65Zm-28.1-20.88a9.44,9.44,0,0,0,0,18.87H153a6.2,6.2,0,0,0,.65-12.37,1,1,0,0,1-.9-1.06l0-.18c0-.21,0-.42,0-.64a12.64,12.64,0,0,0-24.24-5,1,1,0,0,1-1.11.58A9.77,9.77,0,0,0,125.74,80.77Z"/><path class="aad19331-d9fb-4897-8223-796a7b67301c" d="M137.79,178a1,1,0,0,1-.51-.13l-19.46-11.24a1,1,0,0,1-.5-.87V143.31a1,1,0,0,1,.5-.86l19.46-11.24a1,1,0,0,1,1,0l19.46,11.24a1,1,0,0,1,.51.86v22.48a1,1,0,0,1-.51.87L138.29,177.9A1,1,0,0,1,137.79,178Zm-18.47-12.82,18.47,10.66,18.46-10.66V143.89l-18.46-10.66-18.47,10.66Zm37.93.58h0Z"/><path class="aad19331-d9fb-4897-8223-796a7b67301c" d="M153.84,238.37h-28.1a11.44,11.44,0,1,1,1.35-22.8,14.64,14.64,0,0,1,27.75,6.54v0a8.21,8.21,0,0,1-.58,16.13A1.17,1.17,0,0,1,153.84,238.37Zm-28.1-20.88a9.44,9.44,0,0,0,0,18.87H153a6.2,6.2,0,0,0,.65-12.37,1,1,0,0,1-.9-1.06l0-.19c0-.21,0-.42,0-.63a12.64,12.64,0,0,0-24.24-5,1,1,0,0,1-1.11.58A9.6,9.6,0,0,0,125.74,217.49Z"/><path class="aad19331-d9fb-4897-8223-796a7b67301c" d="M277.64,41.31a1,1,0,0,1-.5-.13L257.67,29.94a1,1,0,0,1-.5-.87V6.6a1,1,0,0,1,.5-.87L277.14-5.51a1,1,0,0,1,1,0L297.61,5.73a1,1,0,0,1,.5.87V29.07a1,1,0,0,1-.5.87L278.14,41.18A1,1,0,0,1,277.64,41.31ZM259.18,28.49l18.46,10.66,18.47-10.66V7.18L277.64-3.48,259.18,7.17Zm37.93.58h0Z"/><path class="aad19331-d9fb-4897-8223-796a7b67301c" d="M293.7,101.65H265.6a11.44,11.44,0,1,1,1.34-22.8,14.65,14.65,0,0,1,27.76,6.54v0a8.21,8.21,0,0,1-.59,16.13A1.07,1.07,0,0,1,293.7,101.65ZM265.6,80.77a9.44,9.44,0,0,0,0,18.87h27.29a6.2,6.2,0,0,0,.66-12.37,1,1,0,0,1-.9-1.06V86c0-.21,0-.42,0-.64a12.64,12.64,0,0,0-24.23-5,1,1,0,0,1-1.11.58A9.77,9.77,0,0,0,265.6,80.77Z"/><path class="aad19331-d9fb-4897-8223-796a7b67301c" d="M277.64,178a1,1,0,0,1-.5-.13l-19.47-11.24a1,1,0,0,1-.5-.87V143.31a1,1,0,0,1,.5-.86l19.47-11.24a1,1,0,0,1,1,0l19.47,11.24a1,1,0,0,1,.5.86v22.48a1,1,0,0,1-.5.87L278.14,177.9A1,1,0,0,1,277.64,178Zm-18.46-12.82,18.46,10.66,18.47-10.66V143.89l-18.47-10.66-18.46,10.66Zm37.93.58h0Z"/><path class="aad19331-d9fb-4897-8223-796a7b67301c" d="M293.7,238.37H265.6a11.44,11.44,0,1,1,1.34-22.8,14.65,14.65,0,0,1,27.76,6.54v0a8.21,8.21,0,0,1-.59,16.13A1.07,1.07,0,0,1,293.7,238.37Zm-28.1-20.88a9.44,9.44,0,0,0,0,18.87h27.29a6.2,6.2,0,0,0,.66-12.37,1,1,0,0,1-.9-1.06v-.19q0-.31,0-.63a12.64,12.64,0,0,0-24.23-5,1,1,0,0,1-1.11.58A9.6,9.6,0,0,0,265.6,217.49Z"/><path class="aad19331-d9fb-4897-8223-796a7b67301c" d="M417.5,41.31a1,1,0,0,1-.5-.13L397.53,29.94a1,1,0,0,1-.5-.87V6.6a1,1,0,0,1,.5-.87L417-5.51a1,1,0,0,1,1,0L437.47,5.73a1,1,0,0,1,.5.87V29.07a1,1,0,0,1-.5.87L418,41.18A1,1,0,0,1,417.5,41.31ZM399,28.49,417.5,39.15,436,28.49V7.18L417.5-3.48,399,7.17Zm37.92.58h0Z"/><path class="aad19331-d9fb-4897-8223-796a7b67301c" d="M433.55,101.65H405.46a11.44,11.44,0,1,1,1.34-22.8,14.65,14.65,0,0,1,27.76,6.54v0a8.21,8.21,0,0,1-.59,16.13A1.17,1.17,0,0,1,433.55,101.65ZM405.46,80.77a9.44,9.44,0,1,0,0,18.87h27.29a6.2,6.2,0,0,0,.65-12.37,1,1,0,0,1-.89-1.06V86c0-.21,0-.42,0-.64a12.64,12.64,0,0,0-24.24-5,1,1,0,0,1-1.1.58A9.86,9.86,0,0,0,405.46,80.77Z"/><path class="aad19331-d9fb-4897-8223-796a7b67301c" d="M417.5,178a1,1,0,0,1-.5-.13l-19.47-11.24a1,1,0,0,1-.5-.87V143.31a1,1,0,0,1,.5-.86L417,131.21a1,1,0,0,1,1,0l19.47,11.24a1,1,0,0,1,.5.86v22.48a1,1,0,0,1-.5.87L418,177.9A1,1,0,0,1,417.5,178ZM399,165.21l18.46,10.66L436,165.21V143.89L417.5,133.23,399,143.89Zm37.92.58h0Z"/><path class="aad19331-d9fb-4897-8223-796a7b67301c" d="M433.55,238.37H405.46a11.44,11.44,0,1,1,1.34-22.8,14.65,14.65,0,0,1,27.76,6.54v0a8.21,8.21,0,0,1-.59,16.13A1.17,1.17,0,0,1,433.55,238.37Zm-28.09-20.88a9.44,9.44,0,1,0,0,18.87h27.29A6.2,6.2,0,0,0,433.4,224a1,1,0,0,1-.89-1.06v-.19c0-.21,0-.42,0-.63a12.64,12.64,0,0,0-24.24-5,1,1,0,0,1-1.11.58A9.58,9.58,0,0,0,405.46,217.49Z"/><path class="aad19331-d9fb-4897-8223-796a7b67301c" d="M557.35,41.31a1,1,0,0,1-.5-.13L537.39,29.94a1,1,0,0,1-.5-.87V6.6a1,1,0,0,1,.5-.87L556.85-5.51a1,1,0,0,1,1,0L577.32,5.73a1,1,0,0,1,.5.87V29.07a1,1,0,0,1-.5.87L557.86,41.18A1,1,0,0,1,557.35,41.31ZM538.89,28.49l18.46,10.66,18.47-10.66V7.18L557.35-3.48,538.89,7.17Zm37.93.58h0Z"/><path class="aad19331-d9fb-4897-8223-796a7b67301c" d="M573.41,101.65h-28.1a11.44,11.44,0,1,1,1.35-22.8,14.64,14.64,0,0,1,27.75,6.54v0a8.21,8.21,0,0,1-.59,16.13A1.07,1.07,0,0,1,573.41,101.65Zm-28.1-20.88a9.44,9.44,0,0,0,0,18.87h27.3a6.2,6.2,0,0,0,.65-12.37,1,1,0,0,1-.9-1.06l0-.18c0-.21,0-.42,0-.64a12.64,12.64,0,0,0-24.24-5,1,1,0,0,1-1.11.58A9.77,9.77,0,0,0,545.31,80.77Z"/><path class="aad19331-d9fb-4897-8223-796a7b67301c" d="M557.35,178a1,1,0,0,1-.5-.13l-19.46-11.24a1,1,0,0,1-.5-.87V143.31a1,1,0,0,1,.5-.86l19.46-11.24a1,1,0,0,1,1,0l19.46,11.24a1,1,0,0,1,.5.86v22.48a1,1,0,0,1-.5.87L557.86,177.9A1,1,0,0,1,557.35,178Zm-18.46-12.82,18.46,10.66,18.47-10.66V143.89l-18.47-10.66-18.46,10.66Zm37.93.58h0Z"/><path class="aad19331-d9fb-4897-8223-796a7b67301c" d="M573.41,238.37h-28.1a11.44,11.44,0,1,1,1.35-22.8,14.64,14.64,0,0,1,27.75,6.54v0a8.21,8.21,0,0,1-.59,16.13A1.07,1.07,0,0,1,573.41,238.37Zm-28.1-20.88a9.44,9.44,0,0,0,0,18.87h27.3a6.2,6.2,0,0,0,.65-12.37,1,1,0,0,1-.9-1.06l0-.19c0-.21,0-.42,0-.63a12.64,12.64,0,0,0-24.24-5,1,1,0,0,1-1.11.58A9.6,9.6,0,0,0,545.31,217.49Z"/></g></svg>