<svg id="bf964cda-ca9f-4d77-a197-c64f28d7892c" data-name="Layer 1" xmlns="http://www.w3.org/2000/svg" viewBox="0 0 262 180"><defs><style>.a3690bb3-753f-4432-8473-523e3f35c74a{fill:#e00;}.b3c61abf-e4eb-4910-9f7f-0c40252ae25d{fill:none;}</style></defs><path class="a3690bb3-753f-4432-8473-523e3f35c74a" d="M200.89,80.63a1.71,1.71,0,0,0,1.75-1.72,1.74,1.74,0,1,0-3.47,0A1.71,1.71,0,0,0,200.89,80.63Z"/><path class="a3690bb3-753f-4432-8473-523e3f35c74a" d="M206.45,80.63a1.72,1.72,0,0,0,1.75-1.72,1.74,1.74,0,1,0-3.47,0A1.71,1.71,0,0,0,206.45,80.63Z"/><path class="a3690bb3-753f-4432-8473-523e3f35c74a" d="M212,80.63a1.72,1.72,0,0,0,1.75-1.72,1.74,1.74,0,1,0-3.47,0A1.71,1.71,0,0,0,212,80.63Z"/><path class="a3690bb3-753f-4432-8473-523e3f35c74a" d="M220.34,124.39a1.75,1.75,0,0,0-1.72,1.75,1.74,1.74,0,0,0,3.47,0A1.76,1.76,0,0,0,220.34,124.39Z"/><path class="a3690bb3-753f-4432-8473-523e3f35c74a" d="M170.34,124.39a1.75,1.75,0,0,0-1.72,1.75,1.74,1.74,0,0,0,3.47,0A1.76,1.76,0,0,0,170.34,124.39Z"/><path class="a3690bb3-753f-4432-8473-523e3f35c74a" d="M220.35,68.82h-50a1.73,1.73,0,0,0-1.73,1.74V83l-13.71-13.7a1.73,1.73,0,0,0-2.45,2.45l16.16,16.16v32.62a1.73,1.73,0,0,0,1.73,1.73h50a1.74,1.74,0,0,0,1.74-1.73v-50A1.74,1.74,0,0,0,220.35,68.82Zm-1.73,16.67H187A1.74,1.74,0,1,0,187,89h31.6V96.6H187a1.74,1.74,0,1,0,0,3.47h31.6v7.64H187a1.74,1.74,0,1,0,0,3.47h31.6v7.64H172.09V72.29h46.53Z"/><path class="a3690bb3-753f-4432-8473-523e3f35c74a" d="M220.35,52.15H187a1.74,1.74,0,0,0-1.74,1.74V65A1.74,1.74,0,0,0,187,66.74h33.33A1.74,1.74,0,0,0,222.09,65V53.89A1.74,1.74,0,0,0,220.35,52.15Zm-1.73,11.11H188.76V55.63h29.86Z"/><rect class="b3c61abf-e4eb-4910-9f7f-0c40252ae25d" x="137.02" y="40" width="100" height="100"/><path class="a3690bb3-753f-4432-8473-523e3f35c74a" d="M117.09,57.71H44.87a1.74,1.74,0,0,0-1.74,1.73v47.23a1.73,1.73,0,0,0,1.74,1.73H73.69v10.42H56a1.74,1.74,0,1,0,0,3.47h50a1.74,1.74,0,1,0,0-3.47H88.27V108.4h28.82a1.73,1.73,0,0,0,1.74-1.73V59.44A1.74,1.74,0,0,0,117.09,57.71ZM84.8,118.82H77.16V108.4H84.8Zm30.56-13.89H46.61V61.18h68.75Z"/><rect class="b3c61abf-e4eb-4910-9f7f-0c40252ae25d" x="30.98" y="40" width="100" height="100"/></svg>