<svg id="a4bceaee-3120-41ce-bf17-0785e8609359" data-name="Layer 1" xmlns="http://www.w3.org/2000/svg" viewBox="0 0 262 180"><defs><style>.a1cde65e-9940-4174-baf0-5bff93a0efa1{fill:#e00;}.bfcd4f90-442d-402e-8f3a-e71239e7ce71{fill:none;}</style></defs><path class="a1cde65e-9940-4174-baf0-5bff93a0efa1" d="M185.51,105.35v-.06a25.34,25.34,0,0,0-48-11.32,19.79,19.79,0,1,0-2.32,39.44h48.61a1.72,1.72,0,0,0,.72-.15,14.2,14.2,0,0,0,1-27.91Zm-3.12,24.59H135.17a16.32,16.32,0,1,1,0-32.64,16.76,16.76,0,0,1,3,.29,1.72,1.72,0,0,0,1.91-1A21.87,21.87,0,0,1,182,105.29c0,.37,0,.73,0,1.1l0,.31a1.74,1.74,0,0,0,1.55,1.84,10.73,10.73,0,0,1-1.13,21.4Z"/><rect class="bfcd4f90-442d-402e-8f3a-e71239e7ce71" x="106" y="56.68" width="100" height="100"/><path class="a1cde65e-9940-4174-baf0-5bff93a0efa1" d="M139.33,57.7H102.18V51.1a15.63,15.63,0,0,0-31.25,0v8.33a1.74,1.74,0,1,0,3.47,0V51.1a12.16,12.16,0,0,1,24.31,0v6.6H89.33a1.74,1.74,0,0,0-1.73,1.73v50a1.74,1.74,0,0,0,1.73,1.74h50a1.74,1.74,0,0,0,1.74-1.74v-50A1.74,1.74,0,0,0,139.33,57.7Zm-48.26,50V61.17H137.6V71.59H114.33a1.74,1.74,0,0,0,0,3.47H137.6V82.7H114.33a1.74,1.74,0,0,0,0,3.47H137.6v7.64H114.33a1.74,1.74,0,0,0,0,3.47H137.6V107.7Z"/><rect class="bfcd4f90-442d-402e-8f3a-e71239e7ce71" x="56" y="23.32" width="100" height="100"/></svg>