<?xml version="1.0" encoding="utf-8"?>
<!-- Generator: Adobe Illustrator 26.0.1, SVG Export Plug-In . SVG Version: 6.00 Build 0)  -->
<svg version="1.1" id="a10b1d93-9e5c-40f4-ac5e-e036bcb75c6f"
	 xmlns="http://www.w3.org/2000/svg" xmlns:xlink="http://www.w3.org/1999/xlink" x="0px" y="0px" viewBox="0 0 262 180"
	 style="enable-background:new 0 0 262 180;" xml:space="preserve">
<style type="text/css">
	.st0{fill:#F3F3F3;}
	.st1{enable-background:new    ;}
	.st2{fill:#EE0000;}
</style>
<rect x="32" y="26.5" class="st0" width="198" height="127"/>
<g class="st1">
	<path d="M130.3,52.5h-0.8l0.9-2.5h0.6L130.3,52.5z M132.1,52.5h-0.8l0.9-2.5h0.6L132.1,52.5z"/>
</g>
<g class="st1">
	<path d="M134,54.9v-4.3h0.8v4.3c0,1.5,0.9,2.5,2.2,2.5s2.2-1,2.2-2.5v-4.3h0.8v4.3c0,2-1.2,3.3-3,3.3S134,56.9,134,54.9z"/>
</g>
<g class="st1">
	<path d="M141.2,57.4l0.4-0.5c0.6,0.5,1.1,0.7,1.7,0.7c0.8,0,1.3-0.4,1.3-1c0-0.4-0.3-0.7-0.9-0.8l-0.9-0.1c-1-0.2-1.5-0.6-1.5-1.4
		c0-0.9,0.8-1.5,1.9-1.5c0.7,0,1.3,0.2,2,0.7l-0.4,0.5c-0.5-0.4-1.1-0.6-1.6-0.6c-0.7,0-1.1,0.3-1.1,0.8c0,0.4,0.2,0.6,0.9,0.7
		l0.9,0.2c1,0.2,1.5,0.6,1.5,1.4c0,0.9-0.9,1.6-2,1.6C142.5,58.2,141.7,57.9,141.2,57.4z"/>
	<path d="M146.4,51c0-0.3,0.3-0.6,0.6-0.6s0.6,0.3,0.6,0.6s-0.3,0.6-0.6,0.6S146.4,51.3,146.4,51z M146.5,52.9h0.8v5.2h-0.8V52.9z"
		/>
	<path d="M148.9,52.9h0.8v0.8c0.4-0.6,1-0.9,1.7-0.9c1.1,0,1.9,0.8,1.9,1.9v3.4h-0.8v-3.2c0-0.9-0.5-1.5-1.4-1.5
		c-0.6,0-1.1,0.3-1.4,0.8v3.9h-0.8V52.9z"/>
	<path d="M155.2,59.9l0.3-0.6c0.6,0.3,1.1,0.5,1.7,0.5c1,0,1.5-0.5,1.5-1.3v-1c-0.4,0.5-1,0.8-1.7,0.8c-1.4,0-2.4-1.2-2.4-2.7
		c0-1.5,1.1-2.7,2.4-2.7c0.7,0,1.2,0.3,1.6,0.7v-0.7h0.8v5.6c0,1.3-0.8,2-2.2,2C156.5,60.4,155.8,60.2,155.2,59.9z M158.7,56.8v-2.6
		c-0.3-0.4-0.9-0.7-1.5-0.7c-1,0-1.8,0.8-1.8,2s0.8,2,1.8,2C157.8,57.5,158.3,57.2,158.7,56.8z"/>
</g>
<g class="st1">
	<path d="M163.7,50.6h3.1c1.4,0,2.4,0.9,2.4,2.2c0,1-0.6,1.7-1.6,2l1.6,3.3h-0.9l-1.5-3.2h-2.2v3.2h-0.8V50.6z M166.7,54.2
		c1,0,1.6-0.6,1.6-1.4c0-0.9-0.6-1.4-1.6-1.4h-2.2v2.9H166.7z"/>
</g>
<g class="st1">
	<path d="M170,55.5c0-1.5,1.1-2.7,2.5-2.7c1.4,0,2.4,1.1,2.4,2.6v0.2h-4.1c0.1,1.1,0.9,1.9,1.9,1.9c0.5,0,1.1-0.2,1.4-0.5l0.5,0.5
		c-0.6,0.5-1.2,0.7-2,0.7C171.1,58.2,170,57,170,55.5z M174.1,55.1c-0.1-0.9-0.8-1.6-1.6-1.6c-0.9,0-1.5,0.7-1.7,1.6H174.1z"/>
	<path d="M175.9,55.5c0-1.5,1.1-2.7,2.4-2.7c0.6,0,1.2,0.3,1.6,0.7v-3.2l0.8-0.2v7.9H180v-0.7c-0.4,0.5-1,0.8-1.7,0.8
		C177,58.2,175.9,57,175.9,55.5z M180,56.8v-2.6c-0.3-0.4-0.9-0.7-1.5-0.7c-1,0-1.8,0.8-1.8,2s0.8,2,1.8,2
		C179.2,57.5,179.7,57.2,180,56.8z"/>
</g>
<g class="st1">
	<path d="M185,50.6h0.8v3.3h4.3v-3.3h0.8v7.5h-0.8v-3.4h-4.3v3.4H185V50.6z"/>
</g>
<g class="st1">
	<path d="M192.4,56.6c0-0.9,0.8-1.6,2-1.6c0.6,0,1.1,0.1,1.6,0.4v-0.7c0-0.9-0.5-1.3-1.3-1.3c-0.5,0-1,0.1-1.6,0.4l-0.3-0.6
		c0.7-0.3,1.3-0.5,2-0.5c1.3,0,2,0.7,2,1.8v3.5h-0.8v-0.6c-0.5,0.5-1,0.7-1.7,0.7C193.1,58.2,192.4,57.5,192.4,56.6z M194.4,57.6
		c0.6,0,1.1-0.2,1.5-0.6v-1c-0.4-0.3-0.9-0.4-1.5-0.4c-0.8,0-1.3,0.4-1.3,1C193.1,57.2,193.6,57.6,194.4,57.6z"/>
</g>
<g class="st1">
	<path d="M198.7,56.9v-3.4h-1.1v-0.6h1.1v-1.4l0.8-0.2v1.6h1.5v0.6h-1.5v3.2c0,0.6,0.2,0.8,0.8,0.8c0.3,0,0.4,0,0.7-0.1V58
		c-0.3,0.1-0.6,0.1-0.9,0.1C199.2,58.2,198.7,57.7,198.7,56.9z"/>
</g>
<g class="st1">
	<path d="M134.3,69.8v-3.4h-1.1v-0.6h1.1v-1.4l0.8-0.2v1.6h1.5v0.6h-1.5v3.2c0,0.6,0.2,0.8,0.8,0.8c0.3,0,0.4,0,0.7-0.1v0.7
		c-0.3,0.1-0.6,0.1-0.9,0.1C134.7,71,134.3,70.6,134.3,69.8z"/>
</g>
<g class="st1">
	<path d="M137.4,68.3c0-1.5,1.1-2.7,2.5-2.7c1.4,0,2.4,1.1,2.4,2.6v0.2h-4.1c0.1,1.1,0.9,1.9,1.9,1.9c0.5,0,1.1-0.2,1.4-0.5l0.5,0.5
		c-0.6,0.5-1.2,0.7-2,0.7C138.5,71,137.4,69.9,137.4,68.3z M141.4,67.9c-0.1-0.9-0.8-1.6-1.6-1.6c-0.9,0-1.5,0.7-1.7,1.6H141.4z"/>
	<path d="M143.3,68.3c0-1.5,1.1-2.7,2.6-2.7c0.8,0,1.5,0.3,2,0.8l-0.5,0.5c-0.4-0.4-0.9-0.7-1.5-0.7c-1,0-1.8,0.9-1.8,2
		c0,1.1,0.8,2,1.8,2c0.5,0,1.1-0.2,1.5-0.7l0.5,0.5c-0.5,0.5-1.2,0.8-2,0.8C144.4,71,143.3,69.8,143.3,68.3z"/>
	<path d="M149,63.2l0.8-0.2v3.5c0.4-0.6,1-0.9,1.7-0.9c1.1,0,1.9,0.8,1.9,1.9v3.4h-0.8v-3.2c0-0.9-0.5-1.5-1.4-1.5
		c-0.6,0-1.1,0.3-1.4,0.8v3.9H149V63.2z"/>
	<path d="M154.9,65.7h0.8v0.8c0.4-0.6,1-0.9,1.7-0.9c1.1,0,1.9,0.8,1.9,1.9v3.4h-0.8v-3.2c0-0.9-0.5-1.5-1.4-1.5
		c-0.6,0-1.1,0.3-1.4,0.8v3.9h-0.8V65.7z"/>
	<path d="M160.6,68.3c0-1.5,1.1-2.7,2.5-2.7c1.4,0,2.5,1.2,2.5,2.7c0,1.5-1.1,2.7-2.5,2.7C161.7,71,160.6,69.9,160.6,68.3z
		 M164.9,68.3c0-1.1-0.7-2-1.8-2c-1,0-1.8,0.9-1.8,2s0.7,2,1.8,2C164.1,70.3,164.9,69.5,164.9,68.3z"/>
	<path d="M167,63.2l0.8-0.2v7.9H167V63.2z"/>
	<path d="M169.2,68.3c0-1.5,1.1-2.7,2.5-2.7s2.5,1.2,2.5,2.7c0,1.5-1.1,2.7-2.5,2.7S169.2,69.9,169.2,68.3z M173.5,68.3
		c0-1.1-0.7-2-1.8-2c-1,0-1.8,0.9-1.8,2s0.7,2,1.8,2C172.7,70.3,173.5,69.5,173.5,68.3z"/>
	<path d="M176,72.7l0.3-0.6c0.6,0.3,1.1,0.5,1.7,0.5c1,0,1.5-0.5,1.5-1.3v-1c-0.4,0.5-1,0.8-1.7,0.8c-1.4,0-2.4-1.2-2.4-2.7
		c0-1.5,1.1-2.7,2.4-2.7c0.7,0,1.2,0.3,1.6,0.7v-0.7h0.8v5.6c0,1.3-0.8,2-2.2,2C177.3,73.3,176.6,73.1,176,72.7z M179.4,69.6V67
		c-0.3-0.4-0.9-0.7-1.5-0.7c-1,0-1.8,0.8-1.8,2s0.8,2,1.8,2C178.6,70.3,179.1,70.1,179.4,69.6z"/>
	<path d="M181.6,73.2v-0.7c0.1,0,0.3,0,0.4,0c0.4,0,0.6-0.2,0.8-0.7l0.4-1l-2-5.2h0.9l1.6,4.3l1.7-4.3h0.9l-2.6,6.4
		c-0.4,0.8-0.7,1.2-1.5,1.2C181.9,73.3,181.7,73.3,181.6,73.2z"/>
	<path d="M189.7,63.2l0.8-0.2v3.5c0.4-0.6,1-0.9,1.7-0.9c1.1,0,1.9,0.8,1.9,1.9v3.4h-0.8v-3.2c0-0.9-0.5-1.5-1.4-1.5
		c-0.6,0-1.1,0.3-1.4,0.8v3.9h-0.8V63.2z"/>
	<path d="M195.3,69.4c0-0.9,0.8-1.6,2-1.6c0.6,0,1.1,0.1,1.6,0.4v-0.7c0-0.9-0.5-1.3-1.3-1.3c-0.5,0-1,0.1-1.6,0.4l-0.3-0.6
		c0.7-0.3,1.3-0.5,2-0.5c1.3,0,2,0.7,2,1.8v3.5h-0.8v-0.6c-0.5,0.5-1,0.7-1.7,0.7C196.1,71,195.3,70.4,195.3,69.4z M197.3,70.4
		c0.6,0,1.1-0.2,1.5-0.6v-1c-0.4-0.3-0.9-0.4-1.5-0.4c-0.8,0-1.3,0.4-1.3,1C196,70,196.6,70.4,197.3,70.4z"/>
	<path d="M200.7,70.3l0.4-0.5c0.6,0.5,1.1,0.7,1.7,0.7c0.8,0,1.3-0.4,1.3-1c0-0.4-0.3-0.7-0.9-0.8l-0.9-0.1c-1-0.2-1.5-0.6-1.5-1.4
		c0-0.9,0.8-1.5,1.9-1.5c0.7,0,1.3,0.2,2,0.7l-0.4,0.5c-0.5-0.4-1.1-0.6-1.6-0.6c-0.7,0-1.1,0.3-1.1,0.8c0,0.4,0.2,0.6,0.9,0.7
		l0.9,0.2c1,0.2,1.5,0.6,1.5,1.4c0,0.9-0.9,1.6-2,1.6C202,71,201.2,70.8,200.7,70.3z"/>
</g>
<g class="st1">
	<path d="M133.7,76l0.8-0.2v3.5c0.4-0.6,1-0.9,1.7-0.9c1.1,0,1.9,0.8,1.9,1.9v3.4h-0.8v-3.2c0-0.9-0.5-1.5-1.4-1.5
		c-0.6,0-1.1,0.3-1.4,0.8v3.9h-0.8V76z"/>
	<path d="M139.3,81.2c0-1.5,1.1-2.7,2.5-2.7c1.4,0,2.4,1.1,2.4,2.6v0.2h-4.1c0.1,1.1,0.9,1.9,1.9,1.9c0.5,0,1.1-0.2,1.4-0.5l0.5,0.5
		c-0.6,0.5-1.2,0.7-2,0.7C140.4,83.9,139.3,82.7,139.3,81.2z M143.4,80.8c-0.1-0.9-0.8-1.6-1.6-1.6c-0.9,0-1.5,0.7-1.7,1.6H143.4z"
		/>
	<path d="M145.5,76l0.8-0.2v7.9h-0.8V76z"/>
	<path d="M147.9,78.6h0.8v0.7c0.4-0.5,1-0.8,1.7-0.8c1.4,0,2.4,1.2,2.4,2.7c0,1.5-1.1,2.7-2.4,2.7c-0.7,0-1.2-0.3-1.6-0.7V86h-0.8
		V78.6z M152,81.2c0-1.1-0.8-2-1.8-2c-0.6,0-1.2,0.3-1.5,0.7v2.6c0.3,0.5,0.9,0.7,1.5,0.7C151.2,83.2,152,82.3,152,81.2z"/>
	<path d="M153.9,81.2c0-1.5,1.1-2.7,2.5-2.7c1.4,0,2.4,1.1,2.4,2.6v0.2h-4.1c0.1,1.1,0.9,1.9,1.9,1.9c0.5,0,1.1-0.2,1.4-0.5l0.5,0.5
		c-0.6,0.5-1.2,0.7-2,0.7C155,83.9,153.9,82.7,153.9,81.2z M158,80.8c-0.1-0.9-0.8-1.6-1.6-1.6c-0.9,0-1.5,0.7-1.7,1.6H158z"/>
	<path d="M159.9,81.2c0-1.5,1.1-2.7,2.5-2.7c0.6,0,1.2,0.3,1.6,0.7V76l0.8-0.2v7.9h-0.8v-0.7c-0.4,0.5-1,0.8-1.7,0.8
		C160.9,83.8,159.9,82.7,159.9,81.2z M163.9,82.5v-2.6c-0.3-0.4-0.9-0.7-1.5-0.7c-1,0-1.8,0.8-1.8,2s0.8,2,1.8,2
		C163.1,83.2,163.6,82.9,163.9,82.5z"/>
	<path d="M168.8,78.6h0.8v0.8c0.4-0.6,0.9-0.9,1.6-0.9c0.7,0,1.3,0.4,1.6,1c0.4-0.7,1-1,1.7-1c1,0,1.8,0.8,1.8,1.9v3.4h-0.8v-3.2
		c0-0.9-0.5-1.5-1.3-1.5c-0.5,0-1,0.3-1.3,0.8c0,0.1,0,0.3,0,0.5v3.4h-0.8v-3.2c0-0.9-0.5-1.5-1.3-1.5c-0.5,0-1,0.3-1.3,0.8v3.9
		h-0.8V78.6z"/>
	<path d="M177.6,81.2c0-1.5,1.1-2.7,2.5-2.7c1.4,0,2.4,1.1,2.4,2.6v0.2h-4.1c0.1,1.1,0.9,1.9,1.9,1.9c0.5,0,1.1-0.2,1.4-0.5l0.5,0.5
		c-0.6,0.5-1.2,0.7-2,0.7C178.8,83.9,177.6,82.7,177.6,81.2z M181.7,80.8c-0.1-0.9-0.8-1.6-1.6-1.6c-0.9,0-1.5,0.7-1.7,1.6H181.7z"
		/>
	<path d="M186.7,85.6L187,85c0.6,0.3,1.1,0.5,1.7,0.5c1,0,1.5-0.5,1.5-1.3v-1c-0.4,0.5-1,0.8-1.7,0.8c-1.4,0-2.4-1.2-2.4-2.7
		c0-1.5,1.1-2.7,2.4-2.7c0.7,0,1.2,0.3,1.6,0.7v-0.7h0.8v5.6c0,1.3-0.8,2-2.2,2C188,86.1,187.3,85.9,186.7,85.6z M190.2,82.5v-2.6
		c-0.3-0.4-0.9-0.7-1.5-0.7c-1,0-1.8,0.8-1.8,2s0.8,2,1.8,2C189.3,83.2,189.8,82.9,190.2,82.5z"/>
</g>
<g class="st1">
	<path d="M192.6,78.6h0.8v1.1c0.3-0.7,0.8-1.2,1.5-1.2c0.2,0,0.3,0,0.5,0.1v0.7c-0.2-0.1-0.4-0.1-0.5-0.1c-0.6,0-1.1,0.4-1.4,1.1
		v3.6h-0.8V78.6z"/>
</g>
<g class="st1">
	<path d="M195.8,81.2c0-1.5,1.1-2.7,2.5-2.7c1.4,0,2.5,1.2,2.5,2.7c0,1.5-1.1,2.7-2.5,2.7C196.9,83.9,195.8,82.7,195.8,81.2z
		 M200.1,81.2c0-1.1-0.7-2-1.8-2c-1,0-1.8,0.9-1.8,2s0.7,2,1.8,2C199.3,83.2,200.1,82.3,200.1,81.2z"/>
</g>
<g class="st1">
	<path d="M201.6,78.6h0.8l1.1,4.2l1.3-4.2h0.7l1.3,4.2l1.1-4.2h0.7l-1.4,5.2h-0.8l-1.2-4.2l-1.2,4.2H203L201.6,78.6z"/>
</g>
<g class="st1">
	<path d="M133.7,91.4h0.8v0.8c0.4-0.6,0.9-0.9,1.6-0.9c0.7,0,1.3,0.4,1.6,1c0.4-0.7,1-1,1.7-1c1,0,1.8,0.8,1.8,1.9v3.4h-0.8v-3.2
		c0-0.9-0.5-1.5-1.3-1.5c-0.5,0-1,0.3-1.3,0.8c0,0.1,0,0.3,0,0.5v3.4H137v-3.2c0-0.9-0.5-1.5-1.3-1.5c-0.5,0-1,0.3-1.3,0.8v3.9h-0.8
		V91.4z"/>
</g>
<g class="st1">
	<path d="M142.3,98.9v-0.7c0.1,0,0.3,0,0.4,0c0.4,0,0.6-0.2,0.8-0.7l0.4-1l-2-5.2h0.9l1.6,4.3l1.7-4.3h0.9l-2.6,6.4
		c-0.4,0.8-0.7,1.2-1.5,1.2C142.7,99,142.5,98.9,142.3,98.9z"/>
	<path d="M150.6,89.1h0.8v7.5h-0.8V89.1z"/>
	<path d="M155.2,89.9h-2.6v-0.7h6v0.7H156v6.8h-0.8V89.9z"/>
</g>
<g class="st1">
	<path d="M161.7,96l0.4-0.5c0.6,0.5,1.1,0.7,1.7,0.7c0.8,0,1.3-0.4,1.3-1c0-0.4-0.3-0.7-0.9-0.8l-0.9-0.1c-1-0.2-1.5-0.6-1.5-1.4
		c0-0.9,0.8-1.5,1.9-1.5c0.7,0,1.3,0.2,2,0.7l-0.4,0.5c-0.5-0.4-1.1-0.6-1.6-0.6c-0.7,0-1.1,0.3-1.1,0.8c0,0.4,0.2,0.6,0.9,0.7
		l0.9,0.2c1,0.2,1.5,0.6,1.5,1.4c0,0.9-0.9,1.6-2,1.6C163,96.7,162.2,96.5,161.7,96z"/>
</g>
<g class="st1">
	<path d="M166.9,94c0-1.5,1.1-2.7,2.5-2.7c1.4,0,2.4,1.1,2.4,2.6v0.2h-4.1c0.1,1.1,0.9,1.9,1.9,1.9c0.5,0,1.1-0.2,1.4-0.5l0.5,0.5
		c-0.6,0.5-1.2,0.7-2,0.7C168,96.7,166.9,95.6,166.9,94z M171,93.6c-0.1-0.9-0.8-1.6-1.6-1.6c-0.9,0-1.5,0.7-1.7,1.6H171z"/>
</g>
<g class="st1">
	<path d="M173.1,91.4h0.8v1.1c0.3-0.7,0.8-1.2,1.5-1.2c0.2,0,0.3,0,0.5,0.1v0.7c-0.2-0.1-0.4-0.1-0.5-0.1c-0.6,0-1.1,0.4-1.4,1.1
		v3.6h-0.8V91.4z"/>
</g>
<g class="st1">
	<path d="M176.4,91.4h0.8l1.7,4.2l1.7-4.2h0.8l-2.2,5.2h-0.7L176.4,91.4z"/>
	<path d="M182.2,89.5c0-0.3,0.3-0.6,0.6-0.6s0.6,0.3,0.6,0.6s-0.3,0.6-0.6,0.6S182.2,89.8,182.2,89.5z M182.4,91.4h0.8v5.2h-0.8
		V91.4z"/>
</g>
<g class="st1">
	<path d="M184.5,94c0-1.5,1.1-2.7,2.6-2.7c0.8,0,1.5,0.3,2,0.8l-0.5,0.5c-0.4-0.4-0.9-0.7-1.5-0.7c-1,0-1.8,0.9-1.8,2
		c0,1.1,0.8,2,1.8,2c0.5,0,1.1-0.2,1.5-0.7l0.5,0.5c-0.5,0.5-1.2,0.8-2,0.8C185.6,96.7,184.5,95.5,184.5,94z"/>
</g>
<g class="st1">
	<path d="M189.8,94c0-1.5,1.1-2.7,2.5-2.7c1.4,0,2.4,1.1,2.4,2.6v0.2h-4.1c0.1,1.1,0.9,1.9,1.9,1.9c0.5,0,1.1-0.2,1.4-0.5l0.5,0.5
		c-0.6,0.5-1.2,0.7-2,0.7C190.9,96.7,189.8,95.6,189.8,94z M193.9,93.6c-0.1-0.9-0.8-1.6-1.6-1.6c-0.9,0-1.5,0.7-1.7,1.6H193.9z"/>
</g>
<g class="st1">
	<path d="M195.5,96l0.4-0.5c0.6,0.5,1.1,0.7,1.7,0.7c0.8,0,1.3-0.4,1.3-1c0-0.4-0.3-0.7-0.9-0.8l-0.9-0.1c-1-0.2-1.5-0.6-1.5-1.4
		c0-0.9,0.8-1.5,1.9-1.5c0.7,0,1.3,0.2,2,0.7l-0.4,0.5c-0.5-0.4-1.1-0.6-1.6-0.6c-0.7,0-1.1,0.3-1.1,0.8c0,0.4,0.2,0.6,0.9,0.7
		l0.9,0.2c1,0.2,1.5,0.6,1.5,1.4c0,0.9-0.9,1.6-2,1.6C196.8,96.7,196.1,96.5,195.5,96z"/>
</g>
<g class="st1">
	<path d="M200.8,96.1c0-0.3,0.3-0.6,0.6-0.6s0.6,0.3,0.6,0.6c0,0.3-0.3,0.6-0.6,0.6S200.8,96.4,200.8,96.1z"/>
</g>
<g class="st1">
	<path d="M203.4,88.6h0.8l-0.9,2.5h-0.6L203.4,88.6z M205.1,88.6h0.8l-0.9,2.5h-0.6L205.1,88.6z"/>
</g>
<g class="st1">
	<path class="st2" d="M133.5,113.3h6.1v0.7h-6.1V113.3z"/>
</g>
<g class="st1">
	<path d="M133.1,128.3l0.5-0.6c0.9,0.8,1.6,1.2,2.6,1.2c1.2,0,2-0.6,2-1.5c0-0.7-0.4-1.1-1.7-1.3l-1.2-0.2c-1.4-0.2-2-0.8-2-1.8
		c0-1.3,1-2.2,2.6-2.2c1.1,0,2,0.3,3,1l-0.4,0.6c-0.8-0.6-1.6-0.9-2.5-0.9c-1,0-1.8,0.6-1.8,1.4c0,0.7,0.4,1,1.4,1.2l1.2,0.2
		c1.6,0.3,2.3,0.9,2.3,2c0,1.3-1.2,2.3-2.8,2.3C135,129.6,134.1,129.2,133.1,128.3z"/>
	<path d="M140.3,121.7l0.8-0.2v3.5c0.4-0.6,1-0.9,1.7-0.9c1.1,0,1.9,0.8,1.9,1.9v3.4h-0.8v-3.2c0-0.9-0.5-1.5-1.4-1.5
		c-0.6,0-1.1,0.3-1.4,0.8v3.9h-0.8V121.7z"/>
	<path d="M145.9,128c0-0.9,0.8-1.6,2-1.6c0.6,0,1.1,0.1,1.6,0.4v-0.7c0-0.9-0.5-1.3-1.3-1.3c-0.5,0-1,0.1-1.6,0.4l-0.3-0.6
		c0.7-0.3,1.3-0.5,2-0.5c1.3,0,2,0.7,2,1.8v3.5h-0.8v-0.6c-0.5,0.5-1,0.7-1.7,0.7C146.7,129.6,145.9,128.9,145.9,128z M148,129
		c0.6,0,1.1-0.2,1.5-0.6v-1c-0.4-0.3-0.9-0.4-1.5-0.4c-0.8,0-1.3,0.4-1.3,1C146.7,128.6,147.2,129,148,129z"/>
	<path d="M151.6,126.9c0-1.5,1.1-2.7,2.4-2.7c0.6,0,1.2,0.3,1.6,0.7v-3.2l0.8-0.2v7.9h-0.8v-0.7c-0.4,0.5-1,0.8-1.7,0.8
		C152.7,129.5,151.6,128.4,151.6,126.9z M155.7,128.2v-2.6c-0.3-0.4-0.9-0.7-1.5-0.7c-1,0-1.8,0.8-1.8,2s0.8,2,1.8,2
		C154.8,128.9,155.4,128.6,155.7,128.2z"/>
</g>
<g class="st1">
	<path d="M157.9,126.8c0-1.5,1.1-2.7,2.5-2.7s2.5,1.2,2.5,2.7c0,1.5-1.1,2.7-2.5,2.7S157.9,128.4,157.9,126.8z M162.2,126.8
		c0-1.1-0.7-2-1.8-2c-1,0-1.8,0.9-1.8,2s0.7,2,1.8,2C161.4,128.9,162.2,128,162.2,126.8z"/>
</g>
<g class="st1">
	<path d="M163.7,124.2h0.8l1.1,4.2l1.3-4.2h0.7l1.3,4.2l1.1-4.2h0.7l-1.4,5.2h-0.8l-1.2-4.2l-1.2,4.2h-0.8L163.7,124.2z"/>
	<path d="M171.7,124.2h0.8v0.8c0.4-0.6,0.9-0.9,1.6-0.9c0.7,0,1.3,0.4,1.6,1c0.4-0.7,1-1,1.7-1c1,0,1.8,0.8,1.8,1.9v3.4h-0.8v-3.2
		c0-0.9-0.5-1.5-1.3-1.5c-0.5,0-1,0.3-1.3,0.8c0,0.1,0,0.3,0,0.5v3.4H175v-3.2c0-0.9-0.5-1.5-1.3-1.5c-0.5,0-1,0.3-1.3,0.8v3.9h-0.8
		V124.2z"/>
	<path d="M180.4,128c0-0.9,0.8-1.6,2-1.6c0.6,0,1.1,0.1,1.6,0.4v-0.7c0-0.9-0.5-1.3-1.3-1.3c-0.5,0-1,0.1-1.6,0.4l-0.3-0.6
		c0.7-0.3,1.3-0.5,2-0.5c1.3,0,2,0.7,2,1.8v3.5H184v-0.6c-0.5,0.5-1,0.7-1.7,0.7C181.2,129.6,180.4,128.9,180.4,128z M182.5,129
		c0.6,0,1.1-0.2,1.5-0.6v-1c-0.4-0.3-0.9-0.4-1.5-0.4c-0.8,0-1.3,0.4-1.3,1C181.2,128.6,181.7,129,182.5,129z"/>
	<path d="M186.3,124.2h0.8v0.8c0.4-0.6,1-0.9,1.7-0.9c1.1,0,1.9,0.8,1.9,1.9v3.4h-0.8v-3.2c0-0.9-0.5-1.5-1.4-1.5
		c-0.6,0-1.1,0.3-1.4,0.8v3.9h-0.8V124.2z"/>
</g>
<path class="st2" d="M111.6,111.2c-0.4,0-0.9-0.2-1.2-0.5L95.8,96.1H54.8c-0.9,0-1.6-0.7-1.6-1.6c0,0,0,0,0,0V52
	c0-0.9,0.7-1.6,1.6-1.6c0,0,0,0,0,0h68c0.9,0,1.6,0.7,1.7,1.6c0,0,0,0,0,0v42.5c0,0.4-0.2,0.8-0.5,1.2c-0.3,0.3-0.7,0.5-1.2,0.5l0,0
	h-9.7v13.5c0,0.7-0.4,1.3-1,1.5C112,111.2,111.8,111.2,111.6,111.2z M56.5,92.8h39.9c0.4,0,0.9,0.2,1.2,0.5l12.3,12.3V94.4
	c0-0.4,0.2-0.8,0.5-1.2c0.3-0.3,0.7-0.5,1.2-0.5l0,0h9.7V53.6H56.5V92.8z"/>
</svg>
