<?xml version="1.0" encoding="UTF-8"?><svg id="uuid-18e2c276-8131-46ef-9364-920ead3c4951" xmlns="http://www.w3.org/2000/svg" viewBox="0 0 360 206"><defs><style>.uuid-1ee8a8fa-b1e7-4978-99d9-ba4501d76f64{fill:#ededed;}</style></defs><rect class="uuid-1ee8a8fa-b1e7-4978-99d9-ba4501d76f64" width="360" height="206"/><path d="m198.3423,47.9992c-3.0099,0-5.4586-2.4487-5.4586-5.4586s2.4487-5.4586,5.4586-5.4586,5.4586,2.4487,5.4586,5.4586-2.4487,5.4586-5.4586,5.4586Zm0-8.7338c-1.8056,0-3.2752,1.4696-3.2752,3.2752s1.4696,3.2752,3.2752,3.2752,3.2752-1.4696,3.2752-3.2752-1.4696-3.2752-3.2752-3.2752Z"/><path d="m193.102,84.6811c-5.8996,0-10.6989-4.7993-10.6989-10.6989s4.7993-10.6989,10.6989-10.6989,10.6989,4.7993,10.6989,10.6989-4.7993,10.6989-10.6989,10.6989Zm0-19.2143c-4.6953,0-8.5155,3.8202-8.5155,8.5155s3.8202,8.5155,8.5155,8.5155,8.5155-3.8202,8.5155-8.5155-3.8202-8.5155-8.5155-8.5155Z"/><path d="m175.6345,75.9473l-.4563-.0051c-.6022-.0145-1.0798-.5152-1.0653-1.1182.0154-.603.5271-1.0525,1.1182-1.0653l.4034.0051c.8222,0,1.6512-.0589,2.4658-.1748.5996-.0861,1.1497.3292,1.235.9263s-.3292,1.1497-.9263,1.235c-.9169.1305-1.85.197-2.7745.197Z"/><path d="m169.6061,74.9332c-.1186,0-.2397-.0196-.3591-.0606-1.9054-.6627-3.6905-1.6171-5.3068-2.8368-.481-.3633-.5774-1.0482-.2141-1.5293.3633-.4793,1.0474-.5766,1.5293-.2141,1.4346,1.0823,3.0184,1.9293,4.7098,2.5178.5689.1979.87.8205.6721,1.3902-.1569.4503-.5791.7326-1.0312.7326Zm-8.9607-6.7559c-.3429,0-.6798-.1603-.8921-.4614-1.1693-1.6538-2.0666-3.4688-2.6696-5.3947-.18-.5757.1407-1.1881.7164-1.3681.5749-.1783,1.1873.1407,1.3681.7164.5339,1.7084,1.3305,3.3187,2.3677,4.7857.348.493.2311,1.1736-.261,1.5216-.1919.1356-.412.2004-.6294.2004Zm-3.3511-10.7083h-.0077c-.603-.0043-1.0883-.4972-1.084-1.0994.0154-2.0291.342-4.0266.9706-5.9388.1876-.5714.8034-.8853,1.3783-.696.5732.1885.8845.8051.696,1.3783-.5587,1.6964-.8478,3.4705-.8614,5.2718-.0043.6004-.4921,1.084-1.0917,1.084Zm35.6567-5.9218c-.4512,0-.8734-.2815-1.0303-.7309-.5911-1.6888-1.4406-3.2718-2.5246-4.7038-.3642-.481-.2695-1.1659.2107-1.5293.481-.3625,1.1676-.2695,1.5293.2107,1.2222,1.6137,2.18,3.3971,2.8453,5.3008.1996.5697-.1006,1.1924-.6695,1.3911-.1194.0418-.2414.0614-.3608.0614Zm-32.1479-4.7345c-.2235,0-.4486-.0682-.6422-.2098-.487-.3548-.5945-1.038-.2388-1.525,1.189-1.6308,2.6184-3.0628,4.2492-4.2569.4845-.3574,1.1676-.2516,1.5259.2363.3557.4862.2508,1.1693-.2363,1.5259-1.4482,1.0602-2.7182,2.3327-3.775,3.7809-.2132.2934-.5459.4486-.8828.4486Zm25.3775-4.2134c-.2175,0-.4367-.0648-.6277-.1987-1.4704-1.0354-3.0824-1.8295-4.7908-2.3609-.5757-.1783-.8973-.7906-.7181-1.3664.1791-.5749.7847-.899,1.3664-.7181,1.9259.5979,3.7426,1.4934,5.3998,2.6594.493.3471.6115,1.0286.2644,1.5216-.2132.3019-.551.4631-.8938.4631Zm-16.317-2.4078c-.458,0-.8845-.29-1.0363-.7489-.1893-.5723.1203-1.1898.6934-1.3792,1.908-.632,3.9055-.9621,5.9354-.9808.58.006,1.0968.4785,1.102,1.0815s-.4785,1.096-1.0815,1.102c-1.8039.0162-3.5763.3096-5.2701.87-.1134.0375-.2294.0554-.3429.0554Z"/><path d="m193.7912,60.2265c-.052,0-.1041-.0034-.1569-.0111-.5962-.0853-1.0107-.6388-.9254-1.2359.116-.8086.1748-1.6384.1748-2.4649l-.0051-.4051c-.0136-.6022.4631-1.1028,1.0661-1.1173.5331.0256,1.1028.4623,1.1173,1.0661l.0051.4563c0,.9297-.0665,1.8636-.197,2.7754-.0776.5442-.545.9365-1.0789.9365Z"/><path d="m273.2577,146.1046c-.2798,0-.5587-.1066-.7719-.3198-.4265-.4265-.4265-1.1173,0-1.5438l17.4676-17.4676c.4265-.4265,1.1173-.4265,1.5438,0s.4265,1.1173,0,1.5438l-17.4676,17.4676c-.2132.2132-.4921.3198-.7719.3198Z"/><path d="m283.7383,135.6241c-.603,0-1.0917-.4887-1.0917-1.0917v-5.2403c0-.2891.1151-.5672.3198-.7719l6.987-6.987c.313-.313.7813-.4051,1.1898-.2371.4077.1697.6738.5672.6738,1.009v5.2403c0,.603-.4887,1.0917-1.0917,1.0917s-1.0917-.4887-1.0917-1.0917v-2.6048l-4.8036,4.8036v4.7882c0,.603-.4887,1.0917-1.0917,1.0917Z"/><path d="m288.9786,135.6241h-5.2403c-.603,0-1.0917-.4887-1.0917-1.0917s.4887-1.0917,1.0917-1.0917h4.7882l4.8036-4.8036h-2.6048c-.603,0-1.0917-.4887-1.0917-1.0917s.4887-1.0917,1.0917-1.0917h5.2403c.4418,0,.8393.2661,1.009.6738.1689.4077.0751.8776-.2371,1.1898l-6.987,6.987c-.2047.2047-.4827.3198-.7719.3198Z"/><path d="m273.2577,170.5593c-14.0867,0-25.5464-11.4597-25.5464-25.5464s11.4597-25.5464,25.5464-25.5464c1.7894,0,3.5771.1859,5.3136.5535.5894.1245.9672.7037.8418,1.2939-.1245.5885-.6977.9663-1.2939.8418-1.5881-.3352-3.224-.5058-4.8616-.5058-12.8823,0-23.3629,10.4806-23.3629,23.3629s10.4806,23.3629,23.3629,23.3629,23.3629-10.4806,23.3629-23.3629c0-1.6359-.1706-3.2718-.5066-4.8616-.1254-.5902.2516-1.1693.8418-1.2939.5911-.1288,1.1693.2525,1.2939.8418.3676,1.7382.5544,3.5259.5544,5.3136,0,14.0867-11.4597,25.5464-25.5464,25.5464Z"/><path d="m273.2577,153.0917c-4.4547,0-8.0788-3.624-8.0788-8.0788s3.624-8.0788,8.0788-8.0788c.5672,0,1.1327.0589,1.6819.1757.5894.1254.9663.7045.841,1.2947-.1254.5894-.7002.9689-1.2947.841-.4-.0844-.8128-.1279-1.2282-.1279-3.2504,0-5.8953,2.6449-5.8953,5.8953s2.6449,5.8953,5.8953,5.8953,5.8953-2.6449,5.8953-5.8953c0-.412-.0435-.8265-.1279-1.2299-.1245-.5902.2525-1.1693.8427-1.293.597-.122,1.1685.2525,1.293.8427.1168.5518.1757,1.1165.1757,1.6802,0,4.4547-3.624,8.0788-8.0788,8.0788Z"/><path d="m273.2577,161.8255c-9.2703,0-16.8126-7.5423-16.8126-16.8126s7.5423-16.8126,16.8126-16.8126c1.1804,0,2.3566.1228,3.4969.3642.5902.1245.9672.7045.8418,1.2939-.1245.5902-.7105.9672-1.2939.8418-.9919-.2098-2.0163-.3164-3.0449-.3164-8.0668,0-14.6291,6.5623-14.6291,14.6291s6.5623,14.6291,14.6291,14.6291,14.6291-6.5623,14.6291-14.6291c0-1.0261-.1066-2.0512-.3173-3.0457-.1254-.5894.2516-1.1693.8418-1.2939.5868-.1279,1.1693.2516,1.2939.8418.2422,1.1429.365,2.3199.365,3.4978,0,9.2703-7.5423,16.8126-16.8126,16.8126Z"/><path d="m86.745,170.5908c-14.1037,0-25.5779-11.4742-25.5779-25.5779s11.4742-25.5779,25.5779-25.5779,25.5779,11.4742,25.5779,25.5779-11.4742,25.5779-25.5779,25.5779Zm0-48.9724c-12.8994,0-23.3945,10.4951-23.3945,23.3945s10.4951,23.3945,23.3945,23.3945,23.3945-10.4951,23.3945-23.3945-10.4951-23.3945-23.3945-23.3945Z"/><path d="m86.745,128.6422c-.2789,0-.5757-.122-.7685-.3318-.209-.1919-.3318-.4717-.3318-.7685,0-.2798.1228-.5595.3318-.7685.4017-.4017,1.1352-.4017,1.5378,0,.209.209.3318.4887.3318.7685,0,.2968-.1228.5766-.3318.7685-.1928.2098-.4896.3318-.7693.3318Z"/><path d="m74.5176,133.8824c-.2789,0-.5757-.122-.7685-.3318-.209-.1919-.3318-.4717-.3318-.7685,0-.2798.1228-.5595.3318-.7685.4017-.4017,1.1352-.4017,1.5378,0,.209.209.3139.4887.3139.7685,0,.2968-.1049.5766-.3139.7685-.2098.2098-.4896.3318-.7693.3318Z"/><path d="m69.2774,146.1098c-.2789,0-.5757-.122-.7685-.3318-.209-.1919-.3318-.4717-.3318-.7685,0-.2798.1228-.5595.3318-.7685.2968-.2968.7864-.4017,1.1881-.2448.1399.0699.2448.1399.3497.2448.209.209.3139.4887.3139.7685,0,.1399-.0171.2789-.0699.4188-.052.1399-.1399.2627-.2439.3497-.0878.1049-.2098.1919-.3497.2448-.1399.052-.2798.087-.4196.087Z"/><path d="m104.2125,146.1098c-.139,0-.2789-.035-.4188-.087-.1399-.0529-.2618-.1399-.3497-.2448-.1049-.087-.1919-.2098-.2439-.3497-.0529-.1399-.0699-.2789-.0699-.4188,0-.2798.1049-.5595.3139-.7685.0878-.1049.2098-.1748.3497-.2448.4017-.1569.8904-.052,1.1881.2448.209.209.3139.4887.3139.7685,0,.1399-.0171.2789-.0699.4188-.052.1399-.1399.2627-.2439.3497-.1928.2098-.4896.3318-.7693.3318Z"/><path d="m94.1405,161.8255h-15.7208c-2.047,0-3.7119-1.6649-3.7119-3.7119s1.6649-3.7119,3.7119-3.7119h15.7208c2.047,0,3.7119,1.6649,3.7119,3.7119s-1.6649,3.7119-3.7119,3.7119Zm-15.7208-5.2403c-.8427,0-1.5284.6857-1.5284,1.5284s.6857,1.5284,1.5284,1.5284h15.7208c.8427,0,1.5284-.6857,1.5284-1.5284s-.6857-1.5284-1.5284-1.5284h-15.7208Z"/><path d="m99.7442,132.0137c-.4265-.4265-1.1173-.4265-1.5438,0l-8.6914,8.6914c-.8282-.5407-1.8126-.8617-2.8732-.8617-2.911,0-5.2787,2.3677-5.2787,5.2787s2.3677,5.2778,5.2787,5.2778,5.2778-2.3677,5.2778-5.2778c0-1.0606-.3207-2.045-.861-2.873l8.6916-8.6916c.4265-.4265.4265-1.1173,0-1.5438Zm-13.1084,16.2027c-1.7067,0-3.0952-1.3885-3.0952-3.0944,0-1.7067,1.3885-3.0952,3.0952-3.0952s3.0944,1.3885,3.0944,3.0952-1.3885,3.0944-3.0944,3.0944Z"/><path d="m176.5083,168.8125h-19.2143c-.603,0-1.0917-.4887-1.0917-1.0917v-19.2143c0-.603.4887-1.0917,1.0917-1.0917h19.2143c.603,0,1.0917.4887,1.0917,1.0917v19.2143c0,.603-.4887,1.0917-1.0917,1.0917Zm-18.1226-2.1834h17.0309v-17.0309h-17.0309v17.0309Z"/><path d="m176.5083,149.5982c-.2798,0-.5587-.1066-.7719-.3198-.4265-.4265-.4265-1.1173,0-1.5438l26.2014-26.2014c.3113-.3122.7821-.4051,1.1898-.2371.4077.1697.6738.5672.6738,1.009v12.2273c0,.603-.4887,1.0917-1.0917,1.0917s-1.0917-.4887-1.0917-1.0917v-9.5918l-24.3378,24.3378c-.2132.2132-.4921.3198-.7719.3198Z"/><path d="m202.7096,123.3968h-12.2273c-.603,0-1.0917-.4887-1.0917-1.0917s.4887-1.0917,1.0917-1.0917h12.2273c.603,0,1.0917.4887,1.0917,1.0917s-.4887,1.0917-1.0917,1.0917Z"/><path d="m202.7096,167.0657h-20.9611c-.603,0-1.0917-.4887-1.0917-1.0917s.4887-1.0917,1.0917-1.0917h19.8694v-23.3629c0-.603.4887-1.0917,1.0917-1.0917s1.0917.4887,1.0917,1.0917v24.4546c0,.603-.4887,1.0917-1.0917,1.0917Z"/><path d="m159.0407,144.3579c-.603,0-1.0917-.4887-1.0917-1.0917v-20.9611c0-.603.4887-1.0917,1.0917-1.0917h24.4546c.603,0,1.0917.4887,1.0917,1.0917s-.4887,1.0917-1.0917,1.0917h-23.3629v19.8694c0,.603-.4887,1.0917-1.0917,1.0917Z"/><path d="m281.2043,84.1352h-31.4417c-.603,0-1.0917-.4887-1.0917-1.0917v-45.4157c0-.603.4887-1.0917,1.0917-1.0917h45.4157c.603,0,1.0917.4887,1.0917,1.0917v29.6949c0,.603-.4887,1.0917-1.0917,1.0917s-1.0917-.4887-1.0917-1.0917v-28.6032h-43.2323v43.2323h30.3499c.603,0,1.0917.4887,1.0917,1.0917s-.4887,1.0917-1.0917,1.0917Z"/><path d="m267.2302,47.4533h-10.4806c-.603,0-1.0917-.4887-1.0917-1.0917s.4887-1.0917,1.0917-1.0917h10.4806c.603,0,1.0917.4887,1.0917,1.0917s-.4887,1.0917-1.0917,1.0917Z"/><path d="m288.2007,47.4516c-.2968,0-.5766-.122-.7864-.3139-.1919-.2098-.3139-.4896-.3139-.7685,0-.2968.122-.5766.3139-.7864.4017-.4017,1.1352-.4017,1.5549,0,.1919.2098.3147.4896.3147.7864,0,.1399-.035.2789-.0878.4017-.052.1399-.1399.2618-.2269.3668-.2098.1919-.4896.3139-.7685.3139Z"/><path d="m267.2302,75.4014h-10.4806c-.603,0-1.0917-.4887-1.0917-1.0917s.4887-1.0917,1.0917-1.0917h10.4806c.603,0,1.0917.4887,1.0917,1.0917s-.4887,1.0917-1.0917,1.0917Z"/><path d="m267.2302,61.4274h-10.4806c-.603,0-1.0917-.4887-1.0917-1.0917s.4887-1.0917,1.0917-1.0917h10.4806c.603,0,1.0917.4887,1.0917,1.0917s-.4887,1.0917-1.0917,1.0917Z"/><path d="m288.2007,61.4257c-.2968,0-.5766-.122-.7864-.3139-.1919-.2098-.3139-.4896-.3139-.7685,0-.2968.122-.5766.3139-.7864.4017-.4017,1.1352-.4017,1.5549,0,.1919.2098.3147.4896.3147.7864,0,.2789-.1228.5587-.3147.7685-.2098.1919-.4896.3139-.7685.3139Z"/><path d="m283.6112,75.1523v2.6514c0,3.4918,2.8402,6.332,6.332,6.332.7882,0,1.538-.1517,2.2305-.4209l-8.5625-8.5625Z"/><path d="m296.4322,81.7962l-.9633-.9633c.4978-.904.8063-1.9263.8063-3.0292v-6.0318c0-.5152-.3608-.9604-.8649-1.0678l-5.2403-1.1139c-.1501-.0324-.3036-.0324-.4537,0l-4.5278.9624-.6664-.6664c-.4265-.4265-1.1173-.4265-1.5438,0s-.4265,1.1173,0,1.5438l.6329.6329v.002l10.4825,10.4825s.0009-.0005.0012-.0009l.7935.7935c.2132.2132.4921.3198.7719.3198s.5587-.1066.7719-.3198c.4265-.4265.4265-1.1173,0-1.5438Z"/><path d="m94.6054,74.1613h-20.9611c-.603,0-1.0917-.4887-1.0917-1.0917v-34.9352c0-.603.4887-1.0917,1.0917-1.0917h34.9352c.603,0,1.0917.4887,1.0917,1.0917v27.9481c0,.603-.4887,1.0917-1.0917,1.0917s-1.0917-.4887-1.0917-1.0917v-26.8564h-32.7517v32.7517h19.8694c.603,0,1.0917.4887,1.0917,1.0917s-.4887,1.0917-1.0917,1.0917Z"/><path d="m103.3409,44.4604c-.1399,0-.2798-.0179-.4188-.0699-.1399-.0699-.2627-.1399-.3497-.2448-.2098-.2098-.3318-.4887-.3318-.7685,0-.1399.035-.2798.087-.4196.0529-.139.1399-.2618.2448-.3488.087-.1049.2098-.1919.3497-.2448.4017-.1569.8904-.0699,1.1873.2448.1049.087.1748.2098.2448.3488.052.1399.0699.2798.0699.4196,0,.2798-.1049.5587-.3147.7685-.1049.1049-.2269.1748-.3488.2448-.1399.052-.2798.0699-.4196.0699Z"/><path d="m99.8474,44.4604c-.2968,0-.5766-.1049-.7685-.3147-.1049-.1049-.1919-.2269-.2448-.3497-.052-.139-.087-.2789-.087-.4188s.035-.2798.087-.4196c.0529-.139.1399-.2618.2448-.3488.4017-.4017,1.1352-.4017,1.5369,0,.1049.087.1748.2098.2448.3488.052.1399.0699.2798.0699.4196s-.0179.2798-.0699.4188c-.0699.1399-.1399.2448-.2448.3497-.1919.2098-.4887.3147-.7685.3147Z"/><path d="m94.6054,79.4016h-26.2014c-.603,0-1.0917-.4887-1.0917-1.0917v-34.9352c0-.603.4887-1.0917,1.0917-1.0917s1.0917.4887,1.0917,1.0917v33.8435h25.1097c.603,0,1.0917.4887,1.0917,1.0917s-.4887,1.0917-1.0917,1.0917Z"/><path d="m96.3521,84.6419h-33.1884c-.603,0-1.0917-.4887-1.0917-1.0917v-34.9352c0-.603.4887-1.0917,1.0917-1.0917s1.0917.4887,1.0917,1.0917v33.8435h32.0967c.603,0,1.0917.4887,1.0917,1.0917s-.4887,1.0917-1.0917,1.0917Z"/><path d="m99.8455,72.357l5.2403-1.1139s3.34.7099,5.2403,1.1139v6.032c0,2.8941-2.3461,5.2403-5.2403,5.2403s-5.2403-2.3462-5.2403-5.2403v-6.032Z"/><path d="m105.0859,84.7212c-3.4918,0-6.332-2.8402-6.332-6.332v-6.0318c0-.5152.3608-.9604.8649-1.0678l5.2403-1.1139c.1501-.0324.3036-.0324.4537,0l5.2403,1.1139c.5041.1075.8649.5527.8649,1.0678v6.0318c0,3.4918-2.8402,6.332-6.332,6.332Zm-4.1486-11.4793v5.1473c0,2.2875,1.861,4.1486,4.1486,4.1486s4.1486-1.861,4.1486-4.1486v-5.1473l-4.1486-.8819-4.1486.8819Z"/></svg>