<?xml version="1.0" encoding="UTF-8"?><svg id="uuid-9aa8f378-3e71-42f6-912b-ef1b1afd1674" xmlns="http://www.w3.org/2000/svg" viewBox="0 0 262 180"><defs><style>.uuid-e4281442-9527-4cc8-8bd1-5071082ed46f{fill:none;}.uuid-cf1a7564-7572-4273-9c67-987d013e7fa8{fill:#e00;}</style></defs><g id="uuid-aa648bdb-a84f-493c-9000-649075f4bc42"><g id="uuid-e8b3ce64-43a6-45d1-9331-a27003d0ce64"><rect class="uuid-e4281442-9527-4cc8-8bd1-5071082ed46f" x="81" y="40" width="100" height="100"/></g><g id="uuid-7034aa05-2270-441d-9db6-4b20d8b67c12"><path class="uuid-cf1a7564-7572-4273-9c67-987d013e7fa8" d="m167.1111,52.1528h-55.5556c-.9589,0-1.7361.7772-1.7361,1.7361v55.5556c0,.9589.7772,1.7361,1.7361,1.7361h55.5556c.9589,0,1.7361-.7772,1.7361-1.7361v-55.5556c0-.9589-.7772-1.7361-1.7361-1.7361Zm-1.7361,55.5556h-52.0833v-52.0833h52.0833v52.0833Z"/><path class="uuid-cf1a7564-7572-4273-9c67-987d013e7fa8" d="m157.5558,63.4442c.1656.1669.3608.3053.5547.3878.2225.0842.445.1397.6672.1397.2211,0,.4436-.0556.6658-.1397.2225-.0828.3892-.2211.5561-.3878s.3053-.3336.3878-.5561c.0842-.2225.1397-.445.1397-.6658,0-.445-.1939-.9169-.5275-1.2219-.1669-.1669-.3336-.2781-.5561-.3892-.4164-.1669-.9169-.1669-1.3333,0-.1939.1111-.3892.2225-.5547.3892-.3336.3053-.5006.7486-.5006,1.2219,0,.2211.0272.4436.1111.6658.1111.2225.2225.3892.3892.5561h.0005Z"/><path class="uuid-cf1a7564-7572-4273-9c67-987d013e7fa8" d="m153.2222,63.9719c.2211,0,.4436-.0556.6658-.1397.2225-.0828.3892-.2211.5561-.3878.3336-.3067.5275-.7786.5275-1.2219,0-.445-.1939-.9169-.5275-1.2219-.1669-.1669-.3336-.2781-.5561-.3892-.6389-.2508-1.4161-.0842-1.8881.3892-.3336.3053-.5006.7486-.5006,1.2219,0,.4719.1669.9156.5006,1.2219.3053.3336.7772.5275,1.2219.5275h.0003Z"/><path class="uuid-cf1a7564-7572-4273-9c67-987d013e7fa8" d="m158.7778,116.0417h-53.8194v-53.8194c0-.9589-.7772-1.7361-1.7361-1.7361s-1.7361.7772-1.7361,1.7361v55.5556c0,.9589.7772,1.7361,1.7361,1.7361h55.5556c.9589,0,1.7361-.7772,1.7361-1.7361s-.7772-1.7361-1.7361-1.7361Z"/><path class="uuid-cf1a7564-7572-4273-9c67-987d013e7fa8" d="m150.4444,124.375h-53.8194v-53.8194c0-.9589-.7772-1.7361-1.7361-1.7361s-1.7361.7772-1.7361,1.7361v55.5556c0,.9589.7772,1.7361,1.7361,1.7361h55.5556c.9589,0,1.7361-.7772,1.7361-1.7361s-.7772-1.7361-1.7361-1.7361Z"/></g></g></svg>