<?xml version="1.0" encoding="UTF-8"?><svg id="uuid-f24644ec-0be7-4d4b-b675-095adc880c70" xmlns="http://www.w3.org/2000/svg" viewBox="0 0 262 180"><defs><style>.uuid-7e32d7e2-7990-4142-8e35-776094569de7{fill:none;}.uuid-a3b6e803-4a2d-498a-8ba1-442fb9617b8d{fill:#e00;}</style></defs><g id="uuid-efa780ae-5bfa-44aa-a71c-505739bb1332"><g id="uuid-d9f8a753-de13-4ac5-ae14-e9aac94f1d54"><rect class="uuid-7e32d7e2-7990-4142-8e35-776094569de7" x="81" y="40" width="100" height="100"/></g><g id="uuid-7e2e0c58-3f5b-40f5-9ebb-cee6b6948099"><path class="uuid-a3b6e803-4a2d-498a-8ba1-442fb9617b8d" d="m167.1111,52.1528h-55.5556c-.9589,0-1.7361.7772-1.7361,1.7361v55.5556c0,.9589.7772,1.7361,1.7361,1.7361h55.5556c.9589,0,1.7361-.7772,1.7361-1.7361v-55.5556c0-.9589-.7772-1.7361-1.7361-1.7361Zm-1.7361,55.5556h-52.0833v-52.0833h52.0833v52.0833Z"/><path class="uuid-a3b6e803-4a2d-498a-8ba1-442fb9617b8d" d="m157.5558,63.4442c.1656.1669.3608.3053.5547.3878.2225.0842.445.1397.6672.1397.2211,0,.4436-.0556.6658-.1397.2225-.0828.3892-.2211.5561-.3878s.3053-.3336.3878-.5561c.0842-.2225.1397-.445.1397-.6658,0-.445-.1939-.9169-.5275-1.2219-.1669-.1669-.3336-.2781-.5561-.3892-.4164-.1669-.9169-.1669-1.3333,0-.1939.1111-.3892.2225-.5547.3892-.3336.3053-.5006.7486-.5006,1.2219,0,.2211.0272.4436.1111.6658.1111.2225.2225.3892.3892.5561h.0005Z"/><path class="uuid-a3b6e803-4a2d-498a-8ba1-442fb9617b8d" d="m153.2222,63.9719c.2211,0,.4436-.0556.6658-.1397.2225-.0828.3892-.2211.5561-.3878.3336-.3067.5275-.7786.5275-1.2219,0-.445-.1939-.9169-.5275-1.2219-.1669-.1669-.3336-.2781-.5561-.3892-.6389-.2508-1.4161-.0842-1.8881.3892-.3336.3053-.5006.7486-.5006,1.2219,0,.4719.1669.9156.5006,1.2219.3053.3336.7772.5275,1.2219.5275h.0003Z"/><path class="uuid-a3b6e803-4a2d-498a-8ba1-442fb9617b8d" d="m158.7778,116.0417h-53.8194v-53.8194c0-.9589-.7772-1.7361-1.7361-1.7361s-1.7361.7772-1.7361,1.7361v55.5556c0,.9589.7772,1.7361,1.7361,1.7361h55.5556c.9589,0,1.7361-.7772,1.7361-1.7361s-.7772-1.7361-1.7361-1.7361Z"/><path class="uuid-a3b6e803-4a2d-498a-8ba1-442fb9617b8d" d="m150.4444,124.375h-53.8194v-53.8194c0-.9589-.7772-1.7361-1.7361-1.7361s-1.7361.7772-1.7361,1.7361v55.5556c0,.9589.7772,1.7361,1.7361,1.7361h55.5556c.9589,0,1.7361-.7772,1.7361-1.7361s-.7772-1.7361-1.7361-1.7361Z"/></g></g><g id="uuid-cb333794-724a-4c22-bad7-d6cd994d3de5"><g id="uuid-a0e009bf-d079-4b4e-941a-baadb8ff4e0b"><rect class="uuid-7e32d7e2-7990-4142-8e35-776094569de7" x="116.7097" y="59.043" width="45.2473" height="45.2473"/></g><g id="uuid-2ae24d99-37c2-422b-a81b-489c385c6b60"><path class="uuid-a3b6e803-4a2d-498a-8ba1-442fb9617b8d" d="m152.6876,81.0661v-.0277c0-6.3242-5.1447-11.4689-11.4689-11.4689-4.3628,0-8.3261,2.4726-10.2612,6.3495-5.4541-.6616-10.0052,3.6086-10.0058,8.8901,0,4.9379,4.0173,8.9552,8.9552,8.9552h21.9952c.116,0,.2265-.0251.3259-.0706,3.1011-.4622,5.4871-3.1434,5.4871-6.3708,0-3.0366-2.1148-5.608-5.0275-6.2567Zm-1.414,11.1271h-21.3668c-4.0714,0-7.3841-3.3127-7.3841-7.3841s3.3127-7.3841,7.3841-7.3841c.4413,0,.9016.0442,1.3686.132.3559.0694.7193-.1222.8654-.459,1.5736-3.619,5.1367-5.9572,9.078-5.9572,5.4577,0,9.8978,4.4401,9.8978,9.8978,0,.1639-.0117.3247-.0234.4854l-.0098.1522c-.027.4204.2823.7874.7008.8315,2.4855.2633,4.3598,2.3333,4.3598,4.8152,0,2.6856-2.1848,4.8704-4.8704,4.8704h-.0001Z"/><path class="uuid-a3b6e803-4a2d-498a-8ba1-442fb9617b8d" d="m140.2631,79.6417c-.4266-.0884-.842.181-.9316.6051l-1.5625,7.3516c-.0902.4241.1805.8413.6051.9316.0552.0117.1099.0172.1639.0172.3634,0,.6891-.2529.7677-.6223l1.5625-7.3516c.0902-.4241-.1805-.8413-.6051-.9316Z"/><path class="uuid-a3b6e803-4a2d-498a-8ba1-442fb9617b8d" d="m144.2087,80.3008c-.3068-.3068-.8039-.3068-1.1108,0s-.3068.8039,0,1.1108l2.6659,2.6659-2.6659,2.6659c-.3068.3068-.3068.8039,0,1.1108.1535.1535.3541.2301.5554.2301s.4019-.0767.5554-.2301l3.2214-3.2214c.3068-.3068.3068-.8039,0-1.1108l-3.2214-3.2214Z"/><path class="uuid-a3b6e803-4a2d-498a-8ba1-442fb9617b8d" d="m135.5689,80.3008c-.3068-.3068-.8039-.3068-1.1108,0l-3.2214,3.2214c-.3068.3068-.3068.8039,0,1.1108l3.2214,3.2214c.1535.1535.3541.2301.5554.2301s.4019-.0767.5554-.2301c.3068-.3068.3068-.8039,0-1.1108l-2.6659-2.6659,2.6659-2.6659c.3068-.3068.3068-.8039,0-1.1108Z"/></g></g></svg>